<?xml version="1.0" encoding="UTF-8"?>
<svg xmlns="http://www.w3.org/2000/svg" xmlns:xlink="http://www.w3.org/1999/xlink" width="48" height="48" viewBox="0 0 48 48" version="1.1">
<g id="surface1">
<path style=" stroke:none;fill-rule:nonzero;fill:rgb(100%,100%,100%);fill-opacity:1;" d="M 34.351562 7.378906 L 16.515625 25.113281 C 12.613281 28.996094 10.8125 33.539062 12.480469 35.296875 C 14.148438 37.058594 18.636719 35.351562 22.539062 31.46875 L 40.371094 13.734375 C 44.273438 9.855469 46.074219 5.3125 44.40625 3.550781 C 42.738281 1.792969 38.253906 3.5 34.351562 7.378906 Z M 34.351562 7.378906 "/>
<path style=" stroke:none;fill-rule:nonzero;fill:rgb(100%,100%,100%);fill-opacity:1;" d="M 9.148438 7.289062 L 5.464844 11.097656 L 23.234375 24.597656 L 36.851562 42.484375 L 40.65625 38.796875 L 32.738281 15.210938 Z M 9.148438 7.289062 "/>
<path style=" stroke:none;fill-rule:nonzero;fill:rgb(100%,100%,100%);fill-opacity:1;" d="M 18.898438 28.949219 L 5.113281 27.921875 L 3.019531 30.042969 L 11.5625 36.371094 L 17.804688 44.898438 L 19.914062 42.789062 Z M 18.898438 28.949219 "/>
</g>
</svg>
