<?xml version="1.0" encoding="UTF-8"?>
<svg xmlns="http://www.w3.org/2000/svg" xmlns:xlink="http://www.w3.org/1999/xlink" width="48" height="48" viewBox="0 0 48 48" version="1.1">
<g id="surface1">
<path style=" stroke:none;fill-rule:nonzero;fill:rgb(74.509804%,74.509804%,74.509804%);fill-opacity:1;" d="M 19.5 0 C 8.765625 0 0 8.765625 0 19.5 C 0 30.234375 8.765625 39 19.5 39 C 20.011719 39 20.496094 38.945312 21 38.90625 L 21 32.8125 C 20.496094 32.867188 20.015625 33 19.5 33 C 12.007812 33 6 26.992188 6 19.5 C 6 12.007812 12.007812 6 19.5 6 C 26.992188 6 33 12.007812 33 19.5 C 33 20.019531 32.867188 20.5 32.8125 21 L 38.90625 21 C 38.945312 20.5 39 20.011719 39 19.5 C 39 8.765625 30.234375 0 19.5 0 Z M 19.5 0 "/>
<path style=" stroke:none;fill-rule:nonzero;fill:rgb(74.509804%,74.509804%,74.509804%);fill-opacity:1;" d="M 19.230469 9 C 18.507812 9.132812 17.988281 9.765625 18 10.5 L 18 18 L 13.5 18 C 12.960938 17.992188 12.457031 18.277344 12.183594 18.742188 C 11.910156 19.210938 11.910156 19.789062 12.183594 20.257812 C 12.457031 20.722656 12.960938 21.007812 13.5 21 L 19.5 21 C 20.328125 21 21 20.328125 21 19.5 L 21 10.5 C 21.007812 10.046875 20.8125 9.617188 20.46875 9.328125 C 20.121094 9.035156 19.664062 8.914062 19.21875 9 Z M 19.230469 9 "/>
<path style=" stroke:none;fill-rule:nonzero;fill:rgb(96.078431%,47.45098%,0%);fill-opacity:1;" d="M 26.640625 24.210938 C 25.164062 24.210938 24.015625 25.347656 24.015625 26.8125 L 24.015625 45.398438 C 24.015625 46.863281 25.164062 48 26.640625 48 L 45.390625 48 C 46.867188 48 48.015625 46.863281 48.015625 45.398438 L 48.015625 26.8125 C 48.015625 25.347656 46.867188 24.210938 45.390625 24.210938 Z M 33.015625 27.183594 L 39.015625 27.183594 L 39.015625 39.078125 L 33.015625 39.078125 Z M 33.015625 42.054688 L 39.015625 42.054688 L 39.015625 45.027344 L 33.015625 45.027344 Z M 33.015625 42.054688 "/>
<path style=" stroke:none;fill-rule:nonzero;fill:rgb(100%,100%,100%);fill-opacity:1;" d="M 16.230469 38.65625 C 14.375 38.347656 11.242188 37.171875 9.480469 36.117188 C 7.527344 34.953125 4.683594 32.253906 3.421875 30.371094 C 2.308594 28.707031 1.316406 26.558594 0.730469 24.527344 C 0.328125 23.136719 0.265625 22.460938 0.265625 19.464844 C 0.265625 16.4375 0.324219 15.804688 0.742188 14.378906 C 2.609375 7.988281 7.507812 2.933594 13.714844 0.988281 C 24.128906 -2.277344 35.253906 3.769531 38.191406 14.292969 C 38.691406 16.085938 39.046875 19.15625 38.875 20.226562 L 38.753906 20.988281 L 33.011719 20.988281 L 33 19.109375 C 32.980469 15.539062 31.6875 12.605469 28.941406 9.875 C 27.035156 7.980469 24.9375 6.824219 22.394531 6.261719 C 15.375 4.710938 8.226562 9.097656 6.351562 16.109375 C 5.890625 17.84375 5.878906 21.054688 6.332031 22.820312 C 7.855469 28.738281 13.242188 32.988281 19.21875 32.988281 L 20.910156 32.988281 L 20.910156 38.886719 L 19.128906 38.863281 C 18.148438 38.851562 16.84375 38.757812 16.230469 38.65625 Z M 16.230469 38.65625 "/>
<path style=" stroke:none;fill-rule:nonzero;fill:rgb(100%,100%,100%);fill-opacity:1;" d="M 12.820312 20.738281 C 12.054688 20.371094 11.894531 19.195312 12.519531 18.5 C 12.789062 18.195312 13.21875 18.140625 15.449219 18.140625 L 18.0625 18.140625 L 18.0625 14.066406 C 18.0625 10.007812 18.0625 9.984375 18.558594 9.488281 C 19.171875 8.878906 19.667969 8.859375 20.371094 9.410156 L 20.910156 9.832031 L 20.910156 19.992188 L 20.410156 20.492188 C 19.917969 20.980469 19.851562 20.988281 16.59375 20.976562 C 14.640625 20.96875 13.089844 20.871094 12.820312 20.738281 Z M 12.820312 20.738281 "/>
</g>
</svg>
