<?xml version="1.0" encoding="UTF-8"?>
<svg xmlns="http://www.w3.org/2000/svg" xmlns:xlink="http://www.w3.org/1999/xlink" width="48" height="48" viewBox="0 0 48 48" version="1.1">
<g id="surface1">
<path style=" stroke:none;fill-rule:nonzero;fill:rgb(74.509804%,74.509804%,74.509804%);fill-opacity:1;" d="M 19.230469 15 C 18.507812 15.132812 17.988281 15.765625 18 16.5 L 18 24 L 13.5 24 C 12.960938 23.992188 12.457031 24.277344 12.183594 24.742188 C 11.910156 25.210938 11.910156 25.789062 12.183594 26.257812 C 12.457031 26.722656 12.960938 27.007812 13.5 27 L 19.5 27 C 20.328125 27 21 26.328125 21 25.5 L 21 16.5 C 21.007812 16.046875 20.8125 15.617188 20.46875 15.328125 C 20.121094 15.035156 19.664062 14.914062 19.21875 15 Z M 19.230469 15 "/>
<path style=" stroke:none;fill-rule:nonzero;fill:rgb(74.509804%,74.509804%,74.509804%);fill-opacity:1;" d="M 33 33 L 37.125 33 L 40.5 36.28125 L 43.78125 33 L 48 33 L 48 37.40625 L 44.71875 40.59375 L 48 43.78125 L 48 48 L 43.6875 48 L 40.5 44.8125 L 37.3125 48 L 33 48 L 33 43.78125 L 36.1875 40.59375 L 33 37.40625 Z M 33 33 "/>
<path style=" stroke:none;fill-rule:nonzero;fill:rgb(74.509804%,74.509804%,74.509804%);fill-opacity:1;" d="M 19.5 6 C 8.765625 6 0 14.765625 0 25.5 C 0 36.234375 8.765625 45 19.5 45 C 23.375 45 26.953125 43.875 30 41.90625 L 30 33.9375 C 27.539062 37.019531 23.789062 39 19.5 39 C 12.007812 39 6 32.992188 6 25.5 C 6 18.007812 12.007812 12 19.5 12 C 26.992188 12 33 18.007812 33 25.5 C 33 27.101562 32.660156 28.582031 32.15625 30 L 38.4375 30 C 38.78125 28.554688 39 27.046875 39 25.5 C 39 14.765625 30.234375 6 19.5 6 Z M 19.5 6 "/>
<path style=" stroke:none;fill-rule:nonzero;fill:rgb(100%,0%,0%);fill-opacity:1;" d="M 33.113281 45.757812 L 33.113281 43.675781 L 34.683594 42.097656 L 36.253906 40.515625 L 34.683594 38.933594 L 33.113281 37.355469 L 33.113281 32.988281 L 37.070312 32.988281 L 38.746094 34.65625 L 40.421875 36.328125 L 42.132812 34.65625 L 43.839844 32.988281 L 47.960938 32.988281 L 47.960938 37.371094 L 44.703125 40.609375 L 47.960938 43.878906 L 47.960938 47.835938 L 43.59375 47.835938 L 42.015625 46.265625 L 40.433594 44.695312 L 38.851562 46.265625 L 37.273438 47.835938 L 33.113281 47.835938 Z M 33.113281 45.757812 "/>
<path style=" stroke:none;fill-rule:nonzero;fill:rgb(100%,100%,100%);fill-opacity:1;" d="M 17.09375 44.785156 C 9.605469 43.738281 3.507812 38.710938 1.085938 31.585938 C -0.0546875 28.234375 -0.144531 23.480469 0.863281 20.074219 C 2.785156 13.597656 7.859375 8.632812 14.523438 6.710938 C 15.921875 6.308594 16.578125 6.25 19.585938 6.257812 C 22.753906 6.265625 23.195312 6.3125 24.832031 6.816406 C 26.746094 7.40625 28.988281 8.457031 30.46875 9.460938 C 31.816406 10.378906 34.25 12.777344 35.273438 14.207031 C 36.335938 15.691406 37.808594 18.773438 38.265625 20.480469 C 38.964844 23.066406 39.066406 27.117188 38.496094 29.378906 L 38.355469 29.9375 L 35.304688 29.9375 C 32.671875 29.9375 32.269531 29.898438 32.371094 29.632812 C 32.4375 29.464844 32.640625 28.578125 32.828125 27.664062 C 33.390625 24.890625 33.015625 22.46875 31.5625 19.417969 C 29.640625 15.390625 25.628906 12.570312 21.101562 12.0625 C 16.828125 11.585938 12.933594 12.929688 9.945312 15.921875 C 3 22.863281 5.457031 34.523438 14.621094 38.140625 C 19.351562 40.011719 24.738281 38.96875 28.691406 35.425781 L 29.867188 34.371094 L 29.757812 42.039062 L 28.027344 42.902344 C 24.910156 44.460938 20.359375 45.242188 17.09375 44.785156 Z M 17.09375 44.785156 "/>
<path style=" stroke:none;fill-rule:nonzero;fill:rgb(100%,100%,100%);fill-opacity:1;" d="M 12.558594 26.515625 C 11.949219 26.019531 11.960938 24.898438 12.578125 24.398438 C 12.949219 24.101562 13.441406 24.039062 15.542969 24.039062 L 18.0625 24.039062 L 18.0625 20.011719 C 18.0625 16.238281 18.085938 15.953125 18.476562 15.535156 C 19 14.976562 19.960938 14.957031 20.5 15.5 C 20.886719 15.882812 20.910156 16.175781 20.910156 20.988281 C 20.910156 25.804688 20.886719 26.097656 20.5 26.480469 C 20.125 26.855469 19.824219 26.886719 16.558594 26.886719 C 13.429688 26.886719 12.96875 26.84375 12.558594 26.515625 Z M 12.558594 26.515625 "/>
</g>
</svg>
