<?xml version="1.0" encoding="UTF-8"?>
<svg xmlns="http://www.w3.org/2000/svg" xmlns:xlink="http://www.w3.org/1999/xlink" width="48" height="48" viewBox="0 0 48 48" version="1.1">
<g id="surface1">
<path style=" stroke:none;fill-rule:nonzero;fill:rgb(74.509804%,74.509804%,74.509804%);fill-opacity:1;" d="M 15 24 L 15 30 L 33 30 L 33 24 Z M 15 24 "/>
<path style=" stroke:none;fill-rule:nonzero;fill:rgb(74.509804%,74.509804%,74.509804%);fill-opacity:1;" d="M 16.40625 0 C 14.9375 0 14.019531 0.683594 13.3125 1.40625 C 12.605469 2.125 12 3.085938 12 4.496094 L 12 5.996094 L 6 5.996094 L 6 47.996094 L 42 47.996094 L 42 5.996094 L 36 5.996094 L 36 4.777344 C 35.929688 3.484375 35.488281 2.519531 34.78125 1.683594 C 34.109375 0.890625 32.898438 0.0976562 31.3125 0.0898438 L 31.3125 -0.00390625 L 16.40625 -0.00390625 Z M 18 6 L 30 6 L 30 12 L 36 12 L 36 42 L 12 42 L 12 12 L 18 12 Z M 18 6 "/>
<path style=" stroke:none;fill-rule:nonzero;fill:rgb(74.509804%,74.509804%,74.509804%);fill-opacity:1;" d="M 15 33 L 15 39 L 33 39 L 33 33 Z M 15 33 "/>
<path style=" stroke:none;fill-rule:nonzero;fill:rgb(0%,0%,0%);fill-opacity:1;" d="M 6.035156 26.984375 L 6.035156 5.996094 L 12.039062 5.996094 L 12.039062 4.953125 C 12.039062 4.117188 12.0625 3.816406 12.160156 3.433594 C 12.539062 1.949219 13.898438 0.570312 15.414062 0.132812 C 15.753906 0.0351562 16.398438 0.0234375 23.539062 0.0078125 C 28.878906 -0.0078125 31.292969 0.0078125 31.292969 0.0507812 C 31.292969 0.0859375 31.390625 0.113281 31.511719 0.113281 C 31.839844 0.113281 32.636719 0.292969 33.03125 0.453125 C 34.0625 0.871094 35.003906 1.785156 35.5 2.84375 C 35.804688 3.492188 35.9375 4.132812 35.980469 5.113281 L 36.015625 5.996094 L 42.003906 5.996094 L 42.003906 47.972656 L 6.035156 47.972656 Z M 36 27.015625 L 36 12 L 29.992188 12 L 29.992188 5.996094 L 17.984375 5.996094 L 17.984375 12 L 11.976562 12 L 11.976562 42.03125 L 36 42.03125 Z M 36 27.015625 "/>
<path style=" stroke:none;fill-rule:nonzero;fill:rgb(100%,0%,0%);fill-opacity:1;" d="M 15.011719 26.984375 L 15.011719 24.011719 L 32.964844 24.011719 L 32.964844 29.957031 L 15.011719 29.957031 Z M 15.011719 26.984375 "/>
<path style=" stroke:none;fill-rule:nonzero;fill:rgb(100%,0%,0%);fill-opacity:1;" d="M 15.011719 36.023438 L 15.011719 33.050781 L 32.964844 33.050781 L 32.964844 38.996094 L 15.011719 38.996094 Z M 15.011719 36.023438 "/>
<path style=" stroke:none;fill-rule:nonzero;fill:rgb(100%,100%,100%);fill-opacity:1;" d="M 6.0625 26.988281 L 6.0625 6.140625 L 12.164062 6.140625 L 12.164062 4.914062 C 12.164062 2.96875 12.910156 1.640625 14.601562 0.585938 C 15.296875 0.152344 15.519531 0.140625 22.9375 0.0742188 C 28.136719 0.0273438 30.949219 0.0820312 31.785156 0.242188 C 34.1875 0.703125 35.453125 2.074219 35.820312 4.609375 L 36.039062 6.140625 L 41.859375 6.140625 L 41.859375 47.835938 L 6.0625 47.835938 Z M 36.113281 27.039062 L 36.0625 11.9375 L 30.0625 11.828125 L 30.0625 5.9375 L 17.859375 5.9375 L 17.859375 11.835938 L 11.960938 11.835938 L 11.960938 42.140625 L 36.164062 42.140625 Z M 36.113281 27.039062 "/>
</g>
</svg>
