<?xml version="1.0" encoding="UTF-8"?>
<svg xmlns="http://www.w3.org/2000/svg" xmlns:xlink="http://www.w3.org/1999/xlink" width="48" height="48" viewBox="0 0 48 48" version="1.1">
<g id="surface1">
<path style=" stroke:none;fill-rule:nonzero;fill:rgb(74.509804%,74.509804%,74.509804%);fill-opacity:1;" d="M 15 15 L 15 21 L 33 21 L 33 15 Z M 15 24 L 15 30 L 27 30 L 27.75 29.625 L 33 24.375 L 33 24 Z M 15 33.1875 L 15 39 L 24 39 L 24 33.1875 Z M 15 33.1875 "/>
<path style=" stroke:none;fill-rule:nonzero;fill:rgb(74.509804%,74.509804%,74.509804%);fill-opacity:1;" d="M 16.410156 0 C 14.9375 0 14.023438 0.683594 13.316406 1.40625 C 12.597656 2.125 11.996094 3.085938 11.996094 4.496094 L 11.996094 5.996094 L 5.996094 5.996094 L 5.996094 47.996094 L 29.996094 47.996094 L 29.996094 41.996094 L 11.996094 41.996094 L 11.996094 11.996094 L 17.996094 11.996094 L 17.996094 5.996094 L 29.996094 5.996094 L 29.996094 11.996094 L 35.996094 11.996094 L 35.996094 20.996094 L 41.996094 20.996094 L 41.996094 5.996094 L 35.996094 5.996094 L 35.996094 4.683594 C 35.925781 3.390625 35.484375 2.519531 34.777344 1.683594 C 34.105469 0.890625 32.898438 0.0976562 31.308594 0.0898438 L 31.308594 -0.00390625 L 16.402344 -0.00390625 Z M 16.410156 0 "/>
<path style=" stroke:none;fill-rule:nonzero;fill:rgb(74.509804%,74.509804%,74.509804%);fill-opacity:1;" d="M 38.25 24 C 37.71875 24.148438 37.226562 24.441406 36.84375 24.84375 L 27.84375 33.75 C 27.136719 34.441406 26.808594 35.59375 27 36.5625 L 27 39 L 36.375 39 L 33.84375 42.75 C 33.386719 43.199219 33.109375 43.808594 33 44.4375 L 33 48 L 36 48 C 36.789062 48.011719 37.582031 47.609375 38.15625 47.0625 L 47.15625 38.0625 C 47.707031 37.492188 48.019531 36.792969 48 36 C 48.007812 35.875 48.007812 35.75 48 35.625 L 48 33 L 45.1875 33 C 45.125 33 45.0625 33 45 33 L 38.625 33 L 41.15625 29.0625 C 41.613281 28.617188 41.890625 28.070312 42 27.46875 L 42 24 Z M 38.25 24 "/>
<path style=" stroke:none;fill-rule:nonzero;fill:rgb(0%,0%,0%);fill-opacity:1;" d="M 6.035156 26.984375 L 6.035156 5.996094 L 12.027344 5.996094 L 12.054688 4.773438 C 12.078125 3.71875 12.101562 3.5 12.21875 3.179688 C 12.722656 1.769531 14.019531 0.535156 15.414062 0.132812 C 15.753906 0.0351562 16.398438 0.0234375 23.539062 0.0078125 C 28.878906 -0.0078125 31.292969 0.0078125 31.292969 0.0507812 C 31.292969 0.0859375 31.390625 0.113281 31.511719 0.113281 C 31.839844 0.113281 32.636719 0.292969 33.03125 0.453125 C 34.050781 0.867188 34.96875 1.746094 35.503906 2.832031 C 35.808594 3.445312 35.9375 4.058594 35.980469 5.082031 L 36.015625 5.996094 L 42.003906 5.996094 L 42.003906 20.976562 L 36 20.976562 L 36 12 L 29.992188 12 L 29.992188 5.996094 L 17.984375 5.996094 L 17.984375 12 L 11.976562 12 L 11.976562 42.03125 L 29.992188 42.03125 L 29.992188 47.972656 L 6.035156 47.972656 Z M 6.035156 26.984375 "/>
<path style=" stroke:none;fill-rule:nonzero;fill:rgb(100%,100%,0%);fill-opacity:1;" d="M 33.039062 46.039062 L 33.058594 44.101562 L 33.28125 43.632812 C 33.40625 43.378906 33.585938 43.070312 33.691406 42.953125 C 33.867188 42.753906 36.371094 39.078125 36.371094 39.019531 C 36.371094 39.007812 34.269531 38.996094 31.703125 38.996094 L 27.039062 38.996094 L 27.007812 37.339844 C 26.976562 35.519531 27.015625 35.148438 27.308594 34.539062 C 27.503906 34.132812 28.335938 33.28125 33.6875 28 C 37.082031 24.648438 37.3125 24.433594 37.742188 24.230469 L 38.191406 24.011719 L 42.003906 24.011719 L 42.003906 25.699219 C 42.003906 27.480469 41.972656 27.738281 41.695312 28.285156 C 41.621094 28.4375 41.453125 28.6875 41.328125 28.839844 C 41.007812 29.222656 38.601562 32.972656 38.648438 33.015625 C 38.664062 33.035156 40.765625 33.050781 43.308594 33.050781 L 47.9375 33.050781 L 47.960938 34.460938 C 47.984375 36.316406 47.945312 36.738281 47.695312 37.257812 C 47.515625 37.628906 47.097656 38.0625 42.601562 42.554688 C 38.378906 46.773438 37.652344 47.472656 37.34375 47.625 C 36.6875 47.941406 36.476562 47.96875 34.679688 47.972656 L 33.019531 47.972656 Z M 33.039062 46.039062 "/>
<path style=" stroke:none;fill-rule:nonzero;fill:rgb(100%,0%,0%);fill-opacity:1;" d="M 15.011719 36.117188 L 15.011719 33.238281 L 23.988281 33.238281 L 23.988281 38.996094 L 15.011719 38.996094 Z M 15.011719 36.117188 "/>
<path style=" stroke:none;fill-rule:nonzero;fill:rgb(100%,0%,0%);fill-opacity:1;" d="M 15.011719 26.984375 L 15.011719 24.011719 L 32.964844 24.011719 L 32.964844 24.183594 C 32.964844 24.324219 32.523438 24.789062 30.316406 26.992188 C 28.257812 29.046875 27.597656 29.671875 27.347656 29.796875 L 27.023438 29.957031 L 15.011719 29.957031 Z M 15.011719 26.984375 "/>
<path style=" stroke:none;fill-rule:nonzero;fill:rgb(100%,0%,0%);fill-opacity:1;" d="M 15.011719 18.007812 L 15.011719 15.035156 L 32.964844 15.035156 L 32.964844 20.976562 L 15.011719 20.976562 Z M 15.011719 18.007812 "/>
<path style=" stroke:none;fill-rule:nonzero;fill:rgb(100%,100%,100%);fill-opacity:1;" d="M 6.0625 26.988281 L 6.0625 6.140625 L 12.164062 6.140625 L 12.164062 4.8125 C 12.164062 2.894531 12.878906 1.679688 14.695312 0.523438 C 15.25 0.171875 15.875 0.136719 22.929688 0.0742188 C 28.136719 0.0273438 30.949219 0.0820312 31.785156 0.242188 C 34.1875 0.703125 35.453125 2.074219 35.820312 4.609375 L 36.039062 6.140625 L 41.859375 6.140625 L 41.859375 20.785156 L 36.171875 20.785156 L 36.117188 16.363281 L 36.0625 11.9375 L 30.0625 11.828125 L 30.0625 5.9375 L 17.859375 5.9375 L 17.859375 11.835938 L 11.960938 11.835938 L 11.960938 42.140625 L 29.859375 42.140625 L 29.859375 47.835938 L 6.0625 47.835938 Z M 6.0625 26.988281 "/>
</g>
</svg>
