<?xml version="1.0" encoding="UTF-8"?>
<svg xmlns="http://www.w3.org/2000/svg" xmlns:xlink="http://www.w3.org/1999/xlink" width="48" height="48" viewBox="0 0 48 48" version="1.1">
<g id="surface1">
<path style=" stroke:none;fill-rule:nonzero;fill:rgb(93.72549%,16.078431%,16.078431%);fill-opacity:1;" d="M 15 33 L 15 39 L 24 39 L 24 33 Z M 15 33 "/>
<path style=" stroke:none;fill-rule:nonzero;fill:rgb(74.509804%,74.509804%,74.509804%);fill-opacity:1;" d="M 16.410156 0 C 14.9375 0 14.023438 0.683594 13.316406 1.40625 C 12.597656 2.125 11.996094 3.085938 11.996094 4.496094 L 11.996094 5.996094 L 5.996094 5.996094 L 5.996094 47.996094 L 29.996094 47.996094 L 29.996094 41.996094 L 11.996094 41.996094 L 11.996094 11.996094 L 17.996094 11.996094 L 17.996094 5.996094 L 29.996094 5.996094 L 29.996094 11.996094 L 35.996094 11.996094 L 35.996094 20.996094 L 41.996094 20.996094 L 41.996094 5.996094 L 35.996094 5.996094 L 35.996094 4.683594 C 35.925781 3.390625 35.484375 2.519531 34.777344 1.683594 C 34.105469 0.890625 32.898438 0.0976562 31.308594 0.0898438 L 31.308594 -0.00390625 L 16.402344 -0.00390625 Z M 16.410156 0 "/>
<path style=" stroke:none;fill-rule:nonzero;fill:rgb(74.509804%,74.509804%,74.509804%);fill-opacity:1;" d="M 38.640625 24 C 37.96875 24.074219 37.339844 24.371094 36.859375 24.84375 L 27.859375 33.84375 C 26.972656 34.699219 26.699219 36.011719 27.167969 37.148438 C 27.636719 38.289062 28.757812 39.023438 29.988281 39.003906 L 37.675781 39.003906 L 33.832031 42.847656 C 33.050781 43.617188 32.742188 44.742188 33.023438 45.804688 C 33.304688 46.863281 34.132812 47.6875 35.191406 47.96875 C 36.25 48.25 37.375 47.941406 38.144531 47.160156 L 47.144531 38.160156 C 48.035156 37.300781 48.308594 35.984375 47.832031 34.839844 C 47.351562 33.699219 46.222656 32.96875 44.984375 33 L 37.296875 33 L 41.140625 29.15625 C 42.109375 28.257812 42.375 26.828125 41.796875 25.640625 C 41.214844 24.453125 39.925781 23.785156 38.621094 23.996094 Z M 38.640625 24 "/>
<path style=" stroke:none;fill-rule:nonzero;fill:rgb(74.509804%,74.509804%,74.509804%);fill-opacity:1;" d="M 45 33 L 48 33 L 48 36 L 45 36 Z M 45 33 "/>
<path style=" stroke:none;fill-rule:nonzero;fill:rgb(74.509804%,74.509804%,74.509804%);fill-opacity:1;" d="M 27 36 L 30 36 L 30 39 L 27 39 Z M 27 36 "/>
<path style=" stroke:none;fill-rule:nonzero;fill:rgb(74.509804%,74.509804%,74.509804%);fill-opacity:1;" d="M 39 24 L 42 24 L 42 27 L 39 27 Z M 39 24 "/>
<path style=" stroke:none;fill-rule:nonzero;fill:rgb(74.509804%,74.509804%,74.509804%);fill-opacity:1;" d="M 33 45 L 36 45 L 36 48 L 33 48 Z M 33 45 "/>
<path style=" stroke:none;fill-rule:nonzero;fill:rgb(74.509804%,74.509804%,74.509804%);fill-opacity:1;" d="M 36.480469 25.320312 L 30.480469 34.320312 L 35.542969 37.695312 L 41.542969 28.695312 Z M 36.480469 25.320312 "/>
<path style=" stroke:none;fill-rule:nonzero;fill:rgb(74.509804%,74.509804%,74.509804%);fill-opacity:1;" d="M 39.480469 34.320312 L 33.480469 43.320312 L 38.542969 46.695312 L 44.542969 37.695312 Z M 39.480469 34.320312 "/>
<path style=" stroke:none;fill-rule:nonzero;fill:rgb(0%,0%,0%);fill-opacity:1;" d="M 6.035156 26.984375 L 6.035156 5.996094 L 12.027344 5.996094 L 12.054688 4.773438 C 12.078125 3.71875 12.101562 3.5 12.21875 3.179688 C 12.722656 1.769531 14.019531 0.535156 15.414062 0.132812 C 15.753906 0.0351562 16.398438 0.0234375 23.539062 0.0078125 C 28.878906 -0.0078125 31.292969 0.0078125 31.292969 0.0507812 C 31.292969 0.0859375 31.390625 0.113281 31.511719 0.113281 C 31.839844 0.113281 32.636719 0.292969 33.03125 0.453125 C 34.050781 0.867188 34.96875 1.746094 35.503906 2.832031 C 35.808594 3.445312 35.9375 4.058594 35.980469 5.082031 L 36.015625 5.996094 L 42.003906 5.996094 L 42.003906 20.976562 L 36 20.976562 L 36 12 L 29.992188 12 L 29.992188 5.996094 L 17.984375 5.996094 L 17.984375 12 L 11.976562 12 L 11.976562 42.03125 L 29.992188 42.03125 L 29.992188 47.972656 L 6.035156 47.972656 Z M 6.035156 26.984375 "/>
<path style=" stroke:none;fill-rule:nonzero;fill:rgb(100%,100%,0%);fill-opacity:1;" d="M 34.230469 47.992188 L 33.046875 47.96875 L 33.007812 46.242188 C 32.960938 44.269531 32.996094 44.039062 33.445312 43.378906 C 33.570312 43.1875 34.28125 42.132812 35.023438 41.03125 L 36.371094 39.027344 L 27.039062 38.992188 L 27.007812 37.3125 C 26.980469 35.96875 26.988281 35.5625 27.058594 35.285156 C 27.277344 34.445312 27.132812 34.605469 32.34375 29.390625 C 36.875 24.855469 37.234375 24.507812 37.609375 24.335938 C 38.285156 24.023438 38.488281 24 40.296875 24.007812 C 41.214844 24.011719 41.972656 24.023438 41.980469 24.03125 C 41.984375 24.035156 42 24.851562 42.011719 25.839844 C 42.03125 27.609375 42.03125 27.640625 41.886719 28 C 41.804688 28.203125 41.046875 29.40625 40.199219 30.679688 C 39.351562 31.953125 38.660156 33.007812 38.660156 33.027344 C 38.660156 33.046875 40.214844 33.058594 42.113281 33.050781 C 44.011719 33.046875 46.09375 33.042969 46.746094 33.046875 L 47.929688 33.050781 L 47.96875 34.773438 C 48.011719 36.386719 48.003906 36.519531 47.890625 36.894531 C 47.820312 37.113281 47.679688 37.429688 47.570312 37.601562 C 47.335938 37.980469 38.078125 47.25 37.648438 47.539062 C 36.957031 48 36.691406 48.035156 34.230469 47.992188 Z M 34.230469 47.992188 "/>
<path style=" stroke:none;fill-rule:nonzero;fill:rgb(100%,100%,100%);fill-opacity:1;" d="M 6.0625 26.988281 L 6.0625 6.140625 L 12.164062 6.140625 L 12.164062 4.8125 C 12.164062 2.894531 12.878906 1.679688 14.695312 0.523438 C 15.25 0.171875 15.875 0.136719 22.929688 0.0742188 C 28.136719 0.0273438 30.949219 0.0820312 31.785156 0.242188 C 34.1875 0.703125 35.453125 2.074219 35.820312 4.609375 L 36.039062 6.140625 L 41.859375 6.140625 L 41.859375 20.785156 L 36.171875 20.785156 L 36.117188 16.363281 L 36.0625 11.9375 L 30.0625 11.828125 L 30.0625 5.9375 L 17.859375 5.9375 L 17.859375 11.835938 L 11.960938 11.835938 L 11.960938 42.140625 L 29.859375 42.140625 L 29.859375 47.835938 L 6.0625 47.835938 Z M 6.0625 26.988281 "/>
</g>
</svg>
