<?xml version="1.0" encoding="UTF-8"?>
<svg xmlns="http://www.w3.org/2000/svg" xmlns:xlink="http://www.w3.org/1999/xlink" width="48" height="48" viewBox="0 0 48 48" version="1.1">
<g id="surface1">
<path style=" stroke:none;fill-rule:nonzero;fill:rgb(74.509804%,74.509804%,74.509804%);fill-opacity:1;" d="M 15 33 L 15 39 L 33 39 L 33 33 Z M 15 33 "/>
<path style=" stroke:none;fill-rule:nonzero;fill:rgb(74.509804%,74.509804%,74.509804%);fill-opacity:1;" d="M 16.40625 0 C 14.9375 0 14.019531 0.683594 13.3125 1.40625 C 12.609375 2.125 12 2.988281 12 4.40625 L 12 5.996094 L 6 5.996094 L 6 47.996094 L 42 47.996094 L 42 5.996094 L 36 5.996094 L 36 4.683594 C 35.929688 3.390625 35.492188 2.519531 34.78125 1.683594 C 34.109375 0.890625 32.902344 0.0976562 31.3125 0.0898438 L 31.3125 -0.00390625 L 16.40625 -0.00390625 Z M 18 6 L 30 6 L 30 12 L 36 12 L 36 42 L 12 42 L 12 12 L 18 12 Z M 18 6 "/>
<path style=" stroke:none;fill-rule:nonzero;fill:rgb(100%,0%,0%);fill-opacity:1;" d="M 15.011719 36.023438 L 15.011719 33.050781 L 32.964844 33.050781 L 32.964844 38.996094 L 15.011719 38.996094 Z M 15.011719 36.023438 "/>
<path style=" stroke:none;fill-rule:nonzero;fill:rgb(0%,0%,0%);fill-opacity:1;" d="M 6.035156 26.984375 L 6.035156 5.996094 L 12.027344 5.996094 L 12.054688 4.773438 C 12.074219 3.730469 12.097656 3.492188 12.214844 3.140625 C 12.542969 2.136719 13.707031 0.851562 14.703125 0.398438 C 15.570312 0.00390625 15.011719 0.0273438 23.539062 0.0078125 C 28.878906 -0.0078125 31.292969 0.0078125 31.292969 0.0507812 C 31.292969 0.0859375 31.390625 0.113281 31.511719 0.113281 C 31.820312 0.113281 32.613281 0.285156 32.988281 0.433594 C 34.0625 0.851562 35.171875 1.953125 35.609375 3.027344 C 35.863281 3.664062 35.941406 4.089844 35.980469 5.050781 L 36.015625 5.996094 L 42.003906 5.996094 L 42.003906 47.972656 L 6.035156 47.972656 Z M 36 27.015625 L 36 12 L 29.992188 12 L 29.992188 5.996094 L 17.984375 5.996094 L 17.984375 12 L 11.976562 12 L 11.976562 42.03125 L 36 42.03125 Z M 36 27.015625 "/>
<path style=" stroke:none;fill-rule:nonzero;fill:rgb(100%,100%,100%);fill-opacity:1;" d="M 6.0625 26.988281 L 6.0625 6.140625 L 12.164062 6.140625 L 12.164062 4.832031 C 12.164062 3.226562 12.339844 2.734375 13.308594 1.664062 C 14.707031 0.117188 14.425781 0.164062 22.839844 0.0742188 C 31.511719 -0.015625 32.585938 0.0898438 34 1.167969 C 35.097656 2.007812 35.710938 3.214844 35.886719 4.882812 L 36.015625 6.140625 L 41.859375 6.140625 L 41.859375 47.835938 L 6.0625 47.835938 Z M 36.113281 27.039062 L 36.0625 11.9375 L 30.0625 11.828125 L 30.0625 5.9375 L 17.859375 5.9375 L 17.859375 11.835938 L 11.960938 11.835938 L 11.960938 42.140625 L 36.164062 42.140625 Z M 36.113281 27.039062 "/>
</g>
</svg>
