<?xml version="1.0" encoding="UTF-8"?>
<svg xmlns="http://www.w3.org/2000/svg" xmlns:xlink="http://www.w3.org/1999/xlink" width="48" height="48" viewBox="0 0 48 48" version="1.1">
<g id="surface1">
<path style=" stroke:none;fill-rule:nonzero;fill:rgb(100%,100%,100%);fill-opacity:1;" d="M 16.410156 0 C 14.933594 0 14.023438 0.683594 13.316406 1.40625 C 12.597656 2.125 11.996094 3.085938 11.996094 4.496094 L 11.996094 5.996094 L 5.996094 5.996094 L 5.996094 47.996094 L 41.996094 47.996094 L 41.996094 5.996094 L 35.996094 5.996094 L 35.996094 4.683594 C 35.925781 3.390625 35.484375 2.523438 34.777344 1.683594 C 34.109375 0.890625 32.902344 0.09375 31.308594 0.0898438 L 31.308594 -0.00390625 L 16.402344 -0.00390625 Z M 18.003906 6 L 30.003906 6 L 30.003906 12 L 36.003906 12 L 36.003906 42 L 12.003906 42 L 12.003906 12 L 18.003906 12 Z M 18.003906 6 "/>
</g>
</svg>
