<?xml version="1.0" encoding="UTF-8"?>
<svg xmlns="http://www.w3.org/2000/svg" xmlns:xlink="http://www.w3.org/1999/xlink" width="48" height="48" viewBox="0 0 48 48" version="1.1">
<g id="surface1">
<path style=" stroke:none;fill-rule:nonzero;fill:rgb(100%,100%,100%);fill-opacity:1;" d="M 23.765625 2.035156 C 22.988281 2.226562 22.40625 2.875 22.300781 3.667969 C 22.300781 3.699219 22.300781 3.726562 22.300781 3.757812 C 22.273438 3.785156 22.242188 3.8125 22.214844 3.839844 C 22.210938 3.898438 22.210938 3.957031 22.214844 4.011719 C 22.164062 4.152344 22.136719 4.296875 22.128906 4.441406 L 22.214844 19.324219 L 17.226562 14.25 C 16.789062 13.613281 16.015625 13.296875 15.257812 13.445312 C 14.5 13.589844 13.902344 14.171875 13.734375 14.925781 C 13.5625 15.675781 13.851562 16.457031 14.472656 16.917969 L 21.441406 23.96875 L 14.472656 30.9375 C 13.714844 31.695312 13.714844 32.929688 14.472656 33.6875 C 15.234375 34.449219 16.464844 34.449219 17.226562 33.6875 L 22.300781 28.527344 L 22.386719 43.40625 C 22.402344 43.523438 22.429688 43.640625 22.472656 43.75 C 22.472656 43.78125 22.472656 43.808594 22.472656 43.839844 C 22.382812 44.648438 22.808594 45.429688 23.539062 45.792969 C 24.269531 46.160156 25.148438 46.03125 25.742188 45.472656 L 35.375 35.148438 C 36.058594 34.378906 36.019531 33.210938 35.289062 32.484375 L 26.859375 23.96875 L 35.289062 15.367188 C 36.019531 14.640625 36.058594 13.472656 35.375 12.699219 L 25.570312 2.636719 C 25.113281 2.132812 24.429688 1.90625 23.765625 2.035156 Z M 24.882812 7.453125 L 31.246094 13.992188 L 24.96875 20.355469 Z M 25.054688 27.667969 L 31.246094 33.859375 L 25.140625 40.398438 Z M 25.054688 27.667969 "/>
</g>
</svg>
