<?xml version="1.0" encoding="UTF-8"?>
<svg xmlns="http://www.w3.org/2000/svg" xmlns:xlink="http://www.w3.org/1999/xlink" width="48" height="48" viewBox="0 0 48 48" version="1.1">
<g id="surface1">
<path style=" stroke:none;fill-rule:nonzero;fill:rgb(100%,100%,100%);fill-opacity:1;" d="M 24 2 C 23.917969 2.003906 23.832031 2.015625 23.75 2.03125 C 22.984375 2.230469 22.417969 2.871094 22.3125 3.65625 C 22.3125 3.6875 22.3125 3.71875 22.3125 3.75 C 22.28125 3.78125 22.25 3.8125 22.21875 3.84375 C 22.214844 3.898438 22.214844 3.949219 22.21875 4 C 22.164062 4.140625 22.132812 4.289062 22.125 4.4375 L 22.21875 19.3125 L 17.21875 14.25 C 16.789062 13.605469 16.011719 13.277344 15.246094 13.417969 C 14.480469 13.5625 13.875 14.148438 13.707031 14.90625 C 13.539062 15.664062 13.835938 16.453125 14.46875 16.90625 L 21.4375 23.96875 L 14.46875 30.9375 C 13.941406 31.421875 13.722656 32.15625 13.898438 32.847656 C 14.074219 33.539062 14.617188 34.082031 15.308594 34.257812 C 16 34.433594 16.734375 34.214844 17.21875 33.6875 L 22.3125 28.53125 L 22.375 43.40625 C 22.390625 43.523438 22.421875 43.640625 22.46875 43.75 C 22.46875 43.78125 22.46875 43.8125 22.46875 43.84375 C 22.375 44.660156 22.804688 45.441406 23.539062 45.808594 C 24.273438 46.171875 25.15625 46.035156 25.75 45.46875 L 35.375 35.15625 C 36.070312 34.378906 36.027344 33.195312 35.28125 32.46875 L 26.875 23.96875 L 35.28125 15.375 C 36.027344 14.648438 36.070312 13.464844 35.375 12.6875 L 25.5625 2.625 C 25.164062 2.191406 24.589844 1.960938 24 2 Z M 24.875 7.46875 L 31.25 14 L 24.96875 20.34375 Z M 38.21875 16.71875 C 37.410156 16.71875 36.605469 16.964844 35.96875 17.53125 C 35.332031 18.097656 34.90625 18.992188 34.90625 20.03125 L 34.90625 21.59375 L 34.875 21.59375 C 33.953125 21.59375 33.1875 22.359375 33.1875 23.28125 L 33.1875 28.21875 C 33.1875 29.140625 33.953125 29.90625 34.875 29.90625 L 41.5 29.90625 C 42.421875 29.90625 43.15625 29.140625 43.15625 28.21875 L 43.15625 23.28125 C 43.15625 22.375 42.460938 21.621094 41.5625 21.59375 L 41.5625 20.03125 C 41.5625 18.992188 41.105469 18.097656 40.46875 17.53125 C 39.832031 16.964844 39.027344 16.71875 38.21875 16.71875 Z M 38.21875 18.375 C 38.65625 18.375 39.078125 18.519531 39.375 18.78125 C 39.671875 19.042969 39.90625 19.40625 39.90625 20.03125 L 39.90625 21.59375 L 36.5625 21.59375 L 36.5625 20.03125 C 36.5625 19.40625 36.765625 19.042969 37.0625 18.78125 C 37.359375 18.519531 37.78125 18.375 38.21875 18.375 Z M 25.0625 27.65625 L 31.25 33.875 L 25.125 40.40625 Z M 25.0625 27.65625 "/>
</g>
</svg>
