<?xml version="1.0" encoding="UTF-8"?>
<svg xmlns="http://www.w3.org/2000/svg" xmlns:xlink="http://www.w3.org/1999/xlink" width="48" height="48" viewBox="0 0 48 48" version="1.1">
<g id="surface1">
<path style=" stroke:none;fill-rule:nonzero;fill:rgb(74.509804%,74.509804%,74.509804%);fill-opacity:1;" d="M 20.625 0.03125 C 19.117188 0.21875 17.988281 1.507812 18 3.03125 L 18 13.71875 L 14.15625 9.875 C 13.390625 9.09375 12.261719 8.785156 11.203125 9.0625 C 10.140625 9.34375 9.316406 10.171875 9.035156 11.230469 C 8.753906 12.289062 9.0625 13.417969 9.84375 14.1875 L 18 22.347656 L 18 25.722656 L 9.839844 33.878906 C 9.058594 34.648438 8.753906 35.773438 9.03125 36.832031 C 9.3125 37.890625 10.140625 38.71875 11.199219 39 C 12.257812 39.28125 13.386719 38.96875 14.152344 38.191406 L 18 34.351562 L 18 45.03125 C 17.96875 46.265625 18.703125 47.390625 19.839844 47.871094 C 20.984375 48.34375 22.296875 48.074219 23.15625 47.1875 L 35.15625 35.1875 C 35.742188 34.621094 36.070312 33.84375 36.070312 33.03125 C 36.070312 32.21875 35.742188 31.441406 35.15625 30.875 L 28.3125 24.035156 L 35.15625 17.191406 C 35.742188 16.625 36.070312 15.847656 36.070312 15.035156 C 36.070312 14.21875 35.742188 13.441406 35.15625 12.878906 L 23.15625 0.878906 C 22.492188 0.214844 21.554688 -0.09375 20.625 0.0390625 Z M 24 10.351562 L 28.6875 15.03125 L 24 19.710938 L 24 10.335938 Z M 24 28.351562 L 28.6875 33.03125 L 24 37.710938 L 24 28.335938 Z M 24 28.351562 "/>
<path style=" stroke:none;fill-rule:nonzero;fill:rgb(74.509804%,74.509804%,74.509804%);fill-opacity:1;" d="M 9 9.03125 L 12 9.03125 L 12 12.03125 L 9 12.03125 Z M 9 9.03125 "/>
<path style=" stroke:none;fill-rule:nonzero;fill:rgb(74.509804%,74.509804%,74.509804%);fill-opacity:1;" d="M 9 36.03125 L 12 36.03125 L 12 39.03125 L 9 39.03125 Z M 9 36.03125 "/>
<path style=" stroke:none;fill-rule:nonzero;fill:rgb(74.509804%,74.509804%,74.509804%);fill-opacity:1;" d="M 18 45.03125 L 21 45.03125 L 21 48.027344 L 18 48.027344 Z M 18 45.03125 "/>
<path style=" stroke:none;fill-rule:nonzero;fill:rgb(74.509804%,74.509804%,74.509804%);fill-opacity:1;" d="M 18 0.03125 L 21 0.03125 L 21 3.03125 L 18 3.03125 Z M 18 0.03125 "/>
</g>
</svg>
