<?xml version="1.0" encoding="UTF-8"?>
<svg xmlns="http://www.w3.org/2000/svg" xmlns:xlink="http://www.w3.org/1999/xlink" width="48" height="48" viewBox="0 0 48 48" version="1.1">
<g id="surface1">
<path style=" stroke:none;fill-rule:nonzero;fill:rgb(74.509804%,74.509804%,74.509804%);fill-opacity:1;" d="M 15 0 C 10.066406 0 6 4.066406 6 9 L 6 18 L 12 18 L 12 9 C 12 7.285156 13.285156 6 15 6 L 21 6 C 22.714844 6 24 7.285156 24 9 L 24 9.75 C 24.800781 9.304688 25.671875 9 26.625 9 L 30 9 C 30 4.066406 25.933594 0 21 0 Z M 5.8125 27 C 4.148438 27 2.617188 28.347656 2.8125 30 L 2.8125 45 L 33 45 L 33 39 L 26.625 39 C 23.59375 39 21 36.40625 21 33.375 L 21 27 Z M 5.8125 27 "/>
<path style=" stroke:none;fill-rule:nonzero;fill:rgb(96.078431%,47.45098%,0%);fill-opacity:1;" d="M 26.640625 12 C 25.164062 12 24.015625 13.148438 24.015625 14.625 L 24.015625 33.375 C 24.015625 34.851562 25.164062 36 26.640625 36 L 45.390625 36 C 46.867188 36 48.015625 34.851562 48.015625 33.375 L 48.015625 14.625 C 48.015625 13.15625 46.875 12.015625 45.375 12.015625 L 26.625 12.015625 Z M 33.015625 15 L 39.015625 15 L 39.015625 27 L 33.015625 27 Z M 33.015625 30 L 39.015625 30 L 39.015625 33 L 33.015625 33 Z M 33.015625 30 "/>
<path style=" stroke:none;fill-rule:nonzero;fill:rgb(100%,100%,100%);fill-opacity:1;" d="M 6.0625 13 C 6.0625 9.214844 6.132812 7.777344 6.371094 6.859375 C 7.242188 3.515625 10.035156 0.878906 13.375 0.246094 C 15.101562 -0.0820312 21.628906 -0.015625 23.007812 0.34375 C 25.304688 0.945312 27.136719 2.1875 28.347656 3.976562 C 29.125 5.128906 29.859375 7.222656 29.859375 8.300781 L 29.859375 8.988281 L 27.714844 8.988281 C 26.320312 8.988281 25.332031 9.089844 24.878906 9.28125 L 24.183594 9.570312 L 24.042969 8.648438 C 23.875 7.503906 22.988281 6.4375 21.957031 6.128906 C 21.5 5.992188 19.785156 5.933594 17.515625 5.976562 C 14.15625 6.035156 13.765625 6.078125 13.246094 6.460938 C 12.046875 7.339844 11.960938 7.796875 11.960938 13.109375 L 11.960938 17.9375 L 6.0625 17.9375 Z M 6.0625 13 "/>
<path style=" stroke:none;fill-rule:nonzero;fill:rgb(100%,100%,100%);fill-opacity:1;" d="M 2.851562 36.96875 C 2.90625 29.226562 2.921875 28.929688 3.328125 28.378906 C 4.265625 27.105469 4.351562 27.09375 13.011719 27.09375 L 20.875 27.089844 L 20.945312 30.90625 C 21.019531 35.226562 21.191406 35.871094 22.660156 37.339844 C 24.128906 38.808594 24.773438 38.980469 29.09375 39.054688 L 32.910156 39.125 L 32.910156 44.988281 L 2.792969 44.988281 Z M 2.851562 36.96875 "/>
</g>
</svg>
