<?xml version="1.0" encoding="UTF-8"?>
<svg xmlns="http://www.w3.org/2000/svg" xmlns:xlink="http://www.w3.org/1999/xlink" width="48" height="48" viewBox="0 0 48 48" version="1.1">
<g id="surface1">
<path style=" stroke:none;fill-rule:nonzero;fill:rgb(100%,100%,100%);fill-opacity:1;" d="M 21 0 C 16.066406 0 12 4.066406 12 9 L 12 18 L 18 18 L 18 9 C 18 7.285156 19.285156 6 21 6 L 27 6 C 28.714844 6 30 7.285156 30 9 L 30 27 L 9 27 C 7.335938 27 6 28.335938 6 30 L 6 48 L 42 48 L 42 30 C 42 28.335938 40.664062 27 39 27 L 36 27 L 36 9 C 36 4.066406 31.933594 0 27 0 Z M 21 0 "/>
</g>
</svg>
