<?xml version="1.0" encoding="UTF-8"?>
<svg xmlns="http://www.w3.org/2000/svg" xmlns:xlink="http://www.w3.org/1999/xlink" width="48" height="48" viewBox="0 0 48 48" version="1.1">
<g id="surface1">
<path style=" stroke:none;fill-rule:nonzero;fill:rgb(100%,100%,100%);fill-opacity:1;" d="M 24 10.105469 C 15.46875 10.105469 7.742188 13.578125 2.148438 19.171875 C 2.054688 19.261719 2 19.371094 2 19.5 C 2 19.628906 2.054688 19.765625 2.148438 19.855469 L 5.210938 22.917969 C 5.300781 23.011719 5.4375 23.066406 5.566406 23.066406 C 5.695312 23.066406 5.804688 23.011719 5.894531 22.917969 C 10.53125 18.28125 16.925781 15.398438 24 15.398438 C 31.074219 15.398438 37.46875 18.28125 42.105469 22.917969 C 42.195312 23.011719 42.304688 23.066406 42.433594 23.066406 C 42.5625 23.066406 42.699219 23.011719 42.789062 22.917969 L 45.851562 19.855469 C 45.945312 19.765625 46 19.628906 46 19.5 C 46 19.371094 45.945312 19.261719 45.851562 19.171875 C 40.257812 13.578125 32.53125 10.105469 24 10.105469 Z M 24 18.816406 C 17.867188 18.816406 12.324219 21.304688 8.304688 25.324219 C 8.210938 25.414062 8.15625 25.554688 8.15625 25.683594 C 8.15625 25.8125 8.210938 25.921875 8.304688 26.007812 L 11.363281 29.074219 C 11.457031 29.164062 11.5625 29.21875 11.691406 29.21875 C 11.820312 29.21875 11.960938 29.164062 12.046875 29.074219 C 15.113281 26.007812 19.328125 24.105469 24 24.105469 C 28.671875 24.105469 32.890625 26.007812 35.953125 29.074219 C 36.039062 29.164062 36.179688 29.21875 36.308594 29.21875 C 36.4375 29.21875 36.546875 29.164062 36.636719 29.074219 L 39.695312 26.007812 C 39.789062 25.921875 39.84375 25.8125 39.84375 25.683594 C 39.84375 25.554688 39.789062 25.414062 39.695312 25.324219 C 35.675781 21.304688 30.132812 18.816406 24 18.816406 Z M 24 27.496094 C 20.269531 27.496094 16.902344 29.035156 14.457031 31.480469 C 14.363281 31.570312 14.308594 31.679688 14.308594 31.808594 C 14.308594 31.9375 14.363281 32.074219 14.457031 32.164062 L 17.519531 35.195312 C 17.703125 35.371094 17.988281 35.371094 18.171875 35.195312 C 19.660156 33.707031 21.726562 32.789062 24 32.789062 C 26.273438 32.789062 28.339844 33.707031 29.828125 35.195312 C 30.011719 35.371094 30.296875 35.371094 30.480469 35.195312 L 33.542969 32.164062 C 33.636719 32.074219 33.691406 31.9375 33.691406 31.808594 C 33.691406 31.679688 33.636719 31.570312 33.542969 31.480469 C 31.097656 29.035156 27.730469 27.496094 24 27.496094 Z M 24 36.207031 C 22.667969 36.207031 21.480469 36.765625 20.609375 37.632812 C 20.4375 37.816406 20.4375 38.105469 20.609375 38.289062 L 23.671875 41.351562 C 23.855469 41.523438 24.144531 41.523438 24.328125 41.351562 L 27.390625 38.289062 C 27.5625 38.105469 27.5625 37.816406 27.390625 37.632812 C 26.519531 36.765625 25.332031 36.207031 24 36.207031 Z M 24 36.207031 "/>
</g>
</svg>
