<?xml version="1.0" encoding="UTF-8"?>
<svg xmlns="http://www.w3.org/2000/svg" xmlns:xlink="http://www.w3.org/1999/xlink" width="48" height="48" viewBox="0 0 48 48" version="1.1">
<g id="surface1">
<path style=" stroke:none;fill-rule:nonzero;fill:rgb(100%,100%,100%);fill-opacity:1;" d="M 24 27.496094 C 20.269531 27.496094 16.902344 29.035156 14.457031 31.480469 C 14.363281 31.570312 14.308594 31.679688 14.308594 31.808594 C 14.308594 31.9375 14.363281 32.074219 14.457031 32.164062 L 17.519531 35.195312 C 17.703125 35.371094 17.988281 35.371094 18.171875 35.195312 C 19.660156 33.707031 21.726562 32.789062 24 32.789062 C 26.273438 32.789062 28.339844 33.707031 29.828125 35.195312 C 30.011719 35.371094 30.296875 35.371094 30.480469 35.195312 L 33.542969 32.164062 C 33.636719 32.074219 33.691406 31.9375 33.691406 31.808594 C 33.691406 31.679688 33.636719 31.570312 33.542969 31.480469 C 31.097656 29.035156 27.730469 27.496094 24 27.496094 Z M 24 36.207031 C 22.667969 36.207031 21.480469 36.765625 20.609375 37.632812 C 20.4375 37.816406 20.4375 38.105469 20.609375 38.289062 L 23.671875 41.351562 C 23.855469 41.523438 24.144531 41.523438 24.328125 41.351562 L 27.390625 38.289062 C 27.5625 38.105469 27.5625 37.816406 27.390625 37.632812 C 26.519531 36.765625 25.332031 36.207031 24 36.207031 Z M 24 36.207031 "/>
</g>
</svg>
