<?xml version="1.0" encoding="UTF-8"?>
<svg xmlns="http://www.w3.org/2000/svg" xmlns:xlink="http://www.w3.org/1999/xlink" width="48" height="48" viewBox="0 0 48 48" version="1.1">
<g id="surface1">
<path style=" stroke:none;fill-rule:nonzero;fill:rgb(100%,100%,100%);fill-opacity:1;" d="M 1.417969 30 L 7.5 30 C 8.28125 30 8.917969 30.671875 8.917969 31.5 L 8.917969 34.5 C 8.917969 35.328125 8.28125 36 7.5 36 L 1.417969 36 C 0.632812 36 0 35.328125 0 34.5 L 0 31.5 C 0 30.671875 0.632812 30 1.417969 30 Z M 1.417969 30 "/>
<path style=" stroke:none;fill-rule:nonzero;fill:rgb(100%,100%,100%);fill-opacity:1;" d="M 40.441406 30 L 46.488281 30 C 47.316406 30 47.988281 30.671875 47.988281 31.5 L 47.988281 34.5 C 47.988281 35.328125 47.316406 36 46.488281 36 L 40.441406 36 C 39.613281 36 38.941406 35.328125 38.941406 34.5 L 38.941406 31.5 C 38.941406 30.671875 39.613281 30 40.441406 30 Z M 40.441406 30 "/>
<path style=" stroke:none;fill-rule:nonzero;fill:rgb(100%,100%,100%);fill-opacity:1;" d="M 33.527344 19.25 L 37.804688 14.972656 C 38.390625 14.386719 39.339844 14.386719 39.925781 14.972656 L 42.046875 17.09375 C 42.632812 17.679688 42.632812 18.628906 42.046875 19.214844 L 37.769531 23.492188 C 37.183594 24.078125 36.234375 24.078125 35.648438 23.492188 L 33.527344 21.371094 C 32.941406 20.785156 32.941406 19.835938 33.527344 19.25 Z M 33.527344 19.25 "/>
<path style=" stroke:none;fill-rule:nonzero;fill:rgb(100%,100%,100%);fill-opacity:1;" d="M 10.234375 23.492188 L 5.957031 19.214844 C 5.371094 18.628906 5.371094 17.679688 5.957031 17.09375 L 8.078125 14.972656 C 8.664062 14.386719 9.613281 14.386719 10.199219 14.972656 L 14.476562 19.25 C 15.0625 19.835938 15.0625 20.785156 14.476562 21.371094 L 12.355469 23.492188 C 11.769531 24.078125 10.820312 24.078125 10.234375 23.492188 Z M 10.234375 23.492188 "/>
<path style=" stroke:none;fill-rule:nonzero;fill:rgb(100%,100%,100%);fill-opacity:1;" d="M 21 16.5 L 21 10.5 C 21 9.671875 21.671875 9 22.5 9 L 25.5 9 C 26.328125 9 27 9.671875 27 10.5 L 27 16.5 C 27 17.328125 26.328125 18 25.5 18 L 22.5 18 C 21.671875 18 21 17.328125 21 16.5 Z M 21 16.5 "/>
<path style=" stroke:none;fill-rule:nonzero;fill:rgb(100%,100%,100%);fill-opacity:1;" d="M 18.75 27 C 18.25 27.027344 17.78125 27.351562 17.625 27.78125 L 15.117188 34.433594 C 14.8125 35.132812 15.496094 36.015625 16.328125 36 C 16.328125 36 19.539062 36 24.027344 36 C 28.515625 36 31.726562 36 31.726562 36 C 32.5625 36.015625 33.246094 35.132812 32.941406 34.433594 L 30.429688 27.78125 C 30.214844 27.203125 29.421875 26.863281 28.789062 27.078125 C 28.148438 27.285156 26.328125 27.859375 24.027344 27.859375 C 21.730469 27.859375 19.90625 27.285156 19.269531 27.078125 C 19.105469 27.019531 18.925781 26.992188 18.75 27 Z M 18.75 27 "/>
</g>
</svg>
