<?xml version="1.0" encoding="UTF-8"?>
<svg xmlns="http://www.w3.org/2000/svg" xmlns:xlink="http://www.w3.org/1999/xlink" width="48" height="48" viewBox="0 0 48 48" version="1.1">
<g id="surface1">
<path style=" stroke:none;fill-rule:nonzero;fill:rgb(100%,100%,100%);fill-opacity:1;" d="M 17.941406 15.058594 C 16.289062 15.035156 14.964844 13.671875 14.988281 12.011719 C 14.988281 5.417969 20.378906 0.0078125 26.953125 0.0078125 C 33.523438 0.0078125 38.914062 5.417969 38.914062 12.011719 C 38.945312 13.109375 38.382812 14.132812 37.441406 14.6875 C 36.503906 15.246094 35.335938 15.246094 34.398438 14.6875 C 33.457031 14.132812 32.894531 13.109375 32.925781 12.011719 C 32.925781 8.667969 30.285156 6.015625 26.953125 6.015625 C 23.617188 6.015625 20.976562 8.667969 20.976562 12.011719 C 20.988281 12.824219 20.671875 13.605469 20.101562 14.179688 C 19.527344 14.753906 18.75 15.070312 17.941406 15.058594 Z M 17.941406 15.058594 "/>
<path style=" stroke:none;fill-rule:nonzero;fill:rgb(100%,100%,100%);fill-opacity:1;" d="M 22.5 36 C 18.390625 36 15 32.605469 15 28.5 C 15 26.839844 16.34375 25.496094 18 25.496094 C 19.65625 25.496094 21 26.839844 21 28.5 C 21 29.359375 21.636719 29.996094 22.5 29.996094 C 23.363281 29.996094 24 29.359375 24 28.5 C 24 26.839844 25.34375 25.496094 27 25.496094 C 28.65625 25.496094 30.003906 26.839844 30.003906 28.5 C 30.003906 32.605469 26.609375 36 22.5 36 Z M 22.5 36 "/>
<path style=" stroke:none;fill-rule:nonzero;fill:rgb(100%,100%,100%);fill-opacity:1;" d="M 26.339844 15 C 24.945312 15.316406 23.964844 16.570312 24 18 L 24 28.40625 C 23.984375 29.488281 24.554688 30.496094 25.488281 31.039062 C 26.421875 31.585938 27.578125 31.585938 28.511719 31.039062 C 29.445312 30.496094 30.015625 29.488281 30 28.40625 L 30 17.996094 C 30.023438 17.074219 29.617188 16.191406 28.90625 15.605469 C 28.1875 15.019531 27.246094 14.792969 26.34375 14.996094 Z M 26.339844 15 "/>
<path style=" stroke:none;fill-rule:nonzero;fill:rgb(100%,100%,100%);fill-opacity:1;" d="M 35.339844 9 C 33.945312 9.316406 32.964844 10.570312 33 12 L 33 32.4375 C 32.984375 33.519531 33.554688 34.527344 34.488281 35.070312 C 35.421875 35.617188 36.578125 35.617188 37.511719 35.070312 C 38.445312 34.527344 39.015625 33.519531 39 32.4375 L 39 12.007812 C 39.023438 11.085938 38.617188 10.203125 37.90625 9.617188 C 37.1875 9.03125 36.246094 8.804688 35.34375 9.007812 Z M 35.339844 9 "/>
<path style=" stroke:none;fill-rule:nonzero;fill:rgb(100%,100%,100%);fill-opacity:1;" d="M 17.339844 9 C 15.945312 9.316406 14.964844 10.570312 15 12 L 15 28.21875 C 14.984375 29.300781 15.554688 30.304688 16.488281 30.851562 C 17.421875 31.398438 18.578125 31.398438 19.511719 30.851562 C 20.445312 30.304688 21.015625 29.300781 21 28.21875 L 21 11.988281 C 21.023438 11.066406 20.617188 10.183594 19.90625 9.597656 C 19.1875 9.011719 18.246094 8.785156 17.34375 8.988281 Z M 17.339844 9 "/>
<path style=" stroke:none;fill-rule:nonzero;fill:rgb(100%,100%,100%);fill-opacity:1;" d="M 8.339844 12 C 6.945312 12.316406 5.964844 13.570312 6 15 L 6 33 C 5.984375 34.082031 6.554688 35.089844 7.488281 35.632812 C 8.421875 36.179688 9.578125 36.179688 10.511719 35.632812 C 11.445312 35.089844 12.015625 34.082031 12 33 L 12 15 C 12.023438 14.074219 11.617188 13.195312 10.90625 12.609375 C 10.1875 12.023438 9.246094 11.796875 8.34375 12 Z M 8.339844 12 "/>
<path style=" stroke:none;fill-rule:nonzero;fill:rgb(100%,100%,100%);fill-opacity:1;" d="M 35.519531 30 C 34.726562 30.125 34.019531 30.566406 33.550781 31.21875 L 25.511719 41.988281 L 19.417969 41.988281 L 11.355469 31.394531 C 10.824219 30.304688 9.6875 29.644531 8.476562 29.71875 C 7.265625 29.796875 6.222656 30.589844 5.824219 31.734375 C 5.429688 32.882812 5.761719 34.152344 6.667969 34.957031 L 15.667969 46.769531 C 16.222656 47.507812 17.085938 47.953125 18.007812 47.96875 L 27.007812 47.96875 C 27.96875 47.976562 28.875 47.523438 29.445312 46.75 L 38.445312 34.75 C 39.191406 33.765625 39.261719 32.425781 38.617188 31.375 C 37.976562 30.320312 36.75 29.765625 35.535156 29.980469 Z M 35.519531 30 "/>
</g>
</svg>
