<?xml version="1.0" encoding="UTF-8"?>
<svg xmlns="http://www.w3.org/2000/svg" xmlns:xlink="http://www.w3.org/1999/xlink" width="48" height="48" viewBox="0 0 48 48" version="1.1">
<g id="surface1">
<path style=" stroke:none;fill-rule:nonzero;fill:rgb(100%,100%,100%);fill-opacity:1;" d="M 17.863281 2.003906 C 17.050781 2.085938 16.429688 2.769531 16.425781 3.585938 L 16.425781 25.886719 C 16.421875 26.390625 16.652344 26.871094 17.050781 27.175781 L 24.277344 32.59375 C 24.882812 33.054688 25.730469 33.023438 26.304688 32.523438 L 32.3125 27.214844 C 32.664062 26.910156 32.867188 26.464844 32.867188 26 L 32.867188 13.503906 C 32.867188 12.605469 32.140625 11.882812 31.242188 11.882812 C 30.347656 11.882812 29.621094 12.605469 29.621094 13.503906 L 29.621094 25.296875 L 25.160156 29.242188 L 19.632812 25.078125 L 19.632812 5.210938 L 33.75 5.210938 L 33.75 35.285156 L 24.941406 42.398438 L 14.914062 35.65625 L 14.914062 13.871094 C 14.941406 13.28125 14.640625 12.726562 14.132812 12.425781 C 13.628906 12.125 12.996094 12.125 12.488281 12.425781 C 11.984375 12.726562 11.683594 13.28125 11.707031 13.871094 L 11.707031 36.503906 C 11.707031 37.035156 11.972656 37.53125 12.410156 37.828125 L 24.09375 45.71875 C 24.679688 46.117188 25.457031 46.089844 26.007812 45.644531 L 36.367188 37.277344 C 36.757812 36.976562 36.988281 36.515625 36.992188 36.023438 L 36.992188 3.585938 C 36.984375 2.703125 36.257812 1.992188 35.371094 2.003906 L 18.046875 2.003906 C 17.988281 2 17.925781 2 17.863281 2.003906 Z M 17.863281 2.003906 "/>
</g>
</svg>
