<?xml version="1.0" encoding="UTF-8"?>
<svg xmlns="http://www.w3.org/2000/svg" xmlns:xlink="http://www.w3.org/1999/xlink" width="48" height="48" viewBox="0 0 48 48" version="1.1">
<g id="surface1">
<path style=" stroke:none;fill-rule:nonzero;fill:rgb(100%,100%,100%);fill-opacity:1;" d="M 17.339844 27 C 16.21875 27.203125 15.3125 28.019531 14.992188 29.113281 C 14.675781 30.207031 15.003906 31.382812 15.839844 32.15625 L 19.679688 35.996094 L 15.835938 39.839844 C 15.054688 40.609375 14.746094 41.734375 15.027344 42.796875 C 15.308594 43.855469 16.136719 44.679688 17.195312 44.960938 C 18.25 45.242188 19.382812 44.933594 20.148438 44.152344 L 26.148438 38.152344 L 28.210938 35.996094 L 26.148438 33.839844 L 20.148438 27.839844 C 19.417969 27.085938 18.351562 26.769531 17.328125 27 Z M 17.339844 27 "/>
<path style=" stroke:none;fill-rule:nonzero;fill:rgb(100%,100%,100%);fill-opacity:1;" d="M 45 27.03125 L 45 30.011719 C 45 34.949219 40.933594 39.011719 36 39.011719 L 33 39.011719 L 33 33.011719 L 36 33.011719 C 37.714844 33.011719 39 31.726562 39 30.011719 L 39 27.0625 Z M 20.96875 15 L 11.992188 15 C 10.277344 15 8.992188 16.285156 8.992188 18 L 8.992188 30 C 8.992188 31.714844 10.277344 33 11.992188 33 L 23.992188 33 L 23.992188 39 L 11.992188 39 C 7.058594 39 2.992188 34.933594 2.992188 30 L 2.992188 18 C 2.992188 13.066406 7.058594 9 11.992188 9 L 20.9375 9 Z M 20.96875 15 "/>
<path style=" stroke:none;fill-rule:nonzero;fill:rgb(100%,100%,100%);fill-opacity:1;" d="M 18 27 L 15 27 L 15 30 L 18 30 Z M 18 27 "/>
<path style=" stroke:none;fill-rule:nonzero;fill:rgb(100%,100%,100%);fill-opacity:1;" d="M 18 42 L 15 42 L 15 45 L 18 45 Z M 18 42 "/>
<path style=" stroke:none;fill-rule:nonzero;fill:rgb(100%,100%,100%);fill-opacity:1;" d="M 36 0 C 29.375 0 24 5.375 24 12 C 24 18.625 29.375 24 36 24 C 42.625 24 48 18.625 48 12 C 48 5.375 42.625 0 36 0 Z M 33 6 L 39 6 L 39 18 L 33 18 L 32.988281 12.035156 L 30 12 L 30 9 Z M 33 6 "/>
</g>
</svg>
