<?xml version="1.0" encoding="UTF-8"?>
<svg xmlns="http://www.w3.org/2000/svg" xmlns:xlink="http://www.w3.org/1999/xlink" width="48" height="48" viewBox="0 0 48 48" version="1.1">
<g id="surface1">
<path style=" stroke:none;fill-rule:nonzero;fill:rgb(100%,100%,100%);fill-opacity:1;" d="M 36.34375 11.3125 L 36.34375 14.78125 L 30.34375 14.78125 L 30.1875 14.875 L 21.5 21.625 L 12.8125 14.875 L 12.65625 14.78125 L 3.59375 14.78125 L 3.59375 19.78125 L 12.3125 19.78125 L 18.09375 24.28125 L 12.3125 28.78125 L 3.59375 28.78125 L 3.59375 33.78125 L 12.65625 33.78125 L 12.8125 33.6875 L 21.5 26.9375 L 30.1875 33.6875 L 30.34375 33.78125 L 36.34375 33.78125 L 36.34375 37.25 L 37.125 36.6875 L 44.125 31.6875 L 44.6875 31.28125 L 44.125 30.875 L 37.125 25.875 L 36.34375 25.3125 L 36.34375 28.78125 L 30.6875 28.78125 L 24.90625 24.28125 L 30.6875 19.78125 L 36.34375 19.78125 L 36.34375 23.25 L 37.125 22.6875 L 44.125 17.6875 L 44.6875 17.28125 L 44.125 16.875 L 37.125 11.875 Z M 36.34375 11.3125 "/>
</g>
</svg>
