<?xml version="1.0" encoding="UTF-8"?>
<svg xmlns="http://www.w3.org/2000/svg" xmlns:xlink="http://www.w3.org/1999/xlink" width="48" height="48" viewBox="0 0 48 48" version="1.1">
<g id="surface1">
<path style=" stroke:none;fill-rule:nonzero;fill:rgb(100%,100%,100%);fill-opacity:1;" d="M 36 9 C 31.066406 9 27 13.066406 27 18 L 27 30 C 27 31.714844 25.714844 33 24 33 L 6 33 L 6 39 L 24 39 C 28.933594 39 33 34.933594 33 30 L 33 18 C 33 16.285156 34.285156 15 36 15 L 45 15 L 45 9 Z M 36 9 "/>
<path style=" stroke:none;fill-rule:nonzero;fill:rgb(100%,100%,100%);fill-opacity:1;" d="M 11.640625 27 C 10.96875 27.074219 10.339844 27.371094 9.859375 27.84375 L 3.859375 33.84375 L 1.796875 36 L 3.859375 38.15625 L 9.859375 44.15625 C 10.628906 44.9375 11.753906 45.246094 12.8125 44.964844 C 13.871094 44.683594 14.699219 43.859375 14.980469 42.796875 C 15.261719 41.742188 14.953125 40.609375 14.171875 39.84375 L 10.300781 36.003906 L 14.144531 32.160156 C 15.113281 31.257812 15.378906 29.832031 14.800781 28.644531 C 14.21875 27.457031 12.929688 26.789062 11.625 27 Z M 11.640625 27 "/>
<path style=" stroke:none;fill-rule:nonzero;fill:rgb(100%,100%,100%);fill-opacity:1;" d="M 11.640625 3 C 10.96875 3.074219 10.339844 3.371094 9.859375 3.84375 L 3.859375 9.84375 L 1.796875 12 L 3.859375 14.15625 L 9.859375 20.15625 C 10.628906 20.9375 11.753906 21.246094 12.8125 20.964844 C 13.871094 20.683594 14.699219 19.859375 14.980469 18.796875 C 15.261719 17.742188 14.953125 16.609375 14.171875 15.84375 L 10.300781 12.003906 L 14.144531 8.160156 C 15.113281 7.261719 15.378906 5.832031 14.800781 4.644531 C 14.21875 3.457031 12.929688 2.789062 11.625 3 Z M 11.640625 3 "/>
<path style=" stroke:none;fill-rule:nonzero;fill:rgb(100%,100%,100%);fill-opacity:1;" d="M 24 9 C 24.6875 9 25.324219 9.132812 25.96875 9.28125 C 24.523438 10.933594 23.382812 12.8125 22.875 15 L 6 15 L 6 9 Z M 45 33 L 45 39 L 36 39 C 35.3125 39 34.675781 38.867188 34.03125 38.71875 C 35.476562 37.066406 36.617188 35.1875 37.125 33 Z M 45 33 "/>
<path style=" stroke:none;fill-rule:nonzero;fill:rgb(100%,100%,100%);fill-opacity:1;" d="M 15 27 L 12 27 L 12 30 L 15 30 Z M 15 27 "/>
<path style=" stroke:none;fill-rule:nonzero;fill:rgb(100%,100%,100%);fill-opacity:1;" d="M 15 42 L 12 42 L 12 45 L 15 45 Z M 15 42 "/>
<path style=" stroke:none;fill-rule:nonzero;fill:rgb(100%,100%,100%);fill-opacity:1;" d="M 15 3 L 12 3 L 12 6 L 15 6 Z M 15 3 "/>
<path style=" stroke:none;fill-rule:nonzero;fill:rgb(100%,100%,100%);fill-opacity:1;" d="M 15 18 L 12 18 L 12 21 L 15 21 Z M 15 18 "/>
</g>
</svg>
