<?xml version="1.0" encoding="UTF-8"?>
<svg xmlns="http://www.w3.org/2000/svg" xmlns:xlink="http://www.w3.org/1999/xlink" width="48" height="48" viewBox="0 0 48 48" version="1.1">
<g id="surface1">
<path style=" stroke:none;fill-rule:nonzero;fill:rgb(100%,100%,100%);fill-opacity:1;" d="M 29.625 27 C 28.953125 27.074219 28.324219 27.371094 27.84375 27.84375 L 21.84375 33.84375 L 19.78125 36 L 21.84375 38.15625 L 27.84375 44.15625 C 28.609375 44.9375 29.742188 45.246094 30.796875 44.964844 C 31.859375 44.683594 32.683594 43.859375 32.964844 42.796875 C 33.246094 41.742188 32.9375 40.609375 32.15625 39.84375 L 28.316406 36.003906 L 32.160156 32.164062 C 33.128906 31.261719 33.398438 29.832031 32.8125 28.640625 C 32.230469 27.453125 30.933594 26.785156 29.628906 27.003906 Z M 29.625 27 "/>
<path style=" stroke:none;fill-rule:nonzero;fill:rgb(100%,100%,100%);fill-opacity:1;" d="M 3 27.03125 L 3 30.011719 C 3 34.949219 7.066406 39.011719 12 39.011719 L 15 39.011719 L 15 33.011719 L 12 33.011719 C 10.285156 33.011719 9 31.726562 9 30.011719 L 9 27.0625 Z M 27.023438 15 L 36 15 C 37.714844 15 39 16.285156 39 18 L 39 30 C 39 31.714844 37.714844 33 36 33 L 24 33 L 24 39 L 36 39 C 40.933594 39 45 34.933594 45 30 L 45 18 C 45 13.066406 40.933594 9 36 9 L 27.054688 9 Z M 27.023438 15 "/>
<path style=" stroke:none;fill-rule:nonzero;fill:rgb(100%,100%,100%);fill-opacity:1;" d="M 30 27 L 33 27 L 33 30 L 30 30 Z M 30 27 "/>
<path style=" stroke:none;fill-rule:nonzero;fill:rgb(100%,100%,100%);fill-opacity:1;" d="M 30 42 L 33 42 L 33 45 L 30 45 Z M 30 42 "/>
<path style=" stroke:none;fill-rule:nonzero;fill:rgb(100%,100%,100%);fill-opacity:1;" d="M 12 0 C 5.375 0 0 5.375 0 12 C 0 18.625 5.375 24 12 24 C 18.625 24 24 18.625 24 12 C 24 5.375 18.625 0 12 0 Z M 9 6 L 15 6 L 15 18 L 9 18 L 9 12 L 6 12 L 6 9 Z M 9 6 "/>
</g>
</svg>
