<?xml version="1.0" encoding="UTF-8"?>
<svg xmlns="http://www.w3.org/2000/svg" xmlns:xlink="http://www.w3.org/1999/xlink" width="48" height="48" viewBox="0 0 48 48" version="1.1">
<g id="surface1">
<path style=" stroke:none;fill-rule:nonzero;fill:rgb(100%,100%,100%);fill-opacity:1;" d="M 3 9 L 3 15 L 12 15 C 13.714844 15 15 16.285156 15 18 L 15 30 C 15 34.933594 19.066406 39 24 39 L 42 39 L 42 33 L 24 33 C 22.285156 33 21 31.714844 21 30 L 21 18 C 21 13.066406 16.933594 9 12 9 Z M 3 9 "/>
<path style=" stroke:none;fill-rule:nonzero;fill:rgb(100%,100%,100%);fill-opacity:1;" d="M 35.34375 27 C 34.222656 27.203125 33.316406 28.019531 32.996094 29.113281 C 32.679688 30.207031 33.007812 31.382812 33.84375 32.15625 L 37.6875 35.996094 L 33.84375 39.839844 C 33.0625 40.609375 32.753906 41.734375 33.035156 42.796875 C 33.3125 43.855469 34.140625 44.679688 35.199219 44.960938 C 36.257812 45.242188 37.386719 44.933594 38.15625 44.152344 L 44.15625 38.152344 L 46.21875 35.996094 L 44.15625 33.839844 L 38.15625 27.839844 C 37.429688 27.089844 36.363281 26.773438 35.34375 27 Z M 35.34375 27 "/>
<path style=" stroke:none;fill-rule:nonzero;fill:rgb(100%,100%,100%);fill-opacity:1;" d="M 35.34375 3 C 34.222656 3.203125 33.316406 4.019531 32.996094 5.113281 C 32.679688 6.207031 33.007812 7.382812 33.84375 8.15625 L 37.6875 11.996094 L 33.84375 15.839844 C 33.0625 16.609375 32.753906 17.734375 33.035156 18.796875 C 33.3125 19.855469 34.140625 20.679688 35.199219 20.960938 C 36.257812 21.242188 37.386719 20.933594 38.15625 20.152344 L 44.15625 14.152344 L 46.21875 11.996094 L 44.15625 9.839844 L 38.15625 3.839844 C 37.429688 3.089844 36.363281 2.769531 35.34375 3 Z M 35.34375 3 "/>
<path style=" stroke:none;fill-rule:nonzero;fill:rgb(100%,100%,100%);fill-opacity:1;" d="M 24 9 C 23.3125 9 22.675781 9.132812 22.03125 9.28125 C 23.476562 10.933594 24.617188 12.8125 25.125 15 L 42 15 L 42 9 Z M 3 33 L 3 39 L 12 39 C 12.6875 39 13.324219 38.867188 13.96875 38.71875 C 12.523438 37.066406 11.386719 35.1875 10.875 33 Z M 3 33 "/>
<path style=" stroke:none;fill-rule:nonzero;fill:rgb(100%,100%,100%);fill-opacity:1;" d="M 33 27 L 36 27 L 36 30 L 33 30 Z M 33 27 "/>
<path style=" stroke:none;fill-rule:nonzero;fill:rgb(100%,100%,100%);fill-opacity:1;" d="M 33 42 L 36 42 L 36 45 L 33 45 Z M 33 42 "/>
<path style=" stroke:none;fill-rule:nonzero;fill:rgb(100%,100%,100%);fill-opacity:1;" d="M 33 3 L 36 3 L 36 6 L 33 6 Z M 33 3 "/>
<path style=" stroke:none;fill-rule:nonzero;fill:rgb(100%,100%,100%);fill-opacity:1;" d="M 33 18 L 36 18 L 36 21 L 33 21 Z M 33 18 "/>
</g>
</svg>
