<?xml version="1.0" encoding="UTF-8"?>
<svg xmlns="http://www.w3.org/2000/svg" xmlns:xlink="http://www.w3.org/1999/xlink" width="48" height="48" viewBox="0 0 48 48" version="1.1">
<g id="surface1">
<path style=" stroke:none;fill-rule:nonzero;fill:rgb(100%,100%,100%);fill-opacity:1;" d="M 17.339844 27 C 16.21875 27.203125 15.3125 28.019531 14.992188 29.113281 C 14.675781 30.207031 15.003906 31.382812 15.839844 32.15625 L 19.679688 35.996094 L 15.835938 39.839844 C 15.054688 40.609375 14.746094 41.734375 15.027344 42.796875 C 15.308594 43.855469 16.136719 44.679688 17.195312 44.960938 C 18.25 45.242188 19.382812 44.933594 20.148438 44.152344 L 26.148438 38.152344 L 28.210938 35.996094 L 26.148438 33.839844 L 20.148438 27.839844 C 19.417969 27.085938 18.351562 26.769531 17.328125 27 Z M 17.339844 27 "/>
<path style=" stroke:none;fill-rule:nonzero;fill:rgb(100%,100%,100%);fill-opacity:1;" d="M 12 9 C 7.066406 9 3 13.066406 3 18 L 3 30 C 3 34.933594 7.066406 39 12 39 L 24 39 L 24 33 L 12 33 C 10.285156 33 9 31.714844 9 30 L 9 18 C 9 16.285156 10.285156 15 12 15 L 36 15 C 37.714844 15 39 16.285156 39 18 L 39 30 C 39 31.714844 37.714844 33 36 33 L 33 33 L 33 39 L 36 39 C 40.933594 39 45 34.933594 45 30 L 45 18 C 45 13.066406 40.933594 9 36 9 Z M 12 9 "/>
<path style=" stroke:none;fill-rule:nonzero;fill:rgb(100%,100%,100%);fill-opacity:1;" d="M 18 27 L 15 27 L 15 30 L 18 30 Z M 18 27 "/>
<path style=" stroke:none;fill-rule:nonzero;fill:rgb(100%,100%,100%);fill-opacity:1;" d="M 18 42 L 15 42 L 15 45 L 18 45 Z M 18 42 "/>
</g>
</svg>
