<?xml version="1.0" encoding="UTF-8"?>
<svg xmlns="http://www.w3.org/2000/svg" xmlns:xlink="http://www.w3.org/1999/xlink" width="48" height="48" viewBox="0 0 48 48" version="1.1">
<g id="surface1">
<path style=" stroke:none;fill-rule:nonzero;fill:rgb(100%,100%,100%);fill-opacity:1;" d="M 6 21 L 6 27 L 44.90625 27 L 44.90625 21 L 5.996094 21 Z M 6 21 "/>
<path style=" stroke:none;fill-rule:nonzero;fill:rgb(100%,100%,100%);fill-opacity:1;" d="M 11.640625 15 C 10.96875 15.074219 10.339844 15.371094 9.859375 15.84375 L 3.859375 21.84375 L 1.796875 24 L 3.859375 26.15625 L 9.859375 32.15625 C 10.628906 32.9375 11.753906 33.246094 12.8125 32.964844 C 13.871094 32.683594 14.699219 31.859375 14.980469 30.796875 C 15.261719 29.742188 14.953125 28.609375 14.171875 27.84375 L 10.300781 24.003906 L 14.144531 20.160156 C 15.113281 19.257812 15.378906 17.832031 14.800781 16.644531 C 14.21875 15.457031 12.929688 14.789062 11.625 15 Z M 11.640625 15 "/>
<path style=" stroke:none;fill-rule:nonzero;fill:rgb(100%,100%,100%);fill-opacity:1;" d="M 15 15 L 12 15 L 12 18 L 15 18 Z M 15 15 "/>
<path style=" stroke:none;fill-rule:nonzero;fill:rgb(100%,100%,100%);fill-opacity:1;" d="M 15 30 L 12 30 L 12 33 L 15 33 Z M 15 30 "/>
</g>
</svg>
