<?xml version="1.0" encoding="UTF-8"?>
<svg xmlns="http://www.w3.org/2000/svg" xmlns:xlink="http://www.w3.org/1999/xlink" width="48" height="48" viewBox="0 0 48 48" version="1.1">
<g id="surface1">
<path style=" stroke:none;fill-rule:nonzero;fill:rgb(100%,100%,100%);fill-opacity:1;" d="M 6.1875 0 C 2.734375 0 0 2.734375 0 6.1875 L 0 41.8125 C 0 45.265625 2.734375 48 6.1875 48 L 41.8125 48 C 45.265625 48 48 45.265625 48 41.8125 L 48 6.1875 C 48 2.734375 45.265625 0 41.8125 0 Z M 18.375 9.09375 L 29.90625 9.09375 C 29.914062 9.09375 29.894531 9.1875 29.90625 9.1875 C 31.488281 9.125 33.121094 9.414062 34.40625 10.59375 C 35.648438 11.734375 36.183594 13.617188 36.09375 15.375 L 36.1875 15.375 L 36.1875 18 L 30.1875 18 L 30.1875 15.09375 C 30.132812 15.085938 30.195312 15.085938 30.09375 15.09375 L 18.375 15.09375 C 18.289062 15.09375 18.308594 15.101562 18.28125 15.09375 C 18.261719 15.105469 18.191406 15.085938 18.1875 15.09375 C 18.164062 15.160156 18.207031 15.234375 18.1875 15.28125 L 18.1875 32.8125 C 18.113281 32.746094 18.175781 32.992188 18.1875 33 L 29.90625 33 C 29.925781 32.941406 29.992188 32.953125 30 33 C 30 33.023438 30 32.832031 30 32.90625 L 30 27.09375 L 24 27.09375 L 24 21.09375 L 36 21.09375 L 36 32.90625 C 36 34.59375 35.316406 35.90625 34.3125 37.03125 C 33.363281 38.09375 31.753906 38.925781 29.90625 38.90625 L 29.90625 39 L 18.1875 39 C 16.3125 39 15.203125 38.277344 14.152344 37.3125 C 13.160156 36.398438 12.222656 34.941406 12.277344 33 C 12.28125 32.992188 12.183594 33.007812 12.183594 33 L 12.183594 14.8125 C 12.371094 13.5 12.800781 12.144531 13.871094 10.96875 C 14.945312 9.792969 16.710938 9.09375 18.371094 9.09375 Z M 18.375 9.09375 "/>
</g>
</svg>
