<?xml version="1.0" encoding="UTF-8"?>
<svg xmlns="http://www.w3.org/2000/svg" xmlns:xlink="http://www.w3.org/1999/xlink" width="48" height="48" viewBox="0 0 48 48" version="1.1">
<g id="surface1">
<path style=" stroke:none;fill-rule:nonzero;fill:rgb(100%,100%,100%);fill-opacity:1;" d="M 6.1875 0 C 2.734375 0 0 2.734375 0 6.1875 L 0 41.8125 C 0 45.265625 2.734375 48 6.1875 48 L 41.8125 48 C 45.265625 48 48 45.265625 48 41.8125 L 48 6.1875 C 48 2.738281 45.265625 0.0078125 41.816406 0.0078125 L 6.191406 0.0078125 Z M 6 9 L 18 9 C 19.023438 9.023438 19.960938 9.566406 20.492188 10.441406 C 21.023438 11.3125 21.074219 12.394531 20.625 13.3125 L 16.5 21.65625 C 17.566406 22 18.75 22.242188 19.40625 22.96875 C 20.40625 24.066406 21 25.398438 21 27 L 21 33 C 21 36.335938 18.28125 39 15 39 L 6 39 L 6 33 L 15 33 L 15 27 L 12 27 C 10.980469 26.976562 10.042969 26.433594 9.511719 25.558594 C 8.980469 24.6875 8.929688 23.605469 9.375 22.6875 L 13.125 15 L 6 15 Z M 30.1875 9.09375 L 35.90625 9.09375 C 35.917969 9.09375 35.898438 9.1875 35.90625 9.1875 C 37.488281 9.125 39.125 9.414062 40.40625 10.59375 C 41.652344 11.734375 42.1875 13.617188 42.09375 15.375 L 42.1875 15.375 L 42.1875 18 L 36.1875 18 L 36.1875 15.09375 C 36.136719 15.085938 36.199219 15.085938 36.09375 15.09375 L 30.1875 15.09375 C 30.105469 15.09375 30.125 15.101562 30.097656 15.09375 C 30.078125 15.105469 30.007812 15.085938 30.003906 15.09375 C 29.980469 15.160156 30.023438 15.234375 30.003906 15.28125 L 30.003906 32.8125 C 29.929688 32.746094 30.003906 33 30.003906 33 L 35.910156 33 C 35.929688 32.941406 35.996094 32.953125 36.003906 33 C 36.003906 33.023438 36.003906 32.832031 36.003906 32.90625 L 36.003906 27.09375 L 33.003906 27.09375 L 33.003906 21.09375 L 42.003906 21.09375 L 42.003906 32.90625 C 42.003906 34.59375 41.320312 35.90625 40.316406 37.03125 C 39.367188 38.09375 37.757812 38.925781 35.910156 38.90625 L 35.910156 39 L 30.003906 39 C 28.128906 39 27.019531 38.277344 25.972656 37.3125 C 24.976562 36.398438 24.039062 34.941406 24.097656 33 C 24.097656 32.992188 24 33.007812 24.003906 33 L 24.003906 14.8125 C 24.191406 13.5 24.617188 12.144531 25.691406 10.96875 C 26.761719 9.792969 28.527344 9.09375 30.191406 9.09375 Z M 30.1875 9.09375 "/>
</g>
</svg>
