<?xml version="1.0" encoding="UTF-8"?>
<svg xmlns="http://www.w3.org/2000/svg" xmlns:xlink="http://www.w3.org/1999/xlink" width="48" height="48" viewBox="0 0 48 48" version="1.1">
<g id="surface1">
<path style=" stroke:none;fill-rule:nonzero;fill:rgb(100%,100%,100%);fill-opacity:1;" d="M 6.179688 0 C 2.726562 0 -0.0078125 2.734375 -0.0078125 6.1875 L -0.0078125 41.8125 C -0.0078125 45.265625 2.726562 48 6.179688 48 L 41.804688 48 C 45.257812 48 47.992188 45.265625 47.992188 41.8125 L 47.992188 6.1875 C 47.992188 2.734375 45.257812 0 41.804688 0 Z M 17.992188 9 L 35.992188 9 L 35.992188 15 L 17.992188 15 L 17.992188 21 L 35.992188 21 L 35.992188 27 L 17.992188 27 L 17.992188 33 C 17.992188 33 18.085938 33 18.085938 33 L 35.992188 33 L 35.992188 39 L 17.992188 39 C 16.117188 39 15.011719 38.277344 13.960938 37.3125 C 12.96875 36.398438 12.03125 34.945312 12.085938 33 L 11.992188 33 L 11.992188 15 L 12.085938 15 C 12.046875 13.574219 12.414062 12 13.492188 10.78125 C 14.554688 9.578125 16.296875 9.03125 17.992188 9.09375 Z M 17.992188 9 "/>
</g>
</svg>
