<?xml version="1.0" encoding="UTF-8"?>
<svg xmlns="http://www.w3.org/2000/svg" xmlns:xlink="http://www.w3.org/1999/xlink" width="48" height="48" viewBox="0 0 48 48" version="1.1">
<g id="surface1">
<path style=" stroke:none;fill-rule:nonzero;fill:rgb(100%,100%,100%);fill-opacity:1;" d="M 6.1875 0 C 2.734375 0 0 2.730469 0 6.179688 L 0 41.804688 C 0 45.253906 2.734375 47.984375 6.1875 47.984375 L 41.8125 47.984375 C 45.265625 47.984375 48 45.253906 48 41.804688 L 48 6.179688 C 48 2.730469 45.265625 0 41.8125 0 Z M 12 9 L 18 9 L 18 33 C 17.996094 33 18.09375 33 18.09375 33 L 29.90625 33 C 29.925781 32.941406 29.992188 32.953125 30 33 C 30 33.023438 30 32.835938 30 32.90625 L 30 8.996094 L 36 8.996094 L 36 32.902344 C 36 34.589844 35.320312 35.902344 34.3125 37.027344 C 33.367188 38.089844 31.757812 38.921875 29.90625 38.902344 L 29.90625 38.996094 L 18 38.996094 C 16.125 38.996094 15.019531 38.273438 13.96875 37.308594 C 12.976562 36.394531 12.039062 34.9375 12.09375 32.996094 L 12 32.996094 L 12 8.996094 Z M 12 9 "/>
</g>
</svg>
