<?xml version="1.0" encoding="UTF-8"?>
<svg xmlns="http://www.w3.org/2000/svg" xmlns:xlink="http://www.w3.org/1999/xlink" width="48" height="48" viewBox="0 0 48 48" version="1.1">
<g id="surface1">
<path style=" stroke:none;fill-rule:nonzero;fill:rgb(96.078431%,47.45098%,0%);fill-opacity:1;" d="M 9 3 C 3 3 3 9 3 9 L 3 39 C 3 45 9 45 9 45 L 39 44.71875 C 45 44.664062 45 39 45 39 L 45 9 C 45 3 39 3 39 3 Z M 24 9.09375 C 29.445312 9.09375 34.886719 10.949219 39 14.71875 L 39 18 L 33.5625 18 C 28.03125 13.769531 19.96875 13.769531 14.4375 18 L 9 18 L 9 14.71875 C 13.113281 10.949219 18.554688 9.09375 24 9.09375 Z M 24 18.28125 C 27.128906 18.28125 30.242188 19.292969 32.625 21.28125 C 32.753906 21.335938 32.878906 21.398438 33 21.46875 L 33 24 L 15 24 L 15 21.5625 C 15.117188 21.460938 15.242188 21.367188 15.375 21.28125 C 17.757812 19.292969 20.871094 18.28125 24 18.28125 Z M 24 27 C 27.3125 27 30 29.6875 30 33 C 30 36.3125 27.3125 39 24 39 C 20.6875 39 18 36.3125 18 33 C 18 29.6875 20.6875 27 24 27 Z M 24 27 "/>
</g>
</svg>
