<?xml version="1.0" encoding="UTF-8"?>
<svg xmlns="http://www.w3.org/2000/svg" xmlns:xlink="http://www.w3.org/1999/xlink" width="48" height="48" viewBox="0 0 48 48" version="1.1">
<g id="surface1">
<path style=" stroke:none;fill-rule:nonzero;fill:rgb(100%,100%,100%);fill-opacity:1;" d="M 15 21 C 14.070312 21 13.15625 21.269531 12.5625 21.84375 L 1.761719 33.003906 L 12.730469 44.160156 C 13.324219 44.734375 14.050781 45.003906 14.980469 45.003906 L 17.980469 45.003906 L 17.980469 42.003906 C 17.980469 41.234375 17.59375 40.417969 17.042969 39.847656 L 13.203125 36.007812 L 26.984375 36.007812 C 28.570312 36.03125 29.984375 34.59375 29.984375 33.007812 C 29.984375 31.421875 28.570312 29.984375 26.984375 30.007812 L 13.109375 30.007812 L 16.765625 26.164062 C 17.3125 25.59375 17.984375 24.777344 17.984375 24.007812 L 17.984375 21.007812 Z M 15 21 "/>
<path style=" stroke:none;fill-rule:nonzero;fill:rgb(100%,100%,100%);fill-opacity:1;" d="M 34.769531 27 C 35.699219 27 36.613281 26.730469 37.207031 26.15625 L 48.007812 14.996094 L 37.039062 3.839844 C 36.445312 3.265625 35.71875 2.996094 34.789062 2.996094 L 31.789062 2.996094 L 31.789062 5.996094 C 31.789062 6.765625 32.179688 7.582031 32.726562 8.152344 L 36.570312 11.996094 L 21.007812 11.996094 C 19.421875 11.976562 18.007812 13.410156 18.007812 14.996094 C 18.007812 16.582031 19.421875 18.019531 21.007812 17.996094 L 36.664062 17.996094 L 33.007812 21.839844 C 32.460938 22.410156 31.789062 23.226562 31.789062 23.996094 L 31.789062 26.996094 Z M 34.769531 27 "/>
</g>
</svg>
