<?xml version="1.0" encoding="UTF-8"?>
<svg xmlns="http://www.w3.org/2000/svg" xmlns:xlink="http://www.w3.org/1999/xlink" width="48" height="48" viewBox="0 0 48 48" version="1.1">
<g id="surface1">
<path style=" stroke:none;fill-rule:nonzero;fill:rgb(100%,100%,100%);fill-opacity:1;" d="M 6.179688 0 C 2.726562 0 -0.0078125 2.734375 -0.0078125 6.1875 L -0.0078125 41.8125 C -0.0078125 45.265625 2.726562 48 6.179688 48 L 41.804688 48 C 45.257812 48 47.992188 45.265625 47.992188 41.8125 L 47.992188 6.1875 C 47.992188 2.734375 45.257812 0 41.804688 0 Z M 5.992188 9 L 11.992188 9 L 11.992188 21 L 14.992188 21 L 14.992188 18 L 20.992188 18 L 20.992188 39 L 14.992188 39 L 14.992188 27 L 11.992188 27 C 8.992188 27 5.992188 24.476562 5.992188 21 Z M 30.179688 9.09375 L 35.898438 9.09375 C 35.90625 9.09375 35.890625 9.1875 35.898438 9.1875 C 37.480469 9.125 39.117188 9.414062 40.398438 10.59375 C 41.640625 11.734375 42.179688 13.617188 42.085938 15.375 L 42.179688 15.375 L 42.179688 18 L 36.179688 18 L 36.179688 15.09375 C 36.128906 15.085938 36.1875 15.085938 36.085938 15.09375 L 30.179688 15.09375 C 30.097656 15.09375 30.113281 15.101562 30.085938 15.09375 C 30.070312 15.105469 30 15.085938 29.992188 15.09375 C 29.972656 15.160156 30.015625 15.234375 29.992188 15.28125 L 29.992188 32.8125 C 29.921875 32.746094 29.992188 33 29.992188 33 L 35.898438 33 C 35.921875 32.941406 35.988281 32.953125 35.992188 33 C 35.996094 33.023438 35.992188 32.832031 35.992188 32.90625 L 35.992188 27.09375 L 32.992188 27.09375 L 32.992188 21.09375 L 41.992188 21.09375 L 41.992188 32.90625 C 41.992188 34.59375 41.3125 35.90625 40.304688 37.03125 C 39.359375 38.09375 37.75 38.925781 35.898438 38.90625 L 35.898438 39 L 29.992188 39 C 28.117188 39 27.011719 38.277344 25.960938 37.3125 C 24.96875 36.398438 24.03125 34.941406 24.085938 33 C 24.085938 32.992188 23.992188 33.007812 23.992188 33 L 23.992188 14.8125 C 24.179688 13.5 24.609375 12.144531 25.679688 10.96875 C 26.753906 9.792969 28.519531 9.09375 30.179688 9.09375 Z M 30.179688 9.09375 "/>
</g>
</svg>
