<?xml version="1.0" encoding="UTF-8"?>
<svg xmlns="http://www.w3.org/2000/svg" xmlns:xlink="http://www.w3.org/1999/xlink" width="48" height="48" viewBox="0 0 48 48" version="1.1">
<g id="surface1">
<path style=" stroke:none;fill-rule:nonzero;fill:rgb(100%,100%,100%);fill-opacity:1;" d="M 24.007812 3.03125 C 23.210938 3.027344 22.511719 3.332031 22.015625 3.75 C 21.515625 4.164062 21.183594 4.710938 20.847656 5.25 C 20.171875 6.324219 19.667969 7.554688 19.148438 8.859375 C 18.632812 10.164062 18.109375 11.523438 17.636719 12.554688 C 17.164062 13.589844 16.601562 14.292969 16.558594 14.320312 C 16.519531 14.347656 15.640625 14.671875 14.472656 14.777344 C 13.304688 14.878906 11.828125 14.921875 10.382812 14.984375 C 8.9375 15.042969 7.472656 15.09375 6.203125 15.367188 C 5.570312 15.503906 4.957031 15.671875 4.390625 15.996094 C 3.824219 16.320312 3.289062 16.855469 3.039062 17.585938 C 2.792969 18.316406 2.894531 19.105469 3.148438 19.691406 C 3.40625 20.277344 3.828125 20.785156 4.253906 21.261719 C 5.105469 22.210938 6.152344 23.078125 7.277344 23.957031 C 8.402344 24.835938 9.609375 25.632812 10.480469 26.386719 C 11.355469 27.140625 11.84375 27.910156 11.859375 27.957031 C 11.875 28 11.953125 28.960938 11.695312 30.0625 C 11.4375 31.164062 11.023438 32.496094 10.636719 33.84375 C 10.25 35.191406 9.882812 36.550781 9.761719 37.796875 C 9.703125 38.425781 9.632812 39.019531 9.777344 39.640625 C 9.921875 40.261719 10.332031 40.933594 10.976562 41.386719 C 11.617188 41.84375 12.320312 41.949219 12.980469 41.894531 C 13.636719 41.84375 14.285156 41.683594 14.882812 41.445312 C 16.085938 40.957031 17.289062 40.15625 18.503906 39.394531 C 19.71875 38.632812 20.929688 37.832031 21.941406 37.261719 C 22.953125 36.695312 23.886719 36.457031 23.933594 36.457031 C 23.984375 36.457031 24.84375 36.742188 25.851562 37.320312 C 26.859375 37.894531 28.027344 38.714844 29.234375 39.484375 C 30.441406 40.257812 31.695312 40.976562 32.886719 41.472656 C 33.484375 41.722656 34.054688 41.925781 34.710938 41.984375 C 35.367188 42.042969 36.148438 41.894531 36.796875 41.441406 C 37.445312 40.992188 37.816406 40.386719 37.964844 39.765625 C 38.113281 39.148438 38.09375 38.460938 38.039062 37.835938 C 37.929688 36.585938 37.5625 35.242188 37.1875 33.894531 C 36.8125 32.542969 36.402344 31.234375 36.152344 30.128906 C 35.90625 29.027344 35.9375 28.070312 35.953125 28.023438 C 35.96875 27.980469 36.515625 27.269531 37.394531 26.523438 C 38.273438 25.777344 39.421875 24.910156 40.558594 24.039062 C 41.6875 23.171875 42.859375 22.324219 43.714844 21.382812 C 44.144531 20.914062 44.441406 20.378906 44.703125 19.796875 C 44.964844 19.210938 45.109375 18.507812 44.867188 17.777344 C 44.625 17.042969 44.054688 16.539062 43.488281 16.207031 C 42.925781 15.878906 42.390625 15.664062 41.753906 15.523438 C 40.488281 15.234375 39.015625 15.101562 37.570312 15.027344 C 36.125 14.957031 34.730469 14.910156 33.566406 14.796875 C 32.402344 14.683594 31.417969 14.402344 31.382812 14.375 C 31.34375 14.351562 30.828125 13.667969 30.367188 12.628906 C 29.902344 11.59375 29.386719 10.265625 28.878906 8.957031 C 28.371094 7.648438 27.875 6.363281 27.210938 5.285156 C 26.878906 4.746094 26.511719 4.222656 26.015625 3.804688 C 25.523438 3.382812 24.808594 3.03125 24.007812 3.03125 Z M 24.035156 6.011719 C 24.160156 6.121094 24.355469 6.421875 24.585938 6.796875 C 25.050781 7.554688 25.578125 8.679688 26.070312 9.945312 C 26.558594 11.210938 27.027344 12.601562 27.554688 13.792969 C 28.089844 14.984375 28.5 15.996094 29.582031 16.757812 C 30.664062 17.523438 31.894531 17.652344 33.226562 17.78125 C 34.5625 17.914062 36.015625 17.941406 37.414062 18.011719 C 38.8125 18.082031 40.167969 18.222656 41.054688 18.421875 C 41.496094 18.523438 41.820312 18.59375 41.964844 18.679688 C 41.898438 18.828125 41.726562 19.140625 41.425781 19.472656 C 40.828125 20.132812 39.8125 20.933594 38.71875 21.773438 C 37.625 22.613281 36.382812 23.492188 35.375 24.34375 C 34.367188 25.199219 33.457031 25.941406 33.035156 27.171875 C 32.617188 28.402344 32.875 29.5 33.15625 30.765625 C 33.441406 32.03125 33.921875 33.402344 34.28125 34.707031 C 34.648438 36.011719 34.964844 37.25 35.039062 38.121094 C 35.074219 38.519531 34.988281 38.828125 34.957031 39 C 34.777344 38.976562 34.429688 38.902344 34.046875 38.746094 C 33.210938 38.398438 32.105469 37.761719 30.9375 37.015625 C 29.773438 36.269531 28.527344 35.421875 27.375 34.761719 C 26.21875 34.101562 25.25 33.566406 23.910156 33.5625 C 22.566406 33.554688 21.53125 34.078125 20.375 34.730469 C 19.210938 35.382812 18.019531 36.21875 16.84375 36.953125 C 15.671875 37.6875 14.515625 38.304688 13.679688 38.644531 C 13.257812 38.816406 12.941406 38.902344 12.773438 38.914062 C 12.742188 38.742188 12.726562 38.433594 12.765625 38.039062 C 12.847656 37.164062 13.179688 35.914062 13.554688 34.609375 C 13.925781 33.308594 14.3125 31.917969 14.609375 30.652344 C 14.90625 29.390625 15.171875 28.289062 14.761719 27.054688 C 14.351562 25.820312 13.464844 25.128906 12.460938 24.265625 C 11.460938 23.402344 10.347656 22.511719 9.257812 21.660156 C 8.171875 20.8125 7.105469 19.980469 6.511719 19.3125 C 6.214844 18.980469 6.023438 18.679688 5.960938 18.527344 C 6.105469 18.445312 6.421875 18.355469 6.867188 18.257812 C 7.75 18.0625 9.101562 17.9375 10.5 17.878906 C 11.898438 17.820312 13.34375 17.789062 14.679688 17.667969 C 16.015625 17.546875 17.21875 17.519531 18.308594 16.761719 C 19.398438 16.007812 19.921875 14.945312 20.464844 13.761719 C 21.007812 12.578125 21.476562 11.238281 21.976562 9.976562 C 22.480469 8.714844 22.933594 7.46875 23.402344 6.71875 C 23.640625 6.34375 23.90625 6.117188 24.035156 6.011719 Z M 24.035156 6.011719 "/>
</g>
</svg>
