<?xml version="1.0" encoding="UTF-8"?>
<svg xmlns="http://www.w3.org/2000/svg" xmlns:xlink="http://www.w3.org/1999/xlink" width="48" height="48" viewBox="0 0 48 48" version="1.1">
<g id="surface1">
<path style=" stroke:none;fill-rule:nonzero;fill:rgb(96.078431%,47.45098%,0%);fill-opacity:1;" d="M 26.640625 24 C 25.164062 24 24.015625 25.148438 24.015625 26.625 L 24.015625 45.375 C 24.015625 46.851562 25.164062 48 26.640625 48 L 45.390625 48 C 46.867188 48 48.015625 46.851562 48.015625 45.375 L 48.015625 26.625 C 48.015625 25.15625 46.875 24.015625 45.375 24.015625 L 26.625 24.015625 Z M 33.015625 27 L 39.015625 27 L 39.015625 39 L 33.015625 39 Z M 33.015625 42 L 39.015625 42 L 39.015625 45 L 33.015625 45 Z M 33.015625 42 "/>
<path style=" stroke:none;fill-rule:nonzero;fill:rgb(74.509804%,74.509804%,74.509804%);fill-opacity:1;" d="M 6 12 C 4.5 12 3 13.5 3 15 L 3 27 C 3 28.5 4.5 30 6 30 L 9 30 L 9 24 L 21 24 C 21.355469 22.382812 22.652344 21.1875 24.375 21.1875 L 45 21.1875 L 45 15 C 45 13.5 43.5 12 42 12 Z M 6 12 "/>
<path style=" stroke:none;fill-rule:nonzero;fill:rgb(74.509804%,74.509804%,74.509804%);fill-opacity:1;" d="M 12 3 L 12 9 L 36 9 L 36 3 Z M 12 3 "/>
<path style=" stroke:none;fill-rule:nonzero;fill:rgb(74.509804%,74.509804%,74.509804%);fill-opacity:1;" d="M 12 27 L 12 42 L 21 42 L 21 27 Z M 12 27 "/>
<path style=" stroke:none;fill-rule:nonzero;fill:rgb(100%,100%,100%);fill-opacity:1;" d="M 12.164062 34.515625 L 12.164062 27.089844 L 20.910156 27.089844 L 20.910156 41.9375 L 12.164062 41.9375 Z M 12.164062 34.515625 "/>
<path style=" stroke:none;fill-rule:nonzero;fill:rgb(100%,100%,100%);fill-opacity:1;" d="M 4.917969 29.648438 C 4.570312 29.496094 4.019531 29.023438 3.695312 28.601562 L 3.113281 27.835938 L 3.113281 14.144531 L 3.699219 13.375 C 4.78125 11.957031 3.648438 12.027344 24.25 12.089844 C 42.757812 12.140625 42.847656 12.144531 43.417969 12.566406 C 43.734375 12.800781 44.199219 13.296875 44.449219 13.664062 C 44.878906 14.296875 44.910156 14.546875 44.910156 17.761719 L 44.910156 21.183594 L 23.042969 21.292969 L 22.378906 21.769531 C 22.011719 22.03125 21.53125 22.601562 21.308594 23.039062 L 20.902344 23.832031 L 9.011719 23.9375 L 8.898438 29.9375 L 7.226562 29.929688 C 6.28125 29.925781 5.277344 29.800781 4.917969 29.648438 Z M 4.917969 29.648438 "/>
<path style=" stroke:none;fill-rule:nonzero;fill:rgb(100%,100%,100%);fill-opacity:1;" d="M 12.164062 6.039062 L 12.164062 3.089844 L 35.960938 3.089844 L 35.960938 8.988281 L 12.164062 8.988281 Z M 12.164062 6.039062 "/>
</g>
</svg>
