<?xml version="1.0" encoding="UTF-8"?>
<svg xmlns="http://www.w3.org/2000/svg" xmlns:xlink="http://www.w3.org/1999/xlink" width="48" height="48" viewBox="0 0 48 48" version="1.1">
<g id="surface1">
<path style=" stroke:none;fill-rule:nonzero;fill:rgb(74.509804%,74.509804%,74.509804%);fill-opacity:1;" d="M 6 12 C 4.5 12 3 13.5 3 15 L 3 27 C 3 28.5 4.5 30 6 30 L 9 30 L 9 24 L 45 24.011719 L 45 15 C 45 13.5 43.5 12 42 12 Z M 6 12 "/>
<path style=" stroke:none;fill-rule:nonzero;fill:rgb(74.509804%,74.509804%,74.509804%);fill-opacity:1;" d="M 12 3 L 12 9 L 36 9 L 36 3 Z M 12 3 "/>
<path style=" stroke:none;fill-rule:nonzero;fill:rgb(74.509804%,74.509804%,74.509804%);fill-opacity:1;" d="M 12 27 L 12 42 L 24 42 L 23.984375 27 Z M 12 27 "/>
<path style=" stroke:none;fill-rule:nonzero;fill:rgb(93.72549%,16.078431%,16.078431%);fill-opacity:1;" d="M 37.5 27 C 31.699219 27 27 31.699219 27 37.5 C 27 43.300781 31.699219 48 37.5 48 C 43.300781 48 48 43.300781 48 37.5 C 48 31.699219 43.300781 27 37.5 27 Z M 30 35.90625 L 45 35.90625 L 45 39 L 30 39 Z M 30 35.90625 "/>
<path style=" stroke:none;fill-rule:nonzero;fill:rgb(100%,100%,100%);fill-opacity:1;" d="M 12.164062 34.515625 L 12.164062 27.089844 L 23.960938 27.089844 L 23.960938 41.9375 L 12.164062 41.9375 Z M 12.164062 34.515625 "/>
<path style=" stroke:none;fill-rule:nonzero;fill:rgb(100%,100%,100%);fill-opacity:1;" d="M 4.917969 29.648438 C 4.570312 29.496094 4.019531 29.023438 3.695312 28.601562 L 3.113281 27.835938 L 3.113281 14.144531 L 3.699219 13.375 C 4.78125 11.957031 3.648438 12.027344 24.25 12.089844 C 42.757812 12.140625 42.847656 12.144531 43.417969 12.566406 C 43.734375 12.800781 44.199219 13.296875 44.449219 13.664062 C 44.894531 14.316406 44.910156 14.492188 44.910156 19.207031 L 44.910156 24.074219 L 9.011719 23.9375 L 8.898438 29.9375 L 7.226562 29.929688 C 6.28125 29.925781 5.277344 29.800781 4.917969 29.648438 Z M 4.917969 29.648438 "/>
<path style=" stroke:none;fill-rule:nonzero;fill:rgb(100%,100%,100%);fill-opacity:1;" d="M 12.164062 6.039062 L 12.164062 3.089844 L 35.960938 3.089844 L 35.960938 8.988281 L 12.164062 8.988281 Z M 12.164062 6.039062 "/>
</g>
</svg>
