<?xml version="1.0" encoding="UTF-8"?>
<svg xmlns="http://www.w3.org/2000/svg" xmlns:xlink="http://www.w3.org/1999/xlink" width="48" height="48" viewBox="0 0 48 48" version="1.1">
<g id="surface1">
<path style=" stroke:none;fill-rule:nonzero;fill:rgb(74.509804%,74.509804%,74.509804%);fill-opacity:1;" d="M 10.5 0 C 8.007812 0 6 2.007812 6 4.5 L 6 18 L 4.5 18 C 2.007812 18 0 20.007812 0 22.5 L 0 34.5 C 0 36.992188 2.007812 39 4.5 39 L 6 39 L 6 43.5 C 6 45.992188 8.007812 48 10.5 48 L 30.1875 48 L 27.84375 45.65625 C 26.902344 44.726562 26.699219 43.136719 27.375 42 L 13.5 42 C 12.667969 42 12 41.332031 12 40.5 L 12 36 L 27.375 36 C 26.699219 34.859375 26.902344 33.273438 27.84375 32.34375 L 32.34375 27.84375 C 32.820312 27.371094 33.460938 27.070312 34.125 27 C 34.15625 27 34.1875 27 34.21875 27 C 34.40625 26.984375 34.59375 26.984375 34.78125 27 C 35.480469 27.050781 36.15625 27.355469 36.65625 27.84375 L 39 30.183594 L 39.5625 29.625 C 39.238281 29.351562 39 28.957031 39 28.5 C 39 27.671875 39.671875 27 40.5 27 C 40.984375 27 41.351562 27.296875 41.625 27.65625 C 42.761719 26.710938 44.613281 26.796875 45.65625 27.84375 L 48 30.183594 L 48 22.5 C 48 20.007812 45.992188 18 43.5 18 L 42 18 L 42 4.5 C 42 2.007812 39.992188 0 37.5 0 C 28.5 0 19.496094 0 10.5 0 Z M 13.5 6 L 34.5 6 C 35.332031 6 36 6.667969 36 7.5 L 36 21 L 12 21 L 12 7.5 C 12 6.667969 12.667969 6 13.5 6 Z M 15 9 L 15 12 L 33.09375 12 L 33.09375 9 Z M 15 15 L 15 18 L 27 18 L 27 15 Z M 15 15 "/>
<path style=" stroke:none;fill-rule:nonzero;fill:rgb(83.137255%,0%,0%);fill-opacity:1;" d="M 30.015625 34.515625 L 34.511719 30.019531 L 39.007812 34.515625 L 43.503906 30.019531 L 48.003906 34.515625 L 43.507812 39.007812 L 48.003906 43.503906 L 43.507812 48 L 39.011719 43.503906 L 34.519531 48 L 30.023438 43.503906 L 34.519531 39.007812 L 30.023438 34.515625 Z M 30.015625 34.515625 "/>
<path style=" stroke:none;fill-rule:nonzero;fill:rgb(100%,100%,100%);fill-opacity:1;" d="M 8.46875 47.425781 C 7.527344 46.929688 6.59375 45.800781 6.292969 44.800781 C 6.164062 44.375 6.0625 42.871094 6.0625 41.457031 L 6.0625 38.886719 L 4.835938 38.886719 C 2.835938 38.886719 1.398438 38.050781 0.542969 36.390625 C 0.171875 35.664062 0.152344 35.214844 0.207031 28.238281 L 0.265625 20.859375 L 0.773438 20.109375 C 1.660156 18.796875 2.679688 18.265625 4.476562 18.175781 L 6.042969 18.101562 L 6.101562 10.648438 L 6.164062 3.195312 L 6.664062 2.320312 C 7.265625 1.265625 8.644531 0.308594 9.792969 0.140625 C 10.257812 0.0742188 16.953125 0.046875 24.671875 0.0820312 L 38.707031 0.140625 L 39.609375 0.652344 C 40.109375 0.929688 40.796875 1.554688 41.136719 2.039062 L 41.757812 2.921875 L 41.960938 18.039062 L 43.53125 18.152344 C 44.847656 18.246094 45.246094 18.363281 45.972656 18.875 C 46.449219 19.207031 47.070312 19.890625 47.347656 20.390625 C 47.839844 21.265625 47.859375 21.441406 47.921875 25.664062 L 47.988281 30.035156 L 46.589844 28.683594 C 44.84375 26.996094 43.898438 26.640625 42.507812 27.140625 C 41.699219 27.429688 41.53125 27.4375 41.167969 27.179688 C 40.597656 26.78125 40.175781 26.8125 39.546875 27.308594 C 38.976562 27.757812 38.832031 28.617188 39.214844 29.328125 C 39.691406 30.222656 38.910156 29.894531 37.585938 28.644531 C 36.03125 27.175781 35.050781 26.746094 33.804688 26.980469 C 33.175781 27.097656 32.542969 27.609375 30.308594 29.800781 C 28.808594 31.277344 27.445312 32.742188 27.277344 33.0625 C 26.972656 33.652344 26.867188 35.238281 27.105469 35.625 C 27.195312 35.769531 24.832031 35.835938 19.597656 35.835938 L 11.960938 35.835938 L 11.960938 38.363281 C 11.960938 39.753906 12.015625 41.035156 12.085938 41.21875 C 12.414062 42.074219 13.027344 42.140625 20.300781 42.140625 C 25.046875 42.140625 27.195312 42.210938 27.105469 42.355469 C 26.886719 42.707031 26.960938 44.3125 27.21875 44.820312 C 27.351562 45.082031 28.023438 45.867188 28.703125 46.566406 L 29.949219 47.835938 L 19.582031 47.828125 C 9.734375 47.820312 9.175781 47.800781 8.46875 47.425781 Z M 36.164062 14.292969 C 36.164062 10.148438 36.082031 7.378906 35.953125 7.035156 C 35.527344 5.917969 35.90625 5.953125 24 5.945312 L 12.957031 5.9375 L 12.457031 6.4375 L 11.960938 6.9375 L 11.960938 20.988281 L 36.164062 20.988281 Z M 36.164062 14.292969 "/>
<path style=" stroke:none;fill-rule:nonzero;fill:rgb(100%,100%,100%);fill-opacity:1;" d="M 18.023438 17.988281 C 19.734375 17.957031 22.480469 17.957031 24.125 17.992188 C 25.769531 18.023438 24.367188 18.050781 21.011719 18.050781 C 17.65625 18.050781 16.308594 18.023438 18.023438 17.988281 Z M 18.023438 17.988281 "/>
</g>
</svg>
