<?xml version="1.0" encoding="UTF-8"?>
<svg xmlns="http://www.w3.org/2000/svg" xmlns:xlink="http://www.w3.org/1999/xlink" width="48" height="48" viewBox="0 0 48 48" version="1.1">
<g id="surface1">
<path style=" stroke:none;fill-rule:nonzero;fill:rgb(100%,100%,100%);fill-opacity:1;" d="M 42.242188 38.730469 C 42.21875 38.601562 42.183594 38.476562 42.148438 38.355469 C 41.832031 36.957031 40.578125 35.976562 39.148438 36.011719 L 34.085938 36.011719 C 35.816406 34.863281 37.328125 33.460938 38.585938 31.792969 C 41.183594 28.324219 42.339844 24.195312 42.148438 20.167969 C 42.117188 19.59375 42.039062 19.050781 41.960938 18.480469 C 41.304688 13.914062 38.890625 9.546875 34.925781 6.574219 C 27.003906 0.628906 15.652344 2.304688 9.710938 10.230469 C 3.765625 18.15625 5.441406 29.503906 13.367188 35.449219 C 13.882812 35.820312 14.507812 36.015625 15.148438 36.011719 C 15.300781 36.023438 15.457031 36.023438 15.617188 36.011719 L 18.148438 36.011719 L 18.148438 33.292969 C 18.152344 33.199219 18.148438 33.105469 18.144531 33.011719 C 18.152344 32.050781 17.699219 31.144531 16.925781 30.574219 C 11.597656 26.574219 10.585938 19.121094 14.582031 13.792969 C 18.582031 8.460938 26.035156 7.449219 31.367188 11.449219 C 36.695312 15.445312 37.707031 22.898438 33.710938 28.230469 C 32.742188 29.519531 31.507812 30.539062 30.148438 31.324219 L 30.148438 27.011719 C 30.144531 25.351562 28.804688 24.011719 27.148438 24.011719 C 26.929688 23.988281 26.707031 23.988281 26.492188 24.011719 L 24.148438 24.011719 L 24.148438 42.011719 L 39.148438 42.011719 C 39.332031 42.027344 39.523438 42.027344 39.710938 42.011719 L 42.144531 42.011719 L 42.144531 39.574219 C 42.21875 39.296875 42.25 39.011719 42.242188 38.730469 Z M 42.242188 38.730469 "/>
</g>
</svg>
