<?xml version="1.0" encoding="UTF-8"?>
<svg xmlns="http://www.w3.org/2000/svg" xmlns:xlink="http://www.w3.org/1999/xlink" width="48" height="48" viewBox="0 0 48 48" version="1.1">
<g id="surface1">
<path style=" stroke:none;fill-rule:nonzero;fill:rgb(100%,100%,100%);fill-opacity:1;" d="M 23.25 3 C 18.058594 3.257812 13 5.761719 9.65625 10.21875 C 8.542969 11.703125 7.710938 13.332031 7.125 15 L 13.78125 15 C 14.019531 14.589844 14.238281 14.171875 14.53125 13.78125 C 18.527344 8.449219 25.980469 7.441406 31.3125 11.4375 C 36.644531 15.433594 37.65625 22.886719 33.65625 28.21875 C 32.691406 29.507812 31.457031 30.527344 30.09375 31.3125 L 30.09375 27 L 27.011719 27 L 27.09375 42 L 39.09375 42 C 39.28125 42.015625 39.46875 42.015625 39.65625 42 L 42.09375 42 L 42.09375 39.5625 C 42.164062 39.289062 42.195312 39.003906 42.1875 38.71875 C 42.164062 38.589844 42.132812 38.46875 42.09375 38.34375 C 41.792969 37 40.46875 35.964844 39.09375 36 L 34.03125 36 C 35.765625 34.851562 37.277344 33.453125 38.53125 31.78125 C 41.132812 28.3125 42.289062 24.1875 42.09375 20.15625 C 42.066406 19.582031 41.988281 19.039062 41.90625 18.46875 C 41.253906 13.902344 38.835938 9.535156 34.875 6.5625 C 31.410156 3.960938 27.289062 2.796875 23.25 3 Z M 23.25 3 "/>
<path style=" stroke:none;fill-rule:nonzero;fill:rgb(100%,100%,100%);fill-opacity:1;" d="M 12.089844 20.820312 C 8.824219 20.820312 6.089844 23.457031 6.089844 26.726562 L 6.089844 31.507812 L 9.089844 31.507812 L 9.089844 26.726562 C 9.089844 25.070312 10.453125 23.820312 12.089844 23.820312 C 13.726562 23.820312 14.996094 25.070312 14.996094 26.726562 L 14.996094 31.414062 L 17.996094 31.414062 L 17.996094 26.726562 C 17.996094 23.457031 15.355469 20.820312 12.089844 20.820312 Z M 12.089844 20.820312 "/>
<path style=" stroke:none;fill-rule:nonzero;fill:rgb(100%,100%,100%);fill-opacity:1;" d="M 3.210938 30 L 21.109375 30 L 21.109375 42.1875 L 3.210938 42.1875 Z M 3.210938 30 "/>
</g>
</svg>
