<?xml version="1.0" encoding="UTF-8"?>
<svg xmlns="http://www.w3.org/2000/svg" xmlns:xlink="http://www.w3.org/1999/xlink" width="48" height="48" viewBox="0 0 48 48" version="1.1">
<g id="surface1">
<path style=" stroke:none;fill-rule:nonzero;fill:rgb(100%,100%,100%);fill-opacity:1;" d="M 6 3 L 6 24 C 6 30.214844 10.53125 35.042969 14.53125 38.625 C 18.535156 42.207031 22.5 44.625 22.5 44.625 L 24 45.46875 L 25.59375 44.53125 C 25.59375 44.53125 29.476562 42.140625 33.46875 38.53125 C 37.460938 34.902344 41.988281 30.101562 41.988281 23.980469 L 41.988281 2.980469 L 5.988281 2.980469 Z M 12 9 L 36 9 L 36 24 C 36 26.757812 33.039062 30.953125 29.53125 34.125 C 26.8125 36.578125 25.09375 37.542969 24 38.25 C 22.9375 37.582031 21.214844 36.675781 18.46875 34.21875 C 14.960938 31.066406 11.988281 26.929688 11.988281 23.988281 L 11.988281 8.988281 Z M 12 9 "/>
</g>
</svg>
