<?xml version="1.0" encoding="UTF-8"?>
<svg xmlns="http://www.w3.org/2000/svg" xmlns:xlink="http://www.w3.org/1999/xlink" width="48" height="48" viewBox="0 0 48 48" version="1.1">
<g id="surface1">
<path style=" stroke:none;fill-rule:nonzero;fill:rgb(100%,100%,100%);fill-opacity:1;" d="M 24.773438 2 C 18.363281 2 13.78125 5.824219 13.78125 12.078125 L 13.78125 17.574219 L 18.363281 17.574219 L 18.363281 13.910156 C 18.363281 12.078125 18.363281 6.582031 24.773438 6.582031 L 25.691406 6.582031 C 32.101562 6.582031 32.101562 12.078125 32.101562 13.910156 L 32.101562 17.574219 L 36.683594 17.574219 L 36.683594 12.078125 C 36.683594 5.664062 32.101562 2 25.691406 2 Z M 11.921875 24.929688 C 10.089844 24.929688 9.175781 25.847656 9.175781 27.679688 L 9.175781 43.253906 C 9.175781 44.148438 10.089844 46 11.921875 46 L 38.832031 46 C 40.3125 45.992188 41.234375 44.148438 41.234375 43.253906 L 41.234375 27.679688 C 41.234375 25.847656 40.320312 24.929688 38.488281 24.929688 Z M 11.921875 24.929688 "/>
</g>
</svg>
