<?xml version="1.0" encoding="UTF-8"?>
<svg xmlns="http://www.w3.org/2000/svg" xmlns:xlink="http://www.w3.org/1999/xlink" width="48" height="48" viewBox="0 0 48 48" version="1.1">
<g id="surface1">
<path style=" stroke:none;fill-rule:evenodd;fill:rgb(100%,100%,100%);fill-opacity:1;" d="M 24 0.179688 L 17.25 10.398438 L 6.9375 6.929688 L 10.40625 17.242188 L 0.1875 23.992188 L 10.40625 30.742188 L 6.9375 41.054688 L 17.25 37.585938 L 24 47.804688 L 30.75 37.585938 L 41.0625 41.054688 L 37.59375 30.742188 L 47.8125 23.992188 L 37.59375 17.242188 L 41.0625 6.929688 L 30.75 10.398438 Z M 24 13.773438 L 26.15625 15.835938 L 32.15625 21.835938 C 32.828125 22.515625 33.152344 23.519531 33 24.460938 L 33 26.992188 L 30.375 26.992188 C 29.460938 27.113281 28.5 26.792969 27.84375 26.148438 L 27 25.304688 L 27 32.992188 L 21 32.992188 L 21 25.304688 L 20.15625 26.148438 C 19.582031 26.695312 18.789062 27.007812 18 26.992188 L 15 26.992188 L 15 24.648438 C 14.996094 24.554688 14.996094 24.460938 15 24.367188 C 14.878906 23.453125 15.199219 22.492188 15.84375 21.835938 L 21.84375 15.835938 Z M 24 13.773438 "/>
</g>
</svg>
