<?xml version="1.0" encoding="UTF-8"?>
<svg xmlns="http://www.w3.org/2000/svg" xmlns:xlink="http://www.w3.org/1999/xlink" width="48" height="48" viewBox="0 0 48 48" version="1.1">
<g id="surface1">
<path style=" stroke:none;fill-rule:evenodd;fill:rgb(96.078431%,47.45098%,0%);fill-opacity:1;" d="M 24 0.179688 L 17.207031 10.417969 L 6.96875 6.972656 L 10.414062 17.210938 L 0.175781 24.007812 L 10.414062 30.800781 L 6.96875 41.039062 L 17.207031 37.59375 L 24 47.832031 L 30.792969 37.59375 L 41.03125 41.039062 L 37.585938 30.800781 L 47.824219 24.007812 L 37.585938 17.210938 L 41.03125 6.972656 L 30.792969 10.417969 Z M 21.023438 12.277344 L 26.976562 12.277344 L 26.976562 27.078125 L 21.023438 27.078125 Z M 24.09375 29.21875 C 26.199219 29.21875 27.90625 30.925781 27.90625 33.035156 C 27.90625 35.140625 26.199219 36.851562 24.09375 36.851562 C 21.984375 36.851562 20.277344 35.140625 20.277344 33.035156 C 20.277344 30.925781 21.984375 29.21875 24.09375 29.21875 Z M 24.09375 29.21875 "/>
</g>
</svg>
