<?xml version="1.0" encoding="UTF-8"?>
<svg xmlns="http://www.w3.org/2000/svg" xmlns:xlink="http://www.w3.org/1999/xlink" width="48" height="48" viewBox="0 0 48 48" version="1.1">
<g id="surface1">
<path style=" stroke:none;fill-rule:nonzero;fill:rgb(74.509804%,74.509804%,74.509804%);fill-opacity:1;" d="M 2.910156 7.5 L 2.910156 43.40625 C 2.910156 48 7.410156 48 7.410156 48 L 20.910156 48 L 20.910156 42 L 8.910156 42 L 8.910156 9 L 11.910156 9 L 11.910156 3 L 7.410156 3 C 7.410156 3 2.910156 3 2.910156 7.5 Z M 32.910156 3 L 32.910156 9 L 36.003906 9 L 36.003906 21.09375 L 41.910156 21 L 41.910156 7.5 C 41.910156 3 37.410156 3 37.410156 3 Z M 12.097656 15.09375 L 12.097656 36 L 20.910156 36 L 20.910156 26.992188 C 20.910156 26.992188 20.910156 21 26.910156 21 L 32.910156 21 L 32.910156 15 Z M 12.097656 15.09375 "/>
<path style=" stroke:none;fill-rule:nonzero;fill:rgb(74.509804%,74.509804%,74.509804%);fill-opacity:1;" d="M 16.5 0 L 28.40625 0 C 29.234375 0 29.90625 0.671875 29.90625 1.5 L 29.90625 10.5 C 29.90625 11.328125 29.234375 12 28.40625 12 L 16.5 12 C 15.671875 12 15 11.328125 15 10.5 L 15 1.5 C 15 0.671875 15.671875 0 16.5 0 Z M 16.5 0 "/>
<path style=" stroke:none;fill-rule:nonzero;fill:rgb(96.078431%,47.45098%,0%);fill-opacity:1;" d="M 26.910156 24 C 23.910156 24 23.910156 27 23.910156 27 L 23.910156 45 C 23.910156 45 23.910156 48 26.910156 48 L 44.910156 48 C 47.910156 48 47.910156 45 47.910156 45 L 47.910156 27 C 47.910156 24 44.910156 24 44.910156 24 Z M 32.910156 27 L 39.003906 27 L 39.003906 39 L 32.910156 39 Z M 32.910156 42 L 39.003906 42 L 38.910156 45 L 32.910156 45 Z M 32.910156 42 "/>
<path style=" stroke:none;fill-rule:nonzero;fill:rgb(100%,100%,100%);fill-opacity:1;" d="M 15.535156 11.519531 C 15.023438 11.007812 14.984375 10.554688 15.050781 5.558594 C 15.109375 0.855469 15.117188 0.8125 15.59375 0.429688 C 16.042969 0.0664062 16.476562 0.0390625 22.464844 0.0390625 L 28.859375 0.0390625 L 29.859375 1.039062 L 29.859375 6.03125 C 29.859375 10.753906 29.835938 11.046875 29.449219 11.429688 C 29.0625 11.820312 28.773438 11.835938 22.449219 11.835938 C 16.726562 11.835938 15.808594 11.796875 15.535156 11.519531 Z M 15.535156 11.519531 "/>
<path style=" stroke:none;fill-rule:nonzero;fill:rgb(100%,100%,100%);fill-opacity:1;" d="M 12.164062 25.464844 L 12.164062 15.089844 L 32.910156 15.089844 L 32.910156 20.960938 L 28.890625 21.023438 C 24.296875 21.101562 23.867188 21.222656 22.390625 22.902344 C 21.050781 24.425781 20.910156 25.195312 20.910156 30.878906 L 20.910156 35.835938 L 12.164062 35.835938 Z M 12.164062 25.464844 "/>
<path style=" stroke:none;fill-rule:nonzero;fill:rgb(100%,100%,100%);fill-opacity:1;" d="M 5.664062 47.570312 C 4.699219 47.265625 3.484375 45.996094 3.222656 45.019531 C 3.074219 44.464844 3.019531 38.183594 3.058594 25.125 C 3.109375 6.210938 3.117188 6.035156 3.539062 5.226562 C 3.800781 4.722656 4.332031 4.183594 4.945312 3.804688 C 5.898438 3.210938 6.011719 3.191406 8.839844 3.125 L 11.757812 3.054688 L 11.757812 8.988281 L 8.910156 8.988281 L 8.910156 42.140625 L 20.910156 42.140625 L 20.910156 47.835938 L 13.636719 47.816406 C 8.964844 47.804688 6.113281 47.714844 5.664062 47.570312 Z M 5.664062 47.570312 "/>
<path style=" stroke:none;fill-rule:nonzero;fill:rgb(100%,100%,100%);fill-opacity:1;" d="M 36.164062 14.988281 L 36.164062 8.988281 L 32.910156 8.988281 L 32.910156 3.089844 L 35.515625 3.089844 C 38.652344 3.089844 39.683594 3.375 40.714844 4.515625 C 41.105469 4.949219 41.519531 5.648438 41.640625 6.078125 C 41.773438 6.554688 41.855469 9.566406 41.855469 13.921875 L 41.859375 20.988281 L 36.164062 20.988281 Z M 36.164062 14.988281 "/>
</g>
</svg>
