<?xml version="1.0" encoding="UTF-8"?>
<svg xmlns="http://www.w3.org/2000/svg" xmlns:xlink="http://www.w3.org/1999/xlink" width="48" height="48" viewBox="0 0 48 48" version="1.1">
<g id="surface1">
<path style=" stroke:none;fill-rule:nonzero;fill:rgb(100%,100%,100%);fill-opacity:1;" d="M 20.332031 4.792969 C 10.214844 4.792969 2 13.003906 2 23.125 C 2 33.246094 10.214844 41.457031 20.332031 41.457031 C 25.136719 41.457031 29.515625 39.59375 32.785156 36.570312 L 46 36.570312 L 37.828125 28.394531 C 38.335938 26.714844 38.664062 24.96875 38.664062 23.125 C 38.664062 13.003906 30.453125 4.792969 20.332031 4.792969 Z M 20.332031 12.125 C 26.40625 12.125 31.332031 17.050781 31.332031 23.125 C 31.332031 29.195312 26.40625 34.125 20.332031 34.125 C 14.261719 34.125 9.335938 29.195312 9.335938 23.125 C 9.335938 17.050781 14.261719 12.125 20.332031 12.125 Z M 19.953125 15.792969 C 19.429688 15.960938 19.085938 16.464844 19.113281 17.011719 L 19.113281 23.125 C 19.113281 23.800781 19.65625 24.34375 20.332031 24.347656 L 24.609375 24.347656 C 25.050781 24.351562 25.460938 24.121094 25.683594 23.742188 C 25.90625 23.359375 25.90625 22.886719 25.683594 22.507812 C 25.460938 22.128906 25.050781 21.898438 24.609375 21.902344 L 21.554688 21.902344 L 21.554688 17.011719 C 21.5625 16.644531 21.402344 16.292969 21.121094 16.054688 C 20.839844 15.820312 20.464844 15.722656 20.105469 15.792969 C 20.054688 15.789062 20.003906 15.789062 19.953125 15.792969 Z M 19.953125 15.792969 "/>
</g>
</svg>
