<?xml version="1.0" encoding="UTF-8"?>
<svg xmlns="http://www.w3.org/2000/svg" xmlns:xlink="http://www.w3.org/1999/xlink" width="48" height="48" viewBox="0 0 48 48" version="1.1">
<g id="surface1">
<path style=" stroke:none;fill-rule:nonzero;fill:rgb(100%,100%,100%);fill-opacity:1;" d="M 39 45 L 39 31.5 L 28.5 31.5 Z M 39 45 "/>
<path style=" stroke:none;fill-rule:nonzero;fill:rgb(100%,100%,100%);fill-opacity:1;" d="M 10.5 3 C 6.34375 3 3 6.34375 3 10.5 L 3 25.5 C 3 29.65625 6.34375 33 10.5 33 L 37.5 33 C 41.65625 33 45 29.65625 45 25.5 L 45 10.5 C 45 6.34375 41.65625 3 37.5 3 Z M 24 9 L 27 9 C 27.828125 9 28.613281 9.300781 29.15625 9.84375 L 35.15625 15.84375 L 37.21875 18 L 35.15625 20.15625 L 29.15625 26.15625 C 28.617188 26.695312 27.835938 26.996094 26.996094 26.996094 L 23.996094 26.996094 L 23.996094 23.996094 C 23.996094 23.167969 24.296875 22.382812 24.839844 21.839844 L 25.679688 21 L 11.992188 21 L 11.992188 15 L 25.679688 15 L 24.835938 14.15625 C 24.296875 13.617188 23.996094 12.835938 23.996094 11.996094 L 23.996094 8.996094 Z M 24 9 "/>
</g>
</svg>
