<?xml version="1.0" encoding="UTF-8"?>
<svg xmlns="http://www.w3.org/2000/svg" xmlns:xlink="http://www.w3.org/1999/xlink" width="48" height="48" viewBox="0 0 48 48" version="1.1">
<g id="surface1">
<path style=" stroke:none;fill-rule:nonzero;fill:rgb(100%,100%,100%);fill-opacity:1;" d="M 12 6 L 12 3.09375 L 33 3.09375 L 33 6 Z M 10.40625 0.09375 C 8.9375 0.09375 8.019531 0.78125 7.3125 1.5 C 6.605469 2.21875 6 3.175781 6 4.59375 L 6 6 L 0 6 L 0 12 L 45 12 L 45 6 L 39 6 L 39 4.875 C 38.929688 3.582031 38.488281 2.617188 37.78125 1.78125 C 37.109375 0.988281 35.902344 0.195312 34.3125 0.1875 L 34.3125 0.09375 Z M 35.996094 15.003906 L 41.996094 15.003906 C 47.015625 23.785156 45.410156 32.566406 41.996094 41.347656 C 40.707031 44.707031 39.054688 48.007812 35.425781 48.007812 L 9.550781 48.007812 C 5.9375 48.007812 4.222656 44.734375 2.988281 41.351562 C -0.136719 32.765625 -1.808594 24.085938 2.988281 15.007812 L 8.988281 15.007812 C 3.824219 23.851562 6.035156 32.917969 8.988281 42.007812 L 35.988281 42.007812 C 39.277344 32.90625 40.882812 23.859375 35.988281 15.007812 Z M 21.089844 14.953125 L 21.089844 39.003906 L 23.996094 39.003906 L 23.996094 14.953125 Z M 26.996094 14.953125 C 32.28125 21.625 29.488281 31.847656 26.996094 39.003906 L 29.996094 39.003906 C 32.472656 32.078125 35.515625 22.121094 29.996094 14.953125 Z M 15.089844 14.953125 C 9.640625 22.78125 12.523438 32.390625 15.089844 39.003906 L 17.996094 39.003906 C 15.398438 32.335938 13.007812 22.597656 17.996094 14.953125 Z M 15.089844 14.953125 "/>
</g>
</svg>
