<?xml version="1.0" encoding="UTF-8"?>
<svg xmlns="http://www.w3.org/2000/svg" xmlns:xlink="http://www.w3.org/1999/xlink" width="48" height="48" viewBox="0 0 48 48" version="1.1">
<g id="surface1">
<path style=" stroke:none;fill-rule:nonzero;fill:rgb(100%,100%,100%);fill-opacity:1;" d="M 39 45 L 39 31.5 L 28.5 31.5 Z M 39 45 "/>
<path style=" stroke:none;fill-rule:nonzero;fill:rgb(100%,100%,100%);fill-opacity:1;" d="M 10.5 3 C 6.34375 3 3 6.34375 3 10.5 L 3 25.5 C 3 29.65625 6.34375 33 10.5 33 L 37.5 33 C 41.65625 33 45 29.65625 45 25.5 L 45 10.5 C 45 6.34375 41.65625 3 37.5 3 Z M 15 9 L 18 9 C 18.828125 9 19.613281 9.300781 20.15625 9.84375 L 24 13.6875 L 27.84375 9.84375 C 28.386719 9.304688 29.171875 9.003906 30 9.003906 L 33 9.003906 L 33 12.003906 C 33 12.832031 32.699219 13.617188 32.15625 14.160156 L 28.3125 18 L 32.15625 21.84375 C 32.699219 22.386719 33 23.171875 33 24 L 33 27 L 30 27 C 29.171875 27 28.386719 26.699219 27.84375 26.15625 L 24 22.3125 L 20.15625 26.15625 C 19.613281 26.695312 18.828125 26.996094 18 26.996094 L 15 26.996094 L 15 23.996094 C 15 23.167969 15.300781 22.382812 15.84375 21.839844 L 19.691406 18 L 15.84375 14.160156 C 15.300781 13.621094 15 12.839844 15 12 Z M 15 9 "/>
</g>
</svg>
