<?xml version="1.0" encoding="UTF-8"?>
<svg xmlns="http://www.w3.org/2000/svg" xmlns:xlink="http://www.w3.org/1999/xlink" width="48" height="48" viewBox="0 0 48 48" version="1.1">
<g id="surface1">
<path style=" stroke:none;fill-rule:nonzero;fill:rgb(74.509804%,74.509804%,74.509804%);fill-opacity:1;" d="M 29.339844 15 C 28.21875 15.203125 27.3125 16.019531 26.992188 17.113281 C 26.675781 18.207031 27.003906 19.382812 27.839844 20.15625 L 33.839844 26.15625 L 35.996094 28.21875 L 38.152344 26.15625 L 44.152344 20.15625 C 44.933594 19.390625 45.242188 18.261719 44.960938 17.203125 C 44.679688 16.140625 43.855469 15.316406 42.796875 15.035156 C 41.734375 14.753906 40.609375 15.0625 39.839844 15.84375 L 36 19.683594 L 32.160156 15.84375 C 31.429688 15.089844 30.363281 14.773438 29.339844 15.003906 Z M 29.339844 15 "/>
<path style=" stroke:none;fill-rule:nonzero;fill:rgb(74.509804%,74.509804%,74.509804%);fill-opacity:1;" d="M 18 3 C 13.066406 3 9 7.066406 9 12 L 9 36 C 9 40.933594 13.066406 45 18 45 L 30 45 L 30 39 L 18 39 C 16.285156 39 15 37.714844 15 36 L 15 12 C 15 10.285156 16.285156 9 18 9 L 30 9 C 31.714844 9 33 10.285156 33 12 L 33 24 L 39 24 L 39 12 C 39 7.066406 34.933594 3 30 3 Z M 18 3 "/>
<path style=" stroke:none;fill-rule:nonzero;fill:rgb(74.509804%,74.509804%,74.509804%);fill-opacity:1;" d="M 27 18 L 27 15 L 30 15 L 30 18 Z M 27 18 "/>
<path style=" stroke:none;fill-rule:nonzero;fill:rgb(74.509804%,74.509804%,74.509804%);fill-opacity:1;" d="M 42 18 L 42 15 L 45 15 L 45 18 Z M 42 18 "/>
<path style=" stroke:none;fill-rule:nonzero;fill:rgb(100%,100%,100%);fill-opacity:1;" d="M 16.078125 44.679688 C 13.425781 44.105469 11.203125 42.300781 9.949219 39.703125 L 9.214844 38.175781 L 9.214844 9.90625 L 9.667969 8.785156 C 10.589844 6.527344 12.554688 4.566406 14.804688 3.652344 C 15.882812 3.214844 16.207031 3.195312 23.511719 3.132812 C 30.078125 3.078125 31.253906 3.113281 32.257812 3.402344 C 34.007812 3.90625 35.265625 4.675781 36.464844 5.972656 C 38.433594 8.097656 39 9.984375 39.007812 14.472656 L 39.011719 16.800781 L 39.773438 16.058594 C 40.660156 15.195312 41.535156 14.960938 43.535156 15.050781 L 44.910156 15.109375 L 44.910156 16.941406 C 44.910156 18.140625 44.808594 18.960938 44.617188 19.320312 C 44.457031 19.625 42.449219 21.742188 40.152344 24.03125 L 35.976562 28.1875 L 31.78125 24.03125 C 29.472656 21.742188 27.457031 19.625 27.296875 19.320312 C 27.109375 18.964844 27.011719 18.125 27.011719 16.933594 L 27.011719 15.089844 L 28.382812 15.0625 C 30.925781 15.003906 31.304688 15.113281 32.550781 16.273438 L 33.113281 16.792969 L 33.105469 14.164062 C 33.101562 11.121094 32.789062 10.101562 31.648438 9.398438 C 31 9 30.714844 8.984375 23.808594 9.039062 L 16.644531 9.089844 L 15.878906 9.859375 L 15.113281 10.625 L 15.058594 23.804688 L 15 36.984375 L 15.46875 37.683594 C 16.382812 39.050781 16.617188 39.089844 23.601562 39.089844 L 29.859375 39.089844 L 29.859375 44.988281 L 23.601562 44.972656 C 19.148438 44.960938 16.984375 44.878906 16.078125 44.679688 Z M 16.078125 44.679688 "/>
</g>
</svg>
