<?xml version="1.0" encoding="UTF-8"?>
<svg xmlns="http://www.w3.org/2000/svg" xmlns:xlink="http://www.w3.org/1999/xlink" width="48" height="48" viewBox="0 0 48 48" version="1.1">
<g id="surface1">
<path style=" stroke:none;fill-rule:nonzero;fill:rgb(100%,100%,100%);fill-opacity:1;" d="M 5.339844 15 C 4.21875 15.203125 3.3125 16.019531 2.992188 17.113281 C 2.675781 18.207031 3.003906 19.382812 3.839844 20.15625 L 9.839844 26.15625 L 11.996094 28.21875 L 14.152344 26.15625 L 20.152344 20.15625 C 20.933594 19.390625 21.242188 18.261719 20.960938 17.203125 C 20.679688 16.140625 19.855469 15.316406 18.796875 15.035156 C 17.734375 14.753906 16.609375 15.0625 15.839844 15.84375 L 12 19.683594 L 8.160156 15.84375 C 7.429688 15.089844 6.363281 14.773438 5.339844 15.003906 Z M 5.339844 15 "/>
<path style=" stroke:none;fill-rule:nonzero;fill:rgb(100%,100%,100%);fill-opacity:1;" d="M 18 3 C 13.066406 3 9 7.066406 9 12 L 9 24 L 15 24 L 15 12 C 15 10.285156 16.285156 9 18 9 L 30 9 C 31.714844 9 33 10.285156 33 12 L 33 36 C 33 37.714844 31.714844 39 30 39 L 18 39 L 18 45 L 30 45 C 34.933594 45 39 40.933594 39 36 L 39 12 C 39 7.066406 34.933594 3 30 3 Z M 18 3 "/>
<path style=" stroke:none;fill-rule:nonzero;fill:rgb(100%,100%,100%);fill-opacity:1;" d="M 21 18 L 21 15 L 18 15 L 18 18 Z M 21 18 "/>
<path style=" stroke:none;fill-rule:nonzero;fill:rgb(100%,100%,100%);fill-opacity:1;" d="M 6 18 L 6 15 L 3 15 L 3 18 Z M 6 18 "/>
</g>
</svg>
