<?xml version="1.0" encoding="UTF-8"?>
<svg xmlns="http://www.w3.org/2000/svg" xmlns:xlink="http://www.w3.org/1999/xlink" width="48" height="48" viewBox="0 0 48 48" version="1.1">
<g id="surface1">
<path style=" stroke:none;fill-rule:nonzero;fill:rgb(74.509804%,74.509804%,74.509804%);fill-opacity:1;" d="M 28.410156 0 C 24.589844 0 21.488281 2.917969 21.066406 6.65625 C 20.074219 6.296875 19.085938 5.996094 17.976562 5.996094 C 13.046875 5.996094 9.050781 10.027344 9.050781 14.996094 C 9.050781 15.292969 9.117188 15.550781 9.140625 15.839844 C 8.242188 15.300781 7.191406 15 6.082031 15 C 2.796875 15 0.132812 17.6875 0.132812 21 C 0.132812 24.3125 2.796875 27 6.082031 27 L 43.273438 27 C 45.734375 27 47.734375 24.984375 47.734375 22.5 C 47.734375 20.015625 45.734375 18 43.273438 18 C 42.65625 18 42.039062 18.148438 41.503906 18.375 C 41.660156 17.769531 41.78125 17.15625 41.78125 16.5 C 41.78125 12.8125 39.125 9.816406 35.648438 9.1875 C 35.773438 8.644531 35.832031 8.082031 35.832031 7.5 C 35.832031 3.359375 32.503906 0 28.394531 0 Z M 28.410156 0 "/>
<path style=" stroke:none;fill-rule:nonzero;fill:rgb(0%,100%,100%);fill-opacity:1;" d="M 7.230469 30 C 6.597656 30.101562 6.101562 30.597656 6 31.230469 L 3 45.949219 C 2.832031 46.492188 2.992188 47.085938 3.410156 47.472656 C 3.824219 47.863281 4.425781 47.980469 4.957031 47.773438 C 5.492188 47.570312 5.859375 47.078125 5.90625 46.511719 L 8.90625 31.792969 C 9.015625 31.3125 8.878906 30.808594 8.542969 30.449219 C 8.207031 30.085938 7.714844 29.917969 7.226562 29.992188 Z M 7.230469 30 "/>
<path style=" stroke:none;fill-rule:nonzero;fill:rgb(0%,100%,100%);fill-opacity:1;" d="M 13.230469 30 C 12.597656 30.101562 12.101562 30.597656 12 31.230469 L 9 45.949219 C 8.832031 46.492188 8.992188 47.085938 9.410156 47.472656 C 9.824219 47.863281 10.425781 47.980469 10.957031 47.773438 C 11.492188 47.570312 11.859375 47.078125 11.90625 46.511719 L 14.996094 31.75 C 15.105469 31.257812 14.953125 30.742188 14.59375 30.382812 C 14.238281 30.023438 13.722656 29.875 13.226562 29.980469 Z M 13.230469 30 "/>
<path style=" stroke:none;fill-rule:nonzero;fill:rgb(0%,100%,100%);fill-opacity:1;" d="M 19.230469 30 C 18.597656 30.101562 18.101562 30.597656 18 31.230469 L 15 45.949219 C 14.84375 46.777344 15.390625 47.574219 16.21875 47.730469 C 17.046875 47.886719 17.84375 47.339844 18 46.511719 L 21 31.792969 C 21.121094 31.292969 20.972656 30.765625 20.613281 30.402344 C 20.253906 30.035156 19.730469 29.882812 19.230469 29.992188 Z M 19.230469 30 "/>
<path style=" stroke:none;fill-rule:nonzero;fill:rgb(0%,100%,100%);fill-opacity:1;" d="M 25.230469 30 C 24.597656 30.101562 24.101562 30.597656 24 31.230469 L 21 45.949219 C 20.84375 46.777344 21.390625 47.574219 22.21875 47.730469 C 23.046875 47.886719 23.84375 47.339844 24 46.511719 L 27 31.792969 C 27.121094 31.292969 26.972656 30.765625 26.613281 30.402344 C 26.253906 30.035156 25.730469 29.882812 25.230469 29.992188 Z M 25.230469 30 "/>
<path style=" stroke:none;fill-rule:nonzero;fill:rgb(0%,100%,100%);fill-opacity:1;" d="M 31.230469 30 C 30.644531 30.140625 30.199219 30.621094 30.105469 31.21875 L 26.984375 45.917969 C 26.828125 46.746094 27.375 47.542969 28.203125 47.699219 C 29.03125 47.855469 29.828125 47.308594 29.984375 46.480469 L 32.984375 31.761719 C 33.09375 31.269531 32.941406 30.753906 32.582031 30.394531 C 32.226562 30.035156 31.710938 29.886719 31.214844 29.992188 Z M 31.230469 30 "/>
<path style=" stroke:none;fill-rule:nonzero;fill:rgb(0%,100%,100%);fill-opacity:1;" d="M 37.230469 30 C 36.644531 30.140625 36.199219 30.621094 36.105469 31.21875 L 33.105469 45.9375 C 32.894531 46.492188 33.035156 47.121094 33.460938 47.535156 C 33.890625 47.949219 34.523438 48.070312 35.074219 47.839844 C 35.621094 47.609375 35.980469 47.074219 35.984375 46.476562 L 38.984375 31.757812 C 39.09375 31.265625 38.941406 30.75 38.582031 30.390625 C 38.226562 30.035156 37.710938 29.882812 37.214844 29.988281 Z M 37.230469 30 "/>
</g>
</svg>
