<?xml version="1.0" encoding="UTF-8"?>
<svg xmlns="http://www.w3.org/2000/svg" xmlns:xlink="http://www.w3.org/1999/xlink" width="48" height="48" viewBox="0 0 48 48" version="1.1">
<g id="surface1">
<path style=" stroke:none;fill-rule:nonzero;fill:rgb(74.509804%,74.509804%,74.509804%);fill-opacity:1;" d="M 28.5 12 C 24.648438 12 21.519531 14.917969 21.09375 18.65625 C 20.101562 18.296875 19.113281 17.996094 18.003906 17.996094 C 13.03125 17.996094 9.003906 22.023438 9.003906 26.996094 C 9.003906 27.292969 9.070312 27.550781 9.097656 27.839844 C 8.199219 27.300781 7.117188 27 6.007812 27 C 2.695312 27 0.0078125 29.6875 0.0078125 33 C 0.0078125 36.3125 2.695312 39 6.007812 39 L 43.507812 39 C 45.992188 39 48.007812 36.984375 48.007812 34.5 C 48.007812 32.015625 45.992188 30 43.507812 30 C 42.886719 30 42.265625 30.148438 41.726562 30.375 C 41.882812 29.769531 42.007812 29.15625 42.007812 28.5 C 42.007812 24.8125 39.328125 21.816406 35.820312 21.1875 C 35.945312 20.644531 36.007812 20.082031 36.007812 19.5 C 36.007812 15.359375 32.648438 12 28.507812 12 Z M 28.5 12 "/>
</g>
</svg>
