<?xml version="1.0" encoding="UTF-8"?>
<svg xmlns="http://www.w3.org/2000/svg" xmlns:xlink="http://www.w3.org/1999/xlink" width="48" height="48" viewBox="0 0 48 48" version="1.1">
<g id="surface1">
<path style=" stroke:none;fill-rule:nonzero;fill:rgb(74.509804%,74.509804%,74.509804%);fill-opacity:1;" d="M 24 9 C 15.75 9 9 15.75 9 24 C 9 29.351562 11.871094 34.089844 16.125 36.75 C 16.628906 36.523438 17.171875 36.332031 17.71875 36.1875 C 18.40625 30.738281 22.875 26.4375 28.5 26.4375 C 31.507812 26.4375 34.015625 27.859375 36 29.8125 C 36.527344 29.710938 36.921875 29.4375 37.5 29.4375 C 37.628906 29.4375 37.746094 29.429688 37.875 29.4375 C 38.546875 27.738281 39 25.929688 39 24 C 39 15.75 32.25 9 24 9 Z M 24 9 "/>
<path style=" stroke:none;fill-rule:nonzero;fill:rgb(74.509804%,74.509804%,74.509804%);fill-opacity:1;" d="M 1.6875 21 L 4.3125 21 C 5.242188 21 6 21.757812 6 22.6875 L 6 25.3125 C 6 26.242188 5.242188 27 4.3125 27 L 1.6875 27 C 0.757812 27 0 26.242188 0 25.3125 L 0 22.6875 C 0 21.757812 0.757812 21 1.6875 21 Z M 1.6875 21 "/>
<path style=" stroke:none;fill-rule:nonzero;fill:rgb(74.509804%,74.509804%,74.509804%);fill-opacity:1;" d="M 43.6875 21 L 46.3125 21 C 47.242188 21 48 21.757812 48 22.6875 L 48 25.3125 C 48 26.242188 47.242188 27 46.3125 27 L 43.6875 27 C 42.757812 27 42 26.242188 42 25.3125 L 42 22.6875 C 42 21.757812 42.757812 21 43.6875 21 Z M 43.6875 21 "/>
<path style=" stroke:none;fill-rule:nonzero;fill:rgb(74.509804%,74.509804%,74.509804%);fill-opacity:1;" d="M 27 1.6875 L 27 4.3125 C 27 5.242188 26.242188 6 25.3125 6 L 22.6875 6 C 21.757812 6 21 5.242188 21 4.3125 L 21 1.6875 C 21 0.757812 21.757812 0 22.6875 0 L 25.3125 0 C 26.242188 0 27 0.757812 27 1.6875 Z M 27 1.6875 "/>
<path style=" stroke:none;fill-rule:nonzero;fill:rgb(74.509804%,74.509804%,74.509804%);fill-opacity:1;" d="M 41.902344 10.332031 L 40.042969 12.1875 C 39.386719 12.847656 38.316406 12.847656 37.65625 12.1875 L 35.800781 10.332031 C 35.144531 9.671875 35.144531 8.605469 35.800781 7.945312 L 37.65625 6.089844 C 38.316406 5.429688 39.386719 5.429688 40.042969 6.089844 L 41.902344 7.945312 C 42.5625 8.605469 42.5625 9.671875 41.902344 10.332031 Z M 41.902344 10.332031 "/>
<path style=" stroke:none;fill-rule:nonzero;fill:rgb(74.509804%,74.509804%,74.509804%);fill-opacity:1;" d="M 12.203125 40.03125 L 10.347656 41.890625 C 9.6875 42.546875 8.621094 42.546875 7.960938 41.890625 L 6.105469 40.03125 C 5.445312 39.375 5.445312 38.304688 6.105469 37.644531 L 7.960938 35.789062 C 8.621094 35.128906 9.6875 35.128906 10.347656 35.789062 L 12.203125 37.644531 C 12.859375 38.304688 12.859375 39.375 12.203125 40.03125 Z M 12.203125 40.03125 "/>
<path style=" stroke:none;fill-rule:nonzero;fill:rgb(74.509804%,74.509804%,74.509804%);fill-opacity:1;" d="M 10.332031 6.105469 L 12.1875 7.960938 C 12.847656 8.621094 12.847656 9.6875 12.1875 10.347656 L 10.332031 12.203125 C 9.671875 12.863281 8.605469 12.863281 7.945312 12.203125 L 6.089844 10.347656 C 5.429688 9.6875 5.429688 8.621094 6.089844 7.960938 L 7.945312 6.105469 C 8.605469 5.445312 9.671875 5.445312 10.332031 6.105469 Z M 10.332031 6.105469 "/>
<path style=" stroke:none;fill-rule:nonzero;fill:rgb(74.509804%,74.509804%,74.509804%);fill-opacity:1;" d="M 28.5 30 C 24.359375 30 21 33.359375 21 37.5 C 21 38.15625 21.125 38.769531 21.28125 39.375 C 20.742188 39.164062 20.140625 39.015625 19.511719 39.015625 C 17.027344 39.015625 15.011719 41.03125 15.011719 43.515625 C 15.011719 46 17.027344 48.015625 19.511719 48.015625 L 43.511719 48.015625 C 45.996094 48.015625 48.011719 46 48.011719 43.515625 C 48.011719 41.03125 45.996094 39.015625 43.511719 39.015625 C 43.511719 35.703125 40.824219 33.015625 37.511719 33.015625 C 36.5625 33.015625 35.683594 33.28125 34.886719 33.671875 C 33.597656 31.480469 31.253906 30.011719 28.527344 30.011719 Z M 28.5 30 "/>
<path style=" stroke:none;fill-rule:nonzero;fill:rgb(100%,100%,0%);fill-opacity:1;" d="M 15.535156 36.328125 C 12.882812 34.5 10.882812 31.851562 9.816406 28.761719 C 8.742188 25.640625 8.773438 22.039062 9.90625 18.953125 C 10.230469 18.066406 10.972656 16.582031 11.464844 15.839844 C 13.566406 12.660156 16.667969 10.4375 20.304688 9.496094 C 22.378906 8.960938 24.65625 8.886719 26.773438 9.285156 C 32.441406 10.355469 37.066406 14.707031 38.503906 20.320312 C 38.792969 21.445312 38.90625 22.257812 38.949219 23.484375 C 39.007812 25.207031 38.789062 26.671875 38.210938 28.402344 L 37.886719 29.367188 L 37.484375 29.414062 C 37.257812 29.4375 36.859375 29.527344 36.597656 29.613281 C 36.335938 29.699219 36.085938 29.769531 36.050781 29.769531 C 36.011719 29.769531 35.800781 29.597656 35.574219 29.390625 C 34.789062 28.652344 33.730469 27.925781 32.683594 27.398438 C 30.820312 26.46875 28.515625 26.195312 26.28125 26.648438 C 23.546875 27.203125 20.890625 29.074219 19.375 31.511719 C 18.550781 32.835938 18.03125 34.199219 17.777344 35.679688 L 17.699219 36.15625 L 16.988281 36.402344 C 16.597656 36.539062 16.238281 36.664062 16.1875 36.679688 C 16.132812 36.695312 15.847656 36.542969 15.535156 36.328125 Z M 15.535156 36.328125 "/>
<path style=" stroke:none;fill-rule:nonzero;fill:rgb(100%,40%,0%);fill-opacity:1;" d="M 8.601562 42.261719 C 8.257812 42.140625 7.921875 41.859375 6.917969 40.835938 C 5.773438 39.675781 5.664062 39.503906 5.664062 38.839844 C 5.664062 38.15625 5.761719 38.003906 7.042969 36.722656 C 8.292969 35.476562 8.484375 35.34375 9.089844 35.34375 C 9.792969 35.339844 9.851562 35.378906 11.164062 36.667969 C 12.515625 38 12.65625 38.207031 12.65625 38.839844 C 12.65625 39.457031 12.527344 39.644531 11.277344 40.90625 C 10 42.191406 9.78125 42.339844 9.160156 42.332031 C 8.957031 42.332031 8.703125 42.296875 8.601562 42.261719 Z M 8.601562 42.261719 "/>
<path style=" stroke:none;fill-rule:nonzero;fill:rgb(100%,40%,0%);fill-opacity:1;" d="M 1.226562 26.917969 C 0.8125 26.796875 0.441406 26.476562 0.226562 26.058594 L 0.0195312 25.660156 L 0.0390625 23.921875 C 0.0546875 22.402344 0.0703125 22.160156 0.167969 21.984375 C 0.359375 21.636719 0.667969 21.335938 0.988281 21.1875 C 1.289062 21.046875 1.347656 21.042969 3 21.042969 C 4.652344 21.042969 4.710938 21.046875 5.011719 21.1875 C 5.332031 21.335938 5.640625 21.636719 5.832031 21.984375 C 5.925781 22.160156 5.941406 22.398438 5.960938 23.859375 C 5.972656 24.960938 5.957031 25.613281 5.910156 25.777344 C 5.800781 26.160156 5.476562 26.558594 5.097656 26.765625 L 4.765625 26.953125 L 3.09375 26.964844 C 2.171875 26.96875 1.332031 26.949219 1.226562 26.917969 Z M 1.226562 26.917969 "/>
<path style=" stroke:none;fill-rule:nonzero;fill:rgb(100%,40%,0%);fill-opacity:1;" d="M 8.578125 12.566406 C 8.289062 12.460938 8.097656 12.300781 7.078125 11.28125 C 5.753906 9.960938 5.636719 9.785156 5.636719 9.152344 C 5.636719 8.515625 5.753906 8.34375 7.097656 7.007812 C 8.234375 5.878906 8.308594 5.816406 8.660156 5.714844 C 9.097656 5.589844 9.5 5.621094 9.882812 5.8125 C 10.253906 6 12.222656 7.964844 12.453125 8.371094 C 12.601562 8.640625 12.625 8.757812 12.625 9.152344 C 12.625 9.546875 12.601562 9.664062 12.453125 9.9375 C 12.222656 10.347656 10.253906 12.304688 9.875 12.496094 C 9.492188 12.6875 8.996094 12.714844 8.578125 12.566406 Z M 8.578125 12.566406 "/>
<path style=" stroke:none;fill-rule:nonzero;fill:rgb(100%,40%,0%);fill-opacity:1;" d="M 22.25 5.914062 C 21.71875 5.765625 21.265625 5.328125 21.109375 4.808594 C 20.976562 4.355469 20.972656 1.640625 21.105469 1.191406 C 21.226562 0.789062 21.582031 0.378906 21.972656 0.199219 C 22.277344 0.0585938 22.328125 0.0546875 24.015625 0.0546875 C 25.652344 0.0546875 25.757812 0.0585938 26.015625 0.183594 C 26.335938 0.339844 26.660156 0.65625 26.816406 0.96875 C 26.914062 1.171875 26.929688 1.398438 26.945312 2.894531 C 26.964844 4.769531 26.945312 4.929688 26.589844 5.378906 C 26.476562 5.515625 26.246094 5.691406 26.042969 5.792969 L 25.691406 5.964844 L 24.109375 5.976562 C 22.996094 5.988281 22.449219 5.96875 22.25 5.914062 Z M 22.25 5.914062 "/>
<path style=" stroke:none;fill-rule:nonzero;fill:rgb(100%,40%,0%);fill-opacity:1;" d="M 38.507812 12.628906 C 38.078125 12.515625 37.816406 12.308594 36.695312 11.179688 C 35.578125 10.050781 35.507812 9.96875 35.410156 9.625 C 35.339844 9.386719 35.316406 9.164062 35.339844 8.984375 C 35.417969 8.417969 35.585938 8.183594 36.695312 7.0625 C 37.898438 5.855469 38.238281 5.625 38.8125 5.625 C 39.484375 5.625 39.640625 5.726562 40.894531 6.96875 C 42.238281 8.296875 42.34375 8.457031 42.34375 9.152344 C 42.339844 9.507812 42.3125 9.675781 42.207031 9.867188 C 42.027344 10.207031 39.800781 12.40625 39.523438 12.523438 C 39.242188 12.640625 38.746094 12.691406 38.507812 12.628906 Z M 38.507812 12.628906 "/>
<path style=" stroke:none;fill-rule:nonzero;fill:rgb(100%,40%,0%);fill-opacity:1;" d="M 43.128906 26.867188 C 42.742188 26.730469 42.367188 26.394531 42.171875 25.996094 C 42.039062 25.726562 42.035156 25.648438 42.035156 24.011719 L 42.035156 22.308594 L 42.210938 21.953125 C 42.304688 21.761719 42.484375 21.515625 42.609375 21.414062 C 43.039062 21.0625 43.234375 21.035156 45.109375 21.054688 C 46.996094 21.074219 47.035156 21.082031 47.484375 21.519531 C 47.929688 21.949219 47.945312 22.035156 47.945312 23.980469 C 47.945312 25.671875 47.941406 25.722656 47.800781 26.027344 C 47.71875 26.199219 47.535156 26.445312 47.386719 26.570312 C 46.953125 26.941406 46.710938 26.984375 44.980469 26.984375 C 43.667969 26.980469 43.414062 26.964844 43.128906 26.867188 Z M 43.128906 26.867188 "/>
</g>
</svg>
