<?xml version="1.0" encoding="UTF-8"?>
<svg xmlns="http://www.w3.org/2000/svg" xmlns:xlink="http://www.w3.org/1999/xlink" width="48" height="48" viewBox="0 0 48 48" version="1.1">
<g id="surface1">
<path style=" stroke:none;fill-rule:nonzero;fill:rgb(74.509804%,74.509804%,74.509804%);fill-opacity:1;" d="M 28.621094 0 C 24.789062 0 21.679688 2.917969 21.253906 6.65625 C 20.296875 6.296875 19.273438 5.996094 18.195312 5.996094 C 13.25 5.996094 9.246094 10.027344 9.246094 14.996094 C 9.246094 15.292969 9.3125 15.550781 9.335938 15.839844 C 8.4375 15.300781 7.359375 15 6.246094 15 C 2.953125 15 0.28125 17.6875 0.28125 21 C 0.28125 24.3125 2.953125 27 6.246094 27 L 9.324219 27 C 8.828125 25.4375 9.21875 23.722656 10.34375 22.53125 C 11.472656 21.339844 13.152344 20.863281 14.730469 21.28125 C 14.761719 21.28125 14.792969 21.28125 14.824219 21.28125 C 15.859375 20.199219 17.363281 19.707031 18.832031 19.96875 C 19.4375 19.09375 20.328125 18.460938 21.351562 18.1875 C 21.882812 16.289062 23.585938 14.957031 25.546875 14.90625 C 27.578125 14.871094 29.378906 16.21875 29.929688 18.1875 C 30.949219 18.460938 31.839844 19.09375 32.445312 19.96875 C 33.960938 19.617188 35.546875 20.074219 36.640625 21.1875 C 38.226562 20.792969 39.902344 21.300781 41.011719 22.511719 C 42.117188 23.722656 42.480469 25.441406 41.953125 27 L 43.539062 27 C 46.011719 27 48.015625 24.984375 48.015625 22.5 C 48.015625 20.015625 46.011719 18 43.539062 18 C 42.921875 18 42.304688 18.148438 41.769531 18.375 C 41.925781 17.769531 42.046875 17.15625 42.046875 16.5 C 42.046875 12.8125 39.382812 9.816406 35.894531 9.1875 C 36.019531 8.644531 36.082031 8.082031 36.082031 7.5 C 36.082031 3.359375 32.742188 0 28.625 0 Z M 28.621094 0 "/>
<path style=" stroke:none;fill-rule:nonzero;fill:rgb(100%,100%,100%);fill-opacity:1;" d="M 25.320312 17.820312 C 24.527344 17.914062 23.945312 18.613281 24 19.410156 L 24 21.378906 L 23.15625 21.003906 C 22.40625 20.640625 21.503906 20.957031 21.140625 21.707031 C 20.777344 22.457031 21.09375 23.359375 21.84375 23.722656 L 24.003906 24.742188 L 24.003906 30.179688 L 19.035156 27.085938 L 19.222656 24.460938 C 19.300781 23.632812 18.691406 22.898438 17.863281 22.820312 C 17.035156 22.742188 16.300781 23.351562 16.222656 24.179688 L 16.128906 25.398438 L 14.347656 24.273438 C 13.898438 23.949219 13.304688 23.898438 12.804688 24.144531 C 12.308594 24.390625 11.984375 24.890625 11.96875 25.445312 C 11.953125 26 12.246094 26.519531 12.726562 26.792969 L 14.695312 28.011719 L 13.757812 28.761719 C 13.085938 29.253906 12.9375 30.199219 13.429688 30.871094 C 13.921875 31.546875 14.867188 31.691406 15.539062 31.199219 L 17.507812 29.699219 L 22.570312 32.792969 L 17.414062 35.980469 L 15.445312 34.574219 C 15.042969 34.121094 14.40625 33.957031 13.835938 34.15625 C 13.261719 34.351562 12.867188 34.875 12.828125 35.480469 C 12.789062 36.085938 13.121094 36.652344 13.664062 36.917969 L 14.695312 37.667969 L 12.632812 38.886719 C 11.910156 39.328125 11.679688 40.273438 12.117188 40.996094 C 12.558594 41.722656 13.503906 41.953125 14.226562 41.511719 L 16.101562 40.386719 L 16.195312 41.511719 C 16.226562 42.050781 16.542969 42.53125 17.027344 42.769531 C 17.507812 43.011719 18.082031 42.972656 18.53125 42.675781 C 18.976562 42.378906 19.230469 41.863281 19.195312 41.324219 L 19.007812 38.605469 L 23.976562 35.511719 L 23.976562 40.949219 L 21.816406 41.910156 C 21.066406 42.273438 20.753906 43.175781 21.113281 43.925781 C 21.476562 44.675781 22.378906 44.992188 23.128906 44.628906 L 23.972656 44.253906 L 23.972656 46.316406 C 23.964844 46.859375 24.25 47.359375 24.71875 47.632812 C 25.183594 47.90625 25.761719 47.90625 26.230469 47.632812 C 26.695312 47.359375 26.980469 46.859375 26.972656 46.316406 L 26.972656 44.253906 L 27.816406 44.628906 C 28.570312 44.992188 29.476562 44.679688 29.84375 43.921875 C 30.207031 43.171875 29.890625 42.265625 29.136719 41.898438 L 26.976562 40.878906 L 26.976562 35.441406 L 31.945312 38.441406 L 31.757812 41.253906 C 31.734375 42.082031 32.382812 42.773438 33.210938 42.800781 C 34.039062 42.828125 34.734375 42.175781 34.757812 41.347656 L 34.851562 40.222656 L 36.632812 41.347656 C 37.085938 41.683594 37.6875 41.738281 38.195312 41.488281 C 38.699219 41.238281 39.023438 40.726562 39.03125 40.164062 C 39.035156 39.597656 38.726562 39.078125 38.226562 38.816406 L 36.164062 37.597656 L 37.195312 36.847656 C 37.6875 36.554688 37.96875 36.007812 37.929688 35.4375 C 37.886719 34.867188 37.523438 34.371094 36.992188 34.152344 C 36.460938 33.9375 35.855469 34.039062 35.425781 34.417969 L 33.457031 35.917969 L 28.394531 32.824219 L 33.457031 29.730469 L 35.519531 31.136719 C 35.949219 31.542969 36.578125 31.660156 37.125 31.4375 C 37.671875 31.210938 38.035156 30.6875 38.050781 30.09375 C 38.070312 29.503906 37.738281 28.957031 37.207031 28.699219 L 36.269531 28.042969 L 38.332031 26.730469 C 39.058594 26.289062 39.289062 25.347656 38.847656 24.621094 C 38.40625 23.894531 37.464844 23.664062 36.738281 24.105469 L 34.863281 25.230469 L 34.769531 24.105469 C 34.738281 23.566406 34.421875 23.089844 33.941406 22.847656 C 33.457031 22.605469 32.882812 22.644531 32.4375 22.941406 C 31.988281 23.238281 31.734375 23.753906 31.769531 24.292969 L 31.957031 27.011719 L 26.988281 30.105469 L 26.988281 24.667969 L 29.144531 23.636719 C 29.683594 23.433594 30.058594 22.945312 30.117188 22.375 C 30.171875 21.804688 29.902344 21.25 29.414062 20.945312 C 28.929688 20.640625 28.3125 20.636719 27.824219 20.9375 L 26.984375 21.296875 L 26.984375 19.328125 C 27.015625 18.878906 26.84375 18.4375 26.519531 18.132812 C 26.191406 17.824219 25.742188 17.675781 25.296875 17.734375 Z M 25.320312 17.820312 "/>
</g>
</svg>
