<?xml version="1.0" encoding="UTF-8"?>
<svg xmlns="http://www.w3.org/2000/svg" xmlns:xlink="http://www.w3.org/1999/xlink" width="48" height="48" viewBox="0 0 48 48" version="1.1">
<g id="surface1">
<path style=" stroke:none;fill-rule:nonzero;fill:rgb(74.509804%,74.509804%,74.509804%);fill-opacity:1;" d="M 28.46875 3 C 24.640625 3 21.527344 5.917969 21.105469 9.65625 C 20.144531 9.296875 19.15625 8.996094 18.046875 8.996094 C 13.101562 8.996094 9.09375 13.023438 9.09375 17.996094 C 9.09375 18.292969 9.160156 18.550781 9.1875 18.839844 C 8.289062 18.300781 7.238281 18 6.097656 18 C 2.800781 18 0.128906 20.6875 0.128906 24 C 0.128906 27.3125 2.800781 30 6.097656 30 L 7.214844 30 C 7.710938 28.945312 8.316406 27.957031 9.175781 27.09375 L 16.539062 19.6875 L 23.90625 27.09375 C 24.753906 27.949219 25.296875 28.953125 25.769531 30 L 27.167969 30 L 31.457031 25.6875 L 35.746094 30 L 43.390625 30 C 45.859375 30 47.867188 27.984375 47.867188 25.5 C 47.867188 23.015625 45.859375 21 43.390625 21 C 42.773438 21 42.152344 21.148438 41.617188 21.375 C 41.777344 20.769531 41.898438 20.15625 41.898438 19.5 C 41.898438 15.8125 39.234375 12.816406 35.742188 12.1875 C 35.871094 11.644531 35.929688 11.082031 35.929688 10.5 C 35.929688 6.359375 32.589844 3 28.472656 3 Z M 28.46875 3 "/>
<path style=" stroke:none;fill-rule:nonzero;fill:rgb(0%,100%,100%);fill-opacity:1;" d="M 16.5 23.730469 L 15.46875 24.855469 L 11.15625 29.074219 C 8.238281 31.988281 8.238281 36.75 11.15625 39.667969 C 14.074219 42.582031 18.925781 42.582031 21.84375 39.667969 C 24.761719 36.75 24.761719 31.988281 21.84375 29.074219 L 17.53125 24.855469 Z M 16.5 27.949219 L 19.6875 31.230469 C 21.457031 33 21.457031 35.835938 19.6875 37.605469 C 17.917969 39.375 15.082031 39.375 13.3125 37.605469 L 13.3125 37.511719 C 11.609375 35.738281 11.566406 32.976562 13.3125 31.230469 L 16.492188 27.898438 Z M 16.5 27.949219 "/>
<path style=" stroke:none;fill-rule:nonzero;fill:rgb(0%,100%,100%);fill-opacity:1;" d="M 31.5 29.730469 L 30.46875 30.855469 L 26.15625 35.074219 C 23.238281 37.988281 23.238281 42.75 26.15625 45.667969 C 29.074219 48.582031 33.925781 48.582031 36.84375 45.667969 C 39.761719 42.75 39.761719 37.988281 36.84375 35.074219 L 32.53125 30.855469 Z M 31.5 33.949219 L 34.6875 37.230469 C 36.457031 39 36.457031 41.835938 34.6875 43.605469 C 32.917969 45.375 30.082031 45.375 28.3125 43.605469 L 28.3125 43.511719 C 26.609375 41.738281 26.566406 38.976562 28.3125 37.230469 L 31.492188 33.898438 Z M 31.5 33.949219 "/>
</g>
</svg>
