<?xml version="1.0" encoding="UTF-8"?>
<svg xmlns="http://www.w3.org/2000/svg" xmlns:xlink="http://www.w3.org/1999/xlink" width="48" height="48" viewBox="0 0 48 48" version="1.1">
<g id="surface1">
<path style=" stroke:none;fill-rule:nonzero;fill:rgb(50.196078%,50.196078%,50.196078%);fill-opacity:1;" d="M 28.53125 0.121094 C 24.710938 0.121094 21.609375 3.039062 21.1875 6.777344 C 20.214844 6.410156 19.21875 6.121094 18.117188 6.121094 C 13.1875 6.121094 9.195312 10.148438 9.195312 15.121094 C 9.195312 15.414062 9.257812 15.679688 9.289062 15.964844 C 8.394531 15.429688 7.332031 15.121094 6.21875 15.121094 C 2.933594 15.121094 0.269531 17.808594 0.269531 21.121094 C 0.269531 24.4375 2.714844 26.988281 6 26.988281 L 21 26.988281 L 21 22.488281 C 20.953125 20.132812 23.21875 18.078125 25.554688 18.027344 C 27.953125 17.976562 30.054688 20.070312 30 22.488281 L 30 26.988281 L 43.5 26.988281 C 45.96875 26.988281 47.867188 25.109375 47.867188 22.621094 C 47.867188 20.136719 45.867188 18.121094 43.40625 18.121094 C 42.789062 18.121094 42.171875 18.269531 41.636719 18.496094 C 41.796875 17.890625 41.917969 17.277344 41.917969 16.621094 C 41.917969 12.933594 39.257812 9.9375 35.78125 9.308594 C 35.90625 8.765625 35.96875 8.203125 35.96875 7.621094 C 35.96875 3.480469 32.636719 0.121094 28.53125 0.121094 Z M 28.53125 0.121094 "/>
<path style=" stroke:none;fill-rule:nonzero;fill:rgb(74.509804%,74.509804%,74.509804%);fill-opacity:1;" d="M 25.230469 21 C 24.507812 21.132812 23.988281 21.765625 24 22.5 L 24 30 L 15 30 L 15 33 L 9.84375 33 L 9.46875 33.46875 L 1.96875 40.96875 C 1.441406 41.292969 1.171875 41.910156 1.285156 42.515625 C 1.398438 43.125 1.875 43.601562 2.484375 43.714844 C 3.089844 43.828125 3.707031 43.558594 4.03125 43.03125 L 11.050781 35.980469 L 14.980469 35.980469 L 14.980469 44.980469 C 14.980469 45.808594 15.652344 46.480469 16.480469 46.480469 C 17.308594 46.480469 17.980469 45.808594 17.980469 44.980469 L 17.980469 34.855469 C 18.03125 34.640625 18.03125 34.417969 17.980469 34.199219 L 17.980469 33 L 23.980469 33 L 23.980469 35.15625 L 24.449219 35.53125 L 29.96875 41.082031 L 29.96875 45.011719 C 29.96875 45.839844 30.640625 46.511719 31.46875 46.511719 C 32.296875 46.511719 32.96875 45.839844 32.96875 45.011719 L 32.96875 42.011719 L 37 42.011719 L 44.21875 46.324219 C 44.945312 46.738281 45.867188 46.488281 46.28125 45.761719 C 46.695312 45.035156 46.445312 44.113281 45.71875 43.699219 L 38.21875 39.199219 L 37.84375 39.011719 L 32.03125 39.011719 L 26.96875 33.949219 L 26.96875 31.886719 C 27.019531 31.671875 27.019531 31.445312 26.96875 31.230469 L 26.96875 22.53125 C 26.976562 22.078125 26.78125 21.644531 26.4375 21.355469 C 26.09375 21.0625 25.632812 20.945312 25.1875 21.03125 Z M 25.230469 21 "/>
<path style=" stroke:none;fill-rule:nonzero;fill:rgb(100%,100%,0%);fill-opacity:1;" d="M 31.148438 46.453125 C 30.851562 46.378906 30.515625 46.175781 30.335938 45.960938 C 30.003906 45.554688 29.992188 45.453125 29.992188 43.144531 L 29.992188 41.046875 L 24 35.070312 L 24 33 L 17.960938 33 L 17.953125 39.140625 L 17.949219 45.289062 L 17.820312 45.570312 C 17.550781 46.152344 17.128906 46.421875 16.484375 46.421875 C 15.855469 46.421875 15.414062 46.160156 15.152344 45.625 C 15.046875 45.414062 15.039062 45.207031 15.011719 40.683594 L 14.984375 35.964844 L 13.03125 35.949219 L 11.082031 35.9375 L 7.277344 39.75 C 4.398438 42.632812 3.421875 43.578125 3.265625 43.632812 C 3.152344 43.671875 2.90625 43.703125 2.71875 43.703125 C 2.3125 43.699219 1.875 43.492188 1.609375 43.171875 C 1.277344 42.769531 1.195312 42.0625 1.433594 41.609375 C 1.488281 41.5 3.429688 39.523438 5.742188 37.207031 L 9.949219 33 L 15.011719 33 L 15.011719 30.003906 L 23.996094 30.003906 L 24.011719 26.058594 C 24.03125 21.699219 24.007812 21.945312 24.402344 21.496094 C 24.632812 21.234375 25.078125 21.015625 25.390625 21.015625 C 26.003906 21.015625 26.589844 21.382812 26.820312 21.914062 C 26.9375 22.1875 26.9375 22.226562 26.941406 28.0625 L 26.941406 33.929688 L 29.5 36.488281 L 32.054688 39.046875 L 34.953125 39.046875 C 37.796875 39.046875 37.859375 39.046875 38.089844 39.164062 C 38.648438 39.445312 45.804688 43.769531 45.980469 43.929688 C 46.378906 44.296875 46.539062 44.941406 46.371094 45.5 C 46.289062 45.78125 45.925781 46.195312 45.628906 46.34375 C 45.332031 46.5 44.835938 46.539062 44.542969 46.4375 C 44.421875 46.394531 42.671875 45.375 40.65625 44.171875 L 36.992188 41.984375 L 32.929688 41.984375 L 32.929688 43.664062 C 32.929688 45.3125 32.925781 45.351562 32.796875 45.632812 C 32.507812 46.253906 31.792969 46.609375 31.148438 46.453125 Z M 31.148438 46.453125 "/>
</g>
</svg>
