<?xml version="1.0" encoding="UTF-8"?>
<svg xmlns="http://www.w3.org/2000/svg" xmlns:xlink="http://www.w3.org/1999/xlink" width="22" height="22" viewBox="0 0 22 22" version="1.1">
<g id="surface1">
<path style=" stroke:none;fill-rule:nonzero;fill:rgb(74.509804%,74.509804%,74.509804%);fill-opacity:1;" d="M 1.375 6.875 L 4.789062 6.875 L 8.875 2.75 L 9.625 2.773438 L 9.625 19.273438 L 8.972656 19.273438 L 4.789062 15.125 L 1.375 15.125 Z M 1.375 6.875 "/>
<path style=" stroke:none;fill-rule:nonzero;fill:rgb(74.509804%,74.509804%,74.509804%);fill-opacity:1;" d="M 16.335938 1.375 C 16.027344 1.410156 15.738281 1.542969 15.519531 1.761719 L 12.769531 4.511719 C 12.410156 4.863281 12.269531 5.382812 12.398438 5.867188 C 12.527344 6.351562 12.90625 6.730469 13.390625 6.859375 C 13.875 6.988281 14.394531 6.847656 14.746094 6.488281 L 17.496094 3.738281 C 17.941406 3.324219 18.066406 2.664062 17.796875 2.117188 C 17.523438 1.574219 16.925781 1.269531 16.324219 1.371094 Z M 16.335938 1.375 "/>
<path style=" stroke:none;fill-rule:nonzero;fill:rgb(74.509804%,74.509804%,74.509804%);fill-opacity:1;" d="M 13.445312 15.125 C 12.933594 15.21875 12.519531 15.59375 12.371094 16.09375 C 12.226562 16.59375 12.378906 17.132812 12.757812 17.488281 L 15.507812 20.238281 C 15.863281 20.597656 16.378906 20.738281 16.863281 20.609375 C 17.351562 20.480469 17.730469 20.101562 17.859375 19.617188 C 17.984375 19.132812 17.84375 18.613281 17.484375 18.261719 L 14.734375 15.511719 C 14.402344 15.167969 13.914062 15.019531 13.445312 15.128906 Z M 13.445312 15.125 "/>
<path style=" stroke:none;fill-rule:nonzero;fill:rgb(74.509804%,74.509804%,74.509804%);fill-opacity:1;" d="M 13.625 9.625 C 13.128906 9.640625 12.679688 9.921875 12.449219 10.363281 C 12.21875 10.800781 12.242188 11.332031 12.511719 11.746094 C 12.78125 12.164062 13.253906 12.402344 13.75 12.375 L 19.292969 12.417969 C 19.789062 12.425781 20.25 12.164062 20.5 11.734375 C 20.75 11.308594 20.75 10.777344 20.5 10.347656 C 20.25 9.921875 19.789062 9.660156 19.292969 9.667969 L 13.75 9.625 C 13.710938 9.625 13.664062 9.625 13.625 9.625 Z M 13.625 9.625 "/>
<path style=" stroke:none;fill-rule:nonzero;fill:rgb(74.509804%,74.509804%,74.509804%);fill-opacity:1;" d="M 12.375 5.5 L 13.75 5.5 L 13.75 6.875 L 12.375 6.875 Z M 12.375 5.5 "/>
<path style=" stroke:none;fill-rule:nonzero;fill:rgb(74.509804%,74.509804%,74.509804%);fill-opacity:1;" d="M 12.375 15.125 L 13.75 15.125 L 13.75 16.5 L 12.375 16.5 Z M 12.375 15.125 "/>
<path style=" stroke:none;fill-rule:nonzero;fill:rgb(100%,100%,100%);fill-opacity:1;" d="M 6.882812 17.191406 L 4.796875 15.121094 L 1.375 15.121094 L 1.375 6.890625 L 4.796875 6.890625 L 5.21875 6.460938 C 5.453125 6.222656 6.375 5.292969 7.261719 4.394531 L 8.878906 2.761719 L 9.242188 2.773438 L 9.605469 2.78125 L 9.605469 19.261719 L 8.964844 19.261719 Z M 6.882812 17.191406 "/>
<path style=" stroke:none;fill-rule:nonzero;fill:rgb(100%,100%,100%);fill-opacity:1;" d="M 12.964844 6.871094 L 12.390625 6.863281 L 12.378906 6.132812 C 12.363281 5.324219 12.378906 5.175781 12.503906 4.90625 C 12.582031 4.734375 12.722656 4.589844 14.152344 3.15625 C 15.890625 1.417969 15.816406 1.480469 16.292969 1.394531 C 16.75 1.308594 17.171875 1.433594 17.503906 1.753906 C 17.945312 2.179688 18.046875 2.808594 17.761719 3.371094 C 17.699219 3.5 17.394531 3.820312 16.15625 5.0625 C 15.128906 6.089844 14.574219 6.628906 14.46875 6.691406 C 14.253906 6.820312 13.980469 6.890625 13.734375 6.882812 C 13.625 6.882812 13.277344 6.875 12.964844 6.871094 Z M 12.964844 6.871094 "/>
<path style=" stroke:none;fill-rule:nonzero;fill:rgb(100%,100%,100%);fill-opacity:1;" d="M 14.625 12.367188 C 13.417969 12.351562 13.355469 12.351562 13.214844 12.292969 C 12.71875 12.089844 12.402344 11.699219 12.324219 11.195312 C 12.21875 10.511719 12.683594 9.828125 13.363281 9.671875 C 13.582031 9.621094 19.335938 9.660156 19.601562 9.714844 C 19.867188 9.769531 20.101562 9.902344 20.296875 10.113281 C 20.546875 10.378906 20.667969 10.679688 20.671875 11.035156 C 20.671875 11.570312 20.371094 12.042969 19.886719 12.277344 L 19.664062 12.382812 L 17.777344 12.382812 C 16.738281 12.382812 15.320312 12.378906 14.625 12.367188 Z M 14.625 12.367188 "/>
<path style=" stroke:none;fill-rule:nonzero;fill:rgb(100%,100%,100%);fill-opacity:1;" d="M 16.21875 20.609375 C 15.820312 20.523438 15.847656 20.546875 14.148438 18.855469 C 12.734375 17.445312 12.570312 17.273438 12.484375 17.097656 C 12.363281 16.859375 12.320312 16.640625 12.339844 16.417969 C 12.347656 16.320312 12.363281 15.996094 12.375 15.699219 L 12.390625 15.15625 L 13.019531 15.132812 C 13.363281 15.121094 13.726562 15.113281 13.820312 15.117188 C 14.035156 15.121094 14.300781 15.199219 14.476562 15.316406 C 14.550781 15.363281 15.296875 16.089844 16.132812 16.929688 C 17.25 18.054688 17.671875 18.492188 17.726562 18.597656 C 18.15625 19.417969 17.691406 20.421875 16.789062 20.613281 C 16.558594 20.660156 16.453125 20.660156 16.21875 20.609375 Z M 16.21875 20.609375 "/>
</g>
</svg>
