<?xml version="1.0" encoding="UTF-8"?>
<svg xmlns="http://www.w3.org/2000/svg" xmlns:xlink="http://www.w3.org/1999/xlink" width="22" height="22" viewBox="0 0 22 22" version="1.1">
<g id="surface1">
<path style=" stroke:none;fill-rule:nonzero;fill:rgb(74.509804%,74.509804%,74.509804%);fill-opacity:1;" d="M 10.957031 0 C 6.414062 0 2.675781 4.136719 2.75 7.863281 C 2.835938 12.019531 4.035156 14.320312 4.296875 15.125 L 6.222656 15.125 C 4.625 11.972656 4.78125 8.035156 4.78125 8.035156 C 4.78125 4.773438 7.539062 2.105469 10.957031 2.105469 C 14.375 2.105469 17.144531 4.746094 17.132812 8.121094 C 17.101562 10.421875 16.898438 11.261719 15.75 14.738281 L 17.910156 14.738281 C 18.21875 13.851562 19.25 11.898438 19.25 7.992188 C 19.25 4.101562 15.503906 0 10.957031 0 Z M 10.957031 0 "/>
<path style=" stroke:none;fill-rule:nonzero;fill:rgb(74.509804%,74.509804%,74.509804%);fill-opacity:1;" d="M 17.324219 9.699219 C 16.175781 9.378906 14.894531 10.210938 14.46875 11.558594 L 13.882812 13.402344 C 13.453125 14.75 14.039062 16.105469 15.1875 16.425781 C 16.339844 16.746094 17.617188 15.914062 18.046875 14.566406 L 18.632812 12.722656 C 19.058594 11.375 18.472656 10.019531 17.324219 9.699219 Z M 17.324219 9.699219 "/>
<path style=" stroke:none;fill-rule:nonzero;fill:rgb(74.509804%,74.509804%,74.509804%);fill-opacity:1;" d="M 4.746094 9.707031 C 5.898438 9.386719 7.175781 10.21875 7.605469 11.566406 L 8.191406 13.410156 C 8.617188 14.757812 8.03125 16.109375 6.882812 16.433594 C 5.734375 16.753906 4.453125 15.921875 4.027344 14.574219 L 3.441406 12.726562 C 3.011719 11.378906 3.597656 10.027344 4.746094 9.707031 Z M 4.746094 9.707031 "/>
<path style=" stroke:none;fill-rule:nonzero;fill:rgb(74.509804%,74.509804%,74.509804%);fill-opacity:1;" d="M 9.691406 19.210938 L 12.355469 19.210938 C 13.101562 19.210938 13.707031 19.816406 13.707031 20.5625 C 13.707031 21.308594 13.101562 21.917969 12.355469 21.917969 L 9.691406 21.917969 C 8.941406 21.917969 8.335938 21.308594 8.335938 20.5625 C 8.335938 19.816406 8.941406 19.210938 9.691406 19.210938 Z M 9.691406 19.210938 "/>
<path style=" stroke:none;fill-rule:nonzero;fill:rgb(74.509804%,74.509804%,74.509804%);fill-opacity:1;" d="M 17.316406 12.9375 C 17.003906 12.996094 16.773438 13.257812 16.753906 13.570312 C 16.730469 13.886719 16.929688 14.175781 17.230469 14.269531 L 19.25 15 L 19.207031 17.40625 C 19.199219 18.136719 19.019531 18.597656 18.777344 18.867188 C 18.535156 19.128906 18.222656 19.253906 17.789062 19.253906 L 12.074219 19.253906 C 11.828125 19.246094 11.597656 19.378906 11.472656 19.59375 C 11.347656 19.804688 11.347656 20.070312 11.472656 20.285156 C 11.597656 20.5 11.828125 20.628906 12.074219 20.628906 L 17.789062 20.628906 C 18.542969 20.628906 19.292969 20.335938 19.808594 19.769531 C 20.328125 19.195312 20.574219 18.378906 20.582031 17.402344 L 20.625 14.515625 L 20.625 14.042969 L 20.195312 13.871094 L 17.746094 12.96875 C 17.609375 12.910156 17.460938 12.894531 17.316406 12.925781 Z M 17.316406 12.9375 "/>
<path style=" stroke:none;fill-rule:nonzero;fill:rgb(100%,100%,100%);fill-opacity:1;" d="M 9.351562 21.859375 C 8.878906 21.730469 8.492188 21.339844 8.386719 20.878906 C 8.304688 20.523438 8.378906 20.113281 8.585938 19.804688 C 8.796875 19.488281 9.128906 19.289062 9.535156 19.234375 C 9.679688 19.214844 10.238281 19.210938 11.136719 19.21875 C 14.472656 19.257812 17.90625 19.265625 18.089844 19.238281 C 18.632812 19.144531 18.992188 18.757812 19.140625 18.109375 C 19.1875 17.902344 19.203125 17.691406 19.222656 16.851562 C 19.238281 16.296875 19.25 15.652344 19.25 15.417969 L 19.253906 14.988281 L 18.691406 14.789062 C 18.382812 14.675781 18.109375 14.578125 18.085938 14.570312 C 18.054688 14.554688 18.023438 14.605469 17.949219 14.792969 C 17.820312 15.121094 17.558594 15.519531 17.296875 15.773438 C 16.1875 16.871094 14.59375 16.664062 13.972656 15.339844 C 13.816406 15.007812 13.765625 14.753906 13.765625 14.296875 C 13.765625 14.003906 13.777344 13.832031 13.8125 13.695312 C 13.902344 13.328125 14.519531 11.417969 14.613281 11.214844 C 14.878906 10.636719 15.335938 10.144531 15.847656 9.886719 C 16.152344 9.730469 16.394531 9.667969 16.746094 9.652344 C 17.039062 9.636719 17.0625 9.632812 17.078125 9.578125 C 17.117188 9.410156 17.152344 8.042969 17.125 7.671875 C 16.941406 5.238281 15.320312 3.195312 12.96875 2.421875 C 10.679688 1.667969 8.160156 2.257812 6.496094 3.929688 C 5.53125 4.902344 4.957031 6.085938 4.804688 7.429688 C 4.769531 7.738281 4.78125 9.554688 4.820312 9.644531 C 4.835938 9.683594 4.867188 9.683594 5.054688 9.660156 C 5.703125 9.578125 6.496094 9.917969 6.984375 10.488281 C 7.351562 10.917969 7.460938 11.15625 7.859375 12.398438 C 8.296875 13.769531 8.308594 13.820312 8.308594 14.3125 C 8.304688 14.789062 8.253906 15.027344 8.054688 15.433594 C 7.882812 15.773438 7.574219 16.101562 7.257812 16.265625 C 6.050781 16.894531 4.550781 16.109375 4.042969 14.589844 C 3.378906 12.589844 3.097656 11.460938 2.921875 10.085938 C 2.792969 9.066406 2.730469 7.710938 2.789062 7.160156 C 3.136719 3.984375 5.925781 0.976562 9.234375 0.210938 C 9.863281 0.0664062 10.273438 0.0234375 10.976562 0.0234375 C 13.167969 0.0234375 15.21875 0.929688 16.882812 2.636719 C 17.941406 3.722656 18.71875 5.089844 19.039062 6.421875 C 19.21875 7.164062 19.261719 7.695312 19.222656 8.71875 C 19.167969 10.242188 18.941406 11.703125 18.578125 12.886719 L 18.464844 13.246094 L 18.539062 13.273438 C 18.875 13.390625 20.089844 13.84375 20.324219 13.933594 L 20.613281 14.046875 L 20.613281 14.550781 C 20.613281 14.824219 20.601562 15.683594 20.585938 16.453125 C 20.558594 17.980469 20.535156 18.246094 20.375 18.738281 C 20.023438 19.804688 19.207031 20.46875 18.089844 20.597656 C 17.953125 20.613281 16.941406 20.625 15.777344 20.625 L 13.703125 20.625 L 13.667969 20.816406 C 13.570312 21.324219 13.1875 21.730469 12.675781 21.859375 C 12.441406 21.921875 9.582031 21.921875 9.351562 21.859375 Z M 9.351562 21.859375 "/>
</g>
</svg>
