<?xml version="1.0" encoding="UTF-8"?>
<svg xmlns="http://www.w3.org/2000/svg" xmlns:xlink="http://www.w3.org/1999/xlink" width="22" height="22" viewBox="0 0 22 22" version="1.1">
<g id="surface1">
<path style=" stroke:none;fill-rule:nonzero;fill:rgb(74.509804%,74.509804%,74.509804%);fill-opacity:1;" d="M 17.75 1.375 C 17.039062 1.4375 16.496094 2.035156 16.5 2.75 L 16.5 20.625 C 16.492188 21.121094 16.753906 21.582031 17.183594 21.832031 C 17.609375 22.082031 18.140625 22.082031 18.566406 21.832031 C 18.996094 21.582031 19.257812 21.121094 19.25 20.625 L 19.25 4.125 L 20.625 4.125 C 21.121094 4.132812 21.582031 3.871094 21.832031 3.441406 C 22.082031 3.015625 22.082031 2.484375 21.832031 2.058594 C 21.582031 1.628906 21.121094 1.367188 20.625 1.375 L 17.875 1.375 C 17.832031 1.371094 17.789062 1.371094 17.746094 1.375 Z M 17.75 1.375 "/>
<path style=" stroke:none;fill-rule:nonzero;fill:rgb(74.509804%,74.509804%,74.509804%);fill-opacity:1;" d="M 17.875 8.25 L 17.875 12.375 L 22 12.375 L 22 8.25 Z M 19.25 9.625 L 20.625 9.625 L 20.625 11 L 19.25 11 Z M 19.25 9.625 "/>
<path style=" stroke:none;fill-rule:nonzero;fill:rgb(74.509804%,74.509804%,74.509804%);fill-opacity:1;" d="M 17.875 13.75 L 17.875 17.875 L 22 17.875 L 22 13.75 Z M 19.25 15.125 L 20.625 15.125 L 20.625 16.5 L 19.25 16.5 Z M 19.25 15.125 "/>
<path style=" stroke:none;fill-rule:nonzero;fill:rgb(74.509804%,74.509804%,74.509804%);fill-opacity:1;" d="M 0 5.5 L 0 22 L 13.75 22 L 13.75 19.25 L 15.125 19.25 L 15.125 16.5 L 11 16.5 L 11 19.25 L 2.75 19.25 L 2.75 8.25 L 6.875 8.25 L 6.875 5.5 Z M 0 5.5 "/>
<path style=" stroke:none;fill-rule:nonzero;fill:rgb(74.509804%,74.509804%,74.509804%);fill-opacity:1;" d="M 8.25 1.375 L 15.125 6.875 L 11 6.875 L 11 13.105469 L 8.25 13.105469 Z M 8.25 1.375 "/>
<path style=" stroke:none;fill-rule:nonzero;fill:rgb(74.509804%,74.509804%,74.509804%);fill-opacity:1;" d="M 10.988281 13.066406 C 10.988281 14.960938 9.453125 16.496094 7.558594 16.496094 C 5.664062 16.496094 4.125 14.960938 4.125 13.066406 C 4.125 11.171875 5.664062 9.636719 7.558594 9.636719 C 9.453125 9.636719 10.988281 11.171875 10.988281 13.066406 Z M 10.988281 13.066406 "/>
<path style=" stroke:none;fill-rule:nonzero;fill:rgb(100%,100%,100%);fill-opacity:1;" d="M 7.296875 16.476562 C 6.371094 16.371094 5.683594 16.042969 5.09375 15.429688 C 4.8125 15.132812 4.644531 14.890625 4.472656 14.53125 C 4.082031 13.714844 4.03125 12.785156 4.335938 11.921875 C 4.507812 11.4375 4.761719 11.035156 5.140625 10.660156 C 5.679688 10.117188 6.363281 9.777344 7.105469 9.679688 C 7.347656 9.644531 8 9.65625 8.171875 9.699219 L 8.25 9.714844 L 8.25 1.386719 L 15.082031 6.855469 L 13.042969 6.863281 L 11.003906 6.867188 L 11.003906 9.917969 C 11.003906 13.117188 10.996094 13.367188 10.875 13.871094 C 10.617188 14.960938 9.839844 15.847656 8.769531 16.265625 C 8.351562 16.429688 7.695312 16.523438 7.296875 16.476562 Z M 7.296875 16.476562 "/>
<path style=" stroke:none;fill-rule:nonzero;fill:rgb(100%,100%,100%);fill-opacity:1;" d="M 0.0117188 13.742188 L 0.0117188 5.503906 L 6.859375 5.503906 L 6.859375 8.230469 L 2.738281 8.230469 L 2.738281 19.25 L 11.003906 19.25 L 11.003906 16.496094 L 15.121094 16.496094 L 15.121094 19.25 L 13.730469 19.25 L 13.730469 21.976562 L 0.0117188 21.976562 Z M 0.0117188 13.742188 "/>
<path style=" stroke:none;fill-rule:nonzero;fill:rgb(100%,100%,100%);fill-opacity:1;" d="M 17.550781 21.964844 C 17.117188 21.859375 16.75 21.53125 16.589844 21.101562 L 16.527344 20.941406 L 16.527344 2.421875 L 16.59375 2.257812 C 16.746094 1.882812 17.089844 1.5625 17.46875 1.445312 C 17.648438 1.390625 17.726562 1.386719 19.238281 1.386719 C 20.960938 1.386719 20.996094 1.390625 21.296875 1.550781 C 21.527344 1.671875 21.753906 1.917969 21.875 2.175781 C 21.980469 2.394531 21.980469 2.398438 21.980469 2.75 C 21.980469 3.101562 21.980469 3.109375 21.875 3.328125 C 21.753906 3.582031 21.527344 3.824219 21.296875 3.949219 C 21.035156 4.089844 20.863281 4.113281 20.015625 4.113281 L 19.238281 4.113281 L 19.238281 8.261719 L 21.996094 8.261719 L 21.996094 12.378906 L 19.238281 12.378906 L 19.238281 13.769531 L 21.996094 13.769531 L 21.996094 17.859375 L 19.238281 17.859375 L 19.238281 19.304688 C 19.238281 20.167969 19.226562 20.808594 19.210938 20.902344 C 19.070312 21.648438 18.289062 22.148438 17.550781 21.964844 Z M 20.632812 15.800781 L 20.632812 15.105469 L 19.941406 15.113281 L 19.253906 15.117188 L 19.246094 15.808594 L 19.238281 16.496094 L 20.632812 16.496094 Z M 20.632812 10.320312 L 20.632812 9.625 L 19.238281 9.625 L 19.238281 11.015625 L 20.632812 11.015625 Z M 20.632812 10.320312 "/>
</g>
</svg>
