<?xml version="1.0" encoding="UTF-8"?>
<svg xmlns="http://www.w3.org/2000/svg" xmlns:xlink="http://www.w3.org/1999/xlink" width="22" height="22" viewBox="0 0 22 22" version="1.1">
<g id="surface1">
<path style=" stroke:none;fill-rule:nonzero;fill:rgb(74.509804%,74.509804%,74.509804%);fill-opacity:1;" d="M 5.484375 12.527344 C 6.785156 12.144531 8.171875 12.933594 8.582031 14.289062 L 9.511719 17.347656 C 9.921875 18.703125 9.199219 20.109375 7.898438 20.488281 C 6.597656 20.871094 5.210938 20.078125 4.800781 18.726562 L 3.875 15.664062 C 3.464844 14.3125 4.183594 12.90625 5.484375 12.527344 Z M 5.484375 12.527344 "/>
<path style=" stroke:none;fill-rule:nonzero;fill:rgb(74.509804%,74.509804%,74.509804%);fill-opacity:1;" d="M 10.957031 1.375 C 6.414062 1.375 2.675781 5.511719 2.75 9.238281 C 2.816406 12.492188 3.863281 15.695312 4.125 16.5 L 6.222656 16.5 C 4.625 13.347656 4.78125 9.410156 4.78125 9.410156 C 4.78125 6.148438 7.539062 3.480469 10.957031 3.480469 C 14.375 3.480469 17.144531 5.992188 17.132812 9.367188 C 17.101562 11.667969 16.898438 13.023438 15.75 16.5 L 17.910156 16.5 C 18.21875 15.613281 19.25 12.113281 19.25 9.238281 C 19.25 5.347656 15.503906 1.375 10.957031 1.375 Z M 10.957031 1.375 "/>
<path style=" stroke:none;fill-rule:nonzero;fill:rgb(74.509804%,74.509804%,74.509804%);fill-opacity:1;" d="M 16.515625 12.574219 C 15.214844 12.195312 13.828125 12.984375 13.417969 14.339844 L 12.488281 17.398438 C 12.078125 18.753906 12.800781 20.160156 14.101562 20.539062 C 15.402344 20.917969 16.789062 20.128906 17.199219 18.773438 L 18.125 15.714844 C 18.539062 14.359375 17.816406 12.957031 16.515625 12.574219 Z M 16.515625 12.574219 "/>
<path style=" stroke:none;fill-rule:nonzero;fill:rgb(100%,100%,100%);fill-opacity:1;" d="M 14.527344 20.613281 C 13.460938 20.5 12.625 19.710938 12.417969 18.613281 C 12.378906 18.402344 12.386719 17.882812 12.429688 17.671875 C 12.464844 17.515625 13.097656 15.398438 13.378906 14.5 C 13.449219 14.28125 13.550781 14.011719 13.605469 13.902344 C 13.835938 13.445312 14.234375 13.03125 14.679688 12.789062 C 15.035156 12.59375 15.414062 12.5 15.847656 12.5 C 16.152344 12.5 16.375 12.535156 16.640625 12.625 C 16.738281 12.660156 16.820312 12.683594 16.824219 12.679688 C 16.839844 12.664062 16.925781 12.179688 16.972656 11.855469 C 17.140625 10.640625 17.183594 9.085938 17.066406 8.410156 C 16.789062 6.78125 15.925781 5.453125 14.546875 4.53125 C 12.960938 3.472656 10.804688 3.183594 8.976562 3.785156 C 7.980469 4.113281 7.15625 4.632812 6.433594 5.375 C 5.519531 6.316406 4.972656 7.457031 4.808594 8.75 C 4.765625 9.101562 4.773438 10.402344 4.820312 11.015625 C 4.882812 11.753906 5.007812 12.707031 5.042969 12.707031 C 5.050781 12.707031 5.128906 12.671875 5.214844 12.636719 C 6.085938 12.238281 7.179688 12.460938 7.902344 13.175781 C 8.210938 13.480469 8.417969 13.828125 8.566406 14.28125 C 8.710938 14.71875 9.503906 17.347656 9.554688 17.554688 C 9.613281 17.796875 9.625 18.347656 9.574219 18.601562 C 9.421875 19.375 8.953125 19.992188 8.273438 20.328125 C 7.875 20.519531 7.710938 20.554688 7.214844 20.554688 C 6.832031 20.554688 6.785156 20.550781 6.59375 20.492188 C 5.847656 20.265625 5.253906 19.753906 4.9375 19.0625 C 4.894531 18.964844 4.695312 18.34375 4.492188 17.6875 C 4.292969 17.027344 4.078125 16.335938 4.019531 16.152344 C 3.414062 14.257812 2.992188 12.238281 2.824219 10.429688 C 2.773438 9.890625 2.753906 8.867188 2.789062 8.542969 C 2.957031 6.9375 3.765625 5.320312 5.054688 3.996094 C 6.472656 2.539062 8.226562 1.652344 10.132812 1.429688 C 10.515625 1.386719 11.324219 1.378906 11.699219 1.417969 C 13.058594 1.558594 14.347656 2.027344 15.480469 2.78125 C 17.449219 4.097656 18.8125 6.121094 19.15625 8.222656 C 19.234375 8.707031 19.257812 9.175781 19.226562 9.785156 C 19.164062 11.167969 18.933594 12.632812 18.511719 14.355469 C 18.308594 15.1875 17.941406 16.46875 17.894531 16.5 C 17.886719 16.503906 17.714844 17.046875 17.515625 17.699219 C 17.320312 18.355469 17.121094 18.972656 17.078125 19.074219 C 16.960938 19.351562 16.734375 19.675781 16.496094 19.90625 C 16.058594 20.328125 15.5625 20.558594 14.976562 20.613281 C 14.84375 20.625 14.726562 20.636719 14.722656 20.632812 C 14.714844 20.632812 14.628906 20.621094 14.527344 20.613281 Z M 14.527344 20.613281 "/>
</g>
</svg>
