<?xml version="1.0" encoding="UTF-8"?>
<svg xmlns="http://www.w3.org/2000/svg" xmlns:xlink="http://www.w3.org/1999/xlink" width="22" height="22" viewBox="0 0 22 22" version="1.1">
<g id="surface1">
<path style=" stroke:none;fill-rule:nonzero;fill:rgb(74.509804%,74.509804%,74.509804%);fill-opacity:1;" d="M 2.792969 5.5 L 13.75 5.5 C 14.507812 5.5 15.125 6.117188 15.125 6.875 L 15.125 16.5 C 15.125 17.257812 14.507812 17.875 13.75 17.875 L 2.792969 17.875 C 2.03125 17.875 1.417969 17.257812 1.417969 16.5 L 1.417969 6.875 C 1.417969 6.117188 2.03125 5.5 2.792969 5.5 Z M 2.792969 5.5 "/>
<path style=" stroke:none;fill-rule:nonzero;fill:rgb(74.509804%,74.509804%,74.509804%);fill-opacity:1;" d="M 15.125 11.648438 L 19.894531 6.875 L 20.625 6.875 L 20.625 16.5 L 19.9375 16.5 Z M 15.125 11.648438 "/>
<path style=" stroke:none;fill-rule:nonzero;fill:rgb(100%,100%,100%);fill-opacity:1;" d="M 2.523438 17.839844 C 2.171875 17.773438 1.773438 17.480469 1.605469 17.167969 C 1.421875 16.816406 1.429688 17.175781 1.429688 11.6875 C 1.429688 7.363281 1.4375 6.683594 1.472656 6.542969 C 1.589844 6.089844 1.902344 5.75 2.355469 5.578125 L 2.523438 5.515625 L 8.140625 5.507812 C 12.015625 5.5 13.824219 5.507812 13.957031 5.53125 C 14.480469 5.609375 14.910156 5.992188 15.0625 6.519531 C 15.105469 6.660156 15.109375 7.179688 15.109375 11.683594 C 15.109375 15.828125 15.101562 16.71875 15.070312 16.839844 C 14.933594 17.34375 14.5 17.746094 13.988281 17.839844 C 13.773438 17.882812 2.734375 17.878906 2.523438 17.839844 Z M 2.523438 17.839844 "/>
<path style=" stroke:none;fill-rule:nonzero;fill:rgb(100%,100%,100%);fill-opacity:1;" d="M 17.539062 14.0625 L 15.136719 11.644531 L 19.890625 6.890625 L 20.613281 6.890625 L 20.613281 16.484375 L 19.9375 16.484375 Z M 17.539062 14.0625 "/>
</g>
</svg>
