<?xml version="1.0" encoding="UTF-8"?>
<svg xmlns="http://www.w3.org/2000/svg" xmlns:xlink="http://www.w3.org/1999/xlink" width="22" height="22" viewBox="0 0 22 22" version="1.1">
<g id="surface1">
<path style=" stroke:none;fill-rule:nonzero;fill:rgb(74.509804%,74.509804%,74.509804%);fill-opacity:1;" d="M 15.8125 1.375 C 18.46875 1.375 20.625 3.53125 20.625 6.1875 C 20.625 7.726562 19.902344 9.085938 18.777344 9.96875 C 19.066406 10.21875 19.25 10.585938 19.25 11 C 19.246094 13.75 19.25 15.195312 19.25 19.25 C 19.25 20.011719 18.636719 20.625 17.875 20.625 L 5.5 20.625 C 4.738281 20.625 4.125 20.011719 4.125 19.25 L 4.125 16.285156 L 0.601562 18.90625 C 0.574219 18.925781 0.546875 18.9375 0.515625 18.949219 C 0.472656 18.957031 0.429688 18.957031 0.386719 18.949219 C 0.359375 18.953125 0.328125 18.953125 0.300781 18.949219 C 0.269531 18.9375 0.242188 18.925781 0.214844 18.90625 C 0.183594 18.894531 0.15625 18.882812 0.128906 18.863281 C 0.113281 18.851562 0.0976562 18.835938 0.0859375 18.820312 C 0.0703125 18.808594 0.0546875 18.792969 0.0429688 18.777344 C 0.0234375 18.75 0.0117188 18.722656 0 18.691406 C -0.00390625 18.664062 -0.00390625 18.632812 0 18.605469 L 0 10.269531 C -0.00390625 10.242188 -0.00390625 10.210938 0 10.183594 C 0.0117188 10.152344 0.0234375 10.125 0.0429688 10.097656 C 0.0585938 10.082031 0.0703125 10.066406 0.0859375 10.054688 C 0.101562 10.039062 0.113281 10.023438 0.128906 10.011719 C 0.140625 9.996094 0.15625 9.980469 0.171875 9.96875 C 0.183594 9.953125 0.199219 9.9375 0.214844 9.925781 C 0.242188 9.910156 0.269531 9.894531 0.300781 9.882812 C 0.34375 9.875 0.386719 9.875 0.429688 9.882812 C 0.445312 9.882812 0.457031 9.882812 0.472656 9.882812 C 0.488281 9.898438 0.503906 9.910156 0.515625 9.925781 C 0.546875 9.9375 0.574219 9.953125 0.601562 9.96875 L 4.125 12.589844 L 4.125 11 C 4.125 10.585938 4.308594 10.222656 4.597656 9.96875 C 3.472656 9.089844 2.75 7.726562 2.75 6.1875 C 2.75 3.53125 4.90625 1.375 7.5625 1.375 C 9.328125 1.375 10.851562 2.324219 11.6875 3.738281 C 12.523438 2.324219 14.046875 1.375 15.8125 1.375 Z M 15.8125 4.125 C 14.671875 4.125 13.75 5.046875 13.75 6.1875 C 13.75 7.328125 14.671875 8.25 15.8125 8.25 C 16.953125 8.25 17.875 7.328125 17.875 6.1875 C 17.875 5.046875 16.953125 4.125 15.8125 4.125 Z M 7.5625 4.125 C 6.421875 4.125 5.5 5.046875 5.5 6.1875 C 5.5 7.328125 6.421875 8.25 7.5625 8.25 C 8.703125 8.25 9.625 7.328125 9.625 6.1875 C 9.625 5.046875 8.703125 4.125 7.5625 4.125 Z M 11.6875 8.636719 C 11.46875 9.003906 11.21875 9.328125 10.914062 9.625 L 12.460938 9.625 C 12.15625 9.328125 11.90625 9.003906 11.6875 8.636719 Z M 11.6875 8.636719 "/>
<path style=" stroke:none;fill-rule:nonzero;fill:rgb(100%,100%,100%);fill-opacity:1;" d="M 5.277344 20.59375 C 4.890625 20.535156 4.476562 20.242188 4.304688 19.898438 C 4.140625 19.578125 4.144531 19.625 4.128906 17.894531 L 4.113281 16.28125 L 2.523438 17.464844 C 1.648438 18.117188 0.839844 18.71875 0.726562 18.800781 C 0.488281 18.96875 0.394531 18.988281 0.210938 18.894531 C -0.0078125 18.785156 0.0117188 19.199219 0.0117188 14.429688 L 0.0117188 10.148438 L 0.136719 10.023438 C 0.285156 9.875 0.40625 9.859375 0.574219 9.96875 C 0.632812 10.003906 1.453125 10.609375 2.394531 11.3125 L 4.113281 12.59375 L 4.128906 11.664062 C 4.140625 10.867188 4.152344 10.714844 4.195312 10.59375 C 4.265625 10.402344 4.371094 10.222656 4.5 10.085938 L 4.605469 9.96875 L 4.363281 9.757812 C 3.710938 9.1875 3.171875 8.328125 2.941406 7.488281 C 2.804688 6.996094 2.78125 6.789062 2.78125 6.167969 C 2.78125 5.492188 2.820312 5.242188 3.019531 4.644531 C 3.527344 3.125 4.789062 1.949219 6.355469 1.542969 C 7.710938 1.191406 9.175781 1.453125 10.3125 2.257812 C 10.664062 2.507812 11.214844 3.058594 11.449219 3.398438 C 11.550781 3.542969 11.648438 3.683594 11.664062 3.707031 C 11.691406 3.746094 11.703125 3.742188 11.742188 3.664062 C 11.847656 3.460938 12.226562 3 12.519531 2.71875 C 13.691406 1.582031 15.34375 1.140625 16.964844 1.523438 C 17.492188 1.648438 18.050781 1.902344 18.554688 2.246094 C 18.894531 2.476562 19.523438 3.105469 19.753906 3.445312 C 20.363281 4.347656 20.644531 5.3125 20.601562 6.367188 C 20.550781 7.707031 19.996094 8.871094 18.976562 9.785156 L 18.773438 9.964844 L 18.871094 10.074219 C 19.007812 10.226562 19.097656 10.378906 19.171875 10.585938 L 19.238281 10.765625 L 19.246094 14.964844 C 19.25 17.664062 19.242188 19.25 19.226562 19.398438 C 19.152344 20.019531 18.675781 20.511719 18.074219 20.597656 C 17.824219 20.632812 5.519531 20.628906 5.277344 20.59375 Z M 12.261719 9.398438 C 12.144531 9.265625 11.96875 9.042969 11.875 8.902344 C 11.777344 8.765625 11.691406 8.652344 11.679688 8.652344 C 11.671875 8.652344 11.617188 8.722656 11.566406 8.808594 C 11.472656 8.960938 11.261719 9.234375 11.023438 9.507812 L 10.902344 9.644531 L 12.472656 9.644531 Z M 8.199219 8.15625 C 9.105469 7.851562 9.679688 7.011719 9.625 6.070312 C 9.578125 5.3125 9.136719 4.648438 8.457031 4.324219 C 8.144531 4.175781 7.933594 4.128906 7.558594 4.128906 C 7.175781 4.128906 6.972656 4.175781 6.625 4.34375 C 6.425781 4.441406 6.335938 4.507812 6.113281 4.734375 C 5.894531 4.953125 5.820312 5.046875 5.722656 5.246094 C 5.550781 5.59375 5.503906 5.789062 5.503906 6.195312 C 5.503906 6.472656 5.515625 6.578125 5.570312 6.75 C 5.808594 7.511719 6.371094 8.042969 7.121094 8.214844 C 7.402344 8.277344 7.921875 8.25 8.199219 8.15625 Z M 16.257812 8.210938 C 16.503906 8.15625 16.855469 7.992188 17.089844 7.8125 C 17.421875 7.5625 17.6875 7.167969 17.808594 6.734375 C 17.882812 6.464844 17.898438 5.976562 17.835938 5.726562 C 17.644531 4.953125 17.046875 4.355469 16.273438 4.164062 C 16.054688 4.109375 15.539062 4.117188 15.308594 4.175781 C 14.707031 4.332031 14.21875 4.738281 13.941406 5.316406 C 13.65625 5.90625 13.6875 6.664062 14.023438 7.226562 C 14.316406 7.726562 14.816406 8.085938 15.378906 8.210938 C 15.609375 8.261719 16.015625 8.261719 16.257812 8.210938 Z M 16.257812 8.210938 "/>
</g>
</svg>
