<?xml version="1.0" encoding="UTF-8"?>
<svg xmlns="http://www.w3.org/2000/svg" xmlns:xlink="http://www.w3.org/1999/xlink" width="22" height="22" viewBox="0 0 22 22" version="1.1">
<g id="surface1">
<path style=" stroke:none;fill-rule:nonzero;fill:rgb(74.509804%,74.509804%,74.509804%);fill-opacity:1;" d="M 8.25 2.75 C 7.492188 2.75 6.875 3.367188 6.875 4.125 L 6.875 5.5 L 2.75 5.5 C 1.992188 5.5 1.375 6.117188 1.375 6.875 L 1.375 17.875 C 1.375 18.632812 1.992188 19.25 2.75 19.25 L 19.25 19.25 C 20.007812 19.25 20.625 18.632812 20.625 17.875 L 20.625 6.875 C 20.625 6.117188 20.007812 5.5 19.25 5.5 L 15.125 5.5 L 15.125 4.125 C 15.125 3.367188 14.507812 2.75 13.75 2.75 Z M 11 6.875 C 14.039062 6.875 16.5 9.335938 16.5 12.375 C 16.5 15.414062 14.039062 17.875 11 17.875 C 7.960938 17.875 5.5 15.414062 5.5 12.375 C 5.5 9.335938 7.960938 6.875 11 6.875 Z M 11 9.625 C 9.480469 9.625 8.25 10.855469 8.25 12.375 C 8.25 13.894531 9.480469 15.125 11 15.125 C 12.519531 15.125 13.75 13.894531 13.75 12.375 C 13.75 10.855469 12.519531 9.625 11 9.625 Z M 11 9.625 "/>
<path style=" stroke:none;fill-rule:nonzero;fill:rgb(100%,100%,100%);fill-opacity:1;" d="M 10.625 15.089844 C 9.542969 14.941406 8.640625 14.136719 8.347656 13.066406 C 8.292969 12.867188 8.285156 12.765625 8.285156 12.351562 C 8.289062 11.910156 8.292969 11.851562 8.367188 11.617188 C 8.597656 10.867188 9.105469 10.261719 9.789062 9.925781 C 10.238281 9.703125 10.4375 9.660156 11.007812 9.660156 C 11.453125 9.660156 11.511719 9.667969 11.746094 9.738281 C 12.847656 10.078125 13.585938 10.949219 13.71875 12.070312 C 13.839844 13.078125 13.371094 14.082031 12.511719 14.652344 C 12.21875 14.847656 12.015625 14.9375 11.675781 15.023438 C 11.371094 15.101562 10.914062 15.132812 10.625 15.089844 Z M 10.625 15.089844 "/>
<path style=" stroke:none;fill-rule:nonzero;fill:rgb(100%,100%,100%);fill-opacity:1;" d="M 2.402344 19.191406 C 1.953125 19.070312 1.601562 18.738281 1.449219 18.292969 L 1.390625 18.113281 L 1.382812 12.523438 C 1.375 8.789062 1.382812 6.859375 1.402344 6.707031 C 1.480469 6.109375 1.953125 5.621094 2.539062 5.53125 C 2.648438 5.511719 3.539062 5.5 4.800781 5.5 L 6.878906 5.5 L 6.878906 4.765625 C 6.878906 4.363281 6.890625 3.964844 6.90625 3.878906 C 7.011719 3.3125 7.507812 2.851562 8.085938 2.773438 C 8.234375 2.753906 9.292969 2.746094 11.148438 2.753906 L 13.988281 2.761719 L 14.195312 2.839844 C 14.527344 2.960938 14.8125 3.207031 14.964844 3.507812 C 15.089844 3.761719 15.109375 3.90625 15.109375 4.726562 L 15.109375 5.496094 L 17.316406 5.507812 L 19.519531 5.515625 L 19.710938 5.589844 C 20.027344 5.710938 20.25 5.902344 20.425781 6.191406 C 20.625 6.523438 20.613281 6.125 20.613281 12.386719 C 20.613281 18.597656 20.625 18.179688 20.441406 18.527344 C 20.292969 18.804688 20.015625 19.042969 19.710938 19.160156 L 19.550781 19.21875 L 11.050781 19.226562 C 3.804688 19.230469 2.53125 19.226562 2.402344 19.191406 Z M 11.757812 17.828125 C 13.828125 17.535156 15.558594 16.101562 16.214844 14.136719 C 16.417969 13.523438 16.5 13.023438 16.5 12.363281 C 16.5 11.445312 16.296875 10.625 15.871094 9.8125 C 14.476562 7.15625 11.226562 6.109375 8.539062 7.453125 C 6.496094 8.472656 5.289062 10.652344 5.519531 12.910156 C 5.773438 15.433594 7.6875 17.441406 10.199219 17.824219 C 10.558594 17.882812 11.382812 17.882812 11.757812 17.828125 Z M 11.757812 17.828125 "/>
</g>
</svg>
