<?xml version="1.0" encoding="UTF-8"?>
<svg xmlns="http://www.w3.org/2000/svg" xmlns:xlink="http://www.w3.org/1999/xlink" width="22" height="22" viewBox="0 0 22 22" version="1.1">
<g id="surface1">
<path style=" stroke:none;fill-rule:nonzero;fill:rgb(74.509804%,74.509804%,74.509804%);fill-opacity:1;" d="M 9.707031 0.0117188 C 9.082031 0.0820312 8.492188 0.316406 7.988281 0.699219 C 7.316406 1.210938 6.871094 2.015625 6.871094 3.019531 L 6.871094 10.324219 C 6.871094 10.324219 7.195312 11.023438 7.558594 11.023438 C 7.921875 11.023438 8.246094 10.324219 8.246094 10.324219 L 8.246094 3.019531 C 8.246094 2.402344 8.480469 2.054688 8.847656 1.773438 C 9.214844 1.496094 9.761719 1.363281 10.308594 1.386719 C 10.855469 1.414062 11.386719 1.601562 11.769531 1.945312 C 12.152344 2.292969 12.414062 2.75 12.414062 3.492188 C 12.414062 6.472656 14.425781 8.320312 16.539062 8.265625 C 17.71875 8.234375 18.859375 7.609375 19.632812 6.460938 L 18.859375 5.085938 C 18.34375 6.34375 17.390625 6.867188 16.496094 6.890625 C 15.175781 6.921875 13.789062 5.886719 13.789062 3.492188 C 13.789062 2.40625 13.328125 1.507812 12.671875 0.914062 C 12.019531 0.324219 11.1875 0.0546875 10.351562 0.0117188 C 10.144531 0.00390625 9.914062 -0.0078125 9.707031 0.0117188 Z M 19.246094 2.761719 C 19.246094 2.828125 19.246094 2.875 19.246094 2.933594 L 20.320312 4.824219 C 20.335938 4.769531 20.347656 4.710938 20.363281 4.652344 Z M 19.246094 3.234375 C 19.238281 3.382812 19.21875 3.53125 19.203125 3.664062 L 20.191406 5.34375 C 20.222656 5.257812 20.25 5.171875 20.277344 5.085938 Z M 19.160156 3.921875 C 19.140625 4.046875 19.101562 4.152344 19.074219 4.265625 L 19.976562 5.8125 C 20.015625 5.730469 20.070312 5.644531 20.105469 5.554688 Z M 19.03125 4.523438 C 19 4.648438 18.941406 4.757812 18.902344 4.867188 L 19.71875 6.285156 C 19.773438 6.199219 19.839844 6.125 19.890625 6.027344 Z M 19.03125 4.523438 "/>
<path style=" stroke:none;fill-rule:nonzero;fill:rgb(74.509804%,74.509804%,74.509804%);fill-opacity:1;" d="M 3.75 8.261719 L 11.375 8.261719 C 11.925781 8.261719 12.375 8.710938 12.375 9.261719 L 12.375 18.265625 C 12.375 18.816406 11.925781 19.261719 11.375 19.261719 L 3.75 19.261719 C 3.199219 19.261719 2.75 18.816406 2.75 18.265625 L 2.75 9.261719 C 2.75 8.710938 3.199219 8.261719 3.75 8.261719 Z M 3.75 8.261719 "/>
<path style=" stroke:none;fill-rule:nonzero;fill:rgb(100%,100%,100%);fill-opacity:1;" d="M 3.464844 19.214844 C 3.144531 19.113281 2.90625 18.875 2.808594 18.558594 C 2.761719 18.414062 2.761719 18.328125 2.761719 13.757812 C 2.761719 9.132812 2.761719 9.097656 2.808594 8.960938 C 2.902344 8.683594 3.066406 8.496094 3.335938 8.367188 L 3.511719 8.285156 L 5.195312 8.277344 L 6.878906 8.273438 L 6.886719 5.425781 C 6.894531 2.28125 6.882812 2.511719 7.042969 2.03125 C 7.285156 1.304688 7.8125 0.726562 8.570312 0.359375 C 9.074219 0.117188 9.371094 0.0429688 9.910156 0.0234375 C 11.542969 -0.03125 12.8125 0.664062 13.433594 1.960938 C 13.671875 2.453125 13.746094 2.804688 13.78125 3.527344 C 13.820312 4.429688 13.925781 4.914062 14.214844 5.484375 C 14.554688 6.160156 15.164062 6.65625 15.863281 6.828125 C 16.105469 6.886719 16.523438 6.90625 16.769531 6.871094 C 17.367188 6.785156 17.953125 6.449219 18.339844 5.972656 C 18.511719 5.765625 18.746094 5.386719 18.808594 5.222656 C 18.828125 5.167969 18.851562 5.121094 18.859375 5.121094 C 18.867188 5.121094 19.042969 5.421875 19.25 5.789062 L 19.625 6.457031 L 19.523438 6.601562 C 18.945312 7.40625 18.085938 7.984375 17.152344 8.1875 C 16.953125 8.230469 16.847656 8.238281 16.449219 8.238281 C 16.046875 8.238281 15.941406 8.230469 15.742188 8.1875 C 14.53125 7.921875 13.523438 7.101562 12.949219 5.910156 C 12.71875 5.433594 12.542969 4.832031 12.46875 4.269531 C 12.457031 4.160156 12.433594 3.851562 12.425781 3.578125 C 12.398438 3.003906 12.363281 2.828125 12.207031 2.511719 C 11.894531 1.882812 11.253906 1.476562 10.433594 1.390625 C 9.90625 1.335938 9.324219 1.457031 8.949219 1.699219 C 8.671875 1.878906 8.453125 2.128906 8.347656 2.390625 C 8.238281 2.667969 8.238281 2.679688 8.238281 5.566406 L 8.238281 8.273438 L 9.863281 8.273438 C 11.660156 8.273438 11.648438 8.273438 11.890625 8.417969 C 12.136719 8.566406 12.308594 8.832031 12.351562 9.136719 C 12.382812 9.355469 12.382812 18.183594 12.351562 18.402344 C 12.296875 18.78125 12.023438 19.105469 11.664062 19.210938 C 11.554688 19.242188 11.132812 19.246094 7.546875 19.242188 C 4.394531 19.242188 3.535156 19.234375 3.464844 19.214844 Z M 3.464844 19.214844 "/>
</g>
</svg>
