<?xml version="1.0" encoding="UTF-8"?>
<svg xmlns="http://www.w3.org/2000/svg" xmlns:xlink="http://www.w3.org/1999/xlink" width="22" height="22" viewBox="0 0 22 22" version="1.1">
<g id="surface1">
<path style=" stroke:none;fill-rule:nonzero;fill:rgb(74.509804%,74.509804%,74.509804%);fill-opacity:1;" d="M 3.398438 1.375 C 2.265625 1.375 1.375 2.265625 1.375 3.394531 L 1.375 18.605469 C 1.375 19.734375 2.265625 20.625 3.398438 20.625 L 15.859375 20.625 C 16.984375 20.625 17.878906 19.734375 17.878906 18.605469 L 17.878906 3.394531 C 17.878906 2.265625 16.984375 1.375 15.859375 1.375 Z M 2.753906 2.75 L 16.503906 2.75 L 16.503906 17.875 L 2.753906 17.875 Z M 2.753906 2.75 "/>
<path style=" stroke:none;fill-rule:nonzero;fill:rgb(100%,100%,100%);fill-opacity:1;" d="M 3.121094 20.59375 C 2.304688 20.476562 1.679688 19.925781 1.453125 19.128906 L 1.390625 18.910156 L 1.378906 11.175781 C 1.375 5.871094 1.382812 3.359375 1.402344 3.179688 C 1.496094 2.375 2.003906 1.742188 2.78125 1.476562 L 3.007812 1.402344 L 9.488281 1.390625 C 14.277344 1.386719 16.03125 1.390625 16.1875 1.414062 C 16.921875 1.527344 17.511719 2.03125 17.765625 2.761719 L 17.847656 2.988281 L 17.855469 10.917969 C 17.863281 18.78125 17.863281 18.847656 17.804688 19.085938 C 17.71875 19.449219 17.550781 19.742188 17.28125 20.015625 C 16.925781 20.367188 16.589844 20.535156 16.101562 20.59375 C 15.804688 20.632812 3.375 20.632812 3.121094 20.59375 Z M 16.5 10.308594 L 16.5 2.746094 L 2.738281 2.746094 L 2.738281 17.871094 L 16.5 17.871094 Z M 16.5 10.308594 "/>
</g>
</svg>
