<?xml version="1.0" encoding="UTF-8"?>
<svg xmlns="http://www.w3.org/2000/svg" xmlns:xlink="http://www.w3.org/1999/xlink" width="22" height="22" viewBox="0 0 22 22" version="1.1">
<g id="surface1">
<path style=" stroke:none;fill-rule:nonzero;fill:rgb(74.509804%,74.509804%,74.509804%);fill-opacity:1;" d="M 3.4375 1.375 C 1.535156 1.375 0 2.910156 0 4.8125 L 0 15.8125 C 0 17.714844 1.535156 19.25 3.4375 19.25 L 3.4375 16.5 C 3.058594 16.5 2.75 16.191406 2.75 15.8125 L 2.75 13.75 L 19.25 13.75 L 19.25 15.8125 C 19.25 16.191406 18.941406 16.5 18.5625 16.5 L 18.5625 19.25 C 20.464844 19.25 22 17.714844 22 15.8125 L 22 4.8125 C 22 2.910156 20.464844 1.375 18.5625 1.375 Z M 3.4375 1.375 "/>
<path style=" stroke:none;fill-rule:nonzero;fill:rgb(74.509804%,74.509804%,74.509804%);fill-opacity:1;" d="M 3.960938 15.179688 C 3.960938 18.878906 7.121094 21.921875 10.992188 21.921875 C 14.867188 21.921875 18.054688 18.878906 18.054688 15.179688 L 15.28125 15.179688 C 15.28125 17.453125 13.371094 19.273438 10.992188 19.273438 C 8.617188 19.273438 6.734375 17.453125 6.734375 15.179688 Z M 3.960938 15.179688 "/>
<path style=" stroke:none;fill-rule:nonzero;fill:rgb(74.509804%,74.509804%,74.509804%);fill-opacity:1;" d="M 8.25 15.125 C 8.25 16.636719 9.488281 17.875 11 17.875 C 12.511719 17.875 13.75 16.636719 13.75 15.125 L 12.375 15.125 C 12.375 15.890625 11.765625 16.5 11 16.5 C 10.234375 16.5 9.625 15.890625 9.625 15.125 Z M 8.25 15.125 "/>
<path style=" stroke:none;fill-rule:nonzero;fill:rgb(100%,100%,100%);fill-opacity:1;" d="M 10.660156 17.84375 C 9.398438 17.679688 8.367188 16.613281 8.277344 15.382812 L 8.261719 15.148438 L 8.941406 15.15625 L 9.617188 15.164062 L 9.636719 15.339844 C 9.683594 15.75 9.984375 16.160156 10.382812 16.359375 C 11.222656 16.773438 12.203125 16.273438 12.363281 15.351562 L 12.398438 15.148438 L 13.070312 15.148438 C 13.601562 15.148438 13.746094 15.15625 13.746094 15.183594 C 13.746094 15.328125 13.675781 15.730469 13.617188 15.925781 C 13.292969 16.960938 12.394531 17.710938 11.320312 17.839844 C 11.035156 17.875 10.921875 17.875 10.660156 17.84375 Z M 10.660156 17.84375 "/>
<path style=" stroke:none;fill-rule:nonzero;fill:rgb(100%,100%,100%);fill-opacity:1;" d="M 10.300781 21.882812 C 9.484375 21.804688 8.566406 21.542969 7.800781 21.164062 C 5.597656 20.078125 4.132812 17.941406 3.988281 15.597656 C 3.976562 15.390625 3.972656 15.210938 3.984375 15.199219 C 3.992188 15.1875 4.613281 15.179688 5.363281 15.183594 L 6.722656 15.191406 L 6.742188 15.488281 C 6.835938 16.910156 7.742188 18.214844 9.078125 18.851562 C 10.5 19.527344 12.171875 19.402344 13.496094 18.519531 C 13.859375 18.277344 14.363281 17.773438 14.605469 17.402344 C 15.007812 16.796875 15.230469 16.152344 15.273438 15.460938 L 15.292969 15.191406 L 18.03125 15.175781 L 18.03125 15.417969 C 18.03125 16.375 17.652344 17.632812 17.082031 18.546875 C 16.683594 19.191406 16.105469 19.847656 15.519531 20.320312 C 14.496094 21.148438 13.171875 21.707031 11.859375 21.859375 C 11.523438 21.898438 10.617188 21.910156 10.300781 21.882812 Z M 10.300781 21.882812 "/>
<path style=" stroke:none;fill-rule:nonzero;fill:rgb(100%,100%,100%);fill-opacity:1;" d="M 2.855469 19.1875 C 1.390625 18.945312 0.222656 17.722656 0.0429688 16.253906 C 0.0195312 16.054688 0.0117188 14.449219 0.0195312 10.140625 C 0.03125 3.710938 0.015625 4.234375 0.199219 3.695312 C 0.59375 2.511719 1.644531 1.632812 2.90625 1.429688 C 3.144531 1.390625 4.121094 1.386719 10.996094 1.386719 C 19.496094 1.386719 19.066406 1.378906 19.59375 1.542969 C 20.136719 1.714844 20.550781 1.972656 20.984375 2.40625 C 21.5 2.921875 21.773438 3.433594 21.917969 4.136719 C 21.976562 4.414062 21.976562 4.515625 21.976562 10.308594 C 21.976562 16.105469 21.976562 16.207031 21.917969 16.484375 C 21.609375 18 20.335938 19.128906 18.820312 19.226562 L 18.570312 19.242188 L 18.570312 16.515625 L 18.675781 16.496094 C 18.917969 16.453125 19.164062 16.242188 19.222656 16.03125 C 19.238281 15.972656 19.25 15.46875 19.25 14.828125 L 19.253906 13.730469 L 11 13.738281 L 2.75 13.742188 L 2.742188 14.808594 C 2.738281 15.558594 2.746094 15.90625 2.769531 15.996094 C 2.835938 16.242188 3.0625 16.453125 3.3125 16.496094 L 3.417969 16.515625 L 3.417969 19.234375 L 3.253906 19.230469 C 3.164062 19.230469 2.984375 19.210938 2.855469 19.1875 Z M 2.855469 19.1875 "/>
</g>
</svg>
