<?xml version="1.0" encoding="UTF-8"?>
<svg xmlns="http://www.w3.org/2000/svg" xmlns:xlink="http://www.w3.org/1999/xlink" width="22" height="22" viewBox="0 0 22 22" version="1.1">
<g id="surface1">
<path style=" stroke:none;fill-rule:nonzero;fill:rgb(74.509804%,74.509804%,74.509804%);fill-opacity:1;" d="M 5.484375 12.53125 C 6.78125 12.148438 8.171875 12.941406 8.582031 14.292969 L 9.507812 17.355469 C 9.917969 18.707031 9.199219 20.113281 7.898438 20.492188 C 6.597656 20.875 5.210938 20.085938 4.800781 18.730469 L 3.871094 15.667969 C 3.460938 14.316406 4.183594 12.910156 5.484375 12.53125 Z M 5.484375 12.53125 "/>
<path style=" stroke:none;fill-rule:nonzero;fill:rgb(74.509804%,74.509804%,74.509804%);fill-opacity:1;" d="M 10.960938 1.375 C 6.414062 1.375 2.675781 5.511719 2.753906 9.238281 C 2.820312 12.492188 3.863281 15.695312 4.128906 16.5 L 6.222656 16.5 C 4.628906 13.347656 4.78125 9.410156 4.78125 9.410156 C 4.78125 6.148438 7.539062 3.480469 10.960938 3.480469 C 14.375 3.480469 17.144531 5.992188 17.136719 9.367188 C 17.101562 11.667969 16.898438 13.023438 15.753906 16.5 L 17.914062 16.5 C 18.222656 15.613281 19.253906 12.113281 19.253906 9.238281 C 19.253906 5.347656 15.503906 1.375 10.960938 1.375 Z M 10.960938 1.375 "/>
<path style=" stroke:none;fill-rule:nonzero;fill:rgb(74.509804%,74.509804%,74.509804%);fill-opacity:1;" d="M 16.519531 12.566406 C 15.21875 12.183594 13.832031 12.972656 13.421875 14.328125 L 12.492188 17.390625 C 12.082031 18.742188 12.804688 20.148438 14.101562 20.527344 C 15.402344 20.910156 16.789062 20.121094 17.199219 18.765625 L 18.128906 15.703125 C 18.539062 14.351562 17.820312 12.945312 16.519531 12.566406 Z M 16.519531 12.566406 "/>
<path style=" stroke:none;fill-rule:nonzero;fill:rgb(100%,100%,100%);fill-opacity:1;" d="M 14.484375 20.59375 C 13.308594 20.441406 12.464844 19.503906 12.394531 18.285156 C 12.382812 18.09375 12.390625 17.921875 12.421875 17.757812 C 12.484375 17.410156 13.445312 14.246094 13.578125 13.960938 C 13.726562 13.644531 13.894531 13.414062 14.164062 13.160156 C 14.84375 12.523438 15.785156 12.320312 16.652344 12.621094 C 16.746094 12.652344 16.824219 12.675781 16.832031 12.667969 C 16.851562 12.648438 16.980469 11.863281 17.023438 11.488281 C 17.144531 10.421875 17.171875 9.042969 17.085938 8.496094 C 16.699219 6.066406 14.953125 4.230469 12.46875 3.644531 C 11.488281 3.414062 10.296875 3.429688 9.332031 3.683594 C 6.871094 4.332031 5.058594 6.390625 4.804688 8.816406 C 4.761719 9.234375 4.789062 10.777344 4.847656 11.347656 C 4.910156 11.921875 5.011719 12.660156 5.03125 12.6875 C 5.042969 12.699219 5.140625 12.671875 5.25 12.625 C 5.722656 12.425781 6.367188 12.398438 6.851562 12.550781 C 7.601562 12.789062 8.191406 13.339844 8.484375 14.070312 C 8.589844 14.324219 9.542969 17.496094 9.574219 17.683594 C 9.617188 17.9375 9.609375 18.40625 9.5625 18.628906 C 9.371094 19.523438 8.792969 20.1875 7.957031 20.460938 C 7.613281 20.574219 7.105469 20.601562 6.757812 20.53125 C 5.988281 20.371094 5.304688 19.832031 4.964844 19.117188 C 4.90625 19 4.714844 18.421875 4.539062 17.835938 C 4.359375 17.246094 4.144531 16.539062 4.054688 16.261719 C 3.277344 13.796875 2.828125 11.414062 2.773438 9.460938 C 2.757812 8.824219 2.785156 8.445312 2.878906 7.964844 C 3.359375 5.582031 5.175781 3.335938 7.546875 2.191406 C 8.753906 1.609375 9.945312 1.351562 11.222656 1.394531 C 12.960938 1.457031 14.574219 2.054688 16.046875 3.191406 C 16.433594 3.492188 17.195312 4.242188 17.503906 4.628906 C 18.703125 6.140625 19.316406 7.886719 19.238281 9.585938 C 19.167969 11.132812 18.9375 12.636719 18.5 14.414062 C 18.285156 15.277344 18.007812 16.234375 17.902344 16.46875 C 17.878906 16.515625 17.695312 17.101562 17.492188 17.773438 C 17.097656 19.066406 17.011719 19.277344 16.746094 19.628906 C 16.304688 20.195312 15.625 20.5625 14.910156 20.605469 C 14.777344 20.613281 14.585938 20.609375 14.484375 20.59375 Z M 14.484375 20.59375 "/>
</g>
</svg>
