<?xml version="1.0" encoding="UTF-8"?>
<svg xmlns="http://www.w3.org/2000/svg" xmlns:xlink="http://www.w3.org/1999/xlink" width="22" height="22" viewBox="0 0 22 22" version="1.1">
<g id="surface1">
<path style=" stroke:none;fill-rule:nonzero;fill:rgb(74.509804%,74.509804%,74.509804%);fill-opacity:1;" d="M 4.34375 5.5 C 1.945312 5.5 0.00390625 7.960938 0.00390625 11 C 0.00390625 14.039062 1.945312 16.5 4.34375 16.5 C 6.746094 16.5 8.683594 14.039062 8.683594 11 C 8.683594 7.960938 6.746094 5.5 4.34375 5.5 Z M 4.128906 8.25 L 5.503906 8.25 L 5.503906 9.625 L 6.878906 9.625 L 6.878906 11 L 5.503906 11 L 5.503906 12.375 L 4.128906 12.375 L 4.128906 11 L 2.753906 11 L 2.753906 9.625 L 4.128906 9.625 Z M 4.128906 8.25 "/>
<path style=" stroke:none;fill-rule:nonzero;fill:rgb(74.509804%,74.509804%,74.509804%);fill-opacity:1;" d="M 17.65625 5.5 C 15.253906 5.5 13.316406 7.960938 13.316406 11 C 13.316406 14.039062 15.253906 16.5 17.65625 16.5 C 20.054688 16.5 21.996094 14.039062 21.996094 11 C 21.996094 7.960938 20.054688 5.5 17.65625 5.5 Z M 15.808594 7.5625 C 16.566406 7.5625 17.183594 8.179688 17.183594 8.9375 C 17.183594 9.695312 16.566406 10.3125 15.808594 10.3125 C 15.046875 10.3125 14.433594 9.695312 14.433594 8.9375 C 14.433594 8.179688 15.046875 7.5625 15.808594 7.5625 Z M 18.558594 10.3125 C 19.316406 10.3125 19.933594 10.929688 19.933594 11.6875 C 19.933594 12.445312 19.316406 13.0625 18.558594 13.0625 C 17.796875 13.0625 17.183594 12.445312 17.183594 11.6875 C 17.183594 10.929688 17.796875 10.3125 18.558594 10.3125 Z M 18.558594 10.3125 "/>
<path style=" stroke:none;fill-rule:nonzero;fill:rgb(74.509804%,74.509804%,74.509804%);fill-opacity:1;" d="M 4.125 5.5 L 4.125 8.25 L 5.5 8.25 L 5.5 9.625 L 6.875 9.625 L 6.875 11 L 5.5 11 L 5.5 12.375 L 4.125 12.375 L 4.125 13.75 L 17.875 13.75 L 17.746094 12.90625 C 17.347656 12.667969 16.882812 12.171875 16.882812 11.671875 C 16.882812 11.167969 17.371094 10.597656 17.773438 10.359375 L 17.871094 5.488281 Z M 15.8125 7.5625 C 16.570312 7.5625 17.1875 8.179688 17.1875 8.9375 C 17.1875 9.695312 16.570312 10.3125 15.8125 10.3125 C 15.054688 10.3125 14.4375 9.695312 14.4375 8.9375 C 14.4375 8.179688 15.054688 7.5625 15.8125 7.5625 Z M 15.8125 7.5625 "/>
<path style=" stroke:none;fill-rule:nonzero;fill:rgb(100%,100%,100%);fill-opacity:1;" d="M 3.746094 16.4375 C 2.035156 16.128906 0.617188 14.546875 0.171875 12.445312 C 0.0585938 11.917969 0.0273438 11.617188 0.03125 10.992188 C 0.03125 10.324219 0.0742188 9.941406 0.214844 9.359375 C 0.484375 8.261719 0.996094 7.34375 1.75 6.617188 C 2.335938 6.054688 2.960938 5.71875 3.726562 5.566406 C 3.957031 5.519531 4.386719 5.515625 11.007812 5.515625 C 17.796875 5.515625 18.054688 5.515625 18.300781 5.570312 C 19.609375 5.84375 20.699219 6.773438 21.367188 8.183594 C 21.757812 9.003906 21.941406 9.800781 21.96875 10.796875 C 21.996094 11.789062 21.863281 12.582031 21.535156 13.4375 C 21.1875 14.335938 20.542969 15.214844 19.851562 15.730469 C 19.371094 16.089844 18.769531 16.351562 18.214844 16.441406 C 17.847656 16.503906 17.210938 16.484375 16.882812 16.402344 C 15.675781 16.101562 14.722656 15.300781 14.03125 14.007812 L 13.882812 13.730469 L 8.105469 13.730469 L 7.996094 13.949219 C 7.734375 14.476562 7.378906 14.960938 6.933594 15.390625 C 6.335938 15.960938 5.671875 16.308594 4.910156 16.4375 C 4.601562 16.492188 4.050781 16.492188 3.746094 16.4375 Z M 19.015625 12.988281 C 19.582031 12.777344 19.933594 12.28125 19.933594 11.6875 C 19.933594 11.007812 19.484375 10.472656 18.796875 10.328125 C 18.605469 10.289062 18.542969 10.289062 18.367188 10.320312 C 17.804688 10.414062 17.359375 10.808594 17.222656 11.332031 C 17.09375 11.828125 17.261719 12.394531 17.636719 12.71875 C 17.78125 12.847656 18.105469 13.007812 18.289062 13.046875 C 18.480469 13.089844 18.824219 13.058594 19.015625 12.988281 Z M 5.515625 11.6875 L 5.515625 11.003906 L 6.878906 11.003906 L 6.878906 9.613281 L 5.515625 9.613281 L 5.515625 8.253906 L 4.128906 8.253906 L 4.128906 9.613281 L 2.738281 9.613281 L 2.738281 11.003906 L 4.128906 11.003906 L 4.128906 12.367188 L 5.515625 12.367188 Z M 16.078125 10.285156 C 16.722656 10.148438 17.179688 9.59375 17.179688 8.953125 C 17.179688 8.164062 16.585938 7.570312 15.800781 7.570312 C 15.269531 7.570312 14.808594 7.863281 14.570312 8.347656 C 14.136719 9.238281 14.792969 10.285156 15.804688 10.320312 C 15.851562 10.324219 15.972656 10.304688 16.078125 10.285156 Z M 16.078125 10.285156 "/>
</g>
</svg>
