<?xml version="1.0" encoding="UTF-8"?>
<svg xmlns="http://www.w3.org/2000/svg" xmlns:xlink="http://www.w3.org/1999/xlink" width="22" height="22" viewBox="0 0 22 22" version="1.1">
<g id="surface1">
<path style=" stroke:none;fill-rule:nonzero;fill:rgb(74.509804%,74.509804%,74.509804%);fill-opacity:1;" d="M 1.375 2.75 C 0.613281 2.75 0 3.363281 0 4.125 L 0 17.875 C 0 18.636719 0.613281 19.25 1.375 19.25 L 20.625 19.25 C 21.386719 19.25 22 18.636719 22 17.875 L 22 4.125 C 22 3.363281 21.386719 2.75 20.625 2.75 Z M 2.75 5.5 L 5.5 5.5 L 5.5 8.25 L 2.75 8.25 Z M 6.875 5.5 L 9.625 5.5 L 9.625 8.25 L 6.875 8.25 Z M 11 5.5 L 13.75 5.5 L 13.75 8.25 L 11 8.25 Z M 15.125 5.5 L 17.875 5.5 L 17.875 8.25 L 15.125 8.25 Z M 4.125 9.625 L 6.875 9.625 L 6.875 12.375 L 4.125 12.375 Z M 8.25 9.625 L 11 9.625 L 11 12.375 L 8.25 12.375 Z M 12.375 9.625 L 15.125 9.625 L 15.125 12.375 L 12.375 12.375 Z M 16.5 9.625 L 19.25 9.625 L 19.25 12.375 L 16.5 12.375 Z M 2.75 13.75 L 5.5 13.75 L 5.5 16.5 L 2.75 16.5 Z M 6.875 13.75 L 15.125 13.75 L 15.125 16.5 L 6.875 16.5 Z M 16.5 13.75 L 20.625 13.75 L 20.625 16.5 L 16.5 16.5 Z M 16.5 13.75 "/>
<path style=" stroke:none;fill-rule:nonzero;fill:rgb(100%,100%,100%);fill-opacity:1;" d="M 1.007812 19.191406 C 0.542969 19.0625 0.144531 18.640625 0.0429688 18.164062 C 0.0234375 18.054688 0.0117188 15.992188 0.0117188 10.980469 C 0.0117188 3.285156 0 3.796875 0.175781 3.476562 C 0.34375 3.171875 0.601562 2.953125 0.953125 2.828125 L 1.132812 2.761719 L 10.839844 2.753906 C 17.066406 2.75 20.625 2.757812 20.773438 2.773438 C 21.09375 2.8125 21.335938 2.925781 21.5625 3.144531 C 21.757812 3.332031 21.863281 3.5 21.929688 3.742188 C 21.972656 3.882812 21.976562 4.574219 21.96875 11.0625 L 21.960938 18.226562 L 21.855469 18.449219 C 21.675781 18.828125 21.363281 19.089844 20.964844 19.191406 C 20.71875 19.257812 1.242188 19.253906 1.007812 19.191406 Z M 5.511719 15.128906 L 5.503906 13.742188 L 2.75 13.742188 L 2.742188 15.128906 L 2.738281 16.511719 L 5.519531 16.511719 Z M 15.136719 15.121094 L 15.136719 13.730469 L 11 13.738281 L 6.867188 13.742188 L 6.859375 15.09375 C 6.855469 15.832031 6.855469 16.457031 6.863281 16.476562 C 6.875 16.503906 7.730469 16.511719 11.007812 16.511719 L 15.136719 16.511719 Z M 20.636719 15.128906 L 20.628906 13.742188 L 18.5625 13.738281 L 16.5 13.730469 L 16.5 16.511719 L 20.640625 16.511719 Z M 6.878906 11.003906 L 6.878906 9.613281 L 4.128906 9.613281 L 4.128906 12.394531 L 6.878906 12.394531 Z M 11.007812 11.003906 L 11.007812 9.628906 L 8.242188 9.613281 L 8.242188 12.398438 L 11.007812 12.382812 Z M 15.136719 11.003906 L 15.136719 9.613281 L 12.355469 9.613281 L 12.355469 10.988281 C 12.355469 11.742188 12.363281 12.367188 12.375 12.378906 C 12.386719 12.386719 13.011719 12.394531 13.765625 12.394531 L 15.136719 12.394531 Z M 19.253906 11.003906 L 19.253906 9.613281 L 16.5 9.613281 L 16.5 12.394531 L 19.253906 12.394531 Z M 5.515625 6.878906 L 5.515625 5.5 L 2.738281 5.5 L 2.738281 8.253906 L 5.515625 8.253906 Z M 9.632812 6.878906 L 9.632812 5.5 L 6.851562 5.5 L 6.851562 6.859375 C 6.851562 7.605469 6.859375 8.222656 6.871094 8.234375 C 6.882812 8.246094 7.507812 8.253906 8.261719 8.253906 L 9.632812 8.253906 Z M 13.746094 6.878906 L 13.746094 5.5 L 10.996094 5.5 L 10.996094 8.253906 L 13.746094 8.253906 Z M 17.890625 6.878906 L 17.890625 5.5 L 15.109375 5.5 L 15.109375 8.253906 L 17.890625 8.253906 Z M 17.890625 6.878906 "/>
</g>
</svg>
