<?xml version="1.0" encoding="UTF-8"?>
<svg xmlns="http://www.w3.org/2000/svg" xmlns:xlink="http://www.w3.org/1999/xlink" width="22" height="22" viewBox="0 0 22 22" version="1.1">
<g id="surface1">
<path style=" stroke:none;fill-rule:nonzero;fill:rgb(74.509804%,74.509804%,74.509804%);fill-opacity:1;" d="M 4.085938 1.375 C 2.605469 1.375 1.375 2.605469 1.375 4.082031 L 1.375 17.101562 L 1.804688 17.488281 L 4.125 19.808594 L 4.125 4.125 L 17.875 4.125 L 17.875 17.875 L 15.125 17.875 L 15.125 20.625 L 17.917969 20.625 C 19.398438 20.625 20.625 19.398438 20.625 17.917969 L 20.625 4.082031 C 20.625 2.597656 19.402344 1.375 17.917969 1.375 Z M 4.085938 1.375 "/>
<path style=" stroke:none;fill-rule:nonzero;fill:rgb(74.509804%,74.509804%,74.509804%);fill-opacity:1;" d="M 6.875 12.375 C 6.113281 12.375 5.5 12.988281 5.5 13.75 L 5.5 19.25 C 5.5 20.011719 6.113281 20.625 6.875 20.625 L 12.375 20.625 C 13.136719 20.625 13.75 20.011719 13.75 19.25 L 13.75 13.75 C 13.75 12.988281 13.136719 12.375 12.375 12.375 Z M 6.875 13.75 L 9.625 13.75 L 9.625 19.25 L 6.875 19.25 Z M 6.875 13.75 "/>
<path style=" stroke:none;fill-rule:nonzero;fill:rgb(100%,100%,100%);fill-opacity:1;" d="M 6.667969 20.59375 C 6.117188 20.503906 5.699219 20.125 5.554688 19.589844 C 5.527344 19.476562 5.519531 18.878906 5.519531 16.496094 C 5.515625 13.269531 5.511719 13.429688 5.679688 13.09375 C 5.789062 12.875 6.046875 12.640625 6.304688 12.515625 L 6.523438 12.410156 L 9.5625 12.402344 C 12.519531 12.394531 12.601562 12.398438 12.78125 12.449219 C 13.246094 12.59375 13.601562 12.984375 13.703125 13.464844 C 13.765625 13.75 13.765625 19.242188 13.707031 19.523438 C 13.585938 20.089844 13.136719 20.515625 12.570312 20.59375 C 12.328125 20.628906 6.875 20.628906 6.667969 20.59375 Z M 9.632812 16.496094 L 9.632812 13.730469 L 8.25 13.738281 L 6.867188 13.742188 L 6.859375 16.46875 C 6.855469 17.964844 6.855469 19.207031 6.863281 19.226562 C 6.875 19.253906 7.179688 19.261719 8.253906 19.261719 L 9.632812 19.261719 Z M 9.632812 16.496094 "/>
<path style=" stroke:none;fill-rule:nonzero;fill:rgb(100%,100%,100%);fill-opacity:1;" d="M 15.136719 19.25 L 15.136719 17.871094 L 17.890625 17.871094 L 17.890625 4.109375 L 4.128906 4.109375 L 4.128906 19.785156 L 2.859375 18.523438 C 2.160156 17.828125 1.539062 17.222656 1.480469 17.179688 L 1.375 17.097656 L 1.375 10.609375 C 1.375 6.289062 1.382812 4.019531 1.40625 3.828125 C 1.46875 3.1875 1.730469 2.640625 2.195312 2.179688 C 2.582031 1.792969 3.039062 1.550781 3.578125 1.4375 C 3.832031 1.386719 4.054688 1.386719 11.101562 1.394531 L 18.359375 1.402344 L 18.585938 1.464844 C 19.542969 1.734375 20.265625 2.457031 20.535156 3.414062 L 20.597656 3.640625 L 20.609375 10.878906 C 20.613281 15.886719 20.605469 18.175781 20.585938 18.3125 C 20.453125 19.1875 19.863281 19.96875 19.046875 20.355469 C 18.519531 20.605469 18.519531 20.605469 16.71875 20.617188 L 15.136719 20.628906 Z M 15.136719 19.25 "/>
</g>
</svg>
