<?xml version="1.0" encoding="UTF-8"?>
<svg xmlns="http://www.w3.org/2000/svg" xmlns:xlink="http://www.w3.org/1999/xlink" width="22" height="22" viewBox="0 0 22 22" version="1.1">
<g id="surface1">
<path style=" stroke:none;fill-rule:nonzero;fill:rgb(74.509804%,74.509804%,74.509804%);fill-opacity:1;" d="M 4.386719 0 C 2.734375 0 1.378906 1.359375 1.378906 3.007812 L 1.378906 18.992188 C 1.378906 20.640625 2.734375 22 4.386719 22 L 17.621094 22 C 19.273438 22 20.628906 20.640625 20.628906 18.992188 L 20.628906 3.007812 C 20.628906 1.359375 19.273438 0 17.621094 0 Z M 4.386719 2.75 L 17.621094 2.75 C 17.792969 2.75 17.878906 2.828125 17.878906 3.007812 L 17.878906 18.992188 C 17.878906 19.171875 17.792969 19.25 17.621094 19.25 L 4.386719 19.25 C 4.214844 19.25 4.128906 19.171875 4.128906 18.992188 L 4.128906 3.007812 C 4.128906 2.828125 4.214844 2.75 4.386719 2.75 Z M 4.386719 2.75 "/>
<path style=" stroke:none;fill-rule:nonzero;fill:rgb(74.509804%,74.509804%,74.509804%);fill-opacity:1;" d="M 10.78125 4.125 C 10.414062 4.140625 10.03125 4.207031 9.664062 4.296875 C 6.714844 5.027344 4.9375 8.007812 5.667969 10.957031 C 6.285156 13.457031 8.519531 15.113281 10.980469 15.117188 C 11.214844 15.117188 11.445312 15.101562 11.679688 15.074219 L 11.144531 10.976562 C 11.097656 10.992188 11.050781 11 10.996094 11 C 10.234375 11 9.621094 10.386719 9.621094 9.625 C 9.621094 8.863281 10.234375 8.25 10.996094 8.25 C 11.753906 8.25 12.371094 8.863281 12.371094 9.625 C 12.371094 9.785156 12.332031 9.933594 12.269531 10.070312 L 15.984375 11.980469 C 16.515625 10.835938 16.628906 9.53125 16.324219 8.292969 C 15.683594 5.710938 13.335938 4.019531 10.78125 4.125 Z M 10.78125 4.125 "/>
<path style=" stroke:none;fill-rule:nonzero;fill:rgb(74.509804%,74.509804%,74.509804%);fill-opacity:1;" d="M 11.90625 11 L 13.75 16.5 C 14.757812 19.328125 17.875 17.027344 15.808594 15.125 Z M 11.90625 11 "/>
<path style=" stroke:none;fill-rule:nonzero;fill:rgb(100%,100%,100%);fill-opacity:1;" d="M 10.609375 15.089844 C 9.535156 15.023438 8.429688 14.59375 7.578125 13.910156 C 5.011719 11.855469 4.808594 8.042969 7.144531 5.722656 C 8.15625 4.714844 9.570312 4.140625 11.023438 4.140625 C 13.289062 4.140625 15.320312 5.550781 16.117188 7.671875 C 16.597656 8.953125 16.589844 10.421875 16.097656 11.675781 L 15.984375 11.972656 L 15.554688 11.75 C 15.316406 11.625 14.492188 11.203125 13.71875 10.804688 C 12.945312 10.410156 12.308594 10.085938 12.304688 10.082031 C 12.296875 10.078125 12.316406 9.984375 12.34375 9.878906 C 12.488281 9.292969 12.160156 8.65625 11.5625 8.371094 C 11.351562 8.269531 11.34375 8.265625 10.996094 8.265625 C 10.644531 8.265625 10.636719 8.269531 10.425781 8.371094 C 9.683594 8.726562 9.40625 9.539062 9.777344 10.273438 C 9.992188 10.699219 10.492188 11.003906 10.972656 11.003906 C 11.132812 11.003906 11.132812 11.007812 11.148438 11.097656 C 11.160156 11.148438 11.273438 12.027344 11.40625 13.050781 C 11.539062 14.070312 11.652344 14.941406 11.660156 14.984375 C 11.671875 15.054688 11.664062 15.0625 11.554688 15.074219 C 11.3125 15.105469 10.945312 15.109375 10.609375 15.089844 Z M 10.609375 15.089844 "/>
<path style=" stroke:none;fill-rule:nonzero;fill:rgb(100%,100%,100%);fill-opacity:1;" d="M 14.914062 17.773438 C 14.492188 17.652344 14.164062 17.351562 13.902344 16.828125 C 13.804688 16.632812 11.945312 11.125 11.96875 11.101562 C 11.980469 11.089844 15.703125 15.007812 16.011719 15.355469 C 16.25 15.625 16.429688 15.992188 16.472656 16.289062 C 16.585938 17.058594 16.023438 17.757812 15.265625 17.804688 C 15.140625 17.8125 15.011719 17.800781 14.914062 17.773438 Z M 14.914062 17.773438 "/>
<path style=" stroke:none;fill-rule:nonzero;fill:rgb(100%,100%,100%);fill-opacity:1;" d="M 4 21.96875 C 3.222656 21.863281 2.472656 21.421875 2 20.792969 C 1.644531 20.320312 1.449219 19.789062 1.402344 19.164062 C 1.382812 18.925781 1.375 15.945312 1.382812 10.722656 L 1.390625 2.648438 L 1.449219 2.394531 C 1.726562 1.199219 2.640625 0.304688 3.828125 0.0625 C 4.074219 0.0117188 4.417969 0.0117188 11.007812 0.0117188 C 17.601562 0.0117188 17.945312 0.0117188 18.171875 0.0625 C 19.347656 0.316406 20.207031 1.121094 20.523438 2.261719 L 20.597656 2.535156 L 20.609375 10.863281 C 20.613281 16.953125 20.609375 19.253906 20.585938 19.417969 C 20.402344 20.6875 19.394531 21.722656 18.121094 21.945312 C 17.914062 21.980469 16.933594 21.988281 10.984375 21.984375 C 7.1875 21.980469 4.046875 21.972656 4 21.96875 Z M 17.757812 19.230469 C 17.796875 19.214844 17.84375 19.164062 17.859375 19.125 C 17.882812 19.070312 17.886719 16.695312 17.882812 10.953125 L 17.875 2.855469 L 17.808594 2.800781 C 17.742188 2.75 17.59375 2.746094 11.007812 2.746094 L 4.277344 2.746094 L 4.203125 2.808594 L 4.128906 2.867188 L 4.128906 10.980469 C 4.128906 16.667969 4.136719 19.113281 4.15625 19.152344 C 4.175781 19.183594 4.214844 19.222656 4.25 19.234375 C 4.347656 19.273438 17.671875 19.269531 17.757812 19.230469 Z M 17.757812 19.230469 "/>
</g>
</svg>
