<?xml version="1.0" encoding="UTF-8"?>
<svg xmlns="http://www.w3.org/2000/svg" xmlns:xlink="http://www.w3.org/1999/xlink" width="22" height="22" viewBox="0 0 22 22" version="1.1">
<g id="surface1">
<path style=" stroke:none;fill-rule:nonzero;fill:rgb(74.509804%,74.509804%,74.509804%);fill-opacity:1;" d="M 10.988281 1.375 C 5.703125 1.375 1.371094 5.707031 1.371094 10.992188 C 1.371094 16.273438 5.703125 20.636719 10.988281 20.636719 C 16.269531 20.636719 20.632812 16.273438 20.632812 10.992188 C 20.632812 5.707031 16.269531 1.375 10.988281 1.375 Z M 10.988281 6.886719 C 13.296875 6.886719 15.121094 8.679688 15.121094 10.992188 C 15.121094 13.300781 13.296875 15.125 10.988281 15.125 C 8.675781 15.125 6.882812 13.300781 6.882812 10.992188 C 6.882812 8.679688 8.675781 6.886719 10.988281 6.886719 Z M 10.988281 6.886719 "/>
<path style=" stroke:none;fill-rule:nonzero;fill:rgb(74.509804%,74.509804%,74.509804%);fill-opacity:1;" d="M 11.011719 8.261719 C 9.503906 8.261719 8.246094 9.5 8.246094 11.007812 C 8.246094 12.519531 9.503906 13.753906 11.011719 13.753906 C 12.523438 13.753906 13.757812 12.519531 13.757812 11.007812 C 13.757812 9.5 12.523438 8.261719 11.011719 8.261719 Z M 11.011719 9.636719 C 11.78125 9.636719 12.386719 10.242188 12.386719 11.007812 C 12.386719 11.777344 11.78125 12.382812 11.011719 12.382812 C 10.246094 12.382812 9.640625 11.777344 9.640625 11.007812 C 9.640625 10.242188 10.246094 9.636719 11.011719 9.636719 Z M 11.011719 9.636719 "/>
<path style=" stroke:none;fill-rule:nonzero;fill:rgb(100%,100%,100%);fill-opacity:1;" d="M 10.765625 13.726562 C 9.625 13.632812 8.644531 12.804688 8.335938 11.671875 C 8.246094 11.335938 8.246094 10.6875 8.335938 10.351562 C 8.554688 9.546875 9.09375 8.898438 9.835938 8.546875 C 10.269531 8.339844 10.460938 8.300781 11.023438 8.300781 C 11.464844 8.300781 11.527344 8.304688 11.753906 8.375 C 12.515625 8.609375 13.117188 9.109375 13.457031 9.792969 C 13.984375 10.859375 13.773438 12.113281 12.925781 12.949219 C 12.347656 13.523438 11.597656 13.792969 10.765625 13.726562 Z M 11.316406 12.351562 C 12.222656 12.140625 12.660156 11.167969 12.222656 10.34375 C 11.789062 9.53125 10.640625 9.386719 10.011719 10.0625 C 9.757812 10.335938 9.644531 10.621094 9.640625 10.996094 C 9.640625 11.398438 9.769531 11.714844 10.046875 11.992188 C 10.382812 12.324219 10.859375 12.460938 11.316406 12.351562 Z M 11.316406 12.351562 "/>
<path style=" stroke:none;fill-rule:nonzero;fill:rgb(100%,100%,100%);fill-opacity:1;" d="M 10.339844 20.609375 C 9.167969 20.492188 8.460938 20.332031 7.574219 19.988281 C 6.308594 19.492188 5.269531 18.820312 4.296875 17.867188 C 2.628906 16.238281 1.628906 14.132812 1.417969 11.828125 C 1.351562 11.074219 1.394531 10.066406 1.53125 9.304688 C 2.0625 6.339844 4.003906 3.757812 6.730469 2.390625 C 8.511719 1.496094 10.554688 1.191406 12.539062 1.515625 C 15.644531 2.027344 18.324219 4.046875 19.691406 6.898438 C 20.824219 9.265625 20.925781 11.996094 19.972656 14.441406 C 19.707031 15.128906 19.25 15.964844 18.828125 16.554688 C 18.375 17.183594 17.582031 18.027344 17.023438 18.472656 C 15.574219 19.628906 13.945312 20.324219 12.144531 20.554688 C 11.808594 20.597656 10.601562 20.632812 10.339844 20.609375 Z M 11.890625 15.039062 C 12.265625 14.953125 12.550781 14.847656 12.910156 14.660156 C 14.277344 13.960938 15.121094 12.558594 15.121094 10.992188 C 15.121094 9.023438 13.816406 7.402344 11.886719 6.972656 C 11.628906 6.914062 11.515625 6.90625 10.996094 6.90625 C 10.332031 6.90625 10.144531 6.933594 9.628906 7.105469 C 8.484375 7.484375 7.5625 8.378906 7.128906 9.527344 C 6.929688 10.0625 6.835938 10.761719 6.890625 11.351562 C 7.066406 13.269531 8.414062 14.746094 10.300781 15.078125 C 10.625 15.136719 11.574219 15.113281 11.890625 15.039062 Z M 11.890625 15.039062 "/>
</g>
</svg>
