<?xml version="1.0" encoding="UTF-8"?>
<svg xmlns="http://www.w3.org/2000/svg" xmlns:xlink="http://www.w3.org/1999/xlink" width="22" height="22" viewBox="0 0 22 22" version="1.1">
<g id="surface1">
<path style=" stroke:none;fill-rule:nonzero;fill:rgb(74.509804%,74.509804%,74.509804%);fill-opacity:1;" d="M 4.894531 2.75 C 3.726562 2.75 2.75 3.726562 2.75 4.894531 L 2.75 17.097656 C 2.75 18.265625 3.730469 19.246094 4.898438 19.246094 L 15.726562 19.246094 C 16.894531 19.246094 17.875 18.265625 17.875 17.097656 L 17.875 5.667969 L 17.488281 5.28125 L 15.511719 3.175781 L 15.128906 2.738281 L 14.519531 2.738281 Z M 5.496094 5.5 L 13.917969 5.5 L 15.128906 6.792969 L 15.128906 16.5 L 5.503906 16.5 Z M 5.496094 5.5 "/>
<path style=" stroke:none;fill-rule:nonzero;fill:rgb(74.509804%,74.509804%,74.509804%);fill-opacity:1;" d="M 8.152344 6.972656 L 12.460938 6.972656 C 13.171875 6.972656 13.746094 7.542969 13.746094 8.253906 L 13.746094 11.074219 C 13.746094 11.785156 13.171875 12.355469 12.460938 12.355469 L 8.152344 12.355469 C 7.441406 12.355469 6.871094 11.785156 6.871094 11.074219 L 6.871094 8.253906 C 6.871094 7.539062 7.449219 6.976562 8.148438 6.976562 Z M 8.152344 6.972656 "/>
<path style=" stroke:none;fill-rule:nonzero;fill:rgb(100%,100%,100%);fill-opacity:1;" d="M 7.832031 12.308594 C 7.546875 12.238281 7.1875 11.960938 7.039062 11.6875 C 6.882812 11.402344 6.878906 11.351562 6.878906 9.679688 C 6.878906 8.660156 6.890625 8.09375 6.910156 7.992188 C 7.019531 7.480469 7.433594 7.089844 7.957031 7.007812 C 8.074219 6.988281 8.964844 6.976562 10.355469 6.976562 C 12.230469 6.976562 12.597656 6.984375 12.75 7.019531 C 13.269531 7.140625 13.648438 7.5625 13.71875 8.089844 C 13.753906 8.367188 13.753906 10.992188 13.71875 11.246094 C 13.644531 11.738281 13.308594 12.140625 12.835938 12.285156 C 12.671875 12.335938 12.542969 12.339844 10.304688 12.335938 C 8.996094 12.335938 7.894531 12.320312 7.832031 12.308594 Z M 7.832031 12.308594 "/>
<path style=" stroke:none;fill-rule:nonzero;fill:rgb(100%,100%,100%);fill-opacity:1;" d="M 4.476562 19.191406 C 3.804688 19.046875 3.246094 18.589844 2.953125 17.953125 C 2.75 17.511719 2.761719 18.035156 2.773438 10.90625 L 2.78125 4.492188 L 2.847656 4.292969 C 3.09375 3.558594 3.636719 3.035156 4.378906 2.824219 L 4.59375 2.761719 L 9.863281 2.753906 L 15.128906 2.746094 L 15.308594 2.953125 C 15.539062 3.222656 17.398438 5.203125 17.660156 5.457031 L 17.863281 5.65625 L 17.859375 11.488281 C 17.859375 17.796875 17.867188 17.480469 17.710938 17.871094 C 17.59375 18.160156 17.460938 18.355469 17.222656 18.597656 C 16.902344 18.917969 16.5625 19.101562 16.136719 19.195312 C 15.863281 19.25 4.746094 19.25 4.476562 19.191406 Z M 15.136719 11.648438 L 15.136719 6.789062 L 13.933594 5.5 L 5.488281 5.5 L 5.488281 16.511719 L 15.136719 16.511719 Z M 15.136719 11.648438 "/>
</g>
</svg>
