<?xml version="1.0" encoding="UTF-8"?>
<svg xmlns="http://www.w3.org/2000/svg" xmlns:xlink="http://www.w3.org/1999/xlink" width="22" height="22" viewBox="0 0 22 22" version="1.1">
<g id="surface1">
<path style=" stroke:none;fill-rule:nonzero;fill:rgb(74.509804%,74.509804%,74.509804%);fill-opacity:1;" d="M 10.988281 1.375 C 5.703125 1.375 1.371094 5.707031 1.371094 10.992188 C 1.371094 16.273438 5.703125 20.636719 10.988281 20.636719 C 16.269531 20.636719 20.632812 16.273438 20.632812 10.992188 C 20.632812 5.707031 16.269531 1.375 10.988281 1.375 Z M 10.988281 6.886719 C 13.296875 6.886719 15.121094 8.679688 15.121094 10.992188 C 15.121094 13.300781 13.296875 15.125 10.988281 15.125 C 8.675781 15.125 6.882812 13.300781 6.882812 10.992188 C 6.882812 8.679688 8.675781 6.886719 10.988281 6.886719 Z M 10.988281 6.886719 "/>
<path style=" stroke:none;fill-rule:nonzero;fill:rgb(74.509804%,74.509804%,74.509804%);fill-opacity:1;" d="M 11.011719 8.261719 C 9.503906 8.261719 8.246094 9.5 8.246094 11.007812 C 8.246094 12.519531 9.503906 13.753906 11.011719 13.753906 C 12.523438 13.753906 13.757812 12.519531 13.757812 11.007812 C 13.757812 9.5 12.523438 8.261719 11.011719 8.261719 Z M 11.011719 9.636719 C 11.78125 9.636719 12.386719 10.242188 12.386719 11.007812 C 12.386719 11.777344 11.78125 12.382812 11.011719 12.382812 C 10.246094 12.382812 9.640625 11.777344 9.640625 11.007812 C 9.640625 10.242188 10.246094 9.636719 11.011719 9.636719 Z M 11.011719 9.636719 "/>
<path style=" stroke:none;fill-rule:nonzero;fill:rgb(100%,100%,100%);fill-opacity:1;" d="M 10.554688 13.707031 C 10.058594 13.621094 9.625 13.414062 9.214844 13.074219 C 8.8125 12.742188 8.480469 12.210938 8.339844 11.683594 C 8.257812 11.367188 8.238281 10.878906 8.296875 10.550781 C 8.398438 9.980469 8.644531 9.515625 9.0625 9.09375 C 9.53125 8.628906 10.070312 8.367188 10.730469 8.289062 C 12.128906 8.128906 13.457031 9.128906 13.710938 10.542969 C 13.757812 10.789062 13.75 11.292969 13.699219 11.527344 C 13.476562 12.59375 12.71875 13.390625 11.664062 13.664062 C 11.390625 13.738281 10.839844 13.757812 10.554688 13.707031 Z M 11.457031 12.316406 C 12.417969 11.984375 12.707031 10.765625 11.996094 10.046875 C 11.554688 9.605469 10.949219 9.507812 10.382812 9.785156 C 9.929688 10.007812 9.640625 10.480469 9.640625 10.996094 C 9.640625 11.25 9.671875 11.390625 9.78125 11.625 C 9.949219 11.972656 10.28125 12.242188 10.675781 12.347656 C 10.863281 12.398438 11.261719 12.382812 11.457031 12.316406 Z M 11.457031 12.316406 "/>
<path style=" stroke:none;fill-rule:nonzero;fill:rgb(100%,100%,100%);fill-opacity:1;" d="M 10.59375 20.621094 C 8.203125 20.503906 6.019531 19.554688 4.308594 17.890625 C 2.730469 16.347656 1.753906 14.40625 1.453125 12.1875 C 1.386719 11.695312 1.367188 10.648438 1.417969 10.132812 C 1.671875 7.484375 2.941406 5.144531 5.035156 3.464844 C 6.589844 2.222656 8.550781 1.488281 10.550781 1.398438 C 13.011719 1.289062 15.414062 2.121094 17.273438 3.734375 C 17.582031 4 18.195312 4.628906 18.429688 4.917969 C 20.535156 7.5 21.167969 10.835938 20.144531 13.964844 C 18.988281 17.492188 15.835938 20.097656 12.167969 20.554688 C 11.65625 20.617188 11.058594 20.644531 10.59375 20.621094 Z M 11.617188 15.082031 C 12.929688 14.890625 14.054688 14.089844 14.660156 12.914062 C 15.492188 11.296875 15.191406 9.324219 13.917969 8.0625 C 13.363281 7.515625 12.601562 7.117188 11.800781 6.953125 C 11.566406 6.90625 11.472656 6.902344 10.984375 6.902344 C 10.5 6.902344 10.402344 6.90625 10.191406 6.953125 C 9.828125 7.027344 9.582031 7.105469 9.3125 7.222656 C 8.082031 7.761719 7.246094 8.804688 6.957031 10.152344 C 6.898438 10.421875 6.894531 10.480469 6.894531 10.992188 C 6.894531 11.503906 6.898438 11.566406 6.957031 11.832031 C 7.203125 12.984375 7.855469 13.929688 8.816406 14.527344 C 9.625 15.027344 10.628906 15.226562 11.617188 15.082031 Z M 11.617188 15.082031 "/>
</g>
</svg>
