<?xml version="1.0" encoding="UTF-8"?>
<svg xmlns="http://www.w3.org/2000/svg" xmlns:xlink="http://www.w3.org/1999/xlink" width="22" height="22" viewBox="0 0 22 22" version="1.1">
<g id="surface1">
<path style=" stroke:none;fill-rule:nonzero;fill:rgb(74.509804%,74.509804%,74.509804%);fill-opacity:1;" d="M 7.523438 1.375 C 6.390625 1.375 5.5 2.265625 5.5 3.394531 L 5.5 18.605469 C 5.5 19.734375 6.390625 20.625 7.523438 20.625 L 14.570312 20.625 C 15.695312 20.625 16.589844 19.734375 16.589844 18.605469 L 16.589844 3.394531 C 16.589844 2.265625 15.695312 1.375 14.570312 1.375 Z M 6.878906 2.75 L 15.214844 2.75 L 15.214844 17.875 L 6.878906 17.875 Z M 6.878906 2.75 "/>
<path style=" stroke:none;fill-rule:nonzero;fill:rgb(100%,100%,100%);fill-opacity:1;" d="M 7.238281 20.59375 C 6.792969 20.535156 6.441406 20.355469 6.097656 20.011719 C 5.90625 19.824219 5.839844 19.734375 5.734375 19.515625 C 5.496094 19.039062 5.515625 19.796875 5.523438 10.914062 L 5.53125 2.988281 L 5.609375 2.769531 C 5.855469 2.042969 6.457031 1.527344 7.191406 1.414062 C 7.347656 1.390625 8.425781 1.386719 11.179688 1.390625 L 14.953125 1.402344 L 15.152344 1.46875 C 15.503906 1.585938 15.730469 1.722656 15.972656 1.96875 C 16.320312 2.316406 16.496094 2.664062 16.558594 3.136719 C 16.578125 3.285156 16.582031 5.945312 16.578125 11.148438 C 16.570312 18.523438 16.566406 18.945312 16.519531 19.105469 C 16.300781 19.839844 15.824219 20.324219 15.101562 20.546875 L 14.894531 20.609375 L 11.164062 20.613281 C 9.089844 20.617188 7.347656 20.609375 7.238281 20.59375 Z M 15.222656 10.308594 L 15.222656 2.746094 L 6.878906 2.746094 L 6.878906 17.871094 L 15.222656 17.871094 Z M 15.222656 10.308594 "/>
</g>
</svg>
