<?xml version="1.0" encoding="UTF-8"?>
<svg xmlns="http://www.w3.org/2000/svg" xmlns:xlink="http://www.w3.org/1999/xlink" width="22" height="22" viewBox="0 0 22 22" version="1.1">
<g id="surface1">
<path style=" stroke:none;fill-rule:nonzero;fill:rgb(74.509804%,74.509804%,74.509804%);fill-opacity:1;" d="M 6.144531 1.375 C 5.015625 1.375 4.125 2.265625 4.125 3.394531 L 4.125 18.605469 C 4.125 19.734375 5.015625 20.625 6.144531 20.625 L 15.855469 20.625 C 16.984375 20.625 17.875 19.734375 17.875 18.605469 L 17.875 3.394531 C 17.875 2.265625 16.984375 1.375 15.855469 1.375 Z M 5.5 2.75 L 16.5 2.75 L 16.5 9.625 L 5.5 9.625 Z M 11 11 C 13.277344 11 15.125 12.847656 15.125 15.125 C 15.125 17.402344 13.277344 19.25 11 19.25 C 8.722656 19.25 6.875 17.402344 6.875 15.125 C 6.875 12.847656 8.722656 11 11 11 Z M 11 11 "/>
<path style=" stroke:none;fill-rule:nonzero;fill:rgb(74.509804%,74.509804%,74.509804%);fill-opacity:1;" d="M 13.0625 15.125 C 13.0625 16.265625 12.140625 17.1875 11 17.1875 C 9.859375 17.1875 8.9375 16.265625 8.9375 15.125 C 8.9375 13.984375 9.859375 13.0625 11 13.0625 C 12.140625 13.0625 13.0625 13.984375 13.0625 15.125 Z M 13.0625 15.125 "/>
<path style=" stroke:none;fill-rule:nonzero;fill:rgb(100%,100%,100%);fill-opacity:1;" d="M 10.792969 17.160156 C 10.03125 17.089844 9.34375 16.558594 9.078125 15.832031 C 8.675781 14.734375 9.246094 13.558594 10.371094 13.171875 C 10.574219 13.101562 10.636719 13.09375 10.980469 13.09375 C 11.414062 13.089844 11.628906 13.140625 11.988281 13.328125 C 12.25 13.464844 12.632812 13.84375 12.78125 14.109375 C 13.410156 15.242188 12.875 16.648438 11.65625 17.066406 C 11.414062 17.148438 11.082031 17.183594 10.792969 17.160156 Z M 10.792969 17.160156 "/>
<path style=" stroke:none;fill-rule:nonzero;fill:rgb(100%,100%,100%);fill-opacity:1;" d="M 5.863281 20.59375 C 5.417969 20.535156 5.066406 20.355469 4.71875 20.011719 C 4.53125 19.824219 4.464844 19.734375 4.355469 19.515625 C 4.125 19.042969 4.140625 19.789062 4.140625 10.988281 C 4.140625 3.230469 4.140625 3.125 4.199219 2.902344 C 4.375 2.195312 4.914062 1.644531 5.621094 1.449219 C 5.789062 1.402344 6.121094 1.402344 11.023438 1.402344 L 16.246094 1.402344 L 16.460938 1.472656 C 17.234375 1.738281 17.742188 2.351562 17.847656 3.148438 C 17.867188 3.316406 17.875 5.667969 17.871094 11.160156 L 17.859375 18.9375 L 17.796875 19.148438 C 17.578125 19.851562 17.101562 20.328125 16.394531 20.546875 L 16.1875 20.609375 L 11.121094 20.613281 C 8.277344 20.617188 5.972656 20.609375 5.863281 20.59375 Z M 11.746094 19.191406 C 12.765625 18.996094 13.703125 18.410156 14.316406 17.589844 C 14.652344 17.140625 14.929688 16.523438 15.054688 15.945312 C 15.128906 15.601562 15.132812 14.671875 15.058594 14.324219 C 14.878906 13.488281 14.507812 12.800781 13.917969 12.210938 C 13.300781 11.59375 12.519531 11.1875 11.679688 11.046875 C 11.324219 10.988281 10.65625 10.988281 10.328125 11.046875 C 8.597656 11.351562 7.277344 12.640625 6.929688 14.371094 C 6.855469 14.753906 6.863281 15.546875 6.945312 15.933594 C 7.121094 16.757812 7.503906 17.460938 8.085938 18.042969 C 8.777344 18.734375 9.605469 19.125 10.640625 19.246094 C 10.835938 19.269531 11.511719 19.238281 11.746094 19.191406 Z M 16.511719 6.195312 L 16.511719 2.746094 L 5.503906 2.746094 L 5.503906 9.644531 L 16.511719 9.644531 Z M 16.511719 6.195312 "/>
</g>
</svg>
