<?xml version="1.0" encoding="UTF-8"?>
<svg xmlns="http://www.w3.org/2000/svg" xmlns:xlink="http://www.w3.org/1999/xlink" width="22" height="22" viewBox="0 0 22 22" version="1.1">
<defs>
<clipPath id="clip1">
  <path d="M 6.882812 11.128906 L 15.132812 11.128906 L 15.132812 13.753906 L 6.882812 13.753906 Z M 6.882812 11.128906 "/>
</clipPath>
<clipPath id="clip2">
  <path d="M 4.128906 6.917969 L 17.878906 6.917969 L 17.878906 11 L 4.128906 11 Z M 4.128906 6.917969 "/>
</clipPath>
<clipPath id="clip3">
  <path d="M 1.378906 2.835938 L 20.621094 2.835938 L 20.621094 8.253906 L 1.378906 8.253906 Z M 1.378906 2.835938 "/>
</clipPath>
</defs>
<g id="surface1">
<g clip-path="url(#clip1)" clip-rule="nonzero">
<path style=" stroke:none;fill-rule:nonzero;fill:rgb(74.509804%,74.509804%,74.509804%);fill-opacity:1;" d="M 6.558594 13.523438 C 6.617188 14.011719 7.011719 14.425781 7.566406 14.585938 C 8.125 14.746094 8.742188 14.617188 9.148438 14.265625 C 10.183594 13.402344 11.832031 13.402344 12.867188 14.265625 C 13.214844 14.671875 13.820312 14.867188 14.40625 14.765625 C 14.992188 14.660156 15.449219 14.277344 15.570312 13.789062 C 15.691406 13.300781 15.453125 12.800781 14.964844 12.511719 C 12.777344 10.6875 9.222656 10.6875 7.039062 12.511719 C 6.695312 12.769531 6.515625 13.140625 6.546875 13.523438 Z M 6.558594 13.523438 "/>
</g>
<g clip-path="url(#clip2)" clip-rule="nonzero">
<path style=" stroke:none;fill-rule:nonzero;fill:rgb(74.509804%,74.509804%,74.509804%);fill-opacity:1;" d="M 3.714844 10.773438 C 3.84375 11.234375 4.234375 11.601562 4.738281 11.722656 C 5.242188 11.847656 5.78125 11.710938 6.140625 11.367188 C 8.8125 8.914062 13.175781 8.914062 15.847656 11.367188 C 16.195312 11.75 16.75 11.921875 17.28125 11.808594 C 17.8125 11.695312 18.226562 11.316406 18.351562 10.828125 C 18.476562 10.339844 18.289062 9.832031 17.867188 9.511719 C 14.097656 6.054688 7.890625 6.054688 4.121094 9.511719 C 3.746094 9.832031 3.589844 10.316406 3.707031 10.773438 Z M 3.714844 10.773438 "/>
</g>
<g clip-path="url(#clip3)" clip-rule="nonzero">
<path style=" stroke:none;fill-rule:nonzero;fill:rgb(74.509804%,74.509804%,74.509804%);fill-opacity:1;" d="M 0.628906 7.789062 C 0.707031 8.265625 1.058594 8.667969 1.546875 8.832031 C 2.03125 9 2.578125 8.90625 2.972656 8.59375 C 3.015625 8.558594 3.054688 8.519531 3.09375 8.476562 C 7.460938 4.421875 14.507812 4.421875 18.871094 8.476562 C 19.1875 8.933594 19.769531 9.164062 20.339844 9.058594 C 20.910156 8.957031 21.359375 8.542969 21.46875 8.011719 C 21.578125 7.480469 21.332031 6.9375 20.84375 6.644531 C 15.386719 1.574219 6.578125 1.574219 1.121094 6.644531 C 0.765625 6.929688 0.582031 7.355469 0.628906 7.789062 Z M 0.628906 7.789062 "/>
</g>
<path style=" stroke:none;fill-rule:nonzero;fill:rgb(74.509804%,74.509804%,74.509804%);fill-opacity:1;" d="M 13.75 17.875 C 13.75 19.394531 12.519531 20.625 11 20.625 C 9.480469 20.625 8.25 19.394531 8.25 17.875 C 8.25 16.355469 9.480469 15.125 11 15.125 C 12.519531 15.125 13.75 16.355469 13.75 17.875 Z M 13.75 17.875 "/>
<path style=" stroke:none;fill-rule:nonzero;fill:rgb(100%,100%,100%);fill-opacity:1;" d="M 10.679688 20.597656 C 9.589844 20.46875 8.695312 19.707031 8.367188 18.625 C 8.292969 18.386719 8.289062 18.332031 8.289062 17.871094 C 8.289062 17.414062 8.292969 17.355469 8.363281 17.128906 C 8.683594 16.09375 9.5 15.359375 10.527344 15.175781 C 10.824219 15.125 11.460938 15.152344 11.730469 15.234375 C 13.367188 15.707031 14.195312 17.507812 13.476562 19.03125 C 13.40625 19.175781 13.292969 19.375 13.226562 19.472656 C 13.082031 19.671875 12.742188 20.007812 12.554688 20.132812 C 12.199219 20.375 11.734375 20.546875 11.296875 20.59375 C 11 20.628906 10.957031 20.628906 10.679688 20.597656 Z M 10.679688 20.597656 "/>
<path style=" stroke:none;fill-rule:nonzero;fill:rgb(100%,100%,100%);fill-opacity:1;" d="M 6.878906 13.191406 L 6.878906 12.65625 L 7.085938 12.488281 C 7.941406 11.792969 8.964844 11.371094 10.199219 11.203125 C 10.542969 11.15625 11.433594 11.15625 11.804688 11.199219 C 12.972656 11.347656 13.953125 11.746094 14.890625 12.460938 L 15.109375 12.628906 L 15.109375 13.730469 L 13.5 13.730469 C 12.007812 13.730469 11.867188 13.726562 11.617188 13.671875 C 11.4375 13.636719 11.238281 13.617188 11.007812 13.617188 C 10.78125 13.617188 10.578125 13.636719 10.398438 13.671875 C 10.148438 13.726562 10.011719 13.730469 8.503906 13.730469 L 6.878906 13.730469 Z M 6.878906 13.191406 "/>
<path style=" stroke:none;fill-rule:nonzero;fill:rgb(100%,100%,100%);fill-opacity:1;" d="M 4.128906 10.246094 L 4.128906 9.511719 L 4.359375 9.3125 C 6.996094 7.078125 10.734375 6.351562 14.152344 7.40625 C 15.441406 7.804688 16.703125 8.503906 17.699219 9.371094 L 17.863281 9.515625 L 17.863281 10.976562 L 15.394531 10.976562 L 15.175781 10.816406 C 14.335938 10.21875 13.230469 9.777344 12.113281 9.597656 C 11.671875 9.527344 10.613281 9.511719 10.144531 9.570312 C 8.878906 9.726562 7.746094 10.148438 6.8125 10.816406 L 6.59375 10.976562 L 4.128906 10.976562 Z M 4.128906 10.246094 "/>
<path style=" stroke:none;fill-rule:nonzero;fill:rgb(100%,100%,100%);fill-opacity:1;" d="M 1.394531 8.234375 C 1.382812 8.222656 1.375 7.816406 1.375 7.328125 L 1.375 6.441406 L 1.496094 6.328125 C 1.945312 5.910156 2.804688 5.292969 3.527344 4.867188 C 5.304688 3.8125 7.214844 3.1875 9.449219 2.925781 C 10.066406 2.855469 11.871094 2.855469 12.511719 2.925781 C 15.511719 3.261719 18.136719 4.363281 20.335938 6.210938 L 20.613281 6.441406 L 20.613281 8.253906 L 18.636719 8.253906 L 18.441406 8.085938 C 16.949219 6.832031 15.003906 5.941406 13.023438 5.601562 C 11.691406 5.375 10.265625 5.375 8.953125 5.601562 C 6.929688 5.953125 5.054688 6.8125 3.535156 8.078125 L 3.328125 8.253906 L 2.371094 8.253906 C 1.84375 8.253906 1.402344 8.246094 1.394531 8.234375 Z M 1.394531 8.234375 "/>
</g>
</svg>
