<?xml version="1.0" encoding="UTF-8"?>
<svg xmlns="http://www.w3.org/2000/svg" xmlns:xlink="http://www.w3.org/1999/xlink" width="22" height="22" viewBox="0 0 22 22" version="1.1">
<g id="surface1">
<path style=" stroke:none;fill-rule:nonzero;fill:rgb(74.509804%,74.509804%,74.509804%);fill-opacity:1;" d="M 8.25 1.375 C 6.863281 1.382812 6.875 2.75 6.875 2.75 L 6.875 17.875 C 6.875 19.25 8.25 19.25 8.25 19.25 L 13.75 19.25 C 15.125 19.25 15.125 17.875 15.125 17.875 L 15.125 6.875 C 15.125 6.113281 14.511719 5.5 13.75 5.5 L 9.625 5.5 L 9.625 2.75 C 9.625 2.75 9.613281 1.382812 8.25 1.375 Z M 8.25 6.875 L 13.75 6.875 L 13.75 11.042969 L 8.25 11 Z M 8.25 12.375 L 9.625 12.375 L 9.625 13.75 L 11 13.75 L 11 12.375 L 12.375 12.375 L 12.375 13.75 L 13.75 13.75 L 13.75 15.125 L 12.375 15.125 L 12.375 16.5 L 13.75 16.5 L 13.75 17.875 L 12.375 17.875 L 12.375 16.5 L 11 16.5 L 11 17.875 L 9.625 17.875 L 9.625 16.5 L 8.25 16.5 L 8.25 15.125 L 9.625 15.125 L 9.625 13.75 L 8.25 13.75 Z M 9.625 15.125 L 9.625 16.5 L 11 16.5 L 11 15.125 Z M 11 15.125 L 12.375 15.125 L 12.375 13.75 L 11 13.75 Z M 11 15.125 "/>
<path style=" stroke:none;fill-rule:nonzero;fill:rgb(100%,100%,100%);fill-opacity:1;" d="M 7.902344 19.191406 C 7.347656 19.042969 6.992188 18.675781 6.910156 18.15625 C 6.890625 18.03125 6.878906 15.460938 6.878906 10.308594 C 6.882812 1.914062 6.871094 2.460938 7.050781 2.082031 C 7.257812 1.644531 7.695312 1.386719 8.230469 1.386719 C 8.78125 1.386719 9.210938 1.628906 9.433594 2.070312 C 9.601562 2.398438 9.605469 2.4375 9.605469 4.035156 L 9.605469 5.5 L 11.695312 5.5 C 13.023438 5.5 13.855469 5.511719 13.972656 5.53125 C 14.484375 5.613281 14.933594 6.023438 15.070312 6.53125 C 15.101562 6.652344 15.109375 7.644531 15.109375 12.351562 C 15.109375 17.285156 15.101562 18.050781 15.066406 18.207031 C 14.941406 18.726562 14.613281 19.082031 14.140625 19.191406 C 13.875 19.253906 8.140625 19.253906 7.902344 19.191406 Z M 11.023438 17.191406 L 11.023438 16.511719 L 12.355469 16.511719 L 12.355469 17.871094 L 13.746094 17.871094 L 13.746094 16.484375 L 12.386719 16.484375 L 12.386719 15.148438 L 13.746094 15.148438 L 13.746094 13.730469 L 12.386719 13.730469 L 12.386719 12.367188 L 10.996094 12.367188 L 10.996094 13.730469 L 9.632812 13.730469 L 9.632812 12.367188 L 8.242188 12.367188 L 8.242188 13.757812 L 9.605469 13.757812 L 9.605469 15.121094 L 8.242188 15.121094 L 8.242188 16.511719 L 9.605469 16.511719 L 9.605469 17.871094 L 11.023438 17.871094 Z M 13.746094 8.960938 L 13.746094 6.863281 L 8.242188 6.863281 L 8.242188 11.003906 L 8.746094 11.011719 C 10.222656 11.023438 13.257812 11.050781 13.484375 11.058594 L 13.746094 11.0625 Z M 13.746094 8.960938 "/>
<path style=" stroke:none;fill-rule:nonzero;fill:rgb(100%,100%,100%);fill-opacity:1;" d="M 11.023438 14.441406 L 11.023438 13.757812 L 12.355469 13.757812 L 12.355469 15.121094 L 11.023438 15.121094 Z M 11.023438 14.441406 "/>
<path style=" stroke:none;fill-rule:nonzero;fill:rgb(100%,100%,100%);fill-opacity:1;" d="M 9.632812 15.816406 L 9.632812 15.148438 L 10.996094 15.148438 L 10.996094 16.484375 L 9.632812 16.484375 Z M 9.632812 15.816406 "/>
</g>
</svg>
