<?xml version="1.0" encoding="UTF-8"?>
<svg xmlns="http://www.w3.org/2000/svg" xmlns:xlink="http://www.w3.org/1999/xlink" width="22" height="22" viewBox="0 0 22 22" version="1.1">
<g id="surface1">
<path style=" stroke:none;fill-rule:nonzero;fill:rgb(74.509804%,74.509804%,74.509804%);fill-opacity:1;" d="M 8.25 16.5 L 8.25 19.25 L 0.644531 19.25 C 0.28125 19.25 0 19.53125 0 19.894531 L 0 21.355469 C 0 21.71875 0.28125 22 0.644531 22 L 18.605469 22 C 18.964844 22 19.25 21.71875 19.25 21.355469 L 19.25 19.894531 C 19.25 19.53125 18.964844 19.25 18.605469 19.25 L 11 19.25 L 11 16.5 Z M 8.25 16.5 "/>
<path style=" stroke:none;fill-rule:nonzero;fill:rgb(74.509804%,74.509804%,74.509804%);fill-opacity:1;" d="M 5.570312 2.914062 L 5.570312 10.988281 L 13.753906 10.988281 L 13.753906 5.578125 L 11.003906 2.914062 Z M 2.753906 11.007812 L 2.753906 16.449219 L 16.460938 16.449219 L 16.460938 11.007812 L 15.152344 11.007812 L 15.148438 12.355469 L 4.109375 12.402344 L 4.109375 11.007812 Z M 2.753906 11.007812 "/>
<path style=" stroke:none;fill-rule:nonzero;fill:rgb(100%,100%,100%);fill-opacity:1;" d="M 5.574219 6.949219 L 5.574219 2.917969 L 11 2.917969 L 12.371094 4.246094 L 13.742188 5.570312 L 13.742188 8.273438 L 13.746094 10.976562 L 5.574219 10.976562 Z M 5.574219 6.949219 "/>
<path style=" stroke:none;fill-rule:nonzero;fill:rgb(100%,100%,100%);fill-opacity:1;" d="M 2.765625 13.730469 L 2.765625 11.003906 L 4.097656 11.003906 L 4.097656 12.414062 L 5.980469 12.40625 C 7.011719 12.398438 9.503906 12.386719 11.511719 12.378906 L 15.164062 12.359375 L 15.164062 11.003906 L 16.441406 11.003906 L 16.441406 16.453125 L 2.765625 16.453125 Z M 2.765625 13.730469 "/>
<path style=" stroke:none;fill-rule:nonzero;fill:rgb(100%,100%,100%);fill-opacity:1;" d="M 0.351562 21.90625 C 0.238281 21.851562 0.175781 21.792969 0.113281 21.691406 L 0.0273438 21.550781 L 0.0273438 19.699219 L 0.113281 19.558594 C 0.175781 19.453125 0.234375 19.398438 0.351562 19.339844 L 0.503906 19.261719 L 8.269531 19.261719 L 8.269531 16.511719 L 10.996094 16.511719 L 10.996094 19.261719 L 14.847656 19.261719 C 17.445312 19.261719 18.734375 19.273438 18.804688 19.292969 C 18.941406 19.332031 19.09375 19.464844 19.175781 19.617188 C 19.234375 19.726562 19.238281 19.757812 19.238281 20.625 C 19.238281 21.492188 19.234375 21.523438 19.175781 21.636719 C 19.09375 21.785156 18.941406 21.917969 18.804688 21.957031 C 18.730469 21.976562 15.863281 21.988281 9.601562 21.988281 L 0.5 21.988281 Z M 0.351562 21.90625 "/>
</g>
</svg>
