<?xml version="1.0" encoding="UTF-8"?>
<svg xmlns="http://www.w3.org/2000/svg" xmlns:xlink="http://www.w3.org/1999/xlink" width="22" height="22" viewBox="0 0 22 22" version="1.1">
<g id="surface1">
<path style=" stroke:none;fill-rule:nonzero;fill:rgb(74.509804%,74.509804%,74.509804%);fill-opacity:1;" d="M 2.75 5.5 C 2.0625 5.5 1.375 6.1875 1.375 6.875 L 1.375 12.375 C 1.375 13.0625 2.0625 13.75 2.75 13.75 L 4.125 13.75 L 4.125 11 L 17.875 11 L 17.875 13.75 L 19.25 13.75 C 19.9375 13.75 20.625 13.0625 20.625 12.375 L 20.625 6.875 C 20.625 6.1875 19.9375 5.5 19.25 5.5 Z M 2.75 5.5 "/>
<path style=" stroke:none;fill-rule:nonzero;fill:rgb(74.509804%,74.509804%,74.509804%);fill-opacity:1;" d="M 5.5 1.375 L 5.5 4.125 L 16.5 4.125 L 16.5 1.375 Z M 5.5 1.375 "/>
<path style=" stroke:none;fill-rule:nonzero;fill:rgb(74.509804%,74.509804%,74.509804%);fill-opacity:1;" d="M 5.5 12.375 L 5.5 19.25 L 16.5 19.25 L 16.5 12.375 Z M 6.875 13.75 L 15.125 13.75 L 15.125 15.125 L 6.875 15.125 Z M 6.875 16.5 L 13.75 16.5 L 13.75 17.875 L 6.875 17.875 Z M 6.875 16.5 "/>
<path style=" stroke:none;fill-rule:nonzero;fill:rgb(100%,100%,100%);fill-opacity:1;" d="M 5.515625 15.816406 L 5.515625 12.394531 L 16.5 12.394531 L 16.5 19.234375 L 5.515625 19.234375 Z M 13.746094 17.175781 L 13.746094 16.480469 L 10.304688 16.488281 L 6.867188 16.496094 L 6.851562 17.871094 L 13.746094 17.871094 Z M 15.128906 14.433594 L 15.136719 13.730469 L 11.003906 13.738281 L 6.867188 13.742188 L 6.859375 14.410156 C 6.851562 14.777344 6.855469 15.09375 6.863281 15.113281 C 6.875 15.140625 7.683594 15.148438 11 15.140625 L 15.121094 15.132812 Z M 15.128906 14.433594 "/>
<path style=" stroke:none;fill-rule:nonzero;fill:rgb(100%,100%,100%);fill-opacity:1;" d="M 2.390625 13.675781 C 2.300781 13.644531 2.164062 13.582031 2.085938 13.53125 C 1.902344 13.414062 1.636719 13.128906 1.535156 12.941406 C 1.375 12.644531 1.375 12.660156 1.375 9.644531 C 1.375 7.980469 1.386719 6.808594 1.402344 6.707031 C 1.492188 6.148438 2.023438 5.617188 2.582031 5.527344 C 2.832031 5.488281 19.214844 5.492188 19.4375 5.53125 C 19.933594 5.621094 20.402344 6.046875 20.558594 6.542969 C 20.613281 6.722656 20.613281 6.8125 20.613281 9.613281 C 20.613281 12.789062 20.621094 12.667969 20.4375 12.992188 C 20.304688 13.226562 20.035156 13.476562 19.773438 13.605469 L 19.554688 13.714844 L 17.890625 13.734375 L 17.875 10.992188 L 11 10.984375 L 4.128906 10.976562 L 4.128906 13.730469 L 3.339844 13.726562 C 2.65625 13.726562 2.53125 13.71875 2.390625 13.675781 Z M 2.390625 13.675781 "/>
<path style=" stroke:none;fill-rule:nonzero;fill:rgb(100%,100%,100%);fill-opacity:1;" d="M 5.515625 2.746094 L 5.515625 1.386719 L 16.5 1.386719 L 16.5 4.109375 L 5.515625 4.109375 Z M 5.515625 2.746094 "/>
</g>
</svg>
