<?xml version="1.0" encoding="UTF-8"?>
<svg xmlns="http://www.w3.org/2000/svg" xmlns:xlink="http://www.w3.org/1999/xlink" width="24" height="24" viewBox="0 0 24 24" version="1.1">
<g id="surface1">
<path style=" stroke:none;fill-rule:nonzero;fill:rgb(74.509804%,74.509804%,74.509804%);fill-opacity:1;" d="M 19.367188 1.5 C 18.589844 1.570312 17.996094 2.222656 18 3 L 18 22.5 C 17.992188 23.042969 18.277344 23.542969 18.742188 23.816406 C 19.210938 24.089844 19.789062 24.089844 20.257812 23.816406 C 20.722656 23.542969 21.007812 23.042969 21 22.5 L 21 4.5 L 22.5 4.5 C 23.042969 4.507812 23.542969 4.222656 23.816406 3.753906 C 24.089844 3.289062 24.089844 2.710938 23.816406 2.242188 C 23.542969 1.777344 23.042969 1.492188 22.5 1.5 L 19.5 1.5 C 19.453125 1.496094 19.40625 1.496094 19.359375 1.5 Z M 19.367188 1.5 "/>
<path style=" stroke:none;fill-rule:nonzero;fill:rgb(74.509804%,74.509804%,74.509804%);fill-opacity:1;" d="M 19.5 9 L 19.5 13.5 L 24 13.5 L 24 9 Z M 21 10.5 L 22.5 10.5 L 22.5 12 L 21 12 Z M 21 10.5 "/>
<path style=" stroke:none;fill-rule:nonzero;fill:rgb(74.509804%,74.509804%,74.509804%);fill-opacity:1;" d="M 19.5 15 L 19.5 19.5 L 24 19.5 L 24 15 Z M 21 16.5 L 22.5 16.5 L 22.5 18 L 21 18 Z M 21 16.5 "/>
<path style=" stroke:none;fill-rule:nonzero;fill:rgb(74.509804%,74.509804%,74.509804%);fill-opacity:1;" d="M 0 6 L 0 24 L 15 24 L 15 21 L 16.5 21 L 16.5 18 L 12 18 L 12 21 L 3 21 L 3 9 L 7.5 9 L 7.5 6 Z M 0 6 "/>
<path style=" stroke:none;fill-rule:nonzero;fill:rgb(74.509804%,74.509804%,74.509804%);fill-opacity:1;" d="M 9 1.5 L 16.5 7.5 L 12 7.5 L 12 14.296875 L 9 14.296875 Z M 9 1.5 "/>
<path style=" stroke:none;fill-rule:nonzero;fill:rgb(74.509804%,74.509804%,74.509804%);fill-opacity:1;" d="M 11.988281 14.253906 C 11.988281 16.320312 10.3125 17.996094 8.242188 17.996094 C 6.175781 17.996094 4.5 16.320312 4.5 14.253906 C 4.5 12.1875 6.175781 10.511719 8.242188 10.511719 C 10.3125 10.511719 11.988281 12.1875 11.988281 14.253906 Z M 11.988281 14.253906 "/>
<path style=" stroke:none;fill-rule:nonzero;fill:rgb(100%,100%,100%);fill-opacity:1;" d="M 7.960938 17.976562 C 6.949219 17.859375 6.199219 17.5 5.558594 16.832031 C 5.25 16.507812 5.066406 16.246094 4.878906 15.855469 C 4.453125 14.960938 4.398438 13.945312 4.730469 13.007812 C 4.917969 12.476562 5.195312 12.039062 5.605469 11.628906 C 6.199219 11.035156 6.941406 10.664062 7.75 10.558594 C 8.015625 10.523438 8.726562 10.535156 8.914062 10.578125 L 9 10.597656 L 9 1.511719 L 16.453125 7.476562 L 14.230469 7.484375 L 12.003906 7.492188 L 12.003906 10.820312 C 12.003906 14.308594 11.996094 14.582031 11.867188 15.128906 C 11.582031 16.320312 10.734375 17.289062 9.566406 17.746094 C 9.109375 17.921875 8.394531 18.027344 7.960938 17.976562 Z M 7.960938 17.976562 "/>
<path style=" stroke:none;fill-rule:nonzero;fill:rgb(100%,100%,100%);fill-opacity:1;" d="M 0.015625 14.992188 L 0.015625 6.007812 L 7.480469 6.007812 L 7.480469 8.980469 L 2.988281 8.980469 L 2.988281 21 L 12.003906 21 L 12.003906 17.996094 L 16.496094 17.996094 L 16.496094 21 L 14.980469 21 L 14.980469 23.976562 L 0.015625 23.976562 Z M 0.015625 14.992188 "/>
<path style=" stroke:none;fill-rule:nonzero;fill:rgb(100%,100%,100%);fill-opacity:1;" d="M 19.144531 23.964844 C 18.671875 23.847656 18.273438 23.488281 18.097656 23.019531 L 18.03125 22.84375 L 18.03125 2.644531 L 18.101562 2.464844 C 18.269531 2.054688 18.644531 1.703125 19.054688 1.578125 C 19.25 1.515625 19.339844 1.511719 20.984375 1.511719 C 22.867188 1.511719 22.90625 1.515625 23.234375 1.691406 C 23.484375 1.824219 23.730469 2.09375 23.863281 2.371094 C 23.976562 2.609375 23.980469 2.617188 23.980469 3 C 23.980469 3.382812 23.976562 3.390625 23.863281 3.632812 C 23.730469 3.910156 23.484375 4.171875 23.230469 4.308594 C 22.945312 4.460938 22.757812 4.488281 21.832031 4.488281 L 20.988281 4.488281 L 20.988281 9.011719 L 23.996094 9.011719 L 23.996094 13.503906 L 20.988281 13.503906 L 20.988281 15.023438 L 23.996094 15.023438 L 23.996094 19.484375 L 20.988281 19.484375 L 20.988281 21.058594 C 20.988281 22 20.976562 22.703125 20.957031 22.800781 C 20.804688 23.617188 19.953125 24.164062 19.144531 23.964844 Z M 22.507812 17.238281 L 22.507812 16.476562 L 21.757812 16.484375 L 21.003906 16.492188 L 20.996094 17.246094 L 20.988281 17.996094 L 22.507812 17.996094 Z M 22.507812 11.257812 L 22.507812 10.5 L 20.988281 10.5 L 20.988281 12.015625 L 22.507812 12.015625 Z M 22.507812 11.257812 "/>
</g>
</svg>
