<?xml version="1.0" encoding="UTF-8"?>
<svg xmlns="http://www.w3.org/2000/svg" xmlns:xlink="http://www.w3.org/1999/xlink" width="24" height="24" viewBox="0 0 24 24" version="1.1">
<g id="surface1">
<path style=" stroke:none;fill-rule:nonzero;fill:rgb(74.509804%,74.509804%,74.509804%);fill-opacity:1;" d="M 5.984375 13.664062 C 7.402344 13.25 8.914062 14.109375 9.363281 15.589844 L 10.375 18.925781 C 10.824219 20.402344 10.035156 21.9375 8.617188 22.351562 C 7.199219 22.765625 5.6875 21.90625 5.238281 20.429688 L 4.226562 17.089844 C 3.777344 15.613281 4.5625 14.078125 5.984375 13.664062 Z M 5.984375 13.664062 "/>
<path style=" stroke:none;fill-rule:nonzero;fill:rgb(74.509804%,74.509804%,74.509804%);fill-opacity:1;" d="M 11.953125 1.5 C 6.996094 1.5 2.917969 6.011719 3 10.078125 C 3.074219 13.625 4.214844 17.121094 4.5 18 L 6.789062 18 C 5.046875 14.5625 5.214844 10.265625 5.214844 10.265625 C 5.214844 6.707031 8.226562 3.796875 11.953125 3.796875 C 15.683594 3.796875 18.703125 6.539062 18.691406 10.21875 C 18.65625 12.730469 18.433594 14.207031 17.183594 18 L 19.539062 18 C 19.875 17.03125 21 13.214844 21 10.078125 C 21 5.832031 16.910156 1.5 11.953125 1.5 Z M 11.953125 1.5 "/>
<path style=" stroke:none;fill-rule:nonzero;fill:rgb(74.509804%,74.509804%,74.509804%);fill-opacity:1;" d="M 18.015625 13.71875 C 16.597656 13.304688 15.085938 14.164062 14.636719 15.640625 L 13.625 18.980469 C 13.179688 20.457031 13.964844 21.992188 15.382812 22.40625 C 16.800781 22.820312 18.316406 21.960938 18.761719 20.480469 L 19.773438 17.144531 C 20.222656 15.667969 19.4375 14.132812 18.015625 13.71875 Z M 18.015625 13.71875 "/>
<path style=" stroke:none;fill-rule:nonzero;fill:rgb(100%,100%,100%);fill-opacity:1;" d="M 15.851562 22.484375 C 14.683594 22.363281 13.773438 21.5 13.546875 20.304688 C 13.503906 20.074219 13.511719 19.507812 13.558594 19.28125 C 13.597656 19.105469 14.289062 16.800781 14.59375 15.820312 C 14.671875 15.578125 14.78125 15.285156 14.84375 15.167969 C 15.09375 14.667969 15.527344 14.214844 16.011719 13.949219 C 16.402344 13.738281 16.816406 13.632812 17.289062 13.632812 C 17.621094 13.632812 17.867188 13.675781 18.152344 13.773438 C 18.257812 13.808594 18.347656 13.835938 18.355469 13.832031 C 18.371094 13.816406 18.464844 13.289062 18.515625 12.933594 C 18.699219 11.609375 18.746094 9.914062 18.617188 9.171875 C 18.3125 7.398438 17.375 5.949219 15.871094 4.945312 C 14.140625 3.785156 11.785156 3.472656 9.792969 4.128906 C 8.707031 4.488281 7.804688 5.054688 7.019531 5.863281 C 6.023438 6.890625 5.421875 8.132812 5.246094 9.546875 C 5.199219 9.929688 5.207031 11.347656 5.261719 12.015625 C 5.324219 12.824219 5.460938 13.859375 5.5 13.859375 C 5.511719 13.859375 5.597656 13.824219 5.691406 13.785156 C 6.640625 13.351562 7.832031 13.59375 8.621094 14.375 C 8.957031 14.703125 9.183594 15.085938 9.347656 15.578125 C 9.503906 16.054688 10.367188 18.925781 10.421875 19.148438 C 10.488281 19.414062 10.5 20.015625 10.445312 20.292969 C 10.277344 21.136719 9.769531 21.8125 9.023438 22.175781 C 8.59375 22.386719 8.414062 22.425781 7.871094 22.421875 C 7.453125 22.421875 7.402344 22.417969 7.195312 22.355469 C 6.378906 22.109375 5.730469 21.546875 5.386719 20.796875 C 5.339844 20.6875 5.121094 20.011719 4.902344 19.292969 C 4.679688 18.574219 4.449219 17.824219 4.386719 17.621094 C 3.726562 15.554688 3.265625 13.351562 3.078125 11.378906 C 3.023438 10.789062 3.003906 9.675781 3.042969 9.320312 C 3.226562 7.570312 4.109375 5.800781 5.511719 4.359375 C 7.058594 2.769531 8.976562 1.804688 11.054688 1.558594 C 11.472656 1.511719 12.355469 1.503906 12.761719 1.546875 C 14.246094 1.703125 15.652344 2.210938 16.886719 3.035156 C 19.035156 4.46875 20.523438 6.675781 20.898438 8.972656 C 20.984375 9.5 21.007812 10.007812 20.976562 10.671875 C 20.90625 12.183594 20.65625 13.78125 20.195312 15.660156 C 19.976562 16.570312 19.570312 17.964844 19.519531 18 C 19.511719 18.007812 19.324219 18.59375 19.109375 19.308594 C 18.894531 20.023438 18.675781 20.695312 18.628906 20.808594 C 18.503906 21.113281 18.253906 21.464844 17.992188 21.714844 C 17.519531 22.175781 16.976562 22.425781 16.339844 22.488281 C 16.191406 22.5 16.066406 22.511719 16.058594 22.507812 C 16.050781 22.507812 15.957031 22.496094 15.851562 22.484375 Z M 15.851562 22.484375 "/>
</g>
</svg>
