<?xml version="1.0" encoding="UTF-8"?>
<svg xmlns="http://www.w3.org/2000/svg" xmlns:xlink="http://www.w3.org/1999/xlink" width="24" height="24" viewBox="0 0 24 24" version="1.1">
<g id="surface1">
<path style=" stroke:none;fill-rule:nonzero;fill:rgb(74.509804%,74.509804%,74.509804%);fill-opacity:1;" d="M 1.5 7.5 L 5.226562 7.5 L 9.679688 3 L 10.5 3.023438 L 10.5 21.023438 L 9.789062 21.023438 L 5.226562 16.5 L 1.5 16.5 Z M 1.5 7.5 "/>
<path style=" stroke:none;fill-rule:nonzero;fill:rgb(74.509804%,74.509804%,74.509804%);fill-opacity:1;" d="M 17.820312 1.5 C 17.484375 1.535156 17.171875 1.683594 16.929688 1.921875 L 13.929688 4.921875 C 13.539062 5.304688 13.382812 5.871094 13.523438 6.398438 C 13.664062 6.929688 14.078125 7.34375 14.609375 7.484375 C 15.136719 7.625 15.703125 7.46875 16.085938 7.078125 L 19.085938 4.078125 C 19.574219 3.625 19.707031 2.90625 19.414062 2.3125 C 19.117188 1.714844 18.464844 1.382812 17.808594 1.496094 Z M 17.820312 1.5 "/>
<path style=" stroke:none;fill-rule:nonzero;fill:rgb(74.509804%,74.509804%,74.509804%);fill-opacity:1;" d="M 14.667969 16.5 C 14.109375 16.601562 13.65625 17.011719 13.496094 17.558594 C 13.339844 18.101562 13.503906 18.691406 13.917969 19.078125 L 16.917969 22.078125 C 17.304688 22.46875 17.867188 22.625 18.398438 22.484375 C 18.925781 22.34375 19.339844 21.929688 19.480469 21.398438 C 19.621094 20.871094 19.46875 20.304688 19.074219 19.921875 L 16.074219 16.921875 C 15.710938 16.546875 15.175781 16.386719 14.664062 16.503906 Z M 14.667969 16.5 "/>
<path style=" stroke:none;fill-rule:nonzero;fill:rgb(74.509804%,74.509804%,74.509804%);fill-opacity:1;" d="M 14.867188 10.5 C 14.324219 10.515625 13.835938 10.824219 13.582031 11.304688 C 13.332031 11.78125 13.355469 12.359375 13.652344 12.816406 C 13.945312 13.269531 14.460938 13.53125 15 13.5 L 21.046875 13.546875 C 21.585938 13.554688 22.089844 13.269531 22.363281 12.804688 C 22.636719 12.335938 22.636719 11.757812 22.363281 11.289062 C 22.089844 10.824219 21.585938 10.539062 21.046875 10.546875 L 15 10.5 C 14.957031 10.5 14.90625 10.5 14.863281 10.5 Z M 14.867188 10.5 "/>
<path style=" stroke:none;fill-rule:nonzero;fill:rgb(74.509804%,74.509804%,74.509804%);fill-opacity:1;" d="M 13.5 6 L 15 6 L 15 7.5 L 13.5 7.5 Z M 13.5 6 "/>
<path style=" stroke:none;fill-rule:nonzero;fill:rgb(74.509804%,74.509804%,74.509804%);fill-opacity:1;" d="M 13.5 16.5 L 15 16.5 L 15 18 L 13.5 18 Z M 13.5 16.5 "/>
<path style=" stroke:none;fill-rule:nonzero;fill:rgb(100%,100%,100%);fill-opacity:1;" d="M 7.507812 18.753906 L 5.234375 16.496094 L 1.5 16.496094 L 1.5 7.515625 L 5.230469 7.515625 L 5.695312 7.046875 C 5.949219 6.789062 6.953125 5.773438 7.921875 4.792969 L 9.6875 3.011719 L 10.476562 3.035156 L 10.476562 21.015625 L 10.128906 21.011719 L 9.78125 21.011719 Z M 7.507812 18.753906 "/>
<path style=" stroke:none;fill-rule:nonzero;fill:rgb(100%,100%,100%);fill-opacity:1;" d="M 14.140625 7.492188 L 13.519531 7.484375 L 13.503906 6.6875 C 13.484375 5.808594 13.503906 5.644531 13.640625 5.351562 C 13.726562 5.167969 13.878906 5.007812 15.441406 3.441406 C 17.335938 1.546875 17.253906 1.617188 17.777344 1.519531 C 18.273438 1.429688 18.730469 1.566406 19.097656 1.914062 C 19.578125 2.375 19.6875 3.0625 19.378906 3.679688 C 19.308594 3.816406 18.972656 4.167969 17.625 5.523438 C 16.503906 6.644531 15.898438 7.230469 15.785156 7.300781 C 15.550781 7.441406 15.25 7.519531 14.980469 7.511719 C 14.863281 7.507812 14.484375 7.5 14.140625 7.492188 Z M 14.140625 7.492188 "/>
<path style=" stroke:none;fill-rule:nonzero;fill:rgb(100%,100%,100%);fill-opacity:1;" d="M 15.957031 13.492188 C 14.636719 13.476562 14.570312 13.472656 14.414062 13.410156 C 13.875 13.1875 13.527344 12.761719 13.445312 12.214844 C 13.328125 11.46875 13.835938 10.722656 14.578125 10.550781 C 14.816406 10.496094 21.09375 10.539062 21.382812 10.597656 C 21.671875 10.65625 21.929688 10.804688 22.140625 11.03125 C 22.414062 11.324219 22.546875 11.652344 22.550781 12.039062 C 22.550781 12.625 22.226562 13.136719 21.691406 13.390625 L 21.453125 13.507812 L 19.390625 13.507812 C 18.261719 13.511719 16.714844 13.503906 15.957031 13.492188 Z M 15.957031 13.492188 "/>
<path style=" stroke:none;fill-rule:nonzero;fill:rgb(100%,100%,100%);fill-opacity:1;" d="M 17.691406 22.484375 C 17.257812 22.390625 17.289062 22.414062 15.4375 20.570312 C 13.894531 19.03125 13.714844 18.84375 13.621094 18.652344 C 13.488281 18.390625 13.4375 18.15625 13.460938 17.910156 C 13.472656 17.804688 13.488281 17.453125 13.5 17.125 L 13.515625 16.535156 L 14.203125 16.511719 C 14.578125 16.496094 14.972656 16.488281 15.078125 16.488281 C 15.308594 16.492188 15.601562 16.582031 15.792969 16.707031 C 15.875 16.757812 16.6875 17.550781 17.597656 18.46875 C 18.820312 19.695312 19.277344 20.171875 19.339844 20.289062 C 19.808594 21.183594 19.296875 22.277344 18.316406 22.484375 C 18.0625 22.539062 17.949219 22.539062 17.691406 22.484375 Z M 17.691406 22.484375 "/>
</g>
</svg>
