<?xml version="1.0" encoding="UTF-8"?>
<svg xmlns="http://www.w3.org/2000/svg" xmlns:xlink="http://www.w3.org/1999/xlink" width="24" height="24" viewBox="0 0 24 24" version="1.1">
<g id="surface1">
<path style=" stroke:none;fill-rule:nonzero;fill:rgb(74.509804%,74.509804%,74.509804%);fill-opacity:1;" d="M 5.25 7.5 C 4.835938 7.5 4.5 7.835938 4.5 8.25 L 4.5 12.703125 C 4.5 15.65625 6.386719 18.140625 9 19.078125 L 9 21 L 6 21 C 5.152344 21 4.5 21.734375 4.5 22.5 L 4.5 24 L 18 24 L 18 22.5 C 18 21.625 17.285156 21 16.5 21 L 13.5 21 L 13.5 19.078125 C 16.113281 18.140625 18 15.65625 18 12.703125 L 18 8.25 C 18 7.835938 17.664062 7.5 17.25 7.5 C 16.835938 7.5 16.5 7.835938 16.5 8.25 C 16.5 8.351562 16.507812 8.441406 16.546875 8.53125 L 16.546875 12.703125 C 16.546875 15.648438 14.179688 18 11.25 18 C 8.320312 18 6 15.648438 6 12.703125 L 6 8.25 C 6 7.835938 5.664062 7.5 5.25 7.5 Z M 11.25 1.484375 C 13.328125 1.484375 15 3.15625 15 5.234375 L 15 12.75 C 15 14.828125 13.328125 16.5 11.25 16.5 C 9.171875 16.5 7.5 14.828125 7.5 12.75 L 7.5 5.230469 C 7.5 3.152344 9.171875 1.480469 11.25 1.480469 Z M 11.25 1.484375 "/>
<path style=" stroke:none;fill-rule:nonzero;fill:rgb(100%,100%,100%);fill-opacity:1;" d="M 10.789062 16.460938 C 10.402344 16.414062 9.988281 16.289062 9.59375 16.09375 C 9.171875 15.882812 8.90625 15.691406 8.589844 15.371094 C 8.269531 15.046875 8.113281 14.824219 7.90625 14.40625 C 7.703125 13.996094 7.585938 13.601562 7.539062 13.167969 C 7.492188 12.789062 7.492188 5.1875 7.539062 4.808594 C 7.695312 3.402344 8.652344 2.191406 9.980469 1.714844 C 10.488281 1.535156 10.964844 1.46875 11.519531 1.511719 C 12.445312 1.582031 13.230469 1.941406 13.886719 2.59375 C 14.414062 3.117188 14.734375 3.703125 14.914062 4.46875 C 14.976562 4.742188 14.980469 4.808594 14.988281 8.785156 C 14.996094 11.667969 14.988281 12.914062 14.964844 13.132812 C 14.816406 14.449219 14.042969 15.546875 12.875 16.109375 C 12.21875 16.429688 11.523438 16.546875 10.789062 16.460938 Z M 10.789062 16.460938 "/>
<path style=" stroke:none;fill-rule:nonzero;fill:rgb(100%,100%,100%);fill-opacity:1;" d="M 4.503906 23.203125 C 4.503906 22.324219 4.53125 22.117188 4.691406 21.816406 C 4.816406 21.585938 5.058594 21.332031 5.28125 21.207031 C 5.609375 21.019531 5.652344 21.015625 7.417969 21.015625 L 9.023438 21.015625 L 9.023438 19.070312 L 8.839844 19.007812 C 8.574219 18.910156 8.019531 18.628906 7.703125 18.433594 C 6.300781 17.566406 5.222656 16.144531 4.773438 14.558594 C 4.523438 13.683594 4.496094 13.28125 4.507812 10.398438 C 4.519531 8.0625 4.519531 8.058594 4.585938 7.933594 C 4.671875 7.769531 4.867188 7.597656 5.011719 7.550781 C 5.324219 7.445312 5.703125 7.585938 5.878906 7.871094 L 5.972656 8.023438 L 5.992188 10.671875 C 6.007812 13.566406 6.007812 13.519531 6.199219 14.1875 C 6.804688 16.277344 8.542969 17.742188 10.699219 17.980469 C 11.890625 18.109375 13.15625 17.804688 14.15625 17.144531 C 15.351562 16.359375 16.117188 15.230469 16.457031 13.75 C 16.527344 13.445312 16.527344 13.4375 16.53125 10.726562 L 16.539062 8.007812 L 16.628906 7.863281 C 16.796875 7.585938 17.183594 7.445312 17.488281 7.550781 C 17.636719 7.597656 17.828125 7.769531 17.917969 7.933594 L 17.984375 8.058594 L 17.984375 10.628906 C 17.984375 13.324219 17.976562 13.457031 17.839844 14.105469 C 17.472656 15.828125 16.445312 17.339844 14.972656 18.320312 C 14.621094 18.554688 14.058594 18.851562 13.703125 18.988281 L 13.480469 19.074219 L 13.480469 21.015625 L 15.082031 21.015625 C 16.402344 21.015625 16.71875 21.023438 16.863281 21.0625 C 17.355469 21.1875 17.734375 21.535156 17.910156 22.023438 C 17.972656 22.191406 17.980469 22.28125 17.992188 23.097656 L 18.003906 23.984375 L 4.503906 23.984375 Z M 4.503906 23.203125 "/>
</g>
</svg>
