<?xml version="1.0" encoding="UTF-8"?>
<svg xmlns="http://www.w3.org/2000/svg" xmlns:xlink="http://www.w3.org/1999/xlink" width="24" height="24" viewBox="0 0 24 24" version="1.1">
<g id="surface1">
<path style=" stroke:none;fill-rule:nonzero;fill:rgb(74.509804%,74.509804%,74.509804%);fill-opacity:1;" d="M 3.046875 6 L 15 6 C 15.828125 6 16.5 6.671875 16.5 7.5 L 16.5 18 C 16.5 18.828125 15.828125 19.5 15 19.5 L 3.046875 19.5 C 2.21875 19.5 1.546875 18.828125 1.546875 18 L 1.546875 7.5 C 1.546875 6.671875 2.21875 6 3.046875 6 Z M 3.046875 6 "/>
<path style=" stroke:none;fill-rule:nonzero;fill:rgb(74.509804%,74.509804%,74.509804%);fill-opacity:1;" d="M 16.5 12.707031 L 21.703125 7.5 L 22.5 7.5 L 22.5 18 L 21.75 18 Z M 16.5 12.707031 "/>
<path style=" stroke:none;fill-rule:nonzero;fill:rgb(100%,100%,100%);fill-opacity:1;" d="M 2.753906 19.460938 C 2.367188 19.386719 1.933594 19.070312 1.753906 18.730469 C 1.550781 18.347656 1.5625 18.738281 1.5625 12.75 C 1.5625 8.03125 1.566406 7.289062 1.609375 7.136719 C 1.734375 6.644531 2.074219 6.273438 2.570312 6.085938 L 2.753906 6.015625 L 8.882812 6.007812 C 13.105469 6 15.078125 6.007812 15.226562 6.03125 C 15.796875 6.121094 16.265625 6.539062 16.433594 7.113281 C 16.476562 7.265625 16.484375 7.832031 16.480469 12.746094 C 16.480469 17.269531 16.472656 18.242188 16.4375 18.371094 C 16.292969 18.921875 15.820312 19.359375 15.261719 19.464844 C 15.023438 19.507812 2.984375 19.503906 2.753906 19.460938 Z M 2.753906 19.460938 "/>
<path style=" stroke:none;fill-rule:nonzero;fill:rgb(100%,100%,100%);fill-opacity:1;" d="M 19.132812 15.34375 L 16.511719 12.703125 L 21.699219 7.515625 L 22.488281 7.515625 L 22.488281 17.980469 L 21.75 17.980469 Z M 19.132812 15.34375 "/>
</g>
</svg>
