<?xml version="1.0" encoding="UTF-8"?>
<svg xmlns="http://www.w3.org/2000/svg" xmlns:xlink="http://www.w3.org/1999/xlink" width="24" height="24" viewBox="0 0 24 24" version="1.1">
<g id="surface1">
<path style=" stroke:none;fill-rule:nonzero;fill:rgb(74.509804%,74.509804%,74.509804%);fill-opacity:1;" d="M 17.25 1.5 C 20.148438 1.5 22.5 3.851562 22.5 6.75 C 22.5 8.429688 21.710938 9.914062 20.484375 10.875 C 20.800781 11.148438 21 11.546875 21 12 C 20.996094 15 21 16.578125 21 21 C 21 21.832031 20.332031 22.5 19.5 22.5 L 6 22.5 C 5.167969 22.5 4.5 21.832031 4.5 21 L 4.5 17.765625 L 0.65625 20.625 C 0.628906 20.644531 0.59375 20.660156 0.5625 20.671875 C 0.515625 20.679688 0.46875 20.679688 0.421875 20.671875 C 0.390625 20.675781 0.359375 20.675781 0.328125 20.671875 C 0.296875 20.660156 0.261719 20.644531 0.234375 20.625 C 0.203125 20.613281 0.171875 20.597656 0.140625 20.578125 C 0.125 20.5625 0.109375 20.546875 0.09375 20.53125 C 0.078125 20.515625 0.0625 20.5 0.046875 20.484375 C 0.0273438 20.457031 0.0117188 20.425781 0 20.390625 C -0.00390625 20.359375 -0.00390625 20.328125 0 20.296875 L 0 11.203125 C -0.00390625 11.171875 -0.00390625 11.140625 0 11.109375 C 0.0117188 11.078125 0.0273438 11.046875 0.046875 11.015625 C 0.0625 11 0.078125 10.984375 0.09375 10.96875 C 0.109375 10.953125 0.125 10.9375 0.140625 10.921875 C 0.15625 10.90625 0.171875 10.890625 0.1875 10.875 C 0.203125 10.859375 0.21875 10.84375 0.234375 10.828125 C 0.261719 10.808594 0.296875 10.792969 0.328125 10.78125 C 0.375 10.773438 0.421875 10.773438 0.46875 10.78125 C 0.484375 10.78125 0.5 10.78125 0.515625 10.78125 C 0.53125 10.796875 0.546875 10.8125 0.5625 10.828125 C 0.59375 10.839844 0.628906 10.855469 0.65625 10.875 L 4.5 13.734375 L 4.5 12 C 4.5 11.546875 4.699219 11.148438 5.015625 10.875 C 3.789062 9.914062 3 8.429688 3 6.75 C 3 3.851562 5.351562 1.5 8.25 1.5 C 10.175781 1.5 11.835938 2.535156 12.75 4.078125 C 13.664062 2.535156 15.324219 1.5 17.25 1.5 Z M 17.25 4.5 C 16.007812 4.5 15 5.507812 15 6.75 C 15 7.992188 16.007812 9 17.25 9 C 18.492188 9 19.5 7.992188 19.5 6.75 C 19.5 5.507812 18.492188 4.5 17.25 4.5 Z M 8.25 4.5 C 7.007812 4.5 6 5.507812 6 6.75 C 6 7.992188 7.007812 9 8.25 9 C 9.492188 9 10.5 7.992188 10.5 6.75 C 10.5 5.507812 9.492188 4.5 8.25 4.5 Z M 12.75 9.421875 C 12.511719 9.824219 12.238281 10.175781 11.90625 10.5 L 13.59375 10.5 C 13.261719 10.175781 12.988281 9.824219 12.75 9.421875 Z M 12.75 9.421875 "/>
<path style=" stroke:none;fill-rule:nonzero;fill:rgb(100%,100%,100%);fill-opacity:1;" d="M 5.757812 22.464844 C 5.335938 22.402344 4.882812 22.082031 4.695312 21.710938 C 4.515625 21.359375 4.523438 21.410156 4.503906 19.519531 L 4.488281 17.761719 L 2.753906 19.054688 C 1.800781 19.761719 0.917969 20.417969 0.789062 20.507812 C 0.53125 20.695312 0.429688 20.714844 0.230469 20.613281 C -0.0078125 20.492188 0.015625 20.945312 0.015625 15.742188 L 0.015625 11.070312 L 0.148438 10.933594 C 0.3125 10.773438 0.441406 10.753906 0.625 10.875 C 0.6875 10.914062 1.585938 11.574219 2.613281 12.34375 L 4.488281 13.738281 L 4.503906 12.726562 C 4.519531 11.855469 4.527344 11.691406 4.574219 11.558594 C 4.652344 11.347656 4.765625 11.152344 4.90625 11 L 5.023438 10.875 L 4.761719 10.644531 C 4.050781 10.023438 3.460938 9.085938 3.207031 8.167969 C 3.058594 7.632812 3.03125 7.40625 3.035156 6.726562 C 3.035156 5.992188 3.078125 5.71875 3.292969 5.066406 C 3.847656 3.40625 5.222656 2.125 6.933594 1.683594 C 8.414062 1.296875 10.011719 1.585938 11.25 2.464844 C 11.632812 2.734375 12.234375 3.335938 12.488281 3.707031 C 12.601562 3.863281 12.707031 4.015625 12.726562 4.042969 C 12.753906 4.085938 12.765625 4.082031 12.8125 3.996094 C 12.921875 3.777344 13.335938 3.273438 13.65625 2.964844 C 14.9375 1.726562 16.738281 1.246094 18.507812 1.664062 C 19.082031 1.800781 19.691406 2.078125 20.242188 2.449219 C 20.613281 2.703125 21.296875 3.386719 21.546875 3.757812 C 22.214844 4.746094 22.523438 5.796875 22.476562 6.945312 C 22.417969 8.410156 21.8125 9.675781 20.703125 10.671875 L 20.480469 10.871094 L 20.585938 10.988281 C 20.734375 11.15625 20.835938 11.324219 20.914062 11.546875 L 20.988281 11.742188 L 20.996094 16.324219 C 21 19.269531 20.992188 21 20.972656 21.164062 C 20.890625 21.839844 20.375 22.375 19.71875 22.46875 C 19.445312 22.507812 6.019531 22.503906 5.757812 22.464844 Z M 13.375 10.253906 C 13.246094 10.109375 13.058594 9.863281 12.953125 9.714844 C 12.851562 9.5625 12.753906 9.4375 12.742188 9.4375 C 12.730469 9.4375 12.675781 9.515625 12.617188 9.609375 C 12.515625 9.777344 12.285156 10.070312 12.023438 10.375 L 11.894531 10.519531 L 13.609375 10.519531 Z M 8.945312 8.898438 C 9.933594 8.566406 10.558594 7.648438 10.5 6.621094 C 10.449219 5.792969 9.96875 5.070312 9.226562 4.714844 C 8.882812 4.554688 8.652344 4.503906 8.246094 4.503906 C 7.828125 4.503906 7.609375 4.554688 7.226562 4.738281 C 7.007812 4.84375 6.910156 4.917969 6.667969 5.164062 C 6.429688 5.402344 6.347656 5.507812 6.242188 5.722656 C 6.054688 6.101562 6.003906 6.316406 6.003906 6.757812 C 6.003906 7.0625 6.019531 7.175781 6.078125 7.363281 C 6.335938 8.191406 6.949219 8.773438 7.769531 8.960938 C 8.074219 9.03125 8.640625 9 8.945312 8.898438 Z M 17.734375 8.957031 C 18.007812 8.898438 18.386719 8.71875 18.644531 8.523438 C 19.007812 8.25 19.292969 7.816406 19.425781 7.347656 C 19.511719 7.054688 19.523438 6.519531 19.457031 6.25 C 19.246094 5.40625 18.59375 4.753906 17.75 4.542969 C 17.515625 4.484375 16.949219 4.492188 16.699219 4.554688 C 16.042969 4.726562 15.511719 5.171875 15.207031 5.800781 C 14.898438 6.445312 14.933594 7.269531 15.296875 7.886719 C 15.621094 8.429688 16.164062 8.820312 16.777344 8.957031 C 17.027344 9.011719 17.472656 9.011719 17.734375 8.957031 Z M 17.734375 8.957031 "/>
</g>
</svg>
