<?xml version="1.0" encoding="UTF-8"?>
<svg xmlns="http://www.w3.org/2000/svg" xmlns:xlink="http://www.w3.org/1999/xlink" width="24" height="24" viewBox="0 0 24 24" version="1.1">
<g id="surface1">
<path style=" stroke:none;fill-rule:nonzero;fill:rgb(74.509804%,74.509804%,74.509804%);fill-opacity:1;" d="M 10.589844 0.015625 C 9.90625 0.0898438 9.265625 0.347656 8.714844 0.765625 C 7.984375 1.320312 7.496094 2.195312 7.496094 3.296875 L 7.496094 11.265625 C 7.496094 11.265625 7.851562 12.027344 8.246094 12.027344 C 8.640625 12.027344 8.996094 11.265625 8.996094 11.265625 L 8.996094 3.296875 C 8.996094 2.621094 9.253906 2.242188 9.652344 1.9375 C 10.050781 1.632812 10.648438 1.488281 11.246094 1.515625 C 11.84375 1.542969 12.421875 1.746094 12.839844 2.125 C 13.257812 2.503906 13.542969 3 13.542969 3.8125 C 13.542969 7.058594 15.738281 9.074219 18.042969 9.015625 C 19.328125 8.980469 20.574219 8.300781 21.417969 7.046875 L 20.574219 5.546875 C 20.011719 6.921875 18.972656 7.488281 17.996094 7.515625 C 16.554688 7.554688 15.042969 6.421875 15.042969 3.8125 C 15.042969 2.625 14.539062 1.644531 13.824219 1 C 13.109375 0.351562 12.203125 0.0585938 11.292969 0.015625 C 11.066406 0.00390625 10.816406 -0.0078125 10.589844 0.015625 Z M 20.996094 3.015625 C 20.996094 3.082031 20.996094 3.136719 20.996094 3.203125 L 22.167969 5.265625 C 22.183594 5.203125 22.199219 5.140625 22.214844 5.078125 Z M 20.996094 3.53125 C 20.988281 3.691406 20.964844 3.851562 20.949219 4 L 22.027344 5.828125 C 22.0625 5.734375 22.089844 5.644531 22.121094 5.546875 Z M 20.902344 4.28125 C 20.882812 4.414062 20.835938 4.53125 20.808594 4.65625 L 21.792969 6.34375 C 21.835938 6.25 21.894531 6.15625 21.933594 6.0625 Z M 20.761719 4.9375 C 20.726562 5.070312 20.664062 5.191406 20.621094 5.3125 L 21.511719 6.859375 C 21.570312 6.761719 21.644531 6.679688 21.699219 6.578125 Z M 20.761719 4.9375 "/>
<path style=" stroke:none;fill-rule:nonzero;fill:rgb(74.509804%,74.509804%,74.509804%);fill-opacity:1;" d="M 4.089844 9.015625 L 12.410156 9.015625 C 13.011719 9.015625 13.5 9.503906 13.5 10.105469 L 13.5 19.925781 C 13.5 20.527344 13.011719 21.015625 12.410156 21.015625 L 4.089844 21.015625 C 3.488281 21.015625 3 20.527344 3 19.925781 L 3 10.105469 C 3 9.503906 3.488281 9.015625 4.089844 9.015625 Z M 4.089844 9.015625 "/>
<path style=" stroke:none;fill-rule:nonzero;fill:rgb(100%,100%,100%);fill-opacity:1;" d="M 3.777344 20.960938 C 3.429688 20.851562 3.167969 20.589844 3.0625 20.246094 C 3.015625 20.089844 3.011719 19.996094 3.011719 15.007812 C 3.011719 9.964844 3.015625 9.925781 3.0625 9.777344 C 3.167969 9.472656 3.347656 9.269531 3.640625 9.128906 L 3.828125 9.039062 L 5.664062 9.03125 L 7.503906 9.023438 L 7.511719 5.921875 C 7.519531 2.488281 7.507812 2.738281 7.683594 2.214844 C 7.945312 1.425781 8.523438 0.792969 9.347656 0.394531 C 9.898438 0.128906 10.226562 0.046875 10.808594 0.0234375 C 12.59375 -0.0351562 13.976562 0.722656 14.65625 2.136719 C 14.914062 2.675781 14.996094 3.058594 15.03125 3.847656 C 15.074219 4.832031 15.191406 5.359375 15.507812 5.984375 C 15.878906 6.71875 16.542969 7.257812 17.304688 7.449219 C 17.570312 7.511719 18.027344 7.535156 18.296875 7.496094 C 18.945312 7.402344 19.585938 7.035156 20.007812 6.515625 C 20.191406 6.289062 20.449219 5.875 20.519531 5.695312 C 20.539062 5.636719 20.566406 5.589844 20.574219 5.589844 C 20.585938 5.589844 20.773438 5.917969 21 6.316406 L 21.410156 7.046875 L 21.296875 7.203125 C 20.667969 8.078125 19.726562 8.710938 18.714844 8.929688 C 18.496094 8.976562 18.382812 8.984375 17.945312 8.984375 C 17.507812 8.984375 17.390625 8.976562 17.175781 8.929688 C 15.851562 8.644531 14.753906 7.746094 14.125 6.445312 C 13.875 5.925781 13.683594 5.269531 13.605469 4.65625 C 13.589844 4.539062 13.566406 4.199219 13.554688 3.90625 C 13.527344 3.277344 13.488281 3.085938 13.316406 2.738281 C 12.976562 2.054688 12.277344 1.613281 11.382812 1.519531 C 10.804688 1.460938 10.171875 1.589844 9.761719 1.855469 C 9.460938 2.046875 9.222656 2.324219 9.109375 2.605469 C 8.988281 2.910156 8.988281 2.925781 8.984375 6.070312 L 8.984375 9.027344 L 10.761719 9.027344 C 12.722656 9.027344 12.707031 9.023438 12.972656 9.183594 C 13.238281 9.34375 13.429688 9.636719 13.476562 9.96875 C 13.511719 10.203125 13.511719 19.839844 13.476562 20.074219 C 13.417969 20.488281 13.117188 20.839844 12.726562 20.957031 C 12.601562 20.992188 12.144531 20.996094 8.234375 20.992188 C 4.796875 20.992188 3.859375 20.984375 3.777344 20.960938 Z M 3.777344 20.960938 "/>
</g>
</svg>
