<?xml version="1.0" encoding="UTF-8"?>
<svg xmlns="http://www.w3.org/2000/svg" xmlns:xlink="http://www.w3.org/1999/xlink" width="24" height="24" viewBox="0 0 24 24" version="1.1">
<g id="surface1">
<path style=" stroke:none;fill-rule:nonzero;fill:rgb(74.509804%,74.509804%,74.509804%);fill-opacity:1;" d="M 3.707031 1.5 C 2.472656 1.5 1.5 2.472656 1.5 3.703125 L 1.5 20.296875 C 1.5 21.527344 2.472656 22.5 3.707031 22.5 L 17.300781 22.5 C 18.53125 22.5 19.503906 21.527344 19.503906 20.296875 L 19.503906 3.703125 C 19.503906 2.472656 18.53125 1.5 17.300781 1.5 Z M 3.003906 3 L 18.003906 3 L 18.003906 19.5 L 3.003906 19.5 Z M 3.003906 3 "/>
<path style=" stroke:none;fill-rule:nonzero;fill:rgb(100%,100%,100%);fill-opacity:1;" d="M 3.40625 22.464844 C 2.515625 22.335938 1.832031 21.738281 1.585938 20.867188 L 1.515625 20.628906 L 1.507812 12.191406 C 1.5 6.40625 1.507812 3.667969 1.53125 3.46875 C 1.628906 2.589844 2.1875 1.898438 3.03125 1.613281 L 3.28125 1.527344 L 10.351562 1.519531 C 15.574219 1.511719 17.488281 1.519531 17.660156 1.542969 C 18.460938 1.667969 19.101562 2.214844 19.382812 3.011719 L 19.46875 3.261719 L 19.476562 11.910156 C 19.484375 20.492188 19.484375 20.558594 19.421875 20.820312 C 19.328125 21.21875 19.148438 21.539062 18.851562 21.835938 C 18.464844 22.21875 18.097656 22.402344 17.566406 22.46875 C 17.242188 22.507812 3.683594 22.507812 3.40625 22.464844 Z M 18 11.246094 L 18 2.996094 L 2.984375 2.996094 L 2.984375 19.496094 L 18 19.496094 Z M 18 11.246094 "/>
</g>
</svg>
