<?xml version="1.0" encoding="UTF-8"?>
<svg xmlns="http://www.w3.org/2000/svg" xmlns:xlink="http://www.w3.org/1999/xlink" width="24" height="24" viewBox="0 0 24 24" version="1.1">
<g id="surface1">
<path style=" stroke:none;fill-rule:nonzero;fill:rgb(74.509804%,74.509804%,74.509804%);fill-opacity:1;" d="M 1.5 7.5 C 0.671875 7.5 0.00390625 8.285156 0.00390625 9.234375 L 0.00390625 16.078125 C 0.00390625 17.027344 0.625 18 1.457031 18 L 2.957031 18 C 2.957031 18.949219 3.667969 19.5 4.496094 19.5 L 5.992188 19.5 C 6.820312 19.5 7.457031 18.949219 7.457031 18 L 16.4375 18 C 16.4375 18.949219 17.136719 19.5 17.96875 19.5 L 19.460938 19.5 C 20.289062 19.5 20.957031 18.949219 20.957031 18 L 22.460938 18 C 23.289062 18 23.957031 17.027344 23.957031 16.078125 L 23.957031 9.234375 C 23.941406 8.273438 23.28125 7.492188 22.441406 7.492188 Z M 2.25 9.289062 C 2.660156 9.289062 2.996094 10.679688 2.996094 12.75 C 2.996094 14.820312 2.660156 16.105469 2.25 16.105469 C 1.835938 16.105469 1.5 14.820312 1.5 12.75 C 1.5 10.679688 1.835938 9.289062 2.25 9.289062 Z M 5.242188 9.289062 C 5.65625 9.289062 5.992188 10.964844 5.992188 13.039062 C 5.992188 15.109375 5.605469 16.097656 5.191406 16.097656 C 4.777344 16.097656 4.492188 14.820312 4.492188 12.75 C 4.492188 10.679688 4.828125 9.289062 5.242188 9.289062 Z M 8.183594 9.289062 C 8.597656 9.289062 8.984375 10.679688 8.984375 12.75 C 8.984375 14.820312 8.648438 16.097656 8.238281 16.097656 C 7.824219 16.097656 7.488281 14.820312 7.488281 12.75 C 7.488281 10.679688 7.769531 9.289062 8.183594 9.289062 Z M 18.714844 9.003906 C 20.78125 9.003906 22.457031 10.679688 22.457031 12.753906 C 22.457031 14.824219 20.78125 16.503906 18.714844 16.503906 C 16.648438 16.503906 14.972656 14.824219 14.972656 12.753906 C 14.972656 10.679688 16.648438 9.003906 18.714844 9.003906 Z M 18.714844 9.003906 "/>
<path style=" stroke:none;fill-rule:nonzero;fill:rgb(74.509804%,74.509804%,74.509804%);fill-opacity:1;" d="M 20.957031 12.75 C 20.957031 13.992188 19.949219 15 18.707031 15 C 17.460938 15 16.457031 13.992188 16.457031 12.75 C 16.457031 11.507812 17.460938 10.5 18.707031 10.5 C 19.949219 10.5 20.957031 11.507812 20.957031 12.75 Z M 20.957031 12.75 "/>
<path style=" stroke:none;fill-rule:nonzero;fill:rgb(100%,100%,100%);fill-opacity:1;" d="M 4.207031 19.464844 C 3.851562 19.40625 3.601562 19.273438 3.363281 19.023438 C 3.179688 18.828125 3.027344 18.535156 3 18.324219 C 2.992188 18.246094 2.976562 18.136719 2.96875 18.082031 L 2.953125 17.984375 L 2.0625 17.972656 L 1.175781 17.964844 L 0.992188 17.878906 C 0.617188 17.703125 0.265625 17.242188 0.101562 16.710938 L 0.03125 16.480469 L 0.0195312 12.773438 C 0.0117188 8.632812 0.00390625 8.824219 0.226562 8.367188 C 0.386719 8.046875 0.628906 7.800781 0.941406 7.648438 L 1.171875 7.53125 L 22.785156 7.53125 L 23.019531 7.648438 C 23.449219 7.859375 23.789062 8.324219 23.898438 8.84375 C 23.9375 9.039062 23.941406 9.566406 23.9375 12.773438 L 23.925781 16.480469 L 23.855469 16.695312 C 23.671875 17.238281 23.324219 17.6875 22.9375 17.875 L 22.75 17.964844 L 21.847656 17.972656 L 20.941406 17.984375 L 20.941406 18.09375 C 20.941406 18.289062 20.84375 18.621094 20.738281 18.804688 C 20.597656 19.042969 20.417969 19.203125 20.148438 19.332031 C 19.832031 19.484375 19.613281 19.503906 18.5625 19.492188 C 17.703125 19.480469 17.628906 19.472656 17.445312 19.410156 C 16.886719 19.210938 16.546875 18.796875 16.46875 18.222656 L 16.4375 17.980469 L 7.445312 17.980469 L 7.441406 18.097656 C 7.441406 18.285156 7.355469 18.59375 7.253906 18.789062 C 7.066406 19.140625 6.6875 19.398438 6.265625 19.464844 C 6.03125 19.503906 4.433594 19.503906 4.207031 19.464844 Z M 19.382812 16.445312 C 20.105469 16.316406 20.75 15.992188 21.285156 15.484375 C 22.792969 14.046875 22.859375 11.695312 21.4375 10.171875 C 20.457031 9.121094 18.898438 8.730469 17.527344 9.191406 C 16.417969 9.5625 15.527344 10.453125 15.152344 11.566406 C 14.851562 12.460938 14.925781 13.566406 15.339844 14.394531 C 16.105469 15.925781 17.714844 16.742188 19.382812 16.445312 Z M 2.367188 16.078125 C 2.625 15.941406 2.851562 15.171875 2.960938 14.050781 C 3.007812 13.550781 3.003906 11.917969 2.957031 11.417969 C 2.800781 9.769531 2.4375 8.960938 2.054688 9.394531 C 1.703125 9.800781 1.5 11.015625 1.5 12.730469 C 1.5 14.488281 1.714844 15.710938 2.078125 16.03125 C 2.195312 16.136719 2.238281 16.140625 2.367188 16.078125 Z M 5.359375 16.042969 C 5.597656 15.894531 5.789062 15.386719 5.914062 14.570312 C 5.980469 14.132812 6.007812 12.484375 5.960938 11.8125 C 5.855469 10.378906 5.597656 9.40625 5.296875 9.296875 C 5.160156 9.25 5.0625 9.328125 4.925781 9.59375 C 4.636719 10.167969 4.492188 11.210938 4.492188 12.765625 C 4.492188 14.003906 4.582031 14.933594 4.75 15.488281 C 4.921875 16.035156 5.105469 16.203125 5.359375 16.042969 Z M 8.480469 15.953125 C 8.664062 15.71875 8.820312 15.125 8.917969 14.328125 C 8.996094 13.679688 9 11.867188 8.917969 11.234375 C 8.796875 10.25 8.613281 9.617188 8.375 9.382812 C 8.058594 9.066406 7.773438 9.515625 7.617188 10.582031 C 7.445312 11.707031 7.433594 13.453125 7.585938 14.558594 C 7.695312 15.363281 7.90625 15.960938 8.121094 16.066406 C 8.25 16.132812 8.375 16.09375 8.480469 15.953125 Z M 8.480469 15.953125 "/>
<path style=" stroke:none;fill-rule:nonzero;fill:rgb(100%,100%,100%);fill-opacity:1;" d="M 18.160156 14.917969 C 17.550781 14.769531 17.019531 14.34375 16.714844 13.769531 C 16.394531 13.160156 16.394531 12.339844 16.714844 11.730469 C 17.113281 10.972656 17.859375 10.519531 18.707031 10.519531 C 20.570312 10.523438 21.597656 12.636719 20.460938 14.136719 C 20.183594 14.5 19.730469 14.792969 19.25 14.917969 C 18.945312 14.996094 18.476562 14.996094 18.160156 14.917969 Z M 18.160156 14.917969 "/>
</g>
</svg>
