<?xml version="1.0" encoding="UTF-8"?>
<svg xmlns="http://www.w3.org/2000/svg" xmlns:xlink="http://www.w3.org/1999/xlink" width="24" height="24" viewBox="0 0 24 24" version="1.1">
<g id="surface1">
<path style=" stroke:none;fill-rule:nonzero;fill:rgb(74.509804%,74.509804%,74.509804%);fill-opacity:1;" d="M 4.785156 0 C 2.984375 0 1.503906 1.480469 1.503906 3.28125 L 1.503906 4.5 L 4.503906 4.5 L 4.503906 3.28125 C 4.503906 3.085938 4.597656 3 4.785156 3 L 19.222656 3 C 19.410156 3 19.503906 3.085938 19.503906 3.28125 L 19.503906 4.5 L 22.503906 4.5 L 22.503906 3.28125 C 22.503906 1.480469 21.023438 0 19.222656 0 Z M 4.785156 0 "/>
<path style=" stroke:none;fill-rule:nonzero;fill:rgb(74.509804%,74.509804%,74.509804%);fill-opacity:1;" d="M 4.785156 18 C 2.984375 18 1.503906 19.527344 1.503906 21.328125 L 1.503906 24.046875 L 4.503906 24.046875 L 4.503906 21.328125 C 4.503906 21.132812 4.597656 21 4.785156 21 L 19.222656 21 C 19.410156 21 19.503906 21.132812 19.503906 21.328125 L 19.503906 24 L 22.503906 24 L 22.503906 21.328125 C 22.488281 19.527344 21.003906 18 19.203125 18 L 4.765625 18 Z M 4.785156 18 "/>
<path style=" stroke:none;fill-rule:nonzero;fill:rgb(74.509804%,74.509804%,74.509804%);fill-opacity:1;" d="M 4.785156 6 C 2.984375 6 1.503906 7.480469 1.503906 9.28125 L 1.503906 10.5 L 4.503906 10.5 L 4.503906 9.28125 C 4.503906 9.085938 4.597656 9 4.785156 9 L 19.222656 9 C 19.410156 9 19.503906 9.085938 19.503906 9.28125 L 19.503906 10.5 L 22.503906 10.5 L 22.503906 9.28125 C 22.503906 7.480469 21.023438 6 19.222656 6 Z M 4.785156 6 "/>
<path style=" stroke:none;fill-rule:nonzero;fill:rgb(74.509804%,74.509804%,74.509804%);fill-opacity:1;" d="M 4.785156 12 C 2.984375 12 1.503906 13.480469 1.503906 15.28125 L 1.503906 16.5 L 4.503906 16.5 L 4.503906 15.28125 C 4.503906 15.085938 4.597656 15 4.785156 15 L 19.222656 15 C 19.410156 15 19.503906 15.085938 19.503906 15.28125 L 19.503906 16.5 L 22.503906 16.5 L 22.503906 15.28125 C 22.503906 13.480469 21.023438 12 19.222656 12 Z M 4.785156 12 "/>
<path style=" stroke:none;fill-rule:nonzero;fill:rgb(100%,100%,100%);fill-opacity:1;" d="M 1.515625 22.46875 C 1.523438 21.113281 1.535156 20.863281 1.582031 20.664062 C 1.820312 19.628906 2.464844 18.804688 3.382812 18.351562 C 3.792969 18.148438 4.101562 18.0625 4.578125 18.023438 C 5.0625 17.984375 18.96875 17.984375 19.425781 18.023438 C 19.871094 18.0625 20.1875 18.144531 20.550781 18.320312 C 21.535156 18.785156 22.230469 19.6875 22.4375 20.761719 C 22.472656 20.960938 22.484375 21.300781 22.484375 22.496094 L 22.484375 23.984375 L 19.503906 23.984375 L 19.503906 21.15625 L 19.351562 21.003906 L 4.648438 21.003906 L 4.574219 21.082031 L 4.5 21.164062 L 4.492188 22.605469 L 4.480469 24.042969 L 1.5 24.042969 Z M 1.515625 22.46875 "/>
<path style=" stroke:none;fill-rule:nonzero;fill:rgb(100%,100%,100%);fill-opacity:1;" d="M 1.503906 15.84375 C 1.503906 14.847656 1.570312 14.453125 1.828125 13.910156 C 2.011719 13.519531 2.1875 13.273438 2.480469 12.980469 C 3.007812 12.453125 3.667969 12.128906 4.398438 12.035156 C 4.75 11.992188 19.234375 11.992188 19.597656 12.035156 C 20.929688 12.199219 22.003906 13.128906 22.378906 14.441406 C 22.457031 14.703125 22.460938 14.769531 22.472656 15.613281 L 22.488281 16.503906 L 19.503906 16.503906 L 19.503906 15.824219 C 19.503906 15.203125 19.5 15.140625 19.445312 15.074219 L 19.386719 15 L 4.640625 15 L 4.570312 15.070312 C 4.5 15.136719 4.5 15.160156 4.492188 15.820312 L 4.480469 16.503906 L 1.503906 16.503906 Z M 1.503906 15.84375 "/>
<path style=" stroke:none;fill-rule:nonzero;fill:rgb(100%,100%,100%);fill-opacity:1;" d="M 1.511719 9.652344 C 1.53125 8.738281 1.566406 8.511719 1.78125 8 C 2.203125 6.992188 3.222656 6.203125 4.3125 6.046875 C 4.496094 6.023438 6.617188 6.015625 12.148438 6.023438 L 19.734375 6.03125 L 20.035156 6.113281 C 21.101562 6.40625 21.921875 7.160156 22.296875 8.179688 C 22.453125 8.609375 22.484375 8.859375 22.484375 9.710938 L 22.484375 10.484375 L 19.503906 10.484375 L 19.503906 9.816406 C 19.503906 9.148438 19.503906 9.148438 19.425781 9.070312 L 19.351562 8.992188 L 12.007812 8.992188 C 7.277344 8.992188 4.644531 9.003906 4.609375 9.023438 C 4.507812 9.078125 4.484375 9.230469 4.484375 9.867188 L 4.484375 10.484375 L 1.496094 10.484375 Z M 1.511719 9.652344 "/>
<path style=" stroke:none;fill-rule:nonzero;fill:rgb(100%,100%,100%);fill-opacity:1;" d="M 1.503906 3.851562 C 1.507812 3.496094 1.519531 3.089844 1.535156 2.945312 C 1.664062 1.8125 2.34375 0.84375 3.351562 0.351562 C 3.75 0.15625 4.113281 0.0625 4.59375 0.0234375 C 4.851562 0.00390625 7.589844 -0.00390625 12.304688 0.00390625 C 19.585938 0.0117188 19.613281 0.0117188 19.890625 0.078125 C 20.894531 0.308594 21.699219 0.941406 22.148438 1.839844 C 22.425781 2.398438 22.484375 2.71875 22.484375 3.722656 L 22.484375 4.496094 L 19.503906 4.496094 L 19.503906 3.816406 C 19.503906 3.0625 19.5 3.050781 19.300781 3.003906 C 19.101562 2.957031 4.804688 2.96875 4.671875 3.015625 C 4.5 3.074219 4.484375 3.132812 4.484375 3.851562 L 4.484375 4.496094 L 1.503906 4.496094 Z M 1.503906 3.851562 "/>
</g>
</svg>
