<?xml version="1.0" encoding="UTF-8"?>
<svg xmlns="http://www.w3.org/2000/svg" xmlns:xlink="http://www.w3.org/1999/xlink" width="24" height="24" viewBox="0 0 24 24" version="1.1">
<g id="surface1">
<path style=" stroke:none;fill-rule:nonzero;fill:rgb(74.509804%,74.509804%,74.509804%);fill-opacity:1;" d="M 5.488281 0 C 3.363281 0 1.601562 1.765625 1.601562 3.890625 L 1.601562 22.453125 L 22.601562 22.453125 L 22.601562 3.890625 C 22.601562 1.765625 20.835938 0 18.707031 0 Z M 5.488281 3 L 18.710938 3 C 19.226562 3 19.601562 3.371094 19.601562 3.890625 L 19.601562 19.453125 L 4.597656 19.453125 L 4.597656 3.890625 C 4.597656 3.371094 4.972656 3 5.488281 3 Z M 5.488281 3 "/>
<path style=" stroke:none;fill-rule:nonzero;fill:rgb(74.509804%,74.509804%,74.509804%);fill-opacity:1;" d="M 7.5 6.042969 L 7.5 7.542969 L 16.5 7.542969 L 16.5 6.042969 Z M 7.5 6.042969 "/>
<path style=" stroke:none;fill-rule:nonzero;fill:rgb(74.509804%,74.509804%,74.509804%);fill-opacity:1;" d="M 7.5 9 L 7.5 10.5 L 16.5 10.5 L 16.5 9 Z M 7.5 9 "/>
<path style=" stroke:none;fill-rule:nonzero;fill:rgb(74.509804%,74.509804%,74.509804%);fill-opacity:1;" d="M 7.5 12 L 7.5 13.5 L 16.5 13.5 L 16.5 12 Z M 7.5 12 "/>
<path style=" stroke:none;fill-rule:nonzero;fill:rgb(74.509804%,74.509804%,74.509804%);fill-opacity:1;" d="M 7.5 15 L 7.5 16.5 L 16.5 16.5 L 16.5 15 Z M 7.5 15 "/>
<path style=" stroke:none;fill-rule:nonzero;fill:rgb(100%,100%,100%);fill-opacity:1;" d="M 1.625 12.96875 C 1.625 4.5625 1.628906 3.472656 1.671875 3.226562 C 1.757812 2.722656 1.972656 2.191406 2.253906 1.773438 C 2.425781 1.515625 2.492188 1.441406 2.777344 1.148438 C 3.324219 0.589844 4.039062 0.21875 4.84375 0.0664062 C 5.121094 0.015625 5.542969 0.0117188 12.070312 0.0117188 C 17.683594 0.0117188 19.054688 0.0195312 19.265625 0.0507812 C 20.078125 0.179688 20.792969 0.539062 21.386719 1.113281 C 21.871094 1.578125 22.214844 2.128906 22.40625 2.746094 C 22.589844 3.332031 22.582031 2.675781 22.582031 12.984375 L 22.582031 22.4375 L 1.625 22.4375 Z M 19.609375 11.609375 C 19.609375 4.691406 19.601562 3.734375 19.5625 3.59375 C 19.496094 3.371094 19.285156 3.144531 19.0625 3.0625 L 18.894531 2.996094 L 12.046875 3.003906 C 5.441406 3.011719 5.195312 3.015625 5.089844 3.070312 C 4.90625 3.167969 4.722656 3.371094 4.65625 3.546875 C 4.597656 3.710938 4.59375 3.800781 4.59375 11.589844 L 4.59375 19.464844 L 19.609375 19.464844 Z M 19.609375 11.609375 "/>
<path style=" stroke:none;fill-rule:nonzero;fill:rgb(100%,100%,100%);fill-opacity:1;" d="M 7.503906 6.804688 L 7.503906 6.0625 L 16.484375 6.0625 L 16.484375 7.546875 L 7.503906 7.546875 Z M 7.503906 6.804688 "/>
<path style=" stroke:none;fill-rule:nonzero;fill:rgb(100%,100%,100%);fill-opacity:1;" d="M 7.503906 9.746094 L 7.503906 9.003906 L 16.484375 9.003906 L 16.484375 10.488281 L 7.503906 10.488281 Z M 7.503906 9.746094 "/>
<path style=" stroke:none;fill-rule:nonzero;fill:rgb(100%,100%,100%);fill-opacity:1;" d="M 7.503906 12.75 L 7.503906 12.007812 L 16.484375 12.007812 L 16.484375 13.492188 L 7.503906 13.492188 Z M 7.503906 12.75 "/>
<path style=" stroke:none;fill-rule:nonzero;fill:rgb(100%,100%,100%);fill-opacity:1;" d="M 7.503906 15.753906 L 7.503906 15.007812 L 16.484375 15.007812 L 16.484375 16.496094 L 7.503906 16.496094 Z M 7.503906 15.753906 "/>
</g>
</svg>
