<?xml version="1.0" encoding="UTF-8"?>
<svg xmlns="http://www.w3.org/2000/svg" xmlns:xlink="http://www.w3.org/1999/xlink" width="24" height="24" viewBox="0 0 24 24" version="1.1">
<g id="surface1">
<path style=" stroke:none;fill-rule:nonzero;fill:rgb(74.509804%,74.509804%,74.509804%);fill-opacity:1;" d="M 3.75 1.5 C 1.671875 1.5 0 3.171875 0 5.25 L 0 17.25 C 0 19.328125 1.671875 21 3.75 21 L 3.75 18 C 3.335938 18 3 17.664062 3 17.25 L 3 15 L 21 15 L 21 17.25 C 21 17.664062 20.664062 18 20.25 18 L 20.25 21 C 22.328125 21 24 19.328125 24 17.25 L 24 5.25 C 24 3.171875 22.328125 1.5 20.25 1.5 Z M 3.75 1.5 "/>
<path style=" stroke:none;fill-rule:nonzero;fill:rgb(74.509804%,74.509804%,74.509804%);fill-opacity:1;" d="M 4.320312 16.558594 C 4.320312 20.597656 7.769531 23.917969 11.992188 23.917969 C 16.21875 23.917969 19.695312 20.597656 19.695312 16.558594 L 16.667969 16.558594 C 16.667969 19.039062 14.589844 21.027344 11.992188 21.027344 C 9.398438 21.027344 7.34375 19.039062 7.34375 16.558594 Z M 4.320312 16.558594 "/>
<path style=" stroke:none;fill-rule:nonzero;fill:rgb(74.509804%,74.509804%,74.509804%);fill-opacity:1;" d="M 9 16.5 C 9 18.148438 10.351562 19.5 12 19.5 C 13.648438 19.5 15 18.148438 15 16.5 L 13.5 16.5 C 13.5 17.335938 12.835938 18 12 18 C 11.164062 18 10.5 17.335938 10.5 16.5 Z M 9 16.5 "/>
<path style=" stroke:none;fill-rule:nonzero;fill:rgb(100%,100%,100%);fill-opacity:1;" d="M 11.628906 19.464844 C 10.253906 19.285156 9.128906 18.125 9.03125 16.78125 L 9.011719 16.523438 L 9.753906 16.53125 L 10.492188 16.539062 L 10.515625 16.734375 C 10.5625 17.179688 10.890625 17.628906 11.328125 17.84375 C 12.242188 18.296875 13.3125 17.753906 13.484375 16.746094 L 13.523438 16.527344 L 14.261719 16.527344 C 14.835938 16.527344 14.996094 16.535156 14.996094 16.566406 C 14.996094 16.722656 14.917969 17.160156 14.851562 17.371094 C 14.5 18.5 13.519531 19.320312 12.351562 19.464844 C 12.039062 19.5 11.914062 19.5 11.628906 19.464844 Z M 11.628906 19.464844 "/>
<path style=" stroke:none;fill-rule:nonzero;fill:rgb(100%,100%,100%);fill-opacity:1;" d="M 11.234375 23.871094 C 10.34375 23.789062 9.34375 23.5 8.511719 23.089844 C 6.105469 21.902344 4.507812 19.574219 4.351562 17.015625 C 4.335938 16.789062 4.335938 16.59375 4.347656 16.578125 C 4.355469 16.566406 5.035156 16.558594 5.851562 16.5625 L 7.335938 16.574219 L 7.355469 16.898438 C 7.457031 18.449219 8.445312 19.867188 9.90625 20.5625 C 11.453125 21.300781 13.28125 21.164062 14.722656 20.203125 C 15.121094 19.9375 15.667969 19.386719 15.933594 18.984375 C 16.371094 18.324219 16.613281 17.617188 16.664062 16.867188 L 16.683594 16.574219 L 19.671875 16.554688 L 19.671875 16.816406 C 19.671875 17.863281 19.253906 19.234375 18.636719 20.234375 C 18.199219 20.9375 17.570312 21.652344 16.929688 22.167969 C 15.8125 23.070312 14.367188 23.679688 12.9375 23.847656 C 12.570312 23.890625 11.582031 23.902344 11.234375 23.871094 Z M 11.234375 23.871094 "/>
<path style=" stroke:none;fill-rule:nonzero;fill:rgb(100%,100%,100%);fill-opacity:1;" d="M 3.113281 20.933594 C 1.515625 20.664062 0.242188 19.335938 0.046875 17.734375 C 0.0195312 17.515625 0.0117188 15.761719 0.0195312 11.0625 C 0.0351562 4.050781 0.0195312 4.621094 0.214844 4.03125 C 0.648438 2.738281 1.796875 1.78125 3.171875 1.558594 C 3.429688 1.519531 4.496094 1.511719 11.992188 1.511719 C 21.269531 1.511719 20.800781 1.503906 21.375 1.683594 C 21.964844 1.871094 22.421875 2.152344 22.890625 2.625 C 23.453125 3.1875 23.753906 3.742188 23.910156 4.511719 C 23.972656 4.8125 23.972656 4.925781 23.972656 11.246094 C 23.972656 17.570312 23.972656 17.683594 23.910156 17.984375 C 23.574219 19.636719 22.183594 20.867188 20.53125 20.976562 L 20.257812 20.992188 L 20.257812 18.019531 L 20.375 17.996094 C 20.636719 17.945312 20.90625 17.71875 20.96875 17.488281 C 20.988281 17.421875 21 16.875 21 16.179688 L 21.003906 14.976562 L 12 14.984375 L 3 14.992188 L 2.992188 16.15625 C 2.984375 16.976562 2.992188 17.355469 3.019531 17.449219 C 3.09375 17.71875 3.339844 17.949219 3.613281 17.996094 L 3.730469 18.019531 L 3.730469 20.984375 L 3.550781 20.980469 C 3.453125 20.980469 3.257812 20.957031 3.113281 20.933594 Z M 3.113281 20.933594 "/>
</g>
</svg>
