<?xml version="1.0" encoding="UTF-8"?>
<svg xmlns="http://www.w3.org/2000/svg" xmlns:xlink="http://www.w3.org/1999/xlink" width="24" height="24" viewBox="0 0 24 24" version="1.1">
<g id="surface1">
<path style=" stroke:none;fill-rule:nonzero;fill:rgb(74.509804%,74.509804%,74.509804%);fill-opacity:1;" d="M 5.980469 13.667969 C 7.398438 13.253906 8.914062 14.117188 9.359375 15.59375 L 10.375 18.929688 C 10.820312 20.40625 10.035156 21.941406 8.617188 22.355469 C 7.195312 22.769531 5.683594 21.910156 5.234375 20.433594 L 4.222656 17.09375 C 3.777344 15.617188 4.5625 14.085938 5.980469 13.667969 Z M 5.980469 13.667969 "/>
<path style=" stroke:none;fill-rule:nonzero;fill:rgb(74.509804%,74.509804%,74.509804%);fill-opacity:1;" d="M 11.957031 1.5 C 6.996094 1.5 2.917969 6.011719 3.003906 10.078125 C 3.074219 13.625 4.214844 17.121094 4.503906 18 L 6.789062 18 C 5.046875 14.5625 5.21875 10.265625 5.21875 10.265625 C 5.21875 6.707031 8.226562 3.796875 11.957031 3.796875 C 15.683594 3.796875 18.703125 6.539062 18.691406 10.21875 C 18.65625 12.730469 18.4375 14.207031 17.1875 18 L 19.542969 18 C 19.878906 17.03125 21.003906 13.214844 21.003906 10.078125 C 21.003906 5.832031 16.914062 1.5 11.957031 1.5 Z M 11.957031 1.5 "/>
<path style=" stroke:none;fill-rule:nonzero;fill:rgb(74.509804%,74.509804%,74.509804%);fill-opacity:1;" d="M 18.019531 13.707031 C 16.601562 13.292969 15.089844 14.152344 14.640625 15.628906 L 13.628906 18.96875 C 13.179688 20.445312 13.96875 21.980469 15.386719 22.394531 C 16.804688 22.808594 18.316406 21.949219 18.765625 20.472656 L 19.777344 17.132812 C 20.226562 15.65625 19.4375 14.121094 18.019531 13.707031 Z M 18.019531 13.707031 "/>
<path style=" stroke:none;fill-rule:nonzero;fill:rgb(100%,100%,100%);fill-opacity:1;" d="M 15.800781 22.46875 C 14.519531 22.296875 13.597656 21.277344 13.519531 19.945312 C 13.507812 19.738281 13.519531 19.550781 13.550781 19.375 C 13.617188 18.992188 14.667969 15.539062 14.8125 15.230469 C 14.972656 14.886719 15.15625 14.632812 15.453125 14.355469 C 16.195312 13.660156 17.222656 13.4375 18.167969 13.769531 C 18.265625 13.804688 18.355469 13.828125 18.363281 13.820312 C 18.382812 13.796875 18.523438 12.941406 18.570312 12.53125 C 18.703125 11.371094 18.734375 9.863281 18.640625 9.265625 C 18.21875 6.617188 16.3125 4.617188 13.601562 3.976562 C 12.535156 3.722656 11.234375 3.738281 10.179688 4.015625 C 7.492188 4.726562 5.515625 6.96875 5.242188 9.621094 C 5.195312 10.074219 5.222656 11.757812 5.289062 12.378906 C 5.355469 13.007812 5.464844 13.8125 5.488281 13.839844 C 5.5 13.851562 5.609375 13.820312 5.726562 13.773438 C 6.242188 13.558594 6.945312 13.523438 7.472656 13.691406 C 8.292969 13.953125 8.9375 14.550781 9.257812 15.347656 C 9.371094 15.628906 10.414062 19.085938 10.445312 19.292969 C 10.492188 19.570312 10.484375 20.082031 10.433594 20.324219 C 10.226562 21.300781 9.589844 22.023438 8.679688 22.320312 C 8.304688 22.441406 7.753906 22.476562 7.371094 22.394531 C 6.53125 22.222656 5.785156 21.632812 5.414062 20.851562 C 5.355469 20.726562 5.144531 20.097656 4.949219 19.457031 C 4.757812 18.816406 4.519531 18.042969 4.421875 17.742188 C 3.578125 15.054688 3.085938 12.453125 3.027344 10.320312 C 3.007812 9.625 3.035156 9.214844 3.140625 8.691406 C 3.667969 6.089844 5.644531 3.640625 8.234375 2.390625 C 9.550781 1.757812 10.851562 1.472656 12.242188 1.523438 C 14.140625 1.589844 15.898438 2.242188 17.507812 3.484375 C 17.929688 3.808594 18.761719 4.628906 19.09375 5.046875 C 20.40625 6.699219 21.070312 8.601562 20.988281 10.457031 C 20.910156 12.144531 20.660156 13.785156 20.179688 15.722656 C 19.949219 16.667969 19.644531 17.710938 19.527344 17.964844 C 19.503906 18.015625 19.304688 18.65625 19.082031 19.390625 C 18.652344 20.800781 18.558594 21.03125 18.265625 21.410156 C 17.789062 22.03125 17.042969 22.429688 16.265625 22.476562 C 16.121094 22.488281 15.910156 22.484375 15.800781 22.46875 Z M 15.800781 22.46875 "/>
</g>
</svg>
