<?xml version="1.0" encoding="UTF-8"?>
<svg xmlns="http://www.w3.org/2000/svg" xmlns:xlink="http://www.w3.org/1999/xlink" width="24" height="24" viewBox="0 0 24 24" version="1.1">
<g id="surface1">
<path style=" stroke:none;fill-rule:nonzero;fill:rgb(74.509804%,74.509804%,74.509804%);fill-opacity:1;" d="M 1.5 3 C 0.667969 3 0 3.667969 0 4.5 L 0 19.5 C 0 20.332031 0.667969 21 1.5 21 L 22.5 21 C 23.332031 21 24 20.332031 24 19.5 L 24 4.5 C 24 3.667969 23.332031 3 22.5 3 Z M 3 6 L 6 6 L 6 9 L 3 9 Z M 7.5 6 L 10.5 6 L 10.5 9 L 7.5 9 Z M 12 6 L 15 6 L 15 9 L 12 9 Z M 16.5 6 L 19.5 6 L 19.5 9 L 16.5 9 Z M 4.5 10.5 L 7.5 10.5 L 7.5 13.5 L 4.5 13.5 Z M 9 10.5 L 12 10.5 L 12 13.5 L 9 13.5 Z M 13.5 10.5 L 16.5 10.5 L 16.5 13.5 L 13.5 13.5 Z M 18 10.5 L 21 10.5 L 21 13.5 L 18 13.5 Z M 3 15 L 6 15 L 6 18 L 3 18 Z M 7.5 15 L 16.5 15 L 16.5 18 L 7.5 18 Z M 18 15 L 22.5 15 L 22.5 18 L 18 18 Z M 18 15 "/>
<path style=" stroke:none;fill-rule:nonzero;fill:rgb(100%,100%,100%);fill-opacity:1;" d="M 1.101562 20.933594 C 0.589844 20.796875 0.15625 20.335938 0.046875 19.8125 C 0.0234375 19.695312 0.015625 17.445312 0.015625 11.980469 C 0.015625 3.582031 0 4.144531 0.191406 3.792969 C 0.375 3.460938 0.65625 3.222656 1.039062 3.085938 L 1.234375 3.011719 L 11.824219 3.003906 C 18.617188 3 22.5 3.007812 22.664062 3.027344 C 23.007812 3.066406 23.273438 3.191406 23.523438 3.429688 C 23.734375 3.636719 23.847656 3.820312 23.925781 4.082031 C 23.96875 4.238281 23.972656 4.988281 23.964844 12.070312 L 23.957031 19.882812 L 23.84375 20.125 C 23.644531 20.539062 23.304688 20.824219 22.867188 20.9375 C 22.605469 21.007812 1.355469 21.003906 1.101562 20.933594 Z M 6.011719 16.503906 L 6.003906 14.992188 L 3 14.992188 L 2.992188 16.503906 L 2.984375 18.011719 L 6.019531 18.011719 Z M 16.511719 16.496094 L 16.511719 14.976562 L 7.488281 14.992188 L 7.480469 16.464844 C 7.476562 17.273438 7.480469 17.953125 7.488281 17.972656 C 7.5 18.003906 8.433594 18.011719 12.007812 18.011719 L 16.511719 18.011719 Z M 22.511719 16.503906 L 22.503906 14.992188 L 20.25 14.984375 L 18 14.976562 L 18 18.011719 L 22.519531 18.011719 Z M 7.503906 12.007812 L 7.503906 10.488281 L 4.503906 10.488281 L 4.503906 13.523438 L 7.503906 13.523438 Z M 12.007812 12.007812 L 12.007812 10.503906 L 8.992188 10.488281 L 8.992188 13.523438 L 12.007812 13.507812 Z M 16.511719 12.007812 L 16.511719 10.488281 L 13.480469 10.488281 L 13.480469 11.984375 C 13.480469 12.808594 13.488281 13.492188 13.5 13.503906 C 13.511719 13.515625 14.195312 13.523438 15.015625 13.523438 L 16.511719 13.523438 Z M 21.003906 12.007812 L 21.003906 10.488281 L 18 10.488281 L 18 13.523438 L 21.003906 13.523438 Z M 6.019531 7.503906 L 6.019531 6 L 2.984375 6 L 2.984375 9.003906 L 6.019531 9.003906 Z M 10.507812 7.503906 L 10.507812 6 L 7.472656 6 L 7.472656 7.480469 C 7.472656 8.296875 7.484375 8.972656 7.496094 8.984375 C 7.507812 8.992188 8.1875 9.003906 9.011719 9.003906 L 10.507812 9.003906 Z M 14.996094 7.503906 L 14.996094 6 L 11.992188 6 L 11.992188 9.003906 L 14.996094 9.003906 Z M 19.515625 7.503906 L 19.515625 6 L 16.484375 6 L 16.484375 9.003906 L 19.515625 9.003906 Z M 19.515625 7.503906 "/>
</g>
</svg>
