<?xml version="1.0" encoding="UTF-8"?>
<svg xmlns="http://www.w3.org/2000/svg" xmlns:xlink="http://www.w3.org/1999/xlink" width="24" height="24" viewBox="0 0 24 24" version="1.1">
<g id="surface1">
<path style=" stroke:none;fill-rule:nonzero;fill:rgb(74.509804%,74.509804%,74.509804%);fill-opacity:1;" d="M 4.738281 6 C 2.121094 6 0.0078125 8.6875 0.0078125 12 C 0.0078125 15.3125 2.121094 18 4.738281 18 C 7.359375 18 9.476562 15.3125 9.476562 12 C 9.476562 8.6875 7.359375 6 4.738281 6 Z M 4.503906 9 L 6.007812 9 L 6.007812 10.5 L 7.507812 10.5 L 7.507812 12 L 6.007812 12 L 6.007812 13.5 L 4.503906 13.5 L 4.503906 12 L 3.003906 12 L 3.003906 10.5 L 4.503906 10.5 Z M 4.503906 9 "/>
<path style=" stroke:none;fill-rule:nonzero;fill:rgb(74.509804%,74.509804%,74.509804%);fill-opacity:1;" d="M 19.257812 6 C 16.640625 6 14.523438 8.6875 14.523438 12 C 14.523438 15.3125 16.640625 18 19.257812 18 C 21.878906 18 23.992188 15.3125 23.992188 12 C 23.992188 8.6875 21.878906 6 19.257812 6 Z M 17.242188 8.25 C 18.074219 8.25 18.742188 8.921875 18.742188 9.75 C 18.742188 10.578125 18.074219 11.25 17.242188 11.25 C 16.414062 11.25 15.742188 10.578125 15.742188 9.75 C 15.742188 8.921875 16.414062 8.25 17.242188 8.25 Z M 20.242188 11.25 C 21.074219 11.25 21.742188 11.921875 21.742188 12.75 C 21.742188 13.578125 21.074219 14.25 20.242188 14.25 C 19.414062 14.25 18.742188 13.578125 18.742188 12.75 C 18.742188 11.921875 19.414062 11.25 20.242188 11.25 Z M 20.242188 11.25 "/>
<path style=" stroke:none;fill-rule:nonzero;fill:rgb(74.509804%,74.509804%,74.509804%);fill-opacity:1;" d="M 4.5 6 L 4.5 9 L 6 9 L 6 10.5 L 7.5 10.5 L 7.5 12 L 6 12 L 6 13.5 L 4.5 13.5 L 4.5 15 L 19.5 15 L 19.359375 14.078125 C 18.921875 13.820312 18.417969 13.277344 18.417969 12.730469 C 18.417969 12.183594 18.949219 11.5625 19.390625 11.300781 L 19.492188 5.988281 Z M 17.25 8.25 C 18.078125 8.25 18.75 8.921875 18.75 9.75 C 18.75 10.578125 18.078125 11.25 17.25 11.25 C 16.421875 11.25 15.75 10.578125 15.75 9.75 C 15.75 8.921875 16.421875 8.25 17.25 8.25 Z M 17.25 8.25 "/>
<path style=" stroke:none;fill-rule:nonzero;fill:rgb(100%,100%,100%);fill-opacity:1;" d="M 4.085938 17.929688 C 2.21875 17.59375 0.675781 15.871094 0.1875 13.578125 C 0.0625 13 0.03125 12.675781 0.03125 11.992188 C 0.03125 11.261719 0.078125 10.847656 0.234375 10.210938 C 0.527344 9.011719 1.089844 8.011719 1.910156 7.21875 C 2.546875 6.605469 3.230469 6.242188 4.0625 6.070312 C 4.316406 6.019531 4.785156 6.015625 12.007812 6.015625 C 19.414062 6.015625 19.695312 6.019531 19.964844 6.074219 C 21.390625 6.375 22.578125 7.386719 23.3125 8.925781 C 23.734375 9.820312 23.9375 10.691406 23.964844 11.777344 C 23.992188 12.859375 23.851562 13.722656 23.492188 14.660156 C 23.113281 15.640625 22.410156 16.597656 21.65625 17.160156 C 21.132812 17.550781 20.476562 17.835938 19.871094 17.9375 C 19.46875 18.003906 18.777344 17.980469 18.414062 17.890625 C 17.101562 17.566406 16.058594 16.691406 15.308594 15.28125 L 15.144531 14.976562 L 8.84375 14.976562 L 8.726562 15.214844 C 8.4375 15.792969 8.046875 16.324219 7.5625 16.789062 C 6.914062 17.414062 6.1875 17.789062 5.359375 17.933594 C 5.019531 17.992188 4.417969 17.992188 4.085938 17.929688 Z M 20.742188 14.167969 C 21.363281 13.9375 21.746094 13.398438 21.746094 12.75 C 21.746094 12.007812 21.253906 11.421875 20.503906 11.269531 C 20.296875 11.226562 20.230469 11.222656 20.035156 11.257812 C 19.421875 11.359375 18.9375 11.789062 18.789062 12.363281 C 18.648438 12.902344 18.832031 13.519531 19.238281 13.875 C 19.398438 14.015625 19.753906 14.191406 19.953125 14.234375 C 20.160156 14.277344 20.535156 14.246094 20.742188 14.167969 Z M 6.019531 12.75 L 6.019531 12.007812 L 7.503906 12.007812 L 7.503906 10.488281 L 6.019531 10.488281 L 6.019531 9.003906 L 4.503906 9.003906 L 4.503906 10.488281 L 2.984375 10.488281 L 2.984375 12.007812 L 4.503906 12.007812 L 4.503906 13.492188 L 6.019531 13.492188 Z M 17.539062 11.21875 C 18.242188 11.070312 18.742188 10.46875 18.742188 9.765625 C 18.742188 8.90625 18.09375 8.261719 17.238281 8.261719 C 16.65625 8.261719 16.152344 8.578125 15.898438 9.105469 C 15.421875 10.078125 16.136719 11.222656 17.242188 11.257812 C 17.292969 11.261719 17.425781 11.242188 17.539062 11.21875 Z M 17.539062 11.21875 "/>
</g>
</svg>
