<?xml version="1.0" encoding="UTF-8"?>
<svg xmlns="http://www.w3.org/2000/svg" xmlns:xlink="http://www.w3.org/1999/xlink" width="24" height="24" viewBox="0 0 24 24" version="1.1">
<g id="surface1">
<path style=" stroke:none;fill-rule:nonzero;fill:rgb(74.509804%,74.509804%,74.509804%);fill-opacity:1;" d="M 11.984375 1.5 C 6.222656 1.5 1.496094 6.226562 1.496094 11.988281 C 1.496094 17.753906 6.222656 22.511719 11.984375 22.511719 C 17.75 22.511719 22.507812 17.753906 22.507812 11.988281 C 22.507812 6.226562 17.75 1.5 11.984375 1.5 Z M 11.984375 7.511719 C 14.503906 7.511719 16.496094 9.46875 16.496094 11.988281 C 16.496094 14.511719 14.503906 16.5 11.984375 16.5 C 9.464844 16.5 7.507812 14.511719 7.507812 11.988281 C 7.507812 9.46875 9.464844 7.511719 11.984375 7.511719 Z M 11.984375 7.511719 "/>
<path style=" stroke:none;fill-rule:nonzero;fill:rgb(74.509804%,74.509804%,74.509804%);fill-opacity:1;" d="M 12.015625 9.015625 C 10.367188 9.015625 8.996094 10.363281 8.996094 12.007812 C 8.996094 13.65625 10.367188 15.003906 12.015625 15.003906 C 13.664062 15.003906 15.007812 13.65625 15.007812 12.007812 C 15.007812 10.363281 13.664062 9.015625 12.015625 9.015625 Z M 12.015625 10.511719 C 12.851562 10.511719 13.511719 11.171875 13.511719 12.007812 C 13.511719 12.847656 12.851562 13.507812 12.015625 13.507812 C 11.175781 13.507812 10.515625 12.847656 10.515625 12.007812 C 10.515625 11.171875 11.175781 10.511719 12.015625 10.511719 Z M 12.015625 10.511719 "/>
<path style=" stroke:none;fill-rule:nonzero;fill:rgb(100%,100%,100%);fill-opacity:1;" d="M 11.097656 22.464844 C 8.707031 22.265625 6.375 21.175781 4.640625 19.449219 C 2.886719 17.707031 1.832031 15.515625 1.558594 13.058594 C 1.507812 12.601562 1.507812 11.382812 1.558594 10.921875 C 1.78125 8.917969 2.507812 7.136719 3.769531 5.503906 C 4.105469 5.074219 5.082031 4.101562 5.523438 3.757812 C 7.519531 2.214844 9.847656 1.445312 12.289062 1.519531 C 14.113281 1.578125 15.78125 2.066406 17.375 3.011719 C 18.738281 3.820312 20.039062 5.097656 20.898438 6.464844 C 22.398438 8.851562 22.863281 11.738281 22.191406 14.46875 C 21.261719 18.257812 18.242188 21.269531 14.441406 22.203125 C 13.394531 22.460938 12.1875 22.554688 11.097656 22.464844 Z M 12.921875 16.417969 C 13.8125 16.21875 14.554688 15.816406 15.167969 15.210938 C 15.863281 14.519531 16.28125 13.699219 16.457031 12.6875 C 16.511719 12.351562 16.503906 11.5625 16.4375 11.203125 C 16.328125 10.59375 16.070312 9.960938 15.71875 9.429688 C 15.519531 9.132812 15.042969 8.640625 14.722656 8.398438 C 14.183594 7.996094 13.40625 7.671875 12.722656 7.5625 C 12.226562 7.484375 11.394531 7.511719 10.933594 7.621094 C 10.121094 7.8125 9.441406 8.183594 8.847656 8.765625 C 8.203125 9.390625 7.800781 10.125 7.59375 11.050781 C 7.53125 11.328125 7.519531 11.453125 7.519531 11.992188 C 7.519531 12.675781 7.550781 12.875 7.738281 13.460938 C 8.234375 15.007812 9.550781 16.140625 11.203125 16.445312 C 11.542969 16.507812 12.59375 16.492188 12.921875 16.417969 Z M 12.921875 16.417969 "/>
<path style=" stroke:none;fill-rule:nonzero;fill:rgb(100%,100%,100%);fill-opacity:1;" d="M 11.742188 14.972656 C 10.4375 14.875 9.304688 13.84375 9.050781 12.53125 C 9.003906 12.28125 9.011719 11.683594 9.066406 11.433594 C 9.289062 10.390625 10.039062 9.539062 11.027344 9.203125 C 11.433594 9.0625 11.714844 9.023438 12.164062 9.042969 C 12.953125 9.078125 13.617188 9.382812 14.171875 9.960938 C 14.941406 10.765625 15.195312 11.921875 14.832031 12.980469 C 14.585938 13.695312 14.023438 14.335938 13.339844 14.675781 C 12.835938 14.925781 12.335938 15.019531 11.742188 14.972656 Z M 12.339844 13.480469 C 12.855469 13.367188 13.277344 12.988281 13.445312 12.480469 C 13.523438 12.25 13.53125 11.859375 13.46875 11.617188 C 13.222656 10.699219 12.203125 10.242188 11.34375 10.664062 C 10.363281 11.144531 10.21875 12.5 11.078125 13.191406 C 11.4375 13.476562 11.875 13.578125 12.339844 13.480469 Z M 12.339844 13.480469 "/>
</g>
</svg>
