<?xml version="1.0" encoding="UTF-8"?>
<svg xmlns="http://www.w3.org/2000/svg" xmlns:xlink="http://www.w3.org/1999/xlink" width="24" height="24" viewBox="0 0 24 24" version="1.1">
<g id="surface1">
<path style=" stroke:none;fill-rule:nonzero;fill:rgb(74.509804%,74.509804%,74.509804%);fill-opacity:1;" d="M 5.339844 3 C 4.066406 3 3 4.066406 3 5.339844 L 3 18.652344 C 3 19.925781 4.070312 20.996094 5.34375 20.996094 L 17.15625 20.996094 C 18.429688 20.996094 19.5 19.925781 19.5 18.652344 L 19.5 6.183594 L 19.078125 5.761719 L 16.921875 3.464844 L 16.503906 2.984375 L 15.839844 2.984375 Z M 5.996094 6 L 15.183594 6 L 16.503906 7.410156 L 16.503906 18 L 6.003906 18 Z M 5.996094 6 "/>
<path style=" stroke:none;fill-rule:nonzero;fill:rgb(74.509804%,74.509804%,74.509804%);fill-opacity:1;" d="M 8.894531 7.605469 L 13.59375 7.605469 C 14.371094 7.605469 14.992188 8.230469 14.992188 9.007812 L 14.992188 12.078125 C 14.992188 12.855469 14.371094 13.480469 13.59375 13.480469 L 8.894531 13.480469 C 8.117188 13.480469 7.492188 12.855469 7.492188 12.078125 L 7.492188 9.007812 C 7.492188 8.226562 8.125 7.609375 8.890625 7.609375 Z M 8.894531 7.605469 "/>
<path style=" stroke:none;fill-rule:nonzero;fill:rgb(100%,100%,100%);fill-opacity:1;" d="M 8.546875 13.425781 C 8.230469 13.351562 7.84375 13.050781 7.679688 12.75 C 7.507812 12.4375 7.503906 12.382812 7.503906 10.5625 C 7.503906 9.445312 7.515625 8.828125 7.539062 8.71875 C 7.65625 8.164062 8.109375 7.734375 8.679688 7.644531 C 8.808594 7.625 9.78125 7.609375 11.296875 7.609375 C 13.34375 7.609375 13.742188 7.617188 13.910156 7.65625 C 14.476562 7.792969 14.890625 8.25 14.964844 8.824219 C 15.003906 9.128906 15.003906 11.992188 14.964844 12.269531 C 14.886719 12.808594 14.515625 13.242188 14.003906 13.402344 C 13.824219 13.457031 13.683594 13.460938 11.242188 13.457031 C 9.8125 13.457031 8.613281 13.441406 8.546875 13.425781 Z M 8.546875 13.425781 "/>
<path style=" stroke:none;fill-rule:nonzero;fill:rgb(100%,100%,100%);fill-opacity:1;" d="M 4.886719 20.9375 C 4.152344 20.777344 3.539062 20.28125 3.21875 19.585938 C 3 19.105469 3.015625 19.671875 3.023438 11.898438 L 3.03125 4.902344 L 3.105469 4.683594 C 3.375 3.878906 3.96875 3.3125 4.777344 3.082031 L 5.011719 3.015625 L 10.757812 3.003906 L 16.503906 2.996094 L 16.699219 3.222656 C 16.953125 3.515625 18.980469 5.675781 19.265625 5.953125 L 19.484375 6.167969 L 19.484375 12.53125 C 19.484375 19.414062 19.492188 19.070312 19.320312 19.496094 C 19.191406 19.8125 19.046875 20.027344 18.789062 20.285156 C 18.4375 20.636719 18.070312 20.839844 17.601562 20.9375 C 17.304688 21 5.175781 21 4.886719 20.9375 Z M 16.511719 12.710938 L 16.511719 7.40625 L 15.199219 6 L 5.988281 6 L 5.988281 18.011719 L 16.511719 18.011719 Z M 16.511719 12.710938 "/>
</g>
</svg>
