<?xml version="1.0" encoding="UTF-8"?>
<svg xmlns="http://www.w3.org/2000/svg" xmlns:xlink="http://www.w3.org/1999/xlink" width="24" height="24" viewBox="0 0 24 24" version="1.1">
<g id="surface1">
<path style=" stroke:none;fill-rule:nonzero;fill:rgb(74.509804%,74.509804%,74.509804%);fill-opacity:1;" d="M 11.984375 1.5 C 6.222656 1.5 1.496094 6.226562 1.496094 11.988281 C 1.496094 17.753906 6.222656 22.511719 11.984375 22.511719 C 17.75 22.511719 22.507812 17.753906 22.507812 11.988281 C 22.507812 6.226562 17.75 1.5 11.984375 1.5 Z M 11.984375 7.511719 C 14.503906 7.511719 16.496094 9.46875 16.496094 11.988281 C 16.496094 14.511719 14.503906 16.5 11.984375 16.5 C 9.464844 16.5 7.507812 14.511719 7.507812 11.988281 C 7.507812 9.46875 9.464844 7.511719 11.984375 7.511719 Z M 11.984375 7.511719 "/>
<path style=" stroke:none;fill-rule:nonzero;fill:rgb(74.509804%,74.509804%,74.509804%);fill-opacity:1;" d="M 12.015625 9.015625 C 10.367188 9.015625 8.996094 10.363281 8.996094 12.007812 C 8.996094 13.65625 10.367188 15.003906 12.015625 15.003906 C 13.664062 15.003906 15.007812 13.65625 15.007812 12.007812 C 15.007812 10.363281 13.664062 9.015625 12.015625 9.015625 Z M 12.015625 10.511719 C 12.851562 10.511719 13.511719 11.171875 13.511719 12.007812 C 13.511719 12.847656 12.851562 13.507812 12.015625 13.507812 C 11.175781 13.507812 10.515625 12.847656 10.515625 12.007812 C 10.515625 11.171875 11.175781 10.511719 12.015625 10.511719 Z M 12.015625 10.511719 "/>
<path style=" stroke:none;fill-rule:nonzero;fill:rgb(100%,100%,100%);fill-opacity:1;" d="M 11.511719 14.953125 C 10.972656 14.859375 10.5 14.632812 10.054688 14.261719 C 9.617188 13.898438 9.25 13.320312 9.097656 12.746094 C 9.007812 12.398438 8.984375 11.867188 9.050781 11.511719 C 9.160156 10.886719 9.429688 10.378906 9.886719 9.921875 C 10.394531 9.414062 10.988281 9.125 11.703125 9.042969 C 13.234375 8.867188 14.679688 9.960938 14.957031 11.503906 C 15.007812 11.769531 15 12.320312 14.945312 12.578125 C 14.703125 13.738281 13.875 14.605469 12.726562 14.90625 C 12.425781 14.984375 11.824219 15.007812 11.511719 14.953125 Z M 12.5 13.4375 C 13.546875 13.074219 13.863281 11.746094 13.085938 10.960938 C 12.605469 10.476562 11.945312 10.371094 11.328125 10.675781 C 10.832031 10.917969 10.515625 11.433594 10.515625 11.992188 C 10.515625 12.273438 10.550781 12.429688 10.671875 12.679688 C 10.855469 13.058594 11.214844 13.355469 11.644531 13.472656 C 11.847656 13.527344 12.285156 13.507812 12.5 13.4375 Z M 12.5 13.4375 "/>
<path style=" stroke:none;fill-rule:nonzero;fill:rgb(100%,100%,100%);fill-opacity:1;" d="M 11.558594 22.496094 C 8.949219 22.367188 6.566406 21.332031 4.703125 19.515625 C 2.976562 17.835938 1.914062 15.714844 1.585938 13.296875 C 1.511719 12.757812 1.492188 11.617188 1.546875 11.050781 C 1.824219 8.164062 3.210938 5.613281 5.496094 3.78125 C 7.1875 2.421875 9.328125 1.621094 11.511719 1.523438 C 14.195312 1.40625 16.8125 2.316406 18.84375 4.070312 C 19.179688 4.363281 19.851562 5.050781 20.105469 5.363281 C 22.402344 8.179688 23.089844 11.824219 21.972656 15.234375 C 20.714844 19.082031 17.277344 21.921875 13.277344 22.421875 C 12.714844 22.492188 12.0625 22.519531 11.558594 22.496094 Z M 12.671875 16.453125 C 14.105469 16.242188 15.332031 15.367188 15.992188 14.085938 C 16.902344 12.324219 16.570312 10.171875 15.179688 8.796875 C 14.578125 8.199219 13.746094 7.765625 12.875 7.585938 C 12.621094 7.535156 12.515625 7.527344 11.984375 7.527344 C 11.457031 7.527344 11.351562 7.535156 11.117188 7.585938 C 10.722656 7.667969 10.453125 7.75 10.15625 7.882812 C 8.816406 8.46875 7.902344 9.605469 7.589844 11.074219 C 7.527344 11.367188 7.523438 11.433594 7.523438 11.992188 C 7.523438 12.550781 7.527344 12.617188 7.589844 12.910156 C 7.855469 14.164062 8.570312 15.195312 9.617188 15.847656 C 10.5 16.394531 11.59375 16.609375 12.671875 16.453125 Z M 12.671875 16.453125 "/>
</g>
</svg>
