<?xml version="1.0" encoding="UTF-8"?>
<svg xmlns="http://www.w3.org/2000/svg" xmlns:xlink="http://www.w3.org/1999/xlink" width="24" height="24" viewBox="0 0 24 24" version="1.1">
<g id="surface1">
<path style=" stroke:none;fill-rule:nonzero;fill:rgb(74.509804%,74.509804%,74.509804%);fill-opacity:1;" d="M 4.785156 0 C 2.984375 0 1.503906 1.480469 1.503906 3.28125 L 1.503906 20.71875 C 1.503906 22.519531 2.984375 24 4.785156 24 L 19.222656 24 C 21.023438 24 22.503906 22.519531 22.503906 20.71875 L 22.503906 3.28125 C 22.503906 1.480469 21.023438 0 19.222656 0 Z M 4.785156 3 L 19.222656 3 C 19.410156 3 19.503906 3.085938 19.503906 3.28125 L 19.503906 20.71875 C 19.503906 20.914062 19.410156 21 19.222656 21 L 4.785156 21 C 4.597656 21 4.503906 20.914062 4.503906 20.71875 L 4.503906 3.28125 C 4.503906 3.085938 4.597656 3 4.785156 3 Z M 4.785156 3 "/>
<path style=" stroke:none;fill-rule:nonzero;fill:rgb(74.509804%,74.509804%,74.509804%);fill-opacity:1;" d="M 11.757812 4.5 C 11.359375 4.515625 10.941406 4.585938 10.539062 4.6875 C 7.324219 5.484375 5.386719 8.734375 6.179688 11.953125 C 6.855469 14.679688 9.296875 16.488281 11.980469 16.492188 C 12.234375 16.492188 12.488281 16.476562 12.742188 16.445312 L 12.160156 11.972656 C 12.105469 11.988281 12.054688 12 11.992188 12 C 11.164062 12 10.492188 11.328125 10.492188 10.5 C 10.492188 9.671875 11.164062 9 11.992188 9 C 12.824219 9 13.492188 9.671875 13.492188 10.5 C 13.492188 10.675781 13.453125 10.835938 13.386719 10.988281 L 17.4375 13.066406 C 18.015625 11.820312 18.140625 10.398438 17.804688 9.046875 C 17.109375 6.230469 14.546875 4.386719 11.761719 4.5 Z M 11.757812 4.5 "/>
<path style=" stroke:none;fill-rule:nonzero;fill:rgb(74.509804%,74.509804%,74.509804%);fill-opacity:1;" d="M 12.992188 12 L 15 18 C 16.101562 21.085938 19.5 18.578125 17.246094 16.5 Z M 12.992188 12 "/>
<path style=" stroke:none;fill-rule:nonzero;fill:rgb(100%,100%,100%);fill-opacity:1;" d="M 11.574219 16.460938 C 10.402344 16.390625 9.195312 15.917969 8.265625 15.175781 C 5.46875 12.933594 5.246094 8.773438 7.792969 6.242188 C 8.898438 5.144531 10.4375 4.515625 12.023438 4.515625 C 14.496094 4.515625 16.714844 6.054688 17.582031 8.367188 C 18.105469 9.769531 18.097656 11.367188 17.5625 12.738281 L 17.4375 13.0625 L 16.96875 12.816406 C 16.707031 12.683594 15.808594 12.21875 14.964844 11.789062 C 14.121094 11.359375 13.429688 11 13.421875 10.996094 C 13.417969 10.992188 13.4375 10.894531 13.464844 10.777344 C 13.625 10.136719 13.265625 9.445312 12.613281 9.128906 C 12.382812 9.019531 12.375 9.019531 11.992188 9.019531 C 11.613281 9.019531 11.601562 9.019531 11.375 9.128906 C 10.5625 9.519531 10.261719 10.40625 10.667969 11.207031 C 10.898438 11.671875 11.445312 12.003906 11.96875 12.007812 C 12.144531 12.007812 12.144531 12.007812 12.164062 12.105469 C 12.171875 12.160156 12.296875 13.121094 12.441406 14.234375 C 12.585938 15.351562 12.710938 16.300781 12.71875 16.347656 C 12.734375 16.421875 12.726562 16.429688 12.605469 16.445312 C 12.339844 16.476562 11.9375 16.484375 11.574219 16.460938 Z M 11.574219 16.460938 "/>
<path style=" stroke:none;fill-rule:nonzero;fill:rgb(100%,100%,100%);fill-opacity:1;" d="M 16.269531 19.390625 C 15.808594 19.257812 15.453125 18.925781 15.167969 18.359375 C 15.0625 18.148438 13.03125 12.136719 13.054688 12.109375 C 13.070312 12.097656 17.128906 16.371094 17.46875 16.753906 C 17.726562 17.046875 17.925781 17.445312 17.972656 17.769531 C 18.09375 18.609375 17.480469 19.375 16.652344 19.421875 C 16.515625 19.429688 16.375 19.417969 16.269531 19.390625 Z M 16.269531 19.390625 "/>
<path style=" stroke:none;fill-rule:nonzero;fill:rgb(100%,100%,100%);fill-opacity:1;" d="M 4.363281 23.964844 C 3.515625 23.847656 2.699219 23.367188 2.179688 22.679688 C 1.796875 22.167969 1.582031 21.585938 1.527344 20.90625 C 1.507812 20.644531 1.5 17.394531 1.507812 11.695312 L 1.515625 2.890625 L 1.582031 2.609375 C 1.882812 1.304688 2.878906 0.332031 4.175781 0.0664062 C 4.441406 0.0117188 4.816406 0.0117188 12.007812 0.0117188 C 19.199219 0.0117188 19.574219 0.0117188 19.824219 0.0664062 C 21.105469 0.34375 22.046875 1.222656 22.390625 2.46875 L 22.472656 2.765625 L 22.480469 11.851562 C 22.488281 18.496094 22.480469 21.003906 22.457031 21.183594 C 22.257812 22.570312 21.160156 23.695312 19.765625 23.941406 C 19.542969 23.980469 18.476562 23.984375 11.980469 23.980469 C 7.84375 23.980469 4.414062 23.972656 4.363281 23.964844 Z M 19.375 20.980469 C 19.414062 20.960938 19.464844 20.90625 19.484375 20.863281 C 19.507812 20.804688 19.515625 18.214844 19.507812 11.949219 L 19.5 3.117188 L 19.425781 3.058594 C 19.355469 3 19.195312 2.996094 12.011719 2.996094 L 4.664062 2.996094 L 4.585938 3.0625 L 4.503906 3.125 L 4.503906 11.980469 C 4.503906 18.183594 4.511719 20.851562 4.535156 20.894531 C 4.554688 20.929688 4.597656 20.96875 4.636719 20.984375 C 4.742188 21.027344 19.277344 21.023438 19.375 20.980469 Z M 19.375 20.980469 "/>
</g>
</svg>
