<?xml version="1.0" encoding="UTF-8"?>
<svg xmlns="http://www.w3.org/2000/svg" xmlns:xlink="http://www.w3.org/1999/xlink" width="24" height="24" viewBox="0 0 24 24" version="1.1">
<g id="surface1">
<path style=" stroke:none;fill-rule:nonzero;fill:rgb(74.509804%,74.509804%,74.509804%);fill-opacity:1;" d="M 4.457031 1.5 C 2.84375 1.5 1.5 2.839844 1.5 4.453125 L 1.5 18.65625 L 1.96875 19.078125 L 4.5 21.609375 L 4.5 4.5 L 19.5 4.5 L 19.5 19.5 L 16.5 19.5 L 16.5 22.5 L 19.546875 22.5 C 21.160156 22.5 22.5 21.160156 22.5 19.546875 L 22.5 4.453125 C 22.5 2.835938 21.167969 1.5 19.546875 1.5 Z M 4.457031 1.5 "/>
<path style=" stroke:none;fill-rule:nonzero;fill:rgb(74.509804%,74.509804%,74.509804%);fill-opacity:1;" d="M 7.5 13.5 C 6.667969 13.5 6 14.167969 6 15 L 6 21 C 6 21.832031 6.667969 22.5 7.5 22.5 L 13.5 22.5 C 14.332031 22.5 15 21.832031 15 21 L 15 15 C 15 14.167969 14.332031 13.5 13.5 13.5 Z M 7.5 15 L 10.5 15 L 10.5 21 L 7.5 21 Z M 7.5 15 "/>
<path style=" stroke:none;fill-rule:nonzero;fill:rgb(100%,100%,100%);fill-opacity:1;" d="M 7.273438 22.46875 C 6.675781 22.367188 6.21875 21.953125 6.0625 21.371094 C 6.027344 21.246094 6.019531 20.597656 6.019531 17.992188 C 6.019531 14.476562 6.011719 14.648438 6.195312 14.28125 C 6.316406 14.046875 6.59375 13.789062 6.875 13.652344 L 7.117188 13.539062 L 10.429688 13.53125 C 13.65625 13.523438 13.75 13.523438 13.945312 13.582031 C 14.449219 13.738281 14.839844 14.164062 14.949219 14.691406 C 15.015625 15 15.015625 20.988281 14.953125 21.296875 C 14.820312 21.917969 14.332031 22.378906 13.710938 22.46875 C 13.445312 22.507812 7.5 22.503906 7.273438 22.46875 Z M 10.507812 17.996094 L 10.507812 14.976562 L 9 14.984375 L 7.488281 14.992188 L 7.480469 17.964844 C 7.476562 19.601562 7.480469 20.953125 7.488281 20.976562 C 7.5 21.007812 7.832031 21.015625 9.007812 21.015625 L 10.507812 21.015625 Z M 10.507812 17.996094 "/>
<path style=" stroke:none;fill-rule:nonzero;fill:rgb(100%,100%,100%);fill-opacity:1;" d="M 16.511719 21 L 16.511719 19.496094 L 19.515625 19.496094 L 19.515625 4.484375 L 4.503906 4.484375 L 4.503906 21.582031 L 3.117188 20.207031 C 2.355469 19.449219 1.679688 18.789062 1.617188 18.742188 L 1.5 18.652344 L 1.5 11.570312 C 1.5 6.859375 1.511719 4.386719 1.53125 4.175781 C 1.605469 3.476562 1.890625 2.882812 2.394531 2.378906 C 2.816406 1.957031 3.316406 1.691406 3.902344 1.570312 C 4.183594 1.511719 4.425781 1.511719 12.109375 1.519531 L 20.027344 1.527344 L 20.273438 1.597656 C 21.320312 1.890625 22.109375 2.679688 22.402344 3.726562 L 22.472656 3.972656 L 22.480469 11.867188 C 22.488281 17.332031 22.480469 19.828125 22.457031 19.976562 C 22.3125 20.929688 21.671875 21.785156 20.78125 22.207031 C 20.203125 22.476562 20.203125 22.476562 18.238281 22.492188 L 16.511719 22.503906 Z M 16.511719 21 "/>
</g>
</svg>
