<?xml version="1.0" encoding="UTF-8"?>
<svg xmlns="http://www.w3.org/2000/svg" xmlns:xlink="http://www.w3.org/1999/xlink" width="24" height="24" viewBox="0 0 24 24" version="1.1">
<g id="surface1">
<path style=" stroke:none;fill-rule:nonzero;fill:rgb(74.509804%,74.509804%,74.509804%);fill-opacity:1;" d="M 6.703125 1.5 C 5.472656 1.5 4.5 2.472656 4.5 3.703125 L 4.5 20.296875 C 4.5 21.527344 5.472656 22.5 6.703125 22.5 L 17.296875 22.5 C 18.527344 22.5 19.5 21.527344 19.5 20.296875 L 19.5 3.703125 C 19.5 2.472656 18.527344 1.5 17.296875 1.5 Z M 6 3 L 18 3 L 18 10.5 L 6 10.5 Z M 12 12 C 14.484375 12 16.5 14.015625 16.5 16.5 C 16.5 18.984375 14.484375 21 12 21 C 9.515625 21 7.5 18.984375 7.5 16.5 C 7.5 14.015625 9.515625 12 12 12 Z M 12 12 "/>
<path style=" stroke:none;fill-rule:nonzero;fill:rgb(74.509804%,74.509804%,74.509804%);fill-opacity:1;" d="M 14.25 16.5 C 14.25 17.742188 13.242188 18.75 12 18.75 C 10.757812 18.75 9.75 17.742188 9.75 16.5 C 9.75 15.257812 10.757812 14.25 12 14.25 C 13.242188 14.25 14.25 15.257812 14.25 16.5 Z M 14.25 16.5 "/>
<path style=" stroke:none;fill-rule:nonzero;fill:rgb(100%,100%,100%);fill-opacity:1;" d="M 11.773438 18.71875 C 10.945312 18.644531 10.191406 18.0625 9.902344 17.273438 C 9.464844 16.074219 10.085938 14.792969 11.3125 14.371094 C 11.535156 14.292969 11.605469 14.285156 11.976562 14.28125 C 12.453125 14.28125 12.6875 14.335938 13.078125 14.539062 C 13.363281 14.6875 13.78125 15.101562 13.945312 15.390625 C 14.628906 16.628906 14.046875 18.160156 12.71875 18.617188 C 12.453125 18.707031 12.085938 18.746094 11.773438 18.71875 Z M 11.773438 18.71875 "/>
<path style=" stroke:none;fill-rule:nonzero;fill:rgb(100%,100%,100%);fill-opacity:1;" d="M 6.394531 22.464844 C 5.910156 22.402344 5.523438 22.207031 5.148438 21.832031 C 4.945312 21.628906 4.871094 21.527344 4.753906 21.289062 C 4.5 20.773438 4.519531 21.585938 4.519531 11.988281 C 4.519531 3.523438 4.519531 3.40625 4.578125 3.164062 C 4.773438 2.394531 5.359375 1.796875 6.132812 1.582031 C 6.316406 1.53125 6.675781 1.527344 12.023438 1.527344 L 17.722656 1.527344 L 17.957031 1.609375 C 18.804688 1.898438 19.355469 2.566406 19.46875 3.4375 C 19.492188 3.617188 19.5 6.179688 19.492188 12.175781 L 19.484375 20.660156 L 19.414062 20.890625 C 19.175781 21.65625 18.65625 22.175781 17.886719 22.414062 L 17.660156 22.484375 L 12.132812 22.488281 C 9.03125 22.492188 6.515625 22.480469 6.394531 22.464844 Z M 12.8125 20.9375 C 13.925781 20.722656 14.949219 20.082031 15.617188 19.1875 C 15.984375 18.695312 16.285156 18.023438 16.425781 17.394531 C 16.507812 17.019531 16.507812 16.003906 16.425781 15.628906 C 16.230469 14.710938 15.828125 13.964844 15.183594 13.320312 C 14.511719 12.648438 13.660156 12.207031 12.742188 12.054688 C 12.355469 11.988281 11.625 11.988281 11.265625 12.050781 C 9.378906 12.382812 7.941406 13.792969 7.5625 15.679688 C 7.480469 16.09375 7.488281 16.960938 7.578125 17.382812 C 7.769531 18.28125 8.1875 19.050781 8.820312 19.683594 C 9.578125 20.4375 10.476562 20.863281 11.605469 20.996094 C 11.824219 21.023438 12.558594 20.984375 12.8125 20.9375 Z M 18.015625 6.757812 L 18.015625 2.996094 L 6.003906 2.996094 L 6.003906 10.519531 L 18.015625 10.519531 Z M 18.015625 6.757812 "/>
</g>
</svg>
