<?xml version="1.0" encoding="UTF-8"?>
<svg xmlns="http://www.w3.org/2000/svg" xmlns:xlink="http://www.w3.org/1999/xlink" width="24" height="24" viewBox="0 0 24 24" version="1.1">
<g id="surface1">
<path style=" stroke:none;fill-rule:nonzero;fill:rgb(74.509804%,74.509804%,74.509804%);fill-opacity:1;" d="M 8.207031 1.5 C 6.972656 1.5 6 2.472656 6 3.703125 L 6 20.296875 C 6 21.527344 6.972656 22.5 8.207031 22.5 L 15.894531 22.5 C 17.125 22.5 18.097656 21.527344 18.097656 20.296875 L 18.097656 3.703125 C 18.097656 2.472656 17.125 1.5 15.894531 1.5 Z M 7.503906 3 L 16.597656 3 L 16.597656 19.5 L 7.503906 19.5 Z M 7.503906 3 "/>
<path style=" stroke:none;fill-rule:nonzero;fill:rgb(100%,100%,100%);fill-opacity:1;" d="M 7.894531 22.464844 C 7.410156 22.402344 7.027344 22.207031 6.648438 21.832031 C 6.445312 21.628906 6.371094 21.527344 6.253906 21.289062 C 5.996094 20.769531 6.015625 21.597656 6.027344 11.90625 L 6.035156 3.261719 L 6.117188 3.019531 C 6.386719 2.230469 7.042969 1.667969 7.84375 1.542969 C 8.015625 1.519531 9.195312 1.511719 12.195312 1.519531 L 16.3125 1.527344 L 16.527344 1.601562 C 16.914062 1.730469 17.160156 1.878906 17.425781 2.144531 C 17.804688 2.527344 17.996094 2.90625 18.0625 3.421875 C 18.085938 3.582031 18.089844 6.484375 18.085938 12.160156 C 18.078125 20.207031 18.074219 20.667969 18.019531 20.84375 C 17.785156 21.644531 17.265625 22.171875 16.476562 22.414062 L 16.25 22.484375 L 12.179688 22.488281 C 9.917969 22.492188 8.015625 22.480469 7.894531 22.464844 Z M 16.605469 11.246094 L 16.605469 2.996094 L 7.503906 2.996094 L 7.503906 19.496094 L 16.605469 19.496094 Z M 16.605469 11.246094 "/>
</g>
</svg>
