<?xml version="1.0" encoding="UTF-8"?>
<svg xmlns="http://www.w3.org/2000/svg" xmlns:xlink="http://www.w3.org/1999/xlink" width="24" height="24" viewBox="0 0 24 24" version="1.1">
<defs>
<clipPath id="clip1">
  <path d="M 7.507812 12.140625 L 16.507812 12.140625 L 16.507812 15.003906 L 7.507812 15.003906 Z M 7.507812 12.140625 "/>
</clipPath>
<clipPath id="clip2">
  <path d="M 4.503906 7.546875 L 19.503906 7.546875 L 19.503906 12 L 4.503906 12 Z M 4.503906 7.546875 "/>
</clipPath>
<clipPath id="clip3">
  <path d="M 1.503906 3.09375 L 22.492188 3.09375 L 22.492188 9.003906 L 1.503906 9.003906 Z M 1.503906 3.09375 "/>
</clipPath>
</defs>
<g id="surface1">
<g clip-path="url(#clip1)" clip-rule="nonzero">
<path style=" stroke:none;fill-rule:nonzero;fill:rgb(74.509804%,74.509804%,74.509804%);fill-opacity:1;" d="M 7.15625 14.753906 C 7.21875 15.285156 7.648438 15.738281 8.257812 15.910156 C 8.863281 16.085938 9.535156 15.949219 9.976562 15.5625 C 11.109375 14.621094 12.90625 14.621094 14.039062 15.5625 C 14.417969 16.003906 15.074219 16.21875 15.714844 16.105469 C 16.351562 15.992188 16.851562 15.578125 16.984375 15.042969 C 17.117188 14.511719 16.859375 13.960938 16.324219 13.648438 C 13.9375 11.660156 10.0625 11.660156 7.679688 13.648438 C 7.304688 13.929688 7.109375 14.335938 7.140625 14.75 Z M 7.15625 14.753906 "/>
</g>
<g clip-path="url(#clip2)" clip-rule="nonzero">
<path style=" stroke:none;fill-rule:nonzero;fill:rgb(74.509804%,74.509804%,74.509804%);fill-opacity:1;" d="M 4.054688 11.75 C 4.191406 12.257812 4.621094 12.65625 5.167969 12.789062 C 5.71875 12.921875 6.304688 12.773438 6.699219 12.398438 C 9.617188 9.726562 14.371094 9.726562 17.289062 12.398438 C 17.667969 12.820312 18.273438 13.007812 18.851562 12.882812 C 19.433594 12.757812 19.886719 12.34375 20.023438 11.8125 C 20.15625 11.28125 19.953125 10.722656 19.492188 10.375 C 15.378906 6.605469 8.609375 6.605469 4.492188 10.375 C 4.085938 10.726562 3.914062 11.253906 4.042969 11.75 Z M 4.054688 11.75 "/>
</g>
<g clip-path="url(#clip3)" clip-rule="nonzero">
<path style=" stroke:none;fill-rule:nonzero;fill:rgb(74.509804%,74.509804%,74.509804%);fill-opacity:1;" d="M 0.6875 8.5 C 0.773438 9.019531 1.15625 9.453125 1.6875 9.636719 C 2.21875 9.816406 2.8125 9.71875 3.242188 9.375 C 3.289062 9.335938 3.332031 9.292969 3.375 9.25 C 8.136719 4.820312 15.824219 4.820312 20.585938 9.25 C 20.929688 9.742188 21.566406 9.996094 22.1875 9.882812 C 22.8125 9.769531 23.300781 9.316406 23.421875 8.738281 C 23.542969 8.160156 23.269531 7.570312 22.738281 7.25 C 16.789062 1.71875 7.175781 1.71875 1.222656 7.25 C 0.835938 7.558594 0.632812 8.023438 0.6875 8.5 Z M 0.6875 8.5 "/>
</g>
<path style=" stroke:none;fill-rule:nonzero;fill:rgb(74.509804%,74.509804%,74.509804%);fill-opacity:1;" d="M 15 19.5 C 15 21.15625 13.65625 22.5 12 22.5 C 10.34375 22.5 9 21.15625 9 19.5 C 9 17.84375 10.34375 16.5 12 16.5 C 13.65625 16.5 15 17.84375 15 19.5 Z M 15 19.5 "/>
<path style=" stroke:none;fill-rule:nonzero;fill:rgb(100%,100%,100%);fill-opacity:1;" d="M 11.648438 22.46875 C 10.460938 22.328125 9.484375 21.496094 9.125 20.316406 C 9.046875 20.058594 9.039062 20 9.039062 19.496094 C 9.039062 18.996094 9.046875 18.933594 9.125 18.683594 C 9.472656 17.558594 10.363281 16.757812 11.484375 16.554688 C 11.808594 16.5 12.5 16.53125 12.796875 16.617188 C 14.582031 17.136719 15.488281 19.101562 14.703125 20.761719 C 14.625 20.921875 14.503906 21.136719 14.429688 21.242188 C 14.273438 21.460938 13.902344 21.824219 13.695312 21.964844 C 13.308594 22.226562 12.800781 22.414062 12.324219 22.46875 C 12 22.503906 11.953125 22.503906 11.648438 22.46875 Z M 11.648438 22.46875 "/>
<path style=" stroke:none;fill-rule:nonzero;fill:rgb(100%,100%,100%);fill-opacity:1;" d="M 7.503906 14.390625 L 7.503906 13.804688 L 7.730469 13.625 C 8.660156 12.867188 9.78125 12.402344 11.125 12.21875 C 11.5 12.167969 12.472656 12.167969 12.875 12.21875 C 14.152344 12.382812 15.21875 12.816406 16.242188 13.59375 L 16.484375 13.773438 L 16.484375 14.976562 L 14.726562 14.976562 C 13.097656 14.976562 12.945312 14.972656 12.675781 14.914062 C 12.476562 14.875 12.257812 14.855469 12.007812 14.855469 C 11.757812 14.855469 11.542969 14.875 11.34375 14.914062 C 11.070312 14.972656 10.921875 14.976562 9.277344 14.976562 L 7.503906 14.976562 Z M 7.503906 14.390625 "/>
<path style=" stroke:none;fill-rule:nonzero;fill:rgb(100%,100%,100%);fill-opacity:1;" d="M 4.503906 11.175781 L 4.503906 10.375 L 4.757812 10.160156 C 7.632812 7.722656 11.710938 6.925781 15.4375 8.078125 C 16.847656 8.515625 18.222656 9.277344 19.308594 10.222656 L 19.484375 10.378906 L 19.484375 11.976562 L 16.796875 11.976562 L 16.554688 11.800781 C 15.640625 11.144531 14.433594 10.664062 13.214844 10.472656 C 12.730469 10.394531 11.578125 10.378906 11.066406 10.441406 C 9.6875 10.609375 8.449219 11.074219 7.433594 11.800781 L 7.191406 11.976562 L 4.503906 11.976562 Z M 4.503906 11.175781 "/>
<path style=" stroke:none;fill-rule:nonzero;fill:rgb(100%,100%,100%);fill-opacity:1;" d="M 1.519531 8.984375 C 1.507812 8.972656 1.5 8.527344 1.5 7.992188 L 1.5 7.023438 L 1.632812 6.902344 C 2.125 6.449219 3.058594 5.777344 3.847656 5.308594 C 5.785156 4.160156 7.871094 3.476562 10.304688 3.191406 C 10.980469 3.113281 12.953125 3.113281 13.648438 3.191406 C 16.921875 3.558594 19.785156 4.761719 22.1875 6.773438 L 22.488281 7.027344 L 22.488281 9.003906 L 20.332031 9.003906 L 20.117188 8.824219 C 18.492188 7.453125 16.367188 6.480469 14.210938 6.109375 C 12.753906 5.863281 11.199219 5.863281 9.765625 6.109375 C 7.558594 6.492188 5.511719 7.429688 3.859375 8.8125 L 3.628906 9.003906 L 2.585938 9.003906 C 2.011719 9.003906 1.53125 8.992188 1.519531 8.984375 Z M 1.519531 8.984375 "/>
</g>
</svg>
