<?xml version="1.0" encoding="UTF-8"?>
<svg xmlns="http://www.w3.org/2000/svg" xmlns:xlink="http://www.w3.org/1999/xlink" width="24" height="24" viewBox="0 0 24 24" version="1.1">
<g id="surface1">
<path style=" stroke:none;fill-rule:nonzero;fill:rgb(74.509804%,74.509804%,74.509804%);fill-opacity:1;" d="M 9 18 L 9 21 L 0.703125 21 C 0.308594 21 0 21.308594 0 21.703125 L 0 23.296875 C 0 23.691406 0.308594 24 0.703125 24 L 20.296875 24 C 20.691406 24 21 23.691406 21 23.296875 L 21 21.703125 C 21 21.308594 20.691406 21 20.296875 21 L 12 21 L 12 18 Z M 9 18 "/>
<path style=" stroke:none;fill-rule:nonzero;fill:rgb(74.509804%,74.509804%,74.509804%);fill-opacity:1;" d="M 6.074219 3.179688 L 6.074219 11.984375 L 15.003906 11.984375 L 15.003906 6.085938 L 12.003906 3.179688 Z M 3.003906 12.007812 L 3.003906 17.945312 L 17.957031 17.945312 L 17.957031 12.007812 L 16.527344 12.007812 L 16.523438 13.480469 L 4.480469 13.53125 L 4.480469 12.007812 Z M 3.003906 12.007812 "/>
<path style=" stroke:none;fill-rule:nonzero;fill:rgb(100%,100%,100%);fill-opacity:1;" d="M 6.082031 7.578125 L 6.082031 3.183594 L 12 3.183594 L 13.492188 4.632812 L 14.992188 6.078125 L 14.992188 9.027344 L 14.996094 11.976562 L 6.082031 11.976562 Z M 6.082031 7.578125 "/>
<path style=" stroke:none;fill-rule:nonzero;fill:rgb(100%,100%,100%);fill-opacity:1;" d="M 3.015625 14.976562 L 3.015625 12.007812 L 4.472656 12.007812 L 4.472656 13.542969 L 6.523438 13.53125 C 7.648438 13.527344 10.367188 13.515625 12.558594 13.503906 L 16.542969 13.484375 L 16.542969 12.007812 L 17.9375 12.007812 L 17.9375 17.949219 L 3.015625 17.949219 Z M 3.015625 14.976562 "/>
<path style=" stroke:none;fill-rule:nonzero;fill:rgb(100%,100%,100%);fill-opacity:1;" d="M 0.382812 23.898438 C 0.261719 23.835938 0.191406 23.773438 0.125 23.664062 L 0.03125 23.511719 L 0.03125 21.488281 L 0.121094 21.335938 C 0.191406 21.222656 0.257812 21.164062 0.382812 21.101562 L 0.550781 21.015625 L 9.023438 21.015625 L 9.023438 18.011719 L 11.992188 18.011719 L 11.992188 21.015625 L 16.195312 21.015625 C 19.03125 21.015625 20.4375 21.023438 20.515625 21.046875 C 20.664062 21.085938 20.832031 21.234375 20.917969 21.398438 C 20.984375 21.519531 20.988281 21.554688 20.988281 22.5 C 20.988281 23.445312 20.984375 23.480469 20.917969 23.601562 C 20.832031 23.765625 20.664062 23.914062 20.515625 23.953125 C 20.433594 23.976562 17.304688 23.984375 10.472656 23.984375 L 0.546875 23.984375 Z M 0.382812 23.898438 "/>
</g>
</svg>
