<?xml version="1.0" encoding="UTF-8"?>
<svg xmlns="http://www.w3.org/2000/svg" xmlns:xlink="http://www.w3.org/1999/xlink" width="24" height="24" viewBox="0 0 24 24" version="1.1">
<g id="surface1">
<path style=" stroke:none;fill-rule:nonzero;fill:rgb(74.509804%,74.509804%,74.509804%);fill-opacity:1;" d="M 3 6 C 2.25 6 1.5 6.75 1.5 7.5 L 1.5 13.5 C 1.5 14.25 2.25 15 3 15 L 4.5 15 L 4.5 12 L 19.5 12 L 19.5 15 L 21 15 C 21.75 15 22.5 14.25 22.5 13.5 L 22.5 7.5 C 22.5 6.75 21.75 6 21 6 Z M 3 6 "/>
<path style=" stroke:none;fill-rule:nonzero;fill:rgb(74.509804%,74.509804%,74.509804%);fill-opacity:1;" d="M 6 1.5 L 6 4.5 L 18 4.5 L 18 1.5 Z M 6 1.5 "/>
<path style=" stroke:none;fill-rule:nonzero;fill:rgb(74.509804%,74.509804%,74.509804%);fill-opacity:1;" d="M 6 13.5 L 6 21 L 18 21 L 18 13.5 Z M 7.5 15 L 16.5 15 L 16.5 16.5 L 7.5 16.5 Z M 7.5 18 L 15 18 L 15 19.5 L 7.5 19.5 Z M 7.5 18 "/>
<path style=" stroke:none;fill-rule:nonzero;fill:rgb(100%,100%,100%);fill-opacity:1;" d="M 6.019531 17.253906 L 6.019531 13.523438 L 18 13.523438 L 18 20.984375 L 6.019531 20.984375 Z M 14.996094 18.738281 L 14.996094 17.980469 L 7.488281 17.996094 L 7.472656 19.496094 L 14.996094 19.496094 Z M 16.507812 15.742188 L 16.515625 14.976562 L 12.003906 14.984375 L 7.488281 14.992188 L 7.480469 15.71875 C 7.476562 16.121094 7.480469 16.464844 7.488281 16.488281 C 7.5 16.519531 8.378906 16.523438 12 16.519531 L 16.496094 16.511719 Z M 16.507812 15.742188 "/>
<path style=" stroke:none;fill-rule:nonzero;fill:rgb(100%,100%,100%);fill-opacity:1;" d="M 2.605469 14.917969 C 2.507812 14.886719 2.359375 14.816406 2.277344 14.761719 C 2.078125 14.636719 1.785156 14.324219 1.675781 14.117188 C 1.5 13.792969 1.5 13.808594 1.5 10.519531 C 1.5 8.707031 1.511719 7.429688 1.53125 7.316406 C 1.628906 6.710938 2.207031 6.128906 2.816406 6.03125 C 3.085938 5.988281 20.960938 5.988281 21.203125 6.035156 C 21.746094 6.132812 22.257812 6.597656 22.425781 7.140625 C 22.484375 7.332031 22.488281 7.433594 22.488281 10.484375 C 22.488281 13.953125 22.496094 13.820312 22.296875 14.171875 C 22.148438 14.429688 21.855469 14.703125 21.570312 14.84375 L 21.332031 14.960938 L 19.515625 14.980469 L 19.5 11.992188 L 12 11.984375 L 4.503906 11.976562 L 4.503906 14.976562 L 3.644531 14.976562 C 2.898438 14.976562 2.761719 14.96875 2.605469 14.917969 Z M 2.605469 14.917969 "/>
<path style=" stroke:none;fill-rule:nonzero;fill:rgb(100%,100%,100%);fill-opacity:1;" d="M 6.019531 2.996094 L 6.019531 1.511719 L 18 1.511719 L 18 4.484375 L 6.019531 4.484375 Z M 6.019531 2.996094 "/>
</g>
</svg>
