<?xml version="1.0" encoding="UTF-8"?>
<svg xmlns="http://www.w3.org/2000/svg" xmlns:xlink="http://www.w3.org/1999/xlink" width="32" height="32" viewBox="0 0 32 32" version="1.1">
<g id="surface1">
<path style=" stroke:none;fill-rule:nonzero;fill:rgb(74.509804%,74.509804%,74.509804%);fill-opacity:1;" d="M 15.9375 0 C 9.328125 0 3.890625 6.015625 4 11.4375 C 4.125 17.480469 5.867188 20.828125 6.25 22 L 9.050781 22 C 6.726562 17.417969 6.953125 11.6875 6.953125 11.6875 C 6.953125 6.941406 10.96875 3.0625 15.9375 3.0625 C 20.910156 3.0625 24.9375 6.902344 24.921875 11.8125 C 24.875 15.160156 24.578125 16.378906 22.910156 21.4375 L 26.054688 21.4375 C 26.5 20.148438 28 17.304688 28 11.625 C 28 5.964844 22.546875 0 15.9375 0 Z M 15.9375 0 "/>
<path style=" stroke:none;fill-rule:nonzero;fill:rgb(74.509804%,74.509804%,74.509804%);fill-opacity:1;" d="M 25.199219 14.109375 C 23.527344 13.640625 21.664062 14.851562 21.042969 16.8125 L 20.191406 19.496094 C 19.566406 21.457031 20.417969 23.421875 22.09375 23.890625 C 23.765625 24.359375 25.625 23.148438 26.246094 21.1875 L 27.101562 18.503906 C 27.722656 16.542969 26.871094 14.574219 25.199219 14.109375 Z M 25.199219 14.109375 "/>
<path style=" stroke:none;fill-rule:nonzero;fill:rgb(74.509804%,74.509804%,74.509804%);fill-opacity:1;" d="M 6.90625 14.117188 C 8.578125 13.652344 10.4375 14.863281 11.0625 16.820312 L 11.914062 19.507812 C 12.535156 21.46875 11.683594 23.433594 10.011719 23.902344 C 8.339844 24.367188 6.476562 23.15625 5.855469 21.199219 L 5.003906 18.511719 C 4.382812 16.554688 5.234375 14.585938 6.90625 14.117188 Z M 6.90625 14.117188 "/>
<path style=" stroke:none;fill-rule:nonzero;fill:rgb(74.509804%,74.509804%,74.509804%);fill-opacity:1;" d="M 14.09375 27.941406 L 17.96875 27.941406 C 19.054688 27.941406 19.9375 28.820312 19.9375 29.910156 C 19.9375 30.996094 19.054688 31.878906 17.96875 31.878906 L 14.09375 31.878906 C 13.007812 31.878906 12.125 30.996094 12.125 29.910156 C 12.125 28.820312 13.007812 27.941406 14.09375 27.941406 Z M 14.09375 27.941406 "/>
<path style=" stroke:none;fill-rule:nonzero;fill:rgb(74.509804%,74.509804%,74.509804%);fill-opacity:1;" d="M 25.1875 18.820312 C 24.734375 18.902344 24.398438 19.28125 24.367188 19.742188 C 24.335938 20.199219 24.625 20.617188 25.0625 20.757812 L 28 21.816406 L 27.9375 25.316406 C 27.925781 26.382812 27.664062 27.054688 27.3125 27.441406 C 26.960938 27.820312 26.507812 28.003906 25.875 28.003906 L 17.5625 28.003906 C 17.203125 27.996094 16.867188 28.1875 16.683594 28.496094 C 16.503906 28.808594 16.503906 29.195312 16.683594 29.507812 C 16.867188 29.816406 17.203125 30.007812 17.5625 30.003906 L 25.875 30.003906 C 26.96875 30.003906 28.058594 29.582031 28.8125 28.753906 C 29.566406 27.921875 29.925781 26.734375 29.9375 25.3125 L 30 21.117188 L 30 20.429688 L 29.375 20.179688 L 25.8125 18.867188 C 25.617188 18.777344 25.398438 18.753906 25.1875 18.804688 Z M 25.1875 18.820312 "/>
<path style=" stroke:none;fill-rule:nonzero;fill:rgb(100%,100%,100%);fill-opacity:1;" d="M 13.601562 31.792969 C 12.914062 31.609375 12.351562 31.035156 12.195312 30.367188 C 12.078125 29.851562 12.1875 29.253906 12.488281 28.808594 C 12.796875 28.34375 13.277344 28.054688 13.867188 27.976562 C 14.082031 27.949219 14.890625 27.941406 16.199219 27.957031 C 21.054688 28.011719 26.046875 28.023438 26.308594 27.980469 C 27.101562 27.847656 27.625 27.285156 27.839844 26.339844 C 27.910156 26.039062 27.929688 25.730469 27.960938 24.511719 C 27.980469 23.707031 28 22.765625 28 22.425781 L 28.003906 21.804688 L 27.1875 21.507812 C 26.742188 21.347656 26.34375 21.203125 26.308594 21.191406 C 26.257812 21.171875 26.214844 21.246094 26.109375 21.515625 C 25.921875 21.992188 25.539062 22.570312 25.160156 22.945312 C 23.542969 24.539062 21.222656 24.238281 20.324219 22.3125 C 20.097656 21.828125 20.023438 21.460938 20.023438 20.796875 C 20.023438 20.371094 20.042969 20.117188 20.089844 19.917969 C 20.222656 19.386719 21.121094 16.605469 21.253906 16.3125 C 21.640625 15.472656 22.308594 14.753906 23.050781 14.378906 C 23.492188 14.15625 23.847656 14.0625 24.355469 14.039062 C 24.78125 14.019531 24.820312 14.007812 24.839844 13.929688 C 24.898438 13.6875 24.949219 11.699219 24.90625 11.15625 C 24.640625 7.621094 22.285156 4.644531 18.867188 3.523438 C 15.535156 2.429688 11.867188 3.28125 9.445312 5.71875 C 8.046875 7.128906 7.214844 8.851562 6.992188 10.808594 C 6.941406 11.253906 6.957031 13.898438 7.007812 14.03125 C 7.035156 14.082031 7.082031 14.085938 7.351562 14.050781 C 8.296875 13.933594 9.449219 14.425781 10.160156 15.257812 C 10.695312 15.878906 10.855469 16.230469 11.429688 18.03125 C 12.066406 20.027344 12.085938 20.101562 12.082031 20.816406 C 12.082031 21.511719 12.003906 21.859375 11.714844 22.445312 C 11.46875 22.945312 11.015625 23.417969 10.554688 23.65625 C 8.800781 24.574219 6.617188 23.433594 5.882812 21.21875 C 4.914062 18.3125 4.503906 16.667969 4.25 14.667969 C 4.0625 13.1875 3.972656 11.214844 4.058594 10.414062 C 4.5625 5.792969 8.617188 1.421875 13.433594 0.308594 C 14.347656 0.0976562 14.941406 0.03125 15.964844 0.03125 C 19.152344 0.03125 22.132812 1.355469 24.558594 3.835938 C 26.097656 5.414062 27.230469 7.402344 27.695312 9.34375 C 27.953125 10.421875 28.015625 11.195312 27.960938 12.679688 C 27.878906 14.898438 27.550781 17.023438 27.019531 18.746094 L 26.859375 19.265625 L 26.96875 19.304688 C 27.453125 19.480469 29.222656 20.136719 29.5625 20.265625 L 29.984375 20.433594 L 29.980469 21.160156 C 29.980469 21.5625 29.964844 22.808594 29.945312 23.933594 C 29.902344 26.152344 29.867188 26.539062 29.632812 27.253906 C 29.125 28.808594 27.9375 29.773438 26.308594 29.960938 C 26.113281 29.984375 24.640625 30 22.945312 30 L 19.929688 30 L 19.878906 30.277344 C 19.742188 31.015625 19.179688 31.605469 18.4375 31.796875 C 18.097656 31.886719 13.9375 31.882812 13.601562 31.792969 Z M 13.601562 31.792969 "/>
</g>
</svg>
