<?xml version="1.0" encoding="UTF-8"?>
<svg xmlns="http://www.w3.org/2000/svg" xmlns:xlink="http://www.w3.org/1999/xlink" width="32" height="32" viewBox="0 0 32 32" version="1.1">
<g id="surface1">
<path style=" stroke:none;fill-rule:nonzero;fill:rgb(74.509804%,74.509804%,74.509804%);fill-opacity:1;" d="M 2 10 L 6.96875 10 L 12.90625 4 L 14 4.03125 L 14 28.03125 L 13.050781 28.03125 L 6.96875 22 L 2 22 Z M 2 10 "/>
<path style=" stroke:none;fill-rule:nonzero;fill:rgb(74.509804%,74.509804%,74.509804%);fill-opacity:1;" d="M 23.757812 2 C 23.3125 2.046875 22.894531 2.246094 22.570312 2.5625 L 18.570312 6.5625 C 18.050781 7.074219 17.84375 7.828125 18.03125 8.53125 C 18.21875 9.238281 18.773438 9.789062 19.476562 9.976562 C 20.183594 10.164062 20.933594 9.957031 21.445312 9.4375 L 25.445312 5.4375 C 26.097656 4.835938 26.277344 3.875 25.882812 3.082031 C 25.492188 2.289062 24.621094 1.847656 23.746094 1.996094 Z M 23.757812 2 "/>
<path style=" stroke:none;fill-rule:nonzero;fill:rgb(74.509804%,74.509804%,74.509804%);fill-opacity:1;" d="M 19.558594 22 C 18.8125 22.136719 18.207031 22.679688 17.996094 23.410156 C 17.785156 24.136719 18.003906 24.921875 18.558594 25.4375 L 22.558594 29.4375 C 23.070312 29.957031 23.824219 30.164062 24.53125 29.976562 C 25.234375 29.789062 25.785156 29.238281 25.972656 28.53125 C 26.160156 27.828125 25.957031 27.074219 25.433594 26.5625 L 21.433594 22.5625 C 20.949219 22.058594 20.234375 21.847656 19.554688 22.003906 Z M 19.558594 22 "/>
<path style=" stroke:none;fill-rule:nonzero;fill:rgb(74.509804%,74.509804%,74.509804%);fill-opacity:1;" d="M 19.820312 14 C 19.097656 14.023438 18.445312 14.433594 18.109375 15.070312 C 17.773438 15.710938 17.808594 16.480469 18.199219 17.085938 C 18.59375 17.691406 19.277344 18.042969 20 18 L 28.0625 18.0625 C 28.78125 18.070312 29.453125 17.691406 29.816406 17.070312 C 30.179688 16.445312 30.179688 15.675781 29.816406 15.054688 C 29.453125 14.429688 28.78125 14.050781 28.0625 14.0625 L 20 14 C 19.941406 14 19.875 14 19.816406 14 Z M 19.820312 14 "/>
<path style=" stroke:none;fill-rule:nonzero;fill:rgb(74.509804%,74.509804%,74.509804%);fill-opacity:1;" d="M 18 8 L 20 8 L 20 10 L 18 10 Z M 18 8 "/>
<path style=" stroke:none;fill-rule:nonzero;fill:rgb(74.509804%,74.509804%,74.509804%);fill-opacity:1;" d="M 18 22 L 20 22 L 20 24 L 18 24 Z M 18 22 "/>
<path style=" stroke:none;fill-rule:nonzero;fill:rgb(100%,100%,100%);fill-opacity:1;" d="M 10.007812 25.003906 L 6.980469 21.992188 L 2 21.992188 L 2 10.023438 L 6.976562 10.023438 L 7.59375 9.394531 C 7.933594 9.050781 9.269531 7.699219 10.5625 6.390625 L 12.917969 4.015625 L 13.441406 4.03125 L 13.96875 4.046875 L 13.96875 28.019531 L 13.503906 28.015625 L 13.039062 28.015625 Z M 10.007812 25.003906 "/>
<path style=" stroke:none;fill-rule:nonzero;fill:rgb(100%,100%,100%);fill-opacity:1;" d="M 18.855469 9.992188 L 18.023438 9.980469 L 18.003906 8.917969 C 17.980469 7.742188 18.003906 7.527344 18.1875 7.132812 C 18.300781 6.890625 18.503906 6.675781 20.585938 4.589844 C 23.117188 2.0625 23.003906 2.15625 23.699219 2.027344 C 24.367188 1.902344 24.976562 2.085938 25.460938 2.554688 C 26.101562 3.167969 26.246094 4.085938 25.835938 4.90625 C 25.746094 5.089844 25.296875 5.558594 23.496094 7.363281 C 22.003906 8.859375 21.195312 9.640625 21.042969 9.730469 C 20.734375 9.921875 20.335938 10.023438 19.976562 10.011719 C 19.816406 10.007812 19.3125 10 18.855469 9.992188 Z M 18.855469 9.992188 "/>
<path style=" stroke:none;fill-rule:nonzero;fill:rgb(100%,100%,100%);fill-opacity:1;" d="M 21.273438 17.992188 C 19.515625 17.96875 19.429688 17.964844 19.21875 17.878906 C 18.5 17.585938 18.039062 17.015625 17.925781 16.285156 C 17.769531 15.289062 18.449219 14.296875 19.4375 14.066406 C 19.753906 13.992188 28.125 14.050781 28.507812 14.128906 C 28.898438 14.210938 29.242188 14.40625 29.523438 14.707031 C 29.886719 15.097656 30.0625 15.535156 30.066406 16.050781 C 30.066406 16.832031 29.632812 17.515625 28.921875 17.855469 L 28.601562 18.007812 L 25.855469 18.011719 C 24.347656 18.011719 22.285156 18.003906 21.273438 17.992188 Z M 21.273438 17.992188 "/>
<path style=" stroke:none;fill-rule:nonzero;fill:rgb(100%,100%,100%);fill-opacity:1;" d="M 23.589844 29.976562 C 23.007812 29.851562 23.050781 29.886719 20.582031 27.425781 C 18.523438 25.375 18.285156 25.121094 18.160156 24.871094 C 17.984375 24.523438 17.917969 24.207031 17.949219 23.878906 C 17.960938 23.738281 17.984375 23.269531 17.996094 22.835938 L 18.023438 22.046875 L 18.9375 22.011719 C 19.4375 21.996094 19.964844 21.984375 20.101562 21.984375 C 20.414062 21.992188 20.800781 22.109375 21.058594 22.277344 C 21.164062 22.34375 22.25 23.402344 23.464844 24.621094 C 25.09375 26.257812 25.703125 26.898438 25.785156 27.054688 C 26.410156 28.242188 25.730469 29.703125 24.421875 29.980469 C 24.082031 30.054688 23.933594 30.054688 23.589844 29.976562 Z M 23.589844 29.976562 "/>
</g>
</svg>
