<?xml version="1.0" encoding="UTF-8"?>
<svg xmlns="http://www.w3.org/2000/svg" xmlns:xlink="http://www.w3.org/1999/xlink" width="32" height="32" viewBox="0 0 32 32" version="1.1">
<g id="surface1">
<path style=" stroke:none;fill-rule:nonzero;fill:rgb(74.509804%,74.509804%,74.509804%);fill-opacity:1;" d="M 25.820312 2 C 24.785156 2.09375 23.996094 2.960938 24 4 L 24 30 C 23.992188 30.722656 24.367188 31.390625 24.992188 31.753906 C 25.613281 32.117188 26.386719 32.117188 27.007812 31.753906 C 27.628906 31.390625 28.007812 30.722656 28 30 L 28 6 L 30 6 C 30.722656 6.007812 31.390625 5.632812 31.753906 5.007812 C 32.117188 4.386719 32.117188 3.613281 31.753906 2.992188 C 31.390625 2.367188 30.722656 1.992188 30 2 L 26 2 C 25.9375 1.996094 25.875 1.996094 25.8125 2 Z M 25.820312 2 "/>
<path style=" stroke:none;fill-rule:nonzero;fill:rgb(74.509804%,74.509804%,74.509804%);fill-opacity:1;" d="M 26 12 L 26 18 L 32 18 L 32 12 Z M 28 14 L 30 14 L 30 16 L 28 16 Z M 28 14 "/>
<path style=" stroke:none;fill-rule:nonzero;fill:rgb(74.509804%,74.509804%,74.509804%);fill-opacity:1;" d="M 26 20 L 26 26 L 32 26 L 32 20 Z M 28 22 L 30 22 L 30 24 L 28 24 Z M 28 22 "/>
<path style=" stroke:none;fill-rule:nonzero;fill:rgb(74.509804%,74.509804%,74.509804%);fill-opacity:1;" d="M 0 8 L 0 32 L 20 32 L 20 28 L 22 28 L 22 24 L 16 24 L 16 28 L 4 28 L 4 12 L 10 12 L 10 8 Z M 0 8 "/>
<path style=" stroke:none;fill-rule:nonzero;fill:rgb(74.509804%,74.509804%,74.509804%);fill-opacity:1;" d="M 12 2 L 22 10 L 16 10 L 16 19.0625 L 12 19.0625 Z M 12 2 "/>
<path style=" stroke:none;fill-rule:nonzero;fill:rgb(74.509804%,74.509804%,74.509804%);fill-opacity:1;" d="M 15.980469 19.007812 C 15.980469 21.761719 13.75 23.996094 10.992188 23.996094 C 8.234375 23.996094 6.003906 21.761719 6.003906 19.007812 C 6.003906 16.25 8.234375 14.015625 10.992188 14.015625 C 13.75 14.015625 15.980469 16.25 15.980469 19.007812 Z M 15.980469 19.007812 "/>
<path style=" stroke:none;fill-rule:nonzero;fill:rgb(100%,100%,100%);fill-opacity:1;" d="M 10.613281 23.96875 C 9.265625 23.8125 8.265625 23.335938 7.410156 22.441406 C 7 22.011719 6.753906 21.660156 6.507812 21.136719 C 5.9375 19.945312 5.867188 18.59375 6.308594 17.34375 C 6.558594 16.632812 6.925781 16.050781 7.476562 15.503906 C 8.261719 14.714844 9.253906 14.21875 10.335938 14.078125 C 10.6875 14.03125 11.636719 14.046875 11.882812 14.105469 L 12 14.132812 L 12 2.015625 L 21.9375 9.96875 L 18.972656 9.980469 L 16.003906 9.992188 L 16.003906 14.425781 C 16.003906 19.078125 15.992188 19.441406 15.820312 20.171875 C 15.445312 21.761719 14.3125 23.050781 12.753906 23.660156 C 12.148438 23.898438 11.191406 24.035156 10.613281 23.96875 Z M 10.613281 23.96875 "/>
<path style=" stroke:none;fill-rule:nonzero;fill:rgb(100%,100%,100%);fill-opacity:1;" d="M 0.0195312 19.988281 L 0.0195312 8.007812 L 9.972656 8.007812 L 9.972656 11.972656 L 3.984375 11.972656 L 3.984375 28 L 16.003906 28 L 16.003906 23.996094 L 21.996094 23.996094 L 21.996094 28 L 19.972656 28 L 19.972656 31.96875 L 0.0195312 31.96875 Z M 0.0195312 19.988281 "/>
<path style=" stroke:none;fill-rule:nonzero;fill:rgb(100%,100%,100%);fill-opacity:1;" d="M 25.527344 31.949219 C 24.898438 31.796875 24.367188 31.316406 24.128906 30.695312 L 24.039062 30.460938 L 24.039062 3.523438 L 24.136719 3.285156 C 24.359375 2.738281 24.859375 2.273438 25.40625 2.101562 C 25.667969 2.023438 25.785156 2.015625 27.980469 2.015625 C 30.488281 2.015625 30.539062 2.023438 30.976562 2.257812 C 31.308594 2.433594 31.640625 2.789062 31.816406 3.164062 C 31.96875 3.480469 31.972656 3.492188 31.972656 4 C 31.972656 4.511719 31.96875 4.519531 31.816406 4.84375 C 31.640625 5.210938 31.3125 5.5625 30.976562 5.746094 C 30.59375 5.949219 30.34375 5.984375 29.109375 5.984375 L 27.984375 5.984375 L 27.984375 12.015625 L 31.992188 12.015625 L 31.992188 18.003906 L 27.984375 18.003906 L 27.984375 20.027344 L 31.992188 20.027344 L 31.992188 25.976562 L 27.984375 25.976562 L 27.984375 28.078125 C 27.984375 29.335938 27.96875 30.269531 27.941406 30.402344 C 27.738281 31.492188 26.601562 32.21875 25.527344 31.949219 Z M 30.007812 22.980469 L 30.007812 21.96875 L 28.007812 21.992188 L 27.996094 22.992188 L 27.984375 23.996094 L 30.007812 23.996094 Z M 30.007812 15.007812 L 30.007812 14 L 27.984375 14 L 27.984375 16.023438 L 30.007812 16.023438 Z M 30.007812 15.007812 "/>
</g>
</svg>
