<?xml version="1.0" encoding="UTF-8"?>
<svg xmlns="http://www.w3.org/2000/svg" xmlns:xlink="http://www.w3.org/1999/xlink" width="32" height="32" viewBox="0 0 32 32" version="1.1">
<g id="surface1">
<path style=" stroke:none;fill-rule:nonzero;fill:rgb(74.509804%,74.509804%,74.509804%);fill-opacity:1;" d="M 7.976562 18.21875 C 9.867188 17.667969 11.886719 18.8125 12.484375 20.785156 L 13.832031 25.234375 C 14.429688 27.203125 13.378906 29.25 11.488281 29.804688 C 9.597656 30.355469 7.582031 29.207031 6.984375 27.238281 L 5.632812 22.785156 C 5.039062 20.816406 6.085938 18.773438 7.976562 18.21875 Z M 7.976562 18.21875 "/>
<path style=" stroke:none;fill-rule:nonzero;fill:rgb(74.509804%,74.509804%,74.509804%);fill-opacity:1;" d="M 15.9375 2 C 9.328125 2 3.890625 8.015625 4 13.4375 C 4.097656 18.167969 5.617188 22.828125 6 24 L 9.050781 24 C 6.726562 19.417969 6.953125 13.6875 6.953125 13.6875 C 6.953125 8.941406 10.96875 5.0625 15.9375 5.0625 C 20.910156 5.0625 24.9375 8.71875 24.921875 13.625 C 24.875 16.972656 24.578125 18.941406 22.910156 24 L 26.054688 24 C 26.5 22.710938 28 17.617188 28 13.4375 C 28 7.777344 22.546875 2 15.9375 2 Z M 15.9375 2 "/>
<path style=" stroke:none;fill-rule:nonzero;fill:rgb(74.509804%,74.509804%,74.509804%);fill-opacity:1;" d="M 24.023438 18.292969 C 22.132812 17.738281 20.113281 18.886719 19.515625 20.855469 L 18.167969 25.308594 C 17.570312 27.277344 18.617188 29.320312 20.511719 29.875 C 22.402344 30.425781 24.417969 29.277344 25.015625 27.308594 L 26.367188 22.859375 C 26.964844 20.886719 25.914062 18.84375 24.023438 18.292969 Z M 24.023438 18.292969 "/>
<path style=" stroke:none;fill-rule:nonzero;fill:rgb(100%,100%,100%);fill-opacity:1;" d="M 21.132812 29.980469 C 19.578125 29.816406 18.367188 28.667969 18.0625 27.074219 C 18.003906 26.765625 18.015625 26.007812 18.078125 25.707031 C 18.128906 25.472656 19.050781 22.398438 19.460938 21.09375 C 19.5625 20.773438 19.710938 20.382812 19.789062 20.222656 C 20.125 19.554688 20.703125 18.953125 21.347656 18.601562 C 21.867188 18.316406 22.421875 18.179688 23.050781 18.179688 C 23.492188 18.179688 23.820312 18.230469 24.203125 18.363281 C 24.34375 18.414062 24.464844 18.449219 24.472656 18.441406 C 24.492188 18.417969 24.617188 17.71875 24.683594 17.242188 C 24.933594 15.480469 24.996094 13.21875 24.824219 12.230469 C 24.417969 9.863281 23.164062 7.933594 21.160156 6.59375 C 18.855469 5.050781 15.714844 4.628906 13.054688 5.507812 C 11.609375 5.984375 10.40625 6.738281 9.355469 7.820312 C 8.03125 9.1875 7.230469 10.84375 6.996094 12.730469 C 6.929688 13.242188 6.941406 15.132812 7.015625 16.023438 C 7.101562 17.097656 7.28125 18.480469 7.335938 18.480469 C 7.347656 18.480469 7.460938 18.433594 7.585938 18.378906 C 8.855469 17.804688 10.441406 18.121094 11.496094 19.167969 C 11.941406 19.605469 12.246094 20.117188 12.460938 20.773438 C 12.667969 21.40625 13.820312 25.234375 13.898438 25.53125 C 13.984375 25.886719 14 26.6875 13.925781 27.058594 C 13.703125 28.183594 13.023438 29.082031 12.03125 29.566406 C 11.457031 29.847656 11.21875 29.898438 10.496094 29.898438 C 9.9375 29.898438 9.871094 29.890625 9.59375 29.804688 C 8.507812 29.476562 7.640625 28.730469 7.183594 27.726562 C 7.121094 27.585938 6.828125 26.683594 6.535156 25.726562 C 6.242188 24.765625 5.933594 23.761719 5.847656 23.496094 C 4.96875 20.738281 4.355469 17.804688 4.105469 15.171875 C 4.03125 14.386719 4.003906 12.898438 4.054688 12.425781 C 4.304688 10.09375 5.476562 7.738281 7.351562 5.8125 C 9.414062 3.695312 11.96875 2.40625 14.742188 2.078125 C 15.296875 2.015625 16.472656 2.007812 17.015625 2.0625 C 18.992188 2.269531 20.871094 2.945312 22.515625 4.046875 C 25.378906 5.960938 27.367188 8.902344 27.863281 11.960938 C 27.980469 12.664062 28.011719 13.34375 27.96875 14.230469 C 27.871094 16.246094 27.539062 18.375 26.929688 20.882812 C 26.632812 22.09375 26.09375 23.953125 26.027344 23.996094 C 26.015625 24.007812 25.765625 24.792969 25.476562 25.746094 C 25.191406 26.695312 24.902344 27.59375 24.839844 27.742188 C 24.671875 28.148438 24.339844 28.617188 23.992188 28.953125 C 23.359375 29.566406 22.632812 29.902344 21.785156 29.984375 C 21.589844 30 21.421875 30.015625 21.410156 30.011719 C 21.402344 30.007812 21.277344 29.996094 21.132812 29.980469 Z M 21.132812 29.980469 "/>
</g>
</svg>
