<?xml version="1.0" encoding="UTF-8"?>
<svg xmlns="http://www.w3.org/2000/svg" xmlns:xlink="http://www.w3.org/1999/xlink" width="32" height="32" viewBox="0 0 32 32" version="1.1">
<g id="surface1">
<path style=" stroke:none;fill-rule:nonzero;fill:rgb(74.509804%,74.509804%,74.509804%);fill-opacity:1;" d="M 14.121094 0.0195312 C 13.210938 0.117188 12.351562 0.464844 11.621094 1.019531 C 10.644531 1.761719 9.996094 2.929688 9.996094 4.394531 L 9.996094 15.019531 C 9.996094 15.019531 10.46875 16.035156 10.996094 16.035156 C 11.523438 16.035156 11.996094 15.019531 11.996094 15.019531 L 11.996094 4.394531 C 11.996094 3.496094 12.335938 2.988281 12.871094 2.582031 C 13.402344 2.179688 14.195312 1.984375 14.996094 2.019531 C 15.792969 2.058594 16.5625 2.328125 17.121094 2.832031 C 17.675781 3.335938 18.058594 4.003906 18.058594 5.082031 C 18.058594 9.414062 20.984375 12.101562 24.058594 12.019531 C 25.769531 11.976562 27.433594 11.066406 28.558594 9.394531 L 27.433594 7.394531 C 26.679688 9.226562 25.296875 9.984375 23.996094 10.019531 C 22.074219 10.070312 20.058594 8.5625 20.058594 5.082031 C 20.058594 3.5 19.382812 2.195312 18.433594 1.332031 C 17.480469 0.472656 16.269531 0.078125 15.058594 0.0195312 C 14.753906 0.0078125 14.421875 -0.0117188 14.121094 0.0195312 Z M 27.996094 4.019531 C 27.996094 4.113281 27.996094 4.183594 27.996094 4.269531 L 29.558594 7.019531 C 29.578125 6.9375 29.597656 6.851562 29.621094 6.769531 Z M 27.996094 4.707031 C 27.984375 4.921875 27.953125 5.132812 27.933594 5.332031 L 29.371094 7.769531 C 29.417969 7.644531 29.453125 7.527344 29.496094 7.394531 Z M 27.871094 5.707031 C 27.84375 5.886719 27.78125 6.039062 27.746094 6.207031 L 29.058594 8.457031 C 29.117188 8.335938 29.191406 8.210938 29.246094 8.082031 Z M 27.683594 6.582031 C 27.632812 6.761719 27.550781 6.921875 27.496094 7.082031 L 28.683594 9.144531 C 28.761719 9.015625 28.859375 8.90625 28.933594 8.769531 Z M 27.683594 6.582031 "/>
<path style=" stroke:none;fill-rule:nonzero;fill:rgb(74.509804%,74.509804%,74.509804%);fill-opacity:1;" d="M 5.453125 12.019531 L 16.546875 12.019531 C 17.347656 12.019531 18 12.671875 18 13.472656 L 18 26.566406 C 18 27.367188 17.347656 28.019531 16.546875 28.019531 L 5.453125 28.019531 C 4.652344 28.019531 4 27.367188 4 26.566406 L 4 13.472656 C 4 12.671875 4.652344 12.019531 5.453125 12.019531 Z M 5.453125 12.019531 "/>
<path style=" stroke:none;fill-rule:nonzero;fill:rgb(100%,100%,100%);fill-opacity:1;" d="M 5.039062 27.945312 C 4.574219 27.800781 4.226562 27.453125 4.085938 26.992188 C 4.019531 26.785156 4.019531 26.660156 4.019531 20.007812 C 4.019531 13.285156 4.019531 13.234375 4.085938 13.035156 C 4.222656 12.628906 4.460938 12.359375 4.855469 12.171875 L 5.105469 12.050781 L 7.554688 12.042969 L 10.003906 12.03125 L 10.015625 7.894531 C 10.027344 3.316406 10.011719 3.652344 10.242188 2.953125 C 10.59375 1.898438 11.363281 1.058594 12.464844 0.523438 C 13.195312 0.171875 13.632812 0.0625 14.410156 0.03125 C 16.789062 -0.046875 18.632812 0.964844 19.539062 2.851562 C 19.882812 3.566406 19.996094 4.078125 20.042969 5.132812 C 20.097656 6.445312 20.253906 7.148438 20.675781 7.976562 C 21.171875 8.960938 22.054688 9.679688 23.070312 9.929688 C 23.425781 10.015625 24.035156 10.046875 24.394531 9.996094 C 25.257812 9.867188 26.117188 9.378906 26.679688 8.6875 C 26.921875 8.386719 27.265625 7.835938 27.355469 7.597656 C 27.386719 7.515625 27.421875 7.453125 27.433594 7.453125 C 27.445312 7.453125 27.699219 7.890625 28 8.421875 L 28.546875 9.394531 L 28.398438 9.601562 C 27.558594 10.773438 26.304688 11.613281 24.949219 11.90625 C 24.660156 11.96875 24.507812 11.980469 23.925781 11.980469 C 23.339844 11.980469 23.1875 11.96875 22.898438 11.90625 C 21.136719 11.523438 19.667969 10.328125 18.832031 8.59375 C 18.5 7.902344 18.246094 7.027344 18.136719 6.210938 C 18.117188 6.050781 18.085938 5.601562 18.070312 5.207031 C 18.035156 4.371094 17.980469 4.113281 17.753906 3.652344 C 17.300781 2.738281 16.367188 2.148438 15.175781 2.023438 C 14.40625 1.945312 13.5625 2.121094 13.015625 2.472656 C 12.613281 2.730469 12.296875 3.097656 12.144531 3.476562 C 11.984375 3.878906 11.984375 3.898438 11.980469 8.09375 L 11.980469 12.035156 L 14.347656 12.035156 C 16.960938 12.035156 16.941406 12.03125 17.296875 12.246094 C 17.652344 12.457031 17.902344 12.847656 17.96875 13.289062 C 18.011719 13.605469 18.011719 26.449219 17.96875 26.765625 C 17.886719 27.316406 17.488281 27.789062 16.96875 27.941406 C 16.804688 27.988281 16.191406 27.992188 10.980469 27.992188 C 6.394531 27.988281 5.144531 27.980469 5.039062 27.945312 Z M 5.039062 27.945312 "/>
</g>
</svg>
