<?xml version="1.0" encoding="UTF-8"?>
<svg xmlns="http://www.w3.org/2000/svg" xmlns:xlink="http://www.w3.org/1999/xlink" width="32" height="32" viewBox="0 0 32 32" version="1.1">
<g id="surface1">
<path style=" stroke:none;fill-rule:nonzero;fill:rgb(74.509804%,74.509804%,74.509804%);fill-opacity:1;" d="M 4.941406 2 C 3.296875 2 2 3.296875 2 4.9375 L 2 27.0625 C 2 28.703125 3.296875 30 4.941406 30 L 23.066406 30 C 24.707031 30 26.003906 28.703125 26.003906 27.0625 L 26.003906 4.9375 C 26.003906 3.296875 24.707031 2 23.066406 2 Z M 4.003906 4 L 24.003906 4 L 24.003906 26 L 4.003906 26 Z M 4.003906 4 "/>
<path style=" stroke:none;fill-rule:nonzero;fill:rgb(100%,100%,100%);fill-opacity:1;" d="M 4.539062 29.953125 C 3.351562 29.78125 2.441406 28.984375 2.113281 27.824219 L 2.019531 27.503906 L 2.007812 16.253906 C 2 8.539062 2.007812 4.890625 2.039062 4.628906 C 2.171875 3.453125 2.917969 2.53125 4.042969 2.148438 L 4.375 2.039062 L 13.804688 2.023438 C 20.765625 2.015625 23.316406 2.023438 23.542969 2.058594 C 24.613281 2.222656 25.46875 2.953125 25.84375 4.019531 L 25.960938 4.347656 L 25.96875 15.878906 C 25.980469 27.320312 25.980469 27.410156 25.898438 27.757812 C 25.773438 28.289062 25.53125 28.71875 25.132812 29.113281 C 24.621094 29.625 24.128906 29.867188 23.421875 29.957031 C 22.992188 30.011719 4.910156 30.007812 4.539062 29.953125 Z M 24 14.996094 L 24 3.996094 L 3.980469 3.996094 L 3.980469 25.996094 L 24 25.996094 Z M 24 14.996094 "/>
</g>
</svg>
