<?xml version="1.0" encoding="UTF-8"?>
<svg xmlns="http://www.w3.org/2000/svg" xmlns:xlink="http://www.w3.org/1999/xlink" width="32" height="32" viewBox="0 0 32 32" version="1.1">
<g id="surface1">
<path style=" stroke:none;fill-rule:nonzero;fill:rgb(74.509804%,74.509804%,74.509804%);fill-opacity:1;" d="M 2 10 C 0.894531 10 0.00390625 11.046875 0.00390625 12.3125 L 0.00390625 21.4375 C 0.00390625 22.703125 0.835938 24 1.941406 24 L 3.941406 24 C 3.941406 25.265625 4.890625 26 5.996094 26 L 7.988281 26 C 9.09375 26 9.941406 25.265625 9.941406 24 L 21.917969 24 C 21.917969 25.265625 22.851562 26 23.957031 26 L 25.945312 26 C 27.050781 26 27.941406 25.265625 27.941406 24 L 29.945312 24 C 31.050781 24 31.941406 22.703125 31.941406 21.4375 L 31.941406 12.3125 C 31.921875 11.03125 31.039062 9.992188 29.921875 9.992188 Z M 3 12.382812 C 3.546875 12.382812 3.996094 14.238281 3.996094 17 C 3.996094 19.761719 3.546875 21.476562 3 21.476562 C 2.445312 21.476562 2 19.761719 2 17 C 2 14.238281 2.445312 12.382812 3 12.382812 Z M 6.992188 12.382812 C 7.539062 12.382812 7.988281 14.621094 7.988281 17.382812 C 7.988281 20.144531 7.472656 21.464844 6.921875 21.464844 C 6.371094 21.464844 5.992188 19.761719 5.992188 17 C 5.992188 14.238281 6.441406 12.382812 6.992188 12.382812 Z M 10.914062 12.382812 C 11.464844 12.382812 11.980469 14.238281 11.980469 17 C 11.980469 19.761719 11.53125 21.464844 10.980469 21.464844 C 10.429688 21.464844 9.984375 19.761719 9.984375 17 C 9.984375 14.238281 10.359375 12.382812 10.914062 12.382812 Z M 24.953125 12.003906 C 27.710938 12.003906 29.941406 14.242188 29.941406 17.003906 C 29.941406 19.765625 27.710938 22.003906 24.953125 22.003906 C 22.195312 22.003906 19.960938 19.765625 19.960938 17.003906 C 19.960938 14.242188 22.195312 12.003906 24.953125 12.003906 Z M 24.953125 12.003906 "/>
<path style=" stroke:none;fill-rule:nonzero;fill:rgb(74.509804%,74.509804%,74.509804%);fill-opacity:1;" d="M 27.941406 17 C 27.941406 18.65625 26.597656 20 24.941406 20 C 23.28125 20 21.941406 18.65625 21.941406 17 C 21.941406 15.34375 23.28125 14 24.941406 14 C 26.597656 14 27.941406 15.34375 27.941406 17 Z M 27.941406 17 "/>
<path style=" stroke:none;fill-rule:nonzero;fill:rgb(100%,100%,100%);fill-opacity:1;" d="M 5.613281 25.953125 C 5.136719 25.871094 4.804688 25.699219 4.484375 25.363281 C 4.242188 25.101562 4.039062 24.710938 4 24.429688 C 3.988281 24.328125 3.96875 24.183594 3.957031 24.109375 L 3.9375 23.976562 L 2.75 23.964844 L 1.566406 23.953125 L 1.324219 23.839844 C 0.824219 23.605469 0.351562 22.988281 0.136719 22.28125 L 0.0390625 21.972656 L 0.0273438 17.03125 C 0.015625 11.511719 0.00390625 11.765625 0.304688 11.15625 C 0.515625 10.726562 0.839844 10.402344 1.253906 10.195312 L 1.5625 10.042969 L 30.378906 10.042969 L 30.691406 10.199219 C 31.265625 10.480469 31.71875 11.101562 31.863281 11.789062 C 31.917969 12.050781 31.921875 12.753906 31.914062 17.03125 L 31.902344 21.972656 L 31.804688 22.261719 C 31.5625 22.984375 31.097656 23.582031 30.582031 23.832031 L 30.335938 23.953125 L 29.128906 23.964844 L 27.917969 23.976562 L 27.917969 24.121094 C 27.917969 24.386719 27.792969 24.828125 27.648438 25.074219 C 27.460938 25.390625 27.222656 25.605469 26.867188 25.773438 C 26.441406 25.976562 26.152344 26.003906 24.75 25.988281 C 23.605469 25.972656 23.507812 25.964844 23.261719 25.878906 C 22.515625 25.617188 22.0625 25.0625 21.960938 24.296875 L 21.917969 23.972656 L 9.925781 23.972656 L 9.921875 24.128906 C 9.921875 24.378906 9.808594 24.792969 9.667969 25.054688 C 9.421875 25.519531 8.917969 25.863281 8.355469 25.953125 C 8.039062 26.003906 5.914062 26.003906 5.613281 25.953125 Z M 25.84375 21.925781 C 26.808594 21.753906 27.664062 21.320312 28.378906 20.644531 C 30.390625 18.730469 30.480469 15.59375 28.582031 13.5625 C 27.273438 12.164062 25.195312 11.640625 23.371094 12.253906 C 21.890625 12.75 20.703125 13.9375 20.203125 15.421875 C 19.804688 16.613281 19.898438 18.089844 20.449219 19.191406 C 21.472656 21.234375 23.621094 22.324219 25.84375 21.925781 Z M 3.15625 21.433594 C 3.5 21.257812 3.800781 20.230469 3.945312 18.730469 C 4.007812 18.066406 4.007812 15.890625 3.945312 15.222656 C 3.734375 13.027344 3.25 11.945312 2.742188 12.527344 C 2.269531 13.066406 2 14.6875 2 16.972656 C 2 19.316406 2.285156 20.949219 2.769531 21.375 C 2.929688 21.515625 2.984375 21.523438 3.15625 21.433594 Z M 7.144531 21.390625 C 7.464844 21.191406 7.71875 20.515625 7.886719 19.429688 C 7.976562 18.84375 8.011719 16.644531 7.945312 15.75 C 7.808594 13.839844 7.464844 12.539062 7.0625 12.398438 C 6.878906 12.332031 6.75 12.4375 6.570312 12.789062 C 6.183594 13.558594 5.992188 14.945312 5.992188 17.019531 C 5.992188 18.671875 6.109375 19.910156 6.335938 20.652344 C 6.5625 21.378906 6.808594 21.605469 7.144531 21.390625 Z M 11.308594 21.273438 C 11.550781 20.957031 11.761719 20.164062 11.890625 19.101562 C 11.996094 18.242188 12 15.824219 11.890625 14.980469 C 11.726562 13.664062 11.480469 12.824219 11.167969 12.507812 C 10.746094 12.089844 10.367188 12.6875 10.15625 14.109375 C 9.929688 15.609375 9.910156 17.9375 10.113281 19.410156 C 10.261719 20.484375 10.542969 21.28125 10.824219 21.421875 C 11 21.511719 11.164062 21.460938 11.308594 21.273438 Z M 11.308594 21.273438 "/>
<path style=" stroke:none;fill-rule:nonzero;fill:rgb(100%,100%,100%);fill-opacity:1;" d="M 24.214844 19.890625 C 23.398438 19.691406 22.691406 19.125 22.285156 18.355469 C 21.859375 17.546875 21.859375 16.449219 22.285156 15.640625 C 22.816406 14.628906 23.8125 14.027344 24.945312 14.027344 C 27.429688 14.03125 28.792969 16.847656 27.28125 18.847656 C 26.910156 19.335938 26.308594 19.722656 25.664062 19.890625 C 25.257812 19.992188 24.632812 19.992188 24.214844 19.890625 Z M 24.214844 19.890625 "/>
</g>
</svg>
