<?xml version="1.0" encoding="UTF-8"?>
<svg xmlns="http://www.w3.org/2000/svg" xmlns:xlink="http://www.w3.org/1999/xlink" width="32" height="32" viewBox="0 0 32 32" version="1.1">
<g id="surface1">
<path style=" stroke:none;fill-rule:nonzero;fill:rgb(74.509804%,74.509804%,74.509804%);fill-opacity:1;" d="M 5 2 C 2.230469 2 0 4.230469 0 7 L 0 23 C 0 25.769531 2.230469 28 5 28 L 5 24 C 4.445312 24 4 23.554688 4 23 L 4 20 L 28 20 L 28 23 C 28 23.554688 27.554688 24 27 24 L 27 28 C 29.769531 28 32 25.769531 32 23 L 32 7 C 32 4.230469 29.769531 2 27 2 Z M 5 2 "/>
<path style=" stroke:none;fill-rule:nonzero;fill:rgb(74.509804%,74.509804%,74.509804%);fill-opacity:1;" d="M 5.757812 22.078125 C 5.757812 27.460938 10.355469 31.886719 15.992188 31.886719 C 21.625 31.886719 26.257812 27.460938 26.257812 22.078125 L 22.226562 22.078125 C 22.226562 25.382812 19.449219 28.035156 15.992188 28.035156 C 12.53125 28.035156 9.792969 25.382812 9.792969 22.078125 Z M 5.757812 22.078125 "/>
<path style=" stroke:none;fill-rule:nonzero;fill:rgb(74.509804%,74.509804%,74.509804%);fill-opacity:1;" d="M 12 22 C 12 24.195312 13.800781 26 16 26 C 18.195312 26 20 24.195312 20 22 L 18 22 C 18 23.117188 17.117188 24 16 24 C 14.882812 24 14 23.117188 14 22 Z M 12 22 "/>
<path style=" stroke:none;fill-rule:nonzero;fill:rgb(100%,100%,100%);fill-opacity:1;" d="M 15.507812 25.953125 C 13.671875 25.714844 12.171875 24.164062 12.042969 22.375 L 12.015625 22.03125 L 13.003906 22.042969 L 13.988281 22.054688 L 14.019531 22.3125 C 14.082031 22.90625 14.523438 23.503906 15.105469 23.792969 C 16.324219 24.394531 17.75 23.667969 17.980469 22.328125 L 18.03125 22.035156 L 19.011719 22.035156 C 19.78125 22.035156 19.996094 22.046875 19.996094 22.085938 C 19.996094 22.296875 19.890625 22.882812 19.804688 23.160156 C 19.335938 24.667969 18.027344 25.761719 16.464844 25.949219 C 16.054688 26 15.882812 26 15.507812 25.953125 Z M 15.507812 25.953125 "/>
<path style=" stroke:none;fill-rule:nonzero;fill:rgb(100%,100%,100%);fill-opacity:1;" d="M 14.980469 31.828125 C 13.792969 31.71875 12.460938 31.335938 11.347656 30.785156 C 8.140625 29.203125 6.011719 26.097656 5.800781 22.6875 C 5.78125 22.382812 5.78125 22.121094 5.796875 22.105469 C 5.808594 22.089844 6.714844 22.078125 7.800781 22.085938 L 9.78125 22.097656 L 9.808594 22.527344 C 9.941406 24.597656 11.257812 26.492188 13.207031 27.417969 C 15.273438 28.402344 17.707031 28.21875 19.628906 26.9375 C 20.160156 26.585938 20.890625 25.851562 21.246094 25.3125 C 21.828125 24.429688 22.152344 23.492188 22.21875 22.488281 L 22.246094 22.097656 L 26.226562 22.074219 L 26.226562 22.421875 C 26.226562 23.820312 25.671875 25.648438 24.847656 26.980469 C 24.265625 27.914062 23.425781 28.871094 22.574219 29.558594 C 21.085938 30.761719 19.15625 31.570312 17.246094 31.792969 C 16.761719 31.851562 15.441406 31.871094 14.980469 31.828125 Z M 14.980469 31.828125 "/>
<path style=" stroke:none;fill-rule:nonzero;fill:rgb(100%,100%,100%);fill-opacity:1;" d="M 4.152344 27.910156 C 2.023438 27.554688 0.320312 25.777344 0.0625 23.644531 C 0.0273438 23.355469 0.015625 21.015625 0.0273438 14.75 C 0.046875 5.398438 0.0234375 6.160156 0.289062 5.375 C 0.867188 3.652344 2.394531 2.375 4.226562 2.078125 C 4.574219 2.023438 5.996094 2.015625 15.992188 2.015625 C 28.359375 2.015625 27.734375 2.003906 28.496094 2.246094 C 29.289062 2.492188 29.894531 2.867188 30.523438 3.5 C 31.273438 4.25 31.671875 4.992188 31.882812 6.015625 C 31.964844 6.417969 31.964844 6.566406 31.964844 14.996094 C 31.964844 23.429688 31.964844 23.574219 31.882812 23.976562 C 31.429688 26.183594 29.578125 27.824219 27.375 27.964844 L 27.011719 27.992188 L 27.011719 24.023438 L 27.164062 23.996094 C 27.515625 23.929688 27.875 23.621094 27.960938 23.316406 C 27.984375 23.230469 28 22.5 28 21.570312 L 28.003906 19.96875 L 16 19.980469 L 4.003906 19.992188 L 3.988281 21.539062 C 3.980469 22.632812 3.992188 23.136719 4.027344 23.265625 C 4.125 23.625 4.457031 23.929688 4.816406 23.996094 L 4.972656 24.023438 L 4.972656 27.976562 L 4.734375 27.972656 C 4.601562 27.972656 4.34375 27.941406 4.152344 27.910156 Z M 4.152344 27.910156 "/>
</g>
</svg>
