<?xml version="1.0" encoding="UTF-8"?>
<svg xmlns="http://www.w3.org/2000/svg" xmlns:xlink="http://www.w3.org/1999/xlink" width="32" height="32" viewBox="0 0 32 32" version="1.1">
<g id="surface1">
<path style=" stroke:none;fill-rule:nonzero;fill:rgb(74.509804%,74.509804%,74.509804%);fill-opacity:1;" d="M 7.320312 0 C 4.484375 0 2.132812 2.351562 2.132812 5.1875 L 2.132812 29.9375 L 30.132812 29.9375 L 30.132812 5.1875 C 30.132812 2.351562 27.78125 0 24.945312 0 Z M 7.320312 4 L 24.945312 4 C 25.632812 4 26.132812 4.496094 26.132812 5.1875 L 26.132812 25.9375 L 6.132812 25.9375 L 6.132812 5.1875 C 6.132812 4.496094 6.632812 4 7.320312 4 Z M 7.320312 4 "/>
<path style=" stroke:none;fill-rule:nonzero;fill:rgb(74.509804%,74.509804%,74.509804%);fill-opacity:1;" d="M 10 8.058594 L 10 10.058594 L 22 10.058594 L 22 8.058594 Z M 10 8.058594 "/>
<path style=" stroke:none;fill-rule:nonzero;fill:rgb(74.509804%,74.509804%,74.509804%);fill-opacity:1;" d="M 10 12 L 10 14 L 22 14 L 22 12 Z M 10 12 "/>
<path style=" stroke:none;fill-rule:nonzero;fill:rgb(74.509804%,74.509804%,74.509804%);fill-opacity:1;" d="M 10 16 L 10 18 L 22 18 L 22 16 Z M 10 16 "/>
<path style=" stroke:none;fill-rule:nonzero;fill:rgb(74.509804%,74.509804%,74.509804%);fill-opacity:1;" d="M 10 20 L 10 22 L 22 22 L 22 20 Z M 10 20 "/>
<path style=" stroke:none;fill-rule:nonzero;fill:rgb(100%,100%,100%);fill-opacity:1;" d="M 2.164062 17.292969 C 2.164062 6.082031 2.171875 4.628906 2.226562 4.300781 C 2.34375 3.632812 2.628906 2.921875 3.003906 2.367188 C 3.234375 2.023438 3.320312 1.921875 3.703125 1.527344 C 4.433594 0.789062 5.382812 0.289062 6.460938 0.0859375 C 6.828125 0.0195312 7.390625 0.015625 16.09375 0.015625 C 23.578125 0.015625 25.40625 0.0234375 25.6875 0.0703125 C 26.773438 0.242188 27.726562 0.71875 28.515625 1.484375 C 29.160156 2.105469 29.617188 2.839844 29.875 3.660156 C 30.121094 4.445312 30.105469 3.566406 30.105469 17.3125 L 30.105469 29.917969 L 2.164062 29.917969 Z M 26.144531 15.480469 C 26.144531 6.257812 26.136719 4.976562 26.082031 4.792969 C 25.992188 4.496094 25.710938 4.191406 25.417969 4.082031 L 25.191406 3.996094 L 16.0625 4.007812 C 7.253906 4.019531 6.925781 4.019531 6.789062 4.09375 C 6.542969 4.226562 6.296875 4.492188 6.210938 4.730469 C 6.128906 4.945312 6.128906 5.066406 6.128906 15.453125 L 6.128906 25.953125 L 26.144531 25.953125 Z M 26.144531 15.480469 "/>
<path style=" stroke:none;fill-rule:nonzero;fill:rgb(100%,100%,100%);fill-opacity:1;" d="M 10.007812 9.074219 L 10.007812 8.082031 L 21.976562 8.082031 L 21.976562 10.0625 L 10.007812 10.0625 Z M 10.007812 9.074219 "/>
<path style=" stroke:none;fill-rule:nonzero;fill:rgb(100%,100%,100%);fill-opacity:1;" d="M 10.007812 12.996094 L 10.007812 12.003906 L 21.976562 12.003906 L 21.976562 13.984375 L 10.007812 13.984375 Z M 10.007812 12.996094 "/>
<path style=" stroke:none;fill-rule:nonzero;fill:rgb(100%,100%,100%);fill-opacity:1;" d="M 10.007812 17 L 10.007812 16.007812 L 21.976562 16.007812 L 21.976562 17.988281 L 10.007812 17.988281 Z M 10.007812 17 "/>
<path style=" stroke:none;fill-rule:nonzero;fill:rgb(100%,100%,100%);fill-opacity:1;" d="M 10.007812 21.003906 L 10.007812 20.011719 L 21.976562 20.011719 L 21.976562 21.992188 L 10.007812 21.992188 Z M 10.007812 21.003906 "/>
</g>
</svg>
