<?xml version="1.0" encoding="UTF-8"?>
<svg xmlns="http://www.w3.org/2000/svg" xmlns:xlink="http://www.w3.org/1999/xlink" width="32" height="32" viewBox="0 0 32 32" version="1.1">
<g id="surface1">
<path style=" stroke:none;fill-rule:nonzero;fill:rgb(74.509804%,74.509804%,74.509804%);fill-opacity:1;" d="M 7.976562 18.226562 C 9.867188 17.671875 11.882812 18.820312 12.480469 20.789062 L 13.832031 25.242188 C 14.425781 27.210938 13.378906 29.253906 11.488281 29.808594 C 9.59375 30.359375 7.578125 29.214844 6.980469 27.242188 L 5.632812 22.792969 C 5.035156 20.824219 6.085938 18.777344 7.976562 18.226562 Z M 7.976562 18.226562 "/>
<path style=" stroke:none;fill-rule:nonzero;fill:rgb(74.509804%,74.509804%,74.509804%);fill-opacity:1;" d="M 15.941406 2 C 9.328125 2 3.890625 8.015625 4.003906 13.4375 C 4.101562 18.167969 5.621094 22.828125 6.003906 24 L 9.054688 24 C 6.730469 19.417969 6.957031 13.6875 6.957031 13.6875 C 6.957031 8.941406 10.96875 5.0625 15.941406 5.0625 C 20.910156 5.0625 24.9375 8.71875 24.921875 13.625 C 24.875 16.972656 24.582031 18.941406 22.914062 24 L 26.054688 24 C 26.503906 22.710938 28.003906 17.617188 28.003906 13.4375 C 28.003906 7.777344 22.550781 2 15.941406 2 Z M 15.941406 2 "/>
<path style=" stroke:none;fill-rule:nonzero;fill:rgb(74.509804%,74.509804%,74.509804%);fill-opacity:1;" d="M 24.027344 18.277344 C 22.132812 17.722656 20.117188 18.871094 19.519531 20.839844 L 18.171875 25.292969 C 17.574219 27.261719 18.621094 29.304688 20.511719 29.859375 C 22.40625 30.410156 24.421875 29.265625 25.019531 27.292969 L 26.371094 22.84375 C 26.964844 20.875 25.917969 18.828125 24.027344 18.277344 Z M 24.027344 18.277344 "/>
<path style=" stroke:none;fill-rule:nonzero;fill:rgb(100%,100%,100%);fill-opacity:1;" d="M 21.066406 29.957031 C 19.359375 29.730469 18.128906 28.367188 18.027344 26.59375 C 18.011719 26.316406 18.023438 26.070312 18.066406 25.832031 C 18.15625 25.320312 19.558594 20.71875 19.75 20.308594 C 19.964844 19.847656 20.210938 19.511719 20.605469 19.140625 C 21.59375 18.214844 22.960938 17.917969 24.222656 18.359375 C 24.355469 18.40625 24.472656 18.4375 24.480469 18.429688 C 24.511719 18.398438 24.695312 17.253906 24.757812 16.710938 C 24.933594 15.160156 24.976562 13.152344 24.851562 12.355469 C 24.289062 8.820312 21.75 6.15625 18.132812 5.300781 C 16.710938 4.964844 14.976562 4.988281 13.574219 5.355469 C 9.992188 6.300781 7.355469 9.292969 6.992188 12.824219 C 6.929688 13.429688 6.964844 15.679688 7.050781 16.503906 C 7.140625 17.339844 7.289062 18.417969 7.320312 18.453125 C 7.335938 18.46875 7.476562 18.429688 7.636719 18.363281 C 8.320312 18.074219 9.261719 18.03125 9.964844 18.257812 C 11.054688 18.601562 11.914062 19.402344 12.34375 20.464844 C 12.496094 20.835938 13.882812 25.449219 13.925781 25.722656 C 13.988281 26.089844 13.976562 26.773438 13.910156 27.097656 C 13.632812 28.398438 12.785156 29.363281 11.574219 29.757812 C 11.070312 29.921875 10.335938 29.964844 9.828125 29.859375 C 8.710938 29.628906 7.714844 28.84375 7.21875 27.804688 C 7.140625 27.632812 6.859375 26.792969 6.601562 25.941406 C 6.34375 25.085938 6.027344 24.058594 5.898438 23.65625 C 4.769531 20.070312 4.117188 16.601562 4.035156 13.757812 C 4.007812 12.832031 4.050781 12.285156 4.1875 11.585938 C 4.890625 8.117188 7.527344 4.855469 10.976562 3.1875 C 12.734375 2.34375 14.46875 1.964844 16.320312 2.03125 C 18.851562 2.117188 21.195312 2.992188 23.34375 4.644531 C 23.902344 5.078125 25.011719 6.171875 25.457031 6.730469 C 27.207031 8.929688 28.09375 11.46875 27.984375 13.945312 C 27.878906 16.191406 27.546875 18.378906 26.90625 20.964844 C 26.597656 22.222656 26.191406 23.613281 26.039062 23.953125 C 26.007812 24.023438 25.738281 24.875 25.441406 25.851562 C 24.871094 27.734375 24.746094 28.039062 24.355469 28.546875 C 23.71875 29.375 22.726562 29.90625 21.6875 29.96875 C 21.496094 29.980469 21.214844 29.976562 21.066406 29.957031 Z M 21.066406 29.957031 "/>
</g>
</svg>
