<?xml version="1.0" encoding="UTF-8"?>
<svg xmlns="http://www.w3.org/2000/svg" xmlns:xlink="http://www.w3.org/1999/xlink" width="32" height="32" viewBox="0 0 32 32" version="1.1">
<g id="surface1">
<path style=" stroke:none;fill-rule:nonzero;fill:rgb(74.509804%,74.509804%,74.509804%);fill-opacity:1;" d="M 7 0 C 7 0 4 0 4 3 L 4 21 C 4 24 7 24 7 24 L 10 24 L 10 28 C 10 29.109375 10.890625 30 12 30 L 20 30 C 21.109375 30 22 29.109375 22 28 L 22 24 L 25 24 C 28 24 28 21 28 21 L 28 3 C 28 0 25 0 25 0 Z M 8 4 L 12 4 L 12 8 L 8 8 Z M 14 4 L 18 4 L 18 8 L 14 8 Z M 20 4 L 24 4 L 24 8 L 20 8 Z M 8 10 L 12 10 L 12 14 L 8 14 Z M 14 10 L 18 10 L 18 14 L 14 14 Z M 20 10 L 24 10 L 24 14 L 20 14 Z M 8 16 L 12 16 L 12 20 L 8 20 Z M 14 16 L 18 16 L 18 20 L 14 20 Z M 20 16 L 24 16 L 24 20 L 20 20 Z M 14 22 L 18 22 L 18 26 L 14 26 Z M 14 22 "/>
<path style=" stroke:none;fill-rule:nonzero;fill:rgb(100%,100%,100%);fill-opacity:1;" d="M 11.65625 29.953125 C 11.371094 29.90625 10.90625 29.683594 10.679688 29.492188 C 10.46875 29.304688 10.257812 28.984375 10.125 28.660156 L 10.027344 28.410156 L 10.003906 23.972656 L 8.359375 23.972656 C 7.007812 23.972656 6.65625 23.960938 6.390625 23.90625 C 5.082031 23.636719 4.25 22.8125 4.066406 21.597656 C 4.035156 21.398438 4.023438 18.410156 4.03125 11.820312 C 4.042969 2.816406 4.046875 2.3125 4.117188 2.078125 C 4.261719 1.605469 4.476562 1.230469 4.785156 0.921875 C 5.300781 0.410156 5.953125 0.121094 6.8125 0.0351562 C 7.128906 0.00390625 9.925781 -0.0078125 16.320312 0.00390625 L 25.382812 0.015625 L 25.78125 0.125 C 26.394531 0.292969 26.804688 0.523438 27.199219 0.917969 C 27.574219 1.296875 27.742188 1.59375 27.890625 2.148438 L 27.980469 2.492188 L 27.980469 21.351562 L 27.886719 21.722656 C 27.613281 22.808594 26.992188 23.519531 26.042969 23.839844 L 25.710938 23.953125 L 21.976562 23.976562 L 21.976562 26.136719 C 21.976562 28 21.96875 28.324219 21.910156 28.515625 C 21.714844 29.179688 21.28125 29.636719 20.632812 29.886719 L 20.386719 29.976562 L 16.136719 29.984375 C 13.707031 29.988281 11.789062 29.976562 11.65625 29.953125 Z M 18.015625 23.996094 L 18.015625 21.992188 L 13.96875 21.992188 L 13.96875 25.996094 L 18.015625 25.996094 Z M 12.019531 18 L 12.007812 15.988281 L 8.003906 15.988281 L 7.996094 18 L 7.984375 20.011719 L 12.03125 20.011719 Z M 18.003906 18 L 17.992188 15.988281 L 13.988281 15.988281 L 13.980469 18 L 13.96875 20.011719 L 18.015625 20.011719 Z M 24 17.988281 L 24 15.96875 L 19.996094 15.96875 L 19.996094 20.011719 L 24 20.011719 Z M 12.019531 11.992188 L 12.03125 9.980469 L 7.984375 9.980469 L 7.984375 14.027344 L 9.996094 14.015625 L 12.007812 14.007812 Z M 18.015625 12.003906 L 18.015625 9.980469 L 16 9.992188 L 13.988281 10.003906 L 13.980469 11.960938 C 13.972656 13.042969 13.976562 13.945312 13.988281 13.976562 C 14.003906 14.015625 14.445312 14.027344 16.011719 14.027344 L 18.015625 14.027344 Z M 24 12.003906 L 24 9.980469 L 19.996094 9.980469 L 19.996094 14.027344 L 24 14.027344 Z M 12.03125 6 L 12.03125 3.996094 L 7.984375 3.996094 L 7.984375 8 L 12.03125 8 Z M 18.015625 6 L 18.015625 3.996094 L 13.96875 3.996094 L 13.96875 8 L 18.015625 8 Z M 24 6 L 24 3.996094 L 19.996094 3.996094 L 19.996094 8 L 24 8 Z M 24 6 "/>
</g>
</svg>
