<?xml version="1.0" encoding="UTF-8"?>
<svg xmlns="http://www.w3.org/2000/svg" xmlns:xlink="http://www.w3.org/1999/xlink" width="32" height="32" viewBox="0 0 32 32" version="1.1">
<g id="surface1">
<path style=" stroke:none;fill-rule:nonzero;fill:rgb(74.509804%,74.509804%,74.509804%);fill-opacity:1;" d="M 2 4 C 0.890625 4 0 4.890625 0 6 L 0 26 C 0 27.109375 0.890625 28 2 28 L 30 28 C 31.109375 28 32 27.109375 32 26 L 32 6 C 32 4.890625 31.109375 4 30 4 Z M 4 8 L 8 8 L 8 12 L 4 12 Z M 10 8 L 14 8 L 14 12 L 10 12 Z M 16 8 L 20 8 L 20 12 L 16 12 Z M 22 8 L 26 8 L 26 12 L 22 12 Z M 6 14 L 10 14 L 10 18 L 6 18 Z M 12 14 L 16 14 L 16 18 L 12 18 Z M 18 14 L 22 14 L 22 18 L 18 18 Z M 24 14 L 28 14 L 28 18 L 24 18 Z M 4 20 L 8 20 L 8 24 L 4 24 Z M 10 20 L 22 20 L 22 24 L 10 24 Z M 24 20 L 30 20 L 30 24 L 24 24 Z M 24 20 "/>
<path style=" stroke:none;fill-rule:nonzero;fill:rgb(100%,100%,100%);fill-opacity:1;" d="M 1.464844 27.910156 C 0.789062 27.730469 0.207031 27.113281 0.0625 26.417969 C 0.03125 26.261719 0.0195312 23.257812 0.0195312 15.972656 C 0.0195312 4.777344 0.00390625 5.523438 0.257812 5.058594 C 0.5 4.613281 0.875 4.296875 1.386719 4.113281 L 1.648438 4.019531 L 15.765625 4.007812 C 24.824219 4 30 4.007812 30.21875 4.035156 C 30.679688 4.089844 31.03125 4.257812 31.363281 4.574219 C 31.648438 4.847656 31.796875 5.09375 31.898438 5.445312 C 31.960938 5.652344 31.964844 6.652344 31.953125 16.089844 L 31.945312 26.511719 L 31.789062 26.835938 C 31.527344 27.386719 31.070312 27.765625 30.492188 27.914062 C 30.136719 28.007812 1.808594 28.003906 1.464844 27.910156 Z M 8.015625 22.003906 L 8.003906 19.992188 L 4.003906 19.992188 L 3.980469 24.015625 L 8.027344 24.015625 Z M 22.015625 21.992188 L 22.015625 19.96875 L 9.984375 19.992188 L 9.976562 21.953125 C 9.96875 23.03125 9.972656 23.933594 9.984375 23.964844 C 10 24.003906 11.242188 24.015625 16.011719 24.015625 L 22.015625 24.015625 Z M 30.015625 22.003906 L 30.003906 19.992188 L 27 19.980469 L 24 19.96875 L 24 24.015625 L 30.023438 24.015625 Z M 10.007812 16.007812 L 10.007812 13.984375 L 6.003906 13.984375 L 6.003906 18.03125 L 10.007812 18.03125 Z M 16.011719 16.007812 L 16.011719 14.007812 L 11.988281 13.984375 L 11.988281 18.03125 L 16.011719 18.007812 Z M 22.015625 16.007812 L 22.015625 13.984375 L 17.972656 13.984375 L 17.972656 15.980469 C 17.972656 17.078125 17.984375 17.988281 18 18.003906 C 18.015625 18.019531 18.925781 18.03125 20.023438 18.03125 L 22.015625 18.03125 Z M 28.003906 16.007812 L 28.003906 13.984375 L 24 13.984375 L 24 18.03125 L 28.003906 18.03125 Z M 8.023438 10.003906 L 8.023438 8 L 3.980469 8 L 3.980469 12.003906 L 8.023438 12.003906 Z M 14.011719 10.003906 L 14.011719 8 L 9.964844 8 L 9.964844 9.976562 C 9.964844 11.0625 9.976562 11.960938 9.992188 11.976562 C 10.007812 11.992188 10.917969 12.003906 12.015625 12.003906 L 14.011719 12.003906 Z M 19.996094 10.003906 L 19.996094 8 L 15.992188 8 L 15.992188 12.003906 L 19.996094 12.003906 Z M 26.023438 10.003906 L 26.023438 8 L 21.976562 8 L 21.976562 12.003906 L 26.023438 12.003906 Z M 26.023438 10.003906 "/>
</g>
</svg>
