<?xml version="1.0" encoding="UTF-8"?>
<svg xmlns="http://www.w3.org/2000/svg" xmlns:xlink="http://www.w3.org/1999/xlink" width="32" height="32" viewBox="0 0 32 32" version="1.1">
<g id="surface1">
<path style=" stroke:none;fill-rule:nonzero;fill:rgb(74.509804%,74.509804%,74.509804%);fill-opacity:1;" d="M 15.53125 0 L 13.644531 0.0546875 L 13.703125 1.054688 C 13.789062 1.984375 13.320312 2.992188 12.585938 3.492188 C 11.917969 3.992188 10.878906 3.890625 9.582031 3.929688 C 8.929688 3.9375 8.261719 4.097656 7.644531 4.492188 C 7.027344 4.886719 6.421875 5.585938 6.289062 6.492188 C 5.992188 8.277344 7.144531 9.757812 8.46875 10.054688 C 9.984375 10.40625 11.5625 10.207031 13.40625 10.054688 C 13.890625 10.015625 14.539062 10.09375 14.9375 10.304688 C 15.566406 10.824219 15.472656 11.109375 15.46875 12.054688 L 4.820312 12.054688 L 4.410156 13.492188 L 0.703125 27.492188 L -0.00390625 30.054688 L 31.113281 30.054688 L 30.40625 27.492188 L 26.820312 13.867188 L 24.054688 18.304688 L 26.171875 26.054688 L 4.9375 26.054688 L 7.644531 16.054688 L 13.761719 16.054688 C 13.78125 16.035156 13.800781 16.011719 13.820312 15.992188 L 16.347656 14.242188 L 17.347656 12.117188 L 17.347656 11.117188 C 17.34375 9.894531 16.585938 8.925781 15.761719 8.492188 C 14.9375 8.0625 14.011719 7.992188 13.230469 8.054688 C 11.355469 8.207031 9.957031 8.304688 8.878906 8.054688 L 8.820312 8.054688 C 8.445312 7.972656 8.035156 7.636719 8.171875 6.804688 C 8.207031 6.558594 8.320312 6.414062 8.585938 6.242188 C 8.851562 6.074219 9.25 5.933594 9.585938 5.929688 L 9.644531 5.929688 C 10.703125 5.898438 12.234375 6.164062 13.585938 5.117188 C 15.125 3.921875 15.757812 2.328125 15.585938 0.867188 Z M 15.53125 0 "/>
<path style=" stroke:none;fill-rule:nonzero;fill:rgb(74.509804%,74.509804%,74.509804%);fill-opacity:1;" d="M 25.183594 4.140625 C 25.183594 4.140625 20.445312 11.152344 17.582031 16.078125 L 14.933594 18.414062 L 15.003906 21.558594 L 13.566406 24.050781 L 14.875 24.046875 L 16.269531 22.882812 L 19.421875 21.957031 L 20.542969 18.996094 L 28.421875 6.265625 Z M 25.183594 4.140625 "/>
<path style=" stroke:none;fill-rule:nonzero;fill:rgb(74.509804%,74.509804%,74.509804%);fill-opacity:1;" d="M 28.183594 4.878906 C 28.1875 5.34375 27.957031 5.777344 27.574219 6.011719 C 27.195312 6.246094 26.726562 6.246094 26.347656 6.011719 C 25.96875 5.777344 25.734375 5.34375 25.738281 4.878906 C 25.734375 4.410156 25.96875 3.976562 26.347656 3.742188 C 26.726562 3.507812 27.195312 3.507812 27.574219 3.742188 C 27.957031 3.976562 28.1875 4.410156 28.183594 4.878906 Z M 28.183594 4.878906 "/>
<path style=" stroke:none;fill-rule:nonzero;fill:rgb(100%,100%,100%);fill-opacity:1;" d="M 0.0234375 29.984375 C 0.101562 29.769531 1.007812 26.390625 2.609375 20.339844 C 3.636719 16.472656 4.550781 13.035156 4.648438 12.707031 L 4.820312 12.105469 L 10.144531 12.097656 L 15.472656 12.085938 L 15.472656 11.5625 C 15.472656 11.09375 15.460938 11.011719 15.382812 10.828125 C 15.25 10.527344 14.992188 10.292969 14.675781 10.191406 C 14.15625 10.019531 13.808594 10.003906 12.675781 10.101562 C 10.105469 10.328125 8.660156 10.234375 7.832031 9.792969 C 6.890625 9.289062 6.265625 8.207031 6.265625 7.078125 C 6.265625 5.890625 6.816406 4.960938 7.859375 4.394531 C 8.523438 4.03125 8.847656 3.96875 10.441406 3.914062 C 11.730469 3.875 11.996094 3.832031 12.40625 3.617188 C 12.789062 3.414062 13.238281 2.917969 13.441406 2.46875 C 13.695312 1.921875 13.742188 1.585938 13.699219 0.773438 C 13.675781 0.402344 13.664062 0.0898438 13.671875 0.0820312 C 13.675781 0.0742188 14.089844 0.0585938 14.589844 0.046875 L 15.5 0.0234375 L 15.523438 0.183594 C 15.539062 0.273438 15.558594 0.652344 15.574219 1.023438 C 15.59375 1.613281 15.585938 1.761719 15.519531 2.101562 C 15.335938 3.035156 14.882812 3.855469 14.140625 4.601562 C 13.609375 5.136719 13.117188 5.464844 12.539062 5.664062 C 11.960938 5.863281 11.621094 5.90625 10.421875 5.914062 C 9.335938 5.925781 9.308594 5.925781 9.011719 6.035156 C 8.476562 6.226562 8.234375 6.445312 8.167969 6.800781 C 8.109375 7.085938 8.140625 7.40625 8.238281 7.613281 C 8.378906 7.90625 8.5625 8.015625 9.074219 8.117188 C 9.589844 8.214844 11.558594 8.210938 12.792969 8.109375 C 13.804688 8.023438 14.21875 8.039062 14.8125 8.171875 C 16.035156 8.449219 16.867188 9.1875 17.210938 10.292969 C 17.300781 10.585938 17.3125 10.703125 17.328125 11.367188 L 17.34375 12.109375 L 16.347656 14.230469 L 15.03125 15.140625 L 13.71875 16.050781 L 10.675781 16.050781 C 7.808594 16.050781 7.628906 16.054688 7.613281 16.121094 C 7.453125 16.683594 4.972656 25.878906 4.957031 25.960938 L 4.9375 26.078125 L 26.199219 26.078125 L 26.171875 25.984375 C 26.15625 25.933594 25.675781 24.1875 25.105469 22.097656 L 24.070312 18.304688 L 25.429688 16.125 C 26.179688 14.921875 26.800781 13.953125 26.816406 13.972656 C 26.832031 13.992188 27.625 16.976562 28.582031 20.609375 C 30.011719 26.042969 30.527344 27.992188 31.074219 29.96875 C 31.09375 30.039062 30.335938 30.042969 15.546875 30.042969 C 2.476562 30.042969 0.0078125 30.03125 0.0234375 29.984375 Z M 0.0234375 29.984375 "/>
<path style=" stroke:none;fill-rule:nonzero;fill:rgb(100%,100%,100%);fill-opacity:1;" d="M 13.609375 24.03125 C 13.609375 24.015625 13.925781 23.460938 14.3125 22.789062 L 15.011719 21.574219 L 14.957031 18.410156 L 16.253906 17.269531 C 17.132812 16.496094 17.589844 16.066406 17.671875 15.933594 C 17.742188 15.828125 18.046875 15.320312 18.347656 14.8125 C 19.71875 12.515625 22.25 8.554688 24.53125 5.140625 C 24.964844 4.496094 25.203125 4.171875 25.234375 4.191406 C 25.261719 4.207031 25.390625 4.292969 25.527344 4.382812 C 25.660156 4.472656 25.773438 4.539062 25.78125 4.527344 C 25.785156 4.519531 25.824219 4.433594 25.867188 4.332031 C 25.960938 4.097656 26.207031 3.832031 26.449219 3.707031 C 26.605469 3.625 26.699219 3.605469 26.972656 3.605469 C 27.253906 3.605469 27.332031 3.625 27.5 3.714844 C 27.914062 3.949219 28.148438 4.359375 28.152344 4.863281 C 28.15625 5.210938 28.109375 5.367188 27.914062 5.664062 C 27.839844 5.773438 27.789062 5.867188 27.792969 5.871094 C 27.800781 5.878906 27.941406 5.96875 28.105469 6.078125 L 28.40625 6.273438 L 28.257812 6.507812 C 28.175781 6.636719 26.40625 9.492188 24.328125 12.851562 L 20.546875 18.960938 L 19.984375 20.445312 C 19.675781 21.261719 19.417969 21.933594 19.417969 21.9375 C 19.414062 21.945312 18.703125 22.15625 17.839844 22.410156 L 16.265625 22.871094 L 14.910156 24.003906 L 14.257812 24.03125 C 13.902344 24.046875 13.609375 24.046875 13.609375 24.03125 Z M 13.609375 24.03125 "/>
</g>
</svg>
