<?xml version="1.0" encoding="UTF-8"?>
<svg xmlns="http://www.w3.org/2000/svg" xmlns:xlink="http://www.w3.org/1999/xlink" width="32" height="32" viewBox="0 0 32 32" version="1.1">
<g id="surface1">
<path style=" stroke:none;fill-rule:nonzero;fill:rgb(74.509804%,74.509804%,74.509804%);fill-opacity:1;" d="M 9.359375 8 C 7.496094 7.996094 5.988281 9.53125 5.980469 11.453125 C 6.015625 12.941406 6.023438 14.46875 6.011719 15.992188 L 11.851562 16.023438 L 11.890625 8.011719 Z M 14.175781 8.023438 L 14.136719 16.03125 L 19.980469 16.0625 C 20.007812 14.53125 20.039062 12.996094 20.054688 11.523438 C 20.058594 9.601562 18.570312 8.046875 16.707031 8.035156 Z M 6.003906 18.183594 C 5.980469 19.847656 5.929688 21.1875 5.925781 22.714844 C 5.910156 26.738281 9.03125 29.992188 12.929688 30.011719 C 16.824219 30.03125 19.980469 26.808594 20 22.789062 C 19.929688 21.117188 19.90625 19.773438 19.925781 18.183594 Z M 6.003906 18.183594 "/>
<path style=" stroke:none;fill-rule:nonzero;fill:rgb(74.509804%,74.509804%,74.509804%);fill-opacity:1;" d="M 16.121094 0.0195312 C 15.210938 0.117188 14.351562 0.464844 13.621094 1.019531 C 12.644531 1.761719 11.996094 2.929688 11.996094 4.394531 C 11.988281 4.921875 12.46875 5.410156 12.996094 5.410156 C 13.523438 5.410156 14.003906 4.921875 13.996094 4.394531 C 13.996094 3.496094 14.335938 2.988281 14.871094 2.582031 C 15.402344 2.179688 16.195312 1.984375 16.996094 2.019531 C 17.792969 2.058594 18.5625 2.328125 19.121094 2.832031 C 19.675781 3.335938 20.058594 4.003906 20.058594 5.082031 C 20.058594 9.414062 22.984375 12.101562 26.058594 12.019531 C 27.769531 11.976562 29.433594 11.066406 30.558594 9.394531 L 29.433594 7.394531 C 28.679688 9.226562 27.296875 9.984375 25.996094 10.019531 C 24.074219 10.070312 22.058594 8.5625 22.058594 5.082031 C 22.058594 3.5 21.382812 2.195312 20.433594 1.332031 C 19.480469 0.472656 18.269531 0.078125 17.058594 0.0195312 C 16.753906 0.0078125 16.421875 -0.0117188 16.121094 0.0195312 Z M 29.996094 3.957031 C 29.992188 3.976562 29.992188 4 29.996094 4.019531 C 29.996094 4.109375 29.996094 4.183594 29.996094 4.269531 L 31.558594 7.019531 C 31.578125 6.9375 31.597656 6.851562 31.621094 6.769531 Z M 29.996094 4.707031 C 29.984375 4.917969 29.953125 5.132812 29.933594 5.332031 L 31.371094 7.769531 C 31.417969 7.644531 31.453125 7.527344 31.496094 7.394531 Z M 29.871094 5.707031 C 29.84375 5.886719 29.78125 6.039062 29.746094 6.207031 L 31.058594 8.457031 C 31.117188 8.335938 31.191406 8.210938 31.246094 8.082031 Z M 29.683594 6.582031 C 29.632812 6.757812 29.550781 6.921875 29.496094 7.082031 L 30.683594 9.144531 C 30.761719 9.015625 30.859375 8.90625 30.933594 8.769531 Z M 29.683594 6.582031 "/>
<path style=" stroke:none;fill-rule:nonzero;fill:rgb(100%,100%,100%);fill-opacity:1;" d="M 25.269531 11.964844 C 23.121094 11.6875 21.261719 10.054688 20.5 7.769531 C 20.238281 6.992188 20.128906 6.332031 20.078125 5.28125 C 20.023438 4.109375 19.855469 3.609375 19.328125 3.03125 C 18.722656 2.371094 17.851562 2.015625 16.824219 2.015625 C 15.875 2.015625 15.1875 2.257812 14.640625 2.773438 C 14.214844 3.175781 14.035156 3.585938 13.984375 4.257812 C 13.949219 4.691406 13.898438 4.84375 13.714844 5.054688 C 13.324219 5.5 12.667969 5.496094 12.277344 5.046875 C 12.070312 4.816406 12.027344 4.667969 12.027344 4.238281 C 12.027344 3.566406 12.246094 2.777344 12.59375 2.1875 C 13.210938 1.136719 14.507812 0.292969 15.839844 0.078125 C 16.511719 -0.03125 17.726562 0.0546875 18.460938 0.265625 C 18.917969 0.398438 19.730469 0.796875 20.082031 1.0625 C 20.714844 1.542969 21.304688 2.296875 21.617188 3.019531 C 21.886719 3.640625 21.980469 4.085938 22.027344 4.949219 C 22.097656 6.304688 22.21875 6.957031 22.535156 7.6875 C 22.929688 8.605469 23.53125 9.257812 24.355469 9.65625 C 24.957031 9.953125 25.195312 10.003906 25.882812 10.007812 C 26.550781 10.007812 26.839844 9.945312 27.382812 9.695312 C 28.183594 9.324219 28.808594 8.683594 29.269531 7.773438 L 29.4375 7.433594 L 29.953125 8.34375 C 30.234375 8.84375 30.484375 9.289062 30.503906 9.332031 C 30.53125 9.390625 30.488281 9.476562 30.296875 9.726562 C 29.042969 11.363281 27.152344 12.207031 25.269531 11.964844 Z M 25.269531 11.964844 "/>
<path style=" stroke:none;fill-rule:nonzero;fill:rgb(100%,100%,100%);fill-opacity:1;" d="M 7.894531 15.984375 L 6.054688 15.976562 L 6.027344 13.570312 C 5.996094 10.988281 6.003906 10.863281 6.203125 10.289062 C 6.566406 9.230469 7.480469 8.382812 8.566406 8.101562 C 8.859375 8.027344 10.898438 7.972656 11.515625 8.023438 L 11.863281 8.054688 L 11.859375 11.632812 C 11.859375 13.601562 11.847656 15.394531 11.835938 15.613281 L 11.808594 16.015625 L 10.769531 16.007812 C 10.199219 16 8.90625 15.992188 7.894531 15.984375 Z M 7.894531 15.984375 "/>
<path style=" stroke:none;fill-rule:nonzero;fill:rgb(100%,100%,100%);fill-opacity:1;" d="M 12.441406 29.972656 C 11.160156 29.878906 9.917969 29.414062 8.839844 28.625 C 8.695312 28.523438 8.394531 28.257812 8.171875 28.039062 C 7.089844 26.984375 6.414062 25.753906 6.097656 24.257812 C 5.960938 23.609375 5.9375 22.851562 5.976562 20.214844 L 6.007812 18.207031 L 19.914062 18.207031 L 19.917969 19.640625 C 19.917969 20.429688 19.933594 21.484375 19.953125 21.984375 C 19.976562 22.527344 19.976562 23.082031 19.953125 23.359375 C 19.695312 26.539062 17.46875 29.160156 14.464844 29.824219 C 14.03125 29.921875 13.796875 29.949219 13.101562 29.992188 C 12.976562 30 12.679688 29.992188 12.441406 29.972656 Z M 12.441406 29.972656 "/>
<path style=" stroke:none;fill-rule:nonzero;fill:rgb(100%,100%,100%);fill-opacity:1;" d="M 16.121094 16.027344 L 14.121094 16.015625 L 14.148438 15.578125 C 14.160156 15.335938 14.175781 13.539062 14.175781 11.589844 L 14.175781 8.039062 L 15.710938 8.054688 C 17.15625 8.074219 17.269531 8.078125 17.558594 8.164062 C 18.589844 8.472656 19.402344 9.226562 19.804688 10.238281 C 20.027344 10.796875 20.046875 11.070312 20.019531 13.042969 C 20.007812 14.03125 19.984375 15.113281 19.972656 15.449219 L 19.945312 16.058594 L 19.03125 16.046875 C 18.53125 16.042969 17.21875 16.035156 16.121094 16.027344 Z M 16.121094 16.027344 "/>
<path style=" stroke:none;fill-rule:nonzero;fill:rgb(100%,100%,100%);fill-opacity:1;" d="M 30.089844 8.097656 L 29.507812 7.082031 L 29.59375 6.863281 C 29.667969 6.675781 29.6875 6.652344 29.730469 6.707031 C 29.757812 6.742188 30.03125 7.21875 30.339844 7.761719 C 30.710938 8.410156 30.898438 8.773438 30.878906 8.820312 C 30.867188 8.859375 30.816406 8.941406 30.765625 9.003906 L 30.671875 9.109375 Z M 30.089844 8.097656 "/>
<path style=" stroke:none;fill-rule:nonzero;fill:rgb(100%,100%,100%);fill-opacity:1;" d="M 30.402344 7.308594 L 29.757812 6.199219 L 29.824219 5.980469 L 29.886719 5.765625 L 30.558594 6.925781 L 31.230469 8.089844 L 31.148438 8.253906 C 31.101562 8.34375 31.058594 8.417969 31.054688 8.417969 C 31.046875 8.417969 30.753906 7.917969 30.402344 7.308594 Z M 30.402344 7.308594 "/>
<path style=" stroke:none;fill-rule:nonzero;fill:rgb(100%,100%,100%);fill-opacity:1;" d="M 30.777344 5.621094 C 30.355469 4.878906 30.007812 4.214844 30 4.148438 C 29.992188 4.066406 30 4.035156 30.023438 4.0625 C 30.046875 4.085938 30.414062 4.703125 30.835938 5.4375 C 31.480469 6.550781 31.601562 6.789062 31.574219 6.871094 C 31.542969 6.953125 31.433594 6.78125 30.777344 5.621094 Z M 30.777344 5.621094 "/>
<path style=" stroke:none;fill-rule:nonzero;fill:rgb(100%,100%,100%);fill-opacity:1;" d="M 30.878906 6.910156 C 30.613281 6.457031 30.292969 5.914062 30.167969 5.707031 L 29.945312 5.328125 L 29.976562 5.046875 L 30.011719 4.765625 L 31.480469 7.398438 L 31.425781 7.566406 L 31.367188 7.734375 Z M 30.878906 6.910156 "/>
</g>
</svg>
