<?xml version="1.0" encoding="UTF-8"?>
<svg xmlns="http://www.w3.org/2000/svg" xmlns:xlink="http://www.w3.org/1999/xlink" width="32" height="32" viewBox="0 0 32 32" version="1.1">
<g id="surface1">
<path style=" stroke:none;fill-rule:nonzero;fill:rgb(74.509804%,74.509804%,74.509804%);fill-opacity:1;" d="M 6.378906 0 C 3.976562 0 2.003906 1.976562 2.003906 4.375 L 2.003906 27.625 C 2.003906 30.023438 3.976562 32 6.378906 32 L 25.628906 32 C 28.03125 32 30.003906 30.023438 30.003906 27.625 L 30.003906 4.375 C 30.003906 1.976562 28.03125 0 25.628906 0 Z M 6.378906 4 L 25.628906 4 C 25.878906 4 26.003906 4.113281 26.003906 4.375 L 26.003906 27.625 C 26.003906 27.886719 25.878906 28 25.628906 28 L 6.378906 28 C 6.132812 28 6.003906 27.886719 6.003906 27.625 L 6.003906 4.375 C 6.003906 4.113281 6.132812 4 6.378906 4 Z M 6.378906 4 "/>
<path style=" stroke:none;fill-rule:nonzero;fill:rgb(74.509804%,74.509804%,74.509804%);fill-opacity:1;" d="M 15.679688 6 C 15.148438 6.023438 14.589844 6.117188 14.054688 6.25 C 9.765625 7.3125 7.179688 11.648438 8.242188 15.9375 C 9.140625 19.570312 12.394531 21.980469 15.972656 21.988281 C 16.308594 21.988281 16.648438 21.96875 16.988281 21.925781 L 16.210938 15.964844 C 16.140625 15.984375 16.070312 16 15.992188 16 C 14.886719 16 13.992188 15.105469 13.992188 14 C 13.992188 12.894531 14.886719 12 15.992188 12 C 17.097656 12 17.992188 12.894531 17.992188 14 C 17.992188 14.234375 17.933594 14.449219 17.847656 14.648438 L 23.25 17.421875 C 24.019531 15.761719 24.1875 13.863281 23.742188 12.0625 C 22.8125 8.308594 19.398438 5.847656 15.679688 6 Z M 15.679688 6 "/>
<path style=" stroke:none;fill-rule:nonzero;fill:rgb(74.509804%,74.509804%,74.509804%);fill-opacity:1;" d="M 17.320312 16 L 20 24 C 21.46875 28.113281 26 24.769531 22.992188 22 Z M 17.320312 16 "/>
<path style=" stroke:none;fill-rule:nonzero;fill:rgb(100%,100%,100%);fill-opacity:1;" d="M 15.433594 21.945312 C 13.871094 21.851562 12.261719 21.226562 11.023438 20.234375 C 7.289062 17.242188 6.996094 11.699219 10.390625 8.324219 C 11.867188 6.859375 13.917969 6.023438 16.03125 6.023438 C 19.328125 6.023438 22.285156 8.070312 23.441406 11.15625 C 24.140625 13.023438 24.132812 15.15625 23.417969 16.984375 L 23.25 17.414062 L 22.621094 17.089844 C 22.277344 16.910156 21.078125 16.292969 19.953125 15.71875 C 18.828125 15.144531 17.902344 14.667969 17.898438 14.664062 C 17.886719 14.65625 17.914062 14.523438 17.953125 14.371094 C 18.167969 13.515625 17.6875 12.59375 16.816406 12.171875 C 16.511719 12.027344 16.5 12.023438 15.992188 12.023438 C 15.484375 12.023438 15.46875 12.027344 15.164062 12.171875 C 14.085938 12.691406 13.683594 13.875 14.222656 14.945312 C 14.53125 15.5625 15.257812 16.003906 15.957031 16.007812 C 16.191406 16.007812 16.195312 16.007812 16.21875 16.140625 C 16.230469 16.214844 16.398438 17.492188 16.589844 18.980469 C 16.78125 20.464844 16.949219 21.734375 16.960938 21.792969 C 16.976562 21.898438 16.96875 21.90625 16.804688 21.925781 C 16.453125 21.96875 15.917969 21.976562 15.433594 21.945312 Z M 15.433594 21.945312 "/>
<path style=" stroke:none;fill-rule:nonzero;fill:rgb(100%,100%,100%);fill-opacity:1;" d="M 21.691406 25.851562 C 21.078125 25.679688 20.605469 25.234375 20.222656 24.476562 C 20.082031 24.195312 17.371094 16.179688 17.40625 16.148438 C 17.425781 16.128906 22.839844 21.828125 23.289062 22.335938 C 23.636719 22.730469 23.898438 23.261719 23.960938 23.691406 C 24.125 24.8125 23.308594 25.832031 22.203125 25.898438 C 22.023438 25.90625 21.832031 25.890625 21.691406 25.851562 Z M 21.691406 25.851562 "/>
<path style=" stroke:none;fill-rule:nonzero;fill:rgb(100%,100%,100%);fill-opacity:1;" d="M 5.816406 31.953125 C 4.691406 31.796875 3.597656 31.15625 2.90625 30.242188 C 2.394531 29.558594 2.109375 28.78125 2.039062 27.875 C 2.011719 27.527344 2 23.191406 2.007812 15.59375 L 2.023438 3.851562 L 2.109375 3.480469 C 2.511719 1.742188 3.839844 0.441406 5.570312 0.0898438 C 5.925781 0.015625 6.425781 0.015625 16.011719 0.015625 C 25.597656 0.015625 26.101562 0.015625 26.433594 0.0898438 C 28.140625 0.457031 29.394531 1.632812 29.851562 3.289062 L 29.960938 3.6875 L 29.976562 15.800781 C 29.984375 24.660156 29.972656 28.003906 29.941406 28.246094 C 29.679688 30.09375 28.210938 31.59375 26.355469 31.921875 C 26.058594 31.972656 24.632812 31.980469 15.976562 31.976562 C 10.457031 31.972656 5.886719 31.960938 5.816406 31.953125 Z M 25.832031 27.972656 C 25.886719 27.945312 25.953125 27.875 25.976562 27.816406 C 26.007812 27.742188 26.019531 24.285156 26.011719 15.933594 L 26 4.15625 L 25.902344 4.078125 C 25.808594 4 25.59375 3.996094 16.011719 3.996094 L 6.222656 3.996094 L 6.003906 4.167969 L 6.003906 15.972656 C 6.003906 24.246094 6.015625 27.800781 6.046875 27.859375 C 6.070312 27.902344 6.132812 27.957031 6.183594 27.976562 C 6.324219 28.035156 25.703125 28.03125 25.832031 27.972656 Z M 25.832031 27.972656 "/>
</g>
</svg>
