<?xml version="1.0" encoding="UTF-8"?>
<svg xmlns="http://www.w3.org/2000/svg" xmlns:xlink="http://www.w3.org/1999/xlink" width="32" height="32" viewBox="0 0 32 32" version="1.1">
<g id="surface1">
<path style=" stroke:none;fill-rule:nonzero;fill:rgb(74.509804%,74.509804%,74.509804%);fill-opacity:1;" d="M 7.121094 4 C 5.421875 4 4 5.421875 4 7.121094 L 4 24.871094 C 4 26.566406 5.429688 27.996094 7.125 27.996094 L 22.875 27.996094 C 24.570312 27.996094 26 26.566406 26 24.871094 L 26 8.246094 L 25.4375 7.683594 L 22.5625 4.621094 L 22.003906 3.980469 L 21.121094 3.980469 Z M 7.996094 8 L 20.246094 8 L 22.003906 9.878906 L 22.003906 24 L 8.003906 24 Z M 7.996094 8 "/>
<path style=" stroke:none;fill-rule:nonzero;fill:rgb(74.509804%,74.509804%,74.509804%);fill-opacity:1;" d="M 11.859375 10.140625 L 18.125 10.140625 C 19.160156 10.140625 19.992188 10.972656 19.992188 12.007812 L 19.992188 16.105469 C 19.992188 17.140625 19.160156 17.972656 18.125 17.972656 L 11.859375 17.972656 C 10.824219 17.972656 9.992188 17.140625 9.992188 16.105469 L 9.992188 12.007812 C 9.992188 10.96875 10.832031 10.148438 11.851562 10.148438 Z M 11.859375 10.140625 "/>
<path style=" stroke:none;fill-rule:nonzero;fill:rgb(100%,100%,100%);fill-opacity:1;" d="M 11.394531 17.902344 C 10.972656 17.804688 10.457031 17.398438 10.238281 17 C 10.011719 16.585938 10.007812 16.511719 10.007812 14.082031 C 10.007812 12.59375 10.023438 11.769531 10.050781 11.625 C 10.207031 10.882812 10.8125 10.3125 11.574219 10.191406 C 11.742188 10.164062 13.039062 10.148438 15.0625 10.148438 C 17.789062 10.148438 18.324219 10.15625 18.546875 10.210938 C 19.304688 10.386719 19.855469 11 19.953125 11.765625 C 20.003906 12.167969 20.003906 15.992188 19.953125 16.359375 C 19.847656 17.074219 19.355469 17.65625 18.671875 17.871094 C 18.433594 17.945312 18.246094 17.949219 14.988281 17.945312 C 13.082031 17.941406 11.484375 17.921875 11.394531 17.902344 Z M 11.394531 17.902344 "/>
<path style=" stroke:none;fill-rule:nonzero;fill:rgb(100%,100%,100%);fill-opacity:1;" d="M 6.515625 27.914062 C 5.535156 27.703125 4.71875 27.039062 4.292969 26.113281 C 4 25.472656 4.019531 26.230469 4.03125 15.863281 L 4.042969 6.535156 L 4.140625 6.246094 C 4.5 5.175781 5.289062 4.414062 6.371094 4.109375 L 6.683594 4.019531 L 22.003906 3.996094 L 22.265625 4.296875 C 22.601562 4.6875 25.308594 7.566406 25.6875 7.9375 L 25.980469 8.226562 L 25.980469 16.710938 C 25.976562 25.882812 25.988281 25.429688 25.757812 25.996094 C 25.589844 26.414062 25.398438 26.699219 25.050781 27.046875 C 24.582031 27.515625 24.089844 27.785156 23.46875 27.917969 C 23.070312 28 6.902344 28 6.515625 27.914062 Z M 22.015625 16.945312 L 22.015625 9.875 L 20.265625 8 L 7.984375 8 L 7.984375 24.015625 L 22.015625 24.015625 Z M 22.015625 16.945312 "/>
</g>
</svg>
