<?xml version="1.0" encoding="UTF-8"?>
<svg xmlns="http://www.w3.org/2000/svg" xmlns:xlink="http://www.w3.org/1999/xlink" width="32" height="32" viewBox="0 0 32 32" version="1.1">
<g id="surface1">
<path style=" stroke:none;fill-rule:nonzero;fill:rgb(74.509804%,74.509804%,74.509804%);fill-opacity:1;" d="M 15.980469 2 C 8.292969 2 1.992188 8.300781 1.992188 15.984375 C 1.992188 23.671875 8.292969 30.015625 15.980469 30.015625 C 23.664062 30.015625 30.011719 23.671875 30.011719 15.984375 C 30.011719 8.300781 23.664062 2 15.980469 2 Z M 15.980469 10.015625 C 19.339844 10.015625 21.992188 12.625 21.992188 15.984375 C 21.992188 19.347656 19.339844 22 15.980469 22 C 12.617188 22 10.011719 19.347656 10.011719 15.984375 C 10.011719 12.625 12.617188 10.015625 15.980469 10.015625 Z M 15.980469 10.015625 "/>
<path style=" stroke:none;fill-rule:nonzero;fill:rgb(74.509804%,74.509804%,74.509804%);fill-opacity:1;" d="M 16.019531 12.019531 C 13.824219 12.019531 11.992188 13.816406 11.992188 16.011719 C 11.992188 18.210938 13.820312 20.003906 16.019531 20.003906 C 18.214844 20.003906 20.011719 18.210938 20.011719 16.011719 C 20.011719 13.816406 18.214844 12.019531 16.019531 12.019531 Z M 16.019531 14.015625 C 17.136719 14.015625 18.015625 14.894531 18.015625 16.011719 C 18.015625 17.128906 17.136719 18.007812 16.019531 18.007812 C 14.902344 18.007812 14.023438 17.128906 14.023438 16.011719 C 14.023438 14.894531 14.902344 14.015625 16.019531 14.015625 Z M 16.019531 14.015625 "/>
<path style=" stroke:none;fill-rule:nonzero;fill:rgb(100%,100%,100%);fill-opacity:1;" d="M 15.660156 19.964844 C 14 19.832031 12.570312 18.621094 12.125 16.976562 C 11.992188 16.484375 11.992188 15.546875 12.125 15.058594 C 12.441406 13.886719 13.226562 12.941406 14.304688 12.429688 C 14.9375 12.128906 15.21875 12.070312 16.03125 12.070312 C 16.675781 12.070312 16.765625 12.082031 17.097656 12.183594 C 18.207031 12.519531 19.082031 13.25 19.574219 14.246094 C 20.34375 15.792969 20.035156 17.617188 18.804688 18.835938 C 17.960938 19.667969 16.867188 20.0625 15.660156 19.964844 Z M 16.460938 17.96875 C 17.777344 17.65625 18.414062 16.242188 17.777344 15.042969 C 17.148438 13.863281 15.476562 13.652344 14.5625 14.636719 C 14.191406 15.035156 14.027344 15.449219 14.023438 15.992188 C 14.023438 16.578125 14.210938 17.039062 14.613281 17.441406 C 15.097656 17.925781 15.796875 18.125 16.460938 17.96875 Z M 16.460938 17.96875 "/>
<path style=" stroke:none;fill-rule:nonzero;fill:rgb(100%,100%,100%);fill-opacity:1;" d="M 15.042969 29.976562 C 13.335938 29.804688 12.304688 29.574219 11.019531 29.070312 C 9.175781 28.351562 7.664062 27.375 6.25 25.992188 C 3.828125 23.617188 2.367188 20.554688 2.0625 17.203125 C 1.964844 16.109375 2.03125 14.640625 2.226562 13.53125 C 3 9.222656 5.824219 5.464844 9.785156 3.476562 C 12.382812 2.175781 15.351562 1.730469 18.242188 2.207031 C 22.757812 2.953125 26.65625 5.882812 28.640625 10.035156 C 30.285156 13.472656 30.433594 17.445312 29.050781 21.007812 C 28.664062 22.003906 28 23.222656 27.386719 24.078125 C 26.726562 24.996094 25.574219 26.222656 24.761719 26.871094 C 22.652344 28.550781 20.28125 29.5625 17.664062 29.898438 C 17.175781 29.960938 15.417969 30.011719 15.042969 29.976562 Z M 17.296875 21.875 C 17.839844 21.746094 18.257812 21.59375 18.78125 21.324219 C 20.769531 20.304688 21.996094 18.265625 21.996094 15.988281 C 21.996094 13.125 20.097656 10.765625 17.292969 10.140625 C 16.914062 10.054688 16.75 10.042969 15.992188 10.042969 C 15.027344 10.042969 14.753906 10.082031 14.003906 10.332031 C 12.339844 10.886719 11 12.1875 10.371094 13.859375 C 10.078125 14.636719 9.945312 15.652344 10.023438 16.511719 C 10.277344 19.304688 12.242188 21.449219 14.980469 21.933594 C 15.453125 22.019531 16.835938 21.984375 17.296875 21.875 Z M 17.296875 21.875 "/>
</g>
</svg>
