<?xml version="1.0" encoding="UTF-8"?>
<svg xmlns="http://www.w3.org/2000/svg" xmlns:xlink="http://www.w3.org/1999/xlink" width="32" height="32" viewBox="0 0 32 32" version="1.1">
<g id="surface1">
<path style=" stroke:none;fill-rule:nonzero;fill:rgb(74.509804%,74.509804%,74.509804%);fill-opacity:1;" d="M 8.9375 2 C 7.296875 2 6 3.296875 6 4.9375 L 6 27.0625 C 6 28.703125 7.296875 30 8.9375 30 L 23.0625 30 C 24.703125 30 26 28.703125 26 27.0625 L 26 4.9375 C 26 3.296875 24.703125 2 23.0625 2 Z M 8 4 L 24 4 L 24 14 L 8 14 Z M 16 16 C 19.3125 16 22 18.6875 22 22 C 22 25.3125 19.3125 28 16 28 C 12.6875 28 10 25.3125 10 22 C 10 18.6875 12.6875 16 16 16 Z M 16 16 "/>
<path style=" stroke:none;fill-rule:nonzero;fill:rgb(74.509804%,74.509804%,74.509804%);fill-opacity:1;" d="M 19 22 C 19 23.65625 17.65625 25 16 25 C 14.34375 25 13 23.65625 13 22 C 13 20.34375 14.34375 19 16 19 C 17.65625 19 19 20.34375 19 22 Z M 19 22 "/>
<path style=" stroke:none;fill-rule:nonzero;fill:rgb(100%,100%,100%);fill-opacity:1;" d="M 15.699219 24.960938 C 14.59375 24.859375 13.589844 24.085938 13.203125 23.027344 C 12.621094 21.429688 13.449219 19.722656 15.082031 19.160156 C 15.378906 19.058594 15.472656 19.042969 15.96875 19.042969 C 16.605469 19.042969 16.914062 19.113281 17.4375 19.386719 C 17.816406 19.585938 18.375 20.132812 18.589844 20.519531 C 19.503906 22.171875 18.726562 24.214844 16.957031 24.824219 C 16.605469 24.945312 16.117188 24.996094 15.699219 24.960938 Z M 15.699219 24.960938 "/>
<path style=" stroke:none;fill-rule:nonzero;fill:rgb(100%,100%,100%);fill-opacity:1;" d="M 8.527344 29.953125 C 7.882812 29.871094 7.367188 29.609375 6.867188 29.109375 C 6.59375 28.835938 6.496094 28.703125 6.339844 28.386719 C 6 27.699219 6.027344 28.78125 6.023438 15.984375 C 6.023438 4.695312 6.027344 4.542969 6.105469 4.222656 C 6.367188 3.191406 7.148438 2.394531 8.175781 2.109375 C 8.421875 2.039062 8.902344 2.039062 16.03125 2.039062 L 23.628906 2.039062 L 23.945312 2.144531 C 25.070312 2.53125 25.808594 3.421875 25.960938 4.582031 C 25.992188 4.824219 26 8.242188 25.992188 16.234375 L 25.980469 27.542969 L 25.882812 27.851562 C 25.566406 28.875 24.875 29.566406 23.847656 29.882812 L 23.542969 29.976562 L 16.179688 29.984375 C 12.042969 29.988281 8.6875 29.972656 8.527344 29.953125 Z M 17.085938 27.914062 C 18.566406 27.628906 19.933594 26.777344 20.820312 25.585938 C 21.3125 24.929688 21.714844 24.03125 21.898438 23.191406 C 22.007812 22.691406 22.007812 21.339844 21.902344 20.835938 C 21.640625 19.617188 21.105469 18.621094 20.246094 17.761719 C 19.347656 16.863281 18.210938 16.273438 16.988281 16.070312 C 16.472656 15.984375 15.5 15.980469 15.019531 16.066406 C 12.503906 16.511719 10.585938 18.386719 10.082031 20.90625 C 9.972656 21.457031 9.980469 22.617188 10.101562 23.175781 C 10.359375 24.375 10.914062 25.398438 11.761719 26.242188 C 12.769531 27.25 13.96875 27.816406 15.476562 27.992188 C 15.761719 28.027344 16.742188 27.980469 17.085938 27.914062 Z M 24.019531 9.011719 L 24.019531 3.996094 L 8.003906 3.996094 L 8.003906 14.027344 L 24.019531 14.027344 Z M 24.019531 9.011719 "/>
</g>
</svg>
