<?xml version="1.0" encoding="UTF-8"?>
<svg xmlns="http://www.w3.org/2000/svg" xmlns:xlink="http://www.w3.org/1999/xlink" width="32" height="32" viewBox="0 0 32 32" version="1.1">
<g id="surface1">
<path style=" stroke:none;fill-rule:nonzero;fill:rgb(74.509804%,74.509804%,74.509804%);fill-opacity:1;" d="M 10.941406 2 C 9.296875 2 8 3.296875 8 4.9375 L 8 27.0625 C 8 28.703125 9.296875 30 10.941406 30 L 21.191406 30 C 22.832031 30 24.128906 28.703125 24.128906 27.0625 L 24.128906 4.9375 C 24.128906 3.296875 22.832031 2 21.191406 2 Z M 10.003906 4 L 22.128906 4 L 22.128906 26 L 10.003906 26 Z M 10.003906 4 "/>
<path style=" stroke:none;fill-rule:nonzero;fill:rgb(100%,100%,100%);fill-opacity:1;" d="M 10.527344 29.953125 C 9.882812 29.871094 9.367188 29.609375 8.867188 29.109375 C 8.59375 28.835938 8.496094 28.703125 8.339844 28.386719 C 7.996094 27.691406 8.023438 28.796875 8.035156 15.875 L 8.046875 4.347656 L 8.15625 4.027344 C 8.515625 2.972656 9.390625 2.222656 10.460938 2.058594 C 10.6875 2.023438 12.257812 2.015625 16.257812 2.023438 L 21.75 2.039062 L 22.039062 2.132812 C 22.554688 2.304688 22.878906 2.503906 23.234375 2.859375 C 23.742188 3.367188 23.992188 3.875 24.085938 4.5625 C 24.113281 4.777344 24.121094 8.644531 24.113281 16.214844 C 24.101562 26.941406 24.097656 27.558594 24.027344 27.792969 C 23.710938 28.859375 23.019531 29.5625 21.96875 29.882812 L 21.667969 29.976562 L 16.238281 29.984375 C 13.222656 29.988281 10.6875 29.972656 10.527344 29.953125 Z M 22.140625 14.996094 L 22.140625 3.996094 L 10.007812 3.996094 L 10.007812 25.996094 L 22.140625 25.996094 Z M 22.140625 14.996094 "/>
</g>
</svg>
