<?xml version="1.0" encoding="UTF-8"?>
<svg xmlns="http://www.w3.org/2000/svg" xmlns:xlink="http://www.w3.org/1999/xlink" width="32" height="32" viewBox="0 0 32 32" version="1.1">
<defs>
<clipPath id="clip1">
  <path d="M 10.011719 16.1875 L 22.011719 16.1875 L 22.011719 20.003906 L 10.011719 20.003906 Z M 10.011719 16.1875 "/>
</clipPath>
<clipPath id="clip2">
  <path d="M 6.007812 10.0625 L 26.007812 10.0625 L 26.007812 16 L 6.007812 16 Z M 6.007812 10.0625 "/>
</clipPath>
<clipPath id="clip3">
  <path d="M 2.007812 4.125 L 29.992188 4.125 L 29.992188 12.003906 L 2.007812 12.003906 Z M 2.007812 4.125 "/>
</clipPath>
</defs>
<g id="surface1">
<g clip-path="url(#clip1)" clip-rule="nonzero">
<path style=" stroke:none;fill-rule:nonzero;fill:rgb(74.509804%,74.509804%,74.509804%);fill-opacity:1;" d="M 9.539062 19.667969 C 9.625 20.378906 10.199219 20.980469 11.007812 21.214844 C 11.816406 21.445312 12.714844 21.261719 13.304688 20.746094 C 14.8125 19.492188 17.210938 19.492188 18.714844 20.746094 C 19.222656 21.339844 20.101562 21.625 20.953125 21.476562 C 21.804688 21.324219 22.46875 20.769531 22.648438 20.058594 C 22.824219 19.347656 22.476562 18.617188 21.765625 18.199219 C 18.585938 15.546875 13.417969 15.546875 10.238281 18.199219 C 9.742188 18.570312 9.476562 19.113281 9.519531 19.667969 Z M 9.539062 19.667969 "/>
</g>
<g clip-path="url(#clip2)" clip-rule="nonzero">
<path style=" stroke:none;fill-rule:nonzero;fill:rgb(74.509804%,74.509804%,74.509804%);fill-opacity:1;" d="M 5.40625 15.667969 C 5.589844 16.34375 6.160156 16.871094 6.890625 17.054688 C 7.625 17.230469 8.40625 17.03125 8.933594 16.53125 C 12.820312 12.96875 19.160156 12.96875 23.050781 16.53125 C 23.554688 17.09375 24.363281 17.34375 25.136719 17.179688 C 25.910156 17.011719 26.511719 16.457031 26.695312 15.75 C 26.875 15.039062 26.601562 14.296875 25.992188 13.835938 C 20.507812 8.808594 11.476562 8.808594 5.992188 13.835938 C 5.449219 14.304688 5.21875 15.003906 5.390625 15.667969 Z M 5.40625 15.667969 "/>
</g>
<g clip-path="url(#clip3)" clip-rule="nonzero">
<path style=" stroke:none;fill-rule:nonzero;fill:rgb(74.509804%,74.509804%,74.509804%);fill-opacity:1;" d="M 0.914062 11.332031 C 1.03125 12.023438 1.542969 12.605469 2.25 12.847656 C 2.957031 13.089844 3.75 12.957031 4.320312 12.5 C 4.382812 12.445312 4.445312 12.390625 4.5 12.332031 C 10.847656 6.429688 21.101562 6.429688 27.449219 12.332031 C 27.90625 12.992188 28.753906 13.328125 29.585938 13.175781 C 30.414062 13.027344 31.066406 12.421875 31.226562 11.652344 C 31.386719 10.878906 31.027344 10.09375 30.316406 9.664062 C 22.382812 2.289062 9.566406 2.289062 1.632812 9.664062 C 1.113281 10.078125 0.84375 10.699219 0.914062 11.332031 Z M 0.914062 11.332031 "/>
</g>
<path style=" stroke:none;fill-rule:nonzero;fill:rgb(74.509804%,74.509804%,74.509804%);fill-opacity:1;" d="M 20 26 C 20 28.210938 18.210938 30 16 30 C 13.789062 30 12 28.210938 12 26 C 12 23.789062 13.789062 22 16 22 C 18.210938 22 20 23.789062 20 26 Z M 20 26 "/>
<path style=" stroke:none;fill-rule:nonzero;fill:rgb(100%,100%,100%);fill-opacity:1;" d="M 15.53125 29.957031 C 13.949219 29.773438 12.644531 28.664062 12.167969 27.089844 C 12.0625 26.746094 12.054688 26.667969 12.054688 25.996094 C 12.054688 25.328125 12.0625 25.246094 12.164062 24.910156 C 12.628906 23.410156 13.816406 22.339844 15.3125 22.074219 C 15.742188 22 16.667969 22.042969 17.0625 22.15625 C 19.445312 22.847656 20.648438 25.46875 19.601562 27.679688 C 19.5 27.894531 19.335938 28.183594 19.238281 28.320312 C 19.027344 28.613281 18.535156 29.097656 18.261719 29.285156 C 17.742188 29.636719 17.066406 29.886719 16.433594 29.957031 C 16 30.003906 15.9375 30.003906 15.53125 29.957031 Z M 15.53125 29.957031 "/>
<path style=" stroke:none;fill-rule:nonzero;fill:rgb(100%,100%,100%);fill-opacity:1;" d="M 10.007812 19.1875 L 10.007812 18.40625 L 10.304688 18.164062 C 11.546875 17.152344 13.039062 16.539062 14.835938 16.292969 C 15.335938 16.222656 16.628906 16.222656 17.167969 16.292969 C 18.871094 16.507812 20.292969 17.085938 21.65625 18.125 L 21.976562 18.367188 L 21.976562 19.96875 L 19.632812 19.96875 C 17.464844 19.96875 17.261719 19.964844 16.898438 19.886719 C 16.636719 19.832031 16.34375 19.804688 16.011719 19.804688 C 15.679688 19.804688 15.386719 19.832031 15.125 19.886719 C 14.761719 19.964844 14.5625 19.96875 12.371094 19.96875 L 10.007812 19.96875 Z M 10.007812 19.1875 "/>
<path style=" stroke:none;fill-rule:nonzero;fill:rgb(100%,100%,100%);fill-opacity:1;" d="M 6.003906 14.902344 L 6.003906 13.835938 L 6.34375 13.546875 C 10.179688 10.296875 15.613281 9.234375 20.582031 10.773438 C 22.460938 11.351562 24.296875 12.367188 25.742188 13.632812 L 25.980469 13.839844 L 25.980469 15.96875 L 22.394531 15.96875 L 22.070312 15.734375 C 20.855469 14.859375 19.246094 14.21875 17.621094 13.960938 C 16.976562 13.859375 15.4375 13.835938 14.753906 13.921875 C 12.914062 14.144531 11.265625 14.761719 9.910156 15.734375 L 9.589844 15.96875 L 6.003906 15.96875 Z M 6.003906 14.902344 "/>
<path style=" stroke:none;fill-rule:nonzero;fill:rgb(100%,100%,100%);fill-opacity:1;" d="M 2.027344 11.976562 C 2.011719 11.960938 2 11.367188 2 10.65625 L 2 9.367188 L 2.175781 9.203125 C 2.832031 8.597656 4.078125 7.703125 5.128906 7.078125 C 7.714844 5.546875 10.496094 4.636719 13.742188 4.257812 C 14.640625 4.152344 17.269531 4.152344 18.199219 4.257812 C 22.5625 4.746094 26.378906 6.347656 29.582031 9.03125 L 29.984375 9.367188 L 29.984375 12.003906 L 27.109375 12.003906 L 26.824219 11.761719 C 24.65625 9.9375 21.824219 8.640625 18.945312 8.148438 C 17.007812 7.816406 14.933594 7.816406 13.019531 8.148438 C 10.078125 8.65625 7.351562 9.90625 5.144531 11.75 L 4.839844 12.003906 L 3.445312 12.003906 C 2.679688 12.003906 2.042969 11.992188 2.027344 11.976562 Z M 2.027344 11.976562 "/>
</g>
</svg>
