<?xml version="1.0" encoding="UTF-8"?>
<svg xmlns="http://www.w3.org/2000/svg" xmlns:xlink="http://www.w3.org/1999/xlink" width="32" height="32" viewBox="0 0 32 32" version="1.1">
<g id="surface1">
<path style=" stroke:none;fill-rule:nonzero;fill:rgb(74.509804%,74.509804%,74.509804%);fill-opacity:1;" d="M 12 2 C 9.980469 2.007812 10 4 10 4 L 10 26 C 10 28 12 28 12 28 L 20 28 C 22 28 22 26 22 26 L 22 10 C 22 8.890625 21.109375 8 20 8 L 14 8 L 14 4 C 14 4 13.980469 2.011719 12 2 Z M 12 10 L 20 10 L 20 16.0625 L 12 16 Z M 12 18 L 14 18 L 14 20 L 16 20 L 16 18 L 18 18 L 18 20 L 20 20 L 20 22 L 18 22 L 18 24 L 20 24 L 20 26 L 18 26 L 18 24 L 16 24 L 16 26 L 14 26 L 14 24 L 12 24 L 12 22 L 14 22 L 14 20 L 12 20 Z M 14 22 L 14 24 L 16 24 L 16 22 Z M 16 22 L 18 22 L 18 20 L 16 20 Z M 16 22 "/>
<path style=" stroke:none;fill-rule:nonzero;fill:rgb(100%,100%,100%);fill-opacity:1;" d="M 11.492188 27.910156 C 10.6875 27.699219 10.171875 27.164062 10.050781 26.410156 C 10.019531 26.230469 10.007812 22.492188 10.007812 14.996094 C 10.007812 2.785156 9.992188 3.578125 10.253906 3.027344 C 10.554688 2.394531 11.195312 2.019531 11.972656 2.015625 C 12.773438 2.015625 13.398438 2.367188 13.722656 3.007812 C 13.964844 3.488281 13.96875 3.542969 13.96875 5.871094 L 13.96875 8 L 17.011719 8 C 18.941406 8 20.15625 8.015625 20.324219 8.042969 C 21.070312 8.164062 21.722656 8.761719 21.917969 9.5 C 21.964844 9.675781 21.976562 11.121094 21.976562 17.96875 C 21.976562 25.140625 21.964844 26.257812 21.914062 26.484375 C 21.734375 27.242188 21.253906 27.753906 20.570312 27.914062 C 20.179688 28.003906 11.839844 28.003906 11.492188 27.910156 Z M 16.03125 25.003906 L 16.03125 24.015625 L 17.972656 24.015625 L 17.972656 25.996094 L 19.996094 25.996094 L 19.996094 23.972656 L 18.015625 23.972656 L 18.015625 22.035156 L 19.996094 22.035156 L 19.996094 19.96875 L 18.015625 19.96875 L 18.015625 17.988281 L 15.992188 17.988281 L 15.992188 19.96875 L 14.011719 19.96875 L 14.011719 17.988281 L 11.988281 17.988281 L 11.988281 20.011719 L 13.96875 20.011719 L 13.96875 21.992188 L 11.988281 21.992188 L 11.988281 24.015625 L 13.96875 24.015625 L 13.96875 25.996094 L 16.03125 25.996094 Z M 19.996094 13.035156 L 19.996094 9.980469 L 11.988281 9.980469 L 11.988281 16.007812 L 12.71875 16.015625 C 14.867188 16.03125 19.28125 16.074219 19.613281 16.082031 L 19.996094 16.089844 Z M 19.996094 13.035156 "/>
<path style=" stroke:none;fill-rule:nonzero;fill:rgb(100%,100%,100%);fill-opacity:1;" d="M 16.03125 21.003906 L 16.03125 20.011719 L 17.972656 20.011719 L 17.972656 21.992188 L 16.03125 21.992188 Z M 16.03125 21.003906 "/>
<path style=" stroke:none;fill-rule:nonzero;fill:rgb(100%,100%,100%);fill-opacity:1;" d="M 14.011719 23.003906 L 14.011719 22.035156 L 15.992188 22.035156 L 15.992188 23.972656 L 14.011719 23.972656 Z M 14.011719 23.003906 "/>
</g>
</svg>
