<?xml version="1.0" encoding="UTF-8"?>
<svg xmlns="http://www.w3.org/2000/svg" xmlns:xlink="http://www.w3.org/1999/xlink" width="32" height="32" viewBox="0 0 32 32" version="1.1">
<g id="surface1">
<path style=" stroke:none;fill-rule:nonzero;fill:rgb(74.509804%,74.509804%,74.509804%);fill-opacity:1;" d="M 12 24 L 12 28 L 0.9375 28 C 0.410156 28 0 28.410156 0 28.9375 L 0 31.0625 C 0 31.589844 0.410156 32 0.9375 32 L 27.0625 32 C 27.585938 32 28 31.589844 28 31.0625 L 28 28.9375 C 28 28.410156 27.585938 28 27.0625 28 L 16 28 L 16 24 Z M 12 24 "/>
<path style=" stroke:none;fill-rule:nonzero;fill:rgb(74.509804%,74.509804%,74.509804%);fill-opacity:1;" d="M 8.097656 4.242188 L 8.097656 15.980469 L 20.003906 15.980469 L 20.003906 8.113281 L 16.003906 4.242188 Z M 4.007812 16.011719 L 4.007812 23.929688 L 23.941406 23.929688 L 23.941406 16.011719 L 22.035156 16.011719 L 22.03125 17.972656 L 5.976562 18.042969 L 5.976562 16.011719 Z M 4.007812 16.011719 "/>
<path style=" stroke:none;fill-rule:nonzero;fill:rgb(100%,100%,100%);fill-opacity:1;" d="M 8.109375 10.105469 L 8.109375 4.246094 L 16 4.246094 L 17.992188 6.175781 L 19.988281 8.105469 L 19.992188 12.035156 L 19.996094 15.96875 L 8.109375 15.96875 Z M 8.109375 10.105469 "/>
<path style=" stroke:none;fill-rule:nonzero;fill:rgb(100%,100%,100%);fill-opacity:1;" d="M 4.023438 19.96875 L 4.023438 16.007812 L 5.960938 16.007812 L 5.960938 18.058594 L 8.695312 18.042969 C 10.199219 18.035156 13.820312 18.019531 16.746094 18.003906 L 22.058594 17.980469 L 22.058594 16.007812 L 23.914062 16.007812 L 23.914062 23.933594 L 4.023438 23.933594 Z M 4.023438 19.96875 "/>
<path style=" stroke:none;fill-rule:nonzero;fill:rgb(100%,100%,100%);fill-opacity:1;" d="M 0.507812 31.867188 C 0.347656 31.78125 0.253906 31.695312 0.164062 31.550781 L 0.0390625 31.347656 L 0.0390625 28.652344 L 0.164062 28.449219 C 0.257812 28.296875 0.34375 28.21875 0.511719 28.132812 L 0.734375 28.019531 L 12.03125 28.019531 L 12.03125 24.015625 L 15.992188 24.015625 L 15.992188 28.019531 L 21.59375 28.019531 C 25.375 28.019531 27.246094 28.03125 27.351562 28.0625 C 27.550781 28.117188 27.773438 28.3125 27.890625 28.53125 C 27.980469 28.695312 27.980469 28.742188 27.980469 30 C 27.980469 31.257812 27.980469 31.304688 27.890625 31.46875 C 27.773438 31.6875 27.550781 31.882812 27.351562 31.9375 C 27.246094 31.96875 23.070312 31.980469 13.964844 31.980469 L 0.730469 31.980469 Z M 0.507812 31.867188 "/>
</g>
</svg>
