<?xml version="1.0" encoding="UTF-8"?>
<svg xmlns="http://www.w3.org/2000/svg" xmlns:xlink="http://www.w3.org/1999/xlink" width="16" height="16" viewBox="0 0 16 16" version="1.1">
<g id="surface1">
<path style=" stroke:none;fill-rule:nonzero;fill:rgb(100%,100%,100%);fill-opacity:1;" d="M 11.449219 2.460938 L 5.503906 8.371094 C 4.203125 9.664062 3.605469 11.179688 4.160156 11.765625 C 4.71875 12.351562 6.210938 11.785156 7.511719 10.492188 L 13.457031 4.578125 C 14.757812 3.285156 15.359375 1.769531 14.800781 1.183594 C 14.246094 0.597656 12.75 1.167969 11.449219 2.460938 Z M 11.449219 2.460938 "/>
<path style=" stroke:none;fill-rule:nonzero;fill:rgb(100%,100%,100%);fill-opacity:1;" d="M 3.050781 2.429688 L 1.820312 3.699219 L 7.742188 8.199219 L 12.28125 14.160156 L 13.554688 12.933594 L 10.914062 5.070312 Z M 3.050781 2.429688 "/>
<path style=" stroke:none;fill-rule:nonzero;fill:rgb(100%,100%,100%);fill-opacity:1;" d="M 6.300781 9.648438 L 1.703125 9.308594 L 1.007812 10.015625 L 3.855469 12.125 L 5.9375 14.964844 L 6.636719 14.261719 Z M 6.300781 9.648438 "/>
</g>
</svg>
