<?xml version="1.0" encoding="UTF-8"?>
<svg xmlns="http://www.w3.org/2000/svg" xmlns:xlink="http://www.w3.org/1999/xlink" width="16" height="16" viewBox="0 0 16 16" version="1.1">
<g id="surface1">
<path style=" stroke:none;fill-rule:nonzero;fill:rgb(100%,100%,100%);fill-opacity:1;" d="M 7.410156 6 C 7.167969 6.042969 6.996094 6.253906 7 6.5 L 7 9 L 5.5 9 C 5.320312 8.996094 5.152344 9.09375 5.0625 9.246094 C 4.96875 9.402344 4.96875 9.597656 5.0625 9.75 C 5.152344 9.90625 5.320312 10.003906 5.5 10 L 7.5 10 C 7.777344 10 8 9.777344 8 9.5 L 8 6.5 C 8.003906 6.351562 7.9375 6.207031 7.820312 6.109375 C 7.707031 6.011719 7.554688 5.972656 7.40625 6 Z M 7.410156 6 "/>
<path style=" stroke:none;fill-rule:nonzero;fill:rgb(100%,100%,100%);fill-opacity:1;" d="M 7.46875 3.058594 C 3.910156 3.058594 1.027344 5.972656 1.027344 9.535156 C 1.027344 13.09375 3.910156 16.007812 7.46875 16.007812 C 11.03125 16.007812 13.945312 13.09375 13.945312 9.535156 C 13.945312 5.972656 11.03125 3.058594 7.46875 3.058594 Z M 7.46875 5.042969 C 9.957031 5.042969 11.960938 7.046875 11.960938 9.535156 C 11.960938 12.023438 9.957031 14.027344 7.46875 14.027344 C 4.980469 14.027344 3.007812 12.023438 3.007812 9.535156 C 3.007812 7.046875 4.980469 5.042969 7.46875 5.042969 Z M 7.46875 5.042969 "/>
<path style=" stroke:none;fill-rule:nonzero;fill:rgb(100%,100%,100%);fill-opacity:1;" d="M 4.28125 1 C 2.472656 1 1 2.476562 1 4.28125 C 1 4.6875 1.082031 5.046875 1.21875 5.40625 C 2.421875 3.585938 4.402344 2.304688 6.6875 2.0625 C 6.085938 1.414062 5.226562 1.003906 4.277344 1.003906 Z M 10.71875 1 C 9.765625 1 8.910156 1.414062 8.3125 2.0625 C 10.597656 2.3125 12.582031 3.601562 13.78125 5.4375 C 13.921875 5.070312 14 4.695312 14 4.28125 C 14 2.476562 12.523438 1 10.71875 1 Z M 10.71875 1 "/>
<path style=" stroke:none;fill-rule:nonzero;fill:rgb(100%,100%,100%);fill-opacity:1;" d="M 3.910156 12.910156 C 3.730469 12.957031 3.570312 13.054688 3.441406 13.191406 L 2.316406 14.285156 C 2.015625 14.519531 1.871094 14.90625 1.949219 15.277344 C 2.027344 15.652344 2.3125 15.949219 2.679688 16.046875 C 3.050781 16.140625 3.445312 16.015625 3.691406 15.722656 L 4.816406 14.628906 C 5.160156 14.324219 5.253906 13.820312 5.039062 13.414062 C 4.824219 13.007812 4.355469 12.796875 3.910156 12.910156 Z M 3.910156 12.910156 "/>
<path style=" stroke:none;fill-rule:nonzero;fill:rgb(100%,100%,100%);fill-opacity:1;" d="M 10.941406 13 C 10.578125 13.054688 10.273438 13.304688 10.148438 13.652344 C 10.023438 13.996094 10.101562 14.382812 10.347656 14.65625 L 11.253906 15.65625 C 11.476562 15.960938 11.851562 16.113281 12.222656 16.050781 C 12.597656 15.984375 12.902344 15.71875 13.011719 15.359375 C 13.125 15 13.023438 14.605469 12.753906 14.34375 L 11.847656 13.34375 C 11.625 13.078125 11.28125 12.945312 10.9375 12.992188 Z M 10.941406 13 "/>
</g>
</svg>
