<?xml version="1.0" encoding="UTF-8"?>
<svg xmlns="http://www.w3.org/2000/svg" xmlns:xlink="http://www.w3.org/1999/xlink" width="16" height="16" viewBox="0 0 16 16" version="1.1">
<g id="surface1">
<path style=" stroke:none;fill-rule:nonzero;fill:rgb(74.509804%,74.509804%,74.509804%);fill-opacity:1;" d="M 6.5 0 C 2.921875 0 0 2.921875 0 6.5 C 0 10.078125 2.921875 13 6.5 13 C 6.671875 13 6.832031 12.980469 7 12.96875 L 7 10.9375 C 6.832031 10.957031 6.671875 11 6.5 11 C 4.003906 11 2 8.996094 2 6.5 C 2 4.003906 4.003906 2 6.5 2 C 8.996094 2 11 4.003906 11 6.5 C 11 6.671875 10.957031 6.832031 10.9375 7 L 12.96875 7 C 12.980469 6.832031 13 6.671875 13 6.5 C 13 2.921875 10.078125 0 6.5 0 Z M 6.5 0 "/>
<path style=" stroke:none;fill-rule:nonzero;fill:rgb(74.509804%,74.509804%,74.509804%);fill-opacity:1;" d="M 6.410156 3 C 6.167969 3.042969 5.996094 3.253906 6 3.5 L 6 6 L 4.5 6 C 4.320312 5.996094 4.152344 6.09375 4.0625 6.25 C 3.96875 6.402344 3.96875 6.597656 4.0625 6.75 C 4.152344 6.90625 4.320312 7.003906 4.5 7 L 6.5 7 C 6.777344 7 7 6.777344 7 6.5 L 7 3.5 C 7.003906 3.351562 6.9375 3.207031 6.820312 3.109375 C 6.707031 3.011719 6.554688 2.972656 6.40625 3 Z M 6.410156 3 "/>
<path style=" stroke:none;fill-rule:nonzero;fill:rgb(96.078431%,47.45098%,0%);fill-opacity:1;" d="M 8.878906 8.070312 C 8.386719 8.070312 8.003906 8.449219 8.003906 8.9375 L 8.003906 15.132812 C 8.003906 15.621094 8.386719 16 8.878906 16 L 15.128906 16 C 15.621094 16 16.003906 15.621094 16.003906 15.132812 L 16.003906 8.9375 C 16.003906 8.449219 15.621094 8.070312 15.128906 8.070312 Z M 11.003906 9.0625 L 13.003906 9.0625 L 13.003906 13.027344 L 11.003906 13.027344 Z M 11.003906 14.019531 L 13.003906 14.019531 L 13.003906 15.007812 L 11.003906 15.007812 Z M 11.003906 14.019531 "/>
<path style=" stroke:none;fill-rule:nonzero;fill:rgb(100%,100%,100%);fill-opacity:1;" d="M 5.410156 12.886719 C 4.792969 12.78125 3.746094 12.390625 3.160156 12.039062 C 2.507812 11.652344 1.5625 10.75 1.140625 10.125 C 0.769531 9.570312 0.4375 8.851562 0.242188 8.175781 C 0.109375 7.710938 0.0898438 7.488281 0.0898438 6.488281 C 0.0898438 5.480469 0.109375 5.269531 0.246094 4.792969 C 0.871094 2.664062 2.503906 0.976562 4.570312 0.328125 C 8.042969 -0.757812 11.75 1.257812 12.730469 4.765625 C 12.898438 5.363281 13.015625 6.386719 12.957031 6.742188 L 12.917969 6.996094 L 11.003906 6.996094 L 11 6.371094 C 10.992188 5.179688 10.5625 4.203125 9.648438 3.292969 C 9.011719 2.660156 8.3125 2.273438 7.464844 2.085938 C 5.125 1.570312 2.742188 3.03125 2.117188 5.371094 C 1.960938 5.949219 1.960938 7.019531 2.109375 7.605469 C 2.617188 9.578125 4.414062 10.996094 6.40625 10.996094 L 6.96875 10.996094 L 6.96875 12.960938 L 6.375 12.953125 C 6.050781 12.949219 5.617188 12.917969 5.410156 12.886719 Z M 5.410156 12.886719 "/>
<path style=" stroke:none;fill-rule:nonzero;fill:rgb(100%,100%,100%);fill-opacity:1;" d="M 4.273438 6.914062 C 4.019531 6.789062 3.964844 6.398438 4.171875 6.167969 C 4.261719 6.066406 4.40625 6.046875 5.148438 6.046875 L 6.019531 6.046875 L 6.019531 4.6875 C 6.019531 3.335938 6.019531 3.328125 6.1875 3.164062 C 6.390625 2.960938 6.554688 2.953125 6.789062 3.136719 L 6.96875 3.277344 L 6.96875 6.664062 L 6.804688 6.832031 C 6.640625 6.992188 6.617188 6.996094 5.53125 6.992188 C 4.878906 6.988281 4.363281 6.957031 4.273438 6.914062 Z M 4.273438 6.914062 "/>
</g>
</svg>
