<?xml version="1.0" encoding="UTF-8"?>
<svg xmlns="http://www.w3.org/2000/svg" xmlns:xlink="http://www.w3.org/1999/xlink" width="16" height="16" viewBox="0 0 16 16" version="1.1">
<g id="surface1">
<path style=" stroke:none;fill-rule:nonzero;fill:rgb(74.509804%,74.509804%,74.509804%);fill-opacity:1;" d="M 5.46875 0 C 4.980469 0 4.671875 0.226562 4.4375 0.46875 C 4.199219 0.710938 4 1.027344 4 1.5 L 4 2 L 2 2 L 2 16 L 10 16 L 10 14 L 4 14 L 4 4 L 6 4 L 6 2 L 10 2 L 10 4 L 12 4 L 12 7 L 14 7 L 14 2 L 12 2 L 12 1.5625 C 11.976562 1.132812 11.828125 0.839844 11.59375 0.5625 C 11.367188 0.296875 10.964844 0.03125 10.4375 0.03125 L 10.4375 0 Z M 5.46875 0 "/>
<path style=" stroke:none;fill-rule:nonzero;fill:rgb(74.509804%,74.509804%,74.509804%);fill-opacity:1;" d="M 12.878906 8 C 12.65625 8.023438 12.445312 8.125 12.285156 8.28125 L 9.285156 11.28125 C 8.992188 11.566406 8.898438 12.003906 9.054688 12.382812 C 9.210938 12.761719 9.585938 13.007812 9.996094 13 L 12.558594 13 L 11.277344 14.28125 C 11.015625 14.539062 10.914062 14.914062 11.007812 15.265625 C 11.101562 15.621094 11.375 15.894531 11.730469 15.988281 C 12.082031 16.082031 12.460938 15.980469 12.714844 15.71875 L 15.714844 12.71875 C 16.011719 12.433594 16.101562 11.992188 15.945312 11.613281 C 15.785156 11.234375 15.40625 10.988281 14.996094 11 L 12.433594 11 L 13.714844 9.71875 C 14.035156 9.417969 14.125 8.941406 13.929688 8.546875 C 13.738281 8.152344 13.308594 7.929688 12.875 8 Z M 12.878906 8 "/>
<path style=" stroke:none;fill-rule:nonzero;fill:rgb(74.509804%,74.509804%,74.509804%);fill-opacity:1;" d="M 15 11 L 16 11 L 16 12 L 15 12 Z M 15 11 "/>
<path style=" stroke:none;fill-rule:nonzero;fill:rgb(74.509804%,74.509804%,74.509804%);fill-opacity:1;" d="M 9 12 L 10 12 L 10 13 L 9 13 Z M 9 12 "/>
<path style=" stroke:none;fill-rule:nonzero;fill:rgb(74.509804%,74.509804%,74.509804%);fill-opacity:1;" d="M 13 8 L 14 8 L 14 9 L 13 9 Z M 13 8 "/>
<path style=" stroke:none;fill-rule:nonzero;fill:rgb(74.509804%,74.509804%,74.509804%);fill-opacity:1;" d="M 11 15 L 12 15 L 12 16 L 11 16 Z M 11 15 "/>
<path style=" stroke:none;fill-rule:nonzero;fill:rgb(74.509804%,74.509804%,74.509804%);fill-opacity:1;" d="M 12.160156 8.441406 L 10.160156 11.441406 L 11.847656 12.566406 L 13.847656 9.566406 Z M 12.160156 8.441406 "/>
<path style=" stroke:none;fill-rule:nonzero;fill:rgb(74.509804%,74.509804%,74.509804%);fill-opacity:1;" d="M 13.160156 11.441406 L 11.160156 14.441406 L 12.847656 15.566406 L 14.847656 12.566406 Z M 13.160156 11.441406 "/>
<path style=" stroke:none;fill-rule:nonzero;fill:rgb(0%,0%,0%);fill-opacity:1;" d="M 2.027344 8.996094 L 2.027344 2.019531 L 4.007812 2.019531 L 4.023438 1.574219 C 4.035156 1.160156 4.046875 1.109375 4.152344 0.890625 C 4.289062 0.609375 4.632812 0.269531 4.90625 0.140625 C 5 0.09375 5.1875 0.0429688 5.316406 0.0273438 C 5.445312 0.0117188 6.625 -0.00390625 7.933594 -0.00390625 C 10.535156 -0.00390625 10.671875 0.00390625 11.101562 0.203125 C 11.378906 0.335938 11.691406 0.65625 11.835938 0.960938 C 11.933594 1.175781 11.953125 1.253906 11.96875 1.601562 L 11.988281 2 L 12.992188 2.011719 L 13.996094 2.019531 L 13.996094 6.972656 L 12.007812 6.972656 L 12.007812 3.972656 L 10.015625 3.972656 L 10.015625 1.984375 L 6.003906 1.984375 L 6.003906 3.96875 L 3.996094 3.992188 L 3.996094 14.007812 L 9.980469 14.023438 L 9.980469 15.976562 L 2.027344 15.976562 Z M 2.027344 8.996094 "/>
<path style=" stroke:none;fill-rule:nonzero;fill:rgb(100%,100%,0%);fill-opacity:1;" d="M 11.421875 15.988281 L 11.039062 15.972656 L 11.015625 15.40625 C 10.996094 14.953125 11 14.808594 11.042969 14.691406 C 11.070312 14.613281 11.324219 14.207031 11.605469 13.792969 C 11.882812 13.375 12.113281 13.019531 12.113281 13.003906 C 12.113281 12.984375 11.617188 12.972656 11.003906 12.976562 C 10.390625 12.976562 9.691406 12.976562 9.445312 12.976562 L 9 12.976562 L 9.011719 12.332031 C 9.023438 11.792969 9.035156 11.671875 9.089844 11.566406 C 9.128906 11.496094 9.890625 10.703125 10.789062 9.804688 C 12.132812 8.457031 12.449219 8.15625 12.601562 8.089844 C 12.769531 8.011719 12.832031 8.007812 13.378906 8.015625 C 13.707031 8.019531 13.976562 8.027344 13.980469 8.03125 C 13.984375 8.035156 13.996094 8.300781 14 8.617188 C 14.011719 9.0625 14 9.226562 13.960938 9.324219 C 13.933594 9.394531 13.6875 9.785156 13.414062 10.191406 C 13.144531 10.597656 12.910156 10.953125 12.898438 10.976562 C 12.875 11.011719 13.183594 11.023438 14.414062 11.023438 C 15.261719 11.019531 15.960938 11.023438 15.96875 11.03125 C 15.972656 11.039062 15.984375 11.308594 15.988281 11.636719 C 16 12.191406 15.992188 12.246094 15.917969 12.414062 C 15.851562 12.558594 15.523438 12.90625 14.21875 14.210938 C 12.449219 15.980469 12.453125 15.976562 12.027344 15.992188 C 11.90625 15.996094 11.632812 15.996094 11.421875 15.988281 Z M 11.421875 15.988281 "/>
<path style=" stroke:none;fill-rule:nonzero;fill:rgb(100%,100%,100%);fill-opacity:1;" d="M 2.089844 8.996094 L 2.089844 2.046875 L 4.039062 2.046875 L 4.066406 1.550781 C 4.09375 0.988281 4.269531 0.640625 4.691406 0.320312 C 5.058594 0.0390625 5.558594 -0.00390625 8.246094 0.0273438 C 10.371094 0.0507812 10.699219 0.0664062 10.933594 0.171875 C 11.5 0.421875 11.917969 0.996094 11.917969 1.53125 C 11.917969 2.066406 11.882812 2.046875 12.976562 2.046875 L 13.953125 2.046875 L 13.953125 6.929688 L 12.054688 6.929688 L 12.054688 3.945312 L 10.019531 3.945312 L 10.019531 1.980469 L 5.953125 1.980469 L 5.953125 3.945312 L 3.988281 3.945312 L 3.988281 14.046875 L 9.953125 14.046875 L 9.953125 15.945312 L 2.089844 15.945312 Z M 2.089844 8.996094 "/>
</g>
</svg>
