<?xml version="1.0" encoding="UTF-8"?>
<svg xmlns="http://www.w3.org/2000/svg" xmlns:xlink="http://www.w3.org/1999/xlink" width="16" height="16" viewBox="0 0 16 16" version="1.1">
<g id="surface1">
<path style=" stroke:none;fill-rule:nonzero;fill:rgb(93.72549%,16.078431%,16.078431%);fill-opacity:1;" d="M 5 11 L 5 13 L 8 13 L 8 11 Z M 5 11 "/>
<path style=" stroke:none;fill-rule:nonzero;fill:rgb(74.509804%,74.509804%,74.509804%);fill-opacity:1;" d="M 5.46875 0 C 4.980469 0 4.671875 0.226562 4.4375 0.46875 C 4.199219 0.710938 4 1.027344 4 1.5 L 4 2 L 2 2 L 2 16 L 10 16 L 10 14 L 4 14 L 4 4 L 6 4 L 6 2 L 10 2 L 10 4 L 12 4 L 12 7 L 14 7 L 14 2 L 12 2 L 12 1.5625 C 11.976562 1.132812 11.828125 0.839844 11.59375 0.5625 C 11.367188 0.296875 10.964844 0.03125 10.4375 0.03125 L 10.4375 0 Z M 5.46875 0 "/>
<path style=" stroke:none;fill-rule:nonzero;fill:rgb(74.509804%,74.509804%,74.509804%);fill-opacity:1;" d="M 12.878906 8 C 12.65625 8.023438 12.445312 8.125 12.285156 8.28125 L 9.285156 11.28125 C 8.992188 11.566406 8.898438 12.003906 9.054688 12.382812 C 9.210938 12.761719 9.585938 13.007812 9.996094 13 L 12.558594 13 L 11.277344 14.28125 C 11.015625 14.539062 10.914062 14.914062 11.007812 15.265625 C 11.101562 15.621094 11.375 15.894531 11.730469 15.988281 C 12.082031 16.082031 12.460938 15.980469 12.714844 15.71875 L 15.714844 12.71875 C 16.011719 12.433594 16.101562 11.992188 15.945312 11.613281 C 15.785156 11.234375 15.40625 10.988281 14.996094 11 L 12.433594 11 L 13.714844 9.71875 C 14.035156 9.417969 14.125 8.941406 13.929688 8.546875 C 13.738281 8.152344 13.308594 7.929688 12.875 8 Z M 12.878906 8 "/>
<path style=" stroke:none;fill-rule:nonzero;fill:rgb(74.509804%,74.509804%,74.509804%);fill-opacity:1;" d="M 15 11 L 16 11 L 16 12 L 15 12 Z M 15 11 "/>
<path style=" stroke:none;fill-rule:nonzero;fill:rgb(74.509804%,74.509804%,74.509804%);fill-opacity:1;" d="M 9 12 L 10 12 L 10 13 L 9 13 Z M 9 12 "/>
<path style=" stroke:none;fill-rule:nonzero;fill:rgb(74.509804%,74.509804%,74.509804%);fill-opacity:1;" d="M 13 8 L 14 8 L 14 9 L 13 9 Z M 13 8 "/>
<path style=" stroke:none;fill-rule:nonzero;fill:rgb(74.509804%,74.509804%,74.509804%);fill-opacity:1;" d="M 11 15 L 12 15 L 12 16 L 11 16 Z M 11 15 "/>
<path style=" stroke:none;fill-rule:nonzero;fill:rgb(74.509804%,74.509804%,74.509804%);fill-opacity:1;" d="M 12.160156 8.441406 L 10.160156 11.441406 L 11.847656 12.566406 L 13.847656 9.566406 Z M 12.160156 8.441406 "/>
<path style=" stroke:none;fill-rule:nonzero;fill:rgb(74.509804%,74.509804%,74.509804%);fill-opacity:1;" d="M 13.160156 11.441406 L 11.160156 14.441406 L 12.847656 15.566406 L 14.847656 12.566406 Z M 13.160156 11.441406 "/>
<path style=" stroke:none;fill-rule:nonzero;fill:rgb(0%,0%,0%);fill-opacity:1;" d="M 2.011719 8.996094 L 2.011719 2 L 4.007812 2 L 4.019531 1.589844 C 4.027344 1.242188 4.035156 1.164062 4.070312 1.058594 C 4.242188 0.589844 4.671875 0.179688 5.136719 0.0429688 C 5.25 0.0117188 5.464844 0.0078125 7.847656 0.00390625 C 9.625 -0.00390625 10.429688 0.00390625 10.429688 0.015625 C 10.429688 0.0273438 10.464844 0.0390625 10.503906 0.0390625 C 10.613281 0.0390625 10.878906 0.0976562 11.011719 0.152344 C 11.351562 0.289062 11.65625 0.582031 11.835938 0.945312 C 11.9375 1.148438 11.980469 1.351562 11.992188 1.695312 L 12.007812 2 L 14 2 L 14 6.992188 L 12 6.992188 L 12 4 L 9.996094 4 L 9.996094 2 L 5.992188 2 L 5.992188 4 L 3.992188 4 L 3.992188 14.007812 L 9.996094 14.007812 L 9.996094 15.992188 L 2.011719 15.992188 Z M 2.011719 8.996094 "/>
<path style=" stroke:none;fill-rule:nonzero;fill:rgb(100%,100%,0%);fill-opacity:1;" d="M 11.410156 15.996094 L 11.015625 15.988281 L 11.003906 15.414062 C 10.988281 14.757812 11 14.679688 11.148438 14.460938 C 11.191406 14.394531 11.429688 14.042969 11.675781 13.675781 L 12.125 13.007812 L 9.011719 12.996094 L 9 12.4375 C 8.992188 11.988281 8.996094 11.851562 9.019531 11.761719 C 9.09375 11.480469 9.042969 11.535156 10.78125 9.796875 C 12.289062 8.285156 12.410156 8.167969 12.535156 8.113281 C 12.761719 8.007812 12.828125 8 13.433594 8.003906 C 13.738281 8.003906 13.992188 8.007812 13.992188 8.007812 C 13.996094 8.011719 14 8.285156 14.003906 8.613281 C 14.011719 9.203125 14.011719 9.214844 13.960938 9.335938 C 13.933594 9.402344 13.683594 9.804688 13.398438 10.226562 C 13.117188 10.648438 12.886719 11 12.886719 11.007812 C 12.886719 11.015625 13.40625 11.019531 14.039062 11.015625 C 14.671875 11.015625 15.367188 11.015625 15.582031 11.015625 L 15.976562 11.015625 L 15.992188 11.589844 C 16.003906 12.128906 16 12.171875 15.964844 12.296875 C 15.941406 12.371094 15.894531 12.476562 15.855469 12.535156 C 15.777344 12.660156 12.691406 15.75 12.550781 15.84375 C 12.320312 16 12.230469 16.011719 11.410156 15.996094 Z M 11.410156 15.996094 "/>
<path style=" stroke:none;fill-rule:nonzero;fill:rgb(100%,100%,100%);fill-opacity:1;" d="M 2.019531 8.996094 L 2.019531 2.046875 L 4.054688 2.046875 L 4.054688 1.605469 C 4.054688 0.964844 4.292969 0.558594 4.898438 0.175781 C 5.082031 0.0585938 5.292969 0.046875 7.644531 0.0234375 C 9.378906 0.0078125 10.316406 0.0273438 10.59375 0.0820312 C 11.394531 0.234375 11.816406 0.691406 11.941406 1.535156 L 12.011719 2.046875 L 13.953125 2.046875 L 13.953125 6.929688 L 12.058594 6.929688 L 12.039062 5.453125 L 12.019531 3.980469 L 10.019531 3.941406 L 10.019531 1.980469 L 5.953125 1.980469 L 5.953125 3.945312 L 3.988281 3.945312 L 3.988281 14.046875 L 9.953125 14.046875 L 9.953125 15.945312 L 2.019531 15.945312 Z M 2.019531 8.996094 "/>
</g>
</svg>
