<?xml version="1.0" encoding="UTF-8"?>
<svg xmlns="http://www.w3.org/2000/svg" xmlns:xlink="http://www.w3.org/1999/xlink" width="16" height="16" viewBox="0 0 16 16" version="1.1">
<g id="surface1">
<path style=" stroke:none;fill-rule:nonzero;fill:rgb(74.509804%,74.509804%,74.509804%);fill-opacity:1;" d="M 5 11 L 5 13 L 11 13 L 11 11 Z M 5 11 "/>
<path style=" stroke:none;fill-rule:nonzero;fill:rgb(74.509804%,74.509804%,74.509804%);fill-opacity:1;" d="M 5.46875 0 C 4.976562 0 4.671875 0.226562 4.4375 0.46875 C 4.203125 0.710938 4 0.996094 4 1.46875 L 4 2 L 2 2 L 2 16 L 14 16 L 14 2 L 12 2 L 12 1.5625 C 11.976562 1.132812 11.828125 0.839844 11.59375 0.5625 C 11.371094 0.296875 10.96875 0.03125 10.4375 0.03125 L 10.4375 0 Z M 6 2 L 10 2 L 10 4 L 12 4 L 12 14 L 4 14 L 4 4 L 6 4 Z M 6 2 "/>
<path style=" stroke:none;fill-rule:nonzero;fill:rgb(100%,0%,0%);fill-opacity:1;" d="M 5.003906 12.007812 L 5.003906 11.015625 L 10.988281 11.015625 L 10.988281 13 L 5.003906 13 Z M 5.003906 12.007812 "/>
<path style=" stroke:none;fill-rule:nonzero;fill:rgb(0%,0%,0%);fill-opacity:1;" d="M 2.011719 8.996094 L 2.011719 2 L 4.007812 2 L 4.015625 1.589844 C 4.023438 1.242188 4.03125 1.164062 4.070312 1.046875 C 4.179688 0.710938 4.570312 0.285156 4.902344 0.132812 C 5.191406 0 5.003906 0.0078125 7.847656 0.00390625 C 9.625 -0.00390625 10.429688 0.00390625 10.429688 0.015625 C 10.429688 0.0273438 10.464844 0.0390625 10.503906 0.0390625 C 10.605469 0.0390625 10.871094 0.09375 10.996094 0.144531 C 11.355469 0.285156 11.726562 0.652344 11.867188 1.007812 C 11.953125 1.222656 11.980469 1.363281 11.992188 1.683594 L 12.007812 2 L 14 2 L 14 15.992188 L 2.011719 15.992188 Z M 12 9.003906 L 12 4 L 9.996094 4 L 9.996094 2 L 5.992188 2 L 5.992188 4 L 3.992188 4 L 3.992188 14.007812 L 12 14.007812 Z M 12 9.003906 "/>
<path style=" stroke:none;fill-rule:nonzero;fill:rgb(100%,100%,100%);fill-opacity:1;" d="M 2.019531 8.996094 L 2.019531 2.046875 L 4.054688 2.046875 L 4.054688 1.609375 C 4.054688 1.074219 4.113281 0.910156 4.4375 0.554688 C 4.902344 0.0390625 4.808594 0.0546875 7.613281 0.0234375 C 10.503906 -0.00390625 10.859375 0.03125 11.332031 0.390625 C 11.699219 0.667969 11.902344 1.070312 11.960938 1.628906 L 12.003906 2.046875 L 13.953125 2.046875 L 13.953125 15.945312 L 2.019531 15.945312 Z M 12.039062 9.011719 L 12.019531 3.980469 L 10.019531 3.941406 L 10.019531 1.980469 L 5.953125 1.980469 L 5.953125 3.945312 L 3.988281 3.945312 L 3.988281 14.046875 L 12.054688 14.046875 Z M 12.039062 9.011719 "/>
</g>
</svg>
