<?xml version="1.0" encoding="UTF-8"?>
<svg xmlns="http://www.w3.org/2000/svg" xmlns:xlink="http://www.w3.org/1999/xlink" width="16" height="16" viewBox="0 0 16 16" version="1.1">
<g id="surface1">
<path style=" stroke:none;fill-rule:nonzero;fill:rgb(74.509804%,74.509804%,74.509804%);fill-opacity:1;" d="M 5 5 L 5 7 L 11 7 L 11 5 Z M 5 8 L 5 10 L 9 10 L 9.25 9.875 L 11 8.125 L 11 8 Z M 5 11.0625 L 5 13 L 8 13 L 8 11.0625 Z M 5 11.0625 "/>
<path style=" stroke:none;fill-rule:nonzero;fill:rgb(74.509804%,74.509804%,74.509804%);fill-opacity:1;" d="M 5.46875 0 C 4.980469 0 4.671875 0.226562 4.4375 0.46875 C 4.199219 0.710938 4 1.027344 4 1.5 L 4 2 L 2 2 L 2 16 L 10 16 L 10 14 L 4 14 L 4 4 L 6 4 L 6 2 L 10 2 L 10 4 L 12 4 L 12 7 L 14 7 L 14 2 L 12 2 L 12 1.5625 C 11.976562 1.132812 11.828125 0.839844 11.59375 0.5625 C 11.367188 0.296875 10.964844 0.03125 10.4375 0.03125 L 10.4375 0 Z M 5.46875 0 "/>
<path style=" stroke:none;fill-rule:nonzero;fill:rgb(74.509804%,74.509804%,74.509804%);fill-opacity:1;" d="M 12.75 8 C 12.570312 8.046875 12.40625 8.148438 12.28125 8.28125 L 9.28125 11.25 C 9.046875 11.480469 8.9375 11.863281 9 12.1875 L 9 13 L 12.125 13 L 11.28125 14.25 C 11.128906 14.398438 11.035156 14.601562 11 14.8125 L 11 16 L 12 16 C 12.261719 16.003906 12.527344 15.871094 12.71875 15.6875 L 15.71875 12.6875 C 15.902344 12.496094 16.007812 12.265625 16 12 C 16.003906 11.957031 16.003906 11.917969 16 11.875 L 16 11 L 15.0625 11 C 15.042969 11 15.019531 11 15 11 L 12.875 11 L 13.71875 9.6875 C 13.871094 9.539062 13.964844 9.355469 14 9.15625 L 14 8 Z M 12.75 8 "/>
<path style=" stroke:none;fill-rule:nonzero;fill:rgb(0%,0%,0%);fill-opacity:1;" d="M 2.011719 8.996094 L 2.011719 2 L 4.007812 2 L 4.019531 1.589844 C 4.027344 1.242188 4.035156 1.164062 4.070312 1.058594 C 4.242188 0.589844 4.671875 0.179688 5.136719 0.0429688 C 5.25 0.0117188 5.464844 0.0078125 7.847656 0.00390625 C 9.625 -0.00390625 10.429688 0.00390625 10.429688 0.015625 C 10.429688 0.0273438 10.464844 0.0390625 10.503906 0.0390625 C 10.613281 0.0390625 10.878906 0.0976562 11.011719 0.152344 C 11.351562 0.289062 11.65625 0.582031 11.835938 0.945312 C 11.9375 1.148438 11.980469 1.351562 11.992188 1.695312 L 12.007812 2 L 14 2 L 14 6.992188 L 12 6.992188 L 12 4 L 9.996094 4 L 9.996094 2 L 5.992188 2 L 5.992188 4 L 3.992188 4 L 3.992188 14.007812 L 9.996094 14.007812 L 9.996094 15.992188 L 2.011719 15.992188 Z M 2.011719 8.996094 "/>
<path style=" stroke:none;fill-rule:nonzero;fill:rgb(100%,100%,0%);fill-opacity:1;" d="M 11.011719 15.34375 L 11.019531 14.699219 L 11.09375 14.542969 C 11.132812 14.460938 11.195312 14.355469 11.230469 14.316406 C 11.289062 14.25 12.125 13.027344 12.125 13.007812 C 12.125 13.003906 11.421875 13 10.566406 13 L 9.011719 13 L 9.003906 12.445312 C 8.992188 11.839844 9.003906 11.714844 9.101562 11.511719 C 9.167969 11.378906 9.445312 11.09375 11.230469 9.332031 C 12.359375 8.214844 12.4375 8.144531 12.578125 8.078125 L 12.730469 8.003906 L 14 8.003906 L 14 8.566406 C 14 9.160156 13.992188 9.246094 13.898438 9.429688 C 13.875 9.480469 13.816406 9.5625 13.773438 9.613281 C 13.667969 9.742188 12.867188 10.992188 12.882812 11.003906 C 12.886719 11.011719 13.585938 11.015625 14.4375 11.015625 L 15.980469 11.015625 L 15.984375 11.488281 C 15.996094 12.105469 15.980469 12.246094 15.898438 12.417969 C 15.839844 12.542969 15.699219 12.6875 14.199219 14.183594 C 12.792969 15.589844 12.550781 15.824219 12.445312 15.875 C 12.226562 15.980469 12.15625 15.992188 11.558594 15.992188 L 11.007812 15.992188 Z M 11.011719 15.34375 "/>
<path style=" stroke:none;fill-rule:nonzero;fill:rgb(100%,0%,0%);fill-opacity:1;" d="M 5.003906 12.039062 L 5.003906 11.078125 L 7.996094 11.078125 L 7.996094 13 L 5.003906 13 Z M 5.003906 12.039062 "/>
<path style=" stroke:none;fill-rule:nonzero;fill:rgb(100%,0%,0%);fill-opacity:1;" d="M 5.003906 8.996094 L 5.003906 8.003906 L 10.988281 8.003906 L 10.988281 8.0625 C 10.988281 8.109375 10.839844 8.261719 10.105469 8.996094 C 9.417969 9.683594 9.199219 9.890625 9.117188 9.929688 L 9.007812 9.984375 L 5.003906 9.984375 Z M 5.003906 8.996094 "/>
<path style=" stroke:none;fill-rule:nonzero;fill:rgb(100%,0%,0%);fill-opacity:1;" d="M 5.003906 6.003906 L 5.003906 5.011719 L 10.988281 5.011719 L 10.988281 6.992188 L 5.003906 6.992188 Z M 5.003906 6.003906 "/>
<path style=" stroke:none;fill-rule:nonzero;fill:rgb(100%,100%,100%);fill-opacity:1;" d="M 2.019531 8.996094 L 2.019531 2.046875 L 4.054688 2.046875 L 4.054688 1.605469 C 4.054688 0.964844 4.292969 0.558594 4.898438 0.175781 C 5.082031 0.0585938 5.292969 0.046875 7.644531 0.0234375 C 9.378906 0.0078125 10.316406 0.0273438 10.59375 0.0820312 C 11.394531 0.234375 11.816406 0.691406 11.941406 1.535156 L 12.011719 2.046875 L 13.953125 2.046875 L 13.953125 6.929688 L 12.058594 6.929688 L 12.039062 5.453125 L 12.019531 3.980469 L 10.019531 3.941406 L 10.019531 1.980469 L 5.953125 1.980469 L 5.953125 3.945312 L 3.988281 3.945312 L 3.988281 14.046875 L 9.953125 14.046875 L 9.953125 15.945312 L 2.019531 15.945312 Z M 2.019531 8.996094 "/>
</g>
</svg>
