<?xml version="1.0" encoding="UTF-8"?>
<svg xmlns="http://www.w3.org/2000/svg" xmlns:xlink="http://www.w3.org/1999/xlink" width="16" height="16" viewBox="0 0 16 16" version="1.1">
<g id="surface1">
<path style=" stroke:none;fill-rule:nonzero;fill:rgb(100%,100%,100%);fill-opacity:1;" d="M 5.46875 0 C 4.976562 0 4.671875 0.226562 4.4375 0.46875 C 4.199219 0.710938 4 1.027344 4 1.5 L 4 2 L 2 2 L 2 16 L 14 16 L 14 2 L 12 2 L 12 1.5625 C 11.976562 1.132812 11.828125 0.839844 11.59375 0.5625 C 11.367188 0.296875 10.96875 0.03125 10.4375 0.03125 L 10.4375 0 Z M 6 2 L 10 2 L 10 4 L 12 4 L 12 14 L 4 14 L 4 4 L 6 4 Z M 6 2 "/>
</g>
</svg>
