<?xml version="1.0" encoding="UTF-8"?>
<svg xmlns="http://www.w3.org/2000/svg" xmlns:xlink="http://www.w3.org/1999/xlink" width="16" height="16" viewBox="0 0 16 16" version="1.1">
<g id="surface1">
<path style=" stroke:none;fill-rule:nonzero;fill:rgb(80%,0%,0%);fill-opacity:1;" d="M 5 11 L 5 13 L 7 13 L 7 11 Z M 5 11 "/>
<path style=" stroke:none;fill-rule:nonzero;fill:rgb(74.509804%,74.509804%,74.509804%);fill-opacity:1;" d="M 5.46875 0 C 4.980469 0 4.671875 0.226562 4.4375 0.46875 C 4.199219 0.710938 4 1.027344 4 1.5 L 4 2 L 2 2 L 2 16 L 7 16 L 7 14 L 4 14 L 4 4 L 6 4 L 6 2 L 10 2 L 10 4 L 12 4 L 12 7 L 14 7 L 14 2 L 12 2 L 12 1.5625 C 11.976562 1.132812 11.828125 0.839844 11.59375 0.5625 C 11.367188 0.296875 10.964844 0.03125 10.4375 0.03125 L 10.4375 0 Z M 5.46875 0 "/>
<path style=" stroke:none;fill-rule:nonzero;fill:rgb(96.078431%,47.45098%,0%);fill-opacity:1;" d="M 8.878906 8 C 8.386719 8 8.003906 8.382812 8.003906 8.875 L 8.003906 15.125 C 8.003906 15.617188 8.386719 16 8.878906 16 L 15.128906 16 C 15.621094 16 16.003906 15.617188 16.003906 15.125 L 16.003906 8.875 C 16.003906 8.382812 15.621094 8 15.128906 8 Z M 11.003906 9 L 13.003906 9 L 13.003906 13 L 11.003906 13 Z M 11.003906 14 L 13.003906 14 L 13.003906 15 L 11.003906 15 Z M 11.003906 14 "/>
<path style=" stroke:none;fill-rule:nonzero;fill:rgb(0%,0%,0%);fill-opacity:1;" d="M 2.027344 9.007812 L 2.027344 2.011719 L 4.015625 2.011719 L 4.015625 1.65625 C 4.015625 1.246094 4.078125 0.988281 4.238281 0.734375 C 4.386719 0.507812 4.675781 0.25 4.917969 0.132812 L 5.117188 0.0390625 L 7.703125 0.03125 C 9.371094 0.0234375 10.390625 0.03125 10.578125 0.0546875 C 11.140625 0.132812 11.582031 0.445312 11.832031 0.949219 C 11.9375 1.164062 11.953125 1.230469 11.96875 1.589844 L 11.988281 1.992188 L 12.992188 2 L 13.996094 2.011719 L 13.996094 7 L 12.007812 7 L 12.007812 4 L 10.015625 4 L 10.015625 1.976562 L 6.003906 1.976562 L 6.003906 4 L 3.980469 4 L 3.980469 14.015625 L 6.980469 14.015625 L 6.980469 16.003906 L 2.027344 16.003906 Z M 2.027344 9.007812 "/>
<path style=" stroke:none;fill-rule:nonzero;fill:rgb(100%,100%,100%);fill-opacity:1;" d="M 2.089844 8.996094 L 2.089844 2.046875 L 4.054688 2.046875 L 4.054688 1.636719 C 4.054688 1.007812 4.234375 0.660156 4.757812 0.273438 L 5.023438 0.0820312 L 7.808594 0.0820312 C 9.429688 0.0820312 10.695312 0.109375 10.835938 0.148438 C 11.398438 0.304688 11.855469 0.84375 11.898438 1.398438 C 11.953125 2.105469 11.855469 2.046875 12.972656 2.046875 L 13.953125 2.046875 L 13.953125 6.996094 L 12.054688 6.996094 L 12.054688 3.945312 L 10.019531 3.945312 L 10.019531 1.910156 L 8.003906 1.929688 L 5.988281 1.945312 L 5.96875 2.945312 L 5.949219 3.941406 L 4.949219 3.960938 L 3.953125 3.980469 L 3.933594 9.011719 L 3.917969 14.046875 L 6.96875 14.046875 L 6.96875 15.945312 L 2.089844 15.945312 Z M 2.089844 8.996094 "/>
</g>
</svg>
