<?xml version="1.0" encoding="UTF-8"?>
<svg xmlns="http://www.w3.org/2000/svg" xmlns:xlink="http://www.w3.org/1999/xlink" width="16" height="16" viewBox="0 0 16 16" version="1.1">
<g id="surface1">
<path style=" stroke:none;fill-rule:nonzero;fill:rgb(100%,100%,100%);fill-opacity:1;" d="M 7.921875 0.679688 C 7.664062 0.742188 7.46875 0.957031 7.433594 1.222656 C 7.433594 1.234375 7.433594 1.242188 7.433594 1.253906 C 7.425781 1.261719 7.414062 1.269531 7.40625 1.28125 C 7.402344 1.300781 7.402344 1.320312 7.40625 1.335938 C 7.386719 1.382812 7.378906 1.433594 7.375 1.480469 L 7.40625 6.441406 L 5.742188 4.75 C 5.597656 4.539062 5.339844 4.433594 5.085938 4.480469 C 4.832031 4.53125 4.632812 4.722656 4.578125 4.976562 C 4.519531 5.226562 4.617188 5.484375 4.824219 5.640625 L 7.148438 7.988281 L 4.824219 10.3125 C 4.570312 10.566406 4.570312 10.976562 4.824219 11.230469 C 5.078125 11.484375 5.488281 11.484375 5.742188 11.230469 L 7.433594 9.507812 L 7.460938 14.46875 C 7.46875 14.507812 7.476562 14.546875 7.492188 14.582031 C 7.492188 14.59375 7.492188 14.601562 7.492188 14.613281 C 7.460938 14.882812 7.601562 15.144531 7.847656 15.265625 C 8.089844 15.386719 8.382812 15.34375 8.582031 15.15625 L 11.792969 11.714844 C 12.019531 11.460938 12.007812 11.070312 11.761719 10.828125 L 8.953125 7.988281 L 11.761719 5.121094 C 12.007812 4.878906 12.019531 4.492188 11.792969 4.234375 L 8.523438 0.878906 C 8.371094 0.710938 8.144531 0.636719 7.921875 0.679688 Z M 8.292969 2.484375 L 10.414062 4.664062 L 8.324219 6.785156 Z M 8.351562 9.222656 L 10.414062 11.285156 L 8.378906 13.464844 Z M 8.351562 9.222656 "/>
</g>
</svg>
