<?xml version="1.0" encoding="UTF-8"?>
<svg xmlns="http://www.w3.org/2000/svg" xmlns:xlink="http://www.w3.org/1999/xlink" width="16" height="16" viewBox="0 0 16 16" version="1.1">
<g id="surface1">
<path style=" stroke:none;fill-rule:nonzero;fill:rgb(100%,100%,100%);fill-opacity:1;" d="M 8 0.667969 C 7.972656 0.667969 7.945312 0.671875 7.917969 0.675781 C 7.660156 0.742188 7.472656 0.957031 7.4375 1.21875 C 7.4375 1.230469 7.4375 1.238281 7.4375 1.25 C 7.425781 1.261719 7.417969 1.269531 7.40625 1.28125 C 7.40625 1.300781 7.40625 1.316406 7.40625 1.332031 C 7.386719 1.378906 7.378906 1.429688 7.375 1.480469 L 7.40625 6.4375 L 5.738281 4.75 C 5.597656 4.535156 5.335938 4.425781 5.082031 4.472656 C 4.828125 4.519531 4.625 4.714844 4.570312 4.96875 C 4.511719 5.222656 4.613281 5.484375 4.824219 5.636719 L 7.144531 7.988281 L 4.824219 10.3125 C 4.648438 10.472656 4.574219 10.71875 4.632812 10.949219 C 4.691406 11.179688 4.871094 11.359375 5.101562 11.417969 C 5.332031 11.476562 5.578125 11.40625 5.738281 11.230469 L 7.4375 9.511719 L 7.457031 14.46875 C 7.464844 14.507812 7.472656 14.546875 7.488281 14.582031 C 7.488281 14.59375 7.488281 14.605469 7.488281 14.613281 C 7.457031 14.886719 7.601562 15.148438 7.847656 15.269531 C 8.089844 15.390625 8.386719 15.34375 8.582031 15.15625 L 11.792969 11.71875 C 12.023438 11.460938 12.007812 11.066406 11.761719 10.824219 L 8.957031 7.988281 L 11.761719 5.125 C 12.007812 4.882812 12.023438 4.488281 11.792969 4.230469 L 8.519531 0.875 C 8.386719 0.730469 8.195312 0.652344 8 0.667969 Z M 8.292969 2.488281 L 10.417969 4.667969 L 8.324219 6.78125 Z M 12.738281 5.574219 C 12.46875 5.574219 12.203125 5.65625 11.988281 5.84375 C 11.777344 6.03125 11.636719 6.332031 11.636719 6.675781 L 11.636719 7.199219 L 11.625 7.199219 C 11.316406 7.199219 11.0625 7.453125 11.0625 7.761719 L 11.0625 9.40625 C 11.0625 9.714844 11.316406 9.96875 11.625 9.96875 L 13.832031 9.96875 C 14.140625 9.96875 14.386719 9.714844 14.386719 9.40625 L 14.386719 7.761719 C 14.386719 7.457031 14.152344 7.207031 13.855469 7.199219 L 13.855469 6.675781 C 13.855469 6.332031 13.703125 6.03125 13.488281 5.84375 C 13.277344 5.65625 13.007812 5.574219 12.738281 5.574219 Z M 12.738281 6.125 C 12.886719 6.125 13.027344 6.171875 13.125 6.261719 C 13.222656 6.347656 13.300781 6.46875 13.300781 6.675781 L 13.300781 7.199219 L 12.1875 7.199219 L 12.1875 6.675781 C 12.1875 6.46875 12.253906 6.347656 12.355469 6.261719 C 12.453125 6.171875 12.59375 6.125 12.738281 6.125 Z M 8.355469 9.21875 L 10.417969 11.292969 L 8.375 13.46875 Z M 8.355469 9.21875 "/>
</g>
</svg>
