<?xml version="1.0" encoding="UTF-8"?>
<svg xmlns="http://www.w3.org/2000/svg" xmlns:xlink="http://www.w3.org/1999/xlink" width="16" height="16" viewBox="0 0 16 16" version="1.1">
<g id="surface1">
<path style=" stroke:none;fill-rule:nonzero;fill:rgb(100%,100%,100%);fill-opacity:1;" d="M 0.5 7 L 2.5 7 C 2.777344 7 3 7.222656 3 7.5 L 3 8.5 C 3 8.777344 2.777344 9 2.5 9 L 0.5 9 C 0.222656 9 0 8.777344 0 8.5 L 0 7.5 C 0 7.222656 0.222656 7 0.5 7 Z M 0.5 7 "/>
<path style=" stroke:none;fill-rule:nonzero;fill:rgb(100%,100%,100%);fill-opacity:1;" d="M 13.5 7 L 15.5 7 C 15.777344 7 16 7.222656 16 7.5 L 16 8.5 C 16 8.777344 15.777344 9 15.5 9 L 13.5 9 C 13.222656 9 13 8.777344 13 8.5 L 13 7.5 C 13 7.222656 13.222656 7 13.5 7 Z M 13.5 7 "/>
<path style=" stroke:none;fill-rule:nonzero;fill:rgb(100%,100%,100%);fill-opacity:1;" d="M 1.984375 12.597656 L 3.398438 11.183594 C 3.59375 10.988281 3.914062 10.988281 4.109375 11.183594 L 4.8125 11.890625 C 5.007812 12.085938 5.007812 12.402344 4.8125 12.597656 L 3.398438 14.011719 C 3.203125 14.207031 2.886719 14.207031 2.695312 14.011719 L 1.984375 13.304688 C 1.789062 13.109375 1.789062 12.792969 1.984375 12.597656 Z M 1.984375 12.597656 "/>
<path style=" stroke:none;fill-rule:nonzero;fill:rgb(100%,100%,100%);fill-opacity:1;" d="M 11.179688 3.40625 L 12.59375 1.992188 C 12.789062 1.796875 13.105469 1.796875 13.300781 1.992188 L 14.007812 2.695312 C 14.203125 2.890625 14.203125 3.210938 14.007812 3.40625 L 12.59375 4.820312 C 12.398438 5.015625 12.082031 5.015625 11.886719 4.820312 L 11.179688 4.109375 C 10.984375 3.914062 10.984375 3.601562 11.179688 3.40625 Z M 11.179688 3.40625 "/>
<path style=" stroke:none;fill-rule:nonzero;fill:rgb(100%,100%,100%);fill-opacity:1;" d="M 7 15.5 L 7 13.5 C 7 13.222656 7.222656 13 7.5 13 L 8.5 13 C 8.777344 13 9 13.222656 9 13.5 L 9 15.5 C 9 15.777344 8.777344 16 8.5 16 L 7.5 16 C 7.222656 16 7 15.777344 7 15.5 Z M 7 15.5 "/>
<path style=" stroke:none;fill-rule:nonzero;fill:rgb(100%,100%,100%);fill-opacity:1;" d="M 7 2.5 L 7 0.5 C 7 0.222656 7.222656 0 7.5 0 L 8.5 0 C 8.777344 0 9 0.222656 9 0.5 L 9 2.5 C 9 2.777344 8.777344 3 8.5 3 L 7.5 3 C 7.222656 3 7 2.777344 7 2.5 Z M 7 2.5 "/>
<path style=" stroke:none;fill-rule:nonzero;fill:rgb(100%,100%,100%);fill-opacity:1;" d="M 12.59375 14.011719 L 11.179688 12.597656 C 10.984375 12.402344 10.984375 12.085938 11.179688 11.890625 L 11.886719 11.183594 C 12.082031 10.988281 12.398438 10.988281 12.59375 11.183594 L 14.007812 12.597656 C 14.203125 12.792969 14.203125 13.109375 14.007812 13.304688 L 13.300781 14.011719 C 13.105469 14.207031 12.789062 14.207031 12.59375 14.011719 Z M 12.59375 14.011719 "/>
<path style=" stroke:none;fill-rule:nonzero;fill:rgb(100%,100%,100%);fill-opacity:1;" d="M 3.398438 4.820312 L 1.984375 3.40625 C 1.789062 3.210938 1.789062 2.890625 1.988281 2.695312 L 2.695312 1.992188 C 2.890625 1.796875 3.203125 1.796875 3.398438 1.992188 L 4.8125 3.40625 C 5.007812 3.601562 5.007812 3.914062 4.8125 4.109375 L 4.109375 4.820312 C 3.914062 5.015625 3.59375 5.015625 3.398438 4.820312 Z M 3.398438 4.820312 "/>
<path style=" stroke:none;fill-rule:nonzero;fill:rgb(100%,100%,100%);fill-opacity:1;" d="M 7.988281 4.007812 C 5.792969 4.007812 4.007812 5.792969 4.007812 7.988281 C 4.007812 10.1875 5.792969 11.996094 7.988281 11.996094 C 10.1875 11.996094 11.996094 10.1875 11.996094 7.988281 C 11.996094 5.792969 10.1875 4.007812 7.988281 4.007812 Z M 7.988281 6 C 9.105469 6 10.007812 6.875 10.007812 7.988281 C 10.007812 9.105469 9.105469 10.007812 7.988281 10.007812 C 6.871094 10.007812 6 9.105469 6 7.988281 C 6 6.871094 6.871094 6 7.988281 6 Z M 7.988281 6 "/>
</g>
</svg>
