<?xml version="1.0" encoding="UTF-8"?>
<svg xmlns="http://www.w3.org/2000/svg" xmlns:xlink="http://www.w3.org/1999/xlink" width="16" height="16" viewBox="0 0 16 16" version="1.1">
<g id="surface1">
<path style=" stroke:none;fill-rule:nonzero;fill:rgb(100%,100%,100%);fill-opacity:1;" d="M 8 6.273438 C 5.957031 6.273438 4.109375 7.101562 2.769531 8.441406 C 2.738281 8.472656 2.71875 8.519531 2.71875 8.5625 C 2.71875 8.605469 2.738281 8.640625 2.769531 8.667969 L 3.789062 9.691406 C 3.820312 9.722656 3.855469 9.738281 3.898438 9.738281 C 3.941406 9.738281 3.988281 9.722656 4.015625 9.691406 C 5.039062 8.667969 6.441406 8.035156 8 8.035156 C 9.558594 8.035156 10.964844 8.667969 11.984375 9.691406 C 12.011719 9.722656 12.058594 9.738281 12.101562 9.738281 C 12.144531 9.738281 12.183594 9.722656 12.210938 9.691406 L 13.230469 8.667969 C 13.261719 8.640625 13.28125 8.605469 13.28125 8.5625 C 13.28125 8.519531 13.261719 8.472656 13.230469 8.441406 C 11.890625 7.101562 10.042969 6.273438 8 6.273438 Z M 8 9.164062 C 6.757812 9.164062 5.632812 9.679688 4.820312 10.492188 C 4.789062 10.523438 4.769531 10.558594 4.769531 10.601562 C 4.769531 10.644531 4.789062 10.691406 4.820312 10.722656 L 5.839844 11.730469 C 5.902344 11.789062 5.996094 11.789062 6.058594 11.730469 C 6.554688 11.234375 7.242188 10.929688 8 10.929688 C 8.757812 10.929688 9.445312 11.234375 9.941406 11.730469 C 10.003906 11.789062 10.097656 11.789062 10.160156 11.730469 L 11.179688 10.722656 C 11.210938 10.691406 11.230469 10.644531 11.230469 10.601562 C 11.230469 10.558594 11.210938 10.523438 11.179688 10.492188 C 10.367188 9.679688 9.242188 9.164062 8 9.164062 Z M 8 12.070312 C 7.554688 12.070312 7.160156 12.253906 6.871094 12.542969 C 6.8125 12.605469 6.8125 12.703125 6.871094 12.761719 L 7.890625 13.785156 C 7.953125 13.839844 8.046875 13.839844 8.109375 13.785156 L 9.128906 12.761719 C 9.1875 12.703125 9.1875 12.605469 9.128906 12.542969 C 8.839844 12.253906 8.445312 12.070312 8 12.070312 Z M 8 12.070312 "/>
</g>
</svg>
