<?xml version="1.0" encoding="UTF-8"?>
<svg xmlns="http://www.w3.org/2000/svg" xmlns:xlink="http://www.w3.org/1999/xlink" width="16" height="16" viewBox="0 0 16 16" version="1.1">
<g id="surface1">
<path style=" stroke:none;fill-rule:nonzero;fill:rgb(100%,100%,100%);fill-opacity:1;" d="M 0.472656 10 L 2.5 10 C 2.761719 10 2.972656 10.222656 2.972656 10.5 L 2.972656 11.5 C 2.972656 11.777344 2.761719 12 2.5 12 L 0.472656 12 C 0.210938 12 0 11.777344 0 11.5 L 0 10.5 C 0 10.222656 0.210938 10 0.472656 10 Z M 0.472656 10 "/>
<path style=" stroke:none;fill-rule:nonzero;fill:rgb(100%,100%,100%);fill-opacity:1;" d="M 13.480469 10 L 15.496094 10 C 15.773438 10 15.996094 10.222656 15.996094 10.5 L 15.996094 11.5 C 15.996094 11.777344 15.773438 12 15.496094 12 L 13.480469 12 C 13.203125 12 12.980469 11.777344 12.980469 11.5 L 12.980469 10.5 C 12.980469 10.222656 13.203125 10 13.480469 10 Z M 13.480469 10 "/>
<path style=" stroke:none;fill-rule:nonzero;fill:rgb(100%,100%,100%);fill-opacity:1;" d="M 11.175781 6.417969 L 12.601562 4.992188 C 12.796875 4.796875 13.113281 4.796875 13.308594 4.992188 L 14.015625 5.699219 C 14.210938 5.894531 14.210938 6.210938 14.015625 6.40625 L 12.589844 7.832031 C 12.394531 8.027344 12.078125 8.027344 11.882812 7.832031 L 11.175781 7.125 C 10.980469 6.929688 10.980469 6.613281 11.175781 6.417969 Z M 11.175781 6.417969 "/>
<path style=" stroke:none;fill-rule:nonzero;fill:rgb(100%,100%,100%);fill-opacity:1;" d="M 3.410156 7.832031 L 1.984375 6.40625 C 1.789062 6.210938 1.789062 5.894531 1.984375 5.699219 L 2.691406 4.992188 C 2.886719 4.796875 3.203125 4.796875 3.398438 4.992188 L 4.824219 6.417969 C 5.019531 6.613281 5.019531 6.929688 4.824219 7.125 L 4.117188 7.832031 C 3.921875 8.027344 3.605469 8.027344 3.410156 7.832031 Z M 3.410156 7.832031 "/>
<path style=" stroke:none;fill-rule:nonzero;fill:rgb(100%,100%,100%);fill-opacity:1;" d="M 7 5.5 L 7 3.5 C 7 3.222656 7.222656 3 7.5 3 L 8.5 3 C 8.777344 3 9 3.222656 9 3.5 L 9 5.5 C 9 5.777344 8.777344 6 8.5 6 L 7.5 6 C 7.222656 6 7 5.777344 7 5.5 Z M 7 5.5 "/>
<path style=" stroke:none;fill-rule:nonzero;fill:rgb(100%,100%,100%);fill-opacity:1;" d="M 6.25 9 C 6.082031 9.007812 5.929688 9.117188 5.875 9.261719 L 5.039062 11.476562 C 4.9375 11.710938 5.164062 12.007812 5.441406 12 C 5.441406 12 6.511719 12 8.007812 12 C 9.507812 12 10.574219 12 10.574219 12 C 10.855469 12.003906 11.082031 11.710938 10.980469 11.476562 L 10.144531 9.261719 C 10.070312 9.066406 9.808594 8.953125 9.59375 9.027344 C 9.382812 9.09375 8.773438 9.289062 8.007812 9.289062 C 7.242188 9.289062 6.636719 9.09375 6.421875 9.027344 C 6.367188 9.007812 6.308594 8.996094 6.25 9 Z M 6.25 9 "/>
</g>
</svg>
