<?xml version="1.0" encoding="UTF-8"?>
<svg xmlns="http://www.w3.org/2000/svg" xmlns:xlink="http://www.w3.org/1999/xlink" width="16" height="16" viewBox="0 0 16 16" version="1.1">
<g id="surface1">
<path style=" stroke:none;fill-rule:nonzero;fill:rgb(100%,100%,100%);fill-opacity:1;" d="M 5.953125 0.667969 C 5.683594 0.695312 5.476562 0.921875 5.476562 1.195312 L 5.476562 8.628906 C 5.472656 8.796875 5.550781 8.957031 5.683594 9.058594 L 8.09375 10.863281 C 8.292969 11.019531 8.578125 11.007812 8.769531 10.839844 L 10.769531 9.070312 C 10.886719 8.96875 10.957031 8.820312 10.957031 8.667969 L 10.957031 4.5 C 10.957031 4.203125 10.714844 3.960938 10.414062 3.960938 C 10.117188 3.960938 9.875 4.203125 9.875 4.5 L 9.875 8.433594 L 8.386719 9.746094 L 6.542969 8.359375 L 6.542969 1.738281 L 11.25 1.738281 L 11.25 11.761719 L 8.3125 14.132812 L 4.972656 11.886719 L 4.972656 4.625 C 4.980469 4.425781 4.878906 4.242188 4.710938 4.140625 C 4.542969 4.042969 4.332031 4.042969 4.164062 4.140625 C 3.996094 4.242188 3.894531 4.425781 3.902344 4.625 L 3.902344 12.167969 C 3.902344 12.34375 3.992188 12.511719 4.136719 12.609375 L 8.03125 15.238281 C 8.226562 15.371094 8.484375 15.363281 8.667969 15.214844 L 12.121094 12.425781 C 12.253906 12.324219 12.328125 12.171875 12.332031 12.007812 L 12.332031 1.195312 C 12.328125 0.902344 12.085938 0.664062 11.789062 0.667969 L 6.015625 0.667969 C 5.996094 0.667969 5.976562 0.667969 5.953125 0.667969 Z M 5.953125 0.667969 "/>
</g>
</svg>
