<?xml version="1.0" encoding="UTF-8"?>
<svg xmlns="http://www.w3.org/2000/svg" xmlns:xlink="http://www.w3.org/1999/xlink" width="16" height="16" viewBox="0 0 16 16" version="1.1">
<g id="surface1">
<path style=" stroke:none;fill-rule:nonzero;fill:rgb(100%,100%,100%);fill-opacity:1;" d="M 12 3 C 10.355469 3 9 4.355469 9 6 L 9 10 C 9 10.570312 8.570312 11 8 11 L 2 11 L 2 13 L 8 13 C 9.644531 13 11 11.644531 11 10 L 11 6 C 11 5.429688 11.429688 5 12 5 L 15 5 L 15 3 Z M 12 3 "/>
<path style=" stroke:none;fill-rule:nonzero;fill:rgb(100%,100%,100%);fill-opacity:1;" d="M 3.878906 9 C 3.65625 9.023438 3.445312 9.125 3.285156 9.28125 L 1.285156 11.28125 L 0.597656 12 L 1.285156 12.71875 L 3.285156 14.71875 C 3.542969 14.980469 3.917969 15.082031 4.273438 14.988281 C 4.625 14.894531 4.898438 14.617188 4.992188 14.265625 C 5.085938 13.914062 4.984375 13.539062 4.722656 13.28125 L 3.433594 12 L 4.714844 10.71875 C 5.039062 10.417969 5.125 9.945312 4.933594 9.546875 C 4.738281 9.152344 4.308594 8.929688 3.875 9 Z M 3.878906 9 "/>
<path style=" stroke:none;fill-rule:nonzero;fill:rgb(100%,100%,100%);fill-opacity:1;" d="M 3.878906 1 C 3.65625 1.023438 3.445312 1.125 3.285156 1.28125 L 1.285156 3.28125 L 0.597656 4 L 1.285156 4.71875 L 3.285156 6.71875 C 3.542969 6.980469 3.917969 7.082031 4.273438 6.988281 C 4.625 6.894531 4.898438 6.617188 4.992188 6.265625 C 5.085938 5.914062 4.984375 5.539062 4.722656 5.28125 L 3.433594 4 L 4.714844 2.71875 C 5.039062 2.421875 5.125 1.945312 4.933594 1.546875 C 4.738281 1.152344 4.308594 0.929688 3.875 1 Z M 3.878906 1 "/>
<path style=" stroke:none;fill-rule:nonzero;fill:rgb(100%,100%,100%);fill-opacity:1;" d="M 8 3 C 8.230469 3 8.441406 3.042969 8.65625 3.09375 C 8.175781 3.644531 7.796875 4.273438 7.625 5 L 2 5 L 2 3 Z M 15 11 L 15 13 L 12 13 C 11.769531 13 11.558594 12.957031 11.34375 12.90625 C 11.824219 12.355469 12.203125 11.726562 12.375 11 Z M 15 11 "/>
<path style=" stroke:none;fill-rule:nonzero;fill:rgb(100%,100%,100%);fill-opacity:1;" d="M 5 9 L 4 9 L 4 10 L 5 10 Z M 5 9 "/>
<path style=" stroke:none;fill-rule:nonzero;fill:rgb(100%,100%,100%);fill-opacity:1;" d="M 5 14 L 4 14 L 4 15 L 5 15 Z M 5 14 "/>
<path style=" stroke:none;fill-rule:nonzero;fill:rgb(100%,100%,100%);fill-opacity:1;" d="M 5 1 L 4 1 L 4 2 L 5 2 Z M 5 1 "/>
<path style=" stroke:none;fill-rule:nonzero;fill:rgb(100%,100%,100%);fill-opacity:1;" d="M 5 6 L 4 6 L 4 7 L 5 7 Z M 5 6 "/>
</g>
</svg>
