<?xml version="1.0" encoding="UTF-8"?>
<svg xmlns="http://www.w3.org/2000/svg" xmlns:xlink="http://www.w3.org/1999/xlink" width="16" height="16" viewBox="0 0 16 16" version="1.1">
<g id="surface1">
<path style=" stroke:none;fill-rule:nonzero;fill:rgb(100%,100%,100%);fill-opacity:1;" d="M 9.875 9 C 9.652344 9.023438 9.441406 9.125 9.28125 9.28125 L 7.28125 11.28125 L 6.59375 12 L 7.28125 12.71875 L 9.28125 14.71875 C 9.539062 14.980469 9.914062 15.082031 10.265625 14.988281 C 10.617188 14.894531 10.894531 14.617188 10.988281 14.265625 C 11.082031 13.914062 10.980469 13.539062 10.71875 13.28125 L 9.4375 12 L 10.71875 10.722656 C 11.042969 10.421875 11.132812 9.945312 10.9375 9.546875 C 10.742188 9.152344 10.3125 8.929688 9.875 9 Z M 9.875 9 "/>
<path style=" stroke:none;fill-rule:nonzero;fill:rgb(100%,100%,100%);fill-opacity:1;" d="M 1 9.007812 L 1 10.003906 C 1 11.648438 2.355469 13.003906 4 13.003906 L 5 13.003906 L 5 11.003906 L 4 11.003906 C 3.429688 11.003906 3 10.574219 3 10.003906 L 3 9.019531 Z M 9.007812 5 L 12 5 C 12.570312 5 13 5.429688 13 6 L 13 10 C 13 10.570312 12.570312 11 12 11 L 8 11 L 8 13 L 12 13 C 13.644531 13 15 11.644531 15 10 L 15 6 C 15 4.355469 13.644531 3 12 3 L 9.019531 3 Z M 9.007812 5 "/>
<path style=" stroke:none;fill-rule:nonzero;fill:rgb(100%,100%,100%);fill-opacity:1;" d="M 10 9 L 11 9 L 11 10 L 10 10 Z M 10 9 "/>
<path style=" stroke:none;fill-rule:nonzero;fill:rgb(100%,100%,100%);fill-opacity:1;" d="M 10 14 L 11 14 L 11 15 L 10 15 Z M 10 14 "/>
<path style=" stroke:none;fill-rule:nonzero;fill:rgb(100%,100%,100%);fill-opacity:1;" d="M 4 0 C 1.789062 0 0 1.789062 0 4 C 0 6.210938 1.789062 8 4 8 C 6.210938 8 8 6.210938 8 4 C 8 1.789062 6.210938 0 4 0 Z M 3 2 L 5 2 L 5 6 L 3 6 L 3 4 L 2 4 L 2 3 Z M 3 2 "/>
</g>
</svg>
