<?xml version="1.0" encoding="UTF-8"?>
<svg xmlns="http://www.w3.org/2000/svg" xmlns:xlink="http://www.w3.org/1999/xlink" width="16" height="16" viewBox="0 0 16 16" version="1.1">
<defs>
<clipPath id="clip1">
  <path d="M 1 5.515625 L 10.03125 5.515625 L 10.03125 13.03125 L 1 13.03125 Z M 1 5.515625 "/>
</clipPath>
</defs>
<g id="surface1">
<path style=" stroke:none;fill-rule:nonzero;fill:rgb(100%,100%,100%);fill-opacity:1;" d="M 5.5 0.992188 C 6.882812 0.992188 8 2.109375 8 3.492188 L 8 8.503906 C 8 9.882812 6.882812 11.003906 5.5 11.003906 C 4.117188 11.003906 3 9.882812 3 8.503906 L 3 3.492188 C 3 2.109375 4.117188 0.992188 5.5 0.992188 Z M 5.5 0.992188 "/>
<g clip-path="url(#clip1)" clip-rule="nonzero">
<path style=" stroke:none;fill-rule:nonzero;fill:rgb(100%,100%,100%);fill-opacity:1;" d="M 5.511719 -1.867188 C 3.023438 -1.867188 1.007812 0.164062 1.007812 2.664062 L 1.007812 8.476562 C 1.007812 10.980469 3.023438 13.007812 5.511719 13.007812 C 7.996094 13.007812 10.015625 10.980469 10.015625 8.476562 L 10.015625 2.664062 C 10.015625 0.164062 7.996094 -1.867188 5.511719 -1.867188 Z M 5.511719 -0.867188 C 7.460938 -0.867188 9.019531 0.703125 9.019531 2.664062 L 9.019531 8.476562 C 9.019531 10.441406 7.460938 12.007812 5.511719 12.007812 C 3.558594 12.007812 2 10.441406 2 8.476562 L 2 2.664062 C 2 0.703125 3.558594 -0.867188 5.511719 -0.867188 Z M 5.511719 -0.867188 "/>
</g>
<path style=" stroke:none;fill-rule:nonzero;fill:rgb(100%,100%,100%);fill-opacity:1;" d="M 2 5.5 C 2 5.777344 1.777344 6 1.5 6 C 1.222656 6 1 5.777344 1 5.5 C 1 5.222656 1.222656 5 1.5 5 C 1.777344 5 2 5.222656 2 5.5 Z M 2 5.5 "/>
<path style=" stroke:none;fill-rule:nonzero;fill:rgb(100%,100%,100%);fill-opacity:1;" d="M 10 5.5 C 10 5.777344 9.777344 6 9.5 6 C 9.222656 6 9 5.777344 9 5.5 C 9 5.222656 9.222656 5 9.5 5 C 9.777344 5 10 5.222656 10 5.5 Z M 10 5.5 "/>
<path style=" stroke:none;fill-rule:nonzero;fill:rgb(100%,100%,100%);fill-opacity:1;" d="M 1.878906 14 C 1.519531 14.019531 1.199219 14.230469 1.035156 14.550781 C 0.875 14.875 0.898438 15.257812 1.101562 15.558594 C 1.300781 15.855469 1.644531 16.027344 2.003906 16 L 9.035156 16 C 9.398438 16.003906 9.730469 15.816406 9.914062 15.503906 C 10.09375 15.191406 10.09375 14.808594 9.914062 14.496094 C 9.730469 14.183594 9.398438 13.996094 9.035156 14 L 2.007812 14 C 1.964844 13.996094 1.921875 13.996094 1.882812 14 Z M 1.878906 14 "/>
<path style=" stroke:none;fill-rule:nonzero;fill:rgb(100%,100%,100%);fill-opacity:1;" d="M 1 15 L 10 15 L 10 16 L 1 16 Z M 1 15 "/>
<path style=" stroke:none;fill-rule:nonzero;fill:rgb(100%,100%,100%);fill-opacity:1;" d="M 4 12 L 7 12 L 7 16 L 4 16 Z M 4 12 "/>
<path style=" stroke:none;fill-rule:nonzero;fill:rgb(100%,100%,100%);fill-opacity:1;" d="M 14.992188 13.007812 C 14.992188 14.109375 14.09375 15.007812 12.992188 15.007812 C 11.886719 15.007812 10.992188 14.109375 10.992188 13.007812 C 10.992188 11.902344 11.886719 11.007812 12.992188 11.007812 C 14.09375 11.007812 14.992188 11.902344 14.992188 13.007812 Z M 14.992188 13.007812 "/>
<path style=" stroke:none;fill-rule:nonzero;fill:rgb(100%,100%,100%);fill-opacity:1;" d="M 14.992188 8.007812 C 14.992188 9.109375 14.09375 10.007812 12.992188 10.007812 C 11.886719 10.007812 10.992188 9.109375 10.992188 8.007812 C 10.992188 6.902344 11.886719 6.007812 12.992188 6.007812 C 14.09375 6.007812 14.992188 6.902344 14.992188 8.007812 Z M 14.992188 8.007812 "/>
<path style=" stroke:none;fill-rule:nonzero;fill:rgb(100%,100%,100%);fill-opacity:1;" d="M 14.992188 3.007812 C 14.992188 4.109375 14.09375 5.007812 12.992188 5.007812 C 11.886719 5.007812 10.992188 4.109375 10.992188 3.007812 C 10.992188 1.902344 11.886719 1.007812 12.992188 1.007812 C 14.09375 1.007812 14.992188 1.902344 14.992188 3.007812 Z M 14.992188 3.007812 "/>
</g>
</svg>
