<?xml version="1.0" encoding="UTF-8"?>
<svg xmlns="http://www.w3.org/2000/svg" xmlns:xlink="http://www.w3.org/1999/xlink" width="16" height="16" viewBox="0 0 16 16" version="1.1">
<g id="surface1">
<path style=" stroke:none;fill-rule:nonzero;fill:rgb(100%,100%,100%);fill-opacity:1;" d="M 2.0625 0 C 0.914062 0 0 0.910156 0 2.058594 L 0 13.933594 C 0 15.085938 0.914062 15.996094 2.0625 15.996094 L 13.9375 15.996094 C 15.085938 15.996094 16 15.085938 16 13.933594 L 16 2.058594 C 16 0.910156 15.085938 0 13.9375 0 Z M 4 3 L 6 3 L 6 11 C 6 11 6.03125 11 6.03125 11 L 9.96875 11 C 9.976562 10.980469 9.996094 10.984375 10 11 C 10 11.007812 10 10.945312 10 10.96875 L 10 3 L 12 3 L 12 10.96875 C 12 11.53125 11.773438 11.96875 11.4375 12.34375 C 11.121094 12.695312 10.585938 12.976562 9.96875 12.96875 L 9.96875 13 L 6 13 C 5.375 13 5.007812 12.757812 4.65625 12.4375 C 4.324219 12.132812 4.011719 11.648438 4.03125 11 L 4 11 Z M 4 3 "/>
</g>
</svg>
