<?xml version="1.0" encoding="UTF-8"?>
<svg xmlns="http://www.w3.org/2000/svg" xmlns:xlink="http://www.w3.org/1999/xlink" width="16" height="16" viewBox="0 0 16 16" version="1.1">
<g id="surface1">
<path style=" stroke:none;fill-rule:nonzero;fill:rgb(100%,100%,100%);fill-opacity:1;" d="M 7 10 L 7 13 L 9 13 L 9 10 Z M 7 10 "/>
<path style=" stroke:none;fill-rule:nonzero;fill:rgb(100%,100%,100%);fill-opacity:1;" d="M 2 13 L 2 15 L 14 15 L 14 13 Z M 2 13 "/>
<path style=" stroke:none;fill-rule:nonzero;fill:rgb(100%,100%,100%);fill-opacity:1;" d="M 4 5 L 12 5 L 12 11 L 4 11 Z M 4 5 "/>
<path style=" stroke:none;fill-rule:nonzero;fill:rgb(100%,100%,100%);fill-opacity:1;" d="M 8 1 C 6.355469 1 5 2.355469 5 4 L 5 7 L 11 7 L 11 4 C 11 2.355469 9.644531 1 8 1 Z M 8 3 C 8.5625 3 9 3.4375 9 4 L 9 5 L 7 5 L 7 4 C 7 3.4375 7.4375 3 8 3 Z M 8 3 "/>
</g>
</svg>
