<?xml version="1.0" encoding="UTF-8"?>
<svg xmlns="http://www.w3.org/2000/svg" xmlns:xlink="http://www.w3.org/1999/xlink" width="16" height="16" viewBox="0 0 16 16" version="1.1">
<g id="surface1">
<path style=" stroke:none;fill-rule:nonzero;fill:rgb(100%,100%,100%);fill-opacity:1;" d="M 5 7 C 4.691406 7 4.386719 7.089844 4.1875 7.28125 L 0.585938 11 L 4.242188 14.71875 C 4.441406 14.910156 4.683594 15 4.992188 15 L 5.992188 15 L 5.992188 14 C 5.992188 13.746094 5.863281 13.472656 5.679688 13.28125 L 4.402344 12.003906 L 8.996094 12.003906 C 9.523438 12.007812 9.996094 11.53125 9.996094 11.003906 C 9.996094 10.472656 9.523438 9.996094 8.996094 10.003906 L 4.371094 10.003906 L 5.589844 8.722656 C 5.773438 8.53125 5.996094 8.257812 5.996094 8.003906 L 5.996094 7.003906 Z M 5 7 "/>
<path style=" stroke:none;fill-rule:nonzero;fill:rgb(100%,100%,100%);fill-opacity:1;" d="M 11.589844 9 C 11.898438 9 12.203125 8.910156 12.402344 8.71875 L 16.003906 5 L 12.347656 1.28125 C 12.148438 1.089844 11.90625 1 11.597656 1 L 10.597656 1 L 10.597656 2 C 10.597656 2.253906 10.726562 2.527344 10.910156 2.71875 L 12.191406 4 L 7.003906 4 C 6.472656 3.992188 6.003906 4.46875 6.003906 5 C 6.003906 5.527344 6.472656 6.007812 7.003906 6 L 12.222656 6 L 11.003906 7.28125 C 10.820312 7.46875 10.597656 7.742188 10.597656 8 L 10.597656 9 Z M 11.589844 9 "/>
</g>
</svg>
