<?xml version="1.0" encoding="UTF-8"?>
<svg xmlns="http://www.w3.org/2000/svg" xmlns:xlink="http://www.w3.org/1999/xlink" width="16" height="16" viewBox="0 0 16 16" version="1.1">
<g id="surface1">
<path style=" stroke:none;fill-rule:nonzero;fill:rgb(100%,100%,100%);fill-opacity:1;" d="M 2.058594 0 C 0.910156 0 -0.00390625 0.910156 -0.00390625 2.0625 L -0.00390625 13.9375 C -0.00390625 15.089844 0.910156 16 2.058594 16 L 13.933594 16 C 15.085938 16 15.996094 15.089844 15.996094 13.9375 L 15.996094 2.0625 C 15.996094 0.910156 15.085938 0 13.933594 0 Z M 5.996094 3 L 11.996094 3 L 11.996094 5 L 5.996094 5 L 5.996094 7 L 11.996094 7 L 11.996094 9 L 5.996094 9 L 5.996094 11 C 5.996094 11 6.027344 11 6.027344 11 L 11.996094 11 L 11.996094 13 L 5.996094 13 C 5.371094 13 5.003906 12.757812 4.652344 12.4375 C 4.324219 12.132812 4.007812 11.648438 4.027344 11 L 3.996094 11 L 3.996094 5 L 4.027344 5 C 4.015625 4.523438 4.140625 4 4.496094 3.59375 C 4.851562 3.191406 5.429688 3.011719 5.996094 3.03125 Z M 5.996094 3 "/>
</g>
</svg>
