<?xml version="1.0" encoding="UTF-8"?>
<svg xmlns="http://www.w3.org/2000/svg" xmlns:xlink="http://www.w3.org/1999/xlink" width="16" height="16" viewBox="0 0 16 16" version="1.1">
<g id="surface1">
<path style=" stroke:none;fill-rule:nonzero;fill:rgb(100%,100%,100%);fill-opacity:1;" d="M 6 1 C 4.992188 1.003906 5 2 5 2 L 5 13 C 5 14 6 14 6 14 L 10 14 C 11 14 11 13 11 13 L 11 5 C 11 4.445312 10.554688 4 10 4 L 7 4 L 7 2 C 7 2 6.992188 1.003906 6 1 Z M 6 5 L 10 5 L 10 8.03125 L 6 8 Z M 6 9 L 7 9 L 7 10 L 8 10 L 8 9 L 9 9 L 9 10 L 10 10 L 10 11 L 9 11 L 9 12 L 10 12 L 10 13 L 9 13 L 9 12 L 8 12 L 8 13 L 7 13 L 7 12 L 6 12 L 6 11 L 7 11 L 7 10 L 6 10 Z M 7 11 L 7 12 L 8 12 L 8 11 Z M 8 11 L 9 11 L 9 10 L 8 10 Z M 8 11 "/>
<path style=" stroke:none;fill-rule:nonzero;fill:rgb(100%,100%,100%);fill-opacity:1;" d="M 16 5 L 16 6 C 16 6.257812 15.871094 6.527344 15.6875 6.71875 L 14.40625 8 L 15.6875 9.28125 C 15.871094 9.46875 16 9.742188 16 10 L 16 11 L 15 11 C 14.691406 11 14.449219 10.90625 14.25 10.71875 L 11.589844 7.996094 L 14.25 5.277344 C 14.449219 5.085938 14.691406 4.996094 15 4.996094 L 16 4.996094 Z M 16 5 "/>
<path style=" stroke:none;fill-rule:nonzero;fill:rgb(100%,100%,100%);fill-opacity:1;" d="M 0 5 L 0 6 C 0 6.257812 0.128906 6.527344 0.3125 6.71875 L 1.59375 8 L 0.3125 9.28125 C 0.128906 9.472656 0 9.742188 0 10 L 0 11 L 1 11 C 1.308594 11 1.550781 10.910156 1.75 10.71875 L 4.410156 8 L 1.75 5.277344 C 1.550781 5.089844 1.308594 5 1 5 Z M 0 5 "/>
</g>
</svg>
