<?xml version="1.0" encoding="UTF-8"?>
<svg xmlns="http://www.w3.org/2000/svg" xmlns:xlink="http://www.w3.org/1999/xlink" width="16" height="16" viewBox="0 0 16 16" version="1.1">
<g id="surface1">
<path style=" stroke:none;fill-rule:nonzero;fill:rgb(100%,100%,100%);fill-opacity:1;" d="M 2.058594 0 C 0.910156 0 -0.00390625 0.910156 -0.00390625 2.0625 L -0.00390625 13.9375 C -0.00390625 15.089844 0.910156 16 2.058594 16 L 13.933594 16 C 15.085938 16 15.996094 15.089844 15.996094 13.9375 L 15.996094 2.0625 C 15.996094 0.910156 15.085938 0 13.933594 0 Z M 1.996094 3 L 3.996094 3 L 3.996094 7 L 4.996094 7 L 4.996094 6 L 6.996094 6 L 6.996094 13 L 4.996094 13 L 4.996094 9 L 3.996094 9 C 2.996094 9 1.996094 8.15625 1.996094 7 Z M 10.058594 3.03125 L 11.964844 3.03125 C 11.96875 3.03125 11.964844 3.0625 11.964844 3.0625 C 12.492188 3.042969 13.039062 3.136719 13.464844 3.53125 C 13.882812 3.914062 14.058594 4.539062 14.027344 5.125 L 14.058594 5.125 L 14.058594 6 L 12.058594 6 L 12.058594 5.03125 C 12.042969 5.03125 12.0625 5.03125 12.027344 5.03125 L 10.058594 5.03125 C 10.03125 5.03125 10.039062 5.03125 10.027344 5.03125 C 10.023438 5.035156 10 5.027344 9.996094 5.03125 C 9.992188 5.054688 10.003906 5.078125 9.996094 5.09375 L 9.996094 10.9375 C 9.972656 10.914062 9.996094 11 9.996094 11 L 11.964844 11 C 11.972656 10.980469 11.996094 10.984375 11.996094 11 C 12 11.007812 11.996094 10.945312 11.996094 10.96875 L 11.996094 9.03125 L 10.996094 9.03125 L 10.996094 7.03125 L 13.996094 7.03125 L 13.996094 10.96875 C 13.996094 11.53125 13.769531 11.96875 13.433594 12.34375 C 13.117188 12.695312 12.582031 12.976562 11.964844 12.96875 L 11.964844 13 L 9.996094 13 C 9.371094 13 9.003906 12.757812 8.652344 12.4375 C 8.324219 12.132812 8.011719 11.648438 8.027344 11 C 8.027344 10.996094 7.996094 11 7.996094 11 L 7.996094 4.9375 C 8.058594 4.5 8.203125 4.046875 8.558594 3.65625 C 8.917969 3.265625 9.507812 3.03125 10.058594 3.03125 Z M 10.058594 3.03125 "/>
</g>
</svg>
