<?xml version="1.0" encoding="UTF-8"?>
<svg xmlns="http://www.w3.org/2000/svg" xmlns:xlink="http://www.w3.org/1999/xlink" width="16" height="16" viewBox="0 0 16 16" version="1.1">
<g id="surface1">
<path style=" stroke:none;fill-rule:nonzero;fill:rgb(100%,100%,100%);fill-opacity:1;" d="M 8.003906 1.007812 C 7.738281 1.007812 7.503906 1.109375 7.339844 1.25 C 7.171875 1.386719 7.0625 1.570312 6.949219 1.75 C 6.722656 2.109375 6.554688 2.519531 6.382812 2.953125 C 6.210938 3.386719 6.035156 3.839844 5.878906 4.1875 C 5.722656 4.53125 5.53125 4.765625 5.519531 4.773438 C 5.507812 4.78125 5.210938 4.890625 4.824219 4.925781 C 4.4375 4.960938 3.941406 4.972656 3.460938 4.996094 C 2.980469 5.015625 2.492188 5.03125 2.066406 5.121094 C 1.855469 5.167969 1.652344 5.222656 1.464844 5.332031 C 1.273438 5.441406 1.097656 5.617188 1.015625 5.863281 C 0.929688 6.105469 0.964844 6.367188 1.050781 6.5625 C 1.136719 6.757812 1.277344 6.929688 1.417969 7.085938 C 1.703125 7.402344 2.050781 7.691406 2.425781 7.984375 C 2.800781 8.277344 3.203125 8.542969 3.492188 8.796875 C 3.785156 9.046875 3.949219 9.304688 3.953125 9.320312 C 3.957031 9.332031 3.984375 9.652344 3.898438 10.019531 C 3.8125 10.386719 3.675781 10.832031 3.546875 11.28125 C 3.417969 11.730469 3.292969 12.183594 3.253906 12.601562 C 3.234375 12.808594 3.210938 13.007812 3.257812 13.214844 C 3.308594 13.421875 3.445312 13.644531 3.65625 13.796875 C 3.871094 13.945312 4.109375 13.984375 4.328125 13.964844 C 4.546875 13.949219 4.761719 13.894531 4.960938 13.8125 C 5.359375 13.652344 5.761719 13.386719 6.167969 13.132812 C 6.574219 12.878906 6.976562 12.609375 7.3125 12.421875 C 7.652344 12.230469 7.960938 12.152344 7.976562 12.152344 C 7.992188 12.152344 8.28125 12.246094 8.617188 12.4375 C 8.953125 12.632812 9.34375 12.90625 9.746094 13.160156 C 10.148438 13.417969 10.5625 13.660156 10.960938 13.824219 C 11.160156 13.90625 11.351562 13.976562 11.570312 13.996094 C 11.789062 14.015625 12.050781 13.964844 12.265625 13.8125 C 12.480469 13.664062 12.605469 13.460938 12.65625 13.253906 C 12.703125 13.046875 12.699219 12.820312 12.679688 12.613281 C 12.644531 12.195312 12.519531 11.746094 12.394531 11.296875 C 12.269531 10.847656 12.132812 10.410156 12.050781 10.042969 C 11.96875 9.675781 11.980469 9.355469 11.984375 9.339844 C 11.988281 9.328125 12.171875 9.089844 12.464844 8.839844 C 12.757812 8.59375 13.140625 8.304688 13.519531 8.011719 C 13.898438 7.722656 14.285156 7.441406 14.570312 7.128906 C 14.714844 6.96875 14.8125 6.792969 14.902344 6.597656 C 14.988281 6.40625 15.035156 6.171875 14.957031 5.925781 C 14.875 5.679688 14.683594 5.511719 14.496094 5.402344 C 14.308594 5.292969 14.128906 5.222656 13.917969 5.171875 C 13.496094 5.078125 13.003906 5.035156 12.523438 5.007812 C 12.039062 4.984375 11.578125 4.96875 11.1875 4.933594 C 10.800781 4.894531 10.472656 4.800781 10.460938 4.792969 C 10.445312 4.78125 10.277344 4.554688 10.121094 4.210938 C 9.96875 3.863281 9.796875 3.421875 9.625 2.984375 C 9.457031 2.550781 9.292969 2.121094 9.070312 1.761719 C 8.960938 1.582031 8.835938 1.40625 8.671875 1.269531 C 8.507812 1.128906 8.269531 1.011719 8.003906 1.007812 Z M 8.011719 2.003906 C 8.054688 2.039062 8.117188 2.140625 8.195312 2.265625 C 8.351562 2.515625 8.527344 2.894531 8.6875 3.316406 C 8.851562 3.734375 9.007812 4.203125 9.183594 4.597656 C 9.363281 4.992188 9.5 5.332031 9.859375 5.585938 C 10.222656 5.839844 10.632812 5.882812 11.074219 5.929688 C 11.519531 5.972656 12.003906 5.980469 12.472656 6.003906 C 12.9375 6.027344 13.390625 6.074219 13.683594 6.140625 C 13.832031 6.171875 13.941406 6.199219 13.988281 6.226562 C 13.964844 6.277344 13.910156 6.382812 13.808594 6.492188 C 13.609375 6.710938 13.269531 6.976562 12.90625 7.257812 C 12.539062 7.539062 12.128906 7.832031 11.792969 8.117188 C 11.457031 8.398438 11.152344 8.648438 11.011719 9.058594 C 10.871094 9.46875 10.957031 9.835938 11.054688 10.257812 C 11.148438 10.679688 11.308594 11.132812 11.429688 11.570312 C 11.546875 12.003906 11.65625 12.414062 11.679688 12.707031 C 11.691406 12.839844 11.664062 12.941406 11.652344 13 C 11.59375 12.992188 11.476562 12.96875 11.347656 12.914062 C 11.070312 12.800781 10.703125 12.585938 10.3125 12.339844 C 9.925781 12.089844 9.507812 11.808594 9.125 11.585938 C 8.742188 11.367188 8.417969 11.1875 7.96875 11.1875 C 7.523438 11.183594 7.179688 11.359375 6.789062 11.578125 C 6.40625 11.792969 6.007812 12.070312 5.617188 12.316406 C 5.222656 12.5625 4.839844 12.769531 4.558594 12.882812 C 4.421875 12.9375 4.3125 12.96875 4.257812 12.972656 C 4.246094 12.914062 4.242188 12.8125 4.253906 12.679688 C 4.28125 12.386719 4.394531 11.96875 4.515625 11.535156 C 4.640625 11.101562 4.773438 10.640625 4.871094 10.21875 C 4.96875 9.796875 5.054688 9.429688 4.921875 9.019531 C 4.785156 8.605469 4.488281 8.375 4.15625 8.089844 C 3.820312 7.800781 3.449219 7.503906 3.085938 7.21875 C 2.722656 6.9375 2.367188 6.660156 2.171875 6.4375 C 2.070312 6.328125 2.007812 6.226562 1.988281 6.175781 C 2.035156 6.148438 2.140625 6.117188 2.289062 6.085938 C 2.585938 6.023438 3.035156 5.980469 3.5 5.960938 C 3.964844 5.941406 4.449219 5.929688 4.894531 5.890625 C 5.339844 5.851562 5.738281 5.839844 6.101562 5.585938 C 6.464844 5.335938 6.640625 4.984375 6.820312 4.585938 C 7 4.191406 7.160156 3.746094 7.324219 3.324219 C 7.492188 2.90625 7.644531 2.492188 7.800781 2.238281 C 7.878906 2.113281 7.96875 2.039062 8.011719 2.003906 Z M 8.011719 2.003906 "/>
</g>
</svg>
