<?xml version="1.0" encoding="UTF-8"?>
<svg xmlns="http://www.w3.org/2000/svg" xmlns:xlink="http://www.w3.org/1999/xlink" width="16" height="16" viewBox="0 0 16 16" version="1.1">
<g id="surface1">
<path style=" stroke:none;fill-rule:nonzero;fill:rgb(74.509804%,74.509804%,74.509804%);fill-opacity:1;" d="M 3.5 0 C 2.667969 0 2 0.667969 2 1.5 L 2 6 L 1.5 6 C 0.667969 6 0 6.667969 0 7.5 L 0 11.5 C 0 12.332031 0.667969 13 1.5 13 L 2 13 L 2 14.5 C 2 15.332031 2.667969 16 3.5 16 L 10.0625 16 L 9.28125 15.21875 C 8.96875 14.910156 8.898438 14.378906 9.125 14 L 4.5 14 C 4.222656 14 4 13.777344 4 13.5 L 4 12 L 9.125 12 C 8.898438 11.621094 8.96875 11.089844 9.28125 10.78125 L 10.78125 9.28125 C 10.941406 9.125 11.152344 9.023438 11.375 9 C 11.386719 9 11.394531 9 11.40625 9 C 11.46875 8.996094 11.53125 8.996094 11.59375 9 C 11.828125 9.015625 12.050781 9.117188 12.21875 9.28125 L 13 10.0625 L 13.1875 9.875 C 13.078125 9.785156 13 9.652344 13 9.5 C 13 9.222656 13.222656 9 13.5 9 C 13.660156 9 13.785156 9.097656 13.875 9.21875 C 14.253906 8.902344 14.871094 8.933594 15.21875 9.28125 L 16 10.0625 L 16 7.5 C 16 6.667969 15.332031 6 14.5 6 L 14 6 L 14 1.5 C 14 0.667969 13.332031 0 12.5 0 C 9.5 0 6.5 0 3.5 0 Z M 4.5 2 L 11.5 2 C 11.777344 2 12 2.222656 12 2.5 L 12 7 L 4 7 L 4 2.5 C 4 2.222656 4.222656 2 4.5 2 Z M 5 3 L 5 4 L 11.03125 4 L 11.03125 3 Z M 5 5 L 5 6 L 9 6 L 9 5 Z M 5 5 "/>
<path style=" stroke:none;fill-rule:nonzero;fill:rgb(83.137255%,0%,0%);fill-opacity:1;" d="M 10.003906 11.503906 L 11.503906 10.007812 L 13.003906 11.503906 L 14.5 10.007812 L 16 11.503906 L 14.503906 13.003906 L 16 14.5 L 14.503906 16 L 13.003906 14.5 L 11.507812 16 L 10.007812 14.5 L 11.507812 13.003906 L 10.007812 11.503906 Z M 10.003906 11.503906 "/>
<path style=" stroke:none;fill-rule:nonzero;fill:rgb(100%,100%,100%);fill-opacity:1;" d="M 2.824219 15.808594 C 2.507812 15.644531 2.199219 15.265625 2.097656 14.933594 C 2.054688 14.792969 2.019531 14.289062 2.019531 13.820312 L 2.019531 12.960938 L 1.613281 12.960938 C 0.945312 12.960938 0.464844 12.683594 0.179688 12.128906 C 0.0546875 11.886719 0.0507812 11.738281 0.0703125 9.414062 L 0.0898438 6.953125 L 0.257812 6.703125 C 0.554688 6.265625 0.894531 6.089844 1.492188 6.058594 L 2.015625 6.035156 L 2.054688 1.066406 L 2.222656 0.773438 C 2.421875 0.421875 2.882812 0.101562 3.265625 0.046875 C 3.417969 0.0234375 5.652344 0.015625 8.222656 0.0273438 L 12.902344 0.046875 L 13.203125 0.21875 C 13.371094 0.308594 13.597656 0.519531 13.710938 0.679688 L 13.917969 0.972656 L 13.988281 6.011719 L 14.511719 6.050781 C 14.949219 6.082031 15.082031 6.121094 15.324219 6.289062 C 15.484375 6.402344 15.691406 6.628906 15.78125 6.796875 C 15.945312 7.089844 15.953125 7.148438 15.972656 8.554688 L 15.996094 10.011719 L 15.53125 9.5625 C 14.949219 9 14.632812 8.878906 14.167969 9.046875 C 13.898438 9.144531 13.84375 9.144531 13.722656 9.058594 C 13.53125 8.925781 13.390625 8.9375 13.183594 9.101562 C 12.992188 9.253906 12.945312 9.539062 13.070312 9.777344 C 13.230469 10.074219 12.96875 9.964844 12.527344 9.546875 C 12.011719 9.058594 11.683594 8.914062 11.269531 8.992188 C 11.058594 9.03125 10.847656 9.203125 10.101562 9.933594 C 9.601562 10.425781 9.148438 10.914062 9.09375 11.019531 C 8.992188 11.21875 8.957031 11.746094 9.035156 11.875 C 9.066406 11.921875 8.277344 11.945312 6.53125 11.945312 L 3.988281 11.945312 L 3.988281 12.789062 C 3.988281 13.25 4.003906 13.679688 4.027344 13.738281 C 4.136719 14.023438 4.34375 14.046875 6.765625 14.046875 C 8.347656 14.046875 9.066406 14.070312 9.035156 14.117188 C 8.960938 14.234375 8.988281 14.769531 9.074219 14.941406 C 9.117188 15.027344 9.339844 15.289062 9.570312 15.523438 L 9.984375 15.945312 L 6.527344 15.941406 C 3.246094 15.941406 3.058594 15.933594 2.824219 15.808594 Z M 12.054688 4.765625 C 12.054688 3.382812 12.027344 2.460938 11.984375 2.34375 C 11.84375 1.972656 11.96875 1.984375 8 1.980469 L 4.320312 1.980469 L 4.152344 2.144531 L 3.988281 2.3125 L 3.988281 6.996094 L 12.054688 6.996094 Z M 12.054688 4.765625 "/>
<path style=" stroke:none;fill-rule:nonzero;fill:rgb(100%,100%,100%);fill-opacity:1;" d="M 6.007812 5.996094 C 6.578125 5.984375 7.492188 5.984375 8.042969 5.996094 C 8.589844 6.007812 8.121094 6.015625 7.003906 6.015625 C 5.882812 6.015625 5.4375 6.007812 6.007812 5.996094 Z M 6.007812 5.996094 "/>
</g>
</svg>
