<?xml version="1.0" encoding="UTF-8"?>
<svg xmlns="http://www.w3.org/2000/svg" xmlns:xlink="http://www.w3.org/1999/xlink" width="16" height="16" viewBox="0 0 16 16" version="1.1">
<g id="surface1">
<path style=" stroke:none;fill-rule:nonzero;fill:rgb(74.509804%,74.509804%,74.509804%);fill-opacity:1;" d="M 2 4 C 1.5 4 1 4.5 1 5 L 1 9 C 1 9.5 1.5 10 2 10 L 3 10 L 3 8 L 15 8.003906 L 15 5 C 15 4.5 14.5 4 14 4 Z M 2 4 "/>
<path style=" stroke:none;fill-rule:nonzero;fill:rgb(74.509804%,74.509804%,74.509804%);fill-opacity:1;" d="M 4 1 L 4 3 L 12 3 L 12 1 Z M 4 1 "/>
<path style=" stroke:none;fill-rule:nonzero;fill:rgb(74.509804%,74.509804%,74.509804%);fill-opacity:1;" d="M 4 9 L 4 14 L 8 14 L 7.992188 9 Z M 4 9 "/>
<path style=" stroke:none;fill-rule:nonzero;fill:rgb(93.72549%,16.078431%,16.078431%);fill-opacity:1;" d="M 12.5 9 C 10.566406 9 9 10.566406 9 12.5 C 9 14.433594 10.566406 16 12.5 16 C 14.433594 16 16 14.433594 16 12.5 C 16 10.566406 14.433594 9 12.5 9 Z M 10 11.96875 L 15 11.96875 L 15 13 L 10 13 Z M 10 11.96875 "/>
<path style=" stroke:none;fill-rule:nonzero;fill:rgb(100%,100%,100%);fill-opacity:1;" d="M 4.054688 11.503906 L 4.054688 9.03125 L 7.988281 9.03125 L 7.988281 13.980469 L 4.054688 13.980469 Z M 4.054688 11.503906 "/>
<path style=" stroke:none;fill-rule:nonzero;fill:rgb(100%,100%,100%);fill-opacity:1;" d="M 1.640625 9.882812 C 1.523438 9.832031 1.339844 9.675781 1.234375 9.535156 L 1.039062 9.277344 L 1.039062 4.714844 L 1.234375 4.457031 C 1.59375 3.984375 1.214844 4.007812 8.082031 4.03125 C 14.253906 4.046875 14.28125 4.046875 14.472656 4.1875 C 14.578125 4.265625 14.734375 4.433594 14.816406 4.554688 C 14.964844 4.773438 14.96875 4.832031 14.96875 6.402344 L 14.96875 8.023438 L 3.003906 7.980469 L 2.964844 9.980469 L 2.410156 9.976562 C 2.09375 9.976562 1.757812 9.933594 1.640625 9.882812 Z M 1.640625 9.882812 "/>
<path style=" stroke:none;fill-rule:nonzero;fill:rgb(100%,100%,100%);fill-opacity:1;" d="M 4.054688 2.011719 L 4.054688 1.03125 L 11.988281 1.03125 L 11.988281 2.996094 L 4.054688 2.996094 Z M 4.054688 2.011719 "/>
</g>
</svg>
