<?xml version="1.0" encoding="UTF-8"?>
<svg xmlns="http://www.w3.org/2000/svg" xmlns:xlink="http://www.w3.org/1999/xlink" width="16" height="16" viewBox="0 0 16 16" version="1.1">
<g id="surface1">
<path style=" stroke:none;fill-rule:nonzero;fill:rgb(100%,100%,100%);fill-opacity:1;" d="M 14.078125 12.910156 C 14.070312 12.867188 14.0625 12.824219 14.046875 12.785156 C 13.945312 12.320312 13.523438 11.992188 13.046875 12.003906 L 11.359375 12.003906 C 11.9375 11.621094 12.445312 11.152344 12.859375 10.597656 C 13.726562 9.441406 14.113281 8.066406 14.046875 6.722656 C 14.039062 6.53125 14.011719 6.351562 13.984375 6.160156 C 13.769531 4.636719 12.960938 3.183594 11.640625 2.191406 C 9 0.210938 5.21875 0.769531 3.234375 3.410156 C 1.253906 6.050781 1.8125 9.835938 4.453125 11.816406 C 4.628906 11.941406 4.835938 12.007812 5.046875 12.003906 C 5.101562 12.007812 5.152344 12.007812 5.203125 12.003906 L 6.046875 12.003906 L 6.046875 11.097656 C 6.050781 11.066406 6.050781 11.035156 6.046875 11.003906 C 6.050781 10.683594 5.898438 10.382812 5.640625 10.191406 C 3.867188 8.859375 3.527344 6.375 4.859375 4.597656 C 6.195312 2.820312 8.679688 2.484375 10.453125 3.816406 C 12.230469 5.148438 12.570312 7.632812 11.234375 9.410156 C 10.914062 9.839844 10.503906 10.179688 10.046875 10.441406 L 10.046875 9.003906 C 10.046875 8.449219 9.601562 8.003906 9.046875 8.003906 C 8.976562 7.996094 8.902344 7.996094 8.828125 8.003906 L 8.046875 8.003906 L 8.046875 14.003906 L 13.046875 14.003906 C 13.109375 14.007812 13.171875 14.007812 13.234375 14.003906 L 14.046875 14.003906 L 14.046875 13.191406 C 14.070312 13.097656 14.082031 13.003906 14.078125 12.910156 Z M 14.078125 12.910156 "/>
</g>
</svg>
