<?xml version="1.0" encoding="UTF-8"?>
<svg xmlns="http://www.w3.org/2000/svg" xmlns:xlink="http://www.w3.org/1999/xlink" width="16" height="16" viewBox="0 0 16 16" version="1.1">
<g id="surface1">
<path style=" stroke:none;fill-rule:nonzero;fill:rgb(100%,100%,100%);fill-opacity:1;" d="M 7.75 1 C 6.019531 1.085938 4.332031 1.921875 3.21875 3.40625 C 2.847656 3.902344 2.570312 4.445312 2.375 5 L 4.59375 5 C 4.671875 4.863281 4.746094 4.722656 4.84375 4.59375 C 6.175781 2.816406 8.660156 2.480469 10.4375 3.8125 C 12.214844 5.144531 12.550781 7.628906 11.21875 9.40625 C 10.898438 9.835938 10.484375 10.175781 10.03125 10.4375 L 10.03125 9 L 9.003906 9 L 9.03125 14 L 13.03125 14 C 13.09375 14.007812 13.15625 14.007812 13.21875 14 L 14.03125 14 L 14.03125 13.1875 C 14.054688 13.09375 14.066406 13 14.0625 12.90625 C 14.054688 12.863281 14.042969 12.820312 14.03125 12.78125 C 13.929688 12.335938 13.488281 11.988281 13.03125 12 L 11.34375 12 C 11.921875 11.617188 12.425781 11.152344 12.84375 10.59375 C 13.710938 9.4375 14.097656 8.0625 14.03125 6.71875 C 14.023438 6.527344 13.996094 6.347656 13.96875 6.15625 C 13.75 4.632812 12.945312 3.179688 11.625 2.1875 C 10.46875 1.320312 9.097656 0.933594 7.75 1 Z M 7.75 1 "/>
<path style=" stroke:none;fill-rule:nonzero;fill:rgb(100%,100%,100%);fill-opacity:1;" d="M 4.03125 6.941406 C 2.941406 6.941406 2.03125 7.820312 2.03125 8.910156 L 2.03125 10.503906 L 3.03125 10.503906 L 3.03125 8.910156 C 3.03125 8.355469 3.484375 7.941406 4.03125 7.941406 C 4.578125 7.941406 5 8.355469 5 8.910156 L 5 10.472656 L 6 10.472656 L 6 8.910156 C 6 7.820312 5.117188 6.941406 4.03125 6.941406 Z M 4.03125 6.941406 "/>
<path style=" stroke:none;fill-rule:nonzero;fill:rgb(100%,100%,100%);fill-opacity:1;" d="M 1.070312 10 L 7.035156 10 L 7.035156 14.0625 L 1.070312 14.0625 Z M 1.070312 10 "/>
</g>
</svg>
