<?xml version="1.0" encoding="UTF-8"?>
<svg xmlns="http://www.w3.org/2000/svg" xmlns:xlink="http://www.w3.org/1999/xlink" width="16" height="16" viewBox="0 0 16 16" version="1.1">
<g id="surface1">
<path style=" stroke:none;fill-rule:nonzero;fill:rgb(100%,100%,100%);fill-opacity:1;" d="M 8.257812 0.667969 C 6.121094 0.667969 4.59375 1.941406 4.59375 4.027344 L 4.59375 5.859375 L 6.121094 5.859375 L 6.121094 4.636719 C 6.121094 4.027344 6.121094 2.195312 8.257812 2.195312 L 8.5625 2.195312 C 10.699219 2.195312 10.699219 4.027344 10.699219 4.636719 L 10.699219 5.859375 L 12.226562 5.859375 L 12.226562 4.027344 C 12.226562 1.886719 10.699219 0.667969 8.5625 0.667969 Z M 3.972656 8.308594 C 3.363281 8.308594 3.058594 8.617188 3.058594 9.226562 L 3.058594 14.417969 C 3.058594 14.714844 3.363281 15.332031 3.972656 15.332031 L 12.945312 15.332031 C 13.4375 15.332031 13.746094 14.714844 13.746094 14.417969 L 13.746094 9.226562 C 13.746094 8.617188 13.441406 8.308594 12.828125 8.308594 Z M 3.972656 8.308594 "/>
</g>
</svg>
