<?xml version="1.0" encoding="UTF-8"?>
<svg xmlns="http://www.w3.org/2000/svg" xmlns:xlink="http://www.w3.org/1999/xlink" width="16" height="16" viewBox="0 0 16 16" version="1.1">
<g id="surface1">
<path style=" stroke:none;fill-rule:nonzero;fill:rgb(100%,100%,100%);fill-opacity:1;" d="M 2 1 L 2 8 C 2 10.070312 3.507812 11.679688 4.84375 12.875 C 6.179688 14.070312 7.5 14.875 7.5 14.875 L 8 15.15625 L 8.53125 14.84375 C 8.53125 14.84375 9.824219 14.046875 11.15625 12.84375 C 12.484375 11.632812 13.996094 10.035156 13.996094 7.992188 L 13.996094 0.992188 L 1.996094 0.992188 Z M 4 3 L 12 3 L 12 8 C 12 8.917969 11.011719 10.320312 9.84375 11.375 C 8.9375 12.195312 8.363281 12.515625 8 12.75 C 7.644531 12.527344 7.070312 12.226562 6.15625 11.40625 C 4.984375 10.355469 3.996094 8.976562 3.996094 7.996094 L 3.996094 2.996094 Z M 4 3 "/>
<path style=" stroke:none;fill-rule:nonzero;fill:rgb(100%,100%,100%);fill-opacity:1;" d="M 8 4 L 8 11.5 C 7.578125 11.207031 7.417969 11.144531 6.84375 10.625 C 5.753906 9.640625 5 8.355469 5 8 L 5 4 Z M 8 4 "/>
</g>
</svg>
