<?xml version="1.0" encoding="UTF-8"?>
<svg xmlns="http://www.w3.org/2000/svg" xmlns:xlink="http://www.w3.org/1999/xlink" width="16" height="16" viewBox="0 0 16 16" version="1.1">
<g id="surface1">
<path style=" stroke:none;fill-rule:nonzero;fill:rgb(100%,100%,100%);fill-opacity:1;" d="M 8 1.007812 C 8.265625 1.007812 8.5 1.109375 8.664062 1.25 C 8.832031 1.386719 8.941406 1.570312 9.054688 1.75 C 9.277344 2.109375 9.445312 2.519531 9.621094 2.953125 C 9.792969 3.386719 9.964844 3.839844 10.125 4.1875 C 10.28125 4.53125 10.46875 4.765625 10.484375 4.773438 C 10.496094 4.78125 10.789062 4.890625 11.179688 4.925781 C 11.566406 4.960938 12.058594 4.972656 12.542969 4.996094 C 13.023438 5.015625 13.511719 5.03125 13.933594 5.121094 C 14.148438 5.167969 14.351562 5.222656 14.539062 5.332031 C 14.726562 5.441406 14.90625 5.617188 14.988281 5.863281 C 15.074219 6.105469 15.039062 6.367188 14.953125 6.5625 C 14.867188 6.757812 14.726562 6.929688 14.585938 7.085938 C 14.300781 7.402344 13.953125 7.691406 13.578125 7.984375 C 13.203125 8.277344 12.800781 8.542969 12.507812 8.796875 C 12.21875 9.046875 12.054688 9.304688 12.050781 9.320312 C 12.042969 9.332031 12.019531 9.652344 12.105469 10.019531 C 12.191406 10.386719 12.328125 10.832031 12.457031 11.28125 C 12.585938 11.730469 12.710938 12.183594 12.75 12.601562 C 12.769531 12.808594 12.792969 13.007812 12.742188 13.214844 C 12.695312 13.421875 12.558594 13.644531 12.34375 13.796875 C 12.128906 13.945312 11.894531 13.984375 11.675781 13.964844 C 11.457031 13.949219 11.242188 13.894531 11.042969 13.8125 C 10.640625 13.652344 10.238281 13.386719 9.835938 13.132812 C 9.429688 12.878906 9.027344 12.609375 8.691406 12.421875 C 8.351562 12.230469 8.042969 12.152344 8.023438 12.152344 C 8.007812 12.152344 7.722656 12.246094 7.386719 12.4375 C 7.050781 12.632812 6.660156 12.90625 6.257812 13.160156 C 5.855469 13.417969 5.4375 13.660156 5.039062 13.824219 C 4.84375 13.90625 4.652344 13.976562 4.433594 13.996094 C 4.214844 14.015625 3.953125 13.964844 3.738281 13.8125 C 3.523438 13.664062 3.398438 13.460938 3.347656 13.253906 C 3.296875 13.046875 3.304688 12.820312 3.324219 12.613281 C 3.359375 12.195312 3.484375 11.746094 3.609375 11.296875 C 3.734375 10.847656 3.867188 10.410156 3.953125 10.042969 C 4.035156 9.675781 4.023438 9.355469 4.019531 9.339844 C 4.015625 9.328125 3.832031 9.089844 3.539062 8.839844 C 3.246094 8.59375 2.863281 8.304688 2.484375 8.011719 C 2.105469 7.722656 1.71875 7.441406 1.429688 7.128906 C 1.289062 6.96875 1.191406 6.792969 1.101562 6.597656 C 1.015625 6.40625 0.964844 6.171875 1.046875 5.925781 C 1.128906 5.679688 1.320312 5.511719 1.507812 5.402344 C 1.695312 5.292969 1.875 5.222656 2.085938 5.171875 C 2.507812 5.078125 3 5.035156 3.480469 5.007812 C 3.960938 4.984375 4.425781 4.96875 4.8125 4.933594 C 5.203125 4.894531 5.53125 4.800781 5.542969 4.792969 C 5.554688 4.78125 5.726562 4.554688 5.882812 4.210938 C 6.035156 3.863281 6.207031 3.421875 6.375 2.984375 C 6.546875 2.550781 6.710938 2.121094 6.933594 1.761719 C 7.042969 1.582031 7.167969 1.40625 7.332031 1.269531 C 7.496094 1.128906 7.734375 1.011719 8 1.007812 Z M 7.992188 2.003906 C 7.949219 2.039062 7.882812 2.140625 7.808594 2.265625 C 7.652344 2.515625 7.476562 2.894531 7.3125 3.316406 C 7.148438 3.734375 6.992188 4.203125 6.816406 4.597656 C 6.640625 4.992188 6.503906 5.332031 6.140625 5.585938 C 5.78125 5.839844 5.371094 5.882812 4.925781 5.929688 C 4.480469 5.972656 3.996094 5.980469 3.53125 6.003906 C 3.066406 6.027344 2.613281 6.074219 2.320312 6.140625 C 2.171875 6.171875 2.0625 6.199219 2.015625 6.226562 C 2.035156 6.277344 2.09375 6.382812 2.195312 6.492188 C 2.394531 6.710938 2.730469 6.976562 3.097656 7.257812 C 3.460938 7.539062 3.875 7.832031 4.210938 8.117188 C 4.546875 8.398438 4.851562 8.648438 4.992188 9.058594 C 5.128906 9.46875 5.042969 9.835938 4.949219 10.257812 C 4.855469 10.679688 4.695312 11.132812 4.574219 11.570312 C 4.453125 12.003906 4.347656 12.414062 4.320312 12.707031 C 4.3125 12.839844 4.339844 12.941406 4.351562 13 C 4.410156 12.992188 4.527344 12.96875 4.65625 12.914062 C 4.933594 12.800781 5.300781 12.585938 5.6875 12.339844 C 6.078125 12.089844 6.492188 11.808594 6.878906 11.585938 C 7.261719 11.367188 7.585938 11.1875 8.03125 11.1875 C 8.480469 11.183594 8.824219 11.359375 9.210938 11.578125 C 9.597656 11.792969 9.996094 12.070312 10.386719 12.316406 C 10.777344 12.5625 11.164062 12.769531 11.445312 12.882812 C 11.582031 12.9375 11.6875 12.96875 11.746094 12.972656 C 11.757812 12.914062 11.761719 12.8125 11.75 12.679688 C 11.71875 12.386719 11.609375 11.96875 11.484375 11.535156 C 11.359375 11.101562 11.230469 10.640625 11.132812 10.21875 C 11.035156 9.796875 10.945312 9.429688 11.082031 9.019531 C 11.21875 8.605469 11.515625 8.375 11.847656 8.089844 C 12.183594 7.800781 12.554688 7.503906 12.917969 7.21875 C 13.28125 6.9375 13.632812 6.660156 13.832031 6.4375 C 13.933594 6.328125 13.996094 6.226562 14.015625 6.175781 C 13.96875 6.148438 13.863281 6.117188 13.714844 6.085938 C 13.417969 6.023438 12.96875 5.980469 12.503906 5.960938 C 12.039062 5.941406 11.554688 5.929688 11.109375 5.890625 C 10.664062 5.851562 10.261719 5.839844 9.898438 5.585938 C 9.539062 5.335938 9.363281 4.984375 9.179688 4.585938 C 9 4.191406 8.84375 3.746094 8.675781 3.324219 C 8.511719 2.90625 8.359375 2.492188 8.203125 2.238281 C 8.121094 2.113281 8.035156 2.039062 7.992188 2.003906 Z M 7.992188 2.003906 "/>
<path style=" stroke:none;fill-rule:nonzero;fill:rgb(100%,100%,100%);fill-opacity:1;" d="M 8 1.5 C 8.925781 1.496094 9.433594 4.632812 10.1875 5.15625 C 10.9375 5.679688 14.210938 5.183594 14.5 6.03125 C 14.789062 6.878906 11.84375 8.304688 11.5625 9.15625 C 11.28125 10.007812 12.808594 12.847656 12.0625 13.375 C 11.316406 13.902344 8.957031 11.652344 8.03125 11.65625 C 8.023438 11.65625 8.007812 11.65625 8 11.65625 L 8 1.496094 Z M 8 1.5 "/>
</g>
</svg>
