<?xml version="1.0" encoding="UTF-8"?>
<svg xmlns="http://www.w3.org/2000/svg" xmlns:xlink="http://www.w3.org/1999/xlink" width="16" height="16" viewBox="0 0 16 16" version="1.1">
<g id="surface1">
<path style=" stroke:none;fill-rule:evenodd;fill:rgb(96.078431%,47.45098%,0%);fill-opacity:1;" d="M 8 0.0585938 L 5.734375 3.472656 L 2.324219 2.324219 L 3.46875 5.738281 L 0.0585938 8 L 3.46875 10.265625 L 2.324219 13.679688 L 5.734375 12.53125 L 8 15.945312 L 10.265625 12.53125 L 13.675781 13.679688 L 12.527344 10.265625 L 15.941406 8 L 12.527344 5.738281 L 13.675781 2.324219 L 10.265625 3.472656 Z M 7.007812 4.09375 L 8.992188 4.09375 L 8.992188 9.023438 L 7.007812 9.023438 Z M 8.03125 9.738281 C 8.734375 9.738281 9.304688 10.308594 9.304688 11.011719 C 9.304688 11.714844 8.734375 12.28125 8.03125 12.28125 C 7.328125 12.28125 6.757812 11.714844 6.757812 11.011719 C 6.757812 10.308594 7.328125 9.738281 8.03125 9.738281 Z M 8.03125 9.738281 "/>
</g>
</svg>
