<?xml version="1.0" encoding="UTF-8"?>
<svg xmlns="http://www.w3.org/2000/svg" xmlns:xlink="http://www.w3.org/1999/xlink" width="16" height="16" viewBox="0 0 16 16" version="1.1">
<g id="surface1">
<path style=" stroke:none;fill-rule:evenodd;fill:rgb(100%,100%,100%);fill-opacity:1;" d="M 8 0.0585938 L 5.75 3.464844 L 2.3125 2.308594 L 3.46875 5.746094 L 0.0625 7.996094 L 3.46875 10.246094 L 2.3125 13.683594 L 5.75 12.527344 L 8 15.933594 L 10.25 12.527344 L 13.6875 13.683594 L 12.53125 10.246094 L 15.9375 7.996094 L 12.53125 5.746094 L 13.6875 2.308594 L 10.25 3.464844 Z M 8 4.589844 L 8.71875 5.277344 L 10.71875 7.277344 C 10.941406 7.503906 11.050781 7.839844 11 8.152344 L 11 8.996094 L 10.125 8.996094 C 9.820312 9.039062 9.5 8.929688 9.28125 8.714844 L 9 8.433594 L 9 10.996094 L 7 10.996094 L 7 8.433594 L 6.71875 8.714844 C 6.527344 8.898438 6.265625 9 6 8.996094 L 5 8.996094 L 5 8.214844 C 5 8.183594 5 8.152344 5 8.121094 C 4.960938 7.820312 5.066406 7.5 5.28125 7.277344 L 7.28125 5.277344 Z M 8 4.589844 "/>
</g>
</svg>
