<?xml version="1.0" encoding="UTF-8"?>
<svg xmlns="http://www.w3.org/2000/svg" xmlns:xlink="http://www.w3.org/1999/xlink" width="16" height="16" viewBox="0 0 16 16" version="1.1">
<g id="surface1">
<path style=" stroke:none;fill-rule:nonzero;fill:rgb(74.509804%,74.509804%,74.509804%);fill-opacity:1;" d="M 2.46875 1 C 2.46875 1 0.96875 1 0.96875 2.5 L 0.96875 14.46875 C 0.96875 14.46875 0.96875 16 2.46875 16 L 9.96875 16 L 9.96875 14 L 2.96875 14 L 2.96875 3 L 3.96875 3 L 3.96875 1 Z M 10.96875 1 L 10.96875 3 L 11.96875 3 L 11.96875 10 L 13.96875 10 L 13.96875 2.5 C 13.96875 1 12.46875 1 12.46875 1 Z M 10.96875 1 "/>
<path style=" stroke:none;fill-rule:nonzero;fill:rgb(74.509804%,74.509804%,74.509804%);fill-opacity:1;" d="M 5.5 0 L 9.46875 0 C 9.746094 0 9.96875 0.222656 9.96875 0.5 L 9.96875 3.5 C 9.96875 3.777344 9.746094 4 9.46875 4 L 5.5 4 C 5.222656 4 5 3.777344 5 3.5 L 5 0.5 C 5 0.222656 5.222656 0 5.5 0 Z M 5.5 0 "/>
<path style=" stroke:none;fill-rule:nonzero;fill:rgb(74.509804%,74.509804%,74.509804%);fill-opacity:1;" d="M 10.96875 11 L 12.34375 11 L 13.46875 12.09375 L 14.558594 11.003906 L 15.96875 11.003906 L 15.96875 12.472656 L 14.875 13.535156 L 15.964844 14.59375 L 15.964844 16.003906 L 14.527344 16.003906 L 13.464844 14.945312 L 12.40625 16.003906 L 10.964844 16.003906 L 10.964844 14.597656 L 12.027344 13.535156 L 10.96875 12.476562 Z M 10.96875 11 "/>
<path style=" stroke:none;fill-rule:nonzero;fill:rgb(100%,100%,100%);fill-opacity:1;" d="M 5.242188 3.894531 C 5.039062 3.757812 5.011719 3.515625 5.011719 1.945312 L 5.011719 0.347656 L 5.34375 0.0117188 L 9.625 0.0117188 L 9.960938 0.347656 L 9.960938 1.945312 C 9.960938 3.515625 9.929688 3.757812 9.730469 3.894531 C 9.6875 3.921875 8.679688 3.945312 7.484375 3.945312 C 6.292969 3.945312 5.28125 3.921875 5.242188 3.894531 Z M 5.242188 3.894531 "/>
<path style=" stroke:none;fill-rule:nonzero;fill:rgb(100%,100%,100%);fill-opacity:1;" d="M 11.992188 6.488281 L 11.992188 2.996094 L 10.976562 2.996094 L 10.976562 1.03125 L 11.847656 1.03125 C 12.820312 1.03125 13.183594 1.117188 13.507812 1.421875 C 13.945312 1.839844 13.921875 1.621094 13.945312 5.996094 L 13.964844 9.980469 L 11.992188 9.980469 Z M 11.992188 6.488281 "/>
<path style=" stroke:none;fill-rule:nonzero;fill:rgb(100%,100%,100%);fill-opacity:1;" d="M 1.722656 15.789062 C 1.421875 15.621094 1.179688 15.300781 1.078125 14.9375 C 1.035156 14.78125 1.011719 12.398438 1.011719 8.378906 L 1.011719 2.070312 L 1.167969 1.769531 C 1.273438 1.574219 1.4375 1.402344 1.652344 1.269531 C 1.972656 1.070312 2.011719 1.0625 2.953125 1.042969 L 3.925781 1.019531 L 3.925781 2.996094 L 2.976562 2.996094 L 2.976562 14.046875 L 9.960938 14.046875 L 9.960938 15.945312 L 1.992188 15.945312 Z M 1.722656 15.789062 "/>
<path style=" stroke:none;fill-rule:nonzero;fill:rgb(100%,0%,0%);fill-opacity:1;" d="M 10.976562 15.316406 L 10.976562 14.621094 L 12.0625 13.542969 L 11.519531 12.996094 L 10.976562 12.453125 L 10.976562 10.996094 L 11.640625 10.996094 C 12.296875 10.996094 12.308594 11 12.507812 11.207031 C 12.617188 11.320312 12.882812 11.570312 13.101562 11.757812 L 13.492188 12.101562 L 14.050781 11.550781 L 14.605469 10.996094 L 15.925781 10.996094 L 15.925781 12.453125 L 15.378906 13 L 14.835938 13.546875 L 15.378906 14.070312 L 15.925781 14.589844 L 15.925781 16.011719 L 14.554688 16.011719 L 13.445312 14.933594 L 12.90625 15.472656 L 12.371094 16.011719 L 10.976562 16.011719 Z M 10.976562 15.316406 "/>
</g>
</svg>
