<?xml version="1.0" encoding="UTF-8"?>
<svg xmlns="http://www.w3.org/2000/svg" xmlns:xlink="http://www.w3.org/1999/xlink" width="16" height="16" viewBox="0 0 16 16" version="1.1">
<g id="surface1">
<path style=" stroke:none;fill-rule:nonzero;fill:rgb(100%,100%,100%);fill-opacity:1;" d="M 6.777344 1.785156 C 3.40625 1.785156 0.667969 4.523438 0.667969 7.894531 C 0.667969 11.269531 3.40625 14.007812 6.777344 14.007812 C 8.378906 14.007812 9.839844 13.386719 10.929688 12.378906 L 15.332031 12.378906 L 12.609375 9.652344 C 12.777344 9.09375 12.886719 8.511719 12.886719 7.894531 C 12.886719 4.523438 10.152344 1.785156 6.777344 1.785156 Z M 4.996094 5.042969 L 6.777344 6.878906 L 8.613281 5.070312 L 9.628906 6.113281 L 7.796875 7.894531 L 9.605469 9.730469 L 8.558594 10.746094 L 6.777344 8.914062 L 4.945312 10.722656 L 3.925781 9.679688 L 5.757812 7.894531 L 3.953125 6.0625 Z M 4.996094 5.042969 "/>
</g>
</svg>
