<?xml version="1.0" encoding="UTF-8"?>
<svg xmlns="http://www.w3.org/2000/svg" xmlns:xlink="http://www.w3.org/1999/xlink" width="16" height="16" viewBox="0 0 16 16" version="1.1">
<g id="surface1">
<path style=" stroke:none;fill-rule:nonzero;fill:rgb(100%,100%,100%);fill-opacity:1;" d="M 13 15 L 13 10.5 L 9.5 10.5 Z M 13 15 "/>
<path style=" stroke:none;fill-rule:nonzero;fill:rgb(100%,100%,100%);fill-opacity:1;" d="M 3.5 1 C 2.117188 1 1 2.117188 1 3.5 L 1 8.5 C 1 9.882812 2.117188 11 3.5 11 L 12.5 11 C 13.882812 11 15 9.882812 15 8.5 L 15 3.5 C 15 2.117188 13.882812 1 12.5 1 Z M 8 3 L 9 3 C 9.277344 3 9.539062 3.101562 9.71875 3.28125 L 11.71875 5.28125 L 12.40625 6 L 11.71875 6.71875 L 9.71875 8.71875 C 9.539062 8.898438 9.277344 9 9 9 L 8 9 L 8 8 C 8 7.722656 8.097656 7.460938 8.28125 7.28125 L 8.558594 7 L 3.996094 7 L 3.996094 5 L 8.558594 5 L 8.277344 4.71875 C 8.097656 4.539062 8 4.277344 8 4 Z M 8 3 "/>
</g>
</svg>
