<?xml version="1.0" encoding="UTF-8"?>
<svg xmlns="http://www.w3.org/2000/svg" xmlns:xlink="http://www.w3.org/1999/xlink" width="16" height="16" viewBox="0 0 16 16" version="1.1">
<g id="surface1">
<path style=" stroke:none;fill-rule:nonzero;fill:rgb(100%,100%,100%);fill-opacity:1;" d="M 4 2 L 4 1.03125 L 11 1.03125 L 11 2 Z M 3.46875 0.03125 C 2.976562 0.03125 2.671875 0.261719 2.4375 0.5 C 2.203125 0.742188 2 1.058594 2 1.53125 L 2 2 L 0 2 L 0 4 L 15 4 L 15 2 L 13 2 L 13 1.625 C 12.976562 1.195312 12.828125 0.871094 12.59375 0.59375 C 12.371094 0.328125 11.96875 0.0625 11.4375 0.0625 L 11.4375 0.03125 Z M 12 5 L 14 5 C 15.671875 7.929688 15.136719 10.855469 14 13.78125 C 13.570312 14.902344 13.019531 16.003906 11.808594 16.003906 L 3.183594 16.003906 C 1.976562 16.003906 1.40625 14.914062 0.996094 13.785156 C -0.046875 10.921875 -0.601562 8.027344 0.996094 5.003906 L 2.996094 5.003906 C 1.273438 7.949219 2.011719 10.972656 2.996094 14.003906 L 11.996094 14.003906 C 13.09375 10.96875 13.628906 7.953125 11.996094 5.003906 Z M 7.03125 4.984375 L 7.03125 13 L 8 13 L 8 4.984375 Z M 9 4.984375 C 10.761719 7.207031 9.828125 10.617188 9 13 L 10 13 C 10.824219 10.691406 11.839844 7.375 10 4.984375 Z M 5.03125 4.984375 C 3.210938 7.59375 4.171875 10.796875 5.03125 13 L 6 13 C 5.132812 10.777344 4.335938 7.53125 6 4.984375 Z M 5.03125 4.984375 "/>
</g>
</svg>
