<?xml version="1.0" encoding="UTF-8"?>
<svg xmlns="http://www.w3.org/2000/svg" xmlns:xlink="http://www.w3.org/1999/xlink" width="16" height="16" viewBox="0 0 16 16" version="1.1">
<g id="surface1">
<path style=" stroke:none;fill-rule:nonzero;fill:rgb(74.509804%,74.509804%,74.509804%);fill-opacity:1;" d="M 9.78125 5 C 9.40625 5.066406 9.105469 5.339844 8.996094 5.703125 C 8.890625 6.070312 9 6.460938 9.28125 6.71875 L 11.28125 8.71875 L 12 9.40625 L 12.71875 8.71875 L 14.71875 6.71875 C 14.976562 6.460938 15.082031 6.085938 14.988281 5.734375 C 14.894531 5.382812 14.617188 5.105469 14.265625 5.011719 C 13.914062 4.917969 13.535156 5.019531 13.28125 5.28125 L 12 6.5625 L 10.71875 5.28125 C 10.476562 5.03125 10.121094 4.921875 9.78125 5 Z M 9.78125 5 "/>
<path style=" stroke:none;fill-rule:nonzero;fill:rgb(74.509804%,74.509804%,74.509804%);fill-opacity:1;" d="M 6 1 C 4.355469 1 3 2.355469 3 4 L 3 12 C 3 13.644531 4.355469 15 6 15 L 10 15 L 10 13 L 6 13 C 5.429688 13 5 12.570312 5 12 L 5 4 C 5 3.429688 5.429688 3 6 3 L 10 3 C 10.570312 3 11 3.429688 11 4 L 11 8 L 13 8 L 13 4 C 13 2.355469 11.644531 1 10 1 Z M 6 1 "/>
<path style=" stroke:none;fill-rule:nonzero;fill:rgb(74.509804%,74.509804%,74.509804%);fill-opacity:1;" d="M 9 6 L 9 5 L 10 5 L 10 6 Z M 9 6 "/>
<path style=" stroke:none;fill-rule:nonzero;fill:rgb(74.509804%,74.509804%,74.509804%);fill-opacity:1;" d="M 14 6 L 14 5 L 15 5 L 15 6 Z M 14 6 "/>
<path style=" stroke:none;fill-rule:nonzero;fill:rgb(100%,100%,100%);fill-opacity:1;" d="M 5.359375 14.894531 C 4.476562 14.703125 3.734375 14.101562 3.316406 13.234375 L 3.070312 12.726562 L 3.070312 3.300781 L 3.222656 2.929688 C 3.53125 2.175781 4.183594 1.523438 4.9375 1.21875 C 5.292969 1.070312 5.402344 1.066406 7.835938 1.042969 C 10.027344 1.027344 10.417969 1.039062 10.753906 1.132812 C 11.335938 1.304688 11.753906 1.558594 12.15625 1.992188 C 12.8125 2.699219 13 3.328125 13.003906 4.824219 L 13.003906 5.601562 L 13.257812 5.351562 C 13.554688 5.066406 13.84375 4.988281 14.511719 5.015625 L 14.96875 5.035156 L 14.96875 5.648438 C 14.96875 6.046875 14.9375 6.320312 14.871094 6.441406 C 14.820312 6.542969 14.148438 7.246094 13.382812 8.007812 L 11.992188 9.394531 L 10.59375 8.007812 C 9.824219 7.246094 9.152344 6.542969 9.097656 6.441406 C 9.039062 6.320312 9.003906 6.042969 9.003906 5.644531 L 9.003906 5.03125 L 9.460938 5.019531 C 10.308594 5 10.433594 5.039062 10.851562 5.425781 L 11.039062 5.597656 L 11.035156 4.722656 C 11.035156 3.707031 10.929688 3.367188 10.550781 3.132812 C 10.332031 3 10.238281 2.996094 7.9375 3.011719 L 5.546875 3.03125 L 5.292969 3.285156 L 5.039062 3.542969 L 5.019531 7.933594 L 5 12.328125 L 5.15625 12.5625 C 5.460938 13.015625 5.539062 13.03125 7.867188 13.03125 L 9.953125 13.03125 L 9.953125 14.996094 L 7.867188 14.992188 C 6.382812 14.988281 5.660156 14.960938 5.359375 14.894531 Z M 5.359375 14.894531 "/>
</g>
</svg>
