<?xml version="1.0" encoding="UTF-8"?>
<svg xmlns="http://www.w3.org/2000/svg" xmlns:xlink="http://www.w3.org/1999/xlink" width="16" height="16" viewBox="0 0 16 16" version="1.1">
<g id="surface1">
<path style=" stroke:none;fill-rule:nonzero;fill:rgb(100%,100%,100%);fill-opacity:1;" d="M 1.78125 5 C 1.40625 5.066406 1.105469 5.339844 1 5.703125 C 0.890625 6.070312 1 6.460938 1.28125 6.71875 L 3.28125 8.71875 L 4 9.40625 L 4.71875 8.71875 L 6.71875 6.71875 C 6.976562 6.460938 7.082031 6.085938 6.988281 5.734375 C 6.894531 5.382812 6.617188 5.105469 6.265625 5.011719 C 5.914062 4.917969 5.535156 5.019531 5.28125 5.28125 L 4 6.5625 L 2.71875 5.28125 C 2.476562 5.03125 2.121094 4.921875 1.78125 5 Z M 1.78125 5 "/>
<path style=" stroke:none;fill-rule:nonzero;fill:rgb(100%,100%,100%);fill-opacity:1;" d="M 6 1 C 4.355469 1 3 2.355469 3 4 L 3 8 L 5 8 L 5 4 C 5 3.429688 5.429688 3 6 3 L 10 3 C 10.570312 3 11 3.429688 11 4 L 11 12 C 11 12.570312 10.570312 13 10 13 L 6 13 L 6 15 L 10 15 C 11.644531 15 13 13.644531 13 12 L 13 4 C 13 2.355469 11.644531 1 10 1 Z M 6 1 "/>
<path style=" stroke:none;fill-rule:nonzero;fill:rgb(100%,100%,100%);fill-opacity:1;" d="M 7 6 L 7 5 L 6 5 L 6 6 Z M 7 6 "/>
<path style=" stroke:none;fill-rule:nonzero;fill:rgb(100%,100%,100%);fill-opacity:1;" d="M 2 6 L 2 5 L 1 5 L 1 6 Z M 2 6 "/>
</g>
</svg>
