<?xml version="1.0" encoding="UTF-8"?>
<svg xmlns="http://www.w3.org/2000/svg" xmlns:xlink="http://www.w3.org/1999/xlink" width="16" height="16" viewBox="0 0 16 16" version="1.1">
<g id="surface1">
<path style=" stroke:none;fill-rule:nonzero;fill:rgb(74.509804%,74.509804%,74.509804%);fill-opacity:1;" d="M 7.996094 2.992188 C 5.246094 2.992188 2.988281 5.246094 2.988281 7.996094 C 2.988281 10.746094 5.246094 13.003906 7.996094 13.003906 C 10.746094 13.003906 13.003906 10.746094 13.003906 7.996094 C 13.003906 5.246094 10.746094 2.992188 7.996094 2.992188 Z M 7.996094 2.992188 "/>
<path style=" stroke:none;fill-rule:nonzero;fill:rgb(74.509804%,74.509804%,74.509804%);fill-opacity:1;" d="M 0.5625 7 L 1.4375 7 C 1.75 7 2 7.25 2 7.5625 L 2 8.4375 C 2 8.746094 1.75 9 1.4375 9 L 0.5625 9 C 0.253906 9 0 8.746094 0 8.4375 L 0 7.5625 C 0 7.25 0.253906 7 0.5625 7 Z M 0.5625 7 "/>
<path style=" stroke:none;fill-rule:nonzero;fill:rgb(74.509804%,74.509804%,74.509804%);fill-opacity:1;" d="M 14.5625 7 L 15.4375 7 C 15.746094 7 16 7.25 16 7.5625 L 16 8.4375 C 16 8.746094 15.746094 9 15.4375 9 L 14.5625 9 C 14.25 9 14 8.746094 14 8.4375 L 14 7.5625 C 14 7.25 14.25 7 14.5625 7 Z M 14.5625 7 "/>
<path style=" stroke:none;fill-rule:nonzero;fill:rgb(74.509804%,74.509804%,74.509804%);fill-opacity:1;" d="M 9 0.5625 L 9 1.4375 C 9 1.75 8.746094 2 8.4375 2 L 7.5625 2 C 7.25 2 7 1.75 7 1.4375 L 7 0.5625 C 7 0.253906 7.25 0 7.5625 0 L 8.4375 0 C 8.746094 0 9 0.253906 9 0.5625 Z M 9 0.5625 "/>
<path style=" stroke:none;fill-rule:nonzero;fill:rgb(74.509804%,74.509804%,74.509804%);fill-opacity:1;" d="M 9 14.5625 L 9 15.4375 C 9 15.746094 8.746094 16 8.4375 16 L 7.5625 16 C 7.25 16 7 15.746094 7 15.4375 L 7 14.5625 C 7 14.25 7.25 14 7.5625 14 L 8.4375 14 C 8.746094 14 9 14.25 9 14.5625 Z M 9 14.5625 "/>
<path style=" stroke:none;fill-rule:nonzero;fill:rgb(74.509804%,74.509804%,74.509804%);fill-opacity:1;" d="M 13.96875 3.445312 L 13.347656 4.0625 C 13.128906 4.28125 12.773438 4.28125 12.554688 4.0625 L 11.933594 3.445312 C 11.714844 3.226562 11.714844 2.867188 11.933594 2.648438 L 12.554688 2.03125 C 12.773438 1.8125 13.128906 1.8125 13.347656 2.03125 L 13.96875 2.648438 C 14.1875 2.867188 14.1875 3.226562 13.96875 3.445312 Z M 13.96875 3.445312 "/>
<path style=" stroke:none;fill-rule:nonzero;fill:rgb(74.509804%,74.509804%,74.509804%);fill-opacity:1;" d="M 4.066406 13.34375 L 3.449219 13.960938 C 3.230469 14.183594 2.875 14.183594 2.652344 13.960938 L 2.035156 13.34375 C 1.816406 13.125 1.816406 12.769531 2.035156 12.546875 L 2.652344 11.929688 C 2.875 11.710938 3.230469 11.710938 3.449219 11.929688 L 4.066406 12.546875 C 4.289062 12.769531 4.289062 13.125 4.066406 13.34375 Z M 4.066406 13.34375 "/>
<path style=" stroke:none;fill-rule:nonzero;fill:rgb(74.509804%,74.509804%,74.509804%);fill-opacity:1;" d="M 3.445312 2.035156 L 4.0625 2.652344 C 4.28125 2.875 4.28125 3.230469 4.0625 3.449219 L 3.445312 4.066406 C 3.226562 4.289062 2.867188 4.289062 2.648438 4.066406 L 2.03125 3.449219 C 1.8125 3.230469 1.8125 2.875 2.03125 2.652344 L 2.648438 2.035156 C 2.867188 1.816406 3.226562 1.816406 3.445312 2.035156 Z M 3.445312 2.035156 "/>
<path style=" stroke:none;fill-rule:nonzero;fill:rgb(74.509804%,74.509804%,74.509804%);fill-opacity:1;" d="M 13.34375 11.933594 L 13.960938 12.554688 C 14.183594 12.773438 14.183594 13.128906 13.960938 13.347656 L 13.34375 13.96875 C 13.125 14.1875 12.769531 14.1875 12.546875 13.96875 L 11.929688 13.347656 C 11.710938 13.128906 11.710938 12.773438 11.929688 12.554688 L 12.546875 11.933594 C 12.769531 11.714844 13.125 11.714844 13.34375 11.933594 Z M 13.34375 11.933594 "/>
<path style=" stroke:none;fill-rule:nonzero;fill:rgb(100%,40%,0%);fill-opacity:1;" d="M 7.417969 1.972656 C 7.238281 1.921875 7.089844 1.777344 7.039062 1.601562 C 6.992188 1.453125 6.992188 0.546875 7.035156 0.398438 C 7.074219 0.261719 7.195312 0.125 7.324219 0.0664062 C 7.425781 0.0195312 7.441406 0.0195312 8.003906 0.015625 C 8.550781 0.015625 8.585938 0.0195312 8.671875 0.0625 C 8.777344 0.113281 8.886719 0.21875 8.9375 0.324219 C 8.972656 0.390625 8.976562 0.464844 8.980469 0.964844 C 8.988281 1.589844 8.980469 1.644531 8.863281 1.792969 C 8.824219 1.839844 8.75 1.898438 8.679688 1.929688 L 8.5625 1.988281 L 8.039062 1.992188 C 7.664062 1.996094 7.484375 1.988281 7.417969 1.972656 Z M 7.417969 1.972656 "/>
<path style=" stroke:none;fill-rule:nonzero;fill:rgb(100%,40%,0%);fill-opacity:1;" d="M 12.835938 4.210938 C 12.691406 4.171875 12.605469 4.101562 12.230469 3.726562 C 11.859375 3.351562 11.835938 3.324219 11.804688 3.207031 C 11.78125 3.128906 11.773438 3.054688 11.78125 2.996094 C 11.804688 2.804688 11.863281 2.726562 12.230469 2.355469 C 12.632812 1.953125 12.746094 1.875 12.9375 1.875 C 13.160156 1.875 13.210938 1.910156 13.632812 2.320312 C 14.078125 2.765625 14.113281 2.820312 14.113281 3.050781 C 14.113281 3.167969 14.101562 3.226562 14.070312 3.289062 C 14.007812 3.402344 13.265625 4.132812 13.171875 4.171875 C 13.082031 4.210938 12.914062 4.230469 12.835938 4.210938 Z M 12.835938 4.210938 "/>
<path style=" stroke:none;fill-rule:nonzero;fill:rgb(100%,40%,0%);fill-opacity:1;" d="M 14.375 8.957031 C 14.246094 8.910156 14.121094 8.796875 14.058594 8.664062 C 14.011719 8.574219 14.011719 8.550781 14.011719 8.003906 L 14.011719 7.4375 L 14.070312 7.320312 C 14.101562 7.253906 14.160156 7.171875 14.203125 7.136719 C 14.34375 7.019531 14.410156 7.011719 15.035156 7.015625 C 15.664062 7.023438 15.679688 7.027344 15.828125 7.171875 C 15.976562 7.316406 15.980469 7.34375 15.980469 7.992188 C 15.980469 8.558594 15.980469 8.574219 15.933594 8.675781 C 15.90625 8.734375 15.84375 8.8125 15.796875 8.855469 C 15.648438 8.980469 15.570312 8.996094 14.992188 8.992188 C 14.554688 8.992188 14.472656 8.988281 14.375 8.957031 Z M 14.375 8.957031 "/>
<path style=" stroke:none;fill-rule:nonzero;fill:rgb(100%,40%,0%);fill-opacity:1;" d="M 12.832031 14.113281 C 12.78125 14.101562 12.722656 14.082031 12.695312 14.070312 C 12.613281 14.027344 11.875 13.28125 11.832031 13.195312 C 11.769531 13.078125 11.757812 12.90625 11.804688 12.769531 C 11.835938 12.667969 11.878906 12.617188 12.246094 12.253906 C 12.609375 11.890625 12.660156 11.84375 12.757812 11.8125 C 12.894531 11.769531 13.066406 11.777344 13.1875 11.832031 C 13.234375 11.855469 13.417969 12.019531 13.636719 12.234375 C 14.0625 12.65625 14.117188 12.734375 14.113281 12.957031 C 14.109375 13.03125 14.09375 13.125 14.074219 13.171875 C 14.019531 13.296875 13.300781 14.015625 13.179688 14.070312 C 13.054688 14.121094 12.941406 14.132812 12.832031 14.113281 Z M 12.832031 14.113281 "/>
<path style=" stroke:none;fill-rule:nonzero;fill:rgb(100%,40%,0%);fill-opacity:1;" d="M 7.382812 15.964844 C 7.261719 15.917969 7.140625 15.816406 7.078125 15.699219 L 7.015625 15.589844 L 7.015625 14.414062 L 7.078125 14.300781 C 7.148438 14.175781 7.28125 14.066406 7.40625 14.03125 C 7.460938 14.015625 7.679688 14.007812 8.046875 14.011719 C 8.535156 14.019531 8.613281 14.023438 8.671875 14.054688 C 8.789062 14.121094 8.886719 14.222656 8.9375 14.328125 C 8.984375 14.429688 8.984375 14.449219 8.984375 15 C 8.984375 15.554688 8.984375 15.570312 8.9375 15.671875 C 8.910156 15.730469 8.851562 15.808594 8.800781 15.851562 C 8.648438 15.980469 8.59375 15.992188 7.988281 15.988281 C 7.628906 15.988281 7.425781 15.980469 7.382812 15.964844 Z M 7.382812 15.964844 "/>
<path style=" stroke:none;fill-rule:nonzero;fill:rgb(100%,40%,0%);fill-opacity:1;" d="M 2.867188 14.085938 C 2.75 14.046875 2.640625 13.953125 2.304688 13.613281 C 1.925781 13.226562 1.886719 13.167969 1.886719 12.945312 C 1.886719 12.71875 1.921875 12.667969 2.347656 12.242188 C 2.765625 11.824219 2.828125 11.78125 3.03125 11.78125 C 3.265625 11.78125 3.285156 11.792969 3.722656 12.222656 C 4.171875 12.664062 4.21875 12.734375 4.21875 12.945312 C 4.21875 13.152344 4.175781 13.214844 3.757812 13.636719 C 3.332031 14.0625 3.261719 14.113281 3.054688 14.109375 C 2.984375 14.109375 2.902344 14.101562 2.867188 14.085938 Z M 2.867188 14.085938 "/>
<path style=" stroke:none;fill-rule:nonzero;fill:rgb(100%,40%,0%);fill-opacity:1;" d="M 0.410156 8.972656 C 0.269531 8.929688 0.148438 8.824219 0.0742188 8.6875 L 0.0078125 8.554688 L 0.0117188 7.972656 C 0.0195312 7.46875 0.0234375 7.386719 0.0546875 7.328125 C 0.121094 7.210938 0.222656 7.113281 0.328125 7.0625 C 0.429688 7.015625 0.449219 7.015625 1 7.015625 C 1.550781 7.015625 1.570312 7.015625 1.671875 7.0625 C 1.777344 7.113281 1.878906 7.210938 1.945312 7.328125 C 1.976562 7.386719 1.980469 7.464844 1.988281 7.953125 C 1.992188 8.320312 1.984375 8.539062 1.96875 8.59375 C 1.933594 8.71875 1.824219 8.851562 1.699219 8.921875 L 1.585938 8.984375 L 1.03125 8.988281 C 0.722656 8.992188 0.445312 8.984375 0.410156 8.972656 Z M 0.410156 8.972656 "/>
<path style=" stroke:none;fill-rule:nonzero;fill:rgb(100%,40%,0%);fill-opacity:1;" d="M 2.859375 4.1875 C 2.761719 4.15625 2.699219 4.101562 2.359375 3.761719 C 1.917969 3.320312 1.878906 3.261719 1.878906 3.050781 C 1.878906 2.839844 1.917969 2.78125 2.367188 2.335938 C 2.746094 1.960938 2.769531 1.9375 2.886719 1.90625 C 3.03125 1.863281 3.167969 1.875 3.292969 1.9375 C 3.417969 2 4.074219 2.65625 4.148438 2.789062 C 4.199219 2.878906 4.210938 2.917969 4.210938 3.050781 C 4.210938 3.183594 4.199219 3.222656 4.148438 3.3125 C 4.074219 3.449219 3.417969 4.101562 3.292969 4.164062 C 3.164062 4.230469 3 4.238281 2.859375 4.1875 Z M 2.859375 4.1875 "/>
<path style=" stroke:none;fill-rule:nonzero;fill:rgb(100%,100%,0%);fill-opacity:1;" d="M 7.5625 12.976562 C 6.945312 12.917969 6.40625 12.765625 5.835938 12.492188 C 4.351562 11.78125 3.308594 10.371094 3.050781 8.738281 C 3.007812 8.449219 2.992188 7.820312 3.019531 7.519531 C 3.253906 5.179688 5.085938 3.3125 7.429688 3.03125 C 7.695312 2.996094 8.296875 2.996094 8.5625 3.03125 C 10.808594 3.304688 12.589844 5.023438 12.941406 7.261719 C 12.996094 7.59375 12.996094 8.390625 12.941406 8.726562 C 12.6875 10.347656 11.679688 11.726562 10.21875 12.464844 C 9.398438 12.875 8.449219 13.058594 7.5625 12.976562 Z M 7.5625 12.976562 "/>
</g>
</svg>
