<?xml version="1.0" encoding="UTF-8"?>
<svg xmlns="http://www.w3.org/2000/svg" xmlns:xlink="http://www.w3.org/1999/xlink" width="16" height="16" viewBox="0 0 16 16" version="1.1">
<g id="surface1">
<path style=" stroke:none;fill-rule:nonzero;fill:rgb(74.509804%,74.509804%,74.509804%);fill-opacity:1;" d="M 9.5 2 C 8.214844 2 7.171875 2.972656 7.03125 4.21875 C 6.703125 4.097656 6.371094 4 6 4 C 4.34375 4 3 5.34375 3 7 C 3 7.097656 3.023438 7.183594 3.03125 7.28125 C 2.734375 7.101562 2.371094 7 2.003906 7 C 0.898438 7 0.00390625 7.894531 0.00390625 9 C 0.00390625 10.105469 0.898438 11 2.003906 11 L 7.003906 11 L 7.003906 8.875 C 7.003906 7.863281 7.867188 7 8.878906 7 L 13.941406 7 C 13.730469 6.015625 12.941406 5.242188 11.941406 5.0625 C 11.980469 4.882812 12.003906 4.695312 12.003906 4.5 C 12.003906 3.117188 10.882812 2 9.503906 2 Z M 9.5 2 "/>
<path style=" stroke:none;fill-rule:nonzero;fill:rgb(96.078431%,47.45098%,0%);fill-opacity:1;" d="M 8.878906 8 C 8.386719 8 8.003906 8.382812 8.003906 8.875 L 8.003906 15.125 C 8.003906 15.617188 8.386719 16 8.878906 16 L 15.128906 16 C 15.621094 16 16.003906 15.617188 16.003906 15.125 L 16.003906 8.875 C 16.003906 8.382812 15.621094 8 15.128906 8 Z M 11.003906 9 L 13.003906 9 L 13.003906 13 L 11.003906 13 Z M 11.003906 14 L 13.003906 14 L 13.003906 15 L 11.003906 15 Z M 11.003906 14 "/>
</g>
</svg>
