<?xml version="1.0" encoding="UTF-8"?>
<svg xmlns="http://www.w3.org/2000/svg" xmlns:xlink="http://www.w3.org/1999/xlink" width="16" height="16" viewBox="0 0 16 16" version="1.1">
<g id="surface1">
<path style=" stroke:none;fill-rule:nonzero;fill:rgb(50.196078%,50.196078%,50.196078%);fill-opacity:1;" d="M 9.507812 0.0390625 C 8.238281 0.0390625 7.203125 1.011719 7.0625 2.257812 C 6.738281 2.136719 6.40625 2.039062 6.039062 2.039062 C 4.398438 2.039062 3.0625 3.382812 3.0625 5.039062 C 3.0625 5.140625 3.085938 5.226562 3.09375 5.320312 C 2.796875 5.140625 2.445312 5.039062 2.074219 5.039062 C 0.976562 5.039062 0.0898438 5.9375 0.0898438 7.039062 C 0.0898438 8.144531 0.90625 8.996094 2 8.996094 L 7 8.996094 L 7 7.496094 C 6.984375 6.710938 7.738281 6.023438 8.519531 6.007812 C 9.316406 5.992188 10.015625 6.691406 10 7.496094 L 10 8.996094 L 14.5 8.996094 C 15.320312 8.996094 15.957031 8.367188 15.957031 7.539062 C 15.957031 6.710938 15.289062 6.039062 14.46875 6.039062 C 14.261719 6.039062 14.058594 6.089844 13.878906 6.164062 C 13.929688 5.964844 13.972656 5.757812 13.972656 5.539062 C 13.972656 4.3125 13.085938 3.3125 11.925781 3.101562 C 11.96875 2.921875 11.988281 2.734375 11.988281 2.539062 C 11.988281 1.160156 10.878906 0.0390625 9.511719 0.0390625 Z M 9.507812 0.0390625 "/>
<path style=" stroke:none;fill-rule:nonzero;fill:rgb(74.509804%,74.509804%,74.509804%);fill-opacity:1;" d="M 8.410156 7 C 8.167969 7.042969 7.996094 7.253906 8 7.5 L 8 10 L 5 10 L 5 11 L 3.28125 11 L 3.15625 11.15625 L 0.65625 13.65625 C 0.480469 13.765625 0.390625 13.96875 0.429688 14.171875 C 0.464844 14.375 0.625 14.535156 0.828125 14.570312 C 1.03125 14.609375 1.234375 14.519531 1.34375 14.34375 L 3.683594 11.992188 L 4.992188 11.992188 L 4.992188 14.992188 C 4.992188 15.269531 5.21875 15.492188 5.492188 15.492188 C 5.769531 15.492188 5.992188 15.269531 5.992188 14.992188 L 5.992188 11.617188 C 6.007812 11.546875 6.007812 11.472656 5.992188 11.398438 L 5.992188 11 L 7.992188 11 L 7.992188 11.71875 L 8.148438 11.84375 L 9.992188 13.695312 L 9.992188 15.003906 C 9.992188 15.28125 10.214844 15.503906 10.492188 15.503906 C 10.765625 15.503906 10.992188 15.28125 10.992188 15.003906 L 10.992188 14.003906 L 12.335938 14.003906 L 14.742188 15.441406 C 14.980469 15.578125 15.289062 15.496094 15.429688 15.253906 C 15.566406 15.011719 15.480469 14.703125 15.242188 14.566406 L 12.742188 13.066406 L 12.617188 13.003906 L 10.679688 13.003906 L 8.992188 11.316406 L 8.992188 10.628906 C 9.007812 10.554688 9.007812 10.480469 8.992188 10.410156 L 8.992188 7.507812 C 8.992188 7.359375 8.929688 7.214844 8.8125 7.117188 C 8.695312 7.023438 8.542969 6.980469 8.398438 7.007812 Z M 8.410156 7 "/>
<path style=" stroke:none;fill-rule:nonzero;fill:rgb(100%,100%,0%);fill-opacity:1;" d="M 10.382812 15.484375 C 10.285156 15.460938 10.171875 15.390625 10.113281 15.320312 C 10 15.183594 9.996094 15.152344 9.996094 14.382812 L 9.996094 13.683594 L 9 12.6875 L 8 11.691406 L 8 11 L 5.988281 11 L 5.984375 13.046875 L 5.984375 15.09375 L 5.9375 15.191406 C 5.851562 15.382812 5.710938 15.472656 5.492188 15.472656 C 5.285156 15.472656 5.140625 15.386719 5.050781 15.207031 C 5.015625 15.136719 5.015625 15.070312 5.003906 13.5625 L 4.996094 11.988281 L 4.34375 11.984375 L 3.695312 11.976562 L 2.425781 13.25 C 1.464844 14.210938 1.140625 14.527344 1.089844 14.542969 C 1.050781 14.558594 0.96875 14.566406 0.90625 14.566406 C 0.769531 14.566406 0.625 14.496094 0.535156 14.390625 C 0.425781 14.257812 0.398438 14.019531 0.476562 13.871094 C 0.496094 13.835938 1.144531 13.171875 1.914062 12.402344 L 3.316406 11 L 5.003906 11 L 5.003906 10 L 8 10 L 8.003906 8.6875 C 8.011719 7.234375 8.003906 7.316406 8.132812 7.164062 C 8.210938 7.078125 8.359375 7.007812 8.460938 7.003906 C 8.667969 7.003906 8.863281 7.125 8.9375 7.304688 C 8.980469 7.398438 8.980469 7.410156 8.980469 9.351562 L 8.980469 11.308594 L 9.832031 12.164062 L 10.683594 13.015625 L 11.652344 13.015625 C 12.597656 13.015625 12.617188 13.015625 12.695312 13.054688 C 12.882812 13.148438 15.269531 14.589844 15.328125 14.640625 C 15.460938 14.765625 15.511719 14.980469 15.457031 15.167969 C 15.429688 15.261719 15.308594 15.398438 15.210938 15.449219 C 15.109375 15.5 14.945312 15.511719 14.847656 15.480469 C 14.804688 15.464844 14.222656 15.125 13.550781 14.722656 L 12.332031 13.996094 L 10.976562 13.996094 L 10.976562 14.554688 C 10.976562 15.105469 10.976562 15.117188 10.933594 15.210938 C 10.835938 15.417969 10.597656 15.535156 10.382812 15.484375 Z M 10.382812 15.484375 "/>
</g>
</svg>
