<?xml version="1.0" encoding="UTF-8"?>
<svg xmlns="http://www.w3.org/2000/svg" xmlns:xlink="http://www.w3.org/1999/xlink" width="16" height="16" viewBox="0 0 16 16" version="1.1">
<g id="surface1">
<path style=" stroke:none;fill-rule:nonzero;fill:rgb(74.509804%,74.509804%,74.509804%);fill-opacity:1;" d="M 9.539062 0 C 8.261719 0 7.226562 0.972656 7.085938 2.21875 C 6.765625 2.097656 6.425781 2 6.066406 2 C 4.417969 2 3.082031 3.34375 3.082031 5 C 3.082031 5.097656 3.101562 5.183594 3.113281 5.28125 C 2.8125 5.101562 2.453125 5 2.082031 5 C 0.984375 5 0.09375 5.894531 0.09375 7 C 0.09375 8.105469 0.984375 9 2.082031 9 L 3.109375 9 C 2.941406 8.476562 3.074219 7.90625 3.449219 7.511719 C 3.824219 7.113281 4.382812 6.953125 4.910156 7.09375 C 4.921875 7.09375 4.929688 7.09375 4.941406 7.09375 C 5.285156 6.734375 5.789062 6.570312 6.277344 6.65625 C 6.480469 6.363281 6.777344 6.15625 7.117188 6.0625 C 7.292969 5.429688 7.859375 4.984375 8.515625 4.96875 C 9.191406 4.957031 9.792969 5.40625 9.976562 6.0625 C 10.316406 6.15625 10.613281 6.363281 10.816406 6.65625 C 11.320312 6.539062 11.847656 6.691406 12.214844 7.0625 C 12.742188 6.929688 13.300781 7.101562 13.671875 7.503906 C 14.039062 7.90625 14.160156 8.480469 13.984375 9 L 14.511719 9 C 15.335938 9 16.003906 8.328125 16.003906 7.5 C 16.003906 6.671875 15.335938 6 14.511719 6 C 14.308594 6 14.101562 6.050781 13.921875 6.125 C 13.976562 5.921875 14.015625 5.71875 14.015625 5.5 C 14.015625 4.269531 13.128906 3.273438 11.964844 3.0625 C 12.007812 2.882812 12.027344 2.695312 12.027344 2.5 C 12.027344 1.121094 10.914062 0 9.539062 0 Z M 9.539062 0 "/>
<path style=" stroke:none;fill-rule:nonzero;fill:rgb(100%,100%,100%);fill-opacity:1;" d="M 8.441406 5.941406 C 8.175781 5.972656 7.984375 6.203125 8 6.46875 L 8 7.125 L 7.71875 7 C 7.46875 6.878906 7.167969 6.984375 7.046875 7.234375 C 6.925781 7.484375 7.03125 7.785156 7.28125 7.90625 L 8 8.246094 L 8 10.058594 L 6.34375 9.027344 L 6.40625 8.152344 C 6.433594 7.878906 6.230469 7.632812 5.953125 7.605469 C 5.679688 7.582031 5.433594 7.785156 5.40625 8.058594 L 5.375 8.464844 L 4.78125 8.089844 C 4.632812 7.984375 4.433594 7.964844 4.269531 8.046875 C 4.101562 8.128906 3.996094 8.296875 3.988281 8.480469 C 3.984375 8.667969 4.082031 8.839844 4.242188 8.929688 L 4.898438 9.335938 L 4.585938 9.585938 C 4.363281 9.75 4.3125 10.066406 4.476562 10.289062 C 4.640625 10.515625 4.957031 10.5625 5.179688 10.398438 L 5.835938 9.898438 L 7.523438 10.929688 L 5.804688 11.992188 L 5.148438 11.523438 C 5.015625 11.375 4.804688 11.320312 4.613281 11.382812 C 4.421875 11.449219 4.289062 11.625 4.277344 11.828125 C 4.265625 12.027344 4.375 12.21875 4.554688 12.304688 L 4.898438 12.554688 L 4.210938 12.960938 C 3.96875 13.109375 3.890625 13.421875 4.039062 13.664062 C 4.1875 13.90625 4.5 13.984375 4.742188 13.835938 L 5.367188 13.460938 L 5.398438 13.835938 C 5.410156 14.015625 5.515625 14.175781 5.675781 14.257812 C 5.835938 14.335938 6.027344 14.324219 6.175781 14.226562 C 6.324219 14.125 6.410156 13.953125 6.398438 13.773438 L 6.335938 12.867188 L 7.992188 11.835938 L 7.992188 13.648438 L 7.273438 13.96875 C 7.023438 14.089844 6.917969 14.390625 7.039062 14.640625 C 7.160156 14.890625 7.460938 14.996094 7.710938 14.875 L 7.992188 14.75 L 7.992188 15.4375 C 7.988281 15.617188 8.082031 15.789062 8.238281 15.878906 C 8.394531 15.96875 8.585938 15.96875 8.742188 15.878906 C 8.898438 15.789062 8.992188 15.617188 8.992188 15.4375 L 8.992188 14.75 L 9.273438 14.875 C 9.523438 14.996094 9.824219 14.890625 9.945312 14.640625 C 10.070312 14.390625 9.964844 14.085938 9.710938 13.964844 L 8.992188 13.625 L 8.992188 11.8125 L 10.648438 12.8125 L 10.585938 13.75 C 10.578125 14.027344 10.792969 14.257812 11.070312 14.265625 C 11.347656 14.273438 11.578125 14.058594 11.585938 13.78125 L 11.617188 13.40625 L 12.210938 13.78125 C 12.363281 13.894531 12.5625 13.914062 12.730469 13.828125 C 12.898438 13.746094 13.007812 13.574219 13.007812 13.386719 C 13.011719 13.199219 12.910156 13.027344 12.742188 12.9375 L 12.054688 12.53125 L 12.398438 12.28125 C 12.5625 12.183594 12.65625 12.003906 12.640625 11.8125 C 12.628906 11.621094 12.507812 11.457031 12.332031 11.382812 C 12.152344 11.3125 11.953125 11.347656 11.808594 11.472656 L 11.152344 11.972656 L 9.464844 10.941406 L 11.152344 9.910156 L 11.839844 10.378906 C 11.984375 10.515625 12.191406 10.554688 12.375 10.480469 C 12.554688 10.402344 12.679688 10.226562 12.683594 10.03125 C 12.691406 9.835938 12.578125 9.652344 12.402344 9.566406 L 12.089844 9.347656 L 12.777344 8.910156 C 13.019531 8.761719 13.09375 8.449219 12.949219 8.207031 C 12.804688 7.964844 12.488281 7.890625 12.246094 8.035156 L 11.621094 8.410156 L 11.589844 8.035156 C 11.578125 7.855469 11.472656 7.695312 11.3125 7.617188 C 11.152344 7.535156 10.960938 7.546875 10.8125 7.648438 C 10.664062 7.746094 10.578125 7.917969 10.589844 8.097656 L 10.652344 9.003906 L 8.996094 10.035156 L 8.996094 8.222656 L 9.714844 7.878906 C 9.894531 7.8125 10.019531 7.648438 10.039062 7.457031 C 10.058594 7.269531 9.96875 7.082031 9.804688 6.980469 C 9.644531 6.878906 9.4375 6.878906 9.273438 6.980469 L 8.996094 7.097656 L 8.996094 6.441406 C 9.003906 6.292969 8.949219 6.148438 8.839844 6.042969 C 8.730469 5.941406 8.582031 5.890625 8.433594 5.910156 Z M 8.441406 5.941406 "/>
</g>
</svg>
