<?xml version="1.0" encoding="UTF-8"?>
<svg xmlns="http://www.w3.org/2000/svg" xmlns:xlink="http://www.w3.org/1999/xlink" width="16" height="16" viewBox="0 0 16 16" version="1.1">
<g id="surface1">
<path style=" stroke:none;fill-rule:nonzero;fill:rgb(74.509804%,74.509804%,74.509804%);fill-opacity:1;" d="M 9.5 4 C 8.214844 4 7.171875 4.972656 7.03125 6.21875 C 6.703125 6.097656 6.371094 6 6 6 C 4.34375 6 3 7.34375 3 9 C 3 9.097656 3.023438 9.183594 3.03125 9.28125 C 2.734375 9.101562 2.371094 9 2.003906 9 C 0.898438 9 0.00390625 9.894531 0.00390625 11 C 0.00390625 12.105469 0.898438 13 2.003906 13 L 14.503906 13 C 15.332031 13 16.003906 12.328125 16.003906 11.5 C 16.003906 10.671875 15.332031 10 14.503906 10 C 14.296875 10 14.085938 10.050781 13.910156 10.125 C 13.960938 9.921875 14.003906 9.71875 14.003906 9.5 C 14.003906 8.269531 13.109375 7.273438 11.941406 7.0625 C 11.980469 6.882812 12.003906 6.695312 12.003906 6.5 C 12.003906 5.117188 10.882812 4 9.503906 4 Z M 9.5 4 "/>
</g>
</svg>
