<?xml version="1.0" encoding="UTF-8"?>
<svg xmlns="http://www.w3.org/2000/svg" xmlns:xlink="http://www.w3.org/1999/xlink" width="22" height="22" viewBox="0 0 22 22" version="1.1">
<g id="surface1">
<path style=" stroke:none;fill-rule:nonzero;fill:rgb(100%,100%,100%);fill-opacity:1;" d="M 15.742188 3.382812 L 7.570312 11.511719 C 5.78125 13.289062 4.957031 15.371094 5.722656 16.179688 C 6.484375 16.984375 8.542969 16.203125 10.328125 14.425781 L 18.503906 6.296875 C 20.292969 4.515625 21.117188 2.433594 20.351562 1.628906 C 19.589844 0.820312 17.53125 1.605469 15.742188 3.382812 Z M 15.742188 3.382812 "/>
<path style=" stroke:none;fill-rule:nonzero;fill:rgb(100%,100%,100%);fill-opacity:1;" d="M 4.195312 3.339844 L 2.503906 5.085938 L 10.648438 11.273438 L 16.890625 19.472656 L 18.636719 17.78125 L 15.003906 6.972656 Z M 4.195312 3.339844 "/>
<path style=" stroke:none;fill-rule:nonzero;fill:rgb(100%,100%,100%);fill-opacity:1;" d="M 8.664062 13.269531 L 2.34375 12.796875 L 1.382812 13.769531 L 5.300781 16.667969 L 8.160156 20.578125 L 9.125 19.609375 Z M 8.664062 13.269531 "/>
</g>
</svg>
