<?xml version="1.0" encoding="UTF-8"?>
<svg xmlns="http://www.w3.org/2000/svg" xmlns:xlink="http://www.w3.org/1999/xlink" width="22" height="22" viewBox="0 0 22 22" version="1.1">
<g id="surface1">
<path style=" stroke:none;fill-rule:nonzero;fill:rgb(100%,100%,100%);fill-opacity:1;" d="M 10.1875 8.25 C 9.859375 8.308594 9.621094 8.601562 9.625 8.9375 L 9.625 12.375 L 7.5625 12.375 C 7.316406 12.371094 7.082031 12.5 6.957031 12.714844 C 6.835938 12.929688 6.835938 13.195312 6.957031 13.410156 C 7.082031 13.625 7.316406 13.753906 7.5625 13.75 L 10.3125 13.75 C 10.691406 13.75 11 13.441406 11 13.0625 L 11 8.9375 C 11.003906 8.730469 10.914062 8.53125 10.753906 8.398438 C 10.597656 8.265625 10.386719 8.210938 10.183594 8.25 Z M 10.1875 8.25 "/>
<path style=" stroke:none;fill-rule:nonzero;fill:rgb(100%,100%,100%);fill-opacity:1;" d="M 10.273438 4.207031 C 5.375 4.207031 1.410156 8.214844 1.410156 13.109375 C 1.410156 18.003906 5.375 22.011719 10.273438 22.011719 C 15.167969 22.011719 19.171875 18.003906 19.171875 13.109375 C 19.171875 8.214844 15.167969 4.207031 10.273438 4.207031 Z M 10.273438 6.933594 C 13.691406 6.933594 16.449219 9.6875 16.449219 13.109375 C 16.449219 16.53125 13.691406 19.285156 10.273438 19.285156 C 6.847656 19.285156 4.136719 16.53125 4.136719 13.109375 C 4.136719 9.6875 6.847656 6.933594 10.273438 6.933594 Z M 10.273438 6.933594 "/>
<path style=" stroke:none;fill-rule:nonzero;fill:rgb(100%,100%,100%);fill-opacity:1;" d="M 5.882812 1.375 C 3.402344 1.375 1.375 3.402344 1.375 5.886719 C 1.375 6.441406 1.488281 6.941406 1.675781 7.433594 C 3.332031 4.929688 6.050781 3.167969 9.195312 2.835938 C 8.367188 1.941406 7.1875 1.378906 5.878906 1.378906 Z M 14.734375 1.375 C 13.425781 1.375 12.25 1.941406 11.429688 2.835938 C 14.574219 3.179688 17.300781 4.953125 18.949219 7.476562 C 19.140625 6.972656 19.25 6.457031 19.25 5.886719 C 19.25 3.402344 17.21875 1.375 14.738281 1.375 Z M 14.734375 1.375 "/>
<path style=" stroke:none;fill-rule:nonzero;fill:rgb(100%,100%,100%);fill-opacity:1;" d="M 5.375 17.75 C 5.128906 17.816406 4.90625 17.953125 4.730469 18.136719 L 3.183594 19.640625 C 2.769531 19.964844 2.574219 20.492188 2.679688 21.007812 C 2.785156 21.523438 3.175781 21.933594 3.6875 22.0625 C 4.195312 22.191406 4.734375 22.019531 5.074219 21.617188 L 6.621094 20.113281 C 7.097656 19.695312 7.222656 19.003906 6.925781 18.445312 C 6.632812 17.882812 5.992188 17.597656 5.375 17.75 Z M 5.375 17.75 "/>
<path style=" stroke:none;fill-rule:nonzero;fill:rgb(100%,100%,100%);fill-opacity:1;" d="M 15.042969 17.875 C 14.542969 17.953125 14.125 18.292969 13.957031 18.769531 C 13.785156 19.246094 13.890625 19.777344 14.226562 20.152344 L 15.472656 21.527344 C 15.78125 21.945312 16.296875 22.152344 16.808594 22.066406 C 17.320312 21.980469 17.738281 21.613281 17.894531 21.117188 C 18.046875 20.621094 17.90625 20.082031 17.535156 19.722656 L 16.289062 18.347656 C 15.984375 17.980469 15.507812 17.800781 15.035156 17.867188 Z M 15.042969 17.875 "/>
</g>
</svg>
