<?xml version="1.0" encoding="UTF-8"?>
<svg xmlns="http://www.w3.org/2000/svg" xmlns:xlink="http://www.w3.org/1999/xlink" width="22" height="22" viewBox="0 0 22 22" version="1.1">
<g id="surface1">
<path style=" stroke:none;fill-rule:nonzero;fill:rgb(74.509804%,74.509804%,74.509804%);fill-opacity:1;" d="M 8.9375 0 C 4.015625 0 0 4.015625 0 8.9375 C 0 13.859375 4.015625 17.875 8.9375 17.875 C 9.171875 17.875 9.394531 17.851562 9.625 17.832031 L 9.625 15.039062 C 9.394531 15.066406 9.175781 15.125 8.9375 15.125 C 5.503906 15.125 2.75 12.371094 2.75 8.9375 C 2.75 5.503906 5.503906 2.75 8.9375 2.75 C 12.371094 2.75 15.125 5.503906 15.125 8.9375 C 15.125 9.175781 15.066406 9.394531 15.039062 9.625 L 17.832031 9.625 C 17.851562 9.394531 17.875 9.171875 17.875 8.9375 C 17.875 4.015625 13.859375 0 8.9375 0 Z M 8.9375 0 "/>
<path style=" stroke:none;fill-rule:nonzero;fill:rgb(74.509804%,74.509804%,74.509804%);fill-opacity:1;" d="M 8.8125 4.125 C 8.484375 4.183594 8.246094 4.476562 8.25 4.8125 L 8.25 8.25 L 6.1875 8.25 C 5.941406 8.246094 5.707031 8.375 5.582031 8.589844 C 5.460938 8.804688 5.460938 9.070312 5.582031 9.285156 C 5.707031 9.5 5.941406 9.628906 6.1875 9.625 L 8.9375 9.625 C 9.316406 9.625 9.625 9.316406 9.625 8.9375 L 9.625 4.8125 C 9.628906 4.605469 9.539062 4.40625 9.378906 4.273438 C 9.222656 4.140625 9.011719 4.085938 8.808594 4.125 Z M 8.8125 4.125 "/>
<path style=" stroke:none;fill-rule:nonzero;fill:rgb(96.078431%,47.45098%,0%);fill-opacity:1;" d="M 12.210938 11.097656 C 11.53125 11.097656 11.007812 11.617188 11.007812 12.289062 L 11.007812 20.808594 C 11.007812 21.480469 11.53125 22 12.210938 22 L 20.804688 22 C 21.480469 22 22.007812 21.480469 22.007812 20.808594 L 22.007812 12.289062 C 22.007812 11.617188 21.480469 11.097656 20.804688 11.097656 Z M 15.132812 12.460938 L 17.882812 12.460938 L 17.882812 17.910156 L 15.132812 17.910156 Z M 15.132812 19.273438 L 17.882812 19.273438 L 17.882812 20.636719 L 15.132812 20.636719 Z M 15.132812 19.273438 "/>
<path style=" stroke:none;fill-rule:nonzero;fill:rgb(100%,100%,100%);fill-opacity:1;" d="M 7.4375 17.71875 C 6.589844 17.574219 5.152344 17.035156 4.34375 16.554688 C 3.449219 16.019531 2.148438 14.78125 1.570312 13.917969 C 1.058594 13.15625 0.605469 12.171875 0.335938 11.242188 C 0.148438 10.605469 0.121094 10.296875 0.121094 8.921875 C 0.121094 7.535156 0.148438 7.242188 0.339844 6.589844 C 1.195312 3.660156 3.441406 1.34375 6.285156 0.453125 C 11.058594 -1.042969 16.15625 1.726562 17.503906 6.550781 C 17.734375 7.375 17.894531 8.78125 17.816406 9.269531 L 17.761719 9.621094 L 15.128906 9.621094 L 15.125 8.757812 C 15.117188 7.121094 14.523438 5.777344 13.265625 4.527344 C 12.390625 3.660156 11.429688 3.128906 10.265625 2.871094 C 7.046875 2.160156 3.769531 4.171875 2.910156 7.382812 C 2.699219 8.179688 2.695312 9.648438 2.902344 10.460938 C 3.601562 13.171875 6.070312 15.121094 8.808594 15.121094 L 9.582031 15.121094 L 9.582031 17.824219 L 8.765625 17.8125 C 8.320312 17.808594 7.722656 17.765625 7.4375 17.71875 Z M 7.4375 17.71875 "/>
<path style=" stroke:none;fill-rule:nonzero;fill:rgb(100%,100%,100%);fill-opacity:1;" d="M 5.875 9.503906 C 5.523438 9.335938 5.453125 8.796875 5.738281 8.476562 C 5.863281 8.339844 6.058594 8.316406 7.082031 8.316406 L 8.277344 8.316406 L 8.277344 6.445312 C 8.277344 4.585938 8.277344 4.578125 8.507812 4.347656 C 8.785156 4.070312 9.015625 4.058594 9.335938 4.3125 L 9.582031 4.507812 L 9.582031 9.164062 L 9.355469 9.390625 C 9.128906 9.617188 9.097656 9.621094 7.605469 9.613281 C 6.710938 9.609375 6 9.566406 5.875 9.503906 Z M 5.875 9.503906 "/>
</g>
</svg>
