<?xml version="1.0" encoding="UTF-8"?>
<svg xmlns="http://www.w3.org/2000/svg" xmlns:xlink="http://www.w3.org/1999/xlink" width="22" height="22" viewBox="0 0 22 22" version="1.1">
<g id="surface1">
<path style=" stroke:none;fill-rule:nonzero;fill:rgb(74.509804%,74.509804%,74.509804%);fill-opacity:1;" d="M 6.875 15.125 L 6.875 17.875 L 15.125 17.875 L 15.125 15.125 Z M 6.875 15.125 "/>
<path style=" stroke:none;fill-rule:nonzero;fill:rgb(74.509804%,74.509804%,74.509804%);fill-opacity:1;" d="M 7.519531 0 C 6.84375 0 6.425781 0.3125 6.101562 0.644531 C 5.777344 0.976562 5.5 1.371094 5.5 2.019531 L 5.5 2.746094 L 2.75 2.746094 L 2.75 21.996094 L 19.25 21.996094 L 19.25 2.746094 L 16.5 2.746094 L 16.5 2.148438 C 16.46875 1.554688 16.265625 1.15625 15.941406 0.773438 C 15.632812 0.40625 15.078125 0.0429688 14.351562 0.0429688 L 14.351562 0 Z M 8.25 2.75 L 13.75 2.75 L 13.75 5.5 L 16.5 5.5 L 16.5 19.25 L 5.5 19.25 L 5.5 5.5 L 8.25 5.5 Z M 8.25 2.75 "/>
<path style=" stroke:none;fill-rule:nonzero;fill:rgb(100%,0%,0%);fill-opacity:1;" d="M 6.878906 16.511719 L 6.878906 15.148438 L 15.109375 15.148438 L 15.109375 17.871094 L 6.878906 17.871094 Z M 6.878906 16.511719 "/>
<path style=" stroke:none;fill-rule:nonzero;fill:rgb(0%,0%,0%);fill-opacity:1;" d="M 2.765625 12.367188 L 2.765625 2.746094 L 5.511719 2.746094 L 5.523438 2.1875 C 5.535156 1.710938 5.546875 1.601562 5.597656 1.4375 C 5.75 0.980469 6.28125 0.390625 6.738281 0.183594 C 7.136719 0 6.878906 0.0117188 10.789062 0.00390625 C 13.234375 -0.00390625 14.34375 0.00390625 14.34375 0.0234375 C 14.34375 0.0390625 14.386719 0.0507812 14.445312 0.0507812 C 14.582031 0.0507812 14.945312 0.132812 15.121094 0.199219 C 15.613281 0.390625 16.121094 0.894531 16.320312 1.386719 C 16.4375 1.679688 16.472656 1.875 16.492188 2.316406 L 16.507812 2.746094 L 19.253906 2.746094 L 19.253906 21.988281 L 2.765625 21.988281 Z M 16.5 12.382812 L 16.5 5.5 L 13.746094 5.5 L 13.746094 2.746094 L 8.242188 2.746094 L 8.242188 5.5 L 5.488281 5.5 L 5.488281 19.261719 L 16.5 19.261719 Z M 16.5 12.382812 "/>
<path style=" stroke:none;fill-rule:nonzero;fill:rgb(100%,100%,100%);fill-opacity:1;" d="M 2.777344 12.371094 L 2.777344 2.816406 L 5.574219 2.816406 L 5.574219 2.214844 C 5.574219 1.480469 5.65625 1.253906 6.097656 0.761719 C 6.742188 0.0546875 6.613281 0.0742188 10.46875 0.0351562 C 14.445312 -0.0078125 14.933594 0.0390625 15.582031 0.535156 C 16.085938 0.921875 16.367188 1.472656 16.449219 2.238281 L 16.507812 2.816406 L 19.183594 2.816406 L 19.183594 21.925781 L 2.777344 21.925781 Z M 16.550781 12.394531 L 16.527344 5.472656 L 15.152344 5.445312 L 13.777344 5.421875 L 13.777344 2.722656 L 8.183594 2.722656 L 8.183594 5.425781 L 5.480469 5.425781 L 5.480469 19.316406 L 16.574219 19.316406 Z M 16.550781 12.394531 "/>
</g>
</svg>
