<?xml version="1.0" encoding="UTF-8"?>
<svg xmlns="http://www.w3.org/2000/svg" xmlns:xlink="http://www.w3.org/1999/xlink" width="22" height="22" viewBox="0 0 22 22" version="1.1">
<g id="surface1">
<path style=" stroke:none;fill-rule:nonzero;fill:rgb(74.509804%,74.509804%,74.509804%);fill-opacity:1;" d="M 6.875 6.875 L 6.875 9.625 L 15.125 9.625 L 15.125 6.875 Z M 6.875 11 L 6.875 13.75 L 12.375 13.75 L 12.71875 13.578125 L 15.125 11.171875 L 15.125 11 Z M 6.875 15.210938 L 6.875 17.875 L 11 17.875 L 11 15.210938 Z M 6.875 15.210938 "/>
<path style=" stroke:none;fill-rule:nonzero;fill:rgb(74.509804%,74.509804%,74.509804%);fill-opacity:1;" d="M 7.523438 0 C 6.847656 0 6.425781 0.3125 6.105469 0.644531 C 5.773438 0.976562 5.5 1.414062 5.5 2.058594 L 5.5 2.746094 L 2.75 2.746094 L 2.75 21.996094 L 13.75 21.996094 L 13.75 19.246094 L 5.5 19.246094 L 5.5 5.496094 L 8.25 5.496094 L 8.25 2.746094 L 13.75 2.746094 L 13.75 5.496094 L 16.5 5.496094 L 16.5 9.621094 L 19.25 9.621094 L 19.25 2.746094 L 16.5 2.746094 L 16.5 2.148438 C 16.464844 1.554688 16.265625 1.15625 15.941406 0.773438 C 15.632812 0.40625 15.078125 0.0429688 14.351562 0.0429688 L 14.351562 0 L 7.519531 0 Z M 7.523438 0 "/>
<path style=" stroke:none;fill-rule:nonzero;fill:rgb(74.509804%,74.509804%,74.509804%);fill-opacity:1;" d="M 17.53125 11 C 17.285156 11.066406 17.0625 11.203125 16.886719 11.386719 L 12.761719 15.46875 C 12.4375 15.785156 12.289062 16.3125 12.375 16.757812 L 12.375 17.875 L 16.671875 17.875 L 15.511719 19.59375 C 15.304688 19.800781 15.175781 20.078125 15.125 20.367188 L 15.125 22 L 16.5 22 C 16.863281 22.003906 17.226562 21.820312 17.488281 21.570312 L 21.613281 17.445312 C 21.867188 17.183594 22.007812 16.863281 22 16.5 C 22.003906 16.441406 22.003906 16.386719 22 16.328125 L 22 15.125 L 20.710938 15.125 C 20.683594 15.125 20.652344 15.125 20.625 15.125 L 17.703125 15.125 L 18.863281 13.320312 C 19.070312 13.117188 19.199219 12.863281 19.25 12.589844 L 19.25 11 Z M 17.53125 11 "/>
<path style=" stroke:none;fill-rule:nonzero;fill:rgb(0%,0%,0%);fill-opacity:1;" d="M 2.765625 12.367188 L 2.765625 2.746094 L 5.511719 2.746094 L 5.523438 2.1875 C 5.535156 1.707031 5.546875 1.601562 5.597656 1.457031 C 5.832031 0.8125 6.425781 0.246094 7.0625 0.0625 C 7.222656 0.015625 7.515625 0.0117188 10.789062 0.00390625 C 13.234375 -0.00390625 14.34375 0.00390625 14.34375 0.0234375 C 14.34375 0.0390625 14.386719 0.0507812 14.445312 0.0507812 C 14.59375 0.0507812 14.960938 0.132812 15.140625 0.207031 C 15.605469 0.398438 16.027344 0.800781 16.273438 1.296875 C 16.414062 1.578125 16.472656 1.859375 16.492188 2.328125 L 16.507812 2.746094 L 19.253906 2.746094 L 19.253906 9.613281 L 16.5 9.613281 L 16.5 5.5 L 13.746094 5.5 L 13.746094 2.746094 L 8.242188 2.746094 L 8.242188 5.5 L 5.488281 5.5 L 5.488281 19.261719 L 13.746094 19.261719 L 13.746094 21.988281 L 2.765625 21.988281 Z M 2.765625 12.367188 "/>
<path style=" stroke:none;fill-rule:nonzero;fill:rgb(100%,100%,0%);fill-opacity:1;" d="M 15.144531 21.101562 L 15.152344 20.214844 L 15.253906 20 C 15.308594 19.882812 15.394531 19.742188 15.441406 19.6875 C 15.523438 19.59375 16.667969 17.910156 16.667969 17.882812 C 16.667969 17.878906 15.707031 17.871094 14.53125 17.871094 L 12.390625 17.871094 L 12.378906 17.113281 C 12.363281 16.277344 12.382812 16.109375 12.515625 15.828125 C 12.605469 15.644531 12.988281 15.253906 15.441406 12.832031 C 16.996094 11.296875 17.101562 11.199219 17.296875 11.105469 L 17.503906 11.003906 L 19.253906 11.003906 L 19.25 11.777344 C 19.25 12.597656 19.238281 12.710938 19.109375 12.964844 C 19.074219 13.035156 19 13.148438 18.941406 13.21875 C 18.796875 13.394531 17.691406 15.113281 17.714844 15.132812 C 17.722656 15.140625 18.683594 15.148438 19.851562 15.148438 L 21.972656 15.148438 L 21.980469 15.792969 C 21.992188 16.644531 21.972656 16.839844 21.859375 17.074219 C 21.777344 17.246094 21.585938 17.445312 19.523438 19.503906 C 17.589844 21.4375 17.257812 21.757812 17.113281 21.828125 C 16.8125 21.972656 16.71875 21.988281 15.894531 21.988281 L 15.132812 21.988281 Z M 15.144531 21.101562 "/>
<path style=" stroke:none;fill-rule:nonzero;fill:rgb(100%,0%,0%);fill-opacity:1;" d="M 6.878906 16.554688 L 6.878906 15.234375 L 10.996094 15.234375 L 10.996094 17.871094 L 6.878906 17.871094 Z M 6.878906 16.554688 "/>
<path style=" stroke:none;fill-rule:nonzero;fill:rgb(100%,0%,0%);fill-opacity:1;" d="M 6.878906 12.367188 L 6.878906 11.003906 L 15.109375 11.003906 L 15.109375 11.082031 C 15.109375 11.148438 14.90625 11.363281 13.894531 12.371094 C 12.953125 13.3125 12.648438 13.597656 12.535156 13.65625 L 12.386719 13.730469 L 6.878906 13.730469 Z M 6.878906 12.367188 "/>
<path style=" stroke:none;fill-rule:nonzero;fill:rgb(100%,0%,0%);fill-opacity:1;" d="M 6.878906 8.253906 L 6.878906 6.890625 L 15.109375 6.890625 L 15.109375 9.613281 L 6.878906 9.613281 Z M 6.878906 8.253906 "/>
<path style=" stroke:none;fill-rule:nonzero;fill:rgb(100%,100%,100%);fill-opacity:1;" d="M 2.777344 12.371094 L 2.777344 2.816406 L 5.574219 2.816406 L 5.574219 2.207031 C 5.574219 1.324219 5.902344 0.769531 6.734375 0.242188 C 6.988281 0.078125 7.277344 0.0625 10.507812 0.0351562 C 12.894531 0.0117188 14.183594 0.0351562 14.566406 0.109375 C 15.671875 0.320312 16.25 0.949219 16.417969 2.113281 L 16.519531 2.816406 L 19.183594 2.816406 L 19.183594 9.527344 L 16.578125 9.527344 L 16.554688 7.5 L 16.527344 5.472656 L 15.152344 5.445312 L 13.777344 5.421875 L 13.777344 2.722656 L 8.183594 2.722656 L 8.183594 5.425781 L 5.480469 5.425781 L 5.480469 19.316406 L 13.683594 19.316406 L 13.683594 21.925781 L 2.777344 21.925781 Z M 2.777344 12.371094 "/>
</g>
</svg>
