<?xml version="1.0" encoding="UTF-8"?>
<svg xmlns="http://www.w3.org/2000/svg" xmlns:xlink="http://www.w3.org/1999/xlink" width="22" height="22" viewBox="0 0 22 22" version="1.1">
<g id="surface1">
<path style=" stroke:none;fill-rule:nonzero;fill:rgb(80%,0%,0%);fill-opacity:1;" d="M 6.875 15.125 L 6.875 17.875 L 9.625 17.875 L 9.625 15.125 Z M 6.875 15.125 "/>
<path style=" stroke:none;fill-rule:nonzero;fill:rgb(74.509804%,74.509804%,74.509804%);fill-opacity:1;" d="M 7.523438 0 C 6.847656 0 6.425781 0.3125 6.105469 0.644531 C 5.773438 0.976562 5.5 1.414062 5.5 2.058594 L 5.5 2.746094 L 2.75 2.746094 L 2.75 21.996094 L 9.625 21.996094 L 9.625 19.246094 L 5.5 19.246094 L 5.5 5.496094 L 8.25 5.496094 L 8.25 2.746094 L 13.75 2.746094 L 13.75 5.496094 L 16.5 5.496094 L 16.5 9.621094 L 19.25 9.621094 L 19.25 2.746094 L 16.5 2.746094 L 16.5 2.148438 C 16.464844 1.554688 16.265625 1.15625 15.941406 0.773438 C 15.632812 0.40625 15.078125 0.0429688 14.351562 0.0429688 L 14.351562 0 L 7.519531 0 Z M 7.523438 0 "/>
<path style=" stroke:none;fill-rule:nonzero;fill:rgb(96.078431%,47.45098%,0%);fill-opacity:1;" d="M 12.210938 11 C 11.53125 11 11.007812 11.527344 11.007812 12.203125 L 11.007812 20.796875 C 11.007812 21.472656 11.53125 22 12.210938 22 L 20.804688 22 C 21.480469 22 22.007812 21.472656 22.007812 20.796875 L 22.007812 12.203125 C 22.007812 11.527344 21.480469 11 20.804688 11 Z M 15.132812 12.375 L 17.882812 12.375 L 17.882812 17.875 L 15.132812 17.875 Z M 15.132812 19.25 L 17.882812 19.25 L 17.882812 20.625 L 15.132812 20.625 Z M 15.132812 19.25 "/>
<path style=" stroke:none;fill-rule:nonzero;fill:rgb(0%,0%,0%);fill-opacity:1;" d="M 2.785156 12.386719 L 2.785156 2.765625 L 5.519531 2.765625 L 5.519531 2.277344 C 5.519531 1.714844 5.609375 1.359375 5.828125 1.011719 C 6.03125 0.695312 6.429688 0.34375 6.765625 0.183594 L 7.039062 0.0546875 L 10.59375 0.0390625 C 12.882812 0.03125 14.289062 0.0429688 14.542969 0.078125 C 15.320312 0.179688 15.925781 0.609375 16.265625 1.304688 C 16.414062 1.601562 16.433594 1.695312 16.457031 2.1875 L 16.484375 2.738281 L 17.863281 2.753906 L 19.242188 2.765625 L 19.242188 9.625 L 16.507812 9.625 L 16.507812 5.5 L 13.773438 5.5 L 13.773438 2.714844 L 8.253906 2.714844 L 8.253906 5.5 L 5.472656 5.5 L 5.472656 19.269531 L 9.597656 19.269531 L 9.597656 22.003906 L 2.785156 22.003906 Z M 2.785156 12.386719 "/>
<path style=" stroke:none;fill-rule:nonzero;fill:rgb(100%,100%,100%);fill-opacity:1;" d="M 2.871094 12.371094 L 2.871094 2.816406 L 5.574219 2.816406 L 5.574219 2.253906 C 5.574219 1.382812 5.820312 0.90625 6.542969 0.378906 L 6.90625 0.113281 L 10.738281 0.113281 C 12.964844 0.113281 14.707031 0.152344 14.902344 0.203125 C 15.675781 0.417969 16.304688 1.160156 16.363281 1.925781 C 16.4375 2.898438 16.300781 2.816406 17.835938 2.816406 L 19.183594 2.816406 L 19.183594 9.621094 L 16.574219 9.621094 L 16.574219 5.425781 L 13.777344 5.425781 L 13.777344 2.625 L 11.003906 2.652344 L 8.230469 2.675781 L 8.207031 4.046875 L 8.179688 5.421875 L 6.808594 5.445312 L 5.433594 5.472656 L 5.386719 19.316406 L 9.582031 19.316406 L 9.582031 21.925781 L 2.871094 21.925781 Z M 2.871094 12.371094 "/>
</g>
</svg>
