<?xml version="1.0" encoding="UTF-8"?>
<svg xmlns="http://www.w3.org/2000/svg" xmlns:xlink="http://www.w3.org/1999/xlink" width="22" height="22" viewBox="0 0 22 22" version="1.1">
<g id="surface1">
<path style=" stroke:none;fill-rule:nonzero;fill:rgb(74.509804%,74.509804%,74.509804%);fill-opacity:1;" d="M 7.523438 0 C 6.847656 0 6.425781 0.3125 6.105469 0.644531 C 5.773438 0.976562 5.5 1.414062 5.5 2.058594 L 5.5 2.746094 L 2.75 2.746094 L 2.75 21.996094 L 13.75 21.996094 L 13.75 19.246094 L 5.5 19.246094 L 5.5 5.496094 L 8.25 5.496094 L 8.25 2.746094 L 13.75 2.746094 L 13.75 5.496094 L 16.5 5.496094 L 16.5 9.621094 L 19.25 9.621094 L 19.25 2.746094 L 16.5 2.746094 L 16.5 2.148438 C 16.464844 1.554688 16.265625 1.15625 15.941406 0.773438 C 15.632812 0.40625 15.078125 0.0429688 14.351562 0.0429688 L 14.351562 0 L 7.519531 0 Z M 7.523438 0 "/>
<path style=" stroke:none;fill-rule:nonzero;fill:rgb(74.509804%,74.509804%,74.509804%);fill-opacity:1;" d="M 17.710938 11 C 17.402344 11.035156 17.113281 11.167969 16.894531 11.386719 L 12.769531 15.511719 C 12.363281 15.902344 12.238281 16.503906 12.453125 17.027344 C 12.667969 17.546875 13.179688 17.886719 13.746094 17.878906 L 17.269531 17.878906 L 15.507812 19.636719 C 15.148438 19.992188 15.007812 20.507812 15.136719 20.992188 C 15.265625 21.476562 15.644531 21.855469 16.128906 21.984375 C 16.613281 22.113281 17.132812 21.972656 17.484375 21.613281 L 21.609375 17.488281 C 22.015625 17.097656 22.140625 16.492188 21.921875 15.96875 C 21.703125 15.445312 21.1875 15.109375 20.617188 15.125 L 17.09375 15.125 L 18.855469 13.363281 C 19.300781 12.949219 19.421875 12.296875 19.15625 11.753906 C 18.890625 11.207031 18.300781 10.902344 17.699219 10.996094 Z M 17.710938 11 "/>
<path style=" stroke:none;fill-rule:nonzero;fill:rgb(74.509804%,74.509804%,74.509804%);fill-opacity:1;" d="M 20.625 15.125 L 22 15.125 L 22 16.5 L 20.625 16.5 Z M 20.625 15.125 "/>
<path style=" stroke:none;fill-rule:nonzero;fill:rgb(74.509804%,74.509804%,74.509804%);fill-opacity:1;" d="M 12.375 16.5 L 13.75 16.5 L 13.75 17.875 L 12.375 17.875 Z M 12.375 16.5 "/>
<path style=" stroke:none;fill-rule:nonzero;fill:rgb(74.509804%,74.509804%,74.509804%);fill-opacity:1;" d="M 17.875 11 L 19.25 11 L 19.25 12.375 L 17.875 12.375 Z M 17.875 11 "/>
<path style=" stroke:none;fill-rule:nonzero;fill:rgb(74.509804%,74.509804%,74.509804%);fill-opacity:1;" d="M 15.125 20.625 L 16.5 20.625 L 16.5 22 L 15.125 22 Z M 15.125 20.625 "/>
<path style=" stroke:none;fill-rule:nonzero;fill:rgb(74.509804%,74.509804%,74.509804%);fill-opacity:1;" d="M 16.71875 11.605469 L 13.96875 15.730469 L 16.289062 17.277344 L 19.039062 13.152344 Z M 16.71875 11.605469 "/>
<path style=" stroke:none;fill-rule:nonzero;fill:rgb(74.509804%,74.509804%,74.509804%);fill-opacity:1;" d="M 18.09375 15.730469 L 15.34375 19.855469 L 17.664062 21.402344 L 20.414062 17.277344 Z M 18.09375 15.730469 "/>
<path style=" stroke:none;fill-rule:nonzero;fill:rgb(0%,0%,0%);fill-opacity:1;" d="M 2.785156 12.371094 L 2.785156 2.777344 L 5.507812 2.777344 L 5.53125 2.164062 C 5.546875 1.59375 5.5625 1.523438 5.710938 1.222656 C 5.898438 0.839844 6.371094 0.371094 6.742188 0.195312 C 6.878906 0.132812 7.132812 0.0585938 7.3125 0.0390625 C 7.488281 0.015625 9.109375 -0.00390625 10.910156 -0.0078125 C 14.484375 -0.0078125 14.671875 0.00390625 15.265625 0.28125 C 15.648438 0.460938 16.078125 0.902344 16.273438 1.320312 C 16.410156 1.617188 16.433594 1.726562 16.457031 2.203125 L 16.484375 2.753906 L 19.242188 2.777344 L 19.242188 9.589844 L 16.507812 9.589844 L 16.507812 5.460938 L 13.773438 5.460938 L 13.773438 2.726562 L 8.253906 2.726562 L 8.253906 5.460938 L 5.496094 5.488281 L 5.496094 19.257812 L 13.722656 19.285156 L 13.722656 21.96875 L 2.785156 21.96875 Z M 2.785156 12.371094 "/>
<path style=" stroke:none;fill-rule:nonzero;fill:rgb(100%,100%,0%);fill-opacity:1;" d="M 15.707031 21.984375 L 15.179688 21.964844 L 15.144531 21.183594 C 15.117188 20.5625 15.125 20.359375 15.183594 20.203125 C 15.222656 20.09375 15.570312 19.535156 15.957031 18.964844 C 16.339844 18.390625 16.65625 17.902344 16.65625 17.878906 C 16.65625 17.855469 15.972656 17.839844 15.128906 17.839844 C 14.289062 17.84375 13.324219 17.84375 12.988281 17.84375 L 12.375 17.839844 L 12.390625 16.957031 C 12.40625 16.214844 12.421875 16.046875 12.5 15.902344 C 12.550781 15.804688 13.601562 14.71875 14.832031 13.480469 C 16.679688 11.628906 17.121094 11.210938 17.328125 11.121094 C 17.558594 11.019531 17.640625 11.011719 18.394531 11.023438 C 18.847656 11.027344 19.21875 11.039062 19.226562 11.046875 C 19.230469 11.050781 19.242188 11.414062 19.253906 11.851562 C 19.265625 12.460938 19.25 12.6875 19.195312 12.820312 C 19.15625 12.914062 18.820312 13.453125 18.445312 14.011719 C 18.074219 14.574219 17.753906 15.058594 17.734375 15.09375 C 17.703125 15.144531 18.128906 15.15625 19.816406 15.15625 C 20.984375 15.152344 21.949219 15.160156 21.957031 15.167969 C 21.964844 15.175781 21.976562 15.550781 21.984375 16.003906 C 21.996094 16.765625 21.992188 16.839844 21.886719 17.070312 C 21.796875 17.269531 21.34375 17.75 19.550781 19.542969 C 17.121094 21.972656 17.125 21.96875 16.535156 21.992188 C 16.371094 21.996094 15.996094 21.992188 15.707031 21.984375 Z M 15.707031 21.984375 "/>
<path style=" stroke:none;fill-rule:nonzero;fill:rgb(100%,100%,100%);fill-opacity:1;" d="M 2.871094 12.371094 L 2.871094 2.816406 L 5.554688 2.816406 L 5.589844 2.132812 C 5.628906 1.359375 5.871094 0.882812 6.449219 0.441406 C 6.957031 0.0546875 7.644531 -0.00390625 11.339844 0.0351562 C 14.257812 0.0664062 14.707031 0.09375 15.035156 0.238281 C 15.816406 0.578125 16.386719 1.371094 16.386719 2.105469 C 16.386719 2.839844 16.339844 2.816406 17.84375 2.816406 L 19.183594 2.816406 L 19.183594 9.527344 L 16.574219 9.527344 L 16.574219 5.425781 L 13.777344 5.425781 L 13.777344 2.722656 L 8.183594 2.722656 L 8.183594 5.425781 L 5.480469 5.425781 L 5.480469 19.316406 L 13.683594 19.316406 L 13.683594 21.925781 L 2.871094 21.925781 Z M 2.871094 12.371094 "/>
</g>
</svg>
