<?xml version="1.0" encoding="UTF-8"?>
<svg xmlns="http://www.w3.org/2000/svg" xmlns:xlink="http://www.w3.org/1999/xlink" width="22" height="22" viewBox="0 0 22 22" version="1.1">
<g id="surface1">
<path style=" stroke:none;fill-rule:nonzero;fill:rgb(100%,100%,100%);fill-opacity:1;" d="M 7.523438 0 C 6.84375 0 6.425781 0.3125 6.105469 0.644531 C 5.773438 0.976562 5.5 1.414062 5.5 2.058594 L 5.5 2.746094 L 2.75 2.746094 L 2.75 21.996094 L 19.25 21.996094 L 19.25 2.746094 L 16.5 2.746094 L 16.5 2.148438 C 16.464844 1.554688 16.265625 1.15625 15.941406 0.773438 C 15.632812 0.40625 15.082031 0.0429688 14.351562 0.0429688 L 14.351562 0 L 7.519531 0 Z M 8.253906 2.75 L 13.753906 2.75 L 13.753906 5.5 L 16.503906 5.5 L 16.503906 19.25 L 5.503906 19.25 L 5.503906 5.5 L 8.253906 5.5 Z M 8.253906 2.75 "/>
</g>
</svg>
