<?xml version="1.0" encoding="UTF-8"?>
<svg xmlns="http://www.w3.org/2000/svg" xmlns:xlink="http://www.w3.org/1999/xlink" width="22" height="22" viewBox="0 0 22 22" version="1.1">
<g id="surface1">
<path style=" stroke:none;fill-rule:nonzero;fill:rgb(74.509804%,74.509804%,74.509804%);fill-opacity:1;" d="M 6.875 11 L 6.875 13.75 L 15.125 13.75 L 15.125 11 Z M 6.875 11 "/>
<path style=" stroke:none;fill-rule:nonzero;fill:rgb(74.509804%,74.509804%,74.509804%);fill-opacity:1;" d="M 7.519531 0 C 6.84375 0 6.425781 0.3125 6.101562 0.644531 C 5.777344 0.976562 5.5 1.414062 5.5 2.058594 L 5.5 2.746094 L 2.75 2.746094 L 2.75 21.996094 L 19.25 21.996094 L 19.25 2.746094 L 16.5 2.746094 L 16.5 2.191406 C 16.46875 1.597656 16.265625 1.15625 15.941406 0.773438 C 15.632812 0.40625 15.078125 0.0429688 14.351562 0.0429688 L 14.351562 0 Z M 8.25 2.75 L 13.75 2.75 L 13.75 5.5 L 16.5 5.5 L 16.5 19.25 L 5.5 19.25 L 5.5 5.5 L 8.25 5.5 Z M 8.25 2.75 "/>
<path style=" stroke:none;fill-rule:nonzero;fill:rgb(74.509804%,74.509804%,74.509804%);fill-opacity:1;" d="M 6.875 15.125 L 6.875 17.875 L 15.125 17.875 L 15.125 15.125 Z M 6.875 15.125 "/>
<path style=" stroke:none;fill-rule:nonzero;fill:rgb(0%,0%,0%);fill-opacity:1;" d="M 2.765625 12.367188 L 2.765625 2.746094 L 5.515625 2.746094 L 5.515625 2.269531 C 5.515625 1.886719 5.527344 1.75 5.574219 1.574219 C 5.746094 0.894531 6.371094 0.261719 7.0625 0.0625 C 7.222656 0.015625 7.515625 0.0117188 10.789062 0.00390625 C 13.234375 -0.00390625 14.34375 0.00390625 14.34375 0.0234375 C 14.34375 0.0390625 14.386719 0.0507812 14.445312 0.0507812 C 14.59375 0.0507812 14.960938 0.132812 15.140625 0.207031 C 15.613281 0.398438 16.042969 0.816406 16.269531 1.304688 C 16.410156 1.601562 16.472656 1.894531 16.492188 2.34375 L 16.507812 2.746094 L 19.253906 2.746094 L 19.253906 21.988281 L 2.765625 21.988281 Z M 16.5 12.382812 L 16.5 5.5 L 13.746094 5.5 L 13.746094 2.746094 L 8.242188 2.746094 L 8.242188 5.5 L 5.488281 5.5 L 5.488281 19.261719 L 16.5 19.261719 Z M 16.5 12.382812 "/>
<path style=" stroke:none;fill-rule:nonzero;fill:rgb(100%,0%,0%);fill-opacity:1;" d="M 6.878906 12.367188 L 6.878906 11.003906 L 15.109375 11.003906 L 15.109375 13.730469 L 6.878906 13.730469 Z M 6.878906 12.367188 "/>
<path style=" stroke:none;fill-rule:nonzero;fill:rgb(100%,0%,0%);fill-opacity:1;" d="M 6.878906 16.511719 L 6.878906 15.148438 L 15.109375 15.148438 L 15.109375 17.871094 L 6.878906 17.871094 Z M 6.878906 16.511719 "/>
<path style=" stroke:none;fill-rule:nonzero;fill:rgb(100%,100%,100%);fill-opacity:1;" d="M 2.777344 12.371094 L 2.777344 2.816406 L 5.574219 2.816406 L 5.574219 2.253906 C 5.574219 1.359375 5.917969 0.75 6.691406 0.269531 C 7.011719 0.0703125 7.113281 0.0625 10.511719 0.0351562 C 12.898438 0.0117188 14.183594 0.0351562 14.566406 0.109375 C 15.671875 0.320312 16.25 0.949219 16.417969 2.113281 L 16.519531 2.816406 L 19.183594 2.816406 L 19.183594 21.925781 L 2.777344 21.925781 Z M 16.550781 12.394531 L 16.527344 5.472656 L 15.152344 5.445312 L 13.777344 5.421875 L 13.777344 2.722656 L 8.183594 2.722656 L 8.183594 5.425781 L 5.480469 5.425781 L 5.480469 19.316406 L 16.574219 19.316406 Z M 16.550781 12.394531 "/>
</g>
</svg>
