<?xml version="1.0" encoding="UTF-8"?>
<svg xmlns="http://www.w3.org/2000/svg" xmlns:xlink="http://www.w3.org/1999/xlink" width="22" height="22" viewBox="0 0 22 22" version="1.1">
<g id="surface1">
<path style=" stroke:none;fill-rule:nonzero;fill:rgb(100%,100%,100%);fill-opacity:1;" d="M 11 0.917969 C 10.960938 0.917969 10.921875 0.921875 10.886719 0.929688 C 10.535156 1.023438 10.273438 1.316406 10.226562 1.675781 C 10.226562 1.691406 10.226562 1.703125 10.226562 1.71875 C 10.210938 1.734375 10.199219 1.746094 10.183594 1.761719 C 10.179688 1.785156 10.179688 1.808594 10.183594 1.832031 C 10.160156 1.898438 10.144531 1.964844 10.140625 2.035156 L 10.183594 8.851562 L 7.890625 6.53125 C 7.695312 6.234375 7.339844 6.085938 6.988281 6.148438 C 6.636719 6.214844 6.359375 6.484375 6.28125 6.832031 C 6.207031 7.179688 6.339844 7.539062 6.632812 7.75 L 9.824219 10.984375 L 6.632812 14.179688 C 6.390625 14.402344 6.289062 14.738281 6.371094 15.054688 C 6.449219 15.371094 6.699219 15.621094 7.015625 15.703125 C 7.332031 15.78125 7.671875 15.679688 7.890625 15.441406 L 10.226562 13.078125 L 10.253906 19.894531 C 10.261719 19.949219 10.277344 20 10.296875 20.050781 C 10.296875 20.066406 10.296875 20.082031 10.296875 20.09375 C 10.253906 20.46875 10.453125 20.828125 10.789062 20.996094 C 11.125 21.164062 11.53125 21.101562 11.800781 20.839844 L 16.214844 16.113281 C 16.53125 15.757812 16.511719 15.214844 16.171875 14.882812 L 12.316406 10.984375 L 16.171875 7.046875 C 16.511719 6.714844 16.53125 6.171875 16.214844 5.816406 L 11.714844 1.203125 C 11.535156 1.003906 11.269531 0.898438 11 0.917969 Z M 11.402344 3.421875 L 14.324219 6.417969 L 11.445312 9.324219 Z M 17.515625 7.664062 C 17.148438 7.664062 16.777344 7.773438 16.484375 8.035156 C 16.195312 8.296875 16 8.703125 16 9.179688 L 16 9.898438 L 15.984375 9.898438 C 15.5625 9.898438 15.210938 10.25 15.210938 10.671875 L 15.210938 12.933594 C 15.210938 13.355469 15.5625 13.707031 15.984375 13.707031 L 19.019531 13.707031 C 19.445312 13.707031 19.78125 13.355469 19.78125 12.933594 L 19.78125 10.671875 C 19.78125 10.253906 19.460938 9.910156 19.050781 9.898438 L 19.050781 9.179688 C 19.050781 8.703125 18.839844 8.296875 18.546875 8.035156 C 18.257812 7.773438 17.886719 7.664062 17.515625 7.664062 Z M 17.515625 8.421875 C 17.71875 8.421875 17.910156 8.488281 18.046875 8.609375 C 18.183594 8.726562 18.289062 8.894531 18.289062 9.179688 L 18.289062 9.898438 L 16.757812 9.898438 L 16.757812 9.179688 C 16.757812 8.894531 16.851562 8.726562 16.988281 8.609375 C 17.125 8.488281 17.316406 8.421875 17.515625 8.421875 Z M 11.488281 12.675781 L 14.324219 15.527344 L 11.515625 18.519531 Z M 11.488281 12.675781 "/>
</g>
</svg>
