<?xml version="1.0" encoding="UTF-8"?>
<svg xmlns="http://www.w3.org/2000/svg" xmlns:xlink="http://www.w3.org/1999/xlink" width="22" height="22" viewBox="0 0 22 22" version="1.1">
<g id="surface1">
<path style=" stroke:none;fill-rule:nonzero;fill:rgb(74.509804%,74.509804%,74.509804%);fill-opacity:1;" d="M 9.453125 0.0117188 C 8.761719 0.101562 8.246094 0.691406 8.25 1.386719 L 8.25 6.285156 L 6.488281 4.527344 C 6.136719 4.167969 5.621094 4.027344 5.132812 4.15625 C 4.648438 4.285156 4.269531 4.664062 4.140625 5.148438 C 4.011719 5.632812 4.152344 6.148438 4.511719 6.503906 L 8.25 10.242188 L 8.25 11.789062 L 4.511719 15.527344 C 4.152344 15.878906 4.011719 16.398438 4.140625 16.882812 C 4.269531 17.367188 4.648438 17.746094 5.132812 17.875 C 5.617188 18.003906 6.136719 17.863281 6.488281 17.503906 L 8.25 15.742188 L 8.25 20.640625 C 8.238281 21.203125 8.570312 21.722656 9.09375 21.941406 C 9.617188 22.160156 10.21875 22.035156 10.613281 21.628906 L 16.113281 16.128906 C 16.382812 15.867188 16.53125 15.511719 16.53125 15.140625 C 16.53125 14.765625 16.382812 14.410156 16.113281 14.152344 L 12.976562 11.015625 L 16.113281 7.878906 C 16.382812 7.621094 16.53125 7.261719 16.53125 6.890625 C 16.53125 6.519531 16.382812 6.160156 16.113281 5.902344 L 10.613281 0.402344 C 10.308594 0.0976562 9.878906 -0.0429688 9.453125 0.015625 Z M 11 4.742188 L 13.148438 6.886719 L 11 9.035156 L 11 4.738281 Z M 11 12.992188 L 13.148438 15.136719 L 11 17.285156 L 11 12.988281 Z M 11 12.992188 "/>
<path style=" stroke:none;fill-rule:nonzero;fill:rgb(74.509804%,74.509804%,74.509804%);fill-opacity:1;" d="M 4.125 4.136719 L 5.5 4.136719 L 5.5 5.511719 L 4.125 5.511719 Z M 4.125 4.136719 "/>
<path style=" stroke:none;fill-rule:nonzero;fill:rgb(74.509804%,74.509804%,74.509804%);fill-opacity:1;" d="M 4.125 16.511719 L 5.5 16.511719 L 5.5 17.886719 L 4.125 17.886719 Z M 4.125 16.511719 "/>
<path style=" stroke:none;fill-rule:nonzero;fill:rgb(74.509804%,74.509804%,74.509804%);fill-opacity:1;" d="M 8.25 20.636719 L 9.625 20.636719 L 9.625 22.011719 L 8.25 22.011719 Z M 8.25 20.636719 "/>
<path style=" stroke:none;fill-rule:nonzero;fill:rgb(74.509804%,74.509804%,74.509804%);fill-opacity:1;" d="M 8.25 0.0117188 L 9.625 0.0117188 L 9.625 1.386719 L 8.25 1.386719 Z M 8.25 0.0117188 "/>
</g>
</svg>
