<?xml version="1.0" encoding="UTF-8"?>
<svg xmlns="http://www.w3.org/2000/svg" xmlns:xlink="http://www.w3.org/1999/xlink" width="22" height="22" viewBox="0 0 22 22" version="1.1">
<g id="surface1">
<path style=" stroke:none;fill-rule:nonzero;fill:rgb(100%,100%,100%);fill-opacity:1;" d="M 10.328125 0.917969 C 9.242188 1.070312 8.671875 2.285156 8.808594 3.292969 C 8.816406 4.476562 8.828125 5.664062 8.835938 6.847656 C 8.3125 6.308594 7.769531 5.578125 6.921875 5.667969 C 5.847656 5.6875 4.976562 6.828125 5.34375 7.859375 C 5.6875 8.6875 6.449219 9.207031 7.027344 9.855469 C 7.402344 10.230469 7.773438 10.609375 8.148438 10.984375 C 7.3125 11.855469 6.398438 12.667969 5.613281 13.574219 C 4.914062 14.5625 5.679688 16.152344 6.902344 16.183594 C 7.726562 16.335938 8.394531 15.628906 8.894531 15.054688 C 8.917969 16.582031 8.859375 18.121094 8.953125 19.648438 C 9.113281 20.667969 10.304688 21.386719 11.25 20.957031 C 12.078125 20.617188 12.523438 19.777344 13.164062 19.203125 C 14.144531 18.132812 15.171875 17.082031 16.109375 15.988281 C 16.636719 15.140625 16.191406 14.0625 15.453125 13.503906 C 14.617188 12.660156 13.785156 11.816406 12.949219 10.972656 C 13.972656 9.910156 15.042969 8.878906 16.027344 7.792969 C 16.703125 6.914062 16.179688 5.734375 15.378906 5.148438 C 14.089844 3.84375 12.839844 2.5 11.527344 1.222656 C 11.183594 0.96875 10.746094 0.886719 10.328125 0.917969 Z M 10.382812 1.503906 C 11.375 1.410156 11.824219 2.507812 12.5 3.03125 C 13.507812 4.09375 14.570312 5.109375 15.550781 6.191406 C 16.085938 6.945312 15.425781 7.703125 14.859375 8.179688 C 13.949219 9.113281 13.03125 10.039062 12.117188 10.972656 C 13.253906 12.085938 14.367188 13.246094 15.476562 14.367188 C 16.09375 15.074219 15.550781 15.9375 14.945312 16.421875 C 13.785156 17.664062 12.640625 18.898438 11.5 20.125 C 11.015625 20.644531 10.113281 20.609375 9.730469 19.976562 C 9.3125 19.257812 9.574219 18.367188 9.488281 17.574219 C 9.488281 16.519531 9.488281 15.460938 9.480469 14.410156 C 8.855469 13.59375 8.234375 15.191406 7.625 15.445312 C 6.945312 15.9375 5.941406 15.34375 5.945312 14.523438 C 5.933594 13.683594 6.824219 13.273438 7.28125 12.679688 C 7.84375 12.113281 8.40625 11.550781 8.964844 10.984375 C 8.007812 9.972656 6.992188 9.007812 6.050781 7.984375 C 5.476562 7.242188 6.265625 6.117188 7.160156 6.269531 C 7.925781 6.480469 8.324219 7.285156 8.921875 7.761719 C 9.070312 7.835938 9.433594 8.417969 9.425781 8.113281 C 9.429688 6.3125 9.386719 4.511719 9.402344 2.710938 C 9.460938 2.171875 9.796875 1.578125 10.382812 1.503906 Z M 11.171875 4.855469 C 11.167969 6.144531 11.1875 7.433594 11.1875 8.722656 C 11.820312 8.09375 12.445312 7.449219 13.078125 6.816406 C 12.453125 6.152344 11.789062 5.527344 11.171875 4.855469 Z M 11.757812 6.300781 C 11.859375 6.503906 12.375 6.699219 12.164062 6.902344 C 11.882812 7.238281 11.652344 7.460938 11.765625 6.804688 C 11.761719 6.636719 11.757812 6.46875 11.757812 6.300781 Z M 11.242188 13.277344 C 11.242188 14.539062 11.242188 15.796875 11.242188 17.058594 C 11.851562 16.410156 12.46875 15.773438 13.078125 15.125 C 12.464844 14.511719 11.859375 13.886719 11.242188 13.277344 Z M 11.84375 14.722656 C 12 14.925781 12.433594 15.117188 12.058594 15.328125 C 11.785156 15.769531 11.839844 15.347656 11.84375 15.0625 C 11.84375 14.949219 11.84375 14.835938 11.84375 14.722656 Z M 11.84375 14.722656 "/>
</g>
</svg>
