<?xml version="1.0" encoding="UTF-8"?>
<svg xmlns="http://www.w3.org/2000/svg" xmlns:xlink="http://www.w3.org/1999/xlink" width="22" height="22" viewBox="0 0 22 22" version="1.1">
<g id="surface1">
<path style=" stroke:none;fill-rule:nonzero;fill:rgb(100%,100%,100%);fill-opacity:1;" d="M 9.625 0 C 7.363281 0 5.5 1.863281 5.5 4.125 L 5.5 8.25 L 8.25 8.25 L 8.25 4.125 C 8.25 3.339844 8.839844 2.75 9.625 2.75 L 12.375 2.75 C 13.160156 2.75 13.75 3.339844 13.75 4.125 L 13.75 12.375 L 4.125 12.375 C 3.363281 12.375 2.75 12.988281 2.75 13.75 L 2.75 22 L 19.25 22 L 19.25 13.75 C 19.25 12.988281 18.636719 12.375 17.875 12.375 L 16.5 12.375 L 16.5 4.125 C 16.5 1.863281 14.636719 0 12.375 0 Z M 9.625 0 "/>
</g>
</svg>
