<?xml version="1.0" encoding="UTF-8"?>
<svg xmlns="http://www.w3.org/2000/svg" xmlns:xlink="http://www.w3.org/1999/xlink" width="22" height="22" viewBox="0 0 22 22" version="1.1">
<g id="surface1">
<path style=" stroke:none;fill-rule:nonzero;fill:rgb(100%,100%,100%);fill-opacity:1;" d="M 9.625 1.375 C 7.363281 1.375 5.5 3.238281 5.5 5.5 L 5.5 9.625 L 4.125 9.625 C 3.363281 9.625 2.75 10.238281 2.75 11 L 2.75 19.25 L 19.25 19.25 L 19.25 11 C 19.25 10.238281 18.636719 9.625 17.875 9.625 L 16.5 9.625 L 16.5 5.5 C 16.5 3.238281 14.636719 1.375 12.375 1.375 Z M 9.625 4.125 L 12.375 4.125 C 13.160156 4.125 13.75 4.714844 13.75 5.5 L 13.75 9.625 L 8.25 9.625 L 8.25 5.5 C 8.25 4.714844 8.839844 4.125 9.625 4.125 Z M 9.625 4.125 "/>
</g>
</svg>
