<?xml version="1.0" encoding="UTF-8"?>
<svg xmlns="http://www.w3.org/2000/svg" xmlns:xlink="http://www.w3.org/1999/xlink" width="22" height="22" viewBox="0 0 22 22" version="1.1">
<g id="surface1">
<path style=" stroke:none;fill-rule:nonzero;fill:rgb(74.509804%,74.509804%,74.509804%);fill-opacity:1;" d="M 6.875 0 C 4.613281 0 2.75 1.863281 2.75 4.125 L 2.75 8.25 L 5.5 8.25 L 5.5 4.125 C 5.5 3.339844 6.089844 2.75 6.875 2.75 L 9.625 2.75 C 10.410156 2.75 11 3.339844 11 4.125 L 11 4.46875 C 11.367188 4.265625 11.765625 4.125 12.203125 4.125 L 13.75 4.125 C 13.75 1.863281 11.886719 0 9.625 0 Z M 2.664062 12.375 C 1.902344 12.375 1.199219 12.992188 1.289062 13.75 L 1.289062 20.625 L 15.125 20.625 L 15.125 17.875 L 12.203125 17.875 C 10.8125 17.875 9.625 16.6875 9.625 15.296875 L 9.625 12.375 Z M 2.664062 12.375 "/>
<path style=" stroke:none;fill-rule:nonzero;fill:rgb(96.078431%,47.45098%,0%);fill-opacity:1;" d="M 12.210938 5.5 C 11.53125 5.5 11.007812 6.027344 11.007812 6.703125 L 11.007812 15.296875 C 11.007812 15.972656 11.53125 16.5 12.210938 16.5 L 20.804688 16.5 C 21.480469 16.5 22.007812 15.972656 22.007812 15.296875 L 22.007812 6.703125 C 22.007812 6.027344 21.484375 5.507812 20.796875 5.507812 L 12.203125 5.507812 Z M 15.132812 6.875 L 17.882812 6.875 L 17.882812 12.375 L 15.132812 12.375 Z M 15.132812 13.75 L 17.882812 13.75 L 17.882812 15.125 L 15.132812 15.125 Z M 15.132812 13.75 "/>
<path style=" stroke:none;fill-rule:nonzero;fill:rgb(100%,100%,100%);fill-opacity:1;" d="M 2.777344 5.957031 C 2.777344 4.222656 2.8125 3.566406 2.921875 3.144531 C 3.320312 1.613281 4.601562 0.402344 6.128906 0.113281 C 6.921875 -0.0390625 9.914062 -0.0078125 10.546875 0.15625 C 11.597656 0.433594 12.4375 1.003906 12.992188 1.824219 C 13.347656 2.351562 13.683594 3.308594 13.683594 3.804688 L 13.683594 4.121094 L 12.703125 4.121094 C 12.0625 4.121094 11.609375 4.167969 11.402344 4.253906 L 11.082031 4.386719 L 11.019531 3.964844 C 10.941406 3.4375 10.535156 2.949219 10.0625 2.808594 C 9.855469 2.746094 9.070312 2.71875 8.027344 2.738281 C 6.488281 2.765625 6.308594 2.785156 6.070312 2.960938 C 5.523438 3.363281 5.480469 3.574219 5.480469 6.007812 L 5.480469 8.222656 L 2.777344 8.222656 Z M 2.777344 5.957031 "/>
<path style=" stroke:none;fill-rule:nonzero;fill:rgb(100%,100%,100%);fill-opacity:1;" d="M 1.308594 16.945312 C 1.332031 13.394531 1.339844 13.261719 1.527344 13.007812 C 1.953125 12.421875 1.992188 12.417969 5.964844 12.417969 L 9.570312 12.417969 L 9.597656 14.164062 C 9.632812 16.144531 9.710938 16.441406 10.386719 17.113281 C 11.058594 17.789062 11.355469 17.867188 13.335938 17.902344 L 15.082031 17.929688 L 15.082031 20.621094 L 1.28125 20.621094 Z M 1.308594 16.945312 "/>
</g>
</svg>
