<?xml version="1.0" encoding="UTF-8"?>
<svg xmlns="http://www.w3.org/2000/svg" xmlns:xlink="http://www.w3.org/1999/xlink" width="22" height="22" viewBox="0 0 22 22" version="1.1">
<g id="surface1">
<path style=" stroke:none;fill-rule:nonzero;fill:rgb(100%,100%,100%);fill-opacity:1;" d="M 9.625 2.75 C 7.363281 2.75 5.5 4.613281 5.5 6.875 L 5.5 9.625 C 5.5 9.625 4.125 9.625 4.125 11 L 4.125 17.875 L 17.875 17.875 L 17.875 11 C 17.875 11 17.875 9.625 16.5 9.625 L 16.5 6.875 C 16.5 4.613281 14.636719 2.75 12.375 2.75 Z M 9.625 5.5 L 12.375 5.5 C 13.160156 5.5 13.75 6.089844 13.75 6.875 L 13.75 9.625 L 8.25 9.625 L 8.25 6.875 C 8.25 6.089844 8.839844 5.5 9.625 5.5 Z M 9.625 5.5 "/>
</g>
</svg>
