<?xml version="1.0" encoding="UTF-8"?>
<svg xmlns="http://www.w3.org/2000/svg" xmlns:xlink="http://www.w3.org/1999/xlink" width="22" height="22" viewBox="0 0 22 22" version="1.1">
<g id="surface1">
<path style=" stroke:none;fill-rule:nonzero;fill:rgb(100%,100%,100%);fill-opacity:1;" d="M 11 12.601562 C 9.289062 12.601562 7.746094 13.308594 6.625 14.429688 C 6.582031 14.46875 6.558594 14.519531 6.558594 14.578125 C 6.558594 14.636719 6.582031 14.699219 6.625 14.742188 L 8.03125 16.132812 C 8.113281 16.210938 8.246094 16.210938 8.328125 16.132812 C 9.011719 15.449219 9.957031 15.027344 11 15.027344 C 12.042969 15.027344 12.988281 15.449219 13.671875 16.132812 C 13.753906 16.210938 13.886719 16.210938 13.96875 16.132812 L 15.375 14.742188 C 15.417969 14.699219 15.441406 14.636719 15.441406 14.578125 C 15.441406 14.519531 15.417969 14.46875 15.375 14.429688 C 14.253906 13.308594 12.710938 12.601562 11 12.601562 Z M 11 16.59375 C 10.390625 16.59375 9.84375 16.851562 9.445312 17.25 C 9.367188 17.332031 9.367188 17.464844 9.445312 17.550781 L 10.851562 18.953125 C 10.933594 19.03125 11.066406 19.03125 11.148438 18.953125 L 12.554688 17.550781 C 12.632812 17.464844 12.632812 17.332031 12.554688 17.25 C 12.15625 16.851562 11.609375 16.59375 11 16.59375 Z M 11 16.59375 "/>
</g>
</svg>
