<?xml version="1.0" encoding="UTF-8"?>
<svg xmlns="http://www.w3.org/2000/svg" xmlns:xlink="http://www.w3.org/1999/xlink" width="22" height="22" viewBox="0 0 22 22" version="1.1">
<g id="surface1">
<path style=" stroke:none;fill-rule:nonzero;fill:rgb(100%,100%,100%);fill-opacity:1;" d="M 0.648438 13.75 L 3.4375 13.75 C 3.796875 13.75 4.085938 14.058594 4.085938 14.4375 L 4.085938 15.8125 C 4.085938 16.191406 3.796875 16.5 3.4375 16.5 L 0.648438 16.5 C 0.289062 16.5 0 16.191406 0 15.8125 L 0 14.4375 C 0 14.058594 0.289062 13.75 0.648438 13.75 Z M 0.648438 13.75 "/>
<path style=" stroke:none;fill-rule:nonzero;fill:rgb(100%,100%,100%);fill-opacity:1;" d="M 18.535156 13.75 L 21.308594 13.75 C 21.6875 13.75 21.996094 14.058594 21.996094 14.4375 L 21.996094 15.8125 C 21.996094 16.191406 21.6875 16.5 21.308594 16.5 L 18.535156 16.5 C 18.15625 16.5 17.847656 16.191406 17.847656 15.8125 L 17.847656 14.4375 C 17.847656 14.058594 18.15625 13.75 18.535156 13.75 Z M 18.535156 13.75 "/>
<path style=" stroke:none;fill-rule:nonzero;fill:rgb(100%,100%,100%);fill-opacity:1;" d="M 15.367188 8.824219 L 17.328125 6.863281 C 17.59375 6.59375 18.03125 6.59375 18.300781 6.863281 L 19.273438 7.835938 C 19.539062 8.101562 19.539062 8.539062 19.273438 8.804688 L 17.3125 10.765625 C 17.042969 11.035156 16.605469 11.035156 16.339844 10.765625 L 15.367188 9.792969 C 15.097656 9.527344 15.097656 9.089844 15.367188 8.824219 Z M 15.367188 8.824219 "/>
<path style=" stroke:none;fill-rule:nonzero;fill:rgb(100%,100%,100%);fill-opacity:1;" d="M 4.691406 10.765625 L 2.730469 8.804688 C 2.460938 8.539062 2.460938 8.101562 2.730469 7.835938 L 3.703125 6.863281 C 3.96875 6.59375 4.40625 6.59375 4.675781 6.863281 L 6.636719 8.824219 C 6.902344 9.089844 6.902344 9.527344 6.636719 9.792969 L 5.664062 10.765625 C 5.394531 11.035156 4.957031 11.035156 4.691406 10.765625 Z M 4.691406 10.765625 "/>
<path style=" stroke:none;fill-rule:nonzero;fill:rgb(100%,100%,100%);fill-opacity:1;" d="M 9.625 7.5625 L 9.625 4.8125 C 9.625 4.433594 9.933594 4.125 10.3125 4.125 L 11.6875 4.125 C 12.066406 4.125 12.375 4.433594 12.375 4.8125 L 12.375 7.5625 C 12.375 7.941406 12.066406 8.25 11.6875 8.25 L 10.3125 8.25 C 9.933594 8.25 9.625 7.941406 9.625 7.5625 Z M 9.625 7.5625 "/>
<path style=" stroke:none;fill-rule:nonzero;fill:rgb(100%,100%,100%);fill-opacity:1;" d="M 8.59375 12.375 C 8.363281 12.386719 8.152344 12.535156 8.078125 12.734375 L 6.929688 15.78125 C 6.789062 16.101562 7.101562 16.507812 7.484375 16.5 C 7.484375 16.5 8.953125 16.5 11.011719 16.5 C 13.070312 16.5 14.542969 16.5 14.542969 16.5 C 14.925781 16.507812 15.238281 16.101562 15.097656 15.78125 L 13.949219 12.734375 C 13.847656 12.46875 13.484375 12.3125 13.195312 12.410156 C 12.902344 12.507812 12.066406 12.769531 11.011719 12.769531 C 9.960938 12.769531 9.125 12.507812 8.832031 12.410156 C 8.757812 12.382812 8.675781 12.371094 8.59375 12.375 Z M 8.59375 12.375 "/>
</g>
</svg>
