<?xml version="1.0" encoding="UTF-8"?>
<svg xmlns="http://www.w3.org/2000/svg" xmlns:xlink="http://www.w3.org/1999/xlink" width="22" height="22" viewBox="0 0 22 22" version="1.1">
<g id="surface1">
<path style=" stroke:none;fill-rule:nonzero;fill:rgb(100%,100%,100%);fill-opacity:1;" d="M 8.1875 0.917969 C 7.816406 0.957031 7.53125 1.269531 7.527344 1.644531 L 7.527344 11.863281 C 7.527344 12.09375 7.632812 12.316406 7.816406 12.457031 L 11.125 14.9375 C 11.40625 15.148438 11.792969 15.136719 12.054688 14.90625 L 14.808594 12.472656 C 14.972656 12.335938 15.0625 12.128906 15.0625 11.917969 L 15.0625 6.191406 C 15.0625 5.777344 14.730469 5.445312 14.320312 5.445312 C 13.910156 5.445312 13.574219 5.777344 13.574219 6.191406 L 13.574219 11.59375 L 11.53125 13.402344 L 9 11.492188 L 9 2.386719 L 15.46875 2.386719 L 15.46875 16.171875 L 11.433594 19.433594 L 6.835938 16.34375 L 6.835938 6.355469 C 6.847656 6.085938 6.710938 5.832031 6.476562 5.695312 C 6.246094 5.558594 5.957031 5.558594 5.722656 5.695312 C 5.492188 5.832031 5.355469 6.085938 5.367188 6.355469 L 5.367188 16.730469 C 5.367188 16.976562 5.488281 17.203125 5.6875 17.335938 L 11.042969 20.953125 C 11.3125 21.136719 11.667969 21.125 11.921875 20.921875 L 16.667969 17.085938 C 16.847656 16.949219 16.953125 16.734375 16.953125 16.511719 L 16.953125 1.644531 C 16.953125 1.238281 16.617188 0.914062 16.210938 0.917969 L 8.273438 0.917969 C 8.246094 0.917969 8.214844 0.917969 8.1875 0.917969 Z M 8.1875 0.917969 "/>
</g>
</svg>
