<?xml version="1.0" encoding="UTF-8"?>
<svg xmlns="http://www.w3.org/2000/svg" xmlns:xlink="http://www.w3.org/1999/xlink" width="22" height="22" viewBox="0 0 22 22" version="1.1">
<g id="surface1">
<path style=" stroke:none;fill-rule:nonzero;fill:rgb(100%,100%,100%);fill-opacity:1;" d="M 8.222656 6.902344 C 7.464844 6.890625 6.859375 6.265625 6.871094 5.507812 C 6.871094 2.484375 9.339844 0.00390625 12.351562 0.00390625 C 15.363281 0.00390625 17.835938 2.484375 17.835938 5.507812 C 17.851562 6.007812 17.589844 6.476562 17.160156 6.734375 C 16.730469 6.988281 16.195312 6.988281 15.765625 6.734375 C 15.335938 6.476562 15.078125 6.007812 15.089844 5.507812 C 15.089844 3.972656 13.882812 2.757812 12.351562 2.757812 C 10.824219 2.757812 9.613281 3.972656 9.613281 5.507812 C 9.621094 5.878906 9.476562 6.234375 9.210938 6.5 C 8.949219 6.761719 8.59375 6.90625 8.222656 6.902344 Z M 8.222656 6.902344 "/>
<path style=" stroke:none;fill-rule:nonzero;fill:rgb(100%,100%,100%);fill-opacity:1;" d="M 10.3125 16.5 C 8.429688 16.5 6.875 14.945312 6.875 13.0625 C 6.875 12.300781 7.488281 11.6875 8.25 11.6875 C 9.007812 11.6875 9.625 12.300781 9.625 13.0625 C 9.625 13.457031 9.917969 13.75 10.3125 13.75 C 10.707031 13.75 11 13.457031 11 13.0625 C 11 12.300781 11.617188 11.6875 12.375 11.6875 C 13.136719 11.6875 13.75 12.300781 13.75 13.0625 C 13.75 14.945312 12.195312 16.5 10.3125 16.5 Z M 10.3125 16.5 "/>
<path style=" stroke:none;fill-rule:nonzero;fill:rgb(100%,100%,100%);fill-opacity:1;" d="M 12.070312 6.875 C 11.433594 7.019531 10.984375 7.59375 11 8.25 L 11 13.019531 C 10.992188 13.515625 11.253906 13.976562 11.683594 14.226562 C 12.109375 14.476562 12.640625 14.476562 13.066406 14.226562 C 13.496094 13.976562 13.757812 13.515625 13.75 13.019531 L 13.75 8.25 C 13.761719 7.824219 13.574219 7.421875 13.246094 7.152344 C 12.921875 6.882812 12.488281 6.78125 12.074219 6.875 Z M 12.070312 6.875 "/>
<path style=" stroke:none;fill-rule:nonzero;fill:rgb(100%,100%,100%);fill-opacity:1;" d="M 16.195312 4.125 C 15.558594 4.269531 15.109375 4.84375 15.125 5.5 L 15.125 14.867188 C 15.117188 15.363281 15.378906 15.824219 15.808594 16.074219 C 16.234375 16.324219 16.765625 16.324219 17.191406 16.074219 C 17.621094 15.824219 17.882812 15.363281 17.875 14.867188 L 17.875 5.503906 C 17.886719 5.082031 17.699219 4.675781 17.371094 4.40625 C 17.046875 4.136719 16.613281 4.035156 16.199219 4.128906 Z M 16.195312 4.125 "/>
<path style=" stroke:none;fill-rule:nonzero;fill:rgb(100%,100%,100%);fill-opacity:1;" d="M 7.945312 4.125 C 7.308594 4.269531 6.859375 4.84375 6.875 5.5 L 6.875 12.933594 C 6.867188 13.429688 7.128906 13.890625 7.558594 14.140625 C 7.984375 14.390625 8.515625 14.390625 8.941406 14.140625 C 9.371094 13.890625 9.632812 13.429688 9.625 12.933594 L 9.625 5.496094 C 9.636719 5.070312 9.449219 4.667969 9.121094 4.398438 C 8.796875 4.128906 8.363281 4.027344 7.949219 4.121094 Z M 7.945312 4.125 "/>
<path style=" stroke:none;fill-rule:nonzero;fill:rgb(100%,100%,100%);fill-opacity:1;" d="M 3.820312 5.5 C 3.183594 5.644531 2.734375 6.21875 2.75 6.875 L 2.75 15.125 C 2.742188 15.621094 3.003906 16.082031 3.433594 16.332031 C 3.859375 16.582031 4.390625 16.582031 4.816406 16.332031 C 5.246094 16.082031 5.507812 15.621094 5.5 15.125 L 5.5 6.875 C 5.511719 6.453125 5.324219 6.046875 4.996094 5.777344 C 4.671875 5.511719 4.238281 5.40625 3.824219 5.5 Z M 3.820312 5.5 "/>
<path style=" stroke:none;fill-rule:nonzero;fill:rgb(100%,100%,100%);fill-opacity:1;" d="M 16.28125 13.75 C 15.917969 13.808594 15.589844 14.007812 15.378906 14.308594 L 11.691406 19.246094 L 8.898438 19.246094 L 5.203125 14.390625 C 4.960938 13.890625 4.4375 13.585938 3.886719 13.621094 C 3.332031 13.65625 2.851562 14.019531 2.667969 14.546875 C 2.488281 15.070312 2.640625 15.652344 3.054688 16.023438 L 7.179688 21.4375 C 7.433594 21.773438 7.832031 21.976562 8.253906 21.988281 L 12.378906 21.988281 C 12.820312 21.988281 13.234375 21.78125 13.496094 21.429688 L 17.621094 15.929688 C 17.964844 15.476562 17.996094 14.863281 17.699219 14.378906 C 17.40625 13.894531 16.84375 13.644531 16.289062 13.742188 Z M 16.28125 13.75 "/>
</g>
</svg>
