<?xml version="1.0" encoding="UTF-8"?>
<svg xmlns="http://www.w3.org/2000/svg" xmlns:xlink="http://www.w3.org/1999/xlink" width="22" height="22" viewBox="0 0 22 22" version="1.1">
<g id="surface1">
<path style=" stroke:none;fill-rule:nonzero;fill:rgb(100%,100%,100%);fill-opacity:1;" d="M 13.578125 12.375 C 13.269531 12.410156 12.984375 12.542969 12.761719 12.761719 L 10.011719 15.511719 L 9.066406 16.5 L 10.011719 17.488281 L 12.761719 20.238281 C 13.113281 20.597656 13.632812 20.738281 14.117188 20.609375 C 14.601562 20.480469 14.980469 20.101562 15.109375 19.617188 C 15.238281 19.132812 15.097656 18.613281 14.738281 18.261719 L 12.980469 16.503906 L 14.738281 14.742188 C 15.183594 14.328125 15.308594 13.671875 15.039062 13.128906 C 14.773438 12.582031 14.179688 12.277344 13.578125 12.378906 Z M 13.578125 12.375 "/>
<path style=" stroke:none;fill-rule:nonzero;fill:rgb(100%,100%,100%);fill-opacity:1;" d="M 5.5 4.125 C 3.238281 4.125 1.375 5.988281 1.375 8.25 L 1.375 13.75 C 1.375 16.011719 3.238281 17.875 5.5 17.875 L 6.875 17.875 L 6.875 15.125 L 5.5 15.125 C 4.714844 15.125 4.125 14.535156 4.125 13.75 L 4.125 8.25 C 4.125 7.464844 4.714844 6.875 5.5 6.875 L 16.5 6.875 C 17.285156 6.875 17.875 7.464844 17.875 8.25 L 17.875 13.75 C 17.875 14.535156 17.285156 15.125 16.5 15.125 L 11 15.125 L 11 17.875 L 16.5 17.875 C 18.761719 17.875 20.625 16.011719 20.625 13.75 L 20.625 8.25 C 20.625 5.988281 18.761719 4.125 16.5 4.125 Z M 5.5 4.125 "/>
<path style=" stroke:none;fill-rule:nonzero;fill:rgb(100%,100%,100%);fill-opacity:1;" d="M 13.75 12.375 L 15.125 12.375 L 15.125 13.75 L 13.75 13.75 Z M 13.75 12.375 "/>
<path style=" stroke:none;fill-rule:nonzero;fill:rgb(100%,100%,100%);fill-opacity:1;" d="M 13.75 19.25 L 15.125 19.25 L 15.125 20.625 L 13.75 20.625 Z M 13.75 19.25 "/>
</g>
</svg>
