<?xml version="1.0" encoding="UTF-8"?>
<svg xmlns="http://www.w3.org/2000/svg" xmlns:xlink="http://www.w3.org/1999/xlink" width="22" height="22" viewBox="0 0 22 22" version="1.1">
<g id="surface1">
<path style=" stroke:none;fill-rule:nonzero;fill:rgb(100%,100%,100%);fill-opacity:1;" d="M 1.414062 9.625 L 1.414062 12.375 L 19.25 12.375 L 19.25 9.625 Z M 1.414062 9.625 "/>
<path style=" stroke:none;fill-rule:nonzero;fill:rgb(100%,100%,100%);fill-opacity:1;" d="M 16.195312 6.875 C 15.683594 6.96875 15.269531 7.34375 15.121094 7.84375 C 14.976562 8.34375 15.128906 8.882812 15.507812 9.238281 L 17.269531 11 L 15.507812 12.757812 C 15.152344 13.113281 15.007812 13.628906 15.136719 14.113281 C 15.265625 14.601562 15.644531 14.980469 16.128906 15.109375 C 16.617188 15.234375 17.132812 15.09375 17.484375 14.734375 L 20.234375 11.984375 L 21.179688 10.996094 L 20.234375 10.007812 L 17.484375 7.257812 C 17.152344 6.914062 16.660156 6.769531 16.191406 6.875 Z M 16.195312 6.875 "/>
<path style=" stroke:none;fill-rule:nonzero;fill:rgb(100%,100%,100%);fill-opacity:1;" d="M 15.125 6.875 L 16.5 6.875 L 16.5 8.25 L 15.125 8.25 Z M 15.125 6.875 "/>
<path style=" stroke:none;fill-rule:nonzero;fill:rgb(100%,100%,100%);fill-opacity:1;" d="M 15.125 13.75 L 16.5 13.75 L 16.5 15.125 L 15.125 15.125 Z M 15.125 13.75 "/>
</g>
</svg>
