<?xml version="1.0" encoding="UTF-8"?>
<svg xmlns="http://www.w3.org/2000/svg" xmlns:xlink="http://www.w3.org/1999/xlink" width="22" height="22" viewBox="0 0 22 22" version="1.1">
<g id="surface1">
<path style=" stroke:none;fill-rule:nonzero;fill:rgb(100%,100%,100%);fill-opacity:1;" d="M 2.75 9.625 L 2.75 12.375 L 20.582031 12.375 L 20.582031 9.625 Z M 2.75 9.625 "/>
<path style=" stroke:none;fill-rule:nonzero;fill:rgb(100%,100%,100%);fill-opacity:1;" d="M 5.335938 6.875 C 5.027344 6.910156 4.738281 7.042969 4.519531 7.261719 L 1.769531 10.011719 L 0.824219 11 L 1.769531 11.988281 L 4.519531 14.738281 C 4.871094 15.097656 5.386719 15.238281 5.875 15.109375 C 6.359375 14.980469 6.738281 14.601562 6.867188 14.117188 C 6.996094 13.632812 6.851562 13.113281 6.496094 12.761719 L 4.722656 11.003906 L 6.484375 9.242188 C 6.925781 8.828125 7.046875 8.171875 6.78125 7.628906 C 6.515625 7.085938 5.925781 6.777344 5.328125 6.875 Z M 5.335938 6.875 "/>
<path style=" stroke:none;fill-rule:nonzero;fill:rgb(100%,100%,100%);fill-opacity:1;" d="M 6.875 6.875 L 5.5 6.875 L 5.5 8.25 L 6.875 8.25 Z M 6.875 6.875 "/>
<path style=" stroke:none;fill-rule:nonzero;fill:rgb(100%,100%,100%);fill-opacity:1;" d="M 6.875 13.75 L 5.5 13.75 L 5.5 15.125 L 6.875 15.125 Z M 6.875 13.75 "/>
</g>
</svg>
