<?xml version="1.0" encoding="UTF-8"?>
<svg xmlns="http://www.w3.org/2000/svg" xmlns:xlink="http://www.w3.org/1999/xlink" width="22" height="22" viewBox="0 0 22 22" version="1.1">
<g id="surface1">
<path style=" stroke:none;fill-rule:nonzero;fill:rgb(100%,100%,100%);fill-opacity:1;" d="M 16.65625 5.183594 L 16.65625 6.773438 L 13.90625 6.773438 L 13.835938 6.816406 L 9.855469 9.910156 L 5.871094 6.816406 L 5.800781 6.773438 L 1.648438 6.773438 L 1.648438 9.066406 L 5.644531 9.066406 L 8.292969 11.128906 L 5.644531 13.191406 L 1.648438 13.191406 L 1.648438 15.484375 L 5.800781 15.484375 L 5.871094 15.441406 L 9.855469 12.347656 L 13.835938 15.441406 L 13.90625 15.484375 L 16.65625 15.484375 L 16.65625 17.074219 L 17.015625 16.816406 L 20.222656 14.523438 L 20.480469 14.335938 L 20.222656 14.152344 L 17.015625 11.859375 L 16.65625 11.601562 L 16.65625 13.191406 L 14.066406 13.191406 L 11.414062 11.128906 L 14.066406 9.066406 L 16.65625 9.066406 L 16.65625 10.65625 L 17.015625 10.398438 L 20.222656 8.105469 L 20.480469 7.921875 L 20.222656 7.734375 L 17.015625 5.441406 Z M 16.65625 5.183594 "/>
</g>
</svg>
