<?xml version="1.0" encoding="UTF-8"?>
<svg xmlns="http://www.w3.org/2000/svg" xmlns:xlink="http://www.w3.org/1999/xlink" width="22" height="22" viewBox="0 0 22 22" version="1.1">
<g id="surface1">
<path style=" stroke:none;fill-rule:nonzero;fill:rgb(100%,100%,100%);fill-opacity:1;" d="M 1.375 4.125 L 1.375 6.875 L 5.5 6.875 C 6.285156 6.875 6.875 7.464844 6.875 8.25 L 6.875 13.75 C 6.875 16.011719 8.738281 17.875 11 17.875 L 19.25 17.875 L 19.25 15.125 L 11 15.125 C 10.214844 15.125 9.625 14.535156 9.625 13.75 L 9.625 8.25 C 9.625 5.988281 7.761719 4.125 5.5 4.125 Z M 1.375 4.125 "/>
<path style=" stroke:none;fill-rule:nonzero;fill:rgb(100%,100%,100%);fill-opacity:1;" d="M 16.199219 12.375 C 15.6875 12.46875 15.269531 12.84375 15.125 13.34375 C 14.976562 13.84375 15.128906 14.382812 15.511719 14.738281 L 17.273438 16.5 L 15.511719 18.257812 C 15.152344 18.613281 15.011719 19.128906 15.140625 19.613281 C 15.269531 20.101562 15.648438 20.480469 16.132812 20.609375 C 16.617188 20.734375 17.136719 20.59375 17.488281 20.234375 L 20.238281 17.484375 L 21.183594 16.496094 L 20.238281 15.507812 L 17.488281 12.757812 C 17.15625 12.414062 16.667969 12.269531 16.199219 12.375 Z M 16.199219 12.375 "/>
<path style=" stroke:none;fill-rule:nonzero;fill:rgb(100%,100%,100%);fill-opacity:1;" d="M 16.199219 1.375 C 15.6875 1.46875 15.269531 1.84375 15.125 2.34375 C 14.976562 2.84375 15.128906 3.382812 15.511719 3.738281 L 17.273438 5.5 L 15.511719 7.257812 C 15.152344 7.613281 15.011719 8.128906 15.140625 8.613281 C 15.269531 9.101562 15.648438 9.480469 16.132812 9.609375 C 16.617188 9.734375 17.136719 9.59375 17.488281 9.234375 L 20.238281 6.484375 L 21.183594 5.496094 L 20.238281 4.507812 L 17.488281 1.757812 C 17.15625 1.414062 16.667969 1.269531 16.199219 1.375 Z M 16.199219 1.375 "/>
<path style=" stroke:none;fill-rule:nonzero;fill:rgb(100%,100%,100%);fill-opacity:1;" d="M 11 4.125 C 10.683594 4.125 10.394531 4.183594 10.097656 4.253906 C 10.757812 5.011719 11.28125 5.875 11.515625 6.875 L 19.25 6.875 L 19.25 4.125 Z M 1.375 15.125 L 1.375 17.875 L 5.5 17.875 C 5.816406 17.875 6.105469 17.816406 6.402344 17.746094 C 5.742188 16.988281 5.21875 16.125 4.984375 15.125 Z M 1.375 15.125 "/>
<path style=" stroke:none;fill-rule:nonzero;fill:rgb(100%,100%,100%);fill-opacity:1;" d="M 15.125 12.375 L 16.5 12.375 L 16.5 13.75 L 15.125 13.75 Z M 15.125 12.375 "/>
<path style=" stroke:none;fill-rule:nonzero;fill:rgb(100%,100%,100%);fill-opacity:1;" d="M 15.125 19.25 L 16.5 19.25 L 16.5 20.625 L 15.125 20.625 Z M 15.125 19.25 "/>
<path style=" stroke:none;fill-rule:nonzero;fill:rgb(100%,100%,100%);fill-opacity:1;" d="M 15.125 1.375 L 16.5 1.375 L 16.5 2.75 L 15.125 2.75 Z M 15.125 1.375 "/>
<path style=" stroke:none;fill-rule:nonzero;fill:rgb(100%,100%,100%);fill-opacity:1;" d="M 15.125 8.25 L 16.5 8.25 L 16.5 9.625 L 15.125 9.625 Z M 15.125 8.25 "/>
</g>
</svg>
