<?xml version="1.0" encoding="UTF-8"?>
<svg xmlns="http://www.w3.org/2000/svg" xmlns:xlink="http://www.w3.org/1999/xlink" width="22" height="22" viewBox="0 0 22 22" version="1.1">
<g id="surface1">
<path style=" stroke:none;fill-rule:nonzero;fill:rgb(100%,100%,100%);fill-opacity:1;" d="M 7.945312 12.375 C 7.433594 12.46875 7.019531 12.84375 6.871094 13.34375 C 6.726562 13.84375 6.878906 14.382812 7.257812 14.738281 L 9.019531 16.5 L 7.257812 18.257812 C 6.902344 18.613281 6.757812 19.128906 6.886719 19.613281 C 7.015625 20.101562 7.394531 20.480469 7.878906 20.609375 C 8.367188 20.734375 8.882812 20.59375 9.234375 20.234375 L 11.984375 17.484375 L 12.929688 16.496094 L 11.984375 15.507812 L 9.234375 12.757812 C 8.902344 12.414062 8.410156 12.269531 7.941406 12.375 Z M 7.945312 12.375 "/>
<path style=" stroke:none;fill-rule:nonzero;fill:rgb(100%,100%,100%);fill-opacity:1;" d="M 5.5 4.125 C 3.238281 4.125 1.375 5.988281 1.375 8.25 L 1.375 13.75 C 1.375 16.011719 3.238281 17.875 5.5 17.875 L 11 17.875 L 11 15.125 L 5.5 15.125 C 4.714844 15.125 4.125 14.535156 4.125 13.75 L 4.125 8.25 C 4.125 7.464844 4.714844 6.875 5.5 6.875 L 16.5 6.875 C 17.285156 6.875 17.875 7.464844 17.875 8.25 L 17.875 13.75 C 17.875 14.535156 17.285156 15.125 16.5 15.125 L 15.125 15.125 L 15.125 17.875 L 16.5 17.875 C 18.761719 17.875 20.625 16.011719 20.625 13.75 L 20.625 8.25 C 20.625 5.988281 18.761719 4.125 16.5 4.125 Z M 5.5 4.125 "/>
<path style=" stroke:none;fill-rule:nonzero;fill:rgb(100%,100%,100%);fill-opacity:1;" d="M 8.25 12.375 L 6.875 12.375 L 6.875 13.75 L 8.25 13.75 Z M 8.25 12.375 "/>
<path style=" stroke:none;fill-rule:nonzero;fill:rgb(100%,100%,100%);fill-opacity:1;" d="M 8.25 19.25 L 6.875 19.25 L 6.875 20.625 L 8.25 20.625 Z M 8.25 19.25 "/>
</g>
</svg>
