<?xml version="1.0" encoding="UTF-8"?>
<svg xmlns="http://www.w3.org/2000/svg" xmlns:xlink="http://www.w3.org/1999/xlink" width="22" height="22" viewBox="0 0 22 22" version="1.1">
<defs>
<clipPath id="clip1">
  <path d="M 1.375 7.582031 L 13.792969 7.582031 L 13.792969 17.917969 L 1.375 17.917969 Z M 1.375 7.582031 "/>
</clipPath>
</defs>
<g id="surface1">
<path style=" stroke:none;fill-rule:nonzero;fill:rgb(100%,100%,100%);fill-opacity:1;" d="M 7.5625 1.363281 C 9.460938 1.363281 11 2.898438 11 4.800781 L 11 11.691406 C 11 13.589844 9.460938 15.128906 7.5625 15.128906 C 5.664062 15.128906 4.125 13.589844 4.125 11.691406 L 4.125 4.800781 C 4.125 2.898438 5.664062 1.363281 7.5625 1.363281 Z M 7.5625 1.363281 "/>
<g clip-path="url(#clip1)" clip-rule="nonzero">
<path style=" stroke:none;fill-rule:nonzero;fill:rgb(100%,100%,100%);fill-opacity:1;" d="M 7.578125 -2.566406 C 4.15625 -2.566406 1.382812 0.222656 1.382812 3.664062 L 1.382812 11.65625 C 1.382812 15.097656 4.15625 17.886719 7.578125 17.886719 C 10.996094 17.886719 13.769531 15.097656 13.769531 11.65625 L 13.769531 3.664062 C 13.769531 0.222656 10.996094 -2.566406 7.578125 -2.566406 Z M 7.578125 -1.191406 C 10.261719 -1.191406 12.402344 0.964844 12.402344 3.664062 L 12.402344 11.65625 C 12.402344 14.359375 10.261719 16.511719 7.578125 16.511719 C 4.890625 16.511719 2.75 14.359375 2.75 11.65625 L 2.75 3.664062 C 2.75 0.964844 4.890625 -1.191406 7.578125 -1.191406 Z M 7.578125 -1.191406 "/>
</g>
<path style=" stroke:none;fill-rule:nonzero;fill:rgb(100%,100%,100%);fill-opacity:1;" d="M 2.75 7.5625 C 2.75 7.941406 2.441406 8.25 2.0625 8.25 C 1.683594 8.25 1.375 7.941406 1.375 7.5625 C 1.375 7.183594 1.683594 6.875 2.0625 6.875 C 2.441406 6.875 2.75 7.183594 2.75 7.5625 Z M 2.75 7.5625 "/>
<path style=" stroke:none;fill-rule:nonzero;fill:rgb(100%,100%,100%);fill-opacity:1;" d="M 13.75 7.5625 C 13.75 7.941406 13.441406 8.25 13.0625 8.25 C 12.683594 8.25 12.375 7.941406 12.375 7.5625 C 12.375 7.183594 12.683594 6.875 13.0625 6.875 C 13.441406 6.875 13.75 7.183594 13.75 7.5625 Z M 13.75 7.5625 "/>
<path style=" stroke:none;fill-rule:nonzero;fill:rgb(100%,100%,100%);fill-opacity:1;" d="M 2.585938 19.25 C 2.089844 19.277344 1.648438 19.566406 1.425781 20.007812 C 1.203125 20.453125 1.238281 20.980469 1.511719 21.390625 C 1.789062 21.804688 2.261719 22.035156 2.757812 22 L 12.425781 22 C 12.921875 22.007812 13.382812 21.746094 13.632812 21.316406 C 13.882812 20.890625 13.882812 20.359375 13.632812 19.933594 C 13.382812 19.503906 12.921875 19.242188 12.425781 19.25 L 2.757812 19.25 C 2.699219 19.246094 2.644531 19.246094 2.585938 19.25 Z M 2.585938 19.25 "/>
<path style=" stroke:none;fill-rule:nonzero;fill:rgb(100%,100%,100%);fill-opacity:1;" d="M 1.375 20.625 L 13.75 20.625 L 13.75 22 L 1.375 22 Z M 1.375 20.625 "/>
<path style=" stroke:none;fill-rule:nonzero;fill:rgb(100%,100%,100%);fill-opacity:1;" d="M 5.5 16.5 L 9.625 16.5 L 9.625 22 L 5.5 22 Z M 5.5 16.5 "/>
<path style=" stroke:none;fill-rule:nonzero;fill:rgb(100%,100%,100%);fill-opacity:1;" d="M 20.613281 17.882812 C 20.613281 19.402344 19.378906 20.632812 17.863281 20.632812 C 16.34375 20.632812 15.113281 19.402344 15.113281 17.882812 C 15.113281 16.363281 16.34375 15.132812 17.863281 15.132812 C 19.378906 15.132812 20.613281 16.363281 20.613281 17.882812 Z M 20.613281 17.882812 "/>
<path style=" stroke:none;fill-rule:nonzero;fill:rgb(100%,100%,100%);fill-opacity:1;" d="M 20.613281 11.007812 C 20.613281 12.527344 19.378906 13.757812 17.863281 13.757812 C 16.34375 13.757812 15.113281 12.527344 15.113281 11.007812 C 15.113281 9.488281 16.34375 8.257812 17.863281 8.257812 C 19.378906 8.257812 20.613281 9.488281 20.613281 11.007812 Z M 20.613281 11.007812 "/>
<path style=" stroke:none;fill-rule:nonzero;fill:rgb(100%,100%,100%);fill-opacity:1;" d="M 20.613281 4.132812 C 20.613281 5.652344 19.378906 6.882812 17.863281 6.882812 C 16.34375 6.882812 15.113281 5.652344 15.113281 4.132812 C 15.113281 2.613281 16.34375 1.382812 17.863281 1.382812 C 19.378906 1.382812 20.613281 2.613281 20.613281 4.132812 Z M 20.613281 4.132812 "/>
</g>
</svg>
