<?xml version="1.0" encoding="UTF-8"?>
<svg xmlns="http://www.w3.org/2000/svg" xmlns:xlink="http://www.w3.org/1999/xlink" width="22" height="22" viewBox="0 0 22 22" version="1.1">
<g id="surface1">
<path style=" stroke:none;fill-rule:nonzero;fill:rgb(100%,100%,100%);fill-opacity:1;" d="M 2.832031 0 C 1.25 0 -0.00390625 1.253906 -0.00390625 2.835938 L -0.00390625 19.164062 C -0.00390625 20.746094 1.25 22 2.832031 22 L 19.160156 22 C 20.742188 22 21.996094 20.746094 21.996094 19.164062 L 21.996094 2.835938 C 21.996094 1.253906 20.742188 0 19.160156 0 Z M 2.746094 4.125 L 5.496094 4.125 L 5.496094 9.625 L 6.871094 9.625 L 6.871094 8.25 L 9.621094 8.25 L 9.621094 17.875 L 6.871094 17.875 L 6.871094 12.375 L 5.496094 12.375 C 4.121094 12.375 2.746094 11.21875 2.746094 9.625 Z M 13.832031 4.167969 L 16.453125 4.167969 C 16.457031 4.167969 16.449219 4.210938 16.453125 4.210938 C 17.179688 4.183594 17.929688 4.316406 18.515625 4.855469 C 19.085938 5.378906 19.332031 6.242188 19.289062 7.046875 L 19.332031 7.046875 L 19.332031 8.25 L 16.582031 8.25 L 16.582031 6.917969 C 16.558594 6.914062 16.585938 6.914062 16.539062 6.917969 L 13.832031 6.917969 C 13.796875 6.917969 13.800781 6.921875 13.789062 6.917969 C 13.78125 6.921875 13.75 6.914062 13.746094 6.917969 C 13.738281 6.949219 13.757812 6.980469 13.746094 7.003906 L 13.746094 15.039062 C 13.714844 15.007812 13.746094 15.125 13.746094 15.125 L 16.453125 15.125 C 16.464844 15.097656 16.496094 15.101562 16.496094 15.125 C 16.496094 15.136719 16.496094 15.046875 16.496094 15.082031 L 16.496094 12.417969 L 15.121094 12.417969 L 15.121094 9.667969 L 19.246094 9.667969 L 19.246094 15.082031 C 19.246094 15.855469 18.933594 16.457031 18.472656 16.972656 C 18.039062 17.457031 17.300781 17.839844 16.453125 17.832031 L 16.453125 17.875 L 13.746094 17.875 C 12.886719 17.875 12.378906 17.542969 11.898438 17.101562 C 11.445312 16.683594 11.015625 16.015625 11.039062 15.125 C 11.039062 15.121094 10.996094 15.128906 10.996094 15.125 L 10.996094 6.789062 C 11.082031 6.1875 11.28125 5.566406 11.769531 5.027344 C 12.261719 4.488281 13.070312 4.167969 13.832031 4.167969 Z M 13.832031 4.167969 "/>
</g>
</svg>
