<?xml version="1.0" encoding="UTF-8"?>
<svg xmlns="http://www.w3.org/2000/svg" xmlns:xlink="http://www.w3.org/1999/xlink" width="22" height="22" viewBox="0 0 22 22" version="1.1">
<g id="surface1">
<path style=" stroke:none;fill-rule:nonzero;fill:rgb(100%,100%,100%);fill-opacity:1;" d="M 2.835938 0 C 1.253906 0 0 1.25 0 2.832031 L 0 19.160156 C 0 20.742188 1.253906 21.992188 2.835938 21.992188 L 19.164062 21.992188 C 20.746094 21.992188 22 20.742188 22 19.160156 L 22 2.832031 C 22 1.25 20.746094 0 19.164062 0 Z M 5.5 4.125 L 8.25 4.125 L 8.25 15.125 C 8.25 15.125 8.292969 15.125 8.292969 15.125 L 13.707031 15.125 C 13.714844 15.097656 13.746094 15.101562 13.75 15.125 C 13.75 15.136719 13.75 15.050781 13.75 15.082031 L 13.75 4.125 L 16.5 4.125 L 16.5 15.082031 C 16.5 15.855469 16.1875 16.453125 15.726562 16.972656 C 15.292969 17.457031 14.554688 17.839844 13.707031 17.832031 L 13.707031 17.875 L 8.25 17.875 C 7.390625 17.875 6.882812 17.542969 6.402344 17.101562 C 5.949219 16.679688 5.515625 16.015625 5.542969 15.125 L 5.5 15.125 Z M 5.5 4.125 "/>
</g>
</svg>
