<?xml version="1.0" encoding="UTF-8"?>
<svg xmlns="http://www.w3.org/2000/svg" xmlns:xlink="http://www.w3.org/1999/xlink" width="22" height="22" viewBox="0 0 22 22" version="1.1">
<g id="surface1">
<path style=" stroke:none;fill-rule:nonzero;fill:rgb(100%,100%,100%);fill-opacity:1;" d="M 2.832031 0 C 1.25 0 -0.00390625 1.253906 -0.00390625 2.835938 L -0.00390625 19.164062 C -0.00390625 20.746094 1.25 22 2.832031 22 L 19.160156 22 C 20.742188 22 21.996094 20.746094 21.996094 19.164062 L 21.996094 2.835938 C 21.996094 1.253906 20.742188 0 19.160156 0 Z M 8.246094 4.125 L 16.496094 4.125 L 16.496094 6.875 L 8.246094 6.875 L 8.246094 9.625 L 16.496094 9.625 L 16.496094 12.375 L 8.246094 12.375 L 8.246094 15.125 C 8.246094 15.125 8.289062 15.125 8.289062 15.125 L 16.496094 15.125 L 16.496094 17.875 L 8.246094 17.875 C 7.386719 17.875 6.878906 17.542969 6.398438 17.101562 C 5.945312 16.683594 5.511719 16.015625 5.539062 15.125 L 5.496094 15.125 L 5.496094 6.875 L 5.539062 6.875 C 5.523438 6.222656 5.691406 5.5 6.183594 4.941406 C 6.671875 4.390625 7.46875 4.140625 8.246094 4.167969 Z M 8.246094 4.125 "/>
</g>
</svg>
