<?xml version="1.0" encoding="UTF-8"?>
<svg xmlns="http://www.w3.org/2000/svg" xmlns:xlink="http://www.w3.org/1999/xlink" width="22" height="22" viewBox="0 0 22 22" version="1.1">
<g id="surface1">
<path style=" stroke:none;fill-rule:nonzero;fill:rgb(100%,100%,100%);fill-opacity:1;" d="M 6.875 9.625 C 6.449219 9.625 6.03125 9.75 5.757812 10.011719 L 0.808594 15.128906 L 5.835938 20.242188 C 6.105469 20.503906 6.441406 20.628906 6.867188 20.628906 L 8.242188 20.628906 L 8.242188 19.253906 C 8.242188 18.898438 8.0625 18.523438 7.8125 18.265625 L 6.050781 16.503906 L 12.367188 16.503906 C 13.09375 16.511719 13.742188 15.855469 13.742188 15.128906 C 13.742188 14.402344 13.09375 13.742188 12.367188 13.753906 L 6.007812 13.753906 L 7.683594 11.992188 C 7.9375 11.730469 8.242188 11.355469 8.242188 11.003906 L 8.242188 9.628906 Z M 6.875 9.625 "/>
<path style=" stroke:none;fill-rule:nonzero;fill:rgb(100%,100%,100%);fill-opacity:1;" d="M 15.9375 12.375 C 16.363281 12.375 16.78125 12.25 17.054688 11.988281 L 22.003906 6.871094 L 16.976562 1.757812 C 16.703125 1.496094 16.371094 1.371094 15.945312 1.371094 L 14.570312 1.371094 L 14.570312 2.746094 C 14.570312 3.101562 14.75 3.476562 15 3.734375 L 16.761719 5.496094 L 9.628906 5.496094 C 8.902344 5.488281 8.253906 6.148438 8.253906 6.871094 C 8.253906 7.597656 8.902344 8.257812 9.628906 8.246094 L 16.804688 8.246094 L 15.128906 10.007812 C 14.878906 10.273438 14.570312 10.644531 14.570312 10.996094 L 14.570312 12.371094 Z M 15.9375 12.375 "/>
</g>
</svg>
