<?xml version="1.0" encoding="UTF-8"?>
<svg xmlns="http://www.w3.org/2000/svg" xmlns:xlink="http://www.w3.org/1999/xlink" width="22" height="22" viewBox="0 0 22 22" version="1.1">
<g id="surface1">
<path style=" stroke:none;fill-rule:nonzero;fill:rgb(100%,100%,100%);fill-opacity:1;" d="M 2.835938 0 C 1.253906 0 0 1.253906 0 2.835938 L 0 19.164062 C 0 20.746094 1.253906 22 2.835938 22 L 19.164062 22 C 20.746094 22 22 20.746094 22 19.164062 L 22 2.835938 C 22 1.253906 20.746094 0.00390625 19.164062 0.00390625 L 2.835938 0.00390625 Z M 2.75 4.125 L 8.25 4.125 C 8.71875 4.136719 9.148438 4.386719 9.390625 4.785156 C 9.636719 5.183594 9.660156 5.679688 9.453125 6.101562 L 7.5625 9.925781 C 8.050781 10.085938 8.59375 10.195312 8.894531 10.527344 C 9.351562 11.03125 9.625 11.640625 9.625 12.375 L 9.625 15.125 C 9.625 16.65625 8.378906 17.875 6.875 17.875 L 2.75 17.875 L 2.75 15.125 L 6.875 15.125 L 6.875 12.375 L 5.5 12.375 C 5.03125 12.363281 4.601562 12.113281 4.359375 11.714844 C 4.117188 11.316406 4.09375 10.820312 4.296875 10.398438 L 6.015625 6.875 L 2.75 6.875 Z M 13.835938 4.167969 L 16.457031 4.167969 C 16.460938 4.167969 16.453125 4.210938 16.457031 4.210938 C 17.183594 4.183594 17.933594 4.316406 18.519531 4.855469 C 19.089844 5.378906 19.335938 6.242188 19.292969 7.046875 L 19.335938 7.046875 L 19.335938 8.25 L 16.585938 8.25 L 16.585938 6.917969 C 16.5625 6.914062 16.589844 6.914062 16.542969 6.917969 L 13.835938 6.917969 C 13.800781 6.917969 13.804688 6.921875 13.792969 6.917969 C 13.785156 6.921875 13.753906 6.914062 13.75 6.917969 C 13.742188 6.949219 13.761719 6.980469 13.75 7.003906 L 13.75 15.039062 C 13.71875 15.007812 13.75 15.125 13.75 15.125 L 16.457031 15.125 C 16.46875 15.097656 16.5 15.101562 16.5 15.125 C 16.503906 15.136719 16.5 15.046875 16.5 15.082031 L 16.5 12.417969 L 15.125 12.417969 L 15.125 9.667969 L 19.25 9.667969 L 19.25 15.082031 C 19.25 15.855469 18.9375 16.457031 18.476562 16.972656 C 18.042969 17.457031 17.304688 17.839844 16.457031 17.832031 L 16.457031 17.875 L 13.75 17.875 C 12.890625 17.875 12.382812 17.542969 11.902344 17.101562 C 11.449219 16.683594 11.019531 16.015625 11.042969 15.125 C 11.042969 15.121094 11 15.128906 11 15.125 L 11 6.789062 C 11.085938 6.1875 11.285156 5.566406 11.773438 5.027344 C 12.265625 4.488281 13.074219 4.167969 13.835938 4.167969 Z M 13.835938 4.167969 "/>
</g>
</svg>
