<?xml version="1.0" encoding="UTF-8"?>
<svg xmlns="http://www.w3.org/2000/svg" xmlns:xlink="http://www.w3.org/1999/xlink" width="22" height="22" viewBox="0 0 22 22" version="1.1">
<g id="surface1">
<path style=" stroke:none;fill-rule:nonzero;fill:rgb(100%,100%,100%);fill-opacity:1;" d="M 11.003906 1.386719 C 10.640625 1.386719 10.320312 1.527344 10.089844 1.71875 C 9.863281 1.910156 9.707031 2.160156 9.554688 2.40625 C 9.246094 2.898438 9.015625 3.460938 8.777344 4.0625 C 8.539062 4.660156 8.300781 5.28125 8.082031 5.753906 C 7.867188 6.230469 7.609375 6.550781 7.589844 6.5625 C 7.570312 6.574219 7.167969 6.722656 6.632812 6.773438 C 6.097656 6.820312 5.421875 6.839844 4.757812 6.867188 C 4.097656 6.894531 3.425781 6.917969 2.84375 7.042969 C 2.550781 7.105469 2.273438 7.183594 2.011719 7.332031 C 1.753906 7.480469 1.507812 7.726562 1.394531 8.0625 C 1.28125 8.394531 1.324219 8.757812 1.445312 9.027344 C 1.5625 9.292969 1.753906 9.527344 1.949219 9.746094 C 2.339844 10.179688 2.820312 10.578125 3.335938 10.980469 C 3.851562 11.382812 4.402344 11.75 4.804688 12.09375 C 5.203125 12.4375 5.429688 12.792969 5.4375 12.8125 C 5.441406 12.832031 5.476562 13.273438 5.359375 13.777344 C 5.242188 14.285156 5.054688 14.894531 4.875 15.511719 C 4.699219 16.128906 4.527344 16.75 4.472656 17.324219 C 4.445312 17.609375 4.414062 17.882812 4.480469 18.167969 C 4.546875 18.453125 4.734375 18.761719 5.03125 18.96875 C 5.324219 19.175781 5.648438 19.226562 5.949219 19.203125 C 6.25 19.179688 6.546875 19.105469 6.820312 18.996094 C 7.371094 18.773438 7.925781 18.40625 8.480469 18.054688 C 9.039062 17.707031 9.59375 17.339844 10.054688 17.078125 C 10.519531 16.816406 10.949219 16.710938 10.96875 16.710938 C 10.992188 16.710938 11.386719 16.839844 11.847656 17.105469 C 12.308594 17.367188 12.84375 17.742188 13.398438 18.097656 C 13.953125 18.449219 14.527344 18.78125 15.074219 19.007812 C 15.347656 19.121094 15.609375 19.214844 15.910156 19.242188 C 16.210938 19.269531 16.570312 19.199219 16.867188 18.996094 C 17.160156 18.789062 17.332031 18.511719 17.398438 18.226562 C 17.46875 17.941406 17.460938 17.628906 17.433594 17.339844 C 17.386719 16.769531 17.214844 16.152344 17.042969 15.535156 C 16.871094 14.917969 16.683594 14.316406 16.570312 13.808594 C 16.457031 13.304688 16.472656 12.863281 16.480469 12.84375 C 16.484375 12.824219 16.738281 12.496094 17.140625 12.15625 C 17.542969 11.8125 18.070312 11.417969 18.589844 11.019531 C 19.109375 10.621094 19.644531 10.234375 20.035156 9.800781 C 20.234375 9.585938 20.371094 9.339844 20.488281 9.074219 C 20.609375 8.804688 20.675781 8.484375 20.5625 8.148438 C 20.453125 7.8125 20.191406 7.578125 19.933594 7.429688 C 19.675781 7.277344 19.429688 7.179688 19.136719 7.113281 C 18.558594 6.984375 17.882812 6.921875 17.21875 6.886719 C 16.554688 6.855469 15.917969 6.835938 15.386719 6.78125 C 14.851562 6.730469 14.402344 6.601562 14.382812 6.589844 C 14.363281 6.578125 14.128906 6.265625 13.917969 5.789062 C 13.703125 5.3125 13.46875 4.703125 13.238281 4.105469 C 13.003906 3.503906 12.777344 2.917969 12.472656 2.421875 C 12.320312 2.175781 12.152344 1.9375 11.921875 1.742188 C 11.699219 1.550781 11.371094 1.390625 11.003906 1.386719 Z M 11.015625 2.757812 C 11.074219 2.804688 11.164062 2.941406 11.269531 3.117188 C 11.480469 3.460938 11.722656 3.976562 11.949219 4.558594 C 12.171875 5.136719 12.386719 5.777344 12.628906 6.320312 C 12.875 6.867188 13.0625 7.332031 13.558594 7.679688 C 14.054688 8.03125 14.617188 8.089844 15.230469 8.152344 C 15.839844 8.210938 16.507812 8.222656 17.148438 8.253906 C 17.789062 8.289062 18.410156 8.351562 18.816406 8.445312 C 19.019531 8.488281 19.167969 8.523438 19.234375 8.5625 C 19.203125 8.628906 19.125 8.773438 18.988281 8.925781 C 18.710938 9.226562 18.246094 9.59375 17.746094 9.980469 C 17.242188 10.363281 16.675781 10.765625 16.214844 11.160156 C 15.753906 11.550781 15.335938 11.890625 15.140625 12.453125 C 14.949219 13.015625 15.066406 13.523438 15.199219 14.101562 C 15.328125 14.683594 15.546875 15.308594 15.714844 15.90625 C 15.878906 16.503906 16.023438 17.070312 16.058594 17.472656 C 16.078125 17.65625 16.035156 17.796875 16.023438 17.875 C 15.9375 17.863281 15.78125 17.832031 15.605469 17.757812 C 15.222656 17.597656 14.714844 17.308594 14.179688 16.964844 C 13.644531 16.625 13.074219 16.234375 12.546875 15.933594 C 12.019531 15.628906 11.574219 15.386719 10.957031 15.382812 C 10.34375 15.378906 9.871094 15.621094 9.335938 15.917969 C 8.804688 16.214844 8.257812 16.597656 7.722656 16.9375 C 7.183594 17.273438 6.652344 17.554688 6.269531 17.710938 C 6.078125 17.789062 5.929688 17.828125 5.855469 17.835938 C 5.839844 17.757812 5.832031 17.617188 5.851562 17.433594 C 5.890625 17.035156 6.039062 16.460938 6.210938 15.863281 C 6.382812 15.265625 6.5625 14.628906 6.695312 14.050781 C 6.832031 13.46875 6.953125 12.964844 6.765625 12.402344 C 6.578125 11.835938 6.171875 11.519531 5.710938 11.121094 C 5.253906 10.726562 4.742188 10.316406 4.242188 9.929688 C 3.746094 9.539062 3.257812 9.15625 2.984375 8.851562 C 2.847656 8.699219 2.761719 8.5625 2.730469 8.492188 C 2.796875 8.453125 2.945312 8.414062 3.148438 8.367188 C 3.554688 8.28125 4.171875 8.222656 4.8125 8.195312 C 5.453125 8.167969 6.117188 8.152344 6.726562 8.097656 C 7.339844 8.042969 7.890625 8.03125 8.390625 7.683594 C 8.890625 7.335938 9.132812 6.851562 9.378906 6.308594 C 9.628906 5.765625 9.84375 5.152344 10.074219 4.574219 C 10.304688 3.996094 10.511719 3.425781 10.726562 3.078125 C 10.835938 2.90625 10.957031 2.804688 11.015625 2.757812 Z M 11.015625 2.757812 "/>
</g>
</svg>
