<?xml version="1.0" encoding="UTF-8"?>
<svg xmlns="http://www.w3.org/2000/svg" xmlns:xlink="http://www.w3.org/1999/xlink" width="22" height="22" viewBox="0 0 22 22" version="1.1">
<g id="surface1">
<path style=" stroke:none;fill-rule:nonzero;fill:rgb(96.078431%,47.45098%,0%);fill-opacity:1;" d="M 12.210938 11 C 11.53125 11 11.007812 11.527344 11.007812 12.203125 L 11.007812 20.796875 C 11.007812 21.472656 11.53125 22 12.210938 22 L 20.804688 22 C 21.480469 22 22.007812 21.472656 22.007812 20.796875 L 22.007812 12.203125 C 22.007812 11.527344 21.484375 11.007812 20.796875 11.007812 L 12.203125 11.007812 Z M 15.132812 12.375 L 17.882812 12.375 L 17.882812 17.875 L 15.132812 17.875 Z M 15.132812 19.25 L 17.882812 19.25 L 17.882812 20.625 L 15.132812 20.625 Z M 15.132812 19.25 "/>
<path style=" stroke:none;fill-rule:nonzero;fill:rgb(74.509804%,74.509804%,74.509804%);fill-opacity:1;" d="M 2.75 5.5 C 2.0625 5.5 1.375 6.1875 1.375 6.875 L 1.375 12.375 C 1.375 13.0625 2.0625 13.75 2.75 13.75 L 4.125 13.75 L 4.125 11 L 9.625 11 C 9.789062 10.257812 10.382812 9.710938 11.171875 9.710938 L 20.625 9.710938 L 20.625 6.875 C 20.625 6.1875 19.9375 5.5 19.25 5.5 Z M 2.75 5.5 "/>
<path style=" stroke:none;fill-rule:nonzero;fill:rgb(74.509804%,74.509804%,74.509804%);fill-opacity:1;" d="M 5.5 1.375 L 5.5 4.125 L 16.5 4.125 L 16.5 1.375 Z M 5.5 1.375 "/>
<path style=" stroke:none;fill-rule:nonzero;fill:rgb(74.509804%,74.509804%,74.509804%);fill-opacity:1;" d="M 5.5 12.375 L 5.5 19.25 L 9.625 19.25 L 9.625 12.375 Z M 5.5 12.375 "/>
<path style=" stroke:none;fill-rule:nonzero;fill:rgb(100%,100%,100%);fill-opacity:1;" d="M 5.574219 15.820312 L 5.574219 12.417969 L 9.582031 12.417969 L 9.582031 19.222656 L 5.574219 19.222656 Z M 5.574219 15.820312 "/>
<path style=" stroke:none;fill-rule:nonzero;fill:rgb(100%,100%,100%);fill-opacity:1;" d="M 2.253906 13.589844 C 2.09375 13.519531 1.84375 13.304688 1.695312 13.109375 L 1.425781 12.757812 L 1.425781 6.484375 L 1.695312 6.128906 C 2.191406 5.480469 1.671875 5.511719 11.113281 5.539062 C 19.597656 5.566406 19.636719 5.566406 19.902344 5.761719 C 20.046875 5.867188 20.257812 6.09375 20.375 6.261719 C 20.570312 6.554688 20.582031 6.667969 20.582031 8.140625 L 20.582031 9.707031 L 15.574219 9.734375 L 10.5625 9.761719 L 10.257812 9.976562 C 10.089844 10.097656 9.867188 10.359375 9.765625 10.558594 L 9.582031 10.921875 L 4.128906 10.972656 L 4.078125 13.722656 L 3.3125 13.71875 C 2.878906 13.714844 2.417969 13.660156 2.253906 13.589844 Z M 2.253906 13.589844 "/>
<path style=" stroke:none;fill-rule:nonzero;fill:rgb(100%,100%,100%);fill-opacity:1;" d="M 5.574219 2.769531 L 5.574219 1.417969 L 16.480469 1.417969 L 16.480469 4.121094 L 5.574219 4.121094 Z M 5.574219 2.769531 "/>
</g>
</svg>
