<?xml version="1.0" encoding="UTF-8"?>
<svg xmlns="http://www.w3.org/2000/svg" xmlns:xlink="http://www.w3.org/1999/xlink" width="22" height="22" viewBox="0 0 22 22" version="1.1">
<g id="surface1">
<path style=" stroke:none;fill-rule:nonzero;fill:rgb(100%,100%,100%);fill-opacity:1;" d="M 19.359375 17.75 C 19.347656 17.691406 19.335938 17.636719 19.316406 17.578125 C 19.171875 16.9375 18.597656 16.488281 17.941406 16.503906 L 15.621094 16.503906 C 16.417969 15.980469 17.109375 15.335938 17.683594 14.570312 C 18.875 12.984375 19.40625 11.089844 19.316406 9.242188 C 19.304688 8.980469 19.269531 8.730469 19.230469 8.46875 C 18.933594 6.375 17.824219 4.375 16.007812 3.011719 C 12.375 0.289062 7.171875 1.058594 4.449219 4.6875 C 1.726562 8.320312 2.492188 13.523438 6.125 16.246094 C 6.363281 16.417969 6.648438 16.507812 6.941406 16.503906 C 7.011719 16.511719 7.085938 16.511719 7.15625 16.503906 L 8.316406 16.503906 L 8.316406 15.257812 C 8.320312 15.214844 8.320312 15.171875 8.316406 15.128906 C 8.320312 14.691406 8.113281 14.273438 7.757812 14.011719 C 5.316406 12.179688 4.851562 8.765625 6.683594 6.320312 C 8.515625 3.878906 11.933594 3.414062 14.375 5.246094 C 16.816406 7.078125 17.28125 10.496094 15.449219 12.9375 C 15.007812 13.527344 14.441406 13.996094 13.816406 14.355469 L 13.816406 12.378906 C 13.816406 11.621094 13.203125 11.003906 12.441406 11.003906 C 12.34375 10.992188 12.242188 10.992188 12.140625 11.003906 L 11.066406 11.003906 L 11.066406 19.253906 L 17.941406 19.253906 C 18.027344 19.261719 18.113281 19.261719 18.199219 19.253906 L 19.316406 19.253906 L 19.316406 18.136719 C 19.347656 18.011719 19.363281 17.882812 19.359375 17.75 Z M 19.359375 17.75 "/>
</g>
</svg>
