<?xml version="1.0" encoding="UTF-8"?>
<svg xmlns="http://www.w3.org/2000/svg" xmlns:xlink="http://www.w3.org/1999/xlink" width="22" height="22" viewBox="0 0 22 22" version="1.1">
<g id="surface1">
<path style=" stroke:none;fill-rule:nonzero;fill:rgb(100%,100%,100%);fill-opacity:1;" d="M 11.355469 0.917969 C 8.417969 0.917969 6.316406 2.667969 6.316406 5.535156 L 6.316406 8.054688 L 8.417969 8.054688 L 8.417969 6.375 C 8.417969 5.535156 8.417969 3.015625 11.355469 3.015625 L 11.777344 3.015625 C 14.714844 3.015625 14.714844 5.535156 14.714844 6.375 L 14.714844 8.054688 L 16.8125 8.054688 L 16.8125 5.535156 C 16.8125 2.597656 14.714844 0.917969 11.777344 0.917969 Z M 5.464844 11.425781 C 4.625 11.425781 4.207031 11.847656 4.207031 12.6875 L 4.207031 19.824219 C 4.207031 20.234375 4.625 21.082031 5.464844 21.082031 L 17.796875 21.082031 C 18.476562 21.078125 18.898438 20.234375 18.898438 19.824219 L 18.898438 12.6875 C 18.898438 11.847656 18.480469 11.425781 17.640625 11.425781 Z M 5.464844 11.425781 "/>
</g>
</svg>
