<?xml version="1.0" encoding="UTF-8"?>
<svg xmlns="http://www.w3.org/2000/svg" xmlns:xlink="http://www.w3.org/1999/xlink" width="22" height="22" viewBox="0 0 22 22" version="1.1">
<g id="surface1">
<path style=" stroke:none;fill-rule:nonzero;fill:rgb(100%,100%,100%);fill-opacity:1;" d="M 2.75 1.375 L 2.75 11 C 2.75 13.847656 4.824219 16.0625 6.660156 17.703125 C 8.496094 19.34375 10.3125 20.453125 10.3125 20.453125 L 11 20.839844 L 11.730469 20.410156 C 11.730469 20.410156 13.511719 19.3125 15.339844 17.660156 C 17.167969 15.996094 19.246094 13.796875 19.246094 10.992188 L 19.246094 1.367188 L 2.746094 1.367188 Z M 5.5 4.125 L 16.5 4.125 L 16.5 11 C 16.5 12.265625 15.144531 14.1875 13.535156 15.640625 C 12.289062 16.765625 11.5 17.207031 11 17.53125 C 10.511719 17.226562 9.722656 16.808594 8.464844 15.683594 C 6.855469 14.238281 5.496094 12.34375 5.496094 10.996094 L 5.496094 4.121094 Z M 5.5 4.125 "/>
<path style=" stroke:none;fill-rule:nonzero;fill:rgb(100%,100%,100%);fill-opacity:1;" d="M 11 5.5 L 11 15.8125 C 10.421875 15.40625 10.199219 15.324219 9.410156 14.609375 C 7.914062 13.257812 6.875 11.492188 6.875 11 L 6.875 5.5 Z M 11 5.5 "/>
</g>
</svg>
