<?xml version="1.0" encoding="UTF-8"?>
<svg xmlns="http://www.w3.org/2000/svg" xmlns:xlink="http://www.w3.org/1999/xlink" width="22" height="22" viewBox="0 0 22 22" version="1.1">
<g id="surface1">
<path style=" stroke:none;fill-rule:nonzero;fill:rgb(100%,100%,100%);fill-opacity:1;" d="M 11 1.386719 C 11.367188 1.386719 11.683594 1.527344 11.914062 1.71875 C 12.140625 1.910156 12.296875 2.160156 12.449219 2.40625 C 12.757812 2.898438 12.988281 3.460938 13.226562 4.0625 C 13.464844 4.660156 13.703125 5.28125 13.921875 5.753906 C 14.136719 6.230469 14.398438 6.550781 14.414062 6.5625 C 14.433594 6.574219 14.835938 6.722656 15.371094 6.773438 C 15.90625 6.820312 16.582031 6.839844 17.246094 6.867188 C 17.90625 6.894531 18.578125 6.917969 19.160156 7.042969 C 19.453125 7.105469 19.730469 7.183594 19.992188 7.332031 C 20.25 7.480469 20.496094 7.726562 20.609375 8.0625 C 20.726562 8.394531 20.679688 8.757812 20.5625 9.027344 C 20.441406 9.292969 20.25 9.527344 20.054688 9.746094 C 19.664062 10.179688 19.183594 10.578125 18.667969 10.980469 C 18.152344 11.382812 17.601562 11.75 17.199219 12.09375 C 16.800781 12.4375 16.574219 12.792969 16.570312 12.8125 C 16.5625 12.832031 16.527344 13.273438 16.644531 13.777344 C 16.761719 14.285156 16.953125 14.894531 17.128906 15.511719 C 17.304688 16.128906 17.476562 16.75 17.53125 17.324219 C 17.558594 17.609375 17.589844 17.882812 17.523438 18.167969 C 17.457031 18.453125 17.269531 18.761719 16.976562 18.96875 C 16.679688 19.175781 16.355469 19.226562 16.054688 19.203125 C 15.753906 19.179688 15.457031 19.105469 15.183594 18.996094 C 14.632812 18.773438 14.078125 18.40625 13.523438 18.054688 C 12.96875 17.707031 12.414062 17.339844 11.949219 17.078125 C 11.484375 16.816406 11.058594 16.710938 11.035156 16.710938 C 11.011719 16.710938 10.617188 16.839844 10.15625 17.105469 C 9.695312 17.367188 9.160156 17.742188 8.605469 18.097656 C 8.050781 18.449219 7.480469 18.78125 6.929688 19.007812 C 6.65625 19.121094 6.394531 19.214844 6.09375 19.242188 C 5.792969 19.269531 5.4375 19.199219 5.140625 18.996094 C 4.84375 18.789062 4.671875 18.511719 4.605469 18.226562 C 4.535156 17.941406 4.546875 17.628906 4.570312 17.339844 C 4.621094 16.769531 4.789062 16.152344 4.960938 15.535156 C 5.132812 14.917969 5.320312 14.316406 5.433594 13.808594 C 5.546875 13.304688 5.53125 12.863281 5.527344 12.84375 C 5.519531 12.824219 5.269531 12.496094 4.863281 12.15625 C 4.460938 11.8125 3.933594 11.417969 3.414062 11.019531 C 2.898438 10.621094 2.359375 10.234375 1.96875 9.800781 C 1.769531 9.585938 1.636719 9.339844 1.515625 9.074219 C 1.398438 8.804688 1.328125 8.484375 1.441406 8.148438 C 1.550781 7.8125 1.8125 7.578125 2.070312 7.429688 C 2.332031 7.277344 2.574219 7.179688 2.867188 7.113281 C 3.445312 6.984375 4.121094 6.921875 4.785156 6.886719 C 5.449219 6.855469 6.085938 6.835938 6.621094 6.78125 C 7.152344 6.730469 7.605469 6.601562 7.621094 6.589844 C 7.640625 6.578125 7.875 6.265625 8.085938 5.789062 C 8.300781 5.3125 8.535156 4.703125 8.769531 4.105469 C 9 3.503906 9.230469 2.917969 9.53125 2.421875 C 9.683594 2.175781 9.855469 1.9375 10.082031 1.742188 C 10.308594 1.550781 10.632812 1.390625 11 1.386719 Z M 10.988281 2.757812 C 10.929688 2.804688 10.839844 2.941406 10.734375 3.117188 C 10.523438 3.460938 10.28125 3.976562 10.054688 4.558594 C 9.832031 5.136719 9.617188 5.777344 9.375 6.320312 C 9.128906 6.867188 8.941406 7.332031 8.445312 7.679688 C 7.949219 8.03125 7.386719 8.089844 6.773438 8.152344 C 6.160156 8.210938 5.496094 8.222656 4.855469 8.253906 C 4.214844 8.289062 3.59375 8.351562 3.1875 8.445312 C 2.984375 8.488281 2.835938 8.523438 2.769531 8.5625 C 2.800781 8.628906 2.878906 8.773438 3.015625 8.925781 C 3.292969 9.226562 3.753906 9.59375 4.257812 9.980469 C 4.757812 10.363281 5.328125 10.765625 5.789062 11.160156 C 6.25 11.550781 6.667969 11.890625 6.863281 12.453125 C 7.054688 13.015625 6.9375 13.523438 6.804688 14.101562 C 6.675781 14.683594 6.457031 15.308594 6.289062 15.90625 C 6.125 16.503906 5.976562 17.070312 5.941406 17.472656 C 5.925781 17.65625 5.964844 17.796875 5.980469 17.875 C 6.0625 17.863281 6.222656 17.832031 6.398438 17.757812 C 6.78125 17.597656 7.289062 17.308594 7.824219 16.964844 C 8.359375 16.625 8.929688 16.234375 9.457031 15.933594 C 9.984375 15.628906 10.429688 15.386719 11.046875 15.382812 C 11.660156 15.378906 12.132812 15.621094 12.667969 15.917969 C 13.199219 16.214844 13.746094 16.597656 14.28125 16.9375 C 14.820312 17.273438 15.351562 17.554688 15.734375 17.710938 C 15.925781 17.789062 16.074219 17.828125 16.148438 17.835938 C 16.164062 17.757812 16.171875 17.617188 16.152344 17.433594 C 16.117188 17.035156 15.964844 16.460938 15.792969 15.863281 C 15.621094 15.265625 15.441406 14.628906 15.308594 14.050781 C 15.171875 13.46875 15.050781 12.964844 15.238281 12.402344 C 15.425781 11.835938 15.832031 11.519531 16.292969 11.121094 C 16.75 10.726562 17.261719 10.316406 17.761719 9.929688 C 18.257812 9.539062 18.746094 9.15625 19.019531 8.851562 C 19.15625 8.699219 19.242188 8.5625 19.273438 8.492188 C 19.207031 8.453125 19.0625 8.414062 18.859375 8.367188 C 18.449219 8.28125 17.832031 8.222656 17.191406 8.195312 C 16.550781 8.167969 15.886719 8.152344 15.277344 8.097656 C 14.664062 8.042969 14.113281 8.03125 13.613281 7.683594 C 13.113281 7.335938 12.871094 6.851562 12.625 6.308594 C 12.375 5.765625 12.160156 5.152344 11.929688 4.574219 C 11.703125 3.996094 11.492188 3.425781 11.277344 3.078125 C 11.167969 2.90625 11.046875 2.804688 10.988281 2.757812 Z M 10.988281 2.757812 "/>
<path style=" stroke:none;fill-rule:nonzero;fill:rgb(100%,100%,100%);fill-opacity:1;" d="M 11 2.0625 C 12.273438 2.058594 12.972656 6.371094 14.007812 7.089844 C 15.042969 7.808594 19.539062 7.125 19.9375 8.292969 C 20.335938 9.460938 16.289062 11.417969 15.898438 12.589844 C 15.507812 13.761719 17.613281 17.664062 16.585938 18.390625 C 15.558594 19.117188 12.316406 16.023438 11.042969 16.027344 C 11.03125 16.027344 11.011719 16.027344 11 16.027344 L 11 2.058594 Z M 11 2.0625 "/>
</g>
</svg>
