<?xml version="1.0" encoding="UTF-8"?>
<svg xmlns="http://www.w3.org/2000/svg" xmlns:xlink="http://www.w3.org/1999/xlink" width="22" height="22" viewBox="0 0 22 22" version="1.1">
<g id="surface1">
<path style=" stroke:none;fill-rule:evenodd;fill:rgb(100%,100%,100%);fill-opacity:1;" d="M 11 0.0820312 L 7.90625 4.765625 L 3.179688 3.175781 L 4.769531 7.902344 L 0.0859375 10.996094 L 4.769531 14.089844 L 3.179688 18.816406 L 7.90625 17.226562 L 11 21.910156 L 14.09375 17.226562 L 18.820312 18.816406 L 17.230469 14.089844 L 21.914062 10.996094 L 17.230469 7.902344 L 18.820312 3.175781 L 14.09375 4.765625 Z M 11 6.3125 L 11.988281 7.257812 L 14.738281 10.007812 C 15.046875 10.320312 15.195312 10.78125 15.125 11.210938 L 15.125 12.371094 L 13.921875 12.371094 C 13.503906 12.425781 13.0625 12.28125 12.761719 11.984375 L 12.375 11.597656 L 12.375 15.121094 L 9.625 15.121094 L 9.625 11.597656 L 9.238281 11.984375 C 8.976562 12.234375 8.613281 12.378906 8.25 12.371094 L 6.875 12.371094 L 6.875 11.296875 C 6.875 11.253906 6.875 11.210938 6.875 11.167969 C 6.820312 10.75 6.964844 10.308594 7.261719 10.007812 L 10.011719 7.257812 Z M 11 6.3125 "/>
</g>
</svg>
