<?xml version="1.0" encoding="UTF-8"?>
<svg xmlns="http://www.w3.org/2000/svg" xmlns:xlink="http://www.w3.org/1999/xlink" width="22" height="22" viewBox="0 0 22 22" version="1.1">
<g id="surface1">
<path style=" stroke:none;fill-rule:evenodd;fill:rgb(96.078431%,47.45098%,0%);fill-opacity:1;" d="M 11 0.0820312 L 7.886719 4.773438 L 3.195312 3.195312 L 4.773438 7.890625 L 0.078125 11.003906 L 4.773438 14.117188 L 3.195312 18.808594 L 7.886719 17.230469 L 11 21.921875 L 14.113281 17.230469 L 18.804688 18.808594 L 17.226562 14.117188 L 21.921875 11.003906 L 17.226562 7.890625 L 18.804688 3.195312 L 14.113281 4.773438 Z M 9.636719 5.628906 L 12.363281 5.628906 L 12.363281 12.410156 L 9.636719 12.410156 Z M 11.042969 13.390625 C 12.007812 13.390625 12.792969 14.175781 12.792969 15.140625 C 12.792969 16.105469 12.007812 16.890625 11.042969 16.890625 C 10.078125 16.890625 9.292969 16.105469 9.292969 15.140625 C 9.292969 14.175781 10.078125 13.390625 11.042969 13.390625 Z M 11.042969 13.390625 "/>
</g>
</svg>
