<?xml version="1.0" encoding="UTF-8"?>
<svg xmlns="http://www.w3.org/2000/svg" xmlns:xlink="http://www.w3.org/1999/xlink" width="22" height="22" viewBox="0 0 22 22" version="1.1">
<g id="surface1">
<path style=" stroke:none;fill-rule:nonzero;fill:rgb(100%,100%,100%);fill-opacity:1;" d="M 16.894531 19.3125 C 15.78125 20.117188 12.328125 16.605469 10.953125 16.597656 C 9.574219 16.59375 6.09375 20.074219 4.980469 19.261719 C 3.871094 18.449219 6.144531 14.082031 5.722656 12.769531 C 5.304688 11.460938 0.917969 9.222656 1.347656 7.917969 C 1.777344 6.609375 6.632812 7.421875 7.75 6.617188 C 8.867188 5.8125 9.640625 0.949219 11.015625 0.953125 C 12.390625 0.957031 13.121094 5.828125 14.230469 6.640625 C 15.339844 7.453125 20.203125 6.6875 20.625 7.996094 C 21.042969 9.304688 16.636719 11.503906 16.207031 12.8125 C 15.777344 14.117188 18.011719 18.507812 16.894531 19.3125 Z M 16.894531 19.3125 "/>
</g>
</svg>
