<?xml version="1.0" encoding="UTF-8"?>
<svg xmlns="http://www.w3.org/2000/svg" xmlns:xlink="http://www.w3.org/1999/xlink" width="22" height="22" viewBox="0 0 22 22" version="1.1">
<g id="surface1">
<path style=" stroke:none;fill-rule:nonzero;fill:rgb(74.509804%,74.509804%,74.509804%);fill-opacity:1;" d="M 3.398438 1.375 C 3.398438 1.375 1.335938 1.375 1.335938 3.4375 L 1.335938 19.894531 C 1.335938 19.894531 1.335938 22 3.398438 22 L 13.710938 22 L 13.710938 19.25 L 4.085938 19.25 L 4.085938 4.125 L 5.460938 4.125 L 5.460938 1.375 Z M 15.085938 1.375 L 15.085938 4.125 L 16.460938 4.125 L 16.460938 13.75 L 19.210938 13.75 L 19.210938 3.4375 C 19.210938 1.375 17.148438 1.375 17.148438 1.375 Z M 15.085938 1.375 "/>
<path style=" stroke:none;fill-rule:nonzero;fill:rgb(74.509804%,74.509804%,74.509804%);fill-opacity:1;" d="M 7.5625 0 L 13.019531 0 C 13.398438 0 13.707031 0.308594 13.707031 0.6875 L 13.707031 4.8125 C 13.707031 5.191406 13.398438 5.5 13.019531 5.5 L 7.5625 5.5 C 7.183594 5.5 6.875 5.191406 6.875 4.8125 L 6.875 0.6875 C 6.875 0.308594 7.183594 0 7.5625 0 Z M 7.5625 0 "/>
<path style=" stroke:none;fill-rule:nonzero;fill:rgb(74.509804%,74.509804%,74.509804%);fill-opacity:1;" d="M 15.085938 15.125 L 16.976562 15.125 L 18.523438 16.628906 L 20.019531 15.128906 L 21.960938 15.128906 L 21.960938 17.148438 L 20.453125 18.609375 L 21.953125 20.070312 L 21.953125 22.007812 L 19.972656 22.007812 L 18.515625 20.550781 L 17.058594 22.007812 L 15.078125 22.007812 L 15.078125 20.074219 L 16.539062 18.613281 L 15.082031 17.15625 L 15.082031 15.132812 Z M 15.085938 15.125 "/>
<path style=" stroke:none;fill-rule:nonzero;fill:rgb(100%,100%,100%);fill-opacity:1;" d="M 7.207031 5.355469 C 6.929688 5.167969 6.890625 4.835938 6.890625 2.675781 L 6.890625 0.476562 L 7.347656 0.0195312 L 13.238281 0.0195312 L 13.695312 0.476562 L 13.695312 2.675781 C 13.695312 4.835938 13.65625 5.167969 13.378906 5.355469 C 13.320312 5.390625 11.933594 5.421875 10.292969 5.421875 C 8.652344 5.421875 7.261719 5.390625 7.207031 5.355469 Z M 7.207031 5.355469 "/>
<path style=" stroke:none;fill-rule:nonzero;fill:rgb(100%,100%,100%);fill-opacity:1;" d="M 16.492188 8.921875 L 16.492188 4.121094 L 15.09375 4.121094 L 15.09375 1.417969 L 16.292969 1.417969 C 17.628906 1.417969 18.128906 1.535156 18.570312 1.957031 C 19.171875 2.527344 19.144531 2.230469 19.175781 8.246094 L 19.199219 13.722656 L 16.492188 13.722656 Z M 16.492188 8.921875 "/>
<path style=" stroke:none;fill-rule:nonzero;fill:rgb(100%,100%,100%);fill-opacity:1;" d="M 2.371094 21.710938 C 1.953125 21.476562 1.621094 21.039062 1.484375 20.539062 C 1.425781 20.324219 1.390625 17.046875 1.390625 11.523438 L 1.390625 2.84375 L 1.605469 2.433594 C 1.75 2.164062 1.976562 1.925781 2.273438 1.742188 C 2.710938 1.472656 2.765625 1.460938 4.0625 1.429688 L 5.398438 1.398438 L 5.398438 4.121094 L 4.09375 4.121094 L 4.09375 19.316406 L 13.695312 19.316406 L 13.695312 21.925781 L 8.21875 21.921875 L 2.742188 21.921875 Z M 2.371094 21.710938 "/>
<path style=" stroke:none;fill-rule:nonzero;fill:rgb(100%,0%,0%);fill-opacity:1;" d="M 15.09375 21.0625 L 15.09375 20.101562 L 15.839844 19.363281 L 16.585938 18.621094 L 15.09375 17.121094 L 15.09375 15.121094 L 16.007812 15.121094 C 16.910156 15.121094 16.925781 15.125 17.195312 15.410156 C 17.347656 15.566406 17.714844 15.910156 18.011719 16.167969 L 18.554688 16.640625 L 19.320312 15.882812 L 20.082031 15.121094 L 21.898438 15.121094 L 21.898438 17.121094 L 20.398438 18.628906 L 21.148438 19.347656 L 21.898438 20.0625 L 21.898438 22.019531 L 20.011719 22.019531 L 19.25 21.273438 L 18.488281 20.53125 L 17.746094 21.273438 L 17.007812 22.019531 L 15.09375 22.019531 Z M 15.09375 21.0625 "/>
</g>
</svg>
