<?xml version="1.0" encoding="UTF-8"?>
<svg xmlns="http://www.w3.org/2000/svg" xmlns:xlink="http://www.w3.org/1999/xlink" width="22" height="22" viewBox="0 0 22 22" version="1.1">
<g id="surface1">
<path style=" stroke:none;fill-rule:nonzero;fill:rgb(74.509804%,74.509804%,74.509804%);fill-opacity:1;" d="M 1.335938 3.4375 L 1.335938 19.894531 C 1.335938 22 3.398438 22 3.398438 22 L 9.585938 22 L 9.585938 19.25 L 4.085938 19.25 L 4.085938 4.125 L 5.460938 4.125 L 5.460938 1.375 L 3.398438 1.375 C 3.398438 1.375 1.335938 1.375 1.335938 3.4375 Z M 15.085938 1.375 L 15.085938 4.125 L 16.5 4.125 L 16.5 9.667969 L 19.210938 9.625 L 19.210938 3.4375 C 19.210938 1.375 17.148438 1.375 17.148438 1.375 Z M 5.546875 6.917969 L 5.546875 16.5 L 9.585938 16.5 L 9.585938 12.371094 C 9.585938 12.371094 9.585938 9.625 12.335938 9.625 L 15.085938 9.625 L 15.085938 6.875 Z M 5.546875 6.917969 "/>
<path style=" stroke:none;fill-rule:nonzero;fill:rgb(74.509804%,74.509804%,74.509804%);fill-opacity:1;" d="M 7.5625 0 L 13.019531 0 C 13.398438 0 13.707031 0.308594 13.707031 0.6875 L 13.707031 4.8125 C 13.707031 5.191406 13.398438 5.5 13.019531 5.5 L 7.5625 5.5 C 7.183594 5.5 6.875 5.191406 6.875 4.8125 L 6.875 0.6875 C 6.875 0.308594 7.183594 0 7.5625 0 Z M 7.5625 0 "/>
<path style=" stroke:none;fill-rule:nonzero;fill:rgb(96.078431%,47.45098%,0%);fill-opacity:1;" d="M 12.335938 11 C 10.960938 11 10.960938 12.375 10.960938 12.375 L 10.960938 20.625 C 10.960938 20.625 10.960938 22 12.335938 22 L 20.585938 22 C 21.960938 22 21.960938 20.625 21.960938 20.625 L 21.960938 12.375 C 21.960938 11 20.585938 11 20.585938 11 Z M 15.085938 12.375 L 17.875 12.375 L 17.875 17.875 L 15.085938 17.875 Z M 15.085938 19.25 L 17.875 19.25 L 17.835938 20.625 L 15.085938 20.625 Z M 15.085938 19.25 "/>
<path style=" stroke:none;fill-rule:nonzero;fill:rgb(100%,100%,100%);fill-opacity:1;" d="M 7.121094 5.277344 C 6.886719 5.042969 6.867188 4.835938 6.898438 2.546875 C 6.925781 0.390625 6.929688 0.375 7.144531 0.195312 C 7.351562 0.03125 7.550781 0.0195312 10.296875 0.0195312 L 13.226562 0.0195312 L 13.457031 0.246094 L 13.683594 0.476562 L 13.683594 2.765625 C 13.683594 4.929688 13.675781 5.0625 13.5 5.238281 C 13.320312 5.417969 13.1875 5.425781 10.289062 5.425781 C 7.667969 5.425781 7.246094 5.40625 7.121094 5.277344 Z M 7.121094 5.277344 "/>
<path style=" stroke:none;fill-rule:nonzero;fill:rgb(100%,100%,100%);fill-opacity:1;" d="M 5.574219 11.671875 L 5.574219 6.917969 L 15.082031 6.917969 L 15.082031 9.605469 L 13.242188 9.636719 C 11.136719 9.671875 10.941406 9.726562 10.261719 10.496094 C 9.648438 11.195312 9.582031 11.546875 9.582031 14.152344 L 9.582031 16.425781 L 5.574219 16.425781 Z M 5.574219 11.671875 "/>
<path style=" stroke:none;fill-rule:nonzero;fill:rgb(100%,100%,100%);fill-opacity:1;" d="M 2.597656 21.804688 C 2.152344 21.664062 1.597656 21.082031 1.476562 20.632812 C 1.410156 20.378906 1.382812 17.5 1.402344 11.515625 C 1.425781 2.847656 1.429688 2.765625 1.621094 2.394531 C 1.742188 2.164062 1.984375 1.917969 2.265625 1.742188 C 2.703125 1.472656 2.753906 1.460938 4.050781 1.429688 L 5.386719 1.398438 L 5.386719 4.121094 L 4.082031 4.121094 L 4.082031 19.316406 L 9.582031 19.316406 L 9.582031 21.925781 L 6.25 21.914062 C 4.109375 21.910156 2.800781 21.871094 2.597656 21.804688 Z M 2.597656 21.804688 "/>
<path style=" stroke:none;fill-rule:nonzero;fill:rgb(100%,100%,100%);fill-opacity:1;" d="M 16.574219 6.871094 L 16.574219 4.121094 L 15.082031 4.121094 L 15.082031 1.417969 L 16.277344 1.417969 C 17.714844 1.417969 18.1875 1.546875 18.660156 2.070312 C 18.839844 2.269531 19.03125 2.589844 19.085938 2.785156 C 19.144531 3.003906 19.183594 4.386719 19.183594 6.382812 L 19.183594 9.621094 L 16.574219 9.621094 Z M 16.574219 6.871094 "/>
</g>
</svg>
