<?xml version="1.0" encoding="UTF-8"?>
<svg xmlns="http://www.w3.org/2000/svg" xmlns:xlink="http://www.w3.org/1999/xlink" width="22" height="22" viewBox="0 0 22 22" version="1.1">
<g id="surface1">
<path style=" stroke:none;fill-rule:nonzero;fill:rgb(100%,100%,100%);fill-opacity:1;" d="M 9.296875 1.847656 C 8.941406 1.847656 8.664062 2.035156 8.492188 2.261719 C 8.324219 2.488281 8.25 2.753906 8.25 2.992188 L 8.25 4.582031 L 5.613281 4.582031 C 4.792969 4.582031 4.125 5.25 4.125 6.074219 L 4.125 18.21875 C 4.125 19.039062 4.792969 19.707031 5.613281 19.707031 L 16.84375 19.707031 C 17.664062 19.707031 18.332031 19.039062 18.332031 18.21875 L 18.332031 6.074219 C 18.332031 5.25 17.664062 4.582031 16.84375 4.582031 L 14.207031 4.582031 L 14.207031 3.007812 C 14.207031 2.753906 14.117188 2.492188 13.949219 2.277344 C 13.78125 2.0625 13.519531 1.890625 13.207031 1.890625 Z M 9.296875 2.304688 L 13.207031 2.347656 C 13.351562 2.347656 13.488281 2.429688 13.59375 2.5625 C 13.699219 2.699219 13.75 2.882812 13.75 3.007812 L 13.75 4.839844 L 13.835938 4.898438 L 13.921875 4.96875 C 13.925781 4.976562 13.929688 4.980469 13.9375 4.984375 L 15.054688 5.871094 C 15.046875 5.9375 15.050781 6.023438 15.011719 6.160156 C 14.984375 6.25 14.945312 6.332031 14.910156 6.375 C 14.875 6.414062 14.875 6.417969 14.839844 6.417969 L 7.675781 6.417969 C 7.671875 6.417969 7.667969 6.417969 7.664062 6.417969 C 7.648438 6.414062 7.644531 6.40625 7.621094 6.375 C 7.589844 6.332031 7.566406 6.257812 7.546875 6.171875 C 7.519531 6.039062 7.519531 5.960938 7.519531 5.902344 L 8.320312 5.214844 L 8.59375 4.984375 C 8.597656 4.980469 8.589844 4.972656 8.59375 4.96875 L 8.621094 4.957031 L 8.707031 4.882812 L 8.707031 2.992188 C 8.707031 2.863281 8.761719 2.671875 8.867188 2.535156 C 8.96875 2.398438 9.09375 2.304688 9.296875 2.304688 Z M 6.386719 5.957031 L 7.0625 5.957031 C 7.070312 6.042969 7.078125 6.15625 7.105469 6.273438 C 7.128906 6.394531 7.164062 6.511719 7.246094 6.632812 C 7.328125 6.75 7.46875 6.867188 7.648438 6.875 L 14.824219 6.875 C 15.011719 6.882812 15.171875 6.777344 15.269531 6.660156 C 15.363281 6.542969 15.417969 6.414062 15.453125 6.289062 C 15.488281 6.164062 15.503906 6.050781 15.511719 5.957031 L 16.070312 5.957031 C 16.308594 5.957031 16.5 6.148438 16.5 6.386719 L 16.5 15.699219 C 15.875 15.863281 15.484375 16.070312 14.679688 15.855469 C 14.605469 15.835938 14.523438 15.859375 14.464844 15.914062 C 14.410156 15.964844 14.382812 16.035156 14.394531 16.113281 L 14.710938 17.875 L 6.386719 17.875 C 6.148438 17.875 5.957031 17.683594 5.957031 17.445312 L 5.957031 6.386719 C 5.957031 6.148438 6.148438 5.957031 6.386719 5.957031 Z M 11.230469 9.394531 C 10.886719 9.394531 10.542969 9.625 10.542969 10.082031 L 10.542969 13.292969 L 11.917969 13.292969 L 11.917969 10.082031 C 11.917969 9.625 11.574219 9.394531 11.230469 9.394531 Z M 11.230469 13.722656 C 10.824219 13.722656 10.546875 14.007812 10.542969 14.421875 C 10.542969 14.820312 10.8125 15.125 11.230469 15.125 C 11.636719 15.125 11.917969 14.820312 11.917969 14.421875 C 11.917969 14.007812 11.636719 13.722656 11.230469 13.722656 Z M 16.140625 16.269531 C 15.988281 16.464844 15.894531 16.574219 15.683594 16.84375 L 15.109375 17.558594 L 14.882812 16.300781 C 15.367188 16.367188 15.785156 16.367188 16.140625 16.269531 Z M 16.140625 16.269531 "/>
</g>
</svg>
