<?xml version="1.0" encoding="UTF-8"?>
<svg xmlns="http://www.w3.org/2000/svg" xmlns:xlink="http://www.w3.org/1999/xlink" width="22" height="22" viewBox="0 0 22 22" version="1.1">
<g id="surface1">
<path style=" stroke:none;fill-rule:nonzero;fill:rgb(100%,100%,100%);fill-opacity:1;" d="M 17.875 20.625 L 17.875 14.4375 L 13.0625 14.4375 Z M 17.875 20.625 "/>
<path style=" stroke:none;fill-rule:nonzero;fill:rgb(100%,100%,100%);fill-opacity:1;" d="M 4.8125 1.375 C 2.910156 1.375 1.375 2.910156 1.375 4.8125 L 1.375 11.6875 C 1.375 13.589844 2.910156 15.125 4.8125 15.125 L 17.1875 15.125 C 19.089844 15.125 20.625 13.589844 20.625 11.6875 L 20.625 4.8125 C 20.625 2.910156 19.089844 1.375 17.1875 1.375 Z M 11 4.125 L 12.375 4.125 C 12.753906 4.125 13.113281 4.261719 13.363281 4.511719 L 16.113281 7.261719 L 17.058594 8.25 L 16.113281 9.238281 L 13.363281 11.988281 C 13.117188 12.234375 12.757812 12.371094 12.371094 12.371094 L 10.996094 12.371094 L 10.996094 10.996094 C 10.996094 10.617188 11.136719 10.257812 11.382812 10.007812 L 11.769531 9.625 L 5.496094 9.625 L 5.496094 6.875 L 11.769531 6.875 L 11.382812 6.488281 C 11.136719 6.242188 10.996094 5.882812 10.996094 5.496094 L 10.996094 4.121094 Z M 11 4.125 "/>
</g>
</svg>
