<?xml version="1.0" encoding="UTF-8"?>
<svg xmlns="http://www.w3.org/2000/svg" xmlns:xlink="http://www.w3.org/1999/xlink" width="22" height="22" viewBox="0 0 22 22" version="1.1">
<g id="surface1">
<path style=" stroke:none;fill-rule:nonzero;fill:rgb(100%,100%,100%);fill-opacity:1;" d="M 5.5 2.75 L 5.5 1.417969 L 15.125 1.417969 L 15.125 2.75 Z M 4.769531 0.0429688 C 4.09375 0.0429688 3.675781 0.355469 3.351562 0.6875 C 3.027344 1.019531 2.75 1.457031 2.75 2.105469 L 2.75 2.75 L 0 2.75 L 0 5.5 L 20.625 5.5 L 20.625 2.75 L 17.875 2.75 L 17.875 2.234375 C 17.84375 1.640625 17.640625 1.199219 17.316406 0.816406 C 17.007812 0.453125 16.453125 0.0898438 15.726562 0.0859375 L 15.726562 0.0429688 Z M 16.496094 6.875 L 19.246094 6.875 C 21.550781 10.902344 20.8125 14.925781 19.246094 18.949219 C 18.65625 20.492188 17.902344 22.003906 16.238281 22.003906 L 4.378906 22.003906 C 2.71875 22.003906 1.933594 20.503906 1.371094 18.953125 C -0.0625 15.015625 -0.828125 11.039062 1.371094 6.878906 L 4.121094 6.878906 C 1.753906 10.929688 2.765625 15.085938 4.121094 19.253906 L 16.496094 19.253906 C 18 15.082031 18.738281 10.9375 16.496094 6.878906 Z M 9.664062 6.855469 L 9.664062 17.875 L 10.996094 17.875 L 10.996094 6.855469 Z M 12.371094 6.855469 C 14.796875 9.910156 13.515625 14.597656 12.371094 17.875 L 13.746094 17.875 C 14.882812 14.703125 16.277344 10.140625 13.746094 6.855469 Z M 6.914062 6.855469 C 4.417969 10.441406 5.738281 14.847656 6.914062 17.875 L 8.246094 17.875 C 7.058594 14.820312 5.960938 10.359375 8.246094 6.855469 Z M 6.914062 6.855469 "/>
</g>
</svg>
