<?xml version="1.0" encoding="UTF-8"?>
<svg xmlns="http://www.w3.org/2000/svg" xmlns:xlink="http://www.w3.org/1999/xlink" width="22" height="22" viewBox="0 0 22 22" version="1.1">
<g id="surface1">
<path style=" stroke:none;fill-rule:nonzero;fill:rgb(100%,100%,100%);fill-opacity:1;" d="M 2.445312 6.875 C 1.933594 6.96875 1.519531 7.34375 1.371094 7.84375 C 1.226562 8.34375 1.378906 8.882812 1.757812 9.238281 L 4.507812 11.988281 L 5.496094 12.933594 L 6.484375 11.988281 L 9.234375 9.238281 C 9.59375 8.886719 9.734375 8.371094 9.609375 7.882812 C 9.480469 7.398438 9.101562 7.019531 8.613281 6.890625 C 8.128906 6.761719 7.613281 6.902344 7.257812 7.261719 L 5.5 9.023438 L 3.742188 7.261719 C 3.40625 6.917969 2.914062 6.769531 2.445312 6.878906 Z M 2.445312 6.875 "/>
<path style=" stroke:none;fill-rule:nonzero;fill:rgb(100%,100%,100%);fill-opacity:1;" d="M 8.25 1.375 C 5.988281 1.375 4.125 3.238281 4.125 5.5 L 4.125 11 L 6.875 11 L 6.875 5.5 C 6.875 4.714844 7.464844 4.125 8.25 4.125 L 13.75 4.125 C 14.535156 4.125 15.125 4.714844 15.125 5.5 L 15.125 16.5 C 15.125 17.285156 14.535156 17.875 13.75 17.875 L 8.25 17.875 L 8.25 20.625 L 13.75 20.625 C 16.011719 20.625 17.875 18.761719 17.875 16.5 L 17.875 5.5 C 17.875 3.238281 16.011719 1.375 13.75 1.375 Z M 8.25 1.375 "/>
<path style=" stroke:none;fill-rule:nonzero;fill:rgb(100%,100%,100%);fill-opacity:1;" d="M 9.625 8.25 L 9.625 6.875 L 8.25 6.875 L 8.25 8.25 Z M 9.625 8.25 "/>
<path style=" stroke:none;fill-rule:nonzero;fill:rgb(100%,100%,100%);fill-opacity:1;" d="M 2.75 8.25 L 2.75 6.875 L 1.375 6.875 L 1.375 8.25 Z M 2.75 8.25 "/>
</g>
</svg>
