<?xml version="1.0" encoding="UTF-8"?>
<svg xmlns="http://www.w3.org/2000/svg" xmlns:xlink="http://www.w3.org/1999/xlink" width="22" height="22" viewBox="0 0 22 22" version="1.1">
<g id="surface1">
<path style=" stroke:none;fill-rule:nonzero;fill:rgb(74.509804%,74.509804%,74.509804%);fill-opacity:1;" d="M 13.445312 6.875 C 12.933594 6.96875 12.519531 7.34375 12.371094 7.84375 C 12.226562 8.34375 12.378906 8.882812 12.757812 9.238281 L 15.507812 11.988281 L 16.496094 12.933594 L 17.484375 11.988281 L 20.234375 9.238281 C 20.59375 8.886719 20.734375 8.371094 20.609375 7.882812 C 20.480469 7.398438 20.101562 7.019531 19.613281 6.890625 C 19.128906 6.761719 18.613281 6.902344 18.257812 7.261719 L 16.5 9.023438 L 14.742188 7.261719 C 14.40625 6.917969 13.914062 6.769531 13.445312 6.878906 Z M 13.445312 6.875 "/>
<path style=" stroke:none;fill-rule:nonzero;fill:rgb(74.509804%,74.509804%,74.509804%);fill-opacity:1;" d="M 8.25 1.375 C 5.988281 1.375 4.125 3.238281 4.125 5.5 L 4.125 16.5 C 4.125 18.761719 5.988281 20.625 8.25 20.625 L 13.75 20.625 L 13.75 17.875 L 8.25 17.875 C 7.464844 17.875 6.875 17.285156 6.875 16.5 L 6.875 5.5 C 6.875 4.714844 7.464844 4.125 8.25 4.125 L 13.75 4.125 C 14.535156 4.125 15.125 4.714844 15.125 5.5 L 15.125 11 L 17.875 11 L 17.875 5.5 C 17.875 3.238281 16.011719 1.375 13.75 1.375 Z M 8.25 1.375 "/>
<path style=" stroke:none;fill-rule:nonzero;fill:rgb(74.509804%,74.509804%,74.509804%);fill-opacity:1;" d="M 12.375 8.25 L 12.375 6.875 L 13.75 6.875 L 13.75 8.25 Z M 12.375 8.25 "/>
<path style=" stroke:none;fill-rule:nonzero;fill:rgb(74.509804%,74.509804%,74.509804%);fill-opacity:1;" d="M 19.25 8.25 L 19.25 6.875 L 20.625 6.875 L 20.625 8.25 Z M 19.25 8.25 "/>
<path style=" stroke:none;fill-rule:nonzero;fill:rgb(100%,100%,100%);fill-opacity:1;" d="M 7.367188 20.480469 C 6.152344 20.214844 5.132812 19.386719 4.558594 18.195312 L 4.222656 17.496094 L 4.222656 4.539062 L 4.433594 4.027344 C 4.855469 2.992188 5.753906 2.09375 6.785156 1.671875 C 7.28125 1.472656 7.429688 1.464844 10.777344 1.4375 C 13.785156 1.410156 14.324219 1.425781 14.785156 1.558594 C 15.585938 1.792969 16.164062 2.144531 16.714844 2.738281 C 17.617188 3.710938 17.875 4.574219 17.878906 6.632812 L 17.878906 7.699219 L 18.230469 7.359375 C 18.636719 6.964844 19.035156 6.859375 19.953125 6.898438 L 20.582031 6.925781 L 20.582031 7.765625 C 20.582031 8.3125 20.535156 8.691406 20.449219 8.855469 C 20.375 8.996094 19.457031 9.964844 18.402344 11.011719 L 16.488281 12.917969 L 14.566406 11.011719 C 13.507812 9.964844 12.585938 8.996094 12.511719 8.855469 C 12.425781 8.691406 12.378906 8.308594 12.378906 7.761719 L 12.378906 6.917969 L 13.007812 6.902344 C 14.175781 6.875 14.347656 6.925781 14.917969 7.460938 L 15.175781 7.699219 L 15.175781 6.492188 C 15.171875 5.097656 15.027344 4.628906 14.503906 4.308594 C 14.207031 4.125 14.078125 4.117188 10.914062 4.140625 L 7.628906 4.167969 L 7.277344 4.519531 L 6.925781 4.867188 L 6.902344 10.910156 L 6.875 16.953125 L 7.089844 17.269531 C 7.507812 17.898438 7.617188 17.917969 10.816406 17.917969 L 13.683594 17.917969 L 13.683594 20.621094 L 10.816406 20.613281 C 8.777344 20.609375 7.785156 20.570312 7.367188 20.480469 Z M 7.367188 20.480469 "/>
</g>
</svg>
