<?xml version="1.0" encoding="UTF-8"?>
<svg xmlns="http://www.w3.org/2000/svg" xmlns:xlink="http://www.w3.org/1999/xlink" width="22" height="22" viewBox="0 0 22 22" version="1.1">
<g id="surface1">
<path style=" stroke:none;fill-rule:nonzero;fill:rgb(74.509804%,74.509804%,74.509804%);fill-opacity:1;" d="M 13.117188 0 C 11.363281 0 9.9375 1.339844 9.742188 3.050781 C 9.300781 2.886719 8.835938 2.75 8.339844 2.75 C 6.074219 2.75 4.238281 4.59375 4.238281 6.875 C 4.238281 7.007812 4.265625 7.128906 4.28125 7.261719 C 3.867188 7.011719 3.371094 6.875 2.863281 6.875 C 1.351562 6.875 0.128906 8.105469 0.128906 9.625 C 0.128906 11.144531 1.351562 12.375 2.863281 12.375 L 4.273438 12.375 C 4.046875 11.65625 4.226562 10.871094 4.742188 10.328125 C 5.257812 9.78125 6.027344 9.5625 6.753906 9.753906 C 6.765625 9.753906 6.78125 9.753906 6.792969 9.753906 C 7.269531 9.257812 7.957031 9.03125 8.632812 9.152344 C 8.910156 8.75 9.316406 8.460938 9.785156 8.335938 C 10.027344 7.464844 10.808594 6.855469 11.707031 6.832031 C 12.640625 6.816406 13.464844 7.433594 13.71875 8.335938 C 14.1875 8.460938 14.59375 8.75 14.871094 9.152344 C 15.566406 8.992188 16.292969 9.203125 16.792969 9.710938 C 17.519531 9.53125 18.289062 9.761719 18.796875 10.316406 C 19.304688 10.871094 19.46875 11.660156 19.230469 12.375 L 19.957031 12.375 C 21.089844 12.375 22.007812 11.453125 22.007812 10.3125 C 22.007812 9.171875 21.089844 8.25 19.957031 8.25 C 19.671875 8.25 19.390625 8.316406 19.144531 8.421875 C 19.214844 8.144531 19.273438 7.863281 19.273438 7.5625 C 19.273438 5.871094 18.050781 4.5 16.453125 4.210938 C 16.507812 3.960938 16.539062 3.703125 16.539062 3.4375 C 16.539062 1.539062 15.007812 0 13.117188 0 Z M 13.117188 0 "/>
<path style=" stroke:none;fill-rule:nonzero;fill:rgb(100%,100%,100%);fill-opacity:1;" d="M 11.605469 8.167969 C 11.242188 8.210938 10.976562 8.53125 11 8.898438 L 11 9.800781 L 10.613281 9.628906 C 10.269531 9.460938 9.855469 9.605469 9.6875 9.949219 C 9.523438 10.292969 9.667969 10.707031 10.011719 10.875 L 11.003906 11.339844 L 11.003906 13.832031 L 8.726562 12.414062 L 8.8125 11.210938 C 8.847656 10.832031 8.566406 10.496094 8.1875 10.460938 C 7.808594 10.425781 7.472656 10.703125 7.4375 11.082031 L 7.394531 11.640625 L 6.578125 11.125 C 6.371094 10.976562 6.097656 10.953125 5.871094 11.066406 C 5.640625 11.179688 5.492188 11.40625 5.484375 11.664062 C 5.476562 11.917969 5.613281 12.15625 5.832031 12.28125 L 6.734375 12.839844 L 6.304688 13.183594 C 5.996094 13.410156 5.929688 13.839844 6.15625 14.148438 C 6.382812 14.457031 6.8125 14.527344 7.121094 14.300781 L 8.023438 13.613281 L 10.34375 15.03125 L 7.980469 16.492188 L 7.078125 15.847656 C 6.894531 15.640625 6.605469 15.5625 6.339844 15.652344 C 6.078125 15.746094 5.898438 15.984375 5.878906 16.261719 C 5.863281 16.539062 6.011719 16.796875 6.261719 16.921875 L 6.734375 17.265625 L 5.789062 17.824219 C 5.457031 18.023438 5.351562 18.457031 5.554688 18.789062 C 5.753906 19.121094 6.1875 19.226562 6.519531 19.027344 L 7.378906 18.511719 L 7.421875 19.027344 C 7.4375 19.273438 7.582031 19.492188 7.804688 19.601562 C 8.023438 19.714844 8.289062 19.695312 8.492188 19.558594 C 8.699219 19.421875 8.816406 19.1875 8.796875 18.941406 L 8.710938 17.695312 L 10.988281 16.277344 L 10.988281 18.769531 L 10 19.210938 C 9.65625 19.375 9.511719 19.789062 9.675781 20.132812 C 9.84375 20.476562 10.257812 20.621094 10.601562 20.457031 L 10.988281 20.285156 L 10.988281 21.230469 C 10.984375 21.476562 11.113281 21.707031 11.328125 21.832031 C 11.542969 21.957031 11.808594 21.957031 12.023438 21.832031 C 12.234375 21.707031 12.367188 21.476562 12.363281 21.230469 L 12.363281 20.285156 L 12.75 20.457031 C 13.09375 20.621094 13.511719 20.476562 13.675781 20.132812 C 13.84375 19.785156 13.699219 19.371094 13.355469 19.203125 L 12.363281 18.738281 L 12.363281 16.246094 L 14.640625 17.621094 L 14.554688 18.910156 C 14.542969 19.289062 14.84375 19.605469 15.222656 19.617188 C 15.601562 19.628906 15.917969 19.332031 15.929688 18.953125 L 15.972656 18.4375 L 16.789062 18.953125 C 16.996094 19.105469 17.273438 19.128906 17.503906 19.015625 C 17.738281 18.902344 17.886719 18.667969 17.886719 18.40625 C 17.890625 18.148438 17.75 17.910156 17.519531 17.792969 L 16.574219 17.234375 L 17.046875 16.890625 C 17.273438 16.753906 17.402344 16.503906 17.382812 16.242188 C 17.363281 15.980469 17.199219 15.753906 16.953125 15.652344 C 16.710938 15.554688 16.433594 15.601562 16.238281 15.773438 L 15.335938 16.460938 L 13.015625 15.042969 L 15.335938 13.625 L 16.28125 14.269531 C 16.476562 14.457031 16.765625 14.511719 17.015625 14.410156 C 17.265625 14.304688 17.433594 14.0625 17.441406 13.792969 C 17.449219 13.523438 17.296875 13.273438 17.054688 13.152344 L 16.625 12.851562 L 17.570312 12.25 C 17.902344 12.050781 18.007812 11.617188 17.804688 11.285156 C 17.605469 10.953125 17.171875 10.847656 16.839844 11.046875 L 15.980469 11.5625 L 15.9375 11.046875 C 15.921875 10.800781 15.777344 10.582031 15.554688 10.472656 C 15.335938 10.363281 15.070312 10.378906 14.867188 10.515625 C 14.660156 10.652344 14.546875 10.886719 14.5625 11.132812 L 14.648438 12.378906 L 12.371094 13.796875 L 12.371094 11.304688 L 13.359375 10.832031 C 13.605469 10.742188 13.777344 10.515625 13.804688 10.253906 C 13.828125 9.992188 13.703125 9.738281 13.480469 9.601562 C 13.261719 9.460938 12.976562 9.457031 12.753906 9.597656 L 12.367188 9.761719 L 12.367188 8.859375 C 12.382812 8.652344 12.304688 8.453125 12.152344 8.308594 C 12.003906 8.167969 11.800781 8.101562 11.59375 8.128906 Z M 11.605469 8.167969 "/>
</g>
</svg>
