<?xml version="1.0" encoding="UTF-8"?>
<svg xmlns="http://www.w3.org/2000/svg" xmlns:xlink="http://www.w3.org/1999/xlink" width="22" height="22" viewBox="0 0 22 22" version="1.1">
<g id="surface1">
<path style=" stroke:none;fill-rule:nonzero;fill:rgb(74.509804%,74.509804%,74.509804%);fill-opacity:1;" d="M 10.996094 4.113281 C 7.214844 4.113281 4.109375 7.214844 4.109375 10.996094 C 4.109375 14.777344 7.214844 17.878906 10.996094 17.878906 C 14.773438 17.878906 17.878906 14.773438 17.878906 10.996094 C 17.878906 7.214844 14.773438 4.113281 10.996094 4.113281 Z M 10.996094 4.113281 "/>
<path style=" stroke:none;fill-rule:nonzero;fill:rgb(74.509804%,74.509804%,74.509804%);fill-opacity:1;" d="M 0.773438 9.625 L 1.976562 9.625 C 2.402344 9.625 2.75 9.972656 2.75 10.398438 L 2.75 11.601562 C 2.75 12.027344 2.402344 12.375 1.976562 12.375 L 0.773438 12.375 C 0.347656 12.375 0 12.027344 0 11.601562 L 0 10.398438 C 0 9.972656 0.347656 9.625 0.773438 9.625 Z M 0.773438 9.625 "/>
<path style=" stroke:none;fill-rule:nonzero;fill:rgb(74.509804%,74.509804%,74.509804%);fill-opacity:1;" d="M 20.023438 9.625 L 21.226562 9.625 C 21.652344 9.625 22 9.972656 22 10.398438 L 22 11.601562 C 22 12.027344 21.652344 12.375 21.226562 12.375 L 20.023438 12.375 C 19.597656 12.375 19.25 12.027344 19.25 11.601562 L 19.25 10.398438 C 19.25 9.972656 19.597656 9.625 20.023438 9.625 Z M 20.023438 9.625 "/>
<path style=" stroke:none;fill-rule:nonzero;fill:rgb(74.509804%,74.509804%,74.509804%);fill-opacity:1;" d="M 12.375 0.773438 L 12.375 1.976562 C 12.375 2.402344 12.027344 2.75 11.601562 2.75 L 10.398438 2.75 C 9.972656 2.75 9.625 2.402344 9.625 1.976562 L 9.625 0.773438 C 9.625 0.347656 9.972656 0 10.398438 0 L 11.601562 0 C 12.027344 0 12.375 0.347656 12.375 0.773438 Z M 12.375 0.773438 "/>
<path style=" stroke:none;fill-rule:nonzero;fill:rgb(74.509804%,74.509804%,74.509804%);fill-opacity:1;" d="M 12.375 20.023438 L 12.375 21.226562 C 12.375 21.652344 12.027344 22 11.601562 22 L 10.398438 22 C 9.972656 22 9.625 21.652344 9.625 21.226562 L 9.625 20.023438 C 9.625 19.597656 9.972656 19.25 10.398438 19.25 L 11.601562 19.25 C 12.027344 19.25 12.375 19.597656 12.375 20.023438 Z M 12.375 20.023438 "/>
<path style=" stroke:none;fill-rule:nonzero;fill:rgb(74.509804%,74.509804%,74.509804%);fill-opacity:1;" d="M 19.203125 4.734375 L 18.355469 5.585938 C 18.050781 5.890625 17.5625 5.890625 17.261719 5.585938 L 16.410156 4.734375 C 16.105469 4.433594 16.105469 3.945312 16.410156 3.640625 L 17.261719 2.792969 C 17.5625 2.488281 18.050781 2.488281 18.355469 2.792969 L 19.203125 3.640625 C 19.507812 3.945312 19.507812 4.433594 19.203125 4.734375 Z M 19.203125 4.734375 "/>
<path style=" stroke:none;fill-rule:nonzero;fill:rgb(74.509804%,74.509804%,74.509804%);fill-opacity:1;" d="M 5.59375 18.347656 L 4.742188 19.199219 C 4.441406 19.5 3.949219 19.5 3.648438 19.199219 L 2.796875 18.347656 C 2.496094 18.046875 2.496094 17.554688 2.796875 17.253906 L 3.648438 16.402344 C 3.949219 16.101562 4.441406 16.101562 4.742188 16.402344 L 5.59375 17.253906 C 5.894531 17.554688 5.894531 18.046875 5.59375 18.347656 Z M 5.59375 18.347656 "/>
<path style=" stroke:none;fill-rule:nonzero;fill:rgb(74.509804%,74.509804%,74.509804%);fill-opacity:1;" d="M 4.734375 2.796875 L 5.585938 3.648438 C 5.890625 3.949219 5.890625 4.441406 5.585938 4.742188 L 4.734375 5.59375 C 4.433594 5.894531 3.945312 5.894531 3.640625 5.59375 L 2.792969 4.742188 C 2.488281 4.441406 2.488281 3.949219 2.792969 3.648438 L 3.640625 2.796875 C 3.945312 2.496094 4.433594 2.496094 4.734375 2.796875 Z M 4.734375 2.796875 "/>
<path style=" stroke:none;fill-rule:nonzero;fill:rgb(74.509804%,74.509804%,74.509804%);fill-opacity:1;" d="M 18.347656 16.410156 L 19.199219 17.261719 C 19.5 17.5625 19.5 18.050781 19.199219 18.355469 L 18.347656 19.203125 C 18.046875 19.507812 17.554688 19.507812 17.253906 19.203125 L 16.402344 18.355469 C 16.101562 18.050781 16.101562 17.5625 16.402344 17.261719 L 17.253906 16.410156 C 17.554688 16.109375 18.046875 16.109375 18.347656 16.410156 Z M 18.347656 16.410156 "/>
<path style=" stroke:none;fill-rule:nonzero;fill:rgb(100%,40%,0%);fill-opacity:1;" d="M 10.199219 2.710938 C 9.953125 2.644531 9.746094 2.441406 9.675781 2.203125 C 9.613281 1.996094 9.613281 0.753906 9.675781 0.546875 C 9.730469 0.359375 9.890625 0.175781 10.070312 0.0898438 C 10.210938 0.0273438 10.234375 0.0234375 11.007812 0.0234375 C 11.757812 0.0234375 11.804688 0.0273438 11.921875 0.0859375 C 12.070312 0.15625 12.21875 0.300781 12.289062 0.445312 C 12.335938 0.535156 12.34375 0.640625 12.351562 1.324219 C 12.359375 2.183594 12.347656 2.257812 12.1875 2.464844 C 12.136719 2.527344 12.027344 2.609375 11.9375 2.65625 L 11.773438 2.734375 L 11.050781 2.738281 C 10.539062 2.746094 10.289062 2.734375 10.199219 2.710938 Z M 10.199219 2.710938 "/>
<path style=" stroke:none;fill-rule:nonzero;fill:rgb(100%,40%,0%);fill-opacity:1;" d="M 17.648438 5.789062 C 17.453125 5.738281 17.332031 5.640625 16.820312 5.125 C 16.304688 4.605469 16.273438 4.570312 16.230469 4.410156 C 16.199219 4.300781 16.1875 4.199219 16.199219 4.117188 C 16.234375 3.859375 16.308594 3.75 16.820312 3.238281 C 17.371094 2.683594 17.523438 2.578125 17.789062 2.578125 C 18.097656 2.578125 18.167969 2.625 18.742188 3.191406 C 19.359375 3.800781 19.40625 3.875 19.40625 4.195312 C 19.40625 4.359375 19.390625 4.433594 19.34375 4.523438 C 19.261719 4.675781 18.242188 5.683594 18.113281 5.738281 C 17.984375 5.792969 17.757812 5.816406 17.648438 5.789062 Z M 17.648438 5.789062 "/>
<path style=" stroke:none;fill-rule:nonzero;fill:rgb(100%,40%,0%);fill-opacity:1;" d="M 19.769531 12.3125 C 19.589844 12.253906 19.417969 12.097656 19.328125 11.914062 C 19.269531 11.789062 19.265625 11.757812 19.265625 11.003906 L 19.265625 10.226562 L 19.347656 10.0625 C 19.390625 9.972656 19.472656 9.863281 19.53125 9.816406 C 19.726562 9.652344 19.816406 9.640625 20.675781 9.648438 C 21.539062 9.660156 21.558594 9.664062 21.765625 9.863281 C 21.96875 10.0625 21.972656 10.097656 21.976562 10.992188 C 21.976562 11.765625 21.972656 11.789062 21.910156 11.929688 C 21.871094 12.007812 21.785156 12.121094 21.71875 12.179688 C 21.519531 12.347656 21.410156 12.367188 20.617188 12.367188 C 20.015625 12.367188 19.898438 12.359375 19.769531 12.3125 Z M 19.769531 12.3125 "/>
<path style=" stroke:none;fill-rule:nonzero;fill:rgb(100%,40%,0%);fill-opacity:1;" d="M 17.644531 19.40625 C 17.578125 19.390625 17.496094 19.363281 17.457031 19.347656 C 17.34375 19.289062 16.328125 18.261719 16.265625 18.144531 C 16.183594 17.984375 16.167969 17.746094 16.230469 17.558594 C 16.273438 17.417969 16.335938 17.347656 16.835938 16.847656 C 17.335938 16.347656 17.410156 16.285156 17.542969 16.242188 C 17.730469 16.183594 17.96875 16.191406 18.128906 16.269531 C 18.199219 16.300781 18.453125 16.527344 18.75 16.820312 C 19.335938 17.398438 19.410156 17.511719 19.40625 17.816406 C 19.402344 17.921875 19.378906 18.050781 19.351562 18.113281 C 19.277344 18.285156 18.289062 19.273438 18.121094 19.34375 C 17.953125 19.414062 17.792969 19.433594 17.644531 19.40625 Z M 17.644531 19.40625 "/>
<path style=" stroke:none;fill-rule:nonzero;fill:rgb(100%,40%,0%);fill-opacity:1;" d="M 10.152344 21.949219 C 9.984375 21.886719 9.820312 21.746094 9.730469 21.589844 L 9.648438 21.433594 L 9.648438 19.816406 L 9.730469 19.664062 C 9.828125 19.492188 10.007812 19.339844 10.1875 19.292969 C 10.261719 19.269531 10.558594 19.261719 11.066406 19.269531 C 11.734375 19.277344 11.84375 19.285156 11.921875 19.328125 C 12.082031 19.414062 12.222656 19.554688 12.289062 19.703125 C 12.355469 19.839844 12.355469 19.867188 12.355469 20.625 C 12.355469 21.386719 12.355469 21.410156 12.289062 21.546875 C 12.253906 21.628906 12.167969 21.738281 12.101562 21.796875 C 11.894531 21.972656 11.816406 21.988281 10.980469 21.984375 C 10.492188 21.984375 10.210938 21.972656 10.152344 21.949219 Z M 10.152344 21.949219 "/>
<path style=" stroke:none;fill-rule:nonzero;fill:rgb(100%,40%,0%);fill-opacity:1;" d="M 3.941406 19.371094 C 3.785156 19.3125 3.632812 19.183594 3.171875 18.71875 C 2.644531 18.183594 2.597656 18.105469 2.597656 17.800781 C 2.597656 17.488281 2.640625 17.417969 3.226562 16.832031 C 3.800781 16.257812 3.886719 16.199219 4.167969 16.199219 C 4.488281 16.199219 4.515625 16.214844 5.117188 16.808594 C 5.734375 17.414062 5.800781 17.511719 5.800781 17.800781 C 5.800781 18.082031 5.742188 18.171875 5.167969 18.75 C 4.582031 19.339844 4.484375 19.40625 4.199219 19.402344 C 4.105469 19.402344 3.988281 19.386719 3.941406 19.371094 Z M 3.941406 19.371094 "/>
<path style=" stroke:none;fill-rule:nonzero;fill:rgb(100%,40%,0%);fill-opacity:1;" d="M 0.5625 12.335938 C 0.371094 12.28125 0.203125 12.136719 0.105469 11.945312 L 0.0078125 11.761719 L 0.0195312 10.964844 C 0.0273438 10.265625 0.03125 10.15625 0.078125 10.078125 C 0.164062 9.917969 0.304688 9.777344 0.453125 9.710938 C 0.589844 9.644531 0.617188 9.644531 1.375 9.644531 C 2.132812 9.644531 2.160156 9.644531 2.296875 9.710938 C 2.445312 9.777344 2.585938 9.917969 2.671875 10.078125 C 2.714844 10.15625 2.722656 10.265625 2.730469 10.933594 C 2.738281 11.441406 2.730469 11.738281 2.707031 11.8125 C 2.660156 11.992188 2.507812 12.171875 2.335938 12.269531 L 2.183594 12.351562 L 1.417969 12.359375 C 0.996094 12.363281 0.609375 12.351562 0.5625 12.335938 Z M 0.5625 12.335938 "/>
<path style=" stroke:none;fill-rule:nonzero;fill:rgb(100%,40%,0%);fill-opacity:1;" d="M 3.933594 5.761719 C 3.796875 5.710938 3.710938 5.636719 3.242188 5.171875 C 2.636719 4.566406 2.582031 4.484375 2.582031 4.195312 C 2.582031 3.902344 2.636719 3.824219 3.253906 3.210938 C 3.773438 2.695312 3.808594 2.664062 3.96875 2.621094 C 4.171875 2.5625 4.355469 2.578125 4.53125 2.664062 C 4.699219 2.75 5.601562 3.648438 5.707031 3.835938 C 5.773438 3.960938 5.789062 4.015625 5.789062 4.195312 C 5.789062 4.375 5.773438 4.429688 5.707031 4.554688 C 5.601562 4.742188 4.699219 5.640625 4.527344 5.726562 C 4.351562 5.816406 4.121094 5.828125 3.933594 5.761719 Z M 3.933594 5.761719 "/>
<path style=" stroke:none;fill-rule:nonzero;fill:rgb(100%,100%,0%);fill-opacity:1;" d="M 10.398438 17.84375 C 9.546875 17.761719 8.808594 17.554688 8.027344 17.179688 C 5.984375 16.199219 4.546875 14.257812 4.195312 12.011719 C 4.132812 11.617188 4.113281 10.753906 4.152344 10.335938 C 4.476562 7.125 6.996094 4.558594 10.214844 4.164062 C 10.578125 4.121094 11.410156 4.121094 11.773438 4.164062 C 14.863281 4.542969 17.308594 6.90625 17.796875 9.988281 C 17.867188 10.445312 17.867188 11.539062 17.796875 11.996094 C 17.445312 14.226562 16.0625 16.125 14.054688 17.136719 C 12.925781 17.707031 11.617188 17.957031 10.398438 17.84375 Z M 10.398438 17.84375 "/>
</g>
</svg>
