<?xml version="1.0" encoding="UTF-8"?>
<svg xmlns="http://www.w3.org/2000/svg" xmlns:xlink="http://www.w3.org/1999/xlink" width="22" height="22" viewBox="0 0 22 22" version="1.1">
<g id="surface1">
<path style=" stroke:none;fill-rule:nonzero;fill:rgb(74.509804%,74.509804%,74.509804%);fill-opacity:1;" d="M 13.0625 5.5 C 11.296875 5.5 9.863281 6.839844 9.667969 8.550781 C 9.214844 8.386719 8.761719 8.25 8.25 8.25 C 5.972656 8.25 4.125 10.09375 4.125 12.375 C 4.125 12.507812 4.15625 12.628906 4.167969 12.761719 C 3.757812 12.511719 3.261719 12.375 2.753906 12.375 C 1.234375 12.375 0.00390625 13.605469 0.00390625 15.125 C 0.00390625 16.644531 1.234375 17.875 2.753906 17.875 L 19.941406 17.875 C 21.082031 17.875 22.003906 16.953125 22.003906 15.8125 C 22.003906 14.671875 21.082031 13.75 19.941406 13.75 C 19.65625 13.75 19.371094 13.816406 19.125 13.921875 C 19.195312 13.644531 19.253906 13.363281 19.253906 13.0625 C 19.253906 11.371094 18.023438 10 16.417969 9.710938 C 16.476562 9.460938 16.503906 9.203125 16.503906 8.9375 C 16.503906 7.039062 14.964844 5.5 13.066406 5.5 Z M 13.0625 5.5 "/>
</g>
</svg>
