<?xml version="1.0" encoding="UTF-8"?>
<svg xmlns="http://www.w3.org/2000/svg" xmlns:xlink="http://www.w3.org/1999/xlink" width="22" height="22" viewBox="0 0 22 22" version="1.1">
<g id="surface1">
<path style=" stroke:none;fill-rule:nonzero;fill:rgb(74.509804%,74.509804%,74.509804%);fill-opacity:1;" d="M 13.0625 2.75 C 11.296875 2.75 9.863281 4.089844 9.667969 5.800781 C 9.214844 5.636719 8.761719 5.5 8.25 5.5 C 5.972656 5.5 4.125 7.34375 4.125 9.625 C 4.125 9.757812 4.15625 9.878906 4.167969 10.011719 C 3.757812 9.761719 3.261719 9.625 2.753906 9.625 C 1.234375 9.625 0.00390625 10.855469 0.00390625 12.375 C 0.00390625 13.894531 1.234375 15.125 2.753906 15.125 L 9.628906 15.125 L 9.628906 12.203125 C 9.628906 10.8125 10.816406 9.625 12.207031 9.625 L 19.167969 9.625 C 18.878906 8.269531 17.792969 7.207031 16.417969 6.960938 C 16.476562 6.710938 16.503906 6.453125 16.503906 6.1875 C 16.503906 4.289062 14.964844 2.75 13.066406 2.75 Z M 13.0625 2.75 "/>
<path style=" stroke:none;fill-rule:nonzero;fill:rgb(96.078431%,47.45098%,0%);fill-opacity:1;" d="M 12.210938 11 C 11.53125 11 11.007812 11.527344 11.007812 12.203125 L 11.007812 20.796875 C 11.007812 21.472656 11.53125 22 12.210938 22 L 20.804688 22 C 21.480469 22 22.007812 21.472656 22.007812 20.796875 L 22.007812 12.203125 C 22.007812 11.527344 21.480469 11 20.804688 11 Z M 15.132812 12.375 L 17.882812 12.375 L 17.882812 17.875 L 15.132812 17.875 Z M 15.132812 19.25 L 17.882812 19.25 L 17.882812 20.625 L 15.132812 20.625 Z M 15.132812 19.25 "/>
</g>
</svg>
