<?xml version="1.0" encoding="UTF-8"?>
<svg xmlns="http://www.w3.org/2000/svg" xmlns:xlink="http://www.w3.org/1999/xlink" width="22" height="22" viewBox="0 0 22 22" version="1.1">
<g id="surface1">
<path style=" stroke:none;fill-rule:nonzero;fill:rgb(74.509804%,74.509804%,74.509804%);fill-opacity:1;" d="M 13.050781 1.375 C 11.292969 1.375 9.867188 2.714844 9.671875 4.425781 C 9.234375 4.261719 8.777344 4.125 8.269531 4.125 C 6.003906 4.125 4.167969 5.96875 4.167969 8.25 C 4.167969 8.382812 4.199219 8.503906 4.210938 8.636719 C 3.796875 8.386719 3.316406 8.25 2.796875 8.25 C 1.285156 8.25 0.0585938 9.480469 0.0585938 11 C 0.0585938 12.519531 1.285156 13.75 2.796875 13.75 L 3.308594 13.75 C 3.535156 13.265625 3.8125 12.8125 4.203125 12.417969 L 7.582031 9.023438 L 10.957031 12.417969 C 11.347656 12.808594 11.59375 13.269531 11.8125 13.75 L 12.453125 13.75 L 14.417969 11.773438 L 16.382812 13.75 L 19.886719 13.75 C 21.019531 13.75 21.9375 12.828125 21.9375 11.6875 C 21.9375 10.546875 21.019531 9.625 19.886719 9.625 C 19.605469 9.625 19.320312 9.691406 19.074219 9.796875 C 19.148438 9.519531 19.203125 9.238281 19.203125 8.9375 C 19.203125 7.246094 17.980469 5.875 16.382812 5.585938 C 16.441406 5.335938 16.46875 5.078125 16.46875 4.8125 C 16.46875 2.914062 14.9375 1.375 13.050781 1.375 Z M 13.050781 1.375 "/>
<path style=" stroke:none;fill-rule:nonzero;fill:rgb(0%,100%,100%);fill-opacity:1;" d="M 7.5625 10.875 L 7.089844 11.390625 L 5.113281 13.324219 C 3.777344 14.660156 3.777344 16.84375 5.113281 18.179688 C 6.449219 19.515625 8.675781 19.515625 10.011719 18.179688 C 11.347656 16.84375 11.347656 14.660156 10.011719 13.324219 L 8.035156 11.390625 Z M 7.5625 12.808594 L 9.023438 14.3125 C 9.835938 15.125 9.835938 16.425781 9.023438 17.234375 C 8.210938 18.046875 6.914062 18.046875 6.101562 17.234375 L 6.101562 17.191406 C 5.320312 16.378906 5.300781 15.113281 6.101562 14.3125 L 7.558594 12.789062 Z M 7.5625 12.808594 "/>
<path style=" stroke:none;fill-rule:nonzero;fill:rgb(0%,100%,100%);fill-opacity:1;" d="M 14.4375 13.625 L 13.964844 14.140625 L 11.988281 16.074219 C 10.652344 17.410156 10.652344 19.59375 11.988281 20.929688 C 13.324219 22.265625 15.550781 22.265625 16.886719 20.929688 C 18.222656 19.59375 18.222656 17.410156 16.886719 16.074219 L 14.910156 14.140625 Z M 14.4375 15.558594 L 15.898438 17.0625 C 16.710938 17.875 16.710938 19.175781 15.898438 19.984375 C 15.085938 20.796875 13.789062 20.796875 12.976562 19.984375 L 12.976562 19.941406 C 12.195312 19.128906 12.175781 17.863281 12.976562 17.0625 L 14.433594 15.539062 Z M 14.4375 15.558594 "/>
</g>
</svg>
