<?xml version="1.0" encoding="UTF-8"?>
<svg xmlns="http://www.w3.org/2000/svg" xmlns:xlink="http://www.w3.org/1999/xlink" width="48" height="48" viewBox="0 0 48 48" version="1.1">
<g id="surface1">
<path style=" stroke:none;fill-rule:evenodd;fill:rgb(0%,46.666667%,75.686275%);fill-opacity:1;" d="M 6.066406 14.824219 L 11.175781 19.828125 L 11.015625 12.8125 L 6.0625 12.789062 Z M 6.066406 14.824219 "/>
<path style="fill-rule:evenodd;fill:rgb(94.901961%,94.901961%,94.901961%);fill-opacity:1;stroke-width:5.03546;stroke-linecap:butt;stroke-linejoin:miter;stroke:rgb(68.627451%,68.627451%,68.627451%);stroke-opacity:1;stroke-miterlimit:4;" d="M 96.923828 1029.819862 L 433.797201 1028.680539 L 434.977214 664.788937 L 346.923828 575.555539 L 96.923828 575.555539 Z M 96.923828 1029.819862 " transform="matrix(0.096,0,0,0.096,0,-53.026769)"/>
<path style="fill-rule:evenodd;fill:rgb(68.627451%,68.627451%,68.627451%);fill-opacity:1;stroke-width:5.03546;stroke-linecap:butt;stroke-linejoin:miter;stroke:rgb(68.627451%,68.627451%,68.627451%);stroke-opacity:1;stroke-miterlimit:4;" d="M 431.396484 662.917193 L 349.202474 662.347531 L 349.975586 578.566607 Z M 431.396484 662.917193 " transform="matrix(0.096,0,0,0.096,0,-53.026769)"/>
<path style=" stroke:none;fill-rule:nonzero;fill:rgb(0%,73.333333%,94.901961%);fill-opacity:1;" d="M 6.046875 6.703125 L 27.640625 6.703125 L 27.640625 14.800781 L 6.046875 14.800781 Z M 6.046875 6.703125 "/>
<path style="fill:none;stroke-width:9.063828;stroke-linecap:butt;stroke-linejoin:miter;stroke:rgb(100%,100%,100%);stroke-opacity:1;stroke-miterlimit:4;" d="M 139.200846 693.882362 L 139.200846 637.445187 C 139.200846 637.445187 170.043945 631.504432 169.921875 651.768104 C 169.840495 672.031776 139.851888 666.497922 139.851888 666.497922 " transform="matrix(0.096,0,0,0.096,0,-53.026769)"/>
<path style=" stroke:none;fill-rule:nonzero;fill:rgb(0%,73.333333%,94.901961%);fill-opacity:1;" d="M 25.828125 45.574219 C 33.121094 45.574219 39.03125 42.578125 39.03125 38.882812 C 39.03125 35.191406 33.121094 32.195312 25.828125 32.195312 C 18.539062 32.195312 12.628906 35.191406 12.628906 38.882812 C 12.628906 42.578125 18.539062 45.574219 25.828125 45.574219 "/>
<path style=" stroke:none;fill-rule:nonzero;fill:rgb(100%,100%,100%);fill-opacity:1;" d="M 19.558594 39.714844 C 20.15625 39.714844 20.601562 39.601562 20.886719 39.386719 C 21.167969 39.171875 21.359375 38.796875 21.460938 38.273438 C 21.554688 37.789062 21.519531 37.445312 21.355469 37.265625 C 21.183594 37.078125 20.820312 36.980469 20.265625 36.980469 L 19.308594 36.980469 L 18.777344 39.714844 Z M 16.421875 43.078125 C 16.378906 43.078125 16.335938 43.058594 16.308594 43.023438 C 16.28125 42.992188 16.269531 42.945312 16.277344 42.902344 L 17.683594 35.660156 C 17.699219 35.589844 17.757812 35.539062 17.828125 35.539062 L 20.863281 35.539062 C 21.816406 35.539062 22.527344 35.800781 22.972656 36.308594 C 23.421875 36.824219 23.5625 37.539062 23.382812 38.441406 C 23.3125 38.808594 23.191406 39.152344 23.019531 39.457031 C 22.847656 39.761719 22.625 40.042969 22.347656 40.296875 C 22.019531 40.605469 21.648438 40.828125 21.242188 40.957031 C 20.847656 41.089844 20.335938 41.15625 19.726562 41.15625 L 18.5 41.15625 L 18.148438 42.960938 C 18.132812 43.027344 18.070312 43.078125 18 43.078125 Z M 16.421875 43.078125 "/>
<path style=" stroke:none;fill-rule:nonzero;fill:rgb(100%,100%,100%);fill-opacity:1;" d="M 27 41.15625 C 26.957031 41.15625 26.914062 41.132812 26.886719 41.101562 C 26.859375 41.066406 26.847656 41.019531 26.855469 40.976562 L 27.476562 37.773438 C 27.539062 37.46875 27.523438 37.25 27.4375 37.15625 C 27.382812 37.101562 27.226562 37.007812 26.761719 37.007812 L 25.632812 37.007812 L 24.851562 41.03125 C 24.835938 41.101562 24.773438 41.15625 24.703125 41.15625 L 23.140625 41.15625 C 23.09375 41.15625 23.050781 41.132812 23.023438 41.101562 C 22.996094 41.066406 22.984375 41.019531 22.992188 40.976562 L 24.398438 33.734375 C 24.414062 33.664062 24.476562 33.617188 24.546875 33.617188 L 26.109375 33.617188 C 26.15625 33.617188 26.195312 33.632812 26.226562 33.667969 C 26.253906 33.703125 26.265625 33.75 26.257812 33.792969 L 25.917969 35.539062 L 27.132812 35.539062 C 28.054688 35.539062 28.679688 35.703125 29.046875 36.039062 C 29.421875 36.382812 29.535156 36.925781 29.390625 37.664062 L 28.738281 41.03125 C 28.722656 41.101562 28.664062 41.15625 28.589844 41.15625 Z M 27 41.15625 "/>
<path style=" stroke:none;fill-rule:nonzero;fill:rgb(100%,100%,100%);fill-opacity:1;" d="M 31.867188 39.714844 C 32.46875 39.714844 32.917969 39.601562 33.199219 39.386719 C 33.480469 39.171875 33.671875 38.796875 33.773438 38.273438 C 33.867188 37.789062 33.832031 37.445312 33.667969 37.265625 C 33.5 37.078125 33.132812 36.980469 32.578125 36.980469 L 31.621094 36.980469 L 31.089844 39.714844 Z M 28.734375 43.078125 C 28.691406 43.078125 28.648438 43.058594 28.621094 43.023438 C 28.59375 42.992188 28.582031 42.945312 28.589844 42.902344 L 29.996094 35.660156 C 30.011719 35.589844 30.070312 35.539062 30.144531 35.539062 L 33.175781 35.539062 C 34.128906 35.539062 34.839844 35.800781 35.285156 36.308594 C 35.734375 36.824219 35.871094 37.539062 35.695312 38.441406 C 35.625 38.808594 35.503906 39.152344 35.332031 39.457031 C 35.164062 39.761719 34.933594 40.042969 34.660156 40.296875 C 34.332031 40.605469 33.960938 40.828125 33.554688 40.957031 C 33.15625 41.089844 32.648438 41.15625 32.039062 41.15625 L 30.808594 41.15625 L 30.460938 42.960938 C 30.445312 43.027344 30.386719 43.078125 30.3125 43.078125 Z M 28.734375 43.078125 "/>
<path style="fill:none;stroke-width:9;stroke-linecap:butt;stroke-linejoin:miter;stroke:rgb(100%,100%,100%);stroke-opacity:1;stroke-miterlimit:4;" d="M 311.199902 528.451504 L 311.484733 582.935553 " transform="matrix(0.096,0,0,0.096,-12.109566,-42.668844)"/>
<path style="fill:none;stroke-width:9;stroke-linecap:butt;stroke-linejoin:miter;stroke:rgb(100%,100%,100%);stroke-opacity:1;stroke-miterlimit:4;" d="M 346.274772 527.963223 L 346.559603 582.447272 " transform="matrix(0.096,0,0,0.096,-12.109566,-42.668844)"/>
<path style="fill:none;stroke-width:9;stroke-linecap:butt;stroke-linejoin:miter;stroke:rgb(100%,100%,100%);stroke-opacity:1;stroke-miterlimit:4;" d="M 310.915072 555.062832 L 347.495475 555.062832 " transform="matrix(0.096,0,0,0.096,-12.109566,-42.668844)"/>
<path style="fill:none;stroke-width:9.063828;stroke-linecap:butt;stroke-linejoin:miter;stroke:rgb(100%,100%,100%);stroke-opacity:1;stroke-miterlimit:4;" d="M 239.339193 693.434771 L 239.339193 636.997596 C 239.339193 636.997596 270.141602 631.016151 270.019531 651.320513 C 269.897461 671.584185 239.949544 666.050331 239.949544 666.050331 " transform="matrix(0.096,0,0,0.096,0,-53.026769)"/>
</g>
</svg>
