<?xml version="1.0" encoding="UTF-8"?>
<svg xmlns="http://www.w3.org/2000/svg" xmlns:xlink="http://www.w3.org/1999/xlink" width="48" height="48" viewBox="0 0 48 48" version="1.1">
<g id="surface1">
<path style=" stroke:none;fill-rule:evenodd;fill:rgb(20%,20%,20%);fill-opacity:1;" d="M 6.050781 14.769531 L 11.160156 19.769531 L 11 12.757812 L 6.046875 12.734375 Z M 6.050781 14.769531 "/>
<path style="fill-rule:evenodd;fill:rgb(94.901961%,94.901961%,94.901961%);fill-opacity:1;stroke-width:5.03546;stroke-linecap:butt;stroke-linejoin:miter;stroke:rgb(68.627451%,68.627451%,68.627451%);stroke-opacity:1;stroke-miterlimit:4;" d="M 97.045898 1029.819862 L 433.919271 1028.680539 L 435.099284 664.788937 L 347.045898 575.555539 L 97.045898 575.555539 Z M 97.045898 1029.819862 " transform="matrix(0.096,0,0,0.096,0,-53.026769)"/>
<path style="fill-rule:evenodd;fill:rgb(68.627451%,68.627451%,68.627451%);fill-opacity:1;stroke-width:5.03546;stroke-linecap:butt;stroke-linejoin:miter;stroke:rgb(68.627451%,68.627451%,68.627451%);stroke-opacity:1;stroke-miterlimit:4;" d="M 431.518555 662.917193 L 349.365234 662.347531 L 350.097656 578.566607 Z M 431.518555 662.917193 " transform="matrix(0.096,0,0,0.096,0,-53.026769)"/>
<path style=" stroke:none;fill-rule:nonzero;fill:rgb(22.352941%,25.098039%,31.372549%);fill-opacity:1;" d="M 6.0625 6.703125 L 27.65625 6.703125 L 27.65625 14.800781 L 6.0625 14.800781 Z M 6.0625 6.703125 "/>
<path style=" stroke:none;fill-rule:nonzero;fill:rgb(36.470588%,41.568627%,48.235294%);fill-opacity:1;" d="M 29.457031 26.136719 L 30.421875 26.46875 L 30.421875 26.894531 L 29.597656 27.128906 L 29.597656 28.453125 L 31.382812 27.964844 L 30.367188 28.488281 L 30.386719 29.480469 L 29.617188 29.726562 L 29.617188 30.988281 L 31.273438 30.582031 L 30.421875 31.085938 L 30.421875 32.035156 L 29.574219 32.324219 L 29.628906 33.519531 L 31.421875 33.03125 L 30.421875 33.605469 L 30.398438 34.535156 L 29.609375 34.769531 L 29.628906 35.957031 L 31.371094 35.507812 L 30.269531 36.203125 L 30.238281 36.585938 L 33.015625 36.585938 L 32.984375 35.285156 L 33.785156 35.113281 L 33.765625 33.820312 L 31.882812 34.234375 L 32.972656 33.777344 L 32.984375 32.859375 L 33.820312 32.613281 L 33.820312 31.296875 L 32.367188 31.714844 L 32.953125 31.328125 L 32.964844 30.367188 L 33.742188 30.144531 L 33.742188 28.816406 L 32.03125 29.234375 L 32.898438 28.785156 L 32.941406 27.707031 L 33.734375 27.589844 L 33.777344 26.285156 L 32.203125 26.636719 L 33.015625 26.007812 L 33.015625 25.601562 L 29.53125 25.699219 Z M 29.457031 26.136719 "/>
<path style=" stroke:none;fill-rule:nonzero;fill:rgb(40%,40%,40%);fill-opacity:1;" d="M 29.664062 39.4375 L 29.683594 42.160156 L 28.894531 42.160156 L 28.894531 43.140625 L 27.492188 43.171875 L 27.476562 42.3125 L 25.617188 42.328125 L 25.585938 45.363281 L 27.492188 45.363281 L 27.492188 44.578125 L 28.910156 44.5625 L 28.910156 45.546875 L 34.515625 45.53125 L 34.535156 44.578125 L 36.015625 44.578125 L 36.015625 45.410156 L 37.828125 45.410156 L 37.8125 42.265625 L 36.015625 42.28125 L 36.015625 43.203125 L 34.515625 43.203125 L 34.457031 42.128906 L 33.808594 42.144531 L 33.808594 39.410156 Z M 29.664062 39.4375 "/>
<path style=" stroke:none;fill-rule:nonzero;fill:rgb(22.352941%,25.098039%,31.372549%);fill-opacity:1;" d="M 17.09375 38.492188 L 17.050781 39.238281 L 18.738281 40.820312 L 27.585938 40.90625 L 28.742188 39.625 L 34.789062 39.558594 L 34.789062 36.011719 L 28.867188 36.011719 L 26.519531 38.511719 Z M 17.09375 38.492188 "/>
<path style=" stroke:none;fill-rule:nonzero;fill:rgb(22.352941%,25.098039%,31.372549%);fill-opacity:1;" d="M 17.097656 23.984375 L 17.054688 23.234375 L 18.742188 21.652344 L 27.59375 21.566406 L 28.746094 22.851562 L 34.796875 22.914062 L 34.796875 26.460938 L 28.875 26.460938 L 26.523438 23.960938 Z M 17.097656 23.984375 "/>
<path style=" stroke:none;fill-rule:nonzero;fill:rgb(100%,72.156863%,0%);fill-opacity:1;" d="M 13.828125 23.964844 L 26.523438 23.964844 L 26.523438 38.5 L 13.828125 38.5 Z M 13.828125 23.964844 "/>
<path style=" stroke:none;fill-rule:nonzero;fill:rgb(98.039216%,92.54902%,42.745098%);fill-opacity:1;" d="M 14.773438 25.257812 L 25.417969 25.257812 L 25.417969 30.863281 L 14.773438 30.863281 Z M 14.773438 25.257812 "/>
<path style=" stroke:none;fill-rule:nonzero;fill:rgb(98.039216%,92.54902%,42.745098%);fill-opacity:1;" d="M 14.859375 31.777344 L 25.503906 31.777344 L 25.503906 37.382812 L 14.859375 37.382812 Z M 14.859375 31.777344 "/>
<path style=" stroke:none;fill-rule:nonzero;fill:rgb(15.686275%,13.333333%,4.313725%);fill-opacity:1;" d="M 18.109375 27.457031 L 22.382812 27.457031 L 22.382812 28.832031 L 18.109375 28.832031 Z M 18.109375 27.457031 "/>
<path style=" stroke:none;fill-rule:nonzero;fill:rgb(15.686275%,13.333333%,4.313725%);fill-opacity:1;" d="M 18.085938 33.808594 L 22.363281 33.808594 L 22.363281 35.179688 L 18.085938 35.179688 Z M 18.085938 33.808594 "/>
<path style="fill:none;stroke-width:9;stroke-linecap:butt;stroke-linejoin:miter;stroke:rgb(100%,100%,100%);stroke-opacity:1;stroke-miterlimit:4;" d="M 126.790365 636.590695 L 126.790365 689.528521 L 146.972656 689.528521 C 146.972656 689.528521 162.801107 690.383013 162.231445 675.571815 C 161.702474 660.801307 148.234049 661.126828 148.234049 661.126828 L 130.086263 661.126828 L 148.030599 660.882687 C 148.030599 660.882687 159.179688 660.597857 159.057617 648.228065 C 158.935547 635.858273 143.595378 636.590695 143.595378 636.590695 Z M 126.790365 636.590695 " transform="matrix(0.096,0,0,0.096,0,-53.026769)"/>
<path style="fill:none;stroke-width:9;stroke-linecap:butt;stroke-linejoin:miter;stroke:rgb(100%,100%,100%);stroke-opacity:1;stroke-miterlimit:4;" d="M 177.368164 636.672076 L 215.535482 637.241737 L 180.867513 689.406451 L 223.632812 689.08093 " transform="matrix(0.096,0,0,0.096,0,-53.026769)"/>
</g>
</svg>
