<?xml version="1.0" encoding="UTF-8"?>
<svg xmlns="http://www.w3.org/2000/svg" xmlns:xlink="http://www.w3.org/1999/xlink" width="48" height="48" viewBox="0 0 48 48" version="1.1">
<g id="surface1">
<path style=" stroke:none;fill-rule:evenodd;fill:rgb(39.215686%,39.215686%,39.215686%);fill-opacity:1;" d="M 6.050781 14.769531 L 11.160156 19.769531 L 11 12.757812 L 6.046875 12.734375 Z M 6.050781 14.769531 "/>
<path style="fill-rule:evenodd;fill:rgb(94.901961%,94.901961%,94.901961%);fill-opacity:1;stroke-width:5.03546;stroke-linecap:butt;stroke-linejoin:miter;stroke:rgb(68.627451%,68.627451%,68.627451%);stroke-opacity:1;stroke-miterlimit:4;" d="M 97.045898 1029.819862 L 433.919271 1028.680539 L 435.099284 664.788937 L 347.045898 575.555539 L 97.045898 575.555539 Z M 97.045898 1029.819862 " transform="matrix(0.096,0,0,0.096,0,-53.026769)"/>
<path style="fill-rule:evenodd;fill:rgb(68.627451%,68.627451%,68.627451%);fill-opacity:1;stroke-width:5.03546;stroke-linecap:butt;stroke-linejoin:miter;stroke:rgb(68.627451%,68.627451%,68.627451%);stroke-opacity:1;stroke-miterlimit:4;" d="M 431.518555 662.917193 L 349.365234 662.347531 L 350.097656 578.566607 Z M 431.518555 662.917193 " transform="matrix(0.096,0,0,0.096,0,-53.026769)"/>
<path style=" stroke:none;fill-rule:nonzero;fill:rgb(60%,60%,60%);fill-opacity:1;" d="M 6.0625 6.703125 L 26.707031 6.703125 L 26.707031 14.800781 L 6.0625 14.800781 Z M 6.0625 6.703125 "/>
<path style=" stroke:none;fill-rule:nonzero;fill:rgb(80%,80%,80%);fill-opacity:0.588235;" d="M 24.578125 29.113281 C 21.382812 28.953125 18.433594 28.070312 17.15625 26.890625 C 16.835938 26.589844 16.574219 26.164062 16.578125 25.925781 C 16.578125 25.53125 17.066406 24.933594 17.753906 24.496094 C 20.6875 22.625 26.765625 22.125 31.21875 23.390625 C 32.757812 23.828125 33.917969 24.425781 34.558594 25.105469 C 34.996094 25.566406 35.078125 25.859375 34.886719 26.273438 C 34.445312 27.25 32.472656 28.246094 29.988281 28.742188 C 28.988281 28.941406 28.035156 29.054688 26.855469 29.117188 C 25.824219 29.167969 25.695312 29.167969 24.578125 29.113281 Z M 24.578125 29.113281 "/>
<path style=" stroke:none;fill-rule:nonzero;fill:rgb(80%,80%,80%);fill-opacity:0.588235;" d="M 24.902344 45.621094 C 22.449219 45.5 20.183594 44.820312 19.207031 43.914062 C 18.957031 43.683594 18.761719 43.355469 18.761719 43.175781 C 18.761719 42.871094 19.136719 42.414062 19.664062 42.078125 C 21.914062 40.640625 26.578125 40.257812 29.992188 41.230469 C 31.175781 41.566406 32.066406 42.023438 32.558594 42.546875 C 32.894531 42.898438 32.953125 43.121094 32.8125 43.441406 C 32.46875 44.191406 30.953125 44.953125 29.050781 45.335938 C 28.28125 45.488281 27.550781 45.574219 26.648438 45.621094 C 25.855469 45.664062 25.757812 45.664062 24.902344 45.621094 Z M 24.902344 45.621094 "/>
<path style=" stroke:none;fill-rule:nonzero;fill:rgb(58.823529%,58.823529%,58.823529%);fill-opacity:0.588235;" d="M 24.738281 45.625 C 22.113281 45.445312 19.976562 44.730469 19.050781 43.71875 C 18.722656 43.359375 18.632812 43.164062 18.535156 42.601562 C 18.265625 41.050781 15.625 26.832031 15.554688 26.566406 C 15.082031 24.753906 17.011719 23.113281 20.675781 22.210938 C 21.515625 22.007812 22.789062 21.804688 23.800781 21.714844 C 24.707031 21.632812 26.816406 21.632812 27.722656 21.714844 C 32.152344 22.109375 35.46875 23.636719 35.96875 25.511719 C 36.066406 25.875 36.058594 26.148438 35.9375 26.648438 C 35.804688 27.191406 32.953125 42.636719 32.953125 42.8125 C 32.953125 42.882812 32.882812 43.085938 32.792969 43.261719 C 32.347656 44.15625 30.84375 44.953125 28.816406 45.363281 C 27.691406 45.59375 25.921875 45.707031 24.738281 45.625 Z M 24.738281 45.625 "/>
<path style="fill-rule:nonzero;fill:rgb(0%,40%,50.196078%);fill-opacity:1;stroke-width:1;stroke-linecap:butt;stroke-linejoin:miter;stroke:rgb(0%,40%,50.196078%);stroke-opacity:1;stroke-miterlimit:4;" d="M 68.821474 87.329707 L 64.781513 94.430716 L 68.883627 101.469571 L 68.868089 98.361908 L 72.286518 98.299755 C 74.415266 98.237602 75.596178 96.606079 75.596178 96.606079 L 80.754897 87.76478 C 81.858118 85.27865 80.677206 83.584974 80.677206 83.584974 L 77.087856 77.447341 L 69.971309 81.549455 L 74.539573 89.442917 C 74.710494 89.846914 74.446343 90.188756 73.949117 90.188756 L 68.837012 90.219833 Z M 68.821474 87.329707 " transform="matrix(0.251395,0,0,0.251395,9.796299,16.073114)"/>
<path style="fill-rule:nonzero;fill:rgb(0%,40%,50.196078%);fill-opacity:1;stroke-width:1;stroke-linecap:butt;stroke-linejoin:miter;stroke:rgb(0%,40%,50.196078%);stroke-opacity:1;stroke-miterlimit:4;" d="M 58.472958 86.257564 L 54.324229 79.218708 L 46.182154 79.265323 L 48.870282 80.803616 L 47.223221 83.786972 C 46.197692 85.667108 47.052299 87.500628 47.052299 87.500628 L 52.148865 96.388543 C 53.749312 98.579445 55.800369 98.392985 55.800369 98.392985 L 62.916916 98.34637 L 62.901377 90.142141 L 53.780388 90.173218 C 53.345315 90.111065 53.174394 89.707069 53.438545 89.271996 L 55.940214 84.828039 Z M 58.472958 86.257564 " transform="matrix(0.251395,0,0,0.251395,9.796299,16.073114)"/>
<path style="fill-rule:nonzero;fill:rgb(0%,40%,50.196078%);fill-opacity:1;stroke-width:1;stroke-linecap:butt;stroke-linejoin:miter;stroke:rgb(0%,40%,50.196078%);stroke-opacity:1;stroke-miterlimit:4;" d="M 64.563977 77.851337 L 72.752667 77.773645 L 76.77709 70.703713 L 74.1045 72.273083 L 72.348671 69.336342 C 71.229912 67.51836 69.22547 67.3319 69.22547 67.3319 L 58.985723 67.285285 C 56.266518 67.564975 55.411911 69.429572 55.411911 69.429572 L 51.884714 75.629358 L 59.001261 79.715934 L 63.538448 71.822472 C 63.818138 71.465091 64.237672 71.527244 64.486285 71.962317 L 67.081183 76.375197 Z M 64.563977 77.851337 " transform="matrix(0.251395,0,0,0.251395,9.796299,16.073114)"/>
<path style="fill:none;stroke-width:9;stroke-linecap:butt;stroke-linejoin:miter;stroke:rgb(100%,100%,100%);stroke-opacity:1;stroke-miterlimit:4;" d="M 134.033203 695.103065 L 199.30013 632.196164 " transform="matrix(0.096,0,0,0.096,0,-53.026769)"/>
<path style="fill-rule:nonzero;fill:rgb(60%,60%,60%);fill-opacity:1;stroke-width:9.11013;stroke-linecap:butt;stroke-linejoin:bevel;stroke:rgb(100%,100%,100%);stroke-opacity:1;stroke-miterlimit:4;" d="M 153.889974 642.572141 C 153.889974 648.350135 149.210612 653.029497 143.473307 653.029497 C 137.695312 653.029497 133.015951 648.350135 133.015951 642.572141 C 133.015951 636.794146 137.695312 632.155474 143.473307 632.155474 C 149.210612 632.155474 153.889974 636.794146 153.889974 642.572141 Z M 153.889974 642.572141 " transform="matrix(0.096,0,0,0.096,0,-53.026769)"/>
<path style="fill-rule:nonzero;fill:rgb(60%,60%,60%);fill-opacity:1;stroke-width:9.11013;stroke-linecap:butt;stroke-linejoin:bevel;stroke:rgb(100%,100%,100%);stroke-opacity:1;stroke-miterlimit:4;" d="M 199.869792 684.930539 C 199.869792 690.708534 195.19043 695.387896 189.412435 695.387896 C 183.63444 695.387896 178.955078 690.708534 178.955078 684.930539 C 178.955078 679.193234 183.63444 674.513872 189.412435 674.513872 C 195.19043 674.513872 199.869792 679.193234 199.869792 684.930539 Z M 199.869792 684.930539 " transform="matrix(0.096,0,0,0.096,0,-53.026769)"/>
</g>
</svg>
