<?xml version="1.0" encoding="UTF-8"?>
<svg xmlns="http://www.w3.org/2000/svg" xmlns:xlink="http://www.w3.org/1999/xlink" width="48" height="48" viewBox="0 0 48 48" version="1.1">
<g id="surface1">
<path style=" stroke:none;fill-rule:evenodd;fill:rgb(15.686275%,9.019608%,4.313725%);fill-opacity:1;" d="M 6.066406 14.824219 L 11.175781 19.828125 L 11.015625 12.8125 L 6.0625 12.789062 Z M 6.066406 14.824219 "/>
<path style="fill-rule:evenodd;fill:rgb(94.901961%,94.901961%,94.901961%);fill-opacity:1;stroke-width:5.03546;stroke-linecap:butt;stroke-linejoin:miter;stroke:rgb(68.627451%,68.627451%,68.627451%);stroke-opacity:1;stroke-miterlimit:4;" d="M 96.923828 1029.819862 L 433.797201 1028.680539 L 434.977214 664.788937 L 346.923828 575.555539 L 96.923828 575.555539 Z M 96.923828 1029.819862 " transform="matrix(0.096,0,0,0.096,0,-53.026769)"/>
<path style="fill-rule:evenodd;fill:rgb(68.627451%,68.627451%,68.627451%);fill-opacity:1;stroke-width:5.03546;stroke-linecap:butt;stroke-linejoin:miter;stroke:rgb(68.627451%,68.627451%,68.627451%);stroke-opacity:1;stroke-miterlimit:4;" d="M 431.396484 662.917193 L 349.202474 662.347531 L 349.975586 578.566607 Z M 431.396484 662.917193 " transform="matrix(0.096,0,0,0.096,0,-53.026769)"/>
<path style=" stroke:none;fill-rule:nonzero;fill:rgb(31.372549%,17.647059%,8.627451%);fill-opacity:1;" d="M 6.046875 6.703125 L 27.640625 6.703125 L 27.640625 14.800781 L 6.046875 14.800781 Z M 6.046875 6.703125 "/>
<path style="fill:none;stroke-width:9.063828;stroke-linecap:butt;stroke-linejoin:miter;stroke:rgb(100%,100%,100%);stroke-opacity:1;stroke-miterlimit:4;" d="M 139.200846 693.882362 L 139.200846 637.445187 C 139.200846 637.445187 170.043945 631.504432 169.921875 651.768104 C 169.840495 672.031776 139.851888 666.497922 139.851888 666.497922 " transform="matrix(0.096,0,0,0.096,0,-53.026769)"/>
<path style="fill-rule:nonzero;fill:rgb(31.372549%,17.647059%,8.627451%);fill-opacity:1;stroke-width:0.759318;stroke-linecap:butt;stroke-linejoin:miter;stroke:rgb(0%,0%,0%);stroke-opacity:1;stroke-miterlimit:4;" d="M 233.886719 776.117062 C 230.183919 776.727414 226.969401 778.680539 223.510742 779.819862 C 216.105143 784.580604 210.164388 791.864133 208.658854 800.653195 C 204.020182 815.464393 190.429688 825.230018 185.709635 839.959836 C 181.803385 849.39994 174.804688 856.846229 168.253581 864.455279 C 163.736979 870.070513 164.22526 877.598182 162.272135 884.149289 C 160.27832 885.980344 158.894857 890.049354 162.597656 890.496945 C 162.475586 893.874224 160.19694 897.577023 162.597656 900.750852 C 164.469401 907.749549 167.80599 914.422727 171.101888 920.892453 C 171.75293 923.252479 175.78125 925.978716 176.391602 922.194536 C 176.879883 916.782753 179.199219 910.313026 175.415039 905.592974 C 172.973633 899.448768 174.967448 892.979042 176.106771 886.875526 C 175.537109 883.091346 176.879883 878.818885 178.955078 875.807818 C 181.030273 876.947141 180.297852 880.73132 181.152344 882.765826 C 183.146159 897.414263 183.75651 912.632362 180.053711 927.077349 C 178.670247 932.733273 180.948893 938.714719 179.60612 944.289263 C 174.845378 949.456906 178.548177 956.903195 178.955078 962.884641 C 181.274414 974.033729 180.013021 985.671099 176.676432 996.331906 C 176.595052 1000.156776 175.252279 1003.656125 174.438477 1007.318234 C 175.78125 1011.916216 182.128906 1013.54382 186.319987 1012.445187 C 188.964844 1010.695513 193.969727 1014.032102 195.23112 1009.841021 C 195.638021 1005.243039 191.162109 1001.82507 191.52832 997.186398 C 188.720703 984.450396 186.645508 971.144732 189.331055 958.123898 C 190.714518 950.596229 190.185547 942.498898 192.301432 935.21537 C 197.021484 929.315305 200.236003 922.357297 202.229818 915.033078 C 205.037435 908.970253 206.746419 901.605344 208.455404 895.827349 C 215.738932 907.546099 220.092773 921.584185 218.221029 935.540891 C 218.465169 941.034055 215.047201 947.422401 219.604492 951.694862 C 225.179036 960.402544 232.177734 968.621945 234.985352 978.631711 C 235.229492 982.822792 229.573568 982.863482 228.108724 986.281451 C 224.772135 991.082883 225.097656 997.267779 224.731445 1002.801633 C 227.864583 1004.022336 232.462565 1007.277544 235.107422 1003.371294 C 237.711589 1000.645057 238.810221 995.884315 241.495768 993.76843 C 243.164062 996.942258 241.617839 1002.028521 245.890299 1003.534055 C 252.034505 1005.73132 259.073893 1006.341672 265.46224 1004.836138 C 268.717448 1002.028521 264.282227 998.000201 261.474609 996.942258 C 256.917318 995.558794 254.191081 991.978065 252.644857 987.624224 C 251.180013 985.223508 250.12207 982.456581 252.970378 980.584836 C 259.602865 972.528195 268.717448 967.238482 275.756836 959.710812 C 279.988607 953.810747 278.889974 945.591346 277.26237 938.958859 C 275.268555 935.052609 273.844401 931.024289 274.902344 926.589068 C 275.634766 922.804888 273.071289 918.898638 273.193359 915.521359 C 276.936849 915.277219 281.29069 915.399289 284.586589 916.660682 C 285.481771 922.642128 284.138997 929.071164 285.888672 934.849159 C 288.696289 937.534706 290.039062 941.807167 290.242513 945.672727 C 292.84668 948.887245 291.178385 953.647987 291.910807 957.594927 C 290.242513 964.023964 292.602539 970.37162 294.596354 976.475135 C 298.177083 988.071815 296.671549 1000.604367 299.723307 1012.282427 C 302.083333 1015.578326 298.136393 1021.11218 302.734375 1023.309445 C 309.814453 1025.913612 319.335938 1026.686724 325.398763 1021.35632 C 327.229818 1017.694211 321.777344 1015.537635 319.173177 1014.398312 C 315.511068 1013.58451 312.703451 1011.021034 311.930339 1007.196164 C 306.315104 995.680865 303.588867 982.700721 305.541992 969.842648 C 305.826823 963.657753 306.681315 957.513547 308.268229 951.613482 C 309.000651 945.591346 309.122721 939.36576 310.872396 933.669146 C 311.930339 925.571815 310.180664 917.108273 312.41862 909.255083 C 316.080729 911.574419 319.986979 913.893755 324.30013 914.219276 C 327.107747 916.375852 330.118815 914.259966 331.665039 911.69649 C 333.943685 908.563352 336.629232 916.864133 338.704427 912.673052 C 341.267904 909.784055 344.563802 907.708859 347.452799 905.430214 C 349.121094 902.744667 352.457682 902.826047 354.858398 901.605344 C 356.486003 899.448768 353.800456 896.07149 356.811523 894.403195 C 357.828776 891.636268 360.473633 895.298378 361.694336 892.694211 C 362.955729 889.845904 362.752279 885.939654 366.170247 884.718951 C 372.355143 879.795448 370.524089 870.843625 371.622721 863.885617 C 371.541341 856.927609 372.924805 849.603391 371.21582 842.930214 C 369.262695 837.6405 365.966797 832.269406 364.664714 827.020383 C 370.686849 822.17826 381.347656 826.165891 385.457357 818.27201 C 387.247721 812.453326 381.632487 807.489133 377.970378 803.827023 C 374.389648 800.449745 368.733724 802.077349 364.339193 800.409055 C 360.921224 799.269732 355.63151 800.531125 354.736328 795.892453 C 353.312174 792.230344 348.836263 792.230344 346.476237 789.504107 C 342.651367 787.510292 339.152018 792.026893 335.408529 792.393104 C 331.217448 795.282102 326.416016 798.171099 323.730469 802.60632 C 322.591146 805.536008 323.567708 809.320187 320.43457 811.110552 C 315.185547 817.132687 317.382812 826.04382 316.894531 833.368039 C 316.975911 836.704628 316.894531 840.081906 318.766276 842.808143 C 319.051107 846.917844 322.794596 849.603391 322.143555 853.835161 C 321.614583 856.602089 324.05599 862.542844 319.458008 861.24076 C 318.074544 858.921424 318.277995 854.933794 316.975911 852.207557 C 313.151042 840.407427 307.332357 827.630734 295.694987 821.689979 C 287.516276 815.708534 281.656901 807.000852 278.238932 797.520057 C 275.024414 792.718625 269.124349 789.748247 266.601562 784.539914 C 263.264974 783.11576 259.236654 783.644732 255.940755 781.772987 C 251.831055 779.941932 248.087565 776.646034 243.204753 777.215695 C 239.949544 777.459836 236.938477 776.361203 233.886719 776.117062 Z M 239.868164 908.441281 C 242.716471 909.377154 241.821289 913.812375 242.879232 916.131711 C 244.181315 919.346229 243.082682 925.083534 246.826172 926.711138 C 248.982747 930.210487 247.639974 934.971229 249.796549 938.226437 C 249.308268 940.545773 248.535156 944.858924 252.115885 944.940305 C 255.371094 944.655474 256.225586 948.236203 258.504232 949.823117 C 260.579427 952.752805 262.939453 956.903195 259.684245 959.995643 C 256.551107 963.820513 254.394531 969.761268 248.616536 969.964719 C 246.25651 970.208859 242.960612 973.911659 241.861979 970.086789 C 237.752279 963.128781 234.25293 955.723182 235.066732 947.463091 C 235.107422 934.482948 238.077799 921.746945 239.542643 908.929562 C 239.501953 908.563352 239.624023 908.441281 239.868164 908.441281 Z M 239.868164 908.441281 " transform="matrix(0.096,0,0,0.096,0,-53.026769)"/>
<path style="fill:none;stroke-width:9;stroke-linecap:butt;stroke-linejoin:miter;stroke:rgb(100%,100%,100%);stroke-opacity:1;stroke-miterlimit:4;" d="M 192.260742 633.742388 L 192.545573 688.226437 L 224.283854 688.511268 " transform="matrix(0.096,0,0,0.096,0,-53.026769)"/>
</g>
</svg>
