<?xml version="1.0" encoding="UTF-8"?>
<svg xmlns="http://www.w3.org/2000/svg" xmlns:xlink="http://www.w3.org/1999/xlink" width="48" height="48" viewBox="0 0 48 48" version="1.1">
<g id="surface1">
<path style=" stroke:none;fill-rule:evenodd;fill:rgb(81.960784%,16.470588%,4.313725%);fill-opacity:1;" d="M 6.050781 14.769531 L 11.160156 19.769531 L 11 12.757812 L 6.046875 12.734375 Z M 6.050781 14.769531 "/>
<path style="fill-rule:evenodd;fill:rgb(94.901961%,94.901961%,94.901961%);fill-opacity:1;stroke-width:5.03546;stroke-linecap:butt;stroke-linejoin:miter;stroke:rgb(68.627451%,68.627451%,68.627451%);stroke-opacity:1;stroke-miterlimit:4;" d="M 97.045898 1029.819862 L 433.919271 1028.680539 L 435.099284 664.788937 L 347.045898 575.555539 L 97.045898 575.555539 Z M 97.045898 1029.819862 " transform="matrix(0.096,0,0,0.096,0,-53.026769)"/>
<path style="fill-rule:evenodd;fill:rgb(68.627451%,68.627451%,68.627451%);fill-opacity:1;stroke-width:5.03546;stroke-linecap:butt;stroke-linejoin:miter;stroke:rgb(68.627451%,68.627451%,68.627451%);stroke-opacity:1;stroke-miterlimit:4;" d="M 431.518555 662.917193 L 349.365234 662.347531 L 350.097656 578.566607 Z M 431.518555 662.917193 " transform="matrix(0.096,0,0,0.096,0,-53.026769)"/>
<path style=" stroke:none;fill-rule:nonzero;fill:rgb(94.117647%,22.352941%,8.627451%);fill-opacity:1;" d="M 6.0625 6.703125 L 27.65625 6.703125 L 27.65625 14.800781 L 6.0625 14.800781 Z M 6.0625 6.703125 "/>
<path style="fill:none;stroke-width:9;stroke-linecap:butt;stroke-linejoin:miter;stroke:rgb(100%,100%,100%);stroke-opacity:1;stroke-miterlimit:4;" d="M 380.210939 670.738223 L 346.194012 670.331322 L 346.641603 618.573509 L 381.065431 618.73627 " transform="matrix(0.096,0,0,0.096,-16.242438,-51.230713)"/>
<path style="fill:none;stroke-width:9;stroke-linecap:butt;stroke-linejoin:miter;stroke:rgb(100%,100%,100%);stroke-opacity:1;stroke-miterlimit:4;" d="M 348.960939 642.37722 L 378.095053 642.49929 " transform="matrix(0.096,0,0,0.096,-16.242438,-51.230713)"/>
<path style=" stroke:none;fill-rule:nonzero;fill:rgb(94.117647%,22.352941%,8.627451%);fill-opacity:1;" d="M 26.34375 45.324219 C 25.054688 45.109375 23.210938 44.378906 22.066406 43.632812 C 19.554688 41.996094 17.914062 40.179688 16.898438 37.90625 C 16.5625 37.152344 16.378906 36.566406 15.851562 34.574219 C 15.71875 34.078125 15.554688 33.53125 15.488281 33.359375 C 15.375 33.070312 15.367188 32.972656 15.417969 32.007812 C 15.464844 31.09375 15.621094 29.851562 15.703125 29.722656 C 15.71875 29.699219 15.757812 29.691406 15.789062 29.710938 C 15.890625 29.769531 15.984375 29.488281 16.078125 28.847656 C 16.132812 28.496094 16.210938 28.125 16.257812 28.027344 C 16.304688 27.929688 16.382812 27.710938 16.433594 27.542969 C 16.550781 27.152344 16.707031 26.855469 17.195312 26.105469 C 17.410156 25.773438 17.632812 25.417969 17.691406 25.304688 C 17.757812 25.179688 17.835938 25.113281 17.902344 25.128906 C 17.96875 25.140625 18.078125 25.058594 18.191406 24.90625 C 18.6875 24.25 21.023438 22.320312 21.242188 22.386719 C 21.300781 22.402344 21.546875 22.324219 21.789062 22.207031 C 22.226562 21.992188 22.421875 21.945312 22.421875 22.046875 C 22.421875 22.074219 22.355469 22.140625 22.277344 22.191406 C 22.144531 22.28125 22.148438 22.28125 22.359375 22.234375 C 22.476562 22.207031 22.679688 22.167969 22.808594 22.144531 C 22.964844 22.121094 23.03125 22.082031 23.007812 22.027344 C 22.988281 21.980469 23.035156 21.933594 23.121094 21.910156 C 23.335938 21.855469 23.671875 21.867188 23.671875 21.925781 C 23.671875 22 23.480469 22.074219 23.328125 22.058594 C 23.222656 22.046875 23.21875 22.058594 23.296875 22.109375 C 23.375 22.160156 23.375 22.171875 23.300781 22.171875 C 23.253906 22.171875 23.230469 22.1875 23.25 22.207031 C 23.269531 22.226562 23.398438 22.183594 23.539062 22.117188 C 23.679688 22.046875 23.933594 21.960938 24.109375 21.925781 C 24.320312 21.882812 24.421875 21.832031 24.421875 21.769531 C 24.421875 21.6875 24.523438 21.683594 25.1875 21.714844 C 25.609375 21.738281 26.246094 21.800781 26.601562 21.855469 C 27.25 21.957031 27.25 21.957031 27.492188 21.828125 C 27.78125 21.664062 28.246094 21.644531 28.367188 21.785156 C 28.414062 21.835938 28.535156 21.921875 28.640625 21.976562 C 28.816406 22.0625 28.828125 22.0625 28.753906 21.976562 C 28.613281 21.816406 28.75 21.820312 29.285156 21.992188 C 31.011719 22.546875 32.417969 23.535156 33.460938 24.921875 C 33.707031 25.253906 33.722656 25.398438 33.488281 25.199219 L 33.355469 25.085938 L 33.457031 25.277344 C 33.511719 25.382812 33.558594 25.5 33.558594 25.539062 C 33.558594 25.582031 33.726562 25.871094 33.925781 26.191406 C 34.382812 26.90625 34.511719 27.144531 34.480469 27.234375 C 34.46875 27.269531 34.265625 27.019531 34.03125 26.671875 C 33.796875 26.328125 33.453125 25.863281 33.261719 25.640625 C 32.976562 25.304688 32.90625 25.25 32.847656 25.320312 C 32.808594 25.367188 32.714844 25.414062 32.636719 25.425781 L 32.496094 25.445312 L 32.636719 25.703125 C 32.710938 25.847656 32.78125 25.933594 32.796875 25.898438 C 32.863281 25.710938 33.167969 25.960938 33.308594 26.316406 C 33.351562 26.429688 33.472656 26.667969 33.574219 26.84375 C 33.675781 27.019531 33.746094 27.175781 33.730469 27.191406 C 33.714844 27.207031 33.621094 27.15625 33.527344 27.085938 L 33.347656 26.949219 L 33.46875 27.148438 C 33.535156 27.257812 33.648438 27.394531 33.714844 27.449219 C 33.804688 27.515625 33.84375 27.621094 33.851562 27.789062 C 33.855469 28.097656 34.039062 28.460938 34.140625 28.363281 C 34.296875 28.214844 34.328125 28.308594 34.289062 28.796875 C 34.257812 29.15625 34.273438 29.394531 34.34375 29.648438 C 34.445312 30.03125 34.421875 30.125 34.273438 29.945312 C 34.175781 29.828125 34.175781 29.832031 34.21875 29.949219 C 34.3125 30.203125 34.378906 30.578125 34.359375 30.726562 C 34.324219 31.003906 34.21875 30.890625 34.179688 30.535156 L 34.140625 30.1875 L 34.132812 30.558594 C 34.125 30.761719 34.078125 31.152344 34.019531 31.429688 C 33.96875 31.707031 33.9375 32.046875 33.957031 32.1875 C 33.996094 32.457031 33.96875 32.46875 33.734375 32.277344 C 33.640625 32.195312 33.621094 32.214844 33.554688 32.449219 C 33.5 32.644531 33.5 32.757812 33.558594 32.921875 C 33.597656 33.039062 33.625 33.203125 33.609375 33.28125 C 33.585938 33.460938 33.433594 33.515625 33.433594 33.347656 C 33.433594 33.132812 33.347656 33.210938 33.089844 33.65625 C 32.390625 34.863281 31.28125 35.796875 30.027344 36.238281 C 29.289062 36.496094 28.792969 36.59375 27.957031 36.640625 L 27.207031 36.679688 L 27.578125 36.789062 C 27.878906 36.878906 28.054688 36.890625 28.484375 36.859375 C 29.050781 36.8125 29.71875 36.695312 30.019531 36.585938 C 30.140625 36.542969 30.222656 36.539062 30.261719 36.578125 C 30.359375 36.671875 29.488281 37.042969 28.972656 37.128906 C 28.089844 37.273438 26.914062 37.117188 25.875 36.722656 C 25.167969 36.457031 24.121094 35.757812 24.28125 35.664062 C 24.3125 35.644531 24.511719 35.734375 24.722656 35.867188 C 24.996094 36.03125 25.113281 36.074219 25.113281 36.011719 C 25.113281 35.894531 25.152344 35.898438 25.367188 36.046875 C 25.5625 36.179688 26.164062 36.429688 26.597656 36.554688 C 27.070312 36.691406 26.886719 36.527344 26.253906 36.242188 C 24.25 35.347656 23.421875 34.453125 23.007812 32.742188 C 22.855469 32.117188 23.015625 30.742188 23.292969 30.3125 C 23.363281 30.203125 23.421875 30.070312 23.421875 30.015625 C 23.421875 29.777344 23.835938 29.148438 24.257812 28.742188 C 25.007812 28.023438 25.785156 27.726562 26.792969 27.769531 C 27.28125 27.792969 27.488281 27.832031 27.894531 27.988281 C 28.355469 28.164062 28.9375 28.53125 28.757812 28.535156 C 28.71875 28.539062 28.535156 28.476562 28.351562 28.40625 C 28.074219 28.296875 27.898438 28.273438 27.269531 28.273438 C 26.386719 28.265625 25.957031 28.386719 25.328125 28.8125 C 24.441406 29.410156 23.945312 30.105469 23.773438 30.992188 C 23.652344 31.585938 23.648438 31.753906 23.742188 32.34375 C 23.796875 32.683594 23.832031 32.785156 23.898438 32.761719 C 23.953125 32.742188 23.984375 32.769531 23.984375 32.84375 C 23.984375 33.054688 24.464844 33.910156 24.796875 34.296875 C 25.59375 35.214844 26.886719 35.804688 28.113281 35.804688 C 28.75 35.804688 29.265625 35.6875 29.738281 35.433594 C 29.929688 35.332031 30.171875 35.207031 30.273438 35.15625 C 30.636719 34.980469 30.863281 34.777344 31.128906 34.394531 C 31.273438 34.179688 31.433594 34.003906 31.484375 34.003906 C 31.554688 34.003906 31.550781 34.035156 31.464844 34.167969 C 31.1875 34.609375 31.84375 33.804688 32.183594 33.289062 L 32.5625 32.710938 L 32.519531 32.332031 C 32.480469 31.96875 32.488281 31.945312 32.667969 31.761719 C 32.84375 31.585938 32.859375 31.53125 32.878906 31.0625 C 32.898438 30.640625 32.886719 30.550781 32.808594 30.550781 C 32.734375 30.550781 32.703125 30.4375 32.671875 30.070312 C 32.632812 29.582031 32.21875 27.9375 32.121094 27.878906 C 32.09375 27.859375 32.011719 27.703125 31.941406 27.527344 C 31.707031 26.933594 31.292969 26.359375 30.648438 25.742188 C 29.726562 24.84375 28.558594 24.152344 27.457031 23.847656 C 26.519531 23.585938 24.929688 23.679688 23.796875 24.0625 C 23.242188 24.25 22.699219 24.5 22.605469 24.605469 C 22.566406 24.65625 22.503906 24.679688 22.472656 24.660156 C 22.4375 24.640625 22.449219 24.585938 22.496094 24.53125 C 22.703125 24.289062 22.011719 24.730469 21.566406 25.125 C 21.296875 25.359375 21.066406 25.5625 21.054688 25.570312 C 21.039062 25.582031 21.09375 25.570312 21.171875 25.554688 C 21.296875 25.519531 21.300781 25.53125 21.234375 25.652344 C 21.1875 25.730469 20.960938 25.875 20.679688 25.996094 C 20.207031 26.203125 19.902344 26.425781 19.65625 26.75 C 19.5625 26.878906 19.554688 26.90625 19.632812 26.878906 C 19.6875 26.859375 19.730469 26.871094 19.730469 26.90625 C 19.730469 27.078125 19.566406 27.269531 19.328125 27.382812 C 18.792969 27.632812 17.859375 28.957031 17.355469 30.175781 C 17.132812 30.71875 17.136719 30.699219 17.257812 30.699219 C 17.386719 30.699219 17.378906 30.839844 17.203125 31.589844 C 16.945312 32.679688 16.945312 32.648438 17.222656 34.183594 C 17.5625 36.054688 17.761719 36.679688 18.140625 37.066406 C 18.226562 37.160156 18.316406 37.351562 18.351562 37.546875 C 18.398438 37.777344 18.476562 37.929688 18.621094 38.078125 C 18.75 38.210938 18.796875 38.289062 18.742188 38.308594 C 18.644531 38.34375 18.953125 38.785156 19.238281 39.015625 C 19.378906 39.128906 19.484375 39.167969 19.601562 39.148438 C 19.851562 39.101562 20.105469 39.242188 20.496094 39.632812 C 20.902344 40.042969 20.945312 40.15625 20.675781 40.117188 C 20.5 40.089844 20.496094 40.09375 20.582031 40.222656 C 20.632812 40.292969 20.8125 40.464844 20.984375 40.605469 C 21.226562 40.800781 21.289062 40.886719 21.257812 40.980469 C 21.214844 41.109375 21.339844 41.234375 21.621094 41.335938 C 21.796875 41.402344 21.855469 41.539062 21.722656 41.582031 C 21.683594 41.59375 21.929688 41.835938 22.269531 42.125 C 22.652344 42.445312 22.914062 42.621094 22.949219 42.585938 C 23.046875 42.496094 23.171875 42.523438 23.171875 42.632812 C 23.175781 42.757812 23.285156 42.886719 23.683594 43.230469 C 23.933594 43.449219 23.996094 43.476562 24.152344 43.4375 C 24.292969 43.398438 24.382812 43.421875 24.578125 43.550781 C 24.976562 43.808594 25.214844 43.910156 25.421875 43.910156 C 25.625 43.910156 25.652344 43.964844 25.546875 44.15625 C 25.492188 44.253906 25.503906 44.269531 25.628906 44.269531 C 25.710938 44.269531 25.945312 44.324219 26.144531 44.390625 C 26.597656 44.542969 26.789062 44.550781 26.675781 44.421875 C 26.507812 44.226562 26.683594 44.277344 27.285156 44.601562 C 28.125 45.054688 28.554688 45.105469 30.226562 44.960938 C 30.476562 44.9375 30.554688 44.949219 30.554688 45.011719 C 30.554688 45.0625 30.339844 45.140625 29.945312 45.234375 C 29.425781 45.355469 29.148438 45.375 28.085938 45.390625 C 27.246094 45.398438 26.671875 45.378906 26.34375 45.324219 Z M 25.488281 36.320312 C 25.488281 36.308594 25.410156 36.253906 25.3125 36.199219 L 25.140625 36.097656 L 25.289062 36.222656 C 25.433594 36.339844 25.488281 36.367188 25.488281 36.320312 Z M 34.101562 30.027344 C 34.082031 29.980469 34.066406 29.992188 34.0625 30.0625 C 34.0625 30.128906 34.078125 30.164062 34.097656 30.144531 C 34.117188 30.125 34.117188 30.070312 34.101562 30.027344 Z M 19.863281 23.6875 C 19.941406 23.59375 19.9375 23.589844 19.839844 23.664062 C 19.777344 23.710938 19.730469 23.757812 19.730469 23.773438 C 19.730469 23.820312 19.78125 23.789062 19.863281 23.6875 Z M 20.574219 23.132812 C 20.636719 23.066406 20.671875 23.015625 20.65625 23.015625 C 20.640625 23.015625 20.574219 23.066406 20.511719 23.132812 C 20.449219 23.199219 20.414062 23.253906 20.429688 23.253906 C 20.449219 23.253906 20.511719 23.199219 20.574219 23.132812 Z M 21.363281 22.710938 C 21.570312 22.644531 21.6875 22.632812 21.730469 22.675781 C 21.773438 22.71875 21.933594 22.691406 22.234375 22.597656 C 22.476562 22.519531 22.664062 22.445312 22.652344 22.433594 C 22.636719 22.421875 22.4375 22.46875 22.207031 22.546875 C 21.890625 22.648438 21.777344 22.660156 21.742188 22.605469 C 21.679688 22.511719 21.109375 22.695312 20.867188 22.886719 L 20.699219 23.015625 L 20.878906 22.914062 C 20.976562 22.855469 21.195312 22.765625 21.363281 22.710938 Z M 23.167969 22.558594 C 23.347656 22.507812 23.484375 22.453125 23.472656 22.441406 C 23.445312 22.414062 22.796875 22.59375 22.796875 22.628906 C 22.796875 22.664062 22.800781 22.664062 23.167969 22.558594 Z M 24.203125 22.230469 L 24.453125 22.1875 L 24.234375 22.183594 C 24.113281 22.179688 23.945312 22.21875 23.859375 22.269531 C 23.757812 22.328125 23.746094 22.347656 23.828125 22.320312 C 23.898438 22.296875 24.066406 22.253906 24.203125 22.230469 Z M 24.699219 22.117188 C 24.71875 22.089844 24.679688 22.078125 24.609375 22.09375 C 24.464844 22.132812 24.445312 22.171875 24.574219 22.171875 C 24.625 22.171875 24.679688 22.148438 24.699219 22.117188 Z M 26.71875 22.136719 C 26.699219 22.117188 26.644531 22.113281 26.601562 22.132812 C 26.550781 22.152344 26.566406 22.164062 26.636719 22.167969 C 26.707031 22.171875 26.742188 22.15625 26.722656 22.136719 Z M 26.347656 22.070312 C 26.285156 22.054688 26.1875 22.054688 26.128906 22.070312 C 26.066406 22.085938 26.117188 22.097656 26.238281 22.097656 C 26.359375 22.097656 26.40625 22.085938 26.347656 22.070312 Z M 25.722656 22.007812 C 25.59375 21.996094 25.371094 21.996094 25.222656 22.007812 C 25.074219 22.019531 25.179688 22.03125 25.453125 22.03125 C 25.730469 22.03125 25.851562 22.023438 25.722656 22.007812 Z M 24.90625 21.957031 C 24.882812 21.9375 24.832031 21.933594 24.785156 21.953125 C 24.738281 21.972656 24.75 21.984375 24.824219 21.988281 C 24.890625 21.992188 24.925781 21.976562 24.90625 21.957031 Z M 24.484375 36.390625 C 23.84375 35.953125 23.609375 35.726562 23.609375 35.550781 C 23.609375 35.460938 23.632812 35.382812 23.65625 35.382812 C 23.75 35.382812 24.8125 36.453125 24.789062 36.519531 C 24.777344 36.554688 24.648438 36.503906 24.484375 36.390625 Z M 24.15625 35.277344 C 23.824219 34.957031 23.71875 34.78125 23.851562 34.78125 C 23.929688 34.78125 24.546875 35.460938 24.546875 35.546875 C 24.546875 35.589844 24.539062 35.625 24.53125 35.625 C 24.519531 35.625 24.351562 35.46875 24.15625 35.277344 Z M 27.816406 33.960938 C 27.644531 33.894531 27.75 33.769531 28.035156 33.710938 C 28.199219 33.675781 28.460938 33.597656 28.613281 33.527344 C 28.769531 33.460938 28.90625 33.421875 28.917969 33.433594 C 28.933594 33.445312 28.863281 33.578125 28.765625 33.730469 C 28.585938 34 28.582031 34 28.238281 33.996094 C 28.050781 33.996094 27.859375 33.980469 27.816406 33.960938 Z M 29.695312 32.617188 C 29.523438 32.554688 29.519531 32.445312 29.660156 32.066406 C 29.78125 31.742188 29.90625 31.675781 29.835938 31.976562 C 29.8125 32.082031 29.777344 32.238281 29.761719 32.320312 L 29.734375 32.472656 L 29.859375 32.335938 C 29.933594 32.253906 30 32.0625 30.027344 31.867188 C 30.050781 31.6875 30.09375 31.558594 30.125 31.574219 C 30.199219 31.621094 30.195312 32.09375 30.109375 32.414062 C 30.035156 32.695312 29.96875 32.726562 29.695312 32.617188 Z M 14.886719 31.867188 C 14.867188 31.8125 14.847656 31.609375 14.847656 31.410156 C 14.847656 31.148438 14.871094 31.054688 14.925781 31.074219 C 15.019531 31.105469 15.074219 31.960938 14.984375 31.960938 C 14.953125 31.960938 14.90625 31.917969 14.886719 31.867188 Z M 29.941406 30.460938 C 29.84375 30.335938 29.8125 30.234375 29.839844 30.128906 C 29.898438 29.914062 30.046875 29.945312 30.15625 30.195312 C 30.324219 30.585938 30.175781 30.769531 29.941406 30.460938 Z M 14.875 29.507812 C 14.871094 29.167969 14.875 29.15625 15.03125 29.164062 C 15.164062 29.167969 15.195312 29.203125 15.210938 29.351562 C 15.226562 29.523438 15.035156 29.859375 14.921875 29.859375 C 14.898438 29.859375 14.875 29.703125 14.875 29.507812 Z M 31.09375 22.125 C 31.101562 21.589844 31.195312 21.40625 31.269531 21.78125 C 31.320312 22.042969 31.257812 22.507812 31.15625 22.585938 C 31.101562 22.628906 31.085938 22.511719 31.09375 22.125 Z M 22.871094 21.804688 C 22.898438 21.730469 23.757812 21.390625 23.917969 21.390625 C 24.105469 21.390625 23.773438 21.613281 23.382812 21.742188 C 22.953125 21.890625 22.835938 21.902344 22.871094 21.804688 Z M 22.871094 21.804688 "/>
<path style="fill:none;stroke-width:9;stroke-linecap:butt;stroke-linejoin:miter;stroke:rgb(100%,100%,100%);stroke-opacity:1;stroke-miterlimit:4;" d="M 119.466146 689.04024 L 119.913737 636.916216 C 119.913737 636.916216 159.790039 631.097531 160.31901 663.446164 C 160.847982 695.794797 119.466146 689.04024 119.466146 689.04024 Z M 119.466146 689.04024 " transform="matrix(0.096,0,0,0.096,0,-53.026769)"/>
<path style="fill:none;stroke-width:9;stroke-linecap:butt;stroke-linejoin:miter;stroke:rgb(100%,100%,100%);stroke-opacity:1;stroke-miterlimit:4;" d="M 228.190104 635.410682 L 228.190104 688.389198 L 248.413086 688.389198 C 248.413086 688.389198 264.200846 689.203 263.671875 674.432492 C 263.142904 659.661984 249.633789 659.946815 249.633789 659.946815 L 231.486003 659.946815 L 249.430339 659.743365 C 249.430339 659.743365 260.579427 659.417844 260.457357 647.048052 C 260.294596 634.67826 244.995117 635.410682 244.995117 635.410682 Z M 228.190104 635.410682 " transform="matrix(0.096,0,0,0.096,0,-53.026769)"/>
</g>
</svg>
