<?xml version="1.0" encoding="UTF-8"?>
<svg xmlns="http://www.w3.org/2000/svg" xmlns:xlink="http://www.w3.org/1999/xlink" width="48" height="48" viewBox="0 0 48 48" version="1.1">
<g id="surface1">
<path style=" stroke:none;fill-rule:evenodd;fill:rgb(0%,26.666667%,33.333333%);fill-opacity:1;" d="M 6.050781 14.769531 L 11.160156 19.769531 L 11 12.757812 L 6.046875 12.734375 Z M 6.050781 14.769531 "/>
<path style="fill-rule:evenodd;fill:rgb(94.901961%,94.901961%,94.901961%);fill-opacity:1;stroke-width:5.03546;stroke-linecap:butt;stroke-linejoin:miter;stroke:rgb(68.627451%,68.627451%,68.627451%);stroke-opacity:1;stroke-miterlimit:4;" d="M 97.045898 1029.819862 L 433.919271 1028.680539 L 435.099284 664.788937 L 347.045898 575.555539 L 97.045898 575.555539 Z M 97.045898 1029.819862 " transform="matrix(0.096,0,0,0.096,0,-53.026769)"/>
<path style=" stroke:none;fill-rule:nonzero;fill:rgb(21.568627%,67.058824%,78.431373%);fill-opacity:1;" d="M 24.390625 21.546875 C 24.242188 21.945312 24.070312 22.347656 23.898438 22.734375 C 23.882812 22.769531 23.859375 22.796875 23.847656 22.832031 C 23.6875 23.183594 23.527344 23.515625 23.355469 23.855469 C 23.316406 23.925781 23.285156 24 23.25 24.070312 C 23.09375 24.371094 22.925781 24.679688 22.757812 24.972656 C 22.699219 25.078125 22.636719 25.183594 22.578125 25.28125 C 21.078125 27.792969 19.109375 30.414062 17.550781 32.617188 C 16.320312 34.273438 15.609375 36.058594 15.398438 37.785156 C 15.398438 42.0625 19.421875 45.546875 24.390625 45.546875 C 29.359375 45.546875 33.378906 42.0625 33.378906 37.785156 C 33.378906 35.085938 31.226562 32.3125 28.742188 28.757812 C 27.957031 27.65625 27.195312 26.496094 26.515625 25.402344 C 26.144531 24.804688 25.78125 24.1875 25.425781 23.546875 C 25.316406 23.34375 25.199219 23.132812 25.089844 22.925781 C 24.855469 22.480469 24.613281 22.015625 24.390625 21.546875 Z M 24.390625 21.546875 "/>
<path style=" stroke:none;fill-rule:nonzero;fill:rgb(0%,53.333333%,66.666667%);fill-opacity:1;" d="M 17.53125 32.617188 C 16.296875 34.273438 15.585938 36.058594 15.378906 37.785156 C 15.378906 42.0625 19.398438 45.546875 24.367188 45.546875 C 29.335938 45.546875 33.359375 42.0625 33.359375 37.785156 C 16.644531 42.78125 19.097656 31.695312 25.6875 33.589844 C 32.941406 35.671875 28.828125 30.59375 24.074219 30.054688 C 20.242188 29.625 17.53125 32.617188 17.53125 32.617188 Z M 17.53125 32.617188 "/>
<path style="fill-rule:evenodd;fill:rgb(68.627451%,68.627451%,68.627451%);fill-opacity:1;stroke-width:5.03546;stroke-linecap:butt;stroke-linejoin:miter;stroke:rgb(68.627451%,68.627451%,68.627451%);stroke-opacity:1;stroke-miterlimit:4;" d="M 431.518555 662.917193 L 349.365234 662.347531 L 350.097656 578.566607 Z M 431.518555 662.917193 " transform="matrix(0.096,0,0,0.096,0,-53.026769)"/>
<path style=" stroke:none;fill-rule:nonzero;fill:rgb(0%,53.333333%,66.666667%);fill-opacity:1;" d="M 6.0625 6.703125 L 27.65625 6.703125 L 27.65625 14.800781 L 6.0625 14.800781 Z M 6.0625 6.703125 "/>
<path style="fill:none;stroke-width:9;stroke-linecap:butt;stroke-linejoin:miter;stroke:rgb(100%,100%,100%);stroke-opacity:1;stroke-miterlimit:4;" d="M 133.361168 354.159643 L 133.279788 304.680477 " transform="matrix(0.096,0,0,0.096,-1.470641,-20.718076)"/>
<path style=" stroke:none;fill-rule:nonzero;fill:rgb(100%,100%,100%);fill-opacity:1;" d="M 10.917969 7.304688 L 11.765625 7.304688 L 11.765625 8.136719 L 10.917969 8.136719 Z M 10.917969 7.304688 "/>
<path style="fill:none;stroke-width:9;stroke-linecap:butt;stroke-linejoin:miter;stroke:rgb(100%,100%,100%);stroke-opacity:1;stroke-miterlimit:4;" d="M 122.784363 699.624617 L 122.784363 642.332951 " transform="matrix(0.096,0,0,0.096,3.03692,-53.933495)"/>
<path style="fill:none;stroke-width:8.670217;stroke-linecap:butt;stroke-linejoin:miter;stroke:rgb(100%,100%,100%);stroke-opacity:1;stroke-miterlimit:4;" d="M 96.213725 642.739852 L 149.395691 642.739852 " transform="matrix(0.096,0,0,0.096,3.03692,-53.933495)"/>
<path style="fill:none;stroke-width:9;stroke-linecap:butt;stroke-linejoin:miter;stroke:rgb(100%,100%,100%);stroke-opacity:1;stroke-miterlimit:4;" d="M 236.938477 633.376177 L 275.146484 633.945839 L 240.437826 689.04024 " transform="matrix(0.096,0,0,0.096,0,-53.026769)"/>
<path style="fill:none;stroke-width:9;stroke-linecap:round;stroke-linejoin:round;stroke:rgb(100%,100%,100%);stroke-opacity:1;stroke-miterlimit:4;" d="M 210.245768 686.517453 C 202.921549 686.842974 193.562826 683.547076 193.359375 672.886268 C 193.196615 662.266151 210.489909 659.092323 210.489909 659.092323 C 210.489909 659.092323 194.580078 654.250201 195.027669 644.891477 C 195.43457 635.532753 204.549154 632.318234 210.693359 632.521685 C 216.837565 632.725135 225.179036 635.980344 225.301107 645.705279 C 225.423177 655.430214 210.489909 658.278521 210.489909 658.278521 C 210.489909 658.278521 227.416992 662.673052 227.172852 672.886268 C 226.888021 683.140174 217.610677 686.191932 210.245768 686.517453 Z M 210.245768 686.517453 " transform="matrix(0.096,0,0,0.096,0,-53.026769)"/>
</g>
</svg>
