<?xml version="1.0" encoding="UTF-8"?>
<svg xmlns="http://www.w3.org/2000/svg" xmlns:xlink="http://www.w3.org/1999/xlink" width="48" height="48" viewBox="0 0 48 48" version="1.1">
<g id="surface1">
<path style=" stroke:none;fill-rule:evenodd;fill:rgb(66.666667%,26.666667%,0%);fill-opacity:1;" d="M 6.050781 14.769531 L 11.160156 19.769531 L 11 12.757812 L 6.046875 12.734375 Z M 6.050781 14.769531 "/>
<path style="fill-rule:evenodd;fill:rgb(94.901961%,94.901961%,94.901961%);fill-opacity:1;stroke-width:5.03546;stroke-linecap:butt;stroke-linejoin:miter;stroke:rgb(68.627451%,68.627451%,68.627451%);stroke-opacity:1;stroke-miterlimit:4;" d="M 97.045898 1029.819862 L 433.919271 1028.680539 L 435.099284 664.788937 L 347.045898 575.555539 L 97.045898 575.555539 Z M 97.045898 1029.819862 " transform="matrix(0.096,0,0,0.096,0,-53.026769)"/>
<path style="fill-rule:evenodd;fill:rgb(68.627451%,68.627451%,68.627451%);fill-opacity:1;stroke-width:5.03546;stroke-linecap:butt;stroke-linejoin:miter;stroke:rgb(68.627451%,68.627451%,68.627451%);stroke-opacity:1;stroke-miterlimit:4;" d="M 431.518555 662.917193 L 349.365234 662.347531 L 350.097656 578.566607 Z M 431.518555 662.917193 " transform="matrix(0.096,0,0,0.096,0,-53.026769)"/>
<path style=" stroke:none;fill-rule:nonzero;fill:rgb(100%,40%,0%);fill-opacity:1;" d="M 6.0625 6.703125 L 31.851562 6.703125 L 31.851562 14.800781 L 6.0625 14.800781 Z M 6.0625 6.703125 "/>
<path style="fill:none;stroke-width:19.110014;stroke-linecap:butt;stroke-linejoin:miter;stroke:rgb(100%,40%,0%);stroke-opacity:1;stroke-miterlimit:4;" d="M 236.002604 1014.479693 C 236.002604 1014.479693 196.085612 1017.002479 198.608398 961.460487 C 201.090495 905.959185 162.963867 908.481971 162.963867 908.481971 " transform="matrix(0.096,0,0,0.096,0,-53.026769)"/>
<path style="fill:none;stroke-width:19.110014;stroke-linecap:butt;stroke-linejoin:miter;stroke:rgb(100%,40%,0%);stroke-opacity:1;stroke-miterlimit:4;" d="M 236.002604 783.644732 C 236.002604 783.644732 196.085612 781.121945 198.608398 836.623247 C 201.090495 892.16524 162.963867 889.642453 162.963867 889.642453 " transform="matrix(0.096,0,0,0.096,0,-53.026769)"/>
<path style="fill:none;stroke-width:19.110014;stroke-linecap:butt;stroke-linejoin:miter;stroke:rgb(100%,40%,0%);stroke-opacity:1;stroke-miterlimit:4;" d="M 301.635742 1014.479693 C 301.635742 1014.479693 341.552734 1017.002479 339.070638 961.460487 C 336.547852 905.959185 374.674479 908.481971 374.674479 908.481971 " transform="matrix(0.096,0,0,0.096,0,-53.026769)"/>
<path style="fill:none;stroke-width:19.110014;stroke-linecap:butt;stroke-linejoin:miter;stroke:rgb(100%,40%,0%);stroke-opacity:1;stroke-miterlimit:4;" d="M 301.635742 783.644732 C 301.635742 783.644732 341.552734 781.121945 339.070638 836.623247 C 336.547852 892.16524 374.674479 889.642453 374.674479 889.642453 " transform="matrix(0.096,0,0,0.096,0,-53.026769)"/>
</g>
</svg>
