<?xml version="1.0" encoding="UTF-8"?>
<svg xmlns="http://www.w3.org/2000/svg" xmlns:xlink="http://www.w3.org/1999/xlink" width="48" height="48" viewBox="0 0 48 48" version="1.1">
<g id="surface1">
<path style=" stroke:none;fill-rule:evenodd;fill:rgb(15.686275%,9.019608%,4.313725%);fill-opacity:1;" d="M 6.050781 14.769531 L 11.160156 19.769531 L 11 12.757812 L 6.046875 12.734375 Z M 6.050781 14.769531 "/>
<path style="fill-rule:evenodd;fill:rgb(94.901961%,94.901961%,94.901961%);fill-opacity:1;stroke-width:5.03546;stroke-linecap:butt;stroke-linejoin:miter;stroke:rgb(68.627451%,68.627451%,68.627451%);stroke-opacity:1;stroke-miterlimit:4;" d="M 97.045898 1029.819862 L 433.919271 1028.680539 L 435.099284 664.788937 L 347.045898 575.555539 L 97.045898 575.555539 Z M 97.045898 1029.819862 " transform="matrix(0.096,0,0,0.096,0,-53.026769)"/>
<path style="fill-rule:evenodd;fill:rgb(68.627451%,68.627451%,68.627451%);fill-opacity:1;stroke-width:5.03546;stroke-linecap:butt;stroke-linejoin:miter;stroke:rgb(68.627451%,68.627451%,68.627451%);stroke-opacity:1;stroke-miterlimit:4;" d="M 431.518555 662.917193 L 349.365234 662.347531 L 350.097656 578.566607 Z M 431.518555 662.917193 " transform="matrix(0.096,0,0,0.096,0,-53.026769)"/>
<path style=" stroke:none;fill-rule:nonzero;fill:rgb(31.372549%,17.647059%,8.627451%);fill-opacity:1;" d="M 6.0625 6.703125 L 27.65625 6.703125 L 27.65625 14.800781 L 6.0625 14.800781 Z M 6.0625 6.703125 "/>
<path style=" stroke:none;fill-rule:nonzero;fill:rgb(80%,80%,80%);fill-opacity:1;" d="M 16.945312 28.601562 C 16.945312 28.601562 17.265625 27.023438 26.128906 27.011719 C 34.996094 27 35.351562 28.742188 35.351562 28.742188 L 34.558594 31.390625 L 17.953125 31.453125 Z M 16.945312 28.601562 "/>
<path style=" stroke:none;fill-rule:nonzero;fill:rgb(80%,80%,80%);fill-opacity:1;" d="M 38.203125 40.617188 C 38.542969 43.007812 33.453125 45.046875 26.835938 45.171875 C 20.21875 45.296875 14.578125 43.457031 14.234375 41.0625 C 13.890625 38.671875 18.972656 36.628906 25.589844 36.503906 C 32.203125 36.378906 37.851562 38.214844 38.203125 40.609375 "/>
<path style=" stroke:none;fill-rule:nonzero;fill:rgb(50.196078%,50.196078%,50.196078%);fill-opacity:1;" d="M 33.023438 40.554688 C 33.21875 41.902344 30.34375 43.054688 26.609375 43.125 C 22.871094 43.195312 19.6875 42.15625 19.492188 40.804688 C 19.296875 39.453125 22.167969 38.300781 25.902344 38.230469 C 29.636719 38.160156 32.828125 39.195312 33.023438 40.546875 "/>
<path style=" stroke:none;fill-rule:nonzero;fill:rgb(31.372549%,17.647059%,8.627451%);fill-opacity:1;" d="M 34.714844 29.945312 C 34.953125 30.992188 31.398438 31.886719 26.777344 31.9375 C 22.15625 31.992188 18.214844 31.1875 17.976562 30.140625 C 17.734375 29.09375 21.285156 28.203125 25.90625 28.148438 C 30.527344 28.089844 34.46875 28.894531 34.714844 29.941406 "/>
<path style="fill:none;stroke-width:12.0954;stroke-linecap:butt;stroke-linejoin:miter;stroke:rgb(50.196078%,50.196078%,50.196078%);stroke-opacity:1;stroke-miterlimit:4;" d="M 349.161784 925.042844 C 349.161784 925.042844 367.22819 927.687701 374.674479 923.171099 C 382.120768 918.613807 387.125651 908.481971 386.962891 900.588091 C 386.75944 892.694211 382.8125 886.468625 376.993815 883.294797 C 371.17513 880.080279 357.991536 882.806516 357.991536 882.806516 " transform="matrix(0.096,0,0,0.096,0,-53.026769)"/>
<path style=" stroke:none;fill-rule:nonzero;fill:rgb(70.196078%,70.196078%,70.196078%);fill-opacity:1;" d="M 16.933594 28.566406 C 17.578125 35.9375 19.289062 41.539062 25.976562 41.835938 C 32.660156 42.136719 34.769531 34.960938 35.371094 28.746094 C 35.371094 28.746094 33.855469 30.320312 25.617188 30.214844 C 17.378906 30.109375 16.933594 28.566406 16.933594 28.566406 Z M 16.933594 28.566406 "/>
</g>
</svg>
