<?xml version="1.0" encoding="UTF-8"?>
<svg xmlns="http://www.w3.org/2000/svg" xmlns:xlink="http://www.w3.org/1999/xlink" width="48" height="48" viewBox="0 0 48 48" version="1.1">
<g id="surface1">
<path style=" stroke:none;fill-rule:evenodd;fill:rgb(50.196078%,50.196078%,50.196078%);fill-opacity:1;" d="M 6.050781 14.769531 L 11.160156 19.769531 L 11 12.757812 L 6.046875 12.734375 Z M 6.050781 14.769531 "/>
<path style="fill-rule:evenodd;fill:rgb(94.901961%,94.901961%,94.901961%);fill-opacity:1;stroke-width:5.03546;stroke-linecap:butt;stroke-linejoin:miter;stroke:rgb(68.627451%,68.627451%,68.627451%);stroke-opacity:1;stroke-miterlimit:4;" d="M 97.045898 1029.819862 L 433.919271 1028.680539 L 435.099284 664.788937 L 347.045898 575.555539 L 97.045898 575.555539 Z M 97.045898 1029.819862 " transform="matrix(0.096,0,0,0.096,0,-53.026769)"/>
<path style="fill-rule:evenodd;fill:rgb(68.627451%,68.627451%,68.627451%);fill-opacity:1;stroke-width:5.03546;stroke-linecap:butt;stroke-linejoin:miter;stroke:rgb(68.627451%,68.627451%,68.627451%);stroke-opacity:1;stroke-miterlimit:4;" d="M 431.518555 662.917193 L 349.365234 662.347531 L 350.097656 578.566607 Z M 431.518555 662.917193 " transform="matrix(0.096,0,0,0.096,0,-53.026769)"/>
<path style=" stroke:none;fill-rule:nonzero;fill:rgb(60%,60%,60%);fill-opacity:1;" d="M 6.0625 6.703125 L 27.65625 6.703125 L 27.65625 14.800781 L 6.0625 14.800781 Z M 6.0625 6.703125 "/>
<path style=" stroke:none;fill-rule:nonzero;fill:rgb(80%,80%,80%);fill-opacity:1;" d="M 15.875 21.3125 L 34.078125 21.3125 C 35.679688 21.3125 36.976562 22.898438 36.976562 24.855469 L 36.976562 41.765625 C 36.976562 43.722656 35.679688 45.3125 34.078125 45.3125 L 15.875 45.3125 C 14.273438 45.3125 12.976562 43.722656 12.976562 41.765625 L 12.976562 24.855469 C 12.976562 22.898438 14.273438 21.3125 15.875 21.3125 Z M 15.875 21.3125 "/>
<path style=" stroke:none;fill-rule:nonzero;fill:rgb(70.196078%,70.196078%,70.196078%);fill-opacity:1;" d="M 17.824219 24.046875 L 31.984375 24.046875 C 33.230469 24.046875 34.238281 25.28125 34.238281 26.804688 L 34.238281 39.953125 C 34.238281 41.476562 33.230469 42.714844 31.984375 42.714844 L 17.824219 42.714844 C 16.582031 42.714844 15.574219 41.476562 15.574219 39.953125 L 15.574219 26.804688 C 15.574219 25.28125 16.582031 24.046875 17.824219 24.046875 Z M 17.824219 24.046875 "/>
<path style=" stroke:none;fill-rule:nonzero;fill:rgb(22.352941%,25.098039%,31.372549%);fill-opacity:1;" d="M 26.136719 37.699219 L 22.453125 28.746094 L 21.441406 28.746094 L 17.734375 37.699219 L 19.003906 37.699219 L 20.148438 34.757812 L 23.683594 34.757812 L 24.855469 37.699219 Z M 23.242188 33.757812 L 20.582031 33.757812 L 21.949219 30.089844 Z M 23.242188 33.757812 "/>
<path style=" stroke:none;fill-rule:nonzero;fill:rgb(22.352941%,25.098039%,31.372549%);fill-opacity:1;" d="M 28.816406 37.871094 C 29.605469 37.871094 30.320312 37.589844 30.945312 37.046875 L 31.132812 37.871094 L 32.214844 37.640625 C 32.042969 37.023438 31.957031 36.480469 31.957031 36.011719 L 31.957031 33.921875 C 31.957031 32.121094 31.09375 31.222656 29.332031 31.222656 C 28.582031 31.222656 27.78125 31.347656 26.945312 31.59375 L 27.066406 32.636719 C 27.867188 32.332031 28.605469 32.183594 29.273438 32.183594 C 30.171875 32.183594 30.675781 32.652344 30.800781 33.574219 C 27.992188 33.613281 26.585938 34.414062 26.585938 35.976562 C 26.585938 37.160156 27.585938 37.871094 28.816406 37.871094 Z M 30.800781 35.707031 C 30.800781 36.382812 29.628906 36.851562 28.867188 36.851562 C 28.140625 36.851562 27.769531 36.519531 27.769531 35.867188 C 27.769531 35.050781 28.792969 34.621094 30.800781 34.585938 Z M 30.800781 35.707031 "/>
<path style="fill:none;stroke-width:9;stroke-linecap:butt;stroke-linejoin:bevel;stroke:rgb(100%,100%,100%);stroke-opacity:1;stroke-miterlimit:4;" d="M 915.685172 696.267105 L 937.826286 638.00527 L 960.573452 696.267105 " transform="matrix(0.096681,0,0,0.096681,-77.564514,-53.686894)"/>
<path style="fill:none;stroke-width:9;stroke-linecap:butt;stroke-linejoin:miter;stroke:rgb(100%,100%,100%);stroke-opacity:1;stroke-miterlimit:4;" d="M 924.57394 676.752219 L 950.351368 676.752219 " transform="matrix(0.096681,0,0,0.096681,-77.564514,-53.686894)"/>
<path style="fill:none;stroke-width:9;stroke-linecap:butt;stroke-linejoin:miter;stroke:rgb(100%,100%,100%);stroke-opacity:1;stroke-miterlimit:4;" d="M 233.401227 692.526905 L 233.808128 640.809783 L 268.231956 640.931853 " transform="matrix(0.096,0,0,0.096,-5.41433,-53.119302)"/>
<path style="fill:none;stroke-width:9;stroke-linecap:butt;stroke-linejoin:miter;stroke:rgb(100%,100%,100%);stroke-opacity:1;stroke-miterlimit:4;" d="M 236.127464 664.572803 L 265.261578 664.735564 " transform="matrix(0.096,0,0,0.096,-5.41433,-53.119302)"/>
<path style="fill:none;stroke-width:9;stroke-linecap:butt;stroke-linejoin:miter;stroke:rgb(100%,100%,100%);stroke-opacity:1;stroke-miterlimit:4;" d="M 227.661133 692.98718 L 227.986654 638.42175 L 232.991536 638.218299 L 248.860677 679.518755 L 252.237956 679.518755 L 268.188477 638.218299 L 273.4375 638.136919 L 273.4375 693.14994 " transform="matrix(0.096,0,0,0.096,0,-53.026769)"/>
</g>
</svg>
