<?xml version="1.0" encoding="UTF-8"?>
<svg xmlns="http://www.w3.org/2000/svg" xmlns:xlink="http://www.w3.org/1999/xlink" width="48" height="48" viewBox="0 0 48 48" version="1.1">
<g id="surface1">
<path style=" stroke:none;fill-rule:evenodd;fill:rgb(20%,20%,20%);fill-opacity:1;" d="M 6.050781 14.289062 L 11.160156 19.289062 L 11 12.277344 L 6.046875 12.253906 Z M 6.050781 14.289062 "/>
<path style="fill-rule:evenodd;fill:rgb(94.901961%,94.901961%,94.901961%);fill-opacity:1;stroke-width:5.03546;stroke-linecap:butt;stroke-linejoin:miter;stroke:rgb(68.627451%,68.627451%,68.627451%);stroke-opacity:1;stroke-miterlimit:4;" d="M 97.045898 1024.814979 L 433.919271 1023.675656 L 435.099284 659.784055 L 347.045898 570.550656 L 97.045898 570.550656 Z M 97.045898 1024.814979 " transform="matrix(0.096,0,0,0.096,0,-53.026769)"/>
<path style="fill-rule:evenodd;fill:rgb(68.627451%,68.627451%,68.627451%);fill-opacity:1;stroke-width:5.03546;stroke-linecap:butt;stroke-linejoin:miter;stroke:rgb(68.627451%,68.627451%,68.627451%);stroke-opacity:1;stroke-miterlimit:4;" d="M 431.518555 657.953 L 349.365234 657.342648 L 350.097656 573.561724 Z M 431.518555 657.953 " transform="matrix(0.096,0,0,0.096,0,-53.026769)"/>
<path style=" stroke:none;fill-rule:nonzero;fill:rgb(22.352941%,25.098039%,31.372549%);fill-opacity:1;" d="M 6.0625 6.222656 L 27.65625 6.222656 L 27.65625 14.320312 L 6.0625 14.320312 Z M 6.0625 6.222656 "/>
<path style=" stroke:none;fill-rule:evenodd;fill:rgb(60%,60%,60%);fill-opacity:1;" d="M 28.601562 44.726562 C 22.195312 46.421875 15.628906 42.605469 13.933594 36.203125 C 12.238281 29.796875 16.054688 23.230469 22.460938 21.53125 L 25.324219 32.34375 C 24.886719 32.460938 24.628906 32.90625 24.742188 33.339844 C 24.859375 33.773438 25.304688 34.03125 25.738281 33.917969 Z M 22.460938 21.53125 C 28.863281 19.835938 35.429688 23.65625 37.128906 30.058594 C 38.824219 36.464844 35.007812 43.03125 28.601562 44.726562 L 25.738281 33.917969 C 26.171875 33.800781 26.429688 33.355469 26.316406 32.921875 C 26.203125 32.488281 25.757812 32.230469 25.324219 32.34375 Z M 22.460938 21.53125 "/>
<path style=" stroke:none;fill-rule:evenodd;fill:rgb(80%,80%,80%);fill-opacity:1;" d="M 28.601562 44.726562 C 22.195312 46.421875 15.628906 42.605469 13.933594 36.203125 C 12.238281 29.796875 16.054688 23.230469 22.460938 21.53125 L 25.324219 32.34375 C 24.886719 32.460938 24.628906 32.90625 24.742188 33.339844 C 24.859375 33.773438 25.304688 34.03125 25.738281 33.917969 Z M 22.460938 21.53125 C 28.863281 19.835938 35.429688 23.65625 37.128906 30.058594 C 38.824219 36.464844 35.007812 43.03125 28.601562 44.726562 L 25.738281 33.917969 C 26.171875 33.800781 26.429688 33.355469 26.316406 32.921875 C 26.203125 32.488281 25.757812 32.230469 25.324219 32.34375 Z M 22.460938 21.53125 "/>
<path style=" stroke:none;fill-rule:evenodd;fill:rgb(36.470588%,41.568627%,48.235294%);fill-opacity:1;" d="M 26.628906 37.273438 C 24.339844 37.878906 21.992188 36.515625 21.386719 34.226562 C 20.78125 31.9375 22.144531 29.59375 24.433594 28.984375 L 25.324219 32.34375 C 24.886719 32.460938 24.628906 32.90625 24.742188 33.339844 C 24.859375 33.773438 25.304688 34.03125 25.738281 33.917969 Z M 24.433594 28.984375 C 26.722656 28.382812 29.070312 29.746094 29.675781 32.03125 C 30.28125 34.320312 28.914062 36.667969 26.628906 37.273438 L 25.738281 33.917969 C 26.171875 33.800781 26.429688 33.355469 26.316406 32.921875 C 26.203125 32.488281 25.757812 32.230469 25.324219 32.34375 Z M 24.433594 28.984375 "/>
<path style=" stroke:none;fill-rule:evenodd;fill:rgb(60%,60%,60%);fill-opacity:1;" d="M 26.449219 36.609375 C 24.53125 37.117188 22.5625 35.96875 22.054688 34.050781 C 21.546875 32.132812 22.691406 30.164062 24.609375 29.65625 L 25.324219 32.34375 C 24.886719 32.460938 24.628906 32.90625 24.742188 33.339844 C 24.859375 33.773438 25.304688 34.03125 25.738281 33.917969 Z M 24.609375 29.65625 C 26.53125 29.144531 28.5 30.289062 29.007812 32.210938 C 29.515625 34.128906 28.371094 36.101562 26.449219 36.609375 L 25.738281 33.917969 C 26.171875 33.800781 26.429688 33.359375 26.316406 32.921875 C 26.203125 32.488281 25.757812 32.230469 25.324219 32.34375 Z M 24.609375 29.65625 "/>
<path style=" stroke:none;fill-rule:evenodd;fill:rgb(36.470588%,41.568627%,48.235294%);fill-opacity:1;" d="M 25.917969 34.59375 C 25.109375 34.808594 24.28125 34.324219 24.066406 33.519531 C 23.851562 32.710938 24.335938 31.882812 25.144531 31.667969 L 25.324219 32.34375 C 24.886719 32.460938 24.628906 32.90625 24.742188 33.339844 C 24.859375 33.773438 25.304688 34.03125 25.738281 33.917969 Z M 25.144531 31.667969 C 25.953125 31.453125 26.777344 31.933594 26.992188 32.742188 C 27.207031 33.550781 26.726562 34.378906 25.917969 34.59375 L 25.738281 33.917969 C 26.171875 33.800781 26.429688 33.355469 26.316406 32.921875 C 26.203125 32.488281 25.757812 32.230469 25.324219 32.34375 Z M 25.144531 31.667969 "/>
<path style=" stroke:none;fill-rule:nonzero;fill:rgb(22.352941%,25.098039%,31.372549%);fill-opacity:1;" d="M 29.800781 42.421875 C 28.257812 43.25 25.910156 42.960938 25.285156 41.628906 C 24.65625 40.296875 25.675781 38.847656 27.34375 37.914062 C 29.007812 36.980469 30.636719 37.664062 30.636719 37.664062 L 30.753906 25.816406 L 31.953125 26.203125 L 32.738281 28.078125 C 32.738281 28.078125 35.640625 29.628906 36.3125 33.179688 C 36.980469 36.730469 32.78125 39.511719 32.78125 39.511719 C 32.78125 39.511719 36.320312 35.796875 35.449219 33.058594 C 34.578125 30.324219 31.882812 30.039062 31.882812 30.039062 L 31.960938 39.785156 C 31.960938 39.785156 31.347656 41.59375 29.800781 42.421875 Z M 29.800781 42.421875 "/>
<path style="fill:none;stroke-width:9;stroke-linecap:butt;stroke-linejoin:miter;stroke:rgb(100%,100%,100%);stroke-opacity:1;stroke-miterlimit:4;" d="M 153.564453 639.479693 C 153.564453 639.479693 145.914714 632.684445 132.039388 633.742388 C 118.123372 634.841021 110.270182 650.669471 111.002604 662.673052 C 111.735026 674.676633 122.273763 688.918169 135.864258 687.778846 C 149.454753 686.598833 153.564453 681.797401 153.564453 681.797401 " transform="matrix(0.096,0,0,0.096,0,-53.026769)"/>
<path style="fill:none;stroke-width:9;stroke-linecap:butt;stroke-linejoin:miter;stroke:rgb(100%,100%,100%);stroke-opacity:1;stroke-miterlimit:4;" d="M 168.375651 686.720904 L 168.863932 634.59688 C 168.863932 634.59688 208.740234 628.778195 209.269206 661.126828 C 209.757487 693.475461 168.375651 686.720904 168.375651 686.720904 Z M 168.375651 686.720904 " transform="matrix(0.096,0,0,0.096,0,-53.026769)"/>
<path style="fill:none;stroke-width:9;stroke-linecap:butt;stroke-linejoin:bevel;stroke:rgb(100%,100%,100%);stroke-opacity:1;stroke-miterlimit:4;" d="M 915.693204 696.274783 L 937.834317 638.012947 L 960.581483 696.274783 " transform="matrix(0.096681,0,0,0.096681,-67.424666,-53.984511)"/>
<path style="fill:none;stroke-width:9;stroke-linecap:butt;stroke-linejoin:miter;stroke:rgb(100%,100%,100%);stroke-opacity:1;stroke-miterlimit:4;" d="M 924.581972 676.759896 L 950.3594 676.759896 " transform="matrix(0.096681,0,0,0.096681,-67.424666,-53.984511)"/>
</g>
</svg>
