<?xml version="1.0" encoding="UTF-8"?>
<svg xmlns="http://www.w3.org/2000/svg" xmlns:xlink="http://www.w3.org/1999/xlink" width="48" height="48" viewBox="0 0 48 48" version="1.1">
<g id="surface1">
<path style=" stroke:none;fill-rule:evenodd;fill:rgb(84.705882%,14.901961%,0%);fill-opacity:1;" d="M 6.148438 14.289062 L 11.257812 19.289062 L 11.097656 12.277344 L 6.144531 12.253906 Z M 6.148438 14.289062 "/>
<path style="fill-rule:evenodd;fill:rgb(94.901961%,94.901961%,94.901961%);fill-opacity:1;stroke-width:5.03546;stroke-linecap:butt;stroke-linejoin:miter;stroke:rgb(68.627451%,68.627451%,68.627451%);stroke-opacity:1;stroke-miterlimit:4;" d="M 98.022461 1024.814979 L 434.936523 1023.675656 L 436.075846 659.784055 L 348.063151 570.550656 L 98.022461 570.550656 Z M 98.022461 1024.814979 " transform="matrix(0.096,0,0,0.096,0,-53.026769)"/>
<path style="fill-rule:evenodd;fill:rgb(68.627451%,68.627451%,68.627451%);fill-opacity:1;stroke-width:5.03546;stroke-linecap:butt;stroke-linejoin:miter;stroke:rgb(68.627451%,68.627451%,68.627451%);stroke-opacity:1;stroke-miterlimit:4;" d="M 432.535807 657.953 L 350.341797 657.342648 L 351.114909 573.561724 Z M 432.535807 657.953 " transform="matrix(0.096,0,0,0.096,0,-53.026769)"/>
<path style=" stroke:none;fill-rule:nonzero;fill:rgb(94.117647%,22.352941%,8.627451%);fill-opacity:1;" d="M 6.15625 6.222656 L 27.75 6.222656 L 27.75 14.320312 L 6.15625 14.320312 Z M 6.15625 6.222656 "/>
<path style=" stroke:none;fill-rule:nonzero;fill:rgb(94.117647%,22.352941%,8.627451%);fill-opacity:1;" d="M 25.53125 21.082031 C 32.15625 21.082031 37.53125 26.453125 37.53125 33.082031 C 37.53125 39.710938 32.15625 45.082031 25.53125 45.082031 C 18.902344 45.082031 13.53125 39.710938 13.53125 33.082031 C 13.53125 26.453125 18.902344 21.082031 25.53125 21.082031 Z M 25.53125 21.082031 "/>
<path style=" stroke:none;fill-rule:nonzero;fill:rgb(100%,100%,100%);fill-opacity:1;" d="M 29.851562 27.683594 L 29.851562 29.859375 C 27.679688 29.894531 27.148438 32.011719 27.148438 32.011719 L 28.785156 32.011719 L 28.785156 34.183594 L 26.246094 34.183594 C 24.722656 38.890625 21.210938 38.472656 21.210938 38.472656 L 21.210938 36.296875 C 21.210938 36.296875 23.4375 36.710938 24.574219 32.5625 C 25.996094 27.375 29.851562 27.683594 29.851562 27.683594 Z M 29.851562 27.683594 "/>
<path style="fill:none;stroke-width:9;stroke-linecap:butt;stroke-linejoin:miter;stroke:rgb(100%,100%,100%);stroke-opacity:1;stroke-miterlimit:4;" d="M 233.388613 692.527798 L 233.795514 640.810676 L 268.260033 640.932746 " transform="matrix(0.096,0,0,0.096,0.305631,-53.748294)"/>
<path style="fill:none;stroke-width:9;stroke-linecap:butt;stroke-linejoin:miter;stroke:rgb(100%,100%,100%);stroke-opacity:1;stroke-miterlimit:4;" d="M 236.11485 664.573697 L 265.248965 664.736457 " transform="matrix(0.096,0,0,0.096,0.305631,-53.748294)"/>
<path style="fill:none;stroke-width:10;stroke-linecap:butt;stroke-linejoin:miter;stroke:rgb(100%,100%,100%);stroke-opacity:1;stroke-miterlimit:4;" d="M 147.908529 634.759641 C 147.908529 634.759641 138.671875 630.48718 129.842122 630.405799 C 121.05306 630.283729 115.600586 635.614133 115.275065 643.223182 C 114.990234 650.832232 119.222005 656.895057 134.358724 658.685422 C 149.536133 660.435096 148.60026 673.65938 146.769206 678.338742 C 144.897461 682.977414 136.067708 687.412635 127.075195 686.191932 C 118.082682 684.971229 110.636393 680.983599 110.636393 680.983599 " transform="matrix(0.096,0,0,0.096,0,-53.026769)"/>
<path style="fill:none;stroke-width:9;stroke-linecap:butt;stroke-linejoin:miter;stroke:rgb(100%,100%,100%);stroke-opacity:1;stroke-miterlimit:4;" d="M 160.644531 628.167844 L 168.782552 684.401568 L 173.787435 684.605018 L 189.697266 643.304562 L 193.033854 643.304562 L 208.984375 684.605018 L 214.233398 684.686398 L 221.638997 628.411984 " transform="matrix(0.096,0,0,0.096,0,-53.026769)"/>
</g>
</svg>
