<?xml version="1.0" encoding="UTF-8"?>
<svg xmlns="http://www.w3.org/2000/svg" xmlns:xlink="http://www.w3.org/1999/xlink" width="48" height="48" viewBox="0 0 48 48" version="1.1">
<g id="surface1">
<path style=" stroke:none;fill-rule:evenodd;fill:rgb(20%,20%,20%);fill-opacity:1;" d="M 6.050781 14.769531 L 11.160156 19.769531 L 11 12.757812 L 6.046875 12.734375 Z M 6.050781 14.769531 "/>
<path style="fill-rule:evenodd;fill:rgb(94.901961%,94.901961%,94.901961%);fill-opacity:1;stroke-width:5.03546;stroke-linecap:butt;stroke-linejoin:miter;stroke:rgb(68.627451%,68.627451%,68.627451%);stroke-opacity:1;stroke-miterlimit:4;" d="M 97.045898 1029.819862 L 433.919271 1028.680539 L 435.099284 664.788937 L 347.045898 575.555539 L 97.045898 575.555539 Z M 97.045898 1029.819862 " transform="matrix(0.096,0,0,0.096,0,-53.026769)"/>
<path style="fill-rule:evenodd;fill:rgb(68.627451%,68.627451%,68.627451%);fill-opacity:1;stroke-width:5.03546;stroke-linecap:butt;stroke-linejoin:miter;stroke:rgb(68.627451%,68.627451%,68.627451%);stroke-opacity:1;stroke-miterlimit:4;" d="M 431.518555 662.917193 L 349.365234 662.347531 L 350.097656 578.566607 Z M 431.518555 662.917193 " transform="matrix(0.096,0,0,0.096,0,-53.026769)"/>
<path style=" stroke:none;fill-rule:nonzero;fill:rgb(22.352941%,25.098039%,31.372549%);fill-opacity:1;" d="M 6.0625 6.703125 L 27.65625 6.703125 L 27.65625 14.800781 L 6.0625 14.800781 Z M 6.0625 6.703125 "/>
<path style=" stroke:none;fill-rule:nonzero;fill:rgb(22.352941%,25.098039%,31.372549%);fill-opacity:1;" d="M 13.980469 27.15625 L 35.273438 27.15625 C 36.019531 27.15625 36.625 27.761719 36.625 28.507812 L 36.625 44.140625 C 36.625 44.890625 36.019531 45.496094 35.273438 45.496094 L 13.980469 45.496094 C 13.230469 45.496094 12.625 44.890625 12.625 44.140625 L 12.625 28.507812 C 12.625 27.761719 13.230469 27.15625 13.980469 27.15625 Z M 13.980469 27.15625 "/>
<path style=" stroke:none;fill-rule:nonzero;fill:rgb(100%,100%,100%);fill-opacity:1;" d="M 15.8125 29.3125 L 33.539062 29.3125 C 34.09375 29.3125 34.546875 29.761719 34.546875 30.320312 L 34.546875 41.96875 C 34.546875 42.527344 34.09375 42.976562 33.539062 42.976562 L 15.8125 42.976562 C 15.257812 42.976562 14.804688 42.527344 14.804688 41.96875 L 14.804688 30.320312 C 14.804688 29.761719 15.257812 29.3125 15.8125 29.3125 Z M 15.8125 29.3125 "/>
<path style=" stroke:none;fill-rule:nonzero;fill:rgb(22.352941%,25.098039%,31.372549%);fill-opacity:1;" d="M 17.222656 30.714844 L 25.316406 30.714844 C 25.765625 30.714844 26.128906 31.078125 26.128906 31.527344 L 26.128906 40.921875 C 26.128906 41.375 25.765625 41.734375 25.316406 41.734375 L 17.222656 41.734375 C 16.773438 41.734375 16.410156 41.375 16.410156 40.921875 L 16.410156 31.527344 C 16.410156 31.078125 16.773438 30.714844 17.222656 30.714844 Z M 17.222656 30.714844 "/>
<path style=" stroke:none;fill-rule:nonzero;fill:rgb(100%,100%,100%);fill-opacity:1;" d="M 18.65625 32.277344 L 18.65625 33.996094 L 22.230469 34.015625 C 22.230469 34.015625 20.851562 35.824219 20.390625 37.183594 C 19.925781 38.546875 19.875 40.480469 19.875 40.480469 L 21.613281 40.496094 C 21.613281 40.496094 21.640625 38.585938 22.109375 37.203125 C 22.574219 35.820312 24.269531 33.945312 24.269531 33.945312 L 24.269531 32.261719 Z M 18.65625 32.277344 "/>
<path style=" stroke:none;fill-rule:nonzero;fill:rgb(22.352941%,25.098039%,31.372549%);fill-opacity:1;" d="M 27.878906 36.375 L 27.894531 34.871094 L 33.015625 34.886719 L 33.015625 36.21875 L 30.109375 39.511719 L 32.996094 39.492188 L 32.980469 40.980469 L 27.894531 40.945312 L 27.878906 39.636719 L 30.925781 36.339844 Z M 27.878906 36.375 "/>
<path style="fill:none;stroke-width:9;stroke-linecap:butt;stroke-linejoin:miter;stroke:rgb(100%,100%,100%);stroke-opacity:1;stroke-miterlimit:4;" d="M 125.366211 638.218299 L 163.574219 638.787961 L 128.86556 693.882362 " transform="matrix(0.096,0,0,0.096,0,-53.026769)"/>
<path style="fill:none;stroke-width:9;stroke-linecap:butt;stroke-linejoin:miter;stroke:rgb(100%,100%,100%);stroke-opacity:1;stroke-miterlimit:4;" d="M 188.598633 638.625201 L 226.765951 639.194862 L 192.097982 689.609901 L 234.863281 689.894732 " transform="matrix(0.096,0,0,0.096,0,-53.026769)"/>
</g>
</svg>
