<?xml version="1.0" encoding="UTF-8"?>
<svg xmlns="http://www.w3.org/2000/svg" xmlns:xlink="http://www.w3.org/1999/xlink" width="48" height="48" viewBox="0 0 48 48" version="1.1">
<g id="surface1">
<path style=" stroke:none;fill-rule:evenodd;fill:rgb(20%,20%,20%);fill-opacity:1;" d="M 6.050781 14.289062 L 11.160156 19.289062 L 11 12.277344 L 6.046875 12.253906 Z M 6.050781 14.289062 "/>
<path style="fill-rule:evenodd;fill:rgb(94.901961%,94.901961%,94.901961%);fill-opacity:1;stroke-width:5.03546;stroke-linecap:butt;stroke-linejoin:miter;stroke:rgb(68.627451%,68.627451%,68.627451%);stroke-opacity:1;stroke-miterlimit:4;" d="M 97.045898 1024.814979 L 433.919271 1023.675656 L 435.099284 659.784055 L 347.045898 570.550656 L 97.045898 570.550656 Z M 97.045898 1024.814979 " transform="matrix(0.096,0,0,0.096,0,-53.026769)"/>
<path style="fill-rule:evenodd;fill:rgb(68.627451%,68.627451%,68.627451%);fill-opacity:1;stroke-width:5.03546;stroke-linecap:butt;stroke-linejoin:miter;stroke:rgb(68.627451%,68.627451%,68.627451%);stroke-opacity:1;stroke-miterlimit:4;" d="M 431.518555 657.953 L 349.365234 657.342648 L 350.097656 573.561724 Z M 431.518555 657.953 " transform="matrix(0.096,0,0,0.096,0,-53.026769)"/>
<path style=" stroke:none;fill-rule:nonzero;fill:rgb(22.352941%,25.098039%,31.372549%);fill-opacity:1;" d="M 6.0625 6.222656 L 27.65625 6.222656 L 27.65625 14.320312 L 6.0625 14.320312 Z M 6.0625 6.222656 "/>
<path style="fill-rule:evenodd;fill:rgb(22.352941%,25.098039%,31.372549%);fill-opacity:1;stroke-width:11.346586;stroke-linecap:butt;stroke-linejoin:round;stroke:rgb(100%,100%,100%);stroke-opacity:1;stroke-miterlimit:4;" d="M 144.042969 810.29675 L 384.358724 810.29675 C 390.78776 810.29675 395.996094 815.545773 395.996094 821.97481 L 395.996094 1005.56856 C 395.996094 1011.997596 390.78776 1017.24662 384.358724 1017.24662 L 144.042969 1017.24662 C 137.573242 1017.24662 132.364909 1011.997596 132.364909 1005.56856 L 132.364909 821.97481 C 132.364909 815.545773 137.573242 810.29675 144.042969 810.29675 Z M 144.042969 810.29675 " transform="matrix(0.096,0,0,0.096,0,-53.026769)"/>
<path style=" stroke:none;fill-rule:nonzero;fill:rgb(100%,100%,100%);fill-opacity:1;" d="M 15.734375 30.882812 L 15.753906 30.4375 L 16.058594 30.339844 C 16.226562 30.289062 16.421875 30.21875 16.5 30.1875 C 16.574219 30.152344 16.742188 30.09375 16.871094 30.046875 C 17.003906 30 17.171875 29.9375 17.246094 29.90625 C 17.320312 29.875 17.484375 29.824219 17.613281 29.792969 C 17.894531 29.722656 17.957031 29.601562 17.742188 29.539062 C 17.65625 29.515625 17.523438 29.46875 17.449219 29.4375 C 17.375 29.40625 17.128906 29.324219 16.90625 29.261719 C 16.679688 29.195312 16.46875 29.121094 16.429688 29.09375 C 16.394531 29.070312 16.21875 29.007812 16.039062 28.957031 L 15.71875 28.863281 L 15.71875 27.945312 L 15.90625 28.019531 C 16.226562 28.148438 16.355469 28.199219 16.601562 28.28125 C 16.730469 28.328125 16.898438 28.390625 16.972656 28.417969 C 17.277344 28.546875 18.222656 28.867188 18.472656 28.949219 C 18.769531 29.042969 18.886719 29.09375 18.78125 29.0625 C 18.710938 29.046875 18.566406 28.96875 18.921875 29.097656 C 19.019531 29.132812 19.042969 29.164062 19.042969 29.625 L 19.042969 30.15625 L 18.621094 30.300781 C 18.386719 30.378906 17.9375 30.539062 17.617188 30.65625 C 17.300781 30.773438 16.742188 30.972656 16.375 31.097656 L 15.710938 31.324219 Z M 15.734375 30.882812 "/>
<path style=" stroke:none;fill-rule:nonzero;fill:rgb(100%,100%,100%);fill-opacity:1;" d="M 19.859375 31.640625 L 19.859375 31.203125 L 23.453125 31.203125 L 23.453125 32.082031 L 19.859375 32.082031 Z M 19.859375 31.640625 "/>
<path style="fill:none;stroke-width:10;stroke-linecap:butt;stroke-linejoin:miter;stroke:rgb(100%,100%,100%);stroke-opacity:1;stroke-miterlimit:4;" d="M 182.210286 636.427935 C 182.210286 636.427935 172.932943 632.155474 164.14388 632.074094 C 155.354818 631.952023 149.861654 637.282427 149.576823 644.891477 C 149.291992 652.459836 153.523763 658.522661 168.660482 660.313026 C 183.837891 662.103391 182.902018 675.327674 181.030273 679.966346 C 179.199219 684.645708 170.328776 689.08093 161.376953 687.860227 C 152.38444 686.639523 144.897461 682.611203 144.897461 682.611203 " transform="matrix(0.096,0,0,0.096,0,-53.026769)"/>
<path style="fill:none;stroke-width:9;stroke-linecap:butt;stroke-linejoin:miter;stroke:rgb(100%,100%,100%);stroke-opacity:1;stroke-miterlimit:4;" d="M 311.186342 528.445935 L 311.511863 582.929984 " transform="matrix(0.096,0,0,0.096,-10.627795,-42.988622)"/>
<path style="fill:none;stroke-width:9;stroke-linecap:butt;stroke-linejoin:miter;stroke:rgb(100%,100%,100%);stroke-opacity:1;stroke-miterlimit:4;" d="M 346.301902 527.957654 L 346.586733 582.441703 " transform="matrix(0.096,0,0,0.096,-10.627795,-42.988622)"/>
<path style="fill:none;stroke-width:9;stroke-linecap:butt;stroke-linejoin:miter;stroke:rgb(100%,100%,100%);stroke-opacity:1;stroke-miterlimit:4;" d="M 310.901512 555.057263 L 347.522605 555.057263 " transform="matrix(0.096,0,0,0.096,-10.627795,-42.988622)"/>
</g>
</svg>
