<?xml version="1.0" encoding="UTF-8"?>
<svg xmlns="http://www.w3.org/2000/svg" xmlns:xlink="http://www.w3.org/1999/xlink" width="48" height="48" viewBox="0 0 48 48" version="1.1">
<g id="surface1">
<path style=" stroke:none;fill-rule:evenodd;fill:rgb(10.196078%,10.196078%,10.196078%);fill-opacity:1;" d="M 6.050781 14.769531 L 11.160156 19.769531 L 11 12.757812 L 6.046875 12.734375 Z M 6.050781 14.769531 "/>
<path style="fill-rule:evenodd;fill:rgb(94.901961%,94.901961%,94.901961%);fill-opacity:1;stroke-width:5.03546;stroke-linecap:butt;stroke-linejoin:miter;stroke:rgb(68.627451%,68.627451%,68.627451%);stroke-opacity:1;stroke-miterlimit:4;" d="M 97.045898 1029.819862 L 433.919271 1028.680539 L 435.099284 664.788937 L 347.045898 575.555539 L 97.045898 575.555539 Z M 97.045898 1029.819862 " transform="matrix(0.096,0,0,0.096,0,-53.026769)"/>
<path style="fill-rule:evenodd;fill:rgb(68.627451%,68.627451%,68.627451%);fill-opacity:1;stroke-width:5.03546;stroke-linecap:butt;stroke-linejoin:miter;stroke:rgb(68.627451%,68.627451%,68.627451%);stroke-opacity:1;stroke-miterlimit:4;" d="M 431.518555 662.917193 L 349.365234 662.347531 L 350.097656 578.566607 Z M 431.518555 662.917193 " transform="matrix(0.096,0,0,0.096,0,-53.026769)"/>
<path style=" stroke:none;fill-rule:nonzero;fill:rgb(20%,20%,20%);fill-opacity:1;" d="M 6.0625 6.703125 L 27.65625 6.703125 L 27.65625 14.800781 L 6.0625 14.800781 Z M 6.0625 6.703125 "/>
<path style=" stroke:none;fill-rule:evenodd;fill:rgb(20%,20%,20%);fill-opacity:1;" d="M 20.046875 23.332031 L 20.046875 39.332031 C 19.371094 38.699219 18.484375 38.289062 17.550781 38.289062 C 15.59375 38.289062 13.8125 40.070312 13.8125 42.03125 C 13.8125 43.988281 15.59375 45.769531 17.550781 45.769531 C 19.511719 45.769531 21.296875 43.988281 21.296875 42.03125 L 21.296875 23.332031 Z M 20.046875 23.332031 "/>
<path style=" stroke:none;fill-rule:evenodd;fill:rgb(20%,20%,20%);fill-opacity:1;" d="M 32.367188 21.898438 L 32.367188 37.898438 C 31.691406 37.265625 30.804688 36.855469 29.871094 36.859375 C 27.914062 36.859375 26.132812 38.640625 26.132812 40.597656 C 26.132812 42.554688 27.914062 44.335938 29.871094 44.335938 C 31.832031 44.335938 33.617188 42.554688 33.617188 40.597656 L 33.617188 21.898438 Z M 32.367188 21.898438 "/>
<path style=" stroke:none;fill-rule:nonzero;fill:rgb(20%,20%,20%);fill-opacity:1;" d="M 20.09375 23.347656 L 33.441406 21.769531 L 33.609375 23.207031 L 20.265625 24.785156 Z M 20.09375 23.347656 "/>
<path style="fill:none;stroke-width:9;stroke-linecap:butt;stroke-linejoin:miter;stroke:rgb(100%,100%,100%);stroke-opacity:1;stroke-miterlimit:4;" d="M 132.97526 688.674029 C 120.97168 688.551958 109.619141 676.466997 109.53776 661.167518 C 109.49707 645.868039 121.541341 633.579628 133.707682 633.905148 C 145.833333 634.271359 156.41276 645.868039 156.656901 662.144081 C 156.860352 678.420122 145.019531 688.755409 132.97526 688.674029 Z M 132.97526 688.674029 " transform="matrix(0.096,0,0,0.096,0,-53.026769)"/>
<path style="fill:none;stroke-width:9;stroke-linecap:butt;stroke-linejoin:miter;stroke:rgb(100%,100%,100%);stroke-opacity:1;stroke-miterlimit:4;" d="M 216.064453 642.938352 C 216.064453 642.938352 208.821615 635.247922 193.359375 635.369992 C 177.856445 635.451372 169.799805 651.239133 170.043945 663.608924 C 170.288086 675.978716 181.030273 689.08093 193.237305 690.383013 C 205.485026 691.644406 214.640299 685.17468 214.640299 685.17468 L 214.029948 665.073768 L 197.265625 665.277219 " transform="matrix(0.096,0,0,0.096,0,-53.026769)"/>
<path style="fill:none;stroke-width:9;stroke-linecap:butt;stroke-linejoin:bevel;stroke:rgb(100%,100%,100%);stroke-opacity:1;stroke-miterlimit:4;" d="M 915.682956 696.303152 L 937.82407 638.000913 L 960.571236 696.303152 " transform="matrix(0.096681,0,0,0.096681,-66.685394,-53.963816)"/>
<path style="fill:none;stroke-width:9;stroke-linecap:butt;stroke-linejoin:miter;stroke:rgb(100%,100%,100%);stroke-opacity:1;stroke-miterlimit:4;" d="M 924.571724 676.747862 L 950.349152 676.747862 " transform="matrix(0.096681,0,0,0.096681,-66.685394,-53.963816)"/>
</g>
</svg>
