<?xml version="1.0" encoding="UTF-8"?>
<svg xmlns="http://www.w3.org/2000/svg" xmlns:xlink="http://www.w3.org/1999/xlink" width="48" height="48" viewBox="0 0 48 48" version="1.1">
<g id="surface1">
<path style=" stroke:none;fill-rule:evenodd;fill:rgb(10.196078%,10.196078%,10.196078%);fill-opacity:1;" d="M 6.050781 14.769531 L 11.160156 19.769531 L 11 12.757812 L 6.046875 12.734375 Z M 6.050781 14.769531 "/>
<path style="fill-rule:evenodd;fill:rgb(94.901961%,94.901961%,94.901961%);fill-opacity:1;stroke-width:5.03546;stroke-linecap:butt;stroke-linejoin:miter;stroke:rgb(68.627451%,68.627451%,68.627451%);stroke-opacity:1;stroke-miterlimit:4;" d="M 97.045898 1029.819862 L 433.919271 1028.680539 L 435.099284 664.788937 L 347.045898 575.555539 L 97.045898 575.555539 Z M 97.045898 1029.819862 " transform="matrix(0.096,0,0,0.096,0,-53.026769)"/>
<path style="fill-rule:evenodd;fill:rgb(68.627451%,68.627451%,68.627451%);fill-opacity:1;stroke-width:5.03546;stroke-linecap:butt;stroke-linejoin:miter;stroke:rgb(68.627451%,68.627451%,68.627451%);stroke-opacity:1;stroke-miterlimit:4;" d="M 431.518555 662.917193 L 349.365234 662.347531 L 350.097656 578.566607 Z M 431.518555 662.917193 " transform="matrix(0.096,0,0,0.096,0,-53.026769)"/>
<path style=" stroke:none;fill-rule:nonzero;fill:rgb(20%,20%,20%);fill-opacity:1;" d="M 6.0625 6.703125 L 27.65625 6.703125 L 27.65625 14.800781 L 6.0625 14.800781 Z M 6.0625 6.703125 "/>
<path style=" stroke:none;fill-rule:evenodd;fill:rgb(20%,20%,20%);fill-opacity:1;" d="M 20.046875 23.332031 L 20.046875 39.332031 C 19.371094 38.699219 18.484375 38.289062 17.550781 38.289062 C 15.59375 38.289062 13.8125 40.070312 13.8125 42.03125 C 13.8125 43.988281 15.59375 45.769531 17.550781 45.769531 C 19.511719 45.769531 21.296875 43.988281 21.296875 42.03125 L 21.296875 23.332031 Z M 20.046875 23.332031 "/>
<path style=" stroke:none;fill-rule:evenodd;fill:rgb(20%,20%,20%);fill-opacity:1;" d="M 32.367188 21.898438 L 32.367188 37.898438 C 31.691406 37.265625 30.804688 36.855469 29.871094 36.859375 C 27.914062 36.859375 26.132812 38.640625 26.132812 40.597656 C 26.132812 42.554688 27.914062 44.335938 29.871094 44.335938 C 31.832031 44.335938 33.617188 42.554688 33.617188 40.597656 L 33.617188 21.898438 Z M 32.367188 21.898438 "/>
<path style=" stroke:none;fill-rule:nonzero;fill:rgb(20%,20%,20%);fill-opacity:1;" d="M 20.09375 23.347656 L 33.441406 21.769531 L 33.609375 23.207031 L 20.265625 24.785156 Z M 20.09375 23.347656 "/>
<path style="fill:none;stroke-width:9;stroke-linecap:butt;stroke-linejoin:miter;stroke:rgb(100%,100%,100%);stroke-opacity:1;stroke-miterlimit:4;" d="M 122.192383 694.655474 L 122.477214 640.049354 L 127.482096 639.845904 L 143.391927 681.146359 L 146.728516 681.146359 L 162.679036 639.845904 L 167.92806 639.764523 L 167.92806 694.777544 " transform="matrix(0.096,0,0,0.096,0,-53.026769)"/>
<path style="fill:none;stroke-width:8.069904;stroke-linecap:butt;stroke-linejoin:miter;stroke:rgb(100%,100%,100%);stroke-opacity:1;stroke-miterlimit:4;" d="M 186.604818 652.785357 C 186.604818 652.785357 189.453125 638.25899 202.392578 637.974159 C 214.233398 637.689328 219.197591 644.891477 218.79069 651.361203 C 217.976888 663.649615 201.944987 664.585487 201.944987 664.585487 C 201.944987 664.585487 218.58724 667.189654 218.58724 676.426307 C 218.62793 685.662961 215.535482 692.051307 201.334635 692.051307 C 187.215169 692.051307 186.808268 676.385617 186.808268 676.385617 " transform="matrix(0.096,0,0,0.096,0,-53.026769)"/>
<path style="fill:none;stroke-width:9;stroke-linecap:butt;stroke-linejoin:miter;stroke:rgb(100%,100%,100%);stroke-opacity:1;stroke-miterlimit:4;" d="M 234.008789 636.509315 L 234.008789 675.042844 C 234.008789 675.042844 233.439128 692.458208 253.173828 692.580279 C 272.949219 692.702349 271.728516 675.693885 271.728516 675.693885 L 271.321615 636.509315 " transform="matrix(0.096,0,0,0.096,0,-53.026769)"/>
</g>
</svg>
