<?xml version="1.0" encoding="UTF-8"?>
<svg xmlns="http://www.w3.org/2000/svg" xmlns:xlink="http://www.w3.org/1999/xlink" width="48" height="48" viewBox="0 0 48 48" version="1.1">
<g id="surface1">
<path style=" stroke:none;fill-rule:evenodd;fill:rgb(10.196078%,10.196078%,10.196078%);fill-opacity:1;" d="M 6.050781 14.769531 L 11.160156 19.769531 L 11 12.757812 L 6.046875 12.734375 Z M 6.050781 14.769531 "/>
<path style="fill-rule:evenodd;fill:rgb(94.901961%,94.901961%,94.901961%);fill-opacity:1;stroke-width:5.03546;stroke-linecap:butt;stroke-linejoin:miter;stroke:rgb(68.627451%,68.627451%,68.627451%);stroke-opacity:1;stroke-miterlimit:4;" d="M 97.045898 1029.819862 L 433.919271 1028.680539 L 435.099284 664.788937 L 347.045898 575.555539 L 97.045898 575.555539 Z M 97.045898 1029.819862 " transform="matrix(0.096,0,0,0.096,0,-53.026769)"/>
<path style="fill-rule:evenodd;fill:rgb(68.627451%,68.627451%,68.627451%);fill-opacity:1;stroke-width:5.03546;stroke-linecap:butt;stroke-linejoin:miter;stroke:rgb(68.627451%,68.627451%,68.627451%);stroke-opacity:1;stroke-miterlimit:4;" d="M 431.518555 662.917193 L 349.365234 662.347531 L 350.097656 578.566607 Z M 431.518555 662.917193 " transform="matrix(0.096,0,0,0.096,0,-53.026769)"/>
<path style=" stroke:none;fill-rule:nonzero;fill:rgb(20%,20%,20%);fill-opacity:1;" d="M 6.0625 6.703125 L 27.65625 6.703125 L 27.65625 14.800781 L 6.0625 14.800781 Z M 6.0625 6.703125 "/>
<path style=" stroke:none;fill-rule:evenodd;fill:rgb(20%,20%,20%);fill-opacity:1;" d="M 20.046875 23.332031 L 20.046875 39.332031 C 19.371094 38.699219 18.484375 38.289062 17.550781 38.289062 C 15.59375 38.289062 13.8125 40.070312 13.8125 42.03125 C 13.8125 43.988281 15.59375 45.769531 17.550781 45.769531 C 19.511719 45.769531 21.296875 43.988281 21.296875 42.03125 L 21.296875 23.332031 Z M 20.046875 23.332031 "/>
<path style=" stroke:none;fill-rule:evenodd;fill:rgb(20%,20%,20%);fill-opacity:1;" d="M 32.367188 21.898438 L 32.367188 37.898438 C 31.691406 37.265625 30.804688 36.855469 29.871094 36.859375 C 27.914062 36.859375 26.132812 38.640625 26.132812 40.597656 C 26.132812 42.554688 27.914062 44.335938 29.871094 44.335938 C 31.832031 44.335938 33.617188 42.554688 33.617188 40.597656 L 33.617188 21.898438 Z M 32.367188 21.898438 "/>
<path style=" stroke:none;fill-rule:nonzero;fill:rgb(20%,20%,20%);fill-opacity:1;" d="M 20.09375 23.347656 L 33.441406 21.769531 L 33.609375 23.207031 L 20.265625 24.785156 Z M 20.09375 23.347656 "/>
<path style="fill:none;stroke-width:9;stroke-linecap:butt;stroke-linejoin:miter;stroke:rgb(100%,100%,100%);stroke-opacity:1;stroke-miterlimit:4;" d="M 122.192383 694.655474 L 122.477214 640.049354 L 127.482096 639.845904 L 143.391927 681.146359 L 146.728516 681.146359 L 162.679036 639.845904 L 167.92806 639.764523 L 167.92806 694.777544 " transform="matrix(0.096,0,0,0.096,0,-53.026769)"/>
<path style="fill:none;stroke-width:9.063828;stroke-linecap:butt;stroke-linejoin:miter;stroke:rgb(100%,100%,100%);stroke-opacity:1;stroke-miterlimit:4;" d="M 189.046224 695.916867 L 189.046224 639.479693 C 189.046224 639.479693 219.848633 633.498247 219.767253 653.761919 C 219.645182 674.025591 189.656576 668.491737 189.656576 668.491737 " transform="matrix(0.096,0,0,0.096,0,-53.026769)"/>
<path style="fill:none;stroke-width:8.069904;stroke-linecap:butt;stroke-linejoin:miter;stroke:rgb(100%,100%,100%);stroke-opacity:1;stroke-miterlimit:4;" d="M 231.852214 654.250201 C 231.852214 654.250201 234.700521 639.764523 247.639974 639.479693 C 259.480794 639.194862 264.729818 646.437701 263.997396 652.866737 C 263.305664 659.295773 238.11849 687.209185 238.11849 687.209185 L 276.489258 686.883664 " transform="matrix(0.096,0,0,0.096,0,-53.026769)"/>
</g>
</svg>
