<?xml version="1.0" encoding="UTF-8"?>
<svg xmlns="http://www.w3.org/2000/svg" xmlns:xlink="http://www.w3.org/1999/xlink" width="48" height="48" viewBox="0 0 48 48" version="1.1">
<g id="surface1">
<path style=" stroke:none;fill-rule:evenodd;fill:rgb(10.196078%,10.196078%,10.196078%);fill-opacity:1;" d="M 6.078125 14.824219 L 11.1875 19.828125 L 11.03125 12.8125 L 6.078125 12.789062 Z M 6.078125 14.824219 "/>
<path style="fill-rule:evenodd;fill:rgb(94.901961%,94.901961%,94.901961%);fill-opacity:1;stroke-width:5.03546;stroke-linecap:butt;stroke-linejoin:miter;stroke:rgb(68.627451%,68.627451%,68.627451%);stroke-opacity:1;stroke-miterlimit:4;" d="M 97.045898 1029.819862 L 433.919271 1028.680539 L 435.099284 664.788937 L 347.045898 575.555539 L 97.045898 575.555539 Z M 97.045898 1029.819862 " transform="matrix(0.096,0,0,0.096,0,-53.026769)"/>
<path style="fill-rule:evenodd;fill:rgb(68.627451%,68.627451%,68.627451%);fill-opacity:1;stroke-width:5.03546;stroke-linecap:butt;stroke-linejoin:miter;stroke:rgb(68.627451%,68.627451%,68.627451%);stroke-opacity:1;stroke-miterlimit:4;" d="M 431.518555 662.917193 L 349.365234 662.347531 L 350.097656 578.566607 Z M 431.518555 662.917193 " transform="matrix(0.096,0,0,0.096,0,-53.026769)"/>
<path style=" stroke:none;fill-rule:nonzero;fill:rgb(22.352941%,25.098039%,31.372549%);fill-opacity:1;" d="M 6.0625 6.703125 L 28.4375 6.703125 L 28.4375 14.800781 L 6.0625 14.800781 Z M 6.0625 6.703125 "/>
<path style=" stroke:none;fill-rule:nonzero;fill:rgb(22.352941%,25.098039%,31.372549%);fill-opacity:1;" d="M 24.433594 45.417969 C 24.222656 45.324219 24 45.085938 23.898438 44.847656 C 23.847656 44.722656 23.796875 44.25 23.753906 43.492188 C 23.714844 42.851562 23.664062 42.273438 23.644531 42.210938 C 23.613281 42.128906 23.46875 42.050781 23.101562 41.921875 C 22.824219 41.828125 22.40625 41.652344 22.175781 41.535156 C 21.945312 41.417969 21.703125 41.324219 21.640625 41.324219 C 21.570312 41.324219 21.191406 41.632812 20.648438 42.128906 C 20.167969 42.570312 19.695312 42.972656 19.601562 43.023438 C 19.402344 43.125 18.960938 43.140625 18.734375 43.054688 C 18.550781 42.988281 16.632812 41.097656 16.507812 40.863281 C 16.386719 40.632812 16.398438 40.203125 16.535156 39.941406 C 16.601562 39.820312 17.003906 39.339844 17.4375 38.871094 C 17.90625 38.363281 18.226562 37.96875 18.226562 37.90625 C 18.226562 37.847656 18.132812 37.609375 18.015625 37.375 C 17.898438 37.144531 17.726562 36.730469 17.628906 36.453125 C 17.53125 36.179688 17.414062 35.933594 17.367188 35.910156 C 17.320312 35.882812 16.753906 35.835938 16.113281 35.800781 C 15.367188 35.757812 14.867188 35.707031 14.722656 35.65625 C 14.445312 35.554688 14.125 35.214844 14.082031 34.972656 C 14.0625 34.875 14.054688 34.140625 14.0625 33.347656 L 14.082031 31.902344 L 14.246094 31.695312 C 14.542969 31.328125 14.679688 31.289062 16.082031 31.203125 C 16.875 31.15625 17.355469 31.101562 17.398438 31.0625 C 17.429688 31.027344 17.550781 30.757812 17.660156 30.457031 C 17.773438 30.160156 17.945312 29.75 18.046875 29.550781 C 18.144531 29.351562 18.226562 29.140625 18.226562 29.089844 C 18.226562 29.035156 17.894531 28.625 17.492188 28.183594 C 17.085938 27.738281 16.695312 27.296875 16.628906 27.207031 C 16.4375 26.953125 16.371094 26.636719 16.445312 26.328125 C 16.503906 26.09375 16.609375 25.96875 17.492188 25.074219 C 18.03125 24.527344 18.5625 24.035156 18.671875 23.976562 C 18.929688 23.84375 19.335938 23.84375 19.59375 23.972656 C 19.699219 24.027344 20.171875 24.421875 20.636719 24.851562 C 21.105469 25.28125 21.523438 25.652344 21.558594 25.675781 C 21.601562 25.699219 21.851562 25.609375 22.160156 25.464844 C 22.449219 25.324219 22.886719 25.144531 23.128906 25.066406 C 23.453125 24.953125 23.582031 24.882812 23.625 24.789062 C 23.660156 24.714844 23.71875 24.132812 23.753906 23.492188 C 23.824219 22.261719 23.867188 22.066406 24.121094 21.800781 C 24.402344 21.503906 24.566406 21.480469 26.144531 21.5 L 27.585938 21.515625 L 27.808594 21.664062 C 28.199219 21.921875 28.246094 22.078125 28.335938 23.453125 C 28.378906 24.117188 28.429688 24.710938 28.441406 24.773438 C 28.464844 24.863281 28.582031 24.925781 28.96875 25.0625 C 29.242188 25.15625 29.683594 25.34375 29.945312 25.476562 C 30.207031 25.605469 30.441406 25.714844 30.46875 25.714844 C 30.492188 25.714844 30.914062 25.347656 31.402344 24.898438 C 31.890625 24.449219 32.382812 24.035156 32.496094 23.976562 C 32.753906 23.839844 33.144531 23.84375 33.429688 23.980469 C 33.566406 24.046875 34.027344 24.464844 34.605469 25.050781 C 35.601562 26.054688 35.679688 26.167969 35.679688 26.625 C 35.679688 26.945312 35.539062 27.15625 34.683594 28.09375 C 34.21875 28.605469 33.835938 29.042969 33.835938 29.070312 C 33.835938 29.09375 33.960938 29.371094 34.109375 29.679688 C 34.253906 29.988281 34.433594 30.421875 34.5 30.640625 C 34.585938 30.914062 34.65625 31.054688 34.730469 31.085938 C 34.792969 31.113281 35.390625 31.164062 36.0625 31.207031 C 37.398438 31.292969 37.613281 31.347656 37.839844 31.664062 C 38.050781 31.960938 38.074219 32.183594 38.054688 33.636719 L 38.039062 35.027344 L 37.875 35.261719 C 37.582031 35.675781 37.511719 35.695312 36.027344 35.792969 C 35.304688 35.839844 34.699219 35.890625 34.683594 35.90625 C 34.667969 35.921875 34.578125 36.152344 34.484375 36.421875 C 34.390625 36.6875 34.203125 37.121094 34.070312 37.386719 C 33.941406 37.648438 33.839844 37.898438 33.847656 37.9375 C 33.855469 37.976562 34.21875 38.394531 34.652344 38.867188 C 35.082031 39.335938 35.492188 39.832031 35.558594 39.964844 C 35.703125 40.242188 35.714844 40.539062 35.597656 40.820312 C 35.492188 41.070312 33.734375 42.859375 33.445312 43.007812 C 33.207031 43.132812 32.773438 43.144531 32.519531 43.035156 C 32.425781 42.996094 31.945312 42.59375 31.453125 42.140625 C 30.960938 41.691406 30.519531 41.324219 30.472656 41.324219 C 30.421875 41.324219 30.148438 41.433594 29.855469 41.570312 C 29.566406 41.707031 29.132812 41.882812 28.898438 41.960938 C 28.570312 42.066406 28.464844 42.128906 28.441406 42.210938 C 28.429688 42.273438 28.378906 42.867188 28.335938 43.53125 C 28.238281 44.992188 28.183594 45.152344 27.675781 45.410156 C 27.527344 45.484375 27.285156 45.496094 26.050781 45.492188 C 24.957031 45.492188 24.554688 45.476562 24.433594 45.417969 Z M 26.574219 38.9375 C 27.882812 38.800781 28.980469 38.277344 29.914062 37.34375 C 30.621094 36.632812 31.082031 35.835938 31.355469 34.828125 C 31.53125 34.199219 31.53125 32.804688 31.355469 32.167969 C 30.828125 30.230469 29.441406 28.804688 27.523438 28.226562 C 27.078125 28.09375 26.953125 28.082031 26.085938 28.078125 C 25.253906 28.074219 25.082031 28.089844 24.679688 28.199219 C 22.660156 28.75 21.117188 30.367188 20.695312 32.382812 C 20.316406 34.1875 20.871094 36.03125 22.191406 37.359375 C 22.882812 38.050781 23.777344 38.5625 24.75 38.8125 C 25.023438 38.882812 25.417969 38.9375 25.980469 38.984375 C 26.023438 38.988281 26.289062 38.964844 26.574219 38.9375 Z M 25.230469 36.664062 C 23.847656 36.289062 22.882812 35.113281 22.796875 33.703125 C 22.734375 32.71875 23.054688 31.886719 23.753906 31.1875 C 25.027344 29.917969 27.0625 29.90625 28.324219 31.160156 C 29.359375 32.195312 29.609375 33.664062 28.964844 34.957031 C 28.417969 36.054688 27.40625 36.703125 26.167969 36.75 C 25.746094 36.765625 25.539062 36.75 25.230469 36.664062 Z M 26.777344 35.296875 C 27.15625 35.15625 27.613281 34.734375 27.804688 34.34375 C 28.039062 33.753906 28.023438 33.074219 27.769531 32.609375 C 27.414062 31.953125 26.886719 31.617188 26.140625 31.582031 C 25.542969 31.550781 25.183594 31.675781 24.75 32.074219 C 24.203125 32.574219 23.984375 33.269531 24.160156 33.957031 C 24.3125 34.554688 24.636719 34.957031 25.179688 35.234375 C 25.6875 35.492188 26.207031 35.511719 26.777344 35.296875 Z M 26.777344 35.296875 "/>
<path style="fill:none;stroke-width:9;stroke-linecap:butt;stroke-linejoin:miter;stroke:rgb(100%,100%,100%);stroke-opacity:1;stroke-miterlimit:4;" d="M 132.080078 692.98718 L 132.364909 638.42175 L 137.410482 638.218299 L 153.279622 679.518755 L 156.616211 679.518755 L 172.566732 638.218299 L 177.815755 638.136919 L 177.815755 693.14994 " transform="matrix(0.096,0,0,0.096,0,-53.026769)"/>
<path style="fill:none;stroke-width:9;stroke-linecap:butt;stroke-linejoin:bevel;stroke:rgb(100%,100%,100%);stroke-opacity:1;stroke-miterlimit:4;" d="M 915.707198 696.287706 L 937.848312 638.025871 L 960.555074 696.287706 " transform="matrix(0.096681,0,0,0.096681,-70.285394,-53.845135)"/>
<path style="fill:none;stroke-width:9;stroke-linecap:butt;stroke-linejoin:miter;stroke:rgb(100%,100%,100%);stroke-opacity:1;stroke-miterlimit:4;" d="M 924.595966 676.732416 L 950.373394 676.732416 " transform="matrix(0.096681,0,0,0.096681,-70.285394,-53.845135)"/>
<path style="fill:none;stroke-width:9;stroke-linecap:butt;stroke-linejoin:miter;stroke:rgb(100%,100%,100%);stroke-opacity:1;stroke-miterlimit:4;" d="M 1024.656221 695.88169 L 1025.060256 635.963311 " transform="matrix(0.096681,0,0,0.096681,-75.150726,-53.6926)"/>
<path style="fill:none;stroke-width:9;stroke-linecap:butt;stroke-linejoin:round;stroke:rgb(100%,100%,100%);stroke-opacity:1;stroke-miterlimit:4;" d="M 1059.282014 636.569363 L 1031.24199 663.558896 L 1061.544609 694.669585 " transform="matrix(0.096681,0,0,0.096681,-75.150726,-53.6926)"/>
</g>
</svg>
