<?xml version="1.0" encoding="UTF-8"?>
<svg xmlns="http://www.w3.org/2000/svg" xmlns:xlink="http://www.w3.org/1999/xlink" width="48" height="48" viewBox="0 0 48 48" version="1.1">
<g id="surface1">
<path style=" stroke:none;fill-rule:evenodd;fill:rgb(0%,0%,0%);fill-opacity:1;" d="M 6.066406 14.824219 L 11.175781 19.828125 L 11.015625 12.8125 L 6.0625 12.789062 Z M 6.066406 14.824219 "/>
<path style="fill-rule:evenodd;fill:rgb(94.901961%,94.901961%,94.901961%);fill-opacity:1;stroke-width:5.03546;stroke-linecap:butt;stroke-linejoin:miter;stroke:rgb(68.627451%,68.627451%,68.627451%);stroke-opacity:1;stroke-miterlimit:4;" d="M 96.923828 1029.819862 L 433.797201 1028.680539 L 434.977214 664.788937 L 346.923828 575.555539 L 96.923828 575.555539 Z M 96.923828 1029.819862 " transform="matrix(0.096,0,0,0.096,0,-53.026769)"/>
<path style="fill-rule:evenodd;fill:rgb(68.627451%,68.627451%,68.627451%);fill-opacity:1;stroke-width:5.03546;stroke-linecap:butt;stroke-linejoin:miter;stroke:rgb(68.627451%,68.627451%,68.627451%);stroke-opacity:1;stroke-miterlimit:4;" d="M 431.396484 662.917193 L 349.202474 662.347531 L 349.975586 578.566607 Z M 431.396484 662.917193 " transform="matrix(0.096,0,0,0.096,0,-53.026769)"/>
<path style=" stroke:none;fill-rule:nonzero;fill:rgb(10.196078%,10.196078%,10.196078%);fill-opacity:1;" d="M 6.046875 6.703125 L 28.117188 6.703125 L 28.117188 14.800781 L 6.046875 14.800781 Z M 6.046875 6.703125 "/>
<path style=" stroke:none;fill-rule:nonzero;fill:rgb(100%,100%,100%);fill-opacity:1;" d="M 35.433594 40.296875 C 34.96875 40.1875 34.480469 40.121094 33.984375 40.121094 C 33.132812 40.121094 32.363281 40.269531 31.792969 40.507812 C 31.730469 40.539062 31.6875 40.605469 31.6875 40.675781 C 31.6875 40.703125 31.691406 40.734375 31.703125 40.757812 C 31.769531 40.953125 31.660156 41.160156 31.109375 41.285156 C 30.289062 41.460938 29.773438 42.308594 29.480469 42.585938 C 29.132812 42.914062 28.15625 43.117188 28.300781 42.921875 C 28.417969 42.765625 28.859375 42.289062 29.125 41.773438 C 29.367188 41.3125 29.578125 41.179688 29.871094 40.738281 C 29.960938 40.609375 30.292969 40.15625 30.390625 39.796875 C 30.5 39.445312 30.460938 39.003906 30.503906 38.824219 C 30.566406 38.5625 30.8125 37.996094 30.832031 37.671875 C 30.839844 37.492188 30.074219 37.933594 29.710938 37.933594 C 29.34375 37.933594 28.992188 37.714844 28.664062 37.699219 C 28.261719 37.679688 28.003906 38.007812 27.640625 37.953125 C 27.433594 37.917969 27.253906 37.734375 26.894531 37.722656 C 26.375 37.703125 25.742188 38.007812 24.554688 37.972656 C 23.386719 37.933594 22.304688 36.492188 22.160156 36.265625 C 21.988281 36 21.777344 36 21.546875 36.210938 C 21.316406 36.417969 21.03125 36.253906 20.953125 36.113281 C 20.800781 35.84375 20.390625 35.0625 19.753906 34.898438 C 18.878906 34.671875 18.433594 35.382812 18.492188 35.949219 C 18.550781 36.527344 18.921875 36.6875 19.09375 36.996094 C 19.265625 37.300781 19.355469 37.5 19.679688 37.632812 C 19.910156 37.730469 19.992188 37.871094 19.925781 38.058594 C 19.867188 38.222656 19.628906 38.261719 19.46875 38.269531 C 19.136719 38.285156 18.902344 38.195312 18.730469 38.085938 C 18.53125 37.957031 18.367188 37.78125 18.195312 37.484375 C 17.992188 37.15625 17.679688 37.011719 17.308594 37.011719 C 17.132812 37.011719 16.96875 37.058594 16.824219 37.132812 C 16.246094 37.433594 15.558594 37.609375 14.820312 37.609375 L 13.984375 37.609375 C 15.585938 42.355469 20.074219 45.769531 25.359375 45.769531 C 29.582031 45.769531 33.292969 43.589844 35.433594 40.296875 "/>
<path style=" stroke:none;fill-rule:nonzero;fill:rgb(0%,0%,0%);fill-opacity:1;" d="M 35.433594 40.296875 C 34.96875 40.1875 34.480469 40.121094 33.984375 40.121094 C 33.132812 40.121094 32.363281 40.269531 31.792969 40.507812 C 31.730469 40.539062 31.6875 40.605469 31.6875 40.679688 C 31.6875 40.703125 31.691406 40.734375 31.703125 40.757812 C 31.769531 40.953125 31.660156 41.164062 31.109375 41.285156 C 30.289062 41.464844 29.773438 42.308594 29.480469 42.585938 C 29.132812 42.914062 28.15625 43.117188 28.300781 42.921875 C 28.417969 42.765625 28.859375 42.289062 29.125 41.773438 C 29.367188 41.3125 29.578125 41.179688 29.871094 40.738281 C 29.960938 40.609375 30.292969 40.15625 30.390625 39.796875 C 30.5 39.445312 30.460938 39.003906 30.503906 38.824219 C 30.566406 38.5625 30.8125 37.996094 30.832031 37.675781 C 30.839844 37.492188 30.074219 37.933594 29.710938 37.933594 C 29.34375 37.933594 28.992188 37.714844 28.664062 37.699219 C 28.261719 37.679688 28.003906 38.007812 27.640625 37.953125 C 27.433594 37.917969 27.253906 37.734375 26.894531 37.722656 C 26.375 37.703125 25.742188 38.007812 24.554688 37.972656 C 23.386719 37.933594 22.304688 36.496094 22.160156 36.269531 C 21.988281 36 21.777344 36 21.546875 36.210938 C 21.316406 36.417969 21.03125 36.253906 20.953125 36.113281 C 20.800781 35.84375 20.390625 35.0625 19.753906 34.898438 C 18.878906 34.671875 18.433594 35.382812 18.492188 35.949219 C 18.550781 36.527344 18.921875 36.6875 19.09375 36.996094 C 19.265625 37.300781 19.355469 37.5 19.679688 37.632812 C 19.910156 37.730469 19.992188 37.871094 19.925781 38.058594 C 19.867188 38.226562 19.628906 38.261719 19.46875 38.269531 C 19.136719 38.285156 18.902344 38.195312 18.730469 38.085938 C 18.53125 37.960938 18.367188 37.78125 18.195312 37.484375 C 17.992188 37.15625 17.679688 37.011719 17.308594 37.011719 C 17.132812 37.011719 16.96875 37.058594 16.824219 37.132812 C 16.246094 37.433594 15.558594 37.609375 14.820312 37.609375 L 13.984375 37.609375 C 13.578125 36.40625 13.359375 35.117188 13.359375 33.777344 C 13.359375 27.152344 18.730469 21.785156 25.359375 21.785156 C 31.984375 21.785156 37.359375 27.152344 37.359375 33.777344 C 37.359375 36.179688 36.652344 38.417969 35.433594 40.296875 "/>
<path style=" stroke:none;fill-rule:nonzero;fill:rgb(0%,0%,0%);fill-opacity:1;" d="M 28 39.195312 C 28.0625 39.257812 28.171875 39.457031 28.039062 39.714844 C 27.96875 39.851562 27.886719 39.949219 27.75 40.058594 C 27.578125 40.195312 27.25 40.351562 26.796875 40.0625 C 26.554688 39.910156 26.539062 39.859375 26.203125 39.902344 C 25.960938 39.933594 25.867188 39.691406 25.953125 39.488281 C 26.039062 39.289062 26.394531 39.125 26.835938 39.382812 C 27.035156 39.5 27.34375 39.746094 27.613281 39.527344 C 27.726562 39.4375 27.792969 39.378906 27.949219 39.199219 C 27.953125 39.191406 27.964844 39.1875 27.976562 39.1875 C 27.984375 39.1875 27.996094 39.191406 28 39.195312 "/>
<path style=" stroke:none;fill-rule:nonzero;fill:rgb(94.117647%,22.352941%,8.627451%);fill-opacity:1;" d="M 24.425781 27.496094 C 23.039062 27.59375 22.894531 27.742188 22.636719 28.019531 C 22.269531 28.410156 21.785156 27.515625 21.785156 27.515625 C 21.496094 27.453125 21.148438 26.988281 21.335938 26.554688 C 21.523438 26.121094 21.867188 26.25 21.972656 26.382812 C 22.105469 26.546875 22.386719 26.816406 22.75 26.804688 C 23.113281 26.796875 23.535156 26.71875 24.121094 26.71875 C 24.714844 26.71875 25.109375 26.941406 25.132812 27.132812 C 25.152344 27.292969 25.085938 27.445312 24.425781 27.496094 M 25.882812 25.207031 L 25.875 25.207031 C 25.851562 25.207031 25.835938 25.1875 25.835938 25.171875 C 25.835938 25.15625 25.84375 25.140625 25.859375 25.136719 C 26.125 24.996094 26.527344 24.882812 26.988281 24.835938 C 27.125 24.820312 27.257812 24.8125 27.386719 24.8125 L 27.457031 24.8125 C 28.226562 24.832031 28.839844 25.136719 28.832031 25.496094 C 28.824219 25.855469 28.195312 26.132812 27.421875 26.117188 C 27.175781 26.109375 26.941406 26.074219 26.742188 26.015625 C 26.714844 26.007812 26.699219 25.988281 26.699219 25.964844 C 26.699219 25.941406 26.714844 25.921875 26.742188 25.914062 C 27.21875 25.804688 27.542969 25.621094 27.523438 25.449219 C 27.492188 25.222656 26.863281 25.101562 26.121094 25.175781 C 26.039062 25.183594 25.957031 25.195312 25.882812 25.207031 M 32.128906 30.585938 C 32.011719 30.984375 31.84375 31.492188 31.09375 31.878906 C 30.984375 31.933594 30.941406 31.84375 30.992188 31.757812 C 31.277344 31.273438 31.324219 31.15625 31.410156 30.964844 C 31.523438 30.6875 31.585938 30.289062 31.355469 29.46875 C 30.902344 27.84375 29.960938 25.671875 29.277344 24.96875 C 28.617188 24.289062 27.421875 24.101562 26.339844 24.375 C 25.941406 24.480469 25.160156 24.882812 23.714844 24.558594 C 21.214844 23.996094 20.84375 25.246094 20.703125 25.792969 C 20.558594 26.335938 20.214844 27.886719 20.214844 27.886719 C 20.097656 28.519531 19.949219 29.617188 23.832031 30.355469 C 25.640625 30.699219 25.730469 31.167969 25.8125 31.503906 C 25.957031 32.105469 26.1875 32.449219 26.445312 32.625 C 26.703125 32.796875 26.445312 32.9375 26.15625 32.964844 C 25.390625 33.046875 22.539062 32.230469 20.851562 31.273438 C 19.476562 30.433594 19.453125 29.675781 19.769531 29.03125 C 17.6875 28.804688 16.125 29.226562 15.839844 30.210938 C 15.355469 31.902344 19.558594 34.789062 24.347656 36.242188 C 29.375 37.761719 34.542969 36.699219 35.117188 33.539062 C 35.378906 32.105469 34.167969 31.046875 32.128906 30.585938 "/>
<path style="fill:none;stroke-width:10;stroke-linecap:butt;stroke-linejoin:miter;stroke:rgb(100%,100%,100%);stroke-opacity:1;stroke-miterlimit:4;" d="M 128.092448 640.619016 C 128.092448 640.619016 118.815104 636.346555 110.026042 636.224484 C 101.236979 636.143104 95.743815 641.473508 95.458984 649.041867 C 95.174154 656.650917 99.405924 662.713742 114.542643 664.504107 C 129.720052 666.253781 128.78418 679.478065 126.953125 684.157427 C 125.08138 688.836789 116.251628 693.23132 107.259115 692.010617 C 98.307292 690.830604 90.820312 686.761594 90.820312 686.761594 " transform="matrix(0.096,0,0,0.096,0,-53.026769)"/>
<path style="fill:none;stroke-width:9.063828;stroke-linecap:butt;stroke-linejoin:miter;stroke:rgb(100%,100%,100%);stroke-opacity:1;stroke-miterlimit:4;" d="M 143.147786 692.783729 L 143.147786 636.346555 C 143.147786 636.346555 173.990885 630.405799 173.868815 650.669471 C 173.787435 670.933143 143.798828 665.399289 143.798828 665.399289 " transform="matrix(0.096,0,0,0.096,0,-53.026769)"/>
<path style="fill:none;stroke-width:9;stroke-linecap:butt;stroke-linejoin:miter;stroke:rgb(100%,100%,100%);stroke-opacity:1;stroke-miterlimit:4;" d="M 380.185859 670.713348 L 346.209622 670.306447 L 346.616523 618.589324 L 381.081042 618.711395 " transform="matrix(0.096,0,0,0.096,-15.111124,-51.146294)"/>
<path style="fill:none;stroke-width:9;stroke-linecap:butt;stroke-linejoin:miter;stroke:rgb(100%,100%,100%);stroke-opacity:1;stroke-miterlimit:4;" d="M 348.935859 642.352345 L 378.110664 642.515105 " transform="matrix(0.096,0,0,0.096,-15.111124,-51.146294)"/>
<path style="fill:none;stroke-width:9;stroke-linecap:butt;stroke-linejoin:miter;stroke:rgb(100%,100%,100%);stroke-opacity:1;stroke-miterlimit:4;" d="M 277.099609 644.159055 C 277.099609 644.159055 269.49056 637.323117 255.574544 638.42175 C 241.699219 639.479693 233.805339 655.308143 234.53776 667.311724 C 235.270182 679.315305 245.808919 693.597531 259.399414 692.417518 C 272.989909 691.237505 277.099609 686.476763 277.099609 686.476763 " transform="matrix(0.096,0,0,0.096,0,-53.026769)"/>
</g>
</svg>
