<?xml version="1.0" encoding="UTF-8"?>
<svg xmlns="http://www.w3.org/2000/svg" xmlns:xlink="http://www.w3.org/1999/xlink" width="48" height="48" viewBox="0 0 48 48" version="1.1">
<g id="surface1">
<path style=" stroke:none;fill-rule:evenodd;fill:rgb(10.196078%,10.196078%,10.196078%);fill-opacity:1;" d="M 6.066406 14.824219 L 11.175781 19.828125 L 11.015625 12.8125 L 6.0625 12.789062 Z M 6.066406 14.824219 "/>
<path style="fill-rule:evenodd;fill:rgb(94.901961%,94.901961%,94.901961%);fill-opacity:1;stroke-width:5.03546;stroke-linecap:butt;stroke-linejoin:miter;stroke:rgb(68.627451%,68.627451%,68.627451%);stroke-opacity:1;stroke-miterlimit:4;" d="M 96.923828 1029.819862 L 433.797201 1028.680539 L 434.977214 664.788937 L 346.923828 575.555539 L 96.923828 575.555539 Z M 96.923828 1029.819862 " transform="matrix(0.096,0,0,0.096,0,-53.026769)"/>
<path style="fill-rule:evenodd;fill:rgb(68.627451%,68.627451%,68.627451%);fill-opacity:1;stroke-width:5.03546;stroke-linecap:butt;stroke-linejoin:miter;stroke:rgb(68.627451%,68.627451%,68.627451%);stroke-opacity:1;stroke-miterlimit:4;" d="M 431.396484 662.917193 L 349.202474 662.347531 L 349.975586 578.566607 Z M 431.396484 662.917193 " transform="matrix(0.096,0,0,0.096,0,-53.026769)"/>
<path style=" stroke:none;fill-rule:nonzero;fill:rgb(22.352941%,25.098039%,31.372549%);fill-opacity:1;" d="M 6.046875 6.703125 L 32.144531 6.703125 L 32.144531 14.800781 L 6.046875 14.800781 Z M 6.046875 6.703125 "/>
<path style="fill-rule:nonzero;fill:rgb(98.039216%,92.54902%,42.745098%);fill-opacity:1;stroke-width:13.157895;stroke-linecap:butt;stroke-linejoin:miter;stroke:rgb(22.352941%,25.098039%,31.372549%);stroke-opacity:1;stroke-miterlimit:4;" d="M 380.249023 902.378456 C 380.249023 967.767453 327.229818 1020.786659 261.84082 1020.786659 C 196.411133 1020.786659 143.391927 967.767453 143.391927 902.378456 C 143.391927 836.989458 196.370443 783.970253 261.75944 783.929562 C 327.189128 783.929562 380.208333 836.908078 380.249023 902.337766 " transform="matrix(0.096,0,0,0.096,0,-53.026769)"/>
<path style=" stroke:none;fill-rule:nonzero;fill:rgb(22.352941%,25.098039%,31.372549%);fill-opacity:1;" d="M 21.828125 31.9375 L 27.132812 31.925781 L 27.171875 39.007812 C 27.171875 39.007812 27.15625 39.191406 27.296875 39.339844 C 27.433594 39.488281 27.570312 39.492188 27.570312 39.492188 L 28.75 39.5 L 28.761719 40.359375 L 22.019531 40.34375 L 22.011719 39.472656 L 23.390625 39.476562 C 23.390625 39.476562 23.582031 39.453125 23.691406 39.296875 C 23.800781 39.140625 23.773438 38.96875 23.773438 38.96875 L 23.765625 33.246094 C 23.765625 33.246094 23.785156 33.101562 23.589844 32.933594 C 23.394531 32.765625 23.210938 32.785156 23.210938 32.785156 L 21.835938 32.769531 Z M 21.828125 31.9375 "/>
<path style=" stroke:none;fill-rule:nonzero;fill:rgb(22.352941%,25.098039%,31.372549%);fill-opacity:1;" d="M 27.183594 28.992188 C 27.183594 30.074219 26.324219 30.953125 25.257812 30.957031 C 24.195312 30.957031 23.332031 30.082031 23.328125 28.996094 C 23.328125 27.910156 24.1875 27.03125 25.25 27.023438 C 26.3125 27.023438 27.179688 27.898438 27.183594 28.980469 "/>
<path style="fill:none;stroke-width:9.063828;stroke-linecap:butt;stroke-linejoin:miter;stroke:rgb(100%,100%,100%);stroke-opacity:1;stroke-miterlimit:4;" d="M 384.444779 735.911321 L 384.444779 679.481186 C 384.444779 679.481186 415.277244 673.526006 415.181193 693.792829 C 415.037116 714.059652 385.069112 708.536702 385.069112 708.536702 " transform="matrix(0.0813367,0,0,0.0813367,-24.035114,-46.786323)"/>
<path style="fill:none;stroke-width:9;stroke-linecap:butt;stroke-linejoin:miter;stroke:rgb(100%,100%,100%);stroke-opacity:1;stroke-miterlimit:4;" d="M 392.465062 710.457728 L 418.398911 734.902782 " transform="matrix(0.0813367,0,0,0.0813367,-24.035114,-46.786323)"/>
<path style="fill:none;stroke-width:9;stroke-linecap:butt;stroke-linejoin:miter;stroke:rgb(100%,100%,100%);stroke-opacity:1;stroke-miterlimit:4;" d="M 380.179462 670.715782 L 346.22533 670.331577 L 346.609535 618.607956 L 381.043924 618.752032 " transform="matrix(0.0813367,0,0,0.0813367,-17.082718,-41.917123)"/>
<path style="fill:none;stroke-width:9;stroke-linecap:butt;stroke-linejoin:miter;stroke:rgb(100%,100%,100%);stroke-opacity:1;stroke-miterlimit:4;" d="M 348.962792 642.380651 L 378.114359 642.524727 " transform="matrix(0.0813367,0,0,0.0813367,-17.082718,-41.917123)"/>
<path style="fill:none;stroke-width:9;stroke-linecap:butt;stroke-linejoin:bevel;stroke:rgb(100%,100%,100%);stroke-opacity:1;stroke-miterlimit:4;" d="M 915.700017 696.277921 L 937.827017 638.003797 L 960.573955 696.277921 " transform="matrix(0.0819135,0,0,0.0819135,-60.5121,-44.132218)"/>
<path style="fill:none;stroke-width:9;stroke-linecap:butt;stroke-linejoin:miter;stroke:rgb(100%,100%,100%);stroke-opacity:1;stroke-miterlimit:4;" d="M 924.569892 676.773734 L 950.36883 676.773734 " transform="matrix(0.0819135,0,0,0.0819135,-60.5121,-44.132218)"/>
<path style="fill:none;stroke-width:7.625316;stroke-linecap:butt;stroke-linejoin:miter;stroke:rgb(100%,100%,100%);stroke-opacity:1;stroke-miterlimit:4;" d="M 200.317383 683.872596 L 200.724284 639.764523 C 200.724284 639.764523 234.49707 634.841021 234.944661 662.225461 C 235.392253 689.609901 200.317383 683.872596 200.317383 683.872596 Z M 200.317383 683.872596 " transform="matrix(0.096,0,0,0.096,0,-53.026769)"/>
<path style="fill:none;stroke-width:7.625316;stroke-linecap:butt;stroke-linejoin:miter;stroke:rgb(100%,100%,100%);stroke-opacity:1;stroke-miterlimit:4;" d="M 245.727539 687.697466 L 245.97168 641.473508 L 250.244141 641.270057 L 263.671875 676.304237 L 266.520182 676.304237 L 280.029297 641.270057 L 284.464518 641.229367 L 284.464518 687.819536 " transform="matrix(0.096,0,0,0.096,0,-53.026769)"/>
<path style="fill:none;stroke-width:9;stroke-linecap:butt;stroke-linejoin:miter;stroke:rgb(100%,100%,100%);stroke-opacity:1;stroke-miterlimit:4;" d="M 380.224579 670.715782 L 346.222421 670.331577 L 346.606626 618.607956 L 381.08904 618.752032 " transform="matrix(0.0813367,0,0,0.0813367,0.413612,-41.917123)"/>
<path style="fill:none;stroke-width:9;stroke-linecap:butt;stroke-linejoin:miter;stroke:rgb(100%,100%,100%);stroke-opacity:1;stroke-miterlimit:4;" d="M 348.959883 642.380651 L 378.063425 642.524727 " transform="matrix(0.0813367,0,0,0.0813367,0.413612,-41.917123)"/>
</g>
</svg>
