<?xml version="1.0" encoding="UTF-8"?>
<svg xmlns="http://www.w3.org/2000/svg" xmlns:xlink="http://www.w3.org/1999/xlink" width="48" height="48" viewBox="0 0 48 48" version="1.1">
<g id="surface1">
<path style=" stroke:none;fill-rule:evenodd;fill:rgb(78.431373%,6.666667%,0%);fill-opacity:1;" d="M 6.050781 14.769531 L 11.160156 19.769531 L 11 12.757812 L 6.046875 12.734375 Z M 6.050781 14.769531 "/>
<path style="fill-rule:evenodd;fill:rgb(94.901961%,94.901961%,94.901961%);fill-opacity:1;stroke-width:5.03546;stroke-linecap:butt;stroke-linejoin:miter;stroke:rgb(68.627451%,68.627451%,68.627451%);stroke-opacity:1;stroke-miterlimit:4;" d="M 97.045898 1029.819862 L 433.919271 1028.680539 L 435.099284 664.788937 L 347.045898 575.555539 L 97.045898 575.555539 Z M 97.045898 1029.819862 " transform="matrix(0.096,0,0,0.096,0,-53.026769)"/>
<path style="fill-rule:evenodd;fill:rgb(68.627451%,68.627451%,68.627451%);fill-opacity:1;stroke-width:5.03546;stroke-linecap:butt;stroke-linejoin:miter;stroke:rgb(68.627451%,68.627451%,68.627451%);stroke-opacity:1;stroke-miterlimit:4;" d="M 431.518555 662.917193 L 349.365234 662.347531 L 350.097656 578.566607 Z M 431.518555 662.917193 " transform="matrix(0.096,0,0,0.096,0,-53.026769)"/>
<path style=" stroke:none;fill-rule:nonzero;fill:rgb(94.117647%,22.352941%,8.627451%);fill-opacity:1;" d="M 6.0625 6.703125 L 27.65625 6.703125 L 27.65625 14.800781 L 6.0625 14.800781 Z M 6.0625 6.703125 "/>
<path style=" stroke:none;fill-rule:evenodd;fill:rgb(100%,40%,0%);fill-opacity:1;" d="M 19.625 21.652344 L 26.167969 33.644531 L 19.625 45.640625 L 22.894531 45.640625 L 27.800781 36.644531 L 32.707031 45.640625 L 35.976562 45.640625 L 30.742188 36.042969 L 30.03125 34.734375 L 29.4375 33.644531 L 22.894531 21.652344 Z M 19.625 21.652344 "/>
<path style=" stroke:none;fill-rule:evenodd;fill:rgb(100%,80%,0%);fill-opacity:1;" d="M 29.023438 28.992188 L 30.214844 31.171875 L 35.167969 31.171875 L 35.167969 28.992188 Z M 31.402344 33.351562 L 32.59375 35.53125 L 35.167969 35.53125 L 35.167969 33.351562 Z M 31.402344 33.351562 "/>
<path style=" stroke:none;fill-rule:evenodd;fill:rgb(94.117647%,22.352941%,8.627451%);fill-opacity:1;" d="M 14.070312 21.667969 L 20.613281 33.660156 L 14.070312 45.652344 L 17.34375 45.652344 L 23.882812 33.660156 L 17.34375 21.667969 Z M 14.070312 21.667969 "/>
<path style="fill:none;stroke-width:9;stroke-linecap:butt;stroke-linejoin:miter;stroke:rgb(100%,100%,100%);stroke-opacity:1;stroke-miterlimit:4;" d="M 311.214391 528.431569 L 311.499221 582.956309 " transform="matrix(0.096,0,0,0.096,-17.806269,-42.827087)"/>
<path style="fill:none;stroke-width:9;stroke-linecap:butt;stroke-linejoin:miter;stroke:rgb(100%,100%,100%);stroke-opacity:1;stroke-miterlimit:4;" d="M 346.28926 527.983978 L 346.574091 582.468027 " transform="matrix(0.096,0,0,0.096,-17.806269,-42.827087)"/>
<path style="fill:none;stroke-width:9;stroke-linecap:butt;stroke-linejoin:miter;stroke:rgb(100%,100%,100%);stroke-opacity:1;stroke-miterlimit:4;" d="M 310.88887 555.042897 L 347.509964 555.042897 " transform="matrix(0.096,0,0,0.096,-17.806269,-42.827087)"/>
<path style="fill:none;stroke-width:10;stroke-linecap:butt;stroke-linejoin:miter;stroke:rgb(100%,100%,100%);stroke-opacity:1;stroke-miterlimit:4;" d="M 215.169271 638.055539 C 215.169271 638.055539 205.932617 633.783078 197.102865 633.701698 C 188.313802 633.620318 182.861328 638.910031 182.535807 646.519081 C 182.250977 654.08744 186.482747 660.190956 201.619466 661.98132 C 216.796875 663.771685 215.901693 676.955279 214.029948 681.634641 C 212.158203 686.314003 203.328451 690.708534 194.335938 689.528521 C 185.384115 688.307818 177.897135 684.238807 177.897135 684.238807 " transform="matrix(0.096,0,0,0.096,0,-53.026769)"/>
</g>
</svg>
