<?xml version="1.0" encoding="UTF-8"?>
<svg xmlns="http://www.w3.org/2000/svg" xmlns:xlink="http://www.w3.org/1999/xlink" width="48" height="48" viewBox="0 0 48 48" version="1.1">
<g id="surface1">
<path style=" stroke:none;fill-rule:evenodd;fill:rgb(0%,56.078431%,81.176471%);fill-opacity:1;" d="M 6.050781 14.769531 L 11.160156 19.769531 L 11 12.757812 L 6.046875 12.734375 Z M 6.050781 14.769531 "/>
<path style="fill-rule:evenodd;fill:rgb(94.901961%,94.901961%,94.901961%);fill-opacity:1;stroke-width:5.03546;stroke-linecap:butt;stroke-linejoin:miter;stroke:rgb(68.627451%,68.627451%,68.627451%);stroke-opacity:1;stroke-miterlimit:4;" d="M 97.045898 1029.819862 L 433.919271 1028.680539 L 435.099284 664.788937 L 347.045898 575.555539 L 97.045898 575.555539 Z M 97.045898 1029.819862 " transform="matrix(0.096,0,0,0.096,0,-53.026769)"/>
<path style="fill-rule:evenodd;fill:rgb(68.627451%,68.627451%,68.627451%);fill-opacity:1;stroke-width:5.03546;stroke-linecap:butt;stroke-linejoin:miter;stroke:rgb(68.627451%,68.627451%,68.627451%);stroke-opacity:1;stroke-miterlimit:4;" d="M 431.518555 662.917193 L 349.365234 662.347531 L 350.097656 578.566607 Z M 431.518555 662.917193 " transform="matrix(0.096,0,0,0.096,0,-53.026769)"/>
<path style=" stroke:none;fill-rule:nonzero;fill:rgb(0%,73.333333%,94.901961%);fill-opacity:1;" d="M 6.0625 6.703125 L 32.523438 6.703125 L 32.523438 14.800781 L 6.0625 14.800781 Z M 6.0625 6.703125 "/>
<path style=" stroke:none;fill-rule:nonzero;fill:rgb(0%,73.333333%,94.901961%);fill-opacity:1;" d="M 30.183594 35.449219 C 32.40625 32.980469 33.976562 31.167969 33.933594 31.125 C 33.894531 31.085938 32.941406 31.042969 31.816406 31.03125 L 29.773438 31.007812 L 29.730469 26.578125 L 29.6875 22.152344 L 22.757812 22.152344 L 22.714844 26.578125 L 22.671875 31.007812 L 20.585938 31.046875 C 19.230469 31.074219 18.496094 31.121094 18.496094 31.175781 C 18.496094 31.34375 26.09375 39.734375 26.230469 39.714844 C 26.300781 39.703125 28.082031 37.78125 30.183594 35.449219 Z M 30.183594 35.449219 "/>
<path style=" stroke:none;fill-rule:nonzero;fill:rgb(0%,73.333333%,94.901961%);fill-opacity:1;" d="M 14.082031 36.691406 L 18.222656 36.691406 L 18.222656 40.828125 L 33.945312 40.828125 L 33.945312 36.691406 L 38.082031 36.691406 L 38.082031 44.964844 L 14.082031 44.964844 Z M 14.082031 36.691406 "/>
<path style="fill:none;stroke-width:9;stroke-linecap:butt;stroke-linejoin:miter;stroke:rgb(100%,100%,100%);stroke-opacity:1;stroke-miterlimit:4;" d="M 133.350805 354.159965 L 133.304112 304.665297 " transform="matrix(0.083658,0,0,0.083658,-3.378518,-16.296283)"/>
<path style=" stroke:none;fill-rule:nonzero;fill:rgb(100%,100%,100%);fill-opacity:1;" d="M 7.414062 8.125 L 8.15625 8.125 L 8.15625 8.847656 L 7.414062 8.847656 Z M 7.414062 8.125 "/>
<path style="fill:none;stroke-width:7.842927;stroke-linecap:butt;stroke-linejoin:bevel;stroke:rgb(100%,100%,100%);stroke-opacity:1;stroke-miterlimit:4;" d="M 93.343099 691.034055 L 93.139648 637.892779 L 129.801432 690.342323 L 129.801432 637.160357 " transform="matrix(0.096,0,0,0.096,0,-53.026769)"/>
<path style="fill:none;stroke-width:8.714363;stroke-linecap:butt;stroke-linejoin:miter;stroke:rgb(100%,100%,100%);stroke-opacity:1;stroke-miterlimit:4;" d="M 171.83431 645.542518 C 171.83431 645.542518 163.736979 641.839719 156.08724 641.717648 C 148.39681 641.636268 143.636068 646.27494 143.351237 652.907427 C 143.107096 659.539914 146.809896 664.829628 159.99349 666.375852 C 173.217773 667.922076 172.403971 679.437375 170.817057 683.506385 C 169.189453 687.575396 161.499023 691.400266 153.645833 690.383013 C 145.833333 689.32507 139.322917 685.785031 139.322917 685.785031 " transform="matrix(0.096,0,0,0.096,0,-53.026769)"/>
<path style="fill:none;stroke-width:9;stroke-linecap:butt;stroke-linejoin:miter;stroke:rgb(100%,100%,100%);stroke-opacity:1;stroke-miterlimit:4;" d="M 122.810504 699.606436 L 122.810504 642.314023 " transform="matrix(0.083658,0,0,0.083658,8.960294,-45.094082)"/>
<path style="fill:none;stroke-width:8.670217;stroke-linecap:butt;stroke-linejoin:miter;stroke:rgb(100%,100%,100%);stroke-opacity:1;stroke-miterlimit:4;" d="M 96.242139 642.73426 L 149.378868 642.73426 " transform="matrix(0.083658,0,0,0.083658,8.960294,-45.094082)"/>
<path style="fill:none;stroke-width:9;stroke-linecap:butt;stroke-linejoin:bevel;stroke:rgb(100%,100%,100%);stroke-opacity:1;stroke-miterlimit:4;" d="M 915.685687 696.270747 L 937.847821 637.990825 L 960.566327 696.270747 " transform="matrix(0.0842512,0,0,0.0842512,-56.24532,-45.333556)"/>
<path style="fill:none;stroke-width:9;stroke-linecap:butt;stroke-linejoin:miter;stroke:rgb(100%,100%,100%);stroke-opacity:1;stroke-miterlimit:4;" d="M 924.587632 676.751378 L 950.366182 676.751378 " transform="matrix(0.0842512,0,0,0.0842512,-56.24532,-45.333556)"/>
<path style="fill:none;stroke-width:7.842927;stroke-linecap:butt;stroke-linejoin:miter;stroke:rgb(100%,100%,100%);stroke-opacity:1;stroke-miterlimit:4;" d="M 267.537435 639.805214 L 267.822266 687.290565 L 295.491536 687.575396 " transform="matrix(0.096,0,0,0.096,0,-53.026769)"/>
<path style="fill:none;stroke-width:7.842927;stroke-linecap:butt;stroke-linejoin:miter;stroke:rgb(100%,100%,100%);stroke-opacity:1;stroke-miterlimit:4;" d="M 302.612305 640.822466 L 302.856445 688.307818 L 330.525716 688.551958 " transform="matrix(0.096,0,0,0.096,0,-53.026769)"/>
</g>
</svg>
