<?xml version="1.0" encoding="UTF-8"?>
<svg xmlns="http://www.w3.org/2000/svg" xmlns:xlink="http://www.w3.org/1999/xlink" width="48" height="48" viewBox="0 0 48 48" version="1.1">
<g id="surface1">
<path style=" stroke:none;fill-rule:evenodd;fill:rgb(20%,20%,20%);fill-opacity:1;" d="M 6.050781 14.769531 L 11.160156 19.769531 L 11 12.757812 L 6.046875 12.734375 Z M 6.050781 14.769531 "/>
<path style="fill-rule:evenodd;fill:rgb(94.901961%,94.901961%,94.901961%);fill-opacity:1;stroke-width:5.03546;stroke-linecap:butt;stroke-linejoin:miter;stroke:rgb(68.627451%,68.627451%,68.627451%);stroke-opacity:1;stroke-miterlimit:4;" d="M 97.045898 1029.819862 L 433.919271 1028.680539 L 435.099284 664.788937 L 347.045898 575.555539 L 97.045898 575.555539 Z M 97.045898 1029.819862 " transform="matrix(0.096,0,0,0.096,0,-53.026769)"/>
<path style="fill-rule:evenodd;fill:rgb(68.627451%,68.627451%,68.627451%);fill-opacity:1;stroke-width:5.03546;stroke-linecap:butt;stroke-linejoin:miter;stroke:rgb(68.627451%,68.627451%,68.627451%);stroke-opacity:1;stroke-miterlimit:4;" d="M 431.518555 662.917193 L 349.365234 662.347531 L 350.097656 578.566607 Z M 431.518555 662.917193 " transform="matrix(0.096,0,0,0.096,0,-53.026769)"/>
<path style=" stroke:none;fill-rule:nonzero;fill:rgb(30.196078%,30.196078%,30.196078%);fill-opacity:1;" d="M 6.0625 6.703125 L 25.328125 6.703125 L 25.328125 14.800781 L 6.0625 14.800781 Z M 6.0625 6.703125 "/>
<path style=" stroke:none;fill-rule:nonzero;fill:rgb(40%,40%,40%);fill-opacity:1;" d="M 11.128906 31.554688 L 39.671875 31.554688 L 39.671875 32.71875 L 11.128906 32.71875 Z M 11.128906 31.554688 "/>
<path style=" stroke:none;fill-rule:nonzero;fill:rgb(40%,40%,40%);fill-opacity:1;" d="M 11.238281 36.601562 L 39.828125 36.601562 L 39.828125 37.765625 L 11.238281 37.765625 Z M 11.238281 36.601562 "/>
<path style=" stroke:none;fill-rule:nonzero;fill:rgb(40%,40%,40%);fill-opacity:1;" d="M 11.238281 41.804688 L 30.8125 41.804688 L 30.8125 42.972656 L 11.238281 42.972656 Z M 11.238281 41.804688 "/>
<path style=" stroke:none;fill-rule:nonzero;fill:rgb(40%,40%,40%);fill-opacity:1;" d="M 10.9375 21.507812 L 39.480469 21.507812 L 39.480469 22.671875 L 10.9375 22.671875 Z M 10.9375 21.507812 "/>
<path style=" stroke:none;fill-rule:nonzero;fill:rgb(40%,40%,40%);fill-opacity:1;" d="M 11.050781 26.554688 L 39.636719 26.554688 L 39.636719 27.71875 L 11.050781 27.71875 Z M 11.050781 26.554688 "/>
<path style="fill:none;stroke-width:9;stroke-linecap:butt;stroke-linejoin:miter;stroke:rgb(100%,100%,100%);stroke-opacity:1;stroke-miterlimit:4;" d="M 108.601888 632.277544 L 108.886719 686.761594 L 140.625 687.046424 " transform="matrix(0.096,0,0,0.096,0,-53.026769)"/>
<path style="fill:none;stroke-width:9;stroke-linecap:butt;stroke-linejoin:miter;stroke:rgb(100%,100%,100%);stroke-opacity:1;stroke-miterlimit:4;" d="M 166.544596 686.924354 C 154.541016 686.842974 143.188477 674.758013 143.107096 659.458534 C 143.066406 644.159055 155.110677 631.870643 167.277018 632.196164 C 179.402669 632.562375 189.982096 644.118365 190.226237 660.394406 C 190.429688 676.711138 178.588867 687.046424 166.544596 686.924354 Z M 166.544596 686.924354 " transform="matrix(0.096,0,0,0.096,0,-53.026769)"/>
<path style="fill:none;stroke-width:9;stroke-linecap:butt;stroke-linejoin:miter;stroke:rgb(100%,100%,100%);stroke-opacity:1;stroke-miterlimit:4;" d="M 250.651042 642.24662 C 250.651042 642.24662 243.408203 634.55619 227.905273 634.63757 C 212.443034 634.759641 204.345703 650.547401 204.589844 662.917193 C 204.874674 675.286984 215.576172 688.389198 227.823893 689.650591 C 240.071615 690.911984 249.186198 684.482948 249.186198 684.482948 L 248.616536 664.382036 L 231.852214 664.585487 " transform="matrix(0.096,0,0,0.096,0,-53.026769)"/>
</g>
</svg>
