<?xml version="1.0" encoding="UTF-8"?>
<svg xmlns="http://www.w3.org/2000/svg" xmlns:xlink="http://www.w3.org/1999/xlink" width="48" height="48" viewBox="0 0 48 48" version="1.1">
<g id="surface1">
<path style=" stroke:none;fill-rule:evenodd;fill:rgb(0%,52.941176%,73.72549%);fill-opacity:1;" d="M 6.066406 14.824219 L 11.175781 19.828125 L 11.015625 12.8125 L 6.0625 12.789062 Z M 6.066406 14.824219 "/>
<path style="fill-rule:evenodd;fill:rgb(94.901961%,94.901961%,94.901961%);fill-opacity:1;stroke-width:5.03546;stroke-linecap:butt;stroke-linejoin:miter;stroke:rgb(68.627451%,68.627451%,68.627451%);stroke-opacity:1;stroke-miterlimit:4;" d="M 96.923828 1029.819862 L 433.797201 1028.680539 L 434.977214 664.788937 L 346.923828 575.555539 L 96.923828 575.555539 Z M 96.923828 1029.819862 " transform="matrix(0.096,0,0,0.096,0,-53.026769)"/>
<path style="fill-rule:evenodd;fill:rgb(68.627451%,68.627451%,68.627451%);fill-opacity:1;stroke-width:5.03546;stroke-linecap:butt;stroke-linejoin:miter;stroke:rgb(68.627451%,68.627451%,68.627451%);stroke-opacity:1;stroke-miterlimit:4;" d="M 431.396484 662.917193 L 349.202474 662.347531 L 349.975586 578.566607 Z M 431.396484 662.917193 " transform="matrix(0.096,0,0,0.096,0,-53.026769)"/>
<path style=" stroke:none;fill-rule:nonzero;fill:rgb(0%,73.333333%,94.901961%);fill-opacity:1;" d="M 6.046875 6.703125 L 27.277344 6.703125 L 27.277344 14.800781 L 6.046875 14.800781 Z M 6.046875 6.703125 "/>
<path style=" stroke:none;fill-rule:nonzero;fill:rgb(97.647059%,97.647059%,97.647059%);fill-opacity:1;" d="M 22.8125 24.328125 C 22.8125 25.15625 22.136719 25.824219 21.3125 25.824219 C 20.484375 25.824219 19.8125 25.15625 19.8125 24.328125 C 19.8125 23.5 20.484375 22.828125 21.3125 22.828125 C 22.136719 22.828125 22.8125 23.5 22.8125 24.328125 M 22.8125 24.328125 "/>
<path style=" stroke:none;fill-rule:nonzero;fill:rgb(0%,73.333333%,94.901961%);fill-opacity:1;" d="M 24.804688 21.34375 C 23.8125 21.347656 22.867188 21.433594 22.039062 21.578125 C 19.585938 22.007812 19.140625 22.898438 19.140625 24.554688 L 19.140625 26.734375 L 24.929688 26.734375 L 24.929688 27.460938 L 16.972656 27.460938 C 15.289062 27.460938 13.816406 28.464844 13.355469 30.363281 C 12.824219 32.542969 12.796875 33.90625 13.355469 36.179688 C 13.765625 37.875 14.746094 39.082031 16.429688 39.082031 L 18.128906 39.082031 L 18.128906 36.183594 C 18.128906 34.296875 19.789062 32.640625 21.75 32.640625 L 27.808594 32.640625 C 29.417969 32.640625 30.941406 31.328125 30.941406 29.730469 L 30.941406 24.566406 C 30.941406 23.015625 29.382812 21.847656 27.808594 21.589844 C 26.820312 21.425781 25.789062 21.351562 24.800781 21.355469 M 21.671875 23.097656 C 22.269531 23.097656 22.757812 23.589844 22.757812 24.195312 C 22.757812 24.796875 22.269531 25.28125 21.671875 25.28125 C 21.070312 25.28125 20.582031 24.796875 20.582031 24.195312 C 20.582031 23.589844 21.066406 23.097656 21.671875 23.097656 M 21.671875 23.097656 "/>
<path style=" stroke:none;fill-rule:nonzero;fill:rgb(97.647059%,97.647059%,97.647059%);fill-opacity:1;" d="M 29.8125 42.320312 C 29.8125 43.148438 29.140625 43.820312 28.3125 43.820312 C 27.480469 43.820312 26.808594 43.148438 26.808594 42.320312 C 26.808594 41.492188 27.480469 40.820312 28.3125 40.820312 C 29.140625 40.820312 29.8125 41.492188 29.8125 42.320312 M 29.8125 42.320312 "/>
<path style=" stroke:none;fill-rule:nonzero;fill:rgb(100%,83.137255%,16.470588%);fill-opacity:1;" d="M 31.765625 27.460938 L 31.765625 30.003906 C 31.765625 31.972656 30.074219 33.398438 28.148438 33.398438 L 21.796875 33.398438 C 20.21875 33.398438 18.90625 34.976562 18.90625 36.542969 L 18.90625 41.992188 C 18.90625 43.542969 20.265625 44.453125 21.796875 44.898438 C 23.632812 45.429688 25.625 45.53125 27.816406 44.898438 C 29.273438 44.480469 30.710938 43.640625 30.710938 41.992188 L 30.710938 39.808594 L 24.929688 39.808594 L 24.929688 39.082031 L 33.609375 39.082031 C 35.289062 39.082031 35.917969 37.921875 36.503906 36.179688 C 37.109375 34.390625 37.078125 32.664062 36.503906 30.367188 C 36.085938 28.707031 35.292969 27.464844 33.609375 27.464844 M 28.183594 41.265625 C 28.78125 41.265625 29.269531 41.753906 29.269531 42.351562 C 29.269531 42.953125 28.789062 43.453125 28.183594 43.453125 C 27.582031 43.453125 27.09375 42.953125 27.09375 42.351562 C 27.09375 41.753906 27.582031 41.265625 28.183594 41.265625 M 28.183594 41.265625 "/>
<path style="fill:none;stroke-width:9.063828;stroke-linecap:butt;stroke-linejoin:miter;stroke:rgb(100%,100%,100%);stroke-opacity:1;stroke-miterlimit:4;" d="M 162.679036 695.916867 L 162.679036 639.479693 C 162.679036 639.479693 193.481445 633.498247 193.359375 653.761919 C 193.277995 674.025591 163.289388 668.491737 163.289388 668.491737 " transform="matrix(0.096,0,0,0.096,0,-53.026769)"/>
<path style="fill:none;stroke-width:9;stroke-linecap:butt;stroke-linejoin:miter;stroke:rgb(100%,100%,100%);stroke-opacity:1;stroke-miterlimit:4;" d="M 516.192096 313.176493 L 536.659219 342.473368 L 556.353229 313.176493 " transform="matrix(0.096,0,0,0.096,-29.804441,-22.076662)"/>
<path style="fill:none;stroke-width:9;stroke-linecap:butt;stroke-linejoin:miter;stroke:rgb(100%,100%,100%);stroke-opacity:1;stroke-miterlimit:4;" d="M 536.618529 342.432678 L 536.374388 371.241272 " transform="matrix(0.096,0,0,0.096,-29.804441,-22.076662)"/>
</g>
</svg>
