<?xml version="1.0" encoding="UTF-8"?>
<svg xmlns="http://www.w3.org/2000/svg" xmlns:xlink="http://www.w3.org/1999/xlink" width="48" height="48" viewBox="0 0 48 48" version="1.1">
<g id="surface1">
<path style=" stroke:none;fill-rule:evenodd;fill:rgb(0%,11.372549%,39.215686%);fill-opacity:1;" d="M 6.050781 14.769531 L 11.160156 19.769531 L 11 12.757812 L 6.046875 12.734375 Z M 6.050781 14.769531 "/>
<path style="fill-rule:evenodd;fill:rgb(94.901961%,94.901961%,94.901961%);fill-opacity:1;stroke-width:5.03546;stroke-linecap:butt;stroke-linejoin:miter;stroke:rgb(68.627451%,68.627451%,68.627451%);stroke-opacity:1;stroke-miterlimit:4;" d="M 97.045898 1029.819862 L 433.919271 1028.680539 L 435.099284 664.788937 L 347.045898 575.555539 L 97.045898 575.555539 Z M 97.045898 1029.819862 " transform="matrix(0.096,0,0,0.096,0,-53.026769)"/>
<path style="fill-rule:evenodd;fill:rgb(68.627451%,68.627451%,68.627451%);fill-opacity:1;stroke-width:5.03546;stroke-linecap:butt;stroke-linejoin:miter;stroke:rgb(68.627451%,68.627451%,68.627451%);stroke-opacity:1;stroke-miterlimit:4;" d="M 431.518555 662.917193 L 349.365234 662.347531 L 350.097656 578.566607 Z M 431.518555 662.917193 " transform="matrix(0.096,0,0,0.096,0,-53.026769)"/>
<path style=" stroke:none;fill-rule:nonzero;fill:rgb(0%,30.196078%,54.509804%);fill-opacity:1;" d="M 6.0625 6.703125 L 25.113281 6.703125 L 25.113281 14.800781 L 6.0625 14.800781 Z M 6.0625 6.703125 "/>
<path style=" stroke:none;fill-rule:nonzero;fill:rgb(0%,30.196078%,54.509804%);fill-opacity:1;" d="M 14.0625 23.148438 L 14.0625 45.589844 L 36.503906 45.589844 L 36.503906 23.148438 Z M 15.742188 24.832031 L 17.425781 24.832031 L 17.425781 26.515625 L 15.742188 26.515625 Z M 33.136719 24.832031 L 34.820312 24.832031 L 34.820312 26.515625 L 33.136719 26.515625 Z M 15.742188 29.039062 L 17.425781 29.039062 L 17.425781 30.722656 L 15.742188 30.722656 Z M 33.136719 29.039062 L 34.820312 29.039062 L 34.820312 30.722656 L 33.136719 30.722656 Z M 15.742188 33.527344 L 17.425781 33.527344 L 17.425781 35.210938 L 15.742188 35.210938 Z M 33.136719 33.527344 L 34.820312 33.527344 L 34.820312 35.210938 L 33.136719 35.210938 Z M 15.742188 38.015625 L 17.425781 38.015625 L 17.425781 39.699219 L 15.742188 39.699219 Z M 33.136719 38.015625 L 34.820312 38.015625 L 34.820312 39.699219 L 33.136719 39.699219 Z M 15.742188 42.222656 L 17.425781 42.222656 L 17.425781 43.90625 L 15.742188 43.90625 Z M 33.136719 42.222656 L 34.820312 42.222656 L 34.820312 43.90625 L 33.136719 43.90625 Z M 33.136719 42.222656 "/>
<path style=" stroke:none;fill-rule:nonzero;fill:rgb(40.784314%,91.764706%,100%);fill-opacity:1;" d="M 19.167969 24.875 L 31.511719 24.875 L 31.511719 33.570312 L 19.167969 33.570312 Z M 19.167969 24.875 "/>
<path style=" stroke:none;fill-rule:nonzero;fill:rgb(40.784314%,91.764706%,100%);fill-opacity:1;" d="M 19.109375 35.210938 L 31.453125 35.210938 L 31.453125 43.90625 L 19.109375 43.90625 Z M 19.109375 35.210938 "/>
<path style=" stroke:none;fill-rule:evenodd;fill:rgb(94.117647%,22.352941%,8.627451%);fill-opacity:0.941176;" d="M 23.746094 43.9375 C 23.746094 43.9375 24.019531 40.988281 26.257812 39.050781 C 28.492188 37.113281 31.484375 37.761719 31.484375 37.761719 L 31.457031 43.960938 Z M 23.746094 43.9375 "/>
<path style=" stroke:none;fill-rule:evenodd;fill:rgb(94.117647%,22.352941%,8.627451%);fill-opacity:0.941176;" d="M 21.992188 24.84375 C 21.992188 24.84375 21.96875 25.714844 22.6875 26.59375 C 23.414062 27.476562 24.199219 27.621094 24.199219 27.621094 L 24.175781 29.570312 L 25.042969 29.570312 L 25.066406 27.625 C 25.066406 27.625 25.746094 27.554688 26.53125 26.738281 C 27.3125 25.917969 27.25 24.816406 27.25 24.816406 Z M 21.992188 24.84375 "/>
<path style=" stroke:none;fill-rule:nonzero;fill:rgb(83.137255%,33.333333%,0%);fill-opacity:0.941176;" d="M 24.152344 29.828125 L 25.035156 29.828125 L 25.035156 30.507812 L 24.152344 30.507812 Z M 24.152344 29.828125 "/>
<path style="fill:none;stroke-width:9.274095;stroke-linecap:butt;stroke-linejoin:miter;stroke:rgb(100%,100%,100%);stroke-opacity:1;stroke-miterlimit:4;" d="M 93.383789 692.214068 L 93.66862 635.980344 L 98.876953 635.736203 L 115.234375 678.298052 L 118.652344 678.298052 L 135.131836 635.736203 L 140.50293 635.695513 L 140.50293 692.336138 " transform="matrix(0.096,0,0,0.096,0,-53.026769)"/>
<path style="fill:none;stroke-width:9.063828;stroke-linecap:butt;stroke-linejoin:miter;stroke:rgb(100%,100%,100%);stroke-opacity:1;stroke-miterlimit:4;" d="M 160.644531 691.644406 L 160.644531 635.207232 C 160.644531 635.207232 191.44694 629.266477 191.36556 649.489458 C 191.24349 669.75313 161.254883 664.219276 161.254883 664.219276 " transform="matrix(0.096,0,0,0.096,0,-53.026769)"/>
<path style="fill:none;stroke-width:9;stroke-linecap:butt;stroke-linejoin:bevel;stroke:rgb(100%,100%,100%);stroke-opacity:1;stroke-miterlimit:4;" d="M 238.15918 670.241411 L 203.979492 670.241411 L 225.382487 633.986529 L 224.975586 692.091997 " transform="matrix(0.096,0,0,0.096,0,-53.026769)"/>
</g>
</svg>
