<?xml version="1.0" encoding="UTF-8"?>
<svg xmlns="http://www.w3.org/2000/svg" xmlns:xlink="http://www.w3.org/1999/xlink" width="48" height="48" viewBox="0 0 48 48" version="1.1">
<g id="surface1">
<path style=" stroke:none;fill-rule:evenodd;fill:rgb(81.568627%,7.058824%,0%);fill-opacity:1;" d="M 6.050781 14.769531 L 11.160156 19.769531 L 11 12.757812 L 6.046875 12.734375 Z M 6.050781 14.769531 "/>
<path style="fill-rule:evenodd;fill:rgb(94.901961%,94.901961%,94.901961%);fill-opacity:1;stroke-width:5.03546;stroke-linecap:butt;stroke-linejoin:miter;stroke:rgb(68.627451%,68.627451%,68.627451%);stroke-opacity:1;stroke-miterlimit:4;" d="M 97.045898 1029.819862 L 433.919271 1028.680539 L 435.099284 664.788937 L 347.045898 575.555539 L 97.045898 575.555539 Z M 97.045898 1029.819862 " transform="matrix(0.096,0,0,0.096,0,-53.026769)"/>
<path style="fill-rule:evenodd;fill:rgb(68.627451%,68.627451%,68.627451%);fill-opacity:1;stroke-width:5.03546;stroke-linecap:butt;stroke-linejoin:miter;stroke:rgb(68.627451%,68.627451%,68.627451%);stroke-opacity:1;stroke-miterlimit:4;" d="M 431.518555 662.917193 L 349.365234 662.347531 L 350.097656 578.566607 Z M 431.518555 662.917193 " transform="matrix(0.096,0,0,0.096,0,-53.026769)"/>
<path style=" stroke:none;fill-rule:nonzero;fill:rgb(94.117647%,22.352941%,8.627451%);fill-opacity:1;" d="M 6.0625 6.703125 L 27.65625 6.703125 L 27.65625 14.800781 L 6.0625 14.800781 Z M 6.0625 6.703125 "/>
<path style=" stroke:none;fill-rule:nonzero;fill:rgb(80%,80%,80%);fill-opacity:1;" d="M 14.148438 26.203125 L 14.148438 40.652344 C 14.148438 43.292969 16.269531 45.417969 18.902344 45.417969 L 31.679688 45.417969 L 38.066406 38.980469 L 38.066406 26.203125 Z M 14.148438 26.203125 "/>
<path style=" stroke:none;fill-rule:nonzero;fill:rgb(90.196078%,90.196078%,90.196078%);fill-opacity:1;" d="M 18.902344 21.433594 C 18.84375 21.433594 18.789062 21.433594 18.734375 21.4375 C 18.789062 21.433594 18.84375 21.433594 18.902344 21.433594 Z M 33.3125 21.433594 C 33.371094 21.433594 33.425781 21.433594 33.484375 21.4375 C 33.429688 21.433594 33.371094 21.433594 33.3125 21.433594 Z M 14.148438 34.964844 L 14.148438 42.761719 C 14.148438 44.308594 15.546875 45.417969 16.835938 45.417969 L 31.679688 45.417969 L 38.066406 38.980469 L 38.066406 34.964844 Z M 14.148438 34.964844 "/>
<path style=" stroke:none;fill-rule:nonzero;fill:rgb(22.352941%,25.098039%,31.372549%);fill-opacity:1;" d="M 25.546875 41.046875 L 26.8125 41.046875 L 26.835938 30.507812 L 24.523438 31.933594 L 24.523438 33.429688 L 25.519531 32.832031 Z M 25.546875 41.046875 "/>
<path style=" stroke:none;fill-rule:nonzero;fill:rgb(50.196078%,50.196078%,50.196078%);fill-opacity:1;" d="M 33.207031 38.898438 C 32.5625 38.898438 31.648438 39.808594 31.648438 40.449219 L 31.648438 45.433594 L 31.664062 45.433594 L 38.148438 38.898438 Z M 33.207031 38.898438 "/>
<path style=" stroke:none;fill-rule:nonzero;fill:rgb(94.117647%,22.352941%,8.627451%);fill-opacity:1;" d="M 16.863281 21.433594 C 14.230469 21.433594 14.148438 21.421875 14.148438 26.203125 L 38.066406 26.199219 C 38.0625 21.488281 38.109375 21.433594 35.476562 21.433594 Z M 18.1875 23.058594 C 18.605469 23.058594 18.941406 23.398438 18.941406 23.816406 C 18.941406 24.234375 18.605469 24.570312 18.1875 24.570312 C 17.773438 24.570312 17.4375 24.234375 17.4375 23.816406 C 17.4375 23.398438 17.773438 23.058594 18.1875 23.058594 Z M 34.144531 23.066406 C 34.539062 23.066406 34.863281 23.390625 34.863281 23.789062 C 34.863281 24.1875 34.539062 24.507812 34.144531 24.507812 C 33.746094 24.507812 33.425781 24.1875 33.425781 23.789062 C 33.425781 23.390625 33.746094 23.066406 34.144531 23.066406 Z M 34.144531 23.066406 "/>
</g>
</svg>
