<?xml version="1.0" encoding="UTF-8"?>
<svg xmlns="http://www.w3.org/2000/svg" xmlns:xlink="http://www.w3.org/1999/xlink" width="48" height="48" viewBox="0 0 48 48" version="1.1">
<g id="surface1">
<path style=" stroke:none;fill-rule:evenodd;fill:rgb(10.588235%,14.901961%,19.215686%);fill-opacity:1;" d="M 6.050781 14.769531 L 11.160156 19.769531 L 11 12.757812 L 6.046875 12.734375 Z M 6.050781 14.769531 "/>
<path style="fill-rule:evenodd;fill:rgb(94.901961%,94.901961%,94.901961%);fill-opacity:1;stroke-width:5.03546;stroke-linecap:butt;stroke-linejoin:miter;stroke:rgb(68.627451%,68.627451%,68.627451%);stroke-opacity:1;stroke-miterlimit:4;" d="M 97.045898 1029.819862 L 433.919271 1028.680539 L 435.099284 664.788937 L 347.045898 575.555539 L 97.045898 575.555539 Z M 97.045898 1029.819862 " transform="matrix(0.096,0,0,0.096,0,-53.026769)"/>
<path style="fill-rule:evenodd;fill:rgb(68.627451%,68.627451%,68.627451%);fill-opacity:1;stroke-width:5.03546;stroke-linecap:butt;stroke-linejoin:miter;stroke:rgb(68.627451%,68.627451%,68.627451%);stroke-opacity:1;stroke-miterlimit:4;" d="M 431.518555 662.917193 L 349.365234 662.347531 L 350.097656 578.566607 Z M 431.518555 662.917193 " transform="matrix(0.096,0,0,0.096,0,-53.026769)"/>
<path style=" stroke:none;fill-rule:nonzero;fill:rgb(22.352941%,25.098039%,31.372549%);fill-opacity:1;" d="M 6.0625 6.703125 L 27.65625 6.703125 L 27.65625 14.800781 L 6.0625 14.800781 Z M 6.0625 6.703125 "/>
<path style="fill-rule:nonzero;fill:rgb(98.039216%,92.54902%,42.745098%);fill-opacity:1;stroke-width:15.218686;stroke-linecap:butt;stroke-linejoin:miter;stroke:rgb(22.352941%,25.098039%,31.372549%);stroke-opacity:1;stroke-miterlimit:4;" d="M 760.63763 336.463769 L 909.659169 336.503918 C 916.193509 336.472402 921.547673 341.291007 921.528898 347.222539 L 921.513283 498.54645 C 921.552017 504.47593 916.195329 509.273473 909.658937 509.24748 L 760.63945 509.26484 C 754.07533 509.268627 748.750946 504.47775 748.769721 498.546218 L 748.755556 347.194579 C 748.746602 341.292827 754.07351 336.467556 760.63763 336.463769 Z M 760.63763 336.463769 " transform="matrix(0.0654195,0.0702585,-0.0702585,0.0654195,0,-53.026769)"/>
<path style=" stroke:none;fill-rule:nonzero;fill:rgb(22.352941%,25.098039%,31.372549%);fill-opacity:1;" d="M 24.621094 29.378906 C 23.820312 29.492188 23.375 30.359375 23.375 30.359375 L 22.457031 31.636719 L 21.054688 32.402344 C 21.054688 32.402344 20.703125 32.554688 20.816406 32.875 C 20.929688 33.191406 21.203125 33.109375 21.203125 33.109375 L 22.835938 32.445312 L 23.695312 31.605469 L 24.472656 34.054688 L 22.964844 35.796875 L 22.964844 39.390625 C 22.964844 39.390625 23.03125 39.800781 23.417969 39.796875 C 23.800781 39.796875 23.933594 39.476562 23.933594 39.476562 L 24.105469 36.335938 L 25.277344 35.382812 L 25.609375 35.382812 L 26.027344 36.652344 L 27.480469 39.410156 C 27.480469 39.410156 27.789062 39.742188 28.148438 39.539062 C 28.511719 39.335938 28.449219 38.960938 28.449219 38.960938 L 27.074219 36.335938 L 26.964844 33.625 L 26.40625 31.046875 L 27.117188 31.261719 L 27.609375 32.851562 C 27.609375 32.851562 27.769531 33.269531 28.101562 33.164062 C 28.4375 33.0625 28.363281 32.660156 28.363281 32.660156 L 27.847656 30.660156 L 25.976562 29.582031 C 25.976562 29.582031 25.421875 29.265625 24.621094 29.378906 Z M 24.621094 29.378906 "/>
<path style=" stroke:none;fill-rule:nonzero;fill:rgb(22.352941%,25.098039%,31.372549%);fill-opacity:1;" d="M 25.769531 27.941406 C 25.769531 28.558594 25.257812 29.058594 24.628906 29.058594 C 24 29.0625 23.492188 28.5625 23.488281 27.945312 C 23.488281 27.328125 23.996094 26.824219 24.625 26.824219 C 25.253906 26.820312 25.765625 27.320312 25.769531 27.9375 "/>
</g>
</svg>
