<?xml version="1.0" encoding="UTF-8"?>
<svg xmlns="http://www.w3.org/2000/svg" xmlns:xlink="http://www.w3.org/1999/xlink" width="48" height="48" viewBox="0 0 48 48" version="1.1">
<g id="surface1">
<path style=" stroke:none;fill-rule:evenodd;fill:rgb(15.686275%,9.019608%,4.313725%);fill-opacity:1;" d="M 6.050781 14.769531 L 11.160156 19.769531 L 11 12.757812 L 6.046875 12.734375 Z M 6.050781 14.769531 "/>
<path style="fill-rule:evenodd;fill:rgb(94.901961%,94.901961%,94.901961%);fill-opacity:1;stroke-width:5.03546;stroke-linecap:butt;stroke-linejoin:miter;stroke:rgb(68.627451%,68.627451%,68.627451%);stroke-opacity:1;stroke-miterlimit:4;" d="M 97.045898 1029.819862 L 433.919271 1028.680539 L 435.099284 664.788937 L 347.045898 575.555539 L 97.045898 575.555539 Z M 97.045898 1029.819862 " transform="matrix(0.096,0,0,0.096,0,-53.026769)"/>
<path style="fill-rule:evenodd;fill:rgb(68.627451%,68.627451%,68.627451%);fill-opacity:1;stroke-width:5.03546;stroke-linecap:butt;stroke-linejoin:miter;stroke:rgb(68.627451%,68.627451%,68.627451%);stroke-opacity:1;stroke-miterlimit:4;" d="M 431.518555 662.917193 L 349.365234 662.347531 L 350.097656 578.566607 Z M 431.518555 662.917193 " transform="matrix(0.096,0,0,0.096,0,-53.026769)"/>
<path style=" stroke:none;fill-rule:nonzero;fill:rgb(31.372549%,17.647059%,8.627451%);fill-opacity:1;" d="M 6.0625 6.703125 L 26.300781 6.703125 L 26.300781 14.800781 L 6.0625 14.800781 Z M 6.0625 6.703125 "/>
<path style=" stroke:none;fill-rule:nonzero;fill:rgb(60%,60%,60%);fill-opacity:1;" d="M 35.628906 23.6875 L 36.273438 23.6875 C 36.605469 23.6875 36.878906 23.933594 36.878906 24.234375 L 36.878906 27.003906 C 36.878906 27.304688 36.605469 27.546875 36.273438 27.546875 L 35.628906 27.546875 C 35.296875 27.546875 35.023438 27.304688 35.023438 27.003906 L 35.023438 24.234375 C 35.023438 23.933594 35.296875 23.6875 35.628906 23.6875 Z M 35.628906 23.6875 "/>
<path style=" stroke:none;fill-rule:nonzero;fill:rgb(60%,60%,60%);fill-opacity:1;" d="M 35.628906 28.417969 L 36.273438 28.417969 C 36.605469 28.417969 36.878906 28.664062 36.878906 28.960938 L 36.878906 31.734375 C 36.878906 32.03125 36.605469 32.277344 36.273438 32.277344 L 35.628906 32.277344 C 35.296875 32.277344 35.023438 32.03125 35.023438 31.734375 L 35.023438 28.960938 C 35.023438 28.664062 35.296875 28.417969 35.628906 28.417969 Z M 35.628906 28.417969 "/>
<path style=" stroke:none;fill-rule:nonzero;fill:rgb(60%,60%,60%);fill-opacity:1;" d="M 35.628906 32.984375 L 36.273438 32.984375 C 36.605469 32.984375 36.878906 33.226562 36.878906 33.527344 L 36.878906 36.296875 C 36.878906 36.597656 36.605469 36.84375 36.273438 36.84375 L 35.628906 36.84375 C 35.296875 36.84375 35.023438 36.597656 35.023438 36.296875 L 35.023438 33.527344 C 35.023438 33.226562 35.296875 32.984375 35.628906 32.984375 Z M 35.628906 32.984375 "/>
<path style=" stroke:none;fill-rule:nonzero;fill:rgb(60%,60%,60%);fill-opacity:1;" d="M 35.628906 37.714844 L 36.273438 37.714844 C 36.605469 37.714844 36.878906 37.957031 36.878906 38.257812 L 36.878906 41.027344 C 36.878906 41.328125 36.605469 41.570312 36.273438 41.570312 L 35.628906 41.570312 C 35.296875 41.570312 35.023438 41.328125 35.023438 41.027344 L 35.023438 38.257812 C 35.023438 37.957031 35.296875 37.714844 35.628906 37.714844 Z M 35.628906 37.714844 "/>
<path style=" stroke:none;fill-rule:nonzero;fill:rgb(31.372549%,17.647059%,8.627451%);fill-opacity:1;" d="M 17.070312 21.339844 L 34.03125 21.339844 C 34.960938 21.339844 35.710938 22.1875 35.710938 23.238281 L 35.710938 43.433594 C 35.710938 44.480469 34.960938 45.328125 34.03125 45.328125 L 17.070312 45.328125 C 16.140625 45.328125 15.390625 44.480469 15.390625 43.433594 L 15.390625 23.238281 C 15.390625 22.1875 16.140625 21.339844 17.070312 21.339844 Z M 17.070312 21.339844 "/>
<path style=" stroke:none;fill-rule:nonzero;fill:rgb(40%,40%,40%);fill-opacity:1;" d="M 20.609375 45.328125 L 17.035156 45.335938 C 17.035156 45.335938 16.453125 45.316406 15.9375 44.835938 C 15.417969 44.355469 15.382812 43.507812 15.382812 43.507812 L 15.398438 23.191406 C 15.398438 23.191406 15.390625 22.464844 15.863281 21.917969 C 16.335938 21.375 17.15625 21.335938 17.15625 21.335938 L 20.601562 21.335938 Z M 20.609375 45.328125 "/>
<path style=" stroke:none;fill-rule:nonzero;fill:rgb(22.352941%,25.098039%,31.372549%);fill-opacity:1;" d="M 18.867188 24.042969 C 18.867188 24.597656 18.414062 25.046875 17.859375 25.046875 C 17.304688 25.046875 16.855469 24.597656 16.855469 24.042969 C 16.855469 23.488281 17.304688 23.039062 17.859375 23.039062 C 18.414062 23.039062 18.867188 23.488281 18.867188 24.042969 Z M 18.867188 24.042969 "/>
<path style=" stroke:none;fill-rule:nonzero;fill:rgb(80%,80%,80%);fill-opacity:1;" d="M 14.253906 24.671875 L 17.898438 24.671875 C 17.898438 24.671875 18.433594 24.625 18.421875 24.101562 C 18.410156 23.570312 17.871094 23.503906 17.871094 23.503906 L 14.210938 23.523438 C 14.210938 23.523438 13.734375 23.628906 13.746094 24.121094 C 13.753906 24.617188 14.253906 24.671875 14.253906 24.671875 Z M 14.253906 24.671875 "/>
<path style=" stroke:none;fill-rule:nonzero;fill:rgb(22.352941%,25.098039%,31.372549%);fill-opacity:1;" d="M 18.890625 26.621094 C 18.890625 27.175781 18.4375 27.625 17.882812 27.625 C 17.328125 27.625 16.878906 27.175781 16.878906 26.621094 C 16.878906 26.066406 17.328125 25.617188 17.882812 25.617188 C 18.4375 25.617188 18.890625 26.066406 18.890625 26.621094 Z M 18.890625 26.621094 "/>
<path style=" stroke:none;fill-rule:nonzero;fill:rgb(80%,80%,80%);fill-opacity:1;" d="M 14.277344 27.25 L 17.921875 27.25 C 17.921875 27.25 18.457031 27.203125 18.445312 26.675781 C 18.433594 26.148438 17.894531 26.078125 17.894531 26.078125 L 14.230469 26.101562 C 14.230469 26.101562 13.757812 26.203125 13.769531 26.699219 C 13.777344 27.191406 14.277344 27.25 14.277344 27.25 Z M 14.277344 27.25 "/>
<path style=" stroke:none;fill-rule:nonzero;fill:rgb(22.352941%,25.098039%,31.372549%);fill-opacity:1;" d="M 18.90625 29.175781 C 18.90625 29.730469 18.457031 30.179688 17.902344 30.179688 C 17.347656 30.179688 16.898438 29.730469 16.898438 29.175781 C 16.898438 28.621094 17.347656 28.171875 17.902344 28.171875 C 18.457031 28.171875 18.90625 28.621094 18.90625 29.175781 Z M 18.90625 29.175781 "/>
<path style=" stroke:none;fill-rule:nonzero;fill:rgb(80%,80%,80%);fill-opacity:1;" d="M 14.296875 29.804688 L 17.941406 29.804688 C 17.941406 29.804688 18.476562 29.757812 18.464844 29.230469 C 18.453125 28.703125 17.914062 28.632812 17.914062 28.632812 L 14.25 28.65625 C 14.25 28.65625 13.777344 28.757812 13.789062 29.25 C 13.796875 29.746094 14.296875 29.804688 14.296875 29.804688 Z M 14.296875 29.804688 "/>
<path style=" stroke:none;fill-rule:nonzero;fill:rgb(22.352941%,25.098039%,31.372549%);fill-opacity:1;" d="M 18.929688 31.75 C 18.929688 32.304688 18.480469 32.753906 17.925781 32.753906 C 17.371094 32.753906 16.921875 32.304688 16.921875 31.75 C 16.921875 31.195312 17.371094 30.746094 17.925781 30.746094 C 18.480469 30.746094 18.929688 31.195312 18.929688 31.75 Z M 18.929688 31.75 "/>
<path style=" stroke:none;fill-rule:nonzero;fill:rgb(80%,80%,80%);fill-opacity:1;" d="M 14.320312 32.378906 L 17.964844 32.378906 C 17.964844 32.378906 18.5 32.335938 18.488281 31.804688 C 18.476562 31.277344 17.9375 31.210938 17.9375 31.210938 L 14.273438 31.230469 C 14.273438 31.230469 13.800781 31.335938 13.8125 31.828125 C 13.820312 32.320312 14.320312 32.378906 14.320312 32.378906 Z M 14.320312 32.378906 "/>
<path style=" stroke:none;fill-rule:nonzero;fill:rgb(22.352941%,25.098039%,31.372549%);fill-opacity:1;" d="M 18.921875 34.320312 C 18.921875 34.875 18.46875 35.328125 17.914062 35.328125 C 17.359375 35.328125 16.910156 34.875 16.910156 34.320312 C 16.910156 33.765625 17.359375 33.316406 17.914062 33.316406 C 18.46875 33.316406 18.921875 33.765625 18.921875 34.320312 Z M 18.921875 34.320312 "/>
<path style=" stroke:none;fill-rule:nonzero;fill:rgb(80%,80%,80%);fill-opacity:1;" d="M 14.308594 34.953125 L 17.953125 34.953125 C 17.953125 34.953125 18.488281 34.90625 18.476562 34.375 C 18.464844 33.847656 17.921875 33.78125 17.921875 33.78125 L 14.261719 33.804688 C 14.261719 33.804688 13.789062 33.90625 13.796875 34.398438 C 13.808594 34.890625 14.308594 34.953125 14.308594 34.953125 Z M 14.308594 34.953125 "/>
<path style=" stroke:none;fill-rule:nonzero;fill:rgb(22.352941%,25.098039%,31.372549%);fill-opacity:1;" d="M 18.945312 36.898438 C 18.945312 37.453125 18.492188 37.902344 17.9375 37.902344 C 17.382812 37.902344 16.933594 37.453125 16.933594 36.898438 C 16.933594 36.34375 17.382812 35.894531 17.9375 35.894531 C 18.492188 35.894531 18.945312 36.34375 18.945312 36.898438 Z M 18.945312 36.898438 "/>
<path style=" stroke:none;fill-rule:nonzero;fill:rgb(80%,80%,80%);fill-opacity:1;" d="M 14.332031 37.527344 L 17.976562 37.527344 C 17.976562 37.527344 18.511719 37.480469 18.5 36.953125 C 18.488281 36.425781 17.945312 36.355469 17.945312 36.355469 L 14.285156 36.378906 C 14.285156 36.378906 13.8125 36.480469 13.820312 36.976562 C 13.832031 37.46875 14.332031 37.527344 14.332031 37.527344 Z M 14.332031 37.527344 "/>
<path style=" stroke:none;fill-rule:nonzero;fill:rgb(22.352941%,25.098039%,31.372549%);fill-opacity:1;" d="M 18.964844 39.453125 C 18.964844 40.007812 18.511719 40.457031 17.960938 40.457031 C 17.402344 40.457031 16.953125 40.007812 16.953125 39.453125 C 16.953125 38.898438 17.402344 38.445312 17.960938 38.445312 C 18.511719 38.445312 18.964844 38.898438 18.964844 39.453125 Z M 18.964844 39.453125 "/>
<path style=" stroke:none;fill-rule:nonzero;fill:rgb(80%,80%,80%);fill-opacity:1;" d="M 14.351562 40.082031 L 17.992188 40.082031 C 17.992188 40.082031 18.53125 40.035156 18.519531 39.507812 C 18.507812 38.980469 17.964844 38.910156 17.964844 38.910156 L 14.304688 38.933594 C 14.304688 38.933594 13.832031 39.035156 13.839844 39.527344 C 13.851562 40.023438 14.351562 40.082031 14.351562 40.082031 Z M 14.351562 40.082031 "/>
<path style=" stroke:none;fill-rule:nonzero;fill:rgb(22.352941%,25.098039%,31.372549%);fill-opacity:1;" d="M 18.988281 42.027344 C 18.988281 42.582031 18.535156 43.03125 17.980469 43.03125 C 17.425781 43.03125 16.976562 42.582031 16.976562 42.027344 C 16.976562 41.472656 17.425781 41.023438 17.980469 41.023438 C 18.535156 41.023438 18.988281 41.472656 18.988281 42.027344 Z M 18.988281 42.027344 "/>
<path style=" stroke:none;fill-rule:nonzero;fill:rgb(80%,80%,80%);fill-opacity:1;" d="M 14.375 42.65625 L 18.015625 42.65625 C 18.015625 42.65625 18.554688 42.613281 18.542969 42.082031 C 18.53125 41.554688 17.988281 41.488281 17.988281 41.488281 L 14.328125 41.507812 C 14.328125 41.507812 13.855469 41.613281 13.863281 42.105469 C 13.875 42.597656 14.375 42.65625 14.375 42.65625 Z M 14.375 42.65625 "/>
<path style=" stroke:none;fill-rule:nonzero;fill:rgb(100%,100%,100%);fill-opacity:1;" d="M 22.683594 24.621094 L 33 24.621094 C 33.335938 24.621094 33.601562 24.867188 33.601562 25.167969 L 33.601562 28.398438 C 33.601562 28.699219 33.335938 28.945312 33 28.945312 L 22.683594 28.945312 C 22.351562 28.945312 22.082031 28.699219 22.082031 28.398438 L 22.082031 25.167969 C 22.082031 24.867188 22.351562 24.621094 22.683594 24.621094 Z M 22.683594 24.621094 "/>
</g>
</svg>
