<?xml version="1.0" encoding="UTF-8"?>
<svg xmlns="http://www.w3.org/2000/svg" xmlns:xlink="http://www.w3.org/1999/xlink" width="22" height="22" viewBox="0 0 22 22" version="1.1">
<g id="surface1">
<path style=" stroke:none;fill-rule:nonzero;fill:rgb(100%,100%,100%);fill-opacity:1;" d="M 9.984375 0.800781 C 9.730469 0.804688 9.472656 0.851562 9.222656 0.960938 C 8.234375 1.390625 7.789062 2.550781 8.222656 3.539062 C 8.652344 4.527344 9.796875 4.972656 10.785156 4.539062 C 11.085938 4.410156 11.324219 4.203125 11.515625 3.96875 C 11.511719 5.820312 11.515625 8.480469 11.515625 8.480469 C 11.515625 9.210938 12.101562 9.8125 12.832031 9.8125 L 19.75 9.8125 C 20.484375 9.8125 21.070312 9.210938 21.070312 8.480469 C 21.070312 7.746094 21.15625 2.273438 20.96875 1.777344 C 20.78125 1.277344 20.316406 0.929688 19.75 0.929688 C 19.328125 0.929688 16.085938 0.910156 14.164062 0.917969 C 13.527344 0.917969 13.027344 0.917969 12.832031 0.929688 C 12.238281 0.964844 11.867188 1.261719 11.660156 1.71875 C 11.289062 1.136719 10.648438 0.792969 9.984375 0.800781 Z M 13.304688 1.960938 L 19.265625 1.960938 C 19.691406 1.960938 20.039062 2.296875 20.039062 2.722656 L 20.039062 8.019531 C 20.039062 8.445312 19.691406 8.78125 19.265625 8.78125 L 13.304688 8.78125 C 12.878906 8.78125 12.53125 8.445312 12.53125 8.019531 L 12.53125 2.722656 C 12.53125 2.296875 12.878906 1.960938 13.304688 1.960938 Z M 5.785156 2.980469 C 5.578125 2.980469 5.359375 3.019531 5.15625 3.109375 C 4.339844 3.464844 3.96875 4.425781 4.324219 5.242188 C 4.683594 6.058594 5.628906 6.429688 6.445312 6.074219 C 7.261719 5.714844 7.648438 4.753906 7.289062 3.9375 C 7.023438 3.328125 6.414062 2.972656 5.785156 2.980469 Z M 13.5625 2.980469 L 13.5625 7.761719 L 19.007812 7.761719 L 19.007812 2.980469 Z M 3.25 7.117188 C 3.082031 7.121094 2.902344 7.160156 2.734375 7.234375 C 2.070312 7.523438 1.769531 8.300781 2.0625 8.964844 C 2.355469 9.632812 3.128906 9.929688 3.796875 9.640625 C 4.460938 9.347656 4.761719 8.570312 4.46875 7.90625 C 4.25 7.40625 3.765625 7.113281 3.25 7.117188 Z M 3.195312 12.117188 C 3.078125 12.117188 2.964844 12.15625 2.851562 12.203125 C 2.847656 12.207031 2.839844 12.199219 2.835938 12.203125 C 2.644531 12.207031 2.335938 12.199219 2.25 12.203125 C 1.472656 12.25 1.070312 12.734375 0.917969 13.449219 C 0.898438 13.808594 0.917969 19.75 0.917969 19.75 C 0.917969 20.484375 1.515625 21.082031 2.25 21.082031 L 9.152344 21.082031 C 9.886719 21.082031 10.46875 20.484375 10.46875 19.75 C 10.46875 19.019531 10.574219 13.546875 10.382812 13.046875 C 10.195312 12.550781 9.71875 12.203125 9.152344 12.203125 C 8.726562 12.203125 5.484375 12.183594 3.566406 12.1875 C 3.449219 12.140625 3.324219 12.117188 3.195312 12.117188 Z M 2.707031 13.234375 L 8.664062 13.234375 C 9.089844 13.234375 9.4375 13.566406 9.4375 13.992188 L 9.4375 19.292969 C 9.4375 19.71875 9.089844 20.050781 8.664062 20.050781 L 2.707031 20.050781 C 2.28125 20.050781 1.933594 19.71875 1.933594 19.292969 L 1.933594 13.992188 C 1.933594 13.566406 2.28125 13.234375 2.707031 13.234375 Z M 2.964844 14.25 L 2.964844 19.035156 L 8.421875 19.035156 L 8.421875 14.25 Z M 2.964844 14.25 "/>
</g>
</svg>
