<?xml version="1.0" encoding="UTF-8"?>
<svg xmlns="http://www.w3.org/2000/svg" xmlns:xlink="http://www.w3.org/1999/xlink" width="22" height="22" viewBox="0 0 22 22" version="1.1">
<g id="surface1">
<path style=" stroke:none;fill-rule:nonzero;fill:rgb(100%,100%,100%);fill-opacity:1;" d="M 14.164062 0.917969 C 13.527344 0.917969 13.027344 0.917969 12.832031 0.929688 C 12.058594 0.976562 11.667969 1.460938 11.515625 2.175781 C 11.496094 2.539062 11.515625 8.480469 11.515625 8.480469 C 11.515625 9.210938 12.101562 9.8125 12.832031 9.8125 L 19.75 9.8125 C 20.484375 9.8125 21.070312 9.210938 21.070312 8.480469 C 21.070312 7.746094 21.15625 2.273438 20.96875 1.777344 C 20.78125 1.277344 20.316406 0.929688 19.75 0.929688 C 19.328125 0.929688 16.085938 0.910156 14.164062 0.917969 Z M 13.304688 1.960938 L 19.265625 1.960938 C 19.691406 1.960938 20.039062 2.296875 20.039062 2.722656 L 20.039062 8.019531 C 20.039062 8.445312 19.691406 8.78125 19.265625 8.78125 L 13.304688 8.78125 C 12.878906 8.78125 12.53125 8.445312 12.53125 8.019531 L 12.53125 2.722656 C 12.53125 2.296875 12.878906 1.960938 13.304688 1.960938 Z M 10.15625 2.320312 C 9.945312 2.351562 9.75 2.484375 9.652344 2.691406 C 9.5 3.023438 9.636719 3.425781 9.96875 3.582031 C 10.300781 3.734375 10.703125 3.597656 10.855469 3.265625 C 11.011719 2.933594 10.859375 2.53125 10.527344 2.378906 C 10.402344 2.320312 10.28125 2.300781 10.15625 2.320312 Z M 19.121094 9.882812 C 18.492188 9.929688 17.917969 10.339844 17.703125 10.972656 C 17.417969 11.816406 17.875 12.734375 18.71875 13.019531 C 19.5625 13.304688 20.480469 12.847656 20.769531 12.003906 C 21.054688 11.160156 20.59375 10.242188 19.75 9.953125 C 19.539062 9.882812 19.328125 9.867188 19.121094 9.882812 Z M 3.566406 12.1875 C 2.925781 12.191406 2.441406 12.191406 2.25 12.203125 C 1.472656 12.25 1.070312 12.734375 0.917969 13.449219 C 0.898438 13.808594 0.917969 19.75 0.917969 19.75 C 0.917969 20.484375 1.515625 21.082031 2.25 21.082031 L 9.152344 21.082031 C 9.886719 21.082031 10.46875 20.484375 10.46875 19.75 C 10.46875 19.019531 10.574219 13.546875 10.382812 13.046875 C 10.195312 12.550781 9.71875 12.203125 9.152344 12.203125 C 8.726562 12.203125 5.484375 12.183594 3.566406 12.1875 Z M 2.707031 13.234375 L 8.664062 13.234375 C 9.089844 13.234375 9.4375 13.566406 9.4375 13.992188 L 9.4375 19.292969 C 9.4375 19.71875 9.089844 20.050781 8.664062 20.050781 L 2.707031 20.050781 C 2.28125 20.050781 1.933594 19.71875 1.933594 19.292969 L 1.933594 13.992188 C 1.933594 13.566406 2.28125 13.234375 2.707031 13.234375 Z M 17.617188 13.878906 C 16.859375 13.933594 16.171875 14.429688 15.914062 15.195312 C 15.566406 16.21875 16.109375 17.328125 17.128906 17.675781 C 18.152344 18.023438 19.261719 17.480469 19.609375 16.457031 C 19.957031 15.433594 19.414062 14.328125 18.390625 13.980469 C 18.136719 13.890625 17.871094 13.859375 17.617188 13.878906 Z M 17.617188 13.878906 "/>
</g>
</svg>
