<?xml version="1.0" encoding="UTF-8"?>
<svg xmlns="http://www.w3.org/2000/svg" xmlns:xlink="http://www.w3.org/1999/xlink" width="22" height="22" viewBox="0 0 22 22" version="1.1">
<g id="surface1">
<path style=" stroke:none;fill-rule:nonzero;fill:rgb(100%,100%,100%);fill-opacity:1;" d="M 14.164062 0.917969 C 13.527344 0.917969 13.027344 0.917969 12.832031 0.929688 C 12.058594 0.976562 11.667969 1.460938 11.515625 2.175781 C 11.496094 2.539062 11.515625 8.480469 11.515625 8.480469 C 11.515625 9.210938 12.101562 9.8125 12.832031 9.8125 L 19.75 9.8125 C 20.484375 9.8125 21.070312 9.210938 21.070312 8.480469 C 21.070312 7.746094 21.15625 2.273438 20.96875 1.777344 C 20.78125 1.277344 20.316406 0.929688 19.75 0.929688 C 19.328125 0.929688 16.085938 0.910156 14.164062 0.917969 Z M 13.304688 1.960938 L 19.265625 1.960938 C 19.691406 1.960938 20.039062 2.296875 20.039062 2.722656 L 20.039062 8.019531 C 20.039062 8.445312 19.691406 8.78125 19.265625 8.78125 L 13.304688 8.78125 C 12.878906 8.78125 12.53125 8.445312 12.53125 8.019531 L 12.53125 2.722656 C 12.53125 2.296875 12.878906 1.960938 13.304688 1.960938 Z M 13.5625 2.980469 L 13.5625 7.761719 L 19.007812 7.761719 L 19.007812 2.980469 Z M 19.035156 10.511719 C 18.824219 10.519531 18.613281 10.632812 18.492188 10.828125 C 18.296875 11.140625 18.394531 11.550781 18.707031 11.746094 C 19.015625 11.9375 19.429688 11.839844 19.621094 11.53125 C 19.816406 11.21875 19.71875 10.804688 19.40625 10.613281 C 19.289062 10.539062 19.164062 10.507812 19.035156 10.511719 Z M 3.566406 12.1875 C 2.925781 12.191406 2.441406 12.191406 2.25 12.203125 C 1.472656 12.25 1.070312 12.734375 0.917969 13.449219 C 0.898438 13.808594 0.917969 19.75 0.917969 19.75 C 0.917969 20.484375 1.515625 21.082031 2.25 21.082031 L 9.152344 21.082031 C 9.550781 21.082031 9.898438 20.90625 10.140625 20.625 C 10.515625 20.480469 10.84375 20.199219 11.027344 19.808594 C 11.371094 19.085938 11.121094 18.246094 10.484375 17.804688 C 10.503906 15.910156 10.519531 13.402344 10.382812 13.046875 C 10.195312 12.550781 9.71875 12.203125 9.152344 12.203125 C 8.726562 12.203125 5.484375 12.183594 3.566406 12.1875 Z M 2.707031 13.234375 L 8.664062 13.234375 C 9.089844 13.234375 9.4375 13.566406 9.4375 13.992188 L 9.4375 19.292969 C 9.4375 19.71875 9.089844 20.050781 8.664062 20.050781 L 2.707031 20.050781 C 2.28125 20.050781 1.933594 19.71875 1.933594 19.292969 L 1.933594 13.992188 C 1.933594 13.566406 2.28125 13.234375 2.707031 13.234375 Z M 2.964844 14.25 L 2.964844 19.035156 L 8.421875 19.035156 L 8.421875 14.25 Z M 17.703125 14.609375 C 17.339844 14.59375 16.980469 14.789062 16.816406 15.140625 C 16.59375 15.605469 16.792969 16.164062 17.257812 16.386719 C 17.722656 16.605469 18.285156 16.40625 18.503906 15.941406 C 18.726562 15.476562 18.527344 14.917969 18.0625 14.695312 C 17.945312 14.640625 17.824219 14.613281 17.703125 14.609375 Z M 14.007812 17.203125 C 13.566406 17.246094 13.152344 17.515625 12.949219 17.945312 C 12.636719 18.601562 12.90625 19.398438 13.5625 19.707031 C 14.21875 20.019531 15.015625 19.734375 15.324219 19.078125 C 15.636719 18.421875 15.351562 17.640625 14.695312 17.332031 C 14.53125 17.253906 14.363281 17.210938 14.195312 17.203125 C 14.128906 17.199219 14.070312 17.195312 14.007812 17.203125 Z M 14.007812 17.203125 "/>
</g>
</svg>
