<?xml version="1.0" encoding="UTF-8"?>
<svg xmlns="http://www.w3.org/2000/svg" xmlns:xlink="http://www.w3.org/1999/xlink" width="22" height="22" viewBox="0 0 22 22" version="1.1">
<g id="surface1">
<path style=" stroke:none;fill-rule:nonzero;fill:rgb(100%,100%,100%);fill-opacity:1;" d="M 14.164062 0.917969 C 13.527344 0.917969 13.027344 0.917969 12.832031 0.929688 C 12.058594 0.976562 11.667969 1.460938 11.515625 2.175781 C 11.496094 2.539062 11.515625 8.480469 11.515625 8.480469 C 11.515625 9.210938 12.101562 9.8125 12.832031 9.8125 L 19.75 9.8125 C 20.484375 9.8125 21.070312 9.210938 21.070312 8.480469 C 21.070312 7.746094 21.15625 2.273438 20.96875 1.777344 C 20.78125 1.277344 20.316406 0.929688 19.75 0.929688 C 19.328125 0.929688 16.085938 0.910156 14.164062 0.917969 Z M 10.070312 1.589844 C 9.734375 1.609375 9.410156 1.75 9.167969 2.019531 C 8.679688 2.558594 8.726562 3.394531 9.265625 3.882812 C 9.808594 4.367188 10.628906 4.320312 11.113281 3.78125 C 11.601562 3.242188 11.554688 2.40625 11.015625 1.917969 C 10.746094 1.675781 10.40625 1.570312 10.070312 1.589844 Z M 13.304688 1.960938 L 19.265625 1.960938 C 19.691406 1.960938 20.039062 2.296875 20.039062 2.722656 L 20.039062 8.019531 C 20.039062 8.445312 19.691406 8.78125 19.265625 8.78125 L 13.304688 8.78125 C 12.878906 8.78125 12.53125 8.445312 12.53125 8.019531 L 12.53125 2.722656 C 12.53125 2.296875 12.878906 1.960938 13.304688 1.960938 Z M 5.859375 3.824219 C 5.621094 3.835938 5.386719 3.933594 5.214844 4.125 C 4.871094 4.507812 4.902344 5.097656 5.285156 5.441406 C 5.667969 5.785156 6.257812 5.753906 6.601562 5.371094 C 6.945312 4.988281 6.914062 4.398438 6.53125 4.054688 C 6.339844 3.882812 6.097656 3.8125 5.859375 3.824219 Z M 3.25 7.878906 C 3.125 7.894531 2.996094 7.945312 2.894531 8.035156 C 2.621094 8.277344 2.59375 8.691406 2.835938 8.964844 C 3.078125 9.238281 3.492188 9.265625 3.765625 9.023438 C 4.039062 8.78125 4.066406 8.367188 3.824219 8.09375 C 3.671875 7.921875 3.460938 7.851562 3.25 7.878906 Z M 3.566406 12.1875 C 2.925781 12.191406 2.441406 12.191406 2.25 12.203125 C 1.472656 12.25 1.070312 12.734375 0.917969 13.449219 C 0.898438 13.808594 0.917969 19.75 0.917969 19.75 C 0.917969 20.484375 1.515625 21.082031 2.25 21.082031 L 9.152344 21.082031 C 9.886719 21.082031 10.46875 20.484375 10.46875 19.75 C 10.46875 19.019531 10.574219 13.546875 10.382812 13.046875 C 10.195312 12.550781 9.71875 12.203125 9.152344 12.203125 C 8.726562 12.203125 5.484375 12.183594 3.566406 12.1875 Z M 2.707031 13.234375 L 8.664062 13.234375 C 9.089844 13.234375 9.4375 13.566406 9.4375 13.992188 L 9.4375 19.292969 C 9.4375 19.71875 9.089844 20.050781 8.664062 20.050781 L 2.707031 20.050781 C 2.28125 20.050781 1.933594 19.71875 1.933594 19.292969 L 1.933594 13.992188 C 1.933594 13.566406 2.28125 13.234375 2.707031 13.234375 Z M 2.964844 14.25 L 2.964844 19.035156 L 8.421875 19.035156 L 8.421875 14.25 Z M 2.964844 14.25 "/>
</g>
</svg>
