<?xml version="1.0" encoding="UTF-8"?>
<svg xmlns="http://www.w3.org/2000/svg" xmlns:xlink="http://www.w3.org/1999/xlink" width="22" height="22" viewBox="0 0 22 22" version="1.1">
<g id="surface1">
<path style=" stroke:none;fill-rule:nonzero;fill:rgb(100%,100%,100%);fill-opacity:1;" d="M 14.164062 0.917969 C 13.527344 0.917969 13.027344 0.917969 12.832031 0.929688 C 12.058594 0.976562 11.667969 1.460938 11.515625 2.175781 C 11.496094 2.539062 11.515625 8.480469 11.515625 8.480469 C 11.515625 9.210938 12.101562 9.8125 12.832031 9.8125 L 19.75 9.8125 C 20.484375 9.8125 21.070312 9.210938 21.070312 8.480469 C 21.070312 7.746094 21.15625 2.273438 20.96875 1.777344 C 20.78125 1.277344 20.316406 0.929688 19.75 0.929688 C 19.328125 0.929688 16.085938 0.910156 14.164062 0.917969 Z M 13.304688 1.960938 L 19.265625 1.960938 C 19.691406 1.960938 20.039062 2.296875 20.039062 2.722656 L 20.039062 8.019531 C 20.039062 8.445312 19.691406 8.78125 19.265625 8.78125 L 13.304688 8.78125 C 12.878906 8.78125 12.53125 8.445312 12.53125 8.019531 L 12.53125 2.722656 C 12.53125 2.296875 12.878906 1.960938 13.304688 1.960938 Z M 3.035156 6.675781 C 1.957031 6.679688 1.085938 7.558594 1.089844 8.636719 C 1.09375 9.714844 1.972656 10.589844 3.050781 10.585938 C 4.128906 10.582031 5.003906 9.703125 5 8.621094 C 4.996094 7.542969 4.117188 6.671875 3.035156 6.675781 Z M 3.050781 11.601562 C 2.492188 11.605469 2.007812 11.886719 1.71875 12.316406 C 1.714844 12.320312 1.722656 12.328125 1.71875 12.332031 C 1.28125 12.523438 1.03125 12.921875 0.917969 13.449219 C 0.90625 13.625 0.914062 15.160156 0.917969 16.65625 C 0.917969 16.691406 0.917969 16.695312 0.917969 16.730469 C 0.917969 18.257812 0.917969 19.75 0.917969 19.75 C 0.917969 20.484375 1.515625 21.082031 2.25 21.082031 L 9.152344 21.082031 C 9.886719 21.082031 10.46875 20.484375 10.46875 19.75 C 10.46875 19.734375 10.46875 19.617188 10.46875 19.59375 C 10.621094 19.425781 10.714844 19.207031 10.714844 18.964844 C 10.710938 18.730469 10.625 18.523438 10.484375 18.363281 C 10.503906 16.566406 10.535156 13.445312 10.382812 13.046875 C 10.195312 12.550781 9.71875 12.203125 9.152344 12.203125 C 8.785156 12.203125 6.214844 12.1875 4.3125 12.1875 C 4.011719 11.828125 3.554688 11.601562 3.050781 11.601562 Z M 2.707031 13.234375 L 8.664062 13.234375 C 9.089844 13.234375 9.4375 13.566406 9.4375 13.992188 L 9.4375 19.292969 C 9.4375 19.71875 9.089844 20.050781 8.664062 20.050781 L 2.707031 20.050781 C 2.28125 20.050781 1.933594 19.71875 1.933594 19.292969 L 1.933594 13.992188 C 1.933594 13.566406 2.28125 13.234375 2.707031 13.234375 Z M 14.25 17.675781 C 13.945312 17.703125 13.699219 17.945312 13.664062 18.261719 C 13.625 18.625 13.886719 18.953125 14.25 18.992188 C 14.613281 19.03125 14.925781 18.78125 14.96875 18.417969 C 15.007812 18.054688 14.757812 17.730469 14.394531 17.6875 C 14.347656 17.683594 14.296875 17.671875 14.25 17.675781 Z M 14.25 17.675781 "/>
</g>
</svg>
