<?xml version="1.0" encoding="UTF-8"?>
<svg xmlns="http://www.w3.org/2000/svg" xmlns:xlink="http://www.w3.org/1999/xlink" width="22" height="22" viewBox="0 0 22 22" version="1.1">
<g id="surface1">
<path style=" stroke:none;fill-rule:nonzero;fill:rgb(100%,100%,100%);fill-opacity:1;" d="M 14.164062 0.917969 C 13.527344 0.917969 13.027344 0.917969 12.832031 0.929688 C 12.058594 0.976562 11.667969 1.460938 11.515625 2.175781 C 11.496094 2.539062 11.515625 8.480469 11.515625 8.480469 C 11.515625 9.210938 12.101562 9.8125 12.832031 9.8125 L 19.75 9.8125 C 20.484375 9.8125 21.070312 9.210938 21.070312 8.480469 C 21.070312 7.746094 21.15625 2.273438 20.96875 1.777344 C 20.78125 1.277344 20.316406 0.929688 19.75 0.929688 C 19.328125 0.929688 16.085938 0.910156 14.164062 0.917969 Z M 13.304688 1.960938 L 19.265625 1.960938 C 19.691406 1.960938 20.039062 2.296875 20.039062 2.722656 L 20.039062 8.019531 C 20.039062 8.445312 19.691406 8.78125 19.265625 8.78125 L 13.304688 8.78125 C 12.878906 8.78125 12.53125 8.445312 12.53125 8.019531 L 12.53125 2.722656 C 12.53125 2.296875 12.878906 1.960938 13.304688 1.960938 Z M 5.613281 2.691406 C 4.988281 2.703125 4.378906 3.015625 4.011719 3.582031 C 3.421875 4.484375 3.679688 5.699219 4.582031 6.289062 C 5.488281 6.878906 6.6875 6.621094 7.277344 5.714844 C 7.867188 4.808594 7.621094 3.597656 6.71875 3.007812 C 6.378906 2.785156 5.992188 2.6875 5.613281 2.691406 Z M 3.121094 6.875 C 2.605469 6.882812 2.09375 7.152344 1.789062 7.621094 C 1.304688 8.367188 1.515625 9.351562 2.261719 9.839844 C 3.011719 10.328125 4.011719 10.128906 4.496094 9.382812 C 4.984375 8.632812 4.773438 7.632812 4.023438 7.148438 C 3.746094 6.964844 3.433594 6.871094 3.121094 6.875 Z M 3.109375 11.789062 C 2.757812 11.792969 2.421875 11.949219 2.175781 12.21875 C 1.449219 12.289062 1.066406 12.757812 0.917969 13.449219 C 0.898438 13.808594 0.917969 19.75 0.917969 19.75 C 0.917969 20.484375 1.515625 21.082031 2.25 21.082031 L 9.152344 21.082031 C 9.886719 21.082031 10.46875 20.484375 10.46875 19.75 C 10.46875 19.019531 10.574219 13.546875 10.382812 13.046875 C 10.195312 12.550781 9.71875 12.203125 9.152344 12.203125 C 8.765625 12.203125 6.011719 12.1875 4.082031 12.1875 C 4.015625 12.117188 3.9375 12.058594 3.851562 12.003906 C 3.625 11.855469 3.359375 11.785156 3.109375 11.789062 Z M 2.707031 13.234375 L 8.664062 13.234375 C 9.089844 13.234375 9.4375 13.566406 9.4375 13.992188 L 9.4375 19.292969 C 9.4375 19.71875 9.089844 20.050781 8.664062 20.050781 L 2.707031 20.050781 C 2.28125 20.050781 1.933594 19.71875 1.933594 19.292969 L 1.933594 13.992188 C 1.933594 13.566406 2.28125 13.234375 2.707031 13.234375 Z M 2.964844 14.25 L 2.964844 19.035156 L 8.421875 19.035156 L 8.421875 14.25 Z M 2.964844 14.25 "/>
</g>
</svg>
