<?xml version="1.0" encoding="UTF-8"?>
<svg xmlns="http://www.w3.org/2000/svg" xmlns:xlink="http://www.w3.org/1999/xlink" width="22" height="22" viewBox="0 0 22 22" version="1.1">
<g id="surface1">
<path style=" stroke:none;fill-rule:nonzero;fill:rgb(100%,100%,100%);fill-opacity:1;" d="M 7.449219 4.066406 C 5.355469 4.066406 3.851562 5.328125 3.851562 7.375 L 3.851562 9.167969 L 3.265625 9.167969 C 2.667969 9.167969 2.363281 9.46875 2.363281 10.070312 L 2.363281 15.167969 C 2.363281 15.460938 2.667969 16.070312 3.265625 16.070312 L 4.054688 16.070312 C 4.277344 17.039062 5.1875 17.71875 6.203125 17.601562 C 7.0625 17.503906 7.71875 16.867188 7.90625 16.070312 L 12.046875 16.070312 C 12.527344 16.066406 12.832031 15.460938 12.832031 15.167969 L 12.832031 10.070312 C 12.832031 9.46875 12.53125 9.167969 11.929688 9.167969 L 11.328125 9.167969 L 11.328125 7.375 C 11.328125 5.277344 9.84375 4.066406 7.75 4.066406 Z M 7.449219 5.570312 L 7.75 5.570312 C 9.84375 5.570312 9.839844 7.363281 9.839844 7.964844 L 9.839844 9.167969 L 5.355469 9.167969 L 5.355469 7.964844 C 5.355469 7.363281 5.355469 5.570312 7.449219 5.570312 Z M 18.21875 12.777344 C 17.855469 12.816406 17.589844 13.144531 17.632812 13.507812 C 17.671875 13.867188 18 14.132812 18.363281 14.09375 C 18.722656 14.054688 18.988281 13.726562 18.949219 13.363281 C 18.910156 13 18.582031 12.734375 18.21875 12.777344 Z M 15.511719 17.160156 C 14.960938 17.160156 14.523438 17.609375 14.523438 18.160156 C 14.523438 18.714844 14.960938 19.164062 15.511719 19.164062 C 16.0625 19.164062 16.515625 18.714844 16.515625 18.160156 C 16.515625 17.609375 16.0625 17.160156 15.511719 17.160156 Z M 10.339844 18.003906 C 10.25 17.996094 10.164062 18.007812 10.070312 18.019531 C 9.308594 18.105469 8.765625 18.777344 8.851562 19.535156 C 8.9375 20.296875 9.609375 20.839844 10.371094 20.753906 C 11.128906 20.667969 11.6875 19.996094 11.601562 19.234375 C 11.527344 18.570312 10.980469 18.0625 10.339844 18.003906 Z M 10.339844 18.003906 "/>
</g>
</svg>
