<?xml version="1.0" encoding="UTF-8"?>
<svg xmlns="http://www.w3.org/2000/svg" xmlns:xlink="http://www.w3.org/1999/xlink" width="22" height="22" viewBox="0 0 22 22" version="1.1">
<g id="surface1">
<path style=" stroke:none;fill-rule:nonzero;fill:rgb(100%,100%,100%);fill-opacity:1;" d="M 7.449219 4.066406 C 5.355469 4.066406 3.851562 5.328125 3.851562 7.375 L 3.851562 9.167969 L 3.265625 9.167969 C 2.667969 9.167969 2.363281 9.46875 2.363281 10.070312 L 2.363281 15.167969 C 2.363281 15.460938 2.667969 16.070312 3.265625 16.070312 L 4.871094 16.070312 C 5.066406 16.558594 5.566406 16.878906 6.117188 16.816406 C 6.566406 16.765625 6.929688 16.460938 7.089844 16.070312 L 12.046875 16.070312 C 12.527344 16.066406 12.832031 15.460938 12.832031 15.167969 L 12.832031 10.070312 C 12.832031 9.46875 12.53125 9.167969 11.929688 9.167969 L 11.328125 9.167969 L 11.328125 7.375 C 11.328125 5.277344 9.84375 4.066406 7.75 4.066406 Z M 7.449219 5.570312 L 7.75 5.570312 C 9.84375 5.570312 9.839844 7.363281 9.839844 7.964844 L 9.839844 9.167969 L 5.355469 9.167969 L 5.355469 7.964844 C 5.355469 7.363281 5.355469 5.570312 7.449219 5.570312 Z M 10.125 18.578125 C 9.675781 18.628906 9.359375 19.027344 9.410156 19.480469 C 9.460938 19.929688 9.863281 20.246094 10.3125 20.195312 C 10.761719 20.144531 11.09375 19.742188 11.042969 19.292969 C 10.992188 18.84375 10.578125 18.527344 10.125 18.578125 Z M 10.125 18.578125 "/>
</g>
</svg>
