<?xml version="1.0" encoding="UTF-8"?>
<svg xmlns="http://www.w3.org/2000/svg" xmlns:xlink="http://www.w3.org/1999/xlink" width="22" height="22" viewBox="0 0 22 22" version="1.1">
<g id="surface1">
<path style=" stroke:none;fill-rule:nonzero;fill:rgb(100%,100%,100%);fill-opacity:1;" d="M 7.449219 4.066406 C 5.355469 4.066406 3.851562 5.328125 3.851562 7.375 L 3.851562 9.167969 L 3.265625 9.167969 C 2.667969 9.167969 2.363281 9.46875 2.363281 10.070312 L 2.363281 15.167969 C 2.363281 15.460938 2.667969 16.070312 3.265625 16.070312 L 4.570312 16.070312 C 4.777344 16.734375 5.425781 17.183594 6.144531 17.101562 C 6.742188 17.035156 7.21875 16.609375 7.390625 16.070312 L 12.046875 16.070312 C 12.527344 16.066406 12.832031 15.460938 12.832031 15.167969 L 12.832031 10.070312 C 12.832031 9.46875 12.53125 9.167969 11.929688 9.167969 L 11.328125 9.167969 L 11.328125 7.375 C 11.328125 5.277344 9.84375 4.066406 7.75 4.066406 Z M 7.449219 5.570312 L 7.75 5.570312 C 9.84375 5.570312 9.839844 7.363281 9.839844 7.964844 L 9.839844 9.167969 L 5.355469 9.167969 L 5.355469 7.964844 C 5.355469 7.363281 5.355469 5.570312 7.449219 5.570312 Z M 15.511719 17.445312 C 15.113281 17.445312 14.796875 17.765625 14.796875 18.160156 C 14.796875 18.558594 15.113281 18.878906 15.511719 18.878906 C 15.910156 18.878906 16.242188 18.558594 16.242188 18.160156 C 16.242188 17.765625 15.910156 17.445312 15.511719 17.445312 Z M 10.097656 18.347656 C 9.523438 18.414062 9.117188 18.933594 9.179688 19.507812 C 9.246094 20.082031 9.769531 20.488281 10.339844 20.425781 C 10.914062 20.359375 11.320312 19.835938 11.257812 19.265625 C 11.195312 18.691406 10.671875 18.28125 10.097656 18.347656 Z M 10.097656 18.347656 "/>
</g>
</svg>
