<?xml version="1.0" encoding="UTF-8"?>
<svg xmlns="http://www.w3.org/2000/svg" xmlns:xlink="http://www.w3.org/1999/xlink" width="22" height="22" viewBox="0 0 22 22" version="1.1">
<g id="surface1">
<path style=" stroke:none;fill-rule:nonzero;fill:rgb(100%,100%,100%);fill-opacity:1;" d="M 7.445312 4.070312 C 5.351562 4.070312 3.855469 5.320312 3.855469 7.371094 L 3.855469 9.171875 L 3.257812 9.171875 C 2.660156 9.171875 2.359375 9.472656 2.359375 10.070312 L 2.359375 15.171875 C 2.359375 15.464844 2.660156 16.074219 3.257812 16.074219 L 12.046875 16.074219 C 12.53125 16.070312 12.832031 15.464844 12.832031 15.171875 L 12.832031 10.070312 C 12.832031 9.472656 12.53125 9.167969 11.933594 9.167969 L 11.335938 9.171875 L 11.335938 7.371094 C 11.335938 5.269531 9.839844 4.070312 7.746094 4.070312 Z M 7.445312 5.570312 L 7.746094 5.570312 C 9.839844 5.570312 9.839844 7.371094 9.839844 7.96875 L 9.839844 9.171875 L 5.351562 9.171875 L 5.351562 7.96875 C 5.351562 7.371094 5.351562 5.570312 7.445312 5.570312 Z M 7.445312 5.570312 "/>
</g>
</svg>
