<?xml version="1.0" encoding="UTF-8"?>
<svg xmlns="http://www.w3.org/2000/svg" xmlns:xlink="http://www.w3.org/1999/xlink" width="22" height="22" viewBox="0 0 22 22" version="1.1">
<g id="surface1">
<path style=" stroke:none;fill-rule:nonzero;fill:rgb(100%,100%,100%);fill-opacity:1;" d="M 7.449219 4.066406 C 5.355469 4.066406 3.851562 5.328125 3.851562 7.375 L 3.851562 9.167969 L 3.265625 9.167969 C 2.667969 9.167969 2.363281 9.46875 2.363281 10.070312 L 2.363281 15.167969 C 2.363281 15.460938 2.667969 16.070312 3.265625 16.070312 L 12.046875 16.070312 C 12.527344 16.066406 12.832031 15.460938 12.832031 15.167969 L 12.832031 10.070312 C 12.832031 9.46875 12.53125 9.167969 11.929688 9.167969 L 11.328125 9.167969 L 11.328125 7.375 C 11.328125 5.277344 9.84375 4.066406 7.75 4.066406 Z M 16.140625 4.238281 C 15.730469 4.285156 15.421875 4.65625 15.46875 5.070312 C 15.515625 5.484375 15.886719 5.777344 16.300781 5.730469 C 16.710938 5.683594 17.019531 5.3125 16.972656 4.898438 C 16.925781 4.484375 16.554688 4.191406 16.140625 4.238281 Z M 7.449219 5.570312 L 7.75 5.570312 C 9.84375 5.570312 9.839844 7.363281 9.839844 7.964844 L 9.839844 9.167969 L 5.355469 9.167969 L 5.355469 7.964844 C 5.355469 7.363281 5.355469 5.570312 7.449219 5.570312 Z M 18.390625 7.476562 C 17.8125 7.542969 17.410156 8.074219 17.472656 8.652344 C 17.539062 9.226562 18.058594 9.632812 18.632812 9.566406 C 19.210938 9.503906 19.628906 8.984375 19.566406 8.40625 C 19.5 7.832031 18.96875 7.410156 18.390625 7.476562 Z M 18.132812 12.046875 C 17.371094 12.132812 16.816406 12.828125 16.902344 13.59375 C 16.988281 14.355469 17.683594 14.894531 18.449219 14.808594 C 19.210938 14.722656 19.75 14.039062 19.664062 13.277344 C 19.578125 12.515625 18.894531 11.960938 18.132812 12.046875 Z M 15.511719 16.429688 C 14.554688 16.429688 13.792969 17.207031 13.792969 18.160156 C 13.792969 19.117188 14.554688 19.894531 15.511719 19.894531 C 16.46875 19.894531 17.246094 19.117188 17.246094 18.160156 C 17.246094 17.207031 16.46875 16.429688 15.511719 16.429688 Z M 9.984375 17.230469 C 8.792969 17.363281 7.929688 18.445312 8.0625 19.636719 C 8.199219 20.828125 9.277344 21.675781 10.46875 21.542969 C 11.660156 21.40625 12.507812 20.339844 12.375 19.148438 C 12.242188 17.957031 11.175781 17.097656 9.984375 17.230469 Z M 9.984375 17.230469 "/>
</g>
</svg>
