<?xml version="1.0" encoding="UTF-8"?>
<svg xmlns="http://www.w3.org/2000/svg" xmlns:xlink="http://www.w3.org/1999/xlink" width="22" height="22" viewBox="0 0 22 22" version="1.1">
<g id="surface1">
<path style=" stroke:none;fill-rule:nonzero;fill:rgb(100%,100%,100%);fill-opacity:1;" d="M 7.449219 4.066406 C 5.355469 4.066406 3.851562 5.328125 3.851562 7.375 L 3.851562 9.167969 L 3.265625 9.167969 C 2.667969 9.167969 2.363281 9.46875 2.363281 10.070312 L 2.363281 15.167969 C 2.363281 15.460938 2.667969 16.070312 3.265625 16.070312 L 3.523438 16.070312 C 3.757812 17.351562 4.945312 18.253906 6.257812 18.105469 C 7.378906 17.976562 8.242188 17.121094 8.4375 16.070312 L 12.046875 16.070312 C 12.527344 16.066406 12.832031 15.460938 12.832031 15.167969 L 12.832031 10.070312 C 12.832031 9.46875 12.53125 9.167969 11.929688 9.167969 L 11.328125 9.167969 L 11.328125 7.375 C 11.328125 5.277344 9.84375 4.066406 7.75 4.066406 Z M 7.449219 5.570312 L 7.75 5.570312 C 9.84375 5.570312 9.839844 7.363281 9.839844 7.964844 L 9.839844 9.167969 L 5.355469 9.167969 L 5.355469 7.964844 C 5.355469 7.363281 5.355469 5.570312 7.449219 5.570312 Z M 18.433594 7.878906 C 18.074219 7.917969 17.820312 8.246094 17.859375 8.609375 C 17.902344 8.96875 18.230469 9.222656 18.589844 9.179688 C 18.953125 9.140625 19.203125 8.8125 19.164062 8.449219 C 19.125 8.089844 18.792969 7.835938 18.433594 7.878906 Z M 18.160156 12.332031 C 17.554688 12.402344 17.117188 12.941406 17.1875 13.550781 C 17.257812 14.15625 17.8125 14.605469 18.417969 14.539062 C 19.027344 14.46875 19.460938 13.914062 19.394531 13.304688 C 19.324219 12.695312 18.769531 12.261719 18.160156 12.332031 Z M 15.511719 16.757812 C 14.742188 16.757812 14.121094 17.390625 14.121094 18.160156 C 14.121094 18.929688 14.742188 19.550781 15.511719 19.550781 C 16.28125 19.550781 16.914062 18.929688 16.914062 18.160156 C 16.914062 17.390625 16.28125 16.757812 15.511719 16.757812 Z M 10.398438 17.503906 C 10.273438 17.492188 10.140625 17.503906 10.011719 17.515625 C 8.976562 17.632812 8.234375 18.558594 8.351562 19.59375 C 8.46875 20.628906 9.390625 21.386719 10.425781 21.269531 C 11.464844 21.152344 12.21875 20.214844 12.101562 19.179688 C 12 18.269531 11.273438 17.582031 10.398438 17.503906 Z M 10.398438 17.503906 "/>
</g>
</svg>
