<?xml version="1.0" encoding="UTF-8"?>
<svg xmlns="http://www.w3.org/2000/svg" xmlns:xlink="http://www.w3.org/1999/xlink" width="256" height="256" viewBox="0 0 256 256" version="1.1">
<g id="surface1">
<path style=" stroke:none;fill-rule:nonzero;fill:rgb(100%,100%,100%);fill-opacity:1;" d="M 183.203125 39.359375 L 88.085938 133.945312 C 67.273438 154.648438 57.671875 178.867188 66.570312 188.257812 C 75.46875 197.640625 99.390625 188.539062 120.203125 167.84375 L 215.320312 73.257812 C 236.132812 52.554688 245.726562 28.335938 236.828125 18.945312 C 227.9375 9.554688 204.015625 18.664062 183.203125 39.359375 Z M 183.203125 39.359375 "/>
<path style=" stroke:none;fill-rule:nonzero;fill:rgb(100%,100%,100%);fill-opacity:1;" d="M 48.796875 38.882812 L 29.140625 59.1875 L 123.90625 131.195312 L 196.53125 226.578125 L 216.84375 206.921875 L 174.601562 81.117188 Z M 48.796875 38.882812 "/>
<path style=" stroke:none;fill-rule:nonzero;fill:rgb(100%,100%,100%);fill-opacity:1;" d="M 100.796875 154.398438 L 27.273438 148.914062 L 16.101562 160.234375 L 61.664062 193.976562 L 94.96875 239.460938 L 106.203125 228.203125 Z M 100.796875 154.398438 "/>
</g>
</svg>
