<?xml version="1.0" encoding="UTF-8"?>
<svg xmlns="http://www.w3.org/2000/svg" xmlns:xlink="http://www.w3.org/1999/xlink" width="256" height="256" viewBox="0 0 256 256" version="1.1">
<g id="surface1">
<path style=" stroke:none;fill-rule:nonzero;fill:rgb(100%,100%,100%);fill-opacity:1;" d="M 118.5625 96 C 114.710938 96.703125 111.9375 100.085938 112 104 L 112 144 L 88 144 C 85.117188 143.960938 82.429688 145.476562 80.976562 147.96875 C 79.523438 150.460938 79.523438 153.539062 80.976562 156.03125 C 82.429688 158.523438 85.117188 160.039062 88 160 L 120 160 C 124.421875 160 128 156.421875 128 152 L 128 104 C 128.039062 101.59375 127 99.289062 125.15625 97.742188 C 123.3125 96.1875 120.867188 95.546875 118.5 96 Z M 118.5625 96 "/>
<path style=" stroke:none;fill-rule:nonzero;fill:rgb(100%,100%,100%);fill-opacity:1;" d="M 119.523438 48.960938 C 62.554688 48.960938 16.429688 95.585938 16.429688 152.546875 C 16.429688 209.507812 62.554688 256.140625 119.523438 256.140625 C 176.484375 256.140625 223.109375 209.507812 223.109375 152.546875 C 223.109375 95.585938 176.484375 48.960938 119.523438 48.960938 Z M 119.523438 80.679688 C 159.335938 80.679688 191.390625 112.734375 191.390625 152.546875 C 191.390625 192.367188 159.335938 224.414062 119.523438 224.414062 C 79.703125 224.414062 48.148438 192.367188 48.148438 152.546875 C 48.148438 112.734375 79.703125 80.679688 119.523438 80.679688 Z M 119.523438 80.679688 "/>
<path style=" stroke:none;fill-rule:nonzero;fill:rgb(100%,100%,100%);fill-opacity:1;" d="M 68.476562 16 C 39.578125 16 15.984375 39.601562 15.984375 68.5 C 15.984375 74.976562 17.328125 80.773438 19.484375 86.5 C 38.773438 57.34375 70.421875 36.859375 106.984375 33 C 97.382812 22.601562 83.625 16.039062 68.421875 16.039062 Z M 171.476562 16 C 156.234375 16 142.546875 22.601562 132.984375 33 C 169.578125 37.015625 201.3125 57.65625 220.484375 87 C 222.742188 81.148438 223.984375 75.148438 223.984375 68.5 C 223.984375 39.601562 200.382812 16 171.484375 16 Z M 171.476562 16 "/>
<path style=" stroke:none;fill-rule:nonzero;fill:rgb(100%,100%,100%);fill-opacity:1;" d="M 62.5625 206.5625 C 59.6875 207.335938 57.09375 208.890625 55.0625 211.0625 L 37.0625 228.5625 C 32.21875 232.304688 29.9375 238.476562 31.179688 244.46875 C 32.429688 250.460938 36.976562 255.21875 42.90625 256.726562 C 48.835938 258.234375 55.101562 256.226562 59.0625 251.5625 L 77.0625 234.0625 C 82.578125 229.171875 84.046875 221.140625 80.609375 214.617188 C 77.164062 208.09375 69.710938 204.765625 62.5625 206.5625 Z M 62.5625 206.5625 "/>
<path style=" stroke:none;fill-rule:nonzero;fill:rgb(100%,100%,100%);fill-opacity:1;" d="M 175.039062 208 C 169.234375 208.890625 164.375 212.882812 162.390625 218.421875 C 160.40625 223.953125 161.617188 230.125 165.539062 234.5 L 180.039062 250.5 C 183.617188 255.359375 189.632812 257.789062 195.585938 256.789062 C 201.539062 255.78125 206.421875 251.507812 208.210938 245.742188 C 209.992188 239.976562 208.382812 233.695312 204.039062 229.5 L 189.539062 213.5 C 185.984375 209.234375 180.476562 207.117188 174.976562 207.898438 Z M 175.039062 208 "/>
</g>
</svg>
