<?xml version="1.0" encoding="UTF-8"?>
<svg xmlns="http://www.w3.org/2000/svg" xmlns:xlink="http://www.w3.org/1999/xlink" width="256" height="256" viewBox="0 0 256 256" version="1.1">
<g id="surface1">
<path style=" stroke:none;fill-rule:nonzero;fill:rgb(74.509804%,74.509804%,74.509804%);fill-opacity:1;" d="M 104 0 C 46.75 0 0 46.75 0 104 C 0 161.25 46.75 208 104 208 C 106.726562 208 109.320312 207.710938 112 207.5 L 112 175 C 109.320312 175.296875 106.757812 176 104 176 C 64.046875 176 32 143.953125 32 104 C 32 64.046875 64.046875 32 104 32 C 143.953125 32 176 64.046875 176 104 C 176 106.765625 175.296875 109.328125 175 112 L 207.5 112 C 207.710938 109.328125 208 106.726562 208 104 C 208 46.75 161.25 0 104 0 Z M 104 0 "/>
<path style=" stroke:none;fill-rule:nonzero;fill:rgb(74.509804%,74.509804%,74.509804%);fill-opacity:1;" d="M 102.5625 48 C 98.710938 48.703125 95.9375 52.085938 96 56 L 96 96 L 72 96 C 69.117188 95.960938 66.429688 97.476562 64.976562 99.96875 C 63.523438 102.460938 63.523438 105.539062 64.976562 108.03125 C 66.429688 110.523438 69.117188 112.039062 72 112 L 104 112 C 108.421875 112 112 108.421875 112 104 L 112 56 C 112.039062 53.59375 111 51.289062 109.15625 49.742188 C 107.3125 48.1875 104.867188 47.546875 102.5 48 Z M 102.5625 48 "/>
<path style=" stroke:none;fill-rule:nonzero;fill:rgb(96.078431%,47.45098%,0%);fill-opacity:1;" d="M 142.078125 129.117188 C 134.203125 129.117188 128.078125 135.1875 128.078125 143 L 128.078125 242.132812 C 128.078125 249.9375 134.203125 256.007812 142.078125 256.007812 L 242.078125 256.007812 C 249.960938 256.007812 256.078125 249.9375 256.078125 242.132812 L 256.078125 143 C 256.078125 135.1875 249.960938 129.117188 242.078125 129.117188 Z M 176.078125 144.984375 L 208.078125 144.984375 L 208.078125 208.421875 L 176.078125 208.421875 Z M 176.078125 224.289062 L 208.078125 224.289062 L 208.078125 240.148438 L 176.078125 240.148438 Z M 176.078125 224.289062 "/>
<path style=" stroke:none;fill-rule:nonzero;fill:rgb(100%,100%,100%);fill-opacity:1;" d="M 86.5625 206.164062 C 76.660156 204.523438 59.953125 198.242188 50.554688 192.628906 C 40.148438 186.414062 24.984375 172.023438 18.25 161.976562 C 12.3125 153.109375 7.03125 141.652344 3.890625 130.8125 C 1.742188 123.390625 1.410156 119.800781 1.410156 103.8125 C 1.410156 87.667969 1.726562 84.289062 3.949219 76.691406 C 13.925781 42.601562 40.046875 15.640625 73.148438 5.265625 C 128.695312 -12.144531 188.015625 20.101562 203.679688 76.222656 C 206.351562 85.800781 208.246094 102.175781 207.339844 107.878906 L 206.691406 111.945312 L 176.054688 111.945312 L 175.996094 101.914062 C 175.886719 82.878906 169.007812 67.222656 154.347656 52.660156 C 144.195312 42.570312 133 36.398438 119.433594 33.398438 C 82 25.128906 43.882812 48.527344 33.882812 85.914062 C 31.40625 95.164062 31.355469 112.289062 33.773438 121.710938 C 41.886719 153.269531 70.617188 175.945312 102.492188 175.945312 L 111.511719 175.945312 L 111.511719 207.40625 L 102.019531 207.277344 C 96.800781 207.207031 89.84375 206.703125 86.5625 206.164062 Z M 86.5625 206.164062 "/>
<path style=" stroke:none;fill-rule:nonzero;fill:rgb(100%,100%,100%);fill-opacity:1;" d="M 68.367188 110.609375 C 64.289062 108.644531 63.445312 102.367188 66.761719 98.65625 C 68.210938 97.039062 70.492188 96.757812 82.390625 96.757812 L 96.328125 96.757812 L 96.328125 75.015625 C 96.328125 53.375 96.335938 53.257812 98.988281 50.609375 C 102.242188 47.355469 104.898438 47.242188 108.65625 50.195312 L 111.511719 52.441406 L 111.511719 106.621094 L 108.851562 109.28125 C 106.234375 111.898438 105.875 111.945312 88.507812 111.875 C 78.085938 111.828125 69.820312 111.3125 68.367188 110.609375 Z M 68.367188 110.609375 "/>
</g>
</svg>
