<?xml version="1.0" encoding="UTF-8"?>
<svg xmlns="http://www.w3.org/2000/svg" xmlns:xlink="http://www.w3.org/1999/xlink" width="256" height="256" viewBox="0 0 256 256" version="1.1">
<g id="surface1">
<path style=" stroke:none;fill-rule:nonzero;fill:rgb(74.509804%,74.509804%,74.509804%);fill-opacity:1;" d="M 102.5625 80 C 98.710938 80.703125 95.9375 84.085938 96 88 L 96 128 L 72 128 C 69.117188 127.960938 66.429688 129.476562 64.976562 131.96875 C 63.523438 134.460938 63.523438 137.539062 64.976562 140.03125 C 66.429688 142.523438 69.117188 144.039062 72 144 L 104 144 C 108.421875 144 112 140.421875 112 136 L 112 88 C 112.039062 85.59375 111 83.289062 109.15625 81.742188 C 107.3125 80.1875 104.867188 79.546875 102.5 80 Z M 102.5625 80 "/>
<path style=" stroke:none;fill-rule:nonzero;fill:rgb(74.509804%,74.509804%,74.509804%);fill-opacity:1;" d="M 176 176 L 198 176 L 216 193.5 L 233.5 176 L 256 176 L 256 199.5 L 238.5 216.5 L 256 233.5 L 256 256 L 233 256 L 216 239 L 199 256 L 176 256 L 176 233.5 L 193 216.5 L 176 199.5 Z M 176 176 "/>
<path style=" stroke:none;fill-rule:nonzero;fill:rgb(74.509804%,74.509804%,74.509804%);fill-opacity:1;" d="M 104 32 C 46.75 32 0 78.75 0 136 C 0 193.25 46.75 240 104 240 C 124.65625 240 143.757812 233.992188 160 223.5 L 160 181 C 146.867188 197.4375 126.867188 208 104 208 C 64.046875 208 32 175.953125 32 136 C 32 96.046875 64.046875 64 104 64 C 143.953125 64 176 96.046875 176 136 C 176 144.53125 174.179688 152.4375 171.5 160 L 205 160 C 206.835938 152.289062 208 144.25 208 136 C 208 78.75 161.25 32 104 32 Z M 104 32 "/>
<path style=" stroke:none;fill-rule:nonzero;fill:rgb(100%,0%,0%);fill-opacity:1;" d="M 176.59375 244.039062 L 176.59375 232.945312 L 184.976562 224.511719 L 193.359375 216.082031 L 184.976562 207.648438 L 176.59375 199.21875 L 176.59375 175.945312 L 197.703125 175.945312 L 215.59375 193.742188 L 233.820312 175.945312 L 255.78125 175.945312 L 255.78125 199.320312 L 238.421875 216.578125 L 255.78125 234.023438 L 255.78125 255.132812 L 232.507812 255.132812 L 215.648438 238.367188 L 207.21875 246.75 L 198.785156 255.132812 L 176.59375 255.132812 Z M 176.59375 244.039062 "/>
<path style=" stroke:none;fill-rule:nonzero;fill:rgb(100%,100%,100%);fill-opacity:1;" d="M 91.171875 238.859375 C 51.222656 233.261719 18.710938 206.457031 5.789062 168.460938 C -0.292969 150.585938 -0.777344 125.234375 4.609375 107.0625 C 14.859375 72.515625 41.917969 46.039062 77.457031 35.792969 C 84.90625 33.644531 88.417969 33.328125 104.460938 33.371094 C 121.355469 33.414062 123.703125 33.664062 132.4375 36.351562 C 142.648438 39.492188 154.59375 45.101562 162.492188 50.460938 C 169.695312 55.34375 182.664062 68.148438 188.121094 75.765625 C 193.796875 83.6875 201.640625 100.128906 204.09375 109.238281 C 207.804688 123.023438 208.359375 144.617188 205.316406 156.691406 L 204.5625 159.671875 L 188.296875 159.671875 C 174.253906 159.671875 172.109375 159.453125 172.652344 158.039062 C 172.996094 157.144531 174.085938 152.417969 175.078125 147.542969 C 178.074219 132.742188 176.09375 119.828125 168.328125 103.5625 C 158.085938 82.085938 136.679688 67.039062 112.550781 64.335938 C 89.742188 61.789062 68.988281 68.964844 53.03125 84.921875 C 16.007812 121.945312 29.101562 184.132812 77.976562 203.421875 C 103.214844 213.386719 131.945312 207.839844 153.027344 188.9375 L 159.289062 183.320312 L 158.699219 224.21875 L 149.472656 228.820312 C 132.84375 237.121094 108.589844 241.296875 91.171875 238.859375 Z M 91.171875 238.859375 "/>
<path style=" stroke:none;fill-rule:nonzero;fill:rgb(100%,100%,100%);fill-opacity:1;" d="M 66.988281 141.414062 C 63.730469 138.773438 63.789062 132.800781 67.09375 130.125 C 69.054688 128.53125 71.679688 128.21875 82.886719 128.21875 L 96.328125 128.21875 L 96.328125 106.726562 C 96.328125 86.601562 96.464844 85.085938 98.539062 82.859375 C 101.328125 79.867188 106.453125 79.769531 109.34375 82.65625 C 111.398438 84.710938 111.511719 86.273438 111.511719 111.945312 C 111.511719 137.617188 111.398438 139.179688 109.34375 141.234375 C 107.339844 143.234375 105.726562 143.40625 88.3125 143.40625 C 71.625 143.40625 69.164062 143.171875 66.988281 141.414062 Z M 66.988281 141.414062 "/>
</g>
</svg>
