<?xml version="1.0" encoding="UTF-8"?>
<svg xmlns="http://www.w3.org/2000/svg" xmlns:xlink="http://www.w3.org/1999/xlink" width="256" height="256" viewBox="0 0 256 256" version="1.1">
<g id="surface1">
<path style=" stroke:none;fill-rule:nonzero;fill:rgb(80%,0%,0%);fill-opacity:1;" d="M 80 176 L 80 208 L 112 208 L 112 176 Z M 80 176 "/>
<path style=" stroke:none;fill-rule:nonzero;fill:rgb(74.509804%,74.509804%,74.509804%);fill-opacity:1;" d="M 87.523438 0 C 79.671875 0 74.78125 3.65625 71.023438 7.5 C 67.179688 11.34375 63.984375 16.460938 63.984375 23.976562 L 63.984375 31.976562 L 31.984375 31.976562 L 31.984375 255.976562 L 111.984375 255.976562 L 111.984375 223.976562 L 63.984375 223.976562 L 63.984375 63.976562 L 95.984375 63.976562 L 95.984375 31.976562 L 159.984375 31.976562 L 159.984375 63.976562 L 191.984375 63.976562 L 191.984375 111.976562 L 223.984375 111.976562 L 223.984375 31.976562 L 191.984375 31.976562 L 191.984375 24.984375 C 191.601562 18.09375 189.257812 13.445312 185.484375 8.984375 C 181.898438 4.75 175.453125 0.515625 166.984375 0.484375 L 166.984375 -0.015625 L 87.484375 -0.015625 Z M 87.523438 0 "/>
<path style=" stroke:none;fill-rule:nonzero;fill:rgb(96.078431%,47.45098%,0%);fill-opacity:1;" d="M 142.078125 128 C 134.203125 128 128.078125 134.117188 128.078125 142 L 128.078125 242 C 128.078125 249.882812 134.203125 256 142.078125 256 L 242.078125 256 C 249.960938 256 256.078125 249.882812 256.078125 242 L 256.078125 142 C 256.078125 134.117188 249.960938 128 242.078125 128 Z M 176.078125 144 L 208.078125 144 L 208.078125 208 L 176.078125 208 Z M 176.078125 224 L 208.078125 224 L 208.078125 240 L 176.078125 240 Z M 176.078125 224 "/>
<path style=" stroke:none;fill-rule:nonzero;fill:rgb(0%,0%,0%);fill-opacity:1;" d="M 32.429688 144.117188 L 32.429688 32.171875 L 64.242188 32.171875 L 64.242188 26.492188 C 64.242188 19.953125 65.25 15.835938 67.828125 11.773438 C 70.164062 8.09375 74.8125 3.984375 78.710938 2.140625 L 81.890625 0.640625 L 123.257812 0.46875 C 149.914062 0.359375 166.257812 0.515625 169.234375 0.90625 C 178.273438 2.101562 185.320312 7.109375 189.289062 15.171875 C 191 18.648438 191.226562 19.710938 191.5 25.460938 L 191.8125 31.882812 L 207.867188 32.03125 L 223.921875 32.1875 L 223.921875 112.007812 L 192.101562 112.007812 L 192.101562 63.984375 L 160.28125 63.984375 L 160.28125 31.59375 L 96.0625 31.59375 L 96.0625 63.984375 L 63.664062 63.984375 L 63.664062 224.242188 L 111.6875 224.242188 L 111.6875 256.0625 L 32.429688 256.0625 Z M 32.429688 144.117188 "/>
<path style=" stroke:none;fill-rule:nonzero;fill:rgb(100%,100%,100%);fill-opacity:1;" d="M 33.410156 143.945312 L 33.410156 32.757812 L 64.867188 32.757812 L 64.867188 26.21875 C 64.867188 16.09375 67.734375 10.554688 76.148438 4.398438 L 80.378906 1.300781 L 124.960938 1.308594 C 150.851562 1.3125 171.15625 1.761719 173.386719 2.382812 C 182.390625 4.882812 189.710938 13.488281 190.394531 22.390625 C 191.265625 33.707031 189.703125 32.757812 207.53125 32.757812 L 223.242188 32.757812 L 223.242188 111.945312 L 192.867188 111.945312 L 192.867188 63.132812 L 160.328125 63.132812 L 160.328125 30.554688 L 95.78125 31.132812 L 95.484375 47.101562 L 95.183594 63.074219 L 79.210938 63.375 L 63.242188 63.671875 L 62.960938 144.21875 L 62.683594 224.757812 L 111.511719 224.757812 L 111.511719 255.132812 L 33.410156 255.132812 Z M 33.410156 143.945312 "/>
</g>
</svg>
