<?xml version="1.0" encoding="UTF-8"?>
<svg xmlns="http://www.w3.org/2000/svg" xmlns:xlink="http://www.w3.org/1999/xlink" width="256" height="256" viewBox="0 0 256 256" version="1.1">
<g id="surface1">
<path style=" stroke:none;fill-rule:nonzero;fill:rgb(74.509804%,74.509804%,74.509804%);fill-opacity:1;" d="M 80 128 L 80 160 L 176 160 L 176 128 Z M 80 128 "/>
<path style=" stroke:none;fill-rule:nonzero;fill:rgb(74.509804%,74.509804%,74.509804%);fill-opacity:1;" d="M 87.507812 0 C 79.65625 0 74.765625 3.65625 71.007812 7.5 C 67.226562 11.34375 64 16.460938 64 23.976562 L 64 31.976562 L 32 31.976562 L 32 255.976562 L 224 255.976562 L 224 31.976562 L 192 31.976562 L 192 25.484375 C 191.617188 18.59375 189.273438 13.445312 185.5 8.984375 C 181.914062 4.75 175.46875 0.515625 167 0.484375 L 167 -0.015625 L 87.5 -0.015625 Z M 96 32 L 160 32 L 160 64 L 192 64 L 192 224 L 64 224 L 64 64 L 96 64 Z M 96 32 "/>
<path style=" stroke:none;fill-rule:nonzero;fill:rgb(74.509804%,74.509804%,74.509804%);fill-opacity:1;" d="M 80 176 L 80 208 L 176 208 L 176 176 Z M 80 176 "/>
<path style=" stroke:none;fill-rule:nonzero;fill:rgb(0%,0%,0%);fill-opacity:1;" d="M 32.179688 143.914062 L 32.179688 31.976562 L 64.203125 31.976562 L 64.203125 26.421875 C 64.203125 21.96875 64.335938 20.351562 64.859375 18.3125 C 66.882812 10.398438 74.125 3.046875 82.203125 0.710938 C 84.023438 0.179688 87.453125 0.125 125.539062 0.03125 C 154.015625 -0.046875 166.898438 0.03125 166.898438 0.265625 C 166.898438 0.453125 167.421875 0.609375 168.070312 0.609375 C 169.804688 0.609375 174.070312 1.554688 176.164062 2.414062 C 181.664062 4.640625 186.6875 9.515625 189.335938 15.171875 C 190.953125 18.617188 191.671875 22.039062 191.890625 27.273438 L 192.09375 31.976562 L 224.023438 31.976562 L 224.023438 255.851562 L 32.179688 255.851562 Z M 191.992188 144.078125 L 191.992188 64.007812 L 159.960938 64.007812 L 159.960938 31.976562 L 95.90625 31.976562 L 95.90625 64.007812 L 63.875 64.007812 L 63.875 224.15625 L 191.992188 224.15625 Z M 191.992188 144.078125 "/>
<path style=" stroke:none;fill-rule:nonzero;fill:rgb(100%,0%,0%);fill-opacity:1;" d="M 80.054688 143.914062 L 80.054688 128.0625 L 175.8125 128.0625 L 175.8125 159.765625 L 80.054688 159.765625 Z M 80.054688 143.914062 "/>
<path style=" stroke:none;fill-rule:nonzero;fill:rgb(100%,0%,0%);fill-opacity:1;" d="M 80.054688 192.125 L 80.054688 176.273438 L 175.8125 176.273438 L 175.8125 207.976562 L 80.054688 207.976562 Z M 80.054688 192.125 "/>
<path style=" stroke:none;fill-rule:nonzero;fill:rgb(100%,100%,100%);fill-opacity:1;" d="M 32.328125 143.945312 L 32.328125 32.757812 L 64.867188 32.757812 L 64.867188 26.21875 C 64.867188 15.828125 68.859375 8.746094 77.882812 3.125 C 81.578125 0.820312 82.769531 0.75 122.335938 0.394531 C 150.070312 0.148438 165.0625 0.429688 169.519531 1.289062 C 182.34375 3.75 189.085938 11.054688 191.039062 24.589844 L 192.214844 32.757812 L 223.242188 32.757812 L 223.242188 255.132812 L 32.328125 255.132812 Z M 192.601562 144.21875 L 192.328125 63.671875 L 176.328125 63.375 L 160.328125 63.074219 L 160.328125 31.671875 L 95.242188 31.671875 L 95.242188 63.132812 L 63.78125 63.132812 L 63.78125 224.757812 L 192.882812 224.757812 Z M 192.601562 144.21875 "/>
</g>
</svg>
