<?xml version="1.0" encoding="UTF-8"?>
<svg xmlns="http://www.w3.org/2000/svg" xmlns:xlink="http://www.w3.org/1999/xlink" width="256" height="256" viewBox="0 0 256 256" version="1.1">
<g id="surface1">
<path style=" stroke:none;fill-rule:nonzero;fill:rgb(74.509804%,74.509804%,74.509804%);fill-opacity:1;" d="M 80 80 L 80 112 L 176 112 L 176 80 Z M 80 128 L 80 160 L 144 160 L 148 158 L 176 130 L 176 128 Z M 80 177 L 80 208 L 128 208 L 128 177 Z M 80 177 "/>
<path style=" stroke:none;fill-rule:nonzero;fill:rgb(74.509804%,74.509804%,74.509804%);fill-opacity:1;" d="M 87.523438 0 C 79.671875 0 74.78125 3.65625 71.023438 7.5 C 67.179688 11.34375 63.984375 16.460938 63.984375 23.976562 L 63.984375 31.976562 L 31.984375 31.976562 L 31.984375 255.976562 L 159.984375 255.976562 L 159.984375 223.976562 L 63.984375 223.976562 L 63.984375 63.976562 L 95.984375 63.976562 L 95.984375 31.976562 L 159.984375 31.976562 L 159.984375 63.976562 L 191.984375 63.976562 L 191.984375 111.976562 L 223.984375 111.976562 L 223.984375 31.976562 L 191.984375 31.976562 L 191.984375 24.984375 C 191.601562 18.09375 189.257812 13.445312 185.484375 8.984375 C 181.898438 4.75 175.453125 0.515625 166.984375 0.484375 L 166.984375 -0.015625 L 87.484375 -0.015625 Z M 87.523438 0 "/>
<path style=" stroke:none;fill-rule:nonzero;fill:rgb(74.509804%,74.509804%,74.509804%);fill-opacity:1;" d="M 204 128 C 201.15625 128.78125 198.53125 130.359375 196.5 132.5 L 148.5 180 C 144.734375 183.695312 142.984375 189.828125 144 195 L 144 208 L 194 208 L 180.5 228 C 178.070312 230.390625 176.578125 233.648438 176 237 L 176 256 L 192 256 C 196.21875 256.0625 200.445312 253.914062 203.5 251 L 251.5 203 C 254.4375 199.960938 256.101562 196.226562 256 192 C 256.046875 191.335938 256.046875 190.664062 256 190 L 256 176 L 241 176 C 240.671875 175.992188 240.335938 175.992188 240 176 L 206 176 L 219.5 155 C 221.929688 152.617188 223.421875 149.703125 224 146.5 L 224 128 Z M 204 128 "/>
<path style=" stroke:none;fill-rule:nonzero;fill:rgb(0%,0%,0%);fill-opacity:1;" d="M 32.179688 143.914062 L 32.179688 31.976562 L 64.140625 31.976562 L 64.289062 25.460938 C 64.414062 19.84375 64.539062 18.65625 65.15625 16.953125 C 67.859375 9.445312 74.773438 2.859375 82.203125 0.710938 C 84.023438 0.179688 87.453125 0.125 125.539062 0.03125 C 154.015625 -0.046875 166.898438 0.03125 166.898438 0.265625 C 166.898438 0.453125 167.421875 0.609375 168.070312 0.609375 C 169.804688 0.609375 174.070312 1.554688 176.164062 2.414062 C 181.601562 4.617188 186.492188 9.320312 189.359375 15.101562 C 190.984375 18.382812 191.671875 21.640625 191.898438 27.109375 L 192.09375 31.976562 L 224.023438 31.976562 L 224.023438 111.882812 L 191.992188 111.882812 L 191.992188 64.007812 L 159.960938 64.007812 L 159.960938 31.976562 L 95.90625 31.976562 L 95.90625 64.007812 L 63.875 64.007812 L 63.875 224.15625 L 159.960938 224.15625 L 159.960938 255.851562 L 32.179688 255.851562 Z M 32.179688 143.914062 "/>
<path style=" stroke:none;fill-rule:nonzero;fill:rgb(100%,100%,0%);fill-opacity:1;" d="M 176.210938 245.53125 L 176.304688 235.210938 L 177.5 232.71875 C 178.15625 231.351562 179.132812 229.71875 179.679688 229.085938 C 180.617188 228.015625 193.976562 208.414062 193.976562 208.109375 C 193.976562 208.039062 182.773438 207.976562 169.085938 207.976562 L 144.203125 207.976562 L 144.046875 199.140625 C 143.867188 189.429688 144.078125 187.453125 145.648438 184.203125 C 146.695312 182.046875 151.132812 177.492188 179.664062 149.335938 C 197.773438 131.453125 199 130.3125 201.28125 129.226562 L 203.695312 128.0625 L 224.023438 128.0625 L 224.015625 137.0625 C 224.015625 146.570312 223.851562 147.929688 222.382812 150.851562 C 221.976562 151.664062 221.085938 153.007812 220.40625 153.820312 C 218.71875 155.859375 205.882812 175.851562 206.117188 176.085938 C 206.21875 176.1875 217.40625 176.273438 230.984375 176.273438 L 255.671875 176.273438 L 255.78125 183.789062 C 255.921875 193.6875 255.703125 195.945312 254.375 198.703125 C 253.414062 200.695312 251.195312 203 227.203125 226.96875 C 204.679688 249.460938 200.804688 253.195312 199.15625 254 C 195.65625 255.695312 194.53125 255.84375 184.960938 255.851562 L 176.109375 255.851562 Z M 176.210938 245.53125 "/>
<path style=" stroke:none;fill-rule:nonzero;fill:rgb(100%,0%,0%);fill-opacity:1;" d="M 80.054688 192.617188 L 80.054688 177.265625 L 127.9375 177.265625 L 127.9375 207.976562 L 80.054688 207.976562 Z M 80.054688 192.617188 "/>
<path style=" stroke:none;fill-rule:nonzero;fill:rgb(100%,0%,0%);fill-opacity:1;" d="M 80.054688 143.914062 L 80.054688 128.0625 L 175.8125 128.0625 L 175.8125 128.976562 C 175.8125 129.734375 173.46875 132.21875 161.695312 143.96875 C 150.71875 154.921875 147.195312 158.242188 145.859375 158.90625 L 144.132812 159.765625 L 80.054688 159.765625 Z M 80.054688 143.914062 "/>
<path style=" stroke:none;fill-rule:nonzero;fill:rgb(100%,0%,0%);fill-opacity:1;" d="M 80.054688 96.039062 L 80.054688 80.1875 L 175.8125 80.1875 L 175.8125 111.882812 L 80.054688 111.882812 Z M 80.054688 96.039062 "/>
<path style=" stroke:none;fill-rule:nonzero;fill:rgb(100%,100%,100%);fill-opacity:1;" d="M 32.328125 143.945312 L 32.328125 32.757812 L 64.867188 32.757812 L 64.867188 25.664062 C 64.867188 15.429688 68.6875 8.960938 78.375 2.796875 C 81.339844 0.914062 84.675781 0.734375 122.285156 0.394531 C 150.054688 0.148438 165.0625 0.429688 169.519531 1.289062 C 182.34375 3.75 189.085938 11.054688 191.039062 24.589844 L 192.214844 32.757812 L 223.242188 32.757812 L 223.242188 110.859375 L 192.910156 110.859375 L 192.617188 87.265625 L 192.328125 63.671875 L 176.328125 63.375 L 160.328125 63.074219 L 160.328125 31.671875 L 95.242188 31.671875 L 95.242188 63.132812 L 63.78125 63.132812 L 63.78125 224.757812 L 159.242188 224.757812 L 159.242188 255.132812 L 32.328125 255.132812 Z M 32.328125 143.945312 "/>
</g>
</svg>
