<?xml version="1.0" encoding="UTF-8"?>
<svg xmlns="http://www.w3.org/2000/svg" xmlns:xlink="http://www.w3.org/1999/xlink" width="256" height="256" viewBox="0 0 256 256" version="1.1">
<g id="surface1">
<path style=" stroke:none;fill-rule:nonzero;fill:rgb(74.509804%,74.509804%,74.509804%);fill-opacity:1;" d="M 80 176 L 80 208 L 176 208 L 176 176 Z M 80 176 "/>
<path style=" stroke:none;fill-rule:nonzero;fill:rgb(74.509804%,74.509804%,74.509804%);fill-opacity:1;" d="M 87.507812 0 C 79.65625 0 74.765625 3.65625 71.007812 7.5 C 67.242188 11.34375 64.007812 15.9375 64.007812 23.5 L 64.007812 31.976562 L 32.007812 31.976562 L 32.007812 255.976562 L 224.007812 255.976562 L 224.007812 31.976562 L 192.007812 31.976562 L 192.007812 24.984375 C 191.625 18.09375 189.28125 13.445312 185.507812 8.984375 C 181.921875 4.75 175.476562 0.515625 167.007812 0.484375 L 167.007812 -0.015625 L 87.507812 -0.015625 Z M 96 32 L 160 32 L 160 64 L 192 64 L 192 224 L 64 224 L 64 64 L 96 64 Z M 96 32 "/>
<path style=" stroke:none;fill-rule:nonzero;fill:rgb(100%,0%,0%);fill-opacity:1;" d="M 80.054688 192.125 L 80.054688 176.273438 L 175.8125 176.273438 L 175.8125 207.976562 L 80.054688 207.976562 Z M 80.054688 192.125 "/>
<path style=" stroke:none;fill-rule:nonzero;fill:rgb(0%,0%,0%);fill-opacity:1;" d="M 32.179688 143.914062 L 32.179688 31.976562 L 64.148438 31.976562 L 64.28125 25.460938 C 64.398438 19.890625 64.523438 18.617188 65.140625 16.75 C 66.898438 11.390625 73.109375 4.546875 78.414062 2.125 C 83.046875 0.015625 80.0625 0.148438 125.539062 0.03125 C 154.015625 -0.046875 166.898438 0.03125 166.898438 0.265625 C 166.898438 0.453125 167.421875 0.609375 168.070312 0.609375 C 169.703125 0.609375 173.929688 1.523438 175.9375 2.304688 C 181.664062 4.546875 187.59375 10.421875 189.90625 16.148438 C 191.273438 19.539062 191.695312 21.8125 191.890625 26.945312 L 192.09375 31.976562 L 224.023438 31.976562 L 224.023438 255.851562 L 32.179688 255.851562 Z M 191.992188 144.078125 L 191.992188 64.007812 L 159.960938 64.007812 L 159.960938 31.976562 L 95.90625 31.976562 L 95.90625 64.007812 L 63.875 64.007812 L 63.875 224.15625 L 191.992188 224.15625 Z M 191.992188 144.078125 "/>
<path style=" stroke:none;fill-rule:nonzero;fill:rgb(100%,100%,100%);fill-opacity:1;" d="M 32.328125 143.945312 L 32.328125 32.757812 L 64.867188 32.757812 L 64.867188 25.78125 C 64.867188 17.214844 65.816406 14.59375 70.976562 8.882812 C 78.4375 0.625 76.9375 0.875 121.816406 0.398438 C 168.070312 -0.0859375 173.78125 0.476562 181.328125 6.234375 C 187.191406 10.714844 190.460938 17.148438 191.390625 26.039062 L 192.09375 32.757812 L 223.242188 32.757812 L 223.242188 255.132812 L 32.328125 255.132812 Z M 192.601562 144.21875 L 192.328125 63.671875 L 176.328125 63.375 L 160.328125 63.074219 L 160.328125 31.671875 L 95.242188 31.671875 L 95.242188 63.132812 L 63.78125 63.132812 L 63.78125 224.757812 L 192.882812 224.757812 Z M 192.601562 144.21875 "/>
</g>
</svg>
