<?xml version="1.0" encoding="UTF-8"?>
<svg xmlns="http://www.w3.org/2000/svg" xmlns:xlink="http://www.w3.org/1999/xlink" width="256" height="256" viewBox="0 0 256 256" version="1.1">
<g id="surface1">
<path style=" stroke:none;fill-rule:nonzero;fill:rgb(74.509804%,74.509804%,74.509804%);fill-opacity:1;" d="M 87.523438 0 C 79.671875 0 74.78125 3.65625 71.023438 7.5 C 67.179688 11.34375 63.984375 16.460938 63.984375 23.976562 L 63.984375 31.976562 L 31.984375 31.976562 L 31.984375 255.976562 L 159.984375 255.976562 L 159.984375 223.976562 L 63.984375 223.976562 L 63.984375 63.976562 L 95.984375 63.976562 L 95.984375 31.976562 L 159.984375 31.976562 L 159.984375 63.976562 L 191.984375 63.976562 L 191.984375 111.976562 L 223.984375 111.976562 L 223.984375 31.976562 L 191.984375 31.976562 L 191.984375 24.984375 C 191.601562 18.09375 189.257812 13.445312 185.484375 8.984375 C 181.898438 4.75 175.453125 0.515625 166.984375 0.484375 L 166.984375 -0.015625 L 87.484375 -0.015625 Z M 87.523438 0 "/>
<path style=" stroke:none;fill-rule:nonzero;fill:rgb(74.509804%,74.509804%,74.509804%);fill-opacity:1;" d="M 206.078125 128 C 202.5 128.390625 199.148438 129.976562 196.578125 132.5 L 148.578125 180.5 C 143.851562 185.0625 142.390625 192.054688 144.890625 198.125 C 147.398438 204.203125 153.367188 208.125 159.9375 208.023438 L 200.9375 208.023438 L 180.4375 228.515625 C 176.273438 232.617188 174.625 238.632812 176.125 244.28125 C 177.625 249.929688 182.03125 254.335938 187.679688 255.835938 C 193.328125 257.328125 199.34375 255.6875 203.4375 251.515625 L 251.4375 203.515625 C 256.195312 198.9375 257.648438 191.90625 255.101562 185.820312 C 252.546875 179.726562 246.523438 175.828125 239.921875 176 L 198.921875 176 L 219.421875 155.5 C 224.585938 150.703125 226 143.085938 222.90625 136.757812 C 219.8125 130.421875 212.9375 126.859375 205.976562 127.976562 Z M 206.078125 128 "/>
<path style=" stroke:none;fill-rule:nonzero;fill:rgb(74.509804%,74.509804%,74.509804%);fill-opacity:1;" d="M 240 176 L 256 176 L 256 192 L 240 192 Z M 240 176 "/>
<path style=" stroke:none;fill-rule:nonzero;fill:rgb(74.509804%,74.509804%,74.509804%);fill-opacity:1;" d="M 144 192 L 160 192 L 160 208 L 144 208 Z M 144 192 "/>
<path style=" stroke:none;fill-rule:nonzero;fill:rgb(74.509804%,74.509804%,74.509804%);fill-opacity:1;" d="M 208 128 L 224 128 L 224 144 L 208 144 Z M 208 128 "/>
<path style=" stroke:none;fill-rule:nonzero;fill:rgb(74.509804%,74.509804%,74.509804%);fill-opacity:1;" d="M 176 240 L 192 240 L 192 256 L 176 256 Z M 176 240 "/>
<path style=" stroke:none;fill-rule:nonzero;fill:rgb(74.509804%,74.509804%,74.509804%);fill-opacity:1;" d="M 194.5625 135.039062 L 162.5625 183.039062 L 189.5625 201.039062 L 221.5625 153.039062 Z M 194.5625 135.039062 "/>
<path style=" stroke:none;fill-rule:nonzero;fill:rgb(74.509804%,74.509804%,74.509804%);fill-opacity:1;" d="M 210.5625 183.039062 L 178.5625 231.039062 L 205.5625 249.039062 L 237.5625 201.039062 Z M 210.5625 183.039062 "/>
<path style=" stroke:none;fill-rule:nonzero;fill:rgb(0%,0%,0%);fill-opacity:1;" d="M 32.429688 143.96875 L 32.429688 32.3125 L 64.109375 32.3125 L 64.34375 25.164062 C 64.5625 18.53125 64.71875 17.75 66.445312 14.234375 C 68.640625 9.773438 74.132812 4.304688 78.46875 2.265625 C 80.03125 1.523438 83.007812 0.703125 85.070312 0.4375 C 87.140625 0.171875 105.992188 -0.0546875 126.960938 -0.0703125 C 168.554688 -0.0859375 170.75 0.0546875 177.640625 3.265625 C 182.078125 5.34375 187.070312 10.492188 189.351562 15.359375 C 190.96875 18.8125 191.234375 20.078125 191.5 25.65625 L 191.8125 32.023438 L 207.867188 32.171875 L 223.921875 32.328125 L 223.921875 111.570312 L 192.101562 111.570312 L 192.101562 63.554688 L 160.28125 63.554688 L 160.28125 31.734375 L 96.0625 31.734375 L 96.0625 63.53125 L 63.953125 63.84375 L 63.953125 224.09375 L 159.703125 224.390625 L 159.703125 255.625 L 32.429688 255.625 Z M 32.429688 143.96875 "/>
<path style=" stroke:none;fill-rule:nonzero;fill:rgb(100%,100%,0%);fill-opacity:1;" d="M 182.78125 255.804688 L 176.640625 255.585938 L 176.242188 246.492188 C 175.921875 239.28125 176.007812 236.921875 176.664062 235.085938 C 177.117188 233.8125 181.171875 227.320312 185.664062 220.664062 C 190.15625 214.007812 193.835938 208.328125 193.835938 208.054688 C 193.835938 207.773438 185.851562 207.578125 176.046875 207.609375 C 166.265625 207.640625 155.046875 207.65625 151.125 207.632812 L 143.992188 207.609375 L 144.179688 197.335938 C 144.34375 188.703125 144.546875 186.75 145.445312 185.046875 C 146.039062 183.929688 158.257812 171.25 172.609375 156.859375 C 194.09375 135.320312 199.210938 130.476562 201.617188 129.414062 C 204.304688 128.21875 205.289062 128.132812 214.0625 128.257812 C 219.296875 128.335938 223.640625 128.453125 223.710938 128.523438 C 223.773438 128.585938 223.914062 132.804688 224.023438 137.898438 C 224.164062 144.984375 224.015625 147.625 223.375 149.171875 C 222.914062 150.289062 218.992188 156.539062 214.65625 163.0625 C 210.328125 169.578125 206.585938 175.242188 206.34375 175.640625 C 206 176.21875 210.96875 176.367188 230.609375 176.34375 C 244.195312 176.335938 255.390625 176.40625 255.492188 176.5 C 255.585938 176.601562 255.742188 180.96875 255.828125 186.210938 C 255.976562 195.070312 255.898438 195.953125 254.679688 198.640625 C 253.625 200.96875 248.375 206.53125 227.507812 227.390625 C 199.21875 255.6875 199.25 255.65625 192.429688 255.898438 C 190.5 255.96875 186.15625 255.921875 182.78125 255.804688 Z M 182.78125 255.804688 "/>
<path style=" stroke:none;fill-rule:nonzero;fill:rgb(100%,100%,100%);fill-opacity:1;" d="M 33.410156 143.945312 L 33.410156 32.757812 L 64.632812 32.757812 L 65.03125 24.796875 C 65.484375 15.8125 68.3125 10.257812 75.039062 5.128906 C 80.941406 0.625 88.933594 -0.0351562 131.960938 0.429688 C 165.921875 0.796875 171.15625 1.078125 174.96875 2.757812 C 184.027344 6.742188 190.699219 15.960938 190.699219 24.492188 C 190.699219 33.039062 190.125 32.757812 207.625 32.757812 L 223.242188 32.757812 L 223.242188 110.859375 L 192.867188 110.859375 L 192.867188 63.132812 L 160.328125 63.132812 L 160.328125 31.671875 L 95.242188 31.671875 L 95.242188 63.132812 L 63.78125 63.132812 L 63.78125 224.757812 L 159.242188 224.757812 L 159.242188 255.132812 L 33.410156 255.132812 Z M 33.410156 143.945312 "/>
</g>
</svg>
