<?xml version="1.0" encoding="UTF-8"?>
<svg xmlns="http://www.w3.org/2000/svg" xmlns:xlink="http://www.w3.org/1999/xlink" width="256" height="256" viewBox="0 0 256 256" version="1.1">
<g id="surface1">
<path style=" stroke:none;fill-rule:nonzero;fill:rgb(0%,0%,0%);fill-opacity:1;" d="M 80 80 L 80 112 L 176 112 L 176 80 Z M 80 80 "/>
<path style=" stroke:none;fill-rule:nonzero;fill:rgb(0%,0%,0%);fill-opacity:1;" d="M 87.507812 0 C 79.65625 0 74.765625 3.65625 71.007812 7.5 C 67.242188 11.34375 64.007812 15.9375 64.007812 23.5 L 64.007812 31.976562 L 32.007812 31.976562 L 32.007812 255.976562 L 224.007812 255.976562 L 224.007812 31.976562 L 192.007812 31.976562 L 192.007812 24.984375 C 191.625 18.09375 189.28125 13.445312 185.507812 8.984375 C 181.921875 4.75 175.476562 0.515625 167.007812 0.484375 L 167.007812 -0.015625 L 87.507812 -0.015625 Z M 96 32 L 160 32 L 160 64 L 192 64 L 192 224 L 64 224 L 64 64 L 96 64 Z M 96 32 "/>
<path style=" stroke:none;fill-rule:nonzero;fill:rgb(0%,0%,0%);fill-opacity:1;" d="M 80 128 L 80 160 L 176 160 L 176 128 Z M 80 128 "/>
<path style=" stroke:none;fill-rule:nonzero;fill:rgb(0%,0%,0%);fill-opacity:1;" d="M 80 176 L 80 208 L 176 208 L 176 176 Z M 80 176 "/>
<path style=" stroke:none;fill-rule:nonzero;fill:rgb(100%,0%,0%);fill-opacity:1;" d="M 80.054688 96.039062 L 80.054688 80.1875 L 175.8125 80.1875 L 175.8125 111.882812 L 80.054688 111.882812 Z M 80.054688 96.039062 "/>
<path style=" stroke:none;fill-rule:nonzero;fill:rgb(100%,0%,0%);fill-opacity:1;" d="M 80.054688 143.914062 L 80.054688 128.0625 L 175.8125 128.0625 L 175.8125 159.765625 L 80.054688 159.765625 Z M 80.054688 143.914062 "/>
<path style=" stroke:none;fill-rule:nonzero;fill:rgb(100%,0%,0%);fill-opacity:1;" d="M 80.054688 192.125 L 80.054688 176.273438 L 175.8125 176.273438 L 175.8125 207.976562 L 80.054688 207.976562 Z M 80.054688 192.125 "/>
<path style=" stroke:none;fill-rule:nonzero;fill:rgb(100%,100%,100%);fill-opacity:1;" d="M 32.328125 143.945312 L 32.328125 32.757812 L 64.867188 32.757812 L 64.867188 25.671875 C 64.867188 21.777344 65.527344 17.015625 66.335938 15.097656 C 68.371094 10.253906 76.820312 2.78125 81.839844 1.390625 C 87.257812 -0.113281 162.230469 -0.183594 170.210938 1.308594 C 182.246094 3.558594 190.492188 12.984375 191.507812 25.648438 L 192.078125 32.757812 L 223.242188 32.757812 L 223.242188 255.132812 L 32.328125 255.132812 Z M 192.867188 143.945312 L 192.867188 63.132812 L 160.328125 63.132812 L 160.328125 31.671875 L 95.242188 31.671875 L 95.242188 63.132812 L 63.78125 63.132812 L 63.78125 224.757812 L 192.867188 224.757812 Z M 192.867188 143.945312 "/>
</g>
</svg>
