<?xml version="1.0" encoding="UTF-8"?>
<svg xmlns="http://www.w3.org/2000/svg" xmlns:xlink="http://www.w3.org/1999/xlink" width="256" height="256" viewBox="0 0 256 256" version="1.1">
<g id="surface1">
<path style=" stroke:none;fill-rule:nonzero;fill:rgb(100%,100%,100%);fill-opacity:1;" d="M 87.523438 0 C 79.648438 0 74.78125 3.640625 71.023438 7.5 C 67.179688 11.34375 63.984375 16.460938 63.984375 23.976562 L 63.984375 31.976562 L 31.984375 31.976562 L 31.984375 255.976562 L 223.984375 255.976562 L 223.984375 31.976562 L 191.984375 31.976562 L 191.984375 24.984375 C 191.601562 18.09375 189.257812 13.453125 185.484375 8.984375 C 181.90625 4.742188 175.484375 0.507812 166.984375 0.484375 L 166.984375 -0.015625 L 87.484375 -0.015625 Z M 96.023438 32 L 160.023438 32 L 160.023438 64 L 192.023438 64 L 192.023438 224 L 64.023438 224 L 64.023438 64 L 96.023438 64 Z M 96.023438 32 "/>
</g>
</svg>
