<?xml version="1.0" encoding="UTF-8"?>
<svg xmlns="http://www.w3.org/2000/svg" xmlns:xlink="http://www.w3.org/1999/xlink" width="256" height="256" viewBox="0 0 256 256" version="1.1">
<g id="surface1">
<path style=" stroke:none;fill-rule:nonzero;fill:rgb(74.509804%,74.509804%,74.509804%);fill-opacity:1;" d="M 80 176.960938 L 80 207.960938 L 128 207.960938 L 128 175.960938 Z M 80 176.960938 "/>
<path style=" stroke:none;fill-rule:nonzero;fill:rgb(74.509804%,74.509804%,74.509804%);fill-opacity:1;" d="M 87.523438 0 C 79.671875 0 74.78125 3.65625 71.023438 7.5 C 67.179688 11.34375 63.984375 16.460938 63.984375 23.976562 L 63.984375 31.976562 L 31.984375 31.976562 L 31.984375 255.976562 L 159.984375 255.976562 L 159.984375 223.976562 L 63.984375 223.976562 L 63.984375 63.976562 L 95.984375 63.976562 L 95.984375 31.976562 L 159.984375 31.976562 L 159.984375 63.976562 L 191.984375 63.976562 L 191.984375 111.976562 L 223.984375 111.976562 L 223.984375 31.976562 L 191.984375 31.976562 L 191.984375 24.984375 C 191.601562 18.09375 189.257812 13.445312 185.484375 8.984375 C 181.898438 4.75 175.453125 0.515625 166.984375 0.484375 L 166.984375 -0.015625 L 87.484375 -0.015625 Z M 87.523438 0 "/>
<path style=" stroke:none;fill-rule:nonzero;fill:rgb(74.509804%,74.509804%,74.509804%);fill-opacity:1;" d="M 206.078125 128 C 202.5 128.390625 199.148438 129.976562 196.578125 132.5 L 148.578125 180.5 C 143.851562 185.0625 142.390625 192.054688 144.890625 198.125 C 147.398438 204.203125 153.367188 208.125 159.9375 208.023438 L 200.9375 208.023438 L 180.4375 228.515625 C 176.273438 232.617188 174.625 238.632812 176.125 244.28125 C 177.625 249.929688 182.03125 254.335938 187.679688 255.835938 C 193.328125 257.328125 199.34375 255.6875 203.4375 251.515625 L 251.4375 203.515625 C 256.195312 198.9375 257.648438 191.90625 255.101562 185.820312 C 252.546875 179.726562 246.523438 175.828125 239.921875 176 L 198.921875 176 L 219.421875 155.5 C 224.585938 150.703125 226 143.085938 222.90625 136.757812 C 219.8125 130.421875 212.9375 126.859375 205.976562 127.976562 Z M 206.078125 128 "/>
<path style=" stroke:none;fill-rule:nonzero;fill:rgb(74.509804%,74.509804%,74.509804%);fill-opacity:1;" d="M 240 176 L 256 176 L 256 192 L 240 192 Z M 240 176 "/>
<path style=" stroke:none;fill-rule:nonzero;fill:rgb(74.509804%,74.509804%,74.509804%);fill-opacity:1;" d="M 144 192 L 160 192 L 160 208 L 144 208 Z M 144 192 "/>
<path style=" stroke:none;fill-rule:nonzero;fill:rgb(74.509804%,74.509804%,74.509804%);fill-opacity:1;" d="M 208 128 L 224 128 L 224 144 L 208 144 Z M 208 128 "/>
<path style=" stroke:none;fill-rule:nonzero;fill:rgb(74.509804%,74.509804%,74.509804%);fill-opacity:1;" d="M 176 240 L 192 240 L 192 256 L 176 256 Z M 176 240 "/>
<path style=" stroke:none;fill-rule:nonzero;fill:rgb(74.509804%,74.509804%,74.509804%);fill-opacity:1;" d="M 194.5625 135.039062 L 162.5625 183.039062 L 189.5625 201.039062 L 221.5625 153.039062 Z M 194.5625 135.039062 "/>
<path style=" stroke:none;fill-rule:nonzero;fill:rgb(74.509804%,74.509804%,74.509804%);fill-opacity:1;" d="M 210.5625 183.039062 L 178.5625 231.039062 L 205.5625 249.039062 L 237.5625 201.039062 Z M 210.5625 183.039062 "/>
<path style=" stroke:none;fill-rule:nonzero;fill:rgb(100%,0%,0%);fill-opacity:1;" d="M 80.054688 192.507812 L 80.054688 177.046875 L 102.257812 176.65625 C 114.476562 176.4375 125.25 176.179688 126.203125 176.078125 L 127.9375 175.898438 L 127.9375 207.976562 L 80.054688 207.976562 Z M 80.054688 192.507812 "/>
<path style=" stroke:none;fill-rule:nonzero;fill:rgb(0%,0%,0%);fill-opacity:1;" d="M 32.179688 143.914062 L 32.179688 31.976562 L 64.140625 31.976562 L 64.289062 25.460938 C 64.414062 19.84375 64.539062 18.65625 65.15625 16.953125 C 67.859375 9.445312 74.773438 2.859375 82.203125 0.710938 C 84.023438 0.179688 87.453125 0.125 125.539062 0.03125 C 154.015625 -0.046875 166.898438 0.03125 166.898438 0.265625 C 166.898438 0.453125 167.421875 0.609375 168.070312 0.609375 C 169.804688 0.609375 174.070312 1.554688 176.164062 2.414062 C 181.601562 4.617188 186.492188 9.320312 189.359375 15.101562 C 190.984375 18.382812 191.671875 21.640625 191.898438 27.109375 L 192.09375 31.976562 L 224.023438 31.976562 L 224.023438 111.882812 L 191.992188 111.882812 L 191.992188 64.007812 L 159.960938 64.007812 L 159.960938 31.976562 L 95.90625 31.976562 L 95.90625 64.007812 L 63.875 64.007812 L 63.875 224.15625 L 159.960938 224.15625 L 159.960938 255.851562 L 32.179688 255.851562 Z M 32.179688 143.914062 "/>
<path style=" stroke:none;fill-rule:nonzero;fill:rgb(100%,100%,0%);fill-opacity:1;" d="M 182.554688 255.953125 L 176.25 255.835938 L 176.039062 246.617188 C 175.796875 236.109375 175.984375 234.875 178.367188 231.351562 C 179.046875 230.335938 182.84375 224.703125 186.789062 218.828125 L 193.976562 208.140625 L 144.210938 207.96875 L 144.03125 199 C 143.890625 191.828125 143.945312 189.65625 144.320312 188.1875 C 145.476562 183.703125 144.710938 184.554688 172.492188 156.75 C 196.65625 132.5625 198.578125 130.71875 200.578125 129.796875 C 204.195312 128.132812 205.273438 128.007812 214.921875 128.046875 C 219.820312 128.070312 223.851562 128.117188 223.890625 128.15625 C 223.921875 128.195312 224.007812 132.539062 224.0625 137.804688 C 224.171875 147.242188 224.164062 147.414062 223.390625 149.34375 C 222.960938 150.414062 218.914062 156.84375 214.398438 163.625 C 209.882812 170.40625 206.1875 176.03125 206.1875 176.140625 C 206.1875 176.242188 214.476562 176.304688 224.601562 176.273438 C 234.726562 176.242188 245.84375 176.234375 249.3125 176.25 L 255.617188 176.273438 L 255.84375 185.453125 C 256.054688 194.054688 256.03125 194.765625 255.414062 196.765625 C 255.046875 197.9375 254.289062 199.632812 253.71875 200.546875 C 252.460938 202.5625 203.085938 252 200.796875 253.53125 C 197.109375 256 195.6875 256.1875 182.554688 255.953125 Z M 182.554688 255.953125 "/>
<path style=" stroke:none;fill-rule:nonzero;fill:rgb(100%,100%,100%);fill-opacity:1;" d="M 32.328125 143.945312 L 32.328125 32.757812 L 64.867188 32.757812 L 64.867188 25.664062 C 64.867188 15.429688 68.6875 8.960938 78.375 2.796875 C 81.339844 0.914062 84.675781 0.734375 122.285156 0.394531 C 150.054688 0.148438 165.0625 0.429688 169.519531 1.289062 C 182.34375 3.75 189.085938 11.054688 191.039062 24.589844 L 192.214844 32.757812 L 223.242188 32.757812 L 223.242188 110.859375 L 192.910156 110.859375 L 192.617188 87.265625 L 192.328125 63.671875 L 176.328125 63.375 L 160.328125 63.074219 L 160.328125 31.671875 L 95.242188 31.671875 L 95.242188 63.132812 L 63.78125 63.132812 L 63.78125 224.757812 L 159.242188 224.757812 L 159.242188 255.132812 L 32.328125 255.132812 Z M 32.328125 143.945312 "/>
</g>
</svg>
