<?xml version="1.0" encoding="UTF-8"?>
<svg xmlns="http://www.w3.org/2000/svg" xmlns:xlink="http://www.w3.org/1999/xlink" width="256" height="256" viewBox="0 0 256 256" version="1.1">
<g id="surface1">
<path style=" stroke:none;fill-rule:nonzero;fill:rgb(100%,100%,100%);fill-opacity:1;" d="M 120.164062 10.664062 C 107.523438 12.460938 100.914062 26.585938 102.5 38.335938 C 102.585938 52.101562 102.75 65.898438 102.835938 79.664062 C 96.726562 73.398438 90.414062 64.914062 80.539062 65.960938 C 68.0625 66.164062 57.914062 79.460938 62.164062 91.4375 C 66.1875 101.085938 75.023438 107.125 81.773438 114.664062 C 86.125 119.039062 90.476562 123.4375 94.835938 127.835938 C 85.101562 137.960938 74.460938 147.398438 65.335938 157.960938 C 57.164062 169.476562 66.085938 187.976562 80.335938 188.335938 C 89.898438 190.085938 97.664062 181.851562 103.5 175.164062 C 103.789062 192.976562 103.101562 210.851562 104.164062 228.625 C 106.023438 240.5 119.914062 248.875 130.898438 243.875 C 140.539062 239.898438 145.710938 230.148438 153.1875 223.4375 C 164.585938 211 176.523438 198.773438 187.4375 186.039062 C 193.585938 176.164062 188.414062 163.648438 179.835938 157.148438 C 170.101562 147.3125 160.398438 137.5 150.664062 127.664062 C 162.585938 115.3125 175.023438 103.3125 186.5 90.664062 C 194.375 80.4375 188.273438 66.726562 178.960938 59.898438 C 163.960938 44.726562 149.414062 29.085938 134.125 14.226562 C 130.148438 11.289062 125.039062 10.335938 120.164062 10.664062 Z M 120.835938 17.5 C 132.375 16.414062 137.585938 29.1875 145.4375 35.289062 C 157.1875 47.625 169.5625 59.476562 180.976562 72.0625 C 187.1875 80.835938 179.5 89.625 172.898438 95.1875 C 162.3125 106.0625 151.625 116.8125 141 127.664062 C 154.210938 140.625 167.164062 154.125 180.101562 167.1875 C 187.273438 175.414062 180.976562 185.460938 173.914062 191.101562 C 160.414062 205.523438 147.085938 219.898438 133.8125 234.164062 C 128.164062 240.210938 117.6875 239.8125 113.210938 232.476562 C 108.375 224.085938 111.398438 213.75 110.414062 204.5 C 110.398438 192.226562 110.414062 179.914062 110.335938 167.664062 C 103.0625 158.164062 95.8125 176.773438 88.726562 179.75 C 80.8125 185.4375 69.125 178.539062 69.164062 169 C 69.023438 159.226562 79.398438 154.4375 84.726562 147.523438 C 91.289062 140.976562 97.8125 134.398438 104.335938 127.835938 C 93.1875 116.023438 81.375 104.835938 70.398438 92.914062 C 63.75 84.25 72.898438 71.1875 83.3125 72.9375 C 92.210938 75.414062 96.875 84.773438 103.835938 90.335938 C 105.5625 91.1875 109.789062 97.9375 109.664062 94.398438 C 109.726562 73.460938 109.226562 52.5 109.414062 31.5625 C 110.085938 25.273438 114 18.375 120.835938 17.5 Z M 130 56.5 C 129.960938 71.5 130.1875 86.5 130.164062 101.5 C 137.5625 94.164062 144.8125 86.6875 152.164062 79.335938 C 144.898438 71.601562 137.1875 64.3125 130 56.5 Z M 136.835938 73.335938 C 138 75.664062 144 77.960938 141.539062 80.3125 C 138.289062 84.226562 135.585938 86.8125 136.914062 79.164062 C 136.875 77.226562 136.835938 75.289062 136.835938 73.335938 Z M 130.835938 154.5 C 130.835938 169.164062 130.835938 183.835938 130.835938 198.5 C 137.914062 190.976562 145.101562 183.539062 152.164062 176 C 145.039062 168.851562 138 161.601562 130.835938 154.5 Z M 137.835938 171.335938 C 139.648438 173.664062 144.664062 175.914062 140.335938 178.375 C 137.148438 183.5 137.789062 178.601562 137.835938 175.273438 C 137.835938 173.960938 137.835938 172.648438 137.835938 171.335938 Z M 137.835938 171.335938 "/>
</g>
</svg>
