<?xml version="1.0" encoding="UTF-8"?>
<svg xmlns="http://www.w3.org/2000/svg" xmlns:xlink="http://www.w3.org/1999/xlink" width="256" height="256" viewBox="0 0 256 256" version="1.1">
<g id="surface1">
<path style=" stroke:none;fill-rule:nonzero;fill:rgb(74.509804%,74.509804%,74.509804%);fill-opacity:1;" d="M 110 0.15625 C 101.953125 1.171875 95.9375 8.046875 96 16.15625 L 96 73.15625 L 75.5 52.664062 C 71.40625 48.492188 65.390625 46.851562 59.742188 48.34375 C 54.09375 49.84375 49.679688 54.25 48.1875 59.898438 C 46.6875 65.546875 48.335938 71.5625 52.5 75.664062 L 95.992188 119.179688 L 95.992188 137.179688 L 52.484375 180.679688 C 48.320312 184.78125 46.679688 190.796875 48.171875 196.445312 C 49.671875 202.085938 54.078125 206.5 59.726562 208 C 65.375 209.492188 71.390625 207.84375 75.484375 203.679688 L 96 183.203125 L 96 240.164062 C 95.84375 246.75 99.742188 252.757812 105.820312 255.304688 C 111.90625 257.84375 118.921875 256.398438 123.5 251.664062 L 187.5 187.664062 C 190.617188 184.648438 192.375 180.5 192.375 176.164062 C 192.375 171.828125 190.617188 167.679688 187.5 164.664062 L 151.007812 128.179688 L 187.507812 91.679688 C 190.617188 88.664062 192.382812 84.515625 192.382812 80.179688 C 192.382812 75.84375 190.617188 71.695312 187.507812 68.679688 L 123.507812 4.679688 C 119.953125 1.15625 114.953125 -0.5 110 0.203125 Z M 128 55.203125 L 152.992188 80.15625 L 128 105.117188 L 128 55.117188 Z M 128 151.203125 L 152.992188 176.15625 L 128 201.117188 L 128 151.117188 Z M 128 151.203125 "/>
<path style=" stroke:none;fill-rule:nonzero;fill:rgb(74.509804%,74.509804%,74.509804%);fill-opacity:1;" d="M 48 48.15625 L 64 48.15625 L 64 64.15625 L 48 64.15625 Z M 48 48.15625 "/>
<path style=" stroke:none;fill-rule:nonzero;fill:rgb(74.509804%,74.509804%,74.509804%);fill-opacity:1;" d="M 48 192.15625 L 64 192.15625 L 64 208.15625 L 48 208.15625 Z M 48 192.15625 "/>
<path style=" stroke:none;fill-rule:nonzero;fill:rgb(74.509804%,74.509804%,74.509804%);fill-opacity:1;" d="M 96 240.15625 L 112 240.15625 L 112 256.15625 L 96 256.15625 Z M 96 240.15625 "/>
<path style=" stroke:none;fill-rule:nonzero;fill:rgb(74.509804%,74.509804%,74.509804%);fill-opacity:1;" d="M 96 0.15625 L 112 0.15625 L 112 16.15625 L 96 16.15625 Z M 96 0.15625 "/>
</g>
</svg>
