<?xml version="1.0" encoding="UTF-8"?>
<svg xmlns="http://www.w3.org/2000/svg" xmlns:xlink="http://www.w3.org/1999/xlink" width="256" height="256" viewBox="0 0 256 256" version="1.1">
<g id="surface1">
<path style=" stroke:none;fill-rule:nonzero;fill:rgb(100%,100%,100%);fill-opacity:1;" d="M 128 10.664062 C 127.5625 10.6875 127.101562 10.75 126.664062 10.835938 C 122.585938 11.898438 119.5625 15.3125 119 19.5 C 119 19.664062 119 19.835938 119 20 C 118.835938 20.164062 118.664062 20.335938 118.5 20.5 C 118.476562 20.789062 118.476562 21.0625 118.5 21.335938 C 118.210938 22.085938 118.039062 22.875 118 23.664062 L 118.5 103 L 91.835938 76 C 89.539062 72.5625 85.398438 70.8125 81.3125 71.5625 C 77.226562 72.335938 74 75.460938 73.101562 79.5 C 72.210938 83.539062 73.789062 87.75 77.164062 90.164062 L 114.335938 127.835938 L 77.164062 165 C 74.351562 167.585938 73.1875 171.5 74.125 175.1875 C 75.0625 178.875 77.960938 181.773438 81.648438 182.710938 C 85.335938 183.648438 89.25 182.476562 91.835938 179.664062 L 119 152.164062 L 119.335938 231.5 C 119.414062 232.125 119.585938 232.75 119.835938 233.335938 C 119.835938 233.5 119.835938 233.664062 119.835938 233.835938 C 119.335938 238.1875 121.625 242.351562 125.539062 244.3125 C 129.460938 246.25 134.164062 245.523438 137.335938 242.5 L 188.664062 187.5 C 192.375 183.351562 192.148438 177.039062 188.164062 173.164062 L 143.335938 127.835938 L 188.164062 82 C 192.148438 78.125 192.375 71.8125 188.664062 67.664062 L 136.335938 14 C 134.210938 11.6875 131.148438 10.460938 128 10.664062 Z M 132.664062 39.835938 L 166.664062 74.664062 L 133.164062 108.5 Z M 203.835938 89.164062 C 199.523438 89.164062 195.226562 90.476562 191.835938 93.5 C 188.4375 96.523438 186.164062 101.289062 186.164062 106.835938 L 186.164062 115.164062 L 186 115.164062 C 181.085938 115.164062 177 119.25 177 124.164062 L 177 150.5 C 177 155.414062 181.085938 159.5 186 159.5 L 221.335938 159.5 C 226.25 159.5 230.164062 155.414062 230.164062 150.5 L 230.164062 124.164062 C 230.164062 119.335938 226.460938 115.3125 221.664062 115.164062 L 221.664062 106.835938 C 221.664062 101.289062 219.226562 96.523438 215.835938 93.5 C 212.4375 90.476562 208.148438 89.164062 203.835938 89.164062 Z M 203.835938 98 C 206.164062 98 208.414062 98.773438 210 100.164062 C 211.585938 101.5625 212.835938 103.5 212.835938 106.835938 L 212.835938 115.164062 L 195 115.164062 L 195 106.835938 C 195 103.5 196.085938 101.5625 197.664062 100.164062 C 199.25 98.773438 201.5 98 203.835938 98 Z M 133.664062 147.5 L 166.664062 180.664062 L 134 215.5 Z M 133.664062 147.5 "/>
</g>
</svg>
