<?xml version="1.0" encoding="UTF-8"?>
<svg xmlns="http://www.w3.org/2000/svg" xmlns:xlink="http://www.w3.org/1999/xlink" width="256" height="256" viewBox="0 0 256 256" version="1.1">
<g id="surface1">
<path style=" stroke:none;fill-rule:nonzero;fill:rgb(100%,100%,100%);fill-opacity:1;" d="M 126.75 10.851562 C 122.601562 11.875 119.5 15.335938 118.9375 19.5625 C 118.9375 19.726562 118.9375 19.875 118.9375 20.039062 C 118.789062 20.1875 118.625 20.335938 118.476562 20.476562 C 118.460938 20.789062 118.460938 21.101562 118.476562 21.398438 C 118.210938 22.148438 118.0625 22.914062 118.023438 23.6875 L 118.476562 103.0625 L 91.875 76 C 89.539062 72.601562 85.414062 70.914062 81.375 71.710938 C 77.335938 72.476562 74.148438 75.585938 73.25 79.601562 C 72.335938 83.601562 73.875 87.773438 77.1875 90.226562 L 114.351562 127.835938 L 77.1875 165 C 73.148438 169.039062 73.148438 175.625 77.1875 179.664062 C 81.25 183.726562 87.8125 183.726562 91.875 179.664062 L 118.9375 152.148438 L 119.398438 231.5 C 119.476562 232.125 119.625 232.75 119.851562 233.335938 C 119.851562 233.5 119.851562 233.648438 119.851562 233.8125 C 119.375 238.125 121.648438 242.289062 125.539062 244.226562 C 129.4375 246.1875 134.125 245.5 137.289062 242.523438 L 188.664062 187.460938 C 192.3125 183.351562 192.101562 177.125 188.210938 173.25 L 143.25 127.835938 L 188.210938 81.960938 C 192.101562 78.085938 192.3125 71.851562 188.664062 67.726562 L 136.375 14.0625 C 133.9375 11.375 130.289062 10.164062 126.75 10.851562 Z M 132.710938 39.75 L 166.648438 74.625 L 133.164062 108.5625 Z M 133.625 147.5625 L 166.648438 180.585938 L 134.085938 215.460938 Z M 133.625 147.5625 "/>
</g>
</svg>
