<?xml version="1.0" encoding="UTF-8"?>
<svg xmlns="http://www.w3.org/2000/svg" xmlns:xlink="http://www.w3.org/1999/xlink" width="256" height="256" viewBox="0 0 256 256" version="1.1">
<g id="surface1">
<path style=" stroke:none;fill-rule:nonzero;fill:rgb(100%,100%,100%);fill-opacity:1;" d="M 8 112 L 40 112 C 44.421875 112 48 115.578125 48 120 L 48 136 C 48 140.421875 44.421875 144 40 144 L 8 144 C 3.578125 144 0 140.421875 0 136 L 0 120 C 0 115.578125 3.578125 112 8 112 Z M 8 112 "/>
<path style=" stroke:none;fill-rule:nonzero;fill:rgb(100%,100%,100%);fill-opacity:1;" d="M 216 112 L 248 112 C 252.414062 112 256 115.578125 256 120 L 256 136 C 256 140.421875 252.414062 144 248 144 L 216 144 C 211.578125 144 208 140.421875 208 136 L 208 120 C 208 115.578125 211.578125 112 216 112 Z M 216 112 "/>
<path style=" stroke:none;fill-rule:nonzero;fill:rgb(100%,100%,100%);fill-opacity:1;" d="M 31.773438 201.546875 L 54.40625 178.914062 C 57.53125 175.789062 62.59375 175.789062 65.71875 178.914062 L 77.03125 190.226562 C 80.15625 193.351562 80.15625 198.421875 77.03125 201.546875 L 54.40625 224.171875 C 51.28125 227.296875 46.210938 227.296875 43.09375 224.171875 L 31.773438 212.859375 C 28.65625 209.734375 28.65625 204.671875 31.773438 201.546875 Z M 31.773438 201.546875 "/>
<path style=" stroke:none;fill-rule:nonzero;fill:rgb(100%,100%,100%);fill-opacity:1;" d="M 178.851562 54.46875 L 201.484375 31.84375 C 204.601562 28.71875 209.671875 28.71875 212.796875 31.84375 L 224.109375 43.15625 C 227.234375 46.28125 227.234375 51.34375 224.109375 54.46875 L 201.476562 77.09375 C 198.359375 80.21875 193.289062 80.21875 190.171875 77.09375 L 178.851562 65.78125 C 175.734375 62.65625 175.726562 57.59375 178.851562 54.46875 Z M 178.851562 54.46875 "/>
<path style=" stroke:none;fill-rule:nonzero;fill:rgb(100%,100%,100%);fill-opacity:1;" d="M 112 248 L 112 216 C 112 211.578125 115.578125 208 120 208 L 136 208 C 140.421875 208 144 211.578125 144 216 L 144 248 C 144 252.421875 140.421875 256 136 256 L 120 256 C 115.578125 256 112 252.421875 112 248 Z M 112 248 "/>
<path style=" stroke:none;fill-rule:nonzero;fill:rgb(100%,100%,100%);fill-opacity:1;" d="M 112 40 L 112 8 C 112 3.585938 115.578125 0 120 0 L 136 0 C 140.421875 0 144 3.585938 144 8 L 144 40 C 144 44.421875 140.421875 48 136 48 L 120 48 C 115.578125 48 112 44.421875 112 40 Z M 112 40 "/>
<path style=" stroke:none;fill-rule:nonzero;fill:rgb(100%,100%,100%);fill-opacity:1;" d="M 201.484375 224.171875 L 178.851562 201.546875 C 175.726562 198.421875 175.726562 193.351562 178.851562 190.226562 L 190.164062 178.914062 C 193.289062 175.789062 198.359375 175.789062 201.476562 178.914062 L 224.109375 201.546875 C 227.234375 204.671875 227.234375 209.734375 224.109375 212.859375 L 212.796875 224.171875 C 209.671875 227.296875 204.609375 227.296875 201.484375 224.171875 Z M 201.484375 224.171875 "/>
<path style=" stroke:none;fill-rule:nonzero;fill:rgb(100%,100%,100%);fill-opacity:1;" d="M 54.40625 77.09375 L 31.773438 54.46875 C 28.65625 51.34375 28.65625 46.28125 31.78125 43.15625 L 43.09375 31.84375 C 46.21875 28.71875 51.28125 28.71875 54.40625 31.84375 L 77.03125 54.46875 C 80.15625 57.59375 80.15625 62.65625 77.03125 65.78125 L 65.71875 77.09375 C 62.59375 80.21875 57.53125 80.21875 54.40625 77.09375 Z M 54.40625 77.09375 "/>
<path style=" stroke:none;fill-rule:nonzero;fill:rgb(100%,100%,100%);fill-opacity:1;" d="M 127.820312 64.15625 C 92.664062 64.15625 64.15625 92.671875 64.15625 127.828125 C 64.15625 162.984375 92.664062 191.96875 127.820312 191.96875 C 162.984375 191.96875 191.960938 162.984375 191.960938 127.828125 C 191.960938 92.671875 162.984375 64.15625 127.820312 64.15625 Z M 127.820312 95.992188 C 145.6875 95.992188 160.125 109.96875 160.125 127.828125 C 160.125 145.6875 145.6875 160.132812 127.820312 160.132812 C 109.960938 160.132812 95.992188 145.6875 95.992188 127.828125 C 95.992188 109.960938 109.960938 95.992188 127.820312 95.992188 Z M 127.820312 95.992188 "/>
</g>
</svg>
