<?xml version="1.0" encoding="UTF-8"?>
<svg xmlns="http://www.w3.org/2000/svg" xmlns:xlink="http://www.w3.org/1999/xlink" width="256" height="256" viewBox="0 0 256 256" version="1.1">
<g id="surface1">
<path style=" stroke:none;fill-rule:nonzero;fill:rgb(100%,100%,100%);fill-opacity:1;" d="M 128 146.648438 C 108.101562 146.648438 90.148438 154.851562 77.101562 167.898438 C 76.601562 168.375 76.3125 168.960938 76.3125 169.648438 C 76.3125 170.335938 76.601562 171.0625 77.101562 171.539062 L 93.4375 187.710938 C 94.414062 188.648438 95.9375 188.648438 96.914062 187.710938 C 104.851562 179.773438 115.875 174.875 128 174.875 C 140.125 174.875 151.148438 179.773438 159.085938 187.710938 C 160.0625 188.648438 161.585938 188.648438 162.5625 187.710938 L 178.898438 171.539062 C 179.398438 171.0625 179.6875 170.335938 179.6875 169.648438 C 179.6875 168.960938 179.398438 168.375 178.898438 167.898438 C 165.851562 154.851562 147.898438 146.648438 128 146.648438 Z M 128 193.101562 C 120.898438 193.101562 114.5625 196.085938 109.914062 200.710938 C 109 201.6875 109 203.226562 109.914062 204.210938 L 126.25 220.539062 C 127.226562 221.460938 128.773438 221.460938 129.75 220.539062 L 146.085938 204.210938 C 147 203.226562 147 201.6875 146.085938 200.710938 C 141.4375 196.085938 135.101562 193.101562 128 193.101562 Z M 128 193.101562 "/>
</g>
</svg>
