<?xml version="1.0" encoding="UTF-8"?>
<svg xmlns="http://www.w3.org/2000/svg" xmlns:xlink="http://www.w3.org/1999/xlink" width="256" height="256" viewBox="0 0 256 256" version="1.1">
<g id="surface1">
<path style=" stroke:none;fill-rule:nonzero;fill:rgb(100%,100%,100%);fill-opacity:1;" d="M 7.554688 160 L 40 160 C 44.171875 160 47.554688 163.578125 47.554688 168 L 47.554688 184 C 47.554688 188.421875 44.171875 192 40 192 L 7.554688 192 C 3.382812 192 0 188.421875 0 184 L 0 168 C 0 163.578125 3.382812 160 7.554688 160 Z M 7.554688 160 "/>
<path style=" stroke:none;fill-rule:nonzero;fill:rgb(100%,100%,100%);fill-opacity:1;" d="M 215.679688 160 L 247.945312 160 C 252.359375 160 255.945312 163.578125 255.945312 168 L 255.945312 184 C 255.945312 188.421875 252.359375 192 247.945312 192 L 215.679688 192 C 211.265625 192 207.679688 188.421875 207.679688 184 L 207.679688 168 C 207.679688 163.578125 211.265625 160 215.679688 160 Z M 215.679688 160 "/>
<path style=" stroke:none;fill-rule:nonzero;fill:rgb(100%,100%,100%);fill-opacity:1;" d="M 178.804688 102.664062 L 201.617188 79.851562 C 204.742188 76.726562 209.8125 76.726562 212.9375 79.851562 L 224.25 91.164062 C 227.375 94.289062 227.375 99.351562 224.25 102.476562 L 201.4375 125.289062 C 198.3125 128.414062 193.242188 128.414062 190.117188 125.289062 L 178.804688 113.976562 C 175.679688 110.851562 175.679688 105.789062 178.804688 102.664062 Z M 178.804688 102.664062 "/>
<path style=" stroke:none;fill-rule:nonzero;fill:rgb(100%,100%,100%);fill-opacity:1;" d="M 54.585938 125.289062 L 31.765625 102.476562 C 28.640625 99.351562 28.640625 94.289062 31.765625 91.164062 L 43.078125 79.851562 C 46.203125 76.726562 51.273438 76.726562 54.398438 79.851562 L 77.210938 102.664062 C 80.335938 105.789062 80.335938 110.851562 77.210938 113.976562 L 65.898438 125.289062 C 62.773438 128.414062 57.703125 128.414062 54.585938 125.289062 Z M 54.585938 125.289062 "/>
<path style=" stroke:none;fill-rule:nonzero;fill:rgb(100%,100%,100%);fill-opacity:1;" d="M 112 88 L 112 56 C 112 51.578125 115.578125 48 120 48 L 136 48 C 140.421875 48 144 51.578125 144 56 L 144 88 C 144 92.421875 140.421875 96 136 96 L 120 96 C 115.578125 96 112 92.421875 112 88 Z M 112 88 "/>
<path style=" stroke:none;fill-rule:nonzero;fill:rgb(100%,100%,100%);fill-opacity:1;" d="M 100 144 C 97.328125 144.140625 94.84375 145.875 94 148.171875 L 80.617188 183.648438 C 78.992188 187.382812 82.640625 192.09375 87.078125 191.992188 C 87.078125 191.992188 104.203125 191.992188 128.148438 191.992188 C 152.09375 191.992188 169.21875 191.992188 169.21875 191.992188 C 173.664062 192.085938 177.304688 187.382812 175.679688 183.648438 L 162.296875 148.171875 C 161.140625 145.085938 156.914062 143.273438 153.53125 144.414062 C 150.125 145.523438 140.40625 148.59375 128.148438 148.59375 C 115.898438 148.59375 106.171875 145.523438 102.773438 144.414062 C 101.890625 144.109375 100.945312 143.960938 100 144 Z M 100 144 "/>
</g>
</svg>
