<?xml version="1.0" encoding="UTF-8"?>
<svg xmlns="http://www.w3.org/2000/svg" xmlns:xlink="http://www.w3.org/1999/xlink" width="256" height="256" viewBox="0 0 256 256" version="1.1">
<g id="surface1">
<path style=" stroke:none;fill-rule:nonzero;fill:rgb(100%,100%,100%);fill-opacity:1;" d="M 95.679688 80.320312 C 86.867188 80.1875 79.820312 72.914062 79.945312 64.070312 C 79.945312 28.890625 108.695312 0.0390625 143.742188 0.0390625 C 178.78125 0.0390625 207.539062 28.898438 207.539062 64.070312 C 207.710938 69.90625 204.703125 75.375 199.695312 78.34375 C 194.6875 81.3125 188.460938 81.3125 183.453125 78.34375 C 178.445312 75.375 175.4375 69.90625 175.609375 64.070312 C 175.609375 46.21875 161.523438 32.085938 143.742188 32.085938 C 125.960938 32.085938 111.875 46.21875 111.875 64.070312 C 111.9375 68.398438 110.25 72.5625 107.203125 75.625 C 104.148438 78.6875 99.992188 80.382812 95.679688 80.320312 Z M 95.679688 80.320312 "/>
<path style=" stroke:none;fill-rule:nonzero;fill:rgb(100%,100%,100%);fill-opacity:1;" d="M 120 192 C 98.09375 192 79.992188 173.890625 79.992188 151.992188 C 79.992188 143.148438 87.15625 135.984375 96 135.984375 C 104.835938 135.984375 112.007812 143.148438 112.007812 151.992188 C 112.007812 156.59375 115.390625 159.984375 120 159.984375 C 124.609375 159.984375 128 156.59375 128 151.992188 C 128 143.148438 135.164062 135.984375 144.007812 135.984375 C 152.84375 135.984375 160.015625 143.148438 160.015625 151.992188 C 160.015625 173.890625 141.90625 192 120 192 Z M 120 192 "/>
<path style=" stroke:none;fill-rule:nonzero;fill:rgb(100%,100%,100%);fill-opacity:1;" d="M 140.476562 80 C 133.039062 81.679688 127.8125 88.375 128 96 L 128 151.5 C 127.921875 157.273438 130.953125 162.640625 135.9375 165.546875 C 140.914062 168.453125 147.085938 168.453125 152.0625 165.546875 C 157.046875 162.640625 160.078125 157.273438 160 151.5 L 160 95.984375 C 160.117188 91.054688 157.960938 86.351562 154.15625 83.226562 C 150.34375 80.101562 145.304688 78.898438 140.5 79.984375 Z M 140.476562 80 "/>
<path style=" stroke:none;fill-rule:nonzero;fill:rgb(100%,100%,100%);fill-opacity:1;" d="M 188.476562 48 C 181.039062 49.679688 175.8125 56.375 176 64 L 176 173 C 175.921875 178.773438 178.953125 184.140625 183.9375 187.046875 C 188.914062 189.953125 195.085938 189.953125 200.0625 187.046875 C 205.046875 184.140625 208.078125 178.773438 208 173 L 208 64.039062 C 208.117188 59.117188 205.960938 54.40625 202.15625 51.28125 C 198.34375 48.15625 193.304688 46.960938 188.5 48.039062 Z M 188.476562 48 "/>
<path style=" stroke:none;fill-rule:nonzero;fill:rgb(100%,100%,100%);fill-opacity:1;" d="M 92.476562 48 C 85.039062 49.679688 79.8125 56.375 80 64 L 80 150.5 C 79.921875 156.265625 82.953125 161.632812 87.9375 164.546875 C 92.914062 167.453125 99.085938 167.453125 104.0625 164.546875 C 109.046875 161.632812 112.078125 156.265625 112 150.5 L 112 63.9375 C 112.117188 59.015625 109.960938 54.304688 106.15625 51.179688 C 102.34375 48.054688 97.304688 46.859375 92.5 47.9375 Z M 92.476562 48 "/>
<path style=" stroke:none;fill-rule:nonzero;fill:rgb(100%,100%,100%);fill-opacity:1;" d="M 44.476562 64 C 37.039062 65.679688 31.8125 72.375 32 80 L 32 176 C 31.921875 181.773438 34.953125 187.140625 39.9375 190.046875 C 44.914062 192.953125 51.085938 192.953125 56.0625 190.046875 C 61.046875 187.140625 64.078125 181.773438 64 176 L 64 80 C 64.117188 75.070312 61.960938 70.367188 58.15625 67.242188 C 54.34375 64.117188 49.304688 62.921875 44.5 64 Z M 44.476562 64 "/>
<path style=" stroke:none;fill-rule:nonzero;fill:rgb(100%,100%,100%);fill-opacity:1;" d="M 189.4375 160 C 185.210938 160.671875 181.429688 163.015625 178.9375 166.5 L 136.0625 223.9375 L 103.5625 223.9375 L 60.5625 167.4375 C 57.71875 161.632812 51.65625 158.109375 45.210938 158.507812 C 38.757812 158.90625 33.179688 163.148438 31.0625 169.257812 C 28.953125 175.367188 30.726562 182.148438 35.5625 186.4375 L 83.5625 249.4375 C 86.515625 253.382812 91.117188 255.742188 96.039062 255.84375 L 144.039062 255.84375 C 149.164062 255.882812 154 253.460938 157.039062 249.34375 L 205.039062 185.34375 C 209.023438 180.09375 209.390625 172.945312 205.960938 167.328125 C 202.53125 161.703125 196.007812 158.757812 189.523438 159.898438 Z M 189.4375 160 "/>
</g>
</svg>
