<?xml version="1.0" encoding="UTF-8"?>
<svg xmlns="http://www.w3.org/2000/svg" xmlns:xlink="http://www.w3.org/1999/xlink" width="256" height="256" viewBox="0 0 256 256" version="1.1">
<g id="surface1">
<path style=" stroke:none;fill-rule:nonzero;fill:rgb(100%,100%,100%);fill-opacity:1;" d="M 95.273438 10.6875 C 90.9375 11.125 87.625 14.773438 87.601562 19.125 L 87.601562 138.0625 C 87.585938 140.75 88.8125 143.3125 90.9375 144.9375 L 129.476562 173.835938 C 132.710938 176.289062 137.226562 176.125 140.289062 173.460938 L 172.335938 145.148438 C 174.210938 143.523438 175.289062 141.148438 175.289062 138.664062 L 175.289062 72.023438 C 175.289062 67.226562 171.414062 63.375 166.625 63.375 C 161.851562 63.375 157.976562 67.226562 157.976562 72.023438 L 157.976562 134.914062 L 134.1875 155.960938 L 104.710938 133.75 L 104.710938 27.789062 L 180 27.789062 L 180 188.1875 L 133.023438 226.125 L 79.539062 190.164062 L 79.539062 73.976562 C 79.6875 70.835938 78.085938 67.875 75.375 66.273438 C 72.6875 64.664062 69.3125 64.664062 66.601562 66.273438 C 63.914062 67.875 62.3125 70.835938 62.4375 73.976562 L 62.4375 194.6875 C 62.4375 197.523438 63.851562 200.164062 66.1875 201.75 L 128.5 243.835938 C 131.625 245.960938 135.773438 245.8125 138.710938 243.4375 L 193.960938 198.8125 C 196.039062 197.210938 197.273438 194.75 197.289062 192.125 L 197.289062 19.125 C 197.25 14.414062 193.375 10.625 188.648438 10.6875 L 96.25 10.6875 C 95.9375 10.664062 95.601562 10.664062 95.273438 10.6875 Z M 95.273438 10.6875 "/>
</g>
</svg>
