<?xml version="1.0" encoding="UTF-8"?>
<svg xmlns="http://www.w3.org/2000/svg" xmlns:xlink="http://www.w3.org/1999/xlink" width="256" height="256" viewBox="0 0 256 256" version="1.1">
<g id="surface1">
<path style=" stroke:none;fill-rule:nonzero;fill:rgb(100%,100%,100%);fill-opacity:1;" d="M 192 48 C 165.6875 48 144 69.6875 144 96 L 144 160 C 144 169.140625 137.140625 176 128 176 L 32 176 L 32 208 L 128 208 C 154.3125 208 176 186.3125 176 160 L 176 96 C 176 86.859375 182.859375 80 192 80 L 240 80 L 240 48 Z M 192 48 "/>
<path style=" stroke:none;fill-rule:nonzero;fill:rgb(100%,100%,100%);fill-opacity:1;" d="M 62.078125 144 C 58.5 144.390625 55.148438 145.976562 52.578125 148.5 L 20.578125 180.5 L 9.578125 192 L 20.578125 203.5 L 52.578125 235.5 C 56.679688 239.664062 62.695312 241.3125 68.34375 239.8125 C 73.984375 238.320312 78.398438 233.90625 79.898438 228.257812 C 81.390625 222.617188 79.742188 216.59375 75.578125 212.5 L 54.9375 192.023438 L 75.4375 171.523438 C 80.601562 166.71875 82.015625 159.109375 78.929688 152.773438 C 75.835938 146.445312 68.960938 142.875 62 144 Z M 62.078125 144 "/>
<path style=" stroke:none;fill-rule:nonzero;fill:rgb(100%,100%,100%);fill-opacity:1;" d="M 62.078125 16 C 58.5 16.390625 55.148438 17.976562 52.578125 20.5 L 20.578125 52.5 L 9.578125 64 L 20.578125 75.5 L 52.578125 107.5 C 56.679688 111.664062 62.695312 113.3125 68.34375 111.8125 C 73.984375 110.320312 78.398438 105.90625 79.898438 100.257812 C 81.390625 94.617188 79.742188 88.59375 75.578125 84.5 L 54.9375 64.023438 L 75.4375 43.523438 C 80.601562 38.71875 82.015625 31.109375 78.929688 24.773438 C 75.835938 18.445312 68.960938 14.875 62 16 Z M 62.078125 16 "/>
<path style=" stroke:none;fill-rule:nonzero;fill:rgb(100%,100%,100%);fill-opacity:1;" d="M 128 48 C 131.671875 48 135.054688 48.703125 138.5 49.5 C 130.796875 58.320312 124.71875 68.34375 122 80 L 32 80 L 32 48 Z M 240 176 L 240 208 L 192 208 C 188.328125 208 184.945312 207.296875 181.5 206.5 C 189.203125 197.679688 195.28125 187.65625 198 176 Z M 240 176 "/>
<path style=" stroke:none;fill-rule:nonzero;fill:rgb(100%,100%,100%);fill-opacity:1;" d="M 80 144 L 64 144 L 64 160 L 80 160 Z M 80 144 "/>
<path style=" stroke:none;fill-rule:nonzero;fill:rgb(100%,100%,100%);fill-opacity:1;" d="M 80 224 L 64 224 L 64 240 L 80 240 Z M 80 224 "/>
<path style=" stroke:none;fill-rule:nonzero;fill:rgb(100%,100%,100%);fill-opacity:1;" d="M 80 16 L 64 16 L 64 32 L 80 32 Z M 80 16 "/>
<path style=" stroke:none;fill-rule:nonzero;fill:rgb(100%,100%,100%);fill-opacity:1;" d="M 80 96 L 64 96 L 64 112 L 80 112 Z M 80 96 "/>
</g>
</svg>
