<?xml version="1.0" encoding="UTF-8"?>
<svg xmlns="http://www.w3.org/2000/svg" xmlns:xlink="http://www.w3.org/1999/xlink" width="256" height="256" viewBox="0 0 256 256" version="1.1">
<g id="surface1">
<path style=" stroke:none;fill-rule:nonzero;fill:rgb(100%,100%,100%);fill-opacity:1;" d="M 193.835938 60.335938 L 193.835938 78.835938 L 161.835938 78.835938 L 161 79.335938 L 114.664062 115.335938 L 68.335938 79.335938 L 67.5 78.835938 L 19.164062 78.835938 L 19.164062 105.5 L 65.664062 105.5 L 96.5 129.5 L 65.664062 153.5 L 19.164062 153.5 L 19.164062 180.164062 L 67.5 180.164062 L 68.335938 179.664062 L 114.664062 143.664062 L 161 179.664062 L 161.835938 180.164062 L 193.835938 180.164062 L 193.835938 198.664062 L 198 195.664062 L 235.335938 169 L 238.335938 166.835938 L 235.335938 164.664062 L 198 138 L 193.835938 135 L 193.835938 153.5 L 163.664062 153.5 L 132.835938 129.5 L 163.664062 105.5 L 193.835938 105.5 L 193.835938 124 L 198 121 L 235.335938 94.335938 L 238.335938 92.164062 L 235.335938 90 L 198 63.335938 Z M 193.835938 60.335938 "/>
</g>
</svg>
