<?xml version="1.0" encoding="UTF-8"?>
<svg xmlns="http://www.w3.org/2000/svg" xmlns:xlink="http://www.w3.org/1999/xlink" width="256" height="256" viewBox="0 0 256 256" version="1.1">
<g id="surface1">
<path style=" stroke:none;fill-rule:nonzero;fill:rgb(100%,100%,100%);fill-opacity:1;" d="M 158 144 C 154.414062 144.390625 151.070312 145.976562 148.5 148.5 L 116.5 180.5 L 105.5 192 L 116.5 203.5 L 148.5 235.5 C 152.59375 239.664062 158.617188 241.3125 164.257812 239.8125 C 169.90625 238.320312 174.320312 233.90625 175.8125 228.257812 C 177.3125 222.617188 175.664062 216.59375 171.5 212.5 L 151.023438 192.023438 L 171.515625 171.539062 C 176.695312 166.734375 178.117188 159.101562 175 152.757812 C 171.890625 146.414062 164.984375 142.859375 158.015625 144.023438 Z M 158 144 "/>
<path style=" stroke:none;fill-rule:nonzero;fill:rgb(100%,100%,100%);fill-opacity:1;" d="M 16 144.15625 L 16 160.070312 C 16 186.390625 37.6875 208.070312 64 208.070312 L 80 208.070312 L 80 176.070312 L 64 176.070312 C 54.859375 176.070312 48 169.210938 48 160.070312 L 48 144.335938 Z M 144.125 80 L 192 80 C 201.140625 80 208 86.859375 208 96 L 208 160 C 208 169.140625 201.140625 176 192 176 L 128 176 L 128 208 L 192 208 C 218.3125 208 240 186.3125 240 160 L 240 96 C 240 69.6875 218.3125 48 192 48 L 144.296875 48 Z M 144.125 80 "/>
<path style=" stroke:none;fill-rule:nonzero;fill:rgb(100%,100%,100%);fill-opacity:1;" d="M 160 144 L 176 144 L 176 160 L 160 160 Z M 160 144 "/>
<path style=" stroke:none;fill-rule:nonzero;fill:rgb(100%,100%,100%);fill-opacity:1;" d="M 160 224 L 176 224 L 176 240 L 160 240 Z M 160 224 "/>
<path style=" stroke:none;fill-rule:nonzero;fill:rgb(100%,100%,100%);fill-opacity:1;" d="M 64 0 C 28.65625 0 0 28.65625 0 64 C 0 99.34375 28.65625 128 64 128 C 99.34375 128 128 99.34375 128 64 C 128 28.65625 99.34375 0 64 0 Z M 48 32 L 80 32 L 80 96 L 48 96 L 48 64 L 32 64 L 32 48 Z M 48 32 "/>
</g>
</svg>
