<?xml version="1.0" encoding="UTF-8"?>
<svg xmlns="http://www.w3.org/2000/svg" xmlns:xlink="http://www.w3.org/1999/xlink" width="256" height="256" viewBox="0 0 256 256" version="1.1">
<g id="surface1">
<path style=" stroke:none;fill-rule:nonzero;fill:rgb(100%,100%,100%);fill-opacity:1;" d="M 16 48 L 16 80 L 64 80 C 73.140625 80 80 86.859375 80 96 L 80 160 C 80 186.3125 101.6875 208 128 208 L 224 208 L 224 176 L 128 176 C 118.859375 176 112 169.140625 112 160 L 112 96 C 112 69.6875 90.3125 48 64 48 Z M 16 48 "/>
<path style=" stroke:none;fill-rule:nonzero;fill:rgb(100%,100%,100%);fill-opacity:1;" d="M 188.492188 144 C 182.523438 145.085938 177.679688 149.445312 175.984375 155.273438 C 174.289062 161.101562 176.039062 167.382812 180.492188 171.5 L 200.992188 191.984375 L 180.492188 212.476562 C 176.328125 216.578125 174.679688 222.59375 176.179688 228.242188 C 177.671875 233.890625 182.085938 238.296875 187.734375 239.796875 C 193.382812 241.289062 199.398438 239.648438 203.492188 235.476562 L 235.492188 203.476562 L 246.492188 191.976562 L 235.492188 180.476562 L 203.492188 148.476562 C 199.617188 144.476562 193.9375 142.78125 188.5 144 Z M 188.492188 144 "/>
<path style=" stroke:none;fill-rule:nonzero;fill:rgb(100%,100%,100%);fill-opacity:1;" d="M 188.492188 16 C 182.523438 17.085938 177.679688 21.445312 175.984375 27.273438 C 174.289062 33.101562 176.039062 39.382812 180.492188 43.5 L 200.992188 63.984375 L 180.492188 84.476562 C 176.328125 88.578125 174.679688 94.59375 176.179688 100.242188 C 177.671875 105.890625 182.085938 110.296875 187.734375 111.796875 C 193.382812 113.289062 199.398438 111.648438 203.492188 107.476562 L 235.492188 75.476562 L 246.492188 63.976562 L 235.492188 52.476562 L 203.492188 20.476562 C 199.617188 16.476562 193.9375 14.78125 188.5 16 Z M 188.492188 16 "/>
<path style=" stroke:none;fill-rule:nonzero;fill:rgb(100%,100%,100%);fill-opacity:1;" d="M 128 48 C 124.328125 48 120.945312 48.703125 117.5 49.5 C 125.203125 58.320312 131.28125 68.34375 134 80 L 224 80 L 224 48 Z M 16 176 L 16 208 L 64 208 C 67.671875 208 71.054688 207.296875 74.5 206.5 C 66.796875 197.679688 60.71875 187.65625 58 176 Z M 16 176 "/>
<path style=" stroke:none;fill-rule:nonzero;fill:rgb(100%,100%,100%);fill-opacity:1;" d="M 176 144 L 192 144 L 192 160 L 176 160 Z M 176 144 "/>
<path style=" stroke:none;fill-rule:nonzero;fill:rgb(100%,100%,100%);fill-opacity:1;" d="M 176 224 L 192 224 L 192 240 L 176 240 Z M 176 224 "/>
<path style=" stroke:none;fill-rule:nonzero;fill:rgb(100%,100%,100%);fill-opacity:1;" d="M 176 16 L 192 16 L 192 32 L 176 32 Z M 176 16 "/>
<path style=" stroke:none;fill-rule:nonzero;fill:rgb(100%,100%,100%);fill-opacity:1;" d="M 176 96 L 192 96 L 192 112 L 176 112 Z M 176 96 "/>
</g>
</svg>
