<?xml version="1.0" encoding="UTF-8"?>
<svg xmlns="http://www.w3.org/2000/svg" xmlns:xlink="http://www.w3.org/1999/xlink" width="256" height="256" viewBox="0 0 256 256" version="1.1">
<defs>
<clipPath id="clip1">
  <path d="M 16 88.226562 L 160.5 88.226562 L 160.5 208.5 L 16 208.5 Z M 16 88.226562 "/>
</clipPath>
</defs>
<g id="surface1">
<path style=" stroke:none;fill-rule:nonzero;fill:rgb(100%,100%,100%);fill-opacity:1;" d="M 88 15.84375 C 110.09375 15.84375 128 33.75 128 55.84375 L 128 136.046875 C 128 158.140625 110.09375 176.046875 88 176.046875 C 65.90625 176.046875 48 158.140625 48 136.046875 L 48 55.84375 C 48 33.75 65.90625 15.84375 88 15.84375 Z M 88 15.84375 "/>
<g clip-path="url(#clip1)" clip-rule="nonzero">
<path style=" stroke:none;fill-rule:nonzero;fill:rgb(100%,100%,100%);fill-opacity:1;" d="M 88.164062 -29.859375 C 48.367188 -29.859375 16.101562 2.601562 16.101562 42.640625 L 16.101562 135.640625 C 16.101562 175.679688 48.367188 208.140625 88.164062 208.140625 C 127.960938 208.140625 160.226562 175.679688 160.226562 135.640625 L 160.226562 42.640625 C 160.226562 2.601562 127.960938 -29.859375 88.164062 -29.859375 Z M 88.164062 -13.859375 C 119.398438 -13.859375 144.320312 11.21875 144.320312 42.640625 L 144.320312 135.640625 C 144.320312 167.070312 119.398438 192.140625 88.164062 192.140625 C 56.929688 192.140625 32.007812 167.070312 32.007812 135.640625 L 32.007812 42.640625 C 32.007812 11.21875 56.929688 -13.859375 88.164062 -13.859375 Z M 88.164062 -13.859375 "/>
</g>
<path style=" stroke:none;fill-rule:nonzero;fill:rgb(100%,100%,100%);fill-opacity:1;" d="M 32 88 C 32 92.421875 28.421875 96 24 96 C 19.578125 96 16 92.421875 16 88 C 16 83.578125 19.578125 80 24 80 C 28.421875 80 32 83.578125 32 88 Z M 32 88 "/>
<path style=" stroke:none;fill-rule:nonzero;fill:rgb(100%,100%,100%);fill-opacity:1;" d="M 160 88 C 160 92.421875 156.421875 96 152 96 C 147.578125 96 144 92.421875 144 88 C 144 83.578125 147.578125 80 152 80 C 156.421875 80 160 83.578125 160 88 Z M 160 88 "/>
<path style=" stroke:none;fill-rule:nonzero;fill:rgb(100%,100%,100%);fill-opacity:1;" d="M 30.078125 224 C 24.320312 224.304688 19.171875 227.671875 16.585938 232.828125 C 14.007812 237.984375 14.390625 244.125 17.59375 248.921875 C 20.796875 253.710938 26.328125 256.414062 32.078125 256 L 144.578125 256 C 150.351562 256.078125 155.71875 253.046875 158.625 248.0625 C 161.53125 243.085938 161.53125 236.914062 158.625 231.9375 C 155.71875 226.953125 150.351562 223.921875 144.578125 224 L 32.101562 224 C 31.429688 223.960938 30.765625 223.960938 30.101562 224 Z M 30.078125 224 "/>
<path style=" stroke:none;fill-rule:nonzero;fill:rgb(100%,100%,100%);fill-opacity:1;" d="M 16 240 L 160 240 L 160 256 L 16 256 Z M 16 240 "/>
<path style=" stroke:none;fill-rule:nonzero;fill:rgb(100%,100%,100%);fill-opacity:1;" d="M 64 192 L 112 192 L 112 256 L 64 256 Z M 64 192 "/>
<path style=" stroke:none;fill-rule:nonzero;fill:rgb(100%,100%,100%);fill-opacity:1;" d="M 239.84375 208.101562 C 239.84375 225.773438 225.515625 240.101562 207.84375 240.101562 C 190.171875 240.101562 175.84375 225.773438 175.84375 208.101562 C 175.84375 190.421875 190.171875 176.09375 207.84375 176.09375 C 225.515625 176.09375 239.84375 190.421875 239.84375 208.101562 Z M 239.84375 208.101562 "/>
<path style=" stroke:none;fill-rule:nonzero;fill:rgb(100%,100%,100%);fill-opacity:1;" d="M 239.84375 128.101562 C 239.84375 145.773438 225.515625 160.101562 207.84375 160.101562 C 190.171875 160.101562 175.84375 145.773438 175.84375 128.101562 C 175.84375 110.421875 190.171875 96.09375 207.84375 96.09375 C 225.515625 96.09375 239.84375 110.421875 239.84375 128.101562 Z M 239.84375 128.101562 "/>
<path style=" stroke:none;fill-rule:nonzero;fill:rgb(100%,100%,100%);fill-opacity:1;" d="M 239.84375 48.101562 C 239.84375 65.773438 225.515625 80.101562 207.84375 80.101562 C 190.171875 80.101562 175.84375 65.773438 175.84375 48.101562 C 175.84375 30.421875 190.171875 16.09375 207.84375 16.09375 C 225.515625 16.09375 239.84375 30.421875 239.84375 48.101562 Z M 239.84375 48.101562 "/>
</g>
</svg>
