<?xml version="1.0" encoding="UTF-8"?>
<svg xmlns="http://www.w3.org/2000/svg" xmlns:xlink="http://www.w3.org/1999/xlink" width="256" height="256" viewBox="0 0 256 256" version="1.1">
<g id="surface1">
<path style=" stroke:none;fill-rule:nonzero;fill:rgb(96.078431%,47.45098%,0%);fill-opacity:1;" d="M 48 16 C 16 16 16 48 16 48 L 16 208 C 16 240 48 240 48 240 L 208 238.5 C 240 238.203125 240 208 240 208 L 240 48 C 240 16 208 16 208 16 Z M 128 48.5 C 157.03125 48.5 186.0625 58.390625 208 78.5 L 208 96 L 179 96 C 149.507812 73.4375 106.492188 73.4375 77 96 L 48 96 L 48 78.5 C 69.9375 58.390625 98.96875 48.5 128 48.5 Z M 128 97.5 C 144.695312 97.5 161.28125 102.898438 174 113.5 C 174.695312 113.796875 175.359375 114.132812 176 114.5 L 176 128 L 80 128 L 80 115 C 80.617188 114.453125 81.289062 113.953125 82 113.5 C 94.71875 102.898438 111.304688 97.5 128 97.5 Z M 128 144 C 145.671875 144 160 158.328125 160 176 C 160 193.671875 145.671875 208 128 208 C 110.328125 208 96 193.671875 96 176 C 96 158.328125 110.328125 144 128 144 Z M 128 144 "/>
</g>
</svg>
