<?xml version="1.0" encoding="UTF-8"?>
<svg xmlns="http://www.w3.org/2000/svg" xmlns:xlink="http://www.w3.org/1999/xlink" width="256" height="256" viewBox="0 0 256 256" version="1.1">
<g id="surface1">
<path style=" stroke:none;fill-rule:nonzero;fill:rgb(100%,100%,100%);fill-opacity:1;" d="M 32.992188 0 C 14.578125 0 -0.0078125 14.585938 -0.0078125 33 L -0.0078125 223 C -0.0078125 241.414062 14.578125 256 32.992188 256 L 222.992188 256 C 241.40625 256 255.992188 241.414062 255.992188 223 L 255.992188 33 C 255.992188 14.585938 241.40625 0 222.992188 0 Z M 97.992188 48.5 L 159.492188 48.5 C 159.539062 48.5 159.4375 49 159.492188 49 C 167.929688 48.671875 176.648438 50.210938 183.492188 56.5 C 190.125 62.59375 192.984375 72.617188 192.492188 82 L 192.992188 82 L 192.992188 96 L 160.992188 96 L 160.992188 80.5 C 160.710938 80.46875 161.046875 80.46875 160.492188 80.5 L 97.992188 80.5 C 97.546875 80.5 97.640625 80.53125 97.492188 80.5 C 97.390625 80.5625 97.023438 80.453125 96.992188 80.5 C 96.875 80.859375 97.101562 81.242188 96.992188 81.5 L 96.992188 175 C 96.609375 174.648438 96.9375 175.96875 96.992188 176 L 159.492188 176 C 159.601562 175.6875 159.960938 175.742188 159.992188 176 C 160 176.125 159.992188 175.109375 159.992188 175.5 L 159.992188 144.5 L 127.992188 144.5 L 127.992188 112.5 L 191.992188 112.5 L 191.992188 175.5 C 191.992188 184.5 188.359375 191.492188 182.992188 197.5 C 177.9375 203.15625 169.359375 207.609375 159.492188 207.5 L 159.492188 208 L 96.992188 208 C 86.992188 208 81.085938 204.140625 75.484375 199 C 70.1875 194.132812 65.1875 186.359375 65.484375 176 C 65.492188 175.96875 64.984375 176.03125 64.984375 176 L 64.984375 79 C 65.984375 72.007812 68.273438 64.773438 73.984375 58.5 C 79.703125 52.226562 89.125 48.5 97.984375 48.5 Z M 97.992188 48.5 "/>
</g>
</svg>
