<?xml version="1.0" encoding="UTF-8"?>
<svg xmlns="http://www.w3.org/2000/svg" xmlns:xlink="http://www.w3.org/1999/xlink" width="256" height="256" viewBox="0 0 256 256" version="1.1">
<g id="surface1">
<path style=" stroke:none;fill-rule:nonzero;fill:rgb(100%,100%,100%);fill-opacity:1;" d="M 33.007812 0 C 14.59375 0 0.0078125 14.585938 0.0078125 33 L 0.0078125 223 C 0.0078125 241.414062 14.59375 256 33.007812 256 L 223.007812 256 C 241.421875 256 256.007812 241.414062 256.007812 223 L 256.007812 33 C 256.007812 14.601562 241.414062 0.0390625 223.015625 0.0390625 L 33.015625 0.0390625 Z M 32.007812 48 L 96.007812 48 C 101.453125 48.132812 106.453125 51.023438 109.289062 55.679688 C 112.117188 60.328125 112.390625 66.101562 110.007812 71 L 88.007812 115.5 C 93.679688 117.34375 99.992188 118.625 103.507812 122.5 C 108.828125 128.359375 112.007812 135.460938 112.007812 144 L 112.007812 176 C 112.007812 193.796875 97.492188 208 80.007812 208 L 32.007812 208 L 32.007812 176 L 80.007812 176 L 80.007812 144 L 64.007812 144 C 58.5625 143.867188 53.5625 140.976562 50.726562 136.320312 C 47.898438 131.671875 47.625 125.898438 50.007812 121 L 70.007812 80 L 32.007812 80 Z M 161.007812 48.5 L 191.507812 48.5 C 191.554688 48.5 191.460938 49 191.507812 49 C 199.945312 48.671875 208.671875 50.210938 215.507812 56.5 C 222.148438 62.59375 225 72.617188 224.507812 82 L 225.007812 82 L 225.007812 96 L 193.007812 96 L 193.007812 80.5 C 192.726562 80.46875 193.054688 80.46875 192.507812 80.5 L 161.007812 80.5 C 160.570312 80.5 160.65625 80.53125 160.515625 80.5 C 160.414062 80.5625 160.046875 80.453125 160.015625 80.5 C 159.898438 80.859375 160.125 81.242188 160.015625 81.5 L 160.015625 175 C 159.632812 174.648438 160.015625 176 160.015625 176 L 191.515625 176 C 191.625 175.6875 191.984375 175.742188 192.015625 176 C 192.023438 176.125 192.015625 175.109375 192.015625 175.5 L 192.015625 144.5 L 176.015625 144.5 L 176.015625 112.5 L 224.015625 112.5 L 224.015625 175.5 C 224.015625 184.5 220.382812 191.492188 215.015625 197.5 C 209.960938 203.15625 201.382812 207.609375 191.515625 207.5 L 191.515625 208 L 160.015625 208 C 150.015625 208 144.109375 204.140625 138.515625 199 C 133.21875 194.132812 128.210938 186.359375 128.515625 176 C 128.515625 175.96875 128.007812 176.03125 128.015625 176 L 128.015625 79 C 129.015625 72.007812 131.296875 64.773438 137.015625 58.5 C 142.726562 52.226562 152.148438 48.5 161.015625 48.5 Z M 161.007812 48.5 "/>
</g>
</svg>
