<?xml version="1.0" encoding="UTF-8"?>
<svg xmlns="http://www.w3.org/2000/svg" xmlns:xlink="http://www.w3.org/1999/xlink" width="256" height="256" viewBox="0 0 256 256" version="1.1">
<g id="surface1">
<path style=" stroke:none;fill-rule:nonzero;fill:rgb(100%,100%,100%);fill-opacity:1;" d="M 32.992188 0 C 14.59375 0 0 14.5625 0 32.960938 L 0 222.960938 C 0 241.359375 14.59375 255.921875 32.992188 255.921875 L 222.992188 255.921875 C 241.40625 255.921875 256 241.359375 256 222.960938 L 256 32.960938 C 256 14.5625 241.40625 0 223.007812 0 Z M 63.992188 48 L 95.992188 48 L 95.992188 176 C 95.984375 175.992188 96.492188 176 96.492188 176 L 159.492188 176 C 159.601562 175.6875 159.960938 175.742188 159.992188 176 C 160.007812 176.125 159.992188 175.117188 159.992188 175.5 L 160.007812 47.984375 L 192.007812 47.984375 L 192.007812 175.484375 C 192.007812 184.484375 188.375 191.476562 183.007812 197.484375 C 177.953125 203.140625 169.375 207.59375 159.507812 207.484375 L 159.507812 207.984375 L 96.007812 207.984375 C 86.007812 207.984375 80.101562 204.125 74.507812 198.984375 C 69.210938 194.109375 64.203125 186.34375 64.507812 175.984375 L 64.007812 175.984375 L 64.007812 47.984375 Z M 63.992188 48 "/>
</g>
</svg>
