<?xml version="1.0" encoding="UTF-8"?>
<svg xmlns="http://www.w3.org/2000/svg" xmlns:xlink="http://www.w3.org/1999/xlink" width="256" height="256" viewBox="0 0 256 256" version="1.1">
<g id="surface1">
<path style=" stroke:none;fill-rule:nonzero;fill:rgb(100%,100%,100%);fill-opacity:1;" d="M 32.960938 0 C 14.546875 0 -0.0390625 14.585938 -0.0390625 33 L -0.0390625 223 C -0.0390625 241.414062 14.546875 256 32.960938 256 L 222.960938 256 C 241.375 256 255.960938 241.414062 255.960938 223 L 255.960938 33 C 255.960938 14.585938 241.375 0 222.960938 0 Z M 95.960938 48 L 191.960938 48 L 191.960938 80 L 95.960938 80 L 95.960938 112 L 191.960938 112 L 191.960938 144 L 95.960938 144 L 95.960938 176 C 95.953125 175.992188 96.460938 176 96.460938 176 L 191.960938 176 L 191.960938 208 L 95.960938 208 C 85.960938 208 80.054688 204.140625 74.460938 199 C 69.164062 194.132812 64.15625 186.367188 64.460938 176 L 63.960938 176 L 63.960938 80 L 64.460938 80 C 64.25 72.398438 66.21875 64.007812 71.960938 57.5 C 77.617188 51.085938 86.90625 48.171875 95.960938 48.5 Z M 95.960938 48 "/>
</g>
</svg>
