<?xml version="1.0" encoding="UTF-8"?>
<svg xmlns="http://www.w3.org/2000/svg" xmlns:xlink="http://www.w3.org/1999/xlink" width="256" height="256" viewBox="0 0 256 256" version="1.1">
<g id="surface1">
<path style=" stroke:none;fill-rule:nonzero;fill:rgb(100%,100%,100%);fill-opacity:1;" d="M 96 16 C 79.851562 16.078125 80 32 80 32 L 80 208 C 80 224 96 224 96 224 L 160 224 C 176 224 176 208 176 208 L 176 80 C 176.015625 71.132812 168.867188 64 160 64 L 112 64 L 112 32 C 112 32 111.859375 16.085938 96 16 Z M 96 80 L 160 80 L 160 128.5 L 96 128 Z M 96 144 L 112 144 L 112 160 L 128 160 L 128 144 L 144 144 L 144 160 L 160 160 L 160 176 L 144 176 L 144 192 L 160 192 L 160 208 L 144 208 L 144 192 L 128 192 L 128 208 L 112 208 L 112 192 L 96 192 L 96 176 L 112 176 L 112 160 L 96 160 Z M 112 176 L 112 192 L 128 192 L 128 176 Z M 128 176 L 144 176 L 144 160 L 128 160 Z M 128 176 "/>
<path style=" stroke:none;fill-rule:nonzero;fill:rgb(100%,100%,100%);fill-opacity:1;" d="M 256 80 L 256 96 C 256 100.109375 253.921875 104.453125 251 107.5 L 230.523438 127.976562 L 251.015625 148.476562 C 253.945312 151.523438 256.015625 155.867188 256.015625 159.976562 L 256.015625 175.976562 L 240.015625 175.976562 C 235.070312 175.976562 231.179688 174.53125 228.015625 171.476562 L 185.460938 127.960938 L 228.015625 84.4375 C 231.21875 81.398438 235.0625 79.960938 240.015625 79.960938 L 256.015625 79.960938 Z M 256 80 "/>
<path style=" stroke:none;fill-rule:nonzero;fill:rgb(100%,100%,100%);fill-opacity:1;" d="M 0 80 L 0 96 C 0 100.109375 2.078125 104.453125 5 107.5 L 25.5 128 L 5 148.5 C 2.078125 151.546875 0 155.890625 0 160 L 0 176 L 16 176 C 20.953125 176 24.835938 174.554688 28 171.5 L 70.5625 127.976562 L 28 84.460938 C 24.796875 81.421875 20.960938 79.976562 16 79.976562 L 0 79.976562 Z M 0 80 "/>
</g>
</svg>
