<?xml version="1.0" encoding="UTF-8"?>
<svg xmlns="http://www.w3.org/2000/svg" xmlns:xlink="http://www.w3.org/1999/xlink" width="256" height="256" viewBox="0 0 256 256" version="1.1">
<g id="surface1">
<path style=" stroke:none;fill-rule:nonzero;fill:rgb(100%,100%,100%);fill-opacity:1;" d="M 160 208 C 160 225.671875 145.679688 240 128 240 C 110.328125 240 96 225.671875 96 208 C 96 190.328125 110.328125 176 128 176 C 145.679688 176 160 190.328125 160 208 Z M 160 208 "/>
<path style=" stroke:none;fill-rule:nonzero;fill:rgb(100%,100%,100%);fill-opacity:1;" d="M 128 32 C 82.976562 32 45.25 48 16 73.367188 L 16 96 L 39.6875 96 C 64 75.765625 91.203125 64 128 64 C 164.796875 64 192 76.46875 216.3125 96 L 240 96 L 240 73.898438 C 213.75 50.445312 173.023438 32 128 32 Z M 128 32 "/>
<path style=" stroke:none;fill-rule:nonzero;fill:rgb(100%,100%,100%);fill-opacity:1;" d="M 128 80 C 93.335938 80 63.679688 91.820312 48 112 L 48 128 L 80 128 C 92.617188 118.296875 108.140625 112 128 112 C 147.859375 112 163.507812 118.296875 176 128 L 208 128 L 208 112 C 192.085938 92.4375 162.023438 80 128 80 Z M 128 80 "/>
<path style=" stroke:none;fill-rule:nonzero;fill:rgb(100%,100%,100%);fill-opacity:1;" d="M 128 128 C 107.882812 128 92.546875 132.984375 80 144 L 80 160 L 176 160 L 176 144 C 162.609375 133.25 148.117188 128 128 128 Z M 128 128 "/>
</g>
</svg>
