<?xml version="1.0" encoding="UTF-8"?>
<svg xmlns="http://www.w3.org/2000/svg" xmlns:xlink="http://www.w3.org/1999/xlink" width="256" height="256" viewBox="0 0 256 256" version="1.1">
<g id="surface1">
<path style=" stroke:none;fill-rule:nonzero;fill:rgb(100%,100%,100%);fill-opacity:1;" d="M 112 160 L 112 208 L 144 208 L 144 160 Z M 112 160 "/>
<path style=" stroke:none;fill-rule:nonzero;fill:rgb(100%,100%,100%);fill-opacity:1;" d="M 32 208 L 32 240 L 224 240 L 224 208 Z M 32 208 "/>
<path style=" stroke:none;fill-rule:nonzero;fill:rgb(100%,100%,100%);fill-opacity:1;" d="M 64 80 L 192 80 L 192 176 L 64 176 Z M 64 80 "/>
<path style=" stroke:none;fill-rule:nonzero;fill:rgb(100%,100%,100%);fill-opacity:1;" d="M 128 16 C 101.679688 16 80 37.679688 80 64 L 80 112 L 176 112 L 176 64 C 176 37.679688 154.320312 16 128 16 Z M 128 48 C 137.023438 48 144 54.976562 144 64 L 144 80 L 112 80 L 112 64 C 112 54.976562 118.976562 48 128 48 Z M 128 48 "/>
</g>
</svg>
