<?xml version="1.0" encoding="UTF-8"?>
<svg xmlns="http://www.w3.org/2000/svg" xmlns:xlink="http://www.w3.org/1999/xlink" width="256" height="256" viewBox="0 0 256 256" version="1.1">
<g id="surface1">
<path style=" stroke:none;fill-rule:nonzero;fill:rgb(100%,100%,100%);fill-opacity:1;" d="M 80 112 C 75.046875 112 70.164062 113.445312 67 116.5 L 9.398438 176.023438 L 67.898438 235.523438 C 71.0625 238.578125 74.945312 240.023438 79.898438 240.023438 L 95.898438 240.023438 L 95.898438 224.023438 C 95.898438 219.914062 93.828125 215.5625 90.898438 212.523438 L 70.421875 192.039062 L 143.921875 192.039062 C 152.375 192.15625 159.921875 184.492188 159.921875 176.039062 C 159.921875 167.585938 152.375 159.921875 143.921875 160.039062 L 69.921875 160.039062 L 89.421875 139.539062 C 92.34375 136.5 95.921875 132.148438 95.921875 128.039062 L 95.921875 112.039062 Z M 80 112 "/>
<path style=" stroke:none;fill-rule:nonzero;fill:rgb(100%,100%,100%);fill-opacity:1;" d="M 185.4375 144 C 190.390625 144 195.273438 142.554688 198.4375 139.5 L 256.039062 79.976562 L 197.539062 20.476562 C 194.375 17.421875 190.492188 15.976562 185.539062 15.976562 L 169.539062 15.976562 L 169.539062 31.976562 C 169.539062 36.085938 171.617188 40.4375 174.539062 43.476562 L 195.039062 63.976562 L 112.039062 63.976562 C 103.585938 63.867188 96.039062 71.523438 96.039062 79.976562 C 96.039062 88.429688 103.585938 96.101562 112.039062 95.976562 L 195.539062 95.976562 L 176.039062 116.476562 C 173.117188 119.523438 169.539062 123.867188 169.539062 127.976562 L 169.539062 143.976562 Z M 185.4375 144 "/>
</g>
</svg>
