<?xml version="1.0" encoding="UTF-8"?>
<svg xmlns="http://www.w3.org/2000/svg" xmlns:xlink="http://www.w3.org/1999/xlink" width="256" height="256" viewBox="0 0 256 256" version="1.1">
<g id="surface1">
<path style=" stroke:none;fill-rule:nonzero;fill:rgb(74.509804%,74.509804%,74.509804%);fill-opacity:1;" d="M 32 64 C 24 64 16 72 16 80 L 16 144 C 16 152 24 160 32 160 L 48 160 L 48 128 L 240 128.0625 L 240 80 C 240 72 232 64 224 64 Z M 32 64 "/>
<path style=" stroke:none;fill-rule:nonzero;fill:rgb(74.509804%,74.509804%,74.509804%);fill-opacity:1;" d="M 64 16 L 64 48 L 192 48 L 192 16 Z M 64 16 "/>
<path style=" stroke:none;fill-rule:nonzero;fill:rgb(74.509804%,74.509804%,74.509804%);fill-opacity:1;" d="M 64 144 L 64 224 L 128 224 L 127.90625 144 Z M 64 144 "/>
<path style=" stroke:none;fill-rule:nonzero;fill:rgb(93.72549%,16.078431%,16.078431%);fill-opacity:1;" d="M 200 144 C 169.070312 144 144 169.070312 144 200 C 144 230.929688 169.070312 256 200 256 C 230.929688 256 256 230.929688 256 200 C 256 169.070312 230.929688 144 200 144 Z M 160 191.5 L 240 191.5 L 240 208 L 160 208 Z M 160 191.5 "/>
<path style=" stroke:none;fill-rule:nonzero;fill:rgb(100%,100%,100%);fill-opacity:1;" d="M 64.867188 184.082031 L 64.867188 144.488281 L 127.78125 144.488281 L 127.78125 223.671875 L 64.867188 223.671875 Z M 64.867188 184.082031 "/>
<path style=" stroke:none;fill-rule:nonzero;fill:rgb(100%,100%,100%);fill-opacity:1;" d="M 26.226562 158.117188 C 24.367188 157.304688 21.4375 154.800781 19.71875 152.546875 L 16.59375 148.453125 L 16.59375 75.4375 L 19.722656 71.339844 C 25.492188 63.773438 19.453125 64.152344 129.335938 64.46875 C 228.039062 64.757812 228.519531 64.769531 231.570312 67.03125 C 233.25 68.277344 235.726562 70.914062 237.070312 72.882812 C 239.433594 76.355469 239.511719 77.296875 239.511719 102.433594 L 239.511719 128.398438 L 48.054688 127.671875 L 47.453125 159.671875 L 38.53125 159.632812 C 33.5 159.609375 28.140625 158.945312 26.226562 158.117188 Z M 26.226562 158.117188 "/>
<path style=" stroke:none;fill-rule:nonzero;fill:rgb(100%,100%,100%);fill-opacity:1;" d="M 64.867188 32.21875 L 64.867188 16.488281 L 191.78125 16.488281 L 191.78125 47.945312 L 64.867188 47.945312 Z M 64.867188 32.21875 "/>
</g>
</svg>
