<?xml version="1.0" encoding="UTF-8"?>
<svg xmlns="http://www.w3.org/2000/svg" xmlns:xlink="http://www.w3.org/1999/xlink" width="256" height="256" viewBox="0 0 256 256" version="1.1">
<g id="surface1">
<path style=" stroke:none;fill-rule:nonzero;fill:rgb(100%,100%,100%);fill-opacity:1;" d="M 32 64 C 24 64 16 72 16 80 L 16 144 C 16 152 24 160 32 160 L 48 160 L 48 128 L 208 128 L 208 160 L 224 160 C 232 160 240 152 240 144 L 240 80 C 240 72 232 64 224 64 Z M 32 64 "/>
<path style=" stroke:none;fill-rule:nonzero;fill:rgb(100%,100%,100%);fill-opacity:1;" d="M 64 16 L 64 48 L 192 48 L 192 16 Z M 64 16 "/>
<path style=" stroke:none;fill-rule:nonzero;fill:rgb(100%,100%,100%);fill-opacity:1;" d="M 64 144 L 64 224 L 192 224 L 192 144 Z M 111.851562 159.96875 L 144.320312 160.148438 L 144.148438 176.148438 L 176.203125 175.96875 L 128.523438 207.96875 L 80.046875 175.96875 L 112.070312 176.148438 Z M 111.851562 159.96875 "/>
</g>
</svg>
