<?xml version="1.0" encoding="UTF-8"?>
<svg xmlns="http://www.w3.org/2000/svg" xmlns:xlink="http://www.w3.org/1999/xlink" width="256" height="256" viewBox="0 0 256 256" version="1.1">
<g id="surface1">
<path style=" stroke:none;fill-rule:nonzero;fill:rgb(100%,100%,100%);fill-opacity:1;" d="M 124 16 C 96.304688 17.382812 69.328125 30.726562 51.5 54.5 C 45.554688 62.421875 41.132812 71.101562 38 80 L 73.5 80 C 74.773438 77.8125 75.945312 75.578125 77.5 73.5 C 98.820312 45.070312 138.570312 39.679688 167 61 C 195.429688 82.320312 200.828125 122.070312 179.5 150.5 C 174.351562 157.375 167.773438 162.8125 160.5 167 L 160.5 144 L 144.0625 144 L 144.5 224 L 208.5 224 C 209.5 224.09375 210.507812 224.09375 211.5 224 L 224.5 224 L 224.5 211 C 224.882812 209.53125 225.046875 208.015625 225 206.5 C 224.875 205.820312 224.710938 205.15625 224.5 204.5 C 222.898438 197.34375 215.828125 191.820312 208.5 192 L 181.5 192 C 190.75 185.882812 198.820312 178.414062 205.5 169.5 C 219.367188 151.007812 225.539062 128.992188 224.5 107.5 C 224.359375 104.429688 223.9375 101.546875 223.5 98.5 C 220.023438 74.148438 207.132812 50.851562 186 35 C 167.515625 21.132812 145.539062 14.921875 124 16 Z M 124 16 "/>
<path style=" stroke:none;fill-rule:nonzero;fill:rgb(100%,100%,100%);fill-opacity:1;" d="M 64.476562 111.039062 C 47.0625 111.039062 32.476562 125.101562 32.476562 142.539062 L 32.476562 168.039062 L 48.476562 168.039062 L 48.476562 142.539062 C 48.476562 133.71875 55.742188 127.039062 64.476562 127.039062 C 73.21875 127.039062 79.976562 133.71875 79.976562 142.539062 L 79.976562 167.539062 L 95.976562 167.539062 L 95.976562 142.539062 C 95.976562 125.101562 81.898438 111.039062 64.476562 111.039062 Z M 64.476562 111.039062 "/>
<path style=" stroke:none;fill-rule:nonzero;fill:rgb(100%,100%,100%);fill-opacity:1;" d="M 17.117188 160 L 112.578125 160 L 112.578125 225 L 17.117188 225 Z M 17.117188 160 "/>
</g>
</svg>
