<?xml version="1.0" encoding="UTF-8"?>
<svg xmlns="http://www.w3.org/2000/svg" xmlns:xlink="http://www.w3.org/1999/xlink" width="256" height="256" viewBox="0 0 256 256" version="1.1">
<g id="surface1">
<path style=" stroke:none;fill-rule:nonzero;fill:rgb(100%,100%,100%);fill-opacity:1;" d="M 128.046875 16.15625 C 123.796875 16.140625 120.070312 17.773438 117.414062 19.992188 C 114.757812 22.210938 112.976562 25.132812 111.179688 27.992188 C 107.585938 33.71875 104.898438 40.289062 102.132812 47.25 C 99.367188 54.210938 96.578125 61.453125 94.054688 66.96875 C 91.539062 72.484375 88.53125 76.226562 88.320312 76.375 C 88.109375 76.515625 83.40625 78.242188 77.1875 78.804688 C 70.96875 79.359375 63.085938 79.585938 55.375 79.914062 C 47.664062 80.234375 39.851562 80.492188 33.085938 81.960938 C 29.703125 82.695312 26.4375 83.585938 23.421875 85.3125 C 20.398438 87.046875 17.546875 89.898438 16.21875 93.796875 C 14.890625 97.695312 15.429688 101.898438 16.796875 105.023438 C 18.164062 108.148438 20.421875 110.859375 22.6875 113.398438 C 27.226562 118.460938 32.8125 123.085938 38.820312 127.773438 C 44.820312 132.460938 51.242188 136.71875 55.898438 140.734375 C 60.554688 144.75 63.171875 148.859375 63.25 149.101562 C 63.328125 149.335938 63.75 154.460938 62.375 160.335938 C 61 166.210938 58.796875 173.320312 56.726562 180.5 C 54.664062 187.679688 52.703125 194.929688 52.0625 201.59375 C 51.742188 204.929688 51.375 208.109375 52.148438 211.421875 C 52.914062 214.726562 55.101562 218.304688 58.53125 220.726562 C 61.960938 223.15625 65.71875 223.734375 69.226562 223.445312 C 72.726562 223.164062 76.1875 222.320312 79.382812 221.03125 C 85.78125 218.4375 92.210938 214.171875 98.6875 210.109375 C 105.164062 206.046875 111.617188 201.765625 117.015625 198.734375 C 122.414062 195.703125 127.390625 194.4375 127.648438 194.4375 C 127.90625 194.4375 132.5 195.960938 137.875 199.03125 C 143.242188 202.109375 149.476562 206.476562 155.914062 210.585938 C 162.351562 214.703125 169.03125 218.546875 175.398438 221.195312 C 178.585938 222.515625 181.625 223.609375 185.125 223.921875 C 188.625 224.234375 192.796875 223.429688 196.25 221.023438 C 199.703125 218.625 201.679688 215.390625 202.476562 212.085938 C 203.273438 208.78125 203.164062 205.125 202.875 201.789062 C 202.296875 195.117188 200.328125 187.960938 198.328125 180.765625 C 196.328125 173.570312 194.140625 166.585938 192.820312 160.695312 C 191.5 154.804688 191.671875 149.703125 191.757812 149.46875 C 191.835938 149.234375 194.757812 145.429688 199.445312 141.453125 C 204.132812 137.476562 210.257812 132.851562 216.304688 128.21875 C 222.34375 123.578125 228.578125 119.070312 233.148438 114.046875 C 235.4375 111.53125 237.023438 108.695312 238.414062 105.578125 C 239.804688 102.46875 240.585938 98.71875 239.289062 94.8125 C 237.992188 90.898438 234.953125 88.203125 231.945312 86.445312 C 228.9375 84.695312 226.078125 83.539062 222.695312 82.78125 C 215.945312 81.25 208.078125 80.539062 200.367188 80.148438 C 192.65625 79.765625 185.234375 79.523438 179.023438 78.921875 C 172.804688 78.3125 167.570312 76.820312 167.367188 76.671875 C 167.15625 76.53125 164.421875 72.890625 161.953125 67.359375 C 159.476562 61.828125 156.726562 54.75 154.023438 47.765625 C 151.320312 40.789062 148.664062 33.9375 145.125 28.1875 C 143.351562 25.3125 141.390625 22.523438 138.75 20.28125 C 136.117188 18.046875 132.304688 16.171875 128.046875 16.15625 Z M 128.1875 32.070312 C 128.859375 32.640625 129.890625 34.242188 131.132812 36.257812 C 133.609375 40.28125 136.421875 46.289062 139.03125 53.039062 C 141.648438 59.78125 144.140625 67.21875 146.96875 73.5625 C 149.804688 79.90625 152 85.304688 157.773438 89.382812 C 163.546875 93.460938 170.101562 94.148438 177.21875 94.84375 C 184.335938 95.539062 192.078125 95.695312 199.539062 96.0625 C 206.992188 96.4375 214.226562 97.179688 218.953125 98.25 C 221.3125 98.78125 223.039062 99.164062 223.8125 99.617188 C 223.453125 100.414062 222.539062 102.09375 220.9375 103.851562 C 217.742188 107.367188 212.335938 111.648438 206.5 116.132812 C 200.65625 120.609375 194.046875 125.289062 188.671875 129.84375 C 183.296875 134.398438 178.4375 138.359375 176.195312 144.914062 C 173.953125 151.476562 175.335938 157.34375 176.84375 164.09375 C 178.359375 170.84375 180.914062 178.148438 182.84375 185.101562 C 184.78125 192.0625 186.476562 198.65625 186.882812 203.320312 C 187.070312 205.445312 186.609375 207.078125 186.4375 208 C 185.476562 207.875 183.617188 207.484375 181.578125 206.640625 C 177.125 204.789062 171.234375 201.390625 165.007812 197.414062 C 158.789062 193.4375 152.148438 188.921875 145.992188 185.398438 C 139.84375 181.875 134.671875 179.023438 127.515625 179 C 120.359375 178.96875 114.84375 181.757812 108.65625 185.234375 C 102.46875 188.703125 96.109375 193.15625 89.84375 197.078125 C 83.585938 201.007812 77.421875 204.289062 72.953125 206.109375 C 70.71875 207.015625 69.015625 207.476562 68.117188 207.546875 C 67.953125 206.625 67.875 204.984375 68.078125 202.867188 C 68.523438 198.210938 70.289062 191.53125 72.28125 184.585938 C 74.273438 177.648438 76.34375 170.226562 77.921875 163.484375 C 79.492188 156.75 80.90625 150.875 78.726562 144.296875 C 76.539062 137.71875 71.804688 134.023438 66.46875 129.421875 C 61.132812 124.820312 55.179688 120.054688 49.375 115.523438 C 43.578125 110.992188 37.890625 106.554688 34.726562 103.007812 C 33.140625 101.234375 32.125 99.617188 31.78125 98.820312 C 32.554688 98.375 34.25 97.890625 36.617188 97.375 C 41.34375 96.34375 48.539062 95.664062 55.992188 95.351562 C 63.453125 95.039062 71.164062 94.875 78.289062 94.234375 C 85.414062 93.59375 91.835938 93.4375 97.648438 89.398438 C 103.453125 85.367188 106.257812 79.71875 109.148438 73.398438 C 112.03125 67.078125 114.539062 59.9375 117.210938 53.210938 C 119.890625 46.484375 122.3125 39.84375 124.820312 35.835938 C 126.078125 33.835938 127.5 32.632812 128.1875 32.070312 Z M 128.1875 32.070312 "/>
<path style=" stroke:none;fill-rule:nonzero;fill:rgb(100%,100%,100%);fill-opacity:1;" d="M 128 24 C 113.171875 23.953125 105.03125 74.140625 93 82.5 C 80.976562 90.859375 28.632812 82.914062 24 96.5 C 19.367188 110.085938 66.476562 132.875 71 146.5 C 75.523438 160.117188 51.046875 205.546875 63 214 C 74.960938 222.453125 112.671875 186.445312 127.5 186.5 C 127.625 186.5 127.859375 186.492188 128 186.5 L 128 23.9375 Z M 128 24 "/>
</g>
</svg>
