<?xml version="1.0" encoding="UTF-8"?>
<svg xmlns="http://www.w3.org/2000/svg" xmlns:xlink="http://www.w3.org/1999/xlink" width="256" height="256" viewBox="0 0 256 256" version="1.1">
<g id="surface1">
<path style=" stroke:none;fill-rule:nonzero;fill:rgb(100%,100%,100%);fill-opacity:1;" d="M 128 16.15625 C 132.257812 16.140625 135.976562 17.773438 138.632812 19.992188 C 141.289062 22.210938 143.070312 25.132812 144.867188 27.992188 C 148.460938 33.71875 151.15625 40.289062 153.914062 47.25 C 156.679688 54.210938 159.46875 61.453125 161.992188 66.96875 C 164.507812 72.484375 167.523438 76.226562 167.726562 76.375 C 167.9375 76.515625 172.640625 78.242188 178.859375 78.804688 C 185.078125 79.359375 192.960938 79.585938 200.671875 79.914062 C 208.382812 80.234375 216.195312 80.492188 222.960938 81.960938 C 226.34375 82.695312 229.609375 83.585938 232.632812 85.3125 C 235.65625 87.046875 238.5 89.898438 239.828125 93.796875 C 241.164062 97.695312 240.617188 101.898438 239.25 105.023438 C 237.882812 108.148438 235.625 110.859375 233.359375 113.398438 C 228.820312 118.460938 223.234375 123.085938 217.234375 127.773438 C 211.226562 132.460938 204.804688 136.71875 200.148438 140.734375 C 195.492188 144.75 192.875 148.859375 192.796875 149.101562 C 192.71875 149.335938 192.296875 154.460938 193.671875 160.335938 C 195.046875 166.210938 197.257812 173.320312 199.320312 180.5 C 201.382812 187.679688 203.34375 194.929688 203.984375 201.59375 C 204.304688 204.929688 204.671875 208.109375 203.90625 211.421875 C 203.132812 214.726562 200.953125 218.304688 197.523438 220.726562 C 194.085938 223.15625 190.328125 223.734375 186.828125 223.445312 C 183.328125 223.164062 179.867188 222.320312 176.664062 221.03125 C 170.273438 218.4375 163.835938 214.171875 157.367188 210.109375 C 150.890625 206.046875 144.4375 201.765625 139.039062 198.734375 C 133.640625 195.703125 128.664062 194.4375 128.40625 194.4375 C 128.148438 194.4375 123.546875 195.960938 118.179688 199.03125 C 112.8125 202.109375 106.578125 206.476562 100.140625 210.585938 C 93.703125 214.703125 87.023438 218.546875 80.648438 221.195312 C 77.46875 222.515625 74.429688 223.609375 70.929688 223.921875 C 67.429688 224.234375 63.25 223.429688 59.804688 221.023438 C 56.351562 218.625 54.375 215.390625 53.578125 212.085938 C 52.773438 208.78125 52.890625 205.125 53.179688 201.789062 C 53.757812 195.117188 55.71875 187.960938 57.726562 180.765625 C 59.726562 173.570312 61.90625 166.585938 63.234375 160.695312 C 64.554688 154.804688 64.375 149.703125 64.296875 149.46875 C 64.21875 149.234375 61.296875 145.429688 56.609375 141.453125 C 51.914062 137.476562 45.789062 132.851562 39.75 128.21875 C 33.710938 123.578125 27.476562 119.070312 22.898438 114.046875 C 20.609375 111.53125 19.03125 108.695312 17.640625 105.578125 C 16.25 102.46875 15.460938 98.71875 16.765625 94.8125 C 18.0625 90.898438 21.101562 88.203125 24.109375 86.445312 C 27.117188 84.695312 29.976562 83.539062 33.351562 82.78125 C 40.109375 81.25 47.96875 80.539062 55.6875 80.148438 C 63.398438 79.765625 70.820312 79.523438 77.03125 78.921875 C 83.242188 78.3125 88.484375 76.820312 88.6875 76.671875 C 88.890625 76.53125 91.632812 72.890625 94.101562 67.359375 C 96.570312 61.828125 99.328125 54.75 102.03125 47.765625 C 104.734375 40.789062 107.390625 33.9375 110.929688 28.1875 C 112.695312 25.3125 114.664062 22.523438 117.296875 20.28125 C 119.9375 18.046875 123.75 16.171875 128.007812 16.15625 Z M 127.859375 32.070312 C 127.179688 32.640625 126.148438 34.242188 124.914062 36.257812 C 122.4375 40.28125 119.617188 46.289062 117.007812 53.039062 C 114.390625 59.78125 111.898438 67.21875 109.070312 73.5625 C 106.242188 79.90625 104.039062 85.304688 98.265625 89.382812 C 92.492188 93.460938 85.945312 94.148438 78.820312 94.84375 C 71.703125 95.539062 63.960938 95.695312 56.507812 96.0625 C 49.046875 96.4375 41.8125 97.179688 37.09375 98.25 C 34.726562 98.78125 33 99.164062 32.226562 99.617188 C 32.585938 100.414062 33.5 102.09375 35.101562 103.851562 C 38.304688 107.367188 43.703125 111.648438 49.546875 116.132812 C 55.382812 120.609375 61.992188 125.289062 67.367188 129.84375 C 72.742188 134.398438 77.609375 138.359375 79.84375 144.914062 C 82.085938 151.476562 80.710938 157.34375 79.195312 164.09375 C 77.679688 170.84375 75.132812 178.148438 73.195312 185.101562 C 71.257812 192.0625 69.5625 198.65625 69.15625 203.320312 C 68.976562 205.445312 69.429688 207.078125 69.601562 208 C 70.5625 207.875 72.429688 207.484375 74.46875 206.640625 C 78.921875 204.789062 84.8125 201.390625 91.03125 197.414062 C 97.257812 193.4375 103.890625 188.921875 110.046875 185.398438 C 116.203125 181.875 121.375 179.023438 128.53125 179 C 135.6875 178.96875 141.203125 181.757812 147.390625 185.234375 C 153.570312 188.703125 159.9375 193.15625 166.195312 197.078125 C 172.453125 201.007812 178.617188 204.289062 183.09375 206.109375 C 185.328125 207.015625 187.03125 207.476562 187.929688 207.546875 C 188.09375 206.625 188.171875 204.984375 187.976562 202.867188 C 187.53125 198.210938 185.765625 191.53125 183.765625 184.585938 C 181.773438 177.648438 179.703125 170.226562 178.132812 163.484375 C 176.5625 156.75 175.148438 150.875 177.328125 144.296875 C 179.507812 137.71875 184.242188 134.023438 189.578125 129.421875 C 194.914062 124.820312 200.867188 120.054688 206.671875 115.523438 C 212.476562 110.992188 218.15625 106.554688 221.328125 103.007812 C 222.914062 101.234375 223.921875 99.617188 224.273438 98.820312 C 223.5 98.375 221.804688 97.890625 219.4375 97.375 C 214.703125 96.34375 207.515625 95.664062 200.054688 95.351562 C 192.601562 95.039062 184.882812 94.875 177.757812 94.234375 C 170.632812 93.59375 164.210938 93.4375 158.40625 89.398438 C 152.59375 85.367188 149.789062 79.71875 146.90625 73.398438 C 144.015625 67.078125 141.507812 59.9375 138.835938 53.210938 C 136.164062 46.484375 133.742188 39.84375 131.226562 35.835938 C 129.96875 33.835938 128.546875 32.632812 127.867188 32.070312 Z M 127.859375 32.070312 "/>
<path style=" stroke:none;fill-rule:nonzero;fill:rgb(100%,100%,100%);fill-opacity:1;" d="M 128 24 C 142.828125 23.953125 150.96875 74.140625 163 82.5 C 175.023438 90.859375 227.367188 82.914062 232 96.5 C 236.632812 110.085938 189.523438 132.875 185 146.5 C 180.476562 160.117188 204.953125 205.546875 193 214 C 181.039062 222.453125 143.328125 186.445312 128.5 186.5 C 128.375 186.5 128.140625 186.492188 128 186.5 L 128 23.9375 Z M 128 24 "/>
</g>
</svg>
