<?xml version="1.0" encoding="UTF-8"?>
<svg xmlns="http://www.w3.org/2000/svg" xmlns:xlink="http://www.w3.org/1999/xlink" width="256" height="256" viewBox="0 0 256 256" version="1.1">
<g id="surface1">
<path style=" stroke:none;fill-rule:evenodd;fill:rgb(96.078431%,47.45098%,0%);fill-opacity:1;" d="M 128 0.960938 L 91.765625 55.5625 L 37.164062 37.195312 L 55.53125 91.796875 L 0.929688 128.03125 L 55.53125 164.265625 L 37.164062 218.867188 L 91.765625 200.5 L 128 255.101562 L 164.234375 200.5 L 218.835938 218.867188 L 200.46875 164.265625 L 255.070312 128.03125 L 200.46875 91.796875 L 218.835938 37.195312 L 164.234375 55.5625 Z M 112.117188 65.484375 L 143.882812 65.484375 L 143.882812 144.40625 L 112.117188 144.40625 Z M 128.5 155.828125 C 139.734375 155.828125 148.84375 164.9375 148.84375 176.179688 C 148.84375 187.414062 139.734375 196.53125 128.5 196.53125 C 117.257812 196.53125 108.148438 187.414062 108.148438 176.179688 C 108.148438 164.9375 117.257812 155.828125 128.5 155.828125 Z M 128.5 155.828125 "/>
</g>
</svg>
