<?xml version="1.0" encoding="UTF-8"?>
<svg xmlns="http://www.w3.org/2000/svg" xmlns:xlink="http://www.w3.org/1999/xlink" width="256" height="256" viewBox="0 0 256 256" version="1.1">
<g id="surface1">
<path style=" stroke:none;fill-rule:nonzero;fill:rgb(100%,100%,100%);fill-opacity:1;" d="M 196.609375 224.71875 C 183.625 234.078125 143.4375 193.226562 127.4375 193.15625 C 111.429688 193.09375 70.890625 233.609375 57.96875 224.148438 C 45.0625 214.695312 71.492188 163.84375 66.609375 148.609375 C 61.726562 133.359375 10.671875 107.328125 15.671875 92.117188 C 20.679688 76.921875 77.203125 86.34375 90.1875 76.992188 C 103.179688 67.640625 112.164062 11.03125 128.171875 11.09375 C 144.171875 11.15625 152.671875 67.828125 165.585938 77.289062 C 178.492188 86.75 235.109375 77.804688 239.992188 93.046875 C 244.882812 108.28125 193.609375 133.882812 188.601562 149.078125 C 183.59375 164.28125 209.59375 215.359375 196.609375 224.71875 Z M 196.609375 224.71875 "/>
</g>
</svg>
