<?xml version="1.0" encoding="UTF-8"?>
<svg xmlns="http://www.w3.org/2000/svg" xmlns:xlink="http://www.w3.org/1999/xlink" width="256" height="256" viewBox="0 0 256 256" version="1.1">
<g id="surface1">
<path style=" stroke:none;fill-rule:nonzero;fill:rgb(74.509804%,74.509804%,74.509804%);fill-opacity:1;" d="M 39.523438 16 C 39.523438 16 15.523438 16 15.523438 40 L 15.523438 231.507812 C 15.523438 231.507812 15.523438 256 39.523438 256 L 159.523438 256 L 159.523438 224 L 47.523438 224 L 47.523438 48 L 63.523438 48 L 63.523438 16 Z M 175.523438 16 L 175.523438 48 L 191.523438 48 L 191.523438 160 L 223.523438 160 L 223.523438 40 C 223.523438 16 199.523438 16 199.523438 16 Z M 175.523438 16 "/>
<path style=" stroke:none;fill-rule:nonzero;fill:rgb(74.509804%,74.509804%,74.509804%);fill-opacity:1;" d="M 88 0 L 151.5 0 C 155.921875 0 159.5 3.578125 159.5 8 L 159.5 56 C 159.5 60.414062 155.921875 64 151.5 64 L 88 64 C 83.578125 64 80 60.414062 80 56 L 80 8 C 80 3.578125 83.578125 0 88 0 Z M 88 0 "/>
<path style=" stroke:none;fill-rule:nonzero;fill:rgb(74.509804%,74.509804%,74.509804%);fill-opacity:1;" d="M 175.523438 176 L 197.523438 176 L 215.523438 193.5 L 232.960938 176.0625 L 255.523438 176.0625 L 255.523438 199.5625 L 238.015625 216.5625 L 255.460938 233.523438 L 255.460938 256.078125 L 232.421875 256.078125 L 215.460938 239.125 L 198.5 256.078125 L 175.460938 256.078125 L 175.460938 233.585938 L 192.460938 216.585938 L 175.5 199.625 L 175.5 176.101562 Z M 175.523438 176 "/>
<path style=" stroke:none;fill-rule:nonzero;fill:rgb(100%,100%,100%);fill-opacity:1;" d="M 83.851562 62.304688 C 80.621094 60.148438 80.164062 56.265625 80.164062 31.15625 L 80.164062 5.542969 L 85.488281 0.21875 L 154.023438 0.21875 L 156.6875 2.878906 L 159.351562 5.542969 L 159.351562 31.15625 C 159.351562 56.265625 158.890625 60.148438 155.664062 62.304688 C 155.007812 62.742188 138.847656 63.101562 119.757812 63.101562 C 100.664062 63.101562 84.507812 62.742188 83.851562 62.304688 Z M 83.851562 62.304688 "/>
<path style=" stroke:none;fill-rule:nonzero;fill:rgb(100%,100%,100%);fill-opacity:1;" d="M 191.890625 103.8125 L 191.890625 47.945312 L 175.621094 47.945312 L 175.621094 16.488281 L 189.585938 16.488281 C 205.132812 16.488281 210.949219 17.867188 216.109375 22.765625 C 223.109375 29.417969 222.773438 25.949219 223.117188 95.945312 L 223.429688 159.671875 L 191.890625 159.671875 Z M 191.890625 103.8125 "/>
<path style=" stroke:none;fill-rule:nonzero;fill:rgb(100%,100%,100%);fill-opacity:1;" d="M 27.585938 252.65625 C 22.734375 249.90625 18.882812 244.808594 17.265625 238.988281 C 16.570312 236.492188 16.171875 198.382812 16.167969 134.082031 L 16.164062 33.101562 L 18.6875 28.320312 C 20.34375 25.179688 23.015625 22.421875 26.460938 20.285156 C 31.558594 17.125 32.179688 17.019531 47.261719 16.65625 L 62.804688 16.285156 L 62.804688 47.945312 L 47.621094 47.945312 L 47.621094 224.757812 L 159.351562 224.757812 L 159.351562 255.132812 L 31.890625 255.09375 Z M 27.585938 252.65625 "/>
<path style=" stroke:none;fill-rule:nonzero;fill:rgb(100%,0%,0%);fill-opacity:1;" d="M 175.621094 245.070312 L 175.621094 233.929688 L 184.296875 225.300781 L 192.976562 216.671875 L 184.296875 207.945312 L 175.621094 199.222656 L 175.621094 175.945312 L 186.265625 175.945312 C 196.753906 175.945312 196.953125 175.992188 200.09375 179.304688 C 201.847656 181.148438 206.121094 185.132812 209.59375 188.152344 L 215.90625 193.648438 L 224.804688 184.796875 L 233.699219 175.945312 L 254.804688 175.945312 L 254.804688 199.222656 L 246.078125 208 L 237.34375 216.773438 L 246.078125 225.117188 L 254.804688 233.460938 L 254.804688 256.21875 L 232.847656 256.21875 L 223.980469 247.5625 L 215.117188 238.910156 L 206.511719 247.5625 L 197.90625 256.21875 L 175.621094 256.21875 Z M 175.621094 245.070312 "/>
</g>
</svg>
