<?xml version="1.0" encoding="UTF-8"?>
<svg xmlns="http://www.w3.org/2000/svg" xmlns:xlink="http://www.w3.org/1999/xlink" width="256" height="256" viewBox="0 0 256 256" version="1.1">
<g id="surface1">
<path style=" stroke:none;fill-rule:nonzero;fill:rgb(74.509804%,74.509804%,74.509804%);fill-opacity:1;" d="M 15.523438 40 L 15.523438 231.507812 C 15.523438 256 39.523438 256 39.523438 256 L 111.523438 256 L 111.523438 224 L 47.523438 224 L 47.523438 48 L 63.523438 48 L 63.523438 16 L 39.523438 16 C 39.523438 16 15.523438 16 15.523438 40 Z M 175.523438 16 L 175.523438 48 L 192.015625 48 L 192.015625 112.5 L 223.523438 112 L 223.523438 40 C 223.523438 16 199.523438 16 199.523438 16 Z M 64.523438 80.5 L 64.523438 192 L 111.523438 192 L 111.523438 143.96875 C 111.523438 143.96875 111.523438 112 143.523438 112 L 175.523438 112 L 175.523438 80 Z M 64.523438 80.5 "/>
<path style=" stroke:none;fill-rule:nonzero;fill:rgb(74.509804%,74.509804%,74.509804%);fill-opacity:1;" d="M 88 0 L 151.507812 0 C 155.921875 0 159.507812 3.578125 159.507812 8 L 159.507812 56 C 159.507812 60.414062 155.921875 64 151.507812 64 L 88 64 C 83.578125 64 80 60.414062 80 56 L 80 8 C 80 3.578125 83.578125 0 88 0 Z M 88 0 "/>
<path style=" stroke:none;fill-rule:nonzero;fill:rgb(96.078431%,47.45098%,0%);fill-opacity:1;" d="M 143.523438 128 C 127.523438 128 127.523438 144 127.523438 144 L 127.523438 240 C 127.523438 240 127.523438 256 143.523438 256 L 239.523438 256 C 255.523438 256 255.523438 240 255.523438 240 L 255.523438 144 C 255.523438 128 239.523438 128 239.523438 128 Z M 175.523438 144 L 208.015625 144 L 208.015625 208 L 175.523438 208 Z M 175.523438 224 L 208.015625 224 L 207.523438 240 L 175.523438 240 Z M 175.523438 224 "/>
<path style=" stroke:none;fill-rule:nonzero;fill:rgb(100%,100%,100%);fill-opacity:1;" d="M 82.84375 61.429688 C 80.117188 58.699219 79.921875 56.28125 80.265625 29.640625 C 80.59375 4.5625 80.617188 4.34375 83.15625 2.289062 C 85.554688 0.347656 87.871094 0.21875 119.816406 0.21875 L 153.914062 0.21875 L 156.578125 2.878906 L 159.242188 5.542969 L 159.242188 32.167969 C 159.242188 57.347656 159.125 58.910156 157.070312 60.960938 C 154.992188 63.042969 153.453125 63.132812 119.726562 63.132812 C 89.207031 63.132812 84.320312 62.90625 82.84375 61.429688 Z M 82.84375 61.429688 "/>
<path style=" stroke:none;fill-rule:nonzero;fill:rgb(100%,100%,100%);fill-opacity:1;" d="M 64.867188 135.8125 L 64.867188 80.488281 L 175.511719 80.488281 L 175.511719 111.78125 L 154.085938 112.132812 C 129.578125 112.539062 127.300781 113.195312 119.421875 122.148438 C 112.273438 130.269531 111.511719 134.367188 111.511719 164.679688 L 111.511719 191.132812 L 64.867188 191.132812 Z M 64.867188 135.8125 "/>
<path style=" stroke:none;fill-rule:nonzero;fill:rgb(100%,100%,100%);fill-opacity:1;" d="M 30.207031 253.71875 C 25.054688 252.074219 18.585938 245.3125 17.179688 240.097656 C 16.386719 237.15625 16.109375 203.640625 16.308594 134.007812 C 16.59375 33.132812 16.617188 32.179688 18.867188 27.878906 C 20.273438 25.179688 23.113281 22.308594 26.367188 20.285156 C 31.453125 17.125 32.066406 17.019531 47.152344 16.65625 L 62.699219 16.285156 L 62.699219 47.945312 L 47.511719 47.945312 L 47.511719 224.757812 L 111.511719 224.757812 L 111.511719 255.132812 L 72.734375 255.023438 C 47.8125 254.953125 32.613281 254.484375 30.207031 253.71875 Z M 30.207031 253.71875 "/>
<path style=" stroke:none;fill-rule:nonzero;fill:rgb(100%,100%,100%);fill-opacity:1;" d="M 192.867188 79.945312 L 192.867188 47.945312 L 175.511719 47.945312 L 175.511719 16.488281 L 189.421875 16.488281 C 206.144531 16.488281 211.648438 18 217.152344 24.089844 C 219.226562 26.386719 221.445312 30.132812 222.078125 32.414062 C 222.789062 34.964844 223.230469 51.023438 223.234375 74.25 L 223.242188 111.945312 L 192.867188 111.945312 Z M 192.867188 79.945312 "/>
</g>
</svg>
