<?xml version="1.0" encoding="UTF-8"?>
<svg xmlns="http://www.w3.org/2000/svg" xmlns:xlink="http://www.w3.org/1999/xlink" width="256" height="256" viewBox="0 0 256 256" version="1.1">
<g id="surface1">
<path style=" stroke:none;fill-rule:nonzero;fill:rgb(100%,100%,100%);fill-opacity:1;" d="M 108.4375 25.5625 C 54.476562 25.5625 10.664062 69.351562 10.664062 123.335938 C 10.664062 177.3125 54.476562 221.101562 108.4375 221.101562 C 134.0625 221.101562 157.414062 211.164062 174.851562 195.039062 L 245.335938 195.039062 L 201.75 151.4375 C 204.460938 142.476562 206.210938 133.164062 206.210938 123.335938 C 206.210938 69.351562 162.414062 25.5625 108.4375 25.5625 Z M 108.4375 64.664062 C 140.835938 64.664062 167.101562 90.9375 167.101562 123.335938 C 167.101562 155.710938 140.835938 182 108.4375 182 C 76.0625 182 49.789062 155.710938 49.789062 123.335938 C 49.789062 90.9375 76.0625 64.664062 108.4375 64.664062 Z M 106.414062 84.226562 C 103.625 85.125 101.789062 87.8125 101.9375 90.726562 L 101.9375 123.335938 C 101.9375 126.9375 104.835938 129.835938 108.4375 129.851562 L 131.25 129.851562 C 133.601562 129.875 135.789062 128.648438 136.976562 126.625 C 138.164062 124.585938 138.164062 122.0625 136.976562 120.039062 C 135.789062 118.023438 133.601562 116.789062 131.25 116.8125 L 114.960938 116.8125 L 114.960938 90.726562 C 115 88.773438 114.148438 86.898438 112.648438 85.625 C 111.148438 84.375 109.148438 83.851562 107.226562 84.226562 C 106.960938 84.210938 106.6875 84.210938 106.414062 84.226562 Z M 106.414062 84.226562 "/>
</g>
</svg>
