<?xml version="1.0" encoding="UTF-8"?>
<svg xmlns="http://www.w3.org/2000/svg" xmlns:xlink="http://www.w3.org/1999/xlink" width="256" height="256" viewBox="0 0 256 256" version="1.1">
<g id="surface1">
<path style=" stroke:none;fill-rule:nonzero;fill:rgb(100%,100%,100%);fill-opacity:1;" d="M 56 16 C 33.84375 16 16 33.84375 16 56 L 16 136 C 16 158.15625 33.84375 176 56 176 L 158 176 L 208 240 L 208 175 C 226.257812 171.28125 240 155.390625 240 136 L 240 56 C 240 33.84375 222.15625 16 200 16 Z M 56 48 L 200 48 C 204.429688 48 208 51.570312 208 56 L 208 136 C 208 140.429688 204.429688 144 200 144 L 56 144 C 51.570312 144 48 140.429688 48 136 L 48 56 C 48 51.570312 51.570312 48 56 48 Z M 56 48 "/>
</g>
</svg>
