<?xml version="1.0" encoding="UTF-8"?>
<svg xmlns="http://www.w3.org/2000/svg" xmlns:xlink="http://www.w3.org/1999/xlink" width="256" height="256" viewBox="0 0 256 256" version="1.1">
<g id="surface1">
<path style=" stroke:none;fill-rule:nonzero;fill:rgb(100%,100%,100%);fill-opacity:1;" d="M 108.4375 28.5625 C 54.476562 28.5625 10.664062 72.375 10.664062 126.335938 C 10.664062 180.3125 54.476562 224.125 108.4375 224.125 C 134.0625 224.125 157.414062 214.1875 174.851562 198.039062 L 245.335938 198.039062 L 201.75 154.460938 C 204.460938 145.5 206.210938 136.1875 206.210938 126.335938 C 206.210938 72.375 162.414062 28.5625 108.4375 28.5625 Z M 79.9375 80.710938 L 108.4375 110.039062 L 137.789062 81.125 L 154.0625 97.8125 L 124.75 126.335938 L 153.664062 155.664062 L 136.960938 171.960938 L 108.4375 142.648438 L 79.101562 171.5625 L 62.8125 154.851562 L 92.148438 126.335938 L 63.226562 97 Z M 79.9375 80.710938 "/>
</g>
</svg>
