<?xml version="1.0" encoding="UTF-8"?>
<svg xmlns="http://www.w3.org/2000/svg" xmlns:xlink="http://www.w3.org/1999/xlink" width="256" height="256" viewBox="0 0 256 256" version="1.1">
<g id="surface1">
<path style=" stroke:none;fill-rule:nonzero;fill:rgb(100%,100%,100%);fill-opacity:1;" d="M 64 32 L 64 16.5 L 176 16.5 L 176 32 Z M 55.5 0.5 C 47.65625 0.5 42.765625 4.15625 39 8 C 35.234375 11.84375 32 16.9375 32 24.5 L 32 32 L 0 32 L 0 64 L 240 64 L 240 32 L 208 32 L 208 26 C 207.617188 19.109375 205.273438 13.960938 201.5 9.5 C 197.921875 5.265625 191.476562 1.03125 183 1 L 183 0.5 Z M 191.976562 80.015625 L 223.976562 80.015625 C 250.757812 126.851562 242.179688 173.6875 223.976562 220.515625 C 217.101562 238.4375 208.296875 256.039062 188.9375 256.039062 L 50.9375 256.039062 C 31.65625 256.039062 22.515625 238.59375 15.9375 220.539062 C -0.734375 174.75 -9.640625 128.46875 15.9375 80.039062 L 47.9375 80.039062 C 20.398438 127.203125 32.179688 175.5625 47.9375 224.039062 L 191.9375 224.039062 C 209.476562 175.507812 218.039062 127.25 191.9375 80.039062 Z M 112.476562 79.757812 L 112.476562 208.015625 L 127.976562 208.015625 L 127.976562 79.757812 Z M 143.976562 79.757812 C 172.171875 115.328125 157.265625 169.851562 143.976562 208.015625 L 159.976562 208.015625 C 173.179688 171.085938 189.414062 117.984375 159.976562 79.757812 Z M 80.476562 79.757812 C 51.40625 121.492188 66.78125 172.757812 80.476562 208.015625 L 95.976562 208.015625 C 82.132812 172.46875 69.375 120.523438 95.976562 79.757812 Z M 80.476562 79.757812 "/>
</g>
</svg>
