<?xml version="1.0" encoding="UTF-8"?>
<svg xmlns="http://www.w3.org/2000/svg" xmlns:xlink="http://www.w3.org/1999/xlink" width="256" height="256" viewBox="0 0 256 256" version="1.1">
<g id="surface1">
<path style=" stroke:none;fill-rule:nonzero;fill:rgb(100%,100%,100%);fill-opacity:1;" d="M 208 240 L 208 168 L 152 168 Z M 208 240 "/>
<path style=" stroke:none;fill-rule:nonzero;fill:rgb(100%,100%,100%);fill-opacity:1;" d="M 56 16 C 33.84375 16 16 33.84375 16 56 L 16 136 C 16 158.15625 33.84375 176 56 176 L 200 176 C 222.15625 176 240 158.15625 240 136 L 240 56 C 240 33.84375 222.15625 16 200 16 Z M 80 48 L 96 48 C 100.421875 48 104.601562 49.601562 107.5 52.5 L 128 73 L 148.5 52.5 C 151.390625 49.617188 155.585938 48.023438 160 48.023438 L 176 48.023438 L 176 64.023438 C 176 68.4375 174.398438 72.625 171.5 75.523438 L 151.007812 96 L 171.507812 116.5 C 174.398438 119.398438 176.007812 123.578125 176.007812 128 L 176.007812 144 L 160.007812 144 C 155.585938 144 151.398438 142.398438 148.507812 139.5 L 128.007812 119 L 107.507812 139.5 C 104.609375 142.382812 100.421875 143.976562 96 143.976562 L 80 143.976562 L 80 127.976562 C 80 123.5625 81.609375 119.375 84.5 116.476562 L 105.015625 96 L 84.5 75.515625 C 81.609375 72.640625 80.007812 68.476562 80.007812 64 L 80.007812 48 Z M 80 48 "/>
</g>
</svg>
