<?xml version="1.0" encoding="UTF-8"?>
<svg xmlns="http://www.w3.org/2000/svg" xmlns:xlink="http://www.w3.org/1999/xlink" width="256" height="256" viewBox="0 0 256 256" version="1.1">
<g id="surface1">
<path style=" stroke:none;fill-rule:nonzero;fill:rgb(74.509804%,74.509804%,74.509804%);fill-opacity:1;" d="M 156.476562 80 C 150.507812 81.085938 145.664062 85.445312 143.96875 91.273438 C 142.273438 97.101562 144.023438 103.382812 148.476562 107.5 L 180.476562 139.5 L 191.976562 150.5 L 203.476562 139.5 L 235.476562 107.5 C 239.648438 103.40625 241.289062 97.390625 239.796875 91.742188 C 238.296875 86.09375 233.890625 81.679688 228.242188 80.1875 C 222.59375 78.6875 216.578125 80.335938 212.476562 84.5 L 192 104.984375 L 171.523438 84.5 C 167.632812 80.484375 161.929688 78.78125 156.476562 80.023438 Z M 156.476562 80 "/>
<path style=" stroke:none;fill-rule:nonzero;fill:rgb(74.509804%,74.509804%,74.509804%);fill-opacity:1;" d="M 96 16 C 69.6875 16 48 37.6875 48 64 L 48 192 C 48 218.3125 69.6875 240 96 240 L 160 240 L 160 208 L 96 208 C 86.859375 208 80 201.140625 80 192 L 80 64 C 80 54.859375 86.859375 48 96 48 L 160 48 C 169.140625 48 176 54.859375 176 64 L 176 128 L 208 128 L 208 64 C 208 37.6875 186.3125 16 160 16 Z M 96 16 "/>
<path style=" stroke:none;fill-rule:nonzero;fill:rgb(74.509804%,74.509804%,74.509804%);fill-opacity:1;" d="M 144 96 L 144 80 L 160 80 L 160 96 Z M 144 96 "/>
<path style=" stroke:none;fill-rule:nonzero;fill:rgb(74.509804%,74.509804%,74.509804%);fill-opacity:1;" d="M 224 96 L 224 80 L 240 80 L 240 96 Z M 224 96 "/>
<path style=" stroke:none;fill-rule:nonzero;fill:rgb(100%,100%,100%);fill-opacity:1;" d="M 85.75 238.300781 C 71.59375 235.226562 59.75 225.601562 53.0625 211.742188 L 49.140625 203.609375 L 49.140625 52.828125 L 51.570312 46.859375 C 56.484375 34.820312 66.949219 24.355469 78.96875 19.472656 C 84.710938 17.140625 86.441406 17.039062 125.398438 16.710938 C 160.40625 16.414062 166.695312 16.609375 172.042969 18.148438 C 181.375 20.84375 188.085938 24.9375 194.480469 31.84375 C 204.984375 43.195312 207.992188 53.242188 208.03125 77.183594 L 208.054688 89.605469 L 212.125 85.648438 C 216.84375 81.050781 221.515625 79.796875 232.1875 80.265625 L 239.511719 80.585938 L 239.511719 90.351562 C 239.511719 96.75 238.976562 101.132812 237.957031 103.050781 C 237.101562 104.664062 226.386719 115.960938 214.144531 128.15625 L 191.882812 150.335938 L 169.503906 128.15625 C 157.195312 115.960938 146.433594 104.664062 145.589844 103.050781 C 144.59375 101.152344 144.054688 96.667969 144.054688 90.304688 L 144.054688 80.488281 L 151.375 80.324219 C 164.945312 80.023438 166.957031 80.605469 173.613281 86.796875 L 176.59375 89.570312 L 176.570312 75.539062 C 176.546875 59.3125 174.878906 53.867188 168.796875 50.117188 C 165.335938 47.992188 163.8125 47.921875 126.984375 48.199219 L 88.765625 48.488281 L 84.679688 52.574219 L 80.59375 56.65625 L 80.304688 126.953125 L 80.007812 197.25 L 82.492188 200.972656 C 87.367188 208.265625 88.621094 208.484375 125.882812 208.484375 L 159.242188 208.488281 L 159.242188 239.945312 L 125.882812 239.859375 C 102.132812 239.796875 90.578125 239.351562 85.75 238.300781 Z M 85.75 238.300781 "/>
</g>
</svg>
