<?xml version="1.0" encoding="UTF-8"?>
<svg xmlns="http://www.w3.org/2000/svg" xmlns:xlink="http://www.w3.org/1999/xlink" width="256" height="256" viewBox="0 0 256 256" version="1.1">
<g id="surface1">
<path style=" stroke:none;fill-rule:nonzero;fill:rgb(100%,100%,100%);fill-opacity:1;" d="M 28.476562 80 C 22.507812 81.085938 17.664062 85.445312 15.96875 91.273438 C 14.273438 97.101562 16.023438 103.382812 20.476562 107.5 L 52.476562 139.5 L 63.976562 150.5 L 75.476562 139.5 L 107.476562 107.5 C 111.648438 103.40625 113.289062 97.390625 111.796875 91.742188 C 110.296875 86.09375 105.890625 81.679688 100.242188 80.1875 C 94.59375 78.6875 88.578125 80.335938 84.476562 84.5 L 64 104.984375 L 43.523438 84.5 C 39.632812 80.484375 33.929688 78.78125 28.476562 80.023438 Z M 28.476562 80 "/>
<path style=" stroke:none;fill-rule:nonzero;fill:rgb(100%,100%,100%);fill-opacity:1;" d="M 96 16 C 69.6875 16 48 37.6875 48 64 L 48 128 L 80 128 L 80 64 C 80 54.859375 86.859375 48 96 48 L 160 48 C 169.140625 48 176 54.859375 176 64 L 176 192 C 176 201.140625 169.140625 208 160 208 L 96 208 L 96 240 L 160 240 C 186.3125 240 208 218.3125 208 192 L 208 64 C 208 37.6875 186.3125 16 160 16 Z M 96 16 "/>
<path style=" stroke:none;fill-rule:nonzero;fill:rgb(100%,100%,100%);fill-opacity:1;" d="M 112 96 L 112 80 L 96 80 L 96 96 Z M 112 96 "/>
<path style=" stroke:none;fill-rule:nonzero;fill:rgb(100%,100%,100%);fill-opacity:1;" d="M 32 96 L 32 80 L 16 80 L 16 96 Z M 32 96 "/>
</g>
</svg>
