<?xml version="1.0" encoding="UTF-8"?>
<svg xmlns="http://www.w3.org/2000/svg" xmlns:xlink="http://www.w3.org/1999/xlink" width="256" height="256" viewBox="0 0 256 256" version="1.1">
<g id="surface1">
<path style=" stroke:none;fill-rule:nonzero;fill:rgb(50.196078%,50.196078%,50.196078%);fill-opacity:1;" d="M 152.15625 0.640625 C 131.789062 0.640625 115.25 16.210938 112.992188 36.140625 C 107.804688 34.1875 102.492188 32.640625 96.632812 32.640625 C 70.34375 32.640625 49.03125 54.132812 49.03125 80.648438 C 49.03125 82.21875 49.382812 83.617188 49.53125 85.148438 C 44.773438 82.28125 39.109375 80.648438 33.171875 80.648438 C 15.640625 80.648438 1.4375 94.976562 1.4375 112.648438 C 1.4375 130.328125 14.484375 143.945312 32.007812 143.945312 L 112.007812 143.945312 L 112.007812 119.945312 C 111.75 107.375 123.835938 96.40625 136.296875 96.148438 C 149.085938 95.875 160.28125 107.039062 160.007812 119.945312 L 160.007812 143.945312 L 232.007812 143.945312 C 245.15625 143.945312 255.289062 133.90625 255.289062 120.648438 C 255.289062 107.398438 244.632812 96.648438 231.492188 96.648438 C 228.203125 96.648438 224.914062 97.4375 222.070312 98.648438 C 222.90625 95.421875 223.554688 92.140625 223.554688 88.648438 C 223.554688 68.976562 209.382812 52.992188 190.835938 49.648438 C 191.5 46.742188 191.828125 43.75 191.828125 40.648438 C 191.828125 18.554688 174.0625 0.640625 152.164062 0.640625 Z M 152.15625 0.640625 "/>
<path style=" stroke:none;fill-rule:nonzero;fill:rgb(74.509804%,74.509804%,74.509804%);fill-opacity:1;" d="M 134.5625 112 C 130.710938 112.703125 127.929688 116.085938 128 120 L 128 160 L 80 160 L 80 176 L 52.5 176 L 50.5 178.5 L 10.5 218.5 C 7.695312 220.234375 6.25 223.515625 6.859375 226.757812 C 7.460938 230 10 232.539062 13.242188 233.140625 C 16.484375 233.75 19.765625 232.304688 21.5 229.5 L 58.9375 191.898438 L 79.898438 191.898438 L 79.898438 239.898438 C 79.898438 244.320312 83.484375 247.898438 87.898438 247.898438 C 92.320312 247.898438 95.898438 244.320312 95.898438 239.898438 L 95.898438 185.898438 C 96.15625 184.75 96.15625 183.554688 95.898438 182.398438 L 95.898438 176 L 127.898438 176 L 127.898438 187.5 L 130.398438 189.5 L 159.84375 219.101562 L 159.84375 240.0625 C 159.84375 244.476562 163.421875 248.0625 167.84375 248.0625 C 172.257812 248.0625 175.84375 244.476562 175.84375 240.0625 L 175.84375 224.0625 L 197.34375 224.0625 L 235.84375 247.0625 C 239.703125 249.265625 244.632812 247.929688 246.84375 244.0625 C 249.046875 240.195312 247.703125 235.265625 243.84375 233.0625 L 203.84375 209.0625 L 201.84375 208.0625 L 170.84375 208.0625 L 143.84375 181.0625 L 143.84375 170.0625 C 144.101562 168.90625 144.101562 167.710938 143.84375 166.5625 L 143.84375 120.15625 C 143.882812 117.75 142.84375 115.445312 141 113.890625 C 139.15625 112.34375 136.710938 111.703125 134.34375 112.15625 Z M 134.5625 112 "/>
<path style=" stroke:none;fill-rule:nonzero;fill:rgb(100%,100%,0%);fill-opacity:1;" d="M 166.132812 247.75 C 164.539062 247.359375 162.75 246.273438 161.796875 245.117188 C 160.023438 242.960938 159.953125 242.421875 159.953125 230.101562 L 159.953125 218.914062 L 143.976562 202.984375 L 128 187.046875 L 128 175.992188 L 95.789062 175.992188 L 95.757812 208.757812 L 95.734375 241.53125 L 95.03125 243.046875 C 93.601562 246.148438 91.359375 247.578125 87.90625 247.578125 C 84.5625 247.578125 82.21875 246.179688 80.804688 243.328125 C 80.25 242.203125 80.21875 241.109375 80.070312 216.984375 L 79.921875 191.8125 L 69.507812 191.734375 L 59.101562 191.65625 L 38.804688 211.992188 C 23.460938 227.375 18.242188 232.421875 17.414062 232.710938 C 16.8125 232.921875 15.5 233.085938 14.5 233.078125 C 12.328125 233.070312 9.992188 231.953125 8.585938 230.257812 C 6.804688 228.101562 6.375 224.335938 7.640625 221.914062 C 7.9375 221.34375 18.28125 210.78125 30.625 198.4375 L 53.070312 175.992188 L 80.070312 175.992188 L 80.070312 160.015625 L 127.984375 160.015625 L 128.070312 138.984375 C 128.164062 115.726562 128.046875 117.039062 130.148438 114.648438 C 131.382812 113.242188 133.75 112.09375 135.40625 112.085938 C 138.695312 112.078125 141.8125 114.03125 143.03125 116.882812 C 143.664062 118.34375 143.664062 118.546875 143.679688 149.65625 L 143.695312 180.960938 L 157.328125 194.601562 L 170.953125 208.242188 L 186.414062 208.242188 C 201.578125 208.242188 201.90625 208.257812 203.148438 208.882812 C 206.117188 210.382812 244.296875 233.429688 245.226562 234.28125 C 247.359375 236.257812 248.210938 239.679688 247.320312 242.664062 C 246.867188 244.171875 244.9375 246.367188 243.359375 247.171875 C 241.765625 247.992188 239.132812 248.21875 237.570312 247.671875 C 236.90625 247.4375 227.578125 242 216.828125 235.585938 L 197.289062 223.921875 L 175.632812 223.921875 L 175.625 232.882812 C 175.625 241.664062 175.609375 241.882812 174.914062 243.375 C 173.375 246.6875 169.5625 248.585938 166.132812 247.75 Z M 166.132812 247.75 "/>
</g>
</svg>
