<?xml version="1.0" encoding="UTF-8"?>
<svg xmlns="http://www.w3.org/2000/svg" xmlns:xlink="http://www.w3.org/1999/xlink" width="256" height="256" viewBox="0 0 256 256" version="1.1">
<g id="surface1">
<path style=" stroke:none;fill-rule:nonzero;fill:rgb(74.509804%,74.509804%,74.509804%);fill-opacity:1;" d="M 152 64 C 131.460938 64 114.773438 79.570312 112.5 99.5 C 107.21875 97.578125 101.9375 95.984375 96.015625 95.984375 C 69.507812 95.984375 48.015625 117.46875 48.015625 143.984375 C 48.015625 145.554688 48.375 146.945312 48.515625 148.484375 C 43.71875 145.601562 37.960938 144 32.039062 144 C 14.367188 144 0.0390625 158.328125 0.0390625 176 C 0.0390625 193.671875 14.367188 208 32.039062 208 L 232.039062 208 C 245.296875 208 256.039062 197.257812 256.039062 184 C 256.039062 170.742188 245.296875 160 232.039062 160 C 228.726562 160 225.40625 160.789062 222.539062 162 C 223.382812 158.773438 224.039062 155.492188 224.039062 152 C 224.039062 132.328125 209.742188 116.351562 191.039062 113 C 191.710938 110.101562 192.039062 107.109375 192.039062 104 C 192.039062 81.90625 174.125 64 152.039062 64 Z M 152 64 "/>
</g>
</svg>
