<?xml version="1.0" encoding="UTF-8"?>
<svg xmlns="http://www.w3.org/2000/svg" xmlns:xlink="http://www.w3.org/1999/xlink" width="256" height="256" viewBox="0 0 256 256" version="1.1">
<g id="surface1">
<path style=" stroke:none;fill-rule:nonzero;fill:rgb(74.509804%,74.509804%,74.509804%);fill-opacity:1;" d="M 151.523438 0 C 131.148438 0 114.601562 15.570312 112.351562 35.5 C 107.070312 33.578125 101.789062 31.984375 95.867188 31.984375 C 69.578125 31.984375 48.265625 53.46875 48.265625 79.984375 C 48.265625 81.554688 48.617188 82.945312 48.757812 84.484375 C 43.960938 81.601562 38.359375 80 32.445312 80 C 14.914062 80 0.710938 94.328125 0.710938 112 C 0.710938 129.671875 14.914062 144 32.445312 144 L 230.78125 144 C 243.921875 144 254.578125 133.257812 254.578125 120 C 254.578125 106.742188 243.921875 96 230.78125 96 C 227.492188 96 224.203125 96.789062 221.359375 98 C 222.195312 94.773438 222.84375 91.492188 222.84375 88 C 222.84375 68.328125 208.671875 52.351562 190.117188 49 C 190.78125 46.101562 191.109375 43.109375 191.109375 40 C 191.109375 17.90625 173.351562 0 151.4375 0 Z M 151.523438 0 "/>
<path style=" stroke:none;fill-rule:nonzero;fill:rgb(0%,100%,100%);fill-opacity:1;" d="M 38.5625 160 C 35.1875 160.546875 32.546875 163.1875 32 166.5625 L 16 245.0625 C 15.109375 247.960938 15.953125 251.125 18.179688 253.195312 C 20.398438 255.265625 23.609375 255.890625 26.445312 254.796875 C 29.28125 253.703125 31.242188 251.085938 31.5 248.0625 L 47.5 169.5625 C 48.078125 166.992188 47.351562 164.3125 45.5625 162.390625 C 43.765625 160.46875 41.140625 159.554688 38.539062 159.960938 Z M 38.5625 160 "/>
<path style=" stroke:none;fill-rule:nonzero;fill:rgb(0%,100%,100%);fill-opacity:1;" d="M 70.5625 160 C 67.1875 160.546875 64.546875 163.1875 64 166.5625 L 48 245.0625 C 47.109375 247.960938 47.953125 251.125 50.179688 253.195312 C 52.398438 255.265625 55.609375 255.890625 58.445312 254.796875 C 61.28125 253.703125 63.242188 251.085938 63.5 248.0625 L 79.976562 169.335938 C 80.554688 166.703125 79.742188 163.953125 77.835938 162.046875 C 75.929688 160.132812 73.179688 159.328125 70.539062 159.898438 Z M 70.5625 160 "/>
<path style=" stroke:none;fill-rule:nonzero;fill:rgb(0%,100%,100%);fill-opacity:1;" d="M 102.5625 160 C 99.1875 160.546875 96.546875 163.1875 96 166.5625 L 80 245.0625 C 79.171875 249.476562 82.078125 253.734375 86.5 254.5625 C 90.921875 255.390625 95.171875 252.476562 96 248.0625 L 112 169.5625 C 112.640625 166.898438 111.859375 164.09375 109.9375 162.140625 C 108.023438 160.195312 105.234375 159.367188 102.5625 159.960938 Z M 102.5625 160 "/>
<path style=" stroke:none;fill-rule:nonzero;fill:rgb(0%,100%,100%);fill-opacity:1;" d="M 134.5625 160 C 131.1875 160.546875 128.546875 163.1875 128 166.5625 L 112 245.0625 C 111.171875 249.476562 114.078125 253.734375 118.5 254.5625 C 122.921875 255.390625 127.171875 252.476562 128 248.0625 L 144 169.5625 C 144.640625 166.898438 143.859375 164.09375 141.9375 162.140625 C 140.023438 160.195312 137.234375 159.367188 134.5625 159.960938 Z M 134.5625 160 "/>
<path style=" stroke:none;fill-rule:nonzero;fill:rgb(0%,100%,100%);fill-opacity:1;" d="M 166.5625 160 C 163.429688 160.75 161.054688 163.320312 160.5625 166.5 L 143.921875 244.898438 C 143.09375 249.320312 146 253.570312 150.421875 254.398438 C 154.835938 255.226562 159.09375 252.320312 159.921875 247.898438 L 175.921875 169.398438 C 176.492188 166.765625 175.6875 164.015625 173.773438 162.109375 C 171.867188 160.195312 169.117188 159.390625 166.476562 159.960938 Z M 166.5625 160 "/>
<path style=" stroke:none;fill-rule:nonzero;fill:rgb(0%,100%,100%);fill-opacity:1;" d="M 198.5625 160 C 195.429688 160.75 193.054688 163.320312 192.5625 166.5 L 176.5625 245 C 175.429688 247.96875 176.179688 251.320312 178.46875 253.523438 C 180.75 255.734375 184.125 256.367188 187.054688 255.140625 C 189.984375 253.90625 191.898438 251.054688 191.921875 247.882812 L 207.921875 169.382812 C 208.492188 166.742188 207.6875 163.992188 205.773438 162.085938 C 203.867188 160.179688 201.117188 159.367188 198.476562 159.9375 Z M 198.5625 160 "/>
</g>
</svg>
