<?xml version="1.0" encoding="UTF-8"?>
<svg xmlns="http://www.w3.org/2000/svg" xmlns:xlink="http://www.w3.org/1999/xlink" width="256" height="256" viewBox="0 0 256 256" version="1.1">
<g id="surface1">
<path style=" stroke:none;fill-rule:nonzero;fill:rgb(74.509804%,74.509804%,74.509804%);fill-opacity:1;" d="M 127.9375 47.84375 C 83.945312 47.84375 47.835938 83.945312 47.835938 127.9375 C 47.835938 171.9375 83.945312 208.039062 127.9375 208.039062 C 171.929688 208.039062 208.039062 171.929688 208.039062 127.9375 C 208.039062 83.945312 171.929688 47.84375 127.9375 47.84375 Z M 127.9375 47.84375 "/>
<path style=" stroke:none;fill-rule:nonzero;fill:rgb(74.509804%,74.509804%,74.509804%);fill-opacity:1;" d="M 9 112 L 23 112 C 27.96875 112 32 116.03125 32 121 L 32 135 C 32 139.96875 27.96875 144 23 144 L 9 144 C 4.03125 144 0 139.96875 0 135 L 0 121 C 0 116.03125 4.03125 112 9 112 Z M 9 112 "/>
<path style=" stroke:none;fill-rule:nonzero;fill:rgb(74.509804%,74.509804%,74.509804%);fill-opacity:1;" d="M 233 112 L 247 112 C 251.96875 112 256 116.03125 256 121 L 256 135 C 256 139.96875 251.96875 144 247 144 L 233 144 C 228.03125 144 224 139.96875 224 135 L 224 121 C 224 116.03125 228.03125 112 233 112 Z M 233 112 "/>
<path style=" stroke:none;fill-rule:nonzero;fill:rgb(74.509804%,74.509804%,74.509804%);fill-opacity:1;" d="M 144 9 L 144 23 C 144 27.96875 139.96875 32 135 32 L 121 32 C 116.03125 32 112 27.96875 112 23 L 112 9 C 112 4.03125 116.03125 0 121 0 L 135 0 C 139.96875 0 144 4.03125 144 9 Z M 144 9 "/>
<path style=" stroke:none;fill-rule:nonzero;fill:rgb(74.509804%,74.509804%,74.509804%);fill-opacity:1;" d="M 144 233 L 144 247 C 144 251.96875 139.96875 256 135 256 L 121 256 C 116.03125 256 112 251.96875 112 247 L 112 233 C 112 228.03125 116.03125 224 121 224 L 135 224 C 139.96875 224 144 228.03125 144 233 Z M 144 233 "/>
<path style=" stroke:none;fill-rule:nonzero;fill:rgb(74.509804%,74.509804%,74.509804%);fill-opacity:1;" d="M 223.476562 55.109375 L 213.570312 65.007812 C 210.0625 68.523438 204.359375 68.523438 200.84375 65.007812 L 190.945312 55.109375 C 187.429688 51.59375 187.429688 45.898438 190.945312 42.382812 L 200.84375 32.484375 C 204.359375 28.96875 210.0625 28.96875 213.570312 32.484375 L 223.476562 42.382812 C 226.992188 45.898438 226.992188 51.59375 223.476562 55.109375 Z M 223.476562 55.109375 "/>
<path style=" stroke:none;fill-rule:nonzero;fill:rgb(74.509804%,74.509804%,74.509804%);fill-opacity:1;" d="M 65.078125 213.5 L 55.179688 223.40625 C 51.664062 226.914062 45.96875 226.914062 42.453125 223.40625 L 32.554688 213.5 C 29.039062 209.992188 29.039062 204.289062 32.554688 200.773438 L 42.453125 190.875 C 45.96875 187.359375 51.664062 187.359375 55.179688 190.875 L 65.078125 200.773438 C 68.59375 204.289062 68.59375 209.992188 65.078125 213.5 Z M 65.078125 213.5 "/>
<path style=" stroke:none;fill-rule:nonzero;fill:rgb(74.509804%,74.509804%,74.509804%);fill-opacity:1;" d="M 55.109375 32.554688 L 65.007812 42.460938 C 68.523438 45.976562 68.523438 51.671875 65.007812 55.1875 L 55.109375 65.085938 C 51.59375 68.601562 45.898438 68.601562 42.382812 65.085938 L 32.484375 55.1875 C 28.96875 51.671875 28.96875 45.976562 32.484375 42.460938 L 42.382812 32.554688 C 45.898438 29.046875 51.59375 29.046875 55.109375 32.554688 Z M 55.109375 32.554688 "/>
<path style=" stroke:none;fill-rule:nonzero;fill:rgb(74.509804%,74.509804%,74.509804%);fill-opacity:1;" d="M 213.5 190.953125 L 223.40625 200.851562 C 226.914062 204.367188 226.914062 210.0625 223.40625 213.578125 L 213.5 223.476562 C 209.992188 226.992188 204.289062 226.992188 200.773438 223.476562 L 190.875 213.578125 C 187.359375 210.0625 187.359375 204.367188 190.875 200.851562 L 200.773438 190.953125 C 204.289062 187.4375 209.992188 187.4375 213.5 190.953125 Z M 213.5 190.953125 "/>
<path style=" stroke:none;fill-rule:nonzero;fill:rgb(100%,40%,0%);fill-opacity:1;" d="M 118.671875 31.539062 C 115.828125 30.757812 113.414062 28.414062 112.59375 25.648438 C 111.875 23.226562 111.859375 8.757812 112.570312 6.351562 C 113.210938 4.203125 115.101562 2.03125 117.1875 1.0625 C 118.8125 0.304688 119.085938 0.289062 128.078125 0.28125 C 136.8125 0.28125 137.375 0.320312 138.75 0.984375 C 140.46875 1.8125 142.179688 3.492188 143.015625 5.171875 C 143.546875 6.242188 143.632812 7.453125 143.71875 15.429688 C 143.820312 25.429688 143.703125 26.28125 141.804688 28.679688 C 141.21875 29.414062 139.976562 30.359375 138.898438 30.890625 L 137.015625 31.8125 L 128.59375 31.882812 C 122.640625 31.9375 119.734375 31.835938 118.671875 31.539062 Z M 118.671875 31.539062 "/>
<path style=" stroke:none;fill-rule:nonzero;fill:rgb(100%,40%,0%);fill-opacity:1;" d="M 205.367188 67.351562 C 203.078125 66.757812 201.6875 65.648438 195.710938 59.617188 C 189.742188 53.601562 189.382812 53.171875 188.851562 51.328125 C 188.484375 50.054688 188.351562 48.867188 188.484375 47.914062 C 188.898438 44.898438 189.789062 43.640625 195.71875 37.664062 C 202.117188 31.226562 203.929688 30 207.007812 30 C 210.578125 30 211.40625 30.53125 218.109375 37.15625 C 225.273438 44.242188 225.835938 45.101562 225.828125 48.820312 C 225.820312 50.710938 225.65625 51.609375 225.109375 52.617188 C 224.140625 54.429688 212.273438 66.15625 210.78125 66.78125 C 209.289062 67.40625 206.648438 67.679688 205.367188 67.351562 Z M 205.367188 67.351562 "/>
<path style=" stroke:none;fill-rule:nonzero;fill:rgb(100%,40%,0%);fill-opacity:1;" d="M 230.023438 143.289062 C 227.953125 142.570312 225.96875 140.765625 224.921875 138.640625 C 224.210938 137.203125 224.1875 136.796875 224.1875 128.0625 L 224.1875 118.984375 L 225.117188 117.09375 C 225.625 116.054688 226.585938 114.757812 227.25 114.210938 C 229.53125 112.328125 230.578125 112.179688 240.578125 112.28125 C 250.640625 112.390625 250.851562 112.4375 253.257812 114.773438 C 255.625 117.070312 255.703125 117.515625 255.710938 127.898438 C 255.710938 136.921875 255.695312 137.1875 254.9375 138.8125 C 254.507812 139.734375 253.515625 141.03125 252.726562 141.710938 C 250.40625 143.695312 249.125 143.914062 239.890625 143.90625 C 232.890625 143.898438 231.539062 143.8125 230.023438 143.289062 Z M 230.023438 143.289062 "/>
<path style=" stroke:none;fill-rule:nonzero;fill:rgb(100%,40%,0%);fill-opacity:1;" d="M 205.296875 225.796875 C 204.53125 225.640625 203.570312 225.335938 203.148438 225.125 C 201.835938 224.445312 189.992188 212.492188 189.289062 211.132812 C 188.320312 209.273438 188.148438 206.484375 188.851562 204.304688 C 189.375 202.703125 190.078125 201.875 195.914062 196.046875 C 201.726562 190.226562 202.570312 189.507812 204.15625 188.992188 C 206.296875 188.296875 209.085938 188.429688 210.976562 189.320312 C 211.757812 189.679688 214.71875 192.328125 218.171875 195.726562 C 225.015625 202.476562 225.859375 203.765625 225.796875 207.3125 C 225.773438 208.53125 225.515625 210.03125 225.1875 210.78125 C 224.328125 212.773438 212.820312 224.25 210.84375 225.09375 C 208.898438 225.914062 207.046875 226.148438 205.296875 225.796875 Z M 205.296875 225.796875 "/>
<path style=" stroke:none;fill-rule:nonzero;fill:rgb(100%,40%,0%);fill-opacity:1;" d="M 118.132812 255.414062 C 116.164062 254.6875 114.257812 253.046875 113.242188 251.210938 L 112.25 249.414062 L 112.25 230.59375 L 113.242188 228.804688 C 114.351562 226.796875 116.476562 225.054688 118.523438 224.484375 C 119.398438 224.234375 122.867188 224.148438 128.757812 224.21875 C 136.539062 224.304688 137.8125 224.390625 138.742188 224.898438 C 140.609375 225.921875 142.210938 227.5625 143.007812 229.265625 C 143.757812 230.875 143.773438 231.1875 143.773438 240 C 143.773438 248.84375 143.757812 249.125 143 250.75 C 142.570312 251.671875 141.59375 252.960938 140.820312 253.625 C 138.390625 255.703125 137.484375 255.851562 127.789062 255.828125 C 122.078125 255.8125 118.828125 255.671875 118.132812 255.414062 Z M 118.132812 255.414062 "/>
<path style=" stroke:none;fill-rule:nonzero;fill:rgb(100%,40%,0%);fill-opacity:1;" d="M 45.882812 225.398438 C 44.03125 224.742188 42.257812 223.242188 36.890625 217.796875 C 30.78125 211.601562 30.210938 210.695312 30.210938 207.148438 C 30.210938 203.492188 30.734375 202.679688 37.5625 195.859375 C 44.21875 189.203125 45.242188 188.507812 48.484375 188.5 C 52.226562 188.484375 52.546875 188.6875 59.539062 195.570312 C 66.742188 202.65625 67.507812 203.765625 67.5 207.148438 C 67.492188 210.429688 66.820312 211.4375 60.148438 218.164062 C 53.335938 225.023438 52.171875 225.8125 48.851562 225.773438 C 47.765625 225.765625 46.421875 225.59375 45.882812 225.398438 Z M 45.882812 225.398438 "/>
<path style=" stroke:none;fill-rule:nonzero;fill:rgb(100%,40%,0%);fill-opacity:1;" d="M 6.539062 143.5625 C 4.335938 142.90625 2.359375 141.210938 1.210938 138.984375 L 0.109375 136.851562 L 0.210938 127.585938 C 0.296875 119.476562 0.382812 118.195312 0.898438 117.257812 C 1.914062 115.390625 3.5625 113.789062 5.265625 112.992188 C 6.867188 112.242188 7.179688 112.226562 16 112.226562 C 24.8125 112.226562 25.125 112.242188 26.734375 112.992188 C 28.4375 113.789062 30.078125 115.390625 31.101562 117.257812 C 31.609375 118.1875 31.695312 119.460938 31.78125 127.242188 C 31.851562 133.132812 31.765625 136.601562 31.515625 137.476562 C 30.945312 139.523438 29.203125 141.648438 27.195312 142.757812 L 25.40625 143.75 L 16.492188 143.8125 C 11.585938 143.84375 7.109375 143.734375 6.539062 143.5625 Z M 6.539062 143.5625 "/>
<path style=" stroke:none;fill-rule:nonzero;fill:rgb(100%,40%,0%);fill-opacity:1;" d="M 45.757812 67.023438 C 44.203125 66.46875 43.1875 65.601562 37.742188 60.164062 C 30.695312 53.132812 30.0625 52.195312 30.0625 48.820312 C 30.0625 45.421875 30.679688 44.507812 37.859375 37.375 C 43.921875 31.351562 44.320312 31.015625 46.179688 30.484375 C 48.523438 29.804688 50.664062 29.984375 52.710938 31.007812 C 54.6875 32 65.195312 42.46875 66.40625 44.648438 C 67.203125 46.085938 67.34375 46.710938 67.34375 48.820312 C 67.34375 50.921875 67.203125 51.546875 66.40625 52.992188 C 65.179688 55.195312 54.6875 65.632812 52.671875 66.648438 C 50.632812 67.671875 47.976562 67.820312 45.757812 67.023438 Z M 45.757812 67.023438 "/>
<path style=" stroke:none;fill-rule:nonzero;fill:rgb(100%,100%,0%);fill-opacity:1;" d="M 121 207.617188 C 111.101562 206.679688 102.484375 204.265625 93.390625 199.898438 C 69.65625 188.492188 52.914062 165.914062 48.828125 139.789062 C 48.101562 135.164062 47.851562 125.125 48.335938 120.289062 C 52.070312 82.90625 81.40625 53.03125 118.851562 48.46875 C 123.101562 47.945312 132.773438 47.945312 137.015625 48.46875 C 172.960938 52.859375 201.421875 80.382812 207.078125 116.210938 C 207.914062 121.53125 207.914062 134.28125 207.078125 139.609375 C 202.984375 165.5625 186.90625 187.640625 163.523438 199.414062 C 150.398438 206.023438 135.171875 208.960938 121 207.617188 Z M 121 207.617188 "/>
</g>
</svg>
