<?xml version="1.0" encoding="UTF-8"?>
<svg xmlns="http://www.w3.org/2000/svg" xmlns:xlink="http://www.w3.org/1999/xlink" width="28" height="28" viewBox="0 0 28 28" version="1.1">
<g id="surface1">
<path style=" stroke:none;fill-rule:nonzero;fill:rgb(74.509804%,74.509804%,74.509804%);fill-opacity:1;" d="M 6.980469 15.941406 C 8.636719 15.457031 10.398438 16.460938 10.921875 18.1875 L 12.105469 22.082031 C 12.625 23.804688 11.707031 25.59375 10.054688 26.078125 C 8.398438 26.5625 6.632812 25.554688 6.109375 23.832031 L 4.929688 19.9375 C 4.40625 18.214844 5.324219 16.425781 6.980469 15.941406 Z M 6.980469 15.941406 "/>
<path style=" stroke:none;fill-rule:nonzero;fill:rgb(74.509804%,74.509804%,74.509804%);fill-opacity:1;" d="M 13.945312 1.75 C 8.160156 1.75 3.40625 7.015625 3.5 11.757812 C 3.585938 15.898438 4.914062 19.976562 5.25 21 L 7.921875 21 C 5.886719 16.988281 6.085938 11.976562 6.085938 11.976562 C 6.085938 7.824219 9.597656 4.429688 13.945312 4.429688 C 18.296875 4.429688 21.820312 7.628906 21.804688 11.921875 C 21.765625 14.851562 21.507812 16.574219 20.046875 21 L 22.796875 21 C 23.1875 19.871094 24.5 15.417969 24.5 11.757812 C 24.5 6.804688 19.730469 1.75 13.945312 1.75 Z M 13.945312 1.75 "/>
<path style=" stroke:none;fill-rule:nonzero;fill:rgb(74.509804%,74.509804%,74.509804%);fill-opacity:1;" d="M 21.019531 16.003906 C 19.367188 15.519531 17.601562 16.527344 17.078125 18.25 L 15.894531 22.144531 C 15.375 23.867188 16.292969 25.65625 17.945312 26.140625 C 19.601562 26.625 21.367188 25.621094 21.890625 23.894531 L 23.070312 20 C 23.59375 18.277344 22.675781 16.488281 21.019531 16.003906 Z M 21.019531 16.003906 "/>
<path style=" stroke:none;fill-rule:nonzero;fill:rgb(100%,100%,100%);fill-opacity:1;" d="M 18.492188 26.234375 C 17.132812 26.089844 16.070312 25.085938 15.804688 23.691406 C 15.753906 23.421875 15.761719 22.757812 15.820312 22.492188 C 15.863281 22.289062 16.667969 19.601562 17.027344 18.457031 C 17.117188 18.175781 17.246094 17.835938 17.316406 17.695312 C 17.609375 17.109375 18.117188 16.585938 18.679688 16.277344 C 19.132812 16.027344 19.621094 15.90625 20.171875 15.90625 C 20.554688 15.90625 20.84375 15.953125 21.179688 16.070312 C 21.300781 16.113281 21.40625 16.140625 21.414062 16.136719 C 21.433594 16.117188 21.542969 15.503906 21.601562 15.089844 C 21.816406 13.542969 21.871094 11.566406 21.722656 10.703125 C 21.367188 8.632812 20.269531 6.941406 18.515625 5.769531 C 16.496094 4.417969 13.75 4.050781 11.425781 4.820312 C 10.160156 5.238281 9.105469 5.894531 8.1875 6.84375 C 7.027344 8.039062 6.328125 9.488281 6.121094 11.136719 C 6.0625 11.585938 6.074219 13.242188 6.136719 14.019531 C 6.214844 14.960938 6.371094 16.171875 6.417969 16.171875 C 6.429688 16.171875 6.527344 16.128906 6.636719 16.082031 C 7.746094 15.578125 9.136719 15.859375 10.058594 16.769531 C 10.449219 17.15625 10.714844 17.601562 10.902344 18.175781 C 11.085938 18.730469 12.09375 22.078125 12.160156 22.339844 C 12.234375 22.648438 12.25 23.351562 12.183594 23.675781 C 11.992188 24.660156 11.394531 25.445312 10.527344 25.871094 C 10.023438 26.117188 9.816406 26.164062 9.183594 26.160156 C 8.695312 26.160156 8.636719 26.152344 8.394531 26.078125 C 7.445312 25.792969 6.6875 25.140625 6.285156 24.261719 C 6.230469 24.136719 5.972656 23.347656 5.71875 22.511719 C 5.460938 21.671875 5.191406 20.792969 5.117188 20.558594 C 4.347656 18.144531 3.808594 15.578125 3.59375 13.273438 C 3.527344 12.585938 3.503906 11.289062 3.546875 10.871094 C 3.765625 8.832031 4.792969 6.769531 6.433594 5.085938 C 8.238281 3.230469 10.472656 2.105469 12.898438 1.820312 C 13.382812 1.761719 14.414062 1.753906 14.890625 1.804688 C 16.617188 1.984375 18.261719 2.578125 19.703125 3.539062 C 22.207031 5.214844 23.945312 7.789062 24.382812 10.464844 C 24.480469 11.082031 24.507812 11.675781 24.472656 12.453125 C 24.390625 14.214844 24.097656 16.078125 23.5625 18.273438 C 23.304688 19.332031 22.832031 20.960938 22.773438 21 C 22.761719 21.007812 22.546875 21.695312 22.292969 22.527344 C 22.042969 23.359375 21.789062 24.144531 21.734375 24.277344 C 21.585938 24.628906 21.296875 25.039062 20.992188 25.335938 C 20.4375 25.871094 19.804688 26.164062 19.0625 26.234375 C 18.890625 26.25 18.742188 26.261719 18.734375 26.261719 C 18.726562 26.257812 18.617188 26.246094 18.492188 26.234375 Z M 18.492188 26.234375 "/>
</g>
</svg>
