<?xml version="1.0" encoding="UTF-8"?>
<svg xmlns="http://www.w3.org/2000/svg" xmlns:xlink="http://www.w3.org/1999/xlink" width="28" height="28" viewBox="0 0 28 28" version="1.1">
<g id="surface1">
<path style=" stroke:none;fill-rule:nonzero;fill:rgb(74.509804%,74.509804%,74.509804%);fill-opacity:1;" d="M 13.945312 0 C 8.160156 0 3.40625 5.265625 3.5 10.007812 C 3.609375 15.296875 5.132812 18.226562 5.46875 19.25 L 7.921875 19.25 C 5.886719 15.238281 6.085938 10.226562 6.085938 10.226562 C 6.085938 6.074219 9.597656 2.679688 13.945312 2.679688 C 18.296875 2.679688 21.820312 6.039062 21.804688 10.335938 C 21.765625 13.265625 21.507812 14.332031 20.046875 18.757812 L 22.796875 18.757812 C 23.1875 17.628906 24.5 15.144531 24.5 10.171875 C 24.5 5.21875 19.730469 0 13.945312 0 Z M 13.945312 0 "/>
<path style=" stroke:none;fill-rule:nonzero;fill:rgb(74.509804%,74.509804%,74.509804%);fill-opacity:1;" d="M 22.050781 12.34375 C 20.585938 11.9375 18.957031 12.996094 18.414062 14.710938 L 17.667969 17.058594 C 17.121094 18.773438 17.867188 20.496094 19.332031 20.90625 C 20.796875 21.3125 22.421875 20.253906 22.96875 18.539062 L 23.714844 16.191406 C 24.257812 14.476562 23.511719 12.753906 22.050781 12.34375 Z M 22.050781 12.34375 "/>
<path style=" stroke:none;fill-rule:nonzero;fill:rgb(74.509804%,74.509804%,74.509804%);fill-opacity:1;" d="M 6.042969 12.355469 C 7.507812 11.945312 9.132812 13.003906 9.679688 14.71875 L 10.425781 17.070312 C 10.96875 18.785156 10.222656 20.503906 8.761719 20.914062 C 7.296875 21.324219 5.667969 20.261719 5.125 18.550781 L 4.378906 16.199219 C 3.832031 14.484375 4.578125 12.761719 6.042969 12.355469 Z M 6.042969 12.355469 "/>
<path style=" stroke:none;fill-rule:nonzero;fill:rgb(74.509804%,74.509804%,74.509804%);fill-opacity:1;" d="M 12.332031 24.449219 L 15.722656 24.449219 C 16.675781 24.449219 17.445312 25.21875 17.445312 26.171875 C 17.445312 27.121094 16.675781 27.894531 15.722656 27.894531 L 12.332031 27.894531 C 11.382812 27.894531 10.609375 27.121094 10.609375 26.171875 C 10.609375 25.21875 11.382812 24.449219 12.332031 24.449219 Z M 12.332031 24.449219 "/>
<path style=" stroke:none;fill-rule:nonzero;fill:rgb(74.509804%,74.509804%,74.509804%);fill-opacity:1;" d="M 22.039062 16.46875 C 21.644531 16.539062 21.347656 16.871094 21.320312 17.273438 C 21.296875 17.671875 21.546875 18.039062 21.929688 18.164062 L 24.5 19.089844 L 24.445312 22.152344 C 24.4375 23.085938 24.207031 23.671875 23.898438 24.011719 C 23.589844 24.34375 23.195312 24.503906 22.640625 24.503906 L 15.367188 24.503906 C 15.050781 24.496094 14.757812 24.664062 14.601562 24.9375 C 14.441406 25.207031 14.441406 25.546875 14.601562 25.820312 C 14.757812 26.089844 15.050781 26.257812 15.367188 26.253906 L 22.640625 26.253906 C 23.597656 26.253906 24.554688 25.882812 25.210938 25.160156 C 25.871094 24.433594 26.183594 23.390625 26.195312 22.148438 L 26.25 18.476562 L 26.25 17.875 L 25.703125 17.65625 L 22.585938 16.507812 C 22.414062 16.429688 22.222656 16.410156 22.039062 16.453125 Z M 22.039062 16.46875 "/>
<path style=" stroke:none;fill-rule:nonzero;fill:rgb(100%,100%,100%);fill-opacity:1;" d="M 11.902344 27.820312 C 11.300781 27.65625 10.808594 27.15625 10.671875 26.574219 C 10.570312 26.121094 10.664062 25.597656 10.925781 25.207031 C 11.195312 24.800781 11.617188 24.550781 12.132812 24.480469 C 12.320312 24.457031 13.03125 24.449219 14.171875 24.460938 C 18.421875 24.511719 22.789062 24.519531 23.023438 24.484375 C 23.714844 24.367188 24.171875 23.875 24.359375 23.046875 C 24.421875 22.785156 24.4375 22.515625 24.464844 21.449219 C 24.484375 20.742188 24.5 19.921875 24.5 19.621094 L 24.503906 19.078125 L 23.789062 18.820312 C 23.398438 18.679688 23.050781 18.554688 23.019531 18.542969 C 22.976562 18.523438 22.9375 18.589844 22.84375 18.828125 C 22.683594 19.242188 22.347656 19.75 22.015625 20.078125 C 20.601562 21.472656 18.570312 21.207031 17.785156 19.523438 C 17.585938 19.097656 17.519531 18.777344 17.519531 18.199219 C 17.519531 17.824219 17.535156 17.601562 17.578125 17.429688 C 17.695312 16.964844 18.480469 14.53125 18.597656 14.273438 C 18.933594 13.539062 19.519531 12.910156 20.167969 12.582031 C 20.558594 12.386719 20.867188 12.304688 21.3125 12.285156 C 21.683594 12.265625 21.71875 12.257812 21.734375 12.1875 C 21.789062 11.976562 21.828125 10.238281 21.792969 9.761719 C 21.558594 6.667969 19.5 4.066406 16.507812 3.082031 C 13.59375 2.125 10.386719 2.871094 8.265625 5.003906 C 7.039062 6.238281 6.3125 7.746094 6.117188 9.457031 C 6.070312 9.847656 6.085938 12.164062 6.132812 12.277344 C 6.152344 12.324219 6.195312 12.324219 6.433594 12.296875 C 7.257812 12.191406 8.269531 12.625 8.890625 13.351562 C 9.359375 13.894531 9.496094 14.199219 10 15.777344 C 10.558594 17.523438 10.574219 17.589844 10.574219 18.214844 C 10.570312 18.824219 10.503906 19.125 10.25 19.640625 C 10.035156 20.078125 9.640625 20.492188 9.234375 20.699219 C 7.699219 21.5 5.789062 20.503906 5.144531 18.566406 C 4.300781 16.023438 3.941406 14.585938 3.71875 12.835938 C 3.554688 11.539062 3.476562 9.8125 3.550781 9.113281 C 3.992188 5.070312 7.539062 1.242188 11.753906 0.269531 C 12.554688 0.0859375 13.074219 0.0273438 13.96875 0.0273438 C 16.757812 0.0273438 19.367188 1.183594 21.488281 3.359375 C 22.835938 4.738281 23.824219 6.476562 24.234375 8.175781 C 24.460938 9.117188 24.515625 9.796875 24.464844 11.09375 C 24.394531 13.035156 24.105469 14.894531 23.644531 16.402344 L 23.503906 16.859375 L 23.597656 16.890625 C 24.023438 17.042969 25.570312 17.617188 25.867188 17.734375 L 26.234375 17.878906 L 26.234375 18.515625 C 26.234375 18.867188 26.21875 19.960938 26.203125 20.941406 C 26.167969 22.886719 26.132812 23.222656 25.929688 23.847656 C 25.484375 25.207031 24.445312 26.050781 23.023438 26.214844 C 22.851562 26.234375 21.5625 26.25 20.078125 26.25 L 17.441406 26.25 L 17.394531 26.492188 C 17.273438 27.136719 16.78125 27.65625 16.132812 27.824219 C 15.835938 27.902344 12.195312 27.898438 11.902344 27.820312 Z M 11.902344 27.820312 "/>
</g>
</svg>
