<?xml version="1.0" encoding="UTF-8"?>
<svg xmlns="http://www.w3.org/2000/svg" xmlns:xlink="http://www.w3.org/1999/xlink" width="28" height="28" viewBox="0 0 28 28" version="1.1">
<g id="surface1">
<path style=" stroke:none;fill-rule:nonzero;fill:rgb(74.509804%,74.509804%,74.509804%);fill-opacity:1;" d="M 6.125 8.75 C 5.640625 8.75 5.25 9.140625 5.25 9.625 L 5.25 14.820312 C 5.25 18.265625 7.453125 21.164062 10.5 22.257812 L 10.5 24.5 L 7 24.5 C 6.011719 24.5 5.25 25.359375 5.25 26.25 L 5.25 28 L 21 28 L 21 26.25 C 21 25.226562 20.164062 24.5 19.25 24.5 L 15.75 24.5 L 15.75 22.257812 C 18.796875 21.164062 21 18.265625 21 14.820312 L 21 9.625 C 21 9.140625 20.609375 8.75 20.125 8.75 C 19.640625 8.75 19.25 9.140625 19.25 9.625 C 19.25 9.746094 19.261719 9.847656 19.304688 9.953125 L 19.304688 14.820312 C 19.304688 18.257812 16.542969 21 13.125 21 C 9.707031 21 7 18.257812 7 14.820312 L 7 9.625 C 7 9.140625 6.609375 8.75 6.125 8.75 Z M 13.125 1.734375 C 15.546875 1.734375 17.5 3.683594 17.5 6.109375 L 17.5 14.875 C 17.5 17.296875 15.546875 19.25 13.125 19.25 C 10.703125 19.25 8.75 17.296875 8.75 14.875 L 8.75 6.101562 C 8.75 3.679688 10.703125 1.726562 13.125 1.726562 Z M 13.125 1.734375 "/>
<path style=" stroke:none;fill-rule:nonzero;fill:rgb(100%,100%,100%);fill-opacity:1;" d="M 12.585938 19.203125 C 12.136719 19.152344 11.652344 19.003906 11.195312 18.777344 C 10.699219 18.53125 10.390625 18.308594 10.023438 17.933594 C 9.648438 17.554688 9.464844 17.292969 9.222656 16.804688 C 8.988281 16.328125 8.851562 15.867188 8.792969 15.359375 C 8.742188 14.921875 8.742188 6.050781 8.792969 5.609375 C 8.980469 3.96875 10.09375 2.558594 11.644531 2 C 12.234375 1.789062 12.792969 1.714844 13.441406 1.765625 C 14.519531 1.847656 15.4375 2.265625 16.199219 3.027344 C 16.816406 3.636719 17.191406 4.320312 17.398438 5.214844 C 17.472656 5.53125 17.476562 5.609375 17.488281 10.25 C 17.496094 13.609375 17.488281 15.066406 17.460938 15.324219 C 17.285156 16.859375 16.386719 18.140625 15.023438 18.796875 C 14.253906 19.167969 13.441406 19.304688 12.585938 19.203125 Z M 12.585938 19.203125 "/>
<path style=" stroke:none;fill-rule:nonzero;fill:rgb(100%,100%,100%);fill-opacity:1;" d="M 5.253906 27.070312 C 5.253906 26.042969 5.285156 25.804688 5.472656 25.453125 C 5.617188 25.183594 5.902344 24.890625 6.164062 24.738281 C 6.542969 24.519531 6.597656 24.515625 8.65625 24.515625 L 10.527344 24.515625 L 10.527344 22.25 L 10.316406 22.175781 C 10 22.058594 9.355469 21.734375 8.988281 21.507812 C 7.347656 20.496094 6.09375 18.835938 5.566406 16.988281 C 5.277344 15.964844 5.246094 15.496094 5.261719 12.128906 C 5.269531 9.40625 5.269531 9.402344 5.351562 9.257812 C 5.449219 9.066406 5.675781 8.863281 5.847656 8.808594 C 6.210938 8.6875 6.652344 8.851562 6.859375 9.183594 L 6.96875 9.359375 L 6.988281 12.453125 C 7.011719 15.824219 7.007812 15.773438 7.234375 16.554688 C 7.9375 18.992188 9.964844 20.699219 12.484375 20.976562 C 13.871094 21.128906 15.347656 20.769531 16.515625 20.003906 C 17.910156 19.085938 18.800781 17.769531 19.199219 16.042969 C 19.28125 15.6875 19.28125 15.675781 19.289062 12.515625 L 19.296875 9.34375 L 19.398438 9.175781 C 19.597656 8.851562 20.046875 8.6875 20.40625 8.808594 C 20.578125 8.863281 20.800781 9.066406 20.902344 9.257812 L 20.980469 9.402344 L 20.980469 12.398438 C 20.980469 15.546875 20.972656 15.703125 20.8125 16.453125 C 20.382812 18.464844 19.183594 20.230469 17.46875 21.375 C 17.058594 21.648438 16.402344 21.992188 15.988281 22.152344 L 15.726562 22.253906 L 15.726562 24.515625 L 17.597656 24.515625 C 19.136719 24.515625 19.503906 24.527344 19.671875 24.570312 C 20.25 24.71875 20.6875 25.125 20.898438 25.695312 C 20.96875 25.890625 20.976562 25.996094 20.992188 26.945312 L 21.007812 27.984375 L 5.253906 27.984375 Z M 5.253906 27.070312 "/>
</g>
</svg>
