<?xml version="1.0" encoding="UTF-8"?>
<svg xmlns="http://www.w3.org/2000/svg" xmlns:xlink="http://www.w3.org/1999/xlink" width="28" height="28" viewBox="0 0 28 28" version="1.1">
<g id="surface1">
<path style=" stroke:none;fill-rule:nonzero;fill:rgb(74.509804%,74.509804%,74.509804%);fill-opacity:1;" d="M 20.125 1.75 C 23.507812 1.75 26.25 4.492188 26.25 7.875 C 26.25 9.835938 25.328125 11.566406 23.898438 12.6875 C 24.265625 13.007812 24.5 13.472656 24.5 14 C 24.496094 17.5 24.5 19.339844 24.5 24.5 C 24.5 25.46875 23.71875 26.25 22.75 26.25 L 7 26.25 C 6.03125 26.25 5.25 25.46875 5.25 24.5 L 5.25 20.726562 L 0.765625 24.0625 C 0.730469 24.085938 0.695312 24.101562 0.65625 24.117188 C 0.601562 24.125 0.546875 24.125 0.492188 24.117188 C 0.457031 24.121094 0.417969 24.121094 0.382812 24.117188 C 0.34375 24.101562 0.308594 24.085938 0.273438 24.0625 C 0.234375 24.046875 0.199219 24.03125 0.164062 24.007812 C 0.144531 23.992188 0.125 23.972656 0.109375 23.953125 C 0.0898438 23.9375 0.0703125 23.917969 0.0546875 23.898438 C 0.03125 23.863281 0.015625 23.828125 0 23.789062 C -0.00390625 23.753906 -0.00390625 23.714844 0 23.679688 L 0 13.070312 C -0.00390625 13.035156 -0.00390625 12.996094 0 12.960938 C 0.015625 12.921875 0.03125 12.886719 0.0546875 12.851562 C 0.0742188 12.832031 0.0898438 12.8125 0.109375 12.796875 C 0.128906 12.777344 0.144531 12.757812 0.164062 12.742188 C 0.179688 12.722656 0.199219 12.703125 0.21875 12.6875 C 0.234375 12.667969 0.253906 12.648438 0.273438 12.632812 C 0.308594 12.609375 0.34375 12.59375 0.382812 12.578125 C 0.4375 12.570312 0.492188 12.570312 0.546875 12.578125 C 0.566406 12.578125 0.582031 12.578125 0.601562 12.578125 C 0.621094 12.597656 0.640625 12.613281 0.65625 12.632812 C 0.695312 12.648438 0.730469 12.664062 0.765625 12.6875 L 5.25 16.023438 L 5.25 14 C 5.25 13.472656 5.484375 13.007812 5.851562 12.6875 C 4.421875 11.566406 3.5 9.835938 3.5 7.875 C 3.5 4.492188 6.242188 1.75 9.625 1.75 C 11.871094 1.75 13.808594 2.957031 14.875 4.757812 C 15.941406 2.957031 17.878906 1.75 20.125 1.75 Z M 20.125 5.25 C 18.675781 5.25 17.5 6.425781 17.5 7.875 C 17.5 9.324219 18.675781 10.5 20.125 10.5 C 21.574219 10.5 22.75 9.324219 22.75 7.875 C 22.75 6.425781 21.574219 5.25 20.125 5.25 Z M 9.625 5.25 C 8.175781 5.25 7 6.425781 7 7.875 C 7 9.324219 8.175781 10.5 9.625 10.5 C 11.074219 10.5 12.25 9.324219 12.25 7.875 C 12.25 6.425781 11.074219 5.25 9.625 5.25 Z M 14.875 10.992188 C 14.597656 11.460938 14.277344 11.871094 13.890625 12.25 L 15.859375 12.25 C 15.472656 11.871094 15.152344 11.460938 14.875 10.992188 Z M 14.875 10.992188 "/>
<path style=" stroke:none;fill-rule:nonzero;fill:rgb(100%,100%,100%);fill-opacity:1;" d="M 6.71875 26.210938 C 6.222656 26.136719 5.699219 25.761719 5.476562 25.328125 C 5.269531 24.917969 5.277344 24.976562 5.253906 22.773438 L 5.234375 20.722656 L 3.210938 22.230469 C 2.101562 23.058594 1.070312 23.820312 0.921875 23.925781 C 0.621094 24.144531 0.503906 24.164062 0.269531 24.046875 C -0.0078125 23.90625 0.015625 24.4375 0.015625 18.363281 L 0.015625 12.914062 L 0.175781 12.757812 C 0.363281 12.566406 0.515625 12.546875 0.730469 12.6875 C 0.804688 12.734375 1.847656 13.503906 3.050781 14.398438 L 5.234375 16.027344 L 5.253906 14.847656 C 5.269531 13.832031 5.285156 13.636719 5.339844 13.484375 C 5.429688 13.238281 5.5625 13.011719 5.726562 12.835938 L 5.863281 12.6875 L 5.554688 12.417969 C 4.722656 11.695312 4.035156 10.597656 3.742188 9.53125 C 3.570312 8.90625 3.539062 8.640625 3.539062 7.847656 C 3.542969 6.988281 3.589844 6.671875 3.84375 5.914062 C 4.488281 3.976562 6.09375 2.480469 8.089844 1.964844 C 9.816406 1.515625 11.679688 1.851562 13.125 2.875 C 13.570312 3.191406 14.273438 3.894531 14.570312 4.324219 C 14.699219 4.507812 14.824219 4.6875 14.847656 4.71875 C 14.882812 4.769531 14.894531 4.761719 14.945312 4.660156 C 15.078125 4.40625 15.558594 3.816406 15.933594 3.457031 C 17.425781 2.015625 19.527344 1.453125 21.589844 1.941406 C 22.261719 2.101562 22.972656 2.421875 23.617188 2.859375 C 24.050781 3.152344 24.847656 3.953125 25.140625 4.382812 C 25.917969 5.535156 26.277344 6.761719 26.222656 8.101562 C 26.15625 9.808594 25.449219 11.289062 24.152344 12.453125 L 23.890625 12.683594 L 24.015625 12.820312 C 24.191406 13.015625 24.308594 13.210938 24.402344 13.472656 L 24.484375 13.699219 L 24.496094 19.046875 C 24.5 22.484375 24.492188 24.5 24.46875 24.691406 C 24.375 25.480469 23.769531 26.105469 23.003906 26.214844 C 22.6875 26.257812 7.023438 26.253906 6.71875 26.210938 Z M 15.605469 11.964844 C 15.457031 11.792969 15.234375 11.507812 15.113281 11.332031 C 14.992188 11.15625 14.878906 11.011719 14.867188 11.011719 C 14.851562 11.011719 14.785156 11.101562 14.71875 11.210938 C 14.601562 11.40625 14.335938 11.75 14.027344 12.101562 L 13.875 12.273438 L 15.875 12.273438 Z M 10.433594 10.378906 C 11.585938 9.992188 12.320312 8.921875 12.25 7.726562 C 12.191406 6.761719 11.628906 5.917969 10.761719 5.503906 C 10.363281 5.3125 10.097656 5.253906 9.621094 5.253906 C 9.132812 5.253906 8.875 5.3125 8.429688 5.53125 C 8.175781 5.652344 8.0625 5.738281 7.78125 6.023438 C 7.5 6.304688 7.40625 6.425781 7.28125 6.675781 C 7.0625 7.117188 7.007812 7.371094 7.007812 7.886719 C 7.007812 8.238281 7.023438 8.371094 7.089844 8.589844 C 7.390625 9.558594 8.109375 10.234375 9.0625 10.453125 C 9.417969 10.535156 10.082031 10.5 10.433594 10.378906 Z M 20.691406 10.449219 C 21.007812 10.382812 21.453125 10.171875 21.75 9.945312 C 22.175781 9.625 22.511719 9.121094 22.664062 8.570312 C 22.761719 8.230469 22.777344 7.605469 22.699219 7.289062 C 22.457031 6.304688 21.695312 5.542969 20.710938 5.300781 C 20.433594 5.230469 19.773438 5.238281 19.484375 5.316406 C 18.71875 5.515625 18.097656 6.03125 17.742188 6.765625 C 17.378906 7.519531 17.421875 8.480469 17.847656 9.199219 C 18.222656 9.832031 18.855469 10.292969 19.574219 10.449219 C 19.867188 10.515625 20.382812 10.515625 20.691406 10.449219 Z M 20.691406 10.449219 "/>
</g>
</svg>
