<?xml version="1.0" encoding="UTF-8"?>
<svg xmlns="http://www.w3.org/2000/svg" xmlns:xlink="http://www.w3.org/1999/xlink" width="28" height="28" viewBox="0 0 28 28" version="1.1">
<g id="surface1">
<path style=" stroke:none;fill-rule:nonzero;fill:rgb(74.509804%,74.509804%,74.509804%);fill-opacity:1;" d="M 10.5 3.5 C 9.539062 3.5 8.75 4.289062 8.75 5.25 L 8.75 7 L 3.5 7 C 2.535156 7 1.75 7.789062 1.75 8.75 L 1.75 22.75 C 1.75 23.710938 2.535156 24.5 3.5 24.5 L 24.5 24.5 C 25.464844 24.5 26.25 23.710938 26.25 22.75 L 26.25 8.75 C 26.25 7.789062 25.464844 7 24.5 7 L 19.25 7 L 19.25 5.25 C 19.25 4.289062 18.460938 3.5 17.5 3.5 Z M 14 8.75 C 17.867188 8.75 21 11.882812 21 15.75 C 21 19.617188 17.867188 22.75 14 22.75 C 10.132812 22.75 7 19.617188 7 15.75 C 7 11.882812 10.132812 8.75 14 8.75 Z M 14 12.25 C 12.066406 12.25 10.5 13.816406 10.5 15.75 C 10.5 17.683594 12.066406 19.25 14 19.25 C 15.933594 19.25 17.5 17.683594 17.5 15.75 C 17.5 13.816406 15.933594 12.25 14 12.25 Z M 14 12.25 "/>
<path style=" stroke:none;fill-rule:nonzero;fill:rgb(100%,100%,100%);fill-opacity:1;" d="M 13.523438 19.207031 C 12.144531 19.015625 10.996094 17.992188 10.625 16.628906 C 10.554688 16.378906 10.542969 16.25 10.546875 15.722656 C 10.546875 15.160156 10.554688 15.082031 10.648438 14.785156 C 10.941406 13.828125 11.585938 13.058594 12.457031 12.632812 C 13.03125 12.351562 13.28125 12.296875 14.011719 12.296875 C 14.578125 12.296875 14.648438 12.304688 14.949219 12.394531 C 16.351562 12.824219 17.289062 13.933594 17.460938 15.359375 C 17.613281 16.644531 17.015625 17.921875 15.921875 18.648438 C 15.554688 18.894531 15.292969 19.011719 14.859375 19.121094 C 14.472656 19.222656 13.890625 19.257812 13.523438 19.207031 Z M 13.523438 19.207031 "/>
<path style=" stroke:none;fill-rule:nonzero;fill:rgb(100%,100%,100%);fill-opacity:1;" d="M 3.058594 24.425781 C 2.488281 24.269531 2.039062 23.847656 1.84375 23.28125 L 1.769531 23.054688 L 1.757812 15.941406 C 1.75 11.1875 1.757812 8.730469 1.785156 8.535156 C 1.882812 7.777344 2.484375 7.15625 3.230469 7.039062 C 3.371094 7.015625 4.503906 7 6.109375 7 L 8.757812 7 L 8.757812 6.066406 C 8.757812 5.554688 8.773438 5.046875 8.792969 4.9375 C 8.925781 4.21875 9.554688 3.628906 10.289062 3.53125 C 10.480469 3.507812 11.828125 3.496094 14.191406 3.503906 L 17.804688 3.515625 L 18.066406 3.613281 C 18.488281 3.765625 18.851562 4.082031 19.046875 4.464844 C 19.207031 4.785156 19.230469 4.96875 19.230469 6.015625 L 19.230469 6.996094 L 22.039062 7.007812 L 24.84375 7.019531 L 25.085938 7.113281 C 25.488281 7.269531 25.773438 7.511719 25.996094 7.878906 C 26.25 8.304688 26.234375 7.796875 26.234375 15.765625 C 26.234375 23.667969 26.25 23.136719 26.015625 23.578125 C 25.828125 23.933594 25.476562 24.238281 25.085938 24.386719 L 24.882812 24.460938 L 14.066406 24.46875 C 4.84375 24.476562 3.21875 24.46875 3.058594 24.425781 Z M 14.964844 22.691406 C 17.597656 22.316406 19.800781 20.492188 20.636719 17.992188 C 20.898438 17.214844 21 16.578125 21 15.734375 C 21 14.566406 20.742188 13.523438 20.199219 12.492188 C 18.425781 9.109375 14.289062 7.777344 10.867188 9.484375 C 8.269531 10.78125 6.734375 13.558594 7.023438 16.433594 C 7.347656 19.640625 9.78125 22.195312 12.980469 22.6875 C 13.441406 22.757812 14.484375 22.761719 14.964844 22.691406 Z M 14.964844 22.691406 "/>
</g>
</svg>
