<?xml version="1.0" encoding="UTF-8"?>
<svg xmlns="http://www.w3.org/2000/svg" xmlns:xlink="http://www.w3.org/1999/xlink" width="28" height="28" viewBox="0 0 28 28" version="1.1">
<g id="surface1">
<path style=" stroke:none;fill-rule:nonzero;fill:rgb(74.509804%,74.509804%,74.509804%);fill-opacity:1;" d="M 3.554688 7 L 17.5 7 C 18.464844 7 19.25 7.785156 19.25 8.75 L 19.25 21 C 19.25 21.964844 18.464844 22.75 17.5 22.75 L 3.554688 22.75 C 2.585938 22.75 1.804688 21.964844 1.804688 21 L 1.804688 8.75 C 1.804688 7.785156 2.585938 7 3.554688 7 Z M 3.554688 7 "/>
<path style=" stroke:none;fill-rule:nonzero;fill:rgb(74.509804%,74.509804%,74.509804%);fill-opacity:1;" d="M 19.25 14.824219 L 25.320312 8.75 L 26.25 8.75 L 26.25 21 L 25.375 21 Z M 19.25 14.824219 "/>
<path style=" stroke:none;fill-rule:nonzero;fill:rgb(100%,100%,100%);fill-opacity:1;" d="M 3.210938 22.703125 C 2.761719 22.621094 2.257812 22.25 2.046875 21.851562 C 1.808594 21.40625 1.820312 21.859375 1.820312 14.875 C 1.820312 9.371094 1.828125 8.503906 1.875 8.328125 C 2.023438 7.753906 2.421875 7.320312 3 7.101562 L 3.210938 7.019531 L 10.363281 7.007812 C 15.292969 7 17.59375 7.011719 17.765625 7.039062 C 18.429688 7.140625 18.976562 7.628906 19.171875 8.296875 C 19.222656 8.476562 19.230469 9.140625 19.230469 14.871094 C 19.230469 20.148438 19.21875 21.28125 19.179688 21.433594 C 19.007812 22.074219 18.457031 22.585938 17.804688 22.707031 C 17.527344 22.757812 3.480469 22.757812 3.210938 22.703125 Z M 3.210938 22.703125 "/>
<path style=" stroke:none;fill-rule:nonzero;fill:rgb(100%,100%,100%);fill-opacity:1;" d="M 22.320312 17.898438 L 19.265625 14.820312 L 25.3125 8.769531 L 26.234375 8.769531 L 26.234375 20.976562 L 25.375 20.976562 Z M 22.320312 17.898438 "/>
</g>
</svg>
