<?xml version="1.0" encoding="UTF-8"?>
<svg xmlns="http://www.w3.org/2000/svg" xmlns:xlink="http://www.w3.org/1999/xlink" width="28" height="28" viewBox="0 0 28 28" version="1.1">
<g id="surface1">
<path style=" stroke:none;fill-rule:nonzero;fill:rgb(74.509804%,74.509804%,74.509804%);fill-opacity:1;" d="M 4.375 1.75 C 1.953125 1.75 0 3.703125 0 6.125 L 0 20.125 C 0 22.546875 1.953125 24.5 4.375 24.5 L 4.375 21 C 3.890625 21 3.5 20.609375 3.5 20.125 L 3.5 17.5 L 24.5 17.5 L 24.5 20.125 C 24.5 20.609375 24.109375 21 23.625 21 L 23.625 24.5 C 26.046875 24.5 28 22.546875 28 20.125 L 28 6.125 C 28 3.703125 26.046875 1.75 23.625 1.75 Z M 4.375 1.75 "/>
<path style=" stroke:none;fill-rule:nonzero;fill:rgb(74.509804%,74.509804%,74.509804%);fill-opacity:1;" d="M 5.039062 19.320312 C 5.039062 24.027344 9.0625 27.902344 13.992188 27.902344 C 18.921875 27.902344 22.976562 24.027344 22.976562 19.320312 L 19.449219 19.320312 C 19.449219 22.210938 17.019531 24.53125 13.992188 24.53125 C 10.964844 24.53125 8.570312 22.210938 8.570312 19.320312 Z M 5.039062 19.320312 "/>
<path style=" stroke:none;fill-rule:nonzero;fill:rgb(74.509804%,74.509804%,74.509804%);fill-opacity:1;" d="M 10.5 19.25 C 10.5 21.171875 12.078125 22.75 14 22.75 C 15.921875 22.75 17.5 21.171875 17.5 19.25 L 15.75 19.25 C 15.75 20.226562 14.976562 21 14 21 C 13.023438 21 12.25 20.226562 12.25 19.25 Z M 10.5 19.25 "/>
<path style=" stroke:none;fill-rule:nonzero;fill:rgb(100%,100%,100%);fill-opacity:1;" d="M 13.570312 22.710938 C 11.960938 22.5 10.648438 21.144531 10.535156 19.578125 L 10.515625 19.277344 L 11.378906 19.289062 L 12.242188 19.296875 L 12.265625 19.523438 C 12.324219 20.042969 12.707031 20.566406 13.214844 20.820312 C 14.285156 21.347656 15.53125 20.710938 15.734375 19.539062 L 15.777344 19.28125 L 16.636719 19.28125 C 17.308594 19.28125 17.496094 19.289062 17.496094 19.324219 C 17.496094 19.511719 17.40625 20.023438 17.328125 20.265625 C 16.917969 21.585938 15.773438 22.539062 14.410156 22.707031 C 14.046875 22.75 13.898438 22.75 13.570312 22.707031 Z M 13.570312 22.710938 "/>
<path style=" stroke:none;fill-rule:nonzero;fill:rgb(100%,100%,100%);fill-opacity:1;" d="M 13.109375 27.851562 C 12.070312 27.753906 10.902344 27.417969 9.929688 26.9375 C 7.121094 25.554688 5.261719 22.835938 5.074219 19.851562 C 5.058594 19.585938 5.058594 19.359375 5.070312 19.34375 C 5.082031 19.328125 5.875 19.320312 6.824219 19.324219 L 8.558594 19.335938 L 8.582031 19.714844 C 8.699219 21.523438 9.851562 23.179688 11.554688 23.992188 C 13.363281 24.851562 15.492188 24.691406 17.175781 23.570312 C 17.640625 23.261719 18.28125 22.621094 18.589844 22.148438 C 19.101562 21.375 19.382812 20.554688 19.441406 19.675781 L 19.464844 19.335938 L 22.949219 19.316406 L 22.949219 19.621094 C 22.949219 20.84375 22.464844 22.441406 21.742188 23.605469 C 21.234375 24.425781 20.496094 25.261719 19.753906 25.863281 C 18.449219 26.917969 16.761719 27.625 15.09375 27.820312 C 14.667969 27.871094 13.511719 27.886719 13.109375 27.851562 Z M 13.109375 27.851562 "/>
<path style=" stroke:none;fill-rule:nonzero;fill:rgb(100%,100%,100%);fill-opacity:1;" d="M 3.632812 24.421875 C 1.769531 24.109375 0.28125 22.558594 0.0546875 20.6875 C 0.0234375 20.433594 0.015625 18.390625 0.0234375 12.90625 C 0.0390625 4.722656 0.0195312 5.390625 0.25 4.703125 C 0.757812 3.195312 2.09375 2.078125 3.699219 1.820312 C 4 1.769531 5.246094 1.765625 13.992188 1.765625 C 24.8125 1.765625 24.265625 1.753906 24.9375 1.964844 C 25.628906 2.179688 26.15625 2.507812 26.707031 3.0625 C 27.363281 3.71875 27.714844 4.367188 27.898438 5.265625 C 27.96875 5.617188 27.96875 5.746094 27.96875 13.121094 C 27.96875 20.5 27.96875 20.628906 27.898438 20.980469 C 27.503906 22.910156 25.882812 24.34375 23.953125 24.472656 L 23.636719 24.492188 L 23.636719 21.019531 L 23.769531 20.996094 C 24.078125 20.9375 24.390625 20.671875 24.464844 20.402344 C 24.488281 20.328125 24.5 19.6875 24.5 18.875 L 24.503906 17.472656 L 14 17.484375 L 3.5 17.492188 L 3.492188 18.847656 C 3.484375 19.804688 3.492188 20.246094 3.523438 20.355469 C 3.609375 20.671875 3.898438 20.9375 4.214844 20.996094 L 4.351562 21.019531 L 4.351562 24.480469 L 4.140625 24.476562 C 4.027344 24.476562 3.800781 24.449219 3.632812 24.421875 Z M 3.632812 24.421875 "/>
</g>
</svg>
