<?xml version="1.0" encoding="UTF-8"?>
<svg xmlns="http://www.w3.org/2000/svg" xmlns:xlink="http://www.w3.org/1999/xlink" width="28" height="28" viewBox="0 0 28 28" version="1.1">
<g id="surface1">
<path style=" stroke:none;fill-rule:nonzero;fill:rgb(74.509804%,74.509804%,74.509804%);fill-opacity:1;" d="M 6.40625 0 C 3.921875 0 1.867188 2.058594 1.867188 4.539062 L 1.867188 26.195312 L 26.367188 26.195312 L 26.367188 4.539062 C 26.367188 2.058594 24.308594 0 21.828125 0 L 6.390625 0 Z M 6.40625 3.5 L 21.828125 3.5 C 22.429688 3.5 22.867188 3.933594 22.867188 4.539062 L 22.867188 22.695312 L 5.367188 22.695312 L 5.367188 4.539062 C 5.367188 3.945312 5.804688 3.507812 6.414062 3.507812 Z M 6.40625 3.5 "/>
<path style=" stroke:none;fill-rule:nonzero;fill:rgb(74.509804%,74.509804%,74.509804%);fill-opacity:1;" d="M 8.75 7.050781 L 8.75 8.800781 L 19.25 8.800781 L 19.25 7.050781 Z M 8.75 7.050781 "/>
<path style=" stroke:none;fill-rule:nonzero;fill:rgb(74.509804%,74.509804%,74.509804%);fill-opacity:1;" d="M 8.75 10.5 L 8.75 12.25 L 19.25 12.25 L 19.25 10.5 Z M 8.75 10.5 "/>
<path style=" stroke:none;fill-rule:nonzero;fill:rgb(74.509804%,74.509804%,74.509804%);fill-opacity:1;" d="M 8.75 14 L 8.75 15.75 L 19.25 15.75 L 19.25 14 Z M 8.75 14 "/>
<path style=" stroke:none;fill-rule:nonzero;fill:rgb(74.509804%,74.509804%,74.509804%);fill-opacity:1;" d="M 8.75 17.5 L 8.75 19.25 L 19.25 19.25 L 19.25 17.5 Z M 8.75 17.5 "/>
<path style=" stroke:none;fill-rule:nonzero;fill:rgb(100%,100%,100%);fill-opacity:1;" d="M 8.757812 18.378906 L 8.757812 17.511719 L 19.230469 17.511719 L 19.230469 19.242188 L 8.757812 19.242188 Z M 8.757812 18.378906 "/>
<path style=" stroke:none;fill-rule:nonzero;fill:rgb(100%,100%,100%);fill-opacity:1;" d="M 8.757812 14.875 L 8.757812 14.007812 L 19.230469 14.007812 L 19.230469 15.742188 L 8.757812 15.742188 Z M 8.757812 14.875 "/>
<path style=" stroke:none;fill-rule:nonzero;fill:rgb(100%,100%,100%);fill-opacity:1;" d="M 8.757812 11.371094 L 8.757812 10.503906 L 19.230469 10.503906 L 19.230469 12.238281 L 8.757812 12.238281 Z M 8.757812 11.371094 "/>
<path style=" stroke:none;fill-rule:nonzero;fill:rgb(100%,100%,100%);fill-opacity:1;" d="M 8.757812 7.941406 L 8.757812 7.074219 L 19.230469 7.074219 L 19.230469 8.804688 L 8.757812 8.804688 Z M 8.757812 7.941406 "/>
<path style=" stroke:none;fill-rule:nonzero;fill:rgb(100%,100%,100%);fill-opacity:1;" d="M 1.894531 15.132812 C 1.894531 5.324219 1.898438 4.050781 1.949219 3.765625 C 2.050781 3.179688 2.300781 2.558594 2.628906 2.070312 C 2.828125 1.769531 2.90625 1.679688 3.242188 1.339844 C 3.878906 0.691406 4.710938 0.253906 5.652344 0.078125 C 5.972656 0.015625 6.46875 0.0117188 14.082031 0.0117188 C 20.628906 0.0117188 22.230469 0.0195312 22.476562 0.0625 C 23.425781 0.210938 24.261719 0.628906 24.953125 1.296875 C 25.515625 1.84375 25.917969 2.484375 26.140625 3.203125 C 26.355469 3.890625 26.34375 3.121094 26.34375 15.148438 L 26.34375 26.179688 L 1.894531 26.179688 Z M 22.878906 13.542969 C 22.878906 5.476562 22.871094 4.355469 22.824219 4.195312 C 22.746094 3.933594 22.496094 3.667969 22.242188 3.570312 C 22.042969 3.496094 22.027344 3.496094 14.144531 3.496094 C 5.191406 3.496094 6 3.46875 5.667969 3.800781 C 5.328125 4.140625 5.359375 3.121094 5.359375 13.527344 L 5.359375 22.710938 L 22.878906 22.710938 Z M 22.878906 13.542969 "/>
</g>
</svg>
