<?xml version="1.0" encoding="UTF-8"?>
<svg xmlns="http://www.w3.org/2000/svg" xmlns:xlink="http://www.w3.org/1999/xlink" width="28" height="28" viewBox="0 0 28 28" version="1.1">
<g id="surface1">
<path style=" stroke:none;fill-rule:nonzero;fill:rgb(74.509804%,74.509804%,74.509804%);fill-opacity:1;" d="M 6.976562 15.949219 C 8.632812 15.464844 10.398438 16.46875 10.921875 18.191406 L 12.101562 22.085938 C 12.625 23.808594 11.707031 25.597656 10.050781 26.082031 C 8.394531 26.566406 6.632812 25.5625 6.109375 23.839844 L 4.929688 19.941406 C 4.40625 18.21875 5.324219 16.433594 6.976562 15.949219 Z M 6.976562 15.949219 "/>
<path style=" stroke:none;fill-rule:nonzero;fill:rgb(74.509804%,74.509804%,74.509804%);fill-opacity:1;" d="M 13.949219 1.75 C 8.164062 1.75 3.40625 7.015625 3.503906 11.757812 C 3.585938 15.898438 4.917969 19.976562 5.253906 21 L 7.921875 21 C 5.890625 16.988281 6.085938 11.976562 6.085938 11.976562 C 6.085938 7.824219 9.597656 4.429688 13.949219 4.429688 C 18.296875 4.429688 21.820312 7.628906 21.808594 11.921875 C 21.765625 14.851562 21.507812 16.574219 20.050781 21 L 22.796875 21 C 23.191406 19.871094 24.503906 15.417969 24.503906 11.757812 C 24.503906 6.804688 19.730469 1.75 13.949219 1.75 Z M 13.949219 1.75 "/>
<path style=" stroke:none;fill-rule:nonzero;fill:rgb(74.509804%,74.509804%,74.509804%);fill-opacity:1;" d="M 21.023438 15.992188 C 19.367188 15.507812 17.601562 16.511719 17.082031 18.234375 L 15.898438 22.132812 C 15.375 23.855469 16.296875 25.644531 17.949219 26.125 C 19.605469 26.609375 21.371094 25.605469 21.890625 23.882812 L 23.074219 19.988281 C 23.597656 18.265625 22.679688 16.476562 21.023438 15.992188 Z M 21.023438 15.992188 "/>
<path style=" stroke:none;fill-rule:nonzero;fill:rgb(100%,100%,100%);fill-opacity:1;" d="M 18.433594 26.210938 C 16.941406 26.015625 15.863281 24.824219 15.773438 23.269531 C 15.761719 23.027344 15.769531 22.8125 15.808594 22.601562 C 15.886719 22.15625 17.113281 18.128906 17.28125 17.769531 C 17.46875 17.367188 17.683594 17.074219 18.027344 16.75 C 18.894531 15.9375 20.09375 15.679688 21.195312 16.0625 C 21.3125 16.105469 21.414062 16.132812 21.421875 16.125 C 21.449219 16.097656 21.609375 15.097656 21.664062 14.621094 C 21.820312 13.265625 21.855469 11.507812 21.746094 10.8125 C 21.253906 7.71875 19.03125 5.386719 15.867188 4.636719 C 14.625 4.34375 13.105469 4.363281 11.878906 4.6875 C 8.742188 5.511719 6.4375 8.132812 6.117188 11.222656 C 6.0625 11.753906 6.09375 13.71875 6.171875 14.441406 C 6.246094 15.175781 6.378906 16.113281 6.40625 16.148438 C 6.417969 16.160156 6.542969 16.125 6.679688 16.066406 C 7.28125 15.816406 8.105469 15.777344 8.71875 15.976562 C 9.671875 16.277344 10.425781 16.976562 10.800781 17.90625 C 10.933594 18.230469 12.148438 22.269531 12.1875 22.507812 C 12.238281 22.832031 12.230469 23.425781 12.171875 23.710938 C 11.929688 24.847656 11.1875 25.691406 10.128906 26.039062 C 9.6875 26.183594 9.046875 26.222656 8.601562 26.128906 C 7.621094 25.925781 6.75 25.238281 6.316406 24.328125 C 6.246094 24.179688 6.003906 23.445312 5.777344 22.699219 C 5.550781 21.953125 5.273438 21.050781 5.160156 20.699219 C 4.171875 17.5625 3.601562 14.527344 3.53125 12.039062 C 3.507812 11.230469 3.542969 10.75 3.664062 10.140625 C 4.277344 7.101562 6.585938 4.246094 9.605469 2.789062 C 11.140625 2.050781 12.660156 1.71875 14.28125 1.777344 C 16.496094 1.851562 18.546875 2.617188 20.425781 4.0625 C 20.917969 4.445312 21.886719 5.398438 22.277344 5.890625 C 23.804688 7.816406 24.582031 10.035156 24.484375 12.203125 C 24.394531 14.167969 24.101562 16.082031 23.542969 18.34375 C 23.273438 19.445312 22.917969 20.660156 22.785156 20.960938 C 22.757812 21.019531 22.523438 21.765625 22.261719 22.621094 C 21.761719 24.265625 21.652344 24.535156 21.3125 24.980469 C 20.753906 25.703125 19.886719 26.167969 18.976562 26.222656 C 18.808594 26.234375 18.5625 26.230469 18.433594 26.210938 Z M 18.433594 26.210938 "/>
</g>
</svg>
