<?xml version="1.0" encoding="UTF-8"?>
<svg xmlns="http://www.w3.org/2000/svg" xmlns:xlink="http://www.w3.org/1999/xlink" width="28" height="28" viewBox="0 0 28 28" version="1.1">
<g id="surface1">
<path style=" stroke:none;fill-rule:nonzero;fill:rgb(74.509804%,74.509804%,74.509804%);fill-opacity:1;" d="M 1.75 3.5 C 0.78125 3.5 0 4.28125 0 5.25 L 0 22.75 C 0 23.71875 0.78125 24.5 1.75 24.5 L 26.25 24.5 C 27.21875 24.5 28 23.71875 28 22.75 L 28 5.25 C 28 4.28125 27.21875 3.5 26.25 3.5 Z M 3.5 7 L 7 7 L 7 10.5 L 3.5 10.5 Z M 8.75 7 L 12.25 7 L 12.25 10.5 L 8.75 10.5 Z M 14 7 L 17.5 7 L 17.5 10.5 L 14 10.5 Z M 19.25 7 L 22.75 7 L 22.75 10.5 L 19.25 10.5 Z M 5.25 12.25 L 8.75 12.25 L 8.75 15.75 L 5.25 15.75 Z M 10.5 12.25 L 14 12.25 L 14 15.75 L 10.5 15.75 Z M 15.75 12.25 L 19.25 12.25 L 19.25 15.75 L 15.75 15.75 Z M 21 12.25 L 24.5 12.25 L 24.5 15.75 L 21 15.75 Z M 3.5 17.5 L 7 17.5 L 7 21 L 3.5 21 Z M 8.75 17.5 L 19.25 17.5 L 19.25 21 L 8.75 21 Z M 21 17.5 L 26.25 17.5 L 26.25 21 L 21 21 Z M 21 17.5 "/>
<path style=" stroke:none;fill-rule:nonzero;fill:rgb(100%,100%,100%);fill-opacity:1;" d="M 1.285156 24.421875 C 0.691406 24.261719 0.183594 23.722656 0.0546875 23.117188 C 0.0273438 22.980469 0.015625 20.351562 0.015625 13.976562 C 0.015625 4.179688 0 4.832031 0.222656 4.425781 C 0.4375 4.039062 0.765625 3.757812 1.210938 3.597656 L 1.441406 3.515625 L 13.792969 3.507812 C 21.71875 3.5 26.25 3.507812 26.441406 3.53125 C 26.84375 3.578125 27.152344 3.726562 27.441406 4.003906 C 27.691406 4.242188 27.824219 4.457031 27.910156 4.761719 C 27.964844 4.945312 27.96875 5.820312 27.960938 14.082031 L 27.953125 23.199219 L 27.816406 23.480469 C 27.585938 23.960938 27.1875 24.296875 26.679688 24.425781 C 26.371094 24.507812 1.582031 24.503906 1.285156 24.421875 Z M 7.015625 19.253906 L 7.003906 17.492188 L 3.5 17.492188 L 3.484375 21.015625 L 7.023438 21.015625 Z M 19.265625 19.242188 L 19.265625 17.472656 L 14 17.484375 L 8.738281 17.492188 L 8.730469 19.207031 C 8.722656 20.152344 8.726562 20.945312 8.734375 20.96875 C 8.75 21.003906 9.839844 21.015625 14.007812 21.015625 L 19.265625 21.015625 Z M 26.265625 19.253906 L 26.253906 17.492188 L 23.625 17.484375 L 21 17.472656 L 21 21.015625 L 26.273438 21.015625 Z M 8.757812 14.007812 L 8.757812 12.238281 L 5.253906 12.238281 L 5.253906 15.777344 L 8.757812 15.777344 Z M 14.011719 14.007812 L 14.011719 12.257812 L 12.25 12.246094 L 10.488281 12.238281 L 10.488281 15.777344 L 12.25 15.769531 L 14.011719 15.757812 Z M 19.265625 14.007812 L 19.265625 12.238281 L 15.726562 12.238281 L 15.726562 13.984375 C 15.726562 14.945312 15.738281 15.738281 15.75 15.753906 C 15.765625 15.765625 16.558594 15.777344 17.519531 15.777344 L 19.265625 15.777344 Z M 24.503906 14.007812 L 24.503906 12.238281 L 21 12.238281 L 21 15.777344 L 24.503906 15.777344 Z M 7.023438 8.753906 L 7.023438 7 L 3.484375 7 L 3.484375 10.503906 L 7.023438 10.503906 Z M 12.257812 8.753906 L 12.257812 7 L 8.71875 7 L 8.71875 8.730469 C 8.71875 9.679688 8.730469 10.464844 8.742188 10.480469 C 8.757812 10.492188 9.554688 10.503906 10.515625 10.503906 L 12.257812 10.503906 Z M 17.496094 8.753906 L 17.496094 7 L 13.992188 7 L 13.992188 10.503906 L 17.496094 10.503906 Z M 22.769531 8.753906 L 22.769531 7 L 19.230469 7 L 19.230469 10.503906 L 22.769531 10.503906 Z M 22.769531 8.753906 "/>
</g>
</svg>
