<?xml version="1.0" encoding="UTF-8"?>
<svg xmlns="http://www.w3.org/2000/svg" xmlns:xlink="http://www.w3.org/1999/xlink" width="28" height="28" viewBox="0 0 28 28" version="1.1">
<g id="surface1">
<path style=" stroke:none;fill-rule:nonzero;fill:rgb(74.509804%,74.509804%,74.509804%);fill-opacity:1;" d="M 8.191406 7 C 6.558594 6.996094 5.242188 8.339844 5.234375 10.023438 C 5.265625 11.324219 5.269531 12.660156 5.257812 13.992188 L 10.371094 14.019531 L 10.40625 7.011719 L 8.1875 7 Z M 12.402344 7.019531 L 12.371094 14.027344 L 17.480469 14.054688 C 17.507812 12.714844 17.535156 11.371094 17.546875 10.082031 C 17.550781 8.402344 16.25 7.039062 14.617188 7.03125 L 12.402344 7.023438 Z M 5.25 15.914062 C 5.230469 17.367188 5.1875 18.539062 5.1875 19.878906 C 5.171875 23.398438 7.902344 26.242188 11.3125 26.261719 C 14.722656 26.277344 17.484375 23.460938 17.5 19.941406 C 17.4375 18.476562 17.417969 17.300781 17.433594 15.914062 Z M 5.25 15.914062 "/>
<path style=" stroke:none;fill-rule:nonzero;fill:rgb(74.509804%,74.509804%,74.509804%);fill-opacity:1;" d="M 14.105469 0.015625 C 13.308594 0.105469 12.558594 0.40625 11.917969 0.890625 C 11.0625 1.542969 10.496094 2.5625 10.496094 3.84375 C 10.488281 4.308594 10.910156 4.734375 11.371094 4.734375 C 11.832031 4.734375 12.253906 4.308594 12.246094 3.84375 C 12.246094 3.058594 12.546875 2.613281 13.011719 2.257812 C 13.476562 1.90625 14.171875 1.734375 14.871094 1.765625 C 15.566406 1.800781 16.242188 2.039062 16.730469 2.476562 C 17.21875 2.917969 17.550781 3.5 17.550781 4.445312 C 17.550781 8.238281 20.113281 10.589844 22.800781 10.519531 C 24.300781 10.480469 25.753906 9.683594 26.738281 8.222656 L 25.753906 6.472656 C 25.097656 8.074219 23.882812 8.738281 22.746094 8.769531 C 21.066406 8.8125 19.300781 7.492188 19.300781 4.445312 C 19.300781 3.0625 18.710938 1.921875 17.878906 1.164062 C 17.046875 0.410156 15.988281 0.0703125 14.925781 0.015625 C 14.660156 0.00390625 14.371094 -0.0117188 14.105469 0.015625 Z M 26.246094 3.460938 C 26.246094 3.480469 26.246094 3.5 26.246094 3.515625 C 26.246094 3.597656 26.246094 3.660156 26.246094 3.734375 L 27.613281 6.140625 C 27.632812 6.070312 27.648438 5.996094 27.667969 5.921875 Z M 26.246094 4.117188 C 26.234375 4.304688 26.210938 4.492188 26.191406 4.664062 L 27.449219 6.796875 C 27.488281 6.6875 27.523438 6.585938 27.558594 6.46875 Z M 26.136719 4.992188 C 26.113281 5.152344 26.058594 5.285156 26.027344 5.429688 L 27.175781 7.398438 C 27.226562 7.292969 27.292969 7.183594 27.339844 7.070312 Z M 25.972656 5.757812 C 25.929688 5.914062 25.859375 6.054688 25.808594 6.195312 L 26.847656 8 C 26.917969 7.886719 27 7.792969 27.066406 7.671875 Z M 25.972656 5.757812 "/>
<path style=" stroke:none;fill-rule:nonzero;fill:rgb(100%,100%,100%);fill-opacity:1;" d="M 22.109375 10.46875 C 20.230469 10.226562 18.605469 8.796875 17.9375 6.796875 C 17.707031 6.117188 17.613281 5.542969 17.570312 4.621094 C 17.519531 3.59375 17.375 3.15625 16.914062 2.652344 C 16.382812 2.074219 15.621094 1.765625 14.71875 1.765625 C 13.890625 1.765625 13.289062 1.972656 12.8125 2.425781 C 12.4375 2.777344 12.28125 3.136719 12.234375 3.722656 C 12.207031 4.105469 12.164062 4.238281 12 4.421875 C 11.65625 4.8125 11.085938 4.808594 10.742188 4.417969 C 10.5625 4.214844 10.523438 4.085938 10.523438 3.707031 C 10.523438 3.121094 10.714844 2.429688 11.019531 1.914062 C 11.5625 0.992188 12.695312 0.257812 13.859375 0.0664062 C 14.449219 -0.0273438 15.511719 0.046875 16.152344 0.234375 C 16.554688 0.347656 17.265625 0.695312 17.570312 0.929688 C 18.125 1.347656 18.644531 2.011719 18.914062 2.644531 C 19.148438 3.1875 19.230469 3.574219 19.273438 4.332031 C 19.335938 5.515625 19.441406 6.085938 19.71875 6.726562 C 20.066406 7.53125 20.589844 8.101562 21.308594 8.449219 C 21.839844 8.707031 22.046875 8.753906 22.648438 8.757812 C 23.230469 8.757812 23.484375 8.703125 23.960938 8.484375 C 24.660156 8.15625 25.210938 7.597656 25.609375 6.800781 L 25.757812 6.503906 L 26.210938 7.300781 C 26.457031 7.738281 26.671875 8.128906 26.691406 8.164062 C 26.714844 8.21875 26.679688 8.292969 26.511719 8.511719 C 25.414062 9.945312 23.757812 10.679688 22.109375 10.46875 Z M 22.109375 10.46875 "/>
<path style=" stroke:none;fill-rule:nonzero;fill:rgb(100%,100%,100%);fill-opacity:1;" d="M 6.90625 13.988281 L 5.296875 13.980469 L 5.273438 11.875 C 5.246094 9.613281 5.253906 9.507812 5.425781 9.003906 C 5.742188 8.074219 6.546875 7.335938 7.496094 7.089844 C 7.753906 7.023438 9.535156 6.976562 10.078125 7.023438 L 10.378906 7.046875 L 10.378906 10.179688 C 10.378906 11.902344 10.367188 13.46875 10.355469 13.664062 L 10.332031 14.015625 L 9.425781 14.007812 C 8.925781 14 7.792969 13.992188 6.90625 13.988281 Z M 6.90625 13.988281 "/>
<path style=" stroke:none;fill-rule:nonzero;fill:rgb(100%,100%,100%);fill-opacity:1;" d="M 10.886719 26.226562 C 9.765625 26.144531 8.675781 25.738281 7.734375 25.046875 C 7.609375 24.957031 7.347656 24.726562 7.148438 24.535156 C 6.203125 23.613281 5.613281 22.535156 5.335938 21.226562 C 5.214844 20.65625 5.195312 19.996094 5.230469 17.691406 L 5.257812 15.929688 L 17.425781 15.929688 L 17.425781 17.1875 C 17.429688 17.875 17.441406 18.800781 17.460938 19.234375 C 17.480469 19.710938 17.480469 20.195312 17.460938 20.441406 C 17.234375 23.222656 15.285156 25.515625 12.65625 26.097656 C 12.277344 26.179688 12.070312 26.207031 11.464844 26.242188 C 11.355469 26.25 11.09375 26.242188 10.886719 26.226562 Z M 10.886719 26.226562 "/>
<path style=" stroke:none;fill-rule:nonzero;fill:rgb(100%,100%,100%);fill-opacity:1;" d="M 14.105469 14.023438 L 12.355469 14.015625 L 12.378906 13.628906 C 12.390625 13.417969 12.402344 11.847656 12.402344 10.140625 L 12.402344 7.035156 L 13.75 7.050781 C 15.011719 7.0625 15.113281 7.070312 15.363281 7.144531 C 16.265625 7.414062 16.980469 8.074219 17.328125 8.960938 C 17.523438 9.449219 17.539062 9.6875 17.519531 11.414062 C 17.507812 12.277344 17.488281 13.226562 17.476562 13.519531 L 17.453125 14.050781 L 16.652344 14.042969 C 16.214844 14.039062 15.066406 14.03125 14.105469 14.023438 Z M 14.105469 14.023438 "/>
<path style=" stroke:none;fill-rule:nonzero;fill:rgb(100%,100%,100%);fill-opacity:1;" d="M 26.332031 7.085938 L 25.820312 6.195312 L 25.894531 6.003906 C 25.960938 5.839844 25.976562 5.820312 26.015625 5.867188 C 26.039062 5.898438 26.277344 6.316406 26.550781 6.789062 C 26.871094 7.359375 27.035156 7.675781 27.019531 7.71875 C 27.007812 7.753906 26.964844 7.824219 26.917969 7.878906 L 26.839844 7.972656 Z M 26.332031 7.085938 "/>
<path style=" stroke:none;fill-rule:nonzero;fill:rgb(100%,100%,100%);fill-opacity:1;" d="M 26.601562 6.394531 L 26.039062 5.425781 L 26.09375 5.234375 L 26.152344 5.042969 L 26.742188 6.0625 L 27.328125 7.078125 L 27.253906 7.222656 C 27.214844 7.300781 27.175781 7.367188 27.171875 7.363281 C 27.167969 7.363281 26.910156 6.929688 26.601562 6.394531 Z M 26.601562 6.394531 "/>
<path style=" stroke:none;fill-rule:nonzero;fill:rgb(100%,100%,100%);fill-opacity:1;" d="M 26.929688 4.917969 C 26.5625 4.269531 26.257812 3.6875 26.25 3.628906 C 26.242188 3.554688 26.25 3.53125 26.273438 3.554688 C 26.292969 3.574219 26.613281 4.117188 26.980469 4.757812 C 27.542969 5.730469 27.652344 5.941406 27.628906 6.011719 C 27.601562 6.085938 27.503906 5.933594 26.929688 4.917969 Z M 26.929688 4.917969 "/>
<path style=" stroke:none;fill-rule:nonzero;fill:rgb(100%,100%,100%);fill-opacity:1;" d="M 27.019531 6.046875 C 26.785156 5.648438 26.503906 5.175781 26.398438 4.992188 L 26.203125 4.664062 L 26.230469 4.414062 L 26.261719 4.167969 L 27.546875 6.472656 L 27.496094 6.621094 L 27.449219 6.769531 Z M 27.019531 6.046875 "/>
</g>
</svg>
