<?xml version="1.0" encoding="UTF-8"?>
<svg xmlns="http://www.w3.org/2000/svg" xmlns:xlink="http://www.w3.org/1999/xlink" width="28" height="28" viewBox="0 0 28 28" version="1.1">
<g id="surface1">
<path style=" stroke:none;fill-rule:nonzero;fill:rgb(74.509804%,74.509804%,74.509804%);fill-opacity:1;" d="M 13.589844 0 L 11.9375 0.046875 L 11.988281 0.921875 C 12.066406 1.738281 11.65625 2.621094 11.011719 3.054688 C 10.429688 3.492188 9.519531 3.402344 8.386719 3.4375 C 7.8125 3.445312 7.230469 3.585938 6.6875 3.929688 C 6.148438 4.277344 5.617188 4.886719 5.503906 5.679688 C 5.242188 7.242188 6.25 8.539062 7.410156 8.796875 C 8.738281 9.105469 10.117188 8.929688 11.730469 8.796875 C 12.152344 8.765625 12.722656 8.832031 13.070312 9.015625 C 13.621094 9.472656 13.539062 9.722656 13.535156 10.546875 L 4.21875 10.546875 L 3.855469 11.804688 L 0.613281 24.054688 L -0.00390625 26.296875 L 27.226562 26.296875 L 26.605469 24.054688 L 23.46875 12.132812 L 21.046875 16.015625 L 22.902344 22.796875 L 4.320312 22.796875 L 6.6875 14.046875 L 12.042969 14.046875 C 12.058594 14.03125 12.074219 14.011719 12.09375 13.992188 L 14.304688 12.460938 L 15.179688 10.601562 L 15.179688 9.726562 C 15.175781 8.65625 14.511719 7.808594 13.792969 7.429688 C 13.070312 7.054688 12.257812 6.992188 11.578125 7.046875 C 9.9375 7.183594 8.714844 7.265625 7.769531 7.046875 L 7.71875 7.046875 C 7.390625 6.976562 7.03125 6.679688 7.152344 5.953125 C 7.183594 5.738281 7.28125 5.609375 7.511719 5.460938 C 7.746094 5.3125 8.09375 5.191406 8.386719 5.1875 L 8.4375 5.1875 C 9.367188 5.160156 10.707031 5.394531 11.886719 4.476562 C 13.234375 3.429688 13.789062 2.035156 13.636719 0.757812 Z M 13.589844 0 "/>
<path style=" stroke:none;fill-rule:nonzero;fill:rgb(74.509804%,74.509804%,74.509804%);fill-opacity:1;" d="M 22.039062 3.621094 C 22.039062 3.621094 17.890625 9.757812 15.382812 14.070312 L 13.066406 16.113281 L 13.128906 18.867188 L 11.871094 21.042969 L 13.015625 21.042969 L 14.238281 20.023438 L 16.996094 19.210938 L 17.976562 16.621094 L 24.867188 5.484375 Z M 22.039062 3.621094 "/>
<path style=" stroke:none;fill-rule:nonzero;fill:rgb(74.509804%,74.509804%,74.509804%);fill-opacity:1;" d="M 24.660156 4.265625 C 24.664062 4.675781 24.460938 5.054688 24.128906 5.261719 C 23.796875 5.464844 23.386719 5.464844 23.054688 5.261719 C 22.722656 5.054688 22.519531 4.675781 22.523438 4.265625 C 22.519531 3.859375 22.722656 3.480469 23.054688 3.273438 C 23.386719 3.070312 23.796875 3.070312 24.128906 3.273438 C 24.460938 3.480469 24.664062 3.859375 24.660156 4.265625 Z M 24.660156 4.265625 "/>
<path style=" stroke:none;fill-rule:nonzero;fill:rgb(100%,100%,100%);fill-opacity:1;" d="M 0.0195312 26.238281 C 0.0898438 26.050781 0.882812 23.089844 2.285156 17.800781 C 3.179688 14.414062 3.984375 11.40625 4.066406 11.117188 L 4.21875 10.59375 L 8.878906 10.585938 L 13.539062 10.574219 L 13.539062 10.117188 C 13.539062 9.707031 13.527344 9.632812 13.460938 9.476562 C 13.34375 9.210938 13.117188 9.007812 12.839844 8.917969 C 12.386719 8.769531 12.082031 8.753906 11.089844 8.839844 C 8.84375 9.039062 7.578125 8.957031 6.855469 8.570312 C 6.027344 8.128906 5.484375 7.183594 5.484375 6.195312 C 5.484375 5.15625 5.964844 4.339844 6.875 3.84375 C 7.457031 3.527344 7.742188 3.472656 9.136719 3.425781 C 10.265625 3.390625 10.496094 3.355469 10.855469 3.164062 C 11.191406 2.984375 11.582031 2.550781 11.761719 2.160156 C 11.984375 1.679688 12.027344 1.386719 11.984375 0.675781 C 11.96875 0.351562 11.957031 0.078125 11.960938 0.0703125 C 11.96875 0.0664062 12.328125 0.0507812 12.765625 0.0390625 L 13.5625 0.0195312 L 13.582031 0.160156 C 13.597656 0.238281 13.613281 0.570312 13.625 0.898438 C 13.644531 1.410156 13.640625 1.539062 13.582031 1.835938 C 13.421875 2.65625 13.023438 3.375 12.375 4.027344 C 11.910156 4.496094 11.476562 4.78125 10.972656 4.957031 C 10.464844 5.132812 10.167969 5.167969 9.121094 5.175781 C 8.171875 5.183594 8.144531 5.1875 7.886719 5.28125 C 7.417969 5.449219 7.207031 5.640625 7.144531 5.949219 C 7.097656 6.199219 7.121094 6.480469 7.210938 6.664062 C 7.332031 6.917969 7.492188 7.015625 7.941406 7.101562 C 8.390625 7.1875 10.113281 7.183594 11.195312 7.09375 C 12.078125 7.019531 12.441406 7.035156 12.960938 7.152344 C 14.03125 7.394531 14.757812 8.039062 15.058594 9.003906 C 15.136719 9.261719 15.148438 9.363281 15.164062 9.945312 L 15.175781 10.597656 L 14.304688 12.453125 L 13.152344 13.246094 L 12.003906 14.042969 L 9.339844 14.042969 C 6.832031 14.042969 6.675781 14.046875 6.660156 14.105469 C 6.523438 14.597656 4.351562 22.644531 4.339844 22.71875 L 4.320312 22.820312 L 22.925781 22.820312 L 22.898438 22.738281 C 22.886719 22.695312 22.46875 21.164062 21.96875 19.335938 L 21.0625 16.019531 L 22.25 14.109375 C 22.90625 13.058594 23.453125 12.210938 23.464844 12.226562 C 23.480469 12.242188 24.171875 14.855469 25.007812 18.035156 C 26.257812 22.789062 26.714844 24.492188 27.191406 26.222656 C 27.207031 26.285156 26.542969 26.285156 13.605469 26.285156 C 2.167969 26.285156 0.0078125 26.277344 0.0195312 26.238281 Z M 0.0195312 26.238281 "/>
<path style=" stroke:none;fill-rule:nonzero;fill:rgb(100%,100%,100%);fill-opacity:1;" d="M 11.90625 21.027344 C 11.90625 21.015625 12.183594 20.527344 12.523438 19.941406 L 13.136719 18.878906 L 13.113281 17.492188 L 13.085938 16.109375 L 14.222656 15.113281 C 14.992188 14.433594 15.390625 14.058594 15.464844 13.941406 C 15.523438 13.847656 15.789062 13.40625 16.054688 12.960938 C 17.253906 10.949219 19.46875 7.488281 21.464844 4.5 C 21.84375 3.933594 22.054688 3.648438 22.082031 3.664062 C 22.101562 3.679688 22.21875 3.753906 22.335938 3.832031 C 22.453125 3.910156 22.554688 3.96875 22.558594 3.960938 C 22.5625 3.957031 22.597656 3.878906 22.632812 3.792969 C 22.714844 3.582031 22.929688 3.351562 23.140625 3.242188 C 23.28125 3.171875 23.363281 3.15625 23.601562 3.15625 C 23.847656 3.15625 23.914062 3.171875 24.0625 3.25 C 24.425781 3.457031 24.632812 3.8125 24.636719 4.257812 C 24.636719 4.558594 24.59375 4.695312 24.425781 4.957031 C 24.363281 5.050781 24.316406 5.132812 24.320312 5.136719 C 24.328125 5.140625 24.449219 5.222656 24.59375 5.316406 L 24.855469 5.488281 L 24.726562 5.695312 C 24.65625 5.808594 23.105469 8.304688 21.289062 11.246094 L 17.976562 16.589844 L 17.484375 17.890625 C 17.214844 18.605469 16.992188 19.191406 16.988281 19.195312 C 16.988281 19.203125 16.367188 19.386719 15.609375 19.609375 L 14.234375 20.011719 L 13.046875 21.003906 L 12.476562 21.027344 C 12.164062 21.042969 11.90625 21.042969 11.90625 21.027344 Z M 11.90625 21.027344 "/>
</g>
</svg>
