<?xml version="1.0" encoding="UTF-8"?>
<svg xmlns="http://www.w3.org/2000/svg" xmlns:xlink="http://www.w3.org/1999/xlink" width="28" height="28" viewBox="0 0 28 28" version="1.1">
<g id="surface1">
<path style=" stroke:none;fill-rule:nonzero;fill:rgb(74.509804%,74.509804%,74.509804%);fill-opacity:1;" d="M 13.984375 1.75 C 7.257812 1.75 1.742188 7.265625 1.742188 13.988281 C 1.742188 20.710938 7.257812 26.265625 13.984375 26.265625 C 20.707031 26.265625 26.257812 20.710938 26.257812 13.988281 C 26.257812 7.265625 20.707031 1.75 13.984375 1.75 Z M 13.984375 8.765625 C 16.921875 8.765625 19.242188 11.046875 19.242188 13.988281 C 19.242188 16.929688 16.921875 19.25 13.984375 19.25 C 11.042969 19.25 8.757812 16.929688 8.757812 13.988281 C 8.757812 11.046875 11.042969 8.765625 13.984375 8.765625 Z M 13.984375 8.765625 "/>
<path style=" stroke:none;fill-rule:nonzero;fill:rgb(74.509804%,74.509804%,74.509804%);fill-opacity:1;" d="M 14.015625 10.515625 C 12.09375 10.515625 10.492188 12.089844 10.492188 14.011719 C 10.492188 15.933594 12.09375 17.503906 14.015625 17.503906 C 15.941406 17.503906 17.511719 15.933594 17.511719 14.011719 C 17.511719 12.089844 15.941406 10.515625 14.015625 10.515625 Z M 14.015625 12.265625 C 14.996094 12.265625 15.765625 13.035156 15.765625 14.011719 C 15.765625 14.988281 14.996094 15.757812 14.015625 15.757812 C 13.039062 15.757812 12.269531 14.988281 12.269531 14.011719 C 12.269531 13.035156 13.039062 12.265625 14.015625 12.265625 Z M 14.015625 12.265625 "/>
<path style=" stroke:none;fill-rule:nonzero;fill:rgb(100%,100%,100%);fill-opacity:1;" d="M 13.703125 17.46875 C 12.25 17.351562 11 16.296875 10.609375 14.855469 C 10.492188 14.425781 10.492188 13.605469 10.609375 13.175781 C 10.886719 12.152344 11.574219 11.324219 12.515625 10.875 C 13.070312 10.613281 13.316406 10.5625 14.027344 10.5625 C 14.589844 10.5625 14.671875 10.570312 14.960938 10.660156 C 15.929688 10.957031 16.695312 11.59375 17.128906 12.464844 C 17.800781 13.820312 17.53125 15.414062 16.453125 16.484375 C 15.714844 17.210938 14.761719 17.554688 13.703125 17.46875 Z M 14.402344 15.722656 C 15.554688 15.449219 16.113281 14.210938 15.554688 13.164062 C 15.003906 12.132812 13.542969 11.945312 12.742188 12.808594 C 12.417969 13.15625 12.273438 13.519531 12.273438 13.992188 C 12.269531 14.507812 12.433594 14.910156 12.785156 15.261719 C 13.210938 15.683594 13.820312 15.859375 14.402344 15.722656 Z M 14.402344 15.722656 "/>
<path style=" stroke:none;fill-rule:nonzero;fill:rgb(100%,100%,100%);fill-opacity:1;" d="M 13.160156 26.230469 C 11.667969 26.078125 10.769531 25.878906 9.640625 25.4375 C 8.03125 24.808594 6.707031 23.953125 5.46875 22.742188 C 3.347656 20.664062 2.070312 17.984375 1.804688 15.054688 C 1.71875 14.09375 1.777344 12.8125 1.949219 11.839844 C 2.625 8.070312 5.09375 4.78125 8.5625 3.042969 C 10.835938 1.90625 13.433594 1.515625 15.960938 1.929688 C 19.914062 2.582031 23.324219 5.148438 25.0625 8.78125 C 26.5 11.789062 26.632812 15.265625 25.417969 18.382812 C 25.082031 19.253906 24.5 20.320312 23.964844 21.066406 C 23.386719 21.871094 22.378906 22.945312 21.664062 23.511719 C 19.824219 24.980469 17.746094 25.867188 15.457031 26.160156 C 15.027344 26.214844 13.492188 26.261719 13.160156 26.230469 Z M 15.132812 19.140625 C 15.613281 19.03125 15.976562 18.894531 16.433594 18.660156 C 18.171875 17.765625 19.246094 15.984375 19.246094 13.988281 C 19.246094 11.484375 17.585938 9.421875 15.128906 8.875 C 14.800781 8.800781 14.65625 8.789062 13.992188 8.789062 C 13.148438 8.789062 12.910156 8.824219 12.253906 9.042969 C 10.796875 9.527344 9.625 10.664062 9.074219 12.125 C 8.820312 12.804688 8.703125 13.695312 8.769531 14.449219 C 8.992188 16.890625 10.710938 18.769531 13.109375 19.191406 C 13.523438 19.265625 14.730469 19.234375 15.132812 19.140625 Z M 15.132812 19.140625 "/>
</g>
</svg>
