<?xml version="1.0" encoding="UTF-8"?>
<svg xmlns="http://www.w3.org/2000/svg" xmlns:xlink="http://www.w3.org/1999/xlink" width="28" height="28" viewBox="0 0 28 28" version="1.1">
<g id="surface1">
<path style=" stroke:none;fill-rule:nonzero;fill:rgb(74.509804%,74.509804%,74.509804%);fill-opacity:1;" d="M 13.984375 1.75 C 7.257812 1.75 1.742188 7.265625 1.742188 13.988281 C 1.742188 20.710938 7.257812 26.265625 13.984375 26.265625 C 20.707031 26.265625 26.257812 20.710938 26.257812 13.988281 C 26.257812 7.265625 20.707031 1.75 13.984375 1.75 Z M 13.984375 8.765625 C 16.921875 8.765625 19.242188 11.046875 19.242188 13.988281 C 19.242188 16.929688 16.921875 19.25 13.984375 19.25 C 11.042969 19.25 8.757812 16.929688 8.757812 13.988281 C 8.757812 11.046875 11.042969 8.765625 13.984375 8.765625 Z M 13.984375 8.765625 "/>
<path style=" stroke:none;fill-rule:nonzero;fill:rgb(74.509804%,74.509804%,74.509804%);fill-opacity:1;" d="M 14.015625 10.515625 C 12.09375 10.515625 10.492188 12.089844 10.492188 14.011719 C 10.492188 15.933594 12.09375 17.503906 14.015625 17.503906 C 15.941406 17.503906 17.511719 15.933594 17.511719 14.011719 C 17.511719 12.089844 15.941406 10.515625 14.015625 10.515625 Z M 14.015625 12.265625 C 14.996094 12.265625 15.765625 13.035156 15.765625 14.011719 C 15.765625 14.988281 14.996094 15.757812 14.015625 15.757812 C 13.039062 15.757812 12.269531 14.988281 12.269531 14.011719 C 12.269531 13.035156 13.039062 12.265625 14.015625 12.265625 Z M 14.015625 12.265625 "/>
<path style=" stroke:none;fill-rule:nonzero;fill:rgb(100%,100%,100%);fill-opacity:1;" d="M 13.699219 17.46875 C 12.175781 17.351562 10.855469 16.152344 10.5625 14.621094 C 10.503906 14.328125 10.515625 13.632812 10.574219 13.339844 C 10.835938 12.125 11.710938 11.128906 12.863281 10.734375 C 13.339844 10.574219 13.667969 10.527344 14.191406 10.550781 C 15.113281 10.589844 15.886719 10.945312 16.53125 11.621094 C 17.429688 12.5625 17.726562 13.910156 17.304688 15.144531 C 17.019531 15.980469 16.363281 16.726562 15.5625 17.121094 C 14.976562 17.414062 14.394531 17.519531 13.699219 17.46875 Z M 14.394531 15.726562 C 14.996094 15.597656 15.488281 15.15625 15.6875 14.558594 C 15.777344 14.292969 15.789062 13.835938 15.714844 13.554688 C 15.425781 12.484375 14.238281 11.949219 13.234375 12.441406 C 12.089844 13.003906 11.921875 14.585938 12.925781 15.386719 C 13.34375 15.722656 13.855469 15.839844 14.394531 15.726562 Z M 14.394531 15.726562 "/>
<path style=" stroke:none;fill-rule:nonzero;fill:rgb(100%,100%,100%);fill-opacity:1;" d="M 12.945312 26.210938 C 10.15625 25.976562 7.4375 24.707031 5.414062 22.691406 C 3.371094 20.660156 2.136719 18.101562 1.820312 15.234375 C 1.757812 14.699219 1.757812 13.277344 1.820312 12.742188 C 2.078125 10.402344 2.925781 8.324219 4.398438 6.421875 C 4.789062 5.917969 5.925781 4.785156 6.445312 4.386719 C 8.773438 2.585938 11.488281 1.6875 14.335938 1.773438 C 16.464844 1.839844 18.414062 2.410156 20.269531 3.511719 C 21.859375 4.457031 23.378906 5.945312 24.382812 7.542969 C 26.132812 10.328125 26.675781 13.695312 25.890625 16.882812 C 24.804688 21.300781 21.28125 24.816406 16.847656 25.90625 C 15.625 26.207031 14.21875 26.316406 12.945312 26.210938 Z M 15.074219 19.15625 C 16.113281 18.921875 16.980469 18.453125 17.695312 17.746094 C 18.507812 16.9375 18.996094 15.980469 19.199219 14.800781 C 19.265625 14.410156 19.253906 13.488281 19.179688 13.070312 C 19.050781 12.359375 18.75 11.621094 18.335938 11 C 18.105469 10.65625 17.550781 10.082031 17.175781 9.800781 C 16.546875 9.328125 15.640625 8.949219 14.84375 8.824219 C 14.261719 8.734375 13.292969 8.765625 12.757812 8.890625 C 11.804688 9.117188 11.015625 9.550781 10.320312 10.226562 C 9.570312 10.953125 9.097656 11.8125 8.859375 12.890625 C 8.785156 13.214844 8.773438 13.363281 8.773438 13.988281 C 8.773438 14.789062 8.808594 15.019531 9.03125 15.703125 C 9.609375 17.507812 11.140625 18.828125 13.070312 19.1875 C 13.46875 19.261719 14.691406 19.242188 15.078125 19.15625 Z M 15.074219 19.15625 "/>
</g>
</svg>
