<?xml version="1.0" encoding="UTF-8"?>
<svg xmlns="http://www.w3.org/2000/svg" xmlns:xlink="http://www.w3.org/1999/xlink" width="28" height="28" viewBox="0 0 28 28" version="1.1">
<g id="surface1">
<path style=" stroke:none;fill-rule:nonzero;fill:rgb(74.509804%,74.509804%,74.509804%);fill-opacity:1;" d="M 6.230469 3.5 C 4.742188 3.5 3.5 4.742188 3.5 6.230469 L 3.5 21.761719 C 3.5 23.246094 4.75 24.496094 6.234375 24.496094 L 20.015625 24.496094 C 21.5 24.496094 22.75 23.246094 22.75 21.761719 L 22.75 7.214844 L 22.257812 6.722656 L 19.742188 4.042969 L 19.253906 3.484375 L 18.480469 3.484375 Z M 6.996094 7 L 17.714844 7 L 19.253906 8.644531 L 19.253906 21 L 7.003906 21 Z M 6.996094 7 "/>
<path style=" stroke:none;fill-rule:nonzero;fill:rgb(74.509804%,74.509804%,74.509804%);fill-opacity:1;" d="M 10.378906 8.871094 L 15.859375 8.871094 C 16.765625 8.871094 17.492188 9.601562 17.492188 10.507812 L 17.492188 14.09375 C 17.492188 15 16.765625 15.726562 15.859375 15.726562 L 10.378906 15.726562 C 9.472656 15.726562 8.742188 15 8.742188 14.09375 L 8.742188 10.507812 C 8.742188 9.597656 9.480469 8.878906 10.371094 8.878906 Z M 10.378906 8.871094 "/>
<path style=" stroke:none;fill-rule:nonzero;fill:rgb(100%,100%,100%);fill-opacity:1;" d="M 9.96875 15.664062 C 9.601562 15.578125 9.148438 15.222656 8.960938 14.875 C 8.761719 14.511719 8.757812 14.449219 8.757812 12.320312 C 8.757812 11.019531 8.769531 10.300781 8.796875 10.171875 C 8.933594 9.523438 9.460938 9.023438 10.128906 8.917969 C 10.277344 8.894531 11.410156 8.878906 13.179688 8.878906 C 15.566406 8.878906 16.03125 8.886719 16.226562 8.933594 C 16.890625 9.089844 17.371094 9.625 17.460938 10.292969 C 17.503906 10.648438 17.503906 13.992188 17.457031 14.3125 C 17.367188 14.941406 16.9375 15.449219 16.335938 15.636719 C 16.128906 15.703125 15.964844 15.703125 13.113281 15.703125 C 11.449219 15.699219 10.046875 15.683594 9.96875 15.664062 Z M 9.96875 15.664062 "/>
<path style=" stroke:none;fill-rule:nonzero;fill:rgb(100%,100%,100%);fill-opacity:1;" d="M 5.699219 24.425781 C 4.84375 24.242188 4.128906 23.660156 3.757812 22.851562 C 3.5 22.289062 3.515625 22.953125 3.527344 13.882812 L 3.539062 5.71875 L 3.621094 5.464844 C 3.9375 4.527344 4.628906 3.863281 5.574219 3.59375 L 5.847656 3.515625 L 12.550781 3.507812 L 19.253906 3.496094 L 19.480469 3.757812 C 19.777344 4.101562 22.144531 6.621094 22.476562 6.945312 L 22.734375 7.199219 L 22.730469 14.621094 C 22.730469 22.648438 22.742188 22.25 22.539062 22.746094 C 22.390625 23.113281 22.222656 23.363281 21.917969 23.667969 C 21.511719 24.078125 21.082031 24.3125 20.535156 24.429688 C 20.1875 24.5 6.039062 24.5 5.699219 24.425781 Z M 19.265625 14.828125 L 19.265625 8.640625 L 17.734375 7 L 6.984375 7 L 6.984375 21.015625 L 19.265625 21.015625 Z M 19.265625 14.828125 "/>
</g>
</svg>
