<?xml version="1.0" encoding="UTF-8"?>
<svg xmlns="http://www.w3.org/2000/svg" xmlns:xlink="http://www.w3.org/1999/xlink" width="28" height="28" viewBox="0 0 28 28" version="1.1">
<g id="surface1">
<path style=" stroke:none;fill-rule:nonzero;fill:rgb(74.509804%,74.509804%,74.509804%);fill-opacity:1;" d="M 13.984375 1.75 C 7.257812 1.75 1.742188 7.265625 1.742188 13.988281 C 1.742188 20.710938 7.257812 26.265625 13.984375 26.265625 C 20.707031 26.265625 26.257812 20.710938 26.257812 13.988281 C 26.257812 7.265625 20.707031 1.75 13.984375 1.75 Z M 13.984375 8.765625 C 16.921875 8.765625 19.242188 11.046875 19.242188 13.988281 C 19.242188 16.929688 16.921875 19.25 13.984375 19.25 C 11.042969 19.25 8.757812 16.929688 8.757812 13.988281 C 8.757812 11.046875 11.042969 8.765625 13.984375 8.765625 Z M 13.984375 8.765625 "/>
<path style=" stroke:none;fill-rule:nonzero;fill:rgb(74.509804%,74.509804%,74.509804%);fill-opacity:1;" d="M 14.015625 10.515625 C 12.09375 10.515625 10.492188 12.089844 10.492188 14.011719 C 10.492188 15.933594 12.09375 17.503906 14.015625 17.503906 C 15.941406 17.503906 17.511719 15.933594 17.511719 14.011719 C 17.511719 12.089844 15.941406 10.515625 14.015625 10.515625 Z M 14.015625 12.265625 C 14.996094 12.265625 15.765625 13.035156 15.765625 14.011719 C 15.765625 14.988281 14.996094 15.757812 14.015625 15.757812 C 13.039062 15.757812 12.269531 14.988281 12.269531 14.011719 C 12.269531 13.035156 13.039062 12.265625 14.015625 12.265625 Z M 14.015625 12.265625 "/>
<path style=" stroke:none;fill-rule:nonzero;fill:rgb(100%,100%,100%);fill-opacity:1;" d="M 13.433594 17.445312 C 12.804688 17.335938 12.25 17.074219 11.730469 16.640625 C 11.21875 16.214844 10.792969 15.542969 10.617188 14.867188 C 10.507812 14.464844 10.484375 13.84375 10.558594 13.429688 C 10.6875 12.703125 11 12.109375 11.535156 11.574219 C 12.128906 10.980469 12.820312 10.648438 13.65625 10.550781 C 15.4375 10.34375 17.128906 11.621094 17.453125 13.421875 C 17.507812 13.730469 17.5 14.371094 17.4375 14.671875 C 17.152344 16.027344 16.1875 17.042969 14.847656 17.390625 C 14.496094 17.484375 13.796875 17.507812 13.433594 17.445312 Z M 14.582031 15.675781 C 15.804688 15.253906 16.171875 13.703125 15.269531 12.789062 C 14.707031 12.222656 13.9375 12.097656 13.214844 12.457031 C 12.640625 12.738281 12.269531 13.339844 12.269531 13.992188 C 12.269531 14.320312 12.3125 14.5 12.449219 14.792969 C 12.664062 15.238281 13.085938 15.578125 13.585938 15.714844 C 13.824219 15.78125 14.332031 15.761719 14.582031 15.675781 Z M 14.582031 15.675781 "/>
<path style=" stroke:none;fill-rule:nonzero;fill:rgb(100%,100%,100%);fill-opacity:1;" d="M 13.484375 26.246094 C 10.4375 26.09375 7.660156 24.886719 5.484375 22.769531 C 3.472656 20.808594 2.234375 18.332031 1.851562 15.511719 C 1.765625 14.882812 1.742188 13.554688 1.804688 12.894531 C 2.128906 9.523438 3.746094 6.546875 6.410156 4.410156 C 8.386719 2.828125 10.882812 1.890625 13.429688 1.777344 C 16.558594 1.640625 19.617188 2.703125 21.984375 4.75 C 22.375 5.089844 23.160156 5.890625 23.457031 6.257812 C 26.136719 9.542969 26.941406 13.792969 25.636719 17.773438 C 24.167969 22.261719 20.15625 25.578125 15.488281 26.160156 C 14.832031 26.242188 14.074219 26.273438 13.484375 26.246094 Z M 14.785156 19.195312 C 16.457031 18.949219 17.890625 17.929688 18.660156 16.433594 C 19.71875 14.375 19.332031 11.867188 17.710938 10.261719 C 17.007812 9.566406 16.039062 9.058594 15.019531 8.851562 C 14.722656 8.789062 14.601562 8.785156 13.980469 8.785156 C 13.363281 8.785156 13.242188 8.789062 12.96875 8.847656 C 12.511719 8.945312 12.195312 9.042969 11.851562 9.195312 C 10.285156 9.878906 9.222656 11.203125 8.855469 12.921875 C 8.78125 13.261719 8.777344 13.339844 8.777344 13.992188 C 8.777344 14.640625 8.78125 14.71875 8.855469 15.058594 C 9.167969 16.523438 9.996094 17.726562 11.222656 18.488281 C 12.25 19.125 13.527344 19.378906 14.785156 19.195312 Z M 14.785156 19.195312 "/>
</g>
</svg>
