<?xml version="1.0" encoding="UTF-8"?>
<svg xmlns="http://www.w3.org/2000/svg" xmlns:xlink="http://www.w3.org/1999/xlink" width="28" height="28" viewBox="0 0 28 28" version="1.1">
<g id="surface1">
<path style=" stroke:none;fill-rule:nonzero;fill:rgb(74.509804%,74.509804%,74.509804%);fill-opacity:1;" d="M 5.199219 1.75 C 3.316406 1.75 1.75 3.3125 1.75 5.195312 L 1.75 21.765625 L 2.296875 22.257812 L 5.25 25.210938 L 5.25 5.25 L 22.75 5.25 L 22.75 22.75 L 19.25 22.75 L 19.25 26.25 L 22.804688 26.25 C 24.6875 26.25 26.25 24.6875 26.25 22.804688 L 26.25 5.195312 C 26.25 3.308594 24.695312 1.75 22.804688 1.75 Z M 5.199219 1.75 "/>
<path style=" stroke:none;fill-rule:nonzero;fill:rgb(74.509804%,74.509804%,74.509804%);fill-opacity:1;" d="M 8.75 15.75 C 7.78125 15.75 7 16.53125 7 17.5 L 7 24.5 C 7 25.46875 7.78125 26.25 8.75 26.25 L 15.75 26.25 C 16.71875 26.25 17.5 25.46875 17.5 24.5 L 17.5 17.5 C 17.5 16.53125 16.71875 15.75 15.75 15.75 Z M 8.75 17.5 L 12.25 17.5 L 12.25 24.5 L 8.75 24.5 Z M 8.75 17.5 "/>
<path style=" stroke:none;fill-rule:nonzero;fill:rgb(100%,100%,100%);fill-opacity:1;" d="M 8.484375 26.210938 C 7.789062 26.09375 7.253906 25.613281 7.070312 24.933594 C 7.03125 24.785156 7.023438 24.03125 7.023438 20.992188 C 7.023438 16.890625 7.011719 17.089844 7.230469 16.664062 C 7.371094 16.386719 7.695312 16.085938 8.023438 15.929688 L 8.304688 15.796875 L 12.167969 15.785156 C 15.933594 15.777344 16.039062 15.777344 16.269531 15.847656 C 16.859375 16.027344 17.3125 16.527344 17.441406 17.140625 C 17.519531 17.5 17.519531 24.488281 17.445312 24.847656 C 17.289062 25.570312 16.71875 26.109375 15.996094 26.210938 C 15.6875 26.257812 8.75 26.257812 8.484375 26.210938 Z M 12.257812 20.996094 L 12.257812 17.472656 L 10.5 17.484375 L 8.738281 17.492188 L 8.730469 20.960938 C 8.722656 22.867188 8.726562 24.445312 8.734375 24.472656 C 8.75 24.507812 9.136719 24.515625 10.507812 24.515625 L 12.257812 24.515625 Z M 12.257812 20.996094 "/>
<path style=" stroke:none;fill-rule:nonzero;fill:rgb(100%,100%,100%);fill-opacity:1;" d="M 19.265625 24.5 L 19.265625 22.746094 L 22.769531 22.746094 L 22.769531 5.230469 L 5.253906 5.230469 L 5.253906 25.179688 L 3.636719 23.574219 C 2.75 22.6875 1.960938 21.921875 1.886719 21.863281 L 1.75 21.761719 L 1.75 13.5 C 1.75 8.003906 1.761719 5.117188 1.789062 4.871094 C 1.871094 4.054688 2.203125 3.363281 2.792969 2.773438 C 3.285156 2.28125 3.867188 1.972656 4.550781 1.832031 C 4.878906 1.765625 5.160156 1.765625 14.128906 1.773438 L 23.363281 1.78125 L 23.652344 1.863281 C 24.875 2.207031 25.792969 3.125 26.136719 4.347656 L 26.21875 4.636719 L 26.226562 13.84375 C 26.234375 20.21875 26.226562 23.132812 26.199219 23.308594 C 26.03125 24.417969 25.28125 25.414062 24.242188 25.90625 C 23.570312 26.222656 23.570312 26.222656 21.28125 26.242188 L 19.265625 26.257812 Z M 19.265625 24.5 "/>
</g>
</svg>
