<?xml version="1.0" encoding="UTF-8"?>
<svg xmlns="http://www.w3.org/2000/svg" xmlns:xlink="http://www.w3.org/1999/xlink" width="28" height="28" viewBox="0 0 28 28" version="1.1">
<g id="surface1">
<path style=" stroke:none;fill-rule:nonzero;fill:rgb(74.509804%,74.509804%,74.509804%);fill-opacity:1;" d="M 7.820312 1.75 C 6.382812 1.75 5.25 2.882812 5.25 4.320312 L 5.25 23.679688 C 5.25 25.117188 6.382812 26.25 7.820312 26.25 L 20.179688 26.25 C 21.617188 26.25 22.75 25.117188 22.75 23.679688 L 22.75 4.320312 C 22.75 2.882812 21.617188 1.75 20.179688 1.75 Z M 7 3.5 L 21 3.5 L 21 12.25 L 7 12.25 Z M 14 14 C 16.898438 14 19.25 16.351562 19.25 19.25 C 19.25 22.148438 16.898438 24.5 14 24.5 C 11.101562 24.5 8.75 22.148438 8.75 19.25 C 8.75 16.351562 11.101562 14 14 14 Z M 14 14 "/>
<path style=" stroke:none;fill-rule:nonzero;fill:rgb(74.509804%,74.509804%,74.509804%);fill-opacity:1;" d="M 16.625 19.25 C 16.625 20.699219 15.449219 21.875 14 21.875 C 12.550781 21.875 11.375 20.699219 11.375 19.25 C 11.375 17.800781 12.550781 16.625 14 16.625 C 15.449219 16.625 16.625 17.800781 16.625 19.25 Z M 16.625 19.25 "/>
<path style=" stroke:none;fill-rule:nonzero;fill:rgb(100%,100%,100%);fill-opacity:1;" d="M 13.738281 21.839844 C 12.769531 21.753906 11.890625 21.074219 11.554688 20.152344 C 11.042969 18.75 11.769531 17.257812 13.199219 16.765625 C 13.457031 16.675781 13.539062 16.664062 13.972656 16.664062 C 14.527344 16.660156 14.800781 16.726562 15.257812 16.960938 C 15.589844 17.136719 16.078125 17.617188 16.269531 17.957031 C 17.066406 19.398438 16.386719 21.1875 14.835938 21.71875 C 14.527344 21.828125 14.101562 21.871094 13.738281 21.839844 Z M 13.738281 21.839844 "/>
<path style=" stroke:none;fill-rule:nonzero;fill:rgb(100%,100%,100%);fill-opacity:1;" d="M 7.460938 26.210938 C 6.894531 26.136719 6.445312 25.90625 6.007812 25.46875 C 5.769531 25.234375 5.683594 25.117188 5.546875 24.839844 C 5.25 24.238281 5.273438 25.183594 5.269531 13.984375 C 5.269531 4.109375 5.273438 3.976562 5.34375 3.691406 C 5.570312 2.792969 6.253906 2.09375 7.152344 1.84375 C 7.371094 1.785156 7.789062 1.78125 14.027344 1.78125 L 20.675781 1.78125 L 20.953125 1.875 C 21.9375 2.214844 22.582031 2.992188 22.714844 4.007812 C 22.742188 4.222656 22.75 7.210938 22.742188 14.207031 L 22.730469 24.101562 L 22.648438 24.371094 C 22.371094 25.265625 21.765625 25.871094 20.867188 26.148438 L 20.601562 26.230469 L 14.15625 26.234375 C 10.535156 26.238281 7.601562 26.226562 7.460938 26.210938 Z M 14.949219 24.425781 C 16.246094 24.175781 17.441406 23.429688 18.21875 22.386719 C 18.648438 21.8125 19 21.027344 19.160156 20.292969 C 19.257812 19.855469 19.257812 18.671875 19.164062 18.230469 C 18.9375 17.164062 18.464844 16.292969 17.714844 15.539062 C 16.929688 14.753906 15.9375 14.238281 14.863281 14.0625 C 14.414062 13.984375 13.5625 13.984375 13.144531 14.058594 C 10.941406 14.449219 9.261719 16.089844 8.820312 18.292969 C 8.726562 18.777344 8.734375 19.789062 8.839844 20.28125 C 9.066406 21.328125 9.550781 22.222656 10.289062 22.964844 C 11.171875 23.84375 12.222656 24.339844 13.542969 24.496094 C 13.792969 24.527344 14.648438 24.484375 14.949219 24.425781 Z M 21.015625 7.886719 L 21.015625 3.496094 L 7.003906 3.496094 L 7.003906 12.273438 L 21.015625 12.273438 Z M 21.015625 7.886719 "/>
</g>
</svg>
