<?xml version="1.0" encoding="UTF-8"?>
<svg xmlns="http://www.w3.org/2000/svg" xmlns:xlink="http://www.w3.org/1999/xlink" width="28" height="28" viewBox="0 0 28 28" version="1.1">
<g id="surface1">
<path style=" stroke:none;fill-rule:nonzero;fill:rgb(74.509804%,74.509804%,74.509804%);fill-opacity:1;" d="M 9.574219 1.75 C 8.136719 1.75 7 2.882812 7 4.320312 L 7 23.679688 C 7 25.117188 8.136719 26.25 9.574219 26.25 L 18.542969 26.25 C 19.976562 26.25 21.113281 25.117188 21.113281 23.679688 L 21.113281 4.320312 C 21.113281 2.882812 19.976562 1.75 18.542969 1.75 Z M 8.753906 3.5 L 19.363281 3.5 L 19.363281 22.75 L 8.753906 22.75 Z M 8.753906 3.5 "/>
<path style=" stroke:none;fill-rule:nonzero;fill:rgb(100%,100%,100%);fill-opacity:1;" d="M 9.210938 26.210938 C 8.648438 26.136719 8.199219 25.90625 7.757812 25.46875 C 7.519531 25.234375 7.433594 25.117188 7.296875 24.839844 C 6.996094 24.230469 7.019531 25.195312 7.03125 13.890625 L 7.039062 3.804688 L 7.136719 3.523438 C 7.453125 2.601562 8.21875 1.945312 9.152344 1.800781 C 9.351562 1.769531 10.726562 1.761719 14.226562 1.769531 L 19.03125 1.78125 L 19.285156 1.867188 C 19.734375 2.019531 20.019531 2.191406 20.332031 2.503906 C 20.773438 2.945312 20.992188 3.390625 21.074219 3.992188 C 21.097656 4.179688 21.105469 7.566406 21.101562 14.1875 C 21.089844 23.574219 21.085938 24.113281 21.023438 24.316406 C 20.746094 25.25 20.140625 25.867188 19.222656 26.148438 L 18.957031 26.230469 L 14.210938 26.234375 C 11.570312 26.238281 9.351562 26.226562 9.210938 26.210938 Z M 19.375 13.121094 L 19.375 3.496094 L 8.757812 3.496094 L 8.757812 22.746094 L 19.375 22.746094 Z M 19.375 13.121094 "/>
</g>
</svg>
