<?xml version="1.0" encoding="UTF-8"?>
<svg xmlns="http://www.w3.org/2000/svg" xmlns:xlink="http://www.w3.org/1999/xlink" width="28" height="28" viewBox="0 0 28 28" version="1.1">
<defs>
<clipPath id="clip1">
  <path d="M 8.757812 14.164062 L 19.257812 14.164062 L 19.257812 17.503906 L 8.757812 17.503906 Z M 8.757812 14.164062 "/>
</clipPath>
<clipPath id="clip2">
  <path d="M 5.257812 8.804688 L 22.757812 8.804688 L 22.757812 14 L 5.257812 14 Z M 5.257812 8.804688 "/>
</clipPath>
<clipPath id="clip3">
  <path d="M 1.753906 3.609375 L 26.242188 3.609375 L 26.242188 10.503906 L 1.753906 10.503906 Z M 1.753906 3.609375 "/>
</clipPath>
</defs>
<g id="surface1">
<g clip-path="url(#clip1)" clip-rule="nonzero">
<path style=" stroke:none;fill-rule:nonzero;fill:rgb(74.509804%,74.509804%,74.509804%);fill-opacity:1;" d="M 8.347656 17.210938 C 8.421875 17.832031 8.925781 18.359375 9.632812 18.5625 C 10.339844 18.765625 11.125 18.605469 11.640625 18.15625 C 12.960938 17.054688 15.058594 17.054688 16.378906 18.15625 C 16.820312 18.671875 17.589844 18.921875 18.335938 18.792969 C 19.078125 18.660156 19.660156 18.171875 19.816406 17.550781 C 19.96875 16.929688 19.667969 16.289062 19.046875 15.921875 C 16.261719 13.605469 11.738281 13.605469 8.957031 15.921875 C 8.523438 16.25 8.292969 16.722656 8.332031 17.210938 Z M 8.347656 17.210938 "/>
</g>
<g clip-path="url(#clip2)" clip-rule="nonzero">
<path style=" stroke:none;fill-rule:nonzero;fill:rgb(74.509804%,74.509804%,74.509804%);fill-opacity:1;" d="M 4.730469 13.710938 C 4.890625 14.300781 5.390625 14.765625 6.03125 14.921875 C 6.671875 15.078125 7.355469 14.902344 7.816406 14.464844 C 11.21875 11.347656 16.765625 11.347656 20.167969 14.464844 C 20.609375 14.957031 21.320312 15.175781 21.996094 15.03125 C 22.671875 14.886719 23.199219 14.402344 23.359375 13.78125 C 23.515625 13.160156 23.277344 12.511719 22.742188 12.105469 C 17.945312 7.707031 10.042969 7.707031 5.242188 12.105469 C 4.769531 12.515625 4.566406 13.128906 4.714844 13.710938 Z M 4.730469 13.710938 "/>
</g>
<g clip-path="url(#clip3)" clip-rule="nonzero">
<path style=" stroke:none;fill-rule:nonzero;fill:rgb(74.509804%,74.509804%,74.509804%);fill-opacity:1;" d="M 0.800781 9.914062 C 0.902344 10.523438 1.347656 11.03125 1.96875 11.242188 C 2.585938 11.453125 3.28125 11.335938 3.78125 10.9375 C 3.835938 10.890625 3.890625 10.84375 3.9375 10.789062 C 9.492188 5.625 18.464844 5.625 24.019531 10.789062 C 24.417969 11.367188 25.160156 11.660156 25.886719 11.53125 C 26.613281 11.398438 27.183594 10.871094 27.324219 10.195312 C 27.464844 9.519531 27.148438 8.832031 26.527344 8.457031 C 19.585938 2.003906 8.371094 2.003906 1.429688 8.457031 C 0.972656 8.816406 0.738281 9.363281 0.800781 9.914062 Z M 0.800781 9.914062 "/>
</g>
<path style=" stroke:none;fill-rule:nonzero;fill:rgb(74.509804%,74.509804%,74.509804%);fill-opacity:1;" d="M 17.5 22.75 C 17.5 24.683594 15.933594 26.25 14 26.25 C 12.066406 26.25 10.5 24.683594 10.5 22.75 C 10.5 20.816406 12.066406 19.25 14 19.25 C 15.933594 19.25 17.5 20.816406 17.5 22.75 Z M 17.5 22.75 "/>
<path style=" stroke:none;fill-rule:nonzero;fill:rgb(100%,100%,100%);fill-opacity:1;" d="M 13.589844 26.214844 C 12.207031 26.050781 11.066406 25.082031 10.648438 23.703125 C 10.554688 23.402344 10.546875 23.332031 10.546875 22.746094 C 10.546875 22.164062 10.554688 22.089844 10.644531 21.796875 C 11.050781 20.484375 12.089844 19.550781 13.398438 19.316406 C 13.777344 19.25 14.585938 19.285156 14.929688 19.386719 C 17.015625 19.992188 18.070312 22.285156 17.152344 24.21875 C 17.0625 24.40625 16.917969 24.660156 16.832031 24.78125 C 16.652344 25.035156 16.21875 25.460938 15.980469 25.625 C 15.527344 25.933594 14.933594 26.148438 14.378906 26.210938 C 14 26.253906 13.945312 26.253906 13.589844 26.214844 Z M 13.589844 26.214844 "/>
<path style=" stroke:none;fill-rule:nonzero;fill:rgb(100%,100%,100%);fill-opacity:1;" d="M 8.757812 16.789062 L 8.757812 16.105469 L 9.019531 15.894531 C 10.105469 15.011719 11.410156 14.472656 12.980469 14.257812 C 13.417969 14.195312 14.550781 14.195312 15.023438 14.253906 C 16.511719 14.445312 17.757812 14.953125 18.949219 15.859375 L 19.230469 16.070312 L 19.230469 17.472656 L 17.179688 17.472656 C 15.28125 17.472656 15.105469 17.46875 14.785156 17.402344 C 14.554688 17.355469 14.300781 17.332031 14.011719 17.332031 C 13.71875 17.332031 13.464844 17.355469 13.234375 17.402344 C 12.917969 17.46875 12.742188 17.472656 10.824219 17.472656 L 8.757812 17.472656 Z M 8.757812 16.789062 "/>
<path style=" stroke:none;fill-rule:nonzero;fill:rgb(100%,100%,100%);fill-opacity:1;" d="M 5.253906 13.039062 L 5.253906 12.105469 L 5.550781 11.851562 C 8.90625 9.007812 13.660156 8.082031 18.011719 9.425781 C 19.65625 9.933594 21.257812 10.824219 22.523438 11.929688 L 22.734375 12.109375 L 22.734375 13.972656 L 19.59375 13.972656 L 19.3125 13.769531 C 18.246094 13.003906 16.839844 12.441406 15.417969 12.214844 C 14.855469 12.125 13.507812 12.105469 12.910156 12.179688 C 11.300781 12.378906 9.855469 12.917969 8.671875 13.769531 L 8.390625 13.972656 L 5.253906 13.972656 Z M 5.253906 13.039062 "/>
<path style=" stroke:none;fill-rule:nonzero;fill:rgb(100%,100%,100%);fill-opacity:1;" d="M 1.773438 10.480469 C 1.761719 10.464844 1.75 9.945312 1.75 9.324219 L 1.75 8.195312 L 1.902344 8.054688 C 2.476562 7.523438 3.566406 6.738281 4.488281 6.195312 C 6.75 4.851562 9.183594 4.054688 12.023438 3.726562 C 12.8125 3.632812 15.109375 3.632812 15.925781 3.726562 C 19.742188 4.152344 23.082031 5.554688 25.882812 7.902344 L 26.234375 8.195312 L 26.234375 10.503906 L 23.722656 10.503906 L 23.46875 10.292969 C 21.574219 8.695312 19.09375 7.558594 16.578125 7.128906 C 14.882812 6.839844 13.066406 6.839844 11.394531 7.128906 C 8.816406 7.574219 6.429688 8.667969 4.5 10.28125 L 4.234375 10.503906 L 3.015625 10.503906 C 2.347656 10.503906 1.785156 10.492188 1.773438 10.480469 Z M 1.773438 10.480469 "/>
</g>
</svg>
