<?xml version="1.0" encoding="UTF-8"?>
<svg xmlns="http://www.w3.org/2000/svg" xmlns:xlink="http://www.w3.org/1999/xlink" width="28" height="28" viewBox="0 0 28 28" version="1.1">
<g id="surface1">
<path style=" stroke:none;fill-rule:nonzero;fill:rgb(74.509804%,74.509804%,74.509804%);fill-opacity:1;" d="M 10.5 1.75 C 8.734375 1.757812 8.75 3.5 8.75 3.5 L 8.75 22.75 C 8.75 24.5 10.5 24.5 10.5 24.5 L 17.5 24.5 C 19.25 24.5 19.25 22.75 19.25 22.75 L 19.25 8.75 C 19.25 7.78125 18.46875 7 17.5 7 L 12.25 7 L 12.25 3.5 C 12.25 3.5 12.234375 1.757812 10.5 1.75 Z M 10.5 8.75 L 17.5 8.75 L 17.5 14.054688 L 10.5 14 Z M 10.5 15.75 L 12.25 15.75 L 12.25 17.5 L 14 17.5 L 14 15.75 L 15.75 15.75 L 15.75 17.5 L 17.5 17.5 L 17.5 19.25 L 15.75 19.25 L 15.75 21 L 17.5 21 L 17.5 22.75 L 15.75 22.75 L 15.75 21 L 14 21 L 14 22.75 L 12.25 22.75 L 12.25 21 L 10.5 21 L 10.5 19.25 L 12.25 19.25 L 12.25 17.5 L 10.5 17.5 Z M 12.25 19.25 L 12.25 21 L 14 21 L 14 19.25 Z M 14 19.25 L 15.75 19.25 L 15.75 17.5 L 14 17.5 Z M 14 19.25 "/>
<path style=" stroke:none;fill-rule:nonzero;fill:rgb(100%,100%,100%);fill-opacity:1;" d="M 10.054688 24.421875 C 9.351562 24.238281 8.898438 23.769531 8.792969 23.109375 C 8.769531 22.949219 8.757812 19.679688 8.757812 13.121094 C 8.757812 2.4375 8.742188 3.128906 8.972656 2.648438 C 9.238281 2.09375 9.796875 1.765625 10.476562 1.765625 C 11.175781 1.761719 11.722656 2.074219 12.007812 2.632812 C 12.21875 3.050781 12.222656 3.101562 12.222656 5.136719 L 12.222656 7 L 14.886719 7 C 16.574219 7 17.636719 7.015625 17.785156 7.039062 C 18.4375 7.144531 19.007812 7.667969 19.179688 8.3125 C 19.21875 8.46875 19.230469 9.730469 19.230469 15.722656 C 19.230469 21.996094 19.222656 22.976562 19.175781 23.171875 C 19.019531 23.835938 18.597656 24.285156 18 24.425781 C 17.660156 24.503906 10.359375 24.503906 10.054688 24.421875 Z M 14.027344 21.878906 L 14.027344 21.015625 L 15.726562 21.015625 L 15.726562 22.746094 L 17.496094 22.746094 L 17.496094 20.976562 L 15.761719 20.976562 L 15.761719 19.28125 L 17.496094 19.28125 L 17.496094 17.472656 L 15.761719 17.472656 L 15.761719 15.742188 L 13.992188 15.742188 L 13.992188 17.472656 L 12.257812 17.472656 L 12.257812 15.742188 L 10.488281 15.742188 L 10.488281 17.511719 L 12.222656 17.511719 L 12.222656 19.242188 L 10.488281 19.242188 L 10.488281 21.015625 L 12.222656 21.015625 L 12.222656 22.746094 L 14.027344 22.746094 Z M 17.496094 11.40625 L 17.496094 8.734375 L 10.488281 8.734375 L 10.488281 14.007812 L 11.128906 14.011719 C 13.007812 14.027344 16.871094 14.066406 17.160156 14.074219 L 17.496094 14.078125 Z M 17.496094 11.40625 "/>
<path style=" stroke:none;fill-rule:nonzero;fill:rgb(100%,100%,100%);fill-opacity:1;" d="M 14.027344 18.378906 L 14.027344 17.511719 L 15.726562 17.511719 L 15.726562 19.242188 L 14.027344 19.242188 Z M 14.027344 18.378906 "/>
<path style=" stroke:none;fill-rule:nonzero;fill:rgb(100%,100%,100%);fill-opacity:1;" d="M 12.257812 20.128906 L 12.257812 19.28125 L 13.992188 19.28125 L 13.992188 20.976562 L 12.257812 20.976562 Z M 12.257812 20.128906 "/>
</g>
</svg>
