<?xml version="1.0" encoding="UTF-8"?>
<svg xmlns="http://www.w3.org/2000/svg" xmlns:xlink="http://www.w3.org/1999/xlink" width="28" height="28" viewBox="0 0 28 28" version="1.1">
<g id="surface1">
<path style=" stroke:none;fill-rule:nonzero;fill:rgb(74.509804%,74.509804%,74.509804%);fill-opacity:1;" d="M 3.5 7 C 2.625 7 1.75 7.875 1.75 8.75 L 1.75 15.75 C 1.75 16.625 2.625 17.5 3.5 17.5 L 5.25 17.5 L 5.25 14 L 22.75 14 L 22.75 17.5 L 24.5 17.5 C 25.375 17.5 26.25 16.625 26.25 15.75 L 26.25 8.75 C 26.25 7.875 25.375 7 24.5 7 Z M 3.5 7 "/>
<path style=" stroke:none;fill-rule:nonzero;fill:rgb(74.509804%,74.509804%,74.509804%);fill-opacity:1;" d="M 7 1.75 L 7 5.25 L 21 5.25 L 21 1.75 Z M 7 1.75 "/>
<path style=" stroke:none;fill-rule:nonzero;fill:rgb(74.509804%,74.509804%,74.509804%);fill-opacity:1;" d="M 7 15.75 L 7 24.5 L 21 24.5 L 21 15.75 Z M 8.75 17.5 L 19.25 17.5 L 19.25 19.25 L 8.75 19.25 Z M 8.75 21 L 17.5 21 L 17.5 22.75 L 8.75 22.75 Z M 8.75 21 "/>
<path style=" stroke:none;fill-rule:nonzero;fill:rgb(100%,100%,100%);fill-opacity:1;" d="M 7.023438 20.128906 L 7.023438 15.777344 L 21 15.777344 L 21 24.480469 L 7.023438 24.480469 Z M 17.496094 21.863281 L 17.496094 20.976562 L 13.117188 20.984375 L 8.738281 20.996094 L 8.730469 21.871094 L 8.71875 22.746094 L 17.496094 22.746094 Z M 19.257812 18.367188 L 19.265625 17.472656 L 14.003906 17.484375 L 8.738281 17.492188 L 8.730469 18.339844 C 8.722656 18.804688 8.726562 19.210938 8.734375 19.234375 C 8.75 19.269531 9.777344 19.277344 14 19.269531 L 19.246094 19.261719 Z M 19.257812 18.367188 "/>
<path style=" stroke:none;fill-rule:nonzero;fill:rgb(100%,100%,100%);fill-opacity:1;" d="M 3.042969 17.40625 C 2.925781 17.367188 2.753906 17.285156 2.65625 17.222656 C 2.421875 17.074219 2.085938 16.710938 1.957031 16.472656 C 1.75 16.089844 1.75 16.113281 1.75 12.273438 C 1.75 10.15625 1.765625 8.667969 1.785156 8.535156 C 1.898438 7.828125 2.578125 7.152344 3.285156 7.035156 C 3.601562 6.984375 24.457031 6.988281 24.738281 7.039062 C 25.371094 7.15625 25.96875 7.695312 26.164062 8.328125 C 26.234375 8.554688 26.234375 8.671875 26.234375 12.234375 C 26.234375 16.277344 26.242188 16.121094 26.011719 16.535156 C 25.839844 16.835938 25.496094 17.152344 25.167969 17.316406 L 24.886719 17.457031 L 22.769531 17.480469 L 22.75 13.988281 L 14 13.980469 L 5.253906 13.972656 L 5.253906 17.472656 L 4.25 17.472656 C 3.382812 17.472656 3.21875 17.460938 3.042969 17.40625 Z M 3.042969 17.40625 "/>
<path style=" stroke:none;fill-rule:nonzero;fill:rgb(100%,100%,100%);fill-opacity:1;" d="M 7.023438 3.496094 L 7.023438 1.765625 L 21 1.765625 L 21 5.230469 L 7.023438 5.230469 Z M 7.023438 3.496094 "/>
</g>
</svg>
