<?xml version="1.0" encoding="UTF-8"?>
<svg xmlns="http://www.w3.org/2000/svg" xmlns:xlink="http://www.w3.org/1999/xlink" width="28" height="28" viewBox="0 0 28 28" version="1.1">
<g id="surface1">
<path style=" stroke:none;fill-rule:nonzero;fill:rgb(74.509804%,74.509804%,74.509804%);fill-opacity:1;" d="M 10.5 21 L 10.5 24.5 L 0.820312 24.5 C 0.359375 24.5 0 24.859375 0 25.320312 L 0 27.179688 C 0 27.640625 0.359375 28 0.820312 28 L 23.679688 28 C 24.140625 28 24.5 27.640625 24.5 27.179688 L 24.5 25.320312 C 24.5 24.859375 24.140625 24.5 23.679688 24.5 L 14 24.5 L 14 21 Z M 10.5 21 "/>
<path style=" stroke:none;fill-rule:nonzero;fill:rgb(74.509804%,74.509804%,74.509804%);fill-opacity:1;" d="M 7.085938 3.710938 L 7.085938 13.984375 L 17.503906 13.984375 L 17.503906 7.101562 L 14.003906 3.710938 Z M 3.503906 14.011719 L 3.503906 20.9375 L 20.949219 20.9375 L 20.949219 14.011719 L 19.28125 14.011719 L 19.277344 15.726562 L 5.230469 15.785156 L 5.230469 14.007812 Z M 3.503906 14.011719 "/>
<path style=" stroke:none;fill-rule:nonzero;fill:rgb(100%,100%,100%);fill-opacity:1;" d="M 7.09375 8.84375 L 7.09375 3.714844 L 14 3.714844 L 15.742188 5.402344 L 17.488281 7.089844 L 17.496094 13.972656 L 7.09375 13.972656 Z M 7.09375 8.84375 "/>
<path style=" stroke:none;fill-rule:nonzero;fill:rgb(100%,100%,100%);fill-opacity:1;" d="M 3.519531 17.472656 L 3.519531 14.007812 L 5.214844 14.007812 L 5.214844 15.800781 L 7.609375 15.789062 C 8.925781 15.78125 12.09375 15.765625 14.652344 15.753906 L 19.300781 15.730469 L 19.300781 14.007812 L 20.925781 14.007812 L 20.925781 20.941406 L 3.519531 20.941406 Z M 3.519531 17.472656 "/>
<path style=" stroke:none;fill-rule:nonzero;fill:rgb(100%,100%,100%);fill-opacity:1;" d="M 0.445312 27.882812 C 0.304688 27.808594 0.222656 27.734375 0.144531 27.605469 L 0.0351562 27.429688 L 0.0351562 25.070312 L 0.144531 24.894531 C 0.222656 24.757812 0.300781 24.691406 0.445312 24.617188 L 0.644531 24.515625 L 10.527344 24.515625 L 10.527344 21.015625 L 13.992188 21.015625 L 13.992188 24.515625 L 18.894531 24.515625 C 22.203125 24.515625 23.84375 24.527344 23.933594 24.554688 C 24.105469 24.601562 24.300781 24.773438 24.40625 24.964844 C 24.480469 25.109375 24.484375 25.148438 24.484375 26.25 C 24.484375 27.351562 24.480469 27.390625 24.40625 27.535156 C 24.300781 27.726562 24.105469 27.898438 23.933594 27.945312 C 23.839844 27.972656 20.1875 27.984375 12.21875 27.984375 L 0.636719 27.984375 Z M 0.445312 27.882812 "/>
</g>
</svg>
