<?xml version="1.0" encoding="UTF-8"?>
<svg xmlns="http://www.w3.org/2000/svg" xmlns:xlink="http://www.w3.org/1999/xlink" width="32" height="32" viewBox="0 0 32 32" version="1.1">
<g id="surface1">
<path style=" stroke:none;fill-rule:evenodd;fill:rgb(15.686275%,9.019608%,4.313725%);fill-opacity:1;" d="M 4.035156 9.847656 L 7.441406 13.179688 L 7.335938 8.503906 L 4.03125 8.488281 Z M 4.035156 9.847656 "/>
<path style="fill-rule:evenodd;fill:rgb(94.901961%,94.901961%,94.901961%);fill-opacity:1;stroke-width:5.03546;stroke-linecap:butt;stroke-linejoin:miter;stroke:rgb(68.627451%,68.627451%,68.627451%);stroke-opacity:1;stroke-miterlimit:4;" d="M 97.045898 1029.840207 L 433.898926 1028.680539 L 435.119629 664.788937 L 347.045898 575.555539 L 97.045898 575.555539 Z M 97.045898 1029.840207 " transform="matrix(0.064,0,0,0.064,0,-35.35118)"/>
<path style="fill-rule:evenodd;fill:rgb(68.627451%,68.627451%,68.627451%);fill-opacity:1;stroke-width:5.03546;stroke-linecap:butt;stroke-linejoin:miter;stroke:rgb(68.627451%,68.627451%,68.627451%);stroke-opacity:1;stroke-miterlimit:4;" d="M 431.518555 662.896848 L 349.365234 662.347531 L 350.097656 578.546262 Z M 431.518555 662.896848 " transform="matrix(0.064,0,0,0.064,0,-35.35118)"/>
<path style=" stroke:none;fill-rule:nonzero;fill:rgb(31.372549%,17.647059%,8.627451%);fill-opacity:1;" d="M 4.039062 4.46875 L 21.234375 4.46875 L 21.234375 9.867188 L 4.039062 9.867188 Z M 4.039062 4.46875 "/>
<path style=" stroke:none;fill-rule:nonzero;fill:rgb(80%,80%,80%);fill-opacity:1;" d="M 11.296875 19.066406 C 11.296875 19.066406 11.507812 18.015625 17.417969 18.007812 C 23.328125 18 23.566406 19.160156 23.566406 19.160156 L 23.039062 20.925781 L 11.96875 20.96875 Z M 11.296875 19.066406 "/>
<path style=" stroke:none;fill-rule:nonzero;fill:rgb(80%,80%,80%);fill-opacity:1;" d="M 25.46875 27.078125 C 25.695312 28.671875 22.304688 30.03125 17.890625 30.117188 C 13.480469 30.195312 9.71875 28.96875 9.488281 27.375 C 9.261719 25.78125 12.648438 24.417969 17.058594 24.335938 C 21.46875 24.253906 25.234375 25.476562 25.46875 27.070312 "/>
<path style=" stroke:none;fill-rule:nonzero;fill:rgb(50.196078%,50.196078%,50.196078%);fill-opacity:1;" d="M 22.015625 27.035156 C 22.144531 27.933594 20.230469 28.703125 17.738281 28.75 C 15.25 28.796875 13.125 28.101562 12.996094 27.203125 C 12.863281 26.304688 14.777344 25.535156 17.269531 25.488281 C 19.757812 25.4375 21.882812 26.128906 22.015625 27.03125 "/>
<path style=" stroke:none;fill-rule:nonzero;fill:rgb(31.372549%,17.647059%,8.627451%);fill-opacity:1;" d="M 23.144531 19.964844 C 23.300781 20.660156 20.929688 21.257812 17.851562 21.292969 C 14.769531 21.328125 12.144531 20.792969 11.984375 20.09375 C 11.820312 19.398438 14.1875 18.800781 17.269531 18.765625 C 20.351562 18.726562 22.980469 19.261719 23.140625 19.960938 "/>
<path style="fill:none;stroke-width:12.0954;stroke-linecap:butt;stroke-linejoin:miter;stroke:rgb(50.196078%,50.196078%,50.196078%);stroke-opacity:1;stroke-miterlimit:4;" d="M 349.182129 925.042844 C 349.182129 925.042844 367.248535 927.667355 374.694824 923.150754 C 382.141113 918.634152 387.145996 908.502316 386.962891 900.628781 C 386.779785 892.694211 382.8125 886.468625 377.01416 883.294797 C 371.21582 880.059934 357.971191 882.806516 357.971191 882.806516 " transform="matrix(0.064,0,0,0.064,0,-35.35118)"/>
<path style=" stroke:none;fill-rule:nonzero;fill:rgb(70.196078%,70.196078%,70.196078%);fill-opacity:1;" d="M 11.289062 19.042969 C 11.71875 23.957031 12.859375 27.691406 17.316406 27.890625 C 21.773438 28.089844 23.179688 23.304688 23.578125 19.164062 C 23.578125 19.164062 22.570312 20.210938 17.078125 20.144531 C 11.585938 20.074219 11.289062 19.042969 11.289062 19.042969 Z M 11.289062 19.042969 "/>
<path style="fill:none;stroke-width:9;stroke-linecap:butt;stroke-linejoin:miter;stroke:rgb(100%,100%,100%);stroke-opacity:1;stroke-miterlimit:4;" d="M 124.023438 643.731809 C 124.023438 643.731809 116.394043 636.956906 102.539062 637.994504 C 88.623047 639.093137 80.749512 654.962277 81.481934 666.925168 C 82.214355 678.949094 92.773438 693.23132 106.384277 692.010617 C 119.934082 690.850949 124.023438 686.029172 124.023438 686.029172 " transform="matrix(0.064,0,0,0.064,0,-35.35118)"/>
<path style="fill:none;stroke-width:9;stroke-linecap:butt;stroke-linejoin:miter;stroke:rgb(100%,100%,100%);stroke-opacity:1;stroke-miterlimit:4;" d="M 139.526367 632.074094 L 139.770508 686.578488 L 171.569824 686.822629 " transform="matrix(0.064,0,0,0.064,0,-35.35118)"/>
<path style="fill:none;stroke-width:9;stroke-linecap:butt;stroke-linejoin:bevel;stroke:rgb(100%,100%,100%);stroke-opacity:1;stroke-miterlimit:4;" d="M 915.709595 696.267904 L 937.830507 638.026271 L 960.557471 696.267904 " transform="matrix(0.064454,0,0,0.064454,-47.489896,-36.002251)"/>
<path style="fill:none;stroke-width:9;stroke-linecap:butt;stroke-linejoin:miter;stroke:rgb(100%,100%,100%);stroke-opacity:1;stroke-miterlimit:4;" d="M 924.55796 676.753018 L 950.375791 676.753018 " transform="matrix(0.064454,0,0,0.064454,-47.489896,-36.002251)"/>
<path style="fill:none;stroke-width:10;stroke-linecap:butt;stroke-linejoin:miter;stroke:rgb(100%,100%,100%);stroke-opacity:1;stroke-miterlimit:4;" d="M 273.254395 639.459348 C 273.254395 639.459348 263.977051 635.186887 255.187988 635.125852 C 246.337891 635.003781 240.905762 640.31384 240.600586 647.943234 C 240.29541 655.511594 244.506836 661.615109 259.643555 663.385129 C 274.841309 665.155148 273.925781 678.399777 272.033691 683.038449 C 270.202637 687.738156 261.352539 692.132687 252.380371 690.911984 C 243.408203 689.691281 235.900879 685.662961 235.900879 685.662961 " transform="matrix(0.064,0,0,0.064,0,-35.35118)"/>
<path style="fill:none;stroke-width:10;stroke-linecap:butt;stroke-linejoin:miter;stroke:rgb(100%,100%,100%);stroke-opacity:1;stroke-miterlimit:4;" d="M 322.143555 638.238645 C 322.143555 638.238645 312.927246 633.966184 304.077148 633.905148 C 295.288086 633.783078 289.855957 639.093137 289.550781 646.722531 C 289.245605 654.290891 293.457031 660.394406 308.654785 662.164426 C 323.791504 663.934445 322.875977 677.179074 320.983887 681.817746 C 319.152832 686.517453 310.302734 690.911984 301.330566 689.691281 C 292.358398 688.470578 284.851074 684.442258 284.851074 684.442258 " transform="matrix(0.064,0,0,0.064,0,-35.35118)"/>
</g>
</svg>
