<?xml version="1.0" encoding="UTF-8"?>
<svg xmlns="http://www.w3.org/2000/svg" xmlns:xlink="http://www.w3.org/1999/xlink" width="32" height="32" viewBox="0 0 32 32" version="1.1">
<g id="surface1">
<path style=" stroke:none;fill-rule:evenodd;fill:rgb(20%,20%,20%);fill-opacity:1;" d="M 4.035156 9.847656 L 7.441406 13.179688 L 7.335938 8.503906 L 4.03125 8.488281 Z M 4.035156 9.847656 "/>
<path style="fill-rule:evenodd;fill:rgb(94.901961%,94.901961%,94.901961%);fill-opacity:1;stroke-width:5.03546;stroke-linecap:butt;stroke-linejoin:miter;stroke:rgb(68.627451%,68.627451%,68.627451%);stroke-opacity:1;stroke-miterlimit:4;" d="M 97.045898 1029.840207 L 433.898926 1028.680539 L 435.119629 664.788937 L 347.045898 575.555539 L 97.045898 575.555539 Z M 97.045898 1029.840207 " transform="matrix(0.064,0,0,0.064,0,-35.35118)"/>
<path style="fill-rule:evenodd;fill:rgb(68.627451%,68.627451%,68.627451%);fill-opacity:1;stroke-width:5.03546;stroke-linecap:butt;stroke-linejoin:miter;stroke:rgb(68.627451%,68.627451%,68.627451%);stroke-opacity:1;stroke-miterlimit:4;" d="M 431.518555 662.896848 L 349.365234 662.347531 L 350.097656 578.546262 Z M 431.518555 662.896848 " transform="matrix(0.064,0,0,0.064,0,-35.35118)"/>
<path style=" stroke:none;fill-rule:nonzero;fill:rgb(22.352941%,25.098039%,31.372549%);fill-opacity:1;" d="M 4.039062 4.46875 L 18.4375 4.46875 L 18.4375 9.867188 L 4.039062 9.867188 Z M 4.039062 4.46875 "/>
<path style=" stroke:none;fill-rule:nonzero;fill:rgb(36.470588%,41.568627%,48.235294%);fill-opacity:1;" d="M 19.636719 17.421875 L 20.28125 17.644531 L 20.28125 17.929688 L 19.730469 18.085938 L 19.730469 18.96875 L 20.921875 18.640625 L 20.242188 18.992188 L 20.257812 19.652344 L 19.746094 19.816406 L 19.746094 20.65625 L 20.847656 20.386719 L 20.28125 20.722656 L 20.28125 21.355469 L 19.714844 21.546875 L 19.753906 22.347656 L 20.949219 22.019531 L 20.28125 22.402344 L 20.265625 23.023438 L 19.738281 23.179688 L 19.753906 23.972656 L 20.914062 23.671875 L 20.179688 24.136719 L 20.160156 24.390625 L 22.011719 24.390625 L 21.992188 23.523438 L 22.523438 23.40625 L 22.507812 22.546875 L 21.253906 22.824219 L 21.980469 22.515625 L 21.992188 21.90625 L 22.546875 21.742188 L 22.546875 20.867188 L 21.578125 21.140625 L 21.96875 20.886719 L 21.976562 20.246094 L 22.496094 20.09375 L 22.496094 19.210938 L 21.355469 19.492188 L 21.933594 19.191406 L 21.960938 18.472656 L 22.488281 18.390625 L 22.515625 17.523438 L 21.46875 17.757812 L 22.011719 17.339844 L 22.011719 17.066406 L 19.6875 17.132812 Z M 19.636719 17.421875 "/>
<path style=" stroke:none;fill-rule:nonzero;fill:rgb(40%,40%,40%);fill-opacity:1;" d="M 19.777344 26.292969 L 19.789062 28.105469 L 19.261719 28.105469 L 19.261719 28.761719 L 18.328125 28.78125 L 18.316406 28.207031 L 17.078125 28.21875 L 17.058594 30.242188 L 18.328125 30.242188 L 18.328125 29.71875 L 19.273438 29.710938 L 19.273438 30.363281 L 23.011719 30.351562 L 23.023438 29.71875 L 24.007812 29.71875 L 24.007812 30.273438 L 25.21875 30.273438 L 25.210938 28.175781 L 24.007812 28.1875 L 24.007812 28.800781 L 23.011719 28.800781 L 22.972656 28.085938 L 22.539062 28.097656 L 22.539062 26.273438 Z M 19.777344 26.292969 "/>
<path style=" stroke:none;fill-rule:nonzero;fill:rgb(22.352941%,25.098039%,31.372549%);fill-opacity:1;" d="M 11.394531 25.660156 L 11.367188 26.160156 L 12.492188 27.214844 L 18.390625 27.269531 L 19.160156 26.414062 L 23.191406 26.371094 L 23.191406 24.007812 L 19.246094 24.007812 L 17.679688 25.675781 Z M 11.394531 25.660156 "/>
<path style=" stroke:none;fill-rule:nonzero;fill:rgb(22.352941%,25.098039%,31.372549%);fill-opacity:1;" d="M 11.398438 15.988281 L 11.371094 15.488281 L 12.496094 14.4375 L 18.394531 14.378906 L 19.164062 15.234375 L 23.195312 15.277344 L 23.195312 17.640625 L 19.25 17.640625 L 17.683594 15.972656 Z M 11.398438 15.988281 "/>
<path style=" stroke:none;fill-rule:nonzero;fill:rgb(100%,72.156863%,0%);fill-opacity:1;" d="M 9.21875 15.976562 L 17.679688 15.976562 L 17.679688 25.667969 L 9.21875 25.667969 Z M 9.21875 15.976562 "/>
<path style=" stroke:none;fill-rule:nonzero;fill:rgb(98.039216%,92.54902%,42.745098%);fill-opacity:1;" d="M 9.847656 16.835938 L 16.945312 16.835938 L 16.945312 20.574219 L 9.847656 20.574219 Z M 9.847656 16.835938 "/>
<path style=" stroke:none;fill-rule:nonzero;fill:rgb(98.039216%,92.54902%,42.745098%);fill-opacity:1;" d="M 9.90625 21.183594 L 17.003906 21.183594 L 17.003906 24.921875 L 9.90625 24.921875 Z M 9.90625 21.183594 "/>
<path style=" stroke:none;fill-rule:nonzero;fill:rgb(15.686275%,13.333333%,4.313725%);fill-opacity:1;" d="M 12.074219 18.304688 L 14.921875 18.304688 L 14.921875 19.21875 L 12.074219 19.21875 Z M 12.074219 18.304688 "/>
<path style=" stroke:none;fill-rule:nonzero;fill:rgb(15.686275%,13.333333%,4.313725%);fill-opacity:1;" d="M 12.058594 22.539062 L 14.90625 22.539062 L 14.90625 23.453125 L 12.058594 23.453125 Z M 12.058594 22.539062 "/>
<path style="fill:none;stroke-width:9;stroke-linecap:butt;stroke-linejoin:miter;stroke:rgb(100%,100%,100%);stroke-opacity:1;stroke-miterlimit:4;" d="M 145.996094 644.22009 C 145.996094 644.22009 138.793945 636.52966 123.291016 636.65173 C 107.849121 636.773801 99.731445 652.581906 99.975586 664.911008 C 100.219727 677.301145 110.961914 690.362668 123.168945 691.644406 C 135.437012 692.926145 144.592285 686.456418 144.592285 686.456418 L 143.981934 666.375852 L 127.197266 666.619992 " transform="matrix(0.064,0,0,0.064,0,-35.35118)"/>
<path style="fill:none;stroke-width:9;stroke-linecap:butt;stroke-linejoin:miter;stroke:rgb(100%,100%,100%);stroke-opacity:1;stroke-miterlimit:4;" d="M 161.071777 637.811398 L 199.21875 638.42175 L 164.550781 690.545773 L 207.336426 690.240598 " transform="matrix(0.064,0,0,0.064,0,-35.35118)"/>
<path style="fill:none;stroke-width:9;stroke-linecap:butt;stroke-linejoin:miter;stroke:rgb(100%,100%,100%);stroke-opacity:1;stroke-miterlimit:4;" d="M 133.325051 354.157336 L 133.264016 304.657824 " transform="matrix(0.064,0,0,0.064,5.564853,-13.365288)"/>
<path style=" stroke:none;fill-rule:nonzero;fill:rgb(100%,100%,100%);fill-opacity:1;" d="M 13.820312 5.316406 L 14.390625 5.316406 L 14.390625 5.871094 L 13.820312 5.871094 Z M 13.820312 5.316406 "/>
<path style="fill:none;stroke-width:9.063828;stroke-linecap:butt;stroke-linejoin:miter;stroke:rgb(100%,100%,100%);stroke-opacity:1;stroke-miterlimit:4;" d="M 239.929199 695.12341 L 239.929199 638.665891 C 239.929199 638.665891 270.751953 632.74548 270.629883 653.009152 C 270.507812 673.272824 240.539551 667.718625 240.539551 667.718625 " transform="matrix(0.064,0,0,0.064,0,-35.35118)"/>
</g>
</svg>
