<?xml version="1.0" encoding="UTF-8"?>
<svg xmlns="http://www.w3.org/2000/svg" xmlns:xlink="http://www.w3.org/1999/xlink" width="32" height="32" viewBox="0 0 32 32" version="1.1">
<g id="surface1">
<path style=" stroke:none;fill-rule:evenodd;fill:rgb(81.960784%,16.470588%,4.313725%);fill-opacity:1;" d="M 4.035156 9.847656 L 7.441406 13.179688 L 7.335938 8.503906 L 4.03125 8.488281 Z M 4.035156 9.847656 "/>
<path style="fill-rule:evenodd;fill:rgb(94.901961%,94.901961%,94.901961%);fill-opacity:1;stroke-width:5.03546;stroke-linecap:butt;stroke-linejoin:miter;stroke:rgb(68.627451%,68.627451%,68.627451%);stroke-opacity:1;stroke-miterlimit:4;" d="M 97.045898 1029.840207 L 433.898926 1028.680539 L 435.119629 664.788937 L 347.045898 575.555539 L 97.045898 575.555539 Z M 97.045898 1029.840207 " transform="matrix(0.064,0,0,0.064,0,-35.35118)"/>
<path style="fill-rule:evenodd;fill:rgb(68.627451%,68.627451%,68.627451%);fill-opacity:1;stroke-width:5.03546;stroke-linecap:butt;stroke-linejoin:miter;stroke:rgb(68.627451%,68.627451%,68.627451%);stroke-opacity:1;stroke-miterlimit:4;" d="M 431.518555 662.896848 L 349.365234 662.347531 L 350.097656 578.546262 Z M 431.518555 662.896848 " transform="matrix(0.064,0,0,0.064,0,-35.35118)"/>
<path style=" stroke:none;fill-rule:nonzero;fill:rgb(94.117647%,22.352941%,8.627451%);fill-opacity:1;" d="M 4.039062 4.46875 L 18.4375 4.46875 L 18.4375 9.867188 L 4.039062 9.867188 Z M 4.039062 4.46875 "/>
<path style="fill:none;stroke-width:9;stroke-linecap:butt;stroke-linejoin:miter;stroke:rgb(100%,100%,100%);stroke-opacity:1;stroke-miterlimit:4;" d="M 380.190594 670.738223 L 346.194012 670.310977 L 346.621258 618.614199 L 381.106121 618.73627 " transform="matrix(0.064,0,0,0.064,-10.828292,-34.153809)"/>
<path style="fill:none;stroke-width:9;stroke-linecap:butt;stroke-linejoin:miter;stroke:rgb(100%,100%,100%);stroke-opacity:1;stroke-miterlimit:4;" d="M 348.940594 642.356875 L 378.115398 642.53998 " transform="matrix(0.064,0,0,0.064,-10.828292,-34.153809)"/>
<path style=" stroke:none;fill-rule:nonzero;fill:rgb(94.117647%,22.352941%,8.627451%);fill-opacity:1;" d="M 17.5625 30.214844 C 16.703125 30.070312 15.472656 29.585938 14.710938 29.089844 C 13.035156 27.996094 11.941406 26.785156 11.265625 25.269531 C 11.039062 24.765625 10.917969 24.375 10.566406 23.046875 C 10.480469 22.71875 10.371094 22.355469 10.324219 22.242188 C 10.25 22.046875 10.246094 21.980469 10.28125 21.339844 C 10.3125 20.726562 10.414062 19.902344 10.46875 19.816406 C 10.480469 19.796875 10.503906 19.792969 10.523438 19.804688 C 10.59375 19.847656 10.65625 19.660156 10.71875 19.230469 C 10.753906 18.996094 10.804688 18.75 10.835938 18.683594 C 10.867188 18.617188 10.921875 18.472656 10.957031 18.359375 C 11.03125 18.101562 11.136719 17.902344 11.464844 17.402344 C 11.605469 17.183594 11.753906 16.945312 11.792969 16.871094 C 11.839844 16.785156 11.890625 16.742188 11.9375 16.75 C 11.980469 16.761719 12.050781 16.703125 12.128906 16.605469 C 12.457031 16.167969 14.015625 14.878906 14.160156 14.921875 C 14.199219 14.9375 14.363281 14.882812 14.523438 14.804688 C 14.816406 14.660156 14.945312 14.628906 14.945312 14.695312 C 14.945312 14.714844 14.90625 14.757812 14.851562 14.792969 C 14.761719 14.855469 14.765625 14.855469 14.90625 14.824219 C 14.984375 14.804688 15.121094 14.777344 15.207031 14.761719 C 15.3125 14.746094 15.351562 14.722656 15.339844 14.6875 C 15.324219 14.65625 15.355469 14.621094 15.414062 14.605469 C 15.558594 14.570312 15.78125 14.578125 15.78125 14.617188 C 15.78125 14.664062 15.652344 14.714844 15.550781 14.707031 C 15.480469 14.699219 15.476562 14.703125 15.53125 14.738281 C 15.582031 14.773438 15.582031 14.78125 15.535156 14.78125 C 15.5 14.78125 15.484375 14.792969 15.5 14.804688 C 15.511719 14.816406 15.597656 14.789062 15.691406 14.742188 C 15.785156 14.699219 15.957031 14.640625 16.070312 14.617188 C 16.214844 14.589844 16.28125 14.554688 16.28125 14.511719 C 16.28125 14.457031 16.347656 14.453125 16.792969 14.476562 C 17.074219 14.492188 17.496094 14.535156 17.734375 14.570312 C 18.167969 14.636719 18.167969 14.636719 18.328125 14.550781 C 18.519531 14.441406 18.832031 14.429688 18.910156 14.523438 C 18.941406 14.558594 19.023438 14.613281 19.09375 14.648438 C 19.210938 14.707031 19.21875 14.707031 19.167969 14.652344 C 19.074219 14.542969 19.167969 14.546875 19.523438 14.660156 C 20.671875 15.03125 21.609375 15.6875 22.304688 16.617188 C 22.472656 16.835938 22.480469 16.933594 22.324219 16.800781 L 22.234375 16.722656 L 22.304688 16.851562 C 22.339844 16.921875 22.371094 17 22.371094 17.027344 C 22.371094 17.054688 22.484375 17.246094 22.617188 17.460938 C 22.921875 17.9375 23.007812 18.097656 22.988281 18.15625 C 22.976562 18.179688 22.84375 18.011719 22.6875 17.78125 C 22.53125 17.550781 22.300781 17.242188 22.171875 17.09375 C 21.984375 16.871094 21.9375 16.832031 21.898438 16.878906 C 21.871094 16.910156 21.808594 16.941406 21.757812 16.949219 L 21.664062 16.964844 L 21.757812 17.136719 C 21.808594 17.230469 21.855469 17.289062 21.863281 17.265625 C 21.90625 17.140625 22.113281 17.304688 22.203125 17.542969 C 22.234375 17.621094 22.316406 17.777344 22.382812 17.898438 C 22.449219 18.011719 22.496094 18.117188 22.488281 18.125 C 22.476562 18.136719 22.414062 18.105469 22.351562 18.054688 L 22.230469 17.964844 L 22.3125 18.097656 C 22.355469 18.171875 22.429688 18.261719 22.476562 18.296875 C 22.535156 18.34375 22.5625 18.414062 22.566406 18.527344 C 22.570312 18.730469 22.691406 18.972656 22.757812 18.910156 C 22.863281 18.808594 22.882812 18.871094 22.859375 19.199219 C 22.839844 19.4375 22.847656 19.597656 22.894531 19.765625 C 22.964844 20.019531 22.949219 20.082031 22.847656 19.960938 C 22.785156 19.886719 22.78125 19.886719 22.8125 19.964844 C 22.875 20.132812 22.917969 20.386719 22.90625 20.484375 C 22.882812 20.667969 22.8125 20.59375 22.785156 20.355469 L 22.761719 20.125 L 22.753906 20.371094 C 22.75 20.507812 22.71875 20.769531 22.679688 20.953125 C 22.644531 21.136719 22.625 21.363281 22.636719 21.460938 C 22.664062 21.636719 22.648438 21.648438 22.488281 21.515625 C 22.425781 21.464844 22.414062 21.476562 22.371094 21.632812 C 22.335938 21.761719 22.335938 21.835938 22.371094 21.949219 C 22.398438 22.027344 22.414062 22.132812 22.40625 22.1875 C 22.390625 22.304688 22.289062 22.34375 22.289062 22.230469 C 22.289062 22.089844 22.230469 22.140625 22.058594 22.4375 C 21.59375 23.242188 20.855469 23.863281 20.019531 24.15625 C 19.523438 24.332031 19.195312 24.394531 18.636719 24.425781 L 18.136719 24.453125 L 18.386719 24.527344 C 18.585938 24.585938 18.703125 24.59375 18.992188 24.570312 C 19.367188 24.542969 19.8125 24.464844 20.011719 24.390625 C 20.09375 24.359375 20.148438 24.359375 20.175781 24.386719 C 20.242188 24.449219 19.660156 24.695312 19.3125 24.75 C 18.726562 24.847656 17.941406 24.742188 17.25 24.480469 C 16.777344 24.304688 16.078125 23.839844 16.1875 23.777344 C 16.207031 23.761719 16.339844 23.824219 16.480469 23.910156 C 16.664062 24.023438 16.742188 24.050781 16.742188 24.007812 C 16.742188 23.929688 16.765625 23.933594 16.910156 24.03125 C 17.042969 24.121094 17.441406 24.285156 17.730469 24.371094 C 18.046875 24.460938 17.921875 24.351562 17.5 24.160156 C 16.167969 23.566406 15.613281 22.96875 15.335938 21.828125 C 15.234375 21.410156 15.34375 20.496094 15.53125 20.210938 C 15.574219 20.136719 15.613281 20.046875 15.613281 20.011719 C 15.613281 19.851562 15.890625 19.433594 16.171875 19.160156 C 16.671875 18.683594 17.1875 18.484375 17.863281 18.511719 C 18.1875 18.527344 18.324219 18.554688 18.597656 18.660156 C 18.902344 18.777344 19.289062 19.023438 19.171875 19.023438 C 19.144531 19.023438 19.023438 18.984375 18.902344 18.9375 C 18.714844 18.863281 18.597656 18.847656 18.179688 18.847656 C 17.589844 18.84375 17.304688 18.925781 16.886719 19.207031 C 16.292969 19.605469 15.964844 20.070312 15.847656 20.660156 C 15.769531 21.058594 15.765625 21.167969 15.828125 21.5625 C 15.863281 21.789062 15.886719 21.855469 15.929688 21.839844 C 15.96875 21.828125 15.988281 21.847656 15.988281 21.894531 C 15.988281 22.035156 16.308594 22.605469 16.53125 22.863281 C 17.0625 23.476562 17.925781 23.867188 18.742188 23.867188 C 19.167969 23.867188 19.511719 23.789062 19.824219 23.621094 C 19.953125 23.554688 20.113281 23.472656 20.183594 23.4375 C 20.425781 23.320312 20.574219 23.183594 20.75 22.929688 C 20.847656 22.785156 20.957031 22.667969 20.988281 22.667969 C 21.035156 22.667969 21.035156 22.6875 20.976562 22.777344 C 20.789062 23.074219 21.226562 22.535156 21.453125 22.191406 L 21.707031 21.808594 L 21.679688 21.554688 C 21.652344 21.3125 21.65625 21.296875 21.777344 21.171875 C 21.894531 21.054688 21.90625 21.023438 21.917969 20.707031 C 21.929688 20.425781 21.921875 20.367188 21.871094 20.367188 C 21.824219 20.367188 21.804688 20.292969 21.78125 20.046875 C 21.753906 19.71875 21.476562 18.625 21.414062 18.585938 C 21.394531 18.574219 21.339844 18.46875 21.292969 18.351562 C 21.136719 17.953125 20.863281 17.574219 20.433594 17.160156 C 19.816406 16.5625 19.039062 16.101562 18.304688 15.898438 C 17.679688 15.722656 16.621094 15.785156 15.863281 16.042969 C 15.496094 16.167969 15.132812 16.332031 15.070312 16.402344 C 15.042969 16.4375 15.003906 16.453125 14.980469 16.4375 C 14.957031 16.425781 14.964844 16.390625 14.996094 16.351562 C 15.136719 16.191406 14.671875 16.488281 14.375 16.75 C 14.195312 16.90625 14.042969 17.042969 14.035156 17.046875 C 14.027344 17.054688 14.0625 17.046875 14.113281 17.035156 C 14.199219 17.011719 14.199219 17.019531 14.15625 17.101562 C 14.125 17.152344 13.972656 17.25 13.785156 17.332031 C 13.46875 17.46875 13.265625 17.617188 13.105469 17.835938 C 13.039062 17.917969 13.035156 17.9375 13.085938 17.917969 C 13.125 17.90625 13.152344 17.914062 13.152344 17.9375 C 13.152344 18.054688 13.042969 18.179688 12.882812 18.253906 C 12.53125 18.421875 11.90625 19.304688 11.570312 20.117188 C 11.421875 20.480469 11.425781 20.464844 11.503906 20.464844 C 11.589844 20.464844 11.585938 20.558594 11.46875 21.058594 C 11.296875 21.785156 11.296875 21.765625 11.480469 22.789062 C 11.707031 24.035156 11.84375 24.453125 12.09375 24.710938 C 12.152344 24.773438 12.210938 24.902344 12.234375 25.03125 C 12.265625 25.183594 12.316406 25.285156 12.414062 25.382812 C 12.5 25.472656 12.53125 25.527344 12.496094 25.539062 C 12.429688 25.5625 12.636719 25.855469 12.824219 26.007812 C 12.917969 26.085938 12.988281 26.113281 13.066406 26.097656 C 13.234375 26.066406 13.402344 26.160156 13.664062 26.421875 C 13.9375 26.695312 13.960938 26.769531 13.78125 26.742188 C 13.667969 26.726562 13.664062 26.730469 13.722656 26.8125 C 13.753906 26.863281 13.875 26.976562 13.988281 27.070312 C 14.152344 27.199219 14.191406 27.257812 14.171875 27.320312 C 14.144531 27.40625 14.226562 27.488281 14.414062 27.558594 C 14.53125 27.601562 14.570312 27.691406 14.480469 27.722656 C 14.453125 27.730469 14.617188 27.890625 14.847656 28.082031 C 15.101562 28.296875 15.273438 28.414062 15.300781 28.390625 C 15.363281 28.328125 15.445312 28.347656 15.449219 28.421875 C 15.449219 28.503906 15.523438 28.589844 15.789062 28.820312 C 15.957031 28.964844 16 28.984375 16.101562 28.957031 C 16.195312 28.933594 16.253906 28.949219 16.386719 29.035156 C 16.648438 29.203125 16.808594 29.273438 16.945312 29.273438 C 17.082031 29.273438 17.101562 29.308594 17.03125 29.4375 C 16.992188 29.503906 17 29.511719 17.085938 29.511719 C 17.140625 29.511719 17.296875 29.550781 17.429688 29.59375 C 17.730469 29.695312 17.859375 29.699219 17.78125 29.613281 C 17.671875 29.484375 17.789062 29.519531 18.191406 29.734375 C 18.75 30.035156 19.035156 30.070312 20.152344 29.972656 C 20.316406 29.957031 20.371094 29.964844 20.371094 30.007812 C 20.371094 30.042969 20.226562 30.09375 19.960938 30.15625 C 19.617188 30.234375 19.433594 30.25 18.722656 30.257812 C 18.164062 30.265625 17.78125 30.25 17.5625 30.214844 Z M 16.992188 24.214844 C 16.992188 24.207031 16.9375 24.167969 16.875 24.132812 L 16.761719 24.0625 L 16.859375 24.148438 C 16.957031 24.226562 16.992188 24.246094 16.992188 24.214844 Z M 22.734375 20.019531 C 22.722656 19.984375 22.710938 19.996094 22.710938 20.042969 C 22.707031 20.085938 22.71875 20.109375 22.730469 20.09375 C 22.746094 20.082031 22.746094 20.046875 22.734375 20.019531 Z M 13.242188 15.792969 C 13.292969 15.730469 13.292969 15.726562 13.226562 15.777344 C 13.1875 15.808594 13.152344 15.839844 13.152344 15.847656 C 13.152344 15.878906 13.1875 15.859375 13.242188 15.792969 Z M 13.714844 15.421875 C 13.757812 15.378906 13.78125 15.34375 13.769531 15.34375 C 13.757812 15.34375 13.714844 15.378906 13.675781 15.421875 C 13.632812 15.46875 13.609375 15.5 13.621094 15.5 C 13.632812 15.5 13.675781 15.46875 13.714844 15.421875 Z M 14.242188 15.140625 C 14.378906 15.097656 14.457031 15.089844 14.484375 15.117188 C 14.515625 15.144531 14.625 15.128906 14.824219 15.0625 C 14.984375 15.011719 15.109375 14.964844 15.101562 14.957031 C 15.09375 14.945312 14.957031 14.980469 14.804688 15.03125 C 14.59375 15.097656 14.515625 15.105469 14.492188 15.070312 C 14.453125 15.007812 14.074219 15.128906 13.910156 15.257812 L 13.800781 15.34375 L 13.917969 15.273438 C 13.984375 15.238281 14.128906 15.175781 14.242188 15.140625 Z M 15.445312 15.039062 C 15.566406 15.003906 15.65625 14.96875 15.648438 14.960938 C 15.628906 14.941406 15.195312 15.0625 15.195312 15.085938 C 15.195312 15.109375 15.199219 15.109375 15.445312 15.039062 Z M 16.136719 14.820312 L 16.304688 14.792969 L 16.15625 14.789062 C 16.074219 14.785156 15.964844 14.8125 15.90625 14.84375 C 15.839844 14.886719 15.832031 14.898438 15.886719 14.878906 C 15.929688 14.863281 16.042969 14.835938 16.136719 14.820312 Z M 16.464844 14.746094 C 16.480469 14.726562 16.453125 14.71875 16.40625 14.730469 C 16.308594 14.753906 16.296875 14.78125 16.382812 14.78125 C 16.417969 14.78125 16.453125 14.765625 16.464844 14.746094 Z M 17.8125 14.757812 C 17.800781 14.742188 17.761719 14.742188 17.734375 14.753906 C 17.699219 14.765625 17.710938 14.777344 17.757812 14.78125 C 17.804688 14.78125 17.828125 14.769531 17.8125 14.757812 Z M 17.5625 14.714844 C 17.523438 14.703125 17.460938 14.703125 17.417969 14.714844 C 17.378906 14.722656 17.410156 14.730469 17.492188 14.730469 C 17.570312 14.730469 17.605469 14.722656 17.5625 14.714844 Z M 17.148438 14.671875 C 17.0625 14.664062 16.914062 14.664062 16.8125 14.671875 C 16.714844 14.679688 16.785156 14.6875 16.96875 14.6875 C 17.152344 14.6875 17.234375 14.679688 17.148438 14.671875 Z M 16.605469 14.636719 C 16.589844 14.625 16.554688 14.625 16.523438 14.632812 C 16.492188 14.648438 16.5 14.65625 16.550781 14.660156 C 16.59375 14.660156 16.617188 14.652344 16.605469 14.636719 Z M 16.320312 24.257812 C 15.894531 23.96875 15.738281 23.816406 15.738281 23.699219 C 15.738281 23.640625 15.753906 23.589844 15.769531 23.589844 C 15.832031 23.589844 16.542969 24.300781 16.527344 24.34375 C 16.515625 24.371094 16.429688 24.335938 16.320312 24.257812 Z M 16.101562 23.515625 C 15.882812 23.304688 15.8125 23.1875 15.902344 23.1875 C 15.953125 23.1875 16.367188 23.640625 16.367188 23.699219 C 16.367188 23.726562 16.359375 23.75 16.351562 23.75 C 16.347656 23.75 16.234375 23.644531 16.101562 23.515625 Z M 18.542969 22.640625 C 18.429688 22.597656 18.5 22.511719 18.691406 22.472656 C 18.800781 22.449219 18.972656 22.398438 19.074219 22.351562 C 19.179688 22.308594 19.269531 22.28125 19.277344 22.289062 C 19.289062 22.296875 19.242188 22.386719 19.175781 22.484375 C 19.054688 22.667969 19.054688 22.667969 18.824219 22.664062 C 18.699219 22.664062 18.574219 22.652344 18.542969 22.640625 Z M 19.796875 21.746094 C 19.683594 21.703125 19.679688 21.628906 19.773438 21.375 C 19.851562 21.160156 19.9375 21.117188 19.890625 21.316406 C 19.875 21.386719 19.851562 21.492188 19.839844 21.546875 L 19.820312 21.648438 L 19.90625 21.554688 C 19.953125 21.5 20 21.375 20.015625 21.246094 C 20.03125 21.125 20.0625 21.039062 20.082031 21.050781 C 20.132812 21.078125 20.128906 21.398438 20.074219 21.609375 C 20.023438 21.796875 19.980469 21.816406 19.796875 21.746094 Z M 9.925781 21.242188 C 9.910156 21.210938 9.898438 21.070312 9.898438 20.941406 C 9.898438 20.765625 9.914062 20.703125 9.949219 20.714844 C 10.011719 20.734375 10.050781 21.308594 9.988281 21.308594 C 9.96875 21.308594 9.9375 21.277344 9.925781 21.242188 Z M 19.960938 20.308594 C 19.894531 20.222656 19.875 20.15625 19.894531 20.085938 C 19.929688 19.941406 20.03125 19.960938 20.101562 20.128906 C 20.214844 20.390625 20.117188 20.511719 19.960938 20.308594 Z M 9.914062 19.671875 C 9.914062 19.445312 9.914062 19.4375 10.019531 19.441406 C 10.109375 19.445312 10.128906 19.46875 10.140625 19.566406 C 10.152344 19.679688 10.023438 19.90625 9.949219 19.90625 C 9.933594 19.90625 9.917969 19.800781 9.914062 19.671875 Z M 20.730469 14.75 C 20.734375 14.390625 20.796875 14.269531 20.847656 14.519531 C 20.878906 14.695312 20.835938 15.003906 20.773438 15.058594 C 20.734375 15.085938 20.722656 15.007812 20.730469 14.75 Z M 15.25 14.535156 C 15.265625 14.488281 15.839844 14.261719 15.945312 14.261719 C 16.070312 14.261719 15.847656 14.40625 15.589844 14.496094 C 15.300781 14.59375 15.222656 14.601562 15.25 14.535156 Z M 15.25 14.535156 "/>
<path style="fill:none;stroke-width:9;stroke-linecap:butt;stroke-linejoin:miter;stroke:rgb(100%,100%,100%);stroke-opacity:1;stroke-miterlimit:4;" d="M 119.445801 689.019895 L 119.934082 636.956906 C 119.934082 636.956906 159.790039 631.097531 160.339355 663.446164 C 160.827637 695.794797 119.445801 689.019895 119.445801 689.019895 Z M 119.445801 689.019895 " transform="matrix(0.064,0,0,0.064,0,-35.35118)"/>
<path style="fill:none;stroke-width:9;stroke-linecap:butt;stroke-linejoin:miter;stroke:rgb(100%,100%,100%);stroke-opacity:1;stroke-miterlimit:4;" d="M 228.210449 635.431027 L 228.210449 688.348508 L 248.413086 688.348508 C 248.413086 688.348508 264.221191 689.203 263.671875 674.432492 C 263.122559 659.661984 249.633789 659.96716 249.633789 659.96716 L 231.506348 659.96716 L 249.389648 659.72302 C 249.389648 659.72302 260.559082 659.417844 260.437012 647.088742 C 260.314941 634.698605 244.995117 635.431027 244.995117 635.431027 Z M 228.210449 635.431027 " transform="matrix(0.064,0,0,0.064,0,-35.35118)"/>
</g>
</svg>
