<?xml version="1.0" encoding="UTF-8"?>
<svg xmlns="http://www.w3.org/2000/svg" xmlns:xlink="http://www.w3.org/1999/xlink" width="32" height="32" viewBox="0 0 32 32" version="1.1">
<g id="surface1">
<path style=" stroke:none;fill-rule:evenodd;fill:rgb(66.666667%,26.666667%,0%);fill-opacity:1;" d="M 4.035156 9.847656 L 7.441406 13.179688 L 7.335938 8.503906 L 4.03125 8.488281 Z M 4.035156 9.847656 "/>
<path style="fill-rule:evenodd;fill:rgb(94.901961%,94.901961%,94.901961%);fill-opacity:1;stroke-width:5.03546;stroke-linecap:butt;stroke-linejoin:miter;stroke:rgb(68.627451%,68.627451%,68.627451%);stroke-opacity:1;stroke-miterlimit:4;" d="M 97.045898 1029.840207 L 433.898926 1028.680539 L 435.119629 664.788937 L 347.045898 575.555539 L 97.045898 575.555539 Z M 97.045898 1029.840207 " transform="matrix(0.064,0,0,0.064,0,-35.35118)"/>
<path style="fill-rule:evenodd;fill:rgb(68.627451%,68.627451%,68.627451%);fill-opacity:1;stroke-width:5.03546;stroke-linecap:butt;stroke-linejoin:miter;stroke:rgb(68.627451%,68.627451%,68.627451%);stroke-opacity:1;stroke-miterlimit:4;" d="M 431.518555 662.896848 L 349.365234 662.347531 L 350.097656 578.546262 Z M 431.518555 662.896848 " transform="matrix(0.064,0,0,0.064,0,-35.35118)"/>
<path style=" stroke:none;fill-rule:nonzero;fill:rgb(100%,40%,0%);fill-opacity:1;" d="M 4.039062 4.46875 L 21.867188 4.46875 L 21.867188 9.867188 L 4.039062 9.867188 Z M 4.039062 4.46875 "/>
<path style="fill:none;stroke-width:22.55397;stroke-linecap:butt;stroke-linejoin:miter;stroke:rgb(100%,40%,0%);stroke-opacity:1;stroke-miterlimit:4;" d="M 225.769043 1023.37048 L 285.888672 799.676633 " transform="matrix(0.064,0,0,0.064,0,-35.35118)"/>
<path style="fill:none;stroke-width:22.55397;stroke-linecap:butt;stroke-linejoin:miter;stroke:rgb(100%,40%,0%);stroke-opacity:1;stroke-miterlimit:4;" d="M 208.435059 970.025754 L 150.817871 911.798215 L 209.04541 854.181027 " transform="matrix(0.064,0,0,0.064,0,-35.35118)"/>
<path style="fill:none;stroke-width:22.55397;stroke-linecap:butt;stroke-linejoin:miter;stroke:rgb(100%,40%,0%);stroke-opacity:1;stroke-miterlimit:4;" d="M 311.279297 968.499875 L 368.896484 910.272336 L 310.668945 852.655148 " transform="matrix(0.064,0,0,0.064,0,-35.35118)"/>
<path style="fill:none;stroke-width:9;stroke-linecap:butt;stroke-linejoin:miter;stroke:rgb(100%,100%,100%);stroke-opacity:1;stroke-miterlimit:4;" d="M 42.452508 990.883422 L 81.759148 1049.171996 " transform="matrix(0.064,0,0,0.064,2.193196,-58.272008)"/>
<path style="fill:none;stroke-width:9;stroke-linecap:butt;stroke-linejoin:miter;stroke:rgb(100%,100%,100%);stroke-opacity:1;stroke-miterlimit:4;" d="M 80.172234 990.883422 L 40.804559 1049.171996 " transform="matrix(0.064,0,0,0.064,2.193196,-58.272008)"/>
<path style="fill:none;stroke-width:9;stroke-linecap:butt;stroke-linejoin:miter;stroke:rgb(100%,100%,100%);stroke-opacity:1;stroke-miterlimit:4;" d="M 311.239355 528.471945 L 311.483496 582.915305 " transform="matrix(0.064,0,0,0.064,-11.649788,-28.576111)"/>
<path style="fill:none;stroke-width:9;stroke-linecap:butt;stroke-linejoin:miter;stroke:rgb(100%,100%,100%);stroke-opacity:1;stroke-miterlimit:4;" d="M 346.273535 527.983664 L 346.578711 582.427023 " transform="matrix(0.064,0,0,0.064,-11.649788,-28.576111)"/>
<path style="fill:none;stroke-width:9;stroke-linecap:butt;stroke-linejoin:miter;stroke:rgb(100%,100%,100%);stroke-opacity:1;stroke-miterlimit:4;" d="M 310.873145 555.022238 L 347.494238 555.022238 " transform="matrix(0.064,0,0,0.064,-11.649788,-28.576111)"/>
<path style="fill:none;stroke-width:9;stroke-linecap:butt;stroke-linejoin:miter;stroke:rgb(100%,100%,100%);stroke-opacity:1;stroke-miterlimit:4;" d="M 122.798687 699.612832 L 122.798687 642.361855 " transform="matrix(0.064,0,0,0.064,4.933853,-35.806471)"/>
<path style="fill:none;stroke-width:8.670217;stroke-linecap:butt;stroke-linejoin:miter;stroke:rgb(100%,100%,100%);stroke-opacity:1;stroke-miterlimit:4;" d="M 96.248395 642.728066 L 149.34898 642.728066 " transform="matrix(0.064,0,0,0.064,4.933853,-35.806471)"/>
<path style="fill:none;stroke-width:9;stroke-linecap:butt;stroke-linejoin:miter;stroke:rgb(100%,100%,100%);stroke-opacity:1;stroke-miterlimit:4;" d="M 235.290527 690.362668 L 235.595703 635.797238 L 240.600586 635.553098 L 256.469727 676.873898 L 259.82666 676.873898 L 275.817871 635.553098 L 281.066895 635.492062 L 281.066895 690.545773 " transform="matrix(0.064,0,0,0.064,0,-35.35118)"/>
<path style="fill:none;stroke-width:9;stroke-linecap:butt;stroke-linejoin:miter;stroke:rgb(100%,100%,100%);stroke-opacity:1;stroke-miterlimit:4;" d="M 296.813965 630.48718 L 297.119141 684.991574 L 328.857422 685.29675 " transform="matrix(0.064,0,0,0.064,0,-35.35118)"/>
</g>
</svg>
