<?xml version="1.0" encoding="UTF-8"?>
<svg xmlns="http://www.w3.org/2000/svg" xmlns:xlink="http://www.w3.org/1999/xlink" width="32" height="32" viewBox="0 0 32 32" version="1.1">
<g id="surface1">
<path style=" stroke:none;fill-rule:evenodd;fill:rgb(39.215686%,39.215686%,39.215686%);fill-opacity:1;" d="M 4.035156 9.847656 L 7.441406 13.179688 L 7.335938 8.503906 L 4.03125 8.488281 Z M 4.035156 9.847656 "/>
<path style="fill-rule:evenodd;fill:rgb(94.901961%,94.901961%,94.901961%);fill-opacity:1;stroke-width:5.03546;stroke-linecap:butt;stroke-linejoin:miter;stroke:rgb(68.627451%,68.627451%,68.627451%);stroke-opacity:1;stroke-miterlimit:4;" d="M 97.045898 1029.840207 L 433.898926 1028.680539 L 435.119629 664.788937 L 347.045898 575.555539 L 97.045898 575.555539 Z M 97.045898 1029.840207 " transform="matrix(0.064,0,0,0.064,0,-35.35118)"/>
<path style="fill-rule:evenodd;fill:rgb(68.627451%,68.627451%,68.627451%);fill-opacity:1;stroke-width:5.03546;stroke-linecap:butt;stroke-linejoin:miter;stroke:rgb(68.627451%,68.627451%,68.627451%);stroke-opacity:1;stroke-miterlimit:4;" d="M 431.518555 662.896848 L 349.365234 662.347531 L 350.097656 578.546262 Z M 431.518555 662.896848 " transform="matrix(0.064,0,0,0.064,0,-35.35118)"/>
<path style=" stroke:none;fill-rule:nonzero;fill:rgb(60%,60%,60%);fill-opacity:1;" d="M 4.039062 4.46875 L 17.804688 4.46875 L 17.804688 9.867188 L 4.039062 9.867188 Z M 4.039062 4.46875 "/>
<path style=" stroke:none;fill-rule:nonzero;fill:rgb(80%,80%,80%);fill-opacity:0.588235;" d="M 16.386719 19.410156 C 14.253906 19.304688 12.289062 18.710938 11.4375 17.925781 C 11.222656 17.726562 11.050781 17.441406 11.050781 17.285156 C 11.050781 17.019531 11.378906 16.621094 11.835938 16.332031 C 13.792969 15.082031 17.84375 14.75 20.8125 15.59375 C 21.835938 15.886719 22.613281 16.28125 23.039062 16.738281 C 23.328125 17.042969 23.382812 17.238281 23.257812 17.515625 C 22.960938 18.167969 21.648438 18.828125 19.992188 19.160156 C 19.324219 19.292969 18.691406 19.371094 17.902344 19.410156 C 17.214844 19.445312 17.128906 19.445312 16.386719 19.410156 Z M 16.386719 19.410156 "/>
<path style=" stroke:none;fill-rule:nonzero;fill:rgb(80%,80%,80%);fill-opacity:0.588235;" d="M 16.601562 30.414062 C 14.96875 30.332031 13.457031 29.878906 12.804688 29.273438 C 12.636719 29.121094 12.507812 28.902344 12.507812 28.78125 C 12.507812 28.578125 12.757812 28.277344 13.109375 28.050781 C 14.609375 27.09375 17.71875 26.839844 19.996094 27.484375 C 20.78125 27.710938 21.378906 28.015625 21.707031 28.363281 C 21.929688 28.597656 21.96875 28.746094 21.875 28.960938 C 21.648438 29.460938 20.636719 29.96875 19.367188 30.222656 C 18.855469 30.324219 18.367188 30.382812 17.765625 30.414062 C 17.238281 30.441406 17.171875 30.441406 16.601562 30.414062 Z M 16.601562 30.414062 "/>
<path style=" stroke:none;fill-rule:nonzero;fill:rgb(58.823529%,58.823529%,58.823529%);fill-opacity:0.588235;" d="M 16.492188 30.417969 C 14.742188 30.296875 13.316406 29.820312 12.699219 29.148438 C 12.480469 28.90625 12.421875 28.777344 12.355469 28.402344 C 12.175781 27.367188 10.414062 17.886719 10.371094 17.710938 C 10.054688 16.503906 11.34375 15.40625 13.78125 14.808594 C 14.34375 14.671875 15.191406 14.535156 15.867188 14.476562 C 16.472656 14.421875 17.875 14.421875 18.480469 14.476562 C 21.433594 14.738281 23.648438 15.757812 23.980469 17.007812 C 24.042969 17.25 24.039062 17.433594 23.957031 17.765625 C 23.867188 18.128906 21.96875 28.425781 21.96875 28.539062 C 21.96875 28.585938 21.921875 28.722656 21.863281 28.839844 C 21.5625 29.4375 20.5625 29.96875 19.210938 30.242188 C 18.460938 30.398438 17.28125 30.472656 16.492188 30.417969 Z M 16.492188 30.417969 "/>
<path style="fill-rule:nonzero;fill:rgb(0%,40%,50.196078%);fill-opacity:1;stroke-width:1;stroke-linecap:butt;stroke-linejoin:miter;stroke:rgb(0%,40%,50.196078%);stroke-opacity:1;stroke-miterlimit:4;" d="M 68.805936 87.329707 L 64.773744 94.438485 L 68.875858 101.454032 L 68.875858 98.377447 L 72.278748 98.307524 C 74.423035 98.237602 75.588409 96.606079 75.588409 96.606079 L 80.762667 87.749241 C 81.858118 85.27865 80.669437 83.600512 80.669437 83.600512 L 77.080087 77.447341 L 69.971309 81.549455 L 74.539573 89.450687 C 74.702725 89.846914 74.446343 90.196526 73.933579 90.196526 L 68.852551 90.219833 Z M 68.805936 87.329707 " transform="matrix(0.167597,0,0,0.167597,6.530866,10.715409)"/>
<path style="fill-rule:nonzero;fill:rgb(0%,40%,50.196078%);fill-opacity:1;stroke-width:1;stroke-linecap:butt;stroke-linejoin:miter;stroke:rgb(0%,40%,50.196078%);stroke-opacity:1;stroke-miterlimit:4;" d="M 58.480728 86.257564 L 54.331998 79.218708 L 46.174385 79.265323 L 48.878051 80.803616 L 47.223221 83.786972 C 46.197692 85.674877 47.060068 87.492859 47.060068 87.492859 L 52.141096 96.373005 C 53.749312 98.587214 55.800369 98.400754 55.800369 98.400754 L 62.909146 98.354139 L 62.909146 90.149911 L 53.795927 90.173218 C 53.353085 90.103296 53.189932 89.707069 53.446315 89.287534 L 55.940214 84.835808 Z M 58.480728 86.257564 " transform="matrix(0.167597,0,0,0.167597,6.530866,10.715409)"/>
<path style="fill-rule:nonzero;fill:rgb(0%,40%,50.196078%);fill-opacity:1;stroke-width:1;stroke-linecap:butt;stroke-linejoin:miter;stroke:rgb(0%,40%,50.196078%);stroke-opacity:1;stroke-miterlimit:4;" d="M 64.563977 77.843568 L 72.744898 77.773645 L 76.77709 70.711483 L 74.120038 72.273083 L 72.348671 69.336342 C 71.229912 67.51836 69.22547 67.3319 69.22547 67.3319 L 58.970184 67.285285 C 56.266518 67.564975 55.404142 69.429572 55.404142 69.429572 L 51.884714 75.629358 L 58.993492 79.708165 L 63.538448 71.806934 C 63.818138 71.457322 64.237672 71.527244 64.470747 71.970086 L 67.081183 76.375197 Z M 64.563977 77.843568 " transform="matrix(0.167597,0,0,0.167597,6.530866,10.715409)"/>
<path style="fill:none;stroke-width:9;stroke-linecap:butt;stroke-linejoin:miter;stroke:rgb(100%,100%,100%);stroke-opacity:1;stroke-miterlimit:4;" d="M 134.033203 695.12341 L 199.34082 632.196164 " transform="matrix(0.064,0,0,0.064,0,-35.35118)"/>
<path style="fill-rule:nonzero;fill:rgb(60%,60%,60%);fill-opacity:1;stroke-width:9.11013;stroke-linecap:butt;stroke-linejoin:bevel;stroke:rgb(100%,100%,100%);stroke-opacity:1;stroke-miterlimit:4;" d="M 153.869629 642.572141 C 153.869629 648.37048 149.230957 653.009152 143.493652 653.009152 C 137.695312 653.009152 132.995605 648.37048 132.995605 642.572141 C 132.995605 636.773801 137.695312 632.135129 143.493652 632.135129 C 149.230957 632.135129 153.869629 636.773801 153.869629 642.572141 Z M 153.869629 642.572141 " transform="matrix(0.064,0,0,0.064,0,-35.35118)"/>
<path style="fill-rule:nonzero;fill:rgb(60%,60%,60%);fill-opacity:1;stroke-width:9.11013;stroke-linecap:butt;stroke-linejoin:bevel;stroke:rgb(100%,100%,100%);stroke-opacity:1;stroke-miterlimit:4;" d="M 199.829102 684.930539 C 199.829102 690.728879 195.19043 695.367551 189.39209 695.367551 C 183.654785 695.367551 178.955078 690.728879 178.955078 684.930539 C 178.955078 679.193234 183.654785 674.493527 189.39209 674.493527 C 195.19043 674.493527 199.829102 679.193234 199.829102 684.930539 Z M 199.829102 684.930539 " transform="matrix(0.064,0,0,0.064,0,-35.35118)"/>
</g>
</svg>
