<?xml version="1.0" encoding="UTF-8"?>
<svg xmlns="http://www.w3.org/2000/svg" xmlns:xlink="http://www.w3.org/1999/xlink" width="32" height="32" viewBox="0 0 32 32" version="1.1">
<g id="surface1">
<path style=" stroke:none;fill-rule:evenodd;fill:rgb(20%,20%,20%);fill-opacity:1;" d="M 4.035156 9.847656 L 7.441406 13.179688 L 7.335938 8.503906 L 4.03125 8.488281 Z M 4.035156 9.847656 "/>
<path style="fill-rule:evenodd;fill:rgb(94.901961%,94.901961%,94.901961%);fill-opacity:1;stroke-width:5.03546;stroke-linecap:butt;stroke-linejoin:miter;stroke:rgb(68.627451%,68.627451%,68.627451%);stroke-opacity:1;stroke-miterlimit:4;" d="M 97.045898 1029.840207 L 433.898926 1028.680539 L 435.119629 664.788937 L 347.045898 575.555539 L 97.045898 575.555539 Z M 97.045898 1029.840207 " transform="matrix(0.064,0,0,0.064,0,-35.35118)"/>
<path style="fill-rule:evenodd;fill:rgb(68.627451%,68.627451%,68.627451%);fill-opacity:1;stroke-width:5.03546;stroke-linecap:butt;stroke-linejoin:miter;stroke:rgb(68.627451%,68.627451%,68.627451%);stroke-opacity:1;stroke-miterlimit:4;" d="M 431.518555 662.896848 L 349.365234 662.347531 L 350.097656 578.546262 Z M 431.518555 662.896848 " transform="matrix(0.064,0,0,0.064,0,-35.35118)"/>
<path style=" stroke:none;fill-rule:nonzero;fill:rgb(22.352941%,25.098039%,31.372549%);fill-opacity:1;" d="M 4.039062 4.46875 L 18.4375 4.46875 L 18.4375 9.867188 L 4.039062 9.867188 Z M 4.039062 4.46875 "/>
<path style=" stroke:none;fill-rule:nonzero;fill:rgb(22.352941%,25.098039%,31.372549%);fill-opacity:1;" d="M 9.320312 18.105469 L 23.515625 18.105469 C 24.011719 18.105469 24.417969 18.507812 24.417969 19.003906 L 24.417969 29.429688 C 24.417969 29.925781 24.011719 30.328125 23.515625 30.328125 L 9.320312 30.328125 C 8.820312 30.328125 8.417969 29.925781 8.417969 29.429688 L 8.417969 19.003906 C 8.417969 18.507812 8.820312 18.105469 9.320312 18.105469 Z M 9.320312 18.105469 "/>
<path style=" stroke:none;fill-rule:nonzero;fill:rgb(100%,100%,100%);fill-opacity:1;" d="M 10.542969 19.539062 L 22.359375 19.539062 C 22.730469 19.539062 23.03125 19.839844 23.03125 20.210938 L 23.03125 27.980469 C 23.03125 28.351562 22.730469 28.652344 22.359375 28.652344 L 10.542969 28.652344 C 10.171875 28.652344 9.871094 28.351562 9.871094 27.980469 L 9.871094 20.210938 C 9.871094 19.839844 10.171875 19.539062 10.542969 19.539062 Z M 10.542969 19.539062 "/>
<path style=" stroke:none;fill-rule:nonzero;fill:rgb(22.352941%,25.098039%,31.372549%);fill-opacity:1;" d="M 11.480469 20.476562 L 16.875 20.476562 C 17.175781 20.476562 17.417969 20.71875 17.417969 21.015625 L 17.417969 27.28125 C 17.417969 27.582031 17.175781 27.824219 16.875 27.824219 L 11.480469 27.824219 C 11.179688 27.824219 10.9375 27.582031 10.9375 27.28125 L 10.9375 21.015625 C 10.9375 20.71875 11.179688 20.476562 11.480469 20.476562 Z M 11.480469 20.476562 "/>
<path style=" stroke:none;fill-rule:nonzero;fill:rgb(100%,100%,100%);fill-opacity:1;" d="M 12.4375 21.519531 L 12.4375 22.664062 L 14.820312 22.675781 C 14.820312 22.675781 13.902344 23.882812 13.59375 24.789062 C 13.285156 25.699219 13.25 26.984375 13.25 26.984375 L 14.40625 26.996094 C 14.40625 26.996094 14.425781 25.722656 14.738281 24.800781 C 15.050781 23.878906 16.179688 22.628906 16.179688 22.628906 L 16.179688 21.507812 Z M 12.4375 21.519531 "/>
<path style=" stroke:none;fill-rule:nonzero;fill:rgb(22.352941%,25.098039%,31.372549%);fill-opacity:1;" d="M 18.585938 24.25 L 18.597656 23.246094 L 22.007812 23.257812 L 22.007812 24.144531 L 20.074219 26.339844 L 21.996094 26.328125 L 21.984375 27.320312 L 18.597656 27.296875 L 18.585938 26.421875 L 20.617188 24.226562 Z M 18.585938 24.25 "/>
<path style="fill:none;stroke-width:9;stroke-linecap:butt;stroke-linejoin:miter;stroke:rgb(100%,100%,100%);stroke-opacity:1;stroke-miterlimit:4;" d="M 125.366211 638.238645 L 163.574219 638.787961 L 128.845215 693.841672 " transform="matrix(0.064,0,0,0.064,0,-35.35118)"/>
<path style="fill:none;stroke-width:9;stroke-linecap:butt;stroke-linejoin:miter;stroke:rgb(100%,100%,100%);stroke-opacity:1;stroke-miterlimit:4;" d="M 188.598633 638.604855 L 226.745605 639.215207 L 192.077637 689.630246 L 234.863281 689.874387 " transform="matrix(0.064,0,0,0.064,0,-35.35118)"/>
</g>
</svg>
