<?xml version="1.0" encoding="UTF-8"?>
<svg xmlns="http://www.w3.org/2000/svg" xmlns:xlink="http://www.w3.org/1999/xlink" width="32" height="32" viewBox="0 0 32 32" version="1.1">
<g id="surface1">
<path style=" stroke:none;fill-rule:evenodd;fill:rgb(0%,46.666667%,75.686275%);fill-opacity:1;" d="M 4.042969 9.882812 L 7.449219 13.21875 L 7.34375 8.542969 L 4.042969 8.527344 Z M 4.042969 9.882812 "/>
<path style="fill-rule:evenodd;fill:rgb(94.901961%,94.901961%,94.901961%);fill-opacity:1;stroke-width:5.03546;stroke-linecap:butt;stroke-linejoin:miter;stroke:rgb(68.627451%,68.627451%,68.627451%);stroke-opacity:1;stroke-miterlimit:4;" d="M 96.923828 1029.840207 L 433.776855 1028.680539 L 434.936523 664.788937 L 346.923828 575.555539 L 96.923828 575.555539 Z M 96.923828 1029.840207 " transform="matrix(0.064,0,0,0.064,0,-35.35118)"/>
<path style="fill-rule:evenodd;fill:rgb(68.627451%,68.627451%,68.627451%);fill-opacity:1;stroke-width:5.03546;stroke-linecap:butt;stroke-linejoin:miter;stroke:rgb(68.627451%,68.627451%,68.627451%);stroke-opacity:1;stroke-miterlimit:4;" d="M 431.396484 662.896848 L 349.182129 662.347531 L 349.975586 578.546262 Z M 431.396484 662.896848 " transform="matrix(0.064,0,0,0.064,0,-35.35118)"/>
<path style=" stroke:none;fill-rule:nonzero;fill:rgb(0%,73.333333%,94.901961%);fill-opacity:1;" d="M 4.03125 4.46875 L 18.429688 4.46875 L 18.429688 9.867188 L 4.03125 9.867188 Z M 4.03125 4.46875 "/>
<path style="fill:none;stroke-width:9.063828;stroke-linecap:butt;stroke-linejoin:miter;stroke:rgb(100%,100%,100%);stroke-opacity:1;stroke-miterlimit:4;" d="M 139.221191 693.902707 L 139.221191 637.445187 C 139.221191 637.445187 170.043945 631.524777 169.921875 651.788449 C 169.799805 672.052121 139.831543 666.497922 139.831543 666.497922 " transform="matrix(0.064,0,0,0.064,0,-35.35118)"/>
<path style=" stroke:none;fill-rule:nonzero;fill:rgb(0%,73.333333%,94.901961%);fill-opacity:1;" d="M 17.21875 30.382812 C 22.078125 30.382812 26.019531 28.386719 26.019531 25.921875 C 26.019531 23.460938 22.078125 21.460938 17.21875 21.460938 C 12.359375 21.460938 8.417969 23.460938 8.417969 25.921875 C 8.417969 28.386719 12.359375 30.382812 17.21875 30.382812 "/>
<path style=" stroke:none;fill-rule:nonzero;fill:rgb(100%,100%,100%);fill-opacity:1;" d="M 13.039062 26.476562 C 13.4375 26.476562 13.734375 26.402344 13.925781 26.257812 C 14.109375 26.113281 14.238281 25.863281 14.308594 25.515625 C 14.371094 25.191406 14.347656 24.964844 14.234375 24.84375 C 14.125 24.71875 13.878906 24.652344 13.511719 24.652344 L 12.875 24.652344 L 12.519531 26.476562 Z M 10.949219 28.71875 C 10.917969 28.71875 10.890625 28.707031 10.871094 28.683594 C 10.851562 28.660156 10.84375 28.628906 10.851562 28.601562 L 11.789062 23.773438 C 11.796875 23.726562 11.839844 23.691406 11.886719 23.691406 L 13.910156 23.691406 C 14.542969 23.691406 15.015625 23.867188 15.316406 24.207031 C 15.613281 24.546875 15.707031 25.027344 15.589844 25.628906 C 15.542969 25.871094 15.460938 26.101562 15.347656 26.304688 C 15.230469 26.507812 15.082031 26.695312 14.898438 26.867188 C 14.679688 27.070312 14.429688 27.21875 14.160156 27.304688 C 13.898438 27.390625 13.554688 27.4375 13.148438 27.4375 L 12.332031 27.4375 L 12.097656 28.640625 C 12.089844 28.683594 12.046875 28.71875 12 28.71875 Z M 10.949219 28.71875 "/>
<path style=" stroke:none;fill-rule:nonzero;fill:rgb(100%,100%,100%);fill-opacity:1;" d="M 18 27.4375 C 17.972656 27.4375 17.941406 27.421875 17.925781 27.398438 C 17.90625 27.375 17.898438 27.347656 17.902344 27.316406 L 18.316406 25.179688 C 18.359375 24.976562 18.347656 24.832031 18.289062 24.773438 C 18.253906 24.734375 18.152344 24.671875 17.839844 24.671875 L 17.089844 24.671875 L 16.566406 27.355469 C 16.558594 27.402344 16.515625 27.4375 16.46875 27.4375 L 15.425781 27.4375 C 15.394531 27.4375 15.367188 27.421875 15.347656 27.398438 C 15.328125 27.375 15.320312 27.347656 15.328125 27.316406 L 16.265625 22.492188 C 16.273438 22.441406 16.316406 22.410156 16.363281 22.410156 L 17.40625 22.410156 C 17.4375 22.410156 17.464844 22.421875 17.484375 22.445312 C 17.503906 22.46875 17.511719 22.5 17.503906 22.527344 L 17.277344 23.691406 L 18.085938 23.691406 C 18.703125 23.691406 19.121094 23.800781 19.367188 24.023438 C 19.613281 24.253906 19.691406 24.617188 19.59375 25.109375 L 19.15625 27.355469 C 19.148438 27.402344 19.109375 27.4375 19.058594 27.4375 Z M 18 27.4375 "/>
<path style=" stroke:none;fill-rule:nonzero;fill:rgb(100%,100%,100%);fill-opacity:1;" d="M 21.246094 26.476562 C 21.644531 26.476562 21.945312 26.402344 22.132812 26.257812 C 22.320312 26.113281 22.449219 25.863281 22.515625 25.515625 C 22.578125 25.191406 22.554688 24.964844 22.445312 24.84375 C 22.332031 24.71875 22.085938 24.652344 21.71875 24.652344 L 21.082031 24.652344 L 20.726562 26.476562 Z M 19.15625 28.71875 C 19.128906 28.71875 19.097656 28.707031 19.078125 28.683594 C 19.0625 28.660156 19.054688 28.628906 19.058594 28.601562 L 19.996094 23.773438 C 20.007812 23.726562 20.046875 23.691406 20.09375 23.691406 L 22.117188 23.691406 C 22.753906 23.691406 23.226562 23.867188 23.523438 24.207031 C 23.820312 24.546875 23.914062 25.027344 23.796875 25.628906 C 23.75 25.871094 23.667969 26.101562 23.554688 26.304688 C 23.441406 26.507812 23.289062 26.695312 23.105469 26.867188 C 22.886719 27.070312 22.640625 27.21875 22.371094 27.304688 C 22.105469 27.390625 21.765625 27.4375 21.359375 27.4375 L 20.539062 27.4375 L 20.304688 28.640625 C 20.296875 28.683594 20.257812 28.71875 20.210938 28.71875 Z M 19.15625 28.71875 "/>
<path style="fill:none;stroke-width:9;stroke-linecap:butt;stroke-linejoin:miter;stroke:rgb(100%,100%,100%);stroke-opacity:1;stroke-miterlimit:4;" d="M 311.199902 528.451504 L 311.505078 582.955898 " transform="matrix(0.064,0,0,0.064,-8.073044,-28.445896)"/>
<path style="fill:none;stroke-width:9;stroke-linecap:butt;stroke-linejoin:miter;stroke:rgb(100%,100%,100%);stroke-opacity:1;stroke-miterlimit:4;" d="M 346.295117 527.963223 L 346.539258 582.467617 " transform="matrix(0.064,0,0,0.064,-8.073044,-28.445896)"/>
<path style="fill:none;stroke-width:9;stroke-linecap:butt;stroke-linejoin:miter;stroke:rgb(100%,100%,100%);stroke-opacity:1;stroke-miterlimit:4;" d="M 310.894727 555.062832 L 347.51582 555.062832 " transform="matrix(0.064,0,0,0.064,-8.073044,-28.445896)"/>
<path style="fill:none;stroke-width:9.063828;stroke-linecap:butt;stroke-linejoin:miter;stroke:rgb(100%,100%,100%);stroke-opacity:1;stroke-miterlimit:4;" d="M 239.318848 693.414426 L 239.318848 637.017941 C 239.318848 637.017941 270.141602 631.036496 270.019531 651.300168 C 269.897461 671.56384 239.929199 666.009641 239.929199 666.009641 " transform="matrix(0.064,0,0,0.064,0,-35.35118)"/>
</g>
</svg>
