<?xml version="1.0" encoding="UTF-8"?>
<svg xmlns="http://www.w3.org/2000/svg" xmlns:xlink="http://www.w3.org/1999/xlink" width="32" height="32" viewBox="0 0 32 32" version="1.1">
<g id="surface1">
<path style=" stroke:none;fill-rule:evenodd;fill:rgb(71.764706%,16.470588%,5.098039%);fill-opacity:1;" d="M 4.035156 9.847656 L 7.441406 13.179688 L 7.335938 8.503906 L 4.03125 8.488281 Z M 4.035156 9.847656 "/>
<path style="fill-rule:evenodd;fill:rgb(94.901961%,94.901961%,94.901961%);fill-opacity:1;stroke-width:5.03546;stroke-linecap:butt;stroke-linejoin:miter;stroke:rgb(68.627451%,68.627451%,68.627451%);stroke-opacity:1;stroke-miterlimit:4;" d="M 97.045898 1029.840207 L 433.898926 1028.680539 L 435.119629 664.788937 L 347.045898 575.555539 L 97.045898 575.555539 Z M 97.045898 1029.840207 " transform="matrix(0.064,0,0,0.064,0,-35.35118)"/>
<path style="fill-rule:evenodd;fill:rgb(68.627451%,68.627451%,68.627451%);fill-opacity:1;stroke-width:5.03546;stroke-linecap:butt;stroke-linejoin:miter;stroke:rgb(68.627451%,68.627451%,68.627451%);stroke-opacity:1;stroke-miterlimit:4;" d="M 431.518555 662.896848 L 349.365234 662.347531 L 350.097656 578.546262 Z M 431.518555 662.896848 " transform="matrix(0.064,0,0,0.064,0,-35.35118)"/>
<path style=" stroke:none;fill-rule:nonzero;fill:rgb(94.117647%,22.352941%,8.627451%);fill-opacity:1;" d="M 4.039062 4.46875 L 18.4375 4.46875 L 18.4375 9.867188 L 4.039062 9.867188 Z M 4.039062 4.46875 "/>
<path style=" stroke:none;fill-rule:nonzero;fill:rgb(94.117647%,22.352941%,8.627451%);fill-opacity:1;" d="M 16.734375 17.445312 L 18.410156 20.242188 L 15.09375 20.21875 Z M 16.734375 17.445312 "/>
<path style=" stroke:none;fill-rule:nonzero;fill:rgb(50.196078%,0%,0%);fill-opacity:1;" d="M 13.769531 20.148438 L 19.769531 20.148438 L 16.75 30.222656 Z M 13.769531 20.148438 "/>
<path style=" stroke:none;fill-rule:nonzero;fill:rgb(94.117647%,22.352941%,8.627451%);fill-opacity:1;" d="M 8.742188 20.605469 L 16.742188 30.214844 L 13.921875 20.148438 L 9.21875 20.136719 Z M 8.742188 20.605469 "/>
<path style=" stroke:none;fill-rule:nonzero;fill:rgb(94.117647%,22.352941%,8.627451%);fill-opacity:1;" d="M 24.742188 20.605469 L 16.742188 30.214844 L 19.558594 20.148438 L 24.265625 20.132812 Z M 24.742188 20.605469 "/>
<path style=" stroke:none;fill-rule:nonzero;fill:rgb(83.137255%,0%,0%);fill-opacity:1;" d="M 9.207031 20.144531 L 13.921875 20.152344 L 13.25 17.414062 L 11.9375 17.414062 Z M 9.207031 20.144531 "/>
<path style=" stroke:none;fill-rule:nonzero;fill:rgb(83.137255%,0%,0%);fill-opacity:1;" d="M 24.273438 20.148438 L 19.558594 20.15625 L 20.230469 17.417969 L 21.542969 17.417969 Z M 24.273438 20.148438 "/>
<path style=" stroke:none;fill-rule:nonzero;fill:rgb(50.196078%,0%,0%);fill-opacity:1;" d="M 16.800781 17.433594 L 13.230469 17.414062 L 13.902344 20.152344 L 15.21875 20.152344 Z M 16.800781 17.433594 "/>
<path style=" stroke:none;fill-rule:nonzero;fill:rgb(50.196078%,0%,0%);fill-opacity:1;" d="M 16.679688 17.433594 L 20.25 17.414062 L 19.578125 20.152344 L 18.265625 20.152344 Z M 16.679688 17.433594 "/>
<path style="fill:none;stroke-width:9.063828;stroke-linecap:butt;stroke-linejoin:miter;stroke:rgb(100%,100%,100%);stroke-opacity:1;stroke-miterlimit:4;" d="M 384.483828 735.888523 L 384.483828 679.431004 C 384.483828 679.431004 415.245547 673.510594 415.184512 693.774266 C 415.062441 714.037937 385.09418 708.544773 385.09418 708.544773 " transform="matrix(0.064,0,0,0.064,-15.798371,-38.034365)"/>
<path style="fill:none;stroke-width:9;stroke-linecap:butt;stroke-linejoin:miter;stroke:rgb(100%,100%,100%);stroke-opacity:1;stroke-miterlimit:4;" d="M 392.479434 710.436863 L 418.419375 734.911961 " transform="matrix(0.064,0,0,0.064,-15.798371,-38.034365)"/>
<path style="fill:none;stroke-width:9;stroke-linecap:butt;stroke-linejoin:miter;stroke:rgb(100%,100%,100%);stroke-opacity:1;stroke-miterlimit:4;" d="M 193.237305 637.750363 L 193.237305 690.728879 L 213.439941 690.728879 C 213.439941 690.728879 229.187012 691.522336 228.69873 676.751828 C 228.149414 661.98132 214.660645 662.286496 214.660645 662.286496 L 196.533203 662.286496 L 214.477539 662.042355 C 214.477539 662.042355 225.585938 661.73718 225.463867 649.408078 C 225.341797 637.017941 210.021973 637.750363 210.021973 637.750363 Z M 193.237305 637.750363 " transform="matrix(0.064,0,0,0.064,0,-35.35118)"/>
</g>
</svg>
