<?xml version="1.0" encoding="UTF-8"?>
<svg xmlns="http://www.w3.org/2000/svg" xmlns:xlink="http://www.w3.org/1999/xlink" width="32" height="32" viewBox="0 0 32 32" version="1.1">
<g id="surface1">
<path style=" stroke:none;fill-rule:evenodd;fill:rgb(20%,20%,20%);fill-opacity:1;" d="M 4.035156 9.527344 L 7.441406 12.859375 L 7.335938 8.1875 L 4.03125 8.167969 Z M 4.035156 9.527344 "/>
<path style="fill-rule:evenodd;fill:rgb(94.901961%,94.901961%,94.901961%);fill-opacity:1;stroke-width:5.03546;stroke-linecap:butt;stroke-linejoin:miter;stroke:rgb(68.627451%,68.627451%,68.627451%);stroke-opacity:1;stroke-miterlimit:4;" d="M 97.045898 1024.835324 L 433.898926 1023.675656 L 435.119629 659.784055 L 347.045898 570.550656 L 97.045898 570.550656 Z M 97.045898 1024.835324 " transform="matrix(0.064,0,0,0.064,0,-35.35118)"/>
<path style="fill-rule:evenodd;fill:rgb(68.627451%,68.627451%,68.627451%);fill-opacity:1;stroke-width:5.03546;stroke-linecap:butt;stroke-linejoin:miter;stroke:rgb(68.627451%,68.627451%,68.627451%);stroke-opacity:1;stroke-miterlimit:4;" d="M 431.518555 657.953 L 349.365234 657.342648 L 350.097656 573.541379 Z M 431.518555 657.953 " transform="matrix(0.064,0,0,0.064,0,-35.35118)"/>
<path style=" stroke:none;fill-rule:nonzero;fill:rgb(22.352941%,25.098039%,31.372549%);fill-opacity:1;" d="M 4.039062 4.148438 L 18.4375 4.148438 L 18.4375 9.546875 L 4.039062 9.546875 Z M 4.039062 4.148438 "/>
<path style="fill-rule:evenodd;fill:rgb(22.352941%,25.098039%,31.372549%);fill-opacity:1;stroke-width:11.346586;stroke-linecap:butt;stroke-linejoin:round;stroke:rgb(100%,100%,100%);stroke-opacity:1;stroke-miterlimit:4;" d="M 144.042969 810.29675 L 384.338379 810.29675 C 390.808105 810.29675 395.996094 815.545773 395.996094 821.954465 L 395.996094 1005.548215 C 395.996094 1012.017941 390.808105 1017.20593 384.338379 1017.20593 L 144.042969 1017.20593 C 137.573242 1017.20593 132.324219 1012.017941 132.324219 1005.548215 L 132.324219 821.954465 C 132.324219 815.545773 137.573242 810.29675 144.042969 810.29675 Z M 144.042969 810.29675 " transform="matrix(0.064,0,0,0.064,0,-35.35118)"/>
<path style=" stroke:none;fill-rule:nonzero;fill:rgb(100%,100%,100%);fill-opacity:1;" d="M 10.488281 20.585938 L 10.5 20.292969 L 10.703125 20.226562 C 10.816406 20.191406 10.949219 20.144531 11 20.125 C 11.046875 20.101562 11.160156 20.0625 11.25 20.03125 C 11.335938 20 11.445312 19.960938 11.496094 19.9375 C 11.546875 19.914062 11.65625 19.882812 11.742188 19.859375 C 11.929688 19.816406 11.96875 19.734375 11.828125 19.691406 C 11.769531 19.675781 11.683594 19.648438 11.632812 19.625 C 11.582031 19.601562 11.417969 19.550781 11.269531 19.507812 C 11.121094 19.464844 10.976562 19.414062 10.953125 19.398438 C 10.929688 19.378906 10.8125 19.335938 10.691406 19.304688 L 10.476562 19.242188 L 10.476562 18.628906 L 10.601562 18.679688 C 10.816406 18.765625 10.902344 18.796875 11.066406 18.855469 C 11.15625 18.882812 11.265625 18.925781 11.316406 18.945312 C 11.515625 19.03125 12.148438 19.246094 12.316406 19.296875 C 12.511719 19.359375 12.59375 19.394531 12.519531 19.375 C 12.472656 19.363281 12.375 19.3125 12.613281 19.398438 C 12.679688 19.421875 12.695312 19.441406 12.695312 19.75 L 12.695312 20.101562 L 12.414062 20.199219 C 12.257812 20.253906 11.957031 20.359375 11.746094 20.4375 C 11.535156 20.515625 11.160156 20.648438 10.917969 20.730469 L 10.472656 20.882812 Z M 10.488281 20.585938 "/>
<path style=" stroke:none;fill-rule:nonzero;fill:rgb(100%,100%,100%);fill-opacity:1;" d="M 13.238281 21.09375 L 13.238281 20.800781 L 15.636719 20.800781 L 15.636719 21.386719 L 13.238281 21.386719 Z M 13.238281 21.09375 "/>
<path style="fill:none;stroke-width:10;stroke-linecap:butt;stroke-linejoin:miter;stroke:rgb(100%,100%,100%);stroke-opacity:1;stroke-miterlimit:4;" d="M 182.189941 636.40759 C 182.189941 636.40759 172.912598 632.135129 164.123535 632.074094 C 155.334473 631.952023 149.841309 637.262082 149.597168 644.891477 C 149.291992 652.459836 153.503418 658.563352 168.640137 660.333371 C 183.837891 662.103391 182.922363 675.34802 181.030273 679.986691 C 179.199219 684.686398 170.349121 689.08093 161.376953 687.860227 C 152.404785 686.639523 144.897461 682.611203 144.897461 682.611203 " transform="matrix(0.064,0,0,0.064,0,-35.35118)"/>
<path style="fill:none;stroke-width:9;stroke-linecap:butt;stroke-linejoin:miter;stroke:rgb(100%,100%,100%);stroke-opacity:1;stroke-miterlimit:4;" d="M 311.206687 528.42559 L 311.511863 582.929984 " transform="matrix(0.064,0,0,0.064,-7.085197,-28.659081)"/>
<path style="fill:none;stroke-width:9;stroke-linecap:butt;stroke-linejoin:miter;stroke:rgb(100%,100%,100%);stroke-opacity:1;stroke-miterlimit:4;" d="M 346.301902 527.937309 L 346.607078 582.441703 " transform="matrix(0.064,0,0,0.064,-7.085197,-28.659081)"/>
<path style="fill:none;stroke-width:9;stroke-linecap:butt;stroke-linejoin:miter;stroke:rgb(100%,100%,100%);stroke-opacity:1;stroke-miterlimit:4;" d="M 310.901512 555.036918 L 347.522605 555.036918 " transform="matrix(0.064,0,0,0.064,-7.085197,-28.659081)"/>
</g>
</svg>
