<?xml version="1.0" encoding="UTF-8"?>
<svg xmlns="http://www.w3.org/2000/svg" xmlns:xlink="http://www.w3.org/1999/xlink" width="32" height="32" viewBox="0 0 32 32" version="1.1">
<g id="surface1">
<path style=" stroke:none;fill-rule:evenodd;fill:rgb(15.686275%,9.019608%,4.313725%);fill-opacity:1;" d="M 4.035156 9.847656 L 7.441406 13.179688 L 7.335938 8.503906 L 4.03125 8.488281 Z M 4.035156 9.847656 "/>
<path style="fill-rule:evenodd;fill:rgb(94.901961%,94.901961%,94.901961%);fill-opacity:1;stroke-width:5.03546;stroke-linecap:butt;stroke-linejoin:miter;stroke:rgb(68.627451%,68.627451%,68.627451%);stroke-opacity:1;stroke-miterlimit:4;" d="M 97.045898 1029.840207 L 433.898926 1028.680539 L 435.119629 664.788937 L 347.045898 575.555539 L 97.045898 575.555539 Z M 97.045898 1029.840207 " transform="matrix(0.064,0,0,0.064,0,-35.35118)"/>
<path style="fill-rule:evenodd;fill:rgb(68.627451%,68.627451%,68.627451%);fill-opacity:1;stroke-width:5.03546;stroke-linecap:butt;stroke-linejoin:miter;stroke:rgb(68.627451%,68.627451%,68.627451%);stroke-opacity:1;stroke-miterlimit:4;" d="M 431.518555 662.896848 L 349.365234 662.347531 L 350.097656 578.546262 Z M 431.518555 662.896848 " transform="matrix(0.064,0,0,0.064,0,-35.35118)"/>
<path style=" stroke:none;fill-rule:nonzero;fill:rgb(31.372549%,17.647059%,8.627451%);fill-opacity:1;" d="M 4.039062 4.46875 L 18.4375 4.46875 L 18.4375 9.867188 L 4.039062 9.867188 Z M 4.039062 4.46875 "/>
<path style=" stroke:none;fill-rule:nonzero;fill:rgb(80%,80%,80%);fill-opacity:1;" d="M 11.296875 19.066406 C 11.296875 19.066406 11.507812 18.015625 17.417969 18.007812 C 23.328125 18 23.566406 19.160156 23.566406 19.160156 L 23.039062 20.925781 L 11.96875 20.96875 Z M 11.296875 19.066406 "/>
<path style=" stroke:none;fill-rule:nonzero;fill:rgb(80%,80%,80%);fill-opacity:1;" d="M 25.46875 27.078125 C 25.695312 28.671875 22.304688 30.03125 17.890625 30.117188 C 13.480469 30.195312 9.71875 28.96875 9.488281 27.375 C 9.261719 25.78125 12.648438 24.417969 17.058594 24.335938 C 21.46875 24.253906 25.234375 25.476562 25.46875 27.070312 "/>
<path style=" stroke:none;fill-rule:nonzero;fill:rgb(50.196078%,50.196078%,50.196078%);fill-opacity:1;" d="M 22.015625 27.035156 C 22.144531 27.933594 20.230469 28.703125 17.738281 28.75 C 15.25 28.796875 13.125 28.101562 12.996094 27.203125 C 12.863281 26.304688 14.777344 25.535156 17.269531 25.488281 C 19.757812 25.4375 21.882812 26.128906 22.015625 27.03125 "/>
<path style=" stroke:none;fill-rule:nonzero;fill:rgb(31.372549%,17.647059%,8.627451%);fill-opacity:1;" d="M 23.144531 19.964844 C 23.300781 20.660156 20.929688 21.257812 17.851562 21.292969 C 14.769531 21.328125 12.144531 20.792969 11.984375 20.09375 C 11.820312 19.398438 14.1875 18.800781 17.269531 18.765625 C 20.351562 18.726562 22.980469 19.261719 23.140625 19.960938 "/>
<path style="fill:none;stroke-width:12.0954;stroke-linecap:butt;stroke-linejoin:miter;stroke:rgb(50.196078%,50.196078%,50.196078%);stroke-opacity:1;stroke-miterlimit:4;" d="M 349.182129 925.042844 C 349.182129 925.042844 367.248535 927.667355 374.694824 923.150754 C 382.141113 918.634152 387.145996 908.502316 386.962891 900.628781 C 386.779785 892.694211 382.8125 886.468625 377.01416 883.294797 C 371.21582 880.059934 357.971191 882.806516 357.971191 882.806516 " transform="matrix(0.064,0,0,0.064,0,-35.35118)"/>
<path style=" stroke:none;fill-rule:nonzero;fill:rgb(70.196078%,70.196078%,70.196078%);fill-opacity:1;" d="M 11.289062 19.042969 C 11.71875 23.957031 12.859375 27.691406 17.316406 27.890625 C 21.773438 28.089844 23.179688 23.304688 23.578125 19.164062 C 23.578125 19.164062 22.570312 20.210938 17.078125 20.144531 C 11.585938 20.074219 11.289062 19.042969 11.289062 19.042969 Z M 11.289062 19.042969 "/>
<path style="fill:none;stroke-width:9;stroke-linecap:butt;stroke-linejoin:miter;stroke:rgb(100%,100%,100%);stroke-opacity:1;stroke-miterlimit:4;" d="M 121.518832 354.808855 C 121.518832 354.808855 126.645785 354.320574 130.063754 350.475359 C 133.481723 346.569109 133.298617 343.334246 133.298617 343.334246 L 133.298617 304.698992 " transform="matrix(0.064,0,0,0.064,0.996232,-13.73511)"/>
<path style=" stroke:none;fill-rule:nonzero;fill:rgb(100%,100%,100%);fill-opacity:1;" d="M 9.253906 4.945312 L 9.820312 4.945312 L 9.820312 5.5 L 9.253906 5.5 Z M 9.253906 4.945312 "/>
<path style="fill:none;stroke-width:9;stroke-linecap:butt;stroke-linejoin:bevel;stroke:rgb(100%,100%,100%);stroke-opacity:1;stroke-miterlimit:4;" d="M 915.713199 696.267904 L 937.83411 638.026271 L 960.561075 696.267904 " transform="matrix(0.064454,0,0,0.064454,-48.439347,-36.002251)"/>
<path style="fill:none;stroke-width:9;stroke-linecap:butt;stroke-linejoin:miter;stroke:rgb(100%,100%,100%);stroke-opacity:1;stroke-miterlimit:4;" d="M 924.561563 676.753018 L 950.379395 676.753018 " transform="matrix(0.064454,0,0,0.064454,-48.439347,-36.002251)"/>
<path style="fill:none;stroke-width:9.063828;stroke-linecap:butt;stroke-linejoin:miter;stroke:rgb(100%,100%,100%);stroke-opacity:1;stroke-miterlimit:4;" d="M 384.47007 735.913336 L 384.47007 679.455816 C 384.47007 679.455816 415.292824 673.535406 415.170754 693.799078 C 415.048684 714.06275 385.080422 708.508551 385.080422 708.508551 " transform="matrix(0.064,0,0,0.064,-10.137334,-38.090641)"/>
<path style="fill:none;stroke-width:9;stroke-linecap:butt;stroke-linejoin:miter;stroke:rgb(100%,100%,100%);stroke-opacity:1;stroke-miterlimit:4;" d="M 392.465676 710.461676 L 418.405617 734.936773 " transform="matrix(0.064,0,0,0.064,-10.137334,-38.090641)"/>
</g>
</svg>
