<?xml version="1.0" encoding="UTF-8"?>
<svg xmlns="http://www.w3.org/2000/svg" xmlns:xlink="http://www.w3.org/1999/xlink" width="32" height="32" viewBox="0 0 32 32" version="1.1">
<g id="surface1">
<path style=" stroke:none;fill-rule:evenodd;fill:rgb(20%,20%,20%);fill-opacity:1;" d="M 4.035156 9.847656 L 7.441406 13.179688 L 7.335938 8.503906 L 4.03125 8.488281 Z M 4.035156 9.847656 "/>
<path style="fill-rule:evenodd;fill:rgb(94.901961%,94.901961%,94.901961%);fill-opacity:1;stroke-width:5.03546;stroke-linecap:butt;stroke-linejoin:miter;stroke:rgb(68.627451%,68.627451%,68.627451%);stroke-opacity:1;stroke-miterlimit:4;" d="M 97.045898 1029.840207 L 433.898926 1028.680539 L 435.119629 664.788937 L 347.045898 575.555539 L 97.045898 575.555539 Z M 97.045898 1029.840207 " transform="matrix(0.064,0,0,0.064,0,-35.35118)"/>
<path style="fill-rule:evenodd;fill:rgb(68.627451%,68.627451%,68.627451%);fill-opacity:1;stroke-width:5.03546;stroke-linecap:butt;stroke-linejoin:miter;stroke:rgb(68.627451%,68.627451%,68.627451%);stroke-opacity:1;stroke-miterlimit:4;" d="M 431.518555 662.896848 L 349.365234 662.347531 L 350.097656 578.546262 Z M 431.518555 662.896848 " transform="matrix(0.064,0,0,0.064,0,-35.35118)"/>
<path style=" stroke:none;fill-rule:nonzero;fill:rgb(22.352941%,25.098039%,31.372549%);fill-opacity:1;" d="M 4.039062 4.46875 L 18.4375 4.46875 L 18.4375 9.867188 L 4.039062 9.867188 Z M 4.039062 4.46875 "/>
<path style=" stroke:none;fill-rule:evenodd;fill:rgb(60%,60%,60%);fill-opacity:1;" d="M 19.066406 30.136719 C 14.796875 31.269531 10.417969 28.722656 9.289062 24.453125 C 8.15625 20.183594 10.703125 15.804688 14.972656 14.675781 L 16.882812 21.882812 C 16.589844 21.960938 16.417969 22.257812 16.496094 22.546875 C 16.574219 22.835938 16.871094 23.007812 17.160156 22.929688 Z M 14.972656 14.675781 C 19.242188 13.542969 23.621094 16.089844 24.75 20.359375 C 25.882812 24.628906 23.335938 29.007812 19.066406 30.136719 L 17.160156 22.929688 C 17.449219 22.855469 17.621094 22.558594 17.542969 22.269531 C 17.46875 21.976562 17.171875 21.804688 16.882812 21.882812 Z M 14.972656 14.675781 "/>
<path style=" stroke:none;fill-rule:evenodd;fill:rgb(80%,80%,80%);fill-opacity:1;" d="M 19.066406 30.136719 C 14.796875 31.269531 10.417969 28.722656 9.289062 24.453125 C 8.15625 20.183594 10.703125 15.804688 14.972656 14.675781 L 16.882812 21.882812 C 16.589844 21.960938 16.417969 22.257812 16.496094 22.546875 C 16.574219 22.835938 16.871094 23.007812 17.160156 22.929688 Z M 14.972656 14.675781 C 19.242188 13.542969 23.621094 16.089844 24.75 20.359375 C 25.882812 24.628906 23.335938 29.007812 19.066406 30.136719 L 17.160156 22.929688 C 17.449219 22.855469 17.621094 22.558594 17.542969 22.269531 C 17.46875 21.976562 17.171875 21.804688 16.882812 21.882812 Z M 14.972656 14.675781 "/>
<path style=" stroke:none;fill-rule:evenodd;fill:rgb(36.470588%,41.568627%,48.235294%);fill-opacity:1;" d="M 17.75 25.167969 C 16.226562 25.574219 14.660156 24.664062 14.257812 23.136719 C 13.855469 21.613281 14.761719 20.046875 16.289062 19.644531 L 16.882812 21.882812 C 16.589844 21.960938 16.417969 22.257812 16.496094 22.546875 C 16.574219 22.835938 16.871094 23.007812 17.160156 22.929688 Z M 16.289062 19.644531 C 17.8125 19.242188 19.378906 20.148438 19.78125 21.675781 C 20.1875 23.199219 19.277344 24.765625 17.75 25.167969 L 17.160156 22.929688 C 17.449219 22.855469 17.621094 22.558594 17.542969 22.269531 C 17.46875 21.976562 17.171875 21.804688 16.882812 21.882812 Z M 16.289062 19.644531 "/>
<path style=" stroke:none;fill-rule:evenodd;fill:rgb(60%,60%,60%);fill-opacity:1;" d="M 17.632812 24.722656 C 16.355469 25.0625 15.042969 24.300781 14.703125 23.019531 C 14.363281 21.742188 15.125 20.429688 16.40625 20.089844 L 16.882812 21.882812 C 16.589844 21.960938 16.417969 22.257812 16.496094 22.546875 C 16.574219 22.835938 16.871094 23.007812 17.160156 22.929688 Z M 16.40625 20.089844 C 17.6875 19.75 19 20.511719 19.335938 21.792969 C 19.679688 23.074219 18.914062 24.386719 17.632812 24.722656 L 17.160156 22.929688 C 17.449219 22.855469 17.621094 22.558594 17.542969 22.269531 C 17.46875 21.976562 17.171875 21.804688 16.882812 21.882812 Z M 16.40625 20.089844 "/>
<path style=" stroke:none;fill-rule:evenodd;fill:rgb(36.470588%,41.568627%,48.235294%);fill-opacity:1;" d="M 17.277344 23.382812 C 16.742188 23.523438 16.1875 23.203125 16.042969 22.664062 C 15.902344 22.125 16.222656 21.574219 16.761719 21.429688 L 16.882812 21.882812 C 16.589844 21.960938 16.417969 22.257812 16.496094 22.546875 C 16.574219 22.835938 16.871094 23.007812 17.160156 22.929688 Z M 16.761719 21.429688 C 17.300781 21.289062 17.851562 21.609375 17.996094 22.148438 C 18.136719 22.6875 17.816406 23.238281 17.277344 23.382812 L 17.160156 22.929688 C 17.449219 22.855469 17.621094 22.558594 17.542969 22.269531 C 17.46875 21.976562 17.171875 21.804688 16.882812 21.882812 Z M 16.761719 21.429688 "/>
<path style="fill:none;stroke-width:9;stroke-linecap:butt;stroke-linejoin:miter;stroke:rgb(100%,100%,100%);stroke-opacity:1;stroke-miterlimit:4;" d="M 133.336527 354.132895 L 133.275492 304.633383 " transform="matrix(0.064,0,0,0.064,0.888337,-13.570755)"/>
<path style=" stroke:none;fill-rule:nonzero;fill:rgb(100%,100%,100%);fill-opacity:1;" d="M 9.144531 5.113281 L 9.710938 5.113281 L 9.710938 5.664062 L 9.144531 5.664062 Z M 9.144531 5.113281 "/>
<path style="fill:none;stroke-width:10;stroke-linecap:butt;stroke-linejoin:miter;stroke:rgb(100%,100%,100%);stroke-opacity:1;stroke-miterlimit:4;" d="M 200.866699 641.351437 C 200.866699 641.351437 191.589355 637.078977 182.800293 637.017941 C 174.01123 636.895871 168.518066 642.20593 168.212891 649.835324 C 167.907715 657.403684 172.119141 663.507199 187.316895 665.277219 C 202.453613 667.047238 201.599121 680.291867 199.707031 684.930539 C 197.814941 689.630246 189.025879 694.024777 179.992676 692.804074 C 171.020508 691.583371 163.574219 687.555051 163.574219 687.555051 " transform="matrix(0.064,0,0,0.064,0,-35.35118)"/>
<path style="fill:none;stroke-width:9;stroke-linecap:butt;stroke-linejoin:miter;stroke:rgb(100%,100%,100%);stroke-opacity:1;stroke-miterlimit:4;" d="M 239.379883 690.423703 C 227.355957 690.301633 216.064453 678.216672 215.942383 662.957883 C 215.881348 647.638059 227.966309 635.369992 240.112305 635.736203 C 252.258301 636.041379 262.878418 647.638059 263.061523 663.934445 C 263.244629 680.169797 251.403809 690.545773 239.379883 690.423703 Z M 239.379883 690.423703 " transform="matrix(0.064,0,0,0.064,0,-35.35118)"/>
</g>
</svg>
