<?xml version="1.0" encoding="UTF-8"?>
<svg xmlns="http://www.w3.org/2000/svg" xmlns:xlink="http://www.w3.org/1999/xlink" width="32" height="32" viewBox="0 0 32 32" version="1.1">
<g id="surface1">
<path style=" stroke:none;fill-rule:evenodd;fill:rgb(84.705882%,14.901961%,0%);fill-opacity:1;" d="M 4.097656 9.527344 L 7.503906 12.859375 L 7.398438 8.1875 L 4.097656 8.167969 Z M 4.097656 9.527344 "/>
<path style="fill-rule:evenodd;fill:rgb(94.901961%,94.901961%,94.901961%);fill-opacity:1;stroke-width:5.03546;stroke-linecap:butt;stroke-linejoin:miter;stroke:rgb(68.627451%,68.627451%,68.627451%);stroke-opacity:1;stroke-miterlimit:4;" d="M 98.022461 1024.835324 L 434.936523 1023.675656 L 436.096191 659.784055 L 348.083496 570.550656 L 98.022461 570.550656 Z M 98.022461 1024.835324 " transform="matrix(0.064,0,0,0.064,0,-35.35118)"/>
<path style="fill-rule:evenodd;fill:rgb(68.627451%,68.627451%,68.627451%);fill-opacity:1;stroke-width:5.03546;stroke-linecap:butt;stroke-linejoin:miter;stroke:rgb(68.627451%,68.627451%,68.627451%);stroke-opacity:1;stroke-miterlimit:4;" d="M 432.556152 657.953 L 350.341797 657.342648 L 351.135254 573.541379 Z M 432.556152 657.953 " transform="matrix(0.064,0,0,0.064,0,-35.35118)"/>
<path style=" stroke:none;fill-rule:nonzero;fill:rgb(94.117647%,22.352941%,8.627451%);fill-opacity:1;" d="M 4.105469 4.148438 L 18.5 4.148438 L 18.5 9.546875 L 4.105469 9.546875 Z M 4.105469 4.148438 "/>
<path style=" stroke:none;fill-rule:nonzero;fill:rgb(94.117647%,22.352941%,8.627451%);fill-opacity:1;" d="M 17.019531 14.054688 C 21.4375 14.054688 25.019531 17.636719 25.019531 22.054688 C 25.019531 26.472656 21.4375 30.054688 17.019531 30.054688 C 12.601562 30.054688 9.019531 26.472656 9.019531 22.054688 C 9.019531 17.636719 12.601562 14.054688 17.019531 14.054688 Z M 17.019531 14.054688 "/>
<path style=" stroke:none;fill-rule:nonzero;fill:rgb(100%,100%,100%);fill-opacity:1;" d="M 19.898438 18.457031 L 19.898438 19.90625 C 18.453125 19.929688 18.097656 21.339844 18.097656 21.339844 L 19.1875 21.339844 L 19.1875 22.789062 L 17.496094 22.789062 C 16.480469 25.929688 14.140625 25.648438 14.140625 25.648438 L 14.140625 24.199219 C 14.140625 24.199219 15.625 24.472656 16.382812 21.710938 C 17.328125 18.25 19.898438 18.457031 19.898438 18.457031 Z M 19.898438 18.457031 "/>
<path style="fill:none;stroke-width:9;stroke-linecap:butt;stroke-linejoin:miter;stroke:rgb(100%,100%,100%);stroke-opacity:1;stroke-miterlimit:4;" d="M 233.388613 692.507453 L 233.815859 640.810676 L 268.239688 640.932746 " transform="matrix(0.064,0,0,0.064,0.203754,-35.832196)"/>
<path style="fill:none;stroke-width:9;stroke-linecap:butt;stroke-linejoin:miter;stroke:rgb(100%,100%,100%);stroke-opacity:1;stroke-miterlimit:4;" d="M 236.135195 664.553352 L 265.248965 664.736457 " transform="matrix(0.064,0,0,0.064,0.203754,-35.832196)"/>
<path style="fill:none;stroke-width:10;stroke-linecap:butt;stroke-linejoin:miter;stroke:rgb(100%,100%,100%);stroke-opacity:1;stroke-miterlimit:4;" d="M 147.888184 634.759641 C 147.888184 634.759641 138.671875 630.48718 129.882812 630.426145 C 121.032715 630.304074 115.600586 635.614133 115.29541 643.243527 C 114.990234 650.811887 119.20166 656.915402 134.338379 658.685422 C 149.536133 660.455441 148.620605 673.70007 146.728516 678.338742 C 144.897461 682.977414 136.047363 687.43298 127.075195 686.212277 C 118.103027 684.991574 110.656738 680.963254 110.656738 680.963254 " transform="matrix(0.064,0,0,0.064,0,-35.35118)"/>
<path style="fill:none;stroke-width:9;stroke-linecap:butt;stroke-linejoin:miter;stroke:rgb(100%,100%,100%);stroke-opacity:1;stroke-miterlimit:4;" d="M 160.644531 628.167844 L 168.762207 684.381223 L 173.76709 684.625363 L 189.697266 643.304562 L 193.054199 643.304562 L 208.984375 684.625363 L 214.233398 684.686398 L 221.679688 628.411984 " transform="matrix(0.064,0,0,0.064,0,-35.35118)"/>
</g>
</svg>
