<?xml version="1.0" encoding="UTF-8"?>
<svg xmlns="http://www.w3.org/2000/svg" xmlns:xlink="http://www.w3.org/1999/xlink" width="32" height="32" viewBox="0 0 32 32" version="1.1">
<g id="surface1">
<path style=" stroke:none;fill-rule:evenodd;fill:rgb(10.196078%,10.196078%,10.196078%);fill-opacity:1;" d="M 4.035156 9.847656 L 7.441406 13.179688 L 7.335938 8.503906 L 4.03125 8.488281 Z M 4.035156 9.847656 "/>
<path style="fill-rule:evenodd;fill:rgb(94.901961%,94.901961%,94.901961%);fill-opacity:1;stroke-width:5.03546;stroke-linecap:butt;stroke-linejoin:miter;stroke:rgb(68.627451%,68.627451%,68.627451%);stroke-opacity:1;stroke-miterlimit:4;" d="M 97.045898 1029.840207 L 433.898926 1028.680539 L 435.119629 664.788937 L 347.045898 575.555539 L 97.045898 575.555539 Z M 97.045898 1029.840207 " transform="matrix(0.064,0,0,0.064,0,-35.35118)"/>
<path style="fill-rule:evenodd;fill:rgb(68.627451%,68.627451%,68.627451%);fill-opacity:1;stroke-width:5.03546;stroke-linecap:butt;stroke-linejoin:miter;stroke:rgb(68.627451%,68.627451%,68.627451%);stroke-opacity:1;stroke-miterlimit:4;" d="M 431.518555 662.896848 L 349.365234 662.347531 L 350.097656 578.546262 Z M 431.518555 662.896848 " transform="matrix(0.064,0,0,0.064,0,-35.35118)"/>
<path style=" stroke:none;fill-rule:nonzero;fill:rgb(20%,20%,20%);fill-opacity:1;" d="M 4.039062 4.46875 L 18.4375 4.46875 L 18.4375 9.867188 L 4.039062 9.867188 Z M 4.039062 4.46875 "/>
<path style=" stroke:none;fill-rule:evenodd;fill:rgb(20%,20%,20%);fill-opacity:1;" d="M 13.363281 15.554688 L 13.363281 26.21875 C 12.914062 25.796875 12.320312 25.527344 11.699219 25.527344 C 10.394531 25.527344 9.207031 26.714844 9.207031 28.019531 C 9.207031 29.324219 10.394531 30.511719 11.699219 30.511719 C 13.007812 30.511719 14.195312 29.324219 14.195312 28.019531 L 14.195312 15.554688 Z M 13.363281 15.554688 "/>
<path style=" stroke:none;fill-rule:evenodd;fill:rgb(20%,20%,20%);fill-opacity:1;" d="M 21.578125 14.597656 L 21.578125 25.265625 C 21.125 24.84375 20.535156 24.570312 19.914062 24.570312 C 18.609375 24.570312 17.421875 25.757812 17.421875 27.0625 C 17.421875 28.371094 18.609375 29.558594 19.914062 29.558594 C 21.21875 29.558594 22.410156 28.371094 22.410156 27.0625 L 22.410156 14.597656 Z M 21.578125 14.597656 "/>
<path style=" stroke:none;fill-rule:nonzero;fill:rgb(20%,20%,20%);fill-opacity:1;" d="M 13.394531 15.566406 L 22.292969 14.511719 L 22.40625 15.46875 L 13.507812 16.523438 Z M 13.394531 15.566406 "/>
<path style="fill:none;stroke-width:9;stroke-linecap:butt;stroke-linejoin:bevel;stroke:rgb(100%,100%,100%);stroke-opacity:1;stroke-miterlimit:4;" d="M 915.720619 696.29573 L 937.84153 637.993491 L 960.568495 696.29573 " transform="matrix(0.064454,0,0,0.064454,-47.990607,-35.879045)"/>
<path style="fill:none;stroke-width:9;stroke-linecap:butt;stroke-linejoin:miter;stroke:rgb(100%,100%,100%);stroke-opacity:1;stroke-miterlimit:4;" d="M 924.568983 676.780844 L 950.386815 676.780844 " transform="matrix(0.064454,0,0,0.064454,-47.990607,-35.879045)"/>
<path style="fill:none;stroke-width:9;stroke-linecap:butt;stroke-linejoin:bevel;stroke:rgb(100%,100%,100%);stroke-opacity:1;stroke-miterlimit:4;" d="M 216.674805 634.332395 L 243.530273 690.667844 L 269.592285 634.63757 " transform="matrix(0.064,0,0,0.064,0,-35.35118)"/>
<path style="fill:none;stroke-width:9;stroke-linecap:butt;stroke-linejoin:miter;stroke:rgb(100%,100%,100%);stroke-opacity:1;stroke-miterlimit:4;" d="M 101.379395 629.876828 L 109.49707 686.029172 L 114.501953 686.273312 L 130.371094 644.952512 L 133.728027 644.952512 L 149.719238 686.273312 L 154.907227 686.334348 L 162.353516 630.120969 " transform="matrix(0.064,0,0,0.064,0,-35.35118)"/>
</g>
</svg>
