<?xml version="1.0" encoding="UTF-8"?>
<svg xmlns="http://www.w3.org/2000/svg" xmlns:xlink="http://www.w3.org/1999/xlink" width="32" height="32" viewBox="0 0 32 32" version="1.1">
<g id="surface1">
<path style=" stroke:none;fill-rule:evenodd;fill:rgb(10.196078%,10.196078%,10.196078%);fill-opacity:1;" d="M 4.035156 9.847656 L 7.441406 13.179688 L 7.335938 8.503906 L 4.03125 8.488281 Z M 4.035156 9.847656 "/>
<path style="fill-rule:evenodd;fill:rgb(94.901961%,94.901961%,94.901961%);fill-opacity:1;stroke-width:5.03546;stroke-linecap:butt;stroke-linejoin:miter;stroke:rgb(68.627451%,68.627451%,68.627451%);stroke-opacity:1;stroke-miterlimit:4;" d="M 97.045898 1029.840207 L 433.898926 1028.680539 L 435.119629 664.788937 L 347.045898 575.555539 L 97.045898 575.555539 Z M 97.045898 1029.840207 " transform="matrix(0.064,0,0,0.064,0,-35.35118)"/>
<path style="fill-rule:evenodd;fill:rgb(68.627451%,68.627451%,68.627451%);fill-opacity:1;stroke-width:5.03546;stroke-linecap:butt;stroke-linejoin:miter;stroke:rgb(68.627451%,68.627451%,68.627451%);stroke-opacity:1;stroke-miterlimit:4;" d="M 431.518555 662.896848 L 349.365234 662.347531 L 350.097656 578.546262 Z M 431.518555 662.896848 " transform="matrix(0.064,0,0,0.064,0,-35.35118)"/>
<path style=" stroke:none;fill-rule:nonzero;fill:rgb(20%,20%,20%);fill-opacity:1;" d="M 4.039062 4.46875 L 18.4375 4.46875 L 18.4375 9.867188 L 4.039062 9.867188 Z M 4.039062 4.46875 "/>
<path style=" stroke:none;fill-rule:evenodd;fill:rgb(20%,20%,20%);fill-opacity:1;" d="M 13.363281 15.554688 L 13.363281 26.21875 C 12.914062 25.796875 12.320312 25.527344 11.699219 25.527344 C 10.394531 25.527344 9.207031 26.714844 9.207031 28.019531 C 9.207031 29.324219 10.394531 30.511719 11.699219 30.511719 C 13.007812 30.511719 14.195312 29.324219 14.195312 28.019531 L 14.195312 15.554688 Z M 13.363281 15.554688 "/>
<path style=" stroke:none;fill-rule:evenodd;fill:rgb(20%,20%,20%);fill-opacity:1;" d="M 21.578125 14.597656 L 21.578125 25.265625 C 21.125 24.84375 20.535156 24.570312 19.914062 24.570312 C 18.609375 24.570312 17.421875 25.757812 17.421875 27.0625 C 17.421875 28.371094 18.609375 29.558594 19.914062 29.558594 C 21.21875 29.558594 22.410156 28.371094 22.410156 27.0625 L 22.410156 14.597656 Z M 21.578125 14.597656 "/>
<path style=" stroke:none;fill-rule:nonzero;fill:rgb(20%,20%,20%);fill-opacity:1;" d="M 13.394531 15.566406 L 22.292969 14.511719 L 22.40625 15.46875 L 13.507812 16.523438 Z M 13.394531 15.566406 "/>
<path style="fill:none;stroke-width:9;stroke-linecap:butt;stroke-linejoin:miter;stroke:rgb(100%,100%,100%);stroke-opacity:1;stroke-miterlimit:4;" d="M 122.192383 694.635129 L 122.436523 640.069699 L 127.502441 639.825559 L 143.371582 681.146359 L 146.728516 681.146359 L 162.719727 639.825559 L 167.907715 639.764523 L 167.907715 694.818234 " transform="matrix(0.064,0,0,0.064,0,-35.35118)"/>
<path style="fill:none;stroke-width:8.069904;stroke-linecap:butt;stroke-linejoin:miter;stroke:rgb(100%,100%,100%);stroke-opacity:1;stroke-miterlimit:4;" d="M 186.584473 652.765012 C 186.584473 652.765012 189.453125 638.238645 202.392578 637.933469 C 214.233398 637.689328 219.177246 644.891477 218.811035 651.361203 C 218.017578 663.62927 201.965332 664.544797 201.965332 664.544797 C 201.965332 664.544797 218.566895 667.169309 218.566895 676.446652 C 218.62793 685.662961 215.515137 692.071652 201.35498 692.071652 C 187.194824 692.071652 186.828613 676.385617 186.828613 676.385617 " transform="matrix(0.064,0,0,0.064,0,-35.35118)"/>
<path style="fill:none;stroke-width:9;stroke-linecap:butt;stroke-linejoin:miter;stroke:rgb(100%,100%,100%);stroke-opacity:1;stroke-miterlimit:4;" d="M 234.008789 636.52966 L 234.008789 675.042844 C 234.008789 675.042844 233.459473 692.498898 253.173828 692.559934 C 272.949219 692.682004 271.728516 675.71423 271.728516 675.71423 L 271.30127 636.52966 " transform="matrix(0.064,0,0,0.064,0,-35.35118)"/>
</g>
</svg>
