<?xml version="1.0" encoding="UTF-8"?>
<svg xmlns="http://www.w3.org/2000/svg" xmlns:xlink="http://www.w3.org/1999/xlink" width="32" height="32" viewBox="0 0 32 32" version="1.1">
<g id="surface1">
<path style=" stroke:none;fill-rule:evenodd;fill:rgb(50.196078%,50.196078%,50.196078%);fill-opacity:1;" d="M 4.035156 9.847656 L 7.441406 13.179688 L 7.335938 8.503906 L 4.03125 8.488281 Z M 4.035156 9.847656 "/>
<path style="fill-rule:evenodd;fill:rgb(94.901961%,94.901961%,94.901961%);fill-opacity:1;stroke-width:5.03546;stroke-linecap:butt;stroke-linejoin:miter;stroke:rgb(68.627451%,68.627451%,68.627451%);stroke-opacity:1;stroke-miterlimit:4;" d="M 97.045898 1029.840207 L 433.898926 1028.680539 L 435.119629 664.788937 L 347.045898 575.555539 L 97.045898 575.555539 Z M 97.045898 1029.840207 " transform="matrix(0.064,0,0,0.064,0,-35.35118)"/>
<path style="fill-rule:evenodd;fill:rgb(68.627451%,68.627451%,68.627451%);fill-opacity:1;stroke-width:5.03546;stroke-linecap:butt;stroke-linejoin:miter;stroke:rgb(68.627451%,68.627451%,68.627451%);stroke-opacity:1;stroke-miterlimit:4;" d="M 431.518555 662.896848 L 349.365234 662.347531 L 350.097656 578.546262 Z M 431.518555 662.896848 " transform="matrix(0.064,0,0,0.064,0,-35.35118)"/>
<path style=" stroke:none;fill-rule:nonzero;fill:rgb(60%,60%,60%);fill-opacity:1;" d="M 4.039062 4.46875 L 18.4375 4.46875 L 18.4375 9.867188 L 4.039062 9.867188 Z M 4.039062 4.46875 "/>
<path style=" stroke:none;fill-rule:nonzero;fill:rgb(80%,80%,80%);fill-opacity:1;" d="M 10.582031 14.207031 L 22.71875 14.207031 C 23.785156 14.207031 24.648438 15.265625 24.648438 16.570312 L 24.648438 27.84375 C 24.648438 29.148438 23.785156 30.207031 22.71875 30.207031 L 10.582031 30.207031 C 9.515625 30.207031 8.648438 29.148438 8.648438 27.84375 L 8.648438 16.570312 C 8.648438 15.265625 9.515625 14.207031 10.582031 14.207031 Z M 10.582031 14.207031 "/>
<path style=" stroke:none;fill-rule:nonzero;fill:rgb(70.196078%,70.196078%,70.196078%);fill-opacity:1;" d="M 11.882812 16.03125 L 21.324219 16.03125 C 22.152344 16.03125 22.824219 16.855469 22.824219 17.867188 L 22.824219 26.636719 C 22.824219 27.652344 22.152344 28.476562 21.324219 28.476562 L 11.882812 28.476562 C 11.054688 28.476562 10.382812 27.652344 10.382812 26.636719 L 10.382812 17.867188 C 10.382812 16.855469 11.054688 16.03125 11.882812 16.03125 Z M 11.882812 16.03125 "/>
<path style=" stroke:none;fill-rule:nonzero;fill:rgb(22.352941%,25.098039%,31.372549%);fill-opacity:1;" d="M 17.421875 25.132812 L 14.96875 19.164062 L 14.292969 19.164062 L 11.824219 25.132812 L 12.667969 25.132812 L 13.433594 23.171875 L 15.789062 23.171875 L 16.570312 25.132812 Z M 15.492188 22.503906 L 13.71875 22.503906 L 14.632812 20.058594 Z M 15.492188 22.503906 "/>
<path style=" stroke:none;fill-rule:nonzero;fill:rgb(22.352941%,25.098039%,31.372549%);fill-opacity:1;" d="M 19.210938 25.246094 C 19.734375 25.246094 20.210938 25.058594 20.628906 24.699219 L 20.753906 25.246094 L 21.476562 25.09375 C 21.363281 24.679688 21.304688 24.320312 21.304688 24.007812 L 21.304688 22.613281 C 21.304688 21.414062 20.730469 20.816406 19.554688 20.816406 C 19.054688 20.816406 18.523438 20.898438 17.960938 21.0625 L 18.042969 21.757812 C 18.578125 21.554688 19.070312 21.453125 19.515625 21.453125 C 20.113281 21.453125 20.449219 21.765625 20.53125 22.382812 C 18.660156 22.40625 17.722656 22.941406 17.722656 23.984375 C 17.722656 24.773438 18.390625 25.246094 19.210938 25.246094 Z M 20.53125 23.804688 C 20.53125 24.253906 19.753906 24.566406 19.242188 24.566406 C 18.757812 24.566406 18.511719 24.34375 18.511719 23.910156 C 18.511719 23.367188 19.195312 23.082031 20.53125 23.054688 Z M 20.53125 23.804688 "/>
</g>
</svg>
