<?xml version="1.0" encoding="UTF-8"?>
<svg xmlns="http://www.w3.org/2000/svg" xmlns:xlink="http://www.w3.org/1999/xlink" width="32" height="32" viewBox="0 0 32 32" version="1.1">
<g id="surface1">
<path style=" stroke:none;fill-rule:evenodd;fill:rgb(50.196078%,20%,0%);fill-opacity:1;" d="M 4.035156 9.527344 L 7.441406 12.859375 L 7.335938 8.1875 L 4.03125 8.167969 Z M 4.035156 9.527344 "/>
<path style="fill-rule:evenodd;fill:rgb(94.901961%,94.901961%,94.901961%);fill-opacity:1;stroke-width:5.03546;stroke-linecap:butt;stroke-linejoin:miter;stroke:rgb(68.627451%,68.627451%,68.627451%);stroke-opacity:1;stroke-miterlimit:4;" d="M 97.045898 1024.835324 L 433.898926 1023.675656 L 435.119629 659.784055 L 347.045898 570.550656 L 97.045898 570.550656 Z M 97.045898 1024.835324 " transform="matrix(0.064,0,0,0.064,0,-35.35118)"/>
<path style="fill-rule:evenodd;fill:rgb(68.627451%,68.627451%,68.627451%);fill-opacity:1;stroke-width:5.03546;stroke-linecap:butt;stroke-linejoin:miter;stroke:rgb(68.627451%,68.627451%,68.627451%);stroke-opacity:1;stroke-miterlimit:4;" d="M 431.518555 657.953 L 349.365234 657.342648 L 350.097656 573.541379 Z M 431.518555 657.953 " transform="matrix(0.064,0,0,0.064,0,-35.35118)"/>
<path style=" stroke:none;fill-rule:nonzero;fill:rgb(100%,40%,0%);fill-opacity:1;" d="M 4.039062 4.148438 L 18.605469 4.148438 L 18.605469 9.546875 L 4.039062 9.546875 Z M 4.039062 4.148438 "/>
<path style="fill-rule:nonzero;fill:rgb(0%,73.333333%,94.901961%);fill-opacity:1;stroke-width:6.833039;stroke-linecap:round;stroke-linejoin:round;stroke:rgb(100%,100%,100%);stroke-opacity:1;stroke-miterlimit:4;" d="M 141.293962 807.745106 L 352.739232 807.708392 L 352.765923 983.444754 L 141.26044 983.41962 Z M 141.293962 807.745106 " transform="matrix(0.0639943,-0.000857169,0.000857169,0.0639943,0,-35.35118)"/>
<path style="fill-rule:nonzero;fill:rgb(100%,40%,0%);fill-opacity:1;stroke-width:6.833039;stroke-linecap:round;stroke-linejoin:round;stroke:rgb(100%,100%,100%);stroke-opacity:1;stroke-miterlimit:4;" d="M -269.568239 827.292964 L -58.048431 827.281835 L -58.039908 1002.98876 L -269.559716 1002.999889 Z M -269.568239 827.292964 " transform="matrix(0.0570478,-0.0290095,0.0290095,0.0570478,0,-35.35118)"/>
<path style=" stroke:none;fill-rule:nonzero;fill:rgb(98.039216%,92.54902%,42.745098%);fill-opacity:1;" d="M 13.914062 20.648438 C 14.253906 21.316406 13.976562 22.136719 13.296875 22.480469 C 12.621094 22.828125 11.796875 22.570312 11.457031 21.902344 C 11.113281 21.238281 11.386719 20.417969 12.066406 20.070312 C 12.742188 19.722656 13.570312 19.980469 13.910156 20.644531 "/>
<path style="fill-rule:nonzero;fill:rgb(50.196078%,20%,0%);fill-opacity:1;stroke-width:0.28471;stroke-linecap:butt;stroke-linejoin:miter;stroke:rgb(0%,0%,0%);stroke-opacity:1;stroke-miterlimit:4;" d="M 186.462402 953.790402 L 215.637207 1011.834836 L 398.55957 918.512082 L 373.657227 870.843625 C 373.657227 870.843625 352.539062 893.243527 328.735352 901.727414 C 304.931641 910.272336 256.286621 898.980832 231.933594 910.028195 C 207.580566 921.014523 186.462402 953.790402 186.462402 953.790402 Z M 186.462402 953.790402 " transform="matrix(0.064,0,0,0.064,0,-35.35118)"/>
<path style="fill:none;stroke-width:9;stroke-linecap:butt;stroke-linejoin:miter;stroke:rgb(100%,100%,100%);stroke-opacity:1;stroke-miterlimit:4;" d="M 163.330078 637.140012 C 163.330078 637.140012 155.700684 630.365109 141.784668 631.402707 C 127.929688 632.50134 120.056152 648.37048 120.788574 660.333371 C 121.520996 672.357297 132.019043 686.639523 145.629883 685.41882 C 159.179688 684.259152 163.330078 679.437375 163.330078 679.437375 " transform="matrix(0.064,0,0,0.064,0,-35.35118)"/>
<path style="fill:none;stroke-width:9;stroke-linecap:butt;stroke-linejoin:miter;stroke:rgb(100%,100%,100%);stroke-opacity:1;stroke-miterlimit:4;" d="M 178.100586 631.341672 L 178.100586 669.854855 C 178.100586 669.854855 177.55127 687.31091 197.265625 687.43298 C 217.041016 687.494016 215.820312 670.526242 215.820312 670.526242 L 215.393066 631.341672 " transform="matrix(0.064,0,0,0.064,0,-35.35118)"/>
<path style="fill:none;stroke-width:9.063828;stroke-linecap:butt;stroke-linejoin:miter;stroke:rgb(100%,100%,100%);stroke-opacity:1;stroke-miterlimit:4;" d="M 384.488902 735.933777 L 384.488902 679.476258 C 384.488902 679.476258 415.250621 673.494812 415.128551 693.81952 C 415.067516 714.083191 385.038219 708.528992 385.038219 708.528992 " transform="matrix(0.064,0,0,0.064,-9.681508,-38.220855)"/>
<path style="fill:none;stroke-width:9;stroke-linecap:butt;stroke-linejoin:miter;stroke:rgb(100%,100%,100%);stroke-opacity:1;stroke-miterlimit:4;" d="M 392.484508 710.482117 L 418.424449 734.89618 " transform="matrix(0.064,0,0,0.064,-9.681508,-38.220855)"/>
</g>
</svg>
