<?xml version="1.0" encoding="UTF-8"?>
<svg xmlns="http://www.w3.org/2000/svg" xmlns:xlink="http://www.w3.org/1999/xlink" width="32" height="32" viewBox="0 0 32 32" version="1.1">
<g id="surface1">
<path style=" stroke:none;fill-rule:evenodd;fill:rgb(0%,56.078431%,81.176471%);fill-opacity:1;" d="M 4.035156 9.847656 L 7.441406 13.179688 L 7.335938 8.503906 L 4.03125 8.488281 Z M 4.035156 9.847656 "/>
<path style="fill-rule:evenodd;fill:rgb(94.901961%,94.901961%,94.901961%);fill-opacity:1;stroke-width:5.03546;stroke-linecap:butt;stroke-linejoin:miter;stroke:rgb(68.627451%,68.627451%,68.627451%);stroke-opacity:1;stroke-miterlimit:4;" d="M 97.045898 1029.840207 L 433.898926 1028.680539 L 435.119629 664.788937 L 347.045898 575.555539 L 97.045898 575.555539 Z M 97.045898 1029.840207 " transform="matrix(0.064,0,0,0.064,0,-35.35118)"/>
<path style="fill-rule:evenodd;fill:rgb(68.627451%,68.627451%,68.627451%);fill-opacity:1;stroke-width:5.03546;stroke-linecap:butt;stroke-linejoin:miter;stroke:rgb(68.627451%,68.627451%,68.627451%);stroke-opacity:1;stroke-miterlimit:4;" d="M 431.518555 662.896848 L 349.365234 662.347531 L 350.097656 578.546262 Z M 431.518555 662.896848 " transform="matrix(0.064,0,0,0.064,0,-35.35118)"/>
<path style=" stroke:none;fill-rule:nonzero;fill:rgb(0%,73.333333%,94.901961%);fill-opacity:1;" d="M 4.039062 4.46875 L 21.679688 4.46875 L 21.679688 9.867188 L 4.039062 9.867188 Z M 4.039062 4.46875 "/>
<path style=" stroke:none;fill-rule:nonzero;fill:rgb(0%,73.333333%,94.901961%);fill-opacity:1;" d="M 20.121094 23.632812 C 21.605469 21.984375 22.652344 20.777344 22.621094 20.75 C 22.597656 20.722656 21.960938 20.695312 21.210938 20.6875 L 19.847656 20.671875 L 19.792969 14.765625 L 15.171875 14.765625 L 15.140625 17.71875 L 15.113281 20.671875 L 13.722656 20.699219 C 12.820312 20.714844 12.328125 20.746094 12.328125 20.785156 C 12.328125 20.898438 17.398438 26.488281 17.484375 26.476562 C 17.535156 26.46875 18.722656 25.1875 20.121094 23.632812 Z M 20.121094 23.632812 "/>
<path style=" stroke:none;fill-rule:nonzero;fill:rgb(0%,73.333333%,94.901961%);fill-opacity:1;" d="M 9.386719 24.460938 L 12.148438 24.460938 L 12.148438 27.21875 L 22.628906 27.21875 L 22.628906 24.460938 L 25.386719 24.460938 L 25.386719 29.976562 L 9.386719 29.976562 Z M 9.386719 24.460938 "/>
<path style="fill:none;stroke-width:9;stroke-linecap:butt;stroke-linejoin:miter;stroke:rgb(100%,100%,100%);stroke-opacity:1;stroke-miterlimit:4;" d="M 133.327458 354.136619 L 133.257419 304.688643 " transform="matrix(0.055772,0,0,0.055772,-2.252345,-10.864189)"/>
<path style=" stroke:none;fill-rule:nonzero;fill:rgb(100%,100%,100%);fill-opacity:1;" d="M 4.945312 5.414062 L 5.4375 5.414062 L 5.4375 5.898438 L 4.945312 5.898438 Z M 4.945312 5.414062 "/>
<path style="fill:none;stroke-width:7.842927;stroke-linecap:butt;stroke-linejoin:bevel;stroke:rgb(100%,100%,100%);stroke-opacity:1;stroke-miterlimit:4;" d="M 93.322754 691.034055 L 93.139648 637.872434 L 129.821777 690.301633 L 129.821777 637.140012 " transform="matrix(0.064,0,0,0.064,0,-35.35118)"/>
<path style="fill:none;stroke-width:8.714363;stroke-linecap:butt;stroke-linejoin:miter;stroke:rgb(100%,100%,100%);stroke-opacity:1;stroke-miterlimit:4;" d="M 171.813965 645.562863 C 171.813965 645.562863 163.757324 641.839719 156.066895 641.717648 C 148.376465 641.656613 143.615723 646.295285 143.371582 652.948117 C 143.127441 659.539914 146.789551 664.788937 159.973145 666.375852 C 173.217773 667.90173 172.424316 679.437375 170.837402 683.52673 C 169.189453 687.555051 161.499023 691.400266 153.686523 690.362668 C 145.874023 689.32507 139.282227 685.785031 139.282227 685.785031 " transform="matrix(0.064,0,0,0.064,0,-35.35118)"/>
<path style="fill:none;stroke-width:9;stroke-linecap:butt;stroke-linejoin:miter;stroke:rgb(100%,100%,100%);stroke-opacity:1;stroke-miterlimit:4;" d="M 122.83385 699.629783 L 122.83385 642.337369 " transform="matrix(0.055772,0,0,0.055772,5.973529,-30.062721)"/>
<path style="fill:none;stroke-width:8.670217;stroke-linecap:butt;stroke-linejoin:miter;stroke:rgb(100%,100%,100%);stroke-opacity:1;stroke-miterlimit:4;" d="M 96.218793 642.757607 L 149.378868 642.757607 " transform="matrix(0.055772,0,0,0.055772,5.973529,-30.062721)"/>
<path style="fill:none;stroke-width:9;stroke-linecap:butt;stroke-linejoin:bevel;stroke:rgb(100%,100%,100%);stroke-opacity:1;stroke-miterlimit:4;" d="M 915.662505 696.293929 L 937.847821 638.014007 L 960.589509 696.293929 " transform="matrix(0.0561675,0,0,0.0561675,-37.49688,-30.222371)"/>
<path style="fill:none;stroke-width:9;stroke-linecap:butt;stroke-linejoin:miter;stroke:rgb(100%,100%,100%);stroke-opacity:1;stroke-miterlimit:4;" d="M 924.56445 676.751378 L 950.366182 676.751378 " transform="matrix(0.0561675,0,0,0.0561675,-37.49688,-30.222371)"/>
<path style="fill:none;stroke-width:7.842927;stroke-linecap:butt;stroke-linejoin:miter;stroke:rgb(100%,100%,100%);stroke-opacity:1;stroke-miterlimit:4;" d="M 267.51709 639.825559 L 267.822266 687.31091 L 295.471191 687.555051 " transform="matrix(0.064,0,0,0.064,0,-35.35118)"/>
<path style="fill:none;stroke-width:7.842927;stroke-linecap:butt;stroke-linejoin:miter;stroke:rgb(100%,100%,100%);stroke-opacity:1;stroke-miterlimit:4;" d="M 302.612305 640.863156 L 302.856445 688.287473 L 330.505371 688.592648 " transform="matrix(0.064,0,0,0.064,0,-35.35118)"/>
</g>
</svg>
