<?xml version="1.0" encoding="UTF-8"?>
<svg xmlns="http://www.w3.org/2000/svg" xmlns:xlink="http://www.w3.org/1999/xlink" width="32" height="32" viewBox="0 0 32 32" version="1.1">
<g id="surface1">
<path style=" stroke:none;fill-rule:evenodd;fill:rgb(20%,20%,20%);fill-opacity:1;" d="M 4.035156 9.847656 L 7.441406 13.179688 L 7.335938 8.503906 L 4.03125 8.488281 Z M 4.035156 9.847656 "/>
<path style="fill-rule:evenodd;fill:rgb(94.901961%,94.901961%,94.901961%);fill-opacity:1;stroke-width:5.03546;stroke-linecap:butt;stroke-linejoin:miter;stroke:rgb(68.627451%,68.627451%,68.627451%);stroke-opacity:1;stroke-miterlimit:4;" d="M 97.045898 1029.840207 L 433.898926 1028.680539 L 435.119629 664.788937 L 347.045898 575.555539 L 97.045898 575.555539 Z M 97.045898 1029.840207 " transform="matrix(0.064,0,0,0.064,0,-35.35118)"/>
<path style="fill-rule:evenodd;fill:rgb(68.627451%,68.627451%,68.627451%);fill-opacity:1;stroke-width:5.03546;stroke-linecap:butt;stroke-linejoin:miter;stroke:rgb(68.627451%,68.627451%,68.627451%);stroke-opacity:1;stroke-miterlimit:4;" d="M 431.518555 662.896848 L 349.365234 662.347531 L 350.097656 578.546262 Z M 431.518555 662.896848 " transform="matrix(0.064,0,0,0.064,0,-35.35118)"/>
<path style=" stroke:none;fill-rule:nonzero;fill:rgb(30.196078%,30.196078%,30.196078%);fill-opacity:1;" d="M 4.039062 4.46875 L 16.886719 4.46875 L 16.886719 9.867188 L 4.039062 9.867188 Z M 4.039062 4.46875 "/>
<path style=" stroke:none;fill-rule:nonzero;fill:rgb(40%,40%,40%);fill-opacity:1;" d="M 7.417969 21.035156 L 26.445312 21.035156 L 26.445312 21.8125 L 7.417969 21.8125 Z M 7.417969 21.035156 "/>
<path style=" stroke:none;fill-rule:nonzero;fill:rgb(40%,40%,40%);fill-opacity:1;" d="M 7.492188 24.398438 L 26.550781 24.398438 L 26.550781 25.179688 L 7.492188 25.179688 Z M 7.492188 24.398438 "/>
<path style=" stroke:none;fill-rule:nonzero;fill:rgb(40%,40%,40%);fill-opacity:1;" d="M 7.492188 27.871094 L 20.539062 27.871094 L 20.539062 28.648438 L 7.492188 28.648438 Z M 7.492188 27.871094 "/>
<path style=" stroke:none;fill-rule:nonzero;fill:rgb(40%,40%,40%);fill-opacity:1;" d="M 7.292969 14.335938 L 26.320312 14.335938 L 26.320312 15.113281 L 7.292969 15.113281 Z M 7.292969 14.335938 "/>
<path style=" stroke:none;fill-rule:nonzero;fill:rgb(40%,40%,40%);fill-opacity:1;" d="M 7.367188 17.703125 L 26.425781 17.703125 L 26.425781 18.480469 L 7.367188 18.480469 Z M 7.367188 17.703125 "/>
<path style="fill:none;stroke-width:9;stroke-linecap:butt;stroke-linejoin:miter;stroke:rgb(100%,100%,100%);stroke-opacity:1;stroke-miterlimit:4;" d="M 108.581543 632.257199 L 108.886719 686.761594 L 140.625 687.06677 " transform="matrix(0.064,0,0,0.064,0,-35.35118)"/>
<path style="fill:none;stroke-width:9;stroke-linecap:butt;stroke-linejoin:miter;stroke:rgb(100%,100%,100%);stroke-opacity:1;stroke-miterlimit:4;" d="M 166.564941 686.944699 C 154.541016 686.822629 143.188477 674.737668 143.127441 659.417844 C 143.066406 644.159055 155.151367 631.890988 167.297363 632.196164 C 179.443359 632.562375 190.002441 644.09802 190.185547 660.394406 C 190.429688 676.690793 178.588867 687.06677 166.564941 686.944699 Z M 166.564941 686.944699 " transform="matrix(0.064,0,0,0.064,0,-35.35118)"/>
<path style="fill:none;stroke-width:9;stroke-linecap:butt;stroke-linejoin:miter;stroke:rgb(100%,100%,100%);stroke-opacity:1;stroke-miterlimit:4;" d="M 250.671387 642.20593 C 250.671387 642.20593 243.408203 634.576535 227.905273 634.63757 C 212.463379 634.759641 204.345703 650.567746 204.589844 662.896848 C 204.89502 675.286984 215.576172 688.409543 227.844238 689.691281 C 240.05127 690.911984 249.206543 684.503293 249.206543 684.503293 L 248.596191 664.361691 L 231.872559 664.605832 " transform="matrix(0.064,0,0,0.064,0,-35.35118)"/>
</g>
</svg>
