<?xml version="1.0" encoding="UTF-8"?>
<svg xmlns="http://www.w3.org/2000/svg" xmlns:xlink="http://www.w3.org/1999/xlink" width="32" height="32" viewBox="0 0 32 32" version="1.1">
<g id="surface1">
<path style=" stroke:none;fill-rule:evenodd;fill:rgb(0%,52.941176%,73.72549%);fill-opacity:1;" d="M 4.042969 9.882812 L 7.449219 13.21875 L 7.34375 8.542969 L 4.042969 8.527344 Z M 4.042969 9.882812 "/>
<path style="fill-rule:evenodd;fill:rgb(94.901961%,94.901961%,94.901961%);fill-opacity:1;stroke-width:5.03546;stroke-linecap:butt;stroke-linejoin:miter;stroke:rgb(68.627451%,68.627451%,68.627451%);stroke-opacity:1;stroke-miterlimit:4;" d="M 96.923828 1029.840207 L 433.776855 1028.680539 L 434.936523 664.788937 L 346.923828 575.555539 L 96.923828 575.555539 Z M 96.923828 1029.840207 " transform="matrix(0.064,0,0,0.064,0,-35.35118)"/>
<path style="fill-rule:evenodd;fill:rgb(68.627451%,68.627451%,68.627451%);fill-opacity:1;stroke-width:5.03546;stroke-linecap:butt;stroke-linejoin:miter;stroke:rgb(68.627451%,68.627451%,68.627451%);stroke-opacity:1;stroke-miterlimit:4;" d="M 431.396484 662.896848 L 349.182129 662.347531 L 349.975586 578.546262 Z M 431.396484 662.896848 " transform="matrix(0.064,0,0,0.064,0,-35.35118)"/>
<path style=" stroke:none;fill-rule:nonzero;fill:rgb(0%,73.333333%,94.901961%);fill-opacity:1;" d="M 4.03125 4.46875 L 18.183594 4.46875 L 18.183594 9.867188 L 4.03125 9.867188 Z M 4.03125 4.46875 "/>
<path style=" stroke:none;fill-rule:nonzero;fill:rgb(97.647059%,97.647059%,97.647059%);fill-opacity:1;" d="M 15.207031 16.21875 C 15.207031 16.769531 14.757812 17.214844 14.207031 17.214844 C 13.65625 17.214844 13.207031 16.769531 13.207031 16.21875 C 13.207031 15.664062 13.65625 15.21875 14.207031 15.21875 C 14.757812 15.21875 15.207031 15.664062 15.207031 16.21875 M 15.207031 16.21875 "/>
<path style=" stroke:none;fill-rule:nonzero;fill:rgb(0%,73.333333%,94.901961%);fill-opacity:1;" d="M 16.535156 14.226562 C 15.875 14.230469 15.246094 14.289062 14.691406 14.382812 C 13.058594 14.671875 12.761719 15.265625 12.761719 16.367188 L 12.761719 17.824219 L 16.621094 17.824219 L 16.621094 18.308594 L 11.3125 18.308594 C 10.191406 18.308594 9.210938 18.976562 8.902344 20.242188 C 8.550781 21.695312 8.53125 22.605469 8.902344 24.117188 C 9.175781 25.25 9.828125 26.054688 10.953125 26.054688 L 12.085938 26.054688 L 12.085938 24.121094 C 12.085938 22.863281 13.191406 21.761719 14.5 21.761719 L 18.539062 21.761719 C 19.613281 21.761719 20.628906 20.886719 20.628906 19.820312 L 20.628906 16.375 C 20.628906 15.34375 19.589844 14.5625 18.539062 14.390625 C 17.878906 14.28125 17.191406 14.234375 16.53125 14.234375 M 14.449219 15.398438 C 14.847656 15.398438 15.171875 15.726562 15.171875 16.128906 C 15.171875 16.53125 14.847656 16.851562 14.449219 16.851562 C 14.046875 16.851562 13.722656 16.53125 13.722656 16.128906 C 13.722656 15.726562 14.042969 15.398438 14.449219 15.398438 M 14.449219 15.398438 "/>
<path style=" stroke:none;fill-rule:nonzero;fill:rgb(97.647059%,97.647059%,97.647059%);fill-opacity:1;" d="M 19.875 28.214844 C 19.875 28.765625 19.429688 29.214844 18.875 29.214844 C 18.320312 29.214844 17.871094 28.765625 17.871094 28.214844 C 17.871094 27.660156 18.320312 27.214844 18.875 27.214844 C 19.429688 27.214844 19.875 27.660156 19.875 28.214844 M 19.875 28.214844 "/>
<path style=" stroke:none;fill-rule:nonzero;fill:rgb(100%,83.137255%,16.470588%);fill-opacity:1;" d="M 21.175781 18.308594 L 21.175781 20.003906 C 21.175781 21.3125 20.050781 22.265625 18.765625 22.265625 L 14.53125 22.265625 C 13.476562 22.265625 12.601562 23.316406 12.601562 24.359375 L 12.601562 27.996094 C 12.601562 29.027344 13.511719 29.636719 14.53125 29.933594 C 15.753906 30.285156 17.085938 30.355469 18.542969 29.933594 C 19.515625 29.652344 20.472656 29.09375 20.472656 27.996094 L 20.472656 26.539062 L 16.621094 26.539062 L 16.621094 26.054688 L 22.40625 26.054688 C 23.527344 26.054688 23.945312 25.28125 24.335938 24.121094 C 24.738281 22.925781 24.71875 21.773438 24.335938 20.246094 C 24.058594 19.136719 23.527344 18.308594 22.40625 18.308594 M 18.789062 27.511719 C 19.1875 27.511719 19.511719 27.835938 19.511719 28.234375 C 19.511719 28.636719 19.191406 28.96875 18.789062 28.96875 C 18.386719 28.96875 18.0625 28.636719 18.0625 28.234375 C 18.0625 27.835938 18.386719 27.511719 18.789062 27.511719 M 18.789062 27.511719 "/>
<path style="fill:none;stroke-width:9.063828;stroke-linecap:butt;stroke-linejoin:miter;stroke:rgb(100%,100%,100%);stroke-opacity:1;stroke-miterlimit:4;" d="M 162.658691 695.916867 L 162.658691 639.459348 C 162.658691 639.459348 193.481445 633.538937 193.359375 653.802609 C 193.237305 674.066281 163.269043 668.512082 163.269043 668.512082 " transform="matrix(0.064,0,0,0.064,0,-35.35118)"/>
<path style="fill:none;stroke-width:9;stroke-linecap:butt;stroke-linejoin:miter;stroke:rgb(100%,100%,100%);stroke-opacity:1;stroke-miterlimit:4;" d="M 516.212441 313.156148 L 536.659219 342.453023 L 556.373574 313.156148 " transform="matrix(0.064,0,0,0.064,-19.869627,-14.717775)"/>
<path style="fill:none;stroke-width:9;stroke-linecap:butt;stroke-linejoin:miter;stroke:rgb(100%,100%,100%);stroke-opacity:1;stroke-miterlimit:4;" d="M 536.598184 342.453023 L 536.415078 371.261617 " transform="matrix(0.064,0,0,0.064,-19.869627,-14.717775)"/>
</g>
</svg>
