<?xml version="1.0" encoding="UTF-8"?>
<svg xmlns="http://www.w3.org/2000/svg" xmlns:xlink="http://www.w3.org/1999/xlink" width="32" height="32" viewBox="0 0 32 32" version="1.1">
<g id="surface1">
<path style=" stroke:none;fill-rule:evenodd;fill:rgb(78.431373%,6.666667%,0%);fill-opacity:1;" d="M 4.035156 9.847656 L 7.441406 13.179688 L 7.335938 8.503906 L 4.03125 8.488281 Z M 4.035156 9.847656 "/>
<path style="fill-rule:evenodd;fill:rgb(94.901961%,94.901961%,94.901961%);fill-opacity:1;stroke-width:5.03546;stroke-linecap:butt;stroke-linejoin:miter;stroke:rgb(68.627451%,68.627451%,68.627451%);stroke-opacity:1;stroke-miterlimit:4;" d="M 97.045898 1029.840207 L 433.898926 1028.680539 L 435.119629 664.788937 L 347.045898 575.555539 L 97.045898 575.555539 Z M 97.045898 1029.840207 " transform="matrix(0.064,0,0,0.064,0,-35.35118)"/>
<path style="fill-rule:evenodd;fill:rgb(68.627451%,68.627451%,68.627451%);fill-opacity:1;stroke-width:5.03546;stroke-linecap:butt;stroke-linejoin:miter;stroke:rgb(68.627451%,68.627451%,68.627451%);stroke-opacity:1;stroke-miterlimit:4;" d="M 431.518555 662.896848 L 349.365234 662.347531 L 350.097656 578.546262 Z M 431.518555 662.896848 " transform="matrix(0.064,0,0,0.064,0,-35.35118)"/>
<path style=" stroke:none;fill-rule:nonzero;fill:rgb(94.117647%,22.352941%,8.627451%);fill-opacity:1;" d="M 4.039062 4.46875 L 18.4375 4.46875 L 18.4375 9.867188 L 4.039062 9.867188 Z M 4.039062 4.46875 "/>
<path style=" stroke:none;fill-rule:evenodd;fill:rgb(100%,40%,0%);fill-opacity:1;" d="M 13.082031 14.4375 L 17.445312 22.429688 L 13.082031 30.425781 L 15.261719 30.425781 L 18.535156 24.429688 L 21.804688 30.425781 L 23.984375 30.425781 L 20.496094 24.027344 L 20.019531 23.15625 L 19.625 22.429688 L 15.261719 14.4375 Z M 13.082031 14.4375 "/>
<path style=" stroke:none;fill-rule:evenodd;fill:rgb(100%,80%,0%);fill-opacity:1;" d="M 19.347656 19.328125 L 20.140625 20.78125 L 23.445312 20.78125 L 23.445312 19.328125 Z M 20.933594 22.234375 L 21.726562 23.6875 L 23.445312 23.6875 L 23.445312 22.234375 Z M 20.933594 22.234375 "/>
<path style=" stroke:none;fill-rule:evenodd;fill:rgb(94.117647%,22.352941%,8.627451%);fill-opacity:1;" d="M 9.378906 14.445312 L 13.742188 22.4375 L 9.378906 30.433594 L 11.5625 30.433594 L 15.921875 22.4375 L 11.5625 14.445312 Z M 9.378906 14.445312 "/>
<path style="fill:none;stroke-width:9;stroke-linecap:butt;stroke-linejoin:miter;stroke:rgb(100%,100%,100%);stroke-opacity:1;stroke-miterlimit:4;" d="M 311.214391 528.451914 L 311.519566 582.956309 " transform="matrix(0.064,0,0,0.064,-11.870846,-28.551391)"/>
<path style="fill:none;stroke-width:9;stroke-linecap:butt;stroke-linejoin:miter;stroke:rgb(100%,100%,100%);stroke-opacity:1;stroke-miterlimit:4;" d="M 346.309605 527.963633 L 346.553746 582.468027 " transform="matrix(0.064,0,0,0.064,-11.870846,-28.551391)"/>
<path style="fill:none;stroke-width:9;stroke-linecap:butt;stroke-linejoin:miter;stroke:rgb(100%,100%,100%);stroke-opacity:1;stroke-miterlimit:4;" d="M 310.909215 555.063242 L 347.469273 555.063242 " transform="matrix(0.064,0,0,0.064,-11.870846,-28.551391)"/>
<path style="fill:none;stroke-width:10;stroke-linecap:butt;stroke-linejoin:miter;stroke:rgb(100%,100%,100%);stroke-opacity:1;stroke-miterlimit:4;" d="M 215.148926 638.055539 C 215.148926 638.055539 205.932617 633.783078 197.08252 633.722043 C 188.293457 633.599973 182.861328 638.910031 182.556152 646.539426 C 182.250977 654.107785 186.462402 660.150266 201.660156 661.98132 C 216.796875 663.75134 215.881348 676.934934 213.989258 681.634641 C 212.158203 686.273312 203.308105 690.728879 194.335938 689.508176 C 185.36377 688.287473 177.91748 684.259152 177.91748 684.259152 " transform="matrix(0.064,0,0,0.064,0,-35.35118)"/>
</g>
</svg>
