<?xml version="1.0" encoding="UTF-8"?>
<svg xmlns="http://www.w3.org/2000/svg" xmlns:xlink="http://www.w3.org/1999/xlink" width="32" height="32" viewBox="0 0 32 32" version="1.1">
<g id="surface1">
<path style=" stroke:none;fill-rule:evenodd;fill:rgb(10.196078%,10.196078%,10.196078%);fill-opacity:1;" d="M 4.042969 9.882812 L 7.449219 13.21875 L 7.34375 8.542969 L 4.042969 8.527344 Z M 4.042969 9.882812 "/>
<path style="fill-rule:evenodd;fill:rgb(94.901961%,94.901961%,94.901961%);fill-opacity:1;stroke-width:5.03546;stroke-linecap:butt;stroke-linejoin:miter;stroke:rgb(68.627451%,68.627451%,68.627451%);stroke-opacity:1;stroke-miterlimit:4;" d="M 96.923828 1029.840207 L 433.776855 1028.680539 L 434.936523 664.788937 L 346.923828 575.555539 L 96.923828 575.555539 Z M 96.923828 1029.840207 " transform="matrix(0.064,0,0,0.064,0,-35.35118)"/>
<path style="fill-rule:evenodd;fill:rgb(68.627451%,68.627451%,68.627451%);fill-opacity:1;stroke-width:5.03546;stroke-linecap:butt;stroke-linejoin:miter;stroke:rgb(68.627451%,68.627451%,68.627451%);stroke-opacity:1;stroke-miterlimit:4;" d="M 431.396484 662.896848 L 349.182129 662.347531 L 349.975586 578.546262 Z M 431.396484 662.896848 " transform="matrix(0.064,0,0,0.064,0,-35.35118)"/>
<path style=" stroke:none;fill-rule:nonzero;fill:rgb(22.352941%,25.098039%,31.372549%);fill-opacity:1;" d="M 4.03125 4.46875 L 18.949219 4.46875 L 18.949219 9.867188 L 4.03125 9.867188 Z M 4.03125 4.46875 "/>
<path style="fill-rule:nonzero;fill:rgb(98.039216%,92.54902%,42.745098%);fill-opacity:1;stroke-width:13.157895;stroke-linecap:butt;stroke-linejoin:miter;stroke:rgb(22.352941%,25.098039%,31.372549%);stroke-opacity:1;stroke-miterlimit:4;" d="M 380.249023 902.337766 C 380.249023 967.767453 327.209473 1020.745969 261.84082 1020.745969 C 196.411133 1020.807004 143.432617 967.767453 143.371582 902.398801 C 143.371582 836.969113 196.350098 783.929562 261.779785 783.929562 C 327.148438 783.929562 380.187988 836.908078 380.249023 902.337766 " transform="matrix(0.064,0,0,0.064,0,-35.35118)"/>
<path style=" stroke:none;fill-rule:nonzero;fill:rgb(22.352941%,25.098039%,31.372549%);fill-opacity:1;" d="M 14.550781 21.292969 L 18.089844 21.28125 L 18.117188 26.003906 C 18.117188 26.003906 18.105469 26.125 18.195312 26.226562 C 18.289062 26.324219 18.378906 26.328125 18.378906 26.328125 L 19.167969 26.332031 L 19.175781 26.90625 L 14.679688 26.894531 L 14.671875 26.3125 L 15.59375 26.316406 C 15.59375 26.316406 15.71875 26.304688 15.792969 26.199219 C 15.867188 26.09375 15.847656 25.980469 15.847656 25.980469 L 15.84375 22.164062 C 15.84375 22.164062 15.855469 22.066406 15.726562 21.957031 C 15.597656 21.84375 15.472656 21.855469 15.472656 21.855469 L 14.558594 21.84375 Z M 14.550781 21.292969 "/>
<path style=" stroke:none;fill-rule:nonzero;fill:rgb(22.352941%,25.098039%,31.372549%);fill-opacity:1;" d="M 18.121094 19.328125 C 18.121094 20.050781 17.546875 20.636719 16.839844 20.636719 C 16.128906 20.636719 15.554688 20.054688 15.550781 19.328125 C 15.550781 18.605469 16.125 18.019531 16.835938 18.015625 C 17.542969 18.015625 18.121094 18.597656 18.121094 19.320312 "/>
<path style="fill:none;stroke-width:9;stroke-linecap:butt;stroke-linejoin:bevel;stroke:rgb(100%,100%,100%);stroke-opacity:1;stroke-miterlimit:4;" d="M 124.267578 695.062375 L 124.023438 634.088254 L 166.07666 694.268918 L 166.07666 633.233762 " transform="matrix(0.064,0,0,0.064,0,-35.35118)"/>
<path style="fill:none;stroke-width:9;stroke-linecap:butt;stroke-linejoin:miter;stroke:rgb(100%,100%,100%);stroke-opacity:1;stroke-miterlimit:4;" d="M 233.418145 692.495262 L 233.784355 640.798484 L 268.208184 640.920555 " transform="matrix(0.064,0,0,0.064,-2.985636,-35.577509)"/>
<path style="fill:none;stroke-width:9;stroke-linecap:butt;stroke-linejoin:miter;stroke:rgb(100%,100%,100%);stroke-opacity:1;stroke-miterlimit:4;" d="M 236.164727 664.602195 L 265.278496 664.724266 " transform="matrix(0.064,0,0,0.064,-2.985636,-35.577509)"/>
<path style="fill:none;stroke-width:9;stroke-linecap:butt;stroke-linejoin:miter;stroke:rgb(100%,100%,100%);stroke-opacity:1;stroke-miterlimit:4;" d="M 252.929688 691.522336 C 240.844727 691.461301 229.553223 679.37634 229.492188 664.056516 C 229.431152 648.797727 241.455078 636.468625 253.601074 636.834836 C 265.74707 637.140012 276.367188 648.736691 276.550293 665.033078 C 276.733398 681.26843 264.953613 691.644406 252.929688 691.522336 Z M 252.929688 691.522336 " transform="matrix(0.064,0,0,0.064,0,-35.35118)"/>
</g>
</svg>
