<?xml version="1.0" encoding="UTF-8"?>
<svg xmlns="http://www.w3.org/2000/svg" xmlns:xlink="http://www.w3.org/1999/xlink" width="32" height="32" viewBox="0 0 32 32" version="1.1">
<g id="surface1">
<path style=" stroke:none;fill-rule:evenodd;fill:rgb(21.176471%,63.137255%,20.784314%);fill-opacity:1;" d="M 4.035156 9.847656 L 7.441406 13.179688 L 7.335938 8.503906 L 4.03125 8.488281 Z M 4.035156 9.847656 "/>
<path style="fill-rule:evenodd;fill:rgb(94.901961%,94.901961%,94.901961%);fill-opacity:1;stroke-width:5.03546;stroke-linecap:butt;stroke-linejoin:miter;stroke:rgb(68.627451%,68.627451%,68.627451%);stroke-opacity:1;stroke-miterlimit:4;" d="M 97.045898 1029.840207 L 433.898926 1028.680539 L 435.119629 664.788937 L 347.045898 575.555539 L 97.045898 575.555539 Z M 97.045898 1029.840207 " transform="matrix(0.064,0,0,0.064,0,-35.35118)"/>
<path style="fill-rule:evenodd;fill:rgb(68.627451%,68.627451%,68.627451%);fill-opacity:1;stroke-width:5.03546;stroke-linecap:butt;stroke-linejoin:miter;stroke:rgb(68.627451%,68.627451%,68.627451%);stroke-opacity:1;stroke-miterlimit:4;" d="M 431.518555 662.896848 L 349.365234 662.347531 L 350.097656 578.546262 Z M 431.518555 662.896848 " transform="matrix(0.064,0,0,0.064,0,-35.35118)"/>
<path style=" stroke:none;fill-rule:nonzero;fill:rgb(27.058824%,81.568627%,24.705882%);fill-opacity:1;" d="M 4.039062 4.46875 L 18.4375 4.46875 L 18.4375 9.867188 L 4.039062 9.867188 Z M 4.039062 4.46875 "/>
<path style="fill:none;stroke-width:16.988342;stroke-linecap:butt;stroke-linejoin:miter;stroke:rgb(27.058824%,81.568627%,24.705882%);stroke-opacity:1;stroke-miterlimit:4;" d="M 144.836426 917.962766 C 144.836426 917.962766 148.681641 878.106809 187.438965 878.778195 C 216.796875 879.266477 229.187012 905.81677 229.858398 920.404172 C 230.529785 934.991574 220.214844 962.457395 190.307617 963.800168 C 160.339355 965.081906 145.874023 943.719602 145.080566 917.77966 C 144.287109 891.778684 145.019531 874.139523 145.019531 874.139523 L 143.676758 1029.473996 " transform="matrix(0.064,0,0,0.064,0,-35.35118)"/>
<path style="fill:none;stroke-width:9.063828;stroke-linecap:butt;stroke-linejoin:miter;stroke:rgb(100%,100%,100%);stroke-opacity:1;stroke-miterlimit:4;" d="M 137.329102 694.513059 L 137.329102 638.116574 C 137.329102 638.116574 168.151855 632.135129 168.029785 652.398801 C 167.907715 672.662473 137.939453 667.169309 137.939453 667.169309 " transform="matrix(0.064,0,0,0.064,0,-35.35118)"/>
</g>
</svg>
