<?xml version="1.0" encoding="UTF-8"?>
<svg xmlns="http://www.w3.org/2000/svg" xmlns:xlink="http://www.w3.org/1999/xlink" width="32" height="32" viewBox="0 0 32 32" version="1.1">
<g id="surface1">
<path style=" stroke:none;fill-rule:evenodd;fill:rgb(10.588235%,14.901961%,19.215686%);fill-opacity:1;" d="M 4.035156 9.847656 L 7.441406 13.179688 L 7.335938 8.503906 L 4.03125 8.488281 Z M 4.035156 9.847656 "/>
<path style="fill-rule:evenodd;fill:rgb(94.901961%,94.901961%,94.901961%);fill-opacity:1;stroke-width:5.03546;stroke-linecap:butt;stroke-linejoin:miter;stroke:rgb(68.627451%,68.627451%,68.627451%);stroke-opacity:1;stroke-miterlimit:4;" d="M 97.045898 1029.840207 L 433.898926 1028.680539 L 435.119629 664.788937 L 347.045898 575.555539 L 97.045898 575.555539 Z M 97.045898 1029.840207 " transform="matrix(0.064,0,0,0.064,0,-35.35118)"/>
<path style="fill-rule:evenodd;fill:rgb(68.627451%,68.627451%,68.627451%);fill-opacity:1;stroke-width:5.03546;stroke-linecap:butt;stroke-linejoin:miter;stroke:rgb(68.627451%,68.627451%,68.627451%);stroke-opacity:1;stroke-miterlimit:4;" d="M 431.518555 662.896848 L 349.365234 662.347531 L 350.097656 578.546262 Z M 431.518555 662.896848 " transform="matrix(0.064,0,0,0.064,0,-35.35118)"/>
<path style=" stroke:none;fill-rule:nonzero;fill:rgb(22.352941%,25.098039%,31.372549%);fill-opacity:1;" d="M 4.039062 4.46875 L 18.4375 4.46875 L 18.4375 9.867188 L 4.039062 9.867188 Z M 4.039062 4.46875 "/>
<path style="fill-rule:nonzero;fill:rgb(98.039216%,92.54902%,42.745098%);fill-opacity:1;stroke-width:15.218686;stroke-linecap:butt;stroke-linejoin:miter;stroke:rgb(22.352941%,25.098039%,31.372549%);stroke-opacity:1;stroke-miterlimit:4;" d="M 760.622741 336.449905 L 909.660194 336.532672 C 916.222263 336.471377 921.531758 341.248389 921.571517 347.206624 L 921.527148 498.53156 C 921.566907 504.489795 916.209193 509.258583 909.688717 509.275209 L 760.65434 509.278704 C 754.089194 509.253737 748.7797 504.476725 748.78461 498.560083 L 748.742717 347.238223 C 748.78922 341.276912 754.060672 336.5112 760.622741 336.449905 Z M 760.622741 336.449905 " transform="matrix(0.043613,0.046839,-0.046839,0.043613,0,-35.35118)"/>
<path style=" stroke:none;fill-rule:nonzero;fill:rgb(22.352941%,25.098039%,31.372549%);fill-opacity:1;" d="M 16.414062 19.585938 C 15.878906 19.660156 15.582031 20.238281 15.582031 20.238281 L 14.972656 21.089844 L 14.035156 21.601562 C 14.035156 21.601562 13.800781 21.703125 13.875 21.914062 C 13.953125 22.125 14.132812 22.074219 14.132812 22.074219 L 15.222656 21.628906 L 15.796875 21.070312 L 16.3125 22.703125 L 15.3125 23.867188 L 15.3125 26.257812 C 15.3125 26.257812 15.355469 26.535156 15.613281 26.53125 C 15.867188 26.53125 15.957031 26.316406 15.957031 26.316406 L 16.070312 24.222656 L 16.851562 23.585938 L 17.074219 23.585938 L 17.351562 24.433594 L 18.320312 26.273438 C 18.320312 26.273438 18.523438 26.496094 18.765625 26.359375 C 19.007812 26.222656 18.964844 25.972656 18.964844 25.972656 L 18.046875 24.222656 L 17.976562 22.417969 L 17.605469 20.695312 L 18.078125 20.839844 L 18.40625 21.902344 C 18.40625 21.902344 18.511719 22.179688 18.734375 22.109375 C 18.960938 22.042969 18.910156 21.773438 18.910156 21.773438 L 18.566406 20.4375 L 17.316406 19.722656 C 17.316406 19.722656 16.949219 19.511719 16.414062 19.585938 Z M 16.414062 19.585938 "/>
<path style=" stroke:none;fill-rule:nonzero;fill:rgb(22.352941%,25.098039%,31.372549%);fill-opacity:1;" d="M 17.179688 18.628906 C 17.179688 19.039062 16.839844 19.371094 16.417969 19.371094 C 16 19.375 15.660156 19.039062 15.660156 18.628906 C 15.65625 18.21875 15.996094 17.882812 16.417969 17.882812 C 16.835938 17.878906 17.175781 18.210938 17.179688 18.625 "/>
<path style="fill:none;stroke-width:9;stroke-linecap:butt;stroke-linejoin:bevel;stroke:rgb(100%,100%,100%);stroke-opacity:1;stroke-miterlimit:4;" d="M 111.14502 635.308957 L 138.000488 691.644406 L 164.001465 635.553098 " transform="matrix(0.064,0,0,0.064,0,-35.35118)"/>
<path style="fill:none;stroke-width:9;stroke-linecap:butt;stroke-linejoin:miter;stroke:rgb(100%,100%,100%);stroke-opacity:1;stroke-miterlimit:4;" d="M 220.397949 642.20593 C 220.397949 642.20593 212.768555 635.369992 198.913574 636.468625 C 184.997559 637.567258 177.124023 653.375363 177.856445 665.399289 C 178.649902 677.36218 189.147949 691.644406 202.697754 690.484738 C 216.308594 689.32507 220.397949 684.503293 220.397949 684.503293 " transform="matrix(0.064,0,0,0.064,0,-35.35118)"/>
<path style="fill:none;stroke-width:9;stroke-linecap:butt;stroke-linejoin:miter;stroke:rgb(100%,100%,100%);stroke-opacity:1;stroke-miterlimit:4;" d="M 233.347383 692.497313 L 233.774629 640.800535 L 268.259492 640.922605 " transform="matrix(0.064,0,0,0.064,0.300142,-35.468266)"/>
<path style="fill:none;stroke-width:9;stroke-linecap:butt;stroke-linejoin:miter;stroke:rgb(100%,100%,100%);stroke-opacity:1;stroke-miterlimit:4;" d="M 236.093965 664.604246 L 265.26877 664.726316 " transform="matrix(0.064,0,0,0.064,0.300142,-35.468266)"/>
</g>
</svg>
