<?xml version="1.0" encoding="UTF-8"?>
<svg xmlns="http://www.w3.org/2000/svg" xmlns:xlink="http://www.w3.org/1999/xlink" width="32" height="32" viewBox="0 0 32 32" version="1.1">
<g id="surface1">
<path style=" stroke:none;fill-rule:evenodd;fill:rgb(9.803922%,7.843137%,23.529412%);fill-opacity:1;" d="M 4.035156 9.847656 L 7.441406 13.179688 L 7.335938 8.503906 L 4.03125 8.488281 Z M 4.035156 9.847656 "/>
<path style="fill-rule:evenodd;fill:rgb(94.901961%,94.901961%,94.901961%);fill-opacity:1;stroke-width:5.03546;stroke-linecap:butt;stroke-linejoin:miter;stroke:rgb(68.627451%,68.627451%,68.627451%);stroke-opacity:1;stroke-miterlimit:4;" d="M 97.045898 1029.840207 L 433.898926 1028.680539 L 435.119629 664.788937 L 347.045898 575.555539 L 97.045898 575.555539 Z M 97.045898 1029.840207 " transform="matrix(0.064,0,0,0.064,0,-35.35118)"/>
<path style="fill-rule:evenodd;fill:rgb(68.627451%,68.627451%,68.627451%);fill-opacity:1;stroke-width:5.03546;stroke-linecap:butt;stroke-linejoin:miter;stroke:rgb(68.627451%,68.627451%,68.627451%);stroke-opacity:1;stroke-miterlimit:4;" d="M 431.518555 662.896848 L 349.365234 662.347531 L 350.097656 578.546262 Z M 431.518555 662.896848 " transform="matrix(0.064,0,0,0.064,0,-35.35118)"/>
<path style=" stroke:none;fill-rule:nonzero;fill:rgb(17.647059%,8.627451%,31.372549%);fill-opacity:1;" d="M 4.039062 4.46875 L 18.4375 4.46875 L 18.4375 9.867188 L 4.039062 9.867188 Z M 4.039062 4.46875 "/>
<path style="fill-rule:nonzero;fill:rgb(17.647059%,8.627451%,31.372549%);fill-opacity:1;stroke-width:0.833333;stroke-linecap:butt;stroke-linejoin:miter;stroke:rgb(0%,0%,0%);stroke-opacity:1;stroke-miterlimit:4;" d="M 266.540527 1020.379758 C 163.879395 1018.060422 144.104004 993.707395 144.104004 993.707395 L 144.104004 805.719113 C 144.104004 805.719113 163.085938 782.220578 254.394531 778.558469 C 345.581055 774.896359 382.568359 805.230832 382.568359 805.230832 L 382.568359 988.824582 C 382.568359 988.824582 369.07959 1022.760129 266.540527 1020.379758 Z M 266.540527 1020.379758 " transform="matrix(0.064,0,0,0.064,0,-35.35118)"/>
<path style=" stroke:none;fill-rule:nonzero;fill:rgb(100%,100%,100%);fill-opacity:1;" d="M 16.960938 14.289062 C 12.542969 14.289062 8.960938 15.265625 8.960938 16.46875 L 8.960938 28.105469 C 8.960938 29.3125 12.542969 30.289062 16.960938 30.289062 C 21.378906 30.289062 24.960938 29.3125 24.960938 28.105469 L 24.960938 16.46875 C 24.960938 15.265625 21.378906 14.289062 16.960938 14.289062 Z M 16.960938 15.015625 C 20.976562 15.015625 24.234375 15.667969 24.234375 16.46875 C 24.234375 17.273438 20.976562 17.925781 16.960938 17.925781 C 12.945312 17.925781 9.6875 17.273438 9.6875 16.46875 C 9.6875 15.667969 12.945312 15.015625 16.960938 15.015625 Z M 9.6875 17.375 C 10.984375 18.152344 13.828125 18.652344 16.960938 18.652344 C 20.09375 18.652344 22.9375 18.152344 24.234375 17.375 L 24.234375 20.105469 C 24.234375 20.910156 20.976562 21.5625 16.960938 21.5625 C 12.945312 21.5625 9.6875 20.910156 9.6875 20.105469 Z M 9.6875 21.011719 C 10.984375 21.789062 13.828125 22.289062 16.960938 22.289062 C 20.09375 22.289062 22.9375 21.789062 24.234375 21.011719 L 24.234375 24.46875 C 24.234375 25.273438 20.976562 25.925781 16.960938 25.925781 C 12.945312 25.925781 9.6875 25.273438 9.6875 24.46875 Z M 9.6875 25.375 C 10.984375 26.152344 13.828125 26.652344 16.960938 26.652344 C 20.09375 26.652344 22.9375 26.152344 24.234375 25.375 L 24.234375 28.105469 C 24.234375 28.910156 20.976562 29.5625 16.960938 29.5625 C 12.945312 29.5625 9.6875 28.910156 9.6875 28.105469 Z M 9.6875 25.375 "/>
<path style="fill:none;stroke-width:10;stroke-linecap:butt;stroke-linejoin:miter;stroke:rgb(100%,100%,100%);stroke-opacity:1;stroke-miterlimit:4;" d="M 162.29248 639.703488 C 162.29248 639.703488 153.015137 635.431027 144.226074 635.369992 C 135.375977 635.247922 129.943848 640.55798 129.638672 648.187375 C 129.333496 655.755734 133.544922 661.798215 148.681641 663.62927 C 163.879395 665.399289 162.963867 678.582883 161.132812 683.28259 C 159.240723 687.921262 150.390625 692.376828 141.418457 691.156125 C 132.446289 689.935422 124.938965 685.907102 124.938965 685.907102 " transform="matrix(0.064,0,0,0.064,0,-35.35118)"/>
<path style="fill:none;stroke-width:9;stroke-linecap:butt;stroke-linejoin:miter;stroke:rgb(100%,100%,100%);stroke-opacity:1;stroke-miterlimit:4;" d="M 232.24727 651.412195 C 220.162309 651.35116 208.870805 639.266199 208.80977 623.946375 C 208.748734 608.626551 220.77266 596.358484 232.918656 596.724695 C 245.064652 597.029871 255.68477 608.626551 255.867875 624.922938 C 256.05098 641.158289 244.271195 651.534266 232.24727 651.412195 Z M 232.24727 651.412195 " transform="matrix(0.064,0,0,0.064,-2.25445,-32.799756)"/>
<path style="fill:none;stroke-width:9;stroke-linecap:butt;stroke-linejoin:miter;stroke:rgb(100%,100%,100%);stroke-opacity:1;stroke-miterlimit:4;" d="M 240.42598 633.650965 C 240.42598 633.650965 243.96602 643.233484 247.99434 646.773523 C 252.02266 650.313563 263.61934 653.36532 263.61934 653.36532 " transform="matrix(0.064,0,0,0.064,-2.25445,-32.799756)"/>
<path style="fill:none;stroke-width:9;stroke-linecap:butt;stroke-linejoin:miter;stroke:rgb(100%,100%,100%);stroke-opacity:1;stroke-miterlimit:4;" d="M 240.29541 633.416867 L 240.600586 687.921262 L 272.338867 688.226437 " transform="matrix(0.064,0,0,0.064,0,-35.35118)"/>
</g>
</svg>
