<?xml version="1.0" encoding="UTF-8"?>
<svg xmlns="http://www.w3.org/2000/svg" xmlns:xlink="http://www.w3.org/1999/xlink" width="32" height="32" viewBox="0 0 32 32" version="1.1">
<g id="surface1">
<path style=" stroke:none;fill-rule:evenodd;fill:rgb(0%,11.372549%,39.215686%);fill-opacity:1;" d="M 4.035156 9.847656 L 7.441406 13.179688 L 7.335938 8.503906 L 4.03125 8.488281 Z M 4.035156 9.847656 "/>
<path style="fill-rule:evenodd;fill:rgb(94.901961%,94.901961%,94.901961%);fill-opacity:1;stroke-width:5.03546;stroke-linecap:butt;stroke-linejoin:miter;stroke:rgb(68.627451%,68.627451%,68.627451%);stroke-opacity:1;stroke-miterlimit:4;" d="M 97.045898 1029.840207 L 433.898926 1028.680539 L 435.119629 664.788937 L 347.045898 575.555539 L 97.045898 575.555539 Z M 97.045898 1029.840207 " transform="matrix(0.064,0,0,0.064,0,-35.35118)"/>
<path style="fill-rule:evenodd;fill:rgb(68.627451%,68.627451%,68.627451%);fill-opacity:1;stroke-width:5.03546;stroke-linecap:butt;stroke-linejoin:miter;stroke:rgb(68.627451%,68.627451%,68.627451%);stroke-opacity:1;stroke-miterlimit:4;" d="M 431.518555 662.896848 L 349.365234 662.347531 L 350.097656 578.546262 Z M 431.518555 662.896848 " transform="matrix(0.064,0,0,0.064,0,-35.35118)"/>
<path style=" stroke:none;fill-rule:nonzero;fill:rgb(0%,30.196078%,54.509804%);fill-opacity:1;" d="M 4.039062 4.46875 L 17.039062 4.46875 L 17.039062 9.867188 L 4.039062 9.867188 Z M 4.039062 4.46875 "/>
<path style=" stroke:none;fill-rule:nonzero;fill:rgb(0%,30.196078%,54.509804%);fill-opacity:1;" d="M 9.375 15.433594 L 9.375 30.394531 L 24.335938 30.394531 L 24.335938 15.433594 Z M 10.496094 16.554688 L 11.617188 16.554688 L 11.617188 17.675781 L 10.496094 17.675781 Z M 22.089844 16.554688 L 23.210938 16.554688 L 23.210938 17.675781 L 22.089844 17.675781 Z M 10.496094 19.359375 L 11.617188 19.359375 L 11.617188 20.480469 L 10.496094 20.480469 Z M 22.089844 19.359375 L 23.210938 19.359375 L 23.210938 20.480469 L 22.089844 20.480469 Z M 10.496094 22.351562 L 11.617188 22.351562 L 11.617188 23.472656 L 10.496094 23.472656 Z M 22.089844 22.351562 L 23.210938 22.351562 L 23.210938 23.472656 L 22.089844 23.472656 Z M 10.496094 25.34375 L 11.617188 25.34375 L 11.617188 26.464844 L 10.496094 26.464844 Z M 22.089844 25.34375 L 23.210938 25.34375 L 23.210938 26.464844 L 22.089844 26.464844 Z M 10.496094 28.148438 L 11.617188 28.148438 L 11.617188 29.273438 L 10.496094 29.273438 Z M 22.089844 28.148438 L 23.210938 28.148438 L 23.210938 29.273438 L 22.089844 29.273438 Z M 22.089844 28.148438 "/>
<path style=" stroke:none;fill-rule:nonzero;fill:rgb(40.784314%,91.764706%,100%);fill-opacity:1;" d="M 12.78125 16.582031 L 21.007812 16.582031 L 21.007812 22.378906 L 12.78125 22.378906 Z M 12.78125 16.582031 "/>
<path style=" stroke:none;fill-rule:nonzero;fill:rgb(40.784314%,91.764706%,100%);fill-opacity:1;" d="M 12.738281 23.472656 L 20.96875 23.472656 L 20.96875 29.273438 L 12.738281 29.273438 Z M 12.738281 23.472656 "/>
<path style=" stroke:none;fill-rule:evenodd;fill:rgb(94.117647%,22.352941%,8.627451%);fill-opacity:0.941176;" d="M 15.832031 29.292969 C 15.832031 29.292969 16.011719 27.324219 17.503906 26.035156 C 18.996094 24.742188 20.992188 25.171875 20.992188 25.171875 L 20.96875 29.308594 Z M 15.832031 29.292969 "/>
<path style=" stroke:none;fill-rule:evenodd;fill:rgb(94.117647%,22.352941%,8.627451%);fill-opacity:0.941176;" d="M 14.660156 16.5625 C 14.660156 16.5625 14.644531 17.140625 15.125 17.730469 C 15.609375 18.316406 16.132812 18.414062 16.132812 18.414062 L 16.117188 19.710938 L 16.695312 19.710938 L 16.710938 18.417969 C 16.710938 18.417969 17.164062 18.371094 17.6875 17.824219 C 18.210938 17.277344 18.164062 16.542969 18.164062 16.542969 Z M 14.660156 16.5625 "/>
<path style=" stroke:none;fill-rule:nonzero;fill:rgb(83.137255%,33.333333%,0%);fill-opacity:0.941176;" d="M 16.101562 19.886719 L 16.691406 19.886719 L 16.691406 20.335938 L 16.101562 20.335938 Z M 16.101562 19.886719 "/>
</g>
</svg>
