<?xml version="1.0" encoding="UTF-8"?>
<svg xmlns="http://www.w3.org/2000/svg" xmlns:xlink="http://www.w3.org/1999/xlink" width="32" height="32" viewBox="0 0 32 32" version="1.1">
<g id="surface1">
<path style=" stroke:none;fill-rule:evenodd;fill:rgb(66.666667%,26.666667%,0%);fill-opacity:1;" d="M 4.035156 9.847656 L 7.441406 13.179688 L 7.335938 8.503906 L 4.03125 8.488281 Z M 4.035156 9.847656 "/>
<path style="fill-rule:evenodd;fill:rgb(94.901961%,94.901961%,94.901961%);fill-opacity:1;stroke-width:5.03546;stroke-linecap:butt;stroke-linejoin:miter;stroke:rgb(68.627451%,68.627451%,68.627451%);stroke-opacity:1;stroke-miterlimit:4;" d="M 97.045898 1029.840207 L 433.898926 1028.680539 L 435.119629 664.788937 L 347.045898 575.555539 L 97.045898 575.555539 Z M 97.045898 1029.840207 " transform="matrix(0.064,0,0,0.064,0,-35.35118)"/>
<path style="fill-rule:evenodd;fill:rgb(68.627451%,68.627451%,68.627451%);fill-opacity:1;stroke-width:5.03546;stroke-linecap:butt;stroke-linejoin:miter;stroke:rgb(68.627451%,68.627451%,68.627451%);stroke-opacity:1;stroke-miterlimit:4;" d="M 431.518555 662.896848 L 349.365234 662.347531 L 350.097656 578.546262 Z M 431.518555 662.896848 " transform="matrix(0.064,0,0,0.064,0,-35.35118)"/>
<path style=" stroke:none;fill-rule:nonzero;fill:rgb(100%,40%,0%);fill-opacity:1;" d="M 4.039062 4.46875 L 18.4375 4.46875 L 18.4375 9.867188 L 4.039062 9.867188 Z M 4.039062 4.46875 "/>
<path style=" stroke:none;fill-rule:nonzero;fill:rgb(100%,40%,0%);fill-opacity:1;" d="M 9.804688 15.703125 L 23.484375 15.703125 L 23.484375 16.492188 L 9.804688 16.492188 Z M 9.804688 15.703125 "/>
<path style=" stroke:none;fill-rule:nonzero;fill:rgb(100%,40%,0%);fill-opacity:1;" d="M 11.816406 17.351562 L 21.261719 17.351562 L 21.261719 18.136719 L 11.816406 18.136719 Z M 11.816406 17.351562 "/>
<path style=" stroke:none;fill-rule:nonzero;fill:rgb(100%,40%,0%);fill-opacity:1;" d="M 10.359375 20.730469 L 14.984375 20.730469 L 14.984375 21.515625 L 10.359375 21.515625 Z M 10.359375 20.730469 "/>
<path style=" stroke:none;fill-rule:nonzero;fill:rgb(100%,40%,0%);fill-opacity:1;" d="M 8.90625 20.730469 L 9.71875 20.730469 L 9.71875 21.515625 L 8.90625 21.515625 Z M 8.90625 20.730469 "/>
<path style=" stroke:none;fill-rule:nonzero;fill:rgb(100%,40%,0%);fill-opacity:1;" d="M 10.320312 22.058594 L 14.945312 22.058594 L 14.945312 22.84375 L 10.320312 22.84375 Z M 10.320312 22.058594 "/>
<path style=" stroke:none;fill-rule:nonzero;fill:rgb(100%,40%,0%);fill-opacity:1;" d="M 8.863281 22.058594 L 9.675781 22.058594 L 9.675781 22.84375 L 8.863281 22.84375 Z M 8.863281 22.058594 "/>
<path style=" stroke:none;fill-rule:nonzero;fill:rgb(100%,40%,0%);fill-opacity:1;" d="M 10.320312 23.417969 L 14.945312 23.417969 L 14.945312 24.203125 L 10.320312 24.203125 Z M 10.320312 23.417969 "/>
<path style=" stroke:none;fill-rule:nonzero;fill:rgb(100%,40%,0%);fill-opacity:1;" d="M 8.863281 23.417969 L 9.675781 23.417969 L 9.675781 24.203125 L 8.863281 24.203125 Z M 8.863281 23.417969 "/>
<path style=" stroke:none;fill-rule:nonzero;fill:rgb(100%,40%,0%);fill-opacity:1;" d="M 10.320312 24.859375 L 14.945312 24.859375 L 14.945312 25.648438 L 10.320312 25.648438 Z M 10.320312 24.859375 "/>
<path style=" stroke:none;fill-rule:nonzero;fill:rgb(100%,40%,0%);fill-opacity:1;" d="M 8.863281 24.859375 L 9.675781 24.859375 L 9.675781 25.648438 L 8.863281 25.648438 Z M 8.863281 24.859375 "/>
<path style=" stroke:none;fill-rule:nonzero;fill:rgb(100%,100%,100%);fill-opacity:1;" d="M 17.054688 20.042969 L 24.332031 20.042969 L 24.332031 26.089844 L 17.054688 26.089844 Z M 17.054688 20.042969 "/>
<path style=" stroke:none;fill-rule:nonzero;fill:rgb(100%,80%,0%);fill-opacity:1;" d="M 20.957031 25.832031 L 20.382812 25.832031 C 20.304688 25.832031 20.238281 25.761719 20.238281 25.671875 L 20.238281 23.164062 C 20.238281 23.074219 20.304688 23.003906 20.382812 23.003906 L 20.957031 23.003906 C 21.039062 23.003906 21.101562 23.074219 21.101562 23.164062 L 21.101562 25.671875 C 21.101562 25.761719 21.039062 25.832031 20.957031 25.832031 Z M 20.957031 25.832031 "/>
<path style=" stroke:none;fill-rule:nonzero;fill:rgb(94.117647%,22.352941%,8.627451%);fill-opacity:1;" d="M 19.664062 25.832031 L 19.085938 25.832031 C 19.007812 25.832031 18.945312 25.761719 18.945312 25.671875 L 18.945312 23.945312 C 18.945312 23.859375 19.007812 23.789062 19.085938 23.789062 L 19.664062 23.789062 C 19.742188 23.789062 19.808594 23.859375 19.808594 23.945312 L 19.808594 25.671875 C 19.808594 25.761719 19.742188 25.832031 19.664062 25.832031 Z M 19.664062 25.832031 "/>
<path style=" stroke:none;fill-rule:nonzero;fill:rgb(0%,26.666667%,33.333333%);fill-opacity:1;" d="M 18.367188 25.832031 L 17.792969 25.832031 C 17.714844 25.832031 17.648438 25.761719 17.648438 25.671875 L 17.648438 24.730469 C 17.648438 24.644531 17.714844 24.574219 17.792969 24.574219 L 18.367188 24.574219 C 18.449219 24.574219 18.511719 24.644531 18.511719 24.730469 L 18.511719 25.671875 C 18.511719 25.761719 18.449219 25.832031 18.367188 25.832031 Z M 18.367188 25.832031 "/>
<path style=" stroke:none;fill-rule:nonzero;fill:rgb(27.058824%,81.568627%,24.705882%);fill-opacity:1;" d="M 22.253906 25.832031 L 21.679688 25.832031 C 21.597656 25.832031 21.535156 25.761719 21.535156 25.671875 L 21.535156 23.945312 C 21.535156 23.859375 21.597656 23.789062 21.679688 23.789062 L 22.253906 23.789062 C 22.332031 23.789062 22.398438 23.859375 22.398438 23.945312 L 22.398438 25.671875 C 22.398438 25.761719 22.332031 25.832031 22.253906 25.832031 Z M 22.253906 25.832031 "/>
<path style=" stroke:none;fill-rule:nonzero;fill:rgb(0%,73.333333%,94.901961%);fill-opacity:1;" d="M 23.546875 25.832031 L 22.972656 25.832031 C 22.890625 25.832031 22.828125 25.761719 22.828125 25.671875 L 22.828125 22.21875 C 22.828125 22.132812 22.890625 22.0625 22.972656 22.0625 L 23.546875 22.0625 C 23.625 22.0625 23.691406 22.132812 23.691406 22.21875 L 23.691406 25.671875 C 23.691406 25.761719 23.625 25.832031 23.546875 25.832031 Z M 23.546875 25.832031 "/>
<path style=" stroke:none;fill-rule:nonzero;fill:rgb(22.352941%,25.098039%,31.372549%);fill-opacity:1;" d="M 23.980469 25.988281 L 17.359375 25.988281 C 17.28125 25.988281 17.21875 25.917969 17.21875 25.832031 C 17.21875 25.742188 17.28125 25.671875 17.359375 25.671875 L 23.980469 25.671875 C 24.058594 25.671875 24.121094 25.742188 24.121094 25.832031 C 24.121094 25.917969 24.058594 25.988281 23.980469 25.988281 Z M 23.980469 25.988281 "/>
<path style="fill:none;stroke-width:2.504357;stroke-linecap:butt;stroke-linejoin:miter;stroke:rgb(22.352941%,25.098039%,31.372549%);stroke-opacity:1;stroke-miterlimit:4;" d="M 274.719238 931.634641 L 325.195312 902.03259 L 342.773438 919.305539 L 365.05127 870.599484 " transform="matrix(0.064,0,0,0.064,0,-35.35118)"/>
<path style="fill:none;stroke-width:2.504357;stroke-linecap:butt;stroke-linejoin:miter;stroke:rgb(22.352941%,25.098039%,31.372549%);stroke-opacity:1;stroke-miterlimit:4;" d="M 365.905762 869.928098 L 356.933594 874.200559 " transform="matrix(0.064,0,0,0.064,0,-35.35118)"/>
<path style="fill:none;stroke-width:2.504357;stroke-linecap:butt;stroke-linejoin:miter;stroke:rgb(22.352941%,25.098039%,31.372549%);stroke-opacity:1;stroke-miterlimit:4;" d="M 368.408203 879.266477 L 364.318848 869.256711 " transform="matrix(0.064,0,0,0.064,0,-35.35118)"/>
<path style=" stroke:none;fill-rule:nonzero;fill:rgb(100%,40%,0%);fill-opacity:1;" d="M 10.039062 30.15625 L 23.71875 30.15625 L 23.71875 29.371094 L 10.039062 29.371094 Z M 10.039062 30.15625 "/>
<path style=" stroke:none;fill-rule:nonzero;fill:rgb(100%,40%,0%);fill-opacity:1;" d="M 12.050781 28.511719 L 21.496094 28.511719 L 21.496094 27.722656 L 12.050781 27.722656 Z M 12.050781 28.511719 "/>
</g>
</svg>
