<?xml version="1.0" encoding="UTF-8"?>
<svg xmlns="http://www.w3.org/2000/svg" xmlns:xlink="http://www.w3.org/1999/xlink" width="32" height="32" viewBox="0 0 32 32" version="1.1">
<g id="surface1">
<path style=" stroke:none;fill-rule:evenodd;fill:rgb(66.666667%,53.333333%,0%);fill-opacity:1;" d="M 4.035156 9.847656 L 7.441406 13.179688 L 7.335938 8.503906 L 4.03125 8.488281 Z M 4.035156 9.847656 "/>
<path style="fill-rule:evenodd;fill:rgb(94.901961%,94.901961%,94.901961%);fill-opacity:1;stroke-width:5.03546;stroke-linecap:butt;stroke-linejoin:miter;stroke:rgb(68.627451%,68.627451%,68.627451%);stroke-opacity:1;stroke-miterlimit:4;" d="M 97.045898 1029.840207 L 433.898926 1028.680539 L 435.119629 664.788937 L 347.045898 575.555539 L 97.045898 575.555539 Z M 97.045898 1029.840207 " transform="matrix(0.064,0,0,0.064,0,-35.35118)"/>
<path style="fill-rule:evenodd;fill:rgb(68.627451%,68.627451%,68.627451%);fill-opacity:1;stroke-width:5.03546;stroke-linecap:butt;stroke-linejoin:miter;stroke:rgb(68.627451%,68.627451%,68.627451%);stroke-opacity:1;stroke-miterlimit:4;" d="M 431.518555 662.896848 L 349.365234 662.347531 L 350.097656 578.546262 Z M 431.518555 662.896848 " transform="matrix(0.064,0,0,0.064,0,-35.35118)"/>
<path style=" stroke:none;fill-rule:nonzero;fill:rgb(83.137255%,66.666667%,0%);fill-opacity:1;" d="M 4.039062 4.46875 L 18.4375 4.46875 L 18.4375 9.867188 L 4.039062 9.867188 Z M 4.039062 4.46875 "/>
<path style=" stroke:none;fill-rule:nonzero;fill:rgb(100%,40%,0%);fill-opacity:1;" d="M 19.523438 19.46875 C 19.523438 22.324219 17.210938 24.640625 14.351562 24.640625 C 11.496094 24.640625 9.179688 22.324219 9.179688 19.46875 C 9.179688 16.609375 11.496094 14.296875 14.351562 14.296875 C 17.210938 14.296875 19.523438 16.609375 19.523438 19.46875 Z M 19.523438 19.46875 "/>
<path style=" stroke:none;fill-rule:nonzero;fill:rgb(83.137255%,66.666667%,0%);fill-opacity:1;" d="M 16.839844 18.097656 L 26.320312 18.097656 L 26.320312 26.71875 L 16.839844 26.71875 Z M 16.839844 18.097656 "/>
<path style=" stroke:none;fill-rule:nonzero;fill:rgb(100%,80%,0%);fill-opacity:1;" d="M 9.953125 29.472656 L 20.296875 29.472656 L 15.144531 20.542969 Z M 9.953125 29.472656 "/>
<path style=" stroke:none;fill-rule:nonzero;fill:rgb(27.058824%,81.568627%,24.705882%);fill-opacity:1;" d="M 14.375 19.664062 L 15.921875 19.664062 L 15.921875 21.214844 L 14.375 21.214844 Z M 14.375 19.664062 "/>
<path style=" stroke:none;fill-rule:nonzero;fill:rgb(27.058824%,81.568627%,24.705882%);fill-opacity:1;" d="M 8.722656 28.484375 L 10.273438 28.484375 L 10.273438 30.035156 L 8.722656 30.035156 Z M 8.722656 28.484375 "/>
<path style=" stroke:none;fill-rule:nonzero;fill:rgb(27.058824%,81.568627%,24.705882%);fill-opacity:1;" d="M 20.058594 28.363281 L 21.609375 28.363281 L 21.609375 29.914062 L 20.058594 29.914062 Z M 20.058594 28.363281 "/>
</g>
</svg>
