<?xml version="1.0" encoding="UTF-8"?>
<svg xmlns="http://www.w3.org/2000/svg" xmlns:xlink="http://www.w3.org/1999/xlink" width="32" height="32" viewBox="0 0 32 32" version="1.1">
<g id="surface1">
<path style=" stroke:none;fill-rule:evenodd;fill:rgb(0%,40%,50.196078%);fill-opacity:1;" d="M 4.035156 9.847656 L 7.441406 13.179688 L 7.335938 8.503906 L 4.03125 8.488281 Z M 4.035156 9.847656 "/>
<path style="fill-rule:evenodd;fill:rgb(94.901961%,94.901961%,94.901961%);fill-opacity:1;stroke-width:5.03546;stroke-linecap:butt;stroke-linejoin:miter;stroke:rgb(68.627451%,68.627451%,68.627451%);stroke-opacity:1;stroke-miterlimit:4;" d="M 97.045898 1029.840207 L 433.898926 1028.680539 L 435.119629 664.788937 L 347.045898 575.555539 L 97.045898 575.555539 Z M 97.045898 1029.840207 " transform="matrix(0.064,0,0,0.064,0,-35.35118)"/>
<path style="fill-rule:evenodd;fill:rgb(68.627451%,68.627451%,68.627451%);fill-opacity:1;stroke-width:5.03546;stroke-linecap:butt;stroke-linejoin:miter;stroke:rgb(68.627451%,68.627451%,68.627451%);stroke-opacity:1;stroke-miterlimit:4;" d="M 431.518555 662.896848 L 349.365234 662.347531 L 350.097656 578.546262 Z M 431.518555 662.896848 " transform="matrix(0.064,0,0,0.064,0,-35.35118)"/>
<path style=" stroke:none;fill-rule:nonzero;fill:rgb(0%,73.333333%,94.901961%);fill-opacity:1;" d="M 4.039062 4.46875 L 18.4375 4.46875 L 18.4375 9.867188 L 4.039062 9.867188 Z M 4.039062 4.46875 "/>
<path style=" stroke:none;fill-rule:nonzero;fill:rgb(0%,73.333333%,94.901961%);fill-opacity:1;" d="M 7.492188 22.453125 L 26.523438 22.453125 L 26.523438 23.230469 L 7.492188 23.230469 Z M 7.492188 22.453125 "/>
<path style=" stroke:none;fill-rule:nonzero;fill:rgb(0%,73.333333%,94.901961%);fill-opacity:1;" d="M 7.492188 24.398438 L 26.550781 24.398438 L 26.550781 25.179688 L 7.492188 25.179688 Z M 7.492188 24.398438 "/>
<path style=" stroke:none;fill-rule:nonzero;fill:rgb(0%,73.333333%,94.901961%);fill-opacity:1;" d="M 7.492188 26.175781 L 26.691406 26.175781 L 26.691406 26.953125 L 7.492188 26.953125 Z M 7.492188 26.175781 "/>
<path style=" stroke:none;fill-rule:nonzero;fill:rgb(0%,73.333333%,94.901961%);fill-opacity:1;" d="M 7.492188 27.871094 L 20.539062 27.871094 L 20.539062 28.648438 L 7.492188 28.648438 Z M 7.492188 27.871094 "/>
<path style="fill-rule:nonzero;fill:rgb(37.254902%,73.72549%,82.745098%);fill-opacity:1;stroke-width:4.506265;stroke-linecap:round;stroke-linejoin:round;stroke:rgb(0%,73.333333%,94.901961%);stroke-opacity:1;stroke-miterlimit:4;" d="M 265.832948 775.244729 L 413.538015 775.228026 L 413.488379 884.664087 L 265.844348 884.680759 Z M 265.832948 775.244729 " transform="matrix(0.064,0.000033684,-0.0000423607,0.064,0,-35.35118)"/>
<path style=" stroke:none;fill-rule:nonzero;fill:rgb(98.039216%,92.54902%,42.745098%);fill-opacity:1;" d="M 25.589844 16.324219 C 25.589844 16.867188 25.148438 17.304688 24.609375 17.304688 C 24.066406 17.304688 23.628906 16.867188 23.628906 16.328125 C 23.625 15.785156 24.0625 15.34375 24.605469 15.34375 C 25.148438 15.34375 25.585938 15.78125 25.589844 16.320312 "/>
<path style="fill-rule:nonzero;fill:rgb(0%,40%,50.196078%);fill-opacity:1;stroke-width:0.187761;stroke-linecap:butt;stroke-linejoin:miter;stroke:rgb(0%,0%,0%);stroke-opacity:1;stroke-miterlimit:4;" d="M 267.63916 842.279172 L 267.39502 882.74548 L 410.827637 882.684445 L 410.400391 849.176145 C 410.400391 849.176145 390.197754 855.645871 372.680664 853.631711 C 355.163574 851.617551 328.430176 831.59802 309.814453 830.865598 C 291.19873 830.072141 267.63916 842.279172 267.63916 842.279172 Z M 267.63916 842.279172 " transform="matrix(0.064,0,0,0.064,0,-35.35118)"/>
<path style=" stroke:none;fill-rule:nonzero;fill:rgb(0%,73.333333%,94.901961%);fill-opacity:1;" d="M 7.492188 20.621094 L 15.859375 20.621094 L 15.859375 21.398438 L 7.492188 21.398438 Z M 7.492188 20.621094 "/>
<path style=" stroke:none;fill-rule:nonzero;fill:rgb(0%,73.333333%,94.901961%);fill-opacity:1;" d="M 7.492188 18.847656 L 15.859375 18.847656 L 15.859375 19.621094 L 7.492188 19.621094 Z M 7.492188 18.847656 "/>
<path style=" stroke:none;fill-rule:nonzero;fill:rgb(0%,73.333333%,94.901961%);fill-opacity:1;" d="M 7.492188 17.152344 L 15.859375 17.152344 L 15.859375 17.929688 L 7.492188 17.929688 Z M 7.492188 17.152344 "/>
<path style=" stroke:none;fill-rule:nonzero;fill:rgb(0%,73.333333%,94.901961%);fill-opacity:1;" d="M 7.492188 15.496094 L 15.859375 15.496094 L 15.859375 16.273438 L 7.492188 16.273438 Z M 7.492188 15.496094 "/>
<path style=" stroke:none;fill-rule:nonzero;fill:rgb(0%,73.333333%,94.901961%);fill-opacity:1;" d="M 9.363281 13.921875 L 15.953125 13.921875 L 15.953125 14.699219 L 9.363281 14.699219 Z M 9.363281 13.921875 "/>
</g>
</svg>
