<?xml version="1.0" encoding="UTF-8"?>
<svg xmlns="http://www.w3.org/2000/svg" xmlns:xlink="http://www.w3.org/1999/xlink" width="32" height="32" viewBox="0 0 32 32" version="1.1">
<g id="surface1">
<path style=" stroke:none;fill-rule:nonzero;fill:rgb(100%,100%,100%);fill-opacity:1;" d="M 22.898438 4.921875 L 11.011719 16.742188 C 8.410156 19.332031 7.210938 22.359375 8.320312 23.53125 C 9.433594 24.703125 12.421875 23.566406 15.023438 20.980469 L 26.914062 9.15625 C 29.515625 6.570312 30.714844 3.542969 29.601562 2.367188 C 28.492188 1.195312 25.5 2.332031 22.898438 4.921875 Z M 22.898438 4.921875 "/>
<path style=" stroke:none;fill-rule:nonzero;fill:rgb(100%,100%,100%);fill-opacity:1;" d="M 6.101562 4.859375 L 3.640625 7.398438 L 15.488281 16.398438 L 24.566406 28.320312 L 27.105469 25.867188 L 21.824219 10.140625 Z M 6.101562 4.859375 "/>
<path style=" stroke:none;fill-rule:nonzero;fill:rgb(100%,100%,100%);fill-opacity:1;" d="M 12.597656 19.300781 L 3.410156 18.613281 L 2.011719 20.027344 L 7.707031 24.246094 L 11.871094 29.933594 L 13.273438 28.523438 Z M 12.597656 19.300781 "/>
</g>
</svg>
