<?xml version="1.0" encoding="UTF-8"?>
<svg xmlns="http://www.w3.org/2000/svg" xmlns:xlink="http://www.w3.org/1999/xlink" width="32" height="32" viewBox="0 0 32 32" version="1.1">
<g id="surface1">
<path style=" stroke:none;fill-rule:nonzero;fill:rgb(74.509804%,74.509804%,74.509804%);fill-opacity:1;" d="M 12.820312 10 C 12.339844 10.085938 11.992188 10.511719 12 11 L 12 16 L 9 16 C 8.640625 15.996094 8.304688 16.183594 8.121094 16.496094 C 7.941406 16.808594 7.941406 17.191406 8.121094 17.503906 C 8.304688 17.816406 8.640625 18.003906 9 18 L 13 18 C 13.550781 18 14 17.554688 14 17 L 14 11 C 14.003906 10.699219 13.875 10.410156 13.644531 10.21875 C 13.414062 10.023438 13.109375 9.941406 12.8125 10 Z M 12.820312 10 "/>
<path style=" stroke:none;fill-rule:nonzero;fill:rgb(74.509804%,74.509804%,74.509804%);fill-opacity:1;" d="M 22 22 L 24.75 22 L 27 24.1875 L 29.1875 22 L 32 22 L 32 24.9375 L 29.8125 27.0625 L 32 29.1875 L 32 32 L 29.125 32 L 27 29.875 L 24.875 32 L 22 32 L 22 29.1875 L 24.125 27.0625 L 22 24.9375 Z M 22 22 "/>
<path style=" stroke:none;fill-rule:nonzero;fill:rgb(74.509804%,74.509804%,74.509804%);fill-opacity:1;" d="M 13 4 C 5.84375 4 0 9.84375 0 17 C 0 24.15625 5.84375 30 13 30 C 15.582031 30 17.96875 29.25 20 27.9375 L 20 22.625 C 18.359375 24.679688 15.859375 26 13 26 C 8.003906 26 4 21.992188 4 17 C 4 12.003906 8.003906 8 13 8 C 17.992188 8 22 12.003906 22 17 C 22 18.066406 21.773438 19.054688 21.4375 20 L 25.625 20 C 25.855469 19.035156 26 18.03125 26 17 C 26 9.84375 20.15625 4 13 4 Z M 13 4 "/>
<path style=" stroke:none;fill-rule:nonzero;fill:rgb(100%,0%,0%);fill-opacity:1;" d="M 22.074219 30.503906 L 22.074219 29.117188 L 23.121094 28.0625 L 24.167969 27.011719 L 22.074219 24.902344 L 22.074219 21.992188 L 24.710938 21.992188 L 25.832031 23.105469 L 26.949219 24.21875 L 28.089844 23.105469 L 29.226562 21.992188 L 31.972656 21.992188 L 31.972656 24.914062 L 29.804688 27.070312 L 31.972656 29.253906 L 31.972656 31.890625 L 29.0625 31.890625 L 28.007812 30.84375 L 26.957031 29.796875 L 24.847656 31.890625 L 22.074219 31.890625 Z M 22.074219 30.503906 "/>
<path style=" stroke:none;fill-rule:nonzero;fill:rgb(100%,100%,100%);fill-opacity:1;" d="M 11.394531 29.855469 C 6.402344 29.15625 2.339844 25.808594 0.722656 21.058594 C -0.0351562 18.824219 -0.0976562 15.65625 0.578125 13.382812 C 1.859375 9.0625 5.238281 5.753906 9.683594 4.472656 C 10.613281 4.207031 11.050781 4.167969 13.058594 4.171875 C 15.167969 4.175781 15.460938 4.207031 16.554688 4.542969 C 17.832031 4.9375 19.324219 5.636719 20.3125 6.308594 C 21.210938 6.917969 22.832031 8.519531 23.515625 9.472656 C 24.222656 10.460938 25.207031 12.515625 25.511719 13.65625 C 25.976562 15.378906 26.042969 18.078125 25.664062 19.585938 L 25.570312 19.960938 L 23.535156 19.960938 C 21.78125 19.960938 21.515625 19.929688 21.582031 19.753906 C 21.625 19.644531 21.761719 19.050781 21.882812 18.441406 C 22.257812 16.59375 22.011719 14.980469 21.042969 12.945312 C 19.761719 10.261719 17.085938 8.378906 14.070312 8.042969 C 11.21875 7.722656 8.625 8.621094 6.628906 10.613281 C 2 15.242188 3.636719 23.015625 9.746094 25.429688 C 12.902344 26.671875 16.492188 25.980469 19.128906 23.617188 L 19.910156 22.914062 L 19.835938 28.027344 L 18.683594 28.601562 C 16.605469 29.640625 13.574219 30.160156 11.394531 29.855469 Z M 11.394531 29.855469 "/>
<path style=" stroke:none;fill-rule:nonzero;fill:rgb(100%,100%,100%);fill-opacity:1;" d="M 8.375 17.675781 C 7.964844 17.347656 7.972656 16.601562 8.386719 16.265625 C 8.632812 16.066406 8.960938 16.027344 10.359375 16.027344 L 12.039062 16.027344 L 12.039062 13.339844 C 12.039062 10.824219 12.058594 10.636719 12.316406 10.359375 C 12.664062 9.984375 13.308594 9.972656 13.667969 10.332031 C 13.925781 10.589844 13.9375 10.785156 13.9375 13.992188 C 13.9375 17.203125 13.925781 17.398438 13.667969 17.652344 C 13.417969 17.90625 13.214844 17.925781 11.039062 17.925781 C 8.953125 17.925781 8.644531 17.898438 8.375 17.675781 Z M 8.375 17.675781 "/>
</g>
</svg>
