<?xml version="1.0" encoding="UTF-8"?>
<svg xmlns="http://www.w3.org/2000/svg" xmlns:xlink="http://www.w3.org/1999/xlink" width="32" height="32" viewBox="0 0 32 32" version="1.1">
<g id="surface1">
<path style=" stroke:none;fill-rule:nonzero;fill:rgb(74.509804%,74.509804%,74.509804%);fill-opacity:1;" d="M 13 0 C 5.84375 0 0 5.84375 0 13 C 0 20.15625 5.84375 26 13 26 C 13.339844 26 13.664062 25.964844 14 25.9375 L 14 21.875 C 13.664062 21.910156 13.34375 22 13 22 C 8.003906 22 4 17.992188 4 13 C 4 8.003906 8.003906 4 13 4 C 17.992188 4 22 8.003906 22 13 C 22 13.34375 21.910156 13.664062 21.875 14 L 25.9375 14 C 25.964844 13.664062 26 13.339844 26 13 C 26 5.84375 20.15625 0 13 0 Z M 13 0 "/>
<path style=" stroke:none;fill-rule:nonzero;fill:rgb(74.509804%,74.509804%,74.509804%);fill-opacity:1;" d="M 12.820312 6 C 12.339844 6.089844 11.992188 6.511719 12 7 L 12 12 L 9 12 C 8.640625 11.996094 8.304688 12.183594 8.121094 12.496094 C 7.941406 12.808594 7.941406 13.191406 8.121094 13.503906 C 8.304688 13.816406 8.640625 14.003906 9 14 L 13 14 C 13.550781 14 14 13.550781 14 13 L 14 7 C 14.003906 6.699219 13.875 6.410156 13.644531 6.21875 C 13.414062 6.023438 13.109375 5.945312 12.8125 6 Z M 12.820312 6 "/>
<path style=" stroke:none;fill-rule:nonzero;fill:rgb(96.078431%,47.45098%,0%);fill-opacity:1;" d="M 17.757812 16.140625 C 16.773438 16.140625 16.007812 16.898438 16.007812 17.875 L 16.007812 30.265625 C 16.007812 31.242188 16.773438 32 17.757812 32 L 30.257812 32 C 31.246094 32 32.007812 31.242188 32.007812 30.265625 L 32.007812 17.875 C 32.007812 16.898438 31.246094 16.140625 30.257812 16.140625 Z M 22.007812 18.121094 L 26.007812 18.121094 L 26.007812 26.054688 L 22.007812 26.054688 Z M 22.007812 28.035156 L 26.007812 28.035156 L 26.007812 30.019531 L 22.007812 30.019531 Z M 22.007812 28.035156 "/>
<path style=" stroke:none;fill-rule:nonzero;fill:rgb(100%,100%,100%);fill-opacity:1;" d="M 10.820312 25.769531 C 9.582031 25.566406 7.496094 24.78125 6.320312 24.078125 C 5.019531 23.300781 3.121094 21.503906 2.28125 20.246094 C 1.539062 19.136719 0.878906 17.707031 0.488281 16.351562 C 0.21875 15.421875 0.175781 14.976562 0.175781 12.976562 C 0.175781 10.957031 0.214844 10.535156 0.492188 9.585938 C 1.742188 5.324219 5.007812 1.957031 9.144531 0.65625 C 16.085938 -1.519531 23.5 2.511719 25.460938 9.527344 C 25.792969 10.726562 26.03125 12.773438 25.917969 13.484375 L 25.835938 13.992188 L 22.007812 13.992188 L 22 12.738281 C 21.984375 10.359375 21.125 8.402344 19.292969 6.582031 C 18.023438 5.320312 16.625 4.550781 14.929688 4.175781 C 10.25 3.140625 5.484375 6.066406 4.234375 10.738281 C 3.925781 11.894531 3.917969 14.035156 4.222656 15.214844 C 5.234375 19.160156 8.828125 21.992188 12.8125 21.992188 L 13.9375 21.992188 L 13.9375 25.925781 L 12.753906 25.910156 C 12.101562 25.902344 11.230469 25.839844 10.820312 25.769531 Z M 10.820312 25.769531 "/>
<path style=" stroke:none;fill-rule:nonzero;fill:rgb(100%,100%,100%);fill-opacity:1;" d="M 8.546875 13.828125 C 8.035156 13.582031 7.929688 12.796875 8.34375 12.332031 C 8.527344 12.128906 8.8125 12.09375 10.300781 12.09375 L 12.039062 12.09375 L 12.039062 9.375 C 12.039062 6.671875 12.042969 6.65625 12.375 6.324219 C 12.78125 5.917969 13.113281 5.90625 13.582031 6.273438 L 13.9375 6.554688 L 13.9375 13.328125 L 13.605469 13.660156 C 13.277344 13.988281 13.234375 13.992188 11.0625 13.984375 C 9.761719 13.976562 8.726562 13.914062 8.546875 13.828125 Z M 8.546875 13.828125 "/>
</g>
</svg>
