<?xml version="1.0" encoding="UTF-8"?>
<svg xmlns="http://www.w3.org/2000/svg" xmlns:xlink="http://www.w3.org/1999/xlink" width="32" height="32" viewBox="0 0 32 32" version="1.1">
<g id="surface1">
<path style=" stroke:none;fill-rule:nonzero;fill:rgb(74.509804%,74.509804%,74.509804%);fill-opacity:1;" d="M 10 16 L 10 20 L 22 20 L 22 16 Z M 10 16 "/>
<path style=" stroke:none;fill-rule:nonzero;fill:rgb(74.509804%,74.509804%,74.509804%);fill-opacity:1;" d="M 10.9375 0 C 9.957031 0 9.34375 0.457031 8.875 0.9375 C 8.402344 1.417969 8 2.058594 8 2.996094 L 8 3.996094 L 4 3.996094 L 4 31.996094 L 28 31.996094 L 28 3.996094 L 24 3.996094 L 24 3.1875 C 23.953125 2.324219 23.660156 1.679688 23.1875 1.121094 C 22.738281 0.59375 21.933594 0.0625 20.875 0.0625 L 20.875 -0.00390625 L 10.9375 -0.00390625 Z M 12 4 L 20 4 L 20 8 L 24 8 L 24 28 L 8 28 L 8 8 L 12 8 Z M 12 4 "/>
<path style=" stroke:none;fill-rule:nonzero;fill:rgb(74.509804%,74.509804%,74.509804%);fill-opacity:1;" d="M 10 22 L 10 26 L 22 26 L 22 22 Z M 10 22 "/>
<path style=" stroke:none;fill-rule:nonzero;fill:rgb(0%,0%,0%);fill-opacity:1;" d="M 4.023438 17.988281 L 4.023438 3.996094 L 8.023438 3.996094 L 8.023438 3.304688 C 8.023438 2.746094 8.042969 2.542969 8.105469 2.289062 C 8.359375 1.300781 9.265625 0.382812 10.273438 0.0898438 C 10.503906 0.0234375 10.929688 0.015625 15.691406 0.00390625 C 19.25 -0.0078125 20.863281 0.00390625 20.863281 0.03125 C 20.863281 0.0546875 20.929688 0.078125 21.007812 0.078125 C 21.226562 0.078125 21.757812 0.195312 22.019531 0.300781 C 22.707031 0.578125 23.335938 1.191406 23.667969 1.898438 C 23.867188 2.328125 23.960938 2.753906 23.984375 3.410156 L 24.011719 3.996094 L 28.003906 3.996094 L 28.003906 31.980469 L 4.023438 31.980469 Z M 24 18.007812 L 24 8 L 19.996094 8 L 19.996094 3.996094 L 11.988281 3.996094 L 11.988281 8 L 7.984375 8 L 7.984375 28.019531 L 24 28.019531 Z M 24 18.007812 "/>
<path style=" stroke:none;fill-rule:nonzero;fill:rgb(100%,0%,0%);fill-opacity:1;" d="M 10.007812 17.988281 L 10.007812 16.007812 L 21.976562 16.007812 L 21.976562 19.96875 L 10.007812 19.96875 Z M 10.007812 17.988281 "/>
<path style=" stroke:none;fill-rule:nonzero;fill:rgb(100%,0%,0%);fill-opacity:1;" d="M 10.007812 24.015625 L 10.007812 22.035156 L 21.976562 22.035156 L 21.976562 25.996094 L 10.007812 25.996094 Z M 10.007812 24.015625 "/>
<path style=" stroke:none;fill-rule:nonzero;fill:rgb(100%,100%,100%);fill-opacity:1;" d="M 4.039062 17.992188 L 4.039062 4.09375 L 8.109375 4.09375 L 8.109375 3.277344 C 8.109375 1.976562 8.605469 1.09375 9.734375 0.390625 C 10.199219 0.101562 10.347656 0.09375 15.292969 0.0507812 C 18.757812 0.0195312 20.632812 0.0546875 21.191406 0.160156 C 22.792969 0.46875 23.636719 1.382812 23.878906 3.074219 L 24.027344 4.09375 L 27.90625 4.09375 L 27.90625 31.890625 L 4.039062 31.890625 Z M 24.074219 18.027344 L 24.039062 7.960938 L 20.039062 7.882812 L 20.039062 3.960938 L 11.90625 3.960938 L 11.90625 7.890625 L 7.972656 7.890625 L 7.972656 28.09375 L 24.109375 28.09375 Z M 24.074219 18.027344 "/>
</g>
</svg>
