<?xml version="1.0" encoding="UTF-8"?>
<svg xmlns="http://www.w3.org/2000/svg" xmlns:xlink="http://www.w3.org/1999/xlink" width="32" height="32" viewBox="0 0 32 32" version="1.1">
<g id="surface1">
<path style=" stroke:none;fill-rule:nonzero;fill:rgb(74.509804%,74.509804%,74.509804%);fill-opacity:1;" d="M 10.941406 0 C 9.957031 0 9.347656 0.457031 8.878906 0.9375 C 8.398438 1.417969 8 2.058594 8 2.996094 L 8 3.996094 L 4 3.996094 L 4 31.996094 L 19.996094 31.996094 L 19.996094 27.996094 L 8 27.996094 L 8 7.996094 L 12 7.996094 L 12 3.996094 L 19.996094 3.996094 L 19.996094 7.996094 L 23.996094 7.996094 L 23.996094 13.996094 L 27.996094 13.996094 L 27.996094 3.996094 L 23.996094 3.996094 L 23.996094 3.125 C 23.949219 2.261719 23.65625 1.679688 23.183594 1.121094 C 22.738281 0.59375 21.929688 0.0625 20.871094 0.0625 L 20.871094 -0.00390625 L 10.9375 -0.00390625 Z M 10.941406 0 "/>
<path style=" stroke:none;fill-rule:nonzero;fill:rgb(74.509804%,74.509804%,74.509804%);fill-opacity:1;" d="M 25.757812 16 C 25.3125 16.046875 24.894531 16.246094 24.570312 16.5625 L 18.570312 22.5625 C 17.980469 23.132812 17.796875 24.007812 18.109375 24.765625 C 18.425781 25.523438 19.171875 26.015625 19.992188 26.003906 L 25.117188 26.003906 L 22.554688 28.5625 C 22.035156 29.078125 21.828125 29.828125 22.015625 30.535156 C 22.203125 31.242188 22.753906 31.792969 23.460938 31.980469 C 24.164062 32.164062 24.917969 31.960938 25.429688 31.4375 L 31.429688 25.4375 C 32.023438 24.867188 32.207031 23.988281 31.886719 23.226562 C 31.566406 22.464844 30.816406 21.976562 29.992188 22 L 24.867188 22 L 27.429688 19.4375 C 28.074219 18.835938 28.25 17.886719 27.863281 17.09375 C 27.476562 16.304688 26.617188 15.855469 25.746094 15.996094 Z M 25.757812 16 "/>
<path style=" stroke:none;fill-rule:nonzero;fill:rgb(74.509804%,74.509804%,74.509804%);fill-opacity:1;" d="M 30 22 L 32 22 L 32 24 L 30 24 Z M 30 22 "/>
<path style=" stroke:none;fill-rule:nonzero;fill:rgb(74.509804%,74.509804%,74.509804%);fill-opacity:1;" d="M 18 24 L 20 24 L 20 26 L 18 26 Z M 18 24 "/>
<path style=" stroke:none;fill-rule:nonzero;fill:rgb(74.509804%,74.509804%,74.509804%);fill-opacity:1;" d="M 26 16 L 28 16 L 28 18 L 26 18 Z M 26 16 "/>
<path style=" stroke:none;fill-rule:nonzero;fill:rgb(74.509804%,74.509804%,74.509804%);fill-opacity:1;" d="M 22 30 L 24 30 L 24 32 L 22 32 Z M 22 30 "/>
<path style=" stroke:none;fill-rule:nonzero;fill:rgb(74.509804%,74.509804%,74.509804%);fill-opacity:1;" d="M 24.320312 16.878906 L 20.320312 22.878906 L 23.695312 25.128906 L 27.695312 19.128906 Z M 24.320312 16.878906 "/>
<path style=" stroke:none;fill-rule:nonzero;fill:rgb(74.509804%,74.509804%,74.509804%);fill-opacity:1;" d="M 26.320312 22.878906 L 22.320312 28.878906 L 25.695312 31.128906 L 29.695312 25.128906 Z M 26.320312 22.878906 "/>
<path style=" stroke:none;fill-rule:nonzero;fill:rgb(0%,0%,0%);fill-opacity:1;" d="M 4.054688 17.996094 L 4.054688 4.039062 L 8.011719 4.039062 L 8.042969 3.144531 C 8.070312 2.316406 8.089844 2.21875 8.304688 1.777344 C 8.578125 1.222656 9.265625 0.539062 9.808594 0.285156 C 10.003906 0.191406 10.375 0.0859375 10.632812 0.0546875 C 10.890625 0.0234375 13.25 -0.0078125 15.871094 -0.0078125 C 21.070312 -0.0117188 21.34375 0.0078125 22.203125 0.410156 C 22.757812 0.667969 23.382812 1.3125 23.667969 1.921875 C 23.871094 2.351562 23.902344 2.507812 23.9375 3.207031 L 23.976562 4.003906 L 25.984375 4.023438 L 27.992188 4.039062 L 27.992188 13.945312 L 24.011719 13.945312 L 24.011719 7.945312 L 20.035156 7.945312 L 20.035156 3.96875 L 12.007812 3.96875 L 12.007812 7.941406 L 7.996094 7.980469 L 7.996094 28.011719 L 19.960938 28.046875 L 19.960938 31.953125 L 4.054688 31.953125 Z M 4.054688 17.996094 "/>
<path style=" stroke:none;fill-rule:nonzero;fill:rgb(100%,100%,0%);fill-opacity:1;" d="M 22.847656 31.976562 L 22.078125 31.949219 L 22.03125 30.8125 C 21.992188 29.910156 22 29.617188 22.082031 29.386719 C 22.140625 29.226562 22.648438 28.414062 23.207031 27.582031 C 23.769531 26.75 24.230469 26.039062 24.230469 26.007812 C 24.230469 25.972656 23.230469 25.945312 22.003906 25.949219 C 20.78125 25.953125 19.378906 25.957031 18.890625 25.953125 L 18 25.949219 L 18.023438 24.667969 C 18.042969 23.585938 18.066406 23.34375 18.179688 23.128906 C 18.253906 22.992188 19.78125 21.40625 21.574219 19.605469 C 24.261719 16.914062 24.902344 16.308594 25.203125 16.175781 C 25.539062 16.027344 25.660156 16.015625 26.757812 16.03125 C 27.410156 16.042969 27.953125 16.054688 27.964844 16.066406 C 27.972656 16.074219 27.988281 16.601562 28.003906 17.238281 C 28.019531 18.121094 28 18.453125 27.921875 18.648438 C 27.863281 18.785156 27.375 19.566406 26.832031 20.382812 C 26.289062 21.195312 25.824219 21.90625 25.792969 21.953125 C 25.75 22.027344 26.371094 22.046875 28.824219 22.042969 C 30.523438 22.042969 31.921875 22.050781 31.9375 22.0625 C 31.949219 22.074219 31.96875 22.621094 31.976562 23.277344 C 31.996094 24.382812 31.988281 24.492188 31.835938 24.828125 C 31.703125 25.121094 31.046875 25.816406 28.4375 28.421875 C 24.902344 31.960938 24.90625 31.957031 24.054688 31.988281 C 23.8125 31.996094 23.269531 31.992188 22.847656 31.976562 Z M 22.847656 31.976562 "/>
<path style=" stroke:none;fill-rule:nonzero;fill:rgb(100%,100%,100%);fill-opacity:1;" d="M 4.175781 17.992188 L 4.175781 4.09375 L 8.078125 4.09375 L 8.128906 3.101562 C 8.1875 1.976562 8.539062 1.28125 9.378906 0.640625 C 10.117188 0.078125 11.117188 -0.00390625 16.496094 0.0546875 C 20.742188 0.0976562 21.394531 0.132812 21.871094 0.34375 C 23.003906 0.84375 23.835938 1.996094 23.835938 3.0625 C 23.835938 4.128906 23.765625 4.09375 25.953125 4.09375 L 27.90625 4.09375 L 27.90625 13.859375 L 24.109375 13.859375 L 24.109375 7.890625 L 20.039062 7.890625 L 20.039062 3.960938 L 11.90625 3.960938 L 11.90625 7.890625 L 7.972656 7.890625 L 7.972656 28.09375 L 19.90625 28.09375 L 19.90625 31.890625 L 4.175781 31.890625 Z M 4.175781 17.992188 "/>
</g>
</svg>
