<?xml version="1.0" encoding="UTF-8"?>
<svg xmlns="http://www.w3.org/2000/svg" xmlns:xlink="http://www.w3.org/1999/xlink" width="32" height="32" viewBox="0 0 32 32" version="1.1">
<g id="surface1">
<path style=" stroke:none;fill-rule:nonzero;fill:rgb(93.72549%,16.078431%,16.078431%);fill-opacity:1;" d="M 10 22 L 10 26 L 16 26 L 16 22 Z M 10 22 "/>
<path style=" stroke:none;fill-rule:nonzero;fill:rgb(74.509804%,74.509804%,74.509804%);fill-opacity:1;" d="M 10.941406 0 C 9.957031 0 9.347656 0.457031 8.878906 0.9375 C 8.398438 1.417969 8 2.058594 8 2.996094 L 8 3.996094 L 4 3.996094 L 4 31.996094 L 19.996094 31.996094 L 19.996094 27.996094 L 8 27.996094 L 8 7.996094 L 12 7.996094 L 12 3.996094 L 19.996094 3.996094 L 19.996094 7.996094 L 23.996094 7.996094 L 23.996094 13.996094 L 27.996094 13.996094 L 27.996094 3.996094 L 23.996094 3.996094 L 23.996094 3.125 C 23.949219 2.261719 23.65625 1.679688 23.183594 1.121094 C 22.738281 0.59375 21.929688 0.0625 20.871094 0.0625 L 20.871094 -0.00390625 L 10.9375 -0.00390625 Z M 10.941406 0 "/>
<path style=" stroke:none;fill-rule:nonzero;fill:rgb(74.509804%,74.509804%,74.509804%);fill-opacity:1;" d="M 25.757812 16 C 25.3125 16.046875 24.894531 16.246094 24.570312 16.5625 L 18.570312 22.5625 C 17.980469 23.132812 17.796875 24.007812 18.109375 24.765625 C 18.425781 25.523438 19.171875 26.015625 19.992188 26.003906 L 25.117188 26.003906 L 22.554688 28.5625 C 22.035156 29.078125 21.828125 29.828125 22.015625 30.535156 C 22.203125 31.242188 22.753906 31.792969 23.460938 31.980469 C 24.164062 32.164062 24.917969 31.960938 25.429688 31.4375 L 31.429688 25.4375 C 32.023438 24.867188 32.207031 23.988281 31.886719 23.226562 C 31.566406 22.464844 30.816406 21.976562 29.992188 22 L 24.867188 22 L 27.429688 19.4375 C 28.074219 18.835938 28.25 17.886719 27.863281 17.09375 C 27.476562 16.304688 26.617188 15.855469 25.746094 15.996094 Z M 25.757812 16 "/>
<path style=" stroke:none;fill-rule:nonzero;fill:rgb(74.509804%,74.509804%,74.509804%);fill-opacity:1;" d="M 30 22 L 32 22 L 32 24 L 30 24 Z M 30 22 "/>
<path style=" stroke:none;fill-rule:nonzero;fill:rgb(74.509804%,74.509804%,74.509804%);fill-opacity:1;" d="M 18 24 L 20 24 L 20 26 L 18 26 Z M 18 24 "/>
<path style=" stroke:none;fill-rule:nonzero;fill:rgb(74.509804%,74.509804%,74.509804%);fill-opacity:1;" d="M 26 16 L 28 16 L 28 18 L 26 18 Z M 26 16 "/>
<path style=" stroke:none;fill-rule:nonzero;fill:rgb(74.509804%,74.509804%,74.509804%);fill-opacity:1;" d="M 22 30 L 24 30 L 24 32 L 22 32 Z M 22 30 "/>
<path style=" stroke:none;fill-rule:nonzero;fill:rgb(74.509804%,74.509804%,74.509804%);fill-opacity:1;" d="M 24.320312 16.878906 L 20.320312 22.878906 L 23.695312 25.128906 L 27.695312 19.128906 Z M 24.320312 16.878906 "/>
<path style=" stroke:none;fill-rule:nonzero;fill:rgb(74.509804%,74.509804%,74.509804%);fill-opacity:1;" d="M 26.320312 22.878906 L 22.320312 28.878906 L 25.695312 31.128906 L 29.695312 25.128906 Z M 26.320312 22.878906 "/>
<path style=" stroke:none;fill-rule:nonzero;fill:rgb(0%,0%,0%);fill-opacity:1;" d="M 4.023438 17.988281 L 4.023438 3.996094 L 8.015625 3.996094 L 8.035156 3.183594 C 8.050781 2.480469 8.066406 2.332031 8.144531 2.117188 C 8.480469 1.179688 9.347656 0.359375 10.273438 0.0898438 C 10.503906 0.0234375 10.929688 0.015625 15.691406 0.00390625 C 19.25 -0.0078125 20.863281 0.00390625 20.863281 0.03125 C 20.863281 0.0546875 20.929688 0.078125 21.007812 0.078125 C 21.226562 0.078125 21.757812 0.195312 22.019531 0.300781 C 22.699219 0.578125 23.3125 1.164062 23.667969 1.886719 C 23.871094 2.296875 23.960938 2.703125 23.988281 3.390625 L 24.011719 3.996094 L 28.003906 3.996094 L 28.003906 13.984375 L 24 13.984375 L 24 8 L 19.996094 8 L 19.996094 3.996094 L 11.988281 3.996094 L 11.988281 8 L 7.984375 8 L 7.984375 28.019531 L 19.996094 28.019531 L 19.996094 31.980469 L 4.023438 31.980469 Z M 4.023438 17.988281 "/>
<path style=" stroke:none;fill-rule:nonzero;fill:rgb(100%,100%,0%);fill-opacity:1;" d="M 22.820312 31.992188 L 22.03125 31.980469 L 22.003906 30.828125 C 21.972656 29.511719 21.996094 29.359375 22.296875 28.917969 C 22.378906 28.792969 22.855469 28.085938 23.347656 27.351562 L 24.246094 26.015625 L 18.027344 25.996094 L 18.003906 24.875 C 17.984375 23.976562 17.992188 23.707031 18.039062 23.523438 C 18.183594 22.960938 18.089844 23.070312 21.5625 19.59375 C 24.582031 16.570312 24.820312 16.339844 25.070312 16.222656 C 25.523438 16.015625 25.660156 16 26.867188 16.003906 C 27.476562 16.007812 27.980469 16.015625 27.984375 16.019531 C 27.992188 16.023438 28 16.566406 28.007812 17.226562 C 28.023438 18.40625 28.019531 18.425781 27.921875 18.667969 C 27.871094 18.800781 27.363281 19.605469 26.800781 20.453125 C 26.234375 21.300781 25.773438 22.003906 25.773438 22.015625 C 25.773438 22.03125 26.808594 22.039062 28.074219 22.035156 C 29.339844 22.03125 30.730469 22.027344 31.164062 22.03125 L 31.953125 22.035156 L 31.980469 23.179688 C 32.007812 24.257812 32.003906 24.34375 31.925781 24.59375 C 31.878906 24.742188 31.785156 24.953125 31.714844 25.066406 C 31.558594 25.320312 25.386719 31.5 25.097656 31.691406 C 24.636719 32 24.460938 32.023438 22.820312 31.992188 Z M 22.820312 31.992188 "/>
<path style=" stroke:none;fill-rule:nonzero;fill:rgb(100%,100%,100%);fill-opacity:1;" d="M 4.039062 17.992188 L 4.039062 4.09375 L 8.109375 4.09375 L 8.109375 3.207031 C 8.109375 1.929688 8.585938 1.121094 9.796875 0.351562 C 10.167969 0.113281 10.585938 0.0898438 15.285156 0.0507812 C 18.757812 0.0195312 20.632812 0.0546875 21.191406 0.160156 C 22.792969 0.46875 23.636719 1.382812 23.878906 3.074219 L 24.027344 4.09375 L 27.90625 4.09375 L 27.90625 13.859375 L 24.113281 13.859375 L 24.078125 10.910156 L 24.039062 7.960938 L 20.039062 7.882812 L 20.039062 3.960938 L 11.90625 3.960938 L 11.90625 7.890625 L 7.972656 7.890625 L 7.972656 28.09375 L 19.90625 28.09375 L 19.90625 31.890625 L 4.039062 31.890625 Z M 4.039062 17.992188 "/>
</g>
</svg>
