<?xml version="1.0" encoding="UTF-8"?>
<svg xmlns="http://www.w3.org/2000/svg" xmlns:xlink="http://www.w3.org/1999/xlink" width="32" height="32" viewBox="0 0 32 32" version="1.1">
<g id="surface1">
<path style=" stroke:none;fill-rule:nonzero;fill:rgb(100%,100%,100%);fill-opacity:1;" d="M 10.941406 0 C 9.957031 0 9.347656 0.457031 8.878906 0.9375 C 8.398438 1.417969 8 2.058594 8 2.996094 L 8 3.996094 L 4 3.996094 L 4 31.996094 L 27.996094 31.996094 L 27.996094 3.996094 L 23.996094 3.996094 L 23.996094 3.125 C 23.949219 2.261719 23.65625 1.679688 23.183594 1.121094 C 22.738281 0.59375 21.933594 0.0625 20.871094 0.0625 L 20.871094 -0.00390625 L 10.9375 -0.00390625 Z M 12.003906 4 L 20.003906 4 L 20.003906 8 L 24.003906 8 L 24.003906 28 L 8.003906 28 L 8.003906 8 L 12.003906 8 Z M 12.003906 4 "/>
</g>
</svg>
