<?xml version="1.0" encoding="UTF-8"?>
<svg xmlns="http://www.w3.org/2000/svg" xmlns:xlink="http://www.w3.org/1999/xlink" width="32" height="32" viewBox="0 0 32 32" version="1.1">
<g id="surface1">
<path style=" stroke:none;fill-rule:nonzero;fill:rgb(74.509804%,74.509804%,74.509804%);fill-opacity:1;" d="M 10 10 L 10 14 L 22 14 L 22 10 Z M 10 16 L 10 20 L 18 20 L 18.5 19.75 L 22 16.25 L 22 16 Z M 10 22.125 L 10 26 L 16 26 L 16 22.125 Z M 10 22.125 "/>
<path style=" stroke:none;fill-rule:nonzero;fill:rgb(74.509804%,74.509804%,74.509804%);fill-opacity:1;" d="M 10.941406 0 C 9.957031 0 9.347656 0.457031 8.878906 0.9375 C 8.398438 1.417969 8 2.058594 8 2.996094 L 8 3.996094 L 4 3.996094 L 4 31.996094 L 19.996094 31.996094 L 19.996094 27.996094 L 8 27.996094 L 8 7.996094 L 12 7.996094 L 12 3.996094 L 19.996094 3.996094 L 19.996094 7.996094 L 23.996094 7.996094 L 23.996094 13.996094 L 27.996094 13.996094 L 27.996094 3.996094 L 23.996094 3.996094 L 23.996094 3.125 C 23.949219 2.261719 23.65625 1.679688 23.183594 1.121094 C 22.738281 0.59375 21.929688 0.0625 20.871094 0.0625 L 20.871094 -0.00390625 L 10.9375 -0.00390625 Z M 10.941406 0 "/>
<path style=" stroke:none;fill-rule:nonzero;fill:rgb(74.509804%,74.509804%,74.509804%);fill-opacity:1;" d="M 25.5 16 C 25.144531 16.097656 24.816406 16.292969 24.5625 16.5625 L 18.5625 22.5 C 18.089844 22.960938 17.871094 23.726562 18 24.375 L 18 26 L 24.25 26 L 22.5625 28.5 C 22.257812 28.796875 22.070312 29.207031 22 29.625 L 22 32 L 24 32 C 24.527344 32.007812 25.054688 31.738281 25.4375 31.375 L 31.4375 25.375 C 31.804688 24.996094 32.011719 24.527344 32 24 C 32.007812 23.917969 32.007812 23.832031 32 23.75 L 32 22 L 30.125 22 C 30.085938 22 30.042969 22 30 22 L 25.75 22 L 27.4375 19.375 C 27.742188 19.078125 27.929688 18.710938 28 18.3125 L 28 16 Z M 25.5 16 "/>
<path style=" stroke:none;fill-rule:nonzero;fill:rgb(0%,0%,0%);fill-opacity:1;" d="M 4.023438 17.988281 L 4.023438 3.996094 L 8.015625 3.996094 L 8.035156 3.183594 C 8.050781 2.480469 8.066406 2.332031 8.144531 2.117188 C 8.480469 1.179688 9.347656 0.359375 10.273438 0.0898438 C 10.503906 0.0234375 10.929688 0.015625 15.691406 0.00390625 C 19.25 -0.0078125 20.863281 0.00390625 20.863281 0.03125 C 20.863281 0.0546875 20.929688 0.078125 21.007812 0.078125 C 21.226562 0.078125 21.757812 0.195312 22.019531 0.300781 C 22.699219 0.578125 23.3125 1.164062 23.667969 1.886719 C 23.871094 2.296875 23.960938 2.703125 23.988281 3.390625 L 24.011719 3.996094 L 28.003906 3.996094 L 28.003906 13.984375 L 24 13.984375 L 24 8 L 19.996094 8 L 19.996094 3.996094 L 11.988281 3.996094 L 11.988281 8 L 7.984375 8 L 7.984375 28.019531 L 19.996094 28.019531 L 19.996094 31.980469 L 4.023438 31.980469 Z M 4.023438 17.988281 "/>
<path style=" stroke:none;fill-rule:nonzero;fill:rgb(100%,100%,0%);fill-opacity:1;" d="M 22.027344 30.691406 L 22.039062 29.402344 L 22.1875 29.089844 C 22.269531 28.917969 22.390625 28.714844 22.460938 28.636719 C 22.578125 28.5 24.246094 26.050781 24.246094 26.011719 C 24.246094 26.003906 22.847656 25.996094 21.136719 25.996094 L 18.023438 25.996094 L 18.003906 24.890625 C 17.984375 23.679688 18.007812 23.429688 18.207031 23.023438 C 18.335938 22.753906 18.890625 22.1875 22.457031 18.667969 C 24.722656 16.429688 24.875 16.289062 25.160156 16.152344 L 25.460938 16.007812 L 28.003906 16.007812 L 28 17.132812 C 28 18.320312 27.980469 18.492188 27.796875 18.855469 C 27.746094 18.957031 27.636719 19.125 27.550781 19.226562 C 27.339844 19.480469 25.734375 21.980469 25.765625 22.011719 C 25.777344 22.023438 27.175781 22.035156 28.871094 22.035156 L 31.960938 22.035156 L 31.972656 22.972656 C 31.992188 24.210938 31.960938 24.492188 31.796875 24.835938 C 31.675781 25.085938 31.398438 25.375 28.398438 28.371094 C 25.585938 31.183594 25.101562 31.648438 24.894531 31.75 C 24.457031 31.960938 24.316406 31.980469 23.121094 31.980469 L 22.011719 31.980469 Z M 22.027344 30.691406 "/>
<path style=" stroke:none;fill-rule:nonzero;fill:rgb(100%,0%,0%);fill-opacity:1;" d="M 10.007812 24.078125 L 10.007812 22.15625 L 15.992188 22.15625 L 15.992188 25.996094 L 10.007812 25.996094 Z M 10.007812 24.078125 "/>
<path style=" stroke:none;fill-rule:nonzero;fill:rgb(100%,0%,0%);fill-opacity:1;" d="M 10.007812 17.988281 L 10.007812 16.007812 L 21.976562 16.007812 L 21.976562 16.121094 C 21.976562 16.214844 21.683594 16.527344 20.210938 17.996094 C 18.839844 19.367188 18.398438 19.78125 18.230469 19.863281 L 18.015625 19.96875 L 10.007812 19.96875 Z M 10.007812 17.988281 "/>
<path style=" stroke:none;fill-rule:nonzero;fill:rgb(100%,0%,0%);fill-opacity:1;" d="M 10.007812 12.003906 L 10.007812 10.023438 L 21.976562 10.023438 L 21.976562 13.984375 L 10.007812 13.984375 Z M 10.007812 12.003906 "/>
<path style=" stroke:none;fill-rule:nonzero;fill:rgb(100%,100%,100%);fill-opacity:1;" d="M 4.039062 17.992188 L 4.039062 4.09375 L 8.109375 4.09375 L 8.109375 3.207031 C 8.109375 1.929688 8.585938 1.121094 9.796875 0.351562 C 10.167969 0.113281 10.585938 0.0898438 15.285156 0.0507812 C 18.757812 0.0195312 20.632812 0.0546875 21.191406 0.160156 C 22.792969 0.46875 23.636719 1.382812 23.878906 3.074219 L 24.027344 4.09375 L 27.90625 4.09375 L 27.90625 13.859375 L 24.113281 13.859375 L 24.078125 10.910156 L 24.039062 7.960938 L 20.039062 7.882812 L 20.039062 3.960938 L 11.90625 3.960938 L 11.90625 7.890625 L 7.972656 7.890625 L 7.972656 28.09375 L 19.90625 28.09375 L 19.90625 31.890625 L 4.039062 31.890625 Z M 4.039062 17.992188 "/>
</g>
</svg>
