<?xml version="1.0" encoding="UTF-8"?>
<svg xmlns="http://www.w3.org/2000/svg" xmlns:xlink="http://www.w3.org/1999/xlink" width="32" height="32" viewBox="0 0 32 32" version="1.1">
<g id="surface1">
<path style=" stroke:none;fill-rule:nonzero;fill:rgb(74.509804%,74.509804%,74.509804%);fill-opacity:1;" d="M 10 22 L 10 26 L 22 26 L 22 22 Z M 10 22 "/>
<path style=" stroke:none;fill-rule:nonzero;fill:rgb(74.509804%,74.509804%,74.509804%);fill-opacity:1;" d="M 10.9375 0 C 9.957031 0 9.34375 0.457031 8.875 0.9375 C 8.40625 1.417969 8 1.992188 8 2.9375 L 8 3.996094 L 4 3.996094 L 4 31.996094 L 28 31.996094 L 28 3.996094 L 24 3.996094 L 24 3.125 C 23.953125 2.261719 23.660156 1.679688 23.1875 1.121094 C 22.742188 0.59375 21.933594 0.0625 20.875 0.0625 L 20.875 -0.00390625 L 10.9375 -0.00390625 Z M 12 4 L 20 4 L 20 8 L 24 8 L 24 28 L 8 28 L 8 8 L 12 8 Z M 12 4 "/>
<path style=" stroke:none;fill-rule:nonzero;fill:rgb(100%,0%,0%);fill-opacity:1;" d="M 10.007812 24.015625 L 10.007812 22.035156 L 21.976562 22.035156 L 21.976562 25.996094 L 10.007812 25.996094 Z M 10.007812 24.015625 "/>
<path style=" stroke:none;fill-rule:nonzero;fill:rgb(0%,0%,0%);fill-opacity:1;" d="M 4.023438 17.988281 L 4.023438 3.996094 L 8.019531 3.996094 L 8.035156 3.183594 C 8.050781 2.484375 8.066406 2.328125 8.140625 2.09375 C 8.363281 1.421875 9.136719 0.570312 9.800781 0.265625 C 10.378906 0.00390625 10.007812 0.0195312 15.691406 0.00390625 C 19.25 -0.0078125 20.863281 0.00390625 20.863281 0.03125 C 20.863281 0.0546875 20.929688 0.078125 21.007812 0.078125 C 21.210938 0.078125 21.742188 0.191406 21.992188 0.289062 C 22.707031 0.570312 23.449219 1.304688 23.738281 2.019531 C 23.910156 2.441406 23.960938 2.726562 23.984375 3.367188 L 24.011719 3.996094 L 28.003906 3.996094 L 28.003906 31.980469 L 4.023438 31.980469 Z M 24 18.007812 L 24 8 L 19.996094 8 L 19.996094 3.996094 L 11.988281 3.996094 L 11.988281 8 L 7.984375 8 L 7.984375 28.019531 L 24 28.019531 Z M 24 18.007812 "/>
<path style=" stroke:none;fill-rule:nonzero;fill:rgb(100%,100%,100%);fill-opacity:1;" d="M 4.039062 17.992188 L 4.039062 4.09375 L 8.109375 4.09375 L 8.109375 3.222656 C 8.109375 2.152344 8.226562 1.824219 8.871094 1.109375 C 9.804688 0.078125 9.617188 0.109375 15.226562 0.0507812 C 21.007812 -0.0117188 21.722656 0.0585938 22.664062 0.78125 C 23.398438 1.339844 23.808594 2.144531 23.921875 3.253906 L 24.011719 4.09375 L 27.90625 4.09375 L 27.90625 31.890625 L 4.039062 31.890625 Z M 24.074219 18.027344 L 24.039062 7.960938 L 20.039062 7.882812 L 20.039062 3.960938 L 11.90625 3.960938 L 11.90625 7.890625 L 7.972656 7.890625 L 7.972656 28.09375 L 24.109375 28.09375 Z M 24.074219 18.027344 "/>
</g>
</svg>
