<?xml version="1.0" encoding="UTF-8"?>
<svg xmlns="http://www.w3.org/2000/svg" xmlns:xlink="http://www.w3.org/1999/xlink" width="32" height="32" viewBox="0 0 32 32" version="1.1">
<g id="surface1">
<path style=" stroke:none;fill-rule:nonzero;fill:rgb(100%,100%,100%);fill-opacity:1;" d="M 15.019531 1.332031 C 13.441406 1.558594 12.613281 3.324219 12.8125 4.792969 C 12.824219 6.511719 12.84375 8.238281 12.855469 9.957031 C 12.089844 9.175781 11.300781 8.113281 10.066406 8.246094 C 8.507812 8.269531 7.238281 9.933594 7.769531 11.429688 C 8.273438 12.636719 9.378906 13.390625 10.222656 14.332031 C 10.765625 14.878906 11.308594 15.429688 11.855469 15.980469 C 10.636719 17.246094 9.308594 18.425781 8.167969 19.746094 C 7.144531 21.183594 8.261719 23.496094 10.042969 23.542969 C 11.238281 23.761719 12.207031 22.730469 12.9375 21.894531 C 12.972656 24.121094 12.886719 26.355469 13.019531 28.578125 C 13.253906 30.0625 14.988281 31.109375 16.363281 30.484375 C 17.566406 29.988281 18.214844 28.769531 19.148438 27.929688 C 20.574219 26.375 22.066406 24.847656 23.429688 23.253906 C 24.199219 22.019531 23.550781 20.457031 22.480469 19.644531 C 21.261719 18.414062 20.050781 17.1875 18.832031 15.957031 C 20.324219 14.414062 21.878906 12.914062 23.3125 11.332031 C 24.296875 10.054688 23.535156 8.339844 22.371094 7.488281 C 20.496094 5.589844 18.675781 3.636719 16.765625 1.777344 C 16.269531 1.410156 15.628906 1.292969 15.019531 1.332031 Z M 15.105469 2.1875 C 16.546875 2.050781 17.199219 3.648438 18.179688 4.410156 C 19.648438 5.953125 21.195312 7.433594 22.621094 9.007812 C 23.398438 10.105469 22.4375 11.203125 21.613281 11.898438 C 20.289062 13.257812 18.953125 14.601562 17.625 15.957031 C 19.277344 17.578125 20.894531 19.265625 22.511719 20.898438 C 23.410156 21.925781 22.621094 23.183594 21.738281 23.886719 C 20.050781 25.691406 18.386719 27.488281 16.726562 29.269531 C 16.019531 30.027344 14.710938 29.976562 14.152344 29.058594 C 13.546875 28.011719 13.925781 26.71875 13.800781 25.5625 C 13.800781 24.027344 13.800781 22.488281 13.792969 20.957031 C 12.882812 19.769531 11.976562 22.097656 11.089844 22.46875 C 10.101562 23.179688 8.640625 22.316406 8.644531 21.125 C 8.628906 19.902344 9.925781 19.304688 10.589844 18.441406 C 11.410156 17.621094 12.226562 16.800781 13.042969 15.980469 C 11.648438 14.503906 10.171875 13.105469 8.800781 11.613281 C 7.96875 10.53125 9.113281 8.898438 10.414062 9.117188 C 11.527344 9.425781 12.109375 10.597656 12.980469 11.292969 C 13.195312 11.398438 13.722656 12.242188 13.707031 11.800781 C 13.714844 9.183594 13.652344 6.5625 13.675781 3.945312 C 13.761719 3.160156 14.25 2.296875 15.105469 2.1875 Z M 16.25 7.0625 C 16.246094 8.9375 16.273438 10.8125 16.269531 12.6875 C 17.195312 11.769531 18.101562 10.835938 19.019531 9.917969 C 18.113281 8.949219 17.148438 8.039062 16.25 7.0625 Z M 17.105469 9.167969 C 17.25 9.457031 18 9.746094 17.691406 10.039062 C 17.285156 10.527344 16.949219 10.851562 17.113281 9.894531 C 17.109375 9.652344 17.105469 9.410156 17.105469 9.167969 Z M 16.355469 19.3125 C 16.355469 21.144531 16.355469 22.980469 16.355469 24.8125 C 17.238281 23.871094 18.136719 22.941406 19.019531 22 C 18.128906 21.105469 17.25 20.199219 16.355469 19.3125 Z M 17.230469 21.417969 C 17.457031 21.707031 18.082031 21.988281 17.542969 22.296875 C 17.144531 22.9375 17.222656 22.324219 17.230469 21.910156 C 17.230469 21.746094 17.230469 21.582031 17.230469 21.417969 Z M 17.230469 21.417969 "/>
</g>
</svg>
