<?xml version="1.0" encoding="UTF-8"?>
<svg xmlns="http://www.w3.org/2000/svg" xmlns:xlink="http://www.w3.org/1999/xlink" width="32" height="32" viewBox="0 0 32 32" version="1.1">
<g id="surface1">
<path style=" stroke:none;fill-rule:nonzero;fill:rgb(100%,100%,100%);fill-opacity:1;" d="M 16 1.332031 C 15.945312 1.335938 15.886719 1.34375 15.832031 1.355469 C 15.324219 1.488281 14.945312 1.914062 14.875 2.4375 C 14.875 2.457031 14.875 2.480469 14.875 2.5 C 14.855469 2.519531 14.832031 2.542969 14.8125 2.5625 C 14.808594 2.597656 14.808594 2.632812 14.8125 2.667969 C 14.777344 2.761719 14.753906 2.859375 14.75 2.957031 L 14.8125 12.875 L 11.480469 9.5 C 11.191406 9.070312 10.675781 8.851562 10.164062 8.945312 C 9.652344 9.042969 9.25 9.433594 9.136719 9.9375 C 9.027344 10.441406 9.222656 10.96875 9.644531 11.269531 L 14.292969 15.980469 L 9.644531 20.625 C 9.292969 20.949219 9.148438 21.4375 9.265625 21.898438 C 9.382812 22.359375 9.746094 22.722656 10.207031 22.839844 C 10.667969 22.957031 11.15625 22.808594 11.480469 22.457031 L 14.875 19.019531 L 14.917969 28.9375 C 14.925781 29.015625 14.949219 29.09375 14.980469 29.167969 C 14.980469 29.1875 14.980469 29.207031 14.980469 29.230469 C 14.917969 29.773438 15.203125 30.292969 15.691406 30.539062 C 16.183594 30.78125 16.769531 30.691406 17.167969 30.3125 L 23.582031 23.4375 C 24.046875 22.917969 24.019531 22.128906 23.519531 21.644531 L 17.917969 15.980469 L 23.519531 10.25 C 24.019531 9.765625 24.046875 8.976562 23.582031 8.457031 L 17.042969 1.75 C 16.777344 1.460938 16.394531 1.308594 16 1.332031 Z M 16.582031 4.980469 L 20.832031 9.332031 L 16.644531 13.5625 Z M 25.480469 11.144531 C 24.941406 11.144531 24.402344 11.308594 23.980469 11.6875 C 23.554688 12.066406 23.269531 12.660156 23.269531 13.355469 L 23.269531 14.394531 L 23.25 14.394531 C 22.636719 14.394531 22.125 14.90625 22.125 15.519531 L 22.125 18.8125 C 22.125 19.425781 22.636719 19.9375 23.25 19.9375 L 27.667969 19.9375 C 28.28125 19.9375 28.769531 19.425781 28.769531 18.8125 L 28.769531 15.519531 C 28.769531 14.917969 28.308594 14.414062 27.707031 14.394531 L 27.707031 13.355469 C 27.707031 12.660156 27.402344 12.066406 26.980469 11.6875 C 26.554688 11.308594 26.019531 11.144531 25.480469 11.144531 Z M 25.480469 12.25 C 25.769531 12.25 26.050781 12.347656 26.25 12.519531 C 26.449219 12.695312 26.605469 12.9375 26.605469 13.355469 L 26.605469 14.394531 L 24.375 14.394531 L 24.375 13.355469 C 24.375 12.9375 24.511719 12.695312 24.707031 12.519531 C 24.90625 12.347656 25.1875 12.25 25.480469 12.25 Z M 16.707031 18.4375 L 20.832031 22.582031 L 16.75 26.9375 Z M 16.707031 18.4375 "/>
</g>
</svg>
