<?xml version="1.0" encoding="UTF-8"?>
<svg xmlns="http://www.w3.org/2000/svg" xmlns:xlink="http://www.w3.org/1999/xlink" width="32" height="32" viewBox="0 0 32 32" version="1.1">
<g id="surface1">
<path style=" stroke:none;fill-rule:nonzero;fill:rgb(74.509804%,74.509804%,74.509804%);fill-opacity:1;" d="M 13.75 0.0195312 C 12.742188 0.148438 11.992188 1.007812 12 2.019531 L 12 9.144531 L 9.4375 6.582031 C 8.925781 6.0625 8.171875 5.855469 7.46875 6.042969 C 6.761719 6.230469 6.210938 6.78125 6.023438 7.488281 C 5.835938 8.191406 6.042969 8.945312 6.5625 9.457031 L 12 14.898438 L 12 17.148438 L 6.5625 22.585938 C 6.039062 23.097656 5.835938 23.847656 6.023438 24.554688 C 6.210938 25.261719 6.757812 25.8125 7.464844 26 C 8.171875 26.1875 8.921875 25.980469 9.4375 25.460938 L 12 22.898438 L 12 30.019531 C 11.980469 30.84375 12.46875 31.59375 13.226562 31.914062 C 13.988281 32.230469 14.863281 32.050781 15.4375 31.457031 L 23.4375 23.457031 C 23.828125 23.082031 24.046875 22.5625 24.046875 22.019531 C 24.046875 21.476562 23.828125 20.960938 23.4375 20.582031 L 18.875 16.023438 L 23.4375 11.460938 C 23.828125 11.082031 24.046875 10.5625 24.046875 10.023438 C 24.046875 9.480469 23.828125 8.960938 23.4375 8.585938 L 15.4375 0.585938 C 14.992188 0.144531 14.367188 -0.0625 13.75 0.0234375 Z M 16 6.902344 L 19.125 10.019531 L 16 13.140625 L 16 6.890625 Z M 16 18.898438 L 19.125 22.019531 L 16 25.140625 L 16 18.890625 Z M 16 18.898438 "/>
<path style=" stroke:none;fill-rule:nonzero;fill:rgb(74.509804%,74.509804%,74.509804%);fill-opacity:1;" d="M 6 6.019531 L 8 6.019531 L 8 8.019531 L 6 8.019531 Z M 6 6.019531 "/>
<path style=" stroke:none;fill-rule:nonzero;fill:rgb(74.509804%,74.509804%,74.509804%);fill-opacity:1;" d="M 6 24.019531 L 8 24.019531 L 8 26.019531 L 6 26.019531 Z M 6 24.019531 "/>
<path style=" stroke:none;fill-rule:nonzero;fill:rgb(74.509804%,74.509804%,74.509804%);fill-opacity:1;" d="M 12 30.019531 L 14 30.019531 L 14 32.019531 L 12 32.019531 Z M 12 30.019531 "/>
<path style=" stroke:none;fill-rule:nonzero;fill:rgb(74.509804%,74.509804%,74.509804%);fill-opacity:1;" d="M 12 0.0195312 L 14 0.0195312 L 14 2.019531 L 12 2.019531 Z M 12 0.0195312 "/>
</g>
</svg>
