<?xml version="1.0" encoding="UTF-8"?>
<svg xmlns="http://www.w3.org/2000/svg" xmlns:xlink="http://www.w3.org/1999/xlink" width="32" height="32" viewBox="0 0 32 32" version="1.1">
<g id="surface1">
<path style=" stroke:none;fill-rule:nonzero;fill:rgb(100%,100%,100%);fill-opacity:1;" d="M 14 4 C 10.710938 4 8 6.710938 8 10 L 8 14 C 8 14 6 14 6 16 L 6 26 L 26 26 L 26 16 C 26 16 26 14 24 14 L 24 10 C 24 6.710938 21.289062 4 18 4 Z M 14 8 L 18 8 C 19.140625 8 20 8.855469 20 10 L 20 14 L 12 14 L 12 10 C 12 8.855469 12.855469 8 14 8 Z M 14 8 "/>
</g>
</svg>
