<?xml version="1.0" encoding="UTF-8"?>
<svg xmlns="http://www.w3.org/2000/svg" xmlns:xlink="http://www.w3.org/1999/xlink" width="32" height="32" viewBox="0 0 32 32" version="1.1">
<g id="surface1">
<path style=" stroke:none;fill-rule:nonzero;fill:rgb(100%,100%,100%);fill-opacity:1;" d="M 14 0 C 10.710938 0 8 2.710938 8 6 L 8 12 L 12 12 L 12 6 C 12 4.859375 12.855469 4 14 4 L 18 4 C 19.140625 4 20 4.859375 20 6 L 20 18 L 6 18 C 4.890625 18 4 18.890625 4 20 L 4 32 L 28 32 L 28 20 C 28 18.890625 27.109375 18 26 18 L 24 18 L 24 6 C 24 2.710938 21.289062 0 18 0 Z M 14 0 "/>
</g>
</svg>
