<?xml version="1.0" encoding="UTF-8"?>
<svg xmlns="http://www.w3.org/2000/svg" xmlns:xlink="http://www.w3.org/1999/xlink" width="32" height="32" viewBox="0 0 32 32" version="1.1">
<g id="surface1">
<path style=" stroke:none;fill-rule:nonzero;fill:rgb(100%,100%,100%);fill-opacity:1;" d="M 14 2 C 10.710938 2 8 4.710938 8 8 L 8 14 L 6 14 C 4.890625 14 4 14.890625 4 16 L 4 28 L 28 28 L 28 16 C 28 14.890625 27.109375 14 26 14 L 24 14 L 24 8 C 24 4.710938 21.289062 2 18 2 Z M 14 6 L 18 6 C 19.140625 6 20 6.859375 20 8 L 20 14 L 12 14 L 12 8 C 12 6.859375 12.855469 6 14 6 Z M 14 6 "/>
</g>
</svg>
