<?xml version="1.0" encoding="UTF-8"?>
<svg xmlns="http://www.w3.org/2000/svg" xmlns:xlink="http://www.w3.org/1999/xlink" width="32" height="32" viewBox="0 0 32 32" version="1.1">
<g id="surface1">
<path style=" stroke:none;fill-rule:nonzero;fill:rgb(74.509804%,74.509804%,74.509804%);fill-opacity:1;" d="M 10 0 C 6.710938 0 4 2.710938 4 6 L 4 12 L 8 12 L 8 6 C 8 4.859375 8.855469 4 10 4 L 14 4 C 15.140625 4 16 4.859375 16 6 L 16 6.5 C 16.535156 6.203125 17.113281 6 17.75 6 L 20 6 C 20 2.710938 17.289062 0 14 0 Z M 3.875 18 C 2.765625 18 1.746094 18.898438 1.875 20 L 1.875 30 L 22 30 L 22 26 L 17.75 26 C 15.726562 26 14 24.269531 14 22.25 L 14 18 Z M 3.875 18 "/>
<path style=" stroke:none;fill-rule:nonzero;fill:rgb(96.078431%,47.45098%,0%);fill-opacity:1;" d="M 17.757812 8 C 16.773438 8 16.007812 8.765625 16.007812 9.75 L 16.007812 22.25 C 16.007812 23.234375 16.773438 24 17.757812 24 L 30.257812 24 C 31.246094 24 32.007812 23.234375 32.007812 22.25 L 32.007812 9.75 C 32.007812 8.769531 31.25 8.007812 30.25 8.007812 L 17.75 8.007812 Z M 22.007812 10 L 26.007812 10 L 26.007812 18 L 22.007812 18 Z M 22.007812 20 L 26.007812 20 L 26.007812 22 L 22.007812 22 Z M 22.007812 20 "/>
<path style=" stroke:none;fill-rule:nonzero;fill:rgb(100%,100%,100%);fill-opacity:1;" d="M 4.039062 8.664062 C 4.039062 6.144531 4.089844 5.183594 4.25 4.574219 C 4.828125 2.34375 6.691406 0.585938 8.917969 0.164062 C 10.066406 -0.0546875 14.417969 -0.0078125 15.339844 0.230469 C 16.871094 0.628906 18.089844 1.460938 18.898438 2.652344 C 19.417969 3.417969 19.90625 4.816406 19.90625 5.53125 L 19.90625 5.992188 L 18.476562 5.992188 C 17.546875 5.992188 16.886719 6.0625 16.585938 6.1875 L 16.121094 6.378906 L 16.03125 5.765625 C 15.914062 5.003906 15.324219 4.289062 14.636719 4.085938 C 14.332031 3.996094 13.191406 3.957031 11.675781 3.984375 C 9.4375 4.023438 9.175781 4.054688 8.828125 4.308594 C 8.03125 4.894531 7.972656 5.199219 7.972656 8.738281 L 7.972656 11.960938 L 4.039062 11.960938 Z M 4.039062 8.664062 "/>
<path style=" stroke:none;fill-rule:nonzero;fill:rgb(100%,100%,100%);fill-opacity:1;" d="M 1.902344 24.648438 C 1.9375 19.484375 1.949219 19.289062 2.21875 18.917969 C 2.84375 18.070312 2.898438 18.0625 8.675781 18.0625 L 13.917969 18.0625 L 13.960938 20.601562 C 14.011719 23.484375 14.128906 23.914062 15.105469 24.894531 C 16.085938 25.871094 16.515625 25.988281 19.398438 26.039062 L 21.9375 26.082031 L 21.9375 29.992188 L 1.863281 29.992188 Z M 1.902344 24.648438 "/>
</g>
</svg>
