<?xml version="1.0" encoding="UTF-8"?>
<svg xmlns="http://www.w3.org/2000/svg" xmlns:xlink="http://www.w3.org/1999/xlink" width="32" height="32" viewBox="0 0 32 32" version="1.1">
<g id="surface1">
<path style=" stroke:none;fill-rule:nonzero;fill:rgb(100%,100%,100%);fill-opacity:1;" d="M 16 18.332031 C 13.511719 18.332031 11.269531 19.355469 9.636719 20.988281 C 9.574219 21.046875 9.539062 21.121094 9.539062 21.207031 C 9.539062 21.292969 9.574219 21.382812 9.636719 21.441406 L 11.679688 23.464844 C 11.800781 23.582031 11.992188 23.582031 12.113281 23.464844 C 13.105469 22.472656 14.484375 21.859375 16 21.859375 C 17.515625 21.859375 18.894531 22.472656 19.886719 23.464844 C 20.007812 23.582031 20.199219 23.582031 20.320312 23.464844 L 22.363281 21.441406 C 22.425781 21.382812 22.460938 21.292969 22.460938 21.207031 C 22.460938 21.121094 22.425781 21.046875 22.363281 20.988281 C 20.730469 19.355469 18.488281 18.332031 16 18.332031 Z M 16 24.136719 C 15.113281 24.136719 14.320312 24.511719 13.738281 25.089844 C 13.625 25.210938 13.625 25.402344 13.738281 25.527344 L 15.78125 27.566406 C 15.902344 27.683594 16.097656 27.683594 16.21875 27.566406 L 18.261719 25.527344 C 18.375 25.402344 18.375 25.210938 18.261719 25.089844 C 17.679688 24.511719 16.886719 24.136719 16 24.136719 Z M 16 24.136719 "/>
</g>
</svg>
