<?xml version="1.0" encoding="UTF-8"?>
<svg xmlns="http://www.w3.org/2000/svg" xmlns:xlink="http://www.w3.org/1999/xlink" width="32" height="32" viewBox="0 0 32 32" version="1.1">
<g id="surface1">
<path style=" stroke:none;fill-rule:nonzero;fill:rgb(100%,100%,100%);fill-opacity:1;" d="M 16 6.738281 C 10.3125 6.738281 5.160156 9.050781 1.433594 12.78125 C 1.371094 12.839844 1.332031 12.914062 1.332031 13 C 1.332031 13.085938 1.371094 13.175781 1.433594 13.238281 L 3.472656 15.277344 C 3.535156 15.339844 3.625 15.378906 3.710938 15.378906 C 3.796875 15.378906 3.871094 15.339844 3.929688 15.277344 C 7.019531 12.1875 11.285156 10.265625 16 10.265625 C 20.714844 10.265625 24.980469 12.1875 28.070312 15.277344 C 28.128906 15.339844 28.203125 15.378906 28.289062 15.378906 C 28.375 15.378906 28.464844 15.339844 28.527344 15.277344 L 30.566406 13.238281 C 30.628906 13.175781 30.667969 13.085938 30.667969 13 C 30.667969 12.914062 30.628906 12.839844 30.566406 12.78125 C 26.839844 9.050781 21.6875 6.738281 16 6.738281 Z M 16 12.542969 C 11.910156 12.542969 8.214844 14.203125 5.535156 16.882812 C 5.472656 16.941406 5.4375 17.035156 5.4375 17.121094 C 5.4375 17.207031 5.472656 17.28125 5.535156 17.339844 L 7.574219 19.382812 C 7.636719 19.441406 7.707031 19.480469 7.792969 19.480469 C 7.878906 19.480469 7.972656 19.441406 8.03125 19.382812 C 10.074219 17.339844 12.886719 16.070312 16 16.070312 C 19.113281 16.070312 21.925781 17.339844 23.96875 19.382812 C 24.027344 19.441406 24.121094 19.480469 24.207031 19.480469 C 24.292969 19.480469 24.363281 19.441406 24.425781 19.382812 L 26.464844 17.339844 C 26.527344 17.28125 26.5625 17.207031 26.5625 17.121094 C 26.5625 17.035156 26.527344 16.941406 26.464844 16.882812 C 23.785156 14.203125 20.089844 12.542969 16 12.542969 Z M 16 18.332031 C 13.511719 18.332031 11.269531 19.355469 9.636719 20.988281 C 9.574219 21.046875 9.539062 21.121094 9.539062 21.207031 C 9.539062 21.292969 9.574219 21.382812 9.636719 21.441406 L 11.679688 23.464844 C 11.800781 23.582031 11.992188 23.582031 12.113281 23.464844 C 13.105469 22.472656 14.484375 21.859375 16 21.859375 C 17.515625 21.859375 18.894531 22.472656 19.886719 23.464844 C 20.007812 23.582031 20.199219 23.582031 20.320312 23.464844 L 22.363281 21.441406 C 22.425781 21.382812 22.460938 21.292969 22.460938 21.207031 C 22.460938 21.121094 22.425781 21.046875 22.363281 20.988281 C 20.730469 19.355469 18.488281 18.332031 16 18.332031 Z M 16 24.136719 C 15.113281 24.136719 14.320312 24.511719 13.738281 25.089844 C 13.625 25.210938 13.625 25.402344 13.738281 25.527344 L 15.78125 27.566406 C 15.902344 27.683594 16.097656 27.683594 16.21875 27.566406 L 18.261719 25.527344 C 18.375 25.402344 18.375 25.210938 18.261719 25.089844 C 17.679688 24.511719 16.886719 24.136719 16 24.136719 Z M 16 24.136719 "/>
</g>
</svg>
