<?xml version="1.0" encoding="UTF-8"?>
<svg xmlns="http://www.w3.org/2000/svg" xmlns:xlink="http://www.w3.org/1999/xlink" width="32" height="32" viewBox="0 0 32 32" version="1.1">
<g id="surface1">
<path style=" stroke:none;fill-rule:nonzero;fill:rgb(100%,100%,100%);fill-opacity:1;" d="M 0.945312 20 L 5 20 C 5.523438 20 5.945312 20.445312 5.945312 21 L 5.945312 23 C 5.945312 23.554688 5.523438 24 5 24 L 0.945312 24 C 0.421875 24 0 23.554688 0 23 L 0 21 C 0 20.445312 0.421875 20 0.945312 20 Z M 0.945312 20 "/>
<path style=" stroke:none;fill-rule:nonzero;fill:rgb(100%,100%,100%);fill-opacity:1;" d="M 26.960938 20 L 30.992188 20 C 31.542969 20 31.992188 20.445312 31.992188 21 L 31.992188 23 C 31.992188 23.554688 31.542969 24 30.992188 24 L 26.960938 24 C 26.40625 24 25.960938 23.554688 25.960938 23 L 25.960938 21 C 25.960938 20.445312 26.40625 20 26.960938 20 Z M 26.960938 20 "/>
<path style=" stroke:none;fill-rule:nonzero;fill:rgb(100%,100%,100%);fill-opacity:1;" d="M 22.351562 12.832031 L 25.203125 9.980469 C 25.59375 9.589844 26.226562 9.589844 26.617188 9.980469 L 28.03125 11.394531 C 28.421875 11.785156 28.421875 12.417969 28.03125 12.808594 L 25.179688 15.660156 C 24.789062 16.050781 24.15625 16.050781 23.765625 15.660156 L 22.351562 14.246094 C 21.960938 13.855469 21.960938 13.222656 22.351562 12.832031 Z M 22.351562 12.832031 "/>
<path style=" stroke:none;fill-rule:nonzero;fill:rgb(100%,100%,100%);fill-opacity:1;" d="M 6.824219 15.660156 L 3.96875 12.808594 C 3.578125 12.417969 3.578125 11.785156 3.96875 11.394531 L 5.382812 9.980469 C 5.777344 9.589844 6.410156 9.589844 6.800781 9.980469 L 9.652344 12.832031 C 10.042969 13.222656 10.042969 13.855469 9.652344 14.246094 L 8.238281 15.660156 C 7.847656 16.050781 7.214844 16.050781 6.824219 15.660156 Z M 6.824219 15.660156 "/>
<path style=" stroke:none;fill-rule:nonzero;fill:rgb(100%,100%,100%);fill-opacity:1;" d="M 14 11 L 14 7 C 14 6.445312 14.445312 6 15 6 L 17 6 C 17.554688 6 18 6.445312 18 7 L 18 11 C 18 11.550781 17.554688 12 17 12 L 15 12 C 14.445312 12 14 11.550781 14 11 Z M 14 11 "/>
<path style=" stroke:none;fill-rule:nonzero;fill:rgb(100%,100%,100%);fill-opacity:1;" d="M 12.5 18 C 12.164062 18.015625 11.855469 18.234375 11.75 18.523438 L 10.078125 22.957031 C 9.875 23.421875 10.328125 24.011719 10.882812 24 C 10.882812 24 13.023438 24 16.019531 24 C 19.011719 24 21.152344 24 21.152344 24 C 21.707031 24.011719 22.164062 23.421875 21.960938 22.957031 L 20.285156 18.523438 C 20.140625 18.136719 19.613281 17.910156 19.191406 18.050781 C 18.765625 18.191406 17.550781 18.574219 16.019531 18.574219 C 14.488281 18.574219 13.269531 18.191406 12.847656 18.050781 C 12.734375 18.011719 12.617188 17.996094 12.5 18 Z M 12.5 18 "/>
</g>
</svg>
