<?xml version="1.0" encoding="UTF-8"?>
<svg xmlns="http://www.w3.org/2000/svg" xmlns:xlink="http://www.w3.org/1999/xlink" width="32" height="32" viewBox="0 0 32 32" version="1.1">
<g id="surface1">
<path style=" stroke:none;fill-rule:nonzero;fill:rgb(100%,100%,100%);fill-opacity:1;" d="M 11.910156 1.335938 C 11.367188 1.390625 10.953125 1.847656 10.949219 2.390625 L 10.949219 17.257812 C 10.949219 17.59375 11.101562 17.914062 11.367188 18.117188 L 16.183594 21.730469 C 16.589844 22.035156 17.152344 22.015625 17.535156 21.683594 L 21.542969 18.144531 C 21.777344 17.941406 21.910156 17.644531 21.910156 17.332031 L 21.910156 9.003906 C 21.910156 8.402344 21.425781 7.921875 20.828125 7.921875 C 20.230469 7.921875 19.746094 8.402344 19.746094 9.003906 L 19.746094 16.863281 L 16.773438 19.496094 L 13.089844 16.71875 L 13.089844 3.472656 L 22.5 3.472656 L 22.5 23.523438 L 16.628906 28.265625 L 9.941406 23.769531 L 9.941406 9.246094 C 9.960938 8.855469 9.761719 8.484375 9.421875 8.285156 C 9.085938 8.082031 8.664062 8.082031 8.324219 8.285156 C 7.988281 8.484375 7.789062 8.855469 7.804688 9.246094 L 7.804688 24.335938 C 7.804688 24.691406 7.980469 25.019531 8.273438 25.21875 L 16.0625 30.480469 C 16.453125 30.746094 16.972656 30.726562 17.339844 30.429688 L 24.246094 24.851562 C 24.503906 24.652344 24.660156 24.34375 24.660156 24.015625 L 24.660156 2.390625 C 24.65625 1.800781 24.171875 1.328125 23.582031 1.335938 L 12.03125 1.335938 C 11.992188 1.332031 11.949219 1.332031 11.910156 1.335938 Z M 11.910156 1.335938 "/>
</g>
</svg>
