<?xml version="1.0" encoding="UTF-8"?>
<svg xmlns="http://www.w3.org/2000/svg" xmlns:xlink="http://www.w3.org/1999/xlink" width="32" height="32" viewBox="0 0 32 32" version="1.1">
<g id="surface1">
<path style=" stroke:none;fill-rule:nonzero;fill:rgb(100%,100%,100%);fill-opacity:1;" d="M 4 14 L 4 18 L 29.9375 18 L 29.9375 14 Z M 4 14 "/>
<path style=" stroke:none;fill-rule:nonzero;fill:rgb(100%,100%,100%);fill-opacity:1;" d="M 7.757812 10 C 7.3125 10.046875 6.894531 10.246094 6.570312 10.5625 L 2.570312 14.5625 L 1.199219 16 L 2.570312 17.4375 L 6.570312 21.4375 C 7.085938 21.957031 7.835938 22.164062 8.542969 21.976562 C 9.25 21.789062 9.800781 21.238281 9.988281 20.53125 C 10.171875 19.828125 9.96875 19.074219 9.445312 18.5625 L 6.867188 16.003906 L 9.429688 13.441406 C 10.074219 12.839844 10.25 11.886719 9.867188 11.097656 C 9.480469 10.304688 8.621094 9.859375 7.75 10 Z M 7.757812 10 "/>
<path style=" stroke:none;fill-rule:nonzero;fill:rgb(100%,100%,100%);fill-opacity:1;" d="M 10 10 L 8 10 L 8 12 L 10 12 Z M 10 10 "/>
<path style=" stroke:none;fill-rule:nonzero;fill:rgb(100%,100%,100%);fill-opacity:1;" d="M 10 20 L 8 20 L 8 22 L 10 22 Z M 10 20 "/>
</g>
</svg>
