<?xml version="1.0" encoding="UTF-8"?>
<svg xmlns="http://www.w3.org/2000/svg" xmlns:xlink="http://www.w3.org/1999/xlink" width="32" height="32" viewBox="0 0 32 32" version="1.1">
<g id="surface1">
<path style=" stroke:none;fill-rule:nonzero;fill:rgb(100%,100%,100%);fill-opacity:1;" d="M 19.75 18 C 19.300781 18.046875 18.882812 18.246094 18.5625 18.5625 L 14.5625 22.5625 L 13.1875 24 L 14.5625 25.4375 L 18.5625 29.4375 C 19.074219 29.957031 19.828125 30.164062 20.53125 29.976562 C 21.238281 29.789062 21.789062 29.238281 21.976562 28.53125 C 22.164062 27.828125 21.957031 27.074219 21.4375 26.5625 L 18.878906 24.003906 L 21.4375 21.441406 C 22.085938 20.839844 22.265625 19.886719 21.875 19.09375 C 21.484375 18.300781 20.621094 17.855469 19.75 18.003906 Z M 19.75 18 "/>
<path style=" stroke:none;fill-rule:nonzero;fill:rgb(100%,100%,100%);fill-opacity:1;" d="M 8 6 C 4.710938 6 2 8.710938 2 12 L 2 20 C 2 23.289062 4.710938 26 8 26 L 10 26 L 10 22 L 8 22 C 6.859375 22 6 21.140625 6 20 L 6 12 C 6 10.855469 6.859375 10 8 10 L 24 10 C 25.140625 10 26 10.855469 26 12 L 26 20 C 26 21.140625 25.140625 22 24 22 L 16 22 L 16 26 L 24 26 C 27.289062 26 30 23.289062 30 20 L 30 12 C 30 8.710938 27.289062 6 24 6 Z M 8 6 "/>
<path style=" stroke:none;fill-rule:nonzero;fill:rgb(100%,100%,100%);fill-opacity:1;" d="M 20 18 L 22 18 L 22 20 L 20 20 Z M 20 18 "/>
<path style=" stroke:none;fill-rule:nonzero;fill:rgb(100%,100%,100%);fill-opacity:1;" d="M 20 28 L 22 28 L 22 30 L 20 30 Z M 20 28 "/>
</g>
</svg>
