<?xml version="1.0" encoding="UTF-8"?>
<svg xmlns="http://www.w3.org/2000/svg" xmlns:xlink="http://www.w3.org/1999/xlink" width="32" height="32" viewBox="0 0 32 32" version="1.1">
<g id="surface1">
<path style=" stroke:none;fill-rule:nonzero;fill:rgb(100%,100%,100%);fill-opacity:1;" d="M 24 6 C 20.710938 6 18 8.710938 18 12 L 18 20 C 18 21.140625 17.140625 22 16 22 L 4 22 L 4 26 L 16 26 C 19.289062 26 22 23.289062 22 20 L 22 12 C 22 10.855469 22.855469 10 24 10 L 30 10 L 30 6 Z M 24 6 "/>
<path style=" stroke:none;fill-rule:nonzero;fill:rgb(100%,100%,100%);fill-opacity:1;" d="M 7.757812 18 C 7.3125 18.046875 6.894531 18.246094 6.570312 18.5625 L 2.570312 22.5625 L 1.199219 24 L 2.570312 25.4375 L 6.570312 29.4375 C 7.085938 29.957031 7.835938 30.164062 8.542969 29.976562 C 9.25 29.789062 9.800781 29.238281 9.988281 28.53125 C 10.171875 27.828125 9.96875 27.074219 9.445312 26.5625 L 6.867188 24.003906 L 9.429688 21.441406 C 10.074219 20.839844 10.25 19.886719 9.867188 19.097656 C 9.480469 18.304688 8.621094 17.859375 7.75 18 Z M 7.757812 18 "/>
<path style=" stroke:none;fill-rule:nonzero;fill:rgb(100%,100%,100%);fill-opacity:1;" d="M 7.757812 2 C 7.3125 2.046875 6.894531 2.246094 6.570312 2.5625 L 2.570312 6.5625 L 1.199219 8 L 2.570312 9.4375 L 6.570312 13.4375 C 7.085938 13.957031 7.835938 14.164062 8.542969 13.976562 C 9.25 13.789062 9.800781 13.238281 9.988281 12.53125 C 10.171875 11.828125 9.96875 11.074219 9.445312 10.5625 L 6.867188 8.003906 L 9.429688 5.441406 C 10.074219 4.839844 10.25 3.890625 9.867188 3.097656 C 9.480469 2.304688 8.621094 1.859375 7.75 2 Z M 7.757812 2 "/>
<path style=" stroke:none;fill-rule:nonzero;fill:rgb(100%,100%,100%);fill-opacity:1;" d="M 16 6 C 16.460938 6 16.882812 6.089844 17.3125 6.1875 C 16.347656 7.289062 15.589844 8.542969 15.25 10 L 4 10 L 4 6 Z M 30 22 L 30 26 L 24 26 C 23.539062 26 23.117188 25.910156 22.6875 25.8125 C 23.648438 24.710938 24.410156 23.457031 24.75 22 Z M 30 22 "/>
<path style=" stroke:none;fill-rule:nonzero;fill:rgb(100%,100%,100%);fill-opacity:1;" d="M 10 18 L 8 18 L 8 20 L 10 20 Z M 10 18 "/>
<path style=" stroke:none;fill-rule:nonzero;fill:rgb(100%,100%,100%);fill-opacity:1;" d="M 10 28 L 8 28 L 8 30 L 10 30 Z M 10 28 "/>
<path style=" stroke:none;fill-rule:nonzero;fill:rgb(100%,100%,100%);fill-opacity:1;" d="M 10 2 L 8 2 L 8 4 L 10 4 Z M 10 2 "/>
<path style=" stroke:none;fill-rule:nonzero;fill:rgb(100%,100%,100%);fill-opacity:1;" d="M 10 12 L 8 12 L 8 14 L 10 14 Z M 10 12 "/>
</g>
</svg>
