<?xml version="1.0" encoding="UTF-8"?>
<svg xmlns="http://www.w3.org/2000/svg" xmlns:xlink="http://www.w3.org/1999/xlink" width="32" height="32" viewBox="0 0 32 32" version="1.1">
<g id="surface1">
<path style=" stroke:none;fill-rule:nonzero;fill:rgb(100%,100%,100%);fill-opacity:1;" d="M 24.230469 7.542969 L 24.230469 9.855469 L 20.230469 9.855469 L 20.125 9.917969 L 14.332031 14.417969 L 8.542969 9.917969 L 8.4375 9.855469 L 2.394531 9.855469 L 2.394531 13.1875 L 8.207031 13.1875 L 12.0625 16.1875 L 8.207031 19.1875 L 2.394531 19.1875 L 2.394531 22.519531 L 8.4375 22.519531 L 8.542969 22.457031 L 14.332031 17.957031 L 20.125 22.457031 L 20.230469 22.519531 L 24.230469 22.519531 L 24.230469 24.832031 L 24.75 24.457031 L 29.417969 21.125 L 29.792969 20.855469 L 29.417969 20.582031 L 24.75 17.25 L 24.230469 16.875 L 24.230469 19.1875 L 20.457031 19.1875 L 16.605469 16.1875 L 20.457031 13.1875 L 24.230469 13.1875 L 24.230469 15.5 L 24.75 15.125 L 29.417969 11.792969 L 29.792969 11.519531 L 29.417969 11.25 L 24.75 7.917969 Z M 24.230469 7.542969 "/>
</g>
</svg>
