<?xml version="1.0" encoding="UTF-8"?>
<svg xmlns="http://www.w3.org/2000/svg" xmlns:xlink="http://www.w3.org/1999/xlink" width="32" height="32" viewBox="0 0 32 32" version="1.1">
<defs>
<clipPath id="clip1">
  <path d="M 2 11.027344 L 20.0625 11.027344 L 20.0625 26.0625 L 2 26.0625 Z M 2 11.027344 "/>
</clipPath>
</defs>
<g id="surface1">
<path style=" stroke:none;fill-rule:nonzero;fill:rgb(100%,100%,100%);fill-opacity:1;" d="M 11 1.980469 C 13.761719 1.980469 16 4.21875 16 6.980469 L 16 17.003906 C 16 19.765625 13.761719 22.003906 11 22.003906 C 8.238281 22.003906 6 19.765625 6 17.003906 L 6 6.980469 C 6 4.21875 8.238281 1.980469 11 1.980469 Z M 11 1.980469 "/>
<g clip-path="url(#clip1)" clip-rule="nonzero">
<path style=" stroke:none;fill-rule:nonzero;fill:rgb(100%,100%,100%);fill-opacity:1;" d="M 11.019531 -3.734375 C 6.046875 -3.734375 2.011719 0.324219 2.011719 5.332031 L 2.011719 16.953125 C 2.011719 21.960938 6.046875 26.015625 11.019531 26.015625 C 15.996094 26.015625 20.027344 21.960938 20.027344 16.953125 L 20.027344 5.332031 C 20.027344 0.324219 15.996094 -3.734375 11.019531 -3.734375 Z M 11.019531 -1.734375 C 14.925781 -1.734375 18.039062 1.402344 18.039062 5.332031 L 18.039062 16.953125 C 18.039062 20.882812 14.925781 24.015625 11.019531 24.015625 C 7.117188 24.015625 4 20.882812 4 16.953125 L 4 5.332031 C 4 1.402344 7.117188 -1.734375 11.019531 -1.734375 Z M 11.019531 -1.734375 "/>
</g>
<path style=" stroke:none;fill-rule:nonzero;fill:rgb(100%,100%,100%);fill-opacity:1;" d="M 4 11 C 4 11.550781 3.554688 12 3 12 C 2.445312 12 2 11.550781 2 11 C 2 10.445312 2.445312 10 3 10 C 3.554688 10 4 10.445312 4 11 Z M 4 11 "/>
<path style=" stroke:none;fill-rule:nonzero;fill:rgb(100%,100%,100%);fill-opacity:1;" d="M 20 11 C 20 11.550781 19.554688 12 19 12 C 18.445312 12 18 11.550781 18 11 C 18 10.445312 18.445312 10 19 10 C 19.554688 10 20 10.445312 20 11 Z M 20 11 "/>
<path style=" stroke:none;fill-rule:nonzero;fill:rgb(100%,100%,100%);fill-opacity:1;" d="M 3.757812 28 C 3.039062 28.039062 2.398438 28.460938 2.074219 29.101562 C 1.75 29.746094 1.796875 30.515625 2.199219 31.117188 C 2.601562 31.714844 3.289062 32.050781 4.007812 32 L 18.070312 32 C 18.792969 32.007812 19.464844 31.628906 19.828125 31.007812 C 20.191406 30.386719 20.191406 29.613281 19.828125 28.992188 C 19.464844 28.367188 18.792969 27.992188 18.070312 28 L 4.011719 28 C 3.929688 27.996094 3.84375 27.996094 3.761719 28 Z M 3.757812 28 "/>
<path style=" stroke:none;fill-rule:nonzero;fill:rgb(100%,100%,100%);fill-opacity:1;" d="M 2 30 L 20 30 L 20 32 L 2 32 Z M 2 30 "/>
<path style=" stroke:none;fill-rule:nonzero;fill:rgb(100%,100%,100%);fill-opacity:1;" d="M 8 24 L 14 24 L 14 32 L 8 32 Z M 8 24 "/>
<path style=" stroke:none;fill-rule:nonzero;fill:rgb(100%,100%,100%);fill-opacity:1;" d="M 29.980469 26.011719 C 29.980469 28.222656 28.1875 30.011719 25.980469 30.011719 C 23.773438 30.011719 21.980469 28.222656 21.980469 26.011719 C 21.980469 23.804688 23.773438 22.011719 25.980469 22.011719 C 28.1875 22.011719 29.980469 23.804688 29.980469 26.011719 Z M 29.980469 26.011719 "/>
<path style=" stroke:none;fill-rule:nonzero;fill:rgb(100%,100%,100%);fill-opacity:1;" d="M 29.980469 16.011719 C 29.980469 18.222656 28.1875 20.011719 25.980469 20.011719 C 23.773438 20.011719 21.980469 18.222656 21.980469 16.011719 C 21.980469 13.800781 23.773438 12.011719 25.980469 12.011719 C 28.1875 12.011719 29.980469 13.800781 29.980469 16.011719 Z M 29.980469 16.011719 "/>
<path style=" stroke:none;fill-rule:nonzero;fill:rgb(100%,100%,100%);fill-opacity:1;" d="M 29.980469 6.011719 C 29.980469 8.222656 28.1875 10.011719 25.980469 10.011719 C 23.773438 10.011719 21.980469 8.222656 21.980469 6.011719 C 21.980469 3.804688 23.773438 2.011719 25.980469 2.011719 C 28.1875 2.011719 29.980469 3.804688 29.980469 6.011719 Z M 29.980469 6.011719 "/>
</g>
</svg>
