<?xml version="1.0" encoding="UTF-8"?>
<svg xmlns="http://www.w3.org/2000/svg" xmlns:xlink="http://www.w3.org/1999/xlink" width="32" height="32" viewBox="0 0 32 32" version="1.1">
<g id="surface1">
<path style=" stroke:none;fill-rule:nonzero;fill:rgb(100%,100%,100%);fill-opacity:1;" d="M 10 14 C 9.378906 14 8.769531 14.179688 8.375 14.5625 L 1.175781 22.003906 L 8.488281 29.441406 C 8.882812 29.820312 9.367188 30.003906 9.988281 30.003906 L 11.988281 30.003906 L 11.988281 28.003906 C 11.988281 27.488281 11.726562 26.945312 11.363281 26.566406 L 8.800781 24.003906 L 17.992188 24.003906 C 19.046875 24.019531 19.992188 23.0625 19.992188 22.003906 C 19.992188 20.949219 19.046875 19.992188 17.992188 20.003906 L 8.738281 20.003906 L 11.175781 17.441406 C 11.542969 17.0625 11.988281 16.519531 11.988281 16.003906 L 11.988281 14.003906 Z M 10 14 "/>
<path style=" stroke:none;fill-rule:nonzero;fill:rgb(100%,100%,100%);fill-opacity:1;" d="M 23.179688 18 C 23.796875 18 24.410156 17.820312 24.804688 17.4375 L 32.003906 9.996094 L 24.691406 2.558594 C 24.296875 2.179688 23.8125 1.996094 23.191406 1.996094 L 21.191406 1.996094 L 21.191406 3.996094 C 21.191406 4.511719 21.453125 5.054688 21.816406 5.433594 L 24.378906 7.996094 L 14.003906 7.996094 C 12.949219 7.984375 12.003906 8.941406 12.003906 9.996094 C 12.003906 11.054688 12.949219 12.011719 14.003906 11.996094 L 24.441406 11.996094 L 22.003906 14.558594 C 21.640625 14.941406 21.191406 15.484375 21.191406 15.996094 L 21.191406 17.996094 Z M 23.179688 18 "/>
</g>
</svg>
