<?xml version="1.0" encoding="UTF-8"?>
<svg xmlns="http://www.w3.org/2000/svg" xmlns:xlink="http://www.w3.org/1999/xlink" width="32" height="32" viewBox="0 0 32 32" version="1.1">
<g id="surface1">
<path style=" stroke:none;fill-rule:nonzero;fill:rgb(100%,100%,100%);fill-opacity:1;" d="M 4.125 0 C 1.824219 0 0 1.820312 0 4.121094 L 0 27.871094 C 0 30.167969 1.824219 31.992188 4.125 31.992188 L 27.875 31.992188 C 30.175781 31.992188 32 30.167969 32 27.871094 L 32 4.121094 C 32 1.820312 30.175781 0 27.875 0 Z M 8 6 L 12 6 L 12 22 C 12 22 12.0625 22 12.0625 22 L 19.9375 22 C 19.949219 21.960938 19.996094 21.96875 20 22 C 20 22.015625 20 21.890625 20 21.9375 L 20 6 L 24 6 L 24 21.933594 C 24 23.058594 23.546875 23.933594 22.875 24.683594 C 22.242188 25.390625 21.171875 25.949219 19.9375 25.933594 L 19.9375 25.996094 L 12 25.996094 C 10.75 25.996094 10.011719 25.515625 9.3125 24.871094 C 8.652344 24.261719 8.023438 23.292969 8.0625 21.996094 L 8 21.996094 Z M 8 6 "/>
</g>
</svg>
