<?xml version="1.0" encoding="UTF-8"?>
<svg xmlns="http://www.w3.org/2000/svg" xmlns:xlink="http://www.w3.org/1999/xlink" width="32" height="32" viewBox="0 0 32 32" version="1.1">
<g id="surface1">
<path style=" stroke:none;fill-rule:nonzero;fill:rgb(96.078431%,47.45098%,0%);fill-opacity:1;" d="M 6 2 C 2 2 2 6 2 6 L 2 26 C 2 30 6 30 6 30 L 26 29.8125 C 30 29.773438 30 26 30 26 L 30 6 C 30 2 26 2 26 2 Z M 16 6.0625 C 19.628906 6.0625 23.257812 7.300781 26 9.8125 L 26 12 L 22.375 12 C 18.6875 9.179688 13.3125 9.179688 9.625 12 L 6 12 L 6 9.8125 C 8.742188 7.300781 12.371094 6.0625 16 6.0625 Z M 16 12.1875 C 18.085938 12.1875 20.160156 12.863281 21.75 14.1875 C 21.835938 14.222656 21.917969 14.265625 22 14.3125 L 22 16 L 10 16 L 10 14.375 C 10.078125 14.304688 10.160156 14.242188 10.25 14.1875 C 11.839844 12.863281 13.914062 12.1875 16 12.1875 Z M 16 18 C 18.210938 18 20 19.789062 20 22 C 20 24.210938 18.210938 26 16 26 C 13.789062 26 12 24.210938 12 22 C 12 19.789062 13.789062 18 16 18 Z M 16 18 "/>
</g>
</svg>
