<?xml version="1.0" encoding="UTF-8"?>
<svg xmlns="http://www.w3.org/2000/svg" xmlns:xlink="http://www.w3.org/1999/xlink" width="32" height="32" viewBox="0 0 32 32" version="1.1">
<g id="surface1">
<path style=" stroke:none;fill-rule:nonzero;fill:rgb(100%,100%,100%);fill-opacity:1;" d="M 20 26 C 20 28.210938 18.210938 30 16 30 C 13.789062 30 12 28.210938 12 26 C 12 23.789062 13.789062 22 16 22 C 18.210938 22 20 23.789062 20 26 Z M 20 26 "/>
<path style=" stroke:none;fill-rule:nonzero;fill:rgb(100%,100%,100%);fill-opacity:1;" d="M 16 4 C 10.371094 4 5.65625 6 2 9.171875 L 2 12 L 4.960938 12 C 8 9.46875 11.398438 8 16 8 C 20.597656 8 24 9.558594 27.039062 12 L 30 12 L 30 9.238281 C 26.71875 6.304688 21.628906 4 16 4 Z M 16 4 "/>
<path style=" stroke:none;fill-rule:nonzero;fill:rgb(100%,100%,100%);fill-opacity:1;" d="M 16 10 C 11.667969 10 7.960938 11.476562 6 14 L 6 16 L 10 16 C 11.578125 14.785156 13.515625 14 16 14 C 18.480469 14 20.4375 14.785156 22 16 L 26 16 L 26 14 C 24.011719 11.554688 20.253906 10 16 10 Z M 16 10 "/>
<path style=" stroke:none;fill-rule:nonzero;fill:rgb(100%,100%,100%);fill-opacity:1;" d="M 16 16 C 13.484375 16 11.566406 16.621094 10 18 L 10 20 L 22 20 L 22 18 C 20.324219 16.65625 18.515625 16 16 16 Z M 16 16 "/>
</g>
</svg>
