<?xml version="1.0" encoding="UTF-8"?>
<svg xmlns="http://www.w3.org/2000/svg" xmlns:xlink="http://www.w3.org/1999/xlink" width="32" height="32" viewBox="0 0 32 32" version="1.1">
<g id="surface1">
<path style=" stroke:none;fill-rule:nonzero;fill:rgb(100%,100%,100%);fill-opacity:1;" d="M 4.121094 0 C 1.820312 0 -0.00390625 1.824219 -0.00390625 4.125 L -0.00390625 27.875 C -0.00390625 30.175781 1.820312 32 4.121094 32 L 27.871094 32 C 30.171875 32 31.996094 30.175781 31.996094 27.875 L 31.996094 4.125 C 31.996094 1.824219 30.171875 0 27.871094 0 Z M 3.996094 6 L 7.996094 6 L 7.996094 14 L 9.996094 14 L 9.996094 12 L 13.996094 12 L 13.996094 26 L 9.996094 26 L 9.996094 18 L 7.996094 18 C 5.996094 18 3.996094 16.316406 3.996094 14 Z M 20.121094 6.0625 L 23.933594 6.0625 C 23.9375 6.0625 23.925781 6.125 23.933594 6.125 C 24.988281 6.085938 26.078125 6.277344 26.933594 7.0625 C 27.761719 7.824219 28.117188 9.078125 28.058594 10.25 L 28.121094 10.25 L 28.121094 12 L 24.121094 12 L 24.121094 10.0625 C 24.085938 10.058594 24.125 10.058594 24.058594 10.0625 L 20.121094 10.0625 C 20.066406 10.0625 20.074219 10.066406 20.058594 10.0625 C 20.046875 10.070312 20 10.054688 19.996094 10.0625 C 19.980469 10.105469 20.007812 10.15625 19.996094 10.1875 L 19.996094 21.875 C 19.949219 21.832031 19.996094 22 19.996094 22 L 23.933594 22 C 23.945312 21.960938 23.992188 21.96875 23.996094 22 C 23.996094 22.015625 23.996094 21.886719 23.996094 21.9375 L 23.996094 18.0625 L 21.996094 18.0625 L 21.996094 14.0625 L 27.996094 14.0625 L 27.996094 21.9375 C 27.996094 23.0625 27.539062 23.9375 26.871094 24.6875 C 26.238281 25.394531 25.167969 25.949219 23.933594 25.9375 L 23.933594 26 L 19.996094 26 C 18.746094 26 18.007812 25.515625 17.308594 24.875 C 16.644531 24.265625 16.019531 23.292969 16.058594 22 C 16.058594 21.996094 15.996094 22.003906 15.996094 22 L 15.996094 9.875 C 16.121094 9 16.40625 8.097656 17.121094 7.3125 C 17.835938 6.527344 19.011719 6.0625 20.121094 6.0625 Z M 20.121094 6.0625 "/>
</g>
</svg>
