<?xml version="1.0" encoding="UTF-8"?>
<svg xmlns="http://www.w3.org/2000/svg" xmlns:xlink="http://www.w3.org/1999/xlink" width="32" height="32" viewBox="0 0 32 32" version="1.1">
<g id="surface1">
<path style=" stroke:none;fill-rule:nonzero;fill:rgb(100%,100%,100%);fill-opacity:1;" d="M 4.125 0 C 1.824219 0 0 1.824219 0 4.125 L 0 27.875 C 0 30.175781 1.824219 32 4.125 32 L 27.875 32 C 30.175781 32 32 30.175781 32 27.875 L 32 4.125 C 32 1.824219 30.175781 0 27.875 0 Z M 12.25 6.0625 L 19.9375 6.0625 C 19.941406 6.0625 19.929688 6.125 19.9375 6.125 C 20.992188 6.085938 22.082031 6.277344 22.9375 7.0625 C 23.765625 7.824219 24.121094 9.078125 24.0625 10.25 L 24.125 10.25 L 24.125 12 L 20.125 12 L 20.125 10.0625 C 20.089844 10.058594 20.128906 10.058594 20.0625 10.0625 L 12.25 10.0625 C 12.191406 10.0625 12.203125 10.066406 12.1875 10.0625 C 12.171875 10.070312 12.128906 10.054688 12.125 10.0625 C 12.109375 10.105469 12.136719 10.15625 12.125 10.1875 L 12.125 21.875 C 12.074219 21.832031 12.117188 21.996094 12.125 22 L 19.9375 22 C 19.949219 21.960938 19.996094 21.96875 20 22 C 20 22.015625 20 21.886719 20 21.9375 L 20 18.0625 L 16 18.0625 L 16 14.0625 L 24 14.0625 L 24 21.9375 C 24 23.0625 23.542969 23.9375 22.875 24.6875 C 22.242188 25.394531 21.167969 25.949219 19.9375 25.9375 L 19.9375 26 L 12.125 26 C 10.875 26 10.136719 25.515625 9.4375 24.875 C 8.773438 24.265625 8.148438 23.292969 8.1875 22 C 8.1875 21.996094 8.125 22.003906 8.125 22 L 8.125 9.875 C 8.25 9 8.535156 8.097656 9.25 7.3125 C 9.960938 6.527344 11.140625 6.0625 12.25 6.0625 Z M 12.25 6.0625 "/>
</g>
</svg>
