<?xml version="1.0" encoding="UTF-8"?>
<svg xmlns="http://www.w3.org/2000/svg" xmlns:xlink="http://www.w3.org/1999/xlink" width="32" height="32" viewBox="0 0 32 32" version="1.1">
<g id="surface1">
<path style=" stroke:none;fill-rule:nonzero;fill:rgb(74.509804%,74.509804%,74.509804%);fill-opacity:1;" d="M 7 0 C 5.339844 0 4 1.339844 4 3 L 4 12 L 3 12 C 1.339844 12 0 13.339844 0 15 L 0 23 C 0 24.660156 1.339844 26 3 26 L 4 26 L 4 29 C 4 30.660156 5.339844 32 7 32 L 20.125 32 L 18.5625 30.4375 C 17.933594 29.816406 17.800781 28.757812 18.25 28 L 9 28 C 8.445312 28 8 27.554688 8 27 L 8 24 L 18.25 24 C 17.800781 23.238281 17.933594 22.183594 18.5625 21.5625 L 21.5625 18.5625 C 21.878906 18.246094 22.308594 18.046875 22.75 18 C 22.769531 18 22.792969 18 22.8125 18 C 22.9375 17.988281 23.0625 17.988281 23.1875 18 C 23.652344 18.035156 24.105469 18.238281 24.4375 18.5625 L 26 20.121094 L 26.375 19.75 C 26.160156 19.566406 26 19.304688 26 19 C 26 18.449219 26.449219 18 27 18 C 27.324219 18 27.566406 18.199219 27.75 18.4375 C 28.507812 17.808594 29.742188 17.863281 30.4375 18.5625 L 32 20.121094 L 32 15 C 32 13.339844 30.660156 12 29 12 L 28 12 L 28 3 C 28 1.339844 26.660156 0 25 0 C 19 0 12.996094 0 7 0 Z M 9 4 L 23 4 C 23.554688 4 24 4.445312 24 5 L 24 14 L 8 14 L 8 5 C 8 4.445312 8.445312 4 9 4 Z M 10 6 L 10 8 L 22.0625 8 L 22.0625 6 Z M 10 10 L 10 12 L 18 12 L 18 10 Z M 10 10 "/>
<path style=" stroke:none;fill-rule:nonzero;fill:rgb(83.137255%,0%,0%);fill-opacity:1;" d="M 20.011719 23.011719 L 23.007812 20.011719 L 26.003906 23.011719 L 29.003906 20.011719 L 32.003906 23.011719 L 29.003906 26.003906 L 32.003906 29.003906 L 29.003906 32 L 26.007812 29.003906 L 23.011719 32 L 20.015625 29.003906 L 23.011719 26.003906 L 20.015625 23.011719 Z M 20.011719 23.011719 "/>
<path style=" stroke:none;fill-rule:nonzero;fill:rgb(100%,100%,100%);fill-opacity:1;" d="M 5.648438 31.617188 C 5.019531 31.285156 4.394531 30.535156 4.195312 29.867188 C 4.109375 29.585938 4.039062 28.582031 4.039062 27.636719 L 4.039062 25.925781 L 3.222656 25.925781 C 1.890625 25.925781 0.933594 25.367188 0.363281 24.261719 C 0.113281 23.777344 0.101562 23.476562 0.136719 18.828125 L 0.175781 13.90625 L 0.515625 13.40625 C 1.109375 12.53125 1.785156 12.175781 2.984375 12.117188 L 4.027344 12.066406 L 4.070312 7.097656 L 4.109375 2.128906 L 4.441406 1.546875 C 4.84375 0.84375 5.761719 0.203125 6.527344 0.09375 C 6.839844 0.0507812 11.300781 0.03125 16.449219 0.0546875 L 25.804688 0.09375 L 26.40625 0.433594 C 26.738281 0.621094 27.199219 1.039062 27.425781 1.359375 L 27.835938 1.949219 L 27.90625 6.988281 L 27.972656 12.027344 L 29.023438 12.101562 C 29.898438 12.164062 30.164062 12.242188 30.648438 12.582031 C 30.964844 12.804688 31.378906 13.261719 31.566406 13.59375 C 31.894531 14.175781 31.90625 14.292969 31.949219 17.109375 L 31.992188 20.023438 L 31.0625 19.125 C 29.894531 17.996094 29.265625 17.761719 28.339844 18.09375 C 27.800781 18.289062 27.6875 18.289062 27.445312 18.121094 C 27.0625 17.851562 26.785156 17.875 26.363281 18.207031 C 25.984375 18.507812 25.890625 19.078125 26.144531 19.554688 C 26.460938 20.148438 25.941406 19.929688 25.058594 19.097656 C 24.019531 18.117188 23.367188 17.832031 22.539062 17.984375 C 22.117188 18.066406 21.695312 18.40625 20.207031 19.867188 C 19.207031 20.851562 18.296875 21.828125 18.1875 22.042969 C 17.980469 22.433594 17.910156 23.492188 18.070312 23.75 C 18.128906 23.847656 16.554688 23.890625 13.066406 23.890625 L 7.972656 23.890625 L 7.972656 25.574219 C 7.972656 26.5 8.011719 27.359375 8.058594 27.480469 C 8.277344 28.050781 8.683594 28.09375 13.535156 28.09375 C 16.699219 28.09375 18.128906 28.140625 18.070312 28.234375 C 17.925781 28.472656 17.972656 29.542969 18.148438 29.878906 C 18.234375 30.054688 18.679688 30.578125 19.136719 31.042969 L 19.964844 31.890625 L 13.054688 31.886719 C 6.492188 31.878906 6.117188 31.867188 5.648438 31.617188 Z M 24.109375 9.527344 C 24.109375 6.765625 24.054688 4.921875 23.96875 4.691406 C 23.683594 3.945312 23.9375 3.96875 16 3.964844 L 8.636719 3.960938 L 7.972656 4.625 L 7.972656 13.992188 L 24.109375 13.992188 Z M 24.109375 9.527344 "/>
<path style=" stroke:none;fill-rule:nonzero;fill:rgb(100%,100%,100%);fill-opacity:1;" d="M 12.015625 11.992188 C 13.15625 11.96875 14.988281 11.96875 16.082031 11.992188 C 17.179688 12.015625 16.242188 12.035156 14.007812 12.035156 C 11.769531 12.035156 10.875 12.015625 12.015625 11.992188 Z M 12.015625 11.992188 "/>
</g>
</svg>
