<?xml version="1.0" encoding="UTF-8"?>
<svg xmlns="http://www.w3.org/2000/svg" xmlns:xlink="http://www.w3.org/1999/xlink" width="32" height="32" viewBox="0 0 32 32" version="1.1">
<g id="surface1">
<path style=" stroke:none;fill-rule:nonzero;fill:rgb(100%,100%,100%);fill-opacity:1;" d="M 15.5 2 C 12.039062 2.171875 8.664062 3.839844 6.4375 6.8125 C 5.695312 7.804688 5.140625 8.886719 4.75 10 L 9.1875 10 C 9.347656 9.726562 9.492188 9.445312 9.6875 9.1875 C 12.351562 5.632812 17.320312 4.960938 20.875 7.625 C 24.429688 10.289062 25.101562 15.257812 22.4375 18.8125 C 21.792969 19.671875 20.972656 20.351562 20.0625 20.875 L 20.0625 18 L 18.007812 18 L 18.0625 28 L 26.0625 28 C 26.1875 28.011719 26.3125 28.011719 26.4375 28 L 28.0625 28 L 28.0625 26.375 C 28.109375 26.191406 28.128906 26 28.125 25.8125 C 28.109375 25.726562 28.089844 25.644531 28.0625 25.5625 C 27.863281 24.667969 26.976562 23.976562 26.0625 24 L 22.6875 24 C 23.84375 23.234375 24.851562 22.300781 25.6875 21.1875 C 27.421875 18.875 28.191406 16.125 28.0625 13.4375 C 28.042969 13.054688 27.992188 12.691406 27.9375 12.3125 C 27.503906 9.269531 25.890625 6.355469 23.25 4.375 C 20.9375 2.640625 18.191406 1.867188 15.5 2 Z M 15.5 2 "/>
<path style=" stroke:none;fill-rule:nonzero;fill:rgb(100%,100%,100%);fill-opacity:1;" d="M 8.058594 13.878906 C 5.882812 13.878906 4.058594 15.636719 4.058594 17.816406 L 4.058594 21.003906 L 6.058594 21.003906 L 6.058594 17.816406 C 6.058594 16.714844 6.96875 15.878906 8.058594 15.878906 C 9.152344 15.878906 9.996094 16.714844 9.996094 17.816406 L 9.996094 20.941406 L 11.996094 20.941406 L 11.996094 17.816406 C 11.996094 15.636719 10.238281 13.878906 8.058594 13.878906 Z M 8.058594 13.878906 "/>
<path style=" stroke:none;fill-rule:nonzero;fill:rgb(100%,100%,100%);fill-opacity:1;" d="M 2.140625 20 L 14.070312 20 L 14.070312 28.125 L 2.140625 28.125 Z M 2.140625 20 "/>
</g>
</svg>
