<?xml version="1.0" encoding="UTF-8"?>
<svg xmlns="http://www.w3.org/2000/svg" xmlns:xlink="http://www.w3.org/1999/xlink" width="32" height="32" viewBox="0 0 32 32" version="1.1">
<g id="surface1">
<path style=" stroke:none;fill-rule:nonzero;fill:rgb(100%,100%,100%);fill-opacity:1;" d="M 4 2 L 4 16 C 4 20.144531 7.019531 23.363281 9.6875 25.75 C 12.355469 28.136719 15 29.75 15 29.75 L 16 30.3125 L 17.0625 29.6875 C 17.0625 29.6875 19.652344 28.09375 22.3125 25.6875 C 24.972656 23.265625 27.992188 20.066406 27.992188 15.988281 L 27.992188 1.988281 L 3.992188 1.988281 Z M 8 6 L 24 6 L 24 16 C 24 17.839844 22.027344 20.636719 19.6875 22.75 C 17.875 24.386719 16.730469 25.027344 16 25.5 C 15.292969 25.054688 14.140625 24.449219 12.3125 22.8125 C 9.972656 20.710938 7.992188 17.953125 7.992188 15.992188 L 7.992188 5.992188 Z M 8 6 "/>
<path style=" stroke:none;fill-rule:nonzero;fill:rgb(100%,100%,100%);fill-opacity:1;" d="M 16 8 L 16 23 C 15.160156 22.410156 14.835938 22.289062 13.6875 21.25 C 11.511719 19.28125 10 16.714844 10 16 L 10 8 Z M 16 8 "/>
</g>
</svg>
