<?xml version="1.0" encoding="UTF-8"?>
<svg xmlns="http://www.w3.org/2000/svg" xmlns:xlink="http://www.w3.org/1999/xlink" width="32" height="32" viewBox="0 0 32 32" version="1.1">
<g id="surface1">
<path style=" stroke:none;fill-rule:nonzero;fill:rgb(100%,100%,100%);fill-opacity:1;" d="M 16 2.019531 C 16.53125 2.015625 16.996094 2.222656 17.328125 2.5 C 17.660156 2.777344 17.882812 3.140625 18.109375 3.5 C 18.558594 4.214844 18.894531 5.035156 19.238281 5.90625 C 19.585938 6.777344 19.933594 7.683594 20.25 8.371094 C 20.5625 9.0625 20.941406 9.527344 20.964844 9.546875 C 20.992188 9.5625 21.578125 9.78125 22.355469 9.851562 C 23.132812 9.917969 24.121094 9.949219 25.085938 9.988281 C 26.046875 10.03125 27.023438 10.0625 27.871094 10.246094 C 28.292969 10.335938 28.699219 10.449219 29.078125 10.664062 C 29.457031 10.878906 29.8125 11.238281 29.976562 11.722656 C 30.144531 12.210938 30.078125 12.738281 29.90625 13.128906 C 29.734375 13.519531 29.453125 13.855469 29.167969 14.175781 C 28.601562 14.808594 27.902344 15.386719 27.152344 15.972656 C 26.402344 16.558594 25.601562 17.089844 25.019531 17.589844 C 24.4375 18.09375 24.109375 18.605469 24.097656 18.636719 C 24.089844 18.667969 24.035156 19.308594 24.210938 20.042969 C 24.378906 20.777344 24.65625 21.664062 24.914062 22.5625 C 25.171875 23.460938 25.417969 24.367188 25.496094 25.199219 C 25.539062 25.617188 25.585938 26.011719 25.488281 26.429688 C 25.390625 26.839844 25.117188 27.289062 24.691406 27.589844 C 24.261719 27.894531 23.789062 27.964844 23.351562 27.929688 C 22.914062 27.894531 22.484375 27.789062 22.082031 27.628906 C 21.285156 27.304688 20.480469 26.773438 19.671875 26.261719 C 18.859375 25.753906 18.054688 25.21875 17.378906 24.839844 C 16.703125 24.460938 16.082031 24.304688 16.050781 24.304688 C 16.019531 24.304688 15.441406 24.496094 14.773438 24.878906 C 14.101562 25.261719 13.320312 25.808594 12.515625 26.324219 C 11.710938 26.835938 10.878906 27.316406 10.082031 27.648438 C 9.683594 27.8125 9.304688 27.949219 8.867188 27.992188 C 8.429688 28.027344 7.90625 27.929688 7.476562 27.628906 C 7.042969 27.328125 6.796875 26.921875 6.695312 26.511719 C 6.597656 26.097656 6.613281 25.640625 6.648438 25.222656 C 6.71875 24.390625 6.964844 23.496094 7.214844 22.59375 C 7.464844 21.695312 7.738281 20.824219 7.90625 20.085938 C 8.070312 19.351562 8.046875 18.710938 8.035156 18.683594 C 8.027344 18.652344 7.664062 18.179688 7.078125 17.679688 C 6.488281 17.183594 5.722656 16.605469 4.96875 16.027344 C 4.214844 15.445312 3.433594 14.882812 2.863281 14.253906 C 2.578125 13.941406 2.378906 13.585938 2.203125 13.195312 C 2.03125 12.808594 1.933594 12.339844 2.09375 11.851562 C 2.257812 11.363281 2.636719 11.023438 3.015625 10.804688 C 3.390625 10.585938 3.746094 10.441406 4.167969 10.347656 C 5.015625 10.15625 5.996094 10.066406 6.960938 10.019531 C 7.925781 9.96875 8.851562 9.941406 9.628906 9.863281 C 10.40625 9.789062 11.0625 9.601562 11.085938 9.582031 C 11.109375 9.566406 11.453125 9.109375 11.761719 8.417969 C 12.070312 7.726562 12.414062 6.84375 12.753906 5.972656 C 13.09375 5.097656 13.421875 4.242188 13.867188 3.523438 C 14.085938 3.164062 14.332031 2.816406 14.660156 2.535156 C 14.992188 2.257812 15.46875 2.023438 16 2.019531 Z M 15.980469 4.007812 C 15.898438 4.082031 15.769531 4.28125 15.613281 4.53125 C 15.304688 5.035156 14.953125 5.785156 14.625 6.628906 C 14.296875 7.472656 13.988281 8.402344 13.632812 9.195312 C 13.28125 9.988281 13.003906 10.664062 12.28125 11.171875 C 11.5625 11.683594 10.742188 11.769531 9.851562 11.855469 C 8.960938 11.941406 7.996094 11.960938 7.0625 12.007812 C 6.132812 12.054688 5.226562 12.148438 4.636719 12.28125 C 4.339844 12.347656 4.125 12.394531 4.027344 12.453125 C 4.074219 12.550781 4.1875 12.761719 4.386719 12.980469 C 4.789062 13.421875 5.464844 13.957031 6.195312 14.515625 C 6.921875 15.074219 7.75 15.660156 8.421875 16.230469 C 9.09375 16.800781 9.699219 17.292969 9.980469 18.113281 C 10.261719 18.933594 10.089844 19.667969 9.898438 20.511719 C 9.710938 21.355469 9.390625 22.269531 9.148438 23.136719 C 8.90625 24.007812 8.695312 24.832031 8.644531 25.414062 C 8.621094 25.679688 8.679688 25.882812 8.699219 26 C 8.820312 25.984375 9.054688 25.933594 9.308594 25.828125 C 9.863281 25.597656 10.601562 25.171875 11.378906 24.675781 C 12.15625 24.179688 12.984375 23.617188 13.753906 23.175781 C 14.523438 22.734375 15.171875 22.378906 16.066406 22.375 C 16.960938 22.371094 17.648438 22.71875 18.421875 23.152344 C 19.195312 23.585938 19.992188 24.144531 20.773438 24.632812 C 21.554688 25.125 22.328125 25.535156 22.886719 25.761719 C 23.164062 25.875 23.378906 25.933594 23.492188 25.941406 C 23.511719 25.828125 23.523438 25.621094 23.496094 25.359375 C 23.441406 24.777344 23.21875 23.941406 22.96875 23.074219 C 22.722656 22.207031 22.460938 21.277344 22.265625 20.433594 C 22.070312 19.59375 21.894531 18.859375 22.164062 18.035156 C 22.4375 17.214844 23.03125 16.753906 23.695312 16.179688 C 24.363281 15.601562 25.109375 15.007812 25.835938 14.441406 C 26.558594 13.875 27.269531 13.320312 27.664062 12.875 C 27.863281 12.65625 27.992188 12.453125 28.035156 12.351562 C 27.9375 12.296875 27.726562 12.234375 27.429688 12.171875 C 26.835938 12.042969 25.9375 11.957031 25.007812 11.917969 C 24.074219 11.878906 23.109375 11.859375 22.21875 11.78125 C 21.328125 11.699219 20.527344 11.679688 19.800781 11.175781 C 19.074219 10.671875 18.722656 9.964844 18.363281 9.175781 C 18 8.382812 17.6875 7.492188 17.355469 6.652344 C 17.019531 5.8125 16.71875 4.980469 16.402344 4.480469 C 16.246094 4.230469 16.066406 4.078125 15.984375 4.007812 Z M 15.980469 4.007812 "/>
<path style=" stroke:none;fill-rule:nonzero;fill:rgb(100%,100%,100%);fill-opacity:1;" d="M 16 3 C 17.851562 2.992188 18.871094 9.265625 20.375 10.3125 C 21.878906 11.355469 28.421875 10.363281 29 12.0625 C 29.578125 13.761719 23.691406 16.609375 23.125 18.3125 C 22.558594 20.015625 25.617188 25.691406 24.125 26.75 C 22.628906 27.804688 17.914062 23.304688 16.0625 23.3125 C 16.046875 23.3125 16.015625 23.3125 16 23.3125 L 16 2.992188 Z M 16 3 "/>
</g>
</svg>
