<?xml version="1.0" encoding="UTF-8"?>
<svg xmlns="http://www.w3.org/2000/svg" xmlns:xlink="http://www.w3.org/1999/xlink" width="32" height="32" viewBox="0 0 32 32" version="1.1">
<g id="surface1">
<path style=" stroke:none;fill-rule:evenodd;fill:rgb(96.078431%,47.45098%,0%);fill-opacity:1;" d="M 16 0.121094 L 11.46875 6.945312 L 4.644531 4.648438 L 6.941406 11.472656 L 0.117188 16.003906 L 6.941406 20.53125 L 4.644531 27.359375 L 11.46875 25.0625 L 16 31.886719 L 20.527344 25.0625 L 27.355469 27.359375 L 25.058594 20.53125 L 31.882812 16.003906 L 25.058594 11.472656 L 27.355469 4.648438 L 20.527344 6.945312 Z M 14.015625 8.1875 L 17.984375 8.1875 L 17.984375 18.050781 L 14.015625 18.050781 Z M 16.0625 19.476562 C 17.464844 19.476562 18.605469 20.617188 18.605469 22.023438 C 18.605469 23.425781 17.464844 24.566406 16.0625 24.566406 C 14.65625 24.566406 13.519531 23.425781 13.519531 22.023438 C 13.519531 20.617188 14.65625 19.476562 16.0625 19.476562 Z M 16.0625 19.476562 "/>
</g>
</svg>
