<?xml version="1.0" encoding="UTF-8"?>
<svg xmlns="http://www.w3.org/2000/svg" xmlns:xlink="http://www.w3.org/1999/xlink" width="32" height="32" viewBox="0 0 32 32" version="1.1">
<g id="surface1">
<path style=" stroke:none;fill-rule:evenodd;fill:rgb(100%,100%,100%);fill-opacity:1;" d="M 16 0.121094 L 11.5 6.933594 L 4.625 4.621094 L 6.9375 11.496094 L 0.125 15.996094 L 6.9375 20.496094 L 4.625 27.371094 L 11.5 25.058594 L 16 31.871094 L 20.5 25.058594 L 27.375 27.371094 L 25.0625 20.496094 L 31.875 15.996094 L 25.0625 11.496094 L 27.375 4.621094 L 20.5 6.933594 Z M 16 9.183594 L 17.4375 10.558594 L 21.4375 14.558594 C 21.882812 15.007812 22.101562 15.679688 22 16.308594 L 22 17.996094 L 20.25 17.996094 C 19.640625 18.074219 19 17.859375 18.5625 17.433594 L 18 16.871094 L 18 21.996094 L 14 21.996094 L 14 16.871094 L 13.4375 17.433594 C 13.054688 17.796875 12.527344 18.003906 12 17.996094 L 10 17.996094 L 10 16.433594 C 10 16.371094 10 16.308594 10 16.246094 C 9.917969 15.636719 10.132812 14.996094 10.5625 14.558594 L 14.5625 10.558594 Z M 16 9.183594 "/>
</g>
</svg>
