<?xml version="1.0" encoding="UTF-8"?>
<svg xmlns="http://www.w3.org/2000/svg" xmlns:xlink="http://www.w3.org/1999/xlink" width="32" height="32" viewBox="0 0 32 32" version="1.1">
<g id="surface1">
<path style=" stroke:none;fill-rule:nonzero;fill:rgb(74.509804%,74.509804%,74.509804%);fill-opacity:1;" d="M 1.941406 5 L 1.941406 28.9375 C 1.941406 32 4.941406 32 4.941406 32 L 13.941406 32 L 13.941406 28 L 5.941406 28 L 5.941406 6 L 7.941406 6 L 7.941406 2 L 4.941406 2 C 4.941406 2 1.941406 2 1.941406 5 Z M 21.941406 2 L 21.941406 6 L 24 6 L 24 14.0625 L 27.941406 14 L 27.941406 5 C 27.941406 2 24.941406 2 24.941406 2 Z M 8.066406 10.0625 L 8.066406 24 L 13.941406 24 L 13.941406 17.996094 C 13.941406 17.996094 13.941406 14 17.941406 14 L 21.941406 14 L 21.941406 10 Z M 8.066406 10.0625 "/>
<path style=" stroke:none;fill-rule:nonzero;fill:rgb(74.509804%,74.509804%,74.509804%);fill-opacity:1;" d="M 11 0 L 18.9375 0 C 19.492188 0 19.9375 0.445312 19.9375 1 L 19.9375 7 C 19.9375 7.550781 19.492188 8 18.9375 8 L 11 8 C 10.445312 8 10 7.550781 10 7 L 10 1 C 10 0.445312 10.445312 0 11 0 Z M 11 0 "/>
<path style=" stroke:none;fill-rule:nonzero;fill:rgb(96.078431%,47.45098%,0%);fill-opacity:1;" d="M 17.941406 16 C 15.941406 16 15.941406 18 15.941406 18 L 15.941406 30 C 15.941406 30 15.941406 32 17.941406 32 L 29.941406 32 C 31.941406 32 31.941406 30 31.941406 30 L 31.941406 18 C 31.941406 16 29.941406 16 29.941406 16 Z M 21.941406 18 L 26 18 L 26 26 L 21.941406 26 Z M 21.941406 28 L 26 28 L 25.941406 30 L 21.941406 30 Z M 21.941406 28 "/>
<path style=" stroke:none;fill-rule:nonzero;fill:rgb(100%,100%,100%);fill-opacity:1;" d="M 10.355469 7.679688 C 10.015625 7.335938 9.988281 7.035156 10.035156 3.707031 C 10.074219 0.570312 10.078125 0.542969 10.394531 0.285156 C 10.695312 0.0429688 10.984375 0.0273438 14.976562 0.0273438 L 19.238281 0.0273438 L 19.570312 0.359375 L 19.90625 0.691406 L 19.90625 4.019531 C 19.90625 7.167969 19.890625 7.363281 19.632812 7.621094 C 19.375 7.878906 19.183594 7.890625 14.964844 7.890625 C 11.152344 7.890625 10.539062 7.863281 10.355469 7.679688 Z M 10.355469 7.679688 "/>
<path style=" stroke:none;fill-rule:nonzero;fill:rgb(100%,100%,100%);fill-opacity:1;" d="M 8.109375 16.976562 L 8.109375 10.0625 L 21.9375 10.0625 L 21.9375 13.972656 L 19.261719 14.015625 C 16.195312 14.066406 15.914062 14.148438 14.925781 15.269531 C 14.035156 16.285156 13.9375 16.796875 13.9375 20.585938 L 13.9375 23.890625 L 8.109375 23.890625 Z M 8.109375 16.976562 "/>
<path style=" stroke:none;fill-rule:nonzero;fill:rgb(100%,100%,100%);fill-opacity:1;" d="M 3.777344 31.714844 C 3.132812 31.507812 2.324219 30.664062 2.148438 30.011719 C 2.046875 29.644531 2.015625 25.457031 2.039062 16.75 C 2.074219 4.140625 2.078125 4.023438 2.359375 3.484375 C 2.535156 3.148438 2.890625 2.789062 3.296875 2.535156 C 3.929688 2.140625 4.007812 2.128906 5.894531 2.082031 L 7.835938 2.035156 L 7.835938 5.992188 L 5.9375 5.992188 L 5.9375 28.09375 L 13.9375 28.09375 L 13.9375 31.890625 L 9.089844 31.878906 C 5.976562 31.867188 4.078125 31.808594 3.777344 31.714844 Z M 3.777344 31.714844 "/>
<path style=" stroke:none;fill-rule:nonzero;fill:rgb(100%,100%,100%);fill-opacity:1;" d="M 24.109375 9.992188 L 24.109375 5.992188 L 21.9375 5.992188 L 21.9375 2.0625 L 23.675781 2.0625 C 25.769531 2.0625 26.457031 2.25 27.144531 3.011719 C 27.402344 3.296875 27.679688 3.765625 27.757812 4.050781 C 27.847656 4.371094 27.902344 6.378906 27.902344 9.28125 L 27.90625 13.992188 L 24.109375 13.992188 Z M 24.109375 9.992188 "/>
</g>
</svg>
