<?xml version="1.0" encoding="UTF-8"?>
<svg xmlns="http://www.w3.org/2000/svg" xmlns:xlink="http://www.w3.org/1999/xlink" width="32" height="32" viewBox="0 0 32 32" version="1.1">
<g id="surface1">
<path style=" stroke:none;fill-rule:nonzero;fill:rgb(100%,100%,100%);fill-opacity:1;" d="M 13.519531 2.6875 C 13.007812 2.6875 12.601562 2.960938 12.355469 3.292969 C 12.105469 3.621094 12 4.003906 12 4.355469 L 12 6.667969 L 8.167969 6.667969 C 6.972656 6.667969 6 7.636719 6 8.832031 L 6 26.5 C 6 27.695312 6.972656 28.667969 8.167969 28.667969 L 24.5 28.667969 C 25.695312 28.667969 26.667969 27.695312 26.667969 26.5 L 26.667969 8.832031 C 26.667969 7.636719 25.695312 6.667969 24.5 6.667969 L 20.667969 6.667969 L 20.667969 4.375 C 20.667969 4.007812 20.535156 3.625 20.292969 3.3125 C 20.046875 3 19.667969 2.75 19.207031 2.75 Z M 13.519531 3.355469 L 19.207031 3.417969 C 19.421875 3.417969 19.617188 3.535156 19.769531 3.730469 C 19.925781 3.925781 20 4.195312 20 4.375 L 20 7.042969 L 20.125 7.125 L 20.25 7.230469 C 20.257812 7.238281 20.261719 7.242188 20.269531 7.25 L 21.894531 8.542969 C 21.886719 8.636719 21.890625 8.761719 21.832031 8.957031 C 21.796875 9.089844 21.738281 9.210938 21.6875 9.269531 C 21.636719 9.332031 21.636719 9.335938 21.582031 9.332031 L 11.167969 9.332031 C 11.160156 9.332031 11.152344 9.332031 11.144531 9.332031 C 11.125 9.332031 11.117188 9.320312 11.082031 9.269531 C 11.042969 9.210938 11.003906 9.105469 10.980469 8.980469 C 10.9375 8.785156 10.9375 8.667969 10.9375 8.582031 L 12.105469 7.582031 L 12.5 7.25 C 12.503906 7.246094 12.496094 7.234375 12.5 7.230469 L 12.542969 7.207031 L 12.667969 7.105469 L 12.667969 4.355469 C 12.667969 4.164062 12.746094 3.886719 12.894531 3.6875 C 13.046875 3.488281 13.226562 3.355469 13.519531 3.355469 Z M 9.292969 8.667969 L 10.269531 8.667969 C 10.28125 8.792969 10.296875 8.957031 10.332031 9.125 C 10.371094 9.300781 10.421875 9.472656 10.542969 9.644531 C 10.660156 9.820312 10.863281 9.988281 11.125 10 L 21.5625 10 C 21.835938 10.011719 22.066406 9.859375 22.207031 9.6875 C 22.347656 9.515625 22.425781 9.332031 22.480469 9.144531 C 22.527344 8.96875 22.550781 8.800781 22.5625 8.667969 L 23.375 8.667969 C 23.722656 8.667969 24 8.941406 24 9.292969 L 24 22.832031 C 23.09375 23.074219 22.523438 23.375 21.355469 23.0625 C 21.246094 23.035156 21.125 23.070312 21.042969 23.144531 C 20.957031 23.222656 20.917969 23.324219 20.9375 23.4375 L 21.394531 26 L 9.292969 26 C 8.941406 26 8.667969 25.722656 8.667969 25.375 L 8.667969 9.292969 C 8.667969 8.941406 8.941406 8.667969 9.292969 8.667969 Z M 16.332031 13.667969 C 15.832031 13.667969 15.332031 14 15.332031 14.667969 L 15.332031 19.332031 L 17.332031 19.332031 L 17.332031 14.667969 C 17.332031 14 16.832031 13.667969 16.332031 13.667969 Z M 16.332031 19.957031 C 15.742188 19.957031 15.34375 20.375 15.332031 20.980469 C 15.332031 21.558594 15.730469 22 16.332031 22 C 16.925781 22 17.332031 21.558594 17.332031 20.980469 C 17.332031 20.375 16.925781 19.957031 16.332031 19.957031 Z M 23.480469 23.667969 C 23.257812 23.949219 23.121094 24.109375 22.8125 24.5 L 21.980469 25.542969 L 21.644531 23.707031 C 22.351562 23.808594 22.960938 23.808594 23.480469 23.667969 Z M 23.480469 23.667969 "/>
</g>
</svg>
