<?xml version="1.0" encoding="UTF-8"?>
<svg xmlns="http://www.w3.org/2000/svg" xmlns:xlink="http://www.w3.org/1999/xlink" width="32" height="32" viewBox="0 0 32 32" version="1.1">
<g id="surface1">
<path style=" stroke:none;fill-rule:nonzero;fill:rgb(74.509804%,74.509804%,74.509804%);fill-opacity:1;" d="M 4.941406 2 C 4.941406 2 1.941406 2 1.941406 5 L 1.941406 28.9375 C 1.941406 28.9375 1.941406 32 4.941406 32 L 19.941406 32 L 19.941406 28 L 5.941406 28 L 5.941406 6 L 7.941406 6 L 7.941406 2 Z M 21.941406 2 L 21.941406 6 L 23.941406 6 L 23.941406 20 L 27.941406 20 L 27.941406 5 C 27.941406 2 24.941406 2 24.941406 2 Z M 21.941406 2 "/>
<path style=" stroke:none;fill-rule:nonzero;fill:rgb(74.509804%,74.509804%,74.509804%);fill-opacity:1;" d="M 11 0 L 18.9375 0 C 19.492188 0 19.9375 0.445312 19.9375 1 L 19.9375 7 C 19.9375 7.550781 19.492188 8 18.9375 8 L 11 8 C 10.445312 8 10 7.550781 10 7 L 10 1 C 10 0.445312 10.445312 0 11 0 Z M 11 0 "/>
<path style=" stroke:none;fill-rule:nonzero;fill:rgb(74.509804%,74.509804%,74.509804%);fill-opacity:1;" d="M 21.941406 22 L 24.691406 22 L 26.941406 24.1875 L 29.121094 22.007812 L 31.941406 22.007812 L 31.941406 24.945312 L 29.75 27.070312 L 31.933594 29.191406 L 31.933594 32.007812 L 29.054688 32.007812 L 26.933594 29.890625 L 24.8125 32.007812 L 21.933594 32.007812 L 21.933594 29.199219 L 24.058594 27.074219 L 21.9375 24.953125 L 21.9375 22.011719 Z M 21.941406 22 "/>
<path style=" stroke:none;fill-rule:nonzero;fill:rgb(100%,100%,100%);fill-opacity:1;" d="M 10.480469 7.789062 C 10.078125 7.519531 10.019531 7.035156 10.019531 3.894531 L 10.019531 0.691406 L 10.6875 0.0273438 L 19.253906 0.0273438 L 19.917969 0.691406 L 19.917969 3.894531 C 19.917969 7.035156 19.859375 7.519531 19.457031 7.789062 C 19.375 7.84375 17.355469 7.886719 14.96875 7.886719 C 12.582031 7.886719 10.5625 7.84375 10.480469 7.789062 Z M 10.480469 7.789062 "/>
<path style=" stroke:none;fill-rule:nonzero;fill:rgb(100%,100%,100%);fill-opacity:1;" d="M 23.984375 12.976562 L 23.984375 5.992188 L 21.953125 5.992188 L 21.953125 2.0625 L 23.699219 2.0625 C 25.640625 2.0625 26.367188 2.234375 27.011719 2.847656 C 27.886719 3.675781 27.847656 3.242188 27.890625 11.992188 L 27.929688 19.960938 L 23.984375 19.960938 Z M 23.984375 12.976562 "/>
<path style=" stroke:none;fill-rule:nonzero;fill:rgb(100%,100%,100%);fill-opacity:1;" d="M 3.449219 31.582031 C 2.839844 31.238281 2.359375 30.601562 2.15625 29.875 C 2.070312 29.5625 2.023438 24.796875 2.019531 16.761719 L 2.019531 4.136719 L 2.335938 3.539062 C 2.542969 3.148438 2.878906 2.800781 3.308594 2.535156 C 3.945312 2.140625 4.023438 2.128906 5.90625 2.082031 L 7.851562 2.035156 L 7.851562 5.992188 L 5.953125 5.992188 L 5.953125 28.09375 L 19.917969 28.09375 L 19.917969 31.890625 L 11.953125 31.890625 L 3.984375 31.886719 Z M 3.449219 31.582031 "/>
<path style=" stroke:none;fill-rule:nonzero;fill:rgb(100%,0%,0%);fill-opacity:1;" d="M 21.953125 30.632812 L 21.953125 29.242188 L 23.039062 28.164062 L 24.121094 27.085938 L 23.039062 25.992188 L 21.953125 24.902344 L 21.953125 21.992188 L 23.28125 21.992188 C 24.59375 21.992188 24.621094 22 25.011719 22.414062 C 25.230469 22.644531 25.765625 23.140625 26.199219 23.519531 L 26.988281 24.207031 L 28.101562 23.097656 L 29.210938 21.992188 L 31.851562 21.992188 L 31.851562 24.902344 L 30.757812 26 L 29.667969 27.097656 L 30.757812 28.140625 L 31.851562 29.183594 L 31.851562 32.027344 L 29.105469 32.027344 L 27.996094 30.945312 L 26.890625 29.863281 L 25.8125 30.945312 L 24.738281 32.027344 L 21.953125 32.027344 Z M 21.953125 30.632812 "/>
</g>
</svg>
