<?xml version="1.0" encoding="UTF-8"?>
<svg xmlns="http://www.w3.org/2000/svg" xmlns:xlink="http://www.w3.org/1999/xlink" width="32" height="32" viewBox="0 0 32 32" version="1.1">
<g id="surface1">
<path style=" stroke:none;fill-rule:nonzero;fill:rgb(100%,100%,100%);fill-opacity:1;" d="M 13.554688 3.570312 C 6.808594 3.570312 1.332031 9.046875 1.332031 15.792969 C 1.332031 22.539062 6.808594 28.015625 13.554688 28.015625 C 16.757812 28.015625 19.675781 26.773438 21.855469 24.753906 L 30.667969 24.753906 L 25.21875 19.308594 C 25.558594 18.1875 25.777344 17.023438 25.777344 15.792969 C 25.777344 9.046875 20.300781 3.570312 13.554688 3.570312 Z M 9.992188 10.089844 L 13.554688 13.753906 L 17.222656 10.140625 L 19.257812 12.226562 L 15.59375 15.792969 L 19.207031 19.457031 L 17.121094 21.496094 L 13.554688 17.832031 L 9.886719 21.445312 L 7.851562 19.355469 L 11.519531 15.792969 L 7.902344 12.125 Z M 9.992188 10.089844 "/>
</g>
</svg>
