<?xml version="1.0" encoding="UTF-8"?>
<svg xmlns="http://www.w3.org/2000/svg" xmlns:xlink="http://www.w3.org/1999/xlink" width="32" height="32" viewBox="0 0 32 32" version="1.1">
<g id="surface1">
<path style=" stroke:none;fill-rule:nonzero;fill:rgb(100%,100%,100%);fill-opacity:1;" d="M 26 30 L 26 21 L 19 21 Z M 26 30 "/>
<path style=" stroke:none;fill-rule:nonzero;fill:rgb(100%,100%,100%);fill-opacity:1;" d="M 7 2 C 4.230469 2 2 4.230469 2 7 L 2 17 C 2 19.769531 4.230469 22 7 22 L 25 22 C 27.769531 22 30 19.769531 30 17 L 30 7 C 30 4.230469 27.769531 2 25 2 Z M 10 6 L 12 6 C 12.550781 6 13.074219 6.199219 13.4375 6.5625 L 16 9.125 L 18.5625 6.5625 C 18.921875 6.203125 19.449219 6.003906 20 6.003906 L 22 6.003906 L 22 8.003906 C 22 8.554688 21.800781 9.078125 21.4375 9.441406 L 18.875 12 L 21.4375 14.5625 C 21.800781 14.925781 22 15.445312 22 16 L 22 18 L 20 18 C 19.449219 18 18.925781 17.800781 18.5625 17.4375 L 16 14.875 L 13.4375 17.4375 C 13.074219 17.796875 12.550781 17.996094 12 17.996094 L 10 17.996094 L 10 15.996094 C 10 15.445312 10.199219 14.921875 10.5625 14.558594 L 13.125 12 L 10.5625 9.4375 C 10.199219 9.078125 10 8.558594 10 8 Z M 10 6 "/>
</g>
</svg>
