<?xml version="1.0" encoding="UTF-8"?>
<svg xmlns="http://www.w3.org/2000/svg" xmlns:xlink="http://www.w3.org/1999/xlink" width="32" height="32" viewBox="0 0 32 32" version="1.1">
<g id="surface1">
<path style=" stroke:none;fill-rule:nonzero;fill:rgb(100%,100%,100%);fill-opacity:1;" d="M 7 2 C 4.230469 2 2 4.230469 2 7 L 2 17 C 2 19.769531 4.230469 22 7 22 L 19.75 22 L 26 30 L 26 21.875 C 28.28125 21.410156 30 19.421875 30 17 L 30 7 C 30 4.230469 27.769531 2 25 2 Z M 7 6 L 25 6 C 25.554688 6 26 6.445312 26 7 L 26 17 C 26 17.554688 25.554688 18 25 18 L 7 18 C 6.445312 18 6 17.554688 6 17 L 6 7 C 6 6.445312 6.445312 6 7 6 Z M 7 6 "/>
</g>
</svg>
