<?xml version="1.0" encoding="UTF-8"?>
<svg xmlns="http://www.w3.org/2000/svg" xmlns:xlink="http://www.w3.org/1999/xlink" width="32" height="32" viewBox="0 0 32 32" version="1.1">
<g id="surface1">
<path style=" stroke:none;fill-rule:nonzero;fill:rgb(100%,100%,100%);fill-opacity:1;" d="M 8 4 L 8 2.0625 L 22 2.0625 L 22 4 Z M 6.9375 0.0625 C 5.957031 0.0625 5.347656 0.519531 4.875 1 C 4.40625 1.480469 4 2.117188 4 3.0625 L 4 4 L 0 4 L 0 8 L 30 8 L 30 4 L 26 4 L 26 3.25 C 25.953125 2.390625 25.660156 1.746094 25.1875 1.1875 C 24.742188 0.65625 23.933594 0.128906 22.875 0.125 L 22.875 0.0625 Z M 23.996094 10 L 27.996094 10 C 31.34375 15.855469 30.273438 21.710938 27.996094 27.5625 C 27.136719 29.804688 26.035156 32.003906 23.617188 32.003906 L 6.367188 32.003906 C 3.957031 32.003906 2.8125 29.824219 1.992188 27.566406 C -0.09375 21.84375 -1.203125 16.058594 1.992188 10.003906 L 5.992188 10.003906 C 2.550781 15.898438 4.023438 21.945312 5.992188 28.003906 L 23.992188 28.003906 C 26.183594 21.9375 27.253906 15.90625 23.992188 10.003906 Z M 14.058594 9.96875 L 14.058594 26 L 15.996094 26 L 15.996094 9.96875 Z M 17.996094 9.96875 C 21.523438 14.414062 19.65625 21.230469 17.996094 26 L 19.996094 26 C 21.648438 21.386719 23.675781 14.75 19.996094 9.96875 Z M 10.058594 9.96875 C 6.425781 15.1875 8.347656 21.59375 10.058594 26 L 11.996094 26 C 10.265625 21.558594 8.671875 15.066406 11.996094 9.96875 Z M 10.058594 9.96875 "/>
</g>
</svg>
