<?xml version="1.0" encoding="UTF-8"?>
<svg xmlns="http://www.w3.org/2000/svg" xmlns:xlink="http://www.w3.org/1999/xlink" width="32" height="32" viewBox="0 0 32 32" version="1.1">
<g id="surface1">
<path style=" stroke:none;fill-rule:nonzero;fill:rgb(100%,100%,100%);fill-opacity:1;" d="M 26 30 L 26 21 L 19 21 Z M 26 30 "/>
<path style=" stroke:none;fill-rule:nonzero;fill:rgb(100%,100%,100%);fill-opacity:1;" d="M 7 2 C 4.230469 2 2 4.230469 2 7 L 2 17 C 2 19.769531 4.230469 22 7 22 L 25 22 C 27.769531 22 30 19.769531 30 17 L 30 7 C 30 4.230469 27.769531 2 25 2 Z M 16 6 L 18 6 C 18.554688 6 19.074219 6.199219 19.4375 6.5625 L 23.4375 10.5625 L 24.8125 12 L 23.4375 13.4375 L 19.4375 17.4375 C 19.078125 17.796875 18.558594 17.996094 17.996094 17.996094 L 15.996094 17.996094 L 15.996094 15.996094 C 15.996094 15.445312 16.199219 14.921875 16.558594 14.558594 L 17.121094 14 L 7.996094 14 L 7.996094 10 L 17.121094 10 L 16.558594 9.4375 C 16.195312 9.078125 15.996094 8.558594 15.996094 7.996094 L 15.996094 5.996094 Z M 16 6 "/>
</g>
</svg>
