<?xml version="1.0" encoding="UTF-8"?>
<svg xmlns="http://www.w3.org/2000/svg" xmlns:xlink="http://www.w3.org/1999/xlink" width="32" height="32" viewBox="0 0 32 32" version="1.1">
<g id="surface1">
<path style=" stroke:none;fill-rule:nonzero;fill:rgb(100%,100%,100%);fill-opacity:1;" d="M 3.558594 10 C 2.8125 10.136719 2.207031 10.679688 1.996094 11.410156 C 1.785156 12.136719 2.003906 12.921875 2.558594 13.4375 L 6.558594 17.4375 L 7.996094 18.8125 L 9.433594 17.4375 L 13.433594 13.4375 C 13.957031 12.925781 14.160156 12.171875 13.972656 11.46875 C 13.785156 10.761719 13.234375 10.210938 12.53125 10.023438 C 11.824219 9.835938 11.070312 10.042969 10.558594 10.5625 L 8 13.125 L 5.441406 10.5625 C 4.953125 10.0625 4.242188 9.847656 3.558594 10.003906 Z M 3.558594 10 "/>
<path style=" stroke:none;fill-rule:nonzero;fill:rgb(100%,100%,100%);fill-opacity:1;" d="M 12 2 C 8.710938 2 6 4.710938 6 8 L 6 16 L 10 16 L 10 8 C 10 6.859375 10.855469 6 12 6 L 20 6 C 21.140625 6 22 6.859375 22 8 L 22 24 C 22 25.140625 21.140625 26 20 26 L 12 26 L 12 30 L 20 30 C 23.289062 30 26 27.289062 26 24 L 26 8 C 26 4.710938 23.289062 2 20 2 Z M 12 2 "/>
<path style=" stroke:none;fill-rule:nonzero;fill:rgb(100%,100%,100%);fill-opacity:1;" d="M 14 12 L 14 10 L 12 10 L 12 12 Z M 14 12 "/>
<path style=" stroke:none;fill-rule:nonzero;fill:rgb(100%,100%,100%);fill-opacity:1;" d="M 4 12 L 4 10 L 2 10 L 2 12 Z M 4 12 "/>
</g>
</svg>
