<?xml version="1.0" encoding="UTF-8"?>
<svg xmlns="http://www.w3.org/2000/svg" xmlns:xlink="http://www.w3.org/1999/xlink" width="32" height="32" viewBox="0 0 32 32" version="1.1">
<g id="surface1">
<path style=" stroke:none;fill-rule:nonzero;fill:rgb(50.196078%,50.196078%,50.196078%);fill-opacity:1;" d="M 19.019531 0.078125 C 16.472656 0.078125 14.40625 2.027344 14.125 4.519531 C 13.476562 4.273438 12.8125 4.082031 12.078125 4.082031 C 8.792969 4.082031 6.128906 6.765625 6.128906 10.082031 C 6.128906 10.277344 6.171875 10.453125 6.191406 10.644531 C 5.597656 10.285156 4.890625 10.082031 4.148438 10.082031 C 1.953125 10.082031 0.179688 11.871094 0.179688 14.082031 C 0.179688 16.289062 1.808594 17.992188 4 17.992188 L 14 17.992188 L 14 14.992188 C 13.96875 13.421875 15.480469 12.050781 17.035156 12.019531 C 18.636719 11.984375 20.035156 13.378906 20 14.992188 L 20 17.992188 L 29 17.992188 C 30.644531 17.992188 31.910156 16.738281 31.910156 15.082031 C 31.910156 13.425781 30.578125 12.082031 28.9375 12.082031 C 28.523438 12.082031 28.113281 12.179688 27.757812 12.332031 C 27.863281 11.925781 27.945312 11.515625 27.945312 11.082031 C 27.945312 8.621094 26.171875 6.625 23.855469 6.207031 C 23.9375 5.84375 23.976562 5.46875 23.976562 5.082031 C 23.976562 2.320312 21.757812 0.078125 19.019531 0.078125 Z M 19.019531 0.078125 "/>
<path style=" stroke:none;fill-rule:nonzero;fill:rgb(74.509804%,74.509804%,74.509804%);fill-opacity:1;" d="M 16.820312 14 C 16.339844 14.085938 15.992188 14.511719 16 15 L 16 20 L 10 20 L 10 22 L 6.5625 22 L 6.3125 22.3125 L 1.3125 27.3125 C 0.960938 27.527344 0.78125 27.9375 0.855469 28.34375 C 0.933594 28.75 1.25 29.066406 1.65625 29.140625 C 2.0625 29.21875 2.46875 29.039062 2.6875 28.6875 L 7.367188 23.988281 L 9.988281 23.988281 L 9.988281 29.988281 C 9.988281 30.539062 10.4375 30.988281 10.988281 30.988281 C 11.539062 30.988281 11.988281 30.539062 11.988281 29.988281 L 11.988281 23.238281 C 12.019531 23.09375 12.019531 22.945312 11.988281 22.800781 L 11.988281 22 L 15.988281 22 L 15.988281 23.4375 L 16.300781 23.6875 L 19.980469 27.386719 L 19.980469 30.007812 C 19.980469 30.558594 20.429688 31.007812 20.980469 31.007812 C 21.53125 31.007812 21.980469 30.558594 21.980469 30.007812 L 21.980469 28.007812 L 24.667969 28.007812 L 29.480469 30.882812 C 29.960938 31.15625 30.578125 30.992188 30.855469 30.507812 C 31.128906 30.023438 30.960938 29.40625 30.480469 29.132812 L 25.480469 26.132812 L 25.230469 26.007812 L 21.355469 26.007812 L 17.980469 22.632812 L 17.980469 21.257812 C 18.011719 21.113281 18.011719 20.964844 17.980469 20.820312 L 17.980469 15.019531 C 17.984375 14.71875 17.855469 14.429688 17.625 14.234375 C 17.394531 14.042969 17.089844 13.960938 16.792969 14.019531 Z M 16.820312 14 "/>
<path style=" stroke:none;fill-rule:nonzero;fill:rgb(100%,100%,0%);fill-opacity:1;" d="M 20.765625 30.96875 C 20.566406 30.917969 20.34375 30.785156 20.222656 30.640625 C 20.003906 30.371094 19.992188 30.304688 19.992188 28.761719 L 19.992188 27.363281 L 16 23.378906 L 16 22 L 11.972656 22 L 11.96875 26.09375 L 11.96875 30.191406 L 11.878906 30.378906 C 11.699219 30.769531 11.417969 30.945312 10.988281 30.945312 C 10.570312 30.945312 10.277344 30.773438 10.101562 30.414062 C 10.03125 30.273438 10.027344 30.136719 10.007812 27.121094 L 9.988281 23.976562 L 8.6875 23.964844 L 7.386719 23.957031 L 4.851562 26.5 C 2.933594 28.421875 2.28125 29.054688 2.175781 29.089844 C 2.101562 29.117188 1.9375 29.136719 1.8125 29.132812 C 1.542969 29.132812 1.25 28.992188 1.074219 28.78125 C 0.851562 28.511719 0.796875 28.042969 0.953125 27.738281 C 0.992188 27.667969 2.285156 26.347656 3.828125 24.804688 L 6.632812 22 L 10.007812 22 L 10.007812 20 L 16 20 L 16.007812 17.371094 C 16.019531 14.464844 16.003906 14.628906 16.269531 14.332031 C 16.421875 14.15625 16.71875 14.011719 16.925781 14.011719 C 17.335938 14.007812 17.726562 14.253906 17.878906 14.609375 C 17.957031 14.792969 17.957031 14.816406 17.960938 18.707031 L 17.960938 22.621094 L 19.664062 24.324219 L 21.367188 26.03125 L 23.300781 26.03125 C 25.195312 26.03125 25.238281 26.03125 25.394531 26.109375 C 25.765625 26.296875 30.535156 29.179688 30.652344 29.285156 C 30.917969 29.53125 31.027344 29.960938 30.914062 30.332031 C 30.859375 30.523438 30.617188 30.796875 30.417969 30.898438 C 30.21875 31 29.890625 31.027344 29.695312 30.960938 C 29.613281 30.929688 28.445312 30.25 27.101562 29.449219 L 24.660156 27.992188 L 21.953125 27.992188 L 21.953125 29.109375 C 21.953125 30.207031 21.949219 30.234375 21.863281 30.421875 C 21.671875 30.835938 21.195312 31.074219 20.765625 30.96875 Z M 20.765625 30.96875 "/>
</g>
</svg>
