<?xml version="1.0" encoding="UTF-8"?>
<svg xmlns="http://www.w3.org/2000/svg" xmlns:xlink="http://www.w3.org/1999/xlink" width="32" height="32" viewBox="0 0 32 32" version="1.1">
<g id="surface1">
<path style=" stroke:none;fill-rule:nonzero;fill:rgb(74.509804%,74.509804%,74.509804%);fill-opacity:1;" d="M 15.992188 5.980469 C 10.492188 5.980469 5.980469 10.492188 5.980469 15.992188 C 5.980469 21.492188 10.492188 26.003906 15.992188 26.003906 C 21.492188 26.003906 26.003906 21.492188 26.003906 15.992188 C 26.003906 10.492188 21.492188 5.980469 15.992188 5.980469 Z M 15.992188 5.980469 "/>
<path style=" stroke:none;fill-rule:nonzero;fill:rgb(74.509804%,74.509804%,74.509804%);fill-opacity:1;" d="M 1.125 14 L 2.875 14 C 3.496094 14 4 14.503906 4 15.125 L 4 16.875 C 4 17.496094 3.496094 18 2.875 18 L 1.125 18 C 0.503906 18 0 17.496094 0 16.875 L 0 15.125 C 0 14.503906 0.503906 14 1.125 14 Z M 1.125 14 "/>
<path style=" stroke:none;fill-rule:nonzero;fill:rgb(74.509804%,74.509804%,74.509804%);fill-opacity:1;" d="M 29.125 14 L 30.875 14 C 31.496094 14 32 14.503906 32 15.125 L 32 16.875 C 32 17.496094 31.496094 18 30.875 18 L 29.125 18 C 28.503906 18 28 17.496094 28 16.875 L 28 15.125 C 28 14.503906 28.503906 14 29.125 14 Z M 29.125 14 "/>
<path style=" stroke:none;fill-rule:nonzero;fill:rgb(74.509804%,74.509804%,74.509804%);fill-opacity:1;" d="M 18 1.125 L 18 2.875 C 18 3.496094 17.496094 4 16.875 4 L 15.125 4 C 14.503906 4 14 3.496094 14 2.875 L 14 1.125 C 14 0.503906 14.503906 0 15.125 0 L 16.875 0 C 17.496094 0 18 0.503906 18 1.125 Z M 18 1.125 "/>
<path style=" stroke:none;fill-rule:nonzero;fill:rgb(74.509804%,74.509804%,74.509804%);fill-opacity:1;" d="M 18 29.125 L 18 30.875 C 18 31.496094 17.496094 32 16.875 32 L 15.125 32 C 14.503906 32 14 31.496094 14 30.875 L 14 29.125 C 14 28.503906 14.503906 28 15.125 28 L 16.875 28 C 17.496094 28 18 28.503906 18 29.125 Z M 18 29.125 "/>
<path style=" stroke:none;fill-rule:nonzero;fill:rgb(74.509804%,74.509804%,74.509804%);fill-opacity:1;" d="M 27.933594 6.890625 L 26.695312 8.125 C 26.257812 8.566406 25.542969 8.566406 25.105469 8.125 L 23.867188 6.890625 C 23.429688 6.449219 23.429688 5.738281 23.867188 5.296875 L 25.105469 4.0625 C 25.542969 3.621094 26.257812 3.621094 26.695312 4.0625 L 27.933594 5.296875 C 28.375 5.738281 28.375 6.449219 27.933594 6.890625 Z M 27.933594 6.890625 "/>
<path style=" stroke:none;fill-rule:nonzero;fill:rgb(74.509804%,74.509804%,74.509804%);fill-opacity:1;" d="M 8.132812 26.6875 L 6.898438 27.925781 C 6.457031 28.363281 5.746094 28.363281 5.308594 27.925781 L 4.070312 26.6875 C 3.628906 26.25 3.628906 25.535156 4.070312 25.097656 L 5.308594 23.859375 C 5.746094 23.417969 6.457031 23.417969 6.898438 23.859375 L 8.132812 25.097656 C 8.574219 25.535156 8.574219 26.25 8.132812 26.6875 Z M 8.132812 26.6875 "/>
<path style=" stroke:none;fill-rule:nonzero;fill:rgb(74.509804%,74.509804%,74.509804%);fill-opacity:1;" d="M 6.890625 4.070312 L 8.125 5.308594 C 8.566406 5.746094 8.566406 6.460938 8.125 6.898438 L 6.890625 8.136719 C 6.449219 8.574219 5.738281 8.574219 5.296875 8.136719 L 4.0625 6.898438 C 3.621094 6.460938 3.621094 5.746094 4.0625 5.308594 L 5.296875 4.070312 C 5.738281 3.632812 6.449219 3.632812 6.890625 4.070312 Z M 6.890625 4.070312 "/>
<path style=" stroke:none;fill-rule:nonzero;fill:rgb(74.509804%,74.509804%,74.509804%);fill-opacity:1;" d="M 26.6875 23.867188 L 27.925781 25.105469 C 28.363281 25.546875 28.363281 26.257812 27.925781 26.695312 L 26.6875 27.933594 C 26.25 28.375 25.535156 28.375 25.097656 27.933594 L 23.859375 26.695312 C 23.417969 26.257812 23.417969 25.546875 23.859375 25.105469 L 25.097656 23.867188 C 25.535156 23.429688 26.25 23.429688 26.6875 23.867188 Z M 26.6875 23.867188 "/>
<path style=" stroke:none;fill-rule:nonzero;fill:rgb(100%,40%,0%);fill-opacity:1;" d="M 14.832031 3.941406 C 14.476562 3.84375 14.175781 3.550781 14.074219 3.207031 C 13.984375 2.902344 13.980469 1.09375 14.070312 0.792969 C 14.152344 0.523438 14.386719 0.253906 14.648438 0.132812 C 14.851562 0.0390625 14.886719 0.0351562 16.007812 0.0351562 C 17.101562 0.0351562 17.171875 0.0390625 17.34375 0.125 C 17.558594 0.226562 17.773438 0.4375 17.875 0.648438 C 17.941406 0.78125 17.953125 0.929688 17.964844 1.929688 C 17.976562 3.179688 17.960938 3.285156 17.726562 3.585938 C 17.652344 3.675781 17.496094 3.796875 17.363281 3.859375 L 17.125 3.976562 L 16.074219 3.984375 C 15.328125 3.992188 14.96875 3.980469 14.832031 3.941406 Z M 14.832031 3.941406 "/>
<path style=" stroke:none;fill-rule:nonzero;fill:rgb(100%,40%,0%);fill-opacity:1;" d="M 25.671875 8.417969 C 25.382812 8.34375 25.210938 8.207031 24.464844 7.453125 C 23.71875 6.699219 23.671875 6.648438 23.605469 6.414062 C 23.558594 6.257812 23.542969 6.109375 23.558594 5.988281 C 23.613281 5.613281 23.722656 5.457031 24.464844 4.707031 C 25.265625 3.902344 25.492188 3.75 25.875 3.75 C 26.320312 3.75 26.425781 3.816406 27.261719 4.644531 C 28.160156 5.53125 28.230469 5.636719 28.226562 6.101562 C 28.226562 6.339844 28.207031 6.453125 28.136719 6.578125 C 28.015625 6.804688 26.535156 8.269531 26.347656 8.347656 C 26.160156 8.425781 25.832031 8.460938 25.671875 8.417969 Z M 25.671875 8.417969 "/>
<path style=" stroke:none;fill-rule:nonzero;fill:rgb(100%,40%,0%);fill-opacity:1;" d="M 28.753906 17.910156 C 28.492188 17.820312 28.246094 17.59375 28.117188 17.328125 C 28.027344 17.148438 28.023438 17.097656 28.023438 16.007812 L 28.023438 14.875 L 28.140625 14.636719 C 28.203125 14.507812 28.324219 14.34375 28.40625 14.277344 C 28.691406 14.039062 28.820312 14.023438 30.070312 14.035156 C 31.328125 14.046875 31.355469 14.054688 31.65625 14.347656 C 31.953125 14.632812 31.960938 14.6875 31.964844 15.988281 C 31.964844 17.117188 31.960938 17.148438 31.867188 17.351562 C 31.8125 17.464844 31.6875 17.628906 31.589844 17.714844 C 31.300781 17.960938 31.140625 17.988281 29.984375 17.988281 C 29.109375 17.988281 28.941406 17.976562 28.753906 17.910156 Z M 28.753906 17.910156 "/>
<path style=" stroke:none;fill-rule:nonzero;fill:rgb(100%,40%,0%);fill-opacity:1;" d="M 25.660156 28.222656 C 25.566406 28.203125 25.445312 28.167969 25.394531 28.140625 C 25.230469 28.054688 23.75 26.5625 23.660156 26.390625 C 23.539062 26.160156 23.519531 25.808594 23.605469 25.539062 C 23.671875 25.335938 23.757812 25.234375 24.488281 24.503906 C 25.214844 23.777344 25.320312 23.6875 25.519531 23.625 C 25.785156 23.535156 26.136719 23.554688 26.371094 23.664062 C 26.46875 23.710938 26.839844 24.039062 27.273438 24.464844 C 28.125 25.308594 28.230469 25.46875 28.222656 25.914062 C 28.222656 26.066406 28.1875 26.253906 28.148438 26.347656 C 28.039062 26.597656 26.601562 28.03125 26.355469 28.136719 C 26.113281 28.238281 25.878906 28.269531 25.660156 28.222656 Z M 25.660156 28.222656 "/>
<path style=" stroke:none;fill-rule:nonzero;fill:rgb(100%,40%,0%);fill-opacity:1;" d="M 14.765625 31.925781 C 14.519531 31.835938 14.28125 31.628906 14.15625 31.402344 L 14.03125 31.175781 L 14.03125 28.824219 L 14.15625 28.601562 C 14.292969 28.347656 14.558594 28.132812 14.816406 28.058594 C 14.925781 28.027344 15.359375 28.019531 16.09375 28.027344 C 17.066406 28.039062 17.226562 28.046875 17.34375 28.113281 C 17.574219 28.242188 17.777344 28.445312 17.875 28.65625 C 17.96875 28.859375 17.972656 28.898438 17.972656 30 C 17.972656 31.105469 17.96875 31.140625 17.875 31.34375 C 17.820312 31.460938 17.699219 31.621094 17.601562 31.703125 C 17.296875 31.960938 17.183594 31.980469 15.972656 31.976562 C 15.257812 31.976562 14.851562 31.960938 14.765625 31.925781 Z M 14.765625 31.925781 "/>
<path style=" stroke:none;fill-rule:nonzero;fill:rgb(100%,40%,0%);fill-opacity:1;" d="M 5.734375 28.175781 C 5.503906 28.09375 5.28125 27.90625 4.613281 27.222656 C 3.847656 26.449219 3.777344 26.335938 3.777344 25.894531 C 3.777344 25.4375 3.84375 25.335938 4.695312 24.480469 C 5.527344 23.648438 5.65625 23.5625 6.0625 23.5625 C 6.527344 23.558594 6.570312 23.585938 7.441406 24.445312 C 8.34375 25.332031 8.4375 25.46875 8.4375 25.894531 C 8.4375 26.304688 8.351562 26.429688 7.519531 27.269531 C 6.667969 28.128906 6.523438 28.226562 6.105469 28.222656 C 5.972656 28.21875 5.804688 28.199219 5.734375 28.175781 Z M 5.734375 28.175781 "/>
<path style=" stroke:none;fill-rule:nonzero;fill:rgb(100%,40%,0%);fill-opacity:1;" d="M 0.816406 17.945312 C 0.542969 17.863281 0.296875 17.652344 0.152344 17.371094 L 0.015625 17.105469 L 0.0273438 15.949219 C 0.0390625 14.933594 0.046875 14.773438 0.113281 14.65625 C 0.238281 14.421875 0.445312 14.222656 0.65625 14.125 C 0.859375 14.03125 0.898438 14.027344 2 14.027344 C 3.101562 14.027344 3.140625 14.03125 3.34375 14.125 C 3.554688 14.222656 3.757812 14.421875 3.886719 14.65625 C 3.953125 14.773438 3.960938 14.933594 3.972656 15.90625 C 3.980469 16.640625 3.96875 17.074219 3.9375 17.183594 C 3.867188 17.441406 3.648438 17.707031 3.398438 17.84375 L 3.175781 17.96875 L 2.0625 17.976562 C 1.449219 17.980469 0.886719 17.964844 0.816406 17.945312 Z M 0.816406 17.945312 "/>
<path style=" stroke:none;fill-rule:nonzero;fill:rgb(100%,40%,0%);fill-opacity:1;" d="M 5.71875 8.378906 C 5.527344 8.308594 5.398438 8.199219 4.71875 7.519531 C 3.835938 6.640625 3.757812 6.523438 3.757812 6.101562 C 3.757812 5.679688 3.835938 5.5625 4.734375 4.671875 C 5.492188 3.917969 5.539062 3.875 5.773438 3.8125 C 6.066406 3.726562 6.332031 3.75 6.589844 3.875 C 6.835938 4 8.148438 5.308594 8.300781 5.582031 C 8.398438 5.761719 8.417969 5.839844 8.417969 6.101562 C 8.417969 6.367188 8.398438 6.445312 8.300781 6.625 C 8.148438 6.898438 6.835938 8.203125 6.585938 8.332031 C 6.328125 8.457031 5.996094 8.476562 5.71875 8.378906 Z M 5.71875 8.378906 "/>
<path style=" stroke:none;fill-rule:nonzero;fill:rgb(100%,100%,0%);fill-opacity:1;" d="M 15.125 25.953125 C 13.886719 25.835938 12.8125 25.53125 11.671875 24.988281 C 8.707031 23.5625 6.613281 20.738281 6.101562 17.472656 C 6.011719 16.894531 5.980469 15.640625 6.042969 15.035156 C 6.507812 10.363281 10.175781 6.628906 14.855469 6.058594 C 15.386719 5.992188 16.597656 5.992188 17.125 6.058594 C 21.621094 6.609375 25.179688 10.046875 25.882812 14.527344 C 25.988281 15.191406 25.988281 16.785156 25.882812 17.449219 C 25.371094 20.695312 23.363281 23.453125 20.441406 24.925781 C 18.800781 25.753906 16.898438 26.121094 15.125 25.953125 Z M 15.125 25.953125 "/>
</g>
</svg>
