<?xml version="1.0" encoding="UTF-8"?>
<svg xmlns="http://www.w3.org/2000/svg" xmlns:xlink="http://www.w3.org/1999/xlink" width="32" height="32" viewBox="0 0 32 32" version="1.1">
<g id="surface1">
<path style=" stroke:none;fill-rule:nonzero;fill:rgb(74.509804%,74.509804%,74.509804%);fill-opacity:1;" d="M 18.941406 0 C 16.394531 0 14.324219 1.945312 14.042969 4.4375 C 13.382812 4.195312 12.722656 4 11.984375 4 C 8.695312 4 6.035156 6.683594 6.035156 10 C 6.035156 10.195312 6.078125 10.367188 6.09375 10.5625 C 5.496094 10.199219 4.796875 10 4.054688 10 C 1.863281 10 0.0898438 11.789062 0.0898438 14 C 0.0898438 16.210938 1.863281 18 4.054688 18 L 28.847656 18 C 30.492188 18 31.820312 16.65625 31.820312 15 C 31.820312 13.34375 30.492188 12 28.847656 12 C 28.4375 12 28.023438 12.097656 27.667969 12.25 C 27.773438 11.847656 27.855469 11.4375 27.855469 11 C 27.855469 8.539062 26.085938 6.542969 23.765625 6.125 C 23.847656 5.761719 23.886719 5.390625 23.886719 5 C 23.886719 2.238281 21.667969 0 18.929688 0 Z M 18.941406 0 "/>
<path style=" stroke:none;fill-rule:nonzero;fill:rgb(0%,100%,100%);fill-opacity:1;" d="M 4.820312 20 C 4.398438 20.066406 4.070312 20.398438 4 20.820312 L 2 30.632812 C 1.890625 30.996094 1.992188 31.390625 2.273438 31.648438 C 2.550781 31.90625 2.953125 31.984375 3.304688 31.847656 C 3.660156 31.710938 3.90625 31.386719 3.9375 31.007812 L 5.9375 21.195312 C 6.007812 20.875 5.917969 20.539062 5.695312 20.296875 C 5.472656 20.058594 5.144531 19.945312 4.816406 19.996094 Z M 4.820312 20 "/>
<path style=" stroke:none;fill-rule:nonzero;fill:rgb(0%,100%,100%);fill-opacity:1;" d="M 8.820312 20 C 8.398438 20.066406 8.066406 20.398438 8 20.820312 L 6 30.632812 C 5.890625 30.996094 5.996094 31.390625 6.273438 31.648438 C 6.550781 31.90625 6.953125 31.984375 7.304688 31.847656 C 7.660156 31.710938 7.90625 31.386719 7.9375 31.007812 L 9.996094 21.167969 C 10.070312 20.835938 9.96875 20.492188 9.730469 20.253906 C 9.492188 20.015625 9.148438 19.914062 8.816406 19.988281 Z M 8.820312 20 "/>
<path style=" stroke:none;fill-rule:nonzero;fill:rgb(0%,100%,100%);fill-opacity:1;" d="M 12.820312 20 C 12.398438 20.066406 12.066406 20.398438 12 20.820312 L 10 30.632812 C 9.894531 31.183594 10.257812 31.714844 10.8125 31.820312 C 11.363281 31.921875 11.894531 31.558594 12 31.007812 L 14 21.195312 C 14.078125 20.863281 13.980469 20.511719 13.742188 20.265625 C 13.503906 20.023438 13.15625 19.921875 12.820312 19.996094 Z M 12.820312 20 "/>
<path style=" stroke:none;fill-rule:nonzero;fill:rgb(0%,100%,100%);fill-opacity:1;" d="M 16.820312 20 C 16.398438 20.066406 16.066406 20.398438 16 20.820312 L 14 30.632812 C 13.894531 31.183594 14.257812 31.714844 14.8125 31.820312 C 15.363281 31.921875 15.894531 31.558594 16 31.007812 L 18 21.195312 C 18.078125 20.863281 17.980469 20.511719 17.742188 20.265625 C 17.503906 20.023438 17.152344 19.921875 16.820312 19.996094 Z M 16.820312 20 "/>
<path style=" stroke:none;fill-rule:nonzero;fill:rgb(0%,100%,100%);fill-opacity:1;" d="M 20.820312 20 C 20.429688 20.09375 20.132812 20.414062 20.070312 20.8125 L 17.992188 30.613281 C 17.886719 31.164062 18.25 31.695312 18.804688 31.800781 C 19.355469 31.902344 19.886719 31.539062 19.992188 30.988281 L 21.992188 21.175781 C 22.0625 20.84375 21.960938 20.5 21.722656 20.261719 C 21.484375 20.023438 21.140625 19.921875 20.808594 19.996094 Z M 20.820312 20 "/>
<path style=" stroke:none;fill-rule:nonzero;fill:rgb(0%,100%,100%);fill-opacity:1;" d="M 24.820312 20 C 24.429688 20.09375 24.132812 20.414062 24.070312 20.8125 L 22.070312 30.625 C 21.929688 30.996094 22.023438 31.414062 22.308594 31.691406 C 22.59375 31.964844 23.015625 32.046875 23.382812 31.890625 C 23.746094 31.738281 23.988281 31.382812 23.992188 30.984375 L 25.992188 21.171875 C 26.0625 20.84375 25.960938 20.5 25.722656 20.261719 C 25.484375 20.023438 25.140625 19.921875 24.808594 19.992188 Z M 24.820312 20 "/>
</g>
</svg>
