<?xml version="1.0" encoding="UTF-8"?>
<svg xmlns="http://www.w3.org/2000/svg" xmlns:xlink="http://www.w3.org/1999/xlink" width="32" height="32" viewBox="0 0 32 32" version="1.1">
<g id="surface1">
<path style=" stroke:none;fill-rule:nonzero;fill:rgb(74.509804%,74.509804%,74.509804%);fill-opacity:1;" d="M 19.078125 0 C 16.527344 0 14.453125 1.945312 14.167969 4.4375 C 13.53125 4.195312 12.847656 4 12.128906 4 C 8.832031 4 6.164062 6.683594 6.164062 10 C 6.164062 10.195312 6.207031 10.367188 6.226562 10.5625 C 5.625 10.199219 4.90625 10 4.164062 10 C 1.96875 10 0.1875 11.789062 0.1875 14 C 0.1875 16.210938 1.96875 18 4.164062 18 L 6.214844 18 C 5.882812 16.957031 6.144531 15.8125 6.898438 15.019531 C 7.648438 14.226562 8.765625 13.90625 9.820312 14.1875 C 9.84375 14.1875 9.863281 14.1875 9.882812 14.1875 C 10.574219 13.464844 11.574219 13.136719 12.554688 13.3125 C 12.957031 12.730469 13.550781 12.308594 14.234375 12.125 C 14.585938 10.859375 15.722656 9.96875 17.03125 9.9375 C 18.386719 9.914062 19.585938 10.8125 19.953125 12.125 C 20.632812 12.308594 21.226562 12.730469 21.628906 13.3125 C 22.640625 13.078125 23.699219 13.382812 24.425781 14.125 C 25.484375 13.859375 26.601562 14.199219 27.339844 15.007812 C 28.078125 15.8125 28.320312 16.960938 27.96875 18 L 29.027344 18 C 30.671875 18 32.007812 16.65625 32.007812 15 C 32.007812 13.34375 30.671875 12 29.027344 12 C 28.613281 12 28.203125 12.097656 27.84375 12.25 C 27.949219 11.847656 28.03125 11.4375 28.03125 11 C 28.03125 8.539062 26.253906 6.542969 23.929688 6.125 C 24.011719 5.761719 24.054688 5.390625 24.054688 5 C 24.054688 2.238281 21.828125 0 19.082031 0 Z M 19.078125 0 "/>
<path style=" stroke:none;fill-rule:nonzero;fill:rgb(100%,100%,100%);fill-opacity:1;" d="M 16.878906 11.878906 C 16.351562 11.941406 15.964844 12.410156 16 12.941406 L 16 14.253906 L 15.4375 14.003906 C 14.9375 13.761719 14.335938 13.96875 14.09375 14.472656 C 13.851562 14.972656 14.0625 15.574219 14.5625 15.816406 L 16.003906 16.496094 L 16.003906 20.121094 L 12.691406 18.058594 L 12.816406 16.308594 C 12.867188 15.753906 12.460938 15.265625 11.910156 15.214844 C 11.355469 15.160156 10.867188 15.566406 10.816406 16.121094 L 10.753906 16.933594 L 9.566406 16.183594 C 9.265625 15.964844 8.867188 15.933594 8.535156 16.09375 C 8.203125 16.257812 7.992188 16.59375 7.980469 16.964844 C 7.96875 17.335938 8.164062 17.679688 8.484375 17.863281 L 9.796875 18.675781 L 9.171875 19.175781 C 8.722656 19.503906 8.625 20.132812 8.953125 20.582031 C 9.28125 21.03125 9.910156 21.128906 10.359375 20.800781 L 11.671875 19.800781 L 15.046875 21.863281 L 11.609375 23.988281 L 10.296875 23.050781 C 10.03125 22.746094 9.605469 22.636719 9.222656 22.769531 C 8.84375 22.902344 8.578125 23.25 8.550781 23.652344 C 8.527344 24.054688 8.746094 24.433594 9.109375 24.613281 L 9.796875 25.113281 L 8.421875 25.925781 C 7.941406 26.21875 7.785156 26.847656 8.078125 27.332031 C 8.371094 27.8125 9 27.96875 9.484375 27.675781 L 10.734375 26.925781 L 10.796875 27.675781 C 10.816406 28.03125 11.03125 28.351562 11.351562 28.511719 C 11.671875 28.671875 12.054688 28.648438 12.351562 28.449219 C 12.652344 28.25 12.820312 27.90625 12.796875 27.550781 L 12.671875 25.738281 L 15.984375 23.675781 L 15.984375 27.300781 L 14.542969 27.941406 C 14.042969 28.179688 13.835938 28.78125 14.074219 29.285156 C 14.316406 29.785156 14.917969 29.992188 15.417969 29.753906 L 15.980469 29.503906 L 15.980469 30.878906 C 15.976562 31.238281 16.167969 31.574219 16.476562 31.753906 C 16.789062 31.9375 17.175781 31.9375 17.484375 31.753906 C 17.796875 31.574219 17.988281 31.238281 17.980469 30.878906 L 17.980469 29.503906 L 18.542969 29.753906 C 19.046875 29.996094 19.652344 29.785156 19.894531 29.28125 C 20.136719 28.78125 19.929688 28.175781 19.425781 27.933594 L 17.984375 27.253906 L 17.984375 23.628906 L 21.296875 25.628906 L 21.171875 27.503906 C 21.15625 28.054688 21.589844 28.515625 22.140625 28.535156 C 22.691406 28.550781 23.15625 28.117188 23.171875 27.566406 L 23.234375 26.816406 L 24.421875 27.566406 C 24.722656 27.789062 25.125 27.824219 25.460938 27.660156 C 25.800781 27.492188 26.015625 27.152344 26.019531 26.773438 C 26.023438 26.398438 25.816406 26.054688 25.484375 25.878906 L 24.109375 25.066406 L 24.796875 24.566406 C 25.125 24.367188 25.3125 24.003906 25.285156 23.625 C 25.257812 23.242188 25.015625 22.914062 24.660156 22.769531 C 24.308594 22.625 23.902344 22.691406 23.617188 22.945312 L 22.304688 23.945312 L 18.929688 21.882812 L 22.304688 19.820312 L 23.679688 20.757812 C 23.964844 21.027344 24.382812 21.105469 24.75 20.957031 C 25.113281 20.808594 25.355469 20.457031 25.367188 20.0625 C 25.378906 19.667969 25.160156 19.304688 24.804688 19.132812 L 24.179688 18.695312 L 25.554688 17.820312 C 26.039062 17.527344 26.191406 16.898438 25.898438 16.414062 C 25.605469 15.929688 24.976562 15.777344 24.492188 16.070312 L 23.242188 16.820312 L 23.179688 16.070312 C 23.160156 15.710938 22.949219 15.390625 22.625 15.230469 C 22.304688 15.070312 21.921875 15.09375 21.625 15.292969 C 21.324219 15.492188 21.15625 15.835938 21.179688 16.195312 L 21.304688 18.007812 L 17.992188 20.070312 L 17.992188 16.445312 L 19.429688 15.757812 C 19.789062 15.625 20.039062 15.296875 20.078125 14.917969 C 20.117188 14.535156 19.933594 14.167969 19.609375 13.964844 C 19.285156 13.761719 18.875 13.757812 18.550781 13.957031 L 17.992188 14.195312 L 17.992188 12.882812 C 18.011719 12.585938 17.898438 12.292969 17.679688 12.085938 C 17.460938 11.882812 17.160156 11.785156 16.867188 11.820312 Z M 16.878906 11.878906 "/>
</g>
</svg>
