<?xml version="1.0" encoding="UTF-8"?>
<svg xmlns="http://www.w3.org/2000/svg" xmlns:xlink="http://www.w3.org/1999/xlink" width="32" height="32" viewBox="0 0 32 32" version="1.1">
<g id="surface1">
<path style=" stroke:none;fill-rule:nonzero;fill:rgb(74.509804%,74.509804%,74.509804%);fill-opacity:1;" d="M 16 6 C 10.5 6 6 10.5 6 16 C 6 19.566406 7.914062 22.726562 10.75 24.5 C 11.085938 24.347656 11.445312 24.21875 11.8125 24.125 C 12.269531 20.492188 15.25 17.625 19 17.625 C 21.003906 17.625 22.675781 18.570312 24 19.875 C 24.351562 19.808594 24.617188 19.625 25 19.625 C 25.085938 19.625 25.164062 19.621094 25.25 19.625 C 25.699219 18.492188 26 17.285156 26 16 C 26 10.5 21.5 6 16 6 Z M 16 6 "/>
<path style=" stroke:none;fill-rule:nonzero;fill:rgb(74.509804%,74.509804%,74.509804%);fill-opacity:1;" d="M 1.125 14 L 2.875 14 C 3.496094 14 4 14.503906 4 15.125 L 4 16.875 C 4 17.496094 3.496094 18 2.875 18 L 1.125 18 C 0.503906 18 0 17.496094 0 16.875 L 0 15.125 C 0 14.503906 0.503906 14 1.125 14 Z M 1.125 14 "/>
<path style=" stroke:none;fill-rule:nonzero;fill:rgb(74.509804%,74.509804%,74.509804%);fill-opacity:1;" d="M 29.125 14 L 30.875 14 C 31.496094 14 32 14.503906 32 15.125 L 32 16.875 C 32 17.496094 31.496094 18 30.875 18 L 29.125 18 C 28.503906 18 28 17.496094 28 16.875 L 28 15.125 C 28 14.503906 28.503906 14 29.125 14 Z M 29.125 14 "/>
<path style=" stroke:none;fill-rule:nonzero;fill:rgb(74.509804%,74.509804%,74.509804%);fill-opacity:1;" d="M 18 1.125 L 18 2.875 C 18 3.496094 17.496094 4 16.875 4 L 15.125 4 C 14.503906 4 14 3.496094 14 2.875 L 14 1.125 C 14 0.503906 14.503906 0 15.125 0 L 16.875 0 C 17.496094 0 18 0.503906 18 1.125 Z M 18 1.125 "/>
<path style=" stroke:none;fill-rule:nonzero;fill:rgb(74.509804%,74.509804%,74.509804%);fill-opacity:1;" d="M 27.933594 6.890625 L 26.695312 8.125 C 26.257812 8.566406 25.542969 8.566406 25.105469 8.125 L 23.867188 6.890625 C 23.429688 6.449219 23.429688 5.738281 23.867188 5.296875 L 25.105469 4.0625 C 25.542969 3.621094 26.257812 3.621094 26.695312 4.0625 L 27.933594 5.296875 C 28.375 5.738281 28.375 6.449219 27.933594 6.890625 Z M 27.933594 6.890625 "/>
<path style=" stroke:none;fill-rule:nonzero;fill:rgb(74.509804%,74.509804%,74.509804%);fill-opacity:1;" d="M 8.132812 26.6875 L 6.898438 27.925781 C 6.457031 28.363281 5.746094 28.363281 5.308594 27.925781 L 4.070312 26.6875 C 3.628906 26.25 3.628906 25.535156 4.070312 25.097656 L 5.308594 23.859375 C 5.746094 23.417969 6.457031 23.417969 6.898438 23.859375 L 8.132812 25.097656 C 8.574219 25.535156 8.574219 26.25 8.132812 26.6875 Z M 8.132812 26.6875 "/>
<path style=" stroke:none;fill-rule:nonzero;fill:rgb(74.509804%,74.509804%,74.509804%);fill-opacity:1;" d="M 6.890625 4.070312 L 8.125 5.308594 C 8.566406 5.746094 8.566406 6.460938 8.125 6.898438 L 6.890625 8.136719 C 6.449219 8.574219 5.738281 8.574219 5.296875 8.136719 L 4.0625 6.898438 C 3.621094 6.460938 3.621094 5.746094 4.0625 5.308594 L 5.296875 4.070312 C 5.738281 3.632812 6.449219 3.632812 6.890625 4.070312 Z M 6.890625 4.070312 "/>
<path style=" stroke:none;fill-rule:nonzero;fill:rgb(74.509804%,74.509804%,74.509804%);fill-opacity:1;" d="M 19 20 C 16.238281 20 14 22.238281 14 25 C 14 25.4375 14.082031 25.84375 14.1875 26.25 C 13.828125 26.109375 13.425781 26.007812 13.007812 26.007812 C 11.351562 26.007812 10.007812 27.351562 10.007812 29.007812 C 10.007812 30.667969 11.351562 32.007812 13.007812 32.007812 L 29.007812 32.007812 C 30.664062 32.007812 32.007812 30.667969 32.007812 29.007812 C 32.007812 27.351562 30.664062 26.007812 29.007812 26.007812 C 29.007812 23.800781 27.214844 22.007812 25.007812 22.007812 C 24.375 22.007812 23.789062 22.1875 23.257812 22.445312 C 22.398438 20.988281 20.835938 20.007812 19.015625 20.007812 Z M 19 20 "/>
<path style=" stroke:none;fill-rule:nonzero;fill:rgb(100%,100%,0%);fill-opacity:1;" d="M 10.355469 24.21875 C 8.589844 23 7.253906 21.234375 6.542969 19.171875 C 5.828125 17.09375 5.847656 14.691406 6.601562 12.632812 C 6.820312 12.042969 7.316406 11.054688 7.644531 10.558594 C 9.042969 8.441406 11.109375 6.957031 13.535156 6.332031 C 14.917969 5.972656 16.4375 5.925781 17.847656 6.191406 C 21.628906 6.902344 24.710938 9.804688 25.667969 13.546875 C 25.863281 14.296875 25.9375 14.835938 25.964844 15.65625 C 26.003906 16.804688 25.859375 17.78125 25.472656 18.933594 L 25.257812 19.578125 L 24.988281 19.609375 C 24.839844 19.625 24.574219 19.683594 24.398438 19.742188 C 24.222656 19.800781 24.058594 19.847656 24.035156 19.847656 C 24.007812 19.847656 23.867188 19.730469 23.714844 19.59375 C 23.191406 19.101562 22.484375 18.617188 21.789062 18.265625 C 20.546875 17.644531 19.007812 17.464844 17.519531 17.765625 C 15.699219 18.136719 13.925781 19.382812 12.917969 21.007812 C 12.367188 21.890625 12.019531 22.800781 11.851562 23.785156 L 11.796875 24.105469 L 11.324219 24.269531 C 11.066406 24.359375 10.824219 24.441406 10.789062 24.453125 C 10.753906 24.464844 10.566406 24.359375 10.355469 24.21875 Z M 10.355469 24.21875 "/>
<path style=" stroke:none;fill-rule:nonzero;fill:rgb(100%,40%,0%);fill-opacity:1;" d="M 5.734375 28.175781 C 5.503906 28.09375 5.28125 27.90625 4.613281 27.222656 C 3.847656 26.449219 3.777344 26.335938 3.777344 25.894531 C 3.777344 25.4375 3.84375 25.335938 4.695312 24.480469 C 5.527344 23.648438 5.65625 23.5625 6.0625 23.5625 C 6.527344 23.558594 6.570312 23.585938 7.441406 24.445312 C 8.34375 25.332031 8.4375 25.46875 8.4375 25.894531 C 8.4375 26.304688 8.351562 26.429688 7.519531 27.269531 C 6.667969 28.128906 6.523438 28.226562 6.105469 28.222656 C 5.972656 28.21875 5.804688 28.199219 5.734375 28.175781 Z M 5.734375 28.175781 "/>
<path style=" stroke:none;fill-rule:nonzero;fill:rgb(100%,40%,0%);fill-opacity:1;" d="M 0.816406 17.945312 C 0.542969 17.863281 0.296875 17.652344 0.152344 17.371094 L 0.015625 17.105469 L 0.0273438 15.949219 C 0.0390625 14.933594 0.046875 14.773438 0.113281 14.65625 C 0.238281 14.421875 0.445312 14.222656 0.65625 14.125 C 0.859375 14.03125 0.898438 14.027344 2 14.027344 C 3.101562 14.027344 3.140625 14.03125 3.34375 14.125 C 3.554688 14.222656 3.757812 14.421875 3.886719 14.65625 C 3.953125 14.773438 3.960938 14.933594 3.972656 15.90625 C 3.980469 16.640625 3.96875 17.074219 3.9375 17.183594 C 3.867188 17.441406 3.648438 17.707031 3.398438 17.84375 L 3.175781 17.96875 L 2.0625 17.976562 C 1.449219 17.980469 0.886719 17.964844 0.816406 17.945312 Z M 0.816406 17.945312 "/>
<path style=" stroke:none;fill-rule:nonzero;fill:rgb(100%,40%,0%);fill-opacity:1;" d="M 5.71875 8.378906 C 5.527344 8.308594 5.398438 8.199219 4.71875 7.519531 C 3.835938 6.640625 3.757812 6.523438 3.757812 6.101562 C 3.757812 5.679688 3.835938 5.5625 4.734375 4.671875 C 5.492188 3.917969 5.539062 3.875 5.773438 3.8125 C 6.066406 3.726562 6.332031 3.75 6.589844 3.875 C 6.835938 4 8.148438 5.308594 8.300781 5.582031 C 8.398438 5.761719 8.417969 5.839844 8.417969 6.101562 C 8.417969 6.367188 8.398438 6.445312 8.300781 6.625 C 8.148438 6.898438 6.835938 8.203125 6.585938 8.332031 C 6.328125 8.457031 5.996094 8.476562 5.71875 8.378906 Z M 5.71875 8.378906 "/>
<path style=" stroke:none;fill-rule:nonzero;fill:rgb(100%,40%,0%);fill-opacity:1;" d="M 14.832031 3.941406 C 14.476562 3.84375 14.175781 3.550781 14.074219 3.207031 C 13.984375 2.902344 13.980469 1.09375 14.070312 0.792969 C 14.152344 0.523438 14.386719 0.253906 14.648438 0.132812 C 14.851562 0.0390625 14.886719 0.0351562 16.007812 0.0351562 C 17.101562 0.0351562 17.171875 0.0390625 17.34375 0.125 C 17.558594 0.226562 17.773438 0.4375 17.875 0.648438 C 17.941406 0.78125 17.953125 0.929688 17.964844 1.929688 C 17.976562 3.179688 17.960938 3.285156 17.726562 3.585938 C 17.652344 3.675781 17.496094 3.796875 17.363281 3.859375 L 17.125 3.976562 L 16.074219 3.984375 C 15.328125 3.992188 14.96875 3.980469 14.832031 3.941406 Z M 14.832031 3.941406 "/>
<path style=" stroke:none;fill-rule:nonzero;fill:rgb(100%,40%,0%);fill-opacity:1;" d="M 25.671875 8.417969 C 25.382812 8.34375 25.210938 8.207031 24.464844 7.453125 C 23.71875 6.699219 23.671875 6.648438 23.605469 6.414062 C 23.558594 6.257812 23.542969 6.109375 23.558594 5.988281 C 23.613281 5.613281 23.722656 5.457031 24.464844 4.707031 C 25.265625 3.902344 25.492188 3.75 25.875 3.75 C 26.320312 3.75 26.425781 3.816406 27.261719 4.644531 C 28.160156 5.53125 28.230469 5.636719 28.226562 6.101562 C 28.226562 6.339844 28.207031 6.453125 28.136719 6.578125 C 28.015625 6.804688 26.535156 8.269531 26.347656 8.347656 C 26.160156 8.425781 25.832031 8.460938 25.671875 8.417969 Z M 25.671875 8.417969 "/>
<path style=" stroke:none;fill-rule:nonzero;fill:rgb(100%,40%,0%);fill-opacity:1;" d="M 28.753906 17.910156 C 28.492188 17.820312 28.246094 17.59375 28.117188 17.328125 C 28.027344 17.148438 28.023438 17.097656 28.023438 16.007812 L 28.023438 14.875 L 28.140625 14.636719 C 28.203125 14.507812 28.324219 14.34375 28.40625 14.277344 C 28.691406 14.039062 28.820312 14.023438 30.070312 14.035156 C 31.328125 14.046875 31.355469 14.054688 31.65625 14.347656 C 31.953125 14.632812 31.960938 14.6875 31.964844 15.988281 C 31.964844 17.117188 31.960938 17.148438 31.867188 17.351562 C 31.8125 17.464844 31.6875 17.628906 31.589844 17.714844 C 31.300781 17.960938 31.140625 17.988281 29.984375 17.988281 C 29.109375 17.988281 28.941406 17.976562 28.753906 17.910156 Z M 28.753906 17.910156 "/>
</g>
</svg>
