<?xml version="1.0" encoding="UTF-8"?>
<svg xmlns="http://www.w3.org/2000/svg" xmlns:xlink="http://www.w3.org/1999/xlink" width="32" height="32" viewBox="0 0 32 32" version="1.1">
<g id="surface1">
<path style=" stroke:none;fill-rule:nonzero;fill:rgb(74.509804%,74.509804%,74.509804%);fill-opacity:1;" d="M 19 4 C 16.433594 4 14.347656 5.945312 14.0625 8.4375 C 13.402344 8.195312 12.742188 8 12 8 C 8.6875 8 6.003906 10.683594 6.003906 14 C 6.003906 14.195312 6.046875 14.367188 6.066406 14.5625 C 5.464844 14.199219 4.746094 14 4.003906 14 C 1.796875 14 0.00390625 15.789062 0.00390625 18 C 0.00390625 20.210938 1.796875 22 4.003906 22 L 14.003906 22 L 14.003906 17.75 C 14.003906 15.730469 15.734375 14 17.753906 14 L 27.878906 14 C 27.460938 12.027344 25.882812 10.484375 23.878906 10.125 C 23.964844 9.761719 24.003906 9.386719 24.003906 9 C 24.003906 6.238281 21.765625 4 19.003906 4 Z M 19 4 "/>
<path style=" stroke:none;fill-rule:nonzero;fill:rgb(96.078431%,47.45098%,0%);fill-opacity:1;" d="M 17.757812 16 C 16.773438 16 16.007812 16.765625 16.007812 17.75 L 16.007812 30.25 C 16.007812 31.234375 16.773438 32 17.757812 32 L 30.257812 32 C 31.246094 32 32.007812 31.234375 32.007812 30.25 L 32.007812 17.75 C 32.007812 16.765625 31.246094 16 30.257812 16 Z M 22.007812 18 L 26.007812 18 L 26.007812 26 L 22.007812 26 Z M 22.007812 28 L 26.007812 28 L 26.007812 30 L 22.007812 30 Z M 22.007812 28 "/>
</g>
</svg>
