<?xml version="1.0" encoding="UTF-8"?>
<svg xmlns="http://www.w3.org/2000/svg" xmlns:xlink="http://www.w3.org/1999/xlink" width="32" height="32" viewBox="0 0 32 32" version="1.1">
<g id="surface1">
<path style=" stroke:none;fill-rule:nonzero;fill:rgb(74.509804%,74.509804%,74.509804%);fill-opacity:1;" d="M 19 8 C 16.433594 8 14.347656 9.945312 14.0625 12.4375 C 13.402344 12.195312 12.742188 12 12 12 C 8.6875 12 6.003906 14.683594 6.003906 17.996094 C 6.003906 18.195312 6.046875 18.367188 6.066406 18.558594 C 5.464844 18.199219 4.746094 18 4.003906 18 C 1.796875 18 0.00390625 19.789062 0.00390625 22 C 0.00390625 24.210938 1.796875 26 4.003906 26 L 29.003906 26 C 30.660156 26 32.003906 24.65625 32.003906 23 C 32.003906 21.34375 30.660156 20 29.003906 20 C 28.589844 20 28.175781 20.097656 27.816406 20.25 C 27.921875 19.847656 28.003906 19.4375 28.003906 19 C 28.003906 16.539062 26.21875 14.542969 23.878906 14.125 C 23.964844 13.761719 24.003906 13.386719 24.003906 13 C 24.003906 10.238281 21.765625 8 19.003906 8 Z M 19 8 "/>
</g>
</svg>
