<?xml version="1.0" encoding="UTF-8"?>
<svg xmlns="http://www.w3.org/2000/svg" xmlns:xlink="http://www.w3.org/1999/xlink" width="22" height="22" viewBox="0 0 22 22" version="1.1">
<g id="surface1">
<path style=" stroke:none;fill-rule:evenodd;fill:rgb(50.196078%,50.196078%,50.196078%);fill-opacity:1;" d="M 2.773438 6.769531 L 5.117188 9.0625 L 5.042969 5.847656 L 2.773438 5.835938 Z M 2.773438 6.769531 "/>
<path style="fill-rule:evenodd;fill:rgb(94.901961%,94.901961%,94.901961%);fill-opacity:1;stroke-width:5.03546;stroke-linecap:butt;stroke-linejoin:miter;stroke:rgb(68.627451%,68.627451%,68.627451%);stroke-opacity:1;stroke-miterlimit:4;" d="M 97.034801 1029.812464 L 433.948864 1028.658344 L 435.102983 664.755646 L 347.034801 575.533344 L 97.034801 575.533344 Z M 97.034801 1029.812464 " transform="matrix(0.044,0,0,0.044,0,-24.303936)"/>
<path style="fill-rule:evenodd;fill:rgb(68.627451%,68.627451%,68.627451%);fill-opacity:1;stroke-width:5.03546;stroke-linecap:butt;stroke-linejoin:miter;stroke:rgb(68.627451%,68.627451%,68.627451%);stroke-opacity:1;stroke-miterlimit:4;" d="M 431.551847 662.891299 L 349.34304 662.358629 L 350.142045 578.55181 Z M 431.551847 662.891299 " transform="matrix(0.044,0,0,0.044,0,-24.303936)"/>
<path style=" stroke:none;fill-rule:nonzero;fill:rgb(60%,60%,60%);fill-opacity:1;" d="M 2.777344 3.070312 L 12.675781 3.070312 L 12.675781 6.785156 L 2.777344 6.785156 Z M 2.777344 3.070312 "/>
<path style=" stroke:none;fill-rule:nonzero;fill:rgb(80%,80%,80%);fill-opacity:1;" d="M 7.273438 9.765625 L 15.617188 9.765625 C 16.351562 9.765625 16.945312 10.496094 16.945312 11.390625 L 16.945312 19.140625 C 16.945312 20.039062 16.351562 20.765625 15.617188 20.765625 L 7.273438 20.765625 C 6.542969 20.765625 5.945312 20.039062 5.945312 19.140625 L 5.945312 11.390625 C 5.945312 10.496094 6.542969 9.765625 7.273438 9.765625 Z M 7.273438 9.765625 "/>
<path style=" stroke:none;fill-rule:nonzero;fill:rgb(70.196078%,70.196078%,70.196078%);fill-opacity:1;" d="M 8.171875 11.023438 L 14.660156 11.023438 C 15.230469 11.023438 15.691406 11.585938 15.691406 12.285156 L 15.691406 18.3125 C 15.691406 19.011719 15.230469 19.578125 14.660156 19.578125 L 8.171875 19.578125 C 7.601562 19.578125 7.136719 19.011719 7.136719 18.3125 L 7.136719 12.285156 C 7.136719 11.585938 7.601562 11.023438 8.171875 11.023438 Z M 8.171875 11.023438 "/>
<path style=" stroke:none;fill-rule:nonzero;fill:rgb(22.352941%,25.098039%,31.372549%);fill-opacity:1;" d="M 11.980469 17.28125 L 10.289062 13.175781 L 9.828125 13.175781 L 8.128906 17.28125 L 8.710938 17.28125 L 9.234375 15.929688 L 10.855469 15.929688 L 11.390625 17.28125 Z M 10.652344 15.472656 L 9.433594 15.472656 L 10.058594 13.789062 Z M 10.652344 15.472656 "/>
<path style=" stroke:none;fill-rule:nonzero;fill:rgb(22.352941%,25.098039%,31.372549%);fill-opacity:1;" d="M 13.207031 17.359375 C 13.570312 17.359375 13.894531 17.226562 14.183594 16.980469 L 14.269531 17.359375 L 14.765625 17.25 C 14.6875 16.96875 14.648438 16.71875 14.648438 16.507812 L 14.648438 15.546875 C 14.648438 14.722656 14.25 14.3125 13.445312 14.3125 C 13.101562 14.3125 12.734375 14.367188 12.347656 14.480469 L 12.40625 14.960938 C 12.773438 14.816406 13.113281 14.75 13.417969 14.75 C 13.828125 14.75 14.058594 14.964844 14.117188 15.386719 C 12.828125 15.40625 12.1875 15.773438 12.1875 16.488281 C 12.1875 17.03125 12.644531 17.359375 13.207031 17.359375 Z M 14.117188 16.363281 C 14.117188 16.675781 13.582031 16.890625 13.230469 16.890625 C 12.898438 16.890625 12.726562 16.738281 12.726562 16.4375 C 12.726562 16.066406 13.195312 15.867188 14.117188 15.851562 Z M 14.117188 16.363281 "/>
<path style="fill:none;stroke-width:9;stroke-linecap:butt;stroke-linejoin:miter;stroke:rgb(100%,100%,100%);stroke-opacity:1;stroke-miterlimit:4;" d="M 233.406909 692.553487 L 233.762022 640.795674 L 268.208045 640.973231 " transform="matrix(0.044,0,0,0.044,-0.019904,-24.448916)"/>
<path style="fill:none;stroke-width:9;stroke-linecap:butt;stroke-linejoin:miter;stroke:rgb(100%,100%,100%);stroke-opacity:1;stroke-miterlimit:4;" d="M 236.159039 664.588288 L 265.278358 664.765844 " transform="matrix(0.044,0,0,0.044,-0.019904,-24.448916)"/>
<path style="fill:none;stroke-width:9;stroke-linecap:butt;stroke-linejoin:miter;stroke:rgb(100%,100%,100%);stroke-opacity:1;stroke-miterlimit:4;" d="M 122.763675 699.64577 L 122.763675 642.383696 " transform="matrix(0.044,0,0,0.044,0.340586,-24.565664)"/>
<path style="fill:none;stroke-width:8.670217;stroke-linecap:butt;stroke-linejoin:miter;stroke:rgb(100%,100%,100%);stroke-opacity:1;stroke-miterlimit:4;" d="M 96.218931 642.73881 L 149.397198 642.73881 " transform="matrix(0.044,0,0,0.044,0.340586,-24.565664)"/>
<path style="fill:none;stroke-width:9;stroke-linecap:butt;stroke-linejoin:miter;stroke:rgb(100%,100%,100%);stroke-opacity:1;stroke-miterlimit:4;" d="M 122.767294 699.64577 L 122.767294 642.383696 " transform="matrix(0.044,0,0,0.044,3.109958,-24.565664)"/>
<path style="fill:none;stroke-width:8.670217;stroke-linecap:butt;stroke-linejoin:miter;stroke:rgb(100%,100%,100%);stroke-opacity:1;stroke-miterlimit:4;" d="M 96.22255 642.73881 L 149.400817 642.73881 " transform="matrix(0.044,0,0,0.044,3.109958,-24.565664)"/>
</g>
</svg>
