<?xml version="1.0" encoding="UTF-8"?>
<svg xmlns="http://www.w3.org/2000/svg" xmlns:xlink="http://www.w3.org/1999/xlink" width="22" height="22" viewBox="0 0 22 22" version="1.1">
<g id="surface1">
<path style=" stroke:none;fill-rule:evenodd;fill:rgb(71.764706%,16.470588%,5.098039%);fill-opacity:1;" d="M 2.773438 6.769531 L 5.117188 9.0625 L 5.042969 5.847656 L 2.773438 5.835938 Z M 2.773438 6.769531 "/>
<path style="fill-rule:evenodd;fill:rgb(94.901961%,94.901961%,94.901961%);fill-opacity:1;stroke-width:5.03546;stroke-linecap:butt;stroke-linejoin:miter;stroke:rgb(68.627451%,68.627451%,68.627451%);stroke-opacity:1;stroke-miterlimit:4;" d="M 97.034801 1029.812464 L 433.948864 1028.658344 L 435.102983 664.755646 L 347.034801 575.533344 L 97.034801 575.533344 Z M 97.034801 1029.812464 " transform="matrix(0.044,0,0,0.044,0,-24.303936)"/>
<path style="fill-rule:evenodd;fill:rgb(68.627451%,68.627451%,68.627451%);fill-opacity:1;stroke-width:5.03546;stroke-linecap:butt;stroke-linejoin:miter;stroke:rgb(68.627451%,68.627451%,68.627451%);stroke-opacity:1;stroke-miterlimit:4;" d="M 431.551847 662.891299 L 349.34304 662.358629 L 350.142045 578.55181 Z M 431.551847 662.891299 " transform="matrix(0.044,0,0,0.044,0,-24.303936)"/>
<path style=" stroke:none;fill-rule:nonzero;fill:rgb(94.117647%,22.352941%,8.627451%);fill-opacity:1;" d="M 2.777344 3.070312 L 12.675781 3.070312 L 12.675781 6.785156 L 2.777344 6.785156 Z M 2.777344 3.070312 "/>
<path style=" stroke:none;fill-rule:nonzero;fill:rgb(94.117647%,22.352941%,8.627451%);fill-opacity:1;" d="M 11.503906 11.992188 L 12.660156 13.917969 L 10.375 13.902344 Z M 11.503906 11.992188 "/>
<path style=" stroke:none;fill-rule:nonzero;fill:rgb(50.196078%,0%,0%);fill-opacity:1;" d="M 9.46875 13.851562 L 13.589844 13.851562 L 11.515625 20.78125 Z M 9.46875 13.851562 "/>
<path style=" stroke:none;fill-rule:nonzero;fill:rgb(94.117647%,22.352941%,8.627451%);fill-opacity:1;" d="M 6.007812 14.167969 L 11.507812 20.773438 L 9.574219 13.851562 L 6.335938 13.84375 Z M 6.007812 14.167969 "/>
<path style=" stroke:none;fill-rule:nonzero;fill:rgb(94.117647%,22.352941%,8.627451%);fill-opacity:1;" d="M 17.007812 14.167969 L 11.507812 20.773438 L 13.445312 13.851562 L 16.683594 13.84375 Z M 17.007812 14.167969 "/>
<path style=" stroke:none;fill-rule:nonzero;fill:rgb(83.137255%,0%,0%);fill-opacity:1;" d="M 6.328125 13.851562 L 9.574219 13.855469 L 9.109375 11.972656 L 8.207031 11.972656 Z M 6.328125 13.851562 "/>
<path style=" stroke:none;fill-rule:nonzero;fill:rgb(83.137255%,0%,0%);fill-opacity:1;" d="M 16.6875 13.851562 L 13.445312 13.855469 L 13.910156 11.972656 L 14.8125 11.972656 Z M 16.6875 13.851562 "/>
<path style=" stroke:none;fill-rule:nonzero;fill:rgb(50.196078%,0%,0%);fill-opacity:1;" d="M 11.550781 11.984375 L 9.097656 11.972656 L 9.558594 13.855469 L 10.460938 13.855469 Z M 11.550781 11.984375 "/>
<path style=" stroke:none;fill-rule:nonzero;fill:rgb(50.196078%,0%,0%);fill-opacity:1;" d="M 11.46875 11.984375 L 13.921875 11.972656 L 13.460938 13.855469 L 12.558594 13.855469 Z M 11.46875 11.984375 "/>
<path style="fill:none;stroke-width:9.063828;stroke-linecap:butt;stroke-linejoin:miter;stroke:rgb(100%,100%,100%);stroke-opacity:1;stroke-miterlimit:4;" d="M 384.456085 735.888523 L 384.456085 679.425455 C 384.456085 679.425455 415.262193 673.56608 415.173414 693.807558 C 415.084636 714.049035 385.077534 708.544773 385.077534 708.544773 " transform="matrix(0.044,0,0,0.044,-10.86138,-26.148626)"/>
<path style="fill:none;stroke-width:9;stroke-linecap:butt;stroke-linejoin:miter;stroke:rgb(100%,100%,100%);stroke-opacity:1;stroke-miterlimit:4;" d="M 392.446142 710.40912 L 418.369437 734.911961 " transform="matrix(0.044,0,0,0.044,-10.86138,-26.148626)"/>
<path style="fill:none;stroke-width:9;stroke-linecap:butt;stroke-linejoin:miter;stroke:rgb(100%,100%,100%);stroke-opacity:1;stroke-miterlimit:4;" d="M 193.270597 637.767009 L 193.270597 690.678941 L 213.423295 690.678941 C 213.423295 690.678941 229.225852 691.566725 228.693182 676.740731 C 228.160511 662.003515 214.666193 662.26985 214.666193 662.26985 L 196.555398 662.26985 L 214.488636 662.092293 C 214.488636 662.092293 225.585938 661.73718 225.497159 649.396981 C 225.319602 637.056782 210.049716 637.767009 210.049716 637.767009 Z M 193.270597 637.767009 " transform="matrix(0.044,0,0,0.044,0,-24.303936)"/>
</g>
</svg>
