<?xml version="1.0" encoding="UTF-8"?>
<svg xmlns="http://www.w3.org/2000/svg" xmlns:xlink="http://www.w3.org/1999/xlink" width="22" height="22" viewBox="0 0 22 22" version="1.1">
<g id="surface1">
<path style=" stroke:none;fill-rule:evenodd;fill:rgb(81.960784%,16.470588%,4.313725%);fill-opacity:1;" d="M 2.773438 6.769531 L 5.117188 9.0625 L 5.042969 5.847656 L 2.773438 5.835938 Z M 2.773438 6.769531 "/>
<path style="fill-rule:evenodd;fill:rgb(94.901961%,94.901961%,94.901961%);fill-opacity:1;stroke-width:5.03546;stroke-linecap:butt;stroke-linejoin:miter;stroke:rgb(68.627451%,68.627451%,68.627451%);stroke-opacity:1;stroke-miterlimit:4;" d="M 97.034801 1029.812464 L 433.948864 1028.658344 L 435.102983 664.755646 L 347.034801 575.533344 L 97.034801 575.533344 Z M 97.034801 1029.812464 " transform="matrix(0.044,0,0,0.044,0,-24.303936)"/>
<path style="fill-rule:evenodd;fill:rgb(68.627451%,68.627451%,68.627451%);fill-opacity:1;stroke-width:5.03546;stroke-linecap:butt;stroke-linejoin:miter;stroke:rgb(68.627451%,68.627451%,68.627451%);stroke-opacity:1;stroke-miterlimit:4;" d="M 431.551847 662.891299 L 349.34304 662.358629 L 350.142045 578.55181 Z M 431.551847 662.891299 " transform="matrix(0.044,0,0,0.044,0,-24.303936)"/>
<path style=" stroke:none;fill-rule:nonzero;fill:rgb(94.117647%,22.352941%,8.627451%);fill-opacity:1;" d="M 2.777344 3.070312 L 12.675781 3.070312 L 12.675781 6.785156 L 2.777344 6.785156 Z M 2.777344 3.070312 "/>
<path style="fill:none;stroke-width:9;stroke-linecap:butt;stroke-linejoin:miter;stroke:rgb(100%,100%,100%);stroke-opacity:1;stroke-miterlimit:4;" d="M 380.218337 670.727125 L 346.216206 670.283233 L 346.660098 618.614199 L 381.106121 618.702978 " transform="matrix(0.044,0,0,0.044,-7.444451,-23.480744)"/>
<path style="fill:none;stroke-width:9;stroke-linecap:butt;stroke-linejoin:miter;stroke:rgb(100%,100%,100%);stroke-opacity:1;stroke-miterlimit:4;" d="M 348.968337 642.406813 L 378.087655 642.495591 " transform="matrix(0.044,0,0,0.044,-7.444451,-23.480744)"/>
<path style=" stroke:none;fill-rule:nonzero;fill:rgb(94.117647%,22.352941%,8.627451%);fill-opacity:1;" d="M 12.074219 20.773438 C 11.484375 20.675781 10.636719 20.339844 10.113281 20 C 8.960938 19.246094 8.210938 18.414062 7.746094 17.375 C 7.589844 17.027344 7.507812 16.757812 7.265625 15.847656 C 7.203125 15.617188 7.128906 15.367188 7.097656 15.289062 C 7.046875 15.15625 7.042969 15.113281 7.066406 14.671875 C 7.089844 14.25 7.160156 13.683594 7.199219 13.625 C 7.207031 13.613281 7.222656 13.609375 7.234375 13.617188 C 7.28125 13.644531 7.328125 13.515625 7.371094 13.222656 C 7.394531 13.058594 7.429688 12.890625 7.449219 12.84375 C 7.472656 12.800781 7.507812 12.699219 7.53125 12.625 C 7.585938 12.445312 7.65625 12.308594 7.882812 11.964844 C 7.980469 11.8125 8.082031 11.648438 8.109375 11.597656 C 8.140625 11.539062 8.175781 11.511719 8.207031 11.515625 C 8.234375 11.523438 8.285156 11.484375 8.339844 11.414062 C 8.566406 11.117188 9.636719 10.230469 9.734375 10.261719 C 9.761719 10.269531 9.875 10.230469 9.984375 10.175781 C 10.1875 10.082031 10.277344 10.058594 10.277344 10.105469 C 10.277344 10.117188 10.246094 10.148438 10.210938 10.171875 C 10.148438 10.210938 10.152344 10.214844 10.246094 10.191406 C 10.300781 10.179688 10.394531 10.160156 10.453125 10.148438 C 10.527344 10.136719 10.554688 10.121094 10.546875 10.097656 C 10.535156 10.074219 10.558594 10.050781 10.597656 10.042969 C 10.695312 10.015625 10.851562 10.023438 10.851562 10.050781 C 10.851562 10.082031 10.761719 10.117188 10.691406 10.109375 C 10.644531 10.105469 10.640625 10.109375 10.679688 10.132812 C 10.714844 10.15625 10.714844 10.160156 10.679688 10.164062 C 10.65625 10.164062 10.648438 10.167969 10.65625 10.179688 C 10.664062 10.1875 10.726562 10.167969 10.789062 10.136719 C 10.851562 10.105469 10.96875 10.066406 11.050781 10.050781 C 11.148438 10.03125 11.195312 10.007812 11.195312 9.976562 C 11.195312 9.941406 11.238281 9.9375 11.546875 9.953125 C 11.738281 9.964844 12.03125 9.992188 12.191406 10.019531 C 12.488281 10.0625 12.488281 10.0625 12.601562 10.003906 C 12.734375 9.929688 12.945312 9.921875 13.003906 9.984375 C 13.023438 10.007812 13.078125 10.046875 13.128906 10.070312 C 13.207031 10.113281 13.210938 10.113281 13.179688 10.074219 C 13.113281 10 13.179688 10 13.421875 10.082031 C 14.214844 10.335938 14.859375 10.785156 15.335938 11.421875 C 15.449219 11.574219 15.457031 11.640625 15.347656 11.550781 L 15.289062 11.496094 L 15.332031 11.585938 C 15.359375 11.632812 15.378906 11.6875 15.378906 11.707031 C 15.378906 11.722656 15.457031 11.859375 15.550781 12.003906 C 15.757812 12.332031 15.816406 12.441406 15.804688 12.480469 C 15.796875 12.5 15.703125 12.382812 15.597656 12.226562 C 15.492188 12.066406 15.332031 11.855469 15.246094 11.75 C 15.113281 11.597656 15.082031 11.570312 15.054688 11.605469 C 15.035156 11.628906 14.992188 11.648438 14.957031 11.652344 L 14.894531 11.664062 L 14.957031 11.78125 C 14.992188 11.847656 15.027344 11.886719 15.03125 11.871094 C 15.0625 11.785156 15.203125 11.898438 15.265625 12.0625 C 15.285156 12.113281 15.34375 12.222656 15.386719 12.304688 C 15.433594 12.382812 15.46875 12.457031 15.460938 12.460938 C 15.453125 12.46875 15.410156 12.449219 15.367188 12.414062 L 15.285156 12.351562 L 15.339844 12.445312 C 15.371094 12.492188 15.421875 12.554688 15.453125 12.582031 C 15.492188 12.609375 15.511719 12.660156 15.515625 12.738281 C 15.519531 12.878906 15.601562 13.042969 15.648438 13 C 15.71875 12.933594 15.734375 12.972656 15.714844 13.199219 C 15.703125 13.363281 15.710938 13.472656 15.742188 13.589844 C 15.789062 13.761719 15.777344 13.804688 15.707031 13.722656 C 15.664062 13.671875 15.664062 13.671875 15.683594 13.726562 C 15.726562 13.84375 15.757812 14.015625 15.75 14.082031 C 15.730469 14.210938 15.683594 14.15625 15.664062 13.996094 L 15.648438 13.835938 L 15.644531 14.003906 C 15.640625 14.097656 15.617188 14.277344 15.59375 14.40625 C 15.566406 14.53125 15.554688 14.6875 15.5625 14.753906 C 15.582031 14.875 15.570312 14.882812 15.460938 14.792969 C 15.417969 14.757812 15.410156 14.765625 15.378906 14.871094 C 15.355469 14.960938 15.355469 15.011719 15.378906 15.089844 C 15.398438 15.144531 15.410156 15.21875 15.40625 15.253906 C 15.394531 15.335938 15.324219 15.363281 15.324219 15.285156 C 15.324219 15.1875 15.285156 15.222656 15.164062 15.425781 C 14.84375 15.976562 14.335938 16.40625 13.761719 16.609375 C 13.421875 16.726562 13.195312 16.773438 12.8125 16.792969 L 12.46875 16.8125 L 12.640625 16.863281 C 12.777344 16.902344 12.859375 16.90625 13.054688 16.894531 C 13.316406 16.875 13.621094 16.820312 13.757812 16.769531 C 13.8125 16.75 13.851562 16.746094 13.871094 16.765625 C 13.914062 16.808594 13.515625 16.980469 13.277344 17.015625 C 12.875 17.082031 12.335938 17.011719 11.859375 16.832031 C 11.535156 16.707031 11.054688 16.390625 11.128906 16.347656 C 11.144531 16.335938 11.234375 16.378906 11.332031 16.4375 C 11.457031 16.515625 11.507812 16.535156 11.507812 16.507812 C 11.507812 16.453125 11.527344 16.453125 11.628906 16.523438 C 11.714844 16.582031 11.992188 16.699219 12.191406 16.753906 C 12.40625 16.816406 12.324219 16.742188 12.03125 16.613281 C 11.117188 16.203125 10.734375 15.789062 10.542969 15.007812 C 10.476562 14.71875 10.550781 14.089844 10.675781 13.894531 C 10.707031 13.84375 10.734375 13.78125 10.734375 13.757812 C 10.734375 13.648438 10.925781 13.359375 11.117188 13.171875 C 11.460938 12.84375 11.816406 12.707031 12.28125 12.726562 C 12.503906 12.738281 12.597656 12.757812 12.785156 12.828125 C 12.996094 12.910156 13.261719 13.078125 13.179688 13.078125 C 13.160156 13.078125 13.078125 13.050781 12.996094 13.019531 C 12.867188 12.96875 12.785156 12.957031 12.5 12.957031 C 12.09375 12.957031 11.898438 13.011719 11.609375 13.203125 C 11.203125 13.480469 10.976562 13.796875 10.894531 14.203125 C 10.839844 14.476562 10.839844 14.554688 10.882812 14.824219 C 10.90625 14.980469 10.921875 15.027344 10.953125 15.015625 C 10.976562 15.007812 10.992188 15.019531 10.992188 15.054688 C 10.992188 15.148438 11.210938 15.542969 11.363281 15.71875 C 11.730469 16.140625 12.324219 16.410156 12.886719 16.410156 C 13.179688 16.410156 13.414062 16.355469 13.628906 16.242188 C 13.71875 16.195312 13.828125 16.136719 13.875 16.113281 C 14.042969 16.03125 14.144531 15.941406 14.265625 15.761719 C 14.335938 15.664062 14.40625 15.585938 14.429688 15.585938 C 14.460938 15.585938 14.460938 15.597656 14.421875 15.660156 C 14.292969 15.863281 14.59375 15.496094 14.75 15.257812 L 14.925781 14.992188 L 14.90625 14.820312 C 14.886719 14.652344 14.890625 14.640625 14.972656 14.558594 C 15.054688 14.476562 15.0625 14.453125 15.070312 14.234375 C 15.078125 14.042969 15.074219 14.003906 15.035156 14.003906 C 15.003906 14.003906 14.988281 13.953125 14.976562 13.78125 C 14.957031 13.558594 14.765625 12.804688 14.722656 12.777344 C 14.707031 12.769531 14.671875 12.695312 14.640625 12.617188 C 14.53125 12.34375 14.34375 12.082031 14.046875 11.796875 C 13.625 11.386719 13.089844 11.070312 12.585938 10.929688 C 12.15625 10.808594 11.425781 10.855469 10.90625 11.03125 C 10.652344 11.117188 10.402344 11.230469 10.363281 11.277344 C 10.34375 11.300781 10.316406 11.3125 10.300781 11.300781 C 10.285156 11.292969 10.289062 11.269531 10.308594 11.242188 C 10.40625 11.132812 10.089844 11.335938 9.882812 11.515625 C 9.761719 11.625 9.65625 11.714844 9.648438 11.71875 C 9.644531 11.722656 9.667969 11.71875 9.703125 11.710938 C 9.761719 11.695312 9.761719 11.699219 9.730469 11.757812 C 9.710938 11.792969 9.605469 11.859375 9.476562 11.914062 C 9.261719 12.007812 9.121094 12.113281 9.011719 12.261719 C 8.964844 12.320312 8.964844 12.332031 8.996094 12.320312 C 9.023438 12.3125 9.042969 12.316406 9.042969 12.332031 C 9.042969 12.410156 8.96875 12.5 8.859375 12.550781 C 8.613281 12.664062 8.183594 13.273438 7.957031 13.832031 C 7.851562 14.078125 7.855469 14.070312 7.910156 14.070312 C 7.96875 14.070312 7.964844 14.132812 7.882812 14.476562 C 7.765625 14.980469 7.765625 14.964844 7.894531 15.667969 C 8.050781 16.523438 8.140625 16.8125 8.3125 16.988281 C 8.355469 17.03125 8.394531 17.121094 8.410156 17.207031 C 8.433594 17.316406 8.46875 17.386719 8.535156 17.453125 C 8.59375 17.511719 8.613281 17.550781 8.589844 17.558594 C 8.546875 17.574219 8.6875 17.777344 8.816406 17.882812 C 8.882812 17.933594 8.929688 17.953125 8.984375 17.941406 C 9.097656 17.921875 9.214844 17.984375 9.394531 18.164062 C 9.582031 18.351562 9.597656 18.402344 9.476562 18.386719 C 9.394531 18.375 9.394531 18.378906 9.433594 18.433594 C 9.457031 18.46875 9.539062 18.546875 9.617188 18.609375 C 9.730469 18.699219 9.757812 18.738281 9.742188 18.78125 C 9.722656 18.84375 9.78125 18.898438 9.910156 18.945312 C 9.992188 18.976562 10.015625 19.039062 9.957031 19.058594 C 9.9375 19.0625 10.050781 19.175781 10.207031 19.304688 C 10.382812 19.453125 10.5 19.535156 10.519531 19.519531 C 10.5625 19.476562 10.621094 19.488281 10.621094 19.539062 C 10.621094 19.597656 10.671875 19.65625 10.855469 19.816406 C 10.96875 19.914062 11 19.925781 11.070312 19.90625 C 11.132812 19.890625 11.175781 19.902344 11.265625 19.960938 C 11.445312 20.078125 11.558594 20.125 11.652344 20.125 C 11.742188 20.125 11.757812 20.152344 11.710938 20.238281 C 11.683594 20.285156 11.6875 20.289062 11.746094 20.289062 C 11.785156 20.289062 11.890625 20.316406 11.980469 20.34375 C 12.191406 20.414062 12.277344 20.417969 12.226562 20.359375 C 12.148438 20.269531 12.230469 20.292969 12.507812 20.441406 C 12.890625 20.648438 13.085938 20.671875 13.855469 20.605469 C 13.96875 20.597656 14.003906 20.601562 14.003906 20.628906 C 14.003906 20.652344 13.90625 20.691406 13.722656 20.730469 C 13.488281 20.789062 13.359375 20.796875 12.871094 20.804688 C 12.488281 20.808594 12.222656 20.796875 12.074219 20.773438 Z M 11.679688 16.648438 C 11.679688 16.640625 11.644531 16.617188 11.601562 16.589844 L 11.523438 16.542969 L 11.589844 16.601562 C 11.65625 16.65625 11.679688 16.667969 11.679688 16.648438 Z M 15.628906 13.761719 C 15.621094 13.742188 15.613281 13.746094 15.613281 13.78125 C 15.613281 13.808594 15.617188 13.824219 15.628906 13.816406 C 15.636719 13.804688 15.636719 13.78125 15.628906 13.761719 Z M 9.105469 10.859375 C 9.140625 10.8125 9.136719 10.8125 9.09375 10.847656 C 9.066406 10.867188 9.042969 10.890625 9.042969 10.894531 C 9.042969 10.917969 9.066406 10.902344 9.105469 10.859375 Z M 9.429688 10.601562 C 9.457031 10.574219 9.476562 10.546875 9.46875 10.546875 C 9.460938 10.546875 9.429688 10.574219 9.402344 10.601562 C 9.371094 10.632812 9.355469 10.65625 9.363281 10.65625 C 9.371094 10.65625 9.402344 10.632812 9.429688 10.601562 Z M 9.789062 10.410156 C 9.886719 10.378906 9.9375 10.375 9.960938 10.390625 C 9.980469 10.410156 10.054688 10.402344 10.191406 10.355469 C 10.300781 10.320312 10.386719 10.289062 10.382812 10.28125 C 10.375 10.277344 10.285156 10.300781 10.179688 10.332031 C 10.03125 10.378906 9.980469 10.386719 9.964844 10.363281 C 9.9375 10.320312 9.675781 10.402344 9.5625 10.488281 L 9.488281 10.550781 L 9.570312 10.5 C 9.613281 10.476562 9.714844 10.433594 9.789062 10.410156 Z M 10.617188 10.339844 C 10.703125 10.316406 10.765625 10.292969 10.757812 10.285156 C 10.746094 10.273438 10.449219 10.355469 10.449219 10.371094 C 10.449219 10.386719 10.449219 10.386719 10.617188 10.339844 Z M 11.09375 10.191406 L 11.207031 10.167969 L 11.109375 10.167969 C 11.050781 10.164062 10.976562 10.183594 10.9375 10.207031 C 10.890625 10.234375 10.882812 10.242188 10.921875 10.230469 C 10.953125 10.21875 11.03125 10.199219 11.09375 10.191406 Z M 11.320312 10.136719 C 11.328125 10.125 11.3125 10.117188 11.28125 10.128906 C 11.210938 10.144531 11.203125 10.164062 11.265625 10.164062 C 11.285156 10.164062 11.3125 10.152344 11.320312 10.136719 Z M 12.246094 10.144531 C 12.238281 10.136719 12.210938 10.136719 12.191406 10.144531 C 12.167969 10.152344 12.175781 10.160156 12.210938 10.160156 C 12.238281 10.160156 12.257812 10.15625 12.246094 10.144531 Z M 12.074219 10.117188 C 12.046875 10.109375 12.003906 10.109375 11.976562 10.117188 C 11.949219 10.125 11.96875 10.128906 12.023438 10.128906 C 12.082031 10.128906 12.101562 10.125 12.074219 10.117188 Z M 11.789062 10.085938 C 11.730469 10.082031 11.628906 10.082031 11.558594 10.085938 C 11.492188 10.09375 11.539062 10.097656 11.667969 10.097656 C 11.792969 10.097656 11.847656 10.09375 11.789062 10.085938 Z M 11.414062 10.0625 C 11.40625 10.054688 11.382812 10.054688 11.359375 10.0625 C 11.335938 10.070312 11.34375 10.078125 11.378906 10.078125 C 11.40625 10.078125 11.425781 10.074219 11.414062 10.0625 Z M 11.222656 16.679688 C 10.929688 16.476562 10.820312 16.375 10.820312 16.292969 C 10.820312 16.253906 10.832031 16.21875 10.84375 16.21875 C 10.882812 16.21875 11.371094 16.707031 11.363281 16.738281 C 11.355469 16.753906 11.296875 16.730469 11.222656 16.679688 Z M 11.070312 16.167969 C 10.917969 16.019531 10.871094 15.941406 10.933594 15.941406 C 10.96875 15.941406 11.25 16.253906 11.25 16.292969 C 11.25 16.3125 11.246094 16.328125 11.242188 16.328125 C 11.238281 16.328125 11.160156 16.257812 11.070312 16.167969 Z M 12.75 15.566406 C 12.667969 15.535156 12.71875 15.476562 12.851562 15.449219 C 12.925781 15.433594 13.042969 15.398438 13.113281 15.367188 C 13.183594 15.335938 13.246094 15.316406 13.253906 15.324219 C 13.261719 15.328125 13.226562 15.390625 13.183594 15.460938 C 13.101562 15.582031 13.101562 15.585938 12.941406 15.582031 C 12.855469 15.582031 12.769531 15.574219 12.75 15.566406 Z M 13.609375 14.949219 C 13.53125 14.921875 13.527344 14.871094 13.59375 14.695312 C 13.648438 14.546875 13.707031 14.519531 13.675781 14.65625 C 13.664062 14.703125 13.648438 14.777344 13.640625 14.8125 L 13.628906 14.882812 L 13.683594 14.820312 C 13.71875 14.78125 13.75 14.695312 13.761719 14.605469 C 13.773438 14.523438 13.792969 14.464844 13.808594 14.472656 C 13.84375 14.492188 13.839844 14.710938 13.800781 14.855469 C 13.765625 14.984375 13.738281 15 13.609375 14.949219 Z M 6.824219 14.605469 C 6.8125 14.582031 6.804688 14.488281 6.804688 14.398438 C 6.804688 14.277344 6.816406 14.234375 6.839844 14.242188 C 6.882812 14.257812 6.910156 14.648438 6.867188 14.648438 C 6.851562 14.648438 6.832031 14.628906 6.824219 14.605469 Z M 13.722656 13.960938 C 13.679688 13.902344 13.664062 13.859375 13.675781 13.808594 C 13.703125 13.710938 13.769531 13.722656 13.820312 13.839844 C 13.898438 14.019531 13.832031 14.101562 13.722656 13.960938 Z M 6.816406 13.523438 C 6.816406 13.367188 6.816406 13.363281 6.890625 13.367188 C 6.949219 13.367188 6.964844 13.382812 6.972656 13.453125 C 6.980469 13.53125 6.890625 13.6875 6.839844 13.6875 C 6.828125 13.6875 6.820312 13.613281 6.816406 13.523438 Z M 14.25 10.140625 C 14.253906 9.894531 14.296875 9.8125 14.332031 9.984375 C 14.355469 10.105469 14.324219 10.316406 14.28125 10.351562 C 14.253906 10.371094 14.25 10.320312 14.25 10.140625 Z M 10.484375 9.992188 C 10.496094 9.960938 10.890625 9.804688 10.964844 9.804688 C 11.050781 9.804688 10.894531 9.90625 10.71875 9.964844 C 10.519531 10.03125 10.46875 10.039062 10.484375 9.992188 Z M 10.484375 9.992188 "/>
<path style="fill:none;stroke-width:9;stroke-linecap:butt;stroke-linejoin:miter;stroke:rgb(100%,100%,100%);stroke-opacity:1;stroke-miterlimit:4;" d="M 119.40696 688.992151 L 119.939631 636.968004 C 119.939631 636.968004 159.801136 631.108629 160.333807 663.423969 C 160.866477 695.828089 119.40696 688.992151 119.40696 688.992151 Z M 119.40696 688.992151 " transform="matrix(0.044,0,0,0.044,0,-24.303936)"/>
<path style="fill:none;stroke-width:9;stroke-linecap:butt;stroke-linejoin:miter;stroke:rgb(100%,100%,100%);stroke-opacity:1;stroke-miterlimit:4;" d="M 228.160511 635.458771 L 228.160511 688.370702 L 248.401989 688.370702 C 248.401989 688.370702 264.204545 689.169708 263.671875 674.432492 C 263.139205 659.606498 249.644886 659.961612 249.644886 659.961612 L 231.534091 659.961612 L 249.378551 659.695276 C 249.378551 659.695276 260.564631 659.428941 260.475852 647.088742 C 260.298295 634.659765 245.028409 635.458771 245.028409 635.458771 Z M 228.160511 635.458771 " transform="matrix(0.044,0,0,0.044,0,-24.303936)"/>
</g>
</svg>
