<?xml version="1.0" encoding="UTF-8"?>
<svg xmlns="http://www.w3.org/2000/svg" xmlns:xlink="http://www.w3.org/1999/xlink" width="22" height="22" viewBox="0 0 22 22" version="1.1">
<g id="surface1">
<path style=" stroke:none;fill-rule:evenodd;fill:rgb(0%,40%,50.196078%);fill-opacity:1;" d="M 2.773438 6.769531 L 5.117188 9.0625 L 5.042969 5.847656 L 2.773438 5.835938 Z M 2.773438 6.769531 "/>
<path style="fill-rule:evenodd;fill:rgb(94.901961%,94.901961%,94.901961%);fill-opacity:1;stroke-width:5.03546;stroke-linecap:butt;stroke-linejoin:miter;stroke:rgb(68.627451%,68.627451%,68.627451%);stroke-opacity:1;stroke-miterlimit:4;" d="M 97.034801 1029.812464 L 433.948864 1028.658344 L 435.102983 664.755646 L 347.034801 575.533344 L 97.034801 575.533344 Z M 97.034801 1029.812464 " transform="matrix(0.044,0,0,0.044,0,-24.303936)"/>
<path style="fill-rule:evenodd;fill:rgb(68.627451%,68.627451%,68.627451%);fill-opacity:1;stroke-width:5.03546;stroke-linecap:butt;stroke-linejoin:miter;stroke:rgb(68.627451%,68.627451%,68.627451%);stroke-opacity:1;stroke-miterlimit:4;" d="M 431.551847 662.891299 L 349.34304 662.358629 L 350.142045 578.55181 Z M 431.551847 662.891299 " transform="matrix(0.044,0,0,0.044,0,-24.303936)"/>
<path style=" stroke:none;fill-rule:nonzero;fill:rgb(0%,73.333333%,94.901961%);fill-opacity:1;" d="M 2.777344 3.070312 L 12.675781 3.070312 L 12.675781 6.785156 L 2.777344 6.785156 Z M 2.777344 3.070312 "/>
<path style=" stroke:none;fill-rule:nonzero;fill:rgb(0%,73.333333%,94.901961%);fill-opacity:1;" d="M 5.152344 15.4375 L 18.234375 15.4375 L 18.234375 15.96875 L 5.152344 15.96875 Z M 5.152344 15.4375 "/>
<path style=" stroke:none;fill-rule:nonzero;fill:rgb(0%,73.333333%,94.901961%);fill-opacity:1;" d="M 5.152344 16.773438 L 18.253906 16.773438 L 18.253906 17.308594 L 5.152344 17.308594 Z M 5.152344 16.773438 "/>
<path style=" stroke:none;fill-rule:nonzero;fill:rgb(0%,73.333333%,94.901961%);fill-opacity:1;" d="M 5.152344 17.996094 L 18.351562 17.996094 L 18.351562 18.53125 L 5.152344 18.53125 Z M 5.152344 17.996094 "/>
<path style=" stroke:none;fill-rule:nonzero;fill:rgb(0%,73.333333%,94.901961%);fill-opacity:1;" d="M 5.152344 19.160156 L 14.121094 19.160156 L 14.121094 19.695312 L 5.152344 19.695312 Z M 5.152344 19.160156 "/>
<path style="fill-rule:nonzero;fill:rgb(37.254902%,73.72549%,82.745098%);fill-opacity:1;stroke-width:4.506265;stroke-linecap:round;stroke-linejoin:round;stroke:rgb(0%,73.333333%,94.901961%);stroke-opacity:1;stroke-miterlimit:4;" d="M 265.783003 775.233658 L 413.510283 775.244686 L 413.493957 884.708473 L 265.855456 884.697399 Z M 265.783003 775.233658 " transform="matrix(0.044,0.0000231578,-0.000029123,0.044,0,-24.303936)"/>
<path style=" stroke:none;fill-rule:nonzero;fill:rgb(98.039216%,92.54902%,42.745098%);fill-opacity:1;" d="M 17.59375 11.222656 C 17.59375 11.597656 17.289062 11.898438 16.917969 11.898438 C 16.546875 11.898438 16.246094 11.597656 16.246094 11.226562 C 16.242188 10.851562 16.542969 10.550781 16.917969 10.546875 C 17.289062 10.546875 17.589844 10.847656 17.59375 11.222656 "/>
<path style="fill-rule:nonzero;fill:rgb(0%,40%,50.196078%);fill-opacity:1;stroke-width:0.187761;stroke-linecap:butt;stroke-linejoin:miter;stroke:rgb(0%,0%,0%);stroke-opacity:1;stroke-miterlimit:4;" d="M 267.666903 842.312464 L 267.400568 882.795418 L 410.777699 882.617862 L 410.422585 849.148401 C 410.422585 849.148401 390.181108 855.629225 372.691761 853.587322 C 355.202415 851.634197 328.480114 831.570276 309.836648 830.860049 C 291.193182 830.061043 267.666903 842.312464 267.666903 842.312464 Z M 267.666903 842.312464 " transform="matrix(0.044,0,0,0.044,0,-24.303936)"/>
<path style=" stroke:none;fill-rule:nonzero;fill:rgb(0%,73.333333%,94.901961%);fill-opacity:1;" d="M 5.152344 14.175781 L 10.902344 14.175781 L 10.902344 14.710938 L 5.152344 14.710938 Z M 5.152344 14.175781 "/>
<path style=" stroke:none;fill-rule:nonzero;fill:rgb(0%,73.333333%,94.901961%);fill-opacity:1;" d="M 5.152344 12.957031 L 10.902344 12.957031 L 10.902344 13.492188 L 5.152344 13.492188 Z M 5.152344 12.957031 "/>
<path style=" stroke:none;fill-rule:nonzero;fill:rgb(0%,73.333333%,94.901961%);fill-opacity:1;" d="M 5.152344 11.792969 L 10.902344 11.792969 L 10.902344 12.324219 L 5.152344 12.324219 Z M 5.152344 11.792969 "/>
<path style=" stroke:none;fill-rule:nonzero;fill:rgb(0%,73.333333%,94.901961%);fill-opacity:1;" d="M 5.152344 10.652344 L 10.902344 10.652344 L 10.902344 11.1875 L 5.152344 11.1875 Z M 5.152344 10.652344 "/>
<path style=" stroke:none;fill-rule:nonzero;fill:rgb(0%,73.333333%,94.901961%);fill-opacity:1;" d="M 6.4375 9.570312 L 10.96875 9.570312 L 10.96875 10.105469 L 6.4375 10.105469 Z M 6.4375 9.570312 "/>
<path style="fill:none;stroke-width:9;stroke-linecap:butt;stroke-linejoin:bevel;stroke:rgb(100%,100%,100%);stroke-opacity:1;stroke-miterlimit:4;" d="M 915.71566 696.314499 L 937.842081 637.957165 L 960.585574 696.314499 " transform="matrix(0.0443121,0,0,0.0443121,-35.928869,-24.640331)"/>
<path style="fill:none;stroke-width:9;stroke-linecap:butt;stroke-linejoin:miter;stroke:rgb(100%,100%,100%);stroke-opacity:1;stroke-miterlimit:4;" d="M 924.61912 676.744517 L 950.359818 676.744517 " transform="matrix(0.0443121,0,0,0.0443121,-35.928869,-24.640331)"/>
<path style="fill:none;stroke-width:9;stroke-linecap:butt;stroke-linejoin:miter;stroke:rgb(100%,100%,100%);stroke-opacity:1;stroke-miterlimit:4;" d="M 164.0625 637.767009 L 164.0625 690.678941 L 184.303977 690.678941 C 184.303977 690.678941 200.106534 691.566725 199.573864 676.740731 C 199.041193 662.003515 185.546875 662.26985 185.546875 662.26985 L 167.347301 662.26985 L 185.28054 662.092293 C 185.28054 662.092293 196.466619 661.73718 196.377841 649.396981 C 196.200284 637.056782 180.930398 637.767009 180.930398 637.767009 Z M 164.0625 637.767009 " transform="matrix(0.044,0,0,0.044,0,-24.303936)"/>
<path style="fill:none;stroke-width:9;stroke-linecap:butt;stroke-linejoin:miter;stroke:rgb(100%,100%,100%);stroke-opacity:1;stroke-miterlimit:4;" d="M 213.068182 634.038316 L 221.235795 690.235049 L 226.207386 690.412606 L 242.098722 649.130646 L 245.472301 649.130646 L 261.452415 690.412606 L 266.690341 690.501384 L 274.058949 634.304651 " transform="matrix(0.044,0,0,0.044,0,-24.303936)"/>
</g>
</svg>
