<?xml version="1.0" encoding="UTF-8"?>
<svg xmlns="http://www.w3.org/2000/svg" xmlns:xlink="http://www.w3.org/1999/xlink" width="22" height="22" viewBox="0 0 22 22" version="1.1">
<g id="surface1">
<path style=" stroke:none;fill-rule:evenodd;fill:rgb(20%,20%,20%);fill-opacity:1;" d="M 2.773438 6.550781 L 5.117188 8.839844 L 5.042969 5.628906 L 2.773438 5.617188 Z M 2.773438 6.550781 "/>
<path style="fill-rule:evenodd;fill:rgb(94.901961%,94.901961%,94.901961%);fill-opacity:1;stroke-width:5.03546;stroke-linecap:butt;stroke-linejoin:miter;stroke:rgb(68.627451%,68.627451%,68.627451%);stroke-opacity:1;stroke-miterlimit:4;" d="M 97.034801 1024.840873 L 433.948864 1023.686754 L 435.102983 659.784055 L 347.034801 570.561754 L 97.034801 570.561754 Z M 97.034801 1024.840873 " transform="matrix(0.044,0,0,0.044,0,-24.303936)"/>
<path style="fill-rule:evenodd;fill:rgb(68.627451%,68.627451%,68.627451%);fill-opacity:1;stroke-width:5.03546;stroke-linecap:butt;stroke-linejoin:miter;stroke:rgb(68.627451%,68.627451%,68.627451%);stroke-opacity:1;stroke-miterlimit:4;" d="M 431.551847 657.919708 L 349.34304 657.298259 L 350.142045 573.580219 Z M 431.551847 657.919708 " transform="matrix(0.044,0,0,0.044,0,-24.303936)"/>
<path style=" stroke:none;fill-rule:nonzero;fill:rgb(22.352941%,25.098039%,31.372549%);fill-opacity:1;" d="M 2.777344 2.851562 L 12.675781 2.851562 L 12.675781 6.5625 L 2.777344 6.5625 Z M 2.777344 2.851562 "/>
<path style=" stroke:none;fill-rule:evenodd;fill:rgb(60%,60%,60%);fill-opacity:1;" d="M 13.109375 20.5 C 10.171875 21.277344 7.164062 19.527344 6.386719 16.59375 C 5.609375 13.65625 7.359375 10.648438 10.292969 9.871094 L 11.605469 14.824219 C 11.40625 14.878906 11.289062 15.082031 11.339844 15.28125 C 11.394531 15.480469 11.597656 15.597656 11.796875 15.546875 Z M 10.292969 9.871094 C 13.230469 9.09375 16.238281 10.839844 17.015625 13.777344 C 17.792969 16.710938 16.042969 19.722656 13.109375 20.5 L 11.796875 15.546875 C 11.996094 15.492188 12.113281 15.289062 12.0625 15.089844 C 12.007812 14.890625 11.804688 14.773438 11.605469 14.824219 Z M 10.292969 9.871094 "/>
<path style=" stroke:none;fill-rule:evenodd;fill:rgb(80%,80%,80%);fill-opacity:1;" d="M 13.109375 20.5 C 10.171875 21.277344 7.164062 19.527344 6.386719 16.59375 C 5.609375 13.65625 7.359375 10.648438 10.292969 9.871094 L 11.605469 14.824219 C 11.40625 14.878906 11.289062 15.082031 11.339844 15.28125 C 11.394531 15.480469 11.597656 15.597656 11.796875 15.546875 Z M 10.292969 9.871094 C 13.230469 9.09375 16.238281 10.839844 17.015625 13.777344 C 17.792969 16.710938 16.042969 19.722656 13.109375 20.5 L 11.796875 15.546875 C 11.996094 15.492188 12.113281 15.289062 12.0625 15.089844 C 12.007812 14.890625 11.804688 14.773438 11.605469 14.824219 Z M 10.292969 9.871094 "/>
<path style=" stroke:none;fill-rule:evenodd;fill:rgb(36.470588%,41.568627%,48.235294%);fill-opacity:1;" d="M 12.203125 17.085938 C 11.15625 17.363281 10.082031 16.734375 9.800781 15.6875 C 9.523438 14.640625 10.148438 13.5625 11.199219 13.285156 L 11.605469 14.824219 C 11.40625 14.878906 11.289062 15.082031 11.339844 15.28125 C 11.394531 15.480469 11.597656 15.597656 11.796875 15.546875 Z M 11.199219 13.285156 C 12.246094 13.007812 13.324219 13.632812 13.601562 14.683594 C 13.878906 15.730469 13.253906 16.804688 12.203125 17.085938 L 11.796875 15.546875 C 11.996094 15.492188 12.113281 15.289062 12.0625 15.089844 C 12.007812 14.890625 11.804688 14.773438 11.605469 14.824219 Z M 11.199219 13.285156 "/>
<path style=" stroke:none;fill-rule:evenodd;fill:rgb(60%,60%,60%);fill-opacity:1;" d="M 12.125 16.777344 C 11.242188 17.011719 10.339844 16.488281 10.109375 15.605469 C 9.875 14.726562 10.398438 13.824219 11.28125 13.589844 L 11.605469 14.824219 C 11.40625 14.878906 11.289062 15.082031 11.339844 15.28125 C 11.394531 15.480469 11.597656 15.597656 11.796875 15.546875 Z M 11.28125 13.589844 C 12.160156 13.359375 13.0625 13.882812 13.292969 14.761719 C 13.527344 15.644531 13.003906 16.546875 12.125 16.777344 L 11.796875 15.546875 C 11.996094 15.492188 12.113281 15.289062 12.0625 15.089844 C 12.007812 14.890625 11.804688 14.773438 11.605469 14.824219 Z M 11.28125 13.589844 "/>
<path style=" stroke:none;fill-rule:evenodd;fill:rgb(36.470588%,41.568627%,48.235294%);fill-opacity:1;" d="M 11.878906 15.855469 C 11.507812 15.953125 11.128906 15.734375 11.03125 15.363281 C 10.933594 14.992188 11.152344 14.613281 11.523438 14.515625 L 11.605469 14.824219 C 11.40625 14.878906 11.289062 15.082031 11.339844 15.28125 C 11.394531 15.480469 11.597656 15.597656 11.796875 15.546875 Z M 11.523438 14.515625 C 11.894531 14.417969 12.273438 14.636719 12.371094 15.007812 C 12.46875 15.378906 12.25 15.757812 11.878906 15.855469 L 11.796875 15.546875 C 11.996094 15.492188 12.113281 15.289062 12.0625 15.089844 C 12.007812 14.890625 11.804688 14.773438 11.605469 14.824219 Z M 11.523438 14.515625 "/>
<path style=" stroke:none;fill-rule:nonzero;fill:rgb(22.352941%,25.098039%,31.372549%);fill-opacity:1;" d="M 13.660156 19.441406 C 12.953125 19.820312 11.875 19.691406 11.589844 19.078125 C 11.300781 18.46875 11.769531 17.804688 12.53125 17.378906 C 13.296875 16.949219 14.042969 17.261719 14.042969 17.261719 L 14.097656 11.832031 L 14.644531 12.007812 L 15.003906 12.867188 C 15.003906 12.867188 16.335938 13.578125 16.644531 15.207031 C 16.949219 16.835938 15.023438 18.109375 15.023438 18.109375 C 15.023438 18.109375 16.648438 16.40625 16.246094 15.152344 C 15.847656 13.898438 14.613281 13.769531 14.613281 13.769531 L 14.648438 18.234375 C 14.648438 18.234375 14.367188 19.0625 13.660156 19.441406 Z M 13.660156 19.441406 "/>
<path style="fill:none;stroke-width:9;stroke-linecap:butt;stroke-linejoin:miter;stroke:rgb(100%,100%,100%);stroke-opacity:1;stroke-miterlimit:4;" d="M 153.586648 639.453799 C 153.586648 639.453799 145.951705 632.70664 132.013494 633.771981 C 118.164063 634.837322 110.262784 650.639879 110.973011 662.624964 C 111.772017 674.698827 122.247869 688.903373 135.830966 687.749254 C 149.414063 686.595134 153.586648 681.8011 153.586648 681.8011 " transform="matrix(0.044,0,0,0.044,0,-24.303936)"/>
<path style="fill:none;stroke-width:9;stroke-linecap:butt;stroke-linejoin:miter;stroke:rgb(100%,100%,100%);stroke-opacity:1;stroke-miterlimit:4;" d="M 168.412642 686.683913 L 168.856534 634.570987 C 168.856534 634.570987 208.71804 628.80039 209.25071 661.115731 C 209.783381 693.431072 168.412642 686.683913 168.412642 686.683913 Z M 168.412642 686.683913 " transform="matrix(0.044,0,0,0.044,0,-24.303936)"/>
<path style="fill:none;stroke-width:9;stroke-linecap:butt;stroke-linejoin:bevel;stroke:rgb(100%,100%,100%);stroke-opacity:1;stroke-miterlimit:4;" d="M 915.660146 696.249071 L 937.874721 637.97989 L 960.530061 696.249071 " transform="matrix(0.0443121,0,0,0.0443121,-30.902972,-24.742901)"/>
<path style="fill:none;stroke-width:9;stroke-linecap:butt;stroke-linejoin:miter;stroke:rgb(100%,100%,100%);stroke-opacity:1;stroke-miterlimit:4;" d="M 924.563607 676.767242 L 950.392457 676.767242 " transform="matrix(0.0443121,0,0,0.0443121,-30.902972,-24.742901)"/>
</g>
</svg>
