<?xml version="1.0" encoding="UTF-8"?>
<svg xmlns="http://www.w3.org/2000/svg" xmlns:xlink="http://www.w3.org/1999/xlink" width="22" height="22" viewBox="0 0 22 22" version="1.1">
<g id="surface1">
<path style=" stroke:none;fill-rule:evenodd;fill:rgb(15.686275%,9.019608%,4.313725%);fill-opacity:1;" d="M 2.773438 6.769531 L 5.117188 9.0625 L 5.042969 5.847656 L 2.773438 5.835938 Z M 2.773438 6.769531 "/>
<path style="fill-rule:evenodd;fill:rgb(94.901961%,94.901961%,94.901961%);fill-opacity:1;stroke-width:5.03546;stroke-linecap:butt;stroke-linejoin:miter;stroke:rgb(68.627451%,68.627451%,68.627451%);stroke-opacity:1;stroke-miterlimit:4;" d="M 97.034801 1029.812464 L 433.948864 1028.658344 L 435.102983 664.755646 L 347.034801 575.533344 L 97.034801 575.533344 Z M 97.034801 1029.812464 " transform="matrix(0.044,0,0,0.044,0,-24.303936)"/>
<path style="fill-rule:evenodd;fill:rgb(68.627451%,68.627451%,68.627451%);fill-opacity:1;stroke-width:5.03546;stroke-linecap:butt;stroke-linejoin:miter;stroke:rgb(68.627451%,68.627451%,68.627451%);stroke-opacity:1;stroke-miterlimit:4;" d="M 431.551847 662.891299 L 349.34304 662.358629 L 350.142045 578.55181 Z M 431.551847 662.891299 " transform="matrix(0.044,0,0,0.044,0,-24.303936)"/>
<path style=" stroke:none;fill-rule:nonzero;fill:rgb(31.372549%,17.647059%,8.627451%);fill-opacity:1;" d="M 2.777344 3.070312 L 14.597656 3.070312 L 14.597656 6.785156 L 2.777344 6.785156 Z M 2.777344 3.070312 "/>
<path style=" stroke:none;fill-rule:nonzero;fill:rgb(80%,80%,80%);fill-opacity:1;" d="M 7.765625 13.109375 C 7.765625 13.109375 7.914062 12.386719 11.976562 12.378906 C 16.039062 12.375 16.203125 13.175781 16.203125 13.175781 L 15.839844 14.386719 L 8.226562 14.414062 Z M 7.765625 13.109375 "/>
<path style=" stroke:none;fill-rule:nonzero;fill:rgb(80%,80%,80%);fill-opacity:1;" d="M 17.507812 18.617188 C 17.664062 19.710938 15.332031 20.648438 12.300781 20.703125 C 9.269531 20.761719 6.683594 19.917969 6.523438 18.820312 C 6.367188 17.726562 8.695312 16.789062 11.726562 16.730469 C 14.761719 16.675781 17.347656 17.515625 17.507812 18.613281 "/>
<path style=" stroke:none;fill-rule:nonzero;fill:rgb(50.196078%,50.196078%,50.196078%);fill-opacity:1;" d="M 15.136719 18.585938 C 15.222656 19.207031 13.90625 19.734375 12.195312 19.765625 C 10.484375 19.796875 9.023438 19.320312 8.933594 18.703125 C 8.84375 18.082031 10.160156 17.554688 11.871094 17.523438 C 13.585938 17.488281 15.046875 17.964844 15.136719 18.585938 "/>
<path style=" stroke:none;fill-rule:nonzero;fill:rgb(31.372549%,17.647059%,8.627451%);fill-opacity:1;" d="M 15.910156 13.726562 C 16.019531 14.207031 14.390625 14.613281 12.273438 14.640625 C 10.15625 14.664062 8.347656 14.296875 8.238281 13.816406 C 8.128906 13.335938 9.753906 12.925781 11.871094 12.902344 C 13.992188 12.875 15.796875 13.242188 15.910156 13.722656 "/>
<path style="fill:none;stroke-width:12.0954;stroke-linecap:butt;stroke-linejoin:miter;stroke:rgb(50.196078%,50.196078%,50.196078%);stroke-opacity:1;stroke-miterlimit:4;" d="M 349.165483 925.053941 C 349.165483 925.053941 367.276278 927.717293 374.644886 923.189594 C 382.102273 918.661896 387.162642 908.452379 386.985085 900.639879 C 386.807528 892.7386 382.8125 886.435333 377.041903 883.23931 C 371.182528 880.132066 357.954545 882.795418 357.954545 882.795418 " transform="matrix(0.044,0,0,0.044,0,-24.303936)"/>
<path style=" stroke:none;fill-rule:nonzero;fill:rgb(70.196078%,70.196078%,70.196078%);fill-opacity:1;" d="M 7.761719 13.09375 C 8.054688 16.46875 8.839844 19.039062 11.90625 19.175781 C 14.96875 19.3125 15.9375 16.023438 16.210938 13.175781 C 16.210938 13.175781 15.515625 13.894531 11.742188 13.847656 C 7.964844 13.800781 7.761719 13.09375 7.761719 13.09375 Z M 7.761719 13.09375 "/>
<path style="fill:none;stroke-width:9;stroke-linecap:butt;stroke-linejoin:miter;stroke:rgb(100%,100%,100%);stroke-opacity:1;stroke-miterlimit:4;" d="M 124.023438 643.715163 C 124.023438 643.715163 116.388494 636.968004 102.539063 638.033344 C 88.600852 639.098685 80.788352 654.901242 81.49858 666.886327 C 82.208807 678.960191 92.773438 693.164737 106.356534 692.010617 C 119.939631 690.856498 124.023438 686.062464 124.023438 686.062464 " transform="matrix(0.044,0,0,0.044,0,-24.303936)"/>
<path style="fill:none;stroke-width:9;stroke-linecap:butt;stroke-linejoin:miter;stroke:rgb(100%,100%,100%);stroke-opacity:1;stroke-miterlimit:4;" d="M 139.470881 632.085191 L 139.825994 686.595134 L 171.519886 686.861469 " transform="matrix(0.044,0,0,0.044,0,-24.303936)"/>
<path style="fill:none;stroke-width:9;stroke-linecap:butt;stroke-linejoin:bevel;stroke:rgb(100%,100%,100%);stroke-opacity:1;stroke-miterlimit:4;" d="M 915.665519 696.267904 L 937.79194 637.998723 L 960.535433 696.267904 " transform="matrix(0.0443121,0,0,0.0443121,-32.649304,-24.751548)"/>
<path style="fill:none;stroke-width:9;stroke-linecap:butt;stroke-linejoin:miter;stroke:rgb(100%,100%,100%);stroke-opacity:1;stroke-miterlimit:4;" d="M 924.568979 676.786075 L 950.39783 676.786075 " transform="matrix(0.0443121,0,0,0.0443121,-32.649304,-24.751548)"/>
<path style="fill:none;stroke-width:10;stroke-linecap:butt;stroke-linejoin:miter;stroke:rgb(100%,100%,100%);stroke-opacity:1;stroke-miterlimit:4;" d="M 273.259943 639.453799 C 273.259943 639.453799 263.93821 635.192435 255.149148 635.103657 C 246.360085 635.014879 240.855824 640.341583 240.589489 647.887748 C 240.323153 655.522691 244.495739 661.559623 259.676847 663.423969 C 274.857955 665.110759 273.881392 678.427521 272.017045 683.043998 C 270.152699 687.749254 261.363636 692.099396 252.397017 690.945276 C 243.430398 689.702379 235.884233 685.70735 235.884233 685.70735 " transform="matrix(0.044,0,0,0.044,0,-24.303936)"/>
<path style="fill:none;stroke-width:10;stroke-linecap:butt;stroke-linejoin:miter;stroke:rgb(100%,100%,100%);stroke-opacity:1;stroke-miterlimit:4;" d="M 322.176847 638.29968 C 322.176847 638.29968 312.943892 634.038316 304.066051 633.860759 C 295.276989 633.771981 289.861506 639.098685 289.506392 646.733629 C 289.240057 654.279793 293.412642 660.405504 308.59375 662.181072 C 323.774858 663.95664 322.887074 677.184623 321.022727 681.8011 C 319.158381 686.506356 310.28054 690.856498 301.31392 689.702379 C 292.347301 688.459481 284.889915 684.464452 284.889915 684.464452 " transform="matrix(0.044,0,0,0.044,0,-24.303936)"/>
</g>
</svg>
