<?xml version="1.0" encoding="UTF-8"?>
<svg xmlns="http://www.w3.org/2000/svg" xmlns:xlink="http://www.w3.org/1999/xlink" width="22" height="22" viewBox="0 0 22 22" version="1.1">
<g id="surface1">
<path style=" stroke:none;fill-rule:evenodd;fill:rgb(20%,20%,20%);fill-opacity:1;" d="M 2.773438 6.769531 L 5.117188 9.0625 L 5.042969 5.847656 L 2.773438 5.835938 Z M 2.773438 6.769531 "/>
<path style="fill-rule:evenodd;fill:rgb(94.901961%,94.901961%,94.901961%);fill-opacity:1;stroke-width:5.03546;stroke-linecap:butt;stroke-linejoin:miter;stroke:rgb(68.627451%,68.627451%,68.627451%);stroke-opacity:1;stroke-miterlimit:4;" d="M 97.034801 1029.812464 L 433.948864 1028.658344 L 435.102983 664.755646 L 347.034801 575.533344 L 97.034801 575.533344 Z M 97.034801 1029.812464 " transform="matrix(0.044,0,0,0.044,0,-24.303936)"/>
<path style="fill-rule:evenodd;fill:rgb(68.627451%,68.627451%,68.627451%);fill-opacity:1;stroke-width:5.03546;stroke-linecap:butt;stroke-linejoin:miter;stroke:rgb(68.627451%,68.627451%,68.627451%);stroke-opacity:1;stroke-miterlimit:4;" d="M 431.551847 662.891299 L 349.34304 662.358629 L 350.142045 578.55181 Z M 431.551847 662.891299 " transform="matrix(0.044,0,0,0.044,0,-24.303936)"/>
<path style=" stroke:none;fill-rule:nonzero;fill:rgb(22.352941%,25.098039%,31.372549%);fill-opacity:1;" d="M 2.777344 3.070312 L 12.675781 3.070312 L 12.675781 6.785156 L 2.777344 6.785156 Z M 2.777344 3.070312 "/>
<path style=" stroke:none;fill-rule:nonzero;fill:rgb(36.470588%,41.568627%,48.235294%);fill-opacity:1;" d="M 13.5 11.980469 L 13.941406 12.128906 L 13.941406 12.328125 L 13.566406 12.433594 L 13.566406 13.042969 L 14.382812 12.816406 L 13.917969 13.054688 L 13.929688 13.511719 L 13.574219 13.625 L 13.574219 14.203125 L 14.335938 14.015625 L 13.941406 14.246094 L 13.941406 14.683594 L 13.554688 14.816406 L 13.582031 15.363281 L 14.402344 15.136719 L 13.941406 15.402344 L 13.933594 15.828125 L 13.570312 15.9375 L 13.582031 16.480469 L 14.378906 16.273438 L 13.875 16.59375 L 13.859375 16.769531 L 15.132812 16.769531 L 15.117188 16.171875 L 15.484375 16.09375 L 15.476562 15.5 L 14.613281 15.691406 L 15.113281 15.480469 L 15.117188 15.058594 L 15.5 14.945312 L 15.5 14.34375 L 14.835938 14.535156 L 15.101562 14.359375 L 15.109375 13.917969 L 15.464844 13.816406 L 15.464844 13.207031 L 14.683594 13.398438 L 15.078125 13.195312 L 15.097656 12.699219 L 15.460938 12.644531 L 15.480469 12.046875 L 14.761719 12.210938 L 15.132812 11.921875 L 15.132812 11.734375 L 13.535156 11.777344 Z M 13.5 11.980469 "/>
<path style=" stroke:none;fill-rule:nonzero;fill:rgb(40%,40%,40%);fill-opacity:1;" d="M 13.597656 18.078125 L 13.605469 19.324219 L 13.242188 19.324219 L 13.242188 19.773438 L 12.601562 19.789062 L 12.59375 19.390625 L 11.742188 19.398438 L 11.726562 20.792969 L 12.601562 20.792969 L 12.601562 20.429688 L 13.25 20.425781 L 13.25 20.875 L 15.820312 20.867188 L 15.828125 20.429688 L 16.507812 20.429688 L 16.507812 20.8125 L 17.335938 20.8125 L 17.332031 19.371094 L 16.507812 19.378906 L 16.507812 19.800781 L 15.820312 19.800781 L 15.792969 19.308594 L 15.496094 19.316406 L 15.496094 18.0625 Z M 13.597656 18.078125 "/>
<path style=" stroke:none;fill-rule:nonzero;fill:rgb(22.352941%,25.098039%,31.372549%);fill-opacity:1;" d="M 7.835938 17.640625 L 7.816406 17.984375 L 8.589844 18.710938 L 12.644531 18.75 L 13.171875 18.160156 L 15.945312 18.132812 L 15.945312 16.503906 L 13.230469 16.503906 L 12.152344 17.652344 Z M 7.835938 17.640625 "/>
<path style=" stroke:none;fill-rule:nonzero;fill:rgb(22.352941%,25.098039%,31.372549%);fill-opacity:1;" d="M 7.835938 10.992188 L 7.816406 10.648438 L 8.589844 9.925781 L 12.648438 9.886719 L 13.175781 10.472656 L 15.949219 10.503906 L 15.949219 12.128906 L 13.234375 12.128906 L 12.15625 10.984375 Z M 7.835938 10.992188 "/>
<path style=" stroke:none;fill-rule:nonzero;fill:rgb(100%,72.156863%,0%);fill-opacity:1;" d="M 6.335938 10.984375 L 12.15625 10.984375 L 12.15625 17.648438 L 6.335938 17.648438 Z M 6.335938 10.984375 "/>
<path style=" stroke:none;fill-rule:nonzero;fill:rgb(98.039216%,92.54902%,42.745098%);fill-opacity:1;" d="M 6.773438 11.574219 L 11.648438 11.574219 L 11.648438 14.144531 L 6.773438 14.144531 Z M 6.773438 11.574219 "/>
<path style=" stroke:none;fill-rule:nonzero;fill:rgb(98.039216%,92.54902%,42.745098%);fill-opacity:1;" d="M 6.8125 14.5625 L 11.691406 14.5625 L 11.691406 17.132812 L 6.8125 17.132812 Z M 6.8125 14.5625 "/>
<path style=" stroke:none;fill-rule:nonzero;fill:rgb(15.686275%,13.333333%,4.313725%);fill-opacity:1;" d="M 8.300781 12.585938 L 10.257812 12.585938 L 10.257812 13.214844 L 8.300781 13.214844 Z M 8.300781 12.585938 "/>
<path style=" stroke:none;fill-rule:nonzero;fill:rgb(15.686275%,13.333333%,4.313725%);fill-opacity:1;" d="M 8.289062 15.496094 L 10.25 15.496094 L 10.25 16.125 L 8.289062 16.125 Z M 8.289062 15.496094 "/>
<path style="fill:none;stroke-width:9;stroke-linecap:butt;stroke-linejoin:miter;stroke:rgb(100%,100%,100%);stroke-opacity:1;stroke-miterlimit:4;" d="M 126.775568 636.61289 L 126.775568 689.524822 L 147.017045 689.524822 C 147.017045 689.524822 162.819602 690.323827 162.286932 675.586612 C 161.754261 660.849396 148.259943 661.115731 148.259943 661.115731 L 130.060369 661.115731 L 147.993608 660.938174 C 147.993608 660.938174 159.179688 660.58306 159.002131 648.242862 C 158.913352 635.813884 143.554688 636.61289 143.554688 636.61289 Z M 126.775568 636.61289 " transform="matrix(0.044,0,0,0.044,0,-24.303936)"/>
<path style="fill:none;stroke-width:9;stroke-linecap:butt;stroke-linejoin:miter;stroke:rgb(100%,100%,100%);stroke-opacity:1;stroke-miterlimit:4;" d="M 177.379261 636.701668 L 215.553977 637.234339 L 180.841619 689.436043 L 223.632813 689.08093 " transform="matrix(0.044,0,0,0.044,0,-24.303936)"/>
</g>
</svg>
