<?xml version="1.0" encoding="UTF-8"?>
<svg xmlns="http://www.w3.org/2000/svg" xmlns:xlink="http://www.w3.org/1999/xlink" width="22" height="22" viewBox="0 0 22 22" version="1.1">
<g id="surface1">
<path style=" stroke:none;fill-rule:evenodd;fill:rgb(20%,20%,20%);fill-opacity:1;" d="M 2.773438 6.769531 L 5.117188 9.0625 L 5.042969 5.847656 L 2.773438 5.835938 Z M 2.773438 6.769531 "/>
<path style="fill-rule:evenodd;fill:rgb(94.901961%,94.901961%,94.901961%);fill-opacity:1;stroke-width:5.03546;stroke-linecap:butt;stroke-linejoin:miter;stroke:rgb(68.627451%,68.627451%,68.627451%);stroke-opacity:1;stroke-miterlimit:4;" d="M 97.034801 1029.812464 L 433.948864 1028.658344 L 435.102983 664.755646 L 347.034801 575.533344 L 97.034801 575.533344 Z M 97.034801 1029.812464 " transform="matrix(0.044,0,0,0.044,0,-24.303936)"/>
<path style="fill-rule:evenodd;fill:rgb(68.627451%,68.627451%,68.627451%);fill-opacity:1;stroke-width:5.03546;stroke-linecap:butt;stroke-linejoin:miter;stroke:rgb(68.627451%,68.627451%,68.627451%);stroke-opacity:1;stroke-miterlimit:4;" d="M 431.551847 662.891299 L 349.34304 662.358629 L 350.142045 578.55181 Z M 431.551847 662.891299 " transform="matrix(0.044,0,0,0.044,0,-24.303936)"/>
<path style=" stroke:none;fill-rule:nonzero;fill:rgb(22.352941%,25.098039%,31.372549%);fill-opacity:1;" d="M 2.777344 3.070312 L 12.675781 3.070312 L 12.675781 6.785156 L 2.777344 6.785156 Z M 2.777344 3.070312 "/>
<path style=" stroke:none;fill-rule:evenodd;fill:rgb(60%,60%,60%);fill-opacity:1;" d="M 13.109375 20.71875 C 10.171875 21.496094 7.164062 19.75 6.386719 16.8125 C 5.609375 13.875 7.359375 10.867188 10.292969 10.089844 L 11.605469 15.042969 C 11.40625 15.097656 11.289062 15.300781 11.339844 15.5 C 11.394531 15.699219 11.597656 15.816406 11.796875 15.765625 Z M 10.292969 10.089844 C 13.230469 9.3125 16.238281 11.0625 17.015625 13.996094 C 17.792969 16.933594 16.042969 19.941406 13.109375 20.71875 L 11.796875 15.765625 C 11.996094 15.710938 12.113281 15.507812 12.0625 15.308594 C 12.007812 15.109375 11.804688 14.992188 11.605469 15.042969 Z M 10.292969 10.089844 "/>
<path style=" stroke:none;fill-rule:evenodd;fill:rgb(80%,80%,80%);fill-opacity:1;" d="M 13.109375 20.71875 C 10.171875 21.496094 7.164062 19.75 6.386719 16.8125 C 5.609375 13.875 7.359375 10.867188 10.292969 10.089844 L 11.605469 15.042969 C 11.40625 15.097656 11.289062 15.300781 11.339844 15.5 C 11.394531 15.699219 11.597656 15.816406 11.796875 15.765625 Z M 10.292969 10.089844 C 13.230469 9.3125 16.238281 11.0625 17.015625 13.996094 C 17.792969 16.933594 16.042969 19.941406 13.109375 20.71875 L 11.796875 15.765625 C 11.996094 15.710938 12.113281 15.507812 12.0625 15.308594 C 12.007812 15.109375 11.804688 14.992188 11.605469 15.042969 Z M 10.292969 10.089844 "/>
<path style=" stroke:none;fill-rule:evenodd;fill:rgb(36.470588%,41.568627%,48.235294%);fill-opacity:1;" d="M 12.203125 17.304688 C 11.15625 17.582031 10.082031 16.957031 9.800781 15.90625 C 9.523438 14.859375 10.148438 13.785156 11.199219 13.503906 L 11.605469 15.042969 C 11.40625 15.097656 11.289062 15.300781 11.339844 15.5 C 11.394531 15.699219 11.597656 15.816406 11.796875 15.765625 Z M 11.199219 13.503906 C 12.246094 13.226562 13.324219 13.851562 13.601562 14.902344 C 13.878906 15.949219 13.253906 17.027344 12.203125 17.304688 L 11.796875 15.765625 C 11.996094 15.710938 12.113281 15.507812 12.0625 15.308594 C 12.007812 15.109375 11.804688 14.992188 11.605469 15.042969 Z M 11.199219 13.503906 "/>
<path style=" stroke:none;fill-rule:evenodd;fill:rgb(60%,60%,60%);fill-opacity:1;" d="M 12.125 17 C 11.242188 17.230469 10.339844 16.707031 10.109375 15.828125 C 9.875 14.945312 10.398438 14.042969 11.28125 13.8125 L 11.605469 15.042969 C 11.40625 15.097656 11.289062 15.300781 11.339844 15.5 C 11.394531 15.699219 11.597656 15.816406 11.796875 15.765625 Z M 11.28125 13.8125 C 12.160156 13.578125 13.0625 14.101562 13.292969 14.984375 C 13.527344 15.863281 13.003906 16.765625 12.125 17 L 11.796875 15.765625 C 11.996094 15.710938 12.113281 15.507812 12.0625 15.308594 C 12.007812 15.109375 11.804688 14.992188 11.605469 15.042969 Z M 11.28125 13.8125 "/>
<path style=" stroke:none;fill-rule:evenodd;fill:rgb(36.470588%,41.568627%,48.235294%);fill-opacity:1;" d="M 11.878906 16.074219 C 11.507812 16.171875 11.128906 15.953125 11.03125 15.582031 C 10.933594 15.210938 11.152344 14.832031 11.523438 14.734375 L 11.605469 15.042969 C 11.40625 15.097656 11.289062 15.300781 11.339844 15.5 C 11.394531 15.699219 11.597656 15.816406 11.796875 15.765625 Z M 11.523438 14.734375 C 11.894531 14.636719 12.273438 14.855469 12.371094 15.226562 C 12.46875 15.597656 12.25 15.976562 11.878906 16.074219 L 11.796875 15.765625 C 11.996094 15.710938 12.113281 15.507812 12.0625 15.308594 C 12.007812 15.109375 11.804688 14.992188 11.605469 15.042969 Z M 11.523438 14.734375 "/>
<path style="fill:none;stroke-width:9;stroke-linecap:butt;stroke-linejoin:miter;stroke:rgb(100%,100%,100%);stroke-opacity:1;stroke-miterlimit:4;" d="M 133.314333 354.177284 L 133.314333 304.638931 " transform="matrix(0.044,0,0,0.044,0.610732,-9.329894)"/>
<path style=" stroke:none;fill-rule:nonzero;fill:rgb(100%,100%,100%);fill-opacity:1;" d="M 6.289062 3.515625 L 6.675781 3.515625 L 6.675781 3.894531 L 6.289062 3.894531 Z M 6.289062 3.515625 "/>
<path style="fill:none;stroke-width:10;stroke-linecap:butt;stroke-linejoin:miter;stroke:rgb(100%,100%,100%);stroke-opacity:1;stroke-miterlimit:4;" d="M 200.90554 641.406924 C 200.90554 641.406924 191.583807 637.056782 182.794744 636.968004 C 174.005682 636.879225 168.50142 642.20593 168.235085 649.840873 C 167.879972 657.387038 172.141335 663.512748 187.322443 665.288316 C 202.503551 667.063884 201.526989 680.291867 199.662642 684.908344 C 197.798295 689.6136 189.009233 694.052521 180.042614 692.809623 C 171.075994 691.566725 163.52983 687.571697 163.52983 687.571697 " transform="matrix(0.044,0,0,0.044,0,-24.303936)"/>
<path style="fill:none;stroke-width:9;stroke-linecap:butt;stroke-linejoin:miter;stroke:rgb(100%,100%,100%);stroke-opacity:1;stroke-miterlimit:4;" d="M 239.435369 690.412606 C 227.361506 690.323827 216.086648 678.249964 215.997869 662.980077 C 215.909091 647.621413 227.982955 635.369992 240.145597 635.725106 C 252.21946 636.080219 262.872869 647.621413 263.050426 663.867862 C 263.316761 680.203089 251.420455 690.501384 239.435369 690.412606 Z M 239.435369 690.412606 " transform="matrix(0.044,0,0,0.044,0,-24.303936)"/>
</g>
</svg>
