<?xml version="1.0" encoding="UTF-8"?>
<svg xmlns="http://www.w3.org/2000/svg" xmlns:xlink="http://www.w3.org/1999/xlink" width="22" height="22" viewBox="0 0 22 22" version="1.1">
<g id="surface1">
<path style=" stroke:none;fill-rule:evenodd;fill:rgb(15.686275%,9.019608%,4.313725%);fill-opacity:1;" d="M 2.78125 6.796875 L 5.121094 9.085938 L 5.046875 5.875 L 2.777344 5.863281 Z M 2.78125 6.796875 "/>
<path style="fill-rule:evenodd;fill:rgb(94.901961%,94.901961%,94.901961%);fill-opacity:1;stroke-width:5.03546;stroke-linecap:butt;stroke-linejoin:miter;stroke:rgb(68.627451%,68.627451%,68.627451%);stroke-opacity:1;stroke-miterlimit:4;" d="M 96.946023 1029.812464 L 433.771307 1028.658344 L 434.925426 664.755646 L 346.946023 575.533344 L 96.946023 575.533344 Z M 96.946023 1029.812464 " transform="matrix(0.044,0,0,0.044,0,-24.303936)"/>
<path style="fill-rule:evenodd;fill:rgb(68.627451%,68.627451%,68.627451%);fill-opacity:1;stroke-width:5.03546;stroke-linecap:butt;stroke-linejoin:miter;stroke:rgb(68.627451%,68.627451%,68.627451%);stroke-opacity:1;stroke-miterlimit:4;" d="M 431.37429 662.891299 L 349.254261 662.358629 L 349.964489 578.55181 Z M 431.37429 662.891299 " transform="matrix(0.044,0,0,0.044,0,-24.303936)"/>
<path style=" stroke:none;fill-rule:nonzero;fill:rgb(31.372549%,17.647059%,8.627451%);fill-opacity:1;" d="M 2.773438 3.070312 L 12.667969 3.070312 L 12.667969 6.785156 L 2.773438 6.785156 Z M 2.773438 3.070312 "/>
<path style="fill:none;stroke-width:9.063828;stroke-linecap:butt;stroke-linejoin:miter;stroke:rgb(100%,100%,100%);stroke-opacity:1;stroke-miterlimit:4;" d="M 139.204545 693.874964 L 139.204545 637.500674 C 139.204545 637.500674 170.010653 631.552521 169.921875 651.793998 C 169.833097 672.035475 139.825994 666.531214 139.825994 666.531214 " transform="matrix(0.044,0,0,0.044,0,-24.303936)"/>
<path style="fill-rule:nonzero;fill:rgb(31.372549%,17.647059%,8.627451%);fill-opacity:1;stroke-width:0.759318;stroke-linecap:butt;stroke-linejoin:miter;stroke:rgb(0%,0%,0%);stroke-opacity:1;stroke-miterlimit:4;" d="M 233.931108 776.083771 C 230.202415 776.705219 227.006392 778.658344 223.455256 779.812464 C 216.086648 784.606498 210.138494 791.886327 208.629261 800.67539 C 204.012784 815.501384 190.429688 825.267009 185.724432 840.004225 C 181.818182 849.414737 174.804688 856.872123 168.235085 864.418288 C 163.796165 870.011327 164.240057 877.646271 162.286932 884.127094 C 160.245028 885.991441 158.913352 890.075248 162.553267 890.51914 C 162.464489 893.892719 160.15625 897.532634 162.642045 900.728657 C 164.506392 907.742151 167.791193 914.400532 171.075994 920.881356 C 171.697443 923.278373 175.78125 925.941725 176.402699 922.213032 C 176.846591 916.797549 179.243608 910.316725 175.426136 905.611469 C 172.940341 899.485759 174.982244 893.004935 176.136364 886.879225 C 175.514915 883.150532 176.935369 878.80039 178.977273 875.781924 C 181.019176 876.936043 180.308949 880.753515 181.196733 882.795418 C 183.149858 897.443856 183.771307 912.624964 180.042614 927.095844 C 178.710938 932.777663 180.930398 938.725816 179.598722 944.318856 C 174.893466 949.468004 178.533381 956.92539 178.977273 962.873543 C 181.285511 974.059623 180.042614 985.689594 176.669034 996.343004 C 176.580256 1000.160475 175.24858 1003.622833 174.449574 1007.262748 C 175.78125 1011.879225 182.084517 1013.566015 186.345881 1012.411896 C 189.009233 1010.636327 193.980824 1014.009907 195.223722 1009.837322 C 195.578835 1005.220844 191.139915 1001.847265 191.495028 997.142009 C 188.742898 984.446697 186.612216 971.129935 189.364347 958.168288 C 190.696023 950.622123 190.163352 942.454509 192.294034 935.263458 C 196.99929 929.315305 200.195313 922.390589 202.237216 915.021981 C 204.989347 908.985049 206.764915 901.616441 208.451705 895.845844 C 215.731534 907.564594 220.081676 921.591583 218.21733 935.529793 C 218.483665 941.034055 215.021307 947.4261 219.637784 951.687464 C 225.142045 960.387748 232.15554 968.64414 234.996449 978.587322 C 235.262784 982.848685 229.580966 982.848685 228.071733 986.311043 C 224.786932 991.105077 225.142045 997.230788 224.786932 1002.823827 C 227.894176 1004.066725 232.510653 1007.262748 235.085227 1003.356498 C 237.74858 1000.693146 238.81392 995.899112 241.477273 993.76843 C 243.164063 996.964452 241.65483 1002.024822 245.916193 1003.534055 C 252.041903 1005.753515 259.055398 1006.374964 265.447443 1004.865731 C 268.732244 1002.024822 264.293324 998.029793 261.452415 996.964452 C 256.924716 995.543998 254.172585 991.992862 252.663352 987.642719 C 251.154119 985.245702 250.177557 982.404793 252.929688 980.629225 C 259.588068 972.55039 268.732244 967.223685 275.745739 959.677521 C 280.007102 953.818146 278.852983 945.561754 277.254972 938.903373 C 275.301847 935.085901 273.792614 931.002094 274.946733 926.563174 C 275.65696 922.834481 273.082386 918.839452 273.171165 915.465873 C 276.899858 915.288316 281.25 915.377094 284.62358 916.619992 C 285.511364 922.656924 284.179688 929.048969 285.866477 934.819566 C 288.707386 937.571697 290.039063 941.83306 290.216619 945.650532 C 292.879972 948.935333 291.193182 953.640589 291.903409 957.546839 C 290.216619 964.027663 292.613636 970.419708 294.566761 976.45664 C 298.206676 988.086612 296.697443 1000.604367 299.715909 1012.234339 C 302.112926 1015.607918 298.117898 1021.11218 302.734375 1023.33164 C 309.836648 1025.906214 319.335938 1026.705219 325.372869 1021.378515 C 327.237216 1017.649822 321.821733 1015.51914 319.158381 1014.365021 C 315.518466 1013.566015 312.677557 1010.991441 311.878551 1007.173969 C 306.285511 995.632776 303.622159 982.759907 305.575284 969.887038 C 305.841619 963.672549 306.729403 957.546839 308.238636 951.598685 C 309.037642 945.561754 309.12642 939.347265 310.901989 933.665447 C 311.878551 925.586612 310.191761 917.063884 312.411222 909.251384 C 316.051136 911.559623 319.957386 913.867862 324.307528 914.222975 C 327.148438 916.353657 330.166903 914.222975 331.676136 911.648401 C 333.895597 908.541157 336.647727 916.886327 338.689631 912.624964 C 341.264205 909.784055 344.549006 907.653373 347.478693 905.433913 C 349.076705 902.77056 352.450284 902.859339 354.847301 901.616441 C 356.534091 899.485759 353.78196 896.023401 356.800426 894.42539 C 357.865767 891.673259 360.529119 895.313174 361.683239 892.649822 C 363.014915 889.808913 362.74858 885.902663 366.210938 884.748543 C 372.336648 879.776952 370.472301 870.810333 371.62642 863.885617 C 371.537642 856.960901 372.958097 849.592293 371.271307 842.933913 C 369.229403 837.607208 365.944602 832.280504 364.701705 827.042577 C 370.738636 822.159765 381.392045 826.154793 385.475852 818.253515 C 387.25142 812.482918 381.658381 807.511327 378.018466 803.782634 C 374.378551 800.497833 368.696733 802.095844 364.346591 800.409055 C 360.973011 799.254935 355.646307 800.497833 354.758523 795.881356 C 353.338068 792.241441 348.810369 792.241441 346.502131 789.48931 C 342.595881 787.536185 339.133523 791.975106 335.40483 792.418998 C 331.232244 795.259907 326.43821 798.189594 323.774858 802.628515 C 322.620739 805.558202 323.597301 809.286896 320.401278 811.151242 C 315.163352 817.099396 317.382813 826.066015 316.93892 833.345844 C 316.93892 836.719424 316.850142 840.093004 318.803267 842.845134 C 319.069602 846.928941 322.798295 849.592293 322.088068 853.853657 C 321.644176 856.605788 324.041193 862.553941 319.424716 861.222265 C 318.09304 858.914026 318.270597 854.918998 316.93892 852.255646 C 313.121449 840.448117 307.350852 827.664026 295.720881 821.715873 C 287.464489 815.678941 281.693892 806.978657 278.231534 797.568146 C 275.035511 792.685333 269.087358 789.755646 266.601563 784.517719 C 263.227983 783.097265 259.232955 783.629935 255.948153 781.765589 C 251.864347 779.990021 248.135653 776.616441 243.164063 777.23789 C 239.96804 777.504225 236.949574 776.350106 233.931108 776.083771 Z M 239.879261 908.452379 C 242.72017 909.428941 241.832386 913.779083 242.897727 916.087322 C 244.229403 919.372123 243.075284 925.053941 246.803977 926.740731 C 248.934659 930.203089 247.691761 934.997123 249.822443 938.281924 C 249.289773 940.501384 248.579545 944.851526 252.130682 944.940305 C 255.326705 944.673969 256.214489 948.225106 258.522727 949.823117 C 260.564631 952.752805 262.961648 956.92539 259.676847 960.032634 C 256.569602 963.850106 254.43892 969.798259 248.668324 969.975816 C 246.271307 970.242151 242.986506 973.882066 241.832386 970.064594 C 237.74858 963.139879 234.286222 955.771271 235.085227 947.514879 C 235.085227 934.464452 238.103693 921.76914 239.524148 908.896271 C 239.524148 908.541157 239.612926 908.452379 239.879261 908.452379 Z M 239.879261 908.452379 " transform="matrix(0.044,0,0,0.044,0,-24.303936)"/>
<path style="fill:none;stroke-width:9;stroke-linecap:butt;stroke-linejoin:miter;stroke:rgb(100%,100%,100%);stroke-opacity:1;stroke-miterlimit:4;" d="M 192.205256 633.683202 L 192.560369 688.193146 L 224.34304 688.459481 " transform="matrix(0.044,0,0,0.044,0,-24.303936)"/>
</g>
</svg>
