<?xml version="1.0" encoding="UTF-8"?>
<svg xmlns="http://www.w3.org/2000/svg" xmlns:xlink="http://www.w3.org/1999/xlink" width="22" height="22" viewBox="0 0 22 22" version="1.1">
<g id="surface1">
<path style=" stroke:none;fill-rule:evenodd;fill:rgb(20%,20%,20%);fill-opacity:1;" d="M 2.773438 6.550781 L 5.117188 8.839844 L 5.042969 5.628906 L 2.773438 5.617188 Z M 2.773438 6.550781 "/>
<path style="fill-rule:evenodd;fill:rgb(94.901961%,94.901961%,94.901961%);fill-opacity:1;stroke-width:5.03546;stroke-linecap:butt;stroke-linejoin:miter;stroke:rgb(68.627451%,68.627451%,68.627451%);stroke-opacity:1;stroke-miterlimit:4;" d="M 97.034801 1024.840873 L 433.948864 1023.686754 L 435.102983 659.784055 L 347.034801 570.561754 L 97.034801 570.561754 Z M 97.034801 1024.840873 " transform="matrix(0.044,0,0,0.044,0,-24.303936)"/>
<path style="fill-rule:evenodd;fill:rgb(68.627451%,68.627451%,68.627451%);fill-opacity:1;stroke-width:5.03546;stroke-linecap:butt;stroke-linejoin:miter;stroke:rgb(68.627451%,68.627451%,68.627451%);stroke-opacity:1;stroke-miterlimit:4;" d="M 431.551847 657.919708 L 349.34304 657.298259 L 350.142045 573.580219 Z M 431.551847 657.919708 " transform="matrix(0.044,0,0,0.044,0,-24.303936)"/>
<path style=" stroke:none;fill-rule:nonzero;fill:rgb(22.352941%,25.098039%,31.372549%);fill-opacity:1;" d="M 2.777344 2.851562 L 12.675781 2.851562 L 12.675781 6.5625 L 2.777344 6.5625 Z M 2.777344 2.851562 "/>
<path style="fill-rule:evenodd;fill:rgb(22.352941%,25.098039%,31.372549%);fill-opacity:1;stroke-width:11.346586;stroke-linecap:butt;stroke-linejoin:round;stroke:rgb(100%,100%,100%);stroke-opacity:1;stroke-miterlimit:4;" d="M 144.087358 810.352237 L 384.321733 810.352237 C 390.802557 810.352237 396.040483 815.501384 396.040483 821.982208 L 396.040483 1005.575958 C 396.040483 1012.056782 390.802557 1017.20593 384.321733 1017.20593 L 144.087358 1017.20593 C 137.606534 1017.20593 132.368608 1012.056782 132.368608 1005.575958 L 132.368608 821.982208 C 132.368608 815.501384 137.606534 810.352237 144.087358 810.352237 Z M 144.087358 810.352237 " transform="matrix(0.044,0,0,0.044,0,-24.303936)"/>
<path style=" stroke:none;fill-rule:nonzero;fill:rgb(100%,100%,100%);fill-opacity:1;" d="M 7.210938 14.152344 L 7.21875 13.953125 L 7.359375 13.90625 C 7.4375 13.882812 7.527344 13.851562 7.5625 13.835938 C 7.597656 13.820312 7.671875 13.792969 7.734375 13.773438 C 7.792969 13.75 7.871094 13.722656 7.902344 13.707031 C 7.9375 13.691406 8.015625 13.667969 8.074219 13.65625 C 8.203125 13.625 8.230469 13.566406 8.132812 13.539062 C 8.089844 13.527344 8.03125 13.507812 7.996094 13.492188 C 7.964844 13.476562 7.851562 13.441406 7.75 13.410156 C 7.644531 13.382812 7.546875 13.347656 7.53125 13.335938 C 7.511719 13.324219 7.433594 13.292969 7.351562 13.269531 L 7.203125 13.230469 L 7.203125 12.808594 L 7.289062 12.84375 C 7.4375 12.902344 7.496094 12.925781 7.609375 12.960938 C 7.667969 12.984375 7.746094 13.011719 7.78125 13.027344 C 7.917969 13.082031 8.351562 13.230469 8.46875 13.269531 C 8.601562 13.3125 8.65625 13.332031 8.605469 13.320312 C 8.574219 13.3125 8.507812 13.277344 8.671875 13.335938 C 8.71875 13.351562 8.726562 13.367188 8.726562 13.578125 L 8.726562 13.820312 L 8.535156 13.886719 C 8.425781 13.925781 8.21875 13.996094 8.074219 14.050781 C 7.929688 14.105469 7.675781 14.195312 7.507812 14.253906 L 7.203125 14.355469 Z M 7.210938 14.152344 "/>
<path style=" stroke:none;fill-rule:nonzero;fill:rgb(100%,100%,100%);fill-opacity:1;" d="M 9.101562 14.503906 L 9.101562 14.300781 L 10.75 14.300781 L 10.75 14.703125 L 9.101562 14.703125 Z M 9.101562 14.503906 "/>
<path style="fill:none;stroke-width:10;stroke-linecap:butt;stroke-linejoin:miter;stroke:rgb(100%,100%,100%);stroke-opacity:1;stroke-miterlimit:4;" d="M 182.173295 636.435333 C 182.173295 636.435333 172.940341 632.173969 164.151278 632.085191 C 155.362216 631.907634 149.857955 637.234339 149.591619 644.869282 C 149.236506 652.504225 153.497869 658.541157 168.678977 660.316725 C 183.860085 662.092293 182.883523 675.320276 181.019176 680.025532 C 179.15483 684.642009 170.365767 689.08093 161.399148 687.838032 C 152.432528 686.595134 144.886364 682.600106 144.886364 682.600106 " transform="matrix(0.044,0,0,0.044,0,-24.303936)"/>
<path style="fill:none;stroke-width:9;stroke-linecap:butt;stroke-linejoin:miter;stroke:rgb(100%,100%,100%);stroke-opacity:1;stroke-miterlimit:4;" d="M 311.167847 528.408944 L 311.522961 582.918887 " transform="matrix(0.044,0,0,0.044,-4.871073,-19.703119)"/>
<path style="fill:none;stroke-width:9;stroke-linecap:butt;stroke-linejoin:miter;stroke:rgb(100%,100%,100%);stroke-opacity:1;stroke-miterlimit:4;" d="M 346.324097 527.965052 L 346.590432 582.474995 " transform="matrix(0.044,0,0,0.044,-4.871073,-19.703119)"/>
<path style="fill:none;stroke-width:9;stroke-linecap:butt;stroke-linejoin:miter;stroke:rgb(100%,100%,100%);stroke-opacity:1;stroke-miterlimit:4;" d="M 310.901512 555.042467 L 347.478216 555.042467 " transform="matrix(0.044,0,0,0.044,-4.871073,-19.703119)"/>
</g>
</svg>
