<?xml version="1.0" encoding="UTF-8"?>
<svg xmlns="http://www.w3.org/2000/svg" xmlns:xlink="http://www.w3.org/1999/xlink" width="22" height="22" viewBox="0 0 22 22" version="1.1">
<g id="surface1">
<path style=" stroke:none;fill-rule:evenodd;fill:rgb(0%,11.372549%,39.215686%);fill-opacity:1;" d="M 2.773438 6.769531 L 5.117188 9.0625 L 5.042969 5.847656 L 2.773438 5.835938 Z M 2.773438 6.769531 "/>
<path style="fill-rule:evenodd;fill:rgb(94.901961%,94.901961%,94.901961%);fill-opacity:1;stroke-width:5.03546;stroke-linecap:butt;stroke-linejoin:miter;stroke:rgb(68.627451%,68.627451%,68.627451%);stroke-opacity:1;stroke-miterlimit:4;" d="M 97.034801 1029.812464 L 433.948864 1028.658344 L 435.102983 664.755646 L 347.034801 575.533344 L 97.034801 575.533344 Z M 97.034801 1029.812464 " transform="matrix(0.044,0,0,0.044,0,-24.303936)"/>
<path style="fill-rule:evenodd;fill:rgb(68.627451%,68.627451%,68.627451%);fill-opacity:1;stroke-width:5.03546;stroke-linecap:butt;stroke-linejoin:miter;stroke:rgb(68.627451%,68.627451%,68.627451%);stroke-opacity:1;stroke-miterlimit:4;" d="M 431.551847 662.891299 L 349.34304 662.358629 L 350.142045 578.55181 Z M 431.551847 662.891299 " transform="matrix(0.044,0,0,0.044,0,-24.303936)"/>
<path style=" stroke:none;fill-rule:nonzero;fill:rgb(0%,30.196078%,54.509804%);fill-opacity:1;" d="M 2.777344 3.070312 L 15.171875 3.070312 L 15.171875 6.785156 L 2.777344 6.785156 Z M 2.777344 3.070312 "/>
<path style=" stroke:none;fill-rule:nonzero;fill:rgb(0%,30.196078%,54.509804%);fill-opacity:1;" d="M 6.445312 10.609375 L 6.445312 20.894531 L 16.730469 20.894531 L 16.730469 10.609375 Z M 7.214844 11.382812 L 7.988281 11.382812 L 7.988281 12.152344 L 7.214844 12.152344 Z M 15.1875 11.382812 L 15.957031 11.382812 L 15.957031 12.152344 L 15.1875 12.152344 Z M 7.214844 13.308594 L 7.988281 13.308594 L 7.988281 14.082031 L 7.214844 14.082031 Z M 15.1875 13.308594 L 15.957031 13.308594 L 15.957031 14.082031 L 15.1875 14.082031 Z M 7.214844 15.367188 L 7.988281 15.367188 L 7.988281 16.140625 L 7.214844 16.140625 Z M 15.1875 15.367188 L 15.957031 15.367188 L 15.957031 16.140625 L 15.1875 16.140625 Z M 7.214844 17.425781 L 7.988281 17.425781 L 7.988281 18.195312 L 7.214844 18.195312 Z M 15.1875 17.425781 L 15.957031 17.425781 L 15.957031 18.195312 L 15.1875 18.195312 Z M 7.214844 19.351562 L 7.988281 19.351562 L 7.988281 20.125 L 7.214844 20.125 Z M 15.1875 19.351562 L 15.957031 19.351562 L 15.957031 20.125 L 15.1875 20.125 Z M 15.1875 19.351562 "/>
<path style=" stroke:none;fill-rule:nonzero;fill:rgb(40.784314%,91.764706%,100%);fill-opacity:1;" d="M 8.785156 11.402344 L 14.441406 11.402344 L 14.441406 15.386719 L 8.785156 15.386719 Z M 8.785156 11.402344 "/>
<path style=" stroke:none;fill-rule:nonzero;fill:rgb(40.784314%,91.764706%,100%);fill-opacity:1;" d="M 8.757812 16.140625 L 14.414062 16.140625 L 14.414062 20.125 L 8.757812 20.125 Z M 8.757812 16.140625 "/>
<path style=" stroke:none;fill-rule:evenodd;fill:rgb(94.117647%,22.352941%,8.627451%);fill-opacity:0.941176;" d="M 10.882812 20.136719 C 10.882812 20.136719 11.007812 18.785156 12.035156 17.898438 C 13.058594 17.007812 14.429688 17.308594 14.429688 17.308594 L 14.417969 20.148438 Z M 10.882812 20.136719 "/>
<path style=" stroke:none;fill-rule:evenodd;fill:rgb(94.117647%,22.352941%,8.627451%);fill-opacity:0.941176;" d="M 10.082031 11.386719 C 10.082031 11.386719 10.066406 11.785156 10.398438 12.1875 C 10.730469 12.59375 11.09375 12.660156 11.09375 12.660156 L 11.082031 13.550781 L 11.476562 13.550781 L 11.488281 12.660156 C 11.488281 12.660156 11.800781 12.628906 12.160156 12.253906 C 12.519531 11.878906 12.488281 11.375 12.488281 11.375 Z M 10.082031 11.386719 "/>
<path style=" stroke:none;fill-rule:nonzero;fill:rgb(83.137255%,33.333333%,0%);fill-opacity:0.941176;" d="M 11.070312 13.671875 L 11.476562 13.671875 L 11.476562 13.980469 L 11.070312 13.980469 Z M 11.070312 13.671875 "/>
<path style="fill:none;stroke-width:7.494031;stroke-linecap:butt;stroke-linejoin:miter;stroke:rgb(100%,100%,100%);stroke-opacity:1;stroke-miterlimit:4;" d="M 72.798295 688.193146 L 73.064631 642.7386 L 77.237216 642.561043 L 90.465199 676.918288 L 93.21733 676.918288 L 106.534091 642.561043 L 110.884233 642.472265 L 110.884233 688.281924 " transform="matrix(0.044,0,0,0.044,0,-24.303936)"/>
<path style="fill:none;stroke-width:7.54718;stroke-linecap:butt;stroke-linejoin:miter;stroke:rgb(100%,100%,100%);stroke-opacity:1;stroke-miterlimit:4;" d="M 122.958097 688.548259 L 122.958097 641.495702 C 122.958097 641.495702 148.615057 636.61289 148.526278 653.480788 C 148.4375 670.348685 123.490767 665.732208 123.490767 665.732208 " transform="matrix(0.044,0,0,0.044,0,-24.303936)"/>
<path style="fill:none;stroke-width:7.494031;stroke-linecap:butt;stroke-linejoin:miter;stroke:rgb(100%,100%,100%);stroke-opacity:1;stroke-miterlimit:4;" d="M 160.68892 637.411896 L 160.866477 682.777663 L 187.322443 683.043998 " transform="matrix(0.044,0,0,0.044,0,-24.303936)"/>
<path style="fill:none;stroke-width:9;stroke-linecap:butt;stroke-linejoin:bevel;stroke:rgb(100%,100%,100%);stroke-opacity:1;stroke-miterlimit:4;" d="M 915.673042 696.265556 L 937.799513 638.038003 L 960.561193 696.265556 " transform="matrix(0.0368973,0,0,0.0368973,-25.258488,-19.756701)"/>
<path style="fill:none;stroke-width:9;stroke-linecap:butt;stroke-linejoin:miter;stroke:rgb(100%,100%,100%);stroke-opacity:1;stroke-miterlimit:4;" d="M 924.565978 676.785793 L 950.397838 676.785793 " transform="matrix(0.0368973,0,0,0.0368973,-25.258488,-19.756701)"/>
<path style="fill:none;stroke-width:9;stroke-linecap:butt;stroke-linejoin:miter;stroke:rgb(100%,100%,100%);stroke-opacity:1;stroke-miterlimit:4;" d="M 516.200047 313.152731 L 536.670842 342.472879 L 556.288686 313.152731 " transform="matrix(0.0366376,0,0,0.0366376,-8.873249,-7.723153)"/>
<path style="fill:none;stroke-width:9;stroke-linecap:butt;stroke-linejoin:miter;stroke:rgb(100%,100%,100%);stroke-opacity:1;stroke-miterlimit:4;" d="M 536.670842 342.472879 L 536.350985 371.259933 " transform="matrix(0.0366376,0,0,0.0366376,-8.873249,-7.723153)"/>
<path style="fill:none;stroke-width:9;stroke-linecap:butt;stroke-linejoin:miter;stroke:rgb(100%,100%,100%);stroke-opacity:1;stroke-miterlimit:4;" d="M 380.172875 670.740059 L 346.161503 670.313584 L 346.587978 618.603505 L 381.025824 618.710124 " transform="matrix(0.0366376,0,0,0.0366376,-0.713764,-18.789125)"/>
<path style="fill:none;stroke-width:9;stroke-linecap:butt;stroke-linejoin:miter;stroke:rgb(100%,100%,100%);stroke-opacity:1;stroke-miterlimit:4;" d="M 348.93359 642.379479 L 378.0405 642.486098 " transform="matrix(0.0366376,0,0,0.0366376,-0.713764,-18.789125)"/>
<path style="fill:none;stroke-width:9.063828;stroke-linecap:butt;stroke-linejoin:miter;stroke:rgb(100%,100%,100%);stroke-opacity:1;stroke-miterlimit:4;" d="M 384.401507 735.878057 L 384.401507 679.476755 C 384.401507 679.476755 415.320936 673.506106 415.107698 693.763663 C 415.001079 714.02122 385.041219 708.477046 385.041219 708.477046 " transform="matrix(0.0366376,0,0,0.0366376,-0.49369,-21.04281)"/>
<path style="fill:none;stroke-width:9;stroke-linecap:butt;stroke-linejoin:miter;stroke:rgb(100%,100%,100%);stroke-opacity:1;stroke-miterlimit:4;" d="M 392.50453 710.502802 L 418.412878 734.918489 " transform="matrix(0.0366376,0,0,0.0366376,-0.49369,-21.04281)"/>
</g>
</svg>
