<?xml version="1.0" encoding="UTF-8"?>
<svg xmlns="http://www.w3.org/2000/svg" xmlns:xlink="http://www.w3.org/1999/xlink" width="22" height="22" viewBox="0 0 22 22" version="1.1">
<g id="surface1">
<path style=" stroke:none;fill-rule:evenodd;fill:rgb(0%,54.509804%,74.509804%);fill-opacity:1;" d="M 2.773438 6.769531 L 5.117188 9.0625 L 5.042969 5.847656 L 2.773438 5.835938 Z M 2.773438 6.769531 "/>
<path style="fill-rule:evenodd;fill:rgb(94.901961%,94.901961%,94.901961%);fill-opacity:1;stroke-width:5.03546;stroke-linecap:butt;stroke-linejoin:miter;stroke:rgb(68.627451%,68.627451%,68.627451%);stroke-opacity:1;stroke-miterlimit:4;" d="M 97.034801 1029.812464 L 433.948864 1028.658344 L 435.102983 664.755646 L 347.034801 575.533344 L 97.034801 575.533344 Z M 97.034801 1029.812464 " transform="matrix(0.044,0,0,0.044,0,-24.303936)"/>
<path style="fill-rule:evenodd;fill:rgb(68.627451%,68.627451%,68.627451%);fill-opacity:1;stroke-width:5.03546;stroke-linecap:butt;stroke-linejoin:miter;stroke:rgb(68.627451%,68.627451%,68.627451%);stroke-opacity:1;stroke-miterlimit:4;" d="M 431.551847 662.891299 L 349.34304 662.358629 L 350.142045 578.55181 Z M 431.551847 662.891299 " transform="matrix(0.044,0,0,0.044,0,-24.303936)"/>
<path style=" stroke:none;fill-rule:nonzero;fill:rgb(0%,73.333333%,94.901961%);fill-opacity:1;" d="M 2.777344 3.070312 L 12.792969 3.070312 L 12.792969 6.785156 L 2.777344 6.785156 Z M 2.777344 3.070312 "/>
<path style="fill:none;stroke-width:9;stroke-linecap:butt;stroke-linejoin:miter;stroke:rgb(100%,100%,100%);stroke-opacity:1;stroke-miterlimit:4;" d="M 133.375985 354.164802 L 133.287207 304.62645 " transform="matrix(0.044,0,0,0.044,0.693957,-9.348876)"/>
<path style=" stroke:none;fill-rule:nonzero;fill:rgb(100%,100%,100%);fill-opacity:1;" d="M 6.371094 3.496094 L 6.761719 3.496094 L 6.761719 3.875 L 6.371094 3.875 Z M 6.371094 3.496094 "/>
<path style="fill-rule:nonzero;fill:rgb(100%,40%,0%);fill-opacity:1;stroke-width:6.211854;stroke-linecap:round;stroke-linejoin:round;stroke:rgb(100%,100%,100%);stroke-opacity:1;stroke-miterlimit:4;" d="M 149.016358 832.753125 L 341.238884 832.753038 L 341.230305 992.479631 L 149.007779 992.479718 Z M 149.016358 832.753125 " transform="matrix(0.043996,-0.000589304,0.000589304,0.043996,0,-24.303936)"/>
<path style="fill-rule:nonzero;fill:rgb(0%,73.333333%,94.901961%);fill-opacity:1;stroke-width:6.211854;stroke-linecap:round;stroke-linejoin:round;stroke:rgb(100%,100%,100%);stroke-opacity:1;stroke-miterlimit:4;" d="M -270.026539 849.481819 L -77.780233 849.436659 L -77.75287 1009.205102 L -270.07831 1009.210021 Z M -270.026539 849.481819 " transform="matrix(0.0392203,-0.019944,0.019944,0.0392203,0,-24.303936)"/>
<path style=" stroke:none;fill-rule:nonzero;fill:rgb(100%,100%,100%);fill-opacity:1;" d="M 13.375 16.972656 C 12.855469 17.097656 12.390625 17.210938 12.335938 17.222656 L 12.238281 17.242188 L 11.617188 15.890625 L 12.179688 15.636719 C 12.488281 15.496094 12.933594 15.300781 13.164062 15.199219 L 13.585938 15.015625 L 13.980469 15.871094 C 14.351562 16.675781 14.371094 16.726562 14.347656 16.734375 C 14.332031 16.742188 13.894531 16.847656 13.375 16.972656 Z M 11.324219 17.46875 L 10.679688 17.625 L 10.171875 16.539062 L 10.765625 16.273438 C 11.09375 16.125 11.363281 16.007812 11.367188 16.007812 C 11.371094 16.007812 11.507812 16.300781 11.667969 16.660156 L 11.964844 17.308594 Z M 9.828125 15.792969 C 9.6875 15.496094 9.578125 15.25 9.582031 15.25 C 9.582031 15.246094 9.820312 15.074219 10.105469 14.867188 C 10.390625 14.660156 10.632812 14.484375 10.644531 14.480469 C 10.660156 14.472656 10.722656 14.601562 10.960938 15.117188 L 11.261719 15.765625 L 10.953125 15.917969 C 10.789062 16.003906 10.519531 16.128906 10.363281 16.203125 L 10.078125 16.335938 Z M 11.195312 14.984375 L 10.882812 14.304688 L 11.746094 13.675781 C 12.222656 13.332031 12.621094 13.039062 12.632812 13.03125 C 12.65625 13.011719 12.679688 13.058594 13.054688 13.875 L 13.457031 14.738281 L 12.9375 14.976562 C 12.65625 15.109375 12.214844 15.316406 11.964844 15.4375 L 11.507812 15.664062 Z M 11.195312 14.984375 "/>
<path style="fill:none;stroke-width:9;stroke-linecap:butt;stroke-linejoin:miter;stroke:rgb(100%,100%,100%);stroke-opacity:1;stroke-miterlimit:4;" d="M 213.068182 642.117151 C 213.068182 642.117151 205.433239 635.281214 191.495028 636.346555 C 177.645597 637.411896 169.744318 653.303231 170.543324 665.288316 C 171.253551 677.273401 181.729403 691.566725 195.401278 690.412606 C 208.984375 689.169708 213.068182 684.375674 213.068182 684.375674 " transform="matrix(0.044,0,0,0.044,0,-24.303936)"/>
<path style="fill:none;stroke-width:9;stroke-linecap:butt;stroke-linejoin:miter;stroke:rgb(100%,100%,100%);stroke-opacity:1;stroke-miterlimit:4;" d="M 247.958097 690.678941 C 235.973011 690.590163 224.609375 678.516299 224.520597 663.246413 C 224.431818 647.976526 236.505682 635.636327 248.668324 635.991441 C 260.830966 636.346555 271.395597 647.887748 271.661932 664.222975 C 271.839489 680.469424 259.943182 690.856498 247.958097 690.678941 Z M 247.958097 690.678941 " transform="matrix(0.044,0,0,0.044,0,-24.303936)"/>
</g>
</svg>
