<?xml version="1.0" encoding="UTF-8"?>
<svg xmlns="http://www.w3.org/2000/svg" xmlns:xlink="http://www.w3.org/1999/xlink" width="22" height="22" viewBox="0 0 22 22" version="1.1">
<g id="surface1">
<path style=" stroke:none;fill-rule:evenodd;fill:rgb(50.196078%,20%,0%);fill-opacity:1;" d="M 2.773438 6.550781 L 5.117188 8.839844 L 5.042969 5.628906 L 2.773438 5.617188 Z M 2.773438 6.550781 "/>
<path style="fill-rule:evenodd;fill:rgb(94.901961%,94.901961%,94.901961%);fill-opacity:1;stroke-width:5.03546;stroke-linecap:butt;stroke-linejoin:miter;stroke:rgb(68.627451%,68.627451%,68.627451%);stroke-opacity:1;stroke-miterlimit:4;" d="M 97.034801 1024.840873 L 433.948864 1023.686754 L 435.102983 659.784055 L 347.034801 570.561754 L 97.034801 570.561754 Z M 97.034801 1024.840873 " transform="matrix(0.044,0,0,0.044,0,-24.303936)"/>
<path style="fill-rule:evenodd;fill:rgb(68.627451%,68.627451%,68.627451%);fill-opacity:1;stroke-width:5.03546;stroke-linecap:butt;stroke-linejoin:miter;stroke:rgb(68.627451%,68.627451%,68.627451%);stroke-opacity:1;stroke-miterlimit:4;" d="M 431.551847 657.919708 L 349.34304 657.298259 L 350.142045 573.580219 Z M 431.551847 657.919708 " transform="matrix(0.044,0,0,0.044,0,-24.303936)"/>
<path style=" stroke:none;fill-rule:nonzero;fill:rgb(100%,40%,0%);fill-opacity:1;" d="M 2.777344 2.851562 L 12.792969 2.851562 L 12.792969 6.5625 L 2.777344 6.5625 Z M 2.777344 2.851562 "/>
<path style="fill-rule:nonzero;fill:rgb(0%,73.333333%,94.901961%);fill-opacity:1;stroke-width:6.833039;stroke-linecap:round;stroke-linejoin:round;stroke:rgb(100%,100%,100%);stroke-opacity:1;stroke-miterlimit:4;" d="M 141.271175 807.789194 L 352.760459 807.780816 L 352.804165 983.489659 L 141.31607 983.409267 Z M 141.271175 807.789194 " transform="matrix(0.043996,-0.000589304,0.000589304,0.043996,0,-24.303936)"/>
<path style="fill-rule:nonzero;fill:rgb(100%,40%,0%);fill-opacity:1;stroke-width:6.833039;stroke-linecap:round;stroke-linejoin:round;stroke:rgb(100%,100%,100%);stroke-opacity:1;stroke-miterlimit:4;" d="M -269.597998 827.29028 L -58.055976 827.296672 L -58.057261 1002.986161 L -269.520149 1003.02001 Z M -269.597998 827.29028 " transform="matrix(0.0392203,-0.019944,0.019944,0.0392203,0,-24.303936)"/>
<path style=" stroke:none;fill-rule:nonzero;fill:rgb(98.039216%,92.54902%,42.745098%);fill-opacity:1;" d="M 9.566406 14.195312 C 9.800781 14.65625 9.609375 15.21875 9.144531 15.457031 C 8.675781 15.695312 8.109375 15.515625 7.875 15.058594 C 7.640625 14.601562 7.828125 14.039062 8.296875 13.800781 C 8.761719 13.558594 9.328125 13.738281 9.5625 14.191406 "/>
<path style="fill-rule:nonzero;fill:rgb(50.196078%,20%,0%);fill-opacity:1;stroke-width:0.28471;stroke-linecap:butt;stroke-linejoin:miter;stroke:rgb(0%,0%,0%);stroke-opacity:1;stroke-miterlimit:4;" d="M 186.434659 953.818146 L 215.642756 1011.879225 L 398.526278 918.484339 L 373.668324 870.810333 C 373.668324 870.810333 352.539063 893.271271 328.746449 901.705219 C 304.953835 910.316725 256.214489 898.953089 231.977983 909.961612 C 207.56392 920.970134 186.434659 953.818146 186.434659 953.818146 Z M 186.434659 953.818146 " transform="matrix(0.044,0,0,0.044,0,-24.303936)"/>
<path style="fill:none;stroke-width:9;stroke-linecap:butt;stroke-linejoin:miter;stroke:rgb(100%,100%,100%);stroke-opacity:1;stroke-miterlimit:4;" d="M 127.929688 631.374964 L 127.929688 684.286896 L 148.171165 684.286896 C 148.171165 684.286896 163.973722 685.085901 163.441051 670.348685 C 162.908381 655.611469 149.414063 655.877805 149.414063 655.877805 L 131.214489 655.877805 L 149.147727 655.611469 C 149.147727 655.611469 160.333807 655.345134 160.245028 643.004935 C 160.067472 630.575958 144.797585 631.374964 144.797585 631.374964 Z M 127.929688 631.374964 " transform="matrix(0.044,0,0,0.044,0,-24.303936)"/>
<path style="fill:none;stroke-width:9;stroke-linecap:butt;stroke-linejoin:miter;stroke:rgb(100%,100%,100%);stroke-opacity:1;stroke-miterlimit:4;" d="M 177.024148 686.861469 L 177.290483 632.262748 L 182.350852 632.085191 L 198.242188 673.367151 L 201.526989 673.367151 L 217.507102 632.085191 L 222.745028 631.996413 L 222.745028 687.039026 " transform="matrix(0.044,0,0,0.044,0,-24.303936)"/>
<path style="fill:none;stroke-width:9.063828;stroke-linecap:butt;stroke-linejoin:miter;stroke:rgb(100%,100%,100%);stroke-opacity:1;stroke-miterlimit:4;" d="M 240.50071 687.571697 L 240.50071 631.108629 C 240.50071 631.108629 271.306818 625.160475 271.21804 645.401952 C 271.129261 665.732208 241.122159 660.139168 241.122159 660.139168 " transform="matrix(0.044,0,0,0.044,0,-24.303936)"/>
</g>
</svg>
