<?xml version="1.0" encoding="UTF-8"?>
<svg xmlns="http://www.w3.org/2000/svg" xmlns:xlink="http://www.w3.org/1999/xlink" width="22" height="22" viewBox="0 0 22 22" version="1.1">
<g id="surface1">
<path style=" stroke:none;fill-rule:evenodd;fill:rgb(19.607843%,19.607843%,19.607843%);fill-opacity:1;" d="M 2.773438 6.769531 L 5.117188 9.0625 L 5.042969 5.847656 L 2.773438 5.835938 Z M 2.773438 6.769531 "/>
<path style="fill-rule:evenodd;fill:rgb(94.901961%,94.901961%,94.901961%);fill-opacity:1;stroke-width:5.03546;stroke-linecap:butt;stroke-linejoin:miter;stroke:rgb(68.627451%,68.627451%,68.627451%);stroke-opacity:1;stroke-miterlimit:4;" d="M 97.034801 1029.812464 L 433.948864 1028.658344 L 435.102983 664.755646 L 347.034801 575.533344 L 97.034801 575.533344 Z M 97.034801 1029.812464 " transform="matrix(0.044,0,0,0.044,0,-24.303936)"/>
<path style="fill-rule:evenodd;fill:rgb(68.627451%,68.627451%,68.627451%);fill-opacity:1;stroke-width:5.03546;stroke-linecap:butt;stroke-linejoin:miter;stroke:rgb(68.627451%,68.627451%,68.627451%);stroke-opacity:1;stroke-miterlimit:4;" d="M 431.551847 662.891299 L 349.34304 662.358629 L 350.142045 578.55181 Z M 431.551847 662.891299 " transform="matrix(0.044,0,0,0.044,0,-24.303936)"/>
<path style=" stroke:none;fill-rule:nonzero;fill:rgb(40%,40%,40%);fill-opacity:1;" d="M 2.777344 3.070312 L 13.582031 3.070312 L 13.582031 6.785156 L 2.777344 6.785156 Z M 2.777344 3.070312 "/>
<path style="fill:none;stroke-width:9;stroke-linecap:butt;stroke-linejoin:miter;stroke:rgb(100%,100%,100%);stroke-opacity:1;stroke-miterlimit:4;" d="M 380.228017 670.697284 L 346.225886 670.34217 L 346.581 618.584358 L 381.027022 618.761914 " transform="matrix(0.044,0,0,0.044,-8.648001,-23.514587)"/>
<path style="fill:none;stroke-width:9;stroke-linecap:butt;stroke-linejoin:miter;stroke:rgb(100%,100%,100%);stroke-opacity:1;stroke-miterlimit:4;" d="M 348.978017 642.376971 L 378.097335 642.554528 " transform="matrix(0.044,0,0,0.044,-8.648001,-23.514587)"/>
<path style=" stroke:none;fill-rule:nonzero;fill:rgb(60%,60%,60%);fill-opacity:1;" d="M 6.8125 15.59375 L 16.621094 15.59375 L 16.621094 17.945312 L 6.8125 17.945312 Z M 6.8125 15.59375 "/>
<path style=" stroke:none;fill-rule:nonzero;fill:rgb(36.470588%,41.568627%,48.235294%);fill-opacity:1;" d="M 7.835938 11.679688 L 15.496094 11.679688 L 15.496094 14.738281 L 7.835938 14.738281 Z M 7.835938 11.679688 "/>
<path style=" stroke:none;fill-rule:nonzero;fill:rgb(100%,100%,100%);fill-opacity:1;" d="M 8.441406 12.84375 L 8.441406 11.085938 L 9.9375 9.875 L 14.855469 9.851562 L 14.878906 12.867188 Z M 8.441406 12.84375 "/>
<path style=" stroke:none;fill-rule:nonzero;fill:rgb(40%,40%,40%);fill-opacity:1;" d="M 6.796875 12.636719 L 16.605469 12.636719 L 16.605469 15.695312 L 6.796875 15.695312 Z M 6.796875 12.636719 "/>
<path style=" stroke:none;fill-rule:nonzero;fill:rgb(100%,100%,100%);fill-opacity:1;" d="M 8.003906 17.089844 L 15.664062 17.089844 L 15.664062 20.851562 L 8.003906 20.851562 Z M 8.003906 17.089844 "/>
<path style=" stroke:none;fill-rule:nonzero;fill:rgb(36.470588%,41.568627%,48.235294%);fill-opacity:1;" d="M 8.003906 16.382812 L 15.664062 16.382812 L 15.664062 17.15625 L 8.003906 17.15625 Z M 8.003906 16.382812 "/>
<path style=" stroke:none;fill-rule:nonzero;fill:rgb(55.294118%,82.745098%,37.254902%);fill-opacity:1;" d="M 15.992188 13.570312 C 15.992188 13.785156 15.824219 13.964844 15.613281 13.964844 C 15.398438 13.964844 15.230469 13.789062 15.226562 13.570312 C 15.226562 13.351562 15.398438 13.175781 15.609375 13.175781 C 15.820312 13.171875 15.992188 13.347656 15.992188 13.566406 "/>
<path style=" stroke:none;fill-rule:nonzero;fill:rgb(92.156863%,92.156863%,92.156863%);fill-opacity:1;" d="M 8.433594 11.097656 L 9.9375 11.097656 L 9.941406 9.871094 Z M 8.433594 11.097656 "/>
<path style=" stroke:none;fill-rule:nonzero;fill:rgb(80%,80%,80%);fill-opacity:1;" d="M 8.484375 17.566406 L 15.203125 17.566406 L 15.203125 17.933594 L 8.484375 17.933594 Z M 8.484375 17.566406 "/>
<path style=" stroke:none;fill-rule:nonzero;fill:rgb(80%,80%,80%);fill-opacity:1;" d="M 8.433594 19.382812 L 15.152344 19.382812 L 15.152344 19.753906 L 8.433594 19.753906 Z M 8.433594 19.382812 "/>
<path style=" stroke:none;fill-rule:nonzero;fill:rgb(80%,80%,80%);fill-opacity:1;" d="M 8.433594 18.433594 L 15.152344 18.433594 L 15.152344 18.804688 L 8.433594 18.804688 Z M 8.433594 18.433594 "/>
<path style="fill:none;stroke-width:9.063828;stroke-linecap:butt;stroke-linejoin:miter;stroke:rgb(100%,100%,100%);stroke-opacity:1;stroke-miterlimit:4;" d="M 198.064631 692.632066 L 198.064631 636.168998 C 198.064631 636.168998 228.959517 630.220844 228.78196 650.462322 C 228.693182 670.703799 198.774858 665.199538 198.774858 665.199538 " transform="matrix(0.044,0,0,0.044,0,-24.303936)"/>
<path style="fill:none;stroke-width:10;stroke-linecap:butt;stroke-linejoin:miter;stroke:rgb(100%,100%,100%);stroke-opacity:1;stroke-miterlimit:4;" d="M 277.432528 638.477237 C 277.432528 638.477237 268.110795 634.215873 259.321733 634.127094 C 250.53267 634.038316 245.028409 639.365021 244.762074 646.911185 C 244.495739 654.546129 248.668324 660.58306 263.849432 662.358629 C 279.03054 664.134197 278.142756 677.36218 276.278409 682.067435 C 274.325284 686.683913 265.536222 691.122833 256.569602 689.879935 C 247.602983 688.725816 240.145597 684.642009 240.145597 684.642009 " transform="matrix(0.044,0,0,0.044,0,-24.303936)"/>
</g>
</svg>
