<?xml version="1.0" encoding="UTF-8"?>
<svg xmlns="http://www.w3.org/2000/svg" xmlns:xlink="http://www.w3.org/1999/xlink" width="22" height="22" viewBox="0 0 22 22" version="1.1">
<g id="surface1">
<path style=" stroke:none;fill-rule:evenodd;fill:rgb(21.176471%,63.137255%,20.784314%);fill-opacity:1;" d="M 2.773438 6.769531 L 5.117188 9.0625 L 5.042969 5.847656 L 2.773438 5.835938 Z M 2.773438 6.769531 "/>
<path style="fill-rule:evenodd;fill:rgb(94.901961%,94.901961%,94.901961%);fill-opacity:1;stroke-width:5.03546;stroke-linecap:butt;stroke-linejoin:miter;stroke:rgb(68.627451%,68.627451%,68.627451%);stroke-opacity:1;stroke-miterlimit:4;" d="M 97.034801 1029.812464 L 433.948864 1028.658344 L 435.102983 664.755646 L 347.034801 575.533344 L 97.034801 575.533344 Z M 97.034801 1029.812464 " transform="matrix(0.044,0,0,0.044,0,-24.303936)"/>
<path style="fill-rule:evenodd;fill:rgb(68.627451%,68.627451%,68.627451%);fill-opacity:1;stroke-width:5.03546;stroke-linecap:butt;stroke-linejoin:miter;stroke:rgb(68.627451%,68.627451%,68.627451%);stroke-opacity:1;stroke-miterlimit:4;" d="M 431.551847 662.891299 L 349.34304 662.358629 L 350.142045 578.55181 Z M 431.551847 662.891299 " transform="matrix(0.044,0,0,0.044,0,-24.303936)"/>
<path style=" stroke:none;fill-rule:nonzero;fill:rgb(27.058824%,81.568627%,24.705882%);fill-opacity:1;" d="M 2.777344 3.070312 L 12.675781 3.070312 L 12.675781 6.785156 L 2.777344 6.785156 Z M 2.777344 3.070312 "/>
<path style="fill:none;stroke-width:16.988342;stroke-linecap:butt;stroke-linejoin:miter;stroke:rgb(27.058824%,81.568627%,24.705882%);stroke-opacity:1;stroke-miterlimit:4;" d="M 144.797585 917.951668 C 144.797585 917.951668 148.703835 878.090163 187.411222 878.80039 C 216.796875 879.244282 229.225852 905.789026 229.847301 920.348685 C 230.46875 934.997123 220.259233 962.429651 190.252131 963.761327 C 160.333807 965.093004 145.862926 943.697407 145.06392 917.774112 C 144.264915 891.762038 144.975142 874.183913 144.975142 874.183913 L 143.732244 1029.45735 " transform="matrix(0.044,0,0,0.044,0,-24.303936)"/>
<path style="fill:none;stroke-width:9.063828;stroke-linecap:butt;stroke-linejoin:miter;stroke:rgb(100%,100%,100%);stroke-opacity:1;stroke-miterlimit:4;" d="M 137.340199 694.585191 L 137.340199 638.122123 C 137.340199 638.122123 168.146307 632.173969 168.057528 652.415447 C 167.96875 672.656924 137.961648 667.152663 137.961648 667.152663 " transform="matrix(0.044,0,0,0.044,0,-24.303936)"/>
</g>
</svg>
