<?xml version="1.0" encoding="UTF-8"?>
<svg xmlns="http://www.w3.org/2000/svg" xmlns:xlink="http://www.w3.org/1999/xlink" width="22" height="22" viewBox="0 0 22 22" version="1.1">
<g id="surface1">
<path style=" stroke:none;fill-rule:evenodd;fill:rgb(0%,0%,0%);fill-opacity:1;" d="M 2.78125 6.796875 L 5.121094 9.085938 L 5.046875 5.875 L 2.777344 5.863281 Z M 2.78125 6.796875 "/>
<path style="fill-rule:evenodd;fill:rgb(94.901961%,94.901961%,94.901961%);fill-opacity:1;stroke-width:5.03546;stroke-linecap:butt;stroke-linejoin:miter;stroke:rgb(68.627451%,68.627451%,68.627451%);stroke-opacity:1;stroke-miterlimit:4;" d="M 96.946023 1029.812464 L 433.771307 1028.658344 L 434.925426 664.755646 L 346.946023 575.533344 L 96.946023 575.533344 Z M 96.946023 1029.812464 " transform="matrix(0.044,0,0,0.044,0,-24.303936)"/>
<path style="fill-rule:evenodd;fill:rgb(68.627451%,68.627451%,68.627451%);fill-opacity:1;stroke-width:5.03546;stroke-linecap:butt;stroke-linejoin:miter;stroke:rgb(68.627451%,68.627451%,68.627451%);stroke-opacity:1;stroke-miterlimit:4;" d="M 431.37429 662.891299 L 349.254261 662.358629 L 349.964489 578.55181 Z M 431.37429 662.891299 " transform="matrix(0.044,0,0,0.044,0,-24.303936)"/>
<path style=" stroke:none;fill-rule:nonzero;fill:rgb(10.196078%,10.196078%,10.196078%);fill-opacity:1;" d="M 2.773438 3.070312 L 12.886719 3.070312 L 12.886719 6.785156 L 2.773438 6.785156 Z M 2.773438 3.070312 "/>
<path style=" stroke:none;fill-rule:nonzero;fill:rgb(100%,100%,100%);fill-opacity:1;" d="M 16.238281 18.46875 C 16.027344 18.421875 15.804688 18.390625 15.578125 18.390625 C 15.1875 18.390625 14.832031 18.457031 14.570312 18.566406 C 14.542969 18.578125 14.523438 18.609375 14.523438 18.644531 C 14.523438 18.65625 14.527344 18.667969 14.53125 18.679688 C 14.5625 18.769531 14.511719 18.867188 14.257812 18.921875 C 13.882812 19.003906 13.648438 19.390625 13.511719 19.519531 C 13.351562 19.667969 12.902344 19.761719 12.972656 19.671875 C 13.023438 19.601562 13.226562 19.382812 13.347656 19.144531 C 13.460938 18.933594 13.554688 18.875 13.691406 18.671875 C 13.730469 18.613281 13.882812 18.402344 13.929688 18.238281 C 13.980469 18.078125 13.960938 17.878906 13.980469 17.792969 C 14.007812 17.671875 14.121094 17.414062 14.128906 17.265625 C 14.136719 17.183594 13.785156 17.386719 13.617188 17.386719 C 13.449219 17.386719 13.289062 17.285156 13.136719 17.277344 C 12.953125 17.269531 12.835938 17.421875 12.667969 17.394531 C 12.574219 17.378906 12.492188 17.296875 12.324219 17.289062 C 12.089844 17.28125 11.796875 17.421875 11.253906 17.402344 C 10.71875 17.386719 10.222656 16.726562 10.15625 16.621094 C 10.078125 16.5 9.980469 16.5 9.875 16.597656 C 9.769531 16.691406 9.640625 16.617188 9.601562 16.550781 C 9.53125 16.429688 9.34375 16.070312 9.054688 15.996094 C 8.652344 15.890625 8.449219 16.21875 8.476562 16.476562 C 8.5 16.742188 8.671875 16.816406 8.75 16.957031 C 8.828125 17.09375 8.871094 17.1875 9.019531 17.25 C 9.125 17.292969 9.164062 17.355469 9.132812 17.445312 C 9.105469 17.519531 8.996094 17.535156 8.921875 17.539062 C 8.769531 17.546875 8.664062 17.503906 8.585938 17.457031 C 8.492188 17.398438 8.417969 17.316406 8.339844 17.179688 C 8.246094 17.027344 8.101562 16.964844 7.933594 16.964844 C 7.851562 16.964844 7.777344 16.984375 7.710938 17.019531 C 7.445312 17.15625 7.132812 17.238281 6.792969 17.238281 L 6.410156 17.238281 C 7.144531 19.414062 9.199219 20.976562 11.625 20.976562 C 13.558594 20.976562 15.261719 19.980469 16.238281 18.46875 "/>
<path style=" stroke:none;fill-rule:nonzero;fill:rgb(0%,0%,0%);fill-opacity:1;" d="M 16.238281 18.46875 C 16.027344 18.421875 15.804688 18.390625 15.578125 18.390625 C 15.1875 18.390625 14.832031 18.457031 14.570312 18.566406 C 14.542969 18.582031 14.523438 18.609375 14.523438 18.644531 C 14.523438 18.65625 14.527344 18.671875 14.53125 18.679688 C 14.5625 18.769531 14.511719 18.867188 14.257812 18.921875 C 13.882812 19.003906 13.648438 19.390625 13.511719 19.519531 C 13.351562 19.667969 12.902344 19.761719 12.972656 19.671875 C 13.023438 19.601562 13.226562 19.382812 13.347656 19.144531 C 13.460938 18.933594 13.554688 18.875 13.691406 18.671875 C 13.730469 18.613281 13.882812 18.402344 13.929688 18.238281 C 13.980469 18.078125 13.960938 17.878906 13.980469 17.792969 C 14.007812 17.675781 14.121094 17.414062 14.128906 17.265625 C 14.136719 17.183594 13.785156 17.386719 13.617188 17.386719 C 13.449219 17.386719 13.289062 17.285156 13.136719 17.28125 C 12.953125 17.269531 12.835938 17.421875 12.667969 17.394531 C 12.574219 17.378906 12.492188 17.296875 12.324219 17.289062 C 12.089844 17.28125 11.796875 17.421875 11.253906 17.402344 C 10.71875 17.386719 10.222656 16.726562 10.15625 16.621094 C 10.078125 16.5 9.980469 16.5 9.875 16.597656 C 9.769531 16.691406 9.640625 16.617188 9.601562 16.550781 C 9.53125 16.429688 9.34375 16.070312 9.054688 15.996094 C 8.652344 15.890625 8.449219 16.21875 8.476562 16.476562 C 8.5 16.742188 8.671875 16.816406 8.75 16.957031 C 8.828125 17.09375 8.871094 17.1875 9.019531 17.25 C 9.125 17.292969 9.164062 17.359375 9.132812 17.445312 C 9.105469 17.519531 8.996094 17.539062 8.921875 17.539062 C 8.769531 17.546875 8.664062 17.507812 8.585938 17.457031 C 8.492188 17.398438 8.417969 17.316406 8.339844 17.179688 C 8.246094 17.027344 8.101562 16.964844 7.933594 16.964844 C 7.851562 16.964844 7.777344 16.984375 7.710938 17.019531 C 7.445312 17.15625 7.132812 17.238281 6.792969 17.238281 L 6.410156 17.238281 C 6.222656 16.6875 6.125 16.097656 6.125 15.480469 C 6.125 12.445312 8.585938 9.984375 11.625 9.984375 C 14.660156 9.984375 17.125 12.445312 17.125 15.480469 C 17.125 16.582031 16.796875 17.609375 16.238281 18.46875 "/>
<path style=" stroke:none;fill-rule:nonzero;fill:rgb(0%,0%,0%);fill-opacity:1;" d="M 12.835938 17.964844 C 12.863281 17.992188 12.910156 18.085938 12.851562 18.203125 C 12.816406 18.265625 12.78125 18.308594 12.71875 18.359375 C 12.640625 18.421875 12.488281 18.496094 12.28125 18.363281 C 12.171875 18.292969 12.164062 18.269531 12.007812 18.289062 C 11.898438 18.300781 11.855469 18.191406 11.894531 18.097656 C 11.933594 18.007812 12.097656 17.933594 12.300781 18.050781 C 12.390625 18.105469 12.53125 18.21875 12.65625 18.117188 C 12.707031 18.078125 12.738281 18.050781 12.808594 17.964844 C 12.8125 17.964844 12.816406 17.960938 12.824219 17.960938 C 12.828125 17.960938 12.832031 17.960938 12.835938 17.964844 "/>
<path style=" stroke:none;fill-rule:nonzero;fill:rgb(94.117647%,22.352941%,8.627451%);fill-opacity:1;" d="M 11.195312 12.601562 C 10.558594 12.648438 10.492188 12.714844 10.375 12.84375 C 10.207031 13.023438 9.984375 12.609375 9.984375 12.609375 C 9.851562 12.582031 9.691406 12.371094 9.777344 12.171875 C 9.863281 11.972656 10.023438 12.03125 10.070312 12.09375 C 10.132812 12.167969 10.261719 12.289062 10.425781 12.285156 C 10.59375 12.28125 10.785156 12.246094 11.054688 12.246094 C 11.328125 12.246094 11.507812 12.347656 11.519531 12.433594 C 11.527344 12.507812 11.496094 12.578125 11.195312 12.601562 M 11.863281 11.550781 L 11.859375 11.550781 C 11.847656 11.550781 11.84375 11.546875 11.84375 11.535156 C 11.84375 11.53125 11.847656 11.523438 11.851562 11.519531 C 11.976562 11.457031 12.160156 11.402344 12.367188 11.382812 C 12.433594 11.375 12.492188 11.371094 12.554688 11.371094 L 12.585938 11.371094 C 12.9375 11.378906 13.21875 11.519531 13.214844 11.683594 C 13.210938 11.851562 12.921875 11.976562 12.570312 11.96875 C 12.453125 11.96875 12.347656 11.949219 12.257812 11.921875 C 12.242188 11.921875 12.238281 11.910156 12.238281 11.898438 C 12.238281 11.890625 12.242188 11.878906 12.257812 11.878906 C 12.476562 11.828125 12.625 11.742188 12.613281 11.664062 C 12.601562 11.5625 12.3125 11.503906 11.972656 11.539062 C 11.933594 11.542969 11.898438 11.546875 11.863281 11.550781 M 14.726562 14.019531 C 14.671875 14.203125 14.59375 14.433594 14.25 14.613281 C 14.199219 14.636719 14.183594 14.59375 14.203125 14.554688 C 14.335938 14.335938 14.359375 14.277344 14.394531 14.191406 C 14.449219 14.0625 14.476562 13.882812 14.371094 13.503906 C 14.164062 12.761719 13.734375 11.765625 13.417969 11.445312 C 13.117188 11.132812 12.570312 11.046875 12.070312 11.171875 C 11.890625 11.21875 11.53125 11.40625 10.871094 11.253906 C 9.722656 10.996094 9.554688 11.570312 9.488281 11.820312 C 9.421875 12.070312 9.265625 12.78125 9.265625 12.78125 C 9.210938 13.070312 9.144531 13.574219 10.921875 13.914062 C 11.75 14.070312 11.792969 14.285156 11.832031 14.441406 C 11.898438 14.714844 12 14.875 12.121094 14.953125 C 12.238281 15.03125 12.121094 15.097656 11.988281 15.109375 C 11.636719 15.148438 10.332031 14.773438 9.558594 14.335938 C 8.925781 13.949219 8.914062 13.601562 9.058594 13.304688 C 8.105469 13.203125 7.390625 13.394531 7.261719 13.847656 C 7.039062 14.621094 8.964844 15.945312 11.160156 16.609375 C 13.464844 17.308594 15.832031 16.820312 16.09375 15.371094 C 16.214844 14.714844 15.660156 14.230469 14.726562 14.019531 "/>
<path style="fill:none;stroke-width:10;stroke-linecap:butt;stroke-linejoin:miter;stroke:rgb(100%,100%,100%);stroke-opacity:1;stroke-miterlimit:4;" d="M 128.107244 640.607918 C 128.107244 640.607918 118.87429 636.346555 109.996449 636.257776 C 101.207386 636.168998 95.791903 641.495702 95.43679 649.041867 C 95.170455 656.67681 99.431818 662.713742 114.524148 664.48931 C 129.705256 666.264879 128.817472 679.492862 126.953125 684.198117 C 125.088778 688.814594 116.210938 693.253515 107.244318 692.010617 C 98.277699 690.856498 90.820313 686.772691 90.820313 686.772691 " transform="matrix(0.044,0,0,0.044,0,-24.303936)"/>
<path style="fill:none;stroke-width:9.063828;stroke-linecap:butt;stroke-linejoin:miter;stroke:rgb(100%,100%,100%);stroke-opacity:1;stroke-miterlimit:4;" d="M 143.199574 692.809623 L 143.199574 636.346555 C 143.199574 636.346555 174.005682 630.398401 173.916903 650.639879 C 173.739347 670.970134 143.821023 665.377094 143.821023 665.377094 " transform="matrix(0.044,0,0,0.044,0,-24.303936)"/>
<path style="fill:none;stroke-width:9;stroke-linecap:butt;stroke-linejoin:miter;stroke:rgb(100%,100%,100%);stroke-opacity:1;stroke-miterlimit:4;" d="M 380.241346 670.735542 L 346.239215 670.29165 L 346.594329 618.622616 L 381.040352 618.711395 " transform="matrix(0.044,0,0,0.044,-6.925932,-23.442051)"/>
<path style="fill:none;stroke-width:9;stroke-linecap:butt;stroke-linejoin:miter;stroke:rgb(100%,100%,100%);stroke-opacity:1;stroke-miterlimit:4;" d="M 348.991346 642.326451 L 378.110664 642.504008 " transform="matrix(0.044,0,0,0.044,-6.925932,-23.442051)"/>
<path style="fill:none;stroke-width:9;stroke-linecap:butt;stroke-linejoin:miter;stroke:rgb(100%,100%,100%);stroke-opacity:1;stroke-miterlimit:4;" d="M 277.077415 644.159055 C 277.077415 644.159055 269.442472 637.323117 255.59304 638.388458 C 241.65483 639.453799 233.84233 655.345134 234.552557 667.330219 C 235.262784 679.315305 245.827415 693.608629 259.410511 692.454509 C 272.993608 691.211612 277.077415 686.417577 277.077415 686.417577 " transform="matrix(0.044,0,0,0.044,0,-24.303936)"/>
</g>
</svg>
