<?xml version="1.0" encoding="UTF-8"?>
<svg xmlns="http://www.w3.org/2000/svg" xmlns:xlink="http://www.w3.org/1999/xlink" width="22" height="22" viewBox="0 0 22 22" version="1.1">
<g id="surface1">
<path style=" stroke:none;fill-rule:evenodd;fill:rgb(0%,56.078431%,81.176471%);fill-opacity:1;" d="M 2.773438 6.769531 L 5.117188 9.0625 L 5.042969 5.847656 L 2.773438 5.835938 Z M 2.773438 6.769531 "/>
<path style="fill-rule:evenodd;fill:rgb(94.901961%,94.901961%,94.901961%);fill-opacity:1;stroke-width:5.03546;stroke-linecap:butt;stroke-linejoin:miter;stroke:rgb(68.627451%,68.627451%,68.627451%);stroke-opacity:1;stroke-miterlimit:4;" d="M 97.034801 1029.812464 L 433.948864 1028.658344 L 435.102983 664.755646 L 347.034801 575.533344 L 97.034801 575.533344 Z M 97.034801 1029.812464 " transform="matrix(0.044,0,0,0.044,0,-24.303936)"/>
<path style="fill-rule:evenodd;fill:rgb(68.627451%,68.627451%,68.627451%);fill-opacity:1;stroke-width:5.03546;stroke-linecap:butt;stroke-linejoin:miter;stroke:rgb(68.627451%,68.627451%,68.627451%);stroke-opacity:1;stroke-miterlimit:4;" d="M 431.551847 662.891299 L 349.34304 662.358629 L 350.142045 578.55181 Z M 431.551847 662.891299 " transform="matrix(0.044,0,0,0.044,0,-24.303936)"/>
<path style=" stroke:none;fill-rule:nonzero;fill:rgb(0%,73.333333%,94.901961%);fill-opacity:1;" d="M 2.777344 3.070312 L 14.90625 3.070312 L 14.90625 6.785156 L 2.777344 6.785156 Z M 2.777344 3.070312 "/>
<path style=" stroke:none;fill-rule:nonzero;fill:rgb(0%,73.333333%,94.901961%);fill-opacity:1;" d="M 13.835938 16.246094 C 14.855469 15.117188 15.574219 14.285156 15.554688 14.265625 C 15.535156 14.246094 15.097656 14.226562 14.582031 14.222656 L 13.644531 14.210938 L 13.628906 12.183594 L 13.609375 10.152344 L 10.429688 10.152344 L 10.410156 12.183594 L 10.390625 14.210938 L 9.433594 14.230469 C 8.8125 14.242188 8.476562 14.261719 8.476562 14.289062 C 8.476562 14.367188 11.960938 18.210938 12.023438 18.203125 C 12.054688 18.195312 12.871094 17.316406 13.835938 16.246094 Z M 13.835938 16.246094 "/>
<path style=" stroke:none;fill-rule:nonzero;fill:rgb(0%,73.333333%,94.901961%);fill-opacity:1;" d="M 6.453125 16.816406 L 8.351562 16.816406 L 8.351562 18.714844 L 15.558594 18.714844 L 15.558594 16.816406 L 17.453125 16.816406 L 17.453125 20.609375 L 6.453125 20.609375 Z M 6.453125 16.816406 "/>
<path style="fill:none;stroke-width:9;stroke-linecap:butt;stroke-linejoin:miter;stroke:rgb(100%,100%,100%);stroke-opacity:1;stroke-miterlimit:4;" d="M 133.295622 354.130251 L 133.295622 304.720479 " transform="matrix(0.0383433,0,0,0.0383433,-1.548487,-7.46913)"/>
<path style=" stroke:none;fill-rule:nonzero;fill:rgb(100%,100%,100%);fill-opacity:1;" d="M 3.398438 3.722656 L 3.738281 3.722656 L 3.738281 4.054688 L 3.398438 4.054688 Z M 3.398438 3.722656 "/>
<path style="fill:none;stroke-width:7.842927;stroke-linecap:butt;stroke-linejoin:bevel;stroke:rgb(100%,100%,100%);stroke-opacity:1;stroke-miterlimit:4;" d="M 93.306108 691.034055 L 93.128551 637.944566 L 129.794034 690.323827 L 129.794034 637.14556 " transform="matrix(0.044,0,0,0.044,0,-24.303936)"/>
<path style="fill:none;stroke-width:8.714363;stroke-linecap:butt;stroke-linejoin:miter;stroke:rgb(100%,100%,100%);stroke-opacity:1;stroke-miterlimit:4;" d="M 171.786222 645.579509 C 171.786222 645.579509 163.707386 641.850816 156.072443 641.762038 C 148.4375 641.673259 143.643466 646.289737 143.377131 652.948117 C 143.110795 659.517719 146.839489 664.844424 159.978693 666.353657 C 173.206676 667.951668 172.40767 679.404083 170.809659 683.48789 C 169.211648 687.571697 161.487926 691.389168 153.675426 690.323827 C 145.862926 689.347265 139.293324 685.796129 139.293324 685.796129 " transform="matrix(0.044,0,0,0.044,0,-24.303936)"/>
<path style="fill:none;stroke-width:9;stroke-linecap:butt;stroke-linejoin:miter;stroke:rgb(100%,100%,100%);stroke-opacity:1;stroke-miterlimit:4;" d="M 122.827483 699.585212 L 122.827483 642.331002 " transform="matrix(0.0383433,0,0,0.0383433,4.106801,-20.668121)"/>
<path style="fill:none;stroke-width:8.670217;stroke-linecap:butt;stroke-linejoin:miter;stroke:rgb(100%,100%,100%);stroke-opacity:1;stroke-miterlimit:4;" d="M 96.237894 642.738505 L 149.417072 642.738505 " transform="matrix(0.0383433,0,0,0.0383433,4.106801,-20.668121)"/>
<path style="fill:none;stroke-width:9;stroke-linecap:butt;stroke-linejoin:bevel;stroke:rgb(100%,100%,100%);stroke-opacity:1;stroke-miterlimit:4;" d="M 915.732051 696.287606 L 937.784597 638.02033 L 960.545252 696.287606 " transform="matrix(0.0386152,0,0,0.0386152,-25.779105,-20.77788)"/>
<path style="fill:none;stroke-width:9;stroke-linecap:butt;stroke-linejoin:miter;stroke:rgb(100%,100%,100%);stroke-opacity:1;stroke-miterlimit:4;" d="M 924.532838 676.764022 L 950.328247 676.764022 " transform="matrix(0.0386152,0,0,0.0386152,-25.779105,-20.77788)"/>
<path style="fill:none;stroke-width:7.842927;stroke-linecap:butt;stroke-linejoin:miter;stroke:rgb(100%,100%,100%);stroke-opacity:1;stroke-miterlimit:4;" d="M 267.578125 639.808913 L 267.84446 687.305362 L 295.454545 687.571697 " transform="matrix(0.044,0,0,0.044,0,-24.303936)"/>
<path style="fill:none;stroke-width:7.842927;stroke-linecap:butt;stroke-linejoin:miter;stroke:rgb(100%,100%,100%);stroke-opacity:1;stroke-miterlimit:4;" d="M 302.556818 640.874254 L 302.823153 688.281924 L 330.522017 688.548259 " transform="matrix(0.044,0,0,0.044,0,-24.303936)"/>
</g>
</svg>
