<?xml version="1.0" encoding="UTF-8"?>
<svg xmlns="http://www.w3.org/2000/svg" xmlns:xlink="http://www.w3.org/1999/xlink" width="22" height="22" viewBox="0 0 22 22" version="1.1">
<g id="surface1">
<path style=" stroke:none;fill-rule:evenodd;fill:rgb(20%,20%,20%);fill-opacity:1;" d="M 2.773438 6.769531 L 5.117188 9.0625 L 5.042969 5.847656 L 2.773438 5.835938 Z M 2.773438 6.769531 "/>
<path style="fill-rule:evenodd;fill:rgb(94.901961%,94.901961%,94.901961%);fill-opacity:1;stroke-width:5.03546;stroke-linecap:butt;stroke-linejoin:miter;stroke:rgb(68.627451%,68.627451%,68.627451%);stroke-opacity:1;stroke-miterlimit:4;" d="M 97.034801 1029.812464 L 433.948864 1028.658344 L 435.102983 664.755646 L 347.034801 575.533344 L 97.034801 575.533344 Z M 97.034801 1029.812464 " transform="matrix(0.044,0,0,0.044,0,-24.303936)"/>
<path style="fill-rule:evenodd;fill:rgb(68.627451%,68.627451%,68.627451%);fill-opacity:1;stroke-width:5.03546;stroke-linecap:butt;stroke-linejoin:miter;stroke:rgb(68.627451%,68.627451%,68.627451%);stroke-opacity:1;stroke-miterlimit:4;" d="M 431.551847 662.891299 L 349.34304 662.358629 L 350.142045 578.55181 Z M 431.551847 662.891299 " transform="matrix(0.044,0,0,0.044,0,-24.303936)"/>
<path style=" stroke:none;fill-rule:nonzero;fill:rgb(30.196078%,30.196078%,30.196078%);fill-opacity:1;" d="M 2.777344 3.070312 L 11.609375 3.070312 L 11.609375 6.785156 L 2.777344 6.785156 Z M 2.777344 3.070312 "/>
<path style=" stroke:none;fill-rule:nonzero;fill:rgb(40%,40%,40%);fill-opacity:1;" d="M 5.101562 14.460938 L 18.183594 14.460938 L 18.183594 14.996094 L 5.101562 14.996094 Z M 5.101562 14.460938 "/>
<path style=" stroke:none;fill-rule:nonzero;fill:rgb(40%,40%,40%);fill-opacity:1;" d="M 5.152344 16.773438 L 18.253906 16.773438 L 18.253906 17.308594 L 5.152344 17.308594 Z M 5.152344 16.773438 "/>
<path style=" stroke:none;fill-rule:nonzero;fill:rgb(40%,40%,40%);fill-opacity:1;" d="M 5.152344 19.160156 L 14.121094 19.160156 L 14.121094 19.695312 L 5.152344 19.695312 Z M 5.152344 19.160156 "/>
<path style=" stroke:none;fill-rule:nonzero;fill:rgb(40%,40%,40%);fill-opacity:1;" d="M 5.015625 9.855469 L 18.097656 9.855469 L 18.097656 10.390625 L 5.015625 10.390625 Z M 5.015625 9.855469 "/>
<path style=" stroke:none;fill-rule:nonzero;fill:rgb(40%,40%,40%);fill-opacity:1;" d="M 5.066406 12.171875 L 18.167969 12.171875 L 18.167969 12.707031 L 5.066406 12.707031 Z M 5.066406 12.171875 "/>
<path style="fill:none;stroke-width:9;stroke-linecap:butt;stroke-linejoin:miter;stroke:rgb(100%,100%,100%);stroke-opacity:1;stroke-miterlimit:4;" d="M 108.575994 632.262748 L 108.84233 686.772691 L 140.625 687.039026 " transform="matrix(0.044,0,0,0.044,0,-24.303936)"/>
<path style="fill:none;stroke-width:9;stroke-linecap:butt;stroke-linejoin:miter;stroke:rgb(100%,100%,100%);stroke-opacity:1;stroke-miterlimit:4;" d="M 166.548295 686.950248 C 154.56321 686.861469 143.199574 674.787606 143.110795 659.428941 C 143.022017 644.159055 155.095881 631.818856 167.258523 632.173969 C 179.421165 632.529083 189.985795 644.159055 190.252131 660.405504 C 190.429688 676.651952 178.533381 687.039026 166.548295 686.950248 Z M 166.548295 686.950248 " transform="matrix(0.044,0,0,0.044,0,-24.303936)"/>
<path style="fill:none;stroke-width:9;stroke-linecap:butt;stroke-linejoin:miter;stroke:rgb(100%,100%,100%);stroke-opacity:1;stroke-miterlimit:4;" d="M 250.621449 642.20593 C 250.621449 642.20593 243.430398 634.570987 227.894176 634.659765 C 212.446733 634.748543 204.367898 650.5511 204.634233 662.891299 C 204.900568 675.320276 215.553977 688.370702 227.805398 689.702379 C 240.056818 690.945276 249.200994 684.464452 249.200994 684.464452 L 248.579545 664.400532 L 231.889205 664.578089 " transform="matrix(0.044,0,0,0.044,0,-24.303936)"/>
</g>
</svg>
