<?xml version="1.0" encoding="UTF-8"?>
<svg xmlns="http://www.w3.org/2000/svg" xmlns:xlink="http://www.w3.org/1999/xlink" width="22" height="22" viewBox="0 0 22 22" version="1.1">
<g id="surface1">
<path style=" stroke:none;fill-rule:evenodd;fill:rgb(10.196078%,10.196078%,10.196078%);fill-opacity:1;" d="M 2.78125 6.796875 L 5.121094 9.085938 L 5.046875 5.875 L 2.777344 5.863281 Z M 2.78125 6.796875 "/>
<path style="fill-rule:evenodd;fill:rgb(94.901961%,94.901961%,94.901961%);fill-opacity:1;stroke-width:5.03546;stroke-linecap:butt;stroke-linejoin:miter;stroke:rgb(68.627451%,68.627451%,68.627451%);stroke-opacity:1;stroke-miterlimit:4;" d="M 96.946023 1029.812464 L 433.771307 1028.658344 L 434.925426 664.755646 L 346.946023 575.533344 L 96.946023 575.533344 Z M 96.946023 1029.812464 " transform="matrix(0.044,0,0,0.044,0,-24.303936)"/>
<path style="fill-rule:evenodd;fill:rgb(68.627451%,68.627451%,68.627451%);fill-opacity:1;stroke-width:5.03546;stroke-linecap:butt;stroke-linejoin:miter;stroke:rgb(68.627451%,68.627451%,68.627451%);stroke-opacity:1;stroke-miterlimit:4;" d="M 431.37429 662.891299 L 349.254261 662.358629 L 349.964489 578.55181 Z M 431.37429 662.891299 " transform="matrix(0.044,0,0,0.044,0,-24.303936)"/>
<path style=" stroke:none;fill-rule:nonzero;fill:rgb(22.352941%,25.098039%,31.372549%);fill-opacity:1;" d="M 2.773438 3.070312 L 14.730469 3.070312 L 14.730469 6.785156 L 2.773438 6.785156 Z M 2.773438 3.070312 "/>
<path style="fill-rule:nonzero;fill:rgb(98.039216%,92.54902%,42.745098%);fill-opacity:1;stroke-width:13.157895;stroke-linecap:butt;stroke-linejoin:miter;stroke:rgb(22.352941%,25.098039%,31.372549%);stroke-opacity:1;stroke-miterlimit:4;" d="M 380.237926 902.326668 C 380.237926 967.756356 327.237216 1020.757066 261.807528 1020.757066 C 196.466619 1020.757066 143.377131 967.756356 143.377131 902.415447 C 143.377131 836.985759 196.377841 783.985049 261.807528 783.985049 C 327.148438 783.896271 380.237926 836.896981 380.237926 902.326668 " transform="matrix(0.044,0,0,0.044,0,-24.303936)"/>
<path style=" stroke:none;fill-rule:nonzero;fill:rgb(22.352941%,25.098039%,31.372549%);fill-opacity:1;" d="M 10.003906 14.640625 L 12.4375 14.632812 L 12.453125 17.878906 C 12.453125 17.878906 12.449219 17.960938 12.511719 18.03125 C 12.574219 18.097656 12.636719 18.101562 12.636719 18.101562 L 13.179688 18.105469 L 13.183594 18.5 L 10.09375 18.492188 L 10.089844 18.089844 L 10.71875 18.09375 C 10.71875 18.09375 10.808594 18.082031 10.859375 18.011719 C 10.90625 17.9375 10.894531 17.859375 10.894531 17.859375 L 10.894531 15.238281 C 10.894531 15.238281 10.902344 15.171875 10.8125 15.09375 C 10.722656 15.019531 10.636719 15.027344 10.636719 15.027344 L 10.007812 15.019531 Z M 10.003906 14.640625 "/>
<path style=" stroke:none;fill-rule:nonzero;fill:rgb(22.352941%,25.098039%,31.372549%);fill-opacity:1;" d="M 12.460938 13.289062 C 12.460938 13.785156 12.066406 14.1875 11.578125 14.1875 C 11.089844 14.1875 10.695312 13.785156 10.691406 13.289062 C 10.691406 12.792969 11.085938 12.386719 11.574219 12.386719 C 12.0625 12.386719 12.457031 12.785156 12.460938 13.285156 "/>
<path style="fill:none;stroke-width:9.063828;stroke-linecap:butt;stroke-linejoin:miter;stroke:rgb(100%,100%,100%);stroke-opacity:1;stroke-miterlimit:4;" d="M 384.462243 735.954981 L 384.462243 679.47682 C 384.462243 679.47682 415.268512 673.504176 415.163729 693.832123 C 415.058946 714.055286 385.090942 708.501775 385.090942 708.501775 " transform="matrix(0.0372793,0,0,0.0372793,-11.016094,-21.443731)"/>
<path style="fill:none;stroke-width:9;stroke-linecap:butt;stroke-linejoin:miter;stroke:rgb(100%,100%,100%);stroke-opacity:1;stroke-miterlimit:4;" d="M 392.425768 710.492656 L 418.412009 734.907148 " transform="matrix(0.0372793,0,0,0.0372793,-11.016094,-21.443731)"/>
<path style="fill:none;stroke-width:9;stroke-linecap:butt;stroke-linejoin:miter;stroke:rgb(100%,100%,100%);stroke-opacity:1;stroke-miterlimit:4;" d="M 380.19256 670.746344 L 346.242794 670.327211 L 346.661927 618.564296 L 381.030826 618.773862 " transform="matrix(0.0372793,0,0,0.0372793,-7.829579,-19.212015)"/>
<path style="fill:none;stroke-width:9;stroke-linecap:butt;stroke-linejoin:miter;stroke:rgb(100%,100%,100%);stroke-opacity:1;stroke-miterlimit:4;" d="M 348.967158 642.350089 L 378.096896 642.559655 " transform="matrix(0.0372793,0,0,0.0372793,-7.829579,-19.212015)"/>
<path style="fill:none;stroke-width:9;stroke-linecap:butt;stroke-linejoin:bevel;stroke:rgb(100%,100%,100%);stroke-opacity:1;stroke-miterlimit:4;" d="M 915.713023 696.290927 L 937.874705 638.025473 L 960.556614 696.290927 " transform="matrix(0.0375437,0,0,0.0375437,-27.734712,-20.227266)"/>
<path style="fill:none;stroke-width:9;stroke-linecap:butt;stroke-linejoin:miter;stroke:rgb(100%,100%,100%);stroke-opacity:1;stroke-miterlimit:4;" d="M 924.556887 676.730382 L 950.360159 676.730382 " transform="matrix(0.0375437,0,0,0.0375437,-27.734712,-20.227266)"/>
<path style="fill:none;stroke-width:7.625316;stroke-linecap:butt;stroke-linejoin:miter;stroke:rgb(100%,100%,100%);stroke-opacity:1;stroke-miterlimit:4;" d="M 200.284091 683.931782 L 200.727983 639.720134 C 200.727983 639.720134 234.552557 634.837322 234.90767 662.26985 C 235.351563 689.6136 200.284091 683.931782 200.284091 683.931782 Z M 200.284091 683.931782 " transform="matrix(0.044,0,0,0.044,0,-24.303936)"/>
<path style="fill:none;stroke-width:7.625316;stroke-linecap:butt;stroke-linejoin:miter;stroke:rgb(100%,100%,100%);stroke-opacity:1;stroke-miterlimit:4;" d="M 245.738636 687.749254 L 246.004972 641.495702 L 250.266335 641.318146 L 263.671875 676.296839 L 266.512784 676.296839 L 280.007102 641.318146 L 284.446023 641.229367 L 284.446023 687.838032 " transform="matrix(0.044,0,0,0.044,0,-24.303936)"/>
<path style="fill:none;stroke-width:9;stroke-linecap:butt;stroke-linejoin:miter;stroke:rgb(100%,100%,100%);stroke-opacity:1;stroke-miterlimit:4;" d="M 380.202749 670.746344 L 346.252983 670.327211 L 346.672116 618.564296 L 381.041015 618.773862 " transform="matrix(0.0372793,0,0,0.0372793,0.189572,-19.212015)"/>
<path style="fill:none;stroke-width:9;stroke-linecap:butt;stroke-linejoin:miter;stroke:rgb(100%,100%,100%);stroke-opacity:1;stroke-miterlimit:4;" d="M 348.977347 642.350089 L 378.107084 642.559655 " transform="matrix(0.0372793,0,0,0.0372793,0.189572,-19.212015)"/>
</g>
</svg>
