<?xml version="1.0" encoding="UTF-8"?>
<svg xmlns="http://www.w3.org/2000/svg" xmlns:xlink="http://www.w3.org/1999/xlink" width="22" height="22" viewBox="0 0 22 22" version="1.1">
<g id="surface1">
<path style=" stroke:none;fill-rule:evenodd;fill:rgb(9.803922%,7.843137%,23.529412%);fill-opacity:1;" d="M 2.773438 6.769531 L 5.117188 9.0625 L 5.042969 5.847656 L 2.773438 5.835938 Z M 2.773438 6.769531 "/>
<path style="fill-rule:evenodd;fill:rgb(94.901961%,94.901961%,94.901961%);fill-opacity:1;stroke-width:5.03546;stroke-linecap:butt;stroke-linejoin:miter;stroke:rgb(68.627451%,68.627451%,68.627451%);stroke-opacity:1;stroke-miterlimit:4;" d="M 97.034801 1029.812464 L 433.948864 1028.658344 L 435.102983 664.755646 L 347.034801 575.533344 L 97.034801 575.533344 Z M 97.034801 1029.812464 " transform="matrix(0.044,0,0,0.044,0,-24.303936)"/>
<path style="fill-rule:evenodd;fill:rgb(68.627451%,68.627451%,68.627451%);fill-opacity:1;stroke-width:5.03546;stroke-linecap:butt;stroke-linejoin:miter;stroke:rgb(68.627451%,68.627451%,68.627451%);stroke-opacity:1;stroke-miterlimit:4;" d="M 431.551847 662.891299 L 349.34304 662.358629 L 350.142045 578.55181 Z M 431.551847 662.891299 " transform="matrix(0.044,0,0,0.044,0,-24.303936)"/>
<path style=" stroke:none;fill-rule:nonzero;fill:rgb(17.647059%,8.627451%,31.372549%);fill-opacity:1;" d="M 2.777344 3.070312 L 12.675781 3.070312 L 12.675781 6.785156 L 2.777344 6.785156 Z M 2.777344 3.070312 "/>
<path style="fill-rule:nonzero;fill:rgb(17.647059%,8.627451%,31.372549%);fill-opacity:1;stroke-width:0.833333;stroke-linecap:butt;stroke-linejoin:miter;stroke:rgb(0%,0%,0%);stroke-opacity:1;stroke-miterlimit:4;" d="M 266.512784 1020.401952 C 163.884943 1018.004935 144.087358 993.679651 144.087358 993.679651 L 144.087358 805.735759 C 144.087358 805.735759 163.085938 782.209481 254.350142 778.569566 C 345.614347 774.840873 382.546165 805.203089 382.546165 805.203089 L 382.546165 988.796839 C 382.546165 988.796839 369.051847 1022.798969 266.512784 1020.401952 Z M 266.512784 1020.401952 " transform="matrix(0.044,0,0,0.044,0,-24.303936)"/>
<path style=" stroke:none;fill-rule:nonzero;fill:rgb(100%,100%,100%);fill-opacity:1;" d="M 11.660156 9.824219 C 8.625 9.824219 6.160156 10.496094 6.160156 11.324219 L 6.160156 19.324219 C 6.160156 20.152344 8.625 20.824219 11.660156 20.824219 C 14.699219 20.824219 17.160156 20.152344 17.160156 19.324219 L 17.160156 11.324219 C 17.160156 10.496094 14.699219 9.824219 11.660156 9.824219 Z M 11.660156 10.324219 C 14.421875 10.324219 16.660156 10.769531 16.660156 11.324219 C 16.660156 11.875 14.421875 12.324219 11.660156 12.324219 C 8.898438 12.324219 6.660156 11.875 6.660156 11.324219 C 6.660156 10.769531 8.898438 10.324219 11.660156 10.324219 Z M 6.660156 11.945312 C 7.554688 12.480469 9.507812 12.824219 11.660156 12.824219 C 13.816406 12.824219 15.769531 12.480469 16.660156 11.945312 L 16.660156 13.824219 C 16.660156 14.375 14.421875 14.824219 11.660156 14.824219 C 8.898438 14.824219 6.660156 14.375 6.660156 13.824219 Z M 6.660156 14.445312 C 7.554688 14.980469 9.507812 15.324219 11.660156 15.324219 C 13.816406 15.324219 15.769531 14.980469 16.660156 14.445312 L 16.660156 16.824219 C 16.660156 17.375 14.421875 17.824219 11.660156 17.824219 C 8.898438 17.824219 6.660156 17.375 6.660156 16.824219 Z M 6.660156 17.445312 C 7.554688 17.980469 9.507812 18.324219 11.660156 18.324219 C 13.816406 18.324219 15.769531 17.980469 16.660156 17.445312 L 16.660156 19.324219 C 16.660156 19.875 14.421875 20.324219 11.660156 20.324219 C 8.898438 20.324219 6.660156 19.875 6.660156 19.324219 Z M 6.660156 17.445312 "/>
<path style="fill:none;stroke-width:10;stroke-linecap:butt;stroke-linejoin:miter;stroke:rgb(100%,100%,100%);stroke-opacity:1;stroke-miterlimit:4;" d="M 162.286932 639.720134 C 162.286932 639.720134 152.965199 635.458771 144.176136 635.369992 C 135.387074 635.281214 129.971591 640.607918 129.616477 648.154083 C 129.350142 655.789026 133.522727 661.825958 148.703835 663.601526 C 163.884943 665.377094 162.997159 678.605077 161.132813 683.310333 C 159.268466 687.92681 150.390625 692.365731 141.424006 691.122833 C 132.457386 689.968714 125 685.884907 125 685.884907 " transform="matrix(0.044,0,0,0.044,0,-24.303936)"/>
<path style="fill:none;stroke-width:9;stroke-linecap:butt;stroke-linejoin:miter;stroke:rgb(100%,100%,100%);stroke-opacity:1;stroke-miterlimit:4;" d="M 232.225075 651.43439 C 220.151211 651.345612 208.876353 639.271748 208.787575 623.913083 C 208.698797 608.643197 220.77266 596.391776 232.935302 596.658112 C 245.097944 597.013225 255.662575 608.643197 255.840132 624.889646 C 256.106467 641.136094 244.21016 651.523168 232.225075 651.43439 Z M 232.225075 651.43439 " transform="matrix(0.044,0,0,0.044,-1.549935,-22.549832)"/>
<path style="fill:none;stroke-width:9;stroke-linecap:butt;stroke-linejoin:miter;stroke:rgb(100%,100%,100%);stroke-opacity:1;stroke-miterlimit:4;" d="M 240.392689 633.678708 C 240.392689 633.678708 243.943825 643.266776 248.027632 646.817913 C 252.02266 650.369049 263.652632 653.387515 263.652632 653.387515 " transform="matrix(0.044,0,0,0.044,-1.549935,-22.549832)"/>
<path style="fill:none;stroke-width:9;stroke-linecap:butt;stroke-linejoin:miter;stroke:rgb(100%,100%,100%);stroke-opacity:1;stroke-miterlimit:4;" d="M 240.323153 633.416867 L 240.589489 687.92681 L 272.372159 688.193146 " transform="matrix(0.044,0,0,0.044,0,-24.303936)"/>
</g>
</svg>
