<?xml version="1.0" encoding="UTF-8"?>
<svg xmlns="http://www.w3.org/2000/svg" xmlns:xlink="http://www.w3.org/1999/xlink" width="22" height="22" viewBox="0 0 22 22" version="1.1">
<g id="surface1">
<path style=" stroke:none;fill-rule:evenodd;fill:rgb(78.431373%,6.666667%,0%);fill-opacity:1;" d="M 2.773438 6.769531 L 5.117188 9.0625 L 5.042969 5.847656 L 2.773438 5.835938 Z M 2.773438 6.769531 "/>
<path style="fill-rule:evenodd;fill:rgb(94.901961%,94.901961%,94.901961%);fill-opacity:1;stroke-width:5.03546;stroke-linecap:butt;stroke-linejoin:miter;stroke:rgb(68.627451%,68.627451%,68.627451%);stroke-opacity:1;stroke-miterlimit:4;" d="M 97.034801 1029.812464 L 433.948864 1028.658344 L 435.102983 664.755646 L 347.034801 575.533344 L 97.034801 575.533344 Z M 97.034801 1029.812464 " transform="matrix(0.044,0,0,0.044,0,-24.303936)"/>
<path style="fill-rule:evenodd;fill:rgb(68.627451%,68.627451%,68.627451%);fill-opacity:1;stroke-width:5.03546;stroke-linecap:butt;stroke-linejoin:miter;stroke:rgb(68.627451%,68.627451%,68.627451%);stroke-opacity:1;stroke-miterlimit:4;" d="M 431.551847 662.891299 L 349.34304 662.358629 L 350.142045 578.55181 Z M 431.551847 662.891299 " transform="matrix(0.044,0,0,0.044,0,-24.303936)"/>
<path style=" stroke:none;fill-rule:nonzero;fill:rgb(94.117647%,22.352941%,8.627451%);fill-opacity:1;" d="M 2.777344 3.070312 L 12.675781 3.070312 L 12.675781 6.785156 L 2.777344 6.785156 Z M 2.777344 3.070312 "/>
<path style=" stroke:none;fill-rule:evenodd;fill:rgb(100%,40%,0%);fill-opacity:1;" d="M 8.996094 9.925781 L 11.992188 15.421875 L 8.996094 20.917969 L 10.492188 20.917969 L 12.742188 16.796875 L 14.992188 20.917969 L 16.488281 20.917969 L 14.089844 16.519531 L 13.765625 15.921875 L 13.492188 15.421875 L 10.492188 9.925781 Z M 8.996094 9.925781 "/>
<path style=" stroke:none;fill-rule:evenodd;fill:rgb(100%,80%,0%);fill-opacity:1;" d="M 13.300781 13.289062 L 13.847656 14.289062 L 16.121094 14.289062 L 16.121094 13.289062 Z M 14.390625 15.285156 L 14.9375 16.285156 L 16.121094 16.285156 L 16.121094 15.285156 Z M 14.390625 15.285156 "/>
<path style=" stroke:none;fill-rule:evenodd;fill:rgb(94.117647%,22.352941%,8.627451%);fill-opacity:1;" d="M 6.449219 9.929688 L 9.449219 15.425781 L 6.449219 20.925781 L 7.949219 20.925781 L 10.945312 15.425781 L 7.949219 9.929688 Z M 6.449219 9.929688 "/>
<path style="fill:none;stroke-width:9;stroke-linecap:butt;stroke-linejoin:miter;stroke:rgb(100%,100%,100%);stroke-opacity:1;stroke-miterlimit:4;" d="M 311.192196 528.413074 L 311.458531 582.923017 " transform="matrix(0.044,0,0,0.044,-8.161207,-19.629081)"/>
<path style="fill:none;stroke-width:9;stroke-linecap:butt;stroke-linejoin:miter;stroke:rgb(100%,100%,100%);stroke-opacity:1;stroke-miterlimit:4;" d="M 346.259668 527.969181 L 346.526003 582.479125 " transform="matrix(0.044,0,0,0.044,-8.161207,-19.629081)"/>
<path style="fill:none;stroke-width:9;stroke-linecap:butt;stroke-linejoin:miter;stroke:rgb(100%,100%,100%);stroke-opacity:1;stroke-miterlimit:4;" d="M 310.925861 555.046596 L 347.502565 555.046596 " transform="matrix(0.044,0,0,0.044,-8.161207,-19.629081)"/>
<path style="fill:none;stroke-width:10;stroke-linecap:butt;stroke-linejoin:miter;stroke:rgb(100%,100%,100%);stroke-opacity:1;stroke-miterlimit:4;" d="M 215.198864 638.033344 C 215.198864 638.033344 205.877131 633.771981 197.088068 633.683202 C 188.299006 633.594424 182.883523 638.921129 182.528409 646.556072 C 182.262074 654.102237 186.434659 660.139168 201.615767 662.003515 C 216.796875 663.779083 215.909091 677.007066 214.044744 681.623543 C 212.180398 686.328799 203.302557 690.678941 194.335938 689.524822 C 185.369318 688.281924 177.911932 684.286896 177.911932 684.286896 " transform="matrix(0.044,0,0,0.044,0,-24.303936)"/>
</g>
</svg>
