<?xml version="1.0" encoding="UTF-8"?>
<svg xmlns="http://www.w3.org/2000/svg" xmlns:xlink="http://www.w3.org/1999/xlink" width="22" height="22" viewBox="0 0 22 22" version="1.1">
<g id="surface1">
<path style=" stroke:none;fill-rule:evenodd;fill:rgb(84.705882%,14.901961%,0%);fill-opacity:1;" d="M 2.816406 6.550781 L 5.160156 8.839844 L 5.085938 5.628906 L 2.816406 5.617188 Z M 2.816406 6.550781 "/>
<path style="fill-rule:evenodd;fill:rgb(94.901961%,94.901961%,94.901961%);fill-opacity:1;stroke-width:5.03546;stroke-linecap:butt;stroke-linejoin:miter;stroke:rgb(68.627451%,68.627451%,68.627451%);stroke-opacity:1;stroke-miterlimit:4;" d="M 98.011364 1024.840873 L 434.925426 1023.686754 L 436.079545 659.784055 L 348.100142 570.561754 L 98.011364 570.561754 Z M 98.011364 1024.840873 " transform="matrix(0.044,0,0,0.044,0,-24.303936)"/>
<path style="fill-rule:evenodd;fill:rgb(68.627451%,68.627451%,68.627451%);fill-opacity:1;stroke-width:5.03546;stroke-linecap:butt;stroke-linejoin:miter;stroke:rgb(68.627451%,68.627451%,68.627451%);stroke-opacity:1;stroke-miterlimit:4;" d="M 432.528409 657.919708 L 350.319602 657.298259 L 351.118608 573.580219 Z M 432.528409 657.919708 " transform="matrix(0.044,0,0,0.044,0,-24.303936)"/>
<path style=" stroke:none;fill-rule:nonzero;fill:rgb(94.117647%,22.352941%,8.627451%);fill-opacity:1;" d="M 2.820312 2.851562 L 12.71875 2.851562 L 12.71875 6.5625 L 2.820312 6.5625 Z M 2.820312 2.851562 "/>
<path style=" stroke:none;fill-rule:nonzero;fill:rgb(94.117647%,22.352941%,8.627451%);fill-opacity:1;" d="M 11.703125 9.660156 C 14.738281 9.660156 17.203125 12.125 17.203125 15.160156 C 17.203125 18.199219 14.738281 20.660156 11.703125 20.660156 C 8.664062 20.660156 6.203125 18.199219 6.203125 15.160156 C 6.203125 12.125 8.664062 9.660156 11.703125 9.660156 Z M 11.703125 9.660156 "/>
<path style=" stroke:none;fill-rule:nonzero;fill:rgb(100%,100%,100%);fill-opacity:1;" d="M 13.679688 12.6875 L 13.679688 13.683594 C 12.6875 13.703125 12.441406 14.671875 12.441406 14.671875 L 13.191406 14.671875 L 13.191406 15.667969 L 12.03125 15.667969 C 11.332031 17.824219 9.722656 17.632812 9.722656 17.632812 L 9.722656 16.636719 C 9.722656 16.636719 10.742188 16.828125 11.261719 14.925781 C 11.914062 12.546875 13.679688 12.6875 13.679688 12.6875 Z M 13.679688 12.6875 "/>
<path style="fill:none;stroke-width:9;stroke-linecap:butt;stroke-linejoin:miter;stroke:rgb(100%,100%,100%);stroke-opacity:1;stroke-miterlimit:4;" d="M 233.42005 692.515289 L 233.775163 640.757477 L 268.221186 640.935034 " transform="matrix(0.044,0,0,0.044,-4.645482,-24.568329)"/>
<path style="fill:none;stroke-width:9;stroke-linecap:butt;stroke-linejoin:miter;stroke:rgb(100%,100%,100%);stroke-opacity:1;stroke-miterlimit:4;" d="M 236.17218 664.550091 L 265.291499 664.727647 " transform="matrix(0.044,0,0,0.044,-4.645482,-24.568329)"/>
<path style="fill:none;stroke-width:9;stroke-linecap:butt;stroke-linejoin:miter;stroke:rgb(100%,100%,100%);stroke-opacity:1;stroke-miterlimit:4;" d="M 176.580256 629.599396 L 176.846591 684.109339 L 208.629261 684.375674 " transform="matrix(0.044,0,0,0.044,0,-24.303936)"/>
<path style="fill:none;stroke-width:9;stroke-linecap:butt;stroke-linejoin:bevel;stroke:rgb(100%,100%,100%);stroke-opacity:1;stroke-miterlimit:4;" d="M 209.25071 630.220844 L 236.150568 686.595134 L 262.162642 630.48718 " transform="matrix(0.044,0,0,0.044,0,-24.303936)"/>
</g>
</svg>
