<?xml version="1.0" encoding="UTF-8"?>
<svg xmlns="http://www.w3.org/2000/svg" xmlns:xlink="http://www.w3.org/1999/xlink" width="22" height="22" viewBox="0 0 22 22" version="1.1">
<g id="surface1">
<path style=" stroke:none;fill-rule:evenodd;fill:rgb(0%,11.372549%,39.215686%);fill-opacity:1;" d="M 2.773438 6.769531 L 5.117188 9.0625 L 5.042969 5.847656 L 2.773438 5.835938 Z M 2.773438 6.769531 "/>
<path style="fill-rule:evenodd;fill:rgb(94.901961%,94.901961%,94.901961%);fill-opacity:1;stroke-width:5.03546;stroke-linecap:butt;stroke-linejoin:miter;stroke:rgb(68.627451%,68.627451%,68.627451%);stroke-opacity:1;stroke-miterlimit:4;" d="M 97.034801 1029.812464 L 433.948864 1028.658344 L 435.102983 664.755646 L 347.034801 575.533344 L 97.034801 575.533344 Z M 97.034801 1029.812464 " transform="matrix(0.044,0,0,0.044,0,-24.303936)"/>
<path style="fill-rule:evenodd;fill:rgb(68.627451%,68.627451%,68.627451%);fill-opacity:1;stroke-width:5.03546;stroke-linecap:butt;stroke-linejoin:miter;stroke:rgb(68.627451%,68.627451%,68.627451%);stroke-opacity:1;stroke-miterlimit:4;" d="M 431.551847 662.891299 L 349.34304 662.358629 L 350.142045 578.55181 Z M 431.551847 662.891299 " transform="matrix(0.044,0,0,0.044,0,-24.303936)"/>
<path style=" stroke:none;fill-rule:nonzero;fill:rgb(0%,30.196078%,54.509804%);fill-opacity:1;" d="M 2.777344 3.070312 L 11.714844 3.070312 L 11.714844 6.785156 L 2.777344 6.785156 Z M 2.777344 3.070312 "/>
<path style=" stroke:none;fill-rule:nonzero;fill:rgb(0%,30.196078%,54.509804%);fill-opacity:1;" d="M 6.445312 10.609375 L 6.445312 20.894531 L 16.730469 20.894531 L 16.730469 10.609375 Z M 7.214844 11.382812 L 7.988281 11.382812 L 7.988281 12.152344 L 7.214844 12.152344 Z M 15.1875 11.382812 L 15.957031 11.382812 L 15.957031 12.152344 L 15.1875 12.152344 Z M 7.214844 13.308594 L 7.988281 13.308594 L 7.988281 14.082031 L 7.214844 14.082031 Z M 15.1875 13.308594 L 15.957031 13.308594 L 15.957031 14.082031 L 15.1875 14.082031 Z M 7.214844 15.367188 L 7.988281 15.367188 L 7.988281 16.140625 L 7.214844 16.140625 Z M 15.1875 15.367188 L 15.957031 15.367188 L 15.957031 16.140625 L 15.1875 16.140625 Z M 7.214844 17.425781 L 7.988281 17.425781 L 7.988281 18.195312 L 7.214844 18.195312 Z M 15.1875 17.425781 L 15.957031 17.425781 L 15.957031 18.195312 L 15.1875 18.195312 Z M 7.214844 19.351562 L 7.988281 19.351562 L 7.988281 20.125 L 7.214844 20.125 Z M 15.1875 19.351562 L 15.957031 19.351562 L 15.957031 20.125 L 15.1875 20.125 Z M 15.1875 19.351562 "/>
<path style=" stroke:none;fill-rule:nonzero;fill:rgb(40.784314%,91.764706%,100%);fill-opacity:1;" d="M 8.785156 11.402344 L 14.441406 11.402344 L 14.441406 15.386719 L 8.785156 15.386719 Z M 8.785156 11.402344 "/>
<path style=" stroke:none;fill-rule:nonzero;fill:rgb(40.784314%,91.764706%,100%);fill-opacity:1;" d="M 8.757812 16.140625 L 14.414062 16.140625 L 14.414062 20.125 L 8.757812 20.125 Z M 8.757812 16.140625 "/>
<path style=" stroke:none;fill-rule:evenodd;fill:rgb(94.117647%,22.352941%,8.627451%);fill-opacity:0.941176;" d="M 10.882812 20.136719 C 10.882812 20.136719 11.007812 18.785156 12.035156 17.898438 C 13.058594 17.007812 14.429688 17.308594 14.429688 17.308594 L 14.417969 20.148438 Z M 10.882812 20.136719 "/>
<path style=" stroke:none;fill-rule:evenodd;fill:rgb(94.117647%,22.352941%,8.627451%);fill-opacity:0.941176;" d="M 10.082031 11.386719 C 10.082031 11.386719 10.066406 11.785156 10.398438 12.1875 C 10.730469 12.59375 11.09375 12.660156 11.09375 12.660156 L 11.082031 13.550781 L 11.476562 13.550781 L 11.488281 12.660156 C 11.488281 12.660156 11.800781 12.628906 12.160156 12.253906 C 12.519531 11.878906 12.488281 11.375 12.488281 11.375 Z M 10.082031 11.386719 "/>
<path style=" stroke:none;fill-rule:nonzero;fill:rgb(83.137255%,33.333333%,0%);fill-opacity:0.941176;" d="M 11.070312 13.671875 L 11.476562 13.671875 L 11.476562 13.980469 L 11.070312 13.980469 Z M 11.070312 13.671875 "/>
</g>
</svg>
