<?xml version="1.0" encoding="UTF-8"?>
<svg xmlns="http://www.w3.org/2000/svg" xmlns:xlink="http://www.w3.org/1999/xlink" width="22" height="22" viewBox="0 0 22 22" version="1.1">
<g id="surface1">
<path style=" stroke:none;fill-rule:evenodd;fill:rgb(10.588235%,14.901961%,19.215686%);fill-opacity:1;" d="M 2.773438 6.769531 L 5.117188 9.0625 L 5.042969 5.847656 L 2.773438 5.835938 Z M 2.773438 6.769531 "/>
<path style="fill-rule:evenodd;fill:rgb(94.901961%,94.901961%,94.901961%);fill-opacity:1;stroke-width:5.03546;stroke-linecap:butt;stroke-linejoin:miter;stroke:rgb(68.627451%,68.627451%,68.627451%);stroke-opacity:1;stroke-miterlimit:4;" d="M 97.034801 1029.812464 L 433.948864 1028.658344 L 435.102983 664.755646 L 347.034801 575.533344 L 97.034801 575.533344 Z M 97.034801 1029.812464 " transform="matrix(0.044,0,0,0.044,0,-24.303936)"/>
<path style="fill-rule:evenodd;fill:rgb(68.627451%,68.627451%,68.627451%);fill-opacity:1;stroke-width:5.03546;stroke-linecap:butt;stroke-linejoin:miter;stroke:rgb(68.627451%,68.627451%,68.627451%);stroke-opacity:1;stroke-miterlimit:4;" d="M 431.551847 662.891299 L 349.34304 662.358629 L 350.142045 578.55181 Z M 431.551847 662.891299 " transform="matrix(0.044,0,0,0.044,0,-24.303936)"/>
<path style=" stroke:none;fill-rule:nonzero;fill:rgb(22.352941%,25.098039%,31.372549%);fill-opacity:1;" d="M 2.777344 3.070312 L 12.675781 3.070312 L 12.675781 6.785156 L 2.777344 6.785156 Z M 2.777344 3.070312 "/>
<path style="fill-rule:nonzero;fill:rgb(98.039216%,92.54902%,42.745098%);fill-opacity:1;stroke-width:15.218686;stroke-linecap:butt;stroke-linejoin:miter;stroke:rgb(22.352941%,25.098039%,31.372549%);stroke-opacity:1;stroke-miterlimit:4;" d="M 760.626242 336.438002 L 909.689045 336.460975 C 916.222543 336.479219 921.545898 341.314627 921.505279 347.220764 L 921.562856 498.542064 C 921.522237 504.448202 916.22754 509.222595 909.633543 509.269325 L 760.635714 509.30685 C 754.102216 509.288606 748.778861 504.453199 748.694008 498.551536 L 748.761903 347.225761 C 748.737548 341.259125 754.032246 336.484731 760.626242 336.438002 Z M 760.626242 336.438002 " transform="matrix(0.0299839,0.0322018,-0.0322018,0.0299839,0,-24.303936)"/>
<path style=" stroke:none;fill-rule:nonzero;fill:rgb(22.352941%,25.098039%,31.372549%);fill-opacity:1;" d="M 11.285156 13.464844 C 10.917969 13.515625 10.714844 13.914062 10.714844 13.914062 L 10.292969 14.5 L 9.648438 14.851562 C 9.648438 14.851562 9.488281 14.921875 9.539062 15.066406 C 9.59375 15.210938 9.71875 15.175781 9.71875 15.175781 L 10.46875 14.871094 L 10.859375 14.484375 L 11.214844 15.609375 L 10.527344 16.40625 L 10.527344 18.054688 C 10.527344 18.054688 10.558594 18.242188 10.734375 18.242188 C 10.910156 18.238281 10.96875 18.09375 10.96875 18.09375 L 11.046875 16.652344 L 11.585938 16.214844 L 11.738281 16.214844 L 11.929688 16.796875 L 12.597656 18.0625 C 12.597656 18.0625 12.734375 18.214844 12.902344 18.121094 C 13.066406 18.027344 13.039062 17.855469 13.039062 17.855469 L 12.410156 16.652344 L 12.359375 15.414062 L 12.101562 14.230469 L 12.429688 14.328125 L 12.65625 15.058594 C 12.65625 15.058594 12.726562 15.246094 12.878906 15.199219 C 13.035156 15.152344 13 14.96875 13 14.96875 L 12.765625 14.050781 L 11.90625 13.558594 C 11.90625 13.558594 11.652344 13.414062 11.285156 13.464844 Z M 11.285156 13.464844 "/>
<path style=" stroke:none;fill-rule:nonzero;fill:rgb(22.352941%,25.098039%,31.372549%);fill-opacity:1;" d="M 11.808594 12.808594 C 11.808594 13.089844 11.578125 13.320312 11.289062 13.320312 C 11 13.320312 10.765625 13.089844 10.765625 12.808594 C 10.765625 12.523438 10.996094 12.296875 11.285156 12.292969 C 11.574219 12.292969 11.808594 12.519531 11.808594 12.804688 "/>
</g>
</svg>
