<?xml version="1.0" encoding="UTF-8"?>
<svg xmlns="http://www.w3.org/2000/svg" xmlns:xlink="http://www.w3.org/1999/xlink" width="22" height="22" viewBox="0 0 22 22" version="1.1">
<g id="surface1">
<path style=" stroke:none;fill-rule:evenodd;fill:rgb(15.686275%,9.019608%,4.313725%);fill-opacity:1;" d="M 2.773438 6.769531 L 5.117188 9.0625 L 5.042969 5.847656 L 2.773438 5.835938 Z M 2.773438 6.769531 "/>
<path style="fill-rule:evenodd;fill:rgb(94.901961%,94.901961%,94.901961%);fill-opacity:1;stroke-width:5.03546;stroke-linecap:butt;stroke-linejoin:miter;stroke:rgb(68.627451%,68.627451%,68.627451%);stroke-opacity:1;stroke-miterlimit:4;" d="M 97.034801 1029.812464 L 433.948864 1028.658344 L 435.102983 664.755646 L 347.034801 575.533344 L 97.034801 575.533344 Z M 97.034801 1029.812464 " transform="matrix(0.044,0,0,0.044,0,-24.303936)"/>
<path style="fill-rule:evenodd;fill:rgb(68.627451%,68.627451%,68.627451%);fill-opacity:1;stroke-width:5.03546;stroke-linecap:butt;stroke-linejoin:miter;stroke:rgb(68.627451%,68.627451%,68.627451%);stroke-opacity:1;stroke-miterlimit:4;" d="M 431.551847 662.891299 L 349.34304 662.358629 L 350.142045 578.55181 Z M 431.551847 662.891299 " transform="matrix(0.044,0,0,0.044,0,-24.303936)"/>
<path style=" stroke:none;fill-rule:nonzero;fill:rgb(31.372549%,17.647059%,8.627451%);fill-opacity:1;" d="M 2.777344 3.070312 L 12.054688 3.070312 L 12.054688 6.785156 L 2.777344 6.785156 Z M 2.777344 3.070312 "/>
<path style=" stroke:none;fill-rule:nonzero;fill:rgb(60%,60%,60%);fill-opacity:1;" d="M 16.328125 10.859375 L 16.625 10.859375 C 16.777344 10.859375 16.902344 10.96875 16.902344 11.105469 L 16.902344 12.375 C 16.902344 12.515625 16.777344 12.625 16.625 12.625 L 16.328125 12.625 C 16.175781 12.625 16.054688 12.515625 16.054688 12.375 L 16.054688 11.105469 C 16.054688 10.96875 16.175781 10.859375 16.328125 10.859375 Z M 16.328125 10.859375 "/>
<path style=" stroke:none;fill-rule:nonzero;fill:rgb(60%,60%,60%);fill-opacity:1;" d="M 16.328125 13.023438 L 16.625 13.023438 C 16.777344 13.023438 16.902344 13.136719 16.902344 13.273438 L 16.902344 14.542969 C 16.902344 14.683594 16.777344 14.792969 16.625 14.792969 L 16.328125 14.792969 C 16.175781 14.792969 16.054688 14.683594 16.054688 14.542969 L 16.054688 13.273438 C 16.054688 13.136719 16.175781 13.023438 16.328125 13.023438 Z M 16.328125 13.023438 "/>
<path style=" stroke:none;fill-rule:nonzero;fill:rgb(60%,60%,60%);fill-opacity:1;" d="M 16.328125 15.117188 L 16.625 15.117188 C 16.777344 15.117188 16.902344 15.230469 16.902344 15.367188 L 16.902344 16.636719 C 16.902344 16.773438 16.777344 16.886719 16.625 16.886719 L 16.328125 16.886719 C 16.175781 16.886719 16.054688 16.773438 16.054688 16.636719 L 16.054688 15.367188 C 16.054688 15.230469 16.175781 15.117188 16.328125 15.117188 Z M 16.328125 15.117188 "/>
<path style=" stroke:none;fill-rule:nonzero;fill:rgb(60%,60%,60%);fill-opacity:1;" d="M 16.328125 17.285156 L 16.625 17.285156 C 16.777344 17.285156 16.902344 17.398438 16.902344 17.535156 L 16.902344 18.804688 C 16.902344 18.941406 16.777344 19.054688 16.625 19.054688 L 16.328125 19.054688 C 16.175781 19.054688 16.054688 18.941406 16.054688 18.804688 L 16.054688 17.535156 C 16.054688 17.398438 16.175781 17.285156 16.328125 17.285156 Z M 16.328125 17.285156 "/>
<path style=" stroke:none;fill-rule:nonzero;fill:rgb(31.372549%,17.647059%,8.627451%);fill-opacity:1;" d="M 7.824219 9.78125 L 15.597656 9.78125 C 16.023438 9.78125 16.367188 10.171875 16.367188 10.652344 L 16.367188 19.90625 C 16.367188 20.386719 16.023438 20.777344 15.597656 20.777344 L 7.824219 20.777344 C 7.398438 20.777344 7.054688 20.386719 7.054688 19.90625 L 7.054688 10.652344 C 7.054688 10.171875 7.398438 9.78125 7.824219 9.78125 Z M 7.824219 9.78125 "/>
<path style=" stroke:none;fill-rule:nonzero;fill:rgb(40%,40%,40%);fill-opacity:1;" d="M 9.445312 20.773438 L 7.808594 20.78125 C 7.808594 20.78125 7.542969 20.769531 7.304688 20.550781 C 7.066406 20.328125 7.050781 19.941406 7.050781 19.941406 L 7.058594 10.628906 C 7.058594 10.628906 7.054688 10.296875 7.269531 10.046875 C 7.488281 9.796875 7.863281 9.78125 7.863281 9.78125 L 9.441406 9.78125 Z M 9.445312 20.773438 "/>
<path style=" stroke:none;fill-rule:nonzero;fill:rgb(22.352941%,25.098039%,31.372549%);fill-opacity:1;" d="M 8.648438 11.019531 C 8.648438 11.273438 8.441406 11.480469 8.1875 11.480469 C 7.933594 11.480469 7.726562 11.273438 7.726562 11.019531 C 7.726562 10.765625 7.933594 10.558594 8.1875 10.558594 C 8.441406 10.558594 8.648438 10.765625 8.648438 11.019531 Z M 8.648438 11.019531 "/>
<path style=" stroke:none;fill-rule:nonzero;fill:rgb(80%,80%,80%);fill-opacity:1;" d="M 6.53125 11.308594 L 8.203125 11.308594 C 8.203125 11.308594 8.449219 11.289062 8.445312 11.046875 C 8.4375 10.804688 8.191406 10.773438 8.191406 10.773438 L 6.511719 10.78125 C 6.511719 10.78125 6.296875 10.828125 6.300781 11.054688 C 6.304688 11.28125 6.53125 11.308594 6.53125 11.308594 Z M 6.53125 11.308594 "/>
<path style=" stroke:none;fill-rule:nonzero;fill:rgb(22.352941%,25.098039%,31.372549%);fill-opacity:1;" d="M 8.65625 12.199219 C 8.65625 12.457031 8.453125 12.660156 8.195312 12.660156 C 7.941406 12.660156 7.738281 12.457031 7.738281 12.199219 C 7.738281 11.945312 7.941406 11.742188 8.195312 11.742188 C 8.453125 11.742188 8.65625 11.945312 8.65625 12.199219 Z M 8.65625 12.199219 "/>
<path style=" stroke:none;fill-rule:nonzero;fill:rgb(80%,80%,80%);fill-opacity:1;" d="M 6.542969 12.488281 L 8.214844 12.488281 C 8.214844 12.488281 8.460938 12.46875 8.453125 12.226562 C 8.449219 11.984375 8.199219 11.953125 8.199219 11.953125 L 6.523438 11.964844 C 6.523438 11.964844 6.304688 12.011719 6.308594 12.238281 C 6.316406 12.464844 6.542969 12.488281 6.542969 12.488281 Z M 6.542969 12.488281 "/>
<path style=" stroke:none;fill-rule:nonzero;fill:rgb(22.352941%,25.098039%,31.372549%);fill-opacity:1;" d="M 8.667969 13.371094 C 8.667969 13.625 8.460938 13.832031 8.207031 13.832031 C 7.953125 13.832031 7.746094 13.625 7.746094 13.371094 C 7.746094 13.117188 7.953125 12.910156 8.207031 12.910156 C 8.460938 12.910156 8.667969 13.117188 8.667969 13.371094 Z M 8.667969 13.371094 "/>
<path style=" stroke:none;fill-rule:nonzero;fill:rgb(80%,80%,80%);fill-opacity:1;" d="M 6.550781 13.660156 L 8.222656 13.660156 C 8.222656 13.660156 8.46875 13.640625 8.460938 13.398438 C 8.457031 13.15625 8.210938 13.125 8.210938 13.125 L 6.53125 13.132812 C 6.53125 13.132812 6.3125 13.179688 6.320312 13.40625 C 6.324219 13.632812 6.550781 13.660156 6.550781 13.660156 Z M 6.550781 13.660156 "/>
<path style=" stroke:none;fill-rule:nonzero;fill:rgb(22.352941%,25.098039%,31.372549%);fill-opacity:1;" d="M 8.675781 14.550781 C 8.675781 14.808594 8.472656 15.011719 8.214844 15.011719 C 7.960938 15.011719 7.757812 14.808594 7.757812 14.550781 C 7.757812 14.296875 7.960938 14.089844 8.214844 14.089844 C 8.472656 14.089844 8.675781 14.296875 8.675781 14.550781 Z M 8.675781 14.550781 "/>
<path style=" stroke:none;fill-rule:nonzero;fill:rgb(80%,80%,80%);fill-opacity:1;" d="M 6.5625 14.839844 L 8.234375 14.839844 C 8.234375 14.839844 8.480469 14.820312 8.472656 14.578125 C 8.46875 14.335938 8.21875 14.304688 8.21875 14.304688 L 6.542969 14.316406 C 6.542969 14.316406 6.324219 14.363281 6.328125 14.585938 C 6.335938 14.8125 6.5625 14.839844 6.5625 14.839844 Z M 6.5625 14.839844 "/>
<path style=" stroke:none;fill-rule:nonzero;fill:rgb(22.352941%,25.098039%,31.372549%);fill-opacity:1;" d="M 8.671875 15.730469 C 8.671875 15.984375 8.464844 16.191406 8.210938 16.191406 C 7.957031 16.191406 7.75 15.984375 7.75 15.730469 C 7.75 15.476562 7.957031 15.269531 8.210938 15.269531 C 8.464844 15.269531 8.671875 15.476562 8.671875 15.730469 Z M 8.671875 15.730469 "/>
<path style=" stroke:none;fill-rule:nonzero;fill:rgb(80%,80%,80%);fill-opacity:1;" d="M 6.558594 16.019531 L 8.226562 16.019531 C 8.226562 16.019531 8.472656 15.996094 8.46875 15.757812 C 8.460938 15.515625 8.214844 15.484375 8.214844 15.484375 L 6.539062 15.492188 C 6.539062 15.492188 6.320312 15.539062 6.324219 15.765625 C 6.328125 15.992188 6.558594 16.019531 6.558594 16.019531 Z M 6.558594 16.019531 "/>
<path style=" stroke:none;fill-rule:nonzero;fill:rgb(22.352941%,25.098039%,31.372549%);fill-opacity:1;" d="M 8.683594 16.910156 C 8.683594 17.164062 8.476562 17.371094 8.222656 17.371094 C 7.96875 17.371094 7.761719 17.164062 7.761719 16.910156 C 7.761719 16.65625 7.96875 16.449219 8.222656 16.449219 C 8.476562 16.449219 8.683594 16.65625 8.683594 16.910156 Z M 8.683594 16.910156 "/>
<path style=" stroke:none;fill-rule:nonzero;fill:rgb(80%,80%,80%);fill-opacity:1;" d="M 6.566406 17.199219 L 8.238281 17.199219 C 8.238281 17.199219 8.484375 17.179688 8.480469 16.9375 C 8.472656 16.695312 8.226562 16.664062 8.226562 16.664062 L 6.546875 16.675781 C 6.546875 16.675781 6.332031 16.722656 6.335938 16.945312 C 6.339844 17.171875 6.566406 17.199219 6.566406 17.199219 Z M 6.566406 17.199219 "/>
<path style=" stroke:none;fill-rule:nonzero;fill:rgb(22.352941%,25.098039%,31.372549%);fill-opacity:1;" d="M 8.691406 18.082031 C 8.691406 18.335938 8.484375 18.542969 8.230469 18.542969 C 7.976562 18.542969 7.769531 18.335938 7.769531 18.082031 C 7.769531 17.828125 7.976562 17.621094 8.230469 17.621094 C 8.484375 17.621094 8.691406 17.828125 8.691406 18.082031 Z M 8.691406 18.082031 "/>
<path style=" stroke:none;fill-rule:nonzero;fill:rgb(80%,80%,80%);fill-opacity:1;" d="M 6.578125 18.371094 L 8.246094 18.371094 C 8.246094 18.371094 8.492188 18.351562 8.488281 18.105469 C 8.484375 17.867188 8.234375 17.835938 8.234375 17.835938 L 6.558594 17.84375 C 6.558594 17.84375 6.339844 17.890625 6.34375 18.117188 C 6.347656 18.34375 6.578125 18.371094 6.578125 18.371094 Z M 6.578125 18.371094 "/>
<path style=" stroke:none;fill-rule:nonzero;fill:rgb(22.352941%,25.098039%,31.372549%);fill-opacity:1;" d="M 8.703125 19.261719 C 8.703125 19.515625 8.496094 19.722656 8.242188 19.722656 C 7.988281 19.722656 7.78125 19.515625 7.78125 19.261719 C 7.78125 19.007812 7.988281 18.800781 8.242188 18.800781 C 8.496094 18.800781 8.703125 19.007812 8.703125 19.261719 Z M 8.703125 19.261719 "/>
<path style=" stroke:none;fill-rule:nonzero;fill:rgb(80%,80%,80%);fill-opacity:1;" d="M 6.585938 19.550781 L 8.257812 19.550781 C 8.257812 19.550781 8.503906 19.53125 8.5 19.289062 C 8.492188 19.046875 8.246094 19.015625 8.246094 19.015625 L 6.566406 19.023438 C 6.566406 19.023438 6.351562 19.070312 6.355469 19.296875 C 6.359375 19.523438 6.585938 19.550781 6.585938 19.550781 Z M 6.585938 19.550781 "/>
<path style=" stroke:none;fill-rule:nonzero;fill:rgb(100%,100%,100%);fill-opacity:1;" d="M 10.398438 11.285156 L 15.125 11.285156 C 15.277344 11.285156 15.402344 11.398438 15.402344 11.535156 L 15.402344 13.015625 C 15.402344 13.15625 15.277344 13.265625 15.125 13.265625 L 10.398438 13.265625 C 10.242188 13.265625 10.121094 13.15625 10.121094 13.015625 L 10.121094 11.535156 C 10.121094 11.398438 10.242188 11.285156 10.398438 11.285156 Z M 10.398438 11.285156 "/>
</g>
</svg>
