<?xml version="1.0" encoding="UTF-8"?>
<svg xmlns="http://www.w3.org/2000/svg" xmlns:xlink="http://www.w3.org/1999/xlink" width="22" height="22" viewBox="0 0 22 22" version="1.1">
<g id="surface1">
<path style=" stroke:none;fill-rule:evenodd;fill:rgb(66.666667%,26.666667%,0%);fill-opacity:1;" d="M 2.773438 6.769531 L 5.117188 9.0625 L 5.042969 5.847656 L 2.773438 5.835938 Z M 2.773438 6.769531 "/>
<path style="fill-rule:evenodd;fill:rgb(94.901961%,94.901961%,94.901961%);fill-opacity:1;stroke-width:5.03546;stroke-linecap:butt;stroke-linejoin:miter;stroke:rgb(68.627451%,68.627451%,68.627451%);stroke-opacity:1;stroke-miterlimit:4;" d="M 97.034801 1029.812464 L 433.948864 1028.658344 L 435.102983 664.755646 L 347.034801 575.533344 L 97.034801 575.533344 Z M 97.034801 1029.812464 " transform="matrix(0.044,0,0,0.044,0,-24.303936)"/>
<path style="fill-rule:evenodd;fill:rgb(68.627451%,68.627451%,68.627451%);fill-opacity:1;stroke-width:5.03546;stroke-linecap:butt;stroke-linejoin:miter;stroke:rgb(68.627451%,68.627451%,68.627451%);stroke-opacity:1;stroke-miterlimit:4;" d="M 431.551847 662.891299 L 349.34304 662.358629 L 350.142045 578.55181 Z M 431.551847 662.891299 " transform="matrix(0.044,0,0,0.044,0,-24.303936)"/>
<path style=" stroke:none;fill-rule:nonzero;fill:rgb(100%,40%,0%);fill-opacity:1;" d="M 2.777344 3.070312 L 12.675781 3.070312 L 12.675781 6.785156 L 2.777344 6.785156 Z M 2.777344 3.070312 "/>
<path style=" stroke:none;fill-rule:nonzero;fill:rgb(100%,40%,0%);fill-opacity:1;" d="M 6.742188 10.796875 L 16.148438 10.796875 L 16.148438 11.335938 L 6.742188 11.335938 Z M 6.742188 10.796875 "/>
<path style=" stroke:none;fill-rule:nonzero;fill:rgb(100%,40%,0%);fill-opacity:1;" d="M 8.125 11.929688 L 14.617188 11.929688 L 14.617188 12.46875 L 8.125 12.46875 Z M 8.125 11.929688 "/>
<path style=" stroke:none;fill-rule:nonzero;fill:rgb(100%,40%,0%);fill-opacity:1;" d="M 7.125 14.253906 L 10.304688 14.253906 L 10.304688 14.792969 L 7.125 14.792969 Z M 7.125 14.253906 "/>
<path style=" stroke:none;fill-rule:nonzero;fill:rgb(100%,40%,0%);fill-opacity:1;" d="M 6.121094 14.253906 L 6.679688 14.253906 L 6.679688 14.792969 L 6.121094 14.792969 Z M 6.121094 14.253906 "/>
<path style=" stroke:none;fill-rule:nonzero;fill:rgb(100%,40%,0%);fill-opacity:1;" d="M 7.097656 15.164062 L 10.277344 15.164062 L 10.277344 15.707031 L 7.097656 15.707031 Z M 7.097656 15.164062 "/>
<path style=" stroke:none;fill-rule:nonzero;fill:rgb(100%,40%,0%);fill-opacity:1;" d="M 6.09375 15.164062 L 6.652344 15.164062 L 6.652344 15.707031 L 6.09375 15.707031 Z M 6.09375 15.164062 "/>
<path style=" stroke:none;fill-rule:nonzero;fill:rgb(100%,40%,0%);fill-opacity:1;" d="M 7.097656 16.097656 L 10.277344 16.097656 L 10.277344 16.640625 L 7.097656 16.640625 Z M 7.097656 16.097656 "/>
<path style=" stroke:none;fill-rule:nonzero;fill:rgb(100%,40%,0%);fill-opacity:1;" d="M 6.09375 16.097656 L 6.652344 16.097656 L 6.652344 16.640625 L 6.09375 16.640625 Z M 6.09375 16.097656 "/>
<path style=" stroke:none;fill-rule:nonzero;fill:rgb(100%,40%,0%);fill-opacity:1;" d="M 7.097656 17.09375 L 10.277344 17.09375 L 10.277344 17.632812 L 7.097656 17.632812 Z M 7.097656 17.09375 "/>
<path style=" stroke:none;fill-rule:nonzero;fill:rgb(100%,40%,0%);fill-opacity:1;" d="M 6.09375 17.09375 L 6.652344 17.09375 L 6.652344 17.632812 L 6.09375 17.632812 Z M 6.09375 17.09375 "/>
<path style=" stroke:none;fill-rule:nonzero;fill:rgb(100%,100%,100%);fill-opacity:1;" d="M 11.726562 13.78125 L 16.730469 13.78125 L 16.730469 17.9375 L 11.726562 17.9375 Z M 11.726562 13.78125 "/>
<path style=" stroke:none;fill-rule:nonzero;fill:rgb(100%,80%,0%);fill-opacity:1;" d="M 14.410156 17.757812 L 14.011719 17.757812 C 13.957031 17.757812 13.914062 17.710938 13.914062 17.652344 L 13.914062 15.925781 C 13.914062 15.863281 13.957031 15.816406 14.011719 15.816406 L 14.410156 15.816406 C 14.464844 15.816406 14.507812 15.863281 14.507812 15.925781 L 14.507812 17.652344 C 14.507812 17.710938 14.464844 17.757812 14.410156 17.757812 Z M 14.410156 17.757812 "/>
<path style=" stroke:none;fill-rule:nonzero;fill:rgb(94.117647%,22.352941%,8.627451%);fill-opacity:1;" d="M 13.519531 17.757812 L 13.121094 17.757812 C 13.070312 17.757812 13.023438 17.710938 13.023438 17.652344 L 13.023438 16.464844 C 13.023438 16.402344 13.070312 16.355469 13.121094 16.355469 L 13.519531 16.355469 C 13.574219 16.355469 13.617188 16.402344 13.617188 16.464844 L 13.617188 17.652344 C 13.617188 17.710938 13.574219 17.757812 13.519531 17.757812 Z M 13.519531 17.757812 "/>
<path style=" stroke:none;fill-rule:nonzero;fill:rgb(0%,26.666667%,33.333333%);fill-opacity:1;" d="M 12.628906 17.757812 L 12.234375 17.757812 C 12.179688 17.757812 12.132812 17.710938 12.132812 17.652344 L 12.132812 17.003906 C 12.132812 16.945312 12.179688 16.894531 12.234375 16.894531 L 12.628906 16.894531 C 12.683594 16.894531 12.726562 16.945312 12.726562 17.003906 L 12.726562 17.652344 C 12.726562 17.710938 12.683594 17.757812 12.628906 17.757812 Z M 12.628906 17.757812 "/>
<path style=" stroke:none;fill-rule:nonzero;fill:rgb(27.058824%,81.568627%,24.705882%);fill-opacity:1;" d="M 15.300781 17.757812 L 14.902344 17.757812 C 14.847656 17.757812 14.804688 17.710938 14.804688 17.652344 L 14.804688 16.464844 C 14.804688 16.402344 14.847656 16.355469 14.902344 16.355469 L 15.300781 16.355469 C 15.351562 16.355469 15.398438 16.402344 15.398438 16.464844 L 15.398438 17.652344 C 15.398438 17.710938 15.351562 17.757812 15.300781 17.757812 Z M 15.300781 17.757812 "/>
<path style=" stroke:none;fill-rule:nonzero;fill:rgb(0%,73.333333%,94.901961%);fill-opacity:1;" d="M 16.1875 17.757812 L 15.792969 17.757812 C 15.738281 17.757812 15.695312 17.710938 15.695312 17.652344 L 15.695312 15.277344 C 15.695312 15.21875 15.738281 15.167969 15.792969 15.167969 L 16.1875 15.167969 C 16.242188 15.167969 16.289062 15.21875 16.289062 15.277344 L 16.289062 17.652344 C 16.289062 17.710938 16.242188 17.757812 16.1875 17.757812 Z M 16.1875 17.757812 "/>
<path style=" stroke:none;fill-rule:nonzero;fill:rgb(22.352941%,25.098039%,31.372549%);fill-opacity:1;" d="M 16.484375 17.867188 L 11.9375 17.867188 C 11.882812 17.867188 11.835938 17.816406 11.835938 17.757812 C 11.835938 17.699219 11.882812 17.652344 11.9375 17.652344 L 16.484375 17.652344 C 16.539062 17.652344 16.585938 17.699219 16.585938 17.757812 C 16.585938 17.816406 16.539062 17.867188 16.484375 17.867188 Z M 16.484375 17.867188 "/>
<path style="fill:none;stroke-width:2.504357;stroke-linecap:butt;stroke-linejoin:miter;stroke:rgb(22.352941%,25.098039%,31.372549%);stroke-opacity:1;stroke-miterlimit:4;" d="M 274.680398 931.623543 L 325.195313 902.060333 L 342.773438 919.283344 L 365.056818 870.632776 " transform="matrix(0.044,0,0,0.044,0,-24.303936)"/>
<path style="fill:none;stroke-width:2.504357;stroke-linecap:butt;stroke-linejoin:miter;stroke:rgb(22.352941%,25.098039%,31.372549%);stroke-opacity:1;stroke-miterlimit:4;" d="M 365.944602 869.922549 L 356.977983 874.183913 " transform="matrix(0.044,0,0,0.044,0,-24.303936)"/>
<path style="fill:none;stroke-width:2.504357;stroke-linecap:butt;stroke-linejoin:miter;stroke:rgb(22.352941%,25.098039%,31.372549%);stroke-opacity:1;stroke-miterlimit:4;" d="M 368.430398 879.33306 L 364.346591 869.3011 " transform="matrix(0.044,0,0,0.044,0,-24.303936)"/>
<path style=" stroke:none;fill-rule:nonzero;fill:rgb(100%,40%,0%);fill-opacity:1;" d="M 6.902344 20.734375 L 16.308594 20.734375 L 16.308594 20.191406 L 6.902344 20.191406 Z M 6.902344 20.734375 "/>
<path style=" stroke:none;fill-rule:nonzero;fill:rgb(100%,40%,0%);fill-opacity:1;" d="M 8.285156 19.601562 L 14.777344 19.601562 L 14.777344 19.058594 L 8.285156 19.058594 Z M 8.285156 19.601562 "/>
</g>
</svg>
