<?xml version="1.0" encoding="UTF-8"?>
<svg xmlns="http://www.w3.org/2000/svg" xmlns:xlink="http://www.w3.org/1999/xlink" width="22" height="22" viewBox="0 0 22 22" version="1.1">
<g id="surface1">
<path style=" stroke:none;fill-rule:evenodd;fill:rgb(66.666667%,53.333333%,0%);fill-opacity:1;" d="M 2.773438 6.769531 L 5.117188 9.0625 L 5.042969 5.847656 L 2.773438 5.835938 Z M 2.773438 6.769531 "/>
<path style="fill-rule:evenodd;fill:rgb(94.901961%,94.901961%,94.901961%);fill-opacity:1;stroke-width:5.03546;stroke-linecap:butt;stroke-linejoin:miter;stroke:rgb(68.627451%,68.627451%,68.627451%);stroke-opacity:1;stroke-miterlimit:4;" d="M 97.034801 1029.812464 L 433.948864 1028.658344 L 435.102983 664.755646 L 347.034801 575.533344 L 97.034801 575.533344 Z M 97.034801 1029.812464 " transform="matrix(0.044,0,0,0.044,0,-24.303936)"/>
<path style="fill-rule:evenodd;fill:rgb(68.627451%,68.627451%,68.627451%);fill-opacity:1;stroke-width:5.03546;stroke-linecap:butt;stroke-linejoin:miter;stroke:rgb(68.627451%,68.627451%,68.627451%);stroke-opacity:1;stroke-miterlimit:4;" d="M 431.551847 662.891299 L 349.34304 662.358629 L 350.142045 578.55181 Z M 431.551847 662.891299 " transform="matrix(0.044,0,0,0.044,0,-24.303936)"/>
<path style=" stroke:none;fill-rule:nonzero;fill:rgb(83.137255%,66.666667%,0%);fill-opacity:1;" d="M 2.777344 3.070312 L 12.675781 3.070312 L 12.675781 6.785156 L 2.777344 6.785156 Z M 2.777344 3.070312 "/>
<path style=" stroke:none;fill-rule:nonzero;fill:rgb(100%,40%,0%);fill-opacity:1;" d="M 13.421875 13.382812 C 13.421875 15.347656 11.832031 16.941406 9.867188 16.941406 C 7.902344 16.941406 6.3125 15.347656 6.3125 13.382812 C 6.3125 11.421875 7.902344 9.828125 9.867188 9.828125 C 11.832031 9.828125 13.421875 11.421875 13.421875 13.382812 Z M 13.421875 13.382812 "/>
<path style=" stroke:none;fill-rule:nonzero;fill:rgb(83.137255%,66.666667%,0%);fill-opacity:1;" d="M 11.578125 12.441406 L 18.097656 12.441406 L 18.097656 18.367188 L 11.578125 18.367188 Z M 11.578125 12.441406 "/>
<path style=" stroke:none;fill-rule:nonzero;fill:rgb(100%,80%,0%);fill-opacity:1;" d="M 6.84375 20.261719 L 13.953125 20.261719 L 10.414062 14.125 Z M 6.84375 20.261719 "/>
<path style=" stroke:none;fill-rule:nonzero;fill:rgb(27.058824%,81.568627%,24.705882%);fill-opacity:1;" d="M 9.882812 13.519531 L 10.949219 13.519531 L 10.949219 14.585938 L 9.882812 14.585938 Z M 9.882812 13.519531 "/>
<path style=" stroke:none;fill-rule:nonzero;fill:rgb(27.058824%,81.568627%,24.705882%);fill-opacity:1;" d="M 5.996094 19.582031 L 7.0625 19.582031 L 7.0625 20.648438 L 5.996094 20.648438 Z M 5.996094 19.582031 "/>
<path style=" stroke:none;fill-rule:nonzero;fill:rgb(27.058824%,81.568627%,24.705882%);fill-opacity:1;" d="M 13.789062 19.5 L 14.855469 19.5 L 14.855469 20.566406 L 13.789062 20.566406 Z M 13.789062 19.5 "/>
</g>
</svg>
