<?xml version="1.0" encoding="UTF-8"?>
<svg xmlns="http://www.w3.org/2000/svg" xmlns:xlink="http://www.w3.org/1999/xlink" width="22" height="22" viewBox="0 0 22 22" version="1.1">
<g id="surface1">
<path style=" stroke:none;fill-rule:evenodd;fill:rgb(81.568627%,7.058824%,0%);fill-opacity:1;" d="M 2.773438 6.769531 L 5.117188 9.0625 L 5.042969 5.847656 L 2.773438 5.835938 Z M 2.773438 6.769531 "/>
<path style="fill-rule:evenodd;fill:rgb(94.901961%,94.901961%,94.901961%);fill-opacity:1;stroke-width:5.03546;stroke-linecap:butt;stroke-linejoin:miter;stroke:rgb(68.627451%,68.627451%,68.627451%);stroke-opacity:1;stroke-miterlimit:4;" d="M 97.034801 1029.812464 L 433.948864 1028.658344 L 435.102983 664.755646 L 347.034801 575.533344 L 97.034801 575.533344 Z M 97.034801 1029.812464 " transform="matrix(0.044,0,0,0.044,0,-24.303936)"/>
<path style="fill-rule:evenodd;fill:rgb(68.627451%,68.627451%,68.627451%);fill-opacity:1;stroke-width:5.03546;stroke-linecap:butt;stroke-linejoin:miter;stroke:rgb(68.627451%,68.627451%,68.627451%);stroke-opacity:1;stroke-miterlimit:4;" d="M 431.551847 662.891299 L 349.34304 662.358629 L 350.142045 578.55181 Z M 431.551847 662.891299 " transform="matrix(0.044,0,0,0.044,0,-24.303936)"/>
<path style=" stroke:none;fill-rule:nonzero;fill:rgb(94.117647%,22.352941%,8.627451%);fill-opacity:1;" d="M 2.777344 3.070312 L 12.675781 3.070312 L 12.675781 6.785156 L 2.777344 6.785156 Z M 2.777344 3.070312 "/>
<path style=" stroke:none;fill-rule:nonzero;fill:rgb(80%,80%,80%);fill-opacity:1;" d="M 6.484375 12.007812 L 6.484375 18.632812 C 6.484375 19.84375 7.457031 20.816406 8.664062 20.816406 L 14.519531 20.816406 L 17.449219 17.867188 L 17.449219 12.007812 Z M 6.484375 12.007812 "/>
<path style=" stroke:none;fill-rule:nonzero;fill:rgb(90.196078%,90.196078%,90.196078%);fill-opacity:1;" d="M 8.664062 9.824219 C 8.636719 9.824219 8.613281 9.824219 8.585938 9.824219 C 8.613281 9.824219 8.636719 9.824219 8.664062 9.824219 Z M 15.269531 9.824219 C 15.292969 9.824219 15.320312 9.824219 15.347656 9.824219 C 15.320312 9.824219 15.292969 9.824219 15.269531 9.824219 Z M 6.484375 16.023438 L 6.484375 19.601562 C 6.484375 20.308594 7.125 20.816406 7.71875 20.816406 L 14.519531 20.816406 L 17.449219 17.867188 L 17.449219 16.023438 Z M 6.484375 16.023438 "/>
<path style=" stroke:none;fill-rule:nonzero;fill:rgb(22.352941%,25.098039%,31.372549%);fill-opacity:1;" d="M 11.707031 18.8125 L 12.289062 18.8125 L 12.300781 13.980469 L 11.242188 14.636719 L 11.242188 15.324219 L 11.695312 15.046875 Z M 11.707031 18.8125 "/>
<path style=" stroke:none;fill-rule:nonzero;fill:rgb(50.196078%,50.196078%,50.196078%);fill-opacity:1;" d="M 15.21875 17.828125 C 14.921875 17.828125 14.503906 18.246094 14.503906 18.539062 L 14.503906 20.824219 L 14.511719 20.824219 L 17.484375 17.828125 Z M 15.21875 17.828125 "/>
<path style=" stroke:none;fill-rule:nonzero;fill:rgb(94.117647%,22.352941%,8.627451%);fill-opacity:1;" d="M 7.730469 9.824219 C 6.523438 9.824219 6.484375 9.820312 6.484375 12.007812 L 17.449219 12.007812 C 17.445312 9.847656 17.46875 9.824219 16.261719 9.824219 Z M 8.335938 10.570312 C 8.527344 10.570312 8.683594 10.722656 8.683594 10.914062 C 8.683594 11.105469 8.527344 11.261719 8.335938 11.261719 C 8.144531 11.261719 7.992188 11.105469 7.992188 10.914062 C 7.992188 10.722656 8.144531 10.570312 8.335938 10.570312 Z M 15.648438 10.574219 C 15.832031 10.574219 15.976562 10.71875 15.976562 10.902344 C 15.980469 11.085938 15.832031 11.234375 15.648438 11.234375 C 15.46875 11.234375 15.320312 11.085938 15.320312 10.902344 C 15.320312 10.71875 15.46875 10.574219 15.648438 10.574219 Z M 15.648438 10.574219 "/>
</g>
</svg>
