<?xml version="1.0" encoding="UTF-8"?>
<svg xmlns="http://www.w3.org/2000/svg" xmlns:xlink="http://www.w3.org/1999/xlink" width="128" height="128" viewBox="0 0 128 128" version="1.1">
<g id="surface1">
<path style=" stroke:none;fill-rule:evenodd;fill:rgb(20%,20%,20%);fill-opacity:1;" d="M 16.136719 39.386719 L 29.761719 52.722656 L 29.335938 34.023438 L 16.128906 33.960938 Z M 16.136719 39.386719 "/>
<path style="fill-rule:evenodd;fill:rgb(94.901961%,94.901961%,94.901961%);fill-opacity:1;stroke-width:5.03546;stroke-linecap:butt;stroke-linejoin:miter;stroke:rgb(68.627451%,68.627451%,68.627451%);stroke-opacity:1;stroke-miterlimit:4;" d="M 97.045898 1029.840207 L 433.929443 1028.66528 L 435.10437 664.773679 L 347.061157 575.570798 L 97.045898 575.570798 Z M 97.045898 1029.840207 " transform="matrix(0.256,0,0,0.256,0,-141.404718)"/>
<path style="fill-rule:evenodd;fill:rgb(68.627451%,68.627451%,68.627451%);fill-opacity:1;stroke-width:5.03546;stroke-linecap:butt;stroke-linejoin:miter;stroke:rgb(68.627451%,68.627451%,68.627451%);stroke-opacity:1;stroke-miterlimit:4;" d="M 431.518555 662.927365 L 349.349976 662.347531 L 350.112915 578.546262 Z M 431.518555 662.927365 " transform="matrix(0.256,0,0,0.256,0,-141.404718)"/>
<path style=" stroke:none;fill-rule:nonzero;fill:rgb(22.352941%,25.098039%,31.372549%);fill-opacity:1;" d="M 16.164062 17.875 L 73.746094 17.875 L 73.746094 39.46875 L 16.164062 39.46875 Z M 16.164062 17.875 "/>
<path style=" stroke:none;fill-rule:nonzero;fill:rgb(22.352941%,25.098039%,31.372549%);fill-opacity:1;" d="M 37.277344 72.417969 L 94.0625 72.417969 C 96.054688 72.417969 97.667969 74.03125 97.667969 76.023438 L 97.667969 117.710938 C 97.667969 119.703125 96.054688 121.320312 94.0625 121.320312 L 37.277344 121.320312 C 35.285156 121.320312 33.667969 119.703125 33.667969 117.710938 L 33.667969 76.023438 C 33.667969 74.03125 35.285156 72.417969 37.277344 72.417969 Z M 37.277344 72.417969 "/>
<path style=" stroke:none;fill-rule:nonzero;fill:rgb(100%,100%,100%);fill-opacity:1;" d="M 42.171875 78.164062 L 89.4375 78.164062 C 90.921875 78.164062 92.125 79.367188 92.125 80.851562 L 92.125 111.921875 C 92.125 113.40625 90.921875 114.609375 89.4375 114.609375 L 42.171875 114.609375 C 40.683594 114.609375 39.480469 113.40625 39.480469 111.921875 L 39.480469 80.851562 C 39.480469 79.367188 40.683594 78.164062 42.171875 78.164062 Z M 42.171875 78.164062 "/>
<path style=" stroke:none;fill-rule:nonzero;fill:rgb(22.352941%,25.098039%,31.372549%);fill-opacity:1;" d="M 45.925781 81.902344 L 67.507812 81.902344 C 68.707031 81.902344 69.675781 82.875 69.675781 84.070312 L 69.675781 109.128906 C 69.675781 110.328125 68.707031 111.296875 67.507812 111.296875 L 45.925781 111.296875 C 44.726562 111.296875 43.757812 110.328125 43.757812 109.128906 L 43.757812 84.070312 C 43.757812 82.875 44.726562 81.902344 45.925781 81.902344 Z M 45.925781 81.902344 "/>
<path style=" stroke:none;fill-rule:nonzero;fill:rgb(100%,100%,100%);fill-opacity:1;" d="M 49.746094 86.074219 L 49.746094 90.65625 L 59.285156 90.703125 C 59.285156 90.703125 55.609375 95.527344 54.375 99.160156 C 53.136719 102.792969 53.003906 107.945312 53.003906 107.945312 L 57.632812 107.992188 C 57.632812 107.992188 57.710938 102.898438 58.957031 99.207031 C 60.199219 95.515625 64.71875 90.515625 64.71875 90.515625 L 64.71875 86.027344 Z M 49.746094 86.074219 "/>
<path style=" stroke:none;fill-rule:nonzero;fill:rgb(22.352941%,25.098039%,31.372549%);fill-opacity:1;" d="M 74.339844 97.003906 L 74.386719 92.988281 L 88.039062 93.035156 L 88.039062 96.578125 L 80.292969 105.367188 L 87.992188 105.316406 L 87.945312 109.285156 L 74.386719 109.191406 L 74.339844 105.695312 L 82.464844 96.910156 Z M 74.339844 97.003906 "/>
<path style="fill:none;stroke-width:9;stroke-linecap:butt;stroke-linejoin:miter;stroke:rgb(100%,100%,100%);stroke-opacity:1;stroke-miterlimit:4;" d="M 125.38147 638.223386 L 163.55896 638.80322 L 128.875732 693.872189 " transform="matrix(0.256,0,0,0.256,0,-141.404718)"/>
<path style="fill:none;stroke-width:9;stroke-linecap:butt;stroke-linejoin:miter;stroke:rgb(100%,100%,100%);stroke-opacity:1;stroke-miterlimit:4;" d="M 188.583374 638.620114 L 226.760864 639.199948 L 192.077637 689.614987 L 234.863281 689.874387 " transform="matrix(0.256,0,0,0.256,0,-141.404718)"/>
</g>
</svg>
