<?xml version="1.0" encoding="UTF-8"?>
<svg xmlns="http://www.w3.org/2000/svg" xmlns:xlink="http://www.w3.org/1999/xlink" width="128" height="128" viewBox="0 0 128 128" version="1.1">
<g id="surface1">
<path style=" stroke:none;fill-rule:evenodd;fill:rgb(50.196078%,50.196078%,50.196078%);fill-opacity:1;" d="M 16.136719 39.386719 L 29.761719 52.722656 L 29.335938 34.023438 L 16.128906 33.960938 Z M 16.136719 39.386719 "/>
<path style="fill-rule:evenodd;fill:rgb(94.901961%,94.901961%,94.901961%);fill-opacity:1;stroke-width:5.03546;stroke-linecap:butt;stroke-linejoin:miter;stroke:rgb(68.627451%,68.627451%,68.627451%);stroke-opacity:1;stroke-miterlimit:4;" d="M 97.045898 1029.840207 L 433.929443 1028.66528 L 435.10437 664.773679 L 347.061157 575.570798 L 97.045898 575.570798 Z M 97.045898 1029.840207 " transform="matrix(0.256,0,0,0.256,0,-141.404718)"/>
<path style="fill-rule:evenodd;fill:rgb(68.627451%,68.627451%,68.627451%);fill-opacity:1;stroke-width:5.03546;stroke-linecap:butt;stroke-linejoin:miter;stroke:rgb(68.627451%,68.627451%,68.627451%);stroke-opacity:1;stroke-miterlimit:4;" d="M 431.518555 662.927365 L 349.349976 662.347531 L 350.112915 578.546262 Z M 431.518555 662.927365 " transform="matrix(0.256,0,0,0.256,0,-141.404718)"/>
<path style=" stroke:none;fill-rule:nonzero;fill:rgb(60%,60%,60%);fill-opacity:1;" d="M 16.164062 17.875 L 73.746094 17.875 L 73.746094 39.46875 L 16.164062 39.46875 Z M 16.164062 17.875 "/>
<path style=" stroke:none;fill-rule:nonzero;fill:rgb(80%,80%,80%);fill-opacity:1;" d="M 42.328125 56.828125 L 90.875 56.828125 C 95.144531 56.828125 98.601562 61.058594 98.601562 66.28125 L 98.601562 111.371094 C 98.601562 116.59375 95.144531 120.828125 90.875 120.828125 L 42.328125 120.828125 C 38.0625 120.828125 34.601562 116.59375 34.601562 111.371094 L 34.601562 66.28125 C 34.601562 61.058594 38.0625 56.828125 42.328125 56.828125 Z M 42.328125 56.828125 "/>
<path style=" stroke:none;fill-rule:nonzero;fill:rgb(70.196078%,70.196078%,70.196078%);fill-opacity:1;" d="M 47.535156 64.125 L 85.296875 64.125 C 88.613281 64.125 91.304688 67.417969 91.304688 71.476562 L 91.304688 106.546875 C 91.304688 110.609375 88.613281 113.902344 85.296875 113.902344 L 47.535156 113.902344 C 44.21875 113.902344 41.527344 110.609375 41.527344 106.546875 L 41.527344 71.476562 C 41.527344 67.417969 44.21875 64.125 47.535156 64.125 Z M 47.535156 64.125 "/>
<path style=" stroke:none;fill-rule:nonzero;fill:rgb(22.352941%,25.098039%,31.372549%);fill-opacity:1;" d="M 69.695312 100.535156 L 59.875 76.660156 L 57.179688 76.660156 L 47.296875 100.535156 L 50.679688 100.535156 L 53.734375 92.683594 L 63.160156 92.683594 L 66.277344 100.535156 Z M 61.976562 90.023438 L 54.882812 90.023438 L 58.527344 80.238281 Z M 61.976562 90.023438 "/>
<path style=" stroke:none;fill-rule:nonzero;fill:rgb(22.352941%,25.098039%,31.372549%);fill-opacity:1;" d="M 76.84375 100.992188 C 78.945312 100.992188 80.851562 100.238281 82.523438 98.792969 L 83.019531 100.992188 L 85.90625 100.371094 C 85.449219 98.726562 85.21875 97.28125 85.21875 96.035156 L 85.21875 90.453125 C 85.21875 85.65625 82.917969 83.261719 78.222656 83.261719 C 76.21875 83.261719 74.085938 83.589844 71.851562 84.246094 L 72.179688 87.035156 C 74.316406 86.214844 76.285156 85.820312 78.058594 85.820312 C 80.457031 85.820312 81.800781 87.070312 82.132812 89.53125 C 74.644531 89.632812 70.898438 91.765625 70.898438 95.9375 C 70.898438 99.089844 73.558594 100.992188 76.84375 100.992188 Z M 82.132812 95.214844 C 82.132812 97.019531 79.011719 98.269531 76.976562 98.269531 C 75.039062 98.269531 74.050781 97.382812 74.050781 95.640625 C 74.050781 93.472656 76.777344 92.324219 82.132812 92.226562 Z M 82.132812 95.214844 "/>
<path style="fill:none;stroke-width:9;stroke-linecap:butt;stroke-linejoin:miter;stroke:rgb(100%,100%,100%);stroke-opacity:1;stroke-miterlimit:4;" d="M 233.377778 692.513259 L 233.789766 640.801223 L 268.244111 640.938552 " transform="matrix(0.256,0,0,0.256,-0.115805,-142.248238)"/>
<path style="fill:none;stroke-width:9;stroke-linecap:butt;stroke-linejoin:miter;stroke:rgb(100%,100%,100%);stroke-opacity:1;stroke-miterlimit:4;" d="M 236.12436 664.574416 L 265.268647 664.727004 " transform="matrix(0.256,0,0,0.256,-0.115805,-142.248238)"/>
<path style="fill:none;stroke-width:10;stroke-linecap:butt;stroke-linejoin:miter;stroke:rgb(100%,100%,100%);stroke-opacity:1;stroke-miterlimit:4;" d="M 152.587891 640.603757 C 152.587891 640.603757 143.325806 636.331296 134.521484 636.224484 C 125.717163 636.132932 120.239258 641.458249 119.949341 649.041867 C 119.644165 656.640744 123.87085 662.713742 139.038086 664.499021 C 154.190063 666.26904 153.289795 679.49841 151.412964 684.1676 C 149.551392 688.82153 140.731812 693.23132 131.744385 692.025876 C 122.772217 690.820432 115.280151 686.776853 115.280151 686.776853 " transform="matrix(0.256,0,0,0.256,0,-141.404718)"/>
<path style="fill:none;stroke-width:9;stroke-linecap:butt;stroke-linejoin:bevel;stroke:rgb(100%,100%,100%);stroke-opacity:1;stroke-miterlimit:4;" d="M 169.174194 696.298337 L 168.97583 635.308957 L 210.998535 695.474362 L 210.998535 634.484982 " transform="matrix(0.256,0,0,0.256,0,-141.404718)"/>
</g>
</svg>
