<?xml version="1.0" encoding="UTF-8"?>
<svg xmlns="http://www.w3.org/2000/svg" xmlns:xlink="http://www.w3.org/1999/xlink" width="128" height="128" viewBox="0 0 128 128" version="1.1">
<g id="surface1">
<path style=" stroke:none;fill-rule:evenodd;fill:rgb(20%,20%,20%);fill-opacity:1;" d="M 16.136719 39.386719 L 29.761719 52.722656 L 29.335938 34.023438 L 16.128906 33.960938 Z M 16.136719 39.386719 "/>
<path style="fill-rule:evenodd;fill:rgb(94.901961%,94.901961%,94.901961%);fill-opacity:1;stroke-width:5.03546;stroke-linecap:butt;stroke-linejoin:miter;stroke:rgb(68.627451%,68.627451%,68.627451%);stroke-opacity:1;stroke-miterlimit:4;" d="M 97.045898 1029.840207 L 433.929443 1028.66528 L 435.10437 664.773679 L 347.061157 575.570798 L 97.045898 575.570798 Z M 97.045898 1029.840207 " transform="matrix(0.256,0,0,0.256,0,-141.404718)"/>
<path style="fill-rule:evenodd;fill:rgb(68.627451%,68.627451%,68.627451%);fill-opacity:1;stroke-width:5.03546;stroke-linecap:butt;stroke-linejoin:miter;stroke:rgb(68.627451%,68.627451%,68.627451%);stroke-opacity:1;stroke-miterlimit:4;" d="M 431.518555 662.927365 L 349.349976 662.347531 L 350.112915 578.546262 Z M 431.518555 662.927365 " transform="matrix(0.256,0,0,0.256,0,-141.404718)"/>
<path style=" stroke:none;fill-rule:nonzero;fill:rgb(22.352941%,25.098039%,31.372549%);fill-opacity:1;" d="M 16.164062 17.875 L 87.921875 17.875 L 87.921875 39.46875 L 16.164062 39.46875 Z M 16.164062 17.875 "/>
<path style=" stroke:none;fill-rule:nonzero;fill:rgb(36.470588%,41.568627%,48.235294%);fill-opacity:1;" d="M 78.554688 69.695312 L 81.121094 70.578125 L 81.121094 71.71875 L 78.925781 72.347656 L 78.925781 75.878906 L 83.683594 74.570312 L 80.976562 75.964844 L 81.035156 78.617188 L 78.984375 79.269531 L 78.984375 82.632812 L 83.398438 81.550781 L 81.121094 82.890625 L 81.121094 85.425781 L 78.867188 86.195312 L 79.011719 89.386719 L 83.796875 88.078125 L 81.121094 89.617188 L 81.0625 92.09375 L 78.953125 92.722656 L 79.011719 95.886719 L 83.65625 94.6875 L 80.722656 96.542969 L 80.636719 97.566406 L 88.046875 97.566406 L 87.960938 94.089844 L 90.097656 93.632812 L 90.039062 90.1875 L 85.023438 91.296875 L 87.929688 90.070312 L 87.960938 87.621094 L 90.183594 86.964844 L 90.183594 83.460938 L 86.308594 84.570312 L 87.875 83.546875 L 87.902344 80.980469 L 89.984375 80.382812 L 89.984375 76.847656 L 85.421875 77.960938 L 87.730469 76.761719 L 87.84375 73.886719 L 89.953125 73.570312 L 90.070312 70.09375 L 85.878906 71.035156 L 88.046875 69.355469 L 88.046875 68.269531 L 78.753906 68.527344 Z M 78.554688 69.695312 "/>
<path style=" stroke:none;fill-rule:nonzero;fill:rgb(40%,40%,40%);fill-opacity:1;" d="M 79.109375 105.171875 L 79.152344 112.425781 L 77.054688 112.425781 L 77.054688 115.046875 L 73.308594 115.125 L 73.265625 112.828125 L 68.308594 112.871094 L 68.230469 120.96875 L 73.308594 120.96875 L 73.308594 118.875 L 77.097656 118.835938 L 77.097656 121.453125 L 92.046875 121.414062 L 92.089844 118.875 L 96.039062 118.875 L 96.039062 121.089844 L 100.875 121.089844 L 100.835938 112.707031 L 96.039062 112.75 L 96.039062 115.207031 L 92.046875 115.207031 L 91.886719 112.347656 L 90.152344 112.386719 L 90.152344 105.089844 Z M 79.109375 105.171875 "/>
<path style=" stroke:none;fill-rule:nonzero;fill:rgb(22.352941%,25.098039%,31.372549%);fill-opacity:1;" d="M 45.582031 102.640625 L 45.46875 104.636719 L 49.96875 108.855469 L 73.566406 109.082031 L 76.644531 105.664062 L 92.773438 105.492188 L 92.773438 96.03125 L 76.984375 96.03125 L 70.714844 102.699219 Z M 45.582031 102.640625 "/>
<path style=" stroke:none;fill-rule:nonzero;fill:rgb(22.352941%,25.098039%,31.372549%);fill-opacity:1;" d="M 45.597656 63.953125 L 45.480469 61.957031 L 49.984375 57.742188 L 73.582031 57.511719 L 76.660156 60.933594 L 92.789062 61.105469 L 92.789062 70.566406 L 77 70.566406 L 70.730469 63.898438 Z M 45.597656 63.953125 "/>
<path style=" stroke:none;fill-rule:nonzero;fill:rgb(100%,72.156863%,0%);fill-opacity:1;" d="M 36.875 63.902344 L 70.726562 63.902344 L 70.726562 102.671875 L 36.875 102.671875 Z M 36.875 63.902344 "/>
<path style=" stroke:none;fill-rule:nonzero;fill:rgb(98.039216%,92.54902%,42.745098%);fill-opacity:1;" d="M 39.398438 67.351562 L 67.78125 67.351562 L 67.78125 82.300781 L 39.398438 82.300781 Z M 39.398438 67.351562 "/>
<path style=" stroke:none;fill-rule:nonzero;fill:rgb(98.039216%,92.54902%,42.745098%);fill-opacity:1;" d="M 39.628906 84.738281 L 68.011719 84.738281 L 68.011719 99.683594 L 39.628906 99.683594 Z M 39.628906 84.738281 "/>
<path style=" stroke:none;fill-rule:nonzero;fill:rgb(15.686275%,13.333333%,4.313725%);fill-opacity:1;" d="M 48.292969 73.222656 L 59.6875 73.222656 L 59.6875 76.882812 L 48.292969 76.882812 Z M 48.292969 73.222656 "/>
<path style=" stroke:none;fill-rule:nonzero;fill:rgb(15.686275%,13.333333%,4.313725%);fill-opacity:1;" d="M 48.234375 90.152344 L 59.632812 90.152344 L 59.632812 93.8125 L 48.234375 93.8125 Z M 48.234375 90.152344 "/>
<path style="fill:none;stroke-width:9;stroke-linecap:butt;stroke-linejoin:miter;stroke:rgb(100%,100%,100%);stroke-opacity:1;stroke-miterlimit:4;" d="M 122.80871 699.623279 L 122.80871 642.340295 " transform="matrix(0.18596,0,0,0.18596,-0.528914,-96.52382)"/>
<path style="fill:none;stroke-width:8.670217;stroke-linecap:butt;stroke-linejoin:miter;stroke:rgb(100%,100%,100%);stroke-opacity:1;stroke-miterlimit:4;" d="M 96.21529 642.739406 L 149.381125 642.739406 " transform="matrix(0.18596,0,0,0.18596,-0.528914,-96.52382)"/>
<path style="fill:none;stroke-width:9;stroke-linecap:butt;stroke-linejoin:bevel;stroke:rgb(100%,100%,100%);stroke-opacity:1;stroke-miterlimit:4;" d="M 915.692651 696.292115 L 937.84376 638.015092 L 960.57889 696.292115 " transform="matrix(0.187279,0,0,0.187279,-145.255629,-96.947766)"/>
<path style="fill:none;stroke-width:9;stroke-linecap:butt;stroke-linejoin:miter;stroke:rgb(100%,100%,100%);stroke-opacity:1;stroke-miterlimit:4;" d="M 924.578124 676.769104 L 950.379368 676.769104 " transform="matrix(0.187279,0,0,0.187279,-145.255629,-96.947766)"/>
<path style="fill:none;stroke-width:9.063828;stroke-linecap:butt;stroke-linejoin:miter;stroke:rgb(100%,100%,100%);stroke-opacity:1;stroke-miterlimit:4;" d="M 384.452644 735.904102 L 384.452644 679.461352 C 384.452644 679.461352 415.268243 673.537699 415.163214 693.787349 C 415.058185 714.037 385.08282 708.512458 385.08282 708.512458 " transform="matrix(0.18596,0,0,0.18596,-34.43422,-103.430758)"/>
<path style="fill:none;stroke-width:9;stroke-linecap:butt;stroke-linejoin:miter;stroke:rgb(100%,100%,100%);stroke-opacity:1;stroke-miterlimit:4;" d="M 392.455878 710.444998 L 418.398117 734.916826 " transform="matrix(0.18596,0,0,0.18596,-34.43422,-103.430758)"/>
<path style="fill:none;stroke-width:6.537672;stroke-linecap:butt;stroke-linejoin:miter;stroke:rgb(100%,100%,100%);stroke-opacity:1;stroke-miterlimit:4;" d="M 188.446045 641.458249 L 188.659668 681.039548 L 211.730957 681.253171 " transform="matrix(0.256,0,0,0.256,0,-141.404718)"/>
<path style="fill:none;stroke-width:6.537672;stroke-linecap:butt;stroke-linejoin:miter;stroke:rgb(100%,100%,100%);stroke-opacity:1;stroke-miterlimit:4;" d="M 217.681885 643.808103 L 245.407104 644.235349 L 220.214844 682.122922 L 251.296997 681.878781 " transform="matrix(0.256,0,0,0.256,0,-141.404718)"/>
<path style="fill:none;stroke-width:6.537672;stroke-linecap:butt;stroke-linejoin:miter;stroke:rgb(100%,100%,100%);stroke-opacity:1;stroke-miterlimit:4;" d="M 258.056641 683.66406 L 258.270264 644.036984 L 261.917114 643.869138 L 273.452759 673.883176 L 275.894165 673.883176 L 287.475586 643.869138 L 291.290283 643.823361 L 291.290283 683.770871 " transform="matrix(0.256,0,0,0.256,0,-141.404718)"/>
<path style="fill:none;stroke-width:9;stroke-linecap:butt;stroke-linejoin:bevel;stroke:rgb(100%,100%,100%);stroke-opacity:1;stroke-miterlimit:4;" d="M 915.696788 696.281947 L 937.847897 638.004924 L 960.562169 696.281947 " transform="matrix(0.187279,0,0,0.187279,-93.994685,-96.731018)"/>
<path style="fill:none;stroke-width:9;stroke-linecap:butt;stroke-linejoin:miter;stroke:rgb(100%,100%,100%);stroke-opacity:1;stroke-miterlimit:4;" d="M 924.582261 676.758936 L 950.362647 676.758936 " transform="matrix(0.187279,0,0,0.187279,-93.994685,-96.731018)"/>
<path style=" stroke:none;fill-rule:nonzero;fill:rgb(100%,100%,100%);fill-opacity:1;" d="M 44.667969 32.15625 L 46.324219 32.15625 L 46.324219 33.773438 L 44.667969 33.773438 Z M 44.667969 32.15625 "/>
</g>
</svg>
