<?xml version="1.0" encoding="UTF-8"?>
<svg xmlns="http://www.w3.org/2000/svg" xmlns:xlink="http://www.w3.org/1999/xlink" width="128" height="128" viewBox="0 0 128 128" version="1.1">
<g id="surface1">
<path style=" stroke:none;fill-rule:evenodd;fill:rgb(0%,46.666667%,75.686275%);fill-opacity:1;" d="M 16.175781 39.535156 L 29.800781 52.871094 L 29.375 34.171875 L 16.167969 34.109375 Z M 16.175781 39.535156 "/>
<path style="fill-rule:evenodd;fill:rgb(94.901961%,94.901961%,94.901961%);fill-opacity:1;stroke-width:5.03546;stroke-linecap:butt;stroke-linejoin:miter;stroke:rgb(68.627451%,68.627451%,68.627451%);stroke-opacity:1;stroke-miterlimit:4;" d="M 96.908569 1029.840207 L 433.792114 1028.66528 L 434.967041 664.773679 L 346.923828 575.570798 L 96.908569 575.570798 Z M 96.908569 1029.840207 " transform="matrix(0.256,0,0,0.256,0,-141.404718)"/>
<path style="fill-rule:evenodd;fill:rgb(68.627451%,68.627451%,68.627451%);fill-opacity:1;stroke-width:5.03546;stroke-linecap:butt;stroke-linejoin:miter;stroke:rgb(68.627451%,68.627451%,68.627451%);stroke-opacity:1;stroke-miterlimit:4;" d="M 431.381226 662.927365 L 349.212646 662.347531 L 349.975586 578.546262 Z M 431.381226 662.927365 " transform="matrix(0.256,0,0,0.256,0,-141.404718)"/>
<path style=" stroke:none;fill-rule:nonzero;fill:rgb(0%,73.333333%,94.901961%);fill-opacity:1;" d="M 16.128906 17.875 L 73.710938 17.875 L 73.710938 39.46875 L 16.128906 39.46875 Z M 16.128906 17.875 "/>
<path style="fill:none;stroke-width:9.063828;stroke-linecap:butt;stroke-linejoin:miter;stroke:rgb(100%,100%,100%);stroke-opacity:1;stroke-miterlimit:4;" d="M 139.221191 693.902707 L 139.221191 637.460446 C 139.221191 637.460446 170.043945 631.524777 169.937134 651.77319 C 169.830322 672.036862 139.846802 666.513181 139.846802 666.513181 " transform="matrix(0.256,0,0,0.256,0,-141.404718)"/>
<path style=" stroke:none;fill-rule:nonzero;fill:rgb(0%,73.333333%,94.901961%);fill-opacity:1;" d="M 68.878906 121.53125 C 88.320312 121.53125 104.078125 113.542969 104.078125 103.691406 C 104.078125 93.839844 88.320312 85.851562 68.878906 85.851562 C 49.4375 85.851562 33.679688 93.839844 33.679688 103.691406 C 33.679688 113.542969 49.4375 121.53125 68.878906 121.53125 "/>
<path style=" stroke:none;fill-rule:nonzero;fill:rgb(100%,100%,100%);fill-opacity:1;" d="M 52.152344 105.902344 C 53.75 105.902344 54.941406 105.609375 55.699219 105.027344 C 56.445312 104.453125 56.960938 103.457031 57.230469 102.066406 C 57.484375 100.765625 57.386719 99.859375 56.945312 99.371094 C 56.492188 98.871094 55.519531 98.617188 54.042969 98.617188 L 51.492188 98.617188 L 50.074219 105.902344 Z M 43.796875 114.878906 C 43.675781 114.878906 43.5625 114.824219 43.488281 114.734375 C 43.414062 114.644531 43.382812 114.523438 43.40625 114.40625 L 47.160156 95.09375 C 47.195312 94.910156 47.359375 94.773438 47.546875 94.773438 L 55.636719 94.773438 C 58.179688 94.773438 60.070312 95.464844 61.261719 96.824219 C 62.457031 98.195312 62.828125 100.109375 62.359375 102.511719 C 62.167969 103.492188 61.839844 104.402344 61.386719 105.214844 C 60.929688 106.03125 60.328125 106.785156 59.597656 107.460938 C 58.71875 108.28125 57.726562 108.875 56.648438 109.222656 C 55.589844 109.570312 54.226562 109.746094 52.601562 109.746094 L 49.328125 109.746094 L 48.390625 114.558594 C 48.355469 114.742188 48.191406 114.878906 48.003906 114.878906 Z M 43.796875 114.878906 "/>
<path style=" stroke:none;fill-rule:nonzero;fill:rgb(100%,100%,100%);fill-opacity:1;" d="M 72.003906 109.746094 C 71.886719 109.746094 71.773438 109.691406 71.699219 109.601562 C 71.621094 109.507812 71.589844 109.386719 71.613281 109.273438 L 73.273438 100.726562 C 73.433594 99.914062 73.394531 99.332031 73.164062 99.085938 C 73.023438 98.933594 72.605469 98.683594 71.363281 98.683594 L 68.355469 98.683594 L 66.265625 109.421875 C 66.230469 109.609375 66.066406 109.746094 65.875 109.746094 L 61.703125 109.746094 C 61.585938 109.746094 61.472656 109.691406 61.394531 109.601562 C 61.320312 109.507812 61.289062 109.386719 61.3125 109.273438 L 65.066406 89.960938 C 65.101562 89.773438 65.265625 89.640625 65.457031 89.640625 L 69.628906 89.640625 C 69.75 89.640625 69.859375 89.691406 69.9375 89.785156 C 70.011719 89.875 70.042969 89.996094 70.019531 90.113281 L 69.113281 94.773438 L 72.351562 94.773438 C 74.816406 94.773438 76.484375 95.207031 77.460938 96.101562 C 78.453125 97.015625 78.761719 98.472656 78.378906 100.4375 L 76.632812 109.421875 C 76.597656 109.609375 76.433594 109.746094 76.242188 109.746094 Z M 72.003906 109.746094 "/>
<path style=" stroke:none;fill-rule:nonzero;fill:rgb(100%,100%,100%);fill-opacity:1;" d="M 84.984375 105.902344 C 86.582031 105.902344 87.777344 105.609375 88.53125 105.027344 C 89.277344 104.453125 89.792969 103.457031 90.0625 102.066406 C 90.316406 100.765625 90.21875 99.859375 89.777344 99.371094 C 89.328125 98.871094 88.351562 98.617188 86.878906 98.617188 L 84.324219 98.617188 L 82.90625 105.902344 Z M 76.628906 114.878906 C 76.511719 114.878906 76.398438 114.824219 76.320312 114.734375 C 76.246094 114.644531 76.214844 114.523438 76.238281 114.40625 L 79.992188 95.09375 C 80.027344 94.910156 80.191406 94.773438 80.382812 94.773438 L 88.472656 94.773438 C 91.011719 94.773438 92.90625 95.464844 94.09375 96.824219 C 95.289062 98.195312 95.660156 100.105469 95.191406 102.511719 C 95 103.492188 94.675781 104.402344 94.21875 105.214844 C 93.765625 106.03125 93.160156 106.785156 92.429688 107.460938 C 91.554688 108.28125 90.5625 108.875 89.484375 109.222656 C 88.421875 109.570312 87.0625 109.746094 85.4375 109.746094 L 82.160156 109.746094 L 81.226562 114.558594 C 81.1875 114.742188 81.027344 114.878906 80.835938 114.878906 Z M 76.628906 114.878906 "/>
<path style="fill:none;stroke-width:9;stroke-linecap:butt;stroke-linejoin:miter;stroke:rgb(100%,100%,100%);stroke-opacity:1;stroke-miterlimit:4;" d="M 311.199902 528.451504 L 311.489819 582.94064 " transform="matrix(0.256,0,0,0.256,-32.292175,-113.783585)"/>
<path style="fill:none;stroke-width:9;stroke-linecap:butt;stroke-linejoin:miter;stroke:rgb(100%,100%,100%);stroke-opacity:1;stroke-miterlimit:4;" d="M 346.279858 527.978481 L 346.569775 582.467617 " transform="matrix(0.256,0,0,0.256,-32.292175,-113.783585)"/>
<path style="fill:none;stroke-width:9;stroke-linecap:butt;stroke-linejoin:miter;stroke:rgb(100%,100%,100%);stroke-opacity:1;stroke-miterlimit:4;" d="M 310.894727 555.047573 L 347.500562 555.047573 " transform="matrix(0.256,0,0,0.256,-32.292175,-113.783585)"/>
<path style="fill:none;stroke-width:9.063828;stroke-linecap:butt;stroke-linejoin:miter;stroke:rgb(100%,100%,100%);stroke-opacity:1;stroke-miterlimit:4;" d="M 239.318848 693.429685 L 239.318848 636.987424 C 239.318848 636.987424 270.126343 631.036496 270.019531 651.300168 C 269.91272 671.56384 239.944458 666.040158 239.944458 666.040158 " transform="matrix(0.256,0,0,0.256,0,-141.404718)"/>
</g>
</svg>
