<?xml version="1.0" encoding="UTF-8"?>
<svg xmlns="http://www.w3.org/2000/svg" xmlns:xlink="http://www.w3.org/1999/xlink" width="128" height="128" viewBox="0 0 128 128" version="1.1">
<g id="surface1">
<path style=" stroke:none;fill-rule:evenodd;fill:rgb(15.686275%,9.019608%,4.313725%);fill-opacity:1;" d="M 16.136719 39.386719 L 29.761719 52.722656 L 29.335938 34.023438 L 16.128906 33.960938 Z M 16.136719 39.386719 "/>
<path style="fill-rule:evenodd;fill:rgb(94.901961%,94.901961%,94.901961%);fill-opacity:1;stroke-width:5.03546;stroke-linecap:butt;stroke-linejoin:miter;stroke:rgb(68.627451%,68.627451%,68.627451%);stroke-opacity:1;stroke-miterlimit:4;" d="M 97.045898 1029.840207 L 433.929443 1028.66528 L 435.10437 664.773679 L 347.061157 575.570798 L 97.045898 575.570798 Z M 97.045898 1029.840207 " transform="matrix(0.256,0,0,0.256,0,-141.404718)"/>
<path style="fill-rule:evenodd;fill:rgb(68.627451%,68.627451%,68.627451%);fill-opacity:1;stroke-width:5.03546;stroke-linecap:butt;stroke-linejoin:miter;stroke:rgb(68.627451%,68.627451%,68.627451%);stroke-opacity:1;stroke-miterlimit:4;" d="M 431.518555 662.927365 L 349.349976 662.347531 L 350.112915 578.546262 Z M 431.518555 662.927365 " transform="matrix(0.256,0,0,0.256,0,-141.404718)"/>
<path style=" stroke:none;fill-rule:nonzero;fill:rgb(31.372549%,17.647059%,8.627451%);fill-opacity:1;" d="M 16.164062 17.875 L 84.9375 17.875 L 84.9375 39.46875 L 16.164062 39.46875 Z M 16.164062 17.875 "/>
<path style=" stroke:none;fill-rule:nonzero;fill:rgb(80%,80%,80%);fill-opacity:1;" d="M 45.1875 76.273438 C 45.1875 76.273438 46.039062 72.0625 69.679688 72.03125 C 93.320312 71.996094 94.265625 76.648438 94.265625 76.648438 L 92.160156 83.703125 L 47.875 83.871094 Z M 45.1875 76.273438 "/>
<path style=" stroke:none;fill-rule:nonzero;fill:rgb(80%,80%,80%);fill-opacity:1;" d="M 101.875 108.3125 C 102.777344 114.691406 89.210938 120.128906 71.566406 120.460938 C 53.921875 120.789062 38.878906 115.882812 37.960938 109.503906 C 37.042969 103.125 50.59375 97.679688 68.238281 97.347656 C 85.878906 97.011719 100.9375 101.910156 101.875 108.289062 "/>
<path style=" stroke:none;fill-rule:nonzero;fill:rgb(50.196078%,50.196078%,50.196078%);fill-opacity:1;" d="M 88.066406 108.140625 C 88.578125 111.742188 80.917969 114.8125 70.953125 115 C 60.992188 115.183594 52.496094 112.414062 51.980469 108.8125 C 51.460938 105.210938 59.113281 102.136719 69.074219 101.949219 C 79.035156 101.757812 87.539062 104.523438 88.066406 108.125 "/>
<path style=" stroke:none;fill-rule:nonzero;fill:rgb(31.372549%,17.647059%,8.627451%);fill-opacity:1;" d="M 92.574219 79.855469 C 93.203125 82.648438 83.726562 85.027344 71.40625 85.171875 C 59.082031 85.316406 48.574219 83.171875 47.933594 80.378906 C 47.289062 77.585938 56.757812 75.203125 69.078125 75.058594 C 81.402344 74.910156 91.917969 77.054688 92.570312 79.847656 "/>
<path style="fill:none;stroke-width:12.0954;stroke-linecap:butt;stroke-linejoin:miter;stroke:rgb(50.196078%,50.196078%,50.196078%);stroke-opacity:1;stroke-miterlimit:4;" d="M 349.16687 925.027585 C 349.16687 925.027585 367.248535 927.697873 374.679565 923.166013 C 382.110596 918.634152 387.130737 908.487058 386.962891 900.598264 C 386.779785 892.70947 382.8125 886.453366 376.998901 883.279538 C 371.185303 880.090451 357.98645 882.806516 357.98645 882.806516 " transform="matrix(0.256,0,0,0.256,0,-141.404718)"/>
<path style=" stroke:none;fill-rule:nonzero;fill:rgb(70.196078%,70.196078%,70.196078%);fill-opacity:1;" d="M 45.160156 76.179688 C 46.875 95.828125 51.4375 110.765625 69.265625 111.566406 C 87.09375 112.367188 92.71875 93.226562 94.320312 76.65625 C 94.320312 76.65625 90.28125 80.851562 68.316406 80.574219 C 46.347656 80.296875 45.160156 76.179688 45.160156 76.179688 Z M 45.160156 76.179688 "/>
<path style="fill:none;stroke-width:9;stroke-linecap:butt;stroke-linejoin:miter;stroke:rgb(100%,100%,100%);stroke-opacity:1;stroke-miterlimit:4;" d="M 124.038696 643.747067 C 124.038696 643.747067 116.409302 636.926389 102.523804 638.009763 C 88.623047 639.093137 80.749512 654.93176 81.497192 666.925168 C 82.229614 678.933835 92.758179 693.200803 106.35376 692.025876 C 119.934082 690.850949 124.038696 686.059689 124.038696 686.059689 " transform="matrix(0.256,0,0,0.256,0,-141.404718)"/>
<path style="fill:none;stroke-width:9;stroke-linecap:butt;stroke-linejoin:miter;stroke:rgb(100%,100%,100%);stroke-opacity:1;stroke-miterlimit:4;" d="M 139.49585 632.074094 L 139.785767 686.563229 L 171.554565 686.853146 " transform="matrix(0.256,0,0,0.256,0,-141.404718)"/>
<path style="fill:none;stroke-width:9;stroke-linecap:butt;stroke-linejoin:bevel;stroke:rgb(100%,100%,100%);stroke-opacity:1;stroke-miterlimit:4;" d="M 915.694444 696.283056 L 937.830507 638.011119 L 960.572623 696.283056 " transform="matrix(0.257816,0,0,0.257816,-189.959585,-144.009006)"/>
<path style="fill:none;stroke-width:9;stroke-linecap:butt;stroke-linejoin:miter;stroke:rgb(100%,100%,100%);stroke-opacity:1;stroke-miterlimit:4;" d="M 924.573111 676.753018 L 950.36064 676.753018 " transform="matrix(0.257816,0,0,0.257816,-189.959585,-144.009006)"/>
<path style="fill:none;stroke-width:10;stroke-linecap:butt;stroke-linejoin:miter;stroke:rgb(100%,100%,100%);stroke-opacity:1;stroke-miterlimit:4;" d="M 273.223877 639.489865 C 273.223877 639.489865 263.961792 635.217404 255.157471 635.110593 C 246.353149 635.01904 240.890503 640.344357 240.585327 647.927976 C 240.280151 655.526853 244.506836 661.599851 259.674072 663.385129 C 274.82605 665.155148 273.925781 678.384519 272.04895 683.053708 C 270.187378 687.707639 261.367798 692.117429 252.380371 690.911984 C 243.408203 689.70654 235.916138 685.662961 235.916138 685.662961 " transform="matrix(0.256,0,0,0.256,0,-141.404718)"/>
<path style="fill:none;stroke-width:10;stroke-linecap:butt;stroke-linejoin:miter;stroke:rgb(100%,100%,100%);stroke-opacity:1;stroke-miterlimit:4;" d="M 322.174072 638.269162 C 322.174072 638.269162 312.911987 633.996701 304.107666 633.88989 C 295.303345 633.798337 289.840698 639.123654 289.535522 646.722531 C 289.230347 654.306149 293.457031 660.379147 308.624268 662.164426 C 323.776245 663.949704 322.875977 677.163815 320.999146 681.833005 C 319.137573 686.502194 310.317993 690.896726 301.330566 689.691281 C 292.358398 688.485837 284.866333 684.457517 284.866333 684.457517 " transform="matrix(0.256,0,0,0.256,0,-141.404718)"/>
</g>
</svg>
