<?xml version="1.0" encoding="UTF-8"?>
<svg xmlns="http://www.w3.org/2000/svg" xmlns:xlink="http://www.w3.org/1999/xlink" width="128" height="128" viewBox="0 0 128 128" version="1.1">
<g id="surface1">
<path style=" stroke:none;fill-rule:evenodd;fill:rgb(15.686275%,9.019608%,4.313725%);fill-opacity:1;" d="M 16.175781 39.535156 L 29.800781 52.871094 L 29.375 34.171875 L 16.167969 34.109375 Z M 16.175781 39.535156 "/>
<path style="fill-rule:evenodd;fill:rgb(94.901961%,94.901961%,94.901961%);fill-opacity:1;stroke-width:5.03546;stroke-linecap:butt;stroke-linejoin:miter;stroke:rgb(68.627451%,68.627451%,68.627451%);stroke-opacity:1;stroke-miterlimit:4;" d="M 96.908569 1029.840207 L 433.792114 1028.66528 L 434.967041 664.773679 L 346.923828 575.570798 L 96.908569 575.570798 Z M 96.908569 1029.840207 " transform="matrix(0.256,0,0,0.256,0,-141.404718)"/>
<path style="fill-rule:evenodd;fill:rgb(68.627451%,68.627451%,68.627451%);fill-opacity:1;stroke-width:5.03546;stroke-linecap:butt;stroke-linejoin:miter;stroke:rgb(68.627451%,68.627451%,68.627451%);stroke-opacity:1;stroke-miterlimit:4;" d="M 431.381226 662.927365 L 349.212646 662.347531 L 349.975586 578.546262 Z M 431.381226 662.927365 " transform="matrix(0.256,0,0,0.256,0,-141.404718)"/>
<path style=" stroke:none;fill-rule:nonzero;fill:rgb(31.372549%,17.647059%,8.627451%);fill-opacity:1;" d="M 16.128906 17.875 L 73.710938 17.875 L 73.710938 39.46875 L 16.128906 39.46875 Z M 16.128906 17.875 "/>
<path style="fill:none;stroke-width:9.063828;stroke-linecap:butt;stroke-linejoin:miter;stroke:rgb(100%,100%,100%);stroke-opacity:1;stroke-miterlimit:4;" d="M 139.221191 693.902707 L 139.221191 637.460446 C 139.221191 637.460446 170.043945 631.524777 169.937134 651.77319 C 169.830322 672.036862 139.846802 666.513181 139.846802 666.513181 " transform="matrix(0.256,0,0,0.256,0,-141.404718)"/>
<path style="fill-rule:nonzero;fill:rgb(31.372549%,17.647059%,8.627451%);fill-opacity:1;stroke-width:0.759318;stroke-linecap:butt;stroke-linejoin:miter;stroke:rgb(0%,0%,0%);stroke-opacity:1;stroke-miterlimit:4;" d="M 233.886719 776.101804 C 230.178833 776.727414 226.989746 778.66528 223.495483 779.824948 C 216.110229 784.570432 210.174561 791.864133 208.66394 800.637937 C 204.040527 815.484738 190.444946 825.250363 185.699463 839.975095 C 181.793213 849.420285 174.789429 856.851315 168.258667 864.434934 C 163.757324 870.050168 164.245605 877.603269 162.261963 884.164548 C 160.27832 885.965085 158.874512 890.069699 162.582397 890.512204 C 162.475586 893.853879 160.186768 897.577023 162.612915 900.76611 C 164.474487 907.754636 167.800903 914.437985 171.081543 920.892453 C 171.737671 923.242307 175.765991 925.97363 176.376343 922.18945 C 176.864624 916.77258 179.199219 910.333371 175.39978 905.572629 C 172.958374 899.453854 174.972534 892.984128 176.101685 886.880612 C 175.552368 883.111691 176.895142 878.808713 178.939819 875.81799 C 181.030273 876.947141 180.31311 880.73132 181.152344 882.775998 C 183.151245 897.424436 183.761597 912.637448 180.053711 927.087521 C 178.68042 932.748532 180.938721 938.729978 179.611206 944.284177 C 174.850464 949.456906 178.543091 956.887937 178.955078 962.899899 C 181.274414 974.054074 180.007935 985.650754 176.66626 996.316647 C 176.589966 1000.146604 175.247192 1003.640866 174.453735 1007.302976 C 175.78125 1011.91113 182.113647 1013.528562 186.340332 1012.445187 C 188.964844 1010.675168 193.984985 1014.04736 195.236206 1009.835935 C 195.617676 1005.258298 191.146851 1001.840329 191.513062 997.186398 C 188.720703 984.430051 186.630249 971.154904 189.331055 958.139157 C 190.734863 950.586057 190.185547 942.498898 192.306519 935.220456 C 197.006226 929.330563 200.22583 922.357297 202.224731 915.048337 C 205.01709 908.975339 206.741333 901.605344 208.435059 895.822263 C 215.72876 907.541013 220.108032 921.579099 218.200684 935.556149 C 218.460083 941.018796 215.042114 947.412229 219.619751 951.715207 C 225.17395 960.397458 232.192993 968.606687 235.00061 978.616452 C 235.229492 982.812619 229.58374 982.873654 228.088379 986.276364 C 224.761963 991.098142 225.112915 997.247434 224.746704 1002.816892 C 227.874756 1004.037595 232.467651 1007.272458 235.122681 1003.381467 C 237.716675 1000.650144 238.815308 995.874143 241.516113 993.783688 C 243.164062 996.926999 241.622925 1002.008176 245.895386 1003.549313 C 252.029419 1005.746579 259.094238 1006.356931 265.457153 1004.846311 C 268.722534 1002.008176 264.266968 998.010373 261.489868 996.926999 C 256.896973 995.553708 254.196167 991.983151 252.624512 987.634396 C 251.174927 985.238767 250.137329 982.446408 252.960205 980.600095 C 259.597778 972.543454 268.722534 967.218137 275.741577 959.695554 C 279.983521 953.805661 278.869629 945.596433 277.252197 938.943601 C 275.268555 935.067868 273.834229 931.00903 274.917603 926.59924 C 275.650024 922.799802 273.05603 918.878293 273.208618 915.506101 C 276.931763 915.26196 281.280518 915.399289 284.591675 916.65051 C 285.491943 922.647214 284.14917 929.055905 285.888672 934.854245 C 288.696289 937.539792 290.023804 941.796994 290.222168 945.657468 C 292.84668 948.892331 291.183472 953.637814 291.900635 957.589841 C 290.222168 964.02905 292.617798 970.376706 294.586182 976.480222 C 298.187256 988.09216 296.661377 1000.619626 299.743652 1012.277341 C 302.093506 1015.588498 298.156738 1021.11218 302.749634 1023.294187 C 309.829712 1025.933957 319.335938 1026.696896 325.378418 1021.35632 C 327.224731 1017.678952 321.792603 1015.55798 319.168091 1014.398312 C 315.490723 1013.589597 312.698364 1011.02612 311.920166 1007.211423 C 306.32019 995.675778 303.588867 982.721066 305.541992 969.857907 C 305.831909 963.64758 306.686401 957.528806 308.273315 951.623654 C 309.020996 945.596433 309.127808 939.386105 310.882568 933.66406 C 311.920166 925.59216 310.165405 917.093015 312.423706 909.249997 C 316.070557 911.569333 319.992065 913.903928 324.310303 914.239621 C 327.11792 916.375852 330.13916 914.25488 331.665039 911.676145 C 333.92334 908.57861 336.639404 916.864133 338.699341 912.667966 C 341.262817 909.768796 344.558716 907.693601 347.457886 905.420041 C 349.105835 902.734494 352.478027 902.826047 354.84314 901.590085 C 356.491089 899.453854 353.790283 896.051145 356.811523 894.403195 C 357.849121 891.656613 360.488892 895.288205 361.694336 892.678952 C 362.976074 889.840817 362.762451 885.934567 366.18042 884.713864 C 372.360229 879.785275 370.513916 870.828366 371.627808 863.870358 C 371.551514 856.942868 372.924805 849.603391 371.231079 842.920041 C 369.247437 837.6405 365.982056 832.269406 364.6698 827.005124 C 370.697021 822.183347 381.362915 826.181149 385.467529 818.261838 C 387.252808 812.463498 381.652832 807.504392 377.975464 803.827023 C 374.37439 800.454831 368.728638 802.057004 364.334106 800.393796 C 360.931396 799.249387 355.636597 800.515866 354.751587 795.892453 C 353.317261 792.215085 348.846436 792.245603 346.466064 789.483762 C 342.636108 787.515378 339.157104 792.016721 335.403442 792.382932 C 331.207275 795.29736 326.400757 798.150754 323.730469 802.60632 C 322.58606 805.520749 323.577881 809.304929 320.43457 811.120725 C 315.200806 817.132687 317.398071 826.04382 316.90979 833.368039 C 316.970825 836.709714 316.879272 840.097165 318.786621 842.813229 C 319.061279 846.917844 322.799683 849.618649 322.128296 853.830075 C 321.609497 856.607175 324.050903 862.527585 319.458008 861.245847 C 318.069458 858.911252 318.267822 854.943967 316.970825 852.212644 C 313.140869 840.4176 307.327271 827.630734 295.700073 821.710324 C 287.506104 815.71362 281.661987 806.985593 278.259277 797.525144 C 275.039673 792.718625 269.119263 789.75842 266.586304 784.555173 C 263.259888 783.136105 259.246826 783.624387 255.935669 781.778073 C 251.831055 779.962277 248.10791 776.65112 243.19458 777.230954 C 239.944458 777.475095 236.953735 776.345944 233.886719 776.101804 Z M 239.883423 908.441281 C 242.721558 909.387326 241.836548 913.812375 242.874146 916.116452 C 244.20166 919.351315 243.07251 925.08862 246.841431 926.721311 C 248.977661 930.230832 247.650146 934.991574 249.786377 938.241696 C 249.298096 940.545773 248.550415 944.864011 252.13623 944.925046 C 255.355835 944.650388 256.225586 948.236203 258.499146 949.838376 C 260.5896 952.768063 262.924194 956.918454 259.689331 960.000729 C 256.546021 963.815427 254.40979 969.781613 248.626709 969.94946 C 246.246338 970.208859 242.950439 973.916745 241.867065 970.086789 C 237.762451 963.14404 234.25293 955.743527 235.046387 947.473264 C 235.107422 934.488034 238.067627 921.731687 239.562988 908.929562 C 239.486694 908.57861 239.608765 908.426022 239.883423 908.441281 Z M 239.883423 908.441281 " transform="matrix(0.256,0,0,0.256,0,-141.404718)"/>
<path style="fill:none;stroke-width:9;stroke-linecap:butt;stroke-linejoin:miter;stroke:rgb(100%,100%,100%);stroke-opacity:1;stroke-miterlimit:4;" d="M 192.245483 633.722043 L 192.5354 688.211179 L 224.304199 688.501096 " transform="matrix(0.256,0,0,0.256,0,-141.404718)"/>
</g>
</svg>
