<?xml version="1.0" encoding="UTF-8"?>
<svg xmlns="http://www.w3.org/2000/svg" xmlns:xlink="http://www.w3.org/1999/xlink" width="128" height="128" viewBox="0 0 128 128" version="1.1">
<g id="surface1">
<path style=" stroke:none;fill-rule:evenodd;fill:rgb(20%,20%,20%);fill-opacity:1;" d="M 16.136719 39.386719 L 29.761719 52.722656 L 29.335938 34.023438 L 16.128906 33.960938 Z M 16.136719 39.386719 "/>
<path style="fill-rule:evenodd;fill:rgb(94.901961%,94.901961%,94.901961%);fill-opacity:1;stroke-width:5.03546;stroke-linecap:butt;stroke-linejoin:miter;stroke:rgb(68.627451%,68.627451%,68.627451%);stroke-opacity:1;stroke-miterlimit:4;" d="M 97.045898 1029.840207 L 433.929443 1028.66528 L 435.10437 664.773679 L 347.061157 575.570798 L 97.045898 575.570798 Z M 97.045898 1029.840207 " transform="matrix(0.256,0,0,0.256,0,-141.404718)"/>
<path style="fill-rule:evenodd;fill:rgb(68.627451%,68.627451%,68.627451%);fill-opacity:1;stroke-width:5.03546;stroke-linecap:butt;stroke-linejoin:miter;stroke:rgb(68.627451%,68.627451%,68.627451%);stroke-opacity:1;stroke-miterlimit:4;" d="M 431.518555 662.927365 L 349.349976 662.347531 L 350.112915 578.546262 Z M 431.518555 662.927365 " transform="matrix(0.256,0,0,0.256,0,-141.404718)"/>
<path style=" stroke:none;fill-rule:nonzero;fill:rgb(22.352941%,25.098039%,31.372549%);fill-opacity:1;" d="M 16.164062 17.875 L 73.746094 17.875 L 73.746094 39.46875 L 16.164062 39.46875 Z M 16.164062 17.875 "/>
<path style=" stroke:none;fill-rule:evenodd;fill:rgb(60%,60%,60%);fill-opacity:1;" d="M 76.269531 120.554688 C 59.191406 125.078125 41.679688 114.898438 37.15625 97.816406 C 32.632812 80.738281 42.8125 63.226562 59.890625 58.703125 L 67.527344 87.53125 C 66.367188 87.839844 65.679688 89.027344 65.984375 90.183594 C 66.292969 91.339844 67.480469 92.03125 68.636719 91.722656 Z M 59.890625 58.703125 C 76.972656 54.179688 94.484375 64.359375 99.007812 81.4375 C 103.53125 98.519531 93.351562 116.03125 76.269531 120.554688 L 68.636719 91.722656 C 69.792969 91.417969 70.484375 90.230469 70.175781 89.074219 C 69.871094 87.914062 68.683594 87.226562 67.527344 87.53125 Z M 59.890625 58.703125 "/>
<path style=" stroke:none;fill-rule:evenodd;fill:rgb(80%,80%,80%);fill-opacity:1;" d="M 76.269531 120.554688 C 59.191406 125.078125 41.679688 114.898438 37.15625 97.816406 C 32.632812 80.738281 42.8125 63.226562 59.890625 58.703125 L 67.527344 87.53125 C 66.367188 87.839844 65.679688 89.027344 65.984375 90.183594 C 66.292969 91.339844 67.480469 92.03125 68.636719 91.722656 Z M 59.890625 58.703125 C 76.972656 54.179688 94.484375 64.359375 99.007812 81.4375 C 103.53125 98.519531 93.351562 116.03125 76.269531 120.554688 L 68.636719 91.722656 C 69.792969 91.417969 70.484375 90.230469 70.175781 89.074219 C 69.871094 87.914062 68.683594 87.226562 67.527344 87.53125 Z M 59.890625 58.703125 "/>
<path style=" stroke:none;fill-rule:evenodd;fill:rgb(36.470588%,41.568627%,48.235294%);fill-opacity:1;" d="M 71.007812 100.675781 C 64.90625 102.292969 58.648438 98.65625 57.03125 92.554688 C 55.417969 86.453125 59.054688 80.195312 65.15625 78.578125 L 67.527344 87.53125 C 66.367188 87.839844 65.679688 89.027344 65.984375 90.183594 C 66.292969 91.339844 67.480469 92.03125 68.636719 91.722656 Z M 65.15625 78.578125 C 71.257812 76.960938 77.515625 80.597656 79.132812 86.703125 C 80.746094 92.804688 77.109375 99.0625 71.007812 100.675781 L 68.636719 91.722656 C 69.792969 91.417969 70.484375 90.230469 70.175781 89.074219 C 69.871094 87.914062 68.683594 87.226562 67.527344 87.53125 Z M 65.15625 78.578125 "/>
<path style=" stroke:none;fill-rule:evenodd;fill:rgb(60%,60%,60%);fill-opacity:1;" d="M 70.535156 98.898438 C 65.417969 100.253906 60.167969 97.203125 58.808594 92.082031 C 57.453125 86.960938 60.507812 81.710938 65.625 80.355469 L 67.527344 87.53125 C 66.367188 87.839844 65.679688 89.027344 65.984375 90.183594 C 66.292969 91.339844 67.480469 92.03125 68.636719 91.722656 Z M 65.625 80.355469 C 70.746094 79 75.996094 82.050781 77.351562 87.171875 C 78.710938 92.292969 75.65625 97.542969 70.535156 98.898438 L 68.636719 91.722656 C 69.792969 91.417969 70.484375 90.230469 70.175781 89.074219 C 69.871094 87.914062 68.683594 87.226562 67.527344 87.53125 Z M 65.625 80.355469 "/>
<path style=" stroke:none;fill-rule:evenodd;fill:rgb(36.470588%,41.568627%,48.235294%);fill-opacity:1;" d="M 69.113281 93.527344 C 66.960938 94.097656 64.753906 92.816406 64.179688 90.660156 C 63.609375 88.507812 64.894531 86.296875 67.050781 85.726562 L 67.527344 87.53125 C 66.367188 87.839844 65.679688 89.027344 65.984375 90.183594 C 66.292969 91.339844 67.480469 92.03125 68.636719 91.722656 Z M 67.050781 85.726562 C 69.203125 85.15625 71.410156 86.441406 71.980469 88.59375 C 72.550781 90.75 71.269531 92.957031 69.113281 93.527344 L 68.636719 91.722656 C 69.792969 91.417969 70.484375 90.230469 70.175781 89.074219 C 69.871094 87.914062 68.683594 87.226562 67.527344 87.53125 Z M 67.050781 85.726562 "/>
<path style="fill:none;stroke-width:9;stroke-linecap:butt;stroke-linejoin:miter;stroke:rgb(100%,100%,100%);stroke-opacity:1;stroke-miterlimit:4;" d="M 133.336527 354.163412 L 133.290751 304.6639 " transform="matrix(0.256,0,0,0.256,3.553349,-54.283021)"/>
<path style=" stroke:none;fill-rule:nonzero;fill:rgb(100%,100%,100%);fill-opacity:1;" d="M 36.585938 20.445312 L 38.851562 20.445312 L 38.851562 22.660156 L 36.585938 22.660156 Z M 36.585938 20.445312 "/>
<path style="fill:none;stroke-width:10;stroke-linecap:butt;stroke-linejoin:miter;stroke:rgb(100%,100%,100%);stroke-opacity:1;stroke-miterlimit:4;" d="M 200.866699 641.366696 C 200.866699 641.366696 191.604614 637.094235 182.800293 637.002683 C 173.995972 636.895871 168.533325 642.236447 168.228149 649.820065 C 167.922974 657.403684 172.149658 663.476682 187.316895 665.26196 C 202.468872 667.047238 201.568604 680.26135 199.691772 684.930539 C 197.8302 689.599729 189.01062 694.009519 180.023193 692.804074 C 171.051025 691.59863 163.55896 687.555051 163.55896 687.555051 " transform="matrix(0.256,0,0,0.256,0,-141.404718)"/>
<path style="fill:none;stroke-width:9;stroke-linecap:butt;stroke-linejoin:miter;stroke:rgb(100%,100%,100%);stroke-opacity:1;stroke-miterlimit:4;" d="M 239.395142 690.438962 C 227.371216 690.33215 216.049194 678.247189 215.9729 662.942624 C 215.911865 647.653317 227.966309 635.354733 240.112305 635.705686 C 252.258301 636.041379 262.863159 647.6228 263.061523 663.903928 C 263.275146 680.185056 251.434326 690.530515 239.395142 690.438962 Z M 239.395142 690.438962 " transform="matrix(0.256,0,0,0.256,0,-141.404718)"/>
</g>
</svg>
