<?xml version="1.0" encoding="UTF-8"?>
<svg xmlns="http://www.w3.org/2000/svg" xmlns:xlink="http://www.w3.org/1999/xlink" width="128" height="128" viewBox="0 0 128 128" version="1.1">
<g id="surface1">
<path style=" stroke:none;fill-rule:evenodd;fill:rgb(10.196078%,10.196078%,10.196078%);fill-opacity:1;" d="M 16.210938 39.535156 L 29.835938 52.871094 L 29.414062 34.171875 L 16.203125 34.109375 Z M 16.210938 39.535156 "/>
<path style="fill-rule:evenodd;fill:rgb(94.901961%,94.901961%,94.901961%);fill-opacity:1;stroke-width:5.03546;stroke-linecap:butt;stroke-linejoin:miter;stroke:rgb(68.627451%,68.627451%,68.627451%);stroke-opacity:1;stroke-miterlimit:4;" d="M 97.045898 1029.840207 L 433.929443 1028.66528 L 435.10437 664.773679 L 347.061157 575.570798 L 97.045898 575.570798 Z M 97.045898 1029.840207 " transform="matrix(0.256,0,0,0.256,0,-141.404718)"/>
<path style="fill-rule:evenodd;fill:rgb(68.627451%,68.627451%,68.627451%);fill-opacity:1;stroke-width:5.03546;stroke-linecap:butt;stroke-linejoin:miter;stroke:rgb(68.627451%,68.627451%,68.627451%);stroke-opacity:1;stroke-miterlimit:4;" d="M 431.518555 662.927365 L 349.349976 662.347531 L 350.112915 578.546262 Z M 431.518555 662.927365 " transform="matrix(0.256,0,0,0.256,0,-141.404718)"/>
<path style=" stroke:none;fill-rule:nonzero;fill:rgb(22.352941%,25.098039%,31.372549%);fill-opacity:1;" d="M 16.164062 17.875 L 73.746094 17.875 L 73.746094 39.46875 L 16.164062 39.46875 Z M 16.164062 17.875 "/>
<path style=" stroke:none;fill-rule:nonzero;fill:rgb(22.352941%,25.098039%,31.372549%);fill-opacity:1;" d="M 65.15625 121.117188 C 64.59375 120.867188 64 120.226562 63.730469 119.589844 C 63.59375 119.261719 63.457031 117.996094 63.339844 115.976562 C 63.242188 114.269531 63.109375 112.734375 63.050781 112.566406 C 62.96875 112.34375 62.578125 112.136719 61.601562 111.796875 C 60.863281 111.539062 59.753906 111.074219 59.132812 110.761719 C 58.515625 110.449219 57.875 110.195312 57.707031 110.195312 C 57.523438 110.195312 56.511719 111.019531 55.066406 112.34375 C 53.78125 113.523438 52.519531 114.597656 52.265625 114.726562 C 51.738281 114.996094 50.5625 115.039062 49.953125 114.8125 C 49.46875 114.632812 44.351562 109.589844 44.023438 108.972656 C 43.699219 108.355469 43.734375 107.207031 44.097656 106.507812 C 44.265625 106.191406 45.347656 104.90625 46.503906 103.652344 C 47.75 102.304688 48.605469 101.253906 48.605469 101.085938 C 48.605469 100.925781 48.351562 100.289062 48.039062 99.667969 C 47.730469 99.050781 47.265625 97.945312 47.007812 97.210938 C 46.753906 96.476562 46.4375 95.824219 46.308594 95.757812 C 46.183594 95.691406 44.679688 95.558594 42.96875 95.464844 C 40.980469 95.355469 39.644531 95.214844 39.257812 95.078125 C 38.519531 94.8125 37.671875 93.90625 37.550781 93.257812 C 37.5 92.996094 37.480469 91.046875 37.503906 88.929688 L 37.550781 85.074219 L 37.992188 84.519531 C 38.777344 83.539062 39.144531 83.441406 42.882812 83.210938 C 44.996094 83.082031 46.285156 82.941406 46.390625 82.835938 C 46.484375 82.742188 46.800781 82.015625 47.09375 81.21875 C 47.390625 80.425781 47.851562 79.335938 48.121094 78.800781 C 48.386719 78.269531 48.605469 77.710938 48.605469 77.570312 C 48.605469 77.425781 47.722656 76.335938 46.640625 75.152344 C 45.558594 73.964844 44.523438 72.796875 44.339844 72.554688 C 43.828125 71.875 43.652344 71.03125 43.855469 70.207031 C 44.011719 69.582031 44.292969 69.246094 46.640625 66.863281 C 48.082031 65.40625 49.5 64.089844 49.792969 63.9375 C 50.476562 63.582031 51.566406 63.578125 52.246094 63.925781 C 52.53125 64.070312 53.789062 65.128906 55.035156 66.273438 C 56.285156 67.417969 57.390625 68.40625 57.492188 68.464844 C 57.601562 68.527344 58.273438 68.289062 59.09375 67.902344 C 59.867188 67.535156 61.03125 67.054688 61.675781 66.839844 C 62.546875 66.546875 62.886719 66.355469 63.003906 66.101562 C 63.09375 65.910156 63.246094 64.355469 63.34375 62.648438 C 63.53125 59.363281 63.644531 58.84375 64.320312 58.132812 C 65.074219 57.347656 65.507812 57.28125 69.722656 57.332031 L 73.5625 57.375 L 74.160156 57.769531 C 75.195312 58.453125 75.320312 58.878906 75.5625 62.539062 C 75.679688 64.308594 75.808594 65.894531 75.847656 66.0625 C 75.90625 66.300781 76.222656 66.472656 77.25 66.832031 C 77.980469 67.085938 79.152344 67.582031 79.851562 67.933594 C 80.550781 68.285156 81.179688 68.574219 81.246094 68.574219 C 81.316406 68.574219 82.4375 67.59375 83.742188 66.398438 C 85.046875 65.199219 86.355469 64.09375 86.652344 63.941406 C 87.347656 63.574219 88.386719 63.578125 89.148438 63.949219 C 89.511719 64.125 90.738281 65.242188 92.285156 66.800781 C 94.9375 69.480469 95.144531 69.785156 95.148438 71 C 95.148438 71.855469 94.765625 72.417969 92.488281 74.917969 C 91.246094 76.277344 90.234375 77.445312 90.234375 77.515625 C 90.234375 77.585938 90.558594 78.320312 90.953125 79.144531 C 91.347656 79.96875 91.820312 81.121094 92 81.707031 C 92.226562 82.4375 92.421875 82.8125 92.617188 82.898438 C 92.777344 82.964844 94.375 83.109375 96.167969 83.222656 C 99.730469 83.445312 100.304688 83.59375 100.902344 84.433594 C 101.464844 85.226562 101.53125 85.820312 101.480469 89.699219 L 101.433594 93.40625 L 101 94.027344 C 100.222656 95.132812 100.027344 95.1875 96.074219 95.445312 C 94.144531 95.574219 92.53125 95.710938 92.492188 95.75 C 92.449219 95.792969 92.210938 96.410156 91.957031 97.121094 C 91.707031 97.835938 91.210938 98.992188 90.859375 99.695312 C 90.507812 100.398438 90.238281 101.058594 90.261719 101.164062 C 90.285156 101.269531 91.25 102.386719 92.402344 103.644531 C 93.554688 104.898438 94.644531 106.214844 94.824219 106.570312 C 95.203125 107.316406 95.238281 108.109375 94.925781 108.859375 C 94.648438 109.523438 89.953125 114.292969 89.191406 114.6875 C 88.554688 115.019531 87.390625 115.054688 86.722656 114.761719 C 86.46875 114.652344 85.1875 113.578125 83.875 112.378906 C 82.5625 111.179688 81.386719 110.195312 81.257812 110.195312 C 81.128906 110.195312 80.390625 110.492188 79.617188 110.855469 C 78.839844 111.21875 77.691406 111.683594 77.0625 111.890625 C 76.191406 112.175781 75.902344 112.339844 75.847656 112.566406 C 75.808594 112.734375 75.679688 114.316406 75.5625 116.085938 C 75.304688 119.980469 75.15625 120.402344 73.800781 121.089844 C 73.40625 121.289062 72.757812 121.324219 69.464844 121.316406 C 66.550781 121.3125 65.484375 121.265625 65.15625 121.117188 Z M 70.867188 103.832031 C 74.359375 103.464844 77.28125 102.074219 79.765625 99.585938 C 81.660156 97.6875 82.882812 95.5625 83.617188 92.878906 C 84.078125 91.195312 84.078125 87.484375 83.613281 85.78125 C 82.203125 80.617188 78.507812 76.8125 73.394531 75.273438 C 72.203125 74.914062 71.878906 74.882812 69.566406 74.871094 C 67.347656 74.863281 66.882812 74.902344 65.808594 75.195312 C 60.425781 76.664062 56.3125 80.984375 55.1875 86.351562 C 54.179688 91.167969 55.65625 96.085938 59.175781 99.625 C 61.015625 101.472656 63.40625 102.832031 65.996094 103.5 C 66.734375 103.691406 67.785156 103.835938 69.277344 103.957031 C 69.394531 103.96875 70.109375 103.910156 70.867188 103.832031 Z M 67.28125 97.773438 C 63.597656 96.773438 61.015625 93.636719 60.789062 89.878906 C 60.628906 87.25 61.476562 85.027344 63.339844 83.167969 C 66.742188 79.78125 72.171875 79.75 75.527344 83.09375 C 78.292969 85.851562 78.957031 89.773438 77.238281 93.214844 C 75.777344 96.144531 73.085938 97.875 69.78125 98.003906 C 68.65625 98.046875 68.101562 97.996094 67.28125 97.773438 Z M 71.40625 94.128906 C 72.421875 93.75 73.636719 92.621094 74.148438 91.578125 C 74.773438 90.007812 74.726562 88.195312 74.054688 86.953125 C 73.105469 85.203125 71.699219 84.316406 69.710938 84.214844 C 68.113281 84.136719 67.15625 84.472656 66 85.527344 C 64.539062 86.863281 63.957031 88.722656 64.425781 90.554688 C 64.832031 92.144531 65.695312 93.222656 67.144531 93.957031 C 68.496094 94.640625 69.886719 94.695312 71.40625 94.128906 Z M 71.40625 94.128906 "/>
<path style="fill:none;stroke-width:9;stroke-linecap:butt;stroke-linejoin:miter;stroke:rgb(100%,100%,100%);stroke-opacity:1;stroke-miterlimit:4;" d="M 380.20752 670.722487 L 346.210938 670.3105 L 346.622925 618.583205 L 381.062012 618.735793 " transform="matrix(0.256,0,0,0.256,-57.91125,-136.193238)"/>
<path style="fill:none;stroke-width:9;stroke-linecap:butt;stroke-linejoin:miter;stroke:rgb(100%,100%,100%);stroke-opacity:1;stroke-miterlimit:4;" d="M 348.95752 642.371657 L 378.086548 642.508986 " transform="matrix(0.256,0,0,0.256,-57.91125,-136.193238)"/>
<path style="fill:none;stroke-width:9;stroke-linecap:butt;stroke-linejoin:miter;stroke:rgb(100%,100%,100%);stroke-opacity:1;stroke-miterlimit:4;" d="M 380.201708 670.723416 L 346.205126 670.311429 L 346.617113 618.584134 L 381.071459 618.736722 " transform="matrix(0.256,0,0,0.256,-29.937106,-135.869257)"/>
<path style="fill:none;stroke-width:9;stroke-linecap:butt;stroke-linejoin:miter;stroke:rgb(100%,100%,100%);stroke-opacity:1;stroke-miterlimit:4;" d="M 348.951708 642.372586 L 378.095995 642.509915 " transform="matrix(0.256,0,0,0.256,-29.937106,-135.869257)"/>
<path style="fill:none;stroke-width:9;stroke-linecap:butt;stroke-linejoin:miter;stroke:rgb(100%,100%,100%);stroke-opacity:1;stroke-miterlimit:4;" d="M 42.447323 990.896972 L 81.784481 1049.170287 " transform="matrix(0.256,0,0,0.256,32.410829,-231.970406)"/>
<path style="fill:none;stroke-width:9;stroke-linecap:butt;stroke-linejoin:miter;stroke:rgb(100%,100%,100%);stroke-opacity:1;stroke-miterlimit:4;" d="M 80.182309 990.896972 L 40.829892 1049.170287 " transform="matrix(0.256,0,0,0.256,32.410829,-231.970406)"/>
</g>
</svg>
