<?xml version="1.0" encoding="UTF-8"?>
<svg xmlns="http://www.w3.org/2000/svg" xmlns:xlink="http://www.w3.org/1999/xlink" width="128" height="128" viewBox="0 0 128 128" version="1.1">
<g id="surface1">
<path style=" stroke:none;fill-rule:evenodd;fill:rgb(20%,20%,20%);fill-opacity:1;" d="M 16.136719 38.105469 L 29.761719 51.441406 L 29.335938 32.742188 L 16.128906 32.679688 Z M 16.136719 38.105469 "/>
<path style="fill-rule:evenodd;fill:rgb(94.901961%,94.901961%,94.901961%);fill-opacity:1;stroke-width:5.03546;stroke-linecap:butt;stroke-linejoin:miter;stroke:rgb(68.627451%,68.627451%,68.627451%);stroke-opacity:1;stroke-miterlimit:4;" d="M 97.045898 1024.835324 L 433.929443 1023.660397 L 435.10437 659.768796 L 347.061157 570.565915 L 97.045898 570.565915 Z M 97.045898 1024.835324 " transform="matrix(0.256,0,0,0.256,0,-141.404718)"/>
<path style="fill-rule:evenodd;fill:rgb(68.627451%,68.627451%,68.627451%);fill-opacity:1;stroke-width:5.03546;stroke-linecap:butt;stroke-linejoin:miter;stroke:rgb(68.627451%,68.627451%,68.627451%);stroke-opacity:1;stroke-miterlimit:4;" d="M 431.518555 657.937741 L 349.349976 657.342648 L 350.112915 573.541379 Z M 431.518555 657.937741 " transform="matrix(0.256,0,0,0.256,0,-141.404718)"/>
<path style=" stroke:none;fill-rule:nonzero;fill:rgb(22.352941%,25.098039%,31.372549%);fill-opacity:1;" d="M 16.164062 16.59375 L 73.746094 16.59375 L 73.746094 38.1875 L 16.164062 38.1875 Z M 16.164062 16.59375 "/>
<path style=" stroke:none;fill-rule:evenodd;fill:rgb(60%,60%,60%);fill-opacity:1;" d="M 76.269531 119.273438 C 59.191406 123.796875 41.679688 113.617188 37.15625 96.539062 C 32.632812 79.457031 42.8125 61.945312 59.890625 57.421875 L 67.527344 86.253906 C 66.367188 86.558594 65.679688 87.746094 65.984375 88.902344 C 66.292969 90.0625 67.480469 90.75 68.636719 90.445312 Z M 59.890625 57.421875 C 76.972656 52.898438 94.484375 63.078125 99.007812 80.160156 C 103.53125 97.238281 93.351562 114.75 76.269531 119.273438 L 68.636719 90.445312 C 69.792969 90.136719 70.484375 88.949219 70.175781 87.792969 C 69.871094 86.636719 68.683594 85.945312 67.527344 86.253906 Z M 59.890625 57.421875 "/>
<path style=" stroke:none;fill-rule:evenodd;fill:rgb(80%,80%,80%);fill-opacity:1;" d="M 76.269531 119.273438 C 59.191406 123.796875 41.679688 113.617188 37.15625 96.539062 C 32.632812 79.457031 42.8125 61.945312 59.890625 57.421875 L 67.527344 86.253906 C 66.367188 86.558594 65.679688 87.746094 65.984375 88.902344 C 66.292969 90.0625 67.480469 90.75 68.636719 90.445312 Z M 59.890625 57.421875 C 76.972656 52.898438 94.484375 63.078125 99.007812 80.160156 C 103.53125 97.238281 93.351562 114.75 76.269531 119.273438 L 68.636719 90.445312 C 69.792969 90.136719 70.484375 88.949219 70.175781 87.792969 C 69.871094 86.636719 68.683594 85.945312 67.527344 86.253906 Z M 59.890625 57.421875 "/>
<path style=" stroke:none;fill-rule:evenodd;fill:rgb(36.470588%,41.568627%,48.235294%);fill-opacity:1;" d="M 71.007812 99.398438 C 64.90625 101.011719 58.648438 97.375 57.03125 91.273438 C 55.417969 85.171875 59.054688 78.914062 65.15625 77.296875 L 67.527344 86.253906 C 66.367188 86.558594 65.679688 87.746094 65.984375 88.902344 C 66.292969 90.0625 67.480469 90.75 68.636719 90.445312 Z M 65.15625 77.296875 C 71.257812 75.683594 77.515625 79.320312 79.132812 85.421875 C 80.746094 91.523438 77.109375 97.78125 71.007812 99.398438 L 68.636719 90.445312 C 69.792969 90.136719 70.484375 88.949219 70.175781 87.792969 C 69.871094 86.636719 68.683594 85.945312 67.527344 86.253906 Z M 65.15625 77.296875 "/>
<path style=" stroke:none;fill-rule:evenodd;fill:rgb(60%,60%,60%);fill-opacity:1;" d="M 70.535156 97.621094 C 65.417969 98.976562 60.167969 95.921875 58.808594 90.804688 C 57.453125 85.683594 60.507812 80.433594 65.625 79.078125 L 67.527344 86.253906 C 66.367188 86.558594 65.679688 87.746094 65.984375 88.902344 C 66.292969 90.0625 67.480469 90.75 68.636719 90.445312 Z M 65.625 79.078125 C 70.746094 77.722656 75.996094 80.773438 77.351562 85.894531 C 78.710938 91.011719 75.65625 96.265625 70.535156 97.621094 L 68.636719 90.445312 C 69.792969 90.136719 70.484375 88.953125 70.175781 87.792969 C 69.871094 86.636719 68.683594 85.945312 67.527344 86.253906 Z M 65.625 79.078125 "/>
<path style=" stroke:none;fill-rule:evenodd;fill:rgb(36.470588%,41.568627%,48.235294%);fill-opacity:1;" d="M 69.113281 92.25 C 66.960938 92.820312 64.753906 91.535156 64.179688 89.382812 C 63.609375 87.226562 64.894531 85.019531 67.050781 84.449219 L 67.527344 86.253906 C 66.367188 86.558594 65.679688 87.746094 65.984375 88.902344 C 66.292969 90.0625 67.480469 90.75 68.636719 90.445312 Z M 67.050781 84.449219 C 69.203125 83.878906 71.410156 85.160156 71.980469 87.316406 C 72.550781 89.46875 71.269531 91.679688 69.113281 92.25 L 68.636719 90.445312 C 69.792969 90.136719 70.484375 88.949219 70.175781 87.792969 C 69.871094 86.636719 68.683594 85.945312 67.527344 86.253906 Z M 67.050781 84.449219 "/>
<path style=" stroke:none;fill-rule:nonzero;fill:rgb(22.352941%,25.098039%,31.372549%);fill-opacity:1;" d="M 79.472656 113.121094 C 75.359375 115.328125 69.09375 114.558594 67.425781 111.007812 C 65.753906 107.457031 68.46875 103.59375 72.914062 101.105469 C 77.359375 98.617188 81.695312 100.4375 81.695312 100.4375 L 82.011719 68.839844 L 85.210938 69.871094 L 87.304688 74.875 C 87.304688 74.875 95.046875 79.007812 96.832031 88.476562 C 98.617188 97.949219 87.417969 105.367188 87.417969 105.367188 C 87.417969 105.367188 96.855469 95.453125 94.527344 88.160156 C 92.203125 80.867188 85.023438 80.109375 85.023438 80.109375 L 85.230469 106.097656 C 85.230469 106.097656 83.589844 110.914062 79.472656 113.121094 Z M 79.472656 113.121094 "/>
<path style="fill:none;stroke-width:9;stroke-linecap:butt;stroke-linejoin:miter;stroke:rgb(100%,100%,100%);stroke-opacity:1;stroke-miterlimit:4;" d="M 153.549194 639.489865 C 153.549194 639.489865 145.9198 632.669187 132.034302 633.752561 C 118.133545 634.820676 110.26001 650.674558 111.00769 662.667966 C 111.740112 674.661374 122.268677 688.928342 135.864258 687.768674 C 149.44458 686.593747 153.549194 681.787229 153.549194 681.787229 " transform="matrix(0.256,0,0,0.256,0,-141.404718)"/>
<path style="fill:none;stroke-width:9;stroke-linecap:butt;stroke-linejoin:miter;stroke:rgb(100%,100%,100%);stroke-opacity:1;stroke-miterlimit:4;" d="M 168.395996 686.700559 L 168.884277 634.591794 C 168.884277 634.591794 208.755493 628.778195 209.274292 661.126828 C 209.777832 693.460202 168.395996 686.700559 168.395996 686.700559 Z M 168.395996 686.700559 " transform="matrix(0.256,0,0,0.256,0,-141.404718)"/>
<path style="fill:none;stroke-width:9;stroke-linecap:butt;stroke-linejoin:bevel;stroke:rgb(100%,100%,100%);stroke-opacity:1;stroke-miterlimit:4;" d="M 915.693204 696.284883 L 937.844418 637.997796 L 960.571382 696.284883 " transform="matrix(0.257816,0,0,0.257816,-179.799109,-143.958696)"/>
<path style="fill:none;stroke-width:9;stroke-linecap:butt;stroke-linejoin:miter;stroke:rgb(100%,100%,100%);stroke-opacity:1;stroke-miterlimit:4;" d="M 924.587022 676.754846 L 950.374551 676.754846 " transform="matrix(0.257816,0,0,0.257816,-179.799109,-143.958696)"/>
</g>
</svg>
