<?xml version="1.0" encoding="UTF-8"?>
<svg xmlns="http://www.w3.org/2000/svg" xmlns:xlink="http://www.w3.org/1999/xlink" width="128" height="128" viewBox="0 0 128 128" version="1.1">
<g id="surface1">
<path style=" stroke:none;fill-rule:evenodd;fill:rgb(39.215686%,39.215686%,39.215686%);fill-opacity:1;" d="M 16.136719 39.386719 L 29.761719 52.722656 L 29.335938 34.023438 L 16.128906 33.960938 Z M 16.136719 39.386719 "/>
<path style="fill-rule:evenodd;fill:rgb(94.901961%,94.901961%,94.901961%);fill-opacity:1;stroke-width:5.03546;stroke-linecap:butt;stroke-linejoin:miter;stroke:rgb(68.627451%,68.627451%,68.627451%);stroke-opacity:1;stroke-miterlimit:4;" d="M 97.045898 1029.840207 L 433.929443 1028.66528 L 435.10437 664.773679 L 347.061157 575.570798 L 97.045898 575.570798 Z M 97.045898 1029.840207 " transform="matrix(0.256,0,0,0.256,0,-141.404718)"/>
<path style="fill-rule:evenodd;fill:rgb(68.627451%,68.627451%,68.627451%);fill-opacity:1;stroke-width:5.03546;stroke-linecap:butt;stroke-linejoin:miter;stroke:rgb(68.627451%,68.627451%,68.627451%);stroke-opacity:1;stroke-miterlimit:4;" d="M 431.518555 662.927365 L 349.349976 662.347531 L 350.112915 578.546262 Z M 431.518555 662.927365 " transform="matrix(0.256,0,0,0.256,0,-141.404718)"/>
<path style=" stroke:none;fill-rule:nonzero;fill:rgb(60%,60%,60%);fill-opacity:1;" d="M 16.164062 17.875 L 71.214844 17.875 L 71.214844 39.46875 L 16.164062 39.46875 Z M 16.164062 17.875 "/>
<path style=" stroke:none;fill-rule:nonzero;fill:rgb(80%,80%,80%);fill-opacity:0.588235;" d="M 65.546875 77.636719 C 57.023438 77.210938 49.152344 74.851562 45.75 71.703125 C 44.890625 70.90625 44.199219 69.765625 44.203125 69.136719 C 44.207031 68.078125 45.511719 66.492188 47.339844 65.324219 C 55.167969 60.328125 71.371094 59 83.246094 62.375 C 87.351562 63.542969 90.449219 65.132812 92.160156 66.949219 C 93.320312 68.175781 93.539062 68.957031 93.035156 70.0625 C 91.851562 72.667969 86.589844 75.320312 79.964844 76.644531 C 77.300781 77.179688 74.761719 77.484375 71.617188 77.644531 C 68.863281 77.785156 68.515625 77.785156 65.546875 77.636719 Z M 65.546875 77.636719 "/>
<path style=" stroke:none;fill-rule:nonzero;fill:rgb(80%,80%,80%);fill-opacity:0.588235;" d="M 66.402344 121.652344 C 59.867188 121.328125 53.824219 119.515625 51.214844 117.101562 C 50.554688 116.488281 50.027344 115.613281 50.027344 115.132812 C 50.03125 114.320312 51.03125 113.105469 52.4375 112.207031 C 58.441406 108.375 70.871094 107.355469 79.984375 109.945312 C 83.132812 110.839844 85.511719 112.0625 86.824219 113.453125 C 87.714844 114.394531 87.878906 114.992188 87.496094 115.84375 C 86.585938 117.84375 82.546875 119.875 77.464844 120.894531 C 75.421875 121.304688 73.472656 121.535156 71.0625 121.660156 C 68.949219 121.765625 68.683594 121.765625 66.402344 121.652344 Z M 66.402344 121.652344 "/>
<path style=" stroke:none;fill-rule:nonzero;fill:rgb(58.823529%,58.823529%,58.823529%);fill-opacity:0.588235;" d="M 65.96875 121.671875 C 58.96875 121.191406 53.265625 119.277344 50.804688 116.585938 C 49.925781 115.625 49.691406 115.109375 49.429688 113.609375 C 48.710938 109.464844 41.664062 71.550781 41.480469 70.84375 C 40.21875 66.011719 45.367188 61.632812 55.132812 59.234375 C 57.371094 58.6875 60.769531 58.144531 63.464844 57.902344 C 65.886719 57.6875 71.507812 57.6875 73.929688 57.902344 C 85.742188 58.957031 94.585938 63.027344 95.917969 68.027344 C 96.175781 68.996094 96.15625 69.734375 95.828125 71.066406 C 95.476562 72.511719 87.878906 113.699219 87.878906 114.164062 C 87.878906 114.351562 87.6875 114.894531 87.449219 115.363281 C 86.257812 117.753906 82.253906 119.871094 76.847656 120.972656 C 73.839844 121.585938 69.125 121.886719 65.96875 121.671875 Z M 65.96875 121.671875 "/>
<path style="fill-rule:nonzero;fill:rgb(0%,40%,50.196078%);fill-opacity:1;stroke-width:1;stroke-linecap:butt;stroke-linejoin:miter;stroke:rgb(0%,40%,50.196078%);stroke-opacity:1;stroke-miterlimit:4;" d="M 68.817589 87.32388 L 64.779571 94.426831 L 68.881685 101.465686 L 68.870031 98.365793 L 72.284575 98.301697 C 74.417209 98.243429 75.588409 96.606079 75.588409 96.606079 L 80.751013 87.760895 C 81.858118 85.27865 80.675264 83.588859 80.675264 83.588859 L 77.085914 77.441514 L 69.977136 81.549455 L 74.539573 89.439033 C 74.708552 89.85274 74.440516 90.190699 73.945232 90.184872 L 68.840897 90.219833 Z M 68.817589 87.32388 " transform="matrix(0.670386,0,0,0.670386,26.123464,42.861637)"/>
<path style="fill-rule:nonzero;fill:rgb(0%,40%,50.196078%);fill-opacity:1;stroke-width:1;stroke-linecap:butt;stroke-linejoin:miter;stroke:rgb(0%,40%,50.196078%);stroke-opacity:1;stroke-miterlimit:4;" d="M 58.474901 86.257564 L 54.326171 79.218708 L 46.180211 79.27115 L 48.872224 80.797789 L 47.217394 83.792799 C 46.203519 85.66905 47.048415 87.498686 47.048415 87.498686 L 52.146923 96.384658 C 53.749312 98.581387 55.800369 98.394927 55.800369 98.394927 L 62.9208 98.348312 L 62.897493 90.138257 L 53.784273 90.167391 C 53.341431 90.103296 53.178279 89.707069 53.434661 89.275881 L 55.94604 84.829981 Z M 58.474901 86.257564 " transform="matrix(0.670386,0,0,0.670386,26.123464,42.861637)"/>
<path style="fill-rule:nonzero;fill:rgb(0%,40%,50.196078%);fill-opacity:1;stroke-width:1;stroke-linecap:butt;stroke-linejoin:miter;stroke:rgb(0%,40%,50.196078%);stroke-opacity:1;stroke-miterlimit:4;" d="M 64.569803 77.843568 L 72.744898 77.779472 L 76.782916 70.705656 L 74.108385 72.267256 L 72.348671 69.336342 C 71.229912 67.51836 69.22547 67.3319 69.22547 67.3319 L 58.981838 67.279458 C 56.272345 67.570801 55.409969 69.435399 55.409969 69.435399 L 51.884714 75.623531 L 58.993492 79.713992 L 63.538448 71.818587 C 63.818138 71.463148 64.243499 71.527244 64.4824 71.964259 L 67.075356 76.36937 Z M 64.569803 77.843568 " transform="matrix(0.670386,0,0,0.670386,26.123464,42.861637)"/>
<path style="fill:none;stroke-width:9;stroke-linecap:butt;stroke-linejoin:miter;stroke:rgb(100%,100%,100%);stroke-opacity:1;stroke-miterlimit:4;" d="M 134.033203 695.12341 L 199.310303 632.180905 " transform="matrix(0.256,0,0,0.256,0,-141.404718)"/>
<path style="fill-rule:nonzero;fill:rgb(60%,60%,60%);fill-opacity:1;stroke-width:9.11013;stroke-linecap:butt;stroke-linejoin:bevel;stroke:rgb(100%,100%,100%);stroke-opacity:1;stroke-miterlimit:4;" d="M 153.900146 642.572141 C 153.900146 648.339963 149.230957 653.024411 143.463135 653.024411 C 137.695312 653.024411 133.010864 648.339963 133.010864 642.572141 C 133.010864 636.804318 137.695312 632.135129 143.463135 632.135129 C 149.230957 632.135129 153.900146 636.804318 153.900146 642.572141 Z M 153.900146 642.572141 " transform="matrix(0.256,0,0,0.256,0,-141.404718)"/>
<path style="fill-rule:nonzero;fill:rgb(60%,60%,60%);fill-opacity:1;stroke-width:9.11013;stroke-linecap:butt;stroke-linejoin:bevel;stroke:rgb(100%,100%,100%);stroke-opacity:1;stroke-miterlimit:4;" d="M 199.859619 684.945798 C 199.859619 690.71362 195.19043 695.398068 189.422607 695.398068 C 183.654785 695.398068 178.970337 690.71362 178.970337 684.945798 C 178.970337 679.177976 183.654785 674.508786 189.422607 674.508786 C 195.19043 674.508786 199.859619 679.177976 199.859619 684.945798 Z M 199.859619 684.945798 " transform="matrix(0.256,0,0,0.256,0,-141.404718)"/>
</g>
</svg>
