<?xml version="1.0" encoding="UTF-8"?>
<svg xmlns="http://www.w3.org/2000/svg" xmlns:xlink="http://www.w3.org/1999/xlink" width="128" height="128" viewBox="0 0 128 128" version="1.1">
<g id="surface1">
<path style=" stroke:none;fill-rule:evenodd;fill:rgb(81.960784%,16.470588%,4.313725%);fill-opacity:1;" d="M 16.136719 39.386719 L 29.761719 52.722656 L 29.335938 34.023438 L 16.128906 33.960938 Z M 16.136719 39.386719 "/>
<path style="fill-rule:evenodd;fill:rgb(94.901961%,94.901961%,94.901961%);fill-opacity:1;stroke-width:5.03546;stroke-linecap:butt;stroke-linejoin:miter;stroke:rgb(68.627451%,68.627451%,68.627451%);stroke-opacity:1;stroke-miterlimit:4;" d="M 97.045898 1029.840207 L 433.929443 1028.66528 L 435.10437 664.773679 L 347.061157 575.570798 L 97.045898 575.570798 Z M 97.045898 1029.840207 " transform="matrix(0.256,0,0,0.256,0,-141.404718)"/>
<path style="fill-rule:evenodd;fill:rgb(68.627451%,68.627451%,68.627451%);fill-opacity:1;stroke-width:5.03546;stroke-linecap:butt;stroke-linejoin:miter;stroke:rgb(68.627451%,68.627451%,68.627451%);stroke-opacity:1;stroke-miterlimit:4;" d="M 431.518555 662.927365 L 349.349976 662.347531 L 350.112915 578.546262 Z M 431.518555 662.927365 " transform="matrix(0.256,0,0,0.256,0,-141.404718)"/>
<path style=" stroke:none;fill-rule:nonzero;fill:rgb(94.117647%,22.352941%,8.627451%);fill-opacity:1;" d="M 16.164062 17.875 L 73.746094 17.875 L 73.746094 39.46875 L 16.164062 39.46875 Z M 16.164062 17.875 "/>
<path style="fill:none;stroke-width:9;stroke-linecap:butt;stroke-linejoin:miter;stroke:rgb(100%,100%,100%);stroke-opacity:1;stroke-miterlimit:4;" d="M 380.205853 670.722964 L 346.209271 670.310977 L 346.621258 618.583682 L 381.075604 618.73627 " transform="matrix(0.256,0,0,0.256,-43.313167,-136.615235)"/>
<path style="fill:none;stroke-width:9;stroke-linecap:butt;stroke-linejoin:miter;stroke:rgb(100%,100%,100%);stroke-opacity:1;stroke-miterlimit:4;" d="M 348.955853 642.372134 L 378.084881 642.509463 " transform="matrix(0.256,0,0,0.256,-43.313167,-136.615235)"/>
<path style=" stroke:none;fill-rule:nonzero;fill:rgb(94.117647%,22.352941%,8.627451%);fill-opacity:1;" d="M 70.246094 120.863281 C 66.8125 120.289062 61.890625 118.347656 58.84375 116.355469 C 52.144531 111.988281 47.773438 107.140625 45.066406 101.082031 C 44.164062 99.070312 43.675781 97.507812 42.269531 92.195312 C 41.917969 90.875 41.484375 89.417969 41.300781 88.960938 C 40.996094 88.191406 40.980469 87.929688 41.117188 85.359375 C 41.242188 82.914062 41.65625 79.609375 41.878906 79.261719 C 41.921875 79.195312 42.023438 79.179688 42.101562 79.226562 C 42.375 79.386719 42.628906 78.636719 42.878906 76.925781 C 43.015625 75.988281 43.226562 75.003906 43.351562 74.738281 C 43.476562 74.476562 43.691406 73.894531 43.824219 73.445312 C 44.132812 72.410156 44.554688 71.617188 45.855469 69.617188 C 46.429688 68.734375 47.023438 67.777344 47.175781 67.484375 C 47.359375 67.140625 47.558594 66.972656 47.742188 67.007812 C 47.917969 67.042969 48.207031 66.820312 48.511719 66.417969 C 49.835938 64.671875 56.066406 59.519531 56.640625 59.695312 C 56.800781 59.742188 57.457031 59.527344 58.101562 59.214844 C 59.273438 58.648438 59.789062 58.519531 59.789062 58.789062 C 59.789062 58.863281 59.617188 59.039062 59.410156 59.179688 C 59.050781 59.417969 59.058594 59.421875 59.621094 59.292969 C 59.941406 59.21875 60.484375 59.113281 60.824219 59.054688 C 61.242188 58.988281 61.414062 58.886719 61.355469 58.742188 C 61.304688 58.617188 61.425781 58.488281 61.65625 58.429688 C 62.230469 58.28125 63.125 58.308594 63.125 58.46875 C 63.125 58.664062 62.613281 58.863281 62.207031 58.824219 C 61.929688 58.796875 61.914062 58.820312 62.125 58.957031 C 62.332031 59.09375 62.332031 59.121094 62.136719 59.125 C 62.007812 59.125 61.945312 59.167969 61.996094 59.21875 C 62.050781 59.269531 62.398438 59.160156 62.769531 58.976562 C 63.144531 58.796875 63.824219 58.566406 64.289062 58.472656 C 64.855469 58.355469 65.128906 58.21875 65.128906 58.050781 C 65.128906 57.835938 65.390625 57.820312 67.171875 57.910156 C 68.296875 57.96875 69.992188 58.136719 70.941406 58.285156 C 72.667969 58.554688 72.667969 58.554688 73.3125 58.203125 C 74.082031 57.773438 75.324219 57.71875 75.648438 58.097656 C 75.769531 58.234375 76.097656 58.460938 76.378906 58.601562 C 76.839844 58.832031 76.871094 58.832031 76.675781 58.605469 C 76.304688 58.175781 76.671875 58.1875 78.097656 58.648438 C 82.695312 60.125 86.445312 62.757812 89.226562 66.460938 C 89.886719 67.339844 89.925781 67.734375 89.300781 67.199219 L 88.945312 66.894531 L 89.214844 67.40625 C 89.367188 67.6875 89.488281 68.003906 89.488281 68.109375 C 89.488281 68.214844 89.933594 68.992188 90.472656 69.839844 C 91.691406 71.746094 92.03125 72.386719 91.949219 72.621094 C 91.914062 72.722656 91.375 72.050781 90.75 71.128906 C 90.125 70.207031 89.203125 68.96875 88.695312 68.371094 C 87.941406 67.480469 87.746094 67.328125 87.589844 67.519531 C 87.488281 67.648438 87.238281 67.773438 87.03125 67.800781 L 86.660156 67.855469 L 87.027344 68.546875 C 87.230469 68.925781 87.421875 69.160156 87.457031 69.066406 C 87.632812 68.5625 88.449219 69.226562 88.820312 70.175781 C 88.941406 70.484375 89.261719 71.117188 89.53125 71.585938 C 89.804688 72.054688 89.992188 72.46875 89.949219 72.507812 C 89.910156 72.550781 89.660156 72.421875 89.402344 72.226562 L 88.925781 71.867188 L 89.25 72.398438 C 89.429688 72.691406 89.726562 73.050781 89.910156 73.195312 C 90.144531 73.375 90.253906 73.660156 90.265625 74.105469 C 90.285156 74.925781 90.773438 75.894531 91.039062 75.636719 C 91.453125 75.242188 91.539062 75.488281 91.433594 76.792969 C 91.359375 77.753906 91.398438 78.386719 91.582031 79.058594 C 91.859375 80.078125 91.796875 80.328125 91.394531 79.851562 C 91.136719 79.546875 91.132812 79.550781 91.25 79.863281 C 91.496094 80.539062 91.679688 81.546875 91.628906 81.941406 C 91.53125 82.679688 91.246094 82.375 91.144531 81.429688 L 91.046875 80.503906 L 91.019531 81.488281 C 91.003906 82.027344 90.871094 83.074219 90.722656 83.808594 C 90.578125 84.554688 90.5 85.453125 90.554688 85.835938 C 90.65625 86.554688 90.585938 86.585938 89.957031 86.070312 C 89.703125 85.859375 89.660156 85.902344 89.484375 86.527344 C 89.335938 87.050781 89.335938 87.351562 89.488281 87.792969 C 89.597656 88.109375 89.664062 88.539062 89.628906 88.746094 C 89.558594 89.226562 89.15625 89.378906 89.15625 88.925781 C 89.15625 88.355469 88.929688 88.558594 88.238281 89.75 C 86.371094 92.964844 83.417969 95.457031 80.074219 96.632812 C 78.101562 97.324219 76.777344 97.582031 74.554688 97.703125 L 72.554688 97.8125 L 73.542969 98.105469 C 74.339844 98.339844 74.808594 98.375 75.960938 98.289062 C 77.472656 98.171875 79.246094 97.855469 80.050781 97.5625 C 80.371094 97.445312 80.589844 97.441406 80.699219 97.546875 C 80.960938 97.796875 78.636719 98.785156 77.257812 99.007812 C 74.910156 99.390625 71.769531 98.976562 68.996094 97.925781 C 67.113281 97.214844 64.320312 95.359375 64.75 95.105469 C 64.832031 95.054688 65.363281 95.296875 65.929688 95.644531 C 66.65625 96.085938 66.964844 96.199219 66.964844 96.035156 C 66.964844 95.71875 67.070312 95.734375 67.648438 96.128906 C 68.167969 96.484375 69.773438 97.148438 70.925781 97.484375 C 72.183594 97.847656 71.695312 97.40625 70.007812 96.648438 C 64.671875 94.261719 62.453125 91.871094 61.351562 87.316406 C 60.945312 85.644531 61.378906 81.984375 62.117188 80.835938 C 62.304688 80.546875 62.457031 80.1875 62.457031 80.042969 C 62.457031 79.40625 63.558594 77.730469 64.691406 76.644531 C 66.6875 74.730469 68.757812 73.9375 71.449219 74.054688 C 72.75 74.113281 73.304688 74.222656 74.386719 74.636719 C 75.617188 75.105469 77.164062 76.085938 76.6875 76.097656 C 76.578125 76.101562 76.089844 75.941406 75.605469 75.75 C 74.867188 75.453125 74.394531 75.394531 72.71875 75.390625 C 70.367188 75.378906 69.21875 75.699219 67.546875 76.828125 C 65.175781 78.429688 63.855469 80.277344 63.390625 82.644531 C 63.074219 84.234375 63.066406 84.675781 63.308594 86.25 C 63.453125 87.160156 63.550781 87.425781 63.726562 87.363281 C 63.875 87.308594 63.960938 87.386719 63.960938 87.582031 C 63.960938 88.144531 65.238281 90.429688 66.121094 91.453125 C 68.253906 93.910156 71.699219 95.476562 74.972656 95.476562 C 76.671875 95.476562 78.042969 95.164062 79.304688 94.492188 C 79.8125 94.21875 80.453125 93.886719 80.730469 93.753906 C 81.699219 93.28125 82.304688 92.742188 83.007812 91.714844 C 83.398438 91.140625 83.824219 90.675781 83.953125 90.675781 C 84.144531 90.675781 84.136719 90.757812 83.910156 91.113281 C 83.164062 92.292969 84.914062 90.148438 85.820312 88.773438 L 86.832031 87.230469 L 86.722656 86.21875 C 86.617188 85.246094 86.632812 85.1875 87.117188 84.695312 C 87.582031 84.226562 87.625 84.085938 87.679688 82.828125 C 87.726562 81.703125 87.695312 81.46875 87.488281 81.46875 C 87.296875 81.46875 87.210938 81.171875 87.128906 80.183594 C 87.019531 78.882812 85.914062 74.496094 85.65625 74.34375 C 85.578125 74.296875 85.363281 73.875 85.175781 73.40625 C 84.550781 71.820312 83.449219 70.296875 81.734375 68.640625 C 79.265625 66.25 76.15625 64.40625 73.21875 63.589844 C 70.722656 62.894531 66.480469 63.148438 63.457031 64.171875 C 61.984375 64.671875 60.53125 65.332031 60.285156 65.617188 C 60.175781 65.746094 60.011719 65.808594 59.929688 65.757812 C 59.835938 65.703125 59.863281 65.558594 59.988281 65.414062 C 60.542969 64.773438 58.695312 65.949219 57.507812 66.996094 C 56.789062 67.628906 56.175781 68.167969 56.140625 68.191406 C 56.109375 68.214844 56.25 68.191406 56.453125 68.140625 C 56.792969 68.054688 56.804688 68.078125 56.621094 68.40625 C 56.503906 68.617188 55.894531 68.996094 55.144531 69.324219 C 53.882812 69.871094 53.070312 70.472656 52.421875 71.335938 C 52.164062 71.679688 52.148438 71.753906 52.351562 71.679688 C 52.496094 71.628906 52.613281 71.660156 52.613281 71.753906 C 52.613281 72.210938 52.179688 72.722656 51.539062 73.019531 C 50.117188 73.683594 47.621094 77.222656 46.285156 80.46875 C 45.6875 81.917969 45.699219 81.867188 46.023438 81.867188 C 46.363281 81.867188 46.339844 82.238281 45.871094 84.238281 C 45.1875 87.148438 45.1875 87.058594 45.929688 91.152344 C 46.835938 96.144531 47.367188 97.8125 48.375 98.847656 C 48.609375 99.089844 48.839844 99.605469 48.941406 100.121094 C 49.066406 100.742188 49.269531 101.148438 49.652344 101.539062 C 50.003906 101.890625 50.121094 102.109375 49.984375 102.15625 C 49.722656 102.25 50.546875 103.429688 51.300781 104.039062 C 51.679688 104.347656 51.960938 104.449219 52.265625 104.394531 C 52.933594 104.269531 53.613281 104.640625 54.65625 105.691406 C 55.742188 106.78125 55.851562 107.078125 55.132812 106.976562 C 54.667969 106.910156 54.660156 106.921875 54.886719 107.257812 C 55.019531 107.449219 55.5 107.910156 55.960938 108.28125 C 56.605469 108.804688 56.773438 109.03125 56.691406 109.277344 C 56.574219 109.628906 56.910156 109.957031 57.660156 110.234375 C 58.128906 110.402344 58.277344 110.773438 57.925781 110.886719 C 57.820312 110.917969 58.476562 111.566406 59.386719 112.328125 C 60.410156 113.183594 61.101562 113.652344 61.199219 113.558594 C 61.457031 113.320312 61.789062 113.390625 61.796875 113.691406 C 61.800781 114.019531 62.097656 114.363281 63.15625 115.285156 C 63.824219 115.863281 63.992188 115.9375 64.402344 115.828125 C 64.777344 115.730469 65.015625 115.792969 65.542969 116.136719 C 66.601562 116.820312 67.242188 117.09375 67.789062 117.09375 C 68.328125 117.09375 68.40625 117.242188 68.125 117.746094 C 67.976562 118.011719 68.007812 118.054688 68.347656 118.054688 C 68.566406 118.054688 69.183594 118.199219 69.714844 118.375 C 70.929688 118.777344 71.433594 118.804688 71.132812 118.453125 C 70.683594 117.933594 71.15625 118.074219 72.761719 118.9375 C 75.003906 120.144531 76.140625 120.28125 80.605469 119.890625 C 81.265625 119.832031 81.480469 119.867188 81.480469 120.03125 C 81.480469 120.167969 80.90625 120.378906 79.851562 120.621094 C 78.46875 120.945312 77.730469 121.003906 74.890625 121.039062 C 72.652344 121.066406 71.121094 121.007812 70.246094 120.863281 Z M 67.964844 96.855469 C 67.964844 96.824219 67.757812 96.675781 67.503906 96.527344 L 67.046875 96.257812 L 67.441406 96.589844 C 67.824219 96.910156 67.964844 96.980469 67.964844 96.855469 Z M 90.9375 80.074219 C 90.886719 79.945312 90.84375 79.984375 90.835938 80.171875 C 90.832031 80.339844 90.871094 80.433594 90.925781 80.382812 C 90.980469 80.328125 90.984375 80.191406 90.9375 80.074219 Z M 52.96875 63.171875 C 53.175781 62.917969 53.167969 62.910156 52.902344 63.109375 C 52.742188 63.230469 52.613281 63.355469 52.613281 63.390625 C 52.613281 63.523438 52.75 63.4375 52.96875 63.171875 Z M 54.863281 61.691406 C 55.03125 61.511719 55.128906 61.371094 55.082031 61.371094 C 55.039062 61.371094 54.863281 61.511719 54.699219 61.691406 C 54.53125 61.867188 54.433594 62.007812 54.480469 62.007812 C 54.527344 62.007812 54.699219 61.867188 54.863281 61.691406 Z M 56.964844 60.5625 C 57.515625 60.386719 57.828125 60.355469 57.945312 60.464844 C 58.058594 60.578125 58.492188 60.511719 59.292969 60.257812 C 59.9375 60.054688 60.4375 59.859375 60.402344 59.824219 C 60.367188 59.789062 59.832031 59.921875 59.21875 60.121094 C 58.371094 60.390625 58.070312 60.429688 57.976562 60.285156 C 57.816406 60.035156 56.296875 60.523438 55.644531 61.03125 L 55.199219 61.378906 L 55.679688 61.101562 C 55.941406 60.949219 56.519531 60.707031 56.964844 60.5625 Z M 61.777344 60.15625 C 62.261719 60.019531 62.628906 59.878906 62.59375 59.84375 C 62.515625 59.769531 60.789062 60.246094 60.789062 60.339844 C 60.789062 60.4375 60.804688 60.433594 61.777344 60.15625 Z M 64.542969 59.285156 L 65.210938 59.167969 L 64.625 59.152344 C 64.304688 59.144531 63.855469 59.25 63.625 59.382812 C 63.355469 59.542969 63.324219 59.589844 63.542969 59.515625 C 63.726562 59.453125 64.175781 59.347656 64.542969 59.285156 Z M 65.867188 58.980469 C 65.917969 58.902344 65.8125 58.875 65.628906 58.921875 C 65.238281 59.019531 65.1875 59.128906 65.535156 59.128906 C 65.667969 59.128906 65.816406 59.0625 65.867188 58.980469 Z M 71.253906 59.03125 C 71.199219 58.976562 71.054688 58.972656 70.9375 59.019531 C 70.804688 59.070312 70.84375 59.109375 71.035156 59.117188 C 71.214844 59.121094 71.3125 59.085938 71.257812 59.03125 Z M 70.257812 58.855469 C 70.097656 58.816406 69.835938 58.816406 69.675781 58.855469 C 69.511719 58.898438 69.644531 58.929688 69.964844 58.929688 C 70.289062 58.929688 70.417969 58.898438 70.257812 58.855469 Z M 68.59375 58.691406 C 68.253906 58.65625 67.652344 58.65625 67.257812 58.691406 C 66.867188 58.722656 67.144531 58.75 67.878906 58.753906 C 68.613281 58.753906 68.9375 58.726562 68.59375 58.691406 Z M 66.417969 58.550781 C 66.359375 58.496094 66.21875 58.492188 66.097656 58.539062 C 65.964844 58.589844 66.003906 58.628906 66.199219 58.636719 C 66.375 58.640625 66.472656 58.605469 66.417969 58.550781 Z M 65.289062 97.039062 C 63.585938 95.871094 62.957031 95.265625 62.957031 94.800781 C 62.957031 94.558594 63.015625 94.355469 63.085938 94.355469 C 63.328125 94.355469 66.167969 97.203125 66.105469 97.382812 C 66.070312 97.484375 65.726562 97.339844 65.289062 97.039062 Z M 64.414062 94.070312 C 63.53125 93.214844 63.246094 92.753906 63.605469 92.753906 C 63.816406 92.753906 65.460938 94.558594 65.460938 94.796875 C 65.460938 94.90625 65.441406 94.996094 65.414062 94.996094 C 65.386719 94.996094 64.9375 94.582031 64.414062 94.070312 Z M 74.179688 90.566406 C 73.714844 90.386719 74.003906 90.050781 74.761719 89.894531 C 75.199219 89.804688 75.890625 89.589844 76.304688 89.410156 C 76.714844 89.234375 77.078125 89.121094 77.117188 89.152344 C 77.152344 89.1875 76.964844 89.542969 76.703125 89.945312 C 76.226562 90.667969 76.21875 90.671875 75.304688 90.660156 C 74.800781 90.65625 74.292969 90.613281 74.179688 90.566406 Z M 79.183594 86.984375 C 78.734375 86.8125 78.714844 86.515625 79.09375 85.507812 C 79.414062 84.644531 79.75 84.472656 79.5625 85.269531 C 79.496094 85.554688 79.40625 85.96875 79.363281 86.1875 L 79.289062 86.589844 L 79.621094 86.226562 C 79.820312 86.007812 80 85.503906 80.070312 84.984375 C 80.132812 84.503906 80.25 84.152344 80.332031 84.199219 C 80.535156 84.320312 80.515625 85.585938 80.292969 86.4375 C 80.097656 87.183594 79.921875 87.269531 79.183594 86.984375 Z M 39.699219 84.976562 C 39.640625 84.835938 39.597656 84.289062 39.597656 83.761719 C 39.597656 83.0625 39.652344 82.816406 39.804688 82.867188 C 40.054688 82.945312 40.199219 85.230469 39.957031 85.230469 C 39.871094 85.230469 39.753906 85.113281 39.699219 84.976562 Z M 79.839844 81.230469 C 79.582031 80.894531 79.5 80.628906 79.574219 80.347656 C 79.726562 79.769531 80.121094 79.851562 80.414062 80.519531 C 80.867188 81.5625 80.472656 82.050781 79.839844 81.230469 Z M 39.664062 78.6875 C 39.652344 77.78125 39.664062 77.75 40.082031 77.765625 C 40.4375 77.777344 40.523438 77.871094 40.5625 78.273438 C 40.609375 78.726562 40.097656 79.625 39.792969 79.625 C 39.730469 79.625 39.671875 79.203125 39.664062 78.6875 Z M 82.917969 59.003906 C 82.941406 57.570312 83.191406 57.082031 83.386719 58.085938 C 83.523438 58.785156 83.351562 60.019531 83.085938 60.230469 C 82.941406 60.347656 82.898438 60.035156 82.917969 59.003906 Z M 60.992188 58.144531 C 61.058594 57.949219 63.359375 57.046875 63.785156 57.046875 C 64.285156 57.046875 63.390625 57.632812 62.355469 57.980469 C 61.207031 58.371094 60.898438 58.40625 60.992188 58.144531 Z M 60.992188 58.144531 "/>
<path style="fill:none;stroke-width:9;stroke-linecap:butt;stroke-linejoin:miter;stroke:rgb(100%,100%,100%);stroke-opacity:1;stroke-miterlimit:4;" d="M 119.445801 689.019895 L 119.918823 636.926389 C 119.918823 636.926389 159.805298 631.11279 160.324097 663.446164 C 160.827637 695.794797 119.445801 689.019895 119.445801 689.019895 Z M 119.445801 689.019895 " transform="matrix(0.256,0,0,0.256,0,-141.404718)"/>
<path style="fill:none;stroke-width:9;stroke-linecap:butt;stroke-linejoin:miter;stroke:rgb(100%,100%,100%);stroke-opacity:1;stroke-miterlimit:4;" d="M 228.19519 635.415769 L 228.19519 688.379025 L 248.397827 688.379025 C 248.397827 688.379025 264.190674 689.203 263.656616 674.417233 C 263.122559 659.646726 249.633789 659.936643 249.633789 659.936643 L 231.491089 659.936643 L 249.420166 659.738278 C 249.420166 659.738278 260.574341 659.433103 260.452271 647.058225 C 260.314941 634.683347 244.995117 635.415769 244.995117 635.415769 Z M 228.19519 635.415769 " transform="matrix(0.256,0,0,0.256,0,-141.404718)"/>
</g>
</svg>
