<?xml version="1.0" encoding="UTF-8"?>
<svg xmlns="http://www.w3.org/2000/svg" xmlns:xlink="http://www.w3.org/1999/xlink" width="128" height="128" viewBox="0 0 128 128" version="1.1">
<g id="surface1">
<path style=" stroke:none;fill-rule:evenodd;fill:rgb(0%,26.666667%,33.333333%);fill-opacity:1;" d="M 16.136719 39.386719 L 29.761719 52.722656 L 29.335938 34.023438 L 16.128906 33.960938 Z M 16.136719 39.386719 "/>
<path style="fill-rule:evenodd;fill:rgb(94.901961%,94.901961%,94.901961%);fill-opacity:1;stroke-width:5.03546;stroke-linecap:butt;stroke-linejoin:miter;stroke:rgb(68.627451%,68.627451%,68.627451%);stroke-opacity:1;stroke-miterlimit:4;" d="M 97.045898 1029.840207 L 433.929443 1028.66528 L 435.10437 664.773679 L 347.061157 575.570798 L 97.045898 575.570798 Z M 97.045898 1029.840207 " transform="matrix(0.256,0,0,0.256,0,-141.404718)"/>
<path style=" stroke:none;fill-rule:nonzero;fill:rgb(21.568627%,67.058824%,78.431373%);fill-opacity:1;" d="M 65.039062 57.453125 C 64.640625 58.519531 64.1875 59.597656 63.726562 60.628906 C 63.691406 60.71875 63.628906 60.792969 63.589844 60.882812 C 63.164062 61.820312 62.742188 62.703125 62.277344 63.613281 C 62.179688 63.800781 62.097656 63.996094 62 64.183594 C 61.578125 64.988281 61.136719 65.8125 60.6875 66.597656 C 60.53125 66.871094 60.363281 67.152344 60.203125 67.421875 C 56.207031 74.117188 50.953125 81.109375 46.800781 86.976562 C 43.515625 91.394531 41.621094 96.160156 41.066406 100.757812 C 41.066406 112.171875 51.789062 121.453125 65.039062 121.453125 C 78.292969 121.453125 89.011719 112.171875 89.011719 100.757812 C 89.011719 93.5625 83.273438 86.171875 76.648438 76.691406 C 74.550781 73.75 72.523438 70.652344 70.707031 67.738281 C 69.71875 66.144531 68.753906 64.503906 67.804688 62.789062 C 67.507812 62.253906 67.195312 61.683594 66.90625 61.136719 C 66.277344 59.949219 65.632812 58.703125 65.039062 57.453125 Z M 65.039062 57.453125 "/>
<path style=" stroke:none;fill-rule:nonzero;fill:rgb(0%,53.333333%,66.666667%);fill-opacity:1;" d="M 46.746094 86.976562 C 43.457031 91.394531 41.566406 96.160156 41.011719 100.757812 C 41.011719 112.171875 51.734375 121.453125 64.984375 121.453125 C 78.234375 121.453125 88.957031 112.171875 88.957031 100.757812 C 44.386719 114.085938 50.925781 84.515625 68.503906 89.570312 C 87.847656 95.128906 76.871094 81.582031 64.195312 80.148438 C 53.976562 78.996094 46.746094 86.976562 46.746094 86.976562 Z M 46.746094 86.976562 "/>
<path style="fill-rule:evenodd;fill:rgb(68.627451%,68.627451%,68.627451%);fill-opacity:1;stroke-width:5.03546;stroke-linecap:butt;stroke-linejoin:miter;stroke:rgb(68.627451%,68.627451%,68.627451%);stroke-opacity:1;stroke-miterlimit:4;" d="M 431.518555 662.927365 L 349.349976 662.347531 L 350.112915 578.546262 Z M 431.518555 662.927365 " transform="matrix(0.256,0,0,0.256,0,-141.404718)"/>
<path style=" stroke:none;fill-rule:nonzero;fill:rgb(0%,53.333333%,66.666667%);fill-opacity:1;" d="M 16.164062 17.875 L 73.746094 17.875 L 73.746094 39.46875 L 16.164062 39.46875 Z M 16.164062 17.875 "/>
<path style="fill:none;stroke-width:9;stroke-linecap:butt;stroke-linejoin:miter;stroke:rgb(100%,100%,100%);stroke-opacity:1;stroke-miterlimit:4;" d="M 133.345909 354.164729 L 133.284874 304.665218 " transform="matrix(0.256,0,0,0.256,-3.921709,-55.248202)"/>
<path style=" stroke:none;fill-rule:nonzero;fill:rgb(100%,100%,100%);fill-opacity:1;" d="M 29.109375 19.480469 L 31.378906 19.480469 L 31.378906 21.695312 L 29.109375 21.695312 Z M 29.109375 19.480469 "/>
<path style="fill:none;stroke-width:9;stroke-linecap:butt;stroke-linejoin:miter;stroke:rgb(100%,100%,100%);stroke-opacity:1;stroke-miterlimit:4;" d="M 122.799622 699.609358 L 122.799622 642.327864 " transform="matrix(0.256,0,0,0.256,8.098453,-143.822652)"/>
<path style="fill:none;stroke-width:8.670217;stroke-linecap:butt;stroke-linejoin:miter;stroke:rgb(100%,100%,100%);stroke-opacity:1;stroke-miterlimit:4;" d="M 96.218812 642.739852 L 149.380433 642.739852 " transform="matrix(0.256,0,0,0.256,8.098453,-143.822652)"/>
<path style="fill:none;stroke-width:9;stroke-linecap:butt;stroke-linejoin:miter;stroke:rgb(100%,100%,100%);stroke-opacity:1;stroke-miterlimit:4;" d="M 236.953735 633.371091 L 275.131226 633.950925 L 240.447998 689.035153 " transform="matrix(0.256,0,0,0.256,0,-141.404718)"/>
<path style="fill:none;stroke-width:9;stroke-linecap:round;stroke-linejoin:round;stroke:rgb(100%,100%,100%);stroke-opacity:1;stroke-miterlimit:4;" d="M 210.266113 686.502194 C 202.911377 686.822629 193.557739 683.557248 193.374634 672.906613 C 193.17627 662.255979 210.479736 659.097409 210.479736 659.097409 C 210.479736 659.097409 194.595337 654.245114 195.022583 644.876218 C 195.449829 635.52258 204.544067 632.318234 210.678101 632.516599 C 216.827393 632.714963 225.189209 635.980344 225.311279 645.700192 C 225.43335 655.420041 210.479736 658.273435 210.479736 658.273435 C 210.479736 658.273435 227.432251 662.667966 227.157593 672.906613 C 226.898193 683.145261 217.62085 686.18176 210.266113 686.502194 Z M 210.266113 686.502194 " transform="matrix(0.256,0,0,0.256,0,-141.404718)"/>
</g>
</svg>
