<?xml version="1.0" encoding="UTF-8"?>
<svg xmlns="http://www.w3.org/2000/svg" xmlns:xlink="http://www.w3.org/1999/xlink" width="128" height="128" viewBox="0 0 128 128" version="1.1">
<g id="surface1">
<path style=" stroke:none;fill-rule:evenodd;fill:rgb(20%,20%,20%);fill-opacity:1;" d="M 16.136719 38.105469 L 29.761719 51.441406 L 29.335938 32.742188 L 16.128906 32.679688 Z M 16.136719 38.105469 "/>
<path style="fill-rule:evenodd;fill:rgb(94.901961%,94.901961%,94.901961%);fill-opacity:1;stroke-width:5.03546;stroke-linecap:butt;stroke-linejoin:miter;stroke:rgb(68.627451%,68.627451%,68.627451%);stroke-opacity:1;stroke-miterlimit:4;" d="M 97.045898 1024.835324 L 433.929443 1023.660397 L 435.10437 659.768796 L 347.061157 570.565915 L 97.045898 570.565915 Z M 97.045898 1024.835324 " transform="matrix(0.256,0,0,0.256,0,-141.404718)"/>
<path style="fill-rule:evenodd;fill:rgb(68.627451%,68.627451%,68.627451%);fill-opacity:1;stroke-width:5.03546;stroke-linecap:butt;stroke-linejoin:miter;stroke:rgb(68.627451%,68.627451%,68.627451%);stroke-opacity:1;stroke-miterlimit:4;" d="M 431.518555 657.937741 L 349.349976 657.342648 L 350.112915 573.541379 Z M 431.518555 657.937741 " transform="matrix(0.256,0,0,0.256,0,-141.404718)"/>
<path style=" stroke:none;fill-rule:nonzero;fill:rgb(22.352941%,25.098039%,31.372549%);fill-opacity:1;" d="M 16.164062 16.59375 L 73.746094 16.59375 L 73.746094 38.1875 L 16.164062 38.1875 Z M 16.164062 16.59375 "/>
<path style="fill-rule:evenodd;fill:rgb(22.352941%,25.098039%,31.372549%);fill-opacity:1;stroke-width:11.346586;stroke-linecap:butt;stroke-linejoin:round;stroke:rgb(100%,100%,100%);stroke-opacity:1;stroke-miterlimit:4;" d="M 144.042969 810.312009 L 384.338379 810.312009 C 390.777588 810.312009 396.011353 815.530515 396.011353 821.984982 L 396.011353 1005.563474 C 396.011353 1012.017941 390.777588 1017.236447 384.338379 1017.236447 L 144.042969 1017.236447 C 137.588501 1017.236447 132.354736 1012.017941 132.354736 1005.563474 L 132.354736 821.984982 C 132.354736 815.530515 137.588501 810.312009 144.042969 810.312009 Z M 144.042969 810.312009 " transform="matrix(0.256,0,0,0.256,0,-141.404718)"/>
<path style=" stroke:none;fill-rule:nonzero;fill:rgb(100%,100%,100%);fill-opacity:1;" d="M 41.953125 82.351562 L 42.007812 81.171875 L 42.820312 80.910156 C 43.269531 80.765625 43.796875 80.582031 43.996094 80.496094 C 44.195312 80.410156 44.644531 80.246094 44.992188 80.125 C 45.339844 80.003906 45.789062 79.835938 45.988281 79.75 C 46.1875 79.664062 46.628906 79.527344 46.96875 79.445312 C 47.71875 79.261719 47.882812 78.933594 47.308594 78.773438 C 47.078125 78.707031 46.730469 78.585938 46.53125 78.5 C 46.332031 78.414062 45.679688 78.199219 45.082031 78.027344 C 44.484375 77.855469 43.914062 77.65625 43.816406 77.585938 C 43.714844 77.519531 43.25 77.351562 42.773438 77.214844 L 41.914062 76.96875 L 41.914062 74.523438 L 42.414062 74.722656 C 43.265625 75.0625 43.613281 75.195312 44.269531 75.417969 C 44.617188 75.539062 45.066406 75.703125 45.261719 75.785156 C 46.070312 76.121094 48.59375 76.984375 49.261719 77.195312 C 50.054688 77.445312 50.367188 77.578125 50.078125 77.503906 C 49.890625 77.457031 49.507812 77.246094 50.457031 77.589844 C 50.722656 77.6875 50.78125 77.765625 50.78125 79.003906 L 50.78125 80.414062 L 49.652344 80.800781 C 49.03125 81.011719 47.828125 81.441406 46.984375 81.75 C 46.136719 82.0625 44.648438 82.59375 43.671875 82.925781 L 41.898438 83.53125 Z M 41.953125 82.351562 "/>
<path style=" stroke:none;fill-rule:nonzero;fill:rgb(100%,100%,100%);fill-opacity:1;" d="M 52.953125 84.378906 L 52.953125 83.203125 L 62.546875 83.203125 L 62.546875 85.554688 L 52.953125 85.554688 Z M 52.953125 84.378906 "/>
<path style="fill:none;stroke-width:10;stroke-linecap:butt;stroke-linejoin:miter;stroke:rgb(100%,100%,100%);stroke-opacity:1;stroke-miterlimit:4;" d="M 182.2052 636.422849 C 182.2052 636.422849 172.943115 632.150388 164.138794 632.058835 C 155.334473 631.952023 149.871826 637.277341 149.581909 644.876218 C 149.276733 652.459836 153.503418 658.532834 168.655396 660.318112 C 183.822632 662.103391 182.907104 675.317502 181.045532 679.986691 C 179.18396 684.655881 170.349121 689.065671 161.376953 687.860227 C 152.404785 686.639523 144.91272 682.611203 144.91272 682.611203 " transform="matrix(0.256,0,0,0.256,0,-141.404718)"/>
<path style="fill:none;stroke-width:9;stroke-linecap:butt;stroke-linejoin:miter;stroke:rgb(100%,100%,100%);stroke-opacity:1;stroke-miterlimit:4;" d="M 311.206687 528.440849 L 311.496604 582.945243 " transform="matrix(0.256,0,0,0.256,-28.340787,-114.636326)"/>
<path style="fill:none;stroke-width:9;stroke-linecap:butt;stroke-linejoin:miter;stroke:rgb(100%,100%,100%);stroke-opacity:1;stroke-miterlimit:4;" d="M 346.286644 527.967826 L 346.576561 582.456962 " transform="matrix(0.256,0,0,0.256,-28.340787,-114.636326)"/>
<path style="fill:none;stroke-width:9;stroke-linecap:butt;stroke-linejoin:miter;stroke:rgb(100%,100%,100%);stroke-opacity:1;stroke-miterlimit:4;" d="M 310.886253 555.036918 L 347.507347 555.036918 " transform="matrix(0.256,0,0,0.256,-28.340787,-114.636326)"/>
</g>
</svg>
