<?xml version="1.0" encoding="UTF-8"?>
<svg xmlns="http://www.w3.org/2000/svg" xmlns:xlink="http://www.w3.org/1999/xlink" width="128" height="128" viewBox="0 0 128 128" version="1.1">
<g id="surface1">
<path style=" stroke:none;fill-rule:evenodd;fill:rgb(10.196078%,10.196078%,10.196078%);fill-opacity:1;" d="M 16.136719 39.386719 L 29.761719 52.722656 L 29.335938 34.023438 L 16.128906 33.960938 Z M 16.136719 39.386719 "/>
<path style="fill-rule:evenodd;fill:rgb(94.901961%,94.901961%,94.901961%);fill-opacity:1;stroke-width:5.03546;stroke-linecap:butt;stroke-linejoin:miter;stroke:rgb(68.627451%,68.627451%,68.627451%);stroke-opacity:1;stroke-miterlimit:4;" d="M 97.045898 1029.840207 L 433.929443 1028.66528 L 435.10437 664.773679 L 347.061157 575.570798 L 97.045898 575.570798 Z M 97.045898 1029.840207 " transform="matrix(0.256,0,0,0.256,0,-141.404718)"/>
<path style="fill-rule:evenodd;fill:rgb(68.627451%,68.627451%,68.627451%);fill-opacity:1;stroke-width:5.03546;stroke-linecap:butt;stroke-linejoin:miter;stroke:rgb(68.627451%,68.627451%,68.627451%);stroke-opacity:1;stroke-miterlimit:4;" d="M 431.518555 662.927365 L 349.349976 662.347531 L 350.112915 578.546262 Z M 431.518555 662.927365 " transform="matrix(0.256,0,0,0.256,0,-141.404718)"/>
<path style=" stroke:none;fill-rule:nonzero;fill:rgb(20%,20%,20%);fill-opacity:1;" d="M 16.164062 17.875 L 73.746094 17.875 L 73.746094 39.46875 L 16.164062 39.46875 Z M 16.164062 17.875 "/>
<path style=" stroke:none;fill-rule:evenodd;fill:rgb(20%,20%,20%);fill-opacity:1;" d="M 53.460938 62.21875 L 53.460938 104.882812 C 51.652344 103.195312 49.289062 102.105469 46.804688 102.105469 C 41.582031 102.105469 36.835938 106.855469 36.835938 112.078125 C 36.835938 117.300781 41.582031 122.050781 46.804688 122.050781 C 52.027344 122.050781 56.789062 117.300781 56.789062 112.078125 L 56.789062 62.21875 Z M 53.460938 62.21875 "/>
<path style=" stroke:none;fill-rule:evenodd;fill:rgb(20%,20%,20%);fill-opacity:1;" d="M 86.316406 58.398438 L 86.316406 101.066406 C 84.507812 99.378906 82.144531 98.285156 79.660156 98.289062 C 74.4375 98.289062 69.691406 103.039062 69.691406 108.257812 C 69.691406 113.480469 74.4375 118.230469 79.660156 118.230469 C 84.882812 118.230469 89.644531 113.480469 89.644531 108.257812 L 89.644531 58.398438 Z M 86.316406 58.398438 "/>
<path style=" stroke:none;fill-rule:nonzero;fill:rgb(20%,20%,20%);fill-opacity:1;" d="M 53.585938 62.261719 L 89.175781 58.050781 L 89.628906 61.882812 L 54.039062 66.09375 Z M 53.585938 62.261719 "/>
<path style="fill:none;stroke-width:9;stroke-linecap:butt;stroke-linejoin:miter;stroke:rgb(100%,100%,100%);stroke-opacity:1;stroke-miterlimit:4;" d="M 130.859375 691.201901 C 118.835449 691.09509 107.513428 679.010129 107.437134 663.720822 C 107.376099 648.416257 119.430542 636.132932 131.576538 636.468625 C 143.722534 636.819577 154.327393 648.385739 154.525757 664.666867 C 154.73938 680.963254 142.883301 691.308713 130.859375 691.201901 Z M 130.859375 691.201901 " transform="matrix(0.256,0,0,0.256,0,-141.404718)"/>
<path style="fill:none;stroke-width:9;stroke-linecap:butt;stroke-linejoin:miter;stroke:rgb(100%,100%,100%);stroke-opacity:1;stroke-miterlimit:4;" d="M 218.902588 643.823361 C 218.902588 643.823361 211.654663 636.14819 196.182251 636.255002 C 180.709839 636.361813 172.622681 652.15466 172.866821 664.514279 C 173.126221 676.873898 183.837891 689.981198 196.075439 691.247678 C 208.312988 692.514157 217.453003 686.074948 217.453003 686.074948 L 216.873169 665.979123 L 200.119019 666.192746 " transform="matrix(0.256,0,0,0.256,0,-141.404718)"/>
<path style="fill:none;stroke-width:9;stroke-linecap:butt;stroke-linejoin:bevel;stroke:rgb(100%,100%,100%);stroke-opacity:1;stroke-miterlimit:4;" d="M 915.691285 696.27998 L 937.842499 638.008044 L 960.569463 696.27998 " transform="matrix(0.257816,0,0,0.257816,-176.982208,-142.883213)"/>
<path style="fill:none;stroke-width:9;stroke-linecap:butt;stroke-linejoin:miter;stroke:rgb(100%,100%,100%);stroke-opacity:1;stroke-miterlimit:4;" d="M 924.585103 676.765093 L 950.372632 676.765093 " transform="matrix(0.257816,0,0,0.257816,-176.982208,-142.883213)"/>
</g>
</svg>
