<?xml version="1.0" encoding="UTF-8"?>
<svg xmlns="http://www.w3.org/2000/svg" xmlns:xlink="http://www.w3.org/1999/xlink" width="128" height="128" viewBox="0 0 128 128" version="1.1">
<g id="surface1">
<path style=" stroke:none;fill-rule:evenodd;fill:rgb(10.196078%,10.196078%,10.196078%);fill-opacity:1;" d="M 16.136719 39.386719 L 29.761719 52.722656 L 29.335938 34.023438 L 16.128906 33.960938 Z M 16.136719 39.386719 "/>
<path style="fill-rule:evenodd;fill:rgb(94.901961%,94.901961%,94.901961%);fill-opacity:1;stroke-width:5.03546;stroke-linecap:butt;stroke-linejoin:miter;stroke:rgb(68.627451%,68.627451%,68.627451%);stroke-opacity:1;stroke-miterlimit:4;" d="M 97.045898 1029.840207 L 433.929443 1028.66528 L 435.10437 664.773679 L 347.061157 575.570798 L 97.045898 575.570798 Z M 97.045898 1029.840207 " transform="matrix(0.256,0,0,0.256,0,-141.404718)"/>
<path style="fill-rule:evenodd;fill:rgb(68.627451%,68.627451%,68.627451%);fill-opacity:1;stroke-width:5.03546;stroke-linecap:butt;stroke-linejoin:miter;stroke:rgb(68.627451%,68.627451%,68.627451%);stroke-opacity:1;stroke-miterlimit:4;" d="M 431.518555 662.927365 L 349.349976 662.347531 L 350.112915 578.546262 Z M 431.518555 662.927365 " transform="matrix(0.256,0,0,0.256,0,-141.404718)"/>
<path style=" stroke:none;fill-rule:nonzero;fill:rgb(20%,20%,20%);fill-opacity:1;" d="M 16.164062 17.875 L 73.746094 17.875 L 73.746094 39.46875 L 16.164062 39.46875 Z M 16.164062 17.875 "/>
<path style=" stroke:none;fill-rule:evenodd;fill:rgb(20%,20%,20%);fill-opacity:1;" d="M 53.460938 62.21875 L 53.460938 104.882812 C 51.652344 103.195312 49.289062 102.105469 46.804688 102.105469 C 41.582031 102.105469 36.835938 106.855469 36.835938 112.078125 C 36.835938 117.300781 41.582031 122.050781 46.804688 122.050781 C 52.027344 122.050781 56.789062 117.300781 56.789062 112.078125 L 56.789062 62.21875 Z M 53.460938 62.21875 "/>
<path style=" stroke:none;fill-rule:evenodd;fill:rgb(20%,20%,20%);fill-opacity:1;" d="M 86.316406 58.398438 L 86.316406 101.066406 C 84.507812 99.378906 82.144531 98.285156 79.660156 98.289062 C 74.4375 98.289062 69.691406 103.039062 69.691406 108.257812 C 69.691406 113.480469 74.4375 118.230469 79.660156 118.230469 C 84.882812 118.230469 89.644531 113.480469 89.644531 108.257812 L 89.644531 58.398438 Z M 86.316406 58.398438 "/>
<path style=" stroke:none;fill-rule:nonzero;fill:rgb(20%,20%,20%);fill-opacity:1;" d="M 53.585938 62.261719 L 89.175781 58.050781 L 89.628906 61.882812 L 54.039062 66.09375 Z M 53.585938 62.261719 "/>
<path style="fill:none;stroke-width:9;stroke-linecap:butt;stroke-linejoin:miter;stroke:rgb(100%,100%,100%);stroke-opacity:1;stroke-miterlimit:4;" d="M 122.177124 694.635129 L 122.467041 640.069699 L 127.502441 639.856076 L 143.386841 681.161618 L 146.728516 681.161618 L 162.689209 639.856076 L 167.922974 639.779782 L 167.922974 694.787717 " transform="matrix(0.256,0,0,0.256,0,-141.404718)"/>
<path style="fill:none;stroke-width:8.069904;stroke-linecap:butt;stroke-linejoin:miter;stroke:rgb(100%,100%,100%);stroke-opacity:1;stroke-miterlimit:4;" d="M 186.61499 652.765012 C 186.61499 652.765012 189.453125 638.253903 202.407837 637.963986 C 214.248657 637.689328 219.192505 644.906735 218.780518 651.376462 C 217.987061 663.644528 201.950073 664.575314 201.950073 664.575314 C 201.950073 664.575314 218.566895 667.199826 218.597412 676.431394 C 218.643188 685.662961 215.515137 692.056394 201.35498 692.056394 C 187.210083 692.041135 186.813354 676.400876 186.813354 676.400876 " transform="matrix(0.256,0,0,0.256,0,-141.404718)"/>
<path style="fill:none;stroke-width:9;stroke-linecap:butt;stroke-linejoin:miter;stroke:rgb(100%,100%,100%);stroke-opacity:1;stroke-miterlimit:4;" d="M 234.024048 636.52966 L 234.024048 675.058103 C 234.024048 675.058103 233.444214 692.468381 253.189087 692.575192 C 272.93396 692.697263 271.728516 675.683713 271.728516 675.683713 L 271.316528 636.52966 " transform="matrix(0.256,0,0,0.256,0,-141.404718)"/>
</g>
</svg>
