<?xml version="1.0" encoding="UTF-8"?>
<svg xmlns="http://www.w3.org/2000/svg" xmlns:xlink="http://www.w3.org/1999/xlink" width="128" height="128" viewBox="0 0 128 128" version="1.1">
<g id="surface1">
<path style=" stroke:none;fill-rule:evenodd;fill:rgb(50.196078%,20%,0%);fill-opacity:1;" d="M 16.136719 38.105469 L 29.761719 51.441406 L 29.335938 32.742188 L 16.128906 32.679688 Z M 16.136719 38.105469 "/>
<path style="fill-rule:evenodd;fill:rgb(94.901961%,94.901961%,94.901961%);fill-opacity:1;stroke-width:5.03546;stroke-linecap:butt;stroke-linejoin:miter;stroke:rgb(68.627451%,68.627451%,68.627451%);stroke-opacity:1;stroke-miterlimit:4;" d="M 97.045898 1024.835324 L 433.929443 1023.660397 L 435.10437 659.768796 L 347.061157 570.565915 L 97.045898 570.565915 Z M 97.045898 1024.835324 " transform="matrix(0.256,0,0,0.256,0,-141.404718)"/>
<path style="fill-rule:evenodd;fill:rgb(68.627451%,68.627451%,68.627451%);fill-opacity:1;stroke-width:5.03546;stroke-linecap:butt;stroke-linejoin:miter;stroke:rgb(68.627451%,68.627451%,68.627451%);stroke-opacity:1;stroke-miterlimit:4;" d="M 431.518555 657.937741 L 349.349976 657.342648 L 350.112915 573.541379 Z M 431.518555 657.937741 " transform="matrix(0.256,0,0,0.256,0,-141.404718)"/>
<path style=" stroke:none;fill-rule:nonzero;fill:rgb(100%,40%,0%);fill-opacity:1;" d="M 16.164062 16.59375 L 74.429688 16.59375 L 74.429688 38.1875 L 16.164062 38.1875 Z M 16.164062 16.59375 "/>
<path style="fill-rule:nonzero;fill:rgb(0%,73.333333%,94.901961%);fill-opacity:1;stroke-width:6.833039;stroke-linecap:round;stroke-linejoin:round;stroke:rgb(100%,100%,100%);stroke-opacity:1;stroke-miterlimit:4;" d="M 141.278705 807.744902 L 352.769338 807.739316 L 352.765923 983.444754 L 141.275289 983.450339 Z M 141.278705 807.744902 " transform="matrix(0.255977,-0.00342867,0.00342867,0.255977,0,-141.404718)"/>
<path style="fill-rule:nonzero;fill:rgb(100%,40%,0%);fill-opacity:1;stroke-width:6.833039;stroke-linecap:round;stroke-linejoin:round;stroke:rgb(100%,100%,100%);stroke-opacity:1;stroke-miterlimit:4;" d="M -269.540805 827.272678 L -58.041515 827.268233 L -58.046593 1002.968242 L -269.545883 1002.972687 Z M -269.540805 827.272678 " transform="matrix(0.228191,-0.116038,0.116038,0.228191,0,-141.404718)"/>
<path style=" stroke:none;fill-rule:nonzero;fill:rgb(98.039216%,92.54902%,42.745098%);fill-opacity:1;" d="M 55.65625 82.601562 C 57.011719 85.265625 55.910156 88.542969 53.195312 89.925781 C 50.484375 91.308594 47.183594 90.277344 45.824219 87.617188 C 44.460938 84.957031 45.554688 81.675781 48.265625 80.285156 C 50.976562 78.894531 54.277344 79.921875 55.644531 82.578125 "/>
<path style="fill-rule:nonzero;fill:rgb(50.196078%,20%,0%);fill-opacity:1;stroke-width:0.28471;stroke-linecap:butt;stroke-linejoin:miter;stroke:rgb(0%,0%,0%);stroke-opacity:1;stroke-miterlimit:4;" d="M 186.431885 953.775144 L 215.637207 1011.834836 L 398.55957 918.512082 L 373.657227 870.828366 C 373.657227 870.828366 352.523804 893.228269 328.720093 901.742673 C 304.916382 910.272336 256.256104 898.965573 231.933594 909.997678 C 207.595825 921.014523 186.431885 953.775144 186.431885 953.775144 Z M 186.431885 953.775144 " transform="matrix(0.256,0,0,0.256,0,-141.404718)"/>
</g>
</svg>
