<?xml version="1.0" encoding="UTF-8"?>
<svg xmlns="http://www.w3.org/2000/svg" xmlns:xlink="http://www.w3.org/1999/xlink" width="128" height="128" viewBox="0 0 128 128" version="1.1">
<g id="surface1">
<path style=" stroke:none;fill-rule:evenodd;fill:rgb(0%,54.509804%,74.509804%);fill-opacity:1;" d="M 16.136719 39.386719 L 29.761719 52.722656 L 29.335938 34.023438 L 16.128906 33.960938 Z M 16.136719 39.386719 "/>
<path style="fill-rule:evenodd;fill:rgb(94.901961%,94.901961%,94.901961%);fill-opacity:1;stroke-width:5.03546;stroke-linecap:butt;stroke-linejoin:miter;stroke:rgb(68.627451%,68.627451%,68.627451%);stroke-opacity:1;stroke-miterlimit:4;" d="M 97.045898 1029.840207 L 433.929443 1028.66528 L 435.10437 664.773679 L 347.061157 575.570798 L 97.045898 575.570798 Z M 97.045898 1029.840207 " transform="matrix(0.256,0,0,0.256,0,-141.404718)"/>
<path style="fill-rule:evenodd;fill:rgb(68.627451%,68.627451%,68.627451%);fill-opacity:1;stroke-width:5.03546;stroke-linecap:butt;stroke-linejoin:miter;stroke:rgb(68.627451%,68.627451%,68.627451%);stroke-opacity:1;stroke-miterlimit:4;" d="M 431.518555 662.927365 L 349.349976 662.347531 L 350.112915 578.546262 Z M 431.518555 662.927365 " transform="matrix(0.256,0,0,0.256,0,-141.404718)"/>
<path style=" stroke:none;fill-rule:nonzero;fill:rgb(0%,73.333333%,94.901961%);fill-opacity:1;" d="M 16.164062 17.875 L 74.429688 17.875 L 74.429688 39.46875 L 16.164062 39.46875 Z M 16.164062 17.875 "/>
<path style="fill:none;stroke-width:9;stroke-linecap:butt;stroke-linejoin:miter;stroke:rgb(100%,100%,100%);stroke-opacity:1;stroke-miterlimit:4;" d="M 133.337145 354.152317 L 133.291368 304.668064 " transform="matrix(0.256,0,0,0.256,4.037566,-54.393462)"/>
<path style=" stroke:none;fill-rule:nonzero;fill:rgb(100%,100%,100%);fill-opacity:1;" d="M 37.070312 20.332031 L 39.335938 20.332031 L 39.335938 22.546875 L 37.070312 22.546875 Z M 37.070312 20.332031 "/>
<path style="fill-rule:nonzero;fill:rgb(100%,40%,0%);fill-opacity:1;stroke-width:6.211854;stroke-linecap:round;stroke-linejoin:round;stroke:rgb(100%,100%,100%);stroke-opacity:1;stroke-miterlimit:4;" d="M 149.0011 832.752921 L 341.263907 832.749211 L 341.260857 992.477266 L 148.998051 992.480975 Z M 149.0011 832.752921 " transform="matrix(0.255977,-0.00342867,0.00342867,0.255977,0,-141.404718)"/>
<path style="fill-rule:nonzero;fill:rgb(0%,73.333333%,94.901961%);fill-opacity:1;stroke-width:6.211854;stroke-linecap:round;stroke-linejoin:round;stroke:rgb(100%,100%,100%);stroke-opacity:1;stroke-miterlimit:4;" d="M -270.025826 849.468176 L -77.75693 849.476521 L -77.755993 1009.208182 L -270.024889 1009.199837 Z M -270.025826 849.468176 " transform="matrix(0.228191,-0.116038,0.116038,0.228191,0,-141.404718)"/>
<path style=" stroke:none;fill-rule:nonzero;fill:rgb(100%,100%,100%);fill-opacity:1;" d="M 77.820312 98.753906 C 74.804688 99.476562 72.082031 100.128906 71.773438 100.199219 L 71.214844 100.328125 L 67.582031 92.460938 L 70.859375 90.980469 C 72.664062 90.167969 75.242188 89.023438 76.589844 88.4375 L 79.039062 87.371094 L 81.332031 92.339844 C 83.492188 97.015625 83.617188 97.3125 83.46875 97.371094 C 83.378906 97.40625 80.839844 98.027344 77.820312 98.753906 Z M 65.878906 101.625 L 62.144531 102.535156 L 59.175781 96.230469 L 62.644531 94.679688 C 64.546875 93.828125 66.121094 93.132812 66.140625 93.136719 C 66.15625 93.140625 66.945312 94.847656 67.890625 96.929688 L 69.613281 100.714844 Z M 57.175781 91.886719 C 56.375 90.152344 55.730469 88.726562 55.742188 88.71875 C 55.757812 88.714844 57.128906 87.714844 58.789062 86.503906 C 60.449219 85.292969 61.859375 84.277344 61.921875 84.25 C 62.011719 84.207031 62.382812 84.949219 63.773438 87.960938 L 65.511719 91.722656 L 63.738281 92.613281 C 62.765625 93.105469 61.214844 93.851562 60.300781 94.273438 L 58.632812 95.042969 Z M 65.136719 87.171875 L 63.3125 83.222656 L 68.34375 79.570312 C 71.109375 77.566406 73.433594 75.871094 73.507812 75.808594 C 73.636719 75.699219 73.773438 75.972656 75.964844 80.722656 L 78.289062 85.75 L 75.28125 87.140625 C 73.625 87.90625 71.078125 89.113281 69.617188 89.828125 L 66.960938 91.125 Z M 65.136719 87.171875 "/>
<path style="fill:none;stroke-width:9;stroke-linecap:butt;stroke-linejoin:miter;stroke:rgb(100%,100%,100%);stroke-opacity:1;stroke-miterlimit:4;" d="M 213.043213 642.099118 C 213.043213 642.099118 205.429077 635.278439 191.52832 636.361813 C 177.642822 637.445187 169.754028 653.283811 170.501709 665.277219 C 171.24939 677.285886 181.762695 691.552854 195.358276 690.377927 C 208.953857 689.203 213.043213 684.41174 213.043213 684.41174 " transform="matrix(0.256,0,0,0.256,0,-141.404718)"/>
<path style="fill:none;stroke-width:9;stroke-linecap:butt;stroke-linejoin:miter;stroke:rgb(100%,100%,100%);stroke-opacity:1;stroke-miterlimit:4;" d="M 247.955322 690.71362 C 235.931396 690.622067 224.609375 678.537106 224.533081 663.232541 C 224.456787 647.943234 236.526489 635.64465 248.672485 635.995603 C 260.818481 636.331296 271.408081 647.912717 271.621704 664.193845 C 271.820068 680.474973 259.979248 690.820432 247.955322 690.71362 Z M 247.955322 690.71362 " transform="matrix(0.256,0,0,0.256,0,-141.404718)"/>
</g>
</svg>
