<?xml version="1.0" encoding="UTF-8"?>
<svg xmlns="http://www.w3.org/2000/svg" xmlns:xlink="http://www.w3.org/1999/xlink" width="128" height="128" viewBox="0 0 128 128" version="1.1">
<g id="surface1">
<path style=" stroke:none;fill-rule:evenodd;fill:rgb(0%,52.941176%,73.72549%);fill-opacity:1;" d="M 16.175781 39.535156 L 29.800781 52.871094 L 29.375 34.171875 L 16.167969 34.109375 Z M 16.175781 39.535156 "/>
<path style="fill-rule:evenodd;fill:rgb(94.901961%,94.901961%,94.901961%);fill-opacity:1;stroke-width:5.03546;stroke-linecap:butt;stroke-linejoin:miter;stroke:rgb(68.627451%,68.627451%,68.627451%);stroke-opacity:1;stroke-miterlimit:4;" d="M 96.908569 1029.840207 L 433.792114 1028.66528 L 434.967041 664.773679 L 346.923828 575.570798 L 96.908569 575.570798 Z M 96.908569 1029.840207 " transform="matrix(0.256,0,0,0.256,0,-141.404718)"/>
<path style="fill-rule:evenodd;fill:rgb(68.627451%,68.627451%,68.627451%);fill-opacity:1;stroke-width:5.03546;stroke-linecap:butt;stroke-linejoin:miter;stroke:rgb(68.627451%,68.627451%,68.627451%);stroke-opacity:1;stroke-miterlimit:4;" d="M 431.381226 662.927365 L 349.212646 662.347531 L 349.975586 578.546262 Z M 431.381226 662.927365 " transform="matrix(0.256,0,0,0.256,0,-141.404718)"/>
<path style=" stroke:none;fill-rule:nonzero;fill:rgb(0%,73.333333%,94.901961%);fill-opacity:1;" d="M 16.128906 17.875 L 72.742188 17.875 L 72.742188 39.46875 L 16.128906 39.46875 Z M 16.128906 17.875 "/>
<path style=" stroke:none;fill-rule:nonzero;fill:rgb(97.647059%,97.647059%,97.647059%);fill-opacity:1;" d="M 60.828125 64.871094 C 60.828125 67.078125 59.035156 68.867188 56.828125 68.867188 C 54.621094 68.867188 52.832031 67.078125 52.832031 64.871094 C 52.832031 62.664062 54.621094 60.871094 56.828125 60.871094 C 59.035156 60.871094 60.828125 62.664062 60.828125 64.871094 M 60.828125 64.871094 "/>
<path style=" stroke:none;fill-rule:nonzero;fill:rgb(0%,73.333333%,94.901961%);fill-opacity:1;" d="M 66.140625 56.914062 C 63.503906 56.925781 60.984375 57.15625 58.765625 57.539062 C 52.234375 58.683594 51.046875 61.066406 51.046875 65.476562 L 51.046875 71.296875 L 66.480469 71.296875 L 66.480469 73.234375 L 45.257812 73.234375 C 40.765625 73.234375 36.84375 75.902344 35.613281 80.972656 C 34.199219 86.785156 34.125 90.417969 35.613281 96.476562 C 36.707031 100.996094 39.320312 104.214844 43.808594 104.214844 L 48.347656 104.214844 L 48.347656 96.488281 C 48.347656 91.457031 52.765625 87.042969 58.003906 87.042969 L 74.160156 87.042969 C 78.449219 87.042969 82.511719 83.542969 82.511719 79.285156 L 82.511719 65.507812 C 82.511719 61.371094 78.355469 58.257812 74.160156 57.570312 C 71.515625 57.132812 68.765625 56.9375 66.132812 56.945312 M 57.792969 61.589844 C 59.386719 61.589844 60.6875 62.902344 60.6875 64.519531 C 60.6875 66.121094 59.386719 67.414062 57.792969 67.414062 C 56.1875 67.414062 54.886719 66.121094 54.886719 64.519531 C 54.886719 62.90625 56.175781 61.589844 57.792969 61.589844 M 57.792969 61.589844 "/>
<path style=" stroke:none;fill-rule:nonzero;fill:rgb(97.647059%,97.647059%,97.647059%);fill-opacity:1;" d="M 79.5 112.859375 C 79.5 115.066406 77.710938 116.855469 75.503906 116.855469 C 73.285156 116.855469 71.492188 115.066406 71.492188 112.859375 C 71.492188 110.648438 73.285156 108.859375 75.503906 108.859375 C 77.710938 108.859375 79.5 110.648438 79.5 112.859375 M 79.5 112.859375 "/>
<path style=" stroke:none;fill-rule:nonzero;fill:rgb(100%,83.137255%,16.470588%);fill-opacity:1;" d="M 84.707031 73.230469 L 84.707031 80.011719 C 84.707031 85.257812 80.199219 89.0625 75.066406 89.0625 L 58.128906 89.0625 C 53.914062 89.0625 50.414062 93.269531 50.414062 97.445312 L 50.414062 111.984375 C 50.414062 116.117188 54.046875 118.542969 58.128906 119.730469 C 63.015625 121.144531 68.335938 121.417969 74.179688 119.730469 C 78.0625 118.617188 81.898438 116.375 81.898438 111.984375 L 81.898438 106.160156 L 66.484375 106.160156 L 66.484375 104.222656 L 89.625 104.222656 C 94.105469 104.222656 95.78125 101.121094 97.34375 96.484375 C 98.957031 91.707031 98.875 87.101562 97.34375 80.980469 C 96.230469 76.554688 94.117188 73.242188 89.625 73.242188 M 75.160156 110.046875 C 76.753906 110.046875 78.054688 111.339844 78.054688 112.941406 C 78.054688 114.546875 76.765625 115.871094 75.160156 115.871094 C 73.554688 115.871094 72.253906 114.546875 72.253906 112.941406 C 72.253906 111.339844 73.554688 110.046875 75.160156 110.046875 M 75.160156 110.046875 "/>
<path style="fill:none;stroke-width:9.063828;stroke-linecap:butt;stroke-linejoin:miter;stroke:rgb(100%,100%,100%);stroke-opacity:1;stroke-miterlimit:4;" d="M 162.67395 695.901608 L 162.67395 639.459348 C 162.67395 639.459348 193.481445 633.50842 193.374634 653.772092 C 193.267822 674.035764 163.284302 668.512082 163.284302 668.512082 " transform="matrix(0.256,0,0,0.256,0,-141.404718)"/>
<path style="fill:none;stroke-width:9;stroke-linecap:butt;stroke-linejoin:miter;stroke:rgb(100%,100%,100%);stroke-opacity:1;stroke-miterlimit:4;" d="M 516.181924 313.186666 L 536.64396 342.483541 L 556.343057 313.186666 " transform="matrix(0.256,0,0,0.256,-79.47851,-58.871099)"/>
<path style="fill:none;stroke-width:9;stroke-linecap:butt;stroke-linejoin:miter;stroke:rgb(100%,100%,100%);stroke-opacity:1;stroke-miterlimit:4;" d="M 536.613442 342.453023 L 536.384561 371.261617 " transform="matrix(0.256,0,0,0.256,-79.47851,-58.871099)"/>
</g>
</svg>
