<?xml version="1.0" encoding="UTF-8"?>
<svg xmlns="http://www.w3.org/2000/svg" xmlns:xlink="http://www.w3.org/1999/xlink" width="128" height="128" viewBox="0 0 128 128" version="1.1">
<g id="surface1">
<path style=" stroke:none;fill-rule:evenodd;fill:rgb(10.196078%,10.196078%,10.196078%);fill-opacity:1;" d="M 16.175781 39.535156 L 29.800781 52.871094 L 29.375 34.171875 L 16.167969 34.109375 Z M 16.175781 39.535156 "/>
<path style="fill-rule:evenodd;fill:rgb(94.901961%,94.901961%,94.901961%);fill-opacity:1;stroke-width:5.03546;stroke-linecap:butt;stroke-linejoin:miter;stroke:rgb(68.627451%,68.627451%,68.627451%);stroke-opacity:1;stroke-miterlimit:4;" d="M 96.908569 1029.840207 L 433.792114 1028.66528 L 434.967041 664.773679 L 346.923828 575.570798 L 96.908569 575.570798 Z M 96.908569 1029.840207 " transform="matrix(0.256,0,0,0.256,0,-141.404718)"/>
<path style="fill-rule:evenodd;fill:rgb(68.627451%,68.627451%,68.627451%);fill-opacity:1;stroke-width:5.03546;stroke-linecap:butt;stroke-linejoin:miter;stroke:rgb(68.627451%,68.627451%,68.627451%);stroke-opacity:1;stroke-miterlimit:4;" d="M 431.381226 662.927365 L 349.212646 662.347531 L 349.975586 578.546262 Z M 431.381226 662.927365 " transform="matrix(0.256,0,0,0.256,0,-141.404718)"/>
<path style=" stroke:none;fill-rule:nonzero;fill:rgb(22.352941%,25.098039%,31.372549%);fill-opacity:1;" d="M 16.128906 17.875 L 75.800781 17.875 L 75.800781 39.46875 L 16.128906 39.46875 Z M 16.128906 17.875 "/>
<path style="fill-rule:nonzero;fill:rgb(98.039216%,92.54902%,42.745098%);fill-opacity:1;stroke-width:13.157895;stroke-linecap:butt;stroke-linejoin:miter;stroke:rgb(22.352941%,25.098039%,31.372549%);stroke-opacity:1;stroke-miterlimit:4;" d="M 380.233765 902.368283 C 380.233765 967.752194 327.224731 1020.776486 261.825562 1020.776486 C 196.426392 1020.791745 143.4021 967.782712 143.386841 902.383542 C 143.386841 836.984372 196.380615 783.96008 261.779785 783.944821 C 327.178955 783.929562 380.203247 836.923337 380.233765 902.322507 " transform="matrix(0.256,0,0,0.256,0,-141.404718)"/>
<path style=" stroke:none;fill-rule:nonzero;fill:rgb(22.352941%,25.098039%,31.372549%);fill-opacity:1;" d="M 58.210938 85.171875 L 72.359375 85.132812 L 72.460938 104.019531 C 72.460938 104.019531 72.421875 104.507812 72.789062 104.90625 C 73.152344 105.304688 73.515625 105.316406 73.515625 105.316406 L 76.671875 105.332031 L 76.699219 107.625 L 58.722656 107.582031 L 58.695312 105.257812 L 62.371094 105.273438 C 62.371094 105.273438 62.882812 105.210938 63.175781 104.792969 C 63.464844 104.375 63.394531 103.917969 63.394531 103.917969 L 63.378906 88.652344 C 63.378906 88.652344 63.429688 88.269531 62.90625 87.824219 C 62.386719 87.378906 61.894531 87.425781 61.894531 87.425781 L 58.234375 87.382812 Z M 58.210938 85.171875 "/>
<path style=" stroke:none;fill-rule:nonzero;fill:rgb(22.352941%,25.098039%,31.372549%);fill-opacity:1;" d="M 72.492188 77.308594 C 72.492188 80.199219 70.195312 82.546875 67.359375 82.550781 C 64.523438 82.554688 62.21875 80.214844 62.210938 77.320312 C 62.207031 74.429688 64.5 72.078125 67.335938 72.066406 C 70.171875 72.058594 72.480469 74.390625 72.492188 77.285156 "/>
<path style="fill:none;stroke-width:9;stroke-linecap:butt;stroke-linejoin:bevel;stroke:rgb(100%,100%,100%);stroke-opacity:1;stroke-miterlimit:4;" d="M 124.237061 695.077634 L 124.038696 634.088254 L 166.07666 694.253659 L 166.07666 633.264279 " transform="matrix(0.256,0,0,0.256,0,-141.404718)"/>
<path style="fill:none;stroke-width:9;stroke-linecap:butt;stroke-linejoin:miter;stroke:rgb(100%,100%,100%);stroke-opacity:1;stroke-miterlimit:4;" d="M 233.387627 692.510521 L 233.799614 640.798484 L 268.238701 640.951072 " transform="matrix(0.256,0,0,0.256,-11.942545,-142.310037)"/>
<path style="fill:none;stroke-width:9;stroke-linecap:butt;stroke-linejoin:miter;stroke:rgb(100%,100%,100%);stroke-opacity:1;stroke-miterlimit:4;" d="M 236.134209 664.586937 L 265.263237 664.724266 " transform="matrix(0.256,0,0,0.256,-11.942545,-142.310037)"/>
<path style="fill:none;stroke-width:9;stroke-linecap:butt;stroke-linejoin:miter;stroke:rgb(100%,100%,100%);stroke-opacity:1;stroke-miterlimit:4;" d="M 252.89917 691.537595 C 240.875244 691.446042 229.553223 679.361081 229.476929 664.056516 C 229.415894 648.767209 241.470337 636.468625 253.616333 636.819577 C 265.762329 637.155271 276.351929 648.736691 276.565552 665.017819 C 276.763916 681.298947 264.923096 691.644406 252.89917 691.537595 Z M 252.89917 691.537595 " transform="matrix(0.256,0,0,0.256,0,-141.404718)"/>
</g>
</svg>
