<?xml version="1.0" encoding="UTF-8"?>
<svg xmlns="http://www.w3.org/2000/svg" xmlns:xlink="http://www.w3.org/1999/xlink" width="128" height="128" viewBox="0 0 128 128" version="1.1">
<g id="surface1">
<path style=" stroke:none;fill-rule:evenodd;fill:rgb(9.803922%,7.843137%,23.529412%);fill-opacity:1;" d="M 16.136719 39.386719 L 29.761719 52.722656 L 29.335938 34.023438 L 16.128906 33.960938 Z M 16.136719 39.386719 "/>
<path style="fill-rule:evenodd;fill:rgb(94.901961%,94.901961%,94.901961%);fill-opacity:1;stroke-width:5.03546;stroke-linecap:butt;stroke-linejoin:miter;stroke:rgb(68.627451%,68.627451%,68.627451%);stroke-opacity:1;stroke-miterlimit:4;" d="M 97.045898 1029.840207 L 433.929443 1028.66528 L 435.10437 664.773679 L 347.061157 575.570798 L 97.045898 575.570798 Z M 97.045898 1029.840207 " transform="matrix(0.256,0,0,0.256,0,-141.404718)"/>
<path style="fill-rule:evenodd;fill:rgb(68.627451%,68.627451%,68.627451%);fill-opacity:1;stroke-width:5.03546;stroke-linecap:butt;stroke-linejoin:miter;stroke:rgb(68.627451%,68.627451%,68.627451%);stroke-opacity:1;stroke-miterlimit:4;" d="M 431.518555 662.927365 L 349.349976 662.347531 L 350.112915 578.546262 Z M 431.518555 662.927365 " transform="matrix(0.256,0,0,0.256,0,-141.404718)"/>
<path style=" stroke:none;fill-rule:nonzero;fill:rgb(17.647059%,8.627451%,31.372549%);fill-opacity:1;" d="M 16.164062 17.875 L 73.746094 17.875 L 73.746094 39.46875 L 16.164062 39.46875 Z M 16.164062 17.875 "/>
<path style="fill-rule:nonzero;fill:rgb(17.647059%,8.627451%,31.372549%);fill-opacity:1;stroke-width:0.833333;stroke-linecap:butt;stroke-linejoin:miter;stroke:rgb(0%,0%,0%);stroke-opacity:1;stroke-miterlimit:4;" d="M 266.51001 1020.395017 C 163.909912 1018.045163 144.119263 993.692136 144.119263 993.692136 L 144.119263 805.734372 C 144.119263 805.734372 163.116455 782.190061 254.364014 778.54321 C 345.611572 774.881101 382.583618 805.246091 382.583618 805.246091 L 382.583618 988.839841 C 382.583618 988.839841 369.094849 1022.760129 266.51001 1020.395017 Z M 266.51001 1020.395017 " transform="matrix(0.256,0,0,0.256,0,-141.404718)"/>
<path style=" stroke:none;fill-rule:nonzero;fill:rgb(100%,100%,100%);fill-opacity:1;" d="M 67.847656 57.15625 C 50.171875 57.15625 35.847656 61.0625 35.847656 65.882812 L 35.847656 112.429688 C 35.847656 117.25 50.171875 121.15625 67.847656 121.15625 C 85.519531 121.15625 99.847656 117.25 99.847656 112.429688 L 99.847656 65.882812 C 99.847656 61.0625 85.519531 57.15625 67.847656 57.15625 Z M 67.847656 60.066406 C 83.914062 60.066406 96.9375 62.667969 96.9375 65.882812 C 96.9375 69.097656 83.914062 71.699219 67.847656 71.699219 C 51.78125 71.699219 38.757812 69.097656 38.753906 65.882812 C 38.757812 62.667969 51.78125 60.066406 67.847656 60.066406 Z M 38.753906 69.496094 C 43.945312 72.609375 55.316406 74.605469 67.847656 74.609375 C 80.378906 74.605469 91.75 72.609375 96.9375 69.496094 L 96.9375 80.429688 C 96.9375 83.640625 83.914062 86.246094 67.847656 86.246094 C 51.78125 86.246094 38.753906 83.640625 38.753906 80.429688 Z M 38.753906 84.042969 C 43.945312 87.152344 55.316406 89.152344 67.847656 89.15625 C 80.378906 89.152344 91.75 87.152344 96.9375 84.042969 L 96.9375 97.882812 C 96.9375 101.097656 83.914062 103.699219 67.847656 103.699219 C 51.78125 103.699219 38.757812 101.097656 38.753906 97.882812 Z M 38.753906 101.496094 C 43.945312 104.609375 55.316406 106.605469 67.847656 106.609375 C 80.378906 106.605469 91.75 104.609375 96.9375 101.496094 L 96.9375 112.429688 C 96.9375 115.640625 83.914062 118.246094 67.847656 118.246094 C 51.78125 118.246094 38.753906 115.640625 38.753906 112.429688 Z M 38.753906 101.496094 "/>
<path style="fill:none;stroke-width:10;stroke-linecap:butt;stroke-linejoin:miter;stroke:rgb(100%,100%,100%);stroke-opacity:1;stroke-miterlimit:4;" d="M 162.261963 639.718747 C 162.261963 639.718747 152.999878 635.446286 144.195557 635.354733 C 135.391235 635.247922 129.928589 640.588498 129.623413 648.172116 C 129.333496 655.755734 133.560181 661.828732 148.712158 663.614011 C 163.879395 665.399289 162.963867 678.6134 161.102295 683.28259 C 159.225464 687.951779 150.405884 692.361569 141.433716 691.156125 C 132.446289 689.950681 124.969482 685.907102 124.969482 685.907102 " transform="matrix(0.256,0,0,0.256,0,-141.404718)"/>
<path style="fill:none;stroke-width:9;stroke-linecap:butt;stroke-linejoin:miter;stroke:rgb(100%,100%,100%);stroke-opacity:1;stroke-miterlimit:4;" d="M 232.216752 651.427454 C 220.192826 651.320643 208.855546 639.235682 208.794511 623.946375 C 208.718217 608.64181 220.787919 596.358484 232.933915 596.694178 C 245.079911 597.029871 255.669511 608.611292 255.883134 624.89242 C 256.081498 641.173548 244.240678 651.534266 232.216752 651.427454 Z M 232.216752 651.427454 " transform="matrix(0.256,0,0,0.256,-9.017801,-131.199022)"/>
<path style="fill:none;stroke-width:9;stroke-linecap:butt;stroke-linejoin:miter;stroke:rgb(100%,100%,100%);stroke-opacity:1;stroke-miterlimit:4;" d="M 240.410722 633.650965 C 240.410722 633.650965 243.96602 643.248743 247.99434 646.788782 C 252.007401 650.328821 263.649857 653.350062 263.649857 653.350062 " transform="matrix(0.256,0,0,0.256,-9.017801,-131.199022)"/>
<path style="fill:none;stroke-width:9;stroke-linecap:butt;stroke-linejoin:miter;stroke:rgb(100%,100%,100%);stroke-opacity:1;stroke-miterlimit:4;" d="M 240.29541 633.432126 L 240.585327 687.921262 L 272.354126 688.211179 " transform="matrix(0.256,0,0,0.256,0,-141.404718)"/>
</g>
</svg>
