<?xml version="1.0" encoding="UTF-8"?>
<svg xmlns="http://www.w3.org/2000/svg" xmlns:xlink="http://www.w3.org/1999/xlink" width="128" height="128" viewBox="0 0 128 128" version="1.1">
<g id="surface1">
<path style=" stroke:none;fill-rule:evenodd;fill:rgb(0%,11.372549%,39.215686%);fill-opacity:1;" d="M 16.136719 39.386719 L 29.761719 52.722656 L 29.335938 34.023438 L 16.128906 33.960938 Z M 16.136719 39.386719 "/>
<path style="fill-rule:evenodd;fill:rgb(94.901961%,94.901961%,94.901961%);fill-opacity:1;stroke-width:5.03546;stroke-linecap:butt;stroke-linejoin:miter;stroke:rgb(68.627451%,68.627451%,68.627451%);stroke-opacity:1;stroke-miterlimit:4;" d="M 97.045898 1029.840207 L 433.929443 1028.66528 L 435.10437 664.773679 L 347.061157 575.570798 L 97.045898 575.570798 Z M 97.045898 1029.840207 " transform="matrix(0.256,0,0,0.256,0,-141.404718)"/>
<path style="fill-rule:evenodd;fill:rgb(68.627451%,68.627451%,68.627451%);fill-opacity:1;stroke-width:5.03546;stroke-linecap:butt;stroke-linejoin:miter;stroke:rgb(68.627451%,68.627451%,68.627451%);stroke-opacity:1;stroke-miterlimit:4;" d="M 431.518555 662.927365 L 349.349976 662.347531 L 350.112915 578.546262 Z M 431.518555 662.927365 " transform="matrix(0.256,0,0,0.256,0,-141.404718)"/>
<path style=" stroke:none;fill-rule:nonzero;fill:rgb(0%,30.196078%,54.509804%);fill-opacity:1;" d="M 16.164062 17.875 L 66.972656 17.875 L 66.972656 39.46875 L 16.164062 39.46875 Z M 16.164062 17.875 "/>
<path style=" stroke:none;fill-rule:nonzero;fill:rgb(0%,30.196078%,54.509804%);fill-opacity:1;" d="M 37.496094 61.730469 L 37.496094 121.574219 L 97.339844 121.574219 L 97.339844 61.730469 Z M 41.984375 66.21875 L 46.472656 66.21875 L 46.472656 70.707031 L 41.984375 70.707031 Z M 88.363281 66.21875 L 92.851562 66.21875 L 92.851562 70.707031 L 88.363281 70.707031 Z M 41.984375 77.441406 L 46.472656 77.441406 L 46.472656 81.929688 L 41.984375 81.929688 Z M 88.363281 77.441406 L 92.851562 77.441406 L 92.851562 81.929688 L 88.363281 81.929688 Z M 41.984375 89.410156 L 46.472656 89.410156 L 46.472656 93.898438 L 41.984375 93.898438 Z M 88.363281 89.410156 L 92.851562 89.410156 L 92.851562 93.898438 L 88.363281 93.898438 Z M 41.984375 101.378906 L 46.472656 101.378906 L 46.472656 105.867188 L 41.984375 105.867188 Z M 88.363281 101.378906 L 92.851562 101.378906 L 92.851562 105.867188 L 88.363281 105.867188 Z M 41.984375 112.597656 L 46.472656 112.597656 L 46.472656 117.085938 L 41.984375 117.085938 Z M 88.363281 112.597656 L 92.851562 112.597656 L 92.851562 117.085938 L 88.363281 117.085938 Z M 88.363281 112.597656 "/>
<path style=" stroke:none;fill-rule:nonzero;fill:rgb(40.784314%,91.764706%,100%);fill-opacity:1;" d="M 51.117188 66.332031 L 84.03125 66.332031 L 84.03125 89.523438 L 51.117188 89.523438 Z M 51.117188 66.332031 "/>
<path style=" stroke:none;fill-rule:nonzero;fill:rgb(40.784314%,91.764706%,100%);fill-opacity:1;" d="M 50.960938 93.898438 L 83.875 93.898438 L 83.875 117.085938 L 50.960938 117.085938 Z M 50.960938 93.898438 "/>
<path style=" stroke:none;fill-rule:evenodd;fill:rgb(94.117647%,22.352941%,8.627451%);fill-opacity:0.941176;" d="M 63.324219 117.167969 C 63.324219 117.167969 64.054688 109.304688 70.019531 104.136719 C 75.984375 98.964844 83.960938 100.695312 83.960938 100.695312 L 83.882812 117.230469 Z M 63.324219 117.167969 "/>
<path style=" stroke:none;fill-rule:evenodd;fill:rgb(94.117647%,22.352941%,8.627451%);fill-opacity:0.941176;" d="M 58.648438 66.246094 C 58.648438 66.246094 58.578125 68.570312 60.503906 70.917969 C 62.433594 73.265625 64.535156 73.65625 64.535156 73.65625 L 64.472656 78.851562 L 66.777344 78.851562 L 66.839844 73.667969 C 66.839844 73.667969 68.652344 73.484375 70.746094 71.300781 C 72.835938 69.117188 72.664062 66.179688 72.664062 66.179688 Z M 58.648438 66.246094 "/>
<path style=" stroke:none;fill-rule:nonzero;fill:rgb(83.137255%,33.333333%,0%);fill-opacity:0.941176;" d="M 64.410156 79.542969 L 66.761719 79.542969 L 66.761719 81.351562 L 64.410156 81.351562 Z M 64.410156 79.542969 "/>
<path style="fill:none;stroke-width:9.274095;stroke-linecap:butt;stroke-linejoin:miter;stroke:rgb(100%,100%,100%);stroke-opacity:1;stroke-miterlimit:4;" d="M 93.36853 692.193723 L 93.673706 635.965085 L 98.861694 635.751462 L 115.219116 678.308225 L 118.667603 678.308225 L 135.116577 635.751462 L 140.518188 635.675168 L 140.518188 692.346311 " transform="matrix(0.256,0,0,0.256,0,-141.404718)"/>
<path style="fill:none;stroke-width:9.063828;stroke-linecap:butt;stroke-linejoin:miter;stroke:rgb(100%,100%,100%);stroke-opacity:1;stroke-miterlimit:4;" d="M 160.644531 691.629147 L 160.644531 635.186887 C 160.644531 635.186887 191.467285 629.251218 191.360474 649.499631 C 191.253662 669.763303 161.270142 664.239621 161.270142 664.239621 " transform="matrix(0.256,0,0,0.256,0,-141.404718)"/>
<path style="fill:none;stroke-width:9;stroke-linecap:butt;stroke-linejoin:bevel;stroke:rgb(100%,100%,100%);stroke-opacity:1;stroke-miterlimit:4;" d="M 238.15918 670.236325 L 203.964233 670.236325 L 225.387573 633.981442 L 224.975586 692.086911 " transform="matrix(0.256,0,0,0.256,0,-141.404718)"/>
</g>
</svg>
