<?xml version="1.0" encoding="UTF-8"?>
<svg xmlns="http://www.w3.org/2000/svg" xmlns:xlink="http://www.w3.org/1999/xlink" width="128" height="128" viewBox="0 0 128 128" version="1.1">
<g id="surface1">
<path style=" stroke:none;fill-rule:evenodd;fill:rgb(84.705882%,14.901961%,0%);fill-opacity:1;" d="M 16.394531 38.105469 L 30.019531 51.441406 L 29.59375 32.742188 L 16.382812 32.679688 Z M 16.394531 38.105469 "/>
<path style="fill-rule:evenodd;fill:rgb(94.901961%,94.901961%,94.901961%);fill-opacity:1;stroke-width:5.03546;stroke-linecap:butt;stroke-linejoin:miter;stroke:rgb(68.627451%,68.627451%,68.627451%);stroke-opacity:1;stroke-miterlimit:4;" d="M 98.03772 1024.835324 L 434.936523 1023.660397 L 436.096191 659.768796 L 348.068237 570.565915 L 98.03772 570.565915 Z M 98.03772 1024.835324 " transform="matrix(0.256,0,0,0.256,0,-141.404718)"/>
<path style="fill-rule:evenodd;fill:rgb(68.627451%,68.627451%,68.627451%);fill-opacity:1;stroke-width:5.03546;stroke-linecap:butt;stroke-linejoin:miter;stroke:rgb(68.627451%,68.627451%,68.627451%);stroke-opacity:1;stroke-miterlimit:4;" d="M 432.525635 657.937741 L 350.357056 657.342648 L 351.119995 573.541379 Z M 432.525635 657.937741 " transform="matrix(0.256,0,0,0.256,0,-141.404718)"/>
<path style=" stroke:none;fill-rule:nonzero;fill:rgb(94.117647%,22.352941%,8.627451%);fill-opacity:1;" d="M 16.417969 16.59375 L 74.003906 16.59375 L 74.003906 38.1875 L 16.417969 38.1875 Z M 16.417969 16.59375 "/>
<path style=" stroke:none;fill-rule:nonzero;fill:rgb(94.117647%,22.352941%,8.627451%);fill-opacity:1;" d="M 68.082031 56.214844 C 85.753906 56.214844 100.082031 70.542969 100.082031 88.214844 C 100.082031 105.890625 85.753906 120.214844 68.082031 120.214844 C 50.40625 120.214844 36.082031 105.890625 36.082031 88.214844 C 36.082031 70.542969 50.40625 56.214844 68.082031 56.214844 Z M 68.082031 56.214844 "/>
<path style=" stroke:none;fill-rule:nonzero;fill:rgb(100%,100%,100%);fill-opacity:1;" d="M 79.601562 73.824219 L 79.601562 79.621094 C 73.816406 79.722656 72.394531 85.363281 72.394531 85.363281 L 76.757812 85.363281 L 76.757812 91.15625 L 69.992188 91.15625 C 65.925781 103.710938 56.5625 102.589844 56.5625 102.589844 L 56.5625 96.796875 C 56.5625 96.796875 62.503906 97.898438 65.53125 86.835938 C 69.320312 72.996094 79.601562 73.824219 79.601562 73.824219 Z M 79.601562 73.824219 "/>
<path style="fill:none;stroke-width:9;stroke-linecap:butt;stroke-linejoin:miter;stroke:rgb(100%,100%,100%);stroke-opacity:1;stroke-miterlimit:4;" d="M 233.386758 692.511128 L 233.798745 640.799092 L 268.237832 640.936421 " transform="matrix(0.256,0,0,0.256,-27.02826,-142.943005)"/>
<path style="fill:none;stroke-width:9;stroke-linecap:butt;stroke-linejoin:miter;stroke:rgb(100%,100%,100%);stroke-opacity:1;stroke-miterlimit:4;" d="M 236.13334 664.572285 L 265.262368 664.724873 " transform="matrix(0.256,0,0,0.256,-27.02826,-142.943005)"/>
<path style="fill:none;stroke-width:9;stroke-linecap:butt;stroke-linejoin:miter;stroke:rgb(100%,100%,100%);stroke-opacity:1;stroke-miterlimit:4;" d="M 176.589966 629.60217 L 176.879883 684.091306 L 208.633423 684.381223 " transform="matrix(0.256,0,0,0.256,0,-141.404718)"/>
<path style="fill:none;stroke-width:9;stroke-linecap:butt;stroke-linejoin:bevel;stroke:rgb(100%,100%,100%);stroke-opacity:1;stroke-miterlimit:4;" d="M 209.259033 630.243039 L 236.114502 686.563229 L 262.161255 630.502438 " transform="matrix(0.256,0,0,0.256,0,-141.404718)"/>
</g>
</svg>
