<?xml version="1.0" encoding="UTF-8"?>
<svg xmlns="http://www.w3.org/2000/svg" xmlns:xlink="http://www.w3.org/1999/xlink" width="128" height="128" viewBox="0 0 128 128" version="1.1">
<g id="surface1">
<path style=" stroke:none;fill-rule:evenodd;fill:rgb(10.588235%,14.901961%,19.215686%);fill-opacity:1;" d="M 16.136719 39.386719 L 29.761719 52.722656 L 29.335938 34.023438 L 16.128906 33.960938 Z M 16.136719 39.386719 "/>
<path style="fill-rule:evenodd;fill:rgb(94.901961%,94.901961%,94.901961%);fill-opacity:1;stroke-width:5.03546;stroke-linecap:butt;stroke-linejoin:miter;stroke:rgb(68.627451%,68.627451%,68.627451%);stroke-opacity:1;stroke-miterlimit:4;" d="M 97.045898 1029.840207 L 433.929443 1028.66528 L 435.10437 664.773679 L 347.061157 575.570798 L 97.045898 575.570798 Z M 97.045898 1029.840207 " transform="matrix(0.256,0,0,0.256,0,-141.404718)"/>
<path style="fill-rule:evenodd;fill:rgb(68.627451%,68.627451%,68.627451%);fill-opacity:1;stroke-width:5.03546;stroke-linecap:butt;stroke-linejoin:miter;stroke:rgb(68.627451%,68.627451%,68.627451%);stroke-opacity:1;stroke-miterlimit:4;" d="M 431.518555 662.927365 L 349.349976 662.347531 L 350.112915 578.546262 Z M 431.518555 662.927365 " transform="matrix(0.256,0,0,0.256,0,-141.404718)"/>
<path style=" stroke:none;fill-rule:nonzero;fill:rgb(22.352941%,25.098039%,31.372549%);fill-opacity:1;" d="M 16.164062 17.875 L 73.746094 17.875 L 73.746094 39.46875 L 16.164062 39.46875 Z M 16.164062 17.875 "/>
<path style="fill-rule:nonzero;fill:rgb(98.039216%,92.54902%,42.745098%);fill-opacity:1;stroke-width:15.218686;stroke-linecap:butt;stroke-linejoin:miter;stroke:rgb(22.352941%,25.098039%,31.372549%);stroke-opacity:1;stroke-miterlimit:4;" d="M 760.634677 336.481868 L 909.658656 336.489541 C 916.211865 336.482544 921.533296 341.29152 921.528386 347.208162 L 921.527917 498.553126 C 921.534174 504.480166 916.22036 509.268982 909.655984 509.26558 L 760.643173 509.268306 C 754.078796 509.264904 748.758134 504.477494 748.751878 498.550454 L 748.752346 347.20549 C 748.757257 341.288848 754.081468 336.488865 760.634677 336.481868 Z M 760.634677 336.481868 " transform="matrix(0.174452,0.187356,-0.187356,0.174452,0,-141.404718)"/>
<path style=" stroke:none;fill-rule:nonzero;fill:rgb(22.352941%,25.098039%,31.372549%);fill-opacity:1;" d="M 65.660156 78.34375 C 63.523438 78.640625 62.332031 80.953125 62.332031 80.953125 L 59.886719 84.367188 L 56.140625 86.402344 C 56.140625 86.402344 55.207031 86.816406 55.507812 87.664062 C 55.8125 88.507812 56.539062 88.292969 56.539062 88.292969 L 60.898438 86.515625 L 63.191406 84.277344 L 65.257812 90.816406 L 61.242188 95.460938 L 61.242188 105.039062 C 61.242188 105.039062 61.421875 106.136719 62.449219 106.128906 C 63.472656 106.121094 63.824219 105.269531 63.824219 105.269531 L 64.28125 96.894531 L 67.402344 94.351562 L 68.296875 94.351562 L 69.410156 97.738281 L 73.285156 105.097656 C 73.285156 105.097656 74.101562 105.984375 75.0625 105.441406 C 76.027344 104.894531 75.867188 103.890625 75.867188 103.890625 L 72.195312 96.894531 L 71.910156 89.671875 L 70.417969 82.789062 L 72.3125 83.363281 L 73.628906 87.605469 C 73.628906 87.605469 74.050781 88.714844 74.941406 88.441406 C 75.835938 88.167969 75.636719 87.089844 75.636719 87.089844 L 74.261719 81.757812 L 69.273438 78.886719 C 69.273438 78.886719 67.792969 78.046875 65.660156 78.34375 Z M 65.660156 78.34375 "/>
<path style=" stroke:none;fill-rule:nonzero;fill:rgb(22.352941%,25.098039%,31.372549%);fill-opacity:1;" d="M 68.714844 74.511719 C 68.714844 76.15625 67.359375 77.492188 65.679688 77.492188 C 64.003906 77.496094 62.640625 76.164062 62.636719 74.515625 C 62.632812 72.871094 63.988281 71.535156 65.667969 71.527344 C 67.34375 71.523438 68.707031 72.851562 68.714844 74.496094 "/>
</g>
</svg>
