<?xml version="1.0" encoding="UTF-8"?>
<svg xmlns="http://www.w3.org/2000/svg" xmlns:xlink="http://www.w3.org/1999/xlink" width="128" height="128" viewBox="0 0 128 128" version="1.1">
<g id="surface1">
<path style=" stroke:none;fill-rule:evenodd;fill:rgb(0%,40%,50.196078%);fill-opacity:1;" d="M 16.136719 39.386719 L 29.761719 52.722656 L 29.335938 34.023438 L 16.128906 33.960938 Z M 16.136719 39.386719 "/>
<path style="fill-rule:evenodd;fill:rgb(94.901961%,94.901961%,94.901961%);fill-opacity:1;stroke-width:5.03546;stroke-linecap:butt;stroke-linejoin:miter;stroke:rgb(68.627451%,68.627451%,68.627451%);stroke-opacity:1;stroke-miterlimit:4;" d="M 97.045898 1029.840207 L 433.929443 1028.66528 L 435.10437 664.773679 L 347.061157 575.570798 L 97.045898 575.570798 Z M 97.045898 1029.840207 " transform="matrix(0.256,0,0,0.256,0,-141.404718)"/>
<path style="fill-rule:evenodd;fill:rgb(68.627451%,68.627451%,68.627451%);fill-opacity:1;stroke-width:5.03546;stroke-linecap:butt;stroke-linejoin:miter;stroke:rgb(68.627451%,68.627451%,68.627451%);stroke-opacity:1;stroke-miterlimit:4;" d="M 431.518555 662.927365 L 349.349976 662.347531 L 350.112915 578.546262 Z M 431.518555 662.927365 " transform="matrix(0.256,0,0,0.256,0,-141.404718)"/>
<path style=" stroke:none;fill-rule:nonzero;fill:rgb(0%,73.333333%,94.901961%);fill-opacity:1;" d="M 16.164062 17.875 L 73.746094 17.875 L 73.746094 39.46875 L 16.164062 39.46875 Z M 16.164062 17.875 "/>
<path style=" stroke:none;fill-rule:nonzero;fill:rgb(0%,73.333333%,94.901961%);fill-opacity:1;" d="M 29.972656 89.808594 L 106.085938 89.808594 L 106.085938 92.917969 L 29.972656 92.917969 Z M 29.972656 89.808594 "/>
<path style=" stroke:none;fill-rule:nonzero;fill:rgb(0%,73.333333%,94.901961%);fill-opacity:1;" d="M 29.972656 97.601562 L 106.203125 97.601562 L 106.203125 100.710938 L 29.972656 100.710938 Z M 29.972656 97.601562 "/>
<path style=" stroke:none;fill-rule:nonzero;fill:rgb(0%,73.333333%,94.901961%);fill-opacity:1;" d="M 29.972656 104.703125 L 106.773438 104.703125 L 106.773438 107.8125 L 29.972656 107.8125 Z M 29.972656 104.703125 "/>
<path style=" stroke:none;fill-rule:nonzero;fill:rgb(0%,73.333333%,94.901961%);fill-opacity:1;" d="M 29.972656 111.484375 L 82.164062 111.484375 L 82.164062 114.589844 L 29.972656 114.589844 Z M 29.972656 111.484375 "/>
<path style="fill-rule:nonzero;fill:rgb(37.254902%,73.72549%,82.745098%);fill-opacity:1;stroke-width:4.506265;stroke-linecap:round;stroke-linejoin:round;stroke:rgb(0%,73.333333%,94.901961%);stroke-opacity:1;stroke-miterlimit:4;" d="M 265.8177 775.259996 L 413.522777 775.258551 L 413.518907 884.67933 L 265.81383 884.680775 Z M 265.8177 775.259996 " transform="matrix(0.256,0.000134736,-0.000169443,0.256,0,-141.404718)"/>
<path style=" stroke:none;fill-rule:nonzero;fill:rgb(98.039216%,92.54902%,42.745098%);fill-opacity:1;" d="M 102.359375 65.300781 C 102.359375 67.46875 100.601562 69.222656 98.4375 69.222656 C 96.273438 69.226562 94.515625 67.472656 94.511719 65.308594 C 94.507812 63.140625 96.257812 61.382812 98.421875 61.375 C 100.589844 61.371094 102.351562 63.117188 102.359375 65.285156 "/>
<path style="fill-rule:nonzero;fill:rgb(0%,40%,50.196078%);fill-opacity:1;stroke-width:0.187761;stroke-linecap:butt;stroke-linejoin:miter;stroke:rgb(0%,0%,0%);stroke-opacity:1;stroke-miterlimit:4;" d="M 267.63916 842.279172 L 267.410278 882.760739 L 410.812378 882.653928 L 410.430908 849.160886 C 410.430908 849.160886 390.182495 855.615354 372.665405 853.616452 C 355.163574 851.617551 328.460693 831.59802 309.814453 830.850339 C 291.183472 830.087399 267.63916 842.279172 267.63916 842.279172 Z M 267.63916 842.279172 " transform="matrix(0.256,0,0,0.256,0,-141.404718)"/>
<path style=" stroke:none;fill-rule:nonzero;fill:rgb(0%,73.333333%,94.901961%);fill-opacity:1;" d="M 29.972656 82.488281 L 63.441406 82.488281 L 63.441406 85.597656 L 29.972656 85.597656 Z M 29.972656 82.488281 "/>
<path style=" stroke:none;fill-rule:nonzero;fill:rgb(0%,73.333333%,94.901961%);fill-opacity:1;" d="M 29.972656 75.386719 L 63.441406 75.386719 L 63.441406 78.492188 L 29.972656 78.492188 Z M 29.972656 75.386719 "/>
<path style=" stroke:none;fill-rule:nonzero;fill:rgb(0%,73.333333%,94.901961%);fill-opacity:1;" d="M 29.972656 68.605469 L 63.441406 68.605469 L 63.441406 71.714844 L 29.972656 71.714844 Z M 29.972656 68.605469 "/>
<path style=" stroke:none;fill-rule:nonzero;fill:rgb(0%,73.333333%,94.901961%);fill-opacity:1;" d="M 29.972656 61.988281 L 63.441406 61.988281 L 63.441406 65.097656 L 29.972656 65.097656 Z M 29.972656 61.988281 "/>
<path style=" stroke:none;fill-rule:nonzero;fill:rgb(0%,73.333333%,94.901961%);fill-opacity:1;" d="M 37.449219 55.691406 L 63.816406 55.691406 L 63.816406 58.800781 L 37.449219 58.800781 Z M 37.449219 55.691406 "/>
</g>
</svg>
