<?xml version="1.0" encoding="UTF-8"?>
<svg xmlns="http://www.w3.org/2000/svg" xmlns:xlink="http://www.w3.org/1999/xlink" width="128" height="128" viewBox="0 0 128 128" version="1.1">
<g id="surface1">
<path style=" stroke:none;fill-rule:evenodd;fill:rgb(66.666667%,53.333333%,0%);fill-opacity:1;" d="M 16.136719 39.386719 L 29.761719 52.722656 L 29.335938 34.023438 L 16.128906 33.960938 Z M 16.136719 39.386719 "/>
<path style="fill-rule:evenodd;fill:rgb(94.901961%,94.901961%,94.901961%);fill-opacity:1;stroke-width:5.03546;stroke-linecap:butt;stroke-linejoin:miter;stroke:rgb(68.627451%,68.627451%,68.627451%);stroke-opacity:1;stroke-miterlimit:4;" d="M 97.045898 1029.840207 L 433.929443 1028.66528 L 435.10437 664.773679 L 347.061157 575.570798 L 97.045898 575.570798 Z M 97.045898 1029.840207 " transform="matrix(0.256,0,0,0.256,0,-141.404718)"/>
<path style="fill-rule:evenodd;fill:rgb(68.627451%,68.627451%,68.627451%);fill-opacity:1;stroke-width:5.03546;stroke-linecap:butt;stroke-linejoin:miter;stroke:rgb(68.627451%,68.627451%,68.627451%);stroke-opacity:1;stroke-miterlimit:4;" d="M 431.518555 662.927365 L 349.349976 662.347531 L 350.112915 578.546262 Z M 431.518555 662.927365 " transform="matrix(0.256,0,0,0.256,0,-141.404718)"/>
<path style=" stroke:none;fill-rule:nonzero;fill:rgb(83.137255%,66.666667%,0%);fill-opacity:1;" d="M 16.164062 17.875 L 73.746094 17.875 L 73.746094 39.46875 L 16.164062 39.46875 Z M 16.164062 17.875 "/>
<path style=" stroke:none;fill-rule:nonzero;fill:rgb(100%,40%,0%);fill-opacity:1;" d="M 78.097656 77.871094 C 78.097656 89.296875 68.835938 98.558594 57.414062 98.558594 C 45.988281 98.558594 36.726562 89.296875 36.726562 77.871094 C 36.726562 66.445312 45.988281 57.1875 57.414062 57.1875 C 68.835938 57.1875 78.097656 66.445312 78.097656 77.871094 Z M 78.097656 77.871094 "/>
<path style=" stroke:none;fill-rule:nonzero;fill:rgb(83.137255%,66.666667%,0%);fill-opacity:1;" d="M 67.359375 72.394531 L 105.285156 72.394531 L 105.285156 106.871094 L 67.359375 106.871094 Z M 67.359375 72.394531 "/>
<path style=" stroke:none;fill-rule:nonzero;fill:rgb(100%,80%,0%);fill-opacity:1;" d="M 39.808594 117.890625 L 81.183594 117.890625 L 60.585938 82.171875 Z M 39.808594 117.890625 "/>
<path style=" stroke:none;fill-rule:nonzero;fill:rgb(27.058824%,81.568627%,24.705882%);fill-opacity:1;" d="M 57.492188 78.65625 L 63.695312 78.65625 L 63.695312 84.863281 L 57.492188 84.863281 Z M 57.492188 78.65625 "/>
<path style=" stroke:none;fill-rule:nonzero;fill:rgb(27.058824%,81.568627%,24.705882%);fill-opacity:1;" d="M 34.886719 113.941406 L 41.089844 113.941406 L 41.089844 120.144531 L 34.886719 120.144531 Z M 34.886719 113.941406 "/>
<path style=" stroke:none;fill-rule:nonzero;fill:rgb(27.058824%,81.568627%,24.705882%);fill-opacity:1;" d="M 80.230469 113.453125 L 86.433594 113.453125 L 86.433594 119.65625 L 80.230469 119.65625 Z M 80.230469 113.453125 "/>
</g>
</svg>
