<?xml version="1.0" encoding="UTF-8"?>
<svg xmlns="http://www.w3.org/2000/svg" xmlns:xlink="http://www.w3.org/1999/xlink" width="128" height="128" viewBox="0 0 128 128" version="1.1">
<g id="surface1">
<path style=" stroke:none;fill-rule:evenodd;fill:rgb(15.686275%,9.019608%,4.313725%);fill-opacity:1;" d="M 16.136719 39.386719 L 29.761719 52.722656 L 29.335938 34.023438 L 16.128906 33.960938 Z M 16.136719 39.386719 "/>
<path style="fill-rule:evenodd;fill:rgb(94.901961%,94.901961%,94.901961%);fill-opacity:1;stroke-width:5.03546;stroke-linecap:butt;stroke-linejoin:miter;stroke:rgb(68.627451%,68.627451%,68.627451%);stroke-opacity:1;stroke-miterlimit:4;" d="M 97.045898 1029.840207 L 433.929443 1028.66528 L 435.10437 664.773679 L 347.061157 575.570798 L 97.045898 575.570798 Z M 97.045898 1029.840207 " transform="matrix(0.256,0,0,0.256,0,-141.404718)"/>
<path style="fill-rule:evenodd;fill:rgb(68.627451%,68.627451%,68.627451%);fill-opacity:1;stroke-width:5.03546;stroke-linecap:butt;stroke-linejoin:miter;stroke:rgb(68.627451%,68.627451%,68.627451%);stroke-opacity:1;stroke-miterlimit:4;" d="M 431.518555 662.927365 L 349.349976 662.347531 L 350.112915 578.546262 Z M 431.518555 662.927365 " transform="matrix(0.256,0,0,0.256,0,-141.404718)"/>
<path style=" stroke:none;fill-rule:nonzero;fill:rgb(31.372549%,17.647059%,8.627451%);fill-opacity:1;" d="M 16.164062 17.875 L 70.132812 17.875 L 70.132812 39.46875 L 16.164062 39.46875 Z M 16.164062 17.875 "/>
<path style=" stroke:none;fill-rule:nonzero;fill:rgb(60%,60%,60%);fill-opacity:1;" d="M 95.007812 63.171875 L 96.730469 63.171875 C 97.617188 63.171875 98.339844 63.820312 98.339844 64.621094 L 98.339844 72.007812 C 98.339844 72.8125 97.617188 73.460938 96.730469 73.460938 L 95.007812 73.460938 C 94.121094 73.460938 93.398438 72.8125 93.398438 72.007812 L 93.398438 64.621094 C 93.398438 63.820312 94.121094 63.171875 95.007812 63.171875 Z M 95.007812 63.171875 "/>
<path style=" stroke:none;fill-rule:nonzero;fill:rgb(60%,60%,60%);fill-opacity:1;" d="M 95.007812 75.78125 L 96.730469 75.78125 C 97.617188 75.78125 98.339844 76.433594 98.339844 77.234375 L 98.339844 84.621094 C 98.339844 85.421875 97.617188 86.070312 96.730469 86.070312 L 95.007812 86.070312 C 94.121094 86.070312 93.398438 85.421875 93.398438 84.621094 L 93.398438 77.234375 C 93.398438 76.433594 94.121094 75.78125 95.007812 75.78125 Z M 95.007812 75.78125 "/>
<path style=" stroke:none;fill-rule:nonzero;fill:rgb(60%,60%,60%);fill-opacity:1;" d="M 95.007812 87.960938 L 96.730469 87.960938 C 97.617188 87.960938 98.339844 88.609375 98.339844 89.410156 L 98.339844 96.796875 C 98.339844 97.597656 97.617188 98.25 96.730469 98.25 L 95.007812 98.25 C 94.121094 98.25 93.398438 97.597656 93.398438 96.796875 L 93.398438 89.410156 C 93.398438 88.609375 94.121094 87.960938 95.007812 87.960938 Z M 95.007812 87.960938 "/>
<path style=" stroke:none;fill-rule:nonzero;fill:rgb(60%,60%,60%);fill-opacity:1;" d="M 95.007812 100.570312 L 96.730469 100.570312 C 97.617188 100.570312 98.339844 101.21875 98.339844 102.023438 L 98.339844 109.40625 C 98.339844 110.210938 97.617188 110.859375 96.730469 110.859375 L 95.007812 110.859375 C 94.121094 110.859375 93.398438 110.210938 93.398438 109.40625 L 93.398438 102.023438 C 93.398438 101.21875 94.121094 100.570312 95.007812 100.570312 Z M 95.007812 100.570312 "/>
<path style=" stroke:none;fill-rule:nonzero;fill:rgb(31.372549%,17.647059%,8.627451%);fill-opacity:1;" d="M 45.515625 56.910156 L 90.753906 56.910156 C 93.226562 56.910156 95.230469 59.171875 95.230469 61.96875 L 95.230469 115.820312 C 95.230469 118.613281 93.226562 120.878906 90.753906 120.878906 L 45.515625 120.878906 C 43.042969 120.878906 41.039062 118.613281 41.039062 115.820312 L 41.039062 61.96875 C 41.039062 59.171875 43.042969 56.910156 45.515625 56.910156 Z M 45.515625 56.910156 "/>
<path style=" stroke:none;fill-rule:nonzero;fill:rgb(40%,40%,40%);fill-opacity:1;" d="M 54.960938 120.871094 L 45.429688 120.898438 C 45.429688 120.898438 43.878906 120.847656 42.496094 119.5625 C 41.113281 118.28125 41.015625 116.023438 41.015625 116.023438 L 41.066406 61.84375 C 41.066406 61.84375 41.039062 59.902344 42.300781 58.449219 C 43.5625 56.996094 45.746094 56.898438 45.746094 56.898438 L 54.9375 56.898438 Z M 54.960938 120.871094 "/>
<path style=" stroke:none;fill-rule:nonzero;fill:rgb(22.352941%,25.098039%,31.372549%);fill-opacity:1;" d="M 50.308594 64.117188 C 50.308594 65.597656 49.109375 66.796875 47.628906 66.796875 C 46.148438 66.796875 44.949219 65.597656 44.949219 64.117188 C 44.949219 62.636719 46.148438 61.4375 47.628906 61.4375 C 49.109375 61.4375 50.308594 62.636719 50.308594 64.117188 Z M 50.308594 64.117188 "/>
<path style=" stroke:none;fill-rule:nonzero;fill:rgb(80%,80%,80%);fill-opacity:1;" d="M 38.007812 65.796875 L 47.726562 65.796875 C 47.726562 65.796875 49.15625 65.671875 49.125 64.265625 C 49.09375 62.855469 47.652344 62.675781 47.652344 62.675781 L 37.890625 62.734375 C 37.890625 62.734375 36.625 63.007812 36.652344 64.324219 C 36.679688 65.640625 38.007812 65.796875 38.007812 65.796875 Z M 38.007812 65.796875 "/>
<path style=" stroke:none;fill-rule:nonzero;fill:rgb(22.352941%,25.098039%,31.372549%);fill-opacity:1;" d="M 50.371094 70.988281 C 50.371094 72.46875 49.171875 73.667969 47.691406 73.667969 C 46.210938 73.667969 45.011719 72.46875 45.011719 70.988281 C 45.011719 69.507812 46.210938 68.308594 47.691406 68.308594 C 49.171875 68.308594 50.371094 69.507812 50.371094 70.988281 Z M 50.371094 70.988281 "/>
<path style=" stroke:none;fill-rule:nonzero;fill:rgb(80%,80%,80%);fill-opacity:1;" d="M 38.070312 72.667969 L 47.789062 72.667969 C 47.789062 72.667969 49.21875 72.542969 49.1875 71.136719 C 49.15625 69.726562 47.714844 69.542969 47.714844 69.542969 L 37.949219 69.605469 C 37.949219 69.605469 36.6875 69.878906 36.714844 71.195312 C 36.742188 72.511719 38.070312 72.667969 38.070312 72.667969 Z M 38.070312 72.667969 "/>
<path style=" stroke:none;fill-rule:nonzero;fill:rgb(22.352941%,25.098039%,31.372549%);fill-opacity:1;" d="M 50.421875 77.800781 C 50.421875 79.28125 49.222656 80.480469 47.742188 80.480469 C 46.261719 80.480469 45.0625 79.28125 45.0625 77.800781 C 45.0625 76.320312 46.261719 75.121094 47.742188 75.121094 C 49.222656 75.121094 50.421875 76.320312 50.421875 77.800781 Z M 50.421875 77.800781 "/>
<path style=" stroke:none;fill-rule:nonzero;fill:rgb(80%,80%,80%);fill-opacity:1;" d="M 38.121094 79.476562 L 47.839844 79.476562 C 47.839844 79.476562 49.269531 79.355469 49.238281 77.945312 C 49.207031 76.539062 47.765625 76.355469 47.765625 76.355469 L 38.003906 76.414062 C 38.003906 76.414062 36.738281 76.6875 36.765625 78.003906 C 36.792969 79.320312 38.121094 79.476562 38.121094 79.476562 Z M 38.121094 79.476562 "/>
<path style=" stroke:none;fill-rule:nonzero;fill:rgb(22.352941%,25.098039%,31.372549%);fill-opacity:1;" d="M 50.484375 84.667969 C 50.484375 86.148438 49.285156 87.347656 47.804688 87.347656 C 46.324219 87.347656 45.125 86.148438 45.125 84.667969 C 45.125 83.1875 46.324219 81.988281 47.804688 81.988281 C 49.285156 81.988281 50.484375 83.1875 50.484375 84.667969 Z M 50.484375 84.667969 "/>
<path style=" stroke:none;fill-rule:nonzero;fill:rgb(80%,80%,80%);fill-opacity:1;" d="M 38.183594 86.347656 L 47.902344 86.347656 C 47.902344 86.347656 49.332031 86.226562 49.300781 84.816406 C 49.269531 83.410156 47.828125 83.226562 47.828125 83.226562 L 38.066406 83.285156 C 38.066406 83.285156 36.800781 83.558594 36.828125 84.875 C 36.855469 86.191406 38.183594 86.347656 38.183594 86.347656 Z M 38.183594 86.347656 "/>
<path style=" stroke:none;fill-rule:nonzero;fill:rgb(22.352941%,25.098039%,31.372549%);fill-opacity:1;" d="M 50.453125 91.523438 C 50.453125 93.003906 49.253906 94.203125 47.773438 94.203125 C 46.292969 94.203125 45.09375 93.003906 45.09375 91.523438 C 45.09375 90.042969 46.292969 88.84375 47.773438 88.84375 C 49.253906 88.84375 50.453125 90.042969 50.453125 91.523438 Z M 50.453125 91.523438 "/>
<path style=" stroke:none;fill-rule:nonzero;fill:rgb(80%,80%,80%);fill-opacity:1;" d="M 38.152344 93.203125 L 47.871094 93.203125 C 47.871094 93.203125 49.300781 93.078125 49.269531 91.671875 C 49.238281 90.261719 47.796875 90.082031 47.796875 90.082031 L 38.035156 90.140625 C 38.035156 90.140625 36.769531 90.414062 36.796875 91.730469 C 36.824219 93.046875 38.152344 93.203125 38.152344 93.203125 Z M 38.152344 93.203125 "/>
<path style=" stroke:none;fill-rule:nonzero;fill:rgb(22.352941%,25.098039%,31.372549%);fill-opacity:1;" d="M 50.515625 98.394531 C 50.515625 99.875 49.316406 101.074219 47.835938 101.074219 C 46.355469 101.074219 45.15625 99.875 45.15625 98.394531 C 45.15625 96.914062 46.355469 95.714844 47.835938 95.714844 C 49.316406 95.714844 50.515625 96.914062 50.515625 98.394531 Z M 50.515625 98.394531 "/>
<path style=" stroke:none;fill-rule:nonzero;fill:rgb(80%,80%,80%);fill-opacity:1;" d="M 38.214844 100.074219 L 47.933594 100.074219 C 47.933594 100.074219 49.363281 99.949219 49.332031 98.542969 C 49.300781 97.132812 47.859375 96.949219 47.859375 96.949219 L 38.097656 97.011719 C 38.097656 97.011719 36.832031 97.285156 36.859375 98.601562 C 36.886719 99.917969 38.214844 100.074219 38.214844 100.074219 Z M 38.214844 100.074219 "/>
<path style=" stroke:none;fill-rule:nonzero;fill:rgb(22.352941%,25.098039%,31.372549%);fill-opacity:1;" d="M 50.570312 105.207031 C 50.570312 106.6875 49.367188 107.886719 47.890625 107.886719 C 46.410156 107.886719 45.207031 106.6875 45.207031 105.207031 C 45.207031 103.726562 46.410156 102.523438 47.890625 102.523438 C 49.367188 102.523438 50.570312 103.726562 50.570312 105.207031 Z M 50.570312 105.207031 "/>
<path style=" stroke:none;fill-rule:nonzero;fill:rgb(80%,80%,80%);fill-opacity:1;" d="M 38.265625 106.882812 L 47.984375 106.882812 C 47.984375 106.882812 49.414062 106.761719 49.382812 105.351562 C 49.355469 103.945312 47.910156 103.761719 47.910156 103.761719 L 38.148438 103.820312 C 38.148438 103.820312 36.882812 104.09375 36.910156 105.410156 C 36.9375 106.726562 38.265625 106.882812 38.265625 106.882812 Z M 38.265625 106.882812 "/>
<path style=" stroke:none;fill-rule:nonzero;fill:rgb(22.352941%,25.098039%,31.372549%);fill-opacity:1;" d="M 50.632812 112.074219 C 50.632812 113.554688 49.429688 114.753906 47.949219 114.753906 C 46.46875 114.753906 45.269531 113.554688 45.269531 112.074219 C 45.269531 110.59375 46.46875 109.394531 47.949219 109.394531 C 49.429688 109.394531 50.632812 110.59375 50.632812 112.074219 Z M 50.632812 112.074219 "/>
<path style=" stroke:none;fill-rule:nonzero;fill:rgb(80%,80%,80%);fill-opacity:1;" d="M 38.328125 113.753906 L 48.046875 113.753906 C 48.046875 113.753906 49.476562 113.632812 49.445312 112.222656 C 49.414062 110.816406 47.972656 110.632812 47.972656 110.632812 L 38.210938 110.691406 C 38.210938 110.691406 36.945312 110.964844 36.972656 112.28125 C 37 113.597656 38.328125 113.753906 38.328125 113.753906 Z M 38.328125 113.753906 "/>
<path style=" stroke:none;fill-rule:nonzero;fill:rgb(100%,100%,100%);fill-opacity:1;" d="M 60.492188 65.660156 L 88 65.660156 C 88.890625 65.660156 89.609375 66.3125 89.609375 67.113281 L 89.609375 75.734375 C 89.609375 76.535156 88.890625 77.183594 88 77.183594 L 60.492188 77.183594 C 59.601562 77.183594 58.882812 76.535156 58.882812 75.734375 L 58.882812 67.113281 C 58.882812 66.3125 59.601562 65.660156 60.492188 65.660156 Z M 60.492188 65.660156 "/>
</g>
</svg>
