<?xml version="1.0" encoding="UTF-8"?>
<svg xmlns="http://www.w3.org/2000/svg" xmlns:xlink="http://www.w3.org/1999/xlink" width="128" height="128" viewBox="0 0 128 128" version="1.1">
<g id="surface1">
<path style=" stroke:none;fill-rule:evenodd;fill:rgb(8.627451%,31.372549%,8.627451%);fill-opacity:1;" d="M 16.136719 39.386719 L 29.761719 52.722656 L 29.335938 34.023438 L 16.128906 33.960938 Z M 16.136719 39.386719 "/>
<path style="fill-rule:evenodd;fill:rgb(94.901961%,94.901961%,94.901961%);fill-opacity:1;stroke-width:5.03546;stroke-linecap:butt;stroke-linejoin:miter;stroke:rgb(68.627451%,68.627451%,68.627451%);stroke-opacity:1;stroke-miterlimit:4;" d="M 97.045898 1029.840207 L 433.929443 1028.66528 L 435.10437 664.773679 L 347.061157 575.570798 L 97.045898 575.570798 Z M 97.045898 1029.840207 " transform="matrix(0.256,0,0,0.256,0,-141.404718)"/>
<path style="fill-rule:evenodd;fill:rgb(68.627451%,68.627451%,68.627451%);fill-opacity:1;stroke-width:5.03546;stroke-linecap:butt;stroke-linejoin:miter;stroke:rgb(68.627451%,68.627451%,68.627451%);stroke-opacity:1;stroke-miterlimit:4;" d="M 431.518555 662.927365 L 349.349976 662.347531 L 350.112915 578.546262 Z M 431.518555 662.927365 " transform="matrix(0.256,0,0,0.256,0,-141.404718)"/>
<path style=" stroke:none;fill-rule:nonzero;fill:rgb(17.254902%,62.745098%,17.254902%);fill-opacity:1;" d="M 16.164062 17.875 L 73.746094 17.875 L 73.746094 39.46875 L 16.164062 39.46875 Z M 16.164062 17.875 "/>
<path style=" stroke:none;fill-rule:nonzero;fill:rgb(17.254902%,62.745098%,17.254902%);fill-opacity:1;" d="M 36.609375 63.554688 L 102.414062 63.554688 L 102.414062 116.199219 L 36.609375 116.199219 Z M 36.609375 63.554688 "/>
<path style=" stroke:none;fill-rule:nonzero;fill:rgb(55.294118%,82.745098%,37.254902%);fill-opacity:1;" d="M 38.429688 65.050781 L 52.238281 65.050781 L 52.238281 71.441406 L 38.429688 71.441406 Z M 38.429688 65.050781 "/>
<path style=" stroke:none;fill-rule:nonzero;fill:rgb(55.294118%,82.745098%,37.254902%);fill-opacity:1;" d="M 54.363281 65.050781 L 68.171875 65.050781 L 68.171875 71.441406 L 54.363281 71.441406 Z M 54.363281 65.050781 "/>
<path style=" stroke:none;fill-rule:nonzero;fill:rgb(55.294118%,82.745098%,37.254902%);fill-opacity:1;" d="M 70.296875 65.050781 L 84.105469 65.050781 L 84.105469 71.441406 L 70.296875 71.441406 Z M 70.296875 65.050781 "/>
<path style=" stroke:none;fill-rule:nonzero;fill:rgb(55.294118%,82.745098%,37.254902%);fill-opacity:1;" d="M 86.230469 65.050781 L 100.035156 65.050781 L 100.035156 71.441406 L 86.230469 71.441406 Z M 86.230469 65.050781 "/>
<path style=" stroke:none;fill-rule:nonzero;fill:rgb(66.666667%,87.058824%,52.941176%);fill-opacity:1;" d="M 38.429688 73.578125 L 52.238281 73.578125 L 52.238281 79.96875 L 38.429688 79.96875 Z M 38.429688 73.578125 "/>
<path style=" stroke:none;fill-rule:nonzero;fill:rgb(66.666667%,87.058824%,52.941176%);fill-opacity:1;" d="M 54.363281 73.578125 L 68.171875 73.578125 L 68.171875 79.96875 L 54.363281 79.96875 Z M 54.363281 73.578125 "/>
<path style=" stroke:none;fill-rule:nonzero;fill:rgb(66.666667%,87.058824%,52.941176%);fill-opacity:1;" d="M 70.296875 73.578125 L 84.105469 73.578125 L 84.105469 79.96875 L 70.296875 79.96875 Z M 70.296875 73.578125 "/>
<path style=" stroke:none;fill-rule:nonzero;fill:rgb(66.666667%,87.058824%,52.941176%);fill-opacity:1;" d="M 86.230469 73.578125 L 100.035156 73.578125 L 100.035156 79.96875 L 86.230469 79.96875 Z M 86.230469 73.578125 "/>
<path style=" stroke:none;fill-rule:nonzero;fill:rgb(66.666667%,87.058824%,52.941176%);fill-opacity:1;" d="M 38.429688 82.042969 L 52.238281 82.042969 L 52.238281 88.433594 L 38.429688 88.433594 Z M 38.429688 82.042969 "/>
<path style=" stroke:none;fill-rule:nonzero;fill:rgb(66.666667%,87.058824%,52.941176%);fill-opacity:1;" d="M 54.363281 82.042969 L 68.171875 82.042969 L 68.171875 88.433594 L 54.363281 88.433594 Z M 54.363281 82.042969 "/>
<path style=" stroke:none;fill-rule:nonzero;fill:rgb(66.666667%,87.058824%,52.941176%);fill-opacity:1;" d="M 70.296875 82.042969 L 84.105469 82.042969 L 84.105469 88.433594 L 70.296875 88.433594 Z M 70.296875 82.042969 "/>
<path style=" stroke:none;fill-rule:nonzero;fill:rgb(66.666667%,87.058824%,52.941176%);fill-opacity:1;" d="M 86.230469 82.042969 L 100.035156 82.042969 L 100.035156 88.433594 L 86.230469 88.433594 Z M 86.230469 82.042969 "/>
<path style=" stroke:none;fill-rule:nonzero;fill:rgb(66.666667%,87.058824%,52.941176%);fill-opacity:1;" d="M 38.429688 90.570312 L 52.238281 90.570312 L 52.238281 96.960938 L 38.429688 96.960938 Z M 38.429688 90.570312 "/>
<path style=" stroke:none;fill-rule:nonzero;fill:rgb(66.666667%,87.058824%,52.941176%);fill-opacity:1;" d="M 54.363281 90.570312 L 68.171875 90.570312 L 68.171875 96.960938 L 54.363281 96.960938 Z M 54.363281 90.570312 "/>
<path style=" stroke:none;fill-rule:nonzero;fill:rgb(66.666667%,87.058824%,52.941176%);fill-opacity:1;" d="M 70.296875 90.570312 L 84.105469 90.570312 L 84.105469 96.960938 L 70.296875 96.960938 Z M 70.296875 90.570312 "/>
<path style=" stroke:none;fill-rule:nonzero;fill:rgb(66.666667%,87.058824%,52.941176%);fill-opacity:1;" d="M 86.230469 90.570312 L 100.035156 90.570312 L 100.035156 96.960938 L 86.230469 96.960938 Z M 86.230469 90.570312 "/>
<path style=" stroke:none;fill-rule:nonzero;fill:rgb(66.666667%,87.058824%,52.941176%);fill-opacity:1;" d="M 38.566406 99.152344 L 52.375 99.152344 L 52.375 105.546875 L 38.566406 105.546875 Z M 38.566406 99.152344 "/>
<path style=" stroke:none;fill-rule:nonzero;fill:rgb(66.666667%,87.058824%,52.941176%);fill-opacity:1;" d="M 54.5 99.152344 L 68.308594 99.152344 L 68.308594 105.546875 L 54.5 105.546875 Z M 54.5 99.152344 "/>
<path style=" stroke:none;fill-rule:nonzero;fill:rgb(66.666667%,87.058824%,52.941176%);fill-opacity:1;" d="M 70.433594 99.152344 L 84.242188 99.152344 L 84.242188 105.546875 L 70.433594 105.546875 Z M 70.433594 99.152344 "/>
<path style=" stroke:none;fill-rule:nonzero;fill:rgb(66.666667%,87.058824%,52.941176%);fill-opacity:1;" d="M 86.367188 99.152344 L 100.171875 99.152344 L 100.171875 105.546875 L 86.367188 105.546875 Z M 86.367188 99.152344 "/>
<path style=" stroke:none;fill-rule:nonzero;fill:rgb(66.666667%,87.058824%,52.941176%);fill-opacity:1;" d="M 38.566406 107.679688 L 52.375 107.679688 L 52.375 114.070312 L 38.566406 114.070312 Z M 38.566406 107.679688 "/>
<path style=" stroke:none;fill-rule:nonzero;fill:rgb(66.666667%,87.058824%,52.941176%);fill-opacity:1;" d="M 54.5 107.679688 L 68.308594 107.679688 L 68.308594 114.070312 L 54.5 114.070312 Z M 54.5 107.679688 "/>
<path style=" stroke:none;fill-rule:nonzero;fill:rgb(66.666667%,87.058824%,52.941176%);fill-opacity:1;" d="M 70.433594 107.679688 L 84.242188 107.679688 L 84.242188 114.070312 L 70.433594 114.070312 Z M 70.433594 107.679688 "/>
<path style=" stroke:none;fill-rule:nonzero;fill:rgb(66.666667%,87.058824%,52.941176%);fill-opacity:1;" d="M 86.367188 107.679688 L 100.171875 107.679688 L 100.171875 114.070312 L 86.367188 114.070312 Z M 86.367188 107.679688 "/>
<path style=" stroke:none;fill-rule:nonzero;fill:rgb(22.352941%,25.098039%,31.372549%);fill-opacity:1;" d="M 107.007812 96.707031 L 107.007812 118.816406 C 107.007812 120.023438 105.625 121.003906 103.914062 121.003906 L 70.976562 121.003906 C 69.265625 121.003906 67.882812 120.023438 67.882812 118.816406 L 67.882812 96.707031 C 67.882812 95.496094 69.265625 94.519531 70.976562 94.519531 L 103.914062 94.519531 C 105.625 94.519531 107.007812 95.496094 107.007812 96.707031 Z M 107.007812 96.707031 "/>
<path style=" stroke:none;fill-rule:nonzero;fill:rgb(100%,100%,100%);fill-opacity:1;" d="M 105.597656 95.792969 C 105.308594 95.605469 104.929688 95.636719 104.929688 95.636719 L 72.359375 95.640625 L 69.96875 95.640625 C 69.96875 95.640625 69.597656 95.628906 69.402344 95.769531 C 69.207031 95.910156 69.1875 96.242188 69.1875 96.242188 L 69.191406 119.25 C 69.191406 119.25 69.164062 119.636719 69.351562 119.808594 C 69.542969 119.984375 69.960938 119.96875 69.960938 119.96875 L 103.898438 119.960938 C 103.898438 119.960938 104.824219 120.050781 105.367188 119.605469 C 105.90625 119.160156 105.773438 118.367188 105.773438 118.367188 L 105.839844 96.296875 C 105.839844 96.296875 105.886719 95.984375 105.597656 95.792969 Z M 105.597656 95.792969 "/>
<path style=" stroke:none;fill-rule:nonzero;fill:rgb(100%,80%,0%);fill-opacity:1;" d="M 88.84375 115.796875 L 85.933594 115.796875 C 85.53125 115.796875 85.207031 115.472656 85.207031 115.070312 L 85.207031 103.433594 C 85.207031 103.035156 85.53125 102.707031 85.933594 102.707031 L 88.84375 102.707031 C 89.246094 102.707031 89.570312 103.035156 89.570312 103.433594 L 89.570312 115.070312 C 89.570312 115.472656 89.246094 115.796875 88.84375 115.796875 Z M 88.84375 115.796875 "/>
<path style=" stroke:none;fill-rule:nonzero;fill:rgb(94.117647%,22.352941%,8.627451%);fill-opacity:1;" d="M 82.296875 115.796875 L 79.390625 115.796875 C 78.988281 115.796875 78.664062 115.472656 78.664062 115.070312 L 78.664062 107.070312 C 78.664062 106.667969 78.988281 106.34375 79.390625 106.34375 L 82.296875 106.34375 C 82.699219 106.34375 83.027344 106.667969 83.027344 107.070312 L 83.027344 115.070312 C 83.027344 115.472656 82.699219 115.796875 82.296875 115.796875 Z M 82.296875 115.796875 "/>
<path style=" stroke:none;fill-rule:nonzero;fill:rgb(0%,26.666667%,33.333333%);fill-opacity:1;" d="M 75.753906 115.796875 L 72.84375 115.796875 C 72.441406 115.796875 72.117188 115.472656 72.117188 115.070312 L 72.117188 110.707031 C 72.117188 110.304688 72.441406 109.980469 72.84375 109.980469 L 75.753906 109.980469 C 76.15625 109.980469 76.480469 110.304688 76.480469 110.707031 L 76.480469 115.070312 C 76.480469 115.472656 76.15625 115.796875 75.753906 115.796875 Z M 75.753906 115.796875 "/>
<path style=" stroke:none;fill-rule:nonzero;fill:rgb(27.058824%,81.568627%,24.705882%);fill-opacity:1;" d="M 95.386719 115.796875 L 92.480469 115.796875 C 92.078125 115.796875 91.75 115.472656 91.75 115.070312 L 91.75 107.070312 C 91.75 106.667969 92.078125 106.34375 92.480469 106.34375 L 95.386719 106.34375 C 95.789062 106.34375 96.113281 106.667969 96.113281 107.070312 L 96.113281 115.070312 C 96.113281 115.472656 95.789062 115.796875 95.386719 115.796875 Z M 95.386719 115.796875 "/>
<path style=" stroke:none;fill-rule:nonzero;fill:rgb(0%,73.333333%,94.901961%);fill-opacity:1;" d="M 101.933594 115.796875 L 99.023438 115.796875 C 98.621094 115.796875 98.296875 115.472656 98.296875 115.070312 L 98.296875 99.070312 C 98.296875 98.671875 98.621094 98.34375 99.023438 98.34375 L 101.933594 98.34375 C 102.335938 98.34375 102.660156 98.671875 102.660156 99.070312 L 102.660156 115.070312 C 102.660156 115.472656 102.335938 115.796875 101.933594 115.796875 Z M 101.933594 115.796875 "/>
<path style=" stroke:none;fill-rule:nonzero;fill:rgb(22.352941%,25.098039%,31.372549%);fill-opacity:1;" d="M 104.113281 116.523438 L 70.664062 116.523438 C 70.261719 116.523438 69.9375 116.199219 69.9375 115.796875 C 69.9375 115.394531 70.261719 115.070312 70.664062 115.070312 L 104.113281 115.070312 C 104.515625 115.070312 104.839844 115.394531 104.839844 115.796875 C 104.839844 116.199219 104.515625 116.523438 104.113281 116.523438 Z M 104.113281 116.523438 "/>
</g>
</svg>
