<?xml version="1.0" encoding="UTF-8"?>
<svg xmlns="http://www.w3.org/2000/svg" xmlns:xlink="http://www.w3.org/1999/xlink" width="128" height="128" viewBox="0 0 128 128" version="1.1">
<g id="surface1">
<path style=" stroke:none;fill-rule:evenodd;fill:rgb(66.666667%,26.666667%,0%);fill-opacity:1;" d="M 16.136719 39.386719 L 29.761719 52.722656 L 29.335938 34.023438 L 16.128906 33.960938 Z M 16.136719 39.386719 "/>
<path style="fill-rule:evenodd;fill:rgb(94.901961%,94.901961%,94.901961%);fill-opacity:1;stroke-width:5.03546;stroke-linecap:butt;stroke-linejoin:miter;stroke:rgb(68.627451%,68.627451%,68.627451%);stroke-opacity:1;stroke-miterlimit:4;" d="M 97.045898 1029.840207 L 433.929443 1028.66528 L 435.10437 664.773679 L 347.061157 575.570798 L 97.045898 575.570798 Z M 97.045898 1029.840207 " transform="matrix(0.256,0,0,0.256,0,-141.404718)"/>
<path style="fill-rule:evenodd;fill:rgb(68.627451%,68.627451%,68.627451%);fill-opacity:1;stroke-width:5.03546;stroke-linecap:butt;stroke-linejoin:miter;stroke:rgb(68.627451%,68.627451%,68.627451%);stroke-opacity:1;stroke-miterlimit:4;" d="M 431.518555 662.927365 L 349.349976 662.347531 L 350.112915 578.546262 Z M 431.518555 662.927365 " transform="matrix(0.256,0,0,0.256,0,-141.404718)"/>
<path style=" stroke:none;fill-rule:nonzero;fill:rgb(100%,40%,0%);fill-opacity:1;" d="M 16.164062 17.875 L 73.746094 17.875 L 73.746094 39.46875 L 16.164062 39.46875 Z M 16.164062 17.875 "/>
<path style=" stroke:none;fill-rule:nonzero;fill:rgb(100%,40%,0%);fill-opacity:1;" d="M 39.222656 62.816406 L 93.945312 62.816406 L 93.945312 65.964844 L 39.222656 65.964844 Z M 39.222656 62.816406 "/>
<path style=" stroke:none;fill-rule:nonzero;fill:rgb(100%,40%,0%);fill-opacity:1;" d="M 47.269531 69.402344 L 85.046875 69.402344 L 85.046875 72.550781 L 47.269531 72.550781 Z M 47.269531 69.402344 "/>
<path style=" stroke:none;fill-rule:nonzero;fill:rgb(100%,40%,0%);fill-opacity:1;" d="M 41.445312 82.921875 L 59.945312 82.921875 L 59.945312 86.070312 L 41.445312 86.070312 Z M 41.445312 82.921875 "/>
<path style=" stroke:none;fill-rule:nonzero;fill:rgb(100%,40%,0%);fill-opacity:1;" d="M 35.621094 82.921875 L 38.871094 82.921875 L 38.871094 86.070312 L 35.621094 86.070312 Z M 35.621094 82.921875 "/>
<path style=" stroke:none;fill-rule:nonzero;fill:rgb(100%,40%,0%);fill-opacity:1;" d="M 41.285156 88.238281 L 59.789062 88.238281 L 59.789062 91.382812 L 41.285156 91.382812 Z M 41.285156 88.238281 "/>
<path style=" stroke:none;fill-rule:nonzero;fill:rgb(100%,40%,0%);fill-opacity:1;" d="M 35.460938 88.238281 L 38.710938 88.238281 L 38.710938 91.382812 L 35.460938 91.382812 Z M 35.460938 88.238281 "/>
<path style=" stroke:none;fill-rule:nonzero;fill:rgb(100%,40%,0%);fill-opacity:1;" d="M 41.285156 93.667969 L 59.789062 93.667969 L 59.789062 96.816406 L 41.285156 96.816406 Z M 41.285156 93.667969 "/>
<path style=" stroke:none;fill-rule:nonzero;fill:rgb(100%,40%,0%);fill-opacity:1;" d="M 35.460938 93.667969 L 38.710938 93.667969 L 38.710938 96.816406 L 35.460938 96.816406 Z M 35.460938 93.667969 "/>
<path style=" stroke:none;fill-rule:nonzero;fill:rgb(100%,40%,0%);fill-opacity:1;" d="M 41.285156 99.445312 L 59.789062 99.445312 L 59.789062 102.59375 L 41.285156 102.59375 Z M 41.285156 99.445312 "/>
<path style=" stroke:none;fill-rule:nonzero;fill:rgb(100%,40%,0%);fill-opacity:1;" d="M 35.460938 99.445312 L 38.710938 99.445312 L 38.710938 102.59375 L 35.460938 102.59375 Z M 35.460938 99.445312 "/>
<path style=" stroke:none;fill-rule:nonzero;fill:rgb(100%,100%,100%);fill-opacity:1;" d="M 68.222656 80.179688 L 97.332031 80.179688 L 97.332031 104.367188 L 68.222656 104.367188 Z M 68.222656 80.179688 "/>
<path style=" stroke:none;fill-rule:nonzero;fill:rgb(100%,80%,0%);fill-opacity:1;" d="M 83.832031 103.324219 L 81.53125 103.324219 C 81.214844 103.324219 80.957031 103.042969 80.957031 102.695312 L 80.957031 92.652344 C 80.957031 92.304688 81.214844 92.023438 81.53125 92.023438 L 83.832031 92.023438 C 84.152344 92.023438 84.410156 92.304688 84.410156 92.652344 L 84.410156 102.695312 C 84.410156 103.042969 84.152344 103.324219 83.832031 103.324219 Z M 83.832031 103.324219 "/>
<path style=" stroke:none;fill-rule:nonzero;fill:rgb(94.117647%,22.352941%,8.627451%);fill-opacity:1;" d="M 78.652344 103.324219 L 76.351562 103.324219 C 76.035156 103.324219 75.777344 103.042969 75.777344 102.695312 L 75.777344 95.789062 C 75.777344 95.441406 76.035156 95.160156 76.351562 95.160156 L 78.652344 95.160156 C 78.972656 95.160156 79.230469 95.441406 79.230469 95.789062 L 79.230469 102.695312 C 79.230469 103.042969 78.972656 103.324219 78.652344 103.324219 Z M 78.652344 103.324219 "/>
<path style=" stroke:none;fill-rule:nonzero;fill:rgb(0%,26.666667%,33.333333%);fill-opacity:1;" d="M 73.476562 103.324219 L 71.171875 103.324219 C 70.855469 103.324219 70.597656 103.042969 70.597656 102.695312 L 70.597656 98.929688 C 70.597656 98.582031 70.855469 98.300781 71.171875 98.300781 L 73.476562 98.300781 C 73.792969 98.300781 74.050781 98.582031 74.050781 98.929688 L 74.050781 102.695312 C 74.050781 103.042969 73.792969 103.324219 73.476562 103.324219 Z M 73.476562 103.324219 "/>
<path style=" stroke:none;fill-rule:nonzero;fill:rgb(27.058824%,81.568627%,24.705882%);fill-opacity:1;" d="M 89.011719 103.324219 L 86.710938 103.324219 C 86.390625 103.324219 86.136719 103.042969 86.136719 102.695312 L 86.136719 95.789062 C 86.136719 95.441406 86.390625 95.160156 86.710938 95.160156 L 89.011719 95.160156 C 89.328125 95.160156 89.585938 95.441406 89.585938 95.789062 L 89.585938 102.695312 C 89.585938 103.042969 89.328125 103.324219 89.011719 103.324219 Z M 89.011719 103.324219 "/>
<path style=" stroke:none;fill-rule:nonzero;fill:rgb(0%,73.333333%,94.901961%);fill-opacity:1;" d="M 94.191406 103.324219 L 91.890625 103.324219 C 91.570312 103.324219 91.3125 103.042969 91.3125 102.695312 L 91.3125 88.882812 C 91.3125 88.539062 91.570312 88.257812 91.890625 88.257812 L 94.191406 88.257812 C 94.507812 88.257812 94.765625 88.539062 94.765625 88.882812 L 94.765625 102.695312 C 94.765625 103.042969 94.507812 103.324219 94.191406 103.324219 Z M 94.191406 103.324219 "/>
<path style=" stroke:none;fill-rule:nonzero;fill:rgb(22.352941%,25.098039%,31.372549%);fill-opacity:1;" d="M 95.917969 103.949219 L 69.445312 103.949219 C 69.128906 103.949219 68.871094 103.667969 68.871094 103.324219 C 68.871094 102.976562 69.128906 102.695312 69.445312 102.695312 L 95.917969 102.695312 C 96.234375 102.695312 96.492188 102.976562 96.492188 103.324219 C 96.492188 103.667969 96.234375 103.949219 95.917969 103.949219 Z M 95.917969 103.949219 "/>
<path style="fill:none;stroke-width:2.504357;stroke-linecap:butt;stroke-linejoin:miter;stroke:rgb(22.352941%,25.098039%,31.372549%);stroke-opacity:1;stroke-miterlimit:4;" d="M 274.719238 931.619382 L 325.210571 902.017331 L 342.74292 919.320798 L 365.081787 870.614743 " transform="matrix(0.256,0,0,0.256,0,-141.404718)"/>
<path style="fill:none;stroke-width:2.504357;stroke-linecap:butt;stroke-linejoin:miter;stroke:rgb(22.352941%,25.098039%,31.372549%);stroke-opacity:1;stroke-miterlimit:4;" d="M 365.936279 869.943356 L 356.933594 874.200559 " transform="matrix(0.256,0,0,0.256,0,-141.404718)"/>
<path style="fill:none;stroke-width:2.504357;stroke-linecap:butt;stroke-linejoin:miter;stroke:rgb(22.352941%,25.098039%,31.372549%);stroke-opacity:1;stroke-miterlimit:4;" d="M 368.392944 879.296994 L 364.349365 869.27197 " transform="matrix(0.256,0,0,0.256,0,-141.404718)"/>
<path style=" stroke:none;fill-rule:nonzero;fill:rgb(100%,40%,0%);fill-opacity:1;" d="M 40.152344 120.628906 L 94.878906 120.628906 L 94.878906 117.480469 L 40.152344 117.480469 Z M 40.152344 120.628906 "/>
<path style=" stroke:none;fill-rule:nonzero;fill:rgb(100%,40%,0%);fill-opacity:1;" d="M 48.203125 114.042969 L 85.980469 114.042969 L 85.980469 110.894531 L 48.203125 110.894531 Z M 48.203125 114.042969 "/>
</g>
</svg>
