<?xml version="1.0" encoding="UTF-8"?>
<svg xmlns="http://www.w3.org/2000/svg" xmlns:xlink="http://www.w3.org/1999/xlink" width="96" height="96" viewBox="0 0 96 96" version="1.1">
<g id="surface1">
<path style=" stroke:none;fill-rule:nonzero;fill:rgb(74.509804%,74.509804%,74.509804%);fill-opacity:1;" d="M 21 30 C 19.34375 30 18 31.34375 18 33 L 18 50.8125 C 18 62.621094 25.546875 72.558594 36 76.3125 L 36 84 L 24 84 C 20.609375 84 18 86.941406 18 90 L 18 96 L 72 96 L 72 90 C 72 86.492188 69.140625 84 66 84 L 54 84 L 54 76.3125 C 64.449219 72.558594 72 62.621094 72 50.8125 L 72 33 C 72 31.34375 70.65625 30 69 30 C 67.34375 30 66 31.34375 66 33 C 66 33.414062 66.035156 33.765625 66.1875 34.125 L 66.1875 50.8125 C 66.1875 62.597656 56.710938 72 45 72 C 33.285156 72 24 62.59375 24 50.8125 L 24 33 C 24 31.34375 22.65625 30 21 30 Z M 45 5.941406 C 53.308594 5.941406 60 12.628906 60 20.941406 L 60 51 C 60 59.308594 53.308594 66 45 66 C 36.691406 66 30 59.308594 30 51 L 30 20.921875 C 30 12.613281 36.691406 5.921875 45 5.921875 Z M 45 5.941406 "/>
<path style=" stroke:none;fill-rule:nonzero;fill:rgb(100%,100%,100%);fill-opacity:1;" d="M 43.15625 65.84375 C 41.613281 65.664062 39.953125 65.152344 38.378906 64.375 C 36.6875 63.535156 35.617188 62.769531 34.363281 61.488281 C 33.085938 60.183594 32.453125 59.289062 31.625 57.621094 C 30.816406 55.980469 30.34375 54.402344 30.148438 52.667969 C 29.976562 51.15625 29.976562 20.75 30.148438 19.234375 C 30.785156 13.605469 34.605469 8.773438 39.925781 6.863281 C 41.949219 6.136719 43.863281 5.882812 46.085938 6.054688 C 49.785156 6.335938 52.925781 7.765625 55.542969 10.375 C 57.65625 12.476562 58.9375 14.808594 59.652344 17.875 C 59.910156 18.96875 59.914062 19.234375 59.957031 35.148438 C 59.988281 46.667969 59.957031 51.660156 59.859375 52.539062 C 59.257812 57.800781 56.175781 62.191406 51.503906 64.445312 C 48.875 65.710938 46.085938 66.179688 43.15625 65.84375 Z M 43.15625 65.84375 "/>
<path style=" stroke:none;fill-rule:nonzero;fill:rgb(100%,100%,100%);fill-opacity:1;" d="M 18.011719 92.816406 C 18.015625 89.289062 18.125 88.46875 18.765625 87.265625 C 19.257812 86.34375 20.238281 85.332031 21.128906 84.824219 C 22.4375 84.074219 22.613281 84.058594 29.675781 84.058594 L 36.085938 84.058594 L 36.085938 76.289062 L 35.363281 76.023438 C 34.292969 75.636719 32.074219 74.523438 30.8125 73.738281 C 25.199219 70.269531 20.894531 64.578125 19.085938 58.238281 C 18.085938 54.734375 17.988281 53.132812 18.035156 41.585938 C 18.074219 32.257812 18.074219 32.234375 18.34375 31.734375 C 18.6875 31.085938 19.460938 30.390625 20.050781 30.195312 C 21.296875 29.78125 22.8125 30.347656 23.515625 31.488281 L 23.890625 32.09375 L 23.960938 42.691406 C 24.039062 54.261719 24.027344 54.085938 24.796875 56.753906 C 27.214844 65.113281 34.164062 70.96875 42.800781 71.914062 C 47.554688 72.4375 52.625 71.214844 56.625 68.582031 C 61.402344 65.441406 64.464844 60.921875 65.828125 55.007812 C 66.109375 53.785156 66.109375 53.746094 66.132812 42.90625 L 66.15625 32.03125 L 66.507812 31.457031 C 67.191406 30.351562 68.726562 29.789062 69.957031 30.195312 C 70.546875 30.390625 71.316406 31.085938 71.664062 31.734375 L 71.9375 32.238281 L 71.9375 42.515625 C 71.9375 53.296875 71.910156 53.832031 71.359375 56.417969 C 69.886719 63.3125 65.773438 69.363281 59.898438 73.28125 C 58.488281 74.21875 56.242188 75.398438 54.816406 75.949219 L 53.917969 76.292969 L 53.917969 84.058594 L 60.332031 84.058594 C 65.617188 84.058594 66.871094 84.089844 67.453125 84.242188 C 69.425781 84.753906 70.929688 86.136719 71.644531 88.09375 C 71.886719 88.761719 71.917969 89.125 71.96875 92.382812 L 72.019531 95.945312 L 18.007812 95.945312 Z M 18.011719 92.816406 "/>
</g>
</svg>
