<?xml version="1.0" encoding="UTF-8"?>
<svg xmlns="http://www.w3.org/2000/svg" xmlns:xlink="http://www.w3.org/1999/xlink" width="96" height="96" viewBox="0 0 96 96" version="1.1">
<g id="surface1">
<path style=" stroke:none;fill-rule:nonzero;fill:rgb(74.509804%,74.509804%,74.509804%);fill-opacity:1;" d="M 77.460938 6 C 74.359375 6.28125 71.988281 8.886719 72 12 L 72 90 C 71.96875 92.164062 73.105469 94.175781 74.976562 95.265625 C 76.84375 96.355469 79.15625 96.355469 81.023438 95.265625 C 82.890625 94.175781 84.03125 92.164062 84 90 L 84 18 L 90 18 C 92.164062 18.03125 94.175781 16.890625 95.265625 15.023438 C 96.355469 13.15625 96.355469 10.84375 95.265625 8.976562 C 94.175781 7.109375 92.164062 5.96875 90 6 L 78 6 C 77.8125 5.992188 77.625 5.992188 77.4375 6 Z M 77.460938 6 "/>
<path style=" stroke:none;fill-rule:nonzero;fill:rgb(74.509804%,74.509804%,74.509804%);fill-opacity:1;" d="M 78 36 L 78 54 L 96 54 L 96 36 Z M 84 42 L 90 42 L 90 48 L 84 48 Z M 84 42 "/>
<path style=" stroke:none;fill-rule:nonzero;fill:rgb(74.509804%,74.509804%,74.509804%);fill-opacity:1;" d="M 78 60 L 78 78 L 96 78 L 96 60 Z M 84 66 L 90 66 L 90 72 L 84 72 Z M 84 66 "/>
<path style=" stroke:none;fill-rule:nonzero;fill:rgb(74.509804%,74.509804%,74.509804%);fill-opacity:1;" d="M 0 24 L 0 96 L 60 96 L 60 84 L 66 84 L 66 72 L 48 72 L 48 84 L 12 84 L 12 36 L 30 36 L 30 24 Z M 0 24 "/>
<path style=" stroke:none;fill-rule:nonzero;fill:rgb(74.509804%,74.509804%,74.509804%);fill-opacity:1;" d="M 36 6 L 66 30 L 48 30 L 48 57.1875 L 36 57.1875 Z M 36 6 "/>
<path style=" stroke:none;fill-rule:nonzero;fill:rgb(74.509804%,74.509804%,74.509804%);fill-opacity:1;" d="M 47.945312 57.019531 C 47.945312 65.289062 41.242188 71.992188 32.976562 71.992188 C 24.710938 71.992188 18.007812 65.289062 18.007812 57.019531 C 18.007812 48.753906 24.710938 42.050781 32.976562 42.050781 C 41.242188 42.050781 47.945312 48.753906 47.945312 57.019531 Z M 47.945312 57.019531 "/>
<path style=" stroke:none;fill-rule:nonzero;fill:rgb(100%,100%,100%);fill-opacity:1;" d="M 31.84375 71.90625 C 27.804688 71.4375 24.804688 70.007812 22.230469 67.324219 C 20.996094 66.039062 20.265625 64.980469 19.515625 63.414062 C 17.8125 59.84375 17.597656 55.785156 18.921875 52.03125 C 19.671875 49.90625 20.78125 48.15625 22.421875 46.515625 C 24.789062 44.148438 27.765625 42.664062 31.003906 42.230469 C 32.058594 42.089844 34.910156 42.140625 35.65625 42.316406 L 35.996094 42.394531 L 35.996094 6.054688 L 65.816406 29.914062 L 56.917969 29.941406 L 48.015625 29.972656 L 48.015625 43.273438 C 48.015625 57.238281 47.984375 58.324219 47.460938 60.519531 C 46.332031 65.289062 42.9375 69.148438 38.265625 70.980469 C 36.441406 71.695312 33.578125 72.105469 31.84375 71.90625 Z M 31.84375 71.90625 "/>
<path style=" stroke:none;fill-rule:nonzero;fill:rgb(100%,100%,100%);fill-opacity:1;" d="M 0.0546875 59.964844 L 0.0546875 24.023438 L 29.921875 24.023438 L 29.921875 35.921875 L 11.953125 35.921875 L 11.953125 84.003906 L 48.015625 84.003906 L 48.015625 71.984375 L 65.988281 71.984375 L 65.988281 84.003906 L 59.914062 84.003906 L 59.914062 95.902344 L 0.0546875 95.902344 Z M 0.0546875 59.964844 "/>
<path style=" stroke:none;fill-rule:nonzero;fill:rgb(100%,100%,100%);fill-opacity:1;" d="M 76.585938 95.851562 C 74.691406 95.386719 73.09375 93.949219 72.386719 92.082031 L 72.125 91.378906 L 72.125 10.578125 L 72.414062 9.855469 C 73.074219 8.21875 74.582031 6.8125 76.222656 6.308594 C 77.007812 6.0625 77.351562 6.054688 83.945312 6.054688 C 91.460938 6.054688 91.617188 6.066406 92.933594 6.769531 C 93.929688 7.304688 94.921875 8.371094 95.453125 9.488281 C 95.910156 10.445312 95.917969 10.46875 95.917969 12.003906 C 95.917969 13.539062 95.910156 13.5625 95.453125 14.523438 C 94.921875 15.636719 93.941406 16.6875 92.925781 17.234375 C 91.785156 17.851562 91.035156 17.945312 87.332031 17.949219 L 83.957031 17.949219 L 83.957031 36.042969 L 95.980469 36.042969 L 95.980469 54.015625 L 83.957031 54.015625 L 83.957031 60.085938 L 95.980469 60.085938 L 95.980469 77.9375 L 83.957031 77.9375 L 83.957031 84.238281 C 83.957031 88.007812 83.90625 90.808594 83.828125 91.210938 C 83.210938 94.46875 79.8125 96.652344 76.585938 95.851562 Z M 90.03125 68.945312 L 90.03125 65.910156 L 87.023438 65.941406 L 84.019531 65.972656 L 83.984375 68.980469 L 83.953125 71.984375 L 90.03125 71.984375 Z M 90.03125 45.03125 L 90.03125 41.992188 L 83.957031 41.992188 L 83.957031 48.066406 L 90.03125 48.066406 Z M 90.03125 45.03125 "/>
</g>
</svg>
