<?xml version="1.0" encoding="UTF-8"?>
<svg xmlns="http://www.w3.org/2000/svg" xmlns:xlink="http://www.w3.org/1999/xlink" width="96" height="96" viewBox="0 0 96 96" version="1.1">
<g id="surface1">
<path style=" stroke:none;fill-rule:nonzero;fill:rgb(74.509804%,74.509804%,74.509804%);fill-opacity:1;" d="M 23.933594 54.660156 C 29.609375 53 35.65625 56.441406 37.449219 62.351562 L 41.5 75.707031 C 43.292969 81.613281 40.140625 87.746094 34.46875 89.40625 C 28.796875 91.066406 22.742188 87.621094 20.953125 81.714844 L 16.902344 68.359375 C 15.109375 62.453125 18.257812 56.316406 23.933594 54.660156 Z M 23.933594 54.660156 "/>
<path style=" stroke:none;fill-rule:nonzero;fill:rgb(74.509804%,74.509804%,74.509804%);fill-opacity:1;" d="M 47.816406 6 C 27.980469 6 11.671875 24.050781 12.003906 40.3125 C 12.292969 54.507812 16.855469 68.484375 18.003906 72 L 27.15625 72 C 20.1875 58.25 20.859375 41.0625 20.859375 41.0625 C 20.859375 26.828125 32.898438 15.1875 47.8125 15.1875 C 62.726562 15.1875 74.8125 26.148438 74.765625 40.875 C 74.625 50.921875 73.738281 56.828125 68.734375 72 L 78.15625 72 C 79.503906 68.132812 84.003906 52.855469 84.003906 40.3125 C 84.003906 23.335938 67.644531 6 47.8125 6 Z M 47.816406 6 "/>
<path style=" stroke:none;fill-rule:nonzero;fill:rgb(74.509804%,74.509804%,74.509804%);fill-opacity:1;" d="M 72.070312 54.875 C 66.394531 53.214844 60.34375 56.660156 58.550781 62.566406 L 54.5 75.921875 C 52.710938 81.828125 55.855469 87.964844 61.53125 89.621094 C 67.207031 91.28125 73.257812 87.835938 75.050781 81.929688 L 79.097656 68.574219 C 80.890625 62.664062 77.746094 56.535156 72.070312 54.875 Z M 72.070312 54.875 "/>
<path style=" stroke:none;fill-rule:nonzero;fill:rgb(100%,100%,100%);fill-opacity:1;" d="M 63.398438 89.941406 C 58.738281 89.449219 55.09375 86.003906 54.191406 81.222656 C 54.015625 80.296875 54.042969 78.03125 54.238281 77.117188 C 54.390625 76.421875 57.152344 67.199219 58.382812 63.28125 C 58.683594 62.320312 59.125 61.144531 59.367188 60.671875 C 60.371094 58.667969 62.109375 56.859375 64.046875 55.800781 C 65.605469 54.953125 67.269531 54.539062 69.15625 54.539062 C 70.480469 54.539062 71.460938 54.695312 72.609375 55.09375 C 73.035156 55.238281 73.398438 55.34375 73.414062 55.328125 C 73.480469 55.257812 73.855469 53.152344 74.054688 51.730469 C 74.796875 46.4375 74.984375 39.65625 74.476562 36.691406 C 73.257812 29.59375 69.492188 23.800781 63.484375 19.78125 C 56.5625 15.148438 47.140625 13.886719 39.171875 16.523438 C 34.832031 17.957031 31.222656 20.214844 28.070312 23.457031 C 24.085938 27.5625 21.695312 32.539062 20.984375 38.1875 C 20.792969 39.722656 20.824219 45.394531 21.039062 48.070312 C 21.304688 51.289062 21.847656 55.445312 22.003906 55.445312 C 22.046875 55.445312 22.386719 55.304688 22.761719 55.132812 C 26.5625 53.40625 31.328125 54.367188 34.492188 57.5 C 35.824219 58.820312 36.742188 60.34375 37.386719 62.3125 C 38.007812 64.222656 41.46875 75.699219 41.691406 76.597656 C 41.953125 77.65625 42 80.058594 41.777344 81.171875 C 41.109375 84.546875 39.074219 87.242188 36.101562 88.699219 C 34.371094 89.546875 33.652344 89.699219 31.484375 89.695312 C 29.816406 89.6875 29.609375 89.667969 28.773438 89.417969 C 25.519531 88.433594 22.925781 86.191406 21.554688 83.1875 C 21.359375 82.757812 20.480469 80.054688 19.601562 77.175781 C 18.726562 74.300781 17.800781 71.289062 17.546875 70.492188 C 14.90625 62.210938 13.0625 53.40625 12.320312 45.511719 C 12.097656 43.15625 12.015625 38.703125 12.167969 37.277344 C 12.910156 30.273438 16.433594 23.210938 22.050781 17.4375 C 28.238281 11.082031 35.898438 7.214844 44.222656 6.242188 C 45.886719 6.042969 49.417969 6.019531 51.046875 6.1875 C 56.980469 6.808594 62.613281 8.839844 67.546875 12.140625 C 76.132812 17.878906 82.09375 26.703125 83.59375 35.886719 C 83.9375 37.996094 84.03125 40.035156 83.90625 42.695312 C 83.617188 48.742188 82.621094 55.128906 80.785156 62.644531 C 79.898438 66.28125 78.285156 71.859375 78.085938 71.992188 C 78.042969 72.023438 77.300781 74.382812 76.4375 77.234375 C 75.570312 80.089844 74.710938 82.785156 74.523438 83.230469 C 74.011719 84.449219 73.023438 85.855469 71.976562 86.863281 C 70.078125 88.695312 67.90625 89.707031 65.359375 89.949219 C 64.769531 90.003906 64.265625 90.042969 64.234375 90.039062 C 64.210938 90.03125 63.832031 89.984375 63.398438 89.941406 Z M 63.398438 89.941406 "/>
</g>
</svg>
