<?xml version="1.0" encoding="UTF-8"?>
<svg xmlns="http://www.w3.org/2000/svg" xmlns:xlink="http://www.w3.org/1999/xlink" width="96" height="96" viewBox="0 0 96 96" version="1.1">
<g id="surface1">
<path style=" stroke:none;fill-rule:nonzero;fill:rgb(74.509804%,74.509804%,74.509804%);fill-opacity:1;" d="M 69 6 C 80.597656 6 90 15.402344 90 27 C 90 33.71875 86.84375 39.65625 81.9375 43.5 C 83.195312 44.597656 84 46.1875 84 48 C 83.988281 60 84 66.3125 84 84 C 84 87.324219 81.320312 90 78 90 L 24 90 C 20.675781 90 18 87.324219 18 84 L 18 71.0625 L 2.625 82.5 C 2.507812 82.578125 2.382812 82.640625 2.25 82.6875 C 2.066406 82.71875 1.871094 82.71875 1.6875 82.6875 C 1.5625 82.699219 1.4375 82.699219 1.3125 82.6875 C 1.179688 82.640625 1.054688 82.578125 0.9375 82.5 C 0.804688 82.453125 0.679688 82.390625 0.5625 82.3125 C 0.496094 82.253906 0.433594 82.191406 0.375 82.125 C 0.308594 82.066406 0.246094 82.003906 0.1875 81.9375 C 0.109375 81.824219 0.046875 81.695312 0 81.5625 C -0.0117188 81.4375 -0.0117188 81.3125 0 81.1875 L 0 44.8125 C -0.0117188 44.6875 -0.0117188 44.5625 0 44.4375 C 0.0507812 44.304688 0.109375 44.179688 0.1875 44.0625 C 0.25 43.996094 0.308594 43.933594 0.375 43.875 C 0.4375 43.808594 0.496094 43.746094 0.5625 43.691406 C 0.621094 43.625 0.683594 43.558594 0.75 43.503906 C 0.808594 43.4375 0.871094 43.371094 0.9375 43.316406 C 1.054688 43.234375 1.179688 43.171875 1.3125 43.128906 C 1.496094 43.097656 1.6875 43.097656 1.875 43.128906 C 1.9375 43.125 2 43.125 2.0625 43.128906 C 2.128906 43.1875 2.191406 43.25 2.246094 43.316406 C 2.382812 43.363281 2.507812 43.421875 2.621094 43.503906 L 17.996094 54.941406 L 17.996094 48.003906 C 17.996094 46.191406 18.804688 44.601562 20.058594 43.503906 C 15.15625 39.660156 11.996094 33.71875 11.996094 27.003906 C 11.996094 15.40625 21.402344 6.003906 32.996094 6.003906 C 40.699219 6.003906 47.34375 10.132812 50.996094 16.316406 C 54.652344 10.132812 61.296875 6.003906 68.996094 6.003906 Z M 69 18 C 64.027344 18 60 22.027344 60 27 C 60 31.972656 64.027344 36 69 36 C 73.972656 36 78 31.972656 78 27 C 78 22.027344 73.972656 18 69 18 Z M 33 18 C 28.027344 18 24 22.027344 24 27 C 24 31.972656 28.027344 36 33 36 C 37.972656 36 42 31.972656 42 27 C 42 22.027344 37.972656 18 33 18 Z M 51 37.6875 C 50.050781 39.292969 48.953125 40.703125 47.625 42 L 54.375 42 C 53.046875 40.703125 51.949219 39.292969 51 37.6875 Z M 51 37.6875 "/>
<path style=" stroke:none;fill-rule:nonzero;fill:rgb(100%,100%,100%);fill-opacity:1;" d="M 23.03125 89.863281 C 21.339844 89.617188 19.535156 88.328125 18.78125 86.835938 C 18.070312 85.429688 18.085938 85.636719 18.015625 78.078125 L 17.945312 71.046875 L 11.011719 76.210938 C 7.203125 79.050781 3.667969 81.671875 3.164062 82.035156 C 2.128906 82.78125 1.722656 82.855469 0.925781 82.449219 C -0.0273438 81.964844 0.0546875 83.78125 0.0546875 62.964844 L 0.0546875 44.277344 L 0.597656 43.738281 C 1.246094 43.085938 1.769531 43.019531 2.503906 43.492188 C 2.757812 43.65625 6.335938 46.304688 10.457031 49.371094 L 17.945312 54.953125 L 18.015625 50.898438 C 18.074219 47.421875 18.113281 46.761719 18.304688 46.230469 C 18.609375 45.386719 19.070312 44.609375 19.632812 44.003906 L 20.101562 43.492188 L 19.039062 42.570312 C 16.199219 40.097656 13.839844 36.339844 12.828125 32.671875 C 12.242188 30.53125 12.132812 29.628906 12.136719 26.914062 C 12.144531 23.960938 12.3125 22.871094 13.179688 20.273438 C 15.390625 13.632812 20.898438 8.507812 27.734375 6.734375 C 33.652344 5.195312 40.042969 6.347656 45.003906 9.855469 C 46.53125 10.9375 48.941406 13.347656 49.960938 14.820312 C 50.398438 15.457031 50.824219 16.066406 50.898438 16.175781 C 51.019531 16.347656 51.066406 16.320312 51.242188 15.980469 C 51.695312 15.109375 53.347656 13.089844 54.628906 11.855469 C 59.75 6.90625 66.949219 4.976562 74.023438 6.65625 C 76.320312 7.203125 78.765625 8.308594 80.972656 9.804688 C 82.457031 10.808594 85.195312 13.546875 86.195312 15.027344 C 88.863281 18.976562 90.085938 23.183594 89.90625 27.78125 C 89.675781 33.636719 87.257812 38.710938 82.808594 42.695312 L 81.917969 43.492188 L 82.339844 43.957031 C 82.945312 44.628906 83.335938 45.292969 83.664062 46.1875 L 83.945312 46.972656 L 83.980469 65.296875 C 84.003906 77.082031 83.96875 83.992188 83.890625 84.65625 C 83.566406 87.355469 81.5 89.503906 78.871094 89.875 C 77.78125 90.027344 24.085938 90.015625 23.03125 89.863281 Z M 53.5 41.019531 C 52.988281 40.4375 52.230469 39.460938 51.8125 38.851562 C 51.398438 38.242188 51.015625 37.75 50.96875 37.75 C 50.921875 37.75 50.699219 38.0625 50.46875 38.4375 C 50.066406 39.101562 49.144531 40.289062 48.09375 41.492188 L 47.578125 42.082031 L 54.433594 42.082031 Z M 35.777344 35.589844 C 39.730469 34.257812 42.234375 30.589844 41.996094 26.484375 C 41.804688 23.179688 39.867188 20.285156 36.898438 18.867188 C 35.535156 18.214844 34.613281 18.011719 32.992188 18.011719 C 31.304688 18.011719 30.429688 18.21875 28.90625 18.957031 C 28.039062 19.382812 27.648438 19.675781 26.671875 20.65625 C 25.714844 21.617188 25.394531 22.03125 24.96875 22.890625 C 24.21875 24.40625 24.019531 25.269531 24.019531 27.039062 C 24.019531 28.242188 24.078125 28.695312 24.308594 29.449219 C 25.34375 32.773438 27.796875 35.09375 31.070312 35.839844 C 32.292969 36.121094 34.5625 36 35.777344 35.589844 Z M 70.945312 35.828125 C 72.023438 35.597656 73.550781 34.871094 74.570312 34.09375 C 76.027344 32.992188 77.175781 31.273438 77.710938 29.382812 C 78.039062 28.210938 78.097656 26.078125 77.828125 24.992188 C 76.988281 21.617188 74.382812 19.011719 71.007812 18.171875 C 70.054688 17.933594 67.796875 17.960938 66.796875 18.222656 C 64.175781 18.90625 62.046875 20.679688 60.835938 23.195312 C 59.589844 25.777344 59.730469 29.078125 61.1875 31.539062 C 62.476562 33.710938 64.648438 35.289062 67.105469 35.828125 C 68.109375 36.054688 69.886719 36.050781 70.945312 35.828125 Z M 70.945312 35.828125 "/>
</g>
</svg>
