<?xml version="1.0" encoding="UTF-8"?>
<svg xmlns="http://www.w3.org/2000/svg" xmlns:xlink="http://www.w3.org/1999/xlink" width="96" height="96" viewBox="0 0 96 96" version="1.1">
<g id="surface1">
<path style=" stroke:none;fill-rule:nonzero;fill:rgb(74.509804%,74.509804%,74.509804%);fill-opacity:1;" d="M 12.183594 24 L 60 24 C 63.3125 24 66 26.6875 66 30 L 66 72 C 66 75.3125 63.3125 78 60 78 L 12.183594 78 C 8.871094 78 6.183594 75.3125 6.183594 72 L 6.183594 30 C 6.183594 26.6875 8.871094 24 12.183594 24 Z M 12.183594 24 "/>
<path style=" stroke:none;fill-rule:nonzero;fill:rgb(74.509804%,74.509804%,74.509804%);fill-opacity:1;" d="M 66 50.820312 L 86.816406 30 L 90 30 L 90 72 L 87 72 Z M 66 50.820312 "/>
<path style=" stroke:none;fill-rule:nonzero;fill:rgb(100%,100%,100%);fill-opacity:1;" d="M 11.015625 77.84375 C 9.472656 77.550781 7.742188 76.285156 7.015625 74.921875 C 6.195312 73.386719 6.246094 74.945312 6.246094 50.996094 C 6.246094 32.125 6.273438 29.164062 6.429688 28.546875 C 6.945312 26.582031 8.304688 25.097656 10.28125 24.34375 L 11.011719 24.0625 L 35.53125 24.03125 C 52.425781 24.007812 60.316406 24.039062 60.90625 24.128906 C 63.1875 24.476562 65.054688 26.15625 65.734375 28.453125 C 65.910156 29.054688 65.929688 31.332031 65.925781 50.988281 C 65.925781 69.074219 65.898438 72.960938 65.757812 73.484375 C 65.171875 75.6875 63.28125 77.441406 61.042969 77.851562 C 60.097656 78.03125 11.933594 78.019531 11.015625 77.84375 Z M 11.015625 77.84375 "/>
<path style=" stroke:none;fill-rule:nonzero;fill:rgb(100%,100%,100%);fill-opacity:1;" d="M 76.527344 61.367188 L 66.050781 50.8125 L 86.792969 30.070312 L 89.949219 30.070312 L 89.949219 71.921875 L 87 71.921875 Z M 76.527344 61.367188 "/>
</g>
</svg>
