<?xml version="1.0" encoding="UTF-8"?>
<svg xmlns="http://www.w3.org/2000/svg" xmlns:xlink="http://www.w3.org/1999/xlink" width="96" height="96" viewBox="0 0 96 96" version="1.1">
<g id="surface1">
<path style=" stroke:none;fill-rule:nonzero;fill:rgb(74.509804%,74.509804%,74.509804%);fill-opacity:1;" d="M 42.359375 0.0585938 C 39.632812 0.359375 37.058594 1.390625 34.859375 3.058594 C 31.929688 5.289062 29.984375 8.789062 29.984375 13.183594 L 29.984375 45.058594 C 29.984375 45.058594 31.398438 48.101562 32.984375 48.101562 C 34.570312 48.101562 35.984375 45.058594 35.984375 45.058594 L 35.984375 13.183594 C 35.984375 10.492188 37.015625 8.960938 38.609375 7.746094 C 40.203125 6.53125 42.59375 5.945312 44.984375 6.058594 C 47.375 6.171875 49.691406 6.984375 51.359375 8.496094 C 53.03125 10.011719 54.171875 12.007812 54.171875 15.246094 C 54.171875 28.238281 62.957031 36.300781 72.171875 36.0625 C 77.3125 35.925781 82.300781 33.199219 85.671875 28.1875 L 82.296875 22.1875 C 80.042969 27.679688 75.890625 29.960938 71.984375 30.0625 C 66.222656 30.210938 60.171875 25.679688 60.171875 15.246094 C 60.171875 10.496094 58.152344 6.582031 55.296875 3.996094 C 52.441406 1.414062 48.8125 0.234375 45.171875 0.0585938 C 44.261719 0.0195312 43.269531 -0.0390625 42.359375 0.0585938 Z M 83.984375 12.058594 C 83.984375 12.335938 83.992188 12.546875 83.984375 12.808594 L 88.671875 21.058594 C 88.738281 20.816406 88.796875 20.5625 88.859375 20.308594 Z M 83.984375 14.121094 C 83.949219 14.757812 83.863281 15.40625 83.796875 15.996094 L 88.109375 23.3125 C 88.25 22.9375 88.359375 22.578125 88.484375 22.1875 Z M 83.609375 17.121094 C 83.527344 17.664062 83.34375 18.125 83.234375 18.621094 L 87.171875 25.371094 C 87.347656 25.007812 87.574219 24.628906 87.734375 24.246094 Z M 83.046875 19.746094 C 82.90625 20.28125 82.65625 20.761719 82.484375 21.246094 L 86.046875 27.433594 C 86.289062 27.042969 86.574219 26.726562 86.796875 26.308594 Z M 83.046875 19.746094 "/>
<path style=" stroke:none;fill-rule:nonzero;fill:rgb(74.509804%,74.509804%,74.509804%);fill-opacity:1;" d="M 16.363281 36.058594 L 49.636719 36.058594 C 52.046875 36.058594 54 38.011719 54 40.421875 L 54 79.699219 C 54 82.105469 52.046875 84.058594 49.636719 84.058594 L 16.363281 84.058594 C 13.953125 84.058594 12 82.105469 12 79.699219 L 12 40.421875 C 12 38.011719 13.953125 36.058594 16.363281 36.058594 Z M 16.363281 36.058594 "/>
<path style=" stroke:none;fill-rule:nonzero;fill:rgb(100%,100%,100%);fill-opacity:1;" d="M 15.113281 83.839844 C 13.722656 83.398438 12.679688 82.359375 12.25 80.980469 C 12.058594 80.355469 12.054688 79.976562 12.054688 60.027344 C 12.054688 39.851562 12.054688 39.707031 12.257812 39.101562 C 12.667969 37.882812 13.386719 37.078125 14.5625 36.515625 L 15.316406 36.152344 L 22.664062 36.125 L 30.015625 36.097656 L 30.046875 23.679688 C 30.085938 9.953125 30.039062 10.953125 30.734375 8.863281 C 31.785156 5.703125 34.09375 3.175781 37.398438 1.574219 C 39.59375 0.507812 40.898438 0.183594 43.234375 0.101562 C 50.367188 -0.144531 55.902344 2.898438 58.621094 8.550781 C 59.652344 10.695312 59.992188 12.234375 60.128906 15.390625 C 60.296875 19.332031 60.765625 21.445312 62.027344 23.9375 C 63.519531 26.878906 66.167969 29.039062 69.214844 29.792969 C 70.277344 30.054688 72.109375 30.144531 73.183594 29.984375 C 75.777344 29.609375 78.347656 28.132812 80.03125 26.0625 C 80.769531 25.15625 81.800781 23.503906 82.070312 22.789062 C 82.164062 22.550781 82.269531 22.351562 82.300781 22.351562 C 82.335938 22.351562 83.101562 23.664062 84 25.269531 L 85.636719 28.179688 L 85.191406 28.804688 C 82.679688 32.316406 78.914062 34.839844 74.851562 35.722656 C 73.984375 35.914062 73.523438 35.945312 71.773438 35.945312 C 70.023438 35.945312 69.5625 35.914062 68.699219 35.722656 C 63.410156 34.574219 59.007812 30.988281 56.5 25.785156 C 55.496094 23.710938 54.734375 21.085938 54.414062 18.625 C 54.355469 18.152344 54.261719 16.796875 54.214844 15.617188 C 54.101562 13.117188 53.945312 12.34375 53.261719 10.960938 C 51.90625 8.21875 49.105469 6.449219 45.527344 6.078125 C 43.222656 5.835938 40.691406 6.359375 39.042969 7.417969 C 37.839844 8.195312 36.886719 9.289062 36.433594 10.425781 C 35.949219 11.640625 35.949219 11.699219 35.945312 24.285156 L 35.941406 36.101562 L 43.046875 36.101562 C 50.886719 36.101562 50.824219 36.101562 51.886719 36.734375 C 52.960938 37.375 53.710938 38.546875 53.902344 39.867188 C 54.039062 40.816406 54.039062 79.351562 53.90625 80.296875 C 53.664062 81.953125 52.460938 83.363281 50.902344 83.820312 C 50.414062 83.960938 48.570312 83.980469 32.9375 83.972656 C 19.183594 83.96875 15.433594 83.9375 15.113281 83.839844 Z M 15.113281 83.839844 "/>
</g>
</svg>
