<?xml version="1.0" encoding="UTF-8"?>
<svg xmlns="http://www.w3.org/2000/svg" xmlns:xlink="http://www.w3.org/1999/xlink" width="96" height="96" viewBox="0 0 96 96" version="1.1">
<g id="surface1">
<path style=" stroke:none;fill-rule:nonzero;fill:rgb(74.509804%,74.509804%,74.509804%);fill-opacity:1;" d="M 14.820312 6 C 9.894531 6 6.007812 9.886719 6.007812 14.8125 L 6.007812 81.183594 C 6.007812 86.109375 9.894531 89.996094 14.820312 89.996094 L 69.195312 89.996094 C 74.121094 89.996094 78.007812 86.113281 78.007812 81.183594 L 78.007812 14.8125 C 78.007812 9.886719 74.121094 6 69.195312 6 Z M 12.007812 12 L 72.007812 12 L 72.007812 78 L 12.007812 78 Z M 12.007812 12 "/>
<path style=" stroke:none;fill-rule:nonzero;fill:rgb(100%,100%,100%);fill-opacity:1;" d="M 13.621094 89.863281 C 10.054688 89.34375 7.328125 86.953125 6.335938 83.476562 L 6.0625 82.507812 L 6.023438 48.765625 C 6 25.625 6.03125 14.664062 6.117188 13.882812 C 6.523438 10.355469 8.75 7.597656 12.128906 6.449219 L 13.117188 6.113281 L 41.410156 6.074219 C 62.292969 6.042969 69.949219 6.074219 70.632812 6.179688 C 73.839844 6.671875 76.410156 8.859375 77.53125 12.054688 L 77.878906 13.046875 L 77.910156 47.636719 C 77.941406 81.960938 77.941406 82.234375 77.691406 83.28125 C 77.3125 84.871094 76.589844 86.15625 75.40625 87.339844 C 73.859375 88.878906 72.382812 89.605469 70.265625 89.871094 C 68.972656 90.03125 14.730469 90.027344 13.621094 89.863281 Z M 71.996094 44.992188 L 71.996094 11.992188 L 11.941406 11.992188 L 11.941406 77.992188 L 71.996094 77.992188 Z M 71.996094 44.992188 "/>
</g>
</svg>
