<?xml version="1.0" encoding="UTF-8"?>
<svg xmlns="http://www.w3.org/2000/svg" xmlns:xlink="http://www.w3.org/1999/xlink" width="96" height="96" viewBox="0 0 96 96" version="1.1">
<g id="surface1">
<path style=" stroke:none;fill-rule:nonzero;fill:rgb(74.509804%,74.509804%,74.509804%);fill-opacity:1;" d="M 6 30 C 2.683594 30 0.0117188 33.136719 0.0117188 36.9375 L 0.0117188 64.3125 C 0.0117188 68.113281 2.503906 72 5.824219 72 L 11.824219 72 C 11.824219 75.796875 14.671875 78 17.988281 78 L 23.964844 78 C 27.28125 78 29.824219 75.796875 29.824219 72 L 65.753906 72 C 65.753906 75.796875 68.550781 78 71.871094 78 L 77.835938 78 C 81.152344 78 83.824219 75.796875 83.824219 72 L 89.835938 72 C 93.152344 72 95.824219 68.109375 95.824219 64.3125 L 95.824219 36.9375 C 95.761719 33.097656 93.125 29.976562 89.761719 29.976562 Z M 8.996094 37.152344 C 10.648438 37.152344 11.988281 42.714844 11.988281 51 C 11.988281 59.285156 10.648438 64.425781 8.996094 64.425781 C 7.34375 64.425781 6 59.285156 6 51 C 6 42.714844 7.34375 37.152344 8.996094 37.152344 Z M 20.96875 37.152344 C 22.625 37.152344 23.964844 43.867188 23.964844 52.152344 C 23.964844 60.4375 22.414062 64.398438 20.761719 64.398438 C 19.109375 64.398438 17.976562 59.285156 17.976562 51 C 17.976562 42.714844 19.320312 37.152344 20.96875 37.152344 Z M 32.738281 37.152344 C 34.390625 37.152344 35.941406 42.714844 35.941406 51 C 35.941406 59.285156 34.601562 64.398438 32.945312 64.398438 C 31.296875 64.398438 29.953125 59.285156 29.953125 51 C 29.953125 42.714844 31.085938 37.152344 32.738281 37.152344 Z M 74.859375 36.011719 C 83.125 36.011719 89.828125 42.726562 89.828125 51.011719 C 89.828125 59.296875 83.125 66.011719 74.859375 66.011719 C 66.589844 66.011719 59.886719 59.296875 59.886719 51.011719 C 59.886719 42.726562 66.589844 36.011719 74.859375 36.011719 Z M 74.859375 36.011719 "/>
<path style=" stroke:none;fill-rule:nonzero;fill:rgb(74.509804%,74.509804%,74.509804%);fill-opacity:1;" d="M 83.820312 51 C 83.820312 55.972656 79.789062 60 74.820312 60 C 69.847656 60 65.820312 55.972656 65.820312 51 C 65.820312 46.027344 69.847656 42 74.820312 42 C 79.789062 42 83.820312 46.027344 83.820312 51 Z M 83.820312 51 "/>
<path style=" stroke:none;fill-rule:nonzero;fill:rgb(100%,100%,100%);fill-opacity:1;" d="M 16.835938 77.855469 C 15.40625 77.617188 14.40625 77.09375 13.453125 76.085938 C 12.71875 75.3125 12.109375 74.136719 12.003906 73.292969 C 11.964844 72.980469 11.902344 72.546875 11.871094 72.332031 L 11.808594 71.933594 L 4.699219 71.863281 L 3.96875 71.519531 C 2.472656 70.820312 1.058594 68.960938 0.40625 66.84375 L 0.121094 65.917969 L 0.0859375 51.097656 C 0.046875 34.539062 0.0078125 35.300781 0.914062 33.476562 C 1.550781 32.179688 2.515625 31.203125 3.761719 30.589844 L 4.6875 30.132812 L 91.140625 30.132812 L 92.078125 30.59375 C 93.796875 31.445312 95.160156 33.300781 95.589844 35.371094 C 95.75 36.152344 95.769531 38.265625 95.742188 51.097656 L 95.710938 65.917969 L 95.417969 66.785156 C 94.691406 68.949219 93.296875 70.746094 91.746094 71.5 L 91.003906 71.859375 L 87.382812 71.898438 L 83.757812 71.9375 L 83.757812 72.367188 C 83.757812 73.15625 83.382812 74.488281 82.949219 75.222656 C 82.386719 76.175781 81.664062 76.816406 80.601562 77.324219 C 79.324219 77.929688 78.453125 78.015625 74.246094 77.964844 C 70.8125 77.921875 70.519531 77.898438 69.78125 77.636719 C 67.550781 76.84375 66.191406 75.191406 65.882812 72.894531 L 65.753906 71.921875 L 29.773438 71.921875 L 29.773438 72.386719 C 29.769531 73.132812 29.425781 74.382812 29.007812 75.160156 C 28.265625 76.558594 26.757812 77.589844 25.070312 77.859375 C 24.125 78.011719 17.734375 78.007812 16.835938 77.855469 Z M 77.535156 65.78125 C 80.425781 65.265625 83 63.964844 85.136719 61.929688 C 91.171875 56.191406 91.441406 46.789062 85.742188 40.683594 C 81.824219 36.488281 75.59375 34.925781 70.113281 36.757812 C 65.671875 38.246094 62.113281 41.808594 60.613281 46.261719 C 59.410156 49.839844 59.699219 54.273438 61.351562 57.578125 C 64.414062 63.703125 70.859375 66.96875 77.535156 65.78125 Z M 9.46875 64.304688 C 10.507812 63.769531 11.40625 60.6875 11.835938 56.195312 C 12.027344 54.203125 12.023438 47.679688 11.832031 45.671875 C 11.203125 39.085938 9.757812 35.84375 8.222656 37.585938 C 6.808594 39.195312 6 44.058594 6 50.921875 C 6 57.953125 6.859375 62.847656 8.3125 64.125 C 8.789062 64.542969 8.960938 64.570312 9.46875 64.304688 Z M 21.4375 64.175781 C 22.394531 63.570312 23.160156 61.542969 23.65625 58.289062 C 23.921875 56.535156 24.03125 49.933594 23.839844 47.246094 C 23.425781 41.519531 22.398438 37.625 21.183594 37.195312 C 20.632812 37 20.242188 37.3125 19.710938 38.371094 C 18.546875 40.671875 17.976562 44.839844 17.972656 51.058594 C 17.96875 56.019531 18.324219 59.734375 19.007812 61.953125 C 19.679688 64.136719 20.421875 64.8125 21.4375 64.175781 Z M 33.925781 63.8125 C 34.648438 62.867188 35.289062 60.492188 35.679688 57.3125 C 35.992188 54.722656 35.992188 47.476562 35.679688 44.941406 C 35.1875 40.996094 34.445312 38.476562 33.5 37.53125 C 32.238281 36.269531 31.101562 38.0625 30.460938 42.328125 C 29.789062 46.832031 29.734375 53.8125 30.339844 58.234375 C 30.78125 61.453125 31.628906 63.839844 32.476562 64.265625 C 33.007812 64.53125 33.5 64.375 33.925781 63.8125 Z M 33.925781 63.8125 "/>
<path style=" stroke:none;fill-rule:nonzero;fill:rgb(100%,100%,100%);fill-opacity:1;" d="M 72.644531 59.671875 C 70.199219 59.070312 68.074219 57.378906 66.859375 55.070312 C 65.582031 52.640625 65.582031 49.351562 66.859375 46.921875 C 68.453125 43.886719 71.4375 42.078125 74.832031 42.082031 C 82.289062 42.09375 86.382812 50.539062 81.847656 56.539062 C 80.734375 58.007812 78.925781 59.171875 77 59.667969 C 75.777344 59.980469 73.90625 59.980469 72.644531 59.671875 Z M 72.644531 59.671875 "/>
</g>
</svg>
