<?xml version="1.0" encoding="UTF-8"?>
<svg xmlns="http://www.w3.org/2000/svg" xmlns:xlink="http://www.w3.org/1999/xlink" width="96" height="96" viewBox="0 0 96 96" version="1.1">
<g id="surface1">
<path style=" stroke:none;fill-rule:nonzero;fill:rgb(74.509804%,74.509804%,74.509804%);fill-opacity:1;" d="M 21 0 C 21 0 12 0 12 9 L 12 63 C 12 72 21 72 21 72 L 30 72 L 30 84 C 30 87.324219 32.675781 90 36 90 L 60 90 C 63.324219 90 66 87.324219 66 84 L 66 72 L 75 72 C 84 72 84 63 84 63 L 84 9 C 84 0 75 0 75 0 Z M 24 12 L 36 12 L 36 24 L 24 24 Z M 42 12 L 54 12 L 54 24 L 42 24 Z M 60 12 L 72 12 L 72 24 L 60 24 Z M 24 30 L 36 30 L 36 42 L 24 42 Z M 42 30 L 54 30 L 54 42 L 42 42 Z M 60 30 L 72 30 L 72 42 L 60 42 Z M 24 48 L 36 48 L 36 60 L 24 60 Z M 42 48 L 54 48 L 54 60 L 42 60 Z M 60 48 L 72 48 L 72 60 L 60 60 Z M 42 66 L 54 66 L 54 78 L 42 78 Z M 42 66 "/>
<path style=" stroke:none;fill-rule:nonzero;fill:rgb(100%,100%,100%);fill-opacity:1;" d="M 34.976562 89.863281 C 34.117188 89.71875 32.714844 89.054688 32.046875 88.46875 C 31.414062 87.917969 30.769531 86.957031 30.378906 85.976562 L 30.082031 85.234375 L 30.046875 78.578125 L 30.007812 71.921875 L 25.074219 71.921875 C 21.015625 71.921875 19.96875 71.886719 19.167969 71.722656 C 15.246094 70.914062 12.75 68.441406 12.195312 64.796875 C 12.101562 64.199219 12.070312 55.230469 12.097656 35.457031 C 12.132812 8.453125 12.144531 6.9375 12.355469 6.234375 C 12.78125 4.8125 13.429688 3.691406 14.355469 2.765625 C 15.898438 1.226562 17.863281 0.367188 20.441406 0.101562 C 21.390625 0.0078125 29.773438 -0.0234375 48.96875 0.0078125 L 76.144531 0.0429688 L 77.347656 0.375 C 79.179688 0.882812 80.414062 1.574219 81.597656 2.757812 C 82.726562 3.890625 83.226562 4.78125 83.671875 6.441406 L 83.945312 7.472656 L 83.945312 64.0625 L 83.664062 65.171875 C 82.839844 68.425781 80.980469 70.554688 78.125 71.519531 L 77.136719 71.855469 L 71.53125 71.898438 L 65.929688 71.9375 L 65.929688 78.40625 C 65.929688 83.996094 65.902344 84.96875 65.730469 85.550781 C 65.140625 87.53125 63.847656 88.914062 61.894531 89.65625 L 61.164062 89.9375 L 48.40625 89.957031 C 41.121094 89.96875 35.363281 89.925781 34.976562 89.863281 Z M 54.042969 71.984375 L 54.042969 65.980469 L 41.910156 65.980469 L 41.910156 77.992188 L 54.042969 77.992188 Z M 36.058594 54 L 36.027344 47.960938 L 24.015625 47.960938 L 23.984375 54 L 23.949219 60.035156 L 36.089844 60.035156 Z M 54.011719 54 L 53.980469 47.960938 L 41.96875 47.960938 L 41.9375 54 L 41.90625 60.035156 L 54.042969 60.035156 Z M 71.996094 53.96875 L 71.996094 47.898438 L 59.984375 47.898438 L 59.984375 60.035156 L 71.996094 60.035156 Z M 36.058594 35.984375 L 36.089844 29.945312 L 23.953125 29.945312 L 23.953125 42.085938 L 29.992188 42.054688 L 36.027344 42.019531 Z M 54.042969 36.011719 L 54.042969 29.945312 L 48.003906 29.976562 L 41.96875 30.007812 L 41.9375 35.890625 C 41.921875 39.125 41.933594 41.84375 41.964844 41.925781 C 42.011719 42.046875 43.339844 42.082031 48.03125 42.082031 L 54.042969 42.082031 Z M 71.996094 36.015625 L 71.996094 29.945312 L 59.984375 29.945312 L 59.984375 42.082031 L 71.996094 42.082031 Z M 36.085938 17.996094 L 36.085938 11.992188 L 23.953125 11.992188 L 23.953125 24.003906 L 36.085938 24.003906 Z M 54.042969 17.996094 L 54.042969 11.992188 L 41.910156 11.992188 L 41.910156 24.003906 L 54.042969 24.003906 Z M 71.996094 17.996094 L 71.996094 11.992188 L 59.984375 11.992188 L 59.984375 24.003906 L 71.996094 24.003906 Z M 71.996094 17.996094 "/>
</g>
</svg>
