<?xml version="1.0" encoding="UTF-8"?>
<svg xmlns="http://www.w3.org/2000/svg" xmlns:xlink="http://www.w3.org/1999/xlink" width="96" height="96" viewBox="0 0 96 96" version="1.1">
<g id="surface1">
<path style=" stroke:none;fill-rule:nonzero;fill:rgb(74.509804%,74.509804%,74.509804%);fill-opacity:1;" d="M 6 12 C 2.675781 12 0 14.675781 0 18 L 0 78 C 0 81.324219 2.675781 84 6 84 L 90 84 C 93.324219 84 96 81.324219 96 78 L 96 18 C 96 14.675781 93.324219 12 90 12 Z M 12 24 L 24 24 L 24 36 L 12 36 Z M 30 24 L 42 24 L 42 36 L 30 36 Z M 48 24 L 60 24 L 60 36 L 48 36 Z M 66 24 L 78 24 L 78 36 L 66 36 Z M 18 42 L 30 42 L 30 54 L 18 54 Z M 36 42 L 48 42 L 48 54 L 36 54 Z M 54 42 L 66 42 L 66 54 L 54 54 Z M 72 42 L 84 42 L 84 54 L 72 54 Z M 12 60 L 24 60 L 24 72 L 12 72 Z M 30 60 L 66 60 L 66 72 L 30 72 Z M 72 60 L 90 60 L 90 72 L 72 72 Z M 72 60 "/>
<path style=" stroke:none;fill-rule:nonzero;fill:rgb(100%,100%,100%);fill-opacity:1;" d="M 4.398438 83.734375 C 2.363281 83.1875 0.625 81.335938 0.195312 79.253906 C 0.09375 78.785156 0.0546875 69.78125 0.0546875 47.921875 C 0.0546875 14.328125 0.0078125 16.574219 0.765625 15.175781 C 1.492188 13.84375 2.628906 12.890625 4.15625 12.339844 L 4.945312 12.054688 L 47.292969 12.019531 C 74.46875 11.996094 90.003906 12.03125 90.652344 12.105469 C 92.039062 12.273438 93.09375 12.769531 94.085938 13.722656 C 94.9375 14.542969 95.394531 15.277344 95.699219 16.328125 C 95.875 16.953125 95.894531 19.960938 95.863281 48.273438 L 95.832031 79.539062 L 95.371094 80.503906 C 94.582031 82.15625 93.214844 83.296875 91.476562 83.75 C 90.414062 84.027344 5.429688 84.015625 4.398438 83.734375 Z M 24.046875 66.007812 L 24.015625 59.972656 L 12.007812 59.972656 L 11.972656 66.007812 L 11.941406 72.046875 L 24.078125 72.046875 Z M 66.050781 65.980469 L 66.050781 59.910156 L 48.003906 59.941406 L 29.960938 59.972656 L 29.925781 65.855469 C 29.910156 69.089844 29.921875 71.804688 29.953125 71.890625 C 30 72.015625 33.734375 72.046875 48.03125 72.046875 L 66.050781 72.046875 Z M 90.046875 66.007812 L 90.011719 59.972656 L 71.996094 59.910156 L 71.996094 72.046875 L 90.074219 72.046875 Z M 30.019531 48.023438 L 30.019531 41.957031 L 18.007812 41.957031 L 18.007812 54.089844 L 30.019531 54.089844 Z M 48.039062 48.023438 L 48.039062 42.019531 L 42 41.988281 L 35.964844 41.957031 L 35.964844 54.09375 L 42 54.0625 L 48.039062 54.03125 Z M 66.050781 48.023438 L 66.050781 41.957031 L 53.917969 41.957031 L 53.917969 47.941406 C 53.917969 51.234375 53.957031 53.964844 54 54.007812 C 54.046875 54.054688 56.777344 54.089844 60.066406 54.089844 L 66.050781 54.089844 Z M 84.007812 48.023438 L 84.007812 41.957031 L 71.996094 41.957031 L 71.996094 54.089844 L 84.007812 54.089844 Z M 24.078125 30.007812 L 24.078125 24.003906 L 11.941406 24.003906 L 11.941406 36.015625 L 24.078125 36.015625 Z M 42.03125 30.007812 L 42.03125 24.003906 L 29.898438 24.003906 L 29.898438 29.925781 C 29.898438 33.183594 29.9375 35.886719 29.980469 35.933594 C 30.027344 35.976562 32.753906 36.015625 36.046875 36.015625 L 42.03125 36.015625 Z M 59.984375 30.007812 L 59.984375 24.003906 L 47.976562 24.003906 L 47.976562 36.015625 L 59.984375 36.015625 Z M 78.0625 30.007812 L 78.0625 24.003906 L 65.929688 24.003906 L 65.929688 36.015625 L 78.0625 36.015625 Z M 78.0625 30.007812 "/>
</g>
</svg>
