<?xml version="1.0" encoding="UTF-8"?>
<svg xmlns="http://www.w3.org/2000/svg" xmlns:xlink="http://www.w3.org/1999/xlink" width="96" height="96" viewBox="0 0 96 96" version="1.1">
<g id="surface1">
<path style=" stroke:none;fill-rule:nonzero;fill:rgb(74.509804%,74.509804%,74.509804%);fill-opacity:1;" d="M 18.960938 24 C 8.488281 24 0.0234375 34.746094 0.0234375 48 C 0.0234375 61.253906 8.488281 72 18.960938 72 C 29.429688 72 37.898438 61.253906 37.898438 48 C 37.898438 34.746094 29.429688 24 18.960938 24 Z M 18.023438 36 L 24.023438 36 L 24.023438 42 L 30.023438 42 L 30.023438 48 L 24.023438 48 L 24.023438 54 L 18.023438 54 L 18.023438 48 L 12.023438 48 L 12.023438 42 L 18.023438 42 Z M 18.023438 36 "/>
<path style=" stroke:none;fill-rule:nonzero;fill:rgb(74.509804%,74.509804%,74.509804%);fill-opacity:1;" d="M 77.039062 24 C 66.566406 24 58.101562 34.746094 58.101562 48 C 58.101562 61.253906 66.566406 72 77.039062 72 C 87.511719 72 95.976562 61.253906 95.976562 48 C 95.976562 34.746094 87.511719 24 77.039062 24 Z M 68.976562 33 C 72.289062 33 74.976562 35.6875 74.976562 39 C 74.976562 42.3125 72.289062 45 68.976562 45 C 65.664062 45 62.976562 42.3125 62.976562 39 C 62.976562 35.6875 65.664062 33 68.976562 33 Z M 80.976562 45 C 84.289062 45 86.976562 47.6875 86.976562 51 C 86.976562 54.3125 84.289062 57 80.976562 57 C 77.664062 57 74.976562 54.3125 74.976562 51 C 74.976562 47.6875 77.664062 45 80.976562 45 Z M 80.976562 45 "/>
<path style=" stroke:none;fill-rule:nonzero;fill:rgb(74.509804%,74.509804%,74.509804%);fill-opacity:1;" d="M 18 24 L 18 36 L 24 36 L 24 42 L 30 42 L 30 48 L 24 48 L 24 54 L 18 54 L 18 60 L 78 60 L 77.441406 56.320312 C 75.691406 55.273438 73.667969 53.113281 73.667969 50.925781 C 73.667969 48.734375 75.800781 46.246094 77.554688 45.195312 L 77.976562 23.957031 Z M 69 33 C 72.3125 33 75 35.6875 75 39 C 75 42.3125 72.3125 45 69 45 C 65.6875 45 63 42.3125 63 39 C 63 35.6875 65.6875 33 69 33 Z M 69 33 "/>
<path style=" stroke:none;fill-rule:nonzero;fill:rgb(100%,100%,100%);fill-opacity:1;" d="M 16.34375 71.722656 C 8.875 70.375 2.703125 63.480469 0.742188 54.304688 C 0.253906 52.003906 0.125 50.699219 0.128906 47.960938 C 0.132812 45.050781 0.320312 43.386719 0.941406 40.84375 C 2.109375 36.054688 4.351562 32.042969 7.636719 28.882812 C 10.191406 26.421875 12.925781 24.960938 16.253906 24.285156 C 17.265625 24.078125 19.148438 24.0625 48.039062 24.0625 C 77.660156 24.0625 78.785156 24.074219 79.859375 24.296875 C 85.5625 25.492188 90.320312 29.546875 93.242188 35.703125 C 94.941406 39.289062 95.742188 42.765625 95.859375 47.113281 C 95.976562 51.445312 95.410156 54.894531 93.96875 58.636719 C 92.453125 62.5625 89.640625 66.386719 86.617188 68.640625 C 84.523438 70.207031 81.898438 71.347656 79.480469 71.746094 C 77.875 72.007812 75.109375 71.921875 73.664062 71.566406 C 68.40625 70.265625 64.234375 66.761719 61.226562 61.117188 L 60.582031 59.910156 L 35.367188 59.910156 L 34.898438 60.859375 C 33.753906 63.175781 32.191406 65.289062 30.25 67.15625 C 27.648438 69.652344 24.742188 71.160156 21.429688 71.734375 C 20.078125 71.96875 17.667969 71.960938 16.34375 71.722656 Z M 82.96875 56.675781 C 85.457031 55.75 86.980469 53.59375 86.980469 50.996094 C 86.980469 48.039062 85.015625 45.695312 82.015625 45.078125 C 81.191406 44.90625 80.917969 44.898438 80.148438 45.03125 C 77.6875 45.445312 75.753906 47.160156 75.15625 49.453125 C 74.59375 51.613281 75.332031 54.085938 76.960938 55.503906 C 77.59375 56.054688 79.011719 56.769531 79.804688 56.9375 C 80.632812 57.109375 82.132812 56.988281 82.96875 56.675781 Z M 24.078125 50.996094 L 24.078125 48.023438 L 30.019531 48.023438 L 30.019531 41.957031 L 24.078125 41.957031 L 24.078125 36.015625 L 18.007812 36.015625 L 18.007812 41.957031 L 11.941406 41.957031 L 11.941406 48.023438 L 18.007812 48.023438 L 18.007812 53.96875 L 24.078125 53.96875 Z M 70.15625 44.875 C 72.972656 44.277344 74.96875 41.867188 74.96875 39.0625 C 74.96875 35.628906 72.378906 33.039062 68.945312 33.039062 C 66.632812 33.039062 64.609375 34.316406 63.585938 36.417969 C 61.691406 40.304688 64.550781 44.890625 68.960938 45.035156 C 69.167969 45.042969 69.703125 44.96875 70.15625 44.875 Z M 70.15625 44.875 "/>
</g>
</svg>
