<?xml version="1.0" encoding="UTF-8"?>
<svg xmlns="http://www.w3.org/2000/svg" xmlns:xlink="http://www.w3.org/1999/xlink" width="96" height="96" viewBox="0 0 96 96" version="1.1">
<g id="surface1">
<path style=" stroke:none;fill-rule:nonzero;fill:rgb(74.509804%,74.509804%,74.509804%);fill-opacity:1;" d="M 17.820312 6 C 11.367188 6 6.007812 11.363281 6.007812 17.8125 L 6.007812 74.625 L 7.882812 76.3125 L 18.007812 86.4375 L 18.007812 18.003906 L 78.003906 18.003906 L 78.003906 78.003906 L 66.003906 78.003906 L 66.003906 90.003906 L 78.191406 90.003906 C 84.648438 90.003906 90.003906 84.640625 90.003906 78.1875 L 90.003906 17.816406 C 90.003906 11.339844 84.667969 5.996094 78.1875 5.996094 Z M 17.820312 6 "/>
<path style=" stroke:none;fill-rule:nonzero;fill:rgb(74.509804%,74.509804%,74.509804%);fill-opacity:1;" d="M 30 54 C 26.675781 54 24 56.675781 24 60 L 24 84 C 24 87.324219 26.675781 90 30 90 L 54 90 C 57.324219 90 60 87.324219 60 84 L 60 60 C 60 56.675781 57.324219 54 54 54 Z M 30 60 L 42 60 L 42 84 L 30 84 Z M 30 60 "/>
<path style=" stroke:none;fill-rule:nonzero;fill:rgb(100%,100%,100%);fill-opacity:1;" d="M 29.09375 89.867188 C 26.703125 89.46875 24.875 87.8125 24.246094 85.480469 C 24.109375 84.980469 24.078125 82.386719 24.078125 71.976562 C 24.078125 57.90625 24.042969 58.597656 24.785156 57.132812 C 25.269531 56.183594 26.378906 55.15625 27.507812 54.613281 L 28.472656 54.15625 L 41.722656 54.121094 C 54.625 54.085938 54.992188 54.09375 55.773438 54.332031 C 57.800781 54.949219 59.359375 56.664062 59.804688 58.761719 C 60.0625 59.992188 60.066406 83.957031 59.804688 85.1875 C 59.28125 87.671875 57.324219 89.515625 54.847656 89.871094 C 53.789062 90.023438 29.996094 90.019531 29.09375 89.867188 Z M 42.03125 71.980469 L 42.03125 59.910156 L 35.992188 59.941406 L 29.960938 59.972656 L 29.925781 71.863281 C 29.910156 78.398438 29.921875 83.816406 29.953125 83.902344 C 30 84.023438 31.328125 84.058594 36.023438 84.058594 L 42.03125 84.058594 Z M 42.03125 71.980469 "/>
<path style=" stroke:none;fill-rule:nonzero;fill:rgb(100%,100%,100%);fill-opacity:1;" d="M 66.050781 84.003906 L 66.050781 77.992188 L 78.0625 77.992188 L 78.0625 17.9375 L 18.007812 17.9375 L 18.007812 86.332031 L 12.46875 80.824219 C 9.421875 77.792969 6.71875 75.15625 6.464844 74.964844 L 6 74.617188 L 6 46.289062 C 6 27.441406 6.042969 17.539062 6.128906 16.699219 C 6.417969 13.90625 7.558594 11.527344 9.582031 9.511719 C 11.265625 7.828125 13.257812 6.761719 15.605469 6.28125 C 16.726562 6.054688 17.699219 6.046875 48.4375 6.078125 L 80.105469 6.113281 L 81.097656 6.390625 C 85.28125 7.570312 88.429688 10.71875 89.609375 14.902344 L 89.886719 15.894531 L 89.921875 47.46875 C 89.945312 69.320312 89.917969 79.308594 89.828125 79.910156 C 89.246094 83.722656 86.679688 87.132812 83.117188 88.820312 C 80.816406 89.910156 80.8125 89.910156 72.957031 89.96875 L 66.050781 90.019531 Z M 66.050781 84.003906 "/>
</g>
</svg>
