<?xml version="1.0" encoding="UTF-8"?>
<svg xmlns="http://www.w3.org/2000/svg" xmlns:xlink="http://www.w3.org/1999/xlink" width="96" height="96" viewBox="0 0 96 96" version="1.1">
<g id="surface1">
<path style=" stroke:none;fill-rule:nonzero;fill:rgb(74.509804%,74.509804%,74.509804%);fill-opacity:1;" d="M 47.941406 6 C 24.882812 6 5.980469 24.90625 5.980469 47.960938 C 5.980469 71.011719 24.882812 90.050781 47.941406 90.050781 C 70.996094 90.050781 90.03125 71.011719 90.03125 47.960938 C 90.03125 24.90625 70.996094 6 47.941406 6 Z M 47.941406 30.054688 C 58.023438 30.054688 65.980469 37.878906 65.980469 47.960938 C 65.980469 58.042969 58.023438 66 47.941406 66 C 37.859375 66 30.03125 58.042969 30.03125 47.960938 C 30.03125 37.878906 37.859375 30.054688 47.941406 30.054688 Z M 47.941406 30.054688 "/>
<path style=" stroke:none;fill-rule:nonzero;fill:rgb(74.509804%,74.509804%,74.509804%);fill-opacity:1;" d="M 48.058594 36.058594 C 41.46875 36.058594 35.980469 41.445312 35.980469 48.039062 C 35.980469 54.628906 41.46875 60.015625 48.058594 60.015625 C 54.648438 60.015625 60.039062 54.628906 60.039062 48.039062 C 60.039062 41.445312 54.648438 36.058594 48.058594 36.058594 Z M 48.058594 42.050781 C 51.410156 42.050781 54.050781 44.6875 54.050781 48.039062 C 54.050781 51.390625 51.410156 54.03125 48.058594 54.03125 C 44.710938 54.03125 42.070312 51.390625 42.070312 48.039062 C 42.070312 44.6875 44.710938 42.050781 48.058594 42.050781 Z M 48.058594 42.050781 "/>
<path style=" stroke:none;fill-rule:nonzero;fill:rgb(100%,100%,100%);fill-opacity:1;" d="M 46.984375 59.894531 C 42.003906 59.492188 37.714844 55.867188 36.378906 50.9375 C 35.980469 49.457031 35.980469 46.644531 36.378906 45.175781 C 37.328125 41.664062 39.679688 38.828125 42.917969 37.292969 C 44.820312 36.386719 45.65625 36.214844 48.097656 36.21875 C 50.027344 36.21875 50.296875 36.246094 51.292969 36.550781 C 54.617188 37.5625 57.246094 39.757812 58.726562 42.742188 C 61.027344 47.382812 60.109375 52.851562 56.410156 56.511719 C 53.886719 59.007812 50.605469 60.1875 46.984375 59.894531 Z M 49.375 53.902344 C 53.332031 52.972656 55.242188 48.730469 53.328125 45.132812 C 51.445312 41.59375 46.429688 40.957031 43.679688 43.914062 C 42.574219 45.101562 42.078125 46.351562 42.078125 47.976562 C 42.070312 49.738281 42.628906 51.121094 43.835938 52.320312 C 45.296875 53.773438 47.390625 54.371094 49.375 53.902344 Z M 49.375 53.902344 "/>
<path style=" stroke:none;fill-rule:nonzero;fill:rgb(100%,100%,100%);fill-opacity:1;" d="M 45.125 89.925781 C 40.007812 89.417969 36.921875 88.722656 33.054688 87.214844 C 27.53125 85.0625 22.992188 82.128906 18.746094 77.972656 C 11.480469 70.851562 7.101562 61.667969 6.191406 51.613281 C 5.890625 48.324219 6.089844 43.929688 6.6875 40.597656 C 8.996094 27.671875 17.46875 16.398438 29.359375 10.433594 C 37.144531 6.53125 46.054688 5.191406 54.722656 6.617188 C 68.269531 8.855469 79.964844 17.65625 85.921875 30.101562 C 90.859375 40.421875 91.304688 52.34375 87.152344 63.023438 C 85.988281 66.007812 84.003906 69.671875 82.164062 72.230469 C 80.1875 74.984375 76.722656 78.664062 74.28125 80.613281 C 67.960938 85.648438 60.847656 88.6875 52.988281 89.699219 C 51.527344 89.886719 46.253906 90.039062 45.125 89.925781 Z M 51.890625 65.625 C 53.523438 65.242188 54.769531 64.785156 56.339844 63.976562 C 62.304688 60.917969 65.992188 54.800781 65.992188 47.960938 C 65.992188 39.382812 60.289062 32.296875 51.875 30.421875 C 50.738281 30.171875 50.246094 30.132812 47.976562 30.132812 C 45.082031 30.132812 44.257812 30.25 42.011719 31 C 37.023438 32.660156 33 36.5625 31.109375 41.578125 C 30.234375 43.90625 29.835938 46.957031 30.070312 49.535156 C 30.835938 57.90625 36.722656 64.351562 44.941406 65.804688 C 46.359375 66.054688 50.503906 65.949219 51.890625 65.625 Z M 51.890625 65.625 "/>
</g>
</svg>
