<?xml version="1.0" encoding="UTF-8"?>
<svg xmlns="http://www.w3.org/2000/svg" xmlns:xlink="http://www.w3.org/1999/xlink" width="96" height="96" viewBox="0 0 96 96" version="1.1">
<g id="surface1">
<path style=" stroke:none;fill-rule:nonzero;fill:rgb(74.509804%,74.509804%,74.509804%);fill-opacity:1;" d="M 19.140625 0 C 11.929688 0 6.015625 5.925781 6.015625 13.125 L 6.015625 82.875 C 6.015625 90.074219 11.929688 96 19.140625 96 L 76.890625 96 C 84.097656 96 90.015625 90.074219 90.015625 82.875 L 90.015625 13.125 C 90.015625 5.925781 84.097656 0 76.890625 0 Z M 19.140625 12 L 76.890625 12 C 77.632812 12 78.015625 12.339844 78.015625 13.125 L 78.015625 82.875 C 78.015625 83.660156 77.632812 84 76.890625 84 L 19.140625 84 C 18.398438 84 18.015625 83.660156 18.015625 82.875 L 18.015625 13.125 C 18.015625 12.339844 18.398438 12 19.140625 12 Z M 19.140625 12 "/>
<path style=" stroke:none;fill-rule:nonzero;fill:rgb(74.509804%,74.509804%,74.509804%);fill-opacity:1;" d="M 47.039062 18 C 45.445312 18.0625 43.773438 18.351562 42.164062 18.75 C 29.300781 21.933594 21.542969 34.945312 24.726562 47.8125 C 27.429688 58.714844 37.179688 65.945312 47.921875 65.964844 C 48.929688 65.964844 49.949219 65.902344 50.96875 65.773438 L 48.636719 47.898438 C 48.425781 47.960938 48.214844 48 47.976562 48 C 44.664062 48 41.976562 45.316406 41.976562 42 C 41.976562 38.683594 44.664062 36 47.976562 36 C 51.292969 36 53.976562 38.683594 53.976562 42 C 53.976562 42.707031 53.804688 43.351562 53.542969 43.949219 L 69.746094 52.269531 C 72.0625 47.289062 72.566406 41.585938 71.226562 36.1875 C 68.441406 24.929688 58.195312 17.542969 47.042969 18 Z M 47.039062 18 "/>
<path style=" stroke:none;fill-rule:nonzero;fill:rgb(74.509804%,74.509804%,74.509804%);fill-opacity:1;" d="M 51.960938 48 L 60 72 C 64.40625 84.335938 78 74.304688 68.980469 66 Z M 51.960938 48 "/>
<path style=" stroke:none;fill-rule:nonzero;fill:rgb(100%,100%,100%);fill-opacity:1;" d="M 46.304688 65.84375 C 41.613281 65.554688 36.78125 63.675781 33.070312 60.703125 C 21.875 51.730469 20.992188 35.097656 31.175781 24.976562 C 35.597656 20.582031 41.757812 18.0625 48.097656 18.0625 C 57.984375 18.0625 66.855469 24.214844 70.324219 33.476562 C 72.421875 39.074219 72.394531 45.46875 70.25 50.949219 L 69.746094 52.246094 L 67.867188 51.265625 C 66.835938 50.726562 63.234375 48.878906 59.863281 47.152344 C 56.488281 45.429688 53.710938 44.007812 53.6875 43.988281 C 53.664062 43.96875 53.742188 43.578125 53.859375 43.109375 C 54.5 40.546875 53.066406 37.777344 50.453125 36.523438 C 49.539062 36.082031 49.496094 36.078125 47.976562 36.078125 C 46.453125 36.078125 46.414062 36.082031 45.5 36.523438 C 42.257812 38.078125 41.046875 41.628906 42.664062 44.832031 C 43.601562 46.6875 45.777344 48.015625 47.875 48.023438 C 48.578125 48.023438 48.582031 48.03125 48.652344 48.425781 C 48.691406 48.648438 49.191406 52.480469 49.769531 56.941406 C 50.347656 61.398438 50.84375 65.199219 50.875 65.382812 C 50.9375 65.695312 50.902344 65.722656 50.417969 65.78125 C 49.363281 65.910156 47.753906 65.933594 46.304688 65.84375 Z M 46.304688 65.84375 "/>
<path style=" stroke:none;fill-rule:nonzero;fill:rgb(100%,100%,100%);fill-opacity:1;" d="M 65.078125 77.554688 C 63.230469 77.035156 61.8125 75.707031 60.671875 73.429688 C 60.246094 72.585938 52.117188 48.542969 52.222656 48.441406 C 52.277344 48.386719 68.523438 65.480469 69.871094 67.011719 C 70.910156 68.1875 71.699219 69.789062 71.886719 71.078125 C 72.371094 74.433594 69.929688 77.496094 66.609375 77.691406 C 66.0625 77.722656 65.5 77.671875 65.078125 77.554688 Z M 65.078125 77.554688 "/>
<path style=" stroke:none;fill-rule:nonzero;fill:rgb(100%,100%,100%);fill-opacity:1;" d="M 17.453125 95.855469 C 14.070312 95.394531 10.792969 93.472656 8.726562 90.726562 C 7.179688 88.675781 6.324219 86.34375 6.113281 83.625 C 6.03125 82.582031 6.003906 69.574219 6.03125 46.789062 L 6.066406 11.558594 L 6.328125 10.441406 C 7.539062 5.226562 11.523438 1.324219 16.710938 0.269531 C 17.773438 0.0546875 19.273438 0.0429688 48.039062 0.0429688 C 76.796875 0.0429688 78.300781 0.0546875 79.296875 0.269531 C 84.425781 1.375 88.183594 4.890625 89.5625 9.875 L 89.886719 11.0625 L 89.925781 47.40625 C 89.953125 73.980469 89.921875 84.015625 89.820312 84.734375 C 89.035156 90.277344 84.636719 94.785156 79.070312 95.761719 C 78.175781 95.921875 73.898438 95.941406 47.925781 95.925781 C 31.371094 95.914062 17.65625 95.886719 17.453125 95.855469 Z M 77.492188 83.917969 C 77.664062 83.84375 77.859375 83.628906 77.933594 83.453125 C 78.03125 83.222656 78.058594 72.851562 78.035156 47.796875 L 78.003906 12.464844 L 77.710938 12.226562 C 77.421875 11.996094 76.78125 11.992188 48.039062 11.992188 L 18.664062 11.992188 L 18.007812 12.507812 L 18.007812 47.917969 C 18.007812 72.738281 18.050781 83.40625 18.140625 83.578125 C 18.214844 83.710938 18.394531 83.875 18.546875 83.933594 C 18.96875 84.105469 77.113281 84.089844 77.492188 83.917969 Z M 77.492188 83.917969 "/>
</g>
</svg>
