<?xml version="1.0" encoding="UTF-8"?>
<svg xmlns="http://www.w3.org/2000/svg" xmlns:xlink="http://www.w3.org/1999/xlink" width="96" height="96" viewBox="0 0 96 96" version="1.1">
<g id="surface1">
<path style=" stroke:none;fill-rule:nonzero;fill:rgb(74.509804%,74.509804%,74.509804%);fill-opacity:1;" d="M 26.816406 6 C 21.886719 6 18 9.886719 18 14.8125 L 18 81.183594 C 18 86.109375 21.886719 89.996094 26.816406 89.996094 L 69.191406 89.996094 C 74.113281 89.996094 78.003906 86.113281 78.003906 81.183594 L 78.003906 14.8125 C 78.003906 9.886719 74.113281 6 69.191406 6 Z M 24.003906 12 L 72.003906 12 L 72.003906 42 L 24.003906 42 Z M 48.003906 48 C 57.941406 48 66.003906 56.058594 66.003906 66 C 66.003906 75.941406 57.941406 84 48.003906 84 C 38.058594 84 30.003906 75.941406 30.003906 66 C 30.003906 56.058594 38.058594 48 48.003906 48 Z M 48.003906 48 "/>
<path style=" stroke:none;fill-rule:nonzero;fill:rgb(74.509804%,74.509804%,74.509804%);fill-opacity:1;" d="M 57 66 C 57 70.972656 52.972656 75 48 75 C 43.027344 75 39 70.972656 39 66 C 39 61.027344 43.027344 57 48 57 C 52.972656 57 57 61.027344 57 66 Z M 57 66 "/>
<path style=" stroke:none;fill-rule:nonzero;fill:rgb(100%,100%,100%);fill-opacity:1;" d="M 47.097656 74.875 C 43.773438 74.582031 40.769531 72.253906 39.617188 69.085938 C 37.863281 64.292969 40.351562 59.171875 45.25 57.476562 C 46.136719 57.171875 46.417969 57.132812 47.914062 57.132812 C 49.8125 57.125 50.742188 57.34375 52.308594 58.15625 C 53.453125 58.75 55.128906 60.402344 55.773438 61.5625 C 58.515625 66.511719 56.1875 72.644531 50.871094 74.46875 C 49.8125 74.832031 48.351562 74.992188 47.097656 74.875 Z M 47.097656 74.875 "/>
<path style=" stroke:none;fill-rule:nonzero;fill:rgb(100%,100%,100%);fill-opacity:1;" d="M 25.578125 89.863281 C 23.640625 89.609375 22.101562 88.828125 20.59375 87.328125 C 19.773438 86.511719 19.484375 86.113281 19.015625 85.164062 C 17.992188 83.097656 18.078125 86.347656 18.074219 47.953125 C 18.074219 14.089844 18.078125 13.628906 18.320312 12.664062 C 19.097656 9.570312 21.4375 7.179688 24.523438 6.328125 C 25.269531 6.125 26.710938 6.113281 48.097656 6.113281 L 70.882812 6.113281 L 71.832031 6.433594 C 75.210938 7.589844 77.421875 10.261719 77.875 13.742188 C 77.972656 14.476562 78 24.726562 77.976562 48.707031 L 77.9375 82.632812 L 77.65625 83.5625 C 76.703125 86.628906 74.625 88.703125 71.542969 89.65625 L 70.632812 89.9375 L 48.53125 89.953125 C 36.125 89.964844 26.054688 89.921875 25.578125 89.863281 Z M 51.257812 83.742188 C 55.695312 82.890625 59.796875 80.335938 62.46875 76.757812 C 63.9375 74.789062 65.148438 72.097656 65.699219 69.570312 C 66.023438 68.078125 66.027344 64.019531 65.703125 62.511719 C 64.925781 58.851562 63.3125 55.863281 60.734375 53.28125 C 58.042969 50.589844 54.636719 48.824219 50.964844 48.210938 C 49.414062 47.953125 46.496094 47.945312 45.0625 48.203125 C 37.507812 49.535156 31.761719 55.164062 30.246094 62.714844 C 29.914062 64.375 29.945312 67.84375 30.308594 69.53125 C 31.082031 73.125 32.742188 76.199219 35.28125 78.730469 C 38.304688 81.746094 41.910156 83.445312 46.425781 83.980469 C 47.289062 84.085938 50.230469 83.941406 51.257812 83.742188 Z M 72.058594 27.039062 L 72.058594 11.992188 L 24.015625 11.992188 L 24.015625 42.082031 L 72.058594 42.082031 Z M 72.058594 27.039062 "/>
</g>
</svg>
