<?xml version="1.0" encoding="UTF-8"?>
<svg xmlns="http://www.w3.org/2000/svg" xmlns:xlink="http://www.w3.org/1999/xlink" width="96" height="96" viewBox="0 0 96 96" version="1.1">
<g id="surface1">
<path style=" stroke:none;fill-rule:nonzero;fill:rgb(74.509804%,74.509804%,74.509804%);fill-opacity:1;" d="M 32.820312 6 C 27.894531 6 24.007812 9.886719 24.007812 14.8125 L 24.007812 81.183594 C 24.007812 86.109375 27.894531 89.996094 32.820312 89.996094 L 63.570312 89.996094 C 68.496094 89.996094 72.382812 86.113281 72.382812 81.183594 L 72.382812 14.8125 C 72.382812 9.886719 68.496094 6 63.570312 6 Z M 30.007812 12 L 66.382812 12 L 66.382812 78 L 30.007812 78 Z M 30.007812 12 "/>
<path style=" stroke:none;fill-rule:nonzero;fill:rgb(100%,100%,100%);fill-opacity:1;" d="M 31.585938 89.863281 C 29.644531 89.609375 28.109375 88.824219 26.601562 87.328125 C 25.78125 86.511719 25.488281 86.113281 25.019531 85.164062 C 23.992188 83.078125 24.070312 86.386719 24.109375 47.625 L 24.140625 13.046875 L 24.46875 12.082031 C 25.546875 8.917969 28.179688 6.671875 31.382812 6.175781 C 32.058594 6.074219 36.773438 6.042969 48.78125 6.074219 L 65.25 6.113281 L 66.113281 6.402344 C 67.65625 6.921875 68.640625 7.515625 69.707031 8.585938 C 71.21875 10.105469 71.980469 11.625 72.25 13.6875 C 72.335938 14.332031 72.367188 25.9375 72.34375 48.644531 C 72.308594 80.824219 72.296875 82.671875 72.085938 83.375 C 71.136719 86.574219 69.058594 88.683594 65.90625 89.65625 L 65 89.933594 L 48.71875 89.953125 C 39.667969 89.964844 32.054688 89.921875 31.585938 89.863281 Z M 66.425781 44.992188 L 66.425781 11.992188 L 30.019531 11.992188 L 30.019531 77.992188 L 66.425781 77.992188 Z M 66.425781 44.992188 "/>
</g>
</svg>
