<?xml version="1.0" encoding="UTF-8"?>
<svg xmlns="http://www.w3.org/2000/svg" xmlns:xlink="http://www.w3.org/1999/xlink" width="96" height="96" viewBox="0 0 96 96" version="1.1">
<g id="surface1">
<path style=" stroke:none;fill-rule:nonzero;fill:rgb(74.509804%,74.509804%,74.509804%);fill-opacity:1;" d="M 36 6 C 29.945312 6.03125 30 12 30 12 L 30 78 C 30 84 36 84 36 84 L 60 84 C 66 84 66 78 66 78 L 66 30 C 66.003906 26.675781 63.324219 24 60 24 L 42 24 L 42 12 C 42 12 41.945312 6.03125 36 6 Z M 36 30 L 60 30 L 60 48.1875 L 36 48 Z M 36 54 L 42 54 L 42 60 L 48 60 L 48 54 L 54 54 L 54 60 L 60 60 L 60 66 L 54 66 L 54 72 L 60 72 L 60 78 L 54 78 L 54 72 L 48 72 L 48 78 L 42 78 L 42 72 L 36 72 L 36 66 L 42 66 L 42 60 L 36 60 Z M 42 66 L 42 72 L 48 72 L 48 66 Z M 48 66 L 54 66 L 54 60 L 48 60 Z M 48 66 "/>
<path style=" stroke:none;fill-rule:nonzero;fill:rgb(100%,100%,100%);fill-opacity:1;" d="M 34.480469 83.734375 C 32.054688 83.097656 30.511719 81.488281 30.152344 79.226562 C 30.0625 78.6875 30.023438 67.46875 30.023438 44.992188 C 30.027344 8.351562 29.976562 10.730469 30.761719 9.085938 C 31.671875 7.183594 33.585938 6.054688 35.914062 6.050781 C 38.324219 6.042969 40.195312 7.109375 41.167969 9.03125 C 41.894531 10.460938 41.910156 10.628906 41.910156 17.613281 L 41.910156 24.003906 L 51.039062 24.003906 C 56.828125 24.007812 60.464844 24.054688 60.976562 24.132812 C 63.210938 24.5 65.164062 26.285156 65.757812 28.507812 C 65.898438 29.03125 65.925781 33.359375 65.925781 53.90625 C 65.925781 75.417969 65.898438 78.773438 65.742188 79.453125 C 65.207031 81.722656 63.765625 83.257812 61.707031 83.742188 C 60.542969 84.015625 35.519531 84.011719 34.480469 83.734375 Z M 48.097656 75.015625 L 48.097656 72.046875 L 53.917969 72.046875 L 53.917969 77.992188 L 59.984375 77.992188 L 59.984375 71.921875 L 54.042969 71.921875 L 54.042969 66.101562 L 59.984375 66.101562 L 59.984375 59.910156 L 54.042969 59.910156 L 54.042969 53.96875 L 47.976562 53.96875 L 47.976562 59.910156 L 42.03125 59.910156 L 42.03125 53.96875 L 35.964844 53.96875 L 35.964844 60.035156 L 41.910156 60.035156 L 41.910156 65.980469 L 35.964844 65.980469 L 35.964844 72.046875 L 41.910156 72.046875 L 41.910156 77.992188 L 48.097656 77.992188 Z M 59.984375 39.109375 L 59.984375 29.945312 L 35.964844 29.945312 L 35.964844 48.023438 L 38.164062 48.042969 C 44.605469 48.097656 57.847656 48.226562 58.839844 48.25 L 59.984375 48.273438 Z M 59.984375 39.109375 "/>
<path style=" stroke:none;fill-rule:nonzero;fill:rgb(100%,100%,100%);fill-opacity:1;" d="M 48.097656 63.007812 L 48.097656 60.035156 L 53.917969 60.035156 L 53.917969 65.980469 L 48.097656 65.980469 Z M 48.097656 63.007812 "/>
<path style=" stroke:none;fill-rule:nonzero;fill:rgb(100%,100%,100%);fill-opacity:1;" d="M 42.03125 69.011719 L 42.03125 66.101562 L 47.976562 66.101562 L 47.976562 71.921875 L 42.03125 71.921875 Z M 42.03125 69.011719 "/>
</g>
</svg>
