<?xml version="1.0" encoding="UTF-8"?>
<svg xmlns="http://www.w3.org/2000/svg" xmlns:xlink="http://www.w3.org/1999/xlink" width="96" height="96" viewBox="0 0 96 96" version="1.1">
<g id="surface1">
<path style=" stroke:none;fill-rule:nonzero;fill:rgb(74.509804%,74.509804%,74.509804%);fill-opacity:1;" d="M 36 72 L 36 84 L 2.8125 84 C 1.234375 84 0 85.234375 0 86.8125 L 0 93.1875 C 0 94.765625 1.234375 96 2.8125 96 L 81.183594 96 C 82.761719 96 83.996094 94.765625 83.996094 93.1875 L 83.996094 86.8125 C 83.996094 85.234375 82.761719 84 81.183594 84 L 47.996094 84 L 47.996094 72 Z M 36 72 "/>
<path style=" stroke:none;fill-rule:nonzero;fill:rgb(74.509804%,74.509804%,74.509804%);fill-opacity:1;" d="M 24.296875 12.71875 L 24.296875 47.941406 L 60.015625 47.941406 L 60.015625 24.34375 L 48.015625 12.71875 Z M 12.015625 48.035156 L 12.015625 71.78125 L 71.828125 71.78125 L 71.828125 48.035156 L 66.109375 48.035156 L 66.097656 53.914062 L 17.925781 54.125 L 17.925781 48.03125 Z M 12.015625 48.035156 "/>
<path style=" stroke:none;fill-rule:nonzero;fill:rgb(100%,100%,100%);fill-opacity:1;" d="M 24.324219 30.320312 L 24.324219 12.734375 L 47.992188 12.734375 L 59.960938 24.3125 L 59.984375 47.898438 L 24.324219 47.898438 Z M 24.324219 30.320312 "/>
<path style=" stroke:none;fill-rule:nonzero;fill:rgb(100%,100%,100%);fill-opacity:1;" d="M 12.066406 59.910156 L 12.066406 48.023438 L 17.886719 48.023438 L 17.886719 54.171875 L 26.089844 54.132812 C 30.601562 54.109375 41.46875 54.054688 50.234375 54.015625 L 66.179688 53.9375 L 66.179688 48.023438 L 71.75 48.023438 L 71.75 71.796875 L 12.066406 71.796875 Z M 12.066406 59.910156 "/>
<path style=" stroke:none;fill-rule:nonzero;fill:rgb(100%,100%,100%);fill-opacity:1;" d="M 1.527344 95.597656 C 1.042969 95.347656 0.761719 95.089844 0.492188 94.648438 L 0.117188 94.046875 L 0.117188 85.957031 L 0.488281 85.347656 C 0.765625 84.890625 1.027344 84.652344 1.53125 84.398438 L 2.207031 84.058594 L 36.085938 84.058594 L 36.085938 72.046875 L 47.976562 72.046875 L 47.976562 84.058594 L 64.785156 84.058594 C 76.128906 84.058594 81.742188 84.097656 82.0625 84.1875 C 82.652344 84.351562 83.324219 84.9375 83.675781 85.59375 C 83.9375 86.082031 83.945312 86.222656 83.945312 90 C 83.945312 93.78125 83.9375 93.917969 83.675781 94.410156 C 83.324219 95.0625 82.652344 95.648438 82.0625 95.8125 C 81.738281 95.902344 69.214844 95.945312 41.890625 95.945312 L 2.1875 95.945312 Z M 1.527344 95.597656 "/>
</g>
</svg>
