<?xml version="1.0" encoding="UTF-8"?>
<svg xmlns="http://www.w3.org/2000/svg" xmlns:xlink="http://www.w3.org/1999/xlink" width="128" height="128" viewBox="0 0 128 128" version="1.1">
<g id="surface1">
<path style=" stroke:none;fill-rule:nonzero;fill:rgb(100%,100%,100%);fill-opacity:1;" d="M 91.601562 19.679688 L 44.042969 66.972656 C 33.636719 77.324219 28.835938 89.433594 33.285156 94.128906 C 37.734375 98.820312 49.695312 94.269531 60.101562 83.921875 L 107.660156 36.628906 C 118.066406 26.277344 122.863281 14.167969 118.414062 9.472656 C 113.96875 4.777344 102.007812 9.332031 91.601562 19.679688 Z M 91.601562 19.679688 "/>
<path style=" stroke:none;fill-rule:nonzero;fill:rgb(100%,100%,100%);fill-opacity:1;" d="M 24.398438 19.441406 L 14.570312 29.59375 L 61.953125 65.597656 L 98.265625 113.289062 L 108.421875 103.460938 L 87.300781 40.558594 Z M 24.398438 19.441406 "/>
<path style=" stroke:none;fill-rule:nonzero;fill:rgb(100%,100%,100%);fill-opacity:1;" d="M 50.398438 77.199219 L 13.636719 74.457031 L 8.050781 80.117188 L 30.832031 96.988281 L 47.484375 119.730469 L 53.101562 114.101562 Z M 50.398438 77.199219 "/>
</g>
</svg>
