<?xml version="1.0" encoding="UTF-8"?>
<svg xmlns="http://www.w3.org/2000/svg" xmlns:xlink="http://www.w3.org/1999/xlink" width="128" height="128" viewBox="0 0 128 128" version="1.1">
<g id="surface1">
<path style=" stroke:none;fill-rule:nonzero;fill:rgb(100%,100%,100%);fill-opacity:1;" d="M 59.28125 48 C 57.355469 48.351562 55.96875 50.042969 56 52 L 56 72 L 44 72 C 42.558594 71.980469 41.214844 72.738281 40.488281 73.984375 C 39.761719 75.230469 39.761719 76.769531 40.488281 78.015625 C 41.214844 79.261719 42.558594 80.019531 44 80 L 60 80 C 62.210938 80 64 78.210938 64 76 L 64 52 C 64.019531 50.796875 63.5 49.644531 62.578125 48.871094 C 61.65625 48.09375 60.433594 47.773438 59.25 48 Z M 59.28125 48 "/>
<path style=" stroke:none;fill-rule:nonzero;fill:rgb(100%,100%,100%);fill-opacity:1;" d="M 59.761719 24.480469 C 31.277344 24.480469 8.214844 47.792969 8.214844 76.273438 C 8.214844 104.753906 31.277344 128.070312 59.761719 128.070312 C 88.242188 128.070312 111.554688 104.753906 111.554688 76.273438 C 111.554688 47.792969 88.242188 24.480469 59.761719 24.480469 Z M 59.761719 40.339844 C 79.667969 40.339844 95.695312 56.367188 95.695312 76.273438 C 95.695312 96.183594 79.667969 112.207031 59.761719 112.207031 C 39.851562 112.207031 24.074219 96.183594 24.074219 76.273438 C 24.074219 56.367188 39.851562 40.339844 59.761719 40.339844 Z M 59.761719 40.339844 "/>
<path style=" stroke:none;fill-rule:nonzero;fill:rgb(100%,100%,100%);fill-opacity:1;" d="M 34.238281 8 C 19.789062 8 7.992188 19.800781 7.992188 34.25 C 7.992188 37.488281 8.664062 40.386719 9.742188 43.25 C 19.386719 28.671875 35.210938 18.429688 53.492188 16.5 C 48.691406 11.300781 41.8125 8.019531 34.210938 8.019531 Z M 85.738281 8 C 78.117188 8 71.273438 11.300781 66.492188 16.5 C 84.789062 18.507812 100.65625 28.828125 110.242188 43.5 C 111.371094 40.574219 111.992188 37.574219 111.992188 34.25 C 111.992188 19.800781 100.191406 8 85.742188 8 Z M 85.738281 8 "/>
<path style=" stroke:none;fill-rule:nonzero;fill:rgb(100%,100%,100%);fill-opacity:1;" d="M 31.28125 103.28125 C 29.84375 103.667969 28.546875 104.445312 27.53125 105.53125 L 18.53125 114.28125 C 16.109375 116.152344 14.96875 119.238281 15.589844 122.234375 C 16.214844 125.230469 18.488281 127.609375 21.453125 128.363281 C 24.417969 129.117188 27.550781 128.113281 29.53125 125.78125 L 38.53125 117.03125 C 41.289062 114.585938 42.023438 110.570312 40.304688 107.308594 C 38.582031 104.046875 34.855469 102.382812 31.28125 103.28125 Z M 31.28125 103.28125 "/>
<path style=" stroke:none;fill-rule:nonzero;fill:rgb(100%,100%,100%);fill-opacity:1;" d="M 87.519531 104 C 84.617188 104.445312 82.1875 106.441406 81.195312 109.210938 C 80.203125 111.976562 80.808594 115.0625 82.769531 117.25 L 90.019531 125.25 C 91.808594 127.679688 94.816406 128.894531 97.792969 128.394531 C 100.769531 127.890625 103.210938 125.753906 104.105469 122.871094 C 104.996094 119.988281 104.191406 116.847656 102.019531 114.75 L 94.769531 106.75 C 92.992188 104.617188 90.238281 103.558594 87.488281 103.949219 Z M 87.519531 104 "/>
</g>
</svg>
