<?xml version="1.0" encoding="UTF-8"?>
<svg xmlns="http://www.w3.org/2000/svg" xmlns:xlink="http://www.w3.org/1999/xlink" width="128" height="128" viewBox="0 0 128 128" version="1.1">
<g id="surface1">
<path style=" stroke:none;fill-rule:nonzero;fill:rgb(74.509804%,74.509804%,74.509804%);fill-opacity:1;" d="M 52 0 C 23.375 0 0 23.375 0 52 C 0 80.625 23.375 104 52 104 C 53.363281 104 54.660156 103.855469 56 103.75 L 56 87.5 C 54.660156 87.648438 53.378906 88 52 88 C 32.023438 88 16 71.976562 16 52 C 16 32.023438 32.023438 16 52 16 C 71.976562 16 88 32.023438 88 52 C 88 53.382812 87.648438 54.664062 87.5 56 L 103.75 56 C 103.855469 54.664062 104 53.363281 104 52 C 104 23.375 80.625 0 52 0 Z M 52 0 "/>
<path style=" stroke:none;fill-rule:nonzero;fill:rgb(74.509804%,74.509804%,74.509804%);fill-opacity:1;" d="M 51.28125 24 C 49.355469 24.351562 47.96875 26.042969 48 28 L 48 48 L 36 48 C 34.558594 47.980469 33.214844 48.738281 32.488281 49.984375 C 31.761719 51.230469 31.761719 52.769531 32.488281 54.015625 C 33.214844 55.261719 34.558594 56.019531 36 56 L 52 56 C 54.210938 56 56 54.210938 56 52 L 56 28 C 56.019531 26.796875 55.5 25.644531 54.578125 24.871094 C 53.65625 24.09375 52.433594 23.773438 51.25 24 Z M 51.28125 24 "/>
<path style=" stroke:none;fill-rule:nonzero;fill:rgb(96.078431%,47.45098%,0%);fill-opacity:1;" d="M 71.039062 64.558594 C 67.101562 64.558594 64.039062 67.59375 64.039062 71.5 L 64.039062 121.066406 C 64.039062 124.96875 67.101562 128.003906 71.039062 128.003906 L 121.039062 128.003906 C 124.980469 128.003906 128.039062 124.96875 128.039062 121.066406 L 128.039062 71.5 C 128.039062 67.59375 124.980469 64.558594 121.039062 64.558594 Z M 88.039062 72.492188 L 104.039062 72.492188 L 104.039062 104.210938 L 88.039062 104.210938 Z M 88.039062 112.144531 L 104.039062 112.144531 L 104.039062 120.074219 L 88.039062 120.074219 Z M 88.039062 112.144531 "/>
<path style=" stroke:none;fill-rule:nonzero;fill:rgb(100%,100%,100%);fill-opacity:1;" d="M 43.28125 103.082031 C 38.328125 102.261719 29.976562 99.121094 25.277344 96.3125 C 20.074219 93.207031 12.492188 86.011719 9.125 80.988281 C 6.15625 76.554688 3.515625 70.828125 1.945312 65.40625 C 0.871094 61.695312 0.703125 59.898438 0.703125 51.90625 C 0.703125 43.835938 0.863281 42.144531 1.976562 38.34375 C 6.960938 21.300781 20.023438 7.820312 36.574219 2.632812 C 64.347656 -6.070312 94.007812 10.050781 101.839844 38.109375 C 103.175781 42.898438 104.125 51.085938 103.671875 53.9375 L 103.34375 55.972656 L 88.027344 55.972656 L 88 50.957031 C 87.945312 41.4375 84.503906 33.609375 77.171875 26.328125 C 72.097656 21.285156 66.5 18.199219 59.71875 16.699219 C 41 12.5625 21.941406 24.265625 16.941406 42.957031 C 15.703125 47.582031 15.679688 56.144531 16.886719 60.855469 C 20.945312 76.632812 35.308594 87.972656 51.246094 87.972656 L 55.757812 87.972656 L 55.757812 103.703125 L 51.007812 103.640625 C 48.398438 103.601562 44.921875 103.351562 43.28125 103.082031 Z M 43.28125 103.082031 "/>
<path style=" stroke:none;fill-rule:nonzero;fill:rgb(100%,100%,100%);fill-opacity:1;" d="M 34.183594 55.304688 C 32.144531 54.320312 31.722656 51.183594 33.382812 49.328125 C 34.105469 48.519531 35.246094 48.378906 41.195312 48.378906 L 48.164062 48.378906 L 48.164062 37.507812 C 48.164062 26.6875 48.167969 26.628906 49.492188 25.304688 C 51.121094 23.679688 52.449219 23.621094 54.328125 25.097656 L 55.757812 26.21875 L 55.757812 53.3125 L 54.425781 54.640625 C 53.117188 55.949219 52.9375 55.972656 44.253906 55.9375 C 39.042969 55.914062 34.910156 55.65625 34.183594 55.304688 Z M 34.183594 55.304688 "/>
</g>
</svg>
