<?xml version="1.0" encoding="UTF-8"?>
<svg xmlns="http://www.w3.org/2000/svg" xmlns:xlink="http://www.w3.org/1999/xlink" width="128" height="128" viewBox="0 0 128 128" version="1.1">
<g id="surface1">
<path style=" stroke:none;fill-rule:nonzero;fill:rgb(93.72549%,16.078431%,16.078431%);fill-opacity:1;" d="M 40 88 L 40 104 L 64 104 L 64 88 Z M 40 88 "/>
<path style=" stroke:none;fill-rule:nonzero;fill:rgb(74.509804%,74.509804%,74.509804%);fill-opacity:1;" d="M 43.761719 0 C 39.835938 0 37.390625 1.828125 35.511719 3.75 C 33.589844 5.671875 31.992188 8.230469 31.992188 11.988281 L 31.992188 15.988281 L 15.992188 15.988281 L 15.992188 127.988281 L 79.992188 127.988281 L 79.992188 111.988281 L 31.992188 111.988281 L 31.992188 31.988281 L 47.992188 31.988281 L 47.992188 15.988281 L 79.992188 15.988281 L 79.992188 31.988281 L 95.992188 31.988281 L 95.992188 55.988281 L 111.992188 55.988281 L 111.992188 15.988281 L 95.992188 15.988281 L 95.992188 12.492188 C 95.800781 9.046875 94.628906 6.722656 92.742188 4.492188 C 90.949219 2.375 87.726562 0.257812 83.492188 0.242188 L 83.492188 -0.0078125 L 43.742188 -0.0078125 Z M 43.761719 0 "/>
<path style=" stroke:none;fill-rule:nonzero;fill:rgb(74.509804%,74.509804%,74.509804%);fill-opacity:1;" d="M 103.039062 64 C 101.25 64.195312 99.574219 64.988281 98.289062 66.25 L 74.289062 90.25 C 71.925781 92.53125 71.195312 96.027344 72.445312 99.0625 C 73.699219 102.101562 76.683594 104.0625 79.96875 104.011719 L 100.46875 104.011719 L 90.21875 114.257812 C 88.136719 116.308594 87.3125 119.316406 88.0625 122.140625 C 88.8125 124.964844 91.015625 127.167969 93.839844 127.917969 C 96.664062 128.664062 99.671875 127.84375 101.71875 125.757812 L 125.71875 101.757812 C 128.097656 99.46875 128.824219 95.953125 127.550781 92.910156 C 126.273438 89.863281 123.261719 87.914062 119.960938 88 L 99.460938 88 L 109.710938 77.75 C 112.292969 75.351562 113 71.542969 111.453125 68.378906 C 109.90625 65.210938 106.46875 63.429688 102.988281 63.988281 Z M 103.039062 64 "/>
<path style=" stroke:none;fill-rule:nonzero;fill:rgb(74.509804%,74.509804%,74.509804%);fill-opacity:1;" d="M 120 88 L 128 88 L 128 96 L 120 96 Z M 120 88 "/>
<path style=" stroke:none;fill-rule:nonzero;fill:rgb(74.509804%,74.509804%,74.509804%);fill-opacity:1;" d="M 72 96 L 80 96 L 80 104 L 72 104 Z M 72 96 "/>
<path style=" stroke:none;fill-rule:nonzero;fill:rgb(74.509804%,74.509804%,74.509804%);fill-opacity:1;" d="M 104 64 L 112 64 L 112 72 L 104 72 Z M 104 64 "/>
<path style=" stroke:none;fill-rule:nonzero;fill:rgb(74.509804%,74.509804%,74.509804%);fill-opacity:1;" d="M 88 120 L 96 120 L 96 128 L 88 128 Z M 88 120 "/>
<path style=" stroke:none;fill-rule:nonzero;fill:rgb(74.509804%,74.509804%,74.509804%);fill-opacity:1;" d="M 97.28125 67.519531 L 81.28125 91.519531 L 94.78125 100.519531 L 110.78125 76.519531 Z M 97.28125 67.519531 "/>
<path style=" stroke:none;fill-rule:nonzero;fill:rgb(74.509804%,74.509804%,74.509804%);fill-opacity:1;" d="M 105.28125 91.519531 L 89.28125 115.519531 L 102.78125 124.519531 L 118.78125 100.519531 Z M 105.28125 91.519531 "/>
<path style=" stroke:none;fill-rule:nonzero;fill:rgb(0%,0%,0%);fill-opacity:1;" d="M 16.089844 71.957031 L 16.089844 15.988281 L 32.070312 15.988281 L 32.144531 12.730469 C 32.207031 9.921875 32.269531 9.328125 32.578125 8.476562 C 33.929688 4.722656 37.386719 1.429688 41.101562 0.355469 C 42.011719 0.0898438 43.726562 0.0625 62.769531 0.015625 C 77.007812 -0.0234375 83.449219 0.015625 83.449219 0.132812 C 83.449219 0.226562 83.710938 0.304688 84.035156 0.304688 C 84.902344 0.304688 87.035156 0.777344 88.082031 1.207031 C 90.800781 2.308594 93.246094 4.660156 94.679688 7.550781 C 95.492188 9.191406 95.835938 10.820312 95.949219 13.554688 L 96.046875 15.988281 L 112.011719 15.988281 L 112.011719 55.941406 L 95.996094 55.941406 L 95.996094 32.003906 L 79.980469 32.003906 L 79.980469 15.988281 L 47.953125 15.988281 L 47.953125 32.003906 L 31.9375 32.003906 L 31.9375 112.078125 L 79.980469 112.078125 L 79.980469 127.925781 L 16.089844 127.925781 Z M 16.089844 71.957031 "/>
<path style=" stroke:none;fill-rule:nonzero;fill:rgb(100%,100%,0%);fill-opacity:1;" d="M 91.277344 127.976562 L 88.125 127.917969 L 88.019531 123.308594 C 87.898438 118.054688 87.992188 117.4375 89.183594 115.675781 C 89.523438 115.167969 91.421875 112.351562 93.394531 109.414062 L 96.988281 104.070312 L 72.105469 103.984375 L 72.015625 99.5 C 71.945312 95.914062 71.972656 94.828125 72.160156 94.09375 C 72.738281 91.851562 72.355469 92.277344 86.246094 78.375 C 98.328125 66.28125 99.289062 65.359375 100.289062 64.898438 C 102.097656 64.066406 102.636719 64.003906 107.460938 64.023438 C 109.910156 64.035156 111.925781 64.058594 111.945312 64.078125 C 111.960938 64.097656 112.003906 66.269531 112.03125 68.902344 C 112.085938 73.621094 112.082031 73.707031 111.695312 74.671875 C 111.480469 75.207031 109.457031 78.421875 107.199219 81.8125 C 104.941406 85.203125 103.09375 88.015625 103.09375 88.070312 C 103.09375 88.121094 107.238281 88.152344 112.300781 88.136719 C 117.363281 88.121094 122.921875 88.117188 124.65625 88.125 L 127.808594 88.136719 L 127.921875 92.726562 C 128.027344 97.027344 128.015625 97.382812 127.707031 98.382812 C 127.523438 98.96875 127.144531 99.816406 126.859375 100.273438 C 126.230469 101.28125 101.542969 126 100.398438 126.765625 C 98.554688 128 97.84375 128.09375 91.277344 127.976562 Z M 91.277344 127.976562 "/>
<path style=" stroke:none;fill-rule:nonzero;fill:rgb(100%,100%,100%);fill-opacity:1;" d="M 16.164062 71.972656 L 16.164062 16.378906 L 32.433594 16.378906 L 32.433594 12.832031 C 32.433594 7.714844 34.34375 4.480469 39.1875 1.398438 C 40.671875 0.457031 42.335938 0.367188 61.140625 0.195312 C 75.027344 0.0742188 82.53125 0.214844 84.757812 0.644531 C 91.171875 1.875 94.542969 5.527344 95.519531 12.296875 L 96.109375 16.378906 L 111.621094 16.378906 L 111.621094 55.429688 L 96.453125 55.429688 L 96.164062 31.835938 L 80.164062 31.539062 L 80.164062 15.835938 L 47.621094 15.835938 L 47.621094 31.566406 L 31.890625 31.566406 L 31.890625 112.378906 L 79.621094 112.378906 L 79.621094 127.566406 L 16.164062 127.566406 Z M 16.164062 71.972656 "/>
</g>
</svg>
