<?xml version="1.0" encoding="UTF-8"?>
<svg xmlns="http://www.w3.org/2000/svg" xmlns:xlink="http://www.w3.org/1999/xlink" width="128" height="128" viewBox="0 0 128 128" version="1.1">
<g id="surface1">
<path style=" stroke:none;fill-rule:nonzero;fill:rgb(100%,100%,100%);fill-opacity:1;" d="M 43.761719 0 C 39.824219 0 37.390625 1.820312 35.511719 3.75 C 33.589844 5.671875 31.992188 8.230469 31.992188 11.988281 L 31.992188 15.988281 L 15.992188 15.988281 L 15.992188 127.988281 L 111.992188 127.988281 L 111.992188 15.988281 L 95.992188 15.988281 L 95.992188 12.492188 C 95.800781 9.046875 94.628906 6.726562 92.742188 4.492188 C 90.953125 2.371094 87.742188 0.253906 83.492188 0.242188 L 83.492188 -0.0078125 L 43.742188 -0.0078125 Z M 48.011719 16 L 80.011719 16 L 80.011719 32 L 96.011719 32 L 96.011719 112 L 32.011719 112 L 32.011719 32 L 48.011719 32 Z M 48.011719 16 "/>
</g>
</svg>
