<?xml version="1.0" encoding="UTF-8"?>
<svg xmlns="http://www.w3.org/2000/svg" xmlns:xlink="http://www.w3.org/1999/xlink" width="128" height="128" viewBox="0 0 128 128" version="1.1">
<g id="surface1">
<path style=" stroke:none;fill-rule:nonzero;fill:rgb(74.509804%,74.509804%,74.509804%);fill-opacity:1;" d="M 40 64 L 40 80 L 88 80 L 88 64 Z M 40 64 "/>
<path style=" stroke:none;fill-rule:nonzero;fill:rgb(74.509804%,74.509804%,74.509804%);fill-opacity:1;" d="M 43.753906 0 C 39.828125 0 37.382812 1.828125 35.503906 3.75 C 33.613281 5.671875 32 8.230469 32 11.988281 L 32 15.988281 L 16 15.988281 L 16 127.988281 L 112 127.988281 L 112 15.988281 L 96 15.988281 L 96 12.742188 C 95.808594 9.296875 94.636719 6.722656 92.75 4.492188 C 90.957031 2.375 87.734375 0.257812 83.5 0.242188 L 83.5 -0.0078125 L 43.75 -0.0078125 Z M 48 16 L 80 16 L 80 32 L 96 32 L 96 112 L 32 112 L 32 32 L 48 32 Z M 48 16 "/>
<path style=" stroke:none;fill-rule:nonzero;fill:rgb(74.509804%,74.509804%,74.509804%);fill-opacity:1;" d="M 40 88 L 40 104 L 88 104 L 88 88 Z M 40 88 "/>
<path style=" stroke:none;fill-rule:nonzero;fill:rgb(0%,0%,0%);fill-opacity:1;" d="M 16.089844 71.957031 L 16.089844 15.988281 L 32.101562 15.988281 L 32.101562 13.210938 C 32.101562 10.984375 32.167969 10.175781 32.429688 9.15625 C 33.441406 5.199219 37.0625 1.523438 41.101562 0.355469 C 42.011719 0.0898438 43.726562 0.0625 62.769531 0.015625 C 77.007812 -0.0234375 83.449219 0.015625 83.449219 0.132812 C 83.449219 0.226562 83.710938 0.304688 84.035156 0.304688 C 84.902344 0.304688 87.035156 0.777344 88.082031 1.207031 C 90.832031 2.320312 93.34375 4.757812 94.667969 7.585938 C 95.476562 9.308594 95.835938 11.019531 95.945312 13.636719 L 96.046875 15.988281 L 112.011719 15.988281 L 112.011719 127.925781 L 16.089844 127.925781 Z M 95.996094 72.039062 L 95.996094 32.003906 L 79.980469 32.003906 L 79.980469 15.988281 L 47.953125 15.988281 L 47.953125 32.003906 L 31.9375 32.003906 L 31.9375 112.078125 L 95.996094 112.078125 Z M 95.996094 72.039062 "/>
<path style=" stroke:none;fill-rule:nonzero;fill:rgb(100%,0%,0%);fill-opacity:1;" d="M 40.027344 71.957031 L 40.027344 64.03125 L 87.90625 64.03125 L 87.90625 79.882812 L 40.027344 79.882812 Z M 40.027344 71.957031 "/>
<path style=" stroke:none;fill-rule:nonzero;fill:rgb(100%,0%,0%);fill-opacity:1;" d="M 40.027344 96.0625 L 40.027344 88.136719 L 87.90625 88.136719 L 87.90625 103.988281 L 40.027344 103.988281 Z M 40.027344 96.0625 "/>
<path style=" stroke:none;fill-rule:nonzero;fill:rgb(100%,100%,100%);fill-opacity:1;" d="M 16.164062 71.972656 L 16.164062 16.378906 L 32.433594 16.378906 L 32.433594 13.109375 C 32.433594 7.914062 34.429688 4.375 38.941406 1.5625 C 40.789062 0.410156 41.382812 0.375 61.167969 0.195312 C 75.035156 0.0742188 82.53125 0.214844 84.757812 0.644531 C 91.171875 1.875 94.542969 5.527344 95.519531 12.296875 L 96.109375 16.378906 L 111.621094 16.378906 L 111.621094 127.566406 L 16.164062 127.566406 Z M 96.300781 72.109375 L 96.164062 31.835938 L 80.164062 31.539062 L 80.164062 15.835938 L 47.621094 15.835938 L 47.621094 31.566406 L 31.890625 31.566406 L 31.890625 112.378906 L 96.441406 112.378906 Z M 96.300781 72.109375 "/>
</g>
</svg>
