<?xml version="1.0" encoding="UTF-8"?>
<svg xmlns="http://www.w3.org/2000/svg" xmlns:xlink="http://www.w3.org/1999/xlink" width="128" height="128" viewBox="0 0 128 128" version="1.1">
<g id="surface1">
<path style=" stroke:none;fill-rule:nonzero;fill:rgb(80%,0%,0%);fill-opacity:1;" d="M 40 88 L 40 104 L 56 104 L 56 88 Z M 40 88 "/>
<path style=" stroke:none;fill-rule:nonzero;fill:rgb(74.509804%,74.509804%,74.509804%);fill-opacity:1;" d="M 43.761719 0 C 39.835938 0 37.390625 1.828125 35.511719 3.75 C 33.589844 5.671875 31.992188 8.230469 31.992188 11.988281 L 31.992188 15.988281 L 15.992188 15.988281 L 15.992188 127.988281 L 55.992188 127.988281 L 55.992188 111.988281 L 31.992188 111.988281 L 31.992188 31.988281 L 47.992188 31.988281 L 47.992188 15.988281 L 79.992188 15.988281 L 79.992188 31.988281 L 95.992188 31.988281 L 95.992188 55.988281 L 111.992188 55.988281 L 111.992188 15.988281 L 95.992188 15.988281 L 95.992188 12.492188 C 95.800781 9.046875 94.628906 6.722656 92.742188 4.492188 C 90.949219 2.375 87.726562 0.257812 83.492188 0.242188 L 83.492188 -0.0078125 L 43.742188 -0.0078125 Z M 43.761719 0 "/>
<path style=" stroke:none;fill-rule:nonzero;fill:rgb(96.078431%,47.45098%,0%);fill-opacity:1;" d="M 71.039062 64 C 67.101562 64 64.039062 67.058594 64.039062 71 L 64.039062 121 C 64.039062 124.941406 67.101562 128 71.039062 128 L 121.039062 128 C 124.980469 128 128.039062 124.941406 128.039062 121 L 128.039062 71 C 128.039062 67.058594 124.980469 64 121.039062 64 Z M 88.039062 72 L 104.039062 72 L 104.039062 104 L 88.039062 104 Z M 88.039062 112 L 104.039062 112 L 104.039062 120 L 88.039062 120 Z M 88.039062 112 "/>
<path style=" stroke:none;fill-rule:nonzero;fill:rgb(0%,0%,0%);fill-opacity:1;" d="M 16.214844 72.058594 L 16.214844 16.085938 L 32.121094 16.085938 L 32.121094 13.246094 C 32.121094 9.976562 32.625 7.917969 33.914062 5.886719 C 35.082031 4.046875 37.40625 1.992188 39.355469 1.070312 L 40.945312 0.320312 L 61.628906 0.234375 C 74.957031 0.179688 83.128906 0.257812 84.617188 0.453125 C 89.136719 1.050781 92.660156 3.554688 94.644531 7.585938 C 95.5 9.324219 95.613281 9.855469 95.75 12.730469 L 95.90625 15.941406 L 103.933594 16.015625 L 111.960938 16.09375 L 111.960938 56.003906 L 96.050781 56.003906 L 96.050781 31.992188 L 80.140625 31.992188 L 80.140625 15.796875 L 48.03125 15.796875 L 48.03125 31.992188 L 31.832031 31.992188 L 31.832031 112.121094 L 55.84375 112.121094 L 55.84375 128.03125 L 16.214844 128.03125 Z M 16.214844 72.058594 "/>
<path style=" stroke:none;fill-rule:nonzero;fill:rgb(100%,100%,100%);fill-opacity:1;" d="M 16.703125 71.972656 L 16.703125 16.378906 L 32.433594 16.378906 L 32.433594 13.109375 C 32.433594 8.046875 33.867188 5.277344 38.074219 2.199219 L 40.1875 0.648438 L 62.480469 0.65625 C 75.425781 0.65625 85.578125 0.882812 86.695312 1.191406 C 91.195312 2.441406 94.855469 6.742188 95.195312 11.195312 C 95.632812 16.851562 94.851562 16.378906 103.765625 16.378906 L 111.621094 16.378906 L 111.621094 55.972656 L 96.433594 55.972656 L 96.433594 31.566406 L 80.164062 31.566406 L 80.164062 15.277344 L 47.890625 15.566406 L 47.742188 23.550781 L 47.59375 31.539062 L 39.605469 31.6875 L 31.621094 31.835938 L 31.480469 72.109375 L 31.34375 112.378906 L 55.757812 112.378906 L 55.757812 127.566406 L 16.703125 127.566406 Z M 16.703125 71.972656 "/>
</g>
</svg>
