<?xml version="1.0" encoding="UTF-8"?>
<svg xmlns="http://www.w3.org/2000/svg" xmlns:xlink="http://www.w3.org/1999/xlink" width="128" height="128" viewBox="0 0 128 128" version="1.1">
<g id="surface1">
<path style=" stroke:none;fill-rule:nonzero;fill:rgb(74.509804%,74.509804%,74.509804%);fill-opacity:1;" d="M 55 0.078125 C 50.976562 0.585938 47.96875 4.023438 48 8.078125 L 48 36.578125 L 37.75 26.332031 C 35.703125 24.246094 32.695312 23.425781 29.871094 24.171875 C 27.046875 24.921875 24.839844 27.125 24.09375 29.949219 C 23.34375 32.773438 24.167969 35.78125 26.25 37.832031 L 47.996094 59.589844 L 47.996094 68.589844 L 26.242188 90.339844 C 24.160156 92.390625 23.339844 95.398438 24.085938 98.222656 C 24.835938 101.042969 27.039062 103.25 29.863281 104 C 32.6875 104.746094 35.695312 103.921875 37.742188 101.839844 L 48 91.601562 L 48 120.082031 C 47.921875 123.375 49.871094 126.378906 52.910156 127.652344 C 55.953125 128.921875 59.460938 128.199219 61.75 125.832031 L 93.75 93.832031 C 95.308594 92.324219 96.1875 90.25 96.1875 88.082031 C 96.1875 85.914062 95.308594 83.839844 93.75 82.332031 L 75.503906 64.089844 L 93.753906 45.839844 C 95.308594 44.332031 96.191406 42.257812 96.191406 40.089844 C 96.191406 37.921875 95.308594 35.847656 93.753906 34.339844 L 61.753906 2.339844 C 59.976562 0.578125 57.476562 -0.25 55 0.101562 Z M 64 27.601562 L 76.496094 40.078125 L 64 52.558594 L 64 27.558594 Z M 64 75.601562 L 76.496094 88.078125 L 64 100.558594 L 64 75.558594 Z M 64 75.601562 "/>
<path style=" stroke:none;fill-rule:nonzero;fill:rgb(74.509804%,74.509804%,74.509804%);fill-opacity:1;" d="M 24 24.078125 L 32 24.078125 L 32 32.078125 L 24 32.078125 Z M 24 24.078125 "/>
<path style=" stroke:none;fill-rule:nonzero;fill:rgb(74.509804%,74.509804%,74.509804%);fill-opacity:1;" d="M 24 96.078125 L 32 96.078125 L 32 104.078125 L 24 104.078125 Z M 24 96.078125 "/>
<path style=" stroke:none;fill-rule:nonzero;fill:rgb(74.509804%,74.509804%,74.509804%);fill-opacity:1;" d="M 48 120.078125 L 56 120.078125 L 56 128.078125 L 48 128.078125 Z M 48 120.078125 "/>
<path style=" stroke:none;fill-rule:nonzero;fill:rgb(74.509804%,74.509804%,74.509804%);fill-opacity:1;" d="M 48 0.078125 L 56 0.078125 L 56 8.078125 L 48 8.078125 Z M 48 0.078125 "/>
</g>
</svg>
