<?xml version="1.0" encoding="UTF-8"?>
<svg xmlns="http://www.w3.org/2000/svg" xmlns:xlink="http://www.w3.org/1999/xlink" width="128" height="128" viewBox="0 0 128 128" version="1.1">
<g id="surface1">
<path style=" stroke:none;fill-rule:nonzero;fill:rgb(100%,100%,100%);fill-opacity:1;" d="M 63.375 5.425781 C 61.300781 5.9375 59.75 7.667969 59.46875 9.78125 C 59.46875 9.863281 59.46875 9.9375 59.46875 10.019531 C 59.394531 10.09375 59.3125 10.167969 59.238281 10.238281 C 59.230469 10.394531 59.230469 10.550781 59.238281 10.699219 C 59.105469 11.074219 59.03125 11.457031 59.011719 11.84375 L 59.238281 51.53125 L 45.9375 38 C 44.769531 36.300781 42.707031 35.457031 40.6875 35.855469 C 38.667969 36.238281 37.074219 37.792969 36.625 39.800781 C 36.167969 41.800781 36.9375 43.886719 38.59375 45.113281 L 57.175781 63.917969 L 38.59375 82.5 C 36.574219 84.519531 36.574219 87.8125 38.59375 89.832031 C 40.625 91.863281 43.90625 91.863281 45.9375 89.832031 L 59.46875 76.074219 L 59.699219 115.75 C 59.738281 116.0625 59.8125 116.375 59.925781 116.667969 C 59.925781 116.75 59.925781 116.824219 59.925781 116.90625 C 59.6875 119.0625 60.824219 121.144531 62.769531 122.113281 C 64.71875 123.09375 67.0625 122.75 68.644531 121.261719 L 94.332031 93.730469 C 96.15625 91.675781 96.050781 88.5625 94.105469 86.625 L 71.625 63.917969 L 94.105469 40.980469 C 96.050781 39.042969 96.15625 35.925781 94.332031 33.863281 L 68.1875 7.03125 C 66.96875 5.6875 65.144531 5.082031 63.375 5.425781 Z M 66.355469 19.875 L 83.324219 37.3125 L 66.582031 54.28125 Z M 66.8125 73.78125 L 83.324219 90.292969 L 67.042969 107.730469 Z M 66.8125 73.78125 "/>
</g>
</svg>
