<?xml version="1.0" encoding="UTF-8"?>
<svg xmlns="http://www.w3.org/2000/svg" xmlns:xlink="http://www.w3.org/1999/xlink" width="128" height="128" viewBox="0 0 128 128" version="1.1">
<g id="surface1">
<path style=" stroke:none;fill-rule:nonzero;fill:rgb(74.509804%,74.509804%,74.509804%);fill-opacity:1;" d="M 40 0 C 26.84375 0 16 10.84375 16 24 L 16 48 L 32 48 L 32 24 C 32 19.429688 35.429688 16 40 16 L 56 16 C 60.570312 16 64 19.429688 64 24 L 64 26 C 66.136719 24.808594 68.453125 24 71 24 L 80 24 C 80 10.84375 69.15625 0 56 0 Z M 15.5 72 C 11.066406 72 6.980469 75.597656 7.5 80 L 7.5 120 L 87.996094 120 L 87.996094 104 L 70.996094 104 C 62.914062 104 55.996094 97.082031 55.996094 89 L 55.996094 72 Z M 15.5 72 "/>
<path style=" stroke:none;fill-rule:nonzero;fill:rgb(96.078431%,47.45098%,0%);fill-opacity:1;" d="M 71.039062 32 C 67.101562 32 64.039062 35.058594 64.039062 39 L 64.039062 89 C 64.039062 92.941406 67.101562 96 71.039062 96 L 121.039062 96 C 124.980469 96 128.039062 92.941406 128.039062 89 L 128.039062 39 C 128.039062 35.078125 125 32.039062 121 32.039062 L 71 32.039062 Z M 88.039062 40 L 104.039062 40 L 104.039062 72 L 88.039062 72 Z M 88.039062 80 L 104.039062 80 L 104.039062 88 L 88.039062 88 Z M 88.039062 80 "/>
<path style=" stroke:none;fill-rule:nonzero;fill:rgb(100%,100%,100%);fill-opacity:1;" d="M 16.164062 34.664062 C 16.164062 24.578125 16.359375 20.742188 16.992188 18.296875 C 19.316406 9.378906 26.761719 2.34375 35.664062 0.65625 C 40.265625 -0.21875 57.679688 -0.0390625 61.351562 0.921875 C 67.484375 2.515625 72.363281 5.835938 75.589844 10.601562 C 77.667969 13.675781 79.621094 19.261719 79.621094 22.132812 L 79.621094 23.972656 L 73.90625 23.972656 C 70.1875 23.972656 67.550781 24.242188 66.34375 24.746094 L 64.488281 25.523438 L 64.117188 23.058594 C 63.664062 20.007812 61.300781 17.164062 58.554688 16.34375 C 57.335938 15.984375 52.761719 15.824219 46.710938 15.933594 C 37.75 16.09375 36.710938 16.210938 35.320312 17.230469 C 32.128906 19.574219 31.894531 20.789062 31.890625 34.957031 L 31.890625 47.835938 L 16.164062 47.835938 Z M 16.164062 34.664062 "/>
<path style=" stroke:none;fill-rule:nonzero;fill:rgb(100%,100%,100%);fill-opacity:1;" d="M 7.601562 98.585938 C 7.75 77.9375 7.796875 77.148438 8.878906 75.671875 C 11.371094 72.277344 11.601562 72.246094 34.695312 72.246094 L 55.671875 72.242188 L 55.851562 82.414062 C 56.050781 93.933594 56.507812 95.652344 60.429688 99.570312 C 64.347656 103.492188 66.066406 103.949219 77.585938 104.148438 L 87.757812 104.328125 L 87.757812 119.972656 L 7.449219 119.972656 Z M 7.601562 98.585938 "/>
</g>
</svg>
