<?xml version="1.0" encoding="UTF-8"?>
<svg xmlns="http://www.w3.org/2000/svg" xmlns:xlink="http://www.w3.org/1999/xlink" width="128" height="128" viewBox="0 0 128 128" version="1.1">
<g id="surface1">
<path style=" stroke:none;fill-rule:nonzero;fill:rgb(100%,100%,100%);fill-opacity:1;" d="M 4 56 L 20 56 C 22.210938 56 24 57.789062 24 60 L 24 68 C 24 70.210938 22.210938 72 20 72 L 4 72 C 1.789062 72 0 70.210938 0 68 L 0 60 C 0 57.789062 1.789062 56 4 56 Z M 4 56 "/>
<path style=" stroke:none;fill-rule:nonzero;fill:rgb(100%,100%,100%);fill-opacity:1;" d="M 108 56 L 124 56 C 126.207031 56 128 57.789062 128 60 L 128 68 C 128 70.210938 126.207031 72 124 72 L 108 72 C 105.789062 72 104 70.210938 104 68 L 104 60 C 104 57.789062 105.789062 56 108 56 Z M 108 56 "/>
<path style=" stroke:none;fill-rule:nonzero;fill:rgb(100%,100%,100%);fill-opacity:1;" d="M 15.886719 100.773438 L 27.203125 89.457031 C 28.765625 87.894531 31.296875 87.894531 32.859375 89.457031 L 38.515625 95.113281 C 40.078125 96.675781 40.078125 99.210938 38.515625 100.773438 L 27.203125 112.085938 C 25.640625 113.648438 23.105469 113.648438 21.546875 112.085938 L 15.886719 106.429688 C 14.328125 104.867188 14.328125 102.335938 15.886719 100.773438 Z M 15.886719 100.773438 "/>
<path style=" stroke:none;fill-rule:nonzero;fill:rgb(100%,100%,100%);fill-opacity:1;" d="M 89.425781 27.234375 L 100.742188 15.921875 C 102.300781 14.359375 104.835938 14.359375 106.398438 15.921875 L 112.054688 21.578125 C 113.617188 23.140625 113.617188 25.671875 112.054688 27.234375 L 100.738281 38.546875 C 99.179688 40.109375 96.644531 40.109375 95.085938 38.546875 L 89.425781 32.890625 C 87.867188 31.328125 87.863281 28.796875 89.425781 27.234375 Z M 89.425781 27.234375 "/>
<path style=" stroke:none;fill-rule:nonzero;fill:rgb(100%,100%,100%);fill-opacity:1;" d="M 56 124 L 56 108 C 56 105.789062 57.789062 104 60 104 L 68 104 C 70.210938 104 72 105.789062 72 108 L 72 124 C 72 126.210938 70.210938 128 68 128 L 60 128 C 57.789062 128 56 126.210938 56 124 Z M 56 124 "/>
<path style=" stroke:none;fill-rule:nonzero;fill:rgb(100%,100%,100%);fill-opacity:1;" d="M 56 20 L 56 4 C 56 1.792969 57.789062 0 60 0 L 68 0 C 70.210938 0 72 1.792969 72 4 L 72 20 C 72 22.210938 70.210938 24 68 24 L 60 24 C 57.789062 24 56 22.210938 56 20 Z M 56 20 "/>
<path style=" stroke:none;fill-rule:nonzero;fill:rgb(100%,100%,100%);fill-opacity:1;" d="M 100.742188 112.085938 L 89.425781 100.773438 C 87.863281 99.210938 87.863281 96.675781 89.425781 95.113281 L 95.082031 89.457031 C 96.644531 87.894531 99.179688 87.894531 100.738281 89.457031 L 112.054688 100.773438 C 113.617188 102.335938 113.617188 104.867188 112.054688 106.429688 L 106.398438 112.085938 C 104.835938 113.648438 102.304688 113.648438 100.742188 112.085938 Z M 100.742188 112.085938 "/>
<path style=" stroke:none;fill-rule:nonzero;fill:rgb(100%,100%,100%);fill-opacity:1;" d="M 27.203125 38.546875 L 15.886719 27.234375 C 14.328125 25.671875 14.328125 23.140625 15.890625 21.578125 L 21.546875 15.921875 C 23.109375 14.359375 25.640625 14.359375 27.203125 15.921875 L 38.515625 27.234375 C 40.078125 28.796875 40.078125 31.328125 38.515625 32.890625 L 32.859375 38.546875 C 31.296875 40.109375 28.765625 40.109375 27.203125 38.546875 Z M 27.203125 38.546875 "/>
<path style=" stroke:none;fill-rule:nonzero;fill:rgb(100%,100%,100%);fill-opacity:1;" d="M 63.910156 32.078125 C 46.332031 32.078125 32.078125 46.335938 32.078125 63.914062 C 32.078125 81.492188 46.332031 95.984375 63.910156 95.984375 C 81.492188 95.984375 95.980469 81.492188 95.980469 63.914062 C 95.980469 46.335938 81.492188 32.078125 63.910156 32.078125 Z M 63.910156 47.996094 C 72.84375 47.996094 80.0625 54.984375 80.0625 63.914062 C 80.0625 72.84375 72.84375 80.066406 63.910156 80.066406 C 54.980469 80.066406 47.996094 72.84375 47.996094 63.914062 C 47.996094 54.980469 54.980469 47.996094 63.910156 47.996094 Z M 63.910156 47.996094 "/>
</g>
</svg>
