<?xml version="1.0" encoding="UTF-8"?>
<svg xmlns="http://www.w3.org/2000/svg" xmlns:xlink="http://www.w3.org/1999/xlink" width="128" height="128" viewBox="0 0 128 128" version="1.1">
<g id="surface1">
<path style=" stroke:none;fill-rule:nonzero;fill:rgb(100%,100%,100%);fill-opacity:1;" d="M 64 73.324219 C 54.050781 73.324219 45.074219 77.425781 38.550781 83.949219 C 38.300781 84.1875 38.15625 84.480469 38.15625 84.824219 C 38.15625 85.167969 38.300781 85.53125 38.550781 85.769531 L 46.71875 93.855469 C 47.207031 94.324219 47.96875 94.324219 48.457031 93.855469 C 52.425781 89.886719 57.9375 87.4375 64 87.4375 C 70.0625 87.4375 75.574219 89.886719 79.542969 93.855469 C 80.03125 94.324219 80.792969 94.324219 81.28125 93.855469 L 89.449219 85.769531 C 89.699219 85.53125 89.84375 85.167969 89.84375 84.824219 C 89.84375 84.480469 89.699219 84.1875 89.449219 83.949219 C 82.925781 77.425781 73.949219 73.324219 64 73.324219 Z M 64 96.550781 C 60.449219 96.550781 57.28125 98.042969 54.957031 100.355469 C 54.5 100.84375 54.5 101.613281 54.957031 102.105469 L 63.125 110.269531 C 63.613281 110.730469 64.386719 110.730469 64.875 110.269531 L 73.042969 102.105469 C 73.5 101.613281 73.5 100.84375 73.042969 100.355469 C 70.71875 98.042969 67.550781 96.550781 64 96.550781 Z M 64 96.550781 "/>
</g>
</svg>
