<?xml version="1.0" encoding="UTF-8"?>
<svg xmlns="http://www.w3.org/2000/svg" xmlns:xlink="http://www.w3.org/1999/xlink" width="128" height="128" viewBox="0 0 128 128" version="1.1">
<g id="surface1">
<path style=" stroke:none;fill-rule:nonzero;fill:rgb(100%,100%,100%);fill-opacity:1;" d="M 64 26.949219 C 41.25 26.949219 20.644531 36.207031 5.730469 51.125 C 5.480469 51.363281 5.332031 51.65625 5.332031 52 C 5.332031 52.34375 5.480469 52.707031 5.730469 52.949219 L 13.894531 61.113281 C 14.136719 61.363281 14.5 61.511719 14.84375 61.511719 C 15.1875 61.511719 15.480469 61.363281 15.71875 61.113281 C 28.082031 48.75 45.136719 41.0625 64 41.0625 C 82.863281 41.0625 99.917969 48.75 112.28125 61.113281 C 112.519531 61.363281 112.8125 61.511719 113.15625 61.511719 C 113.5 61.511719 113.863281 61.363281 114.105469 61.113281 L 122.269531 52.949219 C 122.519531 52.707031 122.667969 52.34375 122.667969 52 C 122.667969 51.65625 122.519531 51.363281 122.269531 51.125 C 107.355469 36.207031 86.75 26.949219 64 26.949219 Z M 64 50.175781 C 47.644531 50.175781 32.863281 56.8125 22.144531 67.53125 C 21.894531 67.769531 21.75 68.144531 21.75 68.488281 C 21.75 68.832031 21.894531 69.125 22.144531 69.355469 L 30.300781 77.53125 C 30.550781 77.769531 30.832031 77.917969 31.175781 77.917969 C 31.519531 77.917969 31.894531 77.769531 32.125 77.53125 C 40.300781 69.355469 51.542969 64.28125 64 64.28125 C 76.457031 64.28125 87.707031 69.355469 95.875 77.53125 C 96.105469 77.769531 96.480469 77.917969 96.824219 77.917969 C 97.167969 77.917969 97.457031 77.769531 97.699219 77.53125 L 105.855469 69.355469 C 106.105469 69.125 106.25 68.832031 106.25 68.488281 C 106.25 68.144531 106.105469 67.769531 105.855469 67.53125 C 95.136719 56.8125 80.355469 50.175781 64 50.175781 Z M 64 73.324219 C 54.050781 73.324219 45.074219 77.425781 38.550781 83.949219 C 38.300781 84.1875 38.15625 84.480469 38.15625 84.824219 C 38.15625 85.167969 38.300781 85.53125 38.550781 85.769531 L 46.71875 93.855469 C 47.207031 94.324219 47.96875 94.324219 48.457031 93.855469 C 52.425781 89.886719 57.9375 87.4375 64 87.4375 C 70.0625 87.4375 75.574219 89.886719 79.542969 93.855469 C 80.03125 94.324219 80.792969 94.324219 81.28125 93.855469 L 89.449219 85.769531 C 89.699219 85.53125 89.84375 85.167969 89.84375 84.824219 C 89.84375 84.480469 89.699219 84.1875 89.449219 83.949219 C 82.925781 77.425781 73.949219 73.324219 64 73.324219 Z M 64 96.550781 C 60.449219 96.550781 57.28125 98.042969 54.957031 100.355469 C 54.5 100.84375 54.5 101.613281 54.957031 102.105469 L 63.125 110.269531 C 63.613281 110.730469 64.386719 110.730469 64.875 110.269531 L 73.042969 102.105469 C 73.5 101.613281 73.5 100.84375 73.042969 100.355469 C 70.71875 98.042969 67.550781 96.550781 64 96.550781 Z M 64 96.550781 "/>
</g>
</svg>
