<?xml version="1.0" encoding="UTF-8"?>
<svg xmlns="http://www.w3.org/2000/svg" xmlns:xlink="http://www.w3.org/1999/xlink" width="128" height="128" viewBox="0 0 128 128" version="1.1">
<g id="surface1">
<path style=" stroke:none;fill-rule:nonzero;fill:rgb(100%,100%,100%);fill-opacity:1;" d="M 47.839844 40.160156 C 43.433594 40.09375 39.910156 36.457031 39.972656 32.035156 C 39.972656 14.445312 54.347656 0.0195312 71.871094 0.0195312 C 89.390625 0.0195312 103.769531 14.449219 103.769531 32.035156 C 103.855469 34.953125 102.351562 37.6875 99.847656 39.171875 C 97.34375 40.65625 94.230469 40.65625 91.726562 39.171875 C 89.222656 37.6875 87.71875 34.953125 87.804688 32.035156 C 87.804688 23.109375 80.761719 16.042969 71.871094 16.042969 C 62.980469 16.042969 55.9375 23.109375 55.9375 32.035156 C 55.96875 34.199219 55.125 36.28125 53.601562 37.8125 C 52.074219 39.34375 49.996094 40.191406 47.839844 40.160156 Z M 47.839844 40.160156 "/>
<path style=" stroke:none;fill-rule:nonzero;fill:rgb(100%,100%,100%);fill-opacity:1;" d="M 60 96 C 49.046875 96 39.996094 86.945312 39.996094 75.996094 C 39.996094 71.574219 43.578125 67.992188 48 67.992188 C 52.417969 67.992188 56.003906 71.574219 56.003906 75.996094 C 56.003906 78.296875 57.695312 79.992188 60 79.992188 C 62.304688 79.992188 64 78.296875 64 75.996094 C 64 71.574219 67.582031 67.992188 72.003906 67.992188 C 76.421875 67.992188 80.007812 71.574219 80.007812 75.996094 C 80.007812 86.945312 70.953125 96 60 96 Z M 60 96 "/>
<path style=" stroke:none;fill-rule:nonzero;fill:rgb(100%,100%,100%);fill-opacity:1;" d="M 70.238281 40 C 66.519531 40.839844 63.90625 44.1875 64 48 L 64 75.75 C 63.960938 78.636719 65.476562 81.320312 67.96875 82.773438 C 70.457031 84.226562 73.542969 84.226562 76.03125 82.773438 C 78.523438 81.320312 80.039062 78.636719 80 75.75 L 80 47.992188 C 80.058594 45.527344 78.980469 43.175781 77.078125 41.613281 C 75.171875 40.050781 72.652344 39.449219 70.25 39.992188 Z M 70.238281 40 "/>
<path style=" stroke:none;fill-rule:nonzero;fill:rgb(100%,100%,100%);fill-opacity:1;" d="M 94.238281 24 C 90.519531 24.839844 87.90625 28.1875 88 32 L 88 86.5 C 87.960938 89.386719 89.476562 92.070312 91.96875 93.523438 C 94.457031 94.976562 97.542969 94.976562 100.03125 93.523438 C 102.523438 92.070312 104.039062 89.386719 104 86.5 L 104 32.019531 C 104.058594 29.558594 102.980469 27.203125 101.078125 25.640625 C 99.171875 24.078125 96.652344 23.480469 94.25 24.019531 Z M 94.238281 24 "/>
<path style=" stroke:none;fill-rule:nonzero;fill:rgb(100%,100%,100%);fill-opacity:1;" d="M 46.238281 24 C 42.519531 24.839844 39.90625 28.1875 40 32 L 40 75.25 C 39.960938 78.132812 41.476562 80.816406 43.96875 82.273438 C 46.457031 83.726562 49.542969 83.726562 52.03125 82.273438 C 54.523438 80.816406 56.039062 78.132812 56 75.25 L 56 31.96875 C 56.058594 29.507812 54.980469 27.152344 53.078125 25.589844 C 51.171875 24.027344 48.652344 23.429688 46.25 23.96875 Z M 46.238281 24 "/>
<path style=" stroke:none;fill-rule:nonzero;fill:rgb(100%,100%,100%);fill-opacity:1;" d="M 22.238281 32 C 18.519531 32.839844 15.90625 36.1875 16 40 L 16 88 C 15.960938 90.886719 17.476562 93.570312 19.96875 95.023438 C 22.457031 96.476562 25.542969 96.476562 28.03125 95.023438 C 30.523438 93.570312 32.039062 90.886719 32 88 L 32 40 C 32.058594 37.535156 30.980469 35.183594 29.078125 33.621094 C 27.171875 32.058594 24.652344 31.460938 22.25 32 Z M 22.238281 32 "/>
<path style=" stroke:none;fill-rule:nonzero;fill:rgb(100%,100%,100%);fill-opacity:1;" d="M 94.71875 80 C 92.605469 80.335938 90.714844 81.507812 89.46875 83.25 L 68.03125 111.96875 L 51.78125 111.96875 L 30.28125 83.71875 C 28.859375 80.816406 25.828125 79.054688 22.605469 79.253906 C 19.378906 79.453125 16.589844 81.574219 15.53125 84.628906 C 14.476562 87.683594 15.363281 91.074219 17.78125 93.21875 L 41.78125 124.71875 C 43.257812 126.691406 45.558594 127.871094 48.019531 127.921875 L 72.019531 127.921875 C 74.582031 127.941406 77 126.730469 78.519531 124.671875 L 102.519531 92.671875 C 104.511719 90.046875 104.695312 86.472656 102.980469 83.664062 C 101.265625 80.851562 98.003906 79.378906 94.761719 79.949219 Z M 94.71875 80 "/>
</g>
</svg>
