<?xml version="1.0" encoding="UTF-8"?>
<svg xmlns="http://www.w3.org/2000/svg" xmlns:xlink="http://www.w3.org/1999/xlink" width="128" height="128" viewBox="0 0 128 128" version="1.1">
<g id="surface1">
<path style=" stroke:none;fill-rule:nonzero;fill:rgb(100%,100%,100%);fill-opacity:1;" d="M 47.636719 5.34375 C 45.46875 5.5625 43.8125 7.386719 43.800781 9.5625 L 43.800781 69.03125 C 43.792969 70.375 44.40625 71.65625 45.46875 72.46875 L 64.738281 86.917969 C 66.355469 88.144531 68.613281 88.0625 70.144531 86.730469 L 86.167969 72.574219 C 87.105469 71.761719 87.644531 70.574219 87.644531 69.332031 L 87.644531 36.011719 C 87.644531 33.613281 85.707031 31.6875 83.3125 31.6875 C 80.925781 31.6875 78.988281 33.613281 78.988281 36.011719 L 78.988281 67.457031 L 67.09375 77.980469 L 52.355469 66.875 L 52.355469 13.894531 L 90 13.894531 L 90 94.09375 L 66.511719 113.0625 L 39.769531 95.082031 L 39.769531 36.988281 C 39.84375 35.417969 39.042969 33.9375 37.6875 33.136719 C 36.34375 32.332031 34.65625 32.332031 33.300781 33.136719 C 31.957031 33.9375 31.15625 35.417969 31.21875 36.988281 L 31.21875 97.34375 C 31.21875 98.761719 31.925781 100.082031 33.09375 100.875 L 64.25 121.917969 C 65.8125 122.980469 67.886719 122.90625 69.355469 121.71875 L 96.980469 99.40625 C 98.019531 98.605469 98.636719 97.375 98.644531 96.0625 L 98.644531 9.5625 C 98.625 7.207031 96.6875 5.3125 94.324219 5.34375 L 48.125 5.34375 C 47.96875 5.332031 47.800781 5.332031 47.636719 5.34375 Z M 47.636719 5.34375 "/>
</g>
</svg>
