<?xml version="1.0" encoding="UTF-8"?>
<svg xmlns="http://www.w3.org/2000/svg" xmlns:xlink="http://www.w3.org/1999/xlink" width="128" height="128" viewBox="0 0 128 128" version="1.1">
<g id="surface1">
<path style=" stroke:none;fill-rule:nonzero;fill:rgb(100%,100%,100%);fill-opacity:1;" d="M 96 24 C 82.84375 24 72 34.84375 72 48 L 72 80 C 72 84.570312 68.570312 88 64 88 L 16 88 L 16 104 L 64 104 C 77.15625 104 88 93.15625 88 80 L 88 48 C 88 43.429688 91.429688 40 96 40 L 120 40 L 120 24 Z M 96 24 "/>
<path style=" stroke:none;fill-rule:nonzero;fill:rgb(100%,100%,100%);fill-opacity:1;" d="M 31.039062 72 C 29.25 72.195312 27.574219 72.988281 26.289062 74.25 L 10.289062 90.25 L 4.789062 96 L 10.289062 101.75 L 26.289062 117.75 C 28.339844 119.832031 31.347656 120.65625 34.171875 119.90625 C 36.992188 119.160156 39.199219 116.953125 39.949219 114.128906 C 40.695312 111.308594 39.871094 108.296875 37.789062 106.25 L 27.46875 96.011719 L 37.71875 85.761719 C 40.300781 83.359375 41.007812 79.554688 39.464844 76.386719 C 37.917969 73.222656 34.480469 71.4375 31 72 Z M 31.039062 72 "/>
<path style=" stroke:none;fill-rule:nonzero;fill:rgb(100%,100%,100%);fill-opacity:1;" d="M 31.039062 8 C 29.25 8.195312 27.574219 8.988281 26.289062 10.25 L 10.289062 26.25 L 4.789062 32 L 10.289062 37.75 L 26.289062 53.75 C 28.339844 55.832031 31.347656 56.65625 34.171875 55.90625 C 36.992188 55.160156 39.199219 52.953125 39.949219 50.128906 C 40.695312 47.308594 39.871094 44.296875 37.789062 42.25 L 27.46875 32.011719 L 37.71875 21.761719 C 40.300781 19.359375 41.007812 15.554688 39.464844 12.386719 C 37.917969 9.222656 34.480469 7.4375 31 8 Z M 31.039062 8 "/>
<path style=" stroke:none;fill-rule:nonzero;fill:rgb(100%,100%,100%);fill-opacity:1;" d="M 64 24 C 65.835938 24 67.527344 24.351562 69.25 24.75 C 65.398438 29.160156 62.359375 34.171875 61 40 L 16 40 L 16 24 Z M 120 88 L 120 104 L 96 104 C 94.164062 104 92.472656 103.648438 90.75 103.25 C 94.601562 98.839844 97.640625 93.828125 99 88 Z M 120 88 "/>
<path style=" stroke:none;fill-rule:nonzero;fill:rgb(100%,100%,100%);fill-opacity:1;" d="M 40 72 L 32 72 L 32 80 L 40 80 Z M 40 72 "/>
<path style=" stroke:none;fill-rule:nonzero;fill:rgb(100%,100%,100%);fill-opacity:1;" d="M 40 112 L 32 112 L 32 120 L 40 120 Z M 40 112 "/>
<path style=" stroke:none;fill-rule:nonzero;fill:rgb(100%,100%,100%);fill-opacity:1;" d="M 40 8 L 32 8 L 32 16 L 40 16 Z M 40 8 "/>
<path style=" stroke:none;fill-rule:nonzero;fill:rgb(100%,100%,100%);fill-opacity:1;" d="M 40 48 L 32 48 L 32 56 L 40 56 Z M 40 48 "/>
</g>
</svg>
