<?xml version="1.0" encoding="UTF-8"?>
<svg xmlns="http://www.w3.org/2000/svg" xmlns:xlink="http://www.w3.org/1999/xlink" width="128" height="128" viewBox="0 0 128 128" version="1.1">
<g id="surface1">
<path style=" stroke:none;fill-rule:nonzero;fill:rgb(100%,100%,100%);fill-opacity:1;" d="M 46.238281 72 C 43.253906 72.542969 40.832031 74.722656 39.984375 77.636719 C 39.136719 80.550781 40.011719 83.691406 42.238281 85.75 L 52.480469 95.992188 L 42.230469 106.238281 C 40.148438 108.289062 39.324219 111.296875 40.074219 114.121094 C 40.820312 116.945312 43.027344 119.148438 45.851562 119.898438 C 48.671875 120.644531 51.683594 119.824219 53.730469 117.738281 L 69.730469 101.738281 L 75.230469 95.988281 L 69.730469 90.238281 L 53.730469 74.238281 C 51.785156 72.230469 48.9375 71.382812 46.210938 72 Z M 46.238281 72 "/>
<path style=" stroke:none;fill-rule:nonzero;fill:rgb(100%,100%,100%);fill-opacity:1;" d="M 32 24 C 18.84375 24 8 34.84375 8 48 L 8 80 C 8 93.15625 18.84375 104 32 104 L 64 104 L 64 88 L 32 88 C 27.429688 88 24 84.570312 24 80 L 24 48 C 24 43.429688 27.429688 40 32 40 L 96 40 C 100.570312 40 104 43.429688 104 48 L 104 80 C 104 84.570312 100.570312 88 96 88 L 88 88 L 88 104 L 96 104 C 109.15625 104 120 93.15625 120 80 L 120 48 C 120 34.84375 109.15625 24 96 24 Z M 32 24 "/>
<path style=" stroke:none;fill-rule:nonzero;fill:rgb(100%,100%,100%);fill-opacity:1;" d="M 48 72 L 40 72 L 40 80 L 48 80 Z M 48 72 "/>
<path style=" stroke:none;fill-rule:nonzero;fill:rgb(100%,100%,100%);fill-opacity:1;" d="M 48 112 L 40 112 L 40 120 L 48 120 Z M 48 112 "/>
</g>
</svg>
