<?xml version="1.0" encoding="UTF-8"?>
<svg xmlns="http://www.w3.org/2000/svg" xmlns:xlink="http://www.w3.org/1999/xlink" width="128" height="128" viewBox="0 0 128 128" version="1.1">
<g id="surface1">
<path style=" stroke:none;fill-rule:nonzero;fill:rgb(100%,100%,100%);fill-opacity:1;" d="M 79 72 C 77.207031 72.195312 75.535156 72.988281 74.25 74.25 L 58.25 90.25 L 52.75 96 L 58.25 101.75 L 74.25 117.75 C 76.296875 119.832031 79.308594 120.65625 82.128906 119.90625 C 84.953125 119.160156 87.160156 116.953125 87.90625 114.128906 C 88.65625 111.308594 87.832031 108.296875 85.75 106.25 L 75.511719 96.011719 L 85.757812 85.769531 C 88.347656 83.367188 89.058594 79.550781 87.5 76.378906 C 85.945312 73.207031 82.492188 71.429688 79.007812 72.011719 Z M 79 72 "/>
<path style=" stroke:none;fill-rule:nonzero;fill:rgb(100%,100%,100%);fill-opacity:1;" d="M 32 24 C 18.84375 24 8 34.84375 8 48 L 8 80 C 8 93.15625 18.84375 104 32 104 L 40 104 L 40 88 L 32 88 C 27.429688 88 24 84.570312 24 80 L 24 48 C 24 43.429688 27.429688 40 32 40 L 96 40 C 100.570312 40 104 43.429688 104 48 L 104 80 C 104 84.570312 100.570312 88 96 88 L 64 88 L 64 104 L 96 104 C 109.15625 104 120 93.15625 120 80 L 120 48 C 120 34.84375 109.15625 24 96 24 Z M 32 24 "/>
<path style=" stroke:none;fill-rule:nonzero;fill:rgb(100%,100%,100%);fill-opacity:1;" d="M 80 72 L 88 72 L 88 80 L 80 80 Z M 80 72 "/>
<path style=" stroke:none;fill-rule:nonzero;fill:rgb(100%,100%,100%);fill-opacity:1;" d="M 80 112 L 88 112 L 88 120 L 80 120 Z M 80 112 "/>
</g>
</svg>
