<?xml version="1.0" encoding="UTF-8"?>
<svg xmlns="http://www.w3.org/2000/svg" xmlns:xlink="http://www.w3.org/1999/xlink" width="128" height="128" viewBox="0 0 128 128" version="1.1">
<defs>
<clipPath id="clip1">
  <path d="M 8 44.113281 L 80.25 44.113281 L 80.25 104.25 L 8 104.25 Z M 8 44.113281 "/>
</clipPath>
</defs>
<g id="surface1">
<path style=" stroke:none;fill-rule:nonzero;fill:rgb(100%,100%,100%);fill-opacity:1;" d="M 44 7.921875 C 55.046875 7.921875 64 16.875 64 27.921875 L 64 68.023438 C 64 79.070312 55.046875 88.023438 44 88.023438 C 32.953125 88.023438 24 79.070312 24 68.023438 L 24 27.921875 C 24 16.875 32.953125 7.921875 44 7.921875 Z M 44 7.921875 "/>
<g clip-path="url(#clip1)" clip-rule="nonzero">
<path style=" stroke:none;fill-rule:nonzero;fill:rgb(100%,100%,100%);fill-opacity:1;" d="M 44.082031 -14.929688 C 24.183594 -14.929688 8.050781 1.300781 8.050781 21.320312 L 8.050781 67.820312 C 8.050781 87.839844 24.183594 104.070312 44.082031 104.070312 C 63.980469 104.070312 80.113281 87.839844 80.113281 67.820312 L 80.113281 21.320312 C 80.113281 1.300781 63.980469 -14.929688 44.082031 -14.929688 Z M 44.082031 -6.929688 C 59.699219 -6.929688 72.160156 5.609375 72.160156 21.320312 L 72.160156 67.820312 C 72.160156 83.535156 59.699219 96.070312 44.082031 96.070312 C 28.464844 96.070312 16.003906 83.535156 16.003906 67.820312 L 16.003906 21.320312 C 16.003906 5.609375 28.464844 -6.929688 44.082031 -6.929688 Z M 44.082031 -6.929688 "/>
</g>
<path style=" stroke:none;fill-rule:nonzero;fill:rgb(100%,100%,100%);fill-opacity:1;" d="M 16 44 C 16 46.210938 14.210938 48 12 48 C 9.789062 48 8 46.210938 8 44 C 8 41.789062 9.789062 40 12 40 C 14.210938 40 16 41.789062 16 44 Z M 16 44 "/>
<path style=" stroke:none;fill-rule:nonzero;fill:rgb(100%,100%,100%);fill-opacity:1;" d="M 80 44 C 80 46.210938 78.210938 48 76 48 C 73.789062 48 72 46.210938 72 44 C 72 41.789062 73.789062 40 76 40 C 78.210938 40 80 41.789062 80 44 Z M 80 44 "/>
<path style=" stroke:none;fill-rule:nonzero;fill:rgb(100%,100%,100%);fill-opacity:1;" d="M 15.039062 112 C 12.160156 112.152344 9.585938 113.835938 8.292969 116.414062 C 7.003906 118.992188 7.195312 122.0625 8.796875 124.460938 C 10.398438 126.855469 13.164062 128.207031 16.039062 128 L 72.289062 128 C 75.175781 128.039062 77.859375 126.523438 79.3125 124.03125 C 80.765625 121.542969 80.765625 118.457031 79.3125 115.96875 C 77.859375 113.476562 75.175781 111.960938 72.289062 112 L 16.050781 112 C 15.714844 111.980469 15.382812 111.980469 15.050781 112 Z M 15.039062 112 "/>
<path style=" stroke:none;fill-rule:nonzero;fill:rgb(100%,100%,100%);fill-opacity:1;" d="M 8 120 L 80 120 L 80 128 L 8 128 Z M 8 120 "/>
<path style=" stroke:none;fill-rule:nonzero;fill:rgb(100%,100%,100%);fill-opacity:1;" d="M 32 96 L 56 96 L 56 128 L 32 128 Z M 32 96 "/>
<path style=" stroke:none;fill-rule:nonzero;fill:rgb(100%,100%,100%);fill-opacity:1;" d="M 119.921875 104.050781 C 119.921875 112.886719 112.757812 120.050781 103.921875 120.050781 C 95.085938 120.050781 87.921875 112.886719 87.921875 104.050781 C 87.921875 95.210938 95.085938 88.046875 103.921875 88.046875 C 112.757812 88.046875 119.921875 95.210938 119.921875 104.050781 Z M 119.921875 104.050781 "/>
<path style=" stroke:none;fill-rule:nonzero;fill:rgb(100%,100%,100%);fill-opacity:1;" d="M 119.921875 64.050781 C 119.921875 72.886719 112.757812 80.050781 103.921875 80.050781 C 95.085938 80.050781 87.921875 72.886719 87.921875 64.050781 C 87.921875 55.210938 95.085938 48.046875 103.921875 48.046875 C 112.757812 48.046875 119.921875 55.210938 119.921875 64.050781 Z M 119.921875 64.050781 "/>
<path style=" stroke:none;fill-rule:nonzero;fill:rgb(100%,100%,100%);fill-opacity:1;" d="M 119.921875 24.050781 C 119.921875 32.886719 112.757812 40.050781 103.921875 40.050781 C 95.085938 40.050781 87.921875 32.886719 87.921875 24.050781 C 87.921875 15.210938 95.085938 8.046875 103.921875 8.046875 C 112.757812 8.046875 119.921875 15.210938 119.921875 24.050781 Z M 119.921875 24.050781 "/>
</g>
</svg>
