<?xml version="1.0" encoding="UTF-8"?>
<svg xmlns="http://www.w3.org/2000/svg" xmlns:xlink="http://www.w3.org/1999/xlink" width="128" height="128" viewBox="0 0 128 128" version="1.1">
<g id="surface1">
<path style=" stroke:none;fill-rule:nonzero;fill:rgb(100%,100%,100%);fill-opacity:1;" d="M 40 56 C 37.523438 56 35.082031 56.722656 33.5 58.25 L 4.699219 88.011719 L 33.949219 117.761719 C 35.53125 119.289062 37.472656 120.011719 39.949219 120.011719 L 47.949219 120.011719 L 47.949219 112.011719 C 47.949219 109.957031 46.914062 107.78125 45.449219 106.261719 L 35.210938 96.019531 L 71.960938 96.019531 C 76.1875 96.078125 79.960938 92.246094 79.960938 88.019531 C 79.960938 83.792969 76.1875 79.960938 71.960938 80.019531 L 34.960938 80.019531 L 44.710938 69.769531 C 46.171875 68.25 47.960938 66.074219 47.960938 64.019531 L 47.960938 56.019531 Z M 40 56 "/>
<path style=" stroke:none;fill-rule:nonzero;fill:rgb(100%,100%,100%);fill-opacity:1;" d="M 92.71875 72 C 95.195312 72 97.636719 71.277344 99.21875 69.75 L 128.019531 39.988281 L 98.769531 10.238281 C 97.1875 8.710938 95.246094 7.988281 92.769531 7.988281 L 84.769531 7.988281 L 84.769531 15.988281 C 84.769531 18.042969 85.808594 20.21875 87.269531 21.738281 L 97.519531 31.988281 L 56.019531 31.988281 C 51.792969 31.933594 48.019531 35.761719 48.019531 39.988281 C 48.019531 44.214844 51.792969 48.050781 56.019531 47.988281 L 97.769531 47.988281 L 88.019531 58.238281 C 86.558594 59.761719 84.769531 61.933594 84.769531 63.988281 L 84.769531 71.988281 Z M 92.71875 72 "/>
</g>
</svg>
