<?xml version="1.0" encoding="UTF-8"?>
<svg xmlns="http://www.w3.org/2000/svg" xmlns:xlink="http://www.w3.org/1999/xlink" width="128" height="128" viewBox="0 0 128 128" version="1.1">
<g id="surface1">
<path style=" stroke:none;fill-rule:nonzero;fill:rgb(96.078431%,47.45098%,0%);fill-opacity:1;" d="M 24 8 C 8 8 8 24 8 24 L 8 104 C 8 120 24 120 24 120 L 104 119.25 C 120 119.101562 120 104 120 104 L 120 24 C 120 8 104 8 104 8 Z M 64 24.25 C 78.515625 24.25 93.03125 29.195312 104 39.25 L 104 48 L 89.5 48 C 74.753906 36.71875 53.246094 36.71875 38.5 48 L 24 48 L 24 39.25 C 34.96875 29.195312 49.484375 24.25 64 24.25 Z M 64 48.75 C 72.347656 48.75 80.640625 51.449219 87 56.75 C 87.347656 56.898438 87.679688 57.066406 88 57.25 L 88 64 L 40 64 L 40 57.5 C 40.308594 57.226562 40.644531 56.976562 41 56.75 C 47.359375 51.449219 55.652344 48.75 64 48.75 Z M 64 72 C 72.835938 72 80 79.164062 80 88 C 80 96.835938 72.835938 104 64 104 C 55.164062 104 48 96.835938 48 88 C 48 79.164062 55.164062 72 64 72 Z M 64 72 "/>
</g>
</svg>
