<?xml version="1.0" encoding="UTF-8"?>
<svg xmlns="http://www.w3.org/2000/svg" xmlns:xlink="http://www.w3.org/1999/xlink" width="128" height="128" viewBox="0 0 128 128" version="1.1">
<g id="surface1">
<path style=" stroke:none;fill-rule:nonzero;fill:rgb(100%,100%,100%);fill-opacity:1;" d="M 16.496094 0 C 7.289062 0 -0.00390625 7.292969 -0.00390625 16.5 L -0.00390625 111.5 C -0.00390625 120.707031 7.289062 128 16.496094 128 L 111.496094 128 C 120.703125 128 127.996094 120.707031 127.996094 111.5 L 127.996094 16.5 C 127.996094 7.292969 120.703125 0 111.496094 0 Z M 48.996094 24.25 L 79.746094 24.25 C 79.769531 24.25 79.71875 24.5 79.746094 24.5 C 83.964844 24.335938 88.324219 25.105469 91.746094 28.25 C 95.0625 31.296875 96.492188 36.308594 96.246094 41 L 96.496094 41 L 96.496094 48 L 80.496094 48 L 80.496094 40.25 C 80.355469 40.234375 80.523438 40.234375 80.246094 40.25 L 48.996094 40.25 C 48.773438 40.25 48.820312 40.265625 48.746094 40.25 C 48.695312 40.28125 48.511719 40.226562 48.496094 40.25 C 48.4375 40.429688 48.550781 40.621094 48.496094 40.75 L 48.496094 87.5 C 48.304688 87.324219 48.46875 87.984375 48.496094 88 L 79.746094 88 C 79.800781 87.84375 79.980469 87.871094 79.996094 88 C 80 88.0625 79.996094 87.554688 79.996094 87.75 L 79.996094 72.25 L 63.996094 72.25 L 63.996094 56.25 L 95.996094 56.25 L 95.996094 87.75 C 95.996094 92.25 94.179688 95.746094 91.496094 98.75 C 88.96875 101.578125 84.679688 103.804688 79.746094 103.75 L 79.746094 104 L 48.496094 104 C 43.496094 104 40.542969 102.070312 37.742188 99.5 C 35.09375 97.066406 32.59375 93.179688 32.742188 88 C 32.746094 87.984375 32.492188 88.015625 32.492188 88 L 32.492188 39.5 C 32.992188 36.003906 34.136719 32.386719 36.992188 29.25 C 39.851562 26.113281 44.5625 24.25 48.992188 24.25 Z M 48.996094 24.25 "/>
</g>
</svg>
