<?xml version="1.0" encoding="UTF-8"?>
<svg xmlns="http://www.w3.org/2000/svg" xmlns:xlink="http://www.w3.org/1999/xlink" width="128" height="128" viewBox="0 0 128 128" version="1.1">
<g id="surface1">
<path style=" stroke:none;fill-rule:nonzero;fill:rgb(100%,100%,100%);fill-opacity:1;" d="M 80 104 C 80 112.835938 72.839844 120 64 120 C 55.164062 120 48 112.835938 48 104 C 48 95.164062 55.164062 88 64 88 C 72.839844 88 80 95.164062 80 104 Z M 80 104 "/>
<path style=" stroke:none;fill-rule:nonzero;fill:rgb(100%,100%,100%);fill-opacity:1;" d="M 64 16 C 41.488281 16 22.625 24 8 36.683594 L 8 48 L 19.84375 48 C 32 37.882812 45.601562 32 64 32 C 82.398438 32 96 38.234375 108.15625 48 L 120 48 L 120 36.949219 C 106.875 25.222656 86.511719 16 64 16 Z M 64 16 "/>
<path style=" stroke:none;fill-rule:nonzero;fill:rgb(100%,100%,100%);fill-opacity:1;" d="M 64 40 C 46.667969 40 31.839844 45.910156 24 56 L 24 64 L 40 64 C 46.308594 59.148438 54.070312 56 64 56 C 73.929688 56 81.753906 59.148438 88 64 L 104 64 L 104 56 C 96.042969 46.21875 81.011719 40 64 40 Z M 64 40 "/>
<path style=" stroke:none;fill-rule:nonzero;fill:rgb(100%,100%,100%);fill-opacity:1;" d="M 64 64 C 53.941406 64 46.273438 66.492188 40 72 L 40 80 L 88 80 L 88 72 C 81.304688 66.625 74.058594 64 64 64 Z M 64 64 "/>
</g>
</svg>
