<?xml version="1.0" encoding="UTF-8"?>
<svg xmlns="http://www.w3.org/2000/svg" xmlns:xlink="http://www.w3.org/1999/xlink" width="128" height="128" viewBox="0 0 128 128" version="1.1">
<g id="surface1">
<path style=" stroke:none;fill-rule:nonzero;fill:rgb(100%,100%,100%);fill-opacity:1;" d="M 16.480469 0 C 7.273438 0 -0.0195312 7.292969 -0.0195312 16.5 L -0.0195312 111.5 C -0.0195312 120.707031 7.273438 128 16.480469 128 L 111.480469 128 C 120.6875 128 127.980469 120.707031 127.980469 111.5 L 127.980469 16.5 C 127.980469 7.292969 120.6875 0 111.480469 0 Z M 15.980469 24 L 31.980469 24 L 31.980469 56 L 39.980469 56 L 39.980469 48 L 55.980469 48 L 55.980469 104 L 39.980469 104 L 39.980469 72 L 31.980469 72 C 23.980469 72 15.980469 65.265625 15.980469 56 Z M 80.480469 24.25 L 95.730469 24.25 C 95.753906 24.25 95.707031 24.5 95.730469 24.5 C 99.949219 24.335938 104.308594 25.105469 107.730469 28.25 C 111.046875 31.296875 112.476562 36.308594 112.230469 41 L 112.480469 41 L 112.480469 48 L 96.480469 48 L 96.480469 40.25 C 96.339844 40.234375 96.503906 40.234375 96.230469 40.25 L 80.480469 40.25 C 80.261719 40.25 80.304688 40.265625 80.230469 40.25 C 80.183594 40.28125 80 40.226562 79.980469 40.25 C 79.925781 40.429688 80.039062 40.621094 79.980469 40.75 L 79.980469 87.5 C 79.792969 87.324219 79.980469 88 79.980469 88 L 95.734375 88 C 95.789062 87.84375 95.96875 87.871094 95.980469 88 C 95.988281 88.0625 95.980469 87.554688 95.980469 87.75 L 95.980469 72.25 L 87.980469 72.25 L 87.980469 56.25 L 111.980469 56.25 L 111.980469 87.75 C 111.980469 92.25 110.164062 95.746094 107.480469 98.75 C 104.953125 101.578125 100.667969 103.804688 95.730469 103.75 L 95.730469 104 L 79.980469 104 C 74.984375 104 72.03125 102.070312 69.230469 99.5 C 66.582031 97.066406 64.082031 93.179688 64.230469 88 C 64.234375 87.984375 63.980469 88.015625 63.980469 88 L 63.980469 39.5 C 64.480469 36.003906 65.625 32.386719 68.480469 29.25 C 71.339844 26.113281 76.050781 24.25 80.480469 24.25 Z M 80.480469 24.25 "/>
</g>
</svg>
