<?xml version="1.0" encoding="UTF-8"?>
<svg xmlns="http://www.w3.org/2000/svg" xmlns:xlink="http://www.w3.org/1999/xlink" width="128" height="128" viewBox="0 0 128 128" version="1.1">
<g id="surface1">
<path style=" stroke:none;fill-rule:nonzero;fill:rgb(96.078431%,47.45098%,0%);fill-opacity:1;" d="M 71.039062 64 C 67.101562 64 64.039062 67.058594 64.039062 71 L 64.039062 121 C 64.039062 124.941406 67.101562 128 71.039062 128 L 121.039062 128 C 124.980469 128 128.039062 124.941406 128.039062 121 L 128.039062 71 C 128.039062 67.078125 125 64.039062 121 64.039062 L 71 64.039062 Z M 88.039062 72 L 104.039062 72 L 104.039062 104 L 88.039062 104 Z M 88.039062 112 L 104.039062 112 L 104.039062 120 L 88.039062 120 Z M 88.039062 112 "/>
<path style=" stroke:none;fill-rule:nonzero;fill:rgb(74.509804%,74.509804%,74.509804%);fill-opacity:1;" d="M 16 32 C 12 32 8 36 8 40 L 8 72 C 8 76 12 80 16 80 L 24 80 L 24 64 L 56 64 C 56.945312 59.6875 60.410156 56.5 65 56.5 L 120 56.5 L 120 40 C 120 36 116 32 112 32 Z M 16 32 "/>
<path style=" stroke:none;fill-rule:nonzero;fill:rgb(74.509804%,74.509804%,74.509804%);fill-opacity:1;" d="M 32 8 L 32 24 L 96 24 L 96 8 Z M 32 8 "/>
<path style=" stroke:none;fill-rule:nonzero;fill:rgb(74.509804%,74.509804%,74.509804%);fill-opacity:1;" d="M 32 72 L 32 112 L 56 112 L 56 72 Z M 32 72 "/>
<path style=" stroke:none;fill-rule:nonzero;fill:rgb(100%,100%,100%);fill-opacity:1;" d="M 32.433594 92.039062 L 32.433594 72.242188 L 55.757812 72.242188 L 55.757812 111.835938 L 32.433594 111.835938 Z M 32.433594 92.039062 "/>
<path style=" stroke:none;fill-rule:nonzero;fill:rgb(100%,100%,100%);fill-opacity:1;" d="M 13.113281 79.058594 C 12.183594 78.652344 10.71875 77.398438 9.859375 76.273438 L 8.296875 74.226562 L 8.296875 37.71875 L 9.859375 35.671875 C 12.746094 31.886719 9.726562 32.078125 64.667969 32.234375 C 114.019531 32.378906 114.257812 32.382812 115.785156 33.515625 C 116.625 34.140625 117.863281 35.457031 118.535156 36.441406 C 119.679688 38.125 119.757812 38.789062 119.757812 47.359375 L 119.757812 56.488281 L 90.601562 56.636719 L 61.453125 56.785156 L 59.675781 58.054688 C 58.699219 58.75 57.414062 60.269531 56.820312 61.433594 L 55.742188 63.550781 L 24.027344 63.835938 L 23.726562 79.835938 L 19.265625 79.816406 C 16.75 79.804688 14.070312 79.472656 13.113281 79.058594 Z M 13.113281 79.058594 "/>
<path style=" stroke:none;fill-rule:nonzero;fill:rgb(100%,100%,100%);fill-opacity:1;" d="M 32.433594 16.109375 L 32.433594 8.242188 L 95.890625 8.242188 L 95.890625 23.972656 L 32.433594 23.972656 Z M 32.433594 16.109375 "/>
</g>
</svg>
