<?xml version="1.0" encoding="UTF-8"?>
<svg xmlns="http://www.w3.org/2000/svg" xmlns:xlink="http://www.w3.org/1999/xlink" width="128" height="128" viewBox="0 0 128 128" version="1.1">
<g id="surface1">
<path style=" stroke:none;fill-rule:nonzero;fill:rgb(74.509804%,74.509804%,74.509804%);fill-opacity:1;" d="M 16 32 C 12 32 8 36 8 40 L 8 72 C 8 76 12 80 16 80 L 24 80 L 24 64 L 120 64.03125 L 120 40 C 120 36 116 32 112 32 Z M 16 32 "/>
<path style=" stroke:none;fill-rule:nonzero;fill:rgb(74.509804%,74.509804%,74.509804%);fill-opacity:1;" d="M 32 8 L 32 24 L 96 24 L 96 8 Z M 32 8 "/>
<path style=" stroke:none;fill-rule:nonzero;fill:rgb(74.509804%,74.509804%,74.509804%);fill-opacity:1;" d="M 32 72 L 32 112 L 64 112 L 63.953125 72 Z M 32 72 "/>
<path style=" stroke:none;fill-rule:nonzero;fill:rgb(93.72549%,16.078431%,16.078431%);fill-opacity:1;" d="M 100 72 C 84.535156 72 72 84.535156 72 100 C 72 115.464844 84.535156 128 100 128 C 115.464844 128 128 115.464844 128 100 C 128 84.535156 115.464844 72 100 72 Z M 80 95.75 L 120 95.75 L 120 104 L 80 104 Z M 80 95.75 "/>
<path style=" stroke:none;fill-rule:nonzero;fill:rgb(100%,100%,100%);fill-opacity:1;" d="M 32.433594 92.039062 L 32.433594 72.242188 L 63.890625 72.242188 L 63.890625 111.835938 L 32.433594 111.835938 Z M 32.433594 92.039062 "/>
<path style=" stroke:none;fill-rule:nonzero;fill:rgb(100%,100%,100%);fill-opacity:1;" d="M 13.113281 79.058594 C 12.183594 78.652344 10.71875 77.398438 9.859375 76.273438 L 8.296875 74.226562 L 8.296875 37.71875 L 9.859375 35.671875 C 12.746094 31.886719 9.726562 32.078125 64.667969 32.234375 C 114.019531 32.378906 114.257812 32.382812 115.785156 33.515625 C 116.625 34.140625 117.863281 35.457031 118.535156 36.441406 C 119.71875 38.179688 119.757812 38.648438 119.757812 51.21875 L 119.757812 64.199219 L 24.027344 63.835938 L 23.726562 79.835938 L 19.265625 79.816406 C 16.75 79.804688 14.070312 79.472656 13.113281 79.058594 Z M 13.113281 79.058594 "/>
<path style=" stroke:none;fill-rule:nonzero;fill:rgb(100%,100%,100%);fill-opacity:1;" d="M 32.433594 16.109375 L 32.433594 8.242188 L 95.890625 8.242188 L 95.890625 23.972656 L 32.433594 23.972656 Z M 32.433594 16.109375 "/>
</g>
</svg>
