<?xml version="1.0" encoding="UTF-8"?>
<svg xmlns="http://www.w3.org/2000/svg" xmlns:xlink="http://www.w3.org/1999/xlink" width="128" height="128" viewBox="0 0 128 128" version="1.1">
<g id="surface1">
<path style=" stroke:none;fill-rule:nonzero;fill:rgb(74.509804%,74.509804%,74.509804%);fill-opacity:1;" d="M 28 0 C 21.355469 0 16 5.355469 16 12 L 16 48 L 12 48 C 5.355469 48 0 53.355469 0 60 L 0 92 C 0 98.644531 5.355469 104 12 104 L 16 104 L 16 116 C 16 122.644531 21.355469 128 28 128 L 80.5 128 L 74.25 121.75 C 71.738281 119.269531 71.199219 115.03125 73 112 L 36 112 C 33.78125 112 32 110.21875 32 108 L 32 96 L 73 96 C 71.199219 92.957031 71.738281 88.730469 74.25 86.25 L 86.25 74.25 C 87.519531 72.988281 89.230469 72.1875 91 72 C 91.082031 72 91.167969 72 91.25 72 C 91.75 71.957031 92.25 71.957031 92.75 72 C 94.613281 72.136719 96.417969 72.949219 97.75 74.25 L 104 80.488281 L 105.5 79 C 104.636719 78.269531 104 77.21875 104 76 C 104 73.792969 105.792969 72 108 72 C 109.292969 72 110.269531 72.792969 111 73.75 C 114.03125 71.230469 118.96875 71.457031 121.75 74.25 L 128 80.488281 L 128 60 C 128 53.355469 122.644531 48 116 48 L 112 48 L 112 12 C 112 5.355469 106.644531 0 100 0 C 76 0 51.988281 0 28 0 Z M 36 16 L 92 16 C 94.21875 16 96 17.78125 96 20 L 96 56 L 32 56 L 32 20 C 32 17.78125 33.78125 16 36 16 Z M 40 24 L 40 32 L 88.25 32 L 88.25 24 Z M 40 40 L 40 48 L 72 48 L 72 40 Z M 40 40 "/>
<path style=" stroke:none;fill-rule:nonzero;fill:rgb(83.137255%,0%,0%);fill-opacity:1;" d="M 80.042969 92.042969 L 92.03125 80.050781 L 104.019531 92.042969 L 116.011719 80.050781 L 128.011719 92.042969 L 116.019531 104.019531 L 128.011719 116.011719 L 116.019531 128 L 104.03125 116.011719 L 92.050781 128 L 80.0625 116.011719 L 92.050781 104.019531 L 80.0625 92.042969 Z M 80.042969 92.042969 "/>
<path style=" stroke:none;fill-rule:nonzero;fill:rgb(100%,100%,100%);fill-opacity:1;" d="M 22.585938 126.46875 C 20.070312 125.140625 17.578125 122.136719 16.78125 119.472656 C 16.441406 118.335938 16.164062 114.324219 16.164062 110.554688 L 16.164062 103.703125 L 12.890625 103.703125 C 7.558594 103.703125 3.726562 101.472656 1.449219 97.039062 C 0.453125 95.105469 0.40625 93.90625 0.550781 75.304688 L 0.703125 55.621094 L 2.0625 53.621094 C 4.429688 50.125 7.144531 48.710938 11.933594 48.472656 L 16.113281 48.265625 L 16.433594 8.515625 L 17.765625 6.1875 C 19.378906 3.375 23.050781 0.820312 26.117188 0.375 C 27.351562 0.199219 45.207031 0.125 65.789062 0.21875 L 103.214844 0.378906 L 105.628906 1.734375 C 106.960938 2.480469 108.789062 4.148438 109.699219 5.441406 L 111.351562 7.792969 L 111.621094 27.953125 L 111.890625 48.109375 L 116.085938 48.40625 C 119.589844 48.65625 120.660156 48.96875 122.59375 50.328125 C 123.867188 51.222656 125.519531 53.039062 126.265625 54.371094 C 127.574219 56.703125 127.625 57.175781 127.796875 68.4375 L 127.972656 80.09375 L 124.242188 76.492188 C 119.582031 71.992188 117.066406 71.039062 113.359375 72.375 C 111.203125 73.148438 110.753906 73.164062 109.78125 72.480469 C 108.257812 71.414062 107.140625 71.503906 105.457031 72.828125 C 103.933594 74.023438 103.554688 76.316406 104.570312 78.210938 C 105.847656 80.597656 103.765625 79.71875 100.226562 76.382812 C 96.078125 72.46875 93.472656 71.320312 90.148438 71.945312 C 88.472656 72.261719 86.78125 73.625 80.828125 79.472656 C 76.828125 83.402344 73.1875 87.316406 72.742188 88.167969 C 71.929688 89.738281 71.644531 93.964844 72.285156 95 C 72.523438 95.390625 66.21875 95.566406 52.261719 95.566406 L 31.890625 95.566406 L 31.890625 102.300781 C 31.890625 106.007812 32.042969 109.429688 32.226562 109.914062 C 33.101562 112.195312 34.734375 112.378906 54.132812 112.378906 C 66.796875 112.378906 72.523438 112.558594 72.285156 112.945312 C 71.703125 113.890625 71.898438 118.171875 72.585938 119.515625 C 72.941406 120.214844 74.726562 122.3125 76.546875 124.175781 L 79.859375 127.566406 L 52.214844 127.542969 C 25.960938 127.519531 24.46875 127.464844 22.585938 126.46875 Z M 96.433594 38.109375 C 96.433594 27.0625 96.21875 19.679688 95.871094 18.765625 C 94.734375 15.78125 95.75 15.875 64.003906 15.855469 L 34.554688 15.835938 L 31.890625 18.5 L 31.890625 55.972656 L 96.433594 55.972656 Z M 96.433594 38.109375 "/>
<path style=" stroke:none;fill-rule:nonzero;fill:rgb(100%,100%,100%);fill-opacity:1;" d="M 48.0625 47.972656 C 52.628906 47.882812 59.949219 47.882812 64.332031 47.976562 C 68.714844 48.066406 64.976562 48.140625 56.027344 48.140625 C 47.078125 48.140625 43.492188 48.0625 48.0625 47.972656 Z M 48.0625 47.972656 "/>
</g>
</svg>
