<?xml version="1.0" encoding="UTF-8"?>
<svg xmlns="http://www.w3.org/2000/svg" xmlns:xlink="http://www.w3.org/1999/xlink" width="128" height="128" viewBox="0 0 128 128" version="1.1">
<g id="surface1">
<path style=" stroke:none;fill-rule:nonzero;fill:rgb(100%,100%,100%);fill-opacity:1;" d="M 112.640625 103.28125 C 112.578125 102.941406 112.492188 102.605469 112.390625 102.28125 C 111.554688 98.554688 108.203125 95.9375 104.390625 96.03125 L 90.890625 96.03125 C 95.511719 92.972656 99.546875 89.234375 102.890625 84.78125 C 109.824219 75.535156 112.90625 64.523438 112.390625 53.78125 C 112.316406 52.246094 112.105469 50.800781 111.890625 49.28125 C 110.148438 37.101562 103.703125 25.457031 93.136719 17.53125 C 72.007812 1.679688 41.738281 6.148438 25.890625 27.28125 C 10.039062 48.414062 14.507812 78.679688 35.640625 94.53125 C 37.023438 95.519531 38.6875 96.046875 40.390625 96.03125 C 40.804688 96.0625 41.222656 96.0625 41.640625 96.03125 L 48.390625 96.03125 L 48.390625 88.78125 C 48.402344 88.53125 48.398438 88.28125 48.386719 88.03125 C 48.402344 85.46875 47.195312 83.054688 45.136719 81.53125 C 30.925781 70.867188 28.226562 50.992188 38.886719 36.78125 C 49.550781 22.566406 69.425781 19.867188 83.640625 30.53125 C 97.851562 41.191406 100.550781 61.066406 89.890625 75.277344 C 87.3125 78.714844 84.023438 81.4375 80.390625 83.527344 L 80.390625 72.027344 C 80.386719 67.609375 76.808594 64.027344 72.390625 64.027344 C 71.808594 63.964844 71.21875 63.964844 70.640625 64.027344 L 64.390625 64.027344 L 64.390625 112.027344 L 104.390625 112.027344 C 104.886719 112.074219 105.390625 112.074219 105.890625 112.027344 L 112.386719 112.027344 L 112.386719 105.527344 C 112.578125 104.792969 112.664062 104.035156 112.640625 103.277344 Z M 112.640625 103.28125 "/>
</g>
</svg>
