<?xml version="1.0" encoding="UTF-8"?>
<svg xmlns="http://www.w3.org/2000/svg" xmlns:xlink="http://www.w3.org/1999/xlink" width="128" height="128" viewBox="0 0 128 128" version="1.1">
<g id="surface1">
<path style=" stroke:none;fill-rule:nonzero;fill:rgb(100%,100%,100%);fill-opacity:1;" d="M 62 8 C 48.152344 8.691406 34.664062 15.363281 25.75 27.25 C 22.777344 31.210938 20.566406 35.550781 19 40 L 36.75 40 C 37.386719 38.90625 37.972656 37.789062 38.75 36.75 C 49.410156 22.535156 69.285156 19.839844 83.5 30.5 C 97.714844 41.160156 100.414062 61.035156 89.75 75.25 C 87.175781 78.6875 83.886719 81.40625 80.25 83.5 L 80.25 72 L 72.03125 72 L 72.25 112 L 104.25 112 C 104.75 112.046875 105.253906 112.046875 105.75 112 L 112.25 112 L 112.25 105.5 C 112.441406 104.765625 112.523438 104.007812 112.5 103.25 C 112.4375 102.910156 112.355469 102.578125 112.25 102.25 C 111.449219 98.671875 107.914062 95.910156 104.25 96 L 90.75 96 C 95.375 92.941406 99.410156 89.207031 102.75 84.75 C 109.683594 75.503906 112.769531 64.496094 112.25 53.75 C 112.179688 52.214844 111.96875 50.773438 111.75 49.25 C 110.011719 37.074219 103.566406 25.425781 93 17.5 C 83.757812 10.566406 72.769531 7.460938 62 8 Z M 62 8 "/>
<path style=" stroke:none;fill-rule:nonzero;fill:rgb(100%,100%,100%);fill-opacity:1;" d="M 32.238281 55.519531 C 23.53125 55.519531 16.238281 62.550781 16.238281 71.269531 L 16.238281 84.019531 L 24.238281 84.019531 L 24.238281 71.269531 C 24.238281 66.859375 27.871094 63.519531 32.238281 63.519531 C 36.609375 63.519531 39.988281 66.859375 39.988281 71.269531 L 39.988281 83.769531 L 47.988281 83.769531 L 47.988281 71.269531 C 47.988281 62.550781 40.949219 55.519531 32.238281 55.519531 Z M 32.238281 55.519531 "/>
<path style=" stroke:none;fill-rule:nonzero;fill:rgb(100%,100%,100%);fill-opacity:1;" d="M 8.558594 80 L 56.289062 80 L 56.289062 112.5 L 8.558594 112.5 Z M 8.558594 80 "/>
</g>
</svg>
