<?xml version="1.0" encoding="UTF-8"?>
<svg xmlns="http://www.w3.org/2000/svg" xmlns:xlink="http://www.w3.org/1999/xlink" width="128" height="128" viewBox="0 0 128 128" version="1.1">
<g id="surface1">
<path style=" stroke:none;fill-rule:nonzero;fill:rgb(100%,100%,100%);fill-opacity:1;" d="M 66.0625 5.332031 C 48.96875 5.332031 36.75 15.53125 36.75 32.207031 L 36.75 46.863281 L 48.96875 46.863281 L 48.96875 37.09375 C 48.96875 32.207031 48.96875 17.550781 66.0625 17.550781 L 68.511719 17.550781 C 85.605469 17.550781 85.605469 32.207031 85.605469 37.09375 L 85.605469 46.863281 L 97.824219 46.863281 L 97.824219 32.207031 C 97.824219 15.105469 85.605469 5.332031 68.511719 5.332031 Z M 31.792969 66.480469 C 26.90625 66.480469 24.46875 68.925781 24.46875 73.8125 L 24.46875 115.34375 C 24.46875 117.730469 26.90625 122.667969 31.792969 122.667969 L 103.550781 122.667969 C 107.5 122.644531 109.957031 117.730469 109.957031 115.34375 L 109.957031 73.8125 C 109.957031 68.925781 107.519531 66.480469 102.636719 66.480469 Z M 31.792969 66.480469 "/>
</g>
</svg>
