<?xml version="1.0" encoding="UTF-8"?>
<svg xmlns="http://www.w3.org/2000/svg" xmlns:xlink="http://www.w3.org/1999/xlink" width="128" height="128" viewBox="0 0 128 128" version="1.1">
<g id="surface1">
<path style=" stroke:none;fill-rule:nonzero;fill:rgb(100%,100%,100%);fill-opacity:1;" d="M 64 8.078125 C 66.128906 8.070312 67.988281 8.886719 69.316406 9.996094 C 70.644531 11.105469 71.535156 12.566406 72.433594 13.996094 C 74.230469 16.859375 75.578125 20.144531 76.957031 23.625 C 78.339844 27.105469 79.734375 30.726562 80.996094 33.484375 C 82.253906 36.242188 83.761719 38.113281 83.863281 38.1875 C 83.96875 38.257812 86.320312 39.121094 89.429688 39.402344 C 92.539062 39.679688 96.480469 39.792969 100.335938 39.957031 C 104.191406 40.117188 108.097656 40.246094 111.480469 40.980469 C 113.171875 41.347656 114.804688 41.792969 116.316406 42.65625 C 117.828125 43.523438 119.25 44.949219 119.914062 46.898438 C 120.582031 48.847656 120.308594 50.949219 119.625 52.511719 C 118.941406 54.074219 117.8125 55.429688 116.679688 56.699219 C 114.410156 59.230469 111.617188 61.542969 108.617188 63.886719 C 105.613281 66.230469 102.402344 68.359375 100.074219 70.367188 C 97.746094 72.375 96.4375 74.429688 96.398438 74.550781 C 96.359375 74.667969 96.148438 77.230469 96.835938 80.167969 C 97.523438 83.105469 98.628906 86.660156 99.660156 90.25 C 100.691406 93.839844 101.671875 97.464844 101.992188 100.796875 C 102.152344 102.464844 102.335938 104.054688 101.953125 105.710938 C 101.566406 107.363281 100.476562 109.152344 98.761719 110.363281 C 97.042969 111.578125 95.164062 111.867188 93.414062 111.722656 C 91.664062 111.582031 89.933594 111.160156 88.332031 110.515625 C 85.136719 109.21875 81.917969 107.085938 78.683594 105.054688 C 75.445312 103.023438 72.21875 100.882812 69.519531 99.367188 C 66.820312 97.851562 64.332031 97.21875 64.203125 97.21875 C 64.074219 97.21875 61.773438 97.980469 59.089844 99.515625 C 56.40625 101.054688 53.289062 103.238281 50.070312 105.292969 C 46.851562 107.351562 43.511719 109.273438 40.324219 110.597656 C 38.734375 111.257812 37.214844 111.804688 35.464844 111.960938 C 33.714844 112.117188 31.625 111.714844 29.902344 110.511719 C 28.175781 109.3125 27.1875 107.695312 26.789062 106.042969 C 26.386719 104.390625 26.445312 102.5625 26.589844 100.894531 C 26.878906 97.558594 27.859375 93.980469 28.863281 90.382812 C 29.863281 86.785156 30.953125 83.292969 31.617188 80.347656 C 32.277344 77.402344 32.1875 74.851562 32.148438 74.734375 C 32.109375 74.617188 30.648438 72.714844 28.304688 70.726562 C 25.957031 68.738281 22.894531 66.425781 19.875 64.109375 C 16.855469 61.789062 13.738281 59.535156 11.449219 57.023438 C 10.304688 55.765625 9.515625 54.347656 8.820312 52.789062 C 8.125 51.234375 7.730469 49.359375 8.382812 47.40625 C 9.03125 45.449219 10.550781 44.101562 12.054688 43.222656 C 13.558594 42.347656 14.988281 41.769531 16.675781 41.390625 C 20.054688 40.625 23.984375 40.269531 27.84375 40.074219 C 31.699219 39.882812 35.410156 39.761719 38.515625 39.460938 C 41.621094 39.15625 44.242188 38.410156 44.34375 38.335938 C 44.445312 38.265625 45.816406 36.445312 47.050781 33.679688 C 48.285156 30.914062 49.664062 27.375 51.015625 23.882812 C 52.367188 20.394531 53.695312 16.96875 55.464844 14.09375 C 56.347656 12.65625 57.332031 11.261719 58.648438 10.140625 C 59.96875 9.023438 61.875 8.085938 64.003906 8.078125 Z M 63.929688 16.035156 C 63.589844 16.320312 63.074219 17.121094 62.457031 18.128906 C 61.21875 20.140625 59.808594 23.144531 58.503906 26.519531 C 57.195312 29.890625 55.949219 33.609375 54.535156 36.78125 C 53.121094 39.953125 52.019531 42.652344 49.132812 44.691406 C 46.246094 46.730469 42.972656 47.074219 39.410156 47.421875 C 35.851562 47.769531 31.980469 47.847656 28.253906 48.03125 C 24.523438 48.21875 20.90625 48.589844 18.546875 49.125 C 17.363281 49.390625 16.5 49.582031 16.113281 49.808594 C 16.292969 50.207031 16.75 51.046875 17.550781 51.925781 C 19.152344 53.683594 21.851562 55.824219 24.773438 58.066406 C 27.691406 60.304688 30.996094 62.644531 33.683594 64.921875 C 36.371094 67.199219 38.804688 69.179688 39.921875 72.457031 C 41.042969 75.738281 40.355469 78.671875 39.597656 82.046875 C 38.839844 85.421875 37.566406 89.074219 36.597656 92.550781 C 35.628906 96.03125 34.78125 99.328125 34.578125 101.660156 C 34.488281 102.722656 34.714844 103.539062 34.800781 104 C 35.28125 103.9375 36.214844 103.742188 37.234375 103.320312 C 39.460938 102.394531 42.40625 100.695312 45.515625 98.707031 C 48.628906 96.71875 51.945312 94.460938 55.023438 92.699219 C 58.101562 90.9375 60.6875 89.511719 64.265625 89.5 C 67.84375 89.484375 70.601562 90.878906 73.695312 92.617188 C 76.785156 94.351562 79.96875 96.578125 83.097656 98.539062 C 86.226562 100.503906 89.308594 102.144531 91.546875 103.054688 C 92.664062 103.507812 93.515625 103.738281 93.964844 103.773438 C 94.046875 103.3125 94.085938 102.492188 93.988281 101.433594 C 93.765625 99.105469 92.882812 95.765625 91.882812 92.292969 C 90.886719 88.824219 89.851562 85.113281 89.066406 81.742188 C 88.28125 78.375 87.574219 75.4375 88.664062 72.148438 C 89.753906 68.859375 92.121094 67.011719 94.789062 64.710938 C 97.457031 62.410156 100.433594 60.027344 103.335938 57.761719 C 106.238281 55.496094 109.078125 53.277344 110.664062 51.503906 C 111.457031 50.617188 111.960938 49.808594 112.136719 49.410156 C 111.75 49.1875 110.902344 48.945312 109.71875 48.6875 C 107.351562 48.171875 103.757812 47.832031 100.027344 47.675781 C 96.300781 47.519531 92.441406 47.4375 88.878906 47.117188 C 85.316406 46.796875 82.105469 46.71875 79.203125 44.699219 C 76.296875 42.683594 74.894531 39.859375 73.453125 36.699219 C 72.007812 33.539062 70.753906 29.96875 69.417969 26.605469 C 68.082031 23.242188 66.871094 19.921875 65.613281 17.917969 C 64.984375 16.917969 64.273438 16.316406 63.933594 16.035156 Z M 63.929688 16.035156 "/>
<path style=" stroke:none;fill-rule:nonzero;fill:rgb(100%,100%,100%);fill-opacity:1;" d="M 64 12 C 71.414062 11.976562 75.484375 37.070312 81.5 41.25 C 87.511719 45.429688 113.683594 41.457031 116 48.25 C 118.316406 55.042969 94.761719 66.4375 92.5 73.25 C 90.238281 80.058594 102.476562 102.773438 96.5 107 C 90.519531 111.226562 71.664062 93.222656 64.25 93.25 C 64.1875 93.25 64.070312 93.246094 64 93.25 L 64 11.96875 Z M 64 12 "/>
</g>
</svg>
