<?xml version="1.0" encoding="UTF-8"?>
<svg xmlns="http://www.w3.org/2000/svg" xmlns:xlink="http://www.w3.org/1999/xlink" width="128" height="128" viewBox="0 0 128 128" version="1.1">
<g id="surface1">
<path style=" stroke:none;fill-rule:evenodd;fill:rgb(100%,100%,100%);fill-opacity:1;" d="M 64 0.480469 L 46 27.730469 L 18.5 18.480469 L 27.75 45.980469 L 0.5 63.980469 L 27.75 81.980469 L 18.5 109.480469 L 46 100.230469 L 64 127.480469 L 82 100.230469 L 109.5 109.480469 L 100.25 81.980469 L 127.5 63.980469 L 100.25 45.980469 L 109.5 18.480469 L 82 27.730469 Z M 64 36.730469 L 69.75 42.230469 L 85.75 58.230469 C 87.539062 60.039062 88.402344 62.71875 88 65.230469 L 88 71.980469 L 81 71.980469 C 78.566406 72.300781 76.003906 71.445312 74.25 69.730469 L 72 67.480469 L 72 87.980469 L 56 87.980469 L 56 67.480469 L 53.75 69.730469 C 52.222656 71.1875 50.109375 72.015625 48 71.980469 L 40 71.980469 L 40 65.730469 C 39.992188 65.480469 39.992188 65.230469 40 64.980469 C 39.679688 62.546875 40.53125 59.984375 42.25 58.230469 L 58.25 42.230469 Z M 64 36.730469 "/>
</g>
</svg>
