<?xml version="1.0" encoding="UTF-8"?>
<svg xmlns="http://www.w3.org/2000/svg" xmlns:xlink="http://www.w3.org/1999/xlink" width="128" height="128" viewBox="0 0 128 128" version="1.1">
<g id="surface1">
<path style=" stroke:none;fill-rule:nonzero;fill:rgb(100%,100%,100%);fill-opacity:1;" d="M 98.304688 112.359375 C 91.8125 117.039062 71.71875 96.613281 63.71875 96.578125 C 55.714844 96.546875 35.445312 116.804688 28.984375 112.074219 C 22.53125 107.347656 35.746094 81.921875 33.304688 74.304688 C 30.863281 66.679688 5.335938 53.664062 7.835938 46.058594 C 10.339844 38.460938 38.601562 43.171875 45.09375 38.496094 C 51.589844 33.820312 56.082031 5.515625 64.085938 5.546875 C 72.085938 5.578125 76.335938 33.914062 82.792969 38.644531 C 89.246094 43.375 117.554688 38.902344 119.996094 46.523438 C 122.441406 54.140625 96.804688 66.941406 94.300781 74.539062 C 91.796875 82.140625 104.796875 107.679688 98.304688 112.359375 Z M 98.304688 112.359375 "/>
</g>
</svg>
