<?xml version="1.0" encoding="UTF-8"?>
<svg xmlns="http://www.w3.org/2000/svg" xmlns:xlink="http://www.w3.org/1999/xlink" width="128" height="128" viewBox="0 0 128 128" version="1.1">
<g id="surface1">
<path style=" stroke:none;fill-rule:nonzero;fill:rgb(74.509804%,74.509804%,74.509804%);fill-opacity:1;" d="M 19.761719 8 C 19.761719 8 7.761719 8 7.761719 20 L 7.761719 115.753906 C 7.761719 115.753906 7.761719 128 19.761719 128 L 79.761719 128 L 79.761719 112 L 23.761719 112 L 23.761719 24 L 31.761719 24 L 31.761719 8 Z M 87.761719 8 L 87.761719 24 L 95.761719 24 L 95.761719 80 L 111.761719 80 L 111.761719 20 C 111.761719 8 99.761719 8 99.761719 8 Z M 87.761719 8 "/>
<path style=" stroke:none;fill-rule:nonzero;fill:rgb(74.509804%,74.509804%,74.509804%);fill-opacity:1;" d="M 44 0 L 75.75 0 C 77.960938 0 79.75 1.789062 79.75 4 L 79.75 28 C 79.75 30.207031 77.960938 32 75.75 32 L 44 32 C 41.789062 32 40 30.207031 40 28 L 40 4 C 40 1.789062 41.789062 0 44 0 Z M 44 0 "/>
<path style=" stroke:none;fill-rule:nonzero;fill:rgb(74.509804%,74.509804%,74.509804%);fill-opacity:1;" d="M 87.761719 88 L 98.761719 88 L 107.761719 96.75 L 116.480469 88.03125 L 127.761719 88.03125 L 127.761719 99.78125 L 119.007812 108.28125 L 127.730469 116.761719 L 127.730469 128.039062 L 116.210938 128.039062 L 107.730469 119.5625 L 99.25 128.039062 L 87.730469 128.039062 L 87.730469 116.792969 L 96.230469 108.292969 L 87.75 99.8125 L 87.75 88.050781 Z M 87.761719 88 "/>
<path style=" stroke:none;fill-rule:nonzero;fill:rgb(100%,100%,100%);fill-opacity:1;" d="M 41.925781 31.152344 C 40.3125 30.074219 40.082031 28.132812 40.082031 15.578125 L 40.082031 2.773438 L 42.742188 0.109375 L 77.011719 0.109375 L 78.34375 1.4375 L 79.675781 2.773438 L 79.675781 15.578125 C 79.675781 28.132812 79.445312 30.074219 77.832031 31.152344 C 77.503906 31.371094 69.421875 31.550781 59.878906 31.550781 C 50.332031 31.550781 42.253906 31.371094 41.925781 31.152344 Z M 41.925781 31.152344 "/>
<path style=" stroke:none;fill-rule:nonzero;fill:rgb(100%,100%,100%);fill-opacity:1;" d="M 95.945312 51.90625 L 95.945312 23.972656 L 87.8125 23.972656 L 87.8125 8.242188 L 94.792969 8.242188 C 102.566406 8.242188 105.476562 8.933594 108.054688 11.382812 C 111.554688 14.710938 111.386719 12.976562 111.558594 47.972656 L 111.714844 79.835938 L 95.945312 79.835938 Z M 95.945312 51.90625 "/>
<path style=" stroke:none;fill-rule:nonzero;fill:rgb(100%,100%,100%);fill-opacity:1;" d="M 13.792969 126.328125 C 11.367188 124.953125 9.441406 122.40625 8.632812 119.492188 C 8.285156 118.246094 8.085938 99.191406 8.085938 67.039062 L 8.082031 16.550781 L 9.34375 14.160156 C 10.171875 12.589844 11.507812 11.210938 13.230469 10.140625 C 15.78125 8.5625 16.089844 8.507812 23.632812 8.328125 L 31.402344 8.140625 L 31.402344 23.972656 L 23.8125 23.972656 L 23.8125 112.378906 L 79.675781 112.378906 L 79.675781 127.566406 L 47.8125 127.554688 L 15.945312 127.546875 Z M 13.792969 126.328125 "/>
<path style=" stroke:none;fill-rule:nonzero;fill:rgb(100%,0%,0%);fill-opacity:1;" d="M 87.8125 122.535156 L 87.8125 116.964844 L 92.148438 112.648438 L 96.488281 108.335938 L 92.148438 103.972656 L 87.8125 99.609375 L 87.8125 87.972656 L 93.132812 87.972656 C 98.375 87.972656 98.476562 87.996094 100.046875 89.652344 C 100.921875 90.574219 103.0625 92.566406 104.796875 94.078125 L 107.953125 96.824219 L 116.851562 87.972656 L 127.402344 87.972656 L 127.402344 99.609375 L 123.039062 104 L 118.671875 108.386719 L 123.039062 112.558594 L 127.402344 116.730469 L 127.402344 128.109375 L 116.421875 128.109375 L 111.992188 123.78125 L 107.558594 119.453125 L 103.257812 123.78125 L 98.953125 128.109375 L 87.8125 128.109375 Z M 87.8125 122.535156 "/>
</g>
</svg>
