<?xml version="1.0" encoding="UTF-8"?>
<svg xmlns="http://www.w3.org/2000/svg" xmlns:xlink="http://www.w3.org/1999/xlink" width="128" height="128" viewBox="0 0 128 128" version="1.1">
<g id="surface1">
<path style=" stroke:none;fill-rule:nonzero;fill:rgb(100%,100%,100%);fill-opacity:1;" d="M 54.082031 10.75 C 52.03125 10.75 50.40625 11.84375 49.417969 13.167969 C 48.425781 14.488281 48 16.011719 48 17.417969 L 48 26.667969 L 32.667969 26.667969 C 27.886719 26.667969 24 30.550781 24 35.332031 L 24 106 C 24 110.78125 27.886719 114.667969 32.667969 114.667969 L 98 114.667969 C 102.78125 114.667969 106.667969 110.78125 106.667969 106 L 106.667969 35.332031 C 106.667969 30.550781 102.78125 26.667969 98 26.667969 L 82.667969 26.667969 L 82.667969 17.5 C 82.667969 16.03125 82.144531 14.5 81.167969 13.25 C 80.1875 12 78.667969 11 76.832031 11 Z M 54.082031 13.417969 L 76.832031 13.667969 C 77.6875 13.667969 78.46875 14.136719 79.082031 14.917969 C 79.699219 15.699219 80 16.78125 80 17.5 L 80 28.167969 L 80.5 28.5 L 81 28.917969 C 81.03125 28.949219 81.050781 28.96875 81.082031 29 L 87.582031 34.167969 C 87.550781 34.550781 87.5625 35.042969 87.332031 35.832031 C 87.1875 36.363281 86.949219 36.84375 86.75 37.082031 C 86.550781 37.324219 86.542969 37.34375 86.332031 37.332031 L 44.667969 37.332031 C 44.644531 37.332031 44.605469 37.332031 44.582031 37.332031 C 44.5 37.324219 44.46875 37.28125 44.332031 37.082031 C 44.167969 36.84375 44.019531 36.417969 43.917969 35.917969 C 43.75 35.144531 43.75 34.675781 43.75 34.332031 L 48.417969 30.332031 L 50 29 C 50.019531 28.980469 49.980469 28.9375 50 28.917969 L 50.167969 28.832031 L 50.667969 28.417969 L 50.667969 17.417969 C 50.667969 16.65625 50.980469 15.550781 51.582031 14.75 C 52.1875 13.949219 52.90625 13.417969 54.082031 13.417969 Z M 37.167969 34.667969 L 41.082031 34.667969 C 41.125 35.167969 41.1875 35.824219 41.332031 36.5 C 41.480469 37.207031 41.6875 37.886719 42.167969 38.582031 C 42.644531 39.28125 43.457031 39.949219 44.5 40 L 86.25 40 C 87.34375 40.050781 88.269531 39.4375 88.832031 38.75 C 89.394531 38.0625 89.707031 37.324219 89.917969 36.582031 C 90.113281 35.875 90.199219 35.207031 90.25 34.667969 L 93.5 34.667969 C 94.894531 34.667969 96 35.769531 96 37.167969 L 96 91.332031 C 92.375 92.300781 90.09375 93.5 85.417969 92.25 C 84.980469 92.136719 84.5 92.28125 84.167969 92.582031 C 83.832031 92.886719 83.675781 93.300781 83.75 93.75 L 85.582031 104 L 37.167969 104 C 35.769531 104 34.667969 102.894531 34.667969 101.5 L 34.667969 37.167969 C 34.667969 35.769531 35.769531 34.667969 37.167969 34.667969 Z M 65.332031 54.667969 C 63.332031 54.667969 61.332031 56 61.332031 58.667969 L 61.332031 77.332031 L 69.332031 77.332031 L 69.332031 58.667969 C 69.332031 56 67.332031 54.667969 65.332031 54.667969 Z M 65.332031 79.832031 C 62.96875 79.832031 61.375 81.5 61.332031 83.917969 C 61.332031 86.238281 62.917969 88 65.332031 88 C 67.707031 88 69.332031 86.238281 69.332031 83.917969 C 69.332031 81.5 67.707031 79.832031 65.332031 79.832031 Z M 93.917969 94.667969 C 93.03125 95.792969 92.488281 96.4375 91.25 98 L 87.917969 102.167969 L 86.582031 94.832031 C 89.40625 95.238281 91.84375 95.230469 93.917969 94.667969 Z M 93.917969 94.667969 "/>
</g>
</svg>
