<?xml version="1.0" encoding="UTF-8"?>
<svg xmlns="http://www.w3.org/2000/svg" xmlns:xlink="http://www.w3.org/1999/xlink" width="128" height="128" viewBox="0 0 128 128" version="1.1">
<g id="surface1">
<path style=" stroke:none;fill-rule:nonzero;fill:rgb(100%,100%,100%);fill-opacity:1;" d="M 54.21875 12.78125 C 27.238281 12.78125 5.332031 34.675781 5.332031 61.667969 C 5.332031 88.65625 27.238281 110.550781 54.21875 110.550781 C 67.03125 110.550781 78.707031 105.582031 87.425781 97.519531 L 122.667969 97.519531 L 100.875 75.71875 C 102.230469 71.238281 103.105469 66.582031 103.105469 61.667969 C 103.105469 34.675781 81.207031 12.78125 54.21875 12.78125 Z M 54.21875 32.332031 C 70.417969 32.332031 83.550781 45.46875 83.550781 61.667969 C 83.550781 77.855469 70.417969 91 54.21875 91 C 38.03125 91 24.894531 77.855469 24.894531 61.667969 C 24.894531 45.46875 38.03125 32.332031 54.21875 32.332031 Z M 53.207031 42.113281 C 51.8125 42.5625 50.894531 43.90625 50.96875 45.363281 L 50.96875 61.667969 C 50.96875 63.46875 52.417969 64.917969 54.21875 64.925781 L 65.625 64.925781 C 66.800781 64.9375 67.894531 64.324219 68.488281 63.3125 C 69.082031 62.292969 69.082031 61.03125 68.488281 60.019531 C 67.894531 59.011719 66.800781 58.394531 65.625 58.40625 L 57.480469 58.40625 L 57.480469 45.363281 C 57.5 44.386719 57.074219 43.449219 56.324219 42.8125 C 55.574219 42.1875 54.574219 41.925781 53.613281 42.113281 C 53.480469 42.105469 53.34375 42.105469 53.207031 42.113281 Z M 53.207031 42.113281 "/>
</g>
</svg>
