<?xml version="1.0" encoding="UTF-8"?>
<svg xmlns="http://www.w3.org/2000/svg" xmlns:xlink="http://www.w3.org/1999/xlink" width="128" height="128" viewBox="0 0 128 128" version="1.1">
<g id="surface1">
<path style=" stroke:none;fill-rule:nonzero;fill:rgb(100%,100%,100%);fill-opacity:1;" d="M 54.21875 14.28125 C 27.238281 14.28125 5.332031 36.1875 5.332031 63.167969 C 5.332031 90.15625 27.238281 112.0625 54.21875 112.0625 C 67.03125 112.0625 78.707031 107.09375 87.425781 99.019531 L 122.667969 99.019531 L 100.875 77.230469 C 102.230469 72.75 103.105469 68.09375 103.105469 63.167969 C 103.105469 36.1875 81.207031 14.28125 54.21875 14.28125 Z M 39.96875 40.355469 L 54.21875 55.019531 L 68.894531 40.5625 L 77.03125 48.90625 L 62.375 63.167969 L 76.832031 77.832031 L 68.480469 85.980469 L 54.21875 71.324219 L 39.550781 85.78125 L 31.40625 77.425781 L 46.074219 63.167969 L 31.613281 48.5 Z M 39.96875 40.355469 "/>
</g>
</svg>
