<?xml version="1.0" encoding="UTF-8"?>
<svg xmlns="http://www.w3.org/2000/svg" xmlns:xlink="http://www.w3.org/1999/xlink" width="128" height="128" viewBox="0 0 128 128" version="1.1">
<g id="surface1">
<path style=" stroke:none;fill-rule:nonzero;fill:rgb(100%,100%,100%);fill-opacity:1;" d="M 104 120 L 104 84 L 76 84 Z M 104 120 "/>
<path style=" stroke:none;fill-rule:nonzero;fill:rgb(100%,100%,100%);fill-opacity:1;" d="M 28 8 C 16.921875 8 8 16.921875 8 28 L 8 68 C 8 79.078125 16.921875 88 28 88 L 100 88 C 111.078125 88 120 79.078125 120 68 L 120 28 C 120 16.921875 111.078125 8 100 8 Z M 40 24 L 48 24 C 50.210938 24 52.300781 24.800781 53.75 26.25 L 64 36.5 L 74.25 26.25 C 75.695312 24.808594 77.792969 24.011719 80 24.011719 L 88 24.011719 L 88 32.011719 C 88 34.21875 87.199219 36.3125 85.75 37.761719 L 75.503906 48 L 85.753906 58.25 C 87.199219 59.699219 88.003906 61.789062 88.003906 64 L 88.003906 72 L 80.003906 72 C 77.792969 72 75.699219 71.199219 74.253906 69.75 L 64.003906 59.5 L 53.753906 69.75 C 52.304688 71.191406 50.210938 71.988281 48 71.988281 L 40 71.988281 L 40 63.988281 C 40 61.78125 40.804688 59.6875 42.25 58.238281 L 52.507812 48 L 42.25 37.757812 C 40.804688 36.320312 40.003906 34.238281 40.003906 32 L 40.003906 24 Z M 40 24 "/>
</g>
</svg>
