<?xml version="1.0" encoding="UTF-8"?>
<svg xmlns="http://www.w3.org/2000/svg" xmlns:xlink="http://www.w3.org/1999/xlink" width="128" height="128" viewBox="0 0 128 128" version="1.1">
<g id="surface1">
<path style=" stroke:none;fill-rule:nonzero;fill:rgb(74.509804%,74.509804%,74.509804%);fill-opacity:1;" d="M 78.238281 40 C 75.253906 40.542969 72.832031 42.722656 71.984375 45.636719 C 71.136719 48.550781 72.011719 51.691406 74.238281 53.75 L 90.238281 69.75 L 95.988281 75.25 L 101.738281 69.75 L 117.738281 53.75 C 119.824219 51.703125 120.644531 48.695312 119.898438 45.871094 C 119.148438 43.046875 116.945312 40.839844 114.121094 40.09375 C 111.296875 39.34375 108.289062 40.167969 106.238281 42.25 L 96 52.492188 L 85.761719 42.25 C 83.816406 40.242188 80.964844 39.390625 78.238281 40.011719 Z M 78.238281 40 "/>
<path style=" stroke:none;fill-rule:nonzero;fill:rgb(74.509804%,74.509804%,74.509804%);fill-opacity:1;" d="M 48 8 C 34.84375 8 24 18.84375 24 32 L 24 96 C 24 109.15625 34.84375 120 48 120 L 80 120 L 80 104 L 48 104 C 43.429688 104 40 100.570312 40 96 L 40 32 C 40 27.429688 43.429688 24 48 24 L 80 24 C 84.570312 24 88 27.429688 88 32 L 88 64 L 104 64 L 104 32 C 104 18.84375 93.15625 8 80 8 Z M 48 8 "/>
<path style=" stroke:none;fill-rule:nonzero;fill:rgb(74.509804%,74.509804%,74.509804%);fill-opacity:1;" d="M 72 48 L 72 40 L 80 40 L 80 48 Z M 72 48 "/>
<path style=" stroke:none;fill-rule:nonzero;fill:rgb(74.509804%,74.509804%,74.509804%);fill-opacity:1;" d="M 112 48 L 112 40 L 120 40 L 120 48 Z M 112 48 "/>
<path style=" stroke:none;fill-rule:nonzero;fill:rgb(100%,100%,100%);fill-opacity:1;" d="M 42.875 119.148438 C 35.796875 117.613281 29.875 112.800781 26.53125 105.871094 L 24.570312 101.804688 L 24.570312 26.414062 L 25.785156 23.429688 C 28.242188 17.410156 33.476562 12.179688 39.484375 9.734375 C 42.355469 8.570312 43.21875 8.519531 62.699219 8.355469 C 80.203125 8.207031 83.347656 8.304688 86.023438 9.074219 C 90.6875 10.421875 94.042969 12.46875 97.242188 15.921875 C 102.492188 21.597656 103.996094 26.621094 104.015625 38.59375 L 104.027344 44.804688 L 106.0625 42.824219 C 108.421875 40.523438 110.757812 39.898438 116.09375 40.132812 L 119.757812 40.292969 L 119.757812 45.175781 C 119.757812 48.375 119.488281 50.566406 118.976562 51.523438 C 118.550781 52.332031 113.195312 57.980469 107.070312 64.078125 L 95.941406 75.167969 L 84.75 64.078125 C 78.597656 57.980469 73.21875 52.332031 72.796875 51.523438 C 72.296875 50.578125 72.027344 48.335938 72.027344 45.152344 L 72.027344 40.242188 L 75.6875 40.164062 C 82.472656 40.011719 83.476562 40.304688 86.804688 43.398438 L 88.296875 44.785156 L 88.285156 37.769531 C 88.273438 29.65625 87.4375 26.933594 84.398438 25.058594 C 82.667969 23.996094 81.90625 23.960938 63.492188 24.101562 L 44.382812 24.242188 L 42.339844 26.289062 L 40.296875 28.328125 L 40.152344 63.476562 L 40.003906 98.625 L 41.246094 100.484375 C 43.683594 104.132812 44.3125 104.242188 62.941406 104.242188 L 79.621094 104.242188 L 79.621094 119.972656 L 62.941406 119.929688 C 51.066406 119.898438 45.289062 119.675781 42.875 119.148438 Z M 42.875 119.148438 "/>
</g>
</svg>
