<?xml version="1.0" encoding="UTF-8"?>
<svg xmlns="http://www.w3.org/2000/svg" xmlns:xlink="http://www.w3.org/1999/xlink" width="128" height="128" viewBox="0 0 128 128" version="1.1">
<g id="surface1">
<path style=" stroke:none;fill-rule:nonzero;fill:rgb(100%,100%,100%);fill-opacity:1;" d="M 14.238281 40 C 11.253906 40.542969 8.832031 42.722656 7.984375 45.636719 C 7.136719 48.550781 8.011719 51.691406 10.238281 53.75 L 26.238281 69.75 L 31.988281 75.25 L 37.738281 69.75 L 53.738281 53.75 C 55.824219 51.703125 56.644531 48.695312 55.898438 45.871094 C 55.148438 43.046875 52.945312 40.839844 50.121094 40.09375 C 47.296875 39.34375 44.289062 40.167969 42.238281 42.25 L 32 52.492188 L 21.761719 42.25 C 19.816406 40.242188 16.964844 39.390625 14.238281 40.011719 Z M 14.238281 40 "/>
<path style=" stroke:none;fill-rule:nonzero;fill:rgb(100%,100%,100%);fill-opacity:1;" d="M 48 8 C 34.84375 8 24 18.84375 24 32 L 24 64 L 40 64 L 40 32 C 40 27.429688 43.429688 24 48 24 L 80 24 C 84.570312 24 88 27.429688 88 32 L 88 96 C 88 100.570312 84.570312 104 80 104 L 48 104 L 48 120 L 80 120 C 93.15625 120 104 109.15625 104 96 L 104 32 C 104 18.84375 93.15625 8 80 8 Z M 48 8 "/>
<path style=" stroke:none;fill-rule:nonzero;fill:rgb(100%,100%,100%);fill-opacity:1;" d="M 56 48 L 56 40 L 48 40 L 48 48 Z M 56 48 "/>
<path style=" stroke:none;fill-rule:nonzero;fill:rgb(100%,100%,100%);fill-opacity:1;" d="M 16 48 L 16 40 L 8 40 L 8 48 Z M 16 48 "/>
</g>
</svg>
