<?xml version="1.0" encoding="UTF-8"?>
<svg xmlns="http://www.w3.org/2000/svg" xmlns:xlink="http://www.w3.org/1999/xlink" width="128" height="128" viewBox="0 0 128 128" version="1.1">
<g id="surface1">
<path style=" stroke:none;fill-rule:nonzero;fill:rgb(74.509804%,74.509804%,74.509804%);fill-opacity:1;" d="M 75.921875 8 C 65.707031 8 57.410156 15.785156 56.277344 25.75 C 53.71875 24.789062 51.078125 23.992188 48.121094 23.992188 C 34.9375 23.992188 24.253906 34.734375 24.253906 47.992188 C 24.253906 48.777344 24.425781 49.472656 24.5 50.242188 C 22.101562 48.800781 19.300781 48 16.261719 48 C 7.472656 48 0.347656 55.164062 0.347656 64 C 0.347656 72.835938 7.472656 80 16.261719 80 L 19.242188 80 C 20.558594 77.183594 22.175781 74.550781 24.464844 72.25 L 44.105469 52.5 L 63.746094 72.25 C 66.011719 74.527344 67.460938 77.210938 68.71875 80 L 72.449219 80 L 83.882812 68.5 L 95.320312 80 L 115.707031 80 C 122.296875 80 127.640625 74.628906 127.640625 68 C 127.640625 61.371094 122.296875 56 115.707031 56 C 114.058594 56 112.410156 56.394531 110.980469 57 C 111.402344 55.386719 111.726562 53.746094 111.726562 52 C 111.726562 42.164062 104.621094 34.175781 95.316406 32.5 C 95.652344 31.050781 95.816406 29.554688 95.816406 28 C 95.816406 16.953125 86.910156 8 75.925781 8 Z M 75.921875 8 "/>
<path style=" stroke:none;fill-rule:nonzero;fill:rgb(0%,100%,100%);fill-opacity:1;" d="M 44 63.28125 L 41.25 66.28125 L 29.75 77.53125 C 21.972656 85.304688 21.972656 98.003906 29.75 105.777344 C 37.527344 113.554688 50.472656 113.554688 58.25 105.777344 C 66.027344 98.003906 66.027344 85.304688 58.25 77.53125 L 46.75 66.28125 Z M 44 74.53125 L 52.5 83.28125 C 57.21875 88 57.21875 95.558594 52.5 100.28125 C 47.78125 105 40.21875 105 35.5 100.28125 L 35.5 100.03125 C 30.957031 95.300781 30.839844 87.941406 35.5 83.28125 L 43.980469 74.398438 Z M 44 74.53125 "/>
<path style=" stroke:none;fill-rule:nonzero;fill:rgb(0%,100%,100%);fill-opacity:1;" d="M 84 79.28125 L 81.25 82.28125 L 69.75 93.53125 C 61.972656 101.304688 61.972656 114.003906 69.75 121.777344 C 77.527344 129.554688 90.472656 129.554688 98.25 121.777344 C 106.027344 114.003906 106.027344 101.304688 98.25 93.53125 L 86.75 82.28125 Z M 84 90.53125 L 92.5 99.28125 C 97.21875 104 97.21875 111.558594 92.5 116.28125 C 87.78125 121 80.21875 121 75.5 116.28125 L 75.5 116.03125 C 70.957031 111.300781 70.839844 103.941406 75.5 99.28125 L 83.980469 90.398438 Z M 84 90.53125 "/>
</g>
</svg>
