<?xml version="1.0" encoding="UTF-8"?>
<svg xmlns="http://www.w3.org/2000/svg" xmlns:xlink="http://www.w3.org/1999/xlink" width="128" height="128" viewBox="0 0 128 128" version="1.1">
<g id="surface1">
<path style=" stroke:none;fill-rule:nonzero;fill:rgb(74.509804%,74.509804%,74.509804%);fill-opacity:1;" d="M 76 16 C 65.730469 16 57.386719 23.785156 56.25 33.75 C 53.609375 32.789062 50.96875 31.992188 48.007812 31.992188 C 34.753906 31.992188 24.007812 42.734375 24.007812 55.992188 C 24.007812 56.777344 24.1875 57.472656 24.257812 58.242188 C 21.859375 56.800781 18.980469 56 16.019531 56 C 7.183594 56 0.0195312 63.164062 0.0195312 72 C 0.0195312 80.835938 7.183594 88 16.019531 88 L 56.019531 88 L 56.019531 71 C 56.019531 62.917969 62.9375 56 71.019531 56 L 111.519531 56 C 109.847656 48.113281 103.527344 41.933594 95.519531 40.5 C 95.855469 39.050781 96.019531 37.554688 96.019531 36 C 96.019531 24.953125 87.066406 16 76.019531 16 Z M 76 16 "/>
<path style=" stroke:none;fill-rule:nonzero;fill:rgb(96.078431%,47.45098%,0%);fill-opacity:1;" d="M 71.039062 64 C 67.101562 64 64.039062 67.058594 64.039062 71 L 64.039062 121 C 64.039062 124.941406 67.101562 128 71.039062 128 L 121.039062 128 C 124.980469 128 128.039062 124.941406 128.039062 121 L 128.039062 71 C 128.039062 67.058594 124.980469 64 121.039062 64 Z M 88.039062 72 L 104.039062 72 L 104.039062 104 L 88.039062 104 Z M 88.039062 112 L 104.039062 112 L 104.039062 120 L 88.039062 120 Z M 88.039062 112 "/>
</g>
</svg>
