<?xml version="1.0" encoding="UTF-8"?>
<svg xmlns="http://www.w3.org/2000/svg" xmlns:xlink="http://www.w3.org/1999/xlink" width="16" height="16" viewBox="0 0 16 16" version="1.1">
<g id="surface1">
<path style=" stroke:none;fill-rule:nonzero;fill:rgb(100%,100%,100%);fill-opacity:1;" d="M 10.300781 0.667969 C 9.835938 0.667969 9.476562 0.667969 9.332031 0.675781 C 8.769531 0.710938 8.488281 1.0625 8.375 1.582031 C 8.359375 1.84375 8.375 6.167969 8.375 6.167969 C 8.375 6.699219 8.800781 7.136719 9.332031 7.136719 L 14.363281 7.136719 C 14.898438 7.136719 15.324219 6.699219 15.324219 6.167969 C 15.324219 5.632812 15.386719 1.652344 15.25 1.292969 C 15.113281 0.929688 14.777344 0.675781 14.363281 0.675781 C 14.054688 0.675781 11.699219 0.664062 10.300781 0.667969 Z M 9.675781 1.425781 L 14.011719 1.425781 C 14.320312 1.425781 14.574219 1.671875 14.574219 1.980469 L 14.574219 5.832031 C 14.574219 6.140625 14.320312 6.386719 14.011719 6.386719 L 9.675781 6.386719 C 9.367188 6.386719 9.113281 6.140625 9.113281 5.832031 L 9.113281 1.980469 C 9.113281 1.671875 9.367188 1.425781 9.675781 1.425781 Z M 2.21875 8.21875 C 1.945312 8.210938 1.675781 8.289062 1.425781 8.449219 C 1.074219 8.671875 0.855469 9.023438 0.792969 9.40625 C 0.734375 9.519531 0.695312 9.644531 0.667969 9.78125 C 0.660156 9.910156 0.664062 11.023438 0.667969 12.113281 C 0.667969 12.136719 0.667969 12.140625 0.667969 12.167969 C 0.667969 13.28125 0.667969 14.363281 0.667969 14.363281 C 0.667969 14.898438 1.101562 15.332031 1.636719 15.332031 L 6.65625 15.332031 C 7.097656 15.332031 7.460938 15.03125 7.574219 14.625 C 7.992188 14.335938 8.109375 13.765625 7.832031 13.332031 C 7.773438 13.242188 7.703125 13.167969 7.625 13.105469 C 7.640625 11.742188 7.65625 9.757812 7.550781 9.488281 C 7.414062 9.128906 7.070312 8.875 6.65625 8.875 C 6.40625 8.875 4.710938 8.867188 3.375 8.863281 C 3.109375 8.460938 2.671875 8.230469 2.21875 8.21875 Z M 1.96875 9.625 L 6.300781 9.625 C 6.609375 9.625 6.863281 9.867188 6.863281 10.175781 L 6.863281 14.03125 C 6.863281 14.339844 6.609375 14.582031 6.300781 14.582031 L 1.96875 14.582031 C 1.660156 14.582031 1.40625 14.339844 1.40625 14.03125 L 1.40625 10.175781 C 1.40625 9.867188 1.660156 9.625 1.96875 9.625 Z M 12.863281 10.738281 C 12.800781 10.742188 12.746094 10.75 12.6875 10.78125 C 12.449219 10.898438 12.339844 11.1875 12.457031 11.425781 C 12.574219 11.664062 12.867188 11.761719 13.105469 11.644531 C 13.34375 11.527344 13.441406 11.25 13.324219 11.011719 C 13.234375 10.832031 13.050781 10.730469 12.863281 10.738281 Z M 10.375 12.6875 C 10.246094 12.683594 10.109375 12.726562 9.988281 12.800781 C 9.671875 13.003906 9.578125 13.421875 9.78125 13.738281 C 9.984375 14.054688 10.402344 14.140625 10.71875 13.9375 C 11.035156 13.734375 11.128906 13.316406 10.925781 13 C 10.800781 12.804688 10.59375 12.695312 10.375 12.6875 Z M 10.375 12.6875 "/>
</g>
</svg>
