<?xml version="1.0" encoding="UTF-8"?>
<svg xmlns="http://www.w3.org/2000/svg" xmlns:xlink="http://www.w3.org/1999/xlink" width="16" height="16" viewBox="0 0 16 16" version="1.1">
<g id="surface1">
<path style=" stroke:none;fill-rule:nonzero;fill:rgb(100%,100%,100%);fill-opacity:1;" d="M 7.261719 0.582031 C 7.074219 0.585938 6.886719 0.617188 6.707031 0.699219 C 5.988281 1.011719 5.664062 1.855469 5.980469 2.574219 C 6.292969 3.292969 7.125 3.617188 7.84375 3.300781 C 8.0625 3.207031 8.234375 3.058594 8.375 2.886719 C 8.375 4.234375 8.375 6.167969 8.375 6.167969 C 8.375 6.699219 8.800781 7.136719 9.332031 7.136719 L 14.363281 7.136719 C 14.898438 7.136719 15.324219 6.699219 15.324219 6.167969 C 15.324219 5.632812 15.386719 1.652344 15.25 1.292969 C 15.113281 0.929688 14.777344 0.675781 14.363281 0.675781 C 14.054688 0.675781 11.699219 0.664062 10.300781 0.667969 C 9.835938 0.667969 9.476562 0.667969 9.332031 0.675781 C 8.898438 0.703125 8.628906 0.917969 8.480469 1.25 C 8.210938 0.828125 7.746094 0.578125 7.261719 0.582031 Z M 9.675781 1.425781 L 14.011719 1.425781 C 14.320312 1.425781 14.574219 1.671875 14.574219 1.980469 L 14.574219 5.832031 C 14.574219 6.140625 14.320312 6.386719 14.011719 6.386719 L 9.675781 6.386719 C 9.367188 6.386719 9.113281 6.140625 9.113281 5.832031 L 9.113281 1.980469 C 9.113281 1.671875 9.367188 1.425781 9.675781 1.425781 Z M 4.207031 2.167969 C 4.054688 2.167969 3.898438 2.195312 3.75 2.261719 C 3.15625 2.519531 2.886719 3.21875 3.144531 3.8125 C 3.40625 4.40625 4.09375 4.675781 4.6875 4.417969 C 5.28125 4.15625 5.5625 3.457031 5.300781 2.863281 C 5.105469 2.417969 4.664062 2.160156 4.207031 2.167969 Z M 2.363281 5.175781 C 2.242188 5.179688 2.109375 5.207031 1.988281 5.261719 C 1.507812 5.472656 1.289062 6.039062 1.5 6.519531 C 1.710938 7.003906 2.277344 7.222656 2.761719 7.011719 C 3.242188 6.796875 3.460938 6.234375 3.25 5.75 C 3.089844 5.386719 2.738281 5.171875 2.363281 5.175781 Z M 2.324219 8.8125 C 2.238281 8.8125 2.15625 8.839844 2.074219 8.875 C 2.070312 8.875 2.066406 8.875 2.0625 8.875 C 1.925781 8.875 1.699219 8.871094 1.636719 8.875 C 1.070312 8.90625 0.777344 9.261719 0.667969 9.78125 C 0.660156 9.910156 0.664062 11.023438 0.667969 12.113281 C 0.667969 12.136719 0.667969 12.140625 0.667969 12.167969 C 0.667969 13.28125 0.667969 14.363281 0.667969 14.363281 C 0.667969 14.898438 1.101562 15.332031 1.636719 15.332031 L 6.65625 15.332031 C 7.1875 15.332031 7.613281 14.898438 7.613281 14.363281 C 7.613281 13.832031 7.691406 9.851562 7.550781 9.488281 C 7.414062 9.128906 7.070312 8.875 6.65625 8.875 C 6.347656 8.875 3.988281 8.859375 2.59375 8.863281 C 2.507812 8.828125 2.414062 8.8125 2.324219 8.8125 Z M 1.96875 9.625 L 6.300781 9.625 C 6.609375 9.625 6.863281 9.867188 6.863281 10.175781 L 6.863281 14.03125 C 6.863281 14.339844 6.609375 14.582031 6.300781 14.582031 L 1.96875 14.582031 C 1.660156 14.582031 1.40625 14.339844 1.40625 14.03125 L 1.40625 10.175781 C 1.40625 9.867188 1.660156 9.625 1.96875 9.625 Z M 1.96875 9.625 "/>
</g>
</svg>
