<?xml version="1.0" encoding="UTF-8"?>
<svg xmlns="http://www.w3.org/2000/svg" xmlns:xlink="http://www.w3.org/1999/xlink" width="16" height="16" viewBox="0 0 16 16" version="1.1">
<g id="surface1">
<path style=" stroke:none;fill-rule:nonzero;fill:rgb(100%,100%,100%);fill-opacity:1;" d="M 10.300781 0.667969 C 9.835938 0.667969 9.476562 0.667969 9.332031 0.675781 C 8.769531 0.710938 8.488281 1.0625 8.375 1.582031 C 8.359375 1.84375 8.375 6.167969 8.375 6.167969 C 8.375 6.699219 8.800781 7.136719 9.332031 7.136719 L 14.363281 7.136719 C 14.898438 7.136719 15.324219 6.699219 15.324219 6.167969 C 15.324219 5.632812 15.386719 1.652344 15.25 1.292969 C 15.113281 0.929688 14.777344 0.675781 14.363281 0.675781 C 14.054688 0.675781 11.699219 0.664062 10.300781 0.667969 Z M 9.675781 1.425781 L 14.011719 1.425781 C 14.320312 1.425781 14.574219 1.671875 14.574219 1.980469 L 14.574219 5.832031 C 14.574219 6.140625 14.320312 6.386719 14.011719 6.386719 L 9.675781 6.386719 C 9.367188 6.386719 9.113281 6.140625 9.113281 5.832031 L 9.113281 1.980469 C 9.113281 1.671875 9.367188 1.425781 9.675781 1.425781 Z M 9.863281 2.167969 L 9.863281 5.644531 L 13.824219 5.644531 L 13.824219 2.167969 Z M 13.78125 7.574219 C 13.410156 7.613281 13.144531 7.949219 13.1875 8.324219 C 13.230469 8.695312 13.566406 8.957031 13.9375 8.917969 C 14.308594 8.875 14.574219 8.550781 14.53125 8.175781 C 14.488281 7.804688 14.152344 7.53125 13.78125 7.574219 Z M 2.59375 8.863281 C 2.128906 8.867188 1.777344 8.867188 1.636719 8.875 C 1.070312 8.90625 0.777344 9.261719 0.667969 9.78125 C 0.660156 9.910156 0.664062 11.023438 0.667969 12.113281 C 0.667969 12.136719 0.667969 12.140625 0.667969 12.167969 C 0.667969 13.28125 0.667969 14.363281 0.667969 14.363281 C 0.667969 14.898438 1.101562 15.332031 1.636719 15.332031 L 6.65625 15.332031 C 6.789062 15.359375 6.929688 15.371094 7.074219 15.355469 C 7.851562 15.265625 8.421875 14.5625 8.332031 13.78125 C 8.28125 13.316406 8.003906 12.9375 7.625 12.71875 C 7.636719 11.351562 7.644531 9.730469 7.550781 9.488281 C 7.414062 9.128906 7.070312 8.875 6.65625 8.875 C 6.347656 8.875 3.988281 8.859375 2.59375 8.863281 Z M 1.96875 9.625 L 6.300781 9.625 C 6.609375 9.625 6.863281 9.867188 6.863281 10.175781 L 6.863281 14.03125 C 6.863281 14.339844 6.609375 14.582031 6.300781 14.582031 L 1.96875 14.582031 C 1.660156 14.582031 1.40625 14.339844 1.40625 14.03125 L 1.40625 10.175781 C 1.40625 9.867188 1.660156 9.625 1.96875 9.625 Z M 2.15625 10.363281 L 2.15625 13.84375 L 6.125 13.84375 L 6.125 10.363281 Z M 12.707031 10.488281 C 12.183594 10.546875 11.816406 11.027344 11.875 11.550781 C 11.933594 12.078125 12.402344 12.453125 12.925781 12.394531 C 13.453125 12.335938 13.828125 11.859375 13.769531 11.332031 C 13.710938 10.808594 13.234375 10.429688 12.707031 10.488281 Z M 10.332031 12.394531 C 10.257812 12.386719 10.183594 12.398438 10.105469 12.40625 C 9.460938 12.480469 8.988281 13.054688 9.0625 13.699219 C 9.136719 14.34375 9.71875 14.8125 10.363281 14.738281 C 11.007812 14.667969 11.46875 14.082031 11.394531 13.4375 C 11.332031 12.875 10.875 12.445312 10.332031 12.394531 Z M 10.332031 12.394531 "/>
</g>
</svg>
