<?xml version="1.0" encoding="UTF-8"?>
<svg xmlns="http://www.w3.org/2000/svg" xmlns:xlink="http://www.w3.org/1999/xlink" width="16" height="16" viewBox="0 0 16 16" version="1.1">
<g id="surface1">
<path style=" stroke:none;fill-rule:nonzero;fill:rgb(100%,100%,100%);fill-opacity:1;" d="M 10.300781 0.667969 C 9.835938 0.667969 9.476562 0.667969 9.332031 0.675781 C 8.769531 0.710938 8.488281 1.0625 8.375 1.582031 C 8.359375 1.84375 8.375 6.167969 8.375 6.167969 C 8.375 6.699219 8.800781 7.136719 9.332031 7.136719 L 14.363281 7.136719 C 14.898438 7.136719 15.324219 6.699219 15.324219 6.167969 C 15.324219 5.632812 15.386719 1.652344 15.25 1.292969 C 15.113281 0.929688 14.777344 0.675781 14.363281 0.675781 C 14.054688 0.675781 11.699219 0.664062 10.300781 0.667969 Z M 9.675781 1.425781 L 14.011719 1.425781 C 14.320312 1.425781 14.574219 1.671875 14.574219 1.980469 L 14.574219 5.832031 C 14.574219 6.140625 14.320312 6.386719 14.011719 6.386719 L 9.675781 6.386719 C 9.367188 6.386719 9.113281 6.140625 9.113281 5.832031 L 9.113281 1.980469 C 9.113281 1.671875 9.367188 1.425781 9.675781 1.425781 Z M 7.386719 1.6875 C 7.234375 1.710938 7.09375 1.808594 7.019531 1.957031 C 6.90625 2.199219 7.007812 2.492188 7.25 2.605469 C 7.492188 2.71875 7.78125 2.617188 7.894531 2.375 C 8.007812 2.132812 7.898438 1.84375 7.65625 1.730469 C 7.566406 1.6875 7.476562 1.671875 7.386719 1.6875 Z M 13.90625 7.1875 C 13.449219 7.21875 13.03125 7.519531 12.875 7.980469 C 12.667969 8.59375 13 9.261719 13.613281 9.46875 C 14.226562 9.675781 14.894531 9.34375 15.105469 8.730469 C 15.3125 8.117188 14.976562 7.449219 14.363281 7.238281 C 14.210938 7.1875 14.058594 7.175781 13.90625 7.1875 Z M 2.59375 8.863281 C 2.128906 8.867188 1.777344 8.867188 1.636719 8.875 C 1.070312 8.90625 0.777344 9.261719 0.667969 9.78125 C 0.652344 10.042969 0.667969 14.363281 0.667969 14.363281 C 0.667969 14.898438 1.101562 15.332031 1.636719 15.332031 L 6.65625 15.332031 C 7.1875 15.332031 7.613281 14.898438 7.613281 14.363281 C 7.613281 13.832031 7.691406 9.851562 7.550781 9.488281 C 7.414062 9.128906 7.070312 8.875 6.65625 8.875 C 6.347656 8.875 3.988281 8.859375 2.59375 8.863281 Z M 1.96875 9.625 L 6.300781 9.625 C 6.609375 9.625 6.863281 9.867188 6.863281 10.175781 L 6.863281 14.03125 C 6.863281 14.339844 6.609375 14.582031 6.300781 14.582031 L 1.96875 14.582031 C 1.660156 14.582031 1.40625 14.339844 1.40625 14.03125 L 1.40625 10.175781 C 1.40625 9.867188 1.660156 9.625 1.96875 9.625 Z M 12.8125 10.09375 C 12.261719 10.132812 11.761719 10.496094 11.574219 11.050781 C 11.320312 11.792969 11.714844 12.601562 12.457031 12.855469 C 13.199219 13.105469 14.007812 12.710938 14.261719 11.96875 C 14.511719 11.226562 14.117188 10.417969 13.375 10.167969 C 13.1875 10.101562 12.996094 10.082031 12.8125 10.09375 Z M 12.8125 10.09375 "/>
</g>
</svg>
