<?xml version="1.0" encoding="UTF-8"?>
<svg xmlns="http://www.w3.org/2000/svg" xmlns:xlink="http://www.w3.org/1999/xlink" width="16" height="16" viewBox="0 0 16 16" version="1.1">
<g id="surface1">
<path style=" stroke:none;fill-rule:nonzero;fill:rgb(100%,100%,100%);fill-opacity:1;" d="M 10.300781 0.667969 C 9.835938 0.667969 9.476562 0.667969 9.332031 0.675781 C 8.769531 0.710938 8.488281 1.0625 8.375 1.582031 C 8.359375 1.84375 8.375 6.167969 8.375 6.167969 C 8.375 6.699219 8.800781 7.136719 9.332031 7.136719 L 14.363281 7.136719 C 14.898438 7.136719 15.324219 6.699219 15.324219 6.167969 C 15.324219 5.632812 15.386719 1.652344 15.25 1.292969 C 15.113281 0.929688 14.777344 0.675781 14.363281 0.675781 C 14.054688 0.675781 11.699219 0.664062 10.300781 0.667969 Z M 9.675781 1.425781 L 14.011719 1.425781 C 14.320312 1.425781 14.574219 1.671875 14.574219 1.980469 L 14.574219 5.832031 C 14.574219 6.140625 14.320312 6.386719 14.011719 6.386719 L 9.675781 6.386719 C 9.367188 6.386719 9.113281 6.140625 9.113281 5.832031 L 9.113281 1.980469 C 9.113281 1.671875 9.367188 1.425781 9.675781 1.425781 Z M 13.832031 7.355469 C 13.648438 7.371094 13.464844 7.4375 13.3125 7.5625 C 12.902344 7.894531 12.84375 8.496094 13.175781 8.90625 C 13.507812 9.316406 14.109375 9.382812 14.519531 9.050781 C 14.929688 8.71875 14.988281 8.117188 14.65625 7.707031 C 14.449219 7.453125 14.140625 7.328125 13.832031 7.355469 Z M 2.59375 8.863281 C 2.128906 8.867188 1.777344 8.867188 1.636719 8.875 C 1.070312 8.90625 0.777344 9.261719 0.667969 9.78125 C 0.660156 9.910156 0.664062 11.023438 0.667969 12.113281 C 0.667969 12.136719 0.667969 12.140625 0.667969 12.167969 C 0.667969 13.28125 0.667969 14.363281 0.667969 14.363281 C 0.667969 14.898438 1.101562 15.332031 1.636719 15.332031 L 6.65625 15.332031 C 7.1875 15.332031 7.613281 14.898438 7.613281 14.363281 C 7.613281 13.832031 7.691406 9.851562 7.550781 9.488281 C 7.414062 9.128906 7.070312 8.875 6.65625 8.875 C 6.347656 8.875 3.988281 8.859375 2.59375 8.863281 Z M 1.96875 9.625 L 6.300781 9.625 C 6.609375 9.625 6.863281 9.867188 6.863281 10.175781 L 6.863281 14.03125 C 6.863281 14.339844 6.609375 14.582031 6.300781 14.582031 L 1.96875 14.582031 C 1.660156 14.582031 1.40625 14.339844 1.40625 14.03125 L 1.40625 10.175781 C 1.40625 9.867188 1.660156 9.625 1.96875 9.625 Z M 12.769531 10.324219 C 12.546875 10.34375 12.324219 10.429688 12.136719 10.582031 C 11.632812 10.992188 11.5625 11.726562 11.96875 12.230469 C 12.375 12.734375 13.109375 12.8125 13.613281 12.40625 C 14.117188 12 14.199219 11.253906 13.792969 10.75 C 13.535156 10.433594 13.144531 10.289062 12.769531 10.324219 Z M 10.15625 12.175781 C 9.882812 12.199219 9.625 12.304688 9.394531 12.488281 C 8.785156 12.984375 8.683594 13.878906 9.175781 14.488281 C 9.671875 15.101562 10.566406 15.191406 11.175781 14.699219 C 11.789062 14.203125 11.878906 13.308594 11.386719 12.699219 C 11.078125 12.316406 10.609375 12.136719 10.15625 12.175781 Z M 10.15625 12.175781 "/>
</g>
</svg>
