<?xml version="1.0" encoding="UTF-8"?>
<svg xmlns="http://www.w3.org/2000/svg" xmlns:xlink="http://www.w3.org/1999/xlink" width="16" height="16" viewBox="0 0 16 16" version="1.1">
<g id="surface1">
<path style=" stroke:none;fill-rule:nonzero;fill:rgb(100%,100%,100%);fill-opacity:1;" d="M 10.300781 0.667969 C 9.835938 0.667969 9.476562 0.667969 9.332031 0.675781 C 8.769531 0.710938 8.488281 1.0625 8.375 1.582031 C 8.359375 1.84375 8.375 6.167969 8.375 6.167969 C 8.375 6.699219 8.800781 7.136719 9.332031 7.136719 L 14.363281 7.136719 C 14.898438 7.136719 15.324219 6.699219 15.324219 6.167969 C 15.324219 5.632812 15.386719 1.652344 15.25 1.292969 C 15.113281 0.929688 14.777344 0.675781 14.363281 0.675781 C 14.054688 0.675781 11.699219 0.664062 10.300781 0.667969 Z M 9.675781 1.425781 L 14.011719 1.425781 C 14.320312 1.425781 14.574219 1.671875 14.574219 1.980469 L 14.574219 5.832031 C 14.574219 6.140625 14.320312 6.386719 14.011719 6.386719 L 9.675781 6.386719 C 9.367188 6.386719 9.113281 6.140625 9.113281 5.832031 L 9.113281 1.980469 C 9.113281 1.671875 9.367188 1.425781 9.675781 1.425781 Z M 13.84375 7.644531 C 13.6875 7.652344 13.535156 7.734375 13.449219 7.875 C 13.308594 8.101562 13.378906 8.402344 13.605469 8.542969 C 13.828125 8.683594 14.128906 8.609375 14.269531 8.386719 C 14.410156 8.160156 14.339844 7.859375 14.113281 7.71875 C 14.03125 7.664062 13.9375 7.640625 13.84375 7.644531 Z M 2.59375 8.863281 C 2.128906 8.867188 1.777344 8.867188 1.636719 8.875 C 1.070312 8.90625 0.777344 9.261719 0.667969 9.78125 C 0.652344 10.042969 0.667969 14.363281 0.667969 14.363281 C 0.667969 14.898438 1.101562 15.332031 1.636719 15.332031 L 6.65625 15.332031 C 6.945312 15.332031 7.199219 15.203125 7.375 15 C 7.648438 14.894531 7.886719 14.691406 8.019531 14.40625 C 8.269531 13.878906 8.089844 13.269531 7.625 12.949219 C 7.640625 11.570312 7.652344 9.75 7.550781 9.488281 C 7.414062 9.128906 7.070312 8.875 6.65625 8.875 C 6.347656 8.875 3.988281 8.859375 2.59375 8.863281 Z M 1.96875 9.625 L 6.300781 9.625 C 6.609375 9.625 6.863281 9.867188 6.863281 10.175781 L 6.863281 14.03125 C 6.863281 14.339844 6.609375 14.582031 6.300781 14.582031 L 1.96875 14.582031 C 1.660156 14.582031 1.40625 14.339844 1.40625 14.03125 L 1.40625 10.175781 C 1.40625 9.867188 1.660156 9.625 1.96875 9.625 Z M 12.875 10.625 C 12.609375 10.613281 12.351562 10.757812 12.230469 11.011719 C 12.070312 11.347656 12.214844 11.757812 12.550781 11.917969 C 12.890625 12.078125 13.296875 11.933594 13.457031 11.59375 C 13.617188 11.253906 13.472656 10.847656 13.136719 10.6875 C 13.050781 10.648438 12.960938 10.628906 12.875 10.625 Z M 10.1875 12.511719 C 9.867188 12.542969 9.566406 12.738281 9.417969 13.050781 C 9.191406 13.527344 9.386719 14.105469 9.863281 14.332031 C 10.339844 14.558594 10.917969 14.351562 11.144531 13.875 C 11.371094 13.398438 11.164062 12.832031 10.6875 12.605469 C 10.570312 12.546875 10.445312 12.515625 10.324219 12.511719 C 10.277344 12.507812 10.234375 12.507812 10.1875 12.511719 Z M 10.1875 12.511719 "/>
</g>
</svg>
