<?xml version="1.0" encoding="UTF-8"?>
<svg xmlns="http://www.w3.org/2000/svg" xmlns:xlink="http://www.w3.org/1999/xlink" width="16" height="16" viewBox="0 0 16 16" version="1.1">
<g id="surface1">
<path style=" stroke:none;fill-rule:nonzero;fill:rgb(100%,100%,100%);fill-opacity:1;" d="M 5.414062 2.960938 C 3.894531 2.960938 2.804688 3.871094 2.804688 5.359375 L 2.804688 6.671875 L 2.371094 6.671875 C 1.933594 6.671875 1.71875 6.886719 1.71875 7.324219 L 1.71875 11.035156 C 1.71875 11.25 1.933594 11.6875 2.371094 11.6875 L 8.761719 11.6875 C 9.113281 11.6875 9.332031 11.25 9.332031 11.035156 L 9.332031 7.324219 C 9.332031 6.886719 9.113281 6.667969 8.679688 6.667969 L 8.242188 6.671875 L 8.242188 5.359375 C 8.242188 3.832031 7.15625 2.960938 5.632812 2.960938 Z M 5.414062 4.050781 L 5.632812 4.050781 C 7.15625 4.050781 7.15625 5.359375 7.15625 5.796875 L 7.15625 6.671875 L 3.894531 6.671875 L 3.894531 5.796875 C 3.894531 5.359375 3.894531 4.050781 5.414062 4.050781 Z M 5.414062 4.050781 "/>
</g>
</svg>
