<?xml version="1.0" encoding="UTF-8"?>
<svg xmlns="http://www.w3.org/2000/svg" xmlns:xlink="http://www.w3.org/1999/xlink" width="16" height="16" viewBox="0 0 16 16" version="1.1">
<g id="surface1">
<path style=" stroke:none;fill-rule:nonzero;fill:rgb(100%,100%,100%);fill-opacity:1;" d="M 5.417969 2.957031 C 3.894531 2.957031 2.800781 3.875 2.800781 5.363281 L 2.800781 6.667969 L 2.375 6.667969 C 1.941406 6.667969 1.71875 6.886719 1.71875 7.324219 L 1.71875 11.03125 C 1.71875 11.246094 1.941406 11.6875 2.375 11.6875 L 8.761719 11.6875 C 9.113281 11.683594 9.332031 11.246094 9.332031 11.03125 L 9.332031 7.324219 C 9.332031 6.886719 9.113281 6.667969 8.675781 6.667969 L 8.238281 6.667969 L 8.238281 5.363281 C 8.238281 3.835938 7.15625 2.957031 5.636719 2.957031 Z M 11.738281 3.082031 C 11.4375 3.117188 11.214844 3.386719 11.25 3.6875 C 11.285156 3.988281 11.554688 4.199219 11.855469 4.167969 C 12.152344 4.132812 12.378906 3.863281 12.34375 3.5625 C 12.308594 3.261719 12.039062 3.050781 11.738281 3.082031 Z M 5.417969 4.050781 L 5.636719 4.050781 C 7.15625 4.050781 7.15625 5.355469 7.15625 5.792969 L 7.15625 6.667969 L 3.894531 6.667969 L 3.894531 5.792969 C 3.894531 5.355469 3.894531 4.050781 5.417969 4.050781 Z M 13.375 5.4375 C 12.957031 5.484375 12.660156 5.871094 12.707031 6.292969 C 12.757812 6.710938 13.132812 7.007812 13.550781 6.957031 C 13.972656 6.910156 14.277344 6.535156 14.230469 6.113281 C 14.179688 5.695312 13.792969 5.390625 13.375 5.4375 Z M 13.1875 8.761719 C 12.632812 8.824219 12.230469 9.328125 12.292969 9.886719 C 12.355469 10.441406 12.859375 10.832031 13.417969 10.769531 C 13.972656 10.707031 14.363281 10.210938 14.300781 9.65625 C 14.238281 9.101562 13.742188 8.699219 13.1875 8.761719 Z M 11.28125 11.949219 C 10.585938 11.949219 10.03125 12.511719 10.03125 13.207031 C 10.03125 13.902344 10.585938 14.46875 11.28125 14.46875 C 11.976562 14.46875 12.542969 13.902344 12.542969 13.207031 C 12.542969 12.511719 11.976562 11.949219 11.28125 11.949219 Z M 7.261719 12.53125 C 6.394531 12.628906 5.765625 13.414062 5.863281 14.28125 C 5.960938 15.148438 6.75 15.765625 7.613281 15.667969 C 8.480469 15.570312 9.097656 14.792969 9 13.925781 C 8.902344 13.0625 8.125 12.433594 7.261719 12.53125 Z M 7.261719 12.53125 "/>
</g>
</svg>
