<?xml version="1.0" encoding="UTF-8"?>
<svg xmlns="http://www.w3.org/2000/svg" xmlns:xlink="http://www.w3.org/1999/xlink" width="16" height="16" viewBox="0 0 16 16" version="1.1">
<g id="surface1">
<path style=" stroke:none;fill-rule:nonzero;fill:rgb(100%,100%,100%);fill-opacity:1;" d="M 9.28125 1.800781 C 8.910156 1.84375 8.644531 2.179688 8.6875 2.550781 C 8.730469 2.925781 9.066406 3.199219 9.4375 3.15625 C 9.808594 3.113281 10.074219 2.777344 10.03125 2.40625 C 9.988281 2.035156 9.652344 1.761719 9.28125 1.800781 Z M 7.269531 2.25 C 7.003906 2.25 6.792969 2.464844 6.792969 2.730469 C 6.792969 2.996094 7.003906 3.207031 7.269531 3.207031 C 7.535156 3.207031 7.761719 2.996094 7.761719 2.730469 C 7.761719 2.464844 7.535156 2.25 7.269531 2.25 Z M 11.6875 2.675781 C 11.164062 2.734375 10.785156 3.203125 10.84375 3.730469 C 10.902344 4.253906 11.382812 4.632812 11.90625 4.574219 C 12.429688 4.515625 12.808594 4.046875 12.75 3.519531 C 12.691406 2.996094 12.210938 2.617188 11.6875 2.675781 Z M 5.417969 2.957031 C 3.894531 2.957031 2.800781 3.875 2.800781 5.363281 L 2.800781 6.667969 L 2.375 6.667969 C 1.941406 6.667969 1.71875 6.886719 1.71875 7.324219 L 1.71875 11.03125 C 1.71875 11.246094 1.941406 11.6875 2.375 11.6875 L 8.761719 11.6875 C 9.113281 11.683594 9.332031 11.246094 9.332031 11.03125 L 9.332031 7.324219 C 9.332031 6.886719 9.113281 6.667969 8.675781 6.667969 L 8.238281 6.667969 L 8.238281 5.363281 C 8.238281 3.835938 7.15625 2.957031 5.636719 2.957031 Z M 5.417969 4.050781 L 5.636719 4.050781 C 7.15625 4.050781 7.15625 5.355469 7.15625 5.792969 L 7.15625 6.667969 L 3.894531 6.667969 L 3.894531 5.792969 C 3.894531 5.355469 3.894531 4.050781 5.417969 4.050781 Z M 13.332031 5.03125 C 12.6875 5.105469 12.230469 5.6875 12.300781 6.332031 C 12.375 6.976562 12.949219 7.4375 13.59375 7.363281 C 14.238281 7.292969 14.707031 6.71875 14.636719 6.074219 C 14.5625 5.429688 13.976562 4.957031 13.332031 5.03125 Z M 13.144531 8.355469 C 12.367188 8.441406 11.796875 9.148438 11.886719 9.925781 C 11.972656 10.707031 12.679688 11.265625 13.457031 11.175781 C 14.238281 11.089844 14.796875 10.382812 14.707031 9.605469 C 14.621094 8.824219 13.925781 8.265625 13.144531 8.355469 Z M 13.144531 8.355469 "/>
</g>
</svg>
