<?xml version="1.0" encoding="UTF-8"?>
<svg xmlns="http://www.w3.org/2000/svg" xmlns:xlink="http://www.w3.org/1999/xlink" width="16" height="16" viewBox="0 0 16 16" version="1.1">
<g id="surface1">
<path style=" stroke:none;fill-rule:nonzero;fill:rgb(100%,100%,100%);fill-opacity:1;" d="M 5.417969 2.957031 C 3.894531 2.957031 2.800781 3.875 2.800781 5.363281 L 2.800781 6.667969 L 2.375 6.667969 C 1.941406 6.667969 1.71875 6.886719 1.71875 7.324219 L 1.71875 11.03125 C 1.71875 11.246094 1.941406 11.6875 2.375 11.6875 L 2.949219 11.6875 C 3.113281 12.394531 3.773438 12.886719 4.511719 12.800781 C 5.136719 12.730469 5.613281 12.265625 5.75 11.6875 L 8.761719 11.6875 C 9.113281 11.683594 9.332031 11.246094 9.332031 11.03125 L 9.332031 7.324219 C 9.332031 6.886719 9.113281 6.667969 8.675781 6.667969 L 8.238281 6.667969 L 8.238281 5.363281 C 8.238281 3.835938 7.15625 2.957031 5.636719 2.957031 Z M 5.417969 4.050781 L 5.636719 4.050781 C 7.15625 4.050781 7.15625 5.355469 7.15625 5.792969 L 7.15625 6.667969 L 3.894531 6.667969 L 3.894531 5.792969 C 3.894531 5.355469 3.894531 4.050781 5.417969 4.050781 Z M 13.25 9.292969 C 12.988281 9.320312 12.792969 9.558594 12.824219 9.824219 C 12.851562 10.085938 13.089844 10.28125 13.355469 10.25 C 13.617188 10.21875 13.8125 9.980469 13.78125 9.71875 C 13.75 9.457031 13.511719 9.261719 13.25 9.292969 Z M 11.28125 12.480469 C 10.878906 12.480469 10.5625 12.804688 10.5625 13.207031 C 10.5625 13.609375 10.878906 13.9375 11.28125 13.9375 C 11.683594 13.9375 12.011719 13.609375 12.011719 13.207031 C 12.011719 12.804688 11.683594 12.480469 11.28125 12.480469 Z M 7.519531 13.09375 C 7.453125 13.085938 7.390625 13.097656 7.324219 13.105469 C 6.769531 13.167969 6.375 13.65625 6.4375 14.207031 C 6.5 14.761719 6.988281 15.15625 7.542969 15.09375 C 8.09375 15.03125 8.5 14.542969 8.4375 13.988281 C 8.382812 13.507812 7.984375 13.136719 7.519531 13.09375 Z M 7.519531 13.09375 "/>
</g>
</svg>
