<?xml version="1.0" encoding="UTF-8"?>
<svg xmlns="http://www.w3.org/2000/svg" xmlns:xlink="http://www.w3.org/1999/xlink" width="16" height="16" viewBox="0 0 16 16" version="1.1">
<g id="surface1">
<path style=" stroke:none;fill-rule:nonzero;fill:rgb(100%,100%,100%);fill-opacity:1;" d="M 9.269531 1.71875 C 8.855469 1.765625 8.558594 2.144531 8.605469 2.5625 C 8.652344 2.980469 9.019531 3.277344 9.4375 3.230469 C 9.855469 3.183594 10.160156 2.8125 10.113281 2.394531 C 10.066406 1.980469 9.6875 1.671875 9.269531 1.71875 Z M 7.269531 2.25 C 7.003906 2.25 6.792969 2.464844 6.792969 2.730469 C 6.792969 2.996094 7.003906 3.207031 7.269531 3.207031 C 7.535156 3.207031 7.761719 2.996094 7.761719 2.730469 C 7.761719 2.464844 7.535156 2.25 7.269531 2.25 Z M 11.667969 2.46875 C 11.03125 2.539062 10.574219 3.125 10.644531 3.761719 C 10.71875 4.398438 11.289062 4.851562 11.925781 4.78125 C 12.5625 4.710938 13.019531 4.136719 12.949219 3.5 C 12.875 2.863281 12.304688 2.398438 11.667969 2.46875 Z M 5.417969 2.957031 C 3.894531 2.957031 2.800781 3.875 2.800781 5.363281 L 2.800781 6.667969 L 2.375 6.667969 C 1.941406 6.667969 1.71875 6.886719 1.71875 7.324219 L 1.71875 11.03125 C 1.71875 11.246094 1.941406 11.6875 2.375 11.6875 L 8.761719 11.6875 C 9.113281 11.683594 9.332031 11.246094 9.332031 11.03125 L 9.332031 7.324219 C 9.332031 6.886719 9.113281 6.667969 8.675781 6.667969 L 8.238281 6.667969 L 8.238281 5.363281 C 8.238281 3.835938 7.15625 2.957031 5.636719 2.957031 Z M 5.417969 4.050781 L 5.636719 4.050781 C 7.15625 4.050781 7.15625 5.355469 7.15625 5.792969 L 7.15625 6.667969 L 3.894531 6.667969 L 3.894531 5.792969 C 3.894531 5.355469 3.894531 4.050781 5.417969 4.050781 Z M 13.300781 4.792969 C 12.523438 4.878906 11.964844 5.585938 12.050781 6.363281 C 12.140625 7.144531 12.847656 7.703125 13.625 7.613281 C 14.402344 7.527344 14.960938 6.820312 14.875 6.042969 C 14.789062 5.261719 14.082031 4.703125 13.300781 4.792969 Z M 13.300781 4.792969 "/>
</g>
</svg>
