<?xml version="1.0" encoding="UTF-8"?>
<svg xmlns="http://www.w3.org/2000/svg" xmlns:xlink="http://www.w3.org/1999/xlink" width="16" height="16" viewBox="0 0 16 16" version="1.1">
<g id="surface1">
<path style=" stroke:none;fill-rule:nonzero;fill:rgb(100%,100%,100%);fill-opacity:1;" d="M 9.3125 2.050781 C 9.074219 2.078125 8.898438 2.292969 8.925781 2.53125 C 8.953125 2.769531 9.167969 2.933594 9.40625 2.90625 C 9.644531 2.878906 9.820312 2.664062 9.792969 2.425781 C 9.765625 2.191406 9.550781 2.023438 9.3125 2.050781 Z M 5.417969 2.957031 C 3.894531 2.957031 2.800781 3.875 2.800781 5.363281 L 2.800781 6.667969 L 2.375 6.667969 C 1.941406 6.667969 1.71875 6.886719 1.71875 7.324219 L 1.71875 11.03125 C 1.71875 11.246094 1.941406 11.6875 2.375 11.6875 L 8.761719 11.6875 C 9.113281 11.683594 9.332031 11.246094 9.332031 11.03125 L 9.332031 7.324219 C 9.332031 6.886719 9.113281 6.667969 8.675781 6.667969 L 8.238281 6.667969 L 8.238281 5.363281 C 8.238281 3.835938 7.15625 2.957031 5.636719 2.957031 Z M 11.71875 2.957031 C 11.351562 3 11.09375 3.332031 11.136719 3.699219 C 11.175781 4.066406 11.507812 4.332031 11.875 4.292969 C 12.242188 4.25 12.5 3.917969 12.457031 3.550781 C 12.417969 3.183594 12.085938 2.917969 11.71875 2.957031 Z M 5.417969 4.050781 L 5.636719 4.050781 C 7.15625 4.050781 7.15625 5.355469 7.15625 5.792969 L 7.15625 6.667969 L 3.894531 6.667969 L 3.894531 5.792969 C 3.894531 5.355469 3.894531 4.050781 5.417969 4.050781 Z M 13.363281 5.324219 C 12.878906 5.378906 12.527344 5.816406 12.582031 6.300781 C 12.636719 6.789062 13.074219 7.136719 13.5625 7.082031 C 14.050781 7.027344 14.398438 6.589844 14.34375 6.105469 C 14.289062 5.617188 13.851562 5.269531 13.363281 5.324219 Z M 13.40625 8.550781 C 13.324219 8.542969 13.25 8.554688 13.167969 8.5625 C 12.5 8.636719 12.019531 9.238281 12.09375 9.90625 C 12.167969 10.574219 12.769531 11.054688 13.4375 10.980469 C 14.105469 10.902344 14.585938 10.304688 14.511719 9.636719 C 14.445312 9.050781 13.96875 8.601562 13.40625 8.550781 Z M 11.28125 11.78125 C 10.496094 11.78125 9.863281 12.421875 9.863281 13.207031 C 9.863281 13.992188 10.496094 14.625 11.28125 14.625 C 12.066406 14.625 12.707031 13.992188 12.707031 13.207031 C 12.707031 12.421875 12.066406 11.78125 11.28125 11.78125 Z M 11.28125 11.78125 "/>
</g>
</svg>
