<?xml version="1.0" encoding="UTF-8"?>
<svg xmlns="http://www.w3.org/2000/svg" xmlns:xlink="http://www.w3.org/1999/xlink" width="16" height="16" viewBox="0 0 16 16" version="1.1">
<g id="surface1">
<path style=" stroke:none;fill-rule:nonzero;fill:rgb(100%,100%,100%);fill-opacity:1;" d="M 5.417969 2.957031 C 3.894531 2.957031 2.800781 3.875 2.800781 5.363281 L 2.800781 6.667969 L 2.375 6.667969 C 1.941406 6.667969 1.71875 6.886719 1.71875 7.324219 L 1.71875 11.03125 C 1.71875 11.246094 1.941406 11.6875 2.375 11.6875 L 3.324219 11.6875 C 3.476562 12.167969 3.945312 12.496094 4.46875 12.4375 C 4.90625 12.386719 5.25 12.078125 5.375 11.6875 L 8.761719 11.6875 C 9.113281 11.683594 9.332031 11.246094 9.332031 11.03125 L 9.332031 7.324219 C 9.332031 6.886719 9.113281 6.667969 8.675781 6.667969 L 8.238281 6.667969 L 8.238281 5.363281 C 8.238281 3.835938 7.15625 2.957031 5.636719 2.957031 Z M 5.417969 4.050781 L 5.636719 4.050781 C 7.15625 4.050781 7.15625 5.355469 7.15625 5.792969 L 7.15625 6.667969 L 3.894531 6.667969 L 3.894531 5.792969 C 3.894531 5.355469 3.894531 4.050781 5.417969 4.050781 Z M 11.28125 12.6875 C 10.992188 12.6875 10.761719 12.917969 10.761719 13.207031 C 10.761719 13.496094 10.992188 13.730469 11.28125 13.730469 C 11.570312 13.730469 11.8125 13.496094 11.8125 13.207031 C 11.8125 12.917969 11.570312 12.6875 11.28125 12.6875 Z M 7.34375 13.34375 C 6.925781 13.390625 6.628906 13.769531 6.675781 14.1875 C 6.722656 14.605469 7.105469 14.902344 7.519531 14.855469 C 7.9375 14.808594 8.234375 14.425781 8.1875 14.011719 C 8.140625 13.59375 7.761719 13.296875 7.34375 13.34375 Z M 7.34375 13.34375 "/>
</g>
</svg>
