<?xml version="1.0" encoding="UTF-8"?>
<svg xmlns="http://www.w3.org/2000/svg" xmlns:xlink="http://www.w3.org/1999/xlink" width="24" height="24" viewBox="0 0 24 24" version="1.1">
<g id="surface1">
<path style=" stroke:none;fill-rule:nonzero;fill:rgb(100%,100%,100%);fill-opacity:1;" d="M 15.453125 1 C 14.753906 1.003906 14.210938 1.003906 14 1.015625 C 13.152344 1.066406 12.730469 1.59375 12.5625 2.375 C 12.542969 2.769531 12.5625 9.25 12.5625 9.25 C 12.5625 10.046875 13.203125 10.703125 14 10.703125 L 21.546875 10.703125 C 22.347656 10.703125 22.984375 10.046875 22.984375 9.25 C 22.984375 8.449219 23.082031 2.480469 22.875 1.9375 C 22.667969 1.394531 22.164062 1.015625 21.546875 1.015625 C 21.082031 1.015625 17.546875 0.992188 15.453125 1 Z M 14.515625 2.140625 L 21.015625 2.140625 C 21.480469 2.140625 21.859375 2.503906 21.859375 2.96875 L 21.859375 8.75 C 21.859375 9.214844 21.480469 9.578125 21.015625 9.578125 L 14.515625 9.578125 C 14.050781 9.578125 13.671875 9.214844 13.671875 8.75 L 13.671875 2.96875 C 13.671875 2.503906 14.050781 2.140625 14.515625 2.140625 Z M 3.3125 7.28125 C 2.136719 7.285156 1.183594 8.246094 1.1875 9.421875 C 1.191406 10.597656 2.152344 11.550781 3.328125 11.546875 C 4.503906 11.542969 5.457031 10.582031 5.453125 9.40625 C 5.449219 8.230469 4.488281 7.277344 3.3125 7.28125 Z M 3.328125 12.65625 C 2.71875 12.660156 2.1875 12.96875 1.875 13.4375 C 1.871094 13.441406 1.878906 13.449219 1.875 13.453125 C 1.398438 13.664062 1.125 14.09375 1 14.671875 C 0.988281 14.863281 0.996094 16.539062 1 18.171875 C 1 18.207031 1 18.214844 1 18.25 C 1.003906 19.917969 1 21.546875 1 21.546875 C 1 22.347656 1.652344 23 2.453125 23 L 9.984375 23 C 10.785156 23 11.421875 22.347656 11.421875 21.546875 C 11.421875 21.527344 11.421875 21.398438 11.421875 21.375 C 11.585938 21.191406 11.6875 20.953125 11.6875 20.6875 C 11.6875 20.433594 11.589844 20.210938 11.4375 20.03125 C 11.460938 18.070312 11.492188 14.667969 11.328125 14.234375 C 11.121094 13.691406 10.601562 13.3125 9.984375 13.3125 C 9.578125 13.3125 6.753906 13.296875 4.671875 13.296875 C 4.351562 12.910156 3.871094 12.65625 3.328125 12.65625 Z M 2.953125 14.4375 L 9.453125 14.4375 C 9.917969 14.4375 10.296875 14.800781 10.296875 15.265625 L 10.296875 21.046875 C 10.296875 21.511719 9.917969 21.875 9.453125 21.875 L 2.953125 21.875 C 2.488281 21.875 2.109375 21.511719 2.109375 21.046875 L 2.109375 15.265625 C 2.109375 14.800781 2.488281 14.4375 2.953125 14.4375 Z M 3.234375 15.546875 L 3.234375 20.765625 L 9.1875 20.765625 L 9.1875 15.546875 Z M 15.546875 19.28125 C 15.210938 19.3125 14.945312 19.574219 14.90625 19.921875 C 14.863281 20.316406 15.148438 20.675781 15.546875 20.71875 C 15.945312 20.761719 16.285156 20.492188 16.328125 20.09375 C 16.371094 19.695312 16.097656 19.339844 15.703125 19.296875 C 15.652344 19.292969 15.59375 19.277344 15.546875 19.28125 Z M 15.546875 19.28125 "/>
</g>
</svg>
