<?xml version="1.0" encoding="UTF-8"?>
<svg xmlns="http://www.w3.org/2000/svg" xmlns:xlink="http://www.w3.org/1999/xlink" width="24" height="24" viewBox="0 0 24 24" version="1.1">
<g id="surface1">
<path style=" stroke:none;fill-rule:nonzero;fill:rgb(100%,100%,100%);fill-opacity:1;" d="M 15.453125 1 C 14.753906 1.003906 14.210938 1.003906 14 1.015625 C 13.207031 1.0625 12.796875 1.535156 12.609375 2.234375 C 12.359375 1.765625 11.90625 1.40625 11.34375 1.3125 C 11.222656 1.292969 11.101562 1.292969 10.984375 1.296875 C 10.164062 1.328125 9.453125 1.925781 9.3125 2.765625 C 9.152344 3.726562 9.804688 4.621094 10.765625 4.78125 C 11.496094 4.902344 12.199219 4.5625 12.5625 3.96875 C 12.558594 5.898438 12.5625 9.25 12.5625 9.25 C 12.5625 10.046875 13.203125 10.703125 14 10.703125 L 21.546875 10.703125 C 22.347656 10.703125 22.984375 10.046875 22.984375 9.25 C 22.984375 8.449219 23.082031 2.480469 22.875 1.9375 C 22.667969 1.394531 22.164062 1.015625 21.546875 1.015625 C 21.082031 1.015625 17.546875 0.992188 15.453125 1 Z M 14.515625 2.140625 L 21.015625 2.140625 C 21.480469 2.140625 21.859375 2.503906 21.859375 2.96875 L 21.859375 8.75 C 21.859375 9.214844 21.480469 9.578125 21.015625 9.578125 L 14.515625 9.578125 C 14.050781 9.578125 13.671875 9.214844 13.671875 8.75 L 13.671875 2.96875 C 13.671875 2.503906 14.050781 2.140625 14.515625 2.140625 Z M 14.796875 3.25 L 14.796875 8.46875 L 20.734375 8.46875 L 20.734375 3.25 Z M 6.390625 3.625 C 5.722656 3.648438 5.144531 4.144531 5.03125 4.828125 C 4.902344 5.609375 5.4375 6.339844 6.21875 6.46875 C 7 6.597656 7.730469 6.078125 7.859375 5.296875 C 7.988281 4.515625 7.46875 3.769531 6.6875 3.640625 C 6.589844 3.625 6.484375 3.621094 6.390625 3.625 Z M 3.609375 8.234375 C 3.136719 8.253906 2.722656 8.59375 2.640625 9.078125 C 2.546875 9.632812 2.929688 10.160156 3.484375 10.25 C 4.039062 10.34375 4.5625 9.960938 4.65625 9.40625 C 4.746094 8.851562 4.367188 8.339844 3.8125 8.25 C 3.742188 8.238281 3.675781 8.230469 3.609375 8.234375 Z M 3.890625 13.296875 C 3.191406 13.300781 2.664062 13.300781 2.453125 13.3125 C 1.605469 13.363281 1.167969 13.890625 1 14.671875 C 0.976562 15.0625 1 21.546875 1 21.546875 C 1 22.347656 1.652344 23 2.453125 23 L 9.984375 23 C 10.785156 23 11.421875 22.347656 11.421875 21.546875 C 11.421875 20.75 11.535156 14.777344 11.328125 14.234375 C 11.121094 13.691406 10.601562 13.3125 9.984375 13.3125 C 9.519531 13.3125 5.984375 13.289062 3.890625 13.296875 Z M 2.953125 14.4375 L 9.453125 14.4375 C 9.917969 14.4375 10.296875 14.800781 10.296875 15.265625 L 10.296875 21.046875 C 10.296875 21.511719 9.917969 21.875 9.453125 21.875 L 2.953125 21.875 C 2.488281 21.875 2.109375 21.511719 2.109375 21.046875 L 2.109375 15.265625 C 2.109375 14.800781 2.488281 14.4375 2.953125 14.4375 Z M 3.234375 15.546875 L 3.234375 20.765625 L 9.1875 20.765625 L 9.1875 15.546875 Z M 3.234375 15.546875 "/>
</g>
</svg>
