<?xml version="1.0" encoding="UTF-8"?>
<svg xmlns="http://www.w3.org/2000/svg" xmlns:xlink="http://www.w3.org/1999/xlink" width="24" height="24" viewBox="0 0 24 24" version="1.1">
<g id="surface1">
<path style=" stroke:none;fill-rule:nonzero;fill:rgb(100%,100%,100%);fill-opacity:1;" d="M 15.453125 1 C 14.753906 1.003906 14.210938 1.003906 14 1.015625 C 13.152344 1.066406 12.730469 1.59375 12.5625 2.375 C 12.542969 2.769531 12.5625 9.25 12.5625 9.25 C 12.5625 10.046875 13.203125 10.703125 14 10.703125 L 21.546875 10.703125 C 22.347656 10.703125 22.984375 10.046875 22.984375 9.25 C 22.984375 8.449219 23.082031 2.480469 22.875 1.9375 C 22.667969 1.394531 22.164062 1.015625 21.546875 1.015625 C 21.082031 1.015625 17.546875 0.992188 15.453125 1 Z M 14.515625 2.140625 L 21.015625 2.140625 C 21.480469 2.140625 21.859375 2.503906 21.859375 2.96875 L 21.859375 8.75 C 21.859375 9.214844 21.480469 9.578125 21.015625 9.578125 L 14.515625 9.578125 C 14.050781 9.578125 13.671875 9.214844 13.671875 8.75 L 13.671875 2.96875 C 13.671875 2.503906 14.050781 2.140625 14.515625 2.140625 Z M 20.75 11.03125 C 20.476562 11.054688 20.199219 11.15625 19.96875 11.34375 C 19.351562 11.84375 19.265625 12.742188 19.765625 13.359375 C 20.265625 13.976562 21.164062 14.078125 21.78125 13.578125 C 22.398438 13.078125 22.484375 12.179688 21.984375 11.5625 C 21.671875 11.175781 21.207031 10.992188 20.75 11.03125 Z M 3.890625 13.296875 C 3.191406 13.300781 2.664062 13.300781 2.453125 13.3125 C 1.605469 13.363281 1.167969 13.890625 1 14.671875 C 0.976562 15.0625 1 21.546875 1 21.546875 C 1 22.347656 1.652344 23 2.453125 23 L 9.984375 23 C 10.785156 23 11.421875 22.347656 11.421875 21.546875 C 11.421875 20.75 11.535156 14.777344 11.328125 14.234375 C 11.121094 13.691406 10.601562 13.3125 9.984375 13.3125 C 9.519531 13.3125 5.984375 13.289062 3.890625 13.296875 Z M 2.953125 14.4375 L 9.453125 14.4375 C 9.917969 14.4375 10.296875 14.800781 10.296875 15.265625 L 10.296875 21.046875 C 10.296875 21.511719 9.917969 21.875 9.453125 21.875 L 2.953125 21.875 C 2.488281 21.875 2.109375 21.511719 2.109375 21.046875 L 2.109375 15.265625 C 2.109375 14.800781 2.488281 14.4375 2.953125 14.4375 Z M 19.15625 15.484375 C 18.816406 15.511719 18.484375 15.644531 18.203125 15.875 C 17.445312 16.488281 17.339844 17.585938 17.953125 18.34375 C 18.566406 19.097656 19.667969 19.222656 20.421875 18.609375 C 21.179688 17.996094 21.300781 16.882812 20.6875 16.125 C 20.304688 15.652344 19.71875 15.4375 19.15625 15.484375 Z M 3.234375 15.546875 L 3.234375 20.765625 L 9.1875 20.765625 L 9.1875 15.546875 Z M 15.234375 18.265625 C 14.824219 18.300781 14.4375 18.457031 14.09375 18.734375 C 13.179688 19.476562 13.023438 20.820312 13.765625 21.734375 C 14.507812 22.648438 15.851562 22.789062 16.765625 22.046875 C 17.679688 21.304688 17.820312 19.960938 17.078125 19.046875 C 16.613281 18.476562 15.917969 18.207031 15.234375 18.265625 Z M 15.234375 18.265625 "/>
</g>
</svg>
