<?xml version="1.0" encoding="UTF-8"?>
<svg xmlns="http://www.w3.org/2000/svg" xmlns:xlink="http://www.w3.org/1999/xlink" width="24" height="24" viewBox="0 0 24 24" version="1.1">
<g id="surface1">
<path style=" stroke:none;fill-rule:nonzero;fill:rgb(100%,100%,100%);fill-opacity:1;" d="M 15.453125 1 C 14.753906 1.003906 14.210938 1.003906 14 1.015625 C 13.152344 1.066406 12.730469 1.59375 12.5625 2.375 C 12.542969 2.769531 12.5625 9.25 12.5625 9.25 C 12.5625 10.046875 13.203125 10.703125 14 10.703125 L 21.546875 10.703125 C 22.347656 10.703125 22.984375 10.046875 22.984375 9.25 C 22.984375 8.449219 23.082031 2.480469 22.875 1.9375 C 22.667969 1.394531 22.164062 1.015625 21.546875 1.015625 C 21.082031 1.015625 17.546875 0.992188 15.453125 1 Z M 10.984375 1.734375 C 10.617188 1.753906 10.265625 1.910156 10 2.203125 C 9.46875 2.792969 9.519531 3.703125 10.109375 4.234375 C 10.699219 4.761719 11.59375 4.714844 12.125 4.125 C 12.65625 3.535156 12.605469 2.625 12.015625 2.09375 C 11.722656 1.828125 11.351562 1.714844 10.984375 1.734375 Z M 14.515625 2.140625 L 21.015625 2.140625 C 21.480469 2.140625 21.859375 2.503906 21.859375 2.96875 L 21.859375 8.75 C 21.859375 9.214844 21.480469 9.578125 21.015625 9.578125 L 14.515625 9.578125 C 14.050781 9.578125 13.671875 9.214844 13.671875 8.75 L 13.671875 2.96875 C 13.671875 2.503906 14.050781 2.140625 14.515625 2.140625 Z M 6.390625 4.171875 C 6.128906 4.1875 5.875 4.292969 5.6875 4.5 C 5.3125 4.917969 5.347656 5.5625 5.765625 5.9375 C 6.183594 6.3125 6.828125 6.277344 7.203125 5.859375 C 7.578125 5.441406 7.542969 4.796875 7.125 4.421875 C 6.917969 4.234375 6.648438 4.15625 6.390625 4.171875 Z M 3.546875 8.59375 C 3.410156 8.613281 3.269531 8.664062 3.15625 8.765625 C 2.859375 9.03125 2.828125 9.484375 3.09375 9.78125 C 3.359375 10.078125 3.8125 10.109375 4.109375 9.84375 C 4.40625 9.578125 4.4375 9.125 4.171875 8.828125 C 4.007812 8.640625 3.777344 8.5625 3.546875 8.59375 Z M 3.890625 13.296875 C 3.191406 13.300781 2.664062 13.300781 2.453125 13.3125 C 1.605469 13.363281 1.167969 13.890625 1 14.671875 C 0.988281 14.863281 0.996094 16.539062 1 18.171875 C 1 18.207031 1 18.214844 1 18.25 C 1.003906 19.917969 1 21.546875 1 21.546875 C 1 22.347656 1.652344 23 2.453125 23 L 9.984375 23 C 10.785156 23 11.421875 22.347656 11.421875 21.546875 C 11.421875 20.75 11.535156 14.777344 11.328125 14.234375 C 11.121094 13.691406 10.601562 13.3125 9.984375 13.3125 C 9.519531 13.3125 5.984375 13.289062 3.890625 13.296875 Z M 2.953125 14.4375 L 9.453125 14.4375 C 9.917969 14.4375 10.296875 14.800781 10.296875 15.265625 L 10.296875 21.046875 C 10.296875 21.511719 9.917969 21.875 9.453125 21.875 L 2.953125 21.875 C 2.488281 21.875 2.109375 21.511719 2.109375 21.046875 L 2.109375 15.265625 C 2.109375 14.800781 2.488281 14.4375 2.953125 14.4375 Z M 2.953125 14.4375 "/>
</g>
</svg>
