<?xml version="1.0" encoding="UTF-8"?>
<svg xmlns="http://www.w3.org/2000/svg" xmlns:xlink="http://www.w3.org/1999/xlink" width="24" height="24" viewBox="0 0 24 24" version="1.1">
<g id="surface1">
<path style=" stroke:none;fill-rule:nonzero;fill:rgb(100%,100%,100%);fill-opacity:1;" d="M 15.453125 1 C 14.753906 1.003906 14.210938 1.003906 14 1.015625 C 13.152344 1.066406 12.730469 1.59375 12.5625 2.375 C 12.542969 2.769531 12.5625 9.25 12.5625 9.25 C 12.5625 10.046875 13.203125 10.703125 14 10.703125 L 21.546875 10.703125 C 22.347656 10.703125 22.984375 10.046875 22.984375 9.25 C 22.984375 8.449219 23.082031 2.480469 22.875 1.9375 C 22.667969 1.394531 22.164062 1.015625 21.546875 1.015625 C 21.082031 1.015625 17.546875 0.992188 15.453125 1 Z M 14.515625 2.140625 L 21.015625 2.140625 C 21.480469 2.140625 21.859375 2.503906 21.859375 2.96875 L 21.859375 8.75 C 21.859375 9.214844 21.480469 9.578125 21.015625 9.578125 L 14.515625 9.578125 C 14.050781 9.578125 13.671875 9.214844 13.671875 8.75 L 13.671875 2.96875 C 13.671875 2.503906 14.050781 2.140625 14.515625 2.140625 Z M 11.078125 2.53125 C 10.847656 2.566406 10.636719 2.710938 10.53125 2.9375 C 10.363281 3.296875 10.515625 3.734375 10.875 3.90625 C 11.234375 4.074219 11.675781 3.921875 11.84375 3.5625 C 12.015625 3.203125 11.84375 2.761719 11.484375 2.59375 C 11.347656 2.53125 11.214844 2.511719 11.078125 2.53125 Z M 20.859375 10.78125 C 20.175781 10.832031 19.546875 11.277344 19.3125 11.96875 C 19 12.890625 19.5 13.890625 20.421875 14.203125 C 21.34375 14.515625 22.34375 14.015625 22.65625 13.09375 C 22.96875 12.171875 22.46875 11.171875 21.546875 10.859375 C 21.316406 10.78125 21.085938 10.765625 20.859375 10.78125 Z M 3.890625 13.296875 C 3.191406 13.300781 2.664062 13.300781 2.453125 13.3125 C 1.605469 13.363281 1.167969 13.890625 1 14.671875 C 0.976562 15.0625 1 21.546875 1 21.546875 C 1 22.347656 1.652344 23 2.453125 23 L 9.984375 23 C 10.785156 23 11.421875 22.347656 11.421875 21.546875 C 11.421875 20.75 11.535156 14.777344 11.328125 14.234375 C 11.121094 13.691406 10.601562 13.3125 9.984375 13.3125 C 9.519531 13.3125 5.984375 13.289062 3.890625 13.296875 Z M 2.953125 14.4375 L 9.453125 14.4375 C 9.917969 14.4375 10.296875 14.800781 10.296875 15.265625 L 10.296875 21.046875 C 10.296875 21.511719 9.917969 21.875 9.453125 21.875 L 2.953125 21.875 C 2.488281 21.875 2.109375 21.511719 2.109375 21.046875 L 2.109375 15.265625 C 2.109375 14.800781 2.488281 14.4375 2.953125 14.4375 Z M 19.21875 15.140625 C 18.390625 15.199219 17.644531 15.742188 17.359375 16.578125 C 16.980469 17.691406 17.574219 18.902344 18.6875 19.28125 C 19.800781 19.660156 21.011719 19.066406 21.390625 17.953125 C 21.769531 16.839844 21.175781 15.628906 20.0625 15.25 C 19.785156 15.15625 19.496094 15.121094 19.21875 15.140625 Z M 19.21875 15.140625 "/>
</g>
</svg>
