<?xml version="1.0" encoding="UTF-8"?>
<svg xmlns="http://www.w3.org/2000/svg" xmlns:xlink="http://www.w3.org/1999/xlink" width="24" height="24" viewBox="0 0 24 24" version="1.1">
<g id="surface1">
<path style=" stroke:none;fill-rule:nonzero;fill:rgb(100%,100%,100%);fill-opacity:1;" d="M 15.453125 1 C 14.753906 1.003906 14.210938 1.003906 14 1.015625 C 13.152344 1.066406 12.730469 1.59375 12.5625 2.375 C 12.542969 2.769531 12.5625 9.25 12.5625 9.25 C 12.5625 10.046875 13.203125 10.703125 14 10.703125 L 21.546875 10.703125 C 22.347656 10.703125 22.984375 10.046875 22.984375 9.25 C 22.984375 8.449219 23.082031 2.480469 22.875 1.9375 C 22.667969 1.394531 22.164062 1.015625 21.546875 1.015625 C 21.082031 1.015625 17.546875 0.992188 15.453125 1 Z M 14.515625 2.140625 L 21.015625 2.140625 C 21.480469 2.140625 21.859375 2.503906 21.859375 2.96875 L 21.859375 8.75 C 21.859375 9.214844 21.480469 9.578125 21.015625 9.578125 L 14.515625 9.578125 C 14.050781 9.578125 13.671875 9.214844 13.671875 8.75 L 13.671875 2.96875 C 13.671875 2.503906 14.050781 2.140625 14.515625 2.140625 Z M 14.796875 3.25 L 14.796875 8.46875 L 20.734375 8.46875 L 20.734375 3.25 Z M 20.671875 11.359375 C 20.113281 11.421875 19.71875 11.925781 19.78125 12.484375 C 19.84375 13.042969 20.347656 13.4375 20.90625 13.375 C 21.464844 13.3125 21.859375 12.824219 21.796875 12.265625 C 21.734375 11.707031 21.230469 11.296875 20.671875 11.359375 Z M 3.890625 13.296875 C 3.191406 13.300781 2.664062 13.300781 2.453125 13.3125 C 1.605469 13.363281 1.167969 13.890625 1 14.671875 C 0.988281 14.863281 0.996094 16.539062 1 18.171875 C 1 18.207031 1 18.214844 1 18.25 C 1.003906 19.917969 1 21.546875 1 21.546875 C 1 22.347656 1.652344 23 2.453125 23 L 9.984375 23 C 10.1875 23.039062 10.394531 23.054688 10.609375 23.03125 C 11.777344 22.898438 12.632812 21.839844 12.5 20.671875 C 12.421875 19.976562 12.003906 19.402344 11.4375 19.078125 C 11.457031 17.027344 11.46875 14.597656 11.328125 14.234375 C 11.121094 13.691406 10.601562 13.3125 9.984375 13.3125 C 9.519531 13.3125 5.984375 13.289062 3.890625 13.296875 Z M 2.953125 14.4375 L 9.453125 14.4375 C 9.917969 14.4375 10.296875 14.800781 10.296875 15.265625 L 10.296875 21.046875 C 10.296875 21.511719 9.917969 21.875 9.453125 21.875 L 2.953125 21.875 C 2.488281 21.875 2.109375 21.511719 2.109375 21.046875 L 2.109375 15.265625 C 2.109375 14.800781 2.488281 14.4375 2.953125 14.4375 Z M 3.234375 15.546875 L 3.234375 20.765625 L 9.1875 20.765625 L 9.1875 15.546875 Z M 19.0625 15.734375 C 18.273438 15.824219 17.722656 16.539062 17.8125 17.328125 C 17.902344 18.113281 18.601562 18.683594 19.390625 18.59375 C 20.175781 18.503906 20.746094 17.785156 20.65625 17 C 20.566406 16.210938 19.847656 15.644531 19.0625 15.734375 Z M 15.5 18.59375 C 15.382812 18.582031 15.277344 18.59375 15.15625 18.609375 C 14.191406 18.71875 13.484375 19.582031 13.59375 20.546875 C 13.703125 21.511719 14.582031 22.21875 15.546875 22.109375 C 16.511719 22 17.203125 21.121094 17.09375 20.15625 C 17 19.3125 16.316406 18.667969 15.5 18.59375 Z M 15.5 18.59375 "/>
</g>
</svg>
