<?xml version="1.0" encoding="UTF-8"?>
<svg xmlns="http://www.w3.org/2000/svg" xmlns:xlink="http://www.w3.org/1999/xlink" width="24" height="24" viewBox="0 0 24 24" version="1.1">
<g id="surface1">
<path style=" stroke:none;fill-rule:nonzero;fill:rgb(100%,100%,100%);fill-opacity:1;" d="M 15.453125 1 C 14.753906 1.003906 14.210938 1.003906 14 1.015625 C 13.152344 1.066406 12.730469 1.59375 12.5625 2.375 C 12.542969 2.769531 12.5625 9.25 12.5625 9.25 C 12.5625 10.046875 13.203125 10.703125 14 10.703125 L 21.546875 10.703125 C 22.347656 10.703125 22.984375 10.046875 22.984375 9.25 C 22.984375 8.449219 23.082031 2.480469 22.875 1.9375 C 22.667969 1.394531 22.164062 1.015625 21.546875 1.015625 C 21.082031 1.015625 17.546875 0.992188 15.453125 1 Z M 14.515625 2.140625 L 21.015625 2.140625 C 21.480469 2.140625 21.859375 2.503906 21.859375 2.96875 L 21.859375 8.75 C 21.859375 9.214844 21.480469 9.578125 21.015625 9.578125 L 14.515625 9.578125 C 14.050781 9.578125 13.671875 9.214844 13.671875 8.75 L 13.671875 2.96875 C 13.671875 2.503906 14.050781 2.140625 14.515625 2.140625 Z M 20.765625 11.46875 C 20.535156 11.476562 20.304688 11.601562 20.171875 11.8125 C 19.960938 12.152344 20.066406 12.601562 20.40625 12.8125 C 20.746094 13.023438 21.195312 12.917969 21.40625 12.578125 C 21.617188 12.238281 21.511719 11.789062 21.171875 11.578125 C 21.042969 11.5 20.90625 11.464844 20.765625 11.46875 Z M 3.890625 13.296875 C 3.191406 13.300781 2.664062 13.300781 2.453125 13.3125 C 1.605469 13.363281 1.167969 13.890625 1 14.671875 C 0.976562 15.0625 1 21.546875 1 21.546875 C 1 22.347656 1.652344 23 2.453125 23 L 9.984375 23 C 10.421875 23 10.800781 22.804688 11.0625 22.5 C 11.472656 22.34375 11.828125 22.039062 12.03125 21.609375 C 12.40625 20.820312 12.132812 19.90625 11.4375 19.421875 C 11.457031 17.359375 11.476562 14.621094 11.328125 14.234375 C 11.121094 13.691406 10.601562 13.3125 9.984375 13.3125 C 9.519531 13.3125 5.984375 13.289062 3.890625 13.296875 Z M 2.953125 14.4375 L 9.453125 14.4375 C 9.917969 14.4375 10.296875 14.800781 10.296875 15.265625 L 10.296875 21.046875 C 10.296875 21.511719 9.917969 21.875 9.453125 21.875 L 2.953125 21.875 C 2.488281 21.875 2.109375 21.511719 2.109375 21.046875 L 2.109375 15.265625 C 2.109375 14.800781 2.488281 14.4375 2.953125 14.4375 Z M 3.234375 15.546875 L 3.234375 20.765625 L 9.1875 20.765625 L 9.1875 15.546875 Z M 19.3125 15.9375 C 18.917969 15.921875 18.523438 16.136719 18.34375 16.515625 C 18.101562 17.023438 18.320312 17.632812 18.828125 17.875 C 19.335938 18.117188 19.945312 17.898438 20.1875 17.390625 C 20.429688 16.882812 20.210938 16.273438 19.703125 16.03125 C 19.578125 15.972656 19.445312 15.945312 19.3125 15.9375 Z M 15.28125 18.765625 C 14.800781 18.8125 14.347656 19.109375 14.125 19.578125 C 13.785156 20.292969 14.082031 21.160156 14.796875 21.5 C 15.511719 21.839844 16.378906 21.527344 16.71875 20.8125 C 17.058594 20.097656 16.746094 19.246094 16.03125 18.90625 C 15.851562 18.820312 15.671875 18.773438 15.484375 18.765625 C 15.414062 18.761719 15.351562 18.757812 15.28125 18.765625 Z M 15.28125 18.765625 "/>
</g>
</svg>
