<?xml version="1.0" encoding="UTF-8"?>
<svg xmlns="http://www.w3.org/2000/svg" xmlns:xlink="http://www.w3.org/1999/xlink" width="24" height="24" viewBox="0 0 24 24" version="1.1">
<g id="surface1">
<path style=" stroke:none;fill-rule:nonzero;fill:rgb(100%,100%,100%);fill-opacity:1;" d="M 15.453125 1 C 14.753906 1.003906 14.210938 1.003906 14 1.015625 C 13.152344 1.066406 12.730469 1.59375 12.5625 2.375 C 12.542969 2.769531 12.5625 9.25 12.5625 9.25 C 12.5625 10.046875 13.203125 10.703125 14 10.703125 L 21.546875 10.703125 C 22.347656 10.703125 22.984375 10.046875 22.984375 9.25 C 22.984375 8.449219 23.082031 2.480469 22.875 1.9375 C 22.667969 1.394531 22.164062 1.015625 21.546875 1.015625 C 21.082031 1.015625 17.546875 0.992188 15.453125 1 Z M 14.515625 2.140625 L 21.015625 2.140625 C 21.480469 2.140625 21.859375 2.503906 21.859375 2.96875 L 21.859375 8.75 C 21.859375 9.214844 21.480469 9.578125 21.015625 9.578125 L 14.515625 9.578125 C 14.050781 9.578125 13.671875 9.214844 13.671875 8.75 L 13.671875 2.96875 C 13.671875 2.503906 14.050781 2.140625 14.515625 2.140625 Z M 6.125 2.9375 C 5.441406 2.949219 4.777344 3.289062 4.375 3.90625 C 3.730469 4.890625 4.011719 6.21875 5 6.859375 C 5.984375 7.503906 7.296875 7.222656 7.9375 6.234375 C 8.582031 5.246094 8.3125 3.921875 7.328125 3.28125 C 6.957031 3.039062 6.535156 2.929688 6.125 2.9375 Z M 3.40625 7.5 C 2.839844 7.507812 2.285156 7.804688 1.953125 8.3125 C 1.421875 9.128906 1.652344 10.203125 2.46875 10.734375 C 3.285156 11.265625 4.375 11.050781 4.90625 10.234375 C 5.4375 9.417969 5.207031 8.328125 4.390625 7.796875 C 4.085938 7.597656 3.746094 7.492188 3.40625 7.5 Z M 3.390625 12.859375 C 3.007812 12.867188 2.644531 13.035156 2.375 13.328125 C 1.582031 13.40625 1.160156 13.917969 1 14.671875 C 0.976562 15.0625 1 21.546875 1 21.546875 C 1 22.347656 1.652344 23 2.453125 23 L 9.984375 23 C 10.785156 23 11.421875 22.347656 11.421875 21.546875 C 11.421875 20.75 11.535156 14.777344 11.328125 14.234375 C 11.121094 13.691406 10.601562 13.3125 9.984375 13.3125 C 9.5625 13.3125 6.558594 13.296875 4.453125 13.296875 C 4.378906 13.21875 4.296875 13.15625 4.203125 13.09375 C 3.953125 12.929688 3.667969 12.855469 3.390625 12.859375 Z M 2.953125 14.4375 L 9.453125 14.4375 C 9.917969 14.4375 10.296875 14.800781 10.296875 15.265625 L 10.296875 21.046875 C 10.296875 21.511719 9.917969 21.875 9.453125 21.875 L 2.953125 21.875 C 2.488281 21.875 2.109375 21.511719 2.109375 21.046875 L 2.109375 15.265625 C 2.109375 14.800781 2.488281 14.4375 2.953125 14.4375 Z M 2.953125 14.4375 "/>
</g>
</svg>
