<?xml version="1.0" encoding="UTF-8"?>
<svg xmlns="http://www.w3.org/2000/svg" xmlns:xlink="http://www.w3.org/1999/xlink" width="24" height="24" viewBox="0 0 24 24" version="1.1">
<g id="surface1">
<path style=" stroke:none;fill-rule:nonzero;fill:rgb(100%,100%,100%);fill-opacity:1;" d="M 15.453125 1 C 14.753906 1.003906 14.210938 1.003906 14 1.015625 C 13.152344 1.066406 12.730469 1.59375 12.5625 2.375 C 12.542969 2.769531 12.5625 9.25 12.5625 9.25 C 12.5625 10.046875 13.203125 10.703125 14 10.703125 L 19.6875 10.703125 C 19.078125 11.214844 18.785156 12.035156 19 12.859375 C 19.296875 14 20.453125 14.6875 21.59375 14.390625 C 22.730469 14.09375 23.40625 12.921875 23.109375 11.78125 C 22.96875 11.246094 22.632812 10.824219 22.203125 10.546875 C 22.671875 10.304688 22.984375 9.8125 22.984375 9.25 C 22.984375 8.449219 23.082031 2.480469 22.875 1.9375 C 22.667969 1.394531 22.164062 1.015625 21.546875 1.015625 C 21.082031 1.015625 17.546875 0.992188 15.453125 1 Z M 14.515625 2.140625 L 21.015625 2.140625 C 21.480469 2.140625 21.859375 2.503906 21.859375 2.96875 L 21.859375 8.75 C 21.859375 9.214844 21.480469 9.578125 21.015625 9.578125 L 14.515625 9.578125 C 14.050781 9.578125 13.671875 9.214844 13.671875 8.75 L 13.671875 2.96875 C 13.671875 2.503906 14.050781 2.140625 14.515625 2.140625 Z M 11.046875 2.234375 C 10.980469 2.238281 10.910156 2.246094 10.84375 2.265625 C 10.300781 2.40625 9.980469 2.957031 10.125 3.5 C 10.269531 4.042969 10.816406 4.375 11.359375 4.234375 C 11.902344 4.09375 12.238281 3.527344 12.09375 2.984375 C 11.96875 2.507812 11.519531 2.207031 11.046875 2.234375 Z M 6.390625 4.4375 C 5.996094 4.496094 5.722656 4.871094 5.78125 5.265625 C 5.839844 5.660156 6.199219 5.933594 6.59375 5.875 C 6.988281 5.816406 7.261719 5.441406 7.203125 5.046875 C 7.144531 4.652344 6.785156 4.378906 6.390625 4.4375 Z M 3.890625 13.296875 C 3.191406 13.300781 2.664062 13.300781 2.453125 13.3125 C 1.605469 13.363281 1.167969 13.890625 1 14.671875 C 0.976562 15.0625 1 21.546875 1 21.546875 C 1 22.347656 1.652344 23 2.453125 23 L 9.984375 23 C 10.785156 23 11.421875 22.347656 11.421875 21.546875 C 11.421875 20.75 11.535156 14.777344 11.328125 14.234375 C 11.121094 13.691406 10.601562 13.3125 9.984375 13.3125 C 9.519531 13.3125 5.984375 13.289062 3.890625 13.296875 Z M 2.953125 14.4375 L 9.453125 14.4375 C 9.917969 14.4375 10.296875 14.800781 10.296875 15.265625 L 10.296875 21.046875 C 10.296875 21.511719 9.917969 21.875 9.453125 21.875 L 2.953125 21.875 C 2.488281 21.875 2.109375 21.511719 2.109375 21.046875 L 2.109375 15.265625 C 2.109375 14.800781 2.488281 14.4375 2.953125 14.4375 Z M 3.234375 15.546875 L 3.234375 20.765625 L 9.1875 20.765625 L 9.1875 15.546875 Z M 3.234375 15.546875 "/>
</g>
</svg>
