<?xml version="1.0" encoding="UTF-8"?>
<svg xmlns="http://www.w3.org/2000/svg" xmlns:xlink="http://www.w3.org/1999/xlink" width="24" height="24" viewBox="0 0 24 24" version="1.1">
<g id="surface1">
<path style=" stroke:none;fill-rule:nonzero;fill:rgb(100%,100%,100%);fill-opacity:1;" d="M 8.125 4.4375 C 5.839844 4.4375 4.207031 5.804688 4.207031 8.039062 L 4.207031 10.003906 L 3.554688 10.003906 C 2.902344 10.003906 2.574219 10.332031 2.574219 10.984375 L 2.574219 16.550781 C 2.574219 16.871094 2.902344 17.535156 3.554688 17.535156 L 13.144531 17.535156 C 13.671875 17.53125 13.996094 16.871094 13.996094 16.550781 L 13.996094 10.984375 C 13.996094 10.332031 13.671875 10 13.019531 10 L 12.367188 10.003906 L 12.367188 8.039062 C 12.367188 5.75 10.734375 4.4375 8.449219 4.4375 Z M 8.125 6.078125 L 8.449219 6.078125 C 10.734375 6.078125 10.734375 8.039062 10.734375 8.695312 L 10.734375 10.003906 L 5.839844 10.003906 L 5.839844 8.695312 C 5.839844 8.039062 5.839844 6.078125 8.125 6.078125 Z M 8.125 6.078125 "/>
</g>
</svg>
