<?xml version="1.0" encoding="UTF-8"?>
<svg xmlns="http://www.w3.org/2000/svg" xmlns:xlink="http://www.w3.org/1999/xlink" width="24" height="24" viewBox="0 0 24 24" version="1.1">
<g id="surface1">
<path style=" stroke:none;fill-rule:nonzero;fill:rgb(100%,100%,100%);fill-opacity:1;" d="M 8.125 4.4375 C 5.839844 4.4375 4.203125 5.8125 4.203125 8.046875 L 4.203125 10 L 3.5625 10 C 2.910156 10 2.578125 10.328125 2.578125 10.984375 L 2.578125 16.546875 C 2.578125 16.867188 2.910156 17.53125 3.5625 17.53125 L 4.421875 17.53125 C 4.667969 18.589844 5.660156 19.328125 6.765625 19.203125 C 7.703125 19.097656 8.421875 18.398438 8.625 17.53125 L 13.140625 17.53125 C 13.667969 17.527344 14 16.867188 14 16.546875 L 14 10.984375 C 14 10.328125 13.667969 10 13.015625 10 L 12.359375 10 L 12.359375 8.046875 C 12.359375 5.753906 10.738281 4.4375 8.453125 4.4375 Z M 8.125 6.078125 L 8.453125 6.078125 C 10.738281 6.078125 10.734375 8.03125 10.734375 8.6875 L 10.734375 10 L 5.84375 10 L 5.84375 8.6875 C 5.84375 8.03125 5.839844 6.078125 8.125 6.078125 Z M 19.875 13.9375 C 19.480469 13.980469 19.191406 14.339844 19.234375 14.734375 C 19.277344 15.128906 19.636719 15.417969 20.03125 15.375 C 20.425781 15.332031 20.714844 14.972656 20.671875 14.578125 C 20.628906 14.183594 20.269531 13.894531 19.875 13.9375 Z M 16.921875 18.71875 C 16.320312 18.71875 15.84375 19.210938 15.84375 19.8125 C 15.84375 20.414062 16.320312 20.90625 16.921875 20.90625 C 17.523438 20.90625 18.015625 20.414062 18.015625 19.8125 C 18.015625 19.210938 17.523438 18.71875 16.921875 18.71875 Z M 11.28125 19.640625 C 11.179688 19.632812 11.089844 19.644531 10.984375 19.65625 C 10.15625 19.75 9.5625 20.484375 9.65625 21.3125 C 9.75 22.140625 10.484375 22.734375 11.3125 22.640625 C 12.140625 22.546875 12.75 21.8125 12.65625 20.984375 C 12.574219 20.261719 11.980469 19.703125 11.28125 19.640625 Z M 11.28125 19.640625 "/>
</g>
</svg>
