<?xml version="1.0" encoding="UTF-8"?>
<svg xmlns="http://www.w3.org/2000/svg" xmlns:xlink="http://www.w3.org/1999/xlink" width="24" height="24" viewBox="0 0 24 24" version="1.1">
<g id="surface1">
<path style=" stroke:none;fill-rule:nonzero;fill:rgb(100%,100%,100%);fill-opacity:1;" d="M 13.921875 2.703125 C 13.363281 2.765625 12.96875 3.269531 13.03125 3.828125 C 13.09375 4.386719 13.597656 4.796875 14.15625 4.734375 C 14.714844 4.671875 15.109375 4.167969 15.046875 3.609375 C 14.984375 3.050781 14.480469 2.640625 13.921875 2.703125 Z M 10.90625 3.375 C 10.507812 3.375 10.1875 3.695312 10.1875 4.09375 C 10.1875 4.492188 10.507812 4.8125 10.90625 4.8125 C 11.304688 4.8125 11.640625 4.492188 11.640625 4.09375 C 11.640625 3.695312 11.304688 3.375 10.90625 3.375 Z M 17.53125 4.015625 C 16.746094 4.105469 16.175781 4.808594 16.265625 5.59375 C 16.355469 6.382812 17.074219 6.949219 17.859375 6.859375 C 18.644531 6.769531 19.214844 6.066406 19.125 5.28125 C 19.035156 4.492188 18.316406 3.925781 17.53125 4.015625 Z M 8.125 4.4375 C 5.839844 4.4375 4.203125 5.8125 4.203125 8.046875 L 4.203125 10 L 3.5625 10 C 2.910156 10 2.578125 10.328125 2.578125 10.984375 L 2.578125 16.546875 C 2.578125 16.867188 2.910156 17.53125 3.5625 17.53125 L 13.140625 17.53125 C 13.667969 17.527344 14 16.867188 14 16.546875 L 14 10.984375 C 14 10.328125 13.667969 10 13.015625 10 L 12.359375 10 L 12.359375 8.046875 C 12.359375 5.753906 10.738281 4.4375 8.453125 4.4375 Z M 8.125 6.078125 L 8.453125 6.078125 C 10.738281 6.078125 10.734375 8.03125 10.734375 8.6875 L 10.734375 10 L 5.84375 10 L 5.84375 8.6875 C 5.84375 8.03125 5.839844 6.078125 8.125 6.078125 Z M 20 7.546875 C 19.035156 7.65625 18.34375 8.535156 18.453125 9.5 C 18.5625 10.464844 19.425781 11.15625 20.390625 11.046875 C 21.355469 10.9375 22.0625 10.074219 21.953125 9.109375 C 21.84375 8.144531 20.964844 7.4375 20 7.546875 Z M 19.71875 12.53125 C 18.550781 12.664062 17.695312 13.722656 17.828125 14.890625 C 17.960938 16.0625 19.019531 16.898438 20.1875 16.765625 C 21.359375 16.632812 22.195312 15.574219 22.0625 14.40625 C 21.929688 13.234375 20.890625 12.398438 19.71875 12.53125 Z M 19.71875 12.53125 "/>
</g>
</svg>
