<?xml version="1.0" encoding="UTF-8"?>
<svg xmlns="http://www.w3.org/2000/svg" xmlns:xlink="http://www.w3.org/1999/xlink" width="24" height="24" viewBox="0 0 24 24" version="1.1">
<g id="surface1">
<path style=" stroke:none;fill-rule:nonzero;fill:rgb(100%,100%,100%);fill-opacity:1;" d="M 8.125 4.4375 C 5.839844 4.4375 4.203125 5.8125 4.203125 8.046875 L 4.203125 10 L 3.5625 10 C 2.910156 10 2.578125 10.328125 2.578125 10.984375 L 2.578125 16.546875 C 2.578125 16.867188 2.910156 17.53125 3.5625 17.53125 L 13.140625 17.53125 C 13.667969 17.527344 14 16.867188 14 16.546875 L 14 10.984375 C 14 10.328125 13.667969 10 13.015625 10 L 12.359375 10 L 12.359375 8.046875 C 12.359375 5.753906 10.738281 4.4375 8.453125 4.4375 Z M 17.609375 4.625 C 17.160156 4.675781 16.824219 5.082031 16.875 5.53125 C 16.925781 5.980469 17.332031 6.300781 17.78125 6.25 C 18.230469 6.199219 18.566406 5.792969 18.515625 5.34375 C 18.464844 4.894531 18.058594 4.574219 17.609375 4.625 Z M 8.125 6.078125 L 8.453125 6.078125 C 10.738281 6.078125 10.734375 8.03125 10.734375 8.6875 L 10.734375 10 L 5.84375 10 L 5.84375 8.6875 C 5.84375 8.03125 5.839844 6.078125 8.125 6.078125 Z M 20.0625 8.15625 C 19.433594 8.226562 18.992188 8.808594 19.0625 9.4375 C 19.132812 10.066406 19.699219 10.507812 20.328125 10.4375 C 20.957031 10.367188 21.414062 9.800781 21.34375 9.171875 C 21.273438 8.542969 20.691406 8.085938 20.0625 8.15625 Z M 19.78125 13.140625 C 18.949219 13.234375 18.34375 13.996094 18.4375 14.828125 C 18.53125 15.660156 19.292969 16.25 20.125 16.15625 C 20.957031 16.0625 21.546875 15.316406 21.453125 14.484375 C 21.359375 13.652344 20.613281 13.046875 19.78125 13.140625 Z M 16.921875 17.921875 C 15.878906 17.921875 15.046875 18.769531 15.046875 19.8125 C 15.046875 20.855469 15.878906 21.703125 16.921875 21.703125 C 17.964844 21.703125 18.8125 20.855469 18.8125 19.8125 C 18.8125 18.769531 17.964844 17.921875 16.921875 17.921875 Z M 10.890625 18.796875 C 9.59375 18.945312 8.652344 20.121094 8.796875 21.421875 C 8.945312 22.722656 10.121094 23.644531 11.421875 23.5 C 12.71875 23.351562 13.648438 22.1875 13.5 20.890625 C 13.351562 19.589844 12.191406 18.648438 10.890625 18.796875 Z M 10.890625 18.796875 "/>
</g>
</svg>
