<?xml version="1.0" encoding="UTF-8"?>
<svg xmlns="http://www.w3.org/2000/svg" xmlns:xlink="http://www.w3.org/1999/xlink" width="24" height="24" viewBox="0 0 24 24" version="1.1">
<g id="surface1">
<path style=" stroke:none;fill-rule:nonzero;fill:rgb(100%,100%,100%);fill-opacity:1;" d="M 8.125 4.4375 C 5.839844 4.4375 4.203125 5.8125 4.203125 8.046875 L 4.203125 10 L 3.5625 10 C 2.910156 10 2.578125 10.328125 2.578125 10.984375 L 2.578125 16.546875 C 2.578125 16.867188 2.910156 17.53125 3.5625 17.53125 L 4.984375 17.53125 C 5.210938 18.253906 5.921875 18.742188 6.703125 18.65625 C 7.355469 18.582031 7.875 18.121094 8.0625 17.53125 L 13.140625 17.53125 C 13.667969 17.527344 14 16.867188 14 16.546875 L 14 10.984375 C 14 10.328125 13.667969 10 13.015625 10 L 12.359375 10 L 12.359375 8.046875 C 12.359375 5.753906 10.738281 4.4375 8.453125 4.4375 Z M 8.125 6.078125 L 8.453125 6.078125 C 10.738281 6.078125 10.734375 8.03125 10.734375 8.6875 L 10.734375 10 L 5.84375 10 L 5.84375 8.6875 C 5.84375 8.03125 5.839844 6.078125 8.125 6.078125 Z M 16.921875 19.03125 C 16.488281 19.03125 16.140625 19.378906 16.140625 19.8125 C 16.140625 20.246094 16.488281 20.59375 16.921875 20.59375 C 17.355469 20.59375 17.71875 20.246094 17.71875 19.8125 C 17.71875 19.378906 17.355469 19.03125 16.921875 19.03125 Z M 11.015625 20.015625 C 10.390625 20.085938 9.945312 20.65625 10.015625 21.28125 C 10.085938 21.90625 10.65625 22.351562 11.28125 22.28125 C 11.90625 22.210938 12.351562 21.640625 12.28125 21.015625 C 12.210938 20.390625 11.640625 19.945312 11.015625 20.015625 Z M 11.015625 20.015625 "/>
</g>
</svg>
