<?xml version="1.0" encoding="UTF-8"?>
<svg xmlns="http://www.w3.org/2000/svg" xmlns:xlink="http://www.w3.org/1999/xlink" width="16" height="16" viewBox="0 0 16 16" version="1.1">
<g id="surface1">
<path style=" stroke:none;fill-rule:nonzero;fill:rgb(74.509804%,74.509804%,74.509804%);fill-opacity:1;" d="M 12.910156 1 C 12.394531 1.046875 11.996094 1.480469 12 2 L 12 15 C 11.996094 15.359375 12.183594 15.695312 12.496094 15.878906 C 12.808594 16.058594 13.191406 16.058594 13.503906 15.878906 C 13.816406 15.695312 14.003906 15.359375 14 15 L 14 3 L 15 3 C 15.359375 3.003906 15.695312 2.816406 15.878906 2.503906 C 16.058594 2.191406 16.058594 1.808594 15.878906 1.496094 C 15.695312 1.183594 15.359375 0.996094 15 1 L 13 1 C 12.96875 1 12.9375 1 12.90625 1 Z M 12.910156 1 "/>
<path style=" stroke:none;fill-rule:nonzero;fill:rgb(74.509804%,74.509804%,74.509804%);fill-opacity:1;" d="M 13 6 L 13 9 L 16 9 L 16 6 Z M 14 7 L 15 7 L 15 8 L 14 8 Z M 14 7 "/>
<path style=" stroke:none;fill-rule:nonzero;fill:rgb(74.509804%,74.509804%,74.509804%);fill-opacity:1;" d="M 13 10 L 13 13 L 16 13 L 16 10 Z M 14 11 L 15 11 L 15 12 L 14 12 Z M 14 11 "/>
<path style=" stroke:none;fill-rule:nonzero;fill:rgb(74.509804%,74.509804%,74.509804%);fill-opacity:1;" d="M 0 4 L 0 16 L 10 16 L 10 14 L 11 14 L 11 12 L 8 12 L 8 14 L 2 14 L 2 6 L 5 6 L 5 4 Z M 0 4 "/>
<path style=" stroke:none;fill-rule:nonzero;fill:rgb(74.509804%,74.509804%,74.509804%);fill-opacity:1;" d="M 6 1 L 11 5 L 8 5 L 8 9.53125 L 6 9.53125 Z M 6 1 "/>
<path style=" stroke:none;fill-rule:nonzero;fill:rgb(74.509804%,74.509804%,74.509804%);fill-opacity:1;" d="M 7.992188 9.503906 C 7.992188 10.882812 6.875 12 5.496094 12 C 4.117188 12 3 10.882812 3 9.503906 C 3 8.125 4.117188 7.007812 5.496094 7.007812 C 6.875 7.007812 7.992188 8.125 7.992188 9.503906 Z M 7.992188 9.503906 "/>
<path style=" stroke:none;fill-rule:nonzero;fill:rgb(100%,100%,100%);fill-opacity:1;" d="M 5.308594 11.984375 C 4.632812 11.90625 4.132812 11.667969 3.703125 11.21875 C 3.5 11.007812 3.378906 10.828125 3.253906 10.570312 C 2.96875 9.972656 2.933594 9.296875 3.152344 8.671875 C 3.277344 8.316406 3.464844 8.027344 3.738281 7.753906 C 4.132812 7.359375 4.628906 7.109375 5.167969 7.039062 C 5.34375 7.015625 5.820312 7.023438 5.941406 7.054688 L 6 7.066406 L 6 1.007812 L 10.96875 4.984375 L 9.484375 4.992188 L 8.003906 4.996094 L 8.003906 7.210938 C 8.003906 9.539062 7.996094 9.71875 7.910156 10.085938 C 7.722656 10.882812 7.15625 11.523438 6.378906 11.828125 C 6.074219 11.949219 5.597656 12.015625 5.308594 11.984375 Z M 5.308594 11.984375 "/>
<path style=" stroke:none;fill-rule:nonzero;fill:rgb(100%,100%,100%);fill-opacity:1;" d="M 0.0078125 9.992188 L 0.0078125 4.003906 L 4.988281 4.003906 L 4.988281 5.988281 L 1.992188 5.988281 L 1.992188 14 L 8.003906 14 L 8.003906 11.996094 L 10.996094 11.996094 L 10.996094 14 L 9.984375 14 L 9.984375 15.984375 L 0.0078125 15.984375 Z M 0.0078125 9.992188 "/>
<path style=" stroke:none;fill-rule:nonzero;fill:rgb(100%,100%,100%);fill-opacity:1;" d="M 12.765625 15.976562 C 12.449219 15.898438 12.183594 15.65625 12.0625 15.347656 L 12.019531 15.230469 L 12.019531 1.761719 L 12.070312 1.644531 C 12.179688 1.371094 12.429688 1.136719 12.703125 1.050781 C 12.835938 1.011719 12.890625 1.007812 13.992188 1.007812 C 15.242188 1.007812 15.269531 1.011719 15.488281 1.128906 C 15.65625 1.21875 15.820312 1.394531 15.910156 1.582031 C 15.984375 1.742188 15.984375 1.746094 15.984375 2 C 15.984375 2.257812 15.984375 2.261719 15.910156 2.421875 C 15.820312 2.605469 15.65625 2.78125 15.488281 2.871094 C 15.296875 2.976562 15.171875 2.992188 14.554688 2.992188 L 13.992188 2.992188 L 13.992188 6.007812 L 15.996094 6.007812 L 15.996094 9.003906 L 13.992188 9.003906 L 13.992188 10.015625 L 15.996094 10.015625 L 15.996094 12.988281 L 13.992188 12.988281 L 13.992188 14.039062 C 13.992188 14.667969 13.984375 15.132812 13.972656 15.203125 C 13.867188 15.746094 13.300781 16.109375 12.765625 15.976562 Z M 15.003906 11.492188 L 15.003906 10.984375 L 14.503906 10.992188 L 14.003906 10.996094 L 13.996094 11.496094 L 13.992188 11.996094 L 15.003906 11.996094 Z M 15.003906 7.503906 L 15.003906 7 L 13.992188 7 L 13.992188 8.011719 L 15.003906 8.011719 Z M 15.003906 7.503906 "/>
</g>
</svg>
