<?xml version="1.0" encoding="UTF-8"?>
<svg xmlns="http://www.w3.org/2000/svg" xmlns:xlink="http://www.w3.org/1999/xlink" width="16" height="16" viewBox="0 0 16 16" version="1.1">
<g id="surface1">
<path style=" stroke:none;fill-rule:nonzero;fill:rgb(74.509804%,74.509804%,74.509804%);fill-opacity:1;" d="M 1 5 L 3.484375 5 L 6.453125 2 L 7 2.015625 L 7 14.015625 L 6.523438 14.015625 L 3.484375 11 L 1 11 Z M 1 5 "/>
<path style=" stroke:none;fill-rule:nonzero;fill:rgb(74.509804%,74.509804%,74.509804%);fill-opacity:1;" d="M 11.878906 1 C 11.65625 1.023438 11.445312 1.125 11.285156 1.28125 L 9.285156 3.28125 C 9.027344 3.539062 8.921875 3.914062 9.015625 4.265625 C 9.109375 4.617188 9.386719 4.894531 9.738281 4.988281 C 10.089844 5.082031 10.46875 4.980469 10.722656 4.71875 L 12.722656 2.71875 C 13.050781 2.417969 13.136719 1.9375 12.941406 1.539062 C 12.746094 1.144531 12.308594 0.921875 11.875 1 Z M 11.878906 1 "/>
<path style=" stroke:none;fill-rule:nonzero;fill:rgb(74.509804%,74.509804%,74.509804%);fill-opacity:1;" d="M 9.78125 11 C 9.40625 11.066406 9.105469 11.339844 8.996094 11.703125 C 8.890625 12.070312 9 12.460938 9.28125 12.71875 L 11.28125 14.71875 C 11.535156 14.980469 11.914062 15.082031 12.265625 14.988281 C 12.617188 14.894531 12.894531 14.617188 12.988281 14.265625 C 13.082031 13.914062 12.976562 13.539062 12.71875 13.28125 L 10.71875 11.28125 C 10.476562 11.03125 10.117188 10.921875 9.777344 11 Z M 9.78125 11 "/>
<path style=" stroke:none;fill-rule:nonzero;fill:rgb(74.509804%,74.509804%,74.509804%);fill-opacity:1;" d="M 9.910156 7 C 9.550781 7.011719 9.222656 7.214844 9.054688 7.535156 C 8.886719 7.855469 8.90625 8.242188 9.101562 8.542969 C 9.296875 8.847656 9.640625 9.019531 10 9 L 14.03125 9.03125 C 14.390625 9.035156 14.726562 8.847656 14.910156 8.535156 C 15.089844 8.222656 15.089844 7.839844 14.910156 7.527344 C 14.726562 7.214844 14.390625 7.027344 14.03125 7.03125 L 10 7 C 9.96875 7 9.9375 7 9.90625 7 Z M 9.910156 7 "/>
<path style=" stroke:none;fill-rule:nonzero;fill:rgb(74.509804%,74.509804%,74.509804%);fill-opacity:1;" d="M 9 4 L 10 4 L 10 5 L 9 5 Z M 9 4 "/>
<path style=" stroke:none;fill-rule:nonzero;fill:rgb(74.509804%,74.509804%,74.509804%);fill-opacity:1;" d="M 9 11 L 10 11 L 10 12 L 9 12 Z M 9 11 "/>
<path style=" stroke:none;fill-rule:nonzero;fill:rgb(100%,100%,100%);fill-opacity:1;" d="M 5.003906 12.5 L 3.488281 10.996094 L 1 10.996094 L 1 5.011719 L 3.488281 5.011719 L 3.796875 4.699219 C 3.96875 4.523438 4.636719 3.847656 5.28125 3.195312 L 6.457031 2.007812 L 6.722656 2.015625 L 6.984375 2.023438 L 6.984375 14.007812 L 6.519531 14.007812 Z M 5.003906 12.5 "/>
<path style=" stroke:none;fill-rule:nonzero;fill:rgb(100%,100%,100%);fill-opacity:1;" d="M 9.429688 4.996094 L 9.011719 4.992188 L 9 4.460938 C 8.992188 3.871094 9 3.765625 9.09375 3.566406 C 9.152344 3.445312 9.25 3.335938 10.292969 2.296875 C 11.558594 1.03125 11.503906 1.078125 11.851562 1.011719 C 12.183594 0.953125 12.488281 1.042969 12.730469 1.277344 C 13.050781 1.585938 13.125 2.042969 12.917969 2.453125 C 12.871094 2.542969 12.648438 2.78125 11.75 3.683594 C 11.003906 4.429688 10.597656 4.820312 10.523438 4.867188 C 10.367188 4.960938 10.167969 5.011719 9.988281 5.007812 C 9.90625 5.003906 9.65625 5 9.429688 4.996094 Z M 9.429688 4.996094 "/>
<path style=" stroke:none;fill-rule:nonzero;fill:rgb(100%,100%,100%);fill-opacity:1;" d="M 10.636719 8.996094 C 9.757812 8.984375 9.714844 8.980469 9.609375 8.9375 C 9.25 8.792969 9.019531 8.507812 8.960938 8.140625 C 8.886719 7.644531 9.222656 7.148438 9.71875 7.03125 C 9.875 6.996094 14.0625 7.027344 14.253906 7.066406 C 14.449219 7.105469 14.621094 7.203125 14.761719 7.355469 C 14.945312 7.546875 15.03125 7.769531 15.03125 8.023438 C 15.035156 8.414062 14.816406 8.757812 14.460938 8.929688 L 14.300781 9.003906 L 12.929688 9.007812 C 12.171875 9.007812 11.140625 9 10.636719 8.996094 Z M 10.636719 8.996094 "/>
<path style=" stroke:none;fill-rule:nonzero;fill:rgb(100%,100%,100%);fill-opacity:1;" d="M 11.792969 14.988281 C 11.503906 14.925781 11.527344 14.945312 10.289062 13.710938 C 9.261719 12.6875 9.144531 12.5625 9.078125 12.4375 C 8.992188 12.261719 8.960938 12.101562 8.976562 11.9375 C 8.980469 11.867188 8.992188 11.632812 9 11.417969 L 9.011719 11.023438 L 9.46875 11.007812 C 9.71875 10.996094 9.980469 10.992188 10.050781 10.992188 C 10.207031 10.996094 10.398438 11.054688 10.527344 11.136719 C 10.582031 11.171875 11.125 11.699219 11.730469 12.3125 C 12.546875 13.128906 12.851562 13.449219 12.890625 13.527344 C 13.203125 14.121094 12.867188 14.851562 12.210938 14.992188 C 12.042969 15.027344 11.964844 15.027344 11.792969 14.988281 Z M 11.792969 14.988281 "/>
</g>
</svg>
