<?xml version="1.0" encoding="UTF-8"?>
<svg xmlns="http://www.w3.org/2000/svg" xmlns:xlink="http://www.w3.org/1999/xlink" width="16" height="16" viewBox="0 0 16 16" version="1.1">
<g id="surface1">
<path style=" stroke:none;fill-rule:nonzero;fill:rgb(74.509804%,74.509804%,74.509804%);fill-opacity:1;" d="M 3.988281 9.109375 C 4.933594 8.832031 5.941406 9.40625 6.242188 10.390625 L 6.917969 12.617188 C 7.214844 13.601562 6.691406 14.625 5.746094 14.902344 C 4.800781 15.179688 3.789062 14.601562 3.492188 13.617188 L 2.816406 11.394531 C 2.519531 10.410156 3.042969 9.386719 3.988281 9.109375 Z M 3.988281 9.109375 "/>
<path style=" stroke:none;fill-rule:nonzero;fill:rgb(74.509804%,74.509804%,74.509804%);fill-opacity:1;" d="M 7.96875 1 C 4.664062 1 1.945312 4.007812 2 6.71875 C 2.046875 9.085938 2.808594 11.414062 3 12 L 4.527344 12 C 3.363281 9.707031 3.476562 6.84375 3.476562 6.84375 C 3.476562 4.472656 5.484375 2.53125 7.96875 2.53125 C 10.453125 2.53125 12.46875 4.359375 12.460938 6.8125 C 12.4375 8.488281 12.289062 9.472656 11.457031 12 L 13.027344 12 C 13.25 11.355469 14 8.808594 14 6.71875 C 14 3.890625 11.273438 1 7.96875 1 Z M 7.96875 1 "/>
<path style=" stroke:none;fill-rule:nonzero;fill:rgb(74.509804%,74.509804%,74.509804%);fill-opacity:1;" d="M 12.011719 9.144531 C 11.066406 8.867188 10.058594 9.445312 9.757812 10.429688 L 9.082031 12.652344 C 8.785156 13.636719 9.308594 14.660156 10.253906 14.9375 C 11.199219 15.214844 12.210938 14.640625 12.507812 13.65625 L 13.183594 11.429688 C 13.480469 10.445312 12.957031 9.421875 12.011719 9.144531 Z M 12.011719 9.144531 "/>
<path style=" stroke:none;fill-rule:nonzero;fill:rgb(100%,100%,100%);fill-opacity:1;" d="M 10.566406 14.992188 C 9.789062 14.90625 9.183594 14.335938 9.03125 13.539062 C 9.003906 13.382812 9.007812 13.003906 9.039062 12.851562 C 9.066406 12.738281 9.523438 11.199219 9.730469 10.546875 C 9.78125 10.386719 9.855469 10.191406 9.894531 10.113281 C 10.0625 9.777344 10.351562 9.476562 10.675781 9.300781 C 10.933594 9.160156 11.210938 9.089844 11.527344 9.089844 C 11.746094 9.089844 11.910156 9.117188 12.101562 9.183594 C 12.171875 9.207031 12.234375 9.222656 12.234375 9.222656 C 12.246094 9.210938 12.308594 8.859375 12.34375 8.621094 C 12.464844 7.738281 12.496094 6.609375 12.414062 6.117188 C 12.210938 4.933594 11.582031 3.96875 10.582031 3.296875 C 9.425781 2.523438 7.855469 2.3125 6.527344 2.753906 C 5.804688 2.992188 5.203125 3.367188 4.679688 3.910156 C 4.015625 4.59375 3.617188 5.421875 3.496094 6.363281 C 3.464844 6.621094 3.46875 7.566406 3.507812 8.011719 C 3.550781 8.546875 3.640625 9.242188 3.667969 9.242188 C 3.675781 9.242188 3.730469 9.21875 3.792969 9.1875 C 4.425781 8.902344 5.222656 9.0625 5.75 9.582031 C 5.96875 9.804688 6.125 10.058594 6.230469 10.386719 C 6.335938 10.703125 6.910156 12.617188 6.949219 12.765625 C 6.992188 12.941406 7 13.34375 6.960938 13.527344 C 6.851562 14.089844 6.511719 14.539062 6.015625 14.78125 C 5.726562 14.925781 5.609375 14.949219 5.246094 14.949219 C 4.96875 14.949219 4.933594 14.945312 4.796875 14.902344 C 4.253906 14.738281 3.820312 14.367188 3.59375 13.863281 C 3.558594 13.792969 3.414062 13.34375 3.265625 12.863281 C 3.121094 12.382812 2.96875 11.882812 2.925781 11.75 C 2.484375 10.367188 2.175781 8.902344 2.054688 7.585938 C 2.015625 7.191406 2.003906 6.449219 2.027344 6.210938 C 2.152344 5.046875 2.738281 3.867188 3.675781 2.90625 C 4.707031 1.847656 5.984375 1.203125 7.371094 1.039062 C 7.648438 1.007812 8.234375 1.003906 8.507812 1.03125 C 9.496094 1.132812 10.433594 1.472656 11.257812 2.023438 C 12.6875 2.980469 13.683594 4.449219 13.933594 5.980469 C 13.988281 6.332031 14.003906 6.671875 13.984375 7.117188 C 13.9375 8.125 13.769531 9.1875 13.464844 10.441406 C 13.316406 11.046875 13.046875 11.976562 13.015625 12 C 13.007812 12.003906 12.882812 12.398438 12.738281 12.871094 C 12.59375 13.347656 12.453125 13.796875 12.421875 13.871094 C 12.335938 14.074219 12.171875 14.308594 11.996094 14.476562 C 11.679688 14.78125 11.316406 14.949219 10.894531 14.992188 C 10.792969 15 10.710938 15.007812 10.707031 15.007812 C 10.703125 15.003906 10.636719 14.996094 10.566406 14.992188 Z M 10.566406 14.992188 "/>
</g>
</svg>
