<?xml version="1.0" encoding="UTF-8"?>
<svg xmlns="http://www.w3.org/2000/svg" xmlns:xlink="http://www.w3.org/1999/xlink" width="16" height="16" viewBox="0 0 16 16" version="1.1">
<g id="surface1">
<path style=" stroke:none;fill-rule:nonzero;fill:rgb(74.509804%,74.509804%,74.509804%);fill-opacity:1;" d="M 3.5 5 C 3.222656 5 3 5.222656 3 5.5 L 3 8.46875 C 3 10.4375 4.257812 12.09375 6 12.71875 L 6 14 L 4 14 C 3.433594 14 3 14.492188 3 15 L 3 16 L 12 16 L 12 15 C 12 14.414062 11.523438 14 11 14 L 9 14 L 9 12.71875 C 10.742188 12.09375 12 10.4375 12 8.46875 L 12 5.5 C 12 5.222656 11.777344 5 11.5 5 C 11.222656 5 11 5.222656 11 5.5 C 11 5.570312 11.007812 5.628906 11.03125 5.6875 L 11.03125 8.46875 C 11.03125 10.433594 9.453125 12 7.5 12 C 5.546875 12 4 10.433594 4 8.46875 L 4 5.5 C 4 5.222656 3.777344 5 3.5 5 Z M 7.5 0.992188 C 8.882812 0.992188 10 2.105469 10 3.492188 L 10 8.5 C 10 9.882812 8.882812 11 7.5 11 C 6.117188 11 5 9.882812 5 8.5 L 5 3.488281 C 5 2.101562 6.117188 0.988281 7.5 0.988281 Z M 7.5 0.992188 "/>
<path style=" stroke:none;fill-rule:nonzero;fill:rgb(100%,100%,100%);fill-opacity:1;" d="M 7.191406 10.972656 C 6.9375 10.945312 6.660156 10.859375 6.398438 10.730469 C 6.113281 10.589844 5.9375 10.460938 5.726562 10.246094 C 5.515625 10.03125 5.410156 9.882812 5.269531 9.601562 C 5.136719 9.328125 5.058594 9.066406 5.023438 8.777344 C 4.996094 8.527344 4.996094 3.457031 5.023438 3.207031 C 5.132812 2.265625 5.765625 1.460938 6.65625 1.144531 C 6.992188 1.023438 7.3125 0.980469 7.679688 1.007812 C 8.296875 1.054688 8.820312 1.292969 9.257812 1.730469 C 9.609375 2.078125 9.824219 2.46875 9.941406 2.980469 C 9.984375 3.160156 9.984375 3.207031 9.992188 5.859375 C 9.996094 7.777344 9.992188 8.609375 9.976562 8.757812 C 9.875 9.632812 9.363281 10.367188 8.585938 10.742188 C 8.144531 10.953125 7.679688 11.03125 7.191406 10.972656 Z M 7.191406 10.972656 "/>
<path style=" stroke:none;fill-rule:nonzero;fill:rgb(100%,100%,100%);fill-opacity:1;" d="M 3 15.46875 C 3.003906 14.882812 3.019531 14.746094 3.128906 14.542969 C 3.210938 14.390625 3.375 14.222656 3.523438 14.136719 C 3.738281 14.011719 3.769531 14.007812 4.945312 14.007812 L 6.015625 14.007812 L 6.015625 12.714844 L 5.894531 12.671875 C 5.714844 12.605469 5.34375 12.421875 5.136719 12.289062 C 4.199219 11.710938 3.484375 10.761719 3.179688 9.707031 C 3.015625 9.121094 3 8.855469 3.007812 6.929688 C 3.011719 5.375 3.011719 5.371094 3.058594 5.289062 C 3.113281 5.179688 3.242188 5.066406 3.34375 5.03125 C 3.550781 4.964844 3.800781 5.058594 3.917969 5.25 L 3.980469 5.347656 L 3.992188 7.117188 C 4.007812 9.042969 4.003906 9.015625 4.132812 9.460938 C 4.535156 10.851562 5.695312 11.828125 7.132812 11.984375 C 7.925781 12.074219 8.769531 11.867188 9.4375 11.429688 C 10.234375 10.90625 10.742188 10.152344 10.972656 9.167969 C 11.019531 8.964844 11.019531 8.957031 11.023438 7.152344 L 11.027344 5.339844 L 11.085938 5.242188 C 11.199219 5.058594 11.453125 4.964844 11.660156 5.03125 C 11.757812 5.066406 11.886719 5.179688 11.945312 5.289062 L 11.988281 5.375 L 11.988281 7.085938 C 11.988281 8.882812 11.984375 8.972656 11.894531 9.402344 C 11.648438 10.550781 10.960938 11.558594 9.984375 12.214844 C 9.746094 12.371094 9.375 12.566406 9.136719 12.65625 L 8.984375 12.714844 L 8.984375 14.007812 L 10.054688 14.007812 C 10.9375 14.007812 11.144531 14.015625 11.242188 14.039062 C 11.570312 14.125 11.820312 14.355469 11.941406 14.683594 C 11.980469 14.792969 11.984375 14.855469 11.996094 15.398438 L 12.003906 15.992188 L 3 15.992188 Z M 3 15.46875 "/>
</g>
</svg>
