<?xml version="1.0" encoding="UTF-8"?>
<svg xmlns="http://www.w3.org/2000/svg" xmlns:xlink="http://www.w3.org/1999/xlink" width="16" height="16" viewBox="0 0 16 16" version="1.1">
<g id="surface1">
<path style=" stroke:none;fill-rule:nonzero;fill:rgb(74.509804%,74.509804%,74.509804%);fill-opacity:1;" d="M 2.03125 4 L 10 4 C 10.550781 4 11 4.449219 11 5 L 11 12 C 11 12.550781 10.550781 13 10 13 L 2.03125 13 C 1.476562 13 1.03125 12.550781 1.03125 12 L 1.03125 5 C 1.03125 4.449219 1.476562 4 2.03125 4 Z M 2.03125 4 "/>
<path style=" stroke:none;fill-rule:nonzero;fill:rgb(74.509804%,74.509804%,74.509804%);fill-opacity:1;" d="M 11 8.46875 L 14.46875 5 L 15 5 L 15 12 L 14.5 12 Z M 11 8.46875 "/>
<path style=" stroke:none;fill-rule:nonzero;fill:rgb(100%,100%,100%);fill-opacity:1;" d="M 1.835938 12.972656 C 1.578125 12.925781 1.289062 12.714844 1.167969 12.488281 C 1.03125 12.230469 1.039062 12.492188 1.039062 8.5 C 1.039062 5.355469 1.046875 4.859375 1.070312 4.757812 C 1.15625 4.429688 1.382812 4.183594 1.714844 4.058594 L 1.835938 4.011719 L 5.921875 4.003906 C 8.738281 4 10.054688 4.007812 10.152344 4.023438 C 10.53125 4.078125 10.84375 4.359375 10.957031 4.742188 C 10.984375 4.84375 10.988281 5.222656 10.988281 8.496094 C 10.988281 11.511719 10.984375 12.160156 10.960938 12.246094 C 10.863281 12.613281 10.546875 12.90625 10.171875 12.976562 C 10.015625 13.003906 1.988281 13.003906 1.835938 12.972656 Z M 1.835938 12.972656 "/>
<path style=" stroke:none;fill-rule:nonzero;fill:rgb(100%,100%,100%);fill-opacity:1;" d="M 12.753906 10.226562 L 11.007812 8.46875 L 14.464844 5.011719 L 14.992188 5.011719 L 14.992188 11.988281 L 14.5 11.988281 Z M 12.753906 10.226562 "/>
</g>
</svg>
