<?xml version="1.0" encoding="UTF-8"?>
<svg xmlns="http://www.w3.org/2000/svg" xmlns:xlink="http://www.w3.org/1999/xlink" width="16" height="16" viewBox="0 0 16 16" version="1.1">
<g id="surface1">
<path style=" stroke:none;fill-rule:nonzero;fill:rgb(74.509804%,74.509804%,74.509804%);fill-opacity:1;" d="M 11.5 1 C 13.433594 1 15 2.566406 15 4.5 C 15 5.621094 14.472656 6.609375 13.65625 7.25 C 13.867188 7.433594 14 7.699219 14 8 C 13.996094 10 14 11.050781 14 14 C 14 14.554688 13.554688 15 13 15 L 4 15 C 3.445312 15 3 14.554688 3 14 L 3 11.84375 L 0.4375 13.75 C 0.417969 13.761719 0.398438 13.773438 0.375 13.78125 C 0.34375 13.785156 0.3125 13.785156 0.28125 13.78125 C 0.261719 13.78125 0.238281 13.78125 0.21875 13.78125 C 0.195312 13.773438 0.175781 13.761719 0.15625 13.75 C 0.132812 13.742188 0.113281 13.730469 0.09375 13.71875 C 0.0820312 13.710938 0.0703125 13.699219 0.0625 13.6875 C 0.0507812 13.679688 0.0390625 13.667969 0.03125 13.65625 C 0.0195312 13.636719 0.0078125 13.617188 0 13.59375 C -0.00390625 13.574219 -0.00390625 13.550781 0 13.53125 L 0 7.46875 C -0.00390625 7.449219 -0.00390625 7.425781 0 7.40625 C 0.0078125 7.382812 0.0195312 7.363281 0.03125 7.34375 C 0.0429688 7.332031 0.0507812 7.320312 0.0625 7.3125 C 0.0742188 7.300781 0.0820312 7.289062 0.09375 7.28125 C 0.101562 7.269531 0.113281 7.257812 0.125 7.25 C 0.132812 7.238281 0.144531 7.226562 0.15625 7.21875 C 0.175781 7.207031 0.195312 7.195312 0.21875 7.1875 C 0.25 7.183594 0.28125 7.183594 0.3125 7.1875 C 0.324219 7.1875 0.332031 7.1875 0.34375 7.1875 C 0.355469 7.199219 0.367188 7.207031 0.375 7.21875 C 0.398438 7.226562 0.417969 7.238281 0.4375 7.25 L 3 9.15625 L 3 8 C 3 7.699219 3.132812 7.433594 3.34375 7.25 C 2.527344 6.609375 2 5.621094 2 4.5 C 2 2.566406 3.566406 1 5.5 1 C 6.78125 1 7.890625 1.6875 8.5 2.71875 C 9.109375 1.6875 10.214844 1 11.5 1 Z M 11.5 3 C 10.671875 3 10 3.671875 10 4.5 C 10 5.328125 10.671875 6 11.5 6 C 12.328125 6 13 5.328125 13 4.5 C 13 3.671875 12.328125 3 11.5 3 Z M 5.5 3 C 4.671875 3 4 3.671875 4 4.5 C 4 5.328125 4.671875 6 5.5 6 C 6.328125 6 7 5.328125 7 4.5 C 7 3.671875 6.328125 3 5.5 3 Z M 8.5 6.28125 C 8.339844 6.546875 8.160156 6.785156 7.9375 7 L 9.0625 7 C 8.839844 6.785156 8.65625 6.546875 8.5 6.28125 Z M 8.5 6.28125 "/>
<path style=" stroke:none;fill-rule:nonzero;fill:rgb(100%,100%,100%);fill-opacity:1;" d="M 3.839844 14.976562 C 3.554688 14.9375 3.257812 14.722656 3.128906 14.472656 C 3.011719 14.238281 3.015625 14.273438 3.003906 13.011719 L 2.992188 11.839844 L 1.835938 12.703125 C 1.199219 13.175781 0.609375 13.613281 0.527344 13.671875 C 0.355469 13.796875 0.289062 13.808594 0.15625 13.742188 C -0.00390625 13.660156 0.0078125 13.964844 0.0078125 10.492188 L 0.0078125 7.378906 L 0.101562 7.289062 C 0.207031 7.179688 0.296875 7.171875 0.417969 7.25 C 0.460938 7.277344 1.054688 7.71875 1.742188 8.226562 L 2.992188 9.160156 L 3.003906 8.484375 C 3.011719 7.902344 3.019531 7.792969 3.050781 7.703125 C 3.101562 7.5625 3.179688 7.433594 3.273438 7.335938 L 3.351562 7.25 L 3.171875 7.09375 C 2.699219 6.683594 2.304688 6.054688 2.136719 5.445312 C 2.039062 5.089844 2.023438 4.9375 2.023438 4.484375 C 2.023438 3.992188 2.050781 3.8125 2.195312 3.378906 C 2.566406 2.273438 3.484375 1.417969 4.621094 1.121094 C 5.609375 0.867188 6.671875 1.058594 7.5 1.644531 C 7.753906 1.824219 8.15625 2.226562 8.328125 2.46875 C 8.398438 2.578125 8.46875 2.679688 8.484375 2.695312 C 8.503906 2.726562 8.511719 2.71875 8.539062 2.664062 C 8.617188 2.519531 8.890625 2.179688 9.105469 1.976562 C 9.957031 1.152344 11.15625 0.828125 12.335938 1.109375 C 12.71875 1.199219 13.128906 1.382812 13.496094 1.632812 C 13.742188 1.800781 14.199219 2.257812 14.367188 2.503906 C 14.808594 3.164062 15.015625 3.863281 14.984375 4.628906 C 14.945312 5.605469 14.542969 6.453125 13.800781 7.117188 L 13.652344 7.25 L 13.722656 7.328125 C 13.824219 7.4375 13.890625 7.546875 13.945312 7.699219 L 13.992188 7.828125 L 13.996094 10.882812 C 14 12.847656 13.996094 14 13.980469 14.109375 C 13.929688 14.558594 13.582031 14.917969 13.144531 14.980469 C 12.964844 15.003906 4.015625 15.003906 3.839844 14.976562 Z M 8.917969 6.835938 C 8.832031 6.738281 8.703125 6.578125 8.636719 6.476562 C 8.566406 6.375 8.503906 6.292969 8.496094 6.292969 C 8.488281 6.292969 8.449219 6.34375 8.410156 6.40625 C 8.34375 6.515625 8.191406 6.714844 8.015625 6.914062 L 7.929688 7.015625 L 9.070312 7.015625 Z M 5.960938 5.929688 C 6.621094 5.710938 7.039062 5.097656 7 4.414062 C 6.96875 3.863281 6.644531 3.382812 6.148438 3.144531 C 5.921875 3.035156 5.769531 3 5.5 3 C 5.21875 3 5.070312 3.035156 4.816406 3.160156 C 4.671875 3.230469 4.609375 3.28125 4.445312 3.441406 C 4.285156 3.601562 4.234375 3.671875 4.160156 3.816406 C 4.035156 4.066406 4.003906 4.210938 4.003906 4.507812 C 4.003906 4.707031 4.011719 4.78125 4.050781 4.90625 C 4.222656 5.460938 4.632812 5.847656 5.179688 5.972656 C 5.382812 6.019531 5.761719 6 5.960938 5.929688 Z M 11.824219 5.972656 C 12.003906 5.933594 12.257812 5.8125 12.429688 5.683594 C 12.671875 5.5 12.863281 5.210938 12.953125 4.898438 C 13.007812 4.703125 13.015625 4.347656 12.972656 4.164062 C 12.832031 3.601562 12.398438 3.167969 11.835938 3.027344 C 11.675781 2.988281 11.300781 2.992188 11.132812 3.039062 C 10.695312 3.152344 10.339844 3.445312 10.140625 3.867188 C 9.929688 4.296875 9.953125 4.847656 10.199219 5.257812 C 10.414062 5.617188 10.773438 5.882812 11.183594 5.972656 C 11.351562 6.007812 11.648438 6.007812 11.824219 5.972656 Z M 11.824219 5.972656 "/>
</g>
</svg>
