<?xml version="1.0" encoding="UTF-8"?>
<svg xmlns="http://www.w3.org/2000/svg" xmlns:xlink="http://www.w3.org/1999/xlink" width="16" height="16" viewBox="0 0 16 16" version="1.1">
<g id="surface1">
<path style=" stroke:none;fill-rule:nonzero;fill:rgb(74.509804%,74.509804%,74.509804%);fill-opacity:1;" d="M 6 2 C 5.449219 2 5 2.449219 5 3 L 5 4 L 2 4 C 1.449219 4 1 4.449219 1 5 L 1 13 C 1 13.550781 1.449219 14 2 14 L 14 14 C 14.550781 14 15 13.550781 15 13 L 15 5 C 15 4.449219 14.550781 4 14 4 L 11 4 L 11 3 C 11 2.449219 10.550781 2 10 2 Z M 8 5 C 10.210938 5 12 6.789062 12 9 C 12 11.210938 10.210938 13 8 13 C 5.789062 13 4 11.210938 4 9 C 4 6.789062 5.789062 5 8 5 Z M 8 7 C 6.894531 7 6 7.894531 6 9 C 6 10.105469 6.894531 11 8 11 C 9.105469 11 10 10.105469 10 9 C 10 7.894531 9.105469 7 8 7 Z M 8 7 "/>
<path style=" stroke:none;fill-rule:nonzero;fill:rgb(100%,100%,100%);fill-opacity:1;" d="M 7.726562 10.976562 C 6.941406 10.867188 6.285156 10.28125 6.070312 9.5 C 6.03125 9.359375 6.023438 9.285156 6.027344 8.984375 C 6.027344 8.664062 6.03125 8.617188 6.085938 8.449219 C 6.25 7.902344 6.621094 7.460938 7.117188 7.21875 C 7.445312 7.058594 7.589844 7.027344 8.007812 7.027344 C 8.332031 7.027344 8.371094 7.03125 8.542969 7.082031 C 9.34375 7.328125 9.878906 7.960938 9.976562 8.777344 C 10.0625 9.511719 9.722656 10.242188 9.097656 10.65625 C 8.886719 10.796875 8.738281 10.863281 8.492188 10.925781 C 8.269531 10.984375 7.9375 11.003906 7.726562 10.976562 Z M 7.726562 10.976562 "/>
<path style=" stroke:none;fill-rule:nonzero;fill:rgb(100%,100%,100%);fill-opacity:1;" d="M 1.75 13.957031 C 1.421875 13.867188 1.164062 13.628906 1.054688 13.304688 L 1.011719 13.171875 L 1.003906 9.109375 C 1 6.394531 1.003906 4.988281 1.019531 4.878906 C 1.074219 4.445312 1.417969 4.089844 1.847656 4.023438 C 1.925781 4.007812 2.574219 4 3.492188 4 L 5.003906 4 L 5.003906 3.46875 C 5.003906 3.171875 5.011719 2.882812 5.023438 2.820312 C 5.101562 2.410156 5.460938 2.074219 5.878906 2.019531 C 5.988281 2.003906 6.757812 2 8.109375 2.003906 L 10.171875 2.007812 L 10.324219 2.0625 C 10.566406 2.152344 10.773438 2.332031 10.882812 2.550781 C 10.976562 2.734375 10.988281 2.839844 10.988281 3.4375 L 10.988281 4 L 12.59375 4.003906 L 14.195312 4.011719 L 14.335938 4.0625 C 14.5625 4.152344 14.726562 4.292969 14.855469 4.503906 C 15 4.746094 14.992188 4.453125 14.992188 9.007812 C 14.992188 13.523438 15 13.222656 14.867188 13.472656 C 14.757812 13.675781 14.558594 13.851562 14.335938 13.933594 L 14.21875 13.976562 L 8.039062 13.980469 C 2.765625 13.984375 1.839844 13.980469 1.75 13.957031 Z M 8.550781 12.96875 C 10.054688 12.753906 11.3125 11.710938 11.792969 10.28125 C 11.941406 9.835938 12 9.472656 12 8.992188 C 12 8.324219 11.851562 7.726562 11.542969 7.136719 C 10.527344 5.207031 8.164062 4.445312 6.210938 5.421875 C 4.726562 6.160156 3.847656 7.746094 4.015625 9.390625 C 4.199219 11.222656 5.589844 12.683594 7.417969 12.964844 C 7.679688 13.003906 8.277344 13.007812 8.550781 12.96875 Z M 8.550781 12.96875 "/>
</g>
</svg>
