<?xml version="1.0" encoding="UTF-8"?>
<svg xmlns="http://www.w3.org/2000/svg" xmlns:xlink="http://www.w3.org/1999/xlink" width="16" height="16" viewBox="0 0 16 16" version="1.1">
<g id="surface1">
<path style=" stroke:none;fill-rule:nonzero;fill:rgb(74.509804%,74.509804%,74.509804%);fill-opacity:1;" d="M 7.058594 0.0117188 C 6.605469 0.0585938 6.175781 0.230469 5.808594 0.507812 C 5.320312 0.882812 4.996094 1.464844 4.996094 2.195312 L 4.996094 7.507812 C 4.996094 7.507812 5.234375 8.015625 5.496094 8.015625 C 5.761719 8.015625 5.996094 7.507812 5.996094 7.507812 L 5.996094 2.195312 C 5.996094 1.75 6.167969 1.492188 6.433594 1.289062 C 6.699219 1.089844 7.097656 0.992188 7.496094 1.007812 C 7.894531 1.027344 8.28125 1.164062 8.558594 1.414062 C 8.839844 1.667969 9.027344 2 9.027344 2.539062 C 9.027344 4.707031 10.492188 6.050781 12.027344 6.011719 C 12.886719 5.988281 13.714844 5.53125 14.277344 4.699219 L 13.714844 3.699219 C 13.339844 4.613281 12.648438 4.992188 11.996094 5.011719 C 11.039062 5.035156 10.027344 4.28125 10.027344 2.539062 C 10.027344 1.75 9.691406 1.097656 9.214844 0.664062 C 8.742188 0.234375 8.136719 0.0390625 7.527344 0.0117188 C 7.375 0.00390625 7.210938 -0.0078125 7.058594 0.0117188 Z M 13.996094 2.007812 C 13.996094 2.054688 14 2.089844 13.996094 2.132812 L 14.777344 3.507812 C 14.789062 3.46875 14.800781 3.425781 14.808594 3.382812 Z M 13.996094 2.351562 C 13.992188 2.460938 13.976562 2.566406 13.964844 2.664062 L 14.683594 3.886719 C 14.707031 3.824219 14.726562 3.761719 14.746094 3.699219 Z M 13.933594 2.851562 C 13.921875 2.945312 13.890625 3.019531 13.871094 3.101562 L 14.527344 4.226562 C 14.558594 4.167969 14.59375 4.105469 14.621094 4.039062 Z M 13.839844 3.289062 C 13.816406 3.378906 13.777344 3.460938 13.746094 3.539062 L 14.339844 4.570312 C 14.382812 4.507812 14.429688 4.453125 14.464844 4.382812 Z M 13.839844 3.289062 "/>
<path style=" stroke:none;fill-rule:nonzero;fill:rgb(74.509804%,74.509804%,74.509804%);fill-opacity:1;" d="M 2.726562 6.007812 L 8.273438 6.007812 C 8.675781 6.007812 9 6.335938 9 6.738281 L 9 13.28125 C 9 13.683594 8.675781 14.007812 8.273438 14.007812 L 2.726562 14.007812 C 2.324219 14.007812 2 13.683594 2 13.28125 L 2 6.738281 C 2 6.335938 2.324219 6.007812 2.726562 6.007812 Z M 2.726562 6.007812 "/>
<path style=" stroke:none;fill-rule:nonzero;fill:rgb(100%,100%,100%);fill-opacity:1;" d="M 2.519531 13.972656 C 2.289062 13.898438 2.113281 13.726562 2.042969 13.496094 C 2.007812 13.390625 2.007812 13.328125 2.007812 10.003906 C 2.007812 6.640625 2.007812 6.617188 2.042969 6.515625 C 2.109375 6.3125 2.230469 6.179688 2.425781 6.085938 L 2.554688 6.023438 L 3.777344 6.019531 L 5.003906 6.015625 L 5.007812 3.945312 C 5.015625 1.660156 5.007812 1.824219 5.121094 1.476562 C 5.296875 0.949219 5.683594 0.53125 6.234375 0.261719 C 6.597656 0.0859375 6.816406 0.03125 7.207031 0.015625 C 8.394531 -0.0234375 9.316406 0.484375 9.769531 1.425781 C 9.941406 1.78125 10 2.039062 10.023438 2.566406 C 10.050781 3.222656 10.128906 3.574219 10.335938 3.988281 C 10.585938 4.480469 11.027344 4.839844 11.535156 4.964844 C 11.710938 5.007812 12.019531 5.023438 12.195312 4.996094 C 12.628906 4.933594 13.058594 4.6875 13.339844 4.34375 C 13.460938 4.191406 13.632812 3.917969 13.679688 3.796875 C 13.695312 3.757812 13.710938 3.726562 13.714844 3.726562 C 13.722656 3.726562 13.851562 3.945312 14 4.210938 L 14.273438 4.695312 L 14.199219 4.800781 C 13.78125 5.386719 13.152344 5.804688 12.476562 5.953125 C 12.332031 5.984375 12.253906 5.992188 11.960938 5.992188 C 11.671875 5.992188 11.59375 5.984375 11.449219 5.953125 C 10.570312 5.761719 9.835938 5.164062 9.417969 4.296875 C 9.25 3.953125 9.121094 3.515625 9.070312 3.105469 C 9.058594 3.023438 9.042969 2.800781 9.035156 2.601562 C 9.015625 2.1875 8.992188 2.058594 8.875 1.828125 C 8.652344 1.371094 8.183594 1.074219 7.585938 1.011719 C 7.203125 0.972656 6.78125 1.058594 6.507812 1.238281 C 6.304688 1.367188 6.148438 1.546875 6.070312 1.738281 C 5.992188 1.941406 5.992188 1.949219 5.992188 4.046875 L 5.992188 6.015625 L 7.175781 6.015625 C 8.480469 6.015625 8.46875 6.015625 8.648438 6.121094 C 8.828125 6.230469 8.953125 6.425781 8.984375 6.644531 C 9.007812 6.804688 9.007812 13.226562 8.984375 13.382812 C 8.945312 13.660156 8.742188 13.894531 8.484375 13.96875 C 8.402344 13.992188 8.09375 13.996094 5.488281 13.996094 C 3.195312 13.996094 2.570312 13.988281 2.519531 13.972656 Z M 2.519531 13.972656 "/>
</g>
</svg>
