<?xml version="1.0" encoding="UTF-8"?>
<svg xmlns="http://www.w3.org/2000/svg" xmlns:xlink="http://www.w3.org/1999/xlink" width="16" height="16" viewBox="0 0 16 16" version="1.1">
<g id="surface1">
<path style=" stroke:none;fill-rule:nonzero;fill:rgb(74.509804%,74.509804%,74.509804%);fill-opacity:1;" d="M 2.46875 1 C 1.648438 1 1 1.648438 1 2.46875 L 1 13.53125 C 1 14.351562 1.648438 15 2.46875 15 L 11.53125 15 C 12.351562 15 13 14.351562 13 13.53125 L 13 2.46875 C 13 1.648438 12.351562 1 11.53125 1 Z M 2 2 L 12 2 L 12 13 L 2 13 Z M 2 2 "/>
<path style=" stroke:none;fill-rule:nonzero;fill:rgb(100%,100%,100%);fill-opacity:1;" d="M 2.269531 14.976562 C 1.675781 14.890625 1.222656 14.492188 1.054688 13.914062 L 1.011719 13.75 L 1.003906 8.128906 C 1 4.269531 1.003906 2.445312 1.019531 2.3125 C 1.085938 1.726562 1.457031 1.265625 2.023438 1.074219 L 2.1875 1.019531 L 6.902344 1.011719 C 10.382812 1.007812 11.65625 1.011719 11.773438 1.03125 C 12.304688 1.113281 12.734375 1.476562 12.921875 2.007812 L 12.980469 2.175781 L 12.984375 7.9375 C 12.992188 13.660156 12.992188 13.707031 12.949219 13.878906 C 12.886719 14.144531 12.765625 14.359375 12.566406 14.554688 C 12.308594 14.8125 12.0625 14.933594 11.710938 14.976562 C 11.496094 15.003906 2.453125 15.003906 2.269531 14.976562 Z M 12 7.5 L 12 2 L 1.992188 2 L 1.992188 13 L 12 13 Z M 12 7.5 "/>
</g>
</svg>
