<?xml version="1.0" encoding="UTF-8"?>
<svg xmlns="http://www.w3.org/2000/svg" xmlns:xlink="http://www.w3.org/1999/xlink" width="16" height="16" viewBox="0 0 16 16" version="1.1">
<g id="surface1">
<path style=" stroke:none;fill-rule:nonzero;fill:rgb(74.509804%,74.509804%,74.509804%);fill-opacity:1;" d="M 1 5 C 0.449219 5 0.00390625 5.523438 0.00390625 6.15625 L 0.00390625 10.71875 C 0.00390625 11.351562 0.417969 12 0.96875 12 L 1.972656 12 C 1.972656 12.632812 2.445312 13 3 13 L 3.992188 13 C 4.546875 13 4.96875 12.632812 4.96875 12 L 10.960938 12 C 10.960938 12.632812 11.425781 13 11.976562 13 L 12.972656 13 C 13.523438 13 13.96875 12.632812 13.96875 12 L 14.972656 12 C 15.523438 12 15.96875 11.351562 15.96875 10.71875 L 15.96875 6.15625 C 15.960938 5.515625 15.519531 4.996094 14.960938 4.996094 Z M 1.5 6.191406 C 1.773438 6.191406 2 7.117188 2 8.5 C 2 9.882812 1.773438 10.738281 1.5 10.738281 C 1.222656 10.738281 1 9.882812 1 8.5 C 1 7.117188 1.222656 6.191406 1.5 6.191406 Z M 3.496094 6.191406 C 3.769531 6.191406 3.992188 7.3125 3.992188 8.691406 C 3.992188 10.074219 3.734375 10.734375 3.460938 10.734375 C 3.183594 10.734375 2.996094 9.882812 2.996094 8.5 C 2.996094 7.117188 3.21875 6.191406 3.496094 6.191406 Z M 5.457031 6.191406 C 5.730469 6.191406 5.992188 7.117188 5.992188 8.5 C 5.992188 9.882812 5.765625 10.734375 5.492188 10.734375 C 5.214844 10.734375 4.992188 9.882812 4.992188 8.5 C 4.992188 7.117188 5.179688 6.191406 5.457031 6.191406 Z M 12.476562 6 C 13.855469 6 14.972656 7.121094 14.972656 8.5 C 14.972656 9.882812 13.855469 11 12.476562 11 C 11.097656 11 9.980469 9.882812 9.980469 8.5 C 9.980469 7.121094 11.097656 6 12.476562 6 Z M 12.476562 6 "/>
<path style=" stroke:none;fill-rule:nonzero;fill:rgb(74.509804%,74.509804%,74.509804%);fill-opacity:1;" d="M 13.96875 8.5 C 13.96875 9.328125 13.296875 10 12.46875 10 C 11.640625 10 10.96875 9.328125 10.96875 8.5 C 10.96875 7.671875 11.640625 7 12.46875 7 C 13.296875 7 13.96875 7.671875 13.96875 8.5 Z M 13.96875 8.5 "/>
<path style=" stroke:none;fill-rule:nonzero;fill:rgb(100%,100%,100%);fill-opacity:1;" d="M 2.804688 12.976562 C 2.566406 12.9375 2.402344 12.847656 2.242188 12.679688 C 2.121094 12.550781 2.019531 12.355469 2 12.214844 C 1.992188 12.164062 1.984375 12.089844 1.976562 12.054688 L 1.96875 11.988281 L 1.375 11.984375 L 0.78125 11.976562 L 0.660156 11.917969 C 0.414062 11.804688 0.175781 11.492188 0.0664062 11.140625 L 0.0195312 10.984375 L 0.015625 8.515625 C 0.0078125 5.757812 0 5.882812 0.152344 5.578125 C 0.257812 5.363281 0.417969 5.199219 0.625 5.097656 L 0.78125 5.023438 L 15.191406 5.023438 L 15.347656 5.097656 C 15.632812 5.242188 15.859375 5.550781 15.929688 5.894531 C 15.957031 6.023438 15.960938 6.378906 15.957031 8.515625 L 15.953125 10.984375 L 15.902344 11.132812 C 15.78125 11.492188 15.550781 11.789062 15.289062 11.917969 L 15.167969 11.976562 L 14.5625 11.984375 L 13.960938 11.988281 L 13.960938 12.0625 C 13.960938 12.191406 13.898438 12.414062 13.824219 12.539062 C 13.730469 12.695312 13.609375 12.804688 13.433594 12.886719 C 13.21875 12.988281 13.074219 13.003906 12.375 12.992188 C 11.800781 12.988281 11.753906 12.984375 11.628906 12.9375 C 11.257812 12.808594 11.03125 12.53125 10.980469 12.148438 L 10.960938 11.988281 L 4.960938 11.988281 L 4.960938 12.0625 C 4.960938 12.1875 4.90625 12.398438 4.835938 12.527344 C 4.710938 12.757812 4.460938 12.929688 4.179688 12.976562 C 4.019531 13 2.957031 13 2.804688 12.976562 Z M 12.921875 10.964844 C 13.402344 10.878906 13.832031 10.660156 14.1875 10.320312 C 15.195312 9.367188 15.242188 7.796875 14.289062 6.78125 C 13.636719 6.082031 12.597656 5.820312 11.683594 6.125 C 10.945312 6.375 10.351562 6.96875 10.101562 7.710938 C 9.902344 8.304688 9.949219 9.046875 10.226562 9.597656 C 10.734375 10.617188 11.808594 11.160156 12.921875 10.964844 Z M 1.578125 10.71875 C 1.75 10.628906 1.902344 10.113281 1.972656 9.367188 C 2.003906 9.035156 2.003906 7.945312 1.972656 7.613281 C 1.867188 6.515625 1.625 5.972656 1.371094 6.265625 C 1.132812 6.53125 1 7.34375 1 8.488281 C 1 9.660156 1.144531 10.476562 1.386719 10.6875 C 1.464844 10.757812 1.492188 10.761719 1.578125 10.71875 Z M 3.574219 10.695312 C 3.734375 10.59375 3.859375 10.257812 3.941406 9.714844 C 3.988281 9.421875 4.003906 8.320312 3.972656 7.875 C 3.90625 6.921875 3.734375 6.269531 3.53125 6.199219 C 3.4375 6.167969 3.375 6.21875 3.285156 6.394531 C 3.089844 6.777344 2.996094 7.472656 2.996094 8.507812 C 2.996094 9.335938 3.054688 9.957031 3.167969 10.324219 C 3.28125 10.6875 3.402344 10.800781 3.574219 10.695312 Z M 5.65625 10.636719 C 5.773438 10.476562 5.882812 10.082031 5.945312 9.550781 C 6 9.121094 6 7.914062 5.945312 7.492188 C 5.863281 6.832031 5.742188 6.414062 5.582031 6.253906 C 5.375 6.046875 5.183594 6.34375 5.078125 7.054688 C 4.964844 7.804688 4.957031 8.96875 5.054688 9.707031 C 5.128906 10.242188 5.273438 10.640625 5.414062 10.710938 C 5.5 10.753906 5.582031 10.730469 5.65625 10.636719 Z M 5.65625 10.636719 "/>
<path style=" stroke:none;fill-rule:nonzero;fill:rgb(100%,100%,100%);fill-opacity:1;" d="M 12.105469 9.945312 C 11.699219 9.84375 11.34375 9.5625 11.144531 9.179688 C 10.929688 8.773438 10.929688 8.226562 11.144531 7.820312 C 11.410156 7.3125 11.90625 7.011719 12.472656 7.015625 C 13.714844 7.015625 14.398438 8.421875 13.640625 9.421875 C 13.457031 9.667969 13.152344 9.863281 12.832031 9.945312 C 12.628906 9.996094 12.316406 9.996094 12.105469 9.945312 Z M 12.105469 9.945312 "/>
</g>
</svg>
