<?xml version="1.0" encoding="UTF-8"?>
<svg xmlns="http://www.w3.org/2000/svg" xmlns:xlink="http://www.w3.org/1999/xlink" width="16" height="16" viewBox="0 0 16 16" version="1.1">
<g id="surface1">
<path style=" stroke:none;fill-rule:nonzero;fill:rgb(74.509804%,74.509804%,74.509804%);fill-opacity:1;" d="M 2.5 1 C 1.117188 1 0 2.117188 0 3.5 L 0 11.5 C 0 12.882812 1.117188 14 2.5 14 L 2.5 12 C 2.222656 12 2 11.777344 2 11.5 L 2 10 L 14 10 L 14 11.5 C 14 11.777344 13.777344 12 13.5 12 L 13.5 14 C 14.882812 14 16 12.882812 16 11.5 L 16 3.5 C 16 2.117188 14.882812 1 13.5 1 Z M 2.5 1 "/>
<path style=" stroke:none;fill-rule:nonzero;fill:rgb(74.509804%,74.509804%,74.509804%);fill-opacity:1;" d="M 2.878906 11.039062 C 2.878906 13.730469 5.179688 15.945312 7.996094 15.945312 C 10.8125 15.945312 13.128906 13.730469 13.128906 11.039062 L 11.113281 11.039062 C 11.113281 12.691406 9.726562 14.015625 7.996094 14.015625 C 6.265625 14.015625 4.898438 12.691406 4.898438 11.039062 Z M 2.878906 11.039062 "/>
<path style=" stroke:none;fill-rule:nonzero;fill:rgb(74.509804%,74.509804%,74.509804%);fill-opacity:1;" d="M 6 11 C 6 12.097656 6.902344 13 8 13 C 9.097656 13 10 12.097656 10 11 L 9 11 C 9 11.558594 8.558594 12 8 12 C 7.441406 12 7 11.558594 7 11 Z M 6 11 "/>
<path style=" stroke:none;fill-rule:nonzero;fill:rgb(100%,100%,100%);fill-opacity:1;" d="M 7.753906 12.976562 C 6.835938 12.855469 6.085938 12.082031 6.019531 11.1875 L 6.007812 11.015625 L 6.5 11.023438 L 6.996094 11.027344 L 7.007812 11.15625 C 7.042969 11.453125 7.261719 11.753906 7.550781 11.898438 C 8.164062 12.199219 8.875 11.835938 8.992188 11.164062 L 9.015625 11.015625 L 9.507812 11.015625 C 9.890625 11.015625 9.996094 11.023438 9.996094 11.042969 C 9.996094 11.148438 9.945312 11.441406 9.902344 11.582031 C 9.667969 12.335938 9.011719 12.878906 8.234375 12.976562 C 8.027344 13 7.941406 13 7.753906 12.976562 Z M 7.753906 12.976562 "/>
<path style=" stroke:none;fill-rule:nonzero;fill:rgb(100%,100%,100%);fill-opacity:1;" d="M 7.492188 15.914062 C 6.898438 15.859375 6.230469 15.667969 5.671875 15.394531 C 4.070312 14.601562 3.007812 13.046875 2.898438 11.34375 C 2.890625 11.191406 2.890625 11.0625 2.898438 11.054688 C 2.90625 11.042969 3.355469 11.039062 3.898438 11.042969 L 4.890625 11.046875 L 4.902344 11.265625 C 4.972656 12.296875 5.628906 13.246094 6.601562 13.710938 C 7.636719 14.203125 8.851562 14.109375 9.8125 13.46875 C 10.082031 13.292969 10.445312 12.925781 10.621094 12.65625 C 10.914062 12.214844 11.074219 11.746094 11.109375 11.242188 L 11.121094 11.046875 L 13.113281 11.039062 L 13.113281 11.210938 C 13.113281 11.910156 12.835938 12.824219 12.425781 13.488281 C 12.132812 13.957031 11.710938 14.4375 11.289062 14.777344 C 10.542969 15.382812 9.578125 15.785156 8.625 15.898438 C 8.382812 15.925781 7.722656 15.933594 7.492188 15.914062 Z M 7.492188 15.914062 "/>
<path style=" stroke:none;fill-rule:nonzero;fill:rgb(100%,100%,100%);fill-opacity:1;" d="M 2.074219 13.957031 C 1.011719 13.777344 0.160156 12.890625 0.03125 11.820312 C 0.0117188 11.675781 0.0078125 10.507812 0.015625 7.375 C 0.0234375 2.699219 0.0117188 3.078125 0.144531 2.6875 C 0.433594 1.828125 1.195312 1.1875 2.113281 1.039062 C 2.285156 1.011719 2.996094 1.007812 7.996094 1.007812 C 14.179688 1.007812 13.867188 1.003906 14.25 1.121094 C 14.644531 1.246094 14.945312 1.433594 15.261719 1.75 C 15.636719 2.125 15.835938 2.496094 15.941406 3.007812 C 15.980469 3.210938 15.980469 3.28125 15.980469 7.5 C 15.980469 11.714844 15.980469 11.789062 15.941406 11.988281 C 15.714844 13.09375 14.789062 13.910156 13.6875 13.984375 L 13.507812 13.996094 L 13.507812 12.011719 L 13.582031 11.996094 C 13.757812 11.964844 13.9375 11.8125 13.980469 11.65625 C 13.992188 11.617188 14 11.25 14 10.785156 L 14 9.984375 L 8 9.992188 L 2 9.996094 L 1.996094 10.769531 C 1.992188 11.316406 1.996094 11.570312 2.011719 11.632812 C 2.0625 11.8125 2.226562 11.964844 2.40625 11.996094 L 2.484375 12.011719 L 2.484375 13.988281 L 2.367188 13.988281 C 2.300781 13.984375 2.171875 13.972656 2.074219 13.957031 Z M 2.074219 13.957031 "/>
</g>
</svg>
