<?xml version="1.0" encoding="UTF-8"?>
<svg xmlns="http://www.w3.org/2000/svg" xmlns:xlink="http://www.w3.org/1999/xlink" width="16" height="16" viewBox="0 0 16 16" version="1.1">
<g id="surface1">
<path style=" stroke:none;fill-rule:nonzero;fill:rgb(74.509804%,74.509804%,74.509804%);fill-opacity:1;" d="M 3.660156 0 C 2.242188 0 1.066406 1.175781 1.066406 2.59375 L 1.066406 14.96875 L 15.066406 14.96875 L 15.066406 2.59375 C 15.066406 1.175781 13.890625 0 12.472656 0 L 3.652344 0 Z M 3.660156 2 L 12.472656 2 C 12.816406 2 13.066406 2.25 13.066406 2.59375 L 13.066406 12.96875 L 3.066406 12.96875 L 3.066406 2.59375 C 3.066406 2.253906 3.316406 2.003906 3.664062 2.003906 Z M 3.660156 2 "/>
<path style=" stroke:none;fill-rule:nonzero;fill:rgb(74.509804%,74.509804%,74.509804%);fill-opacity:1;" d="M 5 4.03125 L 5 5.03125 L 11 5.03125 L 11 4.03125 Z M 5 4.03125 "/>
<path style=" stroke:none;fill-rule:nonzero;fill:rgb(74.509804%,74.509804%,74.509804%);fill-opacity:1;" d="M 5 6 L 5 7 L 11 7 L 11 6 Z M 5 6 "/>
<path style=" stroke:none;fill-rule:nonzero;fill:rgb(74.509804%,74.509804%,74.509804%);fill-opacity:1;" d="M 5 8 L 5 9 L 11 9 L 11 8 Z M 5 8 "/>
<path style=" stroke:none;fill-rule:nonzero;fill:rgb(74.509804%,74.509804%,74.509804%);fill-opacity:1;" d="M 5 10 L 5 11 L 11 11 L 11 10 Z M 5 10 "/>
<path style=" stroke:none;fill-rule:nonzero;fill:rgb(100%,100%,100%);fill-opacity:1;" d="M 5.003906 10.5 L 5.003906 10.007812 L 10.988281 10.007812 L 10.988281 10.996094 L 5.003906 10.996094 Z M 5.003906 10.5 "/>
<path style=" stroke:none;fill-rule:nonzero;fill:rgb(100%,100%,100%);fill-opacity:1;" d="M 5.003906 8.5 L 5.003906 8.003906 L 10.988281 8.003906 L 10.988281 8.996094 L 5.003906 8.996094 Z M 5.003906 8.5 "/>
<path style=" stroke:none;fill-rule:nonzero;fill:rgb(100%,100%,100%);fill-opacity:1;" d="M 5.003906 6.496094 L 5.003906 6.003906 L 10.988281 6.003906 L 10.988281 6.992188 L 5.003906 6.992188 Z M 5.003906 6.496094 "/>
<path style=" stroke:none;fill-rule:nonzero;fill:rgb(100%,100%,100%);fill-opacity:1;" d="M 5.003906 4.539062 L 5.003906 4.042969 L 10.988281 4.042969 L 10.988281 5.03125 L 5.003906 5.03125 Z M 5.003906 4.539062 "/>
<path style=" stroke:none;fill-rule:nonzero;fill:rgb(100%,100%,100%);fill-opacity:1;" d="M 1.082031 8.648438 C 1.082031 3.042969 1.085938 2.3125 1.113281 2.152344 C 1.171875 1.816406 1.316406 1.460938 1.5 1.183594 C 1.617188 1.011719 1.660156 0.960938 1.851562 0.765625 C 2.21875 0.394531 2.691406 0.144531 3.230469 0.0429688 C 3.414062 0.0078125 3.695312 0.0078125 8.046875 0.0078125 C 11.789062 0.0078125 12.703125 0.0117188 12.84375 0.0351562 C 13.386719 0.121094 13.863281 0.359375 14.257812 0.742188 C 14.582031 1.054688 14.808594 1.417969 14.9375 1.832031 C 15.0625 2.222656 15.054688 1.785156 15.054688 8.65625 L 15.054688 14.960938 L 1.082031 14.960938 Z M 13.074219 7.738281 C 13.074219 3.128906 13.070312 2.488281 13.042969 2.398438 C 12.996094 2.246094 12.855469 2.09375 12.710938 2.039062 C 12.597656 2 12.585938 2 8.082031 2 C 2.964844 2 3.429688 1.984375 3.238281 2.171875 C 3.046875 2.367188 3.0625 1.78125 3.0625 7.730469 L 3.0625 12.976562 L 13.074219 12.976562 Z M 13.074219 7.738281 "/>
</g>
</svg>
