<?xml version="1.0" encoding="UTF-8"?>
<svg xmlns="http://www.w3.org/2000/svg" xmlns:xlink="http://www.w3.org/1999/xlink" width="16" height="16" viewBox="0 0 16 16" version="1.1">
<g id="surface1">
<path style=" stroke:none;fill-rule:nonzero;fill:rgb(74.509804%,74.509804%,74.509804%);fill-opacity:1;" d="M 3.191406 0 C 1.988281 0 1.003906 0.988281 1.003906 2.1875 L 1.003906 3 L 3.003906 3 L 3.003906 2.1875 C 3.003906 2.054688 3.066406 2 3.191406 2 L 12.816406 2 C 12.9375 2 13.003906 2.054688 13.003906 2.1875 L 13.003906 3 L 15.003906 3 L 15.003906 2.1875 C 15.003906 0.988281 14.015625 0 12.816406 0 Z M 3.191406 0 "/>
<path style=" stroke:none;fill-rule:nonzero;fill:rgb(74.509804%,74.509804%,74.509804%);fill-opacity:1;" d="M 3.191406 12 C 1.988281 12 1.003906 13.019531 1.003906 14.21875 L 1.003906 16.03125 L 3.003906 16.03125 L 3.003906 14.21875 C 3.003906 14.085938 3.066406 14 3.191406 14 L 12.816406 14 C 12.9375 14 13.003906 14.085938 13.003906 14.21875 L 13.003906 16 L 15.003906 16 L 15.003906 14.21875 C 14.992188 13.019531 14.003906 12 12.804688 12 L 3.179688 12 Z M 3.191406 12 "/>
<path style=" stroke:none;fill-rule:nonzero;fill:rgb(74.509804%,74.509804%,74.509804%);fill-opacity:1;" d="M 3.191406 4 C 1.988281 4 1.003906 4.988281 1.003906 6.1875 L 1.003906 7 L 3.003906 7 L 3.003906 6.1875 C 3.003906 6.054688 3.066406 6 3.191406 6 L 12.816406 6 C 12.9375 6 13.003906 6.054688 13.003906 6.1875 L 13.003906 7 L 15.003906 7 L 15.003906 6.1875 C 15.003906 4.988281 14.015625 4 12.816406 4 Z M 3.191406 4 "/>
<path style=" stroke:none;fill-rule:nonzero;fill:rgb(74.509804%,74.509804%,74.509804%);fill-opacity:1;" d="M 3.191406 8 C 1.988281 8 1.003906 8.988281 1.003906 10.1875 L 1.003906 11 L 3.003906 11 L 3.003906 10.1875 C 3.003906 10.054688 3.066406 10 3.191406 10 L 12.816406 10 C 12.9375 10 13.003906 10.054688 13.003906 10.1875 L 13.003906 11 L 15.003906 11 L 15.003906 10.1875 C 15.003906 8.988281 14.015625 8 12.816406 8 Z M 3.191406 8 "/>
<path style=" stroke:none;fill-rule:nonzero;fill:rgb(100%,100%,100%);fill-opacity:1;" d="M 1.007812 14.980469 C 1.015625 14.078125 1.023438 13.90625 1.054688 13.773438 C 1.214844 13.085938 1.640625 12.535156 2.253906 12.234375 C 2.527344 12.097656 2.734375 12.042969 3.050781 12.015625 C 3.375 11.988281 12.648438 11.988281 12.949219 12.015625 C 13.246094 12.042969 13.457031 12.097656 13.699219 12.210938 C 14.355469 12.523438 14.820312 13.125 14.957031 13.839844 C 14.980469 13.976562 14.988281 14.199219 14.988281 14.996094 L 14.988281 15.988281 L 13.003906 15.988281 L 13.003906 14.105469 L 12.902344 14.003906 L 3.101562 14.003906 L 3.050781 14.054688 L 3 14.109375 L 2.992188 15.070312 L 2.988281 16.03125 L 1 16.03125 Z M 1.007812 14.980469 "/>
<path style=" stroke:none;fill-rule:nonzero;fill:rgb(100%,100%,100%);fill-opacity:1;" d="M 1.003906 10.5625 C 1.003906 9.898438 1.046875 9.636719 1.21875 9.273438 C 1.34375 9.011719 1.457031 8.851562 1.652344 8.652344 C 2.003906 8.300781 2.445312 8.085938 2.933594 8.023438 C 3.167969 7.996094 12.824219 7.996094 13.066406 8.023438 C 13.953125 8.132812 14.671875 8.75 14.921875 9.625 C 14.96875 9.804688 14.972656 9.84375 14.984375 10.40625 L 14.992188 11.003906 L 13.003906 11.003906 L 13.003906 10.550781 C 13.003906 10.132812 13 10.09375 12.960938 10.046875 L 12.921875 10 L 3.09375 10 L 3.046875 10.046875 C 3 10.09375 3 10.105469 2.992188 10.546875 L 2.988281 11.003906 L 1.003906 11.003906 Z M 1.003906 10.5625 "/>
<path style=" stroke:none;fill-rule:nonzero;fill:rgb(100%,100%,100%);fill-opacity:1;" d="M 1.007812 6.4375 C 1.019531 5.828125 1.042969 5.675781 1.1875 5.332031 C 1.46875 4.660156 2.148438 4.136719 2.875 4.03125 C 2.996094 4.015625 4.410156 4.011719 8.097656 4.015625 L 13.15625 4.019531 L 13.355469 4.074219 C 14.066406 4.273438 14.617188 4.773438 14.863281 5.453125 C 14.96875 5.738281 14.988281 5.90625 14.988281 6.472656 L 14.988281 6.988281 L 13.003906 6.988281 L 13.003906 6.542969 C 13.003906 6.097656 13.003906 6.097656 12.953125 6.046875 L 12.902344 5.996094 L 8.007812 5.996094 C 4.851562 5.996094 3.097656 6.003906 3.074219 6.015625 C 3.003906 6.054688 2.988281 6.152344 2.988281 6.578125 L 2.988281 6.988281 L 1 6.988281 Z M 1.007812 6.4375 "/>
<path style=" stroke:none;fill-rule:nonzero;fill:rgb(100%,100%,100%);fill-opacity:1;" d="M 1.003906 2.566406 C 1.003906 2.332031 1.011719 2.058594 1.023438 1.960938 C 1.109375 1.207031 1.5625 0.5625 2.234375 0.234375 C 2.5 0.105469 2.742188 0.0390625 3.0625 0.015625 C 3.234375 0.00390625 5.0625 -0.00390625 8.203125 0.00390625 C 13.058594 0.0078125 13.074219 0.0078125 13.261719 0.0507812 C 13.929688 0.207031 14.464844 0.625 14.765625 1.226562 C 14.949219 1.597656 14.988281 1.8125 14.988281 2.480469 L 14.988281 2.996094 L 13.003906 2.996094 L 13.003906 2.546875 C 13.003906 2.042969 13 2.035156 12.867188 2.003906 C 12.734375 1.972656 3.203125 1.980469 3.113281 2.007812 C 3 2.050781 2.992188 2.089844 2.988281 2.566406 L 2.988281 2.996094 L 1.003906 2.996094 Z M 1.003906 2.566406 "/>
</g>
</svg>
