<?xml version="1.0" encoding="UTF-8"?>
<svg xmlns="http://www.w3.org/2000/svg" xmlns:xlink="http://www.w3.org/1999/xlink" width="16" height="16" viewBox="0 0 16 16" version="1.1">
<g id="surface1">
<path style=" stroke:none;fill-rule:nonzero;fill:rgb(74.509804%,74.509804%,74.509804%);fill-opacity:1;" d="M 3.988281 9.113281 C 4.933594 8.835938 5.941406 9.410156 6.242188 10.394531 L 6.914062 12.621094 C 7.214844 13.605469 6.6875 14.628906 5.742188 14.902344 C 4.796875 15.179688 3.789062 14.605469 3.492188 13.621094 L 2.816406 11.394531 C 2.515625 10.410156 3.042969 9.390625 3.988281 9.113281 Z M 3.988281 9.113281 "/>
<path style=" stroke:none;fill-rule:nonzero;fill:rgb(74.509804%,74.509804%,74.509804%);fill-opacity:1;" d="M 7.96875 1 C 4.664062 1 1.945312 4.007812 2 6.71875 C 2.050781 9.085938 2.808594 11.414062 3 12 L 4.527344 12 C 3.367188 9.707031 3.476562 6.84375 3.476562 6.84375 C 3.476562 4.472656 5.484375 2.53125 7.96875 2.53125 C 10.457031 2.53125 12.46875 4.359375 12.460938 6.8125 C 12.4375 8.488281 12.289062 9.472656 11.457031 12 L 13.027344 12 C 13.25 11.355469 14 8.808594 14 6.71875 C 14 3.890625 11.273438 1 7.96875 1 Z M 7.96875 1 "/>
<path style=" stroke:none;fill-rule:nonzero;fill:rgb(74.509804%,74.509804%,74.509804%);fill-opacity:1;" d="M 12.011719 9.136719 C 11.066406 8.863281 10.058594 9.4375 9.761719 10.421875 L 9.085938 12.648438 C 8.785156 13.632812 9.3125 14.652344 10.257812 14.929688 C 11.203125 15.207031 12.210938 14.632812 12.507812 13.648438 L 13.183594 11.421875 C 13.484375 10.4375 12.960938 9.414062 12.011719 9.136719 Z M 12.011719 9.136719 "/>
<path style=" stroke:none;fill-rule:nonzero;fill:rgb(100%,100%,100%);fill-opacity:1;" d="M 10.535156 14.976562 C 9.679688 14.867188 9.0625 14.183594 9.015625 13.296875 C 9.007812 13.15625 9.011719 13.035156 9.03125 12.914062 C 9.078125 12.660156 9.777344 10.359375 9.875 10.152344 C 9.980469 9.921875 10.105469 9.757812 10.300781 9.570312 C 10.796875 9.105469 11.480469 8.960938 12.109375 9.179688 C 12.179688 9.203125 12.238281 9.21875 12.242188 9.214844 C 12.257812 9.199219 12.347656 8.628906 12.378906 8.355469 C 12.46875 7.578125 12.488281 6.578125 12.425781 6.179688 C 12.144531 4.410156 10.875 3.078125 9.066406 2.648438 C 8.355469 2.484375 7.488281 2.492188 6.789062 2.679688 C 4.996094 3.148438 3.679688 4.648438 3.496094 6.414062 C 3.464844 6.714844 3.484375 7.839844 3.527344 8.25 C 3.570312 8.671875 3.644531 9.207031 3.660156 9.226562 C 3.667969 9.234375 3.738281 9.214844 3.816406 9.179688 C 4.160156 9.039062 4.632812 9.015625 4.984375 9.128906 C 5.527344 9.300781 5.957031 9.699219 6.171875 10.230469 C 6.246094 10.417969 6.941406 12.726562 6.964844 12.863281 C 6.992188 13.046875 6.988281 13.386719 6.953125 13.546875 C 6.816406 14.199219 6.394531 14.679688 5.789062 14.878906 C 5.535156 14.960938 5.167969 14.984375 4.914062 14.929688 C 4.355469 14.816406 3.855469 14.421875 3.609375 13.902344 C 3.570312 13.816406 3.429688 13.398438 3.300781 12.96875 C 3.171875 12.542969 3.011719 12.027344 2.949219 11.828125 C 2.382812 10.035156 2.058594 8.300781 2.019531 6.878906 C 2.003906 6.417969 2.023438 6.140625 2.09375 5.792969 C 2.445312 4.058594 3.765625 2.425781 5.488281 1.59375 C 6.367188 1.171875 7.234375 0.984375 8.160156 1.015625 C 9.425781 1.058594 10.597656 1.496094 11.671875 2.320312 C 11.953125 2.539062 12.507812 3.085938 12.730469 3.367188 C 13.601562 4.464844 14.046875 5.734375 13.992188 6.972656 C 13.941406 8.09375 13.773438 9.1875 13.453125 10.480469 C 13.296875 11.109375 13.097656 11.804688 13.019531 11.976562 C 13.003906 12.011719 12.871094 12.4375 12.722656 12.925781 C 12.433594 13.867188 12.371094 14.019531 12.179688 14.273438 C 11.859375 14.6875 11.363281 14.953125 10.84375 14.984375 C 10.746094 14.992188 10.609375 14.988281 10.535156 14.976562 Z M 10.535156 14.976562 "/>
</g>
</svg>
