<?xml version="1.0" encoding="UTF-8"?>
<svg xmlns="http://www.w3.org/2000/svg" xmlns:xlink="http://www.w3.org/1999/xlink" width="16" height="16" viewBox="0 0 16 16" version="1.1">
<g id="surface1">
<path style=" stroke:none;fill-rule:nonzero;fill:rgb(74.509804%,74.509804%,74.509804%);fill-opacity:1;" d="M 3.160156 4 C 1.414062 4 0.00390625 5.789062 0.00390625 8 C 0.00390625 10.210938 1.414062 12 3.160156 12 C 4.90625 12 6.316406 10.210938 6.316406 8 C 6.316406 5.789062 4.90625 4 3.160156 4 Z M 3.003906 6 L 4.003906 6 L 4.003906 7 L 5.003906 7 L 5.003906 8 L 4.003906 8 L 4.003906 9 L 3.003906 9 L 3.003906 8 L 2.003906 8 L 2.003906 7 L 3.003906 7 Z M 3.003906 6 "/>
<path style=" stroke:none;fill-rule:nonzero;fill:rgb(74.509804%,74.509804%,74.509804%);fill-opacity:1;" d="M 12.839844 4 C 11.09375 4 9.683594 5.789062 9.683594 8 C 9.683594 10.210938 11.09375 12 12.839844 12 C 14.585938 12 15.996094 10.210938 15.996094 8 C 15.996094 5.789062 14.585938 4 12.839844 4 Z M 11.496094 5.5 C 12.046875 5.5 12.496094 5.949219 12.496094 6.5 C 12.496094 7.050781 12.046875 7.5 11.496094 7.5 C 10.945312 7.5 10.496094 7.050781 10.496094 6.5 C 10.496094 5.949219 10.945312 5.5 11.496094 5.5 Z M 13.496094 7.5 C 14.046875 7.5 14.496094 7.949219 14.496094 8.5 C 14.496094 9.050781 14.046875 9.5 13.496094 9.5 C 12.945312 9.5 12.496094 9.050781 12.496094 8.5 C 12.496094 7.949219 12.945312 7.5 13.496094 7.5 Z M 13.496094 7.5 "/>
<path style=" stroke:none;fill-rule:nonzero;fill:rgb(74.509804%,74.509804%,74.509804%);fill-opacity:1;" d="M 3 4 L 3 6 L 4 6 L 4 7 L 5 7 L 5 8 L 4 8 L 4 9 L 3 9 L 3 10 L 13 10 L 12.90625 9.386719 C 12.617188 9.210938 12.277344 8.851562 12.277344 8.488281 C 12.277344 8.121094 12.632812 7.707031 12.925781 7.53125 L 12.996094 3.992188 Z M 11.5 5.5 C 12.050781 5.5 12.5 5.949219 12.5 6.5 C 12.5 7.050781 12.050781 7.5 11.5 7.5 C 10.949219 7.5 10.5 7.050781 10.5 6.5 C 10.5 5.949219 10.949219 5.5 11.5 5.5 Z M 11.5 5.5 "/>
<path style=" stroke:none;fill-rule:nonzero;fill:rgb(100%,100%,100%);fill-opacity:1;" d="M 2.722656 11.953125 C 1.480469 11.730469 0.449219 10.578125 0.125 9.050781 C 0.0429688 8.667969 0.0195312 8.449219 0.0234375 7.992188 C 0.0234375 7.507812 0.0546875 7.230469 0.15625 6.808594 C 0.351562 6.007812 0.726562 5.339844 1.273438 4.8125 C 1.699219 4.402344 2.15625 4.160156 2.710938 4.046875 C 2.878906 4.011719 3.191406 4.011719 8.007812 4.011719 C 12.945312 4.011719 13.132812 4.011719 13.308594 4.050781 C 14.261719 4.25 15.054688 4.925781 15.539062 5.949219 C 15.824219 6.546875 15.957031 7.128906 15.976562 7.851562 C 15.996094 8.574219 15.902344 9.148438 15.660156 9.773438 C 15.410156 10.425781 14.941406 11.0625 14.4375 11.441406 C 14.085938 11.699219 13.648438 11.890625 13.246094 11.957031 C 12.980469 12 12.519531 11.988281 12.277344 11.929688 C 11.402344 11.710938 10.707031 11.125 10.203125 10.1875 L 10.097656 9.984375 L 5.894531 9.984375 L 5.816406 10.144531 C 5.625 10.527344 5.367188 10.882812 5.042969 11.191406 C 4.609375 11.609375 4.125 11.859375 3.570312 11.957031 C 3.347656 11.996094 2.945312 11.992188 2.722656 11.953125 Z M 13.828125 9.445312 C 14.242188 9.292969 14.496094 8.933594 14.496094 8.5 C 14.496094 8.007812 14.167969 7.617188 13.667969 7.511719 C 13.53125 7.484375 13.484375 7.484375 13.359375 7.503906 C 12.949219 7.574219 12.625 7.859375 12.527344 8.242188 C 12.433594 8.601562 12.554688 9.015625 12.828125 9.25 C 12.933594 9.34375 13.167969 9.460938 13.300781 9.488281 C 13.4375 9.519531 13.6875 9.496094 13.828125 9.445312 Z M 4.011719 8.5 L 4.011719 8.003906 L 5.003906 8.003906 L 5.003906 6.992188 L 4.011719 6.992188 L 4.011719 6.003906 L 3 6.003906 L 3 6.992188 L 1.992188 6.992188 L 1.992188 8.003906 L 3 8.003906 L 3 8.996094 L 4.011719 8.996094 Z M 11.691406 7.480469 C 12.164062 7.378906 12.496094 6.976562 12.496094 6.511719 C 12.496094 5.9375 12.0625 5.507812 11.492188 5.507812 C 11.105469 5.507812 10.769531 5.71875 10.597656 6.070312 C 10.28125 6.71875 10.757812 7.480469 11.492188 7.507812 C 11.527344 7.507812 11.617188 7.496094 11.691406 7.480469 Z M 11.691406 7.480469 "/>
</g>
</svg>
