<?xml version="1.0" encoding="UTF-8"?>
<svg xmlns="http://www.w3.org/2000/svg" xmlns:xlink="http://www.w3.org/1999/xlink" width="16" height="16" viewBox="0 0 16 16" version="1.1">
<g id="surface1">
<path style=" stroke:none;fill-rule:nonzero;fill:rgb(74.509804%,74.509804%,74.509804%);fill-opacity:1;" d="M 7.765625 0 L 6.820312 0.0273438 L 6.851562 0.527344 C 6.894531 0.992188 6.660156 1.496094 6.292969 1.746094 C 5.960938 1.996094 5.441406 1.945312 4.792969 1.964844 C 4.464844 1.96875 4.132812 2.046875 3.820312 2.246094 C 3.511719 2.445312 3.210938 2.792969 3.144531 3.246094 C 2.996094 4.140625 3.570312 4.878906 4.234375 5.027344 C 4.992188 5.203125 5.78125 5.101562 6.703125 5.027344 C 6.945312 5.007812 7.269531 5.046875 7.46875 5.152344 C 7.78125 5.414062 7.734375 5.554688 7.734375 6.027344 L 2.410156 6.027344 L 2.203125 6.746094 L 0.351562 13.746094 L -0.00390625 15.027344 L 15.558594 15.027344 L 15.203125 13.746094 L 13.410156 6.933594 L 12.027344 9.152344 L 13.085938 13.027344 L 2.46875 13.027344 L 3.820312 8.027344 L 6.882812 8.027344 C 6.890625 8.015625 6.898438 8.007812 6.910156 7.996094 L 8.175781 7.121094 L 8.675781 6.058594 L 8.675781 5.558594 C 8.671875 4.945312 8.292969 4.460938 7.882812 4.246094 C 7.46875 4.03125 7.003906 3.996094 6.617188 4.027344 C 5.679688 4.105469 4.980469 4.152344 4.4375 4.027344 L 4.410156 4.027344 C 4.222656 3.984375 4.015625 3.816406 4.085938 3.402344 C 4.105469 3.277344 4.160156 3.207031 4.292969 3.121094 C 4.425781 3.035156 4.625 2.964844 4.792969 2.964844 L 4.820312 2.964844 C 5.351562 2.949219 6.117188 3.082031 6.792969 2.558594 C 7.5625 1.960938 7.878906 1.164062 7.792969 0.433594 Z M 7.765625 0 "/>
<path style=" stroke:none;fill-rule:nonzero;fill:rgb(74.509804%,74.509804%,74.509804%);fill-opacity:1;" d="M 12.59375 2.070312 C 12.59375 2.070312 10.222656 5.578125 8.789062 8.039062 L 7.46875 9.207031 L 7.503906 10.78125 L 6.785156 12.023438 L 7.4375 12.023438 L 8.136719 11.441406 L 9.710938 10.976562 L 10.273438 9.496094 L 14.210938 3.132812 Z M 12.59375 2.070312 "/>
<path style=" stroke:none;fill-rule:nonzero;fill:rgb(74.509804%,74.509804%,74.509804%);fill-opacity:1;" d="M 14.09375 2.4375 C 14.09375 2.671875 13.976562 2.890625 13.789062 3.007812 C 13.597656 3.125 13.363281 3.125 13.171875 3.007812 C 12.984375 2.890625 12.867188 2.671875 12.871094 2.4375 C 12.867188 2.203125 12.984375 1.988281 13.171875 1.871094 C 13.363281 1.753906 13.597656 1.753906 13.789062 1.871094 C 13.976562 1.988281 14.09375 2.203125 14.09375 2.4375 Z M 14.09375 2.4375 "/>
<path style=" stroke:none;fill-rule:nonzero;fill:rgb(100%,100%,100%);fill-opacity:1;" d="M 0.0117188 14.992188 C 0.0507812 14.886719 0.503906 13.195312 1.304688 10.171875 C 1.816406 8.234375 2.277344 6.515625 2.324219 6.351562 L 2.410156 6.054688 L 5.074219 6.046875 L 7.734375 6.042969 L 7.734375 5.78125 C 7.734375 5.546875 7.730469 5.503906 7.691406 5.414062 C 7.625 5.261719 7.496094 5.148438 7.335938 5.09375 C 7.078125 5.011719 6.90625 5.003906 6.335938 5.050781 C 5.054688 5.164062 4.332031 5.117188 3.917969 4.898438 C 3.445312 4.644531 3.132812 4.105469 3.132812 3.539062 C 3.132812 2.945312 3.410156 2.480469 3.929688 2.195312 C 4.261719 2.015625 4.421875 1.984375 5.222656 1.957031 C 5.867188 1.9375 6 1.917969 6.203125 1.808594 C 6.394531 1.707031 6.617188 1.457031 6.722656 1.234375 C 6.847656 0.960938 6.871094 0.792969 6.847656 0.386719 C 6.839844 0.199219 6.832031 0.0429688 6.835938 0.0390625 C 6.839844 0.0390625 7.046875 0.0273438 7.296875 0.0234375 L 7.75 0.0117188 L 7.761719 0.09375 C 7.769531 0.136719 7.78125 0.324219 7.785156 0.511719 C 7.796875 0.804688 7.792969 0.878906 7.761719 1.050781 C 7.667969 1.515625 7.441406 1.929688 7.070312 2.300781 C 6.804688 2.570312 6.558594 2.730469 6.269531 2.832031 C 5.980469 2.933594 5.8125 2.953125 5.210938 2.957031 C 4.667969 2.960938 4.65625 2.964844 4.507812 3.015625 C 4.238281 3.113281 4.117188 3.222656 4.082031 3.398438 C 4.054688 3.542969 4.070312 3.703125 4.121094 3.808594 C 4.191406 3.953125 4.28125 4.007812 4.539062 4.058594 C 4.796875 4.109375 5.78125 4.105469 6.398438 4.054688 C 6.902344 4.011719 7.109375 4.019531 7.40625 4.085938 C 8.015625 4.226562 8.433594 4.59375 8.605469 5.144531 C 8.648438 5.292969 8.65625 5.351562 8.664062 5.683594 L 8.671875 6.054688 L 8.171875 7.117188 L 6.859375 8.023438 L 5.335938 8.023438 C 3.90625 8.023438 3.816406 8.027344 3.804688 8.0625 C 3.726562 8.339844 2.488281 12.9375 2.480469 12.980469 L 2.46875 13.039062 L 13.101562 13.039062 L 13.085938 12.992188 C 13.078125 12.96875 12.839844 12.09375 12.554688 11.050781 L 12.035156 9.152344 L 12.714844 8.0625 C 13.089844 7.460938 13.402344 6.976562 13.410156 6.988281 C 13.417969 6.996094 13.8125 8.488281 14.289062 10.304688 C 15.003906 13.023438 15.265625 13.996094 15.539062 14.984375 C 15.546875 15.019531 15.167969 15.019531 7.773438 15.019531 C 1.238281 15.019531 0.00390625 15.015625 0.0117188 14.992188 Z M 0.0117188 14.992188 "/>
<path style=" stroke:none;fill-rule:nonzero;fill:rgb(100%,100%,100%);fill-opacity:1;" d="M 6.804688 12.015625 C 6.804688 12.007812 6.960938 11.730469 7.15625 11.394531 L 7.507812 10.789062 L 7.492188 9.996094 L 7.476562 9.207031 L 8.125 8.636719 C 8.566406 8.25 8.796875 8.03125 8.835938 7.96875 C 8.871094 7.914062 9.023438 7.660156 9.175781 7.40625 C 9.859375 6.257812 11.125 4.277344 12.265625 2.570312 C 12.480469 2.25 12.601562 2.085938 12.617188 2.09375 C 12.628906 2.101562 12.695312 2.144531 12.761719 2.191406 C 12.832031 2.234375 12.886719 2.269531 12.890625 2.265625 C 12.894531 2.261719 12.914062 2.214844 12.933594 2.167969 C 12.980469 2.046875 13.101562 1.914062 13.222656 1.851562 C 13.304688 1.8125 13.351562 1.804688 13.484375 1.804688 C 13.625 1.804688 13.664062 1.8125 13.75 1.859375 C 13.957031 1.976562 14.074219 2.179688 14.078125 2.433594 C 14.078125 2.605469 14.054688 2.683594 13.957031 2.832031 C 13.921875 2.886719 13.894531 2.933594 13.898438 2.9375 C 13.902344 2.9375 13.972656 2.984375 14.054688 3.039062 L 14.203125 3.136719 L 14.128906 3.253906 C 14.089844 3.320312 13.203125 4.746094 12.164062 6.425781 L 10.273438 9.480469 L 9.992188 10.222656 C 9.835938 10.632812 9.710938 10.96875 9.707031 10.96875 C 9.707031 10.972656 9.351562 11.078125 8.917969 11.203125 L 8.132812 11.433594 L 7.453125 12 L 7.128906 12.015625 C 6.949219 12.023438 6.804688 12.023438 6.804688 12.015625 Z M 6.804688 12.015625 "/>
</g>
</svg>
