<?xml version="1.0" encoding="UTF-8"?>
<svg xmlns="http://www.w3.org/2000/svg" xmlns:xlink="http://www.w3.org/1999/xlink" width="16" height="16" viewBox="0 0 16 16" version="1.1">
<g id="surface1">
<path style=" stroke:none;fill-rule:nonzero;fill:rgb(74.509804%,74.509804%,74.509804%);fill-opacity:1;" d="M 7.992188 1 C 4.148438 1 0.996094 4.152344 0.996094 7.992188 C 0.996094 11.835938 4.148438 15.007812 7.992188 15.007812 C 11.832031 15.007812 15.003906 11.835938 15.003906 7.992188 C 15.003906 4.152344 11.832031 1 7.992188 1 Z M 7.992188 5.007812 C 9.671875 5.007812 10.996094 6.3125 10.996094 7.992188 C 10.996094 9.671875 9.671875 11 7.992188 11 C 6.308594 11 5.003906 9.671875 5.003906 7.992188 C 5.003906 6.3125 6.308594 5.007812 7.992188 5.007812 Z M 7.992188 5.007812 "/>
<path style=" stroke:none;fill-rule:nonzero;fill:rgb(74.509804%,74.509804%,74.509804%);fill-opacity:1;" d="M 8.007812 6.007812 C 6.910156 6.007812 5.996094 6.90625 5.996094 8.007812 C 5.996094 9.105469 6.910156 10.003906 8.007812 10.003906 C 9.109375 10.003906 10.007812 9.105469 10.007812 8.007812 C 10.007812 6.90625 9.109375 6.007812 8.007812 6.007812 Z M 8.007812 7.007812 C 8.570312 7.007812 9.007812 7.449219 9.007812 8.007812 C 9.007812 8.566406 8.570312 9.003906 8.007812 9.003906 C 7.453125 9.003906 7.011719 8.566406 7.011719 8.007812 C 7.011719 7.449219 7.453125 7.007812 8.007812 7.007812 Z M 8.007812 7.007812 "/>
<path style=" stroke:none;fill-rule:nonzero;fill:rgb(100%,100%,100%);fill-opacity:1;" d="M 7.832031 9.980469 C 7 9.914062 6.285156 9.3125 6.0625 8.488281 C 5.996094 8.242188 5.996094 7.773438 6.0625 7.53125 C 6.222656 6.945312 6.613281 6.472656 7.152344 6.214844 C 7.46875 6.0625 7.609375 6.035156 8.015625 6.035156 C 8.335938 6.035156 8.382812 6.039062 8.546875 6.09375 C 9.101562 6.261719 9.539062 6.625 9.789062 7.125 C 10.171875 7.898438 10.019531 8.808594 9.402344 9.417969 C 8.980469 9.835938 8.433594 10.03125 7.832031 9.980469 Z M 8.230469 8.984375 C 8.886719 8.828125 9.207031 8.121094 8.886719 7.523438 C 8.574219 6.933594 7.738281 6.828125 7.28125 7.320312 C 7.09375 7.515625 7.011719 7.726562 7.011719 7.996094 C 7.011719 8.289062 7.105469 8.519531 7.304688 8.71875 C 7.550781 8.960938 7.898438 9.0625 8.230469 8.984375 Z M 8.230469 8.984375 "/>
<path style=" stroke:none;fill-rule:nonzero;fill:rgb(100%,100%,100%);fill-opacity:1;" d="M 7.519531 14.988281 C 6.667969 14.902344 6.152344 14.789062 5.507812 14.535156 C 4.589844 14.175781 3.832031 13.6875 3.125 12.996094 C 1.914062 11.808594 1.183594 10.277344 1.03125 8.601562 C 0.980469 8.054688 1.015625 7.320312 1.113281 6.765625 C 1.5 4.613281 2.910156 2.734375 4.894531 1.738281 C 6.191406 1.089844 7.675781 0.867188 9.121094 1.101562 C 11.378906 1.476562 13.328125 2.941406 14.320312 5.015625 C 15.144531 6.738281 15.21875 8.722656 14.523438 10.503906 C 14.332031 11 14 11.613281 13.695312 12.039062 C 13.363281 12.496094 12.789062 13.109375 12.378906 13.433594 C 11.328125 14.273438 10.140625 14.78125 8.832031 14.949219 C 8.585938 14.980469 7.710938 15.007812 7.519531 14.988281 Z M 8.648438 10.9375 C 8.921875 10.875 9.128906 10.796875 9.390625 10.664062 C 10.382812 10.152344 11 9.132812 11 7.992188 C 11 6.5625 10.046875 5.382812 8.644531 5.070312 C 8.457031 5.027344 8.375 5.023438 7.996094 5.023438 C 7.515625 5.023438 7.375 5.042969 7 5.167969 C 6.171875 5.445312 5.5 6.09375 5.183594 6.929688 C 5.039062 7.316406 4.972656 7.828125 5.011719 8.257812 C 5.140625 9.652344 6.121094 10.726562 7.492188 10.96875 C 7.726562 11.007812 8.417969 10.992188 8.648438 10.9375 Z M 8.648438 10.9375 "/>
</g>
</svg>
