<?xml version="1.0" encoding="UTF-8"?>
<svg xmlns="http://www.w3.org/2000/svg" xmlns:xlink="http://www.w3.org/1999/xlink" width="16" height="16" viewBox="0 0 16 16" version="1.1">
<g id="surface1">
<path style=" stroke:none;fill-rule:nonzero;fill:rgb(74.509804%,74.509804%,74.509804%);fill-opacity:1;" d="M 7.992188 1 C 4.148438 1 0.996094 4.152344 0.996094 7.992188 C 0.996094 11.835938 4.148438 15.007812 7.992188 15.007812 C 11.832031 15.007812 15.003906 11.835938 15.003906 7.992188 C 15.003906 4.152344 11.832031 1 7.992188 1 Z M 7.992188 5.007812 C 9.671875 5.007812 10.996094 6.3125 10.996094 7.992188 C 10.996094 9.671875 9.671875 11 7.992188 11 C 6.308594 11 5.003906 9.671875 5.003906 7.992188 C 5.003906 6.3125 6.308594 5.007812 7.992188 5.007812 Z M 7.992188 5.007812 "/>
<path style=" stroke:none;fill-rule:nonzero;fill:rgb(74.509804%,74.509804%,74.509804%);fill-opacity:1;" d="M 8.007812 6.007812 C 6.910156 6.007812 5.996094 6.90625 5.996094 8.007812 C 5.996094 9.105469 6.910156 10.003906 8.007812 10.003906 C 9.109375 10.003906 10.007812 9.105469 10.007812 8.007812 C 10.007812 6.90625 9.109375 6.007812 8.007812 6.007812 Z M 8.007812 7.007812 C 8.570312 7.007812 9.007812 7.449219 9.007812 8.007812 C 9.007812 8.566406 8.570312 9.003906 8.007812 9.003906 C 7.453125 9.003906 7.011719 8.566406 7.011719 8.007812 C 7.011719 7.449219 7.453125 7.007812 8.007812 7.007812 Z M 8.007812 7.007812 "/>
<path style=" stroke:none;fill-rule:nonzero;fill:rgb(100%,100%,100%);fill-opacity:1;" d="M 7.675781 9.96875 C 7.316406 9.90625 7 9.757812 6.703125 9.507812 C 6.410156 9.265625 6.167969 8.882812 6.066406 8.496094 C 6.003906 8.265625 5.992188 7.910156 6.03125 7.675781 C 6.109375 7.257812 6.285156 6.921875 6.59375 6.613281 C 6.929688 6.273438 7.324219 6.085938 7.804688 6.03125 C 8.820312 5.910156 9.789062 6.640625 9.972656 7.667969 C 10.003906 7.847656 10 8.210938 9.964844 8.382812 C 9.800781 9.160156 9.25 9.738281 8.484375 9.9375 C 8.285156 9.992188 7.882812 10.003906 7.675781 9.96875 Z M 8.332031 8.957031 C 9.03125 8.714844 9.242188 7.828125 8.726562 7.308594 C 8.40625 6.984375 7.964844 6.914062 7.550781 7.117188 C 7.222656 7.28125 7.011719 7.625 7.011719 7.996094 C 7.011719 8.183594 7.035156 8.285156 7.113281 8.453125 C 7.234375 8.707031 7.476562 8.902344 7.765625 8.980469 C 7.898438 9.019531 8.191406 9.007812 8.332031 8.957031 Z M 8.332031 8.957031 "/>
<path style=" stroke:none;fill-rule:nonzero;fill:rgb(100%,100%,100%);fill-opacity:1;" d="M 7.703125 14.996094 C 5.964844 14.910156 4.378906 14.222656 3.132812 13.011719 C 1.984375 11.890625 1.277344 10.476562 1.058594 8.863281 C 1.007812 8.503906 0.996094 7.746094 1.03125 7.367188 C 1.21875 5.441406 2.140625 3.742188 3.664062 2.519531 C 4.792969 1.617188 6.21875 1.082031 7.671875 1.015625 C 9.460938 0.9375 11.210938 1.542969 12.5625 2.714844 C 12.785156 2.910156 13.234375 3.367188 13.40625 3.578125 C 14.933594 5.453125 15.394531 7.882812 14.648438 10.15625 C 13.808594 12.722656 11.515625 14.617188 8.851562 14.949219 C 8.476562 14.996094 8.042969 15.011719 7.703125 14.996094 Z M 8.449219 10.96875 C 9.40625 10.828125 10.222656 10.246094 10.664062 9.390625 C 11.265625 8.214844 11.046875 6.78125 10.121094 5.863281 C 9.71875 5.464844 9.164062 5.175781 8.582031 5.058594 C 8.414062 5.023438 8.34375 5.019531 7.988281 5.019531 C 7.636719 5.019531 7.566406 5.023438 7.410156 5.054688 C 7.148438 5.113281 6.96875 5.167969 6.773438 5.253906 C 5.878906 5.644531 5.269531 6.402344 5.058594 7.382812 C 5.019531 7.578125 5.015625 7.625 5.015625 7.996094 C 5.015625 8.367188 5.019531 8.410156 5.058594 8.605469 C 5.238281 9.441406 5.710938 10.128906 6.414062 10.5625 C 7 10.929688 7.730469 11.074219 8.449219 10.96875 Z M 8.449219 10.96875 "/>
</g>
</svg>
