<?xml version="1.0" encoding="UTF-8"?>
<svg xmlns="http://www.w3.org/2000/svg" xmlns:xlink="http://www.w3.org/1999/xlink" width="16" height="16" viewBox="0 0 16 16" version="1.1">
<g id="surface1">
<path style=" stroke:none;fill-rule:nonzero;fill:rgb(74.509804%,74.509804%,74.509804%);fill-opacity:1;" d="M 4.46875 1 C 3.648438 1 3 1.648438 3 2.46875 L 3 13.53125 C 3 14.351562 3.648438 15 4.46875 15 L 11.53125 15 C 12.351562 15 13 14.351562 13 13.53125 L 13 2.46875 C 13 1.648438 12.351562 1 11.53125 1 Z M 4 2 L 12 2 L 12 7 L 4 7 Z M 8 8 C 9.65625 8 11 9.34375 11 11 C 11 12.65625 9.65625 14 8 14 C 6.34375 14 5 12.65625 5 11 C 5 9.34375 6.34375 8 8 8 Z M 8 8 "/>
<path style=" stroke:none;fill-rule:nonzero;fill:rgb(74.509804%,74.509804%,74.509804%);fill-opacity:1;" d="M 9.5 11 C 9.5 11.828125 8.828125 12.5 8 12.5 C 7.171875 12.5 6.5 11.828125 6.5 11 C 6.5 10.171875 7.171875 9.5 8 9.5 C 8.828125 9.5 9.5 10.171875 9.5 11 Z M 9.5 11 "/>
<path style=" stroke:none;fill-rule:nonzero;fill:rgb(100%,100%,100%);fill-opacity:1;" d="M 7.851562 12.480469 C 7.296875 12.429688 6.796875 12.042969 6.601562 11.515625 C 6.3125 10.714844 6.726562 9.863281 7.542969 9.578125 C 7.6875 9.527344 7.734375 9.523438 7.984375 9.523438 C 8.300781 9.519531 8.457031 9.558594 8.71875 9.691406 C 8.910156 9.792969 9.1875 10.066406 9.296875 10.261719 C 9.753906 11.085938 9.363281 12.105469 8.476562 12.410156 C 8.300781 12.472656 8.058594 12.5 7.851562 12.480469 Z M 7.851562 12.480469 "/>
<path style=" stroke:none;fill-rule:nonzero;fill:rgb(100%,100%,100%);fill-opacity:1;" d="M 4.261719 14.976562 C 3.941406 14.933594 3.683594 14.804688 3.433594 14.554688 C 3.296875 14.417969 3.246094 14.351562 3.167969 14.195312 C 3 13.851562 3.011719 14.390625 3.011719 7.992188 C 3.011719 2.347656 3.011719 2.273438 3.054688 2.109375 C 3.183594 1.59375 3.574219 1.195312 4.085938 1.054688 C 4.210938 1.019531 4.453125 1.019531 8.015625 1.019531 L 11.8125 1.019531 L 11.972656 1.070312 C 12.535156 1.265625 12.902344 1.710938 12.980469 2.289062 C 12.996094 2.414062 13 4.121094 12.996094 8.117188 L 12.988281 13.773438 L 12.941406 13.925781 C 12.785156 14.4375 12.4375 14.785156 11.921875 14.941406 L 11.773438 14.988281 L 8.089844 14.992188 C 6.019531 14.992188 4.34375 14.988281 4.261719 14.976562 Z M 8.542969 13.957031 C 9.28125 13.816406 9.964844 13.390625 10.410156 12.792969 C 10.65625 12.464844 10.859375 12.015625 10.949219 11.59375 C 11.003906 11.347656 11.003906 10.667969 10.949219 10.417969 C 10.820312 9.808594 10.550781 9.308594 10.121094 8.878906 C 9.671875 8.429688 9.105469 8.136719 8.492188 8.035156 C 8.234375 7.992188 7.75 7.992188 7.511719 8.035156 C 6.25 8.257812 5.292969 9.195312 5.039062 10.453125 C 4.984375 10.730469 4.992188 11.308594 5.050781 11.589844 C 5.179688 12.1875 5.457031 12.699219 5.878906 13.121094 C 6.382812 13.625 6.984375 13.90625 7.738281 13.996094 C 7.882812 14.015625 8.371094 13.992188 8.542969 13.957031 Z M 12.007812 4.507812 L 12.007812 2 L 4.003906 2 L 4.003906 7.015625 L 12.007812 7.015625 Z M 12.007812 4.507812 "/>
</g>
</svg>
