<?xml version="1.0" encoding="UTF-8"?>
<svg xmlns="http://www.w3.org/2000/svg" xmlns:xlink="http://www.w3.org/1999/xlink" width="16" height="16" viewBox="0 0 16 16" version="1.1">
<defs>
<clipPath id="clip1">
  <path d="M 5.003906 8.09375 L 11.003906 8.09375 L 11.003906 10 L 5.003906 10 Z M 5.003906 8.09375 "/>
</clipPath>
<clipPath id="clip2">
  <path d="M 3.003906 5.03125 L 13.003906 5.03125 L 13.003906 8 L 3.003906 8 Z M 3.003906 5.03125 "/>
</clipPath>
<clipPath id="clip3">
  <path d="M 1.003906 2.0625 L 14.996094 2.0625 L 14.996094 6 L 1.003906 6 Z M 1.003906 2.0625 "/>
</clipPath>
</defs>
<g id="surface1">
<g clip-path="url(#clip1)" clip-rule="nonzero">
<path style=" stroke:none;fill-rule:nonzero;fill:rgb(74.509804%,74.509804%,74.509804%);fill-opacity:1;" d="M 4.769531 9.835938 C 4.8125 10.1875 5.101562 10.492188 5.503906 10.605469 C 5.910156 10.722656 6.355469 10.632812 6.652344 10.375 C 7.40625 9.746094 8.605469 9.746094 9.359375 10.375 C 9.609375 10.667969 10.050781 10.8125 10.476562 10.738281 C 10.902344 10.664062 11.234375 10.382812 11.324219 10.027344 C 11.410156 9.671875 11.238281 9.308594 10.882812 9.097656 C 9.292969 7.773438 6.707031 7.773438 5.117188 9.097656 C 4.871094 9.285156 4.738281 9.554688 4.761719 9.835938 Z M 4.769531 9.835938 "/>
</g>
<g clip-path="url(#clip2)" clip-rule="nonzero">
<path style=" stroke:none;fill-rule:nonzero;fill:rgb(74.509804%,74.509804%,74.509804%);fill-opacity:1;" d="M 2.703125 7.835938 C 2.792969 8.171875 3.078125 8.4375 3.445312 8.527344 C 3.8125 8.617188 4.203125 8.515625 4.46875 8.265625 C 6.410156 6.484375 9.582031 6.484375 11.523438 8.265625 C 11.777344 8.546875 12.183594 8.671875 12.570312 8.589844 C 12.953125 8.507812 13.257812 8.230469 13.347656 7.875 C 13.4375 7.519531 13.300781 7.148438 12.996094 6.917969 C 10.253906 4.40625 5.738281 4.40625 2.996094 6.917969 C 2.726562 7.152344 2.609375 7.5 2.695312 7.835938 Z M 2.703125 7.835938 "/>
</g>
<g clip-path="url(#clip3)" clip-rule="nonzero">
<path style=" stroke:none;fill-rule:nonzero;fill:rgb(74.509804%,74.509804%,74.509804%);fill-opacity:1;" d="M 0.457031 5.664062 C 0.515625 6.011719 0.769531 6.304688 1.125 6.425781 C 1.476562 6.546875 1.875 6.476562 2.160156 6.25 C 2.191406 6.222656 2.222656 6.195312 2.25 6.164062 C 5.425781 3.214844 10.550781 3.214844 13.726562 6.164062 C 13.953125 6.496094 14.375 6.664062 14.792969 6.589844 C 15.207031 6.515625 15.53125 6.210938 15.613281 5.824219 C 15.695312 5.4375 15.515625 5.046875 15.160156 4.832031 C 11.191406 1.144531 4.78125 1.144531 0.816406 4.832031 C 0.554688 5.039062 0.421875 5.351562 0.457031 5.664062 Z M 0.457031 5.664062 "/>
</g>
<path style=" stroke:none;fill-rule:nonzero;fill:rgb(74.509804%,74.509804%,74.509804%);fill-opacity:1;" d="M 10 13 C 10 14.105469 9.105469 15 8 15 C 6.894531 15 6 14.105469 6 13 C 6 11.894531 6.894531 11 8 11 C 9.105469 11 10 11.894531 10 13 Z M 10 13 "/>
<path style=" stroke:none;fill-rule:nonzero;fill:rgb(100%,100%,100%);fill-opacity:1;" d="M 7.765625 14.980469 C 6.976562 14.886719 6.324219 14.332031 6.085938 13.546875 C 6.03125 13.371094 6.027344 13.332031 6.027344 13 C 6.027344 12.664062 6.03125 12.625 6.082031 12.457031 C 6.3125 11.707031 6.90625 11.171875 7.65625 11.039062 C 7.871094 11 8.335938 11.019531 8.53125 11.078125 C 9.722656 11.421875 10.324219 12.734375 9.800781 13.839844 C 9.75 13.945312 9.667969 14.089844 9.617188 14.160156 C 9.515625 14.304688 9.269531 14.550781 9.132812 14.640625 C 8.871094 14.820312 8.53125 14.941406 8.21875 14.976562 C 8 15.003906 7.96875 15.003906 7.765625 14.980469 Z M 7.765625 14.980469 "/>
<path style=" stroke:none;fill-rule:nonzero;fill:rgb(100%,100%,100%);fill-opacity:1;" d="M 5.003906 9.59375 L 5.003906 9.203125 L 5.152344 9.082031 C 5.773438 8.578125 6.519531 8.269531 7.417969 8.148438 C 7.667969 8.113281 8.316406 8.113281 8.585938 8.144531 C 9.433594 8.253906 10.148438 8.542969 10.828125 9.0625 L 10.988281 9.183594 L 10.988281 9.984375 L 9.816406 9.984375 C 8.730469 9.984375 8.632812 9.980469 8.449219 9.945312 C 8.316406 9.917969 8.171875 9.902344 8.007812 9.902344 C 7.839844 9.902344 7.695312 9.917969 7.5625 9.945312 C 7.382812 9.980469 7.28125 9.984375 6.183594 9.984375 L 5.003906 9.984375 Z M 5.003906 9.59375 "/>
<path style=" stroke:none;fill-rule:nonzero;fill:rgb(100%,100%,100%);fill-opacity:1;" d="M 3 7.449219 L 3 6.917969 L 3.171875 6.773438 C 5.089844 5.148438 7.804688 4.617188 10.292969 5.386719 C 11.230469 5.675781 12.148438 6.183594 12.871094 6.816406 L 12.992188 6.917969 L 12.992188 7.984375 L 11.195312 7.984375 L 11.035156 7.867188 C 10.425781 7.429688 9.621094 7.109375 8.8125 6.980469 C 8.488281 6.929688 7.71875 6.917969 7.375 6.960938 C 6.457031 7.074219 5.632812 7.382812 4.957031 7.867188 L 4.792969 7.984375 L 3 7.984375 Z M 3 7.449219 "/>
<path style=" stroke:none;fill-rule:nonzero;fill:rgb(100%,100%,100%);fill-opacity:1;" d="M 1.015625 5.988281 C 1.007812 5.980469 1 5.683594 1 5.328125 L 1 4.683594 L 1.085938 4.601562 C 1.414062 4.296875 2.039062 3.851562 2.5625 3.539062 C 3.859375 2.773438 5.25 2.316406 6.871094 2.128906 C 7.320312 2.078125 8.632812 2.078125 9.101562 2.128906 C 11.28125 2.375 13.1875 3.171875 14.789062 4.515625 L 14.992188 4.683594 L 14.992188 6.003906 L 13.554688 6.003906 L 13.410156 5.882812 C 12.328125 4.96875 10.910156 4.320312 9.472656 4.074219 C 8.503906 3.90625 7.464844 3.90625 6.511719 4.074219 C 5.039062 4.328125 3.675781 4.953125 2.570312 5.875 L 2.421875 6.003906 L 1.722656 6.003906 C 1.339844 6.003906 1.019531 5.996094 1.015625 5.988281 Z M 1.015625 5.988281 "/>
</g>
</svg>
