<?xml version="1.0" encoding="UTF-8"?>
<svg xmlns="http://www.w3.org/2000/svg" xmlns:xlink="http://www.w3.org/1999/xlink" width="16" height="16" viewBox="0 0 16 16" version="1.1">
<g id="surface1">
<path style=" stroke:none;fill-rule:nonzero;fill:rgb(74.509804%,74.509804%,74.509804%);fill-opacity:1;" d="M 6 1 C 4.992188 1.003906 5 2 5 2 L 5 13 C 5 14 6 14 6 14 L 10 14 C 11 14 11 13 11 13 L 11 5 C 11 4.445312 10.554688 4 10 4 L 7 4 L 7 2 C 7 2 6.992188 1.003906 6 1 Z M 6 5 L 10 5 L 10 8.03125 L 6 8 Z M 6 9 L 7 9 L 7 10 L 8 10 L 8 9 L 9 9 L 9 10 L 10 10 L 10 11 L 9 11 L 9 12 L 10 12 L 10 13 L 9 13 L 9 12 L 8 12 L 8 13 L 7 13 L 7 12 L 6 12 L 6 11 L 7 11 L 7 10 L 6 10 Z M 7 11 L 7 12 L 8 12 L 8 11 Z M 8 11 L 9 11 L 9 10 L 8 10 Z M 8 11 "/>
<path style=" stroke:none;fill-rule:nonzero;fill:rgb(100%,100%,100%);fill-opacity:1;" d="M 5.746094 13.957031 C 5.34375 13.851562 5.085938 13.582031 5.023438 13.203125 C 5.011719 13.113281 5.003906 11.246094 5.003906 7.5 C 5.003906 1.390625 4.996094 1.789062 5.125 1.515625 C 5.277344 1.195312 5.597656 1.007812 5.984375 1.007812 C 6.386719 1.007812 6.699219 1.183594 6.859375 1.503906 C 6.984375 1.742188 6.984375 1.773438 6.984375 2.9375 L 6.984375 4 L 8.507812 4 C 9.472656 4 10.078125 4.007812 10.164062 4.023438 C 10.535156 4.082031 10.859375 4.382812 10.960938 4.75 C 10.984375 4.839844 10.988281 5.558594 10.988281 8.984375 C 10.988281 12.570312 10.984375 13.128906 10.957031 13.242188 C 10.867188 13.621094 10.628906 13.875 10.285156 13.957031 C 10.089844 14.003906 5.921875 14 5.746094 13.957031 Z M 8.015625 12.503906 L 8.015625 12.007812 L 8.984375 12.007812 L 8.984375 13 L 9.996094 13 L 9.996094 11.988281 L 9.007812 11.988281 L 9.007812 11.015625 L 9.996094 11.015625 L 9.996094 9.984375 L 9.007812 9.984375 L 9.007812 8.996094 L 7.996094 8.996094 L 7.996094 9.984375 L 7.003906 9.984375 L 7.003906 8.996094 L 5.992188 8.996094 L 5.992188 10.007812 L 6.984375 10.007812 L 6.984375 10.996094 L 5.992188 10.996094 L 5.992188 12.007812 L 6.984375 12.007812 L 6.984375 13 L 8.015625 13 Z M 9.996094 6.519531 L 9.996094 4.992188 L 5.992188 4.992188 L 5.992188 8.003906 L 6.359375 8.007812 C 7.433594 8.015625 9.640625 8.039062 9.804688 8.042969 L 9.996094 8.046875 Z M 9.996094 6.519531 "/>
<path style=" stroke:none;fill-rule:nonzero;fill:rgb(100%,100%,100%);fill-opacity:1;" d="M 8.015625 10.5 L 8.015625 10.007812 L 8.984375 10.007812 L 8.984375 10.996094 L 8.015625 10.996094 Z M 8.015625 10.5 "/>
<path style=" stroke:none;fill-rule:nonzero;fill:rgb(100%,100%,100%);fill-opacity:1;" d="M 7.003906 11.5 L 7.003906 11.015625 L 7.996094 11.015625 L 7.996094 11.988281 L 7.003906 11.988281 Z M 7.003906 11.5 "/>
</g>
</svg>
