<?xml version="1.0" encoding="UTF-8"?>
<svg xmlns="http://www.w3.org/2000/svg" xmlns:xlink="http://www.w3.org/1999/xlink" width="16" height="16" viewBox="0 0 16 16" version="1.1">
<g id="surface1">
<path style=" stroke:none;fill-rule:nonzero;fill:rgb(74.509804%,74.509804%,74.509804%);fill-opacity:1;" d="M 2 4 C 1.5 4 1 4.5 1 5 L 1 9 C 1 9.5 1.5 10 2 10 L 3 10 L 3 8 L 13 8 L 13 10 L 14 10 C 14.5 10 15 9.5 15 9 L 15 5 C 15 4.5 14.5 4 14 4 Z M 2 4 "/>
<path style=" stroke:none;fill-rule:nonzero;fill:rgb(74.509804%,74.509804%,74.509804%);fill-opacity:1;" d="M 4 1 L 4 3 L 12 3 L 12 1 Z M 4 1 "/>
<path style=" stroke:none;fill-rule:nonzero;fill:rgb(74.509804%,74.509804%,74.509804%);fill-opacity:1;" d="M 4 9 L 4 14 L 12 14 L 12 9 Z M 5 10 L 11 10 L 11 11 L 5 11 Z M 5 12 L 10 12 L 10 13 L 5 13 Z M 5 12 "/>
<path style=" stroke:none;fill-rule:nonzero;fill:rgb(100%,100%,100%);fill-opacity:1;" d="M 4.011719 11.5 L 4.011719 9.015625 L 12 9.015625 L 12 13.988281 L 4.011719 13.988281 Z M 9.996094 12.492188 L 9.996094 11.988281 L 7.496094 11.992188 L 4.992188 11.996094 L 4.988281 12.496094 L 4.980469 12.996094 L 9.996094 12.996094 Z M 11.003906 10.496094 L 11.007812 9.984375 L 8 9.992188 L 4.992188 9.996094 L 4.988281 10.480469 C 4.984375 10.746094 4.984375 10.976562 4.992188 10.992188 C 5 11.011719 5.585938 11.015625 8 11.011719 L 11 11.007812 Z M 11.003906 10.496094 "/>
<path style=" stroke:none;fill-rule:nonzero;fill:rgb(100%,100%,100%);fill-opacity:1;" d="M 1.738281 9.945312 C 1.671875 9.925781 1.574219 9.878906 1.515625 9.839844 C 1.382812 9.757812 1.191406 9.546875 1.117188 9.414062 C 1 9.195312 1 9.207031 1 7.015625 C 1 5.804688 1.007812 4.953125 1.019531 4.878906 C 1.085938 4.472656 1.472656 4.085938 1.878906 4.019531 C 2.058594 3.992188 13.976562 3.992188 14.136719 4.023438 C 14.496094 4.089844 14.839844 4.398438 14.949219 4.757812 C 14.992188 4.886719 14.992188 4.957031 14.992188 6.992188 C 14.992188 9.300781 14.996094 9.210938 14.863281 9.449219 C 14.765625 9.621094 14.570312 9.800781 14.382812 9.894531 L 14.21875 9.976562 L 13.011719 9.988281 L 13 7.992188 L 3 7.984375 L 3 9.984375 L 2.429688 9.984375 C 1.933594 9.984375 1.839844 9.976562 1.738281 9.945312 Z M 1.738281 9.945312 "/>
<path style=" stroke:none;fill-rule:nonzero;fill:rgb(100%,100%,100%);fill-opacity:1;" d="M 4.011719 2 L 4.011719 1.007812 L 12 1.007812 L 12 2.988281 L 4.011719 2.988281 Z M 4.011719 2 "/>
</g>
</svg>
