<?xml version="1.0" encoding="UTF-8"?>
<svg xmlns="http://www.w3.org/2000/svg" xmlns:xlink="http://www.w3.org/1999/xlink" width="256" height="256" viewBox="0 0 256 256" version="1.1">
<g id="surface1">
<path style=" stroke:none;fill-rule:nonzero;fill:rgb(74.509804%,74.509804%,74.509804%);fill-opacity:1;" d="M 206.5625 16 C 198.289062 16.75 191.96875 23.695312 192 32 L 192 240 C 191.921875 245.773438 194.953125 251.140625 199.9375 254.046875 C 204.914062 256.953125 211.085938 256.953125 216.0625 254.046875 C 221.046875 251.140625 224.078125 245.773438 224 240 L 224 48 L 240 48 C 245.773438 48.078125 251.140625 45.046875 254.046875 40.0625 C 256.953125 35.085938 256.953125 28.914062 254.046875 23.9375 C 251.140625 18.953125 245.773438 15.921875 240 16 L 208 16 C 207.5 15.976562 207 15.976562 206.5 16 Z M 206.5625 16 "/>
<path style=" stroke:none;fill-rule:nonzero;fill:rgb(74.509804%,74.509804%,74.509804%);fill-opacity:1;" d="M 208 96 L 208 144 L 256 144 L 256 96 Z M 224 112 L 240 112 L 240 128 L 224 128 Z M 224 112 "/>
<path style=" stroke:none;fill-rule:nonzero;fill:rgb(74.509804%,74.509804%,74.509804%);fill-opacity:1;" d="M 208 160 L 208 208 L 256 208 L 256 160 Z M 224 176 L 240 176 L 240 192 L 224 192 Z M 224 176 "/>
<path style=" stroke:none;fill-rule:nonzero;fill:rgb(74.509804%,74.509804%,74.509804%);fill-opacity:1;" d="M 0 64 L 0 256 L 160 256 L 160 224 L 176 224 L 176 192 L 128 192 L 128 224 L 32 224 L 32 96 L 80 96 L 80 64 Z M 0 64 "/>
<path style=" stroke:none;fill-rule:nonzero;fill:rgb(74.509804%,74.509804%,74.509804%);fill-opacity:1;" d="M 96 16 L 176 80 L 128 80 L 128 152.5 L 96 152.5 Z M 96 16 "/>
<path style=" stroke:none;fill-rule:nonzero;fill:rgb(74.509804%,74.509804%,74.509804%);fill-opacity:1;" d="M 127.859375 152.054688 C 127.859375 174.101562 109.984375 191.976562 87.9375 191.976562 C 65.890625 191.976562 48.015625 174.101562 48.015625 152.054688 C 48.015625 130.007812 65.890625 112.132812 87.9375 112.132812 C 109.984375 112.132812 127.859375 130.007812 127.859375 152.054688 Z M 127.859375 152.054688 "/>
<path style=" stroke:none;fill-rule:nonzero;fill:rgb(100%,100%,100%);fill-opacity:1;" d="M 84.914062 191.75 C 74.140625 190.5 66.140625 186.6875 59.28125 179.53125 C 55.992188 176.101562 54.039062 173.28125 52.046875 169.109375 C 47.5 159.578125 46.929688 148.757812 50.460938 138.75 C 52.460938 133.078125 55.414062 128.414062 59.796875 124.039062 C 66.109375 117.726562 74.039062 113.765625 82.679688 112.617188 C 85.492188 112.242188 93.09375 112.375 95.078125 112.84375 L 95.992188 113.054688 L 95.992188 16.140625 L 175.507812 79.765625 L 151.78125 79.84375 L 128.046875 79.929688 L 128.046875 115.398438 C 128.046875 152.632812 127.953125 155.53125 126.5625 161.390625 C 123.554688 174.101562 114.5 184.398438 102.039062 189.28125 C 97.179688 191.1875 89.546875 192.28125 84.914062 191.75 Z M 84.914062 191.75 "/>
<path style=" stroke:none;fill-rule:nonzero;fill:rgb(100%,100%,100%);fill-opacity:1;" d="M 0.148438 159.90625 L 0.148438 64.0625 L 79.796875 64.0625 L 79.796875 95.789062 L 31.875 95.789062 L 31.875 224.015625 L 128.046875 224.015625 L 128.046875 191.960938 L 175.96875 191.960938 L 175.96875 224.015625 L 159.773438 224.015625 L 159.773438 255.742188 L 0.148438 255.742188 Z M 0.148438 159.90625 "/>
<path style=" stroke:none;fill-rule:nonzero;fill:rgb(100%,100%,100%);fill-opacity:1;" d="M 204.226562 255.609375 C 199.179688 254.367188 194.921875 250.53125 193.03125 245.554688 L 192.328125 243.679688 L 192.328125 28.203125 L 193.101562 26.28125 C 194.867188 21.914062 198.882812 18.171875 203.265625 16.820312 C 205.351562 16.171875 206.273438 16.140625 223.851562 16.140625 C 243.898438 16.140625 244.3125 16.179688 247.820312 18.054688 C 250.484375 19.476562 253.125 22.320312 254.546875 25.296875 C 255.765625 27.851562 255.78125 27.921875 255.78125 32.007812 C 255.78125 36.101562 255.765625 36.164062 254.539062 38.734375 C 253.125 41.695312 250.515625 44.5 247.804688 45.960938 C 244.757812 47.601562 242.765625 47.859375 232.890625 47.867188 L 223.882812 47.867188 L 223.882812 96.117188 L 255.945312 96.117188 L 255.945312 144.039062 L 223.882812 144.039062 L 223.882812 160.234375 L 255.945312 160.234375 L 255.945312 207.828125 L 223.882812 207.828125 L 223.882812 224.632812 C 223.882812 234.6875 223.75 242.15625 223.546875 243.226562 C 221.898438 251.921875 212.828125 257.742188 204.226562 255.609375 Z M 240.078125 183.859375 L 240.078125 175.757812 L 232.0625 175.84375 L 224.054688 175.929688 L 223.960938 183.945312 L 223.875 191.960938 L 240.078125 191.960938 Z M 240.078125 120.078125 L 240.078125 111.984375 L 223.882812 111.984375 L 223.882812 128.179688 L 240.078125 128.179688 Z M 240.078125 120.078125 "/>
</g>
</svg>
