<?xml version="1.0" encoding="UTF-8"?>
<svg xmlns="http://www.w3.org/2000/svg" xmlns:xlink="http://www.w3.org/1999/xlink" width="256" height="256" viewBox="0 0 256 256" version="1.1">
<g id="surface1">
<path style=" stroke:none;fill-rule:nonzero;fill:rgb(74.509804%,74.509804%,74.509804%);fill-opacity:1;" d="M 63.820312 145.757812 C 78.953125 141.335938 95.085938 150.515625 99.867188 166.273438 L 110.664062 201.882812 C 115.445312 217.640625 107.046875 233.992188 91.921875 238.421875 C 76.789062 242.84375 60.648438 233.65625 55.875 217.90625 L 45.070312 182.289062 C 40.296875 166.539062 48.6875 150.179688 63.820312 145.757812 Z M 63.820312 145.757812 "/>
<path style=" stroke:none;fill-rule:nonzero;fill:rgb(74.509804%,74.509804%,74.509804%);fill-opacity:1;" d="M 127.507812 16 C 74.617188 16 31.125 64.132812 32.007812 107.5 C 32.78125 145.351562 44.945312 182.625 48.007812 192 L 72.414062 192 C 53.828125 155.335938 55.625 109.5 55.625 109.5 C 55.625 71.539062 87.734375 40.5 127.5 40.5 C 167.273438 40.5 199.5 69.734375 199.375 109 C 199 135.789062 196.632812 151.539062 183.289062 192 L 208.421875 192 C 212.015625 181.6875 224.007812 140.953125 224.007812 107.5 C 224.007812 62.226562 180.390625 16 127.5 16 Z M 127.507812 16 "/>
<path style=" stroke:none;fill-rule:nonzero;fill:rgb(74.509804%,74.509804%,74.509804%);fill-opacity:1;" d="M 192.1875 146.335938 C 177.054688 141.90625 160.914062 151.09375 156.140625 166.84375 L 145.335938 202.460938 C 140.5625 218.210938 148.953125 234.570312 164.085938 238.992188 C 179.21875 243.414062 195.359375 234.234375 200.132812 218.476562 L 210.929688 182.867188 C 215.710938 167.109375 207.320312 150.757812 192.1875 146.335938 Z M 192.1875 146.335938 "/>
<path style=" stroke:none;fill-rule:nonzero;fill:rgb(100%,100%,100%);fill-opacity:1;" d="M 169.0625 239.84375 C 156.632812 238.53125 146.921875 229.34375 144.507812 216.59375 C 144.039062 214.125 144.117188 208.078125 144.640625 205.648438 C 145.046875 203.796875 152.40625 179.203125 155.6875 168.75 C 156.492188 166.1875 157.671875 163.054688 158.3125 161.789062 C 160.992188 156.445312 165.625 151.625 170.796875 148.804688 C 174.945312 146.539062 179.382812 145.4375 184.414062 145.4375 C 187.945312 145.4375 190.5625 145.859375 193.625 146.914062 C 194.757812 147.304688 195.726562 147.585938 195.773438 147.539062 C 195.953125 147.359375 196.953125 141.742188 197.484375 137.953125 C 199.460938 123.835938 199.960938 105.75 198.601562 97.84375 C 195.351562 78.921875 185.3125 63.46875 169.289062 52.75 C 150.835938 40.390625 125.710938 37.03125 104.453125 44.0625 C 92.882812 47.882812 83.257812 53.90625 74.859375 62.554688 C 64.234375 73.5 57.851562 86.765625 55.960938 101.835938 C 55.445312 105.929688 55.53125 121.054688 56.109375 128.1875 C 56.8125 136.773438 58.257812 147.851562 58.679688 147.851562 C 58.789062 147.851562 59.695312 147.476562 60.695312 147.023438 C 70.835938 142.421875 83.546875 144.984375 91.976562 153.335938 C 95.53125 156.851562 97.976562 160.921875 99.695312 166.171875 C 101.359375 171.265625 110.578125 201.867188 111.179688 204.265625 C 111.875 207.085938 112 213.492188 111.40625 216.460938 C 109.625 225.460938 104.195312 232.648438 96.265625 236.53125 C 91.65625 238.789062 89.742188 239.203125 83.960938 239.1875 C 79.507812 239.171875 78.960938 239.117188 76.734375 238.445312 C 68.054688 235.820312 61.132812 229.84375 57.476562 221.828125 C 56.953125 220.6875 54.617188 213.476562 52.273438 205.804688 C 49.9375 198.132812 47.46875 190.109375 46.789062 187.976562 C 39.75 165.898438 34.835938 142.421875 32.851562 121.367188 C 32.257812 115.085938 32.039062 103.203125 32.445312 99.40625 C 34.429688 80.734375 43.820312 61.890625 58.804688 46.5 C 75.304688 29.546875 95.734375 19.234375 117.929688 16.640625 C 122.367188 16.117188 131.78125 16.046875 136.125 16.5 C 151.945312 18.15625 166.96875 23.570312 180.125 32.375 C 203.023438 47.679688 218.921875 71.210938 222.914062 95.695312 C 223.835938 101.320312 224.085938 106.757812 223.75 113.851562 C 222.984375 129.976562 220.320312 147.007812 215.429688 167.054688 C 213.0625 176.75 208.765625 191.625 208.226562 191.984375 C 208.117188 192.0625 206.140625 198.351562 203.828125 205.960938 C 201.523438 213.570312 199.226562 220.765625 198.726562 221.953125 C 197.367188 225.195312 194.726562 228.945312 191.9375 231.640625 C 186.875 236.523438 181.078125 239.21875 174.289062 239.867188 C 172.71875 240.015625 171.375 240.117188 171.296875 240.101562 C 171.226562 240.078125 170.21875 239.960938 169.0625 239.84375 Z M 169.0625 239.84375 "/>
</g>
</svg>
