<?xml version="1.0" encoding="UTF-8"?>
<svg xmlns="http://www.w3.org/2000/svg" xmlns:xlink="http://www.w3.org/1999/xlink" width="256" height="256" viewBox="0 0 256 256" version="1.1">
<g id="surface1">
<path style=" stroke:none;fill-rule:nonzero;fill:rgb(74.509804%,74.509804%,74.509804%);fill-opacity:1;" d="M 127.507812 0 C 74.617188 0 31.125 48.132812 32.007812 91.5 C 32.992188 139.859375 46.945312 166.625 50.007812 176 L 72.414062 176 C 53.828125 139.335938 55.625 93.5 55.625 93.5 C 55.625 55.539062 87.734375 24.5 127.5 24.5 C 167.273438 24.5 199.5 55.226562 199.375 94.5 C 199 121.289062 196.632812 131.039062 183.289062 171.5 L 208.421875 171.5 C 212.015625 161.1875 224.007812 138.453125 224.007812 93 C 224.007812 47.726562 180.390625 0 127.5 0 Z M 127.507812 0 "/>
<path style=" stroke:none;fill-rule:nonzero;fill:rgb(74.509804%,74.509804%,74.509804%);fill-opacity:1;" d="M 201.59375 112.867188 C 188.210938 109.132812 173.328125 118.8125 168.34375 134.492188 L 161.523438 155.976562 C 156.546875 171.65625 163.359375 187.390625 176.742188 191.125 C 190.125 194.867188 205.007812 185.179688 209.984375 169.507812 L 216.8125 148.023438 C 221.789062 132.34375 214.976562 116.601562 201.59375 112.867188 Z M 201.59375 112.867188 "/>
<path style=" stroke:none;fill-rule:nonzero;fill:rgb(74.509804%,74.509804%,74.509804%);fill-opacity:1;" d="M 55.242188 112.953125 C 68.625 109.21875 83.507812 118.898438 88.484375 134.578125 L 95.3125 156.0625 C 100.289062 171.742188 93.476562 187.476562 80.09375 191.210938 C 66.710938 194.953125 51.820312 185.265625 46.84375 169.59375 L 40.023438 148.109375 C 35.046875 132.429688 41.859375 116.6875 55.242188 112.953125 Z M 55.242188 112.953125 "/>
<path style=" stroke:none;fill-rule:nonzero;fill:rgb(74.509804%,74.509804%,74.509804%);fill-opacity:1;" d="M 112.757812 223.523438 L 143.757812 223.523438 C 152.453125 223.523438 159.507812 230.570312 159.507812 239.273438 C 159.507812 247.96875 152.453125 255.023438 143.757812 255.023438 L 112.757812 255.023438 C 104.0625 255.023438 97.007812 247.96875 97.007812 239.273438 C 97.007812 230.570312 104.0625 223.523438 112.757812 223.523438 Z M 112.757812 223.523438 "/>
<path style=" stroke:none;fill-rule:nonzero;fill:rgb(74.509804%,74.509804%,74.509804%);fill-opacity:1;" d="M 201.507812 150.5625 C 197.882812 151.210938 195.179688 154.25 194.9375 157.921875 C 194.703125 161.585938 197 164.945312 200.507812 166.0625 L 223.992188 174.539062 L 223.492188 202.539062 C 223.414062 211.054688 221.320312 216.421875 218.492188 219.539062 C 215.679688 222.578125 212.0625 224.023438 207.007812 224.023438 L 140.507812 224.023438 C 137.617188 223.976562 134.9375 225.492188 133.484375 227.984375 C 132.023438 230.476562 132.023438 233.5625 133.484375 236.054688 C 134.9375 238.546875 137.617188 240.0625 140.507812 240.023438 L 207.007812 240.023438 C 215.765625 240.023438 224.484375 236.65625 230.507812 230.023438 C 236.523438 223.382812 239.398438 213.875 239.507812 202.515625 L 240 168.921875 L 240 163.421875 L 235 161.421875 L 206.5 150.921875 C 204.929688 150.21875 203.179688 150.046875 201.5 150.421875 Z M 201.507812 150.5625 "/>
<path style=" stroke:none;fill-rule:nonzero;fill:rgb(100%,100%,100%);fill-opacity:1;" d="M 108.820312 254.351562 C 103.320312 252.875 98.804688 248.296875 97.570312 242.953125 C 96.625 238.828125 97.515625 234.039062 99.898438 230.476562 C 102.375 226.765625 106.210938 224.453125 110.9375 223.820312 C 112.65625 223.59375 119.140625 223.539062 129.585938 223.65625 C 168.421875 224.101562 208.375 224.195312 210.484375 223.84375 C 216.804688 222.789062 221.007812 218.289062 222.726562 210.71875 C 223.28125 208.304688 223.4375 205.859375 223.695312 196.101562 C 223.859375 189.648438 224 182.132812 224.007812 179.398438 L 224.023438 174.421875 L 217.507812 172.070312 C 213.921875 170.78125 210.75 169.632812 210.46875 169.523438 C 210.070312 169.375 209.710938 169.960938 208.867188 172.125 C 207.382812 175.945312 204.3125 180.578125 201.289062 183.5625 C 188.34375 196.320312 169.796875 193.898438 162.59375 178.507812 C 160.773438 174.617188 160.1875 171.6875 160.179688 166.382812 C 160.171875 162.976562 160.335938 160.945312 160.726562 159.351562 C 161.773438 155.109375 168.960938 132.859375 170.039062 130.5 C 173.117188 123.78125 178.460938 118.023438 184.398438 115.03125 C 187.953125 113.242188 190.78125 112.507812 194.859375 112.3125 C 198.265625 112.148438 198.5625 112.078125 198.726562 111.4375 C 199.203125 109.515625 199.585938 93.601562 199.257812 89.257812 C 197.117188 60.96875 178.28125 37.164062 150.921875 28.179688 C 124.273438 19.429688 94.953125 26.265625 75.578125 45.75 C 64.367188 57.03125 57.703125 70.828125 55.921875 86.460938 C 55.515625 90.023438 55.648438 111.203125 56.078125 112.234375 C 56.265625 112.671875 56.65625 112.695312 58.804688 112.421875 C 66.375 111.460938 75.609375 115.421875 81.289062 122.054688 C 85.5625 127.046875 86.835938 129.835938 91.445312 144.257812 C 96.539062 160.210938 96.679688 160.8125 96.664062 166.546875 C 96.65625 172.109375 96.023438 174.875 93.710938 179.578125 C 91.75 183.554688 88.125 187.34375 84.445312 189.265625 C 70.40625 196.585938 52.9375 187.46875 47.046875 169.757812 C 39.3125 146.492188 36.039062 133.351562 34 117.34375 C 32.492188 105.515625 31.78125 89.710938 32.476562 83.328125 C 36.5 46.351562 68.945312 11.367188 107.460938 2.46875 C 114.773438 0.78125 119.53125 0.265625 127.710938 0.265625 C 153.210938 0.265625 177.070312 10.828125 196.476562 30.703125 C 208.78125 43.3125 217.835938 59.210938 221.5625 74.742188 C 223.632812 83.375 224.125 89.554688 223.6875 101.445312 C 223.03125 119.195312 220.398438 136.179688 216.164062 149.960938 L 214.882812 154.132812 L 215.742188 154.4375 C 219.640625 155.835938 233.789062 161.085938 236.492188 162.140625 L 239.875 163.460938 L 239.859375 169.296875 C 239.851562 172.5 239.71875 182.484375 239.554688 191.476562 C 239.234375 209.234375 238.945312 212.320312 237.070312 218.03125 C 233 230.460938 223.507812 238.195312 210.484375 239.6875 C 208.914062 239.867188 197.125 240.015625 183.570312 240.015625 L 159.453125 240.015625 L 159.039062 242.21875 C 157.921875 248.117188 153.445312 252.84375 147.515625 254.382812 C 144.773438 255.101562 111.492188 255.070312 108.820312 254.359375 Z M 108.820312 254.351562 "/>
</g>
</svg>
