<?xml version="1.0" encoding="UTF-8"?>
<svg xmlns="http://www.w3.org/2000/svg" xmlns:xlink="http://www.w3.org/1999/xlink" width="256" height="256" viewBox="0 0 256 256" version="1.1">
<g id="surface1">
<path style=" stroke:none;fill-rule:nonzero;fill:rgb(74.509804%,74.509804%,74.509804%);fill-opacity:1;" d="M 32.492188 64 L 160 64 C 168.835938 64 176 71.164062 176 80 L 176 192 C 176 200.835938 168.835938 208 160 208 L 32.492188 208 C 23.65625 208 16.492188 200.835938 16.492188 192 L 16.492188 80 C 16.492188 71.164062 23.65625 64 32.492188 64 Z M 32.492188 64 "/>
<path style=" stroke:none;fill-rule:nonzero;fill:rgb(74.509804%,74.509804%,74.509804%);fill-opacity:1;" d="M 176 135.523438 L 231.507812 80 L 240 80 L 240 192 L 232 192 Z M 176 135.523438 "/>
<path style=" stroke:none;fill-rule:nonzero;fill:rgb(100%,100%,100%);fill-opacity:1;" d="M 29.375 207.585938 C 25.257812 206.804688 20.640625 203.429688 18.703125 199.789062 C 16.523438 195.703125 16.65625 199.859375 16.65625 135.992188 C 16.65625 85.664062 16.726562 77.765625 17.148438 76.125 C 18.515625 70.882812 22.140625 66.929688 27.414062 64.914062 L 29.367188 64.171875 L 94.75 64.078125 C 139.804688 64.015625 160.84375 64.101562 162.421875 64.34375 C 168.5 65.273438 173.484375 69.75 175.289062 75.875 C 175.757812 77.484375 175.8125 83.554688 175.804688 135.96875 C 175.804688 184.203125 175.726562 194.5625 175.351562 195.960938 C 173.789062 201.835938 168.75 206.507812 162.78125 207.609375 C 160.265625 208.078125 31.820312 208.054688 29.375 207.585938 Z M 29.375 207.585938 "/>
<path style=" stroke:none;fill-rule:nonzero;fill:rgb(100%,100%,100%);fill-opacity:1;" d="M 204.070312 163.648438 L 176.132812 135.5 L 231.445312 80.1875 L 239.867188 80.1875 L 239.867188 191.796875 L 232 191.796875 Z M 204.070312 163.648438 "/>
</g>
</svg>
