<?xml version="1.0" encoding="UTF-8"?>
<svg xmlns="http://www.w3.org/2000/svg" xmlns:xlink="http://www.w3.org/1999/xlink" width="256" height="256" viewBox="0 0 256 256" version="1.1">
<g id="surface1">
<path style=" stroke:none;fill-rule:nonzero;fill:rgb(74.509804%,74.509804%,74.509804%);fill-opacity:1;" d="M 184 16 C 214.929688 16 240 41.070312 240 72 C 240 89.914062 231.585938 105.75 218.5 116 C 221.859375 118.929688 224 123.171875 224 128 C 223.96875 160 224 176.835938 224 224 C 224 232.867188 216.859375 240 208 240 L 64 240 C 55.132812 240 48 232.867188 48 224 L 48 189.5 L 7 220 C 6.6875 220.210938 6.351562 220.375 6 220.5 C 5.507812 220.578125 4.992188 220.578125 4.5 220.5 C 4.171875 220.53125 3.828125 220.53125 3.5 220.5 C 3.148438 220.375 2.8125 220.210938 2.5 220 C 2.148438 219.875 1.8125 219.710938 1.5 219.5 C 1.320312 219.34375 1.15625 219.179688 1 219 C 0.820312 218.84375 0.65625 218.679688 0.5 218.5 C 0.289062 218.195312 0.125 217.859375 0 217.5 C -0.03125 217.171875 -0.03125 216.835938 0 216.5 L 0 119.5 C -0.03125 119.171875 -0.03125 118.835938 0 118.5 C 0.132812 118.148438 0.289062 117.8125 0.5 117.5 C 0.664062 117.320312 0.820312 117.15625 1 117 C 1.164062 116.820312 1.320312 116.65625 1.5 116.507812 C 1.65625 116.328125 1.820312 116.15625 2 116.007812 C 2.15625 115.828125 2.320312 115.65625 2.5 115.507812 C 2.8125 115.296875 3.148438 115.125 3.5 115.007812 C 3.992188 114.929688 4.5 114.929688 5 115.007812 C 5.164062 115 5.328125 115 5.5 115.007812 C 5.679688 115.164062 5.84375 115.328125 5.992188 115.507812 C 6.351562 115.632812 6.6875 115.796875 6.992188 116.007812 L 47.992188 146.507812 L 47.992188 128.007812 C 47.992188 123.179688 50.140625 118.9375 53.492188 116.007812 C 40.414062 105.757812 31.992188 89.914062 31.992188 72.007812 C 31.992188 41.078125 57.070312 16.007812 87.992188 16.007812 C 108.53125 16.007812 126.25 27.023438 135.992188 43.507812 C 145.742188 27.023438 163.460938 16.007812 183.992188 16.007812 Z M 184 48 C 170.742188 48 160 58.742188 160 72 C 160 85.257812 170.742188 96 184 96 C 197.257812 96 208 85.257812 208 72 C 208 58.742188 197.257812 48 184 48 Z M 88 48 C 74.742188 48 64 58.742188 64 72 C 64 85.257812 74.742188 96 88 96 C 101.257812 96 112 85.257812 112 72 C 112 58.742188 101.257812 48 88 48 Z M 136 100.5 C 133.46875 104.78125 130.539062 108.546875 127 112 L 145 112 C 141.460938 108.546875 138.53125 104.78125 136 100.5 Z M 136 100.5 "/>
<path style=" stroke:none;fill-rule:nonzero;fill:rgb(100%,100%,100%);fill-opacity:1;" d="M 61.414062 239.632812 C 56.90625 238.976562 52.09375 235.546875 50.085938 231.5625 C 48.1875 227.8125 48.234375 228.367188 48.046875 208.210938 L 47.859375 189.460938 L 29.367188 203.234375 C 19.203125 210.804688 9.78125 217.796875 8.4375 218.757812 C 5.679688 220.75 4.59375 220.945312 2.46875 219.867188 C -0.0703125 218.570312 0.148438 223.414062 0.148438 167.90625 L 0.148438 118.070312 L 1.59375 116.632812 C 3.320312 114.898438 4.71875 114.71875 6.679688 115.984375 C 7.351562 116.421875 16.898438 123.476562 27.882812 131.65625 L 47.859375 146.539062 L 48.039062 135.734375 C 48.195312 126.460938 48.304688 124.695312 48.8125 123.28125 C 49.625 121.03125 50.851562 118.960938 52.351562 117.34375 L 53.601562 115.984375 L 50.773438 113.523438 C 43.195312 106.929688 36.90625 96.90625 34.210938 87.125 C 32.640625 81.421875 32.351562 79.007812 32.367188 71.765625 C 32.382812 63.898438 32.835938 60.992188 35.140625 54.0625 C 41.039062 36.351562 55.726562 22.6875 73.953125 17.953125 C 89.742188 13.851562 106.78125 16.929688 120.007812 26.28125 C 124.085938 29.164062 130.507812 35.59375 133.226562 39.523438 C 134.398438 41.21875 135.53125 42.84375 135.734375 43.132812 C 136.054688 43.59375 136.179688 43.523438 136.648438 42.617188 C 137.851562 40.289062 142.265625 34.90625 145.679688 31.617188 C 159.335938 18.414062 178.53125 13.273438 197.398438 17.75 C 203.523438 19.203125 210.039062 22.15625 215.929688 26.140625 C 219.882812 28.820312 227.1875 36.125 229.851562 40.070312 C 236.96875 50.609375 240.234375 61.820312 239.75 74.078125 C 239.132812 89.695312 232.6875 103.226562 220.820312 113.851562 L 218.445312 115.976562 L 219.570312 117.21875 C 221.1875 119.007812 222.234375 120.78125 223.101562 123.171875 L 223.859375 125.257812 L 223.953125 174.125 C 224.007812 205.554688 223.921875 223.984375 223.710938 225.75 C 222.84375 232.953125 217.328125 238.679688 210.320312 239.664062 C 207.414062 240.070312 64.226562 240.046875 61.414062 239.632812 Z M 142.671875 109.382812 C 141.304688 107.828125 139.28125 105.226562 138.171875 103.609375 C 137.0625 101.984375 136.046875 100.664062 135.921875 100.671875 C 135.796875 100.671875 135.195312 101.5 134.585938 102.5 C 133.515625 104.273438 131.054688 107.4375 128.25 110.648438 L 126.875 112.21875 L 145.15625 112.21875 Z M 95.40625 94.90625 C 105.945312 91.359375 112.625 81.570312 111.992188 70.625 C 111.476562 61.8125 106.3125 54.09375 98.398438 50.3125 C 94.757812 48.570312 92.304688 48.03125 87.976562 48.03125 C 83.484375 48.03125 81.148438 48.578125 77.085938 50.554688 C 74.765625 51.6875 73.726562 52.46875 71.125 55.078125 C 68.570312 57.640625 67.71875 58.75 66.585938 61.039062 C 64.578125 65.078125 64.054688 67.382812 64.054688 72.101562 C 64.054688 75.3125 64.203125 76.523438 64.820312 78.53125 C 67.578125 87.390625 74.125 93.578125 82.859375 95.570312 C 86.117188 96.320312 92.171875 96 95.40625 94.90625 Z M 189.1875 95.539062 C 192.0625 94.929688 196.132812 92.992188 198.859375 90.921875 C 202.742188 87.984375 205.804688 83.390625 207.226562 78.359375 C 208.109375 75.234375 208.265625 69.539062 207.546875 66.648438 C 205.304688 57.648438 198.351562 50.695312 189.351562 48.453125 C 186.8125 47.820312 180.796875 47.898438 178.125 48.59375 C 171.132812 50.414062 165.460938 55.148438 162.226562 61.859375 C 158.90625 68.742188 159.28125 77.539062 163.171875 84.109375 C 166.609375 89.898438 172.398438 94.101562 178.953125 95.546875 C 181.625 96.140625 186.367188 96.132812 189.1875 95.539062 Z M 189.1875 95.539062 "/>
</g>
</svg>
