<?xml version="1.0" encoding="UTF-8"?>
<svg xmlns="http://www.w3.org/2000/svg" xmlns:xlink="http://www.w3.org/1999/xlink" width="256" height="256" viewBox="0 0 256 256" version="1.1">
<g id="surface1">
<path style=" stroke:none;fill-rule:nonzero;fill:rgb(74.509804%,74.509804%,74.509804%);fill-opacity:1;" d="M 96 32 C 87.203125 32 80 39.203125 80 48 L 80 64 L 32 64 C 23.164062 64 16 71.203125 16 80 L 16 208 C 16 216.796875 23.164062 224 32 224 L 224 224 C 232.835938 224 240 216.796875 240 208 L 240 80 C 240 71.203125 232.835938 64 224 64 L 176 64 L 176 48 C 176 39.203125 168.796875 32 160 32 Z M 128 80 C 163.34375 80 192 108.65625 192 144 C 192 179.34375 163.34375 208 128 208 C 92.65625 208 64 179.34375 64 144 C 64 108.65625 92.65625 80 128 80 Z M 128 112 C 110.328125 112 96 126.328125 96 144 C 96 161.671875 110.328125 176 128 176 C 145.671875 176 160 161.671875 160 144 C 160 126.328125 145.671875 112 128 112 Z M 128 112 "/>
<path style=" stroke:none;fill-rule:nonzero;fill:rgb(100%,100%,100%);fill-opacity:1;" d="M 123.640625 175.609375 C 111.046875 173.851562 100.546875 164.515625 97.132812 152.023438 C 96.507812 149.75 96.40625 148.554688 96.421875 143.75 C 96.4375 138.601562 96.515625 137.890625 97.34375 135.1875 C 100.023438 126.445312 105.945312 119.40625 113.898438 115.5 C 119.15625 112.921875 121.445312 112.421875 128.101562 112.421875 C 133.289062 112.414062 133.9375 112.484375 136.6875 113.328125 C 149.492188 117.25 158.078125 127.390625 159.632812 140.445312 C 161.03125 152.171875 155.570312 163.875 145.585938 170.515625 C 142.203125 172.765625 139.820312 173.828125 135.859375 174.835938 C 132.304688 175.742188 127.007812 176.078125 123.640625 175.609375 Z M 123.640625 175.609375 "/>
<path style=" stroke:none;fill-rule:nonzero;fill:rgb(100%,100%,100%);fill-opacity:1;" d="M 27.96875 223.3125 C 22.742188 221.90625 18.65625 218.046875 16.867188 212.84375 L 16.164062 210.78125 L 16.070312 145.734375 C 16 102.289062 16.085938 79.804688 16.3125 78.039062 C 17.210938 71.109375 22.710938 65.414062 29.539062 64.351562 C 30.835938 64.140625 41.171875 64.015625 55.867188 64.007812 L 80.054688 64.007812 L 80.054688 55.46875 C 80.054688 50.773438 80.203125 46.125 80.382812 45.148438 C 81.609375 38.554688 87.34375 33.171875 94.085938 32.289062 C 95.820312 32.0625 108.132812 31.976562 129.75 32.046875 L 162.773438 32.140625 L 165.179688 33.023438 C 169.039062 34.4375 172.375 37.335938 174.125 40.804688 C 175.609375 43.757812 175.8125 45.445312 175.8125 54.984375 L 175.8125 63.976562 L 201.484375 64.078125 L 227.15625 64.171875 L 229.351562 65.03125 C 233.03125 66.460938 235.65625 68.671875 237.679688 72.046875 C 240.007812 75.921875 239.867188 71.28125 239.867188 144.15625 C 239.867188 216.40625 240.007812 211.546875 237.851562 215.585938 C 236.132812 218.8125 232.914062 221.601562 229.359375 222.953125 L 227.484375 223.65625 L 128.59375 223.71875 C 44.28125 223.773438 29.445312 223.710938 27.96875 223.3125 Z M 136.8125 207.476562 C 160.90625 204.046875 181.03125 187.375 188.679688 164.492188 C 191.0625 157.382812 191.992188 151.5625 191.992188 143.851562 C 191.992188 133.195312 189.632812 123.640625 184.6875 114.203125 C 168.460938 83.289062 130.632812 71.101562 99.375 86.71875 C 75.601562 98.585938 61.5625 123.953125 64.21875 150.234375 C 67.1875 179.578125 89.445312 202.945312 118.6875 207.429688 C 122.882812 208.070312 132.4375 208.09375 136.8125 207.476562 Z M 136.8125 207.476562 "/>
</g>
</svg>
