<?xml version="1.0" encoding="UTF-8"?>
<svg xmlns="http://www.w3.org/2000/svg" xmlns:xlink="http://www.w3.org/1999/xlink" width="256" height="256" viewBox="0 0 256 256" version="1.1">
<g id="surface1">
<path style=" stroke:none;fill-rule:nonzero;fill:rgb(74.509804%,74.509804%,74.509804%);fill-opacity:1;" d="M 39.523438 16 C 26.382812 16 16.015625 26.367188 16.015625 39.5 L 16.015625 216.492188 C 16.015625 229.625 26.382812 239.992188 39.523438 239.992188 L 184.523438 239.992188 C 197.65625 239.992188 208.023438 229.632812 208.023438 216.492188 L 208.023438 39.5 C 208.023438 26.367188 197.65625 16 184.523438 16 Z M 32.023438 32 L 192.023438 32 L 192.023438 208 L 32.023438 208 Z M 32.023438 32 "/>
<path style=" stroke:none;fill-rule:nonzero;fill:rgb(100%,100%,100%);fill-opacity:1;" d="M 36.320312 239.632812 C 26.8125 238.25 19.539062 231.875 16.898438 222.601562 L 16.164062 220.023438 L 16.0625 130.046875 C 16 68.328125 16.078125 39.109375 16.3125 37.015625 C 17.390625 27.617188 23.335938 20.257812 32.34375 17.195312 L 34.984375 16.296875 L 110.429688 16.195312 C 166.117188 16.117188 186.53125 16.195312 188.359375 16.476562 C 196.90625 17.789062 203.757812 23.625 206.75 32.140625 L 207.679688 34.789062 L 207.765625 127.03125 C 207.84375 218.5625 207.84375 219.296875 207.179688 222.078125 C 206.171875 226.320312 204.242188 229.75 201.078125 232.90625 C 196.960938 237.007812 193.023438 238.945312 187.375 239.65625 C 183.929688 240.085938 39.28125 240.070312 36.320312 239.632812 Z M 191.992188 119.976562 L 191.992188 31.976562 L 31.84375 31.976562 L 31.84375 207.976562 L 191.992188 207.976562 Z M 191.992188 119.976562 "/>
</g>
</svg>
