<?xml version="1.0" encoding="UTF-8"?>
<svg xmlns="http://www.w3.org/2000/svg" xmlns:xlink="http://www.w3.org/1999/xlink" width="256" height="256" viewBox="0 0 256 256" version="1.1">
<g id="surface1">
<path style=" stroke:none;fill-rule:nonzero;fill:rgb(74.509804%,74.509804%,74.509804%);fill-opacity:1;" d="M 16 80 C 7.15625 80 0.03125 88.367188 0.03125 98.5 L 0.03125 171.5 C 0.03125 181.632812 6.679688 192 15.53125 192 L 31.53125 192 C 31.53125 202.125 39.125 208 47.96875 208 L 63.90625 208 C 72.75 208 79.53125 202.125 79.53125 192 L 175.34375 192 C 175.34375 202.125 182.804688 208 191.65625 208 L 207.5625 208 C 216.40625 208 223.53125 202.125 223.53125 192 L 239.5625 192 C 248.40625 192 255.53125 181.625 255.53125 171.5 L 255.53125 98.5 C 255.367188 88.257812 248.328125 79.9375 239.367188 79.9375 Z M 23.984375 99.070312 C 28.390625 99.070312 31.96875 113.90625 31.96875 136 C 31.96875 158.09375 28.390625 171.804688 23.984375 171.804688 C 19.578125 171.804688 16 158.09375 16 136 C 16 113.90625 19.578125 99.070312 23.984375 99.070312 Z M 55.921875 99.070312 C 60.328125 99.070312 63.90625 116.976562 63.90625 139.070312 C 63.90625 161.164062 59.773438 171.726562 55.367188 171.726562 C 50.953125 171.726562 47.9375 158.09375 47.9375 136 C 47.9375 113.90625 51.515625 99.070312 55.921875 99.070312 Z M 87.304688 99.070312 C 91.710938 99.070312 95.84375 113.90625 95.84375 136 C 95.84375 158.09375 92.265625 171.726562 87.859375 171.726562 C 83.453125 171.726562 79.875 158.09375 79.875 136 C 79.875 113.90625 82.890625 99.070312 87.304688 99.070312 Z M 199.625 96.03125 C 221.671875 96.03125 239.539062 113.9375 239.539062 136.03125 C 239.539062 158.125 221.671875 176.03125 199.625 176.03125 C 177.570312 176.03125 159.703125 158.125 159.703125 136.03125 C 159.703125 113.9375 177.570312 96.03125 199.625 96.03125 Z M 199.625 96.03125 "/>
<path style=" stroke:none;fill-rule:nonzero;fill:rgb(74.509804%,74.509804%,74.509804%);fill-opacity:1;" d="M 223.523438 136 C 223.523438 149.257812 212.773438 160 199.523438 160 C 186.265625 160 175.523438 149.257812 175.523438 136 C 175.523438 122.742188 186.265625 112 199.523438 112 C 212.773438 112 223.523438 122.742188 223.523438 136 Z M 223.523438 136 "/>
<path style=" stroke:none;fill-rule:nonzero;fill:rgb(100%,100%,100%);fill-opacity:1;" d="M 44.890625 207.617188 C 41.085938 206.984375 38.421875 205.585938 35.875 202.898438 C 33.921875 200.828125 32.296875 197.695312 32.007812 195.445312 C 31.90625 194.617188 31.742188 193.460938 31.65625 192.882812 L 31.492188 191.820312 L 22.007812 191.726562 L 12.53125 191.632812 L 10.585938 190.71875 C 6.59375 188.851562 2.820312 183.898438 1.085938 178.25 L 0.320312 175.78125 L 0.226562 136.257812 C 0.125 92.101562 0.0234375 94.132812 2.4375 89.265625 C 4.140625 85.8125 6.710938 83.210938 10.03125 81.570312 L 12.5 80.351562 L 243.039062 80.351562 L 245.546875 81.585938 C 250.125 83.851562 253.765625 88.804688 254.90625 94.320312 C 255.335938 96.40625 255.390625 102.046875 255.3125 136.257812 L 255.226562 175.78125 L 254.453125 178.09375 C 252.507812 183.867188 248.789062 188.65625 244.65625 190.664062 L 242.679688 191.625 L 233.023438 191.726562 L 223.359375 191.828125 L 223.359375 192.984375 C 223.359375 195.085938 222.351562 198.640625 221.195312 200.59375 C 219.695312 203.132812 217.773438 204.84375 214.9375 206.195312 C 211.53125 207.8125 209.210938 208.046875 197.992188 207.90625 C 188.835938 207.789062 188.054688 207.726562 186.085938 207.03125 C 180.132812 204.921875 176.507812 200.515625 175.6875 194.382812 L 175.34375 191.796875 L 79.398438 191.796875 L 79.390625 193.03125 C 79.382812 195.023438 78.46875 198.351562 77.359375 200.429688 C 75.375 204.15625 71.351562 206.90625 66.851562 207.625 C 64.328125 208.03125 47.296875 208.023438 44.890625 207.617188 Z M 206.765625 175.414062 C 214.46875 174.046875 221.328125 170.570312 227.03125 165.148438 C 243.125 149.84375 243.84375 124.765625 228.648438 108.492188 C 218.195312 97.304688 201.578125 93.132812 186.96875 98.023438 C 175.125 101.992188 165.632812 111.492188 161.640625 123.367188 C 158.429688 132.90625 159.203125 144.726562 163.609375 153.546875 C 171.773438 169.875 188.960938 178.585938 206.765625 175.414062 Z M 25.25 171.484375 C 28.015625 170.054688 30.414062 161.835938 31.5625 149.859375 C 32.070312 144.546875 32.0625 127.140625 31.554688 121.789062 C 29.875 104.226562 26.015625 95.578125 21.929688 100.226562 C 18.15625 104.523438 16 117.492188 16 135.789062 C 16 154.539062 18.289062 167.59375 22.164062 171 C 23.4375 172.117188 23.890625 172.1875 25.25 171.484375 Z M 57.164062 171.132812 C 59.71875 169.523438 61.757812 164.117188 63.085938 155.4375 C 63.796875 150.765625 64.085938 133.15625 63.570312 125.992188 C 62.46875 110.71875 59.726562 100.328125 56.492188 99.1875 C 55.023438 98.671875 53.984375 99.5 52.5625 102.320312 C 49.453125 108.460938 47.9375 119.570312 47.929688 136.15625 C 47.921875 149.390625 48.867188 159.289062 50.6875 165.210938 C 52.484375 171.03125 54.460938 172.835938 57.164062 171.132812 Z M 90.46875 170.171875 C 92.398438 167.648438 94.101562 161.3125 95.140625 152.828125 C 95.976562 145.929688 95.984375 126.601562 95.140625 119.84375 C 93.828125 109.320312 91.859375 102.601562 89.335938 100.078125 C 85.96875 96.71875 82.9375 101.5 81.234375 112.875 C 79.4375 124.882812 79.289062 143.5 80.90625 155.289062 C 82.085938 163.875 84.34375 170.242188 86.609375 171.375 C 88.015625 172.085938 89.328125 171.671875 90.46875 170.171875 Z M 90.46875 170.171875 "/>
<path style=" stroke:none;fill-rule:nonzero;fill:rgb(100%,100%,100%);fill-opacity:1;" d="M 193.71875 159.125 C 187.203125 157.523438 181.53125 153.015625 178.296875 146.859375 C 174.890625 140.375 174.890625 131.609375 178.296875 125.125 C 182.546875 117.03125 190.5 112.210938 199.554688 112.21875 C 219.4375 112.25 230.359375 134.773438 218.257812 150.773438 C 215.296875 154.6875 210.46875 157.796875 205.328125 159.117188 C 202.070312 159.945312 197.078125 159.953125 193.71875 159.125 Z M 193.71875 159.125 "/>
</g>
</svg>
