<?xml version="1.0" encoding="UTF-8"?>
<svg xmlns="http://www.w3.org/2000/svg" xmlns:xlink="http://www.w3.org/1999/xlink" width="256" height="256" viewBox="0 0 256 256" version="1.1">
<g id="surface1">
<path style=" stroke:none;fill-rule:nonzero;fill:rgb(74.509804%,74.509804%,74.509804%);fill-opacity:1;" d="M 40 16 C 17.84375 16 0 33.84375 0 56 L 0 184 C 0 206.15625 17.84375 224 40 224 L 40 192 C 35.570312 192 32 188.429688 32 184 L 32 160 L 224 160 L 224 184 C 224 188.429688 220.429688 192 216 192 L 216 224 C 238.15625 224 256 206.15625 256 184 L 256 56 C 256 33.84375 238.15625 16 216 16 Z M 40 16 "/>
<path style=" stroke:none;fill-rule:nonzero;fill:rgb(74.509804%,74.509804%,74.509804%);fill-opacity:1;" d="M 46.078125 176.640625 C 46.078125 219.695312 82.859375 255.109375 127.929688 255.109375 C 173.007812 255.109375 210.078125 219.695312 210.078125 176.640625 L 177.804688 176.640625 C 177.804688 203.078125 155.609375 224.28125 127.929688 224.28125 C 100.257812 224.28125 78.351562 203.078125 78.351562 176.640625 Z M 46.078125 176.640625 "/>
<path style=" stroke:none;fill-rule:nonzero;fill:rgb(74.509804%,74.509804%,74.509804%);fill-opacity:1;" d="M 96 176 C 96 193.578125 110.421875 208 128 208 C 145.578125 208 160 193.578125 160 176 L 144 176 C 144 184.929688 136.929688 192 128 192 C 119.070312 192 112 184.929688 112 176 Z M 96 176 "/>
<path style=" stroke:none;fill-rule:nonzero;fill:rgb(100%,100%,100%);fill-opacity:1;" d="M 124.054688 207.625 C 109.375 205.710938 97.367188 193.3125 96.335938 178.992188 L 96.132812 176.265625 L 104.03125 176.351562 L 111.921875 176.4375 L 112.148438 178.507812 C 112.671875 183.25 116.1875 188.046875 120.835938 190.34375 C 130.601562 195.164062 142 189.359375 143.84375 178.632812 L 144.25 176.273438 L 152.109375 176.273438 C 158.257812 176.273438 159.960938 176.367188 159.960938 176.695312 C 159.960938 178.382812 159.132812 183.054688 158.4375 185.296875 C 154.679688 197.34375 144.21875 206.085938 131.734375 207.609375 C 128.421875 208.007812 127.078125 208.015625 124.054688 207.617188 Z M 124.054688 207.625 "/>
<path style=" stroke:none;fill-rule:nonzero;fill:rgb(100%,100%,100%);fill-opacity:1;" d="M 119.84375 254.625 C 110.34375 253.742188 99.6875 250.6875 90.773438 246.289062 C 65.117188 233.632812 48.101562 208.78125 46.40625 181.492188 C 46.257812 179.078125 46.234375 176.984375 46.359375 176.851562 C 46.476562 176.710938 53.703125 176.640625 62.40625 176.6875 L 78.242188 176.773438 L 78.460938 180.234375 C 79.539062 196.78125 90.070312 211.9375 105.648438 219.351562 C 122.179688 227.226562 141.65625 225.765625 157.023438 215.515625 C 161.289062 212.671875 167.132812 206.804688 169.96875 202.507812 C 174.632812 195.445312 177.21875 187.9375 177.75 179.90625 L 177.960938 176.773438 L 209.820312 176.601562 L 209.820312 179.390625 C 209.820312 190.554688 205.390625 205.179688 198.789062 215.835938 C 194.140625 223.320312 187.398438 230.976562 180.601562 236.46875 C 168.671875 246.101562 153.265625 252.570312 137.984375 254.359375 C 134.09375 254.8125 123.539062 254.96875 119.84375 254.625 Z M 119.84375 254.625 "/>
<path style=" stroke:none;fill-rule:nonzero;fill:rgb(100%,100%,100%);fill-opacity:1;" d="M 33.210938 223.289062 C 16.1875 220.4375 2.578125 206.234375 0.492188 189.148438 C 0.210938 186.835938 0.140625 168.140625 0.226562 117.992188 C 0.359375 43.195312 0.1875 49.28125 2.296875 43.007812 C 6.921875 29.21875 19.148438 18.992188 33.828125 16.632812 C 36.585938 16.195312 47.953125 16.132812 127.9375 16.132812 C 226.867188 16.132812 221.875 16.039062 227.984375 17.960938 C 234.304688 19.945312 239.15625 22.945312 244.179688 27.984375 C 250.179688 34 253.382812 39.9375 255.054688 48.132812 C 255.710938 51.34375 255.71875 52.523438 255.71875 119.976562 C 255.71875 187.429688 255.710938 188.609375 255.054688 191.820312 C 251.453125 209.476562 236.640625 222.585938 219 223.734375 L 216.09375 223.921875 L 216.09375 192.195312 L 217.320312 191.96875 C 220.132812 191.4375 223.007812 188.984375 223.6875 186.53125 C 223.882812 185.851562 224.015625 179.992188 224.015625 172.5625 L 224.023438 159.765625 L 128.015625 159.84375 L 32.015625 159.929688 L 31.914062 172.3125 C 31.851562 181.0625 31.9375 185.109375 32.210938 186.117188 C 33.007812 189 35.640625 191.445312 38.53125 191.96875 L 39.773438 192.195312 L 39.773438 223.820312 L 37.875 223.789062 C 36.828125 223.773438 34.734375 223.546875 33.210938 223.289062 Z M 33.210938 223.289062 "/>
</g>
</svg>
