<?xml version="1.0" encoding="UTF-8"?>
<svg xmlns="http://www.w3.org/2000/svg" xmlns:xlink="http://www.w3.org/1999/xlink" width="256" height="256" viewBox="0 0 256 256" version="1.1">
<g id="surface1">
<path style=" stroke:none;fill-rule:nonzero;fill:rgb(74.509804%,74.509804%,74.509804%);fill-opacity:1;" d="M 51.039062 0 C 31.8125 0 16.039062 15.804688 16.039062 35 L 16.039062 48 L 48.039062 48 L 48.039062 35 C 48.039062 32.90625 49.0625 32 51.039062 32 L 205.039062 32 C 207.023438 32 208.039062 32.90625 208.039062 35 L 208.039062 48 L 240.039062 48 L 240.039062 35 C 240.039062 15.804688 224.265625 0 205.039062 0 Z M 51.039062 0 "/>
<path style=" stroke:none;fill-rule:nonzero;fill:rgb(74.509804%,74.509804%,74.509804%);fill-opacity:1;" d="M 51.039062 192 C 31.8125 192 16.039062 208.304688 16.039062 227.5 L 16.039062 256.5 L 48.039062 256.5 L 48.039062 227.5 C 48.039062 225.40625 49.0625 224 51.039062 224 L 205.039062 224 C 207.023438 224 208.039062 225.40625 208.039062 227.5 L 208.039062 256 L 240.039062 256 L 240.039062 227.5 C 239.882812 208.304688 224.039062 191.984375 204.84375 191.984375 L 50.84375 191.984375 Z M 51.039062 192 "/>
<path style=" stroke:none;fill-rule:nonzero;fill:rgb(74.509804%,74.509804%,74.509804%);fill-opacity:1;" d="M 51.039062 64 C 31.8125 64 16.039062 79.804688 16.039062 99 L 16.039062 112 L 48.039062 112 L 48.039062 99 C 48.039062 96.90625 49.0625 96 51.039062 96 L 205.039062 96 C 207.023438 96 208.039062 96.90625 208.039062 99 L 208.039062 112 L 240.039062 112 L 240.039062 99 C 240.039062 79.804688 224.265625 64 205.039062 64 Z M 51.039062 64 "/>
<path style=" stroke:none;fill-rule:nonzero;fill:rgb(74.509804%,74.509804%,74.509804%);fill-opacity:1;" d="M 51.039062 128 C 31.8125 128 16.039062 143.804688 16.039062 163 L 16.039062 176 L 48.039062 176 L 48.039062 163 C 48.039062 160.90625 49.0625 160 51.039062 160 L 205.039062 160 C 207.023438 160 208.039062 160.90625 208.039062 163 L 208.039062 176 L 240.039062 176 L 240.039062 163 C 240.039062 143.804688 224.265625 128 205.039062 128 Z M 51.039062 128 "/>
<path style=" stroke:none;fill-rule:nonzero;fill:rgb(100%,100%,100%);fill-opacity:1;" d="M 16.148438 239.679688 C 16.265625 225.226562 16.367188 222.53125 16.859375 220.398438 C 19.414062 209.375 26.273438 200.578125 36.078125 195.734375 C 40.445312 193.578125 43.734375 192.6875 48.828125 192.257812 C 53.992188 191.828125 202.34375 191.828125 207.21875 192.257812 C 211.960938 192.679688 215.3125 193.554688 219.195312 195.398438 C 229.71875 200.382812 237.132812 209.992188 239.3125 221.46875 C 239.710938 223.59375 239.8125 227.203125 239.8125 239.960938 L 239.8125 255.8125 L 208.039062 255.8125 L 208.039062 225.664062 L 206.414062 224.039062 L 49.601562 224.039062 L 48.796875 224.890625 L 48 225.742188 L 47.898438 241.109375 L 47.804688 256.476562 L 16.007812 256.476562 Z M 16.148438 239.679688 "/>
<path style=" stroke:none;fill-rule:nonzero;fill:rgb(100%,100%,100%);fill-opacity:1;" d="M 16.054688 169 C 16.054688 158.367188 16.757812 154.1875 19.507812 148.359375 C 21.46875 144.21875 23.3125 141.59375 26.453125 138.445312 C 32.078125 132.828125 39.109375 129.367188 46.914062 128.390625 C 50.6875 127.914062 205.164062 127.914062 209.039062 128.390625 C 223.265625 130.132812 234.726562 140.023438 238.726562 154.03125 C 239.53125 156.84375 239.585938 157.53125 239.726562 166.523438 L 239.875 176.039062 L 208.039062 176.039062 L 208.039062 168.796875 C 208.039062 162.15625 207.984375 161.484375 207.40625 160.773438 L 206.773438 159.992188 L 49.507812 159.992188 L 48.75 160.742188 C 48.015625 161.476562 47.992188 161.703125 47.898438 168.765625 L 47.796875 176.039062 L 16.054688 176.039062 Z M 16.054688 169 "/>
<path style=" stroke:none;fill-rule:nonzero;fill:rgb(100%,100%,100%);fill-opacity:1;" d="M 16.140625 102.976562 C 16.320312 93.21875 16.710938 90.804688 19 85.320312 C 23.484375 74.5625 34.390625 66.164062 46.015625 64.507812 C 47.945312 64.234375 70.578125 64.164062 129.585938 64.234375 L 210.515625 64.328125 L 213.703125 65.210938 C 225.0625 68.351562 233.851562 76.382812 237.8125 87.242188 C 239.492188 91.835938 239.8125 94.484375 239.8125 103.585938 L 239.8125 111.828125 L 208.039062 111.828125 L 208.039062 104.695312 C 208.039062 97.5625 208.039062 97.5625 207.226562 96.75 L 206.414062 95.9375 L 128.09375 95.9375 C 77.640625 95.9375 49.5625 96.054688 49.171875 96.265625 C 48.070312 96.851562 47.828125 98.460938 47.828125 105.257812 L 47.828125 111.828125 L 15.976562 111.828125 Z M 16.140625 102.976562 "/>
<path style=" stroke:none;fill-rule:nonzero;fill:rgb(100%,100%,100%);fill-opacity:1;" d="M 16.054688 41.078125 C 16.0625 37.296875 16.203125 32.945312 16.382812 31.398438 C 17.765625 19.320312 24.992188 9.007812 35.75 3.75 C 40.015625 1.671875 43.882812 0.648438 48.992188 0.25 C 51.765625 0.0390625 80.976562 -0.0390625 131.242188 0.03125 C 208.914062 0.140625 209.203125 0.140625 212.179688 0.828125 C 222.859375 3.304688 231.453125 10.023438 236.25 19.640625 C 239.203125 25.570312 239.8125 29.015625 239.8125 39.703125 L 239.8125 47.945312 L 208.039062 47.945312 L 208.039062 40.726562 C 208.039062 32.671875 208.007812 32.539062 205.875 32.046875 C 203.765625 31.554688 51.257812 31.664062 49.828125 32.15625 C 47.984375 32.789062 47.84375 33.414062 47.835938 41.078125 L 47.828125 47.945312 L 16.054688 47.945312 Z M 16.054688 41.078125 "/>
</g>
</svg>
