<?xml version="1.0" encoding="UTF-8"?>
<svg xmlns="http://www.w3.org/2000/svg" xmlns:xlink="http://www.w3.org/1999/xlink" width="256" height="256" viewBox="0 0 256 256" version="1.1">
<g id="surface1">
<path style=" stroke:none;fill-rule:nonzero;fill:rgb(74.509804%,74.509804%,74.509804%);fill-opacity:1;" d="M 63.796875 145.804688 C 78.929688 141.382812 95.070312 150.570312 99.84375 166.320312 L 110.648438 201.9375 C 115.421875 217.6875 107.03125 234.046875 91.898438 238.46875 C 76.765625 242.890625 60.632812 233.710938 55.851562 217.953125 L 45.054688 182.335938 C 40.273438 166.585938 48.671875 150.234375 63.796875 145.804688 Z M 63.796875 145.804688 "/>
<path style=" stroke:none;fill-rule:nonzero;fill:rgb(74.509804%,74.509804%,74.509804%);fill-opacity:1;" d="M 127.523438 16 C 74.632812 16 31.140625 64.132812 32.023438 107.5 C 32.796875 145.351562 44.960938 182.625 48.023438 192 L 72.429688 192 C 53.84375 155.335938 55.648438 109.5 55.648438 109.5 C 55.648438 71.539062 87.75 40.5 127.523438 40.5 C 167.289062 40.5 199.515625 69.734375 199.390625 109 C 199.015625 135.789062 196.648438 151.539062 183.3125 192 L 208.445312 192 C 212.03125 181.6875 224.023438 140.953125 224.023438 107.5 C 224.023438 62.226562 180.40625 16 127.523438 16 Z M 127.523438 16 "/>
<path style=" stroke:none;fill-rule:nonzero;fill:rgb(74.509804%,74.509804%,74.509804%);fill-opacity:1;" d="M 192.210938 146.21875 C 177.078125 141.789062 160.945312 150.976562 156.164062 166.726562 L 145.367188 202.34375 C 140.585938 218.09375 148.984375 234.453125 164.109375 238.875 C 179.242188 243.296875 195.382812 234.117188 200.15625 218.359375 L 210.960938 182.75 C 215.734375 166.992188 207.34375 150.640625 192.210938 146.21875 Z M 192.210938 146.21875 "/>
<path style=" stroke:none;fill-rule:nonzero;fill:rgb(100%,100%,100%);fill-opacity:1;" d="M 168.546875 239.65625 C 154.882812 237.851562 145.03125 226.953125 144.226562 212.757812 C 144.09375 210.523438 144.195312 208.554688 144.53125 206.65625 C 145.25 202.570312 156.46875 165.765625 158.007812 162.460938 C 159.71875 158.78125 161.6875 156.09375 164.835938 153.132812 C 172.742188 145.71875 183.703125 143.34375 193.78125 146.867188 C 194.851562 147.242188 195.789062 147.492188 195.859375 147.429688 C 196.101562 147.179688 197.570312 138.046875 198.070312 133.679688 C 199.484375 121.273438 199.828125 105.226562 198.8125 98.84375 C 194.320312 70.570312 174.015625 49.242188 145.070312 42.40625 C 133.703125 39.71875 119.828125 39.890625 108.59375 42.851562 C 79.9375 50.398438 58.84375 74.34375 55.921875 102.609375 C 55.421875 107.453125 55.71875 125.429688 56.414062 132.03125 C 57.117188 138.734375 58.304688 147.335938 58.5625 147.625 C 58.6875 147.757812 59.820312 147.4375 61.085938 146.90625 C 66.578125 144.609375 74.09375 144.257812 79.726562 146.054688 C 88.445312 148.828125 95.328125 155.210938 98.75 163.710938 C 99.960938 166.695312 111.0625 203.59375 111.421875 205.789062 C 111.898438 208.734375 111.828125 214.195312 111.273438 216.78125 C 109.0625 227.195312 102.296875 234.90625 92.601562 238.070312 C 88.570312 239.390625 82.703125 239.734375 78.632812 238.890625 C 69.679688 237.039062 61.710938 230.757812 57.757812 222.4375 C 57.109375 221.070312 54.882812 214.359375 52.8125 207.53125 C 50.734375 200.703125 48.210938 192.46875 47.1875 189.242188 C 38.148438 160.5625 32.929688 132.828125 32.289062 110.070312 C 32.078125 102.671875 32.390625 98.273438 33.507812 92.703125 C 39.109375 64.945312 60.21875 38.835938 87.8125 25.515625 C 101.867188 18.734375 115.742188 15.71875 130.578125 16.234375 C 150.828125 16.945312 169.578125 23.929688 186.742188 37.15625 C 191.234375 40.625 200.109375 49.375 203.664062 53.851562 C 217.648438 71.453125 224.757812 91.757812 223.867188 111.554688 C 223.046875 129.523438 220.367188 147.023438 215.257812 167.710938 C 212.773438 177.78125 209.539062 188.90625 208.304688 191.625 C 208.054688 192.171875 205.914062 199.007812 203.539062 206.820312 C 198.960938 221.867188 197.96875 224.320312 194.84375 228.390625 C 189.742188 235.015625 181.804688 239.25 173.5 239.765625 C 171.960938 239.859375 169.726562 239.8125 168.546875 239.65625 Z M 168.546875 239.65625 "/>
</g>
</svg>
