<?xml version="1.0" encoding="UTF-8"?>
<svg xmlns="http://www.w3.org/2000/svg" xmlns:xlink="http://www.w3.org/1999/xlink" width="256" height="256" viewBox="0 0 256 256" version="1.1">
<g id="surface1">
<path style=" stroke:none;fill-rule:nonzero;fill:rgb(74.509804%,74.509804%,74.509804%);fill-opacity:1;" d="M 56 0 C 56 0 32 0 32 24 L 32 168 C 32 192 56 192 56 192 L 80 192 L 80 224 C 80 232.867188 87.132812 240 96 240 L 160 240 C 168.867188 240 176 232.867188 176 224 L 176 192 L 200 192 C 224 192 224 168 224 168 L 224 24 C 224 0 200 0 200 0 Z M 64 32 L 96 32 L 96 64 L 64 64 Z M 112 32 L 144 32 L 144 64 L 112 64 Z M 160 32 L 192 32 L 192 64 L 160 64 Z M 64 80 L 96 80 L 96 112 L 64 112 Z M 112 80 L 144 80 L 144 112 L 112 112 Z M 160 80 L 192 80 L 192 112 L 160 112 Z M 64 128 L 96 128 L 96 160 L 64 160 Z M 112 128 L 144 128 L 144 160 L 112 160 Z M 160 128 L 192 128 L 192 160 L 160 160 Z M 112 176 L 144 176 L 144 208 L 112 208 Z M 112 176 "/>
<path style=" stroke:none;fill-rule:nonzero;fill:rgb(100%,100%,100%);fill-opacity:1;" d="M 93.265625 239.632812 C 90.976562 239.25 87.242188 237.476562 85.453125 235.921875 C 83.765625 234.445312 82.054688 231.882812 81.007812 229.273438 L 80.21875 227.289062 L 80.125 209.539062 L 80.023438 191.796875 L 66.867188 191.796875 C 56.046875 191.796875 53.25 191.703125 51.117188 191.257812 C 40.65625 189.109375 34 182.507812 32.515625 172.796875 C 32.265625 171.203125 32.1875 147.28125 32.257812 94.554688 C 32.351562 22.539062 32.382812 18.5 32.945312 16.625 C 34.085938 12.835938 35.8125 9.84375 38.28125 7.375 C 42.398438 3.265625 47.632812 0.976562 54.507812 0.273438 C 57.039062 0.015625 79.398438 -0.0625 130.578125 0.015625 L 203.054688 0.117188 L 206.265625 1 C 211.148438 2.351562 214.4375 4.195312 217.59375 7.359375 C 220.601562 10.375 221.9375 12.75 223.125 17.179688 L 223.859375 19.929688 L 223.859375 170.828125 L 223.101562 173.796875 C 220.90625 182.46875 215.945312 188.148438 208.335938 190.71875 L 205.695312 191.617188 L 190.75 191.726562 L 175.8125 191.828125 L 175.8125 209.085938 C 175.8125 223.992188 175.742188 226.585938 175.28125 228.140625 C 173.710938 233.421875 170.265625 237.109375 165.054688 239.085938 L 163.101562 239.828125 L 129.085938 239.882812 C 109.65625 239.914062 94.304688 239.804688 93.265625 239.632812 Z M 144.117188 191.960938 L 144.117188 175.945312 L 111.757812 175.945312 L 111.757812 207.976562 L 144.117188 207.976562 Z M 96.15625 144 L 96.070312 127.898438 L 64.039062 127.898438 L 63.953125 144 L 63.867188 160.09375 L 96.242188 160.09375 Z M 144.03125 144 L 143.945312 127.898438 L 111.921875 127.898438 L 111.835938 144 L 111.75 160.09375 L 144.117188 160.09375 Z M 191.992188 143.914062 L 191.992188 127.734375 L 159.960938 127.734375 L 159.960938 160.09375 L 191.992188 160.09375 Z M 96.15625 95.953125 L 96.242188 79.859375 L 63.875 79.859375 L 63.875 112.226562 L 79.976562 112.140625 L 96.070312 112.054688 Z M 144.117188 96.03125 L 144.117188 79.851562 L 128.015625 79.9375 L 111.921875 80.023438 L 111.835938 95.703125 C 111.789062 104.335938 111.820312 111.578125 111.90625 111.804688 C 112.03125 112.125 115.570312 112.21875 128.085938 112.21875 L 144.117188 112.21875 Z M 191.992188 96.039062 L 191.992188 79.859375 L 159.960938 79.859375 L 159.960938 112.21875 L 191.992188 112.21875 Z M 96.234375 47.992188 L 96.234375 31.976562 L 63.875 31.976562 L 63.875 64.007812 L 96.234375 64.007812 Z M 144.117188 47.992188 L 144.117188 31.976562 L 111.757812 31.976562 L 111.757812 64.007812 L 144.117188 64.007812 Z M 191.992188 47.992188 L 191.992188 31.976562 L 159.960938 31.976562 L 159.960938 64.007812 L 191.992188 64.007812 Z M 191.992188 47.992188 "/>
</g>
</svg>
