<?xml version="1.0" encoding="UTF-8"?>
<svg xmlns="http://www.w3.org/2000/svg" xmlns:xlink="http://www.w3.org/1999/xlink" width="256" height="256" viewBox="0 0 256 256" version="1.1">
<g id="surface1">
<path style=" stroke:none;fill-rule:nonzero;fill:rgb(74.509804%,74.509804%,74.509804%);fill-opacity:1;" d="M 74.882812 64 C 59.976562 63.953125 47.914062 76.242188 47.84375 91.625 C 48.132812 103.53125 48.195312 115.734375 48.085938 127.929688 L 94.828125 128.171875 L 95.132812 64.109375 L 74.875 64.015625 Z M 113.398438 64.1875 L 113.09375 128.25 L 159.835938 128.492188 C 160.078125 116.25 160.320312 103.96875 160.421875 92.195312 C 160.46875 76.8125 148.554688 64.375 133.65625 64.296875 L 113.398438 64.203125 Z M 48.015625 145.484375 C 47.835938 158.789062 47.421875 169.492188 47.414062 181.734375 C 47.273438 213.914062 72.242188 239.945312 103.429688 240.109375 C 134.609375 240.265625 159.84375 214.484375 159.992188 182.3125 C 159.429688 168.921875 159.257812 158.171875 159.398438 145.484375 Z M 48.015625 145.484375 "/>
<path style=" stroke:none;fill-rule:nonzero;fill:rgb(74.509804%,74.509804%,74.509804%);fill-opacity:1;" d="M 128.960938 0.15625 C 121.6875 0.953125 114.820312 3.703125 108.960938 8.15625 C 101.148438 14.101562 95.960938 23.4375 95.960938 35.15625 C 95.898438 39.382812 99.734375 43.273438 103.960938 43.273438 C 108.1875 43.273438 112.023438 39.382812 111.960938 35.15625 C 111.960938 27.976562 114.703125 23.898438 118.960938 20.65625 C 123.210938 17.421875 129.578125 15.859375 135.960938 16.15625 C 142.335938 16.460938 148.507812 18.625 152.960938 22.65625 C 157.414062 26.695312 160.460938 32.015625 160.460938 40.65625 C 160.460938 75.304688 183.882812 96.804688 208.460938 96.164062 C 222.164062 95.804688 235.46875 88.53125 244.460938 75.164062 L 235.460938 59.164062 C 229.453125 73.8125 218.375 79.890625 207.960938 80.164062 C 192.59375 80.5625 176.460938 68.484375 176.460938 40.65625 C 176.460938 27.992188 171.070312 17.554688 163.460938 10.65625 C 155.84375 3.765625 146.164062 0.625 136.460938 0.15625 C 134.03125 0.046875 131.382812 -0.101562 128.960938 0.15625 Z M 239.960938 31.65625 C 239.953125 31.828125 239.953125 31.992188 239.960938 32.15625 C 239.960938 32.882812 239.976562 33.453125 239.960938 34.15625 L 252.460938 56.15625 C 252.640625 55.507812 252.789062 54.828125 252.960938 54.15625 Z M 239.960938 37.65625 C 239.867188 39.351562 239.640625 41.078125 239.460938 42.65625 L 250.960938 62.15625 C 251.335938 61.15625 251.625 60.203125 251.960938 59.15625 Z M 238.960938 45.65625 C 238.742188 47.09375 238.25 48.328125 237.960938 49.65625 L 248.460938 67.65625 C 248.929688 66.6875 249.53125 65.679688 249.960938 64.65625 Z M 237.460938 52.65625 C 237.078125 54.078125 236.414062 55.359375 235.960938 56.65625 L 245.460938 73.15625 C 246.101562 72.117188 246.867188 71.265625 247.460938 70.15625 Z M 237.460938 52.65625 "/>
<path style=" stroke:none;fill-rule:nonzero;fill:rgb(100%,100%,100%);fill-opacity:1;" d="M 202.148438 95.71875 C 184.976562 93.507812 170.109375 80.429688 163.992188 62.15625 C 161.90625 55.929688 161.023438 50.664062 160.625 42.257812 C 160.1875 32.867188 158.859375 28.859375 154.640625 24.257812 C 149.796875 18.96875 142.804688 16.140625 134.585938 16.140625 C 127.007812 16.140625 121.5 18.046875 117.132812 22.171875 C 113.726562 25.398438 112.273438 28.671875 111.867188 34.046875 C 111.609375 37.523438 111.203125 38.734375 109.710938 40.429688 C 106.585938 43.984375 101.359375 43.96875 98.210938 40.382812 C 96.578125 38.523438 96.21875 37.351562 96.21875 33.90625 C 96.226562 28.523438 97.96875 22.21875 100.75 17.492188 C 105.703125 9.085938 116.078125 2.34375 126.71875 0.617188 C 132.101562 -0.257812 141.804688 0.445312 147.695312 2.125 C 151.351562 3.171875 157.859375 6.367188 160.65625 8.5 C 165.710938 12.335938 170.453125 18.390625 172.945312 24.164062 C 175.085938 29.132812 175.835938 32.679688 176.210938 39.59375 C 176.796875 50.421875 177.765625 55.648438 180.289062 61.507812 C 183.453125 68.859375 188.265625 74.070312 194.835938 77.265625 C 199.664062 79.617188 201.5625 80.046875 207.0625 80.054688 C 212.40625 80.054688 214.726562 79.570312 219.070312 77.554688 C 225.476562 74.585938 230.484375 69.476562 234.148438 62.179688 L 235.515625 59.460938 L 239.625 66.75 C 241.882812 70.765625 243.867188 74.320312 244.03125 74.65625 C 244.265625 75.140625 243.914062 75.804688 242.382812 77.804688 C 232.34375 90.914062 217.210938 97.648438 202.148438 95.71875 Z M 202.148438 95.71875 "/>
<path style=" stroke:none;fill-rule:nonzero;fill:rgb(100%,100%,100%);fill-opacity:1;" d="M 63.148438 127.890625 L 48.421875 127.804688 L 48.203125 108.5625 C 47.976562 87.898438 48.03125 86.914062 49.609375 82.304688 C 52.515625 73.835938 59.84375 67.070312 68.523438 64.828125 C 70.882812 64.226562 87.179688 63.789062 92.140625 64.203125 L 94.898438 64.4375 L 94.890625 93.0625 C 94.890625 108.8125 94.796875 123.148438 94.679688 124.914062 L 94.46875 128.140625 L 86.171875 128.0625 C 81.609375 128.015625 71.25 127.9375 63.148438 127.890625 Z M 63.148438 127.890625 "/>
<path style=" stroke:none;fill-rule:nonzero;fill:rgb(100%,100%,100%);fill-opacity:1;" d="M 99.523438 239.789062 C 89.28125 239.03125 79.335938 235.3125 70.726562 229.015625 C 69.578125 228.171875 67.164062 226.054688 65.367188 224.3125 C 56.710938 215.882812 51.304688 206.039062 48.773438 194.070312 C 47.671875 188.867188 47.492188 182.828125 47.8125 161.734375 L 48.0625 145.648438 L 159.320312 145.648438 L 159.335938 157.132812 C 159.34375 163.445312 159.476562 171.882812 159.640625 175.875 C 159.8125 180.226562 159.8125 184.648438 159.625 186.882812 C 157.5625 212.304688 139.75 233.28125 115.710938 238.601562 C 112.265625 239.367188 110.375 239.601562 104.804688 239.9375 C 103.804688 240 101.429688 239.929688 99.523438 239.789062 Z M 99.523438 239.789062 "/>
<path style=" stroke:none;fill-rule:nonzero;fill:rgb(100%,100%,100%);fill-opacity:1;" d="M 128.960938 128.21875 L 112.96875 128.132812 L 113.179688 124.617188 C 113.296875 122.679688 113.398438 108.320312 113.398438 92.710938 L 113.398438 64.320312 L 125.703125 64.453125 C 137.25 64.585938 138.164062 64.640625 140.476562 65.328125 C 148.710938 67.789062 155.234375 73.8125 158.4375 81.914062 C 160.210938 86.390625 160.375 88.5625 160.164062 104.351562 C 160.054688 112.257812 159.882812 120.914062 159.773438 123.59375 L 159.578125 128.46875 L 152.265625 128.390625 C 148.242188 128.34375 137.75 128.273438 128.960938 128.21875 Z M 128.960938 128.21875 "/>
<path style=" stroke:none;fill-rule:nonzero;fill:rgb(100%,100%,100%);fill-opacity:1;" d="M 240.734375 64.773438 L 236.078125 56.648438 L 236.765625 54.890625 C 237.351562 53.40625 237.515625 53.21875 237.84375 53.65625 C 238.054688 53.945312 240.257812 57.742188 242.734375 62.085938 C 245.695312 67.28125 247.179688 70.1875 247.046875 70.570312 C 246.9375 70.890625 246.523438 71.539062 246.117188 72.023438 L 245.382812 72.890625 Z M 240.734375 64.773438 "/>
<path style=" stroke:none;fill-rule:nonzero;fill:rgb(100%,100%,100%);fill-opacity:1;" d="M 243.210938 58.460938 L 238.054688 49.59375 L 238.585938 47.851562 L 239.109375 46.109375 L 244.484375 55.414062 L 249.851562 64.710938 L 249.179688 66.03125 C 248.8125 66.757812 248.476562 67.34375 248.4375 67.335938 C 248.390625 67.335938 246.039062 63.34375 243.210938 58.460938 Z M 243.210938 58.460938 "/>
<path style=" stroke:none;fill-rule:nonzero;fill:rgb(100%,100%,100%);fill-opacity:1;" d="M 246.210938 44.953125 C 242.851562 39.023438 240.054688 33.71875 239.992188 33.171875 C 239.921875 32.515625 240 32.28125 240.203125 32.492188 C 240.382812 32.671875 243.304688 37.625 246.695312 43.5 C 251.835938 52.40625 252.8125 54.304688 252.59375 54.953125 C 252.359375 55.625 251.476562 54.234375 246.210938 44.953125 Z M 246.210938 44.953125 "/>
<path style=" stroke:none;fill-rule:nonzero;fill:rgb(100%,100%,100%);fill-opacity:1;" d="M 247.046875 55.28125 C 244.898438 51.648438 242.335938 47.320312 241.351562 45.65625 L 239.554688 42.625 L 239.828125 40.375 L 240.101562 38.117188 L 251.851562 59.179688 L 251.398438 60.53125 L 250.953125 61.882812 Z M 247.046875 55.28125 "/>
</g>
</svg>
