<?xml version="1.0" encoding="UTF-8"?>
<svg xmlns="http://www.w3.org/2000/svg" xmlns:xlink="http://www.w3.org/1999/xlink" width="256" height="256" viewBox="0 0 256 256" version="1.1">
<g id="surface1">
<path style=" stroke:none;fill-rule:nonzero;fill:rgb(74.509804%,74.509804%,74.509804%);fill-opacity:1;" d="M 50.5625 64 C 22.632812 64 0.0625 92.65625 0.0625 128 C 0.0625 163.34375 22.632812 192 50.5625 192 C 78.484375 192 101.0625 163.34375 101.0625 128 C 101.0625 92.65625 78.484375 64 50.5625 64 Z M 48.0625 96 L 64.0625 96 L 64.0625 112 L 80.0625 112 L 80.0625 128 L 64.0625 128 L 64.0625 144 L 48.0625 144 L 48.0625 128 L 32.0625 128 L 32.0625 112 L 48.0625 112 Z M 48.0625 96 "/>
<path style=" stroke:none;fill-rule:nonzero;fill:rgb(74.509804%,74.509804%,74.509804%);fill-opacity:1;" d="M 205.4375 64 C 177.515625 64 154.9375 92.65625 154.9375 128 C 154.9375 163.34375 177.515625 192 205.4375 192 C 233.367188 192 255.9375 163.34375 255.9375 128 C 255.9375 92.65625 233.367188 64 205.4375 64 Z M 183.9375 88 C 192.773438 88 199.9375 95.164062 199.9375 104 C 199.9375 112.835938 192.773438 120 183.9375 120 C 175.101562 120 167.9375 112.835938 167.9375 104 C 167.9375 95.164062 175.101562 88 183.9375 88 Z M 215.9375 120 C 224.773438 120 231.9375 127.164062 231.9375 136 C 231.9375 144.835938 224.773438 152 215.9375 152 C 207.101562 152 199.9375 144.835938 199.9375 136 C 199.9375 127.164062 207.101562 120 215.9375 120 Z M 215.9375 120 "/>
<path style=" stroke:none;fill-rule:nonzero;fill:rgb(74.509804%,74.509804%,74.509804%);fill-opacity:1;" d="M 48 64 L 48 96 L 64 96 L 64 112 L 80 112 L 80 128 L 64 128 L 64 144 L 48 144 L 48 160 L 208 160 L 206.515625 150.1875 C 201.84375 147.398438 196.445312 141.640625 196.445312 135.804688 C 196.445312 129.960938 202.140625 123.320312 206.8125 120.523438 L 207.9375 63.882812 Z M 184 88 C 192.835938 88 200 95.164062 200 104 C 200 112.835938 192.835938 120 184 120 C 175.164062 120 168 112.835938 168 104 C 168 95.164062 175.164062 88 184 88 Z M 184 88 "/>
<path style=" stroke:none;fill-rule:nonzero;fill:rgb(100%,100%,100%);fill-opacity:1;" d="M 43.585938 191.257812 C 23.664062 187.664062 7.203125 169.28125 1.984375 144.8125 C 0.679688 138.679688 0.335938 135.195312 0.34375 127.898438 C 0.351562 120.132812 0.851562 115.695312 2.507812 108.914062 C 5.625 96.140625 11.609375 85.445312 20.367188 77.015625 C 27.179688 70.453125 34.46875 66.5625 43.34375 64.757812 C 46.039062 64.210938 51.0625 64.171875 128.101562 64.171875 C 207.09375 64.171875 210.09375 64.195312 212.960938 64.796875 C 228.164062 67.984375 240.851562 78.796875 248.648438 95.210938 C 253.179688 104.765625 255.3125 114.039062 255.625 125.632812 C 255.9375 137.1875 254.429688 146.390625 250.578125 156.367188 C 246.546875 166.828125 239.046875 177.03125 230.984375 183.046875 C 225.398438 187.21875 218.398438 190.257812 211.953125 191.320312 C 207.671875 192.023438 200.289062 191.796875 196.4375 190.84375 C 182.421875 187.375 171.296875 178.03125 163.273438 162.984375 L 161.554688 159.765625 L 94.3125 159.765625 L 93.0625 162.296875 C 90.007812 168.46875 85.84375 174.109375 80.671875 179.078125 C 73.734375 185.742188 65.984375 189.765625 57.148438 191.289062 C 53.539062 191.914062 47.117188 191.898438 43.585938 191.257812 Z M 221.25 151.140625 C 227.882812 148.671875 231.945312 142.914062 231.945312 135.992188 C 231.945312 128.101562 226.710938 121.851562 218.710938 120.203125 C 216.515625 119.75 215.78125 119.726562 213.726562 120.078125 C 207.171875 121.1875 202.015625 125.757812 200.421875 131.875 C 198.921875 137.640625 200.882812 144.226562 205.226562 148.015625 C 206.921875 149.484375 210.695312 151.382812 212.8125 151.828125 C 215.023438 152.296875 219.023438 151.96875 221.25 151.140625 Z M 64.203125 135.992188 L 64.203125 128.0625 L 80.054688 128.0625 L 80.054688 111.882812 L 64.203125 111.882812 L 64.203125 96.039062 L 48.023438 96.039062 L 48.023438 111.882812 L 31.84375 111.882812 L 31.84375 128.0625 L 48.023438 128.0625 L 48.023438 143.914062 L 64.203125 143.914062 Z M 187.078125 119.664062 C 194.59375 118.070312 199.914062 111.648438 199.914062 104.164062 C 199.914062 95.007812 193.015625 88.109375 183.859375 88.109375 C 177.6875 88.109375 172.296875 91.507812 169.5625 97.117188 C 164.507812 107.484375 172.132812 119.703125 183.898438 120.09375 C 184.445312 120.117188 185.875 119.921875 187.078125 119.664062 Z M 187.078125 119.664062 "/>
</g>
</svg>
