<?xml version="1.0" encoding="UTF-8"?>
<svg xmlns="http://www.w3.org/2000/svg" xmlns:xlink="http://www.w3.org/1999/xlink" width="256" height="256" viewBox="0 0 256 256" version="1.1">
<g id="surface1">
<path style=" stroke:none;fill-rule:nonzero;fill:rgb(74.509804%,74.509804%,74.509804%);fill-opacity:1;" d="M 16 32 C 7.132812 32 0 39.132812 0 48 L 0 208 C 0 216.867188 7.132812 224 16 224 L 240 224 C 248.867188 224 256 216.867188 256 208 L 256 48 C 256 39.132812 248.867188 32 240 32 Z M 32 64 L 64 64 L 64 96 L 32 96 Z M 80 64 L 112 64 L 112 96 L 80 96 Z M 128 64 L 160 64 L 160 96 L 128 96 Z M 176 64 L 208 64 L 208 96 L 176 96 Z M 48 112 L 80 112 L 80 144 L 48 144 Z M 96 112 L 128 112 L 128 144 L 96 144 Z M 144 112 L 176 112 L 176 144 L 144 144 Z M 192 112 L 224 112 L 224 144 L 192 144 Z M 32 160 L 64 160 L 64 192 L 32 192 Z M 80 160 L 176 160 L 176 192 L 80 192 Z M 192 160 L 240 160 L 240 192 L 192 192 Z M 192 160 "/>
<path style=" stroke:none;fill-rule:nonzero;fill:rgb(100%,100%,100%);fill-opacity:1;" d="M 11.734375 223.296875 C 6.304688 221.835938 1.664062 216.898438 0.515625 211.34375 C 0.25 210.09375 0.148438 186.078125 0.148438 127.789062 C 0.148438 38.210938 0.015625 44.195312 2.046875 40.46875 C 3.984375 36.914062 7.015625 34.375 11.078125 32.90625 L 13.1875 32.140625 L 126.117188 32.054688 C 198.585938 31.992188 240.007812 32.078125 241.742188 32.28125 C 245.4375 32.726562 248.25 34.054688 250.898438 36.59375 C 253.171875 38.78125 254.390625 40.742188 255.195312 43.546875 C 255.671875 45.203125 255.71875 53.226562 255.640625 128.734375 L 255.554688 212.101562 L 254.320312 214.679688 C 252.21875 219.085938 248.570312 222.125 243.9375 223.328125 C 241.109375 224.070312 14.476562 224.039062 11.734375 223.296875 Z M 64.125 176.023438 L 64.039062 159.929688 L 32.015625 159.929688 L 31.929688 176.023438 L 31.84375 192.125 L 64.210938 192.125 Z M 176.140625 175.945312 L 176.140625 159.765625 L 128.015625 159.84375 L 79.890625 159.929688 L 79.804688 175.617188 C 79.757812 184.242188 79.789062 191.484375 79.875 191.710938 C 80 192.039062 89.953125 192.125 128.085938 192.125 L 176.140625 192.125 Z M 240.125 176.023438 L 240.03125 159.929688 L 216.015625 159.84375 L 191.992188 159.757812 L 191.992188 192.125 L 240.203125 192.125 Z M 80.054688 128.0625 L 80.054688 111.882812 L 48.023438 111.882812 L 48.023438 144.242188 L 80.054688 144.242188 Z M 128.101562 128.0625 L 128.101562 112.054688 L 112 111.96875 L 95.90625 111.882812 L 95.90625 144.25 L 112 144.164062 L 128.101562 144.078125 Z M 176.140625 128.0625 L 176.140625 111.882812 L 143.78125 111.882812 L 143.78125 127.84375 C 143.78125 136.625 143.882812 143.90625 144 144.023438 C 144.125 144.148438 151.40625 144.242188 160.179688 144.242188 L 176.140625 144.242188 Z M 224.023438 128.0625 L 224.023438 111.882812 L 191.992188 111.882812 L 191.992188 144.242188 L 224.023438 144.242188 Z M 64.203125 80.023438 L 64.203125 64.007812 L 31.84375 64.007812 L 31.84375 96.039062 L 64.203125 96.039062 Z M 112.085938 80.023438 L 112.085938 64.007812 L 79.726562 64.007812 L 79.726562 79.804688 C 79.726562 88.492188 79.828125 95.695312 79.945312 95.820312 C 80.070312 95.9375 87.34375 96.039062 96.125 96.039062 L 112.085938 96.039062 Z M 159.960938 80.023438 L 159.960938 64.007812 L 127.9375 64.007812 L 127.9375 96.039062 L 159.960938 96.039062 Z M 208.171875 80.023438 L 208.171875 64.007812 L 175.8125 64.007812 L 175.8125 96.039062 L 208.171875 96.039062 Z M 208.171875 80.023438 "/>
</g>
</svg>
