<?xml version="1.0" encoding="UTF-8"?>
<svg xmlns="http://www.w3.org/2000/svg" xmlns:xlink="http://www.w3.org/1999/xlink" width="256" height="256" viewBox="0 0 256 256" version="1.1">
<g id="surface1">
<path style=" stroke:none;fill-rule:nonzero;fill:rgb(74.509804%,74.509804%,74.509804%);fill-opacity:1;" d="M 127.84375 16 C 66.359375 16 15.945312 66.414062 15.945312 127.890625 C 15.945312 189.367188 66.359375 240.140625 127.84375 240.140625 C 189.320312 240.140625 240.085938 189.367188 240.085938 127.890625 C 240.085938 66.414062 189.320312 16 127.84375 16 Z M 127.84375 80.140625 C 154.726562 80.140625 175.945312 101.007812 175.945312 127.890625 C 175.945312 154.78125 154.726562 176 127.84375 176 C 100.953125 176 80.085938 154.78125 80.085938 127.890625 C 80.085938 101.007812 100.953125 80.140625 127.84375 80.140625 Z M 127.84375 80.140625 "/>
<path style=" stroke:none;fill-rule:nonzero;fill:rgb(74.509804%,74.509804%,74.509804%);fill-opacity:1;" d="M 128.15625 96.15625 C 110.585938 96.15625 95.945312 110.523438 95.945312 128.101562 C 95.945312 145.679688 110.578125 160.046875 128.15625 160.046875 C 145.734375 160.046875 160.101562 145.679688 160.101562 128.101562 C 160.101562 110.523438 145.734375 96.15625 128.15625 96.15625 Z M 128.15625 112.132812 C 137.09375 112.132812 144.132812 119.171875 144.132812 128.101562 C 144.132812 137.039062 137.09375 144.078125 128.15625 144.078125 C 119.226562 144.078125 112.1875 137.039062 112.1875 128.101562 C 112.1875 119.171875 119.226562 112.132812 128.15625 112.132812 Z M 128.15625 112.132812 "/>
<path style=" stroke:none;fill-rule:nonzero;fill:rgb(100%,100%,100%);fill-opacity:1;" d="M 125.25 159.710938 C 111.320312 158.648438 99.234375 147.679688 96.554688 133.679688 C 96.046875 131.015625 96.125 124.632812 96.695312 121.960938 C 99.078125 110.851562 107.070312 101.75 117.609375 98.15625 C 121.953125 96.671875 124.96875 96.25 129.75 96.460938 C 138.164062 96.835938 145.242188 100.070312 151.148438 106.242188 C 159.359375 114.84375 162.0625 127.164062 158.203125 138.476562 C 155.601562 146.09375 149.59375 152.921875 142.296875 156.546875 C 136.9375 159.203125 131.59375 160.195312 125.25 159.710938 Z M 131.609375 143.773438 C 137.117188 142.601562 141.609375 138.554688 143.429688 133.109375 C 144.234375 130.6875 144.34375 126.484375 143.664062 123.9375 C 141.039062 114.132812 130.179688 109.25 121 113.757812 C 110.53125 118.890625 109.015625 133.351562 118.179688 140.695312 C 121.984375 143.742188 126.679688 144.8125 131.609375 143.773438 Z M 131.609375 143.773438 "/>
<path style=" stroke:none;fill-rule:nonzero;fill:rgb(100%,100%,100%);fill-opacity:1;" d="M 118.359375 239.625 C 92.867188 237.492188 68 225.882812 49.492188 207.476562 C 30.804688 188.890625 19.53125 165.5 16.625 139.289062 C 16.078125 134.40625 16.078125 121.398438 16.625 116.507812 C 19 95.109375 26.757812 76.109375 40.21875 58.726562 C 43.789062 54.109375 54.195312 43.75 58.921875 40.09375 C 80.210938 23.632812 105.023438 15.429688 131.070312 16.226562 C 150.539062 16.828125 168.34375 22.039062 185.320312 32.117188 C 199.875 40.757812 213.765625 54.367188 222.921875 68.960938 C 238.914062 94.4375 243.890625 125.210938 236.726562 154.351562 C 226.796875 194.757812 194.578125 226.890625 154.039062 236.851562 C 142.875 239.59375 129.992188 240.59375 118.359375 239.625 Z M 137.835938 175.125 C 147.3125 172.992188 155.234375 168.726562 161.78125 162.242188 C 169.210938 154.875 173.6875 146.109375 175.523438 135.328125 C 176.132812 131.765625 176.039062 123.3125 175.351562 119.484375 C 174.179688 113 171.429688 106.234375 167.65625 100.578125 C 165.546875 97.414062 160.476562 92.171875 157.039062 89.59375 C 151.289062 85.28125 143.015625 81.820312 135.710938 80.679688 C 130.40625 79.84375 121.523438 80.132812 116.625 81.289062 C 107.945312 83.351562 100.71875 87.304688 94.367188 93.484375 C 87.507812 100.148438 83.195312 108.007812 80.984375 117.867188 C 80.320312 120.835938 80.21875 122.1875 80.226562 127.898438 C 80.226562 135.210938 80.539062 137.3125 82.554688 143.585938 C 87.851562 160.085938 101.867188 172.15625 119.515625 175.429688 C 123.132812 176.101562 134.320312 175.914062 137.84375 175.125 Z M 137.835938 175.125 "/>
</g>
</svg>
