<?xml version="1.0" encoding="UTF-8"?>
<svg xmlns="http://www.w3.org/2000/svg" xmlns:xlink="http://www.w3.org/1999/xlink" width="256" height="256" viewBox="0 0 256 256" version="1.1">
<g id="surface1">
<path style=" stroke:none;fill-rule:nonzero;fill:rgb(74.509804%,74.509804%,74.509804%);fill-opacity:1;" d="M 56.960938 32 C 43.359375 32 32 43.359375 32 56.960938 L 32 198.960938 C 32 212.53125 43.429688 223.960938 57 223.960938 L 183 223.960938 C 196.570312 223.960938 208 212.53125 208 198.960938 L 208 65.960938 L 203.5 61.460938 L 180.5 36.960938 L 176.023438 31.84375 L 168.976562 31.84375 Z M 63.960938 64 L 161.960938 64 L 176.039062 79.039062 L 176.039062 192 L 64.039062 192 Z M 63.960938 64 "/>
<path style=" stroke:none;fill-rule:nonzero;fill:rgb(74.509804%,74.509804%,74.509804%);fill-opacity:1;" d="M 94.882812 81.117188 L 145 81.117188 C 153.28125 81.117188 159.9375 87.78125 159.9375 96.0625 L 159.9375 128.851562 C 159.9375 137.125 153.28125 143.789062 145 143.789062 L 94.882812 143.789062 C 86.601562 143.789062 79.9375 137.125 79.9375 128.851562 L 79.9375 96.0625 C 79.9375 87.742188 86.664062 81.179688 94.820312 81.179688 Z M 94.882812 81.117188 "/>
<path style=" stroke:none;fill-rule:nonzero;fill:rgb(100%,100%,100%);fill-opacity:1;" d="M 91.15625 143.21875 C 87.796875 142.429688 83.648438 139.195312 81.914062 136.015625 C 80.101562 132.679688 80.054688 132.09375 80.054688 112.65625 C 80.054688 100.757812 80.179688 94.164062 80.421875 93 C 81.671875 87.0625 86.515625 82.492188 92.601562 81.523438 C 93.953125 81.3125 104.320312 81.1875 120.507812 81.1875 C 142.328125 81.1875 146.585938 81.265625 148.375 81.6875 C 154.421875 83.109375 158.835938 87.984375 159.625 94.117188 C 160.046875 97.359375 160.039062 127.929688 159.617188 130.875 C 158.789062 136.609375 154.851562 141.25 149.367188 142.960938 C 147.460938 143.554688 145.96875 143.585938 119.898438 143.554688 C 104.664062 143.53125 91.867188 143.382812 91.15625 143.21875 Z M 91.15625 143.21875 "/>
<path style=" stroke:none;fill-rule:nonzero;fill:rgb(100%,100%,100%);fill-opacity:1;" d="M 52.109375 223.328125 C 44.289062 221.632812 37.757812 216.320312 34.351562 208.914062 C 31.992188 203.773438 32.148438 209.84375 32.25 126.914062 L 32.34375 52.289062 L 33.117188 49.976562 C 36 41.390625 42.320312 35.328125 50.953125 32.867188 L 53.476562 32.148438 L 114.757812 32.054688 L 176.03125 31.96875 L 178.117188 34.367188 C 180.828125 37.5 202.46875 60.523438 205.5 63.5 L 207.84375 65.804688 L 207.835938 133.671875 C 207.828125 207.078125 207.914062 203.421875 206.078125 207.960938 C 204.726562 211.320312 203.179688 213.609375 200.40625 216.390625 C 196.664062 220.125 192.734375 222.289062 187.757812 223.34375 C 184.570312 224.015625 55.21875 224.007812 52.109375 223.328125 Z M 176.140625 135.5625 L 176.140625 79 L 169.140625 71.507812 L 162.140625 64.007812 L 63.875 64.007812 L 63.875 192.125 L 176.140625 192.125 Z M 176.140625 135.5625 "/>
</g>
</svg>
