<?xml version="1.0" encoding="UTF-8"?>
<svg xmlns="http://www.w3.org/2000/svg" xmlns:xlink="http://www.w3.org/1999/xlink" width="256" height="256" viewBox="0 0 256 256" version="1.1">
<g id="surface1">
<path style=" stroke:none;fill-rule:nonzero;fill:rgb(74.509804%,74.509804%,74.509804%);fill-opacity:1;" d="M 47.523438 16 C 30.3125 16 16.015625 30.296875 16.015625 47.5 L 16.015625 199 L 21.015625 203.5 L 48.015625 230.5 L 48.015625 48.007812 L 208.015625 48.007812 L 208.015625 208.007812 L 176.015625 208.007812 L 176.015625 240.007812 L 208.515625 240.007812 C 225.726562 240.007812 240.015625 225.710938 240.015625 208.5 L 240.015625 47.507812 C 240.015625 30.234375 225.78125 15.992188 208.5 15.992188 Z M 47.523438 16 "/>
<path style=" stroke:none;fill-rule:nonzero;fill:rgb(74.509804%,74.509804%,74.509804%);fill-opacity:1;" d="M 80 144 C 71.132812 144 64 151.132812 64 160 L 64 224 C 64 232.867188 71.132812 240 80 240 L 144 240 C 152.867188 240 160 232.867188 160 224 L 160 160 C 160 151.132812 152.867188 144 144 144 Z M 80 160 L 112 160 L 112 224 L 80 224 Z M 80 160 "/>
<path style=" stroke:none;fill-rule:nonzero;fill:rgb(100%,100%,100%);fill-opacity:1;" d="M 77.578125 239.648438 C 71.203125 238.578125 66.335938 234.171875 64.65625 227.953125 C 64.296875 226.617188 64.210938 219.703125 64.210938 191.9375 C 64.203125 154.414062 64.117188 156.265625 66.09375 152.351562 C 67.382812 149.820312 70.34375 147.078125 73.351562 145.640625 L 75.929688 144.414062 L 111.257812 144.320312 C 145.664062 144.234375 146.648438 144.25 148.734375 144.882812 C 154.132812 146.53125 158.289062 151.101562 159.476562 156.703125 C 160.171875 159.984375 160.179688 223.890625 159.484375 227.164062 C 158.085938 233.789062 152.867188 238.710938 146.257812 239.65625 C 143.4375 240.0625 79.992188 240.054688 77.578125 239.648438 Z M 112.085938 191.953125 L 112.085938 159.757812 L 95.984375 159.84375 L 79.890625 159.929688 L 79.804688 191.632812 C 79.757812 209.0625 79.789062 223.515625 79.875 223.742188 C 80 224.0625 83.546875 224.15625 96.0625 224.15625 L 112.085938 224.15625 Z M 112.085938 191.953125 "/>
<path style=" stroke:none;fill-rule:nonzero;fill:rgb(100%,100%,100%);fill-opacity:1;" d="M 176.140625 224.015625 L 176.140625 207.976562 L 208.171875 207.976562 L 208.171875 47.828125 L 48.023438 47.828125 L 48.023438 230.21875 L 33.25 215.53125 C 25.125 207.445312 17.914062 200.421875 17.234375 199.90625 L 16 198.976562 L 16 123.4375 C 16 73.179688 16.109375 46.773438 16.34375 44.53125 C 17.109375 37.078125 20.15625 30.734375 25.546875 25.359375 C 30.039062 20.875 35.359375 18.03125 41.617188 16.75 C 44.609375 16.140625 47.195312 16.125 129.164062 16.210938 L 213.617188 16.296875 L 216.257812 17.039062 C 227.414062 20.1875 235.8125 28.585938 238.960938 39.742188 L 239.703125 42.382812 L 239.796875 126.578125 C 239.859375 184.859375 239.78125 211.492188 239.539062 213.09375 C 237.992188 223.265625 231.148438 232.359375 221.648438 236.859375 C 215.515625 239.765625 215.5 239.765625 194.554688 239.914062 L 176.140625 240.054688 Z M 176.140625 224.015625 "/>
</g>
</svg>
