<?xml version="1.0" encoding="UTF-8"?>
<svg xmlns="http://www.w3.org/2000/svg" xmlns:xlink="http://www.w3.org/1999/xlink" width="256" height="256" viewBox="0 0 256 256" version="1.1">
<g id="surface1">
<path style=" stroke:none;fill-rule:nonzero;fill:rgb(74.509804%,74.509804%,74.509804%);fill-opacity:1;" d="M 51.039062 0 C 31.8125 0 16.039062 15.804688 16.039062 35 L 16.039062 221 C 16.039062 240.195312 31.8125 256 51.039062 256 L 205.039062 256 C 224.265625 256 240.039062 240.195312 240.039062 221 L 240.039062 35 C 240.039062 15.804688 224.265625 0 205.039062 0 Z M 51.039062 32 L 205.039062 32 C 207.023438 32 208.039062 32.90625 208.039062 35 L 208.039062 221 C 208.039062 223.09375 207.023438 224 205.039062 224 L 51.039062 224 C 49.0625 224 48.039062 223.09375 48.039062 221 L 48.039062 35 C 48.039062 32.90625 49.0625 32 51.039062 32 Z M 51.039062 32 "/>
<path style=" stroke:none;fill-rule:nonzero;fill:rgb(74.509804%,74.509804%,74.509804%);fill-opacity:1;" d="M 125.4375 48 C 121.1875 48.171875 116.726562 48.9375 112.4375 50 C 78.132812 58.492188 57.445312 93.1875 65.9375 127.5 C 73.140625 156.570312 99.148438 175.859375 127.789062 175.90625 C 130.484375 175.90625 133.195312 175.742188 135.914062 175.398438 L 129.695312 127.726562 C 129.140625 127.890625 128.570312 128 127.9375 128 C 119.101562 128 111.9375 120.84375 111.9375 112 C 111.9375 103.15625 119.101562 96 127.9375 96 C 136.78125 96 143.9375 103.15625 143.9375 112 C 143.9375 113.882812 143.484375 115.601562 142.78125 117.195312 L 185.992188 139.390625 C 192.164062 126.101562 193.507812 110.898438 189.9375 96.5 C 182.507812 66.476562 155.1875 46.78125 125.445312 48 Z M 125.4375 48 "/>
<path style=" stroke:none;fill-rule:nonzero;fill:rgb(74.509804%,74.509804%,74.509804%);fill-opacity:1;" d="M 138.5625 128 L 160 192 C 171.75 224.898438 208 198.148438 183.945312 176 Z M 138.5625 128 "/>
<path style=" stroke:none;fill-rule:nonzero;fill:rgb(100%,100%,100%);fill-opacity:1;" d="M 123.476562 175.578125 C 110.96875 174.8125 98.085938 169.804688 88.1875 161.875 C 58.328125 137.945312 55.976562 93.59375 83.132812 66.601562 C 94.929688 54.882812 111.351562 48.171875 128.265625 48.171875 C 154.625 48.171875 178.28125 64.570312 187.53125 89.265625 C 193.125 104.195312 193.054688 121.25 187.335938 135.867188 L 185.992188 139.320312 L 180.984375 136.710938 C 178.226562 135.273438 168.625 130.34375 159.632812 125.742188 C 150.640625 121.148438 143.234375 117.351562 143.171875 117.304688 C 143.109375 117.25 143.3125 116.203125 143.625 114.960938 C 145.335938 108.125 141.515625 100.742188 134.539062 97.390625 C 132.101562 96.21875 131.992188 96.203125 127.9375 96.203125 C 123.875 96.203125 123.765625 96.21875 121.328125 97.390625 C 112.6875 101.539062 109.460938 111.007812 113.773438 119.554688 C 116.265625 124.5 122.070312 128.046875 127.671875 128.0625 C 129.539062 128.0625 129.554688 128.078125 129.742188 129.140625 C 129.84375 129.726562 131.179688 139.945312 132.71875 151.84375 C 134.257812 163.734375 135.585938 173.867188 135.671875 174.359375 C 135.828125 175.1875 135.742188 175.257812 134.445312 175.414062 C 131.640625 175.757812 127.34375 175.820312 123.476562 175.578125 Z M 123.476562 175.578125 "/>
<path style=" stroke:none;fill-rule:nonzero;fill:rgb(100%,100%,100%);fill-opacity:1;" d="M 173.539062 206.8125 C 168.617188 205.429688 164.835938 201.890625 161.789062 195.8125 C 160.65625 193.5625 138.984375 129.453125 139.257812 129.179688 C 139.40625 129.03125 182.726562 174.617188 186.320312 178.695312 C 189.09375 181.835938 191.203125 186.101562 191.703125 189.546875 C 192.992188 198.492188 186.476562 206.65625 177.625 207.179688 C 176.171875 207.257812 174.664062 207.125 173.539062 206.8125 Z M 173.539062 206.8125 "/>
<path style=" stroke:none;fill-rule:nonzero;fill:rgb(100%,100%,100%);fill-opacity:1;" d="M 46.539062 255.617188 C 37.515625 254.390625 28.78125 249.257812 23.265625 241.9375 C 19.148438 236.46875 16.859375 230.25 16.296875 223 C 16.085938 220.21875 16.007812 185.53125 16.078125 124.765625 L 16.179688 30.820312 L 16.875 27.84375 C 20.101562 13.9375 30.726562 3.53125 44.5625 0.71875 C 47.390625 0.140625 51.390625 0.117188 128.101562 0.117188 C 204.796875 0.117188 208.804688 0.140625 211.460938 0.71875 C 225.132812 3.664062 235.15625 13.046875 238.828125 26.328125 L 239.703125 29.5 L 239.804688 126.414062 C 239.875 197.28125 239.796875 224.039062 239.523438 225.960938 C 237.429688 240.742188 225.703125 252.765625 210.851562 255.367188 C 208.46875 255.789062 197.0625 255.84375 127.804688 255.804688 C 83.65625 255.773438 47.085938 255.695312 46.539062 255.617188 Z M 206.648438 223.78125 C 207.101562 223.578125 207.625 223.015625 207.820312 222.539062 C 208.078125 221.929688 208.15625 194.273438 208.09375 127.460938 L 208.007812 33.242188 L 207.226562 32.609375 C 206.460938 31.992188 204.75 31.976562 128.109375 31.976562 L 49.765625 31.976562 L 48.898438 32.664062 L 48.023438 33.351562 L 48.023438 127.78125 C 48.023438 193.96875 48.132812 222.414062 48.375 222.875 C 48.570312 223.234375 49.054688 223.664062 49.453125 223.820312 C 50.585938 224.28125 205.640625 224.242188 206.648438 223.78125 Z M 206.648438 223.78125 "/>
</g>
</svg>
