<?xml version="1.0" encoding="UTF-8"?>
<svg xmlns="http://www.w3.org/2000/svg" xmlns:xlink="http://www.w3.org/1999/xlink" width="256" height="256" viewBox="0 0 256 256" version="1.1">
<g id="surface1">
<path style=" stroke:none;fill-rule:nonzero;fill:rgb(74.509804%,74.509804%,74.509804%);fill-opacity:1;" d="M 127.84375 16 C 66.359375 16 15.945312 66.414062 15.945312 127.890625 C 15.945312 189.367188 66.359375 240.140625 127.84375 240.140625 C 189.320312 240.140625 240.085938 189.367188 240.085938 127.890625 C 240.085938 66.414062 189.320312 16 127.84375 16 Z M 127.84375 80.140625 C 154.726562 80.140625 175.945312 101.007812 175.945312 127.890625 C 175.945312 154.78125 154.726562 176 127.84375 176 C 100.953125 176 80.085938 154.78125 80.085938 127.890625 C 80.085938 101.007812 100.953125 80.140625 127.84375 80.140625 Z M 127.84375 80.140625 "/>
<path style=" stroke:none;fill-rule:nonzero;fill:rgb(74.509804%,74.509804%,74.509804%);fill-opacity:1;" d="M 128.15625 96.15625 C 110.585938 96.15625 95.945312 110.523438 95.945312 128.101562 C 95.945312 145.679688 110.578125 160.046875 128.15625 160.046875 C 145.734375 160.046875 160.101562 145.679688 160.101562 128.101562 C 160.101562 110.523438 145.734375 96.15625 128.15625 96.15625 Z M 128.15625 112.132812 C 137.09375 112.132812 144.132812 119.171875 144.132812 128.101562 C 144.132812 137.039062 137.09375 144.078125 128.15625 144.078125 C 119.226562 144.078125 112.1875 137.039062 112.1875 128.101562 C 112.1875 119.171875 119.226562 112.132812 128.15625 112.132812 Z M 128.15625 112.132812 "/>
<path style=" stroke:none;fill-rule:nonzero;fill:rgb(100%,100%,100%);fill-opacity:1;" d="M 125.289062 159.71875 C 112.007812 158.648438 100.570312 148.984375 97.007812 135.828125 C 95.945312 131.890625 95.945312 124.382812 97.007812 120.46875 C 99.546875 111.109375 105.8125 103.546875 114.445312 99.445312 C 119.515625 97.03125 121.75 96.570312 128.265625 96.578125 C 133.40625 96.578125 134.125 96.65625 136.78125 97.46875 C 145.648438 100.171875 152.65625 106.015625 156.601562 113.976562 C 162.742188 126.359375 160.289062 140.9375 150.429688 150.703125 C 143.695312 157.359375 134.953125 160.5 125.289062 159.71875 Z M 131.671875 143.742188 C 142.21875 141.257812 147.3125 129.945312 142.210938 120.351562 C 137.1875 110.914062 123.8125 109.21875 116.484375 117.101562 C 113.53125 120.273438 112.210938 123.609375 112.203125 127.9375 C 112.1875 132.640625 113.679688 136.320312 116.898438 139.523438 C 120.796875 143.398438 126.375 144.992188 131.671875 143.742188 Z M 131.671875 143.742188 "/>
<path style=" stroke:none;fill-rule:nonzero;fill:rgb(100%,100%,100%);fill-opacity:1;" d="M 120.335938 239.804688 C 106.6875 238.445312 98.453125 236.59375 88.148438 232.570312 C 73.414062 226.828125 61.3125 219.007812 49.992188 207.929688 C 30.609375 188.9375 18.9375 164.445312 16.507812 137.640625 C 15.710938 128.867188 16.242188 117.140625 17.828125 108.257812 C 23.984375 73.789062 46.585938 43.726562 78.296875 27.820312 C 99.054688 17.414062 122.8125 13.84375 145.929688 17.648438 C 182.054688 23.609375 213.242188 47.078125 229.125 80.273438 C 242.296875 107.796875 243.484375 139.578125 232.40625 168.0625 C 229.304688 176.023438 224.015625 185.789062 219.109375 192.617188 C 213.828125 199.960938 204.59375 209.773438 198.085938 214.96875 C 181.234375 228.398438 162.257812 236.5 141.304688 239.195312 C 137.40625 239.695312 123.34375 240.101562 120.335938 239.804688 Z M 138.375 175 C 142.734375 173.984375 146.054688 172.757812 150.242188 170.609375 C 166.148438 162.445312 175.976562 146.140625 175.976562 127.898438 C 175.976562 105.015625 160.773438 86.125 138.335938 81.125 C 135.304688 80.453125 133.992188 80.351562 127.9375 80.351562 C 120.21875 80.351562 118.023438 80.671875 112.03125 82.664062 C 98.726562 87.09375 88 97.5 82.960938 110.875 C 80.625 117.085938 79.5625 125.21875 80.1875 132.09375 C 82.226562 154.421875 97.929688 171.601562 119.84375 175.476562 C 123.625 176.148438 134.679688 175.867188 138.375 175 Z M 138.375 175 "/>
</g>
</svg>
