<?xml version="1.0" encoding="UTF-8"?>
<svg xmlns="http://www.w3.org/2000/svg" xmlns:xlink="http://www.w3.org/1999/xlink" width="256" height="256" viewBox="0 0 256 256" version="1.1">
<g id="surface1">
<path style=" stroke:none;fill-rule:nonzero;fill:rgb(74.509804%,74.509804%,74.509804%);fill-opacity:1;" d="M 127.84375 16 C 66.359375 16 15.945312 66.414062 15.945312 127.890625 C 15.945312 189.367188 66.359375 240.140625 127.84375 240.140625 C 189.320312 240.140625 240.085938 189.367188 240.085938 127.890625 C 240.085938 66.414062 189.320312 16 127.84375 16 Z M 127.84375 80.140625 C 154.726562 80.140625 175.945312 101.007812 175.945312 127.890625 C 175.945312 154.78125 154.726562 176 127.84375 176 C 100.953125 176 80.085938 154.78125 80.085938 127.890625 C 80.085938 101.007812 100.953125 80.140625 127.84375 80.140625 Z M 127.84375 80.140625 "/>
<path style=" stroke:none;fill-rule:nonzero;fill:rgb(74.509804%,74.509804%,74.509804%);fill-opacity:1;" d="M 128.15625 96.15625 C 110.585938 96.15625 95.945312 110.523438 95.945312 128.101562 C 95.945312 145.679688 110.578125 160.046875 128.15625 160.046875 C 145.734375 160.046875 160.101562 145.679688 160.101562 128.101562 C 160.101562 110.523438 145.734375 96.15625 128.15625 96.15625 Z M 128.15625 112.132812 C 137.09375 112.132812 144.132812 119.171875 144.132812 128.101562 C 144.132812 137.039062 137.09375 144.078125 128.15625 144.078125 C 119.226562 144.078125 112.1875 137.039062 112.1875 128.101562 C 112.1875 119.171875 119.226562 112.132812 128.15625 112.132812 Z M 128.15625 112.132812 "/>
<path style=" stroke:none;fill-rule:nonzero;fill:rgb(100%,100%,100%);fill-opacity:1;" d="M 122.804688 159.5 C 117.054688 158.484375 112.015625 156.101562 107.234375 152.132812 C 102.5625 148.257812 98.6875 142.09375 97.054688 135.945312 C 96.078125 132.265625 95.851562 126.585938 96.53125 122.789062 C 97.71875 116.140625 100.578125 110.71875 105.46875 105.828125 C 110.890625 100.40625 117.203125 97.351562 124.84375 96.46875 C 141.148438 94.570312 156.59375 106.242188 159.554688 122.703125 C 160.070312 125.539062 160 131.40625 159.421875 134.148438 C 156.8125 146.539062 147.992188 155.804688 135.742188 159.007812 C 132.546875 159.84375 126.132812 160.085938 122.804688 159.5 Z M 133.3125 143.320312 C 144.492188 139.46875 147.875 125.28125 139.601562 116.929688 C 134.476562 111.757812 127.429688 110.617188 120.8125 113.882812 C 115.554688 116.46875 112.179688 121.96875 112.179688 127.9375 C 112.179688 130.914062 112.554688 132.5625 113.835938 135.25 C 115.773438 139.304688 119.625 142.445312 124.21875 143.695312 C 126.390625 144.289062 131.046875 144.09375 133.3125 143.320312 Z M 133.3125 143.320312 "/>
<path style=" stroke:none;fill-rule:nonzero;fill:rgb(100%,100%,100%);fill-opacity:1;" d="M 123.28125 239.953125 C 95.445312 238.585938 70.039062 227.546875 50.15625 208.171875 C 31.757812 190.242188 20.414062 167.617188 16.921875 141.835938 C 16.140625 136.078125 15.929688 123.921875 16.515625 117.890625 C 19.46875 87.078125 34.242188 59.859375 58.609375 40.335938 C 76.6875 25.851562 99.492188 17.296875 122.773438 16.265625 C 151.40625 15 179.351562 24.703125 200.992188 43.4375 C 204.578125 46.539062 211.734375 53.859375 214.476562 57.21875 C 238.953125 87.25 246.304688 126.109375 234.390625 162.507812 C 220.960938 203.539062 184.28125 233.84375 141.609375 239.179688 C 135.617188 239.921875 128.664062 240.21875 123.28125 239.953125 Z M 135.1875 175.492188 C 150.476562 173.257812 163.554688 163.9375 170.601562 150.257812 C 180.28125 131.445312 176.765625 108.5 161.9375 93.835938 C 155.492188 87.453125 146.640625 82.8125 137.328125 80.929688 C 134.609375 80.375 133.492188 80.304688 127.828125 80.304688 C 122.195312 80.304688 121.0625 80.375 118.570312 80.90625 C 114.382812 81.789062 111.5 82.679688 108.34375 84.0625 C 94.046875 90.328125 84.304688 102.445312 80.953125 118.140625 C 80.289062 121.25 80.234375 121.96875 80.234375 127.921875 C 80.234375 133.867188 80.289062 134.585938 80.953125 137.695312 C 83.804688 151.085938 91.398438 162.078125 102.601562 169.03125 C 111.992188 174.859375 123.664062 177.179688 135.1875 175.492188 Z M 135.1875 175.492188 "/>
</g>
</svg>
