<?xml version="1.0" encoding="UTF-8"?>
<svg xmlns="http://www.w3.org/2000/svg" xmlns:xlink="http://www.w3.org/1999/xlink" width="256" height="256" viewBox="0 0 256 256" version="1.1">
<g id="surface1">
<path style=" stroke:none;fill-rule:nonzero;fill:rgb(74.509804%,74.509804%,74.509804%);fill-opacity:1;" d="M 71.507812 16 C 58.367188 16 48 26.367188 48 39.5 L 48 216.492188 C 48 229.625 58.367188 239.992188 71.507812 239.992188 L 184.507812 239.992188 C 197.640625 239.992188 208.007812 229.632812 208.007812 216.492188 L 208.007812 39.5 C 208.007812 26.367188 197.640625 16 184.507812 16 Z M 64.007812 32 L 192.007812 32 L 192.007812 112 L 64.007812 112 Z M 128.007812 128 C 154.515625 128 176.007812 149.492188 176.007812 176 C 176.007812 202.507812 154.515625 224 128.007812 224 C 101.492188 224 80.007812 202.507812 80.007812 176 C 80.007812 149.492188 101.492188 128 128.007812 128 Z M 128.007812 128 "/>
<path style=" stroke:none;fill-rule:nonzero;fill:rgb(74.509804%,74.509804%,74.509804%);fill-opacity:1;" d="M 152 176 C 152 189.257812 141.257812 200 128 200 C 114.742188 200 104 189.257812 104 176 C 104 162.742188 114.742188 152 128 152 C 141.257812 152 152 162.742188 152 176 Z M 152 176 "/>
<path style=" stroke:none;fill-rule:nonzero;fill:rgb(100%,100%,100%);fill-opacity:1;" d="M 125.59375 199.671875 C 116.734375 198.882812 108.71875 192.679688 105.640625 184.234375 C 100.96875 171.445312 107.601562 157.789062 120.671875 153.273438 C 123.03125 152.460938 123.78125 152.359375 127.765625 152.351562 C 132.835938 152.335938 135.3125 152.914062 139.492188 155.085938 C 142.539062 156.671875 147.015625 161.070312 148.734375 164.164062 C 156.039062 177.367188 149.828125 193.71875 135.65625 198.585938 C 132.835938 199.554688 128.9375 199.976562 125.59375 199.671875 Z M 125.59375 199.671875 "/>
<path style=" stroke:none;fill-rule:nonzero;fill:rgb(100%,100%,100%);fill-opacity:1;" d="M 68.210938 239.632812 C 63.046875 238.960938 58.9375 236.875 54.921875 232.875 C 52.734375 230.703125 51.953125 229.640625 50.703125 227.101562 C 47.984375 221.59375 48.203125 230.257812 48.195312 127.875 C 48.195312 37.570312 48.203125 36.34375 48.851562 33.765625 C 50.929688 25.523438 57.171875 19.148438 65.398438 16.875 C 67.382812 16.328125 71.226562 16.296875 128.265625 16.296875 L 189.023438 16.296875 L 191.554688 17.15625 C 200.5625 20.234375 206.460938 27.367188 207.671875 36.648438 C 207.929688 38.601562 208 65.9375 207.9375 129.882812 L 207.835938 220.359375 L 207.078125 222.828125 C 204.546875 231.007812 199 236.546875 190.78125 239.078125 L 188.359375 239.828125 L 129.421875 239.875 C 96.335938 239.90625 69.484375 239.796875 68.210938 239.632812 Z M 136.6875 223.3125 C 148.523438 221.039062 159.460938 214.226562 166.578125 204.6875 C 170.5 199.4375 173.726562 192.257812 175.195312 185.523438 C 176.0625 181.539062 176.070312 170.71875 175.210938 166.695312 C 173.132812 156.9375 168.835938 148.96875 161.960938 142.085938 C 154.78125 134.90625 145.703125 130.195312 135.90625 128.5625 C 131.773438 127.875 123.992188 127.859375 120.171875 128.539062 C 100.023438 132.09375 84.695312 147.109375 80.65625 167.242188 C 79.773438 171.664062 79.859375 180.921875 80.820312 185.414062 C 82.882812 195 87.3125 203.195312 94.085938 209.953125 C 102.148438 217.992188 111.757812 222.523438 123.804688 223.953125 C 126.109375 224.234375 133.945312 223.84375 136.6875 223.3125 Z M 192.15625 72.101562 L 192.15625 31.976562 L 64.039062 31.976562 L 64.039062 112.21875 L 192.15625 112.21875 Z M 192.15625 72.101562 "/>
</g>
</svg>
