<?xml version="1.0" encoding="UTF-8"?>
<svg xmlns="http://www.w3.org/2000/svg" xmlns:xlink="http://www.w3.org/1999/xlink" width="256" height="256" viewBox="0 0 256 256" version="1.1">
<g id="surface1">
<path style=" stroke:none;fill-rule:nonzero;fill:rgb(74.509804%,74.509804%,74.509804%);fill-opacity:1;" d="M 87.523438 16 C 74.382812 16 64.015625 26.367188 64.015625 39.5 L 64.015625 216.492188 C 64.015625 229.625 74.382812 239.992188 87.523438 239.992188 L 169.523438 239.992188 C 182.65625 239.992188 193.023438 229.632812 193.023438 216.492188 L 193.023438 39.5 C 193.023438 26.367188 182.65625 16 169.523438 16 Z M 80.023438 32 L 177.023438 32 L 177.023438 208 L 80.023438 208 Z M 80.023438 32 "/>
<path style=" stroke:none;fill-rule:nonzero;fill:rgb(100%,100%,100%);fill-opacity:1;" d="M 84.226562 239.632812 C 79.054688 238.960938 74.953125 236.867188 70.9375 232.875 C 68.75 230.703125 67.96875 229.640625 66.71875 227.101562 C 63.976562 221.546875 64.1875 230.367188 64.289062 127 L 64.375 34.789062 L 65.25 32.21875 C 68.125 23.78125 75.140625 17.789062 83.6875 16.46875 C 85.492188 16.195312 98.0625 16.117188 130.078125 16.195312 L 174 16.296875 L 176.304688 17.070312 C 180.421875 18.453125 183.039062 20.039062 185.882812 22.890625 C 189.921875 26.945312 191.945312 31 192.671875 36.5 C 192.898438 38.21875 192.976562 69.164062 192.914062 129.71875 C 192.820312 215.53125 192.789062 220.460938 192.226562 222.335938 C 189.695312 230.867188 184.15625 236.492188 175.75 239.078125 L 173.335938 239.820312 L 129.914062 239.875 C 105.78125 239.90625 85.484375 239.796875 84.226562 239.632812 Z M 177.132812 119.976562 L 177.132812 31.976562 L 80.054688 31.976562 L 80.054688 207.976562 L 177.132812 207.976562 Z M 177.132812 119.976562 "/>
</g>
</svg>
