<?xml version="1.0" encoding="UTF-8"?>
<svg xmlns="http://www.w3.org/2000/svg" xmlns:xlink="http://www.w3.org/1999/xlink" width="256" height="256" viewBox="0 0 256 256" version="1.1">
<g id="surface1">
<path style=" stroke:none;fill-rule:nonzero;fill:rgb(74.509804%,74.509804%,74.509804%);fill-opacity:1;" d="M 96 16 C 79.851562 16.078125 80 32 80 32 L 80 208 C 80 224 96 224 96 224 L 160 224 C 176 224 176 208 176 208 L 176 80 C 176.015625 71.132812 168.867188 64 160 64 L 112 64 L 112 32 C 112 32 111.859375 16.085938 96 16 Z M 96 80 L 160 80 L 160 128.5 L 96 128 Z M 96 144 L 112 144 L 112 160 L 128 160 L 128 144 L 144 144 L 144 160 L 160 160 L 160 176 L 144 176 L 144 192 L 160 192 L 160 208 L 144 208 L 144 192 L 128 192 L 128 208 L 112 208 L 112 192 L 96 192 L 96 176 L 112 176 L 112 160 L 96 160 Z M 112 176 L 112 192 L 128 192 L 128 176 Z M 128 176 L 144 176 L 144 160 L 128 160 Z M 128 176 "/>
<path style=" stroke:none;fill-rule:nonzero;fill:rgb(100%,100%,100%);fill-opacity:1;" d="M 91.945312 223.296875 C 85.484375 221.59375 81.367188 217.304688 80.40625 211.273438 C 80.171875 209.835938 80.0625 179.921875 80.0625 119.976562 C 80.070312 22.273438 79.9375 28.617188 82.03125 24.226562 C 84.453125 19.15625 89.5625 16.148438 95.773438 16.132812 C 102.195312 16.117188 107.1875 18.953125 109.78125 24.078125 C 111.71875 27.898438 111.757812 28.34375 111.757812 46.96875 L 111.757812 64.007812 L 136.109375 64.007812 C 151.546875 64.015625 161.242188 64.140625 162.601562 64.359375 C 168.5625 65.328125 173.773438 70.09375 175.351562 76.015625 C 175.726562 77.421875 175.804688 88.960938 175.804688 143.75 C 175.804688 201.117188 175.734375 210.0625 175.3125 211.875 C 173.882812 217.929688 170.039062 222.023438 164.554688 223.3125 C 161.453125 224.046875 94.71875 224.03125 91.945312 223.296875 Z M 128.265625 200.046875 L 128.265625 192.125 L 143.78125 192.125 L 143.78125 207.976562 L 159.960938 207.976562 L 159.960938 191.796875 L 144.117188 191.796875 L 144.117188 176.273438 L 159.960938 176.273438 L 159.960938 159.765625 L 144.117188 159.765625 L 144.117188 143.914062 L 127.9375 143.914062 L 127.9375 159.765625 L 112.085938 159.765625 L 112.085938 143.914062 L 95.90625 143.914062 L 95.90625 160.09375 L 111.757812 160.09375 L 111.757812 175.945312 L 95.90625 175.945312 L 95.90625 192.125 L 111.757812 192.125 L 111.757812 207.976562 L 128.265625 207.976562 Z M 159.960938 104.289062 L 159.960938 79.859375 L 95.90625 79.859375 L 95.90625 128.0625 L 101.765625 128.117188 C 118.945312 128.257812 154.257812 128.601562 156.90625 128.664062 L 159.960938 128.726562 Z M 159.960938 104.289062 "/>
<path style=" stroke:none;fill-rule:nonzero;fill:rgb(100%,100%,100%);fill-opacity:1;" d="M 128.265625 168.023438 L 128.265625 160.09375 L 143.78125 160.09375 L 143.78125 175.945312 L 128.265625 175.945312 Z M 128.265625 168.023438 "/>
<path style=" stroke:none;fill-rule:nonzero;fill:rgb(100%,100%,100%);fill-opacity:1;" d="M 112.085938 184.03125 L 112.085938 176.273438 L 127.9375 176.273438 L 127.9375 191.796875 L 112.085938 191.796875 Z M 112.085938 184.03125 "/>
</g>
</svg>
