<?xml version="1.0" encoding="UTF-8"?>
<svg xmlns="http://www.w3.org/2000/svg" xmlns:xlink="http://www.w3.org/1999/xlink" width="256" height="256" viewBox="0 0 256 256" version="1.1">
<g id="surface1">
<path style=" stroke:none;fill-rule:nonzero;fill:rgb(74.509804%,74.509804%,74.509804%);fill-opacity:1;" d="M 96 192 L 96 224 L 7.5 224 C 3.289062 224 0 227.289062 0 231.5 L 0 248.5 C 0 252.710938 3.289062 256 7.5 256 L 216.492188 256 C 220.703125 256 223.992188 252.710938 223.992188 248.5 L 223.992188 231.5 C 223.992188 227.289062 220.703125 224 216.492188 224 L 127.992188 224 L 127.992188 192 Z M 96 192 "/>
<path style=" stroke:none;fill-rule:nonzero;fill:rgb(74.509804%,74.509804%,74.509804%);fill-opacity:1;" d="M 64.796875 33.921875 L 64.796875 127.84375 L 160.046875 127.84375 L 160.046875 64.921875 L 128.046875 33.921875 Z M 32.046875 128.09375 L 32.046875 191.421875 L 191.546875 191.421875 L 191.546875 128.09375 L 176.296875 128.09375 L 176.265625 143.773438 L 47.804688 144.335938 L 47.804688 128.085938 Z M 32.046875 128.09375 "/>
<path style=" stroke:none;fill-rule:nonzero;fill:rgb(100%,100%,100%);fill-opacity:1;" d="M 64.867188 80.851562 L 64.867188 33.960938 L 127.984375 33.960938 L 143.9375 49.398438 L 159.898438 64.835938 L 159.929688 96.28125 L 159.960938 127.734375 L 64.867188 127.734375 Z M 64.867188 80.851562 "/>
<path style=" stroke:none;fill-rule:nonzero;fill:rgb(100%,100%,100%);fill-opacity:1;" d="M 32.179688 159.765625 L 32.179688 128.0625 L 47.695312 128.0625 L 47.695312 144.460938 L 69.570312 144.351562 C 81.601562 144.289062 110.578125 144.148438 133.960938 144.039062 L 176.476562 143.835938 L 176.476562 128.0625 L 191.328125 128.0625 L 191.328125 191.460938 L 32.179688 191.460938 Z M 32.179688 159.765625 "/>
<path style=" stroke:none;fill-rule:nonzero;fill:rgb(100%,100%,100%);fill-opacity:1;" d="M 4.070312 254.929688 C 2.78125 254.257812 2.03125 253.570312 1.3125 252.398438 L 0.3125 250.789062 L 0.3125 229.21875 L 1.304688 227.59375 C 2.046875 226.375 2.742188 225.742188 4.085938 225.0625 L 5.882812 224.15625 L 96.234375 224.15625 L 96.234375 192.125 L 127.9375 192.125 L 127.9375 224.15625 L 172.757812 224.15625 C 203.015625 224.15625 217.984375 224.265625 218.828125 224.5 C 220.40625 224.9375 222.195312 226.5 223.132812 228.25 C 223.835938 229.554688 223.859375 229.929688 223.859375 240 C 223.859375 250.078125 223.835938 250.445312 223.132812 251.757812 C 222.195312 253.5 220.40625 255.0625 218.828125 255.5 C 217.96875 255.742188 184.570312 255.851562 111.710938 255.851562 L 5.835938 255.851562 Z M 4.070312 254.929688 "/>
</g>
</svg>
