<?xml version="1.0" encoding="UTF-8"?>
<svg xmlns="http://www.w3.org/2000/svg" xmlns:xlink="http://www.w3.org/1999/xlink" width="256" height="256" viewBox="0 0 256 256" version="1.1">
<g id="surface1">
<path style=" stroke:none;fill-rule:nonzero;fill:rgb(74.509804%,74.509804%,74.509804%);fill-opacity:1;" d="M 32 64 C 24 64 16 72 16 80 L 16 144 C 16 152 24 160 32 160 L 48 160 L 48 128 L 208 128 L 208 160 L 224 160 C 232 160 240 152 240 144 L 240 80 C 240 72 232 64 224 64 Z M 32 64 "/>
<path style=" stroke:none;fill-rule:nonzero;fill:rgb(74.509804%,74.509804%,74.509804%);fill-opacity:1;" d="M 64 16 L 64 48 L 192 48 L 192 16 Z M 64 16 "/>
<path style=" stroke:none;fill-rule:nonzero;fill:rgb(74.509804%,74.509804%,74.509804%);fill-opacity:1;" d="M 64 144 L 64 224 L 192 224 L 192 144 Z M 80 160 L 176 160 L 176 176 L 80 176 Z M 80 192 L 160 192 L 160 208 L 80 208 Z M 80 192 "/>
<path style=" stroke:none;fill-rule:nonzero;fill:rgb(100%,100%,100%);fill-opacity:1;" d="M 64.203125 184.03125 L 64.203125 144.242188 L 191.992188 144.242188 L 191.992188 223.820312 L 64.203125 223.820312 Z M 159.960938 199.882812 L 159.960938 191.789062 L 119.929688 191.875 L 79.890625 191.960938 L 79.804688 199.96875 L 79.710938 207.96875 L 159.960938 207.96875 Z M 176.0625 167.9375 L 176.15625 159.765625 L 128.023438 159.84375 L 79.890625 159.929688 L 79.804688 167.679688 C 79.75 171.945312 79.78125 175.625 79.875 175.859375 C 80 176.195312 89.390625 176.257812 128.007812 176.195312 L 175.976562 176.109375 Z M 176.0625 167.9375 "/>
<path style=" stroke:none;fill-rule:nonzero;fill:rgb(100%,100%,100%);fill-opacity:1;" d="M 27.804688 159.125 C 26.765625 158.789062 25.171875 158.046875 24.273438 157.46875 C 22.15625 156.109375 19.054688 152.78125 17.882812 150.601562 C 16 147.117188 16.007812 147.304688 16.007812 112.21875 C 16 92.859375 16.132812 79.234375 16.320312 78.039062 C 17.375 71.5625 23.554688 65.382812 30.03125 64.335938 C 32.9375 63.859375 223.601562 63.890625 226.1875 64.367188 C 231.953125 65.421875 237.429688 70.375 239.21875 76.15625 C 239.851562 78.210938 239.867188 79.289062 239.867188 111.851562 C 239.867188 148.835938 239.945312 147.398438 237.8125 151.164062 C 236.25 153.929688 233.117188 156.835938 230.09375 158.328125 L 227.523438 159.601562 L 208.179688 159.804688 L 208.007812 127.898438 L 128.015625 127.820312 L 48.023438 127.734375 L 48.023438 159.765625 L 38.867188 159.75 C 30.914062 159.734375 29.445312 159.648438 27.804688 159.125 Z M 27.804688 159.125 "/>
<path style=" stroke:none;fill-rule:nonzero;fill:rgb(100%,100%,100%);fill-opacity:1;" d="M 64.203125 31.976562 L 64.203125 16.132812 L 191.992188 16.132812 L 191.992188 47.828125 L 64.203125 47.828125 Z M 64.203125 31.976562 "/>
</g>
</svg>
