<?xml version="1.0" encoding="UTF-8"?>
<svg xmlns="http://www.w3.org/2000/svg" xmlns:xlink="http://www.w3.org/1999/xlink" width="256" height="256" viewBox="0 0 256 256" version="1.1">
<g id="surface1">
<path style=" stroke:none;fill-rule:nonzero;fill:rgb(100%,100%,100%);fill-opacity:1;" d="M 164.835938 10.664062 C 157.390625 10.695312 151.59375 10.703125 149.335938 10.835938 C 140.296875 11.367188 135.789062 17.007812 134 25.335938 C 133.773438 29.523438 134 98.664062 134 98.664062 C 134 107.1875 140.8125 114.164062 149.335938 114.164062 L 229.835938 114.164062 C 238.359375 114.164062 245.164062 107.1875 245.164062 98.664062 C 245.164062 90.140625 246.203125 26.453125 244 20.664062 C 241.796875 14.882812 236.429688 10.835938 229.835938 10.835938 C 224.890625 10.835938 187.164062 10.59375 164.835938 10.664062 Z M 154.835938 22.835938 L 224.164062 22.835938 C 229.117188 22.835938 233.164062 26.71875 233.164062 31.664062 L 233.164062 93.335938 C 233.164062 98.28125 229.117188 102.164062 224.164062 102.164062 L 154.835938 102.164062 C 149.882812 102.164062 145.835938 98.28125 145.835938 93.335938 L 145.835938 31.664062 C 145.835938 26.71875 149.882812 22.835938 154.835938 22.835938 Z M 157.835938 34.664062 L 157.835938 90.335938 L 221.164062 90.335938 L 221.164062 34.664062 Z M 35.335938 77.664062 C 22.78125 77.710938 12.625 87.945312 12.664062 100.5 C 12.710938 113.054688 22.945312 123.210938 35.5 123.164062 C 48.054688 123.125 58.210938 112.890625 58.164062 100.335938 C 58.125 87.78125 47.890625 77.625 35.335938 77.664062 Z M 35.5 135 C 29.015625 135.023438 23.34375 138.328125 20 143.335938 C 19.96875 143.375 20.023438 143.460938 20 143.5 C 14.921875 145.742188 11.984375 150.34375 10.664062 156.5 C 10.554688 158.546875 10.640625 176.398438 10.664062 193.835938 C 10.664062 194.21875 10.664062 194.28125 10.664062 194.664062 C 10.695312 212.476562 10.664062 229.835938 10.664062 229.835938 C 10.664062 238.359375 17.640625 245.335938 26.164062 245.335938 L 106.5 245.335938 C 115.023438 245.335938 121.835938 238.359375 121.835938 229.835938 C 121.835938 229.640625 121.835938 228.25 121.835938 228 C 123.59375 226.039062 124.679688 223.484375 124.664062 220.664062 C 124.65625 217.960938 123.632812 215.5625 122 213.664062 C 122.234375 192.757812 122.59375 156.445312 120.835938 151.835938 C 118.632812 146.046875 113.09375 142 106.5 142 C 102.203125 142 72.195312 141.835938 50 141.835938 C 46.554688 137.671875 41.3125 134.984375 35.5 135 Z M 31.5 154 L 100.835938 154 C 105.78125 154 109.835938 157.882812 109.835938 162.835938 L 109.835938 224.5 C 109.835938 229.453125 105.78125 233.335938 100.835938 233.335938 L 31.5 233.335938 C 26.546875 233.335938 22.5 229.453125 22.5 224.5 L 22.5 162.835938 C 22.5 157.882812 26.546875 154 31.5 154 Z M 34.5 165.835938 L 34.5 221.5 L 98 221.5 L 98 165.835938 Z M 165.835938 205.664062 C 162.265625 206 159.40625 208.796875 159 212.5 C 158.539062 216.726562 161.601562 220.539062 165.835938 221 C 170.0625 221.460938 173.703125 218.5625 174.164062 214.335938 C 174.632812 210.101562 171.726562 206.296875 167.5 205.835938 C 166.96875 205.773438 166.34375 205.617188 165.835938 205.664062 Z M 165.835938 205.664062 "/>
</g>
</svg>
