<?xml version="1.0" encoding="UTF-8"?>
<svg xmlns="http://www.w3.org/2000/svg" xmlns:xlink="http://www.w3.org/1999/xlink" width="256" height="256" viewBox="0 0 256 256" version="1.1">
<g id="surface1">
<path style=" stroke:none;fill-rule:nonzero;fill:rgb(100%,100%,100%);fill-opacity:1;" d="M 164.835938 10.664062 C 157.390625 10.695312 151.59375 10.703125 149.335938 10.835938 C 140.296875 11.367188 135.789062 17.007812 134 25.335938 C 133.773438 29.523438 134 98.664062 134 98.664062 C 134 107.1875 140.8125 114.164062 149.335938 114.164062 L 229.835938 114.164062 C 238.359375 114.164062 245.164062 107.1875 245.164062 98.664062 C 245.164062 90.140625 246.203125 26.453125 244 20.664062 C 241.796875 14.882812 236.429688 10.835938 229.835938 10.835938 C 224.890625 10.835938 187.164062 10.59375 164.835938 10.664062 Z M 154.835938 22.835938 L 224.164062 22.835938 C 229.117188 22.835938 233.164062 26.71875 233.164062 31.664062 L 233.164062 93.335938 C 233.164062 98.28125 229.117188 102.164062 224.164062 102.164062 L 154.835938 102.164062 C 149.882812 102.164062 145.835938 98.28125 145.835938 93.335938 L 145.835938 31.664062 C 145.835938 26.71875 149.882812 22.835938 154.835938 22.835938 Z M 157.835938 34.664062 L 157.835938 90.335938 L 221.164062 90.335938 L 221.164062 34.664062 Z M 221.335938 117.664062 C 218.398438 117.921875 215.460938 119.007812 213 121 C 206.4375 126.3125 205.515625 135.9375 210.835938 142.5 C 216.148438 149.0625 225.765625 150.148438 232.335938 144.835938 C 238.898438 139.515625 239.8125 129.898438 234.5 123.335938 C 231.179688 119.226562 226.226562 117.242188 221.335938 117.664062 Z M 41.5 141.835938 C 34.054688 141.859375 28.421875 141.867188 26.164062 142 C 17.132812 142.53125 12.453125 148.171875 10.664062 156.5 C 10.554688 158.546875 10.640625 176.398438 10.664062 193.835938 C 10.664062 194.21875 10.664062 194.28125 10.664062 194.664062 C 10.695312 212.476562 10.664062 229.835938 10.664062 229.835938 C 10.664062 238.359375 17.640625 245.335938 26.164062 245.335938 L 106.5 245.335938 C 115.023438 245.335938 121.835938 238.359375 121.835938 229.835938 C 121.835938 221.3125 123.039062 157.617188 120.835938 151.835938 C 118.632812 146.046875 113.09375 142 106.5 142 C 101.554688 142 63.828125 141.757812 41.5 141.835938 Z M 31.5 154 L 100.835938 154 C 105.78125 154 109.835938 157.882812 109.835938 162.835938 L 109.835938 224.5 C 109.835938 229.453125 105.78125 233.335938 100.835938 233.335938 L 31.5 233.335938 C 26.546875 233.335938 22.5 229.453125 22.5 224.5 L 22.5 162.835938 C 22.5 157.882812 26.546875 154 31.5 154 Z M 204.335938 165.164062 C 200.726562 165.476562 197.1875 166.882812 194.164062 169.335938 C 186.101562 175.859375 184.976562 187.601562 191.5 195.664062 C 198.023438 203.726562 209.773438 205.023438 217.835938 198.5 C 225.898438 191.976562 227.195312 180.0625 220.664062 172 C 216.585938 166.960938 210.335938 164.648438 204.335938 165.164062 Z M 34.5 165.835938 L 34.5 221.5 L 98 221.5 L 98 165.835938 Z M 162.5 194.835938 C 158.140625 195.210938 153.992188 196.867188 150.335938 199.835938 C 140.578125 207.734375 138.9375 222.078125 146.835938 231.835938 C 154.734375 241.59375 169.078125 243.0625 178.835938 235.164062 C 188.59375 227.265625 190.0625 212.921875 182.164062 203.164062 C 177.226562 197.070312 169.773438 194.203125 162.5 194.835938 Z M 162.5 194.835938 "/>
</g>
</svg>
