<?xml version="1.0" encoding="UTF-8"?>
<svg xmlns="http://www.w3.org/2000/svg" xmlns:xlink="http://www.w3.org/1999/xlink" width="256" height="256" viewBox="0 0 256 256" version="1.1">
<g id="surface1">
<path style=" stroke:none;fill-rule:nonzero;fill:rgb(100%,100%,100%);fill-opacity:1;" d="M 116.164062 9.335938 C 113.210938 9.367188 110.210938 9.90625 107.335938 11.164062 C 95.828125 16.203125 90.632812 29.664062 95.664062 41.164062 C 100.703125 52.671875 114 57.867188 125.5 52.835938 C 128.984375 51.3125 131.757812 48.929688 134 46.164062 C 133.976562 67.726562 134 98.664062 134 98.664062 C 134 107.1875 140.8125 114.164062 149.335938 114.164062 L 229.835938 114.164062 C 238.359375 114.164062 245.164062 107.1875 245.164062 98.664062 C 245.164062 90.140625 246.203125 26.453125 244 20.664062 C 241.796875 14.882812 236.429688 10.835938 229.835938 10.835938 C 224.890625 10.835938 187.164062 10.59375 164.835938 10.664062 C 157.390625 10.695312 151.59375 10.703125 149.335938 10.835938 C 142.40625 11.242188 138.085938 14.679688 135.664062 20 C 131.382812 13.234375 123.914062 9.234375 116.164062 9.335938 Z M 154.835938 22.835938 L 224.164062 22.835938 C 229.117188 22.835938 233.164062 26.71875 233.164062 31.664062 L 233.164062 93.335938 C 233.164062 98.28125 229.117188 102.164062 224.164062 102.164062 L 154.835938 102.164062 C 149.882812 102.164062 145.835938 98.28125 145.835938 93.335938 L 145.835938 31.664062 C 145.835938 26.71875 149.882812 22.835938 154.835938 22.835938 Z M 67.335938 34.664062 C 64.890625 34.695312 62.375 35.125 60 36.164062 C 50.5 40.328125 46.171875 51.5 50.335938 61 C 54.492188 70.5 65.5 74.828125 75 70.664062 C 84.5 66.507812 88.992188 55.335938 84.835938 45.835938 C 81.710938 38.710938 74.648438 34.578125 67.335938 34.664062 Z M 37.835938 82.835938 C 35.84375 82.859375 33.765625 83.320312 31.835938 84.164062 C 24.09375 87.554688 20.609375 96.59375 24 104.335938 C 27.390625 112.070312 36.429688 115.554688 44.164062 112.164062 C 51.90625 108.78125 55.390625 99.742188 52 92 C 49.460938 86.195312 43.796875 82.757812 37.835938 82.835938 Z M 37.164062 141 C 35.8125 141.015625 34.484375 141.4375 33.164062 142 C 33.117188 142.023438 33.054688 141.976562 33 142 C 30.789062 142.023438 27.171875 141.9375 26.164062 142 C 17.132812 142.53125 12.453125 148.171875 10.664062 156.5 C 10.554688 158.546875 10.640625 176.398438 10.664062 193.835938 C 10.664062 194.21875 10.664062 194.28125 10.664062 194.664062 C 10.695312 212.476562 10.664062 229.835938 10.664062 229.835938 C 10.664062 238.359375 17.640625 245.335938 26.164062 245.335938 L 106.5 245.335938 C 115.023438 245.335938 121.835938 238.359375 121.835938 229.835938 C 121.835938 221.3125 123.039062 157.617188 120.835938 151.835938 C 118.632812 146.046875 113.09375 142 106.5 142 C 101.554688 142 63.828125 141.757812 41.5 141.835938 C 40.140625 141.257812 38.648438 140.984375 37.164062 141 Z M 31.5 154 L 100.835938 154 C 105.78125 154 109.835938 157.882812 109.835938 162.835938 L 109.835938 224.5 C 109.835938 229.453125 105.78125 233.335938 100.835938 233.335938 L 31.5 233.335938 C 26.546875 233.335938 22.5 229.453125 22.5 224.5 L 22.5 162.835938 C 22.5 157.882812 26.546875 154 31.5 154 Z M 31.5 154 "/>
</g>
</svg>
