<?xml version="1.0" encoding="UTF-8"?>
<svg xmlns="http://www.w3.org/2000/svg" xmlns:xlink="http://www.w3.org/1999/xlink" width="256" height="256" viewBox="0 0 256 256" version="1.1">
<g id="surface1">
<path style=" stroke:none;fill-rule:nonzero;fill:rgb(100%,100%,100%);fill-opacity:1;" d="M 164.835938 10.664062 C 157.390625 10.695312 151.59375 10.703125 149.335938 10.835938 C 140.296875 11.367188 135.789062 17.007812 134 25.335938 C 133.773438 29.523438 134 98.664062 134 98.664062 C 134 107.1875 140.8125 114.164062 149.335938 114.164062 L 229.835938 114.164062 C 238.359375 114.164062 245.164062 107.1875 245.164062 98.664062 C 245.164062 90.140625 246.203125 26.453125 244 20.664062 C 241.796875 14.882812 236.429688 10.835938 229.835938 10.835938 C 224.890625 10.835938 187.164062 10.59375 164.835938 10.664062 Z M 154.835938 22.835938 L 224.164062 22.835938 C 229.117188 22.835938 233.164062 26.71875 233.164062 31.664062 L 233.164062 93.335938 C 233.164062 98.28125 229.117188 102.164062 224.164062 102.164062 L 154.835938 102.164062 C 149.882812 102.164062 145.835938 98.28125 145.835938 93.335938 L 145.835938 31.664062 C 145.835938 26.71875 149.882812 22.835938 154.835938 22.835938 Z M 157.835938 34.664062 L 157.835938 90.335938 L 221.164062 90.335938 L 221.164062 34.664062 Z M 220.5 121.164062 C 214.546875 121.835938 210.328125 127.210938 211 133.164062 C 211.671875 139.117188 217.046875 143.335938 223 142.664062 C 228.953125 141.992188 233.171875 136.789062 232.5 130.835938 C 231.828125 124.882812 226.453125 120.492188 220.5 121.164062 Z M 41.5 141.835938 C 34.054688 141.859375 28.421875 141.867188 26.164062 142 C 17.132812 142.53125 12.453125 148.171875 10.664062 156.5 C 10.554688 158.546875 10.640625 176.398438 10.664062 193.835938 C 10.664062 194.21875 10.664062 194.28125 10.664062 194.664062 C 10.695312 212.476562 10.664062 229.835938 10.664062 229.835938 C 10.664062 238.359375 17.640625 245.335938 26.164062 245.335938 L 106.5 245.335938 C 108.648438 245.742188 110.867188 245.929688 113.164062 245.664062 C 125.640625 244.257812 134.742188 232.976562 133.335938 220.5 C 132.492188 213.070312 128.039062 206.976562 122 203.5 C 122.195312 181.632812 122.3125 155.710938 120.835938 151.835938 C 118.632812 146.046875 113.09375 142 106.5 142 C 101.554688 142 63.828125 141.757812 41.5 141.835938 Z M 31.5 154 L 100.835938 154 C 105.78125 154 109.835938 157.882812 109.835938 162.835938 L 109.835938 224.5 C 109.835938 229.453125 105.78125 233.335938 100.835938 233.335938 L 31.5 233.335938 C 26.546875 233.335938 22.5 229.453125 22.5 224.5 L 22.5 162.835938 C 22.5 157.882812 26.546875 154 31.5 154 Z M 34.5 165.835938 L 34.5 221.5 L 98 221.5 L 98 165.835938 Z M 203.335938 167.835938 C 194.9375 168.78125 189.054688 176.4375 190 184.835938 C 190.945312 193.226562 198.4375 199.28125 206.835938 198.335938 C 215.226562 197.382812 221.28125 189.726562 220.335938 181.335938 C 219.382812 172.9375 211.726562 166.882812 203.335938 167.835938 Z M 165.335938 198.335938 C 164.09375 198.21875 162.953125 198.351562 161.664062 198.5 C 151.359375 199.664062 143.835938 208.859375 145 219.164062 C 146.164062 229.476562 155.523438 236.992188 165.835938 235.835938 C 176.140625 234.671875 183.492188 225.304688 182.335938 215 C 181.3125 205.984375 174.03125 199.117188 165.335938 198.335938 Z M 165.335938 198.335938 "/>
</g>
</svg>
