<?xml version="1.0" encoding="UTF-8"?>
<svg xmlns="http://www.w3.org/2000/svg" xmlns:xlink="http://www.w3.org/1999/xlink" width="256" height="256" viewBox="0 0 256 256" version="1.1">
<g id="surface1">
<path style=" stroke:none;fill-rule:nonzero;fill:rgb(100%,100%,100%);fill-opacity:1;" d="M 164.835938 10.664062 C 157.390625 10.695312 151.59375 10.703125 149.335938 10.835938 C 140.867188 11.328125 136.5 16.367188 134.5 23.835938 C 131.835938 18.820312 127.007812 14.992188 121 14 C 119.71875 13.789062 118.414062 13.789062 117.164062 13.835938 C 108.4375 14.164062 100.8125 20.546875 99.335938 29.5 C 97.640625 39.734375 104.601562 49.3125 114.835938 51 C 122.632812 52.289062 130.117188 48.671875 134 42.335938 C 133.953125 62.90625 134 98.664062 134 98.664062 C 134 107.1875 140.8125 114.164062 149.335938 114.164062 L 229.835938 114.164062 C 238.359375 114.164062 245.164062 107.1875 245.164062 98.664062 C 245.164062 90.140625 246.203125 26.453125 244 20.664062 C 241.796875 14.882812 236.429688 10.835938 229.835938 10.835938 C 224.890625 10.835938 187.164062 10.59375 164.835938 10.664062 Z M 154.835938 22.835938 L 224.164062 22.835938 C 229.117188 22.835938 233.164062 26.71875 233.164062 31.664062 L 233.164062 93.335938 C 233.164062 98.28125 229.117188 102.164062 224.164062 102.164062 L 154.835938 102.164062 C 149.882812 102.164062 145.835938 98.28125 145.835938 93.335938 L 145.835938 31.664062 C 145.835938 26.71875 149.882812 22.835938 154.835938 22.835938 Z M 68.164062 38.664062 C 61.054688 38.9375 54.867188 44.210938 53.664062 51.5 C 52.289062 59.835938 58 67.625 66.335938 69 C 74.671875 70.375 82.460938 64.835938 83.835938 56.5 C 85.210938 48.164062 79.671875 40.210938 71.335938 38.835938 C 70.289062 38.664062 69.179688 38.625 68.164062 38.664062 Z M 38.5 87.835938 C 33.460938 88.023438 29.023438 91.664062 28.164062 96.835938 C 27.1875 102.742188 31.257812 108.359375 37.164062 109.335938 C 43.078125 110.3125 48.6875 106.242188 49.664062 100.335938 C 50.640625 94.421875 46.578125 88.976562 40.664062 88 C 39.929688 87.875 39.21875 87.804688 38.5 87.835938 Z M 41.5 141.835938 C 34.054688 141.859375 28.421875 141.867188 26.164062 142 C 17.132812 142.53125 12.453125 148.171875 10.664062 156.5 C 10.554688 158.546875 10.640625 176.398438 10.664062 193.835938 C 10.664062 194.21875 10.664062 194.28125 10.664062 194.664062 C 10.695312 212.476562 10.664062 229.835938 10.664062 229.835938 C 10.664062 238.359375 17.640625 245.335938 26.164062 245.335938 L 106.5 245.335938 C 115.023438 245.335938 121.835938 238.359375 121.835938 229.835938 C 121.835938 221.3125 123.039062 157.617188 120.835938 151.835938 C 118.632812 146.046875 113.09375 142 106.5 142 C 101.554688 142 63.828125 141.757812 41.5 141.835938 Z M 31.5 154 L 100.835938 154 C 105.78125 154 109.835938 157.882812 109.835938 162.835938 L 109.835938 224.5 C 109.835938 229.453125 105.78125 233.335938 100.835938 233.335938 L 31.5 233.335938 C 26.546875 233.335938 22.5 229.453125 22.5 224.5 L 22.5 162.835938 C 22.5 157.882812 26.546875 154 31.5 154 Z M 34.5 165.835938 L 34.5 221.5 L 98 221.5 L 98 165.835938 Z M 34.5 165.835938 "/>
</g>
</svg>
