<?xml version="1.0" encoding="UTF-8"?>
<svg xmlns="http://www.w3.org/2000/svg" xmlns:xlink="http://www.w3.org/1999/xlink" width="256" height="256" viewBox="0 0 256 256" version="1.1">
<g id="surface1">
<path style=" stroke:none;fill-rule:nonzero;fill:rgb(100%,100%,100%);fill-opacity:1;" d="M 164.835938 10.664062 C 157.390625 10.695312 151.59375 10.703125 149.335938 10.835938 C 140.296875 11.367188 135.789062 17.007812 134 25.335938 C 133.773438 29.523438 134 98.664062 134 98.664062 C 134 107.1875 140.8125 114.164062 149.335938 114.164062 L 210 114.164062 C 203.5 119.617188 200.359375 128.382812 202.664062 137.164062 C 205.851562 149.3125 218.1875 156.6875 230.335938 153.5 C 242.476562 150.3125 249.6875 137.8125 246.5 125.664062 C 245 119.960938 241.40625 115.445312 236.835938 112.5 C 241.8125 109.929688 245.164062 104.671875 245.164062 98.664062 C 245.164062 90.140625 246.203125 26.453125 244 20.664062 C 241.796875 14.882812 236.429688 10.835938 229.835938 10.835938 C 224.890625 10.835938 187.164062 10.59375 164.835938 10.664062 Z M 154.835938 22.835938 L 224.164062 22.835938 C 229.117188 22.835938 233.164062 26.71875 233.164062 31.664062 L 233.164062 93.335938 C 233.164062 98.28125 229.117188 102.164062 224.164062 102.164062 L 154.835938 102.164062 C 149.882812 102.164062 145.835938 98.28125 145.835938 93.335938 L 145.835938 31.664062 C 145.835938 26.71875 149.882812 22.835938 154.835938 22.835938 Z M 117.835938 23.835938 C 117.117188 23.875 116.390625 23.976562 115.664062 24.164062 C 109.875 25.6875 106.476562 31.539062 108 37.335938 C 109.523438 43.125 115.375 46.6875 121.164062 45.164062 C 126.960938 43.648438 130.523438 37.625 129 31.835938 C 127.671875 26.765625 122.875 23.554688 117.835938 23.835938 Z M 157.835938 34.664062 L 157.835938 90.335938 L 221.164062 90.335938 L 221.164062 34.664062 Z M 68.164062 47.335938 C 63.953125 47.945312 61.054688 51.953125 61.664062 56.164062 C 62.28125 60.375 66.125 63.28125 70.335938 62.664062 C 74.546875 62.054688 77.445312 58.046875 76.835938 53.835938 C 76.21875 49.625 72.375 46.71875 68.164062 47.335938 Z M 41.5 141.835938 C 34.054688 141.859375 28.421875 141.867188 26.164062 142 C 17.132812 142.53125 12.453125 148.171875 10.664062 156.5 C 10.4375 160.6875 10.664062 229.835938 10.664062 229.835938 C 10.664062 238.359375 17.640625 245.335938 26.164062 245.335938 L 106.5 245.335938 C 115.023438 245.335938 121.835938 238.359375 121.835938 229.835938 C 121.835938 221.3125 123.039062 157.617188 120.835938 151.835938 C 118.632812 146.046875 113.09375 142 106.5 142 C 101.554688 142 63.828125 141.757812 41.5 141.835938 Z M 31.5 154 L 100.835938 154 C 105.78125 154 109.835938 157.882812 109.835938 162.835938 L 109.835938 224.5 C 109.835938 229.453125 105.78125 233.335938 100.835938 233.335938 L 31.5 233.335938 C 26.546875 233.335938 22.5 229.453125 22.5 224.5 L 22.5 162.835938 C 22.5 157.882812 26.546875 154 31.5 154 Z M 34.5 165.835938 L 34.5 221.5 L 98 221.5 L 98 165.835938 Z M 34.5 165.835938 "/>
</g>
</svg>
