<?xml version="1.0" encoding="UTF-8"?>
<svg xmlns="http://www.w3.org/2000/svg" xmlns:xlink="http://www.w3.org/1999/xlink" width="256" height="256" viewBox="0 0 256 256" version="1.1">
<g id="surface1">
<path style=" stroke:none;fill-rule:nonzero;fill:rgb(100%,100%,100%);fill-opacity:1;" d="M 164.835938 10.664062 C 157.390625 10.695312 151.59375 10.703125 149.335938 10.835938 C 140.296875 11.367188 135.789062 17.007812 134 25.335938 C 133.773438 29.523438 134 98.664062 134 98.664062 C 134 107.1875 140.8125 114.164062 149.335938 114.164062 L 229.835938 114.164062 C 238.359375 114.164062 245.164062 107.1875 245.164062 98.664062 C 245.164062 90.140625 246.203125 26.453125 244 20.664062 C 241.796875 14.882812 236.429688 10.835938 229.835938 10.835938 C 224.890625 10.835938 187.164062 10.59375 164.835938 10.664062 Z M 154.835938 22.835938 L 224.164062 22.835938 C 229.117188 22.835938 233.164062 26.71875 233.164062 31.664062 L 233.164062 93.335938 C 233.164062 98.28125 229.117188 102.164062 224.164062 102.164062 L 154.835938 102.164062 C 149.882812 102.164062 145.835938 98.28125 145.835938 93.335938 L 145.835938 31.664062 C 145.835938 26.71875 149.882812 22.835938 154.835938 22.835938 Z M 157.835938 34.664062 L 157.835938 90.335938 L 221.164062 90.335938 L 221.164062 34.664062 Z M 221.5 122.335938 C 219.03125 122.429688 216.570312 123.742188 215.164062 126 C 212.921875 129.617188 214.054688 134.421875 217.664062 136.664062 C 221.28125 138.914062 226.085938 137.78125 228.335938 134.164062 C 230.578125 130.554688 229.445312 125.742188 225.835938 123.5 C 224.476562 122.65625 222.984375 122.273438 221.5 122.335938 Z M 41.5 141.835938 C 34.054688 141.859375 28.421875 141.867188 26.164062 142 C 17.132812 142.53125 12.453125 148.171875 10.664062 156.5 C 10.4375 160.6875 10.664062 229.835938 10.664062 229.835938 C 10.664062 238.359375 17.640625 245.335938 26.164062 245.335938 L 106.5 245.335938 C 111.148438 245.335938 115.195312 243.265625 118 240 C 122.375 238.320312 126.164062 235.0625 128.335938 230.5 C 132.335938 222.078125 129.429688 212.3125 122 207.164062 C 122.226562 185.15625 122.414062 155.976562 120.835938 151.835938 C 118.632812 146.046875 113.09375 142 106.5 142 C 101.554688 142 63.828125 141.757812 41.5 141.835938 Z M 31.5 154 L 100.835938 154 C 105.78125 154 109.835938 157.882812 109.835938 162.835938 L 109.835938 224.5 C 109.835938 229.453125 105.78125 233.335938 100.835938 233.335938 L 31.5 233.335938 C 26.546875 233.335938 22.5 229.453125 22.5 224.5 L 22.5 162.835938 C 22.5 157.882812 26.546875 154 31.5 154 Z M 34.5 165.835938 L 34.5 221.5 L 98 221.5 L 98 165.835938 Z M 206 170 C 201.773438 169.820312 197.59375 172.109375 195.664062 176.164062 C 193.09375 181.578125 195.421875 188.09375 200.835938 190.664062 C 206.242188 193.234375 212.765625 190.914062 215.335938 185.5 C 217.90625 180.085938 215.578125 173.570312 210.164062 171 C 208.8125 170.359375 207.40625 170.0625 206 170 Z M 163 200.164062 C 157.859375 200.6875 153.046875 203.828125 150.664062 208.835938 C 147.039062 216.460938 150.203125 225.710938 157.835938 229.335938 C 165.460938 232.960938 174.710938 229.632812 178.335938 222 C 181.960938 214.367188 178.632812 205.289062 171 201.664062 C 169.09375 200.757812 167.148438 200.25 165.164062 200.164062 C 164.421875 200.132812 163.734375 200.09375 163 200.164062 Z M 163 200.164062 "/>
</g>
</svg>
