<?xml version="1.0" encoding="UTF-8"?>
<svg xmlns="http://www.w3.org/2000/svg" xmlns:xlink="http://www.w3.org/1999/xlink" width="256" height="256" viewBox="0 0 256 256" version="1.1">
<g id="surface1">
<path style=" stroke:none;fill-rule:nonzero;fill:rgb(100%,100%,100%);fill-opacity:1;" d="M 164.835938 10.664062 C 157.390625 10.695312 151.59375 10.703125 149.335938 10.835938 C 140.296875 11.367188 135.789062 17.007812 134 25.335938 C 133.773438 29.523438 134 98.664062 134 98.664062 C 134 107.1875 140.8125 114.164062 149.335938 114.164062 L 229.835938 114.164062 C 238.359375 114.164062 245.164062 107.1875 245.164062 98.664062 C 245.164062 90.140625 246.203125 26.453125 244 20.664062 C 241.796875 14.882812 236.429688 10.835938 229.835938 10.835938 C 224.890625 10.835938 187.164062 10.59375 164.835938 10.664062 Z M 154.835938 22.835938 L 224.164062 22.835938 C 229.117188 22.835938 233.164062 26.71875 233.164062 31.664062 L 233.164062 93.335938 C 233.164062 98.28125 229.117188 102.164062 224.164062 102.164062 L 154.835938 102.164062 C 149.882812 102.164062 145.835938 98.28125 145.835938 93.335938 L 145.835938 31.664062 C 145.835938 26.71875 149.882812 22.835938 154.835938 22.835938 Z M 65.335938 31.335938 C 58.039062 31.453125 50.953125 35.09375 46.664062 41.664062 C 39.8125 52.1875 42.8125 66.3125 53.335938 73.164062 C 63.851562 80.023438 77.8125 77.023438 84.664062 66.5 C 91.523438 55.976562 88.6875 41.851562 78.164062 35 C 74.21875 32.429688 69.710938 31.257812 65.335938 31.335938 Z M 36.335938 80 C 30.304688 80.101562 24.375 83.234375 20.835938 88.664062 C 15.171875 97.359375 17.640625 108.835938 26.335938 114.5 C 35.023438 120.164062 46.671875 117.859375 52.335938 109.164062 C 57.992188 100.476562 55.523438 88.828125 46.835938 83.164062 C 43.578125 81.046875 39.953125 79.9375 36.335938 80 Z M 36.164062 137.164062 C 32.078125 137.234375 28.203125 139.03125 25.335938 142.164062 C 16.875 143.007812 12.390625 148.453125 10.664062 156.5 C 10.4375 160.6875 10.664062 229.835938 10.664062 229.835938 C 10.664062 238.359375 17.640625 245.335938 26.164062 245.335938 L 106.5 245.335938 C 115.023438 245.335938 121.835938 238.359375 121.835938 229.835938 C 121.835938 221.3125 123.039062 157.617188 120.835938 151.835938 C 118.632812 146.046875 113.09375 142 106.5 142 C 102.007812 142 69.976562 141.8125 47.5 141.835938 C 46.710938 141.015625 45.84375 140.320312 44.835938 139.664062 C 42.179688 137.9375 39.109375 137.117188 36.164062 137.164062 Z M 31.5 154 L 100.835938 154 C 105.78125 154 109.835938 157.882812 109.835938 162.835938 L 109.835938 224.5 C 109.835938 229.453125 105.78125 233.335938 100.835938 233.335938 L 31.5 233.335938 C 26.546875 233.335938 22.5 229.453125 22.5 224.5 L 22.5 162.835938 C 22.5 157.882812 26.546875 154 31.5 154 Z M 31.5 154 "/>
</g>
</svg>
