<?xml version="1.0" encoding="UTF-8"?>
<svg xmlns="http://www.w3.org/2000/svg" xmlns:xlink="http://www.w3.org/1999/xlink" width="256" height="256" viewBox="0 0 256 256" version="1.1">
<g id="surface1">
<path style=" stroke:none;fill-rule:nonzero;fill:rgb(100%,100%,100%);fill-opacity:1;" d="M 86.664062 47.335938 C 62.304688 47.335938 44.835938 62 44.835938 85.835938 L 44.835938 106.664062 L 38 106.664062 C 31.039062 106.664062 27.5 110.179688 27.5 117.164062 L 27.5 176.5 C 27.5 179.921875 31.039062 187 38 187 L 56.664062 187 C 58.945312 192.703125 64.773438 196.390625 71.164062 195.664062 C 76.414062 195.078125 80.617188 191.5625 82.5 187 L 140.164062 187 C 145.789062 186.96875 149.335938 179.921875 149.335938 176.5 L 149.335938 117.164062 C 149.335938 110.179688 145.796875 106.664062 138.835938 106.664062 L 131.835938 106.664062 L 131.835938 85.835938 C 131.835938 61.390625 114.53125 47.335938 90.164062 47.335938 Z M 86.664062 64.835938 L 90.164062 64.835938 C 114.53125 64.835938 114.5 85.679688 114.5 92.664062 L 114.5 106.664062 L 62.335938 106.664062 L 62.335938 92.664062 C 62.335938 85.679688 62.304688 64.835938 86.664062 64.835938 Z M 117.835938 216.164062 C 112.601562 216.757812 108.90625 221.429688 109.5 226.664062 C 110.09375 231.898438 114.765625 235.59375 120 235 C 125.234375 234.40625 129.09375 229.734375 128.5 224.5 C 127.90625 219.265625 123.070312 215.578125 117.835938 216.164062 Z M 117.835938 216.164062 "/>
</g>
</svg>
