<?xml version="1.0" encoding="UTF-8"?>
<svg xmlns="http://www.w3.org/2000/svg" xmlns:xlink="http://www.w3.org/1999/xlink" width="256" height="256" viewBox="0 0 256 256" version="1.1">
<g id="surface1">
<path style=" stroke:none;fill-rule:nonzero;fill:rgb(100%,100%,100%);fill-opacity:1;" d="M 86.664062 47.335938 C 62.304688 47.335938 44.835938 62 44.835938 85.835938 L 44.835938 106.664062 L 38 106.664062 C 31.039062 106.664062 27.5 110.179688 27.5 117.164062 L 27.5 176.5 C 27.5 179.921875 31.039062 187 38 187 L 53.164062 187 C 55.59375 194.71875 63.15625 199.9375 71.5 199 C 78.476562 198.210938 83.992188 193.28125 86 187 L 140.164062 187 C 145.789062 186.96875 149.335938 179.921875 149.335938 176.5 L 149.335938 117.164062 C 149.335938 110.179688 145.796875 106.664062 138.835938 106.664062 L 131.835938 106.664062 L 131.835938 85.835938 C 131.835938 61.390625 114.53125 47.335938 90.164062 47.335938 Z M 86.664062 64.835938 L 90.164062 64.835938 C 114.53125 64.835938 114.5 85.679688 114.5 92.664062 L 114.5 106.664062 L 62.335938 106.664062 L 62.335938 92.664062 C 62.335938 85.679688 62.304688 64.835938 86.664062 64.835938 Z M 180.5 203 C 175.882812 203 172.164062 206.71875 172.164062 211.335938 C 172.164062 215.945312 175.882812 219.664062 180.5 219.664062 C 185.117188 219.664062 189 215.945312 189 211.335938 C 189 206.71875 185.117188 203 180.5 203 Z M 117.5 213.5 C 110.828125 214.25 106.078125 220.328125 106.835938 227 C 107.585938 233.671875 113.664062 238.421875 120.335938 237.664062 C 127.007812 236.914062 131.75 230.835938 131 224.164062 C 130.25 217.492188 124.171875 212.75 117.5 213.5 Z M 117.5 213.5 "/>
</g>
</svg>
