<?xml version="1.0" encoding="UTF-8"?>
<svg xmlns="http://www.w3.org/2000/svg" xmlns:xlink="http://www.w3.org/1999/xlink" width="256" height="256" viewBox="0 0 256 256" version="1.1">
<g id="surface1">
<path style=" stroke:none;fill-rule:nonzero;fill:rgb(100%,100%,100%);fill-opacity:1;" d="M 86.648438 47.351562 C 62.289062 47.351562 44.882812 61.929688 44.882812 85.765625 L 44.882812 106.71875 L 37.921875 106.71875 C 30.960938 106.71875 27.476562 110.210938 27.476562 117.1875 L 27.476562 176.554688 C 27.476562 179.976562 30.960938 187.03125 37.921875 187.03125 L 140.203125 187.03125 C 145.820312 186.992188 149.304688 179.976562 149.304688 176.554688 L 149.304688 117.1875 C 149.304688 110.210938 145.820312 106.679688 138.859375 106.679688 L 131.898438 106.71875 L 131.898438 85.765625 C 131.898438 61.320312 114.5 47.351562 90.132812 47.351562 Z M 86.648438 64.8125 L 90.132812 64.8125 C 114.5 64.8125 114.5 85.765625 114.5 92.75 L 114.5 106.71875 L 62.289062 106.71875 L 62.289062 92.75 C 62.289062 85.765625 62.289062 64.8125 86.648438 64.8125 Z M 86.648438 64.8125 "/>
</g>
</svg>
