<?xml version="1.0" encoding="UTF-8"?>
<svg xmlns="http://www.w3.org/2000/svg" xmlns:xlink="http://www.w3.org/1999/xlink" width="256" height="256" viewBox="0 0 256 256" version="1.1">
<g id="surface1">
<path style=" stroke:none;fill-rule:nonzero;fill:rgb(100%,100%,100%);fill-opacity:1;" d="M 148.335938 27.5 C 141.664062 28.25 136.914062 34.328125 137.664062 41 C 138.421875 47.671875 144.328125 52.421875 151 51.664062 C 157.671875 50.914062 162.585938 45.007812 161.835938 38.335938 C 161.078125 31.664062 155.007812 26.75 148.335938 27.5 Z M 116.335938 36 C 112.078125 36 108.664062 39.414062 108.664062 43.664062 C 108.664062 47.921875 112.078125 51.335938 116.335938 51.335938 C 120.585938 51.335938 124.164062 47.921875 124.164062 43.664062 C 124.164062 39.414062 120.585938 36 116.335938 36 Z M 86.664062 47.335938 C 62.304688 47.335938 44.835938 62 44.835938 85.835938 L 44.835938 106.664062 L 38 106.664062 C 31.039062 106.664062 27.5 110.179688 27.5 117.164062 L 27.5 176.5 C 27.5 179.921875 31.039062 187 38 187 L 140.164062 187 C 145.789062 186.96875 149.335938 179.921875 149.335938 176.5 L 149.335938 117.164062 C 149.335938 110.179688 145.796875 106.664062 138.835938 106.664062 L 131.835938 106.664062 L 131.835938 85.835938 C 131.835938 61.390625 114.53125 47.335938 90.164062 47.335938 Z M 86.664062 64.835938 L 90.164062 64.835938 C 114.53125 64.835938 114.5 85.679688 114.5 92.664062 L 114.5 106.664062 L 62.335938 106.664062 L 62.335938 92.664062 C 62.335938 85.679688 62.304688 64.835938 86.664062 64.835938 Z M 86.664062 64.835938 "/>
</g>
</svg>
