<?xml version="1.0" encoding="UTF-8"?>
<svg xmlns="http://www.w3.org/2000/svg" xmlns:xlink="http://www.w3.org/1999/xlink" width="256" height="256" viewBox="0 0 256 256" version="1.1">
<g id="surface1">
<path style=" stroke:none;fill-rule:nonzero;fill:rgb(100%,100%,100%);fill-opacity:1;" d="M 149 32.835938 C 145.203125 33.265625 142.40625 36.703125 142.835938 40.5 C 143.265625 44.296875 146.703125 46.929688 150.5 46.5 C 154.296875 46.070312 157.09375 42.632812 156.664062 38.835938 C 156.234375 35.039062 152.796875 32.40625 149 32.835938 Z M 86.664062 47.335938 C 62.304688 47.335938 44.835938 62 44.835938 85.835938 L 44.835938 106.664062 L 38 106.664062 C 31.039062 106.664062 27.5 110.179688 27.5 117.164062 L 27.5 176.5 C 27.5 179.921875 31.039062 187 38 187 L 140.164062 187 C 145.789062 186.96875 149.335938 179.921875 149.335938 176.5 L 149.335938 117.164062 C 149.335938 110.179688 145.796875 106.664062 138.835938 106.664062 L 131.835938 106.664062 L 131.835938 85.835938 C 131.835938 61.390625 114.53125 47.335938 90.164062 47.335938 Z M 187.5 47.335938 C 181.617188 48 177.5 53.289062 178.164062 59.164062 C 178.828125 65.046875 184.117188 69.328125 190 68.664062 C 195.882812 68 200 62.710938 199.335938 56.835938 C 198.671875 50.953125 193.382812 46.671875 187.5 47.335938 Z M 86.664062 64.835938 L 90.164062 64.835938 C 114.53125 64.835938 114.5 85.679688 114.5 92.664062 L 114.5 106.664062 L 62.335938 106.664062 L 62.335938 92.664062 C 62.335938 85.679688 62.304688 64.835938 86.664062 64.835938 Z M 213.835938 85.164062 C 206.039062 86.046875 200.453125 93.039062 201.335938 100.835938 C 202.210938 108.625 209.210938 114.210938 217 113.335938 C 224.789062 112.453125 230.382812 105.460938 229.5 97.664062 C 228.617188 89.875 221.625 84.289062 213.835938 85.164062 Z M 214.5 136.835938 C 213.210938 136.71875 212 136.851562 210.664062 137 C 199.984375 138.203125 192.296875 147.820312 193.5 158.5 C 194.703125 169.179688 204.320312 176.875 215 175.664062 C 225.679688 174.460938 233.375 164.84375 232.164062 154.164062 C 231.109375 144.820312 223.515625 137.640625 214.5 136.835938 Z M 180.5 188.5 C 167.929688 188.5 157.835938 198.765625 157.835938 211.335938 C 157.835938 223.90625 167.929688 234 180.5 234 C 193.070312 234 203.335938 223.90625 203.335938 211.335938 C 203.335938 198.765625 193.070312 188.5 180.5 188.5 Z M 180.5 188.5 "/>
</g>
</svg>
