<?xml version="1.0" encoding="UTF-8"?>
<svg xmlns="http://www.w3.org/2000/svg" xmlns:xlink="http://www.w3.org/1999/xlink" width="256" height="256" viewBox="0 0 256 256" version="1.1">
<g id="surface1">
<path style=" stroke:none;fill-rule:nonzero;fill:rgb(100%,100%,100%);fill-opacity:1;" d="M 86.664062 47.335938 C 62.304688 47.335938 44.835938 62 44.835938 85.835938 L 44.835938 106.664062 L 38 106.664062 C 31.039062 106.664062 27.5 110.179688 27.5 117.164062 L 27.5 176.5 C 27.5 179.921875 31.039062 187 38 187 L 47.164062 187 C 49.789062 198.289062 60.367188 206.164062 72.164062 204.835938 C 82.164062 203.703125 89.828125 196.265625 92 187 L 140.164062 187 C 145.789062 186.96875 149.335938 179.921875 149.335938 176.5 L 149.335938 117.164062 C 149.335938 110.179688 145.796875 106.664062 138.835938 106.664062 L 131.835938 106.664062 L 131.835938 85.835938 C 131.835938 61.390625 114.53125 47.335938 90.164062 47.335938 Z M 86.664062 64.835938 L 90.164062 64.835938 C 114.53125 64.835938 114.5 85.679688 114.5 92.664062 L 114.5 106.664062 L 62.335938 106.664062 L 62.335938 92.664062 C 62.335938 85.679688 62.304688 64.835938 86.664062 64.835938 Z M 212 148.664062 C 207.789062 149.140625 204.695312 152.953125 205.164062 157.164062 C 205.640625 161.382812 209.453125 164.476562 213.664062 164 C 217.882812 163.523438 220.976562 159.710938 220.5 155.5 C 220.023438 151.289062 216.210938 148.195312 212 148.664062 Z M 180.5 199.664062 C 174.078125 199.664062 169 204.90625 169 211.335938 C 169 217.757812 174.078125 223 180.5 223 C 186.921875 223 192.164062 217.757812 192.164062 211.335938 C 192.164062 204.90625 186.921875 199.664062 180.5 199.664062 Z M 120.335938 209.5 C 119.265625 209.40625 118.273438 209.539062 117.164062 209.664062 C 108.335938 210.664062 102.007812 218.507812 103 227.335938 C 103.992188 236.164062 111.835938 242.492188 120.664062 241.5 C 129.492188 240.507812 135.992188 232.664062 135 223.835938 C 134.125 216.109375 127.78125 210.171875 120.335938 209.5 Z M 120.335938 209.5 "/>
</g>
</svg>
