<?xml version="1.0" encoding="UTF-8"?>
<svg xmlns="http://www.w3.org/2000/svg" xmlns:xlink="http://www.w3.org/1999/xlink" width="256" height="256" viewBox="0 0 256 256" version="1.1">
<g id="surface1">
<path style=" stroke:none;fill-rule:nonzero;fill:rgb(100%,100%,100%);fill-opacity:1;" d="M 86.664062 47.335938 C 62.304688 47.335938 44.835938 62 44.835938 85.835938 L 44.835938 106.664062 L 38 106.664062 C 31.039062 106.664062 27.5 110.179688 27.5 117.164062 L 27.5 176.5 C 27.5 179.921875 31.039062 187 38 187 L 140.164062 187 C 145.789062 186.96875 149.335938 179.921875 149.335938 176.5 L 149.335938 117.164062 C 149.335938 110.179688 145.796875 106.664062 138.835938 106.664062 L 131.835938 106.664062 L 131.835938 85.835938 C 131.835938 61.390625 114.53125 47.335938 90.164062 47.335938 Z M 187.835938 49.335938 C 183.03125 49.875 179.460938 54.195312 180 59 C 180.539062 63.804688 184.867188 67.210938 189.664062 66.664062 C 194.46875 66.125 198.039062 61.804688 197.5 57 C 196.960938 52.195312 192.632812 48.789062 187.835938 49.335938 Z M 86.664062 64.835938 L 90.164062 64.835938 C 114.53125 64.835938 114.5 85.679688 114.5 92.664062 L 114.5 106.664062 L 62.335938 106.664062 L 62.335938 92.664062 C 62.335938 85.679688 62.304688 64.835938 86.664062 64.835938 Z M 214 87 C 207.289062 87.757812 202.578125 93.953125 203.335938 100.664062 C 204.09375 107.382812 210.117188 112.09375 216.835938 111.335938 C 223.546875 110.578125 228.421875 104.546875 227.664062 97.835938 C 226.90625 91.117188 220.710938 86.242188 214 87 Z M 211 140.164062 C 202.117188 141.171875 195.664062 149.28125 196.664062 158.164062 C 197.671875 167.046875 205.78125 173.335938 214.664062 172.335938 C 223.546875 171.328125 229.835938 163.382812 228.835938 154.5 C 227.828125 145.617188 219.882812 139.164062 211 140.164062 Z M 180.5 191.164062 C 169.375 191.164062 160.5 200.210938 160.5 211.335938 C 160.5 222.460938 169.375 231.5 180.5 231.5 C 191.625 231.5 200.664062 222.460938 200.664062 211.335938 C 200.664062 200.210938 191.625 191.164062 180.5 191.164062 Z M 116.164062 200.5 C 102.3125 202.0625 92.273438 214.640625 93.835938 228.5 C 95.398438 242.359375 107.976562 252.226562 121.835938 250.664062 C 135.6875 249.101562 145.5625 236.6875 144 222.835938 C 142.4375 208.976562 130.023438 198.9375 116.164062 200.5 Z M 116.164062 200.5 "/>
</g>
</svg>
