<?xml version="1.0" encoding="UTF-8"?>
<svg xmlns="http://www.w3.org/2000/svg" xmlns:xlink="http://www.w3.org/1999/xlink" width="28" height="28" viewBox="0 0 28 28" version="1.1">
<g id="surface1">
<path style=" stroke:none;fill-rule:evenodd;fill:rgb(84.705882%,14.901961%,0%);fill-opacity:1;" d="M 3.585938 8.335938 L 6.566406 11.253906 L 6.472656 7.164062 L 3.582031 7.148438 Z M 3.585938 8.335938 "/>
<path style="fill-rule:evenodd;fill:rgb(94.901961%,94.901961%,94.901961%);fill-opacity:1;stroke-width:5.03546;stroke-linecap:butt;stroke-linejoin:miter;stroke:rgb(68.627451%,68.627451%,68.627451%);stroke-opacity:1;stroke-miterlimit:4;" d="M 98.005022 1024.809166 L 434.919085 1023.693095 L 436.104911 659.784055 L 348.074777 570.568095 L 98.005022 570.568095 Z M 98.005022 1024.809166 " transform="matrix(0.056,0,0,0.056,0,-30.932282)"/>
<path style="fill-rule:evenodd;fill:rgb(68.627451%,68.627451%,68.627451%);fill-opacity:1;stroke-width:5.03546;stroke-linecap:butt;stroke-linejoin:miter;stroke:rgb(68.627451%,68.627451%,68.627451%);stroke-opacity:1;stroke-miterlimit:4;" d="M 432.547433 657.970439 L 350.376674 657.342648 L 351.143973 573.567537 Z M 432.547433 657.970439 " transform="matrix(0.056,0,0,0.056,0,-30.932282)"/>
<path style=" stroke:none;fill-rule:nonzero;fill:rgb(94.117647%,22.352941%,8.627451%);fill-opacity:1;" d="M 3.589844 3.628906 L 16.1875 3.628906 L 16.1875 8.351562 L 3.589844 8.351562 Z M 3.589844 3.628906 "/>
<path style=" stroke:none;fill-rule:nonzero;fill:rgb(94.117647%,22.352941%,8.627451%);fill-opacity:1;" d="M 14.894531 12.296875 C 18.757812 12.296875 21.894531 15.429688 21.894531 19.296875 C 21.894531 23.164062 18.757812 26.296875 14.894531 26.296875 C 11.027344 26.296875 7.894531 23.164062 7.894531 19.296875 C 7.894531 15.429688 11.027344 12.296875 14.894531 12.296875 Z M 14.894531 12.296875 "/>
<path style=" stroke:none;fill-rule:nonzero;fill:rgb(100%,100%,100%);fill-opacity:1;" d="M 17.414062 16.148438 L 17.414062 17.417969 C 16.148438 17.4375 15.835938 18.671875 15.835938 18.671875 L 16.789062 18.671875 L 16.789062 19.941406 L 15.3125 19.941406 C 14.421875 22.6875 12.375 22.441406 12.375 22.441406 L 12.375 21.175781 C 12.375 21.175781 13.671875 21.414062 14.335938 18.996094 C 15.164062 15.96875 17.414062 16.148438 17.414062 16.148438 Z M 17.414062 16.148438 "/>
<path style="fill:none;stroke-width:9;stroke-linecap:butt;stroke-linejoin:miter;stroke:rgb(100%,100%,100%);stroke-opacity:1;stroke-miterlimit:4;" d="M 233.353736 692.55105 L 233.772263 640.793237 L 268.230968 640.932746 " transform="matrix(0.056,0,0,0.056,0.178285,-31.353171)"/>
<path style="fill:none;stroke-width:9;stroke-linecap:butt;stroke-linejoin:miter;stroke:rgb(100%,100%,100%);stroke-opacity:1;stroke-miterlimit:4;" d="M 236.143915 664.579509 L 265.231526 664.719018 " transform="matrix(0.056,0,0,0.056,0.178285,-31.353171)"/>
<path style="fill:none;stroke-width:10;stroke-linecap:butt;stroke-linejoin:miter;stroke:rgb(100%,100%,100%);stroke-opacity:1;stroke-miterlimit:4;" d="M 147.949219 634.742202 C 147.949219 634.742202 138.671875 630.48718 129.882812 630.417425 C 121.023996 630.277916 115.583147 635.64901 115.304129 643.252247 C 114.955357 650.785729 119.210379 656.854367 134.347098 658.667983 C 149.553571 660.411845 148.646763 673.665193 146.763393 678.338742 C 144.880022 683.012291 136.09096 687.406823 127.092634 686.220997 C 118.094308 684.965416 110.63058 680.989412 110.63058 680.989412 " transform="matrix(0.056,0,0,0.056,0,-30.932282)"/>
<path style="fill:none;stroke-width:9;stroke-linecap:butt;stroke-linejoin:miter;stroke:rgb(100%,100%,100%);stroke-opacity:1;stroke-miterlimit:4;" d="M 160.644531 628.185282 L 168.805804 684.407381 L 173.828125 684.616644 L 189.662388 643.322001 L 193.010603 643.322001 L 208.984375 684.616644 L 214.21596 684.686398 L 221.679688 628.394546 " transform="matrix(0.056,0,0,0.056,0,-30.932282)"/>
</g>
</svg>
