<?xml version="1.0" encoding="UTF-8"?>
<svg xmlns="http://www.w3.org/2000/svg" xmlns:xlink="http://www.w3.org/1999/xlink" width="28" height="28" viewBox="0 0 28 28" version="1.1">
<g id="surface1">
<path style=" stroke:none;fill-rule:evenodd;fill:rgb(20%,20%,20%);fill-opacity:1;" d="M 3.53125 8.335938 L 6.511719 11.253906 L 6.417969 7.164062 L 3.527344 7.148438 Z M 3.53125 8.335938 "/>
<path style="fill-rule:evenodd;fill:rgb(94.901961%,94.901961%,94.901961%);fill-opacity:1;stroke-width:5.03546;stroke-linecap:butt;stroke-linejoin:miter;stroke:rgb(68.627451%,68.627451%,68.627451%);stroke-opacity:1;stroke-miterlimit:4;" d="M 97.02846 1024.809166 L 433.942522 1023.693095 L 435.128348 659.784055 L 347.02846 570.568095 L 97.02846 570.568095 Z M 97.02846 1024.809166 " transform="matrix(0.056,0,0,0.056,0,-30.932282)"/>
<path style="fill-rule:evenodd;fill:rgb(68.627451%,68.627451%,68.627451%);fill-opacity:1;stroke-width:5.03546;stroke-linecap:butt;stroke-linejoin:miter;stroke:rgb(68.627451%,68.627451%,68.627451%);stroke-opacity:1;stroke-miterlimit:4;" d="M 431.501116 657.970439 L 349.330357 657.342648 L 350.097656 573.567537 Z M 431.501116 657.970439 " transform="matrix(0.056,0,0,0.056,0,-30.932282)"/>
<path style=" stroke:none;fill-rule:nonzero;fill:rgb(22.352941%,25.098039%,31.372549%);fill-opacity:1;" d="M 3.535156 3.628906 L 16.132812 3.628906 L 16.132812 8.351562 L 3.535156 8.351562 Z M 3.535156 3.628906 "/>
<path style="fill-rule:evenodd;fill:rgb(22.352941%,25.098039%,31.372549%);fill-opacity:1;stroke-width:11.346586;stroke-linecap:butt;stroke-linejoin:round;stroke:rgb(100%,100%,100%);stroke-opacity:1;stroke-miterlimit:4;" d="M 144.042969 810.314189 L 384.347098 810.314189 C 390.764509 810.314189 395.996094 815.545773 395.996094 821.963184 L 395.996094 1005.556934 C 395.996094 1012.044099 390.764509 1017.20593 384.347098 1017.20593 L 144.042969 1017.20593 C 137.555804 1017.20593 132.324219 1012.044099 132.324219 1005.556934 L 132.324219 821.963184 C 132.324219 815.545773 137.555804 810.314189 144.042969 810.314189 Z M 144.042969 810.314189 " transform="matrix(0.056,0,0,0.056,0,-30.932282)"/>
<path style=" stroke:none;fill-rule:nonzero;fill:rgb(100%,100%,100%);fill-opacity:1;" d="M 9.175781 18.015625 L 9.1875 17.757812 L 9.367188 17.699219 C 9.464844 17.667969 9.582031 17.628906 9.625 17.609375 C 9.667969 17.589844 9.765625 17.554688 9.84375 17.527344 C 9.917969 17.5 10.015625 17.464844 10.058594 17.445312 C 10.101562 17.425781 10.199219 17.398438 10.273438 17.378906 C 10.4375 17.339844 10.472656 17.265625 10.347656 17.230469 C 10.296875 17.21875 10.222656 17.191406 10.179688 17.171875 C 10.136719 17.152344 9.992188 17.105469 9.863281 17.070312 C 9.730469 17.03125 9.605469 16.988281 9.585938 16.972656 C 9.5625 16.957031 9.460938 16.921875 9.355469 16.890625 L 9.167969 16.835938 L 9.167969 16.300781 L 9.277344 16.34375 C 9.464844 16.421875 9.539062 16.449219 9.683594 16.496094 C 9.761719 16.523438 9.859375 16.558594 9.902344 16.578125 C 10.078125 16.652344 10.628906 16.839844 10.777344 16.886719 C 10.949219 16.941406 11.019531 16.96875 10.953125 16.953125 C 10.914062 16.945312 10.828125 16.898438 11.039062 16.972656 C 11.09375 16.992188 11.109375 17.011719 11.109375 17.28125 L 11.109375 17.589844 L 10.863281 17.675781 C 10.726562 17.722656 10.460938 17.816406 10.277344 17.882812 C 10.09375 17.953125 9.765625 18.066406 9.554688 18.140625 L 9.164062 18.273438 Z M 9.175781 18.015625 "/>
<path style=" stroke:none;fill-rule:nonzero;fill:rgb(100%,100%,100%);fill-opacity:1;" d="M 11.582031 18.457031 L 11.582031 18.199219 L 13.683594 18.199219 L 13.683594 18.714844 L 11.582031 18.714844 Z M 11.582031 18.457031 "/>
<path style="fill:none;stroke-width:10;stroke-linecap:butt;stroke-linejoin:miter;stroke:rgb(100%,100%,100%);stroke-opacity:1;stroke-miterlimit:4;" d="M 182.198661 636.416309 C 182.198661 636.416309 172.921317 632.161287 164.132254 632.091532 C 155.343192 631.952023 149.902344 637.253363 149.553571 644.856599 C 149.274554 652.459836 153.529576 658.528474 168.666295 660.34209 C 183.803013 662.085952 182.896205 675.3393 181.012835 680.012849 C 179.199219 684.686398 170.340402 689.08093 161.342076 687.895104 C 152.413504 686.639523 144.880022 682.593765 144.880022 682.593765 " transform="matrix(0.056,0,0,0.056,0,-30.932282)"/>
<path style="fill:none;stroke-width:9;stroke-linecap:butt;stroke-linejoin:miter;stroke:rgb(100%,100%,100%);stroke-opacity:1;stroke-miterlimit:4;" d="M 311.18053 528.434309 L 311.529302 582.912546 " transform="matrix(0.056,0,0,0.056,-6.199547,-25.076696)"/>
<path style="fill:none;stroke-width:9;stroke-linecap:butt;stroke-linejoin:miter;stroke:rgb(100%,100%,100%);stroke-opacity:1;stroke-miterlimit:4;" d="M 346.267025 527.946028 L 346.546043 582.424265 " transform="matrix(0.056,0,0,0.056,-6.199547,-25.076696)"/>
<path style="fill:none;stroke-width:9;stroke-linecap:butt;stroke-linejoin:miter;stroke:rgb(100%,100%,100%);stroke-opacity:1;stroke-miterlimit:4;" d="M 310.901512 555.01076 L 347.522605 555.01076 " transform="matrix(0.056,0,0,0.056,-6.199547,-25.076696)"/>
</g>
</svg>
