<?xml version="1.0" encoding="UTF-8"?>
<svg xmlns="http://www.w3.org/2000/svg" xmlns:xlink="http://www.w3.org/1999/xlink" width="28" height="28" viewBox="0 0 28 28" version="1.1">
<g id="surface1">
<path style=" stroke:none;fill-rule:evenodd;fill:rgb(39.215686%,39.215686%,39.215686%);fill-opacity:1;" d="M 3.53125 8.617188 L 6.511719 11.53125 L 6.417969 7.441406 L 3.527344 7.429688 Z M 3.53125 8.617188 "/>
<path style="fill-rule:evenodd;fill:rgb(94.901961%,94.901961%,94.901961%);fill-opacity:1;stroke-width:5.03546;stroke-linecap:butt;stroke-linejoin:miter;stroke:rgb(68.627451%,68.627451%,68.627451%);stroke-opacity:1;stroke-miterlimit:4;" d="M 97.02846 1029.831488 L 433.942522 1028.645662 L 435.128348 664.806376 L 347.02846 575.590416 L 97.02846 575.590416 Z M 97.02846 1029.831488 " transform="matrix(0.056,0,0,0.056,0,-30.932282)"/>
<path style="fill-rule:evenodd;fill:rgb(68.627451%,68.627451%,68.627451%);fill-opacity:1;stroke-width:5.03546;stroke-linecap:butt;stroke-linejoin:miter;stroke:rgb(68.627451%,68.627451%,68.627451%);stroke-opacity:1;stroke-miterlimit:4;" d="M 431.501116 662.923006 L 349.330357 662.36497 L 350.097656 578.520104 Z M 431.501116 662.923006 " transform="matrix(0.056,0,0,0.056,0,-30.932282)"/>
<path style=" stroke:none;fill-rule:nonzero;fill:rgb(60%,60%,60%);fill-opacity:1;" d="M 3.535156 3.910156 L 15.578125 3.910156 L 15.578125 8.632812 L 3.535156 8.632812 Z M 3.535156 3.910156 "/>
<path style=" stroke:none;fill-rule:nonzero;fill:rgb(80%,80%,80%);fill-opacity:0.588235;" d="M 14.339844 16.984375 C 12.472656 16.890625 10.753906 16.375 10.007812 15.683594 C 9.820312 15.511719 9.667969 15.261719 9.667969 15.125 C 9.671875 14.890625 9.957031 14.546875 10.355469 14.289062 C 12.066406 13.195312 15.613281 12.90625 18.210938 13.644531 C 19.109375 13.898438 19.785156 14.246094 20.160156 14.644531 C 20.414062 14.914062 20.460938 15.085938 20.351562 15.328125 C 20.09375 15.894531 18.941406 16.476562 17.492188 16.765625 C 16.910156 16.882812 16.355469 16.949219 15.667969 16.984375 C 15.0625 17.015625 14.988281 17.015625 14.339844 16.984375 Z M 14.339844 16.984375 "/>
<path style=" stroke:none;fill-rule:nonzero;fill:rgb(80%,80%,80%);fill-opacity:0.588235;" d="M 14.527344 26.613281 C 13.097656 26.539062 11.773438 26.144531 11.203125 25.617188 C 11.058594 25.480469 10.945312 25.289062 10.945312 25.183594 C 10.945312 25.007812 11.164062 24.742188 11.46875 24.546875 C 12.785156 23.707031 15.503906 23.484375 17.496094 24.050781 C 18.183594 24.246094 18.707031 24.515625 18.992188 24.816406 C 19.1875 25.023438 19.222656 25.15625 19.140625 25.339844 C 18.941406 25.777344 18.058594 26.222656 16.945312 26.445312 C 16.5 26.535156 16.070312 26.585938 15.546875 26.613281 C 15.082031 26.636719 15.023438 26.636719 14.527344 26.613281 Z M 14.527344 26.613281 "/>
<path style=" stroke:none;fill-rule:nonzero;fill:rgb(58.823529%,58.823529%,58.823529%);fill-opacity:0.588235;" d="M 14.429688 26.617188 C 12.898438 26.511719 11.652344 26.09375 11.113281 25.503906 C 10.921875 25.292969 10.871094 25.179688 10.8125 24.851562 C 10.65625 23.945312 9.113281 15.652344 9.074219 15.496094 C 8.796875 14.441406 9.925781 13.480469 12.058594 12.957031 C 12.550781 12.835938 13.292969 12.71875 13.882812 12.667969 C 14.414062 12.617188 15.640625 12.617188 16.171875 12.667969 C 18.757812 12.898438 20.691406 13.789062 20.980469 14.882812 C 21.039062 15.09375 21.035156 15.253906 20.960938 15.546875 C 20.886719 15.863281 19.222656 24.871094 19.222656 24.972656 C 19.222656 25.015625 19.179688 25.132812 19.128906 25.234375 C 18.867188 25.757812 17.992188 26.222656 16.808594 26.460938 C 16.152344 26.597656 15.121094 26.664062 14.429688 26.617188 Z M 14.429688 26.617188 "/>
<path style="fill-rule:nonzero;fill:rgb(0%,40%,50.196078%);fill-opacity:1;stroke-width:1;stroke-linecap:butt;stroke-linejoin:miter;stroke:rgb(0%,40%,50.196078%);stroke-opacity:1;stroke-miterlimit:4;" d="M 68.805936 87.336366 L 64.783733 94.421837 L 68.885847 101.454032 L 68.85921 98.364128 L 72.295397 98.310854 C 74.426365 98.230943 75.598398 96.606079 75.598398 96.606079 L 80.739359 87.76256 C 81.858118 85.285309 80.686085 83.580534 80.686085 83.580534 L 77.090076 77.454 L 69.977968 81.556114 L 74.532913 89.440698 C 74.719373 89.840254 74.453002 90.186537 73.946897 90.186537 L 68.832573 90.213174 Z M 68.805936 87.336366 " transform="matrix(0.146647,0,0,0.146647,5.714508,9.375983)"/>
<path style="fill-rule:nonzero;fill:rgb(0%,40%,50.196078%);fill-opacity:1;stroke-width:1;stroke-linecap:butt;stroke-linejoin:miter;stroke:rgb(0%,40%,50.196078%);stroke-opacity:1;stroke-miterlimit:4;" d="M 58.470739 86.270882 L 54.31535 79.212049 L 46.191033 79.265323 L 48.88138 80.810275 L 47.22988 83.793631 C 46.191033 85.658229 47.04342 87.496189 47.04342 87.496189 L 52.157745 96.392982 C 53.755971 98.577225 55.807028 98.390765 55.807028 98.390765 L 62.919135 98.337491 L 62.892498 90.133262 L 53.782608 90.1599 C 53.329777 90.106625 53.169955 89.707069 53.436326 89.280875 L 55.940214 84.832478 Z M 58.470739 86.270882 " transform="matrix(0.146647,0,0,0.146647,5.714508,9.375983)"/>
<path style="fill-rule:nonzero;fill:rgb(0%,40%,50.196078%);fill-opacity:1;stroke-width:1;stroke-linecap:butt;stroke-linejoin:miter;stroke:rgb(0%,40%,50.196078%);stroke-opacity:1;stroke-miterlimit:4;" d="M 64.570636 77.853557 L 72.748227 77.773645 L 76.77043 70.714812 L 74.10672 72.259764 L 72.348671 69.329683 C 71.229912 67.51836 69.232129 67.3319 69.232129 67.3319 L 58.976844 67.278626 C 56.259859 67.571634 55.407471 69.436231 55.407471 69.436231 L 51.891373 75.61604 L 59.003481 79.718154 L 63.531789 71.806934 C 63.824797 71.460651 64.250991 71.513925 64.490725 71.966756 L 67.074524 76.361879 Z M 64.570636 77.853557 " transform="matrix(0.146647,0,0,0.146647,5.714508,9.375983)"/>
<path style="fill:none;stroke-width:9;stroke-linecap:butt;stroke-linejoin:miter;stroke:rgb(100%,100%,100%);stroke-opacity:1;stroke-miterlimit:4;" d="M 133.998326 695.149568 L 199.288504 632.161287 " transform="matrix(0.056,0,0,0.056,0,-30.932282)"/>
<path style="fill-rule:nonzero;fill:rgb(60%,60%,60%);fill-opacity:1;stroke-width:9.11013;stroke-linecap:butt;stroke-linejoin:bevel;stroke:rgb(100%,100%,100%);stroke-opacity:1;stroke-miterlimit:4;" d="M 153.878348 642.554702 C 153.878348 648.344323 149.204799 653.017872 143.484933 653.017872 C 137.695312 653.017872 133.021763 648.344323 133.021763 642.554702 C 133.021763 636.834836 137.695312 632.161287 143.484933 632.161287 C 149.204799 632.161287 153.878348 636.834836 153.878348 642.554702 Z M 153.878348 642.554702 " transform="matrix(0.056,0,0,0.056,0,-30.932282)"/>
<path style="fill-rule:nonzero;fill:rgb(60%,60%,60%);fill-opacity:1;stroke-width:9.11013;stroke-linecap:butt;stroke-linejoin:bevel;stroke:rgb(100%,100%,100%);stroke-opacity:1;stroke-miterlimit:4;" d="M 199.84654 684.965416 C 199.84654 690.685282 195.172991 695.428586 189.453125 695.428586 C 183.663504 695.428586 178.989955 690.685282 178.989955 684.965416 C 178.989955 679.175796 183.663504 674.502247 189.453125 674.502247 C 195.172991 674.502247 199.84654 679.175796 199.84654 684.965416 Z M 199.84654 684.965416 " transform="matrix(0.056,0,0,0.056,0,-30.932282)"/>
</g>
</svg>
