<?xml version="1.0" encoding="UTF-8"?>
<svg xmlns="http://www.w3.org/2000/svg" xmlns:xlink="http://www.w3.org/1999/xlink" width="28" height="28" viewBox="0 0 28 28" version="1.1">
<g id="surface1">
<path style=" stroke:none;fill-rule:evenodd;fill:rgb(81.960784%,16.470588%,4.313725%);fill-opacity:1;" d="M 3.53125 8.617188 L 6.511719 11.53125 L 6.417969 7.441406 L 3.527344 7.429688 Z M 3.53125 8.617188 "/>
<path style="fill-rule:evenodd;fill:rgb(94.901961%,94.901961%,94.901961%);fill-opacity:1;stroke-width:5.03546;stroke-linecap:butt;stroke-linejoin:miter;stroke:rgb(68.627451%,68.627451%,68.627451%);stroke-opacity:1;stroke-miterlimit:4;" d="M 97.02846 1029.831488 L 433.942522 1028.645662 L 435.128348 664.806376 L 347.02846 575.590416 L 97.02846 575.590416 Z M 97.02846 1029.831488 " transform="matrix(0.056,0,0,0.056,0,-30.932282)"/>
<path style="fill-rule:evenodd;fill:rgb(68.627451%,68.627451%,68.627451%);fill-opacity:1;stroke-width:5.03546;stroke-linecap:butt;stroke-linejoin:miter;stroke:rgb(68.627451%,68.627451%,68.627451%);stroke-opacity:1;stroke-miterlimit:4;" d="M 431.501116 662.923006 L 349.330357 662.36497 L 350.097656 578.520104 Z M 431.501116 662.923006 " transform="matrix(0.056,0,0,0.056,0,-30.932282)"/>
<path style=" stroke:none;fill-rule:nonzero;fill:rgb(94.117647%,22.352941%,8.627451%);fill-opacity:1;" d="M 3.535156 3.910156 L 16.132812 3.910156 L 16.132812 8.632812 L 3.535156 8.632812 Z M 3.535156 3.910156 "/>
<path style="fill:none;stroke-width:9;stroke-linecap:butt;stroke-linejoin:miter;stroke:rgb(100%,100%,100%);stroke-opacity:1;stroke-miterlimit:4;" d="M 380.199313 670.720784 L 346.228889 670.302257 L 346.647416 618.614199 L 381.106121 618.753708 " transform="matrix(0.056,0,0,0.056,-9.474755,-29.884583)"/>
<path style="fill:none;stroke-width:9;stroke-linecap:butt;stroke-linejoin:miter;stroke:rgb(100%,100%,100%);stroke-opacity:1;stroke-miterlimit:4;" d="M 348.949313 642.400472 L 378.106679 642.53998 " transform="matrix(0.056,0,0,0.056,-9.474755,-29.884583)"/>
<path style=" stroke:none;fill-rule:nonzero;fill:rgb(94.117647%,22.352941%,8.627451%);fill-opacity:1;" d="M 15.367188 26.4375 C 14.617188 26.3125 13.539062 25.886719 12.871094 25.453125 C 11.40625 24.496094 10.449219 23.4375 9.859375 22.113281 C 9.660156 21.671875 9.554688 21.328125 9.246094 20.167969 C 9.167969 19.878906 9.074219 19.558594 9.035156 19.460938 C 8.96875 19.292969 8.964844 19.234375 8.996094 18.671875 C 9.023438 18.136719 9.113281 17.414062 9.160156 17.339844 C 9.171875 17.324219 9.191406 17.320312 9.210938 17.332031 C 9.269531 17.367188 9.324219 17.203125 9.378906 16.828125 C 9.410156 16.621094 9.457031 16.40625 9.484375 16.347656 C 9.511719 16.292969 9.558594 16.164062 9.585938 16.066406 C 9.652344 15.839844 9.746094 15.667969 10.03125 15.230469 C 10.15625 15.035156 10.285156 14.828125 10.320312 14.761719 C 10.359375 14.6875 10.402344 14.648438 10.445312 14.65625 C 10.480469 14.664062 10.546875 14.617188 10.613281 14.527344 C 10.902344 14.148438 12.265625 13.019531 12.390625 13.058594 C 12.425781 13.070312 12.570312 13.023438 12.710938 12.953125 C 12.964844 12.828125 13.078125 12.800781 13.078125 12.859375 C 13.078125 12.875 13.042969 12.914062 12.996094 12.945312 C 12.917969 12.996094 12.917969 13 13.042969 12.96875 C 13.113281 12.953125 13.230469 12.929688 13.304688 12.917969 C 13.398438 12.902344 13.433594 12.882812 13.421875 12.851562 C 13.410156 12.824219 13.4375 12.792969 13.488281 12.78125 C 13.613281 12.75 13.808594 12.753906 13.808594 12.789062 C 13.808594 12.832031 13.695312 12.875 13.609375 12.867188 C 13.546875 12.863281 13.542969 12.867188 13.589844 12.898438 C 13.636719 12.925781 13.636719 12.933594 13.59375 12.933594 C 13.5625 12.933594 13.550781 12.941406 13.5625 12.953125 C 13.574219 12.964844 13.648438 12.941406 13.730469 12.902344 C 13.8125 12.863281 13.960938 12.8125 14.0625 12.789062 C 14.1875 12.765625 14.246094 12.734375 14.246094 12.699219 C 14.246094 12.652344 14.304688 12.648438 14.695312 12.667969 C 14.941406 12.679688 15.3125 12.71875 15.519531 12.75 C 15.894531 12.808594 15.894531 12.808594 16.039062 12.730469 C 16.207031 12.636719 16.476562 12.625 16.546875 12.707031 C 16.574219 12.738281 16.644531 12.789062 16.707031 12.820312 C 16.808594 12.871094 16.816406 12.871094 16.773438 12.820312 C 16.691406 12.726562 16.773438 12.726562 17.082031 12.828125 C 18.089844 13.152344 18.910156 13.726562 19.519531 14.539062 C 19.664062 14.730469 19.671875 14.816406 19.535156 14.699219 L 19.457031 14.632812 L 19.515625 14.746094 C 19.550781 14.804688 19.574219 14.875 19.574219 14.898438 C 19.574219 14.921875 19.671875 15.09375 19.789062 15.277344 C 20.058594 15.695312 20.132812 15.835938 20.113281 15.886719 C 20.105469 15.90625 19.988281 15.761719 19.851562 15.558594 C 19.714844 15.359375 19.511719 15.085938 19.402344 14.957031 C 19.238281 14.761719 19.195312 14.726562 19.160156 14.769531 C 19.136719 14.796875 19.082031 14.824219 19.039062 14.832031 L 18.957031 14.84375 L 19.039062 14.996094 C 19.082031 15.078125 19.125 15.128906 19.132812 15.109375 C 19.167969 15 19.347656 15.144531 19.429688 15.351562 C 19.457031 15.417969 19.527344 15.558594 19.585938 15.660156 C 19.644531 15.761719 19.6875 15.851562 19.675781 15.859375 C 19.667969 15.871094 19.613281 15.84375 19.558594 15.800781 L 19.453125 15.722656 L 19.523438 15.835938 C 19.5625 15.902344 19.628906 15.980469 19.667969 16.011719 C 19.71875 16.050781 19.742188 16.113281 19.746094 16.210938 C 19.75 16.390625 19.855469 16.601562 19.914062 16.546875 C 20.003906 16.460938 20.023438 16.511719 20 16.796875 C 19.984375 17.007812 19.992188 17.148438 20.035156 17.292969 C 20.09375 17.515625 20.082031 17.570312 19.992188 17.46875 C 19.9375 17.402344 19.933594 17.402344 19.960938 17.46875 C 20.015625 17.617188 20.054688 17.839844 20.042969 17.925781 C 20.023438 18.085938 19.960938 18.019531 19.9375 17.8125 L 19.917969 17.609375 L 19.910156 17.824219 C 19.90625 17.945312 19.878906 18.171875 19.84375 18.332031 C 19.8125 18.496094 19.796875 18.691406 19.808594 18.777344 C 19.832031 18.933594 19.816406 18.941406 19.679688 18.828125 C 19.621094 18.78125 19.613281 18.792969 19.574219 18.929688 C 19.542969 19.042969 19.542969 19.109375 19.574219 19.203125 C 19.597656 19.273438 19.613281 19.367188 19.605469 19.414062 C 19.589844 19.519531 19.503906 19.550781 19.503906 19.453125 C 19.503906 19.328125 19.453125 19.371094 19.300781 19.632812 C 18.894531 20.335938 18.246094 20.882812 17.515625 21.136719 C 17.085938 21.289062 16.796875 21.347656 16.308594 21.371094 L 15.871094 21.398438 L 16.085938 21.460938 C 16.261719 21.511719 16.363281 21.519531 16.617188 21.5 C 16.945312 21.476562 17.335938 21.40625 17.511719 21.34375 C 17.582031 21.316406 17.628906 21.316406 17.652344 21.339844 C 17.710938 21.394531 17.203125 21.609375 16.898438 21.65625 C 16.386719 21.742188 15.699219 21.652344 15.09375 21.421875 C 14.679688 21.265625 14.070312 20.859375 14.164062 20.804688 C 14.183594 20.792969 14.296875 20.847656 14.421875 20.921875 C 14.582031 21.019531 14.648438 21.042969 14.648438 21.007812 C 14.648438 20.9375 14.671875 20.941406 14.796875 21.027344 C 14.910156 21.105469 15.261719 21.25 15.515625 21.324219 C 15.789062 21.402344 15.683594 21.308594 15.3125 21.140625 C 14.148438 20.621094 13.660156 20.097656 13.421875 19.101562 C 13.332031 18.734375 13.425781 17.933594 13.589844 17.683594 C 13.628906 17.621094 13.664062 17.539062 13.664062 17.507812 C 13.664062 17.371094 13.902344 17.003906 14.152344 16.765625 C 14.585938 16.347656 15.039062 16.171875 15.628906 16.199219 C 15.914062 16.210938 16.035156 16.234375 16.273438 16.328125 C 16.542969 16.429688 16.878906 16.644531 16.773438 16.644531 C 16.75 16.648438 16.644531 16.613281 16.539062 16.570312 C 16.378906 16.503906 16.273438 16.492188 15.90625 16.492188 C 15.394531 16.488281 15.140625 16.558594 14.777344 16.804688 C 14.257812 17.15625 13.96875 17.5625 13.867188 18.078125 C 13.796875 18.425781 13.796875 18.523438 13.847656 18.867188 C 13.878906 19.066406 13.902344 19.125 13.941406 19.109375 C 13.972656 19.097656 13.992188 19.117188 13.992188 19.160156 C 13.992188 19.28125 14.269531 19.78125 14.464844 20.003906 C 14.929688 20.542969 15.683594 20.886719 16.398438 20.886719 C 16.773438 20.886719 17.070312 20.816406 17.347656 20.671875 C 17.460938 20.609375 17.597656 20.539062 17.660156 20.507812 C 17.871094 20.40625 18.003906 20.289062 18.15625 20.0625 C 18.242188 19.9375 18.335938 19.835938 18.363281 19.835938 C 18.40625 19.835938 18.40625 19.851562 18.355469 19.929688 C 18.191406 20.1875 18.574219 19.71875 18.773438 19.417969 L 18.996094 19.082031 L 18.96875 18.859375 C 18.949219 18.648438 18.949219 18.632812 19.058594 18.527344 C 19.160156 18.425781 19.167969 18.394531 19.179688 18.117188 C 19.191406 17.871094 19.183594 17.820312 19.136719 17.820312 C 19.097656 17.820312 19.078125 17.757812 19.058594 17.539062 C 19.035156 17.253906 18.792969 16.296875 18.738281 16.261719 C 18.71875 16.253906 18.671875 16.160156 18.632812 16.058594 C 18.496094 15.710938 18.253906 15.378906 17.878906 15.015625 C 17.339844 14.492188 16.660156 14.089844 16.015625 13.910156 C 15.46875 13.757812 14.542969 13.8125 13.882812 14.039062 C 13.558594 14.148438 13.242188 14.292969 13.1875 14.355469 C 13.164062 14.382812 13.128906 14.394531 13.109375 14.382812 C 13.089844 14.371094 13.09375 14.339844 13.121094 14.308594 C 13.242188 14.167969 12.839844 14.425781 12.578125 14.65625 C 12.421875 14.792969 12.289062 14.910156 12.28125 14.917969 C 12.273438 14.921875 12.304688 14.917969 12.347656 14.90625 C 12.421875 14.886719 12.425781 14.890625 12.386719 14.964844 C 12.359375 15.011719 12.226562 15.09375 12.0625 15.164062 C 11.785156 15.285156 11.609375 15.414062 11.46875 15.605469 C 11.410156 15.679688 11.40625 15.695312 11.453125 15.679688 C 11.484375 15.667969 11.507812 15.675781 11.507812 15.695312 C 11.507812 15.796875 11.414062 15.90625 11.273438 15.972656 C 10.964844 16.117188 10.417969 16.890625 10.125 17.601562 C 9.992188 17.917969 9.996094 17.910156 10.066406 17.910156 C 10.140625 17.910156 10.136719 17.988281 10.035156 18.425781 C 9.882812 19.0625 9.882812 19.042969 10.046875 19.941406 C 10.246094 21.03125 10.363281 21.398438 10.582031 21.621094 C 10.632812 21.675781 10.683594 21.789062 10.707031 21.902344 C 10.734375 22.039062 10.777344 22.125 10.863281 22.210938 C 10.9375 22.289062 10.964844 22.335938 10.933594 22.347656 C 10.875 22.367188 11.058594 22.625 11.222656 22.757812 C 11.304688 22.824219 11.367188 22.847656 11.433594 22.835938 C 11.578125 22.808594 11.726562 22.890625 11.957031 23.121094 C 12.195312 23.359375 12.21875 23.421875 12.058594 23.402344 C 11.957031 23.386719 11.957031 23.390625 12.007812 23.460938 C 12.035156 23.503906 12.140625 23.605469 12.242188 23.6875 C 12.382812 23.800781 12.417969 23.851562 12.402344 23.90625 C 12.375 23.980469 12.449219 24.054688 12.613281 24.113281 C 12.714844 24.152344 12.75 24.230469 12.671875 24.257812 C 12.648438 24.261719 12.792969 24.40625 12.992188 24.570312 C 13.214844 24.757812 13.367188 24.863281 13.386719 24.839844 C 13.445312 24.789062 13.515625 24.804688 13.519531 24.871094 C 13.519531 24.941406 13.582031 25.015625 13.816406 25.21875 C 13.960938 25.34375 14 25.359375 14.089844 25.335938 C 14.171875 25.316406 14.222656 25.328125 14.335938 25.40625 C 14.570312 25.554688 14.710938 25.613281 14.828125 25.613281 C 14.945312 25.613281 14.964844 25.648438 14.902344 25.757812 C 14.871094 25.816406 14.875 25.824219 14.949219 25.824219 C 15 25.824219 15.132812 25.855469 15.25 25.894531 C 15.515625 25.984375 15.625 25.988281 15.558594 25.910156 C 15.460938 25.796875 15.566406 25.828125 15.917969 26.015625 C 16.40625 26.28125 16.65625 26.3125 17.632812 26.226562 C 17.777344 26.214844 17.824219 26.222656 17.824219 26.257812 C 17.824219 26.285156 17.699219 26.332031 17.46875 26.386719 C 17.164062 26.457031 17.003906 26.46875 16.382812 26.476562 C 15.894531 26.484375 15.558594 26.46875 15.367188 26.4375 Z M 14.867188 21.1875 C 14.867188 21.179688 14.820312 21.148438 14.765625 21.117188 L 14.667969 21.054688 L 14.753906 21.128906 C 14.835938 21.199219 14.867188 21.214844 14.867188 21.1875 Z M 19.890625 17.515625 C 19.882812 17.488281 19.871094 17.496094 19.871094 17.539062 C 19.871094 17.574219 19.878906 17.59375 19.890625 17.582031 C 19.902344 17.570312 19.902344 17.542969 19.890625 17.515625 Z M 11.585938 13.820312 C 11.632812 13.761719 11.628906 13.761719 11.574219 13.804688 C 11.539062 13.832031 11.507812 13.859375 11.507812 13.867188 C 11.507812 13.894531 11.539062 13.875 11.585938 13.820312 Z M 12 13.496094 C 12.039062 13.457031 12.058594 13.425781 12.050781 13.425781 C 12.039062 13.425781 12 13.457031 11.964844 13.496094 C 11.929688 13.535156 11.90625 13.5625 11.917969 13.5625 C 11.929688 13.5625 11.964844 13.535156 12 13.496094 Z M 12.460938 13.25 C 12.582031 13.210938 12.648438 13.203125 12.675781 13.226562 C 12.699219 13.25 12.796875 13.238281 12.96875 13.179688 C 13.109375 13.136719 13.21875 13.09375 13.214844 13.085938 C 13.207031 13.078125 13.089844 13.109375 12.953125 13.152344 C 12.769531 13.210938 12.703125 13.21875 12.683594 13.1875 C 12.648438 13.132812 12.316406 13.238281 12.171875 13.351562 L 12.074219 13.425781 L 12.179688 13.367188 C 12.238281 13.332031 12.363281 13.28125 12.460938 13.25 Z M 13.515625 13.160156 C 13.621094 13.128906 13.699219 13.097656 13.691406 13.089844 C 13.675781 13.074219 13.296875 13.179688 13.296875 13.199219 C 13.296875 13.21875 13.300781 13.21875 13.515625 13.160156 Z M 14.117188 12.96875 L 14.265625 12.941406 L 14.136719 12.941406 C 14.066406 12.9375 13.96875 12.960938 13.917969 12.988281 C 13.859375 13.023438 13.851562 13.035156 13.898438 13.019531 C 13.941406 13.003906 14.039062 12.980469 14.117188 12.96875 Z M 14.410156 12.902344 C 14.417969 12.886719 14.398438 12.878906 14.355469 12.890625 C 14.269531 12.910156 14.257812 12.933594 14.335938 12.933594 C 14.363281 12.933594 14.398438 12.921875 14.410156 12.902344 Z M 15.585938 12.914062 C 15.574219 12.902344 15.542969 12.898438 15.515625 12.910156 C 15.488281 12.921875 15.496094 12.929688 15.539062 12.933594 C 15.578125 12.933594 15.601562 12.925781 15.585938 12.914062 Z M 15.367188 12.875 C 15.332031 12.867188 15.277344 12.867188 15.242188 12.875 C 15.207031 12.882812 15.234375 12.890625 15.304688 12.890625 C 15.375 12.890625 15.402344 12.882812 15.367188 12.875 Z M 15.003906 12.839844 C 14.929688 12.832031 14.800781 12.832031 14.710938 12.839844 C 14.628906 12.84375 14.6875 12.851562 14.847656 12.851562 C 15.007812 12.851562 15.078125 12.847656 15.003906 12.839844 Z M 14.527344 12.808594 C 14.515625 12.796875 14.484375 12.796875 14.457031 12.804688 C 14.429688 12.816406 14.4375 12.824219 14.480469 12.828125 C 14.519531 12.828125 14.539062 12.820312 14.527344 12.808594 Z M 14.28125 21.226562 C 13.910156 20.972656 13.773438 20.839844 13.773438 20.738281 C 13.773438 20.683594 13.785156 20.640625 13.800781 20.640625 C 13.851562 20.640625 14.472656 21.261719 14.460938 21.300781 C 14.453125 21.324219 14.378906 21.292969 14.28125 21.226562 Z M 14.089844 20.578125 C 13.898438 20.390625 13.835938 20.289062 13.914062 20.289062 C 13.960938 20.289062 14.320312 20.683594 14.320312 20.738281 C 14.320312 20.761719 14.316406 20.78125 14.308594 20.78125 C 14.304688 20.78125 14.203125 20.691406 14.089844 20.578125 Z M 16.226562 19.8125 C 16.125 19.773438 16.1875 19.699219 16.355469 19.664062 C 16.449219 19.644531 16.601562 19.597656 16.691406 19.558594 C 16.78125 19.519531 16.859375 19.496094 16.871094 19.503906 C 16.878906 19.507812 16.835938 19.585938 16.777344 19.675781 C 16.675781 19.832031 16.671875 19.835938 16.472656 19.832031 C 16.363281 19.832031 16.25 19.820312 16.226562 19.8125 Z M 17.320312 19.027344 C 17.222656 18.992188 17.21875 18.925781 17.300781 18.703125 C 17.371094 18.515625 17.445312 18.476562 17.40625 18.652344 C 17.390625 18.714844 17.371094 18.804688 17.359375 18.851562 L 17.34375 18.941406 L 17.417969 18.863281 C 17.460938 18.8125 17.5 18.703125 17.515625 18.589844 C 17.527344 18.484375 17.554688 18.410156 17.574219 18.417969 C 17.617188 18.445312 17.613281 18.722656 17.5625 18.90625 C 17.519531 19.070312 17.484375 19.089844 17.320312 19.027344 Z M 8.683594 18.589844 C 8.671875 18.558594 8.660156 18.4375 8.660156 18.324219 C 8.660156 18.171875 8.675781 18.117188 8.707031 18.128906 C 8.761719 18.144531 8.792969 18.644531 8.742188 18.644531 C 8.722656 18.644531 8.695312 18.617188 8.683594 18.589844 Z M 17.464844 17.769531 C 17.410156 17.695312 17.390625 17.636719 17.40625 17.574219 C 17.441406 17.449219 17.527344 17.46875 17.589844 17.613281 C 17.691406 17.84375 17.601562 17.949219 17.464844 17.769531 Z M 8.675781 17.210938 C 8.675781 17.015625 8.675781 17.007812 8.769531 17.011719 C 8.84375 17.015625 8.863281 17.035156 8.875 17.121094 C 8.882812 17.222656 8.769531 17.417969 8.703125 17.417969 C 8.691406 17.417969 8.679688 17.324219 8.675781 17.210938 Z M 18.136719 12.90625 C 18.144531 12.59375 18.199219 12.488281 18.242188 12.707031 C 18.269531 12.859375 18.234375 13.128906 18.175781 13.175781 C 18.144531 13.199219 18.132812 13.132812 18.136719 12.90625 Z M 13.34375 12.71875 C 13.355469 12.675781 13.859375 12.480469 13.953125 12.480469 C 14.0625 12.480469 13.867188 12.605469 13.640625 12.683594 C 13.390625 12.769531 13.320312 12.777344 13.34375 12.71875 Z M 13.34375 12.71875 "/>
<path style="fill:none;stroke-width:9;stroke-linecap:butt;stroke-linejoin:miter;stroke:rgb(100%,100%,100%);stroke-opacity:1;stroke-miterlimit:4;" d="M 119.419643 689.011175 L 119.907924 636.90459 C 119.907924 636.90459 159.807478 631.11497 160.295759 663.411287 C 160.853795 695.777358 119.419643 689.011175 119.419643 689.011175 Z M 119.419643 689.011175 " transform="matrix(0.056,0,0,0.056,0,-30.932282)"/>
<path style="fill:none;stroke-width:9;stroke-linecap:butt;stroke-linejoin:miter;stroke:rgb(100%,100%,100%);stroke-opacity:1;stroke-miterlimit:4;" d="M 228.166853 635.439747 L 228.166853 688.383385 L 248.395647 688.383385 C 248.395647 688.383385 264.160156 689.220439 263.671875 674.432492 C 263.113839 659.644546 249.651228 659.923564 249.651228 659.923564 L 231.515067 659.923564 L 249.441964 659.7143 C 249.441964 659.7143 260.602679 659.435282 260.46317 647.088742 C 260.323661 634.672448 244.977679 635.439747 244.977679 635.439747 Z M 228.166853 635.439747 " transform="matrix(0.056,0,0,0.056,0,-30.932282)"/>
</g>
</svg>
