<?xml version="1.0" encoding="UTF-8"?>
<svg xmlns="http://www.w3.org/2000/svg" xmlns:xlink="http://www.w3.org/1999/xlink" width="28" height="28" viewBox="0 0 28 28" version="1.1">
<g id="surface1">
<path style=" stroke:none;fill-rule:evenodd;fill:rgb(50.196078%,50.196078%,50.196078%);fill-opacity:1;" d="M 3.53125 8.617188 L 6.511719 11.53125 L 6.417969 7.441406 L 3.527344 7.429688 Z M 3.53125 8.617188 "/>
<path style="fill-rule:evenodd;fill:rgb(94.901961%,94.901961%,94.901961%);fill-opacity:1;stroke-width:5.03546;stroke-linecap:butt;stroke-linejoin:miter;stroke:rgb(68.627451%,68.627451%,68.627451%);stroke-opacity:1;stroke-miterlimit:4;" d="M 97.02846 1029.831488 L 433.942522 1028.645662 L 435.128348 664.806376 L 347.02846 575.590416 L 97.02846 575.590416 Z M 97.02846 1029.831488 " transform="matrix(0.056,0,0,0.056,0,-30.932282)"/>
<path style="fill-rule:evenodd;fill:rgb(68.627451%,68.627451%,68.627451%);fill-opacity:1;stroke-width:5.03546;stroke-linecap:butt;stroke-linejoin:miter;stroke:rgb(68.627451%,68.627451%,68.627451%);stroke-opacity:1;stroke-miterlimit:4;" d="M 431.501116 662.923006 L 349.330357 662.36497 L 350.097656 578.520104 Z M 431.501116 662.923006 " transform="matrix(0.056,0,0,0.056,0,-30.932282)"/>
<path style=" stroke:none;fill-rule:nonzero;fill:rgb(60%,60%,60%);fill-opacity:1;" d="M 3.535156 3.910156 L 16.132812 3.910156 L 16.132812 8.632812 L 3.535156 8.632812 Z M 3.535156 3.910156 "/>
<path style=" stroke:none;fill-rule:nonzero;fill:rgb(80%,80%,80%);fill-opacity:1;" d="M 9.257812 12.429688 L 19.878906 12.429688 C 20.8125 12.429688 21.570312 13.355469 21.570312 14.5 L 21.570312 24.363281 C 21.570312 25.503906 20.8125 26.429688 19.878906 26.429688 L 9.257812 26.429688 C 8.328125 26.429688 7.570312 25.503906 7.570312 24.363281 L 7.570312 14.5 C 7.570312 13.355469 8.328125 12.429688 9.257812 12.429688 Z M 9.257812 12.429688 "/>
<path style=" stroke:none;fill-rule:nonzero;fill:rgb(70.196078%,70.196078%,70.196078%);fill-opacity:1;" d="M 10.398438 14.027344 L 18.660156 14.027344 C 19.382812 14.027344 19.972656 14.746094 19.972656 15.636719 L 19.972656 23.308594 C 19.972656 24.195312 19.382812 24.917969 18.660156 24.917969 L 10.398438 24.917969 C 9.671875 24.917969 9.085938 24.195312 9.085938 23.308594 L 9.085938 15.636719 C 9.085938 14.746094 9.671875 14.027344 10.398438 14.027344 Z M 10.398438 14.027344 "/>
<path style=" stroke:none;fill-rule:nonzero;fill:rgb(22.352941%,25.098039%,31.372549%);fill-opacity:1;" d="M 15.246094 21.992188 L 13.097656 16.769531 L 12.507812 16.769531 L 10.347656 21.992188 L 11.085938 21.992188 L 11.753906 20.273438 L 13.816406 20.273438 L 14.5 21.992188 Z M 13.558594 19.691406 L 12.003906 19.691406 L 12.804688 17.550781 Z M 13.558594 19.691406 "/>
<path style=" stroke:none;fill-rule:nonzero;fill:rgb(22.352941%,25.098039%,31.372549%);fill-opacity:1;" d="M 16.808594 22.09375 C 17.269531 22.09375 17.6875 21.925781 18.050781 21.609375 L 18.160156 22.09375 L 18.792969 21.957031 C 18.691406 21.597656 18.640625 21.28125 18.640625 21.007812 L 18.640625 19.785156 C 18.640625 18.738281 18.136719 18.214844 17.109375 18.214844 C 16.671875 18.214844 16.207031 18.285156 15.71875 18.429688 L 15.789062 19.039062 C 16.257812 18.859375 16.6875 18.773438 17.074219 18.773438 C 17.601562 18.773438 17.894531 19.046875 17.964844 19.585938 C 16.328125 19.605469 15.507812 20.074219 15.507812 20.984375 C 15.507812 21.675781 16.089844 22.09375 16.808594 22.09375 Z M 17.964844 20.828125 C 17.964844 21.222656 17.285156 21.496094 16.839844 21.496094 C 16.414062 21.496094 16.199219 21.300781 16.199219 20.921875 C 16.199219 20.445312 16.796875 20.195312 17.964844 20.175781 Z M 17.964844 20.828125 "/>
<path style="fill:none;stroke-width:9;stroke-linecap:butt;stroke-linejoin:miter;stroke:rgb(100%,100%,100%);stroke-opacity:1;stroke-miterlimit:4;" d="M 233.412007 692.474908 L 233.760779 640.78685 L 268.219484 640.926359 " transform="matrix(0.056,0,0,0.056,-0.0906036,-31.247345)"/>
<path style="fill:none;stroke-width:9;stroke-linecap:butt;stroke-linejoin:miter;stroke:rgb(100%,100%,100%);stroke-opacity:1;stroke-miterlimit:4;" d="M 236.132431 664.573122 L 265.289797 664.712631 " transform="matrix(0.056,0,0,0.056,-0.0906036,-31.247345)"/>
<path style="fill:none;stroke-width:9.063828;stroke-linecap:butt;stroke-linejoin:miter;stroke:rgb(100%,100%,100%);stroke-opacity:1;stroke-miterlimit:4;" d="M 114.048549 691.661845 L 114.048549 635.160729 C 114.048549 635.160729 144.810268 629.231599 144.740513 649.530148 C 144.601004 669.758943 114.606585 664.24834 114.606585 664.24834 " transform="matrix(0.056,0,0,0.056,0,-30.932282)"/>
<path style="fill:none;stroke-width:9;stroke-linecap:butt;stroke-linejoin:miter;stroke:rgb(100%,100%,100%);stroke-opacity:1;stroke-miterlimit:4;" d="M 205.984933 639.485506 C 205.984933 639.485506 198.381696 632.649568 184.500558 633.76564 C 170.61942 634.811956 162.737165 650.64622 163.43471 662.643988 C 164.202009 674.641756 174.734933 688.941421 188.337054 687.755595 C 201.939174 686.569769 205.984933 681.756711 205.984933 681.756711 " transform="matrix(0.056,0,0,0.056,0,-30.932282)"/>
</g>
</svg>
