<?xml version="1.0" encoding="UTF-8"?>
<svg xmlns="http://www.w3.org/2000/svg" xmlns:xlink="http://www.w3.org/1999/xlink" width="28" height="28" viewBox="0 0 28 28" version="1.1">
<g id="surface1">
<path style=" stroke:none;fill-rule:evenodd;fill:rgb(66.666667%,26.666667%,0%);fill-opacity:1;" d="M 3.53125 8.617188 L 6.511719 11.53125 L 6.417969 7.441406 L 3.527344 7.429688 Z M 3.53125 8.617188 "/>
<path style="fill-rule:evenodd;fill:rgb(94.901961%,94.901961%,94.901961%);fill-opacity:1;stroke-width:5.03546;stroke-linecap:butt;stroke-linejoin:miter;stroke:rgb(68.627451%,68.627451%,68.627451%);stroke-opacity:1;stroke-miterlimit:4;" d="M 97.02846 1029.831488 L 433.942522 1028.645662 L 435.128348 664.806376 L 347.02846 575.590416 L 97.02846 575.590416 Z M 97.02846 1029.831488 " transform="matrix(0.056,0,0,0.056,0,-30.932282)"/>
<path style="fill-rule:evenodd;fill:rgb(68.627451%,68.627451%,68.627451%);fill-opacity:1;stroke-width:5.03546;stroke-linecap:butt;stroke-linejoin:miter;stroke:rgb(68.627451%,68.627451%,68.627451%);stroke-opacity:1;stroke-miterlimit:4;" d="M 431.501116 662.923006 L 349.330357 662.36497 L 350.097656 578.520104 Z M 431.501116 662.923006 " transform="matrix(0.056,0,0,0.056,0,-30.932282)"/>
<path style=" stroke:none;fill-rule:nonzero;fill:rgb(100%,40%,0%);fill-opacity:1;" d="M 3.535156 3.910156 L 19.132812 3.910156 L 19.132812 8.632812 L 3.535156 8.632812 Z M 3.535156 3.910156 "/>
<path style="fill:none;stroke-width:22.55397;stroke-linecap:butt;stroke-linejoin:miter;stroke:rgb(100%,40%,0%);stroke-opacity:1;stroke-miterlimit:4;" d="M 225.795201 1023.344323 L 285.853795 799.71151 " transform="matrix(0.056,0,0,0.056,0,-30.932282)"/>
<path style="fill:none;stroke-width:22.55397;stroke-linecap:butt;stroke-linejoin:miter;stroke:rgb(100%,40%,0%);stroke-opacity:1;stroke-miterlimit:4;" d="M 208.426339 970.051912 L 150.809152 911.806934 L 209.054129 854.189747 " transform="matrix(0.056,0,0,0.056,0,-30.932282)"/>
<path style="fill:none;stroke-width:22.55397;stroke-linecap:butt;stroke-linejoin:miter;stroke:rgb(100%,40%,0%);stroke-opacity:1;stroke-miterlimit:4;" d="M 311.314174 968.517314 L 368.931362 910.272336 L 310.686384 852.655148 " transform="matrix(0.056,0,0,0.056,0,-30.932282)"/>
<path style="fill:none;stroke-width:9;stroke-linecap:butt;stroke-linejoin:miter;stroke:rgb(100%,100%,100%);stroke-opacity:1;stroke-miterlimit:4;" d="M 42.461227 990.927018 L 81.802745 1049.171996 " transform="matrix(0.056,0,0,0.056,1.919046,-50.988007)"/>
<path style="fill:none;stroke-width:9;stroke-linecap:butt;stroke-linejoin:miter;stroke:rgb(100%,100%,100%);stroke-opacity:1;stroke-miterlimit:4;" d="M 80.198392 990.927018 L 40.856874 1049.171996 " transform="matrix(0.056,0,0,0.056,1.919046,-50.988007)"/>
<path style="fill:none;stroke-width:9;stroke-linecap:butt;stroke-linejoin:miter;stroke:rgb(100%,100%,100%);stroke-opacity:1;stroke-miterlimit:4;" d="M 311.213198 528.463226 L 311.492215 582.941463 " transform="matrix(0.056,0,0,0.056,-10.193564,-25.004097)"/>
<path style="fill:none;stroke-width:9;stroke-linecap:butt;stroke-linejoin:miter;stroke:rgb(100%,100%,100%);stroke-opacity:1;stroke-miterlimit:4;" d="M 346.299693 527.974945 L 346.578711 582.453181 " transform="matrix(0.056,0,0,0.056,-10.193564,-25.004097)"/>
<path style="fill:none;stroke-width:9;stroke-linecap:butt;stroke-linejoin:miter;stroke:rgb(100%,100%,100%);stroke-opacity:1;stroke-miterlimit:4;" d="M 310.864425 555.039677 L 347.485519 555.039677 " transform="matrix(0.056,0,0,0.056,-10.193564,-25.004097)"/>
<path style="fill:none;stroke-width:9;stroke-linecap:butt;stroke-linejoin:miter;stroke:rgb(100%,100%,100%);stroke-opacity:1;stroke-miterlimit:4;" d="M 122.824845 699.612832 L 122.824845 642.344417 " transform="matrix(0.056,0,0,0.056,4.317121,-31.330662)"/>
<path style="fill:none;stroke-width:8.670217;stroke-linecap:butt;stroke-linejoin:miter;stroke:rgb(100%,100%,100%);stroke-opacity:1;stroke-miterlimit:4;" d="M 96.248395 642.762944 L 149.401296 642.762944 " transform="matrix(0.056,0,0,0.056,4.317121,-31.330662)"/>
<path style="fill:none;stroke-width:9;stroke-linecap:butt;stroke-linejoin:miter;stroke:rgb(100%,100%,100%);stroke-opacity:1;stroke-miterlimit:4;" d="M 235.281808 690.33651 L 235.560826 635.788519 L 240.583147 635.579256 L 256.487165 676.873898 L 259.835379 676.873898 L 275.809152 635.579256 L 281.040737 635.509501 L 281.040737 690.545773 " transform="matrix(0.056,0,0,0.056,0,-30.932282)"/>
<path style="fill:none;stroke-width:9;stroke-linecap:butt;stroke-linejoin:miter;stroke:rgb(100%,100%,100%);stroke-opacity:1;stroke-miterlimit:4;" d="M 296.805246 630.48718 L 297.154018 685.035171 L 328.892299 685.314189 " transform="matrix(0.056,0,0,0.056,0,-30.932282)"/>
</g>
</svg>
