<?xml version="1.0" encoding="UTF-8"?>
<svg xmlns="http://www.w3.org/2000/svg" xmlns:xlink="http://www.w3.org/1999/xlink" width="28" height="28" viewBox="0 0 28 28" version="1.1">
<g id="surface1">
<path style=" stroke:none;fill-rule:evenodd;fill:rgb(20%,20%,20%);fill-opacity:1;" d="M 3.53125 8.617188 L 6.511719 11.53125 L 6.417969 7.441406 L 3.527344 7.429688 Z M 3.53125 8.617188 "/>
<path style="fill-rule:evenodd;fill:rgb(94.901961%,94.901961%,94.901961%);fill-opacity:1;stroke-width:5.03546;stroke-linecap:butt;stroke-linejoin:miter;stroke:rgb(68.627451%,68.627451%,68.627451%);stroke-opacity:1;stroke-miterlimit:4;" d="M 97.02846 1029.831488 L 433.942522 1028.645662 L 435.128348 664.806376 L 347.02846 575.590416 L 97.02846 575.590416 Z M 97.02846 1029.831488 " transform="matrix(0.056,0,0,0.056,0,-30.932282)"/>
<path style="fill-rule:evenodd;fill:rgb(68.627451%,68.627451%,68.627451%);fill-opacity:1;stroke-width:5.03546;stroke-linecap:butt;stroke-linejoin:miter;stroke:rgb(68.627451%,68.627451%,68.627451%);stroke-opacity:1;stroke-miterlimit:4;" d="M 431.501116 662.923006 L 349.330357 662.36497 L 350.097656 578.520104 Z M 431.501116 662.923006 " transform="matrix(0.056,0,0,0.056,0,-30.932282)"/>
<path style=" stroke:none;fill-rule:nonzero;fill:rgb(22.352941%,25.098039%,31.372549%);fill-opacity:1;" d="M 3.535156 3.910156 L 16.132812 3.910156 L 16.132812 8.632812 L 3.535156 8.632812 Z M 3.535156 3.910156 "/>
<path style=" stroke:none;fill-rule:nonzero;fill:rgb(36.470588%,41.568627%,48.235294%);fill-opacity:1;" d="M 17.183594 15.246094 L 17.746094 15.4375 L 17.746094 15.6875 L 17.265625 15.824219 L 17.265625 16.597656 L 18.304688 16.3125 L 17.714844 16.617188 L 17.726562 17.199219 L 17.277344 17.339844 L 17.277344 18.074219 L 18.242188 17.839844 L 17.746094 18.132812 L 17.746094 18.6875 L 17.253906 18.855469 L 17.285156 19.554688 L 18.332031 19.265625 L 17.746094 19.605469 L 17.734375 20.144531 L 17.269531 20.28125 L 17.285156 20.976562 L 18.300781 20.710938 L 17.65625 21.117188 L 17.640625 21.34375 L 19.261719 21.34375 L 19.242188 20.582031 L 19.707031 20.480469 L 19.695312 19.726562 L 18.597656 19.972656 L 19.234375 19.703125 L 19.242188 19.167969 L 19.726562 19.023438 L 19.726562 18.257812 L 18.878906 18.5 L 19.222656 18.277344 L 19.230469 17.714844 L 19.683594 17.582031 L 19.683594 16.808594 L 18.6875 17.054688 L 19.191406 16.792969 L 19.214844 16.164062 L 19.675781 16.09375 L 19.703125 15.332031 L 18.785156 15.539062 L 19.261719 15.171875 L 19.261719 14.933594 L 17.226562 14.992188 Z M 17.183594 15.246094 "/>
<path style=" stroke:none;fill-rule:nonzero;fill:rgb(40%,40%,40%);fill-opacity:1;" d="M 17.304688 23.007812 L 17.316406 24.59375 L 16.855469 24.59375 L 16.855469 25.167969 L 16.035156 25.183594 L 16.027344 24.679688 L 14.941406 24.691406 L 14.925781 26.460938 L 16.035156 26.460938 L 16.035156 26.003906 L 16.863281 25.996094 L 16.863281 26.566406 L 20.136719 26.558594 L 20.144531 26.003906 L 21.007812 26.003906 L 21.007812 26.488281 L 22.066406 26.488281 L 22.058594 24.65625 L 21.007812 24.664062 L 21.007812 25.203125 L 20.136719 25.203125 L 20.101562 24.574219 L 19.722656 24.585938 L 19.722656 22.988281 Z M 17.304688 23.007812 "/>
<path style=" stroke:none;fill-rule:nonzero;fill:rgb(22.352941%,25.098039%,31.372549%);fill-opacity:1;" d="M 9.972656 22.453125 L 9.945312 22.890625 L 10.929688 23.8125 L 16.09375 23.863281 L 16.765625 23.113281 L 20.292969 23.078125 L 20.292969 21.007812 L 16.839844 21.007812 L 15.46875 22.464844 Z M 9.972656 22.453125 "/>
<path style=" stroke:none;fill-rule:nonzero;fill:rgb(22.352941%,25.098039%,31.372549%);fill-opacity:1;" d="M 9.972656 13.988281 L 9.949219 13.554688 L 10.933594 12.632812 L 16.097656 12.582031 L 16.769531 13.328125 L 20.296875 13.367188 L 20.296875 15.4375 L 16.84375 15.4375 L 15.472656 13.976562 Z M 9.972656 13.988281 "/>
<path style=" stroke:none;fill-rule:nonzero;fill:rgb(100%,72.156863%,0%);fill-opacity:1;" d="M 8.066406 13.980469 L 15.472656 13.980469 L 15.472656 22.460938 L 8.066406 22.460938 Z M 8.066406 13.980469 "/>
<path style=" stroke:none;fill-rule:nonzero;fill:rgb(98.039216%,92.54902%,42.745098%);fill-opacity:1;" d="M 8.617188 14.734375 L 14.828125 14.734375 L 14.828125 18.003906 L 8.617188 18.003906 Z M 8.617188 14.734375 "/>
<path style=" stroke:none;fill-rule:nonzero;fill:rgb(98.039216%,92.54902%,42.745098%);fill-opacity:1;" d="M 8.667969 18.535156 L 14.878906 18.535156 L 14.878906 21.804688 L 8.667969 21.804688 Z M 8.667969 18.535156 "/>
<path style=" stroke:none;fill-rule:nonzero;fill:rgb(15.686275%,13.333333%,4.313725%);fill-opacity:1;" d="M 10.5625 16.015625 L 13.054688 16.015625 L 13.054688 16.816406 L 10.5625 16.816406 Z M 10.5625 16.015625 "/>
<path style=" stroke:none;fill-rule:nonzero;fill:rgb(15.686275%,13.333333%,4.313725%);fill-opacity:1;" d="M 10.550781 19.722656 L 13.042969 19.722656 L 13.042969 20.523438 L 10.550781 20.523438 Z M 10.550781 19.722656 "/>
<path style="fill:none;stroke-width:9;stroke-linecap:butt;stroke-linejoin:bevel;stroke:rgb(100%,100%,100%);stroke-opacity:1;stroke-miterlimit:4;" d="M 915.723227 696.300675 L 937.818165 637.981121 L 960.536472 696.300675 " transform="matrix(0.0563972,0,0,0.0563972,-42.659897,-31.425693)"/>
<path style="fill:none;stroke-width:9;stroke-linecap:butt;stroke-linejoin:miter;stroke:rgb(100%,100%,100%);stroke-opacity:1;stroke-miterlimit:4;" d="M 924.588908 676.768473 L 950.354792 676.768473 " transform="matrix(0.0563972,0,0,0.0563972,-42.659897,-31.425693)"/>
<path style="fill:none;stroke-width:9.063828;stroke-linecap:butt;stroke-linejoin:miter;stroke:rgb(100%,100%,100%);stroke-opacity:1;stroke-miterlimit:4;" d="M 384.418574 735.897488 L 384.418574 679.466126 C 384.418574 679.466126 415.250047 673.536997 415.180293 693.765791 C 415.040784 714.06434 385.046364 708.483983 385.046364 708.483983 " transform="matrix(0.056,0,0,0.056,-15.129003,-33.475884)"/>
<path style="fill:none;stroke-width:9;stroke-linecap:butt;stroke-linejoin:miter;stroke:rgb(100%,100%,100%);stroke-opacity:1;stroke-miterlimit:4;" d="M 392.440338 710.437108 L 418.388998 734.920925 " transform="matrix(0.056,0,0,0.056,-15.129003,-33.475884)"/>
<path style="fill:none;stroke-width:9.063828;stroke-linecap:butt;stroke-linejoin:miter;stroke:rgb(100%,100%,100%);stroke-opacity:1;stroke-miterlimit:4;" d="M 384.449083 735.917755 L 384.449083 679.486393 C 384.449083 679.486393 415.280556 673.557264 415.141047 693.786059 C 415.071293 714.014853 385.076873 708.504251 385.076873 708.504251 " transform="matrix(0.056,0,0,0.056,-9.189305,-33.410613)"/>
<path style="fill:none;stroke-width:9;stroke-linecap:butt;stroke-linejoin:miter;stroke:rgb(100%,100%,100%);stroke-opacity:1;stroke-miterlimit:4;" d="M 392.470847 710.457376 L 418.419507 734.941193 " transform="matrix(0.056,0,0,0.056,-9.189305,-33.410613)"/>
</g>
</svg>
