<?xml version="1.0" encoding="UTF-8"?>
<svg xmlns="http://www.w3.org/2000/svg" xmlns:xlink="http://www.w3.org/1999/xlink" width="28" height="28" viewBox="0 0 28 28" version="1.1">
<g id="surface1">
<path style=" stroke:none;fill-rule:evenodd;fill:rgb(15.686275%,9.019608%,4.313725%);fill-opacity:1;" d="M 3.53125 8.617188 L 6.511719 11.53125 L 6.417969 7.441406 L 3.527344 7.429688 Z M 3.53125 8.617188 "/>
<path style="fill-rule:evenodd;fill:rgb(94.901961%,94.901961%,94.901961%);fill-opacity:1;stroke-width:5.03546;stroke-linecap:butt;stroke-linejoin:miter;stroke:rgb(68.627451%,68.627451%,68.627451%);stroke-opacity:1;stroke-miterlimit:4;" d="M 97.02846 1029.831488 L 433.942522 1028.645662 L 435.128348 664.806376 L 347.02846 575.590416 L 97.02846 575.590416 Z M 97.02846 1029.831488 " transform="matrix(0.056,0,0,0.056,0,-30.932282)"/>
<path style="fill-rule:evenodd;fill:rgb(68.627451%,68.627451%,68.627451%);fill-opacity:1;stroke-width:5.03546;stroke-linecap:butt;stroke-linejoin:miter;stroke:rgb(68.627451%,68.627451%,68.627451%);stroke-opacity:1;stroke-miterlimit:4;" d="M 431.501116 662.923006 L 349.330357 662.36497 L 350.097656 578.520104 Z M 431.501116 662.923006 " transform="matrix(0.056,0,0,0.056,0,-30.932282)"/>
<path style=" stroke:none;fill-rule:nonzero;fill:rgb(31.372549%,17.647059%,8.627451%);fill-opacity:1;" d="M 3.535156 3.910156 L 16.132812 3.910156 L 16.132812 8.632812 L 3.535156 8.632812 Z M 3.535156 3.910156 "/>
<path style=" stroke:none;fill-rule:nonzero;fill:rgb(80%,80%,80%);fill-opacity:1;" d="M 9.882812 16.683594 C 9.882812 16.683594 10.070312 15.765625 15.242188 15.757812 C 20.414062 15.75 20.621094 16.765625 20.621094 16.765625 L 20.160156 18.308594 L 10.472656 18.347656 Z M 9.882812 16.683594 "/>
<path style=" stroke:none;fill-rule:nonzero;fill:rgb(80%,80%,80%);fill-opacity:1;" d="M 22.285156 23.695312 C 22.484375 25.089844 19.515625 26.277344 15.65625 26.351562 C 11.796875 26.421875 8.503906 25.347656 8.304688 23.953125 C 8.101562 22.558594 11.066406 21.367188 14.925781 21.292969 C 18.785156 21.222656 22.078125 22.292969 22.285156 23.6875 "/>
<path style=" stroke:none;fill-rule:nonzero;fill:rgb(50.196078%,50.196078%,50.196078%);fill-opacity:1;" d="M 19.265625 23.65625 C 19.375 24.445312 17.699219 25.117188 15.519531 25.15625 C 13.34375 25.195312 11.484375 24.589844 11.371094 23.804688 C 11.257812 23.015625 12.929688 22.34375 15.109375 22.300781 C 17.289062 22.257812 19.148438 22.863281 19.265625 23.652344 "/>
<path style=" stroke:none;fill-rule:nonzero;fill:rgb(31.372549%,17.647059%,8.627451%);fill-opacity:1;" d="M 20.25 17.46875 C 20.386719 18.078125 18.316406 18.601562 15.621094 18.632812 C 12.925781 18.664062 10.625 18.195312 10.484375 17.582031 C 10.34375 16.972656 12.414062 16.449219 15.109375 16.417969 C 17.808594 16.386719 20.105469 16.855469 20.25 17.464844 "/>
<path style="fill:none;stroke-width:12.0954;stroke-linecap:butt;stroke-linejoin:miter;stroke:rgb(50.196078%,50.196078%,50.196078%);stroke-opacity:1;stroke-miterlimit:4;" d="M 349.190848 925.060282 C 349.190848 925.060282 367.257254 927.710952 374.651228 923.176912 C 382.114955 918.642872 387.137277 908.45872 386.997768 900.576465 C 386.788504 892.694211 382.8125 886.486064 377.022879 883.277358 C 371.163504 880.068653 357.979911 882.789077 357.979911 882.789077 " transform="matrix(0.056,0,0,0.056,0,-30.932282)"/>
<path style=" stroke:none;fill-rule:nonzero;fill:rgb(70.196078%,70.196078%,70.196078%);fill-opacity:1;" d="M 9.878906 16.664062 C 10.253906 20.960938 11.25 24.230469 15.152344 24.40625 C 19.050781 24.582031 20.28125 20.394531 20.632812 16.769531 C 20.632812 16.769531 19.75 17.6875 14.945312 17.625 C 10.136719 17.566406 9.878906 16.664062 9.878906 16.664062 Z M 9.878906 16.664062 "/>
<path style="fill:none;stroke-width:9;stroke-linecap:butt;stroke-linejoin:miter;stroke:rgb(100%,100%,100%);stroke-opacity:1;stroke-miterlimit:4;" d="M 121.501393 354.817614 C 121.501393 354.817614 126.663224 354.329333 130.081193 350.423083 C 133.499161 346.586587 133.289898 343.308127 133.289898 343.308127 L 133.289898 304.664154 " transform="matrix(0.056,0,0,0.056,0.871703,-12.018224)"/>
<path style=" stroke:none;fill-rule:nonzero;fill:rgb(100%,100%,100%);fill-opacity:1;" d="M 8.097656 4.328125 L 8.59375 4.328125 L 8.59375 4.8125 L 8.097656 4.8125 Z M 8.097656 4.328125 "/>
<path style="fill:none;stroke-width:9;stroke-linecap:butt;stroke-linejoin:bevel;stroke:rgb(100%,100%,100%);stroke-opacity:1;stroke-miterlimit:4;" d="M 915.687225 696.267943 L 937.851426 638.017652 L 960.569732 696.267943 " transform="matrix(0.0563972,0,0,0.0563972,-42.384429,-31.501972)"/>
<path style="fill:none;stroke-width:9;stroke-linecap:butt;stroke-linejoin:miter;stroke:rgb(100%,100%,100%);stroke-opacity:1;stroke-miterlimit:4;" d="M 924.552905 676.735741 L 950.388052 676.735741 " transform="matrix(0.0563972,0,0,0.0563972,-42.384429,-31.501972)"/>
<path style="fill:none;stroke-width:9.063828;stroke-linecap:butt;stroke-linejoin:miter;stroke:rgb(100%,100%,100%);stroke-opacity:1;stroke-miterlimit:4;" d="M 384.47007 735.930818 L 384.47007 679.499456 C 384.47007 679.499456 415.301544 673.500572 415.162035 693.799121 C 415.022526 714.027916 385.09786 708.517313 385.09786 708.517313 " transform="matrix(0.056,0,0,0.056,-8.870168,-33.329313)"/>
<path style="fill:none;stroke-width:9;stroke-linecap:butt;stroke-linejoin:miter;stroke:rgb(100%,100%,100%);stroke-opacity:1;stroke-miterlimit:4;" d="M 392.491834 710.470438 L 418.37074 734.954255 " transform="matrix(0.056,0,0,0.056,-8.870168,-33.329313)"/>
</g>
</svg>
