<?xml version="1.0" encoding="UTF-8"?>
<svg xmlns="http://www.w3.org/2000/svg" xmlns:xlink="http://www.w3.org/1999/xlink" width="28" height="28" viewBox="0 0 28 28" version="1.1">
<g id="surface1">
<path style=" stroke:none;fill-rule:evenodd;fill:rgb(20%,20%,20%);fill-opacity:1;" d="M 3.53125 8.617188 L 6.511719 11.53125 L 6.417969 7.441406 L 3.527344 7.429688 Z M 3.53125 8.617188 "/>
<path style="fill-rule:evenodd;fill:rgb(94.901961%,94.901961%,94.901961%);fill-opacity:1;stroke-width:5.03546;stroke-linecap:butt;stroke-linejoin:miter;stroke:rgb(68.627451%,68.627451%,68.627451%);stroke-opacity:1;stroke-miterlimit:4;" d="M 97.02846 1029.831488 L 433.942522 1028.645662 L 435.128348 664.806376 L 347.02846 575.590416 L 97.02846 575.590416 Z M 97.02846 1029.831488 " transform="matrix(0.056,0,0,0.056,0,-30.932282)"/>
<path style="fill-rule:evenodd;fill:rgb(68.627451%,68.627451%,68.627451%);fill-opacity:1;stroke-width:5.03546;stroke-linecap:butt;stroke-linejoin:miter;stroke:rgb(68.627451%,68.627451%,68.627451%);stroke-opacity:1;stroke-miterlimit:4;" d="M 431.501116 662.923006 L 349.330357 662.36497 L 350.097656 578.520104 Z M 431.501116 662.923006 " transform="matrix(0.056,0,0,0.056,0,-30.932282)"/>
<path style=" stroke:none;fill-rule:nonzero;fill:rgb(22.352941%,25.098039%,31.372549%);fill-opacity:1;" d="M 3.535156 3.910156 L 16.132812 3.910156 L 16.132812 8.632812 L 3.535156 8.632812 Z M 3.535156 3.910156 "/>
<path style=" stroke:none;fill-rule:nonzero;fill:rgb(22.352941%,25.098039%,31.372549%);fill-opacity:1;" d="M 8.15625 15.839844 L 20.578125 15.839844 C 21.011719 15.839844 21.363281 16.195312 21.363281 16.628906 L 21.363281 25.75 C 21.363281 26.183594 21.011719 26.539062 20.578125 26.539062 L 8.15625 26.539062 C 7.71875 26.539062 7.363281 26.183594 7.363281 25.75 L 7.363281 16.628906 C 7.363281 16.195312 7.71875 15.839844 8.15625 15.839844 Z M 8.15625 15.839844 "/>
<path style=" stroke:none;fill-rule:nonzero;fill:rgb(100%,100%,100%);fill-opacity:1;" d="M 9.226562 17.097656 L 19.5625 17.097656 C 19.890625 17.097656 20.152344 17.363281 20.152344 17.6875 L 20.152344 24.484375 C 20.152344 24.808594 19.890625 25.070312 19.5625 25.070312 L 9.226562 25.070312 C 8.898438 25.070312 8.636719 24.808594 8.636719 24.484375 L 8.636719 17.6875 C 8.636719 17.363281 8.898438 17.097656 9.226562 17.097656 Z M 9.226562 17.097656 "/>
<path style=" stroke:none;fill-rule:nonzero;fill:rgb(22.352941%,25.098039%,31.372549%);fill-opacity:1;" d="M 10.046875 17.917969 L 14.765625 17.917969 C 15.03125 17.917969 15.242188 18.128906 15.242188 18.390625 L 15.242188 23.871094 C 15.242188 24.132812 15.03125 24.347656 14.765625 24.347656 L 10.046875 24.347656 C 9.785156 24.347656 9.570312 24.132812 9.570312 23.871094 L 9.570312 18.390625 C 9.570312 18.128906 9.785156 17.917969 10.046875 17.917969 Z M 10.046875 17.917969 "/>
<path style=" stroke:none;fill-rule:nonzero;fill:rgb(100%,100%,100%);fill-opacity:1;" d="M 10.882812 18.828125 L 10.882812 19.832031 L 12.96875 19.839844 C 12.96875 19.839844 12.164062 20.898438 11.894531 21.691406 C 11.625 22.484375 11.59375 23.613281 11.59375 23.613281 L 12.605469 23.625 C 12.605469 23.625 12.625 22.507812 12.898438 21.703125 C 13.167969 20.894531 14.15625 19.800781 14.15625 19.800781 L 14.15625 18.820312 Z M 10.882812 18.828125 "/>
<path style=" stroke:none;fill-rule:nonzero;fill:rgb(22.352941%,25.098039%,31.372549%);fill-opacity:1;" d="M 16.261719 21.21875 L 16.273438 20.339844 L 19.257812 20.351562 L 19.257812 21.125 L 17.5625 23.050781 L 19.25 23.039062 L 19.238281 23.90625 L 16.273438 23.886719 L 16.261719 23.121094 L 18.039062 21.199219 Z M 16.261719 21.21875 "/>
<path style="fill:none;stroke-width:9;stroke-linecap:butt;stroke-linejoin:miter;stroke:rgb(100%,100%,100%);stroke-opacity:1;stroke-miterlimit:4;" d="M 125.348772 638.229925 L 163.574219 638.787961 L 128.90625 693.893988 " transform="matrix(0.056,0,0,0.056,0,-30.932282)"/>
<path style="fill:none;stroke-width:9;stroke-linecap:butt;stroke-linejoin:miter;stroke:rgb(100%,100%,100%);stroke-opacity:1;stroke-miterlimit:4;" d="M 188.616071 638.648452 L 226.771763 639.206488 L 192.103795 689.638965 L 234.863281 689.848229 " transform="matrix(0.056,0,0,0.056,0,-30.932282)"/>
</g>
</svg>
