<?xml version="1.0" encoding="UTF-8"?>
<svg xmlns="http://www.w3.org/2000/svg" xmlns:xlink="http://www.w3.org/1999/xlink" width="28" height="28" viewBox="0 0 28 28" version="1.1">
<g id="surface1">
<path style=" stroke:none;fill-rule:evenodd;fill:rgb(0%,46.666667%,75.686275%);fill-opacity:1;" d="M 3.539062 8.648438 L 6.519531 11.566406 L 6.425781 7.476562 L 3.535156 7.460938 Z M 3.539062 8.648438 "/>
<path style="fill-rule:evenodd;fill:rgb(94.901961%,94.901961%,94.901961%);fill-opacity:1;stroke-width:5.03546;stroke-linecap:butt;stroke-linejoin:miter;stroke:rgb(68.627451%,68.627451%,68.627451%);stroke-opacity:1;stroke-miterlimit:4;" d="M 96.888951 1029.831488 L 433.803013 1028.645662 L 434.988839 664.806376 L 346.888951 575.590416 L 96.888951 575.590416 Z M 96.888951 1029.831488 " transform="matrix(0.056,0,0,0.056,0,-30.932282)"/>
<path style="fill-rule:evenodd;fill:rgb(68.627451%,68.627451%,68.627451%);fill-opacity:1;stroke-width:5.03546;stroke-linecap:butt;stroke-linejoin:miter;stroke:rgb(68.627451%,68.627451%,68.627451%);stroke-opacity:1;stroke-miterlimit:4;" d="M 431.361607 662.923006 L 349.190848 662.36497 L 349.958147 578.520104 Z M 431.361607 662.923006 " transform="matrix(0.056,0,0,0.056,0,-30.932282)"/>
<path style=" stroke:none;fill-rule:nonzero;fill:rgb(0%,73.333333%,94.901961%);fill-opacity:1;" d="M 3.527344 3.910156 L 16.125 3.910156 L 16.125 8.632812 L 3.527344 8.632812 Z M 3.527344 3.910156 "/>
<path style="fill:none;stroke-width:9.063828;stroke-linecap:butt;stroke-linejoin:miter;stroke:rgb(100%,100%,100%);stroke-opacity:1;stroke-miterlimit:4;" d="M 139.229911 693.893988 L 139.229911 637.462626 C 139.229911 637.462626 170.061384 631.533497 169.921875 651.762291 C 169.852121 672.06084 139.857701 666.480483 139.857701 666.480483 " transform="matrix(0.056,0,0,0.056,0,-30.932282)"/>
<path style=" stroke:none;fill-rule:nonzero;fill:rgb(0%,73.333333%,94.901961%);fill-opacity:1;" d="M 15.066406 26.585938 C 19.320312 26.585938 22.765625 24.835938 22.765625 22.683594 C 22.765625 20.527344 19.320312 18.78125 15.066406 18.78125 C 10.8125 18.78125 7.367188 20.527344 7.367188 22.683594 C 7.367188 24.835938 10.8125 26.585938 15.066406 26.585938 "/>
<path style=" stroke:none;fill-rule:nonzero;fill:rgb(100%,100%,100%);fill-opacity:1;" d="M 11.410156 23.167969 C 11.757812 23.167969 12.019531 23.101562 12.183594 22.976562 C 12.347656 22.847656 12.460938 22.632812 12.519531 22.328125 C 12.574219 22.042969 12.554688 21.84375 12.457031 21.738281 C 12.359375 21.628906 12.144531 21.574219 11.820312 21.574219 L 11.265625 21.574219 L 10.953125 23.167969 Z M 9.582031 25.128906 C 9.554688 25.128906 9.53125 25.117188 9.511719 25.097656 C 9.496094 25.078125 9.488281 25.050781 9.496094 25.027344 L 10.316406 20.800781 C 10.324219 20.761719 10.359375 20.730469 10.402344 20.730469 L 12.171875 20.730469 C 12.726562 20.730469 13.140625 20.882812 13.402344 21.179688 C 13.664062 21.480469 13.742188 21.898438 13.640625 22.425781 C 13.597656 22.640625 13.527344 22.839844 13.429688 23.015625 C 13.328125 23.195312 13.195312 23.359375 13.035156 23.507812 C 12.84375 23.6875 12.628906 23.816406 12.390625 23.890625 C 12.160156 23.96875 11.863281 24.007812 11.507812 24.007812 L 10.789062 24.007812 L 10.585938 25.058594 C 10.578125 25.101562 10.542969 25.128906 10.5 25.128906 Z M 9.582031 25.128906 "/>
<path style=" stroke:none;fill-rule:nonzero;fill:rgb(100%,100%,100%);fill-opacity:1;" d="M 15.75 24.007812 C 15.726562 24.007812 15.699219 23.996094 15.683594 23.976562 C 15.667969 23.953125 15.660156 23.929688 15.664062 23.902344 L 16.027344 22.035156 C 16.0625 21.855469 16.054688 21.730469 16.003906 21.675781 C 15.972656 21.640625 15.882812 21.585938 15.609375 21.585938 L 14.953125 21.585938 L 14.496094 23.9375 C 14.488281 23.976562 14.453125 24.007812 14.410156 24.007812 L 13.496094 24.007812 C 13.472656 24.007812 13.445312 23.996094 13.429688 23.976562 C 13.414062 23.953125 13.40625 23.929688 13.414062 23.902344 L 14.234375 19.679688 C 14.242188 19.636719 14.277344 19.609375 14.320312 19.609375 L 15.230469 19.609375 C 15.257812 19.609375 15.28125 19.621094 15.296875 19.640625 C 15.316406 19.660156 15.320312 19.6875 15.316406 19.710938 L 15.117188 20.730469 L 15.828125 20.730469 C 16.367188 20.730469 16.730469 20.828125 16.945312 21.023438 C 17.160156 21.222656 17.230469 21.539062 17.144531 21.96875 L 16.761719 23.9375 C 16.753906 23.976562 16.71875 24.007812 16.679688 24.007812 Z M 15.75 24.007812 "/>
<path style=" stroke:none;fill-rule:nonzero;fill:rgb(100%,100%,100%);fill-opacity:1;" d="M 18.589844 23.167969 C 18.941406 23.167969 19.203125 23.101562 19.367188 22.976562 C 19.53125 22.847656 19.640625 22.632812 19.703125 22.328125 C 19.757812 22.042969 19.734375 21.84375 19.640625 21.738281 C 19.539062 21.628906 19.328125 21.574219 19.003906 21.574219 L 18.445312 21.574219 L 18.136719 23.167969 Z M 16.761719 25.128906 C 16.738281 25.128906 16.710938 25.117188 16.695312 25.097656 C 16.679688 25.078125 16.671875 25.050781 16.675781 25.027344 L 17.5 20.800781 C 17.507812 20.761719 17.542969 20.730469 17.582031 20.730469 L 19.351562 20.730469 C 19.910156 20.730469 20.324219 20.882812 20.582031 21.179688 C 20.84375 21.480469 20.925781 21.898438 20.824219 22.425781 C 20.78125 22.640625 20.710938 22.839844 20.609375 23.015625 C 20.511719 23.195312 20.378906 23.359375 20.21875 23.507812 C 20.027344 23.6875 19.8125 23.816406 19.574219 23.890625 C 19.34375 23.96875 19.046875 24.007812 18.6875 24.007812 L 17.972656 24.007812 L 17.769531 25.058594 C 17.757812 25.101562 17.726562 25.128906 17.683594 25.128906 Z M 16.761719 25.128906 "/>
<path style="fill:none;stroke-width:9;stroke-linecap:butt;stroke-linejoin:miter;stroke:rgb(100%,100%,100%);stroke-opacity:1;stroke-miterlimit:4;" d="M 311.199902 528.451504 L 311.47892 582.929741 " transform="matrix(0.056,0,0,0.056,-7.063913,-24.890159)"/>
<path style="fill:none;stroke-width:9;stroke-linecap:butt;stroke-linejoin:miter;stroke:rgb(100%,100%,100%);stroke-opacity:1;stroke-miterlimit:4;" d="M 346.286398 527.963223 L 346.565416 582.441459 " transform="matrix(0.056,0,0,0.056,-7.063913,-24.890159)"/>
<path style="fill:none;stroke-width:9;stroke-linecap:butt;stroke-linejoin:miter;stroke:rgb(100%,100%,100%);stroke-opacity:1;stroke-miterlimit:4;" d="M 310.920884 555.027955 L 347.472224 555.027955 " transform="matrix(0.056,0,0,0.056,-7.063913,-24.890159)"/>
<path style="fill:none;stroke-width:9.063828;stroke-linecap:butt;stroke-linejoin:miter;stroke:rgb(100%,100%,100%);stroke-opacity:1;stroke-miterlimit:4;" d="M 239.327567 693.405706 L 239.327567 636.974345 C 239.327567 636.974345 270.15904 631.045215 270.019531 651.27401 C 269.880022 671.572559 239.955357 666.061956 239.955357 666.061956 " transform="matrix(0.056,0,0,0.056,0,-30.932282)"/>
</g>
</svg>
