<?xml version="1.0" encoding="UTF-8"?>
<svg xmlns="http://www.w3.org/2000/svg" xmlns:xlink="http://www.w3.org/1999/xlink" width="28" height="28" viewBox="0 0 28 28" version="1.1">
<g id="surface1">
<path style=" stroke:none;fill-rule:evenodd;fill:rgb(10.196078%,10.196078%,10.196078%);fill-opacity:1;" d="M 3.53125 8.617188 L 6.511719 11.53125 L 6.417969 7.441406 L 3.527344 7.429688 Z M 3.53125 8.617188 "/>
<path style="fill-rule:evenodd;fill:rgb(94.901961%,94.901961%,94.901961%);fill-opacity:1;stroke-width:5.03546;stroke-linecap:butt;stroke-linejoin:miter;stroke:rgb(68.627451%,68.627451%,68.627451%);stroke-opacity:1;stroke-miterlimit:4;" d="M 97.02846 1029.831488 L 433.942522 1028.645662 L 435.128348 664.806376 L 347.02846 575.590416 L 97.02846 575.590416 Z M 97.02846 1029.831488 " transform="matrix(0.056,0,0,0.056,0,-30.932282)"/>
<path style="fill-rule:evenodd;fill:rgb(68.627451%,68.627451%,68.627451%);fill-opacity:1;stroke-width:5.03546;stroke-linecap:butt;stroke-linejoin:miter;stroke:rgb(68.627451%,68.627451%,68.627451%);stroke-opacity:1;stroke-miterlimit:4;" d="M 431.501116 662.923006 L 349.330357 662.36497 L 350.097656 578.520104 Z M 431.501116 662.923006 " transform="matrix(0.056,0,0,0.056,0,-30.932282)"/>
<path style=" stroke:none;fill-rule:nonzero;fill:rgb(20%,20%,20%);fill-opacity:1;" d="M 3.535156 3.910156 L 16.132812 3.910156 L 16.132812 8.632812 L 3.535156 8.632812 Z M 3.535156 3.910156 "/>
<path style=" stroke:none;fill-rule:evenodd;fill:rgb(20%,20%,20%);fill-opacity:1;" d="M 11.695312 13.609375 L 11.695312 22.941406 C 11.300781 22.574219 10.78125 22.335938 10.238281 22.335938 C 9.097656 22.335938 8.058594 23.375 8.058594 24.515625 C 8.058594 25.660156 9.097656 26.699219 10.238281 26.699219 C 11.382812 26.699219 12.421875 25.660156 12.421875 24.515625 L 12.421875 13.609375 Z M 11.695312 13.609375 "/>
<path style=" stroke:none;fill-rule:evenodd;fill:rgb(20%,20%,20%);fill-opacity:1;" d="M 18.882812 12.773438 L 18.882812 22.109375 C 18.484375 21.738281 17.96875 21.5 17.425781 21.5 C 16.28125 21.5 15.246094 22.539062 15.246094 23.679688 C 15.246094 24.824219 16.28125 25.863281 17.425781 25.863281 C 18.566406 25.863281 19.609375 24.824219 19.609375 23.679688 L 19.609375 12.773438 Z M 18.882812 12.773438 "/>
<path style=" stroke:none;fill-rule:nonzero;fill:rgb(20%,20%,20%);fill-opacity:1;" d="M 11.722656 13.621094 L 19.507812 12.699219 L 19.605469 13.535156 L 11.820312 14.457031 Z M 11.722656 13.621094 "/>
<path style="fill:none;stroke-width:9;stroke-linecap:butt;stroke-linejoin:miter;stroke:rgb(100%,100%,100%);stroke-opacity:1;stroke-miterlimit:4;" d="M 132.952009 688.662403 C 120.954241 688.592648 109.654018 676.455372 109.584263 661.179144 C 109.514509 645.902916 121.582031 633.556376 133.719308 633.905148 C 145.856585 634.253921 156.459263 645.833162 156.668527 662.155706 C 156.87779 678.408497 145.019531 688.732157 132.952009 688.662403 Z M 132.952009 688.662403 " transform="matrix(0.056,0,0,0.056,0,-30.932282)"/>
<path style="fill:none;stroke-width:9;stroke-linecap:butt;stroke-linejoin:miter;stroke:rgb(100%,100%,100%);stroke-opacity:1;stroke-miterlimit:4;" d="M 216.09933 642.973229 C 216.09933 642.973229 208.844866 635.230483 193.359375 635.369992 C 177.873884 635.439747 169.782366 651.27401 170.061384 663.62055 C 170.270647 675.96709 181.012835 689.08093 193.219866 690.33651 C 205.496652 691.661845 214.634487 685.17468 214.634487 685.17468 L 214.006696 665.085394 L 197.265625 665.294657 " transform="matrix(0.056,0,0,0.056,0,-30.932282)"/>
<path style="fill:none;stroke-width:9;stroke-linecap:butt;stroke-linejoin:bevel;stroke:rgb(100%,100%,100%);stroke-opacity:1;stroke-miterlimit:4;" d="M 915.682956 696.274292 L 937.847157 638.024001 L 960.565464 696.274292 " transform="matrix(0.0563972,0,0,0.0563972,-38.899813,-31.478893)"/>
<path style="fill:none;stroke-width:9;stroke-linecap:butt;stroke-linejoin:miter;stroke:rgb(100%,100%,100%);stroke-opacity:1;stroke-miterlimit:4;" d="M 924.548637 676.74209 L 950.383784 676.74209 " transform="matrix(0.0563972,0,0,0.0563972,-38.899813,-31.478893)"/>
</g>
</svg>
