<?xml version="1.0" encoding="UTF-8"?>
<svg xmlns="http://www.w3.org/2000/svg" xmlns:xlink="http://www.w3.org/1999/xlink" width="28" height="28" viewBox="0 0 28 28" version="1.1">
<g id="surface1">
<path style=" stroke:none;fill-rule:evenodd;fill:rgb(10.196078%,10.196078%,10.196078%);fill-opacity:1;" d="M 3.53125 8.617188 L 6.511719 11.53125 L 6.417969 7.441406 L 3.527344 7.429688 Z M 3.53125 8.617188 "/>
<path style="fill-rule:evenodd;fill:rgb(94.901961%,94.901961%,94.901961%);fill-opacity:1;stroke-width:5.03546;stroke-linecap:butt;stroke-linejoin:miter;stroke:rgb(68.627451%,68.627451%,68.627451%);stroke-opacity:1;stroke-miterlimit:4;" d="M 97.02846 1029.831488 L 433.942522 1028.645662 L 435.128348 664.806376 L 347.02846 575.590416 L 97.02846 575.590416 Z M 97.02846 1029.831488 " transform="matrix(0.056,0,0,0.056,0,-30.932282)"/>
<path style="fill-rule:evenodd;fill:rgb(68.627451%,68.627451%,68.627451%);fill-opacity:1;stroke-width:5.03546;stroke-linecap:butt;stroke-linejoin:miter;stroke:rgb(68.627451%,68.627451%,68.627451%);stroke-opacity:1;stroke-miterlimit:4;" d="M 431.501116 662.923006 L 349.330357 662.36497 L 350.097656 578.520104 Z M 431.501116 662.923006 " transform="matrix(0.056,0,0,0.056,0,-30.932282)"/>
<path style=" stroke:none;fill-rule:nonzero;fill:rgb(20%,20%,20%);fill-opacity:1;" d="M 3.535156 3.910156 L 16.132812 3.910156 L 16.132812 8.632812 L 3.535156 8.632812 Z M 3.535156 3.910156 "/>
<path style=" stroke:none;fill-rule:evenodd;fill:rgb(20%,20%,20%);fill-opacity:1;" d="M 11.695312 13.609375 L 11.695312 22.941406 C 11.300781 22.574219 10.78125 22.335938 10.238281 22.335938 C 9.097656 22.335938 8.058594 23.375 8.058594 24.515625 C 8.058594 25.660156 9.097656 26.699219 10.238281 26.699219 C 11.382812 26.699219 12.421875 25.660156 12.421875 24.515625 L 12.421875 13.609375 Z M 11.695312 13.609375 "/>
<path style=" stroke:none;fill-rule:evenodd;fill:rgb(20%,20%,20%);fill-opacity:1;" d="M 18.882812 12.773438 L 18.882812 22.109375 C 18.484375 21.738281 17.96875 21.5 17.425781 21.5 C 16.28125 21.5 15.246094 22.539062 15.246094 23.679688 C 15.246094 24.824219 16.28125 25.863281 17.425781 25.863281 C 18.566406 25.863281 19.609375 24.824219 19.609375 23.679688 L 19.609375 12.773438 Z M 18.882812 12.773438 "/>
<path style=" stroke:none;fill-rule:nonzero;fill:rgb(20%,20%,20%);fill-opacity:1;" d="M 11.722656 13.621094 L 19.507812 12.699219 L 19.605469 13.535156 L 11.820312 14.457031 Z M 11.722656 13.621094 "/>
<path style="fill:none;stroke-width:9;stroke-linecap:butt;stroke-linejoin:miter;stroke:rgb(100%,100%,100%);stroke-opacity:1;stroke-miterlimit:4;" d="M 122.209821 694.661287 L 122.488839 640.043541 L 127.511161 639.834278 L 143.415179 681.128921 L 146.763393 681.128921 L 162.667411 639.834278 L 167.898996 639.764523 L 167.898996 694.800796 " transform="matrix(0.056,0,0,0.056,0,-30.932282)"/>
<path style="fill:none;stroke-width:9.063828;stroke-linecap:butt;stroke-linejoin:miter;stroke:rgb(100%,100%,100%);stroke-opacity:1;stroke-miterlimit:4;" d="M 189.034598 695.916867 L 189.034598 639.485506 C 189.034598 639.485506 219.866071 633.486622 219.726562 653.785171 C 219.656808 674.013965 189.662388 668.503363 189.662388 668.503363 " transform="matrix(0.056,0,0,0.056,0,-30.932282)"/>
<path style="fill:none;stroke-width:8.069904;stroke-linecap:butt;stroke-linejoin:miter;stroke:rgb(100%,100%,100%);stroke-opacity:1;stroke-miterlimit:4;" d="M 231.863839 654.273452 C 231.863839 654.273452 234.654018 639.764523 247.628348 639.485506 C 259.486607 639.206488 264.718192 646.460952 264.020647 652.878363 C 263.323103 659.295773 238.141741 687.197559 238.141741 687.197559 L 276.506696 686.918541 " transform="matrix(0.056,0,0,0.056,0,-30.932282)"/>
</g>
</svg>
