<?xml version="1.0" encoding="UTF-8"?>
<svg xmlns="http://www.w3.org/2000/svg" xmlns:xlink="http://www.w3.org/1999/xlink" width="28" height="28" viewBox="0 0 28 28" version="1.1">
<g id="surface1">
<path style=" stroke:none;fill-rule:evenodd;fill:rgb(19.607843%,19.607843%,19.607843%);fill-opacity:1;" d="M 3.53125 8.617188 L 6.511719 11.53125 L 6.417969 7.441406 L 3.527344 7.429688 Z M 3.53125 8.617188 "/>
<path style="fill-rule:evenodd;fill:rgb(94.901961%,94.901961%,94.901961%);fill-opacity:1;stroke-width:5.03546;stroke-linecap:butt;stroke-linejoin:miter;stroke:rgb(68.627451%,68.627451%,68.627451%);stroke-opacity:1;stroke-miterlimit:4;" d="M 97.02846 1029.831488 L 433.942522 1028.645662 L 435.128348 664.806376 L 347.02846 575.590416 L 97.02846 575.590416 Z M 97.02846 1029.831488 " transform="matrix(0.056,0,0,0.056,0,-30.932282)"/>
<path style="fill-rule:evenodd;fill:rgb(68.627451%,68.627451%,68.627451%);fill-opacity:1;stroke-width:5.03546;stroke-linecap:butt;stroke-linejoin:miter;stroke:rgb(68.627451%,68.627451%,68.627451%);stroke-opacity:1;stroke-miterlimit:4;" d="M 431.501116 662.923006 L 349.330357 662.36497 L 350.097656 578.520104 Z M 431.501116 662.923006 " transform="matrix(0.056,0,0,0.056,0,-30.932282)"/>
<path style=" stroke:none;fill-rule:nonzero;fill:rgb(40%,40%,40%);fill-opacity:1;" d="M 3.535156 3.910156 L 17.285156 3.910156 L 17.285156 8.632812 L 3.535156 8.632812 Z M 3.535156 3.910156 "/>
<path style="fill:none;stroke-width:9;stroke-linecap:butt;stroke-linejoin:miter;stroke:rgb(100%,100%,100%);stroke-opacity:1;stroke-miterlimit:4;" d="M 380.208993 670.722649 L 346.168814 670.304122 L 346.587341 618.616064 L 381.046046 618.755573 " transform="matrix(0.056,0,0,0.056,-11.006547,-29.927656)"/>
<path style="fill:none;stroke-width:9;stroke-linecap:butt;stroke-linejoin:miter;stroke:rgb(100%,100%,100%);stroke-opacity:1;stroke-miterlimit:4;" d="M 348.958993 642.332582 L 378.116359 642.541845 " transform="matrix(0.056,0,0,0.056,-11.006547,-29.927656)"/>
<path style=" stroke:none;fill-rule:nonzero;fill:rgb(60%,60%,60%);fill-opacity:1;" d="M 8.667969 19.847656 L 21.15625 19.847656 L 21.15625 22.839844 L 8.667969 22.839844 Z M 8.667969 19.847656 "/>
<path style=" stroke:none;fill-rule:nonzero;fill:rgb(36.470588%,41.568627%,48.235294%);fill-opacity:1;" d="M 9.972656 14.863281 L 19.722656 14.863281 L 19.722656 18.757812 L 9.972656 18.757812 Z M 9.972656 14.863281 "/>
<path style=" stroke:none;fill-rule:nonzero;fill:rgb(100%,100%,100%);fill-opacity:1;" d="M 10.746094 16.347656 L 10.746094 14.109375 L 12.648438 12.570312 L 18.90625 12.539062 L 18.9375 16.378906 Z M 10.746094 16.347656 "/>
<path style=" stroke:none;fill-rule:nonzero;fill:rgb(40%,40%,40%);fill-opacity:1;" d="M 8.648438 16.082031 L 21.136719 16.082031 L 21.136719 19.976562 L 8.648438 19.976562 Z M 8.648438 16.082031 "/>
<path style=" stroke:none;fill-rule:nonzero;fill:rgb(100%,100%,100%);fill-opacity:1;" d="M 10.1875 21.75 L 19.9375 21.75 L 19.9375 26.539062 L 10.1875 26.539062 Z M 10.1875 21.75 "/>
<path style=" stroke:none;fill-rule:nonzero;fill:rgb(36.470588%,41.568627%,48.235294%);fill-opacity:1;" d="M 10.1875 20.851562 L 19.9375 20.851562 L 19.9375 21.835938 L 10.1875 21.835938 Z M 10.1875 20.851562 "/>
<path style=" stroke:none;fill-rule:nonzero;fill:rgb(55.294118%,82.745098%,37.254902%);fill-opacity:1;" d="M 20.355469 17.269531 C 20.355469 17.546875 20.136719 17.773438 19.871094 17.773438 C 19.601562 17.773438 19.382812 17.546875 19.382812 17.269531 C 19.378906 16.992188 19.597656 16.769531 19.867188 16.769531 C 20.136719 16.765625 20.355469 16.988281 20.355469 17.265625 "/>
<path style=" stroke:none;fill-rule:nonzero;fill:rgb(92.156863%,92.156863%,92.156863%);fill-opacity:1;" d="M 10.734375 14.121094 L 12.648438 14.121094 L 12.652344 12.5625 Z M 10.734375 14.121094 "/>
<path style=" stroke:none;fill-rule:nonzero;fill:rgb(80%,80%,80%);fill-opacity:1;" d="M 10.796875 22.359375 L 19.347656 22.359375 L 19.347656 22.828125 L 10.796875 22.828125 Z M 10.796875 22.359375 "/>
<path style=" stroke:none;fill-rule:nonzero;fill:rgb(80%,80%,80%);fill-opacity:1;" d="M 10.734375 24.671875 L 19.285156 24.671875 L 19.285156 25.140625 L 10.734375 25.140625 Z M 10.734375 24.671875 "/>
<path style=" stroke:none;fill-rule:nonzero;fill:rgb(80%,80%,80%);fill-opacity:1;" d="M 10.734375 23.460938 L 19.285156 23.460938 L 19.285156 23.929688 L 10.734375 23.929688 Z M 10.734375 23.460938 "/>
<path style="fill:none;stroke-width:9.063828;stroke-linecap:butt;stroke-linejoin:miter;stroke:rgb(100%,100%,100%);stroke-opacity:1;stroke-miterlimit:4;" d="M 198.102679 692.638407 L 198.102679 636.137291 C 198.102679 636.137291 228.934152 630.208162 228.794643 650.506711 C 228.724888 670.735506 198.730469 665.224903 198.730469 665.224903 " transform="matrix(0.056,0,0,0.056,0,-30.932282)"/>
<path style="fill:none;stroke-width:10;stroke-linecap:butt;stroke-linejoin:miter;stroke:rgb(100%,100%,100%);stroke-opacity:1;stroke-miterlimit:4;" d="M 277.413504 638.508943 C 277.413504 638.508943 268.136161 634.184166 259.347098 634.114412 C 250.558036 634.044657 245.047433 639.345997 244.768415 646.949233 C 244.489397 654.55247 248.674665 660.621108 263.881138 662.36497 C 279.017857 664.178586 278.111049 677.36218 276.227679 682.035729 C 274.344308 686.709278 265.555246 691.103809 256.55692 689.917983 C 247.558594 688.732157 240.094866 684.686398 240.094866 684.686398 " transform="matrix(0.056,0,0,0.056,0,-30.932282)"/>
</g>
</svg>
