<?xml version="1.0" encoding="UTF-8"?>
<svg xmlns="http://www.w3.org/2000/svg" xmlns:xlink="http://www.w3.org/1999/xlink" width="28" height="28" viewBox="0 0 28 28" version="1.1">
<g id="surface1">
<path style=" stroke:none;fill-rule:evenodd;fill:rgb(0%,54.509804%,74.509804%);fill-opacity:1;" d="M 3.53125 8.617188 L 6.511719 11.53125 L 6.417969 7.441406 L 3.527344 7.429688 Z M 3.53125 8.617188 "/>
<path style="fill-rule:evenodd;fill:rgb(94.901961%,94.901961%,94.901961%);fill-opacity:1;stroke-width:5.03546;stroke-linecap:butt;stroke-linejoin:miter;stroke:rgb(68.627451%,68.627451%,68.627451%);stroke-opacity:1;stroke-miterlimit:4;" d="M 97.02846 1029.831488 L 433.942522 1028.645662 L 435.128348 664.806376 L 347.02846 575.590416 L 97.02846 575.590416 Z M 97.02846 1029.831488 " transform="matrix(0.056,0,0,0.056,0,-30.932282)"/>
<path style="fill-rule:evenodd;fill:rgb(68.627451%,68.627451%,68.627451%);fill-opacity:1;stroke-width:5.03546;stroke-linecap:butt;stroke-linejoin:miter;stroke:rgb(68.627451%,68.627451%,68.627451%);stroke-opacity:1;stroke-miterlimit:4;" d="M 431.501116 662.923006 L 349.330357 662.36497 L 350.097656 578.520104 Z M 431.501116 662.923006 " transform="matrix(0.056,0,0,0.056,0,-30.932282)"/>
<path style=" stroke:none;fill-rule:nonzero;fill:rgb(0%,73.333333%,94.901961%);fill-opacity:1;" d="M 3.535156 3.910156 L 16.28125 3.910156 L 16.28125 8.632812 L 3.535156 8.632812 Z M 3.535156 3.910156 "/>
<path style="fill:none;stroke-width:9;stroke-linecap:butt;stroke-linejoin:miter;stroke:rgb(100%,100%,100%);stroke-opacity:1;stroke-miterlimit:4;" d="M 133.363302 354.145778 L 133.293548 304.689863 " transform="matrix(0.056,0,0,0.056,0.883218,-11.89857)"/>
<path style=" stroke:none;fill-rule:nonzero;fill:rgb(100%,100%,100%);fill-opacity:1;" d="M 8.109375 4.449219 L 8.605469 4.449219 L 8.605469 4.933594 L 8.109375 4.933594 Z M 8.109375 4.449219 "/>
<path style="fill-rule:nonzero;fill:rgb(100%,40%,0%);fill-opacity:1;stroke-width:6.211854;stroke-linecap:round;stroke-linejoin:round;stroke:rgb(100%,100%,100%);stroke-opacity:1;stroke-miterlimit:4;" d="M 149.016358 832.753125 L 341.277014 832.747207 L 341.230051 992.498653 L 148.969394 992.504572 Z M 149.016358 832.753125 " transform="matrix(0.055995,-0.000750023,0.000750023,0.055995,0,-30.932282)"/>
<path style="fill-rule:nonzero;fill:rgb(0%,73.333333%,94.901961%);fill-opacity:1;stroke-width:6.211854;stroke-linecap:round;stroke-linejoin:round;stroke:rgb(100%,100%,100%);stroke-opacity:1;stroke-miterlimit:4;" d="M -270.046178 849.45049 L -77.786175 849.476323 L -77.778355 1009.199257 L -270.038358 1009.173424 Z M -270.046178 849.45049 " transform="matrix(0.0499168,-0.0253833,0.0253833,0.0499168,0,-30.932282)"/>
<path style=" stroke:none;fill-rule:nonzero;fill:rgb(100%,100%,100%);fill-opacity:1;" d="M 17.023438 21.601562 C 16.363281 21.761719 15.769531 21.902344 15.699219 21.917969 L 15.578125 21.945312 L 14.785156 20.226562 L 15.5 19.902344 C 15.894531 19.722656 16.460938 19.472656 16.753906 19.34375 L 17.289062 19.113281 L 17.792969 20.199219 C 18.265625 21.222656 18.292969 21.289062 18.257812 21.300781 C 18.238281 21.308594 17.683594 21.445312 17.023438 21.601562 Z M 14.410156 22.230469 L 13.59375 22.429688 L 12.945312 21.050781 L 13.703125 20.710938 C 14.121094 20.523438 14.464844 20.371094 14.46875 20.375 C 14.472656 20.375 14.644531 20.746094 14.851562 21.203125 L 15.226562 22.03125 Z M 12.507812 20.101562 C 12.332031 19.722656 12.191406 19.410156 12.195312 19.40625 C 12.195312 19.40625 12.496094 19.1875 12.859375 18.921875 C 13.222656 18.65625 13.53125 18.4375 13.546875 18.429688 C 13.566406 18.421875 13.644531 18.582031 13.949219 19.242188 L 14.332031 20.0625 L 13.941406 20.257812 C 13.730469 20.367188 13.390625 20.53125 13.191406 20.621094 L 12.824219 20.789062 Z M 14.25 19.070312 L 13.851562 18.203125 L 14.949219 17.40625 C 15.554688 16.96875 16.0625 16.597656 16.078125 16.582031 C 16.109375 16.558594 16.136719 16.617188 16.617188 17.65625 L 17.125 18.757812 L 16.46875 19.0625 C 16.105469 19.230469 15.546875 19.492188 15.230469 19.648438 L 14.648438 19.933594 Z M 14.25 19.070312 "/>
<path style="fill:none;stroke-width:9;stroke-linecap:butt;stroke-linejoin:miter;stroke:rgb(100%,100%,100%);stroke-opacity:1;stroke-miterlimit:4;" d="M 213.030134 642.066421 C 213.030134 642.066421 205.426897 635.300238 191.545759 636.346555 C 177.664621 637.462626 169.782366 653.29689 170.479911 665.294657 C 171.24721 677.292425 181.780134 691.522336 195.382254 690.406265 C 208.984375 689.220439 213.030134 684.407381 213.030134 684.407381 " transform="matrix(0.056,0,0,0.056,0,-30.932282)"/>
<path style="fill:none;stroke-width:9;stroke-linecap:butt;stroke-linejoin:miter;stroke:rgb(100%,100%,100%);stroke-opacity:1;stroke-miterlimit:4;" d="M 247.977121 690.685282 C 235.909598 690.615528 224.609375 678.548006 224.539621 663.202023 C 224.469866 647.925796 236.537388 635.64901 248.674665 635.997782 C 260.811942 636.346555 271.414621 647.925796 271.623884 664.178586 C 271.833147 680.501131 259.974888 690.824791 247.977121 690.685282 Z M 247.977121 690.685282 " transform="matrix(0.056,0,0,0.056,0,-30.932282)"/>
</g>
</svg>
