<?xml version="1.0" encoding="UTF-8"?>
<svg xmlns="http://www.w3.org/2000/svg" xmlns:xlink="http://www.w3.org/1999/xlink" width="28" height="28" viewBox="0 0 28 28" version="1.1">
<g id="surface1">
<path style=" stroke:none;fill-rule:evenodd;fill:rgb(50.196078%,20%,0%);fill-opacity:1;" d="M 3.53125 8.335938 L 6.511719 11.253906 L 6.417969 7.164062 L 3.527344 7.148438 Z M 3.53125 8.335938 "/>
<path style="fill-rule:evenodd;fill:rgb(94.901961%,94.901961%,94.901961%);fill-opacity:1;stroke-width:5.03546;stroke-linecap:butt;stroke-linejoin:miter;stroke:rgb(68.627451%,68.627451%,68.627451%);stroke-opacity:1;stroke-miterlimit:4;" d="M 97.02846 1024.809166 L 433.942522 1023.693095 L 435.128348 659.784055 L 347.02846 570.568095 L 97.02846 570.568095 Z M 97.02846 1024.809166 " transform="matrix(0.056,0,0,0.056,0,-30.932282)"/>
<path style="fill-rule:evenodd;fill:rgb(68.627451%,68.627451%,68.627451%);fill-opacity:1;stroke-width:5.03546;stroke-linecap:butt;stroke-linejoin:miter;stroke:rgb(68.627451%,68.627451%,68.627451%);stroke-opacity:1;stroke-miterlimit:4;" d="M 431.501116 657.970439 L 349.330357 657.342648 L 350.097656 573.567537 Z M 431.501116 657.970439 " transform="matrix(0.056,0,0,0.056,0,-30.932282)"/>
<path style=" stroke:none;fill-rule:nonzero;fill:rgb(100%,40%,0%);fill-opacity:1;" d="M 3.535156 3.628906 L 16.28125 3.628906 L 16.28125 8.351562 L 3.535156 8.351562 Z M 3.535156 3.628906 "/>
<path style="fill-rule:nonzero;fill:rgb(0%,73.333333%,94.901961%);fill-opacity:1;stroke-width:6.833039;stroke-linecap:round;stroke-linejoin:round;stroke:rgb(100%,100%,100%);stroke-opacity:1;stroke-miterlimit:4;" d="M 141.259088 807.744639 L 352.773989 807.717578 L 352.792078 983.445104 L 141.277177 983.472165 Z M 141.259088 807.744639 " transform="matrix(0.055995,-0.000750023,0.000750023,0.055995,0,-30.932282)"/>
<path style="fill-rule:nonzero;fill:rgb(100%,40%,0%);fill-opacity:1;stroke-width:6.833039;stroke-linecap:round;stroke-linejoin:round;stroke:rgb(100%,100%,100%);stroke-opacity:1;stroke-miterlimit:4;" d="M -269.552297 827.242379 L -58.044479 827.274063 L -58.020279 1002.969396 L -269.559716 1002.999889 Z M -269.552297 827.242379 " transform="matrix(0.0499168,-0.0253833,0.0253833,0.0499168,0,-30.932282)"/>
<path style=" stroke:none;fill-rule:nonzero;fill:rgb(98.039216%,92.54902%,42.745098%);fill-opacity:1;" d="M 12.175781 18.070312 C 12.472656 18.652344 12.230469 19.367188 11.636719 19.671875 C 11.042969 19.972656 10.320312 19.75 10.023438 19.167969 C 9.726562 18.585938 9.964844 17.867188 10.558594 17.5625 C 11.152344 17.257812 11.875 17.484375 12.171875 18.0625 "/>
<path style="fill-rule:nonzero;fill:rgb(50.196078%,20%,0%);fill-opacity:1;stroke-width:0.28471;stroke-linecap:butt;stroke-linejoin:miter;stroke:rgb(0%,0%,0%);stroke-opacity:1;stroke-miterlimit:4;" d="M 186.453683 953.799122 L 215.611049 1011.834836 L 398.577009 918.503363 L 373.674665 870.861064 C 373.674665 870.861064 352.539062 893.252247 328.75279 901.762291 C 304.896763 910.272336 256.277902 898.972113 231.933594 909.993318 C 207.589286 921.014523 186.453683 953.799122 186.453683 953.799122 Z M 186.453683 953.799122 " transform="matrix(0.056,0,0,0.056,0,-30.932282)"/>
</g>
</svg>
