<?xml version="1.0" encoding="UTF-8"?>
<svg xmlns="http://www.w3.org/2000/svg" xmlns:xlink="http://www.w3.org/1999/xlink" width="28" height="28" viewBox="0 0 28 28" version="1.1">
<g id="surface1">
<path style=" stroke:none;fill-rule:evenodd;fill:rgb(9.803922%,7.843137%,23.529412%);fill-opacity:1;" d="M 3.53125 8.617188 L 6.511719 11.53125 L 6.417969 7.441406 L 3.527344 7.429688 Z M 3.53125 8.617188 "/>
<path style="fill-rule:evenodd;fill:rgb(94.901961%,94.901961%,94.901961%);fill-opacity:1;stroke-width:5.03546;stroke-linecap:butt;stroke-linejoin:miter;stroke:rgb(68.627451%,68.627451%,68.627451%);stroke-opacity:1;stroke-miterlimit:4;" d="M 97.02846 1029.831488 L 433.942522 1028.645662 L 435.128348 664.806376 L 347.02846 575.590416 L 97.02846 575.590416 Z M 97.02846 1029.831488 " transform="matrix(0.056,0,0,0.056,0,-30.932282)"/>
<path style="fill-rule:evenodd;fill:rgb(68.627451%,68.627451%,68.627451%);fill-opacity:1;stroke-width:5.03546;stroke-linecap:butt;stroke-linejoin:miter;stroke:rgb(68.627451%,68.627451%,68.627451%);stroke-opacity:1;stroke-miterlimit:4;" d="M 431.501116 662.923006 L 349.330357 662.36497 L 350.097656 578.520104 Z M 431.501116 662.923006 " transform="matrix(0.056,0,0,0.056,0,-30.932282)"/>
<path style=" stroke:none;fill-rule:nonzero;fill:rgb(17.647059%,8.627451%,31.372549%);fill-opacity:1;" d="M 3.535156 3.910156 L 16.132812 3.910156 L 16.132812 8.632812 L 3.535156 8.632812 Z M 3.535156 3.910156 "/>
<path style="fill-rule:nonzero;fill:rgb(17.647059%,8.627451%,31.372549%);fill-opacity:1;stroke-width:0.833333;stroke-linecap:butt;stroke-linejoin:miter;stroke:rgb(0%,0%,0%);stroke-opacity:1;stroke-miterlimit:4;" d="M 266.531808 1020.414635 C 163.922991 1018.042983 144.112723 993.698675 144.112723 993.698675 L 144.112723 805.710394 C 144.112723 805.710394 163.085938 782.20314 254.394531 778.575907 C 345.633371 774.878921 382.603237 805.222113 382.603237 805.222113 L 382.603237 988.815863 C 382.603237 988.815863 369.070871 1022.786287 266.531808 1020.414635 Z M 266.531808 1020.414635 " transform="matrix(0.056,0,0,0.056,0,-30.932282)"/>
<path style=" stroke:none;fill-rule:nonzero;fill:rgb(100%,100%,100%);fill-opacity:1;" d="M 14.839844 12.503906 C 10.976562 12.503906 7.839844 13.359375 7.839844 14.410156 L 7.839844 24.59375 C 7.839844 25.648438 10.976562 26.503906 14.839844 26.503906 C 18.707031 26.503906 21.839844 25.648438 21.839844 24.59375 L 21.839844 14.410156 C 21.839844 13.359375 18.707031 12.503906 14.839844 12.503906 Z M 14.839844 13.140625 C 18.355469 13.140625 21.203125 13.707031 21.203125 14.410156 C 21.203125 15.113281 18.355469 15.683594 14.839844 15.683594 C 11.328125 15.683594 8.476562 15.113281 8.476562 14.410156 C 8.476562 13.707031 11.328125 13.140625 14.839844 13.140625 Z M 8.476562 15.203125 C 9.613281 15.882812 12.101562 16.320312 14.839844 16.320312 C 17.582031 16.320312 20.070312 15.882812 21.203125 15.203125 L 21.203125 17.59375 C 21.203125 18.296875 18.355469 18.867188 14.839844 18.867188 C 11.328125 18.867188 8.476562 18.296875 8.476562 17.59375 Z M 8.476562 18.382812 C 9.613281 19.066406 12.101562 19.503906 14.839844 19.503906 C 17.582031 19.503906 20.070312 19.066406 21.203125 18.382812 L 21.203125 21.410156 C 21.203125 22.113281 18.355469 22.683594 14.839844 22.683594 C 11.328125 22.683594 8.476562 22.113281 8.476562 21.410156 Z M 8.476562 22.203125 C 9.613281 22.882812 12.101562 23.320312 14.839844 23.320312 C 17.582031 23.320312 20.070312 22.882812 21.203125 22.203125 L 21.203125 24.59375 C 21.203125 25.296875 18.355469 25.867188 14.839844 25.867188 C 11.328125 25.867188 8.476562 25.296875 8.476562 24.59375 Z M 8.476562 22.203125 "/>
<path style="fill:none;stroke-width:10;stroke-linecap:butt;stroke-linejoin:miter;stroke:rgb(100%,100%,100%);stroke-opacity:1;stroke-miterlimit:4;" d="M 162.248884 639.694769 C 162.248884 639.694769 152.97154 635.439747 144.182478 635.369992 C 135.393415 635.230483 129.952567 640.601577 129.603795 648.204814 C 129.324777 655.738296 133.579799 661.806934 148.716518 663.62055 C 163.853237 665.364412 162.946429 678.61776 161.132812 683.291309 C 159.249442 687.964858 150.390625 692.35939 141.462054 691.173564 C 132.463728 689.917983 125 685.941979 125 685.941979 " transform="matrix(0.056,0,0,0.056,0,-30.932282)"/>
<path style="fill:none;stroke-width:9;stroke-linecap:butt;stroke-linejoin:miter;stroke:rgb(100%,100%,100%);stroke-opacity:1;stroke-miterlimit:4;" d="M 232.212392 651.447073 C 220.214624 651.307564 208.844647 639.240041 208.774892 623.963814 C 208.705138 608.617831 220.77266 596.341046 232.909937 596.689818 C 245.047214 597.03859 255.649892 608.617831 255.859156 624.870622 C 256.068419 641.193166 244.21016 651.516827 232.212392 651.447073 Z M 232.212392 651.447073 " transform="matrix(0.056,0,0,0.056,-1.972644,-28.699786)"/>
<path style="fill:none;stroke-width:9;stroke-linecap:butt;stroke-linejoin:miter;stroke:rgb(100%,100%,100%);stroke-opacity:1;stroke-miterlimit:4;" d="M 240.443419 633.659684 C 240.443419 633.659684 244.000897 643.216046 247.976901 646.773523 C 252.02266 650.331001 263.671656 653.330443 263.671656 653.330443 " transform="matrix(0.056,0,0,0.056,-1.972644,-28.699786)"/>
<path style="fill:none;stroke-width:9;stroke-linecap:butt;stroke-linejoin:miter;stroke:rgb(100%,100%,100%);stroke-opacity:1;stroke-miterlimit:4;" d="M 240.304129 633.416867 L 240.583147 687.895104 L 272.321429 688.243876 " transform="matrix(0.056,0,0,0.056,0,-30.932282)"/>
</g>
</svg>
