<?xml version="1.0" encoding="UTF-8"?>
<svg xmlns="http://www.w3.org/2000/svg" xmlns:xlink="http://www.w3.org/1999/xlink" width="28" height="28" viewBox="0 0 28 28" version="1.1">
<g id="surface1">
<path style=" stroke:none;fill-rule:evenodd;fill:rgb(21.176471%,63.137255%,20.784314%);fill-opacity:1;" d="M 3.53125 8.617188 L 6.511719 11.53125 L 6.417969 7.441406 L 3.527344 7.429688 Z M 3.53125 8.617188 "/>
<path style="fill-rule:evenodd;fill:rgb(94.901961%,94.901961%,94.901961%);fill-opacity:1;stroke-width:5.03546;stroke-linecap:butt;stroke-linejoin:miter;stroke:rgb(68.627451%,68.627451%,68.627451%);stroke-opacity:1;stroke-miterlimit:4;" d="M 97.02846 1029.831488 L 433.942522 1028.645662 L 435.128348 664.806376 L 347.02846 575.590416 L 97.02846 575.590416 Z M 97.02846 1029.831488 " transform="matrix(0.056,0,0,0.056,0,-30.932282)"/>
<path style="fill-rule:evenodd;fill:rgb(68.627451%,68.627451%,68.627451%);fill-opacity:1;stroke-width:5.03546;stroke-linecap:butt;stroke-linejoin:miter;stroke:rgb(68.627451%,68.627451%,68.627451%);stroke-opacity:1;stroke-miterlimit:4;" d="M 431.501116 662.923006 L 349.330357 662.36497 L 350.097656 578.520104 Z M 431.501116 662.923006 " transform="matrix(0.056,0,0,0.056,0,-30.932282)"/>
<path style=" stroke:none;fill-rule:nonzero;fill:rgb(27.058824%,81.568627%,24.705882%);fill-opacity:1;" d="M 3.535156 3.910156 L 16.132812 3.910156 L 16.132812 8.632812 L 3.535156 8.632812 Z M 3.535156 3.910156 "/>
<path style="fill:none;stroke-width:16.988342;stroke-linecap:butt;stroke-linejoin:miter;stroke:rgb(27.058824%,81.568627%,24.705882%);stroke-opacity:1;stroke-miterlimit:4;" d="M 144.810268 917.945327 C 144.810268 917.945327 148.716518 878.115528 187.430246 878.743318 C 216.796875 879.231599 229.21317 905.80805 229.84096 920.386733 C 230.46875 934.965416 220.214844 962.448675 190.290179 963.77401 C 160.365513 965.099345 145.856585 943.754479 145.019531 917.736064 C 144.252232 891.787403 145.019531 874.139523 145.019531 874.139523 L 143.694196 1029.412961 " transform="matrix(0.056,0,0,0.056,0,-30.932282)"/>
<path style="fill:none;stroke-width:9.063828;stroke-linecap:butt;stroke-linejoin:miter;stroke:rgb(100%,100%,100%);stroke-opacity:1;stroke-miterlimit:4;" d="M 137.34654 694.521778 L 137.34654 638.090416 C 137.34654 638.090416 168.178013 632.161287 168.038504 652.390081 C 167.96875 672.688631 137.97433 667.178028 137.97433 667.178028 " transform="matrix(0.056,0,0,0.056,0,-30.932282)"/>
</g>
</svg>
