<?xml version="1.0" encoding="UTF-8"?>
<svg xmlns="http://www.w3.org/2000/svg" xmlns:xlink="http://www.w3.org/1999/xlink" width="28" height="28" viewBox="0 0 28 28" version="1.1">
<g id="surface1">
<path style=" stroke:none;fill-rule:evenodd;fill:rgb(10.196078%,10.196078%,10.196078%);fill-opacity:1;" d="M 3.539062 8.648438 L 6.519531 11.566406 L 6.425781 7.476562 L 3.535156 7.460938 Z M 3.539062 8.648438 "/>
<path style="fill-rule:evenodd;fill:rgb(94.901961%,94.901961%,94.901961%);fill-opacity:1;stroke-width:5.03546;stroke-linecap:butt;stroke-linejoin:miter;stroke:rgb(68.627451%,68.627451%,68.627451%);stroke-opacity:1;stroke-miterlimit:4;" d="M 96.888951 1029.831488 L 433.803013 1028.645662 L 434.988839 664.806376 L 346.888951 575.590416 L 96.888951 575.590416 Z M 96.888951 1029.831488 " transform="matrix(0.056,0,0,0.056,0,-30.932282)"/>
<path style="fill-rule:evenodd;fill:rgb(68.627451%,68.627451%,68.627451%);fill-opacity:1;stroke-width:5.03546;stroke-linecap:butt;stroke-linejoin:miter;stroke:rgb(68.627451%,68.627451%,68.627451%);stroke-opacity:1;stroke-miterlimit:4;" d="M 431.361607 662.923006 L 349.190848 662.36497 L 349.958147 578.520104 Z M 431.361607 662.923006 " transform="matrix(0.056,0,0,0.056,0,-30.932282)"/>
<path style=" stroke:none;fill-rule:nonzero;fill:rgb(22.352941%,25.098039%,31.372549%);fill-opacity:1;" d="M 3.527344 3.910156 L 18.75 3.910156 L 18.75 8.632812 L 3.527344 8.632812 Z M 3.527344 3.910156 "/>
<path style="fill-rule:nonzero;fill:rgb(98.039216%,92.54902%,42.745098%);fill-opacity:1;stroke-width:13.157895;stroke-linecap:butt;stroke-linejoin:miter;stroke:rgb(22.352941%,25.098039%,31.372549%);stroke-opacity:1;stroke-miterlimit:4;" d="M 380.231585 902.390081 C 380.231585 967.750015 327.218192 1020.763407 261.858259 1020.763407 C 196.428571 1020.763407 143.415179 967.750015 143.415179 902.390081 C 143.415179 836.960394 196.358817 783.947001 261.788504 783.947001 C 327.148438 783.947001 380.231585 836.89064 380.231585 902.320327 " transform="matrix(0.056,0,0,0.056,0,-30.932282)"/>
<path style=" stroke:none;fill-rule:nonzero;fill:rgb(22.352941%,25.098039%,31.372549%);fill-opacity:1;" d="M 12.734375 18.632812 L 15.828125 18.621094 L 15.851562 22.753906 C 15.851562 22.753906 15.84375 22.859375 15.921875 22.949219 C 16.003906 23.035156 16.082031 23.039062 16.082031 23.039062 L 16.773438 23.042969 L 16.777344 23.542969 L 12.84375 23.535156 L 12.839844 23.023438 L 13.644531 23.027344 C 13.644531 23.027344 13.753906 23.015625 13.820312 22.921875 C 13.882812 22.832031 13.867188 22.730469 13.867188 22.730469 L 13.863281 19.394531 C 13.863281 19.394531 13.875 19.308594 13.761719 19.210938 C 13.648438 19.113281 13.539062 19.125 13.539062 19.125 L 12.738281 19.113281 Z M 12.734375 18.632812 "/>
<path style=" stroke:none;fill-rule:nonzero;fill:rgb(22.352941%,25.098039%,31.372549%);fill-opacity:1;" d="M 15.859375 16.910156 C 15.859375 17.542969 15.355469 18.058594 14.734375 18.058594 C 14.113281 18.058594 13.609375 17.546875 13.609375 16.914062 C 13.609375 16.28125 14.109375 15.765625 14.730469 15.765625 C 15.351562 15.761719 15.855469 16.273438 15.859375 16.90625 "/>
<path style="fill:none;stroke-width:9.063828;stroke-linecap:butt;stroke-linejoin:miter;stroke:rgb(100%,100%,100%);stroke-opacity:1;stroke-miterlimit:4;" d="M 384.417336 735.925042 L 384.417336 679.446882 C 384.417336 679.446882 415.290966 673.519145 415.126306 693.772246 C 415.043977 714.025348 385.075973 708.509259 385.075973 708.509259 " transform="matrix(0.0474464,0,0,0.0474464,-14.020483,-27.292022)"/>
<path style="fill:none;stroke-width:9;stroke-linecap:butt;stroke-linejoin:miter;stroke:rgb(100%,100%,100%);stroke-opacity:1;stroke-miterlimit:4;" d="M 392.485644 710.485171 L 418.419493 734.937086 " transform="matrix(0.0474464,0,0,0.0474464,-14.020483,-27.292022)"/>
<path style="fill:none;stroke-width:9;stroke-linecap:butt;stroke-linejoin:miter;stroke:rgb(100%,100%,100%);stroke-opacity:1;stroke-miterlimit:4;" d="M 380.200045 670.708921 L 346.197887 670.297273 L 346.609535 618.594234 L 381.023341 618.758893 " transform="matrix(0.0474464,0,0,0.0474464,-9.964919,-24.451655)"/>
<path style="fill:none;stroke-width:9;stroke-linecap:butt;stroke-linejoin:miter;stroke:rgb(100%,100%,100%);stroke-opacity:1;stroke-miterlimit:4;" d="M 348.914766 642.387511 L 378.059473 642.552171 " transform="matrix(0.0474464,0,0,0.0474464,-9.964919,-24.451655)"/>
<path style="fill:none;stroke-width:9;stroke-linecap:butt;stroke-linejoin:bevel;stroke:rgb(100%,100%,100%);stroke-opacity:1;stroke-miterlimit:4;" d="M 915.720455 696.298359 L 937.874705 638.010609 L 960.601205 696.298359 " transform="matrix(0.0477829,0,0,0.0477829,-35.298725,-25.743794)"/>
<path style="fill:none;stroke-width:9;stroke-linecap:butt;stroke-linejoin:miter;stroke:rgb(100%,100%,100%);stroke-opacity:1;stroke-miterlimit:4;" d="M 924.549455 676.760109 L 950.382455 676.760109 " transform="matrix(0.0477829,0,0,0.0477829,-35.298725,-25.743794)"/>
<path style="fill:none;stroke-width:7.625316;stroke-linecap:butt;stroke-linejoin:miter;stroke:rgb(100%,100%,100%);stroke-opacity:1;stroke-miterlimit:4;" d="M 200.334821 683.919099 L 200.753348 639.764523 C 200.753348 639.764523 234.514509 634.811956 234.933036 662.225461 C 235.351562 689.638965 200.334821 683.919099 200.334821 683.919099 Z M 200.334821 683.919099 " transform="matrix(0.056,0,0,0.056,0,-30.932282)"/>
<path style="fill:none;stroke-width:7.625316;stroke-linecap:butt;stroke-linejoin:miter;stroke:rgb(100%,100%,100%);stroke-opacity:1;stroke-miterlimit:4;" d="M 245.744978 687.68584 L 245.954241 641.508385 L 250.209263 641.299122 L 263.671875 676.315863 L 266.531808 676.315863 L 280.064174 641.299122 L 284.458705 641.229367 L 284.458705 687.825349 " transform="matrix(0.056,0,0,0.056,0,-30.932282)"/>
<path style="fill:none;stroke-width:9;stroke-linecap:butt;stroke-linejoin:miter;stroke:rgb(100%,100%,100%);stroke-opacity:1;stroke-miterlimit:4;" d="M 380.217718 670.708921 L 346.21556 670.297273 L 346.627209 618.594234 L 381.041015 618.758893 " transform="matrix(0.0474464,0,0,0.0474464,0.241274,-24.451655)"/>
<path style="fill:none;stroke-width:9;stroke-linecap:butt;stroke-linejoin:miter;stroke:rgb(100%,100%,100%);stroke-opacity:1;stroke-miterlimit:4;" d="M 348.93244 642.387511 L 378.077146 642.552171 " transform="matrix(0.0474464,0,0,0.0474464,0.241274,-24.451655)"/>
</g>
</svg>
