<?xml version="1.0" encoding="UTF-8"?>
<svg xmlns="http://www.w3.org/2000/svg" xmlns:xlink="http://www.w3.org/1999/xlink" width="28" height="28" viewBox="0 0 28 28" version="1.1">
<g id="surface1">
<path style=" stroke:none;fill-rule:evenodd;fill:rgb(10.196078%,10.196078%,10.196078%);fill-opacity:1;" d="M 3.539062 8.648438 L 6.519531 11.566406 L 6.425781 7.476562 L 3.535156 7.460938 Z M 3.539062 8.648438 "/>
<path style="fill-rule:evenodd;fill:rgb(94.901961%,94.901961%,94.901961%);fill-opacity:1;stroke-width:5.03546;stroke-linecap:butt;stroke-linejoin:miter;stroke:rgb(68.627451%,68.627451%,68.627451%);stroke-opacity:1;stroke-miterlimit:4;" d="M 96.888951 1029.831488 L 433.803013 1028.645662 L 434.988839 664.806376 L 346.888951 575.590416 L 96.888951 575.590416 Z M 96.888951 1029.831488 " transform="matrix(0.056,0,0,0.056,0,-30.932282)"/>
<path style="fill-rule:evenodd;fill:rgb(68.627451%,68.627451%,68.627451%);fill-opacity:1;stroke-width:5.03546;stroke-linecap:butt;stroke-linejoin:miter;stroke:rgb(68.627451%,68.627451%,68.627451%);stroke-opacity:1;stroke-miterlimit:4;" d="M 431.361607 662.923006 L 349.190848 662.36497 L 349.958147 578.520104 Z M 431.361607 662.923006 " transform="matrix(0.056,0,0,0.056,0,-30.932282)"/>
<path style=" stroke:none;fill-rule:nonzero;fill:rgb(22.352941%,25.098039%,31.372549%);fill-opacity:1;" d="M 3.527344 3.910156 L 16.582031 3.910156 L 16.582031 8.632812 L 3.527344 8.632812 Z M 3.527344 3.910156 "/>
<path style="fill-rule:nonzero;fill:rgb(98.039216%,92.54902%,42.745098%);fill-opacity:1;stroke-width:13.157895;stroke-linecap:butt;stroke-linejoin:miter;stroke:rgb(22.352941%,25.098039%,31.372549%);stroke-opacity:1;stroke-miterlimit:4;" d="M 380.231585 902.390081 C 380.231585 967.750015 327.218192 1020.763407 261.858259 1020.763407 C 196.428571 1020.763407 143.415179 967.750015 143.415179 902.390081 C 143.415179 836.960394 196.358817 783.947001 261.788504 783.947001 C 327.148438 783.947001 380.231585 836.89064 380.231585 902.320327 " transform="matrix(0.056,0,0,0.056,0,-30.932282)"/>
<path style=" stroke:none;fill-rule:nonzero;fill:rgb(22.352941%,25.098039%,31.372549%);fill-opacity:1;" d="M 12.734375 18.632812 L 15.828125 18.621094 L 15.851562 22.753906 C 15.851562 22.753906 15.84375 22.859375 15.921875 22.949219 C 16.003906 23.035156 16.082031 23.039062 16.082031 23.039062 L 16.773438 23.042969 L 16.777344 23.542969 L 12.84375 23.535156 L 12.839844 23.023438 L 13.644531 23.027344 C 13.644531 23.027344 13.753906 23.015625 13.820312 22.921875 C 13.882812 22.832031 13.867188 22.730469 13.867188 22.730469 L 13.863281 19.394531 C 13.863281 19.394531 13.875 19.308594 13.761719 19.210938 C 13.648438 19.113281 13.539062 19.125 13.539062 19.125 L 12.738281 19.113281 Z M 12.734375 18.632812 "/>
<path style=" stroke:none;fill-rule:nonzero;fill:rgb(22.352941%,25.098039%,31.372549%);fill-opacity:1;" d="M 15.859375 16.910156 C 15.859375 17.542969 15.355469 18.058594 14.734375 18.058594 C 14.113281 18.058594 13.609375 17.546875 13.609375 16.914062 C 13.609375 16.28125 14.109375 15.765625 14.730469 15.765625 C 15.351562 15.761719 15.855469 16.273438 15.859375 16.90625 "/>
<path style="fill:none;stroke-width:9;stroke-linecap:butt;stroke-linejoin:bevel;stroke:rgb(100%,100%,100%);stroke-opacity:1;stroke-miterlimit:4;" d="M 124.232701 695.079814 L 124.023438 634.114412 L 166.085379 694.24276 L 166.085379 633.277358 " transform="matrix(0.056,0,0,0.056,0,-30.932282)"/>
<path style="fill:none;stroke-width:9;stroke-linecap:butt;stroke-linejoin:miter;stroke:rgb(100%,100%,100%);stroke-opacity:1;stroke-miterlimit:4;" d="M 233.383267 692.477823 L 233.801794 640.789765 L 268.260499 640.929274 " transform="matrix(0.056,0,0,0.056,-2.612432,-31.130321)"/>
<path style="fill:none;stroke-width:9;stroke-linecap:butt;stroke-linejoin:miter;stroke:rgb(100%,100%,100%);stroke-opacity:1;stroke-miterlimit:4;" d="M 236.103691 664.576037 L 265.261057 664.715546 " transform="matrix(0.056,0,0,0.056,-2.612432,-31.130321)"/>
<path style="fill:none;stroke-width:9;stroke-linecap:butt;stroke-linejoin:miter;stroke:rgb(100%,100%,100%);stroke-opacity:1;stroke-miterlimit:4;" d="M 252.929688 691.522336 C 240.862165 691.452581 229.561942 679.385059 229.492188 664.039077 C 229.422433 648.762849 241.489955 636.486064 253.627232 636.834836 C 265.764509 637.183608 276.367188 648.762849 276.576451 665.01564 C 276.785714 681.26843 264.927455 691.661845 252.929688 691.522336 Z M 252.929688 691.522336 " transform="matrix(0.056,0,0,0.056,0,-30.932282)"/>
</g>
</svg>
