<?xml version="1.0" encoding="UTF-8"?>
<svg xmlns="http://www.w3.org/2000/svg" xmlns:xlink="http://www.w3.org/1999/xlink" width="28" height="28" viewBox="0 0 28 28" version="1.1">
<g id="surface1">
<path style=" stroke:none;fill-rule:evenodd;fill:rgb(0%,0%,0%);fill-opacity:1;" d="M 3.539062 8.648438 L 6.519531 11.566406 L 6.425781 7.476562 L 3.535156 7.460938 Z M 3.539062 8.648438 "/>
<path style="fill-rule:evenodd;fill:rgb(94.901961%,94.901961%,94.901961%);fill-opacity:1;stroke-width:5.03546;stroke-linecap:butt;stroke-linejoin:miter;stroke:rgb(68.627451%,68.627451%,68.627451%);stroke-opacity:1;stroke-miterlimit:4;" d="M 96.888951 1029.831488 L 433.803013 1028.645662 L 434.988839 664.806376 L 346.888951 575.590416 L 96.888951 575.590416 Z M 96.888951 1029.831488 " transform="matrix(0.056,0,0,0.056,0,-30.932282)"/>
<path style="fill-rule:evenodd;fill:rgb(68.627451%,68.627451%,68.627451%);fill-opacity:1;stroke-width:5.03546;stroke-linecap:butt;stroke-linejoin:miter;stroke:rgb(68.627451%,68.627451%,68.627451%);stroke-opacity:1;stroke-miterlimit:4;" d="M 431.361607 662.923006 L 349.190848 662.36497 L 349.958147 578.520104 Z M 431.361607 662.923006 " transform="matrix(0.056,0,0,0.056,0,-30.932282)"/>
<path style=" stroke:none;fill-rule:nonzero;fill:rgb(10.196078%,10.196078%,10.196078%);fill-opacity:1;" d="M 3.527344 3.910156 L 16.402344 3.910156 L 16.402344 8.632812 L 3.527344 8.632812 Z M 3.527344 3.910156 "/>
<path style=" stroke:none;fill-rule:nonzero;fill:rgb(100%,100%,100%);fill-opacity:1;" d="M 20.667969 23.503906 C 20.398438 23.445312 20.113281 23.40625 19.824219 23.40625 C 19.328125 23.40625 18.878906 23.492188 18.546875 23.628906 C 18.507812 23.648438 18.484375 23.6875 18.484375 23.726562 C 18.484375 23.746094 18.488281 23.761719 18.492188 23.773438 C 18.53125 23.886719 18.46875 24.011719 18.144531 24.082031 C 17.667969 24.1875 17.367188 24.679688 17.195312 24.84375 C 16.992188 25.035156 16.421875 25.152344 16.507812 25.035156 C 16.578125 24.949219 16.832031 24.667969 16.988281 24.367188 C 17.128906 24.097656 17.253906 24.023438 17.425781 23.761719 C 17.476562 23.6875 17.671875 23.421875 17.726562 23.214844 C 17.792969 23.007812 17.769531 22.753906 17.792969 22.648438 C 17.828125 22.492188 17.972656 22.164062 17.984375 21.976562 C 17.992188 21.871094 17.542969 22.128906 17.332031 22.128906 C 17.117188 22.128906 16.910156 22 16.722656 21.992188 C 16.488281 21.980469 16.335938 22.171875 16.121094 22.136719 C 16.003906 22.117188 15.898438 22.011719 15.6875 22.003906 C 15.386719 21.992188 15.015625 22.171875 14.324219 22.148438 C 13.640625 22.128906 13.011719 21.289062 12.925781 21.15625 C 12.824219 21 12.703125 21 12.570312 21.121094 C 12.433594 21.246094 12.269531 21.148438 12.222656 21.066406 C 12.132812 20.910156 11.894531 20.453125 11.523438 20.355469 C 11.011719 20.222656 10.753906 20.640625 10.785156 20.972656 C 10.820312 21.308594 11.039062 21.402344 11.136719 21.582031 C 11.238281 21.757812 11.289062 21.875 11.480469 21.953125 C 11.613281 22.007812 11.664062 22.089844 11.625 22.203125 C 11.589844 22.296875 11.449219 22.320312 11.355469 22.324219 C 11.164062 22.332031 11.027344 22.28125 10.925781 22.21875 C 10.808594 22.140625 10.714844 22.039062 10.613281 21.867188 C 10.496094 21.671875 10.3125 21.589844 10.097656 21.589844 C 9.996094 21.589844 9.898438 21.617188 9.8125 21.660156 C 9.476562 21.835938 9.078125 21.9375 8.644531 21.9375 L 8.15625 21.941406 C 9.089844 24.707031 11.710938 26.699219 14.792969 26.699219 C 17.253906 26.699219 19.421875 25.429688 20.667969 23.503906 "/>
<path style=" stroke:none;fill-rule:nonzero;fill:rgb(0%,0%,0%);fill-opacity:1;" d="M 20.667969 23.507812 C 20.398438 23.445312 20.113281 23.40625 19.824219 23.40625 C 19.328125 23.40625 18.878906 23.492188 18.546875 23.628906 C 18.507812 23.648438 18.484375 23.6875 18.484375 23.730469 C 18.484375 23.746094 18.488281 23.761719 18.492188 23.773438 C 18.53125 23.886719 18.46875 24.011719 18.144531 24.082031 C 17.667969 24.1875 17.367188 24.679688 17.195312 24.84375 C 16.992188 25.035156 16.421875 25.152344 16.507812 25.039062 C 16.578125 24.949219 16.832031 24.667969 16.988281 24.367188 C 17.128906 24.097656 17.253906 24.023438 17.425781 23.765625 C 17.476562 23.6875 17.671875 23.421875 17.726562 23.214844 C 17.792969 23.007812 17.769531 22.753906 17.792969 22.648438 C 17.828125 22.496094 17.972656 22.164062 17.984375 21.976562 C 17.992188 21.871094 17.542969 22.128906 17.332031 22.128906 C 17.117188 22.128906 16.910156 22 16.722656 21.992188 C 16.488281 21.980469 16.335938 22.171875 16.121094 22.136719 C 16.003906 22.121094 15.898438 22.011719 15.6875 22.003906 C 15.386719 21.992188 15.015625 22.171875 14.324219 22.148438 C 13.640625 22.128906 13.011719 21.289062 12.925781 21.15625 C 12.824219 21 12.703125 21 12.570312 21.121094 C 12.433594 21.246094 12.269531 21.148438 12.222656 21.066406 C 12.132812 20.910156 11.894531 20.453125 11.523438 20.355469 C 11.011719 20.222656 10.753906 20.640625 10.785156 20.972656 C 10.820312 21.308594 11.039062 21.402344 11.136719 21.582031 C 11.238281 21.757812 11.289062 21.875 11.480469 21.953125 C 11.613281 22.007812 11.664062 22.09375 11.625 22.203125 C 11.589844 22.296875 11.449219 22.320312 11.355469 22.324219 C 11.164062 22.332031 11.027344 22.28125 10.925781 22.214844 C 10.808594 22.144531 10.714844 22.039062 10.613281 21.867188 C 10.496094 21.671875 10.3125 21.589844 10.097656 21.589844 C 9.996094 21.589844 9.898438 21.617188 9.8125 21.660156 C 9.476562 21.835938 9.078125 21.941406 8.644531 21.941406 L 8.15625 21.941406 C 7.921875 21.238281 7.792969 20.484375 7.792969 19.703125 C 7.792969 15.839844 10.925781 12.707031 14.792969 12.707031 C 18.660156 12.707031 21.792969 15.839844 21.792969 19.703125 C 21.792969 21.105469 21.378906 22.410156 20.667969 23.507812 "/>
<path style=" stroke:none;fill-rule:nonzero;fill:rgb(0%,0%,0%);fill-opacity:1;" d="M 16.335938 22.863281 C 16.371094 22.898438 16.433594 23.015625 16.355469 23.167969 C 16.3125 23.246094 16.269531 23.304688 16.1875 23.367188 C 16.085938 23.445312 15.894531 23.539062 15.632812 23.371094 C 15.488281 23.28125 15.480469 23.25 15.285156 23.277344 C 15.144531 23.292969 15.089844 23.152344 15.140625 23.035156 C 15.191406 22.917969 15.394531 22.824219 15.652344 22.972656 C 15.769531 23.042969 15.949219 23.1875 16.105469 23.058594 C 16.171875 23.007812 16.210938 22.972656 16.304688 22.867188 C 16.308594 22.863281 16.3125 22.859375 16.320312 22.859375 C 16.324219 22.859375 16.332031 22.859375 16.335938 22.863281 "/>
<path style=" stroke:none;fill-rule:nonzero;fill:rgb(94.117647%,22.352941%,8.627451%);fill-opacity:1;" d="M 14.246094 16.039062 C 13.4375 16.097656 13.355469 16.183594 13.203125 16.34375 C 12.992188 16.574219 12.707031 16.050781 12.707031 16.050781 C 12.539062 16.015625 12.335938 15.742188 12.445312 15.488281 C 12.554688 15.238281 12.757812 15.3125 12.816406 15.390625 C 12.894531 15.488281 13.058594 15.640625 13.269531 15.636719 C 13.484375 15.632812 13.726562 15.585938 14.070312 15.585938 C 14.417969 15.585938 14.648438 15.714844 14.660156 15.828125 C 14.671875 15.921875 14.632812 16.011719 14.246094 16.039062 M 15.097656 14.703125 L 15.09375 14.703125 C 15.082031 14.703125 15.070312 14.695312 15.070312 14.683594 C 15.070312 14.675781 15.078125 14.667969 15.085938 14.664062 C 15.242188 14.582031 15.476562 14.515625 15.742188 14.488281 C 15.824219 14.480469 15.902344 14.472656 15.976562 14.472656 L 16.015625 14.472656 C 16.464844 14.484375 16.824219 14.664062 16.820312 14.871094 C 16.8125 15.082031 16.445312 15.242188 15.996094 15.234375 C 15.851562 15.230469 15.714844 15.210938 15.597656 15.175781 C 15.582031 15.171875 15.574219 15.160156 15.574219 15.144531 C 15.574219 15.132812 15.582031 15.121094 15.597656 15.117188 C 15.878906 15.050781 16.066406 14.945312 16.054688 14.847656 C 16.035156 14.714844 15.671875 14.640625 15.238281 14.683594 C 15.1875 14.691406 15.140625 14.695312 15.097656 14.703125 M 18.742188 17.84375 C 18.671875 18.074219 18.574219 18.371094 18.136719 18.597656 C 18.074219 18.628906 18.050781 18.574219 18.078125 18.523438 C 18.246094 18.242188 18.273438 18.171875 18.320312 18.0625 C 18.390625 17.898438 18.425781 17.667969 18.289062 17.1875 C 18.027344 16.242188 17.476562 14.976562 17.078125 14.566406 C 16.695312 14.167969 15.996094 14.058594 15.363281 14.21875 C 15.132812 14.28125 14.675781 14.515625 13.835938 14.324219 C 12.375 13.996094 12.160156 14.726562 12.078125 15.046875 C 11.992188 15.363281 11.792969 16.265625 11.792969 16.265625 C 11.722656 16.636719 11.636719 17.277344 13.902344 17.707031 C 14.957031 17.910156 15.011719 18.179688 15.058594 18.378906 C 15.140625 18.730469 15.273438 18.929688 15.425781 19.03125 C 15.578125 19.128906 15.425781 19.214844 15.257812 19.230469 C 14.808594 19.277344 13.148438 18.800781 12.164062 18.242188 C 11.359375 17.753906 11.347656 17.308594 11.53125 16.933594 C 10.316406 16.804688 9.40625 17.046875 9.242188 17.625 C 8.957031 18.609375 11.410156 20.292969 14.203125 21.140625 C 17.136719 22.027344 20.148438 21.40625 20.484375 19.566406 C 20.636719 18.730469 19.933594 18.109375 18.742188 17.84375 "/>
<path style="fill:none;stroke-width:10;stroke-linecap:butt;stroke-linejoin:miter;stroke:rgb(100%,100%,100%);stroke-opacity:1;stroke-miterlimit:4;" d="M 128.069196 640.601577 C 128.069196 640.601577 118.861607 636.346555 110.00279 636.207046 C 101.213728 636.137291 95.772879 641.438631 95.493862 649.041867 C 95.145089 656.645104 99.400112 662.713742 114.53683 664.527358 C 129.743304 666.27122 128.766741 679.524568 126.953125 684.198117 C 125.069754 688.801912 116.210938 693.196443 107.282366 692.010617 C 98.28404 690.824791 90.820312 686.779032 90.820312 686.779032 " transform="matrix(0.056,0,0,0.056,0,-30.932282)"/>
<path style="fill:none;stroke-width:9.063828;stroke-linecap:butt;stroke-linejoin:miter;stroke:rgb(100%,100%,100%);stroke-opacity:1;stroke-miterlimit:4;" d="M 143.136161 692.777916 L 143.136161 636.346555 C 143.136161 636.346555 173.967634 630.417425 173.897879 650.64622 C 173.758371 670.944769 143.763951 665.364412 143.763951 665.364412 " transform="matrix(0.056,0,0,0.056,0,-30.932282)"/>
<path style="fill:none;stroke-width:9;stroke-linecap:butt;stroke-linejoin:miter;stroke:rgb(100%,100%,100%);stroke-opacity:1;stroke-miterlimit:4;" d="M 380.203298 670.748225 L 346.232874 670.329698 L 346.581646 618.571886 L 381.040352 618.711395 " transform="matrix(0.056,0,0,0.056,-8.814822,-29.835338)"/>
<path style="fill:none;stroke-width:9;stroke-linecap:butt;stroke-linejoin:miter;stroke:rgb(100%,100%,100%);stroke-opacity:1;stroke-miterlimit:4;" d="M 348.953298 642.358158 L 378.110664 642.497667 " transform="matrix(0.056,0,0,0.056,-8.814822,-29.835338)"/>
<path style="fill:none;stroke-width:9;stroke-linecap:butt;stroke-linejoin:miter;stroke:rgb(100%,100%,100%);stroke-opacity:1;stroke-miterlimit:4;" d="M 277.064732 644.159055 C 277.064732 644.159055 269.461496 637.323117 255.580357 638.439189 C 241.699219 639.485506 233.816964 655.319769 234.514509 667.317537 C 235.281808 679.315305 245.814732 693.61497 259.416853 692.429144 C 273.018973 691.243318 277.064732 686.43026 277.064732 686.43026 " transform="matrix(0.056,0,0,0.056,0,-30.932282)"/>
</g>
</svg>
