<?xml version="1.0" encoding="UTF-8"?>
<svg xmlns="http://www.w3.org/2000/svg" xmlns:xlink="http://www.w3.org/1999/xlink" width="28" height="28" viewBox="0 0 28 28" version="1.1">
<g id="surface1">
<path style=" stroke:none;fill-rule:evenodd;fill:rgb(20%,20%,20%);fill-opacity:1;" d="M 3.53125 8.617188 L 6.511719 11.53125 L 6.417969 7.441406 L 3.527344 7.429688 Z M 3.53125 8.617188 "/>
<path style="fill-rule:evenodd;fill:rgb(94.901961%,94.901961%,94.901961%);fill-opacity:1;stroke-width:5.03546;stroke-linecap:butt;stroke-linejoin:miter;stroke:rgb(68.627451%,68.627451%,68.627451%);stroke-opacity:1;stroke-miterlimit:4;" d="M 97.02846 1029.831488 L 433.942522 1028.645662 L 435.128348 664.806376 L 347.02846 575.590416 L 97.02846 575.590416 Z M 97.02846 1029.831488 " transform="matrix(0.056,0,0,0.056,0,-30.932282)"/>
<path style="fill-rule:evenodd;fill:rgb(68.627451%,68.627451%,68.627451%);fill-opacity:1;stroke-width:5.03546;stroke-linecap:butt;stroke-linejoin:miter;stroke:rgb(68.627451%,68.627451%,68.627451%);stroke-opacity:1;stroke-miterlimit:4;" d="M 431.501116 662.923006 L 349.330357 662.36497 L 350.097656 578.520104 Z M 431.501116 662.923006 " transform="matrix(0.056,0,0,0.056,0,-30.932282)"/>
<path style=" stroke:none;fill-rule:nonzero;fill:rgb(30.196078%,30.196078%,30.196078%);fill-opacity:1;" d="M 3.535156 3.910156 L 14.773438 3.910156 L 14.773438 8.632812 L 3.535156 8.632812 Z M 3.535156 3.910156 "/>
<path style=" stroke:none;fill-rule:nonzero;fill:rgb(40%,40%,40%);fill-opacity:1;" d="M 6.492188 18.40625 L 23.140625 18.40625 L 23.140625 19.085938 L 6.492188 19.085938 Z M 6.492188 18.40625 "/>
<path style=" stroke:none;fill-rule:nonzero;fill:rgb(40%,40%,40%);fill-opacity:1;" d="M 6.554688 21.351562 L 23.230469 21.351562 L 23.230469 22.03125 L 6.554688 22.03125 Z M 6.554688 21.351562 "/>
<path style=" stroke:none;fill-rule:nonzero;fill:rgb(40%,40%,40%);fill-opacity:1;" d="M 6.554688 24.386719 L 17.972656 24.386719 L 17.972656 25.066406 L 6.554688 25.066406 Z M 6.554688 24.386719 "/>
<path style=" stroke:none;fill-rule:nonzero;fill:rgb(40%,40%,40%);fill-opacity:1;" d="M 6.382812 12.546875 L 23.03125 12.546875 L 23.03125 13.226562 L 6.382812 13.226562 Z M 6.382812 12.546875 "/>
<path style=" stroke:none;fill-rule:nonzero;fill:rgb(40%,40%,40%);fill-opacity:1;" d="M 6.445312 15.492188 L 23.121094 15.492188 L 23.121094 16.171875 L 6.445312 16.171875 Z M 6.445312 15.492188 "/>
<path style="fill:none;stroke-width:9;stroke-linecap:butt;stroke-linejoin:miter;stroke:rgb(100%,100%,100%);stroke-opacity:1;stroke-miterlimit:4;" d="M 108.607701 632.300796 L 108.886719 686.779032 L 140.625 687.05805 " transform="matrix(0.056,0,0,0.056,0,-30.932282)"/>
<path style="fill:none;stroke-width:9;stroke-linecap:butt;stroke-linejoin:miter;stroke:rgb(100%,100%,100%);stroke-opacity:1;stroke-miterlimit:4;" d="M 166.573661 686.918541 C 154.506138 686.848787 143.205915 674.781265 143.136161 659.435282 C 143.066406 644.159055 155.133929 631.882269 167.271205 632.231041 C 179.408482 632.579814 190.011161 644.159055 190.220424 660.411845 C 190.429688 676.664635 178.571429 687.05805 166.573661 686.918541 Z M 166.573661 686.918541 " transform="matrix(0.056,0,0,0.056,0,-30.932282)"/>
<path style="fill:none;stroke-width:9;stroke-linecap:butt;stroke-linejoin:miter;stroke:rgb(100%,100%,100%);stroke-opacity:1;stroke-miterlimit:4;" d="M 250.62779 642.20593 C 250.62779 642.20593 243.373326 634.532939 227.887835 634.672448 C 212.472098 634.742202 204.38058 650.576465 204.589844 662.923006 C 204.868862 675.269546 215.611049 688.383385 227.81808 689.638965 C 240.025112 690.894546 249.162946 684.477135 249.162946 684.477135 L 248.604911 664.387849 L 231.863839 664.597113 " transform="matrix(0.056,0,0,0.056,0,-30.932282)"/>
</g>
</svg>
