<?xml version="1.0" encoding="UTF-8"?>
<svg xmlns="http://www.w3.org/2000/svg" xmlns:xlink="http://www.w3.org/1999/xlink" width="28" height="28" viewBox="0 0 28 28" version="1.1">
<g id="surface1">
<path style=" stroke:none;fill-rule:evenodd;fill:rgb(0%,56.078431%,81.176471%);fill-opacity:1;" d="M 3.53125 8.617188 L 6.511719 11.53125 L 6.417969 7.441406 L 3.527344 7.429688 Z M 3.53125 8.617188 "/>
<path style="fill-rule:evenodd;fill:rgb(94.901961%,94.901961%,94.901961%);fill-opacity:1;stroke-width:5.03546;stroke-linecap:butt;stroke-linejoin:miter;stroke:rgb(68.627451%,68.627451%,68.627451%);stroke-opacity:1;stroke-miterlimit:4;" d="M 97.02846 1029.831488 L 433.942522 1028.645662 L 435.128348 664.806376 L 347.02846 575.590416 L 97.02846 575.590416 Z M 97.02846 1029.831488 " transform="matrix(0.056,0,0,0.056,0,-30.932282)"/>
<path style="fill-rule:evenodd;fill:rgb(68.627451%,68.627451%,68.627451%);fill-opacity:1;stroke-width:5.03546;stroke-linecap:butt;stroke-linejoin:miter;stroke:rgb(68.627451%,68.627451%,68.627451%);stroke-opacity:1;stroke-miterlimit:4;" d="M 431.501116 662.923006 L 349.330357 662.36497 L 350.097656 578.520104 Z M 431.501116 662.923006 " transform="matrix(0.056,0,0,0.056,0,-30.932282)"/>
<path style=" stroke:none;fill-rule:nonzero;fill:rgb(0%,73.333333%,94.901961%);fill-opacity:1;" d="M 3.535156 3.910156 L 18.972656 3.910156 L 18.972656 8.632812 L 3.535156 8.632812 Z M 3.535156 3.910156 "/>
<path style=" stroke:none;fill-rule:nonzero;fill:rgb(0%,73.333333%,94.901961%);fill-opacity:1;" d="M 17.609375 20.679688 C 18.90625 19.238281 19.820312 18.183594 19.796875 18.15625 C 19.773438 18.132812 19.214844 18.109375 18.558594 18.101562 L 17.367188 18.085938 L 17.320312 12.921875 L 13.273438 12.921875 L 13.226562 18.085938 L 12.007812 18.113281 C 11.21875 18.128906 10.789062 18.152344 10.789062 18.1875 C 10.789062 18.285156 15.222656 23.175781 15.300781 23.167969 C 15.34375 23.160156 16.382812 22.039062 17.609375 20.679688 Z M 17.609375 20.679688 "/>
<path style=" stroke:none;fill-rule:nonzero;fill:rgb(0%,73.333333%,94.901961%);fill-opacity:1;" d="M 8.214844 21.402344 L 10.628906 21.402344 L 10.628906 23.816406 L 19.800781 23.816406 L 19.800781 21.402344 L 22.214844 21.402344 L 22.214844 26.230469 L 8.214844 26.230469 Z M 8.214844 21.402344 "/>
<path style="fill:none;stroke-width:9;stroke-linecap:butt;stroke-linejoin:miter;stroke:rgb(100%,100%,100%);stroke-opacity:1;stroke-miterlimit:4;" d="M 133.317453 354.166636 L 133.317453 304.698649 " transform="matrix(0.0488005,0,0,0.0488005,-1.970802,-9.506165)"/>
<path style=" stroke:none;fill-rule:nonzero;fill:rgb(100%,100%,100%);fill-opacity:1;" d="M 4.324219 4.738281 L 4.757812 4.738281 L 4.757812 5.160156 L 4.324219 5.160156 Z M 4.324219 4.738281 "/>
<path style="fill:none;stroke-width:7.842927;stroke-linecap:butt;stroke-linejoin:bevel;stroke:rgb(100%,100%,100%);stroke-opacity:1;stroke-miterlimit:4;" d="M 93.331473 691.034055 L 93.12221 637.881153 L 129.813058 690.33651 L 129.813058 637.183608 " transform="matrix(0.056,0,0,0.056,0,-30.932282)"/>
<path style="fill:none;stroke-width:8.714363;stroke-linecap:butt;stroke-linejoin:miter;stroke:rgb(100%,100%,100%);stroke-opacity:1;stroke-miterlimit:4;" d="M 171.805246 645.554144 C 171.805246 645.554144 163.713728 641.857157 156.040737 641.717648 C 148.4375 641.647894 143.624442 646.321443 143.345424 652.948117 C 143.136161 659.505037 146.833147 664.806376 160.016741 666.410729 C 173.200335 667.945327 172.433036 679.454814 170.828683 683.500573 C 169.154576 687.546331 161.481585 691.382827 153.669085 690.33651 C 145.856585 689.290193 139.299665 685.80247 139.299665 685.80247 " transform="matrix(0.056,0,0,0.056,0,-30.932282)"/>
<path style="fill:none;stroke-width:9;stroke-linecap:butt;stroke-linejoin:miter;stroke:rgb(100%,100%,100%);stroke-opacity:1;stroke-miterlimit:4;" d="M 122.783822 699.599766 L 122.783822 642.367386 " transform="matrix(0.0488005,0,0,0.0488005,5.226838,-26.304881)"/>
<path style="fill:none;stroke-width:8.670217;stroke-linecap:butt;stroke-linejoin:miter;stroke:rgb(100%,100%,100%);stroke-opacity:1;stroke-miterlimit:4;" d="M 96.208787 642.767613 L 149.358857 642.767613 " transform="matrix(0.0488005,0,0,0.0488005,5.226838,-26.304881)"/>
<path style="fill:none;stroke-width:9;stroke-linecap:butt;stroke-linejoin:bevel;stroke:rgb(100%,100%,100%);stroke-opacity:1;stroke-miterlimit:4;" d="M 915.732051 696.244253 L 937.827951 637.984202 L 960.559703 696.244253 " transform="matrix(0.0491466,0,0,0.0491466,-32.80977,-26.444574)"/>
<path style="fill:none;stroke-width:9;stroke-linecap:butt;stroke-linejoin:miter;stroke:rgb(100%,100%,100%);stroke-opacity:1;stroke-miterlimit:4;" d="M 924.554515 676.771248 L 950.386052 676.771248 " transform="matrix(0.0491466,0,0,0.0491466,-32.80977,-26.444574)"/>
<path style="fill:none;stroke-width:7.842927;stroke-linecap:butt;stroke-linejoin:miter;stroke:rgb(100%,100%,100%);stroke-opacity:1;stroke-miterlimit:4;" d="M 267.578125 639.834278 L 267.787388 687.267314 L 295.479911 687.546331 " transform="matrix(0.056,0,0,0.056,0,-30.932282)"/>
<path style="fill:none;stroke-width:7.842927;stroke-linecap:butt;stroke-linejoin:miter;stroke:rgb(100%,100%,100%);stroke-opacity:1;stroke-miterlimit:4;" d="M 302.594866 640.81084 L 302.873884 688.313631 L 330.496652 688.592648 " transform="matrix(0.056,0,0,0.056,0,-30.932282)"/>
</g>
</svg>
