<?xml version="1.0" encoding="UTF-8"?>
<svg xmlns="http://www.w3.org/2000/svg" xmlns:xlink="http://www.w3.org/1999/xlink" width="28" height="28" viewBox="0 0 28 28" version="1.1">
<g id="surface1">
<path style=" stroke:none;fill-rule:evenodd;fill:rgb(0%,11.372549%,39.215686%);fill-opacity:1;" d="M 3.53125 8.617188 L 6.511719 11.53125 L 6.417969 7.441406 L 3.527344 7.429688 Z M 3.53125 8.617188 "/>
<path style="fill-rule:evenodd;fill:rgb(94.901961%,94.901961%,94.901961%);fill-opacity:1;stroke-width:5.03546;stroke-linecap:butt;stroke-linejoin:miter;stroke:rgb(68.627451%,68.627451%,68.627451%);stroke-opacity:1;stroke-miterlimit:4;" d="M 97.02846 1029.831488 L 433.942522 1028.645662 L 435.128348 664.806376 L 347.02846 575.590416 L 97.02846 575.590416 Z M 97.02846 1029.831488 " transform="matrix(0.056,0,0,0.056,0,-30.932282)"/>
<path style="fill-rule:evenodd;fill:rgb(68.627451%,68.627451%,68.627451%);fill-opacity:1;stroke-width:5.03546;stroke-linecap:butt;stroke-linejoin:miter;stroke:rgb(68.627451%,68.627451%,68.627451%);stroke-opacity:1;stroke-miterlimit:4;" d="M 431.501116 662.923006 L 349.330357 662.36497 L 350.097656 578.520104 Z M 431.501116 662.923006 " transform="matrix(0.056,0,0,0.056,0,-30.932282)"/>
<path style=" stroke:none;fill-rule:nonzero;fill:rgb(0%,30.196078%,54.509804%);fill-opacity:1;" d="M 3.535156 3.910156 L 14.910156 3.910156 L 14.910156 8.632812 L 3.535156 8.632812 Z M 3.535156 3.910156 "/>
<path style=" stroke:none;fill-rule:nonzero;fill:rgb(0%,30.196078%,54.509804%);fill-opacity:1;" d="M 8.203125 13.503906 L 8.203125 26.59375 L 21.292969 26.59375 L 21.292969 13.503906 Z M 9.183594 14.484375 L 10.164062 14.484375 L 10.164062 15.46875 L 9.183594 15.46875 Z M 19.328125 14.484375 L 20.3125 14.484375 L 20.3125 15.46875 L 19.328125 15.46875 Z M 9.183594 16.941406 L 10.164062 16.941406 L 10.164062 17.921875 L 9.183594 17.921875 Z M 19.328125 16.941406 L 20.3125 16.941406 L 20.3125 17.921875 L 19.328125 17.921875 Z M 9.183594 19.558594 L 10.164062 19.558594 L 10.164062 20.539062 L 9.183594 20.539062 Z M 19.328125 19.558594 L 20.3125 19.558594 L 20.3125 20.539062 L 19.328125 20.539062 Z M 9.183594 22.175781 L 10.164062 22.175781 L 10.164062 23.160156 L 9.183594 23.160156 Z M 19.328125 22.175781 L 20.3125 22.175781 L 20.3125 23.160156 L 19.328125 23.160156 Z M 9.183594 24.628906 L 10.164062 24.628906 L 10.164062 25.613281 L 9.183594 25.613281 Z M 19.328125 24.628906 L 20.3125 24.628906 L 20.3125 25.613281 L 19.328125 25.613281 Z M 19.328125 24.628906 "/>
<path style=" stroke:none;fill-rule:nonzero;fill:rgb(40.784314%,91.764706%,100%);fill-opacity:1;" d="M 11.183594 14.511719 L 18.382812 14.511719 L 18.382812 19.582031 L 11.183594 19.582031 Z M 11.183594 14.511719 "/>
<path style=" stroke:none;fill-rule:nonzero;fill:rgb(40.784314%,91.764706%,100%);fill-opacity:1;" d="M 11.148438 20.539062 L 18.347656 20.539062 L 18.347656 25.613281 L 11.148438 25.613281 Z M 11.148438 20.539062 "/>
<path style=" stroke:none;fill-rule:evenodd;fill:rgb(94.117647%,22.352941%,8.627451%);fill-opacity:0.941176;" d="M 13.851562 25.628906 C 13.851562 25.628906 14.011719 23.910156 15.316406 22.78125 C 16.621094 21.648438 18.367188 22.027344 18.367188 22.027344 L 18.347656 25.644531 Z M 13.851562 25.628906 "/>
<path style=" stroke:none;fill-rule:evenodd;fill:rgb(94.117647%,22.352941%,8.627451%);fill-opacity:0.941176;" d="M 12.828125 14.492188 C 12.828125 14.492188 12.8125 15 13.234375 15.511719 C 13.65625 16.027344 14.117188 16.113281 14.117188 16.113281 L 14.101562 17.25 L 14.609375 17.25 L 14.621094 16.113281 C 14.621094 16.113281 15.019531 16.074219 15.476562 15.597656 C 15.933594 15.121094 15.894531 14.476562 15.894531 14.476562 Z M 12.828125 14.492188 "/>
<path style=" stroke:none;fill-rule:nonzero;fill:rgb(83.137255%,33.333333%,0%);fill-opacity:0.941176;" d="M 14.089844 17.398438 L 14.605469 17.398438 L 14.605469 17.796875 L 14.089844 17.796875 Z M 14.089844 17.398438 "/>
</g>
</svg>
