<?xml version="1.0" encoding="UTF-8"?>
<svg xmlns="http://www.w3.org/2000/svg" xmlns:xlink="http://www.w3.org/1999/xlink" width="28" height="28" viewBox="0 0 28 28" version="1.1">
<g id="surface1">
<path style=" stroke:none;fill-rule:evenodd;fill:rgb(84.705882%,14.901961%,0%);fill-opacity:1;" d="M 3.585938 8.335938 L 6.566406 11.253906 L 6.472656 7.164062 L 3.582031 7.148438 Z M 3.585938 8.335938 "/>
<path style="fill-rule:evenodd;fill:rgb(94.901961%,94.901961%,94.901961%);fill-opacity:1;stroke-width:5.03546;stroke-linecap:butt;stroke-linejoin:miter;stroke:rgb(68.627451%,68.627451%,68.627451%);stroke-opacity:1;stroke-miterlimit:4;" d="M 98.005022 1024.809166 L 434.919085 1023.693095 L 436.104911 659.784055 L 348.074777 570.568095 L 98.005022 570.568095 Z M 98.005022 1024.809166 " transform="matrix(0.056,0,0,0.056,0,-30.932282)"/>
<path style="fill-rule:evenodd;fill:rgb(68.627451%,68.627451%,68.627451%);fill-opacity:1;stroke-width:5.03546;stroke-linecap:butt;stroke-linejoin:miter;stroke:rgb(68.627451%,68.627451%,68.627451%);stroke-opacity:1;stroke-miterlimit:4;" d="M 432.547433 657.970439 L 350.376674 657.342648 L 351.143973 573.567537 Z M 432.547433 657.970439 " transform="matrix(0.056,0,0,0.056,0,-30.932282)"/>
<path style=" stroke:none;fill-rule:nonzero;fill:rgb(94.117647%,22.352941%,8.627451%);fill-opacity:1;" d="M 3.589844 3.628906 L 16.1875 3.628906 L 16.1875 8.351562 L 3.589844 8.351562 Z M 3.589844 3.628906 "/>
<path style=" stroke:none;fill-rule:nonzero;fill:rgb(94.117647%,22.352941%,8.627451%);fill-opacity:1;" d="M 14.894531 12.296875 C 18.757812 12.296875 21.894531 15.429688 21.894531 19.296875 C 21.894531 23.164062 18.757812 26.296875 14.894531 26.296875 C 11.027344 26.296875 7.894531 23.164062 7.894531 19.296875 C 7.894531 15.429688 11.027344 12.296875 14.894531 12.296875 Z M 14.894531 12.296875 "/>
<path style=" stroke:none;fill-rule:nonzero;fill:rgb(100%,100%,100%);fill-opacity:1;" d="M 17.414062 16.148438 L 17.414062 17.417969 C 16.148438 17.4375 15.835938 18.671875 15.835938 18.671875 L 16.789062 18.671875 L 16.789062 19.941406 L 15.3125 19.941406 C 14.421875 22.6875 12.375 22.441406 12.375 22.441406 L 12.375 21.175781 C 12.375 21.175781 13.671875 21.414062 14.335938 18.996094 C 15.164062 15.96875 17.414062 16.148438 17.414062 16.148438 Z M 17.414062 16.148438 "/>
<path style="fill:none;stroke-width:9;stroke-linecap:butt;stroke-linejoin:miter;stroke:rgb(100%,100%,100%);stroke-opacity:1;stroke-miterlimit:4;" d="M 233.369319 692.508948 L 233.787846 640.82089 L 268.246551 640.960399 " transform="matrix(0.056,0,0,0.056,-5.912432,-31.268782)"/>
<path style="fill:none;stroke-width:9;stroke-linecap:butt;stroke-linejoin:miter;stroke:rgb(100%,100%,100%);stroke-opacity:1;stroke-miterlimit:4;" d="M 236.159498 664.537408 L 265.247109 664.746671 " transform="matrix(0.056,0,0,0.056,-5.912432,-31.268782)"/>
<path style="fill:none;stroke-width:9;stroke-linecap:butt;stroke-linejoin:miter;stroke:rgb(100%,100%,100%);stroke-opacity:1;stroke-miterlimit:4;" d="M 176.618304 629.580372 L 176.897321 684.058608 L 208.635603 684.407381 " transform="matrix(0.056,0,0,0.056,0,-30.932282)"/>
<path style="fill:none;stroke-width:9;stroke-linecap:butt;stroke-linejoin:bevel;stroke:rgb(100%,100%,100%);stroke-opacity:1;stroke-miterlimit:4;" d="M 209.263393 630.208162 L 236.118862 686.569769 L 262.137277 630.48718 " transform="matrix(0.056,0,0,0.056,0,-30.932282)"/>
</g>
</svg>
