<?xml version="1.0" encoding="UTF-8"?>
<svg xmlns="http://www.w3.org/2000/svg" xmlns:xlink="http://www.w3.org/1999/xlink" width="28" height="28" viewBox="0 0 28 28" version="1.1">
<g id="surface1">
<path style=" stroke:none;fill-rule:evenodd;fill:rgb(15.686275%,9.019608%,4.313725%);fill-opacity:1;" d="M 3.53125 8.617188 L 6.511719 11.53125 L 6.417969 7.441406 L 3.527344 7.429688 Z M 3.53125 8.617188 "/>
<path style="fill-rule:evenodd;fill:rgb(94.901961%,94.901961%,94.901961%);fill-opacity:1;stroke-width:5.03546;stroke-linecap:butt;stroke-linejoin:miter;stroke:rgb(68.627451%,68.627451%,68.627451%);stroke-opacity:1;stroke-miterlimit:4;" d="M 97.02846 1029.831488 L 433.942522 1028.645662 L 435.128348 664.806376 L 347.02846 575.590416 L 97.02846 575.590416 Z M 97.02846 1029.831488 " transform="matrix(0.056,0,0,0.056,0,-30.932282)"/>
<path style="fill-rule:evenodd;fill:rgb(68.627451%,68.627451%,68.627451%);fill-opacity:1;stroke-width:5.03546;stroke-linecap:butt;stroke-linejoin:miter;stroke:rgb(68.627451%,68.627451%,68.627451%);stroke-opacity:1;stroke-miterlimit:4;" d="M 431.501116 662.923006 L 349.330357 662.36497 L 350.097656 578.520104 Z M 431.501116 662.923006 " transform="matrix(0.056,0,0,0.056,0,-30.932282)"/>
<path style=" stroke:none;fill-rule:nonzero;fill:rgb(31.372549%,17.647059%,8.627451%);fill-opacity:1;" d="M 3.535156 3.910156 L 15.339844 3.910156 L 15.339844 8.632812 L 3.535156 8.632812 Z M 3.535156 3.910156 "/>
<path style=" stroke:none;fill-rule:nonzero;fill:rgb(60%,60%,60%);fill-opacity:1;" d="M 20.78125 13.820312 L 21.160156 13.820312 C 21.355469 13.820312 21.511719 13.960938 21.511719 14.136719 L 21.511719 15.75 C 21.511719 15.929688 21.355469 16.070312 21.160156 16.070312 L 20.78125 16.070312 C 20.589844 16.070312 20.429688 15.929688 20.429688 15.75 L 20.429688 14.136719 C 20.429688 13.960938 20.589844 13.820312 20.78125 13.820312 Z M 20.78125 13.820312 "/>
<path style=" stroke:none;fill-rule:nonzero;fill:rgb(60%,60%,60%);fill-opacity:1;" d="M 20.78125 16.578125 L 21.160156 16.578125 C 21.355469 16.578125 21.511719 16.71875 21.511719 16.894531 L 21.511719 18.511719 C 21.511719 18.6875 21.355469 18.828125 21.160156 18.828125 L 20.78125 18.828125 C 20.589844 18.828125 20.429688 18.6875 20.429688 18.511719 L 20.429688 16.894531 C 20.429688 16.71875 20.589844 16.578125 20.78125 16.578125 Z M 20.78125 16.578125 "/>
<path style=" stroke:none;fill-rule:nonzero;fill:rgb(60%,60%,60%);fill-opacity:1;" d="M 20.78125 19.242188 L 21.160156 19.242188 C 21.355469 19.242188 21.511719 19.382812 21.511719 19.558594 L 21.511719 21.175781 C 21.511719 21.347656 21.355469 21.492188 21.160156 21.492188 L 20.78125 21.492188 C 20.589844 21.492188 20.429688 21.347656 20.429688 21.175781 L 20.429688 19.558594 C 20.429688 19.382812 20.589844 19.242188 20.78125 19.242188 Z M 20.78125 19.242188 "/>
<path style=" stroke:none;fill-rule:nonzero;fill:rgb(60%,60%,60%);fill-opacity:1;" d="M 20.78125 22 L 21.160156 22 C 21.355469 22 21.511719 22.140625 21.511719 22.316406 L 21.511719 23.933594 C 21.511719 24.109375 21.355469 24.25 21.160156 24.25 L 20.78125 24.25 C 20.589844 24.25 20.429688 24.109375 20.429688 23.933594 L 20.429688 22.316406 C 20.429688 22.140625 20.589844 22 20.78125 22 Z M 20.78125 22 "/>
<path style=" stroke:none;fill-rule:nonzero;fill:rgb(31.372549%,17.647059%,8.627451%);fill-opacity:1;" d="M 9.957031 12.449219 L 19.851562 12.449219 C 20.394531 12.449219 20.832031 12.945312 20.832031 13.554688 L 20.832031 25.335938 C 20.832031 25.945312 20.394531 26.441406 19.851562 26.441406 L 9.957031 26.441406 C 9.414062 26.441406 8.976562 25.945312 8.976562 25.335938 L 8.976562 13.554688 C 8.976562 12.945312 9.414062 12.449219 9.957031 12.449219 Z M 9.957031 12.449219 "/>
<path style=" stroke:none;fill-rule:nonzero;fill:rgb(40%,40%,40%);fill-opacity:1;" d="M 12.023438 26.441406 L 9.9375 26.445312 C 9.9375 26.445312 9.597656 26.433594 9.296875 26.15625 C 8.992188 25.875 8.972656 25.378906 8.972656 25.378906 L 8.984375 13.527344 C 8.984375 13.527344 8.976562 13.105469 9.253906 12.785156 C 9.53125 12.46875 10.007812 12.445312 10.007812 12.445312 L 12.015625 12.445312 Z M 12.023438 26.441406 "/>
<path style=" stroke:none;fill-rule:nonzero;fill:rgb(22.352941%,25.098039%,31.372549%);fill-opacity:1;" d="M 11.003906 14.027344 C 11.003906 14.347656 10.742188 14.613281 10.417969 14.613281 C 10.09375 14.613281 9.832031 14.347656 9.832031 14.027344 C 9.832031 13.703125 10.09375 13.4375 10.417969 13.4375 C 10.742188 13.4375 11.003906 13.703125 11.003906 14.027344 Z M 11.003906 14.027344 "/>
<path style=" stroke:none;fill-rule:nonzero;fill:rgb(80%,80%,80%);fill-opacity:1;" d="M 8.3125 14.394531 L 10.441406 14.394531 C 10.441406 14.394531 10.753906 14.367188 10.746094 14.058594 C 10.738281 13.75 10.425781 13.710938 10.425781 13.710938 L 8.289062 13.722656 C 8.289062 13.722656 8.011719 13.78125 8.019531 14.070312 C 8.023438 14.359375 8.3125 14.394531 8.3125 14.394531 Z M 8.3125 14.394531 "/>
<path style=" stroke:none;fill-rule:nonzero;fill:rgb(22.352941%,25.098039%,31.372549%);fill-opacity:1;" d="M 11.019531 15.527344 C 11.019531 15.851562 10.757812 16.113281 10.433594 16.113281 C 10.109375 16.113281 9.847656 15.851562 9.847656 15.527344 C 9.847656 15.203125 10.109375 14.941406 10.433594 14.941406 C 10.757812 14.941406 11.019531 15.203125 11.019531 15.527344 Z M 11.019531 15.527344 "/>
<path style=" stroke:none;fill-rule:nonzero;fill:rgb(80%,80%,80%);fill-opacity:1;" d="M 8.328125 15.894531 L 10.453125 15.894531 C 10.453125 15.894531 10.765625 15.867188 10.757812 15.5625 C 10.753906 15.253906 10.4375 15.210938 10.4375 15.210938 L 8.300781 15.226562 C 8.300781 15.226562 8.023438 15.285156 8.03125 15.574219 C 8.039062 15.863281 8.328125 15.894531 8.328125 15.894531 Z M 8.328125 15.894531 "/>
<path style=" stroke:none;fill-rule:nonzero;fill:rgb(22.352941%,25.098039%,31.372549%);fill-opacity:1;" d="M 11.03125 17.019531 C 11.03125 17.34375 10.765625 17.605469 10.445312 17.605469 C 10.121094 17.605469 9.859375 17.34375 9.859375 17.019531 C 9.859375 16.695312 10.121094 16.433594 10.445312 16.433594 C 10.765625 16.433594 11.03125 16.695312 11.03125 17.019531 Z M 11.03125 17.019531 "/>
<path style=" stroke:none;fill-rule:nonzero;fill:rgb(80%,80%,80%);fill-opacity:1;" d="M 8.339844 17.386719 L 10.464844 17.386719 C 10.464844 17.386719 10.777344 17.359375 10.769531 17.050781 C 10.765625 16.742188 10.449219 16.703125 10.449219 16.703125 L 8.3125 16.714844 C 8.3125 16.714844 8.035156 16.773438 8.042969 17.0625 C 8.046875 17.351562 8.339844 17.386719 8.339844 17.386719 Z M 8.339844 17.386719 "/>
<path style=" stroke:none;fill-rule:nonzero;fill:rgb(22.352941%,25.098039%,31.372549%);fill-opacity:1;" d="M 11.042969 18.519531 C 11.042969 18.84375 10.78125 19.105469 10.457031 19.105469 C 10.132812 19.105469 9.871094 18.84375 9.871094 18.519531 C 9.871094 18.195312 10.132812 17.933594 10.457031 17.933594 C 10.78125 17.933594 11.042969 18.195312 11.042969 18.519531 Z M 11.042969 18.519531 "/>
<path style=" stroke:none;fill-rule:nonzero;fill:rgb(80%,80%,80%);fill-opacity:1;" d="M 8.351562 18.886719 L 10.480469 18.886719 C 10.480469 18.886719 10.792969 18.863281 10.785156 18.554688 C 10.777344 18.246094 10.460938 18.207031 10.460938 18.207031 L 8.328125 18.21875 C 8.328125 18.21875 8.050781 18.277344 8.054688 18.566406 C 8.0625 18.855469 8.351562 18.886719 8.351562 18.886719 Z M 8.351562 18.886719 "/>
<path style=" stroke:none;fill-rule:nonzero;fill:rgb(22.352941%,25.098039%,31.372549%);fill-opacity:1;" d="M 11.035156 20.019531 C 11.035156 20.34375 10.773438 20.605469 10.449219 20.605469 C 10.125 20.605469 9.863281 20.34375 9.863281 20.019531 C 9.863281 19.695312 10.125 19.433594 10.449219 19.433594 C 10.773438 19.433594 11.035156 19.695312 11.035156 20.019531 Z M 11.035156 20.019531 "/>
<path style=" stroke:none;fill-rule:nonzero;fill:rgb(80%,80%,80%);fill-opacity:1;" d="M 8.347656 20.386719 L 10.472656 20.386719 C 10.472656 20.386719 10.785156 20.359375 10.777344 20.054688 C 10.769531 19.746094 10.457031 19.707031 10.457031 19.707031 L 8.320312 19.71875 C 8.320312 19.71875 8.042969 19.777344 8.050781 20.066406 C 8.054688 20.355469 8.347656 20.386719 8.347656 20.386719 Z M 8.347656 20.386719 "/>
<path style=" stroke:none;fill-rule:nonzero;fill:rgb(22.352941%,25.098039%,31.372549%);fill-opacity:1;" d="M 11.050781 21.523438 C 11.050781 21.847656 10.789062 22.109375 10.464844 22.109375 C 10.140625 22.109375 9.878906 21.847656 9.878906 21.523438 C 9.878906 21.199219 10.140625 20.9375 10.464844 20.9375 C 10.789062 20.9375 11.050781 21.199219 11.050781 21.523438 Z M 11.050781 21.523438 "/>
<path style=" stroke:none;fill-rule:nonzero;fill:rgb(80%,80%,80%);fill-opacity:1;" d="M 8.359375 21.890625 L 10.484375 21.890625 C 10.484375 21.890625 10.796875 21.863281 10.792969 21.554688 C 10.785156 21.246094 10.46875 21.207031 10.46875 21.207031 L 8.332031 21.222656 C 8.332031 21.222656 8.058594 21.28125 8.0625 21.570312 C 8.070312 21.855469 8.359375 21.890625 8.359375 21.890625 Z M 8.359375 21.890625 "/>
<path style=" stroke:none;fill-rule:nonzero;fill:rgb(22.352941%,25.098039%,31.372549%);fill-opacity:1;" d="M 11.0625 23.015625 C 11.0625 23.335938 10.800781 23.601562 10.476562 23.601562 C 10.152344 23.601562 9.890625 23.335938 9.890625 23.015625 C 9.890625 22.691406 10.152344 22.425781 10.476562 22.425781 C 10.800781 22.425781 11.0625 22.691406 11.0625 23.015625 Z M 11.0625 23.015625 "/>
<path style=" stroke:none;fill-rule:nonzero;fill:rgb(80%,80%,80%);fill-opacity:1;" d="M 8.371094 23.378906 L 10.496094 23.378906 C 10.496094 23.378906 10.808594 23.355469 10.800781 23.046875 C 10.796875 22.738281 10.480469 22.699219 10.480469 22.699219 L 8.34375 22.710938 C 8.34375 22.710938 8.066406 22.769531 8.074219 23.058594 C 8.078125 23.347656 8.371094 23.378906 8.371094 23.378906 Z M 8.371094 23.378906 "/>
<path style=" stroke:none;fill-rule:nonzero;fill:rgb(22.352941%,25.098039%,31.372549%);fill-opacity:1;" d="M 11.074219 24.515625 C 11.074219 24.839844 10.8125 25.101562 10.488281 25.101562 C 10.164062 25.101562 9.902344 24.839844 9.902344 24.515625 C 9.902344 24.191406 10.164062 23.929688 10.488281 23.929688 C 10.8125 23.929688 11.074219 24.191406 11.074219 24.515625 Z M 11.074219 24.515625 "/>
<path style=" stroke:none;fill-rule:nonzero;fill:rgb(80%,80%,80%);fill-opacity:1;" d="M 8.382812 24.882812 L 10.511719 24.882812 C 10.511719 24.882812 10.824219 24.855469 10.816406 24.546875 C 10.808594 24.242188 10.492188 24.199219 10.492188 24.199219 L 8.359375 24.214844 C 8.359375 24.214844 8.082031 24.273438 8.085938 24.5625 C 8.09375 24.847656 8.382812 24.882812 8.382812 24.882812 Z M 8.382812 24.882812 "/>
<path style=" stroke:none;fill-rule:nonzero;fill:rgb(100%,100%,100%);fill-opacity:1;" d="M 13.234375 14.363281 L 19.25 14.363281 C 19.445312 14.363281 19.601562 14.507812 19.601562 14.679688 L 19.601562 16.566406 C 19.601562 16.742188 19.445312 16.882812 19.25 16.882812 L 13.234375 16.882812 C 13.039062 16.882812 12.878906 16.742188 12.878906 16.566406 L 12.878906 14.679688 C 12.878906 14.507812 13.039062 14.363281 13.234375 14.363281 Z M 13.234375 14.363281 "/>
</g>
</svg>
