<?xml version="1.0" encoding="UTF-8"?>
<svg xmlns="http://www.w3.org/2000/svg" xmlns:xlink="http://www.w3.org/1999/xlink" width="28" height="28" viewBox="0 0 28 28" version="1.1">
<g id="surface1">
<path style=" stroke:none;fill-rule:evenodd;fill:rgb(10.588235%,14.901961%,19.215686%);fill-opacity:1;" d="M 3.53125 8.617188 L 6.511719 11.53125 L 6.417969 7.441406 L 3.527344 7.429688 Z M 3.53125 8.617188 "/>
<path style="fill-rule:evenodd;fill:rgb(94.901961%,94.901961%,94.901961%);fill-opacity:1;stroke-width:5.03546;stroke-linecap:butt;stroke-linejoin:miter;stroke:rgb(68.627451%,68.627451%,68.627451%);stroke-opacity:1;stroke-miterlimit:4;" d="M 97.02846 1029.831488 L 433.942522 1028.645662 L 435.128348 664.806376 L 347.02846 575.590416 L 97.02846 575.590416 Z M 97.02846 1029.831488 " transform="matrix(0.056,0,0,0.056,0,-30.932282)"/>
<path style="fill-rule:evenodd;fill:rgb(68.627451%,68.627451%,68.627451%);fill-opacity:1;stroke-width:5.03546;stroke-linecap:butt;stroke-linejoin:miter;stroke:rgb(68.627451%,68.627451%,68.627451%);stroke-opacity:1;stroke-miterlimit:4;" d="M 431.501116 662.923006 L 349.330357 662.36497 L 350.097656 578.520104 Z M 431.501116 662.923006 " transform="matrix(0.056,0,0,0.056,0,-30.932282)"/>
<path style=" stroke:none;fill-rule:nonzero;fill:rgb(22.352941%,25.098039%,31.372549%);fill-opacity:1;" d="M 3.535156 3.910156 L 16.132812 3.910156 L 16.132812 8.632812 L 3.535156 8.632812 Z M 3.535156 3.910156 "/>
<path style="fill-rule:nonzero;fill:rgb(98.039216%,92.54902%,42.745098%);fill-opacity:1;stroke-width:15.218686;stroke-linecap:butt;stroke-linejoin:miter;stroke:rgb(22.352941%,25.098039%,31.372549%);stroke-opacity:1;stroke-miterlimit:4;" d="M 760.653768 336.454968 L 909.659755 336.520348 C 916.17341 336.485458 921.526695 341.279417 921.540489 347.201561 L 921.508443 498.526058 C 921.522237 504.448202 916.214256 509.227556 909.700601 509.262446 L 760.64708 509.248116 C 754.082373 509.235472 748.780139 504.489048 748.766345 498.566904 L 748.747341 347.194872 C 748.733547 341.272728 754.041528 336.493374 760.653768 336.454968 Z M 760.653768 336.454968 " transform="matrix(0.0381614,0.0409841,-0.0409841,0.0381614,0,-30.932282)"/>
<path style=" stroke:none;fill-rule:nonzero;fill:rgb(22.352941%,25.098039%,31.372549%);fill-opacity:1;" d="M 14.363281 17.136719 C 13.894531 17.203125 13.636719 17.707031 13.636719 17.707031 L 13.101562 18.457031 L 12.28125 18.902344 C 12.28125 18.902344 12.078125 18.992188 12.140625 19.175781 C 12.210938 19.359375 12.367188 19.3125 12.367188 19.3125 L 13.320312 18.925781 L 13.824219 18.4375 L 14.273438 19.867188 L 13.398438 20.882812 L 13.398438 22.976562 C 13.398438 22.976562 13.4375 23.21875 13.660156 23.214844 C 13.882812 23.214844 13.960938 23.027344 13.960938 23.027344 L 14.0625 21.195312 L 14.746094 20.640625 L 14.941406 20.640625 L 15.183594 21.378906 L 16.03125 22.988281 C 16.03125 22.988281 16.210938 23.183594 16.421875 23.066406 C 16.632812 22.945312 16.597656 22.726562 16.597656 22.726562 L 15.792969 21.195312 L 15.730469 19.617188 L 15.402344 18.109375 L 15.820312 18.234375 L 16.105469 19.164062 C 16.105469 19.164062 16.199219 19.40625 16.394531 19.347656 C 16.589844 19.285156 16.546875 19.050781 16.546875 19.050781 L 16.246094 17.882812 L 15.152344 17.257812 C 15.152344 17.257812 14.828125 17.074219 14.363281 17.136719 Z M 14.363281 17.136719 "/>
<path style=" stroke:none;fill-rule:nonzero;fill:rgb(22.352941%,25.098039%,31.372549%);fill-opacity:1;" d="M 15.03125 16.300781 C 15.03125 16.660156 14.734375 16.953125 14.367188 16.953125 C 14 16.953125 13.703125 16.660156 13.703125 16.300781 C 13.699219 15.941406 13.996094 15.648438 14.363281 15.648438 C 14.730469 15.644531 15.03125 15.9375 15.03125 16.296875 "/>
</g>
</svg>
