<?xml version="1.0" encoding="UTF-8"?>
<svg xmlns="http://www.w3.org/2000/svg" xmlns:xlink="http://www.w3.org/1999/xlink" width="28" height="28" viewBox="0 0 28 28" version="1.1">
<g id="surface1">
<path style=" stroke:none;fill-rule:evenodd;fill:rgb(66.666667%,26.666667%,0%);fill-opacity:1;" d="M 3.53125 8.617188 L 6.511719 11.53125 L 6.417969 7.441406 L 3.527344 7.429688 Z M 3.53125 8.617188 "/>
<path style="fill-rule:evenodd;fill:rgb(94.901961%,94.901961%,94.901961%);fill-opacity:1;stroke-width:5.03546;stroke-linecap:butt;stroke-linejoin:miter;stroke:rgb(68.627451%,68.627451%,68.627451%);stroke-opacity:1;stroke-miterlimit:4;" d="M 97.02846 1029.831488 L 433.942522 1028.645662 L 435.128348 664.806376 L 347.02846 575.590416 L 97.02846 575.590416 Z M 97.02846 1029.831488 " transform="matrix(0.056,0,0,0.056,0,-30.932282)"/>
<path style="fill-rule:evenodd;fill:rgb(68.627451%,68.627451%,68.627451%);fill-opacity:1;stroke-width:5.03546;stroke-linecap:butt;stroke-linejoin:miter;stroke:rgb(68.627451%,68.627451%,68.627451%);stroke-opacity:1;stroke-miterlimit:4;" d="M 431.501116 662.923006 L 349.330357 662.36497 L 350.097656 578.520104 Z M 431.501116 662.923006 " transform="matrix(0.056,0,0,0.056,0,-30.932282)"/>
<path style=" stroke:none;fill-rule:nonzero;fill:rgb(100%,40%,0%);fill-opacity:1;" d="M 3.535156 3.910156 L 16.132812 3.910156 L 16.132812 8.632812 L 3.535156 8.632812 Z M 3.535156 3.910156 "/>
<path style=" stroke:none;fill-rule:nonzero;fill:rgb(100%,40%,0%);fill-opacity:1;" d="M 8.578125 13.742188 L 20.550781 13.742188 L 20.550781 14.429688 L 8.578125 14.429688 Z M 8.578125 13.742188 "/>
<path style=" stroke:none;fill-rule:nonzero;fill:rgb(100%,40%,0%);fill-opacity:1;" d="M 10.339844 15.183594 L 18.605469 15.183594 L 18.605469 15.871094 L 10.339844 15.871094 Z M 10.339844 15.183594 "/>
<path style=" stroke:none;fill-rule:nonzero;fill:rgb(100%,40%,0%);fill-opacity:1;" d="M 9.066406 18.140625 L 13.113281 18.140625 L 13.113281 18.828125 L 9.066406 18.828125 Z M 9.066406 18.140625 "/>
<path style=" stroke:none;fill-rule:nonzero;fill:rgb(100%,40%,0%);fill-opacity:1;" d="M 7.792969 18.140625 L 8.503906 18.140625 L 8.503906 18.828125 L 7.792969 18.828125 Z M 7.792969 18.140625 "/>
<path style=" stroke:none;fill-rule:nonzero;fill:rgb(100%,40%,0%);fill-opacity:1;" d="M 9.03125 19.300781 L 13.078125 19.300781 L 13.078125 19.988281 L 9.03125 19.988281 Z M 9.03125 19.300781 "/>
<path style=" stroke:none;fill-rule:nonzero;fill:rgb(100%,40%,0%);fill-opacity:1;" d="M 7.757812 19.300781 L 8.46875 19.300781 L 8.46875 19.988281 L 7.757812 19.988281 Z M 7.757812 19.300781 "/>
<path style=" stroke:none;fill-rule:nonzero;fill:rgb(100%,40%,0%);fill-opacity:1;" d="M 9.03125 20.488281 L 13.078125 20.488281 L 13.078125 21.179688 L 9.03125 21.179688 Z M 9.03125 20.488281 "/>
<path style=" stroke:none;fill-rule:nonzero;fill:rgb(100%,40%,0%);fill-opacity:1;" d="M 7.757812 20.488281 L 8.46875 20.488281 L 8.46875 21.179688 L 7.757812 21.179688 Z M 7.757812 20.488281 "/>
<path style=" stroke:none;fill-rule:nonzero;fill:rgb(100%,40%,0%);fill-opacity:1;" d="M 9.03125 21.753906 L 13.078125 21.753906 L 13.078125 22.441406 L 9.03125 22.441406 Z M 9.03125 21.753906 "/>
<path style=" stroke:none;fill-rule:nonzero;fill:rgb(100%,40%,0%);fill-opacity:1;" d="M 7.757812 21.753906 L 8.46875 21.753906 L 8.46875 22.441406 L 7.757812 22.441406 Z M 7.757812 21.753906 "/>
<path style=" stroke:none;fill-rule:nonzero;fill:rgb(100%,100%,100%);fill-opacity:1;" d="M 14.921875 17.539062 L 21.292969 17.539062 L 21.292969 22.832031 L 14.921875 22.832031 Z M 14.921875 17.539062 "/>
<path style=" stroke:none;fill-rule:nonzero;fill:rgb(100%,80%,0%);fill-opacity:1;" d="M 18.339844 22.601562 L 17.835938 22.601562 C 17.765625 22.601562 17.710938 22.539062 17.710938 22.464844 L 17.710938 20.269531 C 17.710938 20.191406 17.765625 20.128906 17.835938 20.128906 L 18.339844 20.128906 C 18.410156 20.128906 18.464844 20.191406 18.464844 20.269531 L 18.464844 22.464844 C 18.464844 22.539062 18.410156 22.601562 18.339844 22.601562 Z M 18.339844 22.601562 "/>
<path style=" stroke:none;fill-rule:nonzero;fill:rgb(94.117647%,22.352941%,8.627451%);fill-opacity:1;" d="M 17.207031 22.601562 L 16.703125 22.601562 C 16.632812 22.601562 16.578125 22.539062 16.578125 22.464844 L 16.578125 20.953125 C 16.578125 20.878906 16.632812 20.816406 16.703125 20.816406 L 17.207031 20.816406 C 17.273438 20.816406 17.332031 20.878906 17.332031 20.953125 L 17.332031 22.464844 C 17.332031 22.539062 17.273438 22.601562 17.207031 22.601562 Z M 17.207031 22.601562 "/>
<path style=" stroke:none;fill-rule:nonzero;fill:rgb(0%,26.666667%,33.333333%);fill-opacity:1;" d="M 16.074219 22.601562 L 15.570312 22.601562 C 15.5 22.601562 15.441406 22.539062 15.441406 22.464844 L 15.441406 21.640625 C 15.441406 21.566406 15.5 21.503906 15.570312 21.503906 L 16.074219 21.503906 C 16.140625 21.503906 16.199219 21.566406 16.199219 21.640625 L 16.199219 22.464844 C 16.199219 22.539062 16.140625 22.601562 16.074219 22.601562 Z M 16.074219 22.601562 "/>
<path style=" stroke:none;fill-rule:nonzero;fill:rgb(27.058824%,81.568627%,24.705882%);fill-opacity:1;" d="M 19.472656 22.601562 L 18.96875 22.601562 C 18.898438 22.601562 18.84375 22.539062 18.84375 22.464844 L 18.84375 20.953125 C 18.84375 20.878906 18.898438 20.816406 18.96875 20.816406 L 19.472656 20.816406 C 19.539062 20.816406 19.597656 20.878906 19.597656 20.953125 L 19.597656 22.464844 C 19.597656 22.539062 19.539062 22.601562 19.472656 22.601562 Z M 19.472656 22.601562 "/>
<path style=" stroke:none;fill-rule:nonzero;fill:rgb(0%,73.333333%,94.901961%);fill-opacity:1;" d="M 20.605469 22.601562 L 20.101562 22.601562 C 20.03125 22.601562 19.976562 22.539062 19.976562 22.464844 L 19.976562 19.441406 C 19.976562 19.367188 20.03125 19.304688 20.101562 19.304688 L 20.605469 19.304688 C 20.671875 19.304688 20.730469 19.367188 20.730469 19.441406 L 20.730469 22.464844 C 20.730469 22.539062 20.671875 22.601562 20.605469 22.601562 Z M 20.605469 22.601562 "/>
<path style=" stroke:none;fill-rule:nonzero;fill:rgb(22.352941%,25.098039%,31.372549%);fill-opacity:1;" d="M 20.980469 22.738281 L 15.191406 22.738281 C 15.121094 22.738281 15.066406 22.675781 15.066406 22.601562 C 15.066406 22.527344 15.121094 22.464844 15.191406 22.464844 L 20.980469 22.464844 C 21.050781 22.464844 21.109375 22.527344 21.109375 22.601562 C 21.109375 22.675781 21.050781 22.738281 20.980469 22.738281 Z M 20.980469 22.738281 "/>
<path style="fill:none;stroke-width:2.504357;stroke-linecap:butt;stroke-linejoin:miter;stroke:rgb(22.352941%,25.098039%,31.372549%);stroke-opacity:1;stroke-miterlimit:4;" d="M 274.69308 931.617202 L 325.195312 902.041309 L 342.773438 919.340416 L 365.094866 870.582046 " transform="matrix(0.056,0,0,0.056,0,-30.932282)"/>
<path style="fill:none;stroke-width:2.504357;stroke-linecap:butt;stroke-linejoin:miter;stroke:rgb(22.352941%,25.098039%,31.372549%);stroke-opacity:1;stroke-miterlimit:4;" d="M 365.93192 869.954256 L 356.933594 874.209278 " transform="matrix(0.056,0,0,0.056,0,-30.932282)"/>
<path style="fill:none;stroke-width:2.504357;stroke-linecap:butt;stroke-linejoin:miter;stroke:rgb(22.352941%,25.098039%,31.372549%);stroke-opacity:1;stroke-miterlimit:4;" d="M 368.373326 879.301354 L 364.327567 869.256711 " transform="matrix(0.056,0,0,0.056,0,-30.932282)"/>
<path style=" stroke:none;fill-rule:nonzero;fill:rgb(100%,40%,0%);fill-opacity:1;" d="M 8.785156 26.386719 L 20.753906 26.386719 L 20.753906 25.699219 L 8.785156 25.699219 Z M 8.785156 26.386719 "/>
<path style=" stroke:none;fill-rule:nonzero;fill:rgb(100%,40%,0%);fill-opacity:1;" d="M 10.542969 24.945312 L 18.808594 24.945312 L 18.808594 24.257812 L 10.542969 24.257812 Z M 10.542969 24.945312 "/>
</g>
</svg>
