<?xml version="1.0" encoding="UTF-8"?>
<svg xmlns="http://www.w3.org/2000/svg" xmlns:xlink="http://www.w3.org/1999/xlink" width="28" height="28" viewBox="0 0 28 28" version="1.1">
<g id="surface1">
<path style=" stroke:none;fill-rule:evenodd;fill:rgb(81.568627%,7.058824%,0%);fill-opacity:1;" d="M 3.53125 8.617188 L 6.511719 11.53125 L 6.417969 7.441406 L 3.527344 7.429688 Z M 3.53125 8.617188 "/>
<path style="fill-rule:evenodd;fill:rgb(94.901961%,94.901961%,94.901961%);fill-opacity:1;stroke-width:5.03546;stroke-linecap:butt;stroke-linejoin:miter;stroke:rgb(68.627451%,68.627451%,68.627451%);stroke-opacity:1;stroke-miterlimit:4;" d="M 97.02846 1029.831488 L 433.942522 1028.645662 L 435.128348 664.806376 L 347.02846 575.590416 L 97.02846 575.590416 Z M 97.02846 1029.831488 " transform="matrix(0.056,0,0,0.056,0,-30.932282)"/>
<path style="fill-rule:evenodd;fill:rgb(68.627451%,68.627451%,68.627451%);fill-opacity:1;stroke-width:5.03546;stroke-linecap:butt;stroke-linejoin:miter;stroke:rgb(68.627451%,68.627451%,68.627451%);stroke-opacity:1;stroke-miterlimit:4;" d="M 431.501116 662.923006 L 349.330357 662.36497 L 350.097656 578.520104 Z M 431.501116 662.923006 " transform="matrix(0.056,0,0,0.056,0,-30.932282)"/>
<path style=" stroke:none;fill-rule:nonzero;fill:rgb(94.117647%,22.352941%,8.627451%);fill-opacity:1;" d="M 3.535156 3.910156 L 16.132812 3.910156 L 16.132812 8.632812 L 3.535156 8.632812 Z M 3.535156 3.910156 "/>
<path style=" stroke:none;fill-rule:nonzero;fill:rgb(80%,80%,80%);fill-opacity:1;" d="M 8.253906 15.285156 L 8.253906 23.714844 C 8.253906 25.253906 9.488281 26.492188 11.027344 26.492188 L 18.480469 26.492188 L 22.207031 22.738281 L 22.207031 15.285156 Z M 8.253906 15.285156 "/>
<path style=" stroke:none;fill-rule:nonzero;fill:rgb(90.196078%,90.196078%,90.196078%);fill-opacity:1;" d="M 11.027344 12.503906 C 10.992188 12.503906 10.960938 12.503906 10.925781 12.503906 C 10.960938 12.503906 10.992188 12.503906 11.027344 12.503906 Z M 19.433594 12.503906 C 19.464844 12.503906 19.5 12.503906 19.53125 12.503906 C 19.5 12.503906 19.464844 12.503906 19.433594 12.503906 Z M 8.253906 20.394531 L 8.253906 24.945312 C 8.253906 25.847656 9.070312 26.492188 9.820312 26.492188 L 18.480469 26.492188 L 22.207031 22.738281 L 22.207031 20.394531 Z M 8.253906 20.394531 "/>
<path style=" stroke:none;fill-rule:nonzero;fill:rgb(22.352941%,25.098039%,31.372549%);fill-opacity:1;" d="M 14.902344 23.945312 L 15.640625 23.945312 L 15.652344 17.796875 L 14.304688 18.628906 L 14.304688 19.5 L 14.886719 19.152344 Z M 14.902344 23.945312 "/>
<path style=" stroke:none;fill-rule:nonzero;fill:rgb(50.196078%,50.196078%,50.196078%);fill-opacity:1;" d="M 19.371094 22.691406 C 18.992188 22.691406 18.460938 23.222656 18.460938 23.597656 L 18.460938 26.503906 L 18.472656 26.503906 L 22.253906 22.691406 Z M 19.371094 22.691406 "/>
<path style=" stroke:none;fill-rule:nonzero;fill:rgb(94.117647%,22.352941%,8.627451%);fill-opacity:1;" d="M 9.835938 12.503906 C 8.300781 12.503906 8.253906 12.496094 8.253906 15.285156 L 22.207031 15.28125 C 22.203125 12.535156 22.230469 12.503906 20.695312 12.503906 Z M 10.609375 13.453125 C 10.851562 13.453125 11.050781 13.648438 11.050781 13.890625 C 11.050781 14.136719 10.851562 14.332031 10.609375 14.332031 C 10.367188 14.332031 10.171875 14.136719 10.171875 13.890625 C 10.171875 13.648438 10.367188 13.453125 10.609375 13.453125 Z M 19.917969 13.457031 C 20.148438 13.457031 20.335938 13.644531 20.335938 13.875 C 20.335938 14.109375 20.148438 14.296875 19.917969 14.296875 C 19.6875 14.296875 19.496094 14.109375 19.496094 13.875 C 19.496094 13.644531 19.6875 13.457031 19.917969 13.457031 Z M 19.917969 13.457031 "/>
</g>
</svg>
