<?xml version="1.0" encoding="UTF-8"?>
<svg xmlns="http://www.w3.org/2000/svg" xmlns:xlink="http://www.w3.org/1999/xlink" width="28" height="28" viewBox="0 0 28 28" version="1.1">
<g id="surface1">
<path style=" stroke:none;fill-rule:evenodd;fill:rgb(8.627451%,31.372549%,8.627451%);fill-opacity:1;" d="M 3.53125 8.617188 L 6.511719 11.53125 L 6.417969 7.441406 L 3.527344 7.429688 Z M 3.53125 8.617188 "/>
<path style="fill-rule:evenodd;fill:rgb(94.901961%,94.901961%,94.901961%);fill-opacity:1;stroke-width:5.03546;stroke-linecap:butt;stroke-linejoin:miter;stroke:rgb(68.627451%,68.627451%,68.627451%);stroke-opacity:1;stroke-miterlimit:4;" d="M 97.02846 1029.831488 L 433.942522 1028.645662 L 435.128348 664.806376 L 347.02846 575.590416 L 97.02846 575.590416 Z M 97.02846 1029.831488 " transform="matrix(0.056,0,0,0.056,0,-30.932282)"/>
<path style="fill-rule:evenodd;fill:rgb(68.627451%,68.627451%,68.627451%);fill-opacity:1;stroke-width:5.03546;stroke-linecap:butt;stroke-linejoin:miter;stroke:rgb(68.627451%,68.627451%,68.627451%);stroke-opacity:1;stroke-miterlimit:4;" d="M 431.501116 662.923006 L 349.330357 662.36497 L 350.097656 578.520104 Z M 431.501116 662.923006 " transform="matrix(0.056,0,0,0.056,0,-30.932282)"/>
<path style=" stroke:none;fill-rule:nonzero;fill:rgb(17.254902%,62.745098%,17.254902%);fill-opacity:1;" d="M 3.535156 3.910156 L 16.132812 3.910156 L 16.132812 8.632812 L 3.535156 8.632812 Z M 3.535156 3.910156 "/>
<path style=" stroke:none;fill-rule:nonzero;fill:rgb(17.254902%,62.745098%,17.254902%);fill-opacity:1;" d="M 8.007812 13.902344 L 22.402344 13.902344 L 22.402344 25.417969 L 8.007812 25.417969 Z M 8.007812 13.902344 "/>
<path style=" stroke:none;fill-rule:nonzero;fill:rgb(55.294118%,82.745098%,37.254902%);fill-opacity:1;" d="M 8.40625 14.230469 L 11.425781 14.230469 L 11.425781 15.628906 L 8.40625 15.628906 Z M 8.40625 14.230469 "/>
<path style=" stroke:none;fill-rule:nonzero;fill:rgb(55.294118%,82.745098%,37.254902%);fill-opacity:1;" d="M 11.890625 14.230469 L 14.914062 14.230469 L 14.914062 15.628906 L 11.890625 15.628906 Z M 11.890625 14.230469 "/>
<path style=" stroke:none;fill-rule:nonzero;fill:rgb(55.294118%,82.745098%,37.254902%);fill-opacity:1;" d="M 15.378906 14.230469 L 18.398438 14.230469 L 18.398438 15.628906 L 15.378906 15.628906 Z M 15.378906 14.230469 "/>
<path style=" stroke:none;fill-rule:nonzero;fill:rgb(55.294118%,82.745098%,37.254902%);fill-opacity:1;" d="M 18.863281 14.230469 L 21.882812 14.230469 L 21.882812 15.628906 L 18.863281 15.628906 Z M 18.863281 14.230469 "/>
<path style=" stroke:none;fill-rule:nonzero;fill:rgb(66.666667%,87.058824%,52.941176%);fill-opacity:1;" d="M 8.40625 16.09375 L 11.425781 16.09375 L 11.425781 17.492188 L 8.40625 17.492188 Z M 8.40625 16.09375 "/>
<path style=" stroke:none;fill-rule:nonzero;fill:rgb(66.666667%,87.058824%,52.941176%);fill-opacity:1;" d="M 11.890625 16.09375 L 14.914062 16.09375 L 14.914062 17.492188 L 11.890625 17.492188 Z M 11.890625 16.09375 "/>
<path style=" stroke:none;fill-rule:nonzero;fill:rgb(66.666667%,87.058824%,52.941176%);fill-opacity:1;" d="M 15.378906 16.09375 L 18.398438 16.09375 L 18.398438 17.492188 L 15.378906 17.492188 Z M 15.378906 16.09375 "/>
<path style=" stroke:none;fill-rule:nonzero;fill:rgb(66.666667%,87.058824%,52.941176%);fill-opacity:1;" d="M 18.863281 16.09375 L 21.882812 16.09375 L 21.882812 17.492188 L 18.863281 17.492188 Z M 18.863281 16.09375 "/>
<path style=" stroke:none;fill-rule:nonzero;fill:rgb(66.666667%,87.058824%,52.941176%);fill-opacity:1;" d="M 8.40625 17.945312 L 11.425781 17.945312 L 11.425781 19.34375 L 8.40625 19.34375 Z M 8.40625 17.945312 "/>
<path style=" stroke:none;fill-rule:nonzero;fill:rgb(66.666667%,87.058824%,52.941176%);fill-opacity:1;" d="M 11.890625 17.945312 L 14.914062 17.945312 L 14.914062 19.34375 L 11.890625 19.34375 Z M 11.890625 17.945312 "/>
<path style=" stroke:none;fill-rule:nonzero;fill:rgb(66.666667%,87.058824%,52.941176%);fill-opacity:1;" d="M 15.378906 17.945312 L 18.398438 17.945312 L 18.398438 19.34375 L 15.378906 19.34375 Z M 15.378906 17.945312 "/>
<path style=" stroke:none;fill-rule:nonzero;fill:rgb(66.666667%,87.058824%,52.941176%);fill-opacity:1;" d="M 18.863281 17.945312 L 21.882812 17.945312 L 21.882812 19.34375 L 18.863281 19.34375 Z M 18.863281 17.945312 "/>
<path style=" stroke:none;fill-rule:nonzero;fill:rgb(66.666667%,87.058824%,52.941176%);fill-opacity:1;" d="M 8.40625 19.8125 L 11.425781 19.8125 L 11.425781 21.210938 L 8.40625 21.210938 Z M 8.40625 19.8125 "/>
<path style=" stroke:none;fill-rule:nonzero;fill:rgb(66.666667%,87.058824%,52.941176%);fill-opacity:1;" d="M 11.890625 19.8125 L 14.914062 19.8125 L 14.914062 21.210938 L 11.890625 21.210938 Z M 11.890625 19.8125 "/>
<path style=" stroke:none;fill-rule:nonzero;fill:rgb(66.666667%,87.058824%,52.941176%);fill-opacity:1;" d="M 15.378906 19.8125 L 18.398438 19.8125 L 18.398438 21.210938 L 15.378906 21.210938 Z M 15.378906 19.8125 "/>
<path style=" stroke:none;fill-rule:nonzero;fill:rgb(66.666667%,87.058824%,52.941176%);fill-opacity:1;" d="M 18.863281 19.8125 L 21.882812 19.8125 L 21.882812 21.210938 L 18.863281 21.210938 Z M 18.863281 19.8125 "/>
<path style=" stroke:none;fill-rule:nonzero;fill:rgb(66.666667%,87.058824%,52.941176%);fill-opacity:1;" d="M 8.4375 21.691406 L 11.457031 21.691406 L 11.457031 23.089844 L 8.4375 23.089844 Z M 8.4375 21.691406 "/>
<path style=" stroke:none;fill-rule:nonzero;fill:rgb(66.666667%,87.058824%,52.941176%);fill-opacity:1;" d="M 11.921875 21.691406 L 14.941406 21.691406 L 14.941406 23.089844 L 11.921875 23.089844 Z M 11.921875 21.691406 "/>
<path style=" stroke:none;fill-rule:nonzero;fill:rgb(66.666667%,87.058824%,52.941176%);fill-opacity:1;" d="M 15.40625 21.691406 L 18.429688 21.691406 L 18.429688 23.089844 L 15.40625 23.089844 Z M 15.40625 21.691406 "/>
<path style=" stroke:none;fill-rule:nonzero;fill:rgb(66.666667%,87.058824%,52.941176%);fill-opacity:1;" d="M 18.894531 21.691406 L 21.914062 21.691406 L 21.914062 23.089844 L 18.894531 23.089844 Z M 18.894531 21.691406 "/>
<path style=" stroke:none;fill-rule:nonzero;fill:rgb(66.666667%,87.058824%,52.941176%);fill-opacity:1;" d="M 8.4375 23.554688 L 11.457031 23.554688 L 11.457031 24.953125 L 8.4375 24.953125 Z M 8.4375 23.554688 "/>
<path style=" stroke:none;fill-rule:nonzero;fill:rgb(66.666667%,87.058824%,52.941176%);fill-opacity:1;" d="M 11.921875 23.554688 L 14.941406 23.554688 L 14.941406 24.953125 L 11.921875 24.953125 Z M 11.921875 23.554688 "/>
<path style=" stroke:none;fill-rule:nonzero;fill:rgb(66.666667%,87.058824%,52.941176%);fill-opacity:1;" d="M 15.40625 23.554688 L 18.429688 23.554688 L 18.429688 24.953125 L 15.40625 24.953125 Z M 15.40625 23.554688 "/>
<path style=" stroke:none;fill-rule:nonzero;fill:rgb(66.666667%,87.058824%,52.941176%);fill-opacity:1;" d="M 18.894531 23.554688 L 21.914062 23.554688 L 21.914062 24.953125 L 18.894531 24.953125 Z M 18.894531 23.554688 "/>
<path style=" stroke:none;fill-rule:nonzero;fill:rgb(22.352941%,25.098039%,31.372549%);fill-opacity:1;" d="M 23.40625 21.15625 L 23.40625 25.992188 C 23.40625 26.253906 23.105469 26.46875 22.730469 26.46875 L 15.527344 26.46875 C 15.152344 26.46875 14.847656 26.253906 14.847656 25.992188 L 14.847656 21.15625 C 14.847656 20.890625 15.152344 20.675781 15.527344 20.675781 L 22.730469 20.675781 C 23.105469 20.675781 23.40625 20.890625 23.40625 21.15625 Z M 23.40625 21.15625 "/>
<path style=" stroke:none;fill-rule:nonzero;fill:rgb(100%,100%,100%);fill-opacity:1;" d="M 23.097656 20.953125 C 23.035156 20.914062 22.953125 20.921875 22.953125 20.921875 L 15.304688 20.921875 C 15.304688 20.921875 15.222656 20.917969 15.183594 20.949219 C 15.140625 20.980469 15.132812 21.054688 15.132812 21.054688 L 15.136719 26.085938 C 15.136719 26.085938 15.128906 26.171875 15.171875 26.207031 C 15.210938 26.246094 15.304688 26.242188 15.304688 26.242188 L 22.726562 26.242188 C 22.726562 26.242188 22.929688 26.261719 23.050781 26.164062 C 23.167969 26.066406 23.136719 25.894531 23.136719 25.894531 L 23.152344 21.066406 C 23.152344 21.066406 23.164062 20.996094 23.097656 20.953125 Z M 23.097656 20.953125 "/>
<path style=" stroke:none;fill-rule:nonzero;fill:rgb(100%,80%,0%);fill-opacity:1;" d="M 19.433594 25.332031 L 18.796875 25.332031 C 18.710938 25.332031 18.640625 25.257812 18.640625 25.171875 L 18.640625 22.625 C 18.640625 22.539062 18.710938 22.46875 18.796875 22.46875 L 19.433594 22.46875 C 19.523438 22.46875 19.59375 22.539062 19.59375 22.625 L 19.59375 25.171875 C 19.59375 25.257812 19.523438 25.332031 19.433594 25.332031 Z M 19.433594 25.332031 "/>
<path style=" stroke:none;fill-rule:nonzero;fill:rgb(94.117647%,22.352941%,8.627451%);fill-opacity:1;" d="M 18.003906 25.332031 L 17.367188 25.332031 C 17.277344 25.332031 17.207031 25.257812 17.207031 25.171875 L 17.207031 23.421875 C 17.207031 23.332031 17.277344 23.261719 17.367188 23.261719 L 18.003906 23.261719 C 18.089844 23.261719 18.164062 23.332031 18.164062 23.421875 L 18.164062 25.171875 C 18.164062 25.257812 18.089844 25.332031 18.003906 25.332031 Z M 18.003906 25.332031 "/>
<path style=" stroke:none;fill-rule:nonzero;fill:rgb(0%,26.666667%,33.333333%);fill-opacity:1;" d="M 16.570312 25.332031 L 15.933594 25.332031 C 15.847656 25.332031 15.777344 25.257812 15.777344 25.171875 L 15.777344 24.21875 C 15.777344 24.128906 15.847656 24.058594 15.933594 24.058594 L 16.570312 24.058594 C 16.660156 24.058594 16.730469 24.128906 16.730469 24.21875 L 16.730469 25.171875 C 16.730469 25.257812 16.660156 25.332031 16.570312 25.332031 Z M 16.570312 25.332031 "/>
<path style=" stroke:none;fill-rule:nonzero;fill:rgb(27.058824%,81.568627%,24.705882%);fill-opacity:1;" d="M 20.867188 25.332031 L 20.230469 25.332031 C 20.140625 25.332031 20.070312 25.257812 20.070312 25.171875 L 20.070312 23.421875 C 20.070312 23.332031 20.140625 23.261719 20.230469 23.261719 L 20.867188 23.261719 C 20.953125 23.261719 21.023438 23.332031 21.023438 23.421875 L 21.023438 25.171875 C 21.023438 25.257812 20.953125 25.332031 20.867188 25.332031 Z M 20.867188 25.332031 "/>
<path style=" stroke:none;fill-rule:nonzero;fill:rgb(0%,73.333333%,94.901961%);fill-opacity:1;" d="M 22.296875 25.332031 L 21.660156 25.332031 C 21.574219 25.332031 21.503906 25.257812 21.503906 25.171875 L 21.503906 21.671875 C 21.503906 21.585938 21.574219 21.511719 21.660156 21.511719 L 22.296875 21.511719 C 22.386719 21.511719 22.457031 21.585938 22.457031 21.671875 L 22.457031 25.171875 C 22.457031 25.257812 22.386719 25.332031 22.296875 25.332031 Z M 22.296875 25.332031 "/>
<path style=" stroke:none;fill-rule:nonzero;fill:rgb(22.352941%,25.098039%,31.372549%);fill-opacity:1;" d="M 22.773438 25.488281 L 15.457031 25.488281 C 15.371094 25.488281 15.296875 25.417969 15.296875 25.332031 C 15.296875 25.242188 15.371094 25.171875 15.457031 25.171875 L 22.773438 25.171875 C 22.863281 25.171875 22.933594 25.242188 22.933594 25.332031 C 22.933594 25.417969 22.863281 25.488281 22.773438 25.488281 Z M 22.773438 25.488281 "/>
</g>
</svg>
