<?xml version="1.0" encoding="UTF-8"?>
<svg xmlns="http://www.w3.org/2000/svg" xmlns:xlink="http://www.w3.org/1999/xlink" width="96" height="96" viewBox="0 0 96 96" version="1.1">
<g id="surface1">
<path style=" stroke:none;fill-rule:nonzero;fill:rgb(100%,100%,100%);fill-opacity:1;" d="M 61.8125 4 C 59.019531 4.011719 56.847656 4.015625 56 4.0625 C 52.609375 4.261719 50.921875 6.378906 50.25 9.5 C 50.164062 11.070312 50.25 37 50.25 37 C 50.25 40.195312 52.804688 42.8125 56 42.8125 L 86.1875 42.8125 C 89.382812 42.8125 91.9375 40.195312 91.9375 37 C 91.9375 33.804688 92.324219 9.921875 91.5 7.75 C 90.671875 5.582031 88.660156 4.0625 86.1875 4.0625 C 84.332031 4.0625 70.1875 3.972656 61.8125 4 Z M 58.0625 8.5625 L 84.0625 8.5625 C 85.917969 8.5625 87.4375 10.019531 87.4375 11.875 L 87.4375 35 C 87.4375 36.855469 85.917969 38.3125 84.0625 38.3125 L 58.0625 38.3125 C 56.207031 38.3125 54.6875 36.855469 54.6875 35 L 54.6875 11.875 C 54.6875 10.019531 56.207031 8.5625 58.0625 8.5625 Z M 83.0625 45.875 C 82.136719 45.910156 81.214844 46.402344 80.6875 47.25 C 79.84375 48.605469 80.269531 50.40625 81.625 51.25 C 82.980469 52.09375 84.78125 51.667969 85.625 50.3125 C 86.46875 48.957031 86.042969 47.152344 84.6875 46.3125 C 84.179688 45.996094 83.617188 45.851562 83.0625 45.875 Z M 15.5625 53.1875 C 12.769531 53.195312 10.65625 53.199219 9.8125 53.25 C 6.425781 53.449219 4.671875 55.5625 4 58.6875 C 3.914062 60.257812 4 86.1875 4 86.1875 C 4 89.382812 6.617188 92 9.8125 92 L 39.9375 92 C 41.679688 92 43.199219 91.222656 44.25 90 C 45.890625 89.371094 47.3125 88.148438 48.125 86.4375 C 49.625 83.28125 48.535156 79.617188 45.75 77.6875 C 45.835938 69.433594 45.90625 58.492188 45.3125 56.9375 C 44.488281 54.765625 42.410156 53.25 39.9375 53.25 C 38.082031 53.25 23.9375 53.160156 15.5625 53.1875 Z M 11.8125 57.75 L 37.8125 57.75 C 39.667969 57.75 41.1875 59.207031 41.1875 61.0625 L 41.1875 84.1875 C 41.1875 86.042969 39.667969 87.5 37.8125 87.5 L 11.8125 87.5 C 9.957031 87.5 8.4375 86.042969 8.4375 84.1875 L 8.4375 61.0625 C 8.4375 59.207031 9.957031 57.75 11.8125 57.75 Z M 77.25 63.75 C 75.664062 63.683594 74.097656 64.539062 73.375 66.0625 C 72.410156 68.09375 73.28125 70.535156 75.3125 71.5 C 77.339844 72.460938 79.785156 71.59375 80.75 69.5625 C 81.714844 67.53125 80.84375 65.089844 78.8125 64.125 C 78.304688 63.882812 77.777344 63.773438 77.25 63.75 Z M 61.125 75.0625 C 59.195312 75.257812 57.390625 76.4375 56.5 78.3125 C 55.140625 81.171875 56.324219 84.640625 59.1875 86 C 62.046875 87.359375 65.515625 86.113281 66.875 83.25 C 68.234375 80.386719 66.988281 76.984375 64.125 75.625 C 63.410156 75.285156 62.679688 75.09375 61.9375 75.0625 C 61.65625 75.050781 61.398438 75.035156 61.125 75.0625 Z M 61.125 75.0625 "/>
</g>
</svg>
