<?xml version="1.0" encoding="UTF-8"?>
<svg xmlns="http://www.w3.org/2000/svg" xmlns:xlink="http://www.w3.org/1999/xlink" width="96" height="96" viewBox="0 0 96 96" version="1.1">
<g id="surface1">
<path style=" stroke:none;fill-rule:nonzero;fill:rgb(100%,100%,100%);fill-opacity:1;" d="M 61.8125 4 C 59.019531 4.011719 56.847656 4.015625 56 4.0625 C 52.609375 4.261719 50.921875 6.378906 50.25 9.5 C 50.164062 11.070312 50.25 37 50.25 37 C 50.25 40.195312 52.804688 42.8125 56 42.8125 L 86.1875 42.8125 C 89.382812 42.8125 91.9375 40.195312 91.9375 37 C 91.9375 33.804688 92.324219 9.921875 91.5 7.75 C 90.671875 5.582031 88.660156 4.0625 86.1875 4.0625 C 84.332031 4.0625 70.1875 3.972656 61.8125 4 Z M 58.0625 8.5625 L 84.0625 8.5625 C 85.917969 8.5625 87.4375 10.019531 87.4375 11.875 L 87.4375 35 C 87.4375 36.855469 85.917969 38.3125 84.0625 38.3125 L 58.0625 38.3125 C 56.207031 38.3125 54.6875 36.855469 54.6875 35 L 54.6875 11.875 C 54.6875 10.019531 56.207031 8.5625 58.0625 8.5625 Z M 83 44.125 C 81.898438 44.21875 80.796875 44.628906 79.875 45.375 C 77.414062 47.367188 77.066406 50.976562 79.0625 53.4375 C 81.054688 55.898438 84.660156 56.304688 87.125 54.3125 C 89.585938 52.316406 89.929688 48.710938 87.9375 46.25 C 86.691406 44.710938 84.835938 43.964844 83 44.125 Z M 15.5625 53.1875 C 12.769531 53.195312 10.65625 53.199219 9.8125 53.25 C 6.425781 53.449219 4.671875 55.5625 4 58.6875 C 3.914062 60.257812 4 86.1875 4 86.1875 C 4 89.382812 6.617188 92 9.8125 92 L 39.9375 92 C 43.132812 92 45.6875 89.382812 45.6875 86.1875 C 45.6875 82.992188 46.140625 59.105469 45.3125 56.9375 C 44.488281 54.765625 42.410156 53.25 39.9375 53.25 C 38.082031 53.25 23.9375 53.160156 15.5625 53.1875 Z M 11.8125 57.75 L 37.8125 57.75 C 39.667969 57.75 41.1875 59.207031 41.1875 61.0625 L 41.1875 84.1875 C 41.1875 86.042969 39.667969 87.5 37.8125 87.5 L 11.8125 87.5 C 9.957031 87.5 8.4375 86.042969 8.4375 84.1875 L 8.4375 61.0625 C 8.4375 59.207031 9.957031 57.75 11.8125 57.75 Z M 76.625 61.9375 C 75.273438 62.054688 73.945312 62.582031 72.8125 63.5 C 69.789062 65.945312 69.367188 70.351562 71.8125 73.375 C 74.257812 76.398438 78.664062 76.882812 81.6875 74.4375 C 84.710938 71.992188 85.199219 67.523438 82.75 64.5 C 81.21875 62.609375 78.875 61.742188 76.625 61.9375 Z M 12.9375 62.1875 L 12.9375 83.0625 L 36.75 83.0625 L 36.75 62.1875 Z M 60.9375 73.0625 C 59.300781 73.203125 57.746094 73.824219 56.375 74.9375 C 52.71875 77.898438 52.101562 83.28125 55.0625 86.9375 C 58.023438 90.597656 63.40625 91.148438 67.0625 88.1875 C 70.722656 85.222656 71.273438 79.84375 68.3125 76.1875 C 66.460938 73.902344 63.664062 72.824219 60.9375 73.0625 Z M 60.9375 73.0625 "/>
</g>
</svg>
