<?xml version="1.0" encoding="UTF-8"?>
<svg xmlns="http://www.w3.org/2000/svg" xmlns:xlink="http://www.w3.org/1999/xlink" width="96" height="96" viewBox="0 0 96 96" version="1.1">
<g id="surface1">
<path style=" stroke:none;fill-rule:nonzero;fill:rgb(100%,100%,100%);fill-opacity:1;" d="M 61.8125 4 C 59.019531 4.011719 56.847656 4.015625 56 4.0625 C 52.609375 4.261719 50.921875 6.378906 50.25 9.5 C 50.164062 11.070312 50.25 37 50.25 37 C 50.25 40.195312 52.804688 42.8125 56 42.8125 L 86.1875 42.8125 C 89.382812 42.8125 91.9375 40.195312 91.9375 37 C 91.9375 33.804688 92.324219 9.921875 91.5 7.75 C 90.671875 5.582031 88.660156 4.0625 86.1875 4.0625 C 84.332031 4.0625 70.1875 3.972656 61.8125 4 Z M 58.0625 8.5625 L 84.0625 8.5625 C 85.917969 8.5625 87.4375 10.019531 87.4375 11.875 L 87.4375 35 C 87.4375 36.855469 85.917969 38.3125 84.0625 38.3125 L 58.0625 38.3125 C 56.207031 38.3125 54.6875 36.855469 54.6875 35 L 54.6875 11.875 C 54.6875 10.019531 56.207031 8.5625 58.0625 8.5625 Z M 24.5 11.75 C 21.765625 11.796875 19.109375 13.160156 17.5 15.625 C 14.929688 19.570312 16.054688 24.867188 20 27.4375 C 23.945312 30.007812 29.179688 28.882812 31.75 24.9375 C 34.320312 20.992188 33.257812 15.695312 29.3125 13.125 C 27.832031 12.160156 26.140625 11.722656 24.5 11.75 Z M 13.625 30 C 11.363281 30.039062 9.140625 31.210938 7.8125 33.25 C 5.6875 36.507812 6.617188 40.8125 9.875 42.9375 C 13.132812 45.0625 17.5 44.195312 19.625 40.9375 C 21.746094 37.679688 20.820312 33.3125 17.5625 31.1875 C 16.34375 30.390625 14.984375 29.976562 13.625 30 Z M 13.5625 51.4375 C 12.03125 51.460938 10.578125 52.136719 9.5 53.3125 C 6.328125 53.628906 4.648438 55.667969 4 58.6875 C 3.914062 60.257812 4 86.1875 4 86.1875 C 4 89.382812 6.617188 92 9.8125 92 L 39.9375 92 C 43.132812 92 45.6875 89.382812 45.6875 86.1875 C 45.6875 82.992188 46.140625 59.105469 45.3125 56.9375 C 44.488281 54.765625 42.410156 53.25 39.9375 53.25 C 38.253906 53.25 26.242188 53.179688 17.8125 53.1875 C 17.527344 52.878906 17.1875 52.617188 16.8125 52.375 C 15.816406 51.726562 14.664062 51.417969 13.5625 51.4375 Z M 11.8125 57.75 L 37.8125 57.75 C 39.667969 57.75 41.1875 59.207031 41.1875 61.0625 L 41.1875 84.1875 C 41.1875 86.042969 39.667969 87.5 37.8125 87.5 L 11.8125 87.5 C 9.957031 87.5 8.4375 86.042969 8.4375 84.1875 L 8.4375 61.0625 C 8.4375 59.207031 9.957031 57.75 11.8125 57.75 Z M 12.9375 62.1875 L 12.9375 83.0625 L 36.75 83.0625 L 36.75 62.1875 Z M 12.9375 62.1875 "/>
</g>
</svg>
