<?xml version="1.0" encoding="UTF-8"?>
<svg xmlns="http://www.w3.org/2000/svg" xmlns:xlink="http://www.w3.org/1999/xlink" width="96" height="96" viewBox="0 0 96 96" version="1.1">
<g id="surface1">
<path style=" stroke:none;fill-rule:nonzero;fill:rgb(100%,100%,100%);fill-opacity:1;" d="M 61.8125 4 C 59.019531 4.011719 56.847656 4.015625 56 4.0625 C 52.609375 4.261719 50.921875 6.378906 50.25 9.5 C 50.164062 11.070312 50.25 37 50.25 37 C 50.25 40.195312 52.804688 42.8125 56 42.8125 L 86.1875 42.8125 C 89.382812 42.8125 91.9375 40.195312 91.9375 37 C 91.9375 33.804688 92.324219 9.921875 91.5 7.75 C 90.671875 5.582031 88.660156 4.0625 86.1875 4.0625 C 84.332031 4.0625 70.1875 3.972656 61.8125 4 Z M 43.9375 6.9375 C 42.472656 7.015625 41.058594 7.636719 40 8.8125 C 37.882812 11.167969 38.082031 14.820312 40.4375 16.9375 C 42.792969 19.054688 46.382812 18.855469 48.5 16.5 C 50.617188 14.144531 50.417969 10.496094 48.0625 8.375 C 46.882812 7.316406 45.40625 6.859375 43.9375 6.9375 Z M 58.0625 8.5625 L 84.0625 8.5625 C 85.917969 8.5625 87.4375 10.019531 87.4375 11.875 L 87.4375 35 C 87.4375 36.855469 85.917969 38.3125 84.0625 38.3125 L 58.0625 38.3125 C 56.207031 38.3125 54.6875 36.855469 54.6875 35 L 54.6875 11.875 C 54.6875 10.019531 56.207031 8.5625 58.0625 8.5625 Z M 59.1875 13 L 59.1875 33.875 L 82.9375 33.875 L 82.9375 13 Z M 25.5625 16.6875 C 24.523438 16.742188 23.5 17.164062 22.75 18 C 21.25 19.671875 21.390625 22.25 23.0625 23.75 C 24.734375 25.25 27.3125 25.109375 28.8125 23.4375 C 30.3125 21.765625 30.171875 19.1875 28.5 17.6875 C 27.664062 16.9375 26.601562 16.632812 25.5625 16.6875 Z M 14.1875 34.375 C 13.632812 34.445312 13.070312 34.664062 12.625 35.0625 C 11.433594 36.125 11.3125 37.933594 12.375 39.125 C 13.4375 40.320312 15.246094 40.4375 16.4375 39.375 C 17.632812 38.3125 17.75 36.503906 16.6875 35.3125 C 16.023438 34.566406 15.105469 34.253906 14.1875 34.375 Z M 15.5625 53.1875 C 12.769531 53.195312 10.65625 53.199219 9.8125 53.25 C 6.425781 53.449219 4.671875 55.5625 4 58.6875 C 3.957031 59.453125 3.992188 66.148438 4 72.6875 C 4 72.832031 4 72.855469 4 73 C 4.011719 79.679688 4 86.1875 4 86.1875 C 4 89.382812 6.617188 92 9.8125 92 L 39.9375 92 C 43.132812 92 45.6875 89.382812 45.6875 86.1875 C 45.6875 82.992188 46.140625 59.105469 45.3125 56.9375 C 44.488281 54.765625 42.410156 53.25 39.9375 53.25 C 38.082031 53.25 23.9375 53.160156 15.5625 53.1875 Z M 11.8125 57.75 L 37.8125 57.75 C 39.667969 57.75 41.1875 59.207031 41.1875 61.0625 L 41.1875 84.1875 C 41.1875 86.042969 39.667969 87.5 37.8125 87.5 L 11.8125 87.5 C 9.957031 87.5 8.4375 86.042969 8.4375 84.1875 L 8.4375 61.0625 C 8.4375 59.207031 9.957031 57.75 11.8125 57.75 Z M 12.9375 62.1875 L 12.9375 83.0625 L 36.75 83.0625 L 36.75 62.1875 Z M 12.9375 62.1875 "/>
</g>
</svg>
