<?xml version="1.0" encoding="UTF-8"?>
<svg xmlns="http://www.w3.org/2000/svg" xmlns:xlink="http://www.w3.org/1999/xlink" width="96" height="96" viewBox="0 0 96 96" version="1.1">
<g id="surface1">
<path style=" stroke:none;fill-rule:nonzero;fill:rgb(100%,100%,100%);fill-opacity:1;" d="M 61.8125 4 C 59.019531 4.011719 56.847656 4.015625 56 4.0625 C 52.609375 4.261719 50.921875 6.378906 50.25 9.5 C 50.164062 11.070312 50.25 37 50.25 37 C 50.25 40.195312 52.804688 42.8125 56 42.8125 L 86.1875 42.8125 C 89.382812 42.8125 91.9375 40.195312 91.9375 37 C 91.9375 33.804688 92.324219 9.921875 91.5 7.75 C 90.671875 5.582031 88.660156 4.0625 86.1875 4.0625 C 84.332031 4.0625 70.1875 3.972656 61.8125 4 Z M 58.0625 8.5625 L 84.0625 8.5625 C 85.917969 8.5625 87.4375 10.019531 87.4375 11.875 L 87.4375 35 C 87.4375 36.855469 85.917969 38.3125 84.0625 38.3125 L 58.0625 38.3125 C 56.207031 38.3125 54.6875 36.855469 54.6875 35 L 54.6875 11.875 C 54.6875 10.019531 56.207031 8.5625 58.0625 8.5625 Z M 44.3125 10.125 C 43.398438 10.269531 42.550781 10.847656 42.125 11.75 C 41.445312 13.191406 42.054688 14.945312 43.5 15.625 C 44.945312 16.304688 46.695312 15.695312 47.375 14.25 C 48.054688 12.804688 47.382812 11.054688 45.9375 10.375 C 45.394531 10.121094 44.863281 10.039062 44.3125 10.125 Z M 59.1875 13 L 59.1875 33.875 L 82.9375 33.875 L 82.9375 13 Z M 83.4375 43.125 C 80.699219 43.324219 78.191406 45.113281 77.25 47.875 C 76 51.554688 78.003906 55.5625 81.6875 56.8125 C 85.371094 58.0625 89.375 56.054688 90.625 52.375 C 91.878906 48.691406 89.871094 44.6875 86.1875 43.4375 C 85.265625 43.125 84.347656 43.058594 83.4375 43.125 Z M 15.5625 53.1875 C 12.769531 53.195312 10.65625 53.199219 9.8125 53.25 C 6.425781 53.449219 4.671875 55.5625 4 58.6875 C 3.957031 59.453125 3.992188 66.148438 4 72.6875 C 4 72.832031 4 72.855469 4 73 C 4.011719 79.679688 4 86.1875 4 86.1875 C 4 89.382812 6.617188 92 9.8125 92 L 39.9375 92 C 43.132812 92 45.6875 89.382812 45.6875 86.1875 C 45.6875 82.992188 46.140625 59.105469 45.3125 56.9375 C 44.488281 54.765625 42.410156 53.25 39.9375 53.25 C 38.082031 53.25 23.9375 53.160156 15.5625 53.1875 Z M 11.8125 57.75 L 37.8125 57.75 C 39.667969 57.75 41.1875 59.207031 41.1875 61.0625 L 41.1875 84.1875 C 41.1875 86.042969 39.667969 87.5 37.8125 87.5 L 11.8125 87.5 C 9.957031 87.5 8.4375 86.042969 8.4375 84.1875 L 8.4375 61.0625 C 8.4375 59.207031 9.957031 57.75 11.8125 57.75 Z M 76.875 60.5625 C 73.5625 60.800781 70.574219 62.96875 69.4375 66.3125 C 67.921875 70.769531 70.292969 75.609375 74.75 77.125 C 79.207031 78.640625 84.046875 76.269531 85.5625 71.8125 C 87.078125 67.351562 84.707031 62.515625 80.25 61 C 79.136719 60.621094 77.980469 60.484375 76.875 60.5625 Z M 12.9375 62.1875 L 12.9375 83.0625 L 36.75 83.0625 L 36.75 62.1875 Z M 12.9375 62.1875 "/>
</g>
</svg>
