<?xml version="1.0" encoding="UTF-8"?>
<svg xmlns="http://www.w3.org/2000/svg" xmlns:xlink="http://www.w3.org/1999/xlink" width="96" height="96" viewBox="0 0 96 96" version="1.1">
<g id="surface1">
<path style=" stroke:none;fill-rule:nonzero;fill:rgb(100%,100%,100%);fill-opacity:1;" d="M 61.8125 4 C 59.019531 4.011719 56.847656 4.015625 56 4.0625 C 52.609375 4.261719 50.921875 6.378906 50.25 9.5 C 50.164062 11.070312 50.25 37 50.25 37 C 50.25 40.195312 52.804688 42.8125 56 42.8125 L 86.1875 42.8125 C 89.382812 42.8125 91.9375 40.195312 91.9375 37 C 91.9375 33.804688 92.324219 9.921875 91.5 7.75 C 90.671875 5.582031 88.660156 4.0625 86.1875 4.0625 C 84.332031 4.0625 70.1875 3.972656 61.8125 4 Z M 58.0625 8.5625 L 84.0625 8.5625 C 85.917969 8.5625 87.4375 10.019531 87.4375 11.875 L 87.4375 35 C 87.4375 36.855469 85.917969 38.3125 84.0625 38.3125 L 58.0625 38.3125 C 56.207031 38.3125 54.6875 36.855469 54.6875 35 L 54.6875 11.875 C 54.6875 10.019531 56.207031 8.5625 58.0625 8.5625 Z M 13.25 29.125 C 8.542969 29.140625 4.734375 32.980469 4.75 37.6875 C 4.765625 42.394531 8.605469 46.203125 13.3125 46.1875 C 18.019531 46.171875 21.828125 42.335938 21.8125 37.625 C 21.796875 32.917969 17.960938 29.109375 13.25 29.125 Z M 13.3125 50.625 C 10.882812 50.632812 8.753906 51.875 7.5 53.75 C 7.488281 53.765625 7.507812 53.796875 7.5 53.8125 C 5.59375 54.652344 4.492188 56.378906 4 58.6875 C 3.957031 59.453125 3.992188 66.148438 4 72.6875 C 4 72.832031 4 72.855469 4 73 C 4.011719 79.679688 4 86.1875 4 86.1875 C 4 89.382812 6.617188 92 9.8125 92 L 39.9375 92 C 43.132812 92 45.6875 89.382812 45.6875 86.1875 C 45.6875 86.113281 45.6875 85.59375 45.6875 85.5 C 46.347656 84.765625 46.753906 83.804688 46.75 82.75 C 46.746094 81.734375 46.363281 80.835938 45.75 80.125 C 45.835938 72.285156 45.972656 58.667969 45.3125 56.9375 C 44.488281 54.765625 42.410156 53.25 39.9375 53.25 C 38.328125 53.25 27.125 53.1875 18.8125 53.1875 C 17.515625 51.613281 15.511719 50.617188 13.3125 50.625 Z M 11.8125 57.75 L 37.8125 57.75 C 39.667969 57.75 41.1875 59.207031 41.1875 61.0625 L 41.1875 84.1875 C 41.1875 86.042969 39.667969 87.5 37.8125 87.5 L 11.8125 87.5 C 9.957031 87.5 8.4375 86.042969 8.4375 84.1875 L 8.4375 61.0625 C 8.4375 59.207031 9.957031 57.75 11.8125 57.75 Z M 62.1875 77.125 C 60.847656 77.25 59.777344 78.296875 59.625 79.6875 C 59.453125 81.273438 60.601562 82.703125 62.1875 82.875 C 63.773438 83.046875 65.136719 81.960938 65.3125 80.375 C 65.488281 78.789062 64.398438 77.359375 62.8125 77.1875 C 62.613281 77.164062 62.378906 77.105469 62.1875 77.125 Z M 62.1875 77.125 "/>
</g>
</svg>
