<?xml version="1.0" encoding="UTF-8"?>
<svg xmlns="http://www.w3.org/2000/svg" xmlns:xlink="http://www.w3.org/1999/xlink" width="96" height="96" viewBox="0 0 96 96" version="1.1">
<g id="surface1">
<path style=" stroke:none;fill-rule:nonzero;fill:rgb(100%,100%,100%);fill-opacity:1;" d="M 43.5625 3.5 C 42.453125 3.511719 41.328125 3.714844 40.25 4.1875 C 35.9375 6.078125 33.988281 11.125 35.875 15.4375 C 37.765625 19.75 42.75 21.699219 47.0625 19.8125 C 48.367188 19.242188 49.410156 18.347656 50.25 17.3125 C 50.242188 25.398438 50.25 37 50.25 37 C 50.25 40.195312 52.804688 42.8125 56 42.8125 L 86.1875 42.8125 C 89.382812 42.8125 91.9375 40.195312 91.9375 37 C 91.9375 33.804688 92.324219 9.921875 91.5 7.75 C 90.671875 5.582031 88.660156 4.0625 86.1875 4.0625 C 84.332031 4.0625 70.1875 3.972656 61.8125 4 C 59.019531 4.011719 56.847656 4.015625 56 4.0625 C 53.402344 4.214844 51.78125 5.503906 50.875 7.5 C 49.269531 4.960938 46.46875 3.460938 43.5625 3.5 Z M 58.0625 8.5625 L 84.0625 8.5625 C 85.917969 8.5625 87.4375 10.019531 87.4375 11.875 L 87.4375 35 C 87.4375 36.855469 85.917969 38.3125 84.0625 38.3125 L 58.0625 38.3125 C 56.207031 38.3125 54.6875 36.855469 54.6875 35 L 54.6875 11.875 C 54.6875 10.019531 56.207031 8.5625 58.0625 8.5625 Z M 25.25 13 C 24.335938 13.011719 23.390625 13.171875 22.5 13.5625 C 18.9375 15.125 17.3125 19.3125 18.875 22.875 C 20.433594 26.4375 24.5625 28.0625 28.125 26.5 C 31.6875 24.941406 33.371094 20.75 31.8125 17.1875 C 30.640625 14.515625 27.992188 12.96875 25.25 13 Z M 14.1875 31.0625 C 13.441406 31.070312 12.664062 31.246094 11.9375 31.5625 C 9.035156 32.832031 7.730469 36.222656 9 39.125 C 10.273438 42.027344 13.660156 43.332031 16.5625 42.0625 C 19.464844 40.792969 20.773438 37.402344 19.5 34.5 C 18.546875 32.324219 16.421875 31.035156 14.1875 31.0625 Z M 13.9375 52.875 C 13.429688 52.878906 12.929688 53.039062 12.4375 53.25 C 12.417969 53.257812 12.394531 53.242188 12.375 53.25 C 11.546875 53.257812 10.1875 53.226562 9.8125 53.25 C 6.425781 53.449219 4.671875 55.5625 4 58.6875 C 3.957031 59.453125 3.992188 66.148438 4 72.6875 C 4 72.832031 4 72.855469 4 73 C 4.011719 79.679688 4 86.1875 4 86.1875 C 4 89.382812 6.617188 92 9.8125 92 L 39.9375 92 C 43.132812 92 45.6875 89.382812 45.6875 86.1875 C 45.6875 82.992188 46.140625 59.105469 45.3125 56.9375 C 44.488281 54.765625 42.410156 53.25 39.9375 53.25 C 38.082031 53.25 23.9375 53.160156 15.5625 53.1875 C 15.054688 52.972656 14.5 52.867188 13.9375 52.875 Z M 11.8125 57.75 L 37.8125 57.75 C 39.667969 57.75 41.1875 59.207031 41.1875 61.0625 L 41.1875 84.1875 C 41.1875 86.042969 39.667969 87.5 37.8125 87.5 L 11.8125 87.5 C 9.957031 87.5 8.4375 86.042969 8.4375 84.1875 L 8.4375 61.0625 C 8.4375 59.207031 9.957031 57.75 11.8125 57.75 Z M 12.9375 62.1875 L 12.9375 83.0625 L 36.75 83.0625 L 36.75 62.1875 Z M 12.9375 62.1875 "/>
</g>
</svg>
