<?xml version="1.0" encoding="UTF-8"?>
<svg xmlns="http://www.w3.org/2000/svg" xmlns:xlink="http://www.w3.org/1999/xlink" width="96" height="96" viewBox="0 0 96 96" version="1.1">
<g id="surface1">
<path style=" stroke:none;fill-rule:nonzero;fill:rgb(100%,100%,100%);fill-opacity:1;" d="M 61.8125 4 C 59.019531 4.011719 56.847656 4.015625 56 4.0625 C 52.609375 4.261719 50.921875 6.378906 50.25 9.5 C 50.164062 11.070312 50.25 37 50.25 37 C 50.25 40.195312 52.804688 42.8125 56 42.8125 L 86.1875 42.8125 C 89.382812 42.8125 91.9375 40.195312 91.9375 37 C 91.9375 33.804688 92.324219 9.921875 91.5 7.75 C 90.671875 5.582031 88.660156 4.0625 86.1875 4.0625 C 84.332031 4.0625 70.1875 3.972656 61.8125 4 Z M 58.0625 8.5625 L 84.0625 8.5625 C 85.917969 8.5625 87.4375 10.019531 87.4375 11.875 L 87.4375 35 C 87.4375 36.855469 85.917969 38.3125 84.0625 38.3125 L 58.0625 38.3125 C 56.207031 38.3125 54.6875 36.855469 54.6875 35 L 54.6875 11.875 C 54.6875 10.019531 56.207031 8.5625 58.0625 8.5625 Z M 59.1875 13 L 59.1875 33.875 L 82.9375 33.875 L 82.9375 13 Z M 82.6875 45.4375 C 80.453125 45.6875 78.875 47.703125 79.125 49.9375 C 79.375 52.167969 81.390625 53.75 83.625 53.5 C 85.855469 53.246094 87.4375 51.296875 87.1875 49.0625 C 86.9375 46.832031 84.917969 45.183594 82.6875 45.4375 Z M 15.5625 53.1875 C 12.769531 53.195312 10.65625 53.199219 9.8125 53.25 C 6.425781 53.449219 4.671875 55.5625 4 58.6875 C 3.957031 59.453125 3.992188 66.148438 4 72.6875 C 4 72.832031 4 72.855469 4 73 C 4.011719 79.679688 4 86.1875 4 86.1875 C 4 89.382812 6.617188 92 9.8125 92 L 39.9375 92 C 40.742188 92.152344 41.574219 92.222656 42.4375 92.125 C 47.117188 91.597656 50.527344 87.367188 50 82.6875 C 49.683594 79.902344 48.015625 77.617188 45.75 76.3125 C 45.824219 68.113281 45.867188 58.390625 45.3125 56.9375 C 44.488281 54.765625 42.410156 53.25 39.9375 53.25 C 38.082031 53.25 23.9375 53.160156 15.5625 53.1875 Z M 11.8125 57.75 L 37.8125 57.75 C 39.667969 57.75 41.1875 59.207031 41.1875 61.0625 L 41.1875 84.1875 C 41.1875 86.042969 39.667969 87.5 37.8125 87.5 L 11.8125 87.5 C 9.957031 87.5 8.4375 86.042969 8.4375 84.1875 L 8.4375 61.0625 C 8.4375 59.207031 9.957031 57.75 11.8125 57.75 Z M 12.9375 62.1875 L 12.9375 83.0625 L 36.75 83.0625 L 36.75 62.1875 Z M 76.25 62.9375 C 73.101562 63.292969 70.894531 66.164062 71.25 69.3125 C 71.605469 72.460938 74.414062 74.730469 77.5625 74.375 C 80.710938 74.019531 82.980469 71.148438 82.625 68 C 82.269531 64.851562 79.398438 62.582031 76.25 62.9375 Z M 62 74.375 C 61.535156 74.332031 61.105469 74.382812 60.625 74.4375 C 56.757812 74.875 53.9375 78.320312 54.375 82.1875 C 54.8125 86.054688 58.320312 88.871094 62.1875 88.4375 C 66.050781 88 68.808594 84.488281 68.375 80.625 C 67.992188 77.242188 65.261719 74.667969 62 74.375 Z M 62 74.375 "/>
</g>
</svg>
