<?xml version="1.0" encoding="UTF-8"?>
<svg xmlns="http://www.w3.org/2000/svg" xmlns:xlink="http://www.w3.org/1999/xlink" width="96" height="96" viewBox="0 0 96 96" version="1.1">
<g id="surface1">
<path style=" stroke:none;fill-rule:nonzero;fill:rgb(100%,100%,100%);fill-opacity:1;" d="M 61.8125 4 C 59.019531 4.011719 56.847656 4.015625 56 4.0625 C 52.609375 4.261719 50.921875 6.378906 50.25 9.5 C 50.164062 11.070312 50.25 37 50.25 37 C 50.25 40.195312 52.804688 42.8125 56 42.8125 L 78.75 42.8125 C 76.3125 44.855469 75.132812 48.144531 76 51.4375 C 77.195312 55.992188 81.820312 58.757812 86.375 57.5625 C 90.929688 56.367188 93.632812 51.679688 92.4375 47.125 C 91.875 44.984375 90.527344 43.292969 88.8125 42.1875 C 90.679688 41.222656 91.9375 39.25 91.9375 37 C 91.9375 33.804688 92.324219 9.921875 91.5 7.75 C 90.671875 5.582031 88.660156 4.0625 86.1875 4.0625 C 84.332031 4.0625 70.1875 3.972656 61.8125 4 Z M 58.0625 8.5625 L 84.0625 8.5625 C 85.917969 8.5625 87.4375 10.019531 87.4375 11.875 L 87.4375 35 C 87.4375 36.855469 85.917969 38.3125 84.0625 38.3125 L 58.0625 38.3125 C 56.207031 38.3125 54.6875 36.855469 54.6875 35 L 54.6875 11.875 C 54.6875 10.019531 56.207031 8.5625 58.0625 8.5625 Z M 44.1875 8.9375 C 43.917969 8.953125 43.648438 8.992188 43.375 9.0625 C 41.203125 9.632812 39.929688 11.828125 40.5 14 C 41.070312 16.171875 43.265625 17.507812 45.4375 16.9375 C 47.609375 16.367188 48.945312 14.109375 48.375 11.9375 C 47.875 10.039062 46.078125 8.832031 44.1875 8.9375 Z M 59.1875 13 L 59.1875 33.875 L 82.9375 33.875 L 82.9375 13 Z M 25.5625 17.75 C 23.984375 17.980469 22.894531 19.484375 23.125 21.0625 C 23.355469 22.640625 24.796875 23.730469 26.375 23.5 C 27.953125 23.269531 29.042969 21.765625 28.8125 20.1875 C 28.582031 18.609375 27.140625 17.519531 25.5625 17.75 Z M 15.5625 53.1875 C 12.769531 53.195312 10.65625 53.199219 9.8125 53.25 C 6.425781 53.449219 4.671875 55.5625 4 58.6875 C 3.914062 60.257812 4 86.1875 4 86.1875 C 4 89.382812 6.617188 92 9.8125 92 L 39.9375 92 C 43.132812 92 45.6875 89.382812 45.6875 86.1875 C 45.6875 82.992188 46.140625 59.105469 45.3125 56.9375 C 44.488281 54.765625 42.410156 53.25 39.9375 53.25 C 38.082031 53.25 23.9375 53.160156 15.5625 53.1875 Z M 11.8125 57.75 L 37.8125 57.75 C 39.667969 57.75 41.1875 59.207031 41.1875 61.0625 L 41.1875 84.1875 C 41.1875 86.042969 39.667969 87.5 37.8125 87.5 L 11.8125 87.5 C 9.957031 87.5 8.4375 86.042969 8.4375 84.1875 L 8.4375 61.0625 C 8.4375 59.207031 9.957031 57.75 11.8125 57.75 Z M 12.9375 62.1875 L 12.9375 83.0625 L 36.75 83.0625 L 36.75 62.1875 Z M 12.9375 62.1875 "/>
</g>
</svg>
