<?xml version="1.0" encoding="UTF-8"?>
<svg xmlns="http://www.w3.org/2000/svg" xmlns:xlink="http://www.w3.org/1999/xlink" width="96" height="96" viewBox="0 0 96 96" version="1.1">
<g id="surface1">
<path style=" stroke:none;fill-rule:nonzero;fill:rgb(100%,100%,100%);fill-opacity:1;" d="M 32.492188 17.757812 C 23.359375 17.757812 16.832031 23.222656 16.832031 32.164062 L 16.832031 40.019531 L 14.21875 40.019531 C 11.609375 40.019531 10.304688 41.328125 10.304688 43.945312 L 10.304688 66.207031 C 10.304688 67.492188 11.609375 70.136719 14.21875 70.136719 L 52.574219 70.136719 C 54.683594 70.121094 55.988281 67.492188 55.988281 66.207031 L 55.988281 43.945312 C 55.988281 41.328125 54.683594 40.003906 52.070312 40.003906 L 49.460938 40.019531 L 49.460938 32.164062 C 49.460938 22.996094 42.9375 17.757812 33.800781 17.757812 Z M 32.492188 24.304688 L 33.800781 24.304688 C 42.9375 24.304688 42.9375 32.164062 42.9375 34.78125 L 42.9375 40.019531 L 23.359375 40.019531 L 23.359375 34.78125 C 23.359375 32.164062 23.359375 24.304688 32.492188 24.304688 Z M 32.492188 24.304688 "/>
</g>
</svg>
