<?xml version="1.0" encoding="UTF-8"?>
<svg xmlns="http://www.w3.org/2000/svg" xmlns:xlink="http://www.w3.org/1999/xlink" width="96" height="96" viewBox="0 0 96 96" version="1.1">
<g id="surface1">
<path style=" stroke:none;fill-rule:nonzero;fill:rgb(100%,100%,100%);fill-opacity:1;" d="M 55.6875 10.8125 C 53.453125 11.066406 51.875 13.082031 52.125 15.3125 C 52.375 17.546875 54.390625 19.1875 56.625 18.9375 C 58.855469 18.6875 60.4375 16.671875 60.1875 14.4375 C 59.9375 12.203125 57.917969 10.5625 55.6875 10.8125 Z M 43.625 13.5 C 42.03125 13.5 40.75 14.78125 40.75 16.375 C 40.75 17.96875 42.03125 19.25 43.625 19.25 C 45.21875 19.25 46.5625 17.96875 46.5625 16.375 C 46.5625 14.78125 45.21875 13.5 43.625 13.5 Z M 70.125 16.0625 C 66.976562 16.417969 64.707031 19.226562 65.0625 22.375 C 65.417969 25.523438 68.289062 27.792969 71.4375 27.4375 C 74.582031 27.082031 76.855469 24.273438 76.5 21.125 C 76.144531 17.976562 73.269531 15.707031 70.125 16.0625 Z M 32.5 17.75 C 23.363281 17.75 16.8125 23.25 16.8125 32.1875 L 16.8125 40 L 14.25 40 C 11.640625 40 10.3125 41.316406 10.3125 43.9375 L 10.3125 66.1875 C 10.3125 67.46875 11.640625 70.125 14.25 70.125 L 52.5625 70.125 C 54.671875 70.113281 56 67.46875 56 66.1875 L 56 43.9375 C 56 41.316406 54.671875 40 52.0625 40 L 49.4375 40 L 49.4375 32.1875 C 49.4375 23.023438 42.949219 17.75 33.8125 17.75 Z M 32.5 24.3125 L 33.8125 24.3125 C 42.949219 24.3125 42.9375 32.128906 42.9375 34.75 L 42.9375 40 L 23.375 40 L 23.375 34.75 C 23.375 32.128906 23.363281 24.3125 32.5 24.3125 Z M 80 30.1875 C 76.132812 30.625 73.375 34.132812 73.8125 38 C 74.246094 41.867188 77.699219 44.621094 81.5625 44.1875 C 85.425781 43.75 88.25 40.304688 87.8125 36.4375 C 87.378906 32.570312 83.863281 29.75 80 30.1875 Z M 78.875 50.125 C 74.195312 50.652344 70.785156 54.882812 71.3125 59.5625 C 71.839844 64.242188 76.070312 67.589844 80.75 67.0625 C 85.429688 66.535156 88.777344 62.300781 88.25 57.625 C 87.722656 52.945312 83.554688 49.597656 78.875 50.125 Z M 78.875 50.125 "/>
</g>
</svg>
