<?xml version="1.0" encoding="UTF-8"?>
<svg xmlns="http://www.w3.org/2000/svg" xmlns:xlink="http://www.w3.org/1999/xlink" width="96" height="96" viewBox="0 0 96 96" version="1.1">
<g id="surface1">
<path style=" stroke:none;fill-rule:nonzero;fill:rgb(100%,100%,100%);fill-opacity:1;" d="M 32.5 17.75 C 23.363281 17.75 16.8125 23.25 16.8125 32.1875 L 16.8125 40 L 14.25 40 C 11.640625 40 10.3125 41.316406 10.3125 43.9375 L 10.3125 66.1875 C 10.3125 67.46875 11.640625 70.125 14.25 70.125 L 17.6875 70.125 C 18.671875 74.359375 22.636719 77.3125 27.0625 76.8125 C 30.8125 76.386719 33.6875 73.597656 34.5 70.125 L 52.5625 70.125 C 54.671875 70.113281 56 67.46875 56 66.1875 L 56 43.9375 C 56 41.316406 54.671875 40 52.0625 40 L 49.4375 40 L 49.4375 32.1875 C 49.4375 23.023438 42.949219 17.75 33.8125 17.75 Z M 32.5 24.3125 L 33.8125 24.3125 C 42.949219 24.3125 42.9375 32.128906 42.9375 34.75 L 42.9375 40 L 23.375 40 L 23.375 34.75 C 23.375 32.128906 23.363281 24.3125 32.5 24.3125 Z M 79.5 55.75 C 77.921875 55.925781 76.761719 57.355469 76.9375 58.9375 C 77.113281 60.519531 78.542969 61.679688 80.125 61.5 C 81.707031 61.320312 82.867188 59.890625 82.6875 58.3125 C 82.507812 56.734375 81.078125 55.574219 79.5 55.75 Z M 67.6875 74.875 C 65.28125 74.875 63.375 76.839844 63.375 79.25 C 63.375 81.660156 65.28125 83.625 67.6875 83.625 C 70.09375 83.625 72.0625 81.660156 72.0625 79.25 C 72.0625 76.839844 70.09375 74.875 67.6875 74.875 Z M 45.125 78.5625 C 44.726562 78.527344 44.351562 78.578125 43.9375 78.625 C 40.625 79 38.253906 81.941406 38.625 85.25 C 38.996094 88.5625 41.9375 90.933594 45.25 90.5625 C 48.558594 90.191406 50.996094 87.25 50.625 83.9375 C 50.296875 81.039062 47.917969 78.8125 45.125 78.5625 Z M 45.125 78.5625 "/>
</g>
</svg>
