<?xml version="1.0" encoding="UTF-8"?>
<svg xmlns="http://www.w3.org/2000/svg" xmlns:xlink="http://www.w3.org/1999/xlink" width="96" height="96" viewBox="0 0 96 96" version="1.1">
<g id="surface1">
<path style=" stroke:none;fill-rule:nonzero;fill:rgb(100%,100%,100%);fill-opacity:1;" d="M 55.625 10.3125 C 53.125 10.59375 51.34375 12.875 51.625 15.375 C 51.90625 17.875 54.125 19.65625 56.625 19.375 C 59.125 19.09375 60.96875 16.878906 60.6875 14.375 C 60.40625 11.875 58.128906 10.03125 55.625 10.3125 Z M 43.625 13.5 C 42.03125 13.5 40.75 14.78125 40.75 16.375 C 40.75 17.96875 42.03125 19.25 43.625 19.25 C 45.21875 19.25 46.5625 17.96875 46.5625 16.375 C 46.5625 14.78125 45.21875 13.5 43.625 13.5 Z M 70 14.8125 C 66.179688 15.242188 63.445312 18.742188 63.875 22.5625 C 64.304688 26.382812 67.738281 29.117188 71.5625 28.6875 C 75.382812 28.257812 78.117188 24.820312 77.6875 21 C 77.253906 17.179688 73.820312 14.382812 70 14.8125 Z M 32.5 17.75 C 23.363281 17.75 16.8125 23.25 16.8125 32.1875 L 16.8125 40 L 14.25 40 C 11.640625 40 10.3125 41.316406 10.3125 43.9375 L 10.3125 66.1875 C 10.3125 67.46875 11.640625 70.125 14.25 70.125 L 52.5625 70.125 C 54.671875 70.113281 56 67.46875 56 66.1875 L 56 43.9375 C 56 41.316406 54.671875 40 52.0625 40 L 49.4375 40 L 49.4375 32.1875 C 49.4375 23.023438 42.949219 17.75 33.8125 17.75 Z M 32.5 24.3125 L 33.8125 24.3125 C 42.949219 24.3125 42.9375 32.128906 42.9375 34.75 L 42.9375 40 L 23.375 40 L 23.375 34.75 C 23.375 32.128906 23.363281 24.3125 32.5 24.3125 Z M 79.8125 28.75 C 75.136719 29.277344 71.785156 33.511719 72.3125 38.1875 C 72.839844 42.859375 77.078125 46.214844 81.75 45.6875 C 86.421875 45.160156 89.777344 40.925781 89.25 36.25 C 88.722656 31.578125 84.484375 28.222656 79.8125 28.75 Z M 79.8125 28.75 "/>
</g>
</svg>
