<?xml version="1.0" encoding="UTF-8"?>
<svg xmlns="http://www.w3.org/2000/svg" xmlns:xlink="http://www.w3.org/1999/xlink" width="96" height="96" viewBox="0 0 96 96" version="1.1">
<g id="surface1">
<path style=" stroke:none;fill-rule:nonzero;fill:rgb(100%,100%,100%);fill-opacity:1;" d="M 32.5 17.75 C 23.363281 17.75 16.8125 23.25 16.8125 32.1875 L 16.8125 40 L 14.25 40 C 11.640625 40 10.3125 41.316406 10.3125 43.9375 L 10.3125 66.1875 C 10.3125 67.46875 11.640625 70.125 14.25 70.125 L 19.9375 70.125 C 20.847656 73.019531 23.683594 74.976562 26.8125 74.625 C 29.429688 74.328125 31.496094 72.480469 32.25 70.125 L 52.5625 70.125 C 54.671875 70.113281 56 67.46875 56 66.1875 L 56 43.9375 C 56 41.316406 54.671875 40 52.0625 40 L 49.4375 40 L 49.4375 32.1875 C 49.4375 23.023438 42.949219 17.75 33.8125 17.75 Z M 32.5 24.3125 L 33.8125 24.3125 C 42.949219 24.3125 42.9375 32.128906 42.9375 34.75 L 42.9375 40 L 23.375 40 L 23.375 34.75 C 23.375 32.128906 23.363281 24.3125 32.5 24.3125 Z M 67.6875 76.125 C 65.957031 76.125 64.5625 77.519531 64.5625 79.25 C 64.5625 80.980469 65.957031 82.375 67.6875 82.375 C 69.417969 82.375 70.875 80.980469 70.875 79.25 C 70.875 77.519531 69.417969 76.125 67.6875 76.125 Z M 44.0625 80.0625 C 41.5625 80.34375 39.78125 82.625 40.0625 85.125 C 40.34375 87.625 42.625 89.40625 45.125 89.125 C 47.628906 88.84375 49.40625 86.5625 49.125 84.0625 C 48.84375 81.558594 46.5625 79.78125 44.0625 80.0625 Z M 44.0625 80.0625 "/>
</g>
</svg>
