<?xml version="1.0" encoding="UTF-8"?>
<svg xmlns="http://www.w3.org/2000/svg" xmlns:xlink="http://www.w3.org/1999/xlink" width="96" height="96" viewBox="0 0 96 96" version="1.1">
<g id="surface1">
<path style=" stroke:none;fill-rule:nonzero;fill:rgb(100%,100%,100%);fill-opacity:1;" d="M 32.5 17.75 C 23.363281 17.75 16.8125 23.25 16.8125 32.1875 L 16.8125 40 L 14.25 40 C 11.640625 40 10.3125 41.316406 10.3125 43.9375 L 10.3125 66.1875 C 10.3125 67.46875 11.640625 70.125 14.25 70.125 L 22.875 70.125 C 23.617188 71.335938 24.992188 72.109375 26.5 71.9375 C 27.707031 71.800781 28.726562 71.089844 29.3125 70.125 L 52.5625 70.125 C 54.671875 70.113281 56 67.46875 56 66.1875 L 56 43.9375 C 56 41.316406 54.671875 40 52.0625 40 L 49.4375 40 L 49.4375 32.1875 C 49.4375 23.023438 42.949219 17.75 33.8125 17.75 Z M 32.5 24.3125 L 33.8125 24.3125 C 42.949219 24.3125 42.9375 32.128906 42.9375 34.75 L 42.9375 40 L 23.375 40 L 23.375 34.75 C 23.375 32.128906 23.363281 24.3125 32.5 24.3125 Z M 32.5 24.3125 "/>
</g>
</svg>
