<?xml version="1.0" encoding="UTF-8"?>
<svg xmlns="http://www.w3.org/2000/svg" xmlns:xlink="http://www.w3.org/1999/xlink" width="28" height="28" viewBox="0 0 28 28" version="1.1">
<g id="surface1">
<path style=" stroke:none;fill-rule:nonzero;fill:rgb(100%,100%,100%);fill-opacity:1;" d="M 20.039062 4.304688 L 9.632812 14.648438 C 7.359375 16.914062 6.308594 19.5625 7.28125 20.589844 C 8.253906 21.617188 10.871094 20.621094 13.148438 18.359375 L 23.550781 8.011719 C 25.828125 5.75 26.875 3.097656 25.902344 2.070312 C 24.929688 1.046875 22.3125 2.042969 20.039062 4.304688 Z M 20.039062 4.304688 "/>
<path style=" stroke:none;fill-rule:nonzero;fill:rgb(100%,100%,100%);fill-opacity:1;" d="M 5.335938 4.253906 L 3.1875 6.472656 L 13.550781 14.347656 L 21.496094 24.78125 L 23.71875 22.632812 L 19.097656 8.871094 Z M 5.335938 4.253906 "/>
<path style=" stroke:none;fill-rule:nonzero;fill:rgb(100%,100%,100%);fill-opacity:1;" d="M 11.023438 16.886719 L 2.984375 16.289062 L 1.761719 17.527344 L 6.746094 21.214844 L 10.386719 26.191406 L 11.617188 24.960938 Z M 11.023438 16.886719 "/>
</g>
</svg>
