<?xml version="1.0" encoding="UTF-8"?>
<svg xmlns="http://www.w3.org/2000/svg" xmlns:xlink="http://www.w3.org/1999/xlink" width="28" height="28" viewBox="0 0 28 28" version="1.1">
<g id="surface1">
<path style=" stroke:none;fill-rule:nonzero;fill:rgb(100%,100%,100%);fill-opacity:1;" d="M 12.96875 10.5 C 12.546875 10.578125 12.242188 10.945312 12.25 11.375 L 12.25 15.75 L 9.625 15.75 C 9.308594 15.746094 9.015625 15.910156 8.855469 16.183594 C 8.699219 16.457031 8.699219 16.792969 8.855469 17.066406 C 9.015625 17.339844 9.308594 17.503906 9.625 17.5 L 13.125 17.5 C 13.609375 17.5 14 17.109375 14 16.625 L 14 11.375 C 14.003906 11.113281 13.890625 10.859375 13.6875 10.691406 C 13.488281 10.519531 13.21875 10.449219 12.960938 10.5 Z M 12.96875 10.5 "/>
<path style=" stroke:none;fill-rule:nonzero;fill:rgb(100%,100%,100%);fill-opacity:1;" d="M 13.074219 5.355469 C 6.84375 5.355469 1.796875 10.453125 1.796875 16.683594 C 1.796875 22.914062 6.84375 28.015625 13.074219 28.015625 C 19.304688 28.015625 24.402344 22.914062 24.402344 16.683594 C 24.402344 10.453125 19.304688 5.355469 13.074219 5.355469 Z M 13.074219 8.824219 C 17.425781 8.824219 20.933594 12.332031 20.933594 16.683594 C 20.933594 21.039062 17.425781 24.546875 13.074219 24.546875 C 8.71875 24.546875 5.265625 21.039062 5.265625 16.683594 C 5.265625 12.332031 8.71875 8.824219 13.074219 8.824219 Z M 13.074219 8.824219 "/>
<path style=" stroke:none;fill-rule:nonzero;fill:rgb(100%,100%,100%);fill-opacity:1;" d="M 7.488281 1.75 C 4.328125 1.75 1.75 4.332031 1.75 7.492188 C 1.75 8.199219 1.894531 8.835938 2.132812 9.460938 C 4.242188 6.273438 7.703125 4.03125 11.703125 3.609375 C 10.652344 2.472656 9.148438 1.753906 7.484375 1.753906 Z M 18.753906 1.75 C 17.089844 1.75 15.589844 2.472656 14.546875 3.609375 C 18.546875 4.046875 22.019531 6.304688 24.117188 9.515625 C 24.363281 8.875 24.5 8.21875 24.5 7.492188 C 24.5 4.332031 21.917969 1.75 18.757812 1.75 Z M 18.753906 1.75 "/>
<path style=" stroke:none;fill-rule:nonzero;fill:rgb(100%,100%,100%);fill-opacity:1;" d="M 6.84375 22.59375 C 6.527344 22.675781 6.246094 22.847656 6.023438 23.085938 L 4.054688 25 C 3.523438 25.410156 3.273438 26.082031 3.410156 26.738281 C 3.546875 27.394531 4.042969 27.914062 4.691406 28.078125 C 5.339844 28.246094 6.027344 28.023438 6.460938 27.515625 L 8.429688 25.601562 C 9.03125 25.066406 9.191406 24.1875 8.816406 23.472656 C 8.441406 22.761719 7.625 22.394531 6.84375 22.59375 Z M 6.84375 22.59375 "/>
<path style=" stroke:none;fill-rule:nonzero;fill:rgb(100%,100%,100%);fill-opacity:1;" d="M 19.144531 22.75 C 18.511719 22.847656 17.976562 23.285156 17.761719 23.890625 C 17.542969 24.496094 17.675781 25.171875 18.105469 25.648438 L 19.691406 27.398438 C 20.082031 27.929688 20.742188 28.195312 21.390625 28.085938 C 22.042969 27.976562 22.578125 27.507812 22.773438 26.878906 C 22.96875 26.246094 22.792969 25.558594 22.316406 25.101562 L 20.730469 23.351562 C 20.34375 22.886719 19.738281 22.652344 19.136719 22.738281 Z M 19.144531 22.75 "/>
</g>
</svg>
