<?xml version="1.0" encoding="UTF-8"?>
<svg xmlns="http://www.w3.org/2000/svg" xmlns:xlink="http://www.w3.org/1999/xlink" width="28" height="28" viewBox="0 0 28 28" version="1.1">
<g id="surface1">
<path style=" stroke:none;fill-rule:nonzero;fill:rgb(74.509804%,74.509804%,74.509804%);fill-opacity:1;" d="M 11.375 0 C 5.113281 0 0 5.113281 0 11.375 C 0 17.636719 5.113281 22.75 11.375 22.75 C 11.671875 22.75 11.957031 22.71875 12.25 22.695312 L 12.25 19.140625 C 11.957031 19.171875 11.675781 19.25 11.375 19.25 C 7.003906 19.25 3.5 15.746094 3.5 11.375 C 3.5 7.003906 7.003906 3.5 11.375 3.5 C 15.746094 3.5 19.25 7.003906 19.25 11.375 C 19.25 11.675781 19.171875 11.957031 19.140625 12.25 L 22.695312 12.25 C 22.71875 11.957031 22.75 11.671875 22.75 11.375 C 22.75 5.113281 17.636719 0 11.375 0 Z M 11.375 0 "/>
<path style=" stroke:none;fill-rule:nonzero;fill:rgb(74.509804%,74.509804%,74.509804%);fill-opacity:1;" d="M 11.21875 5.25 C 10.796875 5.328125 10.492188 5.695312 10.5 6.125 L 10.5 10.5 L 7.875 10.5 C 7.558594 10.496094 7.265625 10.660156 7.105469 10.933594 C 6.949219 11.207031 6.949219 11.542969 7.105469 11.816406 C 7.265625 12.089844 7.558594 12.253906 7.875 12.25 L 11.375 12.25 C 11.859375 12.25 12.25 11.859375 12.25 11.375 L 12.25 6.125 C 12.253906 5.863281 12.140625 5.609375 11.9375 5.441406 C 11.738281 5.269531 11.46875 5.199219 11.210938 5.25 Z M 11.21875 5.25 "/>
<path style=" stroke:none;fill-rule:nonzero;fill:rgb(96.078431%,47.45098%,0%);fill-opacity:1;" d="M 15.539062 14.121094 C 14.679688 14.121094 14.007812 14.785156 14.007812 15.640625 L 14.007812 26.484375 C 14.007812 27.335938 14.679688 28 15.539062 28 L 26.476562 28 C 27.339844 28 28.007812 27.335938 28.007812 26.484375 L 28.007812 15.640625 C 28.007812 14.785156 27.339844 14.121094 26.476562 14.121094 Z M 19.257812 15.859375 L 22.757812 15.859375 L 22.757812 22.796875 L 19.257812 22.796875 Z M 19.257812 24.53125 L 22.757812 24.53125 L 22.757812 26.265625 L 19.257812 26.265625 Z M 19.257812 24.53125 "/>
<path style=" stroke:none;fill-rule:nonzero;fill:rgb(100%,100%,100%);fill-opacity:1;" d="M 9.46875 22.550781 C 8.382812 22.371094 6.558594 21.683594 5.53125 21.070312 C 4.390625 20.390625 2.734375 18.816406 1.996094 17.714844 C 1.347656 16.746094 0.769531 15.492188 0.425781 14.308594 C 0.191406 13.496094 0.152344 13.101562 0.152344 11.355469 C 0.152344 9.589844 0.1875 9.21875 0.433594 8.386719 C 1.523438 4.660156 4.378906 1.710938 8 0.574219 C 14.074219 -1.328125 20.5625 2.199219 22.277344 8.335938 C 22.570312 9.382812 22.777344 11.175781 22.679688 11.800781 L 22.605469 12.242188 L 19.257812 12.242188 L 19.25 11.148438 C 19.238281 9.066406 18.484375 7.351562 16.882812 5.757812 C 15.769531 4.65625 14.546875 3.980469 13.0625 3.652344 C 8.96875 2.75 4.800781 5.308594 3.707031 9.398438 C 3.433594 10.410156 3.429688 12.28125 3.695312 13.3125 C 4.582031 16.765625 7.722656 19.242188 11.210938 19.242188 L 12.195312 19.242188 L 12.195312 22.683594 L 11.160156 22.671875 C 10.585938 22.664062 9.828125 22.609375 9.46875 22.550781 Z M 9.46875 22.550781 "/>
<path style=" stroke:none;fill-rule:nonzero;fill:rgb(100%,100%,100%);fill-opacity:1;" d="M 7.476562 12.097656 C 7.03125 11.882812 6.9375 11.195312 7.300781 10.789062 C 7.460938 10.613281 7.710938 10.582031 9.011719 10.582031 L 10.535156 10.582031 L 10.535156 8.203125 C 10.535156 5.835938 10.535156 5.824219 10.828125 5.535156 C 11.183594 5.179688 11.472656 5.167969 11.882812 5.488281 L 12.195312 5.734375 L 12.195312 11.660156 L 11.90625 11.953125 C 11.621094 12.238281 11.582031 12.242188 9.679688 12.234375 C 8.539062 12.230469 7.636719 12.175781 7.476562 12.097656 Z M 7.476562 12.097656 "/>
</g>
</svg>
