<?xml version="1.0" encoding="UTF-8"?>
<svg xmlns="http://www.w3.org/2000/svg" xmlns:xlink="http://www.w3.org/1999/xlink" width="28" height="28" viewBox="0 0 28 28" version="1.1">
<g id="surface1">
<path style=" stroke:none;fill-rule:nonzero;fill:rgb(74.509804%,74.509804%,74.509804%);fill-opacity:1;" d="M 8.75 8.75 L 8.75 12.25 L 19.25 12.25 L 19.25 8.75 Z M 8.75 14 L 8.75 17.5 L 15.75 17.5 L 16.1875 17.28125 L 19.25 14.21875 L 19.25 14 Z M 8.75 19.359375 L 8.75 22.75 L 14 22.75 L 14 19.359375 Z M 8.75 19.359375 "/>
<path style=" stroke:none;fill-rule:nonzero;fill:rgb(74.509804%,74.509804%,74.509804%);fill-opacity:1;" d="M 9.574219 0 C 8.714844 0 8.179688 0.398438 7.769531 0.820312 C 7.347656 1.242188 7 1.800781 7 2.621094 L 7 3.496094 L 3.5 3.496094 L 3.5 27.996094 L 17.5 27.996094 L 17.5 24.496094 L 7 24.496094 L 7 6.996094 L 10.5 6.996094 L 10.5 3.496094 L 17.5 3.496094 L 17.5 6.996094 L 21 6.996094 L 21 12.246094 L 24.5 12.246094 L 24.5 3.496094 L 21 3.496094 L 21 2.734375 C 20.957031 1.980469 20.699219 1.46875 20.289062 0.984375 C 19.894531 0.519531 19.191406 0.0546875 18.265625 0.0546875 L 18.265625 0 L 9.570312 0 Z M 9.574219 0 "/>
<path style=" stroke:none;fill-rule:nonzero;fill:rgb(74.509804%,74.509804%,74.509804%);fill-opacity:1;" d="M 22.3125 14 C 22 14.085938 21.714844 14.257812 21.492188 14.492188 L 16.242188 19.6875 C 15.832031 20.089844 15.640625 20.761719 15.75 21.328125 L 15.75 22.75 L 21.21875 22.75 L 19.742188 24.9375 C 19.476562 25.199219 19.3125 25.554688 19.25 25.921875 L 19.25 28 L 21 28 C 21.460938 28.007812 21.921875 27.773438 22.257812 27.453125 L 27.507812 22.203125 C 27.828125 21.871094 28.011719 21.460938 28 21 C 28.003906 20.925781 28.003906 20.855469 28 20.78125 L 28 19.25 L 26.359375 19.25 C 26.324219 19.25 26.285156 19.25 26.25 19.25 L 22.53125 19.25 L 24.007812 16.953125 C 24.273438 16.691406 24.4375 16.375 24.5 16.023438 L 24.5 14 Z M 22.3125 14 "/>
<path style=" stroke:none;fill-rule:nonzero;fill:rgb(0%,0%,0%);fill-opacity:1;" d="M 3.519531 15.742188 L 3.519531 3.496094 L 7.015625 3.496094 L 7.03125 2.785156 C 7.046875 2.171875 7.058594 2.039062 7.125 1.855469 C 7.421875 1.03125 8.179688 0.3125 8.992188 0.078125 C 9.191406 0.0195312 9.566406 0.015625 13.730469 0.00390625 C 16.84375 -0.00390625 18.253906 0.00390625 18.253906 0.0273438 C 18.253906 0.0507812 18.3125 0.0664062 18.382812 0.0664062 C 18.574219 0.0664062 19.039062 0.171875 19.269531 0.265625 C 19.863281 0.503906 20.398438 1.019531 20.710938 1.652344 C 20.890625 2.011719 20.964844 2.367188 20.988281 2.964844 L 21.011719 3.496094 L 24.503906 3.496094 L 24.503906 12.238281 L 21 12.238281 L 21 7 L 17.496094 7 L 17.496094 3.496094 L 10.488281 3.496094 L 10.488281 7 L 6.984375 7 L 6.984375 24.515625 L 17.496094 24.515625 L 17.496094 27.984375 L 3.519531 27.984375 Z M 3.519531 15.742188 "/>
<path style=" stroke:none;fill-rule:nonzero;fill:rgb(100%,100%,0%);fill-opacity:1;" d="M 19.273438 26.855469 L 19.285156 25.726562 L 19.414062 25.453125 C 19.484375 25.304688 19.59375 25.125 19.652344 25.054688 C 19.753906 24.9375 21.214844 22.796875 21.214844 22.761719 C 21.214844 22.753906 19.992188 22.746094 18.492188 22.746094 L 15.773438 22.746094 L 15.753906 21.78125 C 15.734375 20.71875 15.757812 20.503906 15.929688 20.148438 C 16.042969 19.910156 16.53125 19.414062 19.652344 16.332031 C 21.632812 14.378906 21.765625 14.253906 22.015625 14.132812 L 22.277344 14.007812 L 24.503906 14.007812 L 24.5 14.992188 C 24.5 16.03125 24.484375 16.179688 24.324219 16.5 C 24.277344 16.589844 24.179688 16.734375 24.105469 16.824219 C 23.921875 17.046875 22.519531 19.234375 22.542969 19.257812 C 22.554688 19.269531 23.777344 19.28125 25.265625 19.28125 L 27.964844 19.28125 L 27.976562 20.101562 C 27.992188 21.183594 27.96875 21.429688 27.820312 21.734375 C 27.71875 21.949219 27.472656 22.203125 24.851562 24.824219 C 22.386719 27.285156 21.964844 27.691406 21.78125 27.78125 C 21.398438 27.964844 21.277344 27.984375 20.230469 27.984375 L 19.261719 27.984375 Z M 19.273438 26.855469 "/>
<path style=" stroke:none;fill-rule:nonzero;fill:rgb(100%,0%,0%);fill-opacity:1;" d="M 8.757812 21.066406 L 8.757812 19.386719 L 13.992188 19.386719 L 13.992188 22.746094 L 8.757812 22.746094 Z M 8.757812 21.066406 "/>
<path style=" stroke:none;fill-rule:nonzero;fill:rgb(100%,0%,0%);fill-opacity:1;" d="M 8.757812 15.742188 L 8.757812 14.007812 L 19.230469 14.007812 L 19.230469 14.105469 C 19.230469 14.191406 18.972656 14.460938 17.683594 15.746094 C 16.484375 16.945312 16.097656 17.308594 15.953125 17.378906 L 15.765625 17.472656 L 8.757812 17.472656 Z M 8.757812 15.742188 "/>
<path style=" stroke:none;fill-rule:nonzero;fill:rgb(100%,0%,0%);fill-opacity:1;" d="M 8.757812 10.503906 L 8.757812 8.769531 L 19.230469 8.769531 L 19.230469 12.238281 L 8.757812 12.238281 Z M 8.757812 10.503906 "/>
<path style=" stroke:none;fill-rule:nonzero;fill:rgb(100%,100%,100%);fill-opacity:1;" d="M 3.535156 15.742188 L 3.535156 3.582031 L 7.09375 3.582031 L 7.09375 2.808594 C 7.09375 1.6875 7.511719 0.980469 8.574219 0.304688 C 8.898438 0.101562 9.261719 0.0820312 13.375 0.0429688 C 16.414062 0.015625 18.054688 0.046875 18.542969 0.140625 C 19.945312 0.410156 20.679688 1.210938 20.894531 2.691406 L 21.023438 3.582031 L 24.417969 3.582031 L 24.417969 12.125 L 21.097656 12.125 L 21.066406 9.542969 L 21.035156 6.964844 L 19.285156 6.929688 L 17.535156 6.898438 L 17.535156 3.464844 L 10.417969 3.464844 L 10.417969 6.90625 L 6.976562 6.90625 L 6.976562 24.582031 L 17.417969 24.582031 L 17.417969 27.90625 L 3.535156 27.90625 Z M 3.535156 15.742188 "/>
</g>
</svg>
