<?xml version="1.0" encoding="UTF-8"?>
<svg xmlns="http://www.w3.org/2000/svg" xmlns:xlink="http://www.w3.org/1999/xlink" width="28" height="28" viewBox="0 0 28 28" version="1.1">
<g id="surface1">
<path style=" stroke:none;fill-rule:nonzero;fill:rgb(80%,0%,0%);fill-opacity:1;" d="M 8.75 19.25 L 8.75 22.75 L 12.25 22.75 L 12.25 19.25 Z M 8.75 19.25 "/>
<path style=" stroke:none;fill-rule:nonzero;fill:rgb(74.509804%,74.509804%,74.509804%);fill-opacity:1;" d="M 9.574219 0 C 8.714844 0 8.179688 0.398438 7.769531 0.820312 C 7.347656 1.242188 7 1.800781 7 2.621094 L 7 3.496094 L 3.5 3.496094 L 3.5 27.996094 L 12.25 27.996094 L 12.25 24.496094 L 7 24.496094 L 7 6.996094 L 10.5 6.996094 L 10.5 3.496094 L 17.5 3.496094 L 17.5 6.996094 L 21 6.996094 L 21 12.246094 L 24.5 12.246094 L 24.5 3.496094 L 21 3.496094 L 21 2.734375 C 20.957031 1.980469 20.699219 1.46875 20.289062 0.984375 C 19.894531 0.519531 19.191406 0.0546875 18.265625 0.0546875 L 18.265625 0 L 9.570312 0 Z M 9.574219 0 "/>
<path style=" stroke:none;fill-rule:nonzero;fill:rgb(96.078431%,47.45098%,0%);fill-opacity:1;" d="M 15.539062 14 C 14.679688 14 14.007812 14.667969 14.007812 15.53125 L 14.007812 26.46875 C 14.007812 27.332031 14.679688 28 15.539062 28 L 26.476562 28 C 27.339844 28 28.007812 27.332031 28.007812 26.46875 L 28.007812 15.53125 C 28.007812 14.667969 27.339844 14 26.476562 14 Z M 19.257812 15.75 L 22.757812 15.75 L 22.757812 22.75 L 19.257812 22.75 Z M 19.257812 24.5 L 22.757812 24.5 L 22.757812 26.25 L 19.257812 26.25 Z M 19.257812 24.5 "/>
<path style=" stroke:none;fill-rule:nonzero;fill:rgb(0%,0%,0%);fill-opacity:1;" d="M 3.546875 15.761719 L 3.546875 3.519531 L 7.027344 3.519531 L 7.027344 2.898438 C 7.027344 2.183594 7.136719 1.730469 7.417969 1.289062 C 7.675781 0.886719 8.183594 0.4375 8.609375 0.234375 L 8.957031 0.0703125 L 13.480469 0.0507812 C 16.398438 0.0390625 18.183594 0.0546875 18.511719 0.0976562 C 19.5 0.230469 20.269531 0.777344 20.703125 1.660156 C 20.890625 2.039062 20.914062 2.15625 20.945312 2.785156 L 20.980469 3.488281 L 22.734375 3.503906 L 24.492188 3.519531 L 24.492188 12.25 L 21.011719 12.25 L 21.011719 7 L 17.53125 7 L 17.53125 3.457031 L 10.507812 3.457031 L 10.507812 7 L 6.964844 7 L 6.964844 24.527344 L 12.214844 24.527344 L 12.214844 28.007812 L 3.546875 28.007812 Z M 3.546875 15.761719 "/>
<path style=" stroke:none;fill-rule:nonzero;fill:rgb(100%,100%,100%);fill-opacity:1;" d="M 3.652344 15.742188 L 3.652344 3.582031 L 7.09375 3.582031 L 7.09375 2.867188 C 7.09375 1.761719 7.410156 1.15625 8.328125 0.480469 L 8.792969 0.140625 L 13.667969 0.144531 C 16.5 0.144531 18.71875 0.191406 18.964844 0.261719 C 19.949219 0.535156 20.75 1.476562 20.824219 2.449219 C 20.917969 3.6875 20.75 3.582031 22.699219 3.582031 L 24.417969 3.582031 L 24.417969 12.242188 L 21.09375 12.242188 L 21.09375 6.90625 L 17.535156 6.90625 L 17.535156 3.34375 L 14.007812 3.375 L 10.476562 3.40625 L 10.445312 5.152344 L 10.410156 6.898438 L 8.664062 6.929688 L 6.917969 6.964844 L 6.855469 24.582031 L 12.195312 24.582031 L 12.195312 27.90625 L 3.652344 27.90625 Z M 3.652344 15.742188 "/>
</g>
</svg>
