<?xml version="1.0" encoding="UTF-8"?>
<svg xmlns="http://www.w3.org/2000/svg" xmlns:xlink="http://www.w3.org/1999/xlink" width="28" height="28" viewBox="0 0 28 28" version="1.1">
<g id="surface1">
<path style=" stroke:none;fill-rule:nonzero;fill:rgb(74.509804%,74.509804%,74.509804%);fill-opacity:1;" d="M 8.75 14 L 8.75 17.5 L 19.25 17.5 L 19.25 14 Z M 8.75 14 "/>
<path style=" stroke:none;fill-rule:nonzero;fill:rgb(74.509804%,74.509804%,74.509804%);fill-opacity:1;" d="M 9.570312 0 C 8.710938 0 8.175781 0.398438 7.765625 0.820312 C 7.351562 1.242188 7 1.800781 7 2.621094 L 7 3.496094 L 3.5 3.496094 L 3.5 27.996094 L 24.5 27.996094 L 24.5 3.496094 L 21 3.496094 L 21 2.789062 C 20.957031 2.035156 20.703125 1.46875 20.289062 0.984375 C 19.898438 0.519531 19.191406 0.0546875 18.265625 0.0546875 L 18.265625 0 Z M 10.5 3.5 L 17.5 3.5 L 17.5 7 L 21 7 L 21 24.5 L 7 24.5 L 7 7 L 10.5 7 Z M 10.5 3.5 "/>
<path style=" stroke:none;fill-rule:nonzero;fill:rgb(74.509804%,74.509804%,74.509804%);fill-opacity:1;" d="M 8.75 19.25 L 8.75 22.75 L 19.25 22.75 L 19.25 19.25 Z M 8.75 19.25 "/>
<path style=" stroke:none;fill-rule:nonzero;fill:rgb(0%,0%,0%);fill-opacity:1;" d="M 3.519531 15.742188 L 3.519531 3.496094 L 7.023438 3.496094 L 7.023438 2.890625 C 7.023438 2.402344 7.035156 2.226562 7.09375 2.003906 C 7.316406 1.136719 8.109375 0.332031 8.992188 0.078125 C 9.191406 0.0195312 9.566406 0.015625 13.730469 0.00390625 C 16.84375 -0.00390625 18.253906 0.00390625 18.253906 0.0273438 C 18.253906 0.0507812 18.3125 0.0664062 18.382812 0.0664062 C 18.574219 0.0664062 19.039062 0.171875 19.269531 0.265625 C 19.871094 0.507812 20.417969 1.039062 20.707031 1.660156 C 20.886719 2.035156 20.964844 2.410156 20.988281 2.984375 L 21.011719 3.496094 L 24.503906 3.496094 L 24.503906 27.984375 L 3.519531 27.984375 Z M 21 15.757812 L 21 7 L 17.496094 7 L 17.496094 3.496094 L 10.488281 3.496094 L 10.488281 7 L 6.984375 7 L 6.984375 24.515625 L 21 24.515625 Z M 21 15.757812 "/>
<path style=" stroke:none;fill-rule:nonzero;fill:rgb(100%,0%,0%);fill-opacity:1;" d="M 8.757812 15.742188 L 8.757812 14.007812 L 19.230469 14.007812 L 19.230469 17.472656 L 8.757812 17.472656 Z M 8.757812 15.742188 "/>
<path style=" stroke:none;fill-rule:nonzero;fill:rgb(100%,0%,0%);fill-opacity:1;" d="M 8.757812 21.015625 L 8.757812 19.28125 L 19.230469 19.28125 L 19.230469 22.746094 L 8.757812 22.746094 Z M 8.757812 21.015625 "/>
<path style=" stroke:none;fill-rule:nonzero;fill:rgb(100%,100%,100%);fill-opacity:1;" d="M 3.535156 15.742188 L 3.535156 3.582031 L 7.09375 3.582031 L 7.09375 2.867188 C 7.09375 1.730469 7.53125 0.957031 8.519531 0.339844 C 8.921875 0.0898438 9.054688 0.0820312 13.378906 0.0429688 C 16.414062 0.015625 18.054688 0.046875 18.542969 0.140625 C 19.945312 0.410156 20.679688 1.210938 20.894531 2.691406 L 21.023438 3.582031 L 24.417969 3.582031 L 24.417969 27.90625 L 3.535156 27.90625 Z M 21.066406 15.773438 L 21.035156 6.964844 L 19.285156 6.929688 L 17.535156 6.898438 L 17.535156 3.464844 L 10.417969 3.464844 L 10.417969 6.90625 L 6.976562 6.90625 L 6.976562 24.582031 L 21.097656 24.582031 Z M 21.066406 15.773438 "/>
</g>
</svg>
