<?xml version="1.0" encoding="UTF-8"?>
<svg xmlns="http://www.w3.org/2000/svg" xmlns:xlink="http://www.w3.org/1999/xlink" width="28" height="28" viewBox="0 0 28 28" version="1.1">
<g id="surface1">
<path style=" stroke:none;fill-rule:nonzero;fill:rgb(0%,0%,0%);fill-opacity:1;" d="M 8.75 8.75 L 8.75 12.25 L 19.25 12.25 L 19.25 8.75 Z M 8.75 8.75 "/>
<path style=" stroke:none;fill-rule:nonzero;fill:rgb(0%,0%,0%);fill-opacity:1;" d="M 9.570312 0 C 8.710938 0 8.175781 0.398438 7.765625 0.820312 C 7.355469 1.242188 7 1.742188 7 2.570312 L 7 3.496094 L 3.5 3.496094 L 3.5 27.996094 L 24.5 27.996094 L 24.5 3.496094 L 21 3.496094 L 21 2.734375 C 20.960938 1.980469 20.703125 1.46875 20.289062 0.984375 C 19.898438 0.519531 19.191406 0.0546875 18.265625 0.0546875 L 18.265625 0 Z M 10.5 3.5 L 17.5 3.5 L 17.5 7 L 21 7 L 21 24.5 L 7 24.5 L 7 7 L 10.5 7 Z M 10.5 3.5 "/>
<path style=" stroke:none;fill-rule:nonzero;fill:rgb(0%,0%,0%);fill-opacity:1;" d="M 8.75 14 L 8.75 17.5 L 19.25 17.5 L 19.25 14 Z M 8.75 14 "/>
<path style=" stroke:none;fill-rule:nonzero;fill:rgb(0%,0%,0%);fill-opacity:1;" d="M 8.75 19.25 L 8.75 22.75 L 19.25 22.75 L 19.25 19.25 Z M 8.75 19.25 "/>
<path style=" stroke:none;fill-rule:nonzero;fill:rgb(100%,0%,0%);fill-opacity:1;" d="M 8.757812 10.503906 L 8.757812 8.769531 L 19.230469 8.769531 L 19.230469 12.238281 L 8.757812 12.238281 Z M 8.757812 10.503906 "/>
<path style=" stroke:none;fill-rule:nonzero;fill:rgb(100%,0%,0%);fill-opacity:1;" d="M 8.757812 15.742188 L 8.757812 14.007812 L 19.230469 14.007812 L 19.230469 17.472656 L 8.757812 17.472656 Z M 8.757812 15.742188 "/>
<path style=" stroke:none;fill-rule:nonzero;fill:rgb(100%,0%,0%);fill-opacity:1;" d="M 8.757812 21.015625 L 8.757812 19.28125 L 19.230469 19.28125 L 19.230469 22.746094 L 8.757812 22.746094 Z M 8.757812 21.015625 "/>
<path style=" stroke:none;fill-rule:nonzero;fill:rgb(100%,100%,100%);fill-opacity:1;" d="M 3.535156 15.742188 L 3.535156 3.582031 L 7.09375 3.582031 L 7.09375 2.808594 C 7.09375 2.382812 7.167969 1.859375 7.253906 1.652344 C 7.476562 1.121094 8.402344 0.304688 8.953125 0.152344 C 9.542969 -0.0117188 17.742188 -0.0195312 18.617188 0.144531 C 19.933594 0.390625 20.835938 1.421875 20.945312 2.804688 L 21.007812 3.582031 L 24.417969 3.582031 L 24.417969 27.90625 L 3.535156 27.90625 Z M 21.09375 15.742188 L 21.09375 6.90625 L 17.535156 6.90625 L 17.535156 3.464844 L 10.417969 3.464844 L 10.417969 6.90625 L 6.976562 6.90625 L 6.976562 24.582031 L 21.09375 24.582031 Z M 21.09375 15.742188 "/>
</g>
</svg>
