<?xml version="1.0" encoding="UTF-8"?>
<svg xmlns="http://www.w3.org/2000/svg" xmlns:xlink="http://www.w3.org/1999/xlink" width="28" height="28" viewBox="0 0 28 28" version="1.1">
<g id="surface1">
<path style=" stroke:none;fill-rule:nonzero;fill:rgb(74.509804%,74.509804%,74.509804%);fill-opacity:1;" d="M 9.574219 0 C 8.714844 0 8.179688 0.398438 7.769531 0.820312 C 7.347656 1.242188 7 1.800781 7 2.621094 L 7 3.496094 L 3.5 3.496094 L 3.5 27.996094 L 17.5 27.996094 L 17.5 24.496094 L 7 24.496094 L 7 6.996094 L 10.5 6.996094 L 10.5 3.496094 L 17.5 3.496094 L 17.5 6.996094 L 21 6.996094 L 21 12.246094 L 24.5 12.246094 L 24.5 3.496094 L 21 3.496094 L 21 2.734375 C 20.957031 1.980469 20.699219 1.46875 20.289062 0.984375 C 19.894531 0.519531 19.191406 0.0546875 18.265625 0.0546875 L 18.265625 0 L 9.570312 0 Z M 9.574219 0 "/>
<path style=" stroke:none;fill-rule:nonzero;fill:rgb(74.509804%,74.509804%,74.509804%);fill-opacity:1;" d="M 22.539062 14 C 22.148438 14.042969 21.78125 14.214844 21.5 14.492188 L 16.25 19.742188 C 15.734375 20.242188 15.574219 21.007812 15.847656 21.671875 C 16.121094 22.335938 16.773438 22.765625 17.492188 22.753906 L 21.976562 22.753906 L 19.734375 24.992188 C 19.28125 25.441406 19.101562 26.101562 19.265625 26.71875 C 19.429688 27.335938 19.910156 27.816406 20.527344 27.980469 C 21.144531 28.144531 21.804688 27.964844 22.25 27.507812 L 27.5 22.257812 C 28.019531 21.757812 28.179688 20.988281 27.902344 20.324219 C 27.621094 19.65625 26.964844 19.230469 26.242188 19.25 L 21.757812 19.25 L 24 17.007812 C 24.5625 16.484375 24.71875 15.648438 24.378906 14.957031 C 24.042969 14.265625 23.289062 13.875 22.527344 13.996094 Z M 22.539062 14 "/>
<path style=" stroke:none;fill-rule:nonzero;fill:rgb(74.509804%,74.509804%,74.509804%);fill-opacity:1;" d="M 26.25 19.25 L 28 19.25 L 28 21 L 26.25 21 Z M 26.25 19.25 "/>
<path style=" stroke:none;fill-rule:nonzero;fill:rgb(74.509804%,74.509804%,74.509804%);fill-opacity:1;" d="M 15.75 21 L 17.5 21 L 17.5 22.75 L 15.75 22.75 Z M 15.75 21 "/>
<path style=" stroke:none;fill-rule:nonzero;fill:rgb(74.509804%,74.509804%,74.509804%);fill-opacity:1;" d="M 22.75 14 L 24.5 14 L 24.5 15.75 L 22.75 15.75 Z M 22.75 14 "/>
<path style=" stroke:none;fill-rule:nonzero;fill:rgb(74.509804%,74.509804%,74.509804%);fill-opacity:1;" d="M 19.25 26.25 L 21 26.25 L 21 28 L 19.25 28 Z M 19.25 26.25 "/>
<path style=" stroke:none;fill-rule:nonzero;fill:rgb(74.509804%,74.509804%,74.509804%);fill-opacity:1;" d="M 21.28125 14.769531 L 17.78125 20.019531 L 20.734375 21.988281 L 24.234375 16.738281 Z M 21.28125 14.769531 "/>
<path style=" stroke:none;fill-rule:nonzero;fill:rgb(74.509804%,74.509804%,74.509804%);fill-opacity:1;" d="M 23.03125 20.019531 L 19.53125 25.269531 L 22.484375 27.238281 L 25.984375 21.988281 Z M 23.03125 20.019531 "/>
<path style=" stroke:none;fill-rule:nonzero;fill:rgb(0%,0%,0%);fill-opacity:1;" d="M 3.546875 15.746094 L 3.546875 3.535156 L 7.011719 3.535156 L 7.039062 2.753906 C 7.0625 2.027344 7.078125 1.941406 7.265625 1.558594 C 7.507812 1.070312 8.109375 0.472656 8.582031 0.246094 C 8.753906 0.167969 9.078125 0.078125 9.304688 0.046875 C 9.53125 0.0195312 11.59375 -0.0078125 13.886719 -0.0078125 C 18.4375 -0.0078125 18.675781 0.0078125 19.429688 0.355469 C 19.914062 0.585938 20.460938 1.148438 20.710938 1.679688 C 20.886719 2.058594 20.917969 2.195312 20.945312 2.804688 L 20.980469 3.503906 L 22.734375 3.519531 L 24.492188 3.535156 L 24.492188 12.203125 L 21.011719 12.203125 L 21.011719 6.953125 L 17.53125 6.953125 L 17.53125 3.472656 L 10.507812 3.472656 L 10.507812 6.949219 L 6.996094 6.984375 L 6.996094 24.511719 L 17.46875 24.542969 L 17.46875 27.960938 L 3.546875 27.960938 Z M 3.546875 15.746094 "/>
<path style=" stroke:none;fill-rule:nonzero;fill:rgb(100%,100%,0%);fill-opacity:1;" d="M 19.992188 27.980469 L 19.320312 27.953125 L 19.277344 26.960938 C 19.242188 26.171875 19.25 25.914062 19.324219 25.710938 C 19.371094 25.574219 19.816406 24.863281 20.308594 24.136719 C 20.796875 23.40625 21.199219 22.785156 21.199219 22.757812 C 21.199219 22.726562 20.328125 22.703125 19.253906 22.707031 C 18.183594 22.710938 16.957031 22.710938 16.53125 22.710938 L 15.75 22.707031 L 15.769531 21.582031 C 15.789062 20.640625 15.808594 20.425781 15.90625 20.238281 C 15.972656 20.117188 17.308594 18.730469 18.878906 17.15625 C 21.230469 14.800781 21.789062 14.269531 22.050781 14.15625 C 22.347656 14.023438 22.453125 14.015625 23.414062 14.027344 C 23.984375 14.035156 24.460938 14.050781 24.46875 14.058594 C 24.476562 14.0625 24.492188 14.527344 24.503906 15.082031 C 24.519531 15.859375 24.5 16.148438 24.429688 16.316406 C 24.382812 16.4375 23.953125 17.121094 23.476562 17.835938 C 23.003906 18.546875 22.59375 19.167969 22.570312 19.210938 C 22.53125 19.273438 23.074219 19.289062 25.222656 19.289062 C 26.707031 19.285156 27.933594 19.292969 27.945312 19.304688 C 27.953125 19.316406 27.972656 19.792969 27.980469 20.367188 C 27.996094 21.335938 27.988281 21.433594 27.855469 21.726562 C 27.742188 21.980469 27.164062 22.589844 24.882812 24.871094 C 21.789062 27.964844 21.792969 27.960938 21.046875 27.988281 C 20.835938 27.996094 20.359375 27.992188 19.992188 27.980469 Z M 19.992188 27.980469 "/>
<path style=" stroke:none;fill-rule:nonzero;fill:rgb(100%,100%,100%);fill-opacity:1;" d="M 3.652344 15.742188 L 3.652344 3.582031 L 7.070312 3.582031 L 7.113281 2.710938 C 7.164062 1.730469 7.472656 1.121094 8.207031 0.5625 C 8.851562 0.0703125 9.726562 -0.00390625 14.433594 0.046875 C 18.148438 0.0859375 18.71875 0.117188 19.136719 0.300781 C 20.128906 0.738281 20.859375 1.746094 20.859375 2.679688 C 20.859375 3.613281 20.796875 3.582031 22.710938 3.582031 L 24.417969 3.582031 L 24.417969 12.125 L 21.09375 12.125 L 21.09375 6.90625 L 17.535156 6.90625 L 17.535156 3.464844 L 10.417969 3.464844 L 10.417969 6.90625 L 6.976562 6.90625 L 6.976562 24.582031 L 17.417969 24.582031 L 17.417969 27.90625 L 3.652344 27.90625 Z M 3.652344 15.742188 "/>
</g>
</svg>
