<?xml version="1.0" encoding="UTF-8"?>
<svg xmlns="http://www.w3.org/2000/svg" xmlns:xlink="http://www.w3.org/1999/xlink" width="28" height="28" viewBox="0 0 28 28" version="1.1">
<g id="surface1">
<path style=" stroke:none;fill-rule:nonzero;fill:rgb(100%,100%,100%);fill-opacity:1;" d="M 14 1.167969 C 13.953125 1.167969 13.902344 1.175781 13.855469 1.183594 C 13.40625 1.300781 13.078125 1.675781 13.015625 2.132812 C 13.015625 2.152344 13.015625 2.167969 13.015625 2.1875 C 12.996094 2.207031 12.980469 2.222656 12.960938 2.242188 C 12.957031 2.273438 12.957031 2.304688 12.960938 2.332031 C 12.929688 2.414062 12.910156 2.5 12.90625 2.589844 L 12.960938 11.265625 L 10.042969 8.3125 C 9.792969 7.9375 9.339844 7.746094 8.894531 7.828125 C 8.445312 7.910156 8.09375 8.253906 7.996094 8.695312 C 7.898438 9.136719 8.070312 9.597656 8.441406 9.863281 L 12.503906 13.980469 L 8.441406 18.046875 C 8.132812 18.328125 8.003906 18.757812 8.109375 19.160156 C 8.210938 19.5625 8.527344 19.882812 8.929688 19.984375 C 9.332031 20.085938 9.761719 19.957031 10.042969 19.652344 L 13.015625 16.644531 L 13.050781 25.320312 C 13.0625 25.390625 13.078125 25.457031 13.105469 25.519531 C 13.105469 25.539062 13.105469 25.558594 13.105469 25.574219 C 13.050781 26.050781 13.304688 26.507812 13.730469 26.722656 C 14.160156 26.933594 14.675781 26.855469 15.019531 26.523438 L 20.636719 20.507812 C 21.039062 20.054688 21.015625 19.363281 20.582031 18.941406 L 15.675781 13.980469 L 20.582031 8.96875 C 21.015625 8.546875 21.039062 7.855469 20.636719 7.402344 L 14.910156 1.53125 C 14.679688 1.277344 14.34375 1.144531 14 1.167969 Z M 14.511719 4.355469 L 18.230469 8.167969 L 14.566406 11.867188 Z M 22.292969 9.753906 C 21.824219 9.753906 21.351562 9.894531 20.980469 10.226562 C 20.609375 10.558594 20.363281 11.078125 20.363281 11.683594 L 20.363281 12.597656 L 20.34375 12.597656 C 19.804688 12.597656 19.359375 13.042969 19.359375 13.582031 L 19.359375 16.460938 C 19.359375 17 19.804688 17.445312 20.34375 17.445312 L 24.207031 17.445312 C 24.746094 17.445312 25.175781 17 25.175781 16.460938 L 25.175781 13.582031 C 25.175781 13.050781 24.769531 12.613281 24.246094 12.597656 L 24.246094 11.683594 C 24.246094 11.078125 23.976562 10.558594 23.605469 10.226562 C 23.234375 9.894531 22.765625 9.753906 22.292969 9.753906 Z M 22.292969 10.71875 C 22.550781 10.71875 22.796875 10.804688 22.96875 10.957031 C 23.140625 11.109375 23.277344 11.320312 23.277344 11.683594 L 23.277344 12.597656 L 21.328125 12.597656 L 21.328125 11.683594 C 21.328125 11.320312 21.445312 11.109375 21.621094 10.957031 C 21.792969 10.804688 22.039062 10.71875 22.292969 10.71875 Z M 14.621094 16.132812 L 18.230469 19.761719 L 14.65625 23.570312 Z M 14.621094 16.132812 "/>
</g>
</svg>
