<?xml version="1.0" encoding="UTF-8"?>
<svg xmlns="http://www.w3.org/2000/svg" xmlns:xlink="http://www.w3.org/1999/xlink" width="28" height="28" viewBox="0 0 28 28" version="1.1">
<g id="surface1">
<path style=" stroke:none;fill-rule:nonzero;fill:rgb(74.509804%,74.509804%,74.509804%);fill-opacity:1;" d="M 12.03125 0.015625 C 11.152344 0.128906 10.492188 0.878906 10.5 1.765625 L 10.5 8 L 8.257812 5.761719 C 7.808594 5.304688 7.152344 5.125 6.535156 5.289062 C 5.917969 5.453125 5.433594 5.933594 5.269531 6.550781 C 5.105469 7.167969 5.285156 7.828125 5.742188 8.277344 L 10.5 13.035156 L 10.5 15.003906 L 5.742188 19.761719 C 5.285156 20.210938 5.105469 20.867188 5.269531 21.484375 C 5.433594 22.101562 5.914062 22.585938 6.53125 22.75 C 7.148438 22.914062 7.808594 22.734375 8.257812 22.277344 L 10.5 20.039062 L 10.5 26.269531 C 10.484375 26.988281 10.910156 27.644531 11.574219 27.925781 C 12.238281 28.203125 13.007812 28.042969 13.507812 27.527344 L 20.507812 20.527344 C 20.847656 20.195312 21.039062 19.742188 21.039062 19.269531 C 21.039062 18.792969 20.847656 18.339844 20.507812 18.011719 L 16.515625 14.019531 L 20.507812 10.027344 C 20.847656 9.699219 21.042969 9.242188 21.042969 8.769531 C 21.042969 8.296875 20.847656 7.839844 20.507812 7.511719 L 13.507812 0.511719 C 13.121094 0.125 12.574219 -0.0546875 12.03125 0.0234375 Z M 14 6.039062 L 16.734375 8.765625 L 14 11.496094 L 14 6.027344 Z M 14 16.539062 L 16.734375 19.265625 L 14 21.996094 L 14 16.527344 Z M 14 16.539062 "/>
<path style=" stroke:none;fill-rule:nonzero;fill:rgb(74.509804%,74.509804%,74.509804%);fill-opacity:1;" d="M 5.25 5.265625 L 7 5.265625 L 7 7.015625 L 5.25 7.015625 Z M 5.25 5.265625 "/>
<path style=" stroke:none;fill-rule:nonzero;fill:rgb(74.509804%,74.509804%,74.509804%);fill-opacity:1;" d="M 5.25 21.015625 L 7 21.015625 L 7 22.765625 L 5.25 22.765625 Z M 5.25 21.015625 "/>
<path style=" stroke:none;fill-rule:nonzero;fill:rgb(74.509804%,74.509804%,74.509804%);fill-opacity:1;" d="M 10.5 26.265625 L 12.25 26.265625 L 12.25 28.015625 L 10.5 28.015625 Z M 10.5 26.265625 "/>
<path style=" stroke:none;fill-rule:nonzero;fill:rgb(74.509804%,74.509804%,74.509804%);fill-opacity:1;" d="M 10.5 0.015625 L 12.25 0.015625 L 12.25 1.765625 L 10.5 1.765625 Z M 10.5 0.015625 "/>
</g>
</svg>
