<?xml version="1.0" encoding="UTF-8"?>
<svg xmlns="http://www.w3.org/2000/svg" xmlns:xlink="http://www.w3.org/1999/xlink" width="28" height="28" viewBox="0 0 28 28" version="1.1">
<g id="surface1">
<path style=" stroke:none;fill-rule:nonzero;fill:rgb(74.509804%,74.509804%,74.509804%);fill-opacity:1;" d="M 8.75 0 C 5.871094 0 3.5 2.371094 3.5 5.25 L 3.5 10.5 L 7 10.5 L 7 5.25 C 7 4.25 7.75 3.5 8.75 3.5 L 12.25 3.5 C 13.25 3.5 14 4.25 14 5.25 L 14 5.6875 C 14.46875 5.425781 14.972656 5.25 15.53125 5.25 L 17.5 5.25 C 17.5 2.371094 15.128906 0 12.25 0 Z M 3.390625 15.75 C 2.421875 15.75 1.527344 16.535156 1.640625 17.5 L 1.640625 26.25 L 19.25 26.25 L 19.25 22.75 L 15.53125 22.75 C 13.761719 22.75 12.25 21.238281 12.25 19.46875 L 12.25 15.75 Z M 3.390625 15.75 "/>
<path style=" stroke:none;fill-rule:nonzero;fill:rgb(96.078431%,47.45098%,0%);fill-opacity:1;" d="M 15.539062 7 C 14.679688 7 14.007812 7.667969 14.007812 8.53125 L 14.007812 19.46875 C 14.007812 20.332031 14.679688 21 15.539062 21 L 26.476562 21 C 27.339844 21 28.007812 20.332031 28.007812 19.46875 L 28.007812 8.53125 C 28.007812 7.671875 27.34375 7.007812 26.46875 7.007812 L 15.53125 7.007812 Z M 19.257812 8.75 L 22.757812 8.75 L 22.757812 15.75 L 19.257812 15.75 Z M 19.257812 17.5 L 22.757812 17.5 L 22.757812 19.25 L 19.257812 19.25 Z M 19.257812 17.5 "/>
<path style=" stroke:none;fill-rule:nonzero;fill:rgb(100%,100%,100%);fill-opacity:1;" d="M 3.535156 7.582031 C 3.535156 5.375 3.578125 4.539062 3.71875 4.003906 C 4.226562 2.050781 5.855469 0.511719 7.800781 0.144531 C 8.808594 -0.046875 12.617188 -0.0078125 13.421875 0.203125 C 14.761719 0.550781 15.828125 1.277344 16.535156 2.320312 C 16.988281 2.992188 17.417969 4.214844 17.417969 4.839844 L 17.417969 5.242188 L 16.167969 5.242188 C 15.351562 5.242188 14.777344 5.304688 14.511719 5.414062 L 14.105469 5.582031 L 14.027344 5.042969 C 13.925781 4.375 13.410156 3.753906 12.808594 3.574219 C 12.542969 3.496094 11.542969 3.460938 10.21875 3.484375 C 8.257812 3.519531 8.03125 3.546875 7.726562 3.769531 C 7.027344 4.28125 6.976562 4.546875 6.976562 7.648438 L 6.976562 10.464844 L 3.535156 10.464844 Z M 3.535156 7.582031 "/>
<path style=" stroke:none;fill-rule:nonzero;fill:rgb(100%,100%,100%);fill-opacity:1;" d="M 1.664062 21.566406 C 1.695312 17.050781 1.707031 16.875 1.941406 16.554688 C 2.488281 15.808594 2.539062 15.804688 7.589844 15.804688 L 12.179688 15.804688 L 12.21875 18.027344 C 12.261719 20.546875 12.363281 20.925781 13.21875 21.78125 C 14.074219 22.636719 14.453125 22.738281 16.972656 22.78125 L 19.195312 22.820312 L 19.195312 26.242188 L 1.628906 26.242188 Z M 1.664062 21.566406 "/>
</g>
</svg>
