<?xml version="1.0" encoding="UTF-8"?>
<svg xmlns="http://www.w3.org/2000/svg" xmlns:xlink="http://www.w3.org/1999/xlink" width="28" height="28" viewBox="0 0 28 28" version="1.1">
<g id="surface1">
<path style=" stroke:none;fill-rule:nonzero;fill:rgb(100%,100%,100%);fill-opacity:1;" d="M 0.875 12.25 L 4.375 12.25 C 4.859375 12.25 5.25 12.640625 5.25 13.125 L 5.25 14.875 C 5.25 15.359375 4.859375 15.75 4.375 15.75 L 0.875 15.75 C 0.390625 15.75 0 15.359375 0 14.875 L 0 13.125 C 0 12.640625 0.390625 12.25 0.875 12.25 Z M 0.875 12.25 "/>
<path style=" stroke:none;fill-rule:nonzero;fill:rgb(100%,100%,100%);fill-opacity:1;" d="M 23.625 12.25 L 27.125 12.25 C 27.609375 12.25 28 12.640625 28 13.125 L 28 14.875 C 28 15.359375 27.609375 15.75 27.125 15.75 L 23.625 15.75 C 23.140625 15.75 22.75 15.359375 22.75 14.875 L 22.75 13.125 C 22.75 12.640625 23.140625 12.25 23.625 12.25 Z M 23.625 12.25 "/>
<path style=" stroke:none;fill-rule:nonzero;fill:rgb(100%,100%,100%);fill-opacity:1;" d="M 3.476562 22.042969 L 5.949219 19.570312 C 6.292969 19.226562 6.847656 19.226562 7.1875 19.570312 L 8.425781 20.804688 C 8.765625 21.148438 8.765625 21.703125 8.425781 22.042969 L 5.949219 24.519531 C 5.609375 24.859375 5.054688 24.859375 4.714844 24.519531 L 3.476562 23.28125 C 3.132812 22.941406 3.132812 22.386719 3.476562 22.042969 Z M 3.476562 22.042969 "/>
<path style=" stroke:none;fill-rule:nonzero;fill:rgb(100%,100%,100%);fill-opacity:1;" d="M 19.5625 5.957031 L 22.039062 3.484375 C 22.378906 3.140625 22.933594 3.140625 23.273438 3.484375 L 24.511719 4.71875 C 24.855469 5.0625 24.855469 5.617188 24.511719 5.957031 L 22.035156 8.433594 C 21.695312 8.773438 21.140625 8.773438 20.800781 8.433594 L 19.5625 7.195312 C 19.222656 6.851562 19.21875 6.300781 19.5625 5.957031 Z M 19.5625 5.957031 "/>
<path style=" stroke:none;fill-rule:nonzero;fill:rgb(100%,100%,100%);fill-opacity:1;" d="M 12.25 27.125 L 12.25 23.625 C 12.25 23.140625 12.640625 22.75 13.125 22.75 L 14.875 22.75 C 15.359375 22.75 15.75 23.140625 15.75 23.625 L 15.75 27.125 C 15.75 27.609375 15.359375 28 14.875 28 L 13.125 28 C 12.640625 28 12.25 27.609375 12.25 27.125 Z M 12.25 27.125 "/>
<path style=" stroke:none;fill-rule:nonzero;fill:rgb(100%,100%,100%);fill-opacity:1;" d="M 12.25 4.375 L 12.25 0.875 C 12.25 0.390625 12.640625 0 13.125 0 L 14.875 0 C 15.359375 0 15.75 0.390625 15.75 0.875 L 15.75 4.375 C 15.75 4.859375 15.359375 5.25 14.875 5.25 L 13.125 5.25 C 12.640625 5.25 12.25 4.859375 12.25 4.375 Z M 12.25 4.375 "/>
<path style=" stroke:none;fill-rule:nonzero;fill:rgb(100%,100%,100%);fill-opacity:1;" d="M 22.039062 24.519531 L 19.5625 22.042969 C 19.21875 21.703125 19.21875 21.148438 19.5625 20.804688 L 20.800781 19.570312 C 21.140625 19.226562 21.695312 19.226562 22.035156 19.570312 L 24.511719 22.042969 C 24.855469 22.386719 24.855469 22.941406 24.511719 23.28125 L 23.273438 24.519531 C 22.933594 24.859375 22.378906 24.859375 22.039062 24.519531 Z M 22.039062 24.519531 "/>
<path style=" stroke:none;fill-rule:nonzero;fill:rgb(100%,100%,100%);fill-opacity:1;" d="M 5.949219 8.433594 L 3.476562 5.957031 C 3.132812 5.617188 3.132812 5.0625 3.476562 4.71875 L 4.714844 3.484375 C 5.054688 3.140625 5.609375 3.140625 5.949219 3.484375 L 8.425781 5.957031 C 8.765625 6.300781 8.765625 6.851562 8.425781 7.195312 L 7.1875 8.433594 C 6.847656 8.773438 6.292969 8.773438 5.949219 8.433594 Z M 5.949219 8.433594 "/>
<path style=" stroke:none;fill-rule:nonzero;fill:rgb(100%,100%,100%);fill-opacity:1;" d="M 13.980469 7.015625 C 10.136719 7.015625 7.015625 10.136719 7.015625 13.980469 C 7.015625 17.828125 10.136719 20.996094 13.980469 20.996094 C 17.828125 20.996094 20.996094 17.828125 20.996094 13.980469 C 20.996094 10.136719 17.828125 7.015625 13.980469 7.015625 Z M 13.980469 10.5 C 15.933594 10.5 17.515625 12.027344 17.515625 13.980469 C 17.515625 15.933594 15.933594 17.515625 13.980469 17.515625 C 12.027344 17.515625 10.5 15.933594 10.5 13.980469 C 10.5 12.027344 12.027344 10.5 13.980469 10.5 Z M 13.980469 10.5 "/>
</g>
</svg>
