<?xml version="1.0" encoding="UTF-8"?>
<svg xmlns="http://www.w3.org/2000/svg" xmlns:xlink="http://www.w3.org/1999/xlink" width="28" height="28" viewBox="0 0 28 28" version="1.1">
<g id="surface1">
<path style=" stroke:none;fill-rule:nonzero;fill:rgb(100%,100%,100%);fill-opacity:1;" d="M 14 10.976562 C 10.421875 10.976562 7.1875 12.429688 4.84375 14.773438 C 4.789062 14.824219 4.757812 14.90625 4.757812 14.980469 C 4.757812 15.058594 4.789062 15.121094 4.84375 15.171875 L 6.628906 16.960938 C 6.683594 17.011719 6.746094 17.042969 6.820312 17.042969 C 6.894531 17.042969 6.976562 17.011719 7.027344 16.960938 C 8.816406 15.171875 11.273438 14.0625 14 14.0625 C 16.726562 14.0625 19.1875 15.171875 20.972656 16.960938 C 21.023438 17.011719 21.105469 17.042969 21.179688 17.042969 C 21.253906 17.042969 21.320312 17.011719 21.371094 16.960938 L 23.15625 15.171875 C 23.210938 15.121094 23.242188 15.058594 23.242188 14.980469 C 23.242188 14.90625 23.210938 14.824219 23.15625 14.773438 C 20.8125 12.429688 17.578125 10.976562 14 10.976562 Z M 14 16.039062 C 11.824219 16.039062 9.859375 16.9375 8.433594 18.363281 C 8.378906 18.414062 8.347656 18.480469 8.347656 18.554688 C 8.347656 18.628906 8.378906 18.710938 8.433594 18.761719 L 10.21875 20.53125 C 10.328125 20.632812 10.492188 20.632812 10.601562 20.53125 C 11.46875 19.664062 12.671875 19.125 14 19.125 C 15.328125 19.125 16.53125 19.664062 17.398438 20.53125 C 17.507812 20.632812 17.671875 20.632812 17.78125 20.53125 L 19.566406 18.761719 C 19.621094 18.710938 19.652344 18.628906 19.652344 18.554688 C 19.652344 18.480469 19.621094 18.414062 19.566406 18.363281 C 18.140625 16.9375 16.175781 16.039062 14 16.039062 Z M 14 21.121094 C 13.222656 21.121094 12.53125 21.445312 12.023438 21.953125 C 11.921875 22.058594 11.921875 22.226562 12.023438 22.335938 L 13.808594 24.121094 C 13.914062 24.222656 14.085938 24.222656 14.191406 24.121094 L 15.976562 22.335938 C 16.078125 22.226562 16.078125 22.058594 15.976562 21.953125 C 15.46875 21.445312 14.777344 21.121094 14 21.121094 Z M 14 21.121094 "/>
</g>
</svg>
