<?xml version="1.0" encoding="UTF-8"?>
<svg xmlns="http://www.w3.org/2000/svg" xmlns:xlink="http://www.w3.org/1999/xlink" width="28" height="28" viewBox="0 0 28 28" version="1.1">
<g id="surface1">
<path style=" stroke:none;fill-rule:nonzero;fill:rgb(100%,100%,100%);fill-opacity:1;" d="M 14 16.039062 C 11.824219 16.039062 9.859375 16.9375 8.433594 18.363281 C 8.378906 18.414062 8.347656 18.480469 8.347656 18.554688 C 8.347656 18.628906 8.378906 18.710938 8.433594 18.761719 L 10.21875 20.53125 C 10.328125 20.632812 10.492188 20.632812 10.601562 20.53125 C 11.46875 19.664062 12.671875 19.125 14 19.125 C 15.328125 19.125 16.53125 19.664062 17.398438 20.53125 C 17.507812 20.632812 17.671875 20.632812 17.78125 20.53125 L 19.566406 18.761719 C 19.621094 18.710938 19.652344 18.628906 19.652344 18.554688 C 19.652344 18.480469 19.621094 18.414062 19.566406 18.363281 C 18.140625 16.9375 16.175781 16.039062 14 16.039062 Z M 14 21.121094 C 13.222656 21.121094 12.53125 21.445312 12.023438 21.953125 C 11.921875 22.058594 11.921875 22.226562 12.023438 22.335938 L 13.808594 24.121094 C 13.914062 24.222656 14.085938 24.222656 14.191406 24.121094 L 15.976562 22.335938 C 16.078125 22.226562 16.078125 22.058594 15.976562 21.953125 C 15.46875 21.445312 14.777344 21.121094 14 21.121094 Z M 14 21.121094 "/>
</g>
</svg>
