<?xml version="1.0" encoding="UTF-8"?>
<svg xmlns="http://www.w3.org/2000/svg" xmlns:xlink="http://www.w3.org/1999/xlink" width="28" height="28" viewBox="0 0 28 28" version="1.1">
<g id="surface1">
<path style=" stroke:none;fill-rule:nonzero;fill:rgb(100%,100%,100%);fill-opacity:1;" d="M 0.828125 17.5 L 4.375 17.5 C 4.832031 17.5 5.203125 17.890625 5.203125 18.375 L 5.203125 20.125 C 5.203125 20.609375 4.832031 21 4.375 21 L 0.828125 21 C 0.371094 21 0 20.609375 0 20.125 L 0 18.375 C 0 17.890625 0.371094 17.5 0.828125 17.5 Z M 0.828125 17.5 "/>
<path style=" stroke:none;fill-rule:nonzero;fill:rgb(100%,100%,100%);fill-opacity:1;" d="M 23.589844 17.5 L 27.117188 17.5 C 27.601562 17.5 27.992188 17.890625 27.992188 18.375 L 27.992188 20.125 C 27.992188 20.609375 27.601562 21 27.117188 21 L 23.589844 21 C 23.105469 21 22.714844 20.609375 22.714844 20.125 L 22.714844 18.375 C 22.714844 17.890625 23.105469 17.5 23.589844 17.5 Z M 23.589844 17.5 "/>
<path style=" stroke:none;fill-rule:nonzero;fill:rgb(100%,100%,100%);fill-opacity:1;" d="M 19.558594 11.230469 L 22.050781 8.734375 C 22.394531 8.390625 22.949219 8.390625 23.289062 8.734375 L 24.527344 9.972656 C 24.867188 10.3125 24.867188 10.867188 24.527344 11.207031 L 22.03125 13.703125 C 21.691406 14.046875 21.136719 14.046875 20.792969 13.703125 L 19.558594 12.464844 C 19.214844 12.125 19.214844 11.570312 19.558594 11.230469 Z M 19.558594 11.230469 "/>
<path style=" stroke:none;fill-rule:nonzero;fill:rgb(100%,100%,100%);fill-opacity:1;" d="M 5.96875 13.703125 L 3.472656 11.207031 C 3.132812 10.867188 3.132812 10.3125 3.472656 9.972656 L 4.710938 8.734375 C 5.054688 8.390625 5.609375 8.390625 5.949219 8.734375 L 8.445312 11.230469 C 8.785156 11.570312 8.785156 12.125 8.445312 12.464844 L 7.207031 13.703125 C 6.867188 14.046875 6.3125 14.046875 5.96875 13.703125 Z M 5.96875 13.703125 "/>
<path style=" stroke:none;fill-rule:nonzero;fill:rgb(100%,100%,100%);fill-opacity:1;" d="M 12.25 9.625 L 12.25 6.125 C 12.25 5.640625 12.640625 5.25 13.125 5.25 L 14.875 5.25 C 15.359375 5.25 15.75 5.640625 15.75 6.125 L 15.75 9.625 C 15.75 10.109375 15.359375 10.5 14.875 10.5 L 13.125 10.5 C 12.640625 10.5 12.25 10.109375 12.25 9.625 Z M 12.25 9.625 "/>
<path style=" stroke:none;fill-rule:nonzero;fill:rgb(100%,100%,100%);fill-opacity:1;" d="M 10.9375 15.75 C 10.644531 15.765625 10.375 15.953125 10.28125 16.207031 L 8.816406 20.085938 C 8.640625 20.496094 9.039062 21.011719 9.523438 21 C 9.523438 21 11.398438 21 14.015625 21 C 16.636719 21 18.507812 21 18.507812 21 C 18.996094 21.007812 19.394531 20.496094 19.214844 20.085938 L 17.75 16.207031 C 17.625 15.867188 17.164062 15.671875 16.792969 15.796875 C 16.421875 15.917969 15.355469 16.253906 14.015625 16.253906 C 12.675781 16.253906 11.613281 15.917969 11.242188 15.796875 C 11.144531 15.761719 11.039062 15.746094 10.9375 15.75 Z M 10.9375 15.75 "/>
</g>
</svg>
