<?xml version="1.0" encoding="UTF-8"?>
<svg xmlns="http://www.w3.org/2000/svg" xmlns:xlink="http://www.w3.org/1999/xlink" width="28" height="28" viewBox="0 0 28 28" version="1.1">
<g id="surface1">
<path style=" stroke:none;fill-rule:nonzero;fill:rgb(100%,100%,100%);fill-opacity:1;" d="M 10.421875 1.167969 C 9.945312 1.21875 9.585938 1.617188 9.582031 2.09375 L 9.582031 15.101562 C 9.578125 15.394531 9.714844 15.675781 9.945312 15.851562 L 14.160156 19.011719 C 14.515625 19.28125 15.007812 19.265625 15.34375 18.972656 L 18.847656 15.875 C 19.054688 15.699219 19.171875 15.4375 19.171875 15.167969 L 19.171875 7.878906 C 19.171875 7.351562 18.75 6.929688 18.226562 6.929688 C 17.703125 6.929688 17.277344 7.351562 17.277344 7.878906 L 17.277344 14.757812 L 14.675781 17.058594 L 11.453125 14.628906 L 11.453125 3.039062 L 19.6875 3.039062 L 19.6875 20.582031 L 14.550781 24.734375 L 8.699219 20.800781 L 8.699219 8.089844 C 8.714844 7.746094 8.539062 7.421875 8.242188 7.25 C 7.949219 7.074219 7.582031 7.074219 7.285156 7.25 C 6.992188 7.421875 6.816406 7.746094 6.828125 8.089844 L 6.828125 21.292969 C 6.828125 21.605469 6.984375 21.894531 7.238281 22.066406 L 14.054688 26.667969 C 14.398438 26.902344 14.851562 26.886719 15.171875 26.625 L 21.214844 21.746094 C 21.441406 21.570312 21.578125 21.300781 21.578125 21.015625 L 21.578125 2.09375 C 21.574219 1.578125 21.148438 1.164062 20.632812 1.167969 L 10.527344 1.167969 C 10.492188 1.167969 10.457031 1.167969 10.421875 1.167969 Z M 10.421875 1.167969 "/>
</g>
</svg>
