<?xml version="1.0" encoding="UTF-8"?>
<svg xmlns="http://www.w3.org/2000/svg" xmlns:xlink="http://www.w3.org/1999/xlink" width="28" height="28" viewBox="0 0 28 28" version="1.1">
<g id="surface1">
<path style=" stroke:none;fill-rule:nonzero;fill:rgb(100%,100%,100%);fill-opacity:1;" d="M 10.113281 15.75 C 9.460938 15.867188 8.933594 16.34375 8.746094 16.984375 C 8.5625 17.621094 8.753906 18.308594 9.238281 18.757812 L 11.480469 21 L 9.238281 23.238281 C 8.78125 23.6875 8.601562 24.347656 8.765625 24.964844 C 8.929688 25.582031 9.414062 26.0625 10.03125 26.226562 C 10.648438 26.390625 11.304688 26.210938 11.753906 25.753906 L 15.253906 22.253906 L 16.457031 20.996094 L 15.253906 19.738281 L 11.753906 16.238281 C 11.328125 15.800781 10.703125 15.613281 10.109375 15.75 Z M 10.113281 15.75 "/>
<path style=" stroke:none;fill-rule:nonzero;fill:rgb(100%,100%,100%);fill-opacity:1;" d="M 7 5.25 C 4.121094 5.25 1.75 7.621094 1.75 10.5 L 1.75 17.5 C 1.75 20.378906 4.121094 22.75 7 22.75 L 14 22.75 L 14 19.25 L 7 19.25 C 6 19.25 5.25 18.5 5.25 17.5 L 5.25 10.5 C 5.25 9.5 6 8.75 7 8.75 L 21 8.75 C 22 8.75 22.75 9.5 22.75 10.5 L 22.75 17.5 C 22.75 18.5 22 19.25 21 19.25 L 19.25 19.25 L 19.25 22.75 L 21 22.75 C 23.878906 22.75 26.25 20.378906 26.25 17.5 L 26.25 10.5 C 26.25 7.621094 23.878906 5.25 21 5.25 Z M 7 5.25 "/>
<path style=" stroke:none;fill-rule:nonzero;fill:rgb(100%,100%,100%);fill-opacity:1;" d="M 10.5 15.75 L 8.75 15.75 L 8.75 17.5 L 10.5 17.5 Z M 10.5 15.75 "/>
<path style=" stroke:none;fill-rule:nonzero;fill:rgb(100%,100%,100%);fill-opacity:1;" d="M 10.5 24.5 L 8.75 24.5 L 8.75 26.25 L 10.5 26.25 Z M 10.5 24.5 "/>
</g>
</svg>
