<?xml version="1.0" encoding="UTF-8"?>
<svg xmlns="http://www.w3.org/2000/svg" xmlns:xlink="http://www.w3.org/1999/xlink" width="28" height="28" viewBox="0 0 28 28" version="1.1">
<g id="surface1">
<path style=" stroke:none;fill-rule:nonzero;fill:rgb(100%,100%,100%);fill-opacity:1;" d="M 21 5.25 C 18.121094 5.25 15.75 7.621094 15.75 10.5 L 15.75 17.5 C 15.75 18.5 15 19.25 14 19.25 L 3.5 19.25 L 3.5 22.75 L 14 22.75 C 16.878906 22.75 19.25 20.378906 19.25 17.5 L 19.25 10.5 C 19.25 9.5 20 8.75 21 8.75 L 26.25 8.75 L 26.25 5.25 Z M 21 5.25 "/>
<path style=" stroke:none;fill-rule:nonzero;fill:rgb(100%,100%,100%);fill-opacity:1;" d="M 6.789062 15.75 C 6.398438 15.792969 6.03125 15.964844 5.75 16.242188 L 2.25 19.742188 L 1.046875 21 L 2.25 22.257812 L 5.75 25.757812 C 6.199219 26.214844 6.855469 26.394531 7.476562 26.230469 C 8.09375 26.066406 8.574219 25.582031 8.738281 24.964844 C 8.902344 24.347656 8.722656 23.691406 8.265625 23.242188 L 6.007812 21.003906 L 8.25 18.761719 C 8.816406 18.234375 8.96875 17.402344 8.632812 16.710938 C 8.292969 16.015625 7.542969 15.625 6.78125 15.75 Z M 6.789062 15.75 "/>
<path style=" stroke:none;fill-rule:nonzero;fill:rgb(100%,100%,100%);fill-opacity:1;" d="M 6.789062 1.75 C 6.398438 1.792969 6.03125 1.964844 5.75 2.242188 L 2.25 5.742188 L 1.046875 7 L 2.25 8.257812 L 5.75 11.757812 C 6.199219 12.214844 6.855469 12.394531 7.476562 12.230469 C 8.09375 12.066406 8.574219 11.582031 8.738281 10.964844 C 8.902344 10.347656 8.722656 9.691406 8.265625 9.242188 L 6.007812 7.003906 L 8.25 4.761719 C 8.816406 4.234375 8.96875 3.402344 8.632812 2.710938 C 8.292969 2.015625 7.542969 1.625 6.78125 1.75 Z M 6.789062 1.75 "/>
<path style=" stroke:none;fill-rule:nonzero;fill:rgb(100%,100%,100%);fill-opacity:1;" d="M 14 5.25 C 14.402344 5.25 14.773438 5.328125 15.148438 5.414062 C 14.304688 6.378906 13.640625 7.476562 13.34375 8.75 L 3.5 8.75 L 3.5 5.25 Z M 26.25 19.25 L 26.25 22.75 L 21 22.75 C 20.597656 22.75 20.226562 22.671875 19.851562 22.585938 C 20.695312 21.621094 21.359375 20.523438 21.65625 19.25 Z M 26.25 19.25 "/>
<path style=" stroke:none;fill-rule:nonzero;fill:rgb(100%,100%,100%);fill-opacity:1;" d="M 8.75 15.75 L 7 15.75 L 7 17.5 L 8.75 17.5 Z M 8.75 15.75 "/>
<path style=" stroke:none;fill-rule:nonzero;fill:rgb(100%,100%,100%);fill-opacity:1;" d="M 8.75 24.5 L 7 24.5 L 7 26.25 L 8.75 26.25 Z M 8.75 24.5 "/>
<path style=" stroke:none;fill-rule:nonzero;fill:rgb(100%,100%,100%);fill-opacity:1;" d="M 8.75 1.75 L 7 1.75 L 7 3.5 L 8.75 3.5 Z M 8.75 1.75 "/>
<path style=" stroke:none;fill-rule:nonzero;fill:rgb(100%,100%,100%);fill-opacity:1;" d="M 8.75 10.5 L 7 10.5 L 7 12.25 L 8.75 12.25 Z M 8.75 10.5 "/>
</g>
</svg>
