<?xml version="1.0" encoding="UTF-8"?>
<svg xmlns="http://www.w3.org/2000/svg" xmlns:xlink="http://www.w3.org/1999/xlink" width="28" height="28" viewBox="0 0 28 28" version="1.1">
<g id="surface1">
<path style=" stroke:none;fill-rule:nonzero;fill:rgb(100%,100%,100%);fill-opacity:1;" d="M 1.75 5.25 L 1.75 8.75 L 7 8.75 C 8 8.75 8.75 9.5 8.75 10.5 L 8.75 17.5 C 8.75 20.378906 11.121094 22.75 14 22.75 L 24.5 22.75 L 24.5 19.25 L 14 19.25 C 13 19.25 12.25 18.5 12.25 17.5 L 12.25 10.5 C 12.25 7.621094 9.878906 5.25 7 5.25 Z M 1.75 5.25 "/>
<path style=" stroke:none;fill-rule:nonzero;fill:rgb(100%,100%,100%);fill-opacity:1;" d="M 20.617188 15.75 C 19.964844 15.867188 19.433594 16.34375 19.25 16.984375 C 19.0625 17.621094 19.253906 18.308594 19.742188 18.757812 L 21.984375 21 L 19.742188 23.238281 C 19.285156 23.6875 19.105469 24.347656 19.269531 24.964844 C 19.433594 25.582031 19.914062 26.0625 20.535156 26.226562 C 21.152344 26.390625 21.808594 26.210938 22.257812 25.753906 L 25.757812 22.253906 L 26.960938 20.996094 L 25.757812 19.738281 L 22.257812 16.238281 C 21.832031 15.800781 21.210938 15.617188 20.617188 15.75 Z M 20.617188 15.75 "/>
<path style=" stroke:none;fill-rule:nonzero;fill:rgb(100%,100%,100%);fill-opacity:1;" d="M 20.617188 1.75 C 19.964844 1.867188 19.433594 2.34375 19.25 2.984375 C 19.0625 3.621094 19.253906 4.308594 19.742188 4.757812 L 21.984375 7 L 19.742188 9.238281 C 19.285156 9.6875 19.105469 10.347656 19.269531 10.964844 C 19.433594 11.582031 19.914062 12.0625 20.535156 12.226562 C 21.152344 12.390625 21.808594 12.210938 22.257812 11.753906 L 25.757812 8.253906 L 26.960938 6.996094 L 25.757812 5.738281 L 22.257812 2.238281 C 21.832031 1.800781 21.210938 1.617188 20.617188 1.75 Z M 20.617188 1.75 "/>
<path style=" stroke:none;fill-rule:nonzero;fill:rgb(100%,100%,100%);fill-opacity:1;" d="M 14 5.25 C 13.597656 5.25 13.226562 5.328125 12.851562 5.414062 C 13.695312 6.378906 14.359375 7.476562 14.65625 8.75 L 24.5 8.75 L 24.5 5.25 Z M 1.75 19.25 L 1.75 22.75 L 7 22.75 C 7.402344 22.75 7.773438 22.671875 8.148438 22.585938 C 7.304688 21.621094 6.640625 20.523438 6.34375 19.25 Z M 1.75 19.25 "/>
<path style=" stroke:none;fill-rule:nonzero;fill:rgb(100%,100%,100%);fill-opacity:1;" d="M 19.25 15.75 L 21 15.75 L 21 17.5 L 19.25 17.5 Z M 19.25 15.75 "/>
<path style=" stroke:none;fill-rule:nonzero;fill:rgb(100%,100%,100%);fill-opacity:1;" d="M 19.25 24.5 L 21 24.5 L 21 26.25 L 19.25 26.25 Z M 19.25 24.5 "/>
<path style=" stroke:none;fill-rule:nonzero;fill:rgb(100%,100%,100%);fill-opacity:1;" d="M 19.25 1.75 L 21 1.75 L 21 3.5 L 19.25 3.5 Z M 19.25 1.75 "/>
<path style=" stroke:none;fill-rule:nonzero;fill:rgb(100%,100%,100%);fill-opacity:1;" d="M 19.25 10.5 L 21 10.5 L 21 12.25 L 19.25 12.25 Z M 19.25 10.5 "/>
</g>
</svg>
