<?xml version="1.0" encoding="UTF-8"?>
<svg xmlns="http://www.w3.org/2000/svg" xmlns:xlink="http://www.w3.org/1999/xlink" width="28" height="28" viewBox="0 0 28 28" version="1.1">
<g id="surface1">
<path style=" stroke:none;fill-rule:nonzero;fill:rgb(100%,100%,100%);fill-opacity:1;" d="M 3.5 12.25 L 3.5 15.75 L 26.195312 15.75 L 26.195312 12.25 Z M 3.5 12.25 "/>
<path style=" stroke:none;fill-rule:nonzero;fill:rgb(100%,100%,100%);fill-opacity:1;" d="M 6.789062 8.75 C 6.398438 8.792969 6.03125 8.964844 5.75 9.242188 L 2.25 12.742188 L 1.046875 14 L 2.25 15.257812 L 5.75 18.757812 C 6.199219 19.214844 6.855469 19.394531 7.476562 19.230469 C 8.09375 19.066406 8.574219 18.582031 8.738281 17.964844 C 8.902344 17.347656 8.722656 16.691406 8.265625 16.242188 L 6.007812 14.003906 L 8.25 11.761719 C 8.816406 11.234375 8.96875 10.402344 8.632812 9.710938 C 8.292969 9.015625 7.542969 8.625 6.78125 8.75 Z M 6.789062 8.75 "/>
<path style=" stroke:none;fill-rule:nonzero;fill:rgb(100%,100%,100%);fill-opacity:1;" d="M 8.75 8.75 L 7 8.75 L 7 10.5 L 8.75 10.5 Z M 8.75 8.75 "/>
<path style=" stroke:none;fill-rule:nonzero;fill:rgb(100%,100%,100%);fill-opacity:1;" d="M 8.75 17.5 L 7 17.5 L 7 19.25 L 8.75 19.25 Z M 8.75 17.5 "/>
</g>
</svg>
