<?xml version="1.0" encoding="UTF-8"?>
<svg xmlns="http://www.w3.org/2000/svg" xmlns:xlink="http://www.w3.org/1999/xlink" width="28" height="28" viewBox="0 0 28 28" version="1.1">
<g id="surface1">
<path style=" stroke:none;fill-rule:nonzero;fill:rgb(100%,100%,100%);fill-opacity:1;" d="M 21.199219 6.597656 L 21.199219 8.621094 L 17.699219 8.621094 L 17.609375 8.675781 L 12.542969 12.613281 L 7.472656 8.675781 L 7.382812 8.621094 L 2.097656 8.621094 L 2.097656 11.539062 L 7.183594 11.539062 L 10.554688 14.164062 L 7.183594 16.789062 L 2.097656 16.789062 L 2.097656 19.707031 L 7.382812 19.707031 L 7.472656 19.652344 L 12.542969 15.714844 L 17.609375 19.652344 L 17.699219 19.707031 L 21.199219 19.707031 L 21.199219 21.730469 L 21.65625 21.402344 L 25.738281 18.484375 L 26.066406 18.246094 L 25.738281 18.011719 L 21.65625 15.09375 L 21.199219 14.765625 L 21.199219 16.789062 L 17.902344 16.789062 L 14.527344 14.164062 L 17.902344 11.539062 L 21.199219 11.539062 L 21.199219 13.5625 L 21.65625 13.234375 L 25.738281 10.316406 L 26.066406 10.082031 L 25.738281 9.84375 L 21.65625 6.925781 Z M 21.199219 6.597656 "/>
</g>
</svg>
