<?xml version="1.0" encoding="UTF-8"?>
<svg xmlns="http://www.w3.org/2000/svg" xmlns:xlink="http://www.w3.org/1999/xlink" width="28" height="28" viewBox="0 0 28 28" version="1.1">
<g id="surface1">
<path style=" stroke:none;fill-rule:nonzero;fill:rgb(100%,100%,100%);fill-opacity:1;" d="M 3.609375 0 C 1.597656 0 0 1.59375 0 3.609375 L 0 24.390625 C 0 26.40625 1.597656 28 3.609375 28 L 24.390625 28 C 26.40625 28 28 26.40625 28 24.390625 L 28 3.609375 C 28 1.597656 26.40625 0.00390625 24.390625 0.00390625 L 3.609375 0.00390625 Z M 3.5 5.25 L 10.5 5.25 C 11.097656 5.265625 11.644531 5.582031 11.953125 6.089844 C 12.261719 6.597656 12.292969 7.230469 12.03125 7.765625 L 9.625 12.632812 C 10.246094 12.835938 10.9375 12.976562 11.320312 13.398438 C 11.902344 14.039062 12.25 14.816406 12.25 15.75 L 12.25 19.25 C 12.25 21.195312 10.664062 22.75 8.75 22.75 L 3.5 22.75 L 3.5 19.25 L 8.75 19.25 L 8.75 15.75 L 7 15.75 C 6.40625 15.734375 5.859375 15.417969 5.546875 14.910156 C 5.238281 14.402344 5.210938 13.769531 5.46875 13.234375 L 7.65625 8.75 L 3.5 8.75 Z M 17.609375 5.304688 L 20.945312 5.304688 C 20.953125 5.304688 20.941406 5.359375 20.945312 5.359375 C 21.867188 5.324219 22.824219 5.492188 23.570312 6.179688 C 24.296875 6.847656 24.609375 7.941406 24.554688 8.96875 L 24.609375 8.96875 L 24.609375 10.5 L 21.109375 10.5 L 21.109375 8.804688 C 21.078125 8.800781 21.117188 8.800781 21.054688 8.804688 L 17.609375 8.804688 C 17.5625 8.804688 17.570312 8.808594 17.554688 8.804688 C 17.546875 8.8125 17.503906 8.800781 17.5 8.804688 C 17.488281 8.84375 17.515625 8.886719 17.5 8.914062 L 17.5 19.140625 C 17.460938 19.101562 17.5 19.25 17.5 19.25 L 20.945312 19.25 C 20.960938 19.214844 21 19.222656 21 19.25 C 21.003906 19.265625 21 19.152344 21 19.195312 L 21 15.804688 L 19.25 15.804688 L 19.25 12.304688 L 24.5 12.304688 L 24.5 19.195312 C 24.5 20.179688 24.105469 20.945312 23.515625 21.601562 C 22.964844 22.21875 22.027344 22.707031 20.945312 22.695312 L 20.945312 22.75 L 17.5 22.75 C 16.40625 22.75 15.761719 22.328125 15.148438 21.765625 C 14.570312 21.234375 14.023438 20.382812 14.054688 19.25 C 14.054688 19.246094 14 19.253906 14 19.25 L 14 8.640625 C 14.109375 7.875 14.359375 7.085938 14.984375 6.398438 C 15.609375 5.710938 16.640625 5.304688 17.609375 5.304688 Z M 17.609375 5.304688 "/>
</g>
</svg>
