<?xml version="1.0" encoding="UTF-8"?>
<svg xmlns="http://www.w3.org/2000/svg" xmlns:xlink="http://www.w3.org/1999/xlink" width="28" height="28" viewBox="0 0 28 28" version="1.1">
<g id="surface1">
<path style=" stroke:none;fill-rule:nonzero;fill:rgb(100%,100%,100%);fill-opacity:1;" d="M 3.609375 0 C 1.59375 0 0 1.59375 0 3.609375 L 0 24.390625 C 0 26.40625 1.59375 28 3.609375 28 L 24.390625 28 C 26.402344 28 28 26.40625 28 24.390625 L 28 3.609375 C 28 1.59375 26.402344 0 24.390625 0 Z M 10.71875 5.304688 L 17.445312 5.304688 C 17.449219 5.304688 17.4375 5.359375 17.445312 5.359375 C 18.367188 5.324219 19.320312 5.492188 20.070312 6.179688 C 20.796875 6.847656 21.109375 7.941406 21.054688 8.96875 L 21.109375 8.96875 L 21.109375 10.5 L 17.609375 10.5 L 17.609375 8.804688 C 17.578125 8.800781 17.613281 8.800781 17.554688 8.804688 L 10.71875 8.804688 C 10.667969 8.804688 10.679688 8.808594 10.664062 8.804688 C 10.652344 8.8125 10.613281 8.800781 10.609375 8.804688 C 10.59375 8.84375 10.621094 8.886719 10.609375 8.914062 L 10.609375 19.140625 C 10.566406 19.101562 10.601562 19.246094 10.609375 19.25 L 17.445312 19.25 C 17.457031 19.214844 17.496094 19.222656 17.5 19.25 C 17.5 19.265625 17.5 19.152344 17.5 19.195312 L 17.5 15.804688 L 14 15.804688 L 14 12.304688 L 21 12.304688 L 21 19.195312 C 21 20.179688 20.601562 20.945312 20.015625 21.601562 C 19.460938 22.21875 18.523438 22.707031 17.445312 22.695312 L 17.445312 22.75 L 10.609375 22.75 C 9.515625 22.75 8.867188 22.328125 8.257812 21.765625 C 7.675781 21.234375 7.128906 20.382812 7.164062 19.25 C 7.164062 19.246094 7.109375 19.253906 7.109375 19.25 L 7.109375 8.640625 C 7.21875 7.875 7.46875 7.085938 8.09375 6.398438 C 8.71875 5.710938 9.75 5.304688 10.71875 5.304688 Z M 10.71875 5.304688 "/>
</g>
</svg>
