<?xml version="1.0" encoding="UTF-8"?>
<svg xmlns="http://www.w3.org/2000/svg" xmlns:xlink="http://www.w3.org/1999/xlink" width="28" height="28" viewBox="0 0 28 28" version="1.1">
<g id="surface1">
<path style=" stroke:none;fill-rule:nonzero;fill:rgb(100%,100%,100%);fill-opacity:1;" d="M 3.609375 0 C 1.597656 0 0 1.59375 0 3.605469 L 0 24.386719 C 0 26.398438 1.597656 27.992188 3.609375 27.992188 L 24.390625 27.992188 C 26.402344 27.992188 28 26.398438 28 24.386719 L 28 3.605469 C 28 1.59375 26.402344 0 24.390625 0 Z M 7 5.25 L 10.5 5.25 L 10.5 19.25 C 10.5 19.25 10.554688 19.25 10.554688 19.25 L 17.445312 19.25 C 17.457031 19.214844 17.496094 19.222656 17.5 19.25 C 17.5 19.265625 17.5 19.152344 17.5 19.195312 L 17.5 5.25 L 21 5.25 L 21 19.195312 C 21 20.179688 20.601562 20.941406 20.015625 21.601562 C 19.464844 22.21875 18.523438 22.707031 17.445312 22.695312 L 17.445312 22.75 L 10.5 22.75 C 9.40625 22.75 8.761719 22.328125 8.148438 21.765625 C 7.570312 21.230469 7.023438 20.382812 7.054688 19.25 L 7 19.25 Z M 7 5.25 "/>
</g>
</svg>
