<?xml version="1.0" encoding="UTF-8"?>
<svg xmlns="http://www.w3.org/2000/svg" xmlns:xlink="http://www.w3.org/1999/xlink" width="28" height="28" viewBox="0 0 28 28" version="1.1">
<g id="surface1">
<path style=" stroke:none;fill-rule:nonzero;fill:rgb(100%,100%,100%);fill-opacity:1;" d="M 3.605469 0 C 1.589844 0 -0.00390625 1.59375 -0.00390625 3.609375 L -0.00390625 24.390625 C -0.00390625 26.40625 1.589844 28 3.605469 28 L 24.386719 28 C 26.398438 28 27.996094 26.40625 27.996094 24.390625 L 27.996094 3.609375 C 27.996094 1.59375 26.398438 0 24.386719 0 Z M 3.496094 5.25 L 6.996094 5.25 L 6.996094 12.25 L 8.746094 12.25 L 8.746094 10.5 L 12.246094 10.5 L 12.246094 22.75 L 8.746094 22.75 L 8.746094 15.75 L 6.996094 15.75 C 5.246094 15.75 3.496094 14.277344 3.496094 12.25 Z M 17.605469 5.304688 L 20.941406 5.304688 C 20.945312 5.304688 20.9375 5.359375 20.941406 5.359375 C 21.863281 5.324219 22.816406 5.492188 23.566406 6.179688 C 24.292969 6.847656 24.605469 7.941406 24.550781 8.96875 L 24.605469 8.96875 L 24.605469 10.5 L 21.105469 10.5 L 21.105469 8.804688 C 21.074219 8.800781 21.109375 8.800781 21.050781 8.804688 L 17.605469 8.804688 C 17.558594 8.804688 17.566406 8.808594 17.550781 8.804688 C 17.539062 8.8125 17.5 8.800781 17.496094 8.804688 C 17.484375 8.84375 17.507812 8.886719 17.496094 8.914062 L 17.496094 19.140625 C 17.453125 19.101562 17.496094 19.25 17.496094 19.25 L 20.941406 19.25 C 20.953125 19.214844 20.992188 19.222656 20.996094 19.25 C 20.996094 19.265625 20.996094 19.152344 20.996094 19.195312 L 20.996094 15.804688 L 19.246094 15.804688 L 19.246094 12.304688 L 24.496094 12.304688 L 24.496094 19.195312 C 24.496094 20.179688 24.097656 20.945312 23.511719 21.601562 C 22.957031 22.21875 22.019531 22.707031 20.941406 22.695312 L 20.941406 22.75 L 17.496094 22.75 C 16.402344 22.75 15.757812 22.328125 15.144531 21.765625 C 14.566406 21.234375 14.019531 20.382812 14.050781 19.25 C 14.050781 19.246094 13.996094 19.253906 13.996094 19.25 L 13.996094 8.640625 C 14.105469 7.875 14.355469 7.085938 14.980469 6.398438 C 15.605469 5.710938 16.636719 5.304688 17.605469 5.304688 Z M 17.605469 5.304688 "/>
</g>
</svg>
