<?xml version="1.0" encoding="UTF-8"?>
<svg xmlns="http://www.w3.org/2000/svg" xmlns:xlink="http://www.w3.org/1999/xlink" width="28" height="28" viewBox="0 0 28 28" version="1.1">
<g id="surface1">
<path style=" stroke:none;fill-rule:nonzero;fill:rgb(96.078431%,47.45098%,0%);fill-opacity:1;" d="M 5.25 1.75 C 1.75 1.75 1.75 5.25 1.75 5.25 L 1.75 22.75 C 1.75 26.25 5.25 26.25 5.25 26.25 L 22.75 26.085938 C 26.25 26.054688 26.25 22.75 26.25 22.75 L 26.25 5.25 C 26.25 1.75 22.75 1.75 22.75 1.75 Z M 14 5.304688 C 17.175781 5.304688 20.351562 6.386719 22.75 8.585938 L 22.75 10.5 L 19.578125 10.5 C 16.351562 8.03125 11.648438 8.03125 8.421875 10.5 L 5.25 10.5 L 5.25 8.585938 C 7.648438 6.386719 10.824219 5.304688 14 5.304688 Z M 14 10.664062 C 15.824219 10.664062 17.640625 11.253906 19.03125 12.414062 C 19.105469 12.445312 19.179688 12.484375 19.25 12.523438 L 19.25 14 L 8.75 14 L 8.75 12.578125 C 8.816406 12.519531 8.890625 12.464844 8.96875 12.414062 C 10.359375 11.253906 12.175781 10.664062 14 10.664062 Z M 14 15.75 C 15.933594 15.75 17.5 17.316406 17.5 19.25 C 17.5 21.183594 15.933594 22.75 14 22.75 C 12.066406 22.75 10.5 21.183594 10.5 19.25 C 10.5 17.316406 12.066406 15.75 14 15.75 Z M 14 15.75 "/>
</g>
</svg>
