<?xml version="1.0" encoding="UTF-8"?>
<svg xmlns="http://www.w3.org/2000/svg" xmlns:xlink="http://www.w3.org/1999/xlink" width="28" height="28" viewBox="0 0 28 28" version="1.1">
<g id="surface1">
<path style=" stroke:none;fill-rule:nonzero;fill:rgb(100%,100%,100%);fill-opacity:1;" d="M 8.75 12.25 C 8.207031 12.25 7.675781 12.40625 7.328125 12.742188 L 1.027344 19.253906 L 7.425781 25.761719 C 7.773438 26.09375 8.195312 26.253906 8.738281 26.253906 L 10.488281 26.253906 L 10.488281 24.503906 C 10.488281 24.054688 10.261719 23.578125 9.941406 23.246094 L 7.703125 21.003906 L 15.742188 21.003906 C 16.664062 21.015625 17.492188 20.179688 17.492188 19.253906 C 17.492188 18.328125 16.664062 17.492188 15.742188 17.503906 L 7.648438 17.503906 L 9.78125 15.261719 C 10.101562 14.929688 10.492188 14.453125 10.492188 14.003906 L 10.492188 12.253906 Z M 8.75 12.25 "/>
<path style=" stroke:none;fill-rule:nonzero;fill:rgb(100%,100%,100%);fill-opacity:1;" d="M 20.28125 15.75 C 20.824219 15.75 21.359375 15.59375 21.703125 15.257812 L 28.003906 8.746094 L 21.605469 2.238281 C 21.257812 1.90625 20.835938 1.746094 20.292969 1.746094 L 18.542969 1.746094 L 18.542969 3.496094 C 18.542969 3.945312 18.769531 4.421875 19.089844 4.753906 L 21.332031 6.996094 L 12.253906 6.996094 C 11.328125 6.984375 10.503906 7.824219 10.503906 8.746094 C 10.503906 9.671875 11.328125 10.511719 12.253906 10.496094 L 21.386719 10.496094 L 19.253906 12.738281 C 18.933594 13.074219 18.542969 13.546875 18.542969 13.996094 L 18.542969 15.746094 Z M 20.28125 15.75 "/>
</g>
</svg>
