<?xml version="1.0" encoding="UTF-8"?>
<svg xmlns="http://www.w3.org/2000/svg" xmlns:xlink="http://www.w3.org/1999/xlink" width="28" height="28" viewBox="0 0 28 28" version="1.1">
<g id="surface1">
<path style=" stroke:none;fill-rule:nonzero;fill:rgb(100%,100%,100%);fill-opacity:1;" d="M 10.5 1.75 C 8.734375 1.757812 8.75 3.5 8.75 3.5 L 8.75 22.75 C 8.75 24.5 10.5 24.5 10.5 24.5 L 17.5 24.5 C 19.25 24.5 19.25 22.75 19.25 22.75 L 19.25 8.75 C 19.25 7.78125 18.46875 7 17.5 7 L 12.25 7 L 12.25 3.5 C 12.25 3.5 12.234375 1.757812 10.5 1.75 Z M 10.5 8.75 L 17.5 8.75 L 17.5 14.054688 L 10.5 14 Z M 10.5 15.75 L 12.25 15.75 L 12.25 17.5 L 14 17.5 L 14 15.75 L 15.75 15.75 L 15.75 17.5 L 17.5 17.5 L 17.5 19.25 L 15.75 19.25 L 15.75 21 L 17.5 21 L 17.5 22.75 L 15.75 22.75 L 15.75 21 L 14 21 L 14 22.75 L 12.25 22.75 L 12.25 21 L 10.5 21 L 10.5 19.25 L 12.25 19.25 L 12.25 17.5 L 10.5 17.5 Z M 12.25 19.25 L 12.25 21 L 14 21 L 14 19.25 Z M 14 19.25 L 15.75 19.25 L 15.75 17.5 L 14 17.5 Z M 14 19.25 "/>
<path style=" stroke:none;fill-rule:nonzero;fill:rgb(100%,100%,100%);fill-opacity:1;" d="M 28 8.75 L 28 10.5 C 28 10.949219 27.773438 11.425781 27.453125 11.757812 L 25.214844 13.996094 L 27.453125 16.238281 C 27.773438 16.574219 28 17.046875 28 17.496094 L 28 19.246094 L 26.25 19.246094 C 25.710938 19.246094 25.285156 19.089844 24.9375 18.753906 L 20.285156 13.996094 L 24.9375 9.234375 C 25.289062 8.902344 25.710938 8.746094 26.25 8.746094 L 28 8.746094 Z M 28 8.75 "/>
<path style=" stroke:none;fill-rule:nonzero;fill:rgb(100%,100%,100%);fill-opacity:1;" d="M 0 8.75 L 0 10.5 C 0 10.949219 0.226562 11.425781 0.546875 11.757812 L 2.789062 14 L 0.546875 16.242188 C 0.226562 16.574219 0 17.050781 0 17.5 L 0 19.25 L 1.75 19.25 C 2.292969 19.25 2.714844 19.09375 3.0625 18.757812 L 7.71875 13.996094 L 3.0625 9.238281 C 2.710938 8.90625 2.292969 8.746094 1.75 8.746094 L 0 8.746094 Z M 0 8.75 "/>
</g>
</svg>
