<?xml version="1.0" encoding="UTF-8"?>
<svg xmlns="http://www.w3.org/2000/svg" xmlns:xlink="http://www.w3.org/1999/xlink" width="28" height="28" viewBox="0 0 28 28" version="1.1">
<g id="surface1">
<path style=" stroke:none;fill-rule:nonzero;fill:rgb(96.078431%,47.45098%,0%);fill-opacity:1;" d="M 15.539062 14 C 14.679688 14 14.007812 14.667969 14.007812 15.53125 L 14.007812 26.46875 C 14.007812 27.332031 14.679688 28 15.539062 28 L 26.476562 28 C 27.339844 28 28.007812 27.332031 28.007812 26.46875 L 28.007812 15.53125 C 28.007812 14.671875 27.34375 14.007812 26.46875 14.007812 L 15.53125 14.007812 Z M 19.257812 15.75 L 22.757812 15.75 L 22.757812 22.75 L 19.257812 22.75 Z M 19.257812 24.5 L 22.757812 24.5 L 22.757812 26.25 L 19.257812 26.25 Z M 19.257812 24.5 "/>
<path style=" stroke:none;fill-rule:nonzero;fill:rgb(74.509804%,74.509804%,74.509804%);fill-opacity:1;" d="M 3.5 7 C 2.625 7 1.75 7.875 1.75 8.75 L 1.75 15.75 C 1.75 16.625 2.625 17.5 3.5 17.5 L 5.25 17.5 L 5.25 14 L 12.25 14 C 12.457031 13.054688 13.214844 12.359375 14.21875 12.359375 L 26.25 12.359375 L 26.25 8.75 C 26.25 7.875 25.375 7 24.5 7 Z M 3.5 7 "/>
<path style=" stroke:none;fill-rule:nonzero;fill:rgb(74.509804%,74.509804%,74.509804%);fill-opacity:1;" d="M 7 1.75 L 7 5.25 L 21 5.25 L 21 1.75 Z M 7 1.75 "/>
<path style=" stroke:none;fill-rule:nonzero;fill:rgb(74.509804%,74.509804%,74.509804%);fill-opacity:1;" d="M 7 15.75 L 7 24.5 L 12.25 24.5 L 12.25 15.75 Z M 7 15.75 "/>
<path style=" stroke:none;fill-rule:nonzero;fill:rgb(100%,100%,100%);fill-opacity:1;" d="M 7.09375 20.132812 L 7.09375 15.804688 L 12.195312 15.804688 L 12.195312 24.464844 L 7.09375 24.464844 Z M 7.09375 20.132812 "/>
<path style=" stroke:none;fill-rule:nonzero;fill:rgb(100%,100%,100%);fill-opacity:1;" d="M 2.867188 17.292969 C 2.664062 17.207031 2.34375 16.929688 2.15625 16.683594 L 1.816406 16.238281 L 1.816406 8.25 L 2.15625 7.804688 C 2.789062 6.976562 2.128906 7.015625 14.144531 7.050781 C 24.941406 7.082031 24.996094 7.085938 25.328125 7.332031 C 25.511719 7.46875 25.78125 7.757812 25.929688 7.972656 C 26.179688 8.339844 26.195312 8.484375 26.195312 10.359375 L 26.195312 12.355469 L 19.820312 12.390625 L 13.441406 12.421875 L 13.054688 12.699219 C 12.839844 12.851562 12.558594 13.183594 12.429688 13.4375 L 12.195312 13.902344 L 5.257812 13.964844 L 5.191406 17.464844 L 4.214844 17.460938 C 3.664062 17.457031 3.078125 17.386719 2.867188 17.292969 Z M 2.867188 17.292969 "/>
<path style=" stroke:none;fill-rule:nonzero;fill:rgb(100%,100%,100%);fill-opacity:1;" d="M 7.09375 3.523438 L 7.09375 1.804688 L 20.976562 1.804688 L 20.976562 5.242188 L 7.09375 5.242188 Z M 7.09375 3.523438 "/>
</g>
</svg>
