<?xml version="1.0" encoding="UTF-8"?>
<svg xmlns="http://www.w3.org/2000/svg" xmlns:xlink="http://www.w3.org/1999/xlink" width="28" height="28" viewBox="0 0 28 28" version="1.1">
<g id="surface1">
<path style=" stroke:none;fill-rule:nonzero;fill:rgb(74.509804%,74.509804%,74.509804%);fill-opacity:1;" d="M 6.125 0 C 4.671875 0 3.5 1.171875 3.5 2.625 L 3.5 10.5 L 2.625 10.5 C 1.171875 10.5 0 11.671875 0 13.125 L 0 20.125 C 0 21.578125 1.171875 22.75 2.625 22.75 L 3.5 22.75 L 3.5 25.375 C 3.5 26.828125 4.671875 28 6.125 28 L 17.609375 28 L 16.242188 26.632812 C 15.691406 26.089844 15.574219 25.164062 15.96875 24.5 L 7.875 24.5 C 7.390625 24.5 7 24.109375 7 23.625 L 7 21 L 15.96875 21 C 15.574219 20.335938 15.691406 19.410156 16.242188 18.867188 L 18.867188 16.242188 C 19.144531 15.964844 19.519531 15.789062 19.90625 15.75 C 19.925781 15.75 19.941406 15.75 19.960938 15.75 C 20.070312 15.742188 20.179688 15.742188 20.289062 15.75 C 20.695312 15.78125 21.089844 15.957031 21.382812 16.242188 L 22.75 17.605469 L 23.078125 17.28125 C 22.890625 17.121094 22.75 16.890625 22.75 16.625 C 22.75 16.140625 23.140625 15.75 23.625 15.75 C 23.90625 15.75 24.121094 15.921875 24.28125 16.132812 C 24.945312 15.582031 26.023438 15.632812 26.632812 16.242188 L 28 17.605469 L 28 13.125 C 28 11.671875 26.828125 10.5 25.375 10.5 L 24.5 10.5 L 24.5 2.625 C 24.5 1.171875 23.328125 0 21.875 0 C 16.625 0 11.371094 0 6.125 0 Z M 7.875 3.5 L 20.125 3.5 C 20.609375 3.5 21 3.890625 21 4.375 L 21 12.25 L 7 12.25 L 7 4.375 C 7 3.890625 7.390625 3.5 7.875 3.5 Z M 8.75 5.25 L 8.75 7 L 19.304688 7 L 19.304688 5.25 Z M 8.75 8.75 L 8.75 10.5 L 15.75 10.5 L 15.75 8.75 Z M 8.75 8.75 "/>
<path style=" stroke:none;fill-rule:nonzero;fill:rgb(83.137255%,0%,0%);fill-opacity:1;" d="M 17.507812 20.132812 L 20.132812 17.511719 L 22.753906 20.132812 L 25.378906 17.511719 L 28.003906 20.132812 L 25.378906 22.753906 L 28.003906 25.378906 L 25.378906 28 L 22.757812 25.378906 L 20.136719 28 L 17.515625 25.378906 L 20.136719 22.753906 L 17.515625 20.132812 Z M 17.507812 20.132812 "/>
<path style=" stroke:none;fill-rule:nonzero;fill:rgb(100%,100%,100%);fill-opacity:1;" d="M 4.941406 27.664062 C 4.390625 27.375 3.84375 26.71875 3.671875 26.132812 C 3.597656 25.886719 3.535156 25.007812 3.535156 24.183594 L 3.535156 22.683594 L 2.820312 22.683594 C 1.652344 22.683594 0.816406 22.195312 0.316406 21.226562 C 0.0976562 20.804688 0.0898438 20.542969 0.121094 16.472656 L 0.152344 12.167969 L 0.449219 11.730469 C 0.96875 10.964844 1.5625 10.65625 2.609375 10.605469 L 3.523438 10.558594 L 3.59375 1.863281 L 3.886719 1.351562 C 4.238281 0.738281 5.042969 0.179688 5.714844 0.0820312 C 5.984375 0.0429688 9.890625 0.0273438 14.390625 0.046875 L 22.578125 0.0820312 L 23.105469 0.378906 C 23.398438 0.542969 23.796875 0.90625 23.996094 1.191406 L 24.359375 1.703125 L 24.476562 10.523438 L 25.394531 10.589844 C 26.160156 10.644531 26.394531 10.710938 26.816406 11.007812 C 27.097656 11.203125 27.457031 11.601562 27.621094 11.894531 C 27.90625 12.402344 27.917969 12.507812 27.957031 14.972656 L 27.992188 17.519531 L 27.179688 16.734375 C 26.160156 15.75 25.609375 15.539062 24.796875 15.832031 C 24.324219 16 24.226562 16.003906 24.015625 15.855469 C 23.679688 15.621094 23.4375 15.640625 23.070312 15.929688 C 22.734375 16.191406 22.652344 16.695312 22.875 17.109375 C 23.152344 17.628906 22.699219 17.4375 21.925781 16.710938 C 21.015625 15.851562 20.445312 15.601562 19.71875 15.738281 C 19.351562 15.808594 18.984375 16.105469 17.679688 17.386719 C 16.804688 18.246094 16.011719 19.101562 15.914062 19.285156 C 15.734375 19.628906 15.671875 20.554688 15.8125 20.78125 C 15.863281 20.867188 14.484375 20.90625 11.433594 20.90625 L 6.976562 20.90625 L 6.976562 22.378906 C 6.976562 23.1875 7.007812 23.9375 7.050781 24.042969 C 7.242188 24.542969 7.597656 24.582031 11.839844 24.582031 C 14.613281 24.582031 15.863281 24.621094 15.8125 24.707031 C 15.683594 24.914062 15.726562 25.851562 15.878906 26.144531 C 15.957031 26.296875 16.347656 26.753906 16.746094 27.164062 L 17.46875 27.90625 L 11.421875 27.898438 C 5.679688 27.894531 5.351562 27.882812 4.941406 27.664062 Z M 21.09375 8.335938 C 21.09375 5.921875 21.046875 4.304688 20.972656 4.105469 C 20.722656 3.453125 20.945312 3.472656 14 3.46875 L 7.558594 3.464844 L 7.265625 3.753906 L 6.976562 4.046875 L 6.976562 12.242188 L 21.09375 12.242188 Z M 21.09375 8.335938 "/>
<path style=" stroke:none;fill-rule:nonzero;fill:rgb(100%,100%,100%);fill-opacity:1;" d="M 10.511719 10.496094 C 11.511719 10.472656 13.113281 10.472656 14.074219 10.496094 C 15.03125 10.515625 14.214844 10.53125 12.257812 10.53125 C 10.296875 10.53125 9.515625 10.515625 10.511719 10.496094 Z M 10.511719 10.496094 "/>
</g>
</svg>
