<?xml version="1.0" encoding="UTF-8"?>
<svg xmlns="http://www.w3.org/2000/svg" xmlns:xlink="http://www.w3.org/1999/xlink" width="28" height="28" viewBox="0 0 28 28" version="1.1">
<g id="surface1">
<path style=" stroke:none;fill-rule:nonzero;fill:rgb(100%,100%,100%);fill-opacity:1;" d="M 3.5 7 C 2.625 7 1.75 7.875 1.75 8.75 L 1.75 15.75 C 1.75 16.625 2.625 17.5 3.5 17.5 L 5.25 17.5 L 5.25 14 L 22.75 14 L 22.75 17.5 L 24.5 17.5 C 25.375 17.5 26.25 16.625 26.25 15.75 L 26.25 8.75 C 26.25 7.875 25.375 7 24.5 7 Z M 3.5 7 "/>
<path style=" stroke:none;fill-rule:nonzero;fill:rgb(100%,100%,100%);fill-opacity:1;" d="M 7 1.75 L 7 5.25 L 21 5.25 L 21 1.75 Z M 7 1.75 "/>
<path style=" stroke:none;fill-rule:nonzero;fill:rgb(100%,100%,100%);fill-opacity:1;" d="M 7 15.75 L 7 24.5 L 21 24.5 L 21 15.75 Z M 12.234375 17.496094 L 15.785156 17.515625 L 15.765625 19.265625 L 19.273438 19.246094 L 14.058594 22.746094 L 8.753906 19.246094 L 12.257812 19.265625 Z M 12.234375 17.496094 "/>
</g>
</svg>
