<?xml version="1.0" encoding="UTF-8"?>
<svg xmlns="http://www.w3.org/2000/svg" xmlns:xlink="http://www.w3.org/1999/xlink" width="28" height="28" viewBox="0 0 28 28" version="1.1">
<g id="surface1">
<path style=" stroke:none;fill-rule:nonzero;fill:rgb(100%,100%,100%);fill-opacity:1;" d="M 13.5625 1.75 C 10.535156 1.902344 7.582031 3.359375 5.632812 5.960938 C 4.984375 6.828125 4.5 7.777344 4.15625 8.75 L 8.039062 8.75 C 8.179688 8.511719 8.304688 8.265625 8.476562 8.039062 C 10.808594 4.929688 15.15625 4.339844 18.265625 6.671875 C 21.375 9.003906 21.964844 13.351562 19.632812 16.460938 C 19.070312 17.210938 18.351562 17.808594 17.554688 18.265625 L 17.554688 15.75 L 15.757812 15.75 L 15.804688 24.5 L 22.804688 24.5 C 22.914062 24.511719 23.023438 24.511719 23.132812 24.5 L 24.554688 24.5 L 24.554688 23.078125 C 24.597656 22.917969 24.613281 22.75 24.609375 22.585938 C 24.59375 22.511719 24.578125 22.4375 24.554688 22.367188 C 24.378906 21.585938 23.605469 20.980469 22.804688 21 L 19.851562 21 C 20.863281 20.332031 21.746094 19.515625 22.476562 18.539062 C 23.992188 16.515625 24.667969 14.109375 24.554688 11.757812 C 24.539062 11.421875 24.492188 11.105469 24.445312 10.773438 C 24.066406 8.109375 22.65625 5.5625 20.34375 3.828125 C 18.320312 2.3125 15.917969 1.632812 13.5625 1.75 Z M 13.5625 1.75 "/>
<path style=" stroke:none;fill-rule:nonzero;fill:rgb(100%,100%,100%);fill-opacity:1;" d="M 7.050781 12.144531 C 5.148438 12.144531 3.550781 13.683594 3.550781 15.589844 L 3.550781 18.378906 L 5.300781 18.378906 L 5.300781 15.589844 C 5.300781 14.625 6.097656 13.894531 7.050781 13.894531 C 8.007812 13.894531 8.746094 14.625 8.746094 15.589844 L 8.746094 18.324219 L 10.496094 18.324219 L 10.496094 15.589844 C 10.496094 13.683594 8.957031 12.144531 7.050781 12.144531 Z M 7.050781 12.144531 "/>
<path style=" stroke:none;fill-rule:nonzero;fill:rgb(100%,100%,100%);fill-opacity:1;" d="M 1.871094 17.5 L 12.3125 17.5 L 12.3125 24.609375 L 1.871094 24.609375 Z M 1.871094 17.5 "/>
</g>
</svg>
