<?xml version="1.0" encoding="UTF-8"?>
<svg xmlns="http://www.w3.org/2000/svg" xmlns:xlink="http://www.w3.org/1999/xlink" width="28" height="28" viewBox="0 0 28 28" version="1.1">
<g id="surface1">
<path style=" stroke:none;fill-rule:nonzero;fill:rgb(100%,100%,100%);fill-opacity:1;" d="M 24.640625 22.59375 C 24.625 22.519531 24.609375 22.445312 24.585938 22.375 C 24.402344 21.558594 23.667969 20.984375 22.835938 21.007812 L 19.882812 21.007812 C 20.894531 20.335938 21.777344 19.519531 22.507812 18.546875 C 24.023438 16.523438 24.699219 14.113281 24.585938 11.765625 C 24.570312 11.429688 24.523438 11.113281 24.476562 10.78125 C 24.09375 8.117188 22.683594 5.570312 20.375 3.835938 C 15.75 0.367188 9.128906 1.34375 5.664062 5.96875 C 2.195312 10.589844 3.171875 17.210938 7.796875 20.679688 C 8.097656 20.894531 8.460938 21.011719 8.835938 21.007812 C 8.925781 21.015625 9.015625 21.015625 9.109375 21.007812 L 10.585938 21.007812 L 10.585938 19.421875 C 10.589844 19.367188 10.585938 19.3125 10.585938 19.257812 C 10.589844 18.695312 10.324219 18.167969 9.875 17.835938 C 6.765625 15.503906 6.175781 11.15625 8.507812 8.046875 C 10.839844 4.9375 15.1875 4.347656 18.296875 6.679688 C 21.40625 9.011719 21.996094 13.359375 19.664062 16.46875 C 19.101562 17.21875 18.378906 17.8125 17.585938 18.273438 L 17.585938 15.757812 C 17.585938 14.789062 16.800781 14.007812 15.835938 14.007812 C 15.707031 13.992188 15.578125 13.992188 15.453125 14.007812 L 14.085938 14.007812 L 14.085938 24.507812 L 22.835938 24.507812 C 22.945312 24.515625 23.054688 24.515625 23.164062 24.507812 L 24.585938 24.507812 L 24.585938 23.085938 C 24.625 22.921875 24.644531 22.757812 24.640625 22.59375 Z M 24.640625 22.59375 "/>
</g>
</svg>
