<?xml version="1.0" encoding="UTF-8"?>
<svg xmlns="http://www.w3.org/2000/svg" xmlns:xlink="http://www.w3.org/1999/xlink" width="28" height="28" viewBox="0 0 28 28" version="1.1">
<g id="surface1">
<path style=" stroke:none;fill-rule:evenodd;fill:rgb(96.078431%,47.45098%,0%);fill-opacity:1;" d="M 14 0.105469 L 10.035156 6.078125 L 4.066406 4.066406 L 6.074219 10.039062 L 0.101562 14.003906 L 6.074219 17.964844 L 4.066406 23.9375 L 10.035156 21.929688 L 14 27.902344 L 17.964844 21.929688 L 23.933594 23.9375 L 21.925781 17.964844 L 27.898438 14.003906 L 21.925781 10.039062 L 23.933594 4.066406 L 17.964844 6.078125 Z M 12.261719 7.164062 L 15.738281 7.164062 L 15.738281 15.792969 L 12.261719 15.792969 Z M 14.054688 17.042969 C 15.285156 17.042969 16.28125 18.039062 16.28125 19.269531 C 16.28125 20.5 15.285156 21.496094 14.054688 21.496094 C 12.824219 21.496094 11.828125 20.5 11.828125 19.269531 C 11.828125 18.039062 12.824219 17.042969 14.054688 17.042969 Z M 14.054688 17.042969 "/>
</g>
</svg>
