<?xml version="1.0" encoding="UTF-8"?>
<svg xmlns="http://www.w3.org/2000/svg" xmlns:xlink="http://www.w3.org/1999/xlink" width="28" height="28" viewBox="0 0 28 28" version="1.1">
<g id="surface1">
<path style=" stroke:none;fill-rule:evenodd;fill:rgb(100%,100%,100%);fill-opacity:1;" d="M 14 0.105469 L 10.0625 6.066406 L 4.046875 4.042969 L 6.070312 10.058594 L 0.109375 13.996094 L 6.070312 17.933594 L 4.046875 23.949219 L 10.0625 21.925781 L 14 27.886719 L 17.9375 21.925781 L 23.953125 23.949219 L 21.929688 17.933594 L 27.890625 13.996094 L 21.929688 10.058594 L 23.953125 4.042969 L 17.9375 6.066406 Z M 14 8.035156 L 15.257812 9.238281 L 18.757812 12.738281 C 19.148438 13.132812 19.339844 13.71875 19.25 14.269531 L 19.25 15.746094 L 17.71875 15.746094 C 17.1875 15.816406 16.625 15.628906 16.242188 15.253906 L 15.75 14.761719 L 15.75 19.246094 L 12.25 19.246094 L 12.25 14.761719 L 11.757812 15.253906 C 11.421875 15.570312 10.960938 15.753906 10.5 15.746094 L 8.75 15.746094 L 8.75 14.378906 C 8.75 14.324219 8.75 14.269531 8.75 14.214844 C 8.679688 13.683594 8.867188 13.121094 9.242188 12.738281 L 12.742188 9.238281 Z M 14 8.035156 "/>
</g>
</svg>
