<?xml version="1.0" encoding="UTF-8"?>
<svg xmlns="http://www.w3.org/2000/svg" xmlns:xlink="http://www.w3.org/1999/xlink" width="28" height="28" viewBox="0 0 28 28" version="1.1">
<g id="surface1">
<path style=" stroke:none;fill-rule:nonzero;fill:rgb(74.509804%,74.509804%,74.509804%);fill-opacity:1;" d="M 4.324219 1.75 C 4.324219 1.75 1.699219 1.75 1.699219 4.375 L 1.699219 25.320312 C 1.699219 25.320312 1.699219 28 4.324219 28 L 17.449219 28 L 17.449219 24.5 L 5.199219 24.5 L 5.199219 5.25 L 6.949219 5.25 L 6.949219 1.75 Z M 19.199219 1.75 L 19.199219 5.25 L 20.949219 5.25 L 20.949219 17.5 L 24.449219 17.5 L 24.449219 4.375 C 24.449219 1.75 21.824219 1.75 21.824219 1.75 Z M 19.199219 1.75 "/>
<path style=" stroke:none;fill-rule:nonzero;fill:rgb(74.509804%,74.509804%,74.509804%);fill-opacity:1;" d="M 9.625 0 L 16.570312 0 C 17.054688 0 17.445312 0.390625 17.445312 0.875 L 17.445312 6.125 C 17.445312 6.609375 17.054688 7 16.570312 7 L 9.625 7 C 9.140625 7 8.75 6.609375 8.75 6.125 L 8.75 0.875 C 8.75 0.390625 9.140625 0 9.625 0 Z M 9.625 0 "/>
<path style=" stroke:none;fill-rule:nonzero;fill:rgb(74.509804%,74.509804%,74.509804%);fill-opacity:1;" d="M 19.199219 19.25 L 21.605469 19.25 L 23.574219 21.164062 L 25.480469 19.257812 L 27.949219 19.257812 L 27.949219 21.828125 L 26.03125 23.6875 L 27.941406 25.542969 L 27.941406 28.007812 L 25.421875 28.007812 L 23.566406 26.15625 L 21.710938 28.007812 L 19.191406 28.007812 L 19.191406 25.546875 L 21.050781 23.6875 L 19.195312 21.835938 L 19.195312 19.261719 Z M 19.199219 19.25 "/>
<path style=" stroke:none;fill-rule:nonzero;fill:rgb(100%,100%,100%);fill-opacity:1;" d="M 9.171875 6.8125 C 8.816406 6.578125 8.769531 6.152344 8.769531 3.40625 L 8.769531 0.605469 L 9.351562 0.0234375 L 16.847656 0.0234375 L 17.136719 0.316406 L 17.429688 0.605469 L 17.429688 3.40625 C 17.429688 6.152344 17.378906 6.578125 17.027344 6.8125 C 16.953125 6.863281 15.1875 6.902344 13.097656 6.902344 C 11.011719 6.902344 9.242188 6.863281 9.171875 6.8125 Z M 9.171875 6.8125 "/>
<path style=" stroke:none;fill-rule:nonzero;fill:rgb(100%,100%,100%);fill-opacity:1;" d="M 20.988281 11.355469 L 20.988281 5.242188 L 19.207031 5.242188 L 19.207031 1.804688 L 20.734375 1.804688 C 22.4375 1.804688 23.074219 1.953125 23.636719 2.488281 C 24.402344 3.21875 24.367188 2.839844 24.402344 10.492188 L 24.4375 17.464844 L 20.988281 17.464844 Z M 20.988281 11.355469 "/>
<path style=" stroke:none;fill-rule:nonzero;fill:rgb(100%,100%,100%);fill-opacity:1;" d="M 3.015625 27.632812 C 2.488281 27.332031 2.066406 26.777344 1.886719 26.140625 C 1.8125 25.867188 1.769531 21.699219 1.769531 14.664062 L 1.769531 3.621094 L 2.042969 3.097656 C 2.226562 2.753906 2.515625 2.453125 2.894531 2.21875 C 3.453125 1.875 3.519531 1.863281 5.167969 1.820312 L 6.871094 1.78125 L 6.871094 5.242188 L 5.207031 5.242188 L 5.207031 24.582031 L 17.429688 24.582031 L 17.429688 27.90625 L 10.457031 27.902344 L 3.488281 27.902344 Z M 3.015625 27.632812 "/>
<path style=" stroke:none;fill-rule:nonzero;fill:rgb(100%,0%,0%);fill-opacity:1;" d="M 19.207031 26.804688 L 19.207031 25.585938 L 20.15625 24.640625 L 21.105469 23.699219 L 20.15625 22.746094 L 19.207031 21.789062 L 19.207031 19.242188 L 20.371094 19.242188 C 21.519531 19.242188 21.542969 19.25 21.886719 19.609375 C 22.078125 19.8125 22.542969 20.25 22.925781 20.578125 L 23.613281 21.179688 L 24.585938 20.210938 L 25.5625 19.242188 L 27.871094 19.242188 L 27.871094 21.789062 L 26.914062 22.75 L 25.960938 23.710938 L 26.914062 24.621094 L 27.871094 25.535156 L 27.871094 28.023438 L 25.46875 28.023438 L 24.496094 27.078125 L 23.527344 26.128906 L 22.585938 27.078125 L 21.644531 28.023438 L 19.207031 28.023438 Z M 19.207031 26.804688 "/>
</g>
</svg>
