<?xml version="1.0" encoding="UTF-8"?>
<svg xmlns="http://www.w3.org/2000/svg" xmlns:xlink="http://www.w3.org/1999/xlink" width="28" height="28" viewBox="0 0 28 28" version="1.1">
<g id="surface1">
<path style=" stroke:none;fill-rule:nonzero;fill:rgb(74.509804%,74.509804%,74.509804%);fill-opacity:1;" d="M 1.699219 4.375 L 1.699219 25.320312 C 1.699219 28 4.324219 28 4.324219 28 L 12.199219 28 L 12.199219 24.5 L 5.199219 24.5 L 5.199219 5.25 L 6.949219 5.25 L 6.949219 1.75 L 4.324219 1.75 C 4.324219 1.75 1.699219 1.75 1.699219 4.375 Z M 19.199219 1.75 L 19.199219 5.25 L 21 5.25 L 21 12.304688 L 24.449219 12.25 L 24.449219 4.375 C 24.449219 1.75 21.824219 1.75 21.824219 1.75 Z M 7.058594 8.804688 L 7.058594 21 L 12.199219 21 L 12.199219 15.746094 C 12.199219 15.746094 12.199219 12.25 15.699219 12.25 L 19.199219 12.25 L 19.199219 8.75 Z M 7.058594 8.804688 "/>
<path style=" stroke:none;fill-rule:nonzero;fill:rgb(74.509804%,74.509804%,74.509804%);fill-opacity:1;" d="M 9.625 0 L 16.570312 0 C 17.054688 0 17.445312 0.390625 17.445312 0.875 L 17.445312 6.125 C 17.445312 6.609375 17.054688 7 16.570312 7 L 9.625 7 C 9.140625 7 8.75 6.609375 8.75 6.125 L 8.75 0.875 C 8.75 0.390625 9.140625 0 9.625 0 Z M 9.625 0 "/>
<path style=" stroke:none;fill-rule:nonzero;fill:rgb(96.078431%,47.45098%,0%);fill-opacity:1;" d="M 15.699219 14 C 13.949219 14 13.949219 15.75 13.949219 15.75 L 13.949219 26.25 C 13.949219 26.25 13.949219 28 15.699219 28 L 26.199219 28 C 27.949219 28 27.949219 26.25 27.949219 26.25 L 27.949219 15.75 C 27.949219 14 26.199219 14 26.199219 14 Z M 19.199219 15.75 L 22.75 15.75 L 22.75 22.75 L 19.199219 22.75 Z M 19.199219 24.5 L 22.75 24.5 L 22.699219 26.25 L 19.199219 26.25 Z M 19.199219 24.5 "/>
<path style=" stroke:none;fill-rule:nonzero;fill:rgb(100%,100%,100%);fill-opacity:1;" d="M 9.0625 6.71875 C 8.761719 6.421875 8.742188 6.15625 8.777344 3.242188 C 8.816406 0.5 8.816406 0.476562 9.09375 0.25 C 9.359375 0.0390625 9.609375 0.0234375 13.105469 0.0234375 L 16.835938 0.0234375 L 17.125 0.316406 L 17.417969 0.605469 L 17.417969 3.519531 C 17.417969 6.273438 17.402344 6.441406 17.179688 6.667969 C 16.953125 6.894531 16.785156 6.90625 13.09375 6.90625 C 9.757812 6.90625 9.222656 6.878906 9.0625 6.71875 Z M 9.0625 6.71875 "/>
<path style=" stroke:none;fill-rule:nonzero;fill:rgb(100%,100%,100%);fill-opacity:1;" d="M 7.09375 14.855469 L 7.09375 8.804688 L 19.195312 8.804688 L 19.195312 12.226562 L 16.851562 12.265625 C 14.171875 12.308594 13.921875 12.382812 13.0625 13.359375 C 12.28125 14.25 12.195312 14.695312 12.195312 18.011719 L 12.195312 20.90625 L 7.09375 20.90625 Z M 7.09375 14.855469 "/>
<path style=" stroke:none;fill-rule:nonzero;fill:rgb(100%,100%,100%);fill-opacity:1;" d="M 3.304688 27.75 C 2.738281 27.570312 2.03125 26.832031 1.878906 26.261719 C 1.792969 25.9375 1.761719 22.273438 1.785156 14.65625 C 1.816406 3.625 1.816406 3.519531 2.0625 3.050781 C 2.21875 2.753906 2.527344 2.441406 2.882812 2.21875 C 3.441406 1.875 3.507812 1.863281 5.15625 1.820312 L 6.859375 1.78125 L 6.859375 5.242188 L 5.195312 5.242188 L 5.195312 24.582031 L 12.195312 24.582031 L 12.195312 27.90625 L 7.957031 27.894531 C 5.230469 27.886719 3.566406 27.835938 3.304688 27.75 Z M 3.304688 27.75 "/>
<path style=" stroke:none;fill-rule:nonzero;fill:rgb(100%,100%,100%);fill-opacity:1;" d="M 21.09375 8.742188 L 21.09375 5.242188 L 19.195312 5.242188 L 19.195312 1.804688 L 20.71875 1.804688 C 22.546875 1.804688 23.148438 1.96875 23.75 2.636719 C 23.976562 2.886719 24.21875 3.296875 24.289062 3.546875 C 24.367188 3.824219 24.414062 5.582031 24.417969 8.121094 L 24.417969 12.242188 L 21.09375 12.242188 Z M 21.09375 8.742188 "/>
</g>
</svg>
