<?xml version="1.0" encoding="UTF-8"?>
<svg xmlns="http://www.w3.org/2000/svg" xmlns:xlink="http://www.w3.org/1999/xlink" width="28" height="28" viewBox="0 0 28 28" version="1.1">
<g id="surface1">
<path style=" stroke:none;fill-rule:nonzero;fill:rgb(100%,100%,100%);fill-opacity:1;" d="M 6.125 1.75 C 3.703125 1.75 1.75 3.703125 1.75 6.125 L 1.75 14.875 C 1.75 17.296875 3.703125 19.25 6.125 19.25 L 17.28125 19.25 L 22.75 26.25 L 22.75 19.140625 C 24.746094 18.734375 26.25 16.996094 26.25 14.875 L 26.25 6.125 C 26.25 3.703125 24.296875 1.75 21.875 1.75 Z M 6.125 5.25 L 21.875 5.25 C 22.359375 5.25 22.75 5.640625 22.75 6.125 L 22.75 14.875 C 22.75 15.359375 22.359375 15.75 21.875 15.75 L 6.125 15.75 C 5.640625 15.75 5.25 15.359375 5.25 14.875 L 5.25 6.125 C 5.25 5.640625 5.640625 5.25 6.125 5.25 Z M 6.125 5.25 "/>
</g>
</svg>
