<?xml version="1.0" encoding="UTF-8"?>
<svg xmlns="http://www.w3.org/2000/svg" xmlns:xlink="http://www.w3.org/1999/xlink" width="28" height="28" viewBox="0 0 28 28" version="1.1">
<g id="surface1">
<path style=" stroke:none;fill-rule:nonzero;fill:rgb(100%,100%,100%);fill-opacity:1;" d="M 7 3.5 L 7 1.804688 L 19.25 1.804688 L 19.25 3.5 Z M 6.070312 0.0546875 C 5.210938 0.0546875 4.675781 0.453125 4.265625 0.875 C 3.855469 1.296875 3.5 1.851562 3.5 2.679688 L 3.5 3.5 L 0 3.5 L 0 7 L 26.25 7 L 26.25 3.5 L 22.75 3.5 L 22.75 2.84375 C 22.707031 2.089844 22.453125 1.527344 22.039062 1.039062 C 21.648438 0.574219 20.941406 0.113281 20.015625 0.109375 L 20.015625 0.0546875 Z M 20.996094 8.75 L 24.496094 8.75 C 27.425781 13.875 26.488281 18.996094 24.496094 24.117188 C 23.746094 26.078125 22.78125 28.003906 20.664062 28.003906 L 5.570312 28.003906 C 3.460938 28.003906 2.460938 26.097656 1.742188 24.121094 C -0.0820312 19.113281 -1.054688 14.050781 1.742188 8.753906 L 5.242188 8.753906 C 2.230469 13.914062 3.519531 19.203125 5.242188 24.503906 L 20.992188 24.503906 C 22.910156 19.195312 23.847656 13.917969 20.992188 8.753906 Z M 12.300781 8.722656 L 12.300781 22.75 L 13.996094 22.75 L 13.996094 8.722656 Z M 15.746094 8.722656 C 18.832031 12.613281 17.199219 18.578125 15.746094 22.75 L 17.496094 22.75 C 18.941406 18.710938 20.71875 12.90625 17.496094 8.722656 Z M 8.800781 8.722656 C 5.621094 13.289062 7.304688 18.894531 8.800781 22.75 L 10.496094 22.75 C 8.984375 18.863281 7.585938 13.183594 10.496094 8.722656 Z M 8.800781 8.722656 "/>
</g>
</svg>
