<?xml version="1.0" encoding="UTF-8"?>
<svg xmlns="http://www.w3.org/2000/svg" xmlns:xlink="http://www.w3.org/1999/xlink" width="28" height="28" viewBox="0 0 28 28" version="1.1">
<g id="surface1">
<path style=" stroke:none;fill-rule:nonzero;fill:rgb(100%,100%,100%);fill-opacity:1;" d="M 11.859375 3.125 C 5.957031 3.125 1.167969 7.914062 1.167969 13.816406 C 1.167969 19.722656 5.957031 24.515625 11.859375 24.515625 C 14.664062 24.515625 17.21875 23.425781 19.125 21.660156 L 26.832031 21.660156 L 22.066406 16.894531 C 22.363281 15.914062 22.554688 14.894531 22.554688 13.816406 C 22.554688 7.914062 17.765625 3.125 11.859375 3.125 Z M 8.742188 8.828125 L 11.859375 12.035156 L 15.070312 8.875 L 16.851562 10.699219 L 13.644531 13.816406 L 16.808594 17.027344 L 14.980469 18.808594 L 11.859375 15.601562 L 8.652344 18.765625 L 6.871094 16.9375 L 10.078125 13.816406 L 6.914062 10.609375 Z M 8.742188 8.828125 "/>
</g>
</svg>
