<?xml version="1.0" encoding="UTF-8"?>
<svg xmlns="http://www.w3.org/2000/svg" xmlns:xlink="http://www.w3.org/1999/xlink" width="28" height="28" viewBox="0 0 28 28" version="1.1">
<g id="surface1">
<path style=" stroke:none;fill-rule:nonzero;fill:rgb(100%,100%,100%);fill-opacity:1;" d="M 22.75 26.25 L 22.75 18.375 L 16.625 18.375 Z M 22.75 26.25 "/>
<path style=" stroke:none;fill-rule:nonzero;fill:rgb(100%,100%,100%);fill-opacity:1;" d="M 6.125 1.75 C 3.703125 1.75 1.75 3.703125 1.75 6.125 L 1.75 14.875 C 1.75 17.296875 3.703125 19.25 6.125 19.25 L 21.875 19.25 C 24.296875 19.25 26.25 17.296875 26.25 14.875 L 26.25 6.125 C 26.25 3.703125 24.296875 1.75 21.875 1.75 Z M 8.75 5.25 L 10.5 5.25 C 10.984375 5.25 11.441406 5.425781 11.757812 5.742188 L 14 7.984375 L 16.242188 5.742188 C 16.558594 5.425781 17.015625 5.253906 17.5 5.253906 L 19.25 5.253906 L 19.25 7.003906 C 19.25 7.484375 19.074219 7.945312 18.757812 8.261719 L 16.515625 10.5 L 18.757812 12.742188 C 19.074219 13.058594 19.25 13.515625 19.25 14 L 19.25 15.75 L 17.5 15.75 C 17.015625 15.75 16.558594 15.574219 16.242188 15.257812 L 14 13.015625 L 11.757812 15.257812 C 11.441406 15.574219 10.984375 15.746094 10.5 15.746094 L 8.75 15.746094 L 8.75 13.996094 C 8.75 13.515625 8.925781 13.054688 9.242188 12.738281 L 11.484375 10.5 L 9.242188 8.257812 C 8.925781 7.945312 8.75 7.488281 8.75 7 Z M 8.75 5.25 "/>
</g>
</svg>
