<?xml version="1.0" encoding="UTF-8"?>
<svg xmlns="http://www.w3.org/2000/svg" xmlns:xlink="http://www.w3.org/1999/xlink" width="28" height="28" viewBox="0 0 28 28" version="1.1">
<g id="surface1">
<path style=" stroke:none;fill-rule:nonzero;fill:rgb(100%,100%,100%);fill-opacity:1;" d="M 22.75 26.25 L 22.75 18.375 L 16.625 18.375 Z M 22.75 26.25 "/>
<path style=" stroke:none;fill-rule:nonzero;fill:rgb(100%,100%,100%);fill-opacity:1;" d="M 6.125 1.75 C 3.703125 1.75 1.75 3.703125 1.75 6.125 L 1.75 14.875 C 1.75 17.296875 3.703125 19.25 6.125 19.25 L 21.875 19.25 C 24.296875 19.25 26.25 17.296875 26.25 14.875 L 26.25 6.125 C 26.25 3.703125 24.296875 1.75 21.875 1.75 Z M 14 5.25 L 15.75 5.25 C 16.234375 5.25 16.691406 5.425781 17.007812 5.742188 L 20.507812 9.242188 L 21.710938 10.5 L 20.507812 11.757812 L 17.007812 15.257812 C 16.691406 15.574219 16.238281 15.746094 15.746094 15.746094 L 13.996094 15.746094 L 13.996094 13.996094 C 13.996094 13.515625 14.171875 13.054688 14.488281 12.738281 L 14.980469 12.25 L 6.996094 12.25 L 6.996094 8.75 L 14.980469 8.75 L 14.488281 8.257812 C 14.171875 7.941406 13.996094 7.488281 13.996094 6.996094 L 13.996094 5.246094 Z M 14 5.25 "/>
</g>
</svg>
