<?xml version="1.0" encoding="UTF-8"?>
<svg xmlns="http://www.w3.org/2000/svg" xmlns:xlink="http://www.w3.org/1999/xlink" width="28" height="28" viewBox="0 0 28 28" version="1.1">
<g id="surface1">
<path style=" stroke:none;fill-rule:nonzero;fill:rgb(74.509804%,74.509804%,74.509804%);fill-opacity:1;" d="M 16.609375 1.75 C 14.375 1.75 12.558594 3.453125 12.3125 5.632812 C 11.75 5.421875 11.171875 5.25 10.527344 5.25 C 7.640625 5.25 5.304688 7.597656 5.304688 10.5 C 5.304688 10.671875 5.34375 10.820312 5.359375 10.992188 C 4.835938 10.675781 4.222656 10.5 3.558594 10.5 C 1.632812 10.5 0.0742188 12.066406 0.0742188 14 C 0.0742188 15.933594 1.632812 17.5 3.558594 17.5 L 4.210938 17.5 C 4.496094 16.882812 4.851562 16.308594 5.351562 15.804688 L 9.648438 11.484375 L 13.945312 15.804688 C 14.441406 16.304688 14.757812 16.890625 15.03125 17.5 L 15.847656 17.5 L 18.347656 14.984375 L 20.851562 17.5 L 25.3125 17.5 C 26.753906 17.5 27.921875 16.324219 27.921875 14.875 C 27.921875 13.425781 26.753906 12.25 25.3125 12.25 C 24.949219 12.25 24.589844 12.335938 24.277344 12.46875 C 24.371094 12.117188 24.441406 11.757812 24.441406 11.375 C 24.441406 9.222656 22.886719 7.476562 20.851562 7.109375 C 20.925781 6.792969 20.960938 6.464844 20.960938 6.125 C 20.960938 3.707031 19.011719 1.75 16.609375 1.75 Z M 16.609375 1.75 "/>
<path style=" stroke:none;fill-rule:nonzero;fill:rgb(0%,100%,100%);fill-opacity:1;" d="M 9.625 13.84375 L 9.023438 14.5 L 6.507812 16.960938 C 4.804688 18.660156 4.804688 21.4375 6.507812 23.140625 C 8.210938 24.839844 11.039062 24.839844 12.742188 23.140625 C 14.445312 21.4375 14.445312 18.660156 12.742188 16.960938 L 10.226562 14.5 Z M 9.625 16.304688 L 11.484375 18.21875 C 12.515625 19.25 12.515625 20.902344 11.484375 21.9375 C 10.453125 22.96875 8.796875 22.96875 7.765625 21.9375 L 7.765625 21.882812 C 6.773438 20.847656 6.746094 19.238281 7.765625 18.21875 L 9.621094 16.273438 Z M 9.625 16.304688 "/>
<path style=" stroke:none;fill-rule:nonzero;fill:rgb(0%,100%,100%);fill-opacity:1;" d="M 18.375 17.34375 L 17.773438 18 L 15.257812 20.460938 C 13.554688 22.160156 13.554688 24.9375 15.257812 26.640625 C 16.960938 28.339844 19.789062 28.339844 21.492188 26.640625 C 23.195312 24.9375 23.195312 22.160156 21.492188 20.460938 L 18.976562 18 Z M 18.375 19.804688 L 20.234375 21.71875 C 21.265625 22.75 21.265625 24.402344 20.234375 25.4375 C 19.203125 26.46875 17.546875 26.46875 16.515625 25.4375 L 16.515625 25.382812 C 15.523438 24.347656 15.496094 22.738281 16.515625 21.71875 L 18.371094 19.773438 Z M 18.375 19.804688 "/>
</g>
</svg>
