<?xml version="1.0" encoding="UTF-8"?>
<svg xmlns="http://www.w3.org/2000/svg" xmlns:xlink="http://www.w3.org/1999/xlink" width="28" height="28" viewBox="0 0 28 28" version="1.1">
<g id="surface1">
<path style=" stroke:none;fill-rule:nonzero;fill:rgb(74.509804%,74.509804%,74.509804%);fill-opacity:1;" d="M 16.625 3.5 C 14.378906 3.5 12.554688 5.203125 12.304688 7.382812 C 11.726562 7.171875 11.148438 7 10.5 7 C 7.601562 7 5.25 9.347656 5.25 12.25 C 5.25 12.421875 5.289062 12.570312 5.304688 12.742188 C 4.78125 12.425781 4.152344 12.25 3.503906 12.25 C 1.570312 12.25 0.00390625 13.816406 0.00390625 15.75 C 0.00390625 17.683594 1.570312 19.25 3.503906 19.25 L 12.253906 19.25 L 12.253906 15.53125 C 12.253906 13.761719 13.765625 12.25 15.535156 12.25 L 24.394531 12.25 C 24.027344 10.523438 22.648438 9.171875 20.894531 8.859375 C 20.96875 8.542969 21.003906 8.214844 21.003906 7.875 C 21.003906 5.457031 19.046875 3.5 16.628906 3.5 Z M 16.625 3.5 "/>
<path style=" stroke:none;fill-rule:nonzero;fill:rgb(96.078431%,47.45098%,0%);fill-opacity:1;" d="M 15.539062 14 C 14.679688 14 14.007812 14.667969 14.007812 15.53125 L 14.007812 26.46875 C 14.007812 27.332031 14.679688 28 15.539062 28 L 26.476562 28 C 27.339844 28 28.007812 27.332031 28.007812 26.46875 L 28.007812 15.53125 C 28.007812 14.667969 27.339844 14 26.476562 14 Z M 19.257812 15.75 L 22.757812 15.75 L 22.757812 22.75 L 19.257812 22.75 Z M 19.257812 24.5 L 22.757812 24.5 L 22.757812 26.25 L 19.257812 26.25 Z M 19.257812 24.5 "/>
</g>
</svg>
