<?xml version="1.0" encoding="UTF-8"?>
<svg xmlns="http://www.w3.org/2000/svg" xmlns:xlink="http://www.w3.org/1999/xlink" width="28" height="28" viewBox="0 0 28 28" version="1.1">
<g id="surface1">
<path style=" stroke:none;fill-rule:nonzero;fill:rgb(74.509804%,74.509804%,74.509804%);fill-opacity:1;" d="M 16.695312 0 C 14.460938 0 12.644531 1.703125 12.398438 3.882812 C 11.839844 3.671875 11.242188 3.5 10.613281 3.5 C 7.730469 3.5 5.394531 5.847656 5.394531 8.75 C 5.394531 8.921875 5.429688 9.070312 5.445312 9.242188 C 4.921875 8.925781 4.292969 8.75 3.644531 8.75 C 1.722656 8.75 0.164062 10.316406 0.164062 12.25 C 0.164062 14.183594 1.722656 15.75 3.644531 15.75 L 5.4375 15.75 C 5.148438 14.835938 5.378906 13.835938 6.035156 13.144531 C 6.691406 12.449219 7.671875 12.167969 8.59375 12.414062 C 8.613281 12.414062 8.628906 12.414062 8.648438 12.414062 C 9.25 11.78125 10.128906 11.496094 10.984375 11.648438 C 11.339844 11.136719 11.859375 10.769531 12.453125 10.609375 C 12.765625 9.5 13.757812 8.722656 14.902344 8.695312 C 16.085938 8.675781 17.136719 9.460938 17.457031 10.609375 C 18.054688 10.769531 18.574219 11.136719 18.925781 11.648438 C 19.808594 11.441406 20.734375 11.710938 21.375 12.359375 C 22.300781 12.128906 23.277344 12.425781 23.921875 13.132812 C 24.570312 13.835938 24.78125 14.839844 24.472656 15.75 L 25.398438 15.75 C 26.839844 15.75 28.007812 14.574219 28.007812 13.125 C 28.007812 11.675781 26.839844 10.5 25.398438 10.5 C 25.039062 10.5 24.675781 10.585938 24.363281 10.71875 C 24.457031 10.367188 24.527344 10.007812 24.527344 9.625 C 24.527344 7.472656 22.972656 5.726562 20.9375 5.359375 C 21.011719 5.042969 21.046875 4.714844 21.046875 4.375 C 21.046875 1.960938 19.101562 0 16.695312 0 Z M 16.695312 0 "/>
<path style=" stroke:none;fill-rule:nonzero;fill:rgb(100%,100%,100%);fill-opacity:1;" d="M 14.769531 10.394531 C 14.308594 10.449219 13.96875 10.859375 14 11.324219 L 14 12.472656 L 13.507812 12.253906 C 13.070312 12.039062 12.542969 12.222656 12.332031 12.664062 C 12.121094 13.101562 12.304688 13.625 12.742188 13.839844 L 14.003906 14.433594 L 14.003906 17.605469 L 11.105469 15.800781 L 11.214844 14.269531 C 11.257812 13.785156 10.902344 13.359375 10.421875 13.3125 C 9.9375 13.265625 9.507812 13.621094 9.464844 14.105469 L 9.410156 14.816406 L 8.371094 14.160156 C 8.105469 13.96875 7.761719 13.941406 7.46875 14.082031 C 7.179688 14.226562 6.992188 14.519531 6.980469 14.84375 C 6.972656 15.167969 7.144531 15.46875 7.425781 15.628906 L 8.574219 16.339844 L 8.027344 16.777344 C 7.632812 17.066406 7.546875 17.617188 7.835938 18.007812 C 8.121094 18.402344 8.671875 18.488281 9.066406 18.199219 L 10.214844 17.324219 L 13.167969 19.128906 L 10.160156 20.988281 L 9.011719 20.167969 C 8.777344 19.90625 8.40625 19.808594 8.070312 19.921875 C 7.738281 20.039062 7.503906 20.34375 7.484375 20.695312 C 7.460938 21.050781 7.652344 21.378906 7.972656 21.535156 L 8.574219 21.972656 L 7.371094 22.683594 C 6.945312 22.941406 6.8125 23.492188 7.070312 23.914062 C 7.324219 24.335938 7.875 24.472656 8.300781 24.214844 L 9.394531 23.558594 L 9.449219 24.214844 C 9.464844 24.527344 9.652344 24.808594 9.933594 24.949219 C 10.210938 25.089844 10.546875 25.066406 10.808594 24.894531 C 11.070312 24.71875 11.21875 24.417969 11.199219 24.105469 L 11.089844 22.519531 L 13.988281 20.714844 L 13.988281 23.886719 L 12.726562 24.449219 C 12.289062 24.660156 12.105469 25.183594 12.316406 25.625 C 12.527344 26.0625 13.054688 26.246094 13.492188 26.035156 L 13.984375 25.816406 L 13.984375 27.019531 C 13.980469 27.332031 14.144531 27.628906 14.417969 27.785156 C 14.691406 27.945312 15.027344 27.945312 15.300781 27.785156 C 15.574219 27.628906 15.738281 27.332031 15.734375 27.019531 L 15.734375 25.816406 L 16.226562 26.035156 C 16.667969 26.246094 17.195312 26.0625 17.40625 25.621094 C 17.621094 25.183594 17.4375 24.652344 16.996094 24.441406 L 15.738281 23.847656 L 15.738281 20.675781 L 18.632812 22.425781 L 18.523438 24.066406 C 18.511719 24.546875 18.890625 24.953125 19.375 24.96875 C 19.855469 24.980469 20.261719 24.601562 20.273438 24.121094 L 20.328125 23.464844 L 21.367188 24.121094 C 21.632812 24.316406 21.984375 24.347656 22.28125 24.203125 C 22.574219 24.054688 22.761719 23.757812 22.765625 23.429688 C 22.769531 23.097656 22.589844 22.796875 22.296875 22.644531 L 21.09375 21.933594 L 21.695312 21.496094 C 21.984375 21.324219 22.148438 21.003906 22.125 20.671875 C 22.101562 20.339844 21.886719 20.050781 21.578125 19.921875 C 21.269531 19.796875 20.914062 19.855469 20.664062 20.078125 L 19.515625 20.953125 L 16.5625 19.148438 L 19.515625 17.34375 L 20.71875 18.164062 C 20.96875 18.402344 21.335938 18.46875 21.65625 18.339844 C 21.972656 18.207031 22.1875 17.898438 22.195312 17.554688 C 22.207031 17.210938 22.015625 16.890625 21.703125 16.742188 L 21.15625 16.359375 L 22.359375 15.59375 C 22.785156 15.335938 22.917969 14.785156 22.660156 14.363281 C 22.40625 13.9375 21.855469 13.804688 21.429688 14.0625 L 20.335938 14.71875 L 20.28125 14.0625 C 20.265625 13.746094 20.078125 13.46875 19.796875 13.328125 C 19.515625 13.1875 19.183594 13.207031 18.921875 13.382812 C 18.660156 13.554688 18.511719 13.855469 18.53125 14.171875 L 18.640625 15.757812 L 15.742188 17.5625 L 15.742188 14.390625 L 17 13.789062 C 17.316406 13.671875 17.535156 13.382812 17.566406 13.050781 C 17.601562 12.71875 17.441406 12.394531 17.160156 12.21875 C 16.875 12.039062 16.515625 12.039062 16.230469 12.214844 L 15.742188 12.421875 L 15.742188 11.273438 C 15.757812 11.011719 15.660156 10.757812 15.46875 10.578125 C 15.277344 10.398438 15.015625 10.3125 14.757812 10.34375 Z M 14.769531 10.394531 "/>
</g>
</svg>
