<?xml version="1.0" encoding="UTF-8"?>
<svg xmlns="http://www.w3.org/2000/svg" xmlns:xlink="http://www.w3.org/1999/xlink" width="28" height="28" viewBox="0 0 28 28" version="1.1">
<g id="surface1">
<path style=" stroke:none;fill-rule:nonzero;fill:rgb(74.509804%,74.509804%,74.509804%);fill-opacity:1;" d="M 14 5.25 C 9.1875 5.25 5.25 9.1875 5.25 14 C 5.25 17.121094 6.925781 19.886719 9.40625 21.4375 C 9.699219 21.304688 10.015625 21.191406 10.335938 21.109375 C 10.734375 17.929688 13.34375 15.421875 16.625 15.421875 C 18.378906 15.421875 19.84375 16.25 21 17.390625 C 21.308594 17.332031 21.539062 17.171875 21.875 17.171875 C 21.949219 17.171875 22.019531 17.167969 22.09375 17.171875 C 22.484375 16.179688 22.75 15.125 22.75 14 C 22.75 9.1875 18.8125 5.25 14 5.25 Z M 14 5.25 "/>
<path style=" stroke:none;fill-rule:nonzero;fill:rgb(74.509804%,74.509804%,74.509804%);fill-opacity:1;" d="M 0.984375 12.25 L 2.515625 12.25 C 3.058594 12.25 3.5 12.691406 3.5 13.234375 L 3.5 14.765625 C 3.5 15.308594 3.058594 15.75 2.515625 15.75 L 0.984375 15.75 C 0.441406 15.75 0 15.308594 0 14.765625 L 0 13.234375 C 0 12.691406 0.441406 12.25 0.984375 12.25 Z M 0.984375 12.25 "/>
<path style=" stroke:none;fill-rule:nonzero;fill:rgb(74.509804%,74.509804%,74.509804%);fill-opacity:1;" d="M 25.484375 12.25 L 27.015625 12.25 C 27.558594 12.25 28 12.691406 28 13.234375 L 28 14.765625 C 28 15.308594 27.558594 15.75 27.015625 15.75 L 25.484375 15.75 C 24.941406 15.75 24.5 15.308594 24.5 14.765625 L 24.5 13.234375 C 24.5 12.691406 24.941406 12.25 25.484375 12.25 Z M 25.484375 12.25 "/>
<path style=" stroke:none;fill-rule:nonzero;fill:rgb(74.509804%,74.509804%,74.509804%);fill-opacity:1;" d="M 15.75 0.984375 L 15.75 2.515625 C 15.75 3.058594 15.308594 3.5 14.765625 3.5 L 13.234375 3.5 C 12.691406 3.5 12.25 3.058594 12.25 2.515625 L 12.25 0.984375 C 12.25 0.441406 12.691406 0 13.234375 0 L 14.765625 0 C 15.308594 0 15.75 0.441406 15.75 0.984375 Z M 15.75 0.984375 "/>
<path style=" stroke:none;fill-rule:nonzero;fill:rgb(74.509804%,74.509804%,74.509804%);fill-opacity:1;" d="M 24.441406 6.027344 L 23.359375 7.109375 C 22.976562 7.496094 22.351562 7.496094 21.96875 7.109375 L 20.882812 6.027344 C 20.5 5.644531 20.5 5.019531 20.882812 4.636719 L 21.96875 3.554688 C 22.351562 3.167969 22.976562 3.167969 23.359375 3.554688 L 24.441406 4.636719 C 24.828125 5.019531 24.828125 5.644531 24.441406 6.027344 Z M 24.441406 6.027344 "/>
<path style=" stroke:none;fill-rule:nonzero;fill:rgb(74.509804%,74.509804%,74.509804%);fill-opacity:1;" d="M 7.117188 23.351562 L 6.035156 24.433594 C 5.652344 24.820312 5.027344 24.820312 4.644531 24.433594 L 3.5625 23.351562 C 3.175781 22.96875 3.175781 22.34375 3.5625 21.960938 L 4.644531 20.875 C 5.027344 20.492188 5.652344 20.492188 6.035156 20.875 L 7.117188 21.960938 C 7.503906 22.34375 7.503906 22.96875 7.117188 23.351562 Z M 7.117188 23.351562 "/>
<path style=" stroke:none;fill-rule:nonzero;fill:rgb(74.509804%,74.509804%,74.509804%);fill-opacity:1;" d="M 6.027344 3.5625 L 7.109375 4.644531 C 7.496094 5.027344 7.496094 5.652344 7.109375 6.035156 L 6.027344 7.117188 C 5.644531 7.503906 5.019531 7.503906 4.636719 7.117188 L 3.554688 6.035156 C 3.167969 5.652344 3.167969 5.027344 3.554688 4.644531 L 4.636719 3.5625 C 5.019531 3.175781 5.644531 3.175781 6.027344 3.5625 Z M 6.027344 3.5625 "/>
<path style=" stroke:none;fill-rule:nonzero;fill:rgb(74.509804%,74.509804%,74.509804%);fill-opacity:1;" d="M 16.625 17.5 C 14.207031 17.5 12.25 19.457031 12.25 21.875 C 12.25 22.257812 12.320312 22.613281 12.414062 22.96875 C 12.097656 22.847656 11.75 22.757812 11.382812 22.757812 C 9.933594 22.757812 8.757812 23.933594 8.757812 25.382812 C 8.757812 26.832031 9.933594 28.007812 11.382812 28.007812 L 25.382812 28.007812 C 26.832031 28.007812 28.007812 26.832031 28.007812 25.382812 C 28.007812 23.933594 26.832031 22.757812 25.382812 22.757812 C 25.382812 20.824219 23.816406 19.257812 21.882812 19.257812 C 21.328125 19.257812 20.816406 19.414062 20.351562 19.640625 C 19.597656 18.363281 18.230469 17.507812 16.640625 17.507812 Z M 16.625 17.5 "/>
<path style=" stroke:none;fill-rule:nonzero;fill:rgb(100%,100%,0%);fill-opacity:1;" d="M 9.0625 21.191406 C 7.515625 20.125 6.347656 18.578125 5.726562 16.777344 C 5.097656 14.957031 5.117188 12.855469 5.777344 11.054688 C 5.96875 10.539062 6.398438 9.671875 6.6875 9.238281 C 7.914062 7.386719 9.722656 6.089844 11.84375 5.539062 C 13.054688 5.226562 14.382812 5.183594 15.617188 5.417969 C 18.925781 6.039062 21.621094 8.578125 22.460938 11.851562 C 22.628906 12.511719 22.695312 12.984375 22.722656 13.699219 C 22.753906 14.703125 22.625 15.558594 22.289062 16.570312 L 22.101562 17.132812 L 21.863281 17.15625 C 21.734375 17.171875 21.503906 17.226562 21.347656 17.273438 C 21.195312 17.324219 21.050781 17.367188 21.03125 17.367188 C 21.007812 17.367188 20.882812 17.265625 20.753906 17.144531 C 20.292969 16.714844 19.675781 16.289062 19.066406 15.984375 C 17.976562 15.4375 16.632812 15.28125 15.332031 15.546875 C 13.734375 15.871094 12.1875 16.960938 11.304688 18.382812 C 10.820312 19.15625 10.515625 19.949219 10.371094 20.8125 L 10.324219 21.09375 L 9.910156 21.234375 C 9.683594 21.3125 9.472656 21.386719 9.441406 21.398438 C 9.410156 21.40625 9.246094 21.316406 9.0625 21.191406 Z M 9.0625 21.191406 "/>
<path style=" stroke:none;fill-rule:nonzero;fill:rgb(100%,40%,0%);fill-opacity:1;" d="M 5.019531 24.652344 C 4.816406 24.582031 4.621094 24.417969 4.035156 23.820312 C 3.367188 23.144531 3.304688 23.042969 3.304688 22.65625 C 3.304688 22.257812 3.363281 22.167969 4.109375 21.421875 C 4.835938 20.695312 4.949219 20.617188 5.304688 20.617188 C 5.710938 20.617188 5.746094 20.636719 6.511719 21.390625 C 7.300781 22.164062 7.382812 22.285156 7.382812 22.65625 C 7.382812 23.015625 7.308594 23.125 6.578125 23.863281 C 5.832031 24.613281 5.707031 24.699219 5.34375 24.695312 C 5.222656 24.691406 5.078125 24.675781 5.019531 24.652344 Z M 5.019531 24.652344 "/>
<path style=" stroke:none;fill-rule:nonzero;fill:rgb(100%,40%,0%);fill-opacity:1;" d="M 0.714844 15.703125 C 0.472656 15.628906 0.257812 15.445312 0.132812 15.203125 L 0.0117188 14.96875 L 0.0234375 13.953125 C 0.03125 13.066406 0.0429688 12.925781 0.0976562 12.824219 C 0.210938 12.621094 0.390625 12.445312 0.574219 12.359375 C 0.75 12.277344 0.785156 12.273438 1.75 12.273438 C 2.714844 12.273438 2.75 12.277344 2.925781 12.359375 C 3.109375 12.445312 3.289062 12.621094 3.402344 12.824219 C 3.457031 12.925781 3.464844 13.066406 3.476562 13.917969 C 3.484375 14.5625 3.472656 14.941406 3.445312 15.035156 C 3.382812 15.261719 3.195312 15.492188 2.972656 15.613281 L 2.777344 15.722656 L 1.804688 15.730469 C 1.265625 15.734375 0.777344 15.722656 0.714844 15.703125 Z M 0.714844 15.703125 "/>
<path style=" stroke:none;fill-rule:nonzero;fill:rgb(100%,40%,0%);fill-opacity:1;" d="M 5.003906 7.332031 C 4.835938 7.269531 4.722656 7.175781 4.128906 6.582031 C 3.355469 5.8125 3.289062 5.707031 3.289062 5.339844 C 3.289062 4.96875 3.355469 4.867188 4.140625 4.085938 C 4.804688 3.429688 4.847656 3.390625 5.050781 3.335938 C 5.308594 3.261719 5.542969 3.28125 5.765625 3.390625 C 5.980469 3.5 7.128906 4.644531 7.261719 4.882812 C 7.351562 5.039062 7.367188 5.109375 7.367188 5.339844 C 7.367188 5.570312 7.351562 5.636719 7.261719 5.796875 C 7.128906 6.035156 5.980469 7.179688 5.761719 7.289062 C 5.539062 7.402344 5.246094 7.417969 5.003906 7.332031 Z M 5.003906 7.332031 "/>
<path style=" stroke:none;fill-rule:nonzero;fill:rgb(100%,40%,0%);fill-opacity:1;" d="M 12.980469 3.449219 C 12.667969 3.363281 12.40625 3.109375 12.316406 2.804688 C 12.234375 2.539062 12.234375 0.957031 12.3125 0.695312 C 12.382812 0.460938 12.589844 0.222656 12.816406 0.117188 C 12.996094 0.0351562 13.023438 0.03125 14.007812 0.03125 C 14.964844 0.03125 15.023438 0.0351562 15.175781 0.109375 C 15.363281 0.199219 15.550781 0.382812 15.640625 0.566406 C 15.699219 0.683594 15.710938 0.816406 15.71875 1.6875 C 15.730469 2.78125 15.71875 2.875 15.511719 3.136719 C 15.445312 3.21875 15.308594 3.320312 15.191406 3.378906 L 14.984375 3.480469 L 14.066406 3.488281 C 13.414062 3.492188 13.097656 3.480469 12.980469 3.449219 Z M 12.980469 3.449219 "/>
<path style=" stroke:none;fill-rule:nonzero;fill:rgb(100%,40%,0%);fill-opacity:1;" d="M 22.460938 7.367188 C 22.210938 7.300781 22.058594 7.179688 21.40625 6.519531 C 20.753906 5.863281 20.714844 5.816406 20.65625 5.613281 C 20.617188 5.476562 20.601562 5.34375 20.617188 5.242188 C 20.660156 4.910156 20.757812 4.773438 21.40625 4.121094 C 22.105469 3.414062 22.304688 3.28125 22.640625 3.28125 C 23.03125 3.28125 23.121094 3.339844 23.855469 4.0625 C 24.640625 4.839844 24.699219 4.933594 24.699219 5.339844 C 24.699219 5.546875 24.679688 5.644531 24.621094 5.753906 C 24.515625 5.953125 23.21875 7.234375 23.054688 7.304688 C 22.890625 7.371094 22.601562 7.402344 22.460938 7.367188 Z M 22.460938 7.367188 "/>
<path style=" stroke:none;fill-rule:nonzero;fill:rgb(100%,40%,0%);fill-opacity:1;" d="M 25.160156 15.671875 C 24.933594 15.59375 24.714844 15.394531 24.601562 15.164062 C 24.523438 15.007812 24.519531 14.960938 24.519531 14.007812 L 24.519531 13.015625 L 24.621094 12.808594 C 24.679688 12.695312 24.78125 12.550781 24.855469 12.492188 C 25.105469 12.285156 25.21875 12.269531 26.3125 12.28125 C 27.414062 12.292969 27.4375 12.296875 27.699219 12.554688 C 27.960938 12.804688 27.96875 12.851562 27.96875 13.988281 C 27.96875 14.976562 27.964844 15.003906 27.882812 15.183594 C 27.835938 15.285156 27.726562 15.425781 27.640625 15.5 C 27.386719 15.714844 27.25 15.742188 26.238281 15.738281 C 25.472656 15.738281 25.324219 15.730469 25.160156 15.671875 Z M 25.160156 15.671875 "/>
</g>
</svg>
