<?xml version="1.0" encoding="UTF-8"?>
<svg xmlns="http://www.w3.org/2000/svg" xmlns:xlink="http://www.w3.org/1999/xlink" width="28" height="28" viewBox="0 0 28 28" version="1.1">
<g id="surface1">
<path style=" stroke:none;fill-rule:nonzero;fill:rgb(74.509804%,74.509804%,74.509804%);fill-opacity:1;" d="M 16.625 7 C 14.378906 7 12.554688 8.703125 12.304688 10.882812 C 11.726562 10.671875 11.148438 10.5 10.5 10.5 C 7.601562 10.5 5.25 12.847656 5.25 15.75 C 5.25 15.921875 5.289062 16.070312 5.304688 16.242188 C 4.78125 15.925781 4.152344 15.75 3.503906 15.75 C 1.570312 15.75 0.00390625 17.316406 0.00390625 19.25 C 0.00390625 21.183594 1.570312 22.75 3.503906 22.75 L 25.378906 22.75 C 26.828125 22.75 28.003906 21.574219 28.003906 20.125 C 28.003906 18.675781 26.828125 17.5 25.378906 17.5 C 25.015625 17.5 24.652344 17.585938 24.339844 17.71875 C 24.433594 17.367188 24.503906 17.007812 24.503906 16.625 C 24.503906 14.472656 22.941406 12.726562 20.894531 12.359375 C 20.96875 12.042969 21.003906 11.714844 21.003906 11.375 C 21.003906 8.957031 19.046875 7 16.628906 7 Z M 16.625 7 "/>
</g>
</svg>
