<?xml version="1.0" encoding="UTF-8"?>
<svg xmlns="http://www.w3.org/2000/svg" xmlns:xlink="http://www.w3.org/1999/xlink" width="96" height="96" viewBox="0 0 96 96" version="1.1">
<g id="surface1">
<path style=" stroke:none;fill-rule:evenodd;fill:rgb(81.960784%,16.470588%,4.313725%);fill-opacity:1;" d="M 12.101562 29.539062 L 22.320312 39.542969 L 22 25.515625 L 12.097656 25.46875 Z M 12.101562 29.539062 "/>
<path style="fill-rule:evenodd;fill:rgb(94.901961%,94.901961%,94.901961%);fill-opacity:1;stroke-width:5.03546;stroke-linecap:butt;stroke-linejoin:miter;stroke:rgb(68.627451%,68.627451%,68.627451%);stroke-opacity:1;stroke-miterlimit:4;" d="M 97.045898 1029.840207 L 433.919271 1028.660194 L 435.099284 664.768592 L 347.066243 575.575884 L 97.045898 575.575884 Z M 97.045898 1029.840207 " transform="matrix(0.192,0,0,0.192,0,-106.053539)"/>
<path style="fill-rule:evenodd;fill:rgb(68.627451%,68.627451%,68.627451%);fill-opacity:1;stroke-width:5.03546;stroke-linecap:butt;stroke-linejoin:miter;stroke:rgb(68.627451%,68.627451%,68.627451%);stroke-opacity:1;stroke-miterlimit:4;" d="M 431.518555 662.917193 L 349.344889 662.347531 L 350.118001 578.546262 Z M 431.518555 662.917193 " transform="matrix(0.192,0,0,0.192,0,-106.053539)"/>
<path style=" stroke:none;fill-rule:nonzero;fill:rgb(94.117647%,22.352941%,8.627451%);fill-opacity:1;" d="M 12.125 13.40625 L 55.308594 13.40625 L 55.308594 29.601562 L 12.125 29.601562 Z M 12.125 13.40625 "/>
<path style="fill:none;stroke-width:9;stroke-linecap:butt;stroke-linejoin:miter;stroke:rgb(100%,100%,100%);stroke-opacity:1;stroke-miterlimit:4;" d="M 380.210939 670.717878 L 346.214357 670.310977 L 346.621258 618.593854 L 381.085776 618.73627 " transform="matrix(0.192,0,0,0.192,-32.484875,-102.461426)"/>
<path style="fill:none;stroke-width:9;stroke-linecap:butt;stroke-linejoin:miter;stroke:rgb(100%,100%,100%);stroke-opacity:1;stroke-miterlimit:4;" d="M 348.960939 642.37722 L 378.095053 642.519635 " transform="matrix(0.192,0,0,0.192,-32.484875,-102.461426)"/>
<path style=" stroke:none;fill-rule:nonzero;fill:rgb(94.117647%,22.352941%,8.627451%);fill-opacity:1;" d="M 52.683594 90.648438 C 50.109375 90.21875 46.417969 88.761719 44.132812 87.265625 C 39.109375 83.992188 35.828125 80.355469 33.800781 75.8125 C 33.125 74.300781 32.757812 73.128906 31.703125 69.144531 C 31.4375 68.15625 31.113281 67.0625 30.976562 66.71875 C 30.746094 66.144531 30.734375 65.945312 30.835938 64.019531 C 30.929688 62.1875 31.242188 59.707031 31.410156 59.445312 C 31.441406 59.394531 31.515625 59.382812 31.578125 59.417969 C 31.78125 59.539062 31.972656 58.976562 32.160156 57.695312 C 32.261719 56.992188 32.421875 56.253906 32.515625 56.054688 C 32.609375 55.855469 32.769531 55.421875 32.867188 55.082031 C 33.101562 54.308594 33.414062 53.710938 34.390625 52.210938 C 34.820312 51.550781 35.265625 50.832031 35.382812 50.613281 C 35.519531 50.355469 35.667969 50.230469 35.804688 50.253906 C 35.9375 50.28125 36.15625 50.113281 36.382812 49.8125 C 37.375 48.503906 42.050781 44.640625 42.480469 44.773438 C 42.601562 44.804688 43.09375 44.644531 43.578125 44.410156 C 44.453125 43.984375 44.84375 43.890625 44.84375 44.09375 C 44.84375 44.148438 44.710938 44.28125 44.558594 44.382812 C 44.289062 44.5625 44.292969 44.566406 44.714844 44.46875 C 44.957031 44.414062 45.363281 44.335938 45.617188 44.289062 C 45.929688 44.242188 46.0625 44.164062 46.015625 44.054688 C 45.976562 43.960938 46.070312 43.867188 46.242188 43.820312 C 46.671875 43.710938 47.34375 43.730469 47.34375 43.851562 C 47.34375 44 46.960938 44.148438 46.65625 44.117188 C 46.445312 44.097656 46.4375 44.117188 46.59375 44.21875 C 46.75 44.320312 46.75 44.339844 46.601562 44.34375 C 46.507812 44.34375 46.460938 44.375 46.496094 44.414062 C 46.539062 44.453125 46.796875 44.371094 47.078125 44.234375 C 47.359375 44.097656 47.867188 43.925781 48.21875 43.855469 C 48.640625 43.765625 48.847656 43.664062 48.847656 43.539062 C 48.847656 43.375 49.042969 43.367188 50.378906 43.433594 C 51.222656 43.476562 52.492188 43.601562 53.207031 43.714844 C 54.5 43.914062 54.5 43.914062 54.984375 43.652344 C 55.5625 43.328125 56.492188 43.289062 56.734375 43.574219 C 56.828125 43.675781 57.074219 43.84375 57.285156 43.953125 C 57.628906 44.125 57.652344 44.125 57.507812 43.953125 C 57.226562 43.632812 57.503906 43.640625 58.574219 43.984375 C 62.019531 45.09375 64.832031 47.070312 66.917969 49.84375 C 67.414062 50.503906 67.445312 50.800781 66.976562 50.398438 L 66.707031 50.171875 L 66.910156 50.554688 C 67.023438 50.765625 67.117188 51.003906 67.117188 51.082031 C 67.117188 51.160156 67.449219 51.742188 67.855469 52.378906 C 68.769531 53.808594 69.023438 54.289062 68.960938 54.464844 C 68.9375 54.542969 68.53125 54.039062 68.0625 53.347656 C 67.59375 52.65625 66.902344 51.726562 66.519531 51.277344 C 65.957031 50.609375 65.808594 50.496094 65.691406 50.640625 C 65.617188 50.734375 65.429688 50.828125 65.273438 50.851562 L 64.996094 50.890625 L 65.269531 51.410156 C 65.421875 51.695312 65.566406 51.871094 65.59375 51.800781 C 65.722656 51.421875 66.335938 51.917969 66.613281 52.632812 C 66.707031 52.863281 66.945312 53.335938 67.148438 53.6875 C 67.351562 54.039062 67.492188 54.351562 67.460938 54.378906 C 67.433594 54.414062 67.246094 54.316406 67.050781 54.167969 L 66.695312 53.898438 L 66.9375 54.296875 C 67.070312 54.519531 67.292969 54.789062 67.433594 54.894531 C 67.609375 55.03125 67.691406 55.246094 67.699219 55.578125 C 67.714844 56.195312 68.078125 56.921875 68.28125 56.726562 C 68.589844 56.429688 68.65625 56.617188 68.574219 57.59375 C 68.519531 58.316406 68.546875 58.789062 68.6875 59.292969 C 68.894531 60.058594 68.847656 60.246094 68.546875 59.886719 C 68.351562 59.660156 68.347656 59.664062 68.4375 59.898438 C 68.621094 60.40625 68.757812 61.160156 68.722656 61.457031 C 68.648438 62.007812 68.433594 61.78125 68.359375 61.070312 L 68.285156 60.378906 L 68.265625 61.117188 C 68.253906 61.519531 68.152344 62.304688 68.042969 62.855469 C 67.933594 63.414062 67.875 64.089844 67.914062 64.375 C 67.992188 64.914062 67.9375 64.9375 67.46875 64.550781 C 67.277344 64.394531 67.246094 64.425781 67.113281 64.894531 C 67 65.289062 67 65.511719 67.117188 65.84375 C 67.199219 66.082031 67.25 66.40625 67.222656 66.558594 C 67.167969 66.917969 66.867188 67.035156 66.867188 66.695312 C 66.867188 66.265625 66.695312 66.417969 66.179688 67.3125 C 64.777344 69.722656 62.5625 71.59375 60.054688 72.472656 C 58.574219 72.992188 57.582031 73.1875 55.914062 73.277344 L 54.414062 73.359375 L 55.15625 73.578125 C 55.753906 73.753906 56.105469 73.78125 56.96875 73.71875 C 58.105469 73.628906 59.433594 73.390625 60.039062 73.171875 C 60.277344 73.082031 60.441406 73.082031 60.523438 73.160156 C 60.71875 73.347656 58.976562 74.089844 57.941406 74.253906 C 56.183594 74.542969 53.828125 74.230469 51.746094 73.445312 C 50.335938 72.910156 48.238281 71.519531 48.5625 71.328125 C 48.625 71.289062 49.023438 71.472656 49.445312 71.734375 C 49.992188 72.0625 50.222656 72.148438 50.222656 72.027344 C 50.222656 71.789062 50.300781 71.800781 50.734375 72.097656 C 51.125 72.363281 52.328125 72.859375 53.195312 73.113281 C 54.136719 73.386719 53.769531 73.054688 52.503906 72.484375 C 48.503906 70.695312 46.839844 68.902344 46.015625 65.488281 C 45.710938 64.234375 46.035156 61.488281 46.585938 60.625 C 46.726562 60.410156 46.84375 60.140625 46.84375 60.03125 C 46.84375 59.554688 47.667969 58.296875 48.519531 57.484375 C 50.015625 56.046875 51.566406 55.453125 53.585938 55.539062 C 54.5625 55.585938 54.976562 55.667969 55.789062 55.976562 C 56.710938 56.328125 57.875 57.0625 57.515625 57.074219 C 57.433594 57.074219 57.066406 56.957031 56.703125 56.8125 C 56.148438 56.589844 55.796875 56.546875 54.539062 56.542969 C 52.773438 56.535156 51.914062 56.773438 50.660156 57.621094 C 48.882812 58.820312 47.890625 60.207031 47.542969 61.984375 C 47.304688 63.175781 47.300781 63.507812 47.480469 64.6875 C 47.589844 65.371094 47.664062 65.570312 47.796875 65.523438 C 47.90625 65.480469 47.96875 65.539062 47.96875 65.6875 C 47.96875 66.109375 48.929688 67.820312 49.589844 68.589844 C 51.191406 70.433594 53.773438 71.605469 56.230469 71.605469 C 57.503906 71.605469 58.53125 71.375 59.476562 70.867188 C 59.859375 70.664062 60.339844 70.414062 60.546875 70.316406 C 61.273438 69.960938 61.726562 69.554688 62.253906 68.785156 C 62.546875 68.355469 62.867188 68.007812 62.964844 68.007812 C 63.109375 68.007812 63.101562 68.066406 62.933594 68.335938 C 62.375 69.21875 63.6875 67.609375 64.363281 66.578125 L 65.125 65.421875 L 65.042969 64.664062 C 64.960938 63.933594 64.972656 63.890625 65.335938 63.519531 C 65.6875 63.167969 65.71875 63.0625 65.757812 62.121094 C 65.792969 61.277344 65.769531 61.101562 65.617188 61.101562 C 65.472656 61.101562 65.40625 60.878906 65.347656 60.136719 C 65.265625 59.160156 64.4375 55.871094 64.242188 55.757812 C 64.183594 55.722656 64.023438 55.40625 63.882812 55.054688 C 63.414062 53.863281 62.585938 52.722656 61.300781 51.480469 C 59.449219 49.6875 57.117188 48.304688 54.914062 47.691406 C 53.042969 47.171875 49.859375 47.359375 47.59375 48.128906 C 46.488281 48.503906 45.398438 49 45.214844 49.210938 C 45.132812 49.308594 45.007812 49.355469 44.945312 49.316406 C 44.875 49.277344 44.898438 49.167969 44.992188 49.0625 C 45.40625 48.578125 44.023438 49.460938 43.132812 50.246094 C 42.59375 50.722656 42.132812 51.125 42.105469 51.144531 C 42.082031 51.160156 42.1875 51.144531 42.339844 51.105469 C 42.59375 51.039062 42.601562 51.058594 42.464844 51.304688 C 42.378906 51.460938 41.921875 51.746094 41.359375 51.992188 C 40.414062 52.402344 39.804688 52.855469 39.316406 53.5 C 39.125 53.757812 39.109375 53.816406 39.265625 53.757812 C 39.371094 53.722656 39.460938 53.746094 39.460938 53.816406 C 39.460938 54.15625 39.132812 54.542969 38.65625 54.765625 C 37.585938 55.261719 35.714844 57.917969 34.714844 60.351562 C 34.265625 61.4375 34.273438 61.398438 34.515625 61.398438 C 34.773438 61.398438 34.753906 61.679688 34.402344 63.179688 C 33.890625 65.359375 33.890625 65.292969 34.445312 68.363281 C 35.125 72.109375 35.523438 73.359375 36.28125 74.136719 C 36.457031 74.316406 36.628906 74.703125 36.707031 75.089844 C 36.800781 75.554688 36.953125 75.859375 37.238281 76.15625 C 37.503906 76.417969 37.589844 76.582031 37.488281 76.617188 C 37.292969 76.6875 37.910156 77.570312 38.476562 78.03125 C 38.757812 78.261719 38.96875 78.335938 39.199219 78.296875 C 39.699219 78.203125 40.210938 78.480469 40.992188 79.269531 C 41.804688 80.085938 41.890625 80.308594 41.351562 80.230469 C 41 80.183594 40.996094 80.191406 41.164062 80.441406 C 41.265625 80.585938 41.625 80.933594 41.96875 81.210938 C 42.453125 81.601562 42.578125 81.773438 42.519531 81.957031 C 42.429688 82.222656 42.683594 82.46875 43.246094 82.675781 C 43.597656 82.800781 43.707031 83.078125 43.445312 83.164062 C 43.367188 83.1875 43.859375 83.675781 44.539062 84.246094 C 45.308594 84.886719 45.828125 85.238281 45.898438 85.167969 C 46.09375 84.988281 46.34375 85.042969 46.347656 85.269531 C 46.351562 85.515625 46.574219 85.773438 47.367188 86.464844 C 47.867188 86.898438 47.992188 86.953125 48.300781 86.871094 C 48.582031 86.796875 48.761719 86.84375 49.15625 87.101562 C 49.949219 87.613281 50.429688 87.820312 50.84375 87.820312 C 51.246094 87.820312 51.304688 87.929688 51.09375 88.308594 C 50.980469 88.507812 51.003906 88.539062 51.261719 88.539062 C 51.425781 88.539062 51.886719 88.648438 52.285156 88.78125 C 53.195312 89.082031 53.574219 89.101562 53.347656 88.839844 C 53.011719 88.449219 53.367188 88.554688 54.570312 89.203125 C 56.253906 90.109375 57.105469 90.210938 60.453125 89.917969 C 60.949219 89.875 61.109375 89.898438 61.109375 90.023438 C 61.109375 90.125 60.679688 90.285156 59.886719 90.464844 C 58.851562 90.707031 58.296875 90.753906 56.167969 90.78125 C 54.488281 90.800781 53.339844 90.753906 52.683594 90.648438 Z M 50.972656 72.640625 C 50.972656 72.617188 50.816406 72.507812 50.628906 72.394531 L 50.285156 72.191406 L 50.582031 72.441406 C 50.867188 72.683594 50.972656 72.734375 50.972656 72.640625 Z M 68.203125 60.054688 C 68.164062 59.957031 68.132812 59.988281 68.125 60.128906 C 68.125 60.253906 68.152344 60.324219 68.195312 60.285156 C 68.234375 60.246094 68.238281 60.144531 68.203125 60.054688 Z M 39.726562 47.378906 C 39.882812 47.1875 39.875 47.183594 39.675781 47.332031 C 39.554688 47.421875 39.460938 47.515625 39.460938 47.542969 C 39.460938 47.640625 39.5625 47.578125 39.726562 47.378906 Z M 41.148438 46.269531 C 41.273438 46.132812 41.347656 46.027344 41.3125 46.027344 C 41.28125 46.027344 41.148438 46.132812 41.023438 46.269531 C 40.898438 46.398438 40.824219 46.507812 40.859375 46.507812 C 40.894531 46.507812 41.023438 46.398438 41.148438 46.269531 Z M 42.722656 45.421875 C 43.136719 45.289062 43.371094 45.265625 43.460938 45.347656 C 43.542969 45.433594 43.867188 45.382812 44.46875 45.195312 C 44.953125 45.039062 45.328125 44.894531 45.300781 44.867188 C 45.273438 44.84375 44.875 44.941406 44.414062 45.089844 C 43.777344 45.292969 43.554688 45.320312 43.484375 45.214844 C 43.363281 45.027344 42.222656 45.390625 41.734375 45.773438 L 41.398438 46.035156 L 41.757812 45.828125 C 41.957031 45.710938 42.390625 45.53125 42.722656 45.421875 Z M 46.332031 45.117188 C 46.695312 45.015625 46.972656 44.910156 46.945312 44.882812 C 46.886719 44.828125 45.59375 45.183594 45.59375 45.253906 C 45.59375 45.328125 45.601562 45.324219 46.332031 45.117188 Z M 48.40625 44.464844 L 48.90625 44.375 L 48.46875 44.363281 C 48.226562 44.359375 47.890625 44.4375 47.71875 44.539062 C 47.515625 44.65625 47.492188 44.691406 47.65625 44.636719 C 47.796875 44.589844 48.132812 44.511719 48.40625 44.464844 Z M 49.398438 44.234375 C 49.4375 44.175781 49.359375 44.15625 49.222656 44.191406 C 48.929688 44.265625 48.890625 44.347656 49.152344 44.347656 C 49.25 44.347656 49.363281 44.296875 49.398438 44.234375 Z M 53.441406 44.273438 C 53.398438 44.234375 53.289062 44.230469 53.203125 44.265625 C 53.101562 44.304688 53.132812 44.332031 53.277344 44.335938 C 53.410156 44.339844 53.484375 44.3125 53.441406 44.273438 Z M 52.691406 44.140625 C 52.574219 44.113281 52.375 44.113281 52.257812 44.140625 C 52.132812 44.171875 52.234375 44.195312 52.472656 44.195312 C 52.71875 44.195312 52.8125 44.171875 52.691406 44.140625 Z M 51.445312 44.019531 C 51.191406 43.992188 50.738281 43.992188 50.441406 44.019531 C 50.148438 44.042969 50.359375 44.0625 50.910156 44.066406 C 51.460938 44.066406 51.703125 44.046875 51.445312 44.019531 Z M 49.8125 43.914062 C 49.769531 43.871094 49.664062 43.867188 49.574219 43.90625 C 49.472656 43.941406 49.503906 43.972656 49.648438 43.976562 C 49.78125 43.980469 49.855469 43.953125 49.8125 43.914062 Z M 48.96875 72.78125 C 47.6875 71.902344 47.21875 71.449219 47.21875 71.101562 C 47.21875 70.917969 47.261719 70.765625 47.3125 70.765625 C 47.496094 70.765625 49.625 72.902344 49.578125 73.035156 C 49.550781 73.113281 49.292969 73.003906 48.96875 72.78125 Z M 48.3125 70.550781 C 47.648438 69.910156 47.433594 69.566406 47.703125 69.566406 C 47.863281 69.566406 49.09375 70.917969 49.09375 71.097656 C 49.09375 71.179688 49.082031 71.246094 49.0625 71.246094 C 49.039062 71.246094 48.703125 70.9375 48.3125 70.550781 Z M 55.632812 67.925781 C 55.285156 67.789062 55.503906 67.539062 56.070312 67.421875 C 56.398438 67.351562 56.917969 67.191406 57.226562 67.058594 C 57.535156 66.925781 57.808594 66.839844 57.835938 66.863281 C 57.863281 66.890625 57.722656 67.15625 57.527344 67.457031 C 57.167969 68 57.164062 68.003906 56.476562 67.996094 C 56.101562 67.992188 55.71875 67.960938 55.632812 67.925781 Z M 59.386719 65.238281 C 59.050781 65.109375 59.035156 64.886719 59.320312 64.128906 C 59.5625 63.484375 59.8125 63.355469 59.671875 63.953125 C 59.621094 64.164062 59.554688 64.476562 59.523438 64.640625 L 59.46875 64.941406 L 59.714844 64.667969 C 59.863281 64.503906 60 64.128906 60.050781 63.738281 C 60.097656 63.378906 60.1875 63.113281 60.25 63.148438 C 60.402344 63.238281 60.386719 64.1875 60.21875 64.828125 C 60.074219 65.386719 59.941406 65.453125 59.386719 65.238281 Z M 29.773438 63.730469 C 29.730469 63.625 29.699219 63.21875 29.699219 62.820312 C 29.699219 62.296875 29.738281 62.113281 29.851562 62.148438 C 30.039062 62.207031 30.148438 63.921875 29.96875 63.921875 C 29.902344 63.921875 29.816406 63.835938 29.773438 63.730469 Z M 59.878906 60.921875 C 59.6875 60.671875 59.625 60.472656 59.679688 60.261719 C 59.792969 59.828125 60.089844 59.886719 60.3125 60.390625 C 60.648438 61.171875 60.355469 61.539062 59.878906 60.921875 Z M 29.75 59.015625 C 29.738281 58.335938 29.75 58.3125 30.0625 58.324219 C 30.328125 58.332031 30.390625 58.402344 30.421875 58.703125 C 30.457031 59.042969 30.074219 59.71875 29.84375 59.71875 C 29.796875 59.71875 29.753906 59.402344 29.75 59.015625 Z M 62.1875 44.253906 C 62.207031 43.179688 62.394531 42.8125 62.539062 43.5625 C 62.640625 44.089844 62.511719 45.015625 62.3125 45.171875 C 62.207031 45.261719 62.171875 45.027344 62.1875 44.253906 Z M 45.742188 43.609375 C 45.792969 43.460938 47.519531 42.785156 47.839844 42.785156 C 48.214844 42.785156 47.542969 43.226562 46.765625 43.484375 C 45.90625 43.777344 45.671875 43.804688 45.742188 43.609375 Z M 45.742188 43.609375 "/>
<path style="fill:none;stroke-width:9;stroke-linecap:butt;stroke-linejoin:miter;stroke:rgb(100%,100%,100%);stroke-opacity:1;stroke-miterlimit:4;" d="M 119.445801 689.019895 L 119.913737 636.936561 C 119.913737 636.936561 159.810384 631.117876 160.31901 663.446164 C 160.827637 695.794797 119.445801 689.019895 119.445801 689.019895 Z M 119.445801 689.019895 " transform="matrix(0.192,0,0,0.192,0,-106.053539)"/>
<path style="fill:none;stroke-width:9;stroke-linecap:butt;stroke-linejoin:miter;stroke:rgb(100%,100%,100%);stroke-opacity:1;stroke-miterlimit:4;" d="M 228.190104 635.410682 L 228.190104 688.368853 L 248.392741 688.368853 C 248.392741 688.368853 264.200846 689.203 263.65153 674.412147 C 263.122559 659.641639 249.633789 659.946815 249.633789 659.946815 L 231.486003 659.946815 L 249.409993 659.743365 C 249.409993 659.743365 260.579427 659.438189 260.457357 647.068397 C 260.314941 634.67826 244.995117 635.410682 244.995117 635.410682 Z M 228.190104 635.410682 " transform="matrix(0.192,0,0,0.192,0,-106.053539)"/>
</g>
</svg>
