<?xml version="1.0" encoding="UTF-8"?>
<svg xmlns="http://www.w3.org/2000/svg" xmlns:xlink="http://www.w3.org/1999/xlink" width="96" height="96" viewBox="0 0 96 96" version="1.1">
<g id="surface1">
<path style=" stroke:none;fill-rule:evenodd;fill:rgb(20%,20%,20%);fill-opacity:1;" d="M 12.101562 28.578125 L 22.320312 38.582031 L 22 24.554688 L 12.097656 24.507812 Z M 12.101562 28.578125 "/>
<path style="fill-rule:evenodd;fill:rgb(94.901961%,94.901961%,94.901961%);fill-opacity:1;stroke-width:5.03546;stroke-linecap:butt;stroke-linejoin:miter;stroke:rgb(68.627451%,68.627451%,68.627451%);stroke-opacity:1;stroke-miterlimit:4;" d="M 97.045898 1024.835324 L 433.919271 1023.655311 L 435.099284 659.76371 L 347.066243 570.571001 L 97.045898 570.571001 Z M 97.045898 1024.835324 " transform="matrix(0.192,0,0,0.192,0,-106.053539)"/>
<path style="fill-rule:evenodd;fill:rgb(68.627451%,68.627451%,68.627451%);fill-opacity:1;stroke-width:5.03546;stroke-linecap:butt;stroke-linejoin:miter;stroke:rgb(68.627451%,68.627451%,68.627451%);stroke-opacity:1;stroke-miterlimit:4;" d="M 431.518555 657.932655 L 349.344889 657.342648 L 350.118001 573.541379 Z M 431.518555 657.932655 " transform="matrix(0.192,0,0,0.192,0,-106.053539)"/>
<path style=" stroke:none;fill-rule:nonzero;fill:rgb(22.352941%,25.098039%,31.372549%);fill-opacity:1;" d="M 12.125 12.445312 L 55.308594 12.445312 L 55.308594 28.640625 L 12.125 28.640625 Z M 12.125 12.445312 "/>
<path style="fill-rule:evenodd;fill:rgb(22.352941%,25.098039%,31.372549%);fill-opacity:1;stroke-width:11.346586;stroke-linecap:butt;stroke-linejoin:round;stroke:rgb(100%,100%,100%);stroke-opacity:1;stroke-miterlimit:4;" d="M 144.042969 810.317095 L 384.338379 810.317095 C 390.78776 810.317095 396.016439 815.525428 396.016439 821.97481 L 396.016439 1005.56856 C 396.016439 1012.017941 390.78776 1017.226275 384.338379 1017.226275 L 144.042969 1017.226275 C 137.593587 1017.226275 132.344564 1012.017941 132.344564 1005.56856 L 132.344564 821.97481 C 132.344564 815.525428 137.593587 810.317095 144.042969 810.317095 Z M 144.042969 810.317095 " transform="matrix(0.192,0,0,0.192,0,-106.053539)"/>
<path style=" stroke:none;fill-rule:nonzero;fill:rgb(100%,100%,100%);fill-opacity:1;" d="M 31.464844 61.761719 L 31.507812 60.878906 L 32.117188 60.683594 C 32.453125 60.574219 32.847656 60.4375 32.996094 60.371094 C 33.148438 60.308594 33.484375 60.183594 33.742188 60.09375 C 34.003906 60.003906 34.34375 59.875 34.492188 59.8125 C 34.640625 59.75 34.972656 59.644531 35.226562 59.582031 C 35.789062 59.445312 35.914062 59.199219 35.480469 59.078125 C 35.308594 59.03125 35.046875 58.9375 34.898438 58.875 C 34.75 58.8125 34.257812 58.648438 33.8125 58.519531 C 33.363281 58.390625 32.9375 58.242188 32.863281 58.1875 C 32.785156 58.140625 32.4375 58.011719 32.078125 57.910156 L 31.4375 57.726562 L 31.4375 55.890625 L 31.8125 56.042969 C 32.449219 56.296875 32.710938 56.394531 33.203125 56.5625 C 33.460938 56.65625 33.800781 56.777344 33.945312 56.839844 C 34.554688 57.089844 36.445312 57.738281 36.945312 57.894531 C 37.539062 58.082031 37.773438 58.183594 37.558594 58.128906 C 37.417969 58.09375 37.132812 57.933594 37.84375 58.191406 C 38.042969 58.265625 38.085938 58.324219 38.085938 59.253906 L 38.085938 60.3125 L 37.238281 60.601562 C 36.773438 60.757812 35.871094 61.082031 35.238281 61.3125 C 34.601562 61.546875 33.484375 61.945312 32.753906 62.195312 L 31.421875 62.648438 Z M 31.464844 61.761719 "/>
<path style=" stroke:none;fill-rule:nonzero;fill:rgb(100%,100%,100%);fill-opacity:1;" d="M 39.714844 63.285156 L 39.714844 62.402344 L 46.910156 62.402344 L 46.910156 64.164062 L 39.714844 64.164062 Z M 39.714844 63.285156 "/>
<path style="fill:none;stroke-width:10;stroke-linecap:butt;stroke-linejoin:miter;stroke:rgb(100%,100%,100%);stroke-opacity:1;stroke-miterlimit:4;" d="M 182.210286 636.427935 C 182.210286 636.427935 172.932943 632.155474 164.14388 632.053749 C 155.334473 631.952023 149.861654 637.282427 149.576823 644.871132 C 149.271647 652.459836 153.503418 658.543007 168.660482 660.313026 C 183.817546 662.103391 182.902018 675.327674 181.050618 679.986691 C 179.178874 684.666053 170.349121 689.060585 161.376953 687.860227 C 152.404785 686.639523 144.917806 682.611203 144.917806 682.611203 " transform="matrix(0.192,0,0,0.192,0,-106.053539)"/>
<path style="fill:none;stroke-width:9;stroke-linecap:butt;stroke-linejoin:miter;stroke:rgb(100%,100%,100%);stroke-opacity:1;stroke-miterlimit:4;" d="M 311.206687 528.445935 L 311.491518 582.950329 " transform="matrix(0.192,0,0,0.192,-21.25559,-85.977244)"/>
<path style="fill:none;stroke-width:9;stroke-linecap:butt;stroke-linejoin:miter;stroke:rgb(100%,100%,100%);stroke-opacity:1;stroke-miterlimit:4;" d="M 346.281557 527.957654 L 346.586733 582.462048 " transform="matrix(0.192,0,0,0.192,-21.25559,-85.977244)"/>
<path style="fill:none;stroke-width:9;stroke-linecap:butt;stroke-linejoin:miter;stroke:rgb(100%,100%,100%);stroke-opacity:1;stroke-miterlimit:4;" d="M 310.881167 555.036918 L 347.50226 555.036918 " transform="matrix(0.192,0,0,0.192,-21.25559,-85.977244)"/>
</g>
</svg>
