<?xml version="1.0" encoding="UTF-8"?>
<svg xmlns="http://www.w3.org/2000/svg" xmlns:xlink="http://www.w3.org/1999/xlink" width="96" height="96" viewBox="0 0 96 96" version="1.1">
<g id="surface1">
<path style=" stroke:none;fill-rule:evenodd;fill:rgb(15.686275%,9.019608%,4.313725%);fill-opacity:1;" d="M 12.101562 29.539062 L 22.320312 39.542969 L 22 25.515625 L 12.097656 25.46875 Z M 12.101562 29.539062 "/>
<path style="fill-rule:evenodd;fill:rgb(94.901961%,94.901961%,94.901961%);fill-opacity:1;stroke-width:5.03546;stroke-linecap:butt;stroke-linejoin:miter;stroke:rgb(68.627451%,68.627451%,68.627451%);stroke-opacity:1;stroke-miterlimit:4;" d="M 97.045898 1029.840207 L 433.919271 1028.660194 L 435.099284 664.768592 L 347.066243 575.575884 L 97.045898 575.575884 Z M 97.045898 1029.840207 " transform="matrix(0.192,0,0,0.192,0,-106.053539)"/>
<path style="fill-rule:evenodd;fill:rgb(68.627451%,68.627451%,68.627451%);fill-opacity:1;stroke-width:5.03546;stroke-linecap:butt;stroke-linejoin:miter;stroke:rgb(68.627451%,68.627451%,68.627451%);stroke-opacity:1;stroke-miterlimit:4;" d="M 431.518555 662.917193 L 349.344889 662.347531 L 350.118001 578.546262 Z M 431.518555 662.917193 " transform="matrix(0.192,0,0,0.192,0,-106.053539)"/>
<path style=" stroke:none;fill-rule:nonzero;fill:rgb(31.372549%,17.647059%,8.627451%);fill-opacity:1;" d="M 12.125 13.40625 L 63.703125 13.40625 L 63.703125 29.601562 L 12.125 29.601562 Z M 12.125 13.40625 "/>
<path style=" stroke:none;fill-rule:nonzero;fill:rgb(80%,80%,80%);fill-opacity:1;" d="M 33.890625 57.203125 C 33.890625 57.203125 34.53125 54.046875 52.257812 54.023438 C 69.988281 53.996094 70.699219 57.484375 70.699219 57.484375 L 69.121094 62.777344 L 35.90625 62.902344 Z M 33.890625 57.203125 "/>
<path style=" stroke:none;fill-rule:nonzero;fill:rgb(80%,80%,80%);fill-opacity:1;" d="M 76.40625 81.234375 C 77.082031 86.019531 66.90625 90.097656 53.675781 90.34375 C 40.441406 90.59375 29.160156 86.910156 28.46875 82.128906 C 27.78125 77.34375 37.945312 73.257812 51.179688 73.011719 C 64.410156 72.757812 75.703125 76.433594 76.40625 81.21875 "/>
<path style=" stroke:none;fill-rule:nonzero;fill:rgb(50.196078%,50.196078%,50.196078%);fill-opacity:1;" d="M 66.050781 81.105469 C 66.433594 83.804688 60.6875 86.109375 53.214844 86.25 C 45.742188 86.386719 39.371094 84.3125 38.984375 81.609375 C 38.59375 78.90625 44.335938 76.601562 51.804688 76.460938 C 59.277344 76.316406 65.65625 78.390625 66.050781 81.09375 "/>
<path style=" stroke:none;fill-rule:nonzero;fill:rgb(31.372549%,17.647059%,8.627451%);fill-opacity:1;" d="M 69.429688 59.890625 C 69.902344 61.984375 62.792969 63.769531 53.554688 63.878906 C 44.3125 63.988281 36.429688 62.378906 35.949219 60.285156 C 35.46875 58.1875 42.570312 56.402344 51.808594 56.292969 C 61.050781 56.183594 68.9375 57.789062 69.425781 59.886719 "/>
<path style="fill:none;stroke-width:12.0954;stroke-linecap:butt;stroke-linejoin:miter;stroke:rgb(50.196078%,50.196078%,50.196078%);stroke-opacity:1;stroke-miterlimit:4;" d="M 349.161784 925.022499 C 349.161784 925.022499 367.248535 927.687701 374.674479 923.171099 C 382.120768 918.634152 387.125651 908.481971 386.962891 900.608436 C 386.779785 892.714556 382.8125 886.44828 376.993815 883.274452 C 371.195475 880.080279 357.991536 882.806516 357.991536 882.806516 " transform="matrix(0.192,0,0,0.192,0,-106.053539)"/>
<path style=" stroke:none;fill-rule:nonzero;fill:rgb(70.196078%,70.196078%,70.196078%);fill-opacity:1;" d="M 33.871094 57.132812 C 35.15625 71.871094 38.578125 83.074219 51.949219 83.675781 C 65.320312 84.273438 69.539062 69.917969 70.738281 57.492188 C 70.738281 57.492188 67.710938 60.636719 51.238281 60.429688 C 34.761719 60.222656 33.871094 57.132812 33.871094 57.132812 Z M 33.871094 57.132812 "/>
<path style="fill:none;stroke-width:9;stroke-linecap:butt;stroke-linejoin:miter;stroke:rgb(100%,100%,100%);stroke-opacity:1;stroke-miterlimit:4;" d="M 124.043783 643.752154 C 124.043783 643.752154 116.414388 636.936561 102.518717 638.014849 C 88.623047 639.093137 80.749512 654.941932 81.502279 666.925168 C 82.234701 678.928749 92.753092 693.210975 106.363932 692.030962 C 119.934082 690.850949 124.043783 686.049517 124.043783 686.049517 " transform="matrix(0.192,0,0,0.192,0,-106.053539)"/>
<path style="fill:none;stroke-width:9;stroke-linecap:butt;stroke-linejoin:miter;stroke:rgb(100%,100%,100%);stroke-opacity:1;stroke-miterlimit:4;" d="M 139.506022 632.074094 L 139.790853 686.558143 L 171.549479 686.842974 " transform="matrix(0.192,0,0,0.192,0,-106.053539)"/>
<path style="fill:none;stroke-width:9;stroke-linecap:butt;stroke-linejoin:bevel;stroke:rgb(100%,100%,100%);stroke-opacity:1;stroke-miterlimit:4;" d="M 915.689393 696.288106 L 937.830507 638.006069 L 960.577673 696.288106 " transform="matrix(0.193362,0,0,0.193362,-142.469689,-108.006754)"/>
<path style="fill:none;stroke-width:9;stroke-linecap:butt;stroke-linejoin:miter;stroke:rgb(100%,100%,100%);stroke-opacity:1;stroke-miterlimit:4;" d="M 924.578162 676.753018 L 950.35559 676.753018 " transform="matrix(0.193362,0,0,0.193362,-142.469689,-108.006754)"/>
<path style="fill:none;stroke-width:10;stroke-linecap:butt;stroke-linejoin:miter;stroke:rgb(100%,100%,100%);stroke-opacity:1;stroke-miterlimit:4;" d="M 273.234049 639.479693 C 273.234049 639.479693 263.956706 635.207232 255.167643 635.105507 C 246.358236 635.024126 240.885417 640.334185 240.580241 647.922889 C 240.275065 655.531939 244.506836 661.594764 259.6639 663.385129 C 274.820964 665.155148 273.925781 678.379432 272.054036 683.058794 C 270.182292 687.717811 261.372884 692.112342 252.380371 690.911984 C 243.408203 689.711626 235.921224 685.662961 235.921224 685.662961 " transform="matrix(0.192,0,0,0.192,0,-106.053539)"/>
<path style="fill:none;stroke-width:10;stroke-linecap:butt;stroke-linejoin:miter;stroke:rgb(100%,100%,100%);stroke-opacity:1;stroke-miterlimit:4;" d="M 322.1639 638.25899 C 322.1639 638.25899 312.906901 633.986529 304.097493 633.884803 C 295.308431 633.803423 289.835612 639.113482 289.530436 646.722531 C 289.22526 654.311236 293.457031 660.374061 308.63444 662.164426 C 323.771159 663.95479 322.875977 677.158729 321.004232 681.838091 C 319.132487 686.497108 310.323079 690.891639 301.330566 689.691281 C 292.358398 688.490923 284.871419 684.462603 284.871419 684.462603 " transform="matrix(0.192,0,0,0.192,0,-106.053539)"/>
</g>
</svg>
