<?xml version="1.0" encoding="UTF-8"?>
<svg xmlns="http://www.w3.org/2000/svg" xmlns:xlink="http://www.w3.org/1999/xlink" width="96" height="96" viewBox="0 0 96 96" version="1.1">
<g id="surface1">
<path style=" stroke:none;fill-rule:evenodd;fill:rgb(71.764706%,16.470588%,5.098039%);fill-opacity:1;" d="M 12.101562 29.539062 L 22.320312 39.542969 L 22 25.515625 L 12.097656 25.46875 Z M 12.101562 29.539062 "/>
<path style="fill-rule:evenodd;fill:rgb(94.901961%,94.901961%,94.901961%);fill-opacity:1;stroke-width:5.03546;stroke-linecap:butt;stroke-linejoin:miter;stroke:rgb(68.627451%,68.627451%,68.627451%);stroke-opacity:1;stroke-miterlimit:4;" d="M 97.045898 1029.840207 L 433.919271 1028.660194 L 435.099284 664.768592 L 347.066243 575.575884 L 97.045898 575.575884 Z M 97.045898 1029.840207 " transform="matrix(0.192,0,0,0.192,0,-106.053539)"/>
<path style="fill-rule:evenodd;fill:rgb(68.627451%,68.627451%,68.627451%);fill-opacity:1;stroke-width:5.03546;stroke-linecap:butt;stroke-linejoin:miter;stroke:rgb(68.627451%,68.627451%,68.627451%);stroke-opacity:1;stroke-miterlimit:4;" d="M 431.518555 662.917193 L 349.344889 662.347531 L 350.118001 578.546262 Z M 431.518555 662.917193 " transform="matrix(0.192,0,0,0.192,0,-106.053539)"/>
<path style=" stroke:none;fill-rule:nonzero;fill:rgb(94.117647%,22.352941%,8.627451%);fill-opacity:1;" d="M 12.125 13.40625 L 55.308594 13.40625 L 55.308594 29.601562 L 12.125 29.601562 Z M 12.125 13.40625 "/>
<path style=" stroke:none;fill-rule:nonzero;fill:rgb(94.117647%,22.352941%,8.627451%);fill-opacity:1;" d="M 50.203125 52.332031 L 55.234375 60.730469 L 45.28125 60.660156 Z M 50.203125 52.332031 "/>
<path style=" stroke:none;fill-rule:nonzero;fill:rgb(50.196078%,0%,0%);fill-opacity:1;" d="M 41.3125 60.441406 L 59.308594 60.441406 L 50.246094 90.671875 Z M 41.3125 60.441406 "/>
<path style=" stroke:none;fill-rule:nonzero;fill:rgb(94.117647%,22.352941%,8.627451%);fill-opacity:1;" d="M 26.222656 61.816406 L 50.222656 90.648438 L 41.773438 60.441406 L 27.652344 60.40625 Z M 26.222656 61.816406 "/>
<path style=" stroke:none;fill-rule:nonzero;fill:rgb(94.117647%,22.352941%,8.627451%);fill-opacity:1;" d="M 74.222656 61.816406 L 50.222656 90.648438 L 58.675781 60.441406 L 72.792969 60.40625 Z M 74.222656 61.816406 "/>
<path style=" stroke:none;fill-rule:nonzero;fill:rgb(83.137255%,0%,0%);fill-opacity:1;" d="M 27.621094 60.4375 L 41.773438 60.460938 L 39.753906 52.246094 L 35.8125 52.246094 Z M 27.621094 60.4375 "/>
<path style=" stroke:none;fill-rule:nonzero;fill:rgb(83.137255%,0%,0%);fill-opacity:1;" d="M 72.824219 60.441406 L 58.675781 60.464844 L 60.695312 52.25 L 64.632812 52.25 Z M 72.824219 60.441406 "/>
<path style=" stroke:none;fill-rule:nonzero;fill:rgb(50.196078%,0%,0%);fill-opacity:1;" d="M 50.402344 52.304688 L 39.691406 52.246094 L 41.707031 60.460938 L 45.648438 60.460938 Z M 50.402344 52.304688 "/>
<path style=" stroke:none;fill-rule:nonzero;fill:rgb(50.196078%,0%,0%);fill-opacity:1;" d="M 50.042969 52.304688 L 60.75 52.246094 L 58.734375 60.460938 L 54.792969 60.460938 Z M 50.042969 52.304688 "/>
<path style="fill:none;stroke-width:9.063828;stroke-linecap:butt;stroke-linejoin:miter;stroke:rgb(100%,100%,100%);stroke-opacity:1;stroke-miterlimit:4;" d="M 384.463483 735.908868 L 384.463483 679.451349 C 384.463483 679.451349 415.265892 673.530939 415.164167 693.794611 C 415.062441 714.058283 385.073835 708.524428 385.073835 708.524428 " transform="matrix(0.192,0,0,0.192,-47.395114,-114.103096)"/>
<path style="fill:none;stroke-width:9;stroke-linecap:butt;stroke-linejoin:miter;stroke:rgb(100%,100%,100%);stroke-opacity:1;stroke-miterlimit:4;" d="M 392.459089 710.457208 L 418.39903 734.932306 " transform="matrix(0.192,0,0,0.192,-47.395114,-114.103096)"/>
<path style="fill:none;stroke-width:9;stroke-linecap:butt;stroke-linejoin:miter;stroke:rgb(100%,100%,100%);stroke-opacity:1;stroke-miterlimit:4;" d="M 193.237305 637.750363 L 193.237305 690.708534 L 213.419596 690.708534 C 213.419596 690.708534 229.207357 691.542681 228.678385 676.751828 C 228.149414 661.98132 214.660645 662.266151 214.660645 662.266151 L 196.533203 662.266151 L 214.457194 662.062701 C 214.457194 662.062701 225.606283 661.757525 225.484212 649.387733 C 225.362142 637.017941 210.021973 637.750363 210.021973 637.750363 Z M 193.237305 637.750363 " transform="matrix(0.192,0,0,0.192,0,-106.053539)"/>
</g>
</svg>
