<?xml version="1.0" encoding="UTF-8"?>
<svg xmlns="http://www.w3.org/2000/svg" xmlns:xlink="http://www.w3.org/1999/xlink" width="96" height="96" viewBox="0 0 96 96" version="1.1">
<g id="surface1">
<path style=" stroke:none;fill-rule:evenodd;fill:rgb(66.666667%,26.666667%,0%);fill-opacity:1;" d="M 12.101562 29.539062 L 22.320312 39.542969 L 22 25.515625 L 12.097656 25.46875 Z M 12.101562 29.539062 "/>
<path style="fill-rule:evenodd;fill:rgb(94.901961%,94.901961%,94.901961%);fill-opacity:1;stroke-width:5.03546;stroke-linecap:butt;stroke-linejoin:miter;stroke:rgb(68.627451%,68.627451%,68.627451%);stroke-opacity:1;stroke-miterlimit:4;" d="M 97.045898 1029.840207 L 433.919271 1028.660194 L 435.099284 664.768592 L 347.066243 575.575884 L 97.045898 575.575884 Z M 97.045898 1029.840207 " transform="matrix(0.192,0,0,0.192,0,-106.053539)"/>
<path style="fill-rule:evenodd;fill:rgb(68.627451%,68.627451%,68.627451%);fill-opacity:1;stroke-width:5.03546;stroke-linecap:butt;stroke-linejoin:miter;stroke:rgb(68.627451%,68.627451%,68.627451%);stroke-opacity:1;stroke-miterlimit:4;" d="M 431.518555 662.917193 L 349.344889 662.347531 L 350.118001 578.546262 Z M 431.518555 662.917193 " transform="matrix(0.192,0,0,0.192,0,-106.053539)"/>
<path style=" stroke:none;fill-rule:nonzero;fill:rgb(100%,40%,0%);fill-opacity:1;" d="M 12.125 13.40625 L 63.703125 13.40625 L 63.703125 29.601562 L 12.125 29.601562 Z M 12.125 13.40625 "/>
<path style="fill:none;stroke-width:19.110014;stroke-linecap:butt;stroke-linejoin:miter;stroke:rgb(100%,40%,0%);stroke-opacity:1;stroke-miterlimit:4;" d="M 236.002604 1014.479693 C 236.002604 1014.479693 196.065267 1017.002479 198.588053 961.480832 C 201.090495 905.959185 162.943522 908.481971 162.943522 908.481971 " transform="matrix(0.192,0,0,0.192,0,-106.053539)"/>
<path style="fill:none;stroke-width:19.110014;stroke-linecap:butt;stroke-linejoin:miter;stroke:rgb(100%,40%,0%);stroke-opacity:1;stroke-miterlimit:4;" d="M 236.002604 783.624387 C 236.002604 783.624387 196.065267 781.1016 198.588053 836.643592 C 201.090495 892.16524 162.943522 889.642453 162.943522 889.642453 " transform="matrix(0.192,0,0,0.192,0,-106.053539)"/>
<path style="fill:none;stroke-width:19.110014;stroke-linecap:butt;stroke-linejoin:miter;stroke:rgb(100%,40%,0%);stroke-opacity:1;stroke-miterlimit:4;" d="M 301.635742 1014.479693 C 301.635742 1014.479693 341.573079 1017.002479 339.070638 961.480832 C 336.547852 905.959185 374.694824 908.481971 374.694824 908.481971 " transform="matrix(0.192,0,0,0.192,0,-106.053539)"/>
<path style="fill:none;stroke-width:19.110014;stroke-linecap:butt;stroke-linejoin:miter;stroke:rgb(100%,40%,0%);stroke-opacity:1;stroke-miterlimit:4;" d="M 301.635742 783.624387 C 301.635742 783.624387 341.573079 781.1016 339.070638 836.643592 C 336.547852 892.16524 374.694824 889.642453 374.694824 889.642453 " transform="matrix(0.192,0,0,0.192,0,-106.053539)"/>
</g>
</svg>
