<?xml version="1.0" encoding="UTF-8"?>
<svg xmlns="http://www.w3.org/2000/svg" xmlns:xlink="http://www.w3.org/1999/xlink" width="96" height="96" viewBox="0 0 96 96" version="1.1">
<g id="surface1">
<path style=" stroke:none;fill-rule:evenodd;fill:rgb(0%,46.666667%,75.686275%);fill-opacity:1;" d="M 12.132812 29.652344 L 22.351562 39.652344 L 22.03125 25.628906 L 12.125 25.582031 Z M 12.132812 29.652344 "/>
<path style="fill-rule:evenodd;fill:rgb(94.901961%,94.901961%,94.901961%);fill-opacity:1;stroke-width:5.03546;stroke-linecap:butt;stroke-linejoin:miter;stroke:rgb(68.627451%,68.627451%,68.627451%);stroke-opacity:1;stroke-miterlimit:4;" d="M 96.903483 1029.840207 L 433.797201 1028.660194 L 434.956868 664.768592 L 346.923828 575.575884 L 96.903483 575.575884 Z M 96.903483 1029.840207 " transform="matrix(0.192,0,0,0.192,0,-106.053539)"/>
<path style="fill-rule:evenodd;fill:rgb(68.627451%,68.627451%,68.627451%);fill-opacity:1;stroke-width:5.03546;stroke-linecap:butt;stroke-linejoin:miter;stroke:rgb(68.627451%,68.627451%,68.627451%);stroke-opacity:1;stroke-miterlimit:4;" d="M 431.376139 662.917193 L 349.202474 662.347531 L 349.975586 578.546262 Z M 431.376139 662.917193 " transform="matrix(0.192,0,0,0.192,0,-106.053539)"/>
<path style=" stroke:none;fill-rule:nonzero;fill:rgb(0%,73.333333%,94.901961%);fill-opacity:1;" d="M 12.097656 13.40625 L 55.28125 13.40625 L 55.28125 29.601562 L 12.097656 29.601562 Z M 12.097656 13.40625 "/>
<path style="fill:none;stroke-width:9.063828;stroke-linecap:butt;stroke-linejoin:miter;stroke:rgb(100%,100%,100%);stroke-opacity:1;stroke-miterlimit:4;" d="M 139.221191 693.902707 L 139.221191 637.465533 C 139.221191 637.465533 170.043945 631.524777 169.94222 651.768104 C 169.82015 672.031776 139.851888 666.518267 139.851888 666.518267 " transform="matrix(0.192,0,0,0.192,0,-106.053539)"/>
<path style=" stroke:none;fill-rule:nonzero;fill:rgb(0%,73.333333%,94.901961%);fill-opacity:1;" d="M 51.660156 91.148438 C 66.238281 91.148438 78.058594 85.15625 78.058594 77.769531 C 78.058594 70.378906 66.238281 64.386719 51.660156 64.386719 C 37.078125 64.386719 25.257812 70.378906 25.257812 77.769531 C 25.257812 85.15625 37.078125 91.148438 51.660156 91.148438 "/>
<path style=" stroke:none;fill-rule:nonzero;fill:rgb(100%,100%,100%);fill-opacity:1;" d="M 39.113281 79.425781 C 40.3125 79.425781 41.207031 79.207031 41.773438 78.769531 C 42.335938 78.339844 42.71875 77.59375 42.921875 76.550781 C 43.113281 75.574219 43.039062 74.894531 42.710938 74.527344 C 42.367188 74.152344 41.640625 73.960938 40.53125 73.960938 L 38.617188 73.960938 L 37.554688 79.425781 Z M 32.847656 86.160156 C 32.757812 86.160156 32.671875 86.117188 32.617188 86.050781 C 32.5625 85.984375 32.539062 85.890625 32.554688 85.804688 L 35.371094 71.320312 C 35.398438 71.183594 35.519531 71.078125 35.660156 71.078125 L 41.726562 71.078125 C 43.632812 71.078125 45.054688 71.597656 45.945312 72.617188 C 46.84375 73.644531 47.121094 75.082031 46.769531 76.882812 C 46.625 77.617188 46.378906 78.300781 46.039062 78.910156 C 45.695312 79.523438 45.246094 80.089844 44.699219 80.59375 C 44.039062 81.210938 43.296875 81.65625 42.484375 81.917969 C 41.691406 82.175781 40.671875 82.308594 39.453125 82.308594 L 36.996094 82.308594 L 36.292969 85.917969 C 36.265625 86.054688 36.144531 86.160156 36.003906 86.160156 Z M 32.847656 86.160156 "/>
<path style=" stroke:none;fill-rule:nonzero;fill:rgb(100%,100%,100%);fill-opacity:1;" d="M 54.003906 82.308594 C 53.914062 82.308594 53.828125 82.269531 53.773438 82.199219 C 53.714844 82.128906 53.691406 82.039062 53.710938 81.953125 L 54.953125 75.542969 C 55.074219 74.9375 55.046875 74.5 54.875 74.3125 C 54.765625 74.199219 54.453125 74.011719 53.523438 74.011719 L 51.265625 74.011719 L 49.699219 82.066406 C 49.671875 82.207031 49.550781 82.308594 49.40625 82.308594 L 46.277344 82.308594 C 46.1875 82.308594 46.105469 82.269531 46.046875 82.199219 C 45.992188 82.128906 45.96875 82.039062 45.984375 81.953125 L 48.800781 67.46875 C 48.824219 67.328125 48.949219 67.230469 49.09375 67.230469 L 52.222656 67.230469 C 52.3125 67.230469 52.394531 67.269531 52.453125 67.339844 C 52.507812 67.40625 52.53125 67.496094 52.515625 67.585938 L 51.835938 71.078125 L 54.261719 71.078125 C 56.113281 71.078125 57.363281 71.40625 58.09375 72.074219 C 58.839844 72.761719 59.070312 73.855469 58.785156 75.328125 L 57.472656 82.066406 C 57.449219 82.207031 57.324219 82.308594 57.179688 82.308594 Z M 54.003906 82.308594 "/>
<path style=" stroke:none;fill-rule:nonzero;fill:rgb(100%,100%,100%);fill-opacity:1;" d="M 63.738281 79.425781 C 64.9375 79.425781 65.832031 79.207031 66.398438 78.769531 C 66.957031 78.339844 67.34375 77.59375 67.546875 76.550781 C 67.738281 75.574219 67.664062 74.894531 67.332031 74.527344 C 66.996094 74.152344 66.261719 73.960938 65.160156 73.960938 L 63.242188 73.960938 L 62.179688 79.425781 Z M 57.472656 86.160156 C 57.382812 86.160156 57.296875 86.117188 57.238281 86.050781 C 57.183594 85.984375 57.160156 85.890625 57.179688 85.804688 L 59.992188 71.320312 C 60.019531 71.183594 60.144531 71.078125 60.285156 71.078125 L 66.355469 71.078125 C 68.257812 71.078125 69.679688 71.597656 70.570312 72.617188 C 71.46875 73.644531 71.746094 75.078125 71.394531 76.882812 C 71.25 77.617188 71.007812 78.300781 70.664062 78.910156 C 70.324219 79.523438 69.871094 80.089844 69.320312 80.59375 C 68.664062 81.210938 67.921875 81.65625 67.113281 81.917969 C 66.316406 82.175781 65.296875 82.308594 64.078125 82.308594 L 61.621094 82.308594 L 60.917969 85.917969 C 60.890625 86.054688 60.769531 86.160156 60.625 86.160156 Z M 57.472656 86.160156 "/>
<path style="fill:none;stroke-width:9;stroke-linecap:butt;stroke-linejoin:miter;stroke:rgb(100%,100%,100%);stroke-opacity:1;stroke-miterlimit:4;" d="M 311.199902 528.451504 L 311.484733 582.935553 " transform="matrix(0.192,0,0,0.192,-24.219131,-85.337689)"/>
<path style="fill:none;stroke-width:9;stroke-linecap:butt;stroke-linejoin:miter;stroke:rgb(100%,100%,100%);stroke-opacity:1;stroke-miterlimit:4;" d="M 346.274772 527.983568 L 346.559603 582.467617 " transform="matrix(0.192,0,0,0.192,-24.219131,-85.337689)"/>
<path style="fill:none;stroke-width:9;stroke-linecap:butt;stroke-linejoin:miter;stroke:rgb(100%,100%,100%);stroke-opacity:1;stroke-miterlimit:4;" d="M 310.894727 555.042487 L 347.495475 555.042487 " transform="matrix(0.192,0,0,0.192,-24.219131,-85.337689)"/>
<path style="fill:none;stroke-width:9.063828;stroke-linecap:butt;stroke-linejoin:miter;stroke:rgb(100%,100%,100%);stroke-opacity:1;stroke-miterlimit:4;" d="M 239.318848 693.434771 L 239.318848 636.997596 C 239.318848 636.997596 270.121257 631.036496 270.019531 651.300168 C 269.917806 671.56384 239.949544 666.029986 239.949544 666.029986 " transform="matrix(0.192,0,0,0.192,0,-106.053539)"/>
</g>
</svg>
