<?xml version="1.0" encoding="UTF-8"?>
<svg xmlns="http://www.w3.org/2000/svg" xmlns:xlink="http://www.w3.org/1999/xlink" width="96" height="96" viewBox="0 0 96 96" version="1.1">
<g id="surface1">
<path style=" stroke:none;fill-rule:evenodd;fill:rgb(20%,20%,20%);fill-opacity:1;" d="M 12.101562 29.539062 L 22.320312 39.542969 L 22 25.515625 L 12.097656 25.46875 Z M 12.101562 29.539062 "/>
<path style="fill-rule:evenodd;fill:rgb(94.901961%,94.901961%,94.901961%);fill-opacity:1;stroke-width:5.03546;stroke-linecap:butt;stroke-linejoin:miter;stroke:rgb(68.627451%,68.627451%,68.627451%);stroke-opacity:1;stroke-miterlimit:4;" d="M 97.045898 1029.840207 L 433.919271 1028.660194 L 435.099284 664.768592 L 347.066243 575.575884 L 97.045898 575.575884 Z M 97.045898 1029.840207 " transform="matrix(0.192,0,0,0.192,0,-106.053539)"/>
<path style="fill-rule:evenodd;fill:rgb(68.627451%,68.627451%,68.627451%);fill-opacity:1;stroke-width:5.03546;stroke-linecap:butt;stroke-linejoin:miter;stroke:rgb(68.627451%,68.627451%,68.627451%);stroke-opacity:1;stroke-miterlimit:4;" d="M 431.518555 662.917193 L 349.344889 662.347531 L 350.118001 578.546262 Z M 431.518555 662.917193 " transform="matrix(0.192,0,0,0.192,0,-106.053539)"/>
<path style=" stroke:none;fill-rule:nonzero;fill:rgb(22.352941%,25.098039%,31.372549%);fill-opacity:1;" d="M 12.125 13.40625 L 55.308594 13.40625 L 55.308594 29.601562 L 12.125 29.601562 Z M 12.125 13.40625 "/>
<path style=" stroke:none;fill-rule:nonzero;fill:rgb(22.352941%,25.098039%,31.372549%);fill-opacity:1;" d="M 27.957031 54.3125 L 70.546875 54.3125 C 72.039062 54.3125 73.25 55.523438 73.25 57.015625 L 73.25 88.28125 C 73.25 89.777344 72.039062 90.988281 70.546875 90.988281 L 27.957031 90.988281 C 26.464844 90.988281 25.25 89.777344 25.25 88.28125 L 25.25 57.015625 C 25.25 55.523438 26.464844 54.3125 27.957031 54.3125 Z M 27.957031 54.3125 "/>
<path style=" stroke:none;fill-rule:nonzero;fill:rgb(100%,100%,100%);fill-opacity:1;" d="M 31.628906 58.625 L 67.078125 58.625 C 68.191406 58.625 69.09375 59.523438 69.09375 60.636719 L 69.09375 83.941406 C 69.09375 85.054688 68.191406 85.957031 67.078125 85.957031 L 31.628906 85.957031 C 30.511719 85.957031 29.609375 85.054688 29.609375 83.941406 L 29.609375 60.636719 C 29.609375 59.523438 30.511719 58.625 31.628906 58.625 Z M 31.628906 58.625 "/>
<path style=" stroke:none;fill-rule:nonzero;fill:rgb(22.352941%,25.098039%,31.372549%);fill-opacity:1;" d="M 34.445312 61.425781 L 50.628906 61.425781 C 51.53125 61.425781 52.257812 62.15625 52.257812 63.050781 L 52.257812 81.847656 C 52.257812 82.746094 51.53125 83.472656 50.628906 83.472656 L 34.445312 83.472656 C 33.546875 83.472656 32.820312 82.746094 32.820312 81.847656 L 32.820312 63.050781 C 32.820312 62.15625 33.546875 61.425781 34.445312 61.425781 Z M 34.445312 61.425781 "/>
<path style=" stroke:none;fill-rule:nonzero;fill:rgb(100%,100%,100%);fill-opacity:1;" d="M 37.308594 64.554688 L 37.308594 67.992188 L 44.464844 68.027344 C 44.464844 68.027344 41.707031 71.644531 40.78125 74.371094 C 39.851562 77.09375 39.753906 80.957031 39.753906 80.957031 L 43.226562 80.992188 C 43.226562 80.992188 43.28125 77.171875 44.21875 74.40625 C 45.148438 71.636719 48.539062 67.886719 48.539062 67.886719 L 48.539062 64.519531 Z M 37.308594 64.554688 "/>
<path style=" stroke:none;fill-rule:nonzero;fill:rgb(22.352941%,25.098039%,31.372549%);fill-opacity:1;" d="M 55.753906 72.753906 L 55.789062 69.742188 L 66.03125 69.777344 L 66.03125 72.433594 L 60.21875 79.023438 L 65.992188 78.988281 L 65.957031 81.964844 L 55.789062 81.894531 L 55.753906 79.269531 L 61.847656 72.683594 Z M 55.753906 72.753906 "/>
<path style="fill:none;stroke-width:9;stroke-linecap:butt;stroke-linejoin:miter;stroke:rgb(100%,100%,100%);stroke-opacity:1;stroke-miterlimit:4;" d="M 125.386556 638.218299 L 163.553874 638.808306 L 128.86556 693.862017 " transform="matrix(0.192,0,0,0.192,0,-106.053539)"/>
<path style="fill:none;stroke-width:9;stroke-linecap:butt;stroke-linejoin:miter;stroke:rgb(100%,100%,100%);stroke-opacity:1;stroke-miterlimit:4;" d="M 188.578288 638.625201 L 226.765951 639.194862 L 192.077637 689.609901 L 234.863281 689.874387 " transform="matrix(0.192,0,0,0.192,0,-106.053539)"/>
</g>
</svg>
