<?xml version="1.0" encoding="UTF-8"?>
<svg xmlns="http://www.w3.org/2000/svg" xmlns:xlink="http://www.w3.org/1999/xlink" width="96" height="96" viewBox="0 0 96 96" version="1.1">
<g id="surface1">
<path style=" stroke:none;fill-rule:evenodd;fill:rgb(0%,26.666667%,33.333333%);fill-opacity:1;" d="M 12.101562 29.539062 L 22.320312 39.542969 L 22 25.515625 L 12.097656 25.46875 Z M 12.101562 29.539062 "/>
<path style="fill-rule:evenodd;fill:rgb(94.901961%,94.901961%,94.901961%);fill-opacity:1;stroke-width:5.03546;stroke-linecap:butt;stroke-linejoin:miter;stroke:rgb(68.627451%,68.627451%,68.627451%);stroke-opacity:1;stroke-miterlimit:4;" d="M 97.045898 1029.840207 L 433.919271 1028.660194 L 435.099284 664.768592 L 347.066243 575.575884 L 97.045898 575.575884 Z M 97.045898 1029.840207 " transform="matrix(0.192,0,0,0.192,0,-106.053539)"/>
<path style=" stroke:none;fill-rule:nonzero;fill:rgb(21.568627%,67.058824%,78.431373%);fill-opacity:1;" d="M 48.78125 43.089844 C 48.480469 43.890625 48.140625 44.699219 47.796875 45.472656 C 47.769531 45.539062 47.722656 45.59375 47.691406 45.664062 C 47.375 46.367188 47.054688 47.027344 46.707031 47.710938 C 46.632812 47.851562 46.574219 47.996094 46.5 48.136719 C 46.183594 48.742188 45.851562 49.359375 45.515625 49.949219 C 45.398438 50.152344 45.273438 50.363281 45.152344 50.566406 C 42.15625 55.585938 38.214844 60.832031 35.101562 65.230469 C 32.636719 68.546875 31.214844 72.121094 30.800781 75.566406 C 30.800781 84.128906 38.84375 91.089844 48.78125 91.089844 C 58.71875 91.089844 66.757812 84.128906 66.757812 75.566406 C 66.757812 70.171875 62.453125 64.628906 57.484375 57.519531 C 55.914062 55.3125 54.390625 52.988281 53.03125 50.804688 C 52.289062 49.609375 51.566406 48.378906 50.851562 47.09375 C 50.628906 46.691406 50.394531 46.261719 50.179688 45.851562 C 49.707031 44.960938 49.222656 44.027344 48.78125 43.089844 Z M 48.78125 43.089844 "/>
<path style=" stroke:none;fill-rule:nonzero;fill:rgb(0%,53.333333%,66.666667%);fill-opacity:1;" d="M 35.058594 65.230469 C 32.59375 68.546875 31.175781 72.121094 30.757812 75.566406 C 30.757812 84.128906 38.800781 91.089844 48.738281 91.089844 C 58.675781 91.089844 66.71875 84.128906 66.71875 75.566406 C 33.289062 85.5625 38.195312 63.386719 51.378906 67.175781 C 65.886719 71.347656 57.652344 61.1875 48.144531 60.109375 C 40.484375 59.246094 35.058594 65.230469 35.058594 65.230469 Z M 35.058594 65.230469 "/>
<path style="fill-rule:evenodd;fill:rgb(68.627451%,68.627451%,68.627451%);fill-opacity:1;stroke-width:5.03546;stroke-linecap:butt;stroke-linejoin:miter;stroke:rgb(68.627451%,68.627451%,68.627451%);stroke-opacity:1;stroke-miterlimit:4;" d="M 431.518555 662.917193 L 349.344889 662.347531 L 350.118001 578.546262 Z M 431.518555 662.917193 " transform="matrix(0.192,0,0,0.192,0,-106.053539)"/>
<path style=" stroke:none;fill-rule:nonzero;fill:rgb(0%,53.333333%,66.666667%);fill-opacity:1;" d="M 12.125 13.40625 L 55.308594 13.40625 L 55.308594 29.601562 L 12.125 29.601562 Z M 12.125 13.40625 "/>
<path style="fill:none;stroke-width:9;stroke-linecap:butt;stroke-linejoin:miter;stroke:rgb(100%,100%,100%);stroke-opacity:1;stroke-miterlimit:4;" d="M 133.340823 354.159643 L 133.279788 304.660132 " transform="matrix(0.192,0,0,0.192,-2.941282,-41.436152)"/>
<path style=" stroke:none;fill-rule:nonzero;fill:rgb(100%,100%,100%);fill-opacity:1;" d="M 21.832031 14.609375 L 23.535156 14.609375 L 23.535156 16.273438 L 21.832031 16.273438 Z M 21.832031 14.609375 "/>
<path style="fill:none;stroke-width:9;stroke-linecap:butt;stroke-linejoin:miter;stroke:rgb(100%,100%,100%);stroke-opacity:1;stroke-miterlimit:4;" d="M 122.804708 699.604272 L 122.804708 642.332951 " transform="matrix(0.192,0,0,0.192,6.07384,-107.866989)"/>
<path style="fill:none;stroke-width:8.670217;stroke-linecap:butt;stroke-linejoin:miter;stroke:rgb(100%,100%,100%);stroke-opacity:1;stroke-miterlimit:4;" d="M 96.213725 642.739852 L 149.375346 642.739852 " transform="matrix(0.192,0,0,0.192,6.07384,-107.866989)"/>
<path style="fill:none;stroke-width:9;stroke-linecap:butt;stroke-linejoin:miter;stroke:rgb(100%,100%,100%);stroke-opacity:1;stroke-miterlimit:4;" d="M 236.958822 633.376177 L 275.126139 633.945839 L 240.437826 689.04024 " transform="matrix(0.192,0,0,0.192,0,-106.053539)"/>
<path style="fill:none;stroke-width:9;stroke-linecap:round;stroke-linejoin:round;stroke:rgb(100%,100%,100%);stroke-opacity:1;stroke-miterlimit:4;" d="M 210.266113 686.497108 C 202.921549 686.822629 193.562826 683.547076 193.37972 672.906613 C 193.17627 662.266151 210.469564 659.092323 210.469564 659.092323 C 210.469564 659.092323 194.600423 654.250201 195.027669 644.871132 C 195.454915 635.512408 204.549154 632.318234 210.673014 632.521685 C 216.837565 632.725135 225.199382 635.980344 225.301107 645.705279 C 225.443522 655.409868 210.469564 658.278521 210.469564 658.278521 C 210.469564 658.278521 227.437337 662.673052 227.152507 672.906613 C 226.888021 683.140174 217.631022 686.191932 210.266113 686.497108 Z M 210.266113 686.497108 " transform="matrix(0.192,0,0,0.192,0,-106.053539)"/>
</g>
</svg>
