<?xml version="1.0" encoding="UTF-8"?>
<svg xmlns="http://www.w3.org/2000/svg" xmlns:xlink="http://www.w3.org/1999/xlink" width="96" height="96" viewBox="0 0 96 96" version="1.1">
<g id="surface1">
<path style=" stroke:none;fill-rule:evenodd;fill:rgb(20%,20%,20%);fill-opacity:1;" d="M 12.101562 28.578125 L 22.320312 38.582031 L 22 24.554688 L 12.097656 24.507812 Z M 12.101562 28.578125 "/>
<path style="fill-rule:evenodd;fill:rgb(94.901961%,94.901961%,94.901961%);fill-opacity:1;stroke-width:5.03546;stroke-linecap:butt;stroke-linejoin:miter;stroke:rgb(68.627451%,68.627451%,68.627451%);stroke-opacity:1;stroke-miterlimit:4;" d="M 97.045898 1024.835324 L 433.919271 1023.655311 L 435.099284 659.76371 L 347.066243 570.571001 L 97.045898 570.571001 Z M 97.045898 1024.835324 " transform="matrix(0.192,0,0,0.192,0,-106.053539)"/>
<path style="fill-rule:evenodd;fill:rgb(68.627451%,68.627451%,68.627451%);fill-opacity:1;stroke-width:5.03546;stroke-linecap:butt;stroke-linejoin:miter;stroke:rgb(68.627451%,68.627451%,68.627451%);stroke-opacity:1;stroke-miterlimit:4;" d="M 431.518555 657.932655 L 349.344889 657.342648 L 350.118001 573.541379 Z M 431.518555 657.932655 " transform="matrix(0.192,0,0,0.192,0,-106.053539)"/>
<path style=" stroke:none;fill-rule:nonzero;fill:rgb(22.352941%,25.098039%,31.372549%);fill-opacity:1;" d="M 12.125 12.445312 L 55.308594 12.445312 L 55.308594 28.640625 L 12.125 28.640625 Z M 12.125 12.445312 "/>
<path style=" stroke:none;fill-rule:evenodd;fill:rgb(60%,60%,60%);fill-opacity:1;" d="M 57.203125 89.453125 C 44.394531 92.847656 31.257812 85.210938 27.867188 72.40625 C 24.476562 59.59375 32.109375 46.460938 44.917969 43.066406 L 50.644531 64.691406 C 49.773438 64.917969 49.257812 65.808594 49.488281 66.675781 C 49.71875 67.546875 50.609375 68.0625 51.476562 67.832031 Z M 44.917969 43.066406 C 57.730469 39.671875 70.863281 47.308594 74.253906 60.121094 C 77.648438 72.929688 70.011719 86.0625 57.203125 89.453125 L 51.476562 67.832031 C 52.34375 67.601562 52.863281 66.710938 52.632812 65.84375 C 52.402344 64.976562 51.511719 64.457031 50.644531 64.691406 Z M 44.917969 43.066406 "/>
<path style=" stroke:none;fill-rule:evenodd;fill:rgb(80%,80%,80%);fill-opacity:1;" d="M 57.203125 89.453125 C 44.394531 92.847656 31.257812 85.210938 27.867188 72.40625 C 24.476562 59.59375 32.109375 46.460938 44.917969 43.066406 L 50.644531 64.691406 C 49.773438 64.917969 49.257812 65.808594 49.488281 66.675781 C 49.71875 67.546875 50.609375 68.0625 51.476562 67.832031 Z M 44.917969 43.066406 C 57.730469 39.671875 70.863281 47.308594 74.253906 60.121094 C 77.648438 72.929688 70.011719 86.0625 57.203125 89.453125 L 51.476562 67.832031 C 52.34375 67.601562 52.863281 66.710938 52.632812 65.84375 C 52.402344 64.976562 51.511719 64.457031 50.644531 64.691406 Z M 44.917969 43.066406 "/>
<path style=" stroke:none;fill-rule:evenodd;fill:rgb(36.470588%,41.568627%,48.235294%);fill-opacity:1;" d="M 53.253906 74.546875 C 48.679688 75.757812 43.984375 73.03125 42.773438 68.453125 C 41.5625 63.878906 44.289062 59.1875 48.867188 57.972656 L 50.644531 64.691406 C 49.773438 64.917969 49.257812 65.808594 49.488281 66.675781 C 49.71875 67.546875 50.609375 68.0625 51.476562 67.832031 Z M 48.867188 57.972656 C 53.441406 56.761719 58.136719 59.488281 59.347656 64.066406 C 60.558594 68.640625 57.832031 73.335938 53.253906 74.546875 L 51.476562 67.832031 C 52.34375 67.601562 52.863281 66.710938 52.632812 65.84375 C 52.402344 64.976562 51.511719 64.457031 50.644531 64.691406 Z M 48.867188 57.972656 "/>
<path style=" stroke:none;fill-rule:evenodd;fill:rgb(60%,60%,60%);fill-opacity:1;" d="M 52.902344 73.214844 C 49.0625 74.230469 45.125 71.941406 44.105469 68.101562 C 43.089844 64.261719 45.382812 60.324219 49.21875 59.308594 L 50.644531 64.691406 C 49.773438 64.917969 49.257812 65.808594 49.488281 66.675781 C 49.71875 67.546875 50.609375 68.0625 51.476562 67.832031 Z M 49.21875 59.308594 C 53.058594 58.292969 56.996094 60.578125 58.011719 64.421875 C 59.03125 68.257812 56.742188 72.199219 52.902344 73.214844 L 51.476562 67.832031 C 52.34375 67.601562 52.863281 66.714844 52.632812 65.84375 C 52.402344 64.976562 51.511719 64.457031 50.644531 64.691406 Z M 49.21875 59.308594 "/>
<path style=" stroke:none;fill-rule:evenodd;fill:rgb(36.470588%,41.568627%,48.235294%);fill-opacity:1;" d="M 51.835938 69.1875 C 50.21875 69.613281 48.566406 68.652344 48.132812 67.035156 C 47.707031 65.417969 48.671875 63.765625 50.289062 63.335938 L 50.644531 64.691406 C 49.773438 64.917969 49.257812 65.808594 49.488281 66.675781 C 49.71875 67.546875 50.609375 68.0625 51.476562 67.832031 Z M 50.289062 63.335938 C 51.902344 62.910156 53.558594 63.871094 53.984375 65.488281 C 54.414062 67.101562 53.453125 68.757812 51.835938 69.1875 L 51.476562 67.832031 C 52.34375 67.601562 52.863281 66.710938 52.632812 65.84375 C 52.402344 64.976562 51.511719 64.457031 50.644531 64.691406 Z M 50.289062 63.335938 "/>
<path style=" stroke:none;fill-rule:nonzero;fill:rgb(22.352941%,25.098039%,31.372549%);fill-opacity:1;" d="M 59.605469 84.839844 C 56.519531 86.496094 51.820312 85.917969 50.570312 83.253906 C 49.316406 80.59375 51.351562 77.695312 54.6875 75.828125 C 58.019531 73.960938 61.269531 75.328125 61.269531 75.328125 L 61.507812 51.628906 L 63.90625 52.402344 L 65.476562 56.15625 C 65.476562 56.15625 71.285156 59.253906 72.625 66.355469 C 73.960938 73.460938 65.5625 79.023438 65.5625 79.023438 C 65.5625 79.023438 72.640625 71.589844 70.894531 66.121094 C 69.152344 60.648438 63.765625 60.082031 63.765625 60.082031 L 63.921875 79.574219 C 63.921875 79.574219 62.691406 83.1875 59.605469 84.839844 Z M 59.605469 84.839844 "/>
<path style="fill:none;stroke-width:9;stroke-linecap:butt;stroke-linejoin:miter;stroke:rgb(100%,100%,100%);stroke-opacity:1;stroke-miterlimit:4;" d="M 153.544108 639.479693 C 153.544108 639.479693 145.914714 632.6641 132.039388 633.762733 C 118.143717 634.820676 110.270182 650.669471 111.002604 662.673052 C 111.735026 674.656288 122.273763 688.938514 135.864258 687.778846 C 149.434408 686.598833 153.544108 681.797401 153.544108 681.797401 " transform="matrix(0.192,0,0,0.192,0,-106.053539)"/>
<path style="fill:none;stroke-width:9;stroke-linecap:butt;stroke-linejoin:miter;stroke:rgb(100%,100%,100%);stroke-opacity:1;stroke-miterlimit:4;" d="M 168.395996 686.700559 L 168.884277 634.59688 C 168.884277 634.59688 208.760579 628.778195 209.269206 661.126828 C 209.777832 693.455116 168.395996 686.700559 168.395996 686.700559 Z M 168.395996 686.700559 " transform="matrix(0.192,0,0,0.192,0,-106.053539)"/>
<path style="fill:none;stroke-width:9;stroke-linecap:butt;stroke-linejoin:bevel;stroke:rgb(100%,100%,100%);stroke-opacity:1;stroke-miterlimit:4;" d="M 915.693204 696.274783 L 937.834317 637.992745 L 960.561281 696.274783 " transform="matrix(0.193362,0,0,0.193362,-134.849332,-107.969022)"/>
<path style="fill:none;stroke-width:9;stroke-linecap:butt;stroke-linejoin:miter;stroke:rgb(100%,100%,100%);stroke-opacity:1;stroke-miterlimit:4;" d="M 924.581972 676.759896 L 950.379601 676.759896 " transform="matrix(0.193362,0,0,0.193362,-134.849332,-107.969022)"/>
</g>
</svg>
