<?xml version="1.0" encoding="UTF-8"?>
<svg xmlns="http://www.w3.org/2000/svg" xmlns:xlink="http://www.w3.org/1999/xlink" width="96" height="96" viewBox="0 0 96 96" version="1.1">
<g id="surface1">
<path style=" stroke:none;fill-rule:evenodd;fill:rgb(15.686275%,9.019608%,4.313725%);fill-opacity:1;" d="M 12.101562 29.539062 L 22.320312 39.542969 L 22 25.515625 L 12.097656 25.46875 Z M 12.101562 29.539062 "/>
<path style="fill-rule:evenodd;fill:rgb(94.901961%,94.901961%,94.901961%);fill-opacity:1;stroke-width:5.03546;stroke-linecap:butt;stroke-linejoin:miter;stroke:rgb(68.627451%,68.627451%,68.627451%);stroke-opacity:1;stroke-miterlimit:4;" d="M 97.045898 1029.840207 L 433.919271 1028.660194 L 435.099284 664.768592 L 347.066243 575.575884 L 97.045898 575.575884 Z M 97.045898 1029.840207 " transform="matrix(0.192,0,0,0.192,0,-106.053539)"/>
<path style="fill-rule:evenodd;fill:rgb(68.627451%,68.627451%,68.627451%);fill-opacity:1;stroke-width:5.03546;stroke-linecap:butt;stroke-linejoin:miter;stroke:rgb(68.627451%,68.627451%,68.627451%);stroke-opacity:1;stroke-miterlimit:4;" d="M 431.518555 662.917193 L 349.344889 662.347531 L 350.118001 578.546262 Z M 431.518555 662.917193 " transform="matrix(0.192,0,0,0.192,0,-106.053539)"/>
<path style=" stroke:none;fill-rule:nonzero;fill:rgb(31.372549%,17.647059%,8.627451%);fill-opacity:1;" d="M 12.125 13.40625 L 55.308594 13.40625 L 55.308594 29.601562 L 12.125 29.601562 Z M 12.125 13.40625 "/>
<path style=" stroke:none;fill-rule:nonzero;fill:rgb(80%,80%,80%);fill-opacity:1;" d="M 33.890625 57.203125 C 33.890625 57.203125 34.53125 54.046875 52.257812 54.023438 C 69.988281 53.996094 70.699219 57.484375 70.699219 57.484375 L 69.121094 62.777344 L 35.90625 62.902344 Z M 33.890625 57.203125 "/>
<path style=" stroke:none;fill-rule:nonzero;fill:rgb(80%,80%,80%);fill-opacity:1;" d="M 76.40625 81.234375 C 77.082031 86.019531 66.90625 90.097656 53.675781 90.34375 C 40.441406 90.59375 29.160156 86.910156 28.46875 82.128906 C 27.78125 77.34375 37.945312 73.257812 51.179688 73.011719 C 64.410156 72.757812 75.703125 76.433594 76.40625 81.21875 "/>
<path style=" stroke:none;fill-rule:nonzero;fill:rgb(50.196078%,50.196078%,50.196078%);fill-opacity:1;" d="M 66.050781 81.105469 C 66.433594 83.804688 60.6875 86.109375 53.214844 86.25 C 45.742188 86.386719 39.371094 84.3125 38.984375 81.609375 C 38.59375 78.90625 44.335938 76.601562 51.804688 76.460938 C 59.277344 76.316406 65.65625 78.390625 66.050781 81.09375 "/>
<path style=" stroke:none;fill-rule:nonzero;fill:rgb(31.372549%,17.647059%,8.627451%);fill-opacity:1;" d="M 69.429688 59.890625 C 69.902344 61.984375 62.792969 63.769531 53.554688 63.878906 C 44.3125 63.988281 36.429688 62.378906 35.949219 60.285156 C 35.46875 58.1875 42.570312 56.402344 51.808594 56.292969 C 61.050781 56.183594 68.9375 57.789062 69.425781 59.886719 "/>
<path style="fill:none;stroke-width:12.0954;stroke-linecap:butt;stroke-linejoin:miter;stroke:rgb(50.196078%,50.196078%,50.196078%);stroke-opacity:1;stroke-miterlimit:4;" d="M 349.161784 925.022499 C 349.161784 925.022499 367.248535 927.687701 374.674479 923.171099 C 382.120768 918.634152 387.125651 908.481971 386.962891 900.608436 C 386.779785 892.714556 382.8125 886.44828 376.993815 883.274452 C 371.195475 880.080279 357.991536 882.806516 357.991536 882.806516 " transform="matrix(0.192,0,0,0.192,0,-106.053539)"/>
<path style=" stroke:none;fill-rule:nonzero;fill:rgb(70.196078%,70.196078%,70.196078%);fill-opacity:1;" d="M 33.871094 57.132812 C 35.15625 71.871094 38.578125 83.074219 51.949219 83.675781 C 65.320312 84.273438 69.539062 69.917969 70.738281 57.492188 C 70.738281 57.492188 67.710938 60.636719 51.238281 60.429688 C 34.761719 60.222656 33.871094 57.132812 33.871094 57.132812 Z M 33.871094 57.132812 "/>
<path style="fill:none;stroke-width:9;stroke-linecap:butt;stroke-linejoin:miter;stroke:rgb(100%,100%,100%);stroke-opacity:1;stroke-miterlimit:4;" d="M 121.518832 354.82924 C 121.518832 354.82924 126.62544 354.340958 130.063754 350.455053 C 133.502068 346.548803 133.318962 343.31394 133.318962 343.31394 L 133.298617 304.678686 " transform="matrix(0.192,0,0,0.192,2.988697,-41.205339)"/>
<path style=" stroke:none;fill-rule:nonzero;fill:rgb(100%,100%,100%);fill-opacity:1;" d="M 27.761719 14.839844 L 29.464844 14.839844 L 29.464844 16.5 L 27.761719 16.5 Z M 27.761719 14.839844 "/>
<path style="fill:none;stroke-width:9;stroke-linecap:butt;stroke-linejoin:bevel;stroke:rgb(100%,100%,100%);stroke-opacity:1;stroke-miterlimit:4;" d="M 915.692997 696.288145 L 937.83411 638.006108 L 960.561075 696.288145 " transform="matrix(0.193362,0,0,0.193362,-145.318042,-108.006762)"/>
<path style="fill:none;stroke-width:9;stroke-linecap:butt;stroke-linejoin:miter;stroke:rgb(100%,100%,100%);stroke-opacity:1;stroke-miterlimit:4;" d="M 924.581765 676.753056 L 950.359193 676.753056 " transform="matrix(0.193362,0,0,0.193362,-145.318042,-108.006762)"/>
<path style="fill:none;stroke-width:9.063828;stroke-linecap:butt;stroke-linejoin:miter;stroke:rgb(100%,100%,100%);stroke-opacity:1;stroke-miterlimit:4;" d="M 384.449725 735.913379 L 384.449725 679.476204 C 384.449725 679.476204 415.272479 673.515104 415.170754 693.778776 C 415.048684 714.042448 385.080422 708.528939 385.080422 708.528939 " transform="matrix(0.192,0,0,0.192,-30.412003,-114.271931)"/>
<path style="fill:none;stroke-width:9;stroke-linecap:butt;stroke-linejoin:miter;stroke:rgb(100%,100%,100%);stroke-opacity:1;stroke-miterlimit:4;" d="M 392.465676 710.441374 L 418.385272 734.916471 " transform="matrix(0.192,0,0,0.192,-30.412003,-114.271931)"/>
</g>
</svg>
