<?xml version="1.0" encoding="UTF-8"?>
<svg xmlns="http://www.w3.org/2000/svg" xmlns:xlink="http://www.w3.org/1999/xlink" width="96" height="96" viewBox="0 0 96 96" version="1.1">
<g id="surface1">
<path style=" stroke:none;fill-rule:evenodd;fill:rgb(20%,20%,20%);fill-opacity:1;" d="M 12.101562 29.539062 L 22.320312 39.542969 L 22 25.515625 L 12.097656 25.46875 Z M 12.101562 29.539062 "/>
<path style="fill-rule:evenodd;fill:rgb(94.901961%,94.901961%,94.901961%);fill-opacity:1;stroke-width:5.03546;stroke-linecap:butt;stroke-linejoin:miter;stroke:rgb(68.627451%,68.627451%,68.627451%);stroke-opacity:1;stroke-miterlimit:4;" d="M 97.045898 1029.840207 L 433.919271 1028.660194 L 435.099284 664.768592 L 347.066243 575.575884 L 97.045898 575.575884 Z M 97.045898 1029.840207 " transform="matrix(0.192,0,0,0.192,0,-106.053539)"/>
<path style="fill-rule:evenodd;fill:rgb(68.627451%,68.627451%,68.627451%);fill-opacity:1;stroke-width:5.03546;stroke-linecap:butt;stroke-linejoin:miter;stroke:rgb(68.627451%,68.627451%,68.627451%);stroke-opacity:1;stroke-miterlimit:4;" d="M 431.518555 662.917193 L 349.344889 662.347531 L 350.118001 578.546262 Z M 431.518555 662.917193 " transform="matrix(0.192,0,0,0.192,0,-106.053539)"/>
<path style=" stroke:none;fill-rule:nonzero;fill:rgb(22.352941%,25.098039%,31.372549%);fill-opacity:1;" d="M 12.125 13.40625 L 55.308594 13.40625 L 55.308594 29.601562 L 12.125 29.601562 Z M 12.125 13.40625 "/>
<path style=" stroke:none;fill-rule:nonzero;fill:rgb(36.470588%,41.568627%,48.235294%);fill-opacity:1;" d="M 58.914062 52.269531 L 60.839844 52.933594 L 60.839844 53.789062 L 59.195312 54.261719 L 59.195312 56.910156 L 62.761719 55.925781 L 60.730469 56.972656 L 60.777344 58.960938 L 59.238281 59.453125 L 59.238281 61.972656 L 62.546875 61.164062 L 60.839844 62.167969 L 60.839844 64.070312 L 59.148438 64.644531 L 59.257812 67.039062 L 62.847656 66.058594 L 60.839844 67.210938 L 60.796875 69.070312 L 59.214844 69.542969 L 59.257812 71.914062 L 62.742188 71.015625 L 60.542969 72.40625 L 60.476562 73.175781 L 66.035156 73.175781 L 65.96875 70.566406 L 67.574219 70.222656 L 67.53125 67.640625 L 63.765625 68.472656 L 65.945312 67.550781 L 65.96875 65.714844 L 67.636719 65.222656 L 67.636719 62.59375 L 64.730469 63.425781 L 65.90625 62.660156 L 65.925781 60.734375 L 67.488281 60.285156 L 67.488281 57.636719 L 64.066406 58.46875 L 65.796875 57.570312 L 65.882812 55.414062 L 67.464844 55.175781 L 67.550781 52.570312 L 64.410156 53.277344 L 66.035156 52.015625 L 66.035156 51.203125 L 59.066406 51.394531 Z M 58.914062 52.269531 "/>
<path style=" stroke:none;fill-rule:nonzero;fill:rgb(40%,40%,40%);fill-opacity:1;" d="M 59.332031 78.878906 L 59.363281 84.320312 L 57.789062 84.320312 L 57.789062 86.285156 L 54.980469 86.34375 L 54.949219 84.621094 L 51.230469 84.652344 L 51.171875 90.726562 L 54.980469 90.726562 L 54.980469 89.15625 L 57.824219 89.125 L 57.824219 91.089844 L 69.035156 91.0625 L 69.066406 89.15625 L 72.03125 89.15625 L 72.03125 90.816406 L 75.65625 90.816406 L 75.625 84.53125 L 72.03125 84.5625 L 72.03125 86.40625 L 69.035156 86.40625 L 68.914062 84.261719 L 67.613281 84.289062 L 67.613281 78.816406 Z M 59.332031 78.878906 "/>
<path style=" stroke:none;fill-rule:nonzero;fill:rgb(22.352941%,25.098039%,31.372549%);fill-opacity:1;" d="M 34.1875 76.980469 L 34.101562 78.476562 L 37.476562 81.640625 L 55.175781 81.8125 L 57.484375 79.25 L 69.578125 79.117188 L 69.578125 72.023438 L 57.738281 72.023438 L 53.035156 77.023438 Z M 34.1875 76.980469 "/>
<path style=" stroke:none;fill-rule:nonzero;fill:rgb(22.352941%,25.098039%,31.372549%);fill-opacity:1;" d="M 34.199219 47.964844 L 34.109375 46.46875 L 37.488281 43.304688 L 55.1875 43.132812 L 57.496094 45.699219 L 69.59375 45.828125 L 69.59375 52.925781 L 57.75 52.925781 L 53.046875 47.921875 Z M 34.199219 47.964844 "/>
<path style=" stroke:none;fill-rule:nonzero;fill:rgb(100%,72.156863%,0%);fill-opacity:1;" d="M 27.65625 47.925781 L 53.042969 47.925781 L 53.042969 77.003906 L 27.65625 77.003906 Z M 27.65625 47.925781 "/>
<path style=" stroke:none;fill-rule:nonzero;fill:rgb(98.039216%,92.54902%,42.745098%);fill-opacity:1;" d="M 29.546875 50.511719 L 50.835938 50.511719 L 50.835938 61.726562 L 29.546875 61.726562 Z M 29.546875 50.511719 "/>
<path style=" stroke:none;fill-rule:nonzero;fill:rgb(98.039216%,92.54902%,42.745098%);fill-opacity:1;" d="M 29.722656 63.554688 L 51.007812 63.554688 L 51.007812 74.761719 L 29.722656 74.761719 Z M 29.722656 63.554688 "/>
<path style=" stroke:none;fill-rule:nonzero;fill:rgb(15.686275%,13.333333%,4.313725%);fill-opacity:1;" d="M 36.21875 54.917969 L 44.765625 54.917969 L 44.765625 57.660156 L 36.21875 57.660156 Z M 36.21875 54.917969 "/>
<path style=" stroke:none;fill-rule:nonzero;fill:rgb(15.686275%,13.333333%,4.313725%);fill-opacity:1;" d="M 36.175781 67.613281 L 44.726562 67.613281 L 44.726562 70.359375 L 36.175781 70.359375 Z M 36.175781 67.613281 "/>
<path style="fill:none;stroke-width:9;stroke-linecap:butt;stroke-linejoin:bevel;stroke:rgb(100%,100%,100%);stroke-opacity:1;stroke-miterlimit:4;" d="M 915.699055 696.289526 L 937.840169 638.007489 L 960.567133 696.289526 " transform="matrix(0.193362,0,0,0.193362,-155.268432,-107.854685)"/>
<path style="fill:none;stroke-width:9;stroke-linecap:butt;stroke-linejoin:miter;stroke:rgb(100%,100%,100%);stroke-opacity:1;stroke-miterlimit:4;" d="M 924.587824 676.754437 L 950.365251 676.754437 " transform="matrix(0.193362,0,0,0.193362,-155.268432,-107.854685)"/>
<path style="fill:none;stroke-width:9.063828;stroke-linecap:butt;stroke-linejoin:miter;stroke:rgb(100%,100%,100%);stroke-opacity:1;stroke-miterlimit:4;" d="M 384.441865 735.913738 L 384.441865 679.476564 C 384.441865 679.476564 415.264618 673.515464 415.162893 693.779135 C 415.061168 714.042807 385.072561 708.529298 385.072561 708.529298 " transform="matrix(0.192,0,0,0.192,-40.222994,-114.588406)"/>
<path style="fill:none;stroke-width:9;stroke-linecap:butt;stroke-linejoin:miter;stroke:rgb(100%,100%,100%);stroke-opacity:1;stroke-miterlimit:4;" d="M 392.457815 710.441733 L 418.397757 734.916831 " transform="matrix(0.192,0,0,0.192,-40.222994,-114.588406)"/>
</g>
</svg>
