<?xml version="1.0" encoding="UTF-8"?>
<svg xmlns="http://www.w3.org/2000/svg" xmlns:xlink="http://www.w3.org/1999/xlink" width="96" height="96" viewBox="0 0 96 96" version="1.1">
<g id="surface1">
<path style=" stroke:none;fill-rule:evenodd;fill:rgb(15.686275%,9.019608%,4.313725%);fill-opacity:1;" d="M 12.132812 29.652344 L 22.351562 39.652344 L 22.03125 25.628906 L 12.125 25.582031 Z M 12.132812 29.652344 "/>
<path style="fill-rule:evenodd;fill:rgb(94.901961%,94.901961%,94.901961%);fill-opacity:1;stroke-width:5.03546;stroke-linecap:butt;stroke-linejoin:miter;stroke:rgb(68.627451%,68.627451%,68.627451%);stroke-opacity:1;stroke-miterlimit:4;" d="M 96.903483 1029.840207 L 433.797201 1028.660194 L 434.956868 664.768592 L 346.923828 575.575884 L 96.903483 575.575884 Z M 96.903483 1029.840207 " transform="matrix(0.192,0,0,0.192,0,-106.053539)"/>
<path style="fill-rule:evenodd;fill:rgb(68.627451%,68.627451%,68.627451%);fill-opacity:1;stroke-width:5.03546;stroke-linecap:butt;stroke-linejoin:miter;stroke:rgb(68.627451%,68.627451%,68.627451%);stroke-opacity:1;stroke-miterlimit:4;" d="M 431.376139 662.917193 L 349.202474 662.347531 L 349.975586 578.546262 Z M 431.376139 662.917193 " transform="matrix(0.192,0,0,0.192,0,-106.053539)"/>
<path style=" stroke:none;fill-rule:nonzero;fill:rgb(31.372549%,17.647059%,8.627451%);fill-opacity:1;" d="M 12.097656 13.40625 L 55.28125 13.40625 L 55.28125 29.601562 L 12.097656 29.601562 Z M 12.097656 13.40625 "/>
<path style="fill:none;stroke-width:9.063828;stroke-linecap:butt;stroke-linejoin:miter;stroke:rgb(100%,100%,100%);stroke-opacity:1;stroke-miterlimit:4;" d="M 139.221191 693.902707 L 139.221191 637.465533 C 139.221191 637.465533 170.043945 631.524777 169.94222 651.768104 C 169.82015 672.031776 139.851888 666.518267 139.851888 666.518267 " transform="matrix(0.192,0,0,0.192,0,-106.053539)"/>
<path style="fill-rule:nonzero;fill:rgb(31.372549%,17.647059%,8.627451%);fill-opacity:1;stroke-width:0.759318;stroke-linecap:butt;stroke-linejoin:miter;stroke:rgb(0%,0%,0%);stroke-opacity:1;stroke-miterlimit:4;" d="M 233.886719 776.096717 C 230.183919 776.727414 226.989746 778.660194 223.490397 779.819862 C 216.105143 784.580604 210.184733 791.864133 208.658854 800.63285 C 204.040527 815.484738 190.450033 825.250363 185.709635 839.980181 C 181.803385 849.420285 174.784342 856.846229 168.253581 864.434934 C 163.757324 870.050168 164.245605 877.598182 162.272135 884.169634 C 160.27832 885.959999 158.874512 890.069699 162.577311 890.51729 C 162.475586 893.853879 160.19694 897.577023 162.618001 900.771197 C 164.469401 907.749549 167.80599 914.443072 171.081543 920.892453 C 171.732585 923.252479 175.760905 925.978716 176.371257 922.194536 C 176.859538 916.762408 179.199219 910.333371 175.394694 905.572629 C 172.953288 899.448768 174.967448 892.979042 176.106771 886.875526 C 175.557454 883.111691 176.900228 878.818885 178.934733 875.807818 C 181.030273 876.947141 180.318197 880.73132 181.152344 882.765826 C 183.146159 897.434608 183.75651 912.632362 180.053711 927.077349 C 178.690592 932.753618 180.948893 938.735064 179.60612 944.289263 C 174.845378 949.456906 178.548177 956.88285 178.955078 962.904986 C 181.274414 974.054074 180.013021 985.650754 176.676432 996.311561 C 176.595052 1000.156776 175.252279 1003.63578 174.458822 1007.297889 C 175.78125 1011.916216 182.108561 1013.523475 186.340332 1012.445187 C 188.964844 1010.675168 193.990072 1014.052447 195.23112 1009.841021 C 195.617676 1005.263384 191.141764 1001.845415 191.507975 997.186398 C 188.720703 984.430051 186.625163 971.144732 189.331055 958.144243 C 190.734863 950.596229 190.185547 942.498898 192.301432 935.21537 C 197.001139 929.33565 200.215658 922.357297 202.229818 915.053423 C 205.01709 908.970253 206.746419 901.605344 208.435059 895.827349 C 215.738932 907.546099 220.113118 921.584185 218.200684 935.561236 C 218.465169 941.01371 215.047201 947.422401 219.624837 951.715207 C 225.179036 960.402544 232.198079 968.6016 235.005697 978.611366 C 235.229492 982.802447 229.573568 982.863482 228.088379 986.281451 C 224.772135 991.103228 225.118001 997.247434 224.75179 1002.821978 C 227.884928 1004.042681 232.462565 1007.277544 235.127767 1003.391639 C 237.711589 1000.645057 238.810221 995.884315 241.516113 993.788775 C 243.164062 996.921913 241.617839 1002.008176 245.890299 1003.5544 C 252.034505 1005.751665 259.094238 1006.362017 265.46224 1004.856483 C 268.717448 1002.008176 264.261882 998.000201 261.494954 996.921913 C 256.896973 995.558794 254.191081 991.978065 252.624512 987.624224 C 251.180013 985.243853 250.142415 982.436236 252.950033 980.605181 C 259.602865 972.54854 268.717448 967.218137 275.736491 959.690467 C 279.988607 953.810747 278.869629 945.591346 277.242025 938.938514 C 275.268555 935.072954 273.844401 931.003944 274.922689 926.589068 C 275.655111 922.804888 273.050944 918.878293 273.213704 915.501014 C 276.936849 915.256874 281.29069 915.399289 284.586589 916.660682 C 285.481771 922.642128 284.159342 929.050819 285.888672 934.849159 C 288.696289 937.534706 290.018717 941.786822 290.222168 945.652382 C 292.84668 948.887245 291.178385 953.627642 291.910807 957.594927 C 290.222168 964.023964 292.622884 970.37162 294.596354 976.475135 C 298.197428 988.09216 296.671549 1000.624712 299.743652 1012.282427 C 302.103678 1015.578326 298.156738 1021.11218 302.75472 1023.2891 C 309.834798 1025.933957 319.335938 1026.686724 325.378418 1021.35632 C 327.229818 1017.673866 321.797689 1015.55798 319.173177 1014.398312 C 315.490723 1013.58451 312.703451 1011.021034 311.909993 1007.216509 C 306.315104 995.680865 303.588867 982.721066 305.541992 969.862993 C 305.826823 963.637408 306.681315 957.533892 308.268229 951.613482 C 309.020996 945.591346 309.122721 939.386105 310.872396 933.669146 C 311.909993 925.59216 310.160319 917.087928 312.41862 909.255083 C 316.080729 911.574419 319.986979 913.9141 324.320475 914.239621 C 327.128092 916.375852 330.13916 914.259966 331.665039 911.676145 C 333.92334 908.583697 336.629232 916.864133 338.704427 912.673052 C 341.267904 909.76371 344.563802 907.688514 347.452799 905.409868 C 349.100749 902.724322 352.478027 902.826047 354.838053 901.584999 C 356.486003 899.448768 353.780111 896.051145 356.811523 894.403195 C 357.849121 891.656613 360.493978 895.278033 361.694336 892.673866 C 362.976074 889.845904 362.752279 885.939654 366.190592 884.718951 C 372.355143 879.775103 370.503743 870.82328 371.622721 863.865272 C 371.561686 856.947954 372.924805 849.603391 371.236165 842.909868 C 369.24235 837.6405 365.987142 832.269406 364.664714 827.000038 C 370.686849 822.17826 381.368001 826.186236 385.457357 818.27201 C 387.247721 812.453326 381.652832 807.509478 377.970378 803.827023 C 374.369303 800.449745 368.733724 802.057004 364.339193 800.38871 C 360.921224 799.249387 355.63151 800.51078 354.756673 795.892453 C 353.312174 792.209999 348.856608 792.250689 346.455892 789.483762 C 342.631022 787.510292 339.152018 792.026893 335.408529 792.393104 C 331.197103 795.302447 326.395671 798.150754 323.730469 802.60632 C 322.591146 805.515663 323.588053 809.299842 320.43457 811.130897 C 315.205892 817.132687 317.403158 826.04382 316.914876 833.368039 C 316.975911 836.704628 316.874186 840.102251 318.786621 842.808143 C 319.051107 846.917844 322.794596 849.623736 322.12321 853.835161 C 321.614583 856.602089 324.05599 862.522499 319.458008 861.24076 C 318.074544 858.921424 318.25765 854.954139 316.975911 852.207557 C 313.130697 840.427772 307.332357 827.630734 295.694987 821.710324 C 287.516276 815.708534 281.656901 806.980507 278.259277 797.520057 C 275.044759 792.718625 269.124349 789.768592 266.581217 784.560259 C 263.264974 783.136105 259.236654 783.624387 255.940755 781.772987 C 251.831055 779.962277 248.10791 776.646034 243.184408 777.23604 C 239.949544 777.480181 236.958822 776.340858 233.886719 776.096717 Z M 239.888509 908.441281 C 242.716471 909.377154 241.841634 913.812375 242.879232 916.111366 C 244.20166 919.346229 243.082682 925.083534 246.846517 926.731483 C 248.982747 930.230832 247.639974 934.991574 249.796549 938.246783 C 249.308268 940.545773 248.555501 944.858924 252.13623 944.91996 C 255.350749 944.655474 256.225586 948.236203 258.504232 949.843462 C 260.599772 952.77315 262.919108 956.92354 259.684245 959.995643 C 256.551107 963.820513 254.414876 969.781613 248.636882 969.944374 C 246.25651 970.208859 242.940267 973.911659 241.861979 970.086789 C 237.752279 963.149126 234.25293 955.743527 235.046387 947.483436 C 235.107422 934.482948 238.077799 921.7266 239.562988 908.929562 C 239.481608 908.583697 239.603678 908.420936 239.888509 908.441281 Z M 239.888509 908.441281 " transform="matrix(0.192,0,0,0.192,0,-106.053539)"/>
<path style="fill:none;stroke-width:9;stroke-linecap:butt;stroke-linejoin:miter;stroke:rgb(100%,100%,100%);stroke-opacity:1;stroke-miterlimit:4;" d="M 192.240397 633.722043 L 192.525228 688.206092 L 224.304199 688.511268 " transform="matrix(0.192,0,0,0.192,0,-106.053539)"/>
</g>
</svg>
