<?xml version="1.0" encoding="UTF-8"?>
<svg xmlns="http://www.w3.org/2000/svg" xmlns:xlink="http://www.w3.org/1999/xlink" width="96" height="96" viewBox="0 0 96 96" version="1.1">
<g id="surface1">
<path style=" stroke:none;fill-rule:evenodd;fill:rgb(10.196078%,10.196078%,10.196078%);fill-opacity:1;" d="M 12.101562 29.539062 L 22.320312 39.542969 L 22 25.515625 L 12.097656 25.46875 Z M 12.101562 29.539062 "/>
<path style="fill-rule:evenodd;fill:rgb(94.901961%,94.901961%,94.901961%);fill-opacity:1;stroke-width:5.03546;stroke-linecap:butt;stroke-linejoin:miter;stroke:rgb(68.627451%,68.627451%,68.627451%);stroke-opacity:1;stroke-miterlimit:4;" d="M 97.045898 1029.840207 L 433.919271 1028.660194 L 435.099284 664.768592 L 347.066243 575.575884 L 97.045898 575.575884 Z M 97.045898 1029.840207 " transform="matrix(0.192,0,0,0.192,0,-106.053539)"/>
<path style="fill-rule:evenodd;fill:rgb(68.627451%,68.627451%,68.627451%);fill-opacity:1;stroke-width:5.03546;stroke-linecap:butt;stroke-linejoin:miter;stroke:rgb(68.627451%,68.627451%,68.627451%);stroke-opacity:1;stroke-miterlimit:4;" d="M 431.518555 662.917193 L 349.344889 662.347531 L 350.118001 578.546262 Z M 431.518555 662.917193 " transform="matrix(0.192,0,0,0.192,0,-106.053539)"/>
<path style=" stroke:none;fill-rule:nonzero;fill:rgb(20%,20%,20%);fill-opacity:1;" d="M 12.125 13.40625 L 55.308594 13.40625 L 55.308594 29.601562 L 12.125 29.601562 Z M 12.125 13.40625 "/>
<path style=" stroke:none;fill-rule:evenodd;fill:rgb(20%,20%,20%);fill-opacity:1;" d="M 40.09375 46.664062 L 40.09375 78.660156 C 38.738281 77.394531 36.96875 76.578125 35.101562 76.578125 C 31.1875 76.578125 27.625 80.140625 27.625 84.058594 C 27.625 87.976562 31.1875 91.539062 35.101562 91.539062 C 39.019531 91.539062 42.59375 87.976562 42.59375 84.058594 L 42.59375 46.664062 Z M 40.09375 46.664062 "/>
<path style=" stroke:none;fill-rule:evenodd;fill:rgb(20%,20%,20%);fill-opacity:1;" d="M 64.738281 43.796875 L 64.738281 75.800781 C 63.378906 74.535156 61.609375 73.714844 59.746094 73.71875 C 55.828125 73.71875 52.269531 77.28125 52.269531 81.191406 C 52.269531 85.109375 55.828125 88.671875 59.746094 88.671875 C 63.660156 88.671875 67.234375 85.109375 67.234375 81.191406 L 67.234375 43.796875 Z M 64.738281 43.796875 "/>
<path style=" stroke:none;fill-rule:nonzero;fill:rgb(20%,20%,20%);fill-opacity:1;" d="M 40.1875 46.695312 L 66.882812 43.539062 L 67.222656 46.414062 L 40.53125 49.570312 Z M 40.1875 46.695312 "/>
<path style="fill:none;stroke-width:9;stroke-linecap:butt;stroke-linejoin:bevel;stroke:rgb(100%,100%,100%);stroke-opacity:1;stroke-miterlimit:4;" d="M 915.700417 696.275529 L 937.84153 638.013693 L 960.568495 696.275529 " transform="matrix(0.193362,0,0,0.193362,-143.97182,-107.637135)"/>
<path style="fill:none;stroke-width:9;stroke-linecap:butt;stroke-linejoin:miter;stroke:rgb(100%,100%,100%);stroke-opacity:1;stroke-miterlimit:4;" d="M 924.589185 676.760642 L 950.366613 676.760642 " transform="matrix(0.193362,0,0,0.193362,-143.97182,-107.637135)"/>
<path style="fill:none;stroke-width:9;stroke-linecap:butt;stroke-linejoin:bevel;stroke:rgb(100%,100%,100%);stroke-opacity:1;stroke-miterlimit:4;" d="M 216.674805 634.35274 L 243.530273 690.688189 L 269.57194 634.617225 " transform="matrix(0.192,0,0,0.192,0,-106.053539)"/>
<path style="fill:none;stroke-width:9;stroke-linecap:butt;stroke-linejoin:miter;stroke:rgb(100%,100%,100%);stroke-opacity:1;stroke-miterlimit:4;" d="M 101.359049 629.856483 L 109.476725 686.049517 L 114.522298 686.273312 L 130.391439 644.972857 L 133.748372 644.972857 L 149.698893 686.273312 L 154.927572 686.354693 L 162.373861 630.100624 " transform="matrix(0.192,0,0,0.192,0,-106.053539)"/>
</g>
</svg>
