<?xml version="1.0" encoding="UTF-8"?>
<svg xmlns="http://www.w3.org/2000/svg" xmlns:xlink="http://www.w3.org/1999/xlink" width="96" height="96" viewBox="0 0 96 96" version="1.1">
<g id="surface1">
<path style=" stroke:none;fill-rule:evenodd;fill:rgb(50.196078%,50.196078%,50.196078%);fill-opacity:1;" d="M 12.101562 29.539062 L 22.320312 39.542969 L 22 25.515625 L 12.097656 25.46875 Z M 12.101562 29.539062 "/>
<path style="fill-rule:evenodd;fill:rgb(94.901961%,94.901961%,94.901961%);fill-opacity:1;stroke-width:5.03546;stroke-linecap:butt;stroke-linejoin:miter;stroke:rgb(68.627451%,68.627451%,68.627451%);stroke-opacity:1;stroke-miterlimit:4;" d="M 97.045898 1029.840207 L 433.919271 1028.660194 L 435.099284 664.768592 L 347.066243 575.575884 L 97.045898 575.575884 Z M 97.045898 1029.840207 " transform="matrix(0.192,0,0,0.192,0,-106.053539)"/>
<path style="fill-rule:evenodd;fill:rgb(68.627451%,68.627451%,68.627451%);fill-opacity:1;stroke-width:5.03546;stroke-linecap:butt;stroke-linejoin:miter;stroke:rgb(68.627451%,68.627451%,68.627451%);stroke-opacity:1;stroke-miterlimit:4;" d="M 431.518555 662.917193 L 349.344889 662.347531 L 350.118001 578.546262 Z M 431.518555 662.917193 " transform="matrix(0.192,0,0,0.192,0,-106.053539)"/>
<path style=" stroke:none;fill-rule:nonzero;fill:rgb(60%,60%,60%);fill-opacity:1;" d="M 12.125 13.40625 L 55.308594 13.40625 L 55.308594 29.601562 L 12.125 29.601562 Z M 12.125 13.40625 "/>
<path style=" stroke:none;fill-rule:nonzero;fill:rgb(80%,80%,80%);fill-opacity:1;" d="M 31.746094 42.621094 L 68.15625 42.621094 C 71.359375 42.621094 73.949219 45.792969 73.949219 49.710938 L 73.949219 83.527344 C 73.949219 87.445312 71.359375 90.621094 68.15625 90.621094 L 31.746094 90.621094 C 28.546875 90.621094 25.953125 87.445312 25.953125 83.527344 L 25.953125 49.710938 C 25.953125 45.792969 28.546875 42.621094 31.746094 42.621094 Z M 31.746094 42.621094 "/>
<path style=" stroke:none;fill-rule:nonzero;fill:rgb(70.196078%,70.196078%,70.196078%);fill-opacity:1;" d="M 35.652344 48.09375 L 63.972656 48.09375 C 66.460938 48.09375 68.476562 50.5625 68.476562 53.605469 L 68.476562 79.910156 C 68.476562 82.957031 66.460938 85.425781 63.972656 85.425781 L 35.652344 85.425781 C 33.164062 85.425781 31.144531 82.957031 31.144531 79.910156 L 31.144531 53.605469 C 31.144531 50.5625 33.164062 48.09375 35.652344 48.09375 Z M 35.652344 48.09375 "/>
<path style=" stroke:none;fill-rule:nonzero;fill:rgb(22.352941%,25.098039%,31.372549%);fill-opacity:1;" d="M 52.269531 75.402344 L 44.90625 57.496094 L 42.882812 57.496094 L 35.472656 75.402344 L 38.007812 75.402344 L 40.300781 69.511719 L 47.371094 69.511719 L 49.707031 75.402344 Z M 46.484375 67.515625 L 41.164062 67.515625 L 43.894531 60.179688 Z M 46.484375 67.515625 "/>
<path style=" stroke:none;fill-rule:nonzero;fill:rgb(22.352941%,25.098039%,31.372549%);fill-opacity:1;" d="M 57.632812 75.742188 C 59.207031 75.742188 60.636719 75.179688 61.890625 74.09375 L 62.265625 75.742188 L 64.429688 75.277344 C 64.085938 74.042969 63.914062 72.960938 63.914062 72.027344 L 63.914062 67.839844 C 63.914062 64.242188 62.1875 62.445312 58.667969 62.445312 C 57.164062 62.445312 55.5625 62.691406 53.886719 63.183594 L 54.132812 65.277344 C 55.738281 64.660156 57.214844 64.363281 58.542969 64.363281 C 60.34375 64.363281 61.351562 65.300781 61.597656 67.148438 C 55.984375 67.222656 53.171875 68.824219 53.171875 71.953125 C 53.171875 74.316406 55.167969 75.742188 57.632812 75.742188 Z M 61.597656 71.410156 C 61.597656 72.765625 59.257812 73.703125 57.730469 73.703125 C 56.28125 73.703125 55.539062 73.035156 55.539062 71.730469 C 55.539062 70.105469 57.582031 69.242188 61.597656 69.167969 Z M 61.597656 71.410156 "/>
</g>
</svg>
