<?xml version="1.0" encoding="UTF-8"?>
<svg xmlns="http://www.w3.org/2000/svg" xmlns:xlink="http://www.w3.org/1999/xlink" width="96" height="96" viewBox="0 0 96 96" version="1.1">
<g id="surface1">
<path style=" stroke:none;fill-rule:evenodd;fill:rgb(19.607843%,19.607843%,19.607843%);fill-opacity:1;" d="M 12.101562 29.539062 L 22.320312 39.542969 L 22 25.515625 L 12.097656 25.46875 Z M 12.101562 29.539062 "/>
<path style="fill-rule:evenodd;fill:rgb(94.901961%,94.901961%,94.901961%);fill-opacity:1;stroke-width:5.03546;stroke-linecap:butt;stroke-linejoin:miter;stroke:rgb(68.627451%,68.627451%,68.627451%);stroke-opacity:1;stroke-miterlimit:4;" d="M 97.045898 1029.840207 L 433.919271 1028.660194 L 435.099284 664.768592 L 347.066243 575.575884 L 97.045898 575.575884 Z M 97.045898 1029.840207 " transform="matrix(0.192,0,0,0.192,0,-106.053539)"/>
<path style="fill-rule:evenodd;fill:rgb(68.627451%,68.627451%,68.627451%);fill-opacity:1;stroke-width:5.03546;stroke-linecap:butt;stroke-linejoin:miter;stroke:rgb(68.627451%,68.627451%,68.627451%);stroke-opacity:1;stroke-miterlimit:4;" d="M 431.518555 662.917193 L 349.344889 662.347531 L 350.118001 578.546262 Z M 431.518555 662.917193 " transform="matrix(0.192,0,0,0.192,0,-106.053539)"/>
<path style=" stroke:none;fill-rule:nonzero;fill:rgb(40%,40%,40%);fill-opacity:1;" d="M 12.125 13.40625 L 59.265625 13.40625 L 59.265625 29.601562 L 12.125 29.601562 Z M 12.125 13.40625 "/>
<path style="fill:none;stroke-width:9;stroke-linecap:butt;stroke-linejoin:miter;stroke:rgb(100%,100%,100%);stroke-opacity:1;stroke-miterlimit:4;" d="M 380.200273 670.71393 L 346.203691 670.307029 L 346.610592 618.589906 L 381.075111 618.732322 " transform="matrix(0.192,0,0,0.192,-37.736734,-102.609106)"/>
<path style="fill:none;stroke-width:9;stroke-linecap:butt;stroke-linejoin:miter;stroke:rgb(100%,100%,100%);stroke-opacity:1;stroke-miterlimit:4;" d="M 348.950273 642.373272 L 378.104733 642.515688 " transform="matrix(0.192,0,0,0.192,-37.736734,-102.609106)"/>
<path style=" stroke:none;fill-rule:nonzero;fill:rgb(60%,60%,60%);fill-opacity:1;" d="M 29.726562 68.042969 L 72.535156 68.042969 L 72.535156 78.308594 L 29.726562 78.308594 Z M 29.726562 68.042969 "/>
<path style=" stroke:none;fill-rule:nonzero;fill:rgb(36.470588%,41.568627%,48.235294%);fill-opacity:1;" d="M 34.195312 50.964844 L 67.625 50.964844 L 67.625 64.304688 L 34.195312 64.304688 Z M 34.195312 50.964844 "/>
<path style=" stroke:none;fill-rule:nonzero;fill:rgb(100%,100%,100%);fill-opacity:1;" d="M 36.835938 56.050781 L 36.835938 48.378906 L 43.367188 43.09375 L 64.828125 42.992188 L 64.933594 56.15625 Z M 36.835938 56.050781 "/>
<path style=" stroke:none;fill-rule:nonzero;fill:rgb(40%,40%,40%);fill-opacity:1;" d="M 29.652344 55.140625 L 72.460938 55.140625 L 72.460938 68.484375 L 29.652344 68.484375 Z M 29.652344 55.140625 "/>
<path style=" stroke:none;fill-rule:nonzero;fill:rgb(100%,100%,100%);fill-opacity:1;" d="M 34.929688 74.570312 L 68.355469 74.570312 L 68.355469 90.988281 L 34.929688 90.988281 Z M 34.929688 74.570312 "/>
<path style=" stroke:none;fill-rule:nonzero;fill:rgb(36.470588%,41.568627%,48.235294%);fill-opacity:1;" d="M 34.929688 71.488281 L 68.355469 71.488281 L 68.355469 74.863281 L 34.929688 74.863281 Z M 34.929688 71.488281 "/>
<path style=" stroke:none;fill-rule:nonzero;fill:rgb(55.294118%,82.745098%,37.254902%);fill-opacity:1;" d="M 69.789062 59.210938 C 69.789062 60.160156 69.042969 60.929688 68.125 60.933594 C 67.199219 60.933594 66.453125 60.164062 66.449219 59.214844 C 66.449219 58.261719 67.191406 57.492188 68.113281 57.488281 C 69.039062 57.484375 69.789062 58.25 69.789062 59.203125 "/>
<path style=" stroke:none;fill-rule:nonzero;fill:rgb(92.156863%,92.156863%,92.156863%);fill-opacity:1;" d="M 36.800781 48.417969 L 43.367188 48.417969 L 43.382812 43.066406 Z M 36.800781 48.417969 "/>
<path style=" stroke:none;fill-rule:nonzero;fill:rgb(80%,80%,80%);fill-opacity:1;" d="M 37.023438 76.65625 L 66.339844 76.65625 L 66.339844 78.261719 L 37.023438 78.261719 Z M 37.023438 76.65625 "/>
<path style=" stroke:none;fill-rule:nonzero;fill:rgb(80%,80%,80%);fill-opacity:1;" d="M 36.796875 84.585938 L 66.113281 84.585938 L 66.113281 86.195312 L 36.796875 86.195312 Z M 36.796875 84.585938 "/>
<path style=" stroke:none;fill-rule:nonzero;fill:rgb(80%,80%,80%);fill-opacity:1;" d="M 36.796875 80.4375 L 66.113281 80.4375 L 66.113281 82.046875 L 36.796875 82.046875 Z M 36.796875 80.4375 "/>
<path style="fill:none;stroke-width:9.063828;stroke-linecap:butt;stroke-linejoin:miter;stroke:rgb(100%,100%,100%);stroke-opacity:1;stroke-miterlimit:4;" d="M 198.099772 692.600624 L 198.099772 636.163449 C 198.099772 636.163449 228.922526 630.202349 228.820801 650.466021 C 228.719076 670.729693 198.730469 665.216184 198.730469 665.216184 " transform="matrix(0.192,0,0,0.192,0,-106.053539)"/>
<path style="fill:none;stroke-width:10;stroke-linecap:butt;stroke-linejoin:miter;stroke:rgb(100%,100%,100%);stroke-opacity:1;stroke-miterlimit:4;" d="M 277.404785 638.482785 C 277.404785 638.482785 268.147786 634.210324 259.338379 634.108599 C 250.528971 634.006874 245.076497 639.337277 244.771322 646.925982 C 244.466146 654.514686 248.697917 660.597857 263.85498 662.388221 C 279.012044 664.158241 278.096517 677.382525 276.245117 682.041542 C 274.373372 686.720904 265.54362 691.115435 256.551107 689.915077 C 247.578939 688.714719 240.112305 684.666053 240.112305 684.666053 " transform="matrix(0.192,0,0,0.192,0,-106.053539)"/>
</g>
</svg>
