<?xml version="1.0" encoding="UTF-8"?>
<svg xmlns="http://www.w3.org/2000/svg" xmlns:xlink="http://www.w3.org/1999/xlink" width="96" height="96" viewBox="0 0 96 96" version="1.1">
<g id="surface1">
<path style=" stroke:none;fill-rule:evenodd;fill:rgb(0%,54.509804%,74.509804%);fill-opacity:1;" d="M 12.101562 29.539062 L 22.320312 39.542969 L 22 25.515625 L 12.097656 25.46875 Z M 12.101562 29.539062 "/>
<path style="fill-rule:evenodd;fill:rgb(94.901961%,94.901961%,94.901961%);fill-opacity:1;stroke-width:5.03546;stroke-linecap:butt;stroke-linejoin:miter;stroke:rgb(68.627451%,68.627451%,68.627451%);stroke-opacity:1;stroke-miterlimit:4;" d="M 97.045898 1029.840207 L 433.919271 1028.660194 L 435.099284 664.768592 L 347.066243 575.575884 L 97.045898 575.575884 Z M 97.045898 1029.840207 " transform="matrix(0.192,0,0,0.192,0,-106.053539)"/>
<path style="fill-rule:evenodd;fill:rgb(68.627451%,68.627451%,68.627451%);fill-opacity:1;stroke-width:5.03546;stroke-linecap:butt;stroke-linejoin:miter;stroke:rgb(68.627451%,68.627451%,68.627451%);stroke-opacity:1;stroke-miterlimit:4;" d="M 431.518555 662.917193 L 349.344889 662.347531 L 350.118001 578.546262 Z M 431.518555 662.917193 " transform="matrix(0.192,0,0,0.192,0,-106.053539)"/>
<path style=" stroke:none;fill-rule:nonzero;fill:rgb(0%,73.333333%,94.901961%);fill-opacity:1;" d="M 12.125 13.40625 L 55.820312 13.40625 L 55.820312 29.601562 L 12.125 29.601562 Z M 12.125 13.40625 "/>
<path style="fill:none;stroke-width:9;stroke-linecap:butt;stroke-linejoin:miter;stroke:rgb(100%,100%,100%);stroke-opacity:1;stroke-miterlimit:4;" d="M 133.337145 354.157404 L 133.296454 304.657892 " transform="matrix(0.192,0,0,0.192,3.028174,-40.795096)"/>
<path style=" stroke:none;fill-rule:nonzero;fill:rgb(100%,100%,100%);fill-opacity:1;" d="M 27.804688 15.25 L 29.5 15.25 L 29.5 16.910156 L 27.804688 16.910156 Z M 27.804688 15.25 "/>
<path style="fill-rule:nonzero;fill:rgb(100%,40%,0%);fill-opacity:1;stroke-width:6.211854;stroke-linecap:round;stroke-linejoin:round;stroke:rgb(100%,100%,100%);stroke-opacity:1;stroke-miterlimit:4;" d="M 148.996014 832.752852 L 341.274147 832.744261 L 341.25055 992.487301 L 148.993033 992.475821 Z M 148.996014 832.752852 " transform="matrix(0.191983,-0.00257151,0.00257151,0.191983,0,-106.053539)"/>
<path style="fill-rule:nonzero;fill:rgb(0%,73.333333%,94.901961%);fill-opacity:1;stroke-width:6.211854;stroke-linecap:round;stroke-linejoin:round;stroke:rgb(100%,100%,100%);stroke-opacity:1;stroke-miterlimit:4;" d="M -270.028131 849.47271 L -77.752319 849.467454 L -77.753765 1009.215022 L -270.020355 1009.202142 Z M -270.028131 849.47271 " transform="matrix(0.171143,-0.0870285,0.0870285,0.171143,0,-106.053539)"/>
<path style=" stroke:none;fill-rule:nonzero;fill:rgb(100%,100%,100%);fill-opacity:1;" d="M 58.363281 74.066406 C 56.101562 74.605469 54.0625 75.097656 53.828125 75.148438 L 53.410156 75.246094 L 50.6875 69.34375 L 53.144531 68.234375 C 54.5 67.625 56.429688 66.765625 57.441406 66.328125 L 59.28125 65.527344 L 61 69.253906 C 62.617188 72.761719 62.710938 72.984375 62.601562 73.027344 C 62.535156 73.054688 60.628906 73.519531 58.363281 74.066406 Z M 49.410156 76.21875 L 46.609375 76.902344 L 44.382812 72.171875 L 46.984375 71.007812 C 48.410156 70.371094 49.589844 69.847656 49.605469 69.851562 C 49.617188 69.855469 50.207031 71.136719 50.917969 72.695312 L 52.210938 75.535156 Z M 42.882812 68.914062 C 42.28125 67.613281 41.796875 66.542969 41.804688 66.539062 C 41.820312 66.535156 42.847656 65.785156 44.09375 64.878906 C 45.335938 63.96875 46.394531 63.207031 46.441406 63.1875 C 46.507812 63.15625 46.789062 63.710938 47.828125 65.96875 L 49.132812 68.792969 L 47.804688 69.460938 C 47.074219 69.828125 45.910156 70.386719 45.226562 70.703125 L 43.976562 71.28125 Z M 48.851562 65.378906 L 47.484375 62.417969 L 51.257812 59.675781 C 53.332031 58.175781 55.074219 56.902344 55.128906 56.855469 C 55.226562 56.773438 55.328125 56.980469 56.972656 60.542969 L 58.71875 64.3125 L 56.460938 65.355469 C 55.21875 65.929688 53.308594 66.835938 52.210938 67.371094 L 50.21875 68.34375 Z M 48.851562 65.378906 "/>
<path style="fill:none;stroke-width:9;stroke-linecap:butt;stroke-linejoin:miter;stroke:rgb(100%,100%,100%);stroke-opacity:1;stroke-miterlimit:4;" d="M 213.053385 642.104204 C 213.053385 642.104204 205.423991 635.268267 191.52832 636.3669 C 177.63265 637.445187 169.759115 653.293983 170.511882 665.277219 C 171.244303 677.280799 181.762695 691.563026 195.35319 690.383013 C 208.943685 689.203 213.053385 684.401568 213.053385 684.401568 " transform="matrix(0.192,0,0,0.192,0,-106.053539)"/>
<path style="fill:none;stroke-width:9;stroke-linecap:butt;stroke-linejoin:miter;stroke:rgb(100%,100%,100%);stroke-opacity:1;stroke-miterlimit:4;" d="M 247.94515 690.708534 C 235.921224 690.627154 224.609375 678.542193 224.527995 663.222368 C 224.446615 647.943234 236.531576 635.634478 248.677572 636.000689 C 260.823568 636.32621 271.402995 647.922889 271.62679 664.198931 C 271.809896 680.474973 259.969076 690.830604 247.94515 690.708534 Z M 247.94515 690.708534 " transform="matrix(0.192,0,0,0.192,0,-106.053539)"/>
</g>
</svg>
