<?xml version="1.0" encoding="UTF-8"?>
<svg xmlns="http://www.w3.org/2000/svg" xmlns:xlink="http://www.w3.org/1999/xlink" width="96" height="96" viewBox="0 0 96 96" version="1.1">
<g id="surface1">
<path style=" stroke:none;fill-rule:evenodd;fill:rgb(50.196078%,20%,0%);fill-opacity:1;" d="M 12.101562 28.578125 L 22.320312 38.582031 L 22 24.554688 L 12.097656 24.507812 Z M 12.101562 28.578125 "/>
<path style="fill-rule:evenodd;fill:rgb(94.901961%,94.901961%,94.901961%);fill-opacity:1;stroke-width:5.03546;stroke-linecap:butt;stroke-linejoin:miter;stroke:rgb(68.627451%,68.627451%,68.627451%);stroke-opacity:1;stroke-miterlimit:4;" d="M 97.045898 1024.835324 L 433.919271 1023.655311 L 435.099284 659.76371 L 347.066243 570.571001 L 97.045898 570.571001 Z M 97.045898 1024.835324 " transform="matrix(0.192,0,0,0.192,0,-106.053539)"/>
<path style="fill-rule:evenodd;fill:rgb(68.627451%,68.627451%,68.627451%);fill-opacity:1;stroke-width:5.03546;stroke-linecap:butt;stroke-linejoin:miter;stroke:rgb(68.627451%,68.627451%,68.627451%);stroke-opacity:1;stroke-miterlimit:4;" d="M 431.518555 657.932655 L 349.344889 657.342648 L 350.118001 573.541379 Z M 431.518555 657.932655 " transform="matrix(0.192,0,0,0.192,0,-106.053539)"/>
<path style=" stroke:none;fill-rule:nonzero;fill:rgb(100%,40%,0%);fill-opacity:1;" d="M 12.125 12.445312 L 55.820312 12.445312 L 55.820312 28.640625 L 12.125 28.640625 Z M 12.125 12.445312 "/>
<path style="fill-rule:nonzero;fill:rgb(0%,73.333333%,94.901961%);fill-opacity:1;stroke-width:6.833039;stroke-linecap:round;stroke-linejoin:round;stroke:rgb(100%,100%,100%);stroke-opacity:1;stroke-miterlimit:4;" d="M 141.273619 807.744834 L 352.759303 807.729008 L 352.765923 983.444754 L 141.280511 983.440236 Z M 141.273619 807.744834 " transform="matrix(0.191983,-0.00257151,0.00257151,0.191983,0,-106.053539)"/>
<path style="fill-rule:nonzero;fill:rgb(100%,40%,0%);fill-opacity:1;stroke-width:6.833039;stroke-linecap:round;stroke-linejoin:round;stroke:rgb(100%,100%,100%);stroke-opacity:1;stroke-miterlimit:4;" d="M -269.540882 827.284051 L -58.039209 827.2637 L -58.048821 1002.961403 L -269.550494 1002.981754 Z M -269.540882 827.284051 " transform="matrix(0.171143,-0.0870285,0.0870285,0.171143,0,-106.053539)"/>
<path style=" stroke:none;fill-rule:nonzero;fill:rgb(98.039216%,92.54902%,42.745098%);fill-opacity:1;" d="M 41.742188 61.949219 C 42.757812 63.949219 41.933594 66.40625 39.898438 67.445312 C 37.863281 68.480469 35.386719 67.707031 34.367188 65.710938 C 33.34375 63.71875 34.164062 61.257812 36.199219 60.214844 C 38.234375 59.171875 40.707031 59.941406 41.734375 61.933594 "/>
<path style="fill-rule:nonzero;fill:rgb(50.196078%,20%,0%);fill-opacity:1;stroke-width:0.28471;stroke-linecap:butt;stroke-linejoin:miter;stroke:rgb(0%,0%,0%);stroke-opacity:1;stroke-miterlimit:4;" d="M 186.442057 953.770057 L 215.637207 1011.834836 L 398.55957 918.512082 L 373.657227 870.82328 C 373.657227 870.82328 352.518717 893.223182 328.715007 901.747759 C 304.911296 910.272336 256.266276 898.960487 231.933594 910.00785 C 207.600911 921.014523 186.442057 953.770057 186.442057 953.770057 Z M 186.442057 953.770057 " transform="matrix(0.192,0,0,0.192,0,-106.053539)"/>
</g>
</svg>
