<?xml version="1.0" encoding="UTF-8"?>
<svg xmlns="http://www.w3.org/2000/svg" xmlns:xlink="http://www.w3.org/1999/xlink" width="96" height="96" viewBox="0 0 96 96" version="1.1">
<g id="surface1">
<path style=" stroke:none;fill-rule:evenodd;fill:rgb(0%,52.941176%,73.72549%);fill-opacity:1;" d="M 12.132812 29.652344 L 22.351562 39.652344 L 22.03125 25.628906 L 12.125 25.582031 Z M 12.132812 29.652344 "/>
<path style="fill-rule:evenodd;fill:rgb(94.901961%,94.901961%,94.901961%);fill-opacity:1;stroke-width:5.03546;stroke-linecap:butt;stroke-linejoin:miter;stroke:rgb(68.627451%,68.627451%,68.627451%);stroke-opacity:1;stroke-miterlimit:4;" d="M 96.903483 1029.840207 L 433.797201 1028.660194 L 434.956868 664.768592 L 346.923828 575.575884 L 96.903483 575.575884 Z M 96.903483 1029.840207 " transform="matrix(0.192,0,0,0.192,0,-106.053539)"/>
<path style="fill-rule:evenodd;fill:rgb(68.627451%,68.627451%,68.627451%);fill-opacity:1;stroke-width:5.03546;stroke-linecap:butt;stroke-linejoin:miter;stroke:rgb(68.627451%,68.627451%,68.627451%);stroke-opacity:1;stroke-miterlimit:4;" d="M 431.376139 662.917193 L 349.202474 662.347531 L 349.975586 578.546262 Z M 431.376139 662.917193 " transform="matrix(0.192,0,0,0.192,0,-106.053539)"/>
<path style=" stroke:none;fill-rule:nonzero;fill:rgb(0%,73.333333%,94.901961%);fill-opacity:1;" d="M 12.097656 13.40625 L 54.554688 13.40625 L 54.554688 29.601562 L 12.097656 29.601562 Z M 12.097656 13.40625 "/>
<path style=" stroke:none;fill-rule:nonzero;fill:rgb(97.647059%,97.647059%,97.647059%);fill-opacity:1;" d="M 45.621094 48.652344 C 45.621094 50.308594 44.277344 51.648438 42.621094 51.648438 C 40.964844 51.648438 39.625 50.308594 39.625 48.652344 C 39.625 47 40.964844 45.652344 42.621094 45.652344 C 44.277344 45.652344 45.621094 47 45.621094 48.652344 M 45.621094 48.652344 "/>
<path style=" stroke:none;fill-rule:nonzero;fill:rgb(0%,73.333333%,94.901961%);fill-opacity:1;" d="M 49.605469 42.6875 C 47.628906 42.695312 45.738281 42.867188 44.074219 43.15625 C 39.175781 44.011719 38.285156 45.800781 38.285156 49.105469 L 38.285156 53.472656 L 49.859375 53.472656 L 49.859375 54.925781 L 33.945312 54.925781 C 30.574219 54.925781 27.632812 56.925781 26.710938 60.730469 C 25.648438 65.089844 25.59375 67.8125 26.710938 72.355469 C 27.53125 75.746094 29.492188 78.160156 32.855469 78.160156 L 36.261719 78.160156 L 36.261719 72.367188 C 36.261719 68.59375 39.574219 65.28125 43.503906 65.28125 L 55.621094 65.28125 C 58.835938 65.28125 61.882812 62.65625 61.882812 59.464844 L 61.882812 49.128906 C 61.882812 46.027344 58.765625 43.695312 55.621094 43.179688 C 53.636719 42.851562 51.574219 42.703125 49.597656 42.710938 M 43.34375 46.191406 C 44.539062 46.191406 45.515625 47.175781 45.515625 48.390625 C 45.515625 49.589844 44.539062 50.5625 43.34375 50.5625 C 42.140625 50.5625 41.164062 49.589844 41.164062 48.390625 C 41.164062 47.179688 42.132812 46.191406 43.34375 46.191406 M 43.34375 46.191406 "/>
<path style=" stroke:none;fill-rule:nonzero;fill:rgb(97.647059%,97.647059%,97.647059%);fill-opacity:1;" d="M 59.625 84.644531 C 59.625 86.300781 58.28125 87.640625 56.628906 87.640625 C 54.964844 87.640625 53.617188 86.300781 53.617188 84.644531 C 53.617188 82.984375 54.964844 81.644531 56.628906 81.644531 C 58.28125 81.644531 59.625 82.984375 59.625 84.644531 M 59.625 84.644531 "/>
<path style=" stroke:none;fill-rule:nonzero;fill:rgb(100%,83.137255%,16.470588%);fill-opacity:1;" d="M 63.53125 54.921875 L 63.53125 60.007812 C 63.53125 63.941406 60.148438 66.796875 56.300781 66.796875 L 43.597656 66.796875 C 40.4375 66.796875 37.8125 69.953125 37.8125 73.082031 L 37.8125 83.988281 C 37.8125 87.085938 40.535156 88.90625 43.597656 89.796875 C 47.261719 90.859375 51.25 91.0625 55.632812 89.796875 C 58.546875 88.960938 61.421875 87.28125 61.421875 83.988281 L 61.421875 79.621094 L 49.863281 79.621094 L 49.863281 78.167969 L 67.21875 78.167969 C 70.578125 78.167969 71.835938 75.839844 73.007812 72.363281 C 74.21875 68.78125 74.15625 65.324219 73.007812 60.734375 C 72.171875 57.414062 70.585938 54.929688 67.21875 54.929688 M 56.371094 82.535156 C 57.566406 82.535156 58.539062 83.503906 58.539062 84.707031 C 58.539062 85.910156 57.574219 86.902344 56.371094 86.902344 C 55.164062 86.902344 54.191406 85.910156 54.191406 84.707031 C 54.191406 83.503906 55.164062 82.535156 56.371094 82.535156 M 56.371094 82.535156 "/>
<path style="fill:none;stroke-width:9.063828;stroke-linecap:butt;stroke-linejoin:miter;stroke:rgb(100%,100%,100%);stroke-opacity:1;stroke-miterlimit:4;" d="M 162.679036 695.896522 L 162.679036 639.459348 C 162.679036 639.459348 193.481445 633.518592 193.37972 653.782264 C 193.25765 674.045936 163.289388 668.512082 163.289388 668.512082 " transform="matrix(0.192,0,0,0.192,0,-106.053539)"/>
<path style="fill:none;stroke-width:9;stroke-linecap:butt;stroke-linejoin:miter;stroke:rgb(100%,100%,100%);stroke-opacity:1;stroke-miterlimit:4;" d="M 516.192096 313.176493 L 536.638874 342.473368 L 556.353229 313.176493 " transform="matrix(0.192,0,0,0.192,-59.608882,-44.153324)"/>
<path style="fill:none;stroke-width:9;stroke-linecap:butt;stroke-linejoin:miter;stroke:rgb(100%,100%,100%);stroke-opacity:1;stroke-miterlimit:4;" d="M 536.618529 342.453023 L 536.394733 371.261617 " transform="matrix(0.192,0,0,0.192,-59.608882,-44.153324)"/>
</g>
</svg>
