<?xml version="1.0" encoding="UTF-8"?>
<svg xmlns="http://www.w3.org/2000/svg" xmlns:xlink="http://www.w3.org/1999/xlink" width="96" height="96" viewBox="0 0 96 96" version="1.1">
<g id="surface1">
<path style=" stroke:none;fill-rule:evenodd;fill:rgb(21.176471%,63.137255%,20.784314%);fill-opacity:1;" d="M 12.101562 29.539062 L 22.320312 39.542969 L 22 25.515625 L 12.097656 25.46875 Z M 12.101562 29.539062 "/>
<path style="fill-rule:evenodd;fill:rgb(94.901961%,94.901961%,94.901961%);fill-opacity:1;stroke-width:5.03546;stroke-linecap:butt;stroke-linejoin:miter;stroke:rgb(68.627451%,68.627451%,68.627451%);stroke-opacity:1;stroke-miterlimit:4;" d="M 97.045898 1029.840207 L 433.919271 1028.660194 L 435.099284 664.768592 L 347.066243 575.575884 L 97.045898 575.575884 Z M 97.045898 1029.840207 " transform="matrix(0.192,0,0,0.192,0,-106.053539)"/>
<path style="fill-rule:evenodd;fill:rgb(68.627451%,68.627451%,68.627451%);fill-opacity:1;stroke-width:5.03546;stroke-linecap:butt;stroke-linejoin:miter;stroke:rgb(68.627451%,68.627451%,68.627451%);stroke-opacity:1;stroke-miterlimit:4;" d="M 431.518555 662.917193 L 349.344889 662.347531 L 350.118001 578.546262 Z M 431.518555 662.917193 " transform="matrix(0.192,0,0,0.192,0,-106.053539)"/>
<path style=" stroke:none;fill-rule:nonzero;fill:rgb(27.058824%,81.568627%,24.705882%);fill-opacity:1;" d="M 12.125 13.40625 L 55.308594 13.40625 L 55.308594 29.601562 L 12.125 29.601562 Z M 12.125 13.40625 "/>
<path style="fill:none;stroke-width:16.988342;stroke-linecap:butt;stroke-linejoin:miter;stroke:rgb(27.058824%,81.568627%,24.705882%);stroke-opacity:1;stroke-miterlimit:4;" d="M 144.816081 917.962766 C 144.816081 917.962766 148.681641 878.106809 187.45931 878.75785 C 216.796875 879.246132 229.207357 905.796424 229.838053 920.383827 C 230.50944 934.991574 220.214844 962.47774 190.287272 963.779823 C 160.359701 965.102251 145.853678 943.719602 145.060221 917.759315 C 144.266764 891.778684 144.999186 874.159868 144.999186 874.159868 L 143.697103 1029.453651 " transform="matrix(0.192,0,0,0.192,0,-106.053539)"/>
<path style="fill:none;stroke-width:9.063828;stroke-linecap:butt;stroke-linejoin:miter;stroke:rgb(100%,100%,100%);stroke-opacity:1;stroke-miterlimit:4;" d="M 137.329102 694.533404 L 137.329102 638.096229 C 137.329102 638.096229 168.151855 632.155474 168.05013 652.419146 C 167.92806 672.682818 137.959798 667.148964 137.959798 667.148964 " transform="matrix(0.192,0,0,0.192,0,-106.053539)"/>
</g>
</svg>
