<?xml version="1.0" encoding="UTF-8"?>
<svg xmlns="http://www.w3.org/2000/svg" xmlns:xlink="http://www.w3.org/1999/xlink" width="96" height="96" viewBox="0 0 96 96" version="1.1">
<g id="surface1">
<path style=" stroke:none;fill-rule:evenodd;fill:rgb(0%,56.078431%,81.176471%);fill-opacity:1;" d="M 12.101562 29.539062 L 22.320312 39.542969 L 22 25.515625 L 12.097656 25.46875 Z M 12.101562 29.539062 "/>
<path style="fill-rule:evenodd;fill:rgb(94.901961%,94.901961%,94.901961%);fill-opacity:1;stroke-width:5.03546;stroke-linecap:butt;stroke-linejoin:miter;stroke:rgb(68.627451%,68.627451%,68.627451%);stroke-opacity:1;stroke-miterlimit:4;" d="M 97.045898 1029.840207 L 433.919271 1028.660194 L 435.099284 664.768592 L 347.066243 575.575884 L 97.045898 575.575884 Z M 97.045898 1029.840207 " transform="matrix(0.192,0,0,0.192,0,-106.053539)"/>
<path style="fill-rule:evenodd;fill:rgb(68.627451%,68.627451%,68.627451%);fill-opacity:1;stroke-width:5.03546;stroke-linecap:butt;stroke-linejoin:miter;stroke:rgb(68.627451%,68.627451%,68.627451%);stroke-opacity:1;stroke-miterlimit:4;" d="M 431.518555 662.917193 L 349.344889 662.347531 L 350.118001 578.546262 Z M 431.518555 662.917193 " transform="matrix(0.192,0,0,0.192,0,-106.053539)"/>
<path style=" stroke:none;fill-rule:nonzero;fill:rgb(0%,73.333333%,94.901961%);fill-opacity:1;" d="M 12.125 13.40625 L 65.042969 13.40625 L 65.042969 29.601562 L 12.125 29.601562 Z M 12.125 13.40625 "/>
<path style=" stroke:none;fill-rule:nonzero;fill:rgb(0%,73.333333%,94.901961%);fill-opacity:1;" d="M 60.367188 70.894531 C 64.816406 65.957031 67.957031 62.335938 67.867188 62.25 C 67.789062 62.171875 65.882812 62.082031 63.636719 62.058594 L 59.546875 62.011719 L 59.464844 53.160156 L 59.378906 44.304688 L 45.511719 44.304688 L 45.429688 53.160156 L 45.34375 62.011719 L 41.167969 62.097656 C 38.457031 62.148438 36.992188 62.242188 36.992188 62.351562 C 36.992188 62.6875 52.1875 79.464844 52.457031 79.425781 C 52.601562 79.40625 56.164062 75.566406 60.367188 70.894531 Z M 60.367188 70.894531 "/>
<path style=" stroke:none;fill-rule:nonzero;fill:rgb(0%,73.333333%,94.901961%);fill-opacity:1;" d="M 28.164062 73.382812 L 36.441406 73.382812 L 36.441406 81.660156 L 67.890625 81.660156 L 67.890625 73.382812 L 76.164062 73.382812 L 76.164062 89.933594 L 28.164062 89.933594 Z M 28.164062 73.382812 "/>
<path style="fill:none;stroke-width:9;stroke-linecap:butt;stroke-linejoin:miter;stroke:rgb(100%,100%,100%);stroke-opacity:1;stroke-miterlimit:4;" d="M 133.350805 354.159965 L 133.280765 304.665297 " transform="matrix(0.167316,0,0,0.167316,-6.757036,-32.592566)"/>
<path style=" stroke:none;fill-rule:nonzero;fill:rgb(100%,100%,100%);fill-opacity:1;" d="M 14.828125 16.25 L 16.3125 16.25 L 16.3125 17.695312 L 14.828125 17.695312 Z M 14.828125 16.25 "/>
<path style="fill:none;stroke-width:7.842927;stroke-linecap:butt;stroke-linejoin:bevel;stroke:rgb(100%,100%,100%);stroke-opacity:1;stroke-miterlimit:4;" d="M 93.343099 691.0544 L 93.159993 637.892779 L 129.801432 690.321978 L 129.801432 637.160357 " transform="matrix(0.192,0,0,0.192,0,-106.053539)"/>
<path style="fill:none;stroke-width:8.714363;stroke-linecap:butt;stroke-linejoin:miter;stroke:rgb(100%,100%,100%);stroke-opacity:1;stroke-miterlimit:4;" d="M 171.813965 645.542518 C 171.813965 645.542518 163.736979 641.819374 156.066895 641.737993 C 148.39681 641.656613 143.636068 646.295285 143.371582 652.927772 C 143.107096 659.519569 146.809896 664.809283 159.99349 666.375852 C 173.217773 667.922076 172.424316 679.437375 170.817057 683.506385 C 169.169108 687.575396 161.478678 691.420611 153.666178 690.362668 C 145.853678 689.304725 139.302572 685.805376 139.302572 685.805376 " transform="matrix(0.192,0,0,0.192,0,-106.053539)"/>
<path style="fill:none;stroke-width:9;stroke-linecap:butt;stroke-linejoin:miter;stroke:rgb(100%,100%,100%);stroke-opacity:1;stroke-miterlimit:4;" d="M 122.810504 699.606436 L 122.810504 642.337369 " transform="matrix(0.167316,0,0,0.167316,17.920588,-90.188163)"/>
<path style="fill:none;stroke-width:8.670217;stroke-linecap:butt;stroke-linejoin:miter;stroke:rgb(100%,100%,100%);stroke-opacity:1;stroke-miterlimit:4;" d="M 96.218793 642.73426 L 149.378868 642.73426 " transform="matrix(0.167316,0,0,0.167316,17.920588,-90.188163)"/>
<path style="fill:none;stroke-width:9;stroke-linecap:butt;stroke-linejoin:bevel;stroke:rgb(100%,100%,100%);stroke-opacity:1;stroke-miterlimit:4;" d="M 915.685687 696.270747 L 937.824639 637.990825 L 960.566327 696.270747 " transform="matrix(0.168502,0,0,0.168502,-112.49064,-90.667112)"/>
<path style="fill:none;stroke-width:9;stroke-linecap:butt;stroke-linejoin:miter;stroke:rgb(100%,100%,100%);stroke-opacity:1;stroke-miterlimit:4;" d="M 924.587632 676.751378 L 950.366182 676.751378 " transform="matrix(0.168502,0,0,0.168502,-112.49064,-90.667112)"/>
<path style="fill:none;stroke-width:7.842927;stroke-linecap:butt;stroke-linejoin:miter;stroke:rgb(100%,100%,100%);stroke-opacity:1;stroke-miterlimit:4;" d="M 267.537435 639.805214 L 267.801921 687.290565 L 295.491536 687.555051 " transform="matrix(0.192,0,0,0.192,0,-106.053539)"/>
<path style="fill:none;stroke-width:7.842927;stroke-linecap:butt;stroke-linejoin:miter;stroke:rgb(100%,100%,100%);stroke-opacity:1;stroke-miterlimit:4;" d="M 302.59196 640.842811 L 302.856445 688.307818 L 330.525716 688.572303 " transform="matrix(0.192,0,0,0.192,0,-106.053539)"/>
</g>
</svg>
