<?xml version="1.0" encoding="UTF-8"?>
<svg xmlns="http://www.w3.org/2000/svg" xmlns:xlink="http://www.w3.org/1999/xlink" width="96" height="96" viewBox="0 0 96 96" version="1.1">
<g id="surface1">
<path style=" stroke:none;fill-rule:evenodd;fill:rgb(10.196078%,10.196078%,10.196078%);fill-opacity:1;" d="M 12.15625 29.652344 L 22.375 39.652344 L 22.0625 25.628906 L 12.152344 25.582031 Z M 12.15625 29.652344 "/>
<path style="fill-rule:evenodd;fill:rgb(94.901961%,94.901961%,94.901961%);fill-opacity:1;stroke-width:5.03546;stroke-linecap:butt;stroke-linejoin:miter;stroke:rgb(68.627451%,68.627451%,68.627451%);stroke-opacity:1;stroke-miterlimit:4;" d="M 97.045898 1029.840207 L 433.919271 1028.660194 L 435.099284 664.768592 L 347.066243 575.575884 L 97.045898 575.575884 Z M 97.045898 1029.840207 " transform="matrix(0.192,0,0,0.192,0,-106.053539)"/>
<path style="fill-rule:evenodd;fill:rgb(68.627451%,68.627451%,68.627451%);fill-opacity:1;stroke-width:5.03546;stroke-linecap:butt;stroke-linejoin:miter;stroke:rgb(68.627451%,68.627451%,68.627451%);stroke-opacity:1;stroke-miterlimit:4;" d="M 431.518555 662.917193 L 349.344889 662.347531 L 350.118001 578.546262 Z M 431.518555 662.917193 " transform="matrix(0.192,0,0,0.192,0,-106.053539)"/>
<path style=" stroke:none;fill-rule:nonzero;fill:rgb(22.352941%,25.098039%,31.372549%);fill-opacity:1;" d="M 12.125 13.40625 L 56.875 13.40625 L 56.875 29.601562 L 12.125 29.601562 Z M 12.125 13.40625 "/>
<path style=" stroke:none;fill-rule:nonzero;fill:rgb(22.352941%,25.098039%,31.372549%);fill-opacity:1;" d="M 48.867188 90.835938 C 48.445312 90.648438 48 90.167969 47.796875 89.691406 C 47.695312 89.445312 47.59375 88.496094 47.503906 86.980469 C 47.429688 85.703125 47.332031 84.550781 47.289062 84.425781 C 47.226562 84.257812 46.933594 84.101562 46.203125 83.847656 C 45.648438 83.65625 44.816406 83.304688 44.351562 83.070312 C 43.886719 82.835938 43.40625 82.644531 43.28125 82.644531 C 43.140625 82.644531 42.382812 83.265625 41.300781 84.257812 C 40.335938 85.140625 39.390625 85.949219 39.199219 86.042969 C 38.804688 86.246094 37.921875 86.28125 37.464844 86.109375 C 37.101562 85.972656 33.265625 82.191406 33.015625 81.730469 C 32.773438 81.265625 32.800781 80.40625 33.074219 79.878906 C 33.199219 79.644531 34.011719 78.679688 34.878906 77.738281 C 35.8125 76.726562 36.453125 75.941406 36.453125 75.8125 C 36.453125 75.695312 36.265625 75.21875 36.03125 74.75 C 35.796875 74.289062 35.449219 73.457031 35.257812 72.90625 C 35.066406 72.355469 34.828125 71.867188 34.730469 71.816406 C 34.636719 71.769531 33.507812 71.667969 32.226562 71.597656 C 30.734375 71.515625 29.734375 71.410156 29.445312 71.308594 C 28.890625 71.109375 28.253906 70.429688 28.164062 69.941406 C 28.125 69.746094 28.109375 68.285156 28.128906 66.695312 L 28.164062 63.804688 L 28.492188 63.390625 C 29.082031 62.65625 29.359375 62.582031 32.164062 62.40625 C 33.746094 62.3125 34.714844 62.207031 34.792969 62.125 C 34.863281 62.054688 35.101562 61.511719 35.320312 60.914062 C 35.542969 60.320312 35.890625 59.5 36.089844 59.101562 C 36.289062 58.703125 36.453125 58.28125 36.453125 58.175781 C 36.453125 58.070312 35.792969 57.25 34.980469 56.363281 C 34.167969 55.472656 33.390625 54.597656 33.253906 54.414062 C 32.871094 53.90625 32.738281 53.273438 32.890625 52.65625 C 33.007812 52.1875 33.21875 51.933594 34.980469 50.148438 C 36.0625 49.054688 37.125 48.066406 37.34375 47.953125 C 37.859375 47.6875 38.675781 47.683594 39.183594 47.945312 C 39.398438 48.050781 40.34375 48.847656 41.277344 49.703125 C 42.214844 50.5625 43.042969 51.304688 43.117188 51.347656 C 43.203125 51.394531 43.703125 51.21875 44.320312 50.925781 C 44.898438 50.652344 45.773438 50.289062 46.257812 50.128906 C 46.910156 49.910156 47.164062 49.765625 47.253906 49.574219 C 47.320312 49.433594 47.433594 48.265625 47.507812 46.984375 C 47.648438 44.523438 47.734375 44.132812 48.238281 43.601562 C 48.804688 43.011719 49.128906 42.960938 52.292969 43 L 55.171875 43.03125 L 55.621094 43.328125 C 56.394531 43.839844 56.488281 44.160156 56.671875 46.90625 C 56.757812 48.230469 56.855469 49.421875 56.886719 49.546875 C 56.929688 49.726562 57.167969 49.855469 57.9375 50.125 C 58.484375 50.3125 59.363281 50.6875 59.886719 50.949219 C 60.414062 51.214844 60.882812 51.429688 60.933594 51.429688 C 60.988281 51.429688 61.828125 50.695312 62.804688 49.796875 C 63.785156 48.898438 64.765625 48.070312 64.988281 47.957031 C 65.511719 47.679688 66.289062 47.683594 66.859375 47.960938 C 67.132812 48.09375 68.054688 48.929688 69.214844 50.101562 C 71.203125 52.109375 71.359375 52.339844 71.359375 53.25 C 71.359375 53.890625 71.074219 54.3125 69.367188 56.1875 C 68.433594 57.207031 67.675781 58.082031 67.675781 58.136719 C 67.675781 58.1875 67.917969 58.738281 68.214844 59.359375 C 68.511719 59.976562 68.863281 60.839844 69 61.28125 C 69.167969 61.828125 69.316406 62.109375 69.460938 62.171875 C 69.582031 62.222656 70.78125 62.332031 72.125 62.417969 C 74.796875 62.582031 75.226562 62.695312 75.675781 63.324219 C 76.097656 63.917969 76.148438 64.363281 76.109375 67.273438 L 76.074219 70.054688 L 75.75 70.519531 C 75.167969 71.347656 75.019531 71.390625 72.054688 71.582031 C 70.609375 71.679688 69.398438 71.78125 69.367188 71.8125 C 69.335938 71.84375 69.15625 72.308594 68.96875 72.839844 C 68.78125 73.375 68.40625 74.242188 68.144531 74.769531 C 67.878906 75.296875 67.679688 75.792969 67.695312 75.875 C 67.714844 75.953125 68.4375 76.789062 69.300781 77.734375 C 70.164062 78.671875 70.984375 79.660156 71.117188 79.925781 C 71.402344 80.488281 71.429688 81.082031 71.195312 81.644531 C 70.984375 82.140625 67.464844 85.71875 66.894531 86.015625 C 66.414062 86.265625 65.542969 86.289062 65.042969 86.070312 C 64.851562 85.988281 63.890625 85.183594 62.90625 84.285156 C 61.921875 83.382812 61.039062 82.644531 60.941406 82.644531 C 60.847656 82.644531 60.292969 82.867188 59.710938 83.140625 C 59.128906 83.414062 58.269531 83.761719 57.796875 83.917969 C 57.144531 84.132812 56.925781 84.253906 56.886719 84.425781 C 56.855469 84.550781 56.757812 85.738281 56.671875 87.0625 C 56.476562 89.984375 56.367188 90.300781 55.351562 90.816406 C 55.054688 90.96875 54.566406 90.992188 52.097656 90.988281 C 49.914062 90.984375 49.113281 90.949219 48.867188 90.835938 Z M 53.148438 77.875 C 55.769531 77.597656 57.960938 76.554688 59.824219 74.6875 C 61.246094 73.265625 62.160156 71.671875 62.710938 69.660156 C 63.058594 68.394531 63.058594 65.613281 62.710938 64.335938 C 61.652344 60.460938 58.878906 57.609375 55.046875 56.453125 C 54.152344 56.1875 53.910156 56.160156 52.175781 56.152344 C 50.511719 56.148438 50.160156 56.175781 49.355469 56.394531 C 45.320312 57.5 42.234375 60.738281 41.390625 64.761719 C 40.632812 68.375 41.742188 72.0625 44.382812 74.71875 C 45.761719 76.105469 47.554688 77.125 49.496094 77.625 C 50.050781 77.769531 50.839844 77.875 51.957031 77.96875 C 52.046875 77.976562 52.582031 77.933594 53.148438 77.875 Z M 50.460938 73.328125 C 47.699219 72.578125 45.761719 70.226562 45.59375 67.410156 C 45.472656 65.4375 46.109375 63.769531 47.503906 62.375 C 50.054688 59.835938 54.128906 59.8125 56.644531 62.320312 C 58.71875 64.386719 59.21875 67.328125 57.929688 69.910156 C 56.832031 72.109375 54.8125 73.40625 52.335938 73.503906 C 51.492188 73.535156 51.074219 73.496094 50.460938 73.328125 Z M 53.554688 70.597656 C 54.316406 70.3125 55.226562 69.464844 55.609375 68.683594 C 56.078125 67.503906 56.042969 66.144531 55.539062 65.214844 C 54.828125 63.902344 53.773438 63.238281 52.28125 63.160156 C 51.085938 63.101562 50.367188 63.355469 49.5 64.144531 C 48.40625 65.148438 47.96875 66.542969 48.320312 67.914062 C 48.625 69.109375 49.269531 69.917969 50.359375 70.46875 C 51.371094 70.980469 52.414062 71.019531 53.554688 70.597656 Z M 53.554688 70.597656 "/>
<path style="fill:none;stroke-width:9;stroke-linecap:butt;stroke-linejoin:miter;stroke:rgb(100%,100%,100%);stroke-opacity:1;stroke-miterlimit:4;" d="M 132.059733 692.98718 L 132.344564 638.42175 L 137.390137 638.218299 L 153.279622 679.518755 L 156.616211 679.518755 L 172.566732 638.218299 L 177.8361 638.136919 L 177.8361 693.14994 " transform="matrix(0.192,0,0,0.192,0,-106.053539)"/>
<path style="fill:none;stroke-width:9;stroke-linecap:butt;stroke-linejoin:bevel;stroke:rgb(100%,100%,100%);stroke-opacity:1;stroke-miterlimit:4;" d="M 915.686996 696.287706 L 937.848312 638.005669 L 960.575276 696.287706 " transform="matrix(0.193362,0,0,0.193362,-140.570788,-107.690271)"/>
<path style="fill:none;stroke-width:9;stroke-linecap:butt;stroke-linejoin:miter;stroke:rgb(100%,100%,100%);stroke-opacity:1;stroke-miterlimit:4;" d="M 924.595966 676.752618 L 950.373394 676.752618 " transform="matrix(0.193362,0,0,0.193362,-140.570788,-107.690271)"/>
<path style="fill:none;stroke-width:9;stroke-linecap:butt;stroke-linejoin:miter;stroke:rgb(100%,100%,100%);stroke-opacity:1;stroke-miterlimit:4;" d="M 1024.656221 695.901891 L 1025.060256 635.943109 " transform="matrix(0.193362,0,0,0.193362,-150.301451,-107.3852)"/>
<path style="fill:none;stroke-width:9;stroke-linecap:butt;stroke-linejoin:round;stroke:rgb(100%,100%,100%);stroke-opacity:1;stroke-miterlimit:4;" d="M 1059.282014 636.569363 L 1031.24199 663.558896 L 1061.524408 694.669585 " transform="matrix(0.193362,0,0,0.193362,-150.301451,-107.3852)"/>
</g>
</svg>
