<?xml version="1.0" encoding="UTF-8"?>
<svg xmlns="http://www.w3.org/2000/svg" xmlns:xlink="http://www.w3.org/1999/xlink" width="96" height="96" viewBox="0 0 96 96" version="1.1">
<g id="surface1">
<path style=" stroke:none;fill-rule:evenodd;fill:rgb(9.803922%,7.843137%,23.529412%);fill-opacity:1;" d="M 12.101562 29.539062 L 22.320312 39.542969 L 22 25.515625 L 12.097656 25.46875 Z M 12.101562 29.539062 "/>
<path style="fill-rule:evenodd;fill:rgb(94.901961%,94.901961%,94.901961%);fill-opacity:1;stroke-width:5.03546;stroke-linecap:butt;stroke-linejoin:miter;stroke:rgb(68.627451%,68.627451%,68.627451%);stroke-opacity:1;stroke-miterlimit:4;" d="M 97.045898 1029.840207 L 433.919271 1028.660194 L 435.099284 664.768592 L 347.066243 575.575884 L 97.045898 575.575884 Z M 97.045898 1029.840207 " transform="matrix(0.192,0,0,0.192,0,-106.053539)"/>
<path style="fill-rule:evenodd;fill:rgb(68.627451%,68.627451%,68.627451%);fill-opacity:1;stroke-width:5.03546;stroke-linecap:butt;stroke-linejoin:miter;stroke:rgb(68.627451%,68.627451%,68.627451%);stroke-opacity:1;stroke-miterlimit:4;" d="M 431.518555 662.917193 L 349.344889 662.347531 L 350.118001 578.546262 Z M 431.518555 662.917193 " transform="matrix(0.192,0,0,0.192,0,-106.053539)"/>
<path style=" stroke:none;fill-rule:nonzero;fill:rgb(17.647059%,8.627451%,31.372549%);fill-opacity:1;" d="M 12.125 13.40625 L 55.308594 13.40625 L 55.308594 29.601562 L 12.125 29.601562 Z M 12.125 13.40625 "/>
<path style="fill-rule:nonzero;fill:rgb(17.647059%,8.627451%,31.372549%);fill-opacity:1;stroke-width:0.833333;stroke-linecap:butt;stroke-linejoin:miter;stroke:rgb(0%,0%,0%);stroke-opacity:1;stroke-miterlimit:4;" d="M 266.520182 1020.400103 C 163.89974 1018.040077 144.124349 993.687049 144.124349 993.687049 L 144.124349 805.739458 C 144.124349 805.739458 163.106283 782.200233 254.374186 778.538124 C 345.6014 774.876014 382.588704 805.251177 382.588704 805.251177 L 382.588704 988.844927 C 382.588704 988.844927 369.099935 1022.760129 266.520182 1020.400103 Z M 266.520182 1020.400103 " transform="matrix(0.192,0,0,0.192,0,-106.053539)"/>
<path style=" stroke:none;fill-rule:nonzero;fill:rgb(100%,100%,100%);fill-opacity:1;" d="M 50.886719 42.867188 C 37.628906 42.867188 26.886719 45.796875 26.886719 49.410156 L 26.886719 84.320312 C 26.886719 87.9375 37.628906 90.867188 50.886719 90.867188 C 64.140625 90.867188 74.886719 87.9375 74.886719 84.320312 L 74.886719 49.410156 C 74.886719 45.796875 64.140625 42.867188 50.886719 42.867188 Z M 50.886719 45.050781 C 62.9375 45.050781 72.703125 47 72.703125 49.410156 C 72.703125 51.824219 62.9375 53.773438 50.886719 53.773438 C 38.835938 53.773438 29.070312 51.824219 29.066406 49.410156 C 29.070312 47 38.835938 45.050781 50.886719 45.050781 Z M 29.066406 52.121094 C 32.960938 54.457031 41.488281 55.953125 50.886719 55.957031 C 60.285156 55.953125 68.8125 54.457031 72.703125 52.121094 L 72.703125 60.320312 C 72.703125 62.730469 62.9375 64.683594 50.886719 64.683594 C 38.835938 64.683594 29.066406 62.730469 29.066406 60.320312 Z M 29.066406 63.03125 C 32.960938 65.363281 41.488281 66.863281 50.886719 66.867188 C 60.285156 66.863281 68.8125 65.363281 72.703125 63.03125 L 72.703125 73.410156 C 72.703125 75.824219 62.9375 77.773438 50.886719 77.773438 C 38.835938 77.773438 29.070312 75.824219 29.066406 73.410156 Z M 29.066406 76.121094 C 32.960938 78.457031 41.488281 79.953125 50.886719 79.957031 C 60.285156 79.953125 68.8125 78.457031 72.703125 76.121094 L 72.703125 84.320312 C 72.703125 86.730469 62.9375 88.683594 50.886719 88.683594 C 38.835938 88.683594 29.066406 86.730469 29.066406 84.320312 Z M 29.066406 76.121094 "/>
<path style="fill:none;stroke-width:10;stroke-linecap:butt;stroke-linejoin:miter;stroke:rgb(100%,100%,100%);stroke-opacity:1;stroke-miterlimit:4;" d="M 162.272135 639.723833 C 162.272135 639.723833 152.994792 635.451372 144.205729 635.349647 C 135.396322 635.247922 129.923503 640.578326 129.618327 648.16703 C 129.333496 655.755734 133.565267 661.81856 148.701986 663.608924 C 163.879395 665.399289 162.963867 678.603228 161.112467 683.28259 C 159.220378 687.941607 150.41097 692.356483 141.438802 691.156125 C 132.446289 689.955767 124.95931 685.907102 124.95931 685.907102 " transform="matrix(0.192,0,0,0.192,0,-106.053539)"/>
<path style="fill:none;stroke-width:9;stroke-linecap:butt;stroke-linejoin:miter;stroke:rgb(100%,100%,100%);stroke-opacity:1;stroke-miterlimit:4;" d="M 232.226924 651.43254 C 220.182654 651.330815 208.85046 639.245854 208.789424 623.946375 C 208.728389 608.646896 220.793005 596.358484 232.939001 596.70435 C 245.084997 597.029871 255.664424 608.606206 255.88822 624.902592 C 256.071326 641.178634 244.25085 651.534266 232.226924 651.43254 Z M 232.226924 651.43254 " transform="matrix(0.192,0,0,0.192,-6.763351,-98.399267)"/>
<path style="fill:none;stroke-width:9;stroke-linecap:butt;stroke-linejoin:miter;stroke:rgb(100%,100%,100%);stroke-opacity:1;stroke-miterlimit:4;" d="M 240.405635 633.650965 C 240.405635 633.650965 243.96602 643.253829 247.99434 646.793868 C 252.002315 650.333908 263.639685 653.344975 263.639685 653.344975 " transform="matrix(0.192,0,0,0.192,-6.763351,-98.399267)"/>
<path style="fill:none;stroke-width:9;stroke-linecap:butt;stroke-linejoin:miter;stroke:rgb(100%,100%,100%);stroke-opacity:1;stroke-miterlimit:4;" d="M 240.29541 633.437212 L 240.580241 687.921262 L 272.359212 688.206092 " transform="matrix(0.192,0,0,0.192,0,-106.053539)"/>
</g>
</svg>
