<?xml version="1.0" encoding="UTF-8"?>
<svg xmlns="http://www.w3.org/2000/svg" xmlns:xlink="http://www.w3.org/1999/xlink" width="96" height="96" viewBox="0 0 96 96" version="1.1">
<g id="surface1">
<path style=" stroke:none;fill-rule:evenodd;fill:rgb(10.196078%,10.196078%,10.196078%);fill-opacity:1;" d="M 12.132812 29.652344 L 22.351562 39.652344 L 22.03125 25.628906 L 12.125 25.582031 Z M 12.132812 29.652344 "/>
<path style="fill-rule:evenodd;fill:rgb(94.901961%,94.901961%,94.901961%);fill-opacity:1;stroke-width:5.03546;stroke-linecap:butt;stroke-linejoin:miter;stroke:rgb(68.627451%,68.627451%,68.627451%);stroke-opacity:1;stroke-miterlimit:4;" d="M 96.903483 1029.840207 L 433.797201 1028.660194 L 434.956868 664.768592 L 346.923828 575.575884 L 96.903483 575.575884 Z M 96.903483 1029.840207 " transform="matrix(0.192,0,0,0.192,0,-106.053539)"/>
<path style="fill-rule:evenodd;fill:rgb(68.627451%,68.627451%,68.627451%);fill-opacity:1;stroke-width:5.03546;stroke-linecap:butt;stroke-linejoin:miter;stroke:rgb(68.627451%,68.627451%,68.627451%);stroke-opacity:1;stroke-miterlimit:4;" d="M 431.376139 662.917193 L 349.202474 662.347531 L 349.975586 578.546262 Z M 431.376139 662.917193 " transform="matrix(0.192,0,0,0.192,0,-106.053539)"/>
<path style=" stroke:none;fill-rule:nonzero;fill:rgb(22.352941%,25.098039%,31.372549%);fill-opacity:1;" d="M 12.097656 13.40625 L 56.851562 13.40625 L 56.851562 29.601562 L 12.097656 29.601562 Z M 12.097656 13.40625 "/>
<path style="fill-rule:nonzero;fill:rgb(98.039216%,92.54902%,42.745098%);fill-opacity:1;stroke-width:13.157895;stroke-linecap:butt;stroke-linejoin:miter;stroke:rgb(22.352941%,25.098039%,31.372549%);stroke-opacity:1;stroke-miterlimit:4;" d="M 380.228678 902.358111 C 380.228678 967.747108 327.229818 1020.766314 261.820475 1020.766314 C 196.431478 1020.786659 143.412272 967.787798 143.391927 902.378456 C 143.391927 836.989458 196.370443 783.949908 261.779785 783.949908 C 327.168783 783.929562 380.208333 836.928423 380.228678 902.317421 " transform="matrix(0.192,0,0,0.192,0,-106.053539)"/>
<path style=" stroke:none;fill-rule:nonzero;fill:rgb(22.352941%,25.098039%,31.372549%);fill-opacity:1;" d="M 43.65625 63.878906 L 54.269531 63.847656 L 54.34375 78.015625 C 54.34375 78.015625 54.316406 78.378906 54.59375 78.679688 C 54.863281 78.976562 55.136719 78.988281 55.136719 78.988281 L 57.503906 79 L 57.523438 80.71875 L 44.042969 80.6875 L 44.023438 78.941406 L 46.777344 78.953125 C 46.777344 78.953125 47.164062 78.90625 47.382812 78.59375 C 47.597656 78.28125 47.546875 77.9375 47.546875 77.9375 L 47.535156 66.488281 C 47.535156 66.488281 47.570312 66.203125 47.179688 65.867188 C 46.789062 65.535156 46.421875 65.570312 46.421875 65.570312 L 43.675781 65.535156 Z M 43.65625 63.878906 "/>
<path style=" stroke:none;fill-rule:nonzero;fill:rgb(22.352941%,25.098039%,31.372549%);fill-opacity:1;" d="M 54.367188 57.980469 C 54.367188 60.148438 52.644531 61.910156 50.519531 61.914062 C 48.390625 61.914062 46.664062 60.160156 46.65625 57.988281 C 46.65625 55.820312 48.375 54.058594 50.5 54.050781 C 52.628906 54.042969 54.359375 55.792969 54.367188 57.964844 "/>
<path style="fill:none;stroke-width:9;stroke-linecap:butt;stroke-linejoin:miter;stroke:rgb(100%,100%,100%);stroke-opacity:1;stroke-miterlimit:4;" d="M 122.791115 699.615409 L 122.791115 642.344087 " transform="matrix(0.192,0,0,0.192,0.369418,-106.357408)"/>
<path style="fill:none;stroke-width:8.670217;stroke-linecap:butt;stroke-linejoin:miter;stroke:rgb(100%,100%,100%);stroke-opacity:1;stroke-miterlimit:4;" d="M 96.220477 642.750988 L 149.382098 642.750988 " transform="matrix(0.192,0,0,0.192,0.369418,-106.357408)"/>
<path style="fill:none;stroke-width:9;stroke-linecap:butt;stroke-linejoin:miter;stroke:rgb(100%,100%,100%);stroke-opacity:1;stroke-miterlimit:4;" d="M 380.216138 670.728108 L 346.219556 670.300862 L 346.626457 618.58374 L 381.07063 618.726155 " transform="matrix(0.192,0,0,0.192,-34.993686,-101.994641)"/>
<path style="fill:none;stroke-width:9;stroke-linecap:butt;stroke-linejoin:miter;stroke:rgb(100%,100%,100%);stroke-opacity:1;stroke-miterlimit:4;" d="M 348.945793 642.367105 L 378.079908 642.509521 " transform="matrix(0.192,0,0,0.192,-34.993686,-101.994641)"/>
<path style="fill:none;stroke-width:9;stroke-linecap:butt;stroke-linejoin:miter;stroke:rgb(100%,100%,100%);stroke-opacity:1;stroke-miterlimit:4;" d="M 42.430913 990.886807 L 81.778243 1049.175382 " transform="matrix(0.192,0,0,0.192,32.43139,-174.386986)"/>
<path style="fill:none;stroke-width:9;stroke-linecap:butt;stroke-linejoin:miter;stroke:rgb(100%,100%,100%);stroke-opacity:1;stroke-miterlimit:4;" d="M 80.170984 990.886807 L 40.823654 1049.175382 " transform="matrix(0.192,0,0,0.192,32.43139,-174.386986)"/>
<path style="fill:none;stroke-width:9;stroke-linecap:butt;stroke-linejoin:miter;stroke:rgb(100%,100%,100%);stroke-opacity:1;stroke-miterlimit:4;" d="M 133.332327 354.150827 L 133.291637 304.67166 " transform="matrix(0.192,0,0,0.192,25.243943,-40.450084)"/>
<path style=" stroke:none;fill-rule:nonzero;fill:rgb(100%,100%,100%);fill-opacity:1;" d="M 50.019531 15.59375 L 51.71875 15.59375 L 51.71875 17.257812 L 50.019531 17.257812 Z M 50.019531 15.59375 "/>
</g>
</svg>
