<?xml version="1.0" encoding="UTF-8"?>
<svg xmlns="http://www.w3.org/2000/svg" xmlns:xlink="http://www.w3.org/1999/xlink" width="96" height="96" viewBox="0 0 96 96" version="1.1">
<g id="surface1">
<path style=" stroke:none;fill-rule:evenodd;fill:rgb(0%,0%,0%);fill-opacity:1;" d="M 12.132812 29.652344 L 22.351562 39.652344 L 22.03125 25.628906 L 12.125 25.582031 Z M 12.132812 29.652344 "/>
<path style="fill-rule:evenodd;fill:rgb(94.901961%,94.901961%,94.901961%);fill-opacity:1;stroke-width:5.03546;stroke-linecap:butt;stroke-linejoin:miter;stroke:rgb(68.627451%,68.627451%,68.627451%);stroke-opacity:1;stroke-miterlimit:4;" d="M 96.903483 1029.840207 L 433.797201 1028.660194 L 434.956868 664.768592 L 346.923828 575.575884 L 96.903483 575.575884 Z M 96.903483 1029.840207 " transform="matrix(0.192,0,0,0.192,0,-106.053539)"/>
<path style="fill-rule:evenodd;fill:rgb(68.627451%,68.627451%,68.627451%);fill-opacity:1;stroke-width:5.03546;stroke-linecap:butt;stroke-linejoin:miter;stroke:rgb(68.627451%,68.627451%,68.627451%);stroke-opacity:1;stroke-miterlimit:4;" d="M 431.376139 662.917193 L 349.202474 662.347531 L 349.975586 578.546262 Z M 431.376139 662.917193 " transform="matrix(0.192,0,0,0.192,0,-106.053539)"/>
<path style=" stroke:none;fill-rule:nonzero;fill:rgb(10.196078%,10.196078%,10.196078%);fill-opacity:1;" d="M 12.097656 13.40625 L 56.230469 13.40625 L 56.230469 29.601562 L 12.097656 29.601562 Z M 12.097656 13.40625 "/>
<path style=" stroke:none;fill-rule:nonzero;fill:rgb(100%,100%,100%);fill-opacity:1;" d="M 70.867188 80.589844 C 69.941406 80.378906 68.957031 80.242188 67.96875 80.242188 C 66.269531 80.242188 64.726562 80.539062 63.585938 81.011719 C 63.460938 81.074219 63.371094 81.207031 63.371094 81.355469 C 63.371094 81.410156 63.382812 81.464844 63.40625 81.511719 C 63.539062 81.902344 63.320312 82.320312 62.214844 82.566406 C 60.578125 82.925781 59.546875 84.613281 58.960938 85.171875 C 58.265625 85.832031 56.308594 86.234375 56.601562 85.839844 C 56.832031 85.535156 57.714844 84.578125 58.25 83.546875 C 58.730469 82.625 59.15625 82.359375 59.746094 81.472656 C 59.917969 81.21875 60.585938 80.308594 60.78125 79.589844 C 61 78.886719 60.925781 78.007812 61.011719 77.644531 C 61.128906 77.121094 61.625 75.988281 61.660156 75.34375 C 61.679688 74.984375 60.144531 75.863281 59.417969 75.863281 C 58.691406 75.863281 57.980469 75.425781 57.332031 75.398438 C 56.523438 75.359375 56.007812 76.019531 55.277344 75.902344 C 54.863281 75.835938 54.507812 75.472656 53.785156 75.445312 C 52.75 75.40625 51.484375 76.019531 49.109375 75.941406 C 46.773438 75.867188 44.613281 72.988281 44.320312 72.53125 C 43.976562 71.996094 43.554688 71.996094 43.09375 72.417969 C 42.632812 72.835938 42.0625 72.507812 41.90625 72.226562 C 41.597656 71.6875 40.777344 70.125 39.507812 69.792969 C 37.753906 69.339844 36.863281 70.765625 36.980469 71.898438 C 37.097656 73.050781 37.84375 73.375 38.1875 73.988281 C 38.53125 74.597656 38.710938 74.996094 39.359375 75.265625 C 39.816406 75.460938 39.988281 75.742188 39.851562 76.117188 C 39.734375 76.445312 39.253906 76.523438 38.9375 76.539062 C 38.269531 76.570312 37.800781 76.386719 37.460938 76.171875 C 37.0625 75.917969 36.734375 75.566406 36.390625 74.96875 C 35.988281 74.308594 35.355469 74.019531 34.621094 74.019531 C 34.269531 74.019531 33.941406 74.113281 33.648438 74.261719 C 32.492188 74.863281 31.117188 75.21875 29.640625 75.21875 L 27.96875 75.222656 C 31.167969 84.707031 40.144531 91.539062 50.71875 91.539062 C 59.160156 91.539062 66.589844 87.179688 70.867188 80.589844 "/>
<path style=" stroke:none;fill-rule:nonzero;fill:rgb(0%,0%,0%);fill-opacity:1;" d="M 70.867188 80.59375 C 69.941406 80.378906 68.957031 80.242188 67.96875 80.242188 C 66.269531 80.242188 64.726562 80.539062 63.585938 81.015625 C 63.460938 81.078125 63.371094 81.207031 63.371094 81.355469 C 63.371094 81.410156 63.382812 81.46875 63.40625 81.511719 C 63.539062 81.902344 63.320312 82.328125 62.214844 82.570312 C 60.578125 82.925781 59.546875 84.613281 58.960938 85.171875 C 58.265625 85.832031 56.308594 86.234375 56.601562 85.84375 C 56.832031 85.535156 57.714844 84.578125 58.25 83.546875 C 58.730469 82.625 59.15625 82.359375 59.746094 81.476562 C 59.917969 81.21875 60.585938 80.308594 60.78125 79.589844 C 61 78.886719 60.925781 78.007812 61.011719 77.644531 C 61.128906 77.125 61.625 75.988281 61.660156 75.347656 C 61.679688 74.984375 60.144531 75.863281 59.417969 75.863281 C 58.691406 75.863281 57.980469 75.429688 57.332031 75.402344 C 56.523438 75.359375 56.007812 76.019531 55.277344 75.902344 C 54.863281 75.835938 54.507812 75.472656 53.785156 75.445312 C 52.75 75.40625 51.484375 76.019531 49.109375 75.941406 C 46.773438 75.867188 44.613281 72.992188 44.320312 72.535156 C 43.976562 71.996094 43.554688 71.996094 43.09375 72.417969 C 42.632812 72.835938 42.0625 72.507812 41.90625 72.226562 C 41.597656 71.6875 40.777344 70.125 39.507812 69.792969 C 37.753906 69.339844 36.863281 70.765625 36.980469 71.898438 C 37.097656 73.050781 37.84375 73.375 38.1875 73.988281 C 38.53125 74.597656 38.710938 74.996094 39.359375 75.269531 C 39.816406 75.460938 39.988281 75.742188 39.851562 76.117188 C 39.734375 76.449219 39.253906 76.527344 38.9375 76.539062 C 38.269531 76.570312 37.800781 76.390625 37.460938 76.167969 C 37.0625 75.917969 36.734375 75.566406 36.390625 74.96875 C 35.988281 74.308594 35.355469 74.019531 34.621094 74.019531 C 34.269531 74.019531 33.941406 74.113281 33.648438 74.261719 C 32.492188 74.863281 31.117188 75.222656 29.640625 75.222656 L 27.96875 75.222656 C 27.15625 72.8125 26.71875 70.234375 26.71875 67.554688 C 26.71875 54.304688 37.460938 43.566406 50.71875 43.566406 C 63.972656 43.566406 74.71875 54.304688 74.71875 67.554688 C 74.71875 72.363281 73.304688 76.835938 70.867188 80.59375 "/>
<path style=" stroke:none;fill-rule:nonzero;fill:rgb(0%,0%,0%);fill-opacity:1;" d="M 56.003906 78.390625 C 56.125 78.511719 56.339844 78.917969 56.078125 79.433594 C 55.933594 79.703125 55.773438 79.894531 55.496094 80.117188 C 55.15625 80.390625 54.5 80.703125 53.59375 80.125 C 53.105469 79.820312 53.078125 79.71875 52.40625 79.804688 C 51.925781 79.867188 51.734375 79.378906 51.90625 78.976562 C 52.082031 78.578125 52.785156 78.25 53.667969 78.765625 C 54.066406 79 54.6875 79.492188 55.222656 79.058594 C 55.449219 78.878906 55.585938 78.757812 55.894531 78.398438 C 55.910156 78.382812 55.929688 78.375 55.953125 78.375 C 55.972656 78.375 55.988281 78.378906 56.003906 78.390625 "/>
<path style=" stroke:none;fill-rule:nonzero;fill:rgb(94.117647%,22.352941%,8.627451%);fill-opacity:1;" d="M 48.847656 54.988281 C 46.078125 55.1875 45.789062 55.488281 45.273438 56.039062 C 44.539062 56.820312 43.574219 55.03125 43.574219 55.03125 C 42.992188 54.90625 42.292969 53.976562 42.671875 53.105469 C 43.046875 52.246094 43.734375 52.503906 43.949219 52.769531 C 44.210938 53.097656 44.773438 53.628906 45.5 53.609375 C 46.226562 53.59375 47.070312 53.441406 48.238281 53.441406 C 49.425781 53.441406 50.21875 53.882812 50.265625 54.261719 C 50.304688 54.585938 50.171875 54.894531 48.847656 54.988281 M 51.761719 50.410156 L 51.75 50.410156 C 51.707031 50.410156 51.671875 50.378906 51.671875 50.339844 C 51.671875 50.3125 51.691406 50.285156 51.71875 50.273438 C 52.253906 49.988281 53.054688 49.761719 53.972656 49.671875 C 54.25 49.644531 54.519531 49.625 54.777344 49.625 L 54.914062 49.625 C 56.453125 49.660156 57.683594 50.273438 57.664062 50.992188 C 57.648438 51.707031 56.386719 52.265625 54.847656 52.230469 C 54.347656 52.21875 53.882812 52.148438 53.480469 52.03125 C 53.429688 52.019531 53.394531 51.976562 53.394531 51.929688 C 53.394531 51.882812 53.429688 51.839844 53.480469 51.828125 C 54.4375 51.605469 55.085938 51.242188 55.042969 50.898438 C 54.980469 50.445312 53.726562 50.199219 52.238281 50.347656 C 52.074219 50.367188 51.917969 50.386719 51.761719 50.410156 M 64.257812 61.171875 C 64.023438 61.96875 63.6875 62.988281 62.1875 63.757812 C 61.964844 63.871094 61.882812 63.6875 61.984375 63.515625 C 62.550781 62.546875 62.652344 62.308594 62.816406 61.929688 C 63.046875 61.371094 63.167969 60.578125 62.710938 58.933594 C 61.808594 55.6875 59.921875 51.34375 58.554688 49.9375 C 57.234375 48.578125 54.84375 48.199219 52.679688 48.753906 C 51.882812 48.957031 50.324219 49.765625 47.429688 49.117188 C 42.429688 47.992188 41.6875 50.492188 41.40625 51.582031 C 41.117188 52.671875 40.425781 55.773438 40.425781 55.773438 C 40.199219 57.039062 39.898438 59.230469 47.664062 60.710938 C 51.28125 61.398438 51.460938 62.335938 51.625 63.007812 C 51.914062 64.210938 52.371094 64.902344 52.890625 65.246094 C 53.40625 65.589844 52.890625 65.875 52.316406 65.933594 C 50.777344 66.09375 45.078125 64.460938 41.707031 62.546875 C 38.953125 60.863281 38.90625 59.347656 39.535156 58.0625 C 35.375 57.613281 32.246094 58.453125 31.679688 60.425781 C 30.710938 63.800781 39.121094 69.578125 48.695312 72.480469 C 58.75 75.519531 69.085938 73.398438 70.234375 67.082031 C 70.753906 64.210938 68.335938 62.09375 64.257812 61.171875 "/>
<path style="fill:none;stroke-width:10;stroke-linecap:butt;stroke-linejoin:miter;stroke:rgb(100%,100%,100%);stroke-opacity:1;stroke-miterlimit:4;" d="M 128.092448 640.598671 C 128.092448 640.598671 118.835449 636.32621 110.026042 636.224484 C 101.236979 636.143104 95.76416 641.453163 95.479329 649.041867 C 95.174154 656.630572 99.405924 662.713742 114.542643 664.504107 C 129.720052 666.274126 128.804525 679.49841 126.93278 684.177772 C 125.08138 688.816444 116.231283 693.23132 107.259115 692.030962 C 98.286947 690.830604 90.799967 686.781939 90.799967 686.781939 " transform="matrix(0.192,0,0,0.192,0,-106.053539)"/>
<path style="fill:none;stroke-width:9.063828;stroke-linecap:butt;stroke-linejoin:miter;stroke:rgb(100%,100%,100%);stroke-opacity:1;stroke-miterlimit:4;" d="M 143.168132 692.783729 L 143.168132 636.3669 C 143.168132 636.3669 173.990885 630.405799 173.868815 650.669471 C 173.76709 670.933143 143.778483 665.399289 143.778483 665.399289 " transform="matrix(0.192,0,0,0.192,0,-106.053539)"/>
<path style="fill:none;stroke-width:9;stroke-linecap:butt;stroke-linejoin:miter;stroke:rgb(100%,100%,100%);stroke-opacity:1;stroke-miterlimit:4;" d="M 380.206204 670.713348 L 346.209622 670.306447 L 346.616523 618.589324 L 381.060697 618.73174 " transform="matrix(0.192,0,0,0.192,-30.222247,-102.292588)"/>
<path style="fill:none;stroke-width:9;stroke-linecap:butt;stroke-linejoin:miter;stroke:rgb(100%,100%,100%);stroke-opacity:1;stroke-miterlimit:4;" d="M 348.956204 642.37269 L 378.090319 642.515105 " transform="matrix(0.192,0,0,0.192,-30.222247,-102.292588)"/>
<path style="fill:none;stroke-width:9;stroke-linecap:butt;stroke-linejoin:miter;stroke:rgb(100%,100%,100%);stroke-opacity:1;stroke-miterlimit:4;" d="M 277.099609 644.13871 C 277.099609 644.13871 269.470215 637.323117 255.594889 638.401405 C 241.678874 639.479693 233.805339 655.328488 234.53776 667.311724 C 235.290527 679.33565 245.829264 693.597531 259.399414 692.417518 C 272.989909 691.25785 277.099609 686.456418 277.099609 686.456418 " transform="matrix(0.192,0,0,0.192,0,-106.053539)"/>
</g>
</svg>
