<?xml version="1.0" encoding="UTF-8"?>
<svg xmlns="http://www.w3.org/2000/svg" xmlns:xlink="http://www.w3.org/1999/xlink" width="96" height="96" viewBox="0 0 96 96" version="1.1">
<g id="surface1">
<path style=" stroke:none;fill-rule:evenodd;fill:rgb(10.196078%,10.196078%,10.196078%);fill-opacity:1;" d="M 12.132812 29.652344 L 22.351562 39.652344 L 22.03125 25.628906 L 12.125 25.582031 Z M 12.132812 29.652344 "/>
<path style="fill-rule:evenodd;fill:rgb(94.901961%,94.901961%,94.901961%);fill-opacity:1;stroke-width:5.03546;stroke-linecap:butt;stroke-linejoin:miter;stroke:rgb(68.627451%,68.627451%,68.627451%);stroke-opacity:1;stroke-miterlimit:4;" d="M 96.903483 1029.840207 L 433.797201 1028.660194 L 434.956868 664.768592 L 346.923828 575.575884 L 96.903483 575.575884 Z M 96.903483 1029.840207 " transform="matrix(0.192,0,0,0.192,0,-106.053539)"/>
<path style="fill-rule:evenodd;fill:rgb(68.627451%,68.627451%,68.627451%);fill-opacity:1;stroke-width:5.03546;stroke-linecap:butt;stroke-linejoin:miter;stroke:rgb(68.627451%,68.627451%,68.627451%);stroke-opacity:1;stroke-miterlimit:4;" d="M 431.376139 662.917193 L 349.202474 662.347531 L 349.975586 578.546262 Z M 431.376139 662.917193 " transform="matrix(0.192,0,0,0.192,0,-106.053539)"/>
<path style=" stroke:none;fill-rule:nonzero;fill:rgb(22.352941%,25.098039%,31.372549%);fill-opacity:1;" d="M 12.097656 13.40625 L 64.285156 13.40625 L 64.285156 29.601562 L 12.097656 29.601562 Z M 12.097656 13.40625 "/>
<path style="fill-rule:nonzero;fill:rgb(98.039216%,92.54902%,42.745098%);fill-opacity:1;stroke-width:13.157895;stroke-linecap:butt;stroke-linejoin:miter;stroke:rgb(22.352941%,25.098039%,31.372549%);stroke-opacity:1;stroke-miterlimit:4;" d="M 380.228678 902.358111 C 380.228678 967.747108 327.229818 1020.766314 261.820475 1020.766314 C 196.431478 1020.786659 143.412272 967.787798 143.391927 902.378456 C 143.391927 836.989458 196.370443 783.949908 261.779785 783.949908 C 327.168783 783.929562 380.208333 836.928423 380.228678 902.317421 " transform="matrix(0.192,0,0,0.192,0,-106.053539)"/>
<path style=" stroke:none;fill-rule:nonzero;fill:rgb(22.352941%,25.098039%,31.372549%);fill-opacity:1;" d="M 43.65625 63.878906 L 54.269531 63.847656 L 54.34375 78.015625 C 54.34375 78.015625 54.316406 78.378906 54.59375 78.679688 C 54.863281 78.976562 55.136719 78.988281 55.136719 78.988281 L 57.503906 79 L 57.523438 80.71875 L 44.042969 80.6875 L 44.023438 78.941406 L 46.777344 78.953125 C 46.777344 78.953125 47.164062 78.90625 47.382812 78.59375 C 47.597656 78.28125 47.546875 77.9375 47.546875 77.9375 L 47.535156 66.488281 C 47.535156 66.488281 47.570312 66.203125 47.179688 65.867188 C 46.789062 65.535156 46.421875 65.570312 46.421875 65.570312 L 43.675781 65.535156 Z M 43.65625 63.878906 "/>
<path style=" stroke:none;fill-rule:nonzero;fill:rgb(22.352941%,25.098039%,31.372549%);fill-opacity:1;" d="M 54.367188 57.980469 C 54.367188 60.148438 52.644531 61.910156 50.519531 61.914062 C 48.390625 61.914062 46.664062 60.160156 46.65625 57.988281 C 46.65625 55.820312 48.375 54.058594 50.5 54.050781 C 52.628906 54.042969 54.359375 55.792969 54.367188 57.964844 "/>
<path style="fill:none;stroke-width:9.063828;stroke-linecap:butt;stroke-linejoin:miter;stroke:rgb(100%,100%,100%);stroke-opacity:1;stroke-miterlimit:4;" d="M 384.444779 735.911321 L 384.444779 679.481186 C 384.444779 679.481186 415.277244 673.526006 415.15718 693.792829 C 415.037116 714.059652 385.093125 708.536702 385.093125 708.536702 " transform="matrix(0.162673,0,0,0.162673,-48.070228,-93.572645)"/>
<path style="fill:none;stroke-width:9;stroke-linecap:butt;stroke-linejoin:miter;stroke:rgb(100%,100%,100%);stroke-opacity:1;stroke-miterlimit:4;" d="M 392.465062 710.457728 L 418.398911 734.926795 " transform="matrix(0.162673,0,0,0.162673,-48.070228,-93.572645)"/>
<path style="fill:none;stroke-width:9;stroke-linecap:butt;stroke-linejoin:miter;stroke:rgb(100%,100%,100%);stroke-opacity:1;stroke-miterlimit:4;" d="M 380.203475 670.715782 L 346.22533 670.307564 L 346.633548 618.583943 L 381.067937 618.72802 " transform="matrix(0.162673,0,0,0.162673,-34.165436,-83.834246)"/>
<path style="fill:none;stroke-width:9;stroke-linecap:butt;stroke-linejoin:miter;stroke:rgb(100%,100%,100%);stroke-opacity:1;stroke-miterlimit:4;" d="M 348.962792 642.380651 L 378.090347 642.524727 " transform="matrix(0.162673,0,0,0.162673,-34.165436,-83.834246)"/>
<path style="fill:none;stroke-width:9;stroke-linecap:butt;stroke-linejoin:bevel;stroke:rgb(100%,100%,100%);stroke-opacity:1;stroke-miterlimit:4;" d="M 915.700017 696.277921 L 937.827017 638.003797 L 960.573955 696.277921 " transform="matrix(0.163827,0,0,0.163827,-121.024199,-88.264435)"/>
<path style="fill:none;stroke-width:9;stroke-linecap:butt;stroke-linejoin:miter;stroke:rgb(100%,100%,100%);stroke-opacity:1;stroke-miterlimit:4;" d="M 924.593736 676.773734 L 950.36883 676.773734 " transform="matrix(0.163827,0,0,0.163827,-121.024199,-88.264435)"/>
<path style="fill:none;stroke-width:7.625316;stroke-linecap:butt;stroke-linejoin:miter;stroke:rgb(100%,100%,100%);stroke-opacity:1;stroke-miterlimit:4;" d="M 200.317383 683.892941 L 200.724284 639.744178 C 200.724284 639.744178 234.517415 634.841021 234.944661 662.225461 C 235.371908 689.630246 200.317383 683.892941 200.317383 683.892941 Z M 200.317383 683.892941 " transform="matrix(0.192,0,0,0.192,0,-106.053539)"/>
<path style="fill:none;stroke-width:7.625316;stroke-linecap:butt;stroke-linejoin:miter;stroke:rgb(100%,100%,100%);stroke-opacity:1;stroke-miterlimit:4;" d="M 245.727539 687.717811 L 245.97168 641.493853 L 250.223796 641.290402 L 263.69222 676.283892 L 266.520182 676.283892 L 280.049642 641.290402 L 284.484863 641.229367 L 284.484863 687.839882 " transform="matrix(0.192,0,0,0.192,0,-106.053539)"/>
<path style="fill:none;stroke-width:9;stroke-linecap:butt;stroke-linejoin:miter;stroke:rgb(100%,100%,100%);stroke-opacity:1;stroke-miterlimit:4;" d="M 380.200566 670.715782 L 346.222421 670.307564 L 346.630639 618.583943 L 381.08904 618.72802 " transform="matrix(0.162673,0,0,0.162673,0.827224,-83.834246)"/>
<path style="fill:none;stroke-width:9;stroke-linecap:butt;stroke-linejoin:miter;stroke:rgb(100%,100%,100%);stroke-opacity:1;stroke-miterlimit:4;" d="M 348.93587 642.380651 L 378.087437 642.524727 " transform="matrix(0.162673,0,0,0.162673,0.827224,-83.834246)"/>
</g>
</svg>
