<?xml version="1.0" encoding="UTF-8"?>
<svg xmlns="http://www.w3.org/2000/svg" xmlns:xlink="http://www.w3.org/1999/xlink" width="96" height="96" viewBox="0 0 96 96" version="1.1">
<g id="surface1">
<path style=" stroke:none;fill-rule:evenodd;fill:rgb(0%,11.372549%,39.215686%);fill-opacity:1;" d="M 12.101562 29.539062 L 22.320312 39.542969 L 22 25.515625 L 12.097656 25.46875 Z M 12.101562 29.539062 "/>
<path style="fill-rule:evenodd;fill:rgb(94.901961%,94.901961%,94.901961%);fill-opacity:1;stroke-width:5.03546;stroke-linecap:butt;stroke-linejoin:miter;stroke:rgb(68.627451%,68.627451%,68.627451%);stroke-opacity:1;stroke-miterlimit:4;" d="M 97.045898 1029.840207 L 433.919271 1028.660194 L 435.099284 664.768592 L 347.066243 575.575884 L 97.045898 575.575884 Z M 97.045898 1029.840207 " transform="matrix(0.192,0,0,0.192,0,-106.053539)"/>
<path style="fill-rule:evenodd;fill:rgb(68.627451%,68.627451%,68.627451%);fill-opacity:1;stroke-width:5.03546;stroke-linecap:butt;stroke-linejoin:miter;stroke:rgb(68.627451%,68.627451%,68.627451%);stroke-opacity:1;stroke-miterlimit:4;" d="M 431.518555 662.917193 L 349.344889 662.347531 L 350.118001 578.546262 Z M 431.518555 662.917193 " transform="matrix(0.192,0,0,0.192,0,-106.053539)"/>
<path style=" stroke:none;fill-rule:nonzero;fill:rgb(0%,30.196078%,54.509804%);fill-opacity:1;" d="M 12.125 13.40625 L 51.125 13.40625 L 51.125 29.601562 L 12.125 29.601562 Z M 12.125 13.40625 "/>
<path style=" stroke:none;fill-rule:nonzero;fill:rgb(0%,30.196078%,54.509804%);fill-opacity:1;" d="M 28.121094 46.296875 L 28.121094 91.179688 L 73.003906 91.179688 L 73.003906 46.296875 Z M 31.488281 49.664062 L 34.855469 49.664062 L 34.855469 53.03125 L 31.488281 53.03125 Z M 66.273438 49.664062 L 69.636719 49.664062 L 69.636719 53.03125 L 66.273438 53.03125 Z M 31.488281 58.082031 L 34.855469 58.082031 L 34.855469 61.445312 L 31.488281 61.445312 Z M 66.273438 58.082031 L 69.636719 58.082031 L 69.636719 61.445312 L 66.273438 61.445312 Z M 31.488281 67.058594 L 34.855469 67.058594 L 34.855469 70.421875 L 31.488281 70.421875 Z M 66.273438 67.058594 L 69.636719 67.058594 L 69.636719 70.421875 L 66.273438 70.421875 Z M 31.488281 76.035156 L 34.855469 76.035156 L 34.855469 79.398438 L 31.488281 79.398438 Z M 66.273438 76.035156 L 69.636719 76.035156 L 69.636719 79.398438 L 66.273438 79.398438 Z M 31.488281 84.449219 L 34.855469 84.449219 L 34.855469 87.8125 L 31.488281 87.8125 Z M 66.273438 84.449219 L 69.636719 84.449219 L 69.636719 87.8125 L 66.273438 87.8125 Z M 66.273438 84.449219 "/>
<path style=" stroke:none;fill-rule:nonzero;fill:rgb(40.784314%,91.764706%,100%);fill-opacity:1;" d="M 38.335938 49.75 L 63.023438 49.75 L 63.023438 67.140625 L 38.335938 67.140625 Z M 38.335938 49.75 "/>
<path style=" stroke:none;fill-rule:nonzero;fill:rgb(40.784314%,91.764706%,100%);fill-opacity:1;" d="M 38.21875 70.421875 L 62.90625 70.421875 L 62.90625 87.8125 L 38.21875 87.8125 Z M 38.21875 70.421875 "/>
<path style=" stroke:none;fill-rule:evenodd;fill:rgb(94.117647%,22.352941%,8.627451%);fill-opacity:0.941176;" d="M 47.492188 87.875 C 47.492188 87.875 48.039062 81.976562 52.515625 78.101562 C 56.988281 74.222656 62.96875 75.519531 62.96875 75.519531 L 62.910156 87.921875 Z M 47.492188 87.875 "/>
<path style=" stroke:none;fill-rule:evenodd;fill:rgb(94.117647%,22.352941%,8.627451%);fill-opacity:0.941176;" d="M 43.984375 49.683594 C 43.984375 49.683594 43.933594 51.425781 45.378906 53.1875 C 46.824219 54.949219 48.402344 55.242188 48.402344 55.242188 L 48.355469 59.136719 L 50.082031 59.136719 L 50.128906 55.25 C 50.128906 55.25 51.488281 55.113281 53.058594 53.476562 C 54.625 51.835938 54.5 49.632812 54.5 49.632812 Z M 43.984375 49.683594 "/>
<path style=" stroke:none;fill-rule:nonzero;fill:rgb(83.137255%,33.333333%,0%);fill-opacity:0.941176;" d="M 48.308594 59.65625 L 50.070312 59.65625 L 50.070312 61.011719 L 48.308594 61.011719 Z M 48.308594 59.65625 "/>
</g>
</svg>
