<?xml version="1.0" encoding="UTF-8"?>
<svg xmlns="http://www.w3.org/2000/svg" xmlns:xlink="http://www.w3.org/1999/xlink" width="96" height="96" viewBox="0 0 96 96" version="1.1">
<g id="surface1">
<path style=" stroke:none;fill-rule:evenodd;fill:rgb(84.705882%,14.901961%,0%);fill-opacity:1;" d="M 12.296875 28.578125 L 22.515625 38.582031 L 22.195312 24.554688 L 12.289062 24.507812 Z M 12.296875 28.578125 "/>
<path style="fill-rule:evenodd;fill:rgb(94.901961%,94.901961%,94.901961%);fill-opacity:1;stroke-width:5.03546;stroke-linecap:butt;stroke-linejoin:miter;stroke:rgb(68.627451%,68.627451%,68.627451%);stroke-opacity:1;stroke-miterlimit:4;" d="M 98.042806 1024.835324 L 434.936523 1023.655311 L 436.096191 659.76371 L 348.063151 570.571001 L 98.042806 570.571001 Z M 98.042806 1024.835324 " transform="matrix(0.192,0,0,0.192,0,-106.053539)"/>
<path style="fill-rule:evenodd;fill:rgb(68.627451%,68.627451%,68.627451%);fill-opacity:1;stroke-width:5.03546;stroke-linecap:butt;stroke-linejoin:miter;stroke:rgb(68.627451%,68.627451%,68.627451%);stroke-opacity:1;stroke-miterlimit:4;" d="M 432.535807 657.932655 L 350.362142 657.342648 L 351.114909 573.541379 Z M 432.535807 657.932655 " transform="matrix(0.192,0,0,0.192,0,-106.053539)"/>
<path style=" stroke:none;fill-rule:nonzero;fill:rgb(94.117647%,22.352941%,8.627451%);fill-opacity:1;" d="M 12.3125 12.445312 L 55.503906 12.445312 L 55.503906 28.640625 L 12.3125 28.640625 Z M 12.3125 12.445312 "/>
<path style=" stroke:none;fill-rule:nonzero;fill:rgb(94.117647%,22.352941%,8.627451%);fill-opacity:1;" d="M 51.0625 42.160156 C 64.316406 42.160156 75.0625 52.90625 75.0625 66.160156 C 75.0625 79.417969 64.316406 90.160156 51.0625 90.160156 C 37.804688 90.160156 27.0625 79.417969 27.0625 66.160156 C 27.0625 52.90625 37.804688 42.160156 51.0625 42.160156 Z M 51.0625 42.160156 "/>
<path style=" stroke:none;fill-rule:nonzero;fill:rgb(100%,100%,100%);fill-opacity:1;" d="M 59.699219 55.367188 L 59.699219 59.714844 C 55.363281 59.792969 54.296875 64.023438 54.296875 64.023438 L 57.566406 64.023438 L 57.566406 68.367188 L 52.492188 68.367188 C 49.445312 77.78125 42.421875 76.941406 42.421875 76.941406 L 42.421875 72.597656 C 42.421875 72.597656 46.878906 73.421875 49.148438 65.125 C 51.988281 54.746094 59.699219 55.367188 59.699219 55.367188 Z M 59.699219 55.367188 "/>
<path style="fill:none;stroke-width:9;stroke-linecap:butt;stroke-linejoin:miter;stroke:rgb(100%,100%,100%);stroke-opacity:1;stroke-miterlimit:4;" d="M 233.386758 692.506042 L 233.793659 640.809264 L 268.237832 640.931335 " transform="matrix(0.192,0,0,0.192,-20.271195,-107.207254)"/>
<path style="fill:none;stroke-width:9;stroke-linecap:butt;stroke-linejoin:miter;stroke:rgb(100%,100%,100%);stroke-opacity:1;stroke-miterlimit:4;" d="M 236.13334 664.572285 L 265.267454 664.714701 " transform="matrix(0.192,0,0,0.192,-20.271195,-107.207254)"/>
<path style="fill:none;stroke-width:9;stroke-linecap:butt;stroke-linejoin:miter;stroke:rgb(100%,100%,100%);stroke-opacity:1;stroke-miterlimit:4;" d="M 176.595052 629.612342 L 176.879883 684.096392 L 208.638509 684.381223 " transform="matrix(0.192,0,0,0.192,0,-106.053539)"/>
<path style="fill:none;stroke-width:9;stroke-linecap:butt;stroke-linejoin:bevel;stroke:rgb(100%,100%,100%);stroke-opacity:1;stroke-miterlimit:4;" d="M 209.248861 630.243039 L 236.124674 686.558143 L 262.166341 630.507525 " transform="matrix(0.192,0,0,0.192,0,-106.053539)"/>
</g>
</svg>
