<?xml version="1.0" encoding="UTF-8"?>
<svg xmlns="http://www.w3.org/2000/svg" xmlns:xlink="http://www.w3.org/1999/xlink" width="96" height="96" viewBox="0 0 96 96" version="1.1">
<g id="surface1">
<path style=" stroke:none;fill-rule:evenodd;fill:rgb(66.666667%,26.666667%,0%);fill-opacity:1;" d="M 12.101562 29.539062 L 22.320312 39.542969 L 22 25.515625 L 12.097656 25.46875 Z M 12.101562 29.539062 "/>
<path style="fill-rule:evenodd;fill:rgb(94.901961%,94.901961%,94.901961%);fill-opacity:1;stroke-width:5.03546;stroke-linecap:butt;stroke-linejoin:miter;stroke:rgb(68.627451%,68.627451%,68.627451%);stroke-opacity:1;stroke-miterlimit:4;" d="M 97.045898 1029.840207 L 433.919271 1028.660194 L 435.099284 664.768592 L 347.066243 575.575884 L 97.045898 575.575884 Z M 97.045898 1029.840207 " transform="matrix(0.192,0,0,0.192,0,-106.053539)"/>
<path style="fill-rule:evenodd;fill:rgb(68.627451%,68.627451%,68.627451%);fill-opacity:1;stroke-width:5.03546;stroke-linecap:butt;stroke-linejoin:miter;stroke:rgb(68.627451%,68.627451%,68.627451%);stroke-opacity:1;stroke-miterlimit:4;" d="M 431.518555 662.917193 L 349.344889 662.347531 L 350.118001 578.546262 Z M 431.518555 662.917193 " transform="matrix(0.192,0,0,0.192,0,-106.053539)"/>
<path style=" stroke:none;fill-rule:nonzero;fill:rgb(100%,40%,0%);fill-opacity:1;" d="M 12.125 13.40625 L 55.308594 13.40625 L 55.308594 29.601562 L 12.125 29.601562 Z M 12.125 13.40625 "/>
<path style=" stroke:none;fill-rule:nonzero;fill:rgb(100%,40%,0%);fill-opacity:1;" d="M 29.417969 47.113281 L 70.457031 47.113281 L 70.457031 49.472656 L 29.417969 49.472656 Z M 29.417969 47.113281 "/>
<path style=" stroke:none;fill-rule:nonzero;fill:rgb(100%,40%,0%);fill-opacity:1;" d="M 35.453125 52.050781 L 63.785156 52.050781 L 63.785156 54.414062 L 35.453125 54.414062 Z M 35.453125 52.050781 "/>
<path style=" stroke:none;fill-rule:nonzero;fill:rgb(100%,40%,0%);fill-opacity:1;" d="M 31.085938 62.191406 L 44.960938 62.191406 L 44.960938 64.550781 L 31.085938 64.550781 Z M 31.085938 62.191406 "/>
<path style=" stroke:none;fill-rule:nonzero;fill:rgb(100%,40%,0%);fill-opacity:1;" d="M 26.714844 62.191406 L 29.152344 62.191406 L 29.152344 64.550781 L 26.714844 64.550781 Z M 26.714844 62.191406 "/>
<path style=" stroke:none;fill-rule:nonzero;fill:rgb(100%,40%,0%);fill-opacity:1;" d="M 30.964844 66.179688 L 44.84375 66.179688 L 44.84375 68.535156 L 30.964844 68.535156 Z M 30.964844 66.179688 "/>
<path style=" stroke:none;fill-rule:nonzero;fill:rgb(100%,40%,0%);fill-opacity:1;" d="M 26.59375 66.179688 L 29.03125 66.179688 L 29.03125 68.535156 L 26.59375 68.535156 Z M 26.59375 66.179688 "/>
<path style=" stroke:none;fill-rule:nonzero;fill:rgb(100%,40%,0%);fill-opacity:1;" d="M 30.964844 70.25 L 44.84375 70.25 L 44.84375 72.613281 L 30.964844 72.613281 Z M 30.964844 70.25 "/>
<path style=" stroke:none;fill-rule:nonzero;fill:rgb(100%,40%,0%);fill-opacity:1;" d="M 26.59375 70.25 L 29.03125 70.25 L 29.03125 72.613281 L 26.59375 72.613281 Z M 26.59375 70.25 "/>
<path style=" stroke:none;fill-rule:nonzero;fill:rgb(100%,40%,0%);fill-opacity:1;" d="M 30.964844 74.582031 L 44.84375 74.582031 L 44.84375 76.945312 L 30.964844 76.945312 Z M 30.964844 74.582031 "/>
<path style=" stroke:none;fill-rule:nonzero;fill:rgb(100%,40%,0%);fill-opacity:1;" d="M 26.59375 74.582031 L 29.03125 74.582031 L 29.03125 76.945312 L 26.59375 76.945312 Z M 26.59375 74.582031 "/>
<path style=" stroke:none;fill-rule:nonzero;fill:rgb(100%,100%,100%);fill-opacity:1;" d="M 51.167969 60.132812 L 73 60.132812 L 73 78.273438 L 51.167969 78.273438 Z M 51.167969 60.132812 "/>
<path style=" stroke:none;fill-rule:nonzero;fill:rgb(100%,80%,0%);fill-opacity:1;" d="M 62.875 77.492188 L 61.148438 77.492188 C 60.910156 77.492188 60.71875 77.28125 60.71875 77.019531 L 60.71875 69.488281 C 60.71875 69.226562 60.910156 69.015625 61.148438 69.015625 L 62.875 69.015625 C 63.113281 69.015625 63.308594 69.226562 63.308594 69.488281 L 63.308594 77.019531 C 63.308594 77.28125 63.113281 77.492188 62.875 77.492188 Z M 62.875 77.492188 "/>
<path style=" stroke:none;fill-rule:nonzero;fill:rgb(94.117647%,22.352941%,8.627451%);fill-opacity:1;" d="M 58.988281 77.492188 L 57.261719 77.492188 C 57.027344 77.492188 56.832031 77.28125 56.832031 77.019531 L 56.832031 71.84375 C 56.832031 71.582031 57.027344 71.371094 57.261719 71.371094 L 58.988281 71.371094 C 59.230469 71.371094 59.421875 71.582031 59.421875 71.84375 L 59.421875 77.019531 C 59.421875 77.28125 59.230469 77.492188 58.988281 77.492188 Z M 58.988281 77.492188 "/>
<path style=" stroke:none;fill-rule:nonzero;fill:rgb(0%,26.666667%,33.333333%);fill-opacity:1;" d="M 55.105469 77.492188 L 53.378906 77.492188 C 53.140625 77.492188 52.949219 77.28125 52.949219 77.019531 L 52.949219 74.195312 C 52.949219 73.9375 53.140625 73.726562 53.378906 73.726562 L 55.105469 73.726562 C 55.34375 73.726562 55.539062 73.9375 55.539062 74.195312 L 55.539062 77.019531 C 55.539062 77.28125 55.34375 77.492188 55.105469 77.492188 Z M 55.105469 77.492188 "/>
<path style=" stroke:none;fill-rule:nonzero;fill:rgb(27.058824%,81.568627%,24.705882%);fill-opacity:1;" d="M 66.757812 77.492188 L 65.03125 77.492188 C 64.792969 77.492188 64.601562 77.28125 64.601562 77.019531 L 64.601562 71.84375 C 64.601562 71.582031 64.792969 71.371094 65.03125 71.371094 L 66.757812 71.371094 C 66.996094 71.371094 67.1875 71.582031 67.1875 71.84375 L 67.1875 77.019531 C 67.1875 77.28125 66.996094 77.492188 66.757812 77.492188 Z M 66.757812 77.492188 "/>
<path style=" stroke:none;fill-rule:nonzero;fill:rgb(0%,73.333333%,94.901961%);fill-opacity:1;" d="M 70.644531 77.492188 L 68.917969 77.492188 C 68.675781 77.492188 68.484375 77.28125 68.484375 77.019531 L 68.484375 66.660156 C 68.484375 66.40625 68.675781 66.191406 68.917969 66.191406 L 70.644531 66.191406 C 70.878906 66.191406 71.074219 66.40625 71.074219 66.660156 L 71.074219 77.019531 C 71.074219 77.28125 70.878906 77.492188 70.644531 77.492188 Z M 70.644531 77.492188 "/>
<path style=" stroke:none;fill-rule:nonzero;fill:rgb(22.352941%,25.098039%,31.372549%);fill-opacity:1;" d="M 71.9375 77.960938 L 52.082031 77.960938 C 51.847656 77.960938 51.652344 77.75 51.652344 77.492188 C 51.652344 77.230469 51.847656 77.019531 52.082031 77.019531 L 71.9375 77.019531 C 72.175781 77.019531 72.367188 77.230469 72.367188 77.492188 C 72.367188 77.75 72.175781 77.960938 71.9375 77.960938 Z M 71.9375 77.960938 "/>
<path style="fill:none;stroke-width:2.504357;stroke-linecap:butt;stroke-linejoin:miter;stroke:rgb(22.352941%,25.098039%,31.372549%);stroke-opacity:1;stroke-miterlimit:4;" d="M 274.719238 931.614296 L 325.215658 902.012245 L 342.753092 919.325884 L 365.071615 870.619829 " transform="matrix(0.192,0,0,0.192,0,-106.053539)"/>
<path style="fill:none;stroke-width:2.504357;stroke-linecap:butt;stroke-linejoin:miter;stroke:rgb(22.352941%,25.098039%,31.372549%);stroke-opacity:1;stroke-miterlimit:4;" d="M 365.926107 869.948443 L 356.933594 874.200559 " transform="matrix(0.192,0,0,0.192,0,-106.053539)"/>
<path style="fill:none;stroke-width:2.504357;stroke-linecap:butt;stroke-linejoin:miter;stroke:rgb(22.352941%,25.098039%,31.372549%);stroke-opacity:1;stroke-miterlimit:4;" d="M 368.387858 879.286822 L 364.339193 869.277056 " transform="matrix(0.192,0,0,0.192,0,-106.053539)"/>
<path style=" stroke:none;fill-rule:nonzero;fill:rgb(100%,40%,0%);fill-opacity:1;" d="M 30.113281 90.472656 L 71.160156 90.472656 L 71.160156 88.109375 L 30.113281 88.109375 Z M 30.113281 90.472656 "/>
<path style=" stroke:none;fill-rule:nonzero;fill:rgb(100%,40%,0%);fill-opacity:1;" d="M 36.152344 85.53125 L 64.484375 85.53125 L 64.484375 83.171875 L 36.152344 83.171875 Z M 36.152344 85.53125 "/>
</g>
</svg>
