<?xml version="1.0" encoding="UTF-8"?>
<svg xmlns="http://www.w3.org/2000/svg" xmlns:xlink="http://www.w3.org/1999/xlink" width="96" height="96" viewBox="0 0 96 96" version="1.1">
<g id="surface1">
<path style=" stroke:none;fill-rule:evenodd;fill:rgb(81.568627%,7.058824%,0%);fill-opacity:1;" d="M 12.101562 29.539062 L 22.320312 39.542969 L 22 25.515625 L 12.097656 25.46875 Z M 12.101562 29.539062 "/>
<path style="fill-rule:evenodd;fill:rgb(94.901961%,94.901961%,94.901961%);fill-opacity:1;stroke-width:5.03546;stroke-linecap:butt;stroke-linejoin:miter;stroke:rgb(68.627451%,68.627451%,68.627451%);stroke-opacity:1;stroke-miterlimit:4;" d="M 97.045898 1029.840207 L 433.919271 1028.660194 L 435.099284 664.768592 L 347.066243 575.575884 L 97.045898 575.575884 Z M 97.045898 1029.840207 " transform="matrix(0.192,0,0,0.192,0,-106.053539)"/>
<path style="fill-rule:evenodd;fill:rgb(68.627451%,68.627451%,68.627451%);fill-opacity:1;stroke-width:5.03546;stroke-linecap:butt;stroke-linejoin:miter;stroke:rgb(68.627451%,68.627451%,68.627451%);stroke-opacity:1;stroke-miterlimit:4;" d="M 431.518555 662.917193 L 349.344889 662.347531 L 350.118001 578.546262 Z M 431.518555 662.917193 " transform="matrix(0.192,0,0,0.192,0,-106.053539)"/>
<path style=" stroke:none;fill-rule:nonzero;fill:rgb(94.117647%,22.352941%,8.627451%);fill-opacity:1;" d="M 12.125 13.40625 L 55.308594 13.40625 L 55.308594 29.601562 L 12.125 29.601562 Z M 12.125 13.40625 "/>
<path style=" stroke:none;fill-rule:nonzero;fill:rgb(80%,80%,80%);fill-opacity:1;" d="M 28.296875 52.402344 L 28.296875 81.300781 C 28.296875 86.582031 32.539062 90.835938 37.804688 90.835938 L 63.363281 90.835938 L 76.132812 77.960938 L 76.132812 52.402344 Z M 28.296875 52.402344 "/>
<path style=" stroke:none;fill-rule:nonzero;fill:rgb(90.196078%,90.196078%,90.196078%);fill-opacity:1;" d="M 37.804688 42.867188 C 37.691406 42.867188 37.578125 42.871094 37.464844 42.875 C 37.578125 42.871094 37.691406 42.867188 37.804688 42.867188 Z M 66.625 42.867188 C 66.742188 42.867188 66.851562 42.871094 66.96875 42.875 C 66.855469 42.871094 66.742188 42.867188 66.625 42.867188 Z M 28.296875 69.929688 L 28.296875 85.527344 C 28.296875 88.621094 31.09375 90.835938 33.671875 90.835938 L 63.363281 90.835938 L 76.132812 77.960938 L 76.132812 69.929688 Z M 28.296875 69.929688 "/>
<path style=" stroke:none;fill-rule:nonzero;fill:rgb(22.352941%,25.098039%,31.372549%);fill-opacity:1;" d="M 51.089844 82.09375 L 53.621094 82.09375 L 53.667969 61.011719 L 49.046875 63.863281 L 49.046875 66.859375 L 51.039062 65.664062 Z M 51.089844 82.09375 "/>
<path style=" stroke:none;fill-rule:nonzero;fill:rgb(50.196078%,50.196078%,50.196078%);fill-opacity:1;" d="M 66.414062 77.792969 C 65.121094 77.792969 63.296875 79.621094 63.296875 80.898438 L 63.296875 90.867188 L 63.332031 90.867188 L 76.296875 77.792969 Z M 66.414062 77.792969 "/>
<path style=" stroke:none;fill-rule:nonzero;fill:rgb(94.117647%,22.352941%,8.627451%);fill-opacity:1;" d="M 33.730469 42.867188 C 28.460938 42.867188 28.296875 42.84375 28.296875 52.402344 L 76.132812 52.398438 C 76.128906 42.976562 76.21875 42.867188 70.953125 42.867188 Z M 36.378906 46.117188 C 37.210938 46.117188 37.882812 46.796875 37.882812 47.632812 C 37.882812 48.464844 37.210938 49.140625 36.378906 49.140625 C 35.546875 49.140625 34.871094 48.464844 34.871094 47.632812 C 34.871094 46.796875 35.546875 46.117188 36.378906 46.117188 Z M 68.289062 46.132812 C 69.082031 46.132812 69.722656 46.777344 69.722656 47.574219 C 69.726562 48.371094 69.082031 49.015625 68.289062 49.015625 C 67.492188 49.015625 66.847656 48.371094 66.847656 47.574219 C 66.847656 46.777344 67.492188 46.132812 68.289062 46.132812 Z M 68.289062 46.132812 "/>
</g>
</svg>
