<?xml version="1.0" encoding="UTF-8"?>
<svg xmlns="http://www.w3.org/2000/svg" xmlns:xlink="http://www.w3.org/1999/xlink" width="96" height="96" viewBox="0 0 96 96" version="1.1">
<g id="surface1">
<path style=" stroke:none;fill-rule:evenodd;fill:rgb(15.686275%,9.019608%,4.313725%);fill-opacity:1;" d="M 12.101562 29.539062 L 22.320312 39.542969 L 22 25.515625 L 12.097656 25.46875 Z M 12.101562 29.539062 "/>
<path style="fill-rule:evenodd;fill:rgb(94.901961%,94.901961%,94.901961%);fill-opacity:1;stroke-width:5.03546;stroke-linecap:butt;stroke-linejoin:miter;stroke:rgb(68.627451%,68.627451%,68.627451%);stroke-opacity:1;stroke-miterlimit:4;" d="M 97.045898 1029.840207 L 433.919271 1028.660194 L 435.099284 664.768592 L 347.066243 575.575884 L 97.045898 575.575884 Z M 97.045898 1029.840207 " transform="matrix(0.192,0,0,0.192,0,-106.053539)"/>
<path style="fill-rule:evenodd;fill:rgb(68.627451%,68.627451%,68.627451%);fill-opacity:1;stroke-width:5.03546;stroke-linecap:butt;stroke-linejoin:miter;stroke:rgb(68.627451%,68.627451%,68.627451%);stroke-opacity:1;stroke-miterlimit:4;" d="M 431.518555 662.917193 L 349.344889 662.347531 L 350.118001 578.546262 Z M 431.518555 662.917193 " transform="matrix(0.192,0,0,0.192,0,-106.053539)"/>
<path style=" stroke:none;fill-rule:nonzero;fill:rgb(31.372549%,17.647059%,8.627451%);fill-opacity:1;" d="M 12.125 13.40625 L 52.597656 13.40625 L 52.597656 29.601562 L 12.125 29.601562 Z M 12.125 13.40625 "/>
<path style=" stroke:none;fill-rule:nonzero;fill:rgb(60%,60%,60%);fill-opacity:1;" d="M 71.253906 47.378906 L 72.546875 47.378906 C 73.210938 47.378906 73.753906 47.867188 73.753906 48.464844 L 73.753906 54.003906 C 73.753906 54.609375 73.210938 55.09375 72.546875 55.09375 L 71.253906 55.09375 C 70.589844 55.09375 70.046875 54.609375 70.046875 54.003906 L 70.046875 48.464844 C 70.046875 47.867188 70.589844 47.378906 71.253906 47.378906 Z M 71.253906 47.378906 "/>
<path style=" stroke:none;fill-rule:nonzero;fill:rgb(60%,60%,60%);fill-opacity:1;" d="M 71.253906 56.835938 L 72.546875 56.835938 C 73.210938 56.835938 73.753906 57.324219 73.753906 57.925781 L 73.753906 63.464844 C 73.753906 64.066406 73.210938 64.550781 72.546875 64.550781 L 71.253906 64.550781 C 70.589844 64.550781 70.046875 64.066406 70.046875 63.464844 L 70.046875 57.925781 C 70.046875 57.324219 70.589844 56.835938 71.253906 56.835938 Z M 71.253906 56.835938 "/>
<path style=" stroke:none;fill-rule:nonzero;fill:rgb(60%,60%,60%);fill-opacity:1;" d="M 71.253906 65.96875 L 72.546875 65.96875 C 73.210938 65.96875 73.753906 66.457031 73.753906 67.058594 L 73.753906 72.597656 C 73.753906 73.199219 73.210938 73.6875 72.546875 73.6875 L 71.253906 73.6875 C 70.589844 73.6875 70.046875 73.199219 70.046875 72.597656 L 70.046875 67.058594 C 70.046875 66.457031 70.589844 65.96875 71.253906 65.96875 Z M 71.253906 65.96875 "/>
<path style=" stroke:none;fill-rule:nonzero;fill:rgb(60%,60%,60%);fill-opacity:1;" d="M 71.253906 75.425781 L 72.546875 75.425781 C 73.210938 75.425781 73.753906 75.914062 73.753906 76.515625 L 73.753906 82.054688 C 73.753906 82.65625 73.210938 83.144531 72.546875 83.144531 L 71.253906 83.144531 C 70.589844 83.144531 70.046875 82.65625 70.046875 82.054688 L 70.046875 76.515625 C 70.046875 75.914062 70.589844 75.425781 71.253906 75.425781 Z M 71.253906 75.425781 "/>
<path style=" stroke:none;fill-rule:nonzero;fill:rgb(31.372549%,17.647059%,8.627451%);fill-opacity:1;" d="M 34.136719 42.683594 L 68.066406 42.683594 C 69.917969 42.683594 71.421875 44.378906 71.421875 46.476562 L 71.421875 86.863281 C 71.421875 88.960938 69.917969 90.660156 68.066406 90.660156 L 34.136719 90.660156 C 32.28125 90.660156 30.78125 88.960938 30.78125 86.863281 L 30.78125 46.476562 C 30.78125 44.378906 32.28125 42.683594 34.136719 42.683594 Z M 34.136719 42.683594 "/>
<path style=" stroke:none;fill-rule:nonzero;fill:rgb(40%,40%,40%);fill-opacity:1;" d="M 41.21875 90.652344 L 34.070312 90.671875 C 34.070312 90.671875 32.910156 90.636719 31.871094 89.671875 C 30.835938 88.710938 30.761719 87.015625 30.761719 87.015625 L 30.800781 46.382812 C 30.800781 46.382812 30.78125 44.925781 31.726562 43.835938 C 32.671875 42.746094 34.308594 42.671875 34.308594 42.671875 L 41.203125 42.671875 Z M 41.21875 90.652344 "/>
<path style=" stroke:none;fill-rule:nonzero;fill:rgb(22.352941%,25.098039%,31.372549%);fill-opacity:1;" d="M 37.730469 48.085938 C 37.730469 49.199219 36.832031 50.097656 35.722656 50.097656 C 34.609375 50.097656 33.710938 49.199219 33.710938 48.085938 C 33.710938 46.976562 34.609375 46.078125 35.722656 46.078125 C 36.832031 46.078125 37.730469 46.976562 37.730469 48.085938 Z M 37.730469 48.085938 "/>
<path style=" stroke:none;fill-rule:nonzero;fill:rgb(80%,80%,80%);fill-opacity:1;" d="M 28.507812 49.347656 L 35.796875 49.347656 C 35.796875 49.347656 36.867188 49.253906 36.84375 48.199219 C 36.820312 47.140625 35.738281 47.007812 35.738281 47.007812 L 28.417969 47.050781 C 28.417969 47.050781 27.46875 47.257812 27.488281 48.242188 C 27.507812 49.230469 28.507812 49.347656 28.507812 49.347656 Z M 28.507812 49.347656 "/>
<path style=" stroke:none;fill-rule:nonzero;fill:rgb(22.352941%,25.098039%,31.372549%);fill-opacity:1;" d="M 37.777344 53.242188 C 37.777344 54.351562 36.878906 55.25 35.769531 55.25 C 34.65625 55.25 33.757812 54.351562 33.757812 53.242188 C 33.757812 52.128906 34.65625 51.230469 35.769531 51.230469 C 36.878906 51.230469 37.777344 52.128906 37.777344 53.242188 Z M 37.777344 53.242188 "/>
<path style=" stroke:none;fill-rule:nonzero;fill:rgb(80%,80%,80%);fill-opacity:1;" d="M 28.554688 54.5 L 35.84375 54.5 C 35.84375 54.5 36.914062 54.40625 36.890625 53.351562 C 36.867188 52.292969 35.785156 52.15625 35.785156 52.15625 L 28.460938 52.203125 C 28.460938 52.203125 27.515625 52.410156 27.535156 53.394531 C 27.554688 54.382812 28.554688 54.5 28.554688 54.5 Z M 28.554688 54.5 "/>
<path style=" stroke:none;fill-rule:nonzero;fill:rgb(22.352941%,25.098039%,31.372549%);fill-opacity:1;" d="M 37.816406 58.351562 C 37.816406 59.460938 36.917969 60.359375 35.804688 60.359375 C 34.695312 60.359375 33.796875 59.460938 33.796875 58.351562 C 33.796875 57.238281 34.695312 56.339844 35.804688 56.339844 C 36.917969 56.339844 37.816406 57.238281 37.816406 58.351562 Z M 37.816406 58.351562 "/>
<path style=" stroke:none;fill-rule:nonzero;fill:rgb(80%,80%,80%);fill-opacity:1;" d="M 28.589844 59.605469 L 35.878906 59.605469 C 35.878906 59.605469 36.953125 59.515625 36.929688 58.457031 C 36.90625 57.40625 35.824219 57.265625 35.824219 57.265625 L 28.503906 57.3125 C 28.503906 57.3125 27.554688 57.515625 27.574219 58.503906 C 27.59375 59.488281 28.589844 59.605469 28.589844 59.605469 Z M 28.589844 59.605469 "/>
<path style=" stroke:none;fill-rule:nonzero;fill:rgb(22.352941%,25.098039%,31.372549%);fill-opacity:1;" d="M 37.863281 63.5 C 37.863281 64.609375 36.964844 65.511719 35.851562 65.511719 C 34.742188 65.511719 33.84375 64.609375 33.84375 63.5 C 33.84375 62.390625 34.742188 61.492188 35.851562 61.492188 C 36.964844 61.492188 37.863281 62.390625 37.863281 63.5 Z M 37.863281 63.5 "/>
<path style=" stroke:none;fill-rule:nonzero;fill:rgb(80%,80%,80%);fill-opacity:1;" d="M 28.636719 64.761719 L 35.925781 64.761719 C 35.925781 64.761719 37 64.667969 36.976562 63.613281 C 36.953125 62.558594 35.871094 62.417969 35.871094 62.417969 L 28.550781 62.464844 C 28.550781 62.464844 27.601562 62.667969 27.621094 63.65625 C 27.640625 64.644531 28.636719 64.761719 28.636719 64.761719 Z M 28.636719 64.761719 "/>
<path style=" stroke:none;fill-rule:nonzero;fill:rgb(22.352941%,25.098039%,31.372549%);fill-opacity:1;" d="M 37.839844 68.640625 C 37.839844 69.753906 36.941406 70.652344 35.828125 70.652344 C 34.71875 70.652344 33.820312 69.753906 33.820312 68.640625 C 33.820312 67.53125 34.71875 66.632812 35.828125 66.632812 C 36.941406 66.632812 37.839844 67.53125 37.839844 68.640625 Z M 37.839844 68.640625 "/>
<path style=" stroke:none;fill-rule:nonzero;fill:rgb(80%,80%,80%);fill-opacity:1;" d="M 28.613281 69.902344 L 35.902344 69.902344 C 35.902344 69.902344 36.976562 69.808594 36.953125 68.753906 C 36.929688 67.695312 35.847656 67.5625 35.847656 67.5625 L 28.527344 67.605469 C 28.527344 67.605469 27.578125 67.8125 27.597656 68.796875 C 27.617188 69.785156 28.613281 69.902344 28.613281 69.902344 Z M 28.613281 69.902344 "/>
<path style=" stroke:none;fill-rule:nonzero;fill:rgb(22.352941%,25.098039%,31.372549%);fill-opacity:1;" d="M 37.886719 73.796875 C 37.886719 74.90625 36.988281 75.804688 35.875 75.804688 C 34.765625 75.804688 33.867188 74.90625 33.867188 73.796875 C 33.867188 72.6875 34.765625 71.785156 35.875 71.785156 C 36.988281 71.785156 37.886719 72.6875 37.886719 73.796875 Z M 37.886719 73.796875 "/>
<path style=" stroke:none;fill-rule:nonzero;fill:rgb(80%,80%,80%);fill-opacity:1;" d="M 28.660156 75.054688 L 35.949219 75.054688 C 35.949219 75.054688 37.023438 74.960938 37 73.90625 C 36.976562 72.847656 35.894531 72.710938 35.894531 72.710938 L 28.574219 72.757812 C 28.574219 72.757812 27.625 72.964844 27.644531 73.949219 C 27.664062 74.9375 28.660156 75.054688 28.660156 75.054688 Z M 28.660156 75.054688 "/>
<path style=" stroke:none;fill-rule:nonzero;fill:rgb(22.352941%,25.098039%,31.372549%);fill-opacity:1;" d="M 37.929688 78.90625 C 37.929688 80.015625 37.023438 80.914062 35.917969 80.914062 C 34.808594 80.914062 33.90625 80.015625 33.90625 78.90625 C 33.90625 77.792969 34.808594 76.890625 35.917969 76.890625 C 37.023438 76.890625 37.929688 77.792969 37.929688 78.90625 Z M 37.929688 78.90625 "/>
<path style=" stroke:none;fill-rule:nonzero;fill:rgb(80%,80%,80%);fill-opacity:1;" d="M 28.699219 80.160156 L 35.988281 80.160156 C 35.988281 80.160156 37.0625 80.070312 37.039062 79.011719 C 37.015625 77.957031 35.933594 77.820312 35.933594 77.820312 L 28.609375 77.863281 C 28.609375 77.863281 27.664062 78.070312 27.683594 79.058594 C 27.703125 80.042969 28.699219 80.160156 28.699219 80.160156 Z M 28.699219 80.160156 "/>
<path style=" stroke:none;fill-rule:nonzero;fill:rgb(22.352941%,25.098039%,31.372549%);fill-opacity:1;" d="M 37.976562 84.054688 C 37.976562 85.164062 37.070312 86.066406 35.960938 86.066406 C 34.851562 86.066406 33.953125 85.164062 33.953125 84.054688 C 33.953125 82.945312 34.851562 82.046875 35.960938 82.046875 C 37.070312 82.046875 37.976562 82.945312 37.976562 84.054688 Z M 37.976562 84.054688 "/>
<path style=" stroke:none;fill-rule:nonzero;fill:rgb(80%,80%,80%);fill-opacity:1;" d="M 28.746094 85.316406 L 36.035156 85.316406 C 36.035156 85.316406 37.109375 85.222656 37.085938 84.167969 C 37.0625 83.113281 35.980469 82.972656 35.980469 82.972656 L 28.65625 83.019531 C 28.65625 83.019531 27.710938 83.222656 27.730469 84.210938 C 27.75 85.199219 28.746094 85.316406 28.746094 85.316406 Z M 28.746094 85.316406 "/>
<path style=" stroke:none;fill-rule:nonzero;fill:rgb(100%,100%,100%);fill-opacity:1;" d="M 45.367188 49.246094 L 66 49.246094 C 66.667969 49.246094 67.207031 49.734375 67.207031 50.335938 L 67.207031 56.800781 C 67.207031 57.402344 66.667969 57.886719 66 57.886719 L 45.367188 57.886719 C 44.703125 57.886719 44.164062 57.402344 44.164062 56.800781 L 44.164062 50.335938 C 44.164062 49.734375 44.703125 49.246094 45.367188 49.246094 Z M 45.367188 49.246094 "/>
</g>
</svg>
