<?xml version="1.0" encoding="UTF-8"?>
<svg xmlns="http://www.w3.org/2000/svg" xmlns:xlink="http://www.w3.org/1999/xlink" width="96" height="96" viewBox="0 0 96 96" version="1.1">
<g id="surface1">
<path style=" stroke:none;fill-rule:evenodd;fill:rgb(66.666667%,53.333333%,0%);fill-opacity:1;" d="M 12.101562 29.539062 L 22.320312 39.542969 L 22 25.515625 L 12.097656 25.46875 Z M 12.101562 29.539062 "/>
<path style="fill-rule:evenodd;fill:rgb(94.901961%,94.901961%,94.901961%);fill-opacity:1;stroke-width:5.03546;stroke-linecap:butt;stroke-linejoin:miter;stroke:rgb(68.627451%,68.627451%,68.627451%);stroke-opacity:1;stroke-miterlimit:4;" d="M 97.045898 1029.840207 L 433.919271 1028.660194 L 435.099284 664.768592 L 347.066243 575.575884 L 97.045898 575.575884 Z M 97.045898 1029.840207 " transform="matrix(0.192,0,0,0.192,0,-106.053539)"/>
<path style="fill-rule:evenodd;fill:rgb(68.627451%,68.627451%,68.627451%);fill-opacity:1;stroke-width:5.03546;stroke-linecap:butt;stroke-linejoin:miter;stroke:rgb(68.627451%,68.627451%,68.627451%);stroke-opacity:1;stroke-miterlimit:4;" d="M 431.518555 662.917193 L 349.344889 662.347531 L 350.118001 578.546262 Z M 431.518555 662.917193 " transform="matrix(0.192,0,0,0.192,0,-106.053539)"/>
<path style=" stroke:none;fill-rule:nonzero;fill:rgb(83.137255%,66.666667%,0%);fill-opacity:1;" d="M 12.125 13.40625 L 55.308594 13.40625 L 55.308594 29.601562 L 12.125 29.601562 Z M 12.125 13.40625 "/>
<path style=" stroke:none;fill-rule:nonzero;fill:rgb(100%,40%,0%);fill-opacity:1;" d="M 58.574219 58.402344 C 58.574219 66.972656 51.625 73.917969 43.0625 73.917969 C 34.492188 73.917969 27.546875 66.972656 27.546875 58.402344 C 27.546875 49.832031 34.492188 42.890625 43.0625 42.890625 C 51.625 42.890625 58.574219 49.832031 58.574219 58.402344 Z M 58.574219 58.402344 "/>
<path style=" stroke:none;fill-rule:nonzero;fill:rgb(83.137255%,66.666667%,0%);fill-opacity:1;" d="M 50.519531 54.296875 L 78.964844 54.296875 L 78.964844 80.152344 L 50.519531 80.152344 Z M 50.519531 54.296875 "/>
<path style=" stroke:none;fill-rule:nonzero;fill:rgb(100%,80%,0%);fill-opacity:1;" d="M 29.855469 88.417969 L 60.886719 88.417969 L 45.4375 61.628906 Z M 29.855469 88.417969 "/>
<path style=" stroke:none;fill-rule:nonzero;fill:rgb(27.058824%,81.568627%,24.705882%);fill-opacity:1;" d="M 43.117188 58.992188 L 47.773438 58.992188 L 47.773438 63.648438 L 43.117188 63.648438 Z M 43.117188 58.992188 "/>
<path style=" stroke:none;fill-rule:nonzero;fill:rgb(27.058824%,81.568627%,24.705882%);fill-opacity:1;" d="M 26.164062 85.457031 L 30.816406 85.457031 L 30.816406 90.109375 L 26.164062 90.109375 Z M 26.164062 85.457031 "/>
<path style=" stroke:none;fill-rule:nonzero;fill:rgb(27.058824%,81.568627%,24.705882%);fill-opacity:1;" d="M 60.171875 85.089844 L 64.824219 85.089844 L 64.824219 89.742188 L 60.171875 89.742188 Z M 60.171875 85.089844 "/>
</g>
</svg>
