<?xml version="1.0" encoding="UTF-8"?>
<svg xmlns="http://www.w3.org/2000/svg" xmlns:xlink="http://www.w3.org/1999/xlink" width="96" height="96" viewBox="0 0 96 96" version="1.1">
<g id="surface1">
<path style=" stroke:none;fill-rule:evenodd;fill:rgb(8.627451%,31.372549%,8.627451%);fill-opacity:1;" d="M 12.101562 29.539062 L 22.320312 39.542969 L 22 25.515625 L 12.097656 25.46875 Z M 12.101562 29.539062 "/>
<path style="fill-rule:evenodd;fill:rgb(94.901961%,94.901961%,94.901961%);fill-opacity:1;stroke-width:5.03546;stroke-linecap:butt;stroke-linejoin:miter;stroke:rgb(68.627451%,68.627451%,68.627451%);stroke-opacity:1;stroke-miterlimit:4;" d="M 97.045898 1029.840207 L 433.919271 1028.660194 L 435.099284 664.768592 L 347.066243 575.575884 L 97.045898 575.575884 Z M 97.045898 1029.840207 " transform="matrix(0.192,0,0,0.192,0,-106.053539)"/>
<path style="fill-rule:evenodd;fill:rgb(68.627451%,68.627451%,68.627451%);fill-opacity:1;stroke-width:5.03546;stroke-linecap:butt;stroke-linejoin:miter;stroke:rgb(68.627451%,68.627451%,68.627451%);stroke-opacity:1;stroke-miterlimit:4;" d="M 431.518555 662.917193 L 349.344889 662.347531 L 350.118001 578.546262 Z M 431.518555 662.917193 " transform="matrix(0.192,0,0,0.192,0,-106.053539)"/>
<path style=" stroke:none;fill-rule:nonzero;fill:rgb(17.254902%,62.745098%,17.254902%);fill-opacity:1;" d="M 12.125 13.40625 L 55.308594 13.40625 L 55.308594 29.601562 L 12.125 29.601562 Z M 12.125 13.40625 "/>
<path style=" stroke:none;fill-rule:nonzero;fill:rgb(17.254902%,62.745098%,17.254902%);fill-opacity:1;" d="M 27.457031 47.664062 L 76.8125 47.664062 L 76.8125 87.148438 L 27.457031 87.148438 Z M 27.457031 47.664062 "/>
<path style=" stroke:none;fill-rule:nonzero;fill:rgb(55.294118%,82.745098%,37.254902%);fill-opacity:1;" d="M 28.820312 48.789062 L 39.179688 48.789062 L 39.179688 53.582031 L 28.820312 53.582031 Z M 28.820312 48.789062 "/>
<path style=" stroke:none;fill-rule:nonzero;fill:rgb(55.294118%,82.745098%,37.254902%);fill-opacity:1;" d="M 40.773438 48.789062 L 51.128906 48.789062 L 51.128906 53.582031 L 40.773438 53.582031 Z M 40.773438 48.789062 "/>
<path style=" stroke:none;fill-rule:nonzero;fill:rgb(55.294118%,82.745098%,37.254902%);fill-opacity:1;" d="M 52.722656 48.789062 L 63.078125 48.789062 L 63.078125 53.582031 L 52.722656 53.582031 Z M 52.722656 48.789062 "/>
<path style=" stroke:none;fill-rule:nonzero;fill:rgb(55.294118%,82.745098%,37.254902%);fill-opacity:1;" d="M 64.671875 48.789062 L 75.027344 48.789062 L 75.027344 53.582031 L 64.671875 53.582031 Z M 64.671875 48.789062 "/>
<path style=" stroke:none;fill-rule:nonzero;fill:rgb(66.666667%,87.058824%,52.941176%);fill-opacity:1;" d="M 28.820312 55.183594 L 39.179688 55.183594 L 39.179688 59.976562 L 28.820312 59.976562 Z M 28.820312 55.183594 "/>
<path style=" stroke:none;fill-rule:nonzero;fill:rgb(66.666667%,87.058824%,52.941176%);fill-opacity:1;" d="M 40.773438 55.183594 L 51.128906 55.183594 L 51.128906 59.976562 L 40.773438 59.976562 Z M 40.773438 55.183594 "/>
<path style=" stroke:none;fill-rule:nonzero;fill:rgb(66.666667%,87.058824%,52.941176%);fill-opacity:1;" d="M 52.722656 55.183594 L 63.078125 55.183594 L 63.078125 59.976562 L 52.722656 59.976562 Z M 52.722656 55.183594 "/>
<path style=" stroke:none;fill-rule:nonzero;fill:rgb(66.666667%,87.058824%,52.941176%);fill-opacity:1;" d="M 64.671875 55.183594 L 75.027344 55.183594 L 75.027344 59.976562 L 64.671875 59.976562 Z M 64.671875 55.183594 "/>
<path style=" stroke:none;fill-rule:nonzero;fill:rgb(66.666667%,87.058824%,52.941176%);fill-opacity:1;" d="M 28.820312 61.53125 L 39.179688 61.53125 L 39.179688 66.324219 L 28.820312 66.324219 Z M 28.820312 61.53125 "/>
<path style=" stroke:none;fill-rule:nonzero;fill:rgb(66.666667%,87.058824%,52.941176%);fill-opacity:1;" d="M 40.773438 61.53125 L 51.128906 61.53125 L 51.128906 66.324219 L 40.773438 66.324219 Z M 40.773438 61.53125 "/>
<path style=" stroke:none;fill-rule:nonzero;fill:rgb(66.666667%,87.058824%,52.941176%);fill-opacity:1;" d="M 52.722656 61.53125 L 63.078125 61.53125 L 63.078125 66.324219 L 52.722656 66.324219 Z M 52.722656 61.53125 "/>
<path style=" stroke:none;fill-rule:nonzero;fill:rgb(66.666667%,87.058824%,52.941176%);fill-opacity:1;" d="M 64.671875 61.53125 L 75.027344 61.53125 L 75.027344 66.324219 L 64.671875 66.324219 Z M 64.671875 61.53125 "/>
<path style=" stroke:none;fill-rule:nonzero;fill:rgb(66.666667%,87.058824%,52.941176%);fill-opacity:1;" d="M 28.820312 67.925781 L 39.179688 67.925781 L 39.179688 72.71875 L 28.820312 72.71875 Z M 28.820312 67.925781 "/>
<path style=" stroke:none;fill-rule:nonzero;fill:rgb(66.666667%,87.058824%,52.941176%);fill-opacity:1;" d="M 40.773438 67.925781 L 51.128906 67.925781 L 51.128906 72.71875 L 40.773438 72.71875 Z M 40.773438 67.925781 "/>
<path style=" stroke:none;fill-rule:nonzero;fill:rgb(66.666667%,87.058824%,52.941176%);fill-opacity:1;" d="M 52.722656 67.925781 L 63.078125 67.925781 L 63.078125 72.71875 L 52.722656 72.71875 Z M 52.722656 67.925781 "/>
<path style=" stroke:none;fill-rule:nonzero;fill:rgb(66.666667%,87.058824%,52.941176%);fill-opacity:1;" d="M 64.671875 67.925781 L 75.027344 67.925781 L 75.027344 72.71875 L 64.671875 72.71875 Z M 64.671875 67.925781 "/>
<path style=" stroke:none;fill-rule:nonzero;fill:rgb(66.666667%,87.058824%,52.941176%);fill-opacity:1;" d="M 28.925781 74.363281 L 39.28125 74.363281 L 39.28125 79.160156 L 28.925781 79.160156 Z M 28.925781 74.363281 "/>
<path style=" stroke:none;fill-rule:nonzero;fill:rgb(66.666667%,87.058824%,52.941176%);fill-opacity:1;" d="M 40.875 74.363281 L 51.230469 74.363281 L 51.230469 79.160156 L 40.875 79.160156 Z M 40.875 74.363281 "/>
<path style=" stroke:none;fill-rule:nonzero;fill:rgb(66.666667%,87.058824%,52.941176%);fill-opacity:1;" d="M 52.824219 74.363281 L 63.179688 74.363281 L 63.179688 79.160156 L 52.824219 79.160156 Z M 52.824219 74.363281 "/>
<path style=" stroke:none;fill-rule:nonzero;fill:rgb(66.666667%,87.058824%,52.941176%);fill-opacity:1;" d="M 64.773438 74.363281 L 75.128906 74.363281 L 75.128906 79.160156 L 64.773438 79.160156 Z M 64.773438 74.363281 "/>
<path style=" stroke:none;fill-rule:nonzero;fill:rgb(66.666667%,87.058824%,52.941176%);fill-opacity:1;" d="M 28.925781 80.757812 L 39.28125 80.757812 L 39.28125 85.550781 L 28.925781 85.550781 Z M 28.925781 80.757812 "/>
<path style=" stroke:none;fill-rule:nonzero;fill:rgb(66.666667%,87.058824%,52.941176%);fill-opacity:1;" d="M 40.875 80.757812 L 51.230469 80.757812 L 51.230469 85.550781 L 40.875 85.550781 Z M 40.875 80.757812 "/>
<path style=" stroke:none;fill-rule:nonzero;fill:rgb(66.666667%,87.058824%,52.941176%);fill-opacity:1;" d="M 52.824219 80.757812 L 63.179688 80.757812 L 63.179688 85.550781 L 52.824219 85.550781 Z M 52.824219 80.757812 "/>
<path style=" stroke:none;fill-rule:nonzero;fill:rgb(66.666667%,87.058824%,52.941176%);fill-opacity:1;" d="M 64.773438 80.757812 L 75.128906 80.757812 L 75.128906 85.550781 L 64.773438 85.550781 Z M 64.773438 80.757812 "/>
<path style=" stroke:none;fill-rule:nonzero;fill:rgb(22.352941%,25.098039%,31.372549%);fill-opacity:1;" d="M 80.253906 72.53125 L 80.253906 89.113281 C 80.253906 90.015625 79.21875 90.753906 77.9375 90.753906 L 53.230469 90.753906 C 51.949219 90.753906 50.910156 90.015625 50.910156 89.113281 L 50.910156 72.53125 C 50.910156 71.621094 51.949219 70.890625 53.230469 70.890625 L 77.9375 70.890625 C 79.21875 70.890625 80.253906 71.621094 80.253906 72.53125 Z M 80.253906 72.53125 "/>
<path style=" stroke:none;fill-rule:nonzero;fill:rgb(100%,100%,100%);fill-opacity:1;" d="M 79.199219 71.84375 C 78.980469 71.703125 78.695312 71.726562 78.695312 71.726562 L 54.269531 71.730469 L 52.476562 71.730469 C 52.476562 71.730469 52.199219 71.722656 52.050781 71.828125 C 51.90625 71.933594 51.890625 72.179688 51.890625 72.179688 L 51.894531 89.4375 C 51.894531 89.4375 51.875 89.726562 52.011719 89.855469 C 52.15625 89.988281 52.46875 89.976562 52.46875 89.976562 L 77.921875 89.96875 C 77.921875 89.96875 78.617188 90.039062 79.023438 89.703125 C 79.429688 89.371094 79.328125 88.773438 79.328125 88.773438 L 79.378906 72.222656 C 79.378906 72.222656 79.414062 71.988281 79.199219 71.84375 Z M 79.199219 71.84375 "/>
<path style=" stroke:none;fill-rule:nonzero;fill:rgb(100%,80%,0%);fill-opacity:1;" d="M 66.632812 86.847656 L 64.449219 86.847656 C 64.148438 86.847656 63.90625 86.605469 63.90625 86.300781 L 63.90625 77.574219 C 63.90625 77.277344 64.148438 77.03125 64.449219 77.03125 L 66.632812 77.03125 C 66.933594 77.03125 67.175781 77.277344 67.175781 77.574219 L 67.175781 86.300781 C 67.175781 86.605469 66.933594 86.847656 66.632812 86.847656 Z M 66.632812 86.847656 "/>
<path style=" stroke:none;fill-rule:nonzero;fill:rgb(94.117647%,22.352941%,8.627451%);fill-opacity:1;" d="M 61.722656 86.847656 L 59.542969 86.847656 C 59.242188 86.847656 59 86.605469 59 86.300781 L 59 80.300781 C 59 80 59.242188 79.757812 59.542969 79.757812 L 61.722656 79.757812 C 62.023438 79.757812 62.269531 80 62.269531 80.300781 L 62.269531 86.300781 C 62.269531 86.605469 62.023438 86.847656 61.722656 86.847656 Z M 61.722656 86.847656 "/>
<path style=" stroke:none;fill-rule:nonzero;fill:rgb(0%,26.666667%,33.333333%);fill-opacity:1;" d="M 56.816406 86.847656 L 54.632812 86.847656 C 54.332031 86.847656 54.085938 86.605469 54.085938 86.300781 L 54.085938 83.03125 C 54.085938 82.726562 54.332031 82.484375 54.632812 82.484375 L 56.816406 82.484375 C 57.117188 82.484375 57.359375 82.726562 57.359375 83.03125 L 57.359375 86.300781 C 57.359375 86.605469 57.117188 86.847656 56.816406 86.847656 Z M 56.816406 86.847656 "/>
<path style=" stroke:none;fill-rule:nonzero;fill:rgb(27.058824%,81.568627%,24.705882%);fill-opacity:1;" d="M 71.539062 86.847656 L 69.359375 86.847656 C 69.058594 86.847656 68.8125 86.605469 68.8125 86.300781 L 68.8125 80.300781 C 68.8125 80 69.058594 79.757812 69.359375 79.757812 L 71.539062 79.757812 C 71.84375 79.757812 72.085938 80 72.085938 80.300781 L 72.085938 86.300781 C 72.085938 86.605469 71.84375 86.847656 71.539062 86.847656 Z M 71.539062 86.847656 "/>
<path style=" stroke:none;fill-rule:nonzero;fill:rgb(0%,73.333333%,94.901961%);fill-opacity:1;" d="M 76.449219 86.847656 L 74.265625 86.847656 C 73.964844 86.847656 73.722656 86.605469 73.722656 86.300781 L 73.722656 74.300781 C 73.722656 74.003906 73.964844 73.757812 74.265625 73.757812 L 76.449219 73.757812 C 76.75 73.757812 76.996094 74.003906 76.996094 74.300781 L 76.996094 86.300781 C 76.996094 86.605469 76.75 86.847656 76.449219 86.847656 Z M 76.449219 86.847656 "/>
<path style=" stroke:none;fill-rule:nonzero;fill:rgb(22.352941%,25.098039%,31.372549%);fill-opacity:1;" d="M 78.085938 87.390625 L 53 87.390625 C 52.695312 87.390625 52.453125 87.148438 52.453125 86.847656 C 52.453125 86.546875 52.695312 86.300781 53 86.300781 L 78.085938 86.300781 C 78.386719 86.300781 78.628906 86.546875 78.628906 86.847656 C 78.628906 87.148438 78.386719 87.390625 78.085938 87.390625 Z M 78.085938 87.390625 "/>
</g>
</svg>
