<?xml version="1.0" encoding="UTF-8"?>
<svg xmlns="http://www.w3.org/2000/svg" xmlns:xlink="http://www.w3.org/1999/xlink" width="128" height="128" viewBox="0 0 128 128" version="1.1">
<g id="surface1">
<path style=" stroke:none;fill-rule:nonzero;fill:rgb(74.509804%,74.509804%,74.509804%);fill-opacity:1;" d="M 28 40 C 25.789062 40 24 41.789062 24 44 L 24 67.75 C 24 83.496094 34.0625 96.746094 48 101.75 L 48 112 L 32 112 C 27.480469 112 24 115.921875 24 120 L 24 128 L 96 128 L 96 120 C 96 115.324219 92.1875 112 88 112 L 72 112 L 72 101.75 C 85.933594 96.746094 96 83.496094 96 67.75 L 96 44 C 96 41.789062 94.207031 40 92 40 C 89.789062 40 88 41.789062 88 44 C 88 44.550781 88.046875 45.019531 88.25 45.5 L 88.25 67.75 C 88.25 83.464844 75.617188 96 60 96 C 44.378906 96 32 83.460938 32 67.75 L 32 44 C 32 41.789062 30.207031 40 28 40 Z M 60 7.921875 C 71.078125 7.921875 80 16.839844 80 27.921875 L 80 68 C 80 79.078125 71.078125 88 60 88 C 48.921875 88 40 79.078125 40 68 L 40 27.898438 C 40 16.816406 48.921875 7.898438 60 7.898438 Z M 60 7.921875 "/>
<path style=" stroke:none;fill-rule:nonzero;fill:rgb(100%,100%,100%);fill-opacity:1;" d="M 57.542969 87.789062 C 55.484375 87.550781 53.273438 86.871094 51.171875 85.832031 C 48.914062 84.714844 47.492188 83.695312 45.816406 81.984375 C 44.113281 80.246094 43.269531 79.054688 42.167969 76.828125 C 41.089844 74.640625 40.460938 72.535156 40.199219 70.222656 C 39.96875 68.207031 39.96875 27.664062 40.199219 25.648438 C 41.046875 18.140625 46.140625 11.695312 53.234375 9.148438 C 55.933594 8.179688 58.484375 7.84375 61.445312 8.070312 C 66.382812 8.445312 70.566406 10.355469 74.058594 13.832031 C 76.875 16.632812 78.582031 19.746094 79.535156 23.832031 C 79.878906 25.292969 79.886719 25.644531 79.941406 46.863281 C 79.984375 62.222656 79.945312 68.878906 79.8125 70.050781 C 79.011719 77.066406 74.902344 82.921875 68.671875 85.925781 C 65.167969 87.617188 61.449219 88.242188 57.542969 87.789062 Z M 57.542969 87.789062 "/>
<path style=" stroke:none;fill-rule:nonzero;fill:rgb(100%,100%,100%);fill-opacity:1;" d="M 24.015625 123.757812 C 24.019531 119.054688 24.167969 117.960938 25.023438 116.355469 C 25.679688 115.125 26.984375 113.777344 28.171875 113.097656 C 29.917969 112.097656 30.152344 112.078125 39.566406 112.078125 L 48.117188 112.078125 L 48.117188 101.71875 L 47.152344 101.367188 C 45.722656 100.847656 42.765625 99.363281 41.082031 98.320312 C 33.597656 93.691406 27.859375 86.105469 25.449219 77.652344 C 24.117188 72.980469 23.984375 70.84375 24.046875 55.449219 C 24.097656 43.007812 24.097656 42.980469 24.457031 42.3125 C 24.917969 41.445312 25.949219 40.519531 26.734375 40.261719 C 28.394531 39.710938 30.417969 40.464844 31.355469 41.984375 L 31.855469 42.792969 L 31.949219 56.921875 C 32.050781 72.347656 32.035156 72.113281 33.0625 75.671875 C 36.285156 86.820312 45.554688 94.625 57.066406 95.886719 C 63.40625 96.582031 70.167969 94.953125 75.5 91.445312 C 81.871094 87.257812 85.953125 81.230469 87.769531 73.34375 C 88.144531 71.714844 88.148438 71.660156 88.175781 57.207031 L 88.207031 42.707031 L 88.679688 41.941406 C 89.589844 40.46875 91.636719 39.71875 93.277344 40.261719 C 94.0625 40.519531 95.089844 41.445312 95.554688 42.3125 L 95.914062 42.984375 L 95.914062 56.6875 C 95.914062 71.0625 95.882812 71.777344 95.148438 75.222656 C 93.183594 84.417969 87.699219 92.484375 79.863281 97.707031 C 77.984375 98.957031 74.988281 100.53125 73.089844 101.265625 L 71.890625 101.726562 L 71.890625 112.078125 L 80.441406 112.078125 C 87.488281 112.078125 89.160156 112.121094 89.9375 112.324219 C 92.566406 113.007812 94.574219 114.851562 95.527344 117.457031 C 95.851562 118.351562 95.890625 118.832031 95.957031 123.179688 L 96.027344 127.925781 L 24.011719 127.925781 Z M 24.015625 123.757812 "/>
</g>
</svg>
