<?xml version="1.0" encoding="UTF-8"?>
<svg xmlns="http://www.w3.org/2000/svg" xmlns:xlink="http://www.w3.org/1999/xlink" width="128" height="128" viewBox="0 0 128 128" version="1.1">
<g id="surface1">
<path style=" stroke:none;fill-rule:nonzero;fill:rgb(74.509804%,74.509804%,74.509804%);fill-opacity:1;" d="M 63.753906 0 C 37.308594 0 15.5625 24.066406 16.003906 45.75 C 16.496094 69.929688 23.472656 83.3125 25.003906 88 L 36.207031 88 C 26.914062 69.667969 27.8125 46.75 27.8125 46.75 C 27.8125 27.769531 43.867188 12.25 63.75 12.25 C 83.636719 12.25 99.75 27.613281 99.6875 47.25 C 99.5 60.644531 98.316406 65.519531 91.644531 85.75 L 104.210938 85.75 C 106.007812 80.59375 112.003906 69.226562 112.003906 46.5 C 112.003906 23.863281 90.195312 0 63.75 0 Z M 63.753906 0 "/>
<path style=" stroke:none;fill-rule:nonzero;fill:rgb(74.509804%,74.509804%,74.509804%);fill-opacity:1;" d="M 100.796875 56.433594 C 94.105469 54.566406 86.664062 59.40625 84.171875 67.246094 L 80.761719 77.988281 C 78.273438 85.828125 81.679688 93.695312 88.371094 95.5625 C 95.0625 97.433594 102.503906 92.589844 104.992188 84.753906 L 108.40625 74.011719 C 110.894531 66.171875 107.488281 58.300781 100.796875 56.433594 Z M 100.796875 56.433594 "/>
<path style=" stroke:none;fill-rule:nonzero;fill:rgb(74.509804%,74.509804%,74.509804%);fill-opacity:1;" d="M 27.621094 56.476562 C 34.3125 54.609375 41.753906 59.449219 44.242188 67.289062 L 47.65625 78.03125 C 50.144531 85.871094 46.738281 93.738281 40.046875 95.605469 C 33.355469 97.476562 25.910156 92.632812 23.421875 84.796875 L 20.011719 74.054688 C 17.523438 66.214844 20.929688 58.34375 27.621094 56.476562 Z M 27.621094 56.476562 "/>
<path style=" stroke:none;fill-rule:nonzero;fill:rgb(74.509804%,74.509804%,74.509804%);fill-opacity:1;" d="M 56.378906 111.761719 L 71.878906 111.761719 C 76.226562 111.761719 79.753906 115.285156 79.753906 119.636719 C 79.753906 123.984375 76.226562 127.511719 71.878906 127.511719 L 56.378906 127.511719 C 52.03125 127.511719 48.503906 123.984375 48.503906 119.636719 C 48.503906 115.285156 52.03125 111.761719 56.378906 111.761719 Z M 56.378906 111.761719 "/>
<path style=" stroke:none;fill-rule:nonzero;fill:rgb(74.509804%,74.509804%,74.509804%);fill-opacity:1;" d="M 100.753906 75.28125 C 98.941406 75.605469 97.589844 77.125 97.46875 78.960938 C 97.351562 80.792969 98.5 82.472656 100.253906 83.03125 L 111.996094 87.269531 L 111.746094 101.269531 C 111.707031 105.527344 110.660156 108.210938 109.246094 109.769531 C 107.839844 111.289062 106.03125 112.011719 103.503906 112.011719 L 70.253906 112.011719 C 68.808594 111.988281 67.46875 112.746094 66.742188 113.992188 C 66.011719 115.238281 66.011719 116.78125 66.742188 118.027344 C 67.46875 119.273438 68.808594 120.03125 70.253906 120.011719 L 103.503906 120.011719 C 107.882812 120.011719 112.242188 118.328125 115.253906 115.011719 C 118.261719 111.691406 119.699219 106.9375 119.753906 101.257812 L 120 84.460938 L 120 81.710938 L 117.5 80.710938 L 103.25 75.460938 C 102.464844 75.109375 101.589844 75.023438 100.75 75.210938 Z M 100.753906 75.28125 "/>
<path style=" stroke:none;fill-rule:nonzero;fill:rgb(100%,100%,100%);fill-opacity:1;" d="M 54.410156 127.175781 C 51.660156 126.4375 49.402344 124.148438 48.785156 121.476562 C 48.3125 119.414062 48.757812 117.019531 49.949219 115.238281 C 51.1875 113.382812 53.105469 112.226562 55.46875 111.910156 C 56.328125 111.796875 59.570312 111.769531 64.792969 111.828125 C 84.210938 112.050781 104.1875 112.097656 105.242188 111.921875 C 108.402344 111.394531 110.503906 109.144531 111.363281 105.359375 C 111.640625 104.152344 111.71875 102.929688 111.847656 98.050781 C 111.929688 94.824219 112 91.066406 112.003906 89.699219 L 112.011719 87.210938 L 108.753906 86.035156 C 106.960938 85.390625 105.375 84.816406 105.234375 84.761719 C 105.035156 84.6875 104.855469 84.980469 104.433594 86.0625 C 103.691406 87.972656 102.15625 90.289062 100.644531 91.78125 C 94.171875 98.160156 84.898438 96.949219 81.296875 89.253906 C 80.386719 87.308594 80.09375 85.84375 80.089844 83.191406 C 80.085938 81.488281 80.167969 80.472656 80.363281 79.675781 C 80.886719 77.554688 84.480469 66.429688 85.019531 65.25 C 86.558594 61.890625 89.230469 59.011719 92.199219 57.515625 C 93.976562 56.621094 95.390625 56.253906 97.429688 56.15625 C 99.132812 56.074219 99.28125 56.039062 99.363281 55.71875 C 99.601562 54.757812 99.792969 46.800781 99.628906 44.628906 C 98.558594 30.484375 89.140625 18.582031 75.460938 14.089844 C 62.136719 9.714844 47.476562 13.132812 37.789062 22.875 C 32.183594 28.515625 28.851562 35.414062 27.960938 43.230469 C 27.757812 45.011719 27.824219 55.601562 28.039062 56.117188 C 28.132812 56.335938 28.328125 56.347656 29.402344 56.210938 C 33.1875 55.730469 37.804688 57.710938 40.644531 61.027344 C 42.78125 63.523438 43.417969 64.917969 45.722656 72.128906 C 48.269531 80.105469 48.339844 80.40625 48.332031 83.273438 C 48.328125 86.054688 48.011719 87.4375 46.855469 89.789062 C 45.875 91.777344 44.0625 93.671875 42.222656 94.632812 C 35.203125 98.292969 26.46875 93.734375 23.523438 84.878906 C 19.65625 73.246094 18.019531 66.675781 17 58.671875 C 16.246094 52.757812 15.890625 44.855469 16.238281 41.664062 C 18.25 23.175781 34.472656 5.683594 53.730469 1.234375 C 57.386719 0.390625 59.765625 0.132812 63.855469 0.132812 C 76.605469 0.132812 88.535156 5.414062 98.238281 15.351562 C 104.390625 21.65625 108.917969 29.605469 110.78125 37.371094 C 111.816406 41.6875 112.0625 44.777344 111.84375 50.722656 C 111.515625 59.597656 110.199219 68.089844 108.082031 74.980469 L 107.441406 77.066406 L 107.871094 77.21875 C 109.820312 77.917969 116.894531 80.542969 118.246094 81.070312 L 119.9375 81.730469 L 119.929688 84.648438 C 119.925781 86.25 119.859375 91.242188 119.777344 95.738281 C 119.617188 104.617188 119.472656 106.160156 118.535156 109.015625 C 116.5 115.230469 111.753906 119.097656 105.242188 119.84375 C 104.457031 119.933594 98.5625 120.007812 91.785156 120.007812 L 79.726562 120.007812 L 79.519531 121.109375 C 78.960938 124.058594 76.722656 126.421875 73.757812 127.191406 C 72.386719 127.550781 55.746094 127.535156 54.410156 127.179688 Z M 54.410156 127.175781 "/>
</g>
</svg>
