<?xml version="1.0" encoding="UTF-8"?>
<svg xmlns="http://www.w3.org/2000/svg" xmlns:xlink="http://www.w3.org/1999/xlink" width="128" height="128" viewBox="0 0 128 128" version="1.1">
<g id="surface1">
<path style=" stroke:none;fill-rule:nonzero;fill:rgb(74.509804%,74.509804%,74.509804%);fill-opacity:1;" d="M 103.28125 8 C 99.144531 8.375 95.984375 11.847656 96 16 L 96 120 C 95.960938 122.886719 97.476562 125.570312 99.96875 127.023438 C 102.457031 128.476562 105.542969 128.476562 108.03125 127.023438 C 110.523438 125.570312 112.039062 122.886719 112 120 L 112 24 L 120 24 C 122.886719 24.039062 125.570312 22.523438 127.023438 20.03125 C 128.476562 17.542969 128.476562 14.457031 127.023438 11.96875 C 125.570312 9.476562 122.886719 7.960938 120 8 L 104 8 C 103.75 7.988281 103.5 7.988281 103.25 8 Z M 103.28125 8 "/>
<path style=" stroke:none;fill-rule:nonzero;fill:rgb(74.509804%,74.509804%,74.509804%);fill-opacity:1;" d="M 104 48 L 104 72 L 128 72 L 128 48 Z M 112 56 L 120 56 L 120 64 L 112 64 Z M 112 56 "/>
<path style=" stroke:none;fill-rule:nonzero;fill:rgb(74.509804%,74.509804%,74.509804%);fill-opacity:1;" d="M 104 80 L 104 104 L 128 104 L 128 80 Z M 112 88 L 120 88 L 120 96 L 112 96 Z M 112 88 "/>
<path style=" stroke:none;fill-rule:nonzero;fill:rgb(74.509804%,74.509804%,74.509804%);fill-opacity:1;" d="M 0 32 L 0 128 L 80 128 L 80 112 L 88 112 L 88 96 L 64 96 L 64 112 L 16 112 L 16 48 L 40 48 L 40 32 Z M 0 32 "/>
<path style=" stroke:none;fill-rule:nonzero;fill:rgb(74.509804%,74.509804%,74.509804%);fill-opacity:1;" d="M 48 8 L 88 40 L 64 40 L 64 76.25 L 48 76.25 Z M 48 8 "/>
<path style=" stroke:none;fill-rule:nonzero;fill:rgb(74.509804%,74.509804%,74.509804%);fill-opacity:1;" d="M 63.929688 76.027344 C 63.929688 87.050781 54.992188 95.988281 43.96875 95.988281 C 32.945312 95.988281 24.007812 87.050781 24.007812 76.027344 C 24.007812 65.003906 32.945312 56.066406 43.96875 56.066406 C 54.992188 56.066406 63.929688 65.003906 63.929688 76.027344 Z M 63.929688 76.027344 "/>
<path style=" stroke:none;fill-rule:nonzero;fill:rgb(100%,100%,100%);fill-opacity:1;" d="M 42.457031 95.875 C 37.070312 95.25 33.070312 93.34375 29.640625 89.765625 C 27.996094 88.050781 27.019531 86.640625 26.023438 84.554688 C 23.75 79.789062 23.464844 74.378906 25.230469 69.375 C 26.230469 66.539062 27.707031 64.207031 29.898438 62.019531 C 33.054688 58.863281 37.019531 56.882812 41.339844 56.308594 C 42.746094 56.121094 46.546875 56.1875 47.539062 56.421875 L 47.996094 56.527344 L 47.996094 8.070312 L 87.753906 39.882812 L 75.890625 39.921875 L 64.023438 39.964844 L 64.023438 57.699219 C 64.023438 76.316406 63.976562 77.765625 63.28125 80.695312 C 61.777344 87.050781 57.25 92.199219 51.019531 94.640625 C 48.589844 95.59375 44.773438 96.140625 42.457031 95.875 Z M 42.457031 95.875 "/>
<path style=" stroke:none;fill-rule:nonzero;fill:rgb(100%,100%,100%);fill-opacity:1;" d="M 0.0742188 79.953125 L 0.0742188 32.03125 L 39.898438 32.03125 L 39.898438 47.894531 L 15.9375 47.894531 L 15.9375 112.007812 L 64.023438 112.007812 L 64.023438 95.980469 L 87.984375 95.980469 L 87.984375 112.007812 L 79.886719 112.007812 L 79.886719 127.871094 L 0.0742188 127.871094 Z M 0.0742188 79.953125 "/>
<path style=" stroke:none;fill-rule:nonzero;fill:rgb(100%,100%,100%);fill-opacity:1;" d="M 102.113281 127.804688 C 99.589844 127.183594 97.460938 125.265625 96.515625 122.777344 L 96.164062 121.839844 L 96.164062 14.101562 L 96.550781 13.140625 C 97.433594 10.957031 99.441406 9.085938 101.632812 8.410156 C 102.675781 8.085938 103.136719 8.070312 111.925781 8.070312 C 121.949219 8.070312 122.15625 8.089844 123.910156 9.027344 C 125.242188 9.738281 126.5625 11.160156 127.273438 12.648438 C 127.882812 13.925781 127.890625 13.960938 127.890625 16.003906 C 127.890625 18.050781 127.882812 18.082031 127.269531 19.367188 C 126.5625 20.847656 125.257812 22.25 123.902344 22.980469 C 122.378906 23.800781 121.382812 23.929688 116.445312 23.933594 L 111.941406 23.933594 L 111.941406 48.058594 L 127.972656 48.058594 L 127.972656 72.019531 L 111.941406 72.019531 L 111.941406 80.117188 L 127.972656 80.117188 L 127.972656 103.914062 L 111.941406 103.914062 L 111.941406 112.316406 C 111.941406 117.34375 111.875 121.078125 111.773438 121.613281 C 110.949219 125.960938 106.414062 128.871094 102.113281 127.804688 Z M 120.039062 91.929688 L 120.039062 87.878906 L 116.03125 87.921875 L 112.027344 87.964844 L 111.980469 91.972656 L 111.9375 95.980469 L 120.039062 95.980469 Z M 120.039062 60.039062 L 120.039062 55.992188 L 111.941406 55.992188 L 111.941406 64.089844 L 120.039062 64.089844 Z M 120.039062 60.039062 "/>
</g>
</svg>
