<?xml version="1.0" encoding="UTF-8"?>
<svg xmlns="http://www.w3.org/2000/svg" xmlns:xlink="http://www.w3.org/1999/xlink" width="128" height="128" viewBox="0 0 128 128" version="1.1">
<g id="surface1">
<path style=" stroke:none;fill-rule:nonzero;fill:rgb(74.509804%,74.509804%,74.509804%);fill-opacity:1;" d="M 92 8 C 107.464844 8 120 20.535156 120 36 C 120 44.957031 115.792969 52.875 109.25 58 C 110.929688 59.464844 112 61.585938 112 64 C 111.984375 80 112 88.417969 112 112 C 112 116.433594 108.429688 120 104 120 L 32 120 C 27.566406 120 24 116.433594 24 112 L 24 94.75 L 3.5 110 C 3.34375 110.105469 3.175781 110.1875 3 110.25 C 2.753906 110.289062 2.496094 110.289062 2.25 110.25 C 2.085938 110.265625 1.914062 110.265625 1.75 110.25 C 1.574219 110.1875 1.40625 110.105469 1.25 110 C 1.074219 109.9375 0.90625 109.855469 0.75 109.75 C 0.660156 109.671875 0.578125 109.589844 0.5 109.5 C 0.410156 109.421875 0.328125 109.339844 0.25 109.25 C 0.144531 109.097656 0.0625 108.929688 0 108.75 C -0.015625 108.585938 -0.015625 108.417969 0 108.25 L 0 59.75 C -0.015625 59.585938 -0.015625 59.417969 0 59.25 C 0.0664062 59.074219 0.144531 58.90625 0.25 58.75 C 0.332031 58.660156 0.410156 58.578125 0.5 58.5 C 0.582031 58.410156 0.660156 58.328125 0.75 58.253906 C 0.828125 58.164062 0.910156 58.078125 1 58.003906 C 1.078125 57.914062 1.160156 57.828125 1.25 57.753906 C 1.40625 57.648438 1.574219 57.5625 1.75 57.503906 C 1.996094 57.464844 2.25 57.464844 2.5 57.503906 C 2.582031 57.5 2.664062 57.5 2.75 57.503906 C 2.839844 57.582031 2.921875 57.664062 2.996094 57.753906 C 3.175781 57.816406 3.34375 57.898438 3.496094 58.003906 L 23.996094 73.253906 L 23.996094 64.003906 C 23.996094 61.589844 25.070312 59.46875 26.746094 58.003906 C 20.207031 52.878906 15.996094 44.957031 15.996094 36.003906 C 15.996094 20.539062 28.535156 8.003906 43.996094 8.003906 C 54.265625 8.003906 63.125 13.511719 67.996094 21.753906 C 72.871094 13.511719 81.730469 8.003906 91.996094 8.003906 Z M 92 24 C 85.371094 24 80 29.371094 80 36 C 80 42.628906 85.371094 48 92 48 C 98.628906 48 104 42.628906 104 36 C 104 29.371094 98.628906 24 92 24 Z M 44 24 C 37.371094 24 32 29.371094 32 36 C 32 42.628906 37.371094 48 44 48 C 50.628906 48 56 42.628906 56 36 C 56 29.371094 50.628906 24 44 24 Z M 68 50.25 C 66.734375 52.390625 65.269531 54.273438 63.5 56 L 72.5 56 C 70.730469 54.273438 69.265625 52.390625 68 50.25 Z M 68 50.25 "/>
<path style=" stroke:none;fill-rule:nonzero;fill:rgb(100%,100%,100%);fill-opacity:1;" d="M 30.707031 119.816406 C 28.453125 119.488281 26.046875 117.773438 25.042969 115.78125 C 24.09375 113.90625 24.117188 114.183594 24.023438 104.105469 L 23.929688 94.730469 L 14.683594 101.617188 C 9.601562 105.402344 4.890625 108.898438 4.21875 109.378906 C 2.839844 110.375 2.296875 110.472656 1.234375 109.933594 C -0.0351562 109.285156 0.0742188 111.707031 0.0742188 83.953125 L 0.0742188 59.035156 L 0.796875 58.316406 C 1.660156 57.449219 2.359375 57.359375 3.339844 57.992188 C 3.675781 58.210938 8.449219 61.738281 13.941406 65.828125 L 23.929688 73.269531 L 24.019531 67.867188 C 24.097656 63.230469 24.152344 62.347656 24.40625 61.640625 C 24.8125 60.515625 25.425781 59.480469 26.175781 58.671875 L 26.800781 57.992188 L 25.386719 56.761719 C 21.597656 53.464844 18.453125 48.453125 17.105469 43.5625 C 16.320312 40.710938 16.175781 39.503906 16.183594 35.882812 C 16.191406 31.949219 16.417969 30.496094 17.570312 27.03125 C 20.519531 18.175781 27.863281 11.34375 36.976562 8.976562 C 44.871094 6.925781 53.390625 8.464844 60.003906 13.140625 C 62.042969 14.582031 65.253906 17.796875 66.613281 19.761719 C 67.199219 20.609375 67.765625 21.421875 67.867188 21.566406 C 68.027344 21.796875 68.089844 21.761719 68.324219 21.308594 C 68.925781 20.144531 71.132812 17.453125 72.839844 15.808594 C 79.667969 9.207031 89.265625 6.636719 98.699219 8.875 C 101.761719 9.601562 105.019531 11.078125 107.964844 13.070312 C 109.941406 14.410156 113.59375 18.0625 114.925781 20.035156 C 118.484375 25.304688 120.117188 30.910156 119.875 37.039062 C 119.566406 44.847656 116.34375 51.613281 110.410156 56.925781 L 109.222656 57.988281 L 109.785156 58.609375 C 110.59375 59.503906 111.117188 60.390625 111.550781 61.585938 L 111.929688 62.628906 L 111.976562 87.0625 C 112.003906 102.777344 111.960938 111.992188 111.855469 112.875 C 111.421875 116.476562 108.664062 119.339844 105.160156 119.832031 C 103.707031 120.035156 32.113281 120.023438 30.707031 119.816406 Z M 71.335938 54.691406 C 70.652344 53.914062 69.640625 52.613281 69.085938 51.804688 C 68.53125 50.992188 68.023438 50.332031 67.960938 50.335938 C 67.898438 50.335938 67.597656 50.75 67.292969 51.25 C 66.757812 52.136719 65.527344 53.71875 64.125 55.324219 L 63.4375 56.109375 L 72.578125 56.109375 Z M 47.703125 47.453125 C 52.972656 45.679688 56.3125 40.785156 55.996094 35.3125 C 55.738281 30.90625 53.15625 27.046875 49.199219 25.15625 C 47.378906 24.285156 46.152344 24.015625 43.988281 24.015625 C 41.742188 24.015625 40.574219 24.289062 38.542969 25.277344 C 37.382812 25.84375 36.863281 26.234375 35.5625 27.539062 C 34.285156 28.820312 33.859375 29.375 33.292969 30.519531 C 32.289062 32.539062 32.027344 33.691406 32.027344 36.050781 C 32.027344 37.65625 32.101562 38.261719 32.410156 39.265625 C 33.789062 43.695312 37.0625 46.789062 41.429688 47.785156 C 43.058594 48.160156 46.085938 48 47.703125 47.453125 Z M 94.59375 47.769531 C 96.03125 47.464844 98.066406 46.496094 99.429688 45.460938 C 101.371094 43.992188 102.902344 41.695312 103.613281 39.179688 C 104.054688 37.617188 104.132812 34.769531 103.773438 33.324219 C 102.652344 28.824219 99.175781 25.347656 94.675781 24.226562 C 93.40625 23.910156 90.398438 23.949219 89.0625 24.296875 C 85.566406 25.207031 82.730469 27.574219 81.113281 30.929688 C 79.453125 34.371094 79.640625 38.769531 81.585938 42.054688 C 83.304688 44.949219 86.199219 47.050781 89.476562 47.773438 C 90.8125 48.070312 93.183594 48.066406 94.59375 47.769531 Z M 94.59375 47.769531 "/>
</g>
</svg>
