<?xml version="1.0" encoding="UTF-8"?>
<svg xmlns="http://www.w3.org/2000/svg" xmlns:xlink="http://www.w3.org/1999/xlink" width="128" height="128" viewBox="0 0 128 128" version="1.1">
<g id="surface1">
<path style=" stroke:none;fill-rule:nonzero;fill:rgb(74.509804%,74.509804%,74.509804%);fill-opacity:1;" d="M 48 16 C 43.601562 16 40 19.601562 40 24 L 40 32 L 16 32 C 11.582031 32 8 35.601562 8 40 L 8 104 C 8 108.398438 11.582031 112 16 112 L 112 112 C 116.417969 112 120 108.398438 120 104 L 120 40 C 120 35.601562 116.417969 32 112 32 L 88 32 L 88 24 C 88 19.601562 84.398438 16 80 16 Z M 64 40 C 81.671875 40 96 54.328125 96 72 C 96 89.671875 81.671875 104 64 104 C 46.328125 104 32 89.671875 32 72 C 32 54.328125 46.328125 40 64 40 Z M 64 56 C 55.164062 56 48 63.164062 48 72 C 48 80.835938 55.164062 88 64 88 C 72.835938 88 80 80.835938 80 72 C 80 63.164062 72.835938 56 64 56 Z M 64 56 "/>
<path style=" stroke:none;fill-rule:nonzero;fill:rgb(100%,100%,100%);fill-opacity:1;" d="M 61.820312 87.804688 C 55.523438 86.925781 50.273438 82.257812 48.566406 76.011719 C 48.253906 74.875 48.203125 74.277344 48.210938 71.875 C 48.21875 69.300781 48.257812 68.945312 48.671875 67.59375 C 50.011719 63.222656 52.972656 59.703125 56.949219 57.75 C 59.578125 56.460938 60.722656 56.210938 64.050781 56.210938 C 66.644531 56.207031 66.96875 56.242188 68.34375 56.664062 C 74.746094 58.625 79.039062 63.695312 79.816406 70.222656 C 80.515625 76.085938 77.785156 81.9375 72.792969 85.257812 C 71.101562 86.382812 69.910156 86.914062 67.929688 87.417969 C 66.152344 87.871094 63.503906 88.039062 61.820312 87.804688 Z M 61.820312 87.804688 "/>
<path style=" stroke:none;fill-rule:nonzero;fill:rgb(100%,100%,100%);fill-opacity:1;" d="M 13.984375 111.65625 C 11.371094 110.953125 9.328125 109.023438 8.433594 106.421875 L 8.082031 105.390625 L 8.035156 72.867188 C 8 51.144531 8.042969 39.902344 8.15625 39.019531 C 8.605469 35.554688 11.355469 32.707031 14.769531 32.175781 C 15.417969 32.070312 20.585938 32.007812 27.933594 32.003906 L 40.027344 32.003906 L 40.027344 27.734375 C 40.027344 25.386719 40.101562 23.0625 40.191406 22.574219 C 40.804688 19.277344 43.671875 16.585938 47.042969 16.144531 C 47.910156 16.03125 54.066406 15.988281 64.875 16.023438 L 81.386719 16.070312 L 82.589844 16.511719 C 84.519531 17.21875 86.1875 18.667969 87.0625 20.402344 C 87.804688 21.878906 87.90625 22.722656 87.90625 27.492188 L 87.90625 31.988281 L 100.742188 32.039062 L 113.578125 32.085938 L 114.675781 32.515625 C 116.515625 33.230469 117.828125 34.335938 118.839844 36.023438 C 120.003906 37.960938 119.933594 35.640625 119.933594 72.078125 C 119.933594 108.203125 120.003906 105.773438 118.925781 107.792969 C 118.066406 109.40625 116.457031 110.800781 114.679688 111.476562 L 113.742188 111.828125 L 64.296875 111.859375 C 22.140625 111.886719 14.722656 111.855469 13.984375 111.65625 Z M 68.40625 103.738281 C 80.453125 102.023438 90.515625 93.6875 94.339844 82.246094 C 95.53125 78.691406 95.996094 75.78125 95.996094 71.925781 C 95.996094 66.597656 94.816406 61.820312 92.34375 57.101562 C 84.230469 41.644531 65.316406 35.550781 49.6875 43.359375 C 37.800781 49.292969 30.78125 61.976562 32.109375 75.117188 C 33.59375 89.789062 44.722656 101.472656 59.34375 103.714844 C 61.441406 104.035156 66.21875 104.046875 68.40625 103.738281 Z M 68.40625 103.738281 "/>
</g>
</svg>
