<?xml version="1.0" encoding="UTF-8"?>
<svg xmlns="http://www.w3.org/2000/svg" xmlns:xlink="http://www.w3.org/1999/xlink" width="128" height="128" viewBox="0 0 128 128" version="1.1">
<g id="surface1">
<path style=" stroke:none;fill-rule:nonzero;fill:rgb(74.509804%,74.509804%,74.509804%);fill-opacity:1;" d="M 56.480469 0.078125 C 52.84375 0.476562 49.410156 1.851562 46.480469 4.078125 C 42.574219 7.050781 39.980469 11.71875 39.980469 17.578125 L 39.980469 60.078125 C 39.980469 60.078125 41.867188 64.136719 43.980469 64.136719 C 46.09375 64.136719 47.980469 60.078125 47.980469 60.078125 L 47.980469 17.578125 C 47.980469 13.988281 49.351562 11.949219 51.480469 10.328125 C 53.605469 8.710938 56.789062 7.929688 59.980469 8.078125 C 63.167969 8.230469 66.253906 9.3125 68.480469 11.328125 C 70.707031 13.347656 72.230469 16.007812 72.230469 20.328125 C 72.230469 37.652344 83.941406 48.402344 96.230469 48.082031 C 103.082031 47.902344 109.734375 44.265625 114.230469 37.582031 L 109.730469 29.582031 C 106.726562 36.90625 101.1875 39.945312 95.980469 40.082031 C 88.296875 40.28125 80.230469 34.242188 80.230469 20.328125 C 80.230469 13.996094 77.535156 8.777344 73.730469 5.328125 C 69.921875 1.882812 65.082031 0.3125 60.230469 0.078125 C 59.015625 0.0234375 57.691406 -0.0507812 56.480469 0.078125 Z M 111.980469 16.078125 C 111.980469 16.445312 111.988281 16.726562 111.980469 17.078125 L 118.230469 28.078125 C 118.320312 27.753906 118.394531 27.414062 118.480469 27.078125 Z M 111.980469 18.828125 C 111.933594 19.679688 111.820312 20.539062 111.730469 21.328125 L 117.480469 31.082031 C 117.667969 30.582031 117.8125 30.101562 117.980469 29.582031 Z M 111.480469 22.828125 C 111.371094 23.550781 111.125 24.164062 110.980469 24.828125 L 116.230469 33.828125 C 116.464844 33.34375 116.765625 32.839844 116.980469 32.328125 Z M 110.730469 26.328125 C 110.539062 27.042969 110.207031 27.683594 109.980469 28.328125 L 114.730469 36.578125 C 115.050781 36.058594 115.433594 35.632812 115.730469 35.078125 Z M 110.730469 26.328125 "/>
<path style=" stroke:none;fill-rule:nonzero;fill:rgb(74.509804%,74.509804%,74.509804%);fill-opacity:1;" d="M 21.816406 48.078125 L 66.183594 48.078125 C 69.394531 48.078125 72 50.683594 72 53.894531 L 72 106.265625 C 72 109.476562 69.394531 112.078125 66.183594 112.078125 L 21.816406 112.078125 C 18.605469 112.078125 16 109.476562 16 106.265625 L 16 53.894531 C 16 50.683594 18.605469 48.078125 21.816406 48.078125 Z M 21.816406 48.078125 "/>
<path style=" stroke:none;fill-rule:nonzero;fill:rgb(100%,100%,100%);fill-opacity:1;" d="M 20.152344 111.785156 C 18.296875 111.199219 16.90625 109.8125 16.335938 107.976562 C 16.078125 107.140625 16.070312 106.636719 16.070312 80.035156 C 16.070312 53.136719 16.074219 52.941406 16.34375 52.136719 C 16.890625 50.511719 17.847656 49.4375 19.417969 48.6875 L 20.421875 48.203125 L 30.21875 48.167969 L 40.019531 48.128906 L 40.0625 31.574219 C 40.113281 13.269531 40.050781 14.605469 40.976562 11.816406 C 42.378906 7.601562 45.460938 4.234375 49.863281 2.097656 C 52.789062 0.679688 54.53125 0.242188 57.648438 0.132812 C 67.15625 -0.191406 74.535156 3.863281 78.160156 11.402344 C 79.535156 14.261719 79.988281 16.3125 80.171875 20.523438 C 80.398438 25.777344 81.023438 28.59375 82.703125 31.914062 C 84.691406 35.839844 88.222656 38.71875 92.285156 39.722656 C 93.703125 40.070312 96.144531 40.191406 97.578125 39.980469 C 101.035156 39.476562 104.464844 37.511719 106.710938 34.75 C 107.695312 33.542969 109.066406 31.339844 109.429688 30.382812 C 109.550781 30.066406 109.691406 29.804688 109.734375 29.804688 C 109.78125 29.804688 110.800781 31.554688 112 33.691406 L 114.183594 37.574219 L 113.589844 38.40625 C 110.238281 43.089844 105.21875 46.453125 99.804688 47.628906 C 98.644531 47.882812 98.03125 47.925781 95.699219 47.925781 C 93.367188 47.925781 92.75 47.882812 91.597656 47.628906 C 84.546875 46.097656 78.679688 41.316406 75.332031 34.378906 C 73.996094 31.613281 72.980469 28.113281 72.554688 24.835938 C 72.472656 24.203125 72.351562 22.398438 72.285156 20.824219 C 72.136719 17.488281 71.929688 16.457031 71.015625 14.613281 C 69.207031 10.957031 65.476562 8.597656 60.703125 8.101562 C 57.628906 7.78125 54.253906 8.480469 52.058594 9.890625 C 50.453125 10.925781 49.183594 12.386719 48.578125 13.902344 C 47.933594 15.519531 47.933594 15.597656 47.925781 32.378906 L 47.921875 48.136719 L 57.394531 48.136719 C 67.851562 48.136719 67.765625 48.132812 69.183594 48.980469 C 70.613281 49.835938 71.617188 51.394531 71.871094 53.15625 C 72.054688 54.421875 72.054688 105.804688 71.875 107.0625 C 71.554688 109.269531 69.949219 111.152344 67.871094 111.761719 C 67.21875 111.949219 64.761719 111.972656 43.917969 111.964844 C 25.578125 111.957031 20.578125 111.917969 20.152344 111.785156 Z M 20.152344 111.785156 "/>
</g>
</svg>
