<?xml version="1.0" encoding="UTF-8"?>
<svg xmlns="http://www.w3.org/2000/svg" xmlns:xlink="http://www.w3.org/1999/xlink" width="128" height="128" viewBox="0 0 128 128" version="1.1">
<g id="surface1">
<path style=" stroke:none;fill-rule:nonzero;fill:rgb(74.509804%,74.509804%,74.509804%);fill-opacity:1;" d="M 19.761719 8 C 13.191406 8 8.007812 13.183594 8.007812 19.75 L 8.007812 108.246094 C 8.007812 114.8125 13.191406 119.996094 19.761719 119.996094 L 92.261719 119.996094 C 98.828125 119.996094 104.011719 114.816406 104.011719 108.246094 L 104.011719 19.75 C 104.011719 13.183594 98.828125 8 92.261719 8 Z M 16.011719 16 L 96.011719 16 L 96.011719 104 L 16.011719 104 Z M 16.011719 16 "/>
<path style=" stroke:none;fill-rule:nonzero;fill:rgb(100%,100%,100%);fill-opacity:1;" d="M 18.160156 119.816406 C 13.40625 119.125 9.769531 115.9375 8.449219 111.300781 L 8.082031 110.011719 L 8.03125 65.023438 C 8 34.164062 8.039062 19.554688 8.15625 18.507812 C 8.695312 13.808594 11.667969 10.128906 16.171875 8.597656 L 17.492188 8.148438 L 55.214844 8.097656 C 83.058594 8.058594 93.265625 8.097656 94.179688 8.238281 C 98.453125 8.894531 101.878906 11.8125 103.375 16.070312 L 103.839844 17.394531 L 103.882812 63.515625 C 103.921875 109.28125 103.921875 109.648438 103.589844 111.039062 C 103.085938 113.160156 102.121094 114.875 100.539062 116.453125 C 98.480469 118.503906 96.511719 119.472656 93.6875 119.828125 C 91.964844 120.042969 19.640625 120.035156 18.160156 119.816406 Z M 95.996094 59.988281 L 95.996094 15.988281 L 15.921875 15.988281 L 15.921875 103.988281 L 95.996094 103.988281 Z M 95.996094 59.988281 "/>
</g>
</svg>
