<?xml version="1.0" encoding="UTF-8"?>
<svg xmlns="http://www.w3.org/2000/svg" xmlns:xlink="http://www.w3.org/1999/xlink" width="128" height="128" viewBox="0 0 128 128" version="1.1">
<g id="surface1">
<path style=" stroke:none;fill-rule:nonzero;fill:rgb(74.509804%,74.509804%,74.509804%);fill-opacity:1;" d="M 8 40 C 3.578125 40 0.015625 44.183594 0.015625 49.25 L 0.015625 85.75 C 0.015625 90.816406 3.339844 96 7.765625 96 L 15.765625 96 C 15.765625 101.0625 19.5625 104 23.984375 104 L 31.953125 104 C 36.375 104 39.765625 101.0625 39.765625 96 L 87.671875 96 C 87.671875 101.0625 91.402344 104 95.828125 104 L 103.78125 104 C 108.203125 104 111.765625 101.0625 111.765625 96 L 119.78125 96 C 124.203125 96 127.765625 90.8125 127.765625 85.75 L 127.765625 49.25 C 127.683594 44.128906 124.164062 39.96875 119.683594 39.96875 Z M 11.992188 49.535156 C 14.195312 49.535156 15.984375 56.953125 15.984375 68 C 15.984375 79.046875 14.195312 85.902344 11.992188 85.902344 C 9.789062 85.902344 8 79.046875 8 68 C 8 56.953125 9.789062 49.535156 11.992188 49.535156 Z M 27.960938 49.535156 C 30.164062 49.535156 31.953125 58.488281 31.953125 69.535156 C 31.953125 80.582031 29.886719 85.863281 27.683594 85.863281 C 25.476562 85.863281 23.96875 79.046875 23.96875 68 C 23.96875 56.953125 25.757812 49.535156 27.960938 49.535156 Z M 43.652344 49.535156 C 45.855469 49.535156 47.921875 56.953125 47.921875 68 C 47.921875 79.046875 46.132812 85.863281 43.929688 85.863281 C 41.726562 85.863281 39.9375 79.046875 39.9375 68 C 39.9375 56.953125 41.445312 49.535156 43.652344 49.535156 Z M 99.8125 48.015625 C 110.835938 48.015625 119.769531 56.96875 119.769531 68.015625 C 119.769531 79.0625 110.835938 88.015625 99.8125 88.015625 C 88.785156 88.015625 79.851562 79.0625 79.851562 68.015625 C 79.851562 56.96875 88.785156 48.015625 99.8125 48.015625 Z M 99.8125 48.015625 "/>
<path style=" stroke:none;fill-rule:nonzero;fill:rgb(74.509804%,74.509804%,74.509804%);fill-opacity:1;" d="M 111.761719 68 C 111.761719 74.628906 106.386719 80 99.761719 80 C 93.132812 80 87.761719 74.628906 87.761719 68 C 87.761719 61.371094 93.132812 56 99.761719 56 C 106.386719 56 111.761719 61.371094 111.761719 68 Z M 111.761719 68 "/>
<path style=" stroke:none;fill-rule:nonzero;fill:rgb(100%,100%,100%);fill-opacity:1;" d="M 22.445312 103.808594 C 20.542969 103.492188 19.210938 102.792969 17.9375 101.449219 C 16.960938 100.414062 16.148438 98.847656 16.003906 97.722656 C 15.953125 97.308594 15.871094 96.730469 15.828125 96.441406 L 15.746094 95.910156 L 11.003906 95.863281 L 6.265625 95.816406 L 5.292969 95.359375 C 3.296875 94.425781 1.410156 91.949219 0.542969 89.125 L 0.160156 87.890625 L 0.113281 68.128906 C 0.0625 46.050781 0.0117188 47.066406 1.21875 44.632812 C 2.070312 42.90625 3.355469 41.605469 5.015625 40.785156 L 6.25 40.175781 L 121.519531 40.175781 L 122.773438 40.792969 C 125.0625 41.925781 126.882812 44.402344 127.453125 47.160156 C 127.667969 48.203125 127.695312 51.023438 127.65625 68.128906 L 127.613281 87.890625 L 127.226562 89.046875 C 126.253906 91.933594 124.394531 94.328125 122.328125 95.332031 L 121.339844 95.8125 L 116.511719 95.863281 L 111.679688 95.914062 L 111.679688 96.492188 C 111.679688 97.542969 111.175781 99.320312 110.597656 100.296875 C 109.847656 101.566406 108.886719 102.421875 107.46875 103.097656 C 105.765625 103.90625 104.605469 104.023438 98.996094 103.953125 C 94.417969 103.894531 94.027344 103.863281 93.042969 103.515625 C 90.066406 102.460938 88.253906 100.257812 87.84375 97.191406 L 87.671875 95.898438 L 39.699219 95.898438 L 39.695312 96.515625 C 39.691406 97.511719 39.234375 99.175781 38.679688 100.214844 C 37.6875 102.078125 35.675781 103.453125 33.425781 103.8125 C 32.164062 104.015625 23.648438 104.011719 22.445312 103.808594 Z M 103.382812 87.707031 C 107.234375 87.023438 110.664062 85.285156 113.515625 82.574219 C 121.5625 74.921875 121.921875 62.382812 114.324219 54.246094 C 109.097656 48.652344 100.789062 46.566406 93.484375 49.011719 C 87.5625 50.996094 82.816406 55.746094 80.820312 61.683594 C 79.214844 66.453125 79.601562 72.363281 81.804688 76.773438 C 85.886719 84.9375 94.480469 89.292969 103.382812 87.707031 Z M 12.625 85.742188 C 14.007812 85.027344 15.207031 80.917969 15.78125 74.929688 C 16.035156 72.273438 16.03125 63.570312 15.777344 60.894531 C 14.9375 52.113281 13.007812 47.789062 10.964844 50.113281 C 9.078125 52.261719 8 58.746094 8 67.894531 C 8 77.269531 9.144531 83.796875 11.082031 85.5 C 11.71875 86.058594 11.945312 86.09375 12.625 85.742188 Z M 28.582031 85.566406 C 29.859375 84.761719 30.878906 82.058594 31.542969 77.71875 C 31.898438 75.382812 32.042969 66.578125 31.785156 62.996094 C 31.234375 55.359375 29.863281 50.164062 28.246094 49.59375 C 27.511719 49.335938 26.992188 49.75 26.28125 51.160156 C 24.726562 54.230469 23.96875 59.785156 23.964844 68.078125 C 23.960938 74.695312 24.433594 79.644531 25.34375 82.605469 C 26.242188 85.515625 27.230469 86.417969 28.582031 85.566406 Z M 45.234375 85.085938 C 46.199219 83.824219 47.050781 80.65625 47.570312 76.414062 C 47.988281 72.964844 47.992188 63.300781 47.570312 59.921875 C 46.914062 54.660156 45.929688 51.300781 44.667969 50.039062 C 42.984375 48.359375 41.46875 50.75 40.617188 56.4375 C 39.71875 62.441406 39.644531 71.75 40.453125 77.644531 C 41.042969 81.9375 42.171875 85.121094 43.304688 85.6875 C 44.007812 86.042969 44.664062 85.835938 45.234375 85.085938 Z M 45.234375 85.085938 "/>
<path style=" stroke:none;fill-rule:nonzero;fill:rgb(100%,100%,100%);fill-opacity:1;" d="M 96.859375 79.5625 C 93.601562 78.761719 90.765625 76.507812 89.148438 73.429688 C 87.445312 70.1875 87.445312 65.804688 89.148438 62.5625 C 91.273438 58.515625 95.25 56.105469 99.777344 56.109375 C 109.71875 56.125 115.179688 67.386719 109.128906 75.386719 C 107.648438 77.34375 105.234375 78.898438 102.664062 79.558594 C 101.035156 79.972656 98.539062 79.976562 96.859375 79.5625 Z M 96.859375 79.5625 "/>
</g>
</svg>
