<?xml version="1.0" encoding="UTF-8"?>
<svg xmlns="http://www.w3.org/2000/svg" xmlns:xlink="http://www.w3.org/1999/xlink" width="128" height="128" viewBox="0 0 128 128" version="1.1">
<g id="surface1">
<path style=" stroke:none;fill-rule:nonzero;fill:rgb(74.509804%,74.509804%,74.509804%);fill-opacity:1;" d="M 20 8 C 8.921875 8 0 16.921875 0 28 L 0 92 C 0 103.078125 8.921875 112 20 112 L 20 96 C 17.785156 96 16 94.214844 16 92 L 16 80 L 112 80 L 112 92 C 112 94.214844 110.214844 96 108 96 L 108 112 C 119.078125 112 128 103.078125 128 92 L 128 28 C 128 16.921875 119.078125 8 108 8 Z M 20 8 "/>
<path style=" stroke:none;fill-rule:nonzero;fill:rgb(74.509804%,74.509804%,74.509804%);fill-opacity:1;" d="M 23.039062 88.320312 C 23.039062 109.847656 41.429688 127.554688 63.964844 127.554688 C 86.503906 127.554688 105.039062 109.847656 105.039062 88.320312 L 88.902344 88.320312 C 88.902344 101.539062 77.804688 112.140625 63.964844 112.140625 C 50.128906 112.140625 39.175781 101.539062 39.175781 88.320312 Z M 23.039062 88.320312 "/>
<path style=" stroke:none;fill-rule:nonzero;fill:rgb(74.509804%,74.509804%,74.509804%);fill-opacity:1;" d="M 48 88 C 48 96.789062 55.210938 104 64 104 C 72.789062 104 80 96.789062 80 88 L 72 88 C 72 92.464844 68.464844 96 64 96 C 59.535156 96 56 92.464844 56 88 Z M 48 88 "/>
<path style=" stroke:none;fill-rule:nonzero;fill:rgb(100%,100%,100%);fill-opacity:1;" d="M 62.027344 103.8125 C 54.6875 102.855469 48.683594 96.65625 48.167969 89.496094 L 48.066406 88.132812 L 52.015625 88.175781 L 55.960938 88.21875 L 56.074219 89.253906 C 56.335938 91.625 58.09375 94.023438 60.417969 95.171875 C 65.300781 97.582031 71 94.679688 71.921875 89.316406 L 72.125 88.136719 L 76.054688 88.136719 C 79.128906 88.136719 79.980469 88.183594 79.980469 88.347656 C 79.980469 89.191406 79.566406 91.527344 79.21875 92.648438 C 77.339844 98.671875 72.109375 103.042969 65.867188 103.804688 C 64.210938 104.003906 63.539062 104.007812 62.027344 103.808594 Z M 62.027344 103.8125 "/>
<path style=" stroke:none;fill-rule:nonzero;fill:rgb(100%,100%,100%);fill-opacity:1;" d="M 59.921875 127.3125 C 55.171875 126.871094 49.84375 125.34375 45.386719 123.144531 C 32.558594 116.816406 24.050781 104.390625 23.203125 90.746094 C 23.128906 89.539062 23.117188 88.492188 23.179688 88.425781 C 23.238281 88.355469 26.851562 88.320312 31.203125 88.34375 L 39.121094 88.386719 L 39.230469 90.117188 C 39.769531 98.390625 45.035156 105.96875 52.824219 109.675781 C 61.089844 113.613281 70.828125 112.882812 78.511719 107.757812 C 80.644531 106.335938 83.566406 103.402344 84.984375 101.253906 C 87.316406 97.722656 88.609375 93.96875 88.875 89.953125 L 88.980469 88.386719 L 104.910156 88.300781 L 104.910156 89.695312 C 104.910156 95.277344 102.695312 102.589844 99.394531 107.917969 C 97.070312 111.660156 93.699219 115.488281 90.300781 118.234375 C 84.335938 123.050781 76.632812 126.285156 68.992188 127.179688 C 67.046875 127.40625 61.769531 127.484375 59.921875 127.3125 Z M 59.921875 127.3125 "/>
<path style=" stroke:none;fill-rule:nonzero;fill:rgb(100%,100%,100%);fill-opacity:1;" d="M 16.605469 111.644531 C 8.09375 110.21875 1.289062 103.117188 0.246094 94.574219 C 0.105469 93.417969 0.0703125 84.070312 0.113281 58.996094 C 0.179688 21.597656 0.09375 24.640625 1.148438 21.503906 C 3.460938 14.609375 9.574219 9.496094 16.914062 8.316406 C 18.292969 8.097656 23.976562 8.066406 63.96875 8.066406 C 113.433594 8.066406 110.9375 8.019531 113.992188 8.980469 C 117.152344 9.972656 119.578125 11.472656 122.089844 13.992188 C 125.089844 17 126.691406 19.96875 127.527344 24.066406 C 127.855469 25.671875 127.859375 26.261719 127.859375 59.988281 C 127.859375 93.714844 127.855469 94.304688 127.527344 95.910156 C 125.726562 104.738281 118.320312 111.292969 109.5 111.867188 L 108.046875 111.960938 L 108.046875 96.097656 L 108.660156 95.984375 C 110.066406 95.71875 111.503906 94.492188 111.84375 93.265625 C 111.941406 92.925781 112.007812 89.996094 112.007812 86.28125 L 112.011719 79.882812 L 64.007812 79.921875 L 16.007812 79.964844 L 15.957031 86.15625 C 15.925781 90.53125 15.96875 92.554688 16.105469 93.058594 C 16.503906 94.5 17.820312 95.722656 19.265625 95.984375 L 19.886719 96.097656 L 19.886719 111.910156 L 18.9375 111.894531 C 18.414062 111.886719 17.367188 111.773438 16.605469 111.644531 Z M 16.605469 111.644531 "/>
</g>
</svg>
