<?xml version="1.0" encoding="UTF-8"?>
<svg xmlns="http://www.w3.org/2000/svg" xmlns:xlink="http://www.w3.org/1999/xlink" width="128" height="128" viewBox="0 0 128 128" version="1.1">
<g id="surface1">
<path style=" stroke:none;fill-rule:nonzero;fill:rgb(74.509804%,74.509804%,74.509804%);fill-opacity:1;" d="M 25.519531 0 C 15.90625 0 8.019531 7.902344 8.019531 17.5 L 8.019531 24 L 24.019531 24 L 24.019531 17.5 C 24.019531 16.453125 24.53125 16 25.519531 16 L 102.519531 16 C 103.511719 16 104.019531 16.453125 104.019531 17.5 L 104.019531 24 L 120.019531 24 L 120.019531 17.5 C 120.019531 7.902344 112.132812 0 102.519531 0 Z M 25.519531 0 "/>
<path style=" stroke:none;fill-rule:nonzero;fill:rgb(74.509804%,74.509804%,74.509804%);fill-opacity:1;" d="M 25.519531 96 C 15.90625 96 8.019531 104.152344 8.019531 113.75 L 8.019531 128.25 L 24.019531 128.25 L 24.019531 113.75 C 24.019531 112.703125 24.53125 112 25.519531 112 L 102.519531 112 C 103.511719 112 104.019531 112.703125 104.019531 113.75 L 104.019531 128 L 120.019531 128 L 120.019531 113.75 C 119.941406 104.152344 112.019531 95.992188 102.421875 95.992188 L 25.421875 95.992188 Z M 25.519531 96 "/>
<path style=" stroke:none;fill-rule:nonzero;fill:rgb(74.509804%,74.509804%,74.509804%);fill-opacity:1;" d="M 25.519531 32 C 15.90625 32 8.019531 39.902344 8.019531 49.5 L 8.019531 56 L 24.019531 56 L 24.019531 49.5 C 24.019531 48.453125 24.53125 48 25.519531 48 L 102.519531 48 C 103.511719 48 104.019531 48.453125 104.019531 49.5 L 104.019531 56 L 120.019531 56 L 120.019531 49.5 C 120.019531 39.902344 112.132812 32 102.519531 32 Z M 25.519531 32 "/>
<path style=" stroke:none;fill-rule:nonzero;fill:rgb(74.509804%,74.509804%,74.509804%);fill-opacity:1;" d="M 25.519531 64 C 15.90625 64 8.019531 71.902344 8.019531 81.5 L 8.019531 88 L 24.019531 88 L 24.019531 81.5 C 24.019531 80.453125 24.53125 80 25.519531 80 L 102.519531 80 C 103.511719 80 104.019531 80.453125 104.019531 81.5 L 104.019531 88 L 120.019531 88 L 120.019531 81.5 C 120.019531 71.902344 112.132812 64 102.519531 64 Z M 25.519531 64 "/>
<path style=" stroke:none;fill-rule:nonzero;fill:rgb(100%,100%,100%);fill-opacity:1;" d="M 8.074219 119.839844 C 8.132812 112.613281 8.183594 111.265625 8.429688 110.199219 C 9.707031 104.6875 13.136719 100.289062 18.039062 97.867188 C 20.222656 96.789062 21.867188 96.34375 24.414062 96.128906 C 26.996094 95.914062 101.171875 95.914062 103.609375 96.128906 C 105.980469 96.339844 107.65625 96.777344 109.597656 97.699219 C 114.859375 100.191406 118.566406 104.996094 119.65625 110.734375 C 119.855469 111.796875 119.90625 113.601562 119.90625 119.980469 L 119.90625 127.90625 L 104.019531 127.90625 L 104.019531 112.832031 L 103.207031 112.019531 L 24.800781 112.019531 L 24.398438 112.445312 L 24 112.871094 L 23.949219 120.554688 L 23.902344 128.238281 L 8.003906 128.238281 Z M 8.074219 119.839844 "/>
<path style=" stroke:none;fill-rule:nonzero;fill:rgb(100%,100%,100%);fill-opacity:1;" d="M 8.027344 84.5 C 8.027344 79.183594 8.378906 77.09375 9.753906 74.179688 C 10.734375 72.109375 11.65625 70.796875 13.226562 69.222656 C 16.039062 66.414062 19.554688 64.683594 23.457031 64.195312 C 25.34375 63.957031 102.582031 63.957031 104.519531 64.195312 C 111.632812 65.066406 117.363281 70.011719 119.363281 77.015625 C 119.765625 78.421875 119.792969 78.765625 119.863281 83.261719 L 119.9375 88.019531 L 104.019531 88.019531 L 104.019531 84.398438 C 104.019531 81.078125 103.992188 80.742188 103.703125 80.386719 L 103.386719 79.996094 L 24.753906 79.996094 L 24.375 80.371094 C 24.007812 80.738281 23.996094 80.851562 23.949219 84.382812 L 23.898438 88.019531 L 8.027344 88.019531 Z M 8.027344 84.5 "/>
<path style=" stroke:none;fill-rule:nonzero;fill:rgb(100%,100%,100%);fill-opacity:1;" d="M 8.070312 51.488281 C 8.160156 46.609375 8.355469 45.402344 9.5 42.660156 C 11.742188 37.28125 17.195312 33.082031 23.007812 32.253906 C 23.972656 32.117188 35.289062 32.082031 64.792969 32.117188 L 105.257812 32.164062 L 106.851562 32.605469 C 112.53125 34.175781 116.925781 38.191406 118.90625 43.621094 C 119.746094 45.917969 119.90625 47.242188 119.90625 51.792969 L 119.90625 55.914062 L 104.019531 55.914062 L 104.019531 52.347656 C 104.019531 48.78125 104.019531 48.78125 103.613281 48.375 L 103.207031 47.96875 L 64.046875 47.96875 C 38.820312 47.96875 24.78125 48.027344 24.585938 48.132812 C 24.035156 48.425781 23.914062 49.230469 23.914062 52.628906 L 23.914062 55.914062 L 7.988281 55.914062 Z M 8.070312 51.488281 "/>
<path style=" stroke:none;fill-rule:nonzero;fill:rgb(100%,100%,100%);fill-opacity:1;" d="M 8.027344 20.539062 C 8.03125 18.648438 8.101562 16.472656 8.191406 15.699219 C 8.882812 9.660156 12.496094 4.503906 17.875 1.875 C 20.007812 0.835938 21.941406 0.324219 24.496094 0.125 C 25.882812 0.0195312 40.488281 -0.0195312 65.621094 0.015625 C 104.457031 0.0703125 104.601562 0.0703125 106.089844 0.414062 C 111.429688 1.652344 115.726562 5.011719 118.125 9.820312 C 119.601562 12.785156 119.90625 14.507812 119.90625 19.851562 L 119.90625 23.972656 L 104.019531 23.972656 L 104.019531 20.363281 C 104.019531 16.335938 104.003906 16.269531 102.9375 16.023438 C 101.882812 15.777344 25.628906 15.832031 24.914062 16.078125 C 23.992188 16.394531 23.921875 16.707031 23.917969 20.539062 L 23.914062 23.972656 L 8.027344 23.972656 Z M 8.027344 20.539062 "/>
</g>
</svg>
