<?xml version="1.0" encoding="UTF-8"?>
<svg xmlns="http://www.w3.org/2000/svg" xmlns:xlink="http://www.w3.org/1999/xlink" width="128" height="128" viewBox="0 0 128 128" version="1.1">
<g id="surface1">
<path style=" stroke:none;fill-rule:nonzero;fill:rgb(74.509804%,74.509804%,74.509804%);fill-opacity:1;" d="M 31.898438 72.902344 C 39.464844 70.691406 47.535156 75.285156 49.921875 83.160156 L 55.324219 100.96875 C 57.710938 108.84375 53.515625 117.023438 45.949219 119.234375 C 38.382812 121.445312 30.316406 116.855469 27.925781 108.976562 L 22.527344 91.167969 C 20.136719 83.292969 24.335938 75.117188 31.898438 72.902344 Z M 31.898438 72.902344 "/>
<path style=" stroke:none;fill-rule:nonzero;fill:rgb(74.509804%,74.509804%,74.509804%);fill-opacity:1;" d="M 63.761719 8 C 37.316406 8 15.570312 32.066406 16.011719 53.75 C 16.398438 72.675781 22.480469 91.3125 24.011719 96 L 36.214844 96 C 26.921875 77.667969 27.824219 54.75 27.824219 54.75 C 27.824219 35.769531 43.875 20.25 63.761719 20.25 C 83.644531 20.25 99.757812 34.867188 99.695312 54.5 C 99.507812 67.894531 98.324219 75.769531 91.65625 96 L 104.222656 96 C 106.015625 90.84375 112.011719 70.476562 112.011719 53.75 C 112.011719 31.113281 90.203125 8 63.761719 8 Z M 63.761719 8 "/>
<path style=" stroke:none;fill-rule:nonzero;fill:rgb(74.509804%,74.509804%,74.509804%);fill-opacity:1;" d="M 96.105469 73.109375 C 88.539062 70.894531 80.472656 75.488281 78.082031 83.363281 L 72.683594 101.171875 C 70.292969 109.046875 74.492188 117.226562 82.054688 119.4375 C 89.621094 121.648438 97.691406 117.058594 100.078125 109.179688 L 105.480469 91.375 C 107.867188 83.496094 103.671875 75.320312 96.105469 73.109375 Z M 96.105469 73.109375 "/>
<path style=" stroke:none;fill-rule:nonzero;fill:rgb(100%,100%,100%);fill-opacity:1;" d="M 84.273438 119.828125 C 77.441406 118.925781 72.515625 113.476562 72.113281 106.378906 C 72.046875 105.261719 72.097656 104.277344 72.265625 103.328125 C 72.625 101.285156 78.234375 82.882812 79.003906 81.230469 C 79.859375 79.390625 80.84375 78.046875 82.417969 76.566406 C 86.371094 72.859375 91.851562 71.671875 96.890625 73.433594 C 97.425781 73.621094 97.894531 73.746094 97.929688 73.714844 C 98.050781 73.589844 98.785156 69.023438 99.035156 66.839844 C 99.742188 60.636719 99.914062 52.613281 99.40625 49.421875 C 97.160156 35.285156 87.007812 24.621094 72.535156 21.203125 C 66.851562 19.859375 59.914062 19.945312 54.296875 21.425781 C 39.96875 25.199219 29.421875 37.171875 27.960938 51.304688 C 27.710938 53.726562 27.859375 62.714844 28.207031 66.015625 C 28.558594 69.367188 29.152344 73.667969 29.28125 73.8125 C 29.34375 73.878906 29.910156 73.71875 30.542969 73.453125 C 33.289062 72.304688 37.046875 72.128906 39.863281 73.027344 C 44.222656 74.414062 47.664062 77.605469 49.375 81.855469 C 49.980469 83.347656 55.53125 101.796875 55.710938 102.894531 C 55.949219 104.367188 55.914062 107.097656 55.636719 108.390625 C 54.53125 113.597656 51.148438 117.453125 46.300781 119.035156 C 44.285156 119.695312 41.351562 119.867188 39.316406 119.445312 C 34.839844 118.519531 30.855469 115.378906 28.878906 111.21875 C 28.554688 110.535156 27.441406 107.179688 26.40625 103.765625 C 25.367188 100.351562 24.105469 96.234375 23.59375 94.621094 C 19.074219 80.28125 16.464844 66.414062 16.144531 55.035156 C 16.039062 51.335938 16.195312 49.136719 16.753906 46.351562 C 19.554688 32.472656 30.109375 19.417969 43.90625 12.757812 C 50.933594 9.367188 57.871094 7.859375 65.289062 8.117188 C 75.414062 8.472656 84.789062 11.964844 93.371094 18.578125 C 95.617188 20.3125 100.054688 24.6875 101.832031 26.925781 C 108.824219 35.726562 112.378906 45.878906 111.933594 55.777344 C 111.523438 64.761719 110.183594 73.511719 107.628906 83.855469 C 106.386719 88.890625 104.769531 94.453125 104.152344 95.8125 C 104.027344 96.085938 102.957031 99.503906 101.769531 103.410156 C 99.480469 110.933594 98.984375 112.160156 97.421875 114.195312 C 94.871094 117.507812 90.902344 119.625 86.75 119.882812 C 85.980469 119.929688 84.863281 119.90625 84.273438 119.828125 Z M 84.273438 119.828125 "/>
</g>
</svg>
