<?xml version="1.0" encoding="UTF-8"?>
<svg xmlns="http://www.w3.org/2000/svg" xmlns:xlink="http://www.w3.org/1999/xlink" width="128" height="128" viewBox="0 0 128 128" version="1.1">
<g id="surface1">
<path style=" stroke:none;fill-rule:nonzero;fill:rgb(74.509804%,74.509804%,74.509804%);fill-opacity:1;" d="M 28 0 C 28 0 16 0 16 12 L 16 84 C 16 96 28 96 28 96 L 40 96 L 40 112 C 40 116.433594 43.566406 120 48 120 L 80 120 C 84.433594 120 88 116.433594 88 112 L 88 96 L 100 96 C 112 96 112 84 112 84 L 112 12 C 112 0 100 0 100 0 Z M 32 16 L 48 16 L 48 32 L 32 32 Z M 56 16 L 72 16 L 72 32 L 56 32 Z M 80 16 L 96 16 L 96 32 L 80 32 Z M 32 40 L 48 40 L 48 56 L 32 56 Z M 56 40 L 72 40 L 72 56 L 56 56 Z M 80 40 L 96 40 L 96 56 L 80 56 Z M 32 64 L 48 64 L 48 80 L 32 80 Z M 56 64 L 72 64 L 72 80 L 56 80 Z M 80 64 L 96 64 L 96 80 L 80 80 Z M 56 88 L 72 88 L 72 104 L 56 104 Z M 56 88 "/>
<path style=" stroke:none;fill-rule:nonzero;fill:rgb(100%,100%,100%);fill-opacity:1;" d="M 46.632812 119.816406 C 45.488281 119.625 43.621094 118.738281 42.726562 117.960938 C 41.882812 117.222656 41.027344 115.941406 40.503906 114.636719 L 40.109375 113.644531 L 40.0625 104.769531 L 40.011719 95.898438 L 33.433594 95.898438 C 28.023438 95.898438 26.625 95.851562 25.558594 95.628906 C 20.328125 94.554688 17 91.253906 16.257812 86.398438 C 16.132812 85.601562 16.09375 73.640625 16.128906 47.277344 C 16.175781 11.269531 16.191406 9.25 16.472656 8.3125 C 17.042969 6.417969 17.90625 4.921875 19.140625 3.6875 C 21.199219 1.632812 23.816406 0.488281 27.253906 0.136719 C 28.519531 0.0078125 39.699219 -0.03125 65.289062 0.0078125 L 101.527344 0.0585938 L 103.132812 0.5 C 105.574219 1.175781 107.21875 2.097656 108.796875 3.679688 C 110.300781 5.1875 110.96875 6.375 111.5625 8.589844 L 111.929688 9.964844 L 111.929688 85.414062 L 111.550781 86.898438 C 110.453125 91.234375 107.972656 94.074219 104.167969 95.359375 L 102.847656 95.808594 L 95.375 95.863281 L 87.90625 95.914062 L 87.90625 104.542969 C 87.90625 111.996094 87.871094 113.292969 87.640625 114.070312 C 86.855469 116.710938 85.132812 118.554688 82.527344 119.542969 L 81.550781 119.914062 L 64.542969 119.941406 C 54.828125 119.957031 47.152344 119.902344 46.632812 119.816406 Z M 72.058594 95.980469 L 72.058594 87.972656 L 55.878906 87.972656 L 55.878906 103.988281 L 72.058594 103.988281 Z M 48.078125 72 L 48.035156 63.949219 L 32.019531 63.949219 L 31.976562 72 L 31.933594 80.046875 L 48.121094 80.046875 Z M 72.015625 72 L 71.972656 63.949219 L 55.960938 63.949219 L 55.917969 72 L 55.875 80.046875 L 72.058594 80.046875 Z M 95.996094 71.957031 L 95.996094 63.867188 L 79.980469 63.867188 L 79.980469 80.046875 L 95.996094 80.046875 Z M 48.078125 47.976562 L 48.121094 39.929688 L 31.9375 39.929688 L 31.9375 56.113281 L 39.988281 56.070312 L 48.035156 56.027344 Z M 72.058594 48.015625 L 72.058594 39.925781 L 64.007812 39.96875 L 55.960938 40.011719 L 55.917969 47.851562 C 55.894531 52.167969 55.910156 55.789062 55.953125 55.902344 C 56.015625 56.0625 57.785156 56.109375 64.042969 56.109375 L 72.058594 56.109375 Z M 95.996094 48.019531 L 95.996094 39.929688 L 79.980469 39.929688 L 79.980469 56.109375 L 95.996094 56.109375 Z M 48.117188 23.996094 L 48.117188 15.988281 L 31.9375 15.988281 L 31.9375 32.003906 L 48.117188 32.003906 Z M 72.058594 23.996094 L 72.058594 15.988281 L 55.878906 15.988281 L 55.878906 32.003906 L 72.058594 32.003906 Z M 95.996094 23.996094 L 95.996094 15.988281 L 79.980469 15.988281 L 79.980469 32.003906 L 95.996094 32.003906 Z M 95.996094 23.996094 "/>
</g>
</svg>
