<?xml version="1.0" encoding="UTF-8"?>
<svg xmlns="http://www.w3.org/2000/svg" xmlns:xlink="http://www.w3.org/1999/xlink" width="128" height="128" viewBox="0 0 128 128" version="1.1">
<g id="surface1">
<path style=" stroke:none;fill-rule:nonzero;fill:rgb(74.509804%,74.509804%,74.509804%);fill-opacity:1;" d="M 8 16 C 3.566406 16 0 19.566406 0 24 L 0 104 C 0 108.433594 3.566406 112 8 112 L 120 112 C 124.433594 112 128 108.433594 128 104 L 128 24 C 128 19.566406 124.433594 16 120 16 Z M 16 32 L 32 32 L 32 48 L 16 48 Z M 40 32 L 56 32 L 56 48 L 40 48 Z M 64 32 L 80 32 L 80 48 L 64 48 Z M 88 32 L 104 32 L 104 48 L 88 48 Z M 24 56 L 40 56 L 40 72 L 24 72 Z M 48 56 L 64 56 L 64 72 L 48 72 Z M 72 56 L 88 56 L 88 72 L 72 72 Z M 96 56 L 112 56 L 112 72 L 96 72 Z M 16 80 L 32 80 L 32 96 L 16 96 Z M 40 80 L 88 80 L 88 96 L 40 96 Z M 96 80 L 120 80 L 120 96 L 96 96 Z M 96 80 "/>
<path style=" stroke:none;fill-rule:nonzero;fill:rgb(100%,100%,100%);fill-opacity:1;" d="M 5.867188 111.648438 C 3.152344 110.917969 0.832031 108.449219 0.257812 105.671875 C 0.125 105.046875 0.0742188 93.039062 0.0742188 63.894531 C 0.0742188 19.105469 0.0078125 22.097656 1.023438 20.234375 C 1.992188 18.457031 3.507812 17.1875 5.539062 16.453125 L 6.59375 16.070312 L 63.058594 16.027344 C 99.292969 15.996094 120.003906 16.039062 120.871094 16.140625 C 122.71875 16.363281 124.125 17.027344 125.449219 18.296875 C 126.585938 19.390625 127.195312 20.371094 127.597656 21.773438 C 127.835938 22.601562 127.859375 26.613281 127.820312 64.367188 L 127.777344 106.050781 L 127.160156 107.339844 C 126.109375 109.542969 124.285156 111.0625 121.96875 111.664062 C 120.554688 112.035156 7.238281 112.019531 5.867188 111.648438 Z M 32.0625 88.011719 L 32.019531 79.964844 L 16.007812 79.964844 L 15.964844 88.011719 L 15.921875 96.0625 L 32.105469 96.0625 Z M 88.070312 87.972656 L 88.070312 79.882812 L 64.007812 79.921875 L 39.945312 79.964844 L 39.902344 87.808594 C 39.878906 92.121094 39.894531 95.742188 39.9375 95.855469 C 40 96.019531 44.976562 96.0625 64.042969 96.0625 L 88.070312 96.0625 Z M 120.0625 88.011719 L 120.015625 79.964844 L 108.007812 79.921875 L 95.996094 79.878906 L 95.996094 96.0625 L 120.101562 96.0625 Z M 40.027344 64.03125 L 40.027344 55.941406 L 24.011719 55.941406 L 24.011719 72.121094 L 40.027344 72.121094 Z M 64.050781 64.03125 L 64.050781 56.027344 L 56 55.984375 L 47.953125 55.941406 L 47.953125 72.125 L 56 72.082031 L 64.050781 72.039062 Z M 88.070312 64.03125 L 88.070312 55.941406 L 71.890625 55.941406 L 71.890625 63.921875 C 71.890625 68.3125 71.941406 71.953125 72 72.011719 C 72.0625 72.074219 75.703125 72.121094 80.089844 72.121094 L 88.070312 72.121094 Z M 112.011719 64.03125 L 112.011719 55.941406 L 95.996094 55.941406 L 95.996094 72.121094 L 112.011719 72.121094 Z M 32.101562 40.011719 L 32.101562 32.003906 L 15.921875 32.003906 L 15.921875 48.019531 L 32.101562 48.019531 Z M 56.042969 40.011719 L 56.042969 32.003906 L 39.863281 32.003906 L 39.863281 39.902344 C 39.863281 44.246094 39.914062 47.847656 39.972656 47.910156 C 40.035156 47.96875 43.671875 48.019531 48.0625 48.019531 L 56.042969 48.019531 Z M 79.980469 40.011719 L 79.980469 32.003906 L 63.96875 32.003906 L 63.96875 48.019531 L 79.980469 48.019531 Z M 104.085938 40.011719 L 104.085938 32.003906 L 87.90625 32.003906 L 87.90625 48.019531 L 104.085938 48.019531 Z M 104.085938 40.011719 "/>
</g>
</svg>
