<?xml version="1.0" encoding="UTF-8"?>
<svg xmlns="http://www.w3.org/2000/svg" xmlns:xlink="http://www.w3.org/1999/xlink" width="128" height="128" viewBox="0 0 128 128" version="1.1">
<g id="surface1">
<path style=" stroke:none;fill-rule:nonzero;fill:rgb(74.509804%,74.509804%,74.509804%);fill-opacity:1;" d="M 62.117188 0 L 54.574219 0.21875 L 54.808594 4.21875 C 55.164062 7.945312 53.285156 11.976562 50.339844 13.96875 C 47.679688 15.960938 43.523438 15.558594 38.335938 15.71875 C 35.714844 15.746094 33.046875 16.390625 30.574219 17.96875 C 28.101562 19.550781 25.679688 22.34375 25.160156 25.96875 C 23.96875 33.109375 28.578125 39.039062 33.867188 40.21875 C 39.945312 41.628906 46.25 40.824219 53.632812 40.21875 C 55.558594 40.0625 58.152344 40.382812 59.75 41.21875 C 62.261719 43.304688 61.890625 44.441406 61.867188 48.21875 L 19.28125 48.21875 L 17.632812 53.96875 L 2.808594 109.96875 L -0.015625 120.21875 L 124.457031 120.21875 L 121.632812 109.96875 L 107.28125 55.46875 L 96.21875 73.21875 L 104.691406 104.21875 L 19.75 104.21875 L 30.574219 64.21875 L 55.046875 64.21875 C 55.121094 64.136719 55.203125 64.050781 55.28125 63.972656 L 65.398438 56.972656 L 69.398438 48.472656 L 69.398438 44.472656 C 69.375 39.578125 66.34375 35.699219 63.046875 33.972656 C 59.75 32.242188 56.042969 31.964844 52.929688 32.222656 C 45.429688 32.835938 39.832031 33.222656 35.515625 32.222656 L 35.28125 32.222656 C 33.777344 31.886719 32.136719 30.542969 32.691406 27.222656 C 32.835938 26.226562 33.277344 25.648438 34.339844 24.972656 C 35.402344 24.292969 36.992188 23.730469 38.339844 23.722656 L 38.574219 23.722656 C 42.820312 23.585938 48.941406 24.664062 54.339844 20.472656 C 60.503906 15.683594 63.027344 9.308594 62.339844 3.472656 Z M 62.117188 0 "/>
<path style=" stroke:none;fill-rule:nonzero;fill:rgb(74.509804%,74.509804%,74.509804%);fill-opacity:1;" d="M 100.742188 16.558594 C 100.742188 16.558594 81.777344 44.609375 70.324219 64.3125 L 59.738281 73.652344 L 60.019531 86.242188 L 54.273438 96.203125 L 59.507812 96.195312 L 65.082031 91.527344 L 77.695312 87.828125 L 82.171875 75.980469 L 113.683594 25.0625 Z M 100.742188 16.558594 "/>
<path style=" stroke:none;fill-rule:nonzero;fill:rgb(74.509804%,74.509804%,74.509804%);fill-opacity:1;" d="M 112.738281 19.507812 C 112.753906 21.375 111.824219 23.109375 110.304688 24.046875 C 108.785156 24.984375 106.910156 24.984375 105.390625 24.046875 C 103.871094 23.109375 102.941406 21.375 102.957031 19.507812 C 102.941406 17.640625 103.871094 15.910156 105.390625 14.972656 C 106.910156 14.035156 108.785156 14.035156 110.304688 14.972656 C 111.824219 15.910156 112.753906 17.640625 112.738281 19.507812 Z M 112.738281 19.507812 "/>
<path style=" stroke:none;fill-rule:nonzero;fill:rgb(100%,100%,100%);fill-opacity:1;" d="M 0.0976562 119.941406 C 0.40625 119.082031 4.035156 105.558594 10.441406 81.367188 C 14.542969 65.886719 18.207031 52.140625 18.585938 50.824219 L 19.277344 48.429688 L 40.585938 48.390625 L 61.890625 48.347656 L 61.890625 46.242188 C 61.890625 44.382812 61.847656 44.042969 61.527344 43.3125 C 60.992188 42.105469 59.96875 41.179688 58.703125 40.765625 C 56.617188 40.082031 55.234375 40.019531 50.703125 40.414062 C 40.421875 41.3125 34.648438 40.941406 31.332031 39.171875 C 27.558594 37.15625 25.066406 32.835938 25.066406 28.3125 C 25.066406 23.566406 27.269531 19.847656 31.429688 17.574219 C 34.097656 16.117188 35.390625 15.878906 41.769531 15.664062 C 46.925781 15.492188 47.988281 15.332031 49.617188 14.464844 C 51.15625 13.648438 52.949219 11.667969 53.769531 9.882812 C 54.777344 7.6875 54.976562 6.347656 54.792969 3.085938 C 54.710938 1.601562 54.660156 0.359375 54.683594 0.328125 C 54.707031 0.296875 56.363281 0.230469 58.363281 0.179688 L 62 0.09375 L 62.097656 0.734375 C 62.152344 1.089844 62.238281 2.605469 62.292969 4.101562 C 62.378906 6.453125 62.351562 7.042969 62.085938 8.398438 C 61.351562 12.136719 59.539062 15.425781 56.570312 18.410156 C 54.445312 20.546875 52.46875 21.855469 50.160156 22.652344 C 47.839844 23.457031 46.484375 23.617188 41.691406 23.660156 C 37.351562 23.699219 37.238281 23.707031 36.050781 24.136719 C 33.910156 24.914062 32.941406 25.789062 32.667969 27.199219 C 32.445312 28.339844 32.558594 29.621094 32.960938 30.457031 C 33.523438 31.628906 34.253906 32.070312 36.300781 32.464844 C 38.359375 32.863281 46.234375 32.847656 51.171875 32.4375 C 55.21875 32.097656 56.875 32.152344 59.25 32.691406 C 64.136719 33.800781 67.464844 36.742188 68.835938 41.167969 C 69.199219 42.34375 69.253906 42.808594 69.316406 45.46875 L 69.382812 48.445312 L 65.390625 56.921875 L 60.132812 60.558594 L 54.875 64.199219 L 42.699219 64.199219 C 31.238281 64.199219 30.519531 64.214844 30.445312 64.488281 C 29.8125 66.734375 19.894531 103.515625 19.832031 103.851562 L 19.742188 104.316406 L 104.800781 104.316406 L 104.6875 103.945312 C 104.625 103.742188 102.707031 96.746094 100.425781 88.398438 L 96.277344 73.226562 L 101.71875 64.496094 C 104.710938 59.691406 107.207031 55.820312 107.269531 55.894531 C 107.332031 55.964844 110.507812 67.914062 114.328125 82.441406 C 120.042969 104.171875 122.117188 111.960938 124.300781 119.878906 C 124.375 120.152344 121.34375 120.167969 62.195312 120.167969 C 9.90625 120.167969 0.0273438 120.128906 0.0976562 119.941406 Z M 0.0976562 119.941406 "/>
<path style=" stroke:none;fill-rule:nonzero;fill:rgb(100%,100%,100%);fill-opacity:1;" d="M 54.433594 96.132812 C 54.433594 96.070312 55.699219 93.835938 57.242188 91.160156 L 60.054688 86.296875 L 59.941406 79.972656 L 59.828125 73.644531 L 65.015625 69.082031 C 68.53125 65.988281 70.363281 64.265625 70.695312 63.738281 C 70.964844 63.308594 72.183594 61.289062 73.398438 59.246094 C 78.875 50.058594 88.996094 34.226562 98.128906 20.566406 C 99.855469 17.984375 100.816406 16.679688 100.941406 16.757812 C 101.042969 16.820312 101.566406 17.167969 102.105469 17.523438 C 102.644531 17.882812 103.101562 18.148438 103.125 18.113281 C 103.144531 18.082031 103.296875 17.730469 103.460938 17.332031 C 103.847656 16.382812 104.828125 15.328125 105.792969 14.824219 C 106.429688 14.492188 106.796875 14.421875 107.886719 14.421875 C 109.011719 14.425781 109.324219 14.492188 109.996094 14.863281 C 111.664062 15.796875 112.601562 17.4375 112.617188 19.457031 C 112.628906 20.84375 112.4375 21.46875 111.65625 22.652344 C 111.367188 23.089844 111.152344 23.46875 111.179688 23.488281 C 111.207031 23.507812 111.769531 23.875 112.429688 24.308594 L 113.632812 25.089844 L 113.035156 26.03125 C 112.707031 26.546875 105.632812 37.964844 97.3125 51.402344 L 82.183594 75.835938 L 79.9375 81.78125 C 78.699219 85.050781 77.679688 87.738281 77.667969 87.757812 C 77.660156 87.777344 74.820312 88.621094 71.355469 89.636719 L 65.0625 91.480469 L 59.640625 96.011719 L 57.035156 96.125 C 55.605469 96.191406 54.433594 96.191406 54.433594 96.132812 Z M 54.433594 96.132812 "/>
</g>
</svg>
