<?xml version="1.0" encoding="UTF-8"?>
<svg xmlns="http://www.w3.org/2000/svg" xmlns:xlink="http://www.w3.org/1999/xlink" width="128" height="128" viewBox="0 0 128 128" version="1.1">
<g id="surface1">
<path style=" stroke:none;fill-rule:nonzero;fill:rgb(74.509804%,74.509804%,74.509804%);fill-opacity:1;" d="M 28.480469 16 C 21.679688 16 16 21.679688 16 28.480469 L 16 99.480469 C 16 106.265625 21.714844 111.980469 28.5 111.980469 L 91.5 111.980469 C 98.285156 111.980469 104 106.265625 104 99.480469 L 104 32.980469 L 101.75 30.730469 L 90.25 18.480469 L 88.011719 15.921875 L 84.488281 15.921875 Z M 31.980469 32 L 80.980469 32 L 88.019531 39.519531 L 88.019531 96 L 32.019531 96 Z M 31.980469 32 "/>
<path style=" stroke:none;fill-rule:nonzero;fill:rgb(74.509804%,74.509804%,74.509804%);fill-opacity:1;" d="M 47.441406 40.558594 L 72.5 40.558594 C 76.640625 40.558594 79.96875 43.890625 79.96875 48.03125 L 79.96875 64.425781 C 79.96875 68.5625 76.640625 71.894531 72.5 71.894531 L 47.441406 71.894531 C 43.300781 71.894531 39.96875 68.5625 39.96875 64.425781 L 39.96875 48.03125 C 39.96875 43.871094 43.332031 40.589844 47.410156 40.589844 Z M 47.441406 40.558594 "/>
<path style=" stroke:none;fill-rule:nonzero;fill:rgb(100%,100%,100%);fill-opacity:1;" d="M 45.578125 71.609375 C 43.898438 71.214844 41.824219 69.597656 40.957031 68.007812 C 40.050781 66.339844 40.027344 66.046875 40.027344 56.328125 C 40.027344 50.378906 40.089844 47.082031 40.210938 46.5 C 40.835938 43.53125 43.257812 41.246094 46.300781 40.761719 C 46.976562 40.65625 52.160156 40.59375 60.253906 40.59375 C 71.164062 40.59375 73.292969 40.632812 74.1875 40.84375 C 77.210938 41.554688 79.417969 43.992188 79.8125 47.058594 C 80.023438 48.679688 80.019531 63.964844 79.808594 65.4375 C 79.394531 68.304688 77.425781 70.625 74.683594 71.480469 C 73.730469 71.777344 72.984375 71.792969 59.949219 71.777344 C 52.332031 71.765625 45.933594 71.691406 45.578125 71.609375 Z M 45.578125 71.609375 "/>
<path style=" stroke:none;fill-rule:nonzero;fill:rgb(100%,100%,100%);fill-opacity:1;" d="M 26.054688 111.664062 C 22.144531 110.816406 18.878906 108.160156 17.175781 104.457031 C 15.996094 101.886719 16.074219 104.921875 16.125 63.457031 L 16.171875 26.144531 L 16.558594 24.988281 C 18 20.695312 21.160156 17.664062 25.476562 16.433594 L 26.738281 16.074219 L 57.378906 16.027344 L 88.015625 15.984375 L 89.058594 17.183594 C 90.414062 18.75 101.234375 30.261719 102.75 31.75 L 103.921875 32.902344 L 103.917969 66.835938 C 103.914062 103.539062 103.957031 101.710938 103.039062 103.980469 C 102.363281 105.660156 101.589844 106.804688 100.203125 108.195312 C 98.332031 110.0625 96.367188 111.144531 93.878906 111.671875 C 92.285156 112.007812 27.609375 112.003906 26.054688 111.664062 Z M 88.070312 67.78125 L 88.070312 39.5 L 84.570312 35.753906 L 81.070312 32.003906 L 31.9375 32.003906 L 31.9375 96.0625 L 88.070312 96.0625 Z M 88.070312 67.78125 "/>
</g>
</svg>
