<?xml version="1.0" encoding="UTF-8"?>
<svg xmlns="http://www.w3.org/2000/svg" xmlns:xlink="http://www.w3.org/1999/xlink" width="128" height="128" viewBox="0 0 128 128" version="1.1">
<g id="surface1">
<path style=" stroke:none;fill-rule:nonzero;fill:rgb(74.509804%,74.509804%,74.509804%);fill-opacity:1;" d="M 63.921875 8 C 33.179688 8 7.972656 33.207031 7.972656 63.945312 C 7.972656 94.683594 33.179688 120.070312 63.921875 120.070312 C 94.660156 120.070312 120.042969 94.683594 120.042969 63.945312 C 120.042969 33.207031 94.660156 8 63.921875 8 Z M 63.921875 40.070312 C 77.363281 40.070312 87.972656 50.503906 87.972656 63.945312 C 87.972656 77.390625 77.363281 88 63.921875 88 C 50.476562 88 40.042969 77.390625 40.042969 63.945312 C 40.042969 50.503906 50.476562 40.070312 63.921875 40.070312 Z M 63.921875 40.070312 "/>
<path style=" stroke:none;fill-rule:nonzero;fill:rgb(74.509804%,74.509804%,74.509804%);fill-opacity:1;" d="M 64.078125 48.078125 C 55.292969 48.078125 47.972656 55.261719 47.972656 64.050781 C 47.972656 72.839844 55.289062 80.023438 64.078125 80.023438 C 72.867188 80.023438 80.050781 72.839844 80.050781 64.050781 C 80.050781 55.261719 72.867188 48.078125 64.078125 48.078125 Z M 64.078125 56.066406 C 68.546875 56.066406 72.066406 59.585938 72.066406 64.050781 C 72.066406 68.519531 68.546875 72.039062 64.078125 72.039062 C 59.613281 72.039062 56.09375 68.519531 56.09375 64.050781 C 56.09375 59.585938 59.613281 56.066406 64.078125 56.066406 Z M 64.078125 56.066406 "/>
<path style=" stroke:none;fill-rule:nonzero;fill:rgb(100%,100%,100%);fill-opacity:1;" d="M 61.402344 79.75 C 58.527344 79.242188 56.007812 78.050781 53.617188 76.066406 C 51.28125 74.128906 49.34375 71.046875 48.527344 67.972656 C 48.039062 66.132812 47.925781 63.292969 48.265625 61.394531 C 48.859375 58.070312 50.289062 55.359375 52.734375 52.914062 C 55.445312 50.203125 58.601562 48.675781 62.421875 48.234375 C 70.574219 47.285156 78.296875 53.121094 79.777344 61.351562 C 80.035156 62.769531 80 65.703125 79.710938 67.074219 C 78.40625 73.269531 73.996094 77.902344 67.871094 79.503906 C 66.273438 79.921875 63.066406 80.042969 61.402344 79.75 Z M 66.65625 71.660156 C 72.246094 69.734375 73.9375 62.640625 69.800781 58.464844 C 67.238281 55.878906 63.714844 55.308594 60.40625 56.941406 C 57.777344 58.234375 56.089844 60.984375 56.089844 63.96875 C 56.089844 65.457031 56.277344 66.28125 56.917969 67.625 C 57.886719 69.652344 59.8125 71.222656 62.109375 71.847656 C 63.195312 72.144531 65.523438 72.046875 66.65625 71.660156 Z M 66.65625 71.660156 "/>
<path style=" stroke:none;fill-rule:nonzero;fill:rgb(100%,100%,100%);fill-opacity:1;" d="M 61.640625 119.976562 C 47.722656 119.292969 35.019531 113.773438 25.078125 104.085938 C 15.878906 95.121094 10.207031 83.808594 8.460938 70.917969 C 8.070312 68.039062 7.964844 61.960938 8.257812 58.945312 C 9.734375 43.539062 17.121094 29.929688 29.304688 20.167969 C 38.34375 12.925781 49.746094 8.648438 61.386719 8.132812 C 75.703125 7.5 89.675781 12.351562 100.496094 21.71875 C 102.289062 23.269531 105.867188 26.929688 107.238281 28.609375 C 119.476562 43.625 123.152344 63.054688 117.195312 81.253906 C 110.480469 101.769531 92.140625 116.921875 70.804688 119.589844 C 67.808594 119.960938 64.332031 120.109375 61.640625 119.976562 Z M 67.59375 87.746094 C 75.238281 86.628906 81.777344 81.96875 85.300781 75.128906 C 90.140625 65.722656 88.382812 54.25 80.96875 46.917969 C 77.746094 43.726562 73.320312 41.40625 68.664062 40.464844 C 67.304688 40.1875 66.746094 40.152344 63.914062 40.152344 C 61.097656 40.152344 60.53125 40.1875 59.285156 40.453125 C 57.191406 40.894531 55.75 41.339844 54.171875 42.03125 C 47.023438 45.164062 42.152344 51.222656 40.476562 59.070312 C 40.144531 60.625 40.117188 60.984375 40.117188 63.960938 C 40.117188 66.933594 40.144531 67.292969 40.476562 68.847656 C 41.902344 75.542969 45.699219 81.039062 51.300781 84.515625 C 55.996094 87.429688 61.832031 88.589844 67.59375 87.746094 Z M 67.59375 87.746094 "/>
</g>
</svg>
