<?xml version="1.0" encoding="UTF-8"?>
<svg xmlns="http://www.w3.org/2000/svg" xmlns:xlink="http://www.w3.org/1999/xlink" width="128" height="128" viewBox="0 0 128 128" version="1.1">
<g id="surface1">
<path style=" stroke:none;fill-rule:nonzero;fill:rgb(74.509804%,74.509804%,74.509804%);fill-opacity:1;" d="M 25.519531 0 C 15.90625 0 8.019531 7.902344 8.019531 17.5 L 8.019531 110.5 C 8.019531 120.097656 15.90625 128 25.519531 128 L 102.519531 128 C 112.132812 128 120.019531 120.097656 120.019531 110.5 L 120.019531 17.5 C 120.019531 7.902344 112.132812 0 102.519531 0 Z M 25.519531 16 L 102.519531 16 C 103.511719 16 104.019531 16.453125 104.019531 17.5 L 104.019531 110.5 C 104.019531 111.546875 103.511719 112 102.519531 112 L 25.519531 112 C 24.53125 112 24.019531 111.546875 24.019531 110.5 L 24.019531 17.5 C 24.019531 16.453125 24.53125 16 25.519531 16 Z M 25.519531 16 "/>
<path style=" stroke:none;fill-rule:nonzero;fill:rgb(74.509804%,74.509804%,74.509804%);fill-opacity:1;" d="M 62.71875 24 C 60.59375 24.085938 58.363281 24.46875 56.21875 25 C 39.066406 29.246094 28.722656 46.59375 32.96875 63.75 C 36.570312 78.285156 49.574219 87.929688 63.894531 87.953125 C 65.242188 87.953125 66.597656 87.871094 67.957031 87.699219 L 64.847656 63.863281 C 64.570312 63.945312 64.285156 64 63.96875 64 C 59.550781 64 55.96875 60.421875 55.96875 56 C 55.96875 51.578125 59.550781 48 63.96875 48 C 68.390625 48 71.96875 51.578125 71.96875 56 C 71.96875 56.941406 71.742188 57.800781 71.390625 58.597656 L 92.996094 69.695312 C 96.082031 63.050781 96.753906 55.449219 94.96875 48.25 C 91.253906 33.238281 77.59375 23.390625 62.722656 24 Z M 62.71875 24 "/>
<path style=" stroke:none;fill-rule:nonzero;fill:rgb(74.509804%,74.509804%,74.509804%);fill-opacity:1;" d="M 69.28125 64 L 80 96 C 85.875 112.449219 104 99.074219 91.972656 88 Z M 69.28125 64 "/>
<path style=" stroke:none;fill-rule:nonzero;fill:rgb(100%,100%,100%);fill-opacity:1;" d="M 61.738281 87.789062 C 55.484375 87.40625 49.042969 84.902344 44.09375 80.9375 C 29.164062 68.972656 27.988281 46.796875 41.566406 33.300781 C 47.464844 27.441406 55.675781 24.085938 64.132812 24.085938 C 77.3125 24.085938 89.140625 32.285156 93.765625 44.632812 C 96.5625 52.097656 96.527344 60.625 93.667969 67.933594 L 92.996094 69.660156 L 90.492188 68.355469 C 89.113281 67.636719 84.3125 65.171875 79.816406 62.871094 C 75.320312 60.574219 71.617188 58.675781 71.585938 58.652344 C 71.554688 58.625 71.65625 58.101562 71.8125 57.480469 C 72.667969 54.0625 70.757812 50.371094 67.269531 48.695312 C 66.050781 48.109375 65.996094 48.101562 63.96875 48.101562 C 61.9375 48.101562 61.882812 48.109375 60.664062 48.695312 C 56.34375 50.769531 54.730469 55.503906 56.886719 59.777344 C 58.132812 62.25 61.035156 64.023438 63.835938 64.03125 C 64.769531 64.03125 64.777344 64.039062 64.871094 64.570312 C 64.921875 64.863281 65.589844 69.972656 66.359375 75.921875 C 67.128906 81.867188 67.792969 86.933594 67.835938 87.179688 C 67.914062 87.59375 67.871094 87.628906 67.222656 87.707031 C 65.820312 87.878906 63.671875 87.910156 61.738281 87.789062 Z M 61.738281 87.789062 "/>
<path style=" stroke:none;fill-rule:nonzero;fill:rgb(100%,100%,100%);fill-opacity:1;" d="M 86.769531 103.40625 C 84.308594 102.714844 82.417969 100.945312 80.894531 97.90625 C 80.328125 96.78125 69.492188 64.726562 69.628906 64.589844 C 69.703125 64.515625 91.363281 87.308594 93.160156 89.347656 C 94.546875 90.917969 95.601562 93.050781 95.851562 94.773438 C 96.496094 99.246094 93.238281 103.328125 88.8125 103.589844 C 88.085938 103.628906 87.332031 103.5625 86.769531 103.40625 Z M 86.769531 103.40625 "/>
<path style=" stroke:none;fill-rule:nonzero;fill:rgb(100%,100%,100%);fill-opacity:1;" d="M 23.269531 127.808594 C 18.757812 127.195312 14.390625 124.628906 11.632812 120.96875 C 9.574219 118.234375 8.429688 115.125 8.148438 111.5 C 8.042969 110.109375 8.003906 92.765625 8.039062 62.382812 L 8.089844 15.410156 L 8.4375 13.921875 C 10.050781 6.96875 15.363281 1.765625 22.28125 0.359375 C 23.695312 0.0703125 25.695312 0.0585938 64.050781 0.0585938 C 102.398438 0.0585938 104.402344 0.0703125 105.730469 0.359375 C 112.566406 1.832031 117.578125 6.523438 119.414062 13.164062 L 119.851562 14.75 L 119.902344 63.207031 C 119.9375 98.640625 119.898438 112.019531 119.761719 112.980469 C 118.714844 120.371094 112.851562 126.382812 105.425781 127.683594 C 104.234375 127.894531 98.53125 127.921875 63.902344 127.902344 C 41.828125 127.886719 23.542969 127.847656 23.269531 127.808594 Z M 103.324219 111.890625 C 103.550781 111.789062 103.8125 111.507812 103.910156 111.269531 C 104.039062 110.964844 104.078125 97.136719 104.046875 63.730469 L 104.003906 16.621094 L 103.613281 16.304688 C 103.230469 15.996094 102.375 15.988281 64.054688 15.988281 L 24.882812 15.988281 L 24.449219 16.332031 L 24.011719 16.675781 L 24.011719 63.890625 C 24.011719 96.984375 24.066406 111.207031 24.1875 111.4375 C 24.285156 111.617188 24.527344 111.832031 24.726562 111.910156 C 25.292969 112.140625 102.820312 112.121094 103.324219 111.890625 Z M 103.324219 111.890625 "/>
</g>
</svg>
