<?xml version="1.0" encoding="UTF-8"?>
<svg xmlns="http://www.w3.org/2000/svg" xmlns:xlink="http://www.w3.org/1999/xlink" width="128" height="128" viewBox="0 0 128 128" version="1.1">
<g id="surface1">
<path style=" stroke:none;fill-rule:nonzero;fill:rgb(74.509804%,74.509804%,74.509804%);fill-opacity:1;" d="M 23.761719 8 C 15.15625 8 8.007812 15.148438 8.007812 23.75 L 8.007812 99.5 L 10.507812 101.75 L 24.007812 115.25 L 24.007812 24.003906 L 104.007812 24.003906 L 104.007812 104.003906 L 88.007812 104.003906 L 88.007812 120.003906 L 104.257812 120.003906 C 112.863281 120.003906 120.007812 112.855469 120.007812 104.25 L 120.007812 23.753906 C 120.007812 15.117188 112.890625 7.996094 104.25 7.996094 Z M 23.761719 8 "/>
<path style=" stroke:none;fill-rule:nonzero;fill:rgb(74.509804%,74.509804%,74.509804%);fill-opacity:1;" d="M 40 72 C 35.566406 72 32 75.566406 32 80 L 32 112 C 32 116.433594 35.566406 120 40 120 L 72 120 C 76.433594 120 80 116.433594 80 112 L 80 80 C 80 75.566406 76.433594 72 72 72 Z M 40 80 L 56 80 L 56 112 L 40 112 Z M 40 80 "/>
<path style=" stroke:none;fill-rule:nonzero;fill:rgb(100%,100%,100%);fill-opacity:1;" d="M 38.789062 119.824219 C 35.601562 119.289062 33.167969 117.085938 32.328125 113.976562 C 32.148438 113.308594 32.105469 109.851562 32.105469 95.96875 C 32.101562 77.207031 32.058594 78.132812 33.046875 76.175781 C 33.691406 74.910156 35.171875 73.539062 36.675781 72.820312 L 37.964844 72.207031 L 55.628906 72.160156 C 72.832031 72.117188 73.324219 72.125 74.367188 72.441406 C 77.066406 73.265625 79.144531 75.550781 79.738281 78.351562 C 80.085938 79.992188 80.089844 111.945312 79.742188 113.582031 C 79.042969 116.894531 76.433594 119.355469 73.128906 119.828125 C 71.71875 120.03125 39.996094 120.027344 38.789062 119.824219 Z M 56.042969 95.976562 L 56.042969 79.878906 L 47.992188 79.921875 L 39.945312 79.964844 L 39.902344 95.816406 C 39.878906 104.53125 39.894531 111.757812 39.9375 111.871094 C 40 112.03125 41.773438 112.078125 48.03125 112.078125 L 56.042969 112.078125 Z M 56.042969 95.976562 "/>
<path style=" stroke:none;fill-rule:nonzero;fill:rgb(100%,100%,100%);fill-opacity:1;" d="M 88.070312 112.007812 L 88.070312 103.988281 L 104.085938 103.988281 L 104.085938 23.914062 L 24.011719 23.914062 L 24.011719 115.109375 L 16.625 107.765625 C 12.5625 103.722656 8.957031 100.210938 8.617188 99.953125 L 8 99.488281 L 8 61.71875 C 8 36.589844 8.054688 23.386719 8.171875 22.265625 C 8.554688 18.539062 10.078125 15.367188 12.773438 12.679688 C 15.019531 10.4375 17.679688 9.015625 20.808594 8.375 C 22.304688 8.070312 23.597656 8.0625 64.582031 8.105469 L 106.808594 8.148438 L 108.128906 8.519531 C 113.707031 10.09375 117.90625 14.292969 119.480469 19.871094 L 119.851562 21.191406 L 119.898438 63.289062 C 119.929688 92.429688 119.890625 105.746094 119.769531 106.546875 C 118.996094 111.632812 115.574219 116.179688 110.824219 118.429688 C 107.757812 119.882812 107.75 119.882812 97.277344 119.957031 L 88.070312 120.027344 Z M 88.070312 112.007812 "/>
</g>
</svg>
