<?xml version="1.0" encoding="UTF-8"?>
<svg xmlns="http://www.w3.org/2000/svg" xmlns:xlink="http://www.w3.org/1999/xlink" width="128" height="128" viewBox="0 0 128 128" version="1.1">
<g id="surface1">
<path style=" stroke:none;fill-rule:nonzero;fill:rgb(74.509804%,74.509804%,74.509804%);fill-opacity:1;" d="M 63.921875 8 C 33.179688 8 7.972656 33.207031 7.972656 63.945312 C 7.972656 94.683594 33.179688 120.070312 63.921875 120.070312 C 94.660156 120.070312 120.042969 94.683594 120.042969 63.945312 C 120.042969 33.207031 94.660156 8 63.921875 8 Z M 63.921875 40.070312 C 77.363281 40.070312 87.972656 50.503906 87.972656 63.945312 C 87.972656 77.390625 77.363281 88 63.921875 88 C 50.476562 88 40.042969 77.390625 40.042969 63.945312 C 40.042969 50.503906 50.476562 40.070312 63.921875 40.070312 Z M 63.921875 40.070312 "/>
<path style=" stroke:none;fill-rule:nonzero;fill:rgb(74.509804%,74.509804%,74.509804%);fill-opacity:1;" d="M 64.078125 48.078125 C 55.292969 48.078125 47.972656 55.261719 47.972656 64.050781 C 47.972656 72.839844 55.289062 80.023438 64.078125 80.023438 C 72.867188 80.023438 80.050781 72.839844 80.050781 64.050781 C 80.050781 55.261719 72.867188 48.078125 64.078125 48.078125 Z M 64.078125 56.066406 C 68.546875 56.066406 72.066406 59.585938 72.066406 64.050781 C 72.066406 68.519531 68.546875 72.039062 64.078125 72.039062 C 59.613281 72.039062 56.09375 68.519531 56.09375 64.050781 C 56.09375 59.585938 59.613281 56.066406 64.078125 56.066406 Z M 64.078125 56.066406 "/>
<path style=" stroke:none;fill-rule:nonzero;fill:rgb(100%,100%,100%);fill-opacity:1;" d="M 59.179688 119.8125 C 46.433594 118.746094 34 112.941406 24.746094 103.738281 C 15.402344 94.445312 9.765625 82.75 8.3125 69.644531 C 8.039062 67.203125 8.039062 60.699219 8.3125 58.253906 C 9.5 47.554688 13.378906 38.054688 20.109375 29.363281 C 21.894531 27.054688 27.097656 21.875 29.460938 20.046875 C 40.105469 11.816406 52.511719 7.714844 65.535156 8.113281 C 75.269531 8.414062 84.171875 11.019531 92.660156 16.058594 C 99.9375 20.378906 106.882812 27.183594 111.460938 34.480469 C 119.457031 47.21875 121.945312 62.605469 118.363281 77.175781 C 113.398438 97.378906 97.289062 113.445312 77.019531 118.425781 C 71.4375 119.796875 64.996094 120.296875 59.179688 119.8125 Z M 68.917969 87.5625 C 73.65625 86.496094 77.617188 84.363281 80.890625 81.121094 C 84.605469 77.4375 86.84375 73.054688 87.761719 67.664062 C 88.066406 65.882812 88.019531 61.65625 87.675781 59.742188 C 87.089844 56.5 85.714844 53.117188 83.828125 50.289062 C 82.773438 48.707031 80.238281 46.085938 78.519531 44.796875 C 75.644531 42.640625 71.507812 40.910156 67.855469 40.339844 C 65.203125 39.921875 60.761719 40.066406 58.3125 40.644531 C 53.972656 41.675781 50.359375 43.652344 47.183594 46.742188 C 43.753906 50.074219 41.597656 54.003906 40.492188 58.933594 C 40.160156 60.417969 40.109375 61.09375 40.113281 63.949219 C 40.113281 67.605469 40.269531 68.65625 41.277344 71.792969 C 43.925781 80.042969 50.933594 86.078125 59.757812 87.714844 C 61.566406 88.050781 67.160156 87.957031 68.921875 87.5625 Z M 68.917969 87.5625 "/>
<path style=" stroke:none;fill-rule:nonzero;fill:rgb(100%,100%,100%);fill-opacity:1;" d="M 62.625 79.855469 C 55.660156 79.324219 49.617188 73.839844 48.277344 66.839844 C 48.023438 65.507812 48.0625 62.316406 48.347656 60.980469 C 49.539062 55.425781 53.535156 50.875 58.804688 49.078125 C 60.976562 48.335938 62.484375 48.125 64.875 48.230469 C 69.082031 48.417969 72.621094 50.035156 75.574219 53.121094 C 79.679688 57.421875 81.03125 63.582031 79.101562 69.238281 C 77.800781 73.046875 74.796875 76.460938 71.148438 78.273438 C 68.46875 79.601562 65.796875 80.097656 62.625 79.855469 Z M 65.804688 71.886719 C 68.558594 71.300781 70.804688 69.277344 71.714844 66.554688 C 72.117188 65.34375 72.171875 63.242188 71.832031 61.96875 C 70.519531 57.066406 65.089844 54.625 60.5 56.878906 C 55.265625 59.445312 54.507812 66.675781 59.089844 70.347656 C 60.992188 71.871094 63.339844 72.40625 65.804688 71.886719 Z M 65.804688 71.886719 "/>
</g>
</svg>
