<?xml version="1.0" encoding="UTF-8"?>
<svg xmlns="http://www.w3.org/2000/svg" xmlns:xlink="http://www.w3.org/1999/xlink" width="128" height="128" viewBox="0 0 128 128" version="1.1">
<g id="surface1">
<path style=" stroke:none;fill-rule:nonzero;fill:rgb(74.509804%,74.509804%,74.509804%);fill-opacity:1;" d="M 35.753906 8 C 29.183594 8 24 13.183594 24 19.75 L 24 108.246094 C 24 114.8125 29.183594 119.996094 35.753906 119.996094 L 92.253906 119.996094 C 98.820312 119.996094 104.003906 114.816406 104.003906 108.246094 L 104.003906 19.75 C 104.003906 13.183594 98.820312 8 92.253906 8 Z M 32.003906 16 L 96.003906 16 L 96.003906 56 L 32.003906 56 Z M 64.003906 64 C 77.257812 64 88.003906 74.746094 88.003906 88 C 88.003906 101.253906 77.257812 112 64.003906 112 C 50.746094 112 40.003906 101.253906 40.003906 88 C 40.003906 74.746094 50.746094 64 64.003906 64 Z M 64.003906 64 "/>
<path style=" stroke:none;fill-rule:nonzero;fill:rgb(74.509804%,74.509804%,74.509804%);fill-opacity:1;" d="M 76 88 C 76 94.628906 70.628906 100 64 100 C 57.371094 100 52 94.628906 52 88 C 52 81.371094 57.371094 76 64 76 C 70.628906 76 76 81.371094 76 88 Z M 76 88 "/>
<path style=" stroke:none;fill-rule:nonzero;fill:rgb(100%,100%,100%);fill-opacity:1;" d="M 62.796875 99.835938 C 58.367188 99.441406 54.359375 96.339844 52.820312 92.117188 C 50.484375 85.722656 53.800781 78.894531 60.335938 76.636719 C 61.515625 76.230469 61.890625 76.179688 63.882812 76.175781 C 66.417969 76.167969 67.65625 76.457031 69.746094 77.542969 C 71.269531 78.335938 73.507812 80.535156 74.367188 82.082031 C 78.019531 88.683594 74.914062 96.859375 67.828125 99.292969 C 66.417969 99.777344 64.46875 99.988281 62.796875 99.835938 Z M 62.796875 99.835938 "/>
<path style=" stroke:none;fill-rule:nonzero;fill:rgb(100%,100%,100%);fill-opacity:1;" d="M 34.105469 119.816406 C 31.523438 119.480469 29.46875 118.4375 27.460938 116.4375 C 26.367188 115.351562 25.976562 114.820312 25.351562 113.550781 C 23.992188 110.796875 24.101562 115.128906 24.097656 63.9375 C 24.097656 18.785156 24.101562 18.171875 24.425781 16.882812 C 25.464844 12.761719 28.585938 9.574219 32.699219 8.4375 C 33.691406 8.164062 35.613281 8.148438 64.132812 8.148438 L 94.511719 8.148438 L 95.777344 8.578125 C 100.28125 10.117188 103.230469 13.683594 103.835938 18.324219 C 103.964844 19.300781 104 32.96875 103.96875 64.941406 L 103.917969 110.179688 L 103.539062 111.414062 C 102.273438 115.503906 99.5 118.273438 95.390625 119.539062 L 94.179688 119.914062 L 64.710938 119.9375 C 48.167969 119.953125 34.742188 119.898438 34.105469 119.816406 Z M 68.34375 111.65625 C 74.261719 110.519531 79.730469 107.113281 83.289062 102.34375 C 85.25 99.71875 86.863281 96.128906 87.597656 92.761719 C 88.03125 90.769531 88.035156 85.359375 87.605469 83.347656 C 86.566406 78.46875 84.417969 74.484375 80.980469 71.042969 C 77.390625 67.453125 72.851562 65.097656 67.953125 64.28125 C 65.886719 63.9375 61.996094 63.929688 60.085938 64.269531 C 50.011719 66.046875 42.347656 73.554688 40.328125 83.621094 C 39.886719 85.832031 39.929688 90.460938 40.410156 92.707031 C 41.441406 97.5 43.65625 101.597656 47.042969 104.976562 C 51.074219 108.996094 55.878906 111.261719 61.902344 111.976562 C 63.054688 112.117188 66.972656 111.921875 68.34375 111.65625 Z M 96.078125 36.050781 L 96.078125 15.988281 L 32.019531 15.988281 L 32.019531 56.109375 L 96.078125 56.109375 Z M 96.078125 36.050781 "/>
</g>
</svg>
