<?xml version="1.0" encoding="UTF-8"?>
<svg xmlns="http://www.w3.org/2000/svg" xmlns:xlink="http://www.w3.org/1999/xlink" width="128" height="128" viewBox="0 0 128 128" version="1.1">
<g id="surface1">
<path style=" stroke:none;fill-rule:nonzero;fill:rgb(74.509804%,74.509804%,74.509804%);fill-opacity:1;" d="M 43.761719 8 C 37.191406 8 32.007812 13.183594 32.007812 19.75 L 32.007812 108.246094 C 32.007812 114.8125 37.191406 119.996094 43.761719 119.996094 L 84.761719 119.996094 C 91.328125 119.996094 96.511719 114.816406 96.511719 108.246094 L 96.511719 19.75 C 96.511719 13.183594 91.328125 8 84.761719 8 Z M 40.011719 16 L 88.511719 16 L 88.511719 104 L 40.011719 104 Z M 40.011719 16 "/>
<path style=" stroke:none;fill-rule:nonzero;fill:rgb(100%,100%,100%);fill-opacity:1;" d="M 42.113281 119.816406 C 39.527344 119.480469 37.476562 118.433594 35.46875 116.4375 C 34.375 115.351562 33.984375 114.820312 33.359375 113.550781 C 31.988281 110.773438 32.09375 115.183594 32.144531 63.5 L 32.1875 17.394531 L 32.625 16.109375 C 34.0625 11.890625 37.570312 8.894531 41.84375 8.234375 C 42.746094 8.097656 49.03125 8.058594 65.039062 8.097656 L 87 8.148438 L 88.152344 8.535156 C 90.210938 9.226562 91.519531 10.019531 92.941406 11.445312 C 94.960938 13.472656 95.972656 15.5 96.335938 18.25 C 96.449219 19.109375 96.488281 34.582031 96.457031 64.859375 C 96.410156 107.765625 96.394531 110.230469 96.113281 111.167969 C 94.847656 115.433594 92.078125 118.246094 87.875 119.539062 L 86.667969 119.910156 L 64.957031 119.9375 C 52.890625 119.953125 42.742188 119.898438 42.113281 119.816406 Z M 88.566406 59.988281 L 88.566406 15.988281 L 40.027344 15.988281 L 40.027344 103.988281 L 88.566406 103.988281 Z M 88.566406 59.988281 "/>
</g>
</svg>
