<?xml version="1.0" encoding="UTF-8"?>
<svg xmlns="http://www.w3.org/2000/svg" xmlns:xlink="http://www.w3.org/1999/xlink" width="128" height="128" viewBox="0 0 128 128" version="1.1">
<g id="surface1">
<path style=" stroke:none;fill-rule:nonzero;fill:rgb(74.509804%,74.509804%,74.509804%);fill-opacity:1;" d="M 48 8 C 39.925781 8.039062 40 16 40 16 L 40 104 C 40 112 48 112 48 112 L 80 112 C 88 112 88 104 88 104 L 88 40 C 88.007812 35.566406 84.433594 32 80 32 L 56 32 L 56 16 C 56 16 55.929688 8.042969 48 8 Z M 48 40 L 80 40 L 80 64.25 L 48 64 Z M 48 72 L 56 72 L 56 80 L 64 80 L 64 72 L 72 72 L 72 80 L 80 80 L 80 88 L 72 88 L 72 96 L 80 96 L 80 104 L 72 104 L 72 96 L 64 96 L 64 104 L 56 104 L 56 96 L 48 96 L 48 88 L 56 88 L 56 80 L 48 80 Z M 56 88 L 56 96 L 64 96 L 64 88 Z M 64 88 L 72 88 L 72 80 L 64 80 Z M 64 88 "/>
<path style=" stroke:none;fill-rule:nonzero;fill:rgb(100%,100%,100%);fill-opacity:1;" d="M 45.972656 111.648438 C 42.742188 110.796875 40.683594 108.652344 40.203125 105.636719 C 40.085938 104.917969 40.03125 89.960938 40.03125 59.988281 C 40.035156 11.136719 39.96875 14.308594 41.015625 12.113281 C 42.226562 9.578125 44.78125 8.074219 47.886719 8.066406 C 51.097656 8.058594 53.59375 9.476562 54.890625 12.039062 C 55.859375 13.949219 55.878906 14.171875 55.878906 23.484375 L 55.878906 32.003906 L 68.054688 32.003906 C 75.773438 32.007812 80.621094 32.070312 81.300781 32.179688 C 84.28125 32.664062 86.886719 35.046875 87.675781 38.007812 C 87.863281 38.710938 87.902344 44.480469 87.902344 71.875 C 87.902344 100.558594 87.867188 105.03125 87.65625 105.9375 C 86.941406 108.964844 85.019531 111.011719 82.277344 111.65625 C 80.726562 112.023438 47.359375 112.015625 45.972656 111.648438 Z M 64.132812 100.023438 L 64.132812 96.0625 L 71.890625 96.0625 L 71.890625 103.988281 L 79.980469 103.988281 L 79.980469 95.898438 L 72.058594 95.898438 L 72.058594 88.136719 L 79.980469 88.136719 L 79.980469 79.882812 L 72.058594 79.882812 L 72.058594 71.957031 L 63.96875 71.957031 L 63.96875 79.882812 L 56.042969 79.882812 L 56.042969 71.957031 L 47.953125 71.957031 L 47.953125 80.046875 L 55.878906 80.046875 L 55.878906 87.972656 L 47.953125 87.972656 L 47.953125 96.0625 L 55.878906 96.0625 L 55.878906 103.988281 L 64.132812 103.988281 Z M 79.980469 52.144531 L 79.980469 39.929688 L 47.953125 39.929688 L 47.953125 64.03125 L 50.882812 64.058594 C 59.472656 64.128906 77.128906 64.300781 78.453125 64.332031 L 79.980469 64.363281 Z M 79.980469 52.144531 "/>
<path style=" stroke:none;fill-rule:nonzero;fill:rgb(100%,100%,100%);fill-opacity:1;" d="M 64.132812 84.011719 L 64.132812 80.046875 L 71.890625 80.046875 L 71.890625 87.972656 L 64.132812 87.972656 Z M 64.132812 84.011719 "/>
<path style=" stroke:none;fill-rule:nonzero;fill:rgb(100%,100%,100%);fill-opacity:1;" d="M 56.042969 92.015625 L 56.042969 88.136719 L 63.96875 88.136719 L 63.96875 95.898438 L 56.042969 95.898438 Z M 56.042969 92.015625 "/>
</g>
</svg>
