<?xml version="1.0" encoding="UTF-8"?>
<svg xmlns="http://www.w3.org/2000/svg" xmlns:xlink="http://www.w3.org/1999/xlink" width="128" height="128" viewBox="0 0 128 128" version="1.1">
<g id="surface1">
<path style=" stroke:none;fill-rule:nonzero;fill:rgb(74.509804%,74.509804%,74.509804%);fill-opacity:1;" d="M 48 96 L 48 112 L 3.75 112 C 1.644531 112 0 113.644531 0 115.75 L 0 124.25 C 0 126.355469 1.644531 128 3.75 128 L 108.246094 128 C 110.351562 128 111.996094 126.355469 111.996094 124.25 L 111.996094 115.75 C 111.996094 113.644531 110.351562 112 108.246094 112 L 63.996094 112 L 63.996094 96 Z M 48 96 "/>
<path style=" stroke:none;fill-rule:nonzero;fill:rgb(74.509804%,74.509804%,74.509804%);fill-opacity:1;" d="M 32.398438 16.960938 L 32.398438 63.921875 L 80.023438 63.921875 L 80.023438 32.460938 L 64.023438 16.960938 Z M 16.023438 64.046875 L 16.023438 95.710938 L 95.773438 95.710938 L 95.773438 64.046875 L 88.148438 64.046875 L 88.132812 71.886719 L 23.902344 72.167969 L 23.902344 64.042969 Z M 16.023438 64.046875 "/>
<path style=" stroke:none;fill-rule:nonzero;fill:rgb(100%,100%,100%);fill-opacity:1;" d="M 32.433594 40.425781 L 32.433594 16.980469 L 63.992188 16.980469 L 71.96875 24.699219 L 79.949219 32.417969 L 79.964844 48.140625 L 79.980469 63.867188 L 32.433594 63.867188 Z M 32.433594 40.425781 "/>
<path style=" stroke:none;fill-rule:nonzero;fill:rgb(100%,100%,100%);fill-opacity:1;" d="M 16.089844 79.882812 L 16.089844 64.03125 L 23.847656 64.03125 L 23.847656 72.230469 L 34.785156 72.175781 C 40.800781 72.144531 55.289062 72.074219 66.980469 72.019531 L 88.238281 71.917969 L 88.238281 64.03125 L 95.664062 64.03125 L 95.664062 95.730469 L 16.089844 95.730469 Z M 16.089844 79.882812 "/>
<path style=" stroke:none;fill-rule:nonzero;fill:rgb(100%,100%,100%);fill-opacity:1;" d="M 2.035156 127.464844 C 1.390625 127.128906 1.015625 126.785156 0.65625 126.199219 L 0.15625 125.394531 L 0.15625 114.609375 L 0.652344 113.796875 C 1.023438 113.1875 1.371094 112.871094 2.042969 112.53125 L 2.941406 112.078125 L 48.117188 112.078125 L 48.117188 96.0625 L 63.96875 96.0625 L 63.96875 112.078125 L 86.378906 112.078125 C 101.507812 112.078125 108.992188 112.132812 109.414062 112.25 C 110.203125 112.46875 111.097656 113.25 111.566406 114.125 C 111.917969 114.777344 111.929688 114.964844 111.929688 120 C 111.929688 125.039062 111.917969 125.222656 111.566406 125.878906 C 111.097656 126.75 110.203125 127.53125 109.414062 127.75 C 108.984375 127.871094 92.285156 127.925781 55.855469 127.925781 L 2.917969 127.925781 Z M 2.035156 127.464844 "/>
</g>
</svg>
