<?xml version="1.0" encoding="UTF-8"?>
<svg xmlns="http://www.w3.org/2000/svg" xmlns:xlink="http://www.w3.org/1999/xlink" width="128" height="128" viewBox="0 0 128 128" version="1.1">
<g id="surface1">
<path style=" stroke:none;fill-rule:nonzero;fill:rgb(74.509804%,74.509804%,74.509804%);fill-opacity:1;" d="M 16 32 C 12 32 8 36 8 40 L 8 72 C 8 76 12 80 16 80 L 24 80 L 24 64 L 104 64 L 104 80 L 112 80 C 116 80 120 76 120 72 L 120 40 C 120 36 116 32 112 32 Z M 16 32 "/>
<path style=" stroke:none;fill-rule:nonzero;fill:rgb(74.509804%,74.509804%,74.509804%);fill-opacity:1;" d="M 32 8 L 32 24 L 96 24 L 96 8 Z M 32 8 "/>
<path style=" stroke:none;fill-rule:nonzero;fill:rgb(74.509804%,74.509804%,74.509804%);fill-opacity:1;" d="M 32 72 L 32 112 L 96 112 L 96 72 Z M 40 80 L 88 80 L 88 88 L 40 88 Z M 40 96 L 80 96 L 80 104 L 40 104 Z M 40 96 "/>
<path style=" stroke:none;fill-rule:nonzero;fill:rgb(100%,100%,100%);fill-opacity:1;" d="M 32.101562 92.015625 L 32.101562 72.121094 L 95.996094 72.121094 L 95.996094 111.910156 L 32.101562 111.910156 Z M 79.980469 99.941406 L 79.980469 95.894531 L 59.964844 95.9375 L 39.945312 95.980469 L 39.902344 99.984375 L 39.855469 103.984375 L 79.980469 103.984375 Z M 88.03125 83.96875 L 88.078125 79.882812 L 64.011719 79.921875 L 39.945312 79.964844 L 39.902344 83.839844 C 39.875 85.972656 39.890625 87.8125 39.9375 87.929688 C 40 88.097656 44.695312 88.128906 64.003906 88.097656 L 87.988281 88.054688 Z M 88.03125 83.96875 "/>
<path style=" stroke:none;fill-rule:nonzero;fill:rgb(100%,100%,100%);fill-opacity:1;" d="M 13.902344 79.5625 C 13.382812 79.394531 12.585938 79.023438 12.136719 78.734375 C 11.078125 78.054688 9.527344 76.390625 8.941406 75.300781 C 8 73.558594 8.003906 73.652344 8.003906 56.109375 C 8 46.429688 8.066406 39.617188 8.160156 39.019531 C 8.6875 35.78125 11.777344 32.691406 15.015625 32.167969 C 16.46875 31.929688 111.800781 31.945312 113.09375 32.183594 C 115.976562 32.710938 118.714844 35.1875 119.609375 38.078125 C 119.925781 39.105469 119.933594 39.644531 119.933594 55.925781 C 119.933594 74.417969 119.972656 73.699219 118.90625 75.582031 C 118.125 76.964844 116.558594 78.417969 115.046875 79.164062 L 113.761719 79.800781 L 104.089844 79.902344 L 104.003906 63.949219 L 64.007812 63.910156 L 24.011719 63.867188 L 24.011719 79.882812 L 19.433594 79.875 C 15.457031 79.867188 14.722656 79.824219 13.902344 79.5625 Z M 13.902344 79.5625 "/>
<path style=" stroke:none;fill-rule:nonzero;fill:rgb(100%,100%,100%);fill-opacity:1;" d="M 32.101562 15.988281 L 32.101562 8.066406 L 95.996094 8.066406 L 95.996094 23.914062 L 32.101562 23.914062 Z M 32.101562 15.988281 "/>
</g>
</svg>
