<?xml version="1.0" encoding="UTF-8"?>
<svg xmlns="http://www.w3.org/2000/svg" xmlns:xlink="http://www.w3.org/1999/xlink" width="24" height="24" viewBox="0 0 24 24" version="1.1">
<g id="surface1">
<path style=" stroke:none;fill-rule:nonzero;fill:rgb(74.509804%,74.509804%,74.509804%);fill-opacity:1;" d="M 9.75 0 C 4.382812 0 0 4.382812 0 9.75 C 0 15.117188 4.382812 19.5 9.75 19.5 C 10.003906 19.5 10.25 19.472656 10.5 19.453125 L 10.5 16.40625 C 10.25 16.433594 10.007812 16.5 9.75 16.5 C 6.003906 16.5 3 13.496094 3 9.75 C 3 6.003906 6.003906 3 9.75 3 C 13.496094 3 16.5 6.003906 16.5 9.75 C 16.5 10.007812 16.433594 10.25 16.40625 10.5 L 19.453125 10.5 C 19.472656 10.25 19.5 10.003906 19.5 9.75 C 19.5 4.382812 15.117188 0 9.75 0 Z M 9.75 0 "/>
<path style=" stroke:none;fill-rule:nonzero;fill:rgb(74.509804%,74.509804%,74.509804%);fill-opacity:1;" d="M 9.617188 4.5 C 9.253906 4.566406 8.992188 4.882812 9 5.25 L 9 9 L 6.75 9 C 6.480469 8.996094 6.226562 9.136719 6.089844 9.371094 C 5.957031 9.605469 5.957031 9.894531 6.089844 10.128906 C 6.226562 10.363281 6.480469 10.503906 6.75 10.5 L 9.75 10.5 C 10.164062 10.5 10.5 10.164062 10.5 9.75 L 10.5 5.25 C 10.503906 5.023438 10.40625 4.808594 10.234375 4.664062 C 10.0625 4.515625 9.832031 4.457031 9.609375 4.5 Z M 9.617188 4.5 "/>
<path style=" stroke:none;fill-rule:nonzero;fill:rgb(96.078431%,47.45098%,0%);fill-opacity:1;" d="M 13.320312 12.105469 C 12.582031 12.105469 12.007812 12.671875 12.007812 13.40625 L 12.007812 22.699219 C 12.007812 23.429688 12.582031 24 13.320312 24 L 22.695312 24 C 23.433594 24 24.007812 23.429688 24.007812 22.699219 L 24.007812 13.40625 C 24.007812 12.671875 23.433594 12.105469 22.695312 12.105469 Z M 16.507812 13.59375 L 19.507812 13.59375 L 19.507812 19.539062 L 16.507812 19.539062 Z M 16.507812 21.027344 L 19.507812 21.027344 L 19.507812 22.515625 L 16.507812 22.515625 Z M 16.507812 21.027344 "/>
<path style=" stroke:none;fill-rule:nonzero;fill:rgb(100%,100%,100%);fill-opacity:1;" d="M 8.117188 19.328125 C 7.1875 19.175781 5.621094 18.585938 4.738281 18.058594 C 3.765625 17.476562 2.34375 16.128906 1.710938 15.183594 C 1.152344 14.355469 0.660156 13.28125 0.363281 12.265625 C 0.164062 11.566406 0.132812 11.230469 0.132812 9.730469 C 0.132812 8.21875 0.160156 7.902344 0.371094 7.191406 C 1.304688 3.992188 3.753906 1.464844 6.859375 0.492188 C 12.066406 -1.136719 17.625 1.882812 19.09375 7.144531 C 19.34375 8.042969 19.523438 9.578125 19.4375 10.113281 L 19.378906 10.496094 L 16.503906 10.496094 L 16.5 9.554688 C 16.488281 7.769531 15.84375 6.300781 14.46875 4.9375 C 13.519531 3.992188 12.46875 3.414062 11.195312 3.132812 C 7.6875 2.355469 4.113281 4.550781 3.175781 8.054688 C 2.945312 8.921875 2.941406 10.527344 3.167969 11.410156 C 3.925781 14.367188 6.621094 16.496094 9.609375 16.496094 L 10.453125 16.496094 L 10.453125 19.445312 L 9.5625 19.433594 C 9.074219 19.425781 8.421875 19.378906 8.117188 19.328125 Z M 8.117188 19.328125 "/>
<path style=" stroke:none;fill-rule:nonzero;fill:rgb(100%,100%,100%);fill-opacity:1;" d="M 6.410156 10.371094 C 6.027344 10.183594 5.949219 9.597656 6.257812 9.25 C 6.394531 9.097656 6.609375 9.070312 7.722656 9.070312 L 9.03125 9.070312 L 9.03125 7.03125 C 9.03125 5.003906 9.03125 4.992188 9.28125 4.746094 C 9.585938 4.441406 9.835938 4.429688 10.1875 4.707031 L 10.453125 4.917969 L 10.453125 9.996094 L 10.203125 10.246094 C 9.960938 10.492188 9.925781 10.496094 8.296875 10.488281 C 7.320312 10.484375 6.546875 10.4375 6.410156 10.371094 Z M 6.410156 10.371094 "/>
</g>
</svg>
