<?xml version="1.0" encoding="UTF-8"?>
<svg xmlns="http://www.w3.org/2000/svg" xmlns:xlink="http://www.w3.org/1999/xlink" width="24" height="24" viewBox="0 0 24 24" version="1.1">
<g id="surface1">
<path style=" stroke:none;fill-rule:nonzero;fill:rgb(74.509804%,74.509804%,74.509804%);fill-opacity:1;" d="M 9.617188 7.5 C 9.253906 7.566406 8.992188 7.882812 9 8.25 L 9 12 L 6.75 12 C 6.480469 11.996094 6.226562 12.136719 6.089844 12.371094 C 5.957031 12.605469 5.957031 12.894531 6.089844 13.128906 C 6.226562 13.363281 6.480469 13.503906 6.75 13.5 L 9.75 13.5 C 10.164062 13.5 10.5 13.164062 10.5 12.75 L 10.5 8.25 C 10.503906 8.023438 10.40625 7.808594 10.234375 7.664062 C 10.0625 7.515625 9.832031 7.457031 9.609375 7.5 Z M 9.617188 7.5 "/>
<path style=" stroke:none;fill-rule:nonzero;fill:rgb(74.509804%,74.509804%,74.509804%);fill-opacity:1;" d="M 16.5 16.5 L 18.5625 16.5 L 20.25 18.140625 L 21.890625 16.5 L 24 16.5 L 24 18.703125 L 22.359375 20.296875 L 24 21.890625 L 24 24 L 21.84375 24 L 20.25 22.40625 L 18.65625 24 L 16.5 24 L 16.5 21.890625 L 18.09375 20.296875 L 16.5 18.703125 Z M 16.5 16.5 "/>
<path style=" stroke:none;fill-rule:nonzero;fill:rgb(74.509804%,74.509804%,74.509804%);fill-opacity:1;" d="M 9.75 3 C 4.382812 3 0 7.382812 0 12.75 C 0 18.117188 4.382812 22.5 9.75 22.5 C 11.6875 22.5 13.476562 21.9375 15 20.953125 L 15 16.96875 C 13.769531 18.507812 11.894531 19.5 9.75 19.5 C 6.003906 19.5 3 16.496094 3 12.75 C 3 9.003906 6.003906 6 9.75 6 C 13.496094 6 16.5 9.003906 16.5 12.75 C 16.5 13.550781 16.328125 14.289062 16.078125 15 L 19.21875 15 C 19.390625 14.277344 19.5 13.523438 19.5 12.75 C 19.5 7.382812 15.117188 3 9.75 3 Z M 9.75 3 "/>
<path style=" stroke:none;fill-rule:nonzero;fill:rgb(100%,0%,0%);fill-opacity:1;" d="M 16.554688 22.878906 L 16.554688 21.839844 L 17.339844 21.046875 L 18.128906 20.257812 L 17.339844 19.46875 L 16.554688 18.675781 L 16.554688 16.496094 L 18.535156 16.496094 L 19.375 17.328125 L 20.210938 18.164062 L 21.066406 17.328125 L 21.921875 16.496094 L 23.980469 16.496094 L 23.980469 18.6875 L 22.351562 20.304688 L 23.980469 21.941406 L 23.980469 23.917969 L 21.796875 23.917969 L 20.21875 22.347656 L 19.425781 23.132812 L 18.636719 23.917969 L 16.554688 23.917969 Z M 16.554688 22.878906 "/>
<path style=" stroke:none;fill-rule:nonzero;fill:rgb(100%,100%,100%);fill-opacity:1;" d="M 8.546875 22.394531 C 4.800781 21.867188 1.753906 19.355469 0.542969 15.792969 C -0.0273438 14.117188 -0.0742188 11.742188 0.433594 10.039062 C 1.394531 6.796875 3.929688 4.316406 7.261719 3.355469 C 7.960938 3.152344 8.289062 3.125 9.792969 3.128906 C 11.378906 3.132812 11.597656 3.15625 12.414062 3.40625 C 13.375 3.703125 14.492188 4.226562 15.234375 4.730469 C 15.910156 5.1875 17.125 6.390625 17.636719 7.101562 C 18.167969 7.84375 18.902344 9.386719 19.132812 10.242188 C 19.480469 11.535156 19.535156 13.558594 19.25 14.691406 L 19.179688 14.96875 L 17.652344 14.96875 C 16.335938 14.96875 16.136719 14.949219 16.1875 14.816406 C 16.21875 14.730469 16.320312 14.289062 16.414062 13.832031 C 16.695312 12.445312 16.507812 11.234375 15.78125 9.707031 C 14.820312 7.695312 12.8125 6.285156 10.550781 6.03125 C 8.414062 5.792969 6.46875 6.464844 4.972656 7.960938 C 1.5 11.433594 2.726562 17.261719 7.308594 19.070312 C 9.675781 20.003906 12.371094 19.484375 14.347656 17.710938 L 14.933594 17.1875 L 14.878906 21.019531 L 14.011719 21.453125 C 12.453125 22.230469 10.179688 22.621094 8.546875 22.394531 Z M 8.546875 22.394531 "/>
<path style=" stroke:none;fill-rule:nonzero;fill:rgb(100%,100%,100%);fill-opacity:1;" d="M 6.28125 13.257812 C 5.976562 13.011719 5.980469 12.449219 6.289062 12.199219 C 6.472656 12.050781 6.71875 12.019531 7.769531 12.019531 L 9.03125 12.019531 L 9.03125 10.003906 C 9.03125 8.117188 9.042969 7.976562 9.238281 7.769531 C 9.5 7.488281 9.980469 7.476562 10.25 7.75 C 10.445312 7.941406 10.453125 8.089844 10.453125 10.496094 C 10.453125 12.902344 10.445312 13.046875 10.25 13.242188 C 10.0625 13.429688 9.910156 13.445312 8.277344 13.445312 C 6.714844 13.445312 6.484375 13.421875 6.28125 13.257812 Z M 6.28125 13.257812 "/>
</g>
</svg>
