<?xml version="1.0" encoding="UTF-8"?>
<svg xmlns="http://www.w3.org/2000/svg" xmlns:xlink="http://www.w3.org/1999/xlink" width="24" height="24" viewBox="0 0 24 24" version="1.1">
<g id="surface1">
<path style=" stroke:none;fill-rule:nonzero;fill:rgb(74.509804%,74.509804%,74.509804%);fill-opacity:1;" d="M 7.5 12 L 7.5 15 L 13.5 15 L 16.5 12 Z M 7.5 16.5 L 7.5 19.5 L 12 19.5 L 12 16.5 Z M 7.5 16.5 "/>
<path style=" stroke:none;fill-rule:nonzero;fill:rgb(74.509804%,74.509804%,74.509804%);fill-opacity:1;" d="M 8.207031 0 C 7.46875 0 7.011719 0.34375 6.660156 0.703125 C 6.296875 1.0625 6 1.542969 6 2.246094 L 6 2.996094 L 3 2.996094 L 3 23.996094 L 15 23.996094 L 15 20.996094 L 6 20.996094 L 6 5.996094 L 9 5.996094 L 9 2.996094 L 15 2.996094 L 15 5.996094 L 18 5.996094 L 18 10.496094 L 21 10.496094 L 21 2.996094 L 18 2.996094 L 18 2.34375 C 17.960938 1.695312 17.742188 1.261719 17.390625 0.84375 C 17.054688 0.445312 16.449219 0.046875 15.65625 0.046875 L 15.65625 0 L 8.203125 0 Z M 8.207031 0 "/>
<path style=" stroke:none;fill-rule:nonzero;fill:rgb(74.509804%,74.509804%,74.509804%);fill-opacity:1;" d="M 19.320312 12 C 18.984375 12.035156 18.671875 12.183594 18.429688 12.421875 L 13.929688 16.921875 C 13.484375 17.351562 13.347656 18.003906 13.582031 18.574219 C 13.820312 19.144531 14.378906 19.511719 14.992188 19.503906 L 18.835938 19.503906 L 16.914062 21.421875 C 16.527344 21.808594 16.371094 22.371094 16.511719 22.902344 C 16.652344 23.429688 17.066406 23.84375 17.59375 23.984375 C 18.125 24.125 18.6875 23.96875 19.070312 23.578125 L 23.570312 19.078125 C 24.019531 18.648438 24.15625 17.992188 23.914062 17.421875 C 23.675781 16.847656 23.113281 16.484375 22.492188 16.5 L 18.648438 16.5 L 20.570312 14.578125 C 21.054688 14.128906 21.1875 13.414062 20.898438 12.820312 C 20.609375 12.226562 19.960938 11.894531 19.308594 11.996094 Z M 19.320312 12 "/>
<path style=" stroke:none;fill-rule:nonzero;fill:rgb(74.509804%,74.509804%,74.509804%);fill-opacity:1;" d="M 22.5 16.5 L 24 16.5 L 24 18 L 22.5 18 Z M 22.5 16.5 "/>
<path style=" stroke:none;fill-rule:nonzero;fill:rgb(74.509804%,74.509804%,74.509804%);fill-opacity:1;" d="M 13.5 18 L 15 18 L 15 19.5 L 13.5 19.5 Z M 13.5 18 "/>
<path style=" stroke:none;fill-rule:nonzero;fill:rgb(74.509804%,74.509804%,74.509804%);fill-opacity:1;" d="M 19.5 12 L 21 12 L 21 13.5 L 19.5 13.5 Z M 19.5 12 "/>
<path style=" stroke:none;fill-rule:nonzero;fill:rgb(74.509804%,74.509804%,74.509804%);fill-opacity:1;" d="M 16.5 22.5 L 18 22.5 L 18 24 L 16.5 24 Z M 16.5 22.5 "/>
<path style=" stroke:none;fill-rule:nonzero;fill:rgb(74.509804%,74.509804%,74.509804%);fill-opacity:1;" d="M 18.242188 12.660156 L 15.242188 17.160156 L 17.773438 18.847656 L 20.773438 14.347656 Z M 18.242188 12.660156 "/>
<path style=" stroke:none;fill-rule:nonzero;fill:rgb(74.509804%,74.509804%,74.509804%);fill-opacity:1;" d="M 19.742188 17.160156 L 16.742188 21.660156 L 19.273438 23.347656 L 22.273438 18.847656 Z M 19.742188 17.160156 "/>
<path style=" stroke:none;fill-rule:nonzero;fill:rgb(0%,0%,0%);fill-opacity:1;" d="M 3.015625 13.492188 L 3.015625 2.996094 L 6.011719 2.996094 L 6.027344 2.386719 C 6.039062 1.859375 6.050781 1.75 6.109375 1.589844 C 6.363281 0.886719 7.011719 0.269531 7.707031 0.0664062 C 7.878906 0.015625 8.199219 0.0117188 11.769531 0.00390625 C 14.4375 -0.00390625 15.648438 0.00390625 15.648438 0.0234375 C 15.648438 0.0429688 15.695312 0.0585938 15.757812 0.0585938 C 15.917969 0.0585938 16.320312 0.144531 16.515625 0.226562 C 17.023438 0.433594 17.484375 0.875 17.753906 1.414062 C 17.90625 1.722656 17.96875 2.027344 17.992188 2.542969 L 18.007812 2.996094 L 21.003906 2.996094 L 21.003906 10.488281 L 18 10.488281 L 18 6 L 14.996094 6 L 14.996094 2.996094 L 8.992188 2.996094 L 8.992188 6 L 5.988281 6 L 5.988281 21.015625 L 14.996094 21.015625 L 14.996094 23.984375 L 3.015625 23.984375 Z M 3.015625 13.492188 "/>
<path style=" stroke:none;fill-rule:nonzero;fill:rgb(100%,0%,0%);fill-opacity:1;" d="M 7.503906 13.492188 L 7.503906 12.007812 L 16.46875 12.007812 L 14.980469 13.492188 L 13.496094 14.976562 L 7.503906 14.976562 Z M 7.503906 13.492188 "/>
<path style=" stroke:none;fill-rule:nonzero;fill:rgb(100%,0%,0%);fill-opacity:1;" d="M 7.503906 18.011719 L 7.503906 16.527344 L 11.992188 16.527344 L 11.992188 19.496094 L 7.503906 19.496094 Z M 7.503906 18.011719 "/>
<path style=" stroke:none;fill-rule:nonzero;fill:rgb(100%,100%,0%);fill-opacity:1;" d="M 17.113281 23.996094 L 16.523438 23.984375 L 16.503906 23.121094 C 16.480469 22.136719 16.5 22.019531 16.722656 21.6875 C 16.785156 21.59375 17.140625 21.066406 17.511719 20.515625 L 18.183594 19.511719 L 13.519531 19.496094 L 13.503906 18.65625 C 13.488281 17.984375 13.496094 17.78125 13.53125 17.640625 C 13.636719 17.222656 13.566406 17.300781 16.171875 14.695312 C 18.4375 12.429688 18.617188 12.253906 18.804688 12.167969 C 19.144531 12.011719 19.246094 12 20.148438 12.003906 C 20.609375 12.007812 20.984375 12.011719 20.988281 12.015625 C 20.992188 12.019531 21 12.425781 21.007812 12.917969 C 21.015625 13.804688 21.015625 13.820312 20.941406 14 C 20.902344 14.101562 20.523438 14.703125 20.101562 15.339844 C 19.675781 15.976562 19.328125 16.503906 19.328125 16.511719 C 19.328125 16.523438 20.105469 16.527344 21.054688 16.527344 C 22.003906 16.523438 23.046875 16.523438 23.375 16.523438 L 23.964844 16.527344 L 23.984375 17.386719 C 24.003906 18.191406 24.003906 18.257812 23.945312 18.445312 C 23.910156 18.554688 23.839844 18.714844 23.785156 18.800781 C 23.667969 18.992188 19.039062 23.625 18.824219 23.769531 C 18.480469 24 18.34375 24.015625 17.113281 23.996094 Z M 17.113281 23.996094 "/>
<path style=" stroke:none;fill-rule:nonzero;fill:rgb(100%,100%,100%);fill-opacity:1;" d="M 3.03125 13.496094 L 3.03125 3.070312 L 6.082031 3.070312 L 6.082031 2.40625 C 6.082031 1.445312 6.4375 0.839844 7.347656 0.261719 C 7.625 0.0859375 7.9375 0.0703125 11.464844 0.0351562 C 14.066406 0.015625 15.476562 0.0390625 15.890625 0.121094 C 17.09375 0.351562 17.726562 1.035156 17.910156 2.304688 L 18.019531 3.070312 L 20.929688 3.070312 L 20.929688 10.394531 L 18.085938 10.394531 L 18.058594 8.179688 L 18.03125 5.96875 L 15.03125 5.914062 L 15.03125 2.96875 L 8.929688 2.96875 L 8.929688 5.917969 L 5.980469 5.917969 L 5.980469 21.070312 L 14.929688 21.070312 L 14.929688 23.917969 L 3.03125 23.917969 Z M 3.03125 13.496094 "/>
</g>
</svg>
