<?xml version="1.0" encoding="UTF-8"?>
<svg xmlns="http://www.w3.org/2000/svg" xmlns:xlink="http://www.w3.org/1999/xlink" width="24" height="24" viewBox="0 0 24 24" version="1.1">
<g id="surface1">
<path style=" stroke:none;fill-rule:nonzero;fill:rgb(74.509804%,74.509804%,74.509804%);fill-opacity:1;" d="M 7.5 12 L 7.5 15 L 16.5 15 L 16.5 12 Z M 7.5 12 "/>
<path style=" stroke:none;fill-rule:nonzero;fill:rgb(74.509804%,74.509804%,74.509804%);fill-opacity:1;" d="M 8.203125 0 C 7.46875 0 7.007812 0.34375 6.65625 0.703125 C 6.300781 1.0625 6 1.542969 6 2.246094 L 6 2.996094 L 3 2.996094 L 3 23.996094 L 21 23.996094 L 21 2.996094 L 18 2.996094 L 18 2.390625 C 17.964844 1.742188 17.746094 1.261719 17.390625 0.84375 C 17.054688 0.445312 16.449219 0.046875 15.65625 0.046875 L 15.65625 0 Z M 9 3 L 15 3 L 15 6 L 18 6 L 18 21 L 6 21 L 6 6 L 9 6 Z M 9 3 "/>
<path style=" stroke:none;fill-rule:nonzero;fill:rgb(74.509804%,74.509804%,74.509804%);fill-opacity:1;" d="M 7.5 16.5 L 7.5 19.5 L 16.5 19.5 L 16.5 16.5 Z M 7.5 16.5 "/>
<path style=" stroke:none;fill-rule:nonzero;fill:rgb(0%,0%,0%);fill-opacity:1;" d="M 3.015625 13.492188 L 3.015625 2.996094 L 6.019531 2.996094 L 6.019531 2.476562 C 6.019531 2.058594 6.03125 1.90625 6.082031 1.71875 C 6.269531 0.976562 6.949219 0.285156 7.707031 0.0664062 C 7.878906 0.015625 8.199219 0.0117188 11.769531 0.00390625 C 14.4375 -0.00390625 15.648438 0.00390625 15.648438 0.0234375 C 15.648438 0.0429688 15.695312 0.0585938 15.757812 0.0585938 C 15.917969 0.0585938 16.320312 0.144531 16.515625 0.226562 C 17.03125 0.433594 17.5 0.890625 17.75 1.421875 C 17.902344 1.746094 17.96875 2.066406 17.988281 2.558594 L 18.007812 2.996094 L 21.003906 2.996094 L 21.003906 23.984375 L 3.015625 23.984375 Z M 18 13.507812 L 18 6 L 14.996094 6 L 14.996094 2.996094 L 8.992188 2.996094 L 8.992188 6 L 5.988281 6 L 5.988281 21.015625 L 18 21.015625 Z M 18 13.507812 "/>
<path style=" stroke:none;fill-rule:nonzero;fill:rgb(100%,0%,0%);fill-opacity:1;" d="M 7.503906 13.492188 L 7.503906 12.007812 L 16.484375 12.007812 L 16.484375 14.976562 L 7.503906 14.976562 Z M 7.503906 13.492188 "/>
<path style=" stroke:none;fill-rule:nonzero;fill:rgb(100%,0%,0%);fill-opacity:1;" d="M 7.503906 18.011719 L 7.503906 16.527344 L 16.484375 16.527344 L 16.484375 19.496094 L 7.503906 19.496094 Z M 7.503906 18.011719 "/>
<path style=" stroke:none;fill-rule:nonzero;fill:rgb(100%,100%,100%);fill-opacity:1;" d="M 3.03125 13.496094 L 3.03125 3.070312 L 6.082031 3.070312 L 6.082031 2.457031 C 6.082031 1.484375 6.457031 0.820312 7.300781 0.292969 C 7.648438 0.078125 7.757812 0.0703125 11.46875 0.0351562 C 14.070312 0.015625 15.476562 0.0390625 15.890625 0.121094 C 17.09375 0.351562 17.726562 1.035156 17.910156 2.304688 L 18.019531 3.070312 L 20.929688 3.070312 L 20.929688 23.917969 L 3.03125 23.917969 Z M 18.054688 13.519531 L 18.03125 5.96875 L 15.03125 5.914062 L 15.03125 2.96875 L 8.929688 2.96875 L 8.929688 5.917969 L 5.980469 5.917969 L 5.980469 21.070312 L 18.082031 21.070312 Z M 18.054688 13.519531 "/>
</g>
</svg>
