<?xml version="1.0" encoding="UTF-8"?>
<svg xmlns="http://www.w3.org/2000/svg" xmlns:xlink="http://www.w3.org/1999/xlink" width="24" height="24" viewBox="0 0 24 24" version="1.1">
<g id="surface1">
<path style=" stroke:none;fill-rule:nonzero;fill:rgb(80%,0%,0%);fill-opacity:1;" d="M 7.5 16.5 L 7.5 19.5 L 10.5 19.5 L 10.5 16.5 Z M 7.5 16.5 "/>
<path style=" stroke:none;fill-rule:nonzero;fill:rgb(74.509804%,74.509804%,74.509804%);fill-opacity:1;" d="M 8.207031 0 C 7.46875 0 7.011719 0.34375 6.660156 0.703125 C 6.296875 1.0625 6 1.542969 6 2.246094 L 6 2.996094 L 3 2.996094 L 3 23.996094 L 10.5 23.996094 L 10.5 20.996094 L 6 20.996094 L 6 5.996094 L 9 5.996094 L 9 2.996094 L 15 2.996094 L 15 5.996094 L 18 5.996094 L 18 10.496094 L 21 10.496094 L 21 2.996094 L 18 2.996094 L 18 2.34375 C 17.960938 1.695312 17.742188 1.261719 17.390625 0.84375 C 17.054688 0.445312 16.449219 0.046875 15.65625 0.046875 L 15.65625 0 L 8.203125 0 Z M 8.207031 0 "/>
<path style=" stroke:none;fill-rule:nonzero;fill:rgb(96.078431%,47.45098%,0%);fill-opacity:1;" d="M 13.320312 12 C 12.582031 12 12.007812 12.574219 12.007812 13.3125 L 12.007812 22.6875 C 12.007812 23.425781 12.582031 24 13.320312 24 L 22.695312 24 C 23.433594 24 24.007812 23.425781 24.007812 22.6875 L 24.007812 13.3125 C 24.007812 12.574219 23.433594 12 22.695312 12 Z M 16.507812 13.5 L 19.507812 13.5 L 19.507812 19.5 L 16.507812 19.5 Z M 16.507812 21 L 19.507812 21 L 19.507812 22.5 L 16.507812 22.5 Z M 16.507812 21 "/>
<path style=" stroke:none;fill-rule:nonzero;fill:rgb(0%,0%,0%);fill-opacity:1;" d="M 3.039062 13.511719 L 3.039062 3.015625 L 6.023438 3.015625 L 6.023438 2.484375 C 6.023438 1.871094 6.117188 1.484375 6.359375 1.105469 C 6.578125 0.757812 7.015625 0.375 7.378906 0.199219 L 7.675781 0.0585938 L 11.554688 0.0429688 C 14.054688 0.0351562 15.585938 0.046875 15.867188 0.0859375 C 16.714844 0.195312 17.375 0.667969 17.746094 1.421875 C 17.90625 1.75 17.925781 1.847656 17.953125 2.386719 L 17.984375 2.988281 L 19.488281 3.003906 L 20.992188 3.015625 L 20.992188 10.5 L 18.007812 10.5 L 18.007812 6 L 15.027344 6 L 15.027344 2.960938 L 9.007812 2.960938 L 9.007812 6 L 5.96875 6 L 5.96875 21.023438 L 10.46875 21.023438 L 10.46875 24.007812 L 3.039062 24.007812 Z M 3.039062 13.511719 "/>
<path style=" stroke:none;fill-rule:nonzero;fill:rgb(100%,100%,100%);fill-opacity:1;" d="M 3.132812 13.496094 L 3.132812 3.070312 L 6.082031 3.070312 L 6.082031 2.457031 C 6.082031 1.507812 6.351562 0.988281 7.140625 0.414062 L 7.535156 0.121094 L 11.714844 0.121094 C 14.140625 0.121094 16.046875 0.164062 16.253906 0.222656 C 17.097656 0.457031 17.785156 1.265625 17.847656 2.097656 C 17.929688 3.160156 17.785156 3.070312 19.457031 3.070312 L 20.929688 3.070312 L 20.929688 10.496094 L 18.082031 10.496094 L 18.082031 5.917969 L 15.03125 5.917969 L 15.03125 2.863281 L 12.003906 2.890625 L 8.980469 2.917969 L 8.953125 4.414062 L 8.921875 5.914062 L 5.929688 5.96875 L 5.875 21.070312 L 10.453125 21.070312 L 10.453125 23.917969 L 3.132812 23.917969 Z M 3.132812 13.496094 "/>
</g>
</svg>
