<?xml version="1.0" encoding="UTF-8"?>
<svg xmlns="http://www.w3.org/2000/svg" xmlns:xlink="http://www.w3.org/1999/xlink" width="24" height="24" viewBox="0 0 24 24" version="1.1">
<g id="surface1">
<path style=" stroke:none;fill-rule:nonzero;fill:rgb(74.509804%,74.509804%,74.509804%);fill-opacity:1;" d="M 10.3125 0.015625 C 9.558594 0.109375 8.992188 0.753906 9 1.515625 L 9 6.859375 L 7.078125 4.9375 C 6.695312 4.546875 6.128906 4.390625 5.601562 4.53125 C 5.070312 4.671875 4.65625 5.085938 4.515625 5.617188 C 4.375 6.144531 4.53125 6.710938 4.921875 7.09375 L 9 11.171875 L 9 12.859375 L 4.921875 16.9375 C 4.53125 17.324219 4.375 17.886719 4.515625 18.417969 C 4.65625 18.945312 5.070312 19.359375 5.597656 19.5 C 6.128906 19.640625 6.691406 19.484375 7.078125 19.09375 L 9 17.175781 L 9 22.515625 C 8.984375 23.132812 9.351562 23.695312 9.921875 23.933594 C 10.492188 24.171875 11.148438 24.039062 11.578125 23.59375 L 17.578125 17.59375 C 17.871094 17.3125 18.035156 16.921875 18.035156 16.515625 C 18.035156 16.109375 17.871094 15.71875 17.578125 15.4375 L 14.15625 12.015625 L 17.578125 8.59375 C 17.871094 8.3125 18.035156 7.921875 18.035156 7.515625 C 18.035156 7.109375 17.871094 6.722656 17.578125 6.4375 L 11.578125 0.4375 C 11.246094 0.109375 10.777344 -0.046875 10.3125 0.0195312 Z M 12 5.175781 L 14.34375 7.515625 L 12 9.855469 L 12 5.167969 Z M 12 14.175781 L 14.34375 16.515625 L 12 18.855469 L 12 14.167969 Z M 12 14.175781 "/>
<path style=" stroke:none;fill-rule:nonzero;fill:rgb(74.509804%,74.509804%,74.509804%);fill-opacity:1;" d="M 4.5 4.515625 L 6 4.515625 L 6 6.015625 L 4.5 6.015625 Z M 4.5 4.515625 "/>
<path style=" stroke:none;fill-rule:nonzero;fill:rgb(74.509804%,74.509804%,74.509804%);fill-opacity:1;" d="M 4.5 18.015625 L 6 18.015625 L 6 19.515625 L 4.5 19.515625 Z M 4.5 18.015625 "/>
<path style=" stroke:none;fill-rule:nonzero;fill:rgb(74.509804%,74.509804%,74.509804%);fill-opacity:1;" d="M 9 22.515625 L 10.5 22.515625 L 10.5 24.015625 L 9 24.015625 Z M 9 22.515625 "/>
<path style=" stroke:none;fill-rule:nonzero;fill:rgb(74.509804%,74.509804%,74.509804%);fill-opacity:1;" d="M 9 0.015625 L 10.5 0.015625 L 10.5 1.515625 L 9 1.515625 Z M 9 0.015625 "/>
</g>
</svg>
