<?xml version="1.0" encoding="UTF-8"?>
<svg xmlns="http://www.w3.org/2000/svg" xmlns:xlink="http://www.w3.org/1999/xlink" width="24" height="24" viewBox="0 0 24 24" version="1.1">
<g id="surface1">
<path style=" stroke:none;fill-rule:nonzero;fill:rgb(100%,100%,100%);fill-opacity:1;" d="M 11.882812 1.015625 C 11.492188 1.113281 11.203125 1.4375 11.148438 1.835938 C 11.148438 1.847656 11.148438 1.863281 11.148438 1.878906 C 11.136719 1.890625 11.121094 1.90625 11.105469 1.917969 C 11.105469 1.949219 11.105469 1.976562 11.105469 2.007812 C 11.082031 2.078125 11.070312 2.148438 11.066406 2.21875 L 11.105469 9.664062 L 8.613281 7.125 C 8.394531 6.804688 8.007812 6.648438 7.628906 6.722656 C 7.25 6.792969 6.953125 7.085938 6.867188 7.460938 C 6.78125 7.835938 6.925781 8.230469 7.234375 8.457031 L 10.71875 11.984375 L 7.234375 15.46875 C 6.859375 15.847656 6.859375 16.464844 7.234375 16.84375 C 7.617188 17.222656 8.234375 17.222656 8.613281 16.84375 L 11.148438 14.265625 L 11.195312 21.703125 C 11.199219 21.761719 11.214844 21.820312 11.234375 21.875 C 11.234375 21.890625 11.234375 21.90625 11.234375 21.921875 C 11.191406 22.324219 11.40625 22.714844 11.769531 22.894531 C 12.132812 23.078125 12.574219 23.015625 12.871094 22.738281 L 17.6875 17.574219 C 18.03125 17.1875 18.007812 16.605469 17.644531 16.242188 L 13.429688 11.984375 L 17.644531 7.683594 C 18.007812 7.320312 18.03125 6.734375 17.6875 6.347656 L 12.785156 1.320312 C 12.554688 1.066406 12.214844 0.953125 11.882812 1.015625 Z M 12.441406 3.726562 L 15.625 6.996094 L 12.484375 10.179688 Z M 12.527344 13.835938 L 15.625 16.929688 L 12.570312 20.199219 Z M 12.527344 13.835938 "/>
</g>
</svg>
