<?xml version="1.0" encoding="UTF-8"?>
<svg xmlns="http://www.w3.org/2000/svg" xmlns:xlink="http://www.w3.org/1999/xlink" width="24" height="24" viewBox="0 0 24 24" version="1.1">
<g id="surface1">
<path style=" stroke:none;fill-rule:nonzero;fill:rgb(100%,100%,100%);fill-opacity:1;" d="M 11.265625 1 C 10.082031 1.167969 9.460938 2.492188 9.609375 3.59375 C 9.617188 4.882812 9.632812 6.179688 9.640625 7.46875 C 9.066406 6.882812 8.476562 6.085938 7.550781 6.183594 C 6.382812 6.203125 5.429688 7.449219 5.828125 8.570312 C 6.203125 9.476562 7.035156 10.042969 7.667969 10.75 C 8.074219 11.160156 8.480469 11.570312 8.890625 11.984375 C 7.976562 12.933594 6.980469 13.820312 6.125 14.808594 C 5.359375 15.886719 6.195312 17.621094 7.53125 17.65625 C 8.429688 17.820312 9.15625 17.046875 9.703125 16.421875 C 9.730469 18.089844 9.664062 19.765625 9.765625 21.433594 C 9.941406 22.546875 11.242188 23.332031 12.273438 22.863281 C 13.175781 22.492188 13.660156 21.578125 14.359375 20.945312 C 15.429688 19.78125 16.550781 18.636719 17.570312 17.441406 C 18.148438 16.515625 17.664062 15.34375 16.859375 14.734375 C 15.945312 13.8125 15.039062 12.890625 14.125 11.96875 C 15.242188 10.8125 16.410156 9.6875 17.484375 8.5 C 18.222656 7.539062 17.652344 6.253906 16.777344 5.617188 C 15.371094 4.191406 14.007812 2.726562 12.574219 1.332031 C 12.203125 1.058594 11.722656 0.96875 11.265625 1 Z M 11.328125 1.640625 C 12.410156 1.539062 12.898438 2.734375 13.632812 3.308594 C 14.734375 4.464844 15.898438 5.574219 16.964844 6.757812 C 17.546875 7.578125 16.828125 8.402344 16.210938 8.921875 C 15.21875 9.945312 14.214844 10.953125 13.21875 11.96875 C 14.457031 13.183594 15.671875 14.449219 16.882812 15.671875 C 17.558594 16.445312 16.964844 17.386719 16.304688 17.914062 C 15.039062 19.269531 13.789062 20.617188 12.546875 21.953125 C 12.015625 22.519531 11.03125 22.484375 10.613281 21.792969 C 10.160156 21.007812 10.445312 20.039062 10.351562 19.171875 C 10.351562 18.019531 10.351562 16.867188 10.34375 15.71875 C 9.664062 14.828125 8.984375 16.574219 8.316406 16.851562 C 7.578125 17.382812 6.480469 16.738281 6.484375 15.84375 C 6.472656 14.925781 7.445312 14.476562 7.941406 13.832031 C 8.558594 13.214844 9.171875 12.601562 9.78125 11.984375 C 8.734375 10.878906 7.628906 9.828125 6.601562 8.710938 C 5.976562 7.898438 6.835938 6.671875 7.8125 6.835938 C 8.644531 7.070312 9.082031 7.949219 9.734375 8.46875 C 9.898438 8.546875 10.292969 9.179688 10.28125 8.851562 C 10.285156 6.886719 10.238281 4.921875 10.257812 2.960938 C 10.320312 2.371094 10.6875 1.722656 11.328125 1.640625 Z M 12.1875 5.296875 C 12.183594 6.703125 12.203125 8.109375 12.203125 9.515625 C 12.898438 8.828125 13.578125 8.125 14.265625 7.4375 C 13.585938 6.710938 12.859375 6.03125 12.1875 5.296875 Z M 12.828125 6.875 C 12.9375 7.09375 13.5 7.308594 13.269531 7.53125 C 12.964844 7.894531 12.710938 8.140625 12.835938 7.421875 C 12.832031 7.238281 12.828125 7.058594 12.828125 6.875 Z M 12.265625 14.484375 C 12.265625 15.859375 12.265625 17.234375 12.265625 18.609375 C 12.929688 17.902344 13.601562 17.207031 14.265625 16.5 C 13.597656 15.828125 12.9375 15.148438 12.265625 14.484375 Z M 12.921875 16.0625 C 13.09375 16.28125 13.5625 16.492188 13.15625 16.722656 C 12.859375 17.203125 12.917969 16.742188 12.921875 16.433594 C 12.921875 16.308594 12.921875 16.1875 12.921875 16.0625 Z M 12.921875 16.0625 "/>
</g>
</svg>
