<?xml version="1.0" encoding="UTF-8"?>
<svg xmlns="http://www.w3.org/2000/svg" xmlns:xlink="http://www.w3.org/1999/xlink" width="24" height="24" viewBox="0 0 24 24" version="1.1">
<g id="surface1">
<path style=" stroke:none;fill-rule:nonzero;fill:rgb(100%,100%,100%);fill-opacity:1;" d="M 12 1 C 11.960938 1 11.914062 1.007812 11.875 1.015625 C 11.492188 1.117188 11.210938 1.4375 11.15625 1.828125 C 11.15625 1.84375 11.15625 1.859375 11.15625 1.875 C 11.140625 1.890625 11.125 1.90625 11.109375 1.921875 C 11.105469 1.949219 11.105469 1.976562 11.109375 2 C 11.082031 2.070312 11.066406 2.144531 11.0625 2.21875 L 11.109375 9.65625 L 8.609375 7.125 C 8.394531 6.804688 8.007812 6.640625 7.625 6.710938 C 7.238281 6.78125 6.9375 7.074219 6.851562 7.453125 C 6.769531 7.832031 6.917969 8.226562 7.234375 8.453125 L 10.71875 11.984375 L 7.234375 15.46875 C 6.96875 15.710938 6.859375 16.078125 6.949219 16.421875 C 7.039062 16.769531 7.308594 17.042969 7.65625 17.128906 C 8 17.21875 8.367188 17.105469 8.609375 16.84375 L 11.15625 14.265625 L 11.1875 21.703125 C 11.195312 21.761719 11.210938 21.820312 11.234375 21.875 C 11.234375 21.890625 11.234375 21.90625 11.234375 21.921875 C 11.1875 22.328125 11.402344 22.71875 11.769531 22.90625 C 12.136719 23.085938 12.578125 23.019531 12.875 22.734375 L 17.6875 17.578125 C 18.035156 17.1875 18.015625 16.597656 17.640625 16.234375 L 13.4375 11.984375 L 17.640625 7.6875 C 18.015625 7.324219 18.035156 6.734375 17.6875 6.34375 L 12.78125 1.3125 C 12.582031 1.09375 12.296875 0.980469 12 1 Z M 12.4375 3.734375 L 15.625 7 L 12.484375 10.171875 Z M 19.109375 8.359375 C 18.707031 8.359375 18.300781 8.480469 17.984375 8.765625 C 17.664062 9.050781 17.453125 9.496094 17.453125 10.015625 L 17.453125 10.796875 L 17.4375 10.796875 C 16.976562 10.796875 16.59375 11.179688 16.59375 11.640625 L 16.59375 14.109375 C 16.59375 14.570312 16.976562 14.953125 17.4375 14.953125 L 20.75 14.953125 C 21.210938 14.953125 21.578125 14.570312 21.578125 14.109375 L 21.578125 11.640625 C 21.578125 11.1875 21.230469 10.8125 20.78125 10.796875 L 20.78125 10.015625 C 20.78125 9.496094 20.550781 9.050781 20.234375 8.765625 C 19.914062 8.480469 19.515625 8.359375 19.109375 8.359375 Z M 19.109375 9.1875 C 19.328125 9.1875 19.539062 9.261719 19.6875 9.390625 C 19.835938 9.523438 19.953125 9.703125 19.953125 10.015625 L 19.953125 10.796875 L 18.28125 10.796875 L 18.28125 10.015625 C 18.28125 9.703125 18.382812 9.523438 18.53125 9.390625 C 18.679688 9.261719 18.890625 9.1875 19.109375 9.1875 Z M 12.53125 13.828125 L 15.625 16.9375 L 12.5625 20.203125 Z M 12.53125 13.828125 "/>
</g>
</svg>
