<?xml version="1.0" encoding="UTF-8"?>
<svg xmlns="http://www.w3.org/2000/svg" xmlns:xlink="http://www.w3.org/1999/xlink" width="24" height="24" viewBox="0 0 24 24" version="1.1">
<g id="surface1">
<path style=" stroke:none;fill-rule:nonzero;fill:rgb(74.509804%,74.509804%,74.509804%);fill-opacity:1;" d="M 7.5 0 C 5.03125 0 3 2.03125 3 4.5 L 3 9 L 6 9 L 6 4.5 C 6 3.644531 6.644531 3 7.5 3 L 10.5 3 C 11.355469 3 12 3.644531 12 4.5 L 12 4.875 C 12.402344 4.652344 12.835938 4.5 13.3125 4.5 L 15 4.5 C 15 2.03125 12.96875 0 10.5 0 Z M 2.90625 13.5 C 2.074219 13.5 1.308594 14.175781 1.40625 15 L 1.40625 22.5 L 16.5 22.5 L 16.5 19.5 L 13.3125 19.5 C 11.796875 19.5 10.5 18.203125 10.5 16.6875 L 10.5 13.5 Z M 2.90625 13.5 "/>
<path style=" stroke:none;fill-rule:nonzero;fill:rgb(96.078431%,47.45098%,0%);fill-opacity:1;" d="M 13.320312 6 C 12.582031 6 12.007812 6.574219 12.007812 7.3125 L 12.007812 16.6875 C 12.007812 17.425781 12.582031 18 13.320312 18 L 22.695312 18 C 23.433594 18 24.007812 17.425781 24.007812 16.6875 L 24.007812 7.3125 C 24.007812 6.578125 23.4375 6.007812 22.6875 6.007812 L 13.3125 6.007812 Z M 16.507812 7.5 L 19.507812 7.5 L 19.507812 13.5 L 16.507812 13.5 Z M 16.507812 15 L 19.507812 15 L 19.507812 16.5 L 16.507812 16.5 Z M 16.507812 15 "/>
<path style=" stroke:none;fill-rule:nonzero;fill:rgb(100%,100%,100%);fill-opacity:1;" d="M 3.03125 6.5 C 3.03125 4.609375 3.066406 3.890625 3.1875 3.429688 C 3.621094 1.757812 5.019531 0.441406 6.6875 0.121094 C 7.550781 -0.0390625 10.816406 -0.0078125 11.503906 0.171875 C 12.652344 0.472656 13.566406 1.09375 14.171875 1.988281 C 14.5625 2.5625 14.929688 3.613281 14.929688 4.148438 L 14.929688 4.496094 L 13.859375 4.496094 C 13.160156 4.496094 12.664062 4.546875 12.4375 4.640625 L 12.089844 4.785156 L 12.023438 4.324219 C 11.9375 3.75 11.492188 3.21875 10.980469 3.066406 C 10.75 2.996094 9.894531 2.96875 8.757812 2.988281 C 7.078125 3.015625 6.882812 3.039062 6.621094 3.230469 C 6.023438 3.671875 5.980469 3.898438 5.980469 6.554688 L 5.980469 8.96875 L 3.03125 8.96875 Z M 3.03125 6.5 "/>
<path style=" stroke:none;fill-rule:nonzero;fill:rgb(100%,100%,100%);fill-opacity:1;" d="M 1.425781 18.484375 C 1.453125 14.613281 1.460938 14.464844 1.664062 14.1875 C 2.132812 13.550781 2.175781 13.546875 6.503906 13.546875 L 10.4375 13.546875 L 10.472656 15.453125 C 10.507812 17.613281 10.59375 17.933594 11.332031 18.667969 C 12.066406 19.40625 12.386719 19.492188 14.546875 19.527344 L 16.453125 19.5625 L 16.453125 22.496094 L 1.398438 22.496094 Z M 1.425781 18.484375 "/>
</g>
</svg>
