<?xml version="1.0" encoding="UTF-8"?>
<svg xmlns="http://www.w3.org/2000/svg" xmlns:xlink="http://www.w3.org/1999/xlink" width="24" height="24" viewBox="0 0 24 24" version="1.1">
<g id="surface1">
<path style=" stroke:none;fill-rule:nonzero;fill:rgb(100%,100%,100%);fill-opacity:1;" d="M 10.5 3 C 8.03125 3 6 5.03125 6 7.5 L 6 10.5 C 6 10.5 4.5 10.5 4.5 12 L 4.5 19.5 L 19.5 19.5 L 19.5 12 C 19.5 12 19.5 10.5 18 10.5 L 18 7.5 C 18 5.03125 15.96875 3 13.5 3 Z M 10.5 6 L 13.5 6 C 14.355469 6 15 6.644531 15 7.5 L 15 10.5 L 9 10.5 L 9 7.5 C 9 6.644531 9.644531 6 10.5 6 Z M 10.5 6 "/>
</g>
</svg>
