<?xml version="1.0" encoding="UTF-8"?>
<svg xmlns="http://www.w3.org/2000/svg" xmlns:xlink="http://www.w3.org/1999/xlink" width="24" height="24" viewBox="0 0 24 24" version="1.1">
<g id="surface1">
<path style=" stroke:none;fill-rule:nonzero;fill:rgb(100%,100%,100%);fill-opacity:1;" d="M 0.75 10.5 L 3.75 10.5 C 4.164062 10.5 4.5 10.835938 4.5 11.25 L 4.5 12.75 C 4.5 13.164062 4.164062 13.5 3.75 13.5 L 0.75 13.5 C 0.335938 13.5 0 13.164062 0 12.75 L 0 11.25 C 0 10.835938 0.335938 10.5 0.75 10.5 Z M 0.75 10.5 "/>
<path style=" stroke:none;fill-rule:nonzero;fill:rgb(100%,100%,100%);fill-opacity:1;" d="M 20.25 10.5 L 23.25 10.5 C 23.664062 10.5 24 10.835938 24 11.25 L 24 12.75 C 24 13.164062 23.664062 13.5 23.25 13.5 L 20.25 13.5 C 19.835938 13.5 19.5 13.164062 19.5 12.75 L 19.5 11.25 C 19.5 10.835938 19.835938 10.5 20.25 10.5 Z M 20.25 10.5 "/>
<path style=" stroke:none;fill-rule:nonzero;fill:rgb(100%,100%,100%);fill-opacity:1;" d="M 2.980469 18.894531 L 5.101562 16.773438 C 5.394531 16.480469 5.867188 16.480469 6.160156 16.773438 L 7.222656 17.832031 C 7.515625 18.125 7.515625 18.601562 7.222656 18.894531 L 5.101562 21.015625 C 4.808594 21.308594 4.332031 21.308594 4.039062 21.015625 L 2.980469 19.957031 C 2.6875 19.664062 2.6875 19.1875 2.980469 18.894531 Z M 2.980469 18.894531 "/>
<path style=" stroke:none;fill-rule:nonzero;fill:rgb(100%,100%,100%);fill-opacity:1;" d="M 16.765625 5.105469 L 18.890625 2.984375 C 19.179688 2.691406 19.65625 2.691406 19.949219 2.984375 L 21.011719 4.046875 C 21.304688 4.339844 21.304688 4.8125 21.011719 5.105469 L 18.886719 7.226562 C 18.597656 7.519531 18.121094 7.519531 17.828125 7.226562 L 16.765625 6.167969 C 16.476562 5.875 16.472656 5.398438 16.765625 5.105469 Z M 16.765625 5.105469 "/>
<path style=" stroke:none;fill-rule:nonzero;fill:rgb(100%,100%,100%);fill-opacity:1;" d="M 10.5 23.25 L 10.5 20.25 C 10.5 19.835938 10.835938 19.5 11.25 19.5 L 12.75 19.5 C 13.164062 19.5 13.5 19.835938 13.5 20.25 L 13.5 23.25 C 13.5 23.664062 13.164062 24 12.75 24 L 11.25 24 C 10.835938 24 10.5 23.664062 10.5 23.25 Z M 10.5 23.25 "/>
<path style=" stroke:none;fill-rule:nonzero;fill:rgb(100%,100%,100%);fill-opacity:1;" d="M 10.5 3.75 L 10.5 0.75 C 10.5 0.335938 10.835938 0 11.25 0 L 12.75 0 C 13.164062 0 13.5 0.335938 13.5 0.75 L 13.5 3.75 C 13.5 4.164062 13.164062 4.5 12.75 4.5 L 11.25 4.5 C 10.835938 4.5 10.5 4.164062 10.5 3.75 Z M 10.5 3.75 "/>
<path style=" stroke:none;fill-rule:nonzero;fill:rgb(100%,100%,100%);fill-opacity:1;" d="M 18.890625 21.015625 L 16.765625 18.894531 C 16.472656 18.601562 16.472656 18.125 16.765625 17.832031 L 17.828125 16.773438 C 18.121094 16.480469 18.597656 16.480469 18.886719 16.773438 L 21.011719 18.894531 C 21.304688 19.1875 21.304688 19.664062 21.011719 19.957031 L 19.949219 21.015625 C 19.65625 21.308594 19.183594 21.308594 18.890625 21.015625 Z M 18.890625 21.015625 "/>
<path style=" stroke:none;fill-rule:nonzero;fill:rgb(100%,100%,100%);fill-opacity:1;" d="M 5.101562 7.226562 L 2.980469 5.105469 C 2.6875 4.8125 2.6875 4.339844 2.980469 4.046875 L 4.039062 2.984375 C 4.332031 2.691406 4.808594 2.691406 5.101562 2.984375 L 7.222656 5.105469 C 7.515625 5.398438 7.515625 5.875 7.222656 6.167969 L 6.160156 7.226562 C 5.867188 7.519531 5.394531 7.519531 5.101562 7.226562 Z M 5.101562 7.226562 "/>
<path style=" stroke:none;fill-rule:nonzero;fill:rgb(100%,100%,100%);fill-opacity:1;" d="M 11.984375 6.015625 C 8.6875 6.015625 6.015625 8.6875 6.015625 11.984375 C 6.015625 15.28125 8.6875 17.996094 11.984375 17.996094 C 15.28125 17.996094 17.996094 15.28125 17.996094 11.984375 C 17.996094 8.6875 15.28125 6.015625 11.984375 6.015625 Z M 11.984375 9 C 13.65625 9 15.011719 10.308594 15.011719 11.984375 C 15.011719 13.65625 13.65625 15.011719 11.984375 15.011719 C 10.308594 15.011719 9 13.65625 9 11.984375 C 9 10.308594 10.308594 9 11.984375 9 Z M 11.984375 9 "/>
</g>
</svg>
