<?xml version="1.0" encoding="UTF-8"?>
<svg xmlns="http://www.w3.org/2000/svg" xmlns:xlink="http://www.w3.org/1999/xlink" width="24" height="24" viewBox="0 0 24 24" version="1.1">
<g id="surface1">
<path style=" stroke:none;fill-rule:nonzero;fill:rgb(100%,100%,100%);fill-opacity:1;" d="M 12 13.75 C 10.132812 13.75 8.453125 14.515625 7.226562 15.742188 C 7.179688 15.785156 7.15625 15.839844 7.15625 15.90625 C 7.15625 15.96875 7.179688 16.039062 7.226562 16.082031 L 8.757812 17.597656 C 8.851562 17.6875 8.992188 17.6875 9.085938 17.597656 C 9.828125 16.855469 10.863281 16.394531 12 16.394531 C 13.136719 16.394531 14.171875 16.855469 14.914062 17.597656 C 15.007812 17.6875 15.148438 17.6875 15.242188 17.597656 L 16.773438 16.082031 C 16.820312 16.039062 16.84375 15.96875 16.84375 15.90625 C 16.84375 15.839844 16.820312 15.785156 16.773438 15.742188 C 15.546875 14.515625 13.867188 13.75 12 13.75 Z M 12 18.101562 C 11.335938 18.101562 10.742188 18.382812 10.304688 18.816406 C 10.21875 18.90625 10.21875 19.050781 10.304688 19.144531 L 11.835938 20.675781 C 11.925781 20.761719 12.074219 20.761719 12.164062 20.675781 L 13.695312 19.144531 C 13.78125 19.050781 13.78125 18.90625 13.695312 18.816406 C 13.257812 18.382812 12.664062 18.101562 12 18.101562 Z M 12 18.101562 "/>
</g>
</svg>
