<?xml version="1.0" encoding="UTF-8"?>
<svg xmlns="http://www.w3.org/2000/svg" xmlns:xlink="http://www.w3.org/1999/xlink" width="24" height="24" viewBox="0 0 24 24" version="1.1">
<g id="surface1">
<path style=" stroke:none;fill-rule:nonzero;fill:rgb(100%,100%,100%);fill-opacity:1;" d="M 0.707031 15 L 3.75 15 C 4.140625 15 4.457031 15.335938 4.457031 15.75 L 4.457031 17.25 C 4.457031 17.664062 4.140625 18 3.75 18 L 0.707031 18 C 0.316406 18 0 17.664062 0 17.25 L 0 15.75 C 0 15.335938 0.316406 15 0.707031 15 Z M 0.707031 15 "/>
<path style=" stroke:none;fill-rule:nonzero;fill:rgb(100%,100%,100%);fill-opacity:1;" d="M 20.21875 15 L 23.246094 15 C 23.660156 15 23.996094 15.335938 23.996094 15.75 L 23.996094 17.25 C 23.996094 17.664062 23.660156 18 23.246094 18 L 20.21875 18 C 19.804688 18 19.46875 17.664062 19.46875 17.25 L 19.46875 15.75 C 19.46875 15.335938 19.804688 15 20.21875 15 Z M 20.21875 15 "/>
<path style=" stroke:none;fill-rule:nonzero;fill:rgb(100%,100%,100%);fill-opacity:1;" d="M 16.761719 9.625 L 18.902344 7.484375 C 19.195312 7.191406 19.671875 7.191406 19.960938 7.484375 L 21.023438 8.546875 C 21.316406 8.839844 21.316406 9.3125 21.023438 9.605469 L 18.882812 11.746094 C 18.59375 12.039062 18.117188 12.039062 17.824219 11.746094 L 16.761719 10.683594 C 16.46875 10.390625 16.46875 9.917969 16.761719 9.625 Z M 16.761719 9.625 "/>
<path style=" stroke:none;fill-rule:nonzero;fill:rgb(100%,100%,100%);fill-opacity:1;" d="M 5.117188 11.746094 L 2.976562 9.605469 C 2.683594 9.3125 2.683594 8.839844 2.976562 8.546875 L 4.039062 7.484375 C 4.332031 7.191406 4.808594 7.191406 5.101562 7.484375 L 7.238281 9.625 C 7.53125 9.917969 7.53125 10.390625 7.238281 10.683594 L 6.179688 11.746094 C 5.886719 12.039062 5.410156 12.039062 5.117188 11.746094 Z M 5.117188 11.746094 "/>
<path style=" stroke:none;fill-rule:nonzero;fill:rgb(100%,100%,100%);fill-opacity:1;" d="M 10.5 8.25 L 10.5 5.25 C 10.5 4.835938 10.835938 4.5 11.25 4.5 L 12.75 4.5 C 13.164062 4.5 13.5 4.835938 13.5 5.25 L 13.5 8.25 C 13.5 8.664062 13.164062 9 12.75 9 L 11.25 9 C 10.835938 9 10.5 8.664062 10.5 8.25 Z M 10.5 8.25 "/>
<path style=" stroke:none;fill-rule:nonzero;fill:rgb(100%,100%,100%);fill-opacity:1;" d="M 9.375 13.5 C 9.125 13.511719 8.890625 13.675781 8.8125 13.890625 L 7.558594 17.21875 C 7.40625 17.566406 7.746094 18.007812 8.164062 18 C 8.164062 18 9.769531 18 12.015625 18 C 14.257812 18 15.863281 18 15.863281 18 C 16.28125 18.007812 16.621094 17.566406 16.46875 17.21875 L 15.214844 13.890625 C 15.105469 13.601562 14.710938 13.433594 14.394531 13.539062 C 14.074219 13.644531 13.164062 13.929688 12.015625 13.929688 C 10.867188 13.929688 9.953125 13.644531 9.636719 13.539062 C 9.550781 13.511719 9.464844 13.496094 9.375 13.5 Z M 9.375 13.5 "/>
</g>
</svg>
