<?xml version="1.0" encoding="UTF-8"?>
<svg xmlns="http://www.w3.org/2000/svg" xmlns:xlink="http://www.w3.org/1999/xlink" width="24" height="24" viewBox="0 0 24 24" version="1.1">
<g id="surface1">
<path style=" stroke:none;fill-rule:nonzero;fill:rgb(100%,100%,100%);fill-opacity:1;" d="M 8.96875 7.53125 C 8.144531 7.515625 7.484375 6.835938 7.496094 6.007812 C 7.496094 2.707031 10.191406 0.00390625 13.476562 0.00390625 C 16.761719 0.00390625 19.457031 2.710938 19.457031 6.007812 C 19.472656 6.554688 19.191406 7.066406 18.722656 7.34375 C 18.25 7.625 17.667969 7.625 17.199219 7.34375 C 16.730469 7.066406 16.445312 6.554688 16.464844 6.007812 C 16.464844 4.332031 15.144531 3.007812 13.476562 3.007812 C 11.808594 3.007812 10.488281 4.332031 10.488281 6.007812 C 10.492188 6.414062 10.335938 6.804688 10.050781 7.089844 C 9.765625 7.375 9.375 7.535156 8.96875 7.53125 Z M 8.96875 7.53125 "/>
<path style=" stroke:none;fill-rule:nonzero;fill:rgb(100%,100%,100%);fill-opacity:1;" d="M 11.25 18 C 9.195312 18 7.5 16.300781 7.5 14.25 C 7.5 13.421875 8.171875 12.75 9 12.75 C 9.828125 12.75 10.5 13.421875 10.5 14.25 C 10.5 14.679688 10.816406 15 11.25 15 C 11.683594 15 12 14.679688 12 14.25 C 12 13.421875 12.671875 12.75 13.5 12.75 C 14.328125 12.75 15 13.421875 15 14.25 C 15 16.300781 13.304688 18 11.25 18 Z M 11.25 18 "/>
<path style=" stroke:none;fill-rule:nonzero;fill:rgb(100%,100%,100%);fill-opacity:1;" d="M 13.167969 7.5 C 12.472656 7.65625 11.984375 8.285156 12 9 L 12 14.203125 C 11.992188 14.746094 12.277344 15.246094 12.742188 15.519531 C 13.210938 15.792969 13.789062 15.792969 14.257812 15.519531 C 14.722656 15.246094 15.007812 14.746094 15 14.203125 L 15 9 C 15.011719 8.535156 14.808594 8.09375 14.453125 7.800781 C 14.09375 7.507812 13.621094 7.398438 13.171875 7.5 Z M 13.167969 7.5 "/>
<path style=" stroke:none;fill-rule:nonzero;fill:rgb(100%,100%,100%);fill-opacity:1;" d="M 17.667969 4.5 C 16.972656 4.65625 16.484375 5.285156 16.5 6 L 16.5 16.21875 C 16.492188 16.761719 16.777344 17.261719 17.242188 17.535156 C 17.710938 17.808594 18.289062 17.808594 18.757812 17.535156 C 19.222656 17.261719 19.507812 16.761719 19.5 16.21875 L 19.5 6.003906 C 19.511719 5.542969 19.308594 5.101562 18.953125 4.808594 C 18.59375 4.515625 18.121094 4.402344 17.671875 4.503906 Z M 17.667969 4.5 "/>
<path style=" stroke:none;fill-rule:nonzero;fill:rgb(100%,100%,100%);fill-opacity:1;" d="M 8.667969 4.5 C 7.972656 4.65625 7.484375 5.285156 7.5 6 L 7.5 14.109375 C 7.492188 14.648438 7.777344 15.152344 8.242188 15.425781 C 8.710938 15.699219 9.289062 15.699219 9.757812 15.425781 C 10.222656 15.152344 10.507812 14.648438 10.5 14.109375 L 10.5 5.992188 C 10.511719 5.53125 10.308594 5.089844 9.953125 4.796875 C 9.59375 4.503906 9.121094 4.394531 8.671875 4.492188 Z M 8.667969 4.5 "/>
<path style=" stroke:none;fill-rule:nonzero;fill:rgb(100%,100%,100%);fill-opacity:1;" d="M 4.167969 6 C 3.472656 6.15625 2.984375 6.785156 3 7.5 L 3 16.5 C 2.992188 17.042969 3.277344 17.542969 3.742188 17.816406 C 4.210938 18.089844 4.789062 18.089844 5.253906 17.816406 C 5.722656 17.542969 6.007812 17.042969 6 16.5 L 6 7.5 C 6.011719 7.039062 5.808594 6.597656 5.453125 6.304688 C 5.09375 6.011719 4.621094 5.898438 4.171875 6 Z M 4.167969 6 "/>
<path style=" stroke:none;fill-rule:nonzero;fill:rgb(100%,100%,100%);fill-opacity:1;" d="M 17.757812 15 C 17.363281 15.0625 17.007812 15.28125 16.773438 15.609375 L 12.757812 20.992188 L 9.710938 20.992188 L 5.675781 15.695312 C 5.410156 15.152344 4.84375 14.824219 4.238281 14.859375 C 3.632812 14.898438 3.109375 15.296875 2.914062 15.867188 C 2.714844 16.441406 2.878906 17.078125 3.332031 17.476562 L 7.835938 23.382812 C 8.109375 23.753906 8.542969 23.976562 9.003906 23.984375 L 13.503906 23.984375 C 13.984375 23.988281 14.4375 23.761719 14.722656 23.375 L 19.222656 17.375 C 19.597656 16.882812 19.628906 16.214844 19.308594 15.6875 C 18.988281 15.160156 18.375 14.882812 17.769531 14.992188 Z M 17.757812 15 "/>
</g>
</svg>
