<?xml version="1.0" encoding="UTF-8"?>
<svg xmlns="http://www.w3.org/2000/svg" xmlns:xlink="http://www.w3.org/1999/xlink" width="24" height="24" viewBox="0 0 24 24" version="1.1">
<g id="surface1">
<path style=" stroke:none;fill-rule:nonzero;fill:rgb(100%,100%,100%);fill-opacity:1;" d="M 8.933594 1 C 8.523438 1.042969 8.214844 1.386719 8.210938 1.792969 L 8.210938 12.945312 C 8.210938 13.195312 8.328125 13.4375 8.523438 13.585938 L 12.136719 16.296875 C 12.441406 16.527344 12.863281 16.511719 13.152344 16.261719 L 16.15625 13.609375 C 16.332031 13.457031 16.433594 13.234375 16.433594 13 L 16.433594 6.753906 C 16.433594 6.300781 16.070312 5.941406 15.621094 5.941406 C 15.171875 5.941406 14.808594 6.300781 14.808594 6.753906 L 14.808594 12.648438 L 12.578125 14.621094 L 9.816406 12.539062 L 9.816406 2.605469 L 16.875 2.605469 L 16.875 17.640625 L 12.472656 21.199219 L 7.457031 17.828125 L 7.457031 6.933594 C 7.46875 6.640625 7.320312 6.363281 7.066406 6.214844 C 6.8125 6.0625 6.5 6.0625 6.242188 6.214844 C 5.992188 6.363281 5.839844 6.640625 5.851562 6.933594 L 5.851562 18.25 C 5.851562 18.519531 5.984375 18.765625 6.203125 18.914062 L 12.046875 22.859375 C 12.339844 23.058594 12.730469 23.046875 13.003906 22.820312 L 18.183594 18.640625 C 18.378906 18.488281 18.496094 18.257812 18.496094 18.011719 L 18.496094 1.792969 C 18.492188 1.351562 18.128906 0.996094 17.6875 1 L 9.023438 1 C 8.992188 1 8.960938 1 8.933594 1 Z M 8.933594 1 "/>
</g>
</svg>
