<?xml version="1.0" encoding="UTF-8"?>
<svg xmlns="http://www.w3.org/2000/svg" xmlns:xlink="http://www.w3.org/1999/xlink" width="24" height="24" viewBox="0 0 24 24" version="1.1">
<g id="surface1">
<path style=" stroke:none;fill-rule:nonzero;fill:rgb(100%,100%,100%);fill-opacity:1;" d="M 8.667969 13.5 C 8.109375 13.601562 7.65625 14.011719 7.496094 14.558594 C 7.339844 15.101562 7.503906 15.691406 7.917969 16.078125 L 9.839844 18 L 7.917969 19.917969 C 7.527344 20.304688 7.375 20.867188 7.515625 21.398438 C 7.652344 21.925781 8.066406 22.339844 8.597656 22.480469 C 9.125 22.621094 9.691406 22.46875 10.074219 22.074219 L 13.074219 19.074219 L 14.105469 17.996094 L 13.074219 16.917969 L 10.074219 13.917969 C 9.710938 13.542969 9.175781 13.382812 8.664062 13.5 Z M 8.667969 13.5 "/>
<path style=" stroke:none;fill-rule:nonzero;fill:rgb(100%,100%,100%);fill-opacity:1;" d="M 22.5 13.515625 L 22.5 15.007812 C 22.5 17.472656 20.46875 19.507812 18 19.507812 L 16.5 19.507812 L 16.5 16.507812 L 18 16.507812 C 18.855469 16.507812 19.5 15.863281 19.5 15.007812 L 19.5 13.53125 Z M 10.484375 7.5 L 5.996094 7.5 C 5.136719 7.5 4.496094 8.144531 4.496094 9 L 4.496094 15 C 4.496094 15.855469 5.136719 16.5 5.996094 16.5 L 11.996094 16.5 L 11.996094 19.5 L 5.996094 19.5 C 3.527344 19.5 1.496094 17.46875 1.496094 15 L 1.496094 9 C 1.496094 6.53125 3.527344 4.5 5.996094 4.5 L 10.46875 4.5 Z M 10.484375 7.5 "/>
<path style=" stroke:none;fill-rule:nonzero;fill:rgb(100%,100%,100%);fill-opacity:1;" d="M 9 13.5 L 7.5 13.5 L 7.5 15 L 9 15 Z M 9 13.5 "/>
<path style=" stroke:none;fill-rule:nonzero;fill:rgb(100%,100%,100%);fill-opacity:1;" d="M 9 21 L 7.5 21 L 7.5 22.5 L 9 22.5 Z M 9 21 "/>
<path style=" stroke:none;fill-rule:nonzero;fill:rgb(100%,100%,100%);fill-opacity:1;" d="M 18 0 C 14.6875 0 12 2.6875 12 6 C 12 9.3125 14.6875 12 18 12 C 21.3125 12 24 9.3125 24 6 C 24 2.6875 21.3125 0 18 0 Z M 16.5 3 L 19.5 3 L 19.5 9 L 16.5 9 L 16.492188 6.015625 L 15 6 L 15 4.5 Z M 16.5 3 "/>
</g>
</svg>
