<?xml version="1.0" encoding="UTF-8"?>
<svg xmlns="http://www.w3.org/2000/svg" xmlns:xlink="http://www.w3.org/1999/xlink" width="24" height="24" viewBox="0 0 24 24" version="1.1">
<g id="surface1">
<path style=" stroke:none;fill-rule:nonzero;fill:rgb(100%,100%,100%);fill-opacity:1;" d="M 14.8125 13.5 C 14.476562 13.535156 14.164062 13.683594 13.921875 13.921875 L 10.921875 16.921875 L 9.890625 18 L 10.921875 19.078125 L 13.921875 22.078125 C 14.304688 22.46875 14.871094 22.625 15.398438 22.484375 C 15.929688 22.34375 16.34375 21.929688 16.484375 21.398438 C 16.625 20.871094 16.46875 20.304688 16.078125 19.921875 L 14.160156 18.003906 L 16.078125 16.082031 C 16.566406 15.632812 16.699219 14.914062 16.40625 14.320312 C 16.113281 13.726562 15.46875 13.394531 14.8125 13.503906 Z M 14.8125 13.5 "/>
<path style=" stroke:none;fill-rule:nonzero;fill:rgb(100%,100%,100%);fill-opacity:1;" d="M 6 4.5 C 3.53125 4.5 1.5 6.53125 1.5 9 L 1.5 15 C 1.5 17.46875 3.53125 19.5 6 19.5 L 7.5 19.5 L 7.5 16.5 L 6 16.5 C 5.144531 16.5 4.5 15.855469 4.5 15 L 4.5 9 C 4.5 8.144531 5.144531 7.5 6 7.5 L 18 7.5 C 18.855469 7.5 19.5 8.144531 19.5 9 L 19.5 15 C 19.5 15.855469 18.855469 16.5 18 16.5 L 12 16.5 L 12 19.5 L 18 19.5 C 20.46875 19.5 22.5 17.46875 22.5 15 L 22.5 9 C 22.5 6.53125 20.46875 4.5 18 4.5 Z M 6 4.5 "/>
<path style=" stroke:none;fill-rule:nonzero;fill:rgb(100%,100%,100%);fill-opacity:1;" d="M 15 13.5 L 16.5 13.5 L 16.5 15 L 15 15 Z M 15 13.5 "/>
<path style=" stroke:none;fill-rule:nonzero;fill:rgb(100%,100%,100%);fill-opacity:1;" d="M 15 21 L 16.5 21 L 16.5 22.5 L 15 22.5 Z M 15 21 "/>
</g>
</svg>
