<?xml version="1.0" encoding="UTF-8"?>
<svg xmlns="http://www.w3.org/2000/svg" xmlns:xlink="http://www.w3.org/1999/xlink" width="24" height="24" viewBox="0 0 24 24" version="1.1">
<g id="surface1">
<path style=" stroke:none;fill-rule:nonzero;fill:rgb(100%,100%,100%);fill-opacity:1;" d="M 18.171875 5.65625 L 18.171875 7.390625 L 15.171875 7.390625 L 15.09375 7.4375 L 10.75 10.8125 L 6.40625 7.4375 L 6.328125 7.390625 L 1.796875 7.390625 L 1.796875 9.890625 L 6.15625 9.890625 L 9.046875 12.140625 L 6.15625 14.390625 L 1.796875 14.390625 L 1.796875 16.890625 L 6.328125 16.890625 L 6.40625 16.84375 L 10.75 13.46875 L 15.09375 16.84375 L 15.171875 16.890625 L 18.171875 16.890625 L 18.171875 18.625 L 18.5625 18.34375 L 22.0625 15.84375 L 22.34375 15.640625 L 22.0625 15.4375 L 18.5625 12.9375 L 18.171875 12.65625 L 18.171875 14.390625 L 15.34375 14.390625 L 12.453125 12.140625 L 15.34375 9.890625 L 18.171875 9.890625 L 18.171875 11.625 L 18.5625 11.34375 L 22.0625 8.84375 L 22.34375 8.640625 L 22.0625 8.4375 L 18.5625 5.9375 Z M 18.171875 5.65625 "/>
</g>
</svg>
