<?xml version="1.0" encoding="UTF-8"?>
<svg xmlns="http://www.w3.org/2000/svg" xmlns:xlink="http://www.w3.org/1999/xlink" width="24" height="24" viewBox="0 0 24 24" version="1.1">
<g id="surface1">
<path style=" stroke:none;fill-rule:nonzero;fill:rgb(100%,100%,100%);fill-opacity:1;" d="M 1.5 4.5 L 1.5 7.5 L 6 7.5 C 6.855469 7.5 7.5 8.144531 7.5 9 L 7.5 15 C 7.5 17.46875 9.53125 19.5 12 19.5 L 21 19.5 L 21 16.5 L 12 16.5 C 11.144531 16.5 10.5 15.855469 10.5 15 L 10.5 9 C 10.5 6.53125 8.46875 4.5 6 4.5 Z M 1.5 4.5 "/>
<path style=" stroke:none;fill-rule:nonzero;fill:rgb(100%,100%,100%);fill-opacity:1;" d="M 17.671875 13.5 C 17.113281 13.601562 16.65625 14.011719 16.5 14.558594 C 16.339844 15.101562 16.503906 15.691406 16.921875 16.078125 L 18.84375 18 L 16.921875 19.917969 C 16.53125 20.304688 16.375 20.867188 16.515625 21.398438 C 16.65625 21.925781 17.070312 22.339844 17.601562 22.480469 C 18.128906 22.621094 18.695312 22.46875 19.078125 22.074219 L 22.078125 19.074219 L 23.109375 17.996094 L 22.078125 16.917969 L 19.078125 13.917969 C 18.714844 13.542969 18.179688 13.386719 17.671875 13.5 Z M 17.671875 13.5 "/>
<path style=" stroke:none;fill-rule:nonzero;fill:rgb(100%,100%,100%);fill-opacity:1;" d="M 17.671875 1.5 C 17.113281 1.601562 16.65625 2.011719 16.5 2.558594 C 16.339844 3.101562 16.503906 3.691406 16.921875 4.078125 L 18.84375 6 L 16.921875 7.917969 C 16.53125 8.304688 16.375 8.867188 16.515625 9.398438 C 16.65625 9.925781 17.070312 10.339844 17.601562 10.480469 C 18.128906 10.621094 18.695312 10.46875 19.078125 10.074219 L 22.078125 7.074219 L 23.109375 5.996094 L 22.078125 4.917969 L 19.078125 1.917969 C 18.714844 1.542969 18.179688 1.386719 17.671875 1.5 Z M 17.671875 1.5 "/>
<path style=" stroke:none;fill-rule:nonzero;fill:rgb(100%,100%,100%);fill-opacity:1;" d="M 12 4.5 C 11.65625 4.5 11.339844 4.566406 11.015625 4.640625 C 11.738281 5.46875 12.308594 6.40625 12.5625 7.5 L 21 7.5 L 21 4.5 Z M 1.5 16.5 L 1.5 19.5 L 6 19.5 C 6.34375 19.5 6.660156 19.433594 6.984375 19.359375 C 6.261719 18.53125 5.691406 17.59375 5.4375 16.5 Z M 1.5 16.5 "/>
<path style=" stroke:none;fill-rule:nonzero;fill:rgb(100%,100%,100%);fill-opacity:1;" d="M 16.5 13.5 L 18 13.5 L 18 15 L 16.5 15 Z M 16.5 13.5 "/>
<path style=" stroke:none;fill-rule:nonzero;fill:rgb(100%,100%,100%);fill-opacity:1;" d="M 16.5 21 L 18 21 L 18 22.5 L 16.5 22.5 Z M 16.5 21 "/>
<path style=" stroke:none;fill-rule:nonzero;fill:rgb(100%,100%,100%);fill-opacity:1;" d="M 16.5 1.5 L 18 1.5 L 18 3 L 16.5 3 Z M 16.5 1.5 "/>
<path style=" stroke:none;fill-rule:nonzero;fill:rgb(100%,100%,100%);fill-opacity:1;" d="M 16.5 9 L 18 9 L 18 10.5 L 16.5 10.5 Z M 16.5 9 "/>
</g>
</svg>
