<?xml version="1.0" encoding="UTF-8"?>
<svg xmlns="http://www.w3.org/2000/svg" xmlns:xlink="http://www.w3.org/1999/xlink" width="24" height="24" viewBox="0 0 24 24" version="1.1">
<g id="surface1">
<path style=" stroke:none;fill-rule:nonzero;fill:rgb(100%,100%,100%);fill-opacity:1;" d="M 1.542969 10.5 L 1.542969 13.5 L 21 13.5 L 21 10.5 Z M 1.542969 10.5 "/>
<path style=" stroke:none;fill-rule:nonzero;fill:rgb(100%,100%,100%);fill-opacity:1;" d="M 17.667969 7.5 C 17.109375 7.601562 16.65625 8.011719 16.496094 8.558594 C 16.339844 9.101562 16.503906 9.691406 16.917969 10.078125 L 18.839844 12 L 16.917969 13.917969 C 16.527344 14.304688 16.375 14.867188 16.515625 15.398438 C 16.652344 15.925781 17.066406 16.339844 17.597656 16.480469 C 18.125 16.621094 18.691406 16.46875 19.074219 16.074219 L 22.074219 13.074219 L 23.105469 11.996094 L 22.074219 10.917969 L 19.074219 7.917969 C 18.710938 7.542969 18.175781 7.382812 17.664062 7.5 Z M 17.667969 7.5 "/>
<path style=" stroke:none;fill-rule:nonzero;fill:rgb(100%,100%,100%);fill-opacity:1;" d="M 16.5 7.5 L 18 7.5 L 18 9 L 16.5 9 Z M 16.5 7.5 "/>
<path style=" stroke:none;fill-rule:nonzero;fill:rgb(100%,100%,100%);fill-opacity:1;" d="M 16.5 15 L 18 15 L 18 16.5 L 16.5 16.5 Z M 16.5 15 "/>
</g>
</svg>
