<?xml version="1.0" encoding="UTF-8"?>
<svg xmlns="http://www.w3.org/2000/svg" xmlns:xlink="http://www.w3.org/1999/xlink" width="24" height="24" viewBox="0 0 24 24" version="1.1">
<defs>
<clipPath id="clip1">
  <path d="M 1.5 8.269531 L 15.046875 8.269531 L 15.046875 19.546875 L 1.5 19.546875 Z M 1.5 8.269531 "/>
</clipPath>
</defs>
<g id="surface1">
<path style=" stroke:none;fill-rule:nonzero;fill:rgb(100%,100%,100%);fill-opacity:1;" d="M 8.25 1.484375 C 10.320312 1.484375 12 3.164062 12 5.234375 L 12 12.753906 C 12 14.824219 10.320312 16.503906 8.25 16.503906 C 6.179688 16.503906 4.5 14.824219 4.5 12.753906 L 4.5 5.234375 C 4.5 3.164062 6.179688 1.484375 8.25 1.484375 Z M 8.25 1.484375 "/>
<g clip-path="url(#clip1)" clip-rule="nonzero">
<path style=" stroke:none;fill-rule:nonzero;fill:rgb(100%,100%,100%);fill-opacity:1;" d="M 8.265625 -2.800781 C 4.535156 -2.800781 1.507812 0.242188 1.507812 3.996094 L 1.507812 12.714844 C 1.507812 16.46875 4.535156 19.511719 8.265625 19.511719 C 11.996094 19.511719 15.019531 16.46875 15.019531 12.714844 L 15.019531 3.996094 C 15.019531 0.242188 11.996094 -2.800781 8.265625 -2.800781 Z M 8.265625 -1.300781 C 11.195312 -1.300781 13.53125 1.050781 13.53125 3.996094 L 13.53125 12.714844 C 13.53125 15.664062 11.195312 18.011719 8.265625 18.011719 C 5.335938 18.011719 3 15.664062 3 12.714844 L 3 3.996094 C 3 1.050781 5.335938 -1.300781 8.265625 -1.300781 Z M 8.265625 -1.300781 "/>
</g>
<path style=" stroke:none;fill-rule:nonzero;fill:rgb(100%,100%,100%);fill-opacity:1;" d="M 3 8.25 C 3 8.664062 2.664062 9 2.25 9 C 1.835938 9 1.5 8.664062 1.5 8.25 C 1.5 7.835938 1.835938 7.5 2.25 7.5 C 2.664062 7.5 3 7.835938 3 8.25 Z M 3 8.25 "/>
<path style=" stroke:none;fill-rule:nonzero;fill:rgb(100%,100%,100%);fill-opacity:1;" d="M 15 8.25 C 15 8.664062 14.664062 9 14.25 9 C 13.835938 9 13.5 8.664062 13.5 8.25 C 13.5 7.835938 13.835938 7.5 14.25 7.5 C 14.664062 7.5 15 7.835938 15 8.25 Z M 15 8.25 "/>
<path style=" stroke:none;fill-rule:nonzero;fill:rgb(100%,100%,100%);fill-opacity:1;" d="M 2.820312 21 C 2.28125 21.027344 1.796875 21.34375 1.554688 21.828125 C 1.3125 22.3125 1.347656 22.886719 1.648438 23.335938 C 1.949219 23.785156 2.46875 24.039062 3.007812 24 L 13.554688 24 C 14.09375 24.007812 14.597656 23.722656 14.871094 23.257812 C 15.144531 22.789062 15.144531 22.210938 14.871094 21.742188 C 14.597656 21.277344 14.09375 20.992188 13.554688 21 L 3.007812 21 C 2.945312 20.996094 2.882812 20.996094 2.820312 21 Z M 2.820312 21 "/>
<path style=" stroke:none;fill-rule:nonzero;fill:rgb(100%,100%,100%);fill-opacity:1;" d="M 1.5 22.5 L 15 22.5 L 15 24 L 1.5 24 Z M 1.5 22.5 "/>
<path style=" stroke:none;fill-rule:nonzero;fill:rgb(100%,100%,100%);fill-opacity:1;" d="M 6 18 L 10.5 18 L 10.5 24 L 6 24 Z M 6 18 "/>
<path style=" stroke:none;fill-rule:nonzero;fill:rgb(100%,100%,100%);fill-opacity:1;" d="M 22.484375 19.507812 C 22.484375 21.167969 21.140625 22.507812 19.484375 22.507812 C 17.828125 22.507812 16.484375 21.167969 16.484375 19.507812 C 16.484375 17.851562 17.828125 16.507812 19.484375 16.507812 C 21.140625 16.507812 22.484375 17.851562 22.484375 19.507812 Z M 22.484375 19.507812 "/>
<path style=" stroke:none;fill-rule:nonzero;fill:rgb(100%,100%,100%);fill-opacity:1;" d="M 22.484375 12.007812 C 22.484375 13.667969 21.140625 15.007812 19.484375 15.007812 C 17.828125 15.007812 16.484375 13.667969 16.484375 12.007812 C 16.484375 10.351562 17.828125 9.007812 19.484375 9.007812 C 21.140625 9.007812 22.484375 10.351562 22.484375 12.007812 Z M 22.484375 12.007812 "/>
<path style=" stroke:none;fill-rule:nonzero;fill:rgb(100%,100%,100%);fill-opacity:1;" d="M 22.484375 4.507812 C 22.484375 6.167969 21.140625 7.507812 19.484375 7.507812 C 17.828125 7.507812 16.484375 6.167969 16.484375 4.507812 C 16.484375 2.851562 17.828125 1.507812 19.484375 1.507812 C 21.140625 1.507812 22.484375 2.851562 22.484375 4.507812 Z M 22.484375 4.507812 "/>
</g>
</svg>
