<?xml version="1.0" encoding="UTF-8"?>
<svg xmlns="http://www.w3.org/2000/svg" xmlns:xlink="http://www.w3.org/1999/xlink" width="24" height="24" viewBox="0 0 24 24" version="1.1">
<g id="surface1">
<path style=" stroke:none;fill-rule:nonzero;fill:rgb(100%,100%,100%);fill-opacity:1;" d="M 3.09375 0 C 1.367188 0 0 1.367188 0 3.089844 L 0 20.902344 C 0 22.628906 1.367188 23.992188 3.09375 23.992188 L 20.90625 23.992188 C 22.632812 23.992188 24 22.628906 24 20.902344 L 24 3.089844 C 24 1.367188 22.632812 0 20.90625 0 Z M 6 4.5 L 9 4.5 L 9 16.5 C 9 16.5 9.046875 16.5 9.046875 16.5 L 14.953125 16.5 C 14.960938 16.46875 14.996094 16.476562 15 16.5 C 15 16.511719 15 16.417969 15 16.453125 L 15 4.5 L 18 4.5 L 18 16.453125 C 18 17.296875 17.660156 17.949219 17.15625 18.515625 C 16.683594 19.042969 15.878906 19.460938 14.953125 19.453125 L 14.953125 19.5 L 9 19.5 C 8.0625 19.5 7.507812 19.136719 6.984375 18.65625 C 6.488281 18.199219 6.019531 17.46875 6.046875 16.5 L 6 16.5 Z M 6 4.5 "/>
</g>
</svg>
