<?xml version="1.0" encoding="UTF-8"?>
<svg xmlns="http://www.w3.org/2000/svg" xmlns:xlink="http://www.w3.org/1999/xlink" width="24" height="24" viewBox="0 0 24 24" version="1.1">
<g id="surface1">
<path style=" stroke:none;fill-rule:nonzero;fill:rgb(100%,100%,100%);fill-opacity:1;" d="M 3.089844 0 C 1.363281 0 -0.00390625 1.367188 -0.00390625 3.09375 L -0.00390625 20.90625 C -0.00390625 22.632812 1.363281 24 3.089844 24 L 20.902344 24 C 22.628906 24 23.996094 22.632812 23.996094 20.90625 L 23.996094 3.09375 C 23.996094 1.367188 22.628906 0 20.902344 0 Z M 2.996094 4.5 L 5.996094 4.5 L 5.996094 10.5 L 7.496094 10.5 L 7.496094 9 L 10.496094 9 L 10.496094 19.5 L 7.496094 19.5 L 7.496094 13.5 L 5.996094 13.5 C 4.496094 13.5 2.996094 12.238281 2.996094 10.5 Z M 15.089844 4.546875 L 17.949219 4.546875 C 17.953125 4.546875 17.945312 4.59375 17.949219 4.59375 C 18.742188 4.5625 19.558594 4.707031 20.199219 5.296875 C 20.820312 5.867188 21.089844 6.808594 21.042969 7.6875 L 21.089844 7.6875 L 21.089844 9 L 18.089844 9 L 18.089844 7.546875 C 18.0625 7.542969 18.09375 7.542969 18.042969 7.546875 L 15.089844 7.546875 C 15.050781 7.546875 15.058594 7.550781 15.042969 7.546875 C 15.035156 7.554688 15 7.542969 14.996094 7.546875 C 14.984375 7.582031 15.007812 7.617188 14.996094 7.640625 L 14.996094 16.40625 C 14.960938 16.375 14.996094 16.5 14.996094 16.5 L 17.949219 16.5 C 17.960938 16.46875 17.992188 16.476562 17.996094 16.5 C 17.996094 16.511719 17.996094 16.417969 17.996094 16.453125 L 17.996094 13.546875 L 16.496094 13.546875 L 16.496094 10.546875 L 20.996094 10.546875 L 20.996094 16.453125 C 20.996094 17.296875 20.65625 17.953125 20.152344 18.515625 C 19.679688 19.046875 18.875 19.464844 17.949219 19.453125 L 17.949219 19.5 L 14.996094 19.5 C 14.058594 19.5 13.507812 19.136719 12.980469 18.65625 C 12.484375 18.199219 12.015625 17.472656 12.042969 16.5 C 12.042969 16.496094 11.996094 16.503906 11.996094 16.5 L 11.996094 7.40625 C 12.089844 6.75 12.304688 6.074219 12.839844 5.484375 C 13.375 4.894531 14.257812 4.546875 15.089844 4.546875 Z M 15.089844 4.546875 "/>
</g>
</svg>
