<?xml version="1.0" encoding="UTF-8"?>
<svg xmlns="http://www.w3.org/2000/svg" xmlns:xlink="http://www.w3.org/1999/xlink" width="24" height="24" viewBox="0 0 24 24" version="1.1">
<g id="surface1">
<path style=" stroke:none;fill-rule:nonzero;fill:rgb(100%,100%,100%);fill-opacity:1;" d="M 7.5 10.5 C 7.035156 10.5 6.578125 10.636719 6.28125 10.921875 L 0.882812 16.503906 L 6.367188 22.082031 C 6.664062 22.367188 7.027344 22.503906 7.492188 22.503906 L 8.992188 22.503906 L 8.992188 21.003906 C 8.992188 20.617188 8.796875 20.210938 8.523438 19.925781 L 6.601562 18.003906 L 13.492188 18.003906 C 14.285156 18.015625 14.992188 17.296875 14.992188 16.503906 C 14.992188 15.710938 14.285156 14.992188 13.492188 15.003906 L 6.554688 15.003906 L 8.382812 13.082031 C 8.65625 12.796875 8.992188 12.390625 8.992188 12.003906 L 8.992188 10.503906 Z M 7.5 10.5 "/>
<path style=" stroke:none;fill-rule:nonzero;fill:rgb(100%,100%,100%);fill-opacity:1;" d="M 17.382812 13.5 C 17.847656 13.5 18.308594 13.363281 18.601562 13.078125 L 24.003906 7.496094 L 18.519531 1.917969 C 18.222656 1.632812 17.859375 1.496094 17.394531 1.496094 L 15.894531 1.496094 L 15.894531 2.996094 C 15.894531 3.382812 16.089844 3.789062 16.363281 4.074219 L 18.285156 5.996094 L 10.503906 5.996094 C 9.710938 5.988281 9.003906 6.707031 9.003906 7.496094 C 9.003906 8.289062 9.710938 9.007812 10.503906 8.996094 L 18.332031 8.996094 L 16.503906 10.917969 C 16.230469 11.207031 15.894531 11.613281 15.894531 11.996094 L 15.894531 13.496094 Z M 17.382812 13.5 "/>
</g>
</svg>
