<?xml version="1.0" encoding="UTF-8"?>
<svg xmlns="http://www.w3.org/2000/svg" xmlns:xlink="http://www.w3.org/1999/xlink" width="24" height="24" viewBox="0 0 24 24" version="1.1">
<g id="surface1">
<path style=" stroke:none;fill-rule:nonzero;fill:rgb(100%,100%,100%);fill-opacity:1;" d="M 15 19.5 C 15 21.15625 13.65625 22.5 12 22.5 C 10.34375 22.5 9 21.15625 9 19.5 C 9 17.84375 10.34375 16.5 12 16.5 C 13.65625 16.5 15 17.84375 15 19.5 Z M 15 19.5 "/>
<path style=" stroke:none;fill-rule:nonzero;fill:rgb(100%,100%,100%);fill-opacity:1;" d="M 12 3 C 7.777344 3 4.242188 4.5 1.5 6.878906 L 1.5 9 L 3.71875 9 C 6 7.101562 8.550781 6 12 6 C 15.449219 6 18 7.167969 20.28125 9 L 22.5 9 L 22.5 6.929688 C 20.039062 4.730469 16.222656 3 12 3 Z M 12 3 "/>
<path style=" stroke:none;fill-rule:nonzero;fill:rgb(100%,100%,100%);fill-opacity:1;" d="M 12 7.5 C 8.75 7.5 5.96875 8.609375 4.5 10.5 L 4.5 12 L 7.5 12 C 8.683594 11.089844 10.136719 10.5 12 10.5 C 13.863281 10.5 15.328125 11.089844 16.5 12 L 19.5 12 L 19.5 10.5 C 18.007812 8.664062 15.191406 7.5 12 7.5 Z M 12 7.5 "/>
<path style=" stroke:none;fill-rule:nonzero;fill:rgb(100%,100%,100%);fill-opacity:1;" d="M 12 12 C 10.113281 12 8.675781 12.46875 7.5 13.5 L 7.5 15 L 16.5 15 L 16.5 13.5 C 15.246094 12.492188 13.886719 12 12 12 Z M 12 12 "/>
</g>
</svg>
