<?xml version="1.0" encoding="UTF-8"?>
<svg xmlns="http://www.w3.org/2000/svg" xmlns:xlink="http://www.w3.org/1999/xlink" width="24" height="24" viewBox="0 0 24 24" version="1.1">
<g id="surface1">
<path style=" stroke:none;fill-rule:nonzero;fill:rgb(100%,100%,100%);fill-opacity:1;" d="M 3.089844 0 C 1.363281 0 -0.00390625 1.367188 -0.00390625 3.09375 L -0.00390625 20.90625 C -0.00390625 22.632812 1.363281 24 3.089844 24 L 20.902344 24 C 22.628906 24 23.996094 22.632812 23.996094 20.90625 L 23.996094 3.09375 C 23.996094 1.367188 22.628906 0 20.902344 0 Z M 8.996094 4.5 L 17.996094 4.5 L 17.996094 7.5 L 8.996094 7.5 L 8.996094 10.5 L 17.996094 10.5 L 17.996094 13.5 L 8.996094 13.5 L 8.996094 16.5 C 8.996094 16.5 9.042969 16.5 9.042969 16.5 L 17.996094 16.5 L 17.996094 19.5 L 8.996094 19.5 C 8.058594 19.5 7.503906 19.136719 6.980469 18.65625 C 6.484375 18.199219 6.015625 17.472656 6.042969 16.5 L 5.996094 16.5 L 5.996094 7.5 L 6.042969 7.5 C 6.023438 6.789062 6.207031 6 6.746094 5.390625 C 7.277344 4.789062 8.148438 4.515625 8.996094 4.546875 Z M 8.996094 4.5 "/>
</g>
</svg>
