<?xml version="1.0" encoding="UTF-8"?>
<svg xmlns="http://www.w3.org/2000/svg" xmlns:xlink="http://www.w3.org/1999/xlink" width="24" height="24" viewBox="0 0 24 24" version="1.1">
<g id="surface1">
<path style=" stroke:none;fill-rule:nonzero;fill:rgb(100%,100%,100%);fill-opacity:1;" d="M 3.09375 0 C 1.367188 0 0 1.367188 0 3.09375 L 0 20.90625 C 0 22.632812 1.367188 24 3.09375 24 L 20.90625 24 C 22.632812 24 24 22.632812 24 20.90625 L 24 3.09375 C 24 1.367188 22.632812 0.00390625 20.90625 0.00390625 L 3.09375 0.00390625 Z M 3 4.5 L 9 4.5 C 9.511719 4.511719 9.980469 4.785156 10.246094 5.21875 C 10.511719 5.65625 10.535156 6.195312 10.3125 6.65625 L 8.25 10.828125 C 8.78125 11 9.375 11.121094 9.703125 11.484375 C 10.203125 12.035156 10.5 12.699219 10.5 13.5 L 10.5 16.5 C 10.5 18.167969 9.140625 19.5 7.5 19.5 L 3 19.5 L 3 16.5 L 7.5 16.5 L 7.5 13.5 L 6 13.5 C 5.488281 13.488281 5.019531 13.214844 4.753906 12.78125 C 4.492188 12.34375 4.464844 11.804688 4.6875 11.34375 L 6.5625 7.5 L 3 7.5 Z M 15.09375 4.546875 L 17.953125 4.546875 C 17.957031 4.546875 17.949219 4.59375 17.953125 4.59375 C 18.746094 4.5625 19.5625 4.707031 20.203125 5.296875 C 20.828125 5.867188 21.09375 6.808594 21.046875 7.6875 L 21.09375 7.6875 L 21.09375 9 L 18.09375 9 L 18.09375 7.546875 C 18.066406 7.542969 18.097656 7.542969 18.046875 7.546875 L 15.09375 7.546875 C 15.054688 7.546875 15.0625 7.550781 15.046875 7.546875 C 15.039062 7.554688 15.003906 7.542969 15 7.546875 C 14.992188 7.582031 15.011719 7.617188 15 7.640625 L 15 16.40625 C 14.964844 16.375 15 16.5 15 16.5 L 17.953125 16.5 C 17.964844 16.46875 18 16.476562 18 16.5 C 18.003906 16.511719 18 16.417969 18 16.453125 L 18 13.546875 L 16.5 13.546875 L 16.5 10.546875 L 21 10.546875 L 21 16.453125 C 21 17.296875 20.660156 17.953125 20.15625 18.515625 C 19.683594 19.046875 18.878906 19.464844 17.953125 19.453125 L 17.953125 19.5 L 15 19.5 C 14.0625 19.5 13.511719 19.136719 12.984375 18.65625 C 12.488281 18.199219 12.019531 17.472656 12.046875 16.5 C 12.046875 16.496094 12 16.503906 12 16.5 L 12 7.40625 C 12.09375 6.75 12.308594 6.074219 12.84375 5.484375 C 13.378906 4.894531 14.265625 4.546875 15.09375 4.546875 Z M 15.09375 4.546875 "/>
</g>
</svg>
