<?xml version="1.0" encoding="UTF-8"?>
<svg xmlns="http://www.w3.org/2000/svg" xmlns:xlink="http://www.w3.org/1999/xlink" width="24" height="24" viewBox="0 0 24 24" version="1.1">
<g id="surface1">
<path style=" stroke:none;fill-rule:nonzero;fill:rgb(74.509804%,74.509804%,74.509804%);fill-opacity:1;" d="M 5.25 0 C 4.003906 0 3 1.003906 3 2.25 L 3 9 L 2.25 9 C 1.003906 9 0 10.003906 0 11.25 L 0 17.25 C 0 18.496094 1.003906 19.5 2.25 19.5 L 3 19.5 L 3 21.75 C 3 22.996094 4.003906 24 5.25 24 L 15.09375 24 L 13.921875 22.828125 C 13.449219 22.363281 13.351562 21.570312 13.6875 21 L 6.75 21 C 6.335938 21 6 20.664062 6 20.25 L 6 18 L 13.6875 18 C 13.351562 17.429688 13.449219 16.636719 13.921875 16.171875 L 16.171875 13.921875 C 16.410156 13.683594 16.730469 13.535156 17.0625 13.5 C 17.078125 13.5 17.09375 13.5 17.109375 13.5 C 17.203125 13.492188 17.296875 13.492188 17.390625 13.5 C 17.738281 13.527344 18.078125 13.679688 18.328125 13.921875 L 19.5 15.089844 L 19.78125 14.8125 C 19.621094 14.675781 19.5 14.476562 19.5 14.25 C 19.5 13.835938 19.835938 13.5 20.25 13.5 C 20.492188 13.5 20.675781 13.648438 20.8125 13.828125 C 21.382812 13.355469 22.304688 13.398438 22.828125 13.921875 L 24 15.089844 L 24 11.25 C 24 10.003906 22.996094 9 21.75 9 L 21 9 L 21 2.25 C 21 1.003906 19.996094 0 18.75 0 C 14.25 0 9.746094 0 5.25 0 Z M 6.75 3 L 17.25 3 C 17.664062 3 18 3.332031 18 3.75 L 18 10.5 L 6 10.5 L 6 3.75 C 6 3.332031 6.335938 3 6.75 3 Z M 7.5 4.5 L 7.5 6 L 16.546875 6 L 16.546875 4.5 Z M 7.5 7.5 L 7.5 9 L 13.5 9 L 13.5 7.5 Z M 7.5 7.5 "/>
<path style=" stroke:none;fill-rule:nonzero;fill:rgb(83.137255%,0%,0%);fill-opacity:1;" d="M 15.007812 17.257812 L 17.257812 15.007812 L 19.503906 17.257812 L 21.753906 15.007812 L 24.003906 17.257812 L 21.753906 19.503906 L 24.003906 21.753906 L 21.753906 24 L 19.507812 21.753906 L 17.257812 24 L 15.011719 21.753906 L 17.257812 19.503906 L 15.011719 17.257812 Z M 15.007812 17.257812 "/>
<path style=" stroke:none;fill-rule:nonzero;fill:rgb(100%,100%,100%);fill-opacity:1;" d="M 4.234375 23.714844 C 3.761719 23.464844 3.296875 22.902344 3.148438 22.402344 C 3.082031 22.1875 3.03125 21.4375 3.03125 20.730469 L 3.03125 19.445312 L 2.417969 19.445312 C 1.417969 19.445312 0.699219 19.027344 0.273438 18.195312 C 0.0859375 17.832031 0.0742188 17.609375 0.101562 14.121094 L 0.132812 10.429688 L 0.386719 10.054688 C 0.832031 9.398438 1.339844 9.132812 2.238281 9.089844 L 3.019531 9.050781 L 3.082031 1.597656 L 3.332031 1.160156 C 3.632812 0.632812 4.320312 0.152344 4.898438 0.0703125 C 5.128906 0.0390625 8.476562 0.0234375 12.335938 0.0390625 L 19.351562 0.0703125 L 19.804688 0.324219 C 20.054688 0.464844 20.398438 0.777344 20.570312 1.019531 L 20.878906 1.460938 L 20.929688 5.242188 L 20.980469 9.019531 L 21.765625 9.078125 C 22.421875 9.121094 22.625 9.183594 22.984375 9.4375 C 23.226562 9.605469 23.535156 9.945312 23.675781 10.195312 C 23.921875 10.632812 23.929688 10.71875 23.960938 12.832031 L 23.996094 15.015625 L 23.296875 14.34375 C 22.421875 13.5 21.949219 13.320312 21.253906 13.570312 C 20.851562 13.714844 20.765625 13.71875 20.582031 13.589844 C 20.296875 13.390625 20.089844 13.40625 19.773438 13.65625 C 19.488281 13.878906 19.417969 14.308594 19.605469 14.664062 C 19.847656 15.113281 19.457031 14.949219 18.792969 14.320312 C 18.015625 13.589844 17.527344 13.371094 16.902344 13.488281 C 16.589844 13.550781 16.273438 13.804688 15.15625 14.902344 C 14.40625 15.636719 13.722656 16.371094 13.640625 16.53125 C 13.488281 16.824219 13.433594 17.617188 13.554688 17.8125 C 13.597656 17.886719 12.414062 17.917969 9.800781 17.917969 L 5.980469 17.917969 L 5.980469 19.179688 C 5.980469 19.875 6.007812 20.519531 6.042969 20.609375 C 6.207031 21.035156 6.511719 21.070312 10.148438 21.070312 C 12.523438 21.070312 13.597656 21.105469 13.554688 21.175781 C 13.445312 21.355469 13.480469 22.15625 13.609375 22.410156 C 13.675781 22.539062 14.011719 22.933594 14.351562 23.28125 L 14.972656 23.917969 L 9.789062 23.914062 C 4.867188 23.910156 4.589844 23.898438 4.234375 23.714844 Z M 18.082031 7.144531 C 18.082031 5.074219 18.039062 3.691406 17.976562 3.519531 C 17.761719 2.957031 17.953125 2.976562 12 2.972656 L 6.480469 2.96875 L 5.980469 3.46875 L 5.980469 10.496094 L 18.082031 10.496094 Z M 18.082031 7.144531 "/>
<path style=" stroke:none;fill-rule:nonzero;fill:rgb(100%,100%,100%);fill-opacity:1;" d="M 9.011719 8.996094 C 9.867188 8.976562 11.242188 8.976562 12.0625 8.996094 C 12.882812 9.011719 12.183594 9.027344 10.503906 9.027344 C 8.828125 9.027344 8.15625 9.011719 9.011719 8.996094 Z M 9.011719 8.996094 "/>
</g>
</svg>
