<?xml version="1.0" encoding="UTF-8"?>
<svg xmlns="http://www.w3.org/2000/svg" xmlns:xlink="http://www.w3.org/1999/xlink" width="24" height="24" viewBox="0 0 24 24" version="1.1">
<g id="surface1">
<path style=" stroke:none;fill-rule:nonzero;fill:rgb(100%,100%,100%);fill-opacity:1;" d="M 11.625 1.5 C 9.027344 1.628906 6.5 2.878906 4.828125 5.109375 C 4.269531 5.851562 3.855469 6.664062 3.5625 7.5 L 6.890625 7.5 C 7.011719 7.296875 7.121094 7.085938 7.265625 6.890625 C 9.265625 4.226562 12.992188 3.71875 15.65625 5.71875 C 18.320312 7.71875 18.828125 11.445312 16.828125 14.109375 C 16.34375 14.753906 15.730469 15.265625 15.046875 15.65625 L 15.046875 13.5 L 13.507812 13.5 L 13.546875 21 L 19.546875 21 C 19.640625 21.007812 19.734375 21.007812 19.828125 21 L 21.046875 21 L 21.046875 19.78125 C 21.082031 19.644531 21.097656 19.5 21.09375 19.359375 C 21.082031 19.296875 21.066406 19.234375 21.046875 19.171875 C 20.898438 18.5 20.234375 17.984375 19.546875 18 L 17.015625 18 C 17.882812 17.425781 18.640625 16.726562 19.265625 15.890625 C 20.566406 14.15625 21.144531 12.09375 21.046875 10.078125 C 21.035156 9.789062 20.992188 9.519531 20.953125 9.234375 C 20.628906 6.953125 19.417969 4.765625 17.4375 3.28125 C 15.703125 1.980469 13.644531 1.398438 11.625 1.5 Z M 11.625 1.5 "/>
<path style=" stroke:none;fill-rule:nonzero;fill:rgb(100%,100%,100%);fill-opacity:1;" d="M 6.042969 10.410156 C 4.410156 10.410156 3.042969 11.726562 3.042969 13.363281 L 3.042969 15.753906 L 4.542969 15.753906 L 4.542969 13.363281 C 4.542969 12.535156 5.226562 11.910156 6.042969 11.910156 C 6.863281 11.910156 7.496094 12.535156 7.496094 13.363281 L 7.496094 15.707031 L 8.996094 15.707031 L 8.996094 13.363281 C 8.996094 11.726562 7.679688 10.410156 6.042969 10.410156 Z M 6.042969 10.410156 "/>
<path style=" stroke:none;fill-rule:nonzero;fill:rgb(100%,100%,100%);fill-opacity:1;" d="M 1.605469 15 L 10.554688 15 L 10.554688 21.09375 L 1.605469 21.09375 Z M 1.605469 15 "/>
</g>
</svg>
