<?xml version="1.0" encoding="UTF-8"?>
<svg xmlns="http://www.w3.org/2000/svg" xmlns:xlink="http://www.w3.org/1999/xlink" width="24" height="24" viewBox="0 0 24 24" version="1.1">
<g id="surface1">
<path style=" stroke:none;fill-rule:nonzero;fill:rgb(100%,100%,100%);fill-opacity:1;" d="M 21.121094 19.367188 C 21.109375 19.300781 21.09375 19.238281 21.074219 19.179688 C 20.917969 18.480469 20.289062 17.988281 19.574219 18.007812 L 17.042969 18.007812 C 17.910156 17.433594 18.664062 16.730469 19.292969 15.898438 C 20.59375 14.164062 21.171875 12.097656 21.074219 10.085938 C 21.058594 9.796875 21.019531 9.523438 20.980469 9.242188 C 20.652344 6.957031 19.445312 4.773438 17.464844 3.285156 C 13.5 0.316406 7.824219 1.152344 4.855469 5.113281 C 1.882812 9.078125 2.71875 14.753906 6.683594 17.726562 C 6.941406 17.910156 7.253906 18.007812 7.574219 18.007812 C 7.652344 18.011719 7.730469 18.011719 7.808594 18.007812 L 9.074219 18.007812 L 9.074219 16.648438 C 9.074219 16.601562 9.074219 16.554688 9.074219 16.507812 C 9.074219 16.023438 8.847656 15.574219 8.464844 15.289062 C 5.796875 13.289062 5.292969 9.5625 7.292969 6.898438 C 9.289062 4.230469 13.015625 3.726562 15.683594 5.722656 C 18.347656 7.722656 18.851562 11.449219 16.855469 14.113281 C 16.371094 14.757812 15.753906 15.269531 15.074219 15.660156 L 15.074219 13.503906 C 15.074219 12.675781 14.402344 12.003906 13.574219 12.003906 C 13.464844 11.992188 13.351562 11.992188 13.246094 12.003906 L 12.074219 12.003906 L 12.074219 21.003906 L 19.574219 21.003906 C 19.667969 21.015625 19.761719 21.015625 19.855469 21.003906 L 21.074219 21.003906 L 21.074219 19.785156 C 21.109375 19.648438 21.125 19.507812 21.121094 19.363281 Z M 21.121094 19.367188 "/>
</g>
</svg>
