<?xml version="1.0" encoding="UTF-8"?>
<svg xmlns="http://www.w3.org/2000/svg" xmlns:xlink="http://www.w3.org/1999/xlink" width="24" height="24" viewBox="0 0 24 24" version="1.1">
<g id="surface1">
<path style=" stroke:none;fill-rule:nonzero;fill:rgb(100%,100%,100%);fill-opacity:1;" d="M 12.386719 1 C 9.179688 1 6.890625 2.914062 6.890625 6.039062 L 6.890625 8.785156 L 9.179688 8.785156 L 9.179688 6.953125 C 9.179688 6.039062 9.179688 3.289062 12.386719 3.289062 L 12.847656 3.289062 C 16.050781 3.289062 16.050781 6.039062 16.050781 6.953125 L 16.050781 8.785156 L 18.34375 8.785156 L 18.34375 6.039062 C 18.34375 2.832031 16.050781 1 12.847656 1 Z M 5.960938 12.464844 C 5.042969 12.464844 4.585938 12.921875 4.585938 13.839844 L 4.585938 21.625 C 4.585938 22.074219 5.042969 23 5.960938 23 L 19.414062 23 C 20.15625 22.996094 20.617188 22.074219 20.617188 21.625 L 20.617188 13.839844 C 20.617188 12.921875 20.160156 12.464844 19.246094 12.464844 Z M 5.960938 12.464844 "/>
</g>
</svg>
