<?xml version="1.0" encoding="UTF-8"?>
<svg xmlns="http://www.w3.org/2000/svg" xmlns:xlink="http://www.w3.org/1999/xlink" width="24" height="24" viewBox="0 0 24 24" version="1.1">
<g id="surface1">
<path style=" stroke:none;fill-rule:nonzero;fill:rgb(100%,100%,100%);fill-opacity:1;" d="M 12.003906 1.515625 C 11.605469 1.511719 11.257812 1.667969 11.007812 1.875 C 10.757812 2.082031 10.589844 2.355469 10.421875 2.625 C 10.085938 3.160156 9.835938 3.777344 9.574219 4.429688 C 9.316406 5.082031 9.054688 5.761719 8.816406 6.277344 C 8.582031 6.796875 8.300781 7.144531 8.28125 7.160156 C 8.261719 7.171875 7.820312 7.335938 7.234375 7.386719 C 6.652344 7.441406 5.914062 7.460938 5.191406 7.492188 C 4.46875 7.523438 3.734375 7.546875 3.101562 7.683594 C 2.785156 7.753906 2.476562 7.835938 2.195312 8 C 1.914062 8.160156 1.644531 8.429688 1.519531 8.792969 C 1.394531 9.160156 1.445312 9.554688 1.574219 9.847656 C 1.703125 10.140625 1.914062 10.394531 2.125 10.632812 C 2.550781 11.105469 3.074219 11.539062 3.640625 11.980469 C 4.203125 12.417969 4.804688 12.816406 5.242188 13.195312 C 5.675781 13.570312 5.921875 13.957031 5.929688 13.976562 C 5.9375 14 5.976562 14.480469 5.847656 15.03125 C 5.71875 15.582031 5.511719 16.25 5.316406 16.921875 C 5.125 17.59375 4.941406 18.273438 4.878906 18.898438 C 4.851562 19.210938 4.816406 19.511719 4.890625 19.820312 C 4.960938 20.128906 5.164062 20.464844 5.488281 20.691406 C 5.808594 20.921875 6.160156 20.976562 6.488281 20.949219 C 6.816406 20.921875 7.140625 20.84375 7.441406 20.722656 C 8.042969 20.476562 8.644531 20.078125 9.25 19.699219 C 9.859375 19.316406 10.464844 18.914062 10.96875 18.632812 C 11.476562 18.347656 11.941406 18.226562 11.96875 18.226562 C 11.992188 18.226562 12.421875 18.371094 12.925781 18.660156 C 13.429688 18.949219 14.011719 19.355469 14.617188 19.742188 C 15.21875 20.128906 15.847656 20.488281 16.445312 20.738281 C 16.742188 20.859375 17.027344 20.964844 17.355469 20.992188 C 17.683594 21.023438 18.074219 20.945312 18.398438 20.722656 C 18.722656 20.496094 18.90625 20.191406 18.980469 19.882812 C 19.058594 19.574219 19.046875 19.230469 19.019531 18.917969 C 18.964844 18.292969 18.78125 17.621094 18.59375 16.945312 C 18.40625 16.273438 18.199219 15.617188 18.078125 15.066406 C 17.953125 14.511719 17.96875 14.035156 17.976562 14.011719 C 17.984375 13.992188 18.257812 13.632812 18.699219 13.261719 C 19.136719 12.886719 19.710938 12.453125 20.277344 12.019531 C 20.84375 11.585938 21.429688 11.164062 21.859375 10.691406 C 22.070312 10.457031 22.222656 10.191406 22.351562 9.898438 C 22.480469 9.605469 22.554688 9.253906 22.433594 8.890625 C 22.3125 8.523438 22.027344 8.269531 21.746094 8.105469 C 21.460938 7.941406 21.195312 7.832031 20.878906 7.761719 C 20.246094 7.617188 19.507812 7.550781 18.785156 7.515625 C 18.0625 7.476562 17.367188 7.457031 16.785156 7.398438 C 16.199219 7.34375 15.710938 7.203125 15.691406 7.1875 C 15.671875 7.175781 15.414062 6.832031 15.183594 6.316406 C 14.949219 5.796875 14.691406 5.132812 14.441406 4.476562 C 14.1875 3.824219 13.9375 3.179688 13.605469 2.640625 C 13.4375 2.375 13.253906 2.113281 13.007812 1.902344 C 12.761719 1.691406 12.402344 1.515625 12.003906 1.515625 Z M 12.015625 3.007812 C 12.082031 3.058594 12.175781 3.210938 12.292969 3.398438 C 12.527344 3.777344 12.789062 4.339844 13.035156 4.972656 C 13.28125 5.605469 13.511719 6.300781 13.777344 6.898438 C 14.042969 7.492188 14.25 7.996094 14.792969 8.378906 C 15.332031 8.761719 15.945312 8.828125 16.613281 8.890625 C 17.28125 8.957031 18.007812 8.972656 18.707031 9.007812 C 19.40625 9.039062 20.082031 9.109375 20.527344 9.210938 C 20.75 9.261719 20.910156 9.296875 20.984375 9.339844 C 20.949219 9.414062 20.863281 9.570312 20.710938 9.734375 C 20.414062 10.066406 19.90625 10.46875 19.359375 10.886719 C 18.8125 11.308594 18.191406 11.746094 17.6875 12.171875 C 17.183594 12.601562 16.726562 12.972656 16.519531 13.585938 C 16.308594 14.199219 16.4375 14.75 16.578125 15.382812 C 16.722656 16.015625 16.960938 16.703125 17.140625 17.351562 C 17.324219 18.007812 17.480469 18.625 17.519531 19.0625 C 17.539062 19.261719 17.496094 19.414062 17.476562 19.5 C 17.386719 19.488281 17.214844 19.453125 17.023438 19.371094 C 16.605469 19.199219 16.054688 18.878906 15.46875 18.507812 C 14.886719 18.132812 14.265625 17.710938 13.6875 17.382812 C 13.109375 17.050781 12.625 16.785156 11.953125 16.78125 C 11.285156 16.777344 10.765625 17.039062 10.1875 17.367188 C 9.605469 17.691406 9.011719 18.109375 8.421875 18.476562 C 7.835938 18.84375 7.257812 19.152344 6.839844 19.324219 C 6.628906 19.40625 6.46875 19.449219 6.386719 19.457031 C 6.371094 19.371094 6.363281 19.21875 6.382812 19.019531 C 6.425781 18.582031 6.589844 17.957031 6.777344 17.304688 C 6.964844 16.65625 7.15625 15.957031 7.304688 15.328125 C 7.453125 14.695312 7.585938 14.144531 7.378906 13.527344 C 7.175781 12.910156 6.730469 12.566406 6.230469 12.132812 C 5.730469 11.703125 5.171875 11.253906 4.628906 10.832031 C 4.085938 10.40625 3.550781 9.988281 3.253906 9.65625 C 3.105469 9.492188 3.011719 9.339844 2.980469 9.265625 C 3.050781 9.222656 3.210938 9.175781 3.433594 9.128906 C 3.875 9.03125 4.550781 8.96875 5.25 8.9375 C 5.949219 8.910156 6.671875 8.894531 7.339844 8.835938 C 8.007812 8.773438 8.609375 8.757812 9.15625 8.382812 C 9.699219 8.003906 9.960938 7.472656 10.234375 6.882812 C 10.503906 6.289062 10.738281 5.617188 10.988281 4.988281 C 11.238281 4.359375 11.46875 3.734375 11.703125 3.359375 C 11.820312 3.171875 11.953125 3.058594 12.015625 3.007812 Z M 12.015625 3.007812 "/>
<path style=" stroke:none;fill-rule:nonzero;fill:rgb(100%,100%,100%);fill-opacity:1;" d="M 12 2.25 C 10.609375 2.246094 9.847656 6.949219 8.71875 7.734375 C 7.589844 8.519531 2.683594 7.773438 2.25 9.046875 C 1.816406 10.320312 6.230469 12.457031 6.65625 13.734375 C 7.082031 15.011719 4.785156 19.269531 5.90625 20.0625 C 7.027344 20.855469 10.5625 17.480469 11.953125 17.484375 C 11.964844 17.484375 11.988281 17.484375 12 17.484375 L 12 2.242188 Z M 12 2.25 "/>
</g>
</svg>
