<?xml version="1.0" encoding="UTF-8"?>
<svg xmlns="http://www.w3.org/2000/svg" xmlns:xlink="http://www.w3.org/1999/xlink" width="24" height="24" viewBox="0 0 24 24" version="1.1">
<g id="surface1">
<path style=" stroke:none;fill-rule:nonzero;fill:rgb(74.509804%,74.509804%,74.509804%);fill-opacity:1;" d="M 3.707031 1.5 C 3.707031 1.5 1.457031 1.5 1.457031 3.75 L 1.457031 21.703125 C 1.457031 21.703125 1.457031 24 3.707031 24 L 14.957031 24 L 14.957031 21 L 4.457031 21 L 4.457031 4.5 L 5.957031 4.5 L 5.957031 1.5 Z M 16.457031 1.5 L 16.457031 4.5 L 17.957031 4.5 L 17.957031 15 L 20.957031 15 L 20.957031 3.75 C 20.957031 1.5 18.707031 1.5 18.707031 1.5 Z M 16.457031 1.5 "/>
<path style=" stroke:none;fill-rule:nonzero;fill:rgb(74.509804%,74.509804%,74.509804%);fill-opacity:1;" d="M 8.25 0 L 14.203125 0 C 14.617188 0 14.953125 0.335938 14.953125 0.75 L 14.953125 5.25 C 14.953125 5.664062 14.617188 6 14.203125 6 L 8.25 6 C 7.835938 6 7.5 5.664062 7.5 5.25 L 7.5 0.75 C 7.5 0.335938 7.835938 0 8.25 0 Z M 8.25 0 "/>
<path style=" stroke:none;fill-rule:nonzero;fill:rgb(74.509804%,74.509804%,74.509804%);fill-opacity:1;" d="M 16.457031 16.5 L 18.519531 16.5 L 20.207031 18.140625 L 21.839844 16.507812 L 23.957031 16.507812 L 23.957031 18.710938 L 22.3125 20.304688 L 23.949219 21.894531 L 23.949219 24.007812 L 21.789062 24.007812 L 20.199219 22.417969 L 18.609375 24.007812 L 16.449219 24.007812 L 16.449219 21.898438 L 18.042969 20.304688 L 16.453125 18.714844 L 16.453125 16.507812 Z M 16.457031 16.5 "/>
<path style=" stroke:none;fill-rule:nonzero;fill:rgb(100%,100%,100%);fill-opacity:1;" d="M 7.859375 5.839844 C 7.558594 5.640625 7.515625 5.273438 7.515625 2.921875 L 7.515625 0.519531 L 8.015625 0.0195312 L 14.441406 0.0195312 L 14.6875 0.269531 L 14.9375 0.519531 L 14.9375 2.921875 C 14.9375 5.273438 14.894531 5.640625 14.59375 5.839844 C 14.53125 5.882812 13.015625 5.914062 11.226562 5.914062 C 9.4375 5.914062 7.921875 5.882812 7.859375 5.839844 Z M 7.859375 5.839844 "/>
<path style=" stroke:none;fill-rule:nonzero;fill:rgb(100%,100%,100%);fill-opacity:1;" d="M 17.988281 9.730469 L 17.988281 4.496094 L 16.464844 4.496094 L 16.464844 1.546875 L 17.773438 1.546875 C 19.230469 1.546875 19.777344 1.675781 20.261719 2.132812 C 20.917969 2.757812 20.886719 2.433594 20.917969 8.996094 L 20.945312 14.96875 L 17.988281 14.96875 Z M 17.988281 9.730469 "/>
<path style=" stroke:none;fill-rule:nonzero;fill:rgb(100%,100%,100%);fill-opacity:1;" d="M 2.585938 23.6875 C 2.132812 23.429688 1.769531 22.949219 1.617188 22.40625 C 1.554688 22.171875 1.515625 18.597656 1.515625 12.570312 L 1.515625 3.101562 L 1.75 2.65625 C 1.90625 2.359375 2.15625 2.101562 2.480469 1.902344 C 2.957031 1.605469 3.015625 1.59375 4.429688 1.5625 L 5.886719 1.527344 L 5.886719 4.496094 L 4.464844 4.496094 L 4.464844 21.070312 L 14.9375 21.070312 L 14.9375 23.917969 L 8.964844 23.917969 L 2.988281 23.914062 Z M 2.585938 23.6875 "/>
<path style=" stroke:none;fill-rule:nonzero;fill:rgb(100%,0%,0%);fill-opacity:1;" d="M 16.464844 22.976562 L 16.464844 21.929688 L 18.089844 20.3125 L 17.277344 19.496094 L 16.464844 18.675781 L 16.464844 16.496094 L 17.460938 16.496094 C 18.445312 16.496094 18.464844 16.5 18.757812 16.808594 C 18.921875 16.984375 19.324219 17.355469 19.648438 17.640625 L 20.242188 18.15625 L 21.074219 17.324219 L 21.910156 16.496094 L 23.886719 16.496094 L 23.886719 18.675781 L 23.070312 19.5 L 22.25 20.324219 L 23.070312 21.105469 L 23.886719 21.886719 L 23.886719 24.019531 L 21.828125 24.019531 L 21 23.210938 L 20.167969 22.398438 L 19.359375 23.210938 L 18.554688 24.019531 L 16.464844 24.019531 Z M 16.464844 22.976562 "/>
</g>
</svg>
