<?xml version="1.0" encoding="UTF-8"?>
<svg xmlns="http://www.w3.org/2000/svg" xmlns:xlink="http://www.w3.org/1999/xlink" width="24" height="24" viewBox="0 0 24 24" version="1.1">
<g id="surface1">
<path style=" stroke:none;fill-rule:nonzero;fill:rgb(74.509804%,74.509804%,74.509804%);fill-opacity:1;" d="M 1.457031 3.75 L 1.457031 21.703125 C 1.457031 24 3.707031 24 3.707031 24 L 10.457031 24 L 10.457031 21 L 4.457031 21 L 4.457031 4.5 L 5.957031 4.5 L 5.957031 1.5 L 3.707031 1.5 C 3.707031 1.5 1.457031 1.5 1.457031 3.75 Z M 16.457031 1.5 L 16.457031 4.5 L 18 4.5 L 18 10.546875 L 20.957031 10.5 L 20.957031 3.75 C 20.957031 1.5 18.707031 1.5 18.707031 1.5 Z M 6.050781 7.546875 L 6.050781 18 L 10.457031 18 L 10.457031 13.496094 C 10.457031 13.496094 10.457031 10.5 13.457031 10.5 L 16.457031 10.5 L 16.457031 7.5 Z M 6.050781 7.546875 "/>
<path style=" stroke:none;fill-rule:nonzero;fill:rgb(74.509804%,74.509804%,74.509804%);fill-opacity:1;" d="M 8.25 0 L 14.203125 0 C 14.617188 0 14.953125 0.335938 14.953125 0.75 L 14.953125 5.25 C 14.953125 5.664062 14.617188 6 14.203125 6 L 8.25 6 C 7.835938 6 7.5 5.664062 7.5 5.25 L 7.5 0.75 C 7.5 0.335938 7.835938 0 8.25 0 Z M 8.25 0 "/>
<path style=" stroke:none;fill-rule:nonzero;fill:rgb(96.078431%,47.45098%,0%);fill-opacity:1;" d="M 13.457031 12 C 11.957031 12 11.957031 13.5 11.957031 13.5 L 11.957031 22.5 C 11.957031 22.5 11.957031 24 13.457031 24 L 22.457031 24 C 23.957031 24 23.957031 22.5 23.957031 22.5 L 23.957031 13.5 C 23.957031 12 22.457031 12 22.457031 12 Z M 16.457031 13.5 L 19.5 13.5 L 19.5 19.5 L 16.457031 19.5 Z M 16.457031 21 L 19.5 21 L 19.457031 22.5 L 16.457031 22.5 Z M 16.457031 21 "/>
<path style=" stroke:none;fill-rule:nonzero;fill:rgb(100%,100%,100%);fill-opacity:1;" d="M 7.765625 5.757812 C 7.511719 5.503906 7.492188 5.277344 7.523438 2.777344 C 7.554688 0.429688 7.558594 0.40625 7.796875 0.214844 C 8.019531 0.03125 8.238281 0.0195312 11.234375 0.0195312 L 14.429688 0.0195312 L 14.929688 0.519531 L 14.929688 3.015625 C 14.929688 5.375 14.917969 5.523438 14.726562 5.714844 C 14.53125 5.910156 14.386719 5.917969 11.222656 5.917969 C 8.363281 5.917969 7.90625 5.898438 7.765625 5.757812 Z M 7.765625 5.757812 "/>
<path style=" stroke:none;fill-rule:nonzero;fill:rgb(100%,100%,100%);fill-opacity:1;" d="M 6.082031 12.730469 L 6.082031 7.546875 L 16.453125 7.546875 L 16.453125 10.480469 L 14.445312 10.511719 C 12.148438 10.550781 11.933594 10.613281 11.195312 11.453125 C 10.527344 12.210938 10.453125 12.597656 10.453125 15.4375 L 10.453125 17.917969 L 6.082031 17.917969 Z M 6.082031 12.730469 "/>
<path style=" stroke:none;fill-rule:nonzero;fill:rgb(100%,100%,100%);fill-opacity:1;" d="M 2.832031 23.785156 C 2.347656 23.632812 1.742188 22.996094 1.609375 22.507812 C 1.535156 22.234375 1.511719 19.089844 1.527344 12.5625 C 1.554688 3.105469 1.558594 3.015625 1.769531 2.613281 C 1.902344 2.359375 2.167969 2.089844 2.472656 1.902344 C 2.949219 1.605469 3.007812 1.59375 4.421875 1.5625 L 5.878906 1.527344 L 5.878906 4.496094 L 4.453125 4.496094 L 4.453125 21.070312 L 10.453125 21.070312 L 10.453125 23.917969 L 6.820312 23.910156 C 4.480469 23.902344 3.058594 23.859375 2.832031 23.785156 Z M 2.832031 23.785156 "/>
<path style=" stroke:none;fill-rule:nonzero;fill:rgb(100%,100%,100%);fill-opacity:1;" d="M 18.082031 7.496094 L 18.082031 4.496094 L 16.453125 4.496094 L 16.453125 1.546875 L 17.757812 1.546875 C 19.324219 1.546875 19.84375 1.6875 20.359375 2.257812 C 20.550781 2.472656 20.761719 2.824219 20.820312 3.039062 C 20.886719 3.277344 20.929688 4.785156 20.929688 6.960938 L 20.929688 10.496094 L 18.082031 10.496094 Z M 18.082031 7.496094 "/>
</g>
</svg>
