<?xml version="1.0" encoding="UTF-8"?>
<svg xmlns="http://www.w3.org/2000/svg" xmlns:xlink="http://www.w3.org/1999/xlink" width="24" height="24" viewBox="0 0 24 24" version="1.1">
<g id="surface1">
<path style=" stroke:none;fill-rule:nonzero;fill:rgb(100%,100%,100%);fill-opacity:1;" d="M 10.164062 2.398438 C 5.105469 2.398438 1 6.5 1 11.5625 C 1 16.625 5.105469 20.726562 10.164062 20.726562 C 12.570312 20.726562 14.757812 19.796875 16.390625 18.285156 L 23 18.285156 L 18.914062 14.195312 C 19.167969 13.355469 19.332031 12.484375 19.332031 11.5625 C 19.332031 6.5 15.226562 2.398438 10.164062 2.398438 Z M 10.164062 6.0625 C 13.203125 6.0625 15.664062 8.523438 15.664062 11.5625 C 15.664062 14.597656 13.203125 17.0625 10.164062 17.0625 C 7.132812 17.0625 4.667969 14.597656 4.667969 11.5625 C 4.667969 8.523438 7.132812 6.0625 10.164062 6.0625 Z M 9.976562 7.894531 C 9.714844 7.980469 9.542969 8.234375 9.554688 8.503906 L 9.554688 11.5625 C 9.554688 11.898438 9.828125 12.171875 10.164062 12.171875 L 12.304688 12.171875 C 12.523438 12.175781 12.730469 12.0625 12.839844 11.871094 C 12.953125 11.679688 12.953125 11.445312 12.839844 11.253906 C 12.730469 11.066406 12.523438 10.949219 12.304688 10.953125 L 10.777344 10.953125 L 10.777344 8.503906 C 10.78125 8.324219 10.703125 8.148438 10.5625 8.027344 C 10.421875 7.910156 10.234375 7.859375 10.050781 7.894531 C 10.027344 7.894531 10 7.894531 9.976562 7.894531 Z M 9.976562 7.894531 "/>
</g>
</svg>
