<?xml version="1.0" encoding="UTF-8"?>
<svg xmlns="http://www.w3.org/2000/svg" xmlns:xlink="http://www.w3.org/1999/xlink" width="24" height="24" viewBox="0 0 24 24" version="1.1">
<g id="surface1">
<path style=" stroke:none;fill-rule:nonzero;fill:rgb(100%,100%,100%);fill-opacity:1;" d="M 6 3 L 6 1.546875 L 16.5 1.546875 L 16.5 3 Z M 5.203125 0.046875 C 4.46875 0.046875 4.007812 0.390625 3.65625 0.75 C 3.304688 1.109375 3 1.585938 3 2.296875 L 3 3 L 0 3 L 0 6 L 22.5 6 L 22.5 3 L 19.5 3 L 19.5 2.4375 C 19.464844 1.792969 19.246094 1.308594 18.890625 0.890625 C 18.554688 0.492188 17.949219 0.0976562 17.15625 0.09375 L 17.15625 0.046875 Z M 17.996094 7.5 L 20.996094 7.5 C 23.507812 11.890625 22.703125 16.28125 20.996094 20.671875 C 20.351562 22.351562 19.527344 24.003906 17.710938 24.003906 L 4.773438 24.003906 C 2.96875 24.003906 2.109375 22.367188 1.492188 20.675781 C -0.0703125 16.382812 -0.902344 12.042969 1.492188 7.503906 L 4.492188 7.503906 C 1.914062 11.925781 3.015625 16.460938 4.492188 21.003906 L 17.992188 21.003906 C 19.636719 16.453125 20.441406 11.929688 17.992188 7.503906 Z M 10.542969 7.476562 L 10.542969 19.5 L 11.996094 19.5 L 11.996094 7.476562 Z M 13.496094 7.476562 C 16.140625 10.8125 14.742188 15.921875 13.496094 19.5 L 14.996094 19.5 C 16.234375 16.039062 17.757812 11.0625 14.996094 7.476562 Z M 7.542969 7.476562 C 4.820312 11.390625 6.261719 16.195312 7.542969 19.5 L 8.996094 19.5 C 7.699219 16.167969 6.503906 11.300781 8.996094 7.476562 Z M 7.542969 7.476562 "/>
</g>
</svg>
