<?xml version="1.0" encoding="UTF-8"?>
<svg xmlns="http://www.w3.org/2000/svg" xmlns:xlink="http://www.w3.org/1999/xlink" width="24" height="24" viewBox="0 0 24 24" version="1.1">
<g id="surface1">
<path style=" stroke:none;fill-rule:nonzero;fill:rgb(100%,100%,100%);fill-opacity:1;" d="M 5.25 1.5 C 3.171875 1.5 1.5 3.171875 1.5 5.25 L 1.5 12.75 C 1.5 14.828125 3.171875 16.5 5.25 16.5 L 14.8125 16.5 L 19.5 22.5 L 19.5 16.40625 C 21.210938 16.058594 22.5 14.566406 22.5 12.75 L 22.5 5.25 C 22.5 3.171875 20.828125 1.5 18.75 1.5 Z M 5.25 4.5 L 18.75 4.5 C 19.164062 4.5 19.5 4.835938 19.5 5.25 L 19.5 12.75 C 19.5 13.164062 19.164062 13.5 18.75 13.5 L 5.25 13.5 C 4.835938 13.5 4.5 13.164062 4.5 12.75 L 4.5 5.25 C 4.5 4.835938 4.835938 4.5 5.25 4.5 Z M 5.25 4.5 "/>
</g>
</svg>
