<?xml version="1.0" encoding="UTF-8"?>
<svg xmlns="http://www.w3.org/2000/svg" xmlns:xlink="http://www.w3.org/1999/xlink" width="24" height="24" viewBox="0 0 24 24" version="1.1">
<g id="surface1">
<path style=" stroke:none;fill-rule:nonzero;fill:rgb(100%,100%,100%);fill-opacity:1;" d="M 10.164062 2.679688 C 5.105469 2.679688 1 6.785156 1 11.84375 C 1 16.90625 5.105469 21.011719 10.164062 21.011719 C 12.570312 21.011719 14.757812 20.078125 16.390625 18.566406 L 23 18.566406 L 18.914062 14.480469 C 19.167969 13.640625 19.332031 12.765625 19.332031 11.84375 C 19.332031 6.785156 15.226562 2.679688 10.164062 2.679688 Z M 7.492188 7.566406 L 10.164062 10.316406 L 12.917969 7.605469 L 14.445312 9.171875 L 11.695312 11.84375 L 14.40625 14.59375 L 12.839844 16.121094 L 10.164062 13.375 L 7.414062 16.085938 L 5.886719 14.515625 L 8.640625 11.84375 L 5.925781 9.09375 Z M 7.492188 7.566406 "/>
</g>
</svg>
