<?xml version="1.0" encoding="UTF-8"?>
<svg xmlns="http://www.w3.org/2000/svg" xmlns:xlink="http://www.w3.org/1999/xlink" width="24" height="24" viewBox="0 0 24 24" version="1.1">
<g id="surface1">
<path style=" stroke:none;fill-rule:nonzero;fill:rgb(74.509804%,74.509804%,74.509804%);fill-opacity:1;" d="M 12 4.5 C 7.875 4.5 4.5 7.875 4.5 12 C 4.5 14.675781 5.9375 17.042969 8.0625 18.375 C 8.316406 18.261719 8.585938 18.164062 8.859375 18.09375 C 9.203125 15.367188 11.4375 13.21875 14.25 13.21875 C 15.753906 13.21875 17.007812 13.929688 18 14.90625 C 18.261719 14.855469 18.460938 14.71875 18.75 14.71875 C 18.816406 14.71875 18.875 14.714844 18.9375 14.71875 C 19.273438 13.867188 19.5 12.964844 19.5 12 C 19.5 7.875 16.125 4.5 12 4.5 Z M 12 4.5 "/>
<path style=" stroke:none;fill-rule:nonzero;fill:rgb(74.509804%,74.509804%,74.509804%);fill-opacity:1;" d="M 0.84375 10.5 L 2.15625 10.5 C 2.621094 10.5 3 10.878906 3 11.34375 L 3 12.65625 C 3 13.121094 2.621094 13.5 2.15625 13.5 L 0.84375 13.5 C 0.378906 13.5 0 13.121094 0 12.65625 L 0 11.34375 C 0 10.878906 0.378906 10.5 0.84375 10.5 Z M 0.84375 10.5 "/>
<path style=" stroke:none;fill-rule:nonzero;fill:rgb(74.509804%,74.509804%,74.509804%);fill-opacity:1;" d="M 21.84375 10.5 L 23.15625 10.5 C 23.621094 10.5 24 10.878906 24 11.34375 L 24 12.65625 C 24 13.121094 23.621094 13.5 23.15625 13.5 L 21.84375 13.5 C 21.378906 13.5 21 13.121094 21 12.65625 L 21 11.34375 C 21 10.878906 21.378906 10.5 21.84375 10.5 Z M 21.84375 10.5 "/>
<path style=" stroke:none;fill-rule:nonzero;fill:rgb(74.509804%,74.509804%,74.509804%);fill-opacity:1;" d="M 13.5 0.84375 L 13.5 2.15625 C 13.5 2.621094 13.121094 3 12.65625 3 L 11.34375 3 C 10.878906 3 10.5 2.621094 10.5 2.15625 L 10.5 0.84375 C 10.5 0.378906 10.878906 0 11.34375 0 L 12.65625 0 C 13.121094 0 13.5 0.378906 13.5 0.84375 Z M 13.5 0.84375 "/>
<path style=" stroke:none;fill-rule:nonzero;fill:rgb(74.509804%,74.509804%,74.509804%);fill-opacity:1;" d="M 20.949219 5.167969 L 20.023438 6.09375 C 19.695312 6.425781 19.160156 6.425781 18.828125 6.09375 L 17.902344 5.167969 C 17.570312 4.835938 17.570312 4.304688 17.902344 3.972656 L 18.828125 3.046875 C 19.160156 2.714844 19.695312 2.714844 20.023438 3.046875 L 20.949219 3.972656 C 21.28125 4.304688 21.28125 4.835938 20.949219 5.167969 Z M 20.949219 5.167969 "/>
<path style=" stroke:none;fill-rule:nonzero;fill:rgb(74.509804%,74.509804%,74.509804%);fill-opacity:1;" d="M 6.101562 20.015625 L 5.171875 20.945312 C 4.84375 21.273438 4.308594 21.273438 3.980469 20.945312 L 3.050781 20.015625 C 2.722656 19.6875 2.722656 19.152344 3.050781 18.824219 L 3.980469 17.894531 C 4.308594 17.566406 4.84375 17.566406 5.171875 17.894531 L 6.101562 18.824219 C 6.429688 19.152344 6.429688 19.6875 6.101562 20.015625 Z M 6.101562 20.015625 "/>
<path style=" stroke:none;fill-rule:nonzero;fill:rgb(74.509804%,74.509804%,74.509804%);fill-opacity:1;" d="M 5.167969 3.050781 L 6.09375 3.980469 C 6.425781 4.308594 6.425781 4.84375 6.09375 5.171875 L 5.167969 6.101562 C 4.835938 6.429688 4.304688 6.429688 3.972656 6.101562 L 3.046875 5.171875 C 2.714844 4.84375 2.714844 4.308594 3.046875 3.980469 L 3.972656 3.050781 C 4.304688 2.722656 4.835938 2.722656 5.167969 3.050781 Z M 5.167969 3.050781 "/>
<path style=" stroke:none;fill-rule:nonzero;fill:rgb(74.509804%,74.509804%,74.509804%);fill-opacity:1;" d="M 14.25 15 C 12.179688 15 10.5 16.679688 10.5 18.75 C 10.5 19.078125 10.5625 19.382812 10.640625 19.6875 C 10.371094 19.582031 10.070312 19.507812 9.757812 19.507812 C 8.511719 19.507812 7.507812 20.515625 7.507812 21.757812 C 7.507812 23 8.511719 24.007812 9.757812 24.007812 L 21.757812 24.007812 C 23 24.007812 24.007812 23 24.007812 21.757812 C 24.007812 20.515625 23 19.507812 21.757812 19.507812 C 21.757812 17.851562 20.414062 16.507812 18.757812 16.507812 C 18.28125 16.507812 17.839844 16.640625 17.445312 16.835938 C 16.796875 15.742188 15.628906 15.007812 14.261719 15.007812 Z M 14.25 15 "/>
<path style=" stroke:none;fill-rule:nonzero;fill:rgb(100%,100%,0%);fill-opacity:1;" d="M 7.769531 18.164062 C 6.441406 17.25 5.441406 15.925781 4.90625 14.378906 C 4.371094 12.820312 4.386719 11.019531 4.953125 9.476562 C 5.113281 9.03125 5.484375 8.292969 5.730469 7.917969 C 6.785156 6.332031 8.332031 5.21875 10.152344 4.75 C 11.1875 4.480469 12.328125 4.441406 13.386719 4.644531 C 16.222656 5.175781 18.53125 7.351562 19.253906 10.160156 C 19.398438 10.722656 19.453125 11.128906 19.476562 11.742188 C 19.503906 12.601562 19.394531 13.335938 19.105469 14.203125 L 18.945312 14.683594 L 18.742188 14.707031 C 18.628906 14.71875 18.429688 14.765625 18.296875 14.804688 C 18.167969 14.851562 18.042969 14.886719 18.027344 14.886719 C 18.007812 14.886719 17.898438 14.800781 17.789062 14.695312 C 17.394531 14.324219 16.863281 13.960938 16.339844 13.699219 C 15.410156 13.234375 14.257812 13.097656 13.140625 13.324219 C 11.773438 13.601562 10.445312 14.539062 9.6875 15.753906 C 9.277344 16.417969 9.015625 17.101562 8.890625 17.839844 L 8.847656 18.078125 L 8.496094 18.203125 C 8.300781 18.269531 8.117188 18.332031 8.09375 18.339844 C 8.066406 18.347656 7.925781 18.269531 7.769531 18.164062 Z M 7.769531 18.164062 "/>
<path style=" stroke:none;fill-rule:nonzero;fill:rgb(100%,40%,0%);fill-opacity:1;" d="M 4.300781 21.132812 C 4.128906 21.070312 3.960938 20.929688 3.457031 20.417969 C 2.886719 19.835938 2.832031 19.753906 2.832031 19.421875 C 2.832031 19.078125 2.882812 19 3.519531 18.363281 C 4.144531 17.738281 4.242188 17.671875 4.546875 17.671875 C 4.894531 17.671875 4.925781 17.6875 5.582031 18.335938 C 6.257812 19 6.328125 19.101562 6.328125 19.421875 C 6.328125 19.726562 6.265625 19.820312 5.640625 20.453125 C 5 21.097656 4.890625 21.171875 4.578125 21.167969 C 4.476562 21.164062 4.351562 21.148438 4.300781 21.132812 Z M 4.300781 21.132812 "/>
<path style=" stroke:none;fill-rule:nonzero;fill:rgb(100%,40%,0%);fill-opacity:1;" d="M 0.613281 13.460938 C 0.40625 13.398438 0.222656 13.238281 0.113281 13.03125 L 0.0117188 12.828125 L 0.0195312 11.960938 C 0.0273438 11.199219 0.0351562 11.082031 0.0859375 10.992188 C 0.179688 10.816406 0.332031 10.667969 0.492188 10.59375 C 0.644531 10.523438 0.671875 10.519531 1.5 10.519531 C 2.328125 10.519531 2.355469 10.523438 2.507812 10.59375 C 2.664062 10.667969 2.820312 10.816406 2.914062 10.992188 C 2.964844 11.078125 2.972656 11.199219 2.980469 11.929688 C 2.984375 12.480469 2.976562 12.804688 2.953125 12.886719 C 2.902344 13.082031 2.738281 13.28125 2.550781 13.382812 L 2.382812 13.476562 L 1.546875 13.484375 C 1.085938 13.484375 0.667969 13.476562 0.613281 13.460938 Z M 0.613281 13.460938 "/>
<path style=" stroke:none;fill-rule:nonzero;fill:rgb(100%,40%,0%);fill-opacity:1;" d="M 4.289062 6.285156 C 4.144531 6.230469 4.046875 6.148438 3.539062 5.640625 C 2.878906 4.980469 2.820312 4.894531 2.820312 4.578125 C 2.820312 4.257812 2.875 4.171875 3.550781 3.503906 C 4.117188 2.9375 4.15625 2.90625 4.328125 2.859375 C 4.550781 2.792969 4.75 2.8125 4.941406 2.90625 C 5.125 3 6.113281 3.980469 6.226562 4.1875 C 6.300781 4.320312 6.3125 4.378906 6.3125 4.578125 C 6.3125 4.773438 6.300781 4.832031 6.226562 4.96875 C 6.109375 5.175781 5.125 6.152344 4.9375 6.25 C 4.746094 6.34375 4.496094 6.359375 4.289062 6.285156 Z M 4.289062 6.285156 "/>
<path style=" stroke:none;fill-rule:nonzero;fill:rgb(100%,40%,0%);fill-opacity:1;" d="M 11.125 2.957031 C 10.859375 2.882812 10.632812 2.664062 10.554688 2.40625 C 10.488281 2.175781 10.488281 0.820312 10.554688 0.59375 C 10.613281 0.394531 10.789062 0.191406 10.984375 0.101562 C 11.140625 0.0273438 11.164062 0.0273438 12.007812 0.0273438 C 12.828125 0.0273438 12.878906 0.03125 13.007812 0.09375 C 13.167969 0.171875 13.328125 0.328125 13.40625 0.484375 C 13.457031 0.585938 13.464844 0.699219 13.472656 1.445312 C 13.484375 2.382812 13.472656 2.464844 13.292969 2.6875 C 13.238281 2.757812 13.121094 2.847656 13.023438 2.894531 L 12.84375 2.984375 L 12.054688 2.988281 C 11.496094 2.992188 11.226562 2.984375 11.125 2.957031 Z M 11.125 2.957031 "/>
<path style=" stroke:none;fill-rule:nonzero;fill:rgb(100%,40%,0%);fill-opacity:1;" d="M 19.253906 6.3125 C 19.039062 6.257812 18.90625 6.15625 18.347656 5.589844 C 17.789062 5.023438 17.753906 4.984375 17.703125 4.8125 C 17.671875 4.691406 17.65625 4.582031 17.671875 4.492188 C 17.710938 4.210938 17.792969 4.089844 18.347656 3.53125 C 18.949219 2.925781 19.117188 2.8125 19.40625 2.8125 C 19.742188 2.8125 19.820312 2.863281 20.449219 3.484375 C 21.121094 4.148438 21.171875 4.226562 21.171875 4.578125 C 21.171875 4.753906 21.15625 4.839844 21.105469 4.933594 C 21.011719 5.101562 19.902344 6.203125 19.761719 6.261719 C 19.621094 6.320312 19.375 6.34375 19.253906 6.3125 Z M 19.253906 6.3125 "/>
<path style=" stroke:none;fill-rule:nonzero;fill:rgb(100%,40%,0%);fill-opacity:1;" d="M 21.566406 13.433594 C 21.371094 13.367188 21.183594 13.195312 21.085938 12.996094 C 21.019531 12.863281 21.015625 12.824219 21.015625 12.007812 L 21.015625 11.15625 L 21.105469 10.976562 C 21.152344 10.878906 21.242188 10.757812 21.304688 10.707031 C 21.519531 10.53125 21.617188 10.515625 22.554688 10.527344 C 23.496094 10.535156 23.515625 10.539062 23.742188 10.761719 C 23.964844 10.976562 23.972656 11.015625 23.972656 11.992188 C 23.972656 12.835938 23.972656 12.859375 23.898438 13.015625 C 23.859375 13.101562 23.765625 13.222656 23.691406 13.285156 C 23.476562 13.472656 23.355469 13.492188 22.488281 13.492188 C 21.832031 13.492188 21.707031 13.484375 21.566406 13.433594 Z M 21.566406 13.433594 "/>
</g>
</svg>
