<?xml version="1.0" encoding="UTF-8"?>
<svg xmlns="http://www.w3.org/2000/svg" xmlns:xlink="http://www.w3.org/1999/xlink" width="24" height="24" viewBox="0 0 24 24" version="1.1">
<g id="surface1">
<path style=" stroke:none;fill-rule:nonzero;fill:rgb(74.509804%,74.509804%,74.509804%);fill-opacity:1;" d="M 14.234375 1.5 C 12.320312 1.5 10.765625 2.960938 10.550781 4.828125 C 10.070312 4.648438 9.578125 4.5 9.023438 4.5 C 6.550781 4.5 4.546875 6.511719 4.546875 9 C 4.546875 9.144531 4.578125 9.277344 4.59375 9.421875 C 4.144531 9.148438 3.617188 9 3.050781 9 C 1.402344 9 0.0664062 10.34375 0.0664062 12 C 0.0664062 13.65625 1.402344 15 3.050781 15 L 3.609375 15 C 3.855469 14.472656 4.15625 13.976562 4.585938 13.546875 L 8.269531 9.84375 L 11.953125 13.546875 C 12.378906 13.972656 12.648438 14.476562 12.882812 15 L 13.585938 15 L 15.726562 12.84375 L 17.871094 15 L 21.695312 15 C 22.929688 15 23.933594 13.992188 23.933594 12.75 C 23.933594 11.507812 22.929688 10.5 21.695312 10.5 C 21.386719 10.5 21.078125 10.574219 20.808594 10.6875 C 20.886719 10.386719 20.949219 10.078125 20.949219 9.75 C 20.949219 7.90625 19.617188 6.40625 17.871094 6.09375 C 17.933594 5.820312 17.964844 5.542969 17.964844 5.25 C 17.964844 3.179688 16.296875 1.5 14.234375 1.5 Z M 14.234375 1.5 "/>
<path style=" stroke:none;fill-rule:nonzero;fill:rgb(0%,100%,100%);fill-opacity:1;" d="M 8.25 11.867188 L 7.734375 12.429688 L 5.578125 14.539062 C 4.121094 15.996094 4.121094 18.375 5.578125 19.832031 C 7.035156 21.292969 9.464844 21.292969 10.921875 19.832031 C 12.378906 18.375 12.378906 15.996094 10.921875 14.539062 L 8.765625 12.429688 Z M 8.25 13.976562 L 9.84375 15.617188 C 10.726562 16.5 10.726562 17.917969 9.84375 18.804688 C 8.960938 19.6875 7.539062 19.6875 6.65625 18.804688 L 6.65625 18.757812 C 5.804688 17.867188 5.78125 16.488281 6.65625 15.617188 L 8.246094 13.949219 Z M 8.25 13.976562 "/>
<path style=" stroke:none;fill-rule:nonzero;fill:rgb(0%,100%,100%);fill-opacity:1;" d="M 15.75 14.867188 L 15.234375 15.429688 L 13.078125 17.539062 C 11.621094 18.996094 11.621094 21.375 13.078125 22.832031 C 14.535156 24.292969 16.964844 24.292969 18.421875 22.832031 C 19.878906 21.375 19.878906 18.996094 18.421875 17.539062 L 16.265625 15.429688 Z M 15.75 16.976562 L 17.34375 18.617188 C 18.226562 19.5 18.226562 20.917969 17.34375 21.804688 C 16.460938 22.6875 15.039062 22.6875 14.15625 21.804688 L 14.15625 21.757812 C 13.304688 20.867188 13.28125 19.488281 14.15625 18.617188 L 15.746094 16.949219 Z M 15.75 16.976562 "/>
</g>
</svg>
