<?xml version="1.0" encoding="UTF-8"?>
<svg xmlns="http://www.w3.org/2000/svg" xmlns:xlink="http://www.w3.org/1999/xlink" width="24" height="24" viewBox="0 0 24 24" version="1.1">
<g id="surface1">
<path style=" stroke:none;fill-rule:nonzero;fill:rgb(50.196078%,50.196078%,50.196078%);fill-opacity:1;" d="M 14.265625 0.0585938 C 12.355469 0.0585938 10.804688 1.519531 10.59375 3.386719 C 10.105469 3.203125 9.609375 3.058594 9.058594 3.058594 C 6.59375 3.058594 4.597656 5.074219 4.597656 7.5625 C 4.597656 7.707031 4.628906 7.839844 4.644531 7.984375 C 4.199219 7.714844 3.667969 7.5625 3.109375 7.5625 C 1.464844 7.5625 0.132812 8.902344 0.132812 10.5625 C 0.132812 12.21875 1.359375 13.496094 3 13.496094 L 10.5 13.496094 L 10.5 11.246094 C 10.476562 10.066406 11.609375 9.039062 12.777344 9.015625 C 13.976562 8.988281 15.027344 10.035156 15 11.246094 L 15 13.496094 L 21.75 13.496094 C 22.984375 13.496094 23.933594 12.554688 23.933594 11.3125 C 23.933594 10.070312 22.933594 9.0625 21.703125 9.0625 C 21.394531 9.0625 21.085938 9.132812 20.820312 9.25 C 20.898438 8.945312 20.957031 8.636719 20.957031 8.3125 C 20.957031 6.464844 19.628906 4.96875 17.890625 4.65625 C 17.953125 4.382812 17.984375 4.101562 17.984375 3.8125 C 17.984375 1.738281 16.320312 0.0585938 14.265625 0.0585938 Z M 14.265625 0.0585938 "/>
<path style=" stroke:none;fill-rule:nonzero;fill:rgb(74.509804%,74.509804%,74.509804%);fill-opacity:1;" d="M 12.617188 10.5 C 12.253906 10.566406 11.992188 10.882812 12 11.25 L 12 15 L 7.5 15 L 7.5 16.5 L 4.921875 16.5 L 4.734375 16.734375 L 0.984375 20.484375 C 0.722656 20.648438 0.585938 20.953125 0.644531 21.257812 C 0.699219 21.5625 0.9375 21.800781 1.242188 21.855469 C 1.546875 21.914062 1.851562 21.777344 2.015625 21.515625 L 5.523438 17.992188 L 7.492188 17.992188 L 7.492188 22.492188 C 7.492188 22.90625 7.828125 23.242188 8.242188 23.242188 C 8.65625 23.242188 8.992188 22.90625 8.992188 22.492188 L 8.992188 17.429688 C 9.015625 17.320312 9.015625 17.207031 8.992188 17.101562 L 8.992188 16.5 L 11.992188 16.5 L 11.992188 17.578125 L 12.226562 17.765625 L 14.984375 20.539062 L 14.984375 22.507812 C 14.984375 22.917969 15.320312 23.257812 15.734375 23.257812 C 16.148438 23.257812 16.484375 22.917969 16.484375 22.507812 L 16.484375 21.007812 L 18.5 21.007812 L 22.109375 23.164062 C 22.472656 23.367188 22.933594 23.242188 23.140625 22.882812 C 23.347656 22.519531 23.222656 22.054688 22.859375 21.851562 L 19.109375 19.601562 L 18.921875 19.507812 L 16.015625 19.507812 L 13.484375 16.976562 L 13.484375 15.945312 C 13.507812 15.835938 13.507812 15.722656 13.484375 15.617188 L 13.484375 11.265625 C 13.488281 11.039062 13.390625 10.824219 13.21875 10.675781 C 13.046875 10.53125 12.816406 10.472656 12.59375 10.515625 Z M 12.617188 10.5 "/>
<path style=" stroke:none;fill-rule:nonzero;fill:rgb(100%,100%,0%);fill-opacity:1;" d="M 15.574219 23.226562 C 15.425781 23.191406 15.257812 23.089844 15.167969 22.980469 C 15.003906 22.777344 14.996094 22.726562 14.996094 21.570312 L 14.996094 20.523438 L 13.496094 19.03125 L 12 17.535156 L 12 16.5 L 8.980469 16.5 L 8.976562 19.570312 L 8.976562 22.644531 L 8.910156 22.785156 C 8.773438 23.078125 8.566406 23.210938 8.242188 23.210938 C 7.929688 23.210938 7.707031 23.078125 7.574219 22.8125 C 7.523438 22.707031 7.519531 22.605469 7.507812 20.34375 L 7.492188 17.984375 L 5.539062 17.96875 L 3.636719 19.875 C 2.199219 21.316406 1.710938 21.789062 1.632812 21.816406 C 1.578125 21.835938 1.453125 21.851562 1.359375 21.851562 C 1.15625 21.851562 0.9375 21.746094 0.804688 21.585938 C 0.636719 21.382812 0.597656 21.03125 0.714844 20.804688 C 0.746094 20.75 1.714844 19.761719 2.871094 18.601562 L 4.976562 16.5 L 7.507812 16.5 L 7.507812 15 L 12 15 L 12.007812 13.03125 C 12.015625 10.847656 12.003906 10.972656 12.203125 10.75 C 12.316406 10.617188 12.539062 10.507812 12.695312 10.507812 C 13.003906 10.507812 13.296875 10.691406 13.410156 10.957031 C 13.46875 11.09375 13.46875 11.113281 13.46875 14.03125 L 13.472656 16.964844 L 14.75 18.242188 L 16.027344 19.523438 L 17.476562 19.523438 C 18.898438 19.523438 18.929688 19.523438 19.046875 19.582031 C 19.324219 19.722656 22.902344 21.882812 22.988281 21.964844 C 23.191406 22.148438 23.269531 22.46875 23.1875 22.75 C 23.144531 22.890625 22.960938 23.097656 22.816406 23.171875 C 22.664062 23.25 22.417969 23.269531 22.273438 23.21875 C 22.210938 23.195312 21.335938 22.6875 20.328125 22.085938 L 18.496094 20.992188 L 16.464844 20.992188 L 16.464844 21.832031 C 16.464844 22.65625 16.464844 22.675781 16.398438 22.816406 C 16.253906 23.125 15.898438 23.304688 15.574219 23.226562 Z M 15.574219 23.226562 "/>
</g>
</svg>
