<?xml version="1.0" encoding="UTF-8"?>
<svg xmlns="http://www.w3.org/2000/svg" xmlns:xlink="http://www.w3.org/1999/xlink" width="24" height="24" viewBox="0 0 24 24" version="1.1">
<g id="surface1">
<path style=" stroke:none;fill-rule:nonzero;fill:rgb(74.509804%,74.509804%,74.509804%);fill-opacity:1;" d="M 14.25 6 C 12.324219 6 10.761719 7.460938 10.546875 9.328125 C 10.050781 9.148438 9.554688 9 9 9 C 6.515625 9 4.5 11.011719 4.5 13.5 C 4.5 13.644531 4.535156 13.777344 4.546875 13.921875 C 4.097656 13.648438 3.558594 13.5 3.003906 13.5 C 1.347656 13.5 0.00390625 14.84375 0.00390625 16.5 C 0.00390625 18.15625 1.347656 19.5 3.003906 19.5 L 21.753906 19.5 C 22.996094 19.5 24.003906 18.492188 24.003906 17.25 C 24.003906 16.007812 22.996094 15 21.753906 15 C 21.441406 15 21.132812 15.074219 20.863281 15.1875 C 20.941406 14.886719 21.003906 14.578125 21.003906 14.25 C 21.003906 12.40625 19.664062 10.90625 17.910156 10.59375 C 17.972656 10.320312 18.003906 10.042969 18.003906 9.75 C 18.003906 7.679688 16.324219 6 14.253906 6 Z M 14.25 6 "/>
</g>
</svg>
