<?xml version="1.0" encoding="UTF-8"?>
<svg xmlns="http://www.w3.org/2000/svg" xmlns:xlink="http://www.w3.org/1999/xlink" width="24" height="24" viewBox="0 0 24 24" version="1.1">
<g id="surface1">
<path style=" stroke:none;fill-rule:nonzero;fill:rgb(74.509804%,74.509804%,74.509804%);fill-opacity:1;" d="M 14.25 3 C 12.324219 3 10.761719 4.460938 10.546875 6.328125 C 10.050781 6.148438 9.554688 6 9 6 C 6.515625 6 4.5 8.011719 4.5 10.5 C 4.5 10.644531 4.535156 10.777344 4.546875 10.921875 C 4.097656 10.648438 3.558594 10.5 3.003906 10.5 C 1.347656 10.5 0.00390625 11.84375 0.00390625 13.5 C 0.00390625 15.15625 1.347656 16.5 3.003906 16.5 L 10.503906 16.5 L 10.503906 13.3125 C 10.503906 11.796875 11.800781 10.5 13.316406 10.5 L 20.910156 10.5 C 20.597656 9.019531 19.410156 7.863281 17.910156 7.59375 C 17.972656 7.320312 18.003906 7.042969 18.003906 6.75 C 18.003906 4.679688 16.324219 3 14.253906 3 Z M 14.25 3 "/>
<path style=" stroke:none;fill-rule:nonzero;fill:rgb(96.078431%,47.45098%,0%);fill-opacity:1;" d="M 13.320312 12 C 12.582031 12 12.007812 12.574219 12.007812 13.3125 L 12.007812 22.6875 C 12.007812 23.425781 12.582031 24 13.320312 24 L 22.695312 24 C 23.433594 24 24.007812 23.425781 24.007812 22.6875 L 24.007812 13.3125 C 24.007812 12.574219 23.433594 12 22.695312 12 Z M 16.507812 13.5 L 19.507812 13.5 L 19.507812 19.5 L 16.507812 19.5 Z M 16.507812 21 L 19.507812 21 L 19.507812 22.5 L 16.507812 22.5 Z M 16.507812 21 "/>
</g>
</svg>
