<?xml version="1.0" encoding="UTF-8"?>
<svg xmlns="http://www.w3.org/2000/svg" xmlns:xlink="http://www.w3.org/1999/xlink" width="24" height="24" viewBox="0 0 24 24" version="1.1">
<g id="surface1">
<path style=" stroke:none;fill-rule:nonzero;fill:rgb(74.509804%,74.509804%,74.509804%);fill-opacity:1;" d="M 14.207031 0 C 12.296875 0 10.742188 1.460938 10.53125 3.328125 C 10.039062 3.148438 9.542969 3 8.988281 3 C 6.523438 3 4.523438 5.011719 4.523438 7.5 C 4.523438 7.644531 4.558594 7.777344 4.570312 7.921875 C 4.121094 7.648438 3.597656 7.5 3.042969 7.5 C 1.398438 7.5 0.0664062 8.84375 0.0664062 10.5 C 0.0664062 12.15625 1.398438 13.5 3.042969 13.5 L 21.636719 13.5 C 22.867188 13.5 23.867188 12.492188 23.867188 11.25 C 23.867188 10.007812 22.867188 9 21.636719 9 C 21.328125 9 21.019531 9.074219 20.753906 9.1875 C 20.832031 8.886719 20.890625 8.578125 20.890625 8.25 C 20.890625 6.40625 19.5625 4.90625 17.824219 4.59375 C 17.886719 4.320312 17.917969 4.042969 17.917969 3.75 C 17.917969 1.679688 16.25 0 14.195312 0 Z M 14.207031 0 "/>
<path style=" stroke:none;fill-rule:nonzero;fill:rgb(0%,100%,100%);fill-opacity:1;" d="M 3.613281 15 C 3.296875 15.050781 3.050781 15.296875 3 15.617188 L 1.5 22.976562 C 1.417969 23.246094 1.496094 23.542969 1.703125 23.738281 C 1.914062 23.929688 2.214844 23.988281 2.480469 23.886719 C 2.746094 23.785156 2.929688 23.539062 2.953125 23.257812 L 4.453125 15.898438 C 4.507812 15.65625 4.4375 15.40625 4.269531 15.222656 C 4.101562 15.042969 3.855469 14.957031 3.613281 14.996094 Z M 3.613281 15 "/>
<path style=" stroke:none;fill-rule:nonzero;fill:rgb(0%,100%,100%);fill-opacity:1;" d="M 6.617188 15 C 6.296875 15.050781 6.050781 15.296875 6 15.617188 L 4.5 22.976562 C 4.417969 23.246094 4.496094 23.542969 4.703125 23.738281 C 4.914062 23.929688 5.214844 23.988281 5.480469 23.886719 C 5.746094 23.785156 5.929688 23.539062 5.953125 23.257812 L 7.496094 15.875 C 7.550781 15.628906 7.476562 15.371094 7.296875 15.191406 C 7.117188 15.011719 6.859375 14.9375 6.613281 14.992188 Z M 6.617188 15 "/>
<path style=" stroke:none;fill-rule:nonzero;fill:rgb(0%,100%,100%);fill-opacity:1;" d="M 9.617188 15 C 9.296875 15.050781 9.050781 15.296875 9 15.617188 L 7.5 22.976562 C 7.421875 23.386719 7.695312 23.789062 8.109375 23.867188 C 8.523438 23.941406 8.921875 23.667969 9 23.257812 L 10.5 15.898438 C 10.558594 15.648438 10.488281 15.382812 10.304688 15.199219 C 10.128906 15.019531 9.867188 14.941406 9.617188 14.996094 Z M 9.617188 15 "/>
<path style=" stroke:none;fill-rule:nonzero;fill:rgb(0%,100%,100%);fill-opacity:1;" d="M 12.617188 15 C 12.296875 15.050781 12.050781 15.296875 12 15.617188 L 10.5 22.976562 C 10.421875 23.386719 10.695312 23.789062 11.109375 23.867188 C 11.523438 23.941406 11.921875 23.667969 12 23.257812 L 13.5 15.898438 C 13.558594 15.648438 13.488281 15.382812 13.304688 15.199219 C 13.128906 15.019531 12.867188 14.941406 12.617188 14.996094 Z M 12.617188 15 "/>
<path style=" stroke:none;fill-rule:nonzero;fill:rgb(0%,100%,100%);fill-opacity:1;" d="M 15.617188 15 C 15.320312 15.070312 15.097656 15.3125 15.054688 15.609375 L 13.492188 22.960938 C 13.414062 23.375 13.6875 23.773438 14.101562 23.851562 C 14.515625 23.925781 14.914062 23.65625 14.992188 23.242188 L 16.492188 15.882812 C 16.546875 15.632812 16.46875 15.375 16.292969 15.199219 C 16.113281 15.019531 15.855469 14.941406 15.605469 14.996094 Z M 15.617188 15 "/>
<path style=" stroke:none;fill-rule:nonzero;fill:rgb(0%,100%,100%);fill-opacity:1;" d="M 18.617188 15 C 18.320312 15.070312 18.097656 15.3125 18.054688 15.609375 L 16.554688 22.96875 C 16.445312 23.246094 16.515625 23.5625 16.730469 23.769531 C 16.945312 23.976562 17.261719 24.035156 17.535156 23.917969 C 17.8125 23.804688 17.992188 23.535156 17.992188 23.238281 L 19.492188 15.878906 C 19.546875 15.632812 19.46875 15.375 19.292969 15.195312 C 19.113281 15.015625 18.855469 14.941406 18.605469 14.992188 Z M 18.617188 15 "/>
</g>
</svg>
