<?xml version="1.0" encoding="UTF-8"?>
<svg xmlns="http://www.w3.org/2000/svg" xmlns:xlink="http://www.w3.org/1999/xlink" width="48" height="48" viewBox="0 0 48 48" version="1.1">
<g id="surface1">
<path style=" stroke:none;fill-rule:nonzero;fill:rgb(100%,100%,100%);fill-opacity:1;" d="M 30.90625 2 C 29.511719 2.003906 28.421875 2.007812 28 2.03125 C 26.304688 2.132812 25.460938 3.1875 25.125 4.75 C 25.082031 5.535156 25.125 18.5 25.125 18.5 C 25.125 20.097656 26.402344 21.40625 28 21.40625 L 43.09375 21.40625 C 44.691406 21.40625 45.96875 20.097656 45.96875 18.5 C 45.96875 16.902344 46.164062 4.960938 45.75 3.875 C 45.335938 2.789062 44.332031 2.03125 43.09375 2.03125 C 42.167969 2.03125 35.09375 1.984375 30.90625 2 Z M 29.03125 4.28125 L 42.03125 4.28125 C 42.960938 4.28125 43.71875 5.007812 43.71875 5.9375 L 43.71875 17.5 C 43.71875 18.429688 42.960938 19.15625 42.03125 19.15625 L 29.03125 19.15625 C 28.101562 19.15625 27.34375 18.429688 27.34375 17.5 L 27.34375 5.9375 C 27.34375 5.007812 28.101562 4.28125 29.03125 4.28125 Z M 12.25 5.875 C 10.882812 5.898438 9.554688 6.578125 8.75 7.8125 C 7.464844 9.785156 8.027344 12.433594 10 13.71875 C 11.972656 15.003906 14.589844 14.441406 15.875 12.46875 C 17.160156 10.496094 16.628906 7.847656 14.65625 6.5625 C 13.914062 6.082031 13.070312 5.859375 12.25 5.875 Z M 6.8125 15 C 5.683594 15.019531 4.570312 15.605469 3.90625 16.625 C 2.84375 18.253906 3.308594 20.40625 4.9375 21.46875 C 6.566406 22.53125 8.75 22.097656 9.8125 20.46875 C 10.875 18.839844 10.410156 16.65625 8.78125 15.59375 C 8.171875 15.195312 7.492188 14.988281 6.8125 15 Z M 6.78125 25.71875 C 6.015625 25.730469 5.289062 26.070312 4.75 26.65625 C 3.164062 26.8125 2.324219 27.835938 2 29.34375 C 1.957031 30.128906 2 43.09375 2 43.09375 C 2 44.691406 3.308594 46 4.90625 46 L 19.96875 46 C 21.566406 46 22.84375 44.691406 22.84375 43.09375 C 22.84375 41.496094 23.070312 29.554688 22.65625 28.46875 C 22.242188 27.382812 21.203125 26.625 19.96875 26.625 C 19.125 26.625 13.121094 26.589844 8.90625 26.59375 C 8.765625 26.4375 8.59375 26.308594 8.40625 26.1875 C 7.910156 25.863281 7.332031 25.710938 6.78125 25.71875 Z M 5.90625 28.875 L 18.90625 28.875 C 19.835938 28.875 20.59375 29.601562 20.59375 30.53125 L 20.59375 42.09375 C 20.59375 43.023438 19.835938 43.75 18.90625 43.75 L 5.90625 43.75 C 4.976562 43.75 4.21875 43.023438 4.21875 42.09375 L 4.21875 30.53125 C 4.21875 29.601562 4.976562 28.875 5.90625 28.875 Z M 6.46875 31.09375 L 6.46875 41.53125 L 18.375 41.53125 L 18.375 31.09375 Z M 6.46875 31.09375 "/>
</g>
</svg>
