<?xml version="1.0" encoding="UTF-8"?>
<svg xmlns="http://www.w3.org/2000/svg" xmlns:xlink="http://www.w3.org/1999/xlink" width="48" height="48" viewBox="0 0 48 48" version="1.1">
<g id="surface1">
<path style=" stroke:none;fill-rule:nonzero;fill:rgb(100%,100%,100%);fill-opacity:1;" d="M 30.90625 2 C 29.511719 2.003906 28.421875 2.007812 28 2.03125 C 26.304688 2.132812 25.460938 3.1875 25.125 4.75 C 25.082031 5.535156 25.125 18.5 25.125 18.5 C 25.125 20.097656 26.402344 21.40625 28 21.40625 L 43.09375 21.40625 C 44.691406 21.40625 45.96875 20.097656 45.96875 18.5 C 45.96875 16.902344 46.164062 4.960938 45.75 3.875 C 45.335938 2.789062 44.332031 2.03125 43.09375 2.03125 C 42.167969 2.03125 35.09375 1.984375 30.90625 2 Z M 29.03125 4.28125 L 42.03125 4.28125 C 42.960938 4.28125 43.71875 5.007812 43.71875 5.9375 L 43.71875 17.5 C 43.71875 18.429688 42.960938 19.15625 42.03125 19.15625 L 29.03125 19.15625 C 28.101562 19.15625 27.34375 18.429688 27.34375 17.5 L 27.34375 5.9375 C 27.34375 5.007812 28.101562 4.28125 29.03125 4.28125 Z M 41.53125 22.9375 C 41.070312 22.957031 40.605469 23.203125 40.34375 23.625 C 39.921875 24.304688 40.136719 25.203125 40.8125 25.625 C 41.492188 26.046875 42.390625 25.835938 42.8125 25.15625 C 43.234375 24.480469 43.019531 23.578125 42.34375 23.15625 C 42.089844 23 41.808594 22.925781 41.53125 22.9375 Z M 7.78125 26.59375 C 6.386719 26.597656 5.328125 26.601562 4.90625 26.625 C 3.210938 26.726562 2.335938 27.78125 2 29.34375 C 1.957031 30.128906 2 43.09375 2 43.09375 C 2 44.691406 3.308594 46 4.90625 46 L 19.96875 46 C 20.839844 46 21.597656 45.613281 22.125 45 C 22.945312 44.683594 23.65625 44.074219 24.0625 43.21875 C 24.8125 41.640625 24.269531 39.808594 22.875 38.84375 C 22.917969 34.71875 22.953125 29.246094 22.65625 28.46875 C 22.242188 27.382812 21.203125 26.625 19.96875 26.625 C 19.042969 26.625 11.96875 26.578125 7.78125 26.59375 Z M 5.90625 28.875 L 18.90625 28.875 C 19.835938 28.875 20.59375 29.601562 20.59375 30.53125 L 20.59375 42.09375 C 20.59375 43.023438 19.835938 43.75 18.90625 43.75 L 5.90625 43.75 C 4.976562 43.75 4.21875 43.023438 4.21875 42.09375 L 4.21875 30.53125 C 4.21875 29.601562 4.976562 28.875 5.90625 28.875 Z M 6.46875 31.09375 L 6.46875 41.53125 L 18.375 41.53125 L 18.375 31.09375 Z M 38.625 31.875 C 37.832031 31.839844 37.046875 32.269531 36.6875 33.03125 C 36.203125 34.046875 36.640625 35.265625 37.65625 35.75 C 38.671875 36.230469 39.894531 35.796875 40.375 34.78125 C 40.859375 33.765625 40.421875 32.542969 39.40625 32.0625 C 39.152344 31.941406 38.890625 31.886719 38.625 31.875 Z M 30.5625 37.53125 C 29.597656 37.628906 28.695312 38.21875 28.25 39.15625 C 27.570312 40.585938 28.164062 42.320312 29.59375 43 C 31.023438 43.679688 32.757812 43.054688 33.4375 41.625 C 34.117188 40.195312 33.492188 38.492188 32.0625 37.8125 C 31.703125 37.640625 31.339844 37.546875 30.96875 37.53125 C 30.828125 37.523438 30.699219 37.515625 30.5625 37.53125 Z M 30.5625 37.53125 "/>
</g>
</svg>
