<?xml version="1.0" encoding="UTF-8"?>
<svg xmlns="http://www.w3.org/2000/svg" xmlns:xlink="http://www.w3.org/1999/xlink" width="48" height="48" viewBox="0 0 48 48" version="1.1">
<g id="surface1">
<path style=" stroke:none;fill-rule:nonzero;fill:rgb(100%,100%,100%);fill-opacity:1;" d="M 30.90625 2 C 29.511719 2.003906 28.421875 2.007812 28 2.03125 C 26.304688 2.132812 25.460938 3.1875 25.125 4.75 C 25.082031 5.535156 25.125 18.5 25.125 18.5 C 25.125 20.097656 26.402344 21.40625 28 21.40625 L 43.09375 21.40625 C 44.691406 21.40625 45.96875 20.097656 45.96875 18.5 C 45.96875 16.902344 46.164062 4.960938 45.75 3.875 C 45.335938 2.789062 44.332031 2.03125 43.09375 2.03125 C 42.167969 2.03125 35.09375 1.984375 30.90625 2 Z M 29.03125 4.28125 L 42.03125 4.28125 C 42.960938 4.28125 43.71875 5.007812 43.71875 5.9375 L 43.71875 17.5 C 43.71875 18.429688 42.960938 19.15625 42.03125 19.15625 L 29.03125 19.15625 C 28.101562 19.15625 27.34375 18.429688 27.34375 17.5 L 27.34375 5.9375 C 27.34375 5.007812 28.101562 4.28125 29.03125 4.28125 Z M 22.15625 5.0625 C 21.699219 5.132812 21.273438 5.425781 21.0625 5.875 C 20.722656 6.597656 21.027344 7.472656 21.75 7.8125 C 22.472656 8.152344 23.347656 7.847656 23.6875 7.125 C 24.027344 6.402344 23.691406 5.527344 22.96875 5.1875 C 22.699219 5.058594 22.429688 5.019531 22.15625 5.0625 Z M 29.59375 6.5 L 29.59375 16.9375 L 41.46875 16.9375 L 41.46875 6.5 Z M 41.71875 21.5625 C 40.351562 21.664062 39.09375 22.558594 38.625 23.9375 C 38 25.777344 39.003906 27.78125 40.84375 28.40625 C 42.6875 29.03125 44.6875 28.027344 45.3125 26.1875 C 45.9375 24.34375 44.9375 22.34375 43.09375 21.71875 C 42.632812 21.5625 42.175781 21.527344 41.71875 21.5625 Z M 7.78125 26.59375 C 6.386719 26.597656 5.328125 26.601562 4.90625 26.625 C 3.210938 26.726562 2.335938 27.78125 2 29.34375 C 1.980469 29.726562 1.996094 33.074219 2 36.34375 C 2 36.414062 2 36.429688 2 36.5 C 2.003906 39.839844 2 43.09375 2 43.09375 C 2 44.691406 3.308594 46 4.90625 46 L 19.96875 46 C 21.566406 46 22.84375 44.691406 22.84375 43.09375 C 22.84375 41.496094 23.070312 29.554688 22.65625 28.46875 C 22.242188 27.382812 21.203125 26.625 19.96875 26.625 C 19.042969 26.625 11.96875 26.578125 7.78125 26.59375 Z M 5.90625 28.875 L 18.90625 28.875 C 19.835938 28.875 20.59375 29.601562 20.59375 30.53125 L 20.59375 42.09375 C 20.59375 43.023438 19.835938 43.75 18.90625 43.75 L 5.90625 43.75 C 4.976562 43.75 4.21875 43.023438 4.21875 42.09375 L 4.21875 30.53125 C 4.21875 29.601562 4.976562 28.875 5.90625 28.875 Z M 38.4375 30.28125 C 36.78125 30.402344 35.285156 31.484375 34.71875 33.15625 C 33.960938 35.382812 35.144531 37.804688 37.375 38.5625 C 39.601562 39.320312 42.023438 38.136719 42.78125 35.90625 C 43.539062 33.675781 42.355469 31.257812 40.125 30.5 C 39.570312 30.3125 38.988281 30.242188 38.4375 30.28125 Z M 6.46875 31.09375 L 6.46875 41.53125 L 18.375 41.53125 L 18.375 31.09375 Z M 6.46875 31.09375 "/>
</g>
</svg>
