<?xml version="1.0" encoding="UTF-8"?>
<svg xmlns="http://www.w3.org/2000/svg" xmlns:xlink="http://www.w3.org/1999/xlink" width="48" height="48" viewBox="0 0 48 48" version="1.1">
<g id="surface1">
<path style=" stroke:none;fill-rule:nonzero;fill:rgb(100%,100%,100%);fill-opacity:1;" d="M 30.90625 2 C 29.511719 2.003906 28.421875 2.007812 28 2.03125 C 26.304688 2.132812 25.460938 3.1875 25.125 4.75 C 25.082031 5.535156 25.125 18.5 25.125 18.5 C 25.125 20.097656 26.402344 21.40625 28 21.40625 L 43.09375 21.40625 C 44.691406 21.40625 45.96875 20.097656 45.96875 18.5 C 45.96875 16.902344 46.164062 4.960938 45.75 3.875 C 45.335938 2.789062 44.332031 2.03125 43.09375 2.03125 C 42.167969 2.03125 35.09375 1.984375 30.90625 2 Z M 29.03125 4.28125 L 42.03125 4.28125 C 42.960938 4.28125 43.71875 5.007812 43.71875 5.9375 L 43.71875 17.5 C 43.71875 18.429688 42.960938 19.15625 42.03125 19.15625 L 29.03125 19.15625 C 28.101562 19.15625 27.34375 18.429688 27.34375 17.5 L 27.34375 5.9375 C 27.34375 5.007812 28.101562 4.28125 29.03125 4.28125 Z M 6.65625 24.65625 C 5.835938 24.632812 5.027344 24.867188 4.28125 25.34375 C 3.222656 26.019531 2.570312 27.074219 2.375 28.21875 C 2.203125 28.554688 2.089844 28.929688 2 29.34375 C 1.980469 29.726562 1.996094 33.074219 2 36.34375 C 2 36.414062 2 36.429688 2 36.5 C 2.003906 39.839844 2 43.09375 2 43.09375 C 2 44.691406 3.308594 46 4.90625 46 L 19.96875 46 C 21.296875 46 22.382812 45.097656 22.71875 43.875 C 23.976562 43 24.332031 41.304688 23.5 40 C 23.328125 39.726562 23.113281 39.503906 22.875 39.3125 C 22.917969 35.222656 22.964844 29.28125 22.65625 28.46875 C 22.242188 27.382812 21.203125 26.625 19.96875 26.625 C 19.21875 26.625 14.132812 26.597656 10.125 26.59375 C 9.332031 25.375 8.011719 24.691406 6.65625 24.65625 Z M 5.90625 28.875 L 18.90625 28.875 C 19.835938 28.875 20.59375 29.601562 20.59375 30.53125 L 20.59375 42.09375 C 20.59375 43.023438 19.835938 43.75 18.90625 43.75 L 5.90625 43.75 C 4.976562 43.75 4.21875 43.023438 4.21875 42.09375 L 4.21875 30.53125 C 4.21875 29.601562 4.976562 28.875 5.90625 28.875 Z M 38.59375 32.21875 C 38.40625 32.230469 38.242188 32.257812 38.0625 32.34375 C 37.347656 32.695312 37.023438 33.566406 37.375 34.28125 C 37.726562 35 38.59375 35.289062 39.3125 34.9375 C 40.027344 34.585938 40.320312 33.746094 39.96875 33.03125 C 39.707031 32.496094 39.15625 32.1875 38.59375 32.21875 Z M 31.125 38.0625 C 30.734375 38.050781 30.324219 38.179688 29.96875 38.40625 C 29.023438 39.011719 28.738281 40.273438 29.34375 41.21875 C 29.949219 42.164062 31.210938 42.417969 32.15625 41.8125 C 33.101562 41.207031 33.386719 39.945312 32.78125 39 C 32.402344 38.40625 31.777344 38.078125 31.125 38.0625 Z M 31.125 38.0625 "/>
</g>
</svg>
