<?xml version="1.0" encoding="UTF-8"?>
<svg xmlns="http://www.w3.org/2000/svg" xmlns:xlink="http://www.w3.org/1999/xlink" width="48" height="48" viewBox="0 0 48 48" version="1.1">
<g id="surface1">
<path style=" stroke:none;fill-rule:nonzero;fill:rgb(100%,100%,100%);fill-opacity:1;" d="M 30.90625 2 C 29.511719 2.003906 28.421875 2.007812 28 2.03125 C 26.304688 2.132812 25.460938 3.1875 25.125 4.75 C 25.082031 5.535156 25.125 18.5 25.125 18.5 C 25.125 20.097656 26.402344 21.40625 28 21.40625 L 43.09375 21.40625 C 44.691406 21.40625 45.96875 20.097656 45.96875 18.5 C 45.96875 16.902344 46.164062 4.960938 45.75 3.875 C 45.335938 2.789062 44.332031 2.03125 43.09375 2.03125 C 42.167969 2.03125 35.09375 1.984375 30.90625 2 Z M 29.03125 4.28125 L 42.03125 4.28125 C 42.960938 4.28125 43.71875 5.007812 43.71875 5.9375 L 43.71875 17.5 C 43.71875 18.429688 42.960938 19.15625 42.03125 19.15625 L 29.03125 19.15625 C 28.101562 19.15625 27.34375 18.429688 27.34375 17.5 L 27.34375 5.9375 C 27.34375 5.007812 28.101562 4.28125 29.03125 4.28125 Z M 41.5 22.0625 C 40.949219 22.109375 40.398438 22.3125 39.9375 22.6875 C 38.707031 23.683594 38.535156 25.488281 39.53125 26.71875 C 40.527344 27.949219 42.332031 28.152344 43.5625 27.15625 C 44.792969 26.160156 44.964844 24.355469 43.96875 23.125 C 43.347656 22.355469 42.417969 21.984375 41.5 22.0625 Z M 7.78125 26.59375 C 6.386719 26.597656 5.328125 26.601562 4.90625 26.625 C 3.210938 26.726562 2.335938 27.78125 2 29.34375 C 1.957031 30.128906 2 43.09375 2 43.09375 C 2 44.691406 3.308594 46 4.90625 46 L 19.96875 46 C 21.566406 46 22.84375 44.691406 22.84375 43.09375 C 22.84375 41.496094 23.070312 29.554688 22.65625 28.46875 C 22.242188 27.382812 21.203125 26.625 19.96875 26.625 C 19.042969 26.625 11.96875 26.578125 7.78125 26.59375 Z M 5.90625 28.875 L 18.90625 28.875 C 19.835938 28.875 20.59375 29.601562 20.59375 30.53125 L 20.59375 42.09375 C 20.59375 43.023438 19.835938 43.75 18.90625 43.75 L 5.90625 43.75 C 4.976562 43.75 4.21875 43.023438 4.21875 42.09375 L 4.21875 30.53125 C 4.21875 29.601562 4.976562 28.875 5.90625 28.875 Z M 38.3125 30.96875 C 37.636719 31.027344 36.972656 31.289062 36.40625 31.75 C 34.894531 32.972656 34.683594 35.175781 35.90625 36.6875 C 37.128906 38.199219 39.332031 38.441406 40.84375 37.21875 C 42.355469 35.996094 42.597656 33.761719 41.375 32.25 C 40.609375 31.304688 39.4375 30.871094 38.3125 30.96875 Z M 6.46875 31.09375 L 6.46875 41.53125 L 18.375 41.53125 L 18.375 31.09375 Z M 30.46875 36.53125 C 29.652344 36.601562 28.875 36.914062 28.1875 37.46875 C 26.359375 38.949219 26.050781 41.640625 27.53125 43.46875 C 29.011719 45.296875 31.703125 45.574219 33.53125 44.09375 C 35.359375 42.613281 35.636719 39.921875 34.15625 38.09375 C 33.230469 36.949219 31.832031 36.414062 30.46875 36.53125 Z M 30.46875 36.53125 "/>
</g>
</svg>
