<?xml version="1.0" encoding="UTF-8"?>
<svg xmlns="http://www.w3.org/2000/svg" xmlns:xlink="http://www.w3.org/1999/xlink" width="48" height="48" viewBox="0 0 48 48" version="1.1">
<g id="surface1">
<path style=" stroke:none;fill-rule:nonzero;fill:rgb(100%,100%,100%);fill-opacity:1;" d="M 30.90625 2 C 29.511719 2.003906 28.421875 2.007812 28 2.03125 C 26.304688 2.132812 25.460938 3.1875 25.125 4.75 C 25.082031 5.535156 25.125 18.5 25.125 18.5 C 25.125 20.097656 26.402344 21.40625 28 21.40625 L 43.09375 21.40625 C 44.691406 21.40625 45.96875 20.097656 45.96875 18.5 C 45.96875 16.902344 46.164062 4.960938 45.75 3.875 C 45.335938 2.789062 44.332031 2.03125 43.09375 2.03125 C 42.167969 2.03125 35.09375 1.984375 30.90625 2 Z M 29.03125 4.28125 L 42.03125 4.28125 C 42.960938 4.28125 43.71875 5.007812 43.71875 5.9375 L 43.71875 17.5 C 43.71875 18.429688 42.960938 19.15625 42.03125 19.15625 L 29.03125 19.15625 C 28.101562 19.15625 27.34375 18.429688 27.34375 17.5 L 27.34375 5.9375 C 27.34375 5.007812 28.101562 4.28125 29.03125 4.28125 Z M 29.59375 6.5 L 29.59375 16.9375 L 41.46875 16.9375 L 41.46875 6.5 Z M 41.34375 22.71875 C 40.226562 22.84375 39.4375 23.851562 39.5625 24.96875 C 39.6875 26.085938 40.695312 26.875 41.8125 26.75 C 42.929688 26.625 43.71875 25.648438 43.59375 24.53125 C 43.46875 23.414062 42.460938 22.59375 41.34375 22.71875 Z M 7.78125 26.59375 C 6.386719 26.597656 5.328125 26.601562 4.90625 26.625 C 3.210938 26.726562 2.335938 27.78125 2 29.34375 C 1.980469 29.726562 1.996094 33.074219 2 36.34375 C 2 36.414062 2 36.429688 2 36.5 C 2.003906 39.839844 2 43.09375 2 43.09375 C 2 44.691406 3.308594 46 4.90625 46 L 19.96875 46 C 20.371094 46.078125 20.789062 46.113281 21.21875 46.0625 C 23.558594 45.796875 25.265625 43.683594 25 41.34375 C 24.84375 39.949219 24.007812 38.808594 22.875 38.15625 C 22.910156 34.054688 22.933594 29.195312 22.65625 28.46875 C 22.242188 27.382812 21.203125 26.625 19.96875 26.625 C 19.042969 26.625 11.96875 26.578125 7.78125 26.59375 Z M 5.90625 28.875 L 18.90625 28.875 C 19.835938 28.875 20.59375 29.601562 20.59375 30.53125 L 20.59375 42.09375 C 20.59375 43.023438 19.835938 43.75 18.90625 43.75 L 5.90625 43.75 C 4.976562 43.75 4.21875 43.023438 4.21875 42.09375 L 4.21875 30.53125 C 4.21875 29.601562 4.976562 28.875 5.90625 28.875 Z M 6.46875 31.09375 L 6.46875 41.53125 L 18.375 41.53125 L 18.375 31.09375 Z M 38.125 31.46875 C 36.550781 31.648438 35.449219 33.082031 35.625 34.65625 C 35.800781 36.230469 37.207031 37.367188 38.78125 37.1875 C 40.355469 37.007812 41.492188 35.574219 41.3125 34 C 41.132812 32.425781 39.699219 31.289062 38.125 31.46875 Z M 31 37.1875 C 30.765625 37.164062 30.554688 37.191406 30.3125 37.21875 C 28.378906 37.4375 26.96875 39.160156 27.1875 41.09375 C 27.40625 43.027344 29.160156 44.4375 31.09375 44.21875 C 33.027344 44 34.40625 42.246094 34.1875 40.3125 C 33.996094 38.621094 32.632812 37.335938 31 37.1875 Z M 31 37.1875 "/>
</g>
</svg>
