<?xml version="1.0" encoding="UTF-8"?>
<svg xmlns="http://www.w3.org/2000/svg" xmlns:xlink="http://www.w3.org/1999/xlink" width="48" height="48" viewBox="0 0 48 48" version="1.1">
<g id="surface1">
<path style=" stroke:none;fill-rule:nonzero;fill:rgb(100%,100%,100%);fill-opacity:1;" d="M 30.90625 2 C 29.511719 2.003906 28.421875 2.007812 28 2.03125 C 26.304688 2.132812 25.460938 3.1875 25.125 4.75 C 25.082031 5.535156 25.125 18.5 25.125 18.5 C 25.125 20.097656 26.402344 21.40625 28 21.40625 L 43.09375 21.40625 C 44.691406 21.40625 45.96875 20.097656 45.96875 18.5 C 45.96875 16.902344 46.164062 4.960938 45.75 3.875 C 45.335938 2.789062 44.332031 2.03125 43.09375 2.03125 C 42.167969 2.03125 35.09375 1.984375 30.90625 2 Z M 21.96875 3.46875 C 21.234375 3.507812 20.53125 3.816406 20 4.40625 C 18.941406 5.585938 19.042969 7.410156 20.21875 8.46875 C 21.398438 9.527344 23.191406 9.429688 24.25 8.25 C 25.308594 7.074219 25.207031 5.246094 24.03125 4.1875 C 23.441406 3.65625 22.703125 3.429688 21.96875 3.46875 Z M 29.03125 4.28125 L 42.03125 4.28125 C 42.960938 4.28125 43.71875 5.007812 43.71875 5.9375 L 43.71875 17.5 C 43.71875 18.429688 42.960938 19.15625 42.03125 19.15625 L 29.03125 19.15625 C 28.101562 19.15625 27.34375 18.429688 27.34375 17.5 L 27.34375 5.9375 C 27.34375 5.007812 28.101562 4.28125 29.03125 4.28125 Z M 12.78125 8.34375 C 12.261719 8.371094 11.75 8.582031 11.375 9 C 10.625 9.835938 10.695312 11.125 11.53125 11.875 C 12.367188 12.625 13.65625 12.554688 14.40625 11.71875 C 15.15625 10.882812 15.085938 9.59375 14.25 8.84375 C 13.832031 8.46875 13.300781 8.316406 12.78125 8.34375 Z M 7.09375 17.1875 C 6.816406 17.222656 6.535156 17.332031 6.3125 17.53125 C 5.714844 18.0625 5.65625 18.96875 6.1875 19.5625 C 6.71875 20.160156 7.625 20.21875 8.21875 19.6875 C 8.816406 19.15625 8.875 18.25 8.34375 17.65625 C 8.011719 17.285156 7.554688 17.125 7.09375 17.1875 Z M 7.78125 26.59375 C 6.386719 26.597656 5.328125 26.601562 4.90625 26.625 C 3.210938 26.726562 2.335938 27.78125 2 29.34375 C 1.957031 30.128906 2 43.09375 2 43.09375 C 2 44.691406 3.308594 46 4.90625 46 L 19.96875 46 C 21.566406 46 22.84375 44.691406 22.84375 43.09375 C 22.84375 41.496094 23.070312 29.554688 22.65625 28.46875 C 22.242188 27.382812 21.203125 26.625 19.96875 26.625 C 19.042969 26.625 11.96875 26.578125 7.78125 26.59375 Z M 5.90625 28.875 L 18.90625 28.875 C 19.835938 28.875 20.59375 29.601562 20.59375 30.53125 L 20.59375 42.09375 C 20.59375 43.023438 19.835938 43.75 18.90625 43.75 L 5.90625 43.75 C 4.976562 43.75 4.21875 43.023438 4.21875 42.09375 L 4.21875 30.53125 C 4.21875 29.601562 4.976562 28.875 5.90625 28.875 Z M 6.46875 31.09375 L 6.46875 41.53125 L 18.375 41.53125 L 18.375 31.09375 Z M 6.46875 31.09375 "/>
</g>
</svg>
