<?xml version="1.0" encoding="UTF-8"?>
<svg xmlns="http://www.w3.org/2000/svg" xmlns:xlink="http://www.w3.org/1999/xlink" width="48" height="48" viewBox="0 0 48 48" version="1.1">
<g id="surface1">
<path style=" stroke:none;fill-rule:nonzero;fill:rgb(100%,100%,100%);fill-opacity:1;" d="M 30.90625 2 C 29.511719 2.003906 28.421875 2.007812 28 2.03125 C 26.304688 2.132812 25.460938 3.1875 25.125 4.75 C 25.082031 5.535156 25.125 18.5 25.125 18.5 C 25.125 20.097656 26.402344 21.40625 28 21.40625 L 39.375 21.40625 C 38.15625 22.429688 37.566406 24.070312 38 25.71875 C 38.597656 27.996094 40.910156 29.378906 43.1875 28.78125 C 45.464844 28.183594 46.816406 25.839844 46.21875 23.5625 C 45.9375 22.492188 45.265625 21.644531 44.40625 21.09375 C 45.339844 20.613281 45.96875 19.625 45.96875 18.5 C 45.96875 16.902344 46.164062 4.960938 45.75 3.875 C 45.335938 2.789062 44.332031 2.03125 43.09375 2.03125 C 42.167969 2.03125 35.09375 1.984375 30.90625 2 Z M 29.03125 4.28125 L 42.03125 4.28125 C 42.960938 4.28125 43.71875 5.007812 43.71875 5.9375 L 43.71875 17.5 C 43.71875 18.429688 42.960938 19.15625 42.03125 19.15625 L 29.03125 19.15625 C 28.101562 19.15625 27.34375 18.429688 27.34375 17.5 L 27.34375 5.9375 C 27.34375 5.007812 28.101562 4.28125 29.03125 4.28125 Z M 22.09375 4.46875 C 21.960938 4.476562 21.824219 4.496094 21.6875 4.53125 C 20.601562 4.816406 19.964844 5.914062 20.25 7 C 20.535156 8.085938 21.632812 8.753906 22.71875 8.46875 C 23.804688 8.183594 24.472656 7.054688 24.1875 5.96875 C 23.9375 5.019531 23.039062 4.417969 22.09375 4.46875 Z M 12.78125 8.875 C 11.992188 8.988281 11.449219 9.742188 11.5625 10.53125 C 11.679688 11.320312 12.398438 11.867188 13.1875 11.75 C 13.976562 11.636719 14.519531 10.882812 14.40625 10.09375 C 14.289062 9.304688 13.570312 8.761719 12.78125 8.875 Z M 7.78125 26.59375 C 6.386719 26.597656 5.328125 26.601562 4.90625 26.625 C 3.210938 26.726562 2.335938 27.78125 2 29.34375 C 1.957031 30.128906 2 43.09375 2 43.09375 C 2 44.691406 3.308594 46 4.90625 46 L 19.96875 46 C 21.566406 46 22.84375 44.691406 22.84375 43.09375 C 22.84375 41.496094 23.070312 29.554688 22.65625 28.46875 C 22.242188 27.382812 21.203125 26.625 19.96875 26.625 C 19.042969 26.625 11.96875 26.578125 7.78125 26.59375 Z M 5.90625 28.875 L 18.90625 28.875 C 19.835938 28.875 20.59375 29.601562 20.59375 30.53125 L 20.59375 42.09375 C 20.59375 43.023438 19.835938 43.75 18.90625 43.75 L 5.90625 43.75 C 4.976562 43.75 4.21875 43.023438 4.21875 42.09375 L 4.21875 30.53125 C 4.21875 29.601562 4.976562 28.875 5.90625 28.875 Z M 5.90625 28.875 "/>
</g>
</svg>
