<?xml version="1.0" encoding="UTF-8"?>
<svg xmlns="http://www.w3.org/2000/svg" xmlns:xlink="http://www.w3.org/1999/xlink" width="48" height="48" viewBox="0 0 48 48" version="1.1">
<g id="surface1">
<path style=" stroke:none;fill-rule:nonzero;fill:rgb(100%,100%,100%);fill-opacity:1;" d="M 16.246094 8.878906 C 11.679688 8.878906 8.414062 11.613281 8.414062 16.082031 L 8.414062 20.007812 L 7.109375 20.007812 C 5.804688 20.007812 5.152344 20.664062 5.152344 21.972656 L 5.152344 33.105469 C 5.152344 33.746094 5.804688 35.070312 7.109375 35.070312 L 26.289062 35.070312 C 27.339844 35.0625 27.996094 33.746094 27.996094 33.105469 L 27.996094 21.972656 C 27.996094 20.664062 27.339844 20.003906 26.035156 20.003906 L 24.730469 20.007812 L 24.730469 16.082031 C 24.730469 11.496094 21.46875 8.878906 16.898438 8.878906 Z M 16.246094 12.152344 L 16.898438 12.152344 C 21.46875 12.152344 21.46875 16.082031 21.46875 17.390625 L 21.46875 20.007812 L 11.679688 20.007812 L 11.679688 17.390625 C 11.679688 16.082031 11.679688 12.152344 16.246094 12.152344 Z M 16.246094 12.152344 "/>
</g>
</svg>
