<?xml version="1.0" encoding="UTF-8"?>
<svg xmlns="http://www.w3.org/2000/svg" xmlns:xlink="http://www.w3.org/1999/xlink" width="48" height="48" viewBox="0 0 48 48" version="1.1">
<g id="surface1">
<path style=" stroke:none;fill-rule:nonzero;fill:rgb(100%,100%,100%);fill-opacity:1;" d="M 16.25 8.875 C 11.683594 8.875 8.40625 11.625 8.40625 16.09375 L 8.40625 20 L 7.125 20 C 5.820312 20 5.15625 20.660156 5.15625 21.96875 L 5.15625 33.09375 C 5.15625 33.734375 5.820312 35.0625 7.125 35.0625 L 26.28125 35.0625 C 27.335938 35.054688 28 33.734375 28 33.09375 L 28 21.96875 C 28 20.660156 27.335938 20 26.03125 20 L 24.71875 20 L 24.71875 16.09375 C 24.71875 11.511719 21.476562 8.875 16.90625 8.875 Z M 35.21875 9.25 C 34.320312 9.351562 33.648438 10.160156 33.75 11.0625 C 33.851562 11.964844 34.664062 12.601562 35.5625 12.5 C 36.460938 12.398438 37.132812 11.589844 37.03125 10.6875 C 36.929688 9.785156 36.117188 9.148438 35.21875 9.25 Z M 16.25 12.15625 L 16.90625 12.15625 C 21.476562 12.15625 21.46875 16.066406 21.46875 17.375 L 21.46875 20 L 11.6875 20 L 11.6875 17.375 C 11.6875 16.066406 11.683594 12.15625 16.25 12.15625 Z M 40.125 16.3125 C 38.867188 16.453125 37.984375 17.617188 38.125 18.875 C 38.265625 20.132812 39.398438 21.015625 40.65625 20.875 C 41.914062 20.734375 42.828125 19.601562 42.6875 18.34375 C 42.546875 17.085938 41.382812 16.171875 40.125 16.3125 Z M 39.5625 26.28125 C 37.898438 26.46875 36.6875 27.992188 36.875 29.65625 C 37.0625 31.320312 38.585938 32.5 40.25 32.3125 C 41.914062 32.125 43.09375 30.632812 42.90625 28.96875 C 42.71875 27.304688 41.226562 26.09375 39.5625 26.28125 Z M 33.84375 35.84375 C 31.757812 35.84375 30.09375 37.539062 30.09375 39.625 C 30.09375 41.710938 31.757812 43.40625 33.84375 43.40625 C 35.929688 43.40625 37.625 41.710938 37.625 39.625 C 37.625 37.539062 35.929688 35.84375 33.84375 35.84375 Z M 21.78125 37.59375 C 19.183594 37.886719 17.300781 40.246094 17.59375 42.84375 C 17.886719 45.441406 20.246094 47.292969 22.84375 47 C 25.441406 46.707031 27.292969 44.378906 27 41.78125 C 26.707031 39.183594 24.378906 37.300781 21.78125 37.59375 Z M 21.78125 37.59375 "/>
</g>
</svg>
