<?xml version="1.0" encoding="UTF-8"?>
<svg xmlns="http://www.w3.org/2000/svg" xmlns:xlink="http://www.w3.org/1999/xlink" width="48" height="48" viewBox="0 0 48 48" version="1.1">
<g id="surface1">
<path style=" stroke:none;fill-rule:nonzero;fill:rgb(100%,100%,100%);fill-opacity:1;" d="M 16.25 8.875 C 11.683594 8.875 8.40625 11.625 8.40625 16.09375 L 8.40625 20 L 7.125 20 C 5.820312 20 5.15625 20.660156 5.15625 21.96875 L 5.15625 33.09375 C 5.15625 33.734375 5.820312 35.0625 7.125 35.0625 L 7.6875 35.0625 C 8.195312 37.859375 10.792969 39.824219 13.65625 39.5 C 16.09375 39.222656 17.980469 37.355469 18.40625 35.0625 L 26.28125 35.0625 C 27.335938 35.054688 28 33.734375 28 33.09375 L 28 21.96875 C 28 20.660156 27.335938 20 26.03125 20 L 24.71875 20 L 24.71875 16.09375 C 24.71875 11.511719 21.476562 8.875 16.90625 8.875 Z M 16.25 12.15625 L 16.90625 12.15625 C 21.476562 12.15625 21.46875 16.066406 21.46875 17.375 L 21.46875 20 L 11.6875 20 L 11.6875 17.375 C 11.6875 16.066406 11.683594 12.15625 16.25 12.15625 Z M 40.21875 17.1875 C 39.433594 17.277344 38.878906 17.992188 38.96875 18.78125 C 39.058594 19.570312 39.773438 20.121094 40.5625 20.03125 C 41.351562 19.941406 41.902344 19.226562 41.8125 18.4375 C 41.722656 17.648438 41.003906 17.097656 40.21875 17.1875 Z M 39.625 26.90625 C 38.296875 27.054688 37.351562 28.234375 37.5 29.5625 C 37.648438 30.890625 38.859375 31.867188 40.1875 31.71875 C 41.515625 31.570312 42.460938 30.359375 42.3125 29.03125 C 42.164062 27.703125 40.953125 26.757812 39.625 26.90625 Z M 33.84375 36.5625 C 32.164062 36.5625 30.8125 37.945312 30.8125 39.625 C 30.8125 41.304688 32.164062 42.65625 33.84375 42.65625 C 35.523438 42.65625 36.90625 41.304688 36.90625 39.625 C 36.90625 37.945312 35.523438 36.5625 33.84375 36.5625 Z M 22.6875 38.1875 C 22.414062 38.164062 22.125 38.1875 21.84375 38.21875 C 19.582031 38.472656 17.964844 40.488281 18.21875 42.75 C 18.472656 45.011719 20.488281 46.660156 22.75 46.40625 C 25.011719 46.152344 26.660156 44.105469 26.40625 41.84375 C 26.183594 39.863281 24.597656 38.359375 22.6875 38.1875 Z M 22.6875 38.1875 "/>
</g>
</svg>
