<?xml version="1.0" encoding="UTF-8"?>
<svg xmlns="http://www.w3.org/2000/svg" xmlns:xlink="http://www.w3.org/1999/xlink" width="48" height="48" viewBox="0 0 48 48" version="1.1">
<g id="surface1">
<path style=" stroke:none;fill-rule:nonzero;fill:rgb(100%,100%,100%);fill-opacity:1;" d="M 27.84375 5.40625 C 26.726562 5.53125 25.9375 6.539062 26.0625 7.65625 C 26.1875 8.773438 27.195312 9.59375 28.3125 9.46875 C 29.429688 9.34375 30.21875 8.335938 30.09375 7.21875 C 29.96875 6.101562 28.960938 5.28125 27.84375 5.40625 Z M 21.8125 6.75 C 21.015625 6.75 20.375 7.390625 20.375 8.1875 C 20.375 8.984375 21.015625 9.625 21.8125 9.625 C 22.609375 9.625 23.28125 8.984375 23.28125 8.1875 C 23.28125 7.390625 22.609375 6.75 21.8125 6.75 Z M 35.0625 8.03125 C 33.488281 8.210938 32.355469 9.613281 32.53125 11.1875 C 32.707031 12.761719 34.144531 13.898438 35.71875 13.71875 C 37.292969 13.539062 38.425781 12.136719 38.25 10.5625 C 38.074219 8.988281 36.636719 7.851562 35.0625 8.03125 Z M 16.25 8.875 C 11.683594 8.875 8.40625 11.625 8.40625 16.09375 L 8.40625 20 L 7.125 20 C 5.820312 20 5.15625 20.660156 5.15625 21.96875 L 5.15625 33.09375 C 5.15625 33.734375 5.820312 35.0625 7.125 35.0625 L 26.28125 35.0625 C 27.335938 35.054688 28 33.734375 28 33.09375 L 28 21.96875 C 28 20.660156 27.335938 20 26.03125 20 L 24.71875 20 L 24.71875 16.09375 C 24.71875 11.511719 21.476562 8.875 16.90625 8.875 Z M 16.25 12.15625 L 16.90625 12.15625 C 21.476562 12.15625 21.46875 16.066406 21.46875 17.375 L 21.46875 20 L 11.6875 20 L 11.6875 17.375 C 11.6875 16.066406 11.683594 12.15625 16.25 12.15625 Z M 40 15.09375 C 38.066406 15.3125 36.6875 17.066406 36.90625 19 C 37.125 20.933594 38.847656 22.3125 40.78125 22.09375 C 42.714844 21.875 44.125 20.152344 43.90625 18.21875 C 43.6875 16.285156 41.933594 14.875 40 15.09375 Z M 39.4375 25.0625 C 37.097656 25.324219 35.390625 27.441406 35.65625 29.78125 C 35.917969 32.121094 38.035156 33.796875 40.375 33.53125 C 42.714844 33.269531 44.390625 31.152344 44.125 28.8125 C 43.863281 26.472656 41.777344 24.796875 39.4375 25.0625 Z M 39.4375 25.0625 "/>
</g>
</svg>
