<?xml version="1.0" encoding="UTF-8"?>
<svg xmlns="http://www.w3.org/2000/svg" xmlns:xlink="http://www.w3.org/1999/xlink" width="48" height="48" viewBox="0 0 48 48" version="1.1">
<g id="surface1">
<path style=" stroke:none;fill-rule:nonzero;fill:rgb(100%,100%,100%);fill-opacity:1;" d="M 16.25 8.875 C 11.683594 8.875 8.40625 11.625 8.40625 16.09375 L 8.40625 20 L 7.125 20 C 5.820312 20 5.15625 20.660156 5.15625 21.96875 L 5.15625 33.09375 C 5.15625 33.734375 5.820312 35.0625 7.125 35.0625 L 8.84375 35.0625 C 9.335938 37.179688 11.320312 38.65625 13.53125 38.40625 C 15.40625 38.195312 16.84375 36.800781 17.25 35.0625 L 26.28125 35.0625 C 27.335938 35.054688 28 33.734375 28 33.09375 L 28 21.96875 C 28 20.660156 27.335938 20 26.03125 20 L 24.71875 20 L 24.71875 16.09375 C 24.71875 11.511719 21.476562 8.875 16.90625 8.875 Z M 16.25 12.15625 L 16.90625 12.15625 C 21.476562 12.15625 21.46875 16.066406 21.46875 17.375 L 21.46875 20 L 11.6875 20 L 11.6875 17.375 C 11.6875 16.066406 11.683594 12.15625 16.25 12.15625 Z M 39.75 27.875 C 38.960938 27.964844 38.378906 28.679688 38.46875 29.46875 C 38.558594 30.257812 39.273438 30.839844 40.0625 30.75 C 40.851562 30.660156 41.433594 29.945312 41.34375 29.15625 C 41.253906 28.367188 40.539062 27.785156 39.75 27.875 Z M 33.84375 37.4375 C 32.640625 37.4375 31.6875 38.421875 31.6875 39.625 C 31.6875 40.828125 32.640625 41.8125 33.84375 41.8125 C 35.046875 41.8125 36.03125 40.828125 36.03125 39.625 C 36.03125 38.421875 35.046875 37.4375 33.84375 37.4375 Z M 22.5625 39.28125 C 22.363281 39.265625 22.175781 39.289062 21.96875 39.3125 C 20.3125 39.5 19.125 40.96875 19.3125 42.625 C 19.5 44.28125 20.96875 45.46875 22.625 45.28125 C 24.28125 45.09375 25.5 43.625 25.3125 41.96875 C 25.148438 40.519531 23.960938 39.40625 22.5625 39.28125 Z M 22.5625 39.28125 "/>
</g>
</svg>
