<?xml version="1.0" encoding="UTF-8"?>
<svg xmlns="http://www.w3.org/2000/svg" xmlns:xlink="http://www.w3.org/1999/xlink" width="48" height="48" viewBox="0 0 48 48" version="1.1">
<g id="surface1">
<path style=" stroke:none;fill-rule:nonzero;fill:rgb(100%,100%,100%);fill-opacity:1;" d="M 27.8125 5.15625 C 26.5625 5.296875 25.671875 6.4375 25.8125 7.6875 C 25.953125 8.9375 27.0625 9.828125 28.3125 9.6875 C 29.5625 9.546875 30.484375 8.4375 30.34375 7.1875 C 30.203125 5.9375 29.0625 5.015625 27.8125 5.15625 Z M 21.8125 6.75 C 21.015625 6.75 20.375 7.390625 20.375 8.1875 C 20.375 8.984375 21.015625 9.625 21.8125 9.625 C 22.609375 9.625 23.28125 8.984375 23.28125 8.1875 C 23.28125 7.390625 22.609375 6.75 21.8125 6.75 Z M 35 7.40625 C 33.089844 7.621094 31.722656 9.371094 31.9375 11.28125 C 32.152344 13.191406 33.871094 14.558594 35.78125 14.34375 C 37.691406 14.128906 39.058594 12.410156 38.84375 10.5 C 38.628906 8.589844 36.910156 7.191406 35 7.40625 Z M 16.25 8.875 C 11.683594 8.875 8.40625 11.625 8.40625 16.09375 L 8.40625 20 L 7.125 20 C 5.820312 20 5.15625 20.660156 5.15625 21.96875 L 5.15625 33.09375 C 5.15625 33.734375 5.820312 35.0625 7.125 35.0625 L 26.28125 35.0625 C 27.335938 35.054688 28 33.734375 28 33.09375 L 28 21.96875 C 28 20.660156 27.335938 20 26.03125 20 L 24.71875 20 L 24.71875 16.09375 C 24.71875 11.511719 21.476562 8.875 16.90625 8.875 Z M 16.25 12.15625 L 16.90625 12.15625 C 21.476562 12.15625 21.46875 16.066406 21.46875 17.375 L 21.46875 20 L 11.6875 20 L 11.6875 17.375 C 11.6875 16.066406 11.683594 12.15625 16.25 12.15625 Z M 39.90625 14.375 C 37.570312 14.636719 35.894531 16.757812 36.15625 19.09375 C 36.421875 21.429688 38.539062 23.109375 40.875 22.84375 C 43.210938 22.582031 44.890625 20.460938 44.625 18.125 C 44.359375 15.789062 42.242188 14.109375 39.90625 14.375 Z M 39.90625 14.375 "/>
</g>
</svg>
