<?xml version="1.0" encoding="UTF-8"?>
<svg xmlns="http://www.w3.org/2000/svg" xmlns:xlink="http://www.w3.org/1999/xlink" width="32" height="32" viewBox="0 0 32 32" version="1.1">
<g id="surface1">
<path style=" stroke:none;fill-rule:nonzero;fill:rgb(100%,100%,100%);fill-opacity:1;" d="M 20.605469 1.332031 C 19.671875 1.335938 18.949219 1.335938 18.667969 1.355469 C 17.535156 1.421875 16.972656 2.125 16.75 3.167969 C 16.722656 3.691406 16.75 12.332031 16.75 12.332031 C 16.75 13.398438 17.601562 14.269531 18.667969 14.269531 L 28.730469 14.269531 C 29.792969 14.269531 30.644531 13.398438 30.644531 12.332031 C 30.644531 11.265625 30.773438 3.304688 30.5 2.582031 C 30.222656 1.859375 29.554688 1.355469 28.730469 1.355469 C 28.109375 1.355469 23.394531 1.324219 20.605469 1.332031 Z M 19.355469 2.855469 L 28.019531 2.855469 C 28.640625 2.855469 29.144531 3.339844 29.144531 3.957031 L 29.144531 11.667969 C 29.144531 12.285156 28.640625 12.769531 28.019531 12.769531 L 19.355469 12.769531 C 18.734375 12.769531 18.230469 12.285156 18.230469 11.667969 L 18.230469 3.957031 C 18.230469 3.339844 18.734375 2.855469 19.355469 2.855469 Z M 19.730469 4.332031 L 19.730469 11.292969 L 27.644531 11.292969 L 27.644531 4.332031 Z M 27.6875 15.292969 C 27.378906 15.304688 27.070312 15.46875 26.894531 15.75 C 26.617188 16.203125 26.757812 16.804688 27.207031 17.082031 C 27.660156 17.363281 28.261719 17.222656 28.542969 16.769531 C 28.820312 16.320312 28.679688 15.71875 28.230469 15.4375 C 28.058594 15.332031 27.871094 15.285156 27.6875 15.292969 Z M 5.1875 17.730469 C 4.257812 17.730469 3.554688 17.734375 3.269531 17.75 C 2.140625 17.816406 1.554688 18.523438 1.332031 19.5625 C 1.304688 20.085938 1.332031 28.730469 1.332031 28.730469 C 1.332031 29.792969 2.203125 30.667969 3.269531 30.667969 L 13.3125 30.667969 C 13.894531 30.667969 14.398438 30.40625 14.75 30 C 15.296875 29.789062 15.769531 29.382812 16.042969 28.8125 C 16.542969 27.757812 16.179688 26.539062 15.25 25.894531 C 15.277344 23.144531 15.300781 19.496094 15.105469 18.980469 C 14.828125 18.253906 14.136719 17.75 13.3125 17.75 C 12.695312 17.75 7.976562 17.71875 5.1875 17.730469 Z M 3.9375 19.25 L 12.605469 19.25 C 13.222656 19.25 13.730469 19.734375 13.730469 20.355469 L 13.730469 28.0625 C 13.730469 28.679688 13.222656 29.167969 12.605469 29.167969 L 3.9375 29.167969 C 3.320312 29.167969 2.8125 28.679688 2.8125 28.0625 L 2.8125 20.355469 C 2.8125 19.734375 3.320312 19.25 3.9375 19.25 Z M 4.3125 20.730469 L 4.3125 27.6875 L 12.25 27.6875 L 12.25 20.730469 Z M 25.75 21.25 C 25.222656 21.226562 24.699219 21.511719 24.457031 22.019531 C 24.136719 22.695312 24.429688 23.511719 25.105469 23.832031 C 25.78125 24.152344 26.59375 23.863281 26.917969 23.1875 C 27.238281 22.511719 26.945312 21.695312 26.269531 21.375 C 26.101562 21.292969 25.925781 21.257812 25.75 21.25 Z M 20.375 25.019531 C 19.730469 25.085938 19.128906 25.476562 18.832031 26.105469 C 18.378906 27.058594 18.773438 28.214844 19.730469 28.667969 C 20.683594 29.121094 21.839844 28.703125 22.292969 27.75 C 22.746094 26.796875 22.328125 25.660156 21.375 25.207031 C 21.136719 25.09375 20.894531 25.03125 20.644531 25.019531 C 20.554688 25.015625 20.464844 25.011719 20.375 25.019531 Z M 20.375 25.019531 "/>
</g>
</svg>
