<?xml version="1.0" encoding="UTF-8"?>
<svg xmlns="http://www.w3.org/2000/svg" xmlns:xlink="http://www.w3.org/1999/xlink" width="32" height="32" viewBox="0 0 32 32" version="1.1">
<g id="surface1">
<path style=" stroke:none;fill-rule:nonzero;fill:rgb(100%,100%,100%);fill-opacity:1;" d="M 20.605469 1.332031 C 19.671875 1.335938 18.949219 1.335938 18.667969 1.355469 C 17.609375 1.417969 17.0625 2.046875 16.8125 2.980469 C 16.480469 2.351562 15.875 1.875 15.125 1.75 C 14.964844 1.722656 14.800781 1.722656 14.644531 1.730469 C 13.554688 1.769531 12.601562 2.570312 12.417969 3.6875 C 12.203125 4.96875 13.074219 6.164062 14.355469 6.375 C 15.328125 6.535156 16.265625 6.085938 16.75 5.292969 C 16.742188 7.863281 16.75 12.332031 16.75 12.332031 C 16.75 13.398438 17.601562 14.269531 18.667969 14.269531 L 28.730469 14.269531 C 29.792969 14.269531 30.644531 13.398438 30.644531 12.332031 C 30.644531 11.265625 30.773438 3.304688 30.5 2.582031 C 30.222656 1.859375 29.554688 1.355469 28.730469 1.355469 C 28.109375 1.355469 23.394531 1.324219 20.605469 1.332031 Z M 19.355469 2.855469 L 28.019531 2.855469 C 28.640625 2.855469 29.144531 3.339844 29.144531 3.957031 L 29.144531 11.667969 C 29.144531 12.285156 28.640625 12.769531 28.019531 12.769531 L 19.355469 12.769531 C 18.734375 12.769531 18.230469 12.285156 18.230469 11.667969 L 18.230469 3.957031 C 18.230469 3.339844 18.734375 2.855469 19.355469 2.855469 Z M 8.519531 4.832031 C 7.632812 4.867188 6.859375 5.527344 6.707031 6.4375 C 6.535156 7.480469 7.25 8.453125 8.292969 8.625 C 9.332031 8.796875 10.308594 8.105469 10.480469 7.0625 C 10.652344 6.019531 9.957031 5.027344 8.917969 4.855469 C 8.785156 4.832031 8.648438 4.828125 8.519531 4.832031 Z M 4.8125 10.980469 C 4.183594 11.003906 3.628906 11.457031 3.519531 12.105469 C 3.398438 12.84375 3.90625 13.542969 4.644531 13.667969 C 5.382812 13.789062 6.085938 13.28125 6.207031 12.542969 C 6.332031 11.800781 5.820312 11.121094 5.082031 11 C 4.992188 10.984375 4.902344 10.976562 4.8125 10.980469 Z M 5.1875 17.730469 C 4.257812 17.730469 3.554688 17.734375 3.269531 17.75 C 2.140625 17.816406 1.554688 18.523438 1.332031 19.5625 C 1.320312 19.816406 1.328125 22.050781 1.332031 24.230469 C 1.332031 24.277344 1.332031 24.285156 1.332031 24.332031 C 1.335938 26.558594 1.332031 28.730469 1.332031 28.730469 C 1.332031 29.792969 2.203125 30.667969 3.269531 30.667969 L 13.3125 30.667969 C 14.378906 30.667969 15.230469 29.792969 15.230469 28.730469 C 15.230469 27.664062 15.378906 19.703125 15.105469 18.980469 C 14.828125 18.253906 14.136719 17.75 13.3125 17.75 C 12.695312 17.75 7.976562 17.71875 5.1875 17.730469 Z M 3.9375 19.25 L 12.605469 19.25 C 13.222656 19.25 13.730469 19.734375 13.730469 20.355469 L 13.730469 28.0625 C 13.730469 28.679688 13.222656 29.167969 12.605469 29.167969 L 3.9375 29.167969 C 3.320312 29.167969 2.8125 28.679688 2.8125 28.0625 L 2.8125 20.355469 C 2.8125 19.734375 3.320312 19.25 3.9375 19.25 Z M 3.9375 19.25 "/>
</g>
</svg>
