<?xml version="1.0" encoding="UTF-8"?>
<svg xmlns="http://www.w3.org/2000/svg" xmlns:xlink="http://www.w3.org/1999/xlink" width="32" height="32" viewBox="0 0 32 32" version="1.1">
<g id="surface1">
<path style=" stroke:none;fill-rule:nonzero;fill:rgb(100%,100%,100%);fill-opacity:1;" d="M 20.605469 1.332031 C 19.671875 1.335938 18.949219 1.335938 18.667969 1.355469 C 17.535156 1.421875 16.972656 2.125 16.75 3.167969 C 16.722656 3.691406 16.75 12.332031 16.75 12.332031 C 16.75 13.398438 17.601562 14.269531 18.667969 14.269531 L 28.730469 14.269531 C 29.792969 14.269531 30.644531 13.398438 30.644531 12.332031 C 30.644531 11.265625 30.773438 3.304688 30.5 2.582031 C 30.222656 1.859375 29.554688 1.355469 28.730469 1.355469 C 28.109375 1.355469 23.394531 1.324219 20.605469 1.332031 Z M 19.355469 2.855469 L 28.019531 2.855469 C 28.640625 2.855469 29.144531 3.339844 29.144531 3.957031 L 29.144531 11.667969 C 29.144531 12.285156 28.640625 12.769531 28.019531 12.769531 L 19.355469 12.769531 C 18.734375 12.769531 18.230469 12.285156 18.230469 11.667969 L 18.230469 3.957031 C 18.230469 3.339844 18.734375 2.855469 19.355469 2.855469 Z M 4.417969 9.707031 C 2.847656 9.714844 1.578125 10.992188 1.582031 12.5625 C 1.589844 14.132812 2.867188 15.402344 4.4375 15.394531 C 6.007812 15.390625 7.277344 14.109375 7.269531 12.542969 C 7.265625 10.972656 5.988281 9.703125 4.417969 9.707031 Z M 4.4375 16.875 C 3.625 16.878906 2.917969 17.289062 2.5 17.917969 C 2.496094 17.921875 2.503906 17.933594 2.5 17.9375 C 1.867188 18.21875 1.496094 18.792969 1.332031 19.5625 C 1.320312 19.816406 1.328125 22.050781 1.332031 24.230469 C 1.332031 24.277344 1.332031 24.285156 1.332031 24.332031 C 1.335938 26.558594 1.332031 28.730469 1.332031 28.730469 C 1.332031 29.792969 2.203125 30.667969 3.269531 30.667969 L 13.3125 30.667969 C 14.378906 30.667969 15.230469 29.792969 15.230469 28.730469 C 15.230469 28.703125 15.230469 28.53125 15.230469 28.5 C 15.449219 28.253906 15.585938 27.933594 15.582031 27.582031 C 15.582031 27.246094 15.453125 26.945312 15.25 26.707031 C 15.28125 24.09375 15.324219 19.554688 15.105469 18.980469 C 14.828125 18.253906 14.136719 17.75 13.3125 17.75 C 12.773438 17.75 9.007812 17.726562 6.230469 17.730469 C 5.800781 17.210938 5.160156 16.871094 4.4375 16.875 Z M 3.9375 19.25 L 12.605469 19.25 C 13.222656 19.25 13.730469 19.734375 13.730469 20.355469 L 13.730469 28.0625 C 13.730469 28.679688 13.222656 29.167969 12.605469 29.167969 L 3.9375 29.167969 C 3.320312 29.167969 2.8125 28.679688 2.8125 28.0625 L 2.8125 20.355469 C 2.8125 19.734375 3.320312 19.25 3.9375 19.25 Z M 4.3125 20.730469 L 4.3125 27.6875 L 12.25 27.6875 L 12.25 20.730469 Z M 20.730469 25.707031 C 20.28125 25.75 19.925781 26.097656 19.875 26.5625 C 19.816406 27.089844 20.199219 27.566406 20.730469 27.625 C 21.257812 27.683594 21.710938 27.320312 21.769531 26.792969 C 21.828125 26.261719 21.464844 25.785156 20.9375 25.730469 C 20.871094 25.722656 20.792969 25.703125 20.730469 25.707031 Z M 20.730469 25.707031 "/>
</g>
</svg>
