<?xml version="1.0" encoding="UTF-8"?>
<svg xmlns="http://www.w3.org/2000/svg" xmlns:xlink="http://www.w3.org/1999/xlink" width="32" height="32" viewBox="0 0 32 32" version="1.1">
<g id="surface1">
<path style=" stroke:none;fill-rule:nonzero;fill:rgb(100%,100%,100%);fill-opacity:1;" d="M 20.605469 1.332031 C 19.671875 1.335938 18.949219 1.335938 18.667969 1.355469 C 17.535156 1.421875 16.972656 2.125 16.75 3.167969 C 16.722656 3.691406 16.75 12.332031 16.75 12.332031 C 16.75 13.398438 17.601562 14.269531 18.667969 14.269531 L 28.730469 14.269531 C 29.792969 14.269531 30.644531 13.398438 30.644531 12.332031 C 30.644531 11.265625 30.773438 3.304688 30.5 2.582031 C 30.222656 1.859375 29.554688 1.355469 28.730469 1.355469 C 28.109375 1.355469 23.394531 1.324219 20.605469 1.332031 Z M 14.644531 2.3125 C 14.15625 2.339844 13.6875 2.546875 13.332031 2.9375 C 12.625 3.722656 12.695312 4.941406 13.480469 5.644531 C 14.265625 6.351562 15.460938 6.285156 16.167969 5.5 C 16.871094 4.714844 16.804688 3.5 16.019531 2.792969 C 15.628906 2.4375 15.132812 2.285156 14.644531 2.3125 Z M 19.355469 2.855469 L 28.019531 2.855469 C 28.640625 2.855469 29.144531 3.339844 29.144531 3.957031 L 29.144531 11.667969 C 29.144531 12.285156 28.640625 12.769531 28.019531 12.769531 L 19.355469 12.769531 C 18.734375 12.769531 18.230469 12.285156 18.230469 11.667969 L 18.230469 3.957031 C 18.230469 3.339844 18.734375 2.855469 19.355469 2.855469 Z M 8.519531 5.5625 C 8.171875 5.582031 7.835938 5.722656 7.582031 6 C 7.082031 6.558594 7.132812 7.414062 7.6875 7.917969 C 8.242188 8.417969 9.101562 8.367188 9.605469 7.8125 C 10.105469 7.257812 10.054688 6.398438 9.5 5.894531 C 9.222656 5.644531 8.867188 5.542969 8.519531 5.5625 Z M 4.730469 11.457031 C 4.546875 11.480469 4.359375 11.554688 4.207031 11.6875 C 3.8125 12.039062 3.773438 12.644531 4.125 13.042969 C 4.476562 13.4375 5.082031 13.476562 5.480469 13.125 C 5.878906 12.769531 5.914062 12.167969 5.5625 11.769531 C 5.34375 11.523438 5.035156 11.417969 4.730469 11.457031 Z M 5.1875 17.730469 C 4.257812 17.730469 3.554688 17.734375 3.269531 17.75 C 2.140625 17.816406 1.554688 18.523438 1.332031 19.5625 C 1.320312 19.816406 1.328125 22.050781 1.332031 24.230469 C 1.332031 24.277344 1.332031 24.285156 1.332031 24.332031 C 1.335938 26.558594 1.332031 28.730469 1.332031 28.730469 C 1.332031 29.792969 2.203125 30.667969 3.269531 30.667969 L 13.3125 30.667969 C 14.378906 30.667969 15.230469 29.792969 15.230469 28.730469 C 15.230469 27.664062 15.378906 19.703125 15.105469 18.980469 C 14.828125 18.253906 14.136719 17.75 13.3125 17.75 C 12.695312 17.75 7.976562 17.71875 5.1875 17.730469 Z M 3.9375 19.25 L 12.605469 19.25 C 13.222656 19.25 13.730469 19.734375 13.730469 20.355469 L 13.730469 28.0625 C 13.730469 28.679688 13.222656 29.167969 12.605469 29.167969 L 3.9375 29.167969 C 3.320312 29.167969 2.8125 28.679688 2.8125 28.0625 L 2.8125 20.355469 C 2.8125 19.734375 3.320312 19.25 3.9375 19.25 Z M 3.9375 19.25 "/>
</g>
</svg>
