<?xml version="1.0" encoding="UTF-8"?>
<svg xmlns="http://www.w3.org/2000/svg" xmlns:xlink="http://www.w3.org/1999/xlink" width="32" height="32" viewBox="0 0 32 32" version="1.1">
<g id="surface1">
<path style=" stroke:none;fill-rule:nonzero;fill:rgb(100%,100%,100%);fill-opacity:1;" d="M 20.605469 1.332031 C 19.671875 1.335938 18.949219 1.335938 18.667969 1.355469 C 17.535156 1.421875 16.972656 2.125 16.75 3.167969 C 16.722656 3.691406 16.75 12.332031 16.75 12.332031 C 16.75 13.398438 17.601562 14.269531 18.667969 14.269531 L 28.730469 14.269531 C 29.792969 14.269531 30.644531 13.398438 30.644531 12.332031 C 30.644531 11.265625 30.773438 3.304688 30.5 2.582031 C 30.222656 1.859375 29.554688 1.355469 28.730469 1.355469 C 28.109375 1.355469 23.394531 1.324219 20.605469 1.332031 Z M 19.355469 2.855469 L 28.019531 2.855469 C 28.640625 2.855469 29.144531 3.339844 29.144531 3.957031 L 29.144531 11.667969 C 29.144531 12.285156 28.640625 12.769531 28.019531 12.769531 L 19.355469 12.769531 C 18.734375 12.769531 18.230469 12.285156 18.230469 11.667969 L 18.230469 3.957031 C 18.230469 3.339844 18.734375 2.855469 19.355469 2.855469 Z M 19.730469 4.332031 L 19.730469 11.292969 L 27.644531 11.292969 L 27.644531 4.332031 Z M 27.5625 15.144531 C 26.816406 15.230469 26.289062 15.902344 26.375 16.644531 C 26.460938 17.390625 27.128906 17.917969 27.875 17.832031 C 28.617188 17.75 29.148438 17.097656 29.0625 16.355469 C 28.976562 15.609375 28.304688 15.0625 27.5625 15.144531 Z M 5.1875 17.730469 C 4.257812 17.730469 3.554688 17.734375 3.269531 17.75 C 2.140625 17.816406 1.554688 18.523438 1.332031 19.5625 C 1.320312 19.816406 1.328125 22.050781 1.332031 24.230469 C 1.332031 24.277344 1.332031 24.285156 1.332031 24.332031 C 1.335938 26.558594 1.332031 28.730469 1.332031 28.730469 C 1.332031 29.792969 2.203125 30.667969 3.269531 30.667969 L 13.3125 30.667969 C 13.582031 30.71875 13.859375 30.742188 14.144531 30.707031 C 15.703125 30.53125 16.84375 29.121094 16.667969 27.5625 C 16.5625 26.632812 16.003906 25.871094 15.25 25.4375 C 15.273438 22.703125 15.289062 19.464844 15.105469 18.980469 C 14.828125 18.253906 14.136719 17.75 13.3125 17.75 C 12.695312 17.75 7.976562 17.71875 5.1875 17.730469 Z M 3.9375 19.25 L 12.605469 19.25 C 13.222656 19.25 13.730469 19.734375 13.730469 20.355469 L 13.730469 28.0625 C 13.730469 28.679688 13.222656 29.167969 12.605469 29.167969 L 3.9375 29.167969 C 3.320312 29.167969 2.8125 28.679688 2.8125 28.0625 L 2.8125 20.355469 C 2.8125 19.734375 3.320312 19.25 3.9375 19.25 Z M 4.3125 20.730469 L 4.3125 27.6875 L 12.25 27.6875 L 12.25 20.730469 Z M 25.417969 20.980469 C 24.367188 21.097656 23.632812 22.054688 23.75 23.105469 C 23.867188 24.152344 24.804688 24.910156 25.855469 24.792969 C 26.902344 24.671875 27.660156 23.714844 27.542969 22.667969 C 27.421875 21.617188 26.464844 20.859375 25.417969 20.980469 Z M 20.667969 24.792969 C 20.511719 24.777344 20.367188 24.792969 20.207031 24.8125 C 18.917969 24.957031 17.980469 26.105469 18.125 27.394531 C 18.269531 28.683594 19.441406 29.625 20.730469 29.480469 C 22.015625 29.335938 22.9375 28.164062 22.792969 26.875 C 22.664062 25.746094 21.753906 24.890625 20.667969 24.792969 Z M 20.667969 24.792969 "/>
</g>
</svg>
