<?xml version="1.0" encoding="UTF-8"?>
<svg xmlns="http://www.w3.org/2000/svg" xmlns:xlink="http://www.w3.org/1999/xlink" width="32" height="32" viewBox="0 0 32 32" version="1.1">
<g id="surface1">
<path style=" stroke:none;fill-rule:nonzero;fill:rgb(100%,100%,100%);fill-opacity:1;" d="M 20.605469 1.332031 C 19.671875 1.335938 18.949219 1.335938 18.667969 1.355469 C 17.535156 1.421875 16.972656 2.125 16.75 3.167969 C 16.722656 3.691406 16.75 12.332031 16.75 12.332031 C 16.75 13.398438 17.601562 14.269531 18.667969 14.269531 L 26.25 14.269531 C 25.4375 14.953125 25.042969 16.046875 25.332031 17.144531 C 25.730469 18.664062 27.273438 19.585938 28.792969 19.1875 C 30.308594 18.789062 31.210938 17.226562 30.8125 15.707031 C 30.625 14.996094 30.175781 14.429688 29.605469 14.0625 C 30.226562 13.742188 30.644531 13.082031 30.644531 12.332031 C 30.644531 11.265625 30.773438 3.304688 30.5 2.582031 C 30.222656 1.859375 29.554688 1.355469 28.730469 1.355469 C 28.109375 1.355469 23.394531 1.324219 20.605469 1.332031 Z M 19.355469 2.855469 L 28.019531 2.855469 C 28.640625 2.855469 29.144531 3.339844 29.144531 3.957031 L 29.144531 11.667969 C 29.144531 12.285156 28.640625 12.769531 28.019531 12.769531 L 19.355469 12.769531 C 18.734375 12.769531 18.230469 12.285156 18.230469 11.667969 L 18.230469 3.957031 C 18.230469 3.339844 18.734375 2.855469 19.355469 2.855469 Z M 14.730469 2.980469 C 14.640625 2.984375 14.546875 2.996094 14.457031 3.019531 C 13.734375 3.210938 13.308594 3.941406 13.5 4.667969 C 13.691406 5.390625 14.421875 5.835938 15.144531 5.644531 C 15.871094 5.457031 16.316406 4.703125 16.125 3.980469 C 15.957031 3.34375 15.359375 2.945312 14.730469 2.980469 Z M 8.519531 5.917969 C 7.996094 5.992188 7.632812 6.496094 7.707031 7.019531 C 7.785156 7.546875 8.265625 7.910156 8.792969 7.832031 C 9.316406 7.757812 9.679688 7.257812 9.605469 6.730469 C 9.527344 6.203125 9.046875 5.839844 8.519531 5.917969 Z M 5.1875 17.730469 C 4.257812 17.730469 3.554688 17.734375 3.269531 17.75 C 2.140625 17.816406 1.554688 18.523438 1.332031 19.5625 C 1.304688 20.085938 1.332031 28.730469 1.332031 28.730469 C 1.332031 29.792969 2.203125 30.667969 3.269531 30.667969 L 13.3125 30.667969 C 14.378906 30.667969 15.230469 29.792969 15.230469 28.730469 C 15.230469 27.664062 15.378906 19.703125 15.105469 18.980469 C 14.828125 18.253906 14.136719 17.75 13.3125 17.75 C 12.695312 17.75 7.976562 17.71875 5.1875 17.730469 Z M 3.9375 19.25 L 12.605469 19.25 C 13.222656 19.25 13.730469 19.734375 13.730469 20.355469 L 13.730469 28.0625 C 13.730469 28.679688 13.222656 29.167969 12.605469 29.167969 L 3.9375 29.167969 C 3.320312 29.167969 2.8125 28.679688 2.8125 28.0625 L 2.8125 20.355469 C 2.8125 19.734375 3.320312 19.25 3.9375 19.25 Z M 4.3125 20.730469 L 4.3125 27.6875 L 12.25 27.6875 L 12.25 20.730469 Z M 4.3125 20.730469 "/>
</g>
</svg>
