<?xml version="1.0" encoding="UTF-8"?>
<svg xmlns="http://www.w3.org/2000/svg" xmlns:xlink="http://www.w3.org/1999/xlink" width="32" height="32" viewBox="0 0 32 32" version="1.1">
<g id="surface1">
<path style=" stroke:none;fill-rule:nonzero;fill:rgb(100%,100%,100%);fill-opacity:1;" d="M 20.605469 1.332031 C 19.671875 1.335938 18.949219 1.335938 18.667969 1.355469 C 17.535156 1.421875 16.972656 2.125 16.75 3.167969 C 16.722656 3.691406 16.75 12.332031 16.75 12.332031 C 16.75 13.398438 17.601562 14.269531 18.667969 14.269531 L 28.730469 14.269531 C 29.792969 14.269531 30.644531 13.398438 30.644531 12.332031 C 30.644531 11.265625 30.773438 3.304688 30.5 2.582031 C 30.222656 1.859375 29.554688 1.355469 28.730469 1.355469 C 28.109375 1.355469 23.394531 1.324219 20.605469 1.332031 Z M 19.355469 2.855469 L 28.019531 2.855469 C 28.640625 2.855469 29.144531 3.339844 29.144531 3.957031 L 29.144531 11.667969 C 29.144531 12.285156 28.640625 12.769531 28.019531 12.769531 L 19.355469 12.769531 C 18.734375 12.769531 18.230469 12.285156 18.230469 11.667969 L 18.230469 3.957031 C 18.230469 3.339844 18.734375 2.855469 19.355469 2.855469 Z M 19.730469 4.332031 L 19.730469 11.292969 L 27.644531 11.292969 L 27.644531 4.332031 Z M 4.4375 16.4375 C 3.890625 16.421875 3.351562 16.578125 2.855469 16.894531 C 2.148438 17.347656 1.714844 18.046875 1.582031 18.8125 C 1.46875 19.035156 1.390625 19.285156 1.332031 19.5625 C 1.320312 19.816406 1.328125 22.050781 1.332031 24.230469 C 1.332031 24.277344 1.332031 24.285156 1.332031 24.332031 C 1.335938 26.558594 1.332031 28.730469 1.332031 28.730469 C 1.332031 29.792969 2.203125 30.667969 3.269531 30.667969 L 13.3125 30.667969 C 14.195312 30.667969 14.921875 30.0625 15.144531 29.25 C 15.984375 28.667969 16.21875 27.535156 15.667969 26.667969 C 15.550781 26.484375 15.40625 26.335938 15.25 26.207031 C 15.28125 23.480469 15.3125 19.519531 15.105469 18.980469 C 14.828125 18.253906 14.136719 17.75 13.3125 17.75 C 12.8125 17.75 9.421875 17.730469 6.75 17.730469 C 6.222656 16.917969 5.339844 16.460938 4.4375 16.4375 Z M 3.9375 19.25 L 12.605469 19.25 C 13.222656 19.25 13.730469 19.734375 13.730469 20.355469 L 13.730469 28.0625 C 13.730469 28.679688 13.222656 29.167969 12.605469 29.167969 L 3.9375 29.167969 C 3.320312 29.167969 2.8125 28.679688 2.8125 28.0625 L 2.8125 20.355469 C 2.8125 19.734375 3.320312 19.25 3.9375 19.25 Z M 4.3125 20.730469 L 4.3125 27.6875 L 12.25 27.6875 L 12.25 20.730469 Z M 25.730469 21.480469 C 25.605469 21.484375 25.492188 21.503906 25.375 21.5625 C 24.898438 21.796875 24.683594 22.375 24.917969 22.855469 C 25.148438 23.332031 25.730469 23.523438 26.207031 23.292969 C 26.683594 23.058594 26.878906 22.496094 26.644531 22.019531 C 26.46875 21.664062 26.101562 21.457031 25.730469 21.480469 Z M 20.75 25.375 C 20.488281 25.367188 20.214844 25.453125 19.980469 25.605469 C 19.347656 26.007812 19.160156 26.847656 19.5625 27.480469 C 19.964844 28.109375 20.804688 28.277344 21.4375 27.875 C 22.066406 27.472656 22.257812 26.628906 21.855469 26 C 21.601562 25.605469 21.183594 25.386719 20.75 25.375 Z M 20.75 25.375 "/>
</g>
</svg>
