<?xml version="1.0" encoding="UTF-8"?>
<svg xmlns="http://www.w3.org/2000/svg" xmlns:xlink="http://www.w3.org/1999/xlink" width="32" height="32" viewBox="0 0 32 32" version="1.1">
<g id="surface1">
<path style=" stroke:none;fill-rule:nonzero;fill:rgb(100%,100%,100%);fill-opacity:1;" d="M 14.519531 1.167969 C 14.152344 1.171875 13.777344 1.238281 13.417969 1.394531 C 11.976562 2.023438 11.328125 3.707031 11.957031 5.144531 C 12.585938 6.585938 14.25 7.234375 15.6875 6.605469 C 16.121094 6.414062 16.46875 6.117188 16.75 5.769531 C 16.746094 8.464844 16.75 12.332031 16.75 12.332031 C 16.75 13.398438 17.601562 14.269531 18.667969 14.269531 L 28.730469 14.269531 C 29.792969 14.269531 30.644531 13.398438 30.644531 12.332031 C 30.644531 11.265625 30.773438 3.304688 30.5 2.582031 C 30.222656 1.859375 29.554688 1.355469 28.730469 1.355469 C 28.109375 1.355469 23.394531 1.324219 20.605469 1.332031 C 19.671875 1.335938 18.949219 1.335938 18.667969 1.355469 C 17.800781 1.40625 17.261719 1.835938 16.957031 2.5 C 16.421875 1.652344 15.488281 1.152344 14.519531 1.167969 Z M 19.355469 2.855469 L 28.019531 2.855469 C 28.640625 2.855469 29.144531 3.339844 29.144531 3.957031 L 29.144531 11.667969 C 29.144531 12.285156 28.640625 12.769531 28.019531 12.769531 L 19.355469 12.769531 C 18.734375 12.769531 18.230469 12.285156 18.230469 11.667969 L 18.230469 3.957031 C 18.230469 3.339844 18.734375 2.855469 19.355469 2.855469 Z M 8.417969 4.332031 C 8.109375 4.335938 7.796875 4.390625 7.5 4.519531 C 6.3125 5.039062 5.773438 6.4375 6.292969 7.625 C 6.8125 8.8125 8.1875 9.351562 9.375 8.832031 C 10.5625 8.3125 11.125 6.917969 10.605469 5.730469 C 10.214844 4.839844 9.332031 4.320312 8.417969 4.332031 Z M 4.730469 10.355469 C 4.480469 10.355469 4.222656 10.414062 3.980469 10.519531 C 3.011719 10.945312 2.578125 12.074219 3 13.042969 C 3.421875 14.007812 4.554688 14.445312 5.519531 14.019531 C 6.488281 13.597656 6.925781 12.46875 6.5 11.5 C 6.183594 10.773438 5.476562 10.34375 4.730469 10.355469 Z M 4.644531 17.625 C 4.476562 17.625 4.3125 17.679688 4.144531 17.75 C 4.140625 17.753906 4.132812 17.746094 4.125 17.75 C 3.847656 17.753906 3.398438 17.742188 3.269531 17.75 C 2.140625 17.816406 1.554688 18.523438 1.332031 19.5625 C 1.320312 19.816406 1.328125 22.050781 1.332031 24.230469 C 1.332031 24.277344 1.332031 24.285156 1.332031 24.332031 C 1.335938 26.558594 1.332031 28.730469 1.332031 28.730469 C 1.332031 29.792969 2.203125 30.667969 3.269531 30.667969 L 13.3125 30.667969 C 14.378906 30.667969 15.230469 29.792969 15.230469 28.730469 C 15.230469 27.664062 15.378906 19.703125 15.105469 18.980469 C 14.828125 18.253906 14.136719 17.75 13.3125 17.75 C 12.695312 17.75 7.976562 17.71875 5.1875 17.730469 C 5.019531 17.65625 4.832031 17.621094 4.644531 17.625 Z M 3.9375 19.25 L 12.605469 19.25 C 13.222656 19.25 13.730469 19.734375 13.730469 20.355469 L 13.730469 28.0625 C 13.730469 28.679688 13.222656 29.167969 12.605469 29.167969 L 3.9375 29.167969 C 3.320312 29.167969 2.8125 28.679688 2.8125 28.0625 L 2.8125 20.355469 C 2.8125 19.734375 3.320312 19.25 3.9375 19.25 Z M 3.9375 19.25 "/>
</g>
</svg>
