<?xml version="1.0" encoding="UTF-8"?>
<svg xmlns="http://www.w3.org/2000/svg" xmlns:xlink="http://www.w3.org/1999/xlink" width="32" height="32" viewBox="0 0 32 32" version="1.1">
<g id="surface1">
<path style=" stroke:none;fill-rule:nonzero;fill:rgb(100%,100%,100%);fill-opacity:1;" d="M 20.605469 1.332031 C 19.671875 1.335938 18.949219 1.335938 18.667969 1.355469 C 17.535156 1.421875 16.972656 2.125 16.75 3.167969 C 16.722656 3.691406 16.75 12.332031 16.75 12.332031 C 16.75 13.398438 17.601562 14.269531 18.667969 14.269531 L 28.730469 14.269531 C 29.792969 14.269531 30.644531 13.398438 30.644531 12.332031 C 30.644531 11.265625 30.773438 3.304688 30.5 2.582031 C 30.222656 1.859375 29.554688 1.355469 28.730469 1.355469 C 28.109375 1.355469 23.394531 1.324219 20.605469 1.332031 Z M 19.355469 2.855469 L 28.019531 2.855469 C 28.640625 2.855469 29.144531 3.339844 29.144531 3.957031 L 29.144531 11.667969 C 29.144531 12.285156 28.640625 12.769531 28.019531 12.769531 L 19.355469 12.769531 C 18.734375 12.769531 18.230469 12.285156 18.230469 11.667969 L 18.230469 3.957031 C 18.230469 3.339844 18.734375 2.855469 19.355469 2.855469 Z M 14.769531 3.375 C 14.464844 3.421875 14.183594 3.617188 14.042969 3.917969 C 13.816406 4.398438 14.019531 4.980469 14.5 5.207031 C 14.980469 5.433594 15.566406 5.230469 15.792969 4.75 C 16.019531 4.269531 15.792969 3.683594 15.3125 3.457031 C 15.132812 3.375 14.953125 3.347656 14.769531 3.375 Z M 19.730469 4.332031 L 19.730469 11.292969 L 27.644531 11.292969 L 27.644531 4.332031 Z M 27.8125 14.375 C 26.898438 14.441406 26.0625 15.039062 25.75 15.957031 C 25.332031 17.183594 26 18.519531 27.230469 18.9375 C 28.457031 19.355469 29.789062 18.683594 30.207031 17.457031 C 30.625 16.230469 29.957031 14.894531 28.730469 14.480469 C 28.421875 14.375 28.117188 14.351562 27.8125 14.375 Z M 5.1875 17.730469 C 4.257812 17.730469 3.554688 17.734375 3.269531 17.75 C 2.140625 17.816406 1.554688 18.523438 1.332031 19.5625 C 1.320312 19.816406 1.328125 22.050781 1.332031 24.230469 C 1.332031 24.277344 1.332031 24.285156 1.332031 24.332031 C 1.335938 26.558594 1.332031 28.730469 1.332031 28.730469 C 1.332031 29.792969 2.203125 30.667969 3.269531 30.667969 L 13.3125 30.667969 C 14.378906 30.667969 15.230469 29.792969 15.230469 28.730469 C 15.230469 27.664062 15.378906 19.703125 15.105469 18.980469 C 14.828125 18.253906 14.136719 17.75 13.3125 17.75 C 12.695312 17.75 7.976562 17.71875 5.1875 17.730469 Z M 3.9375 19.25 L 12.605469 19.25 C 13.222656 19.25 13.730469 19.734375 13.730469 20.355469 L 13.730469 28.0625 C 13.730469 28.679688 13.222656 29.167969 12.605469 29.167969 L 3.9375 29.167969 C 3.320312 29.167969 2.8125 28.679688 2.8125 28.0625 L 2.8125 20.355469 C 2.8125 19.734375 3.320312 19.25 3.9375 19.25 Z M 25.625 20.1875 C 24.519531 20.265625 23.523438 20.992188 23.144531 22.105469 C 22.640625 23.589844 23.429688 25.203125 24.917969 25.707031 C 26.402344 26.214844 28.015625 25.421875 28.519531 23.9375 C 29.027344 22.449219 28.234375 20.839844 26.75 20.332031 C 26.378906 20.207031 25.992188 20.160156 25.625 20.1875 Z M 4.3125 20.730469 L 4.3125 27.6875 L 12.25 27.6875 L 12.25 20.730469 Z M 4.3125 20.730469 "/>
</g>
</svg>
