<?xml version="1.0" encoding="UTF-8"?>
<svg xmlns="http://www.w3.org/2000/svg" xmlns:xlink="http://www.w3.org/1999/xlink" width="32" height="32" viewBox="0 0 32 32" version="1.1">
<g id="surface1">
<path style=" stroke:none;fill-rule:nonzero;fill:rgb(100%,100%,100%);fill-opacity:1;" d="M 14.542969 4.5 C 14.007812 4.5 13.582031 4.925781 13.582031 5.457031 C 13.582031 5.992188 14.007812 6.417969 14.542969 6.417969 C 15.074219 6.417969 15.519531 5.992188 15.519531 5.457031 C 15.519531 4.925781 15.074219 4.5 14.542969 4.5 Z M 10.832031 5.917969 C 7.789062 5.917969 5.605469 7.75 5.605469 10.730469 L 5.605469 13.332031 L 4.75 13.332031 C 3.878906 13.332031 3.4375 13.773438 3.4375 14.644531 L 3.4375 22.0625 C 3.4375 22.492188 3.878906 23.375 4.75 23.375 L 17.519531 23.375 C 18.222656 23.371094 18.667969 22.492188 18.667969 22.0625 L 18.667969 14.644531 C 18.667969 13.773438 18.222656 13.332031 17.355469 13.332031 L 16.480469 13.332031 L 16.480469 10.730469 C 16.480469 7.675781 14.316406 5.917969 11.269531 5.917969 Z M 10.832031 8.105469 L 11.269531 8.105469 C 14.316406 8.105469 14.3125 10.710938 14.3125 11.582031 L 14.3125 13.332031 L 7.792969 13.332031 L 7.792969 11.582031 C 7.792969 10.710938 7.789062 8.105469 10.832031 8.105469 Z M 10.832031 8.105469 "/>
</g>
</svg>
