<?xml version="1.0" encoding="UTF-8"?>
<svg xmlns="http://www.w3.org/2000/svg" xmlns:xlink="http://www.w3.org/1999/xlink" width="32" height="32" viewBox="0 0 32 32" version="1.1">
<g id="surface1">
<path style=" stroke:none;fill-rule:nonzero;fill:rgb(100%,100%,100%);fill-opacity:1;" d="M 10.832031 5.917969 C 7.789062 5.917969 5.605469 7.75 5.605469 10.730469 L 5.605469 13.332031 L 4.75 13.332031 C 3.878906 13.332031 3.4375 13.773438 3.4375 14.644531 L 3.4375 22.0625 C 3.4375 22.492188 3.878906 23.375 4.75 23.375 L 17.519531 23.375 C 18.222656 23.371094 18.667969 22.492188 18.667969 22.0625 L 18.667969 14.644531 C 18.667969 13.773438 18.222656 13.332031 17.355469 13.332031 L 16.480469 13.332031 L 16.480469 10.730469 C 16.480469 7.675781 14.316406 5.917969 11.269531 5.917969 Z M 23.480469 6.167969 C 22.878906 6.234375 22.433594 6.773438 22.5 7.375 C 22.566406 7.976562 23.109375 8.402344 23.707031 8.332031 C 24.308594 8.265625 24.753906 7.726562 24.6875 7.125 C 24.621094 6.523438 24.078125 6.097656 23.480469 6.167969 Z M 10.832031 8.105469 L 11.269531 8.105469 C 14.316406 8.105469 14.3125 10.710938 14.3125 11.582031 L 14.3125 13.332031 L 7.792969 13.332031 L 7.792969 11.582031 C 7.792969 10.710938 7.789062 8.105469 10.832031 8.105469 Z M 26.75 10.875 C 25.910156 10.96875 25.320312 11.742188 25.417969 12.582031 C 25.511719 13.421875 26.265625 14.011719 27.105469 13.917969 C 27.941406 13.820312 28.554688 13.066406 28.457031 12.230469 C 28.363281 11.390625 27.589844 10.78125 26.75 10.875 Z M 26.375 17.519531 C 25.265625 17.648438 24.457031 18.660156 24.582031 19.769531 C 24.710938 20.878906 25.722656 21.667969 26.832031 21.542969 C 27.941406 21.414062 28.730469 20.421875 28.605469 19.3125 C 28.476562 18.203125 27.484375 17.394531 26.375 17.519531 Z M 22.5625 23.894531 C 21.171875 23.894531 20.0625 25.027344 20.0625 26.417969 C 20.0625 27.808594 21.171875 28.9375 22.5625 28.9375 C 23.953125 28.9375 25.082031 27.808594 25.082031 26.417969 C 25.082031 25.027344 23.953125 23.894531 22.5625 23.894531 Z M 14.519531 25.0625 C 12.789062 25.257812 11.535156 26.828125 11.730469 28.5625 C 11.925781 30.292969 13.496094 31.527344 15.230469 31.332031 C 16.960938 31.136719 18.195312 29.585938 18 27.855469 C 17.804688 26.121094 16.253906 24.867188 14.519531 25.0625 Z M 14.519531 25.0625 "/>
</g>
</svg>
