<?xml version="1.0" encoding="UTF-8"?>
<svg xmlns="http://www.w3.org/2000/svg" xmlns:xlink="http://www.w3.org/1999/xlink" width="32" height="32" viewBox="0 0 32 32" version="1.1">
<g id="surface1">
<path style=" stroke:none;fill-rule:nonzero;fill:rgb(100%,100%,100%);fill-opacity:1;" d="M 10.832031 5.917969 C 7.789062 5.917969 5.605469 7.75 5.605469 10.730469 L 5.605469 13.332031 L 4.75 13.332031 C 3.878906 13.332031 3.4375 13.773438 3.4375 14.644531 L 3.4375 22.0625 C 3.4375 22.492188 3.878906 23.375 4.75 23.375 L 7.082031 23.375 C 7.367188 24.085938 8.097656 24.546875 8.894531 24.457031 C 9.550781 24.382812 10.078125 23.945312 10.3125 23.375 L 17.519531 23.375 C 18.222656 23.371094 18.667969 22.492188 18.667969 22.0625 L 18.667969 14.644531 C 18.667969 13.773438 18.222656 13.332031 17.355469 13.332031 L 16.480469 13.332031 L 16.480469 10.730469 C 16.480469 7.675781 14.316406 5.917969 11.269531 5.917969 Z M 10.832031 8.105469 L 11.269531 8.105469 C 14.316406 8.105469 14.3125 10.710938 14.3125 11.582031 L 14.3125 13.332031 L 7.792969 13.332031 L 7.792969 11.582031 C 7.792969 10.710938 7.789062 8.105469 10.832031 8.105469 Z M 14.730469 27.019531 C 14.074219 27.09375 13.613281 27.679688 13.6875 28.332031 C 13.761719 28.988281 14.34375 29.449219 15 29.375 C 15.65625 29.300781 16.136719 28.714844 16.0625 28.0625 C 15.988281 27.40625 15.382812 26.945312 14.730469 27.019531 Z M 14.730469 27.019531 "/>
</g>
</svg>
