<?xml version="1.0" encoding="UTF-8"?>
<svg xmlns="http://www.w3.org/2000/svg" xmlns:xlink="http://www.w3.org/1999/xlink" width="32" height="32" viewBox="0 0 32 32" version="1.1">
<g id="surface1">
<path style=" stroke:none;fill-rule:nonzero;fill:rgb(100%,100%,100%);fill-opacity:1;" d="M 10.832031 5.917969 C 7.785156 5.917969 5.609375 7.742188 5.609375 10.71875 L 5.609375 13.339844 L 4.742188 13.339844 C 3.871094 13.339844 3.433594 13.777344 3.433594 14.648438 L 3.433594 22.070312 C 3.433594 22.496094 3.871094 23.378906 4.742188 23.378906 L 17.523438 23.378906 C 18.226562 23.375 18.664062 22.496094 18.664062 22.070312 L 18.664062 14.648438 C 18.664062 13.777344 18.226562 13.335938 17.355469 13.335938 L 16.488281 13.339844 L 16.488281 10.71875 C 16.488281 7.664062 14.3125 5.917969 11.265625 5.917969 Z M 10.832031 8.101562 L 11.265625 8.101562 C 14.3125 8.101562 14.3125 10.71875 14.3125 11.59375 L 14.3125 13.339844 L 7.785156 13.339844 L 7.785156 11.59375 C 7.785156 10.71875 7.785156 8.101562 10.832031 8.101562 Z M 10.832031 8.101562 "/>
</g>
</svg>
