<?xml version="1.0" encoding="UTF-8"?>
<svg xmlns="http://www.w3.org/2000/svg" xmlns:xlink="http://www.w3.org/1999/xlink" width="32" height="32" viewBox="0 0 32 32" version="1.1">
<g id="surface1">
<path style=" stroke:none;fill-rule:nonzero;fill:rgb(100%,100%,100%);fill-opacity:1;" d="M 18.542969 3.4375 C 17.707031 3.53125 17.113281 4.289062 17.207031 5.125 C 17.304688 5.960938 18.039062 6.554688 18.875 6.457031 C 19.710938 6.363281 20.324219 5.625 20.230469 4.792969 C 20.132812 3.957031 19.375 3.34375 18.542969 3.4375 Z M 14.542969 4.5 C 14.007812 4.5 13.582031 4.925781 13.582031 5.457031 C 13.582031 5.992188 14.007812 6.417969 14.542969 6.417969 C 15.074219 6.417969 15.519531 5.992188 15.519531 5.457031 C 15.519531 4.925781 15.074219 4.5 14.542969 4.5 Z M 23.332031 4.9375 C 22.058594 5.082031 21.148438 6.246094 21.292969 7.519531 C 21.433594 8.792969 22.578125 9.707031 23.855469 9.5625 C 25.128906 9.417969 26.039062 8.273438 25.894531 7 C 25.75 5.726562 24.605469 4.792969 23.332031 4.9375 Z M 10.832031 5.917969 C 7.789062 5.917969 5.605469 7.75 5.605469 10.730469 L 5.605469 13.332031 L 4.75 13.332031 C 3.878906 13.332031 3.4375 13.773438 3.4375 14.644531 L 3.4375 22.0625 C 3.4375 22.492188 3.878906 23.375 4.75 23.375 L 17.519531 23.375 C 18.222656 23.371094 18.667969 22.492188 18.667969 22.0625 L 18.667969 14.644531 C 18.667969 13.773438 18.222656 13.332031 17.355469 13.332031 L 16.480469 13.332031 L 16.480469 10.730469 C 16.480469 7.675781 14.316406 5.917969 11.269531 5.917969 Z M 10.832031 8.105469 L 11.269531 8.105469 C 14.316406 8.105469 14.3125 10.710938 14.3125 11.582031 L 14.3125 13.332031 L 7.792969 13.332031 L 7.792969 11.582031 C 7.792969 10.710938 7.789062 8.105469 10.832031 8.105469 Z M 26.605469 9.582031 C 25.046875 9.757812 23.929688 11.171875 24.105469 12.730469 C 24.28125 14.285156 25.691406 15.40625 27.25 15.230469 C 28.808594 15.054688 29.925781 13.640625 29.75 12.082031 C 29.574219 10.523438 28.160156 9.40625 26.605469 9.582031 Z M 26.605469 9.582031 "/>
</g>
</svg>
