<?xml version="1.0" encoding="UTF-8"?>
<svg xmlns="http://www.w3.org/2000/svg" xmlns:xlink="http://www.w3.org/1999/xlink" width="32" height="32" viewBox="0 0 32 32" version="1.1">
<g id="surface1">
<path style=" stroke:none;fill-rule:nonzero;fill:rgb(100%,100%,100%);fill-opacity:1;" d="M 18.625 4.105469 C 18.148438 4.160156 17.800781 4.589844 17.855469 5.0625 C 17.90625 5.539062 18.335938 5.867188 18.8125 5.8125 C 19.285156 5.757812 19.636719 5.328125 19.582031 4.855469 C 19.527344 4.378906 19.097656 4.050781 18.625 4.105469 Z M 10.832031 5.917969 C 7.789062 5.917969 5.605469 7.75 5.605469 10.730469 L 5.605469 13.332031 L 4.75 13.332031 C 3.878906 13.332031 3.4375 13.773438 3.4375 14.644531 L 3.4375 22.0625 C 3.4375 22.492188 3.878906 23.375 4.75 23.375 L 17.519531 23.375 C 18.222656 23.371094 18.667969 22.492188 18.667969 22.0625 L 18.667969 14.644531 C 18.667969 13.773438 18.222656 13.332031 17.355469 13.332031 L 16.480469 13.332031 L 16.480469 10.730469 C 16.480469 7.675781 14.316406 5.917969 11.269531 5.917969 Z M 23.4375 5.917969 C 22.703125 6 22.1875 6.660156 22.269531 7.394531 C 22.351562 8.128906 23.015625 8.664062 23.75 8.582031 C 24.484375 8.5 25 7.839844 24.917969 7.105469 C 24.835938 6.371094 24.171875 5.835938 23.4375 5.917969 Z M 10.832031 8.105469 L 11.269531 8.105469 C 14.316406 8.105469 14.3125 10.710938 14.3125 11.582031 L 14.3125 13.332031 L 7.792969 13.332031 L 7.792969 11.582031 C 7.792969 10.710938 7.789062 8.105469 10.832031 8.105469 Z M 26.730469 10.644531 C 25.753906 10.753906 25.054688 11.628906 25.167969 12.605469 C 25.277344 13.578125 26.152344 14.277344 27.125 14.167969 C 28.097656 14.054688 28.796875 13.183594 28.6875 12.207031 C 28.578125 11.234375 27.703125 10.535156 26.730469 10.644531 Z M 26.8125 17.105469 C 26.652344 17.089844 26.5 17.105469 26.332031 17.125 C 24.996094 17.273438 24.035156 18.476562 24.1875 19.8125 C 24.335938 21.148438 25.539062 22.109375 26.875 21.957031 C 28.210938 21.808594 29.171875 20.605469 29.019531 19.269531 C 28.886719 18.101562 27.9375 17.203125 26.8125 17.105469 Z M 22.5625 23.5625 C 20.992188 23.5625 19.730469 24.84375 19.730469 26.417969 C 19.730469 27.988281 20.992188 29.25 22.5625 29.25 C 24.132812 29.25 25.417969 27.988281 25.417969 26.417969 C 25.417969 24.84375 24.132812 23.5625 22.5625 23.5625 Z M 22.5625 23.5625 "/>
</g>
</svg>
