<?xml version="1.0" encoding="UTF-8"?>
<svg xmlns="http://www.w3.org/2000/svg" xmlns:xlink="http://www.w3.org/1999/xlink" width="32" height="32" viewBox="0 0 32 32" version="1.1">
<g id="surface1">
<path style=" stroke:none;fill-rule:nonzero;fill:rgb(100%,100%,100%);fill-opacity:1;" d="M 18.5625 3.605469 C 17.816406 3.6875 17.289062 4.359375 17.375 5.105469 C 17.460938 5.847656 18.128906 6.398438 18.875 6.3125 C 19.617188 6.226562 20.148438 5.558594 20.0625 4.8125 C 19.976562 4.070312 19.304688 3.519531 18.5625 3.605469 Z M 14.542969 4.5 C 14.007812 4.5 13.582031 4.925781 13.582031 5.457031 C 13.582031 5.992188 14.007812 6.417969 14.542969 6.417969 C 15.074219 6.417969 15.519531 5.992188 15.519531 5.457031 C 15.519531 4.925781 15.074219 4.5 14.542969 4.5 Z M 23.375 5.355469 C 22.324219 5.472656 21.570312 6.410156 21.6875 7.457031 C 21.804688 8.507812 22.761719 9.265625 23.8125 9.144531 C 24.859375 9.027344 25.617188 8.089844 25.5 7.042969 C 25.382812 5.992188 24.421875 5.234375 23.375 5.355469 Z M 10.832031 5.917969 C 7.789062 5.917969 5.605469 7.75 5.605469 10.730469 L 5.605469 13.332031 L 4.75 13.332031 C 3.878906 13.332031 3.4375 13.773438 3.4375 14.644531 L 3.4375 22.0625 C 3.4375 22.492188 3.878906 23.375 4.75 23.375 L 17.519531 23.375 C 18.222656 23.371094 18.667969 22.492188 18.667969 22.0625 L 18.667969 14.644531 C 18.667969 13.773438 18.222656 13.332031 17.355469 13.332031 L 16.480469 13.332031 L 16.480469 10.730469 C 16.480469 7.675781 14.316406 5.917969 11.269531 5.917969 Z M 10.832031 8.105469 L 11.269531 8.105469 C 14.316406 8.105469 14.3125 10.710938 14.3125 11.582031 L 14.3125 13.332031 L 7.792969 13.332031 L 7.792969 11.582031 C 7.792969 10.710938 7.789062 8.105469 10.832031 8.105469 Z M 26.667969 10.0625 C 25.378906 10.207031 24.460938 11.378906 24.605469 12.667969 C 24.75 13.953125 25.898438 14.875 27.1875 14.730469 C 28.476562 14.582031 29.414062 13.433594 29.269531 12.144531 C 29.125 10.855469 27.953125 9.917969 26.667969 10.0625 Z M 26.292969 16.707031 C 24.730469 16.882812 23.59375 18.292969 23.769531 19.855469 C 23.945312 21.414062 25.355469 22.53125 26.917969 22.355469 C 28.476562 22.179688 29.59375 20.765625 29.417969 19.207031 C 29.242188 17.648438 27.851562 16.53125 26.292969 16.707031 Z M 26.292969 16.707031 "/>
</g>
</svg>
