<?xml version="1.0" encoding="UTF-8"?>
<svg xmlns="http://www.w3.org/2000/svg" xmlns:xlink="http://www.w3.org/1999/xlink" width="32" height="32" viewBox="0 0 32 32" version="1.1">
<g id="surface1">
<path style=" stroke:none;fill-rule:nonzero;fill:rgb(100%,100%,100%);fill-opacity:1;" d="M 10.832031 5.917969 C 7.789062 5.917969 5.605469 7.75 5.605469 10.730469 L 5.605469 13.332031 L 4.75 13.332031 C 3.878906 13.332031 3.4375 13.773438 3.4375 14.644531 L 3.4375 22.0625 C 3.4375 22.492188 3.878906 23.375 4.75 23.375 L 5.125 23.375 C 5.464844 25.238281 7.195312 26.546875 9.105469 26.332031 C 10.730469 26.148438 11.988281 24.902344 12.269531 23.375 L 17.519531 23.375 C 18.222656 23.371094 18.667969 22.492188 18.667969 22.0625 L 18.667969 14.644531 C 18.667969 13.773438 18.222656 13.332031 17.355469 13.332031 L 16.480469 13.332031 L 16.480469 10.730469 C 16.480469 7.675781 14.316406 5.917969 11.269531 5.917969 Z M 10.832031 8.105469 L 11.269531 8.105469 C 14.316406 8.105469 14.3125 10.710938 14.3125 11.582031 L 14.3125 13.332031 L 7.792969 13.332031 L 7.792969 11.582031 C 7.792969 10.710938 7.789062 8.105469 10.832031 8.105469 Z M 26.8125 11.457031 C 26.289062 11.515625 25.917969 11.996094 25.980469 12.519531 C 26.039062 13.046875 26.515625 13.414062 27.042969 13.355469 C 27.566406 13.292969 27.933594 12.816406 27.875 12.292969 C 27.816406 11.765625 27.335938 11.398438 26.8125 11.457031 Z M 26.417969 17.9375 C 25.53125 18.035156 24.898438 18.820312 25 19.707031 C 25.097656 20.59375 25.90625 21.246094 26.792969 21.144531 C 27.679688 21.046875 28.308594 20.242188 28.207031 19.355469 C 28.109375 18.46875 27.304688 17.835938 26.417969 17.9375 Z M 22.5625 24.375 C 21.441406 24.375 20.542969 25.296875 20.542969 26.417969 C 20.542969 27.535156 21.441406 28.4375 22.5625 28.4375 C 23.679688 28.4375 24.605469 27.535156 24.605469 26.417969 C 24.605469 25.296875 23.679688 24.375 22.5625 24.375 Z M 15.125 25.457031 C 14.941406 25.441406 14.75 25.457031 14.5625 25.480469 C 13.054688 25.648438 11.976562 26.992188 12.144531 28.5 C 12.316406 30.007812 13.660156 31.105469 15.167969 30.9375 C 16.675781 30.765625 17.773438 29.402344 17.605469 27.894531 C 17.453125 26.574219 16.398438 25.570312 15.125 25.457031 Z M 15.125 25.457031 "/>
</g>
</svg>
