<?xml version="1.0" encoding="UTF-8"?>
<svg xmlns="http://www.w3.org/2000/svg" xmlns:xlink="http://www.w3.org/1999/xlink" width="256" height="256" viewBox="0 0 256 256" version="1.1">
<g id="surface1">
<path style=" stroke:none;fill-rule:evenodd;fill:rgb(0%,40%,50.196078%);fill-opacity:1;" d="M 32.273438 78.773438 L 59.523438 105.445312 L 58.671875 68.046875 L 32.257812 67.921875 Z M 32.273438 78.773438 "/>
<path style="fill-rule:evenodd;fill:rgb(94.901961%,94.901961%,94.901961%);fill-opacity:1;stroke-width:5.03546;stroke-linecap:butt;stroke-linejoin:miter;stroke:rgb(68.627451%,68.627451%,68.627451%);stroke-opacity:1;stroke-miterlimit:4;" d="M 97.045898 1029.840207 L 433.929443 1028.66528 L 435.10437 664.773679 L 347.061157 575.570798 L 97.045898 575.570798 Z M 97.045898 1029.840207 " transform="matrix(0.512,0,0,0.512,0,-282.809436)"/>
<path style="fill-rule:evenodd;fill:rgb(68.627451%,68.627451%,68.627451%);fill-opacity:1;stroke-width:5.03546;stroke-linecap:butt;stroke-linejoin:miter;stroke:rgb(68.627451%,68.627451%,68.627451%);stroke-opacity:1;stroke-miterlimit:4;" d="M 431.518555 662.927365 L 349.349976 662.347531 L 350.112915 578.546262 Z M 431.518555 662.927365 " transform="matrix(0.512,0,0,0.512,0,-282.809436)"/>
<path style=" stroke:none;fill-rule:nonzero;fill:rgb(0%,73.333333%,94.901961%);fill-opacity:1;" d="M 32.328125 35.75 L 147.492188 35.75 L 147.492188 78.9375 L 32.328125 78.9375 Z M 32.328125 35.75 "/>
<path style=" stroke:none;fill-rule:nonzero;fill:rgb(0%,73.333333%,94.901961%);fill-opacity:1;" d="M 59.945312 179.617188 L 212.171875 179.617188 L 212.171875 185.835938 L 59.945312 185.835938 Z M 59.945312 179.617188 "/>
<path style=" stroke:none;fill-rule:nonzero;fill:rgb(0%,73.333333%,94.901961%);fill-opacity:1;" d="M 59.945312 195.203125 L 212.40625 195.203125 L 212.40625 201.421875 L 59.945312 201.421875 Z M 59.945312 195.203125 "/>
<path style=" stroke:none;fill-rule:nonzero;fill:rgb(0%,73.333333%,94.901961%);fill-opacity:1;" d="M 59.945312 209.40625 L 213.546875 209.40625 L 213.546875 215.625 L 59.945312 215.625 Z M 59.945312 209.40625 "/>
<path style=" stroke:none;fill-rule:nonzero;fill:rgb(0%,73.333333%,94.901961%);fill-opacity:1;" d="M 59.945312 222.96875 L 164.328125 222.96875 L 164.328125 229.179688 L 59.945312 229.179688 Z M 59.945312 222.96875 "/>
<path style="fill-rule:nonzero;fill:rgb(37.254902%,73.72549%,82.745098%);fill-opacity:1;stroke-width:4.506265;stroke-linecap:round;stroke-linejoin:round;stroke:rgb(0%,73.333333%,94.901961%);stroke-opacity:1;stroke-miterlimit:4;" d="M 265.8177 775.259996 L 413.522777 775.258551 L 413.518907 884.67933 L 265.81383 884.680775 Z M 265.8177 775.259996 " transform="matrix(0.512,0.000269472,-0.000338886,0.512,0,-282.809436)"/>
<path style=" stroke:none;fill-rule:nonzero;fill:rgb(98.039216%,92.54902%,42.745098%);fill-opacity:1;" d="M 204.71875 130.601562 C 204.71875 134.9375 201.203125 138.445312 196.875 138.445312 C 192.546875 138.453125 189.03125 134.945312 189.023438 130.617188 C 189.015625 126.28125 192.515625 122.765625 196.84375 122.75 C 201.179688 122.742188 204.703125 126.234375 204.71875 130.570312 "/>
<path style="fill-rule:nonzero;fill:rgb(0%,40%,50.196078%);fill-opacity:1;stroke-width:0.187761;stroke-linecap:butt;stroke-linejoin:miter;stroke:rgb(0%,0%,0%);stroke-opacity:1;stroke-miterlimit:4;" d="M 267.63916 842.279172 L 267.410278 882.760739 L 410.812378 882.653928 L 410.430908 849.160886 C 410.430908 849.160886 390.182495 855.615354 372.665405 853.616452 C 355.163574 851.617551 328.460693 831.59802 309.814453 830.850339 C 291.183472 830.087399 267.63916 842.279172 267.63916 842.279172 Z M 267.63916 842.279172 " transform="matrix(0.512,0,0,0.512,0,-282.809436)"/>
<path style=" stroke:none;fill-rule:nonzero;fill:rgb(0%,73.333333%,94.901961%);fill-opacity:1;" d="M 59.945312 164.976562 L 126.882812 164.976562 L 126.882812 171.195312 L 59.945312 171.195312 Z M 59.945312 164.976562 "/>
<path style=" stroke:none;fill-rule:nonzero;fill:rgb(0%,73.333333%,94.901961%);fill-opacity:1;" d="M 59.945312 150.773438 L 126.882812 150.773438 L 126.882812 156.984375 L 59.945312 156.984375 Z M 59.945312 150.773438 "/>
<path style=" stroke:none;fill-rule:nonzero;fill:rgb(0%,73.333333%,94.901961%);fill-opacity:1;" d="M 59.945312 137.210938 L 126.882812 137.210938 L 126.882812 143.429688 L 59.945312 143.429688 Z M 59.945312 137.210938 "/>
<path style=" stroke:none;fill-rule:nonzero;fill:rgb(0%,73.333333%,94.901961%);fill-opacity:1;" d="M 59.945312 123.976562 L 126.882812 123.976562 L 126.882812 130.195312 L 59.945312 130.195312 Z M 59.945312 123.976562 "/>
<path style=" stroke:none;fill-rule:nonzero;fill:rgb(0%,73.333333%,94.901961%);fill-opacity:1;" d="M 74.898438 111.382812 L 127.632812 111.382812 L 127.632812 117.601562 L 74.898438 117.601562 Z M 74.898438 111.382812 "/>
<path style="fill:none;stroke-width:9;stroke-linecap:butt;stroke-linejoin:bevel;stroke:rgb(100%,100%,100%);stroke-opacity:1;stroke-miterlimit:4;" d="M 915.690867 696.288329 L 937.842081 638.001241 L 960.569045 696.288329 " transform="matrix(0.515632,0,0,0.515632,-418.081388,-286.723856)"/>
<path style="fill:none;stroke-width:9;stroke-linecap:butt;stroke-linejoin:miter;stroke:rgb(100%,100%,100%);stroke-opacity:1;stroke-miterlimit:4;" d="M 924.584685 676.758291 L 950.372214 676.758291 " transform="matrix(0.515632,0,0,0.515632,-418.081388,-286.723856)"/>
<path style="fill:none;stroke-width:9;stroke-linecap:butt;stroke-linejoin:miter;stroke:rgb(100%,100%,100%);stroke-opacity:1;stroke-miterlimit:4;" d="M 164.093018 637.750363 L 164.093018 690.71362 L 184.295654 690.71362 C 184.295654 690.71362 200.073242 691.537595 199.554443 676.751828 C 199.020386 661.98132 185.531616 662.271237 185.531616 662.271237 L 167.388916 662.271237 L 185.317993 662.072873 C 185.317993 662.072873 196.472168 661.767697 196.334839 649.392819 C 196.212769 637.017941 180.892944 637.750363 180.892944 637.750363 Z M 164.093018 637.750363 " transform="matrix(0.512,0,0,0.512,0,-282.809436)"/>
<path style="fill:none;stroke-width:9;stroke-linecap:butt;stroke-linejoin:miter;stroke:rgb(100%,100%,100%);stroke-opacity:1;stroke-miterlimit:4;" d="M 213.104248 634.01196 L 221.221924 690.225339 L 226.242065 690.454221 L 242.126465 649.148679 L 245.483398 649.148679 L 261.428833 690.454221 L 266.677856 690.515256 L 274.093628 634.286618 " transform="matrix(0.512,0,0,0.512,0,-282.809436)"/>
</g>
</svg>
