<?xml version="1.0" encoding="UTF-8"?>
<svg xmlns="http://www.w3.org/2000/svg" xmlns:xlink="http://www.w3.org/1999/xlink" width="256" height="256" viewBox="0 0 256 256" version="1.1">
<g id="surface1">
<path style=" stroke:none;fill-rule:evenodd;fill:rgb(20%,20%,20%);fill-opacity:1;" d="M 32.273438 76.210938 L 59.523438 102.882812 L 58.671875 65.484375 L 32.257812 65.359375 Z M 32.273438 76.210938 "/>
<path style="fill-rule:evenodd;fill:rgb(94.901961%,94.901961%,94.901961%);fill-opacity:1;stroke-width:5.03546;stroke-linecap:butt;stroke-linejoin:miter;stroke:rgb(68.627451%,68.627451%,68.627451%);stroke-opacity:1;stroke-miterlimit:4;" d="M 97.045898 1024.835324 L 433.929443 1023.660397 L 435.10437 659.768796 L 347.061157 570.565915 L 97.045898 570.565915 Z M 97.045898 1024.835324 " transform="matrix(0.512,0,0,0.512,0,-282.809436)"/>
<path style="fill-rule:evenodd;fill:rgb(68.627451%,68.627451%,68.627451%);fill-opacity:1;stroke-width:5.03546;stroke-linecap:butt;stroke-linejoin:miter;stroke:rgb(68.627451%,68.627451%,68.627451%);stroke-opacity:1;stroke-miterlimit:4;" d="M 431.518555 657.937741 L 349.349976 657.342648 L 350.112915 573.541379 Z M 431.518555 657.937741 " transform="matrix(0.512,0,0,0.512,0,-282.809436)"/>
<path style=" stroke:none;fill-rule:nonzero;fill:rgb(22.352941%,25.098039%,31.372549%);fill-opacity:1;" d="M 32.328125 33.1875 L 147.492188 33.1875 L 147.492188 76.375 L 32.328125 76.375 Z M 32.328125 33.1875 "/>
<path style=" stroke:none;fill-rule:evenodd;fill:rgb(60%,60%,60%);fill-opacity:1;" d="M 152.539062 238.546875 C 118.382812 247.59375 83.359375 227.234375 74.3125 193.078125 C 65.265625 158.914062 85.625 123.890625 119.78125 114.84375 L 135.054688 172.507812 C 132.734375 173.117188 131.359375 175.492188 131.96875 177.804688 C 132.585938 180.125 134.960938 181.5 137.273438 180.890625 Z M 119.78125 114.84375 C 153.945312 105.796875 188.96875 126.15625 198.015625 160.320312 C 207.0625 194.476562 186.703125 229.5 152.539062 238.546875 L 137.273438 180.890625 C 139.585938 180.273438 140.96875 177.898438 140.351562 175.585938 C 139.742188 173.273438 137.367188 171.890625 135.054688 172.507812 Z M 119.78125 114.84375 "/>
<path style=" stroke:none;fill-rule:evenodd;fill:rgb(80%,80%,80%);fill-opacity:1;" d="M 152.539062 238.546875 C 118.382812 247.59375 83.359375 227.234375 74.3125 193.078125 C 65.265625 158.914062 85.625 123.890625 119.78125 114.84375 L 135.054688 172.507812 C 132.734375 173.117188 131.359375 175.492188 131.96875 177.804688 C 132.585938 180.125 134.960938 181.5 137.273438 180.890625 Z M 119.78125 114.84375 C 153.945312 105.796875 188.96875 126.15625 198.015625 160.320312 C 207.0625 194.476562 186.703125 229.5 152.539062 238.546875 L 137.273438 180.890625 C 139.585938 180.273438 140.96875 177.898438 140.351562 175.585938 C 139.742188 173.273438 137.367188 171.890625 135.054688 172.507812 Z M 119.78125 114.84375 "/>
<path style=" stroke:none;fill-rule:evenodd;fill:rgb(36.470588%,41.568627%,48.235294%);fill-opacity:1;" d="M 142.015625 198.796875 C 129.8125 202.023438 117.296875 194.75 114.0625 182.546875 C 110.835938 170.34375 118.109375 157.828125 130.3125 154.59375 L 135.054688 172.507812 C 132.734375 173.117188 131.359375 175.492188 131.96875 177.804688 C 132.585938 180.125 134.960938 181.5 137.273438 180.890625 Z M 130.3125 154.59375 C 142.515625 151.367188 155.03125 158.640625 158.265625 170.84375 C 161.492188 183.046875 154.21875 195.5625 142.015625 198.796875 L 137.273438 180.890625 C 139.585938 180.273438 140.96875 177.898438 140.351562 175.585938 C 139.742188 173.273438 137.367188 171.890625 135.054688 172.507812 Z M 130.3125 154.59375 "/>
<path style=" stroke:none;fill-rule:evenodd;fill:rgb(60%,60%,60%);fill-opacity:1;" d="M 141.070312 195.242188 C 130.835938 197.953125 120.335938 191.84375 117.617188 181.609375 C 114.90625 171.367188 121.015625 160.867188 131.25 158.15625 L 135.054688 172.507812 C 132.734375 173.117188 131.359375 175.492188 131.96875 177.804688 C 132.585938 180.125 134.960938 181.5 137.273438 180.890625 Z M 131.25 158.15625 C 141.492188 155.445312 151.992188 161.546875 154.703125 171.789062 C 157.421875 182.023438 151.3125 192.53125 141.070312 195.242188 L 137.273438 180.890625 C 139.585938 180.273438 140.96875 177.90625 140.351562 175.585938 C 139.742188 173.273438 137.367188 171.890625 135.054688 172.507812 Z M 131.25 158.15625 "/>
<path style=" stroke:none;fill-rule:evenodd;fill:rgb(36.470588%,41.568627%,48.235294%);fill-opacity:1;" d="M 138.226562 184.5 C 133.921875 185.640625 129.507812 183.070312 128.359375 178.765625 C 127.21875 174.453125 129.789062 170.039062 134.101562 168.898438 L 135.054688 172.507812 C 132.734375 173.117188 131.359375 175.492188 131.96875 177.804688 C 132.585938 180.125 134.960938 181.5 137.273438 180.890625 Z M 134.101562 168.898438 C 138.40625 167.757812 142.820312 170.320312 143.960938 174.632812 C 145.101562 178.9375 142.539062 183.359375 138.226562 184.5 L 137.273438 180.890625 C 139.585938 180.273438 140.96875 177.898438 140.351562 175.585938 C 139.742188 173.273438 137.367188 171.890625 135.054688 172.507812 Z M 134.101562 168.898438 "/>
<path style=" stroke:none;fill-rule:nonzero;fill:rgb(22.352941%,25.098039%,31.372549%);fill-opacity:1;" d="M 158.945312 226.242188 C 150.71875 230.65625 138.1875 229.117188 134.851562 222.015625 C 131.507812 214.914062 136.9375 207.1875 145.828125 202.210938 C 154.71875 197.234375 163.390625 200.875 163.390625 200.875 L 164.023438 137.679688 L 170.421875 139.742188 L 174.609375 149.75 C 174.609375 149.75 190.09375 158.015625 193.664062 176.953125 C 197.234375 195.898438 174.835938 210.734375 174.835938 210.734375 C 174.835938 210.734375 193.710938 190.90625 189.054688 176.320312 C 184.40625 161.734375 170.046875 160.21875 170.046875 160.21875 L 170.460938 212.195312 C 170.460938 212.195312 167.179688 221.828125 158.945312 226.242188 Z M 158.945312 226.242188 "/>
<path style="fill:none;stroke-width:9;stroke-linecap:butt;stroke-linejoin:miter;stroke:rgb(100%,100%,100%);stroke-opacity:1;stroke-miterlimit:4;" d="M 153.549194 639.489865 C 153.549194 639.489865 145.9198 632.669187 132.034302 633.752561 C 118.133545 634.820676 110.26001 650.674558 111.00769 662.667966 C 111.740112 674.661374 122.268677 688.928342 135.864258 687.768674 C 149.44458 686.593747 153.549194 681.787229 153.549194 681.787229 " transform="matrix(0.512,0,0,0.512,0,-282.809436)"/>
<path style="fill:none;stroke-width:9;stroke-linecap:butt;stroke-linejoin:miter;stroke:rgb(100%,100%,100%);stroke-opacity:1;stroke-miterlimit:4;" d="M 168.395996 686.700559 L 168.884277 634.591794 C 168.884277 634.591794 208.755493 628.778195 209.274292 661.126828 C 209.777832 693.460202 168.395996 686.700559 168.395996 686.700559 Z M 168.395996 686.700559 " transform="matrix(0.512,0,0,0.512,0,-282.809436)"/>
<path style="fill:none;stroke-width:9;stroke-linecap:butt;stroke-linejoin:bevel;stroke:rgb(100%,100%,100%);stroke-opacity:1;stroke-miterlimit:4;" d="M 915.693204 696.284883 L 937.844418 637.997796 L 960.571382 696.284883 " transform="matrix(0.515632,0,0,0.515632,-359.598218,-287.917392)"/>
<path style="fill:none;stroke-width:9;stroke-linecap:butt;stroke-linejoin:miter;stroke:rgb(100%,100%,100%);stroke-opacity:1;stroke-miterlimit:4;" d="M 924.587022 676.754846 L 950.374551 676.754846 " transform="matrix(0.515632,0,0,0.515632,-359.598218,-287.917392)"/>
</g>
</svg>
