<?xml version="1.0" encoding="UTF-8"?>
<svg xmlns="http://www.w3.org/2000/svg" xmlns:xlink="http://www.w3.org/1999/xlink" width="256" height="256" viewBox="0 0 256 256" version="1.1">
<g id="surface1">
<path style=" stroke:none;fill-rule:evenodd;fill:rgb(71.764706%,16.470588%,5.098039%);fill-opacity:1;" d="M 32.273438 78.773438 L 59.523438 105.445312 L 58.671875 68.046875 L 32.257812 67.921875 Z M 32.273438 78.773438 "/>
<path style="fill-rule:evenodd;fill:rgb(94.901961%,94.901961%,94.901961%);fill-opacity:1;stroke-width:5.03546;stroke-linecap:butt;stroke-linejoin:miter;stroke:rgb(68.627451%,68.627451%,68.627451%);stroke-opacity:1;stroke-miterlimit:4;" d="M 97.045898 1029.840207 L 433.929443 1028.66528 L 435.10437 664.773679 L 347.061157 575.570798 L 97.045898 575.570798 Z M 97.045898 1029.840207 " transform="matrix(0.512,0,0,0.512,0,-282.809436)"/>
<path style="fill-rule:evenodd;fill:rgb(68.627451%,68.627451%,68.627451%);fill-opacity:1;stroke-width:5.03546;stroke-linecap:butt;stroke-linejoin:miter;stroke:rgb(68.627451%,68.627451%,68.627451%);stroke-opacity:1;stroke-miterlimit:4;" d="M 431.518555 662.927365 L 349.349976 662.347531 L 350.112915 578.546262 Z M 431.518555 662.927365 " transform="matrix(0.512,0,0,0.512,0,-282.809436)"/>
<path style=" stroke:none;fill-rule:nonzero;fill:rgb(94.117647%,22.352941%,8.627451%);fill-opacity:1;" d="M 32.328125 35.75 L 147.492188 35.75 L 147.492188 78.9375 L 32.328125 78.9375 Z M 32.328125 35.75 "/>
<path style=" stroke:none;fill-rule:nonzero;fill:rgb(94.117647%,22.352941%,8.627451%);fill-opacity:1;" d="M 133.875 139.554688 L 147.296875 161.953125 L 120.75 161.757812 Z M 133.875 139.554688 "/>
<path style=" stroke:none;fill-rule:nonzero;fill:rgb(50.196078%,0%,0%);fill-opacity:1;" d="M 110.171875 161.179688 L 158.15625 161.179688 L 133.992188 241.796875 Z M 110.171875 161.179688 "/>
<path style=" stroke:none;fill-rule:nonzero;fill:rgb(94.117647%,22.352941%,8.627451%);fill-opacity:1;" d="M 69.929688 164.84375 L 133.929688 241.734375 L 111.390625 161.179688 L 73.742188 161.085938 Z M 69.929688 164.84375 "/>
<path style=" stroke:none;fill-rule:nonzero;fill:rgb(94.117647%,22.352941%,8.627451%);fill-opacity:1;" d="M 197.929688 164.84375 L 133.929688 241.734375 L 156.46875 161.179688 L 194.117188 161.078125 Z M 197.929688 164.84375 "/>
<path style=" stroke:none;fill-rule:nonzero;fill:rgb(83.137255%,0%,0%);fill-opacity:1;" d="M 73.65625 161.164062 L 111.390625 161.226562 L 106.007812 139.320312 L 95.5 139.320312 Z M 73.65625 161.164062 "/>
<path style=" stroke:none;fill-rule:nonzero;fill:rgb(83.137255%,0%,0%);fill-opacity:1;" d="M 194.203125 161.179688 L 156.46875 161.242188 L 161.851562 139.335938 L 172.359375 139.335938 Z M 194.203125 161.179688 "/>
<path style=" stroke:none;fill-rule:nonzero;fill:rgb(50.196078%,0%,0%);fill-opacity:1;" d="M 134.40625 139.476562 L 105.84375 139.320312 L 111.21875 161.226562 L 121.734375 161.226562 Z M 134.40625 139.476562 "/>
<path style=" stroke:none;fill-rule:nonzero;fill:rgb(50.196078%,0%,0%);fill-opacity:1;" d="M 133.445312 139.476562 L 162 139.320312 L 156.625 161.226562 L 146.117188 161.226562 Z M 133.445312 139.476562 "/>
<path style="fill:none;stroke-width:9.063828;stroke-linecap:butt;stroke-linejoin:miter;stroke:rgb(100%,100%,100%);stroke-opacity:1;stroke-miterlimit:4;" d="M 384.453311 735.903782 L 384.453311 679.461521 C 384.453311 679.461521 415.276064 673.525853 415.169253 693.789524 C 415.062441 714.053196 385.078921 708.514256 385.078921 708.514256 " transform="matrix(0.512,0,0,0.512,-126.38697,-304.274924)"/>
<path style="fill:none;stroke-width:9;stroke-linecap:butt;stroke-linejoin:miter;stroke:rgb(100%,100%,100%);stroke-opacity:1;stroke-miterlimit:4;" d="M 392.464175 710.452122 L 418.404116 734.92722 " transform="matrix(0.512,0,0,0.512,-126.38697,-304.274924)"/>
<path style="fill:none;stroke-width:9;stroke-linecap:butt;stroke-linejoin:miter;stroke:rgb(100%,100%,100%);stroke-opacity:1;stroke-miterlimit:4;" d="M 193.237305 637.750363 L 193.237305 690.71362 L 213.424683 690.71362 C 213.424683 690.71362 229.217529 691.537595 228.683472 676.751828 C 228.149414 661.98132 214.660645 662.271237 214.660645 662.271237 L 196.533203 662.271237 L 214.46228 662.072873 C 214.46228 662.072873 225.616455 661.767697 225.479126 649.392819 C 225.357056 637.017941 210.021973 637.750363 210.021973 637.750363 Z M 193.237305 637.750363 " transform="matrix(0.512,0,0,0.512,0,-282.809436)"/>
</g>
</svg>
