<?xml version="1.0" encoding="UTF-8"?>
<svg xmlns="http://www.w3.org/2000/svg" xmlns:xlink="http://www.w3.org/1999/xlink" width="256" height="256" viewBox="0 0 256 256" version="1.1">
<g id="surface1">
<path style=" stroke:none;fill-rule:evenodd;fill:rgb(66.666667%,26.666667%,0%);fill-opacity:1;" d="M 32.273438 78.773438 L 59.523438 105.445312 L 58.671875 68.046875 L 32.257812 67.921875 Z M 32.273438 78.773438 "/>
<path style="fill-rule:evenodd;fill:rgb(94.901961%,94.901961%,94.901961%);fill-opacity:1;stroke-width:5.03546;stroke-linecap:butt;stroke-linejoin:miter;stroke:rgb(68.627451%,68.627451%,68.627451%);stroke-opacity:1;stroke-miterlimit:4;" d="M 97.045898 1029.840207 L 433.929443 1028.66528 L 435.10437 664.773679 L 347.061157 575.570798 L 97.045898 575.570798 Z M 97.045898 1029.840207 " transform="matrix(0.512,0,0,0.512,0,-282.809436)"/>
<path style="fill-rule:evenodd;fill:rgb(68.627451%,68.627451%,68.627451%);fill-opacity:1;stroke-width:5.03546;stroke-linecap:butt;stroke-linejoin:miter;stroke:rgb(68.627451%,68.627451%,68.627451%);stroke-opacity:1;stroke-miterlimit:4;" d="M 431.518555 662.927365 L 349.349976 662.347531 L 350.112915 578.546262 Z M 431.518555 662.927365 " transform="matrix(0.512,0,0,0.512,0,-282.809436)"/>
<path style=" stroke:none;fill-rule:nonzero;fill:rgb(100%,40%,0%);fill-opacity:1;" d="M 32.328125 35.75 L 174.945312 35.75 L 174.945312 78.9375 L 32.328125 78.9375 Z M 32.328125 35.75 "/>
<path style="fill:none;stroke-width:22.55397;stroke-linecap:butt;stroke-linejoin:miter;stroke:rgb(100%,40%,0%);stroke-opacity:1;stroke-miterlimit:4;" d="M 225.769043 1023.355222 L 285.873413 799.676633 " transform="matrix(0.512,0,0,0.512,0,-282.809436)"/>
<path style="fill:none;stroke-width:22.55397;stroke-linecap:butt;stroke-linejoin:miter;stroke:rgb(100%,40%,0%);stroke-opacity:1;stroke-miterlimit:4;" d="M 208.4198 970.056271 L 150.802612 911.813474 L 209.04541 854.196286 " transform="matrix(0.512,0,0,0.512,0,-282.809436)"/>
<path style="fill:none;stroke-width:22.55397;stroke-linecap:butt;stroke-linejoin:miter;stroke:rgb(100%,40%,0%);stroke-opacity:1;stroke-miterlimit:4;" d="M 311.279297 968.515134 L 368.911743 910.272336 L 310.653687 852.63989 " transform="matrix(0.512,0,0,0.512,0,-282.809436)"/>
<path style="fill:none;stroke-width:9;stroke-linecap:butt;stroke-linejoin:miter;stroke:rgb(100%,100%,100%);stroke-opacity:1;stroke-miterlimit:4;" d="M 42.437249 990.898681 L 81.774407 1049.171996 " transform="matrix(0.512,0,0,0.512,17.545566,-466.176062)"/>
<path style="fill:none;stroke-width:9;stroke-linecap:butt;stroke-linejoin:miter;stroke:rgb(100%,100%,100%);stroke-opacity:1;stroke-miterlimit:4;" d="M 80.172234 990.898681 L 40.835076 1049.171996 " transform="matrix(0.512,0,0,0.512,17.545566,-466.176062)"/>
<path style="fill:none;stroke-width:9;stroke-linecap:butt;stroke-linejoin:miter;stroke:rgb(100%,100%,100%);stroke-opacity:1;stroke-miterlimit:4;" d="M 311.208838 528.441428 L 311.498755 582.930563 " transform="matrix(0.512,0,0,0.512,-93.1983,-228.608886)"/>
<path style="fill:none;stroke-width:9;stroke-linecap:butt;stroke-linejoin:miter;stroke:rgb(100%,100%,100%);stroke-opacity:1;stroke-miterlimit:4;" d="M 346.288794 527.968405 L 346.578711 582.457541 " transform="matrix(0.512,0,0,0.512,-93.1983,-228.608886)"/>
<path style="fill:none;stroke-width:9;stroke-linecap:butt;stroke-linejoin:miter;stroke:rgb(100%,100%,100%);stroke-opacity:1;stroke-miterlimit:4;" d="M 310.888403 555.037497 L 347.494238 555.037497 " transform="matrix(0.512,0,0,0.512,-93.1983,-228.608886)"/>
<path style="fill:none;stroke-width:9;stroke-linecap:butt;stroke-linejoin:miter;stroke:rgb(100%,100%,100%);stroke-opacity:1;stroke-miterlimit:4;" d="M 122.798687 699.612832 L 122.798687 642.331338 " transform="matrix(0.512,0,0,0.512,39.470822,-286.45177)"/>
<path style="fill:none;stroke-width:8.670217;stroke-linecap:butt;stroke-linejoin:miter;stroke:rgb(100%,100%,100%);stroke-opacity:1;stroke-miterlimit:4;" d="M 96.217877 642.743325 L 149.379498 642.743325 " transform="matrix(0.512,0,0,0.512,39.470822,-286.45177)"/>
<path style="fill:none;stroke-width:9;stroke-linecap:butt;stroke-linejoin:miter;stroke:rgb(100%,100%,100%);stroke-opacity:1;stroke-miterlimit:4;" d="M 235.290527 690.362668 L 235.595703 635.812497 L 240.615845 635.583615 L 256.500244 676.889157 L 259.841919 676.889157 L 275.802612 635.583615 L 281.051636 635.52258 L 281.051636 690.515256 " transform="matrix(0.512,0,0,0.512,0,-282.809436)"/>
<path style="fill:none;stroke-width:9;stroke-linecap:butt;stroke-linejoin:miter;stroke:rgb(100%,100%,100%);stroke-opacity:1;stroke-miterlimit:4;" d="M 296.829224 630.517697 L 297.119141 685.006833 L 328.872681 685.29675 " transform="matrix(0.512,0,0,0.512,0,-282.809436)"/>
</g>
</svg>
