<?xml version="1.0" encoding="UTF-8"?>
<svg xmlns="http://www.w3.org/2000/svg" xmlns:xlink="http://www.w3.org/1999/xlink" width="256" height="256" viewBox="0 0 256 256" version="1.1">
<g id="surface1">
<path style=" stroke:none;fill-rule:evenodd;fill:rgb(50.196078%,50.196078%,50.196078%);fill-opacity:1;" d="M 32.273438 78.773438 L 59.523438 105.445312 L 58.671875 68.046875 L 32.257812 67.921875 Z M 32.273438 78.773438 "/>
<path style="fill-rule:evenodd;fill:rgb(94.901961%,94.901961%,94.901961%);fill-opacity:1;stroke-width:5.03546;stroke-linecap:butt;stroke-linejoin:miter;stroke:rgb(68.627451%,68.627451%,68.627451%);stroke-opacity:1;stroke-miterlimit:4;" d="M 97.045898 1029.840207 L 433.929443 1028.66528 L 435.10437 664.773679 L 347.061157 575.570798 L 97.045898 575.570798 Z M 97.045898 1029.840207 " transform="matrix(0.512,0,0,0.512,0,-282.809436)"/>
<path style="fill-rule:evenodd;fill:rgb(68.627451%,68.627451%,68.627451%);fill-opacity:1;stroke-width:5.03546;stroke-linecap:butt;stroke-linejoin:miter;stroke:rgb(68.627451%,68.627451%,68.627451%);stroke-opacity:1;stroke-miterlimit:4;" d="M 431.518555 662.927365 L 349.349976 662.347531 L 350.112915 578.546262 Z M 431.518555 662.927365 " transform="matrix(0.512,0,0,0.512,0,-282.809436)"/>
<path style=" stroke:none;fill-rule:nonzero;fill:rgb(60%,60%,60%);fill-opacity:1;" d="M 32.328125 35.75 L 147.492188 35.75 L 147.492188 78.9375 L 32.328125 78.9375 Z M 32.328125 35.75 "/>
<path style=" stroke:none;fill-rule:nonzero;fill:rgb(80%,80%,80%);fill-opacity:1;" d="M 84.65625 113.65625 L 181.75 113.65625 C 190.289062 113.65625 197.203125 122.117188 197.203125 132.5625 L 197.203125 222.742188 C 197.203125 233.1875 190.289062 241.65625 181.75 241.65625 L 84.65625 241.65625 C 76.125 241.65625 69.203125 233.1875 69.203125 222.742188 L 69.203125 132.5625 C 69.203125 122.117188 76.125 113.65625 84.65625 113.65625 Z M 84.65625 113.65625 "/>
<path style=" stroke:none;fill-rule:nonzero;fill:rgb(70.196078%,70.196078%,70.196078%);fill-opacity:1;" d="M 95.070312 128.25 L 170.59375 128.25 C 177.226562 128.25 182.609375 134.835938 182.609375 142.953125 L 182.609375 213.09375 C 182.609375 221.21875 177.226562 227.804688 170.59375 227.804688 L 95.070312 227.804688 C 88.4375 227.804688 83.054688 221.21875 83.054688 213.09375 L 83.054688 142.953125 C 83.054688 134.835938 88.4375 128.25 95.070312 128.25 Z M 95.070312 128.25 "/>
<path style=" stroke:none;fill-rule:nonzero;fill:rgb(22.352941%,25.098039%,31.372549%);fill-opacity:1;" d="M 139.390625 201.070312 L 119.75 153.320312 L 114.359375 153.320312 L 94.59375 201.070312 L 101.359375 201.070312 L 107.46875 185.367188 L 126.320312 185.367188 L 132.554688 201.070312 Z M 123.953125 180.046875 L 109.765625 180.046875 L 117.054688 160.476562 Z M 123.953125 180.046875 "/>
<path style=" stroke:none;fill-rule:nonzero;fill:rgb(22.352941%,25.098039%,31.372549%);fill-opacity:1;" d="M 153.6875 201.984375 C 157.890625 201.984375 161.703125 200.476562 165.046875 197.585938 L 166.039062 201.984375 L 171.8125 200.742188 C 170.898438 197.453125 170.4375 194.5625 170.4375 192.070312 L 170.4375 180.90625 C 170.4375 171.3125 165.835938 166.523438 156.445312 166.523438 C 152.4375 166.523438 148.171875 167.179688 143.703125 168.492188 L 144.359375 174.070312 C 148.632812 172.429688 152.570312 171.640625 156.117188 171.640625 C 160.914062 171.640625 163.601562 174.140625 164.265625 179.0625 C 149.289062 179.265625 141.796875 183.53125 141.796875 191.875 C 141.796875 198.179688 147.117188 201.984375 153.6875 201.984375 Z M 164.265625 190.429688 C 164.265625 194.039062 158.023438 196.539062 153.953125 196.539062 C 150.078125 196.539062 148.101562 194.765625 148.101562 191.28125 C 148.101562 186.945312 153.554688 184.648438 164.265625 184.453125 Z M 164.265625 190.429688 "/>
<path style="fill:none;stroke-width:9;stroke-linecap:butt;stroke-linejoin:bevel;stroke:rgb(100%,100%,100%);stroke-opacity:1;stroke-miterlimit:4;" d="M 915.695273 696.282257 L 937.831336 638.01032 L 960.573452 696.282257 " transform="matrix(0.515632,0,0,0.515632,-413.67741,-286.3301)"/>
<path style="fill:none;stroke-width:9;stroke-linecap:butt;stroke-linejoin:miter;stroke:rgb(100%,100%,100%);stroke-opacity:1;stroke-miterlimit:4;" d="M 924.57394 676.752219 L 950.361469 676.752219 " transform="matrix(0.515632,0,0,0.515632,-413.67741,-286.3301)"/>
<path style="fill:none;stroke-width:9;stroke-linecap:butt;stroke-linejoin:miter;stroke:rgb(100%,100%,100%);stroke-opacity:1;stroke-miterlimit:4;" d="M 233.385968 692.516732 L 233.797955 640.804696 L 268.237042 640.942025 " transform="matrix(0.512,0,0,0.512,-28.876428,-283.302942)"/>
<path style="fill:none;stroke-width:9;stroke-linecap:butt;stroke-linejoin:miter;stroke:rgb(100%,100%,100%);stroke-opacity:1;stroke-miterlimit:4;" d="M 236.13255 664.57789 L 265.261578 664.730478 " transform="matrix(0.512,0,0,0.512,-28.876428,-283.302942)"/>
<path style="fill:none;stroke-width:9;stroke-linecap:butt;stroke-linejoin:miter;stroke:rgb(100%,100%,100%);stroke-opacity:1;stroke-miterlimit:4;" d="M 227.676392 692.98718 L 227.966309 638.42175 L 232.98645 638.208127 L 248.87085 679.513669 L 252.227783 679.513669 L 268.173218 638.208127 L 273.422241 638.131833 L 273.422241 693.139768 " transform="matrix(0.512,0,0,0.512,0,-282.809436)"/>
</g>
</svg>
