<?xml version="1.0" encoding="UTF-8"?>
<svg xmlns="http://www.w3.org/2000/svg" xmlns:xlink="http://www.w3.org/1999/xlink" width="256" height="256" viewBox="0 0 256 256" version="1.1">
<g id="surface1">
<path style=" stroke:none;fill-rule:evenodd;fill:rgb(20%,20%,20%);fill-opacity:1;" d="M 32.273438 78.773438 L 59.523438 105.445312 L 58.671875 68.046875 L 32.257812 67.921875 Z M 32.273438 78.773438 "/>
<path style="fill-rule:evenodd;fill:rgb(94.901961%,94.901961%,94.901961%);fill-opacity:1;stroke-width:5.03546;stroke-linecap:butt;stroke-linejoin:miter;stroke:rgb(68.627451%,68.627451%,68.627451%);stroke-opacity:1;stroke-miterlimit:4;" d="M 97.045898 1029.840207 L 433.929443 1028.66528 L 435.10437 664.773679 L 347.061157 575.570798 L 97.045898 575.570798 Z M 97.045898 1029.840207 " transform="matrix(0.512,0,0,0.512,0,-282.809436)"/>
<path style="fill-rule:evenodd;fill:rgb(68.627451%,68.627451%,68.627451%);fill-opacity:1;stroke-width:5.03546;stroke-linecap:butt;stroke-linejoin:miter;stroke:rgb(68.627451%,68.627451%,68.627451%);stroke-opacity:1;stroke-miterlimit:4;" d="M 431.518555 662.927365 L 349.349976 662.347531 L 350.112915 578.546262 Z M 431.518555 662.927365 " transform="matrix(0.512,0,0,0.512,0,-282.809436)"/>
<path style=" stroke:none;fill-rule:nonzero;fill:rgb(22.352941%,25.098039%,31.372549%);fill-opacity:1;" d="M 32.328125 35.75 L 147.492188 35.75 L 147.492188 78.9375 L 32.328125 78.9375 Z M 32.328125 35.75 "/>
<path style=" stroke:none;fill-rule:nonzero;fill:rgb(22.352941%,25.098039%,31.372549%);fill-opacity:1;" d="M 74.554688 144.835938 L 188.125 144.835938 C 192.109375 144.835938 195.335938 148.0625 195.335938 152.046875 L 195.335938 235.421875 C 195.335938 239.40625 192.109375 242.640625 188.125 242.640625 L 74.554688 242.640625 C 70.570312 242.640625 67.335938 239.40625 67.335938 235.421875 L 67.335938 152.046875 C 67.335938 148.0625 70.570312 144.835938 74.554688 144.835938 Z M 74.554688 144.835938 "/>
<path style=" stroke:none;fill-rule:nonzero;fill:rgb(100%,100%,100%);fill-opacity:1;" d="M 84.34375 156.328125 L 178.875 156.328125 C 181.84375 156.328125 184.25 158.734375 184.25 161.703125 L 184.25 223.84375 C 184.25 226.8125 181.84375 229.21875 178.875 229.21875 L 84.34375 229.21875 C 81.367188 229.21875 78.960938 226.8125 78.960938 223.84375 L 78.960938 161.703125 C 78.960938 158.734375 81.367188 156.328125 84.34375 156.328125 Z M 84.34375 156.328125 "/>
<path style=" stroke:none;fill-rule:nonzero;fill:rgb(22.352941%,25.098039%,31.372549%);fill-opacity:1;" d="M 91.851562 163.804688 L 135.015625 163.804688 C 137.414062 163.804688 139.351562 165.75 139.351562 168.140625 L 139.351562 218.257812 C 139.351562 220.65625 137.414062 222.59375 135.015625 222.59375 L 91.851562 222.59375 C 89.453125 222.59375 87.515625 220.65625 87.515625 218.257812 L 87.515625 168.140625 C 87.515625 165.75 89.453125 163.804688 91.851562 163.804688 Z M 91.851562 163.804688 "/>
<path style=" stroke:none;fill-rule:nonzero;fill:rgb(100%,100%,100%);fill-opacity:1;" d="M 99.492188 172.148438 L 99.492188 181.3125 L 118.570312 181.40625 C 118.570312 181.40625 111.21875 191.054688 108.75 198.320312 C 106.273438 205.585938 106.007812 215.890625 106.007812 215.890625 L 115.265625 215.984375 C 115.265625 215.984375 115.421875 205.796875 117.914062 198.414062 C 120.398438 191.03125 129.4375 181.03125 129.4375 181.03125 L 129.4375 172.054688 Z M 99.492188 172.148438 "/>
<path style=" stroke:none;fill-rule:nonzero;fill:rgb(22.352941%,25.098039%,31.372549%);fill-opacity:1;" d="M 148.679688 194.007812 L 148.773438 185.976562 L 176.078125 186.070312 L 176.078125 193.15625 L 160.585938 210.734375 L 175.984375 210.632812 L 175.890625 218.570312 L 148.773438 218.382812 L 148.679688 211.390625 L 164.929688 193.820312 Z M 148.679688 194.007812 "/>
<path style="fill:none;stroke-width:9;stroke-linecap:butt;stroke-linejoin:miter;stroke:rgb(100%,100%,100%);stroke-opacity:1;stroke-miterlimit:4;" d="M 125.38147 638.223386 L 163.55896 638.80322 L 128.875732 693.872189 " transform="matrix(0.512,0,0,0.512,0,-282.809436)"/>
<path style="fill:none;stroke-width:9;stroke-linecap:butt;stroke-linejoin:miter;stroke:rgb(100%,100%,100%);stroke-opacity:1;stroke-miterlimit:4;" d="M 188.583374 638.620114 L 226.760864 639.199948 L 192.077637 689.614987 L 234.863281 689.874387 " transform="matrix(0.512,0,0,0.512,0,-282.809436)"/>
</g>
</svg>
