<?xml version="1.0" encoding="UTF-8"?>
<svg xmlns="http://www.w3.org/2000/svg" xmlns:xlink="http://www.w3.org/1999/xlink" width="256" height="256" viewBox="0 0 256 256" version="1.1">
<g id="surface1">
<path style=" stroke:none;fill-rule:evenodd;fill:rgb(84.705882%,14.901961%,0%);fill-opacity:1;" d="M 32.789062 76.210938 L 60.039062 102.882812 L 59.1875 65.484375 L 32.765625 65.359375 Z M 32.789062 76.210938 "/>
<path style="fill-rule:evenodd;fill:rgb(94.901961%,94.901961%,94.901961%);fill-opacity:1;stroke-width:5.03546;stroke-linecap:butt;stroke-linejoin:miter;stroke:rgb(68.627451%,68.627451%,68.627451%);stroke-opacity:1;stroke-miterlimit:4;" d="M 98.03772 1024.835324 L 434.936523 1023.660397 L 436.096191 659.768796 L 348.068237 570.565915 L 98.03772 570.565915 Z M 98.03772 1024.835324 " transform="matrix(0.512,0,0,0.512,0,-282.809436)"/>
<path style="fill-rule:evenodd;fill:rgb(68.627451%,68.627451%,68.627451%);fill-opacity:1;stroke-width:5.03546;stroke-linecap:butt;stroke-linejoin:miter;stroke:rgb(68.627451%,68.627451%,68.627451%);stroke-opacity:1;stroke-miterlimit:4;" d="M 432.525635 657.937741 L 350.357056 657.342648 L 351.119995 573.541379 Z M 432.525635 657.937741 " transform="matrix(0.512,0,0,0.512,0,-282.809436)"/>
<path style=" stroke:none;fill-rule:nonzero;fill:rgb(94.117647%,22.352941%,8.627451%);fill-opacity:1;" d="M 32.835938 33.1875 L 148.007812 33.1875 L 148.007812 76.375 L 32.835938 76.375 Z M 32.835938 33.1875 "/>
<path style=" stroke:none;fill-rule:nonzero;fill:rgb(94.117647%,22.352941%,8.627451%);fill-opacity:1;" d="M 136.164062 112.429688 C 171.507812 112.429688 200.164062 141.085938 200.164062 176.429688 C 200.164062 211.78125 171.507812 240.429688 136.164062 240.429688 C 100.8125 240.429688 72.164062 211.78125 72.164062 176.429688 C 72.164062 141.085938 100.8125 112.429688 136.164062 112.429688 Z M 136.164062 112.429688 "/>
<path style=" stroke:none;fill-rule:nonzero;fill:rgb(100%,100%,100%);fill-opacity:1;" d="M 159.203125 147.648438 L 159.203125 159.242188 C 147.632812 159.445312 144.789062 170.726562 144.789062 170.726562 L 153.515625 170.726562 L 153.515625 182.3125 L 139.984375 182.3125 C 131.851562 207.421875 113.125 205.179688 113.125 205.179688 L 113.125 193.59375 C 113.125 193.59375 125.007812 195.796875 131.0625 173.671875 C 138.640625 145.992188 159.203125 147.648438 159.203125 147.648438 Z M 159.203125 147.648438 "/>
<path style="fill:none;stroke-width:9;stroke-linecap:butt;stroke-linejoin:miter;stroke:rgb(100%,100%,100%);stroke-opacity:1;stroke-miterlimit:4;" d="M 233.388613 692.522712 L 233.800601 640.795417 L 268.239688 640.948005 " transform="matrix(0.512,0,0,0.512,1.63003,-286.657566)"/>
<path style="fill:none;stroke-width:9;stroke-linecap:butt;stroke-linejoin:miter;stroke:rgb(100%,100%,100%);stroke-opacity:1;stroke-miterlimit:4;" d="M 236.119937 664.583869 L 265.264224 664.721198 " transform="matrix(0.512,0,0,0.512,1.63003,-286.657566)"/>
<path style="fill:none;stroke-width:10;stroke-linecap:butt;stroke-linejoin:miter;stroke:rgb(100%,100%,100%);stroke-opacity:1;stroke-miterlimit:4;" d="M 147.918701 634.774899 C 147.918701 634.774899 138.656616 630.502438 129.852295 630.395627 C 121.047974 630.304074 115.585327 635.629392 115.280151 643.228269 C 114.974976 650.811887 119.216919 656.884885 134.368896 658.670163 C 149.520874 660.440183 148.620605 673.669553 146.759033 678.338742 C 144.882202 682.992673 136.062622 687.402463 127.090454 686.197019 C 118.103027 684.991574 110.626221 680.963254 110.626221 680.963254 " transform="matrix(0.512,0,0,0.512,0,-282.809436)"/>
<path style="fill:none;stroke-width:9;stroke-linecap:butt;stroke-linejoin:miter;stroke:rgb(100%,100%,100%);stroke-opacity:1;stroke-miterlimit:4;" d="M 160.644531 628.167844 L 168.777466 684.381223 L 173.797607 684.594846 L 189.682007 643.289304 L 193.023682 643.289304 L 208.984375 684.594846 L 214.233398 684.67114 L 221.64917 628.427243 " transform="matrix(0.512,0,0,0.512,0,-282.809436)"/>
</g>
</svg>
