<?xml version="1.0" encoding="UTF-8"?>
<svg xmlns="http://www.w3.org/2000/svg" xmlns:xlink="http://www.w3.org/1999/xlink" width="256" height="256" viewBox="0 0 256 256" version="1.1">
<g id="surface1">
<path style=" stroke:none;fill-rule:evenodd;fill:rgb(20%,20%,20%);fill-opacity:1;" d="M 32.273438 78.773438 L 59.523438 105.445312 L 58.671875 68.046875 L 32.257812 67.921875 Z M 32.273438 78.773438 "/>
<path style="fill-rule:evenodd;fill:rgb(94.901961%,94.901961%,94.901961%);fill-opacity:1;stroke-width:5.03546;stroke-linecap:butt;stroke-linejoin:miter;stroke:rgb(68.627451%,68.627451%,68.627451%);stroke-opacity:1;stroke-miterlimit:4;" d="M 97.045898 1029.840207 L 433.929443 1028.66528 L 435.10437 664.773679 L 347.061157 575.570798 L 97.045898 575.570798 Z M 97.045898 1029.840207 " transform="matrix(0.512,0,0,0.512,0,-282.809436)"/>
<path style="fill-rule:evenodd;fill:rgb(68.627451%,68.627451%,68.627451%);fill-opacity:1;stroke-width:5.03546;stroke-linecap:butt;stroke-linejoin:miter;stroke:rgb(68.627451%,68.627451%,68.627451%);stroke-opacity:1;stroke-miterlimit:4;" d="M 431.518555 662.927365 L 349.349976 662.347531 L 350.112915 578.546262 Z M 431.518555 662.927365 " transform="matrix(0.512,0,0,0.512,0,-282.809436)"/>
<path style=" stroke:none;fill-rule:nonzero;fill:rgb(22.352941%,25.098039%,31.372549%);fill-opacity:1;" d="M 32.328125 35.75 L 147.492188 35.75 L 147.492188 78.9375 L 32.328125 78.9375 Z M 32.328125 35.75 "/>
<path style=" stroke:none;fill-rule:evenodd;fill:rgb(60%,60%,60%);fill-opacity:1;" d="M 152.539062 241.109375 C 118.382812 250.15625 83.359375 229.796875 74.3125 195.632812 C 65.265625 161.476562 85.625 126.453125 119.78125 117.40625 L 135.054688 175.0625 C 132.734375 175.679688 131.359375 178.054688 131.96875 180.367188 C 132.585938 182.679688 134.960938 184.0625 137.273438 183.445312 Z M 119.78125 117.40625 C 153.945312 108.359375 188.96875 128.71875 198.015625 162.875 C 207.0625 197.039062 186.703125 232.0625 152.539062 241.109375 L 137.273438 183.445312 C 139.585938 182.835938 140.96875 180.460938 140.351562 178.148438 C 139.742188 175.828125 137.367188 174.453125 135.054688 175.0625 Z M 119.78125 117.40625 "/>
<path style=" stroke:none;fill-rule:evenodd;fill:rgb(80%,80%,80%);fill-opacity:1;" d="M 152.539062 241.109375 C 118.382812 250.15625 83.359375 229.796875 74.3125 195.632812 C 65.265625 161.476562 85.625 126.453125 119.78125 117.40625 L 135.054688 175.0625 C 132.734375 175.679688 131.359375 178.054688 131.96875 180.367188 C 132.585938 182.679688 134.960938 184.0625 137.273438 183.445312 Z M 119.78125 117.40625 C 153.945312 108.359375 188.96875 128.71875 198.015625 162.875 C 207.0625 197.039062 186.703125 232.0625 152.539062 241.109375 L 137.273438 183.445312 C 139.585938 182.835938 140.96875 180.460938 140.351562 178.148438 C 139.742188 175.828125 137.367188 174.453125 135.054688 175.0625 Z M 119.78125 117.40625 "/>
<path style=" stroke:none;fill-rule:evenodd;fill:rgb(36.470588%,41.568627%,48.235294%);fill-opacity:1;" d="M 142.015625 201.351562 C 129.8125 204.585938 117.296875 197.3125 114.0625 185.109375 C 110.835938 172.90625 118.109375 160.390625 130.3125 157.15625 L 135.054688 175.0625 C 132.734375 175.679688 131.359375 178.054688 131.96875 180.367188 C 132.585938 182.679688 134.960938 184.0625 137.273438 183.445312 Z M 130.3125 157.15625 C 142.515625 153.921875 155.03125 161.195312 158.265625 173.40625 C 161.492188 185.609375 154.21875 198.125 142.015625 201.351562 L 137.273438 183.445312 C 139.585938 182.835938 140.96875 180.460938 140.351562 178.148438 C 139.742188 175.828125 137.367188 174.453125 135.054688 175.0625 Z M 130.3125 157.15625 "/>
<path style=" stroke:none;fill-rule:evenodd;fill:rgb(60%,60%,60%);fill-opacity:1;" d="M 141.070312 197.796875 C 130.835938 200.507812 120.335938 194.40625 117.617188 184.164062 C 114.90625 173.921875 121.015625 163.421875 131.25 160.710938 L 135.054688 175.0625 C 132.734375 175.679688 131.359375 178.054688 131.96875 180.367188 C 132.585938 182.679688 134.960938 184.0625 137.273438 183.445312 Z M 131.25 160.710938 C 141.492188 158 151.992188 164.101562 154.703125 174.34375 C 157.421875 184.585938 151.3125 195.085938 141.070312 197.796875 L 137.273438 183.445312 C 139.585938 182.835938 140.96875 180.460938 140.351562 178.148438 C 139.742188 175.828125 137.367188 174.453125 135.054688 175.0625 Z M 131.25 160.710938 "/>
<path style=" stroke:none;fill-rule:evenodd;fill:rgb(36.470588%,41.568627%,48.235294%);fill-opacity:1;" d="M 138.226562 187.054688 C 133.921875 188.195312 129.507812 185.632812 128.359375 181.320312 C 127.21875 177.015625 129.789062 172.59375 134.101562 171.453125 L 135.054688 175.0625 C 132.734375 175.679688 131.359375 178.054688 131.96875 180.367188 C 132.585938 182.679688 134.960938 184.0625 137.273438 183.445312 Z M 134.101562 171.453125 C 138.40625 170.3125 142.820312 172.882812 143.960938 177.1875 C 145.101562 181.5 142.539062 185.914062 138.226562 187.054688 L 137.273438 183.445312 C 139.585938 182.835938 140.96875 180.460938 140.351562 178.148438 C 139.742188 175.828125 137.367188 174.453125 135.054688 175.0625 Z M 134.101562 171.453125 "/>
<path style="fill:none;stroke-width:9;stroke-linecap:butt;stroke-linejoin:miter;stroke:rgb(100%,100%,100%);stroke-opacity:1;stroke-miterlimit:4;" d="M 133.336527 354.163412 L 133.290751 304.6639 " transform="matrix(0.512,0,0,0.512,7.106698,-108.566042)"/>
<path style=" stroke:none;fill-rule:nonzero;fill:rgb(100%,100%,100%);fill-opacity:1;" d="M 73.171875 40.890625 L 77.703125 40.890625 L 77.703125 45.320312 L 73.171875 45.320312 Z M 73.171875 40.890625 "/>
<path style="fill:none;stroke-width:10;stroke-linecap:butt;stroke-linejoin:miter;stroke:rgb(100%,100%,100%);stroke-opacity:1;stroke-miterlimit:4;" d="M 200.866699 641.366696 C 200.866699 641.366696 191.604614 637.094235 182.800293 637.002683 C 173.995972 636.895871 168.533325 642.236447 168.228149 649.820065 C 167.922974 657.403684 172.149658 663.476682 187.316895 665.26196 C 202.468872 667.047238 201.568604 680.26135 199.691772 684.930539 C 197.8302 689.599729 189.01062 694.009519 180.023193 692.804074 C 171.051025 691.59863 163.55896 687.555051 163.55896 687.555051 " transform="matrix(0.512,0,0,0.512,0,-282.809436)"/>
<path style="fill:none;stroke-width:9;stroke-linecap:butt;stroke-linejoin:miter;stroke:rgb(100%,100%,100%);stroke-opacity:1;stroke-miterlimit:4;" d="M 239.395142 690.438962 C 227.371216 690.33215 216.049194 678.247189 215.9729 662.942624 C 215.911865 647.653317 227.966309 635.354733 240.112305 635.705686 C 252.258301 636.041379 262.863159 647.6228 263.061523 663.903928 C 263.275146 680.185056 251.434326 690.530515 239.395142 690.438962 Z M 239.395142 690.438962 " transform="matrix(0.512,0,0,0.512,0,-282.809436)"/>
</g>
</svg>
