<?xml version="1.0" encoding="UTF-8"?>
<svg xmlns="http://www.w3.org/2000/svg" xmlns:xlink="http://www.w3.org/1999/xlink" width="256" height="256" viewBox="0 0 256 256" version="1.1">
<g id="surface1">
<path style=" stroke:none;fill-rule:evenodd;fill:rgb(81.960784%,16.470588%,4.313725%);fill-opacity:1;" d="M 32.273438 78.773438 L 59.523438 105.445312 L 58.671875 68.046875 L 32.257812 67.921875 Z M 32.273438 78.773438 "/>
<path style="fill-rule:evenodd;fill:rgb(94.901961%,94.901961%,94.901961%);fill-opacity:1;stroke-width:5.03546;stroke-linecap:butt;stroke-linejoin:miter;stroke:rgb(68.627451%,68.627451%,68.627451%);stroke-opacity:1;stroke-miterlimit:4;" d="M 97.045898 1029.840207 L 433.929443 1028.66528 L 435.10437 664.773679 L 347.061157 575.570798 L 97.045898 575.570798 Z M 97.045898 1029.840207 " transform="matrix(0.512,0,0,0.512,0,-282.809436)"/>
<path style="fill-rule:evenodd;fill:rgb(68.627451%,68.627451%,68.627451%);fill-opacity:1;stroke-width:5.03546;stroke-linecap:butt;stroke-linejoin:miter;stroke:rgb(68.627451%,68.627451%,68.627451%);stroke-opacity:1;stroke-miterlimit:4;" d="M 431.518555 662.927365 L 349.349976 662.347531 L 350.112915 578.546262 Z M 431.518555 662.927365 " transform="matrix(0.512,0,0,0.512,0,-282.809436)"/>
<path style=" stroke:none;fill-rule:nonzero;fill:rgb(94.117647%,22.352941%,8.627451%);fill-opacity:1;" d="M 32.328125 35.75 L 147.492188 35.75 L 147.492188 78.9375 L 32.328125 78.9375 Z M 32.328125 35.75 "/>
<path style="fill:none;stroke-width:9;stroke-linecap:butt;stroke-linejoin:miter;stroke:rgb(100%,100%,100%);stroke-opacity:1;stroke-miterlimit:4;" d="M 380.205853 670.722964 L 346.209271 670.310977 L 346.621258 618.583682 L 381.075604 618.73627 " transform="matrix(0.512,0,0,0.512,-86.626334,-273.23047)"/>
<path style="fill:none;stroke-width:9;stroke-linecap:butt;stroke-linejoin:miter;stroke:rgb(100%,100%,100%);stroke-opacity:1;stroke-miterlimit:4;" d="M 348.955853 642.372134 L 378.084881 642.509463 " transform="matrix(0.512,0,0,0.512,-86.626334,-273.23047)"/>
<path style=" stroke:none;fill-rule:nonzero;fill:rgb(94.117647%,22.352941%,8.627451%);fill-opacity:1;" d="M 140.492188 241.726562 C 133.625 240.578125 123.78125 236.695312 117.6875 232.710938 C 104.289062 223.976562 95.546875 214.28125 90.132812 202.164062 C 88.328125 198.140625 87.351562 195.015625 84.539062 184.390625 C 83.835938 181.75 82.96875 178.835938 82.601562 177.921875 C 81.992188 176.382812 81.960938 175.859375 82.234375 170.71875 C 82.484375 165.828125 83.3125 159.21875 83.757812 158.523438 C 83.84375 158.390625 84.046875 158.359375 84.203125 158.453125 C 84.75 158.773438 85.257812 157.273438 85.757812 153.851562 C 86.03125 151.976562 86.453125 150.007812 86.703125 149.476562 C 86.953125 148.953125 87.382812 147.789062 87.648438 146.890625 C 88.265625 144.820312 89.109375 143.234375 91.710938 139.234375 C 92.859375 137.46875 94.046875 135.554688 94.351562 134.96875 C 94.71875 134.28125 95.117188 133.945312 95.484375 134.015625 C 95.835938 134.085938 96.414062 133.640625 97.023438 132.835938 C 99.671875 129.34375 112.132812 119.039062 113.28125 119.390625 C 113.601562 119.484375 114.914062 119.054688 116.203125 118.429688 C 118.546875 117.296875 119.578125 117.039062 119.578125 117.578125 C 119.578125 117.726562 119.234375 118.078125 118.820312 118.359375 C 118.101562 118.835938 118.117188 118.84375 119.242188 118.585938 C 119.882812 118.4375 120.96875 118.226562 121.648438 118.109375 C 122.484375 117.976562 122.828125 117.773438 122.710938 117.484375 C 122.609375 117.234375 122.851562 116.976562 123.3125 116.859375 C 124.460938 116.5625 126.25 116.617188 126.25 116.9375 C 126.25 117.328125 125.226562 117.726562 124.414062 117.648438 C 123.859375 117.59375 123.828125 117.640625 124.25 117.914062 C 124.664062 118.1875 124.664062 118.242188 124.273438 118.25 C 124.015625 118.25 123.890625 118.335938 123.992188 118.4375 C 124.101562 118.539062 124.796875 118.320312 125.539062 117.953125 C 126.289062 117.59375 127.648438 117.132812 128.578125 116.945312 C 129.710938 116.710938 130.257812 116.4375 130.257812 116.101562 C 130.257812 115.671875 130.78125 115.640625 134.34375 115.820312 C 136.59375 115.9375 139.984375 116.273438 141.882812 116.570312 C 145.335938 117.109375 145.335938 117.109375 146.625 116.40625 C 148.164062 115.546875 150.648438 115.4375 151.296875 116.195312 C 151.539062 116.46875 152.195312 116.921875 152.757812 117.203125 C 153.679688 117.664062 153.742188 117.664062 153.351562 117.210938 C 152.609375 116.351562 153.34375 116.375 156.195312 117.296875 C 165.390625 120.25 172.890625 125.515625 178.453125 132.921875 C 179.773438 134.679688 179.851562 135.46875 178.601562 134.398438 L 177.890625 133.789062 L 178.429688 134.8125 C 178.734375 135.375 178.976562 136.007812 178.976562 136.21875 C 178.976562 136.429688 179.867188 137.984375 180.945312 139.679688 C 183.382812 143.492188 184.0625 144.773438 183.898438 145.242188 C 183.828125 145.445312 182.75 144.101562 181.5 142.257812 C 180.25 140.414062 178.40625 137.9375 177.390625 136.742188 C 175.882812 134.960938 175.492188 134.65625 175.179688 135.039062 C 174.976562 135.296875 174.476562 135.546875 174.0625 135.601562 L 173.320312 135.710938 L 174.054688 137.09375 C 174.460938 137.851562 174.84375 138.320312 174.914062 138.132812 C 175.265625 137.125 176.898438 138.453125 177.640625 140.351562 C 177.882812 140.96875 178.523438 142.234375 179.0625 143.171875 C 179.609375 144.109375 179.984375 144.9375 179.898438 145.015625 C 179.820312 145.101562 179.320312 144.84375 178.804688 144.453125 L 177.851562 143.734375 L 178.5 144.796875 C 178.859375 145.382812 179.453125 146.101562 179.820312 146.390625 C 180.289062 146.75 180.507812 147.320312 180.53125 148.210938 C 180.570312 149.851562 181.546875 151.789062 182.078125 151.273438 C 182.90625 150.484375 183.078125 150.976562 182.867188 153.585938 C 182.71875 155.507812 182.796875 156.773438 183.164062 158.117188 C 183.71875 160.15625 183.59375 160.65625 182.789062 159.703125 C 182.273438 159.09375 182.265625 159.101562 182.5 159.726562 C 182.992188 161.078125 183.359375 163.09375 183.257812 163.882812 C 183.0625 165.359375 182.492188 164.75 182.289062 162.859375 L 182.09375 161.007812 L 182.039062 162.976562 C 182.007812 164.054688 181.742188 166.148438 181.445312 167.617188 C 181.15625 169.109375 181 170.90625 181.109375 171.671875 C 181.3125 173.109375 181.171875 173.171875 179.914062 172.140625 C 179.40625 171.71875 179.320312 171.804688 178.96875 173.054688 C 178.671875 174.101562 178.671875 174.703125 178.976562 175.585938 C 179.195312 176.21875 179.328125 177.078125 179.257812 177.492188 C 179.117188 178.453125 178.3125 178.757812 178.3125 177.851562 C 178.3125 176.710938 177.859375 177.117188 176.476562 179.5 C 172.742188 185.929688 166.835938 190.914062 160.148438 193.265625 C 156.203125 194.648438 153.554688 195.164062 149.109375 195.40625 L 145.109375 195.625 L 147.085938 196.210938 C 148.679688 196.679688 149.617188 196.75 151.921875 196.578125 C 154.945312 196.34375 158.492188 195.710938 160.101562 195.125 C 160.742188 194.890625 161.179688 194.882812 161.398438 195.09375 C 161.921875 195.59375 157.273438 197.570312 154.515625 198.015625 C 149.820312 198.78125 143.539062 197.953125 137.992188 195.851562 C 134.226562 194.429688 128.640625 190.71875 129.5 190.210938 C 129.664062 190.109375 130.726562 190.59375 131.859375 191.289062 C 133.3125 192.171875 133.929688 192.398438 133.929688 192.070312 C 133.929688 191.4375 134.140625 191.46875 135.296875 192.257812 C 136.335938 192.96875 139.546875 194.296875 141.851562 194.96875 C 144.367188 195.695312 143.390625 194.8125 140.015625 193.296875 C 129.34375 188.523438 124.90625 183.742188 122.703125 174.632812 C 121.890625 171.289062 122.757812 163.96875 124.234375 161.671875 C 124.609375 161.09375 124.914062 160.375 124.914062 160.085938 C 124.914062 158.8125 127.117188 155.460938 129.382812 153.289062 C 133.375 149.460938 137.515625 147.875 142.898438 148.109375 C 145.5 148.226562 146.609375 148.445312 148.773438 149.273438 C 151.234375 150.210938 154.328125 152.171875 153.375 152.195312 C 153.15625 152.203125 152.179688 151.882812 151.210938 151.5 C 149.734375 150.90625 148.789062 150.789062 145.4375 150.78125 C 140.734375 150.757812 138.4375 151.398438 135.09375 153.65625 C 130.351562 156.859375 127.710938 160.554688 126.78125 165.289062 C 126.148438 168.46875 126.132812 169.351562 126.617188 172.5 C 126.90625 174.320312 127.101562 174.851562 127.453125 174.726562 C 127.75 174.617188 127.921875 174.773438 127.921875 175.164062 C 127.921875 176.289062 130.476562 180.859375 132.242188 182.90625 C 136.507812 187.820312 143.398438 190.953125 149.945312 190.953125 C 153.34375 190.953125 156.085938 190.328125 158.609375 188.984375 C 159.625 188.4375 160.90625 187.773438 161.460938 187.507812 C 163.398438 186.5625 164.609375 185.484375 166.015625 183.429688 C 166.796875 182.28125 167.648438 181.351562 167.90625 181.351562 C 168.289062 181.351562 168.273438 181.515625 167.820312 182.226562 C 166.328125 184.585938 169.828125 180.296875 171.640625 177.546875 L 173.664062 174.460938 L 173.445312 172.4375 C 173.234375 170.492188 173.265625 170.375 174.234375 169.390625 C 175.164062 168.453125 175.25 168.171875 175.359375 165.65625 C 175.453125 163.40625 175.390625 162.9375 174.976562 162.9375 C 174.59375 162.9375 174.421875 162.34375 174.257812 160.367188 C 174.039062 157.765625 171.828125 148.992188 171.3125 148.6875 C 171.15625 148.59375 170.726562 147.75 170.351562 146.8125 C 169.101562 143.640625 166.898438 140.59375 163.46875 137.28125 C 158.53125 132.5 152.3125 128.8125 146.4375 127.179688 C 141.445312 125.789062 132.960938 126.296875 126.914062 128.34375 C 123.96875 129.34375 121.0625 130.664062 120.570312 131.234375 C 120.351562 131.492188 120.023438 131.617188 119.859375 131.515625 C 119.671875 131.40625 119.726562 131.117188 119.976562 130.828125 C 121.085938 129.546875 117.390625 131.898438 115.015625 133.992188 C 113.578125 135.257812 112.351562 136.335938 112.28125 136.382812 C 112.21875 136.429688 112.5 136.382812 112.90625 136.28125 C 113.585938 136.109375 113.609375 136.15625 113.242188 136.8125 C 113.007812 137.234375 111.789062 137.992188 110.289062 138.648438 C 107.765625 139.742188 106.140625 140.945312 104.84375 142.671875 C 104.328125 143.359375 104.296875 143.507812 104.703125 143.359375 C 104.992188 143.257812 105.226562 143.320312 105.226562 143.507812 C 105.226562 144.421875 104.359375 145.445312 103.078125 146.039062 C 100.234375 147.367188 95.242188 154.445312 92.570312 160.9375 C 91.375 163.835938 91.398438 163.734375 92.046875 163.734375 C 92.726562 163.734375 92.679688 164.476562 91.742188 168.476562 C 90.375 174.296875 90.375 174.117188 91.859375 182.304688 C 93.671875 192.289062 94.734375 195.625 96.75 197.695312 C 97.21875 198.179688 97.679688 199.210938 97.882812 200.242188 C 98.132812 201.484375 98.539062 202.296875 99.304688 203.078125 C 100.007812 203.78125 100.242188 204.21875 99.96875 204.3125 C 99.445312 204.5 101.09375 206.859375 102.601562 208.078125 C 103.359375 208.695312 103.921875 208.898438 104.53125 208.789062 C 105.867188 208.539062 107.226562 209.28125 109.3125 211.382812 C 111.484375 213.5625 111.703125 214.15625 110.265625 213.953125 C 109.335938 213.820312 109.320312 213.84375 109.773438 214.515625 C 110.039062 214.898438 111 215.820312 111.921875 216.5625 C 113.210938 217.609375 113.546875 218.0625 113.382812 218.554688 C 113.148438 219.257812 113.820312 219.914062 115.320312 220.46875 C 116.257812 220.804688 116.554688 221.546875 115.851562 221.773438 C 115.640625 221.835938 116.953125 223.132812 118.773438 224.65625 C 120.820312 226.367188 122.203125 227.304688 122.398438 227.117188 C 122.914062 226.640625 123.578125 226.78125 123.59375 227.382812 C 123.601562 228.039062 124.195312 228.726562 126.3125 230.570312 C 127.648438 231.726562 127.984375 231.875 128.804688 231.65625 C 129.554688 231.460938 130.03125 231.585938 131.085938 232.273438 C 133.203125 233.640625 134.484375 234.1875 135.578125 234.1875 C 136.65625 234.1875 136.8125 234.484375 136.25 235.492188 C 135.953125 236.023438 136.015625 236.109375 136.695312 236.109375 C 137.132812 236.109375 138.367188 236.398438 139.429688 236.75 C 141.859375 237.554688 142.867188 237.609375 142.265625 236.90625 C 141.367188 235.867188 142.3125 236.148438 145.523438 237.875 C 150.007812 240.289062 152.28125 240.5625 161.210938 239.78125 C 162.53125 239.664062 162.960938 239.734375 162.960938 240.0625 C 162.960938 240.335938 161.8125 240.757812 159.703125 241.242188 C 156.9375 241.890625 155.460938 242.007812 149.78125 242.078125 C 145.304688 242.132812 142.242188 242.015625 140.492188 241.726562 Z M 135.929688 193.710938 C 135.929688 193.648438 135.515625 193.351562 135.007812 193.054688 L 134.09375 192.515625 L 134.882812 193.179688 C 135.648438 193.820312 135.929688 193.960938 135.929688 193.710938 Z M 181.875 160.148438 C 181.773438 159.890625 181.6875 159.96875 181.671875 160.34375 C 181.664062 160.679688 181.742188 160.867188 181.851562 160.765625 C 181.960938 160.65625 181.96875 160.382812 181.875 160.148438 Z M 105.9375 126.34375 C 106.351562 125.835938 106.335938 125.820312 105.804688 126.21875 C 105.484375 126.460938 105.226562 126.710938 105.226562 126.78125 C 105.226562 127.046875 105.5 126.875 105.9375 126.34375 Z M 109.726562 123.382812 C 110.0625 123.023438 110.257812 122.742188 110.164062 122.742188 C 110.078125 122.742188 109.726562 123.023438 109.398438 123.382812 C 109.0625 123.734375 108.867188 124.015625 108.960938 124.015625 C 109.054688 124.015625 109.398438 123.734375 109.726562 123.382812 Z M 113.929688 121.125 C 115.03125 120.773438 115.65625 120.710938 115.890625 120.929688 C 116.117188 121.15625 116.984375 121.023438 118.585938 120.515625 C 119.875 120.109375 120.875 119.71875 120.804688 119.648438 C 120.734375 119.578125 119.664062 119.84375 118.4375 120.242188 C 116.742188 120.78125 116.140625 120.859375 115.953125 120.570312 C 115.632812 120.070312 112.59375 121.046875 111.289062 122.0625 L 110.398438 122.757812 L 111.359375 122.203125 C 111.882812 121.898438 113.039062 121.414062 113.929688 121.125 Z M 123.554688 120.3125 C 124.523438 120.039062 125.257812 119.757812 125.1875 119.6875 C 125.03125 119.539062 121.578125 120.492188 121.578125 120.679688 C 121.578125 120.875 121.609375 120.867188 123.554688 120.3125 Z M 129.085938 118.570312 L 130.421875 118.335938 L 129.25 118.304688 C 128.609375 118.289062 127.710938 118.5 127.25 118.765625 C 126.710938 119.085938 126.648438 119.179688 127.085938 119.03125 C 127.453125 118.90625 128.351562 118.695312 129.085938 118.570312 Z M 131.734375 117.960938 C 131.835938 117.804688 131.625 117.75 131.257812 117.84375 C 130.476562 118.039062 130.375 118.257812 131.070312 118.257812 C 131.335938 118.257812 131.632812 118.125 131.734375 117.960938 Z M 142.507812 118.0625 C 142.398438 117.953125 142.109375 117.945312 141.875 118.039062 C 141.609375 118.140625 141.6875 118.21875 142.070312 118.234375 C 142.429688 118.242188 142.625 118.171875 142.515625 118.0625 Z M 140.515625 117.710938 C 140.195312 117.632812 139.671875 117.632812 139.351562 117.710938 C 139.023438 117.796875 139.289062 117.859375 139.929688 117.859375 C 140.578125 117.859375 140.835938 117.796875 140.515625 117.710938 Z M 137.1875 117.382812 C 136.507812 117.3125 135.304688 117.3125 134.515625 117.382812 C 133.734375 117.445312 134.289062 117.5 135.757812 117.507812 C 137.226562 117.507812 137.875 117.453125 137.1875 117.382812 Z M 132.835938 117.101562 C 132.71875 116.992188 132.4375 116.984375 132.195312 117.078125 C 131.929688 117.179688 132.007812 117.257812 132.398438 117.273438 C 132.75 117.28125 132.945312 117.210938 132.835938 117.101562 Z M 130.578125 194.078125 C 127.171875 191.742188 125.914062 190.53125 125.914062 189.601562 C 125.914062 189.117188 126.03125 188.710938 126.171875 188.710938 C 126.65625 188.710938 132.335938 194.40625 132.210938 194.765625 C 132.140625 194.96875 131.453125 194.679688 130.578125 194.078125 Z M 128.828125 188.140625 C 127.0625 186.429688 126.492188 185.507812 127.210938 185.507812 C 127.632812 185.507812 130.921875 189.117188 130.921875 189.59375 C 130.921875 189.8125 130.882812 189.992188 130.828125 189.992188 C 130.773438 189.992188 129.875 189.164062 128.828125 188.140625 Z M 148.359375 181.132812 C 147.429688 180.773438 148.007812 180.101562 149.523438 179.789062 C 150.398438 179.609375 151.78125 179.179688 152.609375 178.820312 C 153.429688 178.46875 154.15625 178.242188 154.234375 178.304688 C 154.304688 178.375 153.929688 179.085938 153.40625 179.890625 C 152.453125 181.335938 152.4375 181.34375 150.609375 181.320312 C 149.601562 181.3125 148.585938 181.226562 148.359375 181.132812 Z M 158.367188 173.96875 C 157.46875 173.625 157.429688 173.03125 158.1875 171.015625 C 158.828125 169.289062 159.5 168.945312 159.125 170.539062 C 158.992188 171.109375 158.8125 171.9375 158.726562 172.375 L 158.578125 173.179688 L 159.242188 172.453125 C 159.640625 172.015625 160 171.007812 160.140625 169.96875 C 160.265625 169.007812 160.5 168.304688 160.664062 168.398438 C 161.070312 168.640625 161.03125 171.171875 160.585938 172.875 C 160.195312 174.367188 159.84375 174.539062 158.367188 173.96875 Z M 79.398438 169.953125 C 79.28125 169.671875 79.195312 168.578125 79.195312 167.523438 C 79.195312 166.125 79.304688 165.632812 79.609375 165.734375 C 80.109375 165.890625 80.398438 170.460938 79.914062 170.460938 C 79.742188 170.460938 79.507812 170.226562 79.398438 169.953125 Z M 159.679688 162.460938 C 159.164062 161.789062 159 161.257812 159.148438 160.695312 C 159.453125 159.539062 160.242188 159.703125 160.828125 161.039062 C 161.734375 163.125 160.945312 164.101562 159.679688 162.460938 Z M 79.328125 157.375 C 79.304688 155.5625 79.328125 155.5 80.164062 155.53125 C 80.875 155.554688 81.046875 155.742188 81.125 156.546875 C 81.21875 157.453125 80.195312 159.25 79.585938 159.25 C 79.460938 159.25 79.34375 158.40625 79.328125 157.375 Z M 165.835938 118.007812 C 165.882812 115.140625 166.382812 114.164062 166.773438 116.171875 C 167.046875 117.570312 166.703125 120.039062 166.171875 120.460938 C 165.882812 120.695312 165.796875 120.070312 165.835938 118.007812 Z M 121.984375 116.289062 C 122.117188 115.898438 126.71875 114.09375 127.570312 114.09375 C 128.570312 114.09375 126.78125 115.265625 124.710938 115.960938 C 122.414062 116.742188 121.796875 116.8125 121.984375 116.289062 Z M 121.984375 116.289062 "/>
<path style="fill:none;stroke-width:9;stroke-linecap:butt;stroke-linejoin:miter;stroke:rgb(100%,100%,100%);stroke-opacity:1;stroke-miterlimit:4;" d="M 119.445801 689.019895 L 119.918823 636.926389 C 119.918823 636.926389 159.805298 631.11279 160.324097 663.446164 C 160.827637 695.794797 119.445801 689.019895 119.445801 689.019895 Z M 119.445801 689.019895 " transform="matrix(0.512,0,0,0.512,0,-282.809436)"/>
<path style="fill:none;stroke-width:9;stroke-linecap:butt;stroke-linejoin:miter;stroke:rgb(100%,100%,100%);stroke-opacity:1;stroke-miterlimit:4;" d="M 228.19519 635.415769 L 228.19519 688.379025 L 248.397827 688.379025 C 248.397827 688.379025 264.190674 689.203 263.656616 674.417233 C 263.122559 659.646726 249.633789 659.936643 249.633789 659.936643 L 231.491089 659.936643 L 249.420166 659.738278 C 249.420166 659.738278 260.574341 659.433103 260.452271 647.058225 C 260.314941 634.683347 244.995117 635.415769 244.995117 635.415769 Z M 228.19519 635.415769 " transform="matrix(0.512,0,0,0.512,0,-282.809436)"/>
</g>
</svg>
