<?xml version="1.0" encoding="UTF-8"?>
<svg xmlns="http://www.w3.org/2000/svg" xmlns:xlink="http://www.w3.org/1999/xlink" width="256" height="256" viewBox="0 0 256 256" version="1.1">
<g id="surface1">
<path style=" stroke:none;fill-rule:evenodd;fill:rgb(20%,20%,20%);fill-opacity:1;" d="M 32.273438 76.210938 L 59.523438 102.882812 L 58.671875 65.484375 L 32.257812 65.359375 Z M 32.273438 76.210938 "/>
<path style="fill-rule:evenodd;fill:rgb(94.901961%,94.901961%,94.901961%);fill-opacity:1;stroke-width:5.03546;stroke-linecap:butt;stroke-linejoin:miter;stroke:rgb(68.627451%,68.627451%,68.627451%);stroke-opacity:1;stroke-miterlimit:4;" d="M 97.045898 1024.835324 L 433.929443 1023.660397 L 435.10437 659.768796 L 347.061157 570.565915 L 97.045898 570.565915 Z M 97.045898 1024.835324 " transform="matrix(0.512,0,0,0.512,0,-282.809436)"/>
<path style="fill-rule:evenodd;fill:rgb(68.627451%,68.627451%,68.627451%);fill-opacity:1;stroke-width:5.03546;stroke-linecap:butt;stroke-linejoin:miter;stroke:rgb(68.627451%,68.627451%,68.627451%);stroke-opacity:1;stroke-miterlimit:4;" d="M 431.518555 657.937741 L 349.349976 657.342648 L 350.112915 573.541379 Z M 431.518555 657.937741 " transform="matrix(0.512,0,0,0.512,0,-282.809436)"/>
<path style=" stroke:none;fill-rule:nonzero;fill:rgb(22.352941%,25.098039%,31.372549%);fill-opacity:1;" d="M 32.328125 33.1875 L 147.492188 33.1875 L 147.492188 76.375 L 32.328125 76.375 Z M 32.328125 33.1875 "/>
<path style="fill-rule:evenodd;fill:rgb(22.352941%,25.098039%,31.372549%);fill-opacity:1;stroke-width:11.346586;stroke-linecap:butt;stroke-linejoin:round;stroke:rgb(100%,100%,100%);stroke-opacity:1;stroke-miterlimit:4;" d="M 144.042969 810.312009 L 384.338379 810.312009 C 390.777588 810.312009 396.011353 815.530515 396.011353 821.984982 L 396.011353 1005.563474 C 396.011353 1012.017941 390.777588 1017.236447 384.338379 1017.236447 L 144.042969 1017.236447 C 137.588501 1017.236447 132.354736 1012.017941 132.354736 1005.563474 L 132.354736 821.984982 C 132.354736 815.530515 137.588501 810.312009 144.042969 810.312009 Z M 144.042969 810.312009 " transform="matrix(0.512,0,0,0.512,0,-282.809436)"/>
<path style=" stroke:none;fill-rule:nonzero;fill:rgb(100%,100%,100%);fill-opacity:1;" d="M 83.90625 164.703125 L 84.015625 162.34375 L 85.640625 161.820312 C 86.539062 161.53125 87.59375 161.164062 87.992188 160.992188 C 88.390625 160.820312 89.289062 160.492188 89.984375 160.25 C 90.679688 160.007812 91.578125 159.671875 91.976562 159.5 C 92.375 159.328125 93.257812 159.054688 93.9375 158.890625 C 95.4375 158.523438 95.765625 157.867188 94.617188 157.546875 C 94.15625 157.414062 93.460938 157.171875 93.0625 157 C 92.664062 156.828125 91.359375 156.398438 90.164062 156.054688 C 88.96875 155.710938 87.828125 155.3125 87.632812 155.171875 C 87.429688 155.039062 86.5 154.703125 85.546875 154.429688 L 83.828125 153.9375 L 83.828125 149.046875 L 84.828125 149.445312 C 86.53125 150.125 87.226562 150.390625 88.539062 150.835938 C 89.234375 151.078125 90.132812 151.40625 90.523438 151.570312 C 92.140625 152.242188 97.1875 153.96875 98.523438 154.390625 C 100.109375 154.890625 100.734375 155.15625 100.15625 155.007812 C 99.78125 154.914062 99.015625 154.492188 100.914062 155.179688 C 101.445312 155.375 101.5625 155.53125 101.5625 158.007812 L 101.5625 160.828125 L 99.304688 161.601562 C 98.0625 162.023438 95.65625 162.882812 93.96875 163.5 C 92.273438 164.125 89.296875 165.1875 87.34375 165.851562 L 83.796875 167.0625 Z M 83.90625 164.703125 "/>
<path style=" stroke:none;fill-rule:nonzero;fill:rgb(100%,100%,100%);fill-opacity:1;" d="M 105.90625 168.757812 L 105.90625 166.40625 L 125.09375 166.40625 L 125.09375 171.109375 L 105.90625 171.109375 Z M 105.90625 168.757812 "/>
<path style="fill:none;stroke-width:10;stroke-linecap:butt;stroke-linejoin:miter;stroke:rgb(100%,100%,100%);stroke-opacity:1;stroke-miterlimit:4;" d="M 182.2052 636.422849 C 182.2052 636.422849 172.943115 632.150388 164.138794 632.058835 C 155.334473 631.952023 149.871826 637.277341 149.581909 644.876218 C 149.276733 652.459836 153.503418 658.532834 168.655396 660.318112 C 183.822632 662.103391 182.907104 675.317502 181.045532 679.986691 C 179.18396 684.655881 170.349121 689.065671 161.376953 687.860227 C 152.404785 686.639523 144.91272 682.611203 144.91272 682.611203 " transform="matrix(0.512,0,0,0.512,0,-282.809436)"/>
<path style="fill:none;stroke-width:9;stroke-linecap:butt;stroke-linejoin:miter;stroke:rgb(100%,100%,100%);stroke-opacity:1;stroke-miterlimit:4;" d="M 311.206687 528.440849 L 311.496604 582.945243 " transform="matrix(0.512,0,0,0.512,-56.681574,-229.272652)"/>
<path style="fill:none;stroke-width:9;stroke-linecap:butt;stroke-linejoin:miter;stroke:rgb(100%,100%,100%);stroke-opacity:1;stroke-miterlimit:4;" d="M 346.286644 527.967826 L 346.576561 582.456962 " transform="matrix(0.512,0,0,0.512,-56.681574,-229.272652)"/>
<path style="fill:none;stroke-width:9;stroke-linecap:butt;stroke-linejoin:miter;stroke:rgb(100%,100%,100%);stroke-opacity:1;stroke-miterlimit:4;" d="M 310.886253 555.036918 L 347.507347 555.036918 " transform="matrix(0.512,0,0,0.512,-56.681574,-229.272652)"/>
</g>
</svg>
