<?xml version="1.0" encoding="UTF-8"?>
<svg xmlns="http://www.w3.org/2000/svg" xmlns:xlink="http://www.w3.org/1999/xlink" width="256" height="256" viewBox="0 0 256 256" version="1.1">
<g id="surface1">
<path style=" stroke:none;fill-rule:evenodd;fill:rgb(0%,11.372549%,39.215686%);fill-opacity:1;" d="M 32.273438 78.773438 L 59.523438 105.445312 L 58.671875 68.046875 L 32.257812 67.921875 Z M 32.273438 78.773438 "/>
<path style="fill-rule:evenodd;fill:rgb(94.901961%,94.901961%,94.901961%);fill-opacity:1;stroke-width:5.03546;stroke-linecap:butt;stroke-linejoin:miter;stroke:rgb(68.627451%,68.627451%,68.627451%);stroke-opacity:1;stroke-miterlimit:4;" d="M 97.045898 1029.840207 L 433.929443 1028.66528 L 435.10437 664.773679 L 347.061157 575.570798 L 97.045898 575.570798 Z M 97.045898 1029.840207 " transform="matrix(0.512,0,0,0.512,0,-282.809436)"/>
<path style="fill-rule:evenodd;fill:rgb(68.627451%,68.627451%,68.627451%);fill-opacity:1;stroke-width:5.03546;stroke-linecap:butt;stroke-linejoin:miter;stroke:rgb(68.627451%,68.627451%,68.627451%);stroke-opacity:1;stroke-miterlimit:4;" d="M 431.518555 662.927365 L 349.349976 662.347531 L 350.112915 578.546262 Z M 431.518555 662.927365 " transform="matrix(0.512,0,0,0.512,0,-282.809436)"/>
<path style=" stroke:none;fill-rule:nonzero;fill:rgb(0%,30.196078%,54.509804%);fill-opacity:1;" d="M 32.328125 35.75 L 176.5625 35.75 L 176.5625 78.9375 L 32.328125 78.9375 Z M 32.328125 35.75 "/>
<path style=" stroke:none;fill-rule:nonzero;fill:rgb(0%,30.196078%,54.509804%);fill-opacity:1;" d="M 74.992188 123.460938 L 74.992188 243.148438 L 194.679688 243.148438 L 194.679688 123.460938 Z M 83.96875 132.4375 L 92.945312 132.4375 L 92.945312 141.414062 L 83.96875 141.414062 Z M 176.726562 132.4375 L 185.703125 132.4375 L 185.703125 141.414062 L 176.726562 141.414062 Z M 83.96875 154.882812 L 92.945312 154.882812 L 92.945312 163.859375 L 83.96875 163.859375 Z M 176.726562 154.882812 L 185.703125 154.882812 L 185.703125 163.859375 L 176.726562 163.859375 Z M 83.96875 178.820312 L 92.945312 178.820312 L 92.945312 187.796875 L 83.96875 187.796875 Z M 176.726562 178.820312 L 185.703125 178.820312 L 185.703125 187.796875 L 176.726562 187.796875 Z M 83.96875 202.757812 L 92.945312 202.757812 L 92.945312 211.734375 L 83.96875 211.734375 Z M 176.726562 202.757812 L 185.703125 202.757812 L 185.703125 211.734375 L 176.726562 211.734375 Z M 83.96875 225.195312 L 92.945312 225.195312 L 92.945312 234.171875 L 83.96875 234.171875 Z M 176.726562 225.195312 L 185.703125 225.195312 L 185.703125 234.171875 L 176.726562 234.171875 Z M 176.726562 225.195312 "/>
<path style=" stroke:none;fill-rule:nonzero;fill:rgb(40.784314%,91.764706%,100%);fill-opacity:1;" d="M 102.234375 132.664062 L 168.0625 132.664062 L 168.0625 179.046875 L 102.234375 179.046875 Z M 102.234375 132.664062 "/>
<path style=" stroke:none;fill-rule:nonzero;fill:rgb(40.784314%,91.764706%,100%);fill-opacity:1;" d="M 101.921875 187.796875 L 167.75 187.796875 L 167.75 234.171875 L 101.921875 234.171875 Z M 101.921875 187.796875 "/>
<path style=" stroke:none;fill-rule:evenodd;fill:rgb(94.117647%,22.352941%,8.627451%);fill-opacity:0.941176;" d="M 126.648438 234.335938 C 126.648438 234.335938 128.109375 218.609375 140.039062 208.273438 C 151.96875 197.929688 167.921875 201.390625 167.921875 201.390625 L 167.765625 234.460938 Z M 126.648438 234.335938 "/>
<path style=" stroke:none;fill-rule:evenodd;fill:rgb(94.117647%,22.352941%,8.627451%);fill-opacity:0.941176;" d="M 117.296875 132.492188 C 117.296875 132.492188 117.15625 137.140625 121.007812 141.835938 C 124.867188 146.53125 129.070312 147.3125 129.070312 147.3125 L 128.945312 157.703125 L 133.554688 157.703125 L 133.679688 147.335938 C 133.679688 147.335938 137.304688 146.96875 141.492188 142.601562 C 145.671875 138.234375 145.328125 132.359375 145.328125 132.359375 Z M 117.296875 132.492188 "/>
<path style=" stroke:none;fill-rule:nonzero;fill:rgb(83.137255%,33.333333%,0%);fill-opacity:0.941176;" d="M 128.820312 159.085938 L 133.523438 159.085938 L 133.523438 162.703125 L 128.820312 162.703125 Z M 128.820312 159.085938 "/>
<path style="fill:none;stroke-width:7.494031;stroke-linecap:butt;stroke-linejoin:miter;stroke:rgb(100%,100%,100%);stroke-opacity:1;stroke-miterlimit:4;" d="M 72.799683 688.165402 L 73.043823 642.724729 L 77.224731 642.541623 L 90.454102 676.934934 L 93.24646 676.934934 L 106.521606 642.541623 L 110.900879 642.480588 L 110.900879 688.287473 " transform="matrix(0.512,0,0,0.512,0,-282.809436)"/>
<path style="fill:none;stroke-width:7.54718;stroke-linecap:butt;stroke-linejoin:miter;stroke:rgb(100%,100%,100%);stroke-opacity:1;stroke-miterlimit:4;" d="M 122.98584 688.531613 L 122.98584 641.534543 C 122.98584 641.534543 148.651123 636.575437 148.55957 653.451657 C 148.468018 670.312619 123.504639 665.719724 123.504639 665.719724 " transform="matrix(0.512,0,0,0.512,0,-282.809436)"/>
<path style="fill:none;stroke-width:7.494031;stroke-linecap:butt;stroke-linejoin:miter;stroke:rgb(100%,100%,100%);stroke-opacity:1;stroke-miterlimit:4;" d="M 160.65979 637.445187 L 160.888672 682.809567 L 187.347412 683.053708 " transform="matrix(0.512,0,0,0.512,0,-282.809436)"/>
<path style="fill:none;stroke-width:9;stroke-linecap:butt;stroke-linejoin:bevel;stroke:rgb(100%,100%,100%);stroke-opacity:1;stroke-miterlimit:4;" d="M 915.689584 696.287061 L 937.834251 638.004919 L 960.561193 696.287061 " transform="matrix(0.42935,0,0,0.42935,-293.916948,-229.896162)"/>
<path style="fill:none;stroke-width:9;stroke-linecap:butt;stroke-linejoin:miter;stroke:rgb(100%,100%,100%);stroke-opacity:1;stroke-miterlimit:4;" d="M 924.587482 676.762634 L 950.371371 676.762634 " transform="matrix(0.42935,0,0,0.42935,-293.916948,-229.896162)"/>
<path style="fill:none;stroke-width:9;stroke-linecap:butt;stroke-linejoin:miter;stroke:rgb(100%,100%,100%);stroke-opacity:1;stroke-miterlimit:4;" d="M 516.18672 313.181052 L 536.637523 342.482875 L 556.336998 313.181052 " transform="matrix(0.426328,0,0,0.426328,-103.252352,-89.869414)"/>
<path style="fill:none;stroke-width:9;stroke-linecap:butt;stroke-linejoin:miter;stroke:rgb(100%,100%,100%);stroke-opacity:1;stroke-miterlimit:4;" d="M 536.619198 342.446225 L 536.380972 371.271595 " transform="matrix(0.426328,0,0,0.426328,-103.252352,-89.869414)"/>
<path style="fill:none;stroke-width:9;stroke-linecap:butt;stroke-linejoin:miter;stroke:rgb(100%,100%,100%);stroke-opacity:1;stroke-miterlimit:4;" d="M 380.211191 670.708406 L 346.199819 670.305254 L 346.621296 618.591844 L 381.07247 618.738444 " transform="matrix(0.426328,0,0,0.426328,-8.305614,-218.637086)"/>
<path style="fill:none;stroke-width:9;stroke-linecap:butt;stroke-linejoin:miter;stroke:rgb(100%,100%,100%);stroke-opacity:1;stroke-miterlimit:4;" d="M 348.948583 642.359488 L 378.08548 642.506089 " transform="matrix(0.426328,0,0,0.426328,-8.305614,-218.637086)"/>
<path style="fill:none;stroke-width:9.063828;stroke-linecap:butt;stroke-linejoin:miter;stroke:rgb(100%,100%,100%);stroke-opacity:1;stroke-miterlimit:4;" d="M 384.448153 735.904712 L 384.448153 679.463427 C 384.448153 679.463427 415.270958 673.526097 415.161007 693.793649 C 415.051057 714.042877 385.071206 708.508699 385.071206 708.508699 " transform="matrix(0.426328,0,0,0.426328,-5.744762,-244.861784)"/>
<path style="fill:none;stroke-width:9;stroke-linecap:butt;stroke-linejoin:miter;stroke:rgb(100%,100%,100%);stroke-opacity:1;stroke-miterlimit:4;" d="M 392.456218 710.451158 L 418.404549 734.915157 " transform="matrix(0.426328,0,0,0.426328,-5.744762,-244.861784)"/>
</g>
</svg>
