<?xml version="1.0" encoding="UTF-8"?>
<svg xmlns="http://www.w3.org/2000/svg" xmlns:xlink="http://www.w3.org/1999/xlink" width="256" height="256" viewBox="0 0 256 256" version="1.1">
<g id="surface1">
<path style=" stroke:none;fill-rule:evenodd;fill:rgb(0%,46.666667%,75.686275%);fill-opacity:1;" d="M 32.351562 79.070312 L 59.601562 105.742188 L 58.75 68.34375 L 32.335938 68.21875 Z M 32.351562 79.070312 "/>
<path style="fill-rule:evenodd;fill:rgb(94.901961%,94.901961%,94.901961%);fill-opacity:1;stroke-width:5.03546;stroke-linecap:butt;stroke-linejoin:miter;stroke:rgb(68.627451%,68.627451%,68.627451%);stroke-opacity:1;stroke-miterlimit:4;" d="M 96.908569 1029.840207 L 433.792114 1028.66528 L 434.967041 664.773679 L 346.923828 575.570798 L 96.908569 575.570798 Z M 96.908569 1029.840207 " transform="matrix(0.512,0,0,0.512,0,-282.809436)"/>
<path style="fill-rule:evenodd;fill:rgb(68.627451%,68.627451%,68.627451%);fill-opacity:1;stroke-width:5.03546;stroke-linecap:butt;stroke-linejoin:miter;stroke:rgb(68.627451%,68.627451%,68.627451%);stroke-opacity:1;stroke-miterlimit:4;" d="M 431.381226 662.927365 L 349.212646 662.347531 L 349.975586 578.546262 Z M 431.381226 662.927365 " transform="matrix(0.512,0,0,0.512,0,-282.809436)"/>
<path style=" stroke:none;fill-rule:nonzero;fill:rgb(0%,73.333333%,94.901961%);fill-opacity:1;" d="M 32.257812 35.75 L 147.421875 35.75 L 147.421875 78.9375 L 32.257812 78.9375 Z M 32.257812 35.75 "/>
<path style="fill:none;stroke-width:9.063828;stroke-linecap:butt;stroke-linejoin:miter;stroke:rgb(100%,100%,100%);stroke-opacity:1;stroke-miterlimit:4;" d="M 139.221191 693.902707 L 139.221191 637.460446 C 139.221191 637.460446 170.043945 631.524777 169.937134 651.77319 C 169.830322 672.036862 139.846802 666.513181 139.846802 666.513181 " transform="matrix(0.512,0,0,0.512,0,-282.809436)"/>
<path style=" stroke:none;fill-rule:nonzero;fill:rgb(0%,73.333333%,94.901961%);fill-opacity:1;" d="M 137.757812 243.0625 C 176.640625 243.0625 208.15625 227.085938 208.15625 207.382812 C 208.15625 187.679688 176.640625 171.703125 137.757812 171.703125 C 98.875 171.703125 67.359375 187.679688 67.359375 207.382812 C 67.359375 227.085938 98.875 243.0625 137.757812 243.0625 "/>
<path style=" stroke:none;fill-rule:nonzero;fill:rgb(100%,100%,100%);fill-opacity:1;" d="M 104.304688 211.804688 C 107.5 211.804688 109.882812 211.21875 111.398438 210.054688 C 112.890625 208.90625 113.921875 206.914062 114.460938 204.132812 C 114.96875 201.53125 114.773438 199.71875 113.890625 198.742188 C 112.984375 197.742188 111.039062 197.234375 108.085938 197.234375 L 102.984375 197.234375 L 100.148438 211.804688 Z M 87.59375 229.757812 C 87.351562 229.757812 87.125 229.648438 86.976562 229.46875 C 86.828125 229.289062 86.765625 229.046875 86.8125 228.8125 L 94.320312 190.1875 C 94.390625 189.820312 94.71875 189.546875 95.09375 189.546875 L 111.273438 189.546875 C 116.359375 189.546875 120.140625 190.929688 122.523438 193.648438 C 124.914062 196.390625 125.65625 200.21875 124.71875 205.023438 C 124.335938 206.984375 123.679688 208.804688 122.773438 210.429688 C 121.859375 212.0625 120.65625 213.570312 119.195312 214.921875 C 117.4375 216.5625 115.453125 217.75 113.296875 218.445312 C 111.179688 219.140625 108.453125 219.492188 105.203125 219.492188 L 98.65625 219.492188 L 96.78125 229.117188 C 96.710938 229.484375 96.382812 229.757812 96.007812 229.757812 Z M 87.59375 229.757812 "/>
<path style=" stroke:none;fill-rule:nonzero;fill:rgb(100%,100%,100%);fill-opacity:1;" d="M 144.007812 219.492188 C 143.773438 219.492188 143.546875 219.382812 143.398438 219.203125 C 143.242188 219.015625 143.179688 218.773438 143.226562 218.546875 L 146.546875 201.453125 C 146.867188 199.828125 146.789062 198.664062 146.328125 198.171875 C 146.046875 197.867188 145.210938 197.367188 142.726562 197.367188 L 136.710938 197.367188 L 132.53125 218.84375 C 132.460938 219.21875 132.132812 219.492188 131.75 219.492188 L 123.40625 219.492188 C 123.171875 219.492188 122.945312 219.382812 122.789062 219.203125 C 122.640625 219.015625 122.578125 218.773438 122.625 218.546875 L 130.132812 179.921875 C 130.203125 179.546875 130.53125 179.28125 130.914062 179.28125 L 139.257812 179.28125 C 139.5 179.28125 139.71875 179.382812 139.875 179.570312 C 140.023438 179.75 140.085938 179.992188 140.039062 180.226562 L 138.226562 189.546875 L 144.703125 189.546875 C 149.632812 189.546875 152.96875 190.414062 154.921875 192.203125 C 156.90625 194.03125 157.523438 196.945312 156.757812 200.875 L 153.265625 218.84375 C 153.195312 219.21875 152.867188 219.492188 152.484375 219.492188 Z M 144.007812 219.492188 "/>
<path style=" stroke:none;fill-rule:nonzero;fill:rgb(100%,100%,100%);fill-opacity:1;" d="M 169.96875 211.804688 C 173.164062 211.804688 175.554688 211.21875 177.0625 210.054688 C 178.554688 208.90625 179.585938 206.914062 180.125 204.132812 C 180.632812 201.53125 180.4375 199.71875 179.554688 198.742188 C 178.65625 197.742188 176.703125 197.234375 173.757812 197.234375 L 168.648438 197.234375 L 165.8125 211.804688 Z M 153.257812 229.757812 C 153.023438 229.757812 152.796875 229.648438 152.640625 229.46875 C 152.492188 229.289062 152.429688 229.046875 152.476562 228.8125 L 159.984375 190.1875 C 160.054688 189.820312 160.382812 189.546875 160.765625 189.546875 L 176.945312 189.546875 C 182.023438 189.546875 185.8125 190.929688 188.1875 193.648438 C 190.578125 196.390625 191.320312 200.210938 190.382812 205.023438 C 190 206.984375 189.351562 208.804688 188.4375 210.429688 C 187.53125 212.0625 186.320312 213.570312 184.859375 214.921875 C 183.109375 216.5625 181.125 217.75 178.96875 218.445312 C 176.84375 219.140625 174.125 219.492188 170.875 219.492188 L 164.320312 219.492188 L 162.453125 229.117188 C 162.375 229.484375 162.054688 229.757812 161.671875 229.757812 Z M 153.257812 229.757812 "/>
<path style="fill:none;stroke-width:9;stroke-linecap:butt;stroke-linejoin:miter;stroke:rgb(100%,100%,100%);stroke-opacity:1;stroke-miterlimit:4;" d="M 311.199902 528.451504 L 311.489819 582.94064 " transform="matrix(0.512,0,0,0.512,-64.58435,-227.56717)"/>
<path style="fill:none;stroke-width:9;stroke-linecap:butt;stroke-linejoin:miter;stroke:rgb(100%,100%,100%);stroke-opacity:1;stroke-miterlimit:4;" d="M 346.279858 527.978481 L 346.569775 582.467617 " transform="matrix(0.512,0,0,0.512,-64.58435,-227.56717)"/>
<path style="fill:none;stroke-width:9;stroke-linecap:butt;stroke-linejoin:miter;stroke:rgb(100%,100%,100%);stroke-opacity:1;stroke-miterlimit:4;" d="M 310.894727 555.047573 L 347.500562 555.047573 " transform="matrix(0.512,0,0,0.512,-64.58435,-227.56717)"/>
<path style="fill:none;stroke-width:9.063828;stroke-linecap:butt;stroke-linejoin:miter;stroke:rgb(100%,100%,100%);stroke-opacity:1;stroke-miterlimit:4;" d="M 239.318848 693.429685 L 239.318848 636.987424 C 239.318848 636.987424 270.126343 631.036496 270.019531 651.300168 C 269.91272 671.56384 239.944458 666.040158 239.944458 666.040158 " transform="matrix(0.512,0,0,0.512,0,-282.809436)"/>
</g>
</svg>
