<?xml version="1.0" encoding="UTF-8"?>
<svg xmlns="http://www.w3.org/2000/svg" xmlns:xlink="http://www.w3.org/1999/xlink" width="256" height="256" viewBox="0 0 256 256" version="1.1">
<g id="surface1">
<path style=" stroke:none;fill-rule:evenodd;fill:rgb(39.215686%,39.215686%,39.215686%);fill-opacity:1;" d="M 32.273438 78.773438 L 59.523438 105.445312 L 58.671875 68.046875 L 32.257812 67.921875 Z M 32.273438 78.773438 "/>
<path style="fill-rule:evenodd;fill:rgb(94.901961%,94.901961%,94.901961%);fill-opacity:1;stroke-width:5.03546;stroke-linecap:butt;stroke-linejoin:miter;stroke:rgb(68.627451%,68.627451%,68.627451%);stroke-opacity:1;stroke-miterlimit:4;" d="M 97.045898 1029.840207 L 433.929443 1028.66528 L 435.10437 664.773679 L 347.061157 575.570798 L 97.045898 575.570798 Z M 97.045898 1029.840207 " transform="matrix(0.512,0,0,0.512,0,-282.809436)"/>
<path style="fill-rule:evenodd;fill:rgb(68.627451%,68.627451%,68.627451%);fill-opacity:1;stroke-width:5.03546;stroke-linecap:butt;stroke-linejoin:miter;stroke:rgb(68.627451%,68.627451%,68.627451%);stroke-opacity:1;stroke-miterlimit:4;" d="M 431.518555 662.927365 L 349.349976 662.347531 L 350.112915 578.546262 Z M 431.518555 662.927365 " transform="matrix(0.512,0,0,0.512,0,-282.809436)"/>
<path style=" stroke:none;fill-rule:nonzero;fill:rgb(60%,60%,60%);fill-opacity:1;" d="M 32.328125 35.75 L 142.429688 35.75 L 142.429688 78.9375 L 32.328125 78.9375 Z M 32.328125 35.75 "/>
<path style=" stroke:none;fill-rule:nonzero;fill:rgb(80%,80%,80%);fill-opacity:0.588235;" d="M 131.09375 155.273438 C 114.046875 154.421875 98.304688 149.703125 91.5 143.40625 C 89.78125 141.8125 88.398438 139.53125 88.40625 138.273438 C 88.414062 136.15625 91.023438 132.984375 94.679688 130.648438 C 110.335938 120.65625 142.742188 118 166.492188 124.75 C 174.703125 127.085938 180.898438 130.265625 184.320312 133.898438 C 186.640625 136.351562 187.078125 137.914062 186.070312 140.125 C 183.703125 145.335938 173.179688 150.640625 159.929688 153.289062 C 154.601562 154.359375 149.523438 154.96875 143.234375 155.289062 C 137.726562 155.570312 137.03125 155.570312 131.09375 155.273438 Z M 131.09375 155.273438 "/>
<path style=" stroke:none;fill-rule:nonzero;fill:rgb(80%,80%,80%);fill-opacity:0.588235;" d="M 132.804688 243.304688 C 119.734375 242.65625 107.648438 239.03125 102.429688 234.203125 C 101.109375 232.976562 100.054688 231.226562 100.054688 230.265625 C 100.0625 228.640625 102.0625 226.210938 104.875 224.414062 C 116.882812 216.75 141.742188 214.710938 159.96875 219.890625 C 166.265625 221.679688 171.023438 224.125 173.648438 226.90625 C 175.429688 228.789062 175.757812 229.984375 174.992188 231.6875 C 173.171875 235.6875 165.09375 239.75 154.929688 241.789062 C 150.84375 242.609375 146.945312 243.070312 142.125 243.320312 C 137.898438 243.53125 137.367188 243.53125 132.804688 243.304688 Z M 132.804688 243.304688 "/>
<path style=" stroke:none;fill-rule:nonzero;fill:rgb(58.823529%,58.823529%,58.823529%);fill-opacity:0.588235;" d="M 131.9375 243.34375 C 117.9375 242.382812 106.53125 238.554688 101.609375 233.171875 C 99.851562 231.25 99.382812 230.21875 98.859375 227.21875 C 97.421875 218.929688 83.328125 143.101562 82.960938 141.6875 C 80.4375 132.023438 90.734375 123.265625 110.265625 118.46875 C 114.742188 117.375 121.539062 116.289062 126.929688 115.804688 C 131.773438 115.375 143.015625 115.375 147.859375 115.804688 C 171.484375 117.914062 189.171875 126.054688 191.835938 136.054688 C 192.351562 137.992188 192.3125 139.46875 191.65625 142.132812 C 190.953125 145.023438 175.757812 227.398438 175.757812 228.328125 C 175.757812 228.703125 175.375 229.789062 174.898438 230.726562 C 172.515625 235.507812 164.507812 239.742188 153.695312 241.945312 C 147.679688 243.171875 138.25 243.773438 131.9375 243.34375 Z M 131.9375 243.34375 "/>
<path style="fill-rule:nonzero;fill:rgb(0%,40%,50.196078%);fill-opacity:1;stroke-width:1;stroke-linecap:butt;stroke-linejoin:miter;stroke:rgb(0%,40%,50.196078%);stroke-opacity:1;stroke-miterlimit:4;" d="M 68.817589 87.32388 L 64.779571 94.426831 L 68.881685 101.465686 L 68.870031 98.365793 L 72.284575 98.301697 C 74.417209 98.243429 75.588409 96.606079 75.588409 96.606079 L 80.751013 87.760895 C 81.858118 85.27865 80.675264 83.588859 80.675264 83.588859 L 77.085914 77.441514 L 69.977136 81.549455 L 74.539573 89.439033 C 74.708552 89.85274 74.440516 90.190699 73.945232 90.184872 L 68.840897 90.219833 Z M 68.817589 87.32388 " transform="matrix(1.340772,0,0,1.340772,52.246928,85.723274)"/>
<path style="fill-rule:nonzero;fill:rgb(0%,40%,50.196078%);fill-opacity:1;stroke-width:1;stroke-linecap:butt;stroke-linejoin:miter;stroke:rgb(0%,40%,50.196078%);stroke-opacity:1;stroke-miterlimit:4;" d="M 58.474901 86.257564 L 54.326171 79.218708 L 46.180211 79.27115 L 48.872224 80.797789 L 47.217394 83.792799 C 46.203519 85.66905 47.048415 87.498686 47.048415 87.498686 L 52.146923 96.384658 C 53.749312 98.581387 55.800369 98.394927 55.800369 98.394927 L 62.9208 98.348312 L 62.897493 90.138257 L 53.784273 90.167391 C 53.341431 90.103296 53.178279 89.707069 53.434661 89.275881 L 55.94604 84.829981 Z M 58.474901 86.257564 " transform="matrix(1.340772,0,0,1.340772,52.246928,85.723274)"/>
<path style="fill-rule:nonzero;fill:rgb(0%,40%,50.196078%);fill-opacity:1;stroke-width:1;stroke-linecap:butt;stroke-linejoin:miter;stroke:rgb(0%,40%,50.196078%);stroke-opacity:1;stroke-miterlimit:4;" d="M 64.569803 77.843568 L 72.744898 77.779472 L 76.782916 70.705656 L 74.108385 72.267256 L 72.348671 69.336342 C 71.229912 67.51836 69.22547 67.3319 69.22547 67.3319 L 58.981838 67.279458 C 56.272345 67.570801 55.409969 69.435399 55.409969 69.435399 L 51.884714 75.623531 L 58.993492 79.713992 L 63.538448 71.818587 C 63.818138 71.463148 64.243499 71.527244 64.4824 71.964259 L 67.075356 76.36937 Z M 64.569803 77.843568 " transform="matrix(1.340772,0,0,1.340772,52.246928,85.723274)"/>
<path style="fill:none;stroke-width:9;stroke-linecap:butt;stroke-linejoin:miter;stroke:rgb(100%,100%,100%);stroke-opacity:1;stroke-miterlimit:4;" d="M 134.033203 695.12341 L 199.310303 632.180905 " transform="matrix(0.512,0,0,0.512,0,-282.809436)"/>
<path style="fill-rule:nonzero;fill:rgb(60%,60%,60%);fill-opacity:1;stroke-width:9.11013;stroke-linecap:butt;stroke-linejoin:bevel;stroke:rgb(100%,100%,100%);stroke-opacity:1;stroke-miterlimit:4;" d="M 153.900146 642.572141 C 153.900146 648.339963 149.230957 653.024411 143.463135 653.024411 C 137.695312 653.024411 133.010864 648.339963 133.010864 642.572141 C 133.010864 636.804318 137.695312 632.135129 143.463135 632.135129 C 149.230957 632.135129 153.900146 636.804318 153.900146 642.572141 Z M 153.900146 642.572141 " transform="matrix(0.512,0,0,0.512,0,-282.809436)"/>
<path style="fill-rule:nonzero;fill:rgb(60%,60%,60%);fill-opacity:1;stroke-width:9.11013;stroke-linecap:butt;stroke-linejoin:bevel;stroke:rgb(100%,100%,100%);stroke-opacity:1;stroke-miterlimit:4;" d="M 199.859619 684.945798 C 199.859619 690.71362 195.19043 695.398068 189.422607 695.398068 C 183.654785 695.398068 178.970337 690.71362 178.970337 684.945798 C 178.970337 679.177976 183.654785 674.508786 189.422607 674.508786 C 195.19043 674.508786 199.859619 679.177976 199.859619 684.945798 Z M 199.859619 684.945798 " transform="matrix(0.512,0,0,0.512,0,-282.809436)"/>
</g>
</svg>
