<?xml version="1.0" encoding="UTF-8"?>
<svg xmlns="http://www.w3.org/2000/svg" xmlns:xlink="http://www.w3.org/1999/xlink" width="256" height="256" viewBox="0 0 256 256" version="1.1">
<g id="surface1">
<path style=" stroke:none;fill-rule:evenodd;fill:rgb(10.196078%,10.196078%,10.196078%);fill-opacity:1;" d="M 32.273438 78.773438 L 59.523438 105.445312 L 58.671875 68.046875 L 32.257812 67.921875 Z M 32.273438 78.773438 "/>
<path style="fill-rule:evenodd;fill:rgb(94.901961%,94.901961%,94.901961%);fill-opacity:1;stroke-width:5.03546;stroke-linecap:butt;stroke-linejoin:miter;stroke:rgb(68.627451%,68.627451%,68.627451%);stroke-opacity:1;stroke-miterlimit:4;" d="M 97.045898 1029.840207 L 433.929443 1028.66528 L 435.10437 664.773679 L 347.061157 575.570798 L 97.045898 575.570798 Z M 97.045898 1029.840207 " transform="matrix(0.512,0,0,0.512,0,-282.809436)"/>
<path style="fill-rule:evenodd;fill:rgb(68.627451%,68.627451%,68.627451%);fill-opacity:1;stroke-width:5.03546;stroke-linecap:butt;stroke-linejoin:miter;stroke:rgb(68.627451%,68.627451%,68.627451%);stroke-opacity:1;stroke-miterlimit:4;" d="M 431.518555 662.927365 L 349.349976 662.347531 L 350.112915 578.546262 Z M 431.518555 662.927365 " transform="matrix(0.512,0,0,0.512,0,-282.809436)"/>
<path style=" stroke:none;fill-rule:nonzero;fill:rgb(20%,20%,20%);fill-opacity:1;" d="M 32.328125 35.75 L 147.492188 35.75 L 147.492188 78.9375 L 32.328125 78.9375 Z M 32.328125 35.75 "/>
<path style=" stroke:none;fill-rule:evenodd;fill:rgb(20%,20%,20%);fill-opacity:1;" d="M 106.921875 124.4375 L 106.921875 209.765625 C 103.304688 206.390625 98.578125 204.210938 93.609375 204.210938 C 83.164062 204.210938 73.671875 213.710938 73.671875 224.15625 C 73.671875 234.601562 83.164062 244.101562 93.609375 244.101562 C 104.054688 244.101562 113.578125 234.601562 113.578125 224.15625 L 113.578125 124.4375 Z M 106.921875 124.4375 "/>
<path style=" stroke:none;fill-rule:evenodd;fill:rgb(20%,20%,20%);fill-opacity:1;" d="M 172.632812 116.796875 L 172.632812 202.132812 C 169.015625 198.757812 164.289062 196.570312 159.320312 196.578125 C 148.875 196.578125 139.382812 206.078125 139.382812 216.515625 C 139.382812 226.960938 148.875 236.460938 159.320312 236.460938 C 169.765625 236.460938 179.289062 226.960938 179.289062 216.515625 L 179.289062 116.796875 Z M 172.632812 116.796875 "/>
<path style=" stroke:none;fill-rule:nonzero;fill:rgb(20%,20%,20%);fill-opacity:1;" d="M 107.171875 124.523438 L 178.351562 116.101562 L 179.257812 123.765625 L 108.078125 132.1875 Z M 107.171875 124.523438 "/>
<path style="fill:none;stroke-width:9;stroke-linecap:butt;stroke-linejoin:miter;stroke:rgb(100%,100%,100%);stroke-opacity:1;stroke-miterlimit:4;" d="M 132.980347 688.653684 C 120.956421 688.562131 109.634399 676.47717 109.558105 661.172604 C 109.49707 645.883298 121.551514 633.584714 133.69751 633.920407 C 145.843506 634.271359 156.433105 645.85278 156.646729 662.133908 C 156.845093 678.415036 145.004272 688.760495 132.980347 688.653684 Z M 132.980347 688.653684 " transform="matrix(0.512,0,0,0.512,0,-282.809436)"/>
<path style="fill:none;stroke-width:9;stroke-linecap:butt;stroke-linejoin:miter;stroke:rgb(100%,100%,100%);stroke-opacity:1;stroke-miterlimit:4;" d="M 216.079712 642.938352 C 216.079712 642.938352 208.831787 635.247922 193.359375 635.354733 C 177.871704 635.461545 169.784546 651.254392 170.043945 663.614011 C 170.288086 675.988889 181.015015 689.096188 193.252563 690.362668 C 205.490112 691.629147 214.630127 685.189938 214.630127 685.189938 L 214.035034 665.078854 L 197.280884 665.292478 " transform="matrix(0.512,0,0,0.512,0,-282.809436)"/>
<path style="fill:none;stroke-width:9;stroke-linecap:butt;stroke-linejoin:bevel;stroke:rgb(100%,100%,100%);stroke-opacity:1;stroke-miterlimit:4;" d="M 915.698107 696.28295 L 937.83417 638.011014 L 960.561135 696.28295 " transform="matrix(0.515632,0,0,0.515632,-355.655434,-287.80702)"/>
<path style="fill:none;stroke-width:9;stroke-linecap:butt;stroke-linejoin:miter;stroke:rgb(100%,100%,100%);stroke-opacity:1;stroke-miterlimit:4;" d="M 924.576775 676.752912 L 950.364303 676.752912 " transform="matrix(0.515632,0,0,0.515632,-355.655434,-287.80702)"/>
</g>
</svg>
