<?xml version="1.0" encoding="UTF-8"?>
<svg xmlns="http://www.w3.org/2000/svg" xmlns:xlink="http://www.w3.org/1999/xlink" width="256" height="256" viewBox="0 0 256 256" version="1.1">
<g id="surface1">
<path style=" stroke:none;fill-rule:evenodd;fill:rgb(0%,54.509804%,74.509804%);fill-opacity:1;" d="M 32.273438 78.773438 L 59.523438 105.445312 L 58.671875 68.046875 L 32.257812 67.921875 Z M 32.273438 78.773438 "/>
<path style="fill-rule:evenodd;fill:rgb(94.901961%,94.901961%,94.901961%);fill-opacity:1;stroke-width:5.03546;stroke-linecap:butt;stroke-linejoin:miter;stroke:rgb(68.627451%,68.627451%,68.627451%);stroke-opacity:1;stroke-miterlimit:4;" d="M 97.045898 1029.840207 L 433.929443 1028.66528 L 435.10437 664.773679 L 347.061157 575.570798 L 97.045898 575.570798 Z M 97.045898 1029.840207 " transform="matrix(0.512,0,0,0.512,0,-282.809436)"/>
<path style="fill-rule:evenodd;fill:rgb(68.627451%,68.627451%,68.627451%);fill-opacity:1;stroke-width:5.03546;stroke-linecap:butt;stroke-linejoin:miter;stroke:rgb(68.627451%,68.627451%,68.627451%);stroke-opacity:1;stroke-miterlimit:4;" d="M 431.518555 662.927365 L 349.349976 662.347531 L 350.112915 578.546262 Z M 431.518555 662.927365 " transform="matrix(0.512,0,0,0.512,0,-282.809436)"/>
<path style=" stroke:none;fill-rule:nonzero;fill:rgb(0%,73.333333%,94.901961%);fill-opacity:1;" d="M 32.328125 35.75 L 148.859375 35.75 L 148.859375 78.9375 L 32.328125 78.9375 Z M 32.328125 35.75 "/>
<path style="fill:none;stroke-width:9;stroke-linecap:butt;stroke-linejoin:miter;stroke:rgb(100%,100%,100%);stroke-opacity:1;stroke-miterlimit:4;" d="M 133.337145 354.152317 L 133.291368 304.668064 " transform="matrix(0.512,0,0,0.512,8.075132,-108.786924)"/>
<path style=" stroke:none;fill-rule:nonzero;fill:rgb(100%,100%,100%);fill-opacity:1;" d="M 74.140625 40.664062 L 78.671875 40.664062 L 78.671875 45.09375 L 74.140625 45.09375 Z M 74.140625 40.664062 "/>
<path style="fill-rule:nonzero;fill:rgb(100%,40%,0%);fill-opacity:1;stroke-width:6.211854;stroke-linecap:round;stroke-linejoin:round;stroke:rgb(100%,100%,100%);stroke-opacity:1;stroke-miterlimit:4;" d="M 149.0011 832.752921 L 341.263907 832.749211 L 341.260857 992.477266 L 148.998051 992.480975 Z M 149.0011 832.752921 " transform="matrix(0.511954,-0.00685735,0.00685735,0.511954,0,-282.809436)"/>
<path style="fill-rule:nonzero;fill:rgb(0%,73.333333%,94.901961%);fill-opacity:1;stroke-width:6.211854;stroke-linecap:round;stroke-linejoin:round;stroke:rgb(100%,100%,100%);stroke-opacity:1;stroke-miterlimit:4;" d="M -270.025826 849.468176 L -77.75693 849.476521 L -77.755993 1009.208182 L -270.024889 1009.199837 Z M -270.025826 849.468176 " transform="matrix(0.456382,-0.232076,0.232076,0.456382,0,-282.809436)"/>
<path style=" stroke:none;fill-rule:nonzero;fill:rgb(100%,100%,100%);fill-opacity:1;" d="M 155.640625 197.507812 C 149.609375 198.953125 144.164062 200.257812 143.546875 200.398438 L 142.429688 200.65625 L 135.164062 184.921875 L 141.71875 181.960938 C 145.328125 180.335938 150.484375 178.046875 153.179688 176.875 L 158.078125 174.742188 L 162.664062 184.679688 C 166.984375 194.03125 167.234375 194.625 166.9375 194.742188 C 166.757812 194.8125 161.679688 196.054688 155.640625 197.507812 Z M 131.757812 203.25 L 124.289062 205.070312 L 118.351562 192.460938 L 125.289062 189.359375 C 129.09375 187.65625 132.242188 186.265625 132.28125 186.273438 C 132.3125 186.28125 133.890625 189.695312 135.78125 193.859375 L 139.226562 201.429688 Z M 114.351562 183.773438 C 112.75 180.304688 111.460938 177.453125 111.484375 177.4375 C 111.515625 177.429688 114.257812 175.429688 117.578125 173.007812 C 120.898438 170.585938 123.71875 168.554688 123.84375 168.5 C 124.023438 168.414062 124.765625 169.898438 127.546875 175.921875 L 131.023438 183.445312 L 127.476562 185.226562 C 125.53125 186.210938 122.429688 187.703125 120.601562 188.546875 L 117.265625 190.085938 Z M 130.273438 174.34375 L 126.625 166.445312 L 136.6875 159.140625 C 142.21875 155.132812 146.867188 151.742188 147.015625 151.617188 C 147.273438 151.398438 147.546875 151.945312 151.929688 161.445312 L 156.578125 171.5 L 150.5625 174.28125 C 147.25 175.8125 142.15625 178.226562 139.234375 179.65625 L 133.921875 182.25 Z M 130.273438 174.34375 "/>
<path style="fill:none;stroke-width:9;stroke-linecap:butt;stroke-linejoin:miter;stroke:rgb(100%,100%,100%);stroke-opacity:1;stroke-miterlimit:4;" d="M 213.043213 642.099118 C 213.043213 642.099118 205.429077 635.278439 191.52832 636.361813 C 177.642822 637.445187 169.754028 653.283811 170.501709 665.277219 C 171.24939 677.285886 181.762695 691.552854 195.358276 690.377927 C 208.953857 689.203 213.043213 684.41174 213.043213 684.41174 " transform="matrix(0.512,0,0,0.512,0,-282.809436)"/>
<path style="fill:none;stroke-width:9;stroke-linecap:butt;stroke-linejoin:miter;stroke:rgb(100%,100%,100%);stroke-opacity:1;stroke-miterlimit:4;" d="M 247.955322 690.71362 C 235.931396 690.622067 224.609375 678.537106 224.533081 663.232541 C 224.456787 647.943234 236.526489 635.64465 248.672485 635.995603 C 260.818481 636.331296 271.408081 647.912717 271.621704 664.193845 C 271.820068 680.474973 259.979248 690.820432 247.955322 690.71362 Z M 247.955322 690.71362 " transform="matrix(0.512,0,0,0.512,0,-282.809436)"/>
</g>
</svg>
