<?xml version="1.0" encoding="UTF-8"?>
<svg xmlns="http://www.w3.org/2000/svg" xmlns:xlink="http://www.w3.org/1999/xlink" width="256" height="256" viewBox="0 0 256 256" version="1.1">
<g id="surface1">
<path style=" stroke:none;fill-rule:evenodd;fill:rgb(19.607843%,19.607843%,19.607843%);fill-opacity:1;" d="M 32.273438 78.773438 L 59.523438 105.445312 L 58.671875 68.046875 L 32.257812 67.921875 Z M 32.273438 78.773438 "/>
<path style="fill-rule:evenodd;fill:rgb(94.901961%,94.901961%,94.901961%);fill-opacity:1;stroke-width:5.03546;stroke-linecap:butt;stroke-linejoin:miter;stroke:rgb(68.627451%,68.627451%,68.627451%);stroke-opacity:1;stroke-miterlimit:4;" d="M 97.045898 1029.840207 L 433.929443 1028.66528 L 435.10437 664.773679 L 347.061157 575.570798 L 97.045898 575.570798 Z M 97.045898 1029.840207 " transform="matrix(0.512,0,0,0.512,0,-282.809436)"/>
<path style="fill-rule:evenodd;fill:rgb(68.627451%,68.627451%,68.627451%);fill-opacity:1;stroke-width:5.03546;stroke-linecap:butt;stroke-linejoin:miter;stroke:rgb(68.627451%,68.627451%,68.627451%);stroke-opacity:1;stroke-miterlimit:4;" d="M 431.518555 662.927365 L 349.349976 662.347531 L 350.112915 578.546262 Z M 431.518555 662.927365 " transform="matrix(0.512,0,0,0.512,0,-282.809436)"/>
<path style=" stroke:none;fill-rule:nonzero;fill:rgb(40%,40%,40%);fill-opacity:1;" d="M 32.328125 35.75 L 158.046875 35.75 L 158.046875 78.9375 L 32.328125 78.9375 Z M 32.328125 35.75 "/>
<path style="fill:none;stroke-width:9;stroke-linecap:butt;stroke-linejoin:miter;stroke:rgb(100%,100%,100%);stroke-opacity:1;stroke-miterlimit:4;" d="M 380.200273 670.71393 L 346.203691 670.301942 L 346.615679 618.589906 L 381.070024 618.727235 " transform="matrix(0.512,0,0,0.512,-100.63129,-273.624282)"/>
<path style="fill:none;stroke-width:9;stroke-linecap:butt;stroke-linejoin:miter;stroke:rgb(100%,100%,100%);stroke-opacity:1;stroke-miterlimit:4;" d="M 348.950273 642.3631 L 378.094561 642.515688 " transform="matrix(0.512,0,0,0.512,-100.63129,-273.624282)"/>
<path style=" stroke:none;fill-rule:nonzero;fill:rgb(60%,60%,60%);fill-opacity:1;" d="M 79.265625 181.453125 L 193.429688 181.453125 L 193.429688 208.820312 L 79.265625 208.820312 Z M 79.265625 181.453125 "/>
<path style=" stroke:none;fill-rule:nonzero;fill:rgb(36.470588%,41.568627%,48.235294%);fill-opacity:1;" d="M 91.1875 135.90625 L 180.328125 135.90625 L 180.328125 171.484375 L 91.1875 171.484375 Z M 91.1875 135.90625 "/>
<path style=" stroke:none;fill-rule:nonzero;fill:rgb(100%,100%,100%);fill-opacity:1;" d="M 98.234375 149.46875 L 98.234375 129.015625 L 115.648438 114.914062 L 172.875 114.640625 L 173.15625 149.75 Z M 98.234375 149.46875 "/>
<path style=" stroke:none;fill-rule:nonzero;fill:rgb(40%,40%,40%);fill-opacity:1;" d="M 79.070312 147.046875 L 193.234375 147.046875 L 193.234375 182.625 L 79.070312 182.625 Z M 79.070312 147.046875 "/>
<path style=" stroke:none;fill-rule:nonzero;fill:rgb(100%,100%,100%);fill-opacity:1;" d="M 93.140625 198.851562 L 182.28125 198.851562 L 182.28125 242.640625 L 93.140625 242.640625 Z M 93.140625 198.851562 "/>
<path style=" stroke:none;fill-rule:nonzero;fill:rgb(36.470588%,41.568627%,48.235294%);fill-opacity:1;" d="M 93.140625 190.640625 L 182.28125 190.640625 L 182.28125 199.632812 L 93.140625 199.632812 Z M 93.140625 190.640625 "/>
<path style=" stroke:none;fill-rule:nonzero;fill:rgb(55.294118%,82.745098%,37.254902%);fill-opacity:1;" d="M 186.109375 157.898438 C 186.109375 160.429688 184.117188 162.484375 181.664062 162.492188 C 179.203125 162.492188 177.210938 160.4375 177.203125 157.90625 C 177.195312 155.367188 179.179688 153.3125 181.640625 153.304688 C 184.101562 153.289062 186.101562 155.335938 186.109375 157.875 "/>
<path style=" stroke:none;fill-rule:nonzero;fill:rgb(92.156863%,92.156863%,92.156863%);fill-opacity:1;" d="M 98.132812 129.117188 L 115.648438 129.117188 L 115.6875 114.84375 Z M 98.132812 129.117188 "/>
<path style=" stroke:none;fill-rule:nonzero;fill:rgb(80%,80%,80%);fill-opacity:1;" d="M 98.726562 204.414062 L 176.90625 204.414062 L 176.90625 208.703125 L 98.726562 208.703125 Z M 98.726562 204.414062 "/>
<path style=" stroke:none;fill-rule:nonzero;fill:rgb(80%,80%,80%);fill-opacity:1;" d="M 98.125 225.5625 L 176.304688 225.5625 L 176.304688 229.851562 L 98.125 229.851562 Z M 98.125 225.5625 "/>
<path style=" stroke:none;fill-rule:nonzero;fill:rgb(80%,80%,80%);fill-opacity:1;" d="M 98.125 214.5 L 176.304688 214.5 L 176.304688 218.796875 L 98.125 218.796875 Z M 98.125 214.5 "/>
<path style="fill:none;stroke-width:9.063828;stroke-linecap:butt;stroke-linejoin:miter;stroke:rgb(100%,100%,100%);stroke-opacity:1;stroke-miterlimit:4;" d="M 198.104858 692.60571 L 198.104858 636.163449 C 198.104858 636.163449 228.927612 630.212521 228.820801 650.476193 C 228.713989 670.739865 198.730469 665.216184 198.730469 665.216184 " transform="matrix(0.512,0,0,0.512,0,-282.809436)"/>
<path style="fill:none;stroke-width:10;stroke-linecap:butt;stroke-linejoin:miter;stroke:rgb(100%,100%,100%);stroke-opacity:1;stroke-miterlimit:4;" d="M 277.404785 638.482785 C 277.404785 638.482785 268.1427 634.210324 259.338379 634.118771 C 250.534058 634.01196 245.071411 639.337277 244.766235 646.936154 C 244.46106 654.519772 248.703003 660.592771 263.85498 662.378049 C 279.006958 664.163327 278.106689 677.377438 276.245117 682.046628 C 274.368286 686.715817 265.548706 691.125607 256.561279 689.920163 C 247.589111 688.714719 240.112305 684.67114 240.112305 684.67114 " transform="matrix(0.512,0,0,0.512,0,-282.809436)"/>
</g>
</svg>
