<?xml version="1.0" encoding="UTF-8"?>
<svg xmlns="http://www.w3.org/2000/svg" xmlns:xlink="http://www.w3.org/1999/xlink" width="256" height="256" viewBox="0 0 256 256" version="1.1">
<g id="surface1">
<path style=" stroke:none;fill-rule:evenodd;fill:rgb(78.431373%,6.666667%,0%);fill-opacity:1;" d="M 32.273438 78.773438 L 59.523438 105.445312 L 58.671875 68.046875 L 32.257812 67.921875 Z M 32.273438 78.773438 "/>
<path style="fill-rule:evenodd;fill:rgb(94.901961%,94.901961%,94.901961%);fill-opacity:1;stroke-width:5.03546;stroke-linecap:butt;stroke-linejoin:miter;stroke:rgb(68.627451%,68.627451%,68.627451%);stroke-opacity:1;stroke-miterlimit:4;" d="M 97.045898 1029.840207 L 433.929443 1028.66528 L 435.10437 664.773679 L 347.061157 575.570798 L 97.045898 575.570798 Z M 97.045898 1029.840207 " transform="matrix(0.512,0,0,0.512,0,-282.809436)"/>
<path style="fill-rule:evenodd;fill:rgb(68.627451%,68.627451%,68.627451%);fill-opacity:1;stroke-width:5.03546;stroke-linecap:butt;stroke-linejoin:miter;stroke:rgb(68.627451%,68.627451%,68.627451%);stroke-opacity:1;stroke-miterlimit:4;" d="M 431.518555 662.927365 L 349.349976 662.347531 L 350.112915 578.546262 Z M 431.518555 662.927365 " transform="matrix(0.512,0,0,0.512,0,-282.809436)"/>
<path style=" stroke:none;fill-rule:nonzero;fill:rgb(94.117647%,22.352941%,8.627451%);fill-opacity:1;" d="M 32.328125 35.75 L 147.492188 35.75 L 147.492188 78.9375 L 32.328125 78.9375 Z M 32.328125 35.75 "/>
<path style=" stroke:none;fill-rule:evenodd;fill:rgb(100%,40%,0%);fill-opacity:1;" d="M 104.664062 115.484375 L 139.554688 179.445312 L 104.664062 243.414062 L 122.109375 243.414062 L 148.273438 195.4375 L 174.4375 243.414062 L 191.882812 243.414062 L 163.96875 192.234375 L 160.164062 185.257812 L 157 179.445312 L 122.109375 115.484375 Z M 104.664062 115.484375 "/>
<path style=" stroke:none;fill-rule:evenodd;fill:rgb(100%,80%,0%);fill-opacity:1;" d="M 154.789062 154.617188 L 161.140625 166.25 L 187.570312 166.25 L 187.570312 154.617188 Z M 167.476562 177.875 L 173.828125 189.507812 L 187.570312 189.507812 L 187.570312 177.875 Z M 167.476562 177.875 "/>
<path style=" stroke:none;fill-rule:evenodd;fill:rgb(94.117647%,22.352941%,8.627451%);fill-opacity:1;" d="M 75.046875 115.554688 L 109.9375 179.515625 L 75.046875 243.484375 L 92.492188 243.484375 L 127.382812 179.515625 L 92.492188 115.554688 Z M 75.046875 115.554688 "/>
<path style="fill:none;stroke-width:9;stroke-linecap:butt;stroke-linejoin:miter;stroke:rgb(100%,100%,100%);stroke-opacity:1;stroke-miterlimit:4;" d="M 311.199132 528.451914 L 311.489049 582.94105 " transform="matrix(0.512,0,0,0.512,-94.966768,-228.41113)"/>
<path style="fill:none;stroke-width:9;stroke-linecap:butt;stroke-linejoin:miter;stroke:rgb(100%,100%,100%);stroke-opacity:1;stroke-miterlimit:4;" d="M 346.279088 527.978892 L 346.569005 582.468027 " transform="matrix(0.512,0,0,0.512,-94.966768,-228.41113)"/>
<path style="fill:none;stroke-width:9;stroke-linecap:butt;stroke-linejoin:miter;stroke:rgb(100%,100%,100%);stroke-opacity:1;stroke-miterlimit:4;" d="M 310.893956 555.047983 L 347.499791 555.047983 " transform="matrix(0.512,0,0,0.512,-94.966768,-228.41113)"/>
<path style="fill:none;stroke-width:10;stroke-linecap:butt;stroke-linejoin:miter;stroke:rgb(100%,100%,100%);stroke-opacity:1;stroke-miterlimit:4;" d="M 215.179443 638.070798 C 215.179443 638.070798 205.917358 633.798337 197.113037 633.706784 C 188.308716 633.599973 182.846069 638.92529 182.540894 646.524167 C 182.235718 654.107785 186.477661 660.180783 201.629639 661.966062 C 216.781616 663.75134 215.881348 676.965451 214.019775 681.634641 C 212.142944 686.30383 203.323364 690.71362 194.351196 689.508176 C 185.36377 688.302731 177.886963 684.259152 177.886963 684.259152 " transform="matrix(0.512,0,0,0.512,0,-282.809436)"/>
</g>
</svg>
