<?xml version="1.0" encoding="UTF-8"?>
<svg xmlns="http://www.w3.org/2000/svg" xmlns:xlink="http://www.w3.org/1999/xlink" width="256" height="256" viewBox="0 0 256 256" version="1.1">
<g id="surface1">
<path style=" stroke:none;fill-rule:evenodd;fill:rgb(0%,0%,0%);fill-opacity:1;" d="M 32.351562 79.070312 L 59.601562 105.742188 L 58.75 68.34375 L 32.335938 68.21875 Z M 32.351562 79.070312 "/>
<path style="fill-rule:evenodd;fill:rgb(94.901961%,94.901961%,94.901961%);fill-opacity:1;stroke-width:5.03546;stroke-linecap:butt;stroke-linejoin:miter;stroke:rgb(68.627451%,68.627451%,68.627451%);stroke-opacity:1;stroke-miterlimit:4;" d="M 96.908569 1029.840207 L 433.792114 1028.66528 L 434.967041 664.773679 L 346.923828 575.570798 L 96.908569 575.570798 Z M 96.908569 1029.840207 " transform="matrix(0.512,0,0,0.512,0,-282.809436)"/>
<path style="fill-rule:evenodd;fill:rgb(68.627451%,68.627451%,68.627451%);fill-opacity:1;stroke-width:5.03546;stroke-linecap:butt;stroke-linejoin:miter;stroke:rgb(68.627451%,68.627451%,68.627451%);stroke-opacity:1;stroke-miterlimit:4;" d="M 431.381226 662.927365 L 349.212646 662.347531 L 349.975586 578.546262 Z M 431.381226 662.927365 " transform="matrix(0.512,0,0,0.512,0,-282.809436)"/>
<path style=" stroke:none;fill-rule:nonzero;fill:rgb(10.196078%,10.196078%,10.196078%);fill-opacity:1;" d="M 32.257812 35.75 L 149.953125 35.75 L 149.953125 78.9375 L 32.257812 78.9375 Z M 32.257812 35.75 "/>
<path style=" stroke:none;fill-rule:nonzero;fill:rgb(100%,100%,100%);fill-opacity:1;" d="M 188.976562 214.90625 C 186.507812 214.34375 183.890625 213.984375 181.25 213.984375 C 176.71875 213.984375 172.601562 214.773438 169.5625 216.03125 C 169.226562 216.203125 168.992188 216.554688 168.992188 216.945312 C 168.992188 217.09375 169.023438 217.242188 169.085938 217.367188 C 169.4375 218.40625 168.851562 219.523438 165.90625 220.179688 C 161.546875 221.132812 158.796875 225.640625 157.226562 227.125 C 155.375 228.882812 150.15625 229.960938 150.9375 228.90625 C 151.554688 228.09375 153.90625 225.539062 155.328125 222.789062 C 156.617188 220.328125 157.75 219.625 159.320312 217.265625 C 159.78125 216.578125 161.5625 214.15625 162.085938 212.242188 C 162.664062 210.367188 162.46875 208.023438 162.695312 207.054688 C 163.015625 205.65625 164.328125 202.640625 164.429688 200.921875 C 164.484375 199.960938 160.390625 202.304688 158.453125 202.304688 C 156.507812 202.304688 154.617188 201.140625 152.882812 201.0625 C 150.734375 200.960938 149.351562 202.71875 147.40625 202.40625 C 146.304688 202.226562 145.359375 201.257812 143.429688 201.1875 C 140.671875 201.078125 137.289062 202.71875 130.960938 202.515625 C 124.726562 202.3125 118.96875 194.632812 118.1875 193.421875 C 117.265625 191.992188 116.140625 191.992188 114.914062 193.117188 C 113.6875 194.234375 112.171875 193.351562 111.75 192.601562 C 110.929688 191.171875 108.742188 187 105.359375 186.117188 C 100.679688 184.90625 98.304688 188.710938 98.617188 191.734375 C 98.929688 194.804688 100.914062 195.664062 101.835938 197.304688 C 102.75 198.929688 103.226562 199.992188 104.953125 200.710938 C 106.179688 201.226562 106.632812 201.976562 106.273438 202.984375 C 105.953125 203.859375 104.679688 204.0625 103.835938 204.101562 C 102.054688 204.1875 100.804688 203.703125 99.890625 203.125 C 98.828125 202.445312 97.960938 201.507812 97.046875 199.914062 C 95.96875 198.15625 94.28125 197.390625 92.320312 197.390625 C 91.382812 197.390625 90.507812 197.640625 89.726562 198.03125 C 86.648438 199.640625 82.984375 200.585938 79.039062 200.585938 L 74.585938 200.59375 C 83.117188 225.890625 107.054688 244.101562 135.25 244.101562 C 157.765625 244.101562 177.570312 232.484375 188.976562 214.90625 "/>
<path style=" stroke:none;fill-rule:nonzero;fill:rgb(0%,0%,0%);fill-opacity:1;" d="M 188.976562 214.914062 C 186.507812 214.34375 183.890625 213.984375 181.25 213.984375 C 176.71875 213.984375 172.601562 214.773438 169.5625 216.039062 C 169.226562 216.210938 168.992188 216.554688 168.992188 216.953125 C 168.992188 217.09375 169.023438 217.25 169.085938 217.367188 C 169.4375 218.40625 168.851562 219.539062 165.90625 220.1875 C 161.546875 221.140625 158.796875 225.640625 157.226562 227.125 C 155.375 228.882812 150.15625 229.960938 150.9375 228.914062 C 151.554688 228.09375 153.90625 225.539062 155.328125 222.789062 C 156.617188 220.328125 157.75 219.625 159.320312 217.273438 C 159.78125 216.585938 161.5625 214.15625 162.085938 212.242188 C 162.664062 210.367188 162.46875 208.023438 162.695312 207.054688 C 163.015625 205.664062 164.328125 202.640625 164.429688 200.929688 C 164.484375 199.960938 160.390625 202.304688 158.453125 202.304688 C 156.507812 202.304688 154.617188 201.148438 152.882812 201.070312 C 150.734375 200.960938 149.351562 202.71875 147.40625 202.40625 C 146.304688 202.234375 145.359375 201.257812 143.429688 201.1875 C 140.671875 201.085938 137.289062 202.71875 130.960938 202.515625 C 124.726562 202.3125 118.96875 194.648438 118.1875 193.429688 C 117.265625 191.992188 116.140625 191.992188 114.914062 193.117188 C 113.6875 194.234375 112.171875 193.359375 111.75 192.609375 C 110.929688 191.171875 108.742188 187 105.359375 186.117188 C 100.679688 184.90625 98.304688 188.710938 98.617188 191.734375 C 98.929688 194.804688 100.914062 195.664062 101.835938 197.304688 C 102.75 198.929688 103.226562 199.992188 104.953125 200.71875 C 106.179688 201.226562 106.632812 201.984375 106.273438 202.984375 C 105.953125 203.867188 104.679688 204.070312 103.835938 204.109375 C 102.054688 204.1875 100.804688 203.710938 99.890625 203.117188 C 98.828125 202.453125 97.960938 201.507812 97.046875 199.914062 C 95.96875 198.15625 94.28125 197.390625 92.320312 197.390625 C 91.382812 197.390625 90.507812 197.640625 89.726562 198.03125 C 86.648438 199.640625 82.984375 200.59375 79.039062 200.59375 L 74.585938 200.59375 C 72.421875 194.171875 71.25 187.296875 71.25 180.148438 C 71.25 144.8125 99.898438 116.179688 135.25 116.179688 C 170.59375 116.179688 199.25 144.8125 199.25 180.148438 C 199.25 192.96875 195.476562 204.898438 188.976562 214.914062 "/>
<path style=" stroke:none;fill-rule:nonzero;fill:rgb(0%,0%,0%);fill-opacity:1;" d="M 149.34375 209.046875 C 149.671875 209.367188 150.242188 210.445312 149.546875 211.820312 C 149.15625 212.546875 148.734375 213.054688 147.992188 213.648438 C 147.085938 214.375 145.328125 215.210938 142.921875 213.671875 C 141.617188 212.851562 141.539062 212.578125 139.75 212.8125 C 138.46875 212.976562 137.960938 211.679688 138.414062 210.609375 C 138.882812 209.539062 140.765625 208.671875 143.117188 210.046875 C 144.179688 210.671875 145.828125 211.984375 147.265625 210.820312 C 147.867188 210.34375 148.226562 210.023438 149.054688 209.0625 C 149.09375 209.023438 149.148438 209 149.210938 209 C 149.257812 209 149.304688 209.015625 149.34375 209.046875 "/>
<path style=" stroke:none;fill-rule:nonzero;fill:rgb(94.117647%,22.352941%,8.627451%);fill-opacity:1;" d="M 130.265625 146.640625 C 122.875 147.171875 122.101562 147.96875 120.726562 149.4375 C 118.773438 151.523438 116.195312 146.75 116.195312 146.75 C 114.648438 146.421875 112.78125 143.9375 113.789062 141.617188 C 114.789062 139.320312 116.625 140.007812 117.195312 140.71875 C 117.898438 141.59375 119.390625 143.015625 121.335938 142.960938 C 123.273438 142.914062 125.515625 142.507812 128.640625 142.507812 C 131.804688 142.507812 133.921875 143.6875 134.039062 144.703125 C 134.148438 145.5625 133.789062 146.382812 130.265625 146.640625 M 138.03125 134.429688 L 138 134.429688 C 137.882812 134.429688 137.796875 134.34375 137.796875 134.242188 C 137.796875 134.164062 137.84375 134.09375 137.914062 134.0625 C 139.34375 133.304688 141.484375 132.703125 143.929688 132.460938 C 144.664062 132.382812 145.382812 132.335938 146.070312 132.335938 L 146.4375 132.335938 C 150.539062 132.429688 153.820312 134.0625 153.773438 135.976562 C 153.726562 137.890625 150.367188 139.375 146.257812 139.28125 C 144.929688 139.25 143.6875 139.0625 142.617188 138.75 C 142.476562 138.71875 142.390625 138.609375 142.390625 138.476562 C 142.390625 138.351562 142.476562 138.242188 142.617188 138.210938 C 145.171875 137.617188 146.898438 136.648438 146.78125 135.734375 C 146.617188 134.523438 143.273438 133.867188 139.304688 134.265625 C 138.867188 134.3125 138.445312 134.367188 138.03125 134.429688 M 171.359375 163.125 C 170.726562 165.25 169.835938 167.96875 165.828125 170.023438 C 165.242188 170.320312 165.023438 169.828125 165.289062 169.375 C 166.804688 166.796875 167.070312 166.15625 167.515625 165.148438 C 168.125 163.65625 168.453125 161.546875 167.226562 157.15625 C 164.820312 148.5 159.796875 136.921875 156.148438 133.171875 C 152.625 129.546875 146.25 128.53125 140.476562 130.007812 C 138.351562 130.554688 134.195312 132.710938 126.484375 130.976562 C 113.148438 127.976562 111.171875 134.648438 110.414062 137.554688 C 109.640625 140.460938 107.804688 148.726562 107.804688 148.726562 C 107.195312 152.101562 106.390625 157.953125 127.101562 161.898438 C 136.75 163.734375 137.234375 166.226562 137.671875 168.023438 C 138.4375 171.234375 139.65625 173.070312 141.039062 173.992188 C 142.414062 174.90625 141.039062 175.671875 139.507812 175.820312 C 135.40625 176.25 120.210938 171.898438 111.21875 166.796875 C 103.875 162.304688 103.75 158.265625 105.429688 154.828125 C 94.328125 153.632812 85.992188 155.875 84.484375 161.132812 C 81.890625 170.140625 104.320312 185.546875 129.859375 193.28125 C 156.664062 201.390625 184.226562 195.726562 187.289062 178.882812 C 188.679688 171.234375 182.234375 165.578125 171.359375 163.125 "/>
<path style="fill:none;stroke-width:10;stroke-linecap:butt;stroke-linejoin:miter;stroke:rgb(100%,100%,100%);stroke-opacity:1;stroke-miterlimit:4;" d="M 128.097534 640.603757 C 128.097534 640.603757 118.835449 636.331296 110.031128 636.224484 C 101.226807 636.132932 95.76416 641.458249 95.474243 649.041867 C 95.169067 656.640744 99.395752 662.713742 114.547729 664.499021 C 129.714966 666.26904 128.799438 679.49841 126.937866 684.1676 C 125.076294 688.82153 116.241455 693.23132 107.269287 692.025876 C 98.297119 690.820432 90.805054 686.776853 90.805054 686.776853 " transform="matrix(0.512,0,0,0.512,0,-282.809436)"/>
<path style="fill:none;stroke-width:9.063828;stroke-linecap:butt;stroke-linejoin:miter;stroke:rgb(100%,100%,100%);stroke-opacity:1;stroke-miterlimit:4;" d="M 143.157959 692.788815 L 143.157959 636.361813 C 143.157959 636.361813 173.980713 630.410886 173.873901 650.674558 C 173.76709 670.938229 143.783569 665.399289 143.783569 665.399289 " transform="matrix(0.512,0,0,0.512,0,-282.809436)"/>
<path style="fill:none;stroke-width:9;stroke-linecap:butt;stroke-linejoin:miter;stroke:rgb(100%,100%,100%);stroke-opacity:1;stroke-miterlimit:4;" d="M 380.201118 670.713348 L 346.204536 670.30136 L 346.616523 618.589324 L 381.070869 618.726653 " transform="matrix(0.512,0,0,0.512,-80.59266,-272.780234)"/>
<path style="fill:none;stroke-width:9;stroke-linecap:butt;stroke-linejoin:miter;stroke:rgb(100%,100%,100%);stroke-opacity:1;stroke-miterlimit:4;" d="M 348.951118 642.362518 L 378.095405 642.515105 " transform="matrix(0.512,0,0,0.512,-80.59266,-272.780234)"/>
<path style="fill:none;stroke-width:9;stroke-linecap:butt;stroke-linejoin:miter;stroke:rgb(100%,100%,100%);stroke-opacity:1;stroke-miterlimit:4;" d="M 277.099609 644.143796 C 277.099609 644.143796 269.470215 637.323117 255.584717 638.406491 C 241.68396 639.489865 233.810425 655.328488 234.542847 667.321896 C 235.290527 679.330563 245.819092 693.597531 259.399414 692.422604 C 272.994995 691.247678 277.099609 686.456418 277.099609 686.456418 " transform="matrix(0.512,0,0,0.512,0,-282.809436)"/>
</g>
</svg>
