<?xml version="1.0" encoding="UTF-8"?>
<svg xmlns="http://www.w3.org/2000/svg" xmlns:xlink="http://www.w3.org/1999/xlink" width="256" height="256" viewBox="0 0 256 256" version="1.1">
<g id="surface1">
<path style=" stroke:none;fill-rule:evenodd;fill:rgb(0%,56.078431%,81.176471%);fill-opacity:1;" d="M 32.273438 78.773438 L 59.523438 105.445312 L 58.671875 68.046875 L 32.257812 67.921875 Z M 32.273438 78.773438 "/>
<path style="fill-rule:evenodd;fill:rgb(94.901961%,94.901961%,94.901961%);fill-opacity:1;stroke-width:5.03546;stroke-linecap:butt;stroke-linejoin:miter;stroke:rgb(68.627451%,68.627451%,68.627451%);stroke-opacity:1;stroke-miterlimit:4;" d="M 97.045898 1029.840207 L 433.929443 1028.66528 L 435.10437 664.773679 L 347.061157 575.570798 L 97.045898 575.570798 Z M 97.045898 1029.840207 " transform="matrix(0.512,0,0,0.512,0,-282.809436)"/>
<path style="fill-rule:evenodd;fill:rgb(68.627451%,68.627451%,68.627451%);fill-opacity:1;stroke-width:5.03546;stroke-linecap:butt;stroke-linejoin:miter;stroke:rgb(68.627451%,68.627451%,68.627451%);stroke-opacity:1;stroke-miterlimit:4;" d="M 431.518555 662.927365 L 349.349976 662.347531 L 350.112915 578.546262 Z M 431.518555 662.927365 " transform="matrix(0.512,0,0,0.512,0,-282.809436)"/>
<path style=" stroke:none;fill-rule:nonzero;fill:rgb(0%,73.333333%,94.901961%);fill-opacity:1;" d="M 32.328125 35.75 L 173.453125 35.75 L 173.453125 78.9375 L 32.328125 78.9375 Z M 32.328125 35.75 "/>
<path style=" stroke:none;fill-rule:nonzero;fill:rgb(0%,73.333333%,94.901961%);fill-opacity:1;" d="M 160.984375 189.054688 C 172.84375 175.890625 181.21875 166.234375 180.984375 166 C 180.773438 165.789062 175.6875 165.554688 169.695312 165.492188 L 158.789062 165.367188 L 158.570312 141.757812 L 158.34375 118.140625 L 121.367188 118.140625 L 121.140625 141.757812 L 120.921875 165.367188 L 109.78125 165.59375 C 102.554688 165.734375 98.640625 165.976562 98.640625 166.273438 C 98.640625 167.171875 139.171875 211.90625 139.890625 211.804688 C 140.273438 211.75 149.773438 201.507812 160.984375 189.054688 Z M 160.984375 189.054688 "/>
<path style=" stroke:none;fill-rule:nonzero;fill:rgb(0%,73.333333%,94.901961%);fill-opacity:1;" d="M 75.109375 195.6875 L 97.179688 195.6875 L 97.179688 217.757812 L 181.046875 217.757812 L 181.046875 195.6875 L 203.109375 195.6875 L 203.109375 239.820312 L 75.109375 239.820312 Z M 75.109375 195.6875 "/>
<path style="fill:none;stroke-width:9;stroke-linecap:butt;stroke-linejoin:miter;stroke:rgb(100%,100%,100%);stroke-opacity:1;stroke-miterlimit:4;" d="M 133.344968 354.154129 L 133.292438 304.671133 " transform="matrix(0.446176,0,0,0.446176,-18.018762,-86.91351)"/>
<path style=" stroke:none;fill-rule:nonzero;fill:rgb(100%,100%,100%);fill-opacity:1;" d="M 39.546875 43.328125 L 43.5 43.328125 L 43.5 47.1875 L 39.546875 47.1875 Z M 39.546875 43.328125 "/>
<path style="fill:none;stroke-width:7.842927;stroke-linecap:butt;stroke-linejoin:bevel;stroke:rgb(100%,100%,100%);stroke-opacity:1;stroke-miterlimit:4;" d="M 93.338013 691.049313 L 93.154907 637.902951 L 129.79126 690.33215 L 129.79126 637.170529 " transform="matrix(0.512,0,0,0.512,0,-282.809436)"/>
<path style="fill:none;stroke-width:8.714363;stroke-linecap:butt;stroke-linejoin:miter;stroke:rgb(100%,100%,100%);stroke-opacity:1;stroke-miterlimit:4;" d="M 171.813965 645.547604 C 171.813965 645.547604 163.742065 641.82446 156.066895 641.732907 C 148.406982 641.656613 143.64624 646.295285 143.371582 652.9176 C 143.112183 659.524655 146.80481 664.819455 160.003662 666.375852 C 173.217773 667.916989 172.424316 679.437375 170.806885 683.511472 C 169.174194 687.57031 161.483765 691.415524 153.656006 690.362668 C 145.843506 689.309812 139.312744 685.80029 139.312744 685.80029 " transform="matrix(0.512,0,0,0.512,0,-282.809436)"/>
<path style="fill:none;stroke-width:9;stroke-linecap:butt;stroke-linejoin:miter;stroke:rgb(100%,100%,100%);stroke-opacity:1;stroke-miterlimit:4;" d="M 122.798831 699.612273 L 122.798831 642.337369 " transform="matrix(0.446176,0,0,0.446176,47.788234,-240.501768)"/>
<path style="fill:none;stroke-width:8.670217;stroke-linecap:butt;stroke-linejoin:miter;stroke:rgb(100%,100%,100%);stroke-opacity:1;stroke-miterlimit:4;" d="M 96.218793 642.740097 L 149.378868 642.740097 " transform="matrix(0.446176,0,0,0.446176,47.788234,-240.501768)"/>
<path style="fill:none;stroke-width:9;stroke-linecap:butt;stroke-linejoin:bevel;stroke:rgb(100%,100%,100%);stroke-opacity:1;stroke-miterlimit:4;" d="M 915.697278 696.276542 L 937.830435 637.996621 L 960.572122 696.276542 " transform="matrix(0.44934,0,0,0.44934,-299.97504,-241.778964)"/>
<path style="fill:none;stroke-width:9;stroke-linecap:butt;stroke-linejoin:miter;stroke:rgb(100%,100%,100%);stroke-opacity:1;stroke-miterlimit:4;" d="M 924.581837 676.751378 L 950.366182 676.751378 " transform="matrix(0.44934,0,0,0.44934,-299.97504,-241.778964)"/>
<path style="fill:none;stroke-width:7.842927;stroke-linecap:butt;stroke-linejoin:miter;stroke:rgb(100%,100%,100%);stroke-opacity:1;stroke-miterlimit:4;" d="M 267.547607 639.8103 L 267.807007 687.295651 L 295.48645 687.555051 " transform="matrix(0.512,0,0,0.512,0,-282.809436)"/>
<path style="fill:none;stroke-width:7.842927;stroke-linecap:butt;stroke-linejoin:miter;stroke:rgb(100%,100%,100%);stroke-opacity:1;stroke-miterlimit:4;" d="M 302.597046 640.832639 L 302.856445 688.31799 L 330.52063 688.562131 " transform="matrix(0.512,0,0,0.512,0,-282.809436)"/>
</g>
</svg>
