<?xml version="1.0" encoding="UTF-8"?>
<svg xmlns="http://www.w3.org/2000/svg" xmlns:xlink="http://www.w3.org/1999/xlink" width="256" height="256" viewBox="0 0 256 256" version="1.1">
<g id="surface1">
<path style=" stroke:none;fill-rule:evenodd;fill:rgb(10.196078%,10.196078%,10.196078%);fill-opacity:1;" d="M 32.351562 79.070312 L 59.601562 105.742188 L 58.75 68.34375 L 32.335938 68.21875 Z M 32.351562 79.070312 "/>
<path style="fill-rule:evenodd;fill:rgb(94.901961%,94.901961%,94.901961%);fill-opacity:1;stroke-width:5.03546;stroke-linecap:butt;stroke-linejoin:miter;stroke:rgb(68.627451%,68.627451%,68.627451%);stroke-opacity:1;stroke-miterlimit:4;" d="M 96.908569 1029.840207 L 433.792114 1028.66528 L 434.967041 664.773679 L 346.923828 575.570798 L 96.908569 575.570798 Z M 96.908569 1029.840207 " transform="matrix(0.512,0,0,0.512,0,-282.809436)"/>
<path style="fill-rule:evenodd;fill:rgb(68.627451%,68.627451%,68.627451%);fill-opacity:1;stroke-width:5.03546;stroke-linecap:butt;stroke-linejoin:miter;stroke:rgb(68.627451%,68.627451%,68.627451%);stroke-opacity:1;stroke-miterlimit:4;" d="M 431.381226 662.927365 L 349.212646 662.347531 L 349.975586 578.546262 Z M 431.381226 662.927365 " transform="matrix(0.512,0,0,0.512,0,-282.809436)"/>
<path style=" stroke:none;fill-rule:nonzero;fill:rgb(22.352941%,25.098039%,31.372549%);fill-opacity:1;" d="M 32.257812 35.75 L 171.429688 35.75 L 171.429688 78.9375 L 32.257812 78.9375 Z M 32.257812 35.75 "/>
<path style="fill-rule:nonzero;fill:rgb(98.039216%,92.54902%,42.745098%);fill-opacity:1;stroke-width:13.157895;stroke-linecap:butt;stroke-linejoin:miter;stroke:rgb(22.352941%,25.098039%,31.372549%);stroke-opacity:1;stroke-miterlimit:4;" d="M 380.233765 902.368283 C 380.233765 967.752194 327.224731 1020.776486 261.825562 1020.776486 C 196.426392 1020.791745 143.4021 967.782712 143.386841 902.383542 C 143.386841 836.984372 196.380615 783.96008 261.779785 783.944821 C 327.178955 783.929562 380.203247 836.923337 380.233765 902.322507 " transform="matrix(0.512,0,0,0.512,0,-282.809436)"/>
<path style=" stroke:none;fill-rule:nonzero;fill:rgb(22.352941%,25.098039%,31.372549%);fill-opacity:1;" d="M 116.421875 170.34375 L 144.71875 170.265625 L 144.921875 208.039062 C 144.921875 208.039062 144.84375 209.015625 145.578125 209.8125 C 146.304688 210.609375 147.03125 210.632812 147.03125 210.632812 L 153.34375 210.664062 L 153.398438 215.25 L 117.445312 215.164062 L 117.390625 210.515625 L 124.742188 210.546875 C 124.742188 210.546875 125.765625 210.421875 126.351562 209.585938 C 126.929688 208.75 126.789062 207.835938 126.789062 207.835938 L 126.757812 177.304688 C 126.757812 177.304688 126.859375 176.539062 125.8125 175.648438 C 124.773438 174.757812 123.789062 174.851562 123.789062 174.851562 L 116.46875 174.765625 Z M 116.421875 170.34375 "/>
<path style=" stroke:none;fill-rule:nonzero;fill:rgb(22.352941%,25.098039%,31.372549%);fill-opacity:1;" d="M 144.984375 154.617188 C 144.984375 160.398438 140.390625 165.09375 134.71875 165.101562 C 129.046875 165.109375 124.4375 160.429688 124.421875 154.640625 C 124.414062 148.859375 129 144.15625 134.671875 144.132812 C 140.34375 144.117188 144.960938 148.78125 144.984375 154.570312 "/>
<path style="fill:none;stroke-width:9.063828;stroke-linecap:butt;stroke-linejoin:miter;stroke:rgb(100%,100%,100%);stroke-opacity:1;stroke-miterlimit:4;" d="M 384.450782 735.917324 L 384.450782 679.475183 C 384.450782 679.475183 415.265238 673.532009 415.15718 693.792829 C 415.049122 714.053648 385.081119 708.524696 385.081119 708.524696 " transform="matrix(0.433796,0,0,0.433796,-128.187274,-249.527054)"/>
<path style="fill:none;stroke-width:9;stroke-linecap:butt;stroke-linejoin:miter;stroke:rgb(100%,100%,100%);stroke-opacity:1;stroke-miterlimit:4;" d="M 392.465062 710.451725 L 418.398911 734.926795 " transform="matrix(0.433796,0,0,0.433796,-128.187274,-249.527054)"/>
<path style="fill:none;stroke-width:9;stroke-linecap:butt;stroke-linejoin:miter;stroke:rgb(100%,100%,100%);stroke-opacity:1;stroke-miterlimit:4;" d="M 380.197472 670.721785 L 346.213324 670.307564 L 346.627545 618.583943 L 381.061933 618.72802 " transform="matrix(0.433796,0,0,0.433796,-91.10783,-223.55799)"/>
<path style="fill:none;stroke-width:9;stroke-linecap:butt;stroke-linejoin:miter;stroke:rgb(100%,100%,100%);stroke-opacity:1;stroke-miterlimit:4;" d="M 348.950786 642.374647 L 378.090347 642.518724 " transform="matrix(0.433796,0,0,0.433796,-91.10783,-223.55799)"/>
<path style="fill:none;stroke-width:9;stroke-linecap:butt;stroke-linejoin:bevel;stroke:rgb(100%,100%,100%);stroke-opacity:1;stroke-miterlimit:4;" d="M 915.700017 696.277921 L 937.838939 637.997836 L 960.567994 696.277921 " transform="matrix(0.436872,0,0,0.436872,-322.731198,-235.371828)"/>
<path style="fill:none;stroke-width:9;stroke-linecap:butt;stroke-linejoin:miter;stroke:rgb(100%,100%,100%);stroke-opacity:1;stroke-miterlimit:4;" d="M 924.587775 676.767773 L 950.374791 676.767773 " transform="matrix(0.436872,0,0,0.436872,-322.731198,-235.371828)"/>
<path style="fill:none;stroke-width:7.625316;stroke-linecap:butt;stroke-linejoin:miter;stroke:rgb(100%,100%,100%);stroke-opacity:1;stroke-miterlimit:4;" d="M 200.317383 683.892941 L 200.72937 639.749265 C 200.72937 639.749265 234.512329 634.835935 234.939575 662.225461 C 235.38208 689.630246 200.317383 683.892941 200.317383 683.892941 Z M 200.317383 683.892941 " transform="matrix(0.512,0,0,0.512,0,-282.809436)"/>
<path style="fill:none;stroke-width:7.625316;stroke-linecap:butt;stroke-linejoin:miter;stroke:rgb(100%,100%,100%);stroke-opacity:1;stroke-miterlimit:4;" d="M 245.727539 687.707639 L 245.97168 641.488767 L 250.228882 641.290402 L 263.687134 676.294064 L 266.525269 676.294064 L 280.044556 641.290402 L 284.484863 641.229367 L 284.484863 687.829709 " transform="matrix(0.512,0,0,0.512,0,-282.809436)"/>
<path style="fill:none;stroke-width:9;stroke-linecap:butt;stroke-linejoin:miter;stroke:rgb(100%,100%,100%);stroke-opacity:1;stroke-miterlimit:4;" d="M 380.212572 670.721785 L 346.210415 670.307564 L 346.624636 618.583943 L 381.077034 618.72802 " transform="matrix(0.433796,0,0,0.433796,2.205932,-223.55799)"/>
<path style="fill:none;stroke-width:9;stroke-linecap:butt;stroke-linejoin:miter;stroke:rgb(100%,100%,100%);stroke-opacity:1;stroke-miterlimit:4;" d="M 348.947876 642.374647 L 378.087437 642.518724 " transform="matrix(0.433796,0,0,0.433796,2.205932,-223.55799)"/>
</g>
</svg>
