<?xml version="1.0" encoding="UTF-8"?>
<svg xmlns="http://www.w3.org/2000/svg" xmlns:xlink="http://www.w3.org/1999/xlink" width="256" height="256" viewBox="0 0 256 256" version="1.1">
<g id="surface1">
<path style=" stroke:none;fill-rule:evenodd;fill:rgb(20%,20%,20%);fill-opacity:1;" d="M 32.273438 78.773438 L 59.523438 105.445312 L 58.671875 68.046875 L 32.257812 67.921875 Z M 32.273438 78.773438 "/>
<path style="fill-rule:evenodd;fill:rgb(94.901961%,94.901961%,94.901961%);fill-opacity:1;stroke-width:5.03546;stroke-linecap:butt;stroke-linejoin:miter;stroke:rgb(68.627451%,68.627451%,68.627451%);stroke-opacity:1;stroke-miterlimit:4;" d="M 97.045898 1029.840207 L 433.929443 1028.66528 L 435.10437 664.773679 L 347.061157 575.570798 L 97.045898 575.570798 Z M 97.045898 1029.840207 " transform="matrix(0.512,0,0,0.512,0,-282.809436)"/>
<path style="fill-rule:evenodd;fill:rgb(68.627451%,68.627451%,68.627451%);fill-opacity:1;stroke-width:5.03546;stroke-linecap:butt;stroke-linejoin:miter;stroke:rgb(68.627451%,68.627451%,68.627451%);stroke-opacity:1;stroke-miterlimit:4;" d="M 431.518555 662.927365 L 349.349976 662.347531 L 350.112915 578.546262 Z M 431.518555 662.927365 " transform="matrix(0.512,0,0,0.512,0,-282.809436)"/>
<path style=" stroke:none;fill-rule:nonzero;fill:rgb(30.196078%,30.196078%,30.196078%);fill-opacity:1;" d="M 32.328125 35.75 L 135.085938 35.75 L 135.085938 78.9375 L 32.328125 78.9375 Z M 32.328125 35.75 "/>
<path style=" stroke:none;fill-rule:nonzero;fill:rgb(40%,40%,40%);fill-opacity:1;" d="M 59.351562 168.28125 L 211.578125 168.28125 L 211.578125 174.5 L 59.351562 174.5 Z M 59.351562 168.28125 "/>
<path style=" stroke:none;fill-rule:nonzero;fill:rgb(40%,40%,40%);fill-opacity:1;" d="M 59.945312 195.203125 L 212.40625 195.203125 L 212.40625 201.421875 L 59.945312 201.421875 Z M 59.945312 195.203125 "/>
<path style=" stroke:none;fill-rule:nonzero;fill:rgb(40%,40%,40%);fill-opacity:1;" d="M 59.945312 222.96875 L 164.328125 222.96875 L 164.328125 229.179688 L 59.945312 229.179688 Z M 59.945312 222.96875 "/>
<path style=" stroke:none;fill-rule:nonzero;fill:rgb(40%,40%,40%);fill-opacity:1;" d="M 58.34375 114.703125 L 210.570312 114.703125 L 210.570312 120.921875 L 58.34375 120.921875 Z M 58.34375 114.703125 "/>
<path style=" stroke:none;fill-rule:nonzero;fill:rgb(40%,40%,40%);fill-opacity:1;" d="M 58.9375 141.625 L 211.398438 141.625 L 211.398438 147.84375 L 58.9375 147.84375 Z M 58.9375 141.625 "/>
<path style="fill:none;stroke-width:9;stroke-linecap:butt;stroke-linejoin:miter;stroke:rgb(100%,100%,100%);stroke-opacity:1;stroke-miterlimit:4;" d="M 108.581543 632.272458 L 108.87146 686.761594 L 140.640259 687.051511 " transform="matrix(0.512,0,0,0.512,0,-282.809436)"/>
<path style="fill:none;stroke-width:9;stroke-linecap:butt;stroke-linejoin:miter;stroke:rgb(100%,100%,100%);stroke-opacity:1;stroke-miterlimit:4;" d="M 166.549683 686.944699 C 154.525757 686.837888 143.203735 674.752927 143.127441 659.448361 C 143.066406 644.159055 155.12085 631.860471 167.266846 632.211423 C 179.412842 632.547116 190.002441 644.128537 190.216064 660.409665 C 190.429688 676.690793 178.573608 687.036252 166.549683 686.944699 Z M 166.549683 686.944699 " transform="matrix(0.512,0,0,0.512,0,-282.809436)"/>
<path style="fill:none;stroke-width:9;stroke-linecap:butt;stroke-linejoin:miter;stroke:rgb(100%,100%,100%);stroke-opacity:1;stroke-miterlimit:4;" d="M 250.656128 642.236447 C 250.656128 642.236447 243.392944 634.546018 227.920532 634.652829 C 212.44812 634.774899 204.360962 650.552487 204.605103 662.927365 C 204.864502 675.286984 215.576172 688.394284 227.813721 689.660764 C 240.05127 690.927243 249.191284 684.488034 249.191284 684.488034 L 248.61145 664.37695 L 231.8573 664.605832 " transform="matrix(0.512,0,0,0.512,0,-282.809436)"/>
</g>
</svg>
