<?xml version="1.0" encoding="UTF-8"?>
<svg xmlns="http://www.w3.org/2000/svg" xmlns:xlink="http://www.w3.org/1999/xlink" width="256" height="256" viewBox="0 0 256 256" version="1.1">
<g id="surface1">
<path style=" stroke:none;fill-rule:evenodd;fill:rgb(0%,52.941176%,73.72549%);fill-opacity:1;" d="M 32.351562 79.070312 L 59.601562 105.742188 L 58.75 68.34375 L 32.335938 68.21875 Z M 32.351562 79.070312 "/>
<path style="fill-rule:evenodd;fill:rgb(94.901961%,94.901961%,94.901961%);fill-opacity:1;stroke-width:5.03546;stroke-linecap:butt;stroke-linejoin:miter;stroke:rgb(68.627451%,68.627451%,68.627451%);stroke-opacity:1;stroke-miterlimit:4;" d="M 96.908569 1029.840207 L 433.792114 1028.66528 L 434.967041 664.773679 L 346.923828 575.570798 L 96.908569 575.570798 Z M 96.908569 1029.840207 " transform="matrix(0.512,0,0,0.512,0,-282.809436)"/>
<path style="fill-rule:evenodd;fill:rgb(68.627451%,68.627451%,68.627451%);fill-opacity:1;stroke-width:5.03546;stroke-linecap:butt;stroke-linejoin:miter;stroke:rgb(68.627451%,68.627451%,68.627451%);stroke-opacity:1;stroke-miterlimit:4;" d="M 431.381226 662.927365 L 349.212646 662.347531 L 349.975586 578.546262 Z M 431.381226 662.927365 " transform="matrix(0.512,0,0,0.512,0,-282.809436)"/>
<path style=" stroke:none;fill-rule:nonzero;fill:rgb(0%,73.333333%,94.901961%);fill-opacity:1;" d="M 32.257812 35.75 L 145.484375 35.75 L 145.484375 78.9375 L 32.257812 78.9375 Z M 32.257812 35.75 "/>
<path style=" stroke:none;fill-rule:nonzero;fill:rgb(97.647059%,97.647059%,97.647059%);fill-opacity:1;" d="M 121.65625 129.742188 C 121.65625 134.15625 118.070312 137.734375 113.65625 137.734375 C 109.242188 137.734375 105.664062 134.15625 105.664062 129.742188 C 105.664062 125.328125 109.242188 121.742188 113.65625 121.742188 C 118.070312 121.742188 121.65625 125.328125 121.65625 129.742188 M 121.65625 129.742188 "/>
<path style=" stroke:none;fill-rule:nonzero;fill:rgb(0%,73.333333%,94.901961%);fill-opacity:1;" d="M 132.28125 113.828125 C 127.007812 113.851562 121.96875 114.3125 117.53125 115.078125 C 104.46875 117.367188 102.09375 122.132812 102.09375 130.953125 L 102.09375 142.59375 L 132.960938 142.59375 L 132.960938 146.46875 L 90.515625 146.46875 C 81.53125 146.46875 73.6875 151.804688 71.226562 161.945312 C 68.398438 173.570312 68.25 180.835938 71.226562 192.953125 C 73.414062 201.992188 78.640625 208.429688 87.617188 208.429688 L 96.695312 208.429688 L 96.695312 192.976562 C 96.695312 182.914062 105.53125 174.085938 116.007812 174.085938 L 148.320312 174.085938 C 156.898438 174.085938 165.023438 167.085938 165.023438 158.570312 L 165.023438 131.015625 C 165.023438 122.742188 156.710938 116.515625 148.320312 115.140625 C 143.03125 114.265625 137.53125 113.875 132.265625 113.890625 M 115.585938 123.179688 C 118.773438 123.179688 121.375 125.804688 121.375 129.039062 C 121.375 132.242188 118.773438 134.828125 115.585938 134.828125 C 112.375 134.828125 109.773438 132.242188 109.773438 129.039062 C 109.773438 125.8125 112.351562 123.179688 115.585938 123.179688 M 115.585938 123.179688 "/>
<path style=" stroke:none;fill-rule:nonzero;fill:rgb(97.647059%,97.647059%,97.647059%);fill-opacity:1;" d="M 159 225.71875 C 159 230.132812 155.421875 233.710938 151.007812 233.710938 C 146.570312 233.710938 142.984375 230.132812 142.984375 225.71875 C 142.984375 221.296875 146.570312 217.71875 151.007812 217.71875 C 155.421875 217.71875 159 221.296875 159 225.71875 M 159 225.71875 "/>
<path style=" stroke:none;fill-rule:nonzero;fill:rgb(100%,83.137255%,16.470588%);fill-opacity:1;" d="M 169.414062 146.460938 L 169.414062 160.023438 C 169.414062 170.515625 160.398438 178.125 150.132812 178.125 L 116.257812 178.125 C 107.828125 178.125 100.828125 186.539062 100.828125 194.890625 L 100.828125 223.96875 C 100.828125 232.234375 108.09375 237.085938 116.257812 239.460938 C 126.03125 242.289062 136.671875 242.835938 148.359375 239.460938 C 156.125 237.234375 163.796875 232.75 163.796875 223.96875 L 163.796875 212.320312 L 132.96875 212.320312 L 132.96875 208.445312 L 179.25 208.445312 C 188.210938 208.445312 191.5625 202.242188 194.6875 192.96875 C 197.914062 183.414062 197.75 174.203125 194.6875 161.960938 C 192.460938 153.109375 188.234375 146.484375 179.25 146.484375 M 150.320312 220.09375 C 153.507812 220.09375 156.109375 222.679688 156.109375 225.882812 C 156.109375 229.09375 153.53125 231.742188 150.320312 231.742188 C 147.109375 231.742188 144.507812 229.09375 144.507812 225.882812 C 144.507812 222.679688 147.109375 220.09375 150.320312 220.09375 M 150.320312 220.09375 "/>
<path style="fill:none;stroke-width:9.063828;stroke-linecap:butt;stroke-linejoin:miter;stroke:rgb(100%,100%,100%);stroke-opacity:1;stroke-miterlimit:4;" d="M 162.67395 695.901608 L 162.67395 639.459348 C 162.67395 639.459348 193.481445 633.50842 193.374634 653.772092 C 193.267822 674.035764 163.284302 668.512082 163.284302 668.512082 " transform="matrix(0.512,0,0,0.512,0,-282.809436)"/>
<path style="fill:none;stroke-width:9;stroke-linecap:butt;stroke-linejoin:miter;stroke:rgb(100%,100%,100%);stroke-opacity:1;stroke-miterlimit:4;" d="M 516.181924 313.186666 L 536.64396 342.483541 L 556.343057 313.186666 " transform="matrix(0.512,0,0,0.512,-158.95702,-117.742198)"/>
<path style="fill:none;stroke-width:9;stroke-linecap:butt;stroke-linejoin:miter;stroke:rgb(100%,100%,100%);stroke-opacity:1;stroke-miterlimit:4;" d="M 536.613442 342.453023 L 536.384561 371.261617 " transform="matrix(0.512,0,0,0.512,-158.95702,-117.742198)"/>
</g>
</svg>
