<?xml version="1.0" encoding="UTF-8"?>
<svg xmlns="http://www.w3.org/2000/svg" xmlns:xlink="http://www.w3.org/1999/xlink" width="256" height="256" viewBox="0 0 256 256" version="1.1">
<g id="surface1">
<path style=" stroke:none;fill-rule:evenodd;fill:rgb(9.803922%,7.843137%,23.529412%);fill-opacity:1;" d="M 32.273438 78.773438 L 59.523438 105.445312 L 58.671875 68.046875 L 32.257812 67.921875 Z M 32.273438 78.773438 "/>
<path style="fill-rule:evenodd;fill:rgb(94.901961%,94.901961%,94.901961%);fill-opacity:1;stroke-width:5.03546;stroke-linecap:butt;stroke-linejoin:miter;stroke:rgb(68.627451%,68.627451%,68.627451%);stroke-opacity:1;stroke-miterlimit:4;" d="M 97.045898 1029.840207 L 433.929443 1028.66528 L 435.10437 664.773679 L 347.061157 575.570798 L 97.045898 575.570798 Z M 97.045898 1029.840207 " transform="matrix(0.512,0,0,0.512,0,-282.809436)"/>
<path style="fill-rule:evenodd;fill:rgb(68.627451%,68.627451%,68.627451%);fill-opacity:1;stroke-width:5.03546;stroke-linecap:butt;stroke-linejoin:miter;stroke:rgb(68.627451%,68.627451%,68.627451%);stroke-opacity:1;stroke-miterlimit:4;" d="M 431.518555 662.927365 L 349.349976 662.347531 L 350.112915 578.546262 Z M 431.518555 662.927365 " transform="matrix(0.512,0,0,0.512,0,-282.809436)"/>
<path style=" stroke:none;fill-rule:nonzero;fill:rgb(17.647059%,8.627451%,31.372549%);fill-opacity:1;" d="M 32.328125 35.75 L 147.492188 35.75 L 147.492188 78.9375 L 32.328125 78.9375 Z M 32.328125 35.75 "/>
<path style="fill-rule:nonzero;fill:rgb(17.647059%,8.627451%,31.372549%);fill-opacity:1;stroke-width:0.833333;stroke-linecap:butt;stroke-linejoin:miter;stroke:rgb(0%,0%,0%);stroke-opacity:1;stroke-miterlimit:4;" d="M 266.51001 1020.395017 C 163.909912 1018.045163 144.119263 993.692136 144.119263 993.692136 L 144.119263 805.734372 C 144.119263 805.734372 163.116455 782.190061 254.364014 778.54321 C 345.611572 774.881101 382.583618 805.246091 382.583618 805.246091 L 382.583618 988.839841 C 382.583618 988.839841 369.094849 1022.760129 266.51001 1020.395017 Z M 266.51001 1020.395017 " transform="matrix(0.512,0,0,0.512,0,-282.809436)"/>
<path style=" stroke:none;fill-rule:nonzero;fill:rgb(100%,100%,100%);fill-opacity:1;" d="M 135.695312 114.3125 C 100.34375 114.3125 71.695312 122.125 71.695312 131.765625 L 71.695312 224.859375 C 71.695312 234.5 100.34375 242.3125 135.695312 242.3125 C 171.039062 242.3125 199.695312 234.5 199.695312 224.859375 L 199.695312 131.765625 C 199.695312 122.125 171.039062 114.3125 135.695312 114.3125 Z M 135.695312 120.132812 C 167.828125 120.132812 193.875 125.335938 193.875 131.765625 C 193.875 138.195312 167.828125 143.398438 135.695312 143.398438 C 103.5625 143.398438 77.515625 138.195312 77.507812 131.765625 C 77.515625 125.335938 103.5625 120.132812 135.695312 120.132812 Z M 77.507812 138.992188 C 87.890625 145.21875 110.632812 149.210938 135.695312 149.21875 C 160.757812 149.210938 183.5 145.21875 193.875 138.992188 L 193.875 160.859375 C 193.875 167.28125 167.828125 172.492188 135.695312 172.492188 C 103.5625 172.492188 77.507812 167.28125 77.507812 160.859375 Z M 77.507812 168.085938 C 87.890625 174.304688 110.632812 178.304688 135.695312 178.3125 C 160.757812 178.304688 183.5 174.304688 193.875 168.085938 L 193.875 195.765625 C 193.875 202.195312 167.828125 207.398438 135.695312 207.398438 C 103.5625 207.398438 77.515625 202.195312 77.507812 195.765625 Z M 77.507812 202.992188 C 87.890625 209.21875 110.632812 213.210938 135.695312 213.21875 C 160.757812 213.210938 183.5 209.21875 193.875 202.992188 L 193.875 224.859375 C 193.875 231.28125 167.828125 236.492188 135.695312 236.492188 C 103.5625 236.492188 77.507812 231.28125 77.507812 224.859375 Z M 77.507812 202.992188 "/>
<path style="fill:none;stroke-width:10;stroke-linecap:butt;stroke-linejoin:miter;stroke:rgb(100%,100%,100%);stroke-opacity:1;stroke-miterlimit:4;" d="M 162.261963 639.718747 C 162.261963 639.718747 152.999878 635.446286 144.195557 635.354733 C 135.391235 635.247922 129.928589 640.588498 129.623413 648.172116 C 129.333496 655.755734 133.560181 661.828732 148.712158 663.614011 C 163.879395 665.399289 162.963867 678.6134 161.102295 683.28259 C 159.225464 687.951779 150.405884 692.361569 141.433716 691.156125 C 132.446289 689.950681 124.969482 685.907102 124.969482 685.907102 " transform="matrix(0.512,0,0,0.512,0,-282.809436)"/>
<path style="fill:none;stroke-width:9;stroke-linecap:butt;stroke-linejoin:miter;stroke:rgb(100%,100%,100%);stroke-opacity:1;stroke-miterlimit:4;" d="M 232.216752 651.427454 C 220.192826 651.320643 208.855546 639.235682 208.794511 623.946375 C 208.718217 608.64181 220.787919 596.358484 232.933915 596.694178 C 245.079911 597.029871 255.669511 608.611292 255.883134 624.89242 C 256.081498 641.173548 244.240678 651.534266 232.216752 651.427454 Z M 232.216752 651.427454 " transform="matrix(0.512,0,0,0.512,-18.035602,-262.398044)"/>
<path style="fill:none;stroke-width:9;stroke-linecap:butt;stroke-linejoin:miter;stroke:rgb(100%,100%,100%);stroke-opacity:1;stroke-miterlimit:4;" d="M 240.410722 633.650965 C 240.410722 633.650965 243.96602 643.248743 247.99434 646.788782 C 252.007401 650.328821 263.649857 653.350062 263.649857 653.350062 " transform="matrix(0.512,0,0,0.512,-18.035602,-262.398044)"/>
<path style="fill:none;stroke-width:9;stroke-linecap:butt;stroke-linejoin:miter;stroke:rgb(100%,100%,100%);stroke-opacity:1;stroke-miterlimit:4;" d="M 240.29541 633.432126 L 240.585327 687.921262 L 272.354126 688.211179 " transform="matrix(0.512,0,0,0.512,0,-282.809436)"/>
</g>
</svg>
