<?xml version="1.0" encoding="UTF-8"?>
<svg xmlns="http://www.w3.org/2000/svg" xmlns:xlink="http://www.w3.org/1999/xlink" width="256" height="256" viewBox="0 0 256 256" version="1.1">
<g id="surface1">
<path style=" stroke:none;fill-rule:evenodd;fill:rgb(15.686275%,9.019608%,4.313725%);fill-opacity:1;" d="M 32.273438 78.773438 L 59.523438 105.445312 L 58.671875 68.046875 L 32.257812 67.921875 Z M 32.273438 78.773438 "/>
<path style="fill-rule:evenodd;fill:rgb(94.901961%,94.901961%,94.901961%);fill-opacity:1;stroke-width:5.03546;stroke-linecap:butt;stroke-linejoin:miter;stroke:rgb(68.627451%,68.627451%,68.627451%);stroke-opacity:1;stroke-miterlimit:4;" d="M 97.045898 1029.840207 L 433.929443 1028.66528 L 435.10437 664.773679 L 347.061157 575.570798 L 97.045898 575.570798 Z M 97.045898 1029.840207 " transform="matrix(0.512,0,0,0.512,0,-282.809436)"/>
<path style="fill-rule:evenodd;fill:rgb(68.627451%,68.627451%,68.627451%);fill-opacity:1;stroke-width:5.03546;stroke-linecap:butt;stroke-linejoin:miter;stroke:rgb(68.627451%,68.627451%,68.627451%);stroke-opacity:1;stroke-miterlimit:4;" d="M 431.518555 662.927365 L 349.349976 662.347531 L 350.112915 578.546262 Z M 431.518555 662.927365 " transform="matrix(0.512,0,0,0.512,0,-282.809436)"/>
<path style=" stroke:none;fill-rule:nonzero;fill:rgb(31.372549%,17.647059%,8.627451%);fill-opacity:1;" d="M 32.328125 35.75 L 140.265625 35.75 L 140.265625 78.9375 L 32.328125 78.9375 Z M 32.328125 35.75 "/>
<path style=" stroke:none;fill-rule:nonzero;fill:rgb(60%,60%,60%);fill-opacity:1;" d="M 190.015625 126.34375 L 193.460938 126.34375 C 195.234375 126.34375 196.679688 127.640625 196.679688 129.242188 L 196.679688 144.015625 C 196.679688 145.625 195.234375 146.921875 193.460938 146.921875 L 190.015625 146.921875 C 188.242188 146.921875 186.796875 145.625 186.796875 144.015625 L 186.796875 129.242188 C 186.796875 127.640625 188.242188 126.34375 190.015625 126.34375 Z M 190.015625 126.34375 "/>
<path style=" stroke:none;fill-rule:nonzero;fill:rgb(60%,60%,60%);fill-opacity:1;" d="M 190.015625 151.5625 L 193.460938 151.5625 C 195.234375 151.5625 196.679688 152.867188 196.679688 154.46875 L 196.679688 169.242188 C 196.679688 170.84375 195.234375 172.140625 193.460938 172.140625 L 190.015625 172.140625 C 188.242188 172.140625 186.796875 170.84375 186.796875 169.242188 L 186.796875 154.46875 C 186.796875 152.867188 188.242188 151.5625 190.015625 151.5625 Z M 190.015625 151.5625 "/>
<path style=" stroke:none;fill-rule:nonzero;fill:rgb(60%,60%,60%);fill-opacity:1;" d="M 190.015625 175.921875 L 193.460938 175.921875 C 195.234375 175.921875 196.679688 177.21875 196.679688 178.820312 L 196.679688 193.59375 C 196.679688 195.195312 195.234375 196.5 193.460938 196.5 L 190.015625 196.5 C 188.242188 196.5 186.796875 195.195312 186.796875 193.59375 L 186.796875 178.820312 C 186.796875 177.21875 188.242188 175.921875 190.015625 175.921875 Z M 190.015625 175.921875 "/>
<path style=" stroke:none;fill-rule:nonzero;fill:rgb(60%,60%,60%);fill-opacity:1;" d="M 190.015625 201.140625 L 193.460938 201.140625 C 195.234375 201.140625 196.679688 202.4375 196.679688 204.046875 L 196.679688 218.8125 C 196.679688 220.421875 195.234375 221.71875 193.460938 221.71875 L 190.015625 221.71875 C 188.242188 221.71875 186.796875 220.421875 186.796875 218.8125 L 186.796875 204.046875 C 186.796875 202.4375 188.242188 201.140625 190.015625 201.140625 Z M 190.015625 201.140625 "/>
<path style=" stroke:none;fill-rule:nonzero;fill:rgb(31.372549%,17.647059%,8.627451%);fill-opacity:1;" d="M 91.03125 113.820312 L 181.507812 113.820312 C 186.453125 113.820312 190.460938 118.34375 190.460938 123.9375 L 190.460938 231.640625 C 190.460938 237.226562 186.453125 241.757812 181.507812 241.757812 L 91.03125 241.757812 C 86.085938 241.757812 82.078125 237.226562 82.078125 231.640625 L 82.078125 123.9375 C 82.078125 118.34375 86.085938 113.820312 91.03125 113.820312 Z M 91.03125 113.820312 "/>
<path style=" stroke:none;fill-rule:nonzero;fill:rgb(40%,40%,40%);fill-opacity:1;" d="M 109.921875 241.742188 L 90.859375 241.796875 C 90.859375 241.796875 87.757812 241.695312 84.992188 239.125 C 82.226562 236.5625 82.03125 232.046875 82.03125 232.046875 L 82.132812 123.6875 C 82.132812 123.6875 82.078125 119.804688 84.601562 116.898438 C 87.125 113.992188 91.492188 113.796875 91.492188 113.796875 L 109.875 113.796875 Z M 109.921875 241.742188 "/>
<path style=" stroke:none;fill-rule:nonzero;fill:rgb(22.352941%,25.098039%,31.372549%);fill-opacity:1;" d="M 100.617188 128.234375 C 100.617188 131.195312 98.21875 133.59375 95.257812 133.59375 C 92.296875 133.59375 89.898438 131.195312 89.898438 128.234375 C 89.898438 125.273438 92.296875 122.875 95.257812 122.875 C 98.21875 122.875 100.617188 125.273438 100.617188 128.234375 Z M 100.617188 128.234375 "/>
<path style=" stroke:none;fill-rule:nonzero;fill:rgb(80%,80%,80%);fill-opacity:1;" d="M 76.015625 131.59375 L 95.453125 131.59375 C 95.453125 131.59375 98.3125 131.34375 98.25 128.53125 C 98.1875 125.710938 95.304688 125.351562 95.304688 125.351562 L 75.78125 125.46875 C 75.78125 125.46875 73.25 126.015625 73.304688 128.648438 C 73.359375 131.28125 76.015625 131.59375 76.015625 131.59375 Z M 76.015625 131.59375 "/>
<path style=" stroke:none;fill-rule:nonzero;fill:rgb(22.352941%,25.098039%,31.372549%);fill-opacity:1;" d="M 100.742188 141.976562 C 100.742188 144.9375 98.34375 147.335938 95.382812 147.335938 C 92.421875 147.335938 90.023438 144.9375 90.023438 141.976562 C 90.023438 139.015625 92.421875 136.617188 95.382812 136.617188 C 98.34375 136.617188 100.742188 139.015625 100.742188 141.976562 Z M 100.742188 141.976562 "/>
<path style=" stroke:none;fill-rule:nonzero;fill:rgb(80%,80%,80%);fill-opacity:1;" d="M 76.140625 145.335938 L 95.578125 145.335938 C 95.578125 145.335938 98.4375 145.085938 98.375 142.273438 C 98.3125 139.453125 95.429688 139.085938 95.429688 139.085938 L 75.898438 139.210938 C 75.898438 139.210938 73.375 139.757812 73.429688 142.390625 C 73.484375 145.023438 76.140625 145.335938 76.140625 145.335938 Z M 76.140625 145.335938 "/>
<path style=" stroke:none;fill-rule:nonzero;fill:rgb(22.352941%,25.098039%,31.372549%);fill-opacity:1;" d="M 100.84375 155.601562 C 100.84375 158.5625 98.445312 160.960938 95.484375 160.960938 C 92.523438 160.960938 90.125 158.5625 90.125 155.601562 C 90.125 152.640625 92.523438 150.242188 95.484375 150.242188 C 98.445312 150.242188 100.84375 152.640625 100.84375 155.601562 Z M 100.84375 155.601562 "/>
<path style=" stroke:none;fill-rule:nonzero;fill:rgb(80%,80%,80%);fill-opacity:1;" d="M 76.242188 158.953125 L 95.679688 158.953125 C 95.679688 158.953125 98.539062 158.710938 98.476562 155.890625 C 98.414062 153.078125 95.53125 152.710938 95.53125 152.710938 L 76.007812 152.828125 C 76.007812 152.828125 73.476562 153.375 73.53125 156.007812 C 73.585938 158.640625 76.242188 158.953125 76.242188 158.953125 Z M 76.242188 158.953125 "/>
<path style=" stroke:none;fill-rule:nonzero;fill:rgb(22.352941%,25.098039%,31.372549%);fill-opacity:1;" d="M 100.96875 169.335938 C 100.96875 172.296875 98.570312 174.695312 95.609375 174.695312 C 92.648438 174.695312 90.25 172.296875 90.25 169.335938 C 90.25 166.375 92.648438 163.976562 95.609375 163.976562 C 98.570312 163.976562 100.96875 166.375 100.96875 169.335938 Z M 100.96875 169.335938 "/>
<path style=" stroke:none;fill-rule:nonzero;fill:rgb(80%,80%,80%);fill-opacity:1;" d="M 76.367188 172.695312 L 95.804688 172.695312 C 95.804688 172.695312 98.664062 172.453125 98.601562 169.632812 C 98.539062 166.820312 95.65625 166.453125 95.65625 166.453125 L 76.132812 166.570312 C 76.132812 166.570312 73.601562 167.117188 73.65625 169.75 C 73.710938 172.382812 76.367188 172.695312 76.367188 172.695312 Z M 76.367188 172.695312 "/>
<path style=" stroke:none;fill-rule:nonzero;fill:rgb(22.352941%,25.098039%,31.372549%);fill-opacity:1;" d="M 100.90625 183.046875 C 100.90625 186.007812 98.507812 188.40625 95.546875 188.40625 C 92.585938 188.40625 90.1875 186.007812 90.1875 183.046875 C 90.1875 180.085938 92.585938 177.6875 95.546875 177.6875 C 98.507812 177.6875 100.90625 180.085938 100.90625 183.046875 Z M 100.90625 183.046875 "/>
<path style=" stroke:none;fill-rule:nonzero;fill:rgb(80%,80%,80%);fill-opacity:1;" d="M 76.304688 186.40625 L 95.742188 186.40625 C 95.742188 186.40625 98.601562 186.15625 98.539062 183.34375 C 98.476562 180.523438 95.59375 180.164062 95.59375 180.164062 L 76.070312 180.28125 C 76.070312 180.28125 73.539062 180.828125 73.59375 183.460938 C 73.648438 186.09375 76.304688 186.40625 76.304688 186.40625 Z M 76.304688 186.40625 "/>
<path style=" stroke:none;fill-rule:nonzero;fill:rgb(22.352941%,25.098039%,31.372549%);fill-opacity:1;" d="M 101.03125 196.789062 C 101.03125 199.75 98.632812 202.148438 95.671875 202.148438 C 92.710938 202.148438 90.3125 199.75 90.3125 196.789062 C 90.3125 193.828125 92.710938 191.429688 95.671875 191.429688 C 98.632812 191.429688 101.03125 193.828125 101.03125 196.789062 Z M 101.03125 196.789062 "/>
<path style=" stroke:none;fill-rule:nonzero;fill:rgb(80%,80%,80%);fill-opacity:1;" d="M 76.429688 200.148438 L 95.867188 200.148438 C 95.867188 200.148438 98.726562 199.898438 98.664062 197.085938 C 98.601562 194.265625 95.71875 193.898438 95.71875 193.898438 L 76.195312 194.023438 C 76.195312 194.023438 73.664062 194.570312 73.71875 197.203125 C 73.773438 199.835938 76.429688 200.148438 76.429688 200.148438 Z M 76.429688 200.148438 "/>
<path style=" stroke:none;fill-rule:nonzero;fill:rgb(22.352941%,25.098039%,31.372549%);fill-opacity:1;" d="M 101.140625 210.414062 C 101.140625 213.375 98.734375 215.773438 95.78125 215.773438 C 92.820312 215.773438 90.414062 213.375 90.414062 210.414062 C 90.414062 207.453125 92.820312 205.046875 95.78125 205.046875 C 98.734375 205.046875 101.140625 207.453125 101.140625 210.414062 Z M 101.140625 210.414062 "/>
<path style=" stroke:none;fill-rule:nonzero;fill:rgb(80%,80%,80%);fill-opacity:1;" d="M 76.53125 213.765625 L 95.96875 213.765625 C 95.96875 213.765625 98.828125 213.523438 98.765625 210.703125 C 98.710938 207.890625 95.820312 207.523438 95.820312 207.523438 L 76.296875 207.640625 C 76.296875 207.640625 73.765625 208.1875 73.820312 210.820312 C 73.875 213.453125 76.53125 213.765625 76.53125 213.765625 Z M 76.53125 213.765625 "/>
<path style=" stroke:none;fill-rule:nonzero;fill:rgb(22.352941%,25.098039%,31.372549%);fill-opacity:1;" d="M 101.265625 224.148438 C 101.265625 227.109375 98.859375 229.507812 95.898438 229.507812 C 92.9375 229.507812 90.539062 227.109375 90.539062 224.148438 C 90.539062 221.1875 92.9375 218.789062 95.898438 218.789062 C 98.859375 218.789062 101.265625 221.1875 101.265625 224.148438 Z M 101.265625 224.148438 "/>
<path style=" stroke:none;fill-rule:nonzero;fill:rgb(80%,80%,80%);fill-opacity:1;" d="M 76.65625 227.507812 L 96.09375 227.507812 C 96.09375 227.507812 98.953125 227.265625 98.890625 224.445312 C 98.828125 221.632812 95.945312 221.265625 95.945312 221.265625 L 76.421875 221.382812 C 76.421875 221.382812 73.890625 221.929688 73.945312 224.5625 C 74 227.195312 76.65625 227.507812 76.65625 227.507812 Z M 76.65625 227.507812 "/>
<path style=" stroke:none;fill-rule:nonzero;fill:rgb(100%,100%,100%);fill-opacity:1;" d="M 120.984375 131.320312 L 176 131.320312 C 177.78125 131.320312 179.21875 132.625 179.21875 134.226562 L 179.21875 151.46875 C 179.21875 153.070312 177.78125 154.367188 176 154.367188 L 120.984375 154.367188 C 119.203125 154.367188 117.765625 153.070312 117.765625 151.46875 L 117.765625 134.226562 C 117.765625 132.625 119.203125 131.320312 120.984375 131.320312 Z M 120.984375 131.320312 "/>
</g>
</svg>
