<?xml version="1.0" encoding="UTF-8"?>
<svg xmlns="http://www.w3.org/2000/svg" xmlns:xlink="http://www.w3.org/1999/xlink" width="256" height="256" viewBox="0 0 256 256" version="1.1">
<g id="surface1">
<path style=" stroke:none;fill-rule:evenodd;fill:rgb(66.666667%,26.666667%,0%);fill-opacity:1;" d="M 32.273438 78.773438 L 59.523438 105.445312 L 58.671875 68.046875 L 32.257812 67.921875 Z M 32.273438 78.773438 "/>
<path style="fill-rule:evenodd;fill:rgb(94.901961%,94.901961%,94.901961%);fill-opacity:1;stroke-width:5.03546;stroke-linecap:butt;stroke-linejoin:miter;stroke:rgb(68.627451%,68.627451%,68.627451%);stroke-opacity:1;stroke-miterlimit:4;" d="M 97.045898 1029.840207 L 433.929443 1028.66528 L 435.10437 664.773679 L 347.061157 575.570798 L 97.045898 575.570798 Z M 97.045898 1029.840207 " transform="matrix(0.512,0,0,0.512,0,-282.809436)"/>
<path style="fill-rule:evenodd;fill:rgb(68.627451%,68.627451%,68.627451%);fill-opacity:1;stroke-width:5.03546;stroke-linecap:butt;stroke-linejoin:miter;stroke:rgb(68.627451%,68.627451%,68.627451%);stroke-opacity:1;stroke-miterlimit:4;" d="M 431.518555 662.927365 L 349.349976 662.347531 L 350.112915 578.546262 Z M 431.518555 662.927365 " transform="matrix(0.512,0,0,0.512,0,-282.809436)"/>
<path style=" stroke:none;fill-rule:nonzero;fill:rgb(100%,40%,0%);fill-opacity:1;" d="M 32.328125 35.75 L 147.492188 35.75 L 147.492188 78.9375 L 32.328125 78.9375 Z M 32.328125 35.75 "/>
<path style=" stroke:none;fill-rule:nonzero;fill:rgb(100%,40%,0%);fill-opacity:1;" d="M 78.445312 125.632812 L 187.890625 125.632812 L 187.890625 131.929688 L 78.445312 131.929688 Z M 78.445312 125.632812 "/>
<path style=" stroke:none;fill-rule:nonzero;fill:rgb(100%,40%,0%);fill-opacity:1;" d="M 94.539062 138.804688 L 170.09375 138.804688 L 170.09375 145.101562 L 94.539062 145.101562 Z M 94.539062 138.804688 "/>
<path style=" stroke:none;fill-rule:nonzero;fill:rgb(100%,40%,0%);fill-opacity:1;" d="M 82.890625 165.84375 L 119.890625 165.84375 L 119.890625 172.140625 L 82.890625 172.140625 Z M 82.890625 165.84375 "/>
<path style=" stroke:none;fill-rule:nonzero;fill:rgb(100%,40%,0%);fill-opacity:1;" d="M 71.242188 165.84375 L 77.742188 165.84375 L 77.742188 172.140625 L 71.242188 172.140625 Z M 71.242188 165.84375 "/>
<path style=" stroke:none;fill-rule:nonzero;fill:rgb(100%,40%,0%);fill-opacity:1;" d="M 82.570312 176.476562 L 119.578125 176.476562 L 119.578125 182.765625 L 82.570312 182.765625 Z M 82.570312 176.476562 "/>
<path style=" stroke:none;fill-rule:nonzero;fill:rgb(100%,40%,0%);fill-opacity:1;" d="M 70.921875 176.476562 L 77.421875 176.476562 L 77.421875 182.765625 L 70.921875 182.765625 Z M 70.921875 176.476562 "/>
<path style=" stroke:none;fill-rule:nonzero;fill:rgb(100%,40%,0%);fill-opacity:1;" d="M 82.570312 187.335938 L 119.578125 187.335938 L 119.578125 193.632812 L 82.570312 193.632812 Z M 82.570312 187.335938 "/>
<path style=" stroke:none;fill-rule:nonzero;fill:rgb(100%,40%,0%);fill-opacity:1;" d="M 70.921875 187.335938 L 77.421875 187.335938 L 77.421875 193.632812 L 70.921875 193.632812 Z M 70.921875 187.335938 "/>
<path style=" stroke:none;fill-rule:nonzero;fill:rgb(100%,40%,0%);fill-opacity:1;" d="M 82.570312 198.890625 L 119.578125 198.890625 L 119.578125 205.1875 L 82.570312 205.1875 Z M 82.570312 198.890625 "/>
<path style=" stroke:none;fill-rule:nonzero;fill:rgb(100%,40%,0%);fill-opacity:1;" d="M 70.921875 198.890625 L 77.421875 198.890625 L 77.421875 205.1875 L 70.921875 205.1875 Z M 70.921875 198.890625 "/>
<path style=" stroke:none;fill-rule:nonzero;fill:rgb(100%,100%,100%);fill-opacity:1;" d="M 136.445312 160.359375 L 194.664062 160.359375 L 194.664062 208.734375 L 136.445312 208.734375 Z M 136.445312 160.359375 "/>
<path style=" stroke:none;fill-rule:nonzero;fill:rgb(100%,80%,0%);fill-opacity:1;" d="M 167.664062 206.648438 L 163.0625 206.648438 C 162.429688 206.648438 161.914062 206.085938 161.914062 205.390625 L 161.914062 185.304688 C 161.914062 184.609375 162.429688 184.046875 163.0625 184.046875 L 167.664062 184.046875 C 168.304688 184.046875 168.820312 184.609375 168.820312 185.304688 L 168.820312 205.390625 C 168.820312 206.085938 168.304688 206.648438 167.664062 206.648438 Z M 167.664062 206.648438 "/>
<path style=" stroke:none;fill-rule:nonzero;fill:rgb(94.117647%,22.352941%,8.627451%);fill-opacity:1;" d="M 157.304688 206.648438 L 152.703125 206.648438 C 152.070312 206.648438 151.554688 206.085938 151.554688 205.390625 L 151.554688 191.578125 C 151.554688 190.882812 152.070312 190.320312 152.703125 190.320312 L 157.304688 190.320312 C 157.945312 190.320312 158.460938 190.882812 158.460938 191.578125 L 158.460938 205.390625 C 158.460938 206.085938 157.945312 206.648438 157.304688 206.648438 Z M 157.304688 206.648438 "/>
<path style=" stroke:none;fill-rule:nonzero;fill:rgb(0%,26.666667%,33.333333%);fill-opacity:1;" d="M 146.953125 206.648438 L 142.34375 206.648438 C 141.710938 206.648438 141.195312 206.085938 141.195312 205.390625 L 141.195312 197.859375 C 141.195312 197.164062 141.710938 196.601562 142.34375 196.601562 L 146.953125 196.601562 C 147.585938 196.601562 148.101562 197.164062 148.101562 197.859375 L 148.101562 205.390625 C 148.101562 206.085938 147.585938 206.648438 146.953125 206.648438 Z M 146.953125 206.648438 "/>
<path style=" stroke:none;fill-rule:nonzero;fill:rgb(27.058824%,81.568627%,24.705882%);fill-opacity:1;" d="M 178.023438 206.648438 L 173.421875 206.648438 C 172.78125 206.648438 172.273438 206.085938 172.273438 205.390625 L 172.273438 191.578125 C 172.273438 190.882812 172.78125 190.320312 173.421875 190.320312 L 178.023438 190.320312 C 178.65625 190.320312 179.171875 190.882812 179.171875 191.578125 L 179.171875 205.390625 C 179.171875 206.085938 178.65625 206.648438 178.023438 206.648438 Z M 178.023438 206.648438 "/>
<path style=" stroke:none;fill-rule:nonzero;fill:rgb(0%,73.333333%,94.901961%);fill-opacity:1;" d="M 188.382812 206.648438 L 183.78125 206.648438 C 183.140625 206.648438 182.625 206.085938 182.625 205.390625 L 182.625 177.765625 C 182.625 177.078125 183.140625 176.515625 183.78125 176.515625 L 188.382812 176.515625 C 189.015625 176.515625 189.53125 177.078125 189.53125 177.765625 L 189.53125 205.390625 C 189.53125 206.085938 189.015625 206.648438 188.382812 206.648438 Z M 188.382812 206.648438 "/>
<path style=" stroke:none;fill-rule:nonzero;fill:rgb(22.352941%,25.098039%,31.372549%);fill-opacity:1;" d="M 191.835938 207.898438 L 138.890625 207.898438 C 138.257812 207.898438 137.742188 207.335938 137.742188 206.648438 C 137.742188 205.953125 138.257812 205.390625 138.890625 205.390625 L 191.835938 205.390625 C 192.46875 205.390625 192.984375 205.953125 192.984375 206.648438 C 192.984375 207.335938 192.46875 207.898438 191.835938 207.898438 Z M 191.835938 207.898438 "/>
<path style="fill:none;stroke-width:2.504357;stroke-linecap:butt;stroke-linejoin:miter;stroke:rgb(22.352941%,25.098039%,31.372549%);stroke-opacity:1;stroke-miterlimit:4;" d="M 274.719238 931.619382 L 325.210571 902.017331 L 342.74292 919.320798 L 365.081787 870.614743 " transform="matrix(0.512,0,0,0.512,0,-282.809436)"/>
<path style="fill:none;stroke-width:2.504357;stroke-linecap:butt;stroke-linejoin:miter;stroke:rgb(22.352941%,25.098039%,31.372549%);stroke-opacity:1;stroke-miterlimit:4;" d="M 365.936279 869.943356 L 356.933594 874.200559 " transform="matrix(0.512,0,0,0.512,0,-282.809436)"/>
<path style="fill:none;stroke-width:2.504357;stroke-linecap:butt;stroke-linejoin:miter;stroke:rgb(22.352941%,25.098039%,31.372549%);stroke-opacity:1;stroke-miterlimit:4;" d="M 368.392944 879.296994 L 364.349365 869.27197 " transform="matrix(0.512,0,0,0.512,0,-282.809436)"/>
<path style=" stroke:none;fill-rule:nonzero;fill:rgb(100%,40%,0%);fill-opacity:1;" d="M 80.304688 241.257812 L 189.757812 241.257812 L 189.757812 234.960938 L 80.304688 234.960938 Z M 80.304688 241.257812 "/>
<path style=" stroke:none;fill-rule:nonzero;fill:rgb(100%,40%,0%);fill-opacity:1;" d="M 96.40625 228.085938 L 171.960938 228.085938 L 171.960938 221.789062 L 96.40625 221.789062 Z M 96.40625 228.085938 "/>
</g>
</svg>
