<?xml version="1.0" encoding="UTF-8"?>
<svg xmlns="http://www.w3.org/2000/svg" xmlns:xlink="http://www.w3.org/1999/xlink" width="256" height="256" viewBox="0 0 256 256" version="1.1">
<g id="surface1">
<path style=" stroke:none;fill-rule:evenodd;fill:rgb(81.568627%,7.058824%,0%);fill-opacity:1;" d="M 32.273438 78.773438 L 59.523438 105.445312 L 58.671875 68.046875 L 32.257812 67.921875 Z M 32.273438 78.773438 "/>
<path style="fill-rule:evenodd;fill:rgb(94.901961%,94.901961%,94.901961%);fill-opacity:1;stroke-width:5.03546;stroke-linecap:butt;stroke-linejoin:miter;stroke:rgb(68.627451%,68.627451%,68.627451%);stroke-opacity:1;stroke-miterlimit:4;" d="M 97.045898 1029.840207 L 433.929443 1028.66528 L 435.10437 664.773679 L 347.061157 575.570798 L 97.045898 575.570798 Z M 97.045898 1029.840207 " transform="matrix(0.512,0,0,0.512,0,-282.809436)"/>
<path style="fill-rule:evenodd;fill:rgb(68.627451%,68.627451%,68.627451%);fill-opacity:1;stroke-width:5.03546;stroke-linecap:butt;stroke-linejoin:miter;stroke:rgb(68.627451%,68.627451%,68.627451%);stroke-opacity:1;stroke-miterlimit:4;" d="M 431.518555 662.927365 L 349.349976 662.347531 L 350.112915 578.546262 Z M 431.518555 662.927365 " transform="matrix(0.512,0,0,0.512,0,-282.809436)"/>
<path style=" stroke:none;fill-rule:nonzero;fill:rgb(94.117647%,22.352941%,8.627451%);fill-opacity:1;" d="M 32.328125 35.75 L 147.492188 35.75 L 147.492188 78.9375 L 32.328125 78.9375 Z M 32.328125 35.75 "/>
<path style=" stroke:none;fill-rule:nonzero;fill:rgb(80%,80%,80%);fill-opacity:1;" d="M 75.460938 139.742188 L 75.460938 216.804688 C 75.460938 230.890625 86.765625 242.226562 100.8125 242.226562 L 168.96875 242.226562 L 203.023438 207.898438 L 203.023438 139.742188 Z M 75.460938 139.742188 "/>
<path style=" stroke:none;fill-rule:nonzero;fill:rgb(90.196078%,90.196078%,90.196078%);fill-opacity:1;" d="M 100.8125 114.3125 C 100.507812 114.3125 100.210938 114.320312 99.90625 114.328125 C 100.210938 114.320312 100.507812 114.3125 100.8125 114.3125 Z M 177.671875 114.3125 C 177.976562 114.3125 178.273438 114.320312 178.578125 114.328125 C 178.28125 114.320312 177.976562 114.3125 177.671875 114.3125 Z M 75.460938 186.476562 L 75.460938 228.070312 C 75.460938 236.320312 82.921875 242.226562 89.796875 242.226562 L 168.96875 242.226562 L 203.023438 207.898438 L 203.023438 186.476562 Z M 75.460938 186.476562 "/>
<path style=" stroke:none;fill-rule:nonzero;fill:rgb(22.352941%,25.098039%,31.372549%);fill-opacity:1;" d="M 136.242188 218.914062 L 142.992188 218.914062 L 143.117188 162.703125 L 130.796875 170.304688 L 130.796875 178.296875 L 136.109375 175.109375 Z M 136.242188 218.914062 "/>
<path style=" stroke:none;fill-rule:nonzero;fill:rgb(50.196078%,50.196078%,50.196078%);fill-opacity:1;" d="M 177.109375 207.453125 C 173.65625 207.453125 168.789062 212.320312 168.789062 215.734375 L 168.789062 242.3125 L 168.882812 242.3125 L 203.460938 207.453125 Z M 177.109375 207.453125 "/>
<path style=" stroke:none;fill-rule:nonzero;fill:rgb(94.117647%,22.352941%,8.627451%);fill-opacity:1;" d="M 89.945312 114.3125 C 75.898438 114.3125 75.460938 114.25 75.460938 139.742188 L 203.023438 139.726562 C 203.007812 114.609375 203.25 114.3125 189.210938 114.3125 Z M 97.007812 122.984375 C 99.226562 122.984375 101.023438 124.789062 101.023438 127.015625 C 101.023438 129.242188 99.226562 131.046875 97.007812 131.046875 C 94.789062 131.046875 92.992188 129.242188 92.992188 127.015625 C 92.992188 124.789062 94.789062 122.984375 97.007812 122.984375 Z M 182.101562 123.023438 C 184.21875 123.023438 185.929688 124.742188 185.929688 126.867188 C 185.9375 128.992188 184.21875 130.710938 182.101562 130.710938 C 179.984375 130.710938 178.265625 128.992188 178.265625 126.867188 C 178.265625 124.742188 179.984375 123.023438 182.101562 123.023438 Z M 182.101562 123.023438 "/>
</g>
</svg>
