<?xml version="1.0" encoding="UTF-8"?>
<svg xmlns="http://www.w3.org/2000/svg" xmlns:xlink="http://www.w3.org/1999/xlink" width="24" height="24" viewBox="0 0 24 24" version="1.1">
<g id="surface1">
<path style=" stroke:none;fill-rule:evenodd;fill:rgb(0%,46.666667%,75.686275%);fill-opacity:1;" d="M 3.03125 7.414062 L 5.585938 9.914062 L 5.507812 6.40625 L 3.03125 6.394531 Z M 3.03125 7.414062 "/>
<path style="fill-rule:evenodd;fill:rgb(94.901961%,94.901961%,94.901961%);fill-opacity:1;stroke-width:5.03546;stroke-linecap:butt;stroke-linejoin:miter;stroke:rgb(68.627451%,68.627451%,68.627451%);stroke-opacity:1;stroke-miterlimit:4;" d="M 96.923828 1029.819862 L 433.75651 1028.680539 L 434.977214 664.748247 L 346.923828 575.555539 L 96.923828 575.555539 Z M 96.923828 1029.819862 " transform="matrix(0.048,0,0,0.048,0,-26.513385)"/>
<path style="fill-rule:evenodd;fill:rgb(68.627451%,68.627451%,68.627451%);fill-opacity:1;stroke-width:5.03546;stroke-linecap:butt;stroke-linejoin:miter;stroke:rgb(68.627451%,68.627451%,68.627451%);stroke-opacity:1;stroke-miterlimit:4;" d="M 431.396484 662.957883 L 349.202474 662.306841 L 350.016276 578.566607 Z M 431.396484 662.957883 " transform="matrix(0.048,0,0,0.048,0,-26.513385)"/>
<path style=" stroke:none;fill-rule:nonzero;fill:rgb(0%,73.333333%,94.901961%);fill-opacity:1;" d="M 3.023438 3.351562 L 13.820312 3.351562 L 13.820312 7.398438 L 3.023438 7.398438 Z M 3.023438 3.351562 "/>
<path style="fill:none;stroke-width:9.063828;stroke-linecap:butt;stroke-linejoin:miter;stroke:rgb(100%,100%,100%);stroke-opacity:1;stroke-miterlimit:4;" d="M 139.241536 693.882362 L 139.241536 637.485878 C 139.241536 637.485878 170.003255 631.545122 169.921875 651.808794 C 169.840495 672.072466 139.811198 666.538612 139.811198 666.538612 " transform="matrix(0.048,0,0,0.048,0,-26.513385)"/>
<path style=" stroke:none;fill-rule:nonzero;fill:rgb(0%,73.333333%,94.901961%);fill-opacity:1;" d="M 12.914062 22.789062 C 16.558594 22.789062 19.515625 21.289062 19.515625 19.441406 C 19.515625 17.59375 16.558594 16.097656 12.914062 16.097656 C 9.269531 16.097656 6.316406 17.59375 6.316406 19.441406 C 6.316406 21.289062 9.269531 22.789062 12.914062 22.789062 "/>
<path style=" stroke:none;fill-rule:nonzero;fill:rgb(100%,100%,100%);fill-opacity:1;" d="M 9.777344 19.855469 C 10.078125 19.855469 10.300781 19.800781 10.445312 19.691406 C 10.582031 19.585938 10.679688 19.398438 10.730469 19.136719 C 10.777344 18.894531 10.761719 18.722656 10.675781 18.632812 C 10.59375 18.539062 10.410156 18.492188 10.132812 18.492188 L 9.65625 18.492188 L 9.390625 19.855469 Z M 8.210938 21.539062 C 8.1875 21.539062 8.167969 21.53125 8.152344 21.511719 C 8.140625 21.496094 8.132812 21.472656 8.140625 21.453125 L 8.84375 17.828125 C 8.847656 17.796875 8.878906 17.769531 8.914062 17.769531 L 10.433594 17.769531 C 10.910156 17.769531 11.261719 17.898438 11.488281 18.15625 C 11.710938 18.410156 11.78125 18.769531 11.691406 19.222656 C 11.65625 19.40625 11.59375 19.574219 11.511719 19.726562 C 11.425781 19.882812 11.3125 20.023438 11.175781 20.148438 C 11.007812 20.304688 10.824219 20.414062 10.621094 20.480469 C 10.421875 20.542969 10.167969 20.578125 9.863281 20.578125 L 9.25 20.578125 L 9.074219 21.480469 C 9.066406 21.515625 9.035156 21.539062 9 21.539062 Z M 8.210938 21.539062 "/>
<path style=" stroke:none;fill-rule:nonzero;fill:rgb(100%,100%,100%);fill-opacity:1;" d="M 13.5 20.578125 C 13.480469 20.578125 13.457031 20.566406 13.445312 20.550781 C 13.429688 20.53125 13.421875 20.511719 13.425781 20.488281 L 13.738281 18.886719 C 13.769531 18.734375 13.761719 18.625 13.71875 18.578125 C 13.691406 18.550781 13.613281 18.503906 13.378906 18.503906 L 12.816406 18.503906 L 12.425781 20.515625 C 12.417969 20.550781 12.386719 20.578125 12.351562 20.578125 L 11.570312 20.578125 C 11.546875 20.578125 11.527344 20.566406 11.511719 20.550781 C 11.496094 20.53125 11.492188 20.511719 11.496094 20.488281 L 12.199219 16.867188 C 12.207031 16.832031 12.238281 16.808594 12.273438 16.808594 L 13.054688 16.808594 C 13.078125 16.808594 13.097656 16.816406 13.113281 16.835938 C 13.128906 16.851562 13.132812 16.875 13.128906 16.894531 L 12.957031 17.769531 L 13.566406 17.769531 C 14.027344 17.769531 14.339844 17.851562 14.523438 18.019531 C 14.710938 18.191406 14.769531 18.464844 14.695312 18.832031 L 14.367188 20.515625 C 14.363281 20.550781 14.332031 20.578125 14.296875 20.578125 Z M 13.5 20.578125 "/>
<path style=" stroke:none;fill-rule:nonzero;fill:rgb(100%,100%,100%);fill-opacity:1;" d="M 15.933594 19.855469 C 16.234375 19.855469 16.457031 19.800781 16.601562 19.691406 C 16.738281 19.585938 16.835938 19.398438 16.886719 19.136719 C 16.933594 18.894531 16.914062 18.722656 16.832031 18.632812 C 16.75 18.539062 16.566406 18.492188 16.289062 18.492188 L 15.8125 18.492188 L 15.546875 19.855469 Z M 14.367188 21.539062 C 14.347656 21.539062 14.324219 21.53125 14.308594 21.511719 C 14.296875 21.496094 14.289062 21.472656 14.292969 21.453125 L 15 17.828125 C 15.003906 17.796875 15.035156 17.769531 15.070312 17.769531 L 16.589844 17.769531 C 17.066406 17.769531 17.421875 17.898438 17.640625 18.15625 C 17.867188 18.410156 17.9375 18.769531 17.847656 19.222656 C 17.8125 19.40625 17.75 19.574219 17.664062 19.726562 C 17.582031 19.882812 17.46875 20.023438 17.332031 20.148438 C 17.167969 20.304688 16.980469 20.414062 16.777344 20.480469 C 16.578125 20.542969 16.324219 20.578125 16.019531 20.578125 L 15.40625 20.578125 L 15.230469 21.480469 C 15.222656 21.515625 15.191406 21.539062 15.15625 21.539062 Z M 14.367188 21.539062 "/>
<path style="fill:none;stroke-width:9;stroke-linecap:butt;stroke-linejoin:miter;stroke:rgb(100%,100%,100%);stroke-opacity:1;stroke-miterlimit:4;" d="M 311.199902 528.451504 L 311.525423 582.976243 " transform="matrix(0.048,0,0,0.048,-6.054783,-21.334422)"/>
<path style="fill:none;stroke-width:9;stroke-linecap:butt;stroke-linejoin:miter;stroke:rgb(100%,100%,100%);stroke-opacity:1;stroke-miterlimit:4;" d="M 346.274772 527.963223 L 346.600293 582.487962 " transform="matrix(0.048,0,0,0.048,-6.054783,-21.334422)"/>
<path style="fill:none;stroke-width:9;stroke-linecap:butt;stroke-linejoin:miter;stroke:rgb(100%,100%,100%);stroke-opacity:1;stroke-miterlimit:4;" d="M 310.874382 555.062832 L 347.495475 555.062832 " transform="matrix(0.048,0,0,0.048,-6.054783,-21.334422)"/>
<path style="fill:none;stroke-width:9.063828;stroke-linecap:butt;stroke-linejoin:miter;stroke:rgb(100%,100%,100%);stroke-opacity:1;stroke-miterlimit:4;" d="M 239.339193 693.394081 L 239.339193 636.997596 C 239.339193 636.997596 270.100911 631.056841 270.019531 651.320513 C 269.938151 671.584185 239.908854 666.050331 239.908854 666.050331 " transform="matrix(0.048,0,0,0.048,0,-26.513385)"/>
</g>
</svg>
