<?xml version="1.0" encoding="UTF-8"?>
<svg xmlns="http://www.w3.org/2000/svg" xmlns:xlink="http://www.w3.org/1999/xlink" width="24" height="24" viewBox="0 0 24 24" version="1.1">
<g id="surface1">
<path style=" stroke:none;fill-rule:evenodd;fill:rgb(39.215686%,39.215686%,39.215686%);fill-opacity:1;" d="M 3.027344 7.386719 L 5.582031 9.886719 L 5.5 6.378906 L 3.023438 6.367188 Z M 3.027344 7.386719 "/>
<path style="fill-rule:evenodd;fill:rgb(94.901961%,94.901961%,94.901961%);fill-opacity:1;stroke-width:5.03546;stroke-linecap:butt;stroke-linejoin:miter;stroke:rgb(68.627451%,68.627451%,68.627451%);stroke-opacity:1;stroke-miterlimit:4;" d="M 97.005208 1029.819862 L 433.919271 1028.680539 L 435.139974 664.748247 L 347.086589 575.555539 L 97.005208 575.555539 Z M 97.005208 1029.819862 " transform="matrix(0.048,0,0,0.048,0,-26.513385)"/>
<path style="fill-rule:evenodd;fill:rgb(68.627451%,68.627451%,68.627451%);fill-opacity:1;stroke-width:5.03546;stroke-linecap:butt;stroke-linejoin:miter;stroke:rgb(68.627451%,68.627451%,68.627451%);stroke-opacity:1;stroke-miterlimit:4;" d="M 431.559245 662.957883 L 349.365234 662.306841 L 350.097656 578.566607 Z M 431.559245 662.957883 " transform="matrix(0.048,0,0,0.048,0,-26.513385)"/>
<path style=" stroke:none;fill-rule:nonzero;fill:rgb(60%,60%,60%);fill-opacity:1;" d="M 3.03125 3.351562 L 13.351562 3.351562 L 13.351562 7.398438 L 3.03125 7.398438 Z M 3.03125 3.351562 "/>
<path style=" stroke:none;fill-rule:nonzero;fill:rgb(80%,80%,80%);fill-opacity:0.588235;" d="M 12.289062 14.558594 C 10.691406 14.476562 9.214844 14.035156 8.578125 13.445312 C 8.417969 13.296875 8.289062 13.082031 8.289062 12.964844 C 8.289062 12.765625 8.535156 12.46875 8.875 12.25 C 10.34375 11.3125 13.382812 11.0625 15.609375 11.695312 C 16.378906 11.914062 16.960938 12.210938 17.28125 12.554688 C 17.496094 12.78125 17.539062 12.929688 17.445312 13.136719 C 17.222656 13.625 16.234375 14.121094 14.992188 14.371094 C 14.492188 14.472656 14.019531 14.527344 13.429688 14.558594 C 12.910156 14.585938 12.847656 14.585938 12.289062 14.558594 Z M 12.289062 14.558594 "/>
<path style=" stroke:none;fill-rule:nonzero;fill:rgb(80%,80%,80%);fill-opacity:0.588235;" d="M 12.449219 22.808594 C 11.226562 22.75 10.09375 22.410156 9.601562 21.957031 C 9.480469 21.839844 9.378906 21.675781 9.378906 21.585938 C 9.382812 21.433594 9.570312 21.207031 9.832031 21.039062 C 10.957031 20.320312 13.289062 20.128906 14.996094 20.613281 C 15.585938 20.78125 16.035156 21.011719 16.28125 21.273438 C 16.445312 21.449219 16.476562 21.5625 16.40625 21.71875 C 16.234375 22.09375 15.476562 22.476562 14.523438 22.667969 C 14.140625 22.746094 13.777344 22.789062 13.324219 22.8125 C 12.929688 22.832031 12.878906 22.832031 12.449219 22.808594 Z M 12.449219 22.808594 "/>
<path style=" stroke:none;fill-rule:nonzero;fill:rgb(58.823529%,58.823529%,58.823529%);fill-opacity:0.588235;" d="M 12.367188 22.8125 C 11.054688 22.722656 9.988281 22.363281 9.527344 21.859375 C 9.359375 21.679688 9.316406 21.582031 9.269531 21.300781 C 9.132812 20.523438 7.8125 13.414062 7.777344 13.28125 C 7.539062 12.378906 8.507812 11.554688 10.335938 11.105469 C 10.757812 11.003906 11.394531 10.902344 11.898438 10.855469 C 12.355469 10.816406 13.40625 10.816406 13.863281 10.855469 C 16.078125 11.054688 17.734375 11.816406 17.984375 12.753906 C 18.03125 12.9375 18.03125 13.074219 17.96875 13.324219 C 17.902344 13.597656 16.476562 21.320312 16.476562 21.40625 C 16.476562 21.441406 16.441406 21.542969 16.398438 21.628906 C 16.171875 22.078125 15.421875 22.476562 14.410156 22.683594 C 13.84375 22.796875 12.960938 22.855469 12.367188 22.8125 Z M 12.367188 22.8125 "/>
<path style="fill-rule:nonzero;fill:rgb(0%,40%,50.196078%);fill-opacity:1;stroke-width:1;stroke-linecap:butt;stroke-linejoin:miter;stroke:rgb(0%,40%,50.196078%);stroke-opacity:1;stroke-miterlimit:4;" d="M 68.805936 87.314169 L 64.765975 94.430716 L 68.868089 101.454032 L 68.868089 98.377447 L 72.286518 98.315293 C 74.430805 98.25314 75.58064 96.606079 75.58064 96.606079 L 80.739359 87.749241 C 81.858118 85.294188 80.677206 83.584974 80.677206 83.584974 L 77.072318 77.431802 L 69.986847 81.533917 L 74.555111 89.427379 C 74.710494 89.862452 74.430805 90.204295 73.933579 90.173218 L 68.837012 90.204295 Z M 68.805936 87.314169 " transform="matrix(0.125697,0,0,0.125697,4.898149,8.036557)"/>
<path style="fill-rule:nonzero;fill:rgb(0%,40%,50.196078%);fill-opacity:1;stroke-width:1;stroke-linecap:butt;stroke-linejoin:miter;stroke:rgb(0%,40%,50.196078%);stroke-opacity:1;stroke-miterlimit:4;" d="M 58.488497 86.257564 L 54.324229 79.20317 L 46.182154 79.265323 L 48.88582 80.788078 L 47.207682 83.80251 C 46.21323 85.667108 47.052299 87.500628 47.052299 87.500628 L 52.148865 96.388543 C 53.76485 98.594983 55.815907 98.408523 55.815907 98.408523 L 62.932454 98.34637 L 62.901377 90.142141 L 53.795927 90.173218 C 53.329777 90.111065 53.174394 89.707069 53.423007 89.271996 L 55.940214 84.828039 Z M 58.488497 86.257564 " transform="matrix(0.125697,0,0,0.125697,4.898149,8.036557)"/>
<path style="fill-rule:nonzero;fill:rgb(0%,40%,50.196078%);fill-opacity:1;stroke-width:1;stroke-linecap:butt;stroke-linejoin:miter;stroke:rgb(0%,40%,50.196078%);stroke-opacity:1;stroke-miterlimit:4;" d="M 64.579515 77.835799 L 72.752667 77.773645 L 76.792628 70.719252 L 74.120038 72.273083 L 72.348671 69.320804 C 71.229912 67.51836 69.209932 67.3319 69.209932 67.3319 L 58.985723 67.269747 C 56.282056 67.580513 55.411911 69.44511 55.411911 69.44511 L 51.869176 75.629358 L 58.985723 79.700396 L 63.553986 71.806934 C 63.833676 71.465091 64.237672 71.527244 64.486285 71.962317 L 67.065645 76.375197 Z M 64.579515 77.835799 " transform="matrix(0.125697,0,0,0.125697,4.898149,8.036557)"/>
<path style="fill:none;stroke-width:9;stroke-linecap:butt;stroke-linejoin:miter;stroke:rgb(100%,100%,100%);stroke-opacity:1;stroke-miterlimit:4;" d="M 134.033203 695.103065 L 199.30013 632.196164 " transform="matrix(0.048,0,0,0.048,0,-26.513385)"/>
<path style="fill-rule:nonzero;fill:rgb(60%,60%,60%);fill-opacity:1;stroke-width:9.11013;stroke-linecap:butt;stroke-linejoin:bevel;stroke:rgb(100%,100%,100%);stroke-opacity:1;stroke-miterlimit:4;" d="M 153.889974 642.612831 C 153.889974 648.309445 149.251302 653.029497 143.473307 653.029497 C 137.695312 653.029497 132.97526 648.309445 132.97526 642.612831 C 132.97526 636.834836 137.695312 632.114784 143.473307 632.114784 C 149.251302 632.114784 153.889974 636.834836 153.889974 642.612831 Z M 153.889974 642.612831 " transform="matrix(0.048,0,0,0.048,0,-26.513385)"/>
<path style="fill-rule:nonzero;fill:rgb(60%,60%,60%);fill-opacity:1;stroke-width:9.11013;stroke-linecap:butt;stroke-linejoin:bevel;stroke:rgb(100%,100%,100%);stroke-opacity:1;stroke-miterlimit:4;" d="M 199.869792 684.930539 C 199.869792 690.708534 195.23112 695.428586 189.453125 695.428586 C 183.67513 695.428586 178.955078 690.708534 178.955078 684.930539 C 178.955078 679.152544 183.67513 674.513872 189.453125 674.513872 C 195.23112 674.513872 199.869792 679.152544 199.869792 684.930539 Z M 199.869792 684.930539 " transform="matrix(0.048,0,0,0.048,0,-26.513385)"/>
</g>
</svg>
