<?xml version="1.0" encoding="UTF-8"?>
<svg xmlns="http://www.w3.org/2000/svg" xmlns:xlink="http://www.w3.org/1999/xlink" width="24" height="24" viewBox="0 0 24 24" version="1.1">
<g id="surface1">
<path style=" stroke:none;fill-rule:evenodd;fill:rgb(20%,20%,20%);fill-opacity:1;" d="M 3.027344 7.144531 L 5.582031 9.644531 L 5.5 6.140625 L 3.023438 6.128906 Z M 3.027344 7.144531 "/>
<path style="fill-rule:evenodd;fill:rgb(94.901961%,94.901961%,94.901961%);fill-opacity:1;stroke-width:5.03546;stroke-linecap:butt;stroke-linejoin:miter;stroke:rgb(68.627451%,68.627451%,68.627451%);stroke-opacity:1;stroke-miterlimit:4;" d="M 97.005208 1024.855669 L 433.919271 1023.634966 L 435.139974 659.784055 L 347.086589 570.591346 L 97.005208 570.591346 Z M 97.005208 1024.855669 " transform="matrix(0.048,0,0,0.048,0,-26.513385)"/>
<path style="fill-rule:evenodd;fill:rgb(68.627451%,68.627451%,68.627451%);fill-opacity:1;stroke-width:5.03546;stroke-linecap:butt;stroke-linejoin:miter;stroke:rgb(68.627451%,68.627451%,68.627451%);stroke-opacity:1;stroke-miterlimit:4;" d="M 431.559245 657.91231 L 349.365234 657.342648 L 350.097656 573.521034 Z M 431.559245 657.91231 " transform="matrix(0.048,0,0,0.048,0,-26.513385)"/>
<path style=" stroke:none;fill-rule:nonzero;fill:rgb(22.352941%,25.098039%,31.372549%);fill-opacity:1;" d="M 3.03125 3.109375 L 13.828125 3.109375 L 13.828125 7.160156 L 3.03125 7.160156 Z M 3.03125 3.109375 "/>
<path style=" stroke:none;fill-rule:evenodd;fill:rgb(60%,60%,60%);fill-opacity:1;" d="M 14.300781 22.363281 C 11.097656 23.210938 7.816406 21.304688 6.96875 18.101562 C 6.117188 14.898438 8.027344 11.613281 11.230469 10.765625 L 12.660156 16.171875 C 12.445312 16.230469 12.316406 16.453125 12.371094 16.667969 C 12.429688 16.886719 12.652344 17.015625 12.871094 16.957031 Z M 11.230469 10.765625 C 14.433594 9.917969 17.714844 11.828125 18.5625 15.03125 C 19.414062 18.230469 17.503906 21.515625 14.300781 22.363281 L 12.871094 16.957031 C 13.085938 16.902344 13.214844 16.679688 13.15625 16.460938 C 13.101562 16.246094 12.878906 16.113281 12.660156 16.171875 Z M 11.230469 10.765625 "/>
<path style=" stroke:none;fill-rule:evenodd;fill:rgb(80%,80%,80%);fill-opacity:1;" d="M 14.300781 22.363281 C 11.097656 23.210938 7.816406 21.304688 6.96875 18.101562 C 6.117188 14.898438 8.027344 11.613281 11.230469 10.765625 L 12.660156 16.171875 C 12.445312 16.230469 12.316406 16.453125 12.371094 16.667969 C 12.429688 16.886719 12.652344 17.015625 12.871094 16.957031 Z M 11.230469 10.765625 C 14.433594 9.917969 17.714844 11.828125 18.5625 15.03125 C 19.414062 18.230469 17.503906 21.515625 14.300781 22.363281 L 12.871094 16.957031 C 13.085938 16.902344 13.214844 16.679688 13.15625 16.460938 C 13.101562 16.246094 12.878906 16.113281 12.660156 16.171875 Z M 11.230469 10.765625 "/>
<path style=" stroke:none;fill-rule:evenodd;fill:rgb(36.470588%,41.568627%,48.235294%);fill-opacity:1;" d="M 13.3125 18.636719 C 12.171875 18.941406 10.996094 18.257812 10.695312 17.113281 C 10.390625 15.96875 11.074219 14.796875 12.21875 14.492188 L 12.660156 16.171875 C 12.445312 16.230469 12.316406 16.453125 12.371094 16.667969 C 12.429688 16.886719 12.652344 17.015625 12.871094 16.957031 Z M 12.21875 14.492188 C 13.359375 14.191406 14.535156 14.871094 14.835938 16.015625 C 15.140625 17.160156 14.457031 18.335938 13.3125 18.636719 L 12.871094 16.957031 C 13.085938 16.902344 13.214844 16.679688 13.15625 16.460938 C 13.101562 16.246094 12.878906 16.113281 12.660156 16.171875 Z M 12.21875 14.492188 "/>
<path style=" stroke:none;fill-rule:evenodd;fill:rgb(60%,60%,60%);fill-opacity:1;" d="M 13.226562 18.304688 C 12.265625 18.558594 11.28125 17.984375 11.027344 17.027344 C 10.773438 16.066406 11.34375 15.082031 12.304688 14.828125 L 12.660156 16.171875 C 12.445312 16.230469 12.316406 16.453125 12.371094 16.667969 C 12.429688 16.886719 12.652344 17.015625 12.871094 16.957031 Z M 12.304688 14.828125 C 13.265625 14.574219 14.25 15.144531 14.503906 16.105469 C 14.757812 17.066406 14.1875 18.050781 13.226562 18.304688 L 12.871094 16.957031 C 13.085938 16.902344 13.214844 16.679688 13.15625 16.460938 C 13.101562 16.246094 12.878906 16.113281 12.660156 16.171875 Z M 12.304688 14.828125 "/>
<path style=" stroke:none;fill-rule:evenodd;fill:rgb(36.470588%,41.568627%,48.235294%);fill-opacity:1;" d="M 12.957031 17.296875 C 12.554688 17.402344 12.140625 17.164062 12.035156 16.757812 C 11.925781 16.355469 12.167969 15.941406 12.570312 15.835938 L 12.660156 16.171875 C 12.445312 16.230469 12.316406 16.453125 12.371094 16.667969 C 12.429688 16.886719 12.652344 17.015625 12.871094 16.957031 Z M 12.570312 15.835938 C 12.976562 15.726562 13.390625 15.96875 13.496094 16.371094 C 13.601562 16.773438 13.363281 17.191406 12.957031 17.296875 L 12.871094 16.957031 C 13.085938 16.902344 13.214844 16.679688 13.15625 16.460938 C 13.101562 16.246094 12.878906 16.113281 12.660156 16.171875 Z M 12.570312 15.835938 "/>
<path style=" stroke:none;fill-rule:nonzero;fill:rgb(22.352941%,25.098039%,31.372549%);fill-opacity:1;" d="M 14.902344 21.210938 C 14.128906 21.625 12.953125 21.480469 12.640625 20.8125 C 12.328125 20.148438 12.835938 19.421875 13.671875 18.957031 C 14.503906 18.492188 15.316406 18.832031 15.316406 18.832031 L 15.378906 12.90625 L 15.976562 13.101562 L 16.371094 14.039062 C 16.371094 14.039062 17.820312 14.8125 18.15625 16.589844 C 18.492188 18.367188 16.390625 19.757812 16.390625 19.757812 C 16.390625 19.757812 18.160156 17.898438 17.722656 16.53125 C 17.289062 15.164062 15.941406 15.019531 15.941406 15.019531 L 15.980469 19.894531 C 15.980469 19.894531 15.671875 20.796875 14.902344 21.210938 Z M 14.902344 21.210938 "/>
<path style="fill:none;stroke-width:9;stroke-linecap:butt;stroke-linejoin:miter;stroke:rgb(100%,100%,100%);stroke-opacity:1;stroke-miterlimit:4;" d="M 153.564453 639.520383 C 153.564453 639.520383 145.914714 632.684445 131.998698 633.742388 C 118.164062 634.800331 110.270182 650.669471 111.002604 662.632362 C 111.735026 674.676633 122.233073 688.918169 135.904948 687.778846 C 149.414062 686.558143 153.564453 681.756711 153.564453 681.756711 " transform="matrix(0.048,0,0,0.048,0,-26.513385)"/>
<path style="fill:none;stroke-width:9;stroke-linecap:butt;stroke-linejoin:miter;stroke:rgb(100%,100%,100%);stroke-opacity:1;stroke-miterlimit:4;" d="M 168.375651 686.720904 L 168.863932 634.55619 C 168.863932 634.55619 208.740234 628.778195 209.309896 661.086138 C 209.798177 693.475461 168.375651 686.720904 168.375651 686.720904 Z M 168.375651 686.720904 " transform="matrix(0.048,0,0,0.048,0,-26.513385)"/>
<path style="fill:none;stroke-width:9;stroke-linecap:butt;stroke-linejoin:bevel;stroke:rgb(100%,100%,100%);stroke-opacity:1;stroke-miterlimit:4;" d="M 915.733607 696.315186 L 937.874721 637.972544 L 960.581483 696.315186 " transform="matrix(0.0483405,0,0,0.0483405,-33.712333,-26.992255)"/>
<path style="fill:none;stroke-width:9;stroke-linecap:butt;stroke-linejoin:miter;stroke:rgb(100%,100%,100%);stroke-opacity:1;stroke-miterlimit:4;" d="M 924.622375 676.759896 L 950.399803 676.759896 " transform="matrix(0.0483405,0,0,0.0483405,-33.712333,-26.992255)"/>
</g>
</svg>
