<?xml version="1.0" encoding="UTF-8"?>
<svg xmlns="http://www.w3.org/2000/svg" xmlns:xlink="http://www.w3.org/1999/xlink" width="24" height="24" viewBox="0 0 24 24" version="1.1">
<g id="surface1">
<path style=" stroke:none;fill-rule:evenodd;fill:rgb(20%,20%,20%);fill-opacity:1;" d="M 3.027344 7.386719 L 5.582031 9.886719 L 5.5 6.378906 L 3.023438 6.367188 Z M 3.027344 7.386719 "/>
<path style="fill-rule:evenodd;fill:rgb(94.901961%,94.901961%,94.901961%);fill-opacity:1;stroke-width:5.03546;stroke-linecap:butt;stroke-linejoin:miter;stroke:rgb(68.627451%,68.627451%,68.627451%);stroke-opacity:1;stroke-miterlimit:4;" d="M 97.005208 1029.819862 L 433.919271 1028.680539 L 435.139974 664.748247 L 347.086589 575.555539 L 97.005208 575.555539 Z M 97.005208 1029.819862 " transform="matrix(0.048,0,0,0.048,0,-26.513385)"/>
<path style="fill-rule:evenodd;fill:rgb(68.627451%,68.627451%,68.627451%);fill-opacity:1;stroke-width:5.03546;stroke-linecap:butt;stroke-linejoin:miter;stroke:rgb(68.627451%,68.627451%,68.627451%);stroke-opacity:1;stroke-miterlimit:4;" d="M 431.559245 662.957883 L 349.365234 662.306841 L 350.097656 578.566607 Z M 431.559245 662.957883 " transform="matrix(0.048,0,0,0.048,0,-26.513385)"/>
<path style=" stroke:none;fill-rule:nonzero;fill:rgb(22.352941%,25.098039%,31.372549%);fill-opacity:1;" d="M 3.03125 3.351562 L 13.828125 3.351562 L 13.828125 7.398438 L 3.03125 7.398438 Z M 3.03125 3.351562 "/>
<path style=" stroke:none;fill-rule:nonzero;fill:rgb(36.470588%,41.568627%,48.235294%);fill-opacity:1;" d="M 14.730469 13.066406 L 15.210938 13.234375 L 15.210938 13.445312 L 14.796875 13.566406 L 14.796875 14.226562 L 15.691406 13.980469 L 15.183594 14.242188 L 15.195312 14.742188 L 14.808594 14.863281 L 14.808594 15.492188 L 15.636719 15.289062 L 15.210938 15.542969 L 15.210938 16.015625 L 14.789062 16.160156 L 14.816406 16.761719 L 15.710938 16.515625 L 15.210938 16.804688 L 15.199219 17.265625 L 14.804688 17.386719 L 14.816406 17.980469 L 15.6875 17.753906 L 15.136719 18.101562 L 15.121094 18.292969 L 16.507812 18.292969 L 16.492188 17.640625 L 16.894531 17.554688 L 16.882812 16.910156 L 15.941406 17.117188 L 16.488281 16.886719 L 16.492188 16.429688 L 16.910156 16.304688 L 16.910156 15.648438 L 16.183594 15.855469 L 16.476562 15.664062 L 16.480469 15.183594 L 16.871094 15.070312 L 16.871094 14.410156 L 16.015625 14.617188 L 16.449219 14.394531 L 16.46875 13.855469 L 16.867188 13.792969 L 16.886719 13.140625 L 16.101562 13.320312 L 16.507812 13.003906 L 16.507812 12.800781 L 14.765625 12.847656 Z M 14.730469 13.066406 "/>
<path style=" stroke:none;fill-rule:nonzero;fill:rgb(40%,40%,40%);fill-opacity:1;" d="M 14.832031 19.71875 L 14.839844 21.078125 L 14.449219 21.078125 L 14.449219 21.570312 L 13.746094 21.585938 L 13.738281 21.15625 L 12.808594 21.164062 L 12.792969 22.679688 L 13.746094 22.679688 L 13.746094 22.289062 L 14.457031 22.28125 L 14.457031 22.773438 L 17.257812 22.765625 L 17.265625 22.289062 L 18.007812 22.289062 L 18.007812 22.703125 L 18.914062 22.703125 L 18.90625 21.132812 L 18.007812 21.140625 L 18.007812 21.601562 L 17.257812 21.601562 L 17.230469 21.066406 L 16.902344 21.074219 L 16.902344 19.703125 Z M 14.832031 19.71875 "/>
<path style=" stroke:none;fill-rule:nonzero;fill:rgb(22.352941%,25.098039%,31.372549%);fill-opacity:1;" d="M 8.546875 19.246094 L 8.523438 19.621094 L 9.367188 20.410156 L 13.792969 20.453125 L 14.371094 19.8125 L 17.394531 19.78125 L 17.394531 18.007812 L 14.433594 18.007812 L 13.257812 19.257812 Z M 8.546875 19.246094 "/>
<path style=" stroke:none;fill-rule:nonzero;fill:rgb(22.352941%,25.098039%,31.372549%);fill-opacity:1;" d="M 8.550781 11.992188 L 8.527344 11.617188 L 9.371094 10.828125 L 13.796875 10.785156 L 14.375 11.425781 L 17.398438 11.457031 L 17.398438 13.230469 L 14.4375 13.230469 L 13.261719 11.980469 Z M 8.550781 11.992188 "/>
<path style=" stroke:none;fill-rule:nonzero;fill:rgb(100%,72.156863%,0%);fill-opacity:1;" d="M 6.914062 11.980469 L 13.261719 11.980469 L 13.261719 19.25 L 6.914062 19.25 Z M 6.914062 11.980469 "/>
<path style=" stroke:none;fill-rule:nonzero;fill:rgb(98.039216%,92.54902%,42.745098%);fill-opacity:1;" d="M 7.386719 12.628906 L 12.710938 12.628906 L 12.710938 15.429688 L 7.386719 15.429688 Z M 7.386719 12.628906 "/>
<path style=" stroke:none;fill-rule:nonzero;fill:rgb(98.039216%,92.54902%,42.745098%);fill-opacity:1;" d="M 7.429688 15.886719 L 12.753906 15.886719 L 12.753906 18.691406 L 7.429688 18.691406 Z M 7.429688 15.886719 "/>
<path style=" stroke:none;fill-rule:nonzero;fill:rgb(15.686275%,13.333333%,4.313725%);fill-opacity:1;" d="M 9.054688 13.730469 L 11.191406 13.730469 L 11.191406 14.414062 L 9.054688 14.414062 Z M 9.054688 13.730469 "/>
<path style=" stroke:none;fill-rule:nonzero;fill:rgb(15.686275%,13.333333%,4.313725%);fill-opacity:1;" d="M 9.042969 16.902344 L 11.179688 16.902344 L 11.179688 17.589844 L 9.042969 17.589844 Z M 9.042969 16.902344 "/>
<path style="fill:none;stroke-width:9;stroke-linecap:butt;stroke-linejoin:bevel;stroke:rgb(100%,100%,100%);stroke-opacity:1;stroke-miterlimit:4;" d="M 915.688596 696.289131 L 937.829709 638.027296 L 960.536472 696.289131 " transform="matrix(0.0483405,0,0,0.0483405,-36.565626,-26.936309)"/>
<path style="fill:none;stroke-width:9;stroke-linecap:butt;stroke-linejoin:miter;stroke:rgb(100%,100%,100%);stroke-opacity:1;stroke-miterlimit:4;" d="M 924.577364 676.733841 L 950.354792 676.733841 " transform="matrix(0.0483405,0,0,0.0483405,-36.565626,-26.936309)"/>
<path style="fill:none;stroke-width:9.063828;stroke-linecap:butt;stroke-linejoin:miter;stroke:rgb(100%,100%,100%);stroke-opacity:1;stroke-miterlimit:4;" d="M 384.418574 735.885862 L 384.418574 679.489378 C 384.418574 679.489378 415.261673 673.548622 415.180293 693.812294 C 415.098913 714.075966 385.069616 708.542112 385.069616 708.542112 " transform="matrix(0.048,0,0,0.048,-12.967717,-28.693615)"/>
<path style="fill:none;stroke-width:9;stroke-linecap:butt;stroke-linejoin:miter;stroke:rgb(100%,100%,100%);stroke-opacity:1;stroke-miterlimit:4;" d="M 392.475215 710.413857 L 418.435501 734.909299 " transform="matrix(0.048,0,0,0.048,-12.967717,-28.693615)"/>
<path style="fill:none;stroke-width:9.063828;stroke-linecap:butt;stroke-linejoin:miter;stroke:rgb(100%,100%,100%);stroke-opacity:1;stroke-miterlimit:4;" d="M 384.472335 735.941007 L 384.472335 679.463142 C 384.472335 679.463142 415.234053 673.522387 415.152673 693.786059 C 415.071293 714.04973 385.041996 708.515876 385.041996 708.515876 " transform="matrix(0.048,0,0,0.048,-7.876547,-28.637668)"/>
<path style="fill:none;stroke-width:9;stroke-linecap:butt;stroke-linejoin:miter;stroke:rgb(100%,100%,100%);stroke-opacity:1;stroke-miterlimit:4;" d="M 392.447595 710.469001 L 418.407882 734.964444 " transform="matrix(0.048,0,0,0.048,-7.876547,-28.637668)"/>
</g>
</svg>
