<?xml version="1.0" encoding="UTF-8"?>
<svg xmlns="http://www.w3.org/2000/svg" xmlns:xlink="http://www.w3.org/1999/xlink" width="24" height="24" viewBox="0 0 24 24" version="1.1">
<g id="surface1">
<path style=" stroke:none;fill-rule:evenodd;fill:rgb(15.686275%,9.019608%,4.313725%);fill-opacity:1;" d="M 3.03125 7.414062 L 5.585938 9.914062 L 5.507812 6.40625 L 3.03125 6.394531 Z M 3.03125 7.414062 "/>
<path style="fill-rule:evenodd;fill:rgb(94.901961%,94.901961%,94.901961%);fill-opacity:1;stroke-width:5.03546;stroke-linecap:butt;stroke-linejoin:miter;stroke:rgb(68.627451%,68.627451%,68.627451%);stroke-opacity:1;stroke-miterlimit:4;" d="M 96.923828 1029.819862 L 433.75651 1028.680539 L 434.977214 664.748247 L 346.923828 575.555539 L 96.923828 575.555539 Z M 96.923828 1029.819862 " transform="matrix(0.048,0,0,0.048,0,-26.513385)"/>
<path style="fill-rule:evenodd;fill:rgb(68.627451%,68.627451%,68.627451%);fill-opacity:1;stroke-width:5.03546;stroke-linecap:butt;stroke-linejoin:miter;stroke:rgb(68.627451%,68.627451%,68.627451%);stroke-opacity:1;stroke-miterlimit:4;" d="M 431.396484 662.957883 L 349.202474 662.306841 L 350.016276 578.566607 Z M 431.396484 662.957883 " transform="matrix(0.048,0,0,0.048,0,-26.513385)"/>
<path style=" stroke:none;fill-rule:nonzero;fill:rgb(31.372549%,17.647059%,8.627451%);fill-opacity:1;" d="M 3.023438 3.351562 L 13.820312 3.351562 L 13.820312 7.398438 L 3.023438 7.398438 Z M 3.023438 3.351562 "/>
<path style="fill:none;stroke-width:9.063828;stroke-linecap:butt;stroke-linejoin:miter;stroke:rgb(100%,100%,100%);stroke-opacity:1;stroke-miterlimit:4;" d="M 139.241536 693.882362 L 139.241536 637.485878 C 139.241536 637.485878 170.003255 631.545122 169.921875 651.808794 C 169.840495 672.072466 139.811198 666.538612 139.811198 666.538612 " transform="matrix(0.048,0,0,0.048,0,-26.513385)"/>
<path style="fill-rule:nonzero;fill:rgb(31.372549%,17.647059%,8.627451%);fill-opacity:1;stroke-width:0.759318;stroke-linecap:butt;stroke-linejoin:miter;stroke:rgb(0%,0%,0%);stroke-opacity:1;stroke-miterlimit:4;" d="M 233.886719 776.076372 C 230.143229 776.727414 226.969401 778.680539 223.470052 779.819862 C 216.145833 784.539914 210.205078 791.864133 208.658854 800.653195 C 204.020182 815.464393 190.429688 825.230018 185.709635 839.959836 C 181.803385 849.39994 174.804688 856.886919 168.294271 864.455279 C 163.736979 870.070513 164.22526 877.638872 162.272135 884.149289 C 160.23763 885.939654 158.854167 890.090044 162.597656 890.496945 C 162.516276 893.833534 160.15625 897.577023 162.597656 900.750852 C 164.469401 907.749549 167.80599 914.422727 171.061198 920.851763 C 171.71224 923.211789 175.78125 925.978716 176.350911 922.153846 C 176.839193 916.782753 179.199219 910.353716 175.374349 905.552284 C 172.932943 899.448768 174.967448 893.019732 176.106771 886.916216 C 175.537109 883.091346 176.920573 878.778195 178.955078 875.848508 C 180.989583 876.987831 180.338542 880.73132 181.152344 882.765826 C 183.186849 897.414263 183.75651 912.632362 180.094401 927.118039 C 178.710938 932.733273 180.908203 938.755409 179.60612 944.289263 C 174.886068 949.416216 178.548177 956.903195 178.955078 962.925331 C 181.233724 974.074419 180.013021 985.630409 176.676432 996.291216 C 176.595052 1000.116086 175.211589 1003.615435 174.479167 1007.277544 C 175.78125 1011.916216 182.128906 1013.54382 186.360677 1012.404497 C 188.964844 1010.695513 194.010417 1014.032102 195.23112 1009.800331 C 195.638021 1005.243039 191.162109 1001.82507 191.48763 997.186398 C 188.720703 984.409706 186.604818 971.144732 189.371745 958.123898 C 190.755208 950.555539 190.185547 942.498898 192.301432 935.25606 C 197.021484 929.315305 200.195312 922.397987 202.229818 915.073768 C 204.996745 908.970253 206.705729 901.646034 208.414714 895.786659 C 215.738932 907.505409 220.133464 921.584185 218.180339 935.581581 C 218.424479 941.034055 215.00651 947.381711 219.645182 951.694862 C 225.179036 960.402544 232.177734 968.621945 235.026042 978.631711 C 235.188802 982.782102 229.573568 982.863482 228.108724 986.281451 C 224.772135 991.082883 225.097656 997.267779 224.772135 1002.801633 C 227.864583 1004.022336 232.503255 1007.277544 235.107422 1003.371294 C 237.711589 1000.685747 238.850911 995.884315 241.536458 993.76843 C 243.164062 996.942258 241.617839 1001.987831 245.93099 1003.534055 C 252.034505 1005.73132 259.114583 1006.382362 265.46224 1004.836138 C 268.717448 1001.987831 264.241536 998.000201 261.474609 996.942258 C 256.917318 995.558794 254.231771 991.978065 252.604167 987.664914 C 251.139323 985.223508 250.16276 982.456581 252.929687 980.584836 C 259.602865 972.528195 268.717448 967.238482 275.716146 959.670122 C 279.947917 953.810747 278.889974 945.591346 277.26237 938.918169 C 275.309245 935.093299 273.844401 931.024289 274.902344 926.629758 C 275.634766 922.804888 273.030599 918.898638 273.193359 915.480669 C 276.936849 915.236529 281.25 915.399289 284.586589 916.619992 C 285.481771 922.642128 284.179688 929.071164 285.888672 934.849159 C 288.655599 937.534706 290.039062 941.766477 290.201823 945.672727 C 292.88737 948.927935 291.178385 953.647987 291.910807 957.554237 C 290.201823 964.064654 292.643229 970.41231 294.596354 976.515826 C 298.177083 988.071815 296.630859 1000.604367 299.723307 1012.241737 C 302.083333 1015.578326 298.177083 1021.11218 302.734375 1023.309445 C 309.814453 1025.913612 319.335938 1026.727414 325.358073 1021.35632 C 327.229818 1017.694211 321.777344 1015.578326 319.173177 1014.357622 C 315.511068 1013.625201 312.66276 1011.021034 311.930339 1007.196164 C 306.315104 995.640174 303.548177 982.700721 305.501302 969.842648 C 305.826823 963.657753 306.722005 957.554237 308.268229 951.613482 C 309.000651 945.591346 309.163411 939.406451 310.872396 933.628456 C 311.930339 925.571815 310.139974 917.108273 312.41862 909.214393 C 316.080729 911.574419 319.986979 913.934445 324.30013 914.259966 C 327.148438 916.375852 330.159505 914.259966 331.624349 911.655799 C 333.902995 908.563352 336.669922 916.864133 338.704427 912.632362 C 341.227214 909.784055 344.563802 907.668169 347.49349 905.389523 C 349.121094 902.703977 352.457682 902.866737 354.817708 901.564654 C 356.526693 899.448768 353.759766 896.030799 356.770833 894.403195 C 357.828776 891.636268 360.514323 895.298378 361.735026 892.694211 C 362.955729 889.845904 362.792969 885.939654 366.210938 884.718951 C 372.395833 879.754758 370.524089 870.802935 371.663411 863.885617 C 371.582031 856.968299 372.965495 849.644081 371.25651 842.889523 C 369.222005 837.68119 365.966797 832.228716 364.664714 827.020383 C 370.686849 822.218951 381.347656 826.206581 385.498047 818.23132 C 387.288411 812.453326 381.673177 807.489133 378.011068 803.827023 C 374.348958 800.490435 368.733724 802.036659 364.339193 800.409055 C 360.921224 799.269732 355.63151 800.490435 354.736328 795.851763 C 353.352865 792.189654 348.876953 792.271034 346.435547 789.504107 C 342.610677 787.550982 339.192708 792.026893 335.367839 792.352414 C 331.217448 795.282102 326.416016 798.130409 323.730469 802.60632 C 322.591146 805.536008 323.567708 809.279497 320.39388 811.151242 C 315.185547 817.091997 317.382812 826.04382 316.894531 833.368039 C 316.975911 836.704628 316.894531 840.122596 318.766276 842.808143 C 319.091797 846.958534 322.835286 849.644081 322.102865 853.794471 C 321.614583 856.642779 324.05599 862.502154 319.498698 861.281451 C 318.033854 858.921424 318.277995 854.933794 316.975911 852.248247 C 313.151042 840.448117 307.291667 827.590044 295.735677 821.730669 C 287.516276 815.708534 281.656901 807.000852 278.238932 797.560747 C 275.065104 792.759315 269.124349 789.748247 266.601562 784.539914 C 263.264974 783.156451 259.277344 783.644732 255.940755 781.772987 C 251.871745 779.982622 248.128255 776.646034 243.164062 777.215695 C 239.908854 777.459836 236.979167 776.320513 233.886719 776.076372 Z M 239.908854 908.400591 C 242.757161 909.377154 241.861979 913.853065 242.838542 916.131711 C 244.222005 919.386919 243.082682 925.083534 246.826172 926.711138 C 248.942057 930.210487 247.639974 935.011919 249.755859 938.267128 C 249.267578 940.545773 248.535156 944.858924 252.115885 944.940305 C 255.371094 944.614784 256.266276 948.195513 258.463542 949.823117 C 260.579427 952.752805 262.939453 956.903195 259.684245 959.995643 C 256.510417 963.820513 254.394531 969.761268 248.616536 969.924029 C 246.25651 970.168169 242.919922 973.911659 241.861979 970.086789 C 237.792969 963.169471 234.29362 955.763872 235.026042 947.463091 C 235.107422 934.523638 238.037109 921.746945 239.583333 908.888872 C 239.501953 908.563352 239.583333 908.400591 239.908854 908.400591 Z M 239.908854 908.400591 " transform="matrix(0.048,0,0,0.048,0,-26.513385)"/>
<path style="fill:none;stroke-width:9;stroke-linecap:butt;stroke-linejoin:miter;stroke:rgb(100%,100%,100%);stroke-opacity:1;stroke-miterlimit:4;" d="M 192.220052 633.742388 L 192.545573 688.185747 L 224.283854 688.511268 " transform="matrix(0.048,0,0,0.048,0,-26.513385)"/>
</g>
</svg>
