<?xml version="1.0" encoding="UTF-8"?>
<svg xmlns="http://www.w3.org/2000/svg" xmlns:xlink="http://www.w3.org/1999/xlink" width="24" height="24" viewBox="0 0 24 24" version="1.1">
<g id="surface1">
<path style=" stroke:none;fill-rule:evenodd;fill:rgb(81.960784%,16.470588%,4.313725%);fill-opacity:1;" d="M 3.027344 7.386719 L 5.582031 9.886719 L 5.5 6.378906 L 3.023438 6.367188 Z M 3.027344 7.386719 "/>
<path style="fill-rule:evenodd;fill:rgb(94.901961%,94.901961%,94.901961%);fill-opacity:1;stroke-width:5.03546;stroke-linecap:butt;stroke-linejoin:miter;stroke:rgb(68.627451%,68.627451%,68.627451%);stroke-opacity:1;stroke-miterlimit:4;" d="M 97.005208 1029.819862 L 433.919271 1028.680539 L 435.139974 664.748247 L 347.086589 575.555539 L 97.005208 575.555539 Z M 97.005208 1029.819862 " transform="matrix(0.048,0,0,0.048,0,-26.513385)"/>
<path style="fill-rule:evenodd;fill:rgb(68.627451%,68.627451%,68.627451%);fill-opacity:1;stroke-width:5.03546;stroke-linecap:butt;stroke-linejoin:miter;stroke:rgb(68.627451%,68.627451%,68.627451%);stroke-opacity:1;stroke-miterlimit:4;" d="M 431.559245 662.957883 L 349.365234 662.306841 L 350.097656 578.566607 Z M 431.559245 662.957883 " transform="matrix(0.048,0,0,0.048,0,-26.513385)"/>
<path style=" stroke:none;fill-rule:nonzero;fill:rgb(94.117647%,22.352941%,8.627451%);fill-opacity:1;" d="M 3.03125 3.351562 L 13.828125 3.351562 L 13.828125 7.398438 L 3.03125 7.398438 Z M 3.03125 3.351562 "/>
<path style="fill:none;stroke-width:9;stroke-linecap:butt;stroke-linejoin:miter;stroke:rgb(100%,100%,100%);stroke-opacity:1;stroke-miterlimit:4;" d="M 380.210939 670.697533 L 346.194012 670.290632 L 346.600913 618.614199 L 381.106121 618.77696 " transform="matrix(0.048,0,0,0.048,-8.121219,-25.615357)"/>
<path style="fill:none;stroke-width:9;stroke-linecap:butt;stroke-linejoin:miter;stroke:rgb(100%,100%,100%);stroke-opacity:1;stroke-miterlimit:4;" d="M 348.960939 642.37722 L 378.095053 642.53998 " transform="matrix(0.048,0,0,0.048,-8.121219,-25.615357)"/>
<path style=" stroke:none;fill-rule:nonzero;fill:rgb(94.117647%,22.352941%,8.627451%);fill-opacity:1;" d="M 13.171875 22.660156 C 12.527344 22.554688 11.605469 22.191406 11.03125 21.816406 C 9.777344 20.996094 8.957031 20.089844 8.449219 18.953125 C 8.28125 18.574219 8.1875 18.28125 7.925781 17.285156 C 7.859375 17.039062 7.777344 16.765625 7.742188 16.679688 C 7.6875 16.535156 7.683594 16.488281 7.710938 16.003906 C 7.734375 15.546875 7.8125 14.925781 7.851562 14.863281 C 7.859375 14.847656 7.878906 14.847656 7.894531 14.855469 C 7.945312 14.886719 7.992188 14.746094 8.039062 14.421875 C 8.066406 14.246094 8.105469 14.0625 8.128906 14.011719 C 8.152344 13.964844 8.191406 13.855469 8.21875 13.769531 C 8.273438 13.578125 8.355469 13.429688 8.597656 13.054688 C 8.707031 12.886719 8.816406 12.707031 8.84375 12.652344 C 8.878906 12.589844 8.917969 12.558594 8.953125 12.5625 C 8.984375 12.570312 9.039062 12.527344 9.097656 12.453125 C 9.34375 12.125 10.511719 11.160156 10.621094 11.191406 C 10.648438 11.203125 10.773438 11.160156 10.894531 11.101562 C 11.113281 10.996094 11.210938 10.972656 11.210938 11.023438 C 11.210938 11.035156 11.179688 11.070312 11.140625 11.097656 C 11.070312 11.140625 11.074219 11.140625 11.179688 11.117188 C 11.238281 11.101562 11.339844 11.082031 11.40625 11.074219 C 11.484375 11.058594 11.515625 11.042969 11.503906 11.015625 C 11.496094 10.992188 11.515625 10.964844 11.5625 10.957031 C 11.667969 10.929688 11.835938 10.933594 11.835938 10.960938 C 11.835938 11 11.738281 11.035156 11.664062 11.03125 C 11.613281 11.023438 11.609375 11.027344 11.648438 11.054688 C 11.6875 11.078125 11.6875 11.085938 11.652344 11.085938 C 11.625 11.085938 11.613281 11.09375 11.625 11.101562 C 11.632812 11.113281 11.699219 11.09375 11.769531 11.058594 C 11.839844 11.023438 11.96875 10.980469 12.054688 10.964844 C 12.160156 10.941406 12.210938 10.914062 12.210938 10.882812 C 12.210938 10.84375 12.261719 10.839844 12.59375 10.859375 C 12.804688 10.867188 13.125 10.902344 13.300781 10.929688 C 13.625 10.980469 13.625 10.980469 13.746094 10.914062 C 13.890625 10.832031 14.125 10.820312 14.183594 10.894531 C 14.207031 10.917969 14.269531 10.960938 14.320312 10.988281 C 14.40625 11.03125 14.414062 11.03125 14.375 10.988281 C 14.308594 10.90625 14.375 10.910156 14.644531 10.996094 C 15.503906 11.273438 16.207031 11.765625 16.730469 12.460938 C 16.855469 12.625 16.859375 12.699219 16.742188 12.601562 L 16.675781 12.542969 L 16.726562 12.640625 C 16.757812 12.691406 16.777344 12.75 16.777344 12.769531 C 16.777344 12.789062 16.863281 12.9375 16.964844 13.09375 C 17.191406 13.453125 17.257812 13.574219 17.242188 13.617188 C 17.234375 13.636719 17.132812 13.507812 17.015625 13.335938 C 16.898438 13.164062 16.726562 12.929688 16.628906 12.820312 C 16.488281 12.652344 16.453125 12.625 16.421875 12.660156 C 16.402344 12.683594 16.355469 12.707031 16.320312 12.710938 L 16.25 12.722656 L 16.316406 12.851562 C 16.355469 12.921875 16.390625 12.96875 16.398438 12.949219 C 16.429688 12.855469 16.585938 12.980469 16.652344 13.15625 C 16.675781 13.214844 16.738281 13.335938 16.789062 13.421875 C 16.839844 13.511719 16.875 13.585938 16.867188 13.59375 C 16.859375 13.601562 16.8125 13.578125 16.761719 13.542969 L 16.671875 13.476562 L 16.734375 13.574219 C 16.769531 13.628906 16.824219 13.695312 16.859375 13.722656 C 16.902344 13.757812 16.921875 13.8125 16.925781 13.894531 C 16.929688 14.046875 17.019531 14.230469 17.070312 14.183594 C 17.148438 14.109375 17.164062 14.152344 17.144531 14.398438 C 17.128906 14.578125 17.136719 14.699219 17.171875 14.824219 C 17.222656 15.015625 17.210938 15.0625 17.136719 14.972656 C 17.089844 14.914062 17.085938 14.914062 17.109375 14.972656 C 17.15625 15.101562 17.191406 15.289062 17.179688 15.363281 C 17.164062 15.503906 17.109375 15.445312 17.089844 15.269531 L 17.070312 15.09375 L 17.066406 15.277344 C 17.0625 15.378906 17.039062 15.578125 17.011719 15.714844 C 16.984375 15.855469 16.96875 16.023438 16.980469 16.09375 C 17 16.230469 16.984375 16.234375 16.867188 16.136719 C 16.820312 16.097656 16.8125 16.105469 16.777344 16.222656 C 16.75 16.320312 16.75 16.378906 16.777344 16.460938 C 16.800781 16.519531 16.8125 16.601562 16.804688 16.640625 C 16.792969 16.730469 16.71875 16.757812 16.71875 16.671875 C 16.71875 16.566406 16.675781 16.605469 16.542969 16.828125 C 16.195312 17.429688 15.640625 17.898438 15.015625 18.117188 C 14.644531 18.25 14.394531 18.296875 13.980469 18.320312 L 13.605469 18.339844 L 13.789062 18.394531 C 13.9375 18.4375 14.027344 18.445312 14.242188 18.429688 C 14.527344 18.40625 14.859375 18.347656 15.007812 18.292969 C 15.070312 18.269531 15.109375 18.269531 15.132812 18.289062 C 15.179688 18.335938 14.746094 18.523438 14.484375 18.5625 C 14.046875 18.636719 13.457031 18.558594 12.9375 18.359375 C 12.582031 18.226562 12.058594 17.878906 12.140625 17.832031 C 12.15625 17.824219 12.253906 17.867188 12.363281 17.933594 C 12.5 18.015625 12.554688 18.039062 12.554688 18.007812 C 12.554688 17.945312 12.574219 17.949219 12.683594 18.023438 C 12.78125 18.089844 13.082031 18.214844 13.296875 18.277344 C 13.535156 18.347656 13.441406 18.265625 13.125 18.121094 C 12.125 17.675781 11.710938 17.226562 11.503906 16.371094 C 11.425781 16.058594 11.507812 15.371094 11.648438 15.15625 C 11.683594 15.101562 11.710938 15.035156 11.710938 15.007812 C 11.710938 14.890625 11.917969 14.574219 12.128906 14.371094 C 12.503906 14.011719 12.890625 13.863281 13.398438 13.886719 C 13.640625 13.894531 13.746094 13.917969 13.949219 13.996094 C 14.179688 14.082031 14.46875 14.265625 14.378906 14.269531 C 14.359375 14.269531 14.265625 14.238281 14.175781 14.203125 C 14.039062 14.148438 13.949219 14.136719 13.632812 14.136719 C 13.195312 14.132812 12.976562 14.195312 12.664062 14.40625 C 12.21875 14.707031 11.972656 15.050781 11.886719 15.496094 C 11.828125 15.792969 11.824219 15.875 11.871094 16.171875 C 11.898438 16.34375 11.914062 16.390625 11.949219 16.378906 C 11.976562 16.371094 11.992188 16.386719 11.992188 16.421875 C 11.992188 16.527344 12.230469 16.957031 12.398438 17.148438 C 12.796875 17.609375 13.445312 17.902344 14.058594 17.902344 C 14.375 17.902344 14.632812 17.84375 14.871094 17.71875 C 14.964844 17.664062 15.085938 17.605469 15.136719 17.578125 C 15.320312 17.492188 15.433594 17.390625 15.5625 17.195312 C 15.636719 17.089844 15.71875 17 15.742188 17 C 15.777344 17 15.777344 17.015625 15.734375 17.082031 C 15.59375 17.304688 15.921875 16.902344 16.089844 16.644531 L 16.28125 16.355469 L 16.261719 16.164062 C 16.242188 15.984375 16.242188 15.972656 16.335938 15.878906 C 16.421875 15.792969 16.429688 15.765625 16.441406 15.53125 C 16.449219 15.320312 16.441406 15.273438 16.402344 15.273438 C 16.367188 15.273438 16.351562 15.21875 16.335938 15.035156 C 16.316406 14.789062 16.109375 13.96875 16.0625 13.9375 C 16.046875 13.929688 16.003906 13.851562 15.96875 13.765625 C 15.851562 13.464844 15.648438 13.179688 15.324219 12.871094 C 14.863281 12.421875 14.28125 12.078125 13.726562 11.921875 C 13.261719 11.792969 12.464844 11.839844 11.898438 12.03125 C 11.621094 12.125 11.351562 12.25 11.304688 12.304688 C 11.28125 12.328125 11.253906 12.339844 11.238281 12.328125 C 11.21875 12.320312 11.222656 12.292969 11.246094 12.265625 C 11.351562 12.144531 11.003906 12.367188 10.78125 12.5625 C 10.648438 12.679688 10.53125 12.78125 10.527344 12.785156 C 10.519531 12.789062 10.546875 12.785156 10.585938 12.777344 C 10.648438 12.761719 10.652344 12.765625 10.617188 12.828125 C 10.59375 12.867188 10.480469 12.9375 10.339844 13 C 10.101562 13.101562 9.949219 13.214844 9.828125 13.375 C 9.78125 13.441406 9.777344 13.453125 9.816406 13.441406 C 9.84375 13.429688 9.863281 13.4375 9.863281 13.453125 C 9.863281 13.539062 9.785156 13.636719 9.664062 13.691406 C 9.398438 13.816406 8.929688 14.480469 8.679688 15.085938 C 8.566406 15.359375 8.570312 15.351562 8.628906 15.351562 C 8.691406 15.351562 8.6875 15.417969 8.601562 15.792969 C 8.472656 16.339844 8.472656 16.324219 8.613281 17.089844 C 8.78125 18.027344 8.882812 18.339844 9.070312 18.535156 C 9.113281 18.578125 9.15625 18.675781 9.175781 18.773438 C 9.199219 18.890625 9.238281 18.964844 9.308594 19.039062 C 9.375 19.105469 9.398438 19.144531 9.371094 19.15625 C 9.324219 19.171875 9.476562 19.394531 9.617188 19.507812 C 9.691406 19.566406 9.742188 19.585938 9.800781 19.574219 C 9.925781 19.550781 10.050781 19.621094 10.25 19.816406 C 10.453125 20.023438 10.472656 20.078125 10.335938 20.058594 C 10.25 20.046875 10.25 20.046875 10.292969 20.109375 C 10.316406 20.148438 10.40625 20.234375 10.492188 20.304688 C 10.613281 20.402344 10.644531 20.445312 10.628906 20.488281 C 10.609375 20.554688 10.671875 20.617188 10.8125 20.667969 C 10.898438 20.699219 10.925781 20.769531 10.859375 20.792969 C 10.839844 20.796875 10.964844 20.917969 11.136719 21.0625 C 11.328125 21.222656 11.457031 21.308594 11.476562 21.292969 C 11.523438 21.246094 11.585938 21.261719 11.585938 21.316406 C 11.585938 21.378906 11.644531 21.441406 11.84375 21.617188 C 11.96875 21.722656 12 21.738281 12.074219 21.71875 C 12.144531 21.699219 12.191406 21.710938 12.289062 21.777344 C 12.488281 21.902344 12.609375 21.953125 12.710938 21.953125 C 12.8125 21.953125 12.828125 21.984375 12.773438 22.078125 C 12.746094 22.128906 12.75 22.136719 12.816406 22.136719 C 12.855469 22.136719 12.972656 22.164062 13.070312 22.195312 C 13.300781 22.269531 13.394531 22.277344 13.335938 22.210938 C 13.253906 22.113281 13.34375 22.140625 13.644531 22.300781 C 14.0625 22.527344 14.277344 22.554688 15.113281 22.480469 C 15.238281 22.46875 15.277344 22.476562 15.277344 22.507812 C 15.277344 22.53125 15.171875 22.570312 14.972656 22.617188 C 14.710938 22.675781 14.574219 22.6875 14.042969 22.695312 C 13.621094 22.699219 13.335938 22.6875 13.171875 22.660156 Z M 12.742188 18.160156 C 12.742188 18.15625 12.703125 18.125 12.65625 18.097656 L 12.570312 18.046875 L 12.644531 18.109375 C 12.71875 18.171875 12.742188 18.183594 12.742188 18.160156 Z M 17.050781 15.015625 C 17.042969 14.988281 17.03125 14.996094 17.03125 15.03125 C 17.03125 15.0625 17.039062 15.082031 17.046875 15.070312 C 17.058594 15.0625 17.058594 15.035156 17.050781 15.015625 Z M 9.929688 11.84375 C 9.96875 11.796875 9.96875 11.796875 9.917969 11.832031 C 9.890625 11.855469 9.863281 11.878906 9.863281 11.886719 C 9.863281 11.910156 9.890625 11.894531 9.929688 11.84375 Z M 10.285156 11.566406 C 10.320312 11.535156 10.335938 11.507812 10.328125 11.507812 C 10.320312 11.507812 10.285156 11.535156 10.257812 11.566406 C 10.226562 11.601562 10.207031 11.625 10.214844 11.625 C 10.222656 11.625 10.257812 11.601562 10.285156 11.566406 Z M 10.679688 11.355469 C 10.785156 11.324219 10.84375 11.316406 10.863281 11.335938 C 10.886719 11.359375 10.96875 11.347656 11.117188 11.296875 C 11.238281 11.261719 11.332031 11.222656 11.324219 11.21875 C 11.320312 11.210938 11.21875 11.234375 11.101562 11.273438 C 10.945312 11.324219 10.886719 11.332031 10.871094 11.304688 C 10.839844 11.257812 10.554688 11.347656 10.433594 11.445312 L 10.351562 11.507812 L 10.441406 11.457031 C 10.488281 11.429688 10.597656 11.382812 10.679688 11.355469 Z M 11.582031 11.28125 C 11.675781 11.253906 11.742188 11.226562 11.734375 11.21875 C 11.722656 11.207031 11.398438 11.296875 11.398438 11.3125 C 11.398438 11.332031 11.402344 11.332031 11.582031 11.28125 Z M 12.101562 11.117188 L 12.226562 11.09375 L 12.117188 11.089844 C 12.058594 11.089844 11.972656 11.109375 11.929688 11.132812 C 11.878906 11.164062 11.875 11.171875 11.914062 11.160156 C 11.949219 11.148438 12.03125 11.128906 12.101562 11.117188 Z M 12.351562 11.058594 C 12.359375 11.042969 12.339844 11.039062 12.304688 11.046875 C 12.230469 11.066406 12.222656 11.085938 12.289062 11.085938 C 12.3125 11.085938 12.339844 11.074219 12.351562 11.058594 Z M 13.359375 11.070312 C 13.351562 11.058594 13.324219 11.058594 13.300781 11.066406 C 13.277344 11.074219 13.28125 11.082031 13.320312 11.085938 C 13.351562 11.085938 13.371094 11.078125 13.359375 11.070312 Z M 13.171875 11.035156 C 13.144531 11.027344 13.09375 11.027344 13.0625 11.035156 C 13.035156 11.042969 13.058594 11.050781 13.117188 11.050781 C 13.179688 11.050781 13.203125 11.042969 13.171875 11.035156 Z M 12.859375 11.003906 C 12.796875 11 12.683594 11 12.609375 11.003906 C 12.539062 11.011719 12.589844 11.015625 12.726562 11.015625 C 12.863281 11.015625 12.925781 11.011719 12.859375 11.003906 Z M 12.453125 10.976562 C 12.441406 10.96875 12.414062 10.96875 12.394531 10.976562 C 12.367188 10.984375 12.375 10.992188 12.414062 10.996094 C 12.445312 10.996094 12.464844 10.988281 12.453125 10.976562 Z M 12.242188 18.195312 C 11.921875 17.976562 11.804688 17.863281 11.804688 17.773438 C 11.804688 17.730469 11.816406 17.691406 11.828125 17.691406 C 11.875 17.691406 12.40625 18.226562 12.394531 18.257812 C 12.386719 18.277344 12.324219 18.25 12.242188 18.195312 Z M 12.078125 17.636719 C 11.914062 17.476562 11.859375 17.390625 11.925781 17.390625 C 11.964844 17.390625 12.273438 17.730469 12.273438 17.773438 C 12.273438 17.796875 12.269531 17.8125 12.265625 17.8125 C 12.261719 17.8125 12.175781 17.734375 12.078125 17.636719 Z M 13.910156 16.980469 C 13.820312 16.949219 13.875 16.882812 14.019531 16.855469 C 14.101562 16.839844 14.230469 16.796875 14.308594 16.765625 C 14.382812 16.730469 14.453125 16.710938 14.460938 16.714844 C 14.464844 16.722656 14.429688 16.789062 14.382812 16.863281 C 14.292969 17 14.289062 17 14.121094 17 C 14.023438 17 13.929688 16.988281 13.910156 16.980469 Z M 14.847656 16.308594 C 14.761719 16.277344 14.757812 16.222656 14.828125 16.03125 C 14.890625 15.871094 14.953125 15.839844 14.917969 15.988281 C 14.90625 16.042969 14.890625 16.117188 14.878906 16.160156 L 14.867188 16.234375 L 14.929688 16.167969 C 14.964844 16.125 15 16.03125 15.011719 15.933594 C 15.023438 15.84375 15.046875 15.777344 15.0625 15.789062 C 15.101562 15.808594 15.097656 16.046875 15.054688 16.207031 C 15.019531 16.347656 14.984375 16.363281 14.847656 16.308594 Z M 7.445312 15.933594 C 7.433594 15.90625 7.425781 15.804688 7.425781 15.707031 C 7.425781 15.574219 7.433594 15.527344 7.464844 15.539062 C 7.511719 15.550781 7.539062 15.980469 7.492188 15.980469 C 7.476562 15.980469 7.453125 15.957031 7.445312 15.933594 Z M 14.96875 15.230469 C 14.921875 15.167969 14.90625 15.117188 14.921875 15.066406 C 14.949219 14.957031 15.023438 14.972656 15.078125 15.097656 C 15.164062 15.292969 15.089844 15.382812 14.96875 15.230469 Z M 7.4375 14.753906 C 7.433594 14.585938 7.4375 14.578125 7.515625 14.582031 C 7.582031 14.582031 7.597656 14.601562 7.605469 14.675781 C 7.613281 14.761719 7.519531 14.929688 7.460938 14.929688 C 7.449219 14.929688 7.4375 14.851562 7.4375 14.753906 Z M 15.546875 11.0625 C 15.550781 10.792969 15.597656 10.703125 15.636719 10.890625 C 15.660156 11.023438 15.628906 11.253906 15.578125 11.292969 C 15.550781 11.316406 15.542969 11.257812 15.546875 11.0625 Z M 11.4375 10.902344 C 11.449219 10.867188 11.878906 10.695312 11.960938 10.695312 C 12.054688 10.695312 11.886719 10.804688 11.691406 10.871094 C 11.476562 10.945312 11.417969 10.953125 11.4375 10.902344 Z M 11.4375 10.902344 "/>
<path style="fill:none;stroke-width:9;stroke-linecap:butt;stroke-linejoin:miter;stroke:rgb(100%,100%,100%);stroke-opacity:1;stroke-miterlimit:4;" d="M 119.466146 688.999549 L 119.954427 636.916216 C 119.954427 636.916216 159.830729 631.138221 160.31901 663.446164 C 160.807292 695.835487 119.466146 688.999549 119.466146 688.999549 Z M 119.466146 688.999549 " transform="matrix(0.048,0,0,0.048,0,-26.513385)"/>
<path style="fill:none;stroke-width:9;stroke-linecap:butt;stroke-linejoin:miter;stroke:rgb(100%,100%,100%);stroke-opacity:1;stroke-miterlimit:4;" d="M 228.190104 635.451372 L 228.190104 688.348508 L 248.372396 688.348508 C 248.372396 688.348508 264.160156 689.24369 263.671875 674.432492 C 263.102214 659.621294 249.593099 659.946815 249.593099 659.946815 L 231.526693 659.946815 L 249.430339 659.702674 C 249.430339 659.702674 260.579427 659.458534 260.416667 647.088742 C 260.335286 634.718951 244.954427 635.451372 244.954427 635.451372 Z M 228.190104 635.451372 " transform="matrix(0.048,0,0,0.048,0,-26.513385)"/>
</g>
</svg>
