<?xml version="1.0" encoding="UTF-8"?>
<svg xmlns="http://www.w3.org/2000/svg" xmlns:xlink="http://www.w3.org/1999/xlink" width="24" height="24" viewBox="0 0 24 24" version="1.1">
<g id="surface1">
<path style=" stroke:none;fill-rule:evenodd;fill:rgb(15.686275%,9.019608%,4.313725%);fill-opacity:1;" d="M 3.027344 7.386719 L 5.582031 9.886719 L 5.5 6.378906 L 3.023438 6.367188 Z M 3.027344 7.386719 "/>
<path style="fill-rule:evenodd;fill:rgb(94.901961%,94.901961%,94.901961%);fill-opacity:1;stroke-width:5.03546;stroke-linecap:butt;stroke-linejoin:miter;stroke:rgb(68.627451%,68.627451%,68.627451%);stroke-opacity:1;stroke-miterlimit:4;" d="M 97.005208 1029.819862 L 433.919271 1028.680539 L 435.139974 664.748247 L 347.086589 575.555539 L 97.005208 575.555539 Z M 97.005208 1029.819862 " transform="matrix(0.048,0,0,0.048,0,-26.513385)"/>
<path style="fill-rule:evenodd;fill:rgb(68.627451%,68.627451%,68.627451%);fill-opacity:1;stroke-width:5.03546;stroke-linecap:butt;stroke-linejoin:miter;stroke:rgb(68.627451%,68.627451%,68.627451%);stroke-opacity:1;stroke-miterlimit:4;" d="M 431.559245 662.957883 L 349.365234 662.306841 L 350.097656 578.566607 Z M 431.559245 662.957883 " transform="matrix(0.048,0,0,0.048,0,-26.513385)"/>
<path style=" stroke:none;fill-rule:nonzero;fill:rgb(31.372549%,17.647059%,8.627451%);fill-opacity:1;" d="M 3.03125 3.351562 L 13.828125 3.351562 L 13.828125 7.398438 L 3.03125 7.398438 Z M 3.03125 3.351562 "/>
<path style=" stroke:none;fill-rule:nonzero;fill:rgb(80%,80%,80%);fill-opacity:1;" d="M 8.472656 14.300781 C 8.472656 14.300781 8.632812 13.511719 13.066406 13.507812 C 17.496094 13.5 17.675781 14.371094 17.675781 14.371094 L 17.28125 15.695312 L 8.976562 15.726562 Z M 8.472656 14.300781 "/>
<path style=" stroke:none;fill-rule:nonzero;fill:rgb(80%,80%,80%);fill-opacity:1;" d="M 19.101562 20.308594 C 19.269531 21.503906 16.726562 22.523438 13.417969 22.585938 C 10.109375 22.648438 7.289062 21.726562 7.117188 20.53125 C 6.945312 19.335938 9.484375 18.316406 12.792969 18.253906 C 16.101562 18.191406 18.925781 19.109375 19.101562 20.304688 "/>
<path style=" stroke:none;fill-rule:nonzero;fill:rgb(50.196078%,50.196078%,50.196078%);fill-opacity:1;" d="M 16.511719 20.277344 C 16.609375 20.953125 15.171875 21.527344 13.304688 21.5625 C 11.4375 21.597656 9.84375 21.078125 9.746094 20.402344 C 9.648438 19.726562 11.082031 19.152344 12.953125 19.117188 C 14.820312 19.078125 16.414062 19.597656 16.511719 20.273438 "/>
<path style=" stroke:none;fill-rule:nonzero;fill:rgb(31.372549%,17.647059%,8.627451%);fill-opacity:1;" d="M 17.359375 14.972656 C 17.476562 15.496094 15.699219 15.941406 13.390625 15.96875 C 11.078125 15.996094 9.109375 15.59375 8.988281 15.070312 C 8.867188 14.546875 10.640625 14.101562 12.953125 14.074219 C 15.261719 14.046875 17.234375 14.449219 17.355469 14.972656 "/>
<path style="fill:none;stroke-width:12.0954;stroke-linecap:butt;stroke-linejoin:miter;stroke:rgb(50.196078%,50.196078%,50.196078%);stroke-opacity:1;stroke-miterlimit:4;" d="M 349.202474 925.002154 C 349.202474 925.002154 367.26888 927.687701 374.674479 923.130409 C 382.080078 918.654497 387.125651 908.481971 386.962891 900.588091 C 386.80013 892.694211 382.8125 886.427935 377.034505 883.254107 C 371.17513 880.080279 357.991536 882.847206 357.991536 882.847206 " transform="matrix(0.048,0,0,0.048,0,-26.513385)"/>
<path style=" stroke:none;fill-rule:nonzero;fill:rgb(70.196078%,70.196078%,70.196078%);fill-opacity:1;" d="M 8.46875 14.285156 C 8.789062 17.96875 9.644531 20.769531 12.988281 20.917969 C 16.328125 21.070312 17.382812 17.480469 17.683594 14.375 C 17.683594 14.375 16.929688 15.160156 12.808594 15.109375 C 8.691406 15.054688 8.46875 14.285156 8.46875 14.285156 Z M 8.46875 14.285156 "/>
<path style="fill:none;stroke-width:9;stroke-linecap:butt;stroke-linejoin:miter;stroke:rgb(100%,100%,100%);stroke-opacity:1;stroke-miterlimit:4;" d="M 121.478142 354.82924 C 121.478142 354.82924 126.605095 354.340958 130.104444 350.434708 C 133.522413 346.528458 133.278272 343.27325 133.278272 343.27325 L 133.278272 304.699031 " transform="matrix(0.048,0,0,0.048,0.747174,-10.301335)"/>
<path style=" stroke:none;fill-rule:nonzero;fill:rgb(100%,100%,100%);fill-opacity:1;" d="M 6.941406 3.710938 L 7.367188 3.710938 L 7.367188 4.125 L 6.941406 4.125 Z M 6.941406 3.710938 "/>
<path style="fill:none;stroke-width:9;stroke-linecap:butt;stroke-linejoin:bevel;stroke:rgb(100%,100%,100%);stroke-opacity:1;stroke-miterlimit:4;" d="M 915.7334 696.267943 L 937.793707 638.006108 L 960.581276 696.267943 " transform="matrix(0.0483405,0,0,0.0483405,-36.32951,-27.001691)"/>
<path style="fill:none;stroke-width:9;stroke-linecap:butt;stroke-linejoin:miter;stroke:rgb(100%,100%,100%);stroke-opacity:1;stroke-miterlimit:4;" d="M 924.541362 676.712653 L 950.399596 676.712653 " transform="matrix(0.0483405,0,0,0.0483405,-36.32951,-27.001691)"/>
<path style="fill:none;stroke-width:9.063828;stroke-linecap:butt;stroke-linejoin:miter;stroke:rgb(100%,100%,100%);stroke-opacity:1;stroke-miterlimit:4;" d="M 384.47007 735.954069 L 384.47007 679.476204 C 384.47007 679.476204 415.313169 673.535449 415.150409 693.799121 C 415.069029 714.062793 385.121112 708.528939 385.121112 708.528939 " transform="matrix(0.048,0,0,0.048,-7.603001,-28.567983)"/>
<path style="fill:none;stroke-width:9;stroke-linecap:butt;stroke-linejoin:miter;stroke:rgb(100%,100%,100%);stroke-opacity:1;stroke-miterlimit:4;" d="M 392.445331 710.482064 L 418.405617 734.896126 " transform="matrix(0.048,0,0,0.048,-7.603001,-28.567983)"/>
</g>
</svg>
