<?xml version="1.0" encoding="UTF-8"?>
<svg xmlns="http://www.w3.org/2000/svg" xmlns:xlink="http://www.w3.org/1999/xlink" width="24" height="24" viewBox="0 0 24 24" version="1.1">
<g id="surface1">
<path style=" stroke:none;fill-rule:evenodd;fill:rgb(50.196078%,50.196078%,50.196078%);fill-opacity:1;" d="M 3.027344 7.386719 L 5.582031 9.886719 L 5.5 6.378906 L 3.023438 6.367188 Z M 3.027344 7.386719 "/>
<path style="fill-rule:evenodd;fill:rgb(94.901961%,94.901961%,94.901961%);fill-opacity:1;stroke-width:5.03546;stroke-linecap:butt;stroke-linejoin:miter;stroke:rgb(68.627451%,68.627451%,68.627451%);stroke-opacity:1;stroke-miterlimit:4;" d="M 97.005208 1029.819862 L 433.919271 1028.680539 L 435.139974 664.748247 L 347.086589 575.555539 L 97.005208 575.555539 Z M 97.005208 1029.819862 " transform="matrix(0.048,0,0,0.048,0,-26.513385)"/>
<path style="fill-rule:evenodd;fill:rgb(68.627451%,68.627451%,68.627451%);fill-opacity:1;stroke-width:5.03546;stroke-linecap:butt;stroke-linejoin:miter;stroke:rgb(68.627451%,68.627451%,68.627451%);stroke-opacity:1;stroke-miterlimit:4;" d="M 431.559245 662.957883 L 349.365234 662.306841 L 350.097656 578.566607 Z M 431.559245 662.957883 " transform="matrix(0.048,0,0,0.048,0,-26.513385)"/>
<path style=" stroke:none;fill-rule:nonzero;fill:rgb(60%,60%,60%);fill-opacity:1;" d="M 3.03125 3.351562 L 13.828125 3.351562 L 13.828125 7.398438 L 3.03125 7.398438 Z M 3.03125 3.351562 "/>
<path style=" stroke:none;fill-rule:nonzero;fill:rgb(80%,80%,80%);fill-opacity:1;" d="M 7.9375 10.65625 L 17.039062 10.65625 C 17.839844 10.65625 18.488281 11.449219 18.488281 12.429688 L 18.488281 20.882812 C 18.488281 21.859375 17.839844 22.65625 17.039062 22.65625 L 7.9375 22.65625 C 7.136719 22.65625 6.488281 21.859375 6.488281 20.882812 L 6.488281 12.429688 C 6.488281 11.449219 7.136719 10.65625 7.9375 10.65625 Z M 7.9375 10.65625 "/>
<path style=" stroke:none;fill-rule:nonzero;fill:rgb(70.196078%,70.196078%,70.196078%);fill-opacity:1;" d="M 8.914062 12.023438 L 15.992188 12.023438 C 16.613281 12.023438 17.121094 12.640625 17.121094 13.402344 L 17.121094 19.976562 C 17.121094 20.738281 16.613281 21.355469 15.992188 21.355469 L 8.914062 21.355469 C 8.289062 21.355469 7.785156 20.738281 7.785156 19.976562 L 7.785156 13.402344 C 7.785156 12.640625 8.289062 12.023438 8.914062 12.023438 Z M 8.914062 12.023438 "/>
<path style=" stroke:none;fill-rule:nonzero;fill:rgb(22.352941%,25.098039%,31.372549%);fill-opacity:1;" d="M 13.066406 18.851562 L 11.226562 14.375 L 10.722656 14.375 L 8.867188 18.851562 L 9.503906 18.851562 L 10.074219 17.378906 L 11.84375 17.378906 L 12.425781 18.851562 Z M 11.621094 16.878906 L 10.289062 16.878906 L 10.972656 15.042969 Z M 11.621094 16.878906 "/>
<path style=" stroke:none;fill-rule:nonzero;fill:rgb(22.352941%,25.098039%,31.372549%);fill-opacity:1;" d="M 14.40625 18.9375 C 14.800781 18.9375 15.160156 18.792969 15.472656 18.523438 L 15.566406 18.9375 L 16.109375 18.820312 C 16.023438 18.511719 15.976562 18.242188 15.976562 18.007812 L 15.976562 16.960938 C 15.976562 16.0625 15.546875 15.613281 14.667969 15.613281 C 14.289062 15.613281 13.890625 15.671875 13.472656 15.796875 L 13.535156 16.320312 C 13.933594 16.164062 14.304688 16.089844 14.636719 16.089844 C 15.085938 16.089844 15.335938 16.324219 15.398438 16.789062 C 13.996094 16.804688 13.292969 17.207031 13.292969 17.988281 C 13.292969 18.578125 13.792969 18.9375 14.40625 18.9375 Z M 15.398438 17.851562 C 15.398438 18.191406 14.816406 18.425781 14.433594 18.425781 C 14.070312 18.425781 13.882812 18.257812 13.882812 17.933594 C 13.882812 17.527344 14.394531 17.3125 15.398438 17.292969 Z M 15.398438 17.851562 "/>
<path style="fill:none;stroke-width:9;stroke-linecap:butt;stroke-linejoin:miter;stroke:rgb(100%,100%,100%);stroke-opacity:1;stroke-miterlimit:4;" d="M 233.388755 692.509785 L 233.795656 640.833353 L 268.219484 640.914733 " transform="matrix(0.048,0,0,0.048,-0.0776603,-26.783438)"/>
<path style="fill:none;stroke-width:9;stroke-linecap:butt;stroke-linejoin:miter;stroke:rgb(100%,100%,100%);stroke-opacity:1;stroke-miterlimit:4;" d="M 236.155682 664.596374 L 265.289797 664.759134 " transform="matrix(0.048,0,0,0.048,-0.0776603,-26.783438)"/>
<path style="fill:none;stroke-width:9.063828;stroke-linecap:butt;stroke-linejoin:miter;stroke:rgb(100%,100%,100%);stroke-opacity:1;stroke-miterlimit:4;" d="M 114.013672 691.603716 L 114.013672 635.207232 C 114.013672 635.207232 144.856771 629.266477 144.69401 649.530148 C 144.61263 669.79382 114.664714 664.259966 114.664714 664.259966 " transform="matrix(0.048,0,0,0.048,0,-26.513385)"/>
<path style="fill:none;stroke-width:9;stroke-linecap:butt;stroke-linejoin:miter;stroke:rgb(100%,100%,100%);stroke-opacity:1;stroke-miterlimit:4;" d="M 205.973307 639.520383 C 205.973307 639.520383 198.404948 632.684445 184.488932 633.742388 C 170.572917 634.800331 162.679036 650.669471 163.411458 662.632362 C 164.22526 674.676633 174.723307 688.918169 188.313802 687.778846 C 201.904297 686.558143 205.973307 681.756711 205.973307 681.756711 " transform="matrix(0.048,0,0,0.048,0,-26.513385)"/>
</g>
</svg>
