<?xml version="1.0" encoding="UTF-8"?>
<svg xmlns="http://www.w3.org/2000/svg" xmlns:xlink="http://www.w3.org/1999/xlink" width="24" height="24" viewBox="0 0 24 24" version="1.1">
<g id="surface1">
<path style=" stroke:none;fill-rule:evenodd;fill:rgb(20%,20%,20%);fill-opacity:1;" d="M 3.027344 7.144531 L 5.582031 9.644531 L 5.5 6.140625 L 3.023438 6.128906 Z M 3.027344 7.144531 "/>
<path style="fill-rule:evenodd;fill:rgb(94.901961%,94.901961%,94.901961%);fill-opacity:1;stroke-width:5.03546;stroke-linecap:butt;stroke-linejoin:miter;stroke:rgb(68.627451%,68.627451%,68.627451%);stroke-opacity:1;stroke-miterlimit:4;" d="M 97.005208 1024.855669 L 433.919271 1023.634966 L 435.139974 659.784055 L 347.086589 570.591346 L 97.005208 570.591346 Z M 97.005208 1024.855669 " transform="matrix(0.048,0,0,0.048,0,-26.513385)"/>
<path style="fill-rule:evenodd;fill:rgb(68.627451%,68.627451%,68.627451%);fill-opacity:1;stroke-width:5.03546;stroke-linecap:butt;stroke-linejoin:miter;stroke:rgb(68.627451%,68.627451%,68.627451%);stroke-opacity:1;stroke-miterlimit:4;" d="M 431.559245 657.91231 L 349.365234 657.342648 L 350.097656 573.521034 Z M 431.559245 657.91231 " transform="matrix(0.048,0,0,0.048,0,-26.513385)"/>
<path style=" stroke:none;fill-rule:nonzero;fill:rgb(22.352941%,25.098039%,31.372549%);fill-opacity:1;" d="M 3.03125 3.109375 L 13.828125 3.109375 L 13.828125 7.160156 L 3.03125 7.160156 Z M 3.03125 3.109375 "/>
<path style="fill-rule:evenodd;fill:rgb(22.352941%,25.098039%,31.372549%);fill-opacity:1;stroke-width:11.346586;stroke-linecap:butt;stroke-linejoin:round;stroke:rgb(100%,100%,100%);stroke-opacity:1;stroke-miterlimit:4;" d="M 144.042969 810.33744 L 384.358724 810.33744 C 390.78776 810.33744 395.996094 815.545773 395.996094 821.97481 L 395.996094 1005.56856 C 395.996094 1011.997596 390.78776 1017.20593 384.358724 1017.20593 L 144.042969 1017.20593 C 137.613932 1017.20593 132.324219 1011.997596 132.324219 1005.56856 L 132.324219 821.97481 C 132.324219 815.545773 137.613932 810.33744 144.042969 810.33744 Z M 144.042969 810.33744 " transform="matrix(0.048,0,0,0.048,0,-26.513385)"/>
<path style=" stroke:none;fill-rule:nonzero;fill:rgb(100%,100%,100%);fill-opacity:1;" d="M 7.867188 15.441406 L 7.875 15.21875 L 8.027344 15.171875 C 8.113281 15.144531 8.210938 15.109375 8.25 15.09375 C 8.285156 15.078125 8.371094 15.046875 8.4375 15.023438 C 8.5 15 8.585938 14.96875 8.621094 14.953125 C 8.660156 14.9375 8.742188 14.910156 8.804688 14.894531 C 8.945312 14.863281 8.976562 14.800781 8.871094 14.769531 C 8.828125 14.757812 8.761719 14.734375 8.726562 14.71875 C 8.6875 14.703125 8.566406 14.664062 8.453125 14.628906 C 8.339844 14.597656 8.234375 14.5625 8.214844 14.546875 C 8.195312 14.535156 8.109375 14.503906 8.019531 14.476562 L 7.859375 14.429688 L 7.859375 13.972656 L 7.953125 14.011719 C 8.113281 14.074219 8.175781 14.097656 8.300781 14.140625 C 8.367188 14.164062 8.449219 14.195312 8.488281 14.210938 C 8.636719 14.273438 9.109375 14.433594 9.238281 14.472656 C 9.386719 14.519531 9.445312 14.546875 9.390625 14.53125 C 9.355469 14.523438 9.28125 14.484375 9.460938 14.546875 C 9.511719 14.566406 9.523438 14.582031 9.523438 14.8125 L 9.523438 15.078125 L 9.308594 15.148438 C 9.195312 15.191406 8.96875 15.269531 8.808594 15.328125 C 8.652344 15.386719 8.371094 15.484375 8.1875 15.546875 L 7.855469 15.664062 Z M 7.867188 15.441406 "/>
<path style=" stroke:none;fill-rule:nonzero;fill:rgb(100%,100%,100%);fill-opacity:1;" d="M 9.929688 15.820312 L 9.929688 15.601562 L 11.726562 15.601562 L 11.726562 16.042969 L 9.929688 16.042969 Z M 9.929688 15.820312 "/>
<path style="fill:none;stroke-width:10;stroke-linecap:butt;stroke-linejoin:miter;stroke:rgb(100%,100%,100%);stroke-opacity:1;stroke-miterlimit:4;" d="M 182.210286 636.427935 C 182.210286 636.427935 172.932943 632.114784 164.14388 632.033404 C 155.354818 631.952023 149.902344 637.241737 149.576823 644.891477 C 149.251302 652.459836 153.483073 658.563352 168.619792 660.353716 C 183.837891 662.144081 182.942708 675.327674 181.070964 679.966346 C 179.199219 684.686398 170.328776 689.08093 161.376953 687.860227 C 152.42513 686.639523 144.938151 682.570513 144.938151 682.570513 " transform="matrix(0.048,0,0,0.048,0,-26.513385)"/>
<path style="fill:none;stroke-width:9;stroke-linecap:butt;stroke-linejoin:miter;stroke:rgb(100%,100%,100%);stroke-opacity:1;stroke-miterlimit:4;" d="M 311.227033 528.445935 L 311.471173 582.970674 " transform="matrix(0.048,0,0,0.048,-5.313898,-21.494311)"/>
<path style="fill:none;stroke-width:9;stroke-linecap:butt;stroke-linejoin:miter;stroke:rgb(100%,100%,100%);stroke-opacity:1;stroke-miterlimit:4;" d="M 346.301902 527.957654 L 346.546043 582.482393 " transform="matrix(0.048,0,0,0.048,-5.313898,-21.494311)"/>
<path style="fill:none;stroke-width:9;stroke-linecap:butt;stroke-linejoin:miter;stroke:rgb(100%,100%,100%);stroke-opacity:1;stroke-miterlimit:4;" d="M 310.901512 555.057263 L 347.522605 555.057263 " transform="matrix(0.048,0,0,0.048,-5.313898,-21.494311)"/>
</g>
</svg>
