<?xml version="1.0" encoding="UTF-8"?>
<svg xmlns="http://www.w3.org/2000/svg" xmlns:xlink="http://www.w3.org/1999/xlink" width="24" height="24" viewBox="0 0 24 24" version="1.1">
<g id="surface1">
<path style=" stroke:none;fill-rule:evenodd;fill:rgb(66.666667%,26.666667%,0%);fill-opacity:1;" d="M 3.027344 7.386719 L 5.582031 9.886719 L 5.5 6.378906 L 3.023438 6.367188 Z M 3.027344 7.386719 "/>
<path style="fill-rule:evenodd;fill:rgb(94.901961%,94.901961%,94.901961%);fill-opacity:1;stroke-width:5.03546;stroke-linecap:butt;stroke-linejoin:miter;stroke:rgb(68.627451%,68.627451%,68.627451%);stroke-opacity:1;stroke-miterlimit:4;" d="M 97.005208 1029.819862 L 433.919271 1028.680539 L 435.139974 664.748247 L 347.086589 575.555539 L 97.005208 575.555539 Z M 97.005208 1029.819862 " transform="matrix(0.048,0,0,0.048,0,-26.513385)"/>
<path style="fill-rule:evenodd;fill:rgb(68.627451%,68.627451%,68.627451%);fill-opacity:1;stroke-width:5.03546;stroke-linecap:butt;stroke-linejoin:miter;stroke:rgb(68.627451%,68.627451%,68.627451%);stroke-opacity:1;stroke-miterlimit:4;" d="M 431.559245 662.957883 L 349.365234 662.306841 L 350.097656 578.566607 Z M 431.559245 662.957883 " transform="matrix(0.048,0,0,0.048,0,-26.513385)"/>
<path style=" stroke:none;fill-rule:nonzero;fill:rgb(100%,40%,0%);fill-opacity:1;" d="M 3.03125 3.351562 L 16.402344 3.351562 L 16.402344 7.398438 L 3.03125 7.398438 Z M 3.03125 3.351562 "/>
<path style="fill:none;stroke-width:22.55397;stroke-linecap:butt;stroke-linejoin:miter;stroke:rgb(100%,40%,0%);stroke-opacity:1;stroke-miterlimit:4;" d="M 225.748698 1023.390826 L 285.888672 799.676633 " transform="matrix(0.048,0,0,0.048,0,-26.513385)"/>
<path style="fill:none;stroke-width:22.55397;stroke-linecap:butt;stroke-linejoin:miter;stroke:rgb(100%,40%,0%);stroke-opacity:1;stroke-miterlimit:4;" d="M 208.414714 970.086789 L 150.797526 911.81856 L 209.065755 854.201372 " transform="matrix(0.048,0,0,0.048,0,-26.513385)"/>
<path style="fill:none;stroke-width:22.55397;stroke-linecap:butt;stroke-linejoin:miter;stroke:rgb(100%,40%,0%);stroke-opacity:1;stroke-miterlimit:4;" d="M 311.279297 968.540565 L 368.896484 910.272336 L 310.628255 852.655148 " transform="matrix(0.048,0,0,0.048,0,-26.513385)"/>
<path style="fill:none;stroke-width:9;stroke-linecap:butt;stroke-linejoin:miter;stroke:rgb(100%,100%,100%);stroke-opacity:1;stroke-miterlimit:4;" d="M 42.472853 990.903767 L 81.779493 1049.171996 " transform="matrix(0.048,0,0,0.048,1.644897,-43.704006)"/>
<path style="fill:none;stroke-width:9;stroke-linecap:butt;stroke-linejoin:miter;stroke:rgb(100%,100%,100%);stroke-opacity:1;stroke-miterlimit:4;" d="M 80.151889 990.903767 L 40.845249 1049.171996 " transform="matrix(0.048,0,0,0.048,1.644897,-43.704006)"/>
<path style="fill:none;stroke-width:9;stroke-linecap:butt;stroke-linejoin:miter;stroke:rgb(100%,100%,100%);stroke-opacity:1;stroke-miterlimit:4;" d="M 311.17832 528.4516 L 311.503841 582.89496 " transform="matrix(0.048,0,0,0.048,-8.737341,-21.432083)"/>
<path style="fill:none;stroke-width:9;stroke-linecap:butt;stroke-linejoin:miter;stroke:rgb(100%,100%,100%);stroke-opacity:1;stroke-miterlimit:4;" d="M 346.25319 527.963319 L 346.578711 582.488059 " transform="matrix(0.048,0,0,0.048,-8.737341,-21.432083)"/>
<path style="fill:none;stroke-width:9;stroke-linecap:butt;stroke-linejoin:miter;stroke:rgb(100%,100%,100%);stroke-opacity:1;stroke-miterlimit:4;" d="M 310.852799 555.062928 L 347.473893 555.062928 " transform="matrix(0.048,0,0,0.048,-8.737341,-21.432083)"/>
<path style="fill:none;stroke-width:9;stroke-linecap:butt;stroke-linejoin:miter;stroke:rgb(100%,100%,100%);stroke-opacity:1;stroke-miterlimit:4;" d="M 122.778342 699.612832 L 122.778342 642.321165 " transform="matrix(0.048,0,0,0.048,3.70039,-26.854853)"/>
<path style="fill:none;stroke-width:8.670217;stroke-linecap:butt;stroke-linejoin:miter;stroke:rgb(100%,100%,100%);stroke-opacity:1;stroke-miterlimit:4;" d="M 96.248395 642.728066 L 149.389671 642.728066 " transform="matrix(0.048,0,0,0.048,3.70039,-26.854853)"/>
<path style="fill:none;stroke-width:9;stroke-linecap:butt;stroke-linejoin:miter;stroke:rgb(100%,100%,100%);stroke-opacity:1;stroke-miterlimit:4;" d="M 235.270182 690.383013 L 235.595703 635.776893 L 240.641276 635.614133 L 256.510417 676.873898 L 259.847005 676.873898 L 275.797526 635.614133 L 281.08724 635.532753 L 281.08724 690.545773 " transform="matrix(0.048,0,0,0.048,0,-26.513385)"/>
<path style="fill:none;stroke-width:9;stroke-linecap:butt;stroke-linejoin:miter;stroke:rgb(100%,100%,100%);stroke-opacity:1;stroke-miterlimit:4;" d="M 296.79362 630.48718 L 297.119141 685.011919 L 328.857422 685.33744 " transform="matrix(0.048,0,0,0.048,0,-26.513385)"/>
</g>
</svg>
