<?xml version="1.0" encoding="UTF-8"?>
<svg xmlns="http://www.w3.org/2000/svg" xmlns:xlink="http://www.w3.org/1999/xlink" width="24" height="24" viewBox="0 0 24 24" version="1.1">
<g id="surface1">
<path style=" stroke:none;fill-rule:evenodd;fill:rgb(20%,20%,20%);fill-opacity:1;" d="M 3.027344 7.386719 L 5.582031 9.886719 L 5.5 6.378906 L 3.023438 6.367188 Z M 3.027344 7.386719 "/>
<path style="fill-rule:evenodd;fill:rgb(94.901961%,94.901961%,94.901961%);fill-opacity:1;stroke-width:5.03546;stroke-linecap:butt;stroke-linejoin:miter;stroke:rgb(68.627451%,68.627451%,68.627451%);stroke-opacity:1;stroke-miterlimit:4;" d="M 97.005208 1029.819862 L 433.919271 1028.680539 L 435.139974 664.748247 L 347.086589 575.555539 L 97.005208 575.555539 Z M 97.005208 1029.819862 " transform="matrix(0.048,0,0,0.048,0,-26.513385)"/>
<path style="fill-rule:evenodd;fill:rgb(68.627451%,68.627451%,68.627451%);fill-opacity:1;stroke-width:5.03546;stroke-linecap:butt;stroke-linejoin:miter;stroke:rgb(68.627451%,68.627451%,68.627451%);stroke-opacity:1;stroke-miterlimit:4;" d="M 431.559245 662.957883 L 349.365234 662.306841 L 350.097656 578.566607 Z M 431.559245 662.957883 " transform="matrix(0.048,0,0,0.048,0,-26.513385)"/>
<path style=" stroke:none;fill-rule:nonzero;fill:rgb(22.352941%,25.098039%,31.372549%);fill-opacity:1;" d="M 3.03125 3.351562 L 13.828125 3.351562 L 13.828125 7.398438 L 3.03125 7.398438 Z M 3.03125 3.351562 "/>
<path style=" stroke:none;fill-rule:evenodd;fill:rgb(60%,60%,60%);fill-opacity:1;" d="M 14.300781 22.605469 C 11.097656 23.453125 7.816406 21.542969 6.96875 18.339844 C 6.117188 15.136719 8.027344 11.855469 11.230469 11.007812 L 12.660156 16.414062 C 12.445312 16.46875 12.316406 16.691406 12.371094 16.910156 C 12.429688 17.125 12.652344 17.257812 12.871094 17.199219 Z M 11.230469 11.007812 C 14.433594 10.160156 17.714844 12.066406 18.5625 15.269531 C 19.414062 18.472656 17.503906 21.757812 14.300781 22.605469 L 12.871094 17.199219 C 13.085938 17.140625 13.214844 16.917969 13.15625 16.703125 C 13.101562 16.484375 12.878906 16.355469 12.660156 16.414062 Z M 11.230469 11.007812 "/>
<path style=" stroke:none;fill-rule:evenodd;fill:rgb(80%,80%,80%);fill-opacity:1;" d="M 14.300781 22.605469 C 11.097656 23.453125 7.816406 21.542969 6.96875 18.339844 C 6.117188 15.136719 8.027344 11.855469 11.230469 11.007812 L 12.660156 16.414062 C 12.445312 16.46875 12.316406 16.691406 12.371094 16.910156 C 12.429688 17.125 12.652344 17.257812 12.871094 17.199219 Z M 11.230469 11.007812 C 14.433594 10.160156 17.714844 12.066406 18.5625 15.269531 C 19.414062 18.472656 17.503906 21.757812 14.300781 22.605469 L 12.871094 17.199219 C 13.085938 17.140625 13.214844 16.917969 13.15625 16.703125 C 13.101562 16.484375 12.878906 16.355469 12.660156 16.414062 Z M 11.230469 11.007812 "/>
<path style=" stroke:none;fill-rule:evenodd;fill:rgb(36.470588%,41.568627%,48.235294%);fill-opacity:1;" d="M 13.3125 18.875 C 12.171875 19.179688 10.996094 18.5 10.695312 17.355469 C 10.390625 16.210938 11.074219 15.035156 12.21875 14.734375 L 12.660156 16.414062 C 12.445312 16.46875 12.316406 16.691406 12.371094 16.910156 C 12.429688 17.125 12.652344 17.257812 12.871094 17.199219 Z M 12.21875 14.734375 C 13.359375 14.429688 14.535156 15.113281 14.835938 16.257812 C 15.140625 17.402344 14.457031 18.574219 13.3125 18.875 L 12.871094 17.199219 C 13.085938 17.140625 13.214844 16.917969 13.15625 16.703125 C 13.101562 16.484375 12.878906 16.355469 12.660156 16.414062 Z M 12.21875 14.734375 "/>
<path style=" stroke:none;fill-rule:evenodd;fill:rgb(60%,60%,60%);fill-opacity:1;" d="M 13.226562 18.542969 C 12.265625 18.796875 11.28125 18.226562 11.027344 17.265625 C 10.773438 16.304688 11.34375 15.320312 12.304688 15.066406 L 12.660156 16.414062 C 12.445312 16.46875 12.316406 16.691406 12.371094 16.910156 C 12.429688 17.125 12.652344 17.257812 12.871094 17.199219 Z M 12.304688 15.066406 C 13.265625 14.8125 14.25 15.382812 14.503906 16.34375 C 14.757812 17.304688 14.1875 18.289062 13.226562 18.542969 L 12.871094 17.199219 C 13.085938 17.140625 13.214844 16.917969 13.15625 16.703125 C 13.101562 16.484375 12.878906 16.355469 12.660156 16.414062 Z M 12.304688 15.066406 "/>
<path style=" stroke:none;fill-rule:evenodd;fill:rgb(36.470588%,41.568627%,48.235294%);fill-opacity:1;" d="M 12.957031 17.535156 C 12.554688 17.644531 12.140625 17.402344 12.035156 17 C 11.925781 16.59375 12.167969 16.179688 12.570312 16.074219 L 12.660156 16.414062 C 12.445312 16.46875 12.316406 16.691406 12.371094 16.910156 C 12.429688 17.125 12.652344 17.257812 12.871094 17.199219 Z M 12.570312 16.074219 C 12.976562 15.96875 13.390625 16.207031 13.496094 16.609375 C 13.601562 17.015625 13.363281 17.429688 12.957031 17.535156 L 12.871094 17.199219 C 13.085938 17.140625 13.214844 16.917969 13.15625 16.703125 C 13.101562 16.484375 12.878906 16.355469 12.660156 16.414062 Z M 12.570312 16.074219 "/>
<path style="fill:none;stroke-width:9;stroke-linecap:butt;stroke-linejoin:miter;stroke:rgb(100%,100%,100%);stroke-opacity:1;stroke-miterlimit:4;" d="M 133.336527 354.132895 L 133.255147 304.653728 " transform="matrix(0.048,0,0,0.048,0.666253,-10.178066)"/>
<path style=" stroke:none;fill-rule:nonzero;fill:rgb(100%,100%,100%);fill-opacity:1;" d="M 6.859375 3.832031 L 7.285156 3.832031 L 7.285156 4.25 L 6.859375 4.25 Z M 6.859375 3.832031 "/>
<path style="fill:none;stroke-width:10;stroke-linecap:butt;stroke-linejoin:miter;stroke:rgb(100%,100%,100%);stroke-opacity:1;stroke-miterlimit:4;" d="M 200.846354 641.392128 C 200.846354 641.392128 191.56901 637.078977 182.779948 636.997596 C 173.990885 636.916216 168.538411 642.20593 168.212891 649.855669 C 167.88737 657.424029 172.119141 663.446164 187.33724 665.236529 C 202.473958 667.026893 201.578776 680.291867 199.707031 684.930539 C 197.835286 689.569211 189.046224 694.045122 180.013021 692.824419 C 171.061198 691.603716 163.574219 687.534706 163.574219 687.534706 " transform="matrix(0.048,0,0,0.048,0,-26.513385)"/>
<path style="fill:none;stroke-width:9;stroke-linecap:butt;stroke-linejoin:miter;stroke:rgb(100%,100%,100%);stroke-opacity:1;stroke-miterlimit:4;" d="M 239.420573 690.464393 C 227.376302 690.301633 216.064453 678.257362 215.983073 662.957883 C 215.901693 647.658404 227.945964 635.369992 240.152995 635.695513 C 252.278646 636.021034 262.858073 647.658404 263.020833 663.934445 C 263.264974 680.210487 251.464844 690.545773 239.420573 690.464393 Z M 239.420573 690.464393 " transform="matrix(0.048,0,0,0.048,0,-26.513385)"/>
</g>
</svg>
