<?xml version="1.0" encoding="UTF-8"?>
<svg xmlns="http://www.w3.org/2000/svg" xmlns:xlink="http://www.w3.org/1999/xlink" width="24" height="24" viewBox="0 0 24 24" version="1.1">
<g id="surface1">
<path style=" stroke:none;fill-rule:evenodd;fill:rgb(10.196078%,10.196078%,10.196078%);fill-opacity:1;" d="M 3.039062 7.414062 L 5.59375 9.914062 L 5.515625 6.40625 L 3.039062 6.394531 Z M 3.039062 7.414062 "/>
<path style="fill-rule:evenodd;fill:rgb(94.901961%,94.901961%,94.901961%);fill-opacity:1;stroke-width:5.03546;stroke-linecap:butt;stroke-linejoin:miter;stroke:rgb(68.627451%,68.627451%,68.627451%);stroke-opacity:1;stroke-miterlimit:4;" d="M 97.005208 1029.819862 L 433.919271 1028.680539 L 435.139974 664.748247 L 347.086589 575.555539 L 97.005208 575.555539 Z M 97.005208 1029.819862 " transform="matrix(0.048,0,0,0.048,0,-26.513385)"/>
<path style="fill-rule:evenodd;fill:rgb(68.627451%,68.627451%,68.627451%);fill-opacity:1;stroke-width:5.03546;stroke-linecap:butt;stroke-linejoin:miter;stroke:rgb(68.627451%,68.627451%,68.627451%);stroke-opacity:1;stroke-miterlimit:4;" d="M 431.559245 662.957883 L 349.365234 662.306841 L 350.097656 578.566607 Z M 431.559245 662.957883 " transform="matrix(0.048,0,0,0.048,0,-26.513385)"/>
<path style=" stroke:none;fill-rule:nonzero;fill:rgb(22.352941%,25.098039%,31.372549%);fill-opacity:1;" d="M 3.03125 3.351562 L 13.828125 3.351562 L 13.828125 7.398438 L 3.03125 7.398438 Z M 3.03125 3.351562 "/>
<path style=" stroke:none;fill-rule:nonzero;fill:rgb(22.352941%,25.098039%,31.372549%);fill-opacity:1;" d="M 12.21875 22.710938 C 12.109375 22.664062 12 22.542969 11.949219 22.421875 C 11.921875 22.363281 11.898438 22.125 11.875 21.746094 C 11.859375 21.425781 11.832031 21.136719 11.820312 21.105469 C 11.804688 21.0625 11.734375 21.027344 11.550781 20.960938 C 11.410156 20.914062 11.203125 20.828125 11.085938 20.769531 C 10.972656 20.710938 10.851562 20.660156 10.820312 20.660156 C 10.785156 20.660156 10.597656 20.816406 10.324219 21.0625 C 10.085938 21.285156 9.847656 21.488281 9.800781 21.511719 C 9.699219 21.5625 9.480469 21.570312 9.367188 21.527344 C 9.273438 21.492188 8.316406 20.546875 8.253906 20.433594 C 8.195312 20.316406 8.199219 20.101562 8.269531 19.96875 C 8.300781 19.910156 8.503906 19.671875 8.71875 19.433594 C 8.953125 19.183594 9.113281 18.984375 9.113281 18.953125 C 9.113281 18.921875 9.066406 18.804688 9.007812 18.6875 C 8.949219 18.570312 8.863281 18.363281 8.8125 18.226562 C 8.765625 18.089844 8.707031 17.96875 8.683594 17.953125 C 8.660156 17.941406 8.378906 17.917969 8.054688 17.898438 C 7.683594 17.878906 7.433594 17.851562 7.359375 17.828125 C 7.222656 17.777344 7.0625 17.609375 7.039062 17.484375 C 7.03125 17.4375 7.027344 17.070312 7.03125 16.675781 L 7.039062 15.953125 L 7.125 15.847656 C 7.269531 15.664062 7.339844 15.644531 8.039062 15.601562 C 8.4375 15.578125 8.679688 15.550781 8.699219 15.53125 C 8.714844 15.515625 8.773438 15.378906 8.828125 15.226562 C 8.886719 15.078125 8.972656 14.875 9.023438 14.773438 C 9.074219 14.675781 9.113281 14.570312 9.113281 14.542969 C 9.113281 14.515625 8.949219 14.3125 8.746094 14.089844 C 8.542969 13.867188 8.347656 13.648438 8.3125 13.605469 C 8.21875 13.476562 8.183594 13.320312 8.222656 13.164062 C 8.253906 13.046875 8.304688 12.984375 8.746094 12.535156 C 9.015625 12.265625 9.28125 12.015625 9.335938 11.988281 C 9.464844 11.921875 9.667969 11.921875 9.796875 11.984375 C 9.851562 12.011719 10.085938 12.210938 10.320312 12.425781 C 10.554688 12.640625 10.761719 12.828125 10.78125 12.835938 C 10.800781 12.847656 10.925781 12.804688 11.078125 12.730469 C 11.226562 12.664062 11.445312 12.574219 11.5625 12.53125 C 11.726562 12.476562 11.792969 12.441406 11.8125 12.394531 C 11.828125 12.359375 11.859375 12.066406 11.875 11.746094 C 11.914062 11.128906 11.933594 11.03125 12.058594 10.898438 C 12.203125 10.753906 12.28125 10.742188 13.074219 10.75 L 13.792969 10.757812 L 13.90625 10.832031 C 14.097656 10.960938 14.121094 11.039062 14.167969 11.726562 C 14.191406 12.058594 14.214844 12.355469 14.222656 12.386719 C 14.234375 12.429688 14.292969 12.464844 14.484375 12.53125 C 14.621094 12.578125 14.839844 12.671875 14.972656 12.738281 C 15.101562 12.804688 15.222656 12.859375 15.234375 12.859375 C 15.246094 12.859375 15.457031 12.671875 15.703125 12.449219 C 15.945312 12.226562 16.191406 12.015625 16.246094 11.988281 C 16.378906 11.921875 16.574219 11.921875 16.714844 11.992188 C 16.785156 12.023438 17.011719 12.234375 17.304688 12.523438 C 17.800781 13.027344 17.839844 13.085938 17.839844 13.3125 C 17.839844 13.472656 17.769531 13.578125 17.339844 14.046875 C 17.109375 14.300781 16.917969 14.519531 16.917969 14.535156 C 16.917969 14.546875 16.980469 14.683594 17.054688 14.839844 C 17.128906 14.992188 17.214844 15.210938 17.25 15.320312 C 17.292969 15.457031 17.328125 15.527344 17.367188 15.542969 C 17.394531 15.554688 17.695312 15.582031 18.03125 15.605469 C 18.699219 15.644531 18.808594 15.671875 18.917969 15.832031 C 19.023438 15.980469 19.039062 16.089844 19.027344 16.820312 L 19.019531 17.515625 L 18.9375 17.628906 C 18.792969 17.835938 18.753906 17.847656 18.015625 17.894531 C 17.652344 17.921875 17.351562 17.945312 17.34375 17.953125 C 17.335938 17.960938 17.289062 18.078125 17.242188 18.210938 C 17.195312 18.34375 17.101562 18.5625 17.035156 18.691406 C 16.96875 18.824219 16.917969 18.949219 16.925781 18.96875 C 16.929688 18.988281 17.109375 19.199219 17.324219 19.433594 C 17.542969 19.667969 17.746094 19.914062 17.78125 19.980469 C 17.851562 20.121094 17.855469 20.269531 17.796875 20.410156 C 17.746094 20.535156 16.867188 21.429688 16.722656 21.503906 C 16.605469 21.566406 16.386719 21.574219 16.261719 21.519531 C 16.210938 21.496094 15.972656 21.296875 15.726562 21.070312 C 15.480469 20.847656 15.261719 20.660156 15.234375 20.660156 C 15.210938 20.660156 15.074219 20.71875 14.929688 20.785156 C 14.78125 20.851562 14.566406 20.941406 14.449219 20.980469 C 14.285156 21.03125 14.230469 21.0625 14.222656 21.105469 C 14.214844 21.136719 14.191406 21.433594 14.167969 21.765625 C 14.121094 22.496094 14.09375 22.574219 13.835938 22.703125 C 13.765625 22.742188 13.640625 22.75 13.023438 22.746094 C 12.476562 22.746094 12.277344 22.738281 12.21875 22.710938 Z M 13.289062 19.46875 C 13.941406 19.398438 14.492188 19.140625 14.957031 18.671875 C 15.3125 18.316406 15.539062 17.917969 15.679688 17.414062 C 15.765625 17.097656 15.765625 16.402344 15.675781 16.085938 C 15.414062 15.117188 14.71875 14.402344 13.761719 14.113281 C 13.539062 14.046875 13.476562 14.039062 13.042969 14.039062 C 12.628906 14.035156 12.539062 14.042969 12.339844 14.097656 C 11.328125 14.375 10.558594 15.183594 10.347656 16.191406 C 10.160156 17.09375 10.4375 18.015625 11.09375 18.679688 C 11.441406 19.027344 11.890625 19.28125 12.375 19.40625 C 12.511719 19.441406 12.710938 19.46875 12.988281 19.492188 C 13.011719 19.492188 13.144531 19.484375 13.289062 19.46875 Z M 12.617188 18.332031 C 11.925781 18.144531 11.441406 17.558594 11.398438 16.851562 C 11.367188 16.359375 11.527344 15.941406 11.875 15.59375 C 12.515625 14.960938 13.53125 14.953125 14.160156 15.578125 C 14.679688 16.097656 14.804688 16.832031 14.480469 17.476562 C 14.207031 18.027344 13.703125 18.351562 13.085938 18.375 C 12.875 18.382812 12.769531 18.375 12.617188 18.332031 Z M 13.390625 17.648438 C 13.578125 17.578125 13.808594 17.367188 13.902344 17.171875 C 14.019531 16.875 14.011719 16.535156 13.886719 16.304688 C 13.707031 15.976562 13.445312 15.808594 13.070312 15.789062 C 12.769531 15.777344 12.59375 15.839844 12.375 16.035156 C 12.101562 16.285156 11.992188 16.636719 12.078125 16.980469 C 12.15625 17.277344 12.316406 17.480469 12.589844 17.617188 C 12.84375 17.746094 13.105469 17.753906 13.390625 17.648438 Z M 13.390625 17.648438 "/>
<path style="fill:none;stroke-width:9;stroke-linecap:butt;stroke-linejoin:miter;stroke:rgb(100%,100%,100%);stroke-opacity:1;stroke-miterlimit:4;" d="M 380.187174 670.758091 L 346.251628 670.26981 L 346.658529 618.593378 L 381.082357 618.756138 " transform="matrix(0.048,0,0,0.048,-10.858359,-25.536232)"/>
<path style="fill:none;stroke-width:9;stroke-linecap:butt;stroke-linejoin:miter;stroke:rgb(100%,100%,100%);stroke-opacity:1;stroke-miterlimit:4;" d="M 348.937174 642.356398 L 378.071289 642.519159 " transform="matrix(0.048,0,0,0.048,-10.858359,-25.536232)"/>
<path style="fill:none;stroke-width:9;stroke-linecap:butt;stroke-linejoin:miter;stroke:rgb(100%,100%,100%);stroke-opacity:1;stroke-miterlimit:4;" d="M 380.206794 670.713243 L 346.189867 670.306342 L 346.596768 618.54853 L 381.101977 618.71129 " transform="matrix(0.048,0,0,0.048,-5.613207,-25.475486)"/>
<path style="fill:none;stroke-width:9;stroke-linecap:butt;stroke-linejoin:miter;stroke:rgb(100%,100%,100%);stroke-opacity:1;stroke-miterlimit:4;" d="M 348.956794 642.392931 L 378.090909 642.474311 " transform="matrix(0.048,0,0,0.048,-5.613207,-25.475486)"/>
<path style="fill:none;stroke-width:9;stroke-linecap:butt;stroke-linejoin:miter;stroke:rgb(100%,100%,100%);stroke-opacity:1;stroke-miterlimit:4;" d="M 42.421892 990.932576 L 81.809913 1049.200805 " transform="matrix(0.048,0,0,0.048,6.07703,-43.494451)"/>
<path style="fill:none;stroke-width:9;stroke-linecap:butt;stroke-linejoin:miter;stroke:rgb(100%,100%,100%);stroke-opacity:1;stroke-miterlimit:4;" d="M 80.182309 990.932576 L 40.794288 1049.200805 " transform="matrix(0.048,0,0,0.048,6.07703,-43.494451)"/>
</g>
</svg>
