<?xml version="1.0" encoding="UTF-8"?>
<svg xmlns="http://www.w3.org/2000/svg" xmlns:xlink="http://www.w3.org/1999/xlink" width="24" height="24" viewBox="0 0 24 24" version="1.1">
<g id="surface1">
<path style=" stroke:none;fill-rule:evenodd;fill:rgb(20%,20%,20%);fill-opacity:1;" d="M 3.027344 7.386719 L 5.582031 9.886719 L 5.5 6.378906 L 3.023438 6.367188 Z M 3.027344 7.386719 "/>
<path style="fill-rule:evenodd;fill:rgb(94.901961%,94.901961%,94.901961%);fill-opacity:1;stroke-width:5.03546;stroke-linecap:butt;stroke-linejoin:miter;stroke:rgb(68.627451%,68.627451%,68.627451%);stroke-opacity:1;stroke-miterlimit:4;" d="M 97.005208 1029.819862 L 433.919271 1028.680539 L 435.139974 664.748247 L 347.086589 575.555539 L 97.005208 575.555539 Z M 97.005208 1029.819862 " transform="matrix(0.048,0,0,0.048,0,-26.513385)"/>
<path style="fill-rule:evenodd;fill:rgb(68.627451%,68.627451%,68.627451%);fill-opacity:1;stroke-width:5.03546;stroke-linecap:butt;stroke-linejoin:miter;stroke:rgb(68.627451%,68.627451%,68.627451%);stroke-opacity:1;stroke-miterlimit:4;" d="M 431.559245 662.957883 L 349.365234 662.306841 L 350.097656 578.566607 Z M 431.559245 662.957883 " transform="matrix(0.048,0,0,0.048,0,-26.513385)"/>
<path style=" stroke:none;fill-rule:nonzero;fill:rgb(22.352941%,25.098039%,31.372549%);fill-opacity:1;" d="M 3.03125 3.351562 L 13.828125 3.351562 L 13.828125 7.398438 L 3.03125 7.398438 Z M 3.03125 3.351562 "/>
<path style=" stroke:none;fill-rule:nonzero;fill:rgb(22.352941%,25.098039%,31.372549%);fill-opacity:1;" d="M 6.988281 13.578125 L 17.636719 13.578125 C 18.011719 13.578125 18.3125 13.882812 18.3125 14.253906 L 18.3125 22.070312 C 18.3125 22.445312 18.011719 22.746094 17.636719 22.746094 L 6.988281 22.746094 C 6.617188 22.746094 6.3125 22.445312 6.3125 22.070312 L 6.3125 14.253906 C 6.3125 13.882812 6.617188 13.578125 6.988281 13.578125 Z M 6.988281 13.578125 "/>
<path style=" stroke:none;fill-rule:nonzero;fill:rgb(100%,100%,100%);fill-opacity:1;" d="M 7.90625 14.65625 L 16.769531 14.65625 C 17.046875 14.65625 17.273438 14.882812 17.273438 15.160156 L 17.273438 20.984375 C 17.273438 21.265625 17.046875 21.488281 16.769531 21.488281 L 7.90625 21.488281 C 7.628906 21.488281 7.402344 21.265625 7.402344 20.984375 L 7.402344 15.160156 C 7.402344 14.882812 7.628906 14.65625 7.90625 14.65625 Z M 7.90625 14.65625 "/>
<path style=" stroke:none;fill-rule:nonzero;fill:rgb(22.352941%,25.098039%,31.372549%);fill-opacity:1;" d="M 8.609375 15.355469 L 12.65625 15.355469 C 12.882812 15.355469 13.0625 15.539062 13.0625 15.761719 L 13.0625 20.460938 C 13.0625 20.6875 12.882812 20.867188 12.65625 20.867188 L 8.609375 20.867188 C 8.386719 20.867188 8.203125 20.6875 8.203125 20.460938 L 8.203125 15.761719 C 8.203125 15.539062 8.386719 15.355469 8.609375 15.355469 Z M 8.609375 15.355469 "/>
<path style=" stroke:none;fill-rule:nonzero;fill:rgb(100%,100%,100%);fill-opacity:1;" d="M 9.328125 16.140625 L 9.328125 17 L 11.117188 17.007812 C 11.117188 17.007812 10.425781 17.910156 10.195312 18.59375 C 9.964844 19.273438 9.9375 20.238281 9.9375 20.238281 L 10.804688 20.25 C 10.804688 20.25 10.820312 19.292969 11.054688 18.601562 C 11.289062 17.910156 12.132812 16.972656 12.132812 16.972656 L 12.132812 16.128906 Z M 9.328125 16.140625 "/>
<path style=" stroke:none;fill-rule:nonzero;fill:rgb(22.352941%,25.098039%,31.372549%);fill-opacity:1;" d="M 13.9375 18.1875 L 13.949219 17.433594 L 16.507812 17.445312 L 16.507812 18.109375 L 15.054688 19.757812 L 16.5 19.746094 L 16.488281 20.492188 L 13.949219 20.472656 L 13.9375 19.816406 L 15.460938 18.171875 Z M 13.9375 18.1875 "/>
<path style="fill:none;stroke-width:9;stroke-linecap:butt;stroke-linejoin:miter;stroke:rgb(100%,100%,100%);stroke-opacity:1;stroke-miterlimit:4;" d="M 125.406901 638.218299 L 163.574219 638.787961 L 128.90625 693.882362 " transform="matrix(0.048,0,0,0.048,0,-26.513385)"/>
<path style="fill:none;stroke-width:9;stroke-linecap:butt;stroke-linejoin:miter;stroke:rgb(100%,100%,100%);stroke-opacity:1;stroke-miterlimit:4;" d="M 188.557943 638.625201 L 226.72526 639.194862 L 192.057292 689.650591 L 234.863281 689.894732 " transform="matrix(0.048,0,0,0.048,0,-26.513385)"/>
</g>
</svg>
