<?xml version="1.0" encoding="UTF-8"?>
<svg xmlns="http://www.w3.org/2000/svg" xmlns:xlink="http://www.w3.org/1999/xlink" width="24" height="24" viewBox="0 0 24 24" version="1.1">
<g id="surface1">
<path style=" stroke:none;fill-rule:evenodd;fill:rgb(0%,11.372549%,39.215686%);fill-opacity:1;" d="M 3.027344 7.386719 L 5.582031 9.886719 L 5.5 6.378906 L 3.023438 6.367188 Z M 3.027344 7.386719 "/>
<path style="fill-rule:evenodd;fill:rgb(94.901961%,94.901961%,94.901961%);fill-opacity:1;stroke-width:5.03546;stroke-linecap:butt;stroke-linejoin:miter;stroke:rgb(68.627451%,68.627451%,68.627451%);stroke-opacity:1;stroke-miterlimit:4;" d="M 97.005208 1029.819862 L 433.919271 1028.680539 L 435.139974 664.748247 L 347.086589 575.555539 L 97.005208 575.555539 Z M 97.005208 1029.819862 " transform="matrix(0.048,0,0,0.048,0,-26.513385)"/>
<path style="fill-rule:evenodd;fill:rgb(68.627451%,68.627451%,68.627451%);fill-opacity:1;stroke-width:5.03546;stroke-linecap:butt;stroke-linejoin:miter;stroke:rgb(68.627451%,68.627451%,68.627451%);stroke-opacity:1;stroke-miterlimit:4;" d="M 431.559245 662.957883 L 349.365234 662.306841 L 350.097656 578.566607 Z M 431.559245 662.957883 " transform="matrix(0.048,0,0,0.048,0,-26.513385)"/>
<path style=" stroke:none;fill-rule:nonzero;fill:rgb(0%,30.196078%,54.509804%);fill-opacity:1;" d="M 3.03125 3.351562 L 16.554688 3.351562 L 16.554688 7.398438 L 3.03125 7.398438 Z M 3.03125 3.351562 "/>
<path style=" stroke:none;fill-rule:nonzero;fill:rgb(0%,30.196078%,54.509804%);fill-opacity:1;" d="M 7.03125 11.574219 L 7.03125 22.796875 L 18.25 22.796875 L 18.25 11.574219 Z M 7.871094 12.414062 L 8.714844 12.414062 L 8.714844 13.257812 L 7.871094 13.257812 Z M 16.566406 12.414062 L 17.410156 12.414062 L 17.410156 13.257812 L 16.566406 13.257812 Z M 7.871094 14.519531 L 8.714844 14.519531 L 8.714844 15.363281 L 7.871094 15.363281 Z M 16.566406 14.519531 L 17.410156 14.519531 L 17.410156 15.363281 L 16.566406 15.363281 Z M 7.871094 16.765625 L 8.714844 16.765625 L 8.714844 17.605469 L 7.871094 17.605469 Z M 16.566406 16.765625 L 17.410156 16.765625 L 17.410156 17.605469 L 16.566406 17.605469 Z M 7.871094 19.007812 L 8.714844 19.007812 L 8.714844 19.851562 L 7.871094 19.851562 Z M 16.566406 19.007812 L 17.410156 19.007812 L 17.410156 19.851562 L 16.566406 19.851562 Z M 7.871094 21.113281 L 8.714844 21.113281 L 8.714844 21.953125 L 7.871094 21.953125 Z M 16.566406 21.113281 L 17.410156 21.113281 L 17.410156 21.953125 L 16.566406 21.953125 Z M 16.566406 21.113281 "/>
<path style=" stroke:none;fill-rule:nonzero;fill:rgb(40.784314%,91.764706%,100%);fill-opacity:1;" d="M 9.585938 12.4375 L 15.757812 12.4375 L 15.757812 16.785156 L 9.585938 16.785156 Z M 9.585938 12.4375 "/>
<path style=" stroke:none;fill-rule:nonzero;fill:rgb(40.784314%,91.764706%,100%);fill-opacity:1;" d="M 9.554688 17.605469 L 15.726562 17.605469 L 15.726562 21.953125 L 9.554688 21.953125 Z M 9.554688 17.605469 "/>
<path style=" stroke:none;fill-rule:evenodd;fill:rgb(94.117647%,22.352941%,8.627451%);fill-opacity:0.941176;" d="M 11.875 21.96875 C 11.875 21.96875 12.011719 20.496094 13.128906 19.527344 C 14.246094 18.554688 15.742188 18.878906 15.742188 18.878906 L 15.726562 21.980469 Z M 11.875 21.96875 "/>
<path style=" stroke:none;fill-rule:evenodd;fill:rgb(94.117647%,22.352941%,8.627451%);fill-opacity:0.941176;" d="M 10.996094 12.421875 C 10.996094 12.421875 10.984375 12.855469 11.34375 13.296875 C 11.707031 13.738281 12.101562 13.8125 12.101562 13.8125 L 12.089844 14.785156 L 12.519531 14.785156 L 12.53125 13.8125 C 12.53125 13.8125 12.871094 13.777344 13.265625 13.367188 C 13.65625 12.960938 13.625 12.410156 13.625 12.410156 Z M 10.996094 12.421875 "/>
<path style=" stroke:none;fill-rule:nonzero;fill:rgb(83.137255%,33.333333%,0%);fill-opacity:0.941176;" d="M 12.078125 14.914062 L 12.519531 14.914062 L 12.519531 15.253906 L 12.078125 15.253906 Z M 12.078125 14.914062 "/>
<path style="fill:none;stroke-width:7.494031;stroke-linecap:butt;stroke-linejoin:miter;stroke:rgb(100%,100%,100%);stroke-opacity:1;stroke-miterlimit:4;" d="M 72.835286 688.185747 L 73.079427 642.694211 L 77.229818 642.531451 L 90.494792 676.955279 L 93.261719 676.955279 L 106.526693 642.531451 L 110.921224 642.45007 L 110.921224 688.267128 " transform="matrix(0.048,0,0,0.048,0,-26.513385)"/>
<path style="fill:none;stroke-width:7.54718;stroke-linecap:butt;stroke-linejoin:miter;stroke:rgb(100%,100%,100%);stroke-opacity:1;stroke-miterlimit:4;" d="M 122.965495 688.511268 L 122.965495 641.554888 C 122.965495 641.554888 148.681641 636.590695 148.51888 653.436398 C 148.4375 670.282102 123.535156 665.72481 123.535156 665.72481 " transform="matrix(0.048,0,0,0.048,0,-26.513385)"/>
<path style="fill:none;stroke-width:7.494031;stroke-linecap:butt;stroke-linejoin:miter;stroke:rgb(100%,100%,100%);stroke-opacity:1;stroke-miterlimit:4;" d="M 160.644531 637.404497 L 160.888672 682.814654 L 187.33724 683.058794 " transform="matrix(0.048,0,0,0.048,0,-26.513385)"/>
<path style="fill:none;stroke-width:9;stroke-linecap:butt;stroke-linejoin:bevel;stroke:rgb(100%,100%,100%);stroke-opacity:1;stroke-miterlimit:4;" d="M 915.725976 696.256734 L 937.852447 638.029181 L 960.561193 696.256734 " transform="matrix(0.0402516,0,0,0.0402516,-27.554714,-21.552765)"/>
<path style="fill:none;stroke-width:9;stroke-linecap:butt;stroke-linejoin:miter;stroke:rgb(100%,100%,100%);stroke-opacity:1;stroke-miterlimit:4;" d="M 924.557155 676.750503 L 950.371371 676.750503 " transform="matrix(0.0402516,0,0,0.0402516,-27.554714,-21.552765)"/>
<path style="fill:none;stroke-width:9;stroke-linecap:butt;stroke-linejoin:miter;stroke:rgb(100%,100%,100%);stroke-opacity:1;stroke-miterlimit:4;" d="M 516.137853 313.22381 L 536.661957 342.446225 L 556.306456 313.22381 " transform="matrix(0.0399682,0,0,0.0399682,-9.679908,-8.425258)"/>
<path style="fill:none;stroke-width:9;stroke-linecap:butt;stroke-linejoin:miter;stroke:rgb(100%,100%,100%);stroke-opacity:1;stroke-miterlimit:4;" d="M 536.661957 342.446225 L 536.368755 371.277703 " transform="matrix(0.0399682,0,0,0.0399682,-9.679908,-8.425258)"/>
<path style="fill:none;stroke-width:9;stroke-linecap:butt;stroke-linejoin:miter;stroke:rgb(100%,100%,100%);stroke-opacity:1;stroke-miterlimit:4;" d="M 380.217299 670.677865 L 346.205928 670.286929 L 346.596863 618.585735 L 381.096903 618.781203 " transform="matrix(0.0399682,0,0,0.0399682,-0.778651,-20.497227)"/>
<path style="fill:none;stroke-width:9;stroke-linecap:butt;stroke-linejoin:miter;stroke:rgb(100%,100%,100%);stroke-opacity:1;stroke-miterlimit:4;" d="M 348.942475 642.335055 L 378.067155 642.530523 " transform="matrix(0.0399682,0,0,0.0399682,-0.778651,-20.497227)"/>
<path style="fill:none;stroke-width:9.063828;stroke-linecap:butt;stroke-linejoin:miter;stroke:rgb(100%,100%,100%);stroke-opacity:1;stroke-miterlimit:4;" d="M 384.472586 735.904712 L 384.472586 679.41456 C 384.472586 679.41456 415.258741 673.550531 415.161007 693.781433 C 415.063274 714.012335 385.058989 708.539241 385.058989 708.539241 " transform="matrix(0.0399682,0,0,0.0399682,-0.538571,-22.955792)"/>
<path style="fill:none;stroke-width:9;stroke-linecap:butt;stroke-linejoin:miter;stroke:rgb(100%,100%,100%);stroke-opacity:1;stroke-miterlimit:4;" d="M 392.48676 710.493917 L 418.386224 734.927374 " transform="matrix(0.0399682,0,0,0.0399682,-0.538571,-22.955792)"/>
</g>
</svg>
