<?xml version="1.0" encoding="UTF-8"?>
<svg xmlns="http://www.w3.org/2000/svg" xmlns:xlink="http://www.w3.org/1999/xlink" width="24" height="24" viewBox="0 0 24 24" version="1.1">
<g id="surface1">
<path style=" stroke:none;fill-rule:evenodd;fill:rgb(10.196078%,10.196078%,10.196078%);fill-opacity:1;" d="M 3.027344 7.386719 L 5.582031 9.886719 L 5.5 6.378906 L 3.023438 6.367188 Z M 3.027344 7.386719 "/>
<path style="fill-rule:evenodd;fill:rgb(94.901961%,94.901961%,94.901961%);fill-opacity:1;stroke-width:5.03546;stroke-linecap:butt;stroke-linejoin:miter;stroke:rgb(68.627451%,68.627451%,68.627451%);stroke-opacity:1;stroke-miterlimit:4;" d="M 97.005208 1029.819862 L 433.919271 1028.680539 L 435.139974 664.748247 L 347.086589 575.555539 L 97.005208 575.555539 Z M 97.005208 1029.819862 " transform="matrix(0.048,0,0,0.048,0,-26.513385)"/>
<path style="fill-rule:evenodd;fill:rgb(68.627451%,68.627451%,68.627451%);fill-opacity:1;stroke-width:5.03546;stroke-linecap:butt;stroke-linejoin:miter;stroke:rgb(68.627451%,68.627451%,68.627451%);stroke-opacity:1;stroke-miterlimit:4;" d="M 431.559245 662.957883 L 349.365234 662.306841 L 350.097656 578.566607 Z M 431.559245 662.957883 " transform="matrix(0.048,0,0,0.048,0,-26.513385)"/>
<path style=" stroke:none;fill-rule:nonzero;fill:rgb(20%,20%,20%);fill-opacity:1;" d="M 3.03125 3.351562 L 13.828125 3.351562 L 13.828125 7.398438 L 3.03125 7.398438 Z M 3.03125 3.351562 "/>
<path style=" stroke:none;fill-rule:evenodd;fill:rgb(20%,20%,20%);fill-opacity:1;" d="M 10.023438 11.664062 L 10.023438 19.664062 C 9.683594 19.347656 9.242188 19.144531 8.777344 19.144531 C 7.796875 19.144531 6.90625 20.035156 6.90625 21.015625 C 6.90625 21.992188 7.796875 22.882812 8.777344 22.882812 C 9.753906 22.882812 10.648438 21.992188 10.648438 21.015625 L 10.648438 11.664062 Z M 10.023438 11.664062 "/>
<path style=" stroke:none;fill-rule:evenodd;fill:rgb(20%,20%,20%);fill-opacity:1;" d="M 16.183594 10.949219 L 16.183594 18.949219 C 15.84375 18.632812 15.402344 18.429688 14.9375 18.429688 C 13.957031 18.429688 13.066406 19.320312 13.066406 20.296875 C 13.066406 21.277344 13.957031 22.167969 14.9375 22.167969 C 15.914062 22.167969 16.808594 21.277344 16.808594 20.296875 L 16.808594 10.949219 Z M 16.183594 10.949219 "/>
<path style=" stroke:none;fill-rule:nonzero;fill:rgb(20%,20%,20%);fill-opacity:1;" d="M 10.046875 11.675781 L 16.71875 10.882812 L 16.804688 11.601562 L 10.132812 12.390625 Z M 10.046875 11.675781 "/>
<path style="fill:none;stroke-width:9;stroke-linecap:butt;stroke-linejoin:bevel;stroke:rgb(100%,100%,100%);stroke-opacity:1;stroke-miterlimit:4;" d="M 915.720619 696.29573 L 937.861732 638.033895 L 960.568495 696.29573 " transform="matrix(0.0483405,0,0,0.0483405,-35.992955,-26.909284)"/>
<path style="fill:none;stroke-width:9;stroke-linecap:butt;stroke-linejoin:miter;stroke:rgb(100%,100%,100%);stroke-opacity:1;stroke-miterlimit:4;" d="M 924.609387 676.74044 L 950.386815 676.74044 " transform="matrix(0.0483405,0,0,0.0483405,-35.992955,-26.909284)"/>
<path style="fill:none;stroke-width:9;stroke-linecap:butt;stroke-linejoin:bevel;stroke:rgb(100%,100%,100%);stroke-opacity:1;stroke-miterlimit:4;" d="M 216.715495 634.39343 L 243.489583 690.708534 L 269.61263 634.63757 " transform="matrix(0.048,0,0,0.048,0,-26.513385)"/>
<path style="fill:none;stroke-width:9;stroke-linecap:butt;stroke-linejoin:miter;stroke:rgb(100%,100%,100%);stroke-opacity:1;stroke-miterlimit:4;" d="M 101.39974 629.836138 L 109.45638 686.069862 L 114.501953 686.232622 L 130.371094 644.972857 L 133.707682 644.972857 L 149.739583 686.232622 L 154.947917 686.314003 L 162.353516 630.080279 " transform="matrix(0.048,0,0,0.048,0,-26.513385)"/>
</g>
</svg>
