<?xml version="1.0" encoding="UTF-8"?>
<svg xmlns="http://www.w3.org/2000/svg" xmlns:xlink="http://www.w3.org/1999/xlink" width="24" height="24" viewBox="0 0 24 24" version="1.1">
<g id="surface1">
<path style=" stroke:none;fill-rule:evenodd;fill:rgb(19.607843%,19.607843%,19.607843%);fill-opacity:1;" d="M 3.027344 7.386719 L 5.582031 9.886719 L 5.5 6.378906 L 3.023438 6.367188 Z M 3.027344 7.386719 "/>
<path style="fill-rule:evenodd;fill:rgb(94.901961%,94.901961%,94.901961%);fill-opacity:1;stroke-width:5.03546;stroke-linecap:butt;stroke-linejoin:miter;stroke:rgb(68.627451%,68.627451%,68.627451%);stroke-opacity:1;stroke-miterlimit:4;" d="M 97.005208 1029.819862 L 433.919271 1028.680539 L 435.139974 664.748247 L 347.086589 575.555539 L 97.005208 575.555539 Z M 97.005208 1029.819862 " transform="matrix(0.048,0,0,0.048,0,-26.513385)"/>
<path style="fill-rule:evenodd;fill:rgb(68.627451%,68.627451%,68.627451%);fill-opacity:1;stroke-width:5.03546;stroke-linecap:butt;stroke-linejoin:miter;stroke:rgb(68.627451%,68.627451%,68.627451%);stroke-opacity:1;stroke-miterlimit:4;" d="M 431.559245 662.957883 L 349.365234 662.306841 L 350.097656 578.566607 Z M 431.559245 662.957883 " transform="matrix(0.048,0,0,0.048,0,-26.513385)"/>
<path style=" stroke:none;fill-rule:nonzero;fill:rgb(40%,40%,40%);fill-opacity:1;" d="M 3.03125 3.351562 L 14.816406 3.351562 L 14.816406 7.398438 L 3.03125 7.398438 Z M 3.03125 3.351562 "/>
<path style="fill:none;stroke-width:9;stroke-linecap:butt;stroke-linejoin:miter;stroke:rgb(100%,100%,100%);stroke-opacity:1;stroke-miterlimit:4;" d="M 380.220618 670.734275 L 346.203691 670.327374 L 346.610592 618.569561 L 381.034421 618.732322 " transform="matrix(0.048,0,0,0.048,-9.434183,-25.652276)"/>
<path style="fill:none;stroke-width:9;stroke-linecap:butt;stroke-linejoin:miter;stroke:rgb(100%,100%,100%);stroke-opacity:1;stroke-miterlimit:4;" d="M 348.970618 642.332582 L 378.104733 642.495342 " transform="matrix(0.048,0,0,0.048,-9.434183,-25.652276)"/>
<path style=" stroke:none;fill-rule:nonzero;fill:rgb(60%,60%,60%);fill-opacity:1;" d="M 7.429688 17.011719 L 18.132812 17.011719 L 18.132812 19.578125 L 7.429688 19.578125 Z M 7.429688 17.011719 "/>
<path style=" stroke:none;fill-rule:nonzero;fill:rgb(36.470588%,41.568627%,48.235294%);fill-opacity:1;" d="M 8.546875 12.742188 L 16.90625 12.742188 L 16.90625 16.078125 L 8.546875 16.078125 Z M 8.546875 12.742188 "/>
<path style=" stroke:none;fill-rule:nonzero;fill:rgb(100%,100%,100%);fill-opacity:1;" d="M 9.210938 14.011719 L 9.210938 12.09375 L 10.84375 10.773438 L 16.207031 10.746094 L 16.234375 14.039062 Z M 9.210938 14.011719 "/>
<path style=" stroke:none;fill-rule:nonzero;fill:rgb(40%,40%,40%);fill-opacity:1;" d="M 7.414062 13.785156 L 18.117188 13.785156 L 18.117188 17.121094 L 7.414062 17.121094 Z M 7.414062 13.785156 "/>
<path style=" stroke:none;fill-rule:nonzero;fill:rgb(100%,100%,100%);fill-opacity:1;" d="M 8.730469 18.640625 L 17.089844 18.640625 L 17.089844 22.746094 L 8.730469 22.746094 Z M 8.730469 18.640625 "/>
<path style=" stroke:none;fill-rule:nonzero;fill:rgb(36.470588%,41.568627%,48.235294%);fill-opacity:1;" d="M 8.730469 17.871094 L 17.089844 17.871094 L 17.089844 18.714844 L 8.730469 18.714844 Z M 8.730469 17.871094 "/>
<path style=" stroke:none;fill-rule:nonzero;fill:rgb(55.294118%,82.745098%,37.254902%);fill-opacity:1;" d="M 17.449219 14.804688 C 17.449219 15.039062 17.261719 15.234375 17.03125 15.234375 C 16.800781 15.234375 16.613281 15.039062 16.613281 14.804688 C 16.613281 14.566406 16.796875 14.375 17.027344 14.371094 C 17.257812 14.371094 17.445312 14.5625 17.449219 14.800781 "/>
<path style=" stroke:none;fill-rule:nonzero;fill:rgb(92.156863%,92.156863%,92.156863%);fill-opacity:1;" d="M 9.199219 12.105469 L 10.84375 12.105469 L 10.84375 10.765625 Z M 9.199219 12.105469 "/>
<path style=" stroke:none;fill-rule:nonzero;fill:rgb(80%,80%,80%);fill-opacity:1;" d="M 9.253906 19.164062 L 16.585938 19.164062 L 16.585938 19.566406 L 9.253906 19.566406 Z M 9.253906 19.164062 "/>
<path style=" stroke:none;fill-rule:nonzero;fill:rgb(80%,80%,80%);fill-opacity:1;" d="M 9.199219 21.148438 L 16.527344 21.148438 L 16.527344 21.546875 L 9.199219 21.546875 Z M 9.199219 21.148438 "/>
<path style=" stroke:none;fill-rule:nonzero;fill:rgb(80%,80%,80%);fill-opacity:1;" d="M 9.199219 20.109375 L 16.527344 20.109375 L 16.527344 20.511719 L 9.199219 20.511719 Z M 9.199219 20.109375 "/>
<path style="fill:none;stroke-width:9.063828;stroke-linecap:butt;stroke-linejoin:miter;stroke:rgb(100%,100%,100%);stroke-opacity:1;stroke-miterlimit:4;" d="M 198.079427 692.580279 L 198.079427 636.183794 C 198.079427 636.183794 228.922526 630.243039 228.841146 650.506711 C 228.678385 670.770383 198.730469 665.236529 198.730469 665.236529 " transform="matrix(0.048,0,0,0.048,0,-26.513385)"/>
<path style="fill:none;stroke-width:10;stroke-linecap:butt;stroke-linejoin:miter;stroke:rgb(100%,100%,100%);stroke-opacity:1;stroke-miterlimit:4;" d="M 277.42513 638.46244 C 277.42513 638.46244 268.147786 634.230669 259.358724 634.149289 C 250.569661 633.986529 245.035807 639.357622 244.791667 646.925982 C 244.466146 654.494341 248.697917 660.597857 263.834635 662.388221 C 278.971354 664.178586 278.076172 677.36218 276.204427 682.082232 C 274.332682 686.720904 265.54362 691.115435 256.591797 689.894732 C 247.558594 688.755409 240.152995 684.686398 240.152995 684.686398 " transform="matrix(0.048,0,0,0.048,0,-26.513385)"/>
</g>
</svg>
