<?xml version="1.0" encoding="UTF-8"?>
<svg xmlns="http://www.w3.org/2000/svg" xmlns:xlink="http://www.w3.org/1999/xlink" width="24" height="24" viewBox="0 0 24 24" version="1.1">
<g id="surface1">
<path style=" stroke:none;fill-rule:evenodd;fill:rgb(20%,20%,20%);fill-opacity:1;" d="M 3.027344 7.386719 L 5.582031 9.886719 L 5.5 6.378906 L 3.023438 6.367188 Z M 3.027344 7.386719 "/>
<path style="fill-rule:evenodd;fill:rgb(94.901961%,94.901961%,94.901961%);fill-opacity:1;stroke-width:5.03546;stroke-linecap:butt;stroke-linejoin:miter;stroke:rgb(68.627451%,68.627451%,68.627451%);stroke-opacity:1;stroke-miterlimit:4;" d="M 97.005208 1029.819862 L 433.919271 1028.680539 L 435.139974 664.748247 L 347.086589 575.555539 L 97.005208 575.555539 Z M 97.005208 1029.819862 " transform="matrix(0.048,0,0,0.048,0,-26.513385)"/>
<path style="fill-rule:evenodd;fill:rgb(68.627451%,68.627451%,68.627451%);fill-opacity:1;stroke-width:5.03546;stroke-linecap:butt;stroke-linejoin:miter;stroke:rgb(68.627451%,68.627451%,68.627451%);stroke-opacity:1;stroke-miterlimit:4;" d="M 431.559245 662.957883 L 349.365234 662.306841 L 350.097656 578.566607 Z M 431.559245 662.957883 " transform="matrix(0.048,0,0,0.048,0,-26.513385)"/>
<path style=" stroke:none;fill-rule:nonzero;fill:rgb(30.196078%,30.196078%,30.196078%);fill-opacity:1;" d="M 3.03125 3.351562 L 12.664062 3.351562 L 12.664062 7.398438 L 3.03125 7.398438 Z M 3.03125 3.351562 "/>
<path style=" stroke:none;fill-rule:nonzero;fill:rgb(40%,40%,40%);fill-opacity:1;" d="M 5.5625 15.777344 L 19.835938 15.777344 L 19.835938 16.359375 L 5.5625 16.359375 Z M 5.5625 15.777344 "/>
<path style=" stroke:none;fill-rule:nonzero;fill:rgb(40%,40%,40%);fill-opacity:1;" d="M 5.621094 18.300781 L 19.914062 18.300781 L 19.914062 18.882812 L 5.621094 18.882812 Z M 5.621094 18.300781 "/>
<path style=" stroke:none;fill-rule:nonzero;fill:rgb(40%,40%,40%);fill-opacity:1;" d="M 5.621094 20.902344 L 15.40625 20.902344 L 15.40625 21.484375 L 5.621094 21.484375 Z M 5.621094 20.902344 "/>
<path style=" stroke:none;fill-rule:nonzero;fill:rgb(40%,40%,40%);fill-opacity:1;" d="M 5.46875 10.753906 L 19.742188 10.753906 L 19.742188 11.335938 L 5.46875 11.335938 Z M 5.46875 10.753906 "/>
<path style=" stroke:none;fill-rule:nonzero;fill:rgb(40%,40%,40%);fill-opacity:1;" d="M 5.523438 13.277344 L 19.820312 13.277344 L 19.820312 13.859375 L 5.523438 13.859375 Z M 5.523438 13.277344 "/>
<path style="fill:none;stroke-width:9;stroke-linecap:butt;stroke-linejoin:miter;stroke:rgb(100%,100%,100%);stroke-opacity:1;stroke-miterlimit:4;" d="M 108.561198 632.277544 L 108.886719 686.802284 L 140.625 687.046424 " transform="matrix(0.048,0,0,0.048,0,-26.513385)"/>
<path style="fill:none;stroke-width:9;stroke-linecap:butt;stroke-linejoin:miter;stroke:rgb(100%,100%,100%);stroke-opacity:1;stroke-miterlimit:4;" d="M 166.585286 686.965044 C 154.541016 686.802284 143.229167 674.758013 143.147786 659.458534 C 143.066406 644.159055 155.110677 631.870643 167.236328 632.196164 C 179.443359 632.521685 190.022786 644.159055 190.185547 660.435096 C 190.429688 676.711138 178.548177 687.046424 166.585286 686.965044 Z M 166.585286 686.965044 " transform="matrix(0.048,0,0,0.048,0,-26.513385)"/>
<path style="fill:none;stroke-width:9;stroke-linecap:butt;stroke-linejoin:miter;stroke:rgb(100%,100%,100%);stroke-opacity:1;stroke-miterlimit:4;" d="M 250.651042 642.20593 C 250.651042 642.20593 243.408203 634.55619 227.945964 634.63757 C 212.483724 634.800331 204.345703 650.588091 204.589844 662.957883 C 204.833984 675.246294 215.576172 688.429888 227.783203 689.650591 C 240.071615 690.952674 249.186198 684.523638 249.186198 684.523638 L 248.616536 664.341346 L 231.852214 664.585487 " transform="matrix(0.048,0,0,0.048,0,-26.513385)"/>
</g>
</svg>
