<?xml version="1.0" encoding="UTF-8"?>
<svg xmlns="http://www.w3.org/2000/svg" xmlns:xlink="http://www.w3.org/1999/xlink" width="24" height="24" viewBox="0 0 24 24" version="1.1">
<g id="surface1">
<path style=" stroke:none;fill-rule:evenodd;fill:rgb(0%,0%,0%);fill-opacity:1;" d="M 3.03125 7.414062 L 5.585938 9.914062 L 5.507812 6.40625 L 3.03125 6.394531 Z M 3.03125 7.414062 "/>
<path style="fill-rule:evenodd;fill:rgb(94.901961%,94.901961%,94.901961%);fill-opacity:1;stroke-width:5.03546;stroke-linecap:butt;stroke-linejoin:miter;stroke:rgb(68.627451%,68.627451%,68.627451%);stroke-opacity:1;stroke-miterlimit:4;" d="M 96.923828 1029.819862 L 433.75651 1028.680539 L 434.977214 664.748247 L 346.923828 575.555539 L 96.923828 575.555539 Z M 96.923828 1029.819862 " transform="matrix(0.048,0,0,0.048,0,-26.513385)"/>
<path style="fill-rule:evenodd;fill:rgb(68.627451%,68.627451%,68.627451%);fill-opacity:1;stroke-width:5.03546;stroke-linecap:butt;stroke-linejoin:miter;stroke:rgb(68.627451%,68.627451%,68.627451%);stroke-opacity:1;stroke-miterlimit:4;" d="M 431.396484 662.957883 L 349.202474 662.306841 L 350.016276 578.566607 Z M 431.396484 662.957883 " transform="matrix(0.048,0,0,0.048,0,-26.513385)"/>
<path style=" stroke:none;fill-rule:nonzero;fill:rgb(10.196078%,10.196078%,10.196078%);fill-opacity:1;" d="M 3.023438 3.351562 L 14.058594 3.351562 L 14.058594 7.398438 L 3.023438 7.398438 Z M 3.023438 3.351562 "/>
<path style=" stroke:none;fill-rule:nonzero;fill:rgb(100%,100%,100%);fill-opacity:1;" d="M 17.714844 20.148438 C 17.484375 20.09375 17.238281 20.0625 16.992188 20.0625 C 16.566406 20.0625 16.179688 20.136719 15.898438 20.253906 C 15.863281 20.269531 15.84375 20.300781 15.84375 20.339844 C 15.84375 20.351562 15.847656 20.367188 15.851562 20.378906 C 15.882812 20.476562 15.828125 20.582031 15.554688 20.640625 C 15.144531 20.730469 14.886719 21.152344 14.738281 21.292969 C 14.566406 21.457031 14.078125 21.558594 14.148438 21.460938 C 14.207031 21.382812 14.429688 21.144531 14.5625 20.886719 C 14.683594 20.65625 14.789062 20.589844 14.9375 20.367188 C 14.980469 20.304688 15.148438 20.078125 15.195312 19.898438 C 15.25 19.722656 15.230469 19.503906 15.253906 19.410156 C 15.28125 19.28125 15.40625 18.996094 15.414062 18.835938 C 15.421875 18.746094 15.035156 18.964844 14.855469 18.964844 C 14.671875 18.964844 14.496094 18.855469 14.332031 18.851562 C 14.132812 18.839844 14 19.003906 13.820312 18.976562 C 13.714844 18.957031 13.628906 18.867188 13.445312 18.859375 C 13.1875 18.851562 12.871094 19.003906 12.277344 18.984375 C 11.691406 18.96875 11.152344 18.246094 11.078125 18.132812 C 10.992188 18 10.886719 18 10.773438 18.105469 C 10.65625 18.210938 10.515625 18.125 10.476562 18.054688 C 10.398438 17.921875 10.195312 17.53125 9.878906 17.449219 C 9.4375 17.335938 9.214844 17.691406 9.246094 17.976562 C 9.273438 18.261719 9.460938 18.34375 9.546875 18.496094 C 9.632812 18.648438 9.675781 18.75 9.839844 18.816406 C 9.953125 18.863281 9.996094 18.933594 9.964844 19.03125 C 9.933594 19.113281 9.8125 19.132812 9.734375 19.132812 C 9.566406 19.140625 9.449219 19.097656 9.363281 19.042969 C 9.265625 18.980469 9.183594 18.890625 9.097656 18.742188 C 8.996094 18.578125 8.839844 18.503906 8.65625 18.503906 C 8.566406 18.503906 8.484375 18.527344 8.410156 18.566406 C 8.125 18.714844 7.78125 18.804688 7.410156 18.804688 L 6.992188 18.804688 C 7.792969 21.175781 10.035156 22.882812 12.679688 22.882812 C 14.789062 22.882812 16.648438 21.796875 17.714844 20.148438 "/>
<path style=" stroke:none;fill-rule:nonzero;fill:rgb(0%,0%,0%);fill-opacity:1;" d="M 17.714844 20.148438 C 17.484375 20.09375 17.238281 20.0625 16.992188 20.0625 C 16.566406 20.0625 16.179688 20.136719 15.898438 20.253906 C 15.863281 20.269531 15.84375 20.300781 15.84375 20.339844 C 15.84375 20.351562 15.847656 20.367188 15.851562 20.378906 C 15.882812 20.476562 15.828125 20.582031 15.554688 20.640625 C 15.144531 20.730469 14.886719 21.152344 14.738281 21.292969 C 14.566406 21.457031 14.078125 21.558594 14.148438 21.460938 C 14.207031 21.382812 14.429688 21.144531 14.5625 20.886719 C 14.683594 20.65625 14.789062 20.589844 14.9375 20.371094 C 14.980469 20.304688 15.148438 20.078125 15.195312 19.898438 C 15.25 19.722656 15.230469 19.503906 15.253906 19.410156 C 15.28125 19.28125 15.40625 18.996094 15.414062 18.835938 C 15.421875 18.746094 15.035156 18.964844 14.855469 18.964844 C 14.671875 18.964844 14.496094 18.859375 14.332031 18.851562 C 14.132812 18.839844 14 19.003906 13.820312 18.976562 C 13.714844 18.960938 13.628906 18.867188 13.445312 18.859375 C 13.1875 18.851562 12.871094 19.003906 12.277344 18.984375 C 11.691406 18.96875 11.152344 18.25 11.078125 18.132812 C 10.992188 18 10.886719 18 10.773438 18.105469 C 10.65625 18.210938 10.515625 18.128906 10.476562 18.058594 C 10.398438 17.921875 10.195312 17.53125 9.878906 17.449219 C 9.4375 17.335938 9.214844 17.691406 9.246094 17.976562 C 9.273438 18.261719 9.460938 18.34375 9.546875 18.496094 C 9.632812 18.648438 9.675781 18.75 9.839844 18.816406 C 9.953125 18.863281 9.996094 18.9375 9.964844 19.03125 C 9.933594 19.113281 9.8125 19.132812 9.734375 19.136719 C 9.566406 19.140625 9.449219 19.097656 9.363281 19.042969 C 9.265625 18.980469 9.183594 18.890625 9.097656 18.742188 C 8.996094 18.578125 8.839844 18.503906 8.65625 18.503906 C 8.566406 18.503906 8.484375 18.527344 8.410156 18.566406 C 8.125 18.714844 7.78125 18.804688 7.410156 18.804688 L 6.992188 18.804688 C 6.789062 18.203125 6.679688 17.558594 6.679688 16.890625 C 6.679688 13.578125 9.367188 10.890625 12.679688 10.890625 C 15.992188 10.890625 18.679688 13.578125 18.679688 16.890625 C 18.679688 18.089844 18.324219 19.210938 17.714844 20.148438 "/>
<path style=" stroke:none;fill-rule:nonzero;fill:rgb(0%,0%,0%);fill-opacity:1;" d="M 14 19.597656 C 14.03125 19.628906 14.085938 19.730469 14.019531 19.859375 C 13.984375 19.925781 13.945312 19.972656 13.875 20.03125 C 13.789062 20.097656 13.625 20.175781 13.398438 20.03125 C 13.277344 19.953125 13.269531 19.929688 13.101562 19.953125 C 12.980469 19.964844 12.933594 19.84375 12.976562 19.746094 C 13.019531 19.644531 13.195312 19.5625 13.417969 19.691406 C 13.515625 19.75 13.671875 19.875 13.804688 19.765625 C 13.863281 19.71875 13.894531 19.691406 13.972656 19.601562 C 13.976562 19.597656 13.984375 19.59375 13.988281 19.59375 C 13.992188 19.59375 13.996094 19.59375 14 19.597656 "/>
<path style=" stroke:none;fill-rule:nonzero;fill:rgb(94.117647%,22.352941%,8.627451%);fill-opacity:1;" d="M 12.210938 13.746094 C 11.519531 13.796875 11.445312 13.871094 11.316406 14.007812 C 11.136719 14.207031 10.894531 13.757812 10.894531 13.757812 C 10.75 13.726562 10.574219 13.492188 10.667969 13.277344 C 10.761719 13.0625 10.933594 13.125 10.988281 13.191406 C 11.054688 13.273438 11.191406 13.40625 11.375 13.402344 C 11.558594 13.398438 11.765625 13.359375 12.058594 13.359375 C 12.355469 13.359375 12.554688 13.46875 12.566406 13.566406 C 12.578125 13.648438 12.542969 13.722656 12.210938 13.746094 M 12.941406 12.601562 L 12.9375 12.601562 C 12.925781 12.601562 12.917969 12.59375 12.917969 12.585938 C 12.917969 12.578125 12.921875 12.570312 12.929688 12.570312 C 13.0625 12.496094 13.265625 12.441406 13.492188 12.417969 C 13.5625 12.410156 13.628906 12.40625 13.695312 12.40625 L 13.726562 12.40625 C 14.113281 12.414062 14.421875 12.570312 14.417969 12.746094 C 14.410156 12.925781 14.097656 13.066406 13.710938 13.058594 C 13.585938 13.054688 13.46875 13.039062 13.371094 13.007812 C 13.355469 13.003906 13.347656 12.996094 13.347656 12.980469 C 13.347656 12.96875 13.355469 12.960938 13.371094 12.957031 C 13.609375 12.902344 13.773438 12.8125 13.761719 12.726562 C 13.746094 12.613281 13.433594 12.550781 13.058594 12.585938 C 13.019531 12.59375 12.980469 12.597656 12.941406 12.601562 M 16.066406 15.292969 C 16.003906 15.492188 15.921875 15.746094 15.546875 15.941406 C 15.492188 15.96875 15.472656 15.921875 15.496094 15.878906 C 15.636719 15.636719 15.664062 15.578125 15.703125 15.484375 C 15.761719 15.34375 15.792969 15.144531 15.675781 14.734375 C 15.453125 13.921875 14.980469 12.835938 14.640625 12.484375 C 14.308594 12.144531 13.710938 12.050781 13.167969 12.1875 C 12.96875 12.238281 12.582031 12.441406 11.859375 12.277344 C 10.609375 11.996094 10.421875 12.625 10.351562 12.894531 C 10.277344 13.167969 10.105469 13.941406 10.105469 13.941406 C 10.050781 14.257812 9.972656 14.808594 11.914062 15.179688 C 12.820312 15.351562 12.867188 15.582031 12.90625 15.753906 C 12.976562 16.054688 13.09375 16.226562 13.222656 16.3125 C 13.351562 16.398438 13.222656 16.46875 13.078125 16.484375 C 12.695312 16.523438 11.269531 16.117188 10.425781 15.636719 C 9.738281 15.214844 9.726562 14.835938 9.882812 14.515625 C 8.84375 14.402344 8.0625 14.613281 7.921875 15.105469 C 7.675781 15.949219 9.78125 17.394531 12.175781 18.121094 C 14.6875 18.878906 17.269531 18.347656 17.558594 16.769531 C 17.6875 16.054688 17.085938 15.523438 16.066406 15.292969 "/>
<path style="fill:none;stroke-width:10;stroke-linecap:butt;stroke-linejoin:miter;stroke:rgb(100%,100%,100%);stroke-opacity:1;stroke-miterlimit:4;" d="M 128.092448 640.578326 C 128.092448 640.578326 118.815104 636.346555 110.026042 636.183794 C 101.236979 636.102414 95.784505 641.473508 95.458984 649.041867 C 95.133464 656.610227 99.365234 662.713742 114.583333 664.504107 C 129.720052 666.294471 128.82487 679.478065 126.953125 684.198117 C 125.08138 688.836789 116.210938 693.23132 107.259115 692.010617 C 98.307292 690.789914 90.820312 686.802284 90.820312 686.802284 " transform="matrix(0.048,0,0,0.048,0,-26.513385)"/>
<path style="fill:none;stroke-width:9.063828;stroke-linecap:butt;stroke-linejoin:miter;stroke:rgb(100%,100%,100%);stroke-opacity:1;stroke-miterlimit:4;" d="M 143.147786 692.824419 L 143.147786 636.346555 C 143.147786 636.346555 173.990885 630.405799 173.909505 650.669471 C 173.746745 670.933143 143.798828 665.399289 143.798828 665.399289 " transform="matrix(0.048,0,0,0.048,0,-26.513385)"/>
<path style="fill:none;stroke-width:9;stroke-linecap:butt;stroke-linejoin:miter;stroke:rgb(100%,100%,100%);stroke-opacity:1;stroke-miterlimit:4;" d="M 380.226549 670.713348 L 346.209622 670.306447 L 346.616523 618.548634 L 381.040352 618.711395 " transform="matrix(0.048,0,0,0.048,-7.555562,-25.573147)"/>
<path style="fill:none;stroke-width:9;stroke-linecap:butt;stroke-linejoin:miter;stroke:rgb(100%,100%,100%);stroke-opacity:1;stroke-miterlimit:4;" d="M 348.976549 642.393035 L 378.110664 642.474415 " transform="matrix(0.048,0,0,0.048,-7.555562,-25.573147)"/>
<path style="fill:none;stroke-width:9;stroke-linecap:butt;stroke-linejoin:miter;stroke:rgb(100%,100%,100%);stroke-opacity:1;stroke-miterlimit:4;" d="M 277.099609 644.159055 C 277.099609 644.159055 269.44987 637.323117 255.615234 638.38106 C 241.699219 639.520383 233.805339 655.308143 234.53776 667.352414 C 235.270182 679.315305 245.849609 693.556841 259.358724 692.417518 C 273.030599 691.278195 277.099609 686.476763 277.099609 686.476763 " transform="matrix(0.048,0,0,0.048,0,-26.513385)"/>
</g>
</svg>
