<?xml version="1.0" encoding="UTF-8"?>
<svg xmlns="http://www.w3.org/2000/svg" xmlns:xlink="http://www.w3.org/1999/xlink" width="24" height="24" viewBox="0 0 24 24" version="1.1">
<g id="surface1">
<path style=" stroke:none;fill-rule:evenodd;fill:rgb(0%,52.941176%,73.72549%);fill-opacity:1;" d="M 3.03125 7.414062 L 5.585938 9.914062 L 5.507812 6.40625 L 3.03125 6.394531 Z M 3.03125 7.414062 "/>
<path style="fill-rule:evenodd;fill:rgb(94.901961%,94.901961%,94.901961%);fill-opacity:1;stroke-width:5.03546;stroke-linecap:butt;stroke-linejoin:miter;stroke:rgb(68.627451%,68.627451%,68.627451%);stroke-opacity:1;stroke-miterlimit:4;" d="M 96.923828 1029.819862 L 433.75651 1028.680539 L 434.977214 664.748247 L 346.923828 575.555539 L 96.923828 575.555539 Z M 96.923828 1029.819862 " transform="matrix(0.048,0,0,0.048,0,-26.513385)"/>
<path style="fill-rule:evenodd;fill:rgb(68.627451%,68.627451%,68.627451%);fill-opacity:1;stroke-width:5.03546;stroke-linecap:butt;stroke-linejoin:miter;stroke:rgb(68.627451%,68.627451%,68.627451%);stroke-opacity:1;stroke-miterlimit:4;" d="M 431.396484 662.957883 L 349.202474 662.306841 L 350.016276 578.566607 Z M 431.396484 662.957883 " transform="matrix(0.048,0,0,0.048,0,-26.513385)"/>
<path style=" stroke:none;fill-rule:nonzero;fill:rgb(0%,73.333333%,94.901961%);fill-opacity:1;" d="M 3.023438 3.351562 L 13.640625 3.351562 L 13.640625 7.398438 L 3.023438 7.398438 Z M 3.023438 3.351562 "/>
<path style=" stroke:none;fill-rule:nonzero;fill:rgb(97.647059%,97.647059%,97.647059%);fill-opacity:1;" d="M 11.40625 12.164062 C 11.40625 12.578125 11.070312 12.914062 10.65625 12.914062 C 10.242188 12.914062 9.90625 12.578125 9.90625 12.164062 C 9.90625 11.75 10.242188 11.414062 10.65625 11.414062 C 11.070312 11.414062 11.40625 11.75 11.40625 12.164062 M 11.40625 12.164062 "/>
<path style=" stroke:none;fill-rule:nonzero;fill:rgb(0%,73.333333%,94.901961%);fill-opacity:1;" d="M 12.402344 10.671875 C 11.90625 10.671875 11.433594 10.71875 11.019531 10.789062 C 9.792969 11.003906 9.570312 11.449219 9.570312 12.277344 L 9.570312 13.367188 L 12.464844 13.367188 L 12.464844 13.730469 L 8.484375 13.730469 C 7.644531 13.730469 6.90625 14.230469 6.675781 15.183594 C 6.414062 16.273438 6.398438 16.953125 6.675781 18.089844 C 6.882812 18.9375 7.371094 19.539062 8.214844 19.539062 L 9.066406 19.539062 L 9.066406 18.089844 C 9.066406 17.148438 9.894531 16.320312 10.875 16.320312 L 13.90625 16.320312 C 14.710938 16.320312 15.472656 15.664062 15.472656 14.867188 L 15.472656 12.28125 C 15.472656 11.507812 14.691406 10.921875 13.90625 10.792969 C 13.410156 10.710938 12.894531 10.675781 12.398438 10.675781 M 10.835938 11.546875 C 11.136719 11.546875 11.378906 11.792969 11.378906 12.097656 C 11.378906 12.398438 11.136719 12.640625 10.835938 12.640625 C 10.535156 12.640625 10.292969 12.398438 10.292969 12.097656 C 10.292969 11.796875 10.53125 11.546875 10.835938 11.546875 M 10.835938 11.546875 "/>
<path style=" stroke:none;fill-rule:nonzero;fill:rgb(97.647059%,97.647059%,97.647059%);fill-opacity:1;" d="M 14.90625 21.160156 C 14.90625 21.574219 14.570312 21.910156 14.15625 21.910156 C 13.742188 21.910156 13.40625 21.574219 13.40625 21.160156 C 13.40625 20.746094 13.742188 20.410156 14.15625 20.410156 C 14.570312 20.410156 14.90625 20.746094 14.90625 21.160156 M 14.90625 21.160156 "/>
<path style=" stroke:none;fill-rule:nonzero;fill:rgb(100%,83.137255%,16.470588%);fill-opacity:1;" d="M 15.882812 13.730469 L 15.882812 15.003906 C 15.882812 15.984375 15.039062 16.699219 14.074219 16.699219 L 10.898438 16.699219 C 10.109375 16.699219 9.453125 17.488281 9.453125 18.269531 L 9.453125 20.996094 C 9.453125 21.773438 10.132812 22.226562 10.898438 22.449219 C 11.816406 22.714844 12.8125 22.765625 13.910156 22.449219 C 14.636719 22.242188 15.355469 21.820312 15.355469 20.996094 L 15.355469 19.90625 L 12.464844 19.90625 L 12.464844 19.542969 L 16.804688 19.542969 C 17.644531 19.542969 17.960938 18.960938 18.25 18.089844 C 18.554688 17.195312 18.539062 16.332031 18.25 15.183594 C 18.042969 14.355469 17.648438 13.734375 16.804688 13.734375 M 14.09375 20.632812 C 14.390625 20.632812 14.636719 20.875 14.636719 21.175781 C 14.636719 21.476562 14.394531 21.726562 14.09375 21.726562 C 13.792969 21.726562 13.546875 21.476562 13.546875 21.175781 C 13.546875 20.875 13.792969 20.632812 14.09375 20.632812 M 14.09375 20.632812 "/>
<path style="fill:none;stroke-width:9.063828;stroke-linecap:butt;stroke-linejoin:miter;stroke:rgb(100%,100%,100%);stroke-opacity:1;stroke-miterlimit:4;" d="M 162.679036 695.916867 L 162.679036 639.439003 C 162.679036 639.439003 193.440755 633.498247 193.359375 653.761919 C 193.277995 674.025591 163.248698 668.491737 163.248698 668.491737 " transform="matrix(0.048,0,0,0.048,0,-26.513385)"/>
<path style="fill:none;stroke-width:9;stroke-linecap:butt;stroke-linejoin:miter;stroke:rgb(100%,100%,100%);stroke-opacity:1;stroke-miterlimit:4;" d="M 516.192096 313.217184 L 536.618529 342.514059 L 556.312539 313.217184 " transform="matrix(0.048,0,0,0.048,-14.902221,-11.038331)"/>
<path style="fill:none;stroke-width:9;stroke-linecap:butt;stroke-linejoin:miter;stroke:rgb(100%,100%,100%);stroke-opacity:1;stroke-miterlimit:4;" d="M 536.618529 342.432678 L 536.374388 371.241272 " transform="matrix(0.048,0,0,0.048,-14.902221,-11.038331)"/>
</g>
</svg>
