<?xml version="1.0" encoding="UTF-8"?>
<svg xmlns="http://www.w3.org/2000/svg" xmlns:xlink="http://www.w3.org/1999/xlink" width="24" height="24" viewBox="0 0 24 24" version="1.1">
<g id="surface1">
<path style=" stroke:none;fill-rule:evenodd;fill:rgb(78.431373%,6.666667%,0%);fill-opacity:1;" d="M 3.027344 7.386719 L 5.582031 9.886719 L 5.5 6.378906 L 3.023438 6.367188 Z M 3.027344 7.386719 "/>
<path style="fill-rule:evenodd;fill:rgb(94.901961%,94.901961%,94.901961%);fill-opacity:1;stroke-width:5.03546;stroke-linecap:butt;stroke-linejoin:miter;stroke:rgb(68.627451%,68.627451%,68.627451%);stroke-opacity:1;stroke-miterlimit:4;" d="M 97.005208 1029.819862 L 433.919271 1028.680539 L 435.139974 664.748247 L 347.086589 575.555539 L 97.005208 575.555539 Z M 97.005208 1029.819862 " transform="matrix(0.048,0,0,0.048,0,-26.513385)"/>
<path style="fill-rule:evenodd;fill:rgb(68.627451%,68.627451%,68.627451%);fill-opacity:1;stroke-width:5.03546;stroke-linecap:butt;stroke-linejoin:miter;stroke:rgb(68.627451%,68.627451%,68.627451%);stroke-opacity:1;stroke-miterlimit:4;" d="M 431.559245 662.957883 L 349.365234 662.306841 L 350.097656 578.566607 Z M 431.559245 662.957883 " transform="matrix(0.048,0,0,0.048,0,-26.513385)"/>
<path style=" stroke:none;fill-rule:nonzero;fill:rgb(94.117647%,22.352941%,8.627451%);fill-opacity:1;" d="M 3.03125 3.351562 L 13.828125 3.351562 L 13.828125 7.398438 L 3.03125 7.398438 Z M 3.03125 3.351562 "/>
<path style=" stroke:none;fill-rule:evenodd;fill:rgb(100%,40%,0%);fill-opacity:1;" d="M 9.8125 10.828125 L 13.082031 16.824219 L 9.8125 22.820312 L 11.449219 22.820312 L 13.902344 18.320312 L 16.351562 22.820312 L 17.988281 22.820312 L 15.371094 18.023438 L 15.015625 17.367188 L 14.71875 16.824219 L 11.449219 10.828125 Z M 9.8125 10.828125 "/>
<path style=" stroke:none;fill-rule:evenodd;fill:rgb(100%,80%,0%);fill-opacity:1;" d="M 14.511719 14.496094 L 15.105469 15.585938 L 17.585938 15.585938 L 17.585938 14.496094 Z M 15.699219 16.675781 L 16.296875 17.765625 L 17.585938 17.765625 L 17.585938 16.675781 Z M 15.699219 16.675781 "/>
<path style=" stroke:none;fill-rule:evenodd;fill:rgb(94.117647%,22.352941%,8.627451%);fill-opacity:1;" d="M 7.035156 10.832031 L 10.304688 16.828125 L 7.035156 22.828125 L 8.671875 22.828125 L 11.941406 16.828125 L 8.671875 10.832031 Z M 7.035156 10.832031 "/>
<path style="fill:none;stroke-width:9;stroke-linecap:butt;stroke-linejoin:miter;stroke:rgb(100%,100%,100%);stroke-opacity:1;stroke-miterlimit:4;" d="M 311.214391 528.472259 L 311.458531 582.915618 " transform="matrix(0.048,0,0,0.048,-8.903135,-21.413543)"/>
<path style="fill:none;stroke-width:9;stroke-linecap:butt;stroke-linejoin:miter;stroke:rgb(100%,100%,100%);stroke-opacity:1;stroke-miterlimit:4;" d="M 346.28926 527.983978 L 346.533401 582.427337 " transform="matrix(0.048,0,0,0.048,-8.903135,-21.413543)"/>
<path style="fill:none;stroke-width:9;stroke-linecap:butt;stroke-linejoin:miter;stroke:rgb(100%,100%,100%);stroke-opacity:1;stroke-miterlimit:4;" d="M 310.88887 555.083587 L 347.509964 555.083587 " transform="matrix(0.048,0,0,0.048,-8.903135,-21.413543)"/>
<path style="fill:none;stroke-width:10;stroke-linecap:butt;stroke-linejoin:miter;stroke:rgb(100%,100%,100%);stroke-opacity:1;stroke-miterlimit:4;" d="M 215.169271 638.055539 C 215.169271 638.055539 205.891927 633.823768 197.102865 633.742388 C 188.313802 633.579628 182.861328 638.950721 182.535807 646.519081 C 182.210286 654.08744 186.442057 660.190956 201.660156 661.98132 C 216.796875 663.771685 215.901693 676.955279 214.029948 681.675331 C 212.158203 686.314003 203.28776 690.708534 194.335938 689.487831 C 185.384115 688.267128 177.897135 684.279497 177.897135 684.279497 " transform="matrix(0.048,0,0,0.048,0,-26.513385)"/>
</g>
</svg>
