<?xml version="1.0" encoding="UTF-8"?>
<svg xmlns="http://www.w3.org/2000/svg" xmlns:xlink="http://www.w3.org/1999/xlink" width="24" height="24" viewBox="0 0 24 24" version="1.1">
<g id="surface1">
<path style=" stroke:none;fill-rule:evenodd;fill:rgb(10.196078%,10.196078%,10.196078%);fill-opacity:1;" d="M 3.03125 7.414062 L 5.585938 9.914062 L 5.507812 6.40625 L 3.03125 6.394531 Z M 3.03125 7.414062 "/>
<path style="fill-rule:evenodd;fill:rgb(94.901961%,94.901961%,94.901961%);fill-opacity:1;stroke-width:5.03546;stroke-linecap:butt;stroke-linejoin:miter;stroke:rgb(68.627451%,68.627451%,68.627451%);stroke-opacity:1;stroke-miterlimit:4;" d="M 96.923828 1029.819862 L 433.75651 1028.680539 L 434.977214 664.748247 L 346.923828 575.555539 L 96.923828 575.555539 Z M 96.923828 1029.819862 " transform="matrix(0.048,0,0,0.048,0,-26.513385)"/>
<path style="fill-rule:evenodd;fill:rgb(68.627451%,68.627451%,68.627451%);fill-opacity:1;stroke-width:5.03546;stroke-linecap:butt;stroke-linejoin:miter;stroke:rgb(68.627451%,68.627451%,68.627451%);stroke-opacity:1;stroke-miterlimit:4;" d="M 431.396484 662.957883 L 349.202474 662.306841 L 350.016276 578.566607 Z M 431.396484 662.957883 " transform="matrix(0.048,0,0,0.048,0,-26.513385)"/>
<path style=" stroke:none;fill-rule:nonzero;fill:rgb(22.352941%,25.098039%,31.372549%);fill-opacity:1;" d="M 3.023438 3.351562 L 14.210938 3.351562 L 14.210938 7.398438 L 3.023438 7.398438 Z M 3.023438 3.351562 "/>
<path style="fill-rule:nonzero;fill:rgb(98.039216%,92.54902%,42.745098%);fill-opacity:1;stroke-width:13.157895;stroke-linecap:butt;stroke-linejoin:miter;stroke:rgb(22.352941%,25.098039%,31.372549%);stroke-opacity:1;stroke-miterlimit:4;" d="M 380.208333 902.378456 C 380.208333 967.726763 327.229818 1020.786659 261.80013 1020.786659 C 196.451823 1020.786659 143.391927 967.808143 143.391927 902.378456 C 143.391927 836.948768 196.370443 783.970253 261.80013 783.970253 C 327.148438 783.888872 380.208333 836.948768 380.208333 902.297076 " transform="matrix(0.048,0,0,0.048,0,-26.513385)"/>
<path style=" stroke:none;fill-rule:nonzero;fill:rgb(22.352941%,25.098039%,31.372549%);fill-opacity:1;" d="M 10.914062 15.96875 L 13.566406 15.960938 L 13.585938 19.503906 C 13.585938 19.503906 13.578125 19.59375 13.648438 19.671875 C 13.714844 19.746094 13.785156 19.746094 13.785156 19.746094 L 14.375 19.75 L 14.382812 20.179688 L 11.011719 20.171875 L 11.003906 19.734375 L 11.695312 19.738281 C 11.695312 19.738281 11.789062 19.726562 11.84375 19.648438 C 11.898438 19.570312 11.886719 19.484375 11.886719 19.484375 L 11.882812 16.621094 C 11.882812 16.621094 11.894531 16.550781 11.796875 16.46875 C 11.699219 16.382812 11.605469 16.390625 11.605469 16.390625 L 10.917969 16.382812 Z M 10.914062 15.96875 "/>
<path style=" stroke:none;fill-rule:nonzero;fill:rgb(22.352941%,25.098039%,31.372549%);fill-opacity:1;" d="M 13.59375 14.496094 C 13.59375 15.039062 13.160156 15.476562 12.628906 15.476562 C 12.097656 15.480469 11.664062 15.039062 11.664062 14.496094 C 11.664062 13.957031 12.09375 13.515625 12.625 13.511719 C 13.15625 13.511719 13.589844 13.949219 13.59375 14.492188 "/>
<path style="fill:none;stroke-width:9;stroke-linecap:butt;stroke-linejoin:miter;stroke:rgb(100%,100%,100%);stroke-opacity:1;stroke-miterlimit:4;" d="M 122.831805 699.615409 L 122.831805 642.323742 " transform="matrix(0.048,0,0,0.048,0.0923546,-26.589352)"/>
<path style="fill:none;stroke-width:8.670217;stroke-linecap:butt;stroke-linejoin:miter;stroke:rgb(100%,100%,100%);stroke-opacity:1;stroke-miterlimit:4;" d="M 96.220477 642.730643 L 149.361753 642.730643 " transform="matrix(0.048,0,0,0.048,0.0923546,-26.589352)"/>
<path style="fill:none;stroke-width:9;stroke-linecap:butt;stroke-linejoin:miter;stroke:rgb(100%,100%,100%);stroke-opacity:1;stroke-miterlimit:4;" d="M 380.175448 670.707763 L 346.239901 670.300862 L 346.646802 618.62443 L 381.07063 618.70581 " transform="matrix(0.048,0,0,0.048,-8.748421,-25.49866)"/>
<path style="fill:none;stroke-width:9;stroke-linecap:butt;stroke-linejoin:miter;stroke:rgb(100%,100%,100%);stroke-opacity:1;stroke-miterlimit:4;" d="M 348.925448 642.387451 L 378.059562 642.550211 " transform="matrix(0.048,0,0,0.048,-8.748421,-25.49866)"/>
<path style="fill:none;stroke-width:9;stroke-linecap:butt;stroke-linejoin:miter;stroke:rgb(100%,100%,100%);stroke-opacity:1;stroke-miterlimit:4;" d="M 42.430913 990.866462 L 81.737553 1049.216072 " transform="matrix(0.048,0,0,0.048,8.107847,-43.596746)"/>
<path style="fill:none;stroke-width:9;stroke-linecap:butt;stroke-linejoin:miter;stroke:rgb(100%,100%,100%);stroke-opacity:1;stroke-miterlimit:4;" d="M 80.191329 990.866462 L 40.803309 1049.216072 " transform="matrix(0.048,0,0,0.048,8.107847,-43.596746)"/>
<path style="fill:none;stroke-width:9;stroke-linecap:butt;stroke-linejoin:miter;stroke:rgb(100%,100%,100%);stroke-opacity:1;stroke-miterlimit:4;" d="M 133.332327 354.150827 L 133.332327 304.67166 " transform="matrix(0.048,0,0,0.048,6.310986,-10.112521)"/>
<path style=" stroke:none;fill-rule:nonzero;fill:rgb(100%,100%,100%);fill-opacity:1;" d="M 12.503906 3.898438 L 12.929688 3.898438 L 12.929688 4.3125 L 12.503906 4.3125 Z M 12.503906 3.898438 "/>
</g>
</svg>
