<?xml version="1.0" encoding="UTF-8"?>
<svg xmlns="http://www.w3.org/2000/svg" xmlns:xlink="http://www.w3.org/1999/xlink" width="24" height="24" viewBox="0 0 24 24" version="1.1">
<g id="surface1">
<path style=" stroke:none;fill-rule:evenodd;fill:rgb(10.588235%,14.901961%,19.215686%);fill-opacity:1;" d="M 3.027344 7.386719 L 5.582031 9.886719 L 5.5 6.378906 L 3.023438 6.367188 Z M 3.027344 7.386719 "/>
<path style="fill-rule:evenodd;fill:rgb(94.901961%,94.901961%,94.901961%);fill-opacity:1;stroke-width:5.03546;stroke-linecap:butt;stroke-linejoin:miter;stroke:rgb(68.627451%,68.627451%,68.627451%);stroke-opacity:1;stroke-miterlimit:4;" d="M 97.005208 1029.819862 L 433.919271 1028.680539 L 435.139974 664.748247 L 347.086589 575.555539 L 97.005208 575.555539 Z M 97.005208 1029.819862 " transform="matrix(0.048,0,0,0.048,0,-26.513385)"/>
<path style="fill-rule:evenodd;fill:rgb(68.627451%,68.627451%,68.627451%);fill-opacity:1;stroke-width:5.03546;stroke-linecap:butt;stroke-linejoin:miter;stroke:rgb(68.627451%,68.627451%,68.627451%);stroke-opacity:1;stroke-miterlimit:4;" d="M 431.559245 662.957883 L 349.365234 662.306841 L 350.097656 578.566607 Z M 431.559245 662.957883 " transform="matrix(0.048,0,0,0.048,0,-26.513385)"/>
<path style=" stroke:none;fill-rule:nonzero;fill:rgb(22.352941%,25.098039%,31.372549%);fill-opacity:1;" d="M 3.03125 3.351562 L 13.828125 3.351562 L 13.828125 7.398438 L 3.03125 7.398438 Z M 3.03125 3.351562 "/>
<path style="fill-rule:nonzero;fill:rgb(98.039216%,92.54902%,42.745098%);fill-opacity:1;stroke-width:15.218686;stroke-linecap:butt;stroke-linejoin:miter;stroke:rgb(22.352941%,25.098039%,31.372549%);stroke-opacity:1;stroke-miterlimit:4;" d="M 760.639682 336.521277 L 909.659169 336.503918 C 916.223289 336.500131 921.519945 341.320787 921.499119 347.194811 L 921.543063 498.574178 C 921.522237 504.448202 916.225108 509.301202 909.660988 509.304988 L 760.696958 509.262789 C 754.073279 509.211119 748.780725 504.505479 748.741992 498.575998 L 748.757607 347.252087 C 748.774331 341.263048 754.075562 336.525064 760.639682 336.521277 Z M 760.639682 336.521277 " transform="matrix(0.0327097,0.0351293,-0.0351293,0.0327097,0,-26.513385)"/>
<path style=" stroke:none;fill-rule:nonzero;fill:rgb(22.352941%,25.098039%,31.372549%);fill-opacity:1;" d="M 12.3125 14.6875 C 11.910156 14.746094 11.6875 15.179688 11.6875 15.179688 L 11.230469 15.820312 L 10.527344 16.199219 C 10.527344 16.199219 10.351562 16.277344 10.40625 16.4375 C 10.464844 16.59375 10.601562 16.554688 10.601562 16.554688 L 11.417969 16.222656 L 11.847656 15.800781 L 12.234375 17.027344 L 11.484375 17.898438 L 11.484375 19.695312 C 11.484375 19.695312 11.515625 19.902344 11.710938 19.898438 C 11.902344 19.898438 11.96875 19.738281 11.96875 19.738281 L 12.054688 18.167969 L 12.636719 17.691406 L 12.804688 17.691406 L 13.015625 18.324219 L 13.742188 19.707031 C 13.742188 19.707031 13.894531 19.871094 14.074219 19.769531 C 14.253906 19.667969 14.226562 19.480469 14.226562 19.480469 L 13.535156 18.167969 L 13.484375 16.8125 L 13.203125 15.523438 L 13.558594 15.628906 L 13.804688 16.425781 C 13.804688 16.425781 13.882812 16.632812 14.050781 16.582031 C 14.21875 16.53125 14.183594 16.328125 14.183594 16.328125 L 13.925781 15.328125 L 12.988281 14.792969 C 12.988281 14.792969 12.710938 14.632812 12.3125 14.6875 Z M 12.3125 14.6875 "/>
<path style=" stroke:none;fill-rule:nonzero;fill:rgb(22.352941%,25.098039%,31.372549%);fill-opacity:1;" d="M 12.882812 13.972656 C 12.882812 14.28125 12.628906 14.53125 12.316406 14.53125 C 12 14.53125 11.746094 14.28125 11.746094 13.972656 C 11.742188 13.664062 11.996094 13.414062 12.3125 13.410156 C 12.625 13.410156 12.882812 13.660156 12.882812 13.96875 "/>
</g>
</svg>
