<?xml version="1.0" encoding="UTF-8"?>
<svg xmlns="http://www.w3.org/2000/svg" xmlns:xlink="http://www.w3.org/1999/xlink" width="24" height="24" viewBox="0 0 24 24" version="1.1">
<g id="surface1">
<path style=" stroke:none;fill-rule:evenodd;fill:rgb(81.568627%,7.058824%,0%);fill-opacity:1;" d="M 3.027344 7.386719 L 5.582031 9.886719 L 5.5 6.378906 L 3.023438 6.367188 Z M 3.027344 7.386719 "/>
<path style="fill-rule:evenodd;fill:rgb(94.901961%,94.901961%,94.901961%);fill-opacity:1;stroke-width:5.03546;stroke-linecap:butt;stroke-linejoin:miter;stroke:rgb(68.627451%,68.627451%,68.627451%);stroke-opacity:1;stroke-miterlimit:4;" d="M 97.005208 1029.819862 L 433.919271 1028.680539 L 435.139974 664.748247 L 347.086589 575.555539 L 97.005208 575.555539 Z M 97.005208 1029.819862 " transform="matrix(0.048,0,0,0.048,0,-26.513385)"/>
<path style="fill-rule:evenodd;fill:rgb(68.627451%,68.627451%,68.627451%);fill-opacity:1;stroke-width:5.03546;stroke-linecap:butt;stroke-linejoin:miter;stroke:rgb(68.627451%,68.627451%,68.627451%);stroke-opacity:1;stroke-miterlimit:4;" d="M 431.559245 662.957883 L 349.365234 662.306841 L 350.097656 578.566607 Z M 431.559245 662.957883 " transform="matrix(0.048,0,0,0.048,0,-26.513385)"/>
<path style=" stroke:none;fill-rule:nonzero;fill:rgb(94.117647%,22.352941%,8.627451%);fill-opacity:1;" d="M 3.03125 3.351562 L 13.828125 3.351562 L 13.828125 7.398438 L 3.03125 7.398438 Z M 3.03125 3.351562 "/>
<path style=" stroke:none;fill-rule:nonzero;fill:rgb(80%,80%,80%);fill-opacity:1;" d="M 7.074219 13.101562 L 7.074219 20.324219 C 7.074219 21.644531 8.132812 22.707031 9.453125 22.707031 L 15.839844 22.707031 L 19.035156 19.492188 L 19.035156 13.101562 Z M 7.074219 13.101562 "/>
<path style=" stroke:none;fill-rule:nonzero;fill:rgb(90.196078%,90.196078%,90.196078%);fill-opacity:1;" d="M 9.453125 10.71875 C 9.421875 10.71875 9.394531 10.71875 9.367188 10.71875 C 9.394531 10.71875 9.421875 10.71875 9.453125 10.71875 Z M 16.65625 10.71875 C 16.683594 10.71875 16.714844 10.71875 16.742188 10.71875 C 16.714844 10.71875 16.683594 10.71875 16.65625 10.71875 Z M 7.074219 17.480469 L 7.074219 21.382812 C 7.074219 22.15625 7.773438 22.707031 8.417969 22.707031 L 15.839844 22.707031 L 19.035156 19.492188 L 19.035156 17.480469 Z M 7.074219 17.480469 "/>
<path style=" stroke:none;fill-rule:nonzero;fill:rgb(22.352941%,25.098039%,31.372549%);fill-opacity:1;" d="M 12.773438 20.523438 L 13.40625 20.523438 L 13.417969 15.253906 L 12.261719 15.964844 L 12.261719 16.714844 L 12.761719 16.417969 Z M 12.773438 20.523438 "/>
<path style=" stroke:none;fill-rule:nonzero;fill:rgb(50.196078%,50.196078%,50.196078%);fill-opacity:1;" d="M 16.605469 19.449219 C 16.28125 19.449219 15.824219 19.90625 15.824219 20.226562 L 15.824219 22.71875 L 15.832031 22.71875 L 19.074219 19.449219 Z M 16.605469 19.449219 "/>
<path style=" stroke:none;fill-rule:nonzero;fill:rgb(94.117647%,22.352941%,8.627451%);fill-opacity:1;" d="M 8.433594 10.71875 C 7.117188 10.71875 7.074219 10.710938 7.074219 13.101562 L 19.035156 13.097656 C 19.03125 10.746094 19.054688 10.71875 17.738281 10.71875 Z M 9.09375 11.53125 C 9.300781 11.53125 9.472656 11.699219 9.472656 11.90625 C 9.472656 12.117188 9.300781 12.285156 9.09375 12.285156 C 8.886719 12.285156 8.71875 12.117188 8.71875 11.90625 C 8.71875 11.699219 8.886719 11.53125 9.09375 11.53125 Z M 17.070312 11.535156 C 17.269531 11.535156 17.429688 11.695312 17.429688 11.894531 C 17.429688 12.09375 17.269531 12.253906 17.070312 12.253906 C 16.875 12.253906 16.710938 12.09375 16.710938 11.894531 C 16.710938 11.695312 16.875 11.535156 17.070312 11.535156 Z M 17.070312 11.535156 "/>
</g>
</svg>
