<?xml version="1.0" encoding="UTF-8"?>
<svg xmlns="http://www.w3.org/2000/svg" xmlns:xlink="http://www.w3.org/1999/xlink" width="24" height="24" viewBox="0 0 24 24" version="1.1">
<g id="surface1">
<path style=" stroke:none;fill-rule:evenodd;fill:rgb(8.627451%,31.372549%,8.627451%);fill-opacity:1;" d="M 3.027344 7.386719 L 5.582031 9.886719 L 5.5 6.378906 L 3.023438 6.367188 Z M 3.027344 7.386719 "/>
<path style="fill-rule:evenodd;fill:rgb(94.901961%,94.901961%,94.901961%);fill-opacity:1;stroke-width:5.03546;stroke-linecap:butt;stroke-linejoin:miter;stroke:rgb(68.627451%,68.627451%,68.627451%);stroke-opacity:1;stroke-miterlimit:4;" d="M 97.005208 1029.819862 L 433.919271 1028.680539 L 435.139974 664.748247 L 347.086589 575.555539 L 97.005208 575.555539 Z M 97.005208 1029.819862 " transform="matrix(0.048,0,0,0.048,0,-26.513385)"/>
<path style="fill-rule:evenodd;fill:rgb(68.627451%,68.627451%,68.627451%);fill-opacity:1;stroke-width:5.03546;stroke-linecap:butt;stroke-linejoin:miter;stroke:rgb(68.627451%,68.627451%,68.627451%);stroke-opacity:1;stroke-miterlimit:4;" d="M 431.559245 662.957883 L 349.365234 662.306841 L 350.097656 578.566607 Z M 431.559245 662.957883 " transform="matrix(0.048,0,0,0.048,0,-26.513385)"/>
<path style=" stroke:none;fill-rule:nonzero;fill:rgb(17.254902%,62.745098%,17.254902%);fill-opacity:1;" d="M 3.03125 3.351562 L 13.828125 3.351562 L 13.828125 7.398438 L 3.03125 7.398438 Z M 3.03125 3.351562 "/>
<path style=" stroke:none;fill-rule:nonzero;fill:rgb(17.254902%,62.745098%,17.254902%);fill-opacity:1;" d="M 6.863281 11.917969 L 19.203125 11.917969 L 19.203125 21.789062 L 6.863281 21.789062 Z M 6.863281 11.917969 "/>
<path style=" stroke:none;fill-rule:nonzero;fill:rgb(55.294118%,82.745098%,37.254902%);fill-opacity:1;" d="M 7.207031 12.195312 L 9.792969 12.195312 L 9.792969 13.394531 L 7.207031 13.394531 Z M 7.207031 12.195312 "/>
<path style=" stroke:none;fill-rule:nonzero;fill:rgb(55.294118%,82.745098%,37.254902%);fill-opacity:1;" d="M 10.191406 12.195312 L 12.78125 12.195312 L 12.78125 13.394531 L 10.191406 13.394531 Z M 10.191406 12.195312 "/>
<path style=" stroke:none;fill-rule:nonzero;fill:rgb(55.294118%,82.745098%,37.254902%);fill-opacity:1;" d="M 13.179688 12.195312 L 15.769531 12.195312 L 15.769531 13.394531 L 13.179688 13.394531 Z M 13.179688 12.195312 "/>
<path style=" stroke:none;fill-rule:nonzero;fill:rgb(55.294118%,82.745098%,37.254902%);fill-opacity:1;" d="M 16.167969 12.195312 L 18.757812 12.195312 L 18.757812 13.394531 L 16.167969 13.394531 Z M 16.167969 12.195312 "/>
<path style=" stroke:none;fill-rule:nonzero;fill:rgb(66.666667%,87.058824%,52.941176%);fill-opacity:1;" d="M 7.207031 13.796875 L 9.792969 13.796875 L 9.792969 14.992188 L 7.207031 14.992188 Z M 7.207031 13.796875 "/>
<path style=" stroke:none;fill-rule:nonzero;fill:rgb(66.666667%,87.058824%,52.941176%);fill-opacity:1;" d="M 10.191406 13.796875 L 12.78125 13.796875 L 12.78125 14.992188 L 10.191406 14.992188 Z M 10.191406 13.796875 "/>
<path style=" stroke:none;fill-rule:nonzero;fill:rgb(66.666667%,87.058824%,52.941176%);fill-opacity:1;" d="M 13.179688 13.796875 L 15.769531 13.796875 L 15.769531 14.992188 L 13.179688 14.992188 Z M 13.179688 13.796875 "/>
<path style=" stroke:none;fill-rule:nonzero;fill:rgb(66.666667%,87.058824%,52.941176%);fill-opacity:1;" d="M 16.167969 13.796875 L 18.757812 13.796875 L 18.757812 14.992188 L 16.167969 14.992188 Z M 16.167969 13.796875 "/>
<path style=" stroke:none;fill-rule:nonzero;fill:rgb(66.666667%,87.058824%,52.941176%);fill-opacity:1;" d="M 7.207031 15.382812 L 9.792969 15.382812 L 9.792969 16.582031 L 7.207031 16.582031 Z M 7.207031 15.382812 "/>
<path style=" stroke:none;fill-rule:nonzero;fill:rgb(66.666667%,87.058824%,52.941176%);fill-opacity:1;" d="M 10.191406 15.382812 L 12.78125 15.382812 L 12.78125 16.582031 L 10.191406 16.582031 Z M 10.191406 15.382812 "/>
<path style=" stroke:none;fill-rule:nonzero;fill:rgb(66.666667%,87.058824%,52.941176%);fill-opacity:1;" d="M 13.179688 15.382812 L 15.769531 15.382812 L 15.769531 16.582031 L 13.179688 16.582031 Z M 13.179688 15.382812 "/>
<path style=" stroke:none;fill-rule:nonzero;fill:rgb(66.666667%,87.058824%,52.941176%);fill-opacity:1;" d="M 16.167969 15.382812 L 18.757812 15.382812 L 18.757812 16.582031 L 16.167969 16.582031 Z M 16.167969 15.382812 "/>
<path style=" stroke:none;fill-rule:nonzero;fill:rgb(66.666667%,87.058824%,52.941176%);fill-opacity:1;" d="M 7.207031 16.980469 L 9.792969 16.980469 L 9.792969 18.179688 L 7.207031 18.179688 Z M 7.207031 16.980469 "/>
<path style=" stroke:none;fill-rule:nonzero;fill:rgb(66.666667%,87.058824%,52.941176%);fill-opacity:1;" d="M 10.191406 16.980469 L 12.78125 16.980469 L 12.78125 18.179688 L 10.191406 18.179688 Z M 10.191406 16.980469 "/>
<path style=" stroke:none;fill-rule:nonzero;fill:rgb(66.666667%,87.058824%,52.941176%);fill-opacity:1;" d="M 13.179688 16.980469 L 15.769531 16.980469 L 15.769531 18.179688 L 13.179688 18.179688 Z M 13.179688 16.980469 "/>
<path style=" stroke:none;fill-rule:nonzero;fill:rgb(66.666667%,87.058824%,52.941176%);fill-opacity:1;" d="M 16.167969 16.980469 L 18.757812 16.980469 L 18.757812 18.179688 L 16.167969 18.179688 Z M 16.167969 16.980469 "/>
<path style=" stroke:none;fill-rule:nonzero;fill:rgb(66.666667%,87.058824%,52.941176%);fill-opacity:1;" d="M 7.230469 18.589844 L 9.820312 18.589844 L 9.820312 19.789062 L 7.230469 19.789062 Z M 7.230469 18.589844 "/>
<path style=" stroke:none;fill-rule:nonzero;fill:rgb(66.666667%,87.058824%,52.941176%);fill-opacity:1;" d="M 10.21875 18.589844 L 12.808594 18.589844 L 12.808594 19.789062 L 10.21875 19.789062 Z M 10.21875 18.589844 "/>
<path style=" stroke:none;fill-rule:nonzero;fill:rgb(66.666667%,87.058824%,52.941176%);fill-opacity:1;" d="M 13.207031 18.589844 L 15.796875 18.589844 L 15.796875 19.789062 L 13.207031 19.789062 Z M 13.207031 18.589844 "/>
<path style=" stroke:none;fill-rule:nonzero;fill:rgb(66.666667%,87.058824%,52.941176%);fill-opacity:1;" d="M 16.195312 18.589844 L 18.78125 18.589844 L 18.78125 19.789062 L 16.195312 19.789062 Z M 16.195312 18.589844 "/>
<path style=" stroke:none;fill-rule:nonzero;fill:rgb(66.666667%,87.058824%,52.941176%);fill-opacity:1;" d="M 7.230469 20.191406 L 9.820312 20.191406 L 9.820312 21.386719 L 7.230469 21.386719 Z M 7.230469 20.191406 "/>
<path style=" stroke:none;fill-rule:nonzero;fill:rgb(66.666667%,87.058824%,52.941176%);fill-opacity:1;" d="M 10.21875 20.191406 L 12.808594 20.191406 L 12.808594 21.386719 L 10.21875 21.386719 Z M 10.21875 20.191406 "/>
<path style=" stroke:none;fill-rule:nonzero;fill:rgb(66.666667%,87.058824%,52.941176%);fill-opacity:1;" d="M 13.207031 20.191406 L 15.796875 20.191406 L 15.796875 21.386719 L 13.207031 21.386719 Z M 13.207031 20.191406 "/>
<path style=" stroke:none;fill-rule:nonzero;fill:rgb(66.666667%,87.058824%,52.941176%);fill-opacity:1;" d="M 16.195312 20.191406 L 18.78125 20.191406 L 18.78125 21.386719 L 16.195312 21.386719 Z M 16.195312 20.191406 "/>
<path style=" stroke:none;fill-rule:nonzero;fill:rgb(22.352941%,25.098039%,31.372549%);fill-opacity:1;" d="M 20.0625 18.132812 L 20.0625 22.277344 C 20.0625 22.503906 19.804688 22.6875 19.484375 22.6875 L 13.308594 22.6875 C 12.988281 22.6875 12.726562 22.503906 12.726562 22.277344 L 12.726562 18.132812 C 12.726562 17.90625 12.988281 17.722656 13.308594 17.722656 L 19.484375 17.722656 C 19.804688 17.722656 20.0625 17.90625 20.0625 18.132812 Z M 20.0625 18.132812 "/>
<path style=" stroke:none;fill-rule:nonzero;fill:rgb(100%,100%,100%);fill-opacity:1;" d="M 19.800781 17.960938 C 19.746094 17.925781 19.675781 17.933594 19.675781 17.933594 L 13.117188 17.933594 C 13.117188 17.933594 13.050781 17.929688 13.011719 17.957031 C 12.976562 17.984375 12.972656 18.046875 12.972656 18.046875 L 12.972656 22.359375 C 12.972656 22.359375 12.96875 22.433594 13.003906 22.464844 C 13.039062 22.496094 13.117188 22.492188 13.117188 22.492188 L 19.480469 22.492188 C 19.480469 22.492188 19.65625 22.507812 19.757812 22.425781 C 19.859375 22.34375 19.832031 22.195312 19.832031 22.195312 L 19.84375 18.054688 C 19.84375 18.054688 19.855469 17.996094 19.800781 17.960938 Z M 19.800781 17.960938 "/>
<path style=" stroke:none;fill-rule:nonzero;fill:rgb(100%,80%,0%);fill-opacity:1;" d="M 16.65625 21.710938 L 16.113281 21.710938 C 16.039062 21.710938 15.976562 21.652344 15.976562 21.574219 L 15.976562 19.394531 C 15.976562 19.320312 16.039062 19.257812 16.113281 19.257812 L 16.65625 19.257812 C 16.734375 19.257812 16.792969 19.320312 16.792969 19.394531 L 16.792969 21.574219 C 16.792969 21.652344 16.734375 21.710938 16.65625 21.710938 Z M 16.65625 21.710938 "/>
<path style=" stroke:none;fill-rule:nonzero;fill:rgb(94.117647%,22.352941%,8.627451%);fill-opacity:1;" d="M 15.429688 21.710938 L 14.886719 21.710938 C 14.808594 21.710938 14.75 21.652344 14.75 21.574219 L 14.75 20.074219 C 14.75 20 14.808594 19.9375 14.886719 19.9375 L 15.429688 19.9375 C 15.507812 19.9375 15.566406 20 15.566406 20.074219 L 15.566406 21.574219 C 15.566406 21.652344 15.507812 21.710938 15.429688 21.710938 Z M 15.429688 21.710938 "/>
<path style=" stroke:none;fill-rule:nonzero;fill:rgb(0%,26.666667%,33.333333%);fill-opacity:1;" d="M 14.203125 21.710938 L 13.65625 21.710938 C 13.582031 21.710938 13.523438 21.652344 13.523438 21.574219 L 13.523438 20.757812 C 13.523438 20.683594 13.582031 20.621094 13.65625 20.621094 L 14.203125 20.621094 C 14.28125 20.621094 14.339844 20.683594 14.339844 20.757812 L 14.339844 21.574219 C 14.339844 21.652344 14.28125 21.710938 14.203125 21.710938 Z M 14.203125 21.710938 "/>
<path style=" stroke:none;fill-rule:nonzero;fill:rgb(27.058824%,81.568627%,24.705882%);fill-opacity:1;" d="M 17.886719 21.710938 L 17.339844 21.710938 C 17.265625 21.710938 17.203125 21.652344 17.203125 21.574219 L 17.203125 20.074219 C 17.203125 20 17.265625 19.9375 17.339844 19.9375 L 17.886719 19.9375 C 17.960938 19.9375 18.019531 20 18.019531 20.074219 L 18.019531 21.574219 C 18.019531 21.652344 17.960938 21.710938 17.886719 21.710938 Z M 17.886719 21.710938 "/>
<path style=" stroke:none;fill-rule:nonzero;fill:rgb(0%,73.333333%,94.901961%);fill-opacity:1;" d="M 19.113281 21.710938 L 18.566406 21.710938 C 18.492188 21.710938 18.429688 21.652344 18.429688 21.574219 L 18.429688 18.574219 C 18.429688 18.5 18.492188 18.4375 18.566406 18.4375 L 19.113281 18.4375 C 19.1875 18.4375 19.25 18.5 19.25 18.574219 L 19.25 21.574219 C 19.25 21.652344 19.1875 21.710938 19.113281 21.710938 Z M 19.113281 21.710938 "/>
<path style=" stroke:none;fill-rule:nonzero;fill:rgb(22.352941%,25.098039%,31.372549%);fill-opacity:1;" d="M 19.519531 21.847656 L 13.25 21.847656 C 13.175781 21.847656 13.113281 21.789062 13.113281 21.710938 C 13.113281 21.636719 13.175781 21.574219 13.25 21.574219 L 19.519531 21.574219 C 19.597656 21.574219 19.65625 21.636719 19.65625 21.710938 C 19.65625 21.789062 19.597656 21.847656 19.519531 21.847656 Z M 19.519531 21.847656 "/>
</g>
</svg>
