<?xml version="1.0" encoding="UTF-8"?>
<svg xmlns="http://www.w3.org/2000/svg" xmlns:xlink="http://www.w3.org/1999/xlink" width="24" height="24" viewBox="0 0 24 24" version="1.1">
<g id="surface1">
<path style=" stroke:none;fill-rule:evenodd;fill:rgb(66.666667%,26.666667%,0%);fill-opacity:1;" d="M 3.027344 7.386719 L 5.582031 9.886719 L 5.5 6.378906 L 3.023438 6.367188 Z M 3.027344 7.386719 "/>
<path style="fill-rule:evenodd;fill:rgb(94.901961%,94.901961%,94.901961%);fill-opacity:1;stroke-width:5.03546;stroke-linecap:butt;stroke-linejoin:miter;stroke:rgb(68.627451%,68.627451%,68.627451%);stroke-opacity:1;stroke-miterlimit:4;" d="M 97.005208 1029.819862 L 433.919271 1028.680539 L 435.139974 664.748247 L 347.086589 575.555539 L 97.005208 575.555539 Z M 97.005208 1029.819862 " transform="matrix(0.048,0,0,0.048,0,-26.513385)"/>
<path style="fill-rule:evenodd;fill:rgb(68.627451%,68.627451%,68.627451%);fill-opacity:1;stroke-width:5.03546;stroke-linecap:butt;stroke-linejoin:miter;stroke:rgb(68.627451%,68.627451%,68.627451%);stroke-opacity:1;stroke-miterlimit:4;" d="M 431.559245 662.957883 L 349.365234 662.306841 L 350.097656 578.566607 Z M 431.559245 662.957883 " transform="matrix(0.048,0,0,0.048,0,-26.513385)"/>
<path style=" stroke:none;fill-rule:nonzero;fill:rgb(100%,40%,0%);fill-opacity:1;" d="M 3.03125 3.351562 L 13.828125 3.351562 L 13.828125 7.398438 L 3.03125 7.398438 Z M 3.03125 3.351562 "/>
<path style=" stroke:none;fill-rule:nonzero;fill:rgb(100%,40%,0%);fill-opacity:1;" d="M 7.355469 11.777344 L 17.613281 11.777344 L 17.613281 12.367188 L 7.355469 12.367188 Z M 7.355469 11.777344 "/>
<path style=" stroke:none;fill-rule:nonzero;fill:rgb(100%,40%,0%);fill-opacity:1;" d="M 8.863281 13.011719 L 15.945312 13.011719 L 15.945312 13.601562 L 8.863281 13.601562 Z M 8.863281 13.011719 "/>
<path style=" stroke:none;fill-rule:nonzero;fill:rgb(100%,40%,0%);fill-opacity:1;" d="M 7.769531 15.546875 L 11.238281 15.546875 L 11.238281 16.136719 L 7.769531 16.136719 Z M 7.769531 15.546875 "/>
<path style=" stroke:none;fill-rule:nonzero;fill:rgb(100%,40%,0%);fill-opacity:1;" d="M 6.679688 15.546875 L 7.289062 15.546875 L 7.289062 16.136719 L 6.679688 16.136719 Z M 6.679688 15.546875 "/>
<path style=" stroke:none;fill-rule:nonzero;fill:rgb(100%,40%,0%);fill-opacity:1;" d="M 7.742188 16.542969 L 11.210938 16.542969 L 11.210938 17.132812 L 7.742188 17.132812 Z M 7.742188 16.542969 "/>
<path style=" stroke:none;fill-rule:nonzero;fill:rgb(100%,40%,0%);fill-opacity:1;" d="M 6.648438 16.542969 L 7.257812 16.542969 L 7.257812 17.132812 L 6.648438 17.132812 Z M 6.648438 16.542969 "/>
<path style=" stroke:none;fill-rule:nonzero;fill:rgb(100%,40%,0%);fill-opacity:1;" d="M 7.742188 17.5625 L 11.210938 17.5625 L 11.210938 18.152344 L 7.742188 18.152344 Z M 7.742188 17.5625 "/>
<path style=" stroke:none;fill-rule:nonzero;fill:rgb(100%,40%,0%);fill-opacity:1;" d="M 6.648438 17.5625 L 7.257812 17.5625 L 7.257812 18.152344 L 6.648438 18.152344 Z M 6.648438 17.5625 "/>
<path style=" stroke:none;fill-rule:nonzero;fill:rgb(100%,40%,0%);fill-opacity:1;" d="M 7.742188 18.644531 L 11.210938 18.644531 L 11.210938 19.234375 L 7.742188 19.234375 Z M 7.742188 18.644531 "/>
<path style=" stroke:none;fill-rule:nonzero;fill:rgb(100%,40%,0%);fill-opacity:1;" d="M 6.648438 18.644531 L 7.257812 18.644531 L 7.257812 19.234375 L 6.648438 19.234375 Z M 6.648438 18.644531 "/>
<path style=" stroke:none;fill-rule:nonzero;fill:rgb(100%,100%,100%);fill-opacity:1;" d="M 12.792969 15.035156 L 18.25 15.035156 L 18.25 19.570312 L 12.792969 19.570312 Z M 12.792969 15.035156 "/>
<path style=" stroke:none;fill-rule:nonzero;fill:rgb(100%,80%,0%);fill-opacity:1;" d="M 15.71875 19.375 L 15.289062 19.375 C 15.226562 19.375 15.179688 19.320312 15.179688 19.253906 L 15.179688 17.371094 C 15.179688 17.308594 15.226562 17.253906 15.289062 17.253906 L 15.71875 17.253906 C 15.777344 17.253906 15.828125 17.308594 15.828125 17.371094 L 15.828125 19.253906 C 15.828125 19.320312 15.777344 19.375 15.71875 19.375 Z M 15.71875 19.375 "/>
<path style=" stroke:none;fill-rule:nonzero;fill:rgb(94.117647%,22.352941%,8.627451%);fill-opacity:1;" d="M 14.746094 19.375 L 14.316406 19.375 C 14.257812 19.375 14.207031 19.320312 14.207031 19.253906 L 14.207031 17.960938 C 14.207031 17.894531 14.257812 17.84375 14.316406 17.84375 L 14.746094 17.84375 C 14.808594 17.84375 14.855469 17.894531 14.855469 17.960938 L 14.855469 19.253906 C 14.855469 19.320312 14.808594 19.375 14.746094 19.375 Z M 14.746094 19.375 "/>
<path style=" stroke:none;fill-rule:nonzero;fill:rgb(0%,26.666667%,33.333333%);fill-opacity:1;" d="M 13.777344 19.375 L 13.34375 19.375 C 13.285156 19.375 13.238281 19.320312 13.238281 19.253906 L 13.238281 18.550781 C 13.238281 18.484375 13.285156 18.429688 13.34375 18.429688 L 13.777344 18.429688 C 13.835938 18.429688 13.882812 18.484375 13.882812 18.550781 L 13.882812 19.253906 C 13.882812 19.320312 13.835938 19.375 13.777344 19.375 Z M 13.777344 19.375 "/>
<path style=" stroke:none;fill-rule:nonzero;fill:rgb(27.058824%,81.568627%,24.705882%);fill-opacity:1;" d="M 16.691406 19.375 L 16.257812 19.375 C 16.199219 19.375 16.152344 19.320312 16.152344 19.253906 L 16.152344 17.960938 C 16.152344 17.894531 16.199219 17.84375 16.257812 17.84375 L 16.691406 17.84375 C 16.75 17.84375 16.796875 17.894531 16.796875 17.960938 L 16.796875 19.253906 C 16.796875 19.320312 16.75 19.375 16.691406 19.375 Z M 16.691406 19.375 "/>
<path style=" stroke:none;fill-rule:nonzero;fill:rgb(0%,73.333333%,94.901961%);fill-opacity:1;" d="M 17.660156 19.375 L 17.230469 19.375 C 17.167969 19.375 17.121094 19.320312 17.121094 19.253906 L 17.121094 16.664062 C 17.121094 16.601562 17.167969 16.546875 17.230469 16.546875 L 17.660156 16.546875 C 17.71875 16.546875 17.769531 16.601562 17.769531 16.664062 L 17.769531 19.253906 C 17.769531 19.320312 17.71875 19.375 17.660156 19.375 Z M 17.660156 19.375 "/>
<path style=" stroke:none;fill-rule:nonzero;fill:rgb(22.352941%,25.098039%,31.372549%);fill-opacity:1;" d="M 17.984375 19.492188 L 13.019531 19.492188 C 12.960938 19.492188 12.914062 19.4375 12.914062 19.375 C 12.914062 19.308594 12.960938 19.253906 13.019531 19.253906 L 17.984375 19.253906 C 18.042969 19.253906 18.09375 19.308594 18.09375 19.375 C 18.09375 19.4375 18.042969 19.492188 17.984375 19.492188 Z M 17.984375 19.492188 "/>
<path style="fill:none;stroke-width:2.504357;stroke-linecap:butt;stroke-linejoin:miter;stroke:rgb(22.352941%,25.098039%,31.372549%);stroke-opacity:1;stroke-miterlimit:4;" d="M 274.739583 931.593951 L 325.195312 902.052935 L 342.773438 919.305539 L 365.071615 870.640174 " transform="matrix(0.048,0,0,0.048,0,-26.513385)"/>
<path style="fill:none;stroke-width:2.504357;stroke-linecap:butt;stroke-linejoin:miter;stroke:rgb(22.352941%,25.098039%,31.372549%);stroke-opacity:1;stroke-miterlimit:4;" d="M 365.966797 869.907753 L 356.933594 874.220904 " transform="matrix(0.048,0,0,0.048,0,-26.513385)"/>
<path style="fill:none;stroke-width:2.504357;stroke-linecap:butt;stroke-linejoin:miter;stroke:rgb(22.352941%,25.098039%,31.372549%);stroke-opacity:1;stroke-miterlimit:4;" d="M 368.408203 879.266477 L 364.339193 869.256711 " transform="matrix(0.048,0,0,0.048,0,-26.513385)"/>
<path style=" stroke:none;fill-rule:nonzero;fill:rgb(100%,40%,0%);fill-opacity:1;" d="M 7.527344 22.617188 L 17.789062 22.617188 L 17.789062 22.027344 L 7.527344 22.027344 Z M 7.527344 22.617188 "/>
<path style=" stroke:none;fill-rule:nonzero;fill:rgb(100%,40%,0%);fill-opacity:1;" d="M 9.039062 21.382812 L 16.121094 21.382812 L 16.121094 20.792969 L 9.039062 20.792969 Z M 9.039062 21.382812 "/>
</g>
</svg>
