<?xml version="1.0" encoding="UTF-8"?>
<svg xmlns="http://www.w3.org/2000/svg" xmlns:xlink="http://www.w3.org/1999/xlink" width="24" height="24" viewBox="0 0 24 24" version="1.1">
<g id="surface1">
<path style=" stroke:none;fill-rule:evenodd;fill:rgb(15.686275%,9.019608%,4.313725%);fill-opacity:1;" d="M 3.027344 7.386719 L 5.582031 9.886719 L 5.5 6.378906 L 3.023438 6.367188 Z M 3.027344 7.386719 "/>
<path style="fill-rule:evenodd;fill:rgb(94.901961%,94.901961%,94.901961%);fill-opacity:1;stroke-width:5.03546;stroke-linecap:butt;stroke-linejoin:miter;stroke:rgb(68.627451%,68.627451%,68.627451%);stroke-opacity:1;stroke-miterlimit:4;" d="M 97.005208 1029.819862 L 433.919271 1028.680539 L 435.139974 664.748247 L 347.086589 575.555539 L 97.005208 575.555539 Z M 97.005208 1029.819862 " transform="matrix(0.048,0,0,0.048,0,-26.513385)"/>
<path style="fill-rule:evenodd;fill:rgb(68.627451%,68.627451%,68.627451%);fill-opacity:1;stroke-width:5.03546;stroke-linecap:butt;stroke-linejoin:miter;stroke:rgb(68.627451%,68.627451%,68.627451%);stroke-opacity:1;stroke-miterlimit:4;" d="M 431.559245 662.957883 L 349.365234 662.306841 L 350.097656 578.566607 Z M 431.559245 662.957883 " transform="matrix(0.048,0,0,0.048,0,-26.513385)"/>
<path style=" stroke:none;fill-rule:nonzero;fill:rgb(31.372549%,17.647059%,8.627451%);fill-opacity:1;" d="M 3.03125 3.351562 L 13.148438 3.351562 L 13.148438 7.398438 L 3.03125 7.398438 Z M 3.03125 3.351562 "/>
<path style=" stroke:none;fill-rule:nonzero;fill:rgb(60%,60%,60%);fill-opacity:1;" d="M 17.8125 11.84375 L 18.136719 11.84375 C 18.304688 11.84375 18.4375 11.964844 18.4375 12.117188 L 18.4375 13.5 C 18.4375 13.652344 18.304688 13.773438 18.136719 13.773438 L 17.8125 13.773438 C 17.648438 13.773438 17.511719 13.652344 17.511719 13.5 L 17.511719 12.117188 C 17.511719 11.964844 17.648438 11.84375 17.8125 11.84375 Z M 17.8125 11.84375 "/>
<path style=" stroke:none;fill-rule:nonzero;fill:rgb(60%,60%,60%);fill-opacity:1;" d="M 17.8125 14.210938 L 18.136719 14.210938 C 18.304688 14.210938 18.4375 14.332031 18.4375 14.480469 L 18.4375 15.867188 C 18.4375 16.015625 18.304688 16.136719 18.136719 16.136719 L 17.8125 16.136719 C 17.648438 16.136719 17.511719 16.015625 17.511719 15.867188 L 17.511719 14.480469 C 17.511719 14.332031 17.648438 14.210938 17.8125 14.210938 Z M 17.8125 14.210938 "/>
<path style=" stroke:none;fill-rule:nonzero;fill:rgb(60%,60%,60%);fill-opacity:1;" d="M 17.8125 16.492188 L 18.136719 16.492188 C 18.304688 16.492188 18.4375 16.613281 18.4375 16.765625 L 18.4375 18.148438 C 18.4375 18.300781 18.304688 18.421875 18.136719 18.421875 L 17.8125 18.421875 C 17.648438 18.421875 17.511719 18.300781 17.511719 18.148438 L 17.511719 16.765625 C 17.511719 16.613281 17.648438 16.492188 17.8125 16.492188 Z M 17.8125 16.492188 "/>
<path style=" stroke:none;fill-rule:nonzero;fill:rgb(60%,60%,60%);fill-opacity:1;" d="M 17.8125 18.855469 L 18.136719 18.855469 C 18.304688 18.855469 18.4375 18.976562 18.4375 19.128906 L 18.4375 20.515625 C 18.4375 20.664062 18.304688 20.785156 18.136719 20.785156 L 17.8125 20.785156 C 17.648438 20.785156 17.511719 20.664062 17.511719 20.515625 L 17.511719 19.128906 C 17.511719 18.976562 17.648438 18.855469 17.8125 18.855469 Z M 17.8125 18.855469 "/>
<path style=" stroke:none;fill-rule:nonzero;fill:rgb(31.372549%,17.647059%,8.627451%);fill-opacity:1;" d="M 8.535156 10.671875 L 17.015625 10.671875 C 17.480469 10.671875 17.855469 11.09375 17.855469 11.617188 L 17.855469 21.714844 C 17.855469 22.238281 17.480469 22.664062 17.015625 22.664062 L 8.535156 22.664062 C 8.070312 22.664062 7.695312 22.238281 7.695312 21.714844 L 7.695312 11.617188 C 7.695312 11.09375 8.070312 10.671875 8.535156 10.671875 Z M 8.535156 10.671875 "/>
<path style=" stroke:none;fill-rule:nonzero;fill:rgb(40%,40%,40%);fill-opacity:1;" d="M 10.304688 22.664062 L 8.519531 22.667969 C 8.519531 22.667969 8.226562 22.660156 7.96875 22.417969 C 7.707031 22.179688 7.691406 21.753906 7.691406 21.753906 L 7.699219 11.59375 C 7.699219 11.59375 7.695312 11.230469 7.929688 10.960938 C 8.167969 10.6875 8.578125 10.667969 8.578125 10.667969 L 10.300781 10.667969 Z M 10.304688 22.664062 "/>
<path style=" stroke:none;fill-rule:nonzero;fill:rgb(22.352941%,25.098039%,31.372549%);fill-opacity:1;" d="M 9.433594 12.023438 C 9.433594 12.300781 9.207031 12.523438 8.929688 12.523438 C 8.652344 12.523438 8.429688 12.300781 8.429688 12.023438 C 8.429688 11.746094 8.652344 11.519531 8.929688 11.519531 C 9.207031 11.519531 9.433594 11.746094 9.433594 12.023438 Z M 9.433594 12.023438 "/>
<path style=" stroke:none;fill-rule:nonzero;fill:rgb(80%,80%,80%);fill-opacity:1;" d="M 7.125 12.335938 L 8.949219 12.335938 C 8.949219 12.335938 9.21875 12.3125 9.210938 12.050781 C 9.203125 11.785156 8.933594 11.75 8.933594 11.75 L 7.105469 11.761719 C 7.105469 11.761719 6.867188 11.8125 6.871094 12.0625 C 6.878906 12.308594 7.125 12.335938 7.125 12.335938 Z M 7.125 12.335938 "/>
<path style=" stroke:none;fill-rule:nonzero;fill:rgb(22.352941%,25.098039%,31.372549%);fill-opacity:1;" d="M 9.445312 13.308594 C 9.445312 13.585938 9.21875 13.8125 8.941406 13.8125 C 8.664062 13.8125 8.441406 13.585938 8.441406 13.308594 C 8.441406 13.03125 8.664062 12.808594 8.941406 12.808594 C 9.21875 12.808594 9.445312 13.03125 9.445312 13.308594 Z M 9.445312 13.308594 "/>
<path style=" stroke:none;fill-rule:nonzero;fill:rgb(80%,80%,80%);fill-opacity:1;" d="M 7.136719 13.625 L 8.960938 13.625 C 8.960938 13.625 9.226562 13.601562 9.222656 13.339844 C 9.21875 13.074219 8.945312 13.039062 8.945312 13.039062 L 7.117188 13.050781 C 7.117188 13.050781 6.878906 13.101562 6.882812 13.347656 C 6.890625 13.597656 7.136719 13.625 7.136719 13.625 Z M 7.136719 13.625 "/>
<path style=" stroke:none;fill-rule:nonzero;fill:rgb(22.352941%,25.098039%,31.372549%);fill-opacity:1;" d="M 9.453125 14.585938 C 9.453125 14.867188 9.230469 15.089844 8.953125 15.089844 C 8.675781 15.089844 8.449219 14.867188 8.449219 14.585938 C 8.449219 14.308594 8.675781 14.085938 8.953125 14.085938 C 9.230469 14.085938 9.453125 14.308594 9.453125 14.585938 Z M 9.453125 14.585938 "/>
<path style=" stroke:none;fill-rule:nonzero;fill:rgb(80%,80%,80%);fill-opacity:1;" d="M 7.148438 14.902344 L 8.96875 14.902344 C 8.96875 14.902344 9.238281 14.878906 9.230469 14.613281 C 9.226562 14.351562 8.957031 14.316406 8.957031 14.316406 L 7.125 14.328125 C 7.125 14.328125 6.886719 14.378906 6.894531 14.625 C 6.898438 14.871094 7.148438 14.902344 7.148438 14.902344 Z M 7.148438 14.902344 "/>
<path style=" stroke:none;fill-rule:nonzero;fill:rgb(22.352941%,25.098039%,31.372549%);fill-opacity:1;" d="M 9.464844 15.875 C 9.464844 16.152344 9.242188 16.378906 8.964844 16.378906 C 8.6875 16.378906 8.460938 16.152344 8.460938 15.875 C 8.460938 15.597656 8.6875 15.371094 8.964844 15.371094 C 9.242188 15.371094 9.464844 15.597656 9.464844 15.875 Z M 9.464844 15.875 "/>
<path style=" stroke:none;fill-rule:nonzero;fill:rgb(80%,80%,80%);fill-opacity:1;" d="M 7.160156 16.191406 L 8.980469 16.191406 C 8.980469 16.191406 9.25 16.167969 9.242188 15.902344 C 9.238281 15.640625 8.96875 15.605469 8.96875 15.605469 L 7.136719 15.617188 C 7.136719 15.617188 6.898438 15.667969 6.90625 15.914062 C 6.910156 16.160156 7.160156 16.191406 7.160156 16.191406 Z M 7.160156 16.191406 "/>
<path style=" stroke:none;fill-rule:nonzero;fill:rgb(22.352941%,25.098039%,31.372549%);fill-opacity:1;" d="M 9.460938 17.160156 C 9.460938 17.4375 9.234375 17.664062 8.957031 17.664062 C 8.679688 17.664062 8.453125 17.4375 8.453125 17.160156 C 8.453125 16.882812 8.679688 16.65625 8.957031 16.65625 C 9.234375 16.65625 9.460938 16.882812 9.460938 17.160156 Z M 9.460938 17.160156 "/>
<path style=" stroke:none;fill-rule:nonzero;fill:rgb(80%,80%,80%);fill-opacity:1;" d="M 7.152344 17.476562 L 8.976562 17.476562 C 8.976562 17.476562 9.242188 17.453125 9.238281 17.1875 C 9.230469 16.925781 8.960938 16.890625 8.960938 16.890625 L 7.132812 16.902344 C 7.132812 16.902344 6.894531 16.953125 6.898438 17.199219 C 6.90625 17.445312 7.152344 17.476562 7.152344 17.476562 Z M 7.152344 17.476562 "/>
<path style=" stroke:none;fill-rule:nonzero;fill:rgb(22.352941%,25.098039%,31.372549%);fill-opacity:1;" d="M 9.472656 18.449219 C 9.472656 18.726562 9.246094 18.953125 8.96875 18.953125 C 8.691406 18.953125 8.46875 18.726562 8.46875 18.449219 C 8.46875 18.171875 8.691406 17.945312 8.96875 17.945312 C 9.246094 17.945312 9.472656 18.171875 9.472656 18.449219 Z M 9.472656 18.449219 "/>
<path style=" stroke:none;fill-rule:nonzero;fill:rgb(80%,80%,80%);fill-opacity:1;" d="M 7.164062 18.765625 L 8.988281 18.765625 C 8.988281 18.765625 9.253906 18.742188 9.25 18.476562 C 9.242188 18.210938 8.972656 18.179688 8.972656 18.179688 L 7.144531 18.191406 C 7.144531 18.191406 6.90625 18.242188 6.910156 18.488281 C 6.917969 18.734375 7.164062 18.765625 7.164062 18.765625 Z M 7.164062 18.765625 "/>
<path style=" stroke:none;fill-rule:nonzero;fill:rgb(22.352941%,25.098039%,31.372549%);fill-opacity:1;" d="M 9.480469 19.726562 C 9.480469 20.003906 9.257812 20.230469 8.980469 20.230469 C 8.703125 20.230469 8.476562 20.003906 8.476562 19.726562 C 8.476562 19.449219 8.703125 19.222656 8.980469 19.222656 C 9.257812 19.222656 9.480469 19.449219 9.480469 19.726562 Z M 9.480469 19.726562 "/>
<path style=" stroke:none;fill-rule:nonzero;fill:rgb(80%,80%,80%);fill-opacity:1;" d="M 7.175781 20.039062 L 8.996094 20.039062 C 8.996094 20.039062 9.265625 20.019531 9.257812 19.753906 C 9.253906 19.488281 8.984375 19.457031 8.984375 19.457031 L 7.152344 19.464844 C 7.152344 19.464844 6.914062 19.515625 6.921875 19.765625 C 6.925781 20.011719 7.175781 20.039062 7.175781 20.039062 Z M 7.175781 20.039062 "/>
<path style=" stroke:none;fill-rule:nonzero;fill:rgb(22.352941%,25.098039%,31.372549%);fill-opacity:1;" d="M 9.492188 21.015625 C 9.492188 21.292969 9.269531 21.515625 8.992188 21.515625 C 8.710938 21.515625 8.488281 21.292969 8.488281 21.015625 C 8.488281 20.734375 8.710938 20.511719 8.992188 20.511719 C 9.269531 20.511719 9.492188 20.734375 9.492188 21.015625 Z M 9.492188 21.015625 "/>
<path style=" stroke:none;fill-rule:nonzero;fill:rgb(80%,80%,80%);fill-opacity:1;" d="M 7.1875 21.328125 L 9.007812 21.328125 C 9.007812 21.328125 9.277344 21.304688 9.269531 21.042969 C 9.265625 20.777344 8.996094 20.742188 8.996094 20.742188 L 7.164062 20.753906 C 7.164062 20.753906 6.925781 20.804688 6.933594 21.054688 C 6.9375 21.300781 7.1875 21.328125 7.1875 21.328125 Z M 7.1875 21.328125 "/>
<path style=" stroke:none;fill-rule:nonzero;fill:rgb(100%,100%,100%);fill-opacity:1;" d="M 11.34375 12.3125 L 16.5 12.3125 C 16.667969 12.3125 16.800781 12.433594 16.800781 12.582031 L 16.800781 14.199219 C 16.800781 14.351562 16.667969 14.472656 16.5 14.472656 L 11.34375 14.472656 C 11.175781 14.472656 11.039062 14.351562 11.039062 14.199219 L 11.039062 12.582031 C 11.039062 12.433594 11.175781 12.3125 11.34375 12.3125 Z M 11.34375 12.3125 "/>
</g>
</svg>
