<?xml version="1.0" encoding="UTF-8"?>
<svg xmlns="http://www.w3.org/2000/svg" xmlns:xlink="http://www.w3.org/1999/xlink" width="96" height="96" viewBox="0 0 96 96" version="1.1">
<g id="surface1">
<path style=" stroke:none;fill-rule:nonzero;fill:rgb(100%,100%,100%);fill-opacity:1;" d="M 68.699219 14.757812 L 33.03125 50.230469 C 25.226562 57.992188 21.625 67.074219 24.964844 70.597656 C 28.300781 74.113281 37.273438 70.703125 45.078125 62.941406 L 80.746094 27.472656 C 88.550781 19.707031 92.148438 10.625 88.8125 7.105469 C 85.476562 3.582031 76.503906 7 68.699219 14.757812 Z M 68.699219 14.757812 "/>
<path style=" stroke:none;fill-rule:nonzero;fill:rgb(100%,100%,100%);fill-opacity:1;" d="M 18.296875 14.582031 L 10.929688 22.195312 L 46.464844 49.199219 L 73.699219 84.96875 L 81.316406 77.59375 L 65.476562 30.417969 Z M 18.296875 14.582031 "/>
<path style=" stroke:none;fill-rule:nonzero;fill:rgb(100%,100%,100%);fill-opacity:1;" d="M 37.796875 57.898438 L 10.226562 55.84375 L 6.039062 60.085938 L 23.125 72.742188 L 35.613281 89.796875 L 39.828125 85.574219 Z M 37.796875 57.898438 "/>
</g>
</svg>
