<?xml version="1.0" encoding="UTF-8"?>
<svg xmlns="http://www.w3.org/2000/svg" xmlns:xlink="http://www.w3.org/1999/xlink" width="96" height="96" viewBox="0 0 96 96" version="1.1">
<g id="surface1">
<path style=" stroke:none;fill-rule:nonzero;fill:rgb(74.509804%,74.509804%,74.509804%);fill-opacity:1;" d="M 38.460938 30 C 37.015625 30.265625 35.976562 31.53125 36 33 L 36 48 L 27 48 C 25.917969 47.984375 24.910156 48.554688 24.367188 49.488281 C 23.820312 50.421875 23.820312 51.578125 24.367188 52.511719 C 24.910156 53.445312 25.917969 54.015625 27 54 L 39 54 C 40.65625 54 42 52.65625 42 51 L 42 33 C 42.015625 32.097656 41.625 31.234375 40.933594 30.652344 C 40.242188 30.070312 39.324219 29.828125 38.4375 30 Z M 38.460938 30 "/>
<path style=" stroke:none;fill-rule:nonzero;fill:rgb(74.509804%,74.509804%,74.509804%);fill-opacity:1;" d="M 66 66 L 74.25 66 L 81 72.5625 L 87.5625 66 L 96 66 L 96 74.8125 L 89.4375 81.1875 L 96 87.5625 L 96 96 L 87.375 96 L 81 89.625 L 74.625 96 L 66 96 L 66 87.5625 L 72.375 81.1875 L 66 74.8125 Z M 66 66 "/>
<path style=" stroke:none;fill-rule:nonzero;fill:rgb(74.509804%,74.509804%,74.509804%);fill-opacity:1;" d="M 39 12 C 17.53125 12 0 29.53125 0 51 C 0 72.46875 17.53125 90 39 90 C 46.746094 90 53.910156 87.746094 60 83.8125 L 60 67.875 C 55.074219 74.039062 47.574219 78 39 78 C 24.015625 78 12 65.980469 12 51 C 12 36.015625 24.015625 24 39 24 C 53.980469 24 66 36.015625 66 51 C 66 54.199219 65.316406 57.164062 64.3125 60 L 76.875 60 C 77.5625 57.109375 78 54.09375 78 51 C 78 29.53125 60.46875 12 39 12 Z M 39 12 "/>
<path style=" stroke:none;fill-rule:nonzero;fill:rgb(100%,0%,0%);fill-opacity:1;" d="M 66.222656 91.515625 L 66.222656 87.355469 L 69.367188 84.191406 L 72.507812 81.03125 L 69.367188 77.867188 L 66.222656 74.707031 L 66.222656 65.980469 L 74.136719 65.980469 L 80.847656 72.652344 L 87.683594 65.980469 L 95.917969 65.980469 L 95.917969 74.746094 L 89.410156 81.214844 L 95.917969 87.757812 L 95.917969 95.675781 L 87.191406 95.675781 L 84.03125 92.53125 L 80.867188 89.386719 L 77.707031 92.53125 L 74.542969 95.675781 L 66.222656 95.675781 Z M 66.222656 91.515625 "/>
<path style=" stroke:none;fill-rule:nonzero;fill:rgb(100%,100%,100%);fill-opacity:1;" d="M 34.1875 89.570312 C 19.207031 87.472656 7.015625 77.421875 2.171875 63.171875 C -0.109375 56.46875 -0.292969 46.964844 1.730469 40.148438 C 5.570312 27.191406 15.71875 17.265625 29.046875 13.421875 C 31.839844 12.617188 33.15625 12.5 39.171875 12.515625 C 45.507812 12.53125 46.386719 12.625 49.664062 13.632812 C 53.492188 14.808594 57.972656 16.914062 60.933594 18.921875 C 63.636719 20.753906 68.5 25.554688 70.546875 28.414062 C 72.671875 31.382812 75.617188 37.546875 76.535156 40.964844 C 77.925781 46.132812 78.132812 54.230469 76.992188 58.757812 L 76.710938 59.878906 L 70.609375 59.878906 C 65.34375 59.878906 64.542969 59.792969 64.746094 59.265625 C 64.875 58.929688 65.28125 57.15625 65.652344 55.328125 C 66.777344 49.777344 66.035156 44.9375 63.125 38.835938 C 59.28125 30.78125 51.253906 25.140625 42.207031 24.125 C 33.652344 23.171875 25.871094 25.863281 19.886719 31.84375 C 6.003906 45.730469 10.914062 69.050781 29.242188 76.285156 C 38.707031 80.019531 49.480469 77.941406 57.386719 70.851562 L 59.734375 68.746094 L 59.511719 84.082031 L 56.050781 85.808594 C 49.816406 88.921875 40.722656 90.484375 34.1875 89.570312 Z M 34.1875 89.570312 "/>
<path style=" stroke:none;fill-rule:nonzero;fill:rgb(100%,100%,100%);fill-opacity:1;" d="M 25.121094 53.03125 C 23.898438 52.039062 23.921875 49.800781 25.160156 48.796875 C 25.894531 48.199219 26.878906 48.082031 31.082031 48.082031 L 36.121094 48.082031 L 36.121094 40.023438 C 36.121094 32.476562 36.175781 31.90625 36.953125 31.074219 C 38 29.949219 39.921875 29.914062 41.003906 30.996094 C 41.773438 31.765625 41.816406 32.351562 41.816406 41.980469 C 41.816406 51.605469 41.773438 52.191406 41.003906 52.960938 C 40.253906 53.714844 39.648438 53.777344 33.117188 53.777344 C 26.859375 53.777344 25.9375 53.691406 25.121094 53.03125 Z M 25.121094 53.03125 "/>
</g>
</svg>
