<?xml version="1.0" encoding="UTF-8"?>
<svg xmlns="http://www.w3.org/2000/svg" xmlns:xlink="http://www.w3.org/1999/xlink" width="96" height="96" viewBox="0 0 96 96" version="1.1">
<g id="surface1">
<path style=" stroke:none;fill-rule:nonzero;fill:rgb(74.509804%,74.509804%,74.509804%);fill-opacity:1;" d="M 39 0 C 17.53125 0 0 17.53125 0 39 C 0 60.46875 17.53125 78 39 78 C 40.023438 78 40.996094 77.890625 42 77.8125 L 42 65.625 C 40.996094 65.734375 40.035156 66 39 66 C 24.015625 66 12 53.980469 12 39 C 12 24.015625 24.015625 12 39 12 C 53.980469 12 66 24.015625 66 39 C 66 40.039062 65.734375 41 65.625 42 L 77.8125 42 C 77.890625 41 78 40.023438 78 39 C 78 17.53125 60.46875 0 39 0 Z M 39 0 "/>
<path style=" stroke:none;fill-rule:nonzero;fill:rgb(74.509804%,74.509804%,74.509804%);fill-opacity:1;" d="M 38.460938 18 C 37.015625 18.265625 35.976562 19.53125 36 21 L 36 36 L 27 36 C 25.917969 35.984375 24.910156 36.554688 24.367188 37.488281 C 23.820312 38.421875 23.820312 39.578125 24.367188 40.511719 C 24.910156 41.445312 25.917969 42.015625 27 42 L 39 42 C 40.65625 42 42 40.65625 42 39 L 42 21 C 42.015625 20.097656 41.625 19.234375 40.933594 18.652344 C 40.242188 18.070312 39.324219 17.828125 38.4375 18 Z M 38.460938 18 "/>
<path style=" stroke:none;fill-rule:nonzero;fill:rgb(96.078431%,47.45098%,0%);fill-opacity:1;" d="M 53.28125 48.417969 C 50.324219 48.417969 48.03125 50.695312 48.03125 53.625 L 48.03125 90.800781 C 48.03125 93.726562 50.324219 96.003906 53.28125 96.003906 L 90.78125 96.003906 C 93.734375 96.003906 96.027344 93.726562 96.027344 90.800781 L 96.027344 53.625 C 96.027344 50.695312 93.734375 48.417969 90.78125 48.417969 Z M 66.03125 54.367188 L 78.03125 54.367188 L 78.03125 78.15625 L 66.03125 78.15625 Z M 66.03125 84.109375 L 78.03125 84.109375 L 78.03125 90.054688 L 66.03125 90.054688 Z M 66.03125 84.109375 "/>
<path style=" stroke:none;fill-rule:nonzero;fill:rgb(100%,100%,100%);fill-opacity:1;" d="M 32.460938 77.3125 C 28.746094 76.695312 22.484375 74.339844 18.957031 72.234375 C 15.054688 69.90625 9.367188 64.507812 6.84375 60.742188 C 4.617188 57.414062 2.636719 53.121094 1.460938 49.054688 C 0.652344 46.269531 0.527344 44.925781 0.527344 38.929688 C 0.527344 32.875 0.648438 31.609375 1.480469 28.757812 C 5.222656 15.976562 15.015625 5.867188 27.429688 1.972656 C 48.261719 -4.554688 70.503906 7.539062 76.378906 28.582031 C 77.382812 32.175781 78.09375 38.316406 77.753906 40.453125 L 77.507812 41.980469 L 66.019531 41.980469 L 66 38.21875 C 65.957031 31.078125 63.378906 25.207031 57.878906 19.746094 C 54.074219 15.964844 49.875 13.648438 44.789062 12.523438 C 30.75 9.421875 16.457031 18.199219 12.707031 32.21875 C 11.777344 35.6875 11.757812 42.109375 12.664062 45.640625 C 15.707031 57.476562 26.480469 65.980469 38.433594 65.980469 L 41.816406 65.980469 L 41.816406 77.777344 L 38.257812 77.730469 C 36.300781 77.703125 33.691406 77.515625 32.460938 77.3125 Z M 32.460938 77.3125 "/>
<path style=" stroke:none;fill-rule:nonzero;fill:rgb(100%,100%,100%);fill-opacity:1;" d="M 25.636719 41.480469 C 24.109375 40.742188 23.792969 38.386719 25.035156 36.996094 C 25.578125 36.390625 26.433594 36.285156 30.898438 36.285156 L 36.121094 36.285156 L 36.121094 28.132812 C 36.121094 20.015625 36.125 19.972656 37.121094 18.976562 C 38.339844 17.757812 39.335938 17.714844 40.746094 18.824219 L 41.816406 19.664062 L 41.816406 39.984375 L 40.820312 40.980469 C 39.835938 41.960938 39.703125 41.980469 33.191406 41.953125 C 29.28125 41.9375 26.183594 41.742188 25.636719 41.480469 Z M 25.636719 41.480469 "/>
</g>
</svg>
