<?xml version="1.0" encoding="UTF-8"?>
<svg xmlns="http://www.w3.org/2000/svg" xmlns:xlink="http://www.w3.org/1999/xlink" width="96" height="96" viewBox="0 0 96 96" version="1.1">
<g id="surface1">
<path style=" stroke:none;fill-rule:nonzero;fill:rgb(100%,100%,100%);fill-opacity:1;" d="M 32.820312 0 C 29.867188 0 28.042969 1.367188 26.632812 2.8125 C 25.191406 4.253906 23.992188 6.171875 23.992188 8.992188 L 23.992188 11.992188 L 11.996094 11.992188 L 11.996094 95.992188 L 83.992188 95.992188 L 83.992188 11.992188 L 71.992188 11.992188 L 71.992188 9.371094 C 71.851562 6.785156 70.972656 5.046875 69.554688 3.367188 C 68.214844 1.777344 65.804688 0.191406 62.617188 0.183594 L 62.617188 -0.0078125 L 32.804688 -0.0078125 Z M 36.007812 12 L 60.007812 12 L 60.007812 24 L 72.007812 24 L 72.007812 84 L 24.007812 84 L 24.007812 24 L 36.007812 24 Z M 36.007812 12 "/>
</g>
</svg>
