<?xml version="1.0" encoding="UTF-8"?>
<svg xmlns="http://www.w3.org/2000/svg" xmlns:xlink="http://www.w3.org/1999/xlink" width="96" height="96" viewBox="0 0 96 96" version="1.1">
<g id="surface1">
<path style=" stroke:none;fill-rule:nonzero;fill:rgb(74.509804%,74.509804%,74.509804%);fill-opacity:1;" d="M 30 48 L 30 60 L 66 60 L 66 48 Z M 30 48 "/>
<path style=" stroke:none;fill-rule:nonzero;fill:rgb(74.509804%,74.509804%,74.509804%);fill-opacity:1;" d="M 32.816406 0 C 29.871094 0 28.039062 1.371094 26.628906 2.8125 C 25.210938 4.253906 24 6.171875 24 8.992188 L 24 11.992188 L 12 11.992188 L 12 95.992188 L 84 95.992188 L 84 11.992188 L 72 11.992188 L 72 9.558594 C 71.855469 6.972656 70.976562 5.042969 69.5625 3.367188 C 68.21875 1.78125 65.800781 0.195312 62.625 0.183594 L 62.625 -0.0078125 L 32.8125 -0.0078125 Z M 36 12 L 60 12 L 60 24 L 72 24 L 72 84 L 24 84 L 24 24 L 36 24 Z M 36 12 "/>
<path style=" stroke:none;fill-rule:nonzero;fill:rgb(74.509804%,74.509804%,74.509804%);fill-opacity:1;" d="M 30 66 L 30 78 L 66 78 L 66 66 Z M 30 66 "/>
<path style=" stroke:none;fill-rule:nonzero;fill:rgb(0%,0%,0%);fill-opacity:1;" d="M 12.066406 53.96875 L 12.066406 11.992188 L 24.078125 11.992188 L 24.078125 9.90625 C 24.078125 8.238281 24.125 7.632812 24.320312 6.867188 C 25.082031 3.898438 27.796875 1.140625 30.828125 0.265625 C 31.507812 0.0664062 32.796875 0.046875 47.078125 0.0117188 C 57.753906 -0.0195312 62.585938 0.0117188 62.585938 0.101562 C 62.585938 0.171875 62.78125 0.226562 63.027344 0.226562 C 63.675781 0.226562 65.277344 0.582031 66.0625 0.90625 C 68.125 1.738281 70.007812 3.570312 71 5.6875 C 71.605469 6.980469 71.875 8.265625 71.957031 10.226562 L 72.035156 11.992188 L 84.007812 11.992188 L 84.007812 95.945312 L 12.066406 95.945312 Z M 71.996094 54.03125 L 71.996094 24.003906 L 59.984375 24.003906 L 59.984375 11.992188 L 35.964844 11.992188 L 35.964844 24.003906 L 23.953125 24.003906 L 23.953125 84.058594 L 71.996094 84.058594 Z M 71.996094 54.03125 "/>
<path style=" stroke:none;fill-rule:nonzero;fill:rgb(100%,0%,0%);fill-opacity:1;" d="M 30.019531 53.96875 L 30.019531 48.023438 L 65.929688 48.023438 L 65.929688 59.910156 L 30.019531 59.910156 Z M 30.019531 53.96875 "/>
<path style=" stroke:none;fill-rule:nonzero;fill:rgb(100%,0%,0%);fill-opacity:1;" d="M 30.019531 72.046875 L 30.019531 66.101562 L 65.929688 66.101562 L 65.929688 77.992188 L 30.019531 77.992188 Z M 30.019531 72.046875 "/>
<path style=" stroke:none;fill-rule:nonzero;fill:rgb(100%,100%,100%);fill-opacity:1;" d="M 12.121094 53.980469 L 12.121094 12.285156 L 24.324219 12.285156 L 24.324219 9.832031 C 24.324219 5.933594 25.820312 3.28125 29.207031 1.171875 C 30.59375 0.308594 31.039062 0.28125 45.875 0.148438 C 56.277344 0.0546875 61.898438 0.160156 63.570312 0.484375 C 68.378906 1.40625 70.90625 4.144531 71.640625 9.222656 L 72.082031 12.285156 L 83.714844 12.285156 L 83.714844 95.675781 L 12.121094 95.675781 Z M 72.226562 54.082031 L 72.121094 23.878906 L 60.121094 23.652344 L 60.121094 11.878906 L 35.714844 11.878906 L 35.714844 23.675781 L 23.917969 23.675781 L 23.917969 84.285156 L 72.332031 84.285156 Z M 72.226562 54.082031 "/>
</g>
</svg>
