<?xml version="1.0" encoding="UTF-8"?>
<svg xmlns="http://www.w3.org/2000/svg" xmlns:xlink="http://www.w3.org/1999/xlink" width="96" height="96" viewBox="0 0 96 96" version="1.1">
<g id="surface1">
<path style=" stroke:none;fill-rule:nonzero;fill:rgb(74.509804%,74.509804%,74.509804%);fill-opacity:1;" d="M 30 66 L 30 78 L 66 78 L 66 66 Z M 30 66 "/>
<path style=" stroke:none;fill-rule:nonzero;fill:rgb(74.509804%,74.509804%,74.509804%);fill-opacity:1;" d="M 32.816406 0 C 29.871094 0 28.039062 1.371094 26.628906 2.8125 C 25.214844 4.253906 24.003906 5.976562 24.003906 8.8125 L 24.003906 11.992188 L 12.003906 11.992188 L 12.003906 95.992188 L 84.003906 95.992188 L 84.003906 11.992188 L 72.003906 11.992188 L 72.003906 9.371094 C 71.859375 6.785156 70.980469 5.042969 69.566406 3.367188 C 68.21875 1.78125 65.804688 0.195312 62.628906 0.183594 L 62.628906 -0.0078125 L 32.816406 -0.0078125 Z M 36 12 L 60 12 L 60 24 L 72 24 L 72 84 L 24 84 L 24 24 L 36 24 Z M 36 12 "/>
<path style=" stroke:none;fill-rule:nonzero;fill:rgb(100%,0%,0%);fill-opacity:1;" d="M 30.019531 72.046875 L 30.019531 66.101562 L 65.929688 66.101562 L 65.929688 77.992188 L 30.019531 77.992188 Z M 30.019531 72.046875 "/>
<path style=" stroke:none;fill-rule:nonzero;fill:rgb(0%,0%,0%);fill-opacity:1;" d="M 12.066406 53.96875 L 12.066406 11.992188 L 24.054688 11.992188 L 24.105469 9.546875 C 24.148438 7.460938 24.195312 6.980469 24.429688 6.28125 C 25.085938 4.273438 27.414062 1.703125 29.40625 0.796875 C 31.140625 0.0078125 30.023438 0.0546875 47.078125 0.0117188 C 57.753906 -0.0195312 62.585938 0.0117188 62.585938 0.101562 C 62.585938 0.171875 62.78125 0.226562 63.027344 0.226562 C 63.636719 0.226562 65.222656 0.570312 65.976562 0.863281 C 68.125 1.703125 70.347656 3.90625 71.214844 6.054688 C 71.726562 7.328125 71.886719 8.179688 71.957031 10.105469 L 72.035156 11.992188 L 84.007812 11.992188 L 84.007812 95.945312 L 12.066406 95.945312 Z M 71.996094 54.03125 L 71.996094 24.003906 L 59.984375 24.003906 L 59.984375 11.992188 L 35.964844 11.992188 L 35.964844 24.003906 L 23.953125 24.003906 L 23.953125 84.058594 L 71.996094 84.058594 Z M 71.996094 54.03125 "/>
<path style=" stroke:none;fill-rule:nonzero;fill:rgb(100%,100%,100%);fill-opacity:1;" d="M 12.121094 53.980469 L 12.121094 12.285156 L 24.324219 12.285156 L 24.324219 9.667969 C 24.324219 6.457031 24.679688 5.472656 26.617188 3.332031 C 29.414062 0.234375 28.851562 0.328125 45.679688 0.148438 C 63.027344 -0.03125 65.167969 0.179688 68 2.339844 C 70.195312 4.019531 71.421875 6.429688 71.769531 9.765625 L 72.035156 12.285156 L 83.714844 12.285156 L 83.714844 95.675781 L 12.121094 95.675781 Z M 72.226562 54.082031 L 72.121094 23.878906 L 60.121094 23.652344 L 60.121094 11.878906 L 35.714844 11.878906 L 35.714844 23.675781 L 23.917969 23.675781 L 23.917969 84.285156 L 72.332031 84.285156 Z M 72.226562 54.082031 "/>
</g>
</svg>
