<?xml version="1.0" encoding="UTF-8"?>
<svg xmlns="http://www.w3.org/2000/svg" xmlns:xlink="http://www.w3.org/1999/xlink" width="96" height="96" viewBox="0 0 96 96" version="1.1">
<g id="surface1">
<path style=" stroke:none;fill-rule:nonzero;fill:rgb(80%,0%,0%);fill-opacity:1;" d="M 30 66 L 30 78 L 42 78 L 42 66 Z M 30 66 "/>
<path style=" stroke:none;fill-rule:nonzero;fill:rgb(74.509804%,74.509804%,74.509804%);fill-opacity:1;" d="M 32.820312 0 C 29.875 0 28.042969 1.371094 26.632812 2.8125 C 25.191406 4.253906 23.992188 6.171875 23.992188 8.992188 L 23.992188 11.992188 L 11.996094 11.992188 L 11.996094 95.992188 L 41.992188 95.992188 L 41.992188 83.992188 L 23.992188 83.992188 L 23.992188 23.992188 L 35.992188 23.992188 L 35.992188 11.992188 L 59.992188 11.992188 L 59.992188 23.992188 L 71.992188 23.992188 L 71.992188 41.992188 L 83.992188 41.992188 L 83.992188 11.992188 L 71.992188 11.992188 L 71.992188 9.371094 C 71.851562 6.785156 70.972656 5.042969 69.554688 3.367188 C 68.210938 1.78125 65.792969 0.195312 62.617188 0.183594 L 62.617188 -0.0078125 L 32.804688 -0.0078125 Z M 32.820312 0 "/>
<path style=" stroke:none;fill-rule:nonzero;fill:rgb(96.078431%,47.45098%,0%);fill-opacity:1;" d="M 53.28125 48 C 50.324219 48 48.03125 50.292969 48.03125 53.25 L 48.03125 90.75 C 48.03125 93.707031 50.324219 96 53.28125 96 L 90.78125 96 C 93.734375 96 96.027344 93.707031 96.027344 90.75 L 96.027344 53.25 C 96.027344 50.292969 93.734375 48 90.78125 48 Z M 66.03125 54 L 78.03125 54 L 78.03125 78 L 66.03125 78 Z M 66.03125 84 L 78.03125 84 L 78.03125 90 L 66.03125 90 Z M 66.03125 84 "/>
<path style=" stroke:none;fill-rule:nonzero;fill:rgb(0%,0%,0%);fill-opacity:1;" d="M 12.160156 54.042969 L 12.160156 12.0625 L 24.089844 12.0625 L 24.089844 9.933594 C 24.089844 7.484375 24.46875 5.9375 25.4375 4.414062 C 26.3125 3.035156 28.054688 1.492188 29.515625 0.804688 L 30.710938 0.242188 L 46.222656 0.175781 C 56.21875 0.136719 62.347656 0.195312 63.460938 0.339844 C 66.851562 0.789062 69.496094 2.664062 70.984375 5.6875 C 71.625 6.992188 71.710938 7.390625 71.8125 9.546875 L 71.929688 11.957031 L 77.949219 12.011719 L 83.96875 12.070312 L 83.96875 42.003906 L 72.039062 42.003906 L 72.039062 23.992188 L 60.105469 23.992188 L 60.105469 11.847656 L 36.023438 11.847656 L 36.023438 23.992188 L 23.875 23.992188 L 23.875 84.089844 L 41.882812 84.089844 L 41.882812 96.023438 L 12.160156 96.023438 Z M 12.160156 54.042969 "/>
<path style=" stroke:none;fill-rule:nonzero;fill:rgb(100%,100%,100%);fill-opacity:1;" d="M 12.527344 53.980469 L 12.527344 12.285156 L 24.324219 12.285156 L 24.324219 9.832031 C 24.324219 6.035156 25.398438 3.957031 28.554688 1.648438 L 30.140625 0.488281 L 46.859375 0.492188 C 56.570312 0.492188 64.183594 0.660156 65.019531 0.894531 C 68.398438 1.832031 71.140625 5.058594 71.398438 8.394531 C 71.726562 12.640625 71.136719 12.285156 77.824219 12.285156 L 83.714844 12.285156 L 83.714844 41.980469 L 72.324219 41.980469 L 72.324219 23.675781 L 60.121094 23.675781 L 60.121094 11.457031 L 35.917969 11.675781 L 35.804688 17.664062 L 35.695312 23.652344 L 29.703125 23.765625 L 23.714844 23.878906 L 23.609375 54.082031 L 23.507812 84.285156 L 41.816406 84.285156 L 41.816406 95.675781 L 12.527344 95.675781 Z M 12.527344 53.980469 "/>
</g>
</svg>
