<?xml version="1.0" encoding="UTF-8"?>
<svg xmlns="http://www.w3.org/2000/svg" xmlns:xlink="http://www.w3.org/1999/xlink" width="96" height="96" viewBox="0 0 96 96" version="1.1">
<g id="surface1">
<path style=" stroke:none;fill-rule:nonzero;fill:rgb(93.72549%,16.078431%,16.078431%);fill-opacity:1;" d="M 30 66 L 30 78 L 48 78 L 48 66 Z M 30 66 "/>
<path style=" stroke:none;fill-rule:nonzero;fill:rgb(74.509804%,74.509804%,74.509804%);fill-opacity:1;" d="M 32.820312 0 C 29.875 0 28.042969 1.371094 26.632812 2.8125 C 25.191406 4.253906 23.992188 6.171875 23.992188 8.992188 L 23.992188 11.992188 L 11.996094 11.992188 L 11.996094 95.992188 L 59.992188 95.992188 L 59.992188 83.992188 L 23.992188 83.992188 L 23.992188 23.992188 L 35.992188 23.992188 L 35.992188 11.992188 L 59.992188 11.992188 L 59.992188 23.992188 L 71.992188 23.992188 L 71.992188 41.992188 L 83.992188 41.992188 L 83.992188 11.992188 L 71.992188 11.992188 L 71.992188 9.371094 C 71.851562 6.785156 70.972656 5.042969 69.554688 3.367188 C 68.210938 1.78125 65.792969 0.195312 62.617188 0.183594 L 62.617188 -0.0078125 L 32.804688 -0.0078125 Z M 32.820312 0 "/>
<path style=" stroke:none;fill-rule:nonzero;fill:rgb(74.509804%,74.509804%,74.509804%);fill-opacity:1;" d="M 77.28125 48 C 75.9375 48.144531 74.679688 48.742188 73.71875 49.6875 L 55.71875 67.6875 C 53.945312 69.398438 53.394531 72.019531 54.332031 74.296875 C 55.273438 76.574219 57.511719 78.046875 59.976562 78.007812 L 75.351562 78.007812 L 67.664062 85.691406 C 66.101562 87.230469 65.484375 89.488281 66.046875 91.605469 C 66.609375 93.722656 68.261719 95.375 70.378906 95.9375 C 72.5 96.496094 74.753906 95.882812 76.289062 94.316406 L 94.289062 76.316406 C 96.074219 74.601562 96.617188 71.964844 95.664062 69.683594 C 94.703125 67.398438 92.445312 65.9375 89.96875 66 L 74.59375 66 L 82.28125 58.3125 C 84.21875 56.511719 84.75 53.65625 83.589844 51.285156 C 82.429688 48.90625 79.851562 47.570312 77.242188 47.992188 Z M 77.28125 48 "/>
<path style=" stroke:none;fill-rule:nonzero;fill:rgb(74.509804%,74.509804%,74.509804%);fill-opacity:1;" d="M 90 66 L 96 66 L 96 72 L 90 72 Z M 90 66 "/>
<path style=" stroke:none;fill-rule:nonzero;fill:rgb(74.509804%,74.509804%,74.509804%);fill-opacity:1;" d="M 54 72 L 60 72 L 60 78 L 54 78 Z M 54 72 "/>
<path style=" stroke:none;fill-rule:nonzero;fill:rgb(74.509804%,74.509804%,74.509804%);fill-opacity:1;" d="M 78 48 L 84 48 L 84 54 L 78 54 Z M 78 48 "/>
<path style=" stroke:none;fill-rule:nonzero;fill:rgb(74.509804%,74.509804%,74.509804%);fill-opacity:1;" d="M 66 90 L 72 90 L 72 96 L 66 96 Z M 66 90 "/>
<path style=" stroke:none;fill-rule:nonzero;fill:rgb(74.509804%,74.509804%,74.509804%);fill-opacity:1;" d="M 72.960938 50.640625 L 60.960938 68.640625 L 71.085938 75.390625 L 83.085938 57.390625 Z M 72.960938 50.640625 "/>
<path style=" stroke:none;fill-rule:nonzero;fill:rgb(74.509804%,74.509804%,74.509804%);fill-opacity:1;" d="M 78.960938 68.640625 L 66.960938 86.640625 L 77.085938 93.390625 L 89.085938 75.390625 Z M 78.960938 68.640625 "/>
<path style=" stroke:none;fill-rule:nonzero;fill:rgb(0%,0%,0%);fill-opacity:1;" d="M 12.066406 53.96875 L 12.066406 11.992188 L 24.054688 11.992188 L 24.109375 9.546875 C 24.15625 7.441406 24.203125 6.996094 24.433594 6.359375 C 25.445312 3.542969 28.039062 1.070312 30.828125 0.265625 C 31.507812 0.0664062 32.796875 0.046875 47.078125 0.0117188 C 57.753906 -0.0195312 62.585938 0.0117188 62.585938 0.101562 C 62.585938 0.171875 62.78125 0.226562 63.027344 0.226562 C 63.675781 0.226562 65.277344 0.582031 66.0625 0.90625 C 68.101562 1.730469 69.933594 3.496094 71.007812 5.664062 C 71.617188 6.894531 71.875 8.117188 71.960938 10.167969 L 72.035156 11.992188 L 84.007812 11.992188 L 84.007812 41.957031 L 71.996094 41.957031 L 71.996094 24.003906 L 59.984375 24.003906 L 59.984375 11.992188 L 35.964844 11.992188 L 35.964844 24.003906 L 23.953125 24.003906 L 23.953125 84.058594 L 59.984375 84.058594 L 59.984375 95.945312 L 12.066406 95.945312 Z M 12.066406 53.96875 "/>
<path style=" stroke:none;fill-rule:nonzero;fill:rgb(100%,100%,0%);fill-opacity:1;" d="M 68.457031 95.980469 L 66.09375 95.9375 L 66.015625 92.480469 C 65.921875 88.539062 65.992188 88.078125 66.886719 86.757812 C 67.140625 86.375 68.566406 84.261719 70.046875 82.0625 L 72.742188 78.050781 L 54.078125 77.988281 L 54.011719 74.625 C 53.957031 71.9375 53.980469 71.121094 54.121094 70.570312 C 54.554688 68.886719 54.265625 69.207031 64.683594 58.78125 C 73.746094 49.710938 74.46875 49.019531 75.21875 48.671875 C 76.574219 48.050781 76.976562 48.003906 80.59375 48.015625 C 82.433594 48.027344 83.945312 48.042969 83.957031 48.058594 C 83.96875 48.074219 84.003906 49.703125 84.023438 51.675781 C 84.0625 55.214844 84.0625 55.28125 83.769531 56.003906 C 83.609375 56.40625 82.09375 58.816406 80.398438 61.359375 C 78.707031 63.902344 77.320312 66.011719 77.320312 66.050781 C 77.320312 66.089844 80.429688 66.113281 84.226562 66.101562 C 88.023438 66.089844 92.191406 66.085938 93.492188 66.09375 L 95.855469 66.101562 L 95.941406 69.542969 C 96.019531 72.769531 96.011719 73.035156 95.78125 73.785156 C 95.640625 74.226562 95.359375 74.863281 95.144531 75.203125 C 94.671875 75.960938 76.15625 94.5 75.296875 95.074219 C 73.914062 96 73.382812 96.070312 68.457031 95.980469 Z M 68.457031 95.980469 "/>
<path style=" stroke:none;fill-rule:nonzero;fill:rgb(100%,100%,100%);fill-opacity:1;" d="M 12.121094 53.980469 L 12.121094 12.285156 L 24.324219 12.285156 L 24.324219 9.625 C 24.324219 5.785156 25.757812 3.359375 29.390625 1.050781 C 30.503906 0.34375 31.753906 0.273438 45.855469 0.148438 C 56.269531 0.0546875 61.898438 0.160156 63.570312 0.484375 C 68.378906 1.40625 70.90625 4.144531 71.640625 9.222656 L 72.082031 12.285156 L 83.714844 12.285156 L 83.714844 41.574219 L 72.339844 41.574219 L 72.121094 23.878906 L 60.121094 23.652344 L 60.121094 11.878906 L 35.714844 11.878906 L 35.714844 23.675781 L 23.917969 23.675781 L 23.917969 84.285156 L 59.714844 84.285156 L 59.714844 95.675781 L 12.121094 95.675781 Z M 12.121094 53.980469 "/>
</g>
</svg>
