<?xml version="1.0" encoding="UTF-8"?>
<svg xmlns="http://www.w3.org/2000/svg" xmlns:xlink="http://www.w3.org/1999/xlink" width="96" height="96" viewBox="0 0 96 96" version="1.1">
<g id="surface1">
<path style=" stroke:none;fill-rule:nonzero;fill:rgb(74.509804%,74.509804%,74.509804%);fill-opacity:1;" d="M 30 30 L 30 42 L 66 42 L 66 30 Z M 30 48 L 30 60 L 54 60 L 55.5 59.25 L 66 48.75 L 66 48 Z M 30 66.375 L 30 78 L 48 78 L 48 66.375 Z M 30 66.375 "/>
<path style=" stroke:none;fill-rule:nonzero;fill:rgb(74.509804%,74.509804%,74.509804%);fill-opacity:1;" d="M 32.820312 0 C 29.875 0 28.042969 1.371094 26.632812 2.8125 C 25.191406 4.253906 23.992188 6.171875 23.992188 8.992188 L 23.992188 11.992188 L 11.996094 11.992188 L 11.996094 95.992188 L 59.992188 95.992188 L 59.992188 83.992188 L 23.992188 83.992188 L 23.992188 23.992188 L 35.992188 23.992188 L 35.992188 11.992188 L 59.992188 11.992188 L 59.992188 23.992188 L 71.992188 23.992188 L 71.992188 41.992188 L 83.992188 41.992188 L 83.992188 11.992188 L 71.992188 11.992188 L 71.992188 9.371094 C 71.851562 6.785156 70.972656 5.042969 69.554688 3.367188 C 68.210938 1.78125 65.792969 0.195312 62.617188 0.183594 L 62.617188 -0.0078125 L 32.804688 -0.0078125 Z M 32.820312 0 "/>
<path style=" stroke:none;fill-rule:nonzero;fill:rgb(74.509804%,74.509804%,74.509804%);fill-opacity:1;" d="M 76.5 48 C 75.433594 48.292969 74.449219 48.882812 73.6875 49.6875 L 55.6875 67.5 C 54.273438 68.886719 53.617188 71.1875 54 73.125 L 54 78 L 72.75 78 L 67.6875 85.5 C 66.777344 86.394531 66.21875 87.617188 66 88.875 L 66 96 L 72 96 C 73.582031 96.023438 75.167969 95.21875 76.3125 94.125 L 94.3125 76.125 C 95.414062 74.984375 96.039062 73.585938 96 72 C 96.019531 71.75 96.019531 71.5 96 71.25 L 96 66 L 90.375 66 C 90.25 65.996094 90.125 65.996094 90 66 L 77.25 66 L 82.3125 58.125 C 83.222656 57.230469 83.78125 56.136719 84 54.9375 L 84 48 Z M 76.5 48 "/>
<path style=" stroke:none;fill-rule:nonzero;fill:rgb(0%,0%,0%);fill-opacity:1;" d="M 12.066406 53.96875 L 12.066406 11.992188 L 24.054688 11.992188 L 24.109375 9.546875 C 24.15625 7.441406 24.203125 6.996094 24.433594 6.359375 C 25.445312 3.542969 28.039062 1.070312 30.828125 0.265625 C 31.507812 0.0664062 32.796875 0.046875 47.078125 0.0117188 C 57.753906 -0.0195312 62.585938 0.0117188 62.585938 0.101562 C 62.585938 0.171875 62.78125 0.226562 63.027344 0.226562 C 63.675781 0.226562 65.277344 0.582031 66.0625 0.90625 C 68.101562 1.730469 69.933594 3.496094 71.007812 5.664062 C 71.617188 6.894531 71.875 8.117188 71.960938 10.167969 L 72.035156 11.992188 L 84.007812 11.992188 L 84.007812 41.957031 L 71.996094 41.957031 L 71.996094 24.003906 L 59.984375 24.003906 L 59.984375 11.992188 L 35.964844 11.992188 L 35.964844 24.003906 L 23.953125 24.003906 L 23.953125 84.058594 L 59.984375 84.058594 L 59.984375 95.945312 L 12.066406 95.945312 Z M 12.066406 53.96875 "/>
<path style=" stroke:none;fill-rule:nonzero;fill:rgb(100%,100%,0%);fill-opacity:1;" d="M 66.078125 92.074219 L 66.113281 88.203125 L 66.5625 87.269531 C 66.808594 86.757812 67.175781 86.144531 67.378906 85.90625 C 67.730469 85.503906 72.742188 78.15625 72.742188 78.039062 C 72.742188 78.015625 68.539062 77.992188 63.40625 77.992188 L 54.074219 77.992188 L 54.015625 74.675781 C 53.949219 71.035156 54.03125 70.292969 54.617188 69.074219 C 55.011719 68.265625 56.675781 66.558594 67.375 56 C 74.164062 49.292969 74.625 48.867188 75.480469 48.460938 L 76.386719 48.023438 L 84.007812 48.023438 L 84.003906 51.398438 C 84.003906 54.964844 83.945312 55.472656 83.394531 56.570312 C 83.242188 56.875 82.90625 57.378906 82.652344 57.683594 C 82.019531 58.445312 77.207031 65.945312 77.292969 66.03125 C 77.332031 66.070312 81.527344 66.101562 86.617188 66.101562 L 95.875 66.101562 L 95.917969 68.921875 C 95.96875 72.632812 95.886719 73.480469 95.390625 74.511719 C 95.03125 75.261719 94.199219 76.125 85.199219 85.113281 C 76.753906 93.546875 75.300781 94.949219 74.683594 95.25 C 73.371094 95.886719 72.949219 95.941406 69.359375 95.945312 L 66.039062 95.945312 Z M 66.078125 92.074219 "/>
<path style=" stroke:none;fill-rule:nonzero;fill:rgb(100%,0%,0%);fill-opacity:1;" d="M 30.019531 72.230469 L 30.019531 66.472656 L 47.976562 66.472656 L 47.976562 77.992188 L 30.019531 77.992188 Z M 30.019531 72.230469 "/>
<path style=" stroke:none;fill-rule:nonzero;fill:rgb(100%,0%,0%);fill-opacity:1;" d="M 30.019531 53.96875 L 30.019531 48.023438 L 65.929688 48.023438 L 65.929688 48.367188 C 65.929688 48.648438 65.050781 49.582031 60.636719 53.988281 C 56.519531 58.09375 55.199219 59.339844 54.695312 59.589844 L 54.050781 59.910156 L 30.019531 59.910156 Z M 30.019531 53.96875 "/>
<path style=" stroke:none;fill-rule:nonzero;fill:rgb(100%,0%,0%);fill-opacity:1;" d="M 30.019531 36.015625 L 30.019531 30.070312 L 65.929688 30.070312 L 65.929688 41.957031 L 30.019531 41.957031 Z M 30.019531 36.015625 "/>
<path style=" stroke:none;fill-rule:nonzero;fill:rgb(100%,100%,100%);fill-opacity:1;" d="M 12.121094 53.980469 L 12.121094 12.285156 L 24.324219 12.285156 L 24.324219 9.625 C 24.324219 5.785156 25.757812 3.359375 29.390625 1.050781 C 30.503906 0.34375 31.753906 0.273438 45.855469 0.148438 C 56.269531 0.0546875 61.898438 0.160156 63.570312 0.484375 C 68.378906 1.40625 70.90625 4.144531 71.640625 9.222656 L 72.082031 12.285156 L 83.714844 12.285156 L 83.714844 41.574219 L 72.339844 41.574219 L 72.121094 23.878906 L 60.121094 23.652344 L 60.121094 11.878906 L 35.714844 11.878906 L 35.714844 23.675781 L 23.917969 23.675781 L 23.917969 84.285156 L 59.714844 84.285156 L 59.714844 95.675781 L 12.121094 95.675781 Z M 12.121094 53.980469 "/>
</g>
</svg>
