<?xml version="1.0" encoding="UTF-8"?>
<svg xmlns="http://www.w3.org/2000/svg" xmlns:xlink="http://www.w3.org/1999/xlink" width="96" height="96" viewBox="0 0 96 96" version="1.1">
<g id="surface1">
<path style=" stroke:none;fill-rule:nonzero;fill:rgb(74.509804%,74.509804%,74.509804%);fill-opacity:1;" d="M 32.820312 0 C 29.875 0 28.042969 1.371094 26.632812 2.8125 C 25.191406 4.253906 23.992188 6.171875 23.992188 8.992188 L 23.992188 11.992188 L 11.996094 11.992188 L 11.996094 95.992188 L 59.992188 95.992188 L 59.992188 83.992188 L 23.992188 83.992188 L 23.992188 23.992188 L 35.992188 23.992188 L 35.992188 11.992188 L 59.992188 11.992188 L 59.992188 23.992188 L 71.992188 23.992188 L 71.992188 41.992188 L 83.992188 41.992188 L 83.992188 11.992188 L 71.992188 11.992188 L 71.992188 9.371094 C 71.851562 6.785156 70.972656 5.042969 69.554688 3.367188 C 68.210938 1.78125 65.792969 0.195312 62.617188 0.183594 L 62.617188 -0.0078125 L 32.804688 -0.0078125 Z M 32.820312 0 "/>
<path style=" stroke:none;fill-rule:nonzero;fill:rgb(74.509804%,74.509804%,74.509804%);fill-opacity:1;" d="M 77.28125 48 C 75.9375 48.144531 74.679688 48.742188 73.71875 49.6875 L 55.71875 67.6875 C 53.945312 69.398438 53.394531 72.019531 54.332031 74.296875 C 55.273438 76.574219 57.511719 78.046875 59.976562 78.007812 L 75.351562 78.007812 L 67.664062 85.691406 C 66.101562 87.230469 65.484375 89.488281 66.046875 91.605469 C 66.609375 93.722656 68.261719 95.375 70.378906 95.9375 C 72.5 96.496094 74.753906 95.882812 76.289062 94.316406 L 94.289062 76.316406 C 96.074219 74.601562 96.617188 71.964844 95.664062 69.683594 C 94.703125 67.398438 92.445312 65.9375 89.96875 66 L 74.59375 66 L 82.28125 58.3125 C 84.21875 56.511719 84.75 53.65625 83.589844 51.285156 C 82.429688 48.90625 79.851562 47.570312 77.242188 47.992188 Z M 77.28125 48 "/>
<path style=" stroke:none;fill-rule:nonzero;fill:rgb(74.509804%,74.509804%,74.509804%);fill-opacity:1;" d="M 90 66 L 96 66 L 96 72 L 90 72 Z M 90 66 "/>
<path style=" stroke:none;fill-rule:nonzero;fill:rgb(74.509804%,74.509804%,74.509804%);fill-opacity:1;" d="M 54 72 L 60 72 L 60 78 L 54 78 Z M 54 72 "/>
<path style=" stroke:none;fill-rule:nonzero;fill:rgb(74.509804%,74.509804%,74.509804%);fill-opacity:1;" d="M 78 48 L 84 48 L 84 54 L 78 54 Z M 78 48 "/>
<path style=" stroke:none;fill-rule:nonzero;fill:rgb(74.509804%,74.509804%,74.509804%);fill-opacity:1;" d="M 66 90 L 72 90 L 72 96 L 66 96 Z M 66 90 "/>
<path style=" stroke:none;fill-rule:nonzero;fill:rgb(74.509804%,74.509804%,74.509804%);fill-opacity:1;" d="M 72.960938 50.640625 L 60.960938 68.640625 L 71.085938 75.390625 L 83.085938 57.390625 Z M 72.960938 50.640625 "/>
<path style=" stroke:none;fill-rule:nonzero;fill:rgb(74.509804%,74.509804%,74.509804%);fill-opacity:1;" d="M 78.960938 68.640625 L 66.960938 86.640625 L 77.085938 93.390625 L 89.085938 75.390625 Z M 78.960938 68.640625 "/>
<path style=" stroke:none;fill-rule:nonzero;fill:rgb(0%,0%,0%);fill-opacity:1;" d="M 12.160156 53.988281 L 12.160156 12.117188 L 24.039062 12.117188 L 24.128906 9.4375 C 24.210938 6.949219 24.269531 6.65625 24.917969 5.335938 C 25.742188 3.664062 27.800781 1.613281 29.425781 0.851562 C 30.011719 0.570312 31.128906 0.265625 31.902344 0.164062 C 32.679688 0.0664062 39.746094 -0.0195312 47.609375 -0.0273438 C 63.207031 -0.03125 64.03125 0.0195312 66.613281 1.226562 C 68.28125 2.003906 70.152344 3.933594 71.007812 5.757812 C 71.613281 7.054688 71.710938 7.53125 71.8125 9.621094 L 71.929688 12.007812 L 77.949219 12.0625 L 83.96875 12.125 L 83.96875 41.839844 L 72.039062 41.839844 L 72.039062 23.832031 L 60.105469 23.832031 L 60.105469 11.902344 L 36.023438 11.902344 L 36.023438 23.824219 L 23.984375 23.941406 L 23.984375 84.035156 L 59.886719 84.144531 L 59.886719 95.859375 L 12.160156 95.859375 Z M 12.160156 53.988281 "/>
<path style=" stroke:none;fill-rule:nonzero;fill:rgb(100%,100%,0%);fill-opacity:1;" d="M 68.542969 95.925781 L 66.238281 95.84375 L 66.089844 92.433594 C 65.96875 89.730469 66.003906 88.84375 66.25 88.15625 C 66.417969 87.679688 67.9375 85.246094 69.625 82.75 C 71.308594 80.253906 72.6875 78.125 72.6875 78.019531 C 72.6875 77.914062 69.695312 77.84375 66.015625 77.851562 C 62.347656 77.863281 58.140625 77.871094 56.671875 77.863281 L 53.996094 77.851562 L 54.066406 74 C 54.128906 70.761719 54.203125 70.03125 54.542969 69.390625 C 54.765625 68.972656 59.347656 64.21875 64.726562 58.820312 C 72.785156 50.746094 74.703125 48.929688 75.605469 48.53125 C 76.613281 48.082031 76.984375 48.050781 80.273438 48.097656 C 82.234375 48.125 83.863281 48.167969 83.890625 48.195312 C 83.914062 48.21875 83.96875 49.800781 84.007812 51.710938 C 84.0625 54.367188 84.003906 55.359375 83.765625 55.9375 C 83.59375 56.359375 82.121094 58.703125 80.496094 61.148438 C 78.875 63.59375 77.46875 65.714844 77.378906 65.863281 C 77.25 66.082031 79.113281 66.136719 86.476562 66.128906 C 91.574219 66.125 95.769531 66.152344 95.808594 66.1875 C 95.84375 66.226562 95.902344 67.863281 95.9375 69.828125 C 95.992188 73.152344 95.960938 73.480469 95.503906 74.488281 C 95.109375 75.363281 93.140625 77.449219 85.316406 85.269531 C 74.707031 95.882812 74.71875 95.871094 72.160156 95.960938 C 71.4375 95.988281 69.808594 95.96875 68.542969 95.925781 Z M 68.542969 95.925781 "/>
<path style=" stroke:none;fill-rule:nonzero;fill:rgb(100%,100%,100%);fill-opacity:1;" d="M 12.527344 53.980469 L 12.527344 12.285156 L 24.238281 12.285156 L 24.386719 9.300781 C 24.558594 5.929688 25.617188 3.847656 28.140625 1.921875 C 30.351562 0.234375 33.351562 -0.0117188 49.484375 0.160156 C 62.222656 0.296875 64.183594 0.402344 65.613281 1.035156 C 69.011719 2.527344 71.511719 5.984375 71.511719 9.183594 C 71.511719 12.390625 71.296875 12.285156 77.859375 12.285156 L 83.714844 12.285156 L 83.714844 41.574219 L 72.324219 41.574219 L 72.324219 23.675781 L 60.121094 23.675781 L 60.121094 11.878906 L 35.714844 11.878906 L 35.714844 23.675781 L 23.917969 23.675781 L 23.917969 84.285156 L 59.714844 84.285156 L 59.714844 95.675781 L 12.527344 95.675781 Z M 12.527344 53.980469 "/>
</g>
</svg>
