<?xml version="1.0" encoding="UTF-8"?>
<svg xmlns="http://www.w3.org/2000/svg" xmlns:xlink="http://www.w3.org/1999/xlink" width="96" height="96" viewBox="0 0 96 96" version="1.1">
<g id="surface1">
<path style=" stroke:none;fill-rule:nonzero;fill:rgb(100%,100%,100%);fill-opacity:1;" d="M 45.0625 4 C 40.320312 4.671875 37.84375 9.96875 38.4375 14.375 C 38.46875 19.539062 38.53125 24.710938 38.5625 29.875 C 36.273438 27.523438 33.90625 24.34375 30.203125 24.734375 C 25.523438 24.8125 21.71875 29.796875 23.3125 34.289062 C 24.820312 37.90625 28.132812 40.171875 30.664062 43 C 32.296875 44.640625 33.929688 46.289062 35.5625 47.9375 C 31.914062 51.734375 27.921875 55.273438 24.5 59.234375 C 21.4375 63.554688 24.78125 70.492188 30.125 70.625 C 33.710938 71.28125 36.625 68.195312 38.8125 65.6875 C 38.921875 72.367188 38.664062 79.070312 39.0625 85.734375 C 39.757812 90.1875 44.96875 93.328125 49.085938 91.453125 C 52.703125 89.960938 54.640625 86.304688 57.445312 83.789062 C 61.71875 79.125 66.195312 74.539062 70.289062 69.765625 C 72.59375 66.0625 70.65625 61.367188 67.4375 58.929688 C 63.789062 55.242188 60.148438 51.5625 56.5 47.875 C 60.96875 43.242188 65.632812 38.742188 69.9375 34 C 72.890625 30.164062 70.601562 25.023438 67.109375 22.460938 C 61.484375 16.773438 56.03125 10.90625 50.296875 5.335938 C 48.804688 4.234375 46.890625 3.875 45.0625 4 Z M 45.3125 6.5625 C 49.640625 6.15625 51.59375 10.945312 54.539062 13.234375 C 58.945312 17.859375 63.585938 22.304688 67.867188 27.023438 C 70.195312 30.3125 67.3125 33.609375 64.835938 35.695312 C 60.867188 39.773438 56.859375 43.804688 52.875 47.875 C 57.828125 52.734375 62.6875 57.796875 67.539062 62.695312 C 70.226562 65.78125 67.867188 69.546875 65.21875 71.664062 C 60.15625 77.070312 55.15625 82.460938 50.179688 87.8125 C 48.0625 90.078125 44.132812 89.929688 42.453125 87.179688 C 40.640625 84.03125 41.773438 80.15625 41.40625 76.6875 C 41.398438 72.085938 41.40625 67.46875 41.375 62.875 C 38.648438 59.3125 35.929688 66.289062 33.273438 67.40625 C 30.304688 69.539062 25.921875 66.953125 25.9375 63.375 C 25.882812 59.710938 29.773438 57.914062 31.773438 55.320312 C 34.234375 52.867188 36.679688 50.398438 39.125 47.9375 C 34.945312 43.507812 30.515625 39.3125 26.398438 34.84375 C 23.90625 31.59375 27.335938 26.695312 31.242188 27.351562 C 34.578125 28.28125 36.328125 31.789062 38.9375 33.875 C 39.585938 34.195312 41.171875 36.726562 41.125 35.398438 C 41.148438 27.546875 40.960938 19.6875 41.03125 11.835938 C 41.28125 9.476562 42.75 6.890625 45.3125 6.5625 Z M 48.75 21.1875 C 48.734375 26.8125 48.820312 32.4375 48.8125 38.0625 C 51.585938 35.3125 54.304688 32.507812 57.0625 29.75 C 54.335938 26.851562 51.445312 24.117188 48.75 21.1875 Z M 51.3125 27.5 C 51.75 28.375 54 29.234375 53.078125 30.117188 C 51.859375 31.585938 50.84375 32.554688 51.34375 29.6875 C 51.328125 28.960938 51.3125 28.234375 51.3125 27.5 Z M 49.0625 57.9375 C 49.0625 63.4375 49.0625 68.9375 49.0625 74.4375 C 51.71875 71.617188 54.414062 68.828125 57.0625 66 C 54.390625 63.320312 51.75 60.601562 49.0625 57.9375 Z M 51.6875 64.25 C 52.367188 65.125 54.25 65.96875 52.625 66.890625 C 51.429688 68.8125 51.671875 66.976562 51.6875 65.726562 C 51.6875 65.234375 51.6875 64.742188 51.6875 64.25 Z M 51.6875 64.25 "/>
</g>
</svg>
