<?xml version="1.0" encoding="UTF-8"?>
<svg xmlns="http://www.w3.org/2000/svg" xmlns:xlink="http://www.w3.org/1999/xlink" width="96" height="96" viewBox="0 0 96 96" version="1.1">
<g id="surface1">
<path style=" stroke:none;fill-rule:nonzero;fill:rgb(100%,100%,100%);fill-opacity:1;" d="M 42 12 C 32.132812 12 24 20.132812 24 30 L 24 42 C 24 42 18 42 18 48 L 18 78 L 78 78 L 78 48 C 78 48 78 42 72 42 L 72 30 C 72 20.132812 63.867188 12 54 12 Z M 42 24 L 54 24 C 57.425781 24 60 26.570312 60 30 L 60 42 L 36 42 L 36 30 C 36 26.570312 38.570312 24 42 24 Z M 42 24 "/>
</g>
</svg>
