<?xml version="1.0" encoding="UTF-8"?>
<svg xmlns="http://www.w3.org/2000/svg" xmlns:xlink="http://www.w3.org/1999/xlink" width="96" height="96" viewBox="0 0 96 96" version="1.1">
<g id="surface1">
<path style=" stroke:none;fill-rule:nonzero;fill:rgb(74.509804%,74.509804%,74.509804%);fill-opacity:1;" d="M 30 0 C 20.132812 0 12 8.132812 12 18 L 12 36 L 24 36 L 24 18 C 24 14.570312 26.570312 12 30 12 L 42 12 C 45.429688 12 48 14.570312 48 18 L 48 19.5 C 49.601562 18.605469 51.339844 18 53.25 18 L 60 18 C 60 8.132812 51.867188 0 42 0 Z M 11.625 54 C 8.300781 54 5.234375 56.699219 5.625 60 L 5.625 90 L 65.996094 90 L 65.996094 78 L 53.246094 78 C 47.1875 78 41.996094 72.8125 41.996094 66.75 L 41.996094 54 Z M 11.625 54 "/>
<path style=" stroke:none;fill-rule:nonzero;fill:rgb(96.078431%,47.45098%,0%);fill-opacity:1;" d="M 53.28125 24 C 50.324219 24 48.03125 26.292969 48.03125 29.25 L 48.03125 66.75 C 48.03125 69.707031 50.324219 72 53.28125 72 L 90.78125 72 C 93.734375 72 96.027344 69.707031 96.027344 66.75 L 96.027344 29.25 C 96.027344 26.308594 93.75 24.03125 90.75 24.03125 L 53.25 24.03125 Z M 66.03125 30 L 78.03125 30 L 78.03125 54 L 66.03125 54 Z M 66.03125 60 L 78.03125 60 L 78.03125 66 L 66.03125 66 Z M 66.03125 60 "/>
<path style=" stroke:none;fill-rule:nonzero;fill:rgb(100%,100%,100%);fill-opacity:1;" d="M 12.121094 25.996094 C 12.121094 18.433594 12.269531 15.554688 12.746094 13.722656 C 14.488281 7.035156 20.070312 1.757812 26.75 0.492188 C 30.199219 -0.164062 43.257812 -0.0273438 46.015625 0.691406 C 50.613281 1.886719 54.273438 4.375 56.691406 7.953125 C 58.25 10.257812 59.714844 14.445312 59.714844 16.597656 L 59.714844 17.980469 L 55.429688 17.980469 C 52.640625 17.980469 50.664062 18.179688 49.757812 18.558594 L 48.367188 19.140625 L 48.089844 17.292969 C 47.746094 15.007812 45.976562 12.871094 43.914062 12.257812 C 43 11.988281 39.570312 11.867188 35.03125 11.949219 C 28.3125 12.070312 27.53125 12.15625 26.488281 12.921875 C 24.097656 14.679688 23.921875 15.59375 23.917969 26.21875 L 23.917969 35.878906 L 12.121094 35.878906 Z M 12.121094 25.996094 "/>
<path style=" stroke:none;fill-rule:nonzero;fill:rgb(100%,100%,100%);fill-opacity:1;" d="M 5.703125 73.941406 C 5.8125 58.453125 5.847656 57.863281 6.660156 56.753906 C 8.527344 54.207031 8.699219 54.183594 26.023438 54.183594 L 41.753906 54.183594 L 41.886719 61.808594 C 42.039062 70.449219 42.382812 71.738281 45.320312 74.679688 C 48.261719 77.617188 49.550781 77.960938 58.191406 78.113281 L 65.816406 78.246094 L 65.816406 89.980469 L 5.585938 89.980469 Z M 5.703125 73.941406 "/>
</g>
</svg>
