<?xml version="1.0" encoding="UTF-8"?>
<svg xmlns="http://www.w3.org/2000/svg" xmlns:xlink="http://www.w3.org/1999/xlink" width="96" height="96" viewBox="0 0 96 96" version="1.1">
<g id="surface1">
<path style=" stroke:none;fill-rule:nonzero;fill:rgb(100%,100%,100%);fill-opacity:1;" d="M 42 0 C 32.132812 0 24 8.132812 24 18 L 24 36 L 36 36 L 36 18 C 36 14.570312 38.570312 12 42 12 L 54 12 C 57.425781 12 60 14.570312 60 18 L 60 54 L 18 54 C 14.675781 54 12 56.675781 12 60 L 12 96 L 84 96 L 84 60 C 84 56.675781 81.324219 54 78 54 L 72 54 L 72 18 C 72 8.132812 63.867188 0 54 0 Z M 42 0 "/>
</g>
</svg>
