<?xml version="1.0" encoding="UTF-8"?>
<svg xmlns="http://www.w3.org/2000/svg" xmlns:xlink="http://www.w3.org/1999/xlink" width="96" height="96" viewBox="0 0 96 96" version="1.1">
<g id="surface1">
<path style=" stroke:none;fill-rule:nonzero;fill:rgb(100%,100%,100%);fill-opacity:1;" d="M 3 42 L 15 42 C 16.65625 42 18 43.34375 18 45 L 18 51 C 18 52.65625 16.65625 54 15 54 L 3 54 C 1.34375 54 0 52.65625 0 51 L 0 45 C 0 43.34375 1.34375 42 3 42 Z M 3 42 "/>
<path style=" stroke:none;fill-rule:nonzero;fill:rgb(100%,100%,100%);fill-opacity:1;" d="M 81 42 L 93 42 C 94.65625 42 96 43.34375 96 45 L 96 51 C 96 52.65625 94.65625 54 93 54 L 81 54 C 79.34375 54 78 52.65625 78 51 L 78 45 C 78 43.34375 79.34375 42 81 42 Z M 81 42 "/>
<path style=" stroke:none;fill-rule:nonzero;fill:rgb(100%,100%,100%);fill-opacity:1;" d="M 11.914062 75.578125 L 20.402344 67.09375 C 21.574219 65.921875 23.472656 65.921875 24.644531 67.09375 L 28.886719 71.335938 C 30.058594 72.507812 30.058594 74.40625 28.886719 75.578125 L 20.402344 84.0625 C 19.230469 85.234375 17.328125 85.234375 16.160156 84.0625 L 11.914062 79.820312 C 10.746094 78.648438 10.746094 76.75 11.914062 75.578125 Z M 11.914062 75.578125 "/>
<path style=" stroke:none;fill-rule:nonzero;fill:rgb(100%,100%,100%);fill-opacity:1;" d="M 67.070312 20.425781 L 75.554688 11.941406 C 76.726562 10.769531 78.625 10.769531 79.796875 11.941406 L 84.039062 16.183594 C 85.210938 17.355469 85.210938 19.253906 84.039062 20.425781 L 75.554688 28.910156 C 74.382812 30.082031 72.484375 30.082031 71.3125 28.910156 L 67.070312 24.667969 C 65.898438 23.496094 65.898438 21.597656 67.070312 20.425781 Z M 67.070312 20.425781 "/>
<path style=" stroke:none;fill-rule:nonzero;fill:rgb(100%,100%,100%);fill-opacity:1;" d="M 42 93 L 42 81 C 42 79.34375 43.34375 78 45 78 L 51 78 C 52.65625 78 54 79.34375 54 81 L 54 93 C 54 94.65625 52.65625 96 51 96 L 45 96 C 43.34375 96 42 94.65625 42 93 Z M 42 93 "/>
<path style=" stroke:none;fill-rule:nonzero;fill:rgb(100%,100%,100%);fill-opacity:1;" d="M 42 15 L 42 3 C 42 1.34375 43.34375 0 45 0 L 51 0 C 52.65625 0 54 1.34375 54 3 L 54 15 C 54 16.65625 52.65625 18 51 18 L 45 18 C 43.34375 18 42 16.65625 42 15 Z M 42 15 "/>
<path style=" stroke:none;fill-rule:nonzero;fill:rgb(100%,100%,100%);fill-opacity:1;" d="M 75.554688 84.0625 L 67.070312 75.578125 C 65.898438 74.40625 65.898438 72.507812 67.070312 71.335938 L 71.3125 67.09375 C 72.484375 65.921875 74.382812 65.921875 75.554688 67.09375 L 84.039062 75.578125 C 85.210938 76.75 85.210938 78.648438 84.039062 79.820312 L 79.796875 84.0625 C 78.625 85.234375 76.726562 85.234375 75.554688 84.0625 Z M 75.554688 84.0625 "/>
<path style=" stroke:none;fill-rule:nonzero;fill:rgb(100%,100%,100%);fill-opacity:1;" d="M 20.402344 28.910156 L 11.914062 20.425781 C 10.746094 19.253906 10.746094 17.355469 11.917969 16.183594 L 16.160156 11.941406 C 17.332031 10.769531 19.230469 10.769531 20.402344 11.941406 L 28.886719 20.425781 C 30.058594 21.597656 30.058594 23.496094 28.886719 24.667969 L 24.644531 28.910156 C 23.472656 30.082031 21.574219 30.082031 20.402344 28.910156 Z M 20.402344 28.910156 "/>
<path style=" stroke:none;fill-rule:nonzero;fill:rgb(100%,100%,100%);fill-opacity:1;" d="M 47.933594 24.058594 C 34.75 24.058594 24.058594 34.75 24.058594 47.9375 C 24.058594 61.117188 34.75 71.988281 47.933594 71.988281 C 61.117188 71.988281 71.984375 61.117188 71.984375 47.9375 C 71.984375 34.75 61.117188 24.058594 47.933594 24.058594 Z M 47.933594 35.996094 C 54.632812 35.996094 60.046875 41.238281 60.046875 47.9375 C 60.046875 54.632812 54.632812 60.050781 47.933594 60.050781 C 41.234375 60.050781 35.996094 54.632812 35.996094 47.9375 C 35.996094 41.234375 41.234375 35.996094 47.933594 35.996094 Z M 47.933594 35.996094 "/>
</g>
</svg>
