<?xml version="1.0" encoding="UTF-8"?>
<svg xmlns="http://www.w3.org/2000/svg" xmlns:xlink="http://www.w3.org/1999/xlink" width="96" height="96" viewBox="0 0 96 96" version="1.1">
<g id="surface1">
<path style=" stroke:none;fill-rule:nonzero;fill:rgb(100%,100%,100%);fill-opacity:1;" d="M 48 54.992188 C 40.539062 54.992188 33.804688 58.070312 28.914062 62.960938 C 28.726562 63.140625 28.617188 63.359375 28.617188 63.617188 C 28.617188 63.875 28.726562 64.148438 28.914062 64.328125 L 35.039062 70.390625 C 35.40625 70.742188 35.976562 70.742188 36.34375 70.390625 C 39.320312 67.414062 43.453125 65.578125 48 65.578125 C 52.546875 65.578125 56.679688 67.414062 59.65625 70.390625 C 60.023438 70.742188 60.59375 70.742188 60.960938 70.390625 L 67.085938 64.328125 C 67.273438 64.148438 67.382812 63.875 67.382812 63.617188 C 67.382812 63.359375 67.273438 63.140625 67.085938 62.960938 C 62.195312 58.070312 55.460938 54.992188 48 54.992188 Z M 48 72.414062 C 45.335938 72.414062 42.960938 73.53125 41.21875 75.265625 C 40.875 75.632812 40.875 76.210938 41.21875 76.578125 L 47.34375 82.703125 C 47.710938 83.046875 48.289062 83.046875 48.65625 82.703125 L 54.78125 76.578125 C 55.125 76.210938 55.125 75.632812 54.78125 75.265625 C 53.039062 73.53125 50.664062 72.414062 48 72.414062 Z M 48 72.414062 "/>
</g>
</svg>
