<?xml version="1.0" encoding="UTF-8"?>
<svg xmlns="http://www.w3.org/2000/svg" xmlns:xlink="http://www.w3.org/1999/xlink" width="96" height="96" viewBox="0 0 96 96" version="1.1">
<g id="surface1">
<path style=" stroke:none;fill-rule:nonzero;fill:rgb(100%,100%,100%);fill-opacity:1;" d="M 2.832031 60 L 15 60 C 16.5625 60 17.832031 61.34375 17.832031 63 L 17.832031 69 C 17.832031 70.65625 16.5625 72 15 72 L 2.832031 72 C 1.269531 72 0 70.65625 0 69 L 0 63 C 0 61.34375 1.269531 60 2.832031 60 Z M 2.832031 60 "/>
<path style=" stroke:none;fill-rule:nonzero;fill:rgb(100%,100%,100%);fill-opacity:1;" d="M 80.878906 60 L 92.980469 60 C 94.632812 60 95.980469 61.34375 95.980469 63 L 95.980469 69 C 95.980469 70.65625 94.632812 72 92.980469 72 L 80.878906 72 C 79.222656 72 77.878906 70.65625 77.878906 69 L 77.878906 63 C 77.878906 61.34375 79.222656 60 80.878906 60 Z M 80.878906 60 "/>
<path style=" stroke:none;fill-rule:nonzero;fill:rgb(100%,100%,100%);fill-opacity:1;" d="M 67.050781 38.5 L 75.605469 29.945312 C 76.777344 28.773438 78.679688 28.773438 79.851562 29.945312 L 84.09375 34.1875 C 85.265625 35.359375 85.265625 37.257812 84.09375 38.429688 L 75.539062 46.984375 C 74.367188 48.15625 72.464844 48.15625 71.292969 46.984375 L 67.050781 42.742188 C 65.878906 41.570312 65.878906 39.671875 67.050781 38.5 Z M 67.050781 38.5 "/>
<path style=" stroke:none;fill-rule:nonzero;fill:rgb(100%,100%,100%);fill-opacity:1;" d="M 20.46875 46.984375 L 11.914062 38.429688 C 10.742188 37.257812 10.742188 35.359375 11.914062 34.1875 L 16.15625 29.945312 C 17.328125 28.773438 19.226562 28.773438 20.398438 29.945312 L 28.953125 38.5 C 30.125 39.671875 30.125 41.570312 28.953125 42.742188 L 24.710938 46.984375 C 23.539062 48.15625 21.640625 48.15625 20.46875 46.984375 Z M 20.46875 46.984375 "/>
<path style=" stroke:none;fill-rule:nonzero;fill:rgb(100%,100%,100%);fill-opacity:1;" d="M 42 33 L 42 21 C 42 19.34375 43.34375 18 45 18 L 51 18 C 52.65625 18 54 19.34375 54 21 L 54 33 C 54 34.65625 52.65625 36 51 36 L 45 36 C 43.34375 36 42 34.65625 42 33 Z M 42 33 "/>
<path style=" stroke:none;fill-rule:nonzero;fill:rgb(100%,100%,100%);fill-opacity:1;" d="M 37.5 54 C 36.5 54.050781 35.566406 54.703125 35.25 55.5625 L 30.230469 68.867188 C 29.621094 70.269531 30.992188 72.035156 32.65625 71.996094 C 32.65625 71.996094 39.078125 71.996094 48.054688 71.996094 C 57.035156 71.996094 63.457031 71.996094 63.457031 71.996094 C 65.125 72.03125 66.488281 70.269531 65.878906 68.867188 L 60.859375 55.5625 C 60.425781 54.40625 58.84375 53.726562 57.574219 54.15625 C 56.296875 54.570312 52.652344 55.722656 48.054688 55.722656 C 43.460938 55.722656 39.8125 54.570312 38.539062 54.15625 C 38.210938 54.039062 37.855469 53.984375 37.5 54 Z M 37.5 54 "/>
</g>
</svg>
