<?xml version="1.0" encoding="UTF-8"?>
<svg xmlns="http://www.w3.org/2000/svg" xmlns:xlink="http://www.w3.org/1999/xlink" width="96" height="96" viewBox="0 0 96 96" version="1.1">
<g id="surface1">
<path style=" stroke:none;fill-rule:nonzero;fill:rgb(100%,100%,100%);fill-opacity:1;" d="M 35.726562 4.007812 C 34.101562 4.171875 32.859375 5.539062 32.851562 7.171875 L 32.851562 51.773438 C 32.84375 52.78125 33.304688 53.742188 34.101562 54.351562 L 48.554688 65.1875 C 49.765625 66.109375 51.460938 66.046875 52.609375 65.046875 L 64.625 54.429688 C 65.328125 53.820312 65.734375 52.929688 65.734375 52 L 65.734375 27.007812 C 65.734375 25.210938 64.28125 23.765625 62.484375 23.765625 C 60.695312 23.765625 59.242188 25.210938 59.242188 27.007812 L 59.242188 50.59375 L 50.320312 58.484375 L 39.265625 50.15625 L 39.265625 10.421875 L 67.5 10.421875 L 67.5 70.570312 L 49.882812 84.796875 L 29.828125 71.3125 L 29.828125 27.742188 C 29.882812 26.5625 29.28125 25.453125 28.265625 24.851562 C 27.257812 24.25 25.992188 24.25 24.976562 24.851562 C 23.96875 25.453125 23.367188 26.5625 23.414062 27.742188 L 23.414062 73.007812 C 23.414062 74.070312 23.945312 75.0625 24.820312 75.65625 L 48.1875 91.4375 C 49.359375 92.234375 50.914062 92.179688 52.015625 91.289062 L 72.734375 74.554688 C 73.515625 73.953125 73.976562 73.03125 73.984375 72.046875 L 73.984375 7.171875 C 73.96875 5.40625 72.515625 3.984375 70.742188 4.007812 L 36.09375 4.007812 C 35.976562 4 35.851562 4 35.726562 4.007812 Z M 35.726562 4.007812 "/>
</g>
</svg>
