<?xml version="1.0" encoding="UTF-8"?>
<svg xmlns="http://www.w3.org/2000/svg" xmlns:xlink="http://www.w3.org/1999/xlink" width="96" height="96" viewBox="0 0 96 96" version="1.1">
<g id="surface1">
<path style=" stroke:none;fill-rule:nonzero;fill:rgb(100%,100%,100%);fill-opacity:1;" d="M 6 18 L 6 30 L 24 30 C 27.429688 30 30 32.570312 30 36 L 30 60 C 30 69.867188 38.132812 78 48 78 L 84 78 L 84 66 L 48 66 C 44.570312 66 42 63.425781 42 60 L 42 36 C 42 26.132812 33.867188 18 24 18 Z M 6 18 "/>
<path style=" stroke:none;fill-rule:nonzero;fill:rgb(100%,100%,100%);fill-opacity:1;" d="M 70.683594 54 C 68.445312 54.40625 66.628906 56.042969 65.992188 58.226562 C 65.359375 60.414062 66.015625 62.769531 67.683594 64.3125 L 75.371094 71.992188 L 67.683594 79.679688 C 66.125 81.21875 65.503906 83.472656 66.066406 85.589844 C 66.625 87.707031 68.28125 89.359375 70.398438 89.921875 C 72.519531 90.484375 74.773438 89.867188 76.308594 88.304688 L 88.308594 76.304688 L 92.433594 71.992188 L 88.308594 67.679688 L 76.308594 55.679688 C 74.855469 54.179688 72.726562 53.542969 70.6875 54 Z M 70.683594 54 "/>
<path style=" stroke:none;fill-rule:nonzero;fill:rgb(100%,100%,100%);fill-opacity:1;" d="M 70.683594 6 C 68.445312 6.40625 66.628906 8.042969 65.992188 10.226562 C 65.359375 12.414062 66.015625 14.769531 67.683594 16.3125 L 75.371094 23.992188 L 67.683594 31.679688 C 66.125 33.21875 65.503906 35.472656 66.066406 37.589844 C 66.625 39.710938 68.28125 41.359375 70.398438 41.921875 C 72.519531 42.484375 74.773438 41.867188 76.308594 40.304688 L 88.308594 28.304688 L 92.433594 23.992188 L 88.308594 19.679688 L 76.308594 7.679688 C 74.855469 6.179688 72.726562 5.542969 70.6875 6 Z M 70.683594 6 "/>
<path style=" stroke:none;fill-rule:nonzero;fill:rgb(100%,100%,100%);fill-opacity:1;" d="M 48 18 C 46.625 18 45.355469 18.265625 44.0625 18.5625 C 46.953125 21.871094 49.230469 25.628906 50.25 30 L 84 30 L 84 18 Z M 6 66 L 6 78 L 24 78 C 25.375 78 26.644531 77.734375 27.9375 77.4375 C 25.046875 74.128906 22.769531 70.371094 21.75 66 Z M 6 66 "/>
<path style=" stroke:none;fill-rule:nonzero;fill:rgb(100%,100%,100%);fill-opacity:1;" d="M 66 54 L 72 54 L 72 60 L 66 60 Z M 66 54 "/>
<path style=" stroke:none;fill-rule:nonzero;fill:rgb(100%,100%,100%);fill-opacity:1;" d="M 66 84 L 72 84 L 72 90 L 66 90 Z M 66 84 "/>
<path style=" stroke:none;fill-rule:nonzero;fill:rgb(100%,100%,100%);fill-opacity:1;" d="M 66 6 L 72 6 L 72 12 L 66 12 Z M 66 6 "/>
<path style=" stroke:none;fill-rule:nonzero;fill:rgb(100%,100%,100%);fill-opacity:1;" d="M 66 36 L 72 36 L 72 42 L 66 42 Z M 66 36 "/>
</g>
</svg>
