<?xml version="1.0" encoding="UTF-8"?>
<svg xmlns="http://www.w3.org/2000/svg" xmlns:xlink="http://www.w3.org/1999/xlink" width="96" height="96" viewBox="0 0 96 96" version="1.1">
<g id="surface1">
<path style=" stroke:none;fill-rule:nonzero;fill:rgb(100%,100%,100%);fill-opacity:1;" d="M 34.679688 54 C 32.441406 54.40625 30.625 56.042969 29.988281 58.226562 C 29.351562 60.414062 30.007812 62.769531 31.679688 64.3125 L 39.359375 71.992188 L 31.671875 79.679688 C 30.109375 81.21875 29.492188 83.472656 30.054688 85.589844 C 30.617188 87.707031 32.269531 89.359375 34.390625 89.921875 C 36.503906 90.484375 38.761719 89.867188 40.296875 88.304688 L 52.296875 76.304688 L 56.421875 71.992188 L 52.296875 67.679688 L 40.296875 55.679688 C 38.839844 54.171875 36.703125 53.535156 34.65625 54 Z M 34.679688 54 "/>
<path style=" stroke:none;fill-rule:nonzero;fill:rgb(100%,100%,100%);fill-opacity:1;" d="M 90 54.058594 L 90 60.027344 C 90 69.894531 81.867188 78.027344 72 78.027344 L 66 78.027344 L 66 66.027344 L 72 66.027344 C 75.425781 66.027344 78 63.453125 78 60.027344 L 78 54.125 Z M 41.941406 30 L 23.984375 30 C 20.554688 30 17.984375 32.570312 17.984375 36 L 17.984375 60 C 17.984375 63.425781 20.554688 66 23.984375 66 L 47.984375 66 L 47.984375 78 L 23.984375 78 C 14.117188 78 5.984375 69.867188 5.984375 60 L 5.984375 36 C 5.984375 26.132812 14.117188 18 23.984375 18 L 41.875 18 Z M 41.941406 30 "/>
<path style=" stroke:none;fill-rule:nonzero;fill:rgb(100%,100%,100%);fill-opacity:1;" d="M 36 54 L 30 54 L 30 60 L 36 60 Z M 36 54 "/>
<path style=" stroke:none;fill-rule:nonzero;fill:rgb(100%,100%,100%);fill-opacity:1;" d="M 36 84 L 30 84 L 30 90 L 36 90 Z M 36 84 "/>
<path style=" stroke:none;fill-rule:nonzero;fill:rgb(100%,100%,100%);fill-opacity:1;" d="M 72 0 C 58.746094 0 48 10.746094 48 24 C 48 37.253906 58.746094 48 72 48 C 85.253906 48 96 37.253906 96 24 C 96 10.746094 85.253906 0 72 0 Z M 66 12 L 78 12 L 78 36 L 66 36 L 65.976562 24.066406 L 60 24 L 60 18 Z M 66 12 "/>
</g>
</svg>
