<?xml version="1.0" encoding="UTF-8"?>
<svg xmlns="http://www.w3.org/2000/svg" xmlns:xlink="http://www.w3.org/1999/xlink" width="96" height="96" viewBox="0 0 96 96" version="1.1">
<g id="surface1">
<path style=" stroke:none;fill-rule:nonzero;fill:rgb(100%,100%,100%);fill-opacity:1;" d="M 72 18 C 62.132812 18 54 26.132812 54 36 L 54 60 C 54 63.425781 51.425781 66 48 66 L 12 66 L 12 78 L 48 78 C 57.867188 78 66 69.867188 66 60 L 66 36 C 66 32.570312 68.570312 30 72 30 L 90 30 L 90 18 Z M 72 18 "/>
<path style=" stroke:none;fill-rule:nonzero;fill:rgb(100%,100%,100%);fill-opacity:1;" d="M 23.28125 54 C 21.9375 54.144531 20.679688 54.742188 19.71875 55.6875 L 7.71875 67.6875 L 3.59375 72 L 7.71875 76.3125 L 19.71875 88.3125 C 21.253906 89.875 23.511719 90.492188 25.628906 89.929688 C 27.742188 89.371094 29.398438 87.714844 29.960938 85.597656 C 30.523438 83.480469 29.902344 81.222656 28.34375 79.6875 L 20.601562 72.007812 L 28.289062 64.320312 C 30.226562 62.519531 30.757812 59.664062 29.597656 57.289062 C 28.4375 54.917969 25.859375 53.578125 23.25 54 Z M 23.28125 54 "/>
<path style=" stroke:none;fill-rule:nonzero;fill:rgb(100%,100%,100%);fill-opacity:1;" d="M 23.28125 6 C 21.9375 6.148438 20.679688 6.742188 19.71875 7.6875 L 7.71875 19.6875 L 3.59375 24 L 7.71875 28.3125 L 19.71875 40.3125 C 21.253906 41.875 23.511719 42.492188 25.628906 41.929688 C 27.742188 41.371094 29.398438 39.714844 29.960938 37.597656 C 30.523438 35.480469 29.902344 33.222656 28.34375 31.6875 L 20.601562 24.007812 L 28.289062 16.320312 C 30.226562 14.519531 30.757812 11.667969 29.597656 9.289062 C 28.4375 6.917969 25.859375 5.578125 23.25 6 Z M 23.28125 6 "/>
<path style=" stroke:none;fill-rule:nonzero;fill:rgb(100%,100%,100%);fill-opacity:1;" d="M 48 18 C 49.375 18 50.644531 18.265625 51.9375 18.5625 C 49.046875 21.871094 46.769531 25.628906 45.75 30 L 12 30 L 12 18 Z M 90 66 L 90 78 L 72 78 C 70.625 78 69.355469 77.734375 68.0625 77.4375 C 70.949219 74.128906 73.230469 70.371094 74.25 66 Z M 90 66 "/>
<path style=" stroke:none;fill-rule:nonzero;fill:rgb(100%,100%,100%);fill-opacity:1;" d="M 30 54 L 24 54 L 24 60 L 30 60 Z M 30 54 "/>
<path style=" stroke:none;fill-rule:nonzero;fill:rgb(100%,100%,100%);fill-opacity:1;" d="M 30 84 L 24 84 L 24 90 L 30 90 Z M 30 84 "/>
<path style=" stroke:none;fill-rule:nonzero;fill:rgb(100%,100%,100%);fill-opacity:1;" d="M 30 6 L 24 6 L 24 12 L 30 12 Z M 30 6 "/>
<path style=" stroke:none;fill-rule:nonzero;fill:rgb(100%,100%,100%);fill-opacity:1;" d="M 30 36 L 24 36 L 24 42 L 30 42 Z M 30 36 "/>
</g>
</svg>
