<?xml version="1.0" encoding="UTF-8"?>
<svg xmlns="http://www.w3.org/2000/svg" xmlns:xlink="http://www.w3.org/1999/xlink" width="96" height="96" viewBox="0 0 96 96" version="1.1">
<g id="surface1">
<path style=" stroke:none;fill-rule:nonzero;fill:rgb(100%,100%,100%);fill-opacity:1;" d="M 59.25 54 C 57.90625 54.144531 56.652344 54.742188 55.6875 55.6875 L 43.6875 67.6875 L 39.5625 72 L 43.6875 76.3125 L 55.6875 88.3125 C 57.222656 89.875 59.480469 90.492188 61.597656 89.929688 C 63.714844 89.371094 65.371094 87.714844 65.929688 85.597656 C 66.492188 83.480469 65.875 81.222656 64.3125 79.6875 L 56.632812 72.007812 L 64.316406 64.328125 C 66.261719 62.523438 66.792969 59.664062 65.625 57.285156 C 64.457031 54.90625 61.867188 53.570312 59.253906 54.007812 Z M 59.25 54 "/>
<path style=" stroke:none;fill-rule:nonzero;fill:rgb(100%,100%,100%);fill-opacity:1;" d="M 6 54.058594 L 6 60.027344 C 6 69.894531 14.132812 78.027344 24 78.027344 L 30 78.027344 L 30 66.027344 L 24 66.027344 C 20.570312 66.027344 18 63.453125 18 60.027344 L 18 54.125 Z M 54.046875 30 L 72 30 C 75.425781 30 78 32.570312 78 36 L 78 60 C 78 63.425781 75.425781 66 72 66 L 48 66 L 48 78 L 72 78 C 81.867188 78 90 69.867188 90 60 L 90 36 C 90 26.132812 81.867188 18 72 18 L 54.109375 18 Z M 54.046875 30 "/>
<path style=" stroke:none;fill-rule:nonzero;fill:rgb(100%,100%,100%);fill-opacity:1;" d="M 60 54 L 66 54 L 66 60 L 60 60 Z M 60 54 "/>
<path style=" stroke:none;fill-rule:nonzero;fill:rgb(100%,100%,100%);fill-opacity:1;" d="M 60 84 L 66 84 L 66 90 L 60 90 Z M 60 84 "/>
<path style=" stroke:none;fill-rule:nonzero;fill:rgb(100%,100%,100%);fill-opacity:1;" d="M 24 0 C 10.746094 0 0 10.746094 0 24 C 0 37.253906 10.746094 48 24 48 C 37.253906 48 48 37.253906 48 24 C 48 10.746094 37.253906 0 24 0 Z M 18 12 L 30 12 L 30 36 L 18 36 L 18 24 L 12 24 L 12 18 Z M 18 12 "/>
</g>
</svg>
