<?xml version="1.0" encoding="UTF-8"?>
<svg xmlns="http://www.w3.org/2000/svg" xmlns:xlink="http://www.w3.org/1999/xlink" width="96" height="96" viewBox="0 0 96 96" version="1.1">
<g id="surface1">
<path style=" stroke:none;fill-rule:nonzero;fill:rgb(100%,100%,100%);fill-opacity:1;" d="M 6.179688 42 L 6.179688 54 L 83.992188 54 L 83.992188 42 Z M 6.179688 42 "/>
<path style=" stroke:none;fill-rule:nonzero;fill:rgb(100%,100%,100%);fill-opacity:1;" d="M 70.679688 30 C 68.441406 30.40625 66.625 32.042969 65.988281 34.226562 C 65.351562 36.414062 66.007812 38.769531 67.679688 40.3125 L 75.359375 47.992188 L 67.671875 55.679688 C 66.109375 57.21875 65.492188 59.472656 66.054688 61.589844 C 66.613281 63.707031 68.269531 65.359375 70.386719 65.921875 C 72.503906 66.484375 74.761719 65.867188 76.296875 64.304688 L 88.296875 52.304688 L 92.421875 47.992188 L 88.296875 43.679688 L 76.296875 31.679688 C 74.839844 30.171875 72.703125 29.539062 70.65625 30 Z M 70.679688 30 "/>
<path style=" stroke:none;fill-rule:nonzero;fill:rgb(100%,100%,100%);fill-opacity:1;" d="M 66 30 L 72 30 L 72 36 L 66 36 Z M 66 30 "/>
<path style=" stroke:none;fill-rule:nonzero;fill:rgb(100%,100%,100%);fill-opacity:1;" d="M 66 60 L 72 60 L 72 66 L 66 66 Z M 66 60 "/>
</g>
</svg>
