<?xml version="1.0" encoding="UTF-8"?>
<svg xmlns="http://www.w3.org/2000/svg" xmlns:xlink="http://www.w3.org/1999/xlink" width="96" height="96" viewBox="0 0 96 96" version="1.1">
<g id="surface1">
<path style=" stroke:none;fill-rule:nonzero;fill:rgb(96.078431%,47.45098%,0%);fill-opacity:1;" d="M 18 6 C 6 6 6 18 6 18 L 6 78 C 6 90 18 90 18 90 L 78 89.4375 C 90 89.324219 90 78 90 78 L 90 18 C 90 6 78 6 78 6 Z M 48 18.1875 C 58.886719 18.1875 69.773438 21.898438 78 29.4375 L 78 36 L 67.125 36 C 56.066406 27.539062 39.933594 27.539062 28.875 36 L 18 36 L 18 29.4375 C 26.226562 21.898438 37.113281 18.1875 48 18.1875 Z M 48 36.5625 C 54.261719 36.5625 60.480469 38.585938 65.25 42.5625 C 65.511719 42.671875 65.757812 42.800781 66 42.9375 L 66 48 L 30 48 L 30 43.125 C 30.230469 42.921875 30.484375 42.734375 30.75 42.5625 C 35.519531 38.585938 41.738281 36.5625 48 36.5625 Z M 48 54 C 54.625 54 60 59.375 60 66 C 60 72.625 54.625 78 48 78 C 41.375 78 36 72.625 36 66 C 36 59.375 41.375 54 48 54 Z M 48 54 "/>
</g>
</svg>
