<?xml version="1.0" encoding="UTF-8"?>
<svg xmlns="http://www.w3.org/2000/svg" xmlns:xlink="http://www.w3.org/1999/xlink" width="96" height="96" viewBox="0 0 96 96" version="1.1">
<g id="surface1">
<path style=" stroke:none;fill-rule:nonzero;fill:rgb(100%,100%,100%);fill-opacity:1;" d="M 12.378906 0 C 5.472656 0 0.00390625 5.46875 0.00390625 12.375 L 0.00390625 83.625 C 0.00390625 90.53125 5.472656 96 12.378906 96 L 83.628906 96 C 90.53125 96 96.003906 90.53125 96.003906 83.625 L 96.003906 12.375 C 96.003906 5.476562 90.53125 0.015625 83.628906 0.015625 L 12.382812 0.015625 Z M 12.003906 18 L 36.003906 18 C 38.046875 18.050781 39.921875 19.132812 40.984375 20.878906 C 42.042969 22.625 42.148438 24.789062 41.253906 26.625 L 33.003906 43.3125 C 35.128906 44.003906 37.496094 44.484375 38.816406 45.9375 C 40.8125 48.132812 42.003906 50.796875 42.003906 54 L 42.003906 66 C 42.003906 72.671875 36.558594 78 30.003906 78 L 12.003906 78 L 12.003906 66 L 30.003906 66 L 30.003906 54 L 24.003906 54 C 21.960938 53.949219 20.085938 52.867188 19.023438 51.121094 C 17.960938 49.375 17.859375 47.210938 18.753906 45.375 L 26.253906 30 L 12.003906 30 Z M 60.378906 18.1875 L 71.816406 18.1875 C 71.832031 18.1875 71.796875 18.375 71.816406 18.375 C 74.980469 18.25 78.25 18.828125 80.816406 21.1875 C 83.304688 23.472656 84.375 27.230469 84.191406 30.75 L 84.378906 30.75 L 84.378906 36 L 72.378906 36 L 72.378906 30.1875 C 72.273438 30.175781 72.394531 30.175781 72.191406 30.1875 L 60.378906 30.1875 C 60.214844 30.1875 60.246094 30.199219 60.191406 30.1875 C 60.15625 30.210938 60.015625 30.171875 60.003906 30.1875 C 59.960938 30.320312 60.046875 30.464844 60.003906 30.5625 L 60.003906 65.625 C 59.863281 65.492188 60.003906 66 60.003906 66 L 71.816406 66 C 71.859375 65.882812 71.992188 65.902344 72.003906 66 C 72.007812 66.046875 72.003906 65.664062 72.003906 65.8125 L 72.003906 54.1875 L 66.003906 54.1875 L 66.003906 42.1875 L 84.003906 42.1875 L 84.003906 65.8125 C 84.003906 69.1875 82.644531 71.808594 80.628906 74.0625 C 78.734375 76.183594 75.519531 77.851562 71.816406 77.8125 L 71.816406 78 L 60.003906 78 C 56.253906 78 54.039062 76.550781 51.941406 74.625 C 49.957031 72.800781 48.078125 69.882812 48.191406 66 C 48.191406 65.988281 48.003906 66.011719 48.003906 66 L 48.003906 29.625 C 48.378906 27.003906 49.234375 24.289062 51.378906 21.9375 C 53.523438 19.585938 57.054688 18.1875 60.378906 18.1875 Z M 60.378906 18.1875 "/>
</g>
</svg>
