<?xml version="1.0" encoding="UTF-8"?>
<svg xmlns="http://www.w3.org/2000/svg" xmlns:xlink="http://www.w3.org/1999/xlink" width="96" height="96" viewBox="0 0 96 96" version="1.1">
<g id="surface1">
<path style=" stroke:none;fill-rule:nonzero;fill:rgb(100%,100%,100%);fill-opacity:1;" d="M 12.359375 0 C 5.453125 0 -0.015625 5.46875 -0.015625 12.375 L -0.015625 83.625 C -0.015625 90.53125 5.453125 96 12.359375 96 L 83.609375 96 C 90.515625 96 95.984375 90.53125 95.984375 83.625 L 95.984375 12.375 C 95.984375 5.46875 90.515625 0 83.609375 0 Z M 11.984375 18 L 23.984375 18 L 23.984375 42 L 29.984375 42 L 29.984375 36 L 41.984375 36 L 41.984375 78 L 29.984375 78 L 29.984375 54 L 23.984375 54 C 17.984375 54 11.984375 48.949219 11.984375 42 Z M 60.359375 18.1875 L 71.796875 18.1875 C 71.816406 18.1875 71.78125 18.375 71.796875 18.375 C 74.960938 18.25 78.230469 18.828125 80.796875 21.1875 C 83.285156 23.472656 84.355469 27.230469 84.171875 30.75 L 84.359375 30.75 L 84.359375 36 L 72.359375 36 L 72.359375 30.1875 C 72.253906 30.175781 72.378906 30.175781 72.171875 30.1875 L 60.359375 30.1875 C 60.195312 30.1875 60.226562 30.199219 60.171875 30.1875 C 60.136719 30.210938 60 30.171875 59.984375 30.1875 C 59.945312 30.320312 60.03125 30.464844 59.984375 30.5625 L 59.984375 65.625 C 59.84375 65.492188 59.984375 66 59.984375 66 L 71.800781 66 C 71.84375 65.882812 71.976562 65.902344 71.984375 66 C 71.992188 66.046875 71.984375 65.664062 71.984375 65.8125 L 71.984375 54.1875 L 65.984375 54.1875 L 65.984375 42.1875 L 83.984375 42.1875 L 83.984375 65.8125 C 83.984375 69.1875 82.625 71.808594 80.609375 74.0625 C 78.714844 76.183594 75.5 77.851562 71.796875 77.8125 L 71.796875 78 L 59.984375 78 C 56.238281 78 54.023438 76.550781 51.921875 74.625 C 49.9375 72.800781 48.0625 69.882812 48.171875 66 C 48.175781 65.988281 47.984375 66.011719 47.984375 66 L 47.984375 29.625 C 48.359375 27.003906 49.21875 24.289062 51.359375 21.9375 C 53.503906 19.585938 57.039062 18.1875 60.359375 18.1875 Z M 60.359375 18.1875 "/>
</g>
</svg>
