<?xml version="1.0" encoding="UTF-8"?>
<svg xmlns="http://www.w3.org/2000/svg" xmlns:xlink="http://www.w3.org/1999/xlink" width="96" height="96" viewBox="0 0 96 96" version="1.1">
<g id="surface1">
<path style=" stroke:none;fill-rule:nonzero;fill:rgb(100%,100%,100%);fill-opacity:1;" d="M 12.371094 0 C 5.472656 0 0 5.460938 0 12.359375 L 0 83.609375 C 0 90.507812 5.472656 95.96875 12.371094 95.96875 L 83.621094 95.96875 C 90.527344 95.96875 96 90.507812 96 83.609375 L 96 12.359375 C 96 5.460938 90.527344 0 83.628906 0 Z M 23.996094 18 L 35.996094 18 L 35.996094 66 C 35.992188 65.996094 36.183594 66 36.183594 66 L 59.808594 66 C 59.851562 65.882812 59.984375 65.902344 59.996094 66 C 60.003906 66.046875 59.996094 65.667969 59.996094 65.8125 L 60.003906 17.992188 L 72.003906 17.992188 L 72.003906 65.804688 C 72.003906 69.179688 70.640625 71.804688 68.628906 74.054688 C 66.730469 76.175781 63.515625 77.847656 59.816406 77.804688 L 59.816406 77.992188 L 36.003906 77.992188 C 32.253906 77.992188 30.039062 76.546875 27.941406 74.617188 C 25.953125 72.789062 24.078125 69.878906 24.191406 65.992188 L 24.003906 65.992188 L 24.003906 17.992188 Z M 23.996094 18 "/>
</g>
</svg>
