<?xml version="1.0" encoding="UTF-8"?>
<svg xmlns="http://www.w3.org/2000/svg" xmlns:xlink="http://www.w3.org/1999/xlink" width="96" height="96" viewBox="0 0 96 96" version="1.1">
<g id="surface1">
<path style=" stroke:none;fill-rule:nonzero;fill:rgb(100%,100%,100%);fill-opacity:1;" d="M 30 42 C 28.140625 42 26.3125 42.542969 25.125 43.6875 L 3.523438 66.007812 L 25.460938 88.320312 C 26.648438 89.46875 28.105469 90.007812 29.960938 90.007812 L 35.960938 90.007812 L 35.960938 84.007812 C 35.960938 82.46875 35.1875 80.835938 34.085938 79.695312 L 26.40625 72.015625 L 53.96875 72.015625 C 57.140625 72.058594 59.96875 69.183594 59.96875 66.015625 C 59.96875 62.84375 57.140625 59.96875 53.96875 60.015625 L 26.21875 60.015625 L 33.53125 52.328125 C 34.628906 51.1875 35.96875 49.554688 35.96875 48.015625 L 35.96875 42.015625 Z M 30 42 "/>
<path style=" stroke:none;fill-rule:nonzero;fill:rgb(100%,100%,100%);fill-opacity:1;" d="M 69.539062 54 C 71.394531 54 73.226562 53.457031 74.414062 52.3125 L 96.015625 29.992188 L 74.078125 7.679688 C 72.890625 6.53125 71.433594 5.992188 69.578125 5.992188 L 63.578125 5.992188 L 63.578125 11.992188 C 63.578125 13.53125 64.355469 15.164062 65.453125 16.304688 L 73.140625 23.992188 L 42.015625 23.992188 C 38.84375 23.949219 36.015625 26.820312 36.015625 29.992188 C 36.015625 33.160156 38.84375 36.039062 42.015625 35.992188 L 73.328125 35.992188 L 66.015625 43.679688 C 64.917969 44.820312 63.578125 46.449219 63.578125 47.992188 L 63.578125 53.992188 Z M 69.539062 54 "/>
</g>
</svg>
