<?xml version="1.0" encoding="UTF-8"?>
<svg xmlns="http://www.w3.org/2000/svg" xmlns:xlink="http://www.w3.org/1999/xlink" width="96" height="96" viewBox="0 0 96 96" version="1.1">
<g id="surface1">
<path style=" stroke:none;fill-rule:nonzero;fill:rgb(100%,100%,100%);fill-opacity:1;" d="M 12.359375 0 C 5.453125 0 -0.015625 5.46875 -0.015625 12.375 L -0.015625 83.625 C -0.015625 90.53125 5.453125 96 12.359375 96 L 83.609375 96 C 90.515625 96 95.984375 90.53125 95.984375 83.625 L 95.984375 12.375 C 95.984375 5.46875 90.515625 0 83.609375 0 Z M 35.984375 18 L 71.984375 18 L 71.984375 30 L 35.984375 30 L 35.984375 42 L 71.984375 42 L 71.984375 54 L 35.984375 54 L 35.984375 66 C 35.984375 65.996094 36.171875 66 36.171875 66 L 71.984375 66 L 71.984375 78 L 35.984375 78 C 32.234375 78 30.019531 76.550781 27.921875 74.625 C 25.9375 72.800781 24.058594 69.886719 24.171875 66 L 23.984375 66 L 23.984375 30 L 24.171875 30 C 24.09375 27.148438 24.832031 24.003906 26.984375 21.5625 C 29.105469 19.15625 32.589844 18.0625 35.984375 18.1875 Z M 35.984375 18 "/>
</g>
</svg>
