<?xml version="1.0" encoding="UTF-8"?>
<svg xmlns="http://www.w3.org/2000/svg" xmlns:xlink="http://www.w3.org/1999/xlink" width="96" height="96" viewBox="0 0 96 96" version="1.1">
<g id="surface1">
<path style=" stroke:none;fill-rule:nonzero;fill:rgb(100%,100%,100%);fill-opacity:1;" d="M 12.371094 0 C 5.46875 0 -0.00390625 5.46875 -0.00390625 12.375 L -0.00390625 83.625 C -0.00390625 90.53125 5.46875 96 12.371094 96 L 83.621094 96 C 90.527344 96 95.996094 90.53125 95.996094 83.625 L 95.996094 12.375 C 95.996094 5.46875 90.527344 0 83.621094 0 Z M 36.746094 18.1875 L 59.808594 18.1875 C 59.828125 18.1875 59.789062 18.375 59.808594 18.375 C 62.972656 18.25 66.242188 18.828125 68.808594 21.1875 C 71.296875 23.472656 72.367188 27.230469 72.183594 30.75 L 72.371094 30.75 L 72.371094 36 L 60.371094 36 L 60.371094 30.1875 C 60.265625 30.175781 60.390625 30.175781 60.183594 30.1875 L 36.746094 30.1875 C 36.578125 30.1875 36.617188 30.199219 36.558594 30.1875 C 36.523438 30.210938 36.382812 30.171875 36.371094 30.1875 C 36.328125 30.320312 36.414062 30.464844 36.371094 30.5625 L 36.371094 65.625 C 36.226562 65.492188 36.351562 65.988281 36.371094 66 L 59.808594 66 C 59.851562 65.882812 59.984375 65.902344 59.996094 66 C 60 66.046875 59.996094 65.664062 59.996094 65.8125 L 59.996094 54.1875 L 47.996094 54.1875 L 47.996094 42.1875 L 71.996094 42.1875 L 71.996094 65.8125 C 71.996094 69.1875 70.632812 71.808594 68.621094 74.0625 C 66.726562 76.183594 63.507812 77.851562 59.808594 77.8125 L 59.808594 78 L 36.371094 78 C 32.621094 78 30.40625 76.550781 28.304688 74.625 C 26.320312 72.800781 24.445312 69.882812 24.554688 66 C 24.558594 65.988281 24.367188 66.011719 24.367188 66 L 24.367188 29.625 C 24.742188 27.003906 25.601562 24.289062 27.742188 21.9375 C 29.890625 19.585938 33.421875 18.1875 36.742188 18.1875 Z M 36.746094 18.1875 "/>
</g>
</svg>
