<?xml version="1.0" encoding="UTF-8"?>
<svg xmlns="http://www.w3.org/2000/svg" xmlns:xlink="http://www.w3.org/1999/xlink" width="96" height="96" viewBox="0 0 96 96" version="1.1">
<g id="surface1">
<path style=" stroke:none;fill-rule:nonzero;fill:rgb(100%,100%,100%);fill-opacity:1;" d="M 48.015625 6.058594 C 46.421875 6.054688 45.027344 6.664062 44.03125 7.496094 C 43.035156 8.328125 42.367188 9.425781 41.691406 10.496094 C 40.34375 12.644531 39.335938 15.109375 38.300781 17.71875 C 37.261719 20.328125 36.21875 23.046875 35.269531 25.113281 C 34.328125 27.179688 33.199219 28.585938 33.121094 28.640625 C 33.039062 28.695312 31.277344 29.339844 28.945312 29.550781 C 26.613281 29.757812 23.65625 29.84375 20.765625 29.96875 C 17.875 30.085938 14.945312 30.183594 12.40625 30.734375 C 11.140625 31.011719 9.914062 31.34375 8.78125 31.992188 C 7.648438 32.640625 6.582031 33.710938 6.082031 35.171875 C 5.585938 36.636719 5.785156 38.210938 6.300781 39.382812 C 6.8125 40.554688 7.65625 41.570312 8.507812 42.523438 C 10.210938 44.421875 12.304688 46.15625 14.558594 47.914062 C 16.808594 49.671875 19.214844 51.269531 20.960938 52.773438 C 22.707031 54.28125 23.6875 55.820312 23.71875 55.914062 C 23.75 56 23.90625 57.921875 23.390625 60.125 C 22.875 62.328125 22.046875 64.996094 21.273438 67.6875 C 20.5 70.378906 19.765625 73.097656 19.523438 75.597656 C 19.402344 76.847656 19.265625 78.039062 19.554688 79.28125 C 19.84375 80.523438 20.664062 81.863281 21.949219 82.773438 C 23.234375 83.683594 24.644531 83.898438 25.960938 83.792969 C 27.273438 83.6875 28.570312 83.371094 29.769531 82.886719 C 32.167969 81.914062 34.578125 80.3125 37.007812 78.789062 C 39.4375 77.265625 41.855469 75.660156 43.882812 74.523438 C 45.90625 73.386719 47.773438 72.914062 47.867188 72.914062 C 47.964844 72.914062 49.6875 73.484375 51.703125 74.636719 C 53.714844 75.789062 56.054688 77.429688 58.46875 78.96875 C 60.882812 80.511719 63.386719 81.953125 65.773438 82.949219 C 66.96875 83.441406 68.109375 83.851562 69.421875 83.96875 C 70.734375 84.085938 72.296875 83.785156 73.59375 82.882812 C 74.886719 81.984375 75.628906 80.769531 75.929688 79.53125 C 76.226562 78.292969 76.1875 76.921875 76.078125 75.671875 C 75.859375 73.167969 75.125 70.484375 74.375 67.785156 C 73.625 65.089844 72.800781 62.46875 72.308594 60.261719 C 71.8125 58.050781 71.875 56.136719 71.910156 56.050781 C 71.9375 55.960938 73.035156 54.535156 74.792969 53.042969 C 76.550781 51.554688 78.847656 49.820312 81.113281 48.082031 C 83.378906 46.34375 85.71875 44.652344 87.429688 42.765625 C 88.289062 41.824219 88.882812 40.761719 89.40625 39.59375 C 89.925781 38.425781 90.21875 37.019531 89.734375 35.554688 C 89.246094 34.085938 88.105469 33.078125 86.980469 32.417969 C 85.851562 31.761719 84.78125 31.328125 83.511719 31.042969 C 80.980469 30.46875 78.03125 30.203125 75.136719 30.054688 C 72.246094 29.914062 69.460938 29.820312 67.132812 29.59375 C 64.800781 29.367188 62.839844 28.808594 62.761719 28.75 C 62.683594 28.699219 61.65625 27.335938 60.730469 25.257812 C 59.804688 23.1875 58.773438 20.53125 57.757812 17.914062 C 56.746094 15.296875 55.75 12.726562 54.421875 10.570312 C 53.757812 9.492188 53.019531 8.445312 52.03125 7.605469 C 51.042969 6.769531 49.613281 6.0625 48.015625 6.058594 Z M 48.070312 12.027344 C 48.320312 12.242188 48.707031 12.839844 49.175781 13.597656 C 50.101562 15.105469 51.15625 17.359375 52.136719 19.890625 C 53.117188 22.417969 54.050781 25.207031 55.113281 27.585938 C 56.175781 29.964844 57 31.988281 59.164062 33.519531 C 61.328125 35.046875 63.789062 35.304688 66.457031 35.566406 C 69.125 35.828125 72.03125 35.886719 74.828125 36.023438 C 77.621094 36.164062 80.335938 36.441406 82.105469 36.84375 C 82.992188 37.042969 83.640625 37.1875 83.929688 37.355469 C 83.792969 37.65625 83.453125 38.285156 82.851562 38.945312 C 81.652344 40.261719 79.625 41.867188 77.4375 43.550781 C 75.246094 45.226562 72.765625 46.984375 70.75 48.691406 C 68.734375 50.398438 66.914062 51.882812 66.074219 54.34375 C 65.230469 56.804688 65.75 59.003906 66.316406 61.535156 C 66.882812 64.066406 67.84375 66.804688 68.566406 69.414062 C 69.292969 72.023438 69.929688 74.496094 70.082031 76.246094 C 70.152344 77.042969 69.976562 77.65625 69.914062 78 C 69.554688 77.953125 68.855469 77.804688 68.09375 77.488281 C 66.421875 76.796875 64.210938 75.519531 61.878906 74.03125 C 59.546875 72.539062 57.054688 70.84375 54.746094 69.523438 C 52.441406 68.203125 50.5 67.132812 47.820312 67.125 C 45.132812 67.113281 43.066406 68.160156 40.746094 69.460938 C 38.425781 70.761719 36.039062 72.433594 33.691406 73.90625 C 31.34375 75.378906 29.03125 76.609375 27.359375 77.289062 C 26.519531 77.628906 25.882812 77.804688 25.542969 77.828125 C 25.484375 77.484375 25.453125 76.867188 25.53125 76.074219 C 25.695312 74.328125 26.359375 71.824219 27.105469 69.21875 C 27.851562 66.617188 28.628906 63.835938 29.21875 61.304688 C 29.808594 58.78125 30.339844 56.578125 29.523438 54.109375 C 28.703125 51.644531 26.925781 50.257812 24.925781 48.53125 C 22.925781 46.808594 20.691406 45.019531 18.515625 43.320312 C 16.34375 41.621094 14.210938 39.957031 13.023438 38.628906 C 12.429688 37.960938 12.046875 37.355469 11.917969 37.058594 C 12.207031 36.890625 12.84375 36.710938 13.730469 36.515625 C 15.503906 36.128906 18.203125 35.875 20.996094 35.757812 C 23.796875 35.640625 26.6875 35.578125 29.359375 35.335938 C 32.03125 35.097656 34.4375 35.039062 36.617188 33.523438 C 38.796875 32.011719 39.847656 29.894531 40.929688 27.523438 C 42.011719 25.15625 42.953125 22.476562 43.953125 19.953125 C 44.960938 17.429688 45.867188 14.941406 46.808594 13.4375 C 47.28125 12.6875 47.8125 12.238281 48.070312 12.027344 Z M 48.070312 12.027344 "/>
</g>
</svg>
