<?xml version="1.0" encoding="UTF-8"?>
<svg xmlns="http://www.w3.org/2000/svg" xmlns:xlink="http://www.w3.org/1999/xlink" width="96" height="96" viewBox="0 0 96 96" version="1.1">
<g id="surface1">
<path style=" stroke:none;fill-rule:nonzero;fill:rgb(100%,100%,100%);fill-opacity:1;" d="M 12 24 C 9 24 6 27 6 30 L 6 54 C 6 57 9 60 12 60 L 18 60 L 18 48 L 78 48 L 78 60 L 84 60 C 87 60 90 57 90 54 L 90 30 C 90 27 87 24 84 24 Z M 12 24 "/>
<path style=" stroke:none;fill-rule:nonzero;fill:rgb(100%,100%,100%);fill-opacity:1;" d="M 24 6 L 24 18 L 72 18 L 72 6 Z M 24 6 "/>
<path style=" stroke:none;fill-rule:nonzero;fill:rgb(100%,100%,100%);fill-opacity:1;" d="M 24 54 L 24 84 L 72 84 L 72 54 Z M 41.945312 59.988281 L 54.121094 60.054688 L 54.054688 66.054688 L 66.074219 65.988281 L 48.195312 77.988281 L 30.015625 65.988281 L 42.027344 66.054688 Z M 41.945312 59.988281 "/>
</g>
</svg>
