<?xml version="1.0" encoding="UTF-8"?>
<svg xmlns="http://www.w3.org/2000/svg" xmlns:xlink="http://www.w3.org/1999/xlink" width="96" height="96" viewBox="0 0 96 96" version="1.1">
<g id="surface1">
<path style=" stroke:none;fill-rule:nonzero;fill:rgb(96.078431%,47.45098%,0%);fill-opacity:1;" d="M 53.28125 48 C 50.324219 48 48.03125 50.292969 48.03125 53.25 L 48.03125 90.75 C 48.03125 93.707031 50.324219 96 53.28125 96 L 90.78125 96 C 93.734375 96 96.027344 93.707031 96.027344 90.75 L 96.027344 53.25 C 96.027344 50.308594 93.75 48.03125 90.75 48.03125 L 53.25 48.03125 Z M 66.03125 54 L 78.03125 54 L 78.03125 78 L 66.03125 78 Z M 66.03125 84 L 78.03125 84 L 78.03125 90 L 66.03125 90 Z M 66.03125 84 "/>
<path style=" stroke:none;fill-rule:nonzero;fill:rgb(74.509804%,74.509804%,74.509804%);fill-opacity:1;" d="M 12 24 C 9 24 6 27 6 30 L 6 54 C 6 57 9 60 12 60 L 18 60 L 18 48 L 42 48 C 42.710938 44.765625 45.308594 42.375 48.75 42.375 L 90 42.375 L 90 30 C 90 27 87 24 84 24 Z M 12 24 "/>
<path style=" stroke:none;fill-rule:nonzero;fill:rgb(74.509804%,74.509804%,74.509804%);fill-opacity:1;" d="M 24 6 L 24 18 L 72 18 L 72 6 Z M 24 6 "/>
<path style=" stroke:none;fill-rule:nonzero;fill:rgb(74.509804%,74.509804%,74.509804%);fill-opacity:1;" d="M 24 54 L 24 84 L 42 84 L 42 54 Z M 24 54 "/>
<path style=" stroke:none;fill-rule:nonzero;fill:rgb(100%,100%,100%);fill-opacity:1;" d="M 24.324219 69.03125 L 24.324219 54.183594 L 41.816406 54.183594 L 41.816406 83.878906 L 24.324219 83.878906 Z M 24.324219 69.03125 "/>
<path style=" stroke:none;fill-rule:nonzero;fill:rgb(100%,100%,100%);fill-opacity:1;" d="M 9.835938 59.292969 C 9.136719 58.988281 8.039062 58.050781 7.394531 57.203125 L 6.222656 55.667969 L 6.222656 28.289062 L 7.394531 26.753906 C 9.558594 23.914062 7.296875 24.058594 48.5 24.175781 C 85.515625 24.285156 85.695312 24.289062 86.839844 25.136719 C 87.46875 25.605469 88.398438 26.59375 88.902344 27.332031 C 89.761719 28.59375 89.816406 29.09375 89.816406 35.519531 L 89.816406 42.367188 L 67.953125 42.476562 L 46.089844 42.589844 L 44.757812 43.539062 C 44.023438 44.0625 43.0625 45.203125 42.617188 46.074219 L 41.804688 47.664062 L 18.019531 47.878906 L 17.796875 59.878906 L 14.449219 59.863281 C 12.5625 59.851562 10.550781 59.605469 9.835938 59.292969 Z M 9.835938 59.292969 "/>
<path style=" stroke:none;fill-rule:nonzero;fill:rgb(100%,100%,100%);fill-opacity:1;" d="M 24.324219 12.082031 L 24.324219 6.183594 L 71.917969 6.183594 L 71.917969 17.980469 L 24.324219 17.980469 Z M 24.324219 12.082031 "/>
</g>
</svg>
