<?xml version="1.0" encoding="UTF-8"?>
<svg xmlns="http://www.w3.org/2000/svg" xmlns:xlink="http://www.w3.org/1999/xlink" width="96" height="96" viewBox="0 0 96 96" version="1.1">
<g id="surface1">
<path style=" stroke:none;fill-rule:nonzero;fill:rgb(100%,100%,100%);fill-opacity:1;" d="M 12 6 L 12 48 C 12 60.429688 21.058594 70.085938 29.0625 77.25 C 37.070312 84.414062 45 89.25 45 89.25 L 48 90.9375 L 51.1875 89.0625 C 51.1875 89.0625 58.953125 84.277344 66.9375 77.0625 C 74.917969 69.800781 83.976562 60.203125 83.976562 47.960938 L 83.976562 5.960938 L 11.976562 5.960938 Z M 24 18 L 72 18 L 72 48 C 72 53.519531 66.078125 61.910156 59.0625 68.25 C 53.628906 73.160156 50.1875 75.085938 48 76.5 C 45.875 75.164062 42.429688 73.351562 36.9375 68.4375 C 29.917969 62.136719 23.976562 53.855469 23.976562 47.976562 L 23.976562 17.976562 Z M 24 18 "/>
</g>
</svg>
