<?xml version="1.0" encoding="UTF-8"?>
<svg xmlns="http://www.w3.org/2000/svg" xmlns:xlink="http://www.w3.org/1999/xlink" width="96" height="96" viewBox="0 0 96 96" version="1.1">
<g id="surface1">
<path style=" stroke:none;fill-rule:nonzero;fill:rgb(100%,100%,100%);fill-opacity:1;" d="M 49.546875 4 C 36.726562 4 27.5625 11.648438 27.5625 24.15625 L 27.5625 35.148438 L 36.726562 35.148438 L 36.726562 27.820312 C 36.726562 24.15625 36.726562 13.164062 49.546875 13.164062 L 51.382812 13.164062 C 64.203125 13.164062 64.203125 24.15625 64.203125 27.820312 L 64.203125 35.148438 L 73.367188 35.148438 L 73.367188 24.15625 C 73.367188 11.328125 64.203125 4 51.382812 4 Z M 23.84375 49.859375 C 20.179688 49.859375 18.351562 51.695312 18.351562 55.359375 L 18.351562 86.507812 C 18.351562 88.296875 20.179688 92 23.84375 92 L 77.664062 92 C 80.625 91.984375 82.46875 88.296875 82.46875 86.507812 L 82.46875 55.359375 C 82.46875 51.695312 80.640625 49.859375 76.976562 49.859375 Z M 23.84375 49.859375 "/>
</g>
</svg>
