<?xml version="1.0" encoding="UTF-8"?>
<svg xmlns="http://www.w3.org/2000/svg" xmlns:xlink="http://www.w3.org/1999/xlink" width="96" height="96" viewBox="0 0 96 96" version="1.1">
<g id="surface1">
<path style=" stroke:none;fill-rule:nonzero;fill:rgb(100%,100%,100%);fill-opacity:1;" d="M 48 6.058594 C 49.597656 6.054688 50.992188 6.664062 51.988281 7.496094 C 52.984375 8.328125 53.652344 9.425781 54.324219 10.496094 C 55.671875 12.644531 56.683594 15.109375 57.71875 17.71875 C 58.753906 20.328125 59.800781 23.046875 60.746094 25.113281 C 61.691406 27.179688 62.820312 28.585938 62.898438 28.640625 C 62.976562 28.695312 64.738281 29.339844 67.070312 29.550781 C 69.40625 29.757812 72.359375 29.84375 75.25 29.96875 C 78.144531 30.085938 81.074219 30.183594 83.609375 30.734375 C 84.878906 31.011719 86.101562 31.34375 87.238281 31.992188 C 88.371094 32.640625 89.4375 33.710938 89.9375 35.171875 C 90.4375 36.636719 90.230469 38.210938 89.71875 39.382812 C 89.207031 40.554688 88.359375 41.570312 87.507812 42.523438 C 85.808594 44.421875 83.710938 46.15625 81.460938 47.914062 C 79.210938 49.671875 76.800781 51.269531 75.054688 52.773438 C 73.308594 54.28125 72.328125 55.820312 72.296875 55.914062 C 72.269531 56 72.109375 57.921875 72.625 60.125 C 73.140625 62.328125 73.972656 64.996094 74.746094 67.6875 C 75.519531 70.378906 76.253906 73.097656 76.492188 75.597656 C 76.613281 76.847656 76.75 78.039062 76.464844 79.28125 C 76.175781 80.523438 75.355469 81.863281 74.070312 82.773438 C 72.78125 83.683594 71.375 83.898438 70.0625 83.792969 C 68.75 83.6875 67.449219 83.371094 66.25 82.886719 C 63.851562 81.914062 61.4375 80.3125 59.011719 78.789062 C 56.582031 77.265625 54.164062 75.660156 52.140625 74.523438 C 50.113281 73.386719 48.25 72.914062 48.152344 72.914062 C 48.054688 72.914062 46.328125 73.484375 44.316406 74.636719 C 42.304688 75.789062 39.96875 77.429688 37.554688 78.96875 C 35.140625 80.511719 32.632812 81.953125 30.242188 82.949219 C 29.050781 83.441406 27.910156 83.851562 26.597656 83.96875 C 25.285156 84.085938 23.71875 83.785156 22.425781 82.882812 C 21.132812 81.984375 20.390625 80.769531 20.09375 79.53125 C 19.789062 78.292969 19.835938 76.921875 19.941406 75.671875 C 20.160156 73.167969 20.894531 70.484375 21.648438 67.785156 C 22.398438 65.089844 23.214844 62.46875 23.710938 60.261719 C 24.207031 58.050781 24.140625 56.136719 24.109375 56.050781 C 24.082031 55.960938 22.984375 54.535156 21.226562 53.042969 C 19.46875 51.554688 17.171875 49.820312 14.90625 48.082031 C 12.640625 46.34375 10.304688 44.652344 8.585938 42.765625 C 7.730469 41.824219 7.136719 40.761719 6.617188 39.59375 C 6.09375 38.425781 5.796875 37.019531 6.289062 35.554688 C 6.773438 34.085938 7.914062 33.078125 9.042969 32.417969 C 10.167969 31.761719 11.242188 31.328125 12.507812 31.042969 C 15.039062 30.46875 17.988281 30.203125 20.882812 30.054688 C 23.773438 29.914062 26.558594 29.820312 28.886719 29.59375 C 31.214844 29.367188 33.179688 28.808594 33.257812 28.75 C 33.335938 28.699219 34.363281 27.335938 35.289062 25.257812 C 36.214844 23.1875 37.25 20.53125 38.261719 17.914062 C 39.273438 15.296875 40.273438 12.726562 41.597656 10.570312 C 42.261719 9.492188 43 8.445312 43.984375 7.605469 C 44.976562 6.769531 46.40625 6.0625 48.003906 6.058594 Z M 47.945312 12.027344 C 47.691406 12.242188 47.304688 12.839844 46.84375 13.597656 C 45.914062 15.105469 44.855469 17.359375 43.878906 19.890625 C 42.898438 22.417969 41.960938 25.207031 40.902344 27.585938 C 39.839844 29.964844 39.015625 31.988281 36.851562 33.519531 C 34.683594 35.046875 32.230469 35.304688 29.558594 35.566406 C 26.890625 35.828125 23.984375 35.886719 21.191406 36.023438 C 18.390625 36.164062 15.679688 36.441406 13.910156 36.84375 C 13.023438 37.042969 12.375 37.1875 12.085938 37.355469 C 12.21875 37.65625 12.5625 38.285156 13.164062 38.945312 C 14.363281 40.261719 16.390625 41.867188 18.578125 43.550781 C 20.769531 45.226562 23.246094 46.984375 25.261719 48.691406 C 27.277344 50.398438 29.101562 51.882812 29.941406 54.34375 C 30.78125 56.804688 30.265625 59.003906 29.699219 61.535156 C 29.128906 64.066406 28.175781 66.804688 27.449219 69.414062 C 26.722656 72.023438 26.085938 74.496094 25.933594 76.246094 C 25.867188 77.042969 26.035156 77.65625 26.101562 78 C 26.460938 77.953125 27.160156 77.804688 27.925781 77.488281 C 29.59375 76.796875 31.804688 75.519531 34.136719 74.03125 C 36.472656 72.539062 38.960938 70.84375 41.265625 69.523438 C 43.578125 68.203125 45.515625 67.132812 48.199219 67.125 C 50.882812 67.113281 52.949219 68.160156 55.269531 69.460938 C 57.589844 70.761719 59.976562 72.433594 62.324219 73.90625 C 64.667969 75.378906 66.980469 76.609375 68.660156 77.289062 C 69.5 77.628906 70.136719 77.804688 70.472656 77.828125 C 70.535156 77.484375 70.5625 76.867188 70.492188 76.074219 C 70.324219 74.328125 69.660156 71.824219 68.910156 69.21875 C 68.164062 66.617188 67.386719 63.835938 66.800781 61.304688 C 66.210938 58.78125 65.679688 56.578125 66.5 54.109375 C 67.316406 51.644531 69.089844 50.257812 71.09375 48.53125 C 73.09375 46.808594 75.324219 45.019531 77.5 43.320312 C 79.679688 41.621094 81.808594 39.957031 83 38.628906 C 83.59375 37.960938 83.96875 37.355469 84.101562 37.058594 C 83.8125 36.890625 83.175781 36.710938 82.289062 36.515625 C 80.511719 36.128906 77.816406 35.875 75.019531 35.757812 C 72.226562 35.640625 69.332031 35.578125 66.660156 35.335938 C 63.988281 35.097656 61.578125 35.039062 59.402344 33.523438 C 57.222656 32.011719 56.171875 29.894531 55.089844 27.523438 C 54.003906 25.15625 53.066406 22.476562 52.0625 19.953125 C 51.0625 17.429688 50.152344 14.941406 49.210938 13.4375 C 48.738281 12.6875 48.203125 12.238281 47.949219 12.027344 Z M 47.945312 12.027344 "/>
<path style=" stroke:none;fill-rule:nonzero;fill:rgb(100%,100%,100%);fill-opacity:1;" d="M 48 9 C 53.5625 8.984375 56.613281 27.804688 61.125 30.9375 C 65.632812 34.070312 85.261719 31.09375 87 36.1875 C 88.738281 41.28125 71.070312 49.828125 69.375 54.9375 C 67.679688 60.042969 76.855469 77.078125 72.375 80.25 C 67.890625 83.417969 53.75 69.917969 48.1875 69.9375 C 48.140625 69.9375 48.050781 69.933594 48 69.9375 L 48 8.976562 Z M 48 9 "/>
</g>
</svg>
