<?xml version="1.0" encoding="UTF-8"?>
<svg xmlns="http://www.w3.org/2000/svg" xmlns:xlink="http://www.w3.org/1999/xlink" width="96" height="96" viewBox="0 0 96 96" version="1.1">
<g id="surface1">
<path style=" stroke:none;fill-rule:nonzero;fill:rgb(100%,100%,100%);fill-opacity:1;" d="M 73.726562 84.269531 C 68.859375 87.78125 53.789062 72.460938 47.789062 72.433594 C 41.785156 72.410156 26.585938 87.601562 21.738281 84.054688 C 16.898438 80.511719 26.808594 61.441406 24.976562 55.726562 C 23.148438 50.007812 4 40.25 5.875 34.542969 C 7.753906 28.84375 28.953125 32.378906 33.820312 28.871094 C 38.691406 25.367188 42.0625 4.136719 48.0625 4.160156 C 54.0625 4.183594 57.25 25.4375 62.09375 28.984375 C 66.933594 32.53125 88.164062 29.175781 89.996094 34.890625 C 91.832031 40.605469 72.601562 50.207031 70.726562 55.90625 C 68.847656 61.605469 78.597656 80.757812 73.726562 84.269531 Z M 73.726562 84.269531 "/>
</g>
</svg>
