<?xml version="1.0" encoding="UTF-8"?>
<svg xmlns="http://www.w3.org/2000/svg" xmlns:xlink="http://www.w3.org/1999/xlink" width="96" height="96" viewBox="0 0 96 96" version="1.1">
<g id="surface1">
<path style=" stroke:none;fill-rule:nonzero;fill:rgb(74.509804%,74.509804%,74.509804%);fill-opacity:1;" d="M 5.820312 15 L 5.820312 86.816406 C 5.820312 96 14.820312 96 14.820312 96 L 41.820312 96 L 41.820312 84 L 17.820312 84 L 17.820312 18 L 23.820312 18 L 23.820312 6 L 14.820312 6 C 14.820312 6 5.820312 6 5.820312 15 Z M 65.820312 6 L 65.820312 18 L 72.003906 18 L 72.003906 42.1875 L 83.820312 42 L 83.820312 15 C 83.820312 6 74.820312 6 74.820312 6 Z M 24.195312 30.1875 L 24.195312 72 L 41.820312 72 L 41.820312 53.988281 C 41.820312 53.988281 41.820312 42 53.820312 42 L 65.820312 42 L 65.820312 30 Z M 24.195312 30.1875 "/>
<path style=" stroke:none;fill-rule:nonzero;fill:rgb(74.509804%,74.509804%,74.509804%);fill-opacity:1;" d="M 33 0 L 56.816406 0 C 58.46875 0 59.816406 1.34375 59.816406 3 L 59.816406 21 C 59.816406 22.65625 58.46875 24 56.816406 24 L 33 24 C 31.34375 24 30 22.65625 30 21 L 30 3 C 30 1.34375 31.34375 0 33 0 Z M 33 0 "/>
<path style=" stroke:none;fill-rule:nonzero;fill:rgb(96.078431%,47.45098%,0%);fill-opacity:1;" d="M 53.820312 48 C 47.820312 48 47.820312 54 47.820312 54 L 47.820312 90 C 47.820312 90 47.820312 96 53.820312 96 L 89.820312 96 C 95.820312 96 95.820312 90 95.820312 90 L 95.820312 54 C 95.820312 48 89.820312 48 89.820312 48 Z M 65.820312 54 L 78.003906 54 L 78.003906 78 L 65.820312 78 Z M 65.820312 84 L 78.003906 84 L 77.820312 90 L 65.820312 90 Z M 65.820312 84 "/>
<path style=" stroke:none;fill-rule:nonzero;fill:rgb(100%,100%,100%);fill-opacity:1;" d="M 31.066406 23.035156 C 30.042969 22.011719 29.96875 21.105469 30.101562 11.117188 C 30.222656 1.710938 30.230469 1.628906 31.183594 0.859375 C 32.082031 0.128906 32.953125 0.0820312 44.929688 0.0820312 L 57.71875 0.0820312 L 58.71875 1.078125 L 59.714844 2.078125 L 59.714844 12.0625 C 59.714844 21.503906 59.671875 22.089844 58.902344 22.859375 C 58.121094 23.640625 57.546875 23.675781 44.898438 23.675781 C 33.453125 23.675781 31.621094 23.589844 31.066406 23.035156 Z M 31.066406 23.035156 "/>
<path style=" stroke:none;fill-rule:nonzero;fill:rgb(100%,100%,100%);fill-opacity:1;" d="M 24.324219 50.929688 L 24.324219 30.183594 L 65.816406 30.183594 L 65.816406 41.917969 L 57.78125 42.050781 C 48.59375 42.203125 47.738281 42.449219 44.78125 45.804688 C 42.101562 48.851562 41.816406 50.386719 41.816406 61.753906 L 41.816406 71.675781 L 24.324219 71.675781 Z M 24.324219 50.929688 "/>
<path style=" stroke:none;fill-rule:nonzero;fill:rgb(100%,100%,100%);fill-opacity:1;" d="M 11.328125 95.144531 C 9.394531 94.527344 6.96875 91.992188 6.441406 90.035156 C 6.144531 88.933594 6.042969 76.367188 6.117188 50.253906 C 6.222656 12.425781 6.230469 12.066406 7.074219 10.453125 C 7.601562 9.441406 8.667969 8.367188 9.886719 7.605469 C 11.792969 6.421875 12.023438 6.382812 17.683594 6.246094 L 23.511719 6.105469 L 23.511719 17.980469 L 17.816406 17.980469 L 17.816406 84.285156 L 41.816406 84.285156 L 41.816406 95.675781 L 27.273438 95.632812 C 17.929688 95.605469 12.230469 95.429688 11.328125 95.144531 Z M 11.328125 95.144531 "/>
<path style=" stroke:none;fill-rule:nonzero;fill:rgb(100%,100%,100%);fill-opacity:1;" d="M 72.324219 29.980469 L 72.324219 17.980469 L 65.816406 17.980469 L 65.816406 6.183594 L 71.03125 6.183594 C 77.304688 6.183594 79.367188 6.75 81.433594 9.035156 C 82.210938 9.894531 83.042969 11.300781 83.28125 12.15625 C 83.546875 13.113281 83.710938 19.132812 83.710938 27.84375 L 83.714844 41.980469 L 72.324219 41.980469 Z M 72.324219 29.980469 "/>
</g>
</svg>
