<?xml version="1.0" encoding="UTF-8"?>
<svg xmlns="http://www.w3.org/2000/svg" xmlns:xlink="http://www.w3.org/1999/xlink" width="96" height="96" viewBox="0 0 96 96" version="1.1">
<g id="surface1">
<path style=" stroke:none;fill-rule:nonzero;fill:rgb(74.509804%,74.509804%,74.509804%);fill-opacity:1;" d="M 14.820312 6 C 14.820312 6 5.820312 6 5.820312 15 L 5.820312 86.816406 C 5.820312 86.816406 5.820312 96 14.820312 96 L 59.820312 96 L 59.820312 84 L 17.820312 84 L 17.820312 18 L 23.820312 18 L 23.820312 6 Z M 65.820312 6 L 65.820312 18 L 71.820312 18 L 71.820312 60 L 83.820312 60 L 83.820312 15 C 83.820312 6 74.820312 6 74.820312 6 Z M 65.820312 6 "/>
<path style=" stroke:none;fill-rule:nonzero;fill:rgb(74.509804%,74.509804%,74.509804%);fill-opacity:1;" d="M 33 0 L 56.8125 0 C 58.46875 0 59.8125 1.34375 59.8125 3 L 59.8125 21 C 59.8125 22.65625 58.46875 24 56.8125 24 L 33 24 C 31.34375 24 30 22.65625 30 21 L 30 3 C 30 1.34375 31.34375 0 33 0 Z M 33 0 "/>
<path style=" stroke:none;fill-rule:nonzero;fill:rgb(74.509804%,74.509804%,74.509804%);fill-opacity:1;" d="M 65.820312 66 L 74.070312 66 L 80.820312 72.5625 L 87.359375 66.023438 L 95.820312 66.023438 L 95.820312 74.835938 L 89.253906 81.210938 L 95.796875 87.570312 L 95.796875 96.027344 L 87.15625 96.027344 L 80.796875 89.671875 L 74.4375 96.027344 L 65.796875 96.027344 L 65.796875 87.59375 L 72.171875 81.21875 L 65.8125 74.859375 L 65.8125 66.039062 Z M 65.820312 66 "/>
<path style=" stroke:none;fill-rule:nonzero;fill:rgb(100%,100%,100%);fill-opacity:1;" d="M 31.445312 23.363281 C 30.234375 22.554688 30.0625 21.101562 30.0625 11.683594 L 30.0625 2.078125 L 32.058594 0.0820312 L 57.757812 0.0820312 L 58.757812 1.078125 L 59.757812 2.078125 L 59.757812 11.683594 C 59.757812 21.101562 59.582031 22.554688 58.375 23.363281 C 58.128906 23.527344 52.066406 23.664062 44.910156 23.664062 C 37.75 23.664062 31.691406 23.527344 31.445312 23.363281 Z M 31.445312 23.363281 "/>
<path style=" stroke:none;fill-rule:nonzero;fill:rgb(100%,100%,100%);fill-opacity:1;" d="M 71.957031 38.929688 L 71.957031 17.980469 L 65.859375 17.980469 L 65.859375 6.183594 L 71.09375 6.183594 C 76.925781 6.183594 79.105469 6.699219 81.039062 8.539062 C 83.664062 11.03125 83.539062 9.730469 83.667969 35.980469 L 83.785156 59.878906 L 71.957031 59.878906 Z M 71.957031 38.929688 "/>
<path style=" stroke:none;fill-rule:nonzero;fill:rgb(100%,100%,100%);fill-opacity:1;" d="M 10.34375 94.746094 C 8.523438 93.714844 7.082031 91.804688 6.476562 89.621094 C 6.214844 88.683594 6.0625 74.394531 6.0625 50.28125 L 6.0625 12.414062 L 7.007812 10.621094 C 7.628906 9.441406 8.632812 8.40625 9.921875 7.605469 C 11.835938 6.421875 12.066406 6.382812 17.722656 6.246094 L 23.550781 6.105469 L 23.550781 17.980469 L 17.859375 17.980469 L 17.859375 84.285156 L 59.757812 84.285156 L 59.757812 95.675781 L 11.960938 95.660156 Z M 10.34375 94.746094 "/>
<path style=" stroke:none;fill-rule:nonzero;fill:rgb(100%,0%,0%);fill-opacity:1;" d="M 65.859375 91.902344 L 65.859375 87.722656 L 69.113281 84.488281 L 72.367188 81.25 L 69.113281 77.980469 L 65.859375 74.707031 L 65.859375 65.980469 L 69.847656 65.980469 C 73.78125 65.980469 73.859375 65.996094 75.035156 67.238281 C 75.691406 67.929688 77.296875 69.425781 78.597656 70.558594 L 80.964844 72.617188 L 84.300781 69.296875 L 87.636719 65.980469 L 95.550781 65.980469 L 95.550781 74.707031 L 92.277344 78 L 89.003906 81.289062 L 95.550781 87.546875 L 95.550781 96.082031 L 87.316406 96.082031 L 80.667969 89.589844 L 74.214844 96.082031 L 65.859375 96.082031 Z M 65.859375 91.902344 "/>
</g>
</svg>
