<?xml version="1.0" encoding="UTF-8"?>
<svg xmlns="http://www.w3.org/2000/svg" xmlns:xlink="http://www.w3.org/1999/xlink" width="96" height="96" viewBox="0 0 96 96" version="1.1">
<g id="surface1">
<path style=" stroke:none;fill-rule:nonzero;fill:rgb(100%,100%,100%);fill-opacity:1;" d="M 40.5625 8.0625 C 39.023438 8.0625 37.804688 8.882812 37.0625 9.875 C 36.320312 10.867188 36 12.007812 36 13.0625 L 36 20 L 24.5 20 C 20.914062 20 18 22.914062 18 26.5 L 18 79.5 C 18 83.085938 20.914062 86 24.5 86 L 73.5 86 C 77.085938 86 80 83.085938 80 79.5 L 80 26.5 C 80 22.914062 77.085938 20 73.5 20 L 62 20 L 62 13.125 C 62 12.023438 61.609375 10.875 60.875 9.9375 C 60.140625 9 59 8.25 57.625 8.25 Z M 40.5625 10.0625 L 57.625 10.25 C 58.265625 10.25 58.851562 10.601562 59.3125 11.1875 C 59.773438 11.773438 60 12.585938 60 13.125 L 60 21.125 L 60.375 21.375 L 60.75 21.6875 C 60.773438 21.710938 60.789062 21.726562 60.8125 21.75 L 65.6875 25.625 C 65.664062 25.914062 65.671875 26.28125 65.5 26.875 C 65.390625 27.273438 65.210938 27.632812 65.0625 27.8125 C 64.914062 27.992188 64.90625 28.007812 64.75 28 L 33.5 28 C 33.484375 28 33.453125 28 33.4375 28 C 33.375 27.992188 33.351562 27.960938 33.25 27.8125 C 33.125 27.632812 33.015625 27.3125 32.9375 26.9375 C 32.8125 26.359375 32.8125 26.007812 32.8125 25.75 L 36.3125 22.75 L 37.5 21.75 C 37.515625 21.734375 37.484375 21.703125 37.5 21.6875 L 37.625 21.625 L 38 21.3125 L 38 13.0625 C 38 12.492188 38.234375 11.664062 38.6875 11.0625 C 39.140625 10.460938 39.679688 10.0625 40.5625 10.0625 Z M 27.875 26 L 30.8125 26 C 30.84375 26.375 30.890625 26.867188 31 27.375 C 31.109375 27.90625 31.265625 28.414062 31.625 28.9375 C 31.984375 29.460938 32.59375 29.960938 33.375 30 L 64.6875 30 C 65.507812 30.039062 66.203125 29.578125 66.625 29.0625 C 67.046875 28.546875 67.28125 27.992188 67.4375 27.4375 C 67.585938 26.90625 67.648438 26.40625 67.6875 26 L 70.125 26 C 71.171875 26 72 26.828125 72 27.875 L 72 68.5 C 69.28125 69.226562 67.570312 70.125 64.0625 69.1875 C 63.734375 69.101562 63.375 69.210938 63.125 69.4375 C 62.875 69.664062 62.757812 69.976562 62.8125 70.3125 L 64.1875 78 L 27.875 78 C 26.828125 78 26 77.171875 26 76.125 L 26 27.875 C 26 26.828125 26.828125 26 27.875 26 Z M 49 41 C 47.5 41 46 42 46 44 L 46 58 L 52 58 L 52 44 C 52 42 50.5 41 49 41 Z M 49 59.875 C 47.226562 59.875 46.03125 61.125 46 62.9375 C 46 64.679688 47.1875 66 49 66 C 50.78125 66 52 64.679688 52 62.9375 C 52 61.125 50.78125 59.875 49 59.875 Z M 70.4375 71 C 69.773438 71.84375 69.367188 72.328125 68.4375 73.5 L 65.9375 76.625 L 64.9375 71.125 C 67.054688 71.429688 68.882812 71.421875 70.4375 71 Z M 70.4375 71 "/>
</g>
</svg>
