<?xml version="1.0" encoding="UTF-8"?>
<svg xmlns="http://www.w3.org/2000/svg" xmlns:xlink="http://www.w3.org/1999/xlink" width="96" height="96" viewBox="0 0 96 96" version="1.1">
<g id="surface1">
<path style=" stroke:none;fill-rule:nonzero;fill:rgb(100%,100%,100%);fill-opacity:1;" d="M 78 90 L 78 63 L 57 63 Z M 78 90 "/>
<path style=" stroke:none;fill-rule:nonzero;fill:rgb(100%,100%,100%);fill-opacity:1;" d="M 21 6 C 12.691406 6 6 12.691406 6 21 L 6 51 C 6 59.308594 12.691406 66 21 66 L 75 66 C 83.308594 66 90 59.308594 90 51 L 90 21 C 90 12.691406 83.308594 6 75 6 Z M 30 18 L 36 18 C 37.65625 18 39.226562 18.601562 40.3125 19.6875 L 48 27.375 L 55.6875 19.6875 C 56.769531 18.605469 58.34375 18.007812 60 18.007812 L 66 18.007812 L 66 24.007812 C 66 25.664062 65.398438 27.234375 64.3125 28.320312 L 56.628906 36 L 64.316406 43.6875 C 65.398438 44.773438 66.003906 46.34375 66.003906 48 L 66.003906 54 L 60.003906 54 C 58.34375 54 56.773438 53.398438 55.691406 52.3125 L 48.003906 44.625 L 40.316406 52.3125 C 39.226562 53.394531 37.65625 53.992188 36 53.992188 L 30 53.992188 L 30 47.992188 C 30 46.335938 30.601562 44.765625 31.6875 43.679688 L 39.382812 36 L 31.6875 28.320312 C 30.601562 27.242188 30.003906 25.679688 30.003906 24 L 30.003906 18 Z M 30 18 "/>
</g>
</svg>
