<?xml version="1.0" encoding="UTF-8"?>
<svg xmlns="http://www.w3.org/2000/svg" xmlns:xlink="http://www.w3.org/1999/xlink" width="96" height="96" viewBox="0 0 96 96" version="1.1">
<g id="surface1">
<path style=" stroke:none;fill-rule:nonzero;fill:rgb(100%,100%,100%);fill-opacity:1;" d="M 24 12 L 24 6.1875 L 66 6.1875 L 66 12 Z M 20.8125 0.1875 C 17.871094 0.1875 16.039062 1.558594 14.625 3 C 13.210938 4.441406 12 6.351562 12 9.1875 L 12 12 L 0 12 L 0 24 L 90 24 L 90 12 L 78 12 L 78 9.75 C 77.855469 7.167969 76.976562 5.234375 75.5625 3.5625 C 74.21875 1.972656 71.804688 0.386719 68.625 0.375 L 68.625 0.1875 Z M 71.992188 30.007812 L 83.992188 30.007812 C 94.035156 47.570312 90.816406 65.132812 83.992188 82.691406 C 81.414062 89.414062 78.109375 96.015625 70.851562 96.015625 L 19.101562 96.015625 C 11.871094 96.015625 8.445312 89.472656 5.976562 82.703125 C -0.273438 65.53125 -3.617188 48.175781 5.976562 30.015625 L 17.976562 30.015625 C 7.648438 47.703125 12.066406 65.835938 17.976562 84.015625 L 71.976562 84.015625 C 78.554688 65.816406 81.765625 47.71875 71.976562 30.015625 Z M 42.179688 29.910156 L 42.179688 78.003906 L 47.992188 78.003906 L 47.992188 29.910156 Z M 53.992188 29.910156 C 64.5625 43.25 58.972656 63.695312 53.992188 78.003906 L 59.992188 78.003906 C 64.941406 64.15625 71.03125 44.242188 59.992188 29.910156 Z M 30.179688 29.910156 C 19.277344 45.558594 25.042969 64.785156 30.179688 78.003906 L 35.992188 78.003906 C 30.800781 64.675781 26.015625 45.195312 35.992188 29.910156 Z M 30.179688 29.910156 "/>
</g>
</svg>
