<?xml version="1.0" encoding="UTF-8"?>
<svg xmlns="http://www.w3.org/2000/svg" xmlns:xlink="http://www.w3.org/1999/xlink" width="96" height="96" viewBox="0 0 96 96" version="1.1">
<g id="surface1">
<path style=" stroke:none;fill-rule:nonzero;fill:rgb(100%,100%,100%);fill-opacity:1;" d="M 21 6 C 12.691406 6 6 12.691406 6 21 L 6 51 C 6 59.308594 12.691406 66 21 66 L 59.25 66 L 78 90 L 78 65.625 C 84.847656 64.230469 90 58.269531 90 51 L 90 21 C 90 12.691406 83.308594 6 75 6 Z M 21 18 L 75 18 C 76.660156 18 78 19.339844 78 21 L 78 51 C 78 52.660156 76.660156 54 75 54 L 21 54 C 19.339844 54 18 52.660156 18 51 L 18 21 C 18 19.339844 19.339844 18 21 18 Z M 21 18 "/>
</g>
</svg>
