<?xml version="1.0" encoding="UTF-8"?>
<svg xmlns="http://www.w3.org/2000/svg" xmlns:xlink="http://www.w3.org/1999/xlink" width="96" height="96" viewBox="0 0 96 96" version="1.1">
<g id="surface1">
<path style=" stroke:none;fill-rule:nonzero;fill:rgb(100%,100%,100%);fill-opacity:1;" d="M 10.679688 30 C 8.441406 30.40625 6.625 32.042969 5.988281 34.226562 C 5.351562 36.414062 6.007812 38.769531 7.679688 40.3125 L 19.679688 52.3125 L 23.992188 56.4375 L 28.304688 52.3125 L 40.304688 40.3125 C 41.867188 38.777344 42.484375 36.523438 41.921875 34.402344 C 41.359375 32.285156 39.710938 30.628906 37.589844 30.070312 C 35.472656 29.507812 33.21875 30.125 31.679688 31.6875 L 24 39.367188 L 16.320312 31.6875 C 14.863281 30.179688 12.722656 29.542969 10.679688 30.007812 Z M 10.679688 30 "/>
<path style=" stroke:none;fill-rule:nonzero;fill:rgb(100%,100%,100%);fill-opacity:1;" d="M 36 6 C 26.132812 6 18 14.132812 18 24 L 18 48 L 30 48 L 30 24 C 30 20.570312 32.570312 18 36 18 L 60 18 C 63.425781 18 66 20.570312 66 24 L 66 72 C 66 75.425781 63.425781 78 60 78 L 36 78 L 36 90 L 60 90 C 69.867188 90 78 81.867188 78 72 L 78 24 C 78 14.132812 69.867188 6 60 6 Z M 36 6 "/>
<path style=" stroke:none;fill-rule:nonzero;fill:rgb(100%,100%,100%);fill-opacity:1;" d="M 42 36 L 42 30 L 36 30 L 36 36 Z M 42 36 "/>
<path style=" stroke:none;fill-rule:nonzero;fill:rgb(100%,100%,100%);fill-opacity:1;" d="M 12 36 L 12 30 L 6 30 L 6 36 Z M 12 36 "/>
</g>
</svg>
