<?xml version="1.0" encoding="UTF-8"?>
<svg xmlns="http://www.w3.org/2000/svg" xmlns:xlink="http://www.w3.org/1999/xlink" width="96" height="96" viewBox="0 0 96 96" version="1.1">
<g id="surface1">
<path style=" stroke:none;fill-rule:nonzero;fill:rgb(74.509804%,74.509804%,74.509804%);fill-opacity:1;" d="M 57 12 C 49.296875 12 43.039062 17.839844 42.1875 25.3125 C 40.207031 24.59375 38.226562 23.992188 36.007812 23.992188 C 26.066406 23.992188 18.007812 32.050781 18.007812 41.992188 C 18.007812 42.582031 18.140625 43.105469 18.195312 43.679688 C 16.394531 42.601562 14.234375 42 12.015625 42 C 5.386719 42 0.015625 47.375 0.015625 54 C 0.015625 60.625 5.386719 66 12.015625 66 L 42.015625 66 L 42.015625 53.25 C 42.015625 47.1875 47.203125 42 53.265625 42 L 83.640625 42 C 82.386719 36.085938 77.644531 31.449219 71.640625 30.375 C 71.890625 29.289062 72.015625 28.164062 72.015625 27 C 72.015625 18.714844 65.300781 12 57.015625 12 Z M 57 12 "/>
<path style=" stroke:none;fill-rule:nonzero;fill:rgb(96.078431%,47.45098%,0%);fill-opacity:1;" d="M 53.28125 48 C 50.324219 48 48.03125 50.292969 48.03125 53.25 L 48.03125 90.75 C 48.03125 93.707031 50.324219 96 53.28125 96 L 90.78125 96 C 93.734375 96 96.027344 93.707031 96.027344 90.75 L 96.027344 53.25 C 96.027344 50.292969 93.734375 48 90.78125 48 Z M 66.03125 54 L 78.03125 54 L 78.03125 78 L 66.03125 78 Z M 66.03125 84 L 78.03125 84 L 78.03125 90 L 66.03125 90 Z M 66.03125 84 "/>
</g>
</svg>
