<?xml version="1.0" encoding="UTF-8"?>
<svg xmlns="http://www.w3.org/2000/svg" xmlns:xlink="http://www.w3.org/1999/xlink" width="96" height="96" viewBox="0 0 96 96" version="1.1">
<g id="surface1">
<path style=" stroke:none;fill-rule:nonzero;fill:rgb(74.509804%,74.509804%,74.509804%);fill-opacity:1;" d="M 56.820312 0 C 49.179688 0 42.976562 5.839844 42.132812 13.3125 C 40.152344 12.59375 38.171875 11.996094 35.949219 11.996094 C 26.09375 11.996094 18.101562 20.050781 18.101562 29.992188 C 18.101562 30.582031 18.230469 31.105469 18.285156 31.679688 C 16.484375 30.601562 14.382812 30 12.167969 30 C 5.59375 30 0.265625 35.375 0.265625 42 C 0.265625 48.625 5.59375 54 12.167969 54 L 86.542969 54 C 91.46875 54 95.46875 49.972656 95.46875 45 C 95.46875 40.027344 91.46875 36 86.542969 36 C 85.308594 36 84.074219 36.296875 83.007812 36.75 C 83.324219 35.539062 83.566406 34.308594 83.566406 33 C 83.566406 25.625 78.25 19.632812 71.292969 18.375 C 71.542969 17.289062 71.664062 16.164062 71.664062 15 C 71.664062 6.714844 65.007812 0 56.789062 0 Z M 56.820312 0 "/>
<path style=" stroke:none;fill-rule:nonzero;fill:rgb(0%,100%,100%);fill-opacity:1;" d="M 14.460938 60 C 13.195312 60.203125 12.203125 61.195312 12 62.460938 L 6 91.898438 C 5.664062 92.984375 5.984375 94.171875 6.816406 94.949219 C 7.648438 95.722656 8.855469 95.957031 9.917969 95.546875 C 10.980469 95.136719 11.714844 94.15625 11.8125 93.023438 L 17.8125 63.585938 C 18.03125 62.621094 17.757812 61.617188 17.085938 60.894531 C 16.414062 60.175781 15.429688 59.832031 14.453125 59.984375 Z M 14.460938 60 "/>
<path style=" stroke:none;fill-rule:nonzero;fill:rgb(0%,100%,100%);fill-opacity:1;" d="M 26.460938 60 C 25.195312 60.203125 24.203125 61.195312 24 62.460938 L 18 91.898438 C 17.664062 92.984375 17.984375 94.171875 18.816406 94.949219 C 19.648438 95.722656 20.851562 95.957031 21.917969 95.546875 C 22.980469 95.136719 23.714844 94.15625 23.8125 93.023438 L 29.992188 63.5 C 30.207031 62.511719 29.902344 61.480469 29.1875 60.765625 C 28.472656 60.050781 27.441406 59.75 26.453125 59.960938 Z M 26.460938 60 "/>
<path style=" stroke:none;fill-rule:nonzero;fill:rgb(0%,100%,100%);fill-opacity:1;" d="M 38.460938 60 C 37.195312 60.203125 36.203125 61.195312 36 62.460938 L 30 91.898438 C 29.6875 93.554688 30.78125 95.148438 32.4375 95.460938 C 34.09375 95.769531 35.6875 94.679688 36 93.023438 L 42 63.585938 C 42.242188 62.585938 41.945312 61.535156 41.226562 60.800781 C 40.507812 60.074219 39.460938 59.761719 38.460938 59.984375 Z M 38.460938 60 "/>
<path style=" stroke:none;fill-rule:nonzero;fill:rgb(0%,100%,100%);fill-opacity:1;" d="M 50.460938 60 C 49.195312 60.203125 48.203125 61.195312 48 62.460938 L 42 91.898438 C 41.6875 93.554688 42.78125 95.148438 44.4375 95.460938 C 46.09375 95.769531 47.6875 94.679688 48 93.023438 L 54 63.585938 C 54.238281 62.585938 53.945312 61.535156 53.226562 60.800781 C 52.507812 60.074219 51.460938 59.761719 50.460938 59.984375 Z M 50.460938 60 "/>
<path style=" stroke:none;fill-rule:nonzero;fill:rgb(0%,100%,100%);fill-opacity:1;" d="M 62.460938 60 C 61.285156 60.28125 60.394531 61.246094 60.210938 62.4375 L 53.96875 91.835938 C 53.660156 93.496094 54.75 95.089844 56.40625 95.398438 C 58.0625 95.710938 59.660156 94.621094 59.96875 92.960938 L 65.96875 63.523438 C 66.183594 62.535156 65.882812 61.503906 65.164062 60.789062 C 64.449219 60.074219 63.417969 59.769531 62.429688 59.984375 Z M 62.460938 60 "/>
<path style=" stroke:none;fill-rule:nonzero;fill:rgb(0%,100%,100%);fill-opacity:1;" d="M 74.460938 60 C 73.285156 60.28125 72.394531 61.246094 72.210938 62.4375 L 66.210938 91.875 C 65.785156 92.988281 66.066406 94.246094 66.925781 95.070312 C 67.78125 95.898438 69.046875 96.136719 70.144531 95.675781 C 71.242188 95.214844 71.960938 94.144531 71.96875 92.957031 L 77.96875 63.519531 C 78.183594 62.527344 77.882812 61.496094 77.164062 60.78125 C 76.449219 60.066406 75.417969 59.761719 74.429688 59.976562 Z M 74.460938 60 "/>
</g>
</svg>
