<?xml version="1.0" encoding="UTF-8"?>
<svg xmlns="http://www.w3.org/2000/svg" xmlns:xlink="http://www.w3.org/1999/xlink" width="96" height="96" viewBox="0 0 96 96" version="1.1">
<g id="surface1">
<path style=" stroke:none;fill-rule:nonzero;fill:rgb(74.509804%,74.509804%,74.509804%);fill-opacity:1;" d="M 47.976562 17.941406 C 31.480469 17.941406 17.9375 31.480469 17.9375 47.976562 C 17.9375 64.476562 31.480469 78.015625 47.976562 78.015625 C 64.472656 78.015625 78.015625 64.472656 78.015625 47.976562 C 78.015625 31.480469 64.472656 17.941406 47.976562 17.941406 Z M 47.976562 17.941406 "/>
<path style=" stroke:none;fill-rule:nonzero;fill:rgb(74.509804%,74.509804%,74.509804%);fill-opacity:1;" d="M 3.375 42 L 8.625 42 C 10.488281 42 12 43.511719 12 45.375 L 12 50.625 C 12 52.488281 10.488281 54 8.625 54 L 3.375 54 C 1.511719 54 0 52.488281 0 50.625 L 0 45.375 C 0 43.511719 1.511719 42 3.375 42 Z M 3.375 42 "/>
<path style=" stroke:none;fill-rule:nonzero;fill:rgb(74.509804%,74.509804%,74.509804%);fill-opacity:1;" d="M 87.375 42 L 92.625 42 C 94.488281 42 96 43.511719 96 45.375 L 96 50.625 C 96 52.488281 94.488281 54 92.625 54 L 87.375 54 C 85.511719 54 84 52.488281 84 50.625 L 84 45.375 C 84 43.511719 85.511719 42 87.375 42 Z M 87.375 42 "/>
<path style=" stroke:none;fill-rule:nonzero;fill:rgb(74.509804%,74.509804%,74.509804%);fill-opacity:1;" d="M 54 3.375 L 54 8.625 C 54 10.488281 52.488281 12 50.625 12 L 45.375 12 C 43.511719 12 42 10.488281 42 8.625 L 42 3.375 C 42 1.511719 43.511719 0 45.375 0 L 50.625 0 C 52.488281 0 54 1.511719 54 3.375 Z M 54 3.375 "/>
<path style=" stroke:none;fill-rule:nonzero;fill:rgb(74.509804%,74.509804%,74.509804%);fill-opacity:1;" d="M 54 87.375 L 54 92.625 C 54 94.488281 52.488281 96 50.625 96 L 45.375 96 C 43.511719 96 42 94.488281 42 92.625 L 42 87.375 C 42 85.511719 43.511719 84 45.375 84 L 50.625 84 C 52.488281 84 54 85.511719 54 87.375 Z M 54 87.375 "/>
<path style=" stroke:none;fill-rule:nonzero;fill:rgb(74.509804%,74.509804%,74.509804%);fill-opacity:1;" d="M 83.804688 20.664062 L 80.089844 24.378906 C 78.773438 25.695312 76.632812 25.695312 75.316406 24.378906 L 71.605469 20.664062 C 70.285156 19.347656 70.285156 17.210938 71.605469 15.894531 L 75.316406 12.179688 C 76.632812 10.863281 78.773438 10.863281 80.089844 12.179688 L 83.804688 15.894531 C 85.121094 17.210938 85.121094 19.347656 83.804688 20.664062 Z M 83.804688 20.664062 "/>
<path style=" stroke:none;fill-rule:nonzero;fill:rgb(74.509804%,74.509804%,74.509804%);fill-opacity:1;" d="M 24.40625 80.0625 L 20.691406 83.777344 C 19.375 85.09375 17.238281 85.09375 15.921875 83.777344 L 12.207031 80.0625 C 10.890625 78.746094 10.890625 76.609375 12.207031 75.289062 L 15.921875 71.578125 C 17.238281 70.257812 19.375 70.257812 20.691406 71.578125 L 24.40625 75.289062 C 25.722656 76.609375 25.722656 78.746094 24.40625 80.0625 Z M 24.40625 80.0625 "/>
<path style=" stroke:none;fill-rule:nonzero;fill:rgb(74.509804%,74.509804%,74.509804%);fill-opacity:1;" d="M 20.664062 12.207031 L 24.378906 15.921875 C 25.695312 17.242188 25.695312 19.375 24.378906 20.695312 L 20.664062 24.40625 C 19.347656 25.726562 17.210938 25.726562 15.894531 24.40625 L 12.179688 20.695312 C 10.863281 19.375 10.863281 17.242188 12.179688 15.921875 L 15.894531 12.207031 C 17.210938 10.894531 19.347656 10.894531 20.664062 12.207031 Z M 20.664062 12.207031 "/>
<path style=" stroke:none;fill-rule:nonzero;fill:rgb(74.509804%,74.509804%,74.509804%);fill-opacity:1;" d="M 80.0625 71.605469 L 83.777344 75.320312 C 85.09375 76.636719 85.09375 78.773438 83.777344 80.09375 L 80.0625 83.804688 C 78.746094 85.121094 76.609375 85.121094 75.289062 83.804688 L 71.578125 80.09375 C 70.257812 78.773438 70.257812 76.636719 71.578125 75.320312 L 75.289062 71.605469 C 76.609375 70.289062 78.746094 70.289062 80.0625 71.605469 Z M 80.0625 71.605469 "/>
<path style=" stroke:none;fill-rule:nonzero;fill:rgb(100%,40%,0%);fill-opacity:1;" d="M 44.5 11.828125 C 43.4375 11.535156 42.53125 10.65625 42.222656 9.617188 C 41.953125 8.710938 41.945312 3.285156 42.214844 2.382812 C 42.453125 1.578125 43.164062 0.761719 43.945312 0.398438 C 44.554688 0.113281 44.65625 0.109375 48.03125 0.105469 C 51.304688 0.105469 51.515625 0.121094 52.03125 0.367188 C 52.675781 0.679688 53.316406 1.308594 53.628906 1.9375 C 53.828125 2.339844 53.863281 2.796875 53.894531 5.785156 C 53.933594 9.535156 53.886719 9.855469 53.175781 10.753906 C 52.957031 11.03125 52.492188 11.386719 52.085938 11.585938 L 51.378906 11.929688 L 48.222656 11.957031 C 45.992188 11.976562 44.898438 11.9375 44.5 11.828125 Z M 44.5 11.828125 "/>
<path style=" stroke:none;fill-rule:nonzero;fill:rgb(100%,40%,0%);fill-opacity:1;" d="M 77.011719 25.257812 C 76.15625 25.035156 75.632812 24.617188 73.390625 22.355469 C 71.152344 20.101562 71.019531 19.9375 70.820312 19.25 C 70.679688 18.769531 70.632812 18.324219 70.679688 17.96875 C 70.835938 16.835938 71.171875 16.367188 73.394531 14.125 C 75.792969 11.710938 76.472656 11.25 77.628906 11.25 C 78.96875 11.25 79.277344 11.449219 81.789062 13.933594 C 84.476562 16.589844 84.6875 16.914062 84.6875 18.308594 C 84.683594 19.015625 84.621094 19.351562 84.414062 19.730469 C 84.050781 20.410156 79.601562 24.808594 79.042969 25.042969 C 78.484375 25.277344 77.492188 25.378906 77.011719 25.257812 Z M 77.011719 25.257812 "/>
<path style=" stroke:none;fill-rule:nonzero;fill:rgb(100%,40%,0%);fill-opacity:1;" d="M 86.257812 53.734375 C 85.480469 53.464844 84.738281 52.785156 84.34375 51.988281 C 84.078125 51.449219 84.070312 51.296875 84.070312 48.023438 L 84.070312 44.617188 L 84.417969 43.910156 C 84.609375 43.519531 84.96875 43.035156 85.21875 42.828125 C 86.074219 42.125 86.46875 42.066406 90.21875 42.105469 C 93.988281 42.148438 94.070312 42.164062 94.972656 43.039062 C 95.859375 43.902344 95.886719 44.070312 95.890625 47.960938 C 95.890625 51.34375 95.886719 51.445312 95.601562 52.054688 C 95.441406 52.398438 95.066406 52.886719 94.773438 53.140625 C 93.902344 53.886719 93.421875 53.96875 89.957031 53.964844 C 87.332031 53.960938 86.828125 53.929688 86.257812 53.734375 Z M 86.257812 53.734375 "/>
<path style=" stroke:none;fill-rule:nonzero;fill:rgb(100%,40%,0%);fill-opacity:1;" d="M 76.984375 84.671875 C 76.699219 84.613281 76.339844 84.5 76.179688 84.421875 C 75.6875 84.167969 71.246094 79.683594 70.984375 79.175781 C 70.621094 78.476562 70.554688 77.429688 70.820312 76.613281 C 71.015625 76.011719 71.28125 75.703125 73.46875 73.515625 C 75.648438 71.335938 75.964844 71.066406 76.558594 70.871094 C 77.359375 70.609375 78.40625 70.660156 79.117188 70.996094 C 79.410156 71.128906 80.519531 72.125 81.8125 73.398438 C 84.378906 75.929688 84.695312 76.410156 84.671875 77.742188 C 84.664062 78.199219 84.566406 78.761719 84.445312 79.042969 C 84.125 79.789062 79.808594 84.09375 79.066406 84.410156 C 78.335938 84.71875 77.640625 84.804688 76.984375 84.671875 Z M 76.984375 84.671875 "/>
<path style=" stroke:none;fill-rule:nonzero;fill:rgb(100%,40%,0%);fill-opacity:1;" d="M 44.300781 95.78125 C 43.5625 95.507812 42.847656 94.890625 42.464844 94.203125 L 42.09375 93.53125 L 42.09375 86.472656 L 42.464844 85.800781 C 42.882812 85.046875 43.679688 84.394531 44.445312 84.179688 C 44.773438 84.085938 46.074219 84.054688 48.285156 84.082031 C 51.203125 84.113281 51.679688 84.144531 52.027344 84.335938 C 52.726562 84.71875 53.328125 85.335938 53.628906 85.972656 C 53.910156 86.578125 53.914062 86.695312 53.914062 90 C 53.914062 93.316406 53.910156 93.421875 53.625 94.03125 C 53.464844 94.375 53.097656 94.859375 52.808594 95.109375 C 51.894531 95.886719 51.554688 95.945312 47.921875 95.9375 C 45.78125 95.929688 44.5625 95.875 44.300781 95.78125 Z M 44.300781 95.78125 "/>
<path style=" stroke:none;fill-rule:nonzero;fill:rgb(100%,40%,0%);fill-opacity:1;" d="M 17.207031 84.523438 C 16.511719 84.277344 15.847656 83.714844 13.835938 81.671875 C 11.542969 79.351562 11.328125 79.011719 11.328125 77.679688 C 11.328125 76.308594 11.527344 76.003906 14.085938 73.445312 C 16.582031 70.949219 16.964844 70.691406 18.179688 70.6875 C 19.585938 70.679688 19.703125 70.757812 22.328125 73.339844 C 25.027344 75.996094 25.316406 76.410156 25.3125 77.679688 C 25.308594 78.910156 25.058594 79.289062 22.554688 81.8125 C 20 84.382812 19.5625 84.679688 18.320312 84.664062 C 17.914062 84.660156 17.40625 84.597656 17.207031 84.523438 Z M 17.207031 84.523438 "/>
<path style=" stroke:none;fill-rule:nonzero;fill:rgb(100%,40%,0%);fill-opacity:1;" d="M 2.453125 53.835938 C 1.625 53.589844 0.882812 52.953125 0.453125 52.117188 L 0.0429688 51.320312 L 0.078125 47.84375 C 0.113281 44.804688 0.144531 44.324219 0.335938 43.972656 C 0.71875 43.273438 1.335938 42.671875 1.972656 42.371094 C 2.574219 42.089844 2.691406 42.085938 6 42.085938 C 9.304688 42.085938 9.421875 42.089844 10.027344 42.371094 C 10.664062 42.671875 11.28125 43.273438 11.664062 43.972656 C 11.855469 44.320312 11.886719 44.796875 11.917969 47.714844 C 11.945312 49.925781 11.914062 51.226562 11.820312 51.554688 C 11.605469 52.320312 10.953125 53.117188 10.199219 53.535156 L 9.527344 53.90625 L 6.183594 53.929688 C 4.34375 53.941406 2.664062 53.898438 2.453125 53.835938 Z M 2.453125 53.835938 "/>
<path style=" stroke:none;fill-rule:nonzero;fill:rgb(100%,40%,0%);fill-opacity:1;" d="M 17.160156 25.132812 C 16.578125 24.925781 16.195312 24.601562 14.152344 22.5625 C 11.511719 19.925781 11.273438 19.574219 11.273438 18.308594 C 11.273438 17.03125 11.503906 16.691406 14.195312 14.015625 C 16.46875 11.757812 16.621094 11.632812 17.316406 11.433594 C 18.195312 11.175781 19 11.246094 19.765625 11.628906 C 20.507812 12 24.449219 15.925781 24.902344 16.742188 C 25.203125 17.28125 25.253906 17.515625 25.253906 18.308594 C 25.253906 19.09375 25.203125 19.328125 24.902344 19.871094 C 24.441406 20.699219 20.507812 24.613281 19.75 24.992188 C 18.988281 25.375 17.992188 25.433594 17.160156 25.132812 Z M 17.160156 25.132812 "/>
<path style=" stroke:none;fill-rule:nonzero;fill:rgb(100%,100%,0%);fill-opacity:1;" d="M 45.375 77.855469 C 41.664062 77.503906 38.429688 76.597656 35.023438 74.960938 C 26.121094 70.683594 19.84375 62.21875 18.3125 52.421875 C 18.039062 50.6875 17.945312 46.921875 18.125 45.109375 C 19.527344 31.089844 30.527344 19.886719 44.570312 18.175781 C 46.164062 17.980469 49.789062 17.980469 51.378906 18.175781 C 64.859375 19.820312 75.53125 30.144531 77.65625 43.578125 C 77.96875 45.574219 77.96875 50.355469 77.65625 52.351562 C 76.117188 62.085938 70.089844 70.363281 61.320312 74.78125 C 56.398438 77.257812 50.6875 78.359375 45.375 77.855469 Z M 45.375 77.855469 "/>
</g>
</svg>
