<?xml version="1.0" encoding="UTF-8"?>
<svg xmlns="http://www.w3.org/2000/svg" xmlns:xlink="http://www.w3.org/1999/xlink" width="96" height="96" viewBox="0 0 96 96" version="1.1">
<g id="surface1">
<path style=" stroke:none;fill-rule:nonzero;fill:rgb(50.196078%,50.196078%,50.196078%);fill-opacity:1;" d="M 57.058594 0.242188 C 49.421875 0.242188 43.21875 6.078125 42.371094 13.554688 C 40.425781 12.820312 38.433594 12.242188 36.238281 12.242188 C 26.378906 12.242188 18.386719 20.300781 18.386719 30.242188 C 18.386719 30.832031 18.519531 31.355469 18.574219 31.929688 C 16.789062 30.855469 14.664062 30.242188 12.4375 30.242188 C 5.867188 30.242188 0.539062 35.617188 0.539062 42.242188 C 0.539062 48.875 5.429688 53.980469 12.003906 53.980469 L 42.003906 53.980469 L 42.003906 44.980469 C 41.90625 40.265625 46.4375 36.152344 51.109375 36.054688 C 55.90625 35.953125 60.105469 40.140625 60.003906 44.980469 L 60.003906 53.980469 L 87.003906 53.980469 C 91.933594 53.980469 95.734375 50.214844 95.734375 45.242188 C 95.734375 40.273438 91.738281 36.242188 86.808594 36.242188 C 85.574219 36.242188 84.34375 36.539062 83.277344 36.992188 C 83.589844 35.78125 83.832031 34.554688 83.832031 33.242188 C 83.832031 25.867188 78.519531 19.871094 71.5625 18.617188 C 71.8125 17.527344 71.9375 16.40625 71.9375 15.242188 C 71.9375 6.957031 65.273438 0.242188 57.0625 0.242188 Z M 57.058594 0.242188 "/>
<path style=" stroke:none;fill-rule:nonzero;fill:rgb(74.509804%,74.509804%,74.509804%);fill-opacity:1;" d="M 50.460938 42 C 49.015625 42.265625 47.972656 43.53125 48 45 L 48 60 L 30 60 L 30 66 L 19.6875 66 L 18.9375 66.9375 L 3.9375 81.9375 C 2.886719 82.585938 2.34375 83.816406 2.570312 85.035156 C 2.796875 86.25 3.75 87.203125 4.964844 87.425781 C 6.183594 87.65625 7.414062 87.113281 8.0625 86.0625 L 22.101562 71.960938 L 29.960938 71.960938 L 29.960938 89.960938 C 29.960938 91.621094 31.304688 92.960938 32.960938 92.960938 C 34.621094 92.960938 35.960938 91.621094 35.960938 89.960938 L 35.960938 69.710938 C 36.058594 69.28125 36.058594 68.832031 35.960938 68.398438 L 35.960938 66 L 47.960938 66 L 47.960938 70.3125 L 48.898438 71.0625 L 59.941406 82.164062 L 59.941406 90.023438 C 59.941406 91.679688 61.28125 93.023438 62.941406 93.023438 C 64.597656 93.023438 65.941406 91.679688 65.941406 90.023438 L 65.941406 84.023438 L 74.003906 84.023438 L 88.441406 92.648438 C 89.886719 93.472656 91.738281 92.972656 92.566406 91.523438 C 93.390625 90.074219 92.886719 88.222656 91.441406 87.398438 L 76.441406 78.398438 L 75.691406 78.023438 L 64.066406 78.023438 L 53.941406 67.898438 L 53.941406 63.773438 C 54.039062 63.339844 54.039062 62.890625 53.941406 62.460938 L 53.941406 45.058594 C 53.957031 44.15625 53.566406 43.292969 52.875 42.710938 C 52.183594 42.128906 51.265625 41.890625 50.378906 42.058594 Z M 50.460938 42 "/>
<path style=" stroke:none;fill-rule:nonzero;fill:rgb(100%,100%,0%);fill-opacity:1;" d="M 62.300781 92.90625 C 61.703125 92.757812 61.03125 92.351562 60.671875 91.917969 C 60.007812 91.109375 59.980469 90.90625 59.980469 86.289062 L 59.980469 82.09375 L 53.992188 76.117188 L 48 70.140625 L 48 65.996094 L 35.921875 65.996094 L 35.898438 90.574219 L 35.636719 91.140625 C 35.101562 92.304688 34.257812 92.84375 32.964844 92.84375 C 31.710938 92.84375 30.832031 92.316406 30.300781 91.25 C 30.09375 90.824219 30.082031 90.414062 30.027344 81.367188 L 29.96875 71.929688 L 26.066406 71.898438 L 22.164062 71.871094 L 14.550781 79.496094 C 8.796875 85.265625 6.839844 87.15625 6.53125 87.265625 C 6.304688 87.34375 5.8125 87.40625 5.4375 87.40625 C 4.625 87.402344 3.746094 86.980469 3.21875 86.347656 C 2.550781 85.539062 2.390625 84.125 2.863281 83.21875 C 2.976562 83.003906 6.855469 79.042969 11.484375 74.414062 L 19.902344 65.996094 L 30.027344 65.996094 L 30.027344 60.003906 L 47.992188 60.003906 L 48.027344 52.117188 C 48.0625 43.398438 48.015625 43.890625 48.804688 42.992188 C 49.269531 42.464844 50.15625 42.035156 50.777344 42.03125 C 52.011719 42.03125 53.179688 42.761719 53.636719 43.832031 C 53.875 44.378906 53.875 44.453125 53.878906 56.121094 L 53.886719 67.859375 L 59 72.976562 L 64.105469 78.089844 L 69.90625 78.089844 C 75.59375 78.089844 75.714844 78.097656 76.179688 78.332031 C 77.292969 78.894531 91.609375 87.535156 91.960938 87.855469 C 92.757812 88.597656 93.078125 89.878906 92.746094 91 C 92.574219 91.5625 91.851562 92.386719 91.257812 92.6875 C 90.660156 92.996094 89.675781 93.082031 89.089844 92.875 C 88.839844 92.789062 85.34375 90.75 81.3125 88.34375 L 73.984375 83.96875 L 65.863281 83.96875 L 65.859375 87.332031 C 65.859375 90.625 65.851562 90.707031 65.59375 91.265625 C 65.015625 92.507812 63.585938 93.21875 62.300781 92.90625 Z M 62.300781 92.90625 "/>
</g>
</svg>
