<?xml version="1.0" encoding="UTF-8"?>
<svg xmlns="http://www.w3.org/2000/svg" xmlns:xlink="http://www.w3.org/1999/xlink" width="96" height="96" viewBox="0 0 96 96" version="1.1">
<g id="surface1">
<path style=" stroke:none;fill-rule:nonzero;fill:rgb(74.509804%,74.509804%,74.509804%);fill-opacity:1;" d="M 56.941406 6 C 49.28125 6 43.058594 11.839844 42.207031 19.3125 C 40.289062 18.59375 38.308594 17.992188 36.089844 17.992188 C 26.203125 17.992188 18.191406 26.050781 18.191406 35.992188 C 18.191406 36.582031 18.320312 37.105469 18.375 37.679688 C 16.578125 36.601562 14.476562 36 12.195312 36 C 5.605469 36 0.261719 41.375 0.261719 48 C 0.261719 54.625 5.605469 60 12.195312 60 L 14.429688 60 C 15.417969 57.886719 16.632812 55.914062 18.347656 54.1875 L 33.078125 39.375 L 47.808594 54.1875 C 49.507812 55.894531 50.59375 57.90625 51.539062 60 L 54.335938 60 L 62.910156 51.375 L 71.488281 60 L 86.78125 60 C 91.722656 60 95.730469 55.972656 95.730469 51 C 95.730469 46.027344 91.722656 42 86.78125 42 C 85.542969 42 84.308594 42.296875 83.234375 42.75 C 83.550781 41.539062 83.792969 40.308594 83.792969 39 C 83.792969 31.625 78.464844 25.632812 71.488281 24.375 C 71.738281 23.289062 71.863281 22.164062 71.863281 21 C 71.863281 12.714844 65.183594 6 56.945312 6 Z M 56.941406 6 "/>
<path style=" stroke:none;fill-rule:nonzero;fill:rgb(0%,100%,100%);fill-opacity:1;" d="M 33 47.460938 L 30.9375 49.710938 L 22.3125 58.148438 C 16.480469 63.976562 16.480469 73.503906 22.3125 79.332031 C 28.144531 85.164062 37.855469 85.164062 43.6875 79.332031 C 49.519531 73.503906 49.519531 63.976562 43.6875 58.148438 L 35.0625 49.710938 Z M 33 55.898438 L 39.375 62.460938 C 42.914062 66 42.914062 71.667969 39.375 75.210938 C 35.835938 78.75 30.164062 78.75 26.625 75.210938 L 26.625 75.023438 C 23.21875 71.476562 23.128906 65.957031 26.625 62.460938 L 32.984375 55.796875 Z M 33 55.898438 "/>
<path style=" stroke:none;fill-rule:nonzero;fill:rgb(0%,100%,100%);fill-opacity:1;" d="M 63 59.460938 L 60.9375 61.710938 L 52.3125 70.148438 C 46.480469 75.976562 46.480469 85.503906 52.3125 91.332031 C 58.144531 97.167969 67.855469 97.167969 73.6875 91.332031 C 79.519531 85.503906 79.519531 75.976562 73.6875 70.148438 L 65.0625 61.710938 Z M 63 67.898438 L 69.375 74.460938 C 72.914062 78 72.914062 83.667969 69.375 87.210938 C 65.835938 90.75 60.164062 90.75 56.625 87.210938 L 56.625 87.023438 C 53.21875 83.476562 53.128906 77.957031 56.625 74.460938 L 62.984375 67.796875 Z M 63 67.898438 "/>
</g>
</svg>
