<?xml version="1.0" encoding="UTF-8"?>
<svg xmlns="http://www.w3.org/2000/svg" xmlns:xlink="http://www.w3.org/1999/xlink" width="96" height="96" viewBox="0 0 96 96" version="1.1">
<g id="surface1">
<path style=" stroke:none;fill-rule:nonzero;fill:rgb(74.509804%,74.509804%,74.509804%);fill-opacity:1;" d="M 48 18 C 31.503906 18 18 31.503906 18 48 C 18 58.699219 23.746094 68.175781 32.25 73.5 C 33.261719 73.046875 34.34375 72.660156 35.4375 72.375 C 36.808594 61.472656 45.753906 52.875 57 52.875 C 63.015625 52.875 68.03125 55.71875 72 59.625 C 73.050781 59.425781 73.84375 58.875 75 58.875 C 75.261719 58.875 75.496094 58.863281 75.75 58.875 C 77.09375 55.476562 78 51.855469 78 48 C 78 31.503906 64.496094 18 48 18 Z M 48 18 "/>
<path style=" stroke:none;fill-rule:nonzero;fill:rgb(74.509804%,74.509804%,74.509804%);fill-opacity:1;" d="M 3.375 42 L 8.625 42 C 10.488281 42 12 43.511719 12 45.375 L 12 50.625 C 12 52.488281 10.488281 54 8.625 54 L 3.375 54 C 1.511719 54 0 52.488281 0 50.625 L 0 45.375 C 0 43.511719 1.511719 42 3.375 42 Z M 3.375 42 "/>
<path style=" stroke:none;fill-rule:nonzero;fill:rgb(74.509804%,74.509804%,74.509804%);fill-opacity:1;" d="M 87.375 42 L 92.625 42 C 94.488281 42 96 43.511719 96 45.375 L 96 50.625 C 96 52.488281 94.488281 54 92.625 54 L 87.375 54 C 85.511719 54 84 52.488281 84 50.625 L 84 45.375 C 84 43.511719 85.511719 42 87.375 42 Z M 87.375 42 "/>
<path style=" stroke:none;fill-rule:nonzero;fill:rgb(74.509804%,74.509804%,74.509804%);fill-opacity:1;" d="M 54 3.375 L 54 8.625 C 54 10.488281 52.488281 12 50.625 12 L 45.375 12 C 43.511719 12 42 10.488281 42 8.625 L 42 3.375 C 42 1.511719 43.511719 0 45.375 0 L 50.625 0 C 52.488281 0 54 1.511719 54 3.375 Z M 54 3.375 "/>
<path style=" stroke:none;fill-rule:nonzero;fill:rgb(74.509804%,74.509804%,74.509804%);fill-opacity:1;" d="M 83.804688 20.664062 L 80.089844 24.378906 C 78.773438 25.695312 76.632812 25.695312 75.316406 24.378906 L 71.605469 20.664062 C 70.285156 19.347656 70.285156 17.210938 71.605469 15.894531 L 75.316406 12.179688 C 76.632812 10.863281 78.773438 10.863281 80.089844 12.179688 L 83.804688 15.894531 C 85.121094 17.210938 85.121094 19.347656 83.804688 20.664062 Z M 83.804688 20.664062 "/>
<path style=" stroke:none;fill-rule:nonzero;fill:rgb(74.509804%,74.509804%,74.509804%);fill-opacity:1;" d="M 24.40625 80.0625 L 20.691406 83.777344 C 19.375 85.09375 17.238281 85.09375 15.921875 83.777344 L 12.207031 80.0625 C 10.890625 78.746094 10.890625 76.609375 12.207031 75.289062 L 15.921875 71.578125 C 17.238281 70.257812 19.375 70.257812 20.691406 71.578125 L 24.40625 75.289062 C 25.722656 76.609375 25.722656 78.746094 24.40625 80.0625 Z M 24.40625 80.0625 "/>
<path style=" stroke:none;fill-rule:nonzero;fill:rgb(74.509804%,74.509804%,74.509804%);fill-opacity:1;" d="M 20.664062 12.207031 L 24.378906 15.921875 C 25.695312 17.242188 25.695312 19.375 24.378906 20.695312 L 20.664062 24.40625 C 19.347656 25.726562 17.210938 25.726562 15.894531 24.40625 L 12.179688 20.695312 C 10.863281 19.375 10.863281 17.242188 12.179688 15.921875 L 15.894531 12.207031 C 17.210938 10.894531 19.347656 10.894531 20.664062 12.207031 Z M 20.664062 12.207031 "/>
<path style=" stroke:none;fill-rule:nonzero;fill:rgb(74.509804%,74.509804%,74.509804%);fill-opacity:1;" d="M 57 60 C 48.714844 60 42 66.714844 42 75 C 42 76.308594 42.246094 77.535156 42.5625 78.75 C 41.480469 78.332031 40.28125 78.03125 39.023438 78.03125 C 34.050781 78.03125 30.023438 82.0625 30.023438 87.03125 C 30.023438 92 34.050781 96.027344 39.023438 96.027344 L 87.023438 96.027344 C 91.992188 96.027344 96.023438 92 96.023438 87.03125 C 96.023438 82.0625 91.992188 78.03125 87.023438 78.03125 C 87.023438 71.402344 81.648438 66.03125 75.023438 66.03125 C 73.128906 66.03125 71.363281 66.558594 69.773438 67.34375 C 67.191406 62.960938 62.511719 60.023438 57.050781 60.023438 Z M 57 60 "/>
<path style=" stroke:none;fill-rule:nonzero;fill:rgb(100%,100%,0%);fill-opacity:1;" d="M 31.070312 72.65625 C 25.769531 69 21.765625 63.699219 19.632812 57.519531 C 17.480469 51.277344 17.546875 44.078125 19.8125 37.90625 C 20.460938 36.132812 21.945312 33.167969 22.929688 31.679688 C 27.132812 25.320312 33.335938 20.875 40.609375 18.992188 C 44.757812 17.921875 49.3125 17.773438 53.546875 18.570312 C 64.882812 20.710938 74.132812 29.410156 77.007812 40.640625 C 77.585938 42.894531 77.816406 44.515625 77.898438 46.972656 C 78.015625 50.410156 77.578125 53.339844 76.417969 56.804688 L 75.773438 58.734375 L 74.964844 58.824219 C 74.519531 58.875 73.722656 59.054688 73.195312 59.226562 C 72.667969 59.398438 72.175781 59.539062 72.101562 59.539062 C 72.027344 59.539062 71.597656 59.195312 71.148438 58.777344 C 69.574219 57.300781 67.457031 55.847656 65.363281 54.796875 C 61.640625 52.933594 57.03125 52.390625 52.5625 53.300781 C 47.09375 54.410156 41.78125 58.148438 38.753906 63.019531 C 37.105469 65.671875 36.058594 68.398438 35.558594 71.359375 L 35.398438 72.316406 L 33.976562 72.804688 C 33.195312 73.074219 32.476562 73.324219 32.375 73.359375 C 32.265625 73.394531 31.695312 73.082031 31.070312 72.65625 Z M 31.070312 72.65625 "/>
<path style=" stroke:none;fill-rule:nonzero;fill:rgb(100%,40%,0%);fill-opacity:1;" d="M 17.207031 84.523438 C 16.511719 84.277344 15.847656 83.714844 13.835938 81.671875 C 11.542969 79.351562 11.328125 79.011719 11.328125 77.679688 C 11.328125 76.308594 11.527344 76.003906 14.085938 73.445312 C 16.582031 70.949219 16.964844 70.691406 18.179688 70.6875 C 19.585938 70.679688 19.703125 70.757812 22.328125 73.339844 C 25.027344 75.996094 25.316406 76.410156 25.3125 77.679688 C 25.308594 78.910156 25.058594 79.289062 22.554688 81.8125 C 20 84.382812 19.5625 84.679688 18.320312 84.664062 C 17.914062 84.660156 17.40625 84.597656 17.207031 84.523438 Z M 17.207031 84.523438 "/>
<path style=" stroke:none;fill-rule:nonzero;fill:rgb(100%,40%,0%);fill-opacity:1;" d="M 2.453125 53.835938 C 1.625 53.589844 0.882812 52.953125 0.453125 52.117188 L 0.0429688 51.320312 L 0.078125 47.84375 C 0.113281 44.804688 0.144531 44.324219 0.335938 43.972656 C 0.71875 43.273438 1.335938 42.671875 1.972656 42.371094 C 2.574219 42.089844 2.691406 42.085938 6 42.085938 C 9.304688 42.085938 9.421875 42.089844 10.027344 42.371094 C 10.664062 42.671875 11.28125 43.273438 11.664062 43.972656 C 11.855469 44.320312 11.886719 44.796875 11.917969 47.714844 C 11.945312 49.925781 11.914062 51.226562 11.820312 51.554688 C 11.605469 52.320312 10.953125 53.117188 10.199219 53.535156 L 9.527344 53.90625 L 6.183594 53.929688 C 4.34375 53.941406 2.664062 53.898438 2.453125 53.835938 Z M 2.453125 53.835938 "/>
<path style=" stroke:none;fill-rule:nonzero;fill:rgb(100%,40%,0%);fill-opacity:1;" d="M 17.160156 25.132812 C 16.578125 24.925781 16.195312 24.601562 14.152344 22.5625 C 11.511719 19.925781 11.273438 19.574219 11.273438 18.308594 C 11.273438 17.03125 11.503906 16.691406 14.195312 14.015625 C 16.46875 11.757812 16.621094 11.632812 17.316406 11.433594 C 18.195312 11.175781 19 11.246094 19.765625 11.628906 C 20.507812 12 24.449219 15.925781 24.902344 16.742188 C 25.203125 17.28125 25.253906 17.515625 25.253906 18.308594 C 25.253906 19.09375 25.203125 19.328125 24.902344 19.871094 C 24.441406 20.699219 20.507812 24.613281 19.75 24.992188 C 18.988281 25.375 17.992188 25.433594 17.160156 25.132812 Z M 17.160156 25.132812 "/>
<path style=" stroke:none;fill-rule:nonzero;fill:rgb(100%,40%,0%);fill-opacity:1;" d="M 44.5 11.828125 C 43.4375 11.535156 42.53125 10.65625 42.222656 9.617188 C 41.953125 8.710938 41.945312 3.285156 42.214844 2.382812 C 42.453125 1.578125 43.164062 0.761719 43.945312 0.398438 C 44.554688 0.113281 44.65625 0.109375 48.03125 0.105469 C 51.304688 0.105469 51.515625 0.121094 52.03125 0.367188 C 52.675781 0.679688 53.316406 1.308594 53.628906 1.9375 C 53.828125 2.339844 53.863281 2.796875 53.894531 5.785156 C 53.933594 9.535156 53.886719 9.855469 53.175781 10.753906 C 52.957031 11.03125 52.492188 11.386719 52.085938 11.585938 L 51.378906 11.929688 L 48.222656 11.957031 C 45.992188 11.976562 44.898438 11.9375 44.5 11.828125 Z M 44.5 11.828125 "/>
<path style=" stroke:none;fill-rule:nonzero;fill:rgb(100%,40%,0%);fill-opacity:1;" d="M 77.011719 25.257812 C 76.15625 25.035156 75.632812 24.617188 73.390625 22.355469 C 71.152344 20.101562 71.019531 19.9375 70.820312 19.25 C 70.679688 18.769531 70.632812 18.324219 70.679688 17.96875 C 70.835938 16.835938 71.171875 16.367188 73.394531 14.125 C 75.792969 11.710938 76.472656 11.25 77.628906 11.25 C 78.96875 11.25 79.277344 11.449219 81.789062 13.933594 C 84.476562 16.589844 84.6875 16.914062 84.6875 18.308594 C 84.683594 19.015625 84.621094 19.351562 84.414062 19.730469 C 84.050781 20.410156 79.601562 24.808594 79.042969 25.042969 C 78.484375 25.277344 77.492188 25.378906 77.011719 25.257812 Z M 77.011719 25.257812 "/>
<path style=" stroke:none;fill-rule:nonzero;fill:rgb(100%,40%,0%);fill-opacity:1;" d="M 86.257812 53.734375 C 85.480469 53.464844 84.738281 52.785156 84.34375 51.988281 C 84.078125 51.449219 84.070312 51.296875 84.070312 48.023438 L 84.070312 44.617188 L 84.417969 43.910156 C 84.609375 43.519531 84.96875 43.035156 85.21875 42.828125 C 86.074219 42.125 86.46875 42.066406 90.21875 42.105469 C 93.988281 42.148438 94.070312 42.164062 94.972656 43.039062 C 95.859375 43.902344 95.886719 44.070312 95.890625 47.960938 C 95.890625 51.34375 95.886719 51.445312 95.601562 52.054688 C 95.441406 52.398438 95.066406 52.886719 94.773438 53.140625 C 93.902344 53.886719 93.421875 53.96875 89.957031 53.964844 C 87.332031 53.960938 86.828125 53.929688 86.257812 53.734375 Z M 86.257812 53.734375 "/>
</g>
</svg>
