<?xml version="1.0" encoding="UTF-8"?>
<svg xmlns="http://www.w3.org/2000/svg" xmlns:xlink="http://www.w3.org/1999/xlink" width="48" height="48" viewBox="0 0 48 48" version="1.1">
<g id="surface1">
<path style=" stroke:none;fill-rule:nonzero;fill:rgb(74.509804%,74.509804%,74.509804%);fill-opacity:1;" d="M 11.964844 27.328125 C 14.804688 26.5 17.828125 28.222656 18.726562 31.175781 L 20.75 37.851562 C 21.644531 40.808594 20.070312 43.875 17.234375 44.703125 C 14.398438 45.53125 11.371094 43.8125 10.476562 40.859375 L 8.449219 34.179688 C 7.554688 31.226562 9.128906 28.160156 11.964844 27.328125 Z M 11.964844 27.328125 "/>
<path style=" stroke:none;fill-rule:nonzero;fill:rgb(74.509804%,74.509804%,74.509804%);fill-opacity:1;" d="M 23.90625 3 C 13.992188 3 5.835938 12.023438 6 20.15625 C 6.148438 27.253906 8.425781 34.242188 9 36 L 13.578125 36 C 10.09375 29.125 10.429688 20.53125 10.429688 20.53125 C 10.429688 13.414062 16.449219 7.59375 23.90625 7.59375 C 31.363281 7.59375 37.40625 13.074219 37.382812 20.4375 C 37.3125 25.460938 36.867188 28.414062 34.367188 36 L 39.078125 36 C 39.753906 34.066406 42 26.429688 42 20.15625 C 42 11.667969 33.824219 3 23.90625 3 Z M 23.90625 3 "/>
<path style=" stroke:none;fill-rule:nonzero;fill:rgb(74.509804%,74.509804%,74.509804%);fill-opacity:1;" d="M 36.035156 27.4375 C 33.199219 26.609375 30.171875 28.328125 29.277344 31.28125 L 27.25 37.960938 C 26.355469 40.914062 27.929688 43.980469 30.765625 44.8125 C 33.601562 45.640625 36.628906 43.917969 37.523438 40.964844 L 39.550781 34.289062 C 40.445312 31.332031 38.871094 28.265625 36.035156 27.4375 Z M 36.035156 27.4375 "/>
<path style=" stroke:none;fill-rule:nonzero;fill:rgb(100%,100%,100%);fill-opacity:1;" d="M 31.699219 44.96875 C 29.367188 44.726562 27.546875 43 27.09375 40.609375 C 27.007812 40.148438 27.023438 39.015625 27.121094 38.558594 C 27.195312 38.210938 28.578125 33.601562 29.191406 31.640625 C 29.34375 31.160156 29.5625 30.574219 29.683594 30.335938 C 30.1875 29.332031 31.054688 28.429688 32.023438 27.902344 C 32.800781 27.476562 33.632812 27.269531 34.578125 27.269531 C 35.238281 27.269531 35.730469 27.347656 36.304688 27.546875 C 36.515625 27.621094 36.699219 27.671875 36.707031 27.664062 C 36.742188 27.628906 36.929688 26.578125 37.027344 25.867188 C 37.398438 23.21875 37.492188 19.828125 37.238281 18.34375 C 36.628906 14.796875 34.746094 11.902344 31.742188 9.890625 C 28.28125 7.574219 23.570312 6.945312 19.585938 8.261719 C 17.414062 8.976562 15.609375 10.109375 14.035156 11.730469 C 12.042969 13.78125 10.847656 16.269531 10.492188 19.09375 C 10.394531 19.863281 10.414062 22.699219 10.519531 24.035156 C 10.652344 25.644531 10.921875 27.722656 11.003906 27.722656 C 11.023438 27.722656 11.191406 27.652344 11.378906 27.566406 C 13.28125 26.703125 15.664062 27.183594 17.246094 28.75 C 17.914062 29.410156 18.371094 30.171875 18.691406 31.15625 C 19.003906 32.113281 20.734375 37.851562 20.847656 38.300781 C 20.976562 38.828125 21 40.03125 20.890625 40.585938 C 20.554688 42.273438 19.535156 43.621094 18.050781 44.351562 C 17.1875 44.773438 16.828125 44.851562 15.742188 44.847656 C 14.90625 44.84375 14.804688 44.835938 14.386719 44.707031 C 12.761719 44.214844 11.460938 43.09375 10.777344 41.59375 C 10.679688 41.378906 10.242188 40.027344 9.800781 38.589844 C 9.363281 37.148438 8.902344 35.644531 8.773438 35.246094 C 7.453125 31.105469 6.53125 26.703125 6.160156 22.757812 C 6.046875 21.578125 6.007812 19.351562 6.082031 18.640625 C 6.457031 15.136719 8.214844 11.605469 11.027344 8.71875 C 14.121094 5.539062 17.949219 3.605469 22.113281 3.121094 C 22.945312 3.023438 24.710938 3.007812 25.523438 3.09375 C 28.488281 3.40625 31.304688 4.417969 33.773438 6.070312 C 38.066406 8.941406 41.046875 13.351562 41.796875 17.941406 C 41.96875 18.996094 42.015625 20.015625 41.953125 21.347656 C 41.808594 24.371094 41.308594 27.5625 40.394531 31.324219 C 39.949219 33.140625 39.144531 35.929688 39.042969 35.996094 C 39.023438 36.011719 38.652344 37.191406 38.21875 38.617188 C 37.785156 40.042969 37.355469 41.394531 37.261719 41.617188 C 37.007812 42.222656 36.511719 42.925781 35.988281 43.433594 C 35.039062 44.347656 33.953125 44.851562 32.679688 44.976562 C 32.382812 45.003906 32.132812 45.023438 32.117188 45.019531 C 32.105469 45.015625 31.914062 44.992188 31.699219 44.96875 Z M 31.699219 44.96875 "/>
</g>
</svg>
