<?xml version="1.0" encoding="UTF-8"?>
<svg xmlns="http://www.w3.org/2000/svg" xmlns:xlink="http://www.w3.org/1999/xlink" width="48" height="48" viewBox="0 0 48 48" version="1.1">
<g id="surface1">
<path style=" stroke:none;fill-rule:nonzero;fill:rgb(74.509804%,74.509804%,74.509804%);fill-opacity:1;" d="M 10.5 15 C 9.671875 15 9 15.671875 9 16.5 L 9 25.40625 C 9 31.3125 12.773438 36.28125 18 38.15625 L 18 42 L 12 42 C 10.304688 42 9 43.46875 9 45 L 9 48 L 36 48 L 36 45 C 36 43.246094 34.570312 42 33 42 L 27 42 L 27 38.15625 C 32.226562 36.28125 36 31.3125 36 25.40625 L 36 16.5 C 36 15.671875 35.328125 15 34.5 15 C 33.671875 15 33 15.671875 33 16.5 C 33 16.707031 33.015625 16.882812 33.09375 17.0625 L 33.09375 25.40625 C 33.09375 31.300781 28.355469 36 22.5 36 C 16.640625 36 12 31.296875 12 25.40625 L 12 16.5 C 12 15.671875 11.328125 15 10.5 15 Z M 22.5 2.96875 C 26.65625 2.96875 30 6.316406 30 10.46875 L 30 25.5 C 30 29.65625 26.65625 33 22.5 33 C 18.34375 33 15 29.65625 15 25.5 L 15 10.460938 C 15 6.304688 18.34375 2.960938 22.5 2.960938 Z M 22.5 2.96875 "/>
<path style=" stroke:none;fill-rule:nonzero;fill:rgb(100%,100%,100%);fill-opacity:1;" d="M 21.578125 32.921875 C 20.804688 32.832031 19.976562 32.578125 19.1875 32.1875 C 18.34375 31.769531 17.808594 31.386719 17.179688 30.742188 C 16.542969 30.09375 16.226562 29.644531 15.8125 28.8125 C 15.410156 27.992188 15.171875 27.199219 15.074219 26.332031 C 14.988281 25.578125 14.988281 10.375 15.074219 9.617188 C 15.390625 6.804688 17.304688 4.386719 19.960938 3.429688 C 20.976562 3.066406 21.929688 2.941406 23.042969 3.027344 C 24.894531 3.167969 26.460938 3.882812 27.773438 5.1875 C 28.828125 6.238281 29.46875 7.40625 29.824219 8.9375 C 29.953125 9.484375 29.957031 9.617188 29.976562 17.574219 C 29.992188 23.332031 29.980469 25.828125 29.929688 26.269531 C 29.628906 28.898438 28.089844 31.09375 25.75 32.222656 C 24.4375 32.855469 23.042969 33.089844 21.578125 32.921875 Z M 21.578125 32.921875 "/>
<path style=" stroke:none;fill-rule:nonzero;fill:rgb(100%,100%,100%);fill-opacity:1;" d="M 9.007812 46.410156 C 9.007812 44.644531 9.0625 44.234375 9.382812 43.632812 C 9.628906 43.171875 10.121094 42.667969 10.5625 42.410156 C 11.21875 42.035156 11.308594 42.03125 14.835938 42.03125 L 18.042969 42.03125 L 18.042969 38.144531 L 17.683594 38.011719 C 17.144531 37.816406 16.039062 37.261719 15.40625 36.871094 C 12.597656 35.132812 10.449219 32.289062 9.542969 29.121094 C 9.042969 27.367188 8.996094 26.566406 9.015625 20.792969 C 9.035156 16.128906 9.035156 16.117188 9.171875 15.867188 C 9.34375 15.542969 9.730469 15.195312 10.027344 15.097656 C 10.648438 14.890625 11.40625 15.175781 11.757812 15.742188 L 11.945312 16.046875 L 11.980469 21.34375 C 12.019531 27.128906 12.011719 27.042969 12.398438 28.375 C 13.605469 32.558594 17.082031 35.484375 21.398438 35.957031 C 23.777344 36.21875 26.3125 35.609375 28.3125 34.292969 C 30.703125 32.722656 32.234375 30.460938 32.914062 27.503906 C 33.054688 26.894531 33.054688 26.871094 33.066406 21.453125 L 33.078125 16.015625 L 33.253906 15.726562 C 33.597656 15.175781 34.363281 14.894531 34.980469 15.097656 C 35.273438 15.195312 35.660156 15.542969 35.832031 15.867188 L 35.96875 16.117188 L 35.96875 21.257812 C 35.96875 26.648438 35.957031 26.917969 35.679688 28.207031 C 34.945312 31.65625 32.886719 34.679688 29.949219 36.640625 C 29.242188 37.109375 28.121094 37.699219 27.410156 37.976562 L 26.960938 38.148438 L 26.960938 42.03125 L 30.164062 42.03125 C 32.808594 42.03125 33.433594 42.046875 33.726562 42.121094 C 34.710938 42.378906 35.464844 43.070312 35.824219 44.046875 C 35.945312 44.382812 35.960938 44.5625 35.984375 46.191406 L 36.011719 47.972656 L 9.003906 47.972656 Z M 9.007812 46.410156 "/>
</g>
</svg>
