<?xml version="1.0" encoding="UTF-8"?>
<svg xmlns="http://www.w3.org/2000/svg" xmlns:xlink="http://www.w3.org/1999/xlink" width="48" height="48" viewBox="0 0 48 48" version="1.1">
<g id="surface1">
<path style=" stroke:none;fill-rule:nonzero;fill:rgb(74.509804%,74.509804%,74.509804%);fill-opacity:1;" d="M 38.730469 3 C 37.179688 3.140625 35.992188 4.441406 36 6 L 36 45 C 35.984375 46.082031 36.554688 47.089844 37.488281 47.632812 C 38.421875 48.179688 39.578125 48.179688 40.511719 47.632812 C 41.445312 47.089844 42.015625 46.082031 42 45 L 42 9 L 45 9 C 46.082031 9.015625 47.089844 8.445312 47.632812 7.511719 C 48.179688 6.578125 48.179688 5.421875 47.632812 4.488281 C 47.089844 3.554688 46.082031 2.984375 45 3 L 39 3 C 38.90625 2.996094 38.8125 2.996094 38.71875 3 Z M 38.730469 3 "/>
<path style=" stroke:none;fill-rule:nonzero;fill:rgb(74.509804%,74.509804%,74.509804%);fill-opacity:1;" d="M 39 18 L 39 27 L 48 27 L 48 18 Z M 42 21 L 45 21 L 45 24 L 42 24 Z M 42 21 "/>
<path style=" stroke:none;fill-rule:nonzero;fill:rgb(74.509804%,74.509804%,74.509804%);fill-opacity:1;" d="M 39 30 L 39 39 L 48 39 L 48 30 Z M 42 33 L 45 33 L 45 36 L 42 36 Z M 42 33 "/>
<path style=" stroke:none;fill-rule:nonzero;fill:rgb(74.509804%,74.509804%,74.509804%);fill-opacity:1;" d="M 0 12 L 0 48 L 30 48 L 30 42 L 33 42 L 33 36 L 24 36 L 24 42 L 6 42 L 6 18 L 15 18 L 15 12 Z M 0 12 "/>
<path style=" stroke:none;fill-rule:nonzero;fill:rgb(74.509804%,74.509804%,74.509804%);fill-opacity:1;" d="M 18 3 L 33 15 L 24 15 L 24 28.59375 L 18 28.59375 Z M 18 3 "/>
<path style=" stroke:none;fill-rule:nonzero;fill:rgb(74.509804%,74.509804%,74.509804%);fill-opacity:1;" d="M 23.972656 28.511719 C 23.972656 32.644531 20.621094 35.996094 16.488281 35.996094 C 12.355469 35.996094 9.003906 32.644531 9.003906 28.511719 C 9.003906 24.375 12.355469 21.023438 16.488281 21.023438 C 20.621094 21.023438 23.972656 24.375 23.972656 28.511719 Z M 23.972656 28.511719 "/>
<path style=" stroke:none;fill-rule:nonzero;fill:rgb(100%,100%,100%);fill-opacity:1;" d="M 15.921875 35.953125 C 13.902344 35.71875 12.402344 35.003906 11.117188 33.664062 C 10.5 33.019531 10.132812 32.492188 9.757812 31.707031 C 8.90625 29.921875 8.800781 27.890625 9.460938 26.015625 C 9.835938 24.953125 10.390625 24.078125 11.210938 23.257812 C 12.394531 22.074219 13.882812 21.332031 15.503906 21.117188 C 16.03125 21.046875 17.453125 21.070312 17.828125 21.15625 L 18 21.199219 L 18 3.027344 L 32.90625 14.957031 L 28.460938 14.96875 L 24.007812 14.988281 L 24.007812 21.636719 C 24.007812 28.617188 23.992188 29.164062 23.730469 30.261719 C 23.167969 32.644531 21.46875 34.574219 19.132812 35.492188 C 18.222656 35.847656 16.789062 36.054688 15.921875 35.953125 Z M 15.921875 35.953125 "/>
<path style=" stroke:none;fill-rule:nonzero;fill:rgb(100%,100%,100%);fill-opacity:1;" d="M 0.0273438 29.984375 L 0.0273438 12.011719 L 14.960938 12.011719 L 14.960938 17.960938 L 5.976562 17.960938 L 5.976562 42.003906 L 24.007812 42.003906 L 24.007812 35.992188 L 32.992188 35.992188 L 32.992188 42.003906 L 29.957031 42.003906 L 29.957031 47.953125 L 0.0273438 47.953125 Z M 0.0273438 29.984375 "/>
<path style=" stroke:none;fill-rule:nonzero;fill:rgb(100%,100%,100%);fill-opacity:1;" d="M 38.292969 47.925781 C 37.347656 47.695312 36.546875 46.976562 36.195312 46.042969 L 36.0625 45.691406 L 36.0625 5.289062 L 36.207031 4.929688 C 36.539062 4.109375 37.289062 3.40625 38.113281 3.152344 C 38.503906 3.03125 38.675781 3.027344 41.972656 3.027344 C 45.730469 3.027344 45.808594 3.035156 46.464844 3.386719 C 46.964844 3.652344 47.460938 4.183594 47.726562 4.742188 C 47.957031 5.222656 47.960938 5.234375 47.960938 6 C 47.960938 6.769531 47.957031 6.78125 47.726562 7.261719 C 47.460938 7.816406 46.972656 8.34375 46.464844 8.617188 C 45.890625 8.925781 45.519531 8.972656 43.667969 8.976562 L 41.976562 8.976562 L 41.976562 18.023438 L 47.988281 18.023438 L 47.988281 27.007812 L 41.976562 27.007812 L 41.976562 30.042969 L 47.988281 30.042969 L 47.988281 38.96875 L 41.976562 38.96875 L 41.976562 42.117188 C 41.976562 44.003906 41.953125 45.40625 41.914062 45.605469 C 41.605469 47.234375 39.90625 48.328125 38.292969 47.925781 Z M 45.015625 34.472656 L 45.015625 32.953125 L 43.511719 32.96875 L 42.011719 32.988281 L 41.992188 34.488281 L 41.976562 35.992188 L 45.015625 35.992188 Z M 45.015625 22.515625 L 45.015625 20.996094 L 41.976562 20.996094 L 41.976562 24.035156 L 45.015625 24.035156 Z M 45.015625 22.515625 "/>
</g>
</svg>
