<?xml version="1.0" encoding="UTF-8"?>
<svg xmlns="http://www.w3.org/2000/svg" xmlns:xlink="http://www.w3.org/1999/xlink" width="48" height="48" viewBox="0 0 48 48" version="1.1">
<g id="surface1">
<path style=" stroke:none;fill-rule:nonzero;fill:rgb(74.509804%,74.509804%,74.509804%);fill-opacity:1;" d="M 23.90625 0 C 13.992188 0 5.835938 9.023438 6 17.15625 C 6.1875 26.222656 8.800781 31.242188 9.375 33 L 13.578125 33 C 10.09375 26.125 10.429688 17.53125 10.429688 17.53125 C 10.429688 10.414062 16.449219 4.59375 23.90625 4.59375 C 31.363281 4.59375 37.40625 10.355469 37.382812 17.71875 C 37.3125 22.742188 36.867188 24.570312 34.367188 32.15625 L 39.078125 32.15625 C 39.753906 30.222656 42 25.960938 42 17.4375 C 42 8.949219 33.824219 0 23.90625 0 Z M 23.90625 0 "/>
<path style=" stroke:none;fill-rule:nonzero;fill:rgb(74.509804%,74.509804%,74.509804%);fill-opacity:1;" d="M 37.796875 21.164062 C 35.289062 20.460938 32.5 22.277344 31.5625 25.21875 L 30.285156 29.246094 C 29.351562 32.1875 30.628906 35.136719 33.140625 35.835938 C 35.648438 36.539062 38.4375 34.722656 39.371094 31.78125 L 40.652344 27.753906 C 41.585938 24.8125 40.308594 21.863281 37.796875 21.164062 Z M 37.796875 21.164062 "/>
<path style=" stroke:none;fill-rule:nonzero;fill:rgb(74.509804%,74.509804%,74.509804%);fill-opacity:1;" d="M 10.359375 21.179688 C 12.867188 20.476562 15.65625 22.292969 16.589844 25.234375 L 17.871094 29.261719 C 18.804688 32.203125 17.527344 35.152344 15.015625 35.851562 C 12.507812 36.554688 9.714844 34.738281 8.78125 31.796875 L 7.503906 27.769531 C 6.570312 24.832031 7.847656 21.878906 10.359375 21.179688 Z M 10.359375 21.179688 "/>
<path style=" stroke:none;fill-rule:nonzero;fill:rgb(74.509804%,74.509804%,74.509804%);fill-opacity:1;" d="M 21.140625 41.910156 L 26.953125 41.910156 C 28.585938 41.910156 29.90625 43.230469 29.90625 44.863281 C 29.90625 46.492188 28.585938 47.816406 26.953125 47.816406 L 21.140625 47.816406 C 19.511719 47.816406 18.1875 46.492188 18.1875 44.863281 C 18.1875 43.230469 19.511719 41.910156 21.140625 41.910156 Z M 21.140625 41.910156 "/>
<path style=" stroke:none;fill-rule:nonzero;fill:rgb(74.509804%,74.509804%,74.509804%);fill-opacity:1;" d="M 37.78125 28.230469 C 37.101562 28.351562 36.597656 28.921875 36.550781 29.609375 C 36.507812 30.296875 36.9375 30.925781 37.59375 31.136719 L 42 32.726562 L 41.90625 37.976562 C 41.890625 39.574219 41.496094 40.578125 40.96875 41.164062 C 40.441406 41.734375 39.761719 42.003906 38.8125 42.003906 L 26.34375 42.003906 C 25.804688 41.996094 25.300781 42.28125 25.027344 42.746094 C 24.753906 43.214844 24.753906 43.792969 25.027344 44.261719 C 25.300781 44.726562 25.804688 45.011719 26.34375 45.003906 L 38.8125 45.003906 C 40.457031 45.003906 42.089844 44.375 43.21875 43.128906 C 44.347656 41.882812 44.886719 40.101562 44.90625 37.972656 L 45 31.671875 L 45 30.640625 L 44.0625 30.265625 L 38.71875 28.296875 C 38.425781 28.164062 38.097656 28.132812 37.78125 28.203125 Z M 37.78125 28.230469 "/>
<path style=" stroke:none;fill-rule:nonzero;fill:rgb(100%,100%,100%);fill-opacity:1;" d="M 20.402344 47.691406 C 19.371094 47.414062 18.527344 46.554688 18.292969 45.554688 C 18.117188 44.78125 18.285156 43.882812 18.730469 43.214844 C 19.195312 42.519531 19.914062 42.085938 20.800781 41.964844 C 21.125 41.921875 22.339844 41.914062 24.296875 41.9375 C 31.578125 42.019531 39.070312 42.035156 39.464844 41.96875 C 40.652344 41.773438 41.4375 40.929688 41.761719 39.507812 C 41.867188 39.058594 41.894531 38.597656 41.941406 36.769531 C 41.972656 35.558594 42 34.148438 42 33.636719 L 42.003906 32.703125 L 40.78125 32.261719 C 40.109375 32.023438 39.515625 31.804688 39.460938 31.785156 C 39.386719 31.757812 39.320312 31.867188 39.164062 32.273438 C 38.882812 32.988281 38.308594 33.859375 37.742188 34.417969 C 35.3125 36.808594 31.835938 36.355469 30.484375 33.46875 C 30.144531 32.742188 30.035156 32.191406 30.035156 31.195312 C 30.03125 30.558594 30.0625 30.175781 30.136719 29.878906 C 30.332031 29.082031 31.679688 24.910156 31.882812 24.46875 C 32.460938 23.210938 33.460938 22.128906 34.574219 21.570312 C 35.242188 21.234375 35.773438 21.09375 36.535156 21.058594 C 37.175781 21.027344 37.230469 21.015625 37.261719 20.894531 C 37.351562 20.535156 37.421875 17.550781 37.359375 16.734375 C 36.960938 11.433594 33.429688 6.96875 28.296875 5.285156 C 23.300781 3.644531 17.804688 4.925781 14.171875 8.578125 C 12.070312 10.695312 10.820312 13.28125 10.484375 16.210938 C 10.410156 16.878906 10.433594 20.851562 10.515625 21.042969 C 10.550781 21.125 10.625 21.128906 11.027344 21.078125 C 12.445312 20.898438 14.175781 21.640625 15.242188 22.886719 C 16.042969 23.820312 16.28125 24.34375 17.144531 27.046875 C 18.101562 30.039062 18.128906 30.152344 18.125 31.226562 C 18.125 32.269531 18.003906 32.789062 17.570312 33.671875 C 17.203125 34.417969 16.523438 35.125 15.832031 35.488281 C 13.203125 36.859375 9.925781 35.148438 8.820312 31.828125 C 7.371094 27.46875 6.757812 25.003906 6.375 22 C 6.09375 19.785156 5.960938 16.820312 6.089844 15.625 C 6.84375 8.691406 12.925781 2.132812 20.148438 0.460938 C 21.519531 0.148438 22.414062 0.0507812 23.945312 0.0507812 C 28.726562 0.0507812 33.199219 2.03125 36.839844 5.757812 C 39.148438 8.121094 40.84375 11.101562 41.542969 14.015625 C 41.929688 15.632812 42.023438 16.792969 41.941406 19.019531 C 41.820312 22.347656 41.324219 25.535156 40.53125 28.117188 L 40.289062 28.898438 L 40.453125 28.957031 C 41.183594 29.21875 43.835938 30.203125 44.34375 30.402344 L 44.976562 30.648438 L 44.972656 31.742188 C 44.972656 32.34375 44.945312 34.214844 44.917969 35.902344 C 44.855469 39.230469 44.800781 39.808594 44.449219 40.882812 C 43.6875 43.210938 41.90625 44.660156 39.464844 44.941406 C 39.171875 44.976562 36.960938 45.003906 34.417969 45.003906 L 29.898438 45.003906 L 29.820312 45.414062 C 29.609375 46.523438 28.769531 47.40625 27.660156 47.695312 C 27.144531 47.832031 20.90625 47.824219 20.402344 47.691406 Z M 20.402344 47.691406 "/>
</g>
</svg>
