<?xml version="1.0" encoding="UTF-8"?>
<svg xmlns="http://www.w3.org/2000/svg" xmlns:xlink="http://www.w3.org/1999/xlink" width="48" height="48" viewBox="0 0 48 48" version="1.1">
<g id="surface1">
<path style=" stroke:none;fill-rule:nonzero;fill:rgb(74.509804%,74.509804%,74.509804%);fill-opacity:1;" d="M 6.09375 12 L 30 12 C 31.65625 12 33 13.34375 33 15 L 33 36 C 33 37.65625 31.65625 39 30 39 L 6.09375 39 C 4.4375 39 3.09375 37.65625 3.09375 36 L 3.09375 15 C 3.09375 13.34375 4.4375 12 6.09375 12 Z M 6.09375 12 "/>
<path style=" stroke:none;fill-rule:nonzero;fill:rgb(74.509804%,74.509804%,74.509804%);fill-opacity:1;" d="M 33 25.410156 L 43.40625 15 L 45 15 L 45 36 L 43.5 36 Z M 33 25.410156 "/>
<path style=" stroke:none;fill-rule:nonzero;fill:rgb(100%,100%,100%);fill-opacity:1;" d="M 5.507812 38.921875 C 4.734375 38.777344 3.871094 38.144531 3.507812 37.460938 C 3.097656 36.695312 3.125 37.472656 3.125 25.5 C 3.125 16.0625 3.136719 14.582031 3.214844 14.273438 C 3.472656 13.289062 4.152344 12.550781 5.140625 12.171875 L 5.507812 12.03125 L 17.765625 12.015625 C 26.214844 12.003906 30.15625 12.019531 30.453125 12.0625 C 31.59375 12.238281 32.527344 13.078125 32.867188 14.226562 C 32.953125 14.527344 32.964844 15.667969 32.964844 25.492188 C 32.964844 34.539062 32.949219 36.480469 32.878906 36.742188 C 32.585938 37.84375 31.640625 38.71875 30.523438 38.925781 C 30.050781 39.015625 5.964844 39.011719 5.507812 38.921875 Z M 5.507812 38.921875 "/>
<path style=" stroke:none;fill-rule:nonzero;fill:rgb(100%,100%,100%);fill-opacity:1;" d="M 38.261719 30.683594 L 33.023438 25.40625 L 43.394531 15.035156 L 44.976562 15.035156 L 44.976562 35.960938 L 43.5 35.960938 Z M 38.261719 30.683594 "/>
</g>
</svg>
