<?xml version="1.0" encoding="UTF-8"?>
<svg xmlns="http://www.w3.org/2000/svg" xmlns:xlink="http://www.w3.org/1999/xlink" width="48" height="48" viewBox="0 0 48 48" version="1.1">
<g id="surface1">
<path style=" stroke:none;fill-rule:nonzero;fill:rgb(74.509804%,74.509804%,74.509804%);fill-opacity:1;" d="M 18 6 C 16.351562 6 15 7.351562 15 9 L 15 12 L 6 12 C 4.34375 12 3 13.351562 3 15 L 3 39 C 3 40.648438 4.34375 42 6 42 L 42 42 C 43.65625 42 45 40.648438 45 39 L 45 15 C 45 13.351562 43.65625 12 42 12 L 33 12 L 33 9 C 33 7.351562 31.648438 6 30 6 Z M 24 15 C 30.625 15 36 20.375 36 27 C 36 33.625 30.625 39 24 39 C 17.375 39 12 33.625 12 27 C 12 20.375 17.375 15 24 15 Z M 24 21 C 20.6875 21 18 23.6875 18 27 C 18 30.3125 20.6875 33 24 33 C 27.3125 33 30 30.3125 30 27 C 30 23.6875 27.3125 21 24 21 Z M 24 21 "/>
<path style=" stroke:none;fill-rule:nonzero;fill:rgb(100%,100%,100%);fill-opacity:1;" d="M 23.183594 32.925781 C 20.820312 32.597656 18.851562 30.847656 18.210938 28.503906 C 18.09375 28.078125 18.078125 27.855469 18.078125 26.953125 C 18.082031 25.988281 18.097656 25.855469 18.25 25.347656 C 18.753906 23.707031 19.863281 22.390625 21.355469 21.65625 C 22.34375 21.171875 22.769531 21.078125 24.019531 21.078125 C 24.992188 21.078125 25.113281 21.089844 25.628906 21.25 C 28.03125 21.984375 29.640625 23.886719 29.929688 26.332031 C 30.195312 28.53125 29.167969 30.726562 27.296875 31.972656 C 26.664062 32.394531 26.214844 32.59375 25.472656 32.78125 C 24.808594 32.953125 23.8125 33.015625 23.183594 32.925781 Z M 23.183594 32.925781 "/>
<path style=" stroke:none;fill-rule:nonzero;fill:rgb(100%,100%,100%);fill-opacity:1;" d="M 5.242188 41.871094 C 4.265625 41.609375 3.5 40.882812 3.164062 39.90625 L 3.03125 39.523438 L 3.011719 27.324219 C 3 19.179688 3.015625 14.964844 3.058594 14.632812 C 3.226562 13.332031 4.257812 12.265625 5.539062 12.066406 C 5.78125 12.027344 7.71875 12.003906 10.476562 12 L 15.011719 12 L 15.011719 10.402344 C 15.011719 9.519531 15.039062 8.648438 15.070312 8.464844 C 15.300781 7.230469 16.375 6.21875 17.640625 6.054688 C 17.964844 6.011719 20.273438 5.996094 24.328125 6.007812 L 30.519531 6.027344 L 30.972656 6.191406 C 31.695312 6.457031 32.320312 7 32.648438 7.652344 C 32.925781 8.203125 32.964844 8.519531 32.964844 10.308594 L 32.964844 11.996094 L 37.777344 12.015625 L 42.59375 12.03125 L 43.003906 12.195312 C 43.695312 12.460938 44.1875 12.875 44.566406 13.507812 C 45 14.234375 44.976562 13.367188 44.976562 27.03125 C 44.976562 40.578125 45 39.664062 44.597656 40.421875 C 44.273438 41.027344 43.671875 41.550781 43.003906 41.804688 L 42.652344 41.9375 L 24.109375 41.945312 C 8.304688 41.957031 5.519531 41.945312 5.242188 41.871094 Z M 25.652344 38.902344 C 30.171875 38.257812 33.945312 35.132812 35.378906 30.84375 C 35.824219 29.507812 36 28.417969 36 26.972656 C 36 24.972656 35.554688 23.183594 34.628906 21.414062 C 31.585938 15.617188 24.492188 13.332031 18.632812 16.257812 C 14.175781 18.484375 11.542969 23.242188 12.039062 28.167969 C 12.597656 33.671875 16.769531 38.050781 22.253906 38.894531 C 23.039062 39.011719 24.832031 39.015625 25.652344 38.902344 Z M 25.652344 38.902344 "/>
</g>
</svg>
