<?xml version="1.0" encoding="UTF-8"?>
<svg xmlns="http://www.w3.org/2000/svg" xmlns:xlink="http://www.w3.org/1999/xlink" width="48" height="48" viewBox="0 0 48 48" version="1.1">
<g id="surface1">
<path style=" stroke:none;fill-rule:nonzero;fill:rgb(74.509804%,74.509804%,74.509804%);fill-opacity:1;" d="M 34.5 3 C 40.300781 3 45 7.699219 45 13.5 C 45 16.859375 43.421875 19.828125 40.96875 21.75 C 41.597656 22.300781 42 23.09375 42 24 C 41.992188 30 42 33.15625 42 42 C 42 43.664062 40.660156 45 39 45 L 12 45 C 10.335938 45 9 43.664062 9 42 L 9 35.53125 L 1.3125 41.25 C 1.253906 41.289062 1.191406 41.320312 1.125 41.34375 C 1.03125 41.359375 0.9375 41.359375 0.84375 41.34375 C 0.78125 41.351562 0.71875 41.351562 0.65625 41.34375 C 0.589844 41.320312 0.527344 41.289062 0.46875 41.25 C 0.402344 41.226562 0.339844 41.195312 0.28125 41.15625 C 0.246094 41.125 0.214844 41.097656 0.1875 41.0625 C 0.152344 41.03125 0.125 41.003906 0.09375 40.96875 C 0.0546875 40.910156 0.0234375 40.847656 0 40.78125 C -0.0078125 40.71875 -0.0078125 40.65625 0 40.59375 L 0 22.40625 C -0.0078125 22.34375 -0.0078125 22.28125 0 22.21875 C 0.0234375 22.152344 0.0546875 22.089844 0.09375 22.03125 C 0.125 21.996094 0.152344 21.96875 0.1875 21.9375 C 0.21875 21.902344 0.246094 21.875 0.28125 21.84375 C 0.308594 21.8125 0.339844 21.78125 0.375 21.75 C 0.402344 21.71875 0.433594 21.6875 0.46875 21.65625 C 0.527344 21.617188 0.589844 21.585938 0.65625 21.5625 C 0.75 21.550781 0.84375 21.550781 0.9375 21.5625 C 0.96875 21.5625 1 21.5625 1.03125 21.5625 C 1.066406 21.59375 1.09375 21.625 1.125 21.65625 C 1.191406 21.679688 1.253906 21.710938 1.3125 21.75 L 9 27.46875 L 9 24 C 9 23.097656 9.402344 22.300781 10.03125 21.75 C 7.578125 19.828125 6 16.859375 6 13.5 C 6 7.703125 10.699219 3 16.5 3 C 20.351562 3 23.671875 5.066406 25.5 8.15625 C 27.328125 5.066406 30.648438 3 34.5 3 Z M 34.5 9 C 32.015625 9 30 11.015625 30 13.5 C 30 15.984375 32.015625 18 34.5 18 C 36.984375 18 39 15.984375 39 13.5 C 39 11.015625 36.984375 9 34.5 9 Z M 16.5 9 C 14.015625 9 12 11.015625 12 13.5 C 12 15.984375 14.015625 18 16.5 18 C 18.984375 18 21 15.984375 21 13.5 C 21 11.015625 18.984375 9 16.5 9 Z M 25.5 18.84375 C 25.023438 19.648438 24.476562 20.351562 23.8125 21 L 27.1875 21 C 26.523438 20.351562 25.976562 19.648438 25.5 18.84375 Z M 25.5 18.84375 "/>
<path style=" stroke:none;fill-rule:nonzero;fill:rgb(100%,100%,100%);fill-opacity:1;" d="M 11.515625 44.929688 C 10.671875 44.808594 9.765625 44.164062 9.390625 43.417969 C 9.035156 42.714844 9.042969 42.820312 9.007812 39.039062 L 8.972656 35.523438 L 5.507812 38.105469 C 3.601562 39.527344 1.832031 40.835938 1.582031 41.015625 C 1.066406 41.390625 0.859375 41.425781 0.460938 41.226562 C -0.0117188 40.980469 0.0273438 41.890625 0.0273438 31.484375 L 0.0273438 22.136719 L 0.300781 21.867188 C 0.621094 21.542969 0.882812 21.507812 1.253906 21.746094 C 1.378906 21.828125 3.167969 23.152344 5.226562 24.6875 L 8.972656 27.476562 L 9.007812 25.449219 C 9.035156 23.710938 9.058594 23.378906 9.152344 23.117188 C 9.304688 22.695312 9.535156 22.304688 9.816406 22 L 10.050781 21.746094 L 9.519531 21.285156 C 8.097656 20.050781 6.921875 18.171875 6.414062 16.335938 C 6.121094 15.265625 6.066406 14.8125 6.070312 13.457031 C 6.070312 11.980469 6.15625 11.4375 6.589844 10.136719 C 7.695312 6.816406 10.449219 4.253906 13.867188 3.367188 C 16.828125 2.597656 20.023438 3.175781 22.5 4.929688 C 23.265625 5.46875 24.46875 6.671875 24.980469 7.410156 C 25.199219 7.730469 25.414062 8.03125 25.449219 8.085938 C 25.511719 8.171875 25.535156 8.160156 25.621094 7.992188 C 25.847656 7.554688 26.675781 6.546875 27.316406 5.929688 C 29.875 3.453125 33.476562 2.488281 37.011719 3.328125 C 38.160156 3.601562 39.382812 4.15625 40.488281 4.902344 C 41.226562 5.402344 42.597656 6.773438 43.097656 7.511719 C 44.429688 9.488281 45.042969 11.589844 44.953125 13.890625 C 44.835938 16.816406 43.628906 19.355469 41.402344 21.347656 L 40.957031 21.746094 L 41.167969 21.976562 C 41.472656 22.3125 41.667969 22.648438 41.832031 23.09375 L 41.972656 23.484375 L 41.992188 32.648438 C 42 38.542969 41.984375 41.996094 41.945312 42.328125 C 41.78125 43.679688 40.75 44.753906 39.433594 44.9375 C 38.890625 45.011719 12.042969 45.007812 11.515625 44.929688 Z M 26.75 20.507812 C 26.496094 20.21875 26.117188 19.730469 25.90625 19.425781 C 25.699219 19.121094 25.507812 18.875 25.484375 18.875 C 25.460938 18.875 25.347656 19.03125 25.234375 19.21875 C 25.035156 19.550781 24.574219 20.144531 24.046875 20.746094 L 23.789062 21.039062 L 27.21875 21.039062 Z M 17.890625 17.796875 C 19.863281 17.128906 21.117188 15.292969 21 13.242188 C 20.902344 11.589844 19.933594 10.140625 18.449219 9.433594 C 17.765625 9.105469 17.308594 9.007812 16.496094 9.007812 C 15.652344 9.007812 15.214844 9.109375 14.453125 9.480469 C 14.019531 9.691406 13.824219 9.839844 13.335938 10.328125 C 12.855469 10.808594 12.695312 11.015625 12.484375 11.445312 C 12.109375 12.203125 12.011719 12.632812 12.011719 13.519531 C 12.011719 14.121094 12.039062 14.347656 12.152344 14.726562 C 12.671875 16.386719 13.898438 17.546875 15.535156 17.917969 C 16.148438 18.058594 17.28125 18 17.890625 17.796875 Z M 35.472656 17.914062 C 36.011719 17.800781 36.773438 17.4375 37.285156 17.046875 C 38.015625 16.496094 38.589844 15.636719 38.855469 14.691406 C 39.019531 14.105469 39.050781 13.039062 38.914062 12.496094 C 38.496094 10.808594 37.191406 9.503906 35.503906 9.085938 C 35.027344 8.964844 33.898438 8.980469 33.398438 9.109375 C 32.085938 9.453125 31.023438 10.339844 30.417969 11.597656 C 29.796875 12.890625 29.867188 14.539062 30.59375 15.769531 C 31.238281 16.855469 32.324219 17.644531 33.554688 17.914062 C 34.054688 18.027344 34.945312 18.023438 35.472656 17.914062 Z M 35.472656 17.914062 "/>
</g>
</svg>
