<?xml version="1.0" encoding="UTF-8"?>
<svg xmlns="http://www.w3.org/2000/svg" xmlns:xlink="http://www.w3.org/1999/xlink" width="48" height="48" viewBox="0 0 48 48" version="1.1">
<g id="surface1">
<path style=" stroke:none;fill-rule:nonzero;fill:rgb(74.509804%,74.509804%,74.509804%);fill-opacity:1;" d="M 21.179688 0.03125 C 19.816406 0.179688 18.527344 0.695312 17.429688 1.53125 C 15.964844 2.644531 14.992188 4.394531 14.992188 6.59375 L 14.992188 22.53125 C 14.992188 22.53125 15.699219 24.050781 16.492188 24.050781 C 17.285156 24.050781 17.992188 22.53125 17.992188 22.53125 L 17.992188 6.59375 C 17.992188 5.246094 18.507812 4.480469 19.304688 3.875 C 20.101562 3.265625 21.296875 2.972656 22.492188 3.03125 C 23.6875 3.085938 24.84375 3.492188 25.679688 4.25 C 26.515625 5.003906 27.085938 6.003906 27.085938 7.625 C 27.085938 14.121094 31.476562 18.152344 36.085938 18.03125 C 38.65625 17.964844 41.148438 16.601562 42.835938 14.09375 L 41.148438 11.09375 C 40.023438 13.839844 37.945312 14.980469 35.992188 15.03125 C 33.109375 15.105469 30.085938 12.839844 30.085938 7.625 C 30.085938 5.25 29.074219 3.292969 27.648438 2 C 26.21875 0.707031 24.40625 0.117188 22.585938 0.03125 C 22.132812 0.0078125 21.632812 -0.0195312 21.179688 0.03125 Z M 41.992188 6.03125 C 41.992188 6.167969 41.996094 6.273438 41.992188 6.40625 L 44.335938 10.53125 C 44.371094 10.40625 44.398438 10.28125 44.429688 10.15625 Z M 41.992188 7.0625 C 41.976562 7.378906 41.933594 7.703125 41.898438 8 L 44.054688 11.65625 C 44.125 11.46875 44.179688 11.289062 44.242188 11.09375 Z M 41.804688 8.5625 C 41.765625 8.832031 41.671875 9.0625 41.617188 9.3125 L 43.585938 12.6875 C 43.675781 12.503906 43.789062 12.316406 43.867188 12.125 Z M 41.523438 9.875 C 41.453125 10.140625 41.328125 10.382812 41.242188 10.625 L 43.023438 13.71875 C 43.144531 13.523438 43.289062 13.363281 43.398438 13.15625 Z M 41.523438 9.875 "/>
<path style=" stroke:none;fill-rule:nonzero;fill:rgb(74.509804%,74.509804%,74.509804%);fill-opacity:1;" d="M 8.179688 18.03125 L 24.820312 18.03125 C 26.023438 18.03125 27 19.007812 27 20.210938 L 27 39.851562 C 27 41.054688 26.023438 42.03125 24.820312 42.03125 L 8.179688 42.03125 C 6.976562 42.03125 6 41.054688 6 39.851562 L 6 20.210938 C 6 19.007812 6.976562 18.03125 8.179688 18.03125 Z M 8.179688 18.03125 "/>
<path style=" stroke:none;fill-rule:nonzero;fill:rgb(100%,100%,100%);fill-opacity:1;" d="M 7.558594 41.917969 C 6.859375 41.699219 6.339844 41.179688 6.125 40.492188 C 6.03125 40.179688 6.027344 39.988281 6.027344 30.011719 C 6.027344 19.925781 6.027344 19.851562 6.128906 19.550781 C 6.335938 18.941406 6.691406 18.539062 7.28125 18.257812 L 7.65625 18.078125 L 15.007812 18.046875 L 15.023438 11.839844 C 15.042969 4.976562 15.019531 5.476562 15.367188 4.429688 C 15.890625 2.851562 17.046875 1.585938 18.699219 0.785156 C 19.796875 0.253906 20.449219 0.0898438 21.617188 0.0507812 C 25.183594 -0.0703125 27.949219 1.449219 29.308594 4.277344 C 29.824219 5.347656 29.996094 6.117188 30.0625 7.695312 C 30.148438 9.667969 30.382812 10.722656 31.015625 11.96875 C 31.757812 13.441406 33.082031 14.519531 34.605469 14.894531 C 35.140625 15.027344 36.054688 15.070312 36.59375 14.992188 C 37.886719 14.804688 39.175781 14.066406 40.015625 13.03125 C 40.386719 12.578125 40.898438 11.753906 41.035156 11.394531 C 41.082031 11.273438 41.132812 11.175781 41.148438 11.175781 C 41.167969 11.175781 41.550781 11.832031 42 12.632812 L 42.820312 14.089844 L 42.597656 14.402344 C 41.339844 16.160156 39.457031 17.421875 37.425781 17.859375 C 36.992188 17.957031 36.761719 17.972656 35.886719 17.972656 C 35.011719 17.972656 34.78125 17.957031 34.347656 17.859375 C 31.703125 17.285156 29.503906 15.492188 28.25 12.890625 C 27.75 11.855469 27.367188 10.542969 27.207031 9.3125 C 27.175781 9.078125 27.132812 8.398438 27.105469 7.808594 C 27.050781 6.558594 26.972656 6.171875 26.632812 5.480469 C 25.953125 4.109375 24.554688 3.222656 22.765625 3.039062 C 21.609375 2.917969 20.34375 3.179688 19.523438 3.710938 C 18.921875 4.097656 18.445312 4.644531 18.21875 5.214844 C 17.976562 5.820312 17.976562 5.847656 17.972656 12.140625 L 17.96875 18.050781 L 21.523438 18.050781 C 25.445312 18.050781 25.414062 18.050781 25.945312 18.367188 C 26.480469 18.6875 26.855469 19.273438 26.953125 19.933594 C 27.019531 20.40625 27.019531 39.675781 26.953125 40.148438 C 26.832031 40.976562 26.230469 41.683594 25.453125 41.910156 C 25.207031 41.980469 24.285156 41.988281 16.46875 41.988281 C 9.59375 41.984375 7.71875 41.96875 7.558594 41.917969 Z M 7.558594 41.917969 "/>
</g>
</svg>
