<?xml version="1.0" encoding="UTF-8"?>
<svg xmlns="http://www.w3.org/2000/svg" xmlns:xlink="http://www.w3.org/1999/xlink" width="48" height="48" viewBox="0 0 48 48" version="1.1">
<g id="surface1">
<path style=" stroke:none;fill-rule:nonzero;fill:rgb(74.509804%,74.509804%,74.509804%);fill-opacity:1;" d="M 7.410156 3 C 4.945312 3 3.003906 4.945312 3.003906 7.40625 L 3.003906 40.59375 C 3.003906 43.054688 4.945312 45 7.410156 45 L 34.597656 45 C 37.0625 45 39.003906 43.054688 39.003906 40.59375 L 39.003906 7.40625 C 39.003906 4.945312 37.0625 3 34.597656 3 Z M 6.003906 6 L 36.003906 6 L 36.003906 39 L 6.003906 39 Z M 6.003906 6 "/>
<path style=" stroke:none;fill-rule:nonzero;fill:rgb(100%,100%,100%);fill-opacity:1;" d="M 6.808594 44.929688 C 5.027344 44.671875 3.664062 43.476562 3.167969 41.738281 L 3.03125 41.253906 L 3.011719 24.382812 C 3 12.8125 3.015625 7.332031 3.058594 6.941406 C 3.261719 5.179688 4.375 3.796875 6.0625 3.222656 L 6.558594 3.054688 L 20.707031 3.035156 C 31.148438 3.023438 34.976562 3.035156 35.316406 3.089844 C 36.921875 3.335938 38.203125 4.429688 38.765625 6.027344 L 38.941406 6.523438 L 38.957031 23.820312 C 38.96875 40.980469 38.96875 41.117188 38.847656 41.640625 C 38.65625 42.433594 38.296875 43.078125 37.703125 43.671875 C 36.929688 44.4375 36.191406 44.800781 35.132812 44.9375 C 34.488281 45.015625 7.367188 45.011719 6.808594 44.929688 Z M 36 22.496094 L 36 5.996094 L 5.96875 5.996094 L 5.96875 38.996094 L 36 38.996094 Z M 36 22.496094 "/>
</g>
</svg>
