<?xml version="1.0" encoding="UTF-8"?>
<svg xmlns="http://www.w3.org/2000/svg" xmlns:xlink="http://www.w3.org/1999/xlink" width="48" height="48" viewBox="0 0 48 48" version="1.1">
<g id="surface1">
<path style=" stroke:none;fill-rule:nonzero;fill:rgb(74.509804%,74.509804%,74.509804%);fill-opacity:1;" d="M 10.980469 0 C 6.726562 0 3.199219 3.527344 3.199219 7.78125 L 3.199219 44.90625 L 45.199219 44.90625 L 45.199219 7.78125 C 45.199219 3.527344 41.671875 0 37.417969 0 Z M 10.980469 6 L 37.417969 6 C 38.449219 6 39.199219 6.746094 39.199219 7.78125 L 39.199219 38.90625 L 9.199219 38.90625 L 9.199219 7.78125 C 9.199219 6.746094 9.945312 6 10.980469 6 Z M 10.980469 6 "/>
<path style=" stroke:none;fill-rule:nonzero;fill:rgb(74.509804%,74.509804%,74.509804%);fill-opacity:1;" d="M 15 12.089844 L 15 15.089844 L 33 15.089844 L 33 12.089844 Z M 15 12.089844 "/>
<path style=" stroke:none;fill-rule:nonzero;fill:rgb(74.509804%,74.509804%,74.509804%);fill-opacity:1;" d="M 15 18 L 15 21 L 33 21 L 33 18 Z M 15 18 "/>
<path style=" stroke:none;fill-rule:nonzero;fill:rgb(74.509804%,74.509804%,74.509804%);fill-opacity:1;" d="M 15 24 L 15 27 L 33 27 L 33 24 Z M 15 24 "/>
<path style=" stroke:none;fill-rule:nonzero;fill:rgb(74.509804%,74.509804%,74.509804%);fill-opacity:1;" d="M 15 30 L 15 33 L 33 33 L 33 30 Z M 15 30 "/>
<path style=" stroke:none;fill-rule:nonzero;fill:rgb(100%,100%,100%);fill-opacity:1;" d="M 3.246094 25.9375 C 3.246094 9.125 3.257812 6.941406 3.34375 6.453125 C 3.519531 5.449219 3.945312 4.382812 4.503906 3.550781 C 4.851562 3.035156 4.980469 2.878906 5.558594 2.292969 C 6.652344 1.183594 8.078125 0.4375 9.6875 0.132812 C 10.238281 0.0273438 11.085938 0.0234375 24.140625 0.0234375 C 35.367188 0.0234375 38.109375 0.0351562 38.53125 0.105469 C 40.15625 0.359375 41.589844 1.074219 42.773438 2.222656 C 43.742188 3.160156 44.429688 4.257812 44.816406 5.492188 C 45.183594 6.667969 45.160156 5.351562 45.160156 25.96875 L 45.160156 44.875 L 3.246094 44.875 Z M 39.21875 23.21875 C 39.21875 9.386719 39.207031 7.464844 39.125 7.1875 C 38.992188 6.742188 38.566406 6.289062 38.128906 6.125 L 37.789062 5.996094 L 24.09375 6.011719 C 10.882812 6.027344 10.390625 6.03125 10.179688 6.140625 C 9.8125 6.335938 9.445312 6.738281 9.3125 7.09375 C 9.191406 7.421875 9.191406 7.601562 9.191406 23.179688 L 9.191406 38.933594 L 39.21875 38.933594 Z M 39.21875 23.21875 "/>
<path style=" stroke:none;fill-rule:nonzero;fill:rgb(100%,100%,100%);fill-opacity:1;" d="M 15.011719 13.609375 L 15.011719 12.125 L 32.964844 12.125 L 32.964844 15.097656 L 15.011719 15.097656 Z M 15.011719 13.609375 "/>
<path style=" stroke:none;fill-rule:nonzero;fill:rgb(100%,100%,100%);fill-opacity:1;" d="M 15.011719 19.492188 L 15.011719 18.007812 L 32.964844 18.007812 L 32.964844 20.976562 L 15.011719 20.976562 Z M 15.011719 19.492188 "/>
<path style=" stroke:none;fill-rule:nonzero;fill:rgb(100%,100%,100%);fill-opacity:1;" d="M 15.011719 25.5 L 15.011719 24.011719 L 32.964844 24.011719 L 32.964844 26.984375 L 15.011719 26.984375 Z M 15.011719 25.5 "/>
<path style=" stroke:none;fill-rule:nonzero;fill:rgb(100%,100%,100%);fill-opacity:1;" d="M 15.011719 31.503906 L 15.011719 30.015625 L 32.964844 30.015625 L 32.964844 32.988281 L 15.011719 32.988281 Z M 15.011719 31.503906 "/>
</g>
</svg>
