<?xml version="1.0" encoding="UTF-8"?>
<svg xmlns="http://www.w3.org/2000/svg" xmlns:xlink="http://www.w3.org/1999/xlink" width="48" height="48" viewBox="0 0 48 48" version="1.1">
<g id="surface1">
<path style=" stroke:none;fill-rule:nonzero;fill:rgb(74.509804%,74.509804%,74.509804%);fill-opacity:1;" d="M 9.570312 0 C 5.964844 0 3.007812 2.964844 3.007812 6.5625 L 3.007812 9 L 9.007812 9 L 9.007812 6.5625 C 9.007812 6.171875 9.199219 6 9.570312 6 L 38.445312 6 C 38.816406 6 39.007812 6.171875 39.007812 6.5625 L 39.007812 9 L 45.007812 9 L 45.007812 6.5625 C 45.007812 2.964844 42.050781 0 38.445312 0 Z M 9.570312 0 "/>
<path style=" stroke:none;fill-rule:nonzero;fill:rgb(74.509804%,74.509804%,74.509804%);fill-opacity:1;" d="M 9.570312 36 C 5.964844 36 3.007812 39.058594 3.007812 42.65625 L 3.007812 48.09375 L 9.007812 48.09375 L 9.007812 42.65625 C 9.007812 42.265625 9.199219 42 9.570312 42 L 38.445312 42 C 38.816406 42 39.007812 42.265625 39.007812 42.65625 L 39.007812 48 L 45.007812 48 L 45.007812 42.65625 C 44.976562 39.058594 42.007812 35.996094 38.40625 35.996094 L 9.53125 35.996094 Z M 9.570312 36 "/>
<path style=" stroke:none;fill-rule:nonzero;fill:rgb(74.509804%,74.509804%,74.509804%);fill-opacity:1;" d="M 9.570312 12 C 5.964844 12 3.007812 14.964844 3.007812 18.5625 L 3.007812 21 L 9.007812 21 L 9.007812 18.5625 C 9.007812 18.171875 9.199219 18 9.570312 18 L 38.445312 18 C 38.816406 18 39.007812 18.171875 39.007812 18.5625 L 39.007812 21 L 45.007812 21 L 45.007812 18.5625 C 45.007812 14.964844 42.050781 12 38.445312 12 Z M 9.570312 12 "/>
<path style=" stroke:none;fill-rule:nonzero;fill:rgb(74.509804%,74.509804%,74.509804%);fill-opacity:1;" d="M 9.570312 24 C 5.964844 24 3.007812 26.964844 3.007812 30.5625 L 3.007812 33 L 9.007812 33 L 9.007812 30.5625 C 9.007812 30.171875 9.199219 30 9.570312 30 L 38.445312 30 C 38.816406 30 39.007812 30.171875 39.007812 30.5625 L 39.007812 33 L 45.007812 33 L 45.007812 30.5625 C 45.007812 26.964844 42.050781 24 38.445312 24 Z M 9.570312 24 "/>
<path style=" stroke:none;fill-rule:nonzero;fill:rgb(100%,100%,100%);fill-opacity:1;" d="M 3.027344 44.941406 C 3.050781 42.230469 3.070312 41.726562 3.160156 41.324219 C 3.640625 39.257812 4.925781 37.609375 6.765625 36.699219 C 7.582031 36.296875 8.199219 36.128906 9.15625 36.046875 C 10.125 35.96875 37.9375 35.96875 38.851562 36.046875 C 39.742188 36.128906 40.371094 36.292969 41.097656 36.636719 C 43.070312 37.570312 44.460938 39.375 44.871094 41.523438 C 44.945312 41.921875 44.964844 42.601562 44.964844 44.992188 L 44.964844 47.964844 L 39.007812 47.964844 L 39.007812 42.3125 L 38.703125 42.007812 L 9.300781 42.007812 L 9.148438 42.167969 L 9 42.328125 L 8.980469 45.207031 L 8.964844 48.089844 L 3 48.089844 Z M 3.027344 44.941406 "/>
<path style=" stroke:none;fill-rule:nonzero;fill:rgb(100%,100%,100%);fill-opacity:1;" d="M 3.011719 31.6875 C 3.011719 29.695312 3.140625 28.910156 3.65625 27.816406 C 4.023438 27.039062 4.371094 26.546875 4.960938 25.957031 C 6.015625 24.90625 7.332031 24.257812 8.796875 24.074219 C 9.503906 23.984375 38.46875 23.984375 39.195312 24.074219 C 41.863281 24.398438 44.011719 26.253906 44.761719 28.882812 C 44.914062 29.40625 44.921875 29.539062 44.949219 31.222656 L 44.976562 33.007812 L 39.007812 33.007812 L 39.007812 31.648438 C 39.007812 30.40625 38.996094 30.277344 38.890625 30.144531 L 38.769531 30 L 9.28125 30 L 9.140625 30.140625 C 9.003906 30.277344 9 30.320312 8.980469 31.644531 L 8.960938 33.007812 L 3.011719 33.007812 Z M 3.011719 31.6875 "/>
<path style=" stroke:none;fill-rule:nonzero;fill:rgb(100%,100%,100%);fill-opacity:1;" d="M 3.027344 19.308594 C 3.058594 17.476562 3.132812 17.027344 3.5625 15.996094 C 4.402344 13.980469 6.449219 12.40625 8.628906 12.09375 C 8.988281 12.042969 13.234375 12.03125 24.296875 12.042969 L 39.472656 12.0625 L 40.070312 12.226562 C 42.199219 12.816406 43.847656 14.320312 44.589844 16.359375 C 44.90625 17.21875 44.964844 17.714844 44.964844 19.421875 L 44.964844 20.96875 L 39.007812 20.96875 L 39.007812 19.628906 C 39.007812 18.292969 39.007812 18.292969 38.855469 18.140625 L 38.703125 17.988281 L 24.015625 17.988281 C 14.558594 17.988281 9.292969 18.011719 9.21875 18.050781 C 9.011719 18.160156 8.96875 18.460938 8.96875 19.734375 L 8.96875 20.96875 L 2.996094 20.96875 Z M 3.027344 19.308594 "/>
<path style=" stroke:none;fill-rule:nonzero;fill:rgb(100%,100%,100%);fill-opacity:1;" d="M 3.011719 7.703125 C 3.011719 6.992188 3.039062 6.175781 3.070312 5.886719 C 3.332031 3.621094 4.6875 1.6875 6.703125 0.703125 C 7.503906 0.3125 8.226562 0.121094 9.1875 0.046875 C 9.707031 0.0078125 15.183594 -0.0078125 24.609375 0.0078125 C 39.171875 0.0273438 39.226562 0.0273438 39.785156 0.15625 C 41.785156 0.621094 43.398438 1.878906 44.296875 3.683594 C 44.851562 4.792969 44.964844 5.441406 44.964844 7.445312 L 44.964844 8.988281 L 39.007812 8.988281 L 39.007812 7.636719 C 39.007812 6.125 39 6.101562 38.601562 6.007812 C 38.207031 5.917969 9.609375 5.9375 9.34375 6.03125 C 8.996094 6.148438 8.96875 6.265625 8.96875 7.703125 L 8.96875 8.988281 L 3.011719 8.988281 Z M 3.011719 7.703125 "/>
</g>
</svg>
