<?xml version="1.0" encoding="UTF-8"?>
<svg xmlns="http://www.w3.org/2000/svg" xmlns:xlink="http://www.w3.org/1999/xlink" width="48" height="48" viewBox="0 0 48 48" version="1.1">
<g id="surface1">
<path style=" stroke:none;fill-rule:nonzero;fill:rgb(74.509804%,74.509804%,74.509804%);fill-opacity:1;" d="M 11.960938 27.339844 C 14.800781 26.507812 17.824219 28.230469 18.71875 31.183594 L 20.746094 37.863281 C 21.640625 40.816406 20.070312 43.882812 17.230469 44.710938 C 14.394531 45.542969 11.367188 43.820312 10.472656 40.867188 L 8.449219 34.1875 C 7.550781 31.234375 9.125 28.167969 11.960938 27.339844 Z M 11.960938 27.339844 "/>
<path style=" stroke:none;fill-rule:nonzero;fill:rgb(74.509804%,74.509804%,74.509804%);fill-opacity:1;" d="M 23.910156 3 C 13.992188 3 5.839844 12.023438 6.003906 20.15625 C 6.148438 27.253906 8.429688 34.242188 9.003906 36 L 13.582031 36 C 10.09375 29.125 10.433594 20.53125 10.433594 20.53125 C 10.433594 13.414062 16.453125 7.59375 23.910156 7.59375 C 31.367188 7.59375 37.410156 13.074219 37.386719 20.4375 C 37.316406 25.460938 36.871094 28.414062 34.371094 36 L 39.082031 36 C 39.757812 34.066406 42.003906 26.429688 42.003906 20.15625 C 42.003906 11.667969 33.828125 3 23.910156 3 Z M 23.910156 3 "/>
<path style=" stroke:none;fill-rule:nonzero;fill:rgb(74.509804%,74.509804%,74.509804%);fill-opacity:1;" d="M 36.039062 27.414062 C 33.203125 26.585938 30.175781 28.308594 29.28125 31.261719 L 27.257812 37.9375 C 26.359375 40.890625 27.933594 43.960938 30.769531 44.789062 C 33.609375 45.617188 36.632812 43.898438 37.53125 40.941406 L 39.554688 34.265625 C 40.449219 31.3125 38.875 28.246094 36.039062 27.414062 Z M 36.039062 27.414062 "/>
<path style=" stroke:none;fill-rule:nonzero;fill:rgb(100%,100%,100%);fill-opacity:1;" d="M 31.601562 44.9375 C 29.039062 44.597656 27.195312 42.554688 27.042969 39.890625 C 27.015625 39.472656 27.035156 39.105469 27.101562 38.75 C 27.234375 37.980469 29.335938 31.082031 29.625 30.460938 C 29.945312 29.773438 30.316406 29.265625 30.90625 28.710938 C 32.390625 27.320312 34.445312 26.875 36.335938 27.539062 C 36.535156 27.609375 36.710938 27.65625 36.722656 27.644531 C 36.769531 27.597656 37.042969 25.882812 37.136719 25.066406 C 37.402344 22.738281 37.46875 19.730469 37.277344 18.53125 C 36.433594 13.230469 32.628906 9.234375 27.199219 7.953125 C 25.070312 7.449219 22.46875 7.480469 20.359375 8.035156 C 14.988281 9.449219 11.03125 13.9375 10.484375 19.238281 C 10.390625 20.148438 10.449219 23.519531 10.578125 24.757812 C 10.710938 26.011719 10.933594 27.625 10.980469 27.679688 C 11.003906 27.703125 11.214844 27.644531 11.453125 27.546875 C 12.484375 27.113281 13.890625 27.046875 14.949219 27.386719 C 16.582031 27.90625 17.875 29.101562 18.515625 30.695312 C 18.742188 31.253906 20.824219 38.171875 20.890625 38.585938 C 20.980469 39.136719 20.96875 40.160156 20.863281 40.648438 C 20.449219 42.597656 19.179688 44.046875 17.363281 44.636719 C 16.605469 44.886719 15.507812 44.949219 14.742188 44.792969 C 13.066406 44.445312 11.570312 43.265625 10.828125 41.707031 C 10.707031 41.449219 10.289062 40.191406 9.902344 38.914062 C 9.511719 37.632812 9.039062 36.085938 8.847656 35.484375 C 7.152344 30.105469 6.175781 24.90625 6.054688 20.636719 C 6.015625 19.25 6.074219 18.425781 6.28125 17.382812 C 7.332031 12.175781 11.292969 7.28125 16.464844 4.785156 C 19.101562 3.511719 21.703125 2.945312 24.484375 3.042969 C 28.28125 3.175781 31.796875 4.488281 35.015625 6.96875 C 35.855469 7.617188 37.519531 9.257812 38.1875 10.097656 C 40.808594 13.398438 42.140625 17.203125 41.976562 20.917969 C 41.820312 24.285156 41.320312 27.566406 40.359375 31.445312 C 39.894531 33.335938 39.289062 35.421875 39.058594 35.929688 C 39.011719 36.03125 38.609375 37.3125 38.164062 38.777344 C 37.304688 41.601562 37.117188 42.058594 36.53125 42.824219 C 35.578125 44.066406 34.089844 44.859375 32.53125 44.957031 C 32.242188 44.972656 31.824219 44.964844 31.601562 44.9375 Z M 31.601562 44.9375 "/>
</g>
</svg>
