<?xml version="1.0" encoding="UTF-8"?>
<svg xmlns="http://www.w3.org/2000/svg" xmlns:xlink="http://www.w3.org/1999/xlink" width="48" height="48" viewBox="0 0 48 48" version="1.1">
<g id="surface1">
<path style=" stroke:none;fill-rule:nonzero;fill:rgb(74.509804%,74.509804%,74.509804%);fill-opacity:1;" d="M 10.5 0 C 10.5 0 6 0 6 4.5 L 6 31.5 C 6 36 10.5 36 10.5 36 L 15 36 L 15 42 C 15 43.664062 16.335938 45 18 45 L 30 45 C 31.664062 45 33 43.664062 33 42 L 33 36 L 37.5 36 C 42 36 42 31.5 42 31.5 L 42 4.5 C 42 0 37.5 0 37.5 0 Z M 12 6 L 18 6 L 18 12 L 12 12 Z M 21 6 L 27 6 L 27 12 L 21 12 Z M 30 6 L 36 6 L 36 12 L 30 12 Z M 12 15 L 18 15 L 18 21 L 12 21 Z M 21 15 L 27 15 L 27 21 L 21 21 Z M 30 15 L 36 15 L 36 21 L 30 21 Z M 12 24 L 18 24 L 18 30 L 12 30 Z M 21 24 L 27 24 L 27 30 L 21 30 Z M 30 24 L 36 24 L 36 30 L 30 30 Z M 21 33 L 27 33 L 27 39 L 21 39 Z M 21 33 "/>
<path style=" stroke:none;fill-rule:nonzero;fill:rgb(100%,100%,100%);fill-opacity:1;" d="M 17.488281 44.929688 C 17.058594 44.859375 16.359375 44.527344 16.023438 44.234375 C 15.707031 43.957031 15.386719 43.476562 15.1875 42.988281 L 15.039062 42.617188 L 15.023438 39.289062 L 15.003906 35.960938 L 12.539062 35.960938 C 10.507812 35.960938 9.984375 35.945312 9.585938 35.859375 C 7.625 35.457031 6.375 34.21875 6.097656 32.398438 C 6.050781 32.101562 6.035156 27.617188 6.046875 17.730469 C 6.066406 4.226562 6.070312 3.46875 6.175781 3.117188 C 6.390625 2.40625 6.714844 1.84375 7.179688 1.382812 C 7.949219 0.613281 8.929688 0.183594 10.21875 0.0507812 C 10.695312 0.00390625 14.886719 -0.0117188 24.484375 0.00390625 L 38.074219 0.0234375 L 38.675781 0.1875 C 39.589844 0.441406 40.207031 0.785156 40.796875 1.378906 C 41.363281 1.945312 41.613281 2.390625 41.835938 3.222656 L 41.972656 3.738281 L 41.972656 32.03125 L 41.832031 32.585938 C 41.421875 34.210938 40.488281 35.277344 39.0625 35.757812 L 38.566406 35.929688 L 32.964844 35.96875 L 32.964844 39.203125 C 32.964844 42 32.953125 42.484375 32.867188 42.777344 C 32.570312 43.765625 31.925781 44.457031 30.949219 44.828125 L 30.582031 44.96875 L 24.203125 44.976562 C 20.5625 44.984375 17.683594 44.964844 17.488281 44.929688 Z M 27.023438 35.992188 L 27.023438 32.988281 L 20.953125 32.988281 L 20.953125 38.996094 L 27.023438 38.996094 Z M 18.03125 27 L 18.011719 23.980469 L 12.007812 23.980469 L 11.992188 27 L 11.976562 30.015625 L 18.046875 30.015625 Z M 27.007812 27 L 26.988281 23.980469 L 20.984375 23.980469 L 20.96875 27 L 20.953125 30.015625 L 27.023438 30.015625 Z M 36 26.984375 L 36 23.949219 L 29.992188 23.949219 L 29.992188 30.015625 L 36 30.015625 Z M 18.03125 17.992188 L 18.046875 14.972656 L 11.976562 14.972656 L 11.976562 21.042969 L 14.996094 21.027344 L 18.011719 21.011719 Z M 27.023438 18.007812 L 27.023438 14.972656 L 20.984375 15.003906 L 20.96875 17.945312 C 20.960938 19.5625 20.964844 20.921875 20.984375 20.964844 C 21.007812 21.023438 21.667969 21.039062 24.015625 21.039062 L 27.023438 21.039062 Z M 36 18.007812 L 36 14.972656 L 29.992188 14.972656 L 29.992188 21.039062 L 36 21.039062 Z M 18.042969 9 L 18.042969 5.996094 L 11.976562 5.996094 L 11.976562 12 L 18.042969 12 Z M 27.023438 9 L 27.023438 5.996094 L 20.953125 5.996094 L 20.953125 12 L 27.023438 12 Z M 36 9 L 36 5.996094 L 29.992188 5.996094 L 29.992188 12 L 36 12 Z M 36 9 "/>
</g>
</svg>
