<?xml version="1.0" encoding="UTF-8"?>
<svg xmlns="http://www.w3.org/2000/svg" xmlns:xlink="http://www.w3.org/1999/xlink" width="48" height="48" viewBox="0 0 48 48" version="1.1">
<g id="surface1">
<path style=" stroke:none;fill-rule:nonzero;fill:rgb(74.509804%,74.509804%,74.509804%);fill-opacity:1;" d="M 14.039062 12 C 11.246094 11.992188 8.984375 14.296875 8.96875 17.179688 C 9.023438 19.414062 9.035156 21.699219 9.015625 23.988281 L 17.78125 24.03125 L 17.835938 12.019531 L 14.039062 12.003906 Z M 21.261719 12.035156 L 21.203125 24.046875 L 29.96875 24.09375 C 30.015625 21.796875 30.058594 19.492188 30.078125 17.285156 C 30.085938 14.402344 27.855469 12.070312 25.0625 12.054688 L 21.261719 12.039062 Z M 9.003906 27.277344 C 8.96875 29.773438 8.890625 31.78125 8.890625 34.074219 C 8.863281 40.109375 13.546875 44.988281 19.394531 45.019531 C 25.238281 45.050781 29.96875 40.214844 30 34.183594 C 29.894531 31.671875 29.859375 29.65625 29.886719 27.277344 Z M 9.003906 27.277344 "/>
<path style=" stroke:none;fill-rule:nonzero;fill:rgb(74.509804%,74.509804%,74.509804%);fill-opacity:1;" d="M 24.179688 0.03125 C 22.816406 0.179688 21.527344 0.695312 20.429688 1.53125 C 18.964844 2.644531 17.992188 4.394531 17.992188 6.59375 C 17.980469 7.382812 18.699219 8.113281 19.492188 8.113281 C 20.285156 8.113281 21.003906 7.382812 20.992188 6.59375 C 20.992188 5.246094 21.507812 4.480469 22.304688 3.875 C 23.101562 3.265625 24.296875 2.972656 25.492188 3.03125 C 26.6875 3.085938 27.84375 3.492188 28.679688 4.25 C 29.515625 5.003906 30.085938 6.003906 30.085938 7.625 C 30.085938 14.121094 34.476562 18.152344 39.085938 18.03125 C 41.65625 17.964844 44.148438 16.601562 45.835938 14.09375 L 44.148438 11.09375 C 43.023438 13.839844 40.945312 14.980469 38.992188 15.03125 C 36.109375 15.105469 33.085938 12.839844 33.085938 7.625 C 33.085938 5.25 32.074219 3.292969 30.648438 2 C 29.21875 0.707031 27.40625 0.117188 25.585938 0.03125 C 25.132812 0.0078125 24.632812 -0.0195312 24.179688 0.03125 Z M 44.992188 5.9375 C 44.992188 5.96875 44.992188 6 44.992188 6.03125 C 44.992188 6.164062 44.996094 6.273438 44.992188 6.40625 L 47.335938 10.53125 C 47.371094 10.40625 47.398438 10.28125 47.429688 10.15625 Z M 44.992188 7.0625 C 44.976562 7.378906 44.933594 7.703125 44.898438 8 L 47.054688 11.65625 C 47.125 11.46875 47.179688 11.289062 47.242188 11.09375 Z M 44.804688 8.5625 C 44.765625 8.828125 44.671875 9.0625 44.617188 9.3125 L 46.585938 12.6875 C 46.675781 12.503906 46.789062 12.316406 46.867188 12.125 Z M 44.523438 9.875 C 44.453125 10.140625 44.328125 10.378906 44.242188 10.625 L 46.023438 13.71875 C 46.144531 13.523438 46.289062 13.363281 46.398438 13.15625 Z M 44.523438 9.875 "/>
<path style=" stroke:none;fill-rule:nonzero;fill:rgb(100%,100%,100%);fill-opacity:1;" d="M 37.902344 17.945312 C 34.683594 17.53125 31.894531 15.082031 30.75 11.65625 C 30.359375 10.488281 30.191406 9.5 30.117188 7.921875 C 30.035156 6.164062 29.785156 5.410156 28.996094 4.546875 C 28.085938 3.554688 26.777344 3.027344 25.234375 3.027344 C 23.8125 3.027344 22.78125 3.382812 21.960938 4.15625 C 21.324219 4.761719 21.050781 5.375 20.976562 6.382812 C 20.925781 7.035156 20.851562 7.261719 20.570312 7.582031 C 19.984375 8.246094 19.003906 8.246094 18.414062 7.570312 C 18.109375 7.222656 18.039062 7.003906 18.039062 6.359375 C 18.042969 5.347656 18.367188 4.164062 18.890625 3.28125 C 19.820312 1.703125 21.765625 0.4375 23.757812 0.117188 C 24.769531 -0.046875 26.589844 0.0820312 27.691406 0.398438 C 28.378906 0.59375 29.597656 1.195312 30.125 1.59375 C 31.070312 2.3125 31.960938 3.449219 32.425781 4.53125 C 32.828125 5.460938 32.96875 6.128906 33.039062 7.421875 C 33.148438 9.453125 33.332031 10.433594 33.804688 11.53125 C 34.398438 12.910156 35.300781 13.886719 36.53125 14.488281 C 37.4375 14.929688 37.792969 15.007812 38.824219 15.011719 C 39.828125 15.011719 40.261719 14.917969 41.074219 14.542969 C 42.277344 13.984375 43.214844 13.027344 43.902344 11.660156 L 44.160156 11.148438 L 44.929688 12.515625 C 45.351562 13.269531 45.726562 13.933594 45.757812 14 C 45.800781 14.089844 45.734375 14.214844 45.445312 14.589844 C 43.5625 17.046875 40.726562 18.308594 37.902344 17.945312 Z M 37.902344 17.945312 "/>
<path style=" stroke:none;fill-rule:nonzero;fill:rgb(100%,100%,100%);fill-opacity:1;" d="M 11.839844 23.980469 L 9.078125 23.964844 L 9.039062 20.355469 C 8.996094 16.480469 9.007812 16.296875 9.300781 15.433594 C 9.847656 13.84375 11.21875 12.574219 12.847656 12.15625 C 13.289062 12.042969 16.347656 11.960938 17.277344 12.039062 L 17.792969 12.082031 L 17.792969 17.449219 C 17.792969 20.402344 17.773438 23.089844 17.753906 23.421875 L 17.710938 24.027344 L 16.15625 24.011719 C 15.300781 24.003906 13.359375 23.988281 11.839844 23.980469 Z M 11.839844 23.980469 "/>
<path style=" stroke:none;fill-rule:nonzero;fill:rgb(100%,100%,100%);fill-opacity:1;" d="M 18.660156 44.960938 C 16.742188 44.820312 14.875 44.121094 13.261719 42.941406 C 13.046875 42.78125 12.59375 42.386719 12.257812 42.058594 C 10.632812 40.476562 9.621094 38.632812 9.144531 36.386719 C 8.9375 35.414062 8.90625 34.28125 8.964844 30.324219 L 9.011719 27.308594 L 29.871094 27.308594 L 29.875 29.460938 C 29.875 30.644531 29.902344 32.226562 29.933594 32.976562 C 29.964844 33.792969 29.964844 34.621094 29.929688 35.039062 C 29.542969 39.808594 26.203125 43.742188 21.695312 44.738281 C 21.050781 44.882812 20.695312 44.925781 19.652344 44.988281 C 19.464844 45 19.019531 44.988281 18.660156 44.960938 Z M 18.660156 44.960938 "/>
<path style=" stroke:none;fill-rule:nonzero;fill:rgb(100%,100%,100%);fill-opacity:1;" d="M 24.179688 24.039062 L 21.179688 24.023438 L 21.222656 23.367188 C 21.242188 23.003906 21.261719 20.308594 21.261719 17.382812 L 21.261719 12.058594 L 23.570312 12.085938 C 25.734375 12.109375 25.90625 12.121094 26.339844 12.25 C 27.882812 12.710938 29.105469 13.839844 29.707031 15.359375 C 30.039062 16.199219 30.070312 16.605469 30.03125 19.566406 C 30.011719 21.046875 29.976562 22.671875 29.957031 23.171875 L 29.921875 24.085938 L 28.550781 24.074219 C 27.796875 24.0625 25.828125 24.050781 24.179688 24.039062 Z M 24.179688 24.039062 "/>
<path style=" stroke:none;fill-rule:nonzero;fill:rgb(100%,100%,100%);fill-opacity:1;" d="M 45.136719 12.144531 L 44.265625 10.621094 L 44.394531 10.292969 C 44.503906 10.015625 44.535156 9.980469 44.59375 10.0625 C 44.636719 10.113281 45.046875 10.828125 45.511719 11.640625 C 46.066406 12.617188 46.347656 13.160156 46.320312 13.230469 C 46.300781 13.292969 46.222656 13.414062 46.148438 13.503906 L 46.007812 13.667969 Z M 45.136719 12.144531 "/>
<path style=" stroke:none;fill-rule:nonzero;fill:rgb(100%,100%,100%);fill-opacity:1;" d="M 45.601562 10.960938 L 44.636719 9.296875 L 44.734375 8.972656 L 44.832031 8.644531 L 45.839844 10.390625 L 46.847656 12.132812 L 46.722656 12.382812 C 46.652344 12.515625 46.589844 12.625 46.582031 12.625 C 46.574219 12.625 46.132812 11.875 45.601562 10.960938 Z M 45.601562 10.960938 "/>
<path style=" stroke:none;fill-rule:nonzero;fill:rgb(100%,100%,100%);fill-opacity:1;" d="M 46.164062 8.429688 C 45.535156 7.316406 45.011719 6.324219 45 6.21875 C 44.984375 6.097656 45 6.054688 45.039062 6.09375 C 45.070312 6.125 45.621094 7.054688 46.253906 8.15625 C 47.21875 9.828125 47.402344 10.183594 47.359375 10.304688 C 47.316406 10.429688 47.152344 10.167969 46.164062 8.429688 Z M 46.164062 8.429688 "/>
<path style=" stroke:none;fill-rule:nonzero;fill:rgb(100%,100%,100%);fill-opacity:1;" d="M 46.320312 10.367188 C 45.917969 9.683594 45.4375 8.871094 45.253906 8.5625 L 44.917969 7.992188 L 45.019531 7.148438 L 47.222656 11.097656 L 47.136719 11.351562 L 47.054688 11.601562 Z M 46.320312 10.367188 "/>
</g>
</svg>
