<?xml version="1.0" encoding="UTF-8"?>
<svg xmlns="http://www.w3.org/2000/svg" xmlns:xlink="http://www.w3.org/1999/xlink" width="48" height="48" viewBox="0 0 48 48" version="1.1">
<g id="surface1">
<path style=" stroke:none;fill-rule:nonzero;fill:rgb(74.509804%,74.509804%,74.509804%);fill-opacity:1;" d="M 3 6 C 1.335938 6 0 7.335938 0 9 L 0 39 C 0 40.664062 1.335938 42 3 42 L 45 42 C 46.664062 42 48 40.664062 48 39 L 48 9 C 48 7.335938 46.664062 6 45 6 Z M 6 12 L 12 12 L 12 18 L 6 18 Z M 15 12 L 21 12 L 21 18 L 15 18 Z M 24 12 L 30 12 L 30 18 L 24 18 Z M 33 12 L 39 12 L 39 18 L 33 18 Z M 9 21 L 15 21 L 15 27 L 9 27 Z M 18 21 L 24 21 L 24 27 L 18 27 Z M 27 21 L 33 21 L 33 27 L 27 27 Z M 36 21 L 42 21 L 42 27 L 36 27 Z M 6 30 L 12 30 L 12 36 L 6 36 Z M 15 30 L 33 30 L 33 36 L 15 36 Z M 36 30 L 45 30 L 45 36 L 36 36 Z M 36 30 "/>
<path style=" stroke:none;fill-rule:nonzero;fill:rgb(100%,100%,100%);fill-opacity:1;" d="M 2.199219 41.867188 C 1.183594 41.59375 0.3125 40.667969 0.0976562 39.625 C 0.046875 39.390625 0.0273438 34.890625 0.0273438 23.960938 C 0.0273438 7.164062 0.00390625 8.285156 0.382812 7.589844 C 0.746094 6.921875 1.316406 6.445312 2.078125 6.171875 L 2.472656 6.027344 L 23.648438 6.011719 C 37.234375 6 45 6.015625 45.328125 6.054688 C 46.019531 6.136719 46.546875 6.386719 47.042969 6.859375 C 47.46875 7.273438 47.699219 7.640625 47.847656 8.164062 C 47.9375 8.476562 47.945312 9.980469 47.933594 24.136719 L 47.917969 39.769531 L 47.683594 40.253906 C 47.289062 41.078125 46.605469 41.648438 45.738281 41.875 C 45.207031 42.011719 2.714844 42.007812 2.199219 41.867188 Z M 12.023438 33.003906 L 12.007812 29.988281 L 6.003906 29.988281 L 5.988281 33.003906 L 5.96875 36.023438 L 12.039062 36.023438 Z M 33.027344 32.988281 L 33.027344 29.957031 L 24.003906 29.96875 L 14.980469 29.988281 L 14.964844 32.929688 C 14.953125 34.546875 14.960938 35.902344 14.976562 35.945312 C 15 36.007812 16.867188 36.023438 24.015625 36.023438 L 33.027344 36.023438 Z M 45.023438 33.003906 L 45.007812 29.988281 L 40.503906 29.96875 L 36 29.953125 L 36 36.023438 L 45.039062 36.023438 Z M 15.011719 24.011719 L 15.011719 20.976562 L 9.003906 20.976562 L 9.003906 27.046875 L 15.011719 27.046875 Z M 24.019531 24.011719 L 24.019531 21.011719 L 21 20.992188 L 17.984375 20.976562 L 17.984375 27.046875 L 21 27.03125 L 24.019531 27.015625 Z M 33.027344 24.011719 L 33.027344 20.976562 L 26.960938 20.976562 L 26.960938 23.96875 C 26.960938 25.617188 26.976562 26.984375 27 27.003906 C 27.023438 27.027344 28.390625 27.046875 30.035156 27.046875 L 33.027344 27.046875 Z M 42.003906 24.011719 L 42.003906 20.976562 L 36 20.976562 L 36 27.046875 L 42.003906 27.046875 Z M 12.039062 15.003906 L 12.039062 12 L 5.96875 12 L 5.96875 18.007812 L 12.039062 18.007812 Z M 21.015625 15.003906 L 21.015625 12 L 14.949219 12 L 14.949219 14.964844 C 14.949219 16.59375 14.96875 17.941406 14.988281 17.964844 C 15.011719 17.988281 16.375 18.007812 18.023438 18.007812 L 21.015625 18.007812 Z M 29.992188 15.003906 L 29.992188 12 L 23.988281 12 L 23.988281 18.007812 L 29.992188 18.007812 Z M 39.03125 15.003906 L 39.03125 12 L 32.964844 12 L 32.964844 18.007812 L 39.03125 18.007812 Z M 39.03125 15.003906 "/>
</g>
</svg>
