<?xml version="1.0" encoding="UTF-8"?>
<svg xmlns="http://www.w3.org/2000/svg" xmlns:xlink="http://www.w3.org/1999/xlink" width="48" height="48" viewBox="0 0 48 48" version="1.1">
<g id="surface1">
<path style=" stroke:none;fill-rule:nonzero;fill:rgb(74.509804%,74.509804%,74.509804%);fill-opacity:1;" d="M 8.910156 3 C 5.683594 3 3.003906 5.679688 3.003906 8.90625 L 3.003906 37.3125 L 3.941406 38.15625 L 9.003906 43.21875 L 9.003906 9 L 39.003906 9 L 39.003906 39 L 33.003906 39 L 33.003906 45 L 39.097656 45 C 42.324219 45 45.003906 42.320312 45.003906 39.09375 L 45.003906 8.90625 C 45.003906 5.667969 42.335938 3 39.09375 3 Z M 8.910156 3 "/>
<path style=" stroke:none;fill-rule:nonzero;fill:rgb(74.509804%,74.509804%,74.509804%);fill-opacity:1;" d="M 15 27 C 13.335938 27 12 28.335938 12 30 L 12 42 C 12 43.664062 13.335938 45 15 45 L 27 45 C 28.664062 45 30 43.664062 30 42 L 30 30 C 30 28.335938 28.664062 27 27 27 Z M 15 30 L 21 30 L 21 42 L 15 42 Z M 15 30 "/>
<path style=" stroke:none;fill-rule:nonzero;fill:rgb(100%,100%,100%);fill-opacity:1;" d="M 14.546875 44.933594 C 13.351562 44.734375 12.4375 43.90625 12.125 42.742188 C 12.054688 42.492188 12.039062 41.195312 12.039062 35.988281 C 12.039062 28.953125 12.023438 29.300781 12.390625 28.566406 C 12.632812 28.089844 13.1875 27.578125 13.753906 27.308594 L 14.238281 27.078125 L 20.859375 27.058594 C 27.3125 27.042969 27.496094 27.046875 27.886719 27.164062 C 28.898438 27.476562 29.679688 28.332031 29.902344 29.382812 C 30.03125 29.996094 30.035156 41.980469 29.902344 42.59375 C 29.640625 43.835938 28.664062 44.757812 27.421875 44.9375 C 26.894531 45.011719 15 45.011719 14.546875 44.933594 Z M 21.015625 35.992188 L 21.015625 29.953125 L 17.996094 29.96875 L 14.980469 29.988281 L 14.964844 35.929688 C 14.953125 39.199219 14.960938 41.910156 14.976562 41.953125 C 15 42.011719 15.664062 42.03125 18.011719 42.03125 L 21.015625 42.03125 Z M 21.015625 35.992188 "/>
<path style=" stroke:none;fill-rule:nonzero;fill:rgb(100%,100%,100%);fill-opacity:1;" d="M 33.027344 42.003906 L 33.027344 38.996094 L 39.03125 38.996094 L 39.03125 8.96875 L 9.003906 8.96875 L 9.003906 43.164062 L 6.234375 40.414062 C 4.710938 38.894531 3.359375 37.578125 3.230469 37.484375 L 3 37.308594 L 3 23.144531 C 3 13.722656 3.019531 8.769531 3.0625 8.351562 C 3.207031 6.953125 3.78125 5.761719 4.789062 4.753906 C 5.632812 3.914062 6.628906 3.382812 7.804688 3.140625 C 8.363281 3.027344 8.847656 3.023438 24.21875 3.039062 L 40.054688 3.054688 L 40.546875 3.195312 C 42.640625 3.785156 44.214844 5.359375 44.804688 7.453125 L 44.945312 7.945312 L 44.960938 23.734375 C 44.972656 34.660156 44.960938 39.65625 44.914062 39.953125 C 44.625 41.863281 43.339844 43.566406 41.558594 44.410156 C 40.410156 44.957031 40.40625 44.957031 36.480469 44.984375 L 33.027344 45.011719 Z M 33.027344 42.003906 "/>
</g>
</svg>
