<?xml version="1.0" encoding="UTF-8"?>
<svg xmlns="http://www.w3.org/2000/svg" xmlns:xlink="http://www.w3.org/1999/xlink" width="48" height="48" viewBox="0 0 48 48" version="1.1">
<g id="surface1">
<path style=" stroke:none;fill-rule:nonzero;fill:rgb(74.509804%,74.509804%,74.509804%);fill-opacity:1;" d="M 10.679688 6 C 8.128906 6 6 8.128906 6 10.679688 L 6 37.304688 C 6 39.851562 8.144531 41.992188 10.6875 41.992188 L 34.3125 41.992188 C 36.855469 41.992188 39 39.851562 39 37.304688 L 39 12.367188 L 38.15625 11.523438 L 33.84375 6.929688 L 33.003906 5.96875 L 31.683594 5.96875 Z M 11.992188 12 L 30.367188 12 L 33.007812 14.820312 L 33.007812 36 L 12.007812 36 Z M 11.992188 12 "/>
<path style=" stroke:none;fill-rule:nonzero;fill:rgb(74.509804%,74.509804%,74.509804%);fill-opacity:1;" d="M 17.789062 15.210938 L 27.1875 15.210938 C 28.742188 15.210938 29.988281 16.460938 29.988281 18.011719 L 29.988281 24.160156 C 29.988281 25.710938 28.742188 26.960938 27.1875 26.960938 L 17.789062 26.960938 C 16.238281 26.960938 14.988281 25.710938 14.988281 24.160156 L 14.988281 18.011719 C 14.988281 16.453125 16.25 15.222656 17.777344 15.222656 Z M 17.789062 15.210938 "/>
<path style=" stroke:none;fill-rule:nonzero;fill:rgb(100%,100%,100%);fill-opacity:1;" d="M 17.09375 26.851562 C 16.460938 26.707031 15.683594 26.097656 15.359375 25.503906 C 15.019531 24.878906 15.011719 24.765625 15.011719 21.125 C 15.011719 18.890625 15.035156 17.65625 15.078125 17.4375 C 15.3125 16.324219 16.222656 15.46875 17.363281 15.285156 C 17.617188 15.246094 19.558594 15.222656 22.59375 15.222656 C 26.6875 15.222656 27.484375 15.238281 27.820312 15.316406 C 28.953125 15.582031 29.78125 16.496094 29.929688 17.648438 C 30.007812 18.253906 30.007812 23.988281 29.929688 24.539062 C 29.773438 25.613281 29.035156 26.484375 28.007812 26.804688 C 27.648438 26.917969 27.367188 26.921875 22.480469 26.917969 C 19.625 26.914062 17.226562 26.882812 17.09375 26.851562 Z M 17.09375 26.851562 "/>
<path style=" stroke:none;fill-rule:nonzero;fill:rgb(100%,100%,100%);fill-opacity:1;" d="M 9.769531 41.875 C 8.304688 41.554688 7.078125 40.558594 6.441406 39.171875 C 6 38.207031 6.027344 39.34375 6.046875 23.796875 L 6.0625 9.804688 L 6.210938 9.371094 C 6.75 7.761719 7.933594 6.625 9.554688 6.164062 L 10.027344 6.027344 L 21.515625 6.011719 L 33.007812 5.992188 L 33.398438 6.445312 C 33.90625 7.03125 37.960938 11.347656 38.53125 11.90625 L 38.96875 12.339844 L 38.96875 25.0625 C 38.96875 38.828125 38.984375 38.140625 38.640625 38.992188 C 38.386719 39.621094 38.097656 40.050781 37.578125 40.574219 C 36.875 41.273438 36.136719 41.679688 35.203125 41.875 C 34.605469 42.003906 10.355469 42 9.769531 41.875 Z M 33.027344 25.417969 L 33.027344 14.8125 L 30.402344 12 L 11.976562 12 L 11.976562 36.023438 L 33.027344 36.023438 Z M 33.027344 25.417969 "/>
</g>
</svg>
