<?xml version="1.0" encoding="UTF-8"?>
<svg xmlns="http://www.w3.org/2000/svg" xmlns:xlink="http://www.w3.org/1999/xlink" width="48" height="48" viewBox="0 0 48 48" version="1.1">
<g id="surface1">
<path style=" stroke:none;fill-rule:nonzero;fill:rgb(74.509804%,74.509804%,74.509804%);fill-opacity:1;" d="M 23.96875 3 C 12.441406 3 2.988281 12.453125 2.988281 23.980469 C 2.988281 35.507812 12.441406 45.027344 23.96875 45.027344 C 35.496094 45.027344 45.015625 35.507812 45.015625 23.980469 C 45.015625 12.453125 35.496094 3 23.96875 3 Z M 23.96875 15.027344 C 29.011719 15.027344 32.988281 18.9375 32.988281 23.980469 C 32.988281 29.023438 29.011719 33 23.96875 33 C 18.929688 33 15.015625 29.023438 15.015625 23.980469 C 15.015625 18.9375 18.929688 15.027344 23.96875 15.027344 Z M 23.96875 15.027344 "/>
<path style=" stroke:none;fill-rule:nonzero;fill:rgb(74.509804%,74.509804%,74.509804%);fill-opacity:1;" d="M 24.03125 18.03125 C 20.734375 18.03125 17.988281 20.722656 17.988281 24.019531 C 17.988281 27.316406 20.734375 30.007812 24.03125 30.007812 C 27.324219 30.007812 30.019531 27.316406 30.019531 24.019531 C 30.019531 20.722656 27.324219 18.03125 24.03125 18.03125 Z M 24.03125 21.023438 C 25.703125 21.023438 27.023438 22.34375 27.023438 24.019531 C 27.023438 25.695312 25.703125 27.015625 24.03125 27.015625 C 22.355469 27.015625 21.035156 25.695312 21.035156 24.019531 C 21.035156 22.34375 22.355469 21.023438 24.03125 21.023438 Z M 24.03125 21.023438 "/>
<path style=" stroke:none;fill-rule:nonzero;fill:rgb(100%,100%,100%);fill-opacity:1;" d="M 23.027344 29.90625 C 21.949219 29.714844 21.003906 29.269531 20.105469 28.523438 C 19.230469 27.796875 18.503906 26.640625 18.199219 25.488281 C 18.015625 24.800781 17.972656 23.734375 18.101562 23.023438 C 18.320312 21.777344 18.859375 20.757812 19.773438 19.84375 C 20.792969 18.828125 21.976562 18.253906 23.40625 18.085938 C 26.464844 17.730469 29.359375 19.921875 29.917969 23.007812 C 30.011719 23.539062 30 24.640625 29.890625 25.152344 C 29.402344 27.476562 27.75 29.214844 25.453125 29.8125 C 24.851562 29.96875 23.648438 30.015625 23.027344 29.90625 Z M 24.996094 26.871094 C 27.09375 26.148438 27.726562 23.492188 26.175781 21.925781 C 25.214844 20.953125 23.894531 20.742188 22.652344 21.351562 C 21.667969 21.835938 21.035156 22.867188 21.035156 23.988281 C 21.035156 24.546875 21.105469 24.855469 21.34375 25.359375 C 21.707031 26.121094 22.429688 26.707031 23.289062 26.941406 C 23.699219 27.054688 24.570312 27.015625 24.996094 26.871094 Z M 24.996094 26.871094 "/>
<path style=" stroke:none;fill-rule:nonzero;fill:rgb(100%,100%,100%);fill-opacity:1;" d="M 23.117188 44.992188 C 17.894531 44.734375 13.132812 42.664062 9.40625 39.03125 C 5.953125 35.671875 3.828125 31.429688 3.171875 26.59375 C 3.027344 25.515625 2.988281 23.234375 3.097656 22.105469 C 3.648438 16.328125 6.421875 11.222656 10.988281 7.5625 C 14.378906 4.847656 18.65625 3.242188 23.019531 3.050781 C 28.390625 2.8125 33.628906 4.632812 37.6875 8.144531 C 38.359375 8.726562 39.699219 10.097656 40.214844 10.730469 C 44.804688 16.359375 46.183594 23.644531 43.949219 30.46875 C 41.429688 38.164062 34.554688 43.84375 26.550781 44.847656 C 25.429688 44.984375 24.125 45.039062 23.117188 44.992188 Z M 25.347656 32.90625 C 28.214844 32.484375 30.667969 30.738281 31.988281 28.171875 C 33.804688 24.644531 33.144531 20.34375 30.363281 17.59375 C 29.15625 16.398438 27.496094 15.527344 25.75 15.175781 C 25.238281 15.070312 25.03125 15.058594 23.96875 15.058594 C 22.910156 15.058594 22.699219 15.070312 22.230469 15.171875 C 21.445312 15.335938 20.90625 15.503906 20.3125 15.761719 C 17.632812 16.9375 15.808594 19.207031 15.179688 22.152344 C 15.054688 22.734375 15.042969 22.867188 15.042969 23.984375 C 15.042969 25.101562 15.054688 25.234375 15.179688 25.816406 C 15.714844 28.328125 17.136719 30.390625 19.238281 31.695312 C 21 32.785156 23.1875 33.222656 25.347656 32.90625 Z M 25.347656 32.90625 "/>
</g>
</svg>
