<?xml version="1.0" encoding="UTF-8"?>
<svg xmlns="http://www.w3.org/2000/svg" xmlns:xlink="http://www.w3.org/1999/xlink" width="48" height="48" viewBox="0 0 48 48" version="1.1">
<g id="surface1">
<path style=" stroke:none;fill-rule:nonzero;fill:rgb(74.509804%,74.509804%,74.509804%);fill-opacity:1;" d="M 23.96875 3 C 12.441406 3 2.988281 12.453125 2.988281 23.980469 C 2.988281 35.507812 12.441406 45.027344 23.96875 45.027344 C 35.496094 45.027344 45.015625 35.507812 45.015625 23.980469 C 45.015625 12.453125 35.496094 3 23.96875 3 Z M 23.96875 15.027344 C 29.011719 15.027344 32.988281 18.9375 32.988281 23.980469 C 32.988281 29.023438 29.011719 33 23.96875 33 C 18.929688 33 15.015625 29.023438 15.015625 23.980469 C 15.015625 18.9375 18.929688 15.027344 23.96875 15.027344 Z M 23.96875 15.027344 "/>
<path style=" stroke:none;fill-rule:nonzero;fill:rgb(74.509804%,74.509804%,74.509804%);fill-opacity:1;" d="M 24.03125 18.03125 C 20.734375 18.03125 17.988281 20.722656 17.988281 24.019531 C 17.988281 27.316406 20.734375 30.007812 24.03125 30.007812 C 27.324219 30.007812 30.019531 27.316406 30.019531 24.019531 C 30.019531 20.722656 27.324219 18.03125 24.03125 18.03125 Z M 24.03125 21.023438 C 25.703125 21.023438 27.023438 22.34375 27.023438 24.019531 C 27.023438 25.695312 25.703125 27.015625 24.03125 27.015625 C 22.355469 27.015625 21.035156 25.695312 21.035156 24.019531 C 21.035156 22.34375 22.355469 21.023438 24.03125 21.023438 Z M 24.03125 21.023438 "/>
<path style=" stroke:none;fill-rule:nonzero;fill:rgb(100%,100%,100%);fill-opacity:1;" d="M 23.484375 29.945312 C 20.871094 29.746094 18.605469 27.691406 18.105469 25.066406 C 18.007812 24.566406 18.023438 23.367188 18.128906 22.867188 C 18.578125 20.785156 20.074219 19.078125 22.050781 18.40625 C 22.867188 18.125 23.429688 18.046875 24.328125 18.085938 C 25.90625 18.15625 27.234375 18.761719 28.339844 19.921875 C 29.878906 21.53125 30.386719 23.84375 29.664062 25.964844 C 29.175781 27.390625 28.046875 28.671875 26.679688 29.351562 C 25.675781 29.851562 24.671875 30.035156 23.484375 29.945312 Z M 24.675781 26.957031 C 25.710938 26.738281 26.550781 25.980469 26.894531 24.957031 C 27.042969 24.503906 27.0625 23.714844 26.9375 23.238281 C 26.445312 21.398438 24.410156 20.484375 22.6875 21.328125 C 20.726562 22.292969 20.441406 25.003906 22.160156 26.378906 C 22.871094 26.953125 23.753906 27.152344 24.675781 26.957031 Z M 24.675781 26.957031 "/>
<path style=" stroke:none;fill-rule:nonzero;fill:rgb(100%,100%,100%);fill-opacity:1;" d="M 22.191406 44.929688 C 17.414062 44.53125 12.75 42.351562 9.28125 38.902344 C 5.777344 35.417969 3.664062 31.03125 3.117188 26.117188 C 3.015625 25.203125 3.015625 22.761719 3.117188 21.84375 C 3.5625 17.832031 5.015625 14.269531 7.542969 11.011719 C 8.210938 10.144531 10.160156 8.203125 11.046875 7.515625 C 15.039062 4.429688 19.691406 2.894531 24.574219 3.042969 C 28.226562 3.15625 31.5625 4.132812 34.746094 6.023438 C 37.476562 7.640625 40.082031 10.195312 41.796875 12.929688 C 44.796875 17.707031 45.730469 23.476562 44.386719 28.941406 C 42.523438 36.515625 36.484375 42.542969 28.882812 44.410156 C 26.789062 44.921875 24.375 45.109375 22.191406 44.929688 Z M 25.84375 32.835938 C 27.621094 32.4375 29.105469 31.636719 30.335938 30.421875 C 31.726562 29.039062 32.566406 27.394531 32.910156 25.375 C 33.023438 24.707031 33.007812 23.121094 32.878906 22.402344 C 32.660156 21.1875 32.144531 19.917969 31.4375 18.859375 C 31.039062 18.265625 30.089844 17.28125 29.445312 16.796875 C 28.367188 15.992188 26.816406 15.339844 25.445312 15.128906 C 24.453125 14.96875 22.785156 15.023438 21.867188 15.242188 C 20.238281 15.628906 18.882812 16.371094 17.695312 17.527344 C 16.40625 18.777344 15.597656 20.25 15.183594 22.101562 C 15.058594 22.65625 15.039062 22.910156 15.042969 23.980469 C 15.042969 25.351562 15.101562 25.746094 15.480469 26.921875 C 16.472656 30.015625 19.101562 32.28125 22.410156 32.894531 C 23.085938 33.019531 25.183594 32.984375 25.84375 32.835938 Z M 25.84375 32.835938 "/>
</g>
</svg>
