<?xml version="1.0" encoding="UTF-8"?>
<svg xmlns="http://www.w3.org/2000/svg" xmlns:xlink="http://www.w3.org/1999/xlink" width="48" height="48" viewBox="0 0 48 48" version="1.1">
<g id="surface1">
<path style=" stroke:none;fill-rule:nonzero;fill:rgb(74.509804%,74.509804%,74.509804%);fill-opacity:1;" d="M 23.96875 3 C 12.441406 3 2.988281 12.453125 2.988281 23.980469 C 2.988281 35.507812 12.441406 45.027344 23.96875 45.027344 C 35.496094 45.027344 45.015625 35.507812 45.015625 23.980469 C 45.015625 12.453125 35.496094 3 23.96875 3 Z M 23.96875 15.027344 C 29.011719 15.027344 32.988281 18.9375 32.988281 23.980469 C 32.988281 29.023438 29.011719 33 23.96875 33 C 18.929688 33 15.015625 29.023438 15.015625 23.980469 C 15.015625 18.9375 18.929688 15.027344 23.96875 15.027344 Z M 23.96875 15.027344 "/>
<path style=" stroke:none;fill-rule:nonzero;fill:rgb(74.509804%,74.509804%,74.509804%);fill-opacity:1;" d="M 24.03125 18.03125 C 20.734375 18.03125 17.988281 20.722656 17.988281 24.019531 C 17.988281 27.316406 20.734375 30.007812 24.03125 30.007812 C 27.324219 30.007812 30.019531 27.316406 30.019531 24.019531 C 30.019531 20.722656 27.324219 18.03125 24.03125 18.03125 Z M 24.03125 21.023438 C 25.703125 21.023438 27.023438 22.34375 27.023438 24.019531 C 27.023438 25.695312 25.703125 27.015625 24.03125 27.015625 C 22.355469 27.015625 21.035156 25.695312 21.035156 24.019531 C 21.035156 22.34375 22.355469 21.023438 24.03125 21.023438 Z M 24.03125 21.023438 "/>
<path style=" stroke:none;fill-rule:nonzero;fill:rgb(100%,100%,100%);fill-opacity:1;" d="M 23.492188 29.945312 C 21 29.746094 18.855469 27.933594 18.1875 25.46875 C 17.988281 24.730469 17.988281 23.320312 18.1875 22.585938 C 18.664062 20.832031 19.839844 19.414062 21.457031 18.644531 C 22.410156 18.195312 22.828125 18.105469 24.050781 18.109375 C 25.015625 18.109375 25.148438 18.125 25.648438 18.273438 C 27.308594 18.78125 28.625 19.878906 29.363281 21.371094 C 30.515625 23.691406 30.054688 26.425781 28.207031 28.257812 C 26.941406 29.503906 25.304688 30.09375 23.492188 29.945312 Z M 24.6875 26.953125 C 26.664062 26.484375 27.621094 24.363281 26.664062 22.566406 C 25.722656 20.796875 23.214844 20.476562 21.839844 21.957031 C 21.289062 22.550781 21.039062 23.175781 21.039062 23.988281 C 21.035156 24.871094 21.316406 25.558594 21.917969 26.160156 C 22.648438 26.886719 23.695312 27.1875 24.6875 26.953125 Z M 24.6875 26.953125 "/>
<path style=" stroke:none;fill-rule:nonzero;fill:rgb(100%,100%,100%);fill-opacity:1;" d="M 22.5625 44.964844 C 20.003906 44.707031 18.460938 44.359375 16.527344 43.605469 C 13.765625 42.53125 11.496094 41.0625 9.375 38.988281 C 5.738281 35.425781 3.550781 30.832031 3.09375 25.808594 C 2.945312 24.164062 3.046875 21.964844 3.34375 20.296875 C 4.496094 13.835938 8.734375 8.199219 14.679688 5.214844 C 18.574219 3.265625 23.027344 2.59375 27.363281 3.308594 C 34.136719 4.425781 39.984375 8.828125 42.960938 15.050781 C 45.429688 20.210938 45.652344 26.171875 43.578125 31.511719 C 42.996094 33.003906 42.003906 34.835938 41.082031 36.117188 C 40.09375 37.492188 38.359375 39.332031 37.140625 40.304688 C 33.980469 42.824219 30.421875 44.34375 26.496094 44.847656 C 25.765625 44.941406 23.125 45.019531 22.5625 44.964844 Z M 25.945312 32.8125 C 26.761719 32.621094 27.386719 32.390625 28.171875 31.988281 C 31.152344 30.457031 32.996094 27.402344 32.996094 23.980469 C 32.996094 19.691406 30.144531 16.148438 25.9375 15.210938 C 25.371094 15.085938 25.125 15.066406 23.988281 15.066406 C 22.539062 15.066406 22.128906 15.125 21.007812 15.5 C 18.511719 16.328125 16.5 18.28125 15.554688 20.789062 C 15.117188 21.953125 14.917969 23.476562 15.035156 24.765625 C 15.417969 28.953125 18.363281 32.175781 22.46875 32.902344 C 23.179688 33.027344 25.253906 32.976562 25.945312 32.8125 Z M 25.945312 32.8125 "/>
</g>
</svg>
