<?xml version="1.0" encoding="UTF-8"?>
<svg xmlns="http://www.w3.org/2000/svg" xmlns:xlink="http://www.w3.org/1999/xlink" width="48" height="48" viewBox="0 0 48 48" version="1.1">
<g id="surface1">
<path style=" stroke:none;fill-rule:nonzero;fill:rgb(74.509804%,74.509804%,74.509804%);fill-opacity:1;" d="M 16.410156 3 C 13.945312 3 12.003906 4.945312 12.003906 7.40625 L 12.003906 40.59375 C 12.003906 43.054688 13.945312 45 16.410156 45 L 31.785156 45 C 34.25 45 36.191406 43.054688 36.191406 40.59375 L 36.191406 7.40625 C 36.191406 4.945312 34.25 3 31.785156 3 Z M 15.003906 6 L 33.191406 6 L 33.191406 39 L 15.003906 39 Z M 15.003906 6 "/>
<path style=" stroke:none;fill-rule:nonzero;fill:rgb(100%,100%,100%);fill-opacity:1;" d="M 15.792969 44.929688 C 14.824219 44.804688 14.054688 44.414062 13.300781 43.664062 C 12.890625 43.257812 12.742188 43.058594 12.507812 42.582031 C 11.996094 41.539062 12.035156 43.195312 12.054688 23.8125 L 12.070312 6.523438 L 12.234375 6.042969 C 12.773438 4.460938 14.089844 3.335938 15.691406 3.085938 C 16.03125 3.035156 18.386719 3.023438 24.390625 3.035156 L 32.625 3.054688 L 33.058594 3.199219 C 33.828125 3.460938 34.320312 3.757812 34.851562 4.292969 C 35.609375 5.050781 35.988281 5.8125 36.125 6.84375 C 36.167969 7.167969 36.183594 12.96875 36.171875 24.320312 C 36.152344 40.414062 36.148438 41.335938 36.042969 41.6875 C 35.566406 43.289062 34.53125 44.34375 32.953125 44.828125 L 32.5 44.964844 L 24.359375 44.976562 C 19.835938 44.984375 16.027344 44.960938 15.792969 44.929688 Z M 33.210938 22.496094 L 33.210938 5.996094 L 15.011719 5.996094 L 15.011719 38.996094 L 33.210938 38.996094 Z M 33.210938 22.496094 "/>
</g>
</svg>
