<?xml version="1.0" encoding="UTF-8"?>
<svg xmlns="http://www.w3.org/2000/svg" xmlns:xlink="http://www.w3.org/1999/xlink" width="48" height="48" viewBox="0 0 48 48" version="1.1">
<g id="surface1">
<path style=" stroke:none;fill-rule:nonzero;fill:rgb(74.509804%,74.509804%,74.509804%);fill-opacity:1;" d="M 13.40625 3 C 10.945312 3 9 4.945312 9 7.40625 L 9 40.59375 C 9 43.054688 10.945312 45 13.40625 45 L 34.59375 45 C 37.058594 45 39 43.054688 39 40.59375 L 39 7.40625 C 39 4.945312 37.058594 3 34.59375 3 Z M 12 6 L 36 6 L 36 21 L 12 21 Z M 24 24 C 28.972656 24 33 28.03125 33 33 C 33 37.96875 28.972656 42 24 42 C 19.03125 42 15 37.96875 15 33 C 15 28.03125 19.03125 24 24 24 Z M 24 24 "/>
<path style=" stroke:none;fill-rule:nonzero;fill:rgb(74.509804%,74.509804%,74.509804%);fill-opacity:1;" d="M 28.5 33 C 28.5 35.484375 26.484375 37.5 24 37.5 C 21.515625 37.5 19.5 35.484375 19.5 33 C 19.5 30.515625 21.515625 28.5 24 28.5 C 26.484375 28.5 28.5 30.515625 28.5 33 Z M 28.5 33 "/>
<path style=" stroke:none;fill-rule:nonzero;fill:rgb(100%,100%,100%);fill-opacity:1;" d="M 23.546875 37.4375 C 21.886719 37.289062 20.382812 36.128906 19.808594 34.542969 C 18.929688 32.144531 20.175781 29.585938 22.625 28.738281 C 23.070312 28.585938 23.210938 28.566406 23.957031 28.566406 C 24.90625 28.5625 25.371094 28.671875 26.15625 29.078125 C 26.726562 29.375 27.566406 30.199219 27.886719 30.78125 C 29.257812 33.257812 28.09375 36.320312 25.4375 37.234375 C 24.90625 37.417969 24.175781 37.496094 23.546875 37.4375 Z M 23.546875 37.4375 "/>
<path style=" stroke:none;fill-rule:nonzero;fill:rgb(100%,100%,100%);fill-opacity:1;" d="M 12.789062 44.929688 C 11.820312 44.804688 11.050781 44.414062 10.296875 43.664062 C 9.886719 43.257812 9.742188 43.058594 9.507812 42.582031 C 8.996094 41.546875 9.039062 43.171875 9.035156 23.976562 C 9.035156 7.042969 9.039062 6.8125 9.160156 6.332031 C 9.550781 4.785156 10.71875 3.589844 12.261719 3.164062 C 12.632812 3.0625 13.355469 3.054688 24.050781 3.054688 L 35.441406 3.054688 L 35.917969 3.21875 C 37.605469 3.792969 38.710938 5.132812 38.9375 6.871094 C 38.988281 7.238281 39 12.363281 38.988281 24.351562 L 38.96875 41.316406 L 38.828125 41.78125 C 38.351562 43.3125 37.3125 44.351562 35.773438 44.828125 L 35.316406 44.96875 L 24.265625 44.976562 C 18.0625 44.984375 13.027344 44.960938 12.789062 44.929688 Z M 25.628906 41.871094 C 27.847656 41.445312 29.898438 40.167969 31.234375 38.378906 C 31.96875 37.394531 32.574219 36.046875 32.847656 34.785156 C 33.011719 34.039062 33.011719 32.007812 32.851562 31.253906 C 32.460938 29.425781 31.65625 27.929688 30.367188 26.640625 C 29.023438 25.296875 27.320312 24.410156 25.484375 24.105469 C 24.707031 23.976562 23.25 23.972656 22.53125 24.101562 C 18.753906 24.765625 15.878906 27.582031 15.125 31.359375 C 14.957031 32.1875 14.972656 33.921875 15.152344 34.765625 C 15.539062 36.5625 16.371094 38.097656 17.640625 39.367188 C 19.152344 40.875 20.953125 41.722656 23.214844 41.992188 C 23.644531 42.042969 25.113281 41.96875 25.628906 41.871094 Z M 36.03125 13.519531 L 36.03125 5.996094 L 12.007812 5.996094 L 12.007812 21.039062 L 36.03125 21.039062 Z M 36.03125 13.519531 "/>
</g>
</svg>
