<?xml version="1.0" encoding="UTF-8"?>
<svg xmlns="http://www.w3.org/2000/svg" xmlns:xlink="http://www.w3.org/1999/xlink" width="48" height="48" viewBox="0 0 48 48" version="1.1">
<g id="surface1">
<path style=" stroke:none;fill-rule:nonzero;fill:rgb(74.509804%,74.509804%,74.509804%);fill-opacity:1;" d="M 18 36 L 18 42 L 1.40625 42 C 0.617188 42 0 42.617188 0 43.40625 L 0 46.59375 C 0 47.382812 0.617188 48 1.40625 48 L 40.59375 48 C 41.382812 48 42 47.382812 42 46.59375 L 42 43.40625 C 42 42.617188 41.382812 42 40.59375 42 L 24 42 L 24 36 Z M 18 36 "/>
<path style=" stroke:none;fill-rule:nonzero;fill:rgb(74.509804%,74.509804%,74.509804%);fill-opacity:1;" d="M 12.148438 6.359375 L 12.148438 23.96875 L 30.007812 23.96875 L 30.007812 12.171875 L 24.007812 6.359375 Z M 6.007812 24.015625 L 6.007812 35.890625 L 35.914062 35.890625 L 35.914062 24.015625 L 33.054688 24.015625 L 33.050781 26.957031 L 8.964844 27.0625 L 8.964844 24.015625 Z M 6.007812 24.015625 "/>
<path style=" stroke:none;fill-rule:nonzero;fill:rgb(100%,100%,100%);fill-opacity:1;" d="M 12.164062 15.160156 L 12.164062 6.367188 L 23.996094 6.367188 L 29.980469 12.15625 L 29.988281 18.054688 L 29.992188 23.949219 L 12.164062 23.949219 Z M 12.164062 15.160156 "/>
<path style=" stroke:none;fill-rule:nonzero;fill:rgb(100%,100%,100%);fill-opacity:1;" d="M 6.035156 29.957031 L 6.035156 24.011719 L 8.941406 24.011719 L 8.941406 27.085938 L 13.042969 27.066406 C 15.300781 27.054688 20.734375 27.027344 25.117188 27.007812 L 33.089844 26.96875 L 33.089844 24.011719 L 35.875 24.011719 L 35.875 35.898438 L 6.035156 35.898438 Z M 6.035156 29.957031 "/>
<path style=" stroke:none;fill-rule:nonzero;fill:rgb(100%,100%,100%);fill-opacity:1;" d="M 0.761719 47.800781 C 0.519531 47.671875 0.378906 47.542969 0.246094 47.324219 L 0.0585938 47.023438 L 0.0585938 42.976562 L 0.246094 42.671875 C 0.382812 42.445312 0.515625 42.328125 0.765625 42.199219 L 1.101562 42.03125 L 18.042969 42.03125 L 18.042969 36.023438 L 23.988281 36.023438 L 23.988281 42.03125 L 32.390625 42.03125 C 38.066406 42.03125 40.871094 42.050781 41.03125 42.09375 C 41.328125 42.175781 41.660156 42.46875 41.835938 42.796875 C 41.96875 43.042969 41.972656 43.113281 41.972656 45 C 41.972656 46.890625 41.96875 46.957031 41.835938 47.203125 C 41.660156 47.53125 41.328125 47.824219 41.03125 47.90625 C 40.867188 47.953125 34.605469 47.972656 20.945312 47.972656 L 1.09375 47.972656 Z M 0.761719 47.800781 "/>
</g>
</svg>
