<?xml version="1.0" encoding="UTF-8"?>
<svg xmlns="http://www.w3.org/2000/svg" xmlns:xlink="http://www.w3.org/1999/xlink" width="16" height="16" viewBox="0 0 16 16" version="1.1">
<g id="surface1">
<path style=" stroke:none;fill-rule:evenodd;fill:rgb(20%,20%,20%);fill-opacity:1;" d="M 2.015625 4.761719 L 3.71875 6.429688 L 3.667969 4.09375 L 2.015625 4.085938 Z M 2.015625 4.761719 "/>
<path style="fill-rule:evenodd;fill:rgb(94.901961%,94.901961%,94.901961%);fill-opacity:1;stroke-width:5.03546;stroke-linecap:butt;stroke-linejoin:miter;stroke:rgb(68.627451%,68.627451%,68.627451%);stroke-opacity:1;stroke-miterlimit:4;" d="M 97.045898 1024.774289 L 433.959961 1023.675656 L 435.058594 659.784055 L 347.045898 570.550656 L 97.045898 570.550656 Z M 97.045898 1024.774289 " transform="matrix(0.032,0,0,0.032,0,-17.67559)"/>
<path style="fill-rule:evenodd;fill:rgb(68.627451%,68.627451%,68.627451%);fill-opacity:1;stroke-width:5.03546;stroke-linecap:butt;stroke-linejoin:miter;stroke:rgb(68.627451%,68.627451%,68.627451%);stroke-opacity:1;stroke-miterlimit:4;" d="M 431.518555 657.953 L 349.365234 657.342648 L 350.097656 573.602414 Z M 431.518555 657.953 " transform="matrix(0.032,0,0,0.032,0,-17.67559)"/>
<path style=" stroke:none;fill-rule:nonzero;fill:rgb(22.352941%,25.098039%,31.372549%);fill-opacity:1;" d="M 2.019531 2.074219 L 9.21875 2.074219 L 9.21875 4.773438 L 2.019531 4.773438 Z M 2.019531 2.074219 "/>
<path style=" stroke:none;fill-rule:evenodd;fill:rgb(60%,60%,60%);fill-opacity:1;" d="M 9.535156 14.910156 C 7.398438 15.476562 5.210938 14.203125 4.644531 12.066406 C 4.078125 9.933594 5.351562 7.742188 7.484375 7.179688 L 8.441406 10.78125 C 8.296875 10.820312 8.210938 10.96875 8.246094 11.113281 C 8.285156 11.257812 8.433594 11.34375 8.578125 11.304688 Z M 7.484375 7.179688 C 9.621094 6.613281 11.808594 7.882812 12.375 10.019531 C 12.941406 12.15625 11.667969 14.34375 9.535156 14.910156 L 8.578125 11.304688 C 8.722656 11.265625 8.808594 11.117188 8.773438 10.972656 C 8.734375 10.828125 8.585938 10.742188 8.441406 10.78125 Z M 7.484375 7.179688 "/>
<path style=" stroke:none;fill-rule:evenodd;fill:rgb(80%,80%,80%);fill-opacity:1;" d="M 9.535156 14.910156 C 7.398438 15.476562 5.210938 14.203125 4.644531 12.066406 C 4.078125 9.933594 5.351562 7.742188 7.484375 7.179688 L 8.441406 10.78125 C 8.296875 10.820312 8.210938 10.96875 8.246094 11.113281 C 8.285156 11.257812 8.433594 11.34375 8.578125 11.304688 Z M 7.484375 7.179688 C 9.621094 6.613281 11.808594 7.882812 12.375 10.019531 C 12.941406 12.15625 11.667969 14.34375 9.535156 14.910156 L 8.578125 11.304688 C 8.722656 11.265625 8.808594 11.117188 8.773438 10.972656 C 8.734375 10.828125 8.585938 10.742188 8.441406 10.78125 Z M 7.484375 7.179688 "/>
<path style=" stroke:none;fill-rule:evenodd;fill:rgb(36.470588%,41.568627%,48.235294%);fill-opacity:1;" d="M 8.875 12.425781 C 8.113281 12.625 7.332031 12.171875 7.128906 11.410156 C 6.925781 10.648438 7.382812 9.863281 8.144531 9.664062 L 8.441406 10.78125 C 8.296875 10.820312 8.210938 10.96875 8.246094 11.113281 C 8.285156 11.257812 8.433594 11.34375 8.578125 11.304688 Z M 8.144531 9.664062 C 8.90625 9.460938 9.6875 9.914062 9.890625 10.679688 C 10.09375 11.441406 9.636719 12.222656 8.875 12.425781 L 8.578125 11.304688 C 8.722656 11.265625 8.808594 11.117188 8.773438 10.972656 C 8.734375 10.828125 8.585938 10.742188 8.441406 10.78125 Z M 8.144531 9.664062 "/>
<path style=" stroke:none;fill-rule:evenodd;fill:rgb(60%,60%,60%);fill-opacity:1;" d="M 8.816406 12.203125 C 8.175781 12.371094 7.519531 11.992188 7.351562 11.351562 C 7.179688 10.710938 7.5625 10.054688 8.203125 9.882812 L 8.441406 10.78125 C 8.296875 10.820312 8.210938 10.96875 8.246094 11.113281 C 8.285156 11.257812 8.433594 11.34375 8.578125 11.304688 Z M 8.203125 9.882812 C 8.84375 9.714844 9.5 10.097656 9.667969 10.738281 C 9.839844 11.375 9.457031 12.03125 8.816406 12.203125 L 8.578125 11.304688 C 8.722656 11.265625 8.808594 11.117188 8.773438 10.972656 C 8.734375 10.828125 8.585938 10.742188 8.441406 10.78125 Z M 8.203125 9.882812 "/>
<path style=" stroke:none;fill-rule:evenodd;fill:rgb(36.470588%,41.568627%,48.235294%);fill-opacity:1;" d="M 8.640625 11.53125 C 8.371094 11.601562 8.09375 11.441406 8.023438 11.171875 C 7.953125 10.902344 8.113281 10.628906 8.382812 10.554688 L 8.441406 10.78125 C 8.296875 10.820312 8.210938 10.96875 8.246094 11.113281 C 8.285156 11.257812 8.433594 11.34375 8.578125 11.304688 Z M 8.382812 10.554688 C 8.648438 10.484375 8.925781 10.644531 8.996094 10.914062 C 9.070312 11.183594 8.910156 11.460938 8.640625 11.53125 L 8.578125 11.304688 C 8.722656 11.265625 8.808594 11.117188 8.773438 10.972656 C 8.734375 10.828125 8.585938 10.742188 8.441406 10.78125 Z M 8.382812 10.554688 "/>
<path style=" stroke:none;fill-rule:nonzero;fill:rgb(22.352941%,25.098039%,31.372549%);fill-opacity:1;" d="M 9.933594 14.140625 C 9.417969 14.414062 8.636719 14.320312 8.429688 13.875 C 8.21875 13.433594 8.558594 12.949219 9.113281 12.636719 C 9.667969 12.328125 10.210938 12.554688 10.210938 12.554688 L 10.25 8.605469 L 10.652344 8.734375 L 10.914062 9.359375 C 10.914062 9.359375 11.882812 9.875 12.105469 11.058594 C 12.328125 12.242188 10.925781 13.171875 10.925781 13.171875 C 10.925781 13.171875 12.105469 11.929688 11.816406 11.019531 C 11.523438 10.109375 10.628906 10.011719 10.628906 10.011719 L 10.652344 13.261719 C 10.652344 13.261719 10.449219 13.863281 9.933594 14.140625 Z M 9.933594 14.140625 "/>
<path style="fill:none;stroke-width:9;stroke-linecap:butt;stroke-linejoin:miter;stroke:rgb(100%,100%,100%);stroke-opacity:1;stroke-miterlimit:4;" d="M 153.564453 639.520383 C 153.564453 639.520383 145.874023 632.684445 132.080078 633.783078 C 118.164062 634.881711 110.229492 650.628781 110.961914 662.713742 C 111.694336 674.676633 122.314453 688.958859 135.864258 687.738156 C 149.414062 686.639523 153.564453 681.756711 153.564453 681.756711 " transform="matrix(0.032,0,0,0.032,0,-17.67559)"/>
<path style="fill:none;stroke-width:9;stroke-linecap:butt;stroke-linejoin:miter;stroke:rgb(100%,100%,100%);stroke-opacity:1;stroke-miterlimit:4;" d="M 168.334961 686.761594 L 168.823242 634.63757 C 168.823242 634.63757 208.740234 628.778195 209.228516 661.126828 C 209.716797 693.475461 168.334961 686.761594 168.334961 686.761594 Z M 168.334961 686.761594 " transform="matrix(0.032,0,0,0.032,0,-17.67559)"/>
<path style="fill:none;stroke-width:9;stroke-linecap:butt;stroke-linejoin:bevel;stroke:rgb(100%,100%,100%);stroke-opacity:1;stroke-miterlimit:4;" d="M 915.693204 696.315186 L 937.874721 638.012947 L 960.54108 696.315186 " transform="matrix(0.032227,0,0,0.032227,-22.474889,-17.994837)"/>
<path style="fill:none;stroke-width:9;stroke-linecap:butt;stroke-linejoin:miter;stroke:rgb(100%,100%,100%);stroke-opacity:1;stroke-miterlimit:4;" d="M 924.541568 676.800299 L 950.3594 676.800299 " transform="matrix(0.032227,0,0,0.032227,-22.474889,-17.994837)"/>
</g>
</svg>
