<?xml version="1.0" encoding="UTF-8"?>
<svg xmlns="http://www.w3.org/2000/svg" xmlns:xlink="http://www.w3.org/1999/xlink" width="16" height="16" viewBox="0 0 16 16" version="1.1">
<g id="surface1">
<path style=" stroke:none;fill-rule:evenodd;fill:rgb(0%,11.372549%,39.215686%);fill-opacity:1;" d="M 2.015625 4.921875 L 3.71875 6.589844 L 3.667969 4.253906 L 2.015625 4.246094 Z M 2.015625 4.921875 "/>
<path style="fill-rule:evenodd;fill:rgb(94.901961%,94.901961%,94.901961%);fill-opacity:1;stroke-width:5.03546;stroke-linecap:butt;stroke-linejoin:miter;stroke:rgb(68.627451%,68.627451%,68.627451%);stroke-opacity:1;stroke-miterlimit:4;" d="M 97.045898 1029.779172 L 433.959961 1028.680539 L 435.058594 664.788937 L 347.045898 575.555539 L 97.045898 575.555539 Z M 97.045898 1029.779172 " transform="matrix(0.032,0,0,0.032,0,-17.67559)"/>
<path style="fill-rule:evenodd;fill:rgb(68.627451%,68.627451%,68.627451%);fill-opacity:1;stroke-width:5.03546;stroke-linecap:butt;stroke-linejoin:miter;stroke:rgb(68.627451%,68.627451%,68.627451%);stroke-opacity:1;stroke-miterlimit:4;" d="M 431.518555 662.957883 L 349.365234 662.347531 L 350.097656 578.607297 Z M 431.518555 662.957883 " transform="matrix(0.032,0,0,0.032,0,-17.67559)"/>
<path style=" stroke:none;fill-rule:nonzero;fill:rgb(0%,30.196078%,54.509804%);fill-opacity:1;" d="M 2.019531 2.234375 L 11.035156 2.234375 L 11.035156 4.933594 L 2.019531 4.933594 Z M 2.019531 2.234375 "/>
<path style=" stroke:none;fill-rule:nonzero;fill:rgb(0%,30.196078%,54.509804%);fill-opacity:1;" d="M 4.6875 7.714844 L 4.6875 15.195312 L 12.167969 15.195312 L 12.167969 7.714844 Z M 5.25 8.277344 L 5.808594 8.277344 L 5.808594 8.839844 L 5.25 8.839844 Z M 11.046875 8.277344 L 11.605469 8.277344 L 11.605469 8.839844 L 11.046875 8.839844 Z M 5.25 9.679688 L 5.808594 9.679688 L 5.808594 10.242188 L 5.25 10.242188 Z M 11.046875 9.679688 L 11.605469 9.679688 L 11.605469 10.242188 L 11.046875 10.242188 Z M 5.25 11.175781 L 5.808594 11.175781 L 5.808594 11.738281 L 5.25 11.738281 Z M 11.046875 11.175781 L 11.605469 11.175781 L 11.605469 11.738281 L 11.046875 11.738281 Z M 5.25 12.671875 L 5.808594 12.671875 L 5.808594 13.234375 L 5.25 13.234375 Z M 11.046875 12.671875 L 11.605469 12.671875 L 11.605469 13.234375 L 11.046875 13.234375 Z M 5.25 14.074219 L 5.808594 14.074219 L 5.808594 14.636719 L 5.25 14.636719 Z M 11.046875 14.074219 L 11.605469 14.074219 L 11.605469 14.636719 L 11.046875 14.636719 Z M 11.046875 14.074219 "/>
<path style=" stroke:none;fill-rule:nonzero;fill:rgb(40.784314%,91.764706%,100%);fill-opacity:1;" d="M 6.390625 8.292969 L 10.503906 8.292969 L 10.503906 11.191406 L 6.390625 11.191406 Z M 6.390625 8.292969 "/>
<path style=" stroke:none;fill-rule:nonzero;fill:rgb(40.784314%,91.764706%,100%);fill-opacity:1;" d="M 6.371094 11.738281 L 10.484375 11.738281 L 10.484375 14.636719 L 6.371094 14.636719 Z M 6.371094 11.738281 "/>
<path style=" stroke:none;fill-rule:evenodd;fill:rgb(94.117647%,22.352941%,8.627451%);fill-opacity:0.941176;" d="M 7.914062 14.644531 C 7.914062 14.644531 8.007812 13.664062 8.753906 13.015625 C 9.496094 12.371094 10.496094 12.585938 10.496094 12.585938 L 10.484375 14.652344 Z M 7.914062 14.644531 "/>
<path style=" stroke:none;fill-rule:evenodd;fill:rgb(94.117647%,22.352941%,8.627451%);fill-opacity:0.941176;" d="M 7.332031 8.28125 C 7.332031 8.28125 7.320312 8.570312 7.5625 8.863281 C 7.804688 9.15625 8.066406 9.207031 8.066406 9.207031 L 8.058594 9.855469 L 8.347656 9.855469 L 8.355469 9.207031 C 8.355469 9.207031 8.582031 9.183594 8.84375 8.914062 C 9.105469 8.640625 9.082031 8.273438 9.082031 8.273438 Z M 7.332031 8.28125 "/>
<path style=" stroke:none;fill-rule:nonzero;fill:rgb(83.137255%,33.333333%,0%);fill-opacity:0.941176;" d="M 8.050781 9.941406 L 8.34375 9.941406 L 8.34375 10.167969 L 8.050781 10.167969 Z M 8.050781 9.941406 "/>
<path style="fill:none;stroke-width:7.494031;stroke-linecap:butt;stroke-linejoin:miter;stroke:rgb(100%,100%,100%);stroke-opacity:1;stroke-miterlimit:4;" d="M 72.753906 688.104367 L 72.998047 642.694211 L 77.270508 642.572141 L 90.454102 676.995969 L 93.261719 676.995969 L 106.567383 642.572141 L 110.961914 642.45007 L 110.961914 688.348508 " transform="matrix(0.032,0,0,0.032,0,-17.67559)"/>
<path style="fill:none;stroke-width:7.54718;stroke-linecap:butt;stroke-linejoin:miter;stroke:rgb(100%,100%,100%);stroke-opacity:1;stroke-miterlimit:4;" d="M 123.046875 688.470578 L 123.046875 641.595578 C 123.046875 641.595578 148.681641 636.590695 148.55957 653.436398 C 148.4375 670.282102 123.535156 665.7655 123.535156 665.7655 " transform="matrix(0.032,0,0,0.032,0,-17.67559)"/>
<path style="fill:none;stroke-width:7.494031;stroke-linecap:butt;stroke-linejoin:miter;stroke:rgb(100%,100%,100%);stroke-opacity:1;stroke-miterlimit:4;" d="M 160.644531 637.445187 L 160.888672 682.855344 L 187.37793 683.099484 " transform="matrix(0.032,0,0,0.032,0,-17.67559)"/>
<path style="fill:none;stroke-width:9;stroke-linecap:butt;stroke-linejoin:bevel;stroke:rgb(100%,100%,100%);stroke-opacity:1;stroke-miterlimit:4;" d="M 915.725976 696.305257 L 937.852447 637.932135 L 960.561193 696.305257 " transform="matrix(0.0268344,0,0,0.0268344,-18.369809,-14.36851)"/>
<path style="fill:none;stroke-width:9;stroke-linecap:butt;stroke-linejoin:miter;stroke:rgb(100%,100%,100%);stroke-opacity:1;stroke-miterlimit:4;" d="M 924.605678 676.799026 L 950.371371 676.799026 " transform="matrix(0.0268344,0,0,0.0268344,-18.369809,-14.36851)"/>
<path style="fill:none;stroke-width:9;stroke-linecap:butt;stroke-linejoin:miter;stroke:rgb(100%,100%,100%);stroke-opacity:1;stroke-miterlimit:4;" d="M 516.18672 313.126077 L 536.564223 342.446225 L 556.355323 313.126077 " transform="matrix(0.0266455,0,0,0.0266455,-6.453272,-5.616838)"/>
<path style="fill:none;stroke-width:9;stroke-linecap:butt;stroke-linejoin:miter;stroke:rgb(100%,100%,100%);stroke-opacity:1;stroke-miterlimit:4;" d="M 536.564223 342.446225 L 536.417622 371.32657 " transform="matrix(0.0266455,0,0,0.0266455,-6.453272,-5.616838)"/>
<path style="fill:none;stroke-width:9;stroke-linecap:butt;stroke-linejoin:miter;stroke:rgb(100%,100%,100%);stroke-opacity:1;stroke-miterlimit:4;" d="M 380.266166 670.726732 L 346.254794 670.286929 L 346.547996 618.536868 L 380.99917 618.683469 " transform="matrix(0.0266455,0,0,0.0266455,-0.519101,-13.664818)"/>
<path style="fill:none;stroke-width:9;stroke-linecap:butt;stroke-linejoin:miter;stroke:rgb(100%,100%,100%);stroke-opacity:1;stroke-miterlimit:4;" d="M 348.893608 642.286188 L 378.067155 642.432789 " transform="matrix(0.0266455,0,0,0.0266455,-0.519101,-13.664818)"/>
<path style="fill:none;stroke-width:9.063828;stroke-linecap:butt;stroke-linejoin:miter;stroke:rgb(100%,100%,100%);stroke-opacity:1;stroke-miterlimit:4;" d="M 384.521453 735.904712 L 384.521453 679.463427 C 384.521453 679.463427 415.307608 673.452797 415.161007 693.8303 C 415.014407 714.061202 385.107856 708.490374 385.107856 708.490374 " transform="matrix(0.0266455,0,0,0.0266455,-0.359048,-15.303862)"/>
<path style="fill:none;stroke-width:9;stroke-linecap:butt;stroke-linejoin:miter;stroke:rgb(100%,100%,100%);stroke-opacity:1;stroke-miterlimit:4;" d="M 392.437893 710.396183 L 418.386224 734.878507 " transform="matrix(0.0266455,0,0,0.0266455,-0.359048,-15.303862)"/>
</g>
</svg>
