<?xml version="1.0" encoding="UTF-8"?>
<svg xmlns="http://www.w3.org/2000/svg" xmlns:xlink="http://www.w3.org/1999/xlink" width="16" height="16" viewBox="0 0 16 16" version="1.1">
<g id="surface1">
<path style=" stroke:none;fill-rule:evenodd;fill:rgb(39.215686%,39.215686%,39.215686%);fill-opacity:1;" d="M 2.015625 4.921875 L 3.71875 6.589844 L 3.667969 4.253906 L 2.015625 4.246094 Z M 2.015625 4.921875 "/>
<path style="fill-rule:evenodd;fill:rgb(94.901961%,94.901961%,94.901961%);fill-opacity:1;stroke-width:5.03546;stroke-linecap:butt;stroke-linejoin:miter;stroke:rgb(68.627451%,68.627451%,68.627451%);stroke-opacity:1;stroke-miterlimit:4;" d="M 97.045898 1029.779172 L 433.959961 1028.680539 L 435.058594 664.788937 L 347.045898 575.555539 L 97.045898 575.555539 Z M 97.045898 1029.779172 " transform="matrix(0.032,0,0,0.032,0,-17.67559)"/>
<path style="fill-rule:evenodd;fill:rgb(68.627451%,68.627451%,68.627451%);fill-opacity:1;stroke-width:5.03546;stroke-linecap:butt;stroke-linejoin:miter;stroke:rgb(68.627451%,68.627451%,68.627451%);stroke-opacity:1;stroke-miterlimit:4;" d="M 431.518555 662.957883 L 349.365234 662.347531 L 350.097656 578.607297 Z M 431.518555 662.957883 " transform="matrix(0.032,0,0,0.032,0,-17.67559)"/>
<path style=" stroke:none;fill-rule:nonzero;fill:rgb(60%,60%,60%);fill-opacity:1;" d="M 2.019531 2.234375 L 8.902344 2.234375 L 8.902344 4.933594 L 2.019531 4.933594 Z M 2.019531 2.234375 "/>
<path style=" stroke:none;fill-rule:nonzero;fill:rgb(80%,80%,80%);fill-opacity:0.588235;" d="M 8.195312 9.703125 C 7.128906 9.652344 6.144531 9.355469 5.71875 8.960938 C 5.609375 8.863281 5.523438 8.71875 5.523438 8.640625 C 5.527344 8.507812 5.6875 8.3125 5.917969 8.164062 C 6.894531 7.539062 8.921875 7.375 10.40625 7.796875 C 10.917969 7.941406 11.304688 8.140625 11.519531 8.367188 C 11.664062 8.523438 11.691406 8.621094 11.628906 8.757812 C 11.480469 9.082031 10.824219 9.414062 9.996094 9.582031 C 9.664062 9.648438 9.34375 9.683594 8.953125 9.707031 C 8.609375 9.722656 8.5625 9.722656 8.195312 9.703125 Z M 8.195312 9.703125 "/>
<path style=" stroke:none;fill-rule:nonzero;fill:rgb(80%,80%,80%);fill-opacity:0.588235;" d="M 8.300781 15.207031 C 7.484375 15.164062 6.726562 14.9375 6.402344 14.636719 C 6.320312 14.5625 6.253906 14.453125 6.253906 14.390625 C 6.253906 14.289062 6.378906 14.136719 6.554688 14.027344 C 7.304688 13.546875 8.859375 13.417969 9.996094 13.742188 C 10.390625 13.855469 10.6875 14.007812 10.851562 14.179688 C 10.964844 14.300781 10.984375 14.375 10.9375 14.480469 C 10.824219 14.730469 10.320312 14.984375 9.683594 15.113281 C 9.429688 15.164062 9.183594 15.191406 8.882812 15.207031 C 8.617188 15.21875 8.585938 15.21875 8.300781 15.207031 Z M 8.300781 15.207031 "/>
<path style=" stroke:none;fill-rule:nonzero;fill:rgb(58.823529%,58.823529%,58.823529%);fill-opacity:0.588235;" d="M 8.246094 15.210938 C 7.371094 15.148438 6.65625 14.910156 6.351562 14.574219 C 6.242188 14.453125 6.210938 14.386719 6.179688 14.199219 C 6.089844 13.683594 5.207031 8.945312 5.183594 8.855469 C 5.027344 8.25 5.671875 7.703125 6.890625 7.40625 C 7.171875 7.335938 7.597656 7.269531 7.933594 7.238281 C 8.234375 7.210938 8.9375 7.210938 9.242188 7.238281 C 10.71875 7.371094 11.824219 7.878906 11.988281 8.503906 C 12.023438 8.625 12.019531 8.714844 11.976562 8.882812 C 11.933594 9.0625 10.984375 14.210938 10.984375 14.269531 C 10.984375 14.292969 10.960938 14.363281 10.929688 14.421875 C 10.78125 14.71875 10.28125 14.984375 9.605469 15.121094 C 9.230469 15.199219 8.640625 15.234375 8.246094 15.210938 Z M 8.246094 15.210938 "/>
<path style="fill-rule:nonzero;fill:rgb(0%,40%,50.196078%);fill-opacity:1;stroke-width:1;stroke-linecap:butt;stroke-linejoin:miter;stroke:rgb(0%,40%,50.196078%);stroke-opacity:1;stroke-miterlimit:4;" d="M 68.805936 87.329707 L 64.797051 94.415177 L 68.899166 101.454032 L 68.852551 98.377447 L 72.302056 98.284217 C 74.399728 98.237602 75.611716 96.606079 75.611716 96.606079 L 80.739359 87.749241 C 81.858118 85.27865 80.692744 83.600512 80.692744 83.600512 L 77.103394 77.447341 L 69.971309 81.549455 L 74.539573 89.427379 C 74.726032 89.846914 74.446343 90.173218 73.933579 90.173218 L 68.852551 90.219833 Z M 68.805936 87.329707 " transform="matrix(0.0837983,0,0,0.0837983,3.265433,5.357705)"/>
<path style="fill-rule:nonzero;fill:rgb(0%,40%,50.196078%);fill-opacity:1;stroke-width:1;stroke-linecap:butt;stroke-linejoin:miter;stroke:rgb(0%,40%,50.196078%);stroke-opacity:1;stroke-miterlimit:4;" d="M 58.45742 86.257564 L 54.308691 79.218708 L 46.197692 79.265323 L 48.854743 80.803616 L 47.223221 83.786972 C 46.197692 85.651569 47.036761 87.516167 47.036761 87.516167 L 52.164404 96.373005 C 53.749312 98.563906 55.800369 98.377447 55.800369 98.377447 L 62.932454 98.330832 L 62.885839 90.126603 L 53.795927 90.173218 C 53.329777 90.126603 53.189932 89.707069 53.423007 89.287534 L 55.940214 84.812501 Z M 58.45742 86.257564 " transform="matrix(0.0837983,0,0,0.0837983,3.265433,5.357705)"/>
<path style="fill-rule:nonzero;fill:rgb(0%,40%,50.196078%);fill-opacity:1;stroke-width:1;stroke-linecap:butt;stroke-linejoin:miter;stroke:rgb(0%,40%,50.196078%);stroke-opacity:1;stroke-miterlimit:4;" d="M 64.563977 77.866875 L 72.768205 77.773645 L 76.77709 70.688175 L 74.120038 72.273083 L 72.348671 69.336342 C 71.229912 67.51836 69.22547 67.3319 69.22547 67.3319 L 58.970184 67.285285 C 56.266518 67.564975 55.427449 69.429572 55.427449 69.429572 L 51.884714 75.629358 L 59.016799 79.731473 L 63.538448 71.806934 C 63.818138 71.480629 64.237672 71.527244 64.470747 71.946778 L 67.081183 76.375197 Z M 64.563977 77.866875 " transform="matrix(0.0837983,0,0,0.0837983,3.265433,5.357705)"/>
<path style="fill:none;stroke-width:9;stroke-linecap:butt;stroke-linejoin:miter;stroke:rgb(100%,100%,100%);stroke-opacity:1;stroke-miterlimit:4;" d="M 134.033203 695.062375 L 199.34082 632.196164 " transform="matrix(0.032,0,0,0.032,0,-17.67559)"/>
<path style="fill-rule:nonzero;fill:rgb(60%,60%,60%);fill-opacity:1;stroke-width:9.11013;stroke-linecap:butt;stroke-linejoin:bevel;stroke:rgb(100%,100%,100%);stroke-opacity:1;stroke-miterlimit:4;" d="M 153.930664 642.572141 C 153.930664 648.309445 149.169922 653.070187 143.432617 653.070187 C 137.695312 653.070187 133.056641 648.309445 133.056641 642.572141 C 133.056641 636.834836 137.695312 632.196164 143.432617 632.196164 C 149.169922 632.196164 153.930664 636.834836 153.930664 642.572141 Z M 153.930664 642.572141 " transform="matrix(0.032,0,0,0.032,0,-17.67559)"/>
<path style="fill-rule:nonzero;fill:rgb(60%,60%,60%);fill-opacity:1;stroke-width:9.11013;stroke-linecap:butt;stroke-linejoin:bevel;stroke:rgb(100%,100%,100%);stroke-opacity:1;stroke-miterlimit:4;" d="M 199.829102 684.930539 C 199.829102 690.667844 195.19043 695.428586 189.453125 695.428586 C 183.59375 695.428586 178.955078 690.667844 178.955078 684.930539 C 178.955078 679.193234 183.59375 674.554562 189.453125 674.554562 C 195.19043 674.554562 199.829102 679.193234 199.829102 684.930539 Z M 199.829102 684.930539 " transform="matrix(0.032,0,0,0.032,0,-17.67559)"/>
</g>
</svg>
