<?xml version="1.0" encoding="UTF-8"?>
<svg xmlns="http://www.w3.org/2000/svg" xmlns:xlink="http://www.w3.org/1999/xlink" width="16" height="16" viewBox="0 0 16 16" version="1.1">
<g id="surface1">
<path style=" stroke:none;fill-rule:evenodd;fill:rgb(20%,20%,20%);fill-opacity:1;" d="M 2.015625 4.761719 L 3.71875 6.429688 L 3.667969 4.09375 L 2.015625 4.085938 Z M 2.015625 4.761719 "/>
<path style="fill-rule:evenodd;fill:rgb(94.901961%,94.901961%,94.901961%);fill-opacity:1;stroke-width:5.03546;stroke-linecap:butt;stroke-linejoin:miter;stroke:rgb(68.627451%,68.627451%,68.627451%);stroke-opacity:1;stroke-miterlimit:4;" d="M 97.045898 1024.774289 L 433.959961 1023.675656 L 435.058594 659.784055 L 347.045898 570.550656 L 97.045898 570.550656 Z M 97.045898 1024.774289 " transform="matrix(0.032,0,0,0.032,0,-17.67559)"/>
<path style="fill-rule:evenodd;fill:rgb(68.627451%,68.627451%,68.627451%);fill-opacity:1;stroke-width:5.03546;stroke-linecap:butt;stroke-linejoin:miter;stroke:rgb(68.627451%,68.627451%,68.627451%);stroke-opacity:1;stroke-miterlimit:4;" d="M 431.518555 657.953 L 349.365234 657.342648 L 350.097656 573.602414 Z M 431.518555 657.953 " transform="matrix(0.032,0,0,0.032,0,-17.67559)"/>
<path style=" stroke:none;fill-rule:nonzero;fill:rgb(22.352941%,25.098039%,31.372549%);fill-opacity:1;" d="M 2.019531 2.074219 L 9.21875 2.074219 L 9.21875 4.773438 L 2.019531 4.773438 Z M 2.019531 2.074219 "/>
<path style="fill-rule:evenodd;fill:rgb(22.352941%,25.098039%,31.372549%);fill-opacity:1;stroke-width:11.346586;stroke-linecap:butt;stroke-linejoin:round;stroke:rgb(100%,100%,100%);stroke-opacity:1;stroke-miterlimit:4;" d="M 144.042969 810.29675 L 384.399414 810.29675 C 390.74707 810.29675 395.996094 815.545773 395.996094 822.0155 L 395.996094 1005.60925 C 395.996094 1011.956906 390.74707 1017.20593 384.399414 1017.20593 L 144.042969 1017.20593 C 137.573242 1017.20593 132.324219 1011.956906 132.324219 1005.60925 L 132.324219 822.0155 C 132.324219 815.545773 137.573242 810.29675 144.042969 810.29675 Z M 144.042969 810.29675 " transform="matrix(0.032,0,0,0.032,0,-17.67559)"/>
<path style=" stroke:none;fill-rule:nonzero;fill:rgb(100%,100%,100%);fill-opacity:1;" d="M 5.242188 10.292969 L 5.25 10.148438 L 5.351562 10.113281 C 5.410156 10.09375 5.476562 10.074219 5.5 10.0625 C 5.523438 10.050781 5.582031 10.03125 5.625 10.015625 C 5.667969 10 5.722656 9.980469 5.75 9.96875 C 5.773438 9.957031 5.828125 9.941406 5.871094 9.929688 C 5.964844 9.90625 5.984375 9.867188 5.914062 9.847656 C 5.882812 9.839844 5.839844 9.824219 5.816406 9.8125 C 5.792969 9.800781 5.710938 9.773438 5.636719 9.753906 C 5.5625 9.730469 5.488281 9.707031 5.476562 9.699219 C 5.464844 9.691406 5.40625 9.667969 5.347656 9.652344 L 5.238281 9.621094 L 5.238281 9.316406 L 5.300781 9.339844 C 5.40625 9.382812 5.453125 9.398438 5.535156 9.425781 C 5.578125 9.441406 5.632812 9.460938 5.65625 9.472656 C 5.757812 9.515625 6.074219 9.621094 6.15625 9.648438 C 6.257812 9.679688 6.296875 9.695312 6.257812 9.6875 C 6.234375 9.683594 6.1875 9.65625 6.308594 9.699219 C 6.339844 9.710938 6.347656 9.71875 6.347656 9.875 L 6.347656 10.050781 L 6.207031 10.101562 C 6.128906 10.125 5.976562 10.179688 5.875 10.21875 C 5.765625 10.257812 5.582031 10.324219 5.460938 10.367188 L 5.238281 10.441406 Z M 5.242188 10.292969 "/>
<path style=" stroke:none;fill-rule:nonzero;fill:rgb(100%,100%,100%);fill-opacity:1;" d="M 6.617188 10.546875 L 6.617188 10.398438 L 7.820312 10.398438 L 7.820312 10.695312 L 6.617188 10.695312 Z M 6.617188 10.546875 "/>
<path style="fill:none;stroke-width:10;stroke-linecap:butt;stroke-linejoin:miter;stroke:rgb(100%,100%,100%);stroke-opacity:1;stroke-miterlimit:4;" d="M 182.250977 636.468625 C 182.250977 636.468625 172.973633 632.196164 164.18457 632.074094 C 155.395508 631.952023 149.902344 637.323117 149.536133 644.891477 C 149.291992 652.459836 153.564453 658.563352 168.701172 660.272336 C 183.837891 662.103391 182.861328 675.286984 181.030273 679.925656 C 179.199219 684.686398 170.288086 689.08093 161.376953 687.860227 C 152.34375 686.639523 144.897461 682.611203 144.897461 682.611203 " transform="matrix(0.032,0,0,0.032,0,-17.67559)"/>
<path style="fill:none;stroke-width:9;stroke-linecap:butt;stroke-linejoin:miter;stroke:rgb(100%,100%,100%);stroke-opacity:1;stroke-miterlimit:4;" d="M 311.145652 528.486625 L 311.511863 582.929984 " transform="matrix(0.032,0,0,0.032,-3.542598,-14.329541)"/>
<path style="fill:none;stroke-width:9;stroke-linecap:butt;stroke-linejoin:miter;stroke:rgb(100%,100%,100%);stroke-opacity:1;stroke-miterlimit:4;" d="M 346.301902 527.998344 L 346.546043 582.441703 " transform="matrix(0.032,0,0,0.032,-3.542598,-14.329541)"/>
<path style="fill:none;stroke-width:9;stroke-linecap:butt;stroke-linejoin:miter;stroke:rgb(100%,100%,100%);stroke-opacity:1;stroke-miterlimit:4;" d="M 310.901512 555.097953 L 347.522605 555.097953 " transform="matrix(0.032,0,0,0.032,-3.542598,-14.329541)"/>
</g>
</svg>
