<?xml version="1.0" encoding="UTF-8"?>
<svg xmlns="http://www.w3.org/2000/svg" xmlns:xlink="http://www.w3.org/1999/xlink" width="16" height="16" viewBox="0 0 16 16" version="1.1">
<g id="surface1">
<path style=" stroke:none;fill-rule:evenodd;fill:rgb(20%,20%,20%);fill-opacity:1;" d="M 2.015625 4.921875 L 3.71875 6.589844 L 3.667969 4.253906 L 2.015625 4.246094 Z M 2.015625 4.921875 "/>
<path style="fill-rule:evenodd;fill:rgb(94.901961%,94.901961%,94.901961%);fill-opacity:1;stroke-width:5.03546;stroke-linecap:butt;stroke-linejoin:miter;stroke:rgb(68.627451%,68.627451%,68.627451%);stroke-opacity:1;stroke-miterlimit:4;" d="M 97.045898 1029.779172 L 433.959961 1028.680539 L 435.058594 664.788937 L 347.045898 575.555539 L 97.045898 575.555539 Z M 97.045898 1029.779172 " transform="matrix(0.032,0,0,0.032,0,-17.67559)"/>
<path style="fill-rule:evenodd;fill:rgb(68.627451%,68.627451%,68.627451%);fill-opacity:1;stroke-width:5.03546;stroke-linecap:butt;stroke-linejoin:miter;stroke:rgb(68.627451%,68.627451%,68.627451%);stroke-opacity:1;stroke-miterlimit:4;" d="M 431.518555 662.957883 L 349.365234 662.347531 L 350.097656 578.607297 Z M 431.518555 662.957883 " transform="matrix(0.032,0,0,0.032,0,-17.67559)"/>
<path style=" stroke:none;fill-rule:nonzero;fill:rgb(22.352941%,25.098039%,31.372549%);fill-opacity:1;" d="M 2.019531 2.234375 L 10.992188 2.234375 L 10.992188 4.933594 L 2.019531 4.933594 Z M 2.019531 2.234375 "/>
<path style=" stroke:none;fill-rule:nonzero;fill:rgb(36.470588%,41.568627%,48.235294%);fill-opacity:1;" d="M 9.820312 8.710938 L 10.140625 8.820312 L 10.140625 8.964844 L 9.867188 9.042969 L 9.867188 9.484375 L 10.460938 9.320312 L 10.121094 9.496094 L 10.128906 9.828125 L 9.871094 9.910156 L 9.871094 10.328125 L 10.425781 10.195312 L 10.140625 10.359375 L 10.140625 10.679688 L 9.859375 10.773438 L 9.875 11.171875 L 10.476562 11.007812 L 10.140625 11.203125 L 10.132812 11.511719 L 9.867188 11.589844 L 9.875 11.984375 L 10.457031 11.835938 L 10.089844 12.066406 L 10.078125 12.195312 L 11.007812 12.195312 L 10.996094 11.761719 L 11.261719 11.703125 L 11.253906 11.273438 L 10.628906 11.414062 L 10.992188 11.257812 L 10.996094 10.953125 L 11.273438 10.871094 L 11.273438 10.433594 L 10.789062 10.570312 L 10.984375 10.445312 L 10.988281 10.121094 L 11.246094 10.046875 L 11.246094 9.605469 L 10.679688 9.746094 L 10.964844 9.59375 L 10.980469 9.234375 L 11.242188 9.195312 L 11.257812 8.761719 L 10.734375 8.878906 L 11.007812 8.667969 L 11.007812 8.535156 L 9.84375 8.566406 Z M 9.820312 8.710938 "/>
<path style=" stroke:none;fill-rule:nonzero;fill:rgb(40%,40%,40%);fill-opacity:1;" d="M 9.886719 13.148438 L 9.894531 14.054688 L 9.632812 14.054688 L 9.632812 14.382812 L 9.164062 14.390625 L 9.15625 14.101562 L 8.539062 14.109375 L 8.527344 15.121094 L 9.164062 15.121094 L 9.164062 14.859375 L 9.636719 14.855469 L 9.636719 15.179688 L 11.507812 15.175781 L 11.511719 14.859375 L 12.003906 14.859375 L 12.003906 15.136719 L 12.609375 15.136719 L 12.605469 14.089844 L 12.003906 14.09375 L 12.003906 14.402344 L 11.507812 14.402344 L 11.484375 14.042969 L 11.269531 14.046875 L 11.269531 13.136719 Z M 9.886719 13.148438 "/>
<path style=" stroke:none;fill-rule:nonzero;fill:rgb(22.352941%,25.098039%,31.372549%);fill-opacity:1;" d="M 5.699219 12.828125 L 5.683594 13.078125 L 6.246094 13.605469 L 9.195312 13.636719 L 9.582031 13.207031 L 11.597656 13.1875 L 11.597656 12.003906 L 9.621094 12.003906 L 8.839844 12.835938 Z M 5.699219 12.828125 "/>
<path style=" stroke:none;fill-rule:nonzero;fill:rgb(22.352941%,25.098039%,31.372549%);fill-opacity:1;" d="M 5.699219 7.992188 L 5.683594 7.746094 L 6.25 7.21875 L 9.199219 7.1875 L 9.582031 7.617188 L 11.597656 7.636719 L 11.597656 8.820312 L 9.625 8.820312 L 8.839844 7.988281 Z M 5.699219 7.992188 "/>
<path style=" stroke:none;fill-rule:nonzero;fill:rgb(100%,72.156863%,0%);fill-opacity:1;" d="M 4.609375 7.988281 L 8.839844 7.988281 L 8.839844 12.835938 L 4.609375 12.835938 Z M 4.609375 7.988281 "/>
<path style=" stroke:none;fill-rule:nonzero;fill:rgb(98.039216%,92.54902%,42.745098%);fill-opacity:1;" d="M 4.925781 8.417969 L 8.472656 8.417969 L 8.472656 10.289062 L 4.925781 10.289062 Z M 4.925781 8.417969 "/>
<path style=" stroke:none;fill-rule:nonzero;fill:rgb(98.039216%,92.54902%,42.745098%);fill-opacity:1;" d="M 4.953125 10.59375 L 8.5 10.59375 L 8.5 12.460938 L 4.953125 12.460938 Z M 4.953125 10.59375 "/>
<path style=" stroke:none;fill-rule:nonzero;fill:rgb(15.686275%,13.333333%,4.313725%);fill-opacity:1;" d="M 6.035156 9.152344 L 7.460938 9.152344 L 7.460938 9.609375 L 6.035156 9.609375 Z M 6.035156 9.152344 "/>
<path style=" stroke:none;fill-rule:nonzero;fill:rgb(15.686275%,13.333333%,4.313725%);fill-opacity:1;" d="M 6.03125 11.269531 L 7.453125 11.269531 L 7.453125 11.726562 L 6.03125 11.726562 Z M 6.03125 11.269531 "/>
<path style="fill:none;stroke-width:9;stroke-linecap:butt;stroke-linejoin:miter;stroke:rgb(100%,100%,100%);stroke-opacity:1;stroke-miterlimit:4;" d="M 122.829716 699.539256 L 122.829716 642.403313 " transform="matrix(0.023245,0,0,0.023245,-0.0661142,-12.065478)"/>
<path style="fill:none;stroke-width:8.670217;stroke-linecap:butt;stroke-linejoin:miter;stroke:rgb(100%,100%,100%);stroke-opacity:1;stroke-miterlimit:4;" d="M 96.278307 642.739406 L 149.381125 642.739406 " transform="matrix(0.023245,0,0,0.023245,-0.0661142,-12.065478)"/>
<path style="fill:none;stroke-width:9;stroke-linecap:butt;stroke-linejoin:bevel;stroke:rgb(100%,100%,100%);stroke-opacity:1;stroke-miterlimit:4;" d="M 915.609219 696.375547 L 937.802044 637.973377 L 960.495459 696.375547 " transform="matrix(0.0234099,0,0,0.0234099,-18.156954,-12.118471)"/>
<path style="fill:none;stroke-width:9;stroke-linecap:butt;stroke-linejoin:miter;stroke:rgb(100%,100%,100%);stroke-opacity:1;stroke-miterlimit:4;" d="M 924.61984 676.852536 L 950.316795 676.852536 " transform="matrix(0.0234099,0,0,0.0234099,-18.156954,-12.118471)"/>
<path style="fill:none;stroke-width:9.063828;stroke-linecap:butt;stroke-linejoin:miter;stroke:rgb(100%,100%,100%);stroke-opacity:1;stroke-miterlimit:4;" d="M 384.47365 735.841084 L 384.47365 679.545375 C 384.47365 679.545375 415.226231 673.495687 415.226231 693.829361 C 415.058185 713.994988 385.145838 708.449441 385.145838 708.449441 " transform="matrix(0.023245,0,0,0.023245,-4.304278,-12.928845)"/>
<path style="fill:none;stroke-width:9;stroke-linecap:butt;stroke-linejoin:miter;stroke:rgb(100%,100%,100%);stroke-opacity:1;stroke-miterlimit:4;" d="M 392.539901 710.466003 L 418.419122 734.832803 " transform="matrix(0.023245,0,0,0.023245,-4.304278,-12.928845)"/>
<path style="fill:none;stroke-width:6.537672;stroke-linecap:butt;stroke-linejoin:miter;stroke:rgb(100%,100%,100%);stroke-opacity:1;stroke-miterlimit:4;" d="M 188.476562 641.473508 L 188.720703 681.024289 L 211.669922 681.26843 " transform="matrix(0.032,0,0,0.032,0,-17.67559)"/>
<path style="fill:none;stroke-width:6.537672;stroke-linecap:butt;stroke-linejoin:miter;stroke:rgb(100%,100%,100%);stroke-opacity:1;stroke-miterlimit:4;" d="M 217.651367 643.792844 L 245.361328 644.281125 L 220.214844 682.122922 L 251.342773 681.878781 " transform="matrix(0.032,0,0,0.032,0,-17.67559)"/>
<path style="fill:none;stroke-width:6.537672;stroke-linecap:butt;stroke-linejoin:miter;stroke:rgb(100%,100%,100%);stroke-opacity:1;stroke-miterlimit:4;" d="M 258.056641 683.709836 L 258.300781 644.036984 L 261.962891 643.914914 L 273.4375 673.944211 L 275.878906 673.944211 L 287.475586 643.914914 L 291.259766 643.792844 L 291.259766 683.709836 " transform="matrix(0.032,0,0,0.032,0,-17.67559)"/>
<path style="fill:none;stroke-width:9;stroke-linecap:butt;stroke-linejoin:bevel;stroke:rgb(100%,100%,100%);stroke-opacity:1;stroke-miterlimit:4;" d="M 915.717646 696.219373 L 937.91047 637.984067 L 960.603885 696.219373 " transform="matrix(0.0234099,0,0,0.0234099,-11.749336,-12.091377)"/>
<path style="fill:none;stroke-width:9;stroke-linecap:butt;stroke-linejoin:miter;stroke:rgb(100%,100%,100%);stroke-opacity:1;stroke-miterlimit:4;" d="M 924.561403 676.696362 L 950.425221 676.696362 " transform="matrix(0.0234099,0,0,0.0234099,-11.749336,-12.091377)"/>
<path style=" stroke:none;fill-rule:nonzero;fill:rgb(100%,100%,100%);fill-opacity:1;" d="M 5.582031 4.019531 L 5.789062 4.019531 L 5.789062 4.222656 L 5.582031 4.222656 Z M 5.582031 4.019531 "/>
</g>
</svg>
