<?xml version="1.0" encoding="UTF-8"?>
<svg xmlns="http://www.w3.org/2000/svg" xmlns:xlink="http://www.w3.org/1999/xlink" width="16" height="16" viewBox="0 0 16 16" version="1.1">
<g id="surface1">
<path style=" stroke:none;fill-rule:evenodd;fill:rgb(50.196078%,50.196078%,50.196078%);fill-opacity:1;" d="M 2.015625 4.921875 L 3.71875 6.589844 L 3.667969 4.253906 L 2.015625 4.246094 Z M 2.015625 4.921875 "/>
<path style="fill-rule:evenodd;fill:rgb(94.901961%,94.901961%,94.901961%);fill-opacity:1;stroke-width:5.03546;stroke-linecap:butt;stroke-linejoin:miter;stroke:rgb(68.627451%,68.627451%,68.627451%);stroke-opacity:1;stroke-miterlimit:4;" d="M 97.045898 1029.779172 L 433.959961 1028.680539 L 435.058594 664.788937 L 347.045898 575.555539 L 97.045898 575.555539 Z M 97.045898 1029.779172 " transform="matrix(0.032,0,0,0.032,0,-17.67559)"/>
<path style="fill-rule:evenodd;fill:rgb(68.627451%,68.627451%,68.627451%);fill-opacity:1;stroke-width:5.03546;stroke-linecap:butt;stroke-linejoin:miter;stroke:rgb(68.627451%,68.627451%,68.627451%);stroke-opacity:1;stroke-miterlimit:4;" d="M 431.518555 662.957883 L 349.365234 662.347531 L 350.097656 578.607297 Z M 431.518555 662.957883 " transform="matrix(0.032,0,0,0.032,0,-17.67559)"/>
<path style=" stroke:none;fill-rule:nonzero;fill:rgb(60%,60%,60%);fill-opacity:1;" d="M 2.019531 2.234375 L 9.21875 2.234375 L 9.21875 4.933594 L 2.019531 4.933594 Z M 2.019531 2.234375 "/>
<path style=" stroke:none;fill-rule:nonzero;fill:rgb(80%,80%,80%);fill-opacity:1;" d="M 5.289062 7.101562 L 11.359375 7.101562 C 11.894531 7.101562 12.324219 7.632812 12.324219 8.285156 L 12.324219 13.921875 C 12.324219 14.574219 11.894531 15.101562 11.359375 15.101562 L 5.289062 15.101562 C 4.757812 15.101562 4.324219 14.574219 4.324219 13.921875 L 4.324219 8.285156 C 4.324219 7.632812 4.757812 7.101562 5.289062 7.101562 Z M 5.289062 7.101562 "/>
<path style=" stroke:none;fill-rule:nonzero;fill:rgb(70.196078%,70.196078%,70.196078%);fill-opacity:1;" d="M 5.941406 8.015625 L 10.664062 8.015625 C 11.078125 8.015625 11.414062 8.425781 11.414062 8.933594 L 11.414062 13.320312 C 11.414062 13.824219 11.078125 14.238281 10.664062 14.238281 L 5.941406 14.238281 C 5.527344 14.238281 5.191406 13.824219 5.191406 13.320312 L 5.191406 8.933594 C 5.191406 8.425781 5.527344 8.015625 5.941406 8.015625 Z M 5.941406 8.015625 "/>
<path style=" stroke:none;fill-rule:nonzero;fill:rgb(22.352941%,25.098039%,31.372549%);fill-opacity:1;" d="M 8.710938 12.566406 L 7.484375 9.582031 L 7.148438 9.582031 L 5.914062 12.566406 L 6.335938 12.566406 L 6.71875 11.585938 L 7.894531 11.585938 L 8.285156 12.566406 Z M 7.746094 11.253906 L 6.859375 11.253906 L 7.316406 10.03125 Z M 7.746094 11.253906 "/>
<path style=" stroke:none;fill-rule:nonzero;fill:rgb(22.352941%,25.098039%,31.372549%);fill-opacity:1;" d="M 9.605469 12.625 C 9.867188 12.625 10.105469 12.53125 10.316406 12.347656 L 10.378906 12.625 L 10.738281 12.546875 C 10.679688 12.339844 10.652344 12.160156 10.652344 12.003906 L 10.652344 11.304688 C 10.652344 10.707031 10.363281 10.40625 9.777344 10.40625 C 9.527344 10.40625 9.261719 10.449219 8.980469 10.53125 L 9.023438 10.878906 C 9.289062 10.777344 9.535156 10.726562 9.757812 10.726562 C 10.058594 10.726562 10.226562 10.882812 10.265625 11.191406 C 9.332031 11.203125 8.863281 11.46875 8.863281 11.992188 C 8.863281 12.386719 9.195312 12.625 9.605469 12.625 Z M 10.265625 11.902344 C 10.265625 12.128906 9.875 12.285156 9.621094 12.285156 C 9.378906 12.285156 9.257812 12.171875 9.257812 11.953125 C 9.257812 11.683594 9.597656 11.539062 10.265625 11.527344 Z M 10.265625 11.902344 "/>
<path style="fill:none;stroke-width:9;stroke-linecap:butt;stroke-linejoin:miter;stroke:rgb(100%,100%,100%);stroke-opacity:1;stroke-miterlimit:4;" d="M 233.429445 692.509785 L 233.795656 640.751973 L 268.219484 640.996113 " transform="matrix(0.032,0,0,0.032,-0.0517735,-17.855626)"/>
<path style="fill:none;stroke-width:9;stroke-linecap:butt;stroke-linejoin:miter;stroke:rgb(100%,100%,100%);stroke-opacity:1;stroke-miterlimit:4;" d="M 236.114992 664.555684 L 265.289797 664.677754 " transform="matrix(0.032,0,0,0.032,-0.0517735,-17.855626)"/>
<path style="fill:none;stroke-width:9;stroke-linecap:butt;stroke-linejoin:miter;stroke:rgb(100%,100%,100%);stroke-opacity:1;stroke-miterlimit:4;" d="M 135.131836 688.104367 C 123.046875 687.982297 111.694336 675.897336 111.694336 660.638547 C 111.572266 645.379758 123.657227 633.050656 135.864258 633.416867 C 147.949219 633.661008 158.569336 645.257687 158.691406 661.615109 C 158.935547 677.850461 147.094727 688.226437 135.131836 688.104367 Z M 135.131836 688.104367 " transform="matrix(0.032,0,0,0.032,0,-17.67559)"/>
<path style="fill:none;stroke-width:9;stroke-linecap:butt;stroke-linejoin:miter;stroke:rgb(100%,100%,100%);stroke-opacity:1;stroke-miterlimit:4;" d="M 122.757227 699.612824 L 122.757227 642.361848 " transform="matrix(0.032,0,0,0.032,2.149894,-17.903235)"/>
<path style="fill:none;stroke-width:8.670217;stroke-linecap:butt;stroke-linejoin:miter;stroke:rgb(100%,100%,100%);stroke-opacity:1;stroke-miterlimit:4;" d="M 96.267969 642.728059 L 149.368555 642.728059 " transform="matrix(0.032,0,0,0.032,2.149894,-17.903235)"/>
</g>
</svg>
