<?xml version="1.0" encoding="UTF-8"?>
<svg xmlns="http://www.w3.org/2000/svg" xmlns:xlink="http://www.w3.org/1999/xlink" width="16" height="16" viewBox="0 0 16 16" version="1.1">
<g id="surface1">
<path style=" stroke:none;fill-rule:evenodd;fill:rgb(0%,46.666667%,75.686275%);fill-opacity:1;" d="M 2.023438 4.941406 L 3.726562 6.609375 L 3.671875 4.273438 L 2.019531 4.265625 Z M 2.023438 4.941406 "/>
<path style="fill-rule:evenodd;fill:rgb(94.901961%,94.901961%,94.901961%);fill-opacity:1;stroke-width:5.03546;stroke-linecap:butt;stroke-linejoin:miter;stroke:rgb(68.627451%,68.627451%,68.627451%);stroke-opacity:1;stroke-miterlimit:4;" d="M 96.923828 1029.779172 L 433.837891 1028.680539 L 434.936523 664.788937 L 346.923828 575.555539 L 96.923828 575.555539 Z M 96.923828 1029.779172 " transform="matrix(0.032,0,0,0.032,0,-17.67559)"/>
<path style="fill-rule:evenodd;fill:rgb(68.627451%,68.627451%,68.627451%);fill-opacity:1;stroke-width:5.03546;stroke-linecap:butt;stroke-linejoin:miter;stroke:rgb(68.627451%,68.627451%,68.627451%);stroke-opacity:1;stroke-miterlimit:4;" d="M 431.396484 662.957883 L 349.243164 662.347531 L 349.975586 578.607297 Z M 431.396484 662.957883 " transform="matrix(0.032,0,0,0.032,0,-17.67559)"/>
<path style=" stroke:none;fill-rule:nonzero;fill:rgb(0%,73.333333%,94.901961%);fill-opacity:1;" d="M 2.015625 2.234375 L 9.214844 2.234375 L 9.214844 4.933594 L 2.015625 4.933594 Z M 2.015625 2.234375 "/>
<path style="fill:none;stroke-width:9.063828;stroke-linecap:butt;stroke-linejoin:miter;stroke:rgb(100%,100%,100%);stroke-opacity:1;stroke-miterlimit:4;" d="M 139.160156 693.841672 L 139.160156 637.445187 C 139.160156 637.445187 170.043945 631.463742 169.921875 651.727414 C 169.799805 671.991086 139.892578 666.497922 139.892578 666.497922 " transform="matrix(0.032,0,0,0.032,0,-17.67559)"/>
<path style=" stroke:none;fill-rule:nonzero;fill:rgb(0%,73.333333%,94.901961%);fill-opacity:1;" d="M 8.609375 15.191406 C 11.039062 15.191406 13.007812 14.191406 13.007812 12.960938 C 13.007812 11.730469 11.039062 10.730469 8.609375 10.730469 C 6.179688 10.730469 4.210938 11.730469 4.210938 12.960938 C 4.210938 14.191406 6.179688 15.191406 8.609375 15.191406 "/>
<path style=" stroke:none;fill-rule:nonzero;fill:rgb(100%,100%,100%);fill-opacity:1;" d="M 6.519531 13.238281 C 6.71875 13.238281 6.867188 13.199219 6.960938 13.128906 C 7.054688 13.054688 7.121094 12.933594 7.152344 12.757812 C 7.1875 12.59375 7.171875 12.480469 7.117188 12.421875 C 7.0625 12.359375 6.941406 12.328125 6.753906 12.328125 L 6.4375 12.328125 L 6.257812 13.238281 Z M 5.476562 14.359375 C 5.460938 14.359375 5.445312 14.351562 5.4375 14.339844 C 5.425781 14.332031 5.421875 14.316406 5.425781 14.300781 L 5.894531 11.886719 C 5.898438 11.863281 5.921875 11.847656 5.945312 11.847656 L 6.953125 11.847656 C 7.273438 11.847656 7.507812 11.933594 7.65625 12.101562 C 7.808594 12.273438 7.851562 12.511719 7.796875 12.8125 C 7.769531 12.9375 7.730469 13.050781 7.671875 13.152344 C 7.617188 13.253906 7.539062 13.347656 7.449219 13.433594 C 7.339844 13.535156 7.214844 13.609375 7.082031 13.652344 C 6.949219 13.695312 6.777344 13.71875 6.574219 13.71875 L 6.164062 13.71875 L 6.046875 14.320312 C 6.042969 14.34375 6.023438 14.359375 6 14.359375 Z M 5.476562 14.359375 "/>
<path style=" stroke:none;fill-rule:nonzero;fill:rgb(100%,100%,100%);fill-opacity:1;" d="M 9 13.71875 C 8.984375 13.71875 8.972656 13.710938 8.960938 13.699219 C 8.953125 13.6875 8.949219 13.671875 8.953125 13.660156 L 9.160156 12.589844 C 9.179688 12.488281 9.175781 12.417969 9.144531 12.386719 C 9.128906 12.367188 9.074219 12.335938 8.921875 12.335938 L 8.542969 12.335938 L 8.28125 13.679688 C 8.277344 13.699219 8.257812 13.71875 8.234375 13.71875 L 7.710938 13.71875 C 7.699219 13.71875 7.683594 13.710938 7.675781 13.699219 C 7.664062 13.6875 7.660156 13.671875 7.664062 13.660156 L 8.132812 11.246094 C 8.136719 11.222656 8.15625 11.203125 8.183594 11.203125 L 8.703125 11.203125 C 8.71875 11.203125 8.730469 11.210938 8.742188 11.222656 C 8.75 11.234375 8.753906 11.25 8.753906 11.265625 L 8.640625 11.847656 L 9.042969 11.847656 C 9.351562 11.847656 9.558594 11.902344 9.683594 12.011719 C 9.804688 12.125 9.84375 12.308594 9.796875 12.554688 L 9.578125 13.679688 C 9.574219 13.699219 9.554688 13.71875 9.53125 13.71875 Z M 9 13.71875 "/>
<path style=" stroke:none;fill-rule:nonzero;fill:rgb(100%,100%,100%);fill-opacity:1;" d="M 10.621094 13.238281 C 10.824219 13.238281 10.972656 13.199219 11.066406 13.128906 C 11.160156 13.054688 11.222656 12.933594 11.257812 12.757812 C 11.289062 12.59375 11.277344 12.480469 11.222656 12.421875 C 11.164062 12.359375 11.042969 12.328125 10.859375 12.328125 L 10.539062 12.328125 L 10.363281 13.238281 Z M 9.578125 14.359375 C 9.5625 14.359375 9.550781 14.351562 9.539062 14.339844 C 9.53125 14.332031 9.527344 14.316406 9.53125 14.300781 L 10 11.886719 C 10.003906 11.863281 10.023438 11.847656 10.046875 11.847656 L 11.058594 11.847656 C 11.375 11.847656 11.613281 11.933594 11.761719 12.101562 C 11.910156 12.273438 11.957031 12.511719 11.898438 12.8125 C 11.875 12.9375 11.835938 13.050781 11.777344 13.152344 C 11.71875 13.253906 11.644531 13.347656 11.554688 13.433594 C 11.445312 13.535156 11.320312 13.609375 11.183594 13.652344 C 11.054688 13.695312 10.882812 13.71875 10.679688 13.71875 L 10.269531 13.71875 L 10.152344 14.320312 C 10.148438 14.34375 10.128906 14.359375 10.105469 14.359375 Z M 9.578125 14.359375 "/>
<path style="fill:none;stroke-width:9;stroke-linecap:butt;stroke-linejoin:miter;stroke:rgb(100%,100%,100%);stroke-opacity:1;stroke-miterlimit:4;" d="M 311.199902 528.451504 L 311.444043 582.894863 " transform="matrix(0.032,0,0,0.032,-4.036522,-14.222948)"/>
<path style="fill:none;stroke-width:9;stroke-linecap:butt;stroke-linejoin:miter;stroke:rgb(100%,100%,100%);stroke-opacity:1;stroke-miterlimit:4;" d="M 346.234082 527.963223 L 346.600293 582.406582 " transform="matrix(0.032,0,0,0.032,-4.036522,-14.222948)"/>
<path style="fill:none;stroke-width:9;stroke-linecap:butt;stroke-linejoin:miter;stroke:rgb(100%,100%,100%);stroke-opacity:1;stroke-miterlimit:4;" d="M 310.955762 555.062832 L 347.454785 555.062832 " transform="matrix(0.032,0,0,0.032,-4.036522,-14.222948)"/>
<path style="fill:none;stroke-width:9.063828;stroke-linecap:butt;stroke-linejoin:miter;stroke:rgb(100%,100%,100%);stroke-opacity:1;stroke-miterlimit:4;" d="M 239.379883 693.475461 L 239.379883 636.956906 C 239.379883 636.956906 270.141602 630.975461 270.019531 651.361203 C 269.897461 671.624875 239.990234 666.009641 239.990234 666.009641 " transform="matrix(0.032,0,0,0.032,0,-17.67559)"/>
</g>
</svg>
