<?xml version="1.0" encoding="UTF-8"?>
<svg xmlns="http://www.w3.org/2000/svg" xmlns:xlink="http://www.w3.org/1999/xlink" width="16" height="16" viewBox="0 0 16 16" version="1.1">
<g id="surface1">
<path style=" stroke:none;fill-rule:evenodd;fill:rgb(15.686275%,9.019608%,4.313725%);fill-opacity:1;" d="M 2.015625 4.921875 L 3.71875 6.589844 L 3.667969 4.253906 L 2.015625 4.246094 Z M 2.015625 4.921875 "/>
<path style="fill-rule:evenodd;fill:rgb(94.901961%,94.901961%,94.901961%);fill-opacity:1;stroke-width:5.03546;stroke-linecap:butt;stroke-linejoin:miter;stroke:rgb(68.627451%,68.627451%,68.627451%);stroke-opacity:1;stroke-miterlimit:4;" d="M 97.045898 1029.779172 L 433.959961 1028.680539 L 435.058594 664.788937 L 347.045898 575.555539 L 97.045898 575.555539 Z M 97.045898 1029.779172 " transform="matrix(0.032,0,0,0.032,0,-17.67559)"/>
<path style="fill-rule:evenodd;fill:rgb(68.627451%,68.627451%,68.627451%);fill-opacity:1;stroke-width:5.03546;stroke-linecap:butt;stroke-linejoin:miter;stroke:rgb(68.627451%,68.627451%,68.627451%);stroke-opacity:1;stroke-miterlimit:4;" d="M 431.518555 662.957883 L 349.365234 662.347531 L 350.097656 578.607297 Z M 431.518555 662.957883 " transform="matrix(0.032,0,0,0.032,0,-17.67559)"/>
<path style=" stroke:none;fill-rule:nonzero;fill:rgb(31.372549%,17.647059%,8.627451%);fill-opacity:1;" d="M 2.019531 2.234375 L 9.21875 2.234375 L 9.21875 4.933594 L 2.019531 4.933594 Z M 2.019531 2.234375 "/>
<path style=" stroke:none;fill-rule:nonzero;fill:rgb(80%,80%,80%);fill-opacity:1;" d="M 5.648438 9.535156 C 5.648438 9.535156 5.753906 9.007812 8.710938 9.003906 C 11.664062 9 11.78125 9.582031 11.78125 9.582031 L 11.519531 10.460938 L 5.984375 10.484375 Z M 5.648438 9.535156 "/>
<path style=" stroke:none;fill-rule:nonzero;fill:rgb(80%,80%,80%);fill-opacity:1;" d="M 12.734375 13.539062 C 12.847656 14.335938 11.152344 15.015625 8.945312 15.058594 C 6.742188 15.097656 4.859375 14.484375 4.746094 13.6875 C 4.628906 12.890625 6.324219 12.210938 8.53125 12.167969 C 10.734375 12.125 12.617188 12.738281 12.734375 13.535156 "/>
<path style=" stroke:none;fill-rule:nonzero;fill:rgb(50.196078%,50.196078%,50.196078%);fill-opacity:1;" d="M 11.007812 13.515625 C 11.070312 13.96875 10.113281 14.351562 8.867188 14.375 C 7.625 14.398438 6.5625 14.050781 6.496094 13.601562 C 6.433594 13.152344 7.390625 12.765625 8.632812 12.742188 C 9.878906 12.71875 10.941406 13.066406 11.007812 13.515625 "/>
<path style=" stroke:none;fill-rule:nonzero;fill:rgb(31.372549%,17.647059%,8.627451%);fill-opacity:1;" d="M 11.570312 9.980469 C 11.648438 10.332031 10.464844 10.628906 8.925781 10.648438 C 7.386719 10.664062 6.070312 10.398438 5.992188 10.046875 C 5.910156 9.699219 7.09375 9.398438 8.632812 9.382812 C 10.175781 9.363281 11.488281 9.632812 11.570312 9.980469 "/>
<path style="fill:none;stroke-width:12.0954;stroke-linecap:butt;stroke-linejoin:miter;stroke:rgb(50.196078%,50.196078%,50.196078%);stroke-opacity:1;stroke-miterlimit:4;" d="M 349.121094 925.042844 C 349.121094 925.042844 367.1875 927.728391 374.633789 923.211789 C 382.080078 918.573117 387.084961 908.441281 386.962891 900.628781 C 386.71875 892.694211 382.8125 886.468625 376.953125 883.294797 C 371.21582 880.120969 358.032227 882.806516 358.032227 882.806516 " transform="matrix(0.032,0,0,0.032,0,-17.67559)"/>
<path style=" stroke:none;fill-rule:nonzero;fill:rgb(70.196078%,70.196078%,70.196078%);fill-opacity:1;" d="M 5.644531 9.523438 C 5.859375 11.976562 6.429688 13.84375 8.65625 13.945312 C 10.886719 14.046875 11.589844 11.652344 11.789062 9.582031 C 11.789062 9.582031 11.285156 10.105469 8.539062 10.070312 C 5.792969 10.039062 5.644531 9.523438 5.644531 9.523438 Z M 5.644531 9.523438 "/>
</g>
</svg>
