<?xml version="1.0" encoding="UTF-8"?>
<svg xmlns="http://www.w3.org/2000/svg" xmlns:xlink="http://www.w3.org/1999/xlink" width="16" height="16" viewBox="0 0 16 16" version="1.1">
<g id="surface1">
<path style=" stroke:none;fill-rule:evenodd;fill:rgb(84.705882%,14.901961%,0%);fill-opacity:1;" d="M 2.050781 4.761719 L 3.753906 6.429688 L 3.699219 4.09375 L 2.046875 4.085938 Z M 2.050781 4.761719 "/>
<path style="fill-rule:evenodd;fill:rgb(94.901961%,94.901961%,94.901961%);fill-opacity:1;stroke-width:5.03546;stroke-linecap:butt;stroke-linejoin:miter;stroke:rgb(68.627451%,68.627451%,68.627451%);stroke-opacity:1;stroke-miterlimit:4;" d="M 98.022461 1024.774289 L 434.936523 1023.675656 L 436.035156 659.784055 L 348.022461 570.550656 L 98.022461 570.550656 Z M 98.022461 1024.774289 " transform="matrix(0.032,0,0,0.032,0,-17.67559)"/>
<path style="fill-rule:evenodd;fill:rgb(68.627451%,68.627451%,68.627451%);fill-opacity:1;stroke-width:5.03546;stroke-linecap:butt;stroke-linejoin:miter;stroke:rgb(68.627451%,68.627451%,68.627451%);stroke-opacity:1;stroke-miterlimit:4;" d="M 432.495117 657.953 L 350.341797 657.342648 L 351.074219 573.602414 Z M 432.495117 657.953 " transform="matrix(0.032,0,0,0.032,0,-17.67559)"/>
<path style=" stroke:none;fill-rule:nonzero;fill:rgb(94.117647%,22.352941%,8.627451%);fill-opacity:1;" d="M 2.050781 2.074219 L 9.25 2.074219 L 9.25 4.773438 L 2.050781 4.773438 Z M 2.050781 2.074219 "/>
<path style=" stroke:none;fill-rule:nonzero;fill:rgb(94.117647%,22.352941%,8.627451%);fill-opacity:1;" d="M 8.511719 7.027344 C 10.71875 7.027344 12.511719 8.816406 12.511719 11.027344 C 12.511719 13.234375 10.71875 15.027344 8.511719 15.027344 C 6.300781 15.027344 4.511719 13.234375 4.511719 11.027344 C 4.511719 8.816406 6.300781 7.027344 8.511719 7.027344 Z M 8.511719 7.027344 "/>
<path style=" stroke:none;fill-rule:nonzero;fill:rgb(100%,100%,100%);fill-opacity:1;" d="M 9.949219 9.226562 L 9.949219 9.953125 C 9.226562 9.964844 9.050781 10.671875 9.050781 10.671875 L 9.59375 10.671875 L 9.59375 11.394531 L 8.75 11.394531 C 8.242188 12.964844 7.070312 12.824219 7.070312 12.824219 L 7.070312 12.101562 C 7.070312 12.101562 7.8125 12.238281 8.191406 10.855469 C 8.664062 9.125 9.949219 9.226562 9.949219 9.226562 Z M 9.949219 9.226562 "/>
<path style="fill:none;stroke-width:9;stroke-linecap:butt;stroke-linejoin:miter;stroke:rgb(100%,100%,100%);stroke-opacity:1;stroke-miterlimit:4;" d="M 233.388613 692.568488 L 233.754824 640.810676 L 268.300723 640.932746 " transform="matrix(0.032,0,0,0.032,0.101877,-17.916098)"/>
<path style="fill:none;stroke-width:9;stroke-linecap:butt;stroke-linejoin:miter;stroke:rgb(100%,100%,100%);stroke-opacity:1;stroke-miterlimit:4;" d="M 236.07416 664.614387 L 265.248965 664.736457 " transform="matrix(0.032,0,0,0.032,0.101877,-17.916098)"/>
<path style="fill:none;stroke-width:10;stroke-linecap:butt;stroke-linejoin:miter;stroke:rgb(100%,100%,100%);stroke-opacity:1;stroke-miterlimit:4;" d="M 147.949219 634.759641 C 147.949219 634.759641 138.671875 630.48718 129.882812 630.365109 C 121.09375 630.243039 115.600586 635.614133 115.234375 643.182492 C 114.990234 650.872922 119.262695 656.854367 134.399414 658.685422 C 149.536133 660.394406 148.55957 673.70007 146.728516 678.338742 C 144.897461 682.977414 136.108398 687.371945 127.075195 686.151242 C 118.041992 684.930539 110.595703 681.024289 110.595703 681.024289 " transform="matrix(0.032,0,0,0.032,0,-17.67559)"/>
<path style="fill:none;stroke-width:9;stroke-linecap:butt;stroke-linejoin:miter;stroke:rgb(100%,100%,100%);stroke-opacity:1;stroke-miterlimit:4;" d="M 160.644531 628.167844 L 168.823242 684.442258 L 173.828125 684.564328 L 189.697266 643.304562 L 192.993164 643.304562 L 208.984375 684.564328 L 214.233398 684.686398 L 221.679688 628.411984 " transform="matrix(0.032,0,0,0.032,0,-17.67559)"/>
</g>
</svg>
