<?xml version="1.0" encoding="UTF-8"?>
<svg xmlns="http://www.w3.org/2000/svg" xmlns:xlink="http://www.w3.org/1999/xlink" width="16" height="16" viewBox="0 0 16 16" version="1.1">
<g id="surface1">
<path style=" stroke:none;fill-rule:evenodd;fill:rgb(81.960784%,16.470588%,4.313725%);fill-opacity:1;" d="M 2.015625 4.921875 L 3.71875 6.589844 L 3.667969 4.253906 L 2.015625 4.246094 Z M 2.015625 4.921875 "/>
<path style="fill-rule:evenodd;fill:rgb(94.901961%,94.901961%,94.901961%);fill-opacity:1;stroke-width:5.03546;stroke-linecap:butt;stroke-linejoin:miter;stroke:rgb(68.627451%,68.627451%,68.627451%);stroke-opacity:1;stroke-miterlimit:4;" d="M 97.045898 1029.779172 L 433.959961 1028.680539 L 435.058594 664.788937 L 347.045898 575.555539 L 97.045898 575.555539 Z M 97.045898 1029.779172 " transform="matrix(0.032,0,0,0.032,0,-17.67559)"/>
<path style="fill-rule:evenodd;fill:rgb(68.627451%,68.627451%,68.627451%);fill-opacity:1;stroke-width:5.03546;stroke-linecap:butt;stroke-linejoin:miter;stroke:rgb(68.627451%,68.627451%,68.627451%);stroke-opacity:1;stroke-miterlimit:4;" d="M 431.518555 662.957883 L 349.365234 662.347531 L 350.097656 578.607297 Z M 431.518555 662.957883 " transform="matrix(0.032,0,0,0.032,0,-17.67559)"/>
<path style=" stroke:none;fill-rule:nonzero;fill:rgb(94.117647%,22.352941%,8.627451%);fill-opacity:1;" d="M 2.019531 2.234375 L 9.21875 2.234375 L 9.21875 4.933594 L 2.019531 4.933594 Z M 2.019531 2.234375 "/>
<path style="fill:none;stroke-width:9;stroke-linecap:butt;stroke-linejoin:miter;stroke:rgb(100%,100%,100%);stroke-opacity:1;stroke-miterlimit:4;" d="M 380.251629 670.738223 L 346.194012 670.372012 L 346.682293 618.614199 L 381.106121 618.73627 " transform="matrix(0.032,0,0,0.032,-5.414146,-17.076904)"/>
<path style="fill:none;stroke-width:9;stroke-linecap:butt;stroke-linejoin:miter;stroke:rgb(100%,100%,100%);stroke-opacity:1;stroke-miterlimit:4;" d="M 349.001629 642.41791 L 378.054363 642.53998 " transform="matrix(0.032,0,0,0.032,-5.414146,-17.076904)"/>
<path style=" stroke:none;fill-rule:nonzero;fill:rgb(94.117647%,22.352941%,8.627451%);fill-opacity:1;" d="M 8.78125 15.109375 C 8.351562 15.035156 7.734375 14.792969 7.355469 14.542969 C 6.519531 14 5.972656 13.390625 5.632812 12.636719 C 5.519531 12.382812 5.460938 12.1875 5.285156 11.523438 C 5.238281 11.359375 5.1875 11.175781 5.164062 11.121094 C 5.125 11.023438 5.121094 10.992188 5.140625 10.667969 C 5.15625 10.363281 5.207031 9.949219 5.234375 9.90625 C 5.242188 9.898438 5.253906 9.898438 5.261719 9.902344 C 5.296875 9.921875 5.328125 9.828125 5.359375 9.617188 C 5.375 9.5 5.402344 9.375 5.417969 9.34375 C 5.433594 9.308594 5.460938 9.238281 5.476562 9.179688 C 5.515625 9.050781 5.570312 8.953125 5.730469 8.703125 C 5.804688 8.589844 5.878906 8.472656 5.898438 8.433594 C 5.921875 8.390625 5.945312 8.371094 5.96875 8.375 C 5.988281 8.378906 6.027344 8.351562 6.0625 8.300781 C 6.230469 8.085938 7.007812 7.441406 7.078125 7.460938 C 7.101562 7.46875 7.183594 7.441406 7.261719 7.402344 C 7.410156 7.332031 7.472656 7.316406 7.472656 7.347656 C 7.472656 7.359375 7.453125 7.378906 7.425781 7.398438 C 7.382812 7.425781 7.382812 7.429688 7.453125 7.410156 C 7.492188 7.402344 7.5625 7.390625 7.601562 7.382812 C 7.65625 7.375 7.675781 7.359375 7.667969 7.34375 C 7.664062 7.328125 7.679688 7.3125 7.707031 7.304688 C 7.777344 7.285156 7.890625 7.289062 7.890625 7.308594 C 7.890625 7.332031 7.828125 7.359375 7.777344 7.351562 C 7.742188 7.351562 7.738281 7.351562 7.765625 7.371094 C 7.792969 7.386719 7.792969 7.390625 7.765625 7.390625 C 7.75 7.390625 7.742188 7.394531 7.75 7.402344 C 7.757812 7.410156 7.800781 7.394531 7.847656 7.371094 C 7.894531 7.351562 7.976562 7.320312 8.035156 7.308594 C 8.105469 7.292969 8.140625 7.277344 8.140625 7.257812 C 8.140625 7.230469 8.171875 7.226562 8.398438 7.238281 C 8.539062 7.246094 8.75 7.265625 8.867188 7.285156 C 9.082031 7.320312 9.082031 7.320312 9.164062 7.273438 C 9.261719 7.222656 9.414062 7.214844 9.457031 7.261719 C 9.472656 7.28125 9.511719 7.308594 9.546875 7.324219 C 9.605469 7.355469 9.609375 7.355469 9.585938 7.324219 C 9.539062 7.273438 9.585938 7.273438 9.761719 7.332031 C 10.335938 7.515625 10.804688 7.84375 11.152344 8.308594 C 11.234375 8.417969 11.242188 8.464844 11.164062 8.398438 L 11.117188 8.363281 L 11.152344 8.425781 C 11.171875 8.460938 11.1875 8.5 11.1875 8.511719 C 11.1875 8.527344 11.242188 8.625 11.308594 8.730469 C 11.460938 8.96875 11.503906 9.046875 11.492188 9.078125 C 11.488281 9.089844 11.421875 9.007812 11.34375 8.890625 C 11.265625 8.777344 11.148438 8.621094 11.085938 8.546875 C 10.992188 8.433594 10.96875 8.414062 10.949219 8.441406 C 10.9375 8.457031 10.90625 8.472656 10.878906 8.476562 L 10.832031 8.480469 L 10.878906 8.570312 C 10.902344 8.617188 10.929688 8.644531 10.933594 8.632812 C 10.953125 8.570312 11.054688 8.652344 11.101562 8.773438 C 11.117188 8.808594 11.15625 8.890625 11.191406 8.949219 C 11.226562 9.007812 11.25 9.058594 11.242188 9.0625 C 11.238281 9.070312 11.207031 9.054688 11.175781 9.027344 L 11.117188 8.984375 L 11.15625 9.050781 C 11.179688 9.085938 11.214844 9.132812 11.238281 9.148438 C 11.269531 9.171875 11.28125 9.207031 11.28125 9.261719 C 11.285156 9.367188 11.347656 9.488281 11.378906 9.453125 C 11.429688 9.40625 11.441406 9.4375 11.429688 9.597656 C 11.417969 9.71875 11.425781 9.796875 11.449219 9.882812 C 11.480469 10.007812 11.476562 10.039062 11.425781 9.980469 C 11.390625 9.945312 11.390625 9.945312 11.40625 9.984375 C 11.4375 10.066406 11.460938 10.195312 11.453125 10.242188 C 11.441406 10.335938 11.40625 10.296875 11.394531 10.179688 L 11.382812 10.0625 L 11.378906 10.1875 C 11.375 10.253906 11.359375 10.382812 11.339844 10.476562 C 11.320312 10.570312 11.3125 10.679688 11.320312 10.730469 C 11.332031 10.820312 11.324219 10.824219 11.246094 10.757812 C 11.210938 10.730469 11.207031 10.738281 11.183594 10.816406 C 11.167969 10.882812 11.167969 10.917969 11.1875 10.972656 C 11.199219 11.011719 11.207031 11.066406 11.203125 11.09375 C 11.195312 11.152344 11.144531 11.171875 11.144531 11.117188 C 11.144531 11.042969 11.117188 11.070312 11.03125 11.21875 C 10.796875 11.621094 10.425781 11.933594 10.007812 12.078125 C 9.761719 12.164062 9.597656 12.199219 9.320312 12.210938 L 9.070312 12.226562 L 9.191406 12.261719 C 9.292969 12.292969 9.351562 12.296875 9.496094 12.285156 C 9.683594 12.273438 9.90625 12.230469 10.007812 12.195312 C 10.046875 12.179688 10.074219 12.179688 10.085938 12.195312 C 10.121094 12.226562 9.828125 12.347656 9.65625 12.375 C 9.363281 12.421875 8.972656 12.371094 8.625 12.242188 C 8.390625 12.152344 8.039062 11.917969 8.09375 11.886719 C 8.105469 11.882812 8.171875 11.914062 8.242188 11.957031 C 8.332031 12.011719 8.371094 12.023438 8.371094 12.003906 C 8.371094 11.964844 8.382812 11.964844 8.457031 12.015625 C 8.519531 12.058594 8.722656 12.144531 8.867188 12.183594 C 9.023438 12.230469 8.960938 12.175781 8.75 12.082031 C 8.085938 11.78125 7.804688 11.484375 7.667969 10.914062 C 7.617188 10.707031 7.671875 10.246094 7.765625 10.105469 C 7.789062 10.070312 7.808594 10.023438 7.808594 10.003906 C 7.808594 9.925781 7.945312 9.714844 8.085938 9.582031 C 8.335938 9.339844 8.59375 9.242188 8.929688 9.257812 C 9.09375 9.265625 9.164062 9.277344 9.296875 9.328125 C 9.453125 9.386719 9.644531 9.511719 9.585938 9.511719 C 9.570312 9.511719 9.511719 9.492188 9.449219 9.46875 C 9.359375 9.429688 9.300781 9.425781 9.089844 9.421875 C 8.796875 9.421875 8.652344 9.460938 8.445312 9.601562 C 8.148438 9.804688 7.980469 10.035156 7.921875 10.332031 C 7.882812 10.527344 7.882812 10.585938 7.914062 10.78125 C 7.929688 10.894531 7.945312 10.929688 7.964844 10.921875 C 7.984375 10.914062 7.996094 10.921875 7.996094 10.949219 C 7.996094 11.019531 8.15625 11.304688 8.265625 11.429688 C 8.53125 11.738281 8.960938 11.933594 9.371094 11.933594 C 9.585938 11.933594 9.753906 11.894531 9.914062 11.8125 C 9.976562 11.777344 10.054688 11.734375 10.089844 11.71875 C 10.210938 11.660156 10.289062 11.59375 10.375 11.464844 C 10.425781 11.390625 10.476562 11.335938 10.492188 11.335938 C 10.519531 11.335938 10.515625 11.34375 10.488281 11.390625 C 10.394531 11.535156 10.613281 11.269531 10.726562 11.097656 L 10.855469 10.902344 L 10.839844 10.777344 C 10.828125 10.65625 10.828125 10.648438 10.890625 10.585938 C 10.949219 10.527344 10.953125 10.511719 10.960938 10.351562 C 10.964844 10.210938 10.960938 10.183594 10.9375 10.183594 C 10.914062 10.183594 10.902344 10.148438 10.890625 10.023438 C 10.878906 9.859375 10.738281 9.3125 10.707031 9.292969 C 10.695312 9.289062 10.671875 9.234375 10.648438 9.175781 C 10.570312 8.976562 10.429688 8.789062 10.214844 8.578125 C 9.90625 8.28125 9.519531 8.050781 9.152344 7.949219 C 8.839844 7.863281 8.308594 7.894531 7.933594 8.023438 C 7.75 8.085938 7.566406 8.167969 7.535156 8.203125 C 7.523438 8.21875 7.5 8.226562 7.492188 8.21875 C 7.480469 8.210938 7.484375 8.195312 7.5 8.175781 C 7.566406 8.097656 7.335938 8.242188 7.1875 8.375 C 7.097656 8.453125 7.023438 8.519531 7.015625 8.523438 C 7.015625 8.527344 7.03125 8.523438 7.054688 8.515625 C 7.097656 8.507812 7.101562 8.507812 7.078125 8.550781 C 7.0625 8.578125 6.988281 8.625 6.894531 8.664062 C 6.734375 8.734375 6.632812 8.808594 6.554688 8.917969 C 6.519531 8.960938 6.519531 8.96875 6.542969 8.960938 C 6.5625 8.953125 6.578125 8.957031 6.578125 8.96875 C 6.578125 9.027344 6.523438 9.089844 6.441406 9.128906 C 6.265625 9.210938 5.953125 9.652344 5.785156 10.058594 C 5.710938 10.238281 5.710938 10.234375 5.753906 10.234375 C 5.796875 10.234375 5.792969 10.28125 5.734375 10.53125 C 5.648438 10.894531 5.648438 10.882812 5.742188 11.394531 C 5.855469 12.019531 5.921875 12.226562 6.046875 12.355469 C 6.078125 12.386719 6.105469 12.449219 6.117188 12.515625 C 6.132812 12.59375 6.160156 12.644531 6.207031 12.691406 C 6.25 12.734375 6.265625 12.761719 6.25 12.769531 C 6.214844 12.78125 6.320312 12.929688 6.414062 13.003906 C 6.460938 13.042969 6.496094 13.054688 6.53125 13.050781 C 6.617188 13.035156 6.703125 13.078125 6.832031 13.210938 C 6.96875 13.347656 6.980469 13.382812 6.890625 13.371094 C 6.832031 13.363281 6.832031 13.367188 6.859375 13.40625 C 6.878906 13.429688 6.9375 13.488281 6.996094 13.535156 C 7.074219 13.601562 7.097656 13.628906 7.085938 13.660156 C 7.070312 13.703125 7.113281 13.746094 7.207031 13.777344 C 7.265625 13.800781 7.285156 13.847656 7.242188 13.859375 C 7.226562 13.863281 7.308594 13.945312 7.421875 14.039062 C 7.550781 14.148438 7.636719 14.207031 7.648438 14.195312 C 7.683594 14.164062 7.722656 14.171875 7.726562 14.210938 C 7.726562 14.253906 7.761719 14.296875 7.894531 14.410156 C 7.976562 14.484375 8 14.492188 8.050781 14.476562 C 8.097656 14.464844 8.125 14.472656 8.191406 14.515625 C 8.324219 14.601562 8.40625 14.636719 8.472656 14.636719 C 8.539062 14.636719 8.550781 14.65625 8.515625 14.71875 C 8.496094 14.75 8.5 14.757812 8.542969 14.757812 C 8.570312 14.757812 8.648438 14.773438 8.714844 14.796875 C 8.867188 14.847656 8.929688 14.851562 8.890625 14.804688 C 8.835938 14.742188 8.894531 14.757812 9.09375 14.867188 C 9.375 15.019531 9.515625 15.035156 10.074219 14.984375 C 10.15625 14.980469 10.183594 14.984375 10.183594 15.003906 C 10.183594 15.019531 10.113281 15.046875 9.980469 15.078125 C 9.808594 15.117188 9.714844 15.125 9.359375 15.128906 C 9.082031 15.132812 8.890625 15.125 8.78125 15.109375 Z M 8.496094 12.105469 C 8.496094 12.101562 8.46875 12.085938 8.4375 12.066406 L 8.382812 12.03125 L 8.429688 12.074219 C 8.476562 12.113281 8.496094 12.121094 8.496094 12.105469 Z M 11.367188 10.007812 C 11.359375 9.992188 11.355469 9.996094 11.355469 10.023438 C 11.355469 10.042969 11.359375 10.054688 11.367188 10.046875 C 11.371094 10.039062 11.371094 10.023438 11.367188 10.007812 Z M 6.621094 7.898438 C 6.648438 7.863281 6.644531 7.863281 6.613281 7.890625 C 6.59375 7.902344 6.578125 7.917969 6.578125 7.921875 C 6.578125 7.941406 6.59375 7.929688 6.621094 7.898438 Z M 6.859375 7.710938 C 6.878906 7.6875 6.890625 7.671875 6.886719 7.671875 C 6.878906 7.671875 6.859375 7.6875 6.835938 7.710938 C 6.816406 7.734375 6.804688 7.75 6.808594 7.75 C 6.816406 7.75 6.835938 7.734375 6.859375 7.710938 Z M 7.121094 7.570312 C 7.1875 7.546875 7.226562 7.542969 7.242188 7.558594 C 7.257812 7.570312 7.3125 7.5625 7.410156 7.53125 C 7.492188 7.507812 7.554688 7.484375 7.550781 7.476562 C 7.546875 7.472656 7.480469 7.492188 7.402344 7.515625 C 7.296875 7.546875 7.257812 7.554688 7.246094 7.535156 C 7.226562 7.503906 7.039062 7.566406 6.957031 7.628906 L 6.898438 7.671875 L 6.960938 7.636719 C 6.992188 7.617188 7.066406 7.589844 7.121094 7.570312 Z M 7.722656 7.519531 C 7.78125 7.503906 7.828125 7.484375 7.824219 7.480469 C 7.8125 7.472656 7.597656 7.53125 7.597656 7.542969 C 7.597656 7.554688 7.601562 7.554688 7.722656 7.519531 Z M 8.066406 7.410156 L 8.152344 7.394531 L 8.078125 7.394531 C 8.039062 7.394531 7.980469 7.40625 7.953125 7.421875 C 7.917969 7.441406 7.914062 7.449219 7.941406 7.4375 C 7.964844 7.429688 8.023438 7.417969 8.066406 7.410156 Z M 8.234375 7.371094 C 8.238281 7.363281 8.226562 7.359375 8.203125 7.367188 C 8.15625 7.378906 8.148438 7.390625 8.191406 7.390625 C 8.207031 7.390625 8.226562 7.382812 8.234375 7.371094 Z M 8.90625 7.378906 C 8.898438 7.371094 8.882812 7.371094 8.867188 7.378906 C 8.851562 7.382812 8.855469 7.390625 8.878906 7.390625 C 8.902344 7.390625 8.914062 7.386719 8.90625 7.378906 Z M 8.78125 7.355469 C 8.761719 7.351562 8.730469 7.351562 8.710938 7.355469 C 8.6875 7.363281 8.707031 7.367188 8.746094 7.367188 C 8.785156 7.367188 8.800781 7.363281 8.78125 7.355469 Z M 8.574219 7.335938 C 8.53125 7.332031 8.457031 7.332031 8.40625 7.335938 C 8.359375 7.339844 8.394531 7.34375 8.484375 7.34375 C 8.578125 7.34375 8.617188 7.339844 8.574219 7.335938 Z M 8.300781 7.320312 C 8.292969 7.3125 8.277344 7.3125 8.261719 7.316406 C 8.246094 7.324219 8.25 7.328125 8.273438 7.328125 C 8.296875 7.328125 8.308594 7.324219 8.300781 7.320312 Z M 8.160156 12.128906 C 7.949219 11.984375 7.871094 11.90625 7.871094 11.851562 C 7.871094 11.820312 7.875 11.792969 7.886719 11.792969 C 7.914062 11.792969 8.269531 12.148438 8.261719 12.171875 C 8.257812 12.183594 8.214844 12.167969 8.160156 12.128906 Z M 8.050781 11.757812 C 7.941406 11.652344 7.90625 11.59375 7.949219 11.59375 C 7.976562 11.59375 8.183594 11.820312 8.183594 11.851562 C 8.183594 11.863281 8.179688 11.875 8.175781 11.875 C 8.171875 11.875 8.117188 11.824219 8.050781 11.757812 Z M 9.273438 11.320312 C 9.214844 11.296875 9.25 11.257812 9.34375 11.238281 C 9.398438 11.226562 9.484375 11.199219 9.539062 11.175781 C 9.589844 11.152344 9.632812 11.140625 9.640625 11.144531 C 9.644531 11.148438 9.621094 11.191406 9.585938 11.242188 C 9.527344 11.332031 9.527344 11.335938 9.414062 11.332031 C 9.351562 11.332031 9.285156 11.328125 9.273438 11.320312 Z M 9.898438 10.871094 C 9.839844 10.851562 9.839844 10.8125 9.886719 10.6875 C 9.925781 10.582031 9.96875 10.558594 9.945312 10.660156 C 9.9375 10.695312 9.925781 10.746094 9.921875 10.773438 L 9.910156 10.824219 L 9.953125 10.777344 C 9.976562 10.75 10 10.6875 10.007812 10.621094 C 10.015625 10.5625 10.03125 10.519531 10.042969 10.523438 C 10.066406 10.539062 10.0625 10.699219 10.035156 10.804688 C 10.011719 10.898438 9.992188 10.910156 9.898438 10.871094 Z M 4.960938 10.621094 C 4.953125 10.605469 4.949219 10.535156 4.949219 10.46875 C 4.949219 10.382812 4.957031 10.351562 4.976562 10.359375 C 5.007812 10.367188 5.023438 10.652344 4.996094 10.652344 C 4.984375 10.652344 4.96875 10.640625 4.960938 10.621094 Z M 9.980469 10.152344 C 9.949219 10.113281 9.9375 10.078125 9.945312 10.042969 C 9.964844 9.972656 10.015625 9.980469 10.050781 10.066406 C 10.109375 10.195312 10.058594 10.257812 9.980469 10.152344 Z M 4.957031 9.835938 C 4.957031 9.722656 4.957031 9.71875 5.011719 9.71875 C 5.054688 9.722656 5.066406 9.734375 5.070312 9.785156 C 5.078125 9.839844 5.011719 9.953125 4.972656 9.953125 C 4.964844 9.953125 4.960938 9.898438 4.957031 9.835938 Z M 10.363281 7.375 C 10.367188 7.195312 10.398438 7.136719 10.421875 7.261719 C 10.441406 7.347656 10.417969 7.503906 10.386719 7.527344 C 10.367188 7.542969 10.363281 7.503906 10.363281 7.375 Z M 7.625 7.269531 C 7.632812 7.242188 7.921875 7.132812 7.972656 7.132812 C 8.035156 7.132812 7.921875 7.203125 7.792969 7.246094 C 7.652344 7.296875 7.613281 7.300781 7.625 7.269531 Z M 7.625 7.269531 "/>
<path style="fill:none;stroke-width:9;stroke-linecap:butt;stroke-linejoin:miter;stroke:rgb(100%,100%,100%);stroke-opacity:1;stroke-miterlimit:4;" d="M 119.506836 689.08093 L 119.873047 636.956906 C 119.873047 636.956906 159.790039 631.097531 160.27832 663.446164 C 160.888672 695.794797 119.506836 689.08093 119.506836 689.08093 Z M 119.506836 689.08093 " transform="matrix(0.032,0,0,0.032,0,-17.67559)"/>
<path style="fill:none;stroke-width:9;stroke-linecap:butt;stroke-linejoin:miter;stroke:rgb(100%,100%,100%);stroke-opacity:1;stroke-miterlimit:4;" d="M 228.149414 635.369992 L 228.149414 688.348508 L 248.413086 688.348508 C 248.413086 688.348508 264.160156 689.203 263.671875 674.432492 C 263.183594 659.661984 249.633789 659.906125 249.633789 659.906125 L 231.445312 659.906125 L 249.389648 659.784055 C 249.389648 659.784055 260.620117 659.417844 260.498047 647.088742 C 260.253906 634.63757 244.995117 635.369992 244.995117 635.369992 Z M 228.149414 635.369992 " transform="matrix(0.032,0,0,0.032,0,-17.67559)"/>
</g>
</svg>
