<?xml version="1.0" encoding="UTF-8"?>
<svg xmlns="http://www.w3.org/2000/svg" xmlns:xlink="http://www.w3.org/1999/xlink" width="16" height="16" viewBox="0 0 16 16" version="1.1">
<g id="surface1">
<path style=" stroke:none;fill-rule:evenodd;fill:rgb(10.196078%,10.196078%,10.196078%);fill-opacity:1;" d="M 2.027344 4.941406 L 3.730469 6.609375 L 3.675781 4.273438 L 2.023438 4.265625 Z M 2.027344 4.941406 "/>
<path style="fill-rule:evenodd;fill:rgb(94.901961%,94.901961%,94.901961%);fill-opacity:1;stroke-width:5.03546;stroke-linecap:butt;stroke-linejoin:miter;stroke:rgb(68.627451%,68.627451%,68.627451%);stroke-opacity:1;stroke-miterlimit:4;" d="M 97.045898 1029.779172 L 433.959961 1028.680539 L 435.058594 664.788937 L 347.045898 575.555539 L 97.045898 575.555539 Z M 97.045898 1029.779172 " transform="matrix(0.032,0,0,0.032,0,-17.67559)"/>
<path style="fill-rule:evenodd;fill:rgb(68.627451%,68.627451%,68.627451%);fill-opacity:1;stroke-width:5.03546;stroke-linecap:butt;stroke-linejoin:miter;stroke:rgb(68.627451%,68.627451%,68.627451%);stroke-opacity:1;stroke-miterlimit:4;" d="M 431.518555 662.957883 L 349.365234 662.347531 L 350.097656 578.607297 Z M 431.518555 662.957883 " transform="matrix(0.032,0,0,0.032,0,-17.67559)"/>
<path style=" stroke:none;fill-rule:nonzero;fill:rgb(22.352941%,25.098039%,31.372549%);fill-opacity:1;" d="M 2.019531 2.234375 L 9.21875 2.234375 L 9.21875 4.933594 L 2.019531 4.933594 Z M 2.019531 2.234375 "/>
<path style=" stroke:none;fill-rule:nonzero;fill:rgb(22.352941%,25.098039%,31.372549%);fill-opacity:1;" d="M 8.144531 15.140625 C 8.074219 15.109375 8 15.027344 7.964844 14.949219 C 7.949219 14.90625 7.933594 14.75 7.917969 14.496094 C 7.90625 14.285156 7.890625 14.089844 7.882812 14.070312 C 7.871094 14.042969 7.820312 14.015625 7.699219 13.976562 C 7.609375 13.941406 7.46875 13.882812 7.390625 13.84375 C 7.3125 13.804688 7.234375 13.773438 7.214844 13.773438 C 7.191406 13.773438 7.0625 13.878906 6.882812 14.042969 C 6.722656 14.191406 6.566406 14.324219 6.53125 14.339844 C 6.46875 14.375 6.320312 14.378906 6.242188 14.351562 C 6.183594 14.328125 5.542969 13.699219 5.503906 13.621094 C 5.460938 13.542969 5.46875 13.402344 5.511719 13.3125 C 5.53125 13.273438 5.667969 13.113281 5.8125 12.957031 C 5.96875 12.789062 6.074219 12.65625 6.074219 12.636719 C 6.074219 12.617188 6.042969 12.535156 6.003906 12.457031 C 5.964844 12.382812 5.90625 12.242188 5.875 12.152344 C 5.84375 12.058594 5.804688 11.976562 5.789062 11.96875 C 5.773438 11.960938 5.585938 11.945312 5.371094 11.933594 C 5.121094 11.917969 4.957031 11.902344 4.90625 11.882812 C 4.816406 11.851562 4.710938 11.738281 4.695312 11.65625 C 4.6875 11.625 4.683594 11.382812 4.6875 11.117188 L 4.695312 10.632812 L 4.75 10.566406 C 4.847656 10.441406 4.894531 10.429688 5.359375 10.402344 C 5.625 10.386719 5.785156 10.367188 5.796875 10.355469 C 5.8125 10.34375 5.851562 10.25 5.886719 10.152344 C 5.921875 10.054688 5.980469 9.917969 6.015625 9.851562 C 6.046875 9.785156 6.074219 9.714844 6.074219 9.695312 C 6.074219 9.679688 5.964844 9.542969 5.828125 9.394531 C 5.695312 9.246094 5.566406 9.101562 5.542969 9.070312 C 5.476562 8.984375 5.457031 8.878906 5.480469 8.777344 C 5.5 8.699219 5.535156 8.65625 5.828125 8.359375 C 6.011719 8.175781 6.1875 8.011719 6.222656 7.992188 C 6.308594 7.949219 6.445312 7.945312 6.53125 7.992188 C 6.566406 8.007812 6.722656 8.140625 6.878906 8.285156 C 7.035156 8.425781 7.171875 8.550781 7.1875 8.558594 C 7.199219 8.566406 7.285156 8.535156 7.386719 8.488281 C 7.484375 8.441406 7.628906 8.382812 7.710938 8.355469 C 7.820312 8.320312 7.859375 8.292969 7.875 8.261719 C 7.886719 8.238281 7.90625 8.042969 7.917969 7.832031 C 7.941406 7.421875 7.957031 7.355469 8.039062 7.265625 C 8.132812 7.167969 8.1875 7.160156 8.714844 7.167969 L 9.195312 7.171875 L 9.269531 7.222656 C 9.398438 7.304688 9.414062 7.359375 9.445312 7.816406 C 9.460938 8.039062 9.476562 8.238281 9.480469 8.257812 C 9.488281 8.289062 9.527344 8.308594 9.65625 8.355469 C 9.746094 8.386719 9.894531 8.449219 9.980469 8.492188 C 10.070312 8.535156 10.148438 8.570312 10.15625 8.570312 C 10.164062 8.570312 10.304688 8.449219 10.46875 8.300781 C 10.632812 8.148438 10.792969 8.011719 10.832031 7.992188 C 10.917969 7.945312 11.046875 7.945312 11.144531 7.992188 C 11.1875 8.015625 11.34375 8.15625 11.535156 8.351562 C 11.867188 8.683594 11.894531 8.722656 11.894531 8.875 C 11.894531 8.980469 11.84375 9.050781 11.5625 9.363281 C 11.40625 9.535156 11.277344 9.679688 11.277344 9.6875 C 11.277344 9.699219 11.320312 9.789062 11.367188 9.894531 C 11.417969 9.996094 11.476562 10.140625 11.5 10.214844 C 11.527344 10.304688 11.554688 10.351562 11.578125 10.363281 C 11.597656 10.371094 11.796875 10.386719 12.019531 10.402344 C 12.464844 10.429688 12.539062 10.449219 12.613281 10.554688 C 12.683594 10.652344 12.691406 10.726562 12.683594 11.210938 L 12.679688 11.675781 L 12.625 11.753906 C 12.527344 11.890625 12.503906 11.898438 12.007812 11.929688 C 11.769531 11.945312 11.566406 11.964844 11.5625 11.96875 C 11.554688 11.972656 11.527344 12.050781 11.496094 12.140625 C 11.464844 12.230469 11.402344 12.375 11.355469 12.460938 C 11.3125 12.550781 11.28125 12.632812 11.28125 12.644531 C 11.285156 12.660156 11.40625 12.796875 11.550781 12.957031 C 11.695312 13.113281 11.832031 13.277344 11.851562 13.320312 C 11.898438 13.414062 11.90625 13.511719 11.867188 13.605469 C 11.832031 13.691406 11.242188 14.285156 11.148438 14.335938 C 11.070312 14.378906 10.921875 14.382812 10.839844 14.34375 C 10.808594 14.332031 10.648438 14.195312 10.484375 14.046875 C 10.320312 13.898438 10.171875 13.773438 10.15625 13.773438 C 10.140625 13.773438 10.046875 13.8125 9.953125 13.855469 C 9.855469 13.902344 9.710938 13.960938 9.632812 13.984375 C 9.523438 14.023438 9.488281 14.042969 9.480469 14.070312 C 9.476562 14.089844 9.460938 14.289062 9.445312 14.511719 C 9.414062 14.996094 9.394531 15.050781 9.226562 15.136719 C 9.175781 15.160156 9.09375 15.164062 8.683594 15.164062 C 8.320312 15.164062 8.183594 15.15625 8.144531 15.140625 Z M 8.859375 12.980469 C 9.292969 12.933594 9.660156 12.757812 9.96875 12.449219 C 10.207031 12.210938 10.359375 11.945312 10.453125 11.609375 C 10.507812 11.398438 10.507812 10.933594 10.453125 10.722656 C 10.273438 10.078125 9.8125 9.601562 9.175781 9.410156 C 9.023438 9.363281 8.984375 9.359375 8.695312 9.359375 C 8.417969 9.359375 8.359375 9.363281 8.226562 9.398438 C 7.554688 9.582031 7.039062 10.121094 6.898438 10.792969 C 6.773438 11.394531 6.957031 12.011719 7.398438 12.453125 C 7.625 12.683594 7.925781 12.855469 8.25 12.9375 C 8.339844 12.960938 8.472656 12.980469 8.660156 12.996094 C 8.675781 12.996094 8.761719 12.988281 8.859375 12.980469 Z M 8.410156 12.222656 C 7.949219 12.097656 7.625 11.703125 7.597656 11.234375 C 7.578125 10.90625 7.683594 10.628906 7.917969 10.394531 C 8.34375 9.972656 9.023438 9.96875 9.441406 10.386719 C 9.785156 10.730469 9.871094 11.222656 9.65625 11.652344 C 9.472656 12.019531 9.136719 12.234375 8.722656 12.25 C 8.582031 12.257812 8.511719 12.25 8.410156 12.222656 Z M 8.925781 11.765625 C 9.054688 11.71875 9.203125 11.578125 9.269531 11.445312 C 9.347656 11.25 9.339844 11.023438 9.257812 10.867188 C 9.136719 10.648438 8.960938 10.539062 8.714844 10.527344 C 8.515625 10.515625 8.394531 10.558594 8.25 10.691406 C 8.066406 10.859375 7.996094 11.089844 8.054688 11.320312 C 8.105469 11.519531 8.210938 11.652344 8.394531 11.746094 C 8.5625 11.828125 8.734375 11.835938 8.925781 11.765625 Z M 8.925781 11.765625 "/>
<path style="fill:none;stroke-width:9;stroke-linecap:butt;stroke-linejoin:miter;stroke:rgb(100%,100%,100%);stroke-opacity:1;stroke-miterlimit:4;" d="M 380.268555 670.676711 L 346.210938 670.3105 L 346.577148 618.552688 L 381.123047 618.796828 " transform="matrix(0.032,0,0,0.032,-7.238906,-17.024155)"/>
<path style="fill:none;stroke-width:9;stroke-linecap:butt;stroke-linejoin:miter;stroke:rgb(100%,100%,100%);stroke-opacity:1;stroke-miterlimit:4;" d="M 349.018555 642.356398 L 378.071289 642.478469 " transform="matrix(0.032,0,0,0.032,-7.238906,-17.024155)"/>
<path style="fill:none;stroke-width:9;stroke-linecap:butt;stroke-linejoin:miter;stroke:rgb(100%,100%,100%);stroke-opacity:1;stroke-miterlimit:4;" d="M 380.247484 670.753934 L 346.189867 670.265652 L 346.556078 618.62991 L 381.101977 618.75198 " transform="matrix(0.032,0,0,0.032,-3.742138,-16.983657)"/>
<path style="fill:none;stroke-width:9;stroke-linecap:butt;stroke-linejoin:miter;stroke:rgb(100%,100%,100%);stroke-opacity:1;stroke-miterlimit:4;" d="M 348.997484 642.433621 L 378.050219 642.555691 " transform="matrix(0.032,0,0,0.032,-3.742138,-16.983657)"/>
<path style="fill:none;stroke-width:9;stroke-linecap:butt;stroke-linejoin:miter;stroke:rgb(100%,100%,100%);stroke-opacity:1;stroke-miterlimit:4;" d="M 42.462582 990.851195 L 81.769223 1049.200805 " transform="matrix(0.032,0,0,0.032,4.051354,-28.996301)"/>
<path style="fill:none;stroke-width:9;stroke-linecap:butt;stroke-linejoin:miter;stroke:rgb(100%,100%,100%);stroke-opacity:1;stroke-miterlimit:4;" d="M 80.182309 990.851195 L 40.875668 1049.200805 " transform="matrix(0.032,0,0,0.032,4.051354,-28.996301)"/>
</g>
</svg>
