<?xml version="1.0" encoding="UTF-8"?>
<svg xmlns="http://www.w3.org/2000/svg" xmlns:xlink="http://www.w3.org/1999/xlink" width="16" height="16" viewBox="0 0 16 16" version="1.1">
<g id="surface1">
<path style=" stroke:none;fill-rule:evenodd;fill:rgb(10.196078%,10.196078%,10.196078%);fill-opacity:1;" d="M 2.015625 4.921875 L 3.71875 6.589844 L 3.667969 4.253906 L 2.015625 4.246094 Z M 2.015625 4.921875 "/>
<path style="fill-rule:evenodd;fill:rgb(94.901961%,94.901961%,94.901961%);fill-opacity:1;stroke-width:5.03546;stroke-linecap:butt;stroke-linejoin:miter;stroke:rgb(68.627451%,68.627451%,68.627451%);stroke-opacity:1;stroke-miterlimit:4;" d="M 97.045898 1029.779172 L 433.959961 1028.680539 L 435.058594 664.788937 L 347.045898 575.555539 L 97.045898 575.555539 Z M 97.045898 1029.779172 " transform="matrix(0.032,0,0,0.032,0,-17.67559)"/>
<path style="fill-rule:evenodd;fill:rgb(68.627451%,68.627451%,68.627451%);fill-opacity:1;stroke-width:5.03546;stroke-linecap:butt;stroke-linejoin:miter;stroke:rgb(68.627451%,68.627451%,68.627451%);stroke-opacity:1;stroke-miterlimit:4;" d="M 431.518555 662.957883 L 349.365234 662.347531 L 350.097656 578.607297 Z M 431.518555 662.957883 " transform="matrix(0.032,0,0,0.032,0,-17.67559)"/>
<path style=" stroke:none;fill-rule:nonzero;fill:rgb(20%,20%,20%);fill-opacity:1;" d="M 2.019531 2.234375 L 9.21875 2.234375 L 9.21875 4.933594 L 2.019531 4.933594 Z M 2.019531 2.234375 "/>
<path style=" stroke:none;fill-rule:evenodd;fill:rgb(20%,20%,20%);fill-opacity:1;" d="M 6.683594 7.777344 L 6.683594 13.109375 C 6.457031 12.898438 6.160156 12.761719 5.851562 12.761719 C 5.199219 12.761719 4.605469 13.355469 4.605469 14.007812 C 4.605469 14.664062 5.199219 15.257812 5.851562 15.257812 C 6.503906 15.257812 7.097656 14.664062 7.097656 14.007812 L 7.097656 7.777344 Z M 6.683594 7.777344 "/>
<path style=" stroke:none;fill-rule:evenodd;fill:rgb(20%,20%,20%);fill-opacity:1;" d="M 10.789062 7.300781 L 10.789062 12.632812 C 10.5625 12.421875 10.269531 12.285156 9.957031 12.285156 C 9.304688 12.285156 8.710938 12.878906 8.710938 13.53125 C 8.710938 14.183594 9.304688 14.777344 9.957031 14.777344 C 10.609375 14.777344 11.207031 14.183594 11.207031 13.53125 L 11.207031 7.300781 Z M 10.789062 7.300781 "/>
<path style=" stroke:none;fill-rule:nonzero;fill:rgb(20%,20%,20%);fill-opacity:1;" d="M 6.699219 7.78125 L 11.148438 7.257812 L 11.203125 7.734375 L 6.753906 8.261719 Z M 6.699219 7.78125 "/>
<path style="fill:none;stroke-width:9;stroke-linecap:butt;stroke-linejoin:miter;stroke:rgb(100%,100%,100%);stroke-opacity:1;stroke-miterlimit:4;" d="M 132.93457 688.714719 C 120.97168 688.592648 109.619141 676.507687 109.49707 661.126828 C 109.49707 645.868039 121.582031 633.538937 133.666992 633.905148 C 145.874023 634.271359 156.37207 645.868039 156.616211 662.103391 C 156.860352 678.460812 145.019531 688.714719 132.93457 688.714719 Z M 132.93457 688.714719 " transform="matrix(0.032,0,0,0.032,0,-17.67559)"/>
<path style="fill:none;stroke-width:9;stroke-linecap:butt;stroke-linejoin:miter;stroke:rgb(100%,100%,100%);stroke-opacity:1;stroke-miterlimit:4;" d="M 216.064453 642.938352 C 216.064453 642.938352 208.862305 635.247922 193.359375 635.369992 C 177.856445 635.492062 169.799805 651.239133 170.043945 663.568234 C 170.288086 676.019406 181.030273 689.08093 193.237305 690.423703 C 205.444336 691.644406 214.599609 685.17468 214.599609 685.17468 L 213.989258 665.033078 L 197.265625 665.277219 " transform="matrix(0.032,0,0,0.032,0,-17.67559)"/>
<path style="fill:none;stroke-width:9;stroke-linecap:butt;stroke-linejoin:bevel;stroke:rgb(100%,100%,100%);stroke-opacity:1;stroke-miterlimit:4;" d="M 915.682956 696.343555 L 937.864473 638.041316 L 960.530832 696.343555 " transform="matrix(0.032227,0,0,0.032227,-22.228465,-17.987939)"/>
<path style="fill:none;stroke-width:9;stroke-linecap:butt;stroke-linejoin:miter;stroke:rgb(100%,100%,100%);stroke-opacity:1;stroke-miterlimit:4;" d="M 924.531321 676.707458 L 950.349152 676.707458 " transform="matrix(0.032227,0,0,0.032227,-22.228465,-17.987939)"/>
</g>
</svg>
