<?xml version="1.0" encoding="UTF-8"?>
<svg xmlns="http://www.w3.org/2000/svg" xmlns:xlink="http://www.w3.org/1999/xlink" width="16" height="16" viewBox="0 0 16 16" version="1.1">
<g id="surface1">
<path style=" stroke:none;fill-rule:evenodd;fill:rgb(50.196078%,20%,0%);fill-opacity:1;" d="M 2.015625 4.761719 L 3.71875 6.429688 L 3.667969 4.09375 L 2.015625 4.085938 Z M 2.015625 4.761719 "/>
<path style="fill-rule:evenodd;fill:rgb(94.901961%,94.901961%,94.901961%);fill-opacity:1;stroke-width:5.03546;stroke-linecap:butt;stroke-linejoin:miter;stroke:rgb(68.627451%,68.627451%,68.627451%);stroke-opacity:1;stroke-miterlimit:4;" d="M 97.045898 1024.774289 L 433.959961 1023.675656 L 435.058594 659.784055 L 347.045898 570.550656 L 97.045898 570.550656 Z M 97.045898 1024.774289 " transform="matrix(0.032,0,0,0.032,0,-17.67559)"/>
<path style="fill-rule:evenodd;fill:rgb(68.627451%,68.627451%,68.627451%);fill-opacity:1;stroke-width:5.03546;stroke-linecap:butt;stroke-linejoin:miter;stroke:rgb(68.627451%,68.627451%,68.627451%);stroke-opacity:1;stroke-miterlimit:4;" d="M 431.518555 657.953 L 349.365234 657.342648 L 350.097656 573.602414 Z M 431.518555 657.953 " transform="matrix(0.032,0,0,0.032,0,-17.67559)"/>
<path style=" stroke:none;fill-rule:nonzero;fill:rgb(100%,40%,0%);fill-opacity:1;" d="M 2.019531 2.074219 L 9.304688 2.074219 L 9.304688 4.773438 L 2.019531 4.773438 Z M 2.019531 2.074219 "/>
<path style="fill-rule:nonzero;fill:rgb(0%,73.333333%,94.901961%);fill-opacity:1;stroke-width:6.833039;stroke-linecap:round;stroke-linejoin:round;stroke:rgb(100%,100%,100%);stroke-opacity:1;stroke-miterlimit:4;" d="M 141.293962 807.745106 L 352.738415 807.769422 L 352.826952 983.445571 L 141.26044 983.41962 Z M 141.293962 807.745106 " transform="matrix(0.0319971,-0.000428584,0.000428584,0.0319971,0,-17.67559)"/>
<path style="fill-rule:nonzero;fill:rgb(100%,40%,0%);fill-opacity:1;stroke-width:6.833039;stroke-linecap:round;stroke-linejoin:round;stroke:rgb(100%,100%,100%);stroke-opacity:1;stroke-miterlimit:4;" d="M -269.513834 827.32063 L -58.020765 827.22743 L -58.066648 1002.906689 L -269.559716 1002.999889 Z M -269.513834 827.32063 " transform="matrix(0.0285239,-0.0145048,0.0145048,0.0285239,0,-17.67559)"/>
<path style=" stroke:none;fill-rule:nonzero;fill:rgb(98.039216%,92.54902%,42.745098%);fill-opacity:1;" d="M 6.957031 10.324219 C 7.125 10.65625 6.988281 11.066406 6.648438 11.242188 C 6.3125 11.414062 5.898438 11.285156 5.726562 10.953125 C 5.558594 10.621094 5.695312 10.210938 6.03125 10.035156 C 6.371094 9.863281 6.785156 9.992188 6.957031 10.320312 "/>
<path style="fill-rule:nonzero;fill:rgb(50.196078%,20%,0%);fill-opacity:1;stroke-width:0.28471;stroke-linecap:butt;stroke-linejoin:miter;stroke:rgb(0%,0%,0%);stroke-opacity:1;stroke-miterlimit:4;" d="M 186.401367 953.729367 L 215.576172 1011.834836 L 398.55957 918.451047 L 373.657227 870.843625 C 373.657227 870.843625 352.539062 893.182492 328.735352 901.727414 C 304.931641 910.272336 256.225586 898.919797 231.933594 910.028195 C 207.641602 921.014523 186.401367 953.729367 186.401367 953.729367 Z M 186.401367 953.729367 " transform="matrix(0.032,0,0,0.032,0,-17.67559)"/>
<path style="fill:none;stroke-width:9;stroke-linecap:butt;stroke-linejoin:miter;stroke:rgb(100%,100%,100%);stroke-opacity:1;stroke-miterlimit:4;" d="M 127.929688 631.341672 L 127.929688 684.320187 L 148.193359 684.320187 C 148.193359 684.320187 163.94043 685.17468 163.452148 670.404172 C 162.841797 655.633664 149.414062 655.877805 149.414062 655.877805 L 131.225586 655.877805 L 149.169922 655.633664 C 149.169922 655.633664 160.27832 655.389523 160.15625 642.938352 C 160.03418 630.60925 144.775391 631.341672 144.775391 631.341672 Z M 127.929688 631.341672 " transform="matrix(0.032,0,0,0.032,0,-17.67559)"/>
<path style="fill:none;stroke-width:9;stroke-linecap:butt;stroke-linejoin:miter;stroke:rgb(100%,100%,100%);stroke-opacity:1;stroke-miterlimit:4;" d="M 177.001953 686.883664 L 177.368164 632.318234 L 182.373047 632.074094 L 198.242188 673.45593 L 201.538086 673.45593 L 217.529297 632.074094 L 222.77832 632.074094 L 222.77832 687.005734 " transform="matrix(0.032,0,0,0.032,0,-17.67559)"/>
<path style="fill:none;stroke-width:9.063828;stroke-linecap:butt;stroke-linejoin:miter;stroke:rgb(100%,100%,100%);stroke-opacity:1;stroke-miterlimit:4;" d="M 240.478516 687.616086 L 240.478516 631.097531 C 240.478516 631.097531 271.362305 625.116086 271.240234 645.379758 C 271.118164 665.64343 241.088867 660.150266 241.088867 660.150266 " transform="matrix(0.032,0,0,0.032,0,-17.67559)"/>
</g>
</svg>
