<?xml version="1.0" encoding="UTF-8"?>
<svg xmlns="http://www.w3.org/2000/svg" xmlns:xlink="http://www.w3.org/1999/xlink" width="16" height="16" viewBox="0 0 16 16" version="1.1">
<g id="surface1">
<path style=" stroke:none;fill-rule:evenodd;fill:rgb(0%,54.509804%,74.509804%);fill-opacity:1;" d="M 2.015625 4.921875 L 3.71875 6.589844 L 3.667969 4.253906 L 2.015625 4.246094 Z M 2.015625 4.921875 "/>
<path style="fill-rule:evenodd;fill:rgb(94.901961%,94.901961%,94.901961%);fill-opacity:1;stroke-width:5.03546;stroke-linecap:butt;stroke-linejoin:miter;stroke:rgb(68.627451%,68.627451%,68.627451%);stroke-opacity:1;stroke-miterlimit:4;" d="M 97.045898 1029.779172 L 433.959961 1028.680539 L 435.058594 664.788937 L 347.045898 575.555539 L 97.045898 575.555539 Z M 97.045898 1029.779172 " transform="matrix(0.032,0,0,0.032,0,-17.67559)"/>
<path style="fill-rule:evenodd;fill:rgb(68.627451%,68.627451%,68.627451%);fill-opacity:1;stroke-width:5.03546;stroke-linecap:butt;stroke-linejoin:miter;stroke:rgb(68.627451%,68.627451%,68.627451%);stroke-opacity:1;stroke-miterlimit:4;" d="M 431.518555 662.957883 L 349.365234 662.347531 L 350.097656 578.607297 Z M 431.518555 662.957883 " transform="matrix(0.032,0,0,0.032,0,-17.67559)"/>
<path style=" stroke:none;fill-rule:nonzero;fill:rgb(0%,73.333333%,94.901961%);fill-opacity:1;" d="M 2.019531 2.234375 L 9.304688 2.234375 L 9.304688 4.933594 L 2.019531 4.933594 Z M 2.019531 2.234375 "/>
<path style="fill:none;stroke-width:9;stroke-linecap:butt;stroke-linejoin:miter;stroke:rgb(100%,100%,100%);stroke-opacity:1;stroke-miterlimit:4;" d="M 133.39818 354.198094 L 133.276109 304.637547 " transform="matrix(0.032,0,0,0.032,0.504696,-6.799183)"/>
<path style=" stroke:none;fill-rule:nonzero;fill:rgb(100%,100%,100%);fill-opacity:1;" d="M 4.632812 2.542969 L 4.917969 2.542969 L 4.917969 2.820312 L 4.632812 2.820312 Z M 4.632812 2.542969 "/>
<path style="fill-rule:nonzero;fill:rgb(100%,40%,0%);fill-opacity:1;stroke-width:6.211854;stroke-linecap:round;stroke-linejoin:round;stroke:rgb(100%,100%,100%);stroke-opacity:1;stroke-miterlimit:4;" d="M 149.016358 832.753125 L 341.294217 832.764877 L 341.230751 992.446342 L 148.952892 992.43459 Z M 149.016358 832.753125 " transform="matrix(0.0319971,-0.000428584,0.000428584,0.0319971,0,-17.67559)"/>
<path style="fill-rule:nonzero;fill:rgb(0%,73.333333%,94.901961%);fill-opacity:1;stroke-width:6.211854;stroke-linecap:round;stroke-linejoin:round;stroke:rgb(100%,100%,100%);stroke-opacity:1;stroke-miterlimit:4;" d="M -270.10098 849.481314 L -77.825168 849.476058 L -77.708273 1009.21533 L -269.984085 1009.220586 Z M -270.10098 849.481314 " transform="matrix(0.0285239,-0.0145048,0.0145048,0.0285239,0,-17.67559)"/>
<path style=" stroke:none;fill-rule:nonzero;fill:rgb(100%,100%,100%);fill-opacity:1;" d="M 9.726562 12.34375 C 9.351562 12.433594 9.011719 12.515625 8.972656 12.523438 L 8.902344 12.539062 L 8.449219 11.558594 L 8.855469 11.371094 C 9.082031 11.269531 9.40625 11.128906 9.574219 11.054688 L 9.878906 10.921875 L 10.167969 11.542969 C 10.4375 12.125 10.453125 12.164062 10.433594 12.171875 C 10.421875 12.175781 10.105469 12.253906 9.726562 12.34375 Z M 8.234375 12.703125 L 7.769531 12.816406 L 7.398438 12.027344 L 7.832031 11.835938 C 8.070312 11.726562 8.265625 11.640625 8.265625 11.640625 C 8.269531 11.640625 8.367188 11.855469 8.484375 12.117188 L 8.703125 12.589844 Z M 7.148438 11.484375 C 7.046875 11.269531 6.964844 11.089844 6.96875 11.089844 C 6.96875 11.089844 7.140625 10.964844 7.347656 10.8125 C 7.554688 10.660156 7.734375 10.535156 7.742188 10.53125 C 7.75 10.527344 7.796875 10.617188 7.972656 10.996094 L 8.1875 11.464844 L 7.96875 11.578125 C 7.84375 11.636719 7.652344 11.730469 7.539062 11.785156 L 7.328125 11.878906 Z M 8.140625 10.898438 L 7.914062 10.402344 L 8.542969 9.945312 C 8.886719 9.695312 9.179688 9.484375 9.1875 9.476562 C 9.203125 9.460938 9.222656 9.496094 9.496094 10.089844 L 9.785156 10.71875 L 9.410156 10.890625 C 9.203125 10.988281 8.882812 11.140625 8.703125 11.226562 L 8.371094 11.390625 Z M 8.140625 10.898438 "/>
<path style="fill:none;stroke-width:9;stroke-linecap:butt;stroke-linejoin:miter;stroke:rgb(100%,100%,100%);stroke-opacity:1;stroke-miterlimit:4;" d="M 213.012695 642.083859 C 213.012695 642.083859 205.444336 635.247922 191.52832 636.346555 C 177.612305 637.445187 169.799805 653.314328 170.532227 665.277219 C 171.264648 677.240109 181.762695 691.522336 195.3125 690.423703 C 208.984375 689.203 213.012695 684.442258 213.012695 684.442258 " transform="matrix(0.032,0,0,0.032,0,-17.67559)"/>
<path style="fill:none;stroke-width:9;stroke-linecap:butt;stroke-linejoin:miter;stroke:rgb(100%,100%,100%);stroke-opacity:1;stroke-miterlimit:4;" d="M 247.924805 690.667844 C 235.961914 690.667844 224.609375 678.582883 224.487305 663.202023 C 224.487305 647.943234 236.572266 635.614133 248.657227 635.980344 C 260.864258 636.346555 271.362305 647.943234 271.606445 664.178586 C 271.850586 680.536008 260.009766 690.789914 247.924805 690.667844 Z M 247.924805 690.667844 " transform="matrix(0.032,0,0,0.032,0,-17.67559)"/>
</g>
</svg>
