<?xml version="1.0" encoding="UTF-8"?>
<svg xmlns="http://www.w3.org/2000/svg" xmlns:xlink="http://www.w3.org/1999/xlink" width="16" height="16" viewBox="0 0 16 16" version="1.1">
<g id="surface1">
<path style=" stroke:none;fill-rule:evenodd;fill:rgb(20%,20%,20%);fill-opacity:1;" d="M 2.015625 4.921875 L 3.71875 6.589844 L 3.667969 4.253906 L 2.015625 4.246094 Z M 2.015625 4.921875 "/>
<path style="fill-rule:evenodd;fill:rgb(94.901961%,94.901961%,94.901961%);fill-opacity:1;stroke-width:5.03546;stroke-linecap:butt;stroke-linejoin:miter;stroke:rgb(68.627451%,68.627451%,68.627451%);stroke-opacity:1;stroke-miterlimit:4;" d="M 97.045898 1029.779172 L 433.959961 1028.680539 L 435.058594 664.788937 L 347.045898 575.555539 L 97.045898 575.555539 Z M 97.045898 1029.779172 " transform="matrix(0.032,0,0,0.032,0,-17.67559)"/>
<path style="fill-rule:evenodd;fill:rgb(68.627451%,68.627451%,68.627451%);fill-opacity:1;stroke-width:5.03546;stroke-linecap:butt;stroke-linejoin:miter;stroke:rgb(68.627451%,68.627451%,68.627451%);stroke-opacity:1;stroke-miterlimit:4;" d="M 431.518555 662.957883 L 349.365234 662.347531 L 350.097656 578.607297 Z M 431.518555 662.957883 " transform="matrix(0.032,0,0,0.032,0,-17.67559)"/>
<path style=" stroke:none;fill-rule:nonzero;fill:rgb(30.196078%,30.196078%,30.196078%);fill-opacity:1;" d="M 2.019531 2.234375 L 9.21875 2.234375 L 9.21875 4.933594 L 2.019531 4.933594 Z M 2.019531 2.234375 "/>
<path style=" stroke:none;fill-rule:nonzero;fill:rgb(40%,40%,40%);fill-opacity:1;" d="M 3.710938 10.515625 L 13.222656 10.515625 L 13.222656 10.90625 L 3.710938 10.90625 Z M 3.710938 10.515625 "/>
<path style=" stroke:none;fill-rule:nonzero;fill:rgb(40%,40%,40%);fill-opacity:1;" d="M 3.746094 12.199219 L 13.273438 12.199219 L 13.273438 12.589844 L 3.746094 12.589844 Z M 3.746094 12.199219 "/>
<path style=" stroke:none;fill-rule:nonzero;fill:rgb(40%,40%,40%);fill-opacity:1;" d="M 3.746094 13.933594 L 10.269531 13.933594 L 10.269531 14.324219 L 3.746094 14.324219 Z M 3.746094 13.933594 "/>
<path style=" stroke:none;fill-rule:nonzero;fill:rgb(40%,40%,40%);fill-opacity:1;" d="M 3.648438 7.167969 L 13.160156 7.167969 L 13.160156 7.558594 L 3.648438 7.558594 Z M 3.648438 7.167969 "/>
<path style=" stroke:none;fill-rule:nonzero;fill:rgb(40%,40%,40%);fill-opacity:1;" d="M 3.683594 8.851562 L 13.210938 8.851562 L 13.210938 9.242188 L 3.683594 9.242188 Z M 3.683594 8.851562 "/>
</g>
</svg>
