<?xml version="1.0" encoding="UTF-8"?>
<svg xmlns="http://www.w3.org/2000/svg" xmlns:xlink="http://www.w3.org/1999/xlink" width="16" height="16" viewBox="0 0 16 16" version="1.1">
<g id="surface1">
<path style=" stroke:none;fill-rule:evenodd;fill:rgb(78.431373%,6.666667%,0%);fill-opacity:1;" d="M 2.015625 4.921875 L 3.71875 6.589844 L 3.667969 4.253906 L 2.015625 4.246094 Z M 2.015625 4.921875 "/>
<path style="fill-rule:evenodd;fill:rgb(94.901961%,94.901961%,94.901961%);fill-opacity:1;stroke-width:5.03546;stroke-linecap:butt;stroke-linejoin:miter;stroke:rgb(68.627451%,68.627451%,68.627451%);stroke-opacity:1;stroke-miterlimit:4;" d="M 97.045898 1029.779172 L 433.959961 1028.680539 L 435.058594 664.788937 L 347.045898 575.555539 L 97.045898 575.555539 Z M 97.045898 1029.779172 " transform="matrix(0.032,0,0,0.032,0,-17.67559)"/>
<path style="fill-rule:evenodd;fill:rgb(68.627451%,68.627451%,68.627451%);fill-opacity:1;stroke-width:5.03546;stroke-linecap:butt;stroke-linejoin:miter;stroke:rgb(68.627451%,68.627451%,68.627451%);stroke-opacity:1;stroke-miterlimit:4;" d="M 431.518555 662.957883 L 349.365234 662.347531 L 350.097656 578.607297 Z M 431.518555 662.957883 " transform="matrix(0.032,0,0,0.032,0,-17.67559)"/>
<path style=" stroke:none;fill-rule:nonzero;fill:rgb(94.117647%,22.352941%,8.627451%);fill-opacity:1;" d="M 2.019531 2.234375 L 9.21875 2.234375 L 9.21875 4.933594 L 2.019531 4.933594 Z M 2.019531 2.234375 "/>
<path style=" stroke:none;fill-rule:evenodd;fill:rgb(100%,40%,0%);fill-opacity:1;" d="M 6.542969 7.21875 L 8.722656 11.214844 L 6.542969 15.214844 L 7.632812 15.214844 L 9.265625 12.214844 L 10.902344 15.214844 L 11.992188 15.214844 L 10.246094 12.015625 L 10.011719 11.578125 L 9.8125 11.214844 L 7.632812 7.21875 Z M 6.542969 7.21875 "/>
<path style=" stroke:none;fill-rule:evenodd;fill:rgb(100%,80%,0%);fill-opacity:1;" d="M 9.675781 9.664062 L 10.070312 10.390625 L 11.722656 10.390625 L 11.722656 9.664062 Z M 10.46875 11.117188 L 10.863281 11.84375 L 11.722656 11.84375 L 11.722656 11.117188 Z M 10.46875 11.117188 "/>
<path style=" stroke:none;fill-rule:evenodd;fill:rgb(94.117647%,22.352941%,8.627451%);fill-opacity:1;" d="M 4.691406 7.222656 L 6.871094 11.21875 L 4.691406 15.21875 L 5.78125 15.21875 L 7.960938 11.21875 L 5.78125 7.222656 Z M 4.691406 7.222656 "/>
<path style="fill:none;stroke-width:9;stroke-linecap:butt;stroke-linejoin:miter;stroke:rgb(100%,100%,100%);stroke-opacity:1;stroke-miterlimit:4;" d="M 311.214391 528.390879 L 311.458531 582.956309 " transform="matrix(0.032,0,0,0.032,-5.935423,-14.275696)"/>
<path style="fill:none;stroke-width:9;stroke-linecap:butt;stroke-linejoin:miter;stroke:rgb(100%,100%,100%);stroke-opacity:1;stroke-miterlimit:4;" d="M 346.24857 528.024668 L 346.614781 582.468027 " transform="matrix(0.032,0,0,0.032,-5.935423,-14.275696)"/>
<path style="fill:none;stroke-width:9;stroke-linecap:butt;stroke-linejoin:miter;stroke:rgb(100%,100%,100%);stroke-opacity:1;stroke-miterlimit:4;" d="M 310.84818 555.002207 L 347.469273 555.002207 " transform="matrix(0.032,0,0,0.032,-5.935423,-14.275696)"/>
<path style="fill:none;stroke-width:10;stroke-linecap:butt;stroke-linejoin:miter;stroke:rgb(100%,100%,100%);stroke-opacity:1;stroke-miterlimit:4;" d="M 215.209961 638.055539 C 215.209961 638.055539 205.932617 633.783078 197.143555 633.661008 C 188.354492 633.661008 182.861328 638.910031 182.495117 646.478391 C 182.250977 654.04675 186.523438 660.150266 201.660156 661.98132 C 216.796875 663.812375 215.942383 676.995969 213.989258 681.634641 C 212.158203 686.273312 203.369141 690.667844 194.335938 689.569211 C 185.424805 688.348508 177.856445 684.198117 177.856445 684.198117 " transform="matrix(0.032,0,0,0.032,0,-17.67559)"/>
</g>
</svg>
