<?xml version="1.0" encoding="UTF-8"?>
<svg xmlns="http://www.w3.org/2000/svg" xmlns:xlink="http://www.w3.org/1999/xlink" width="16" height="16" viewBox="0 0 16 16" version="1.1">
<g id="surface1">
<path style=" stroke:none;fill-rule:evenodd;fill:rgb(0%,0%,0%);fill-opacity:1;" d="M 2.023438 4.941406 L 3.726562 6.609375 L 3.671875 4.273438 L 2.019531 4.265625 Z M 2.023438 4.941406 "/>
<path style="fill-rule:evenodd;fill:rgb(94.901961%,94.901961%,94.901961%);fill-opacity:1;stroke-width:5.03546;stroke-linecap:butt;stroke-linejoin:miter;stroke:rgb(68.627451%,68.627451%,68.627451%);stroke-opacity:1;stroke-miterlimit:4;" d="M 96.923828 1029.779172 L 433.837891 1028.680539 L 434.936523 664.788937 L 346.923828 575.555539 L 96.923828 575.555539 Z M 96.923828 1029.779172 " transform="matrix(0.032,0,0,0.032,0,-17.67559)"/>
<path style="fill-rule:evenodd;fill:rgb(68.627451%,68.627451%,68.627451%);fill-opacity:1;stroke-width:5.03546;stroke-linecap:butt;stroke-linejoin:miter;stroke:rgb(68.627451%,68.627451%,68.627451%);stroke-opacity:1;stroke-miterlimit:4;" d="M 431.396484 662.957883 L 349.243164 662.347531 L 349.975586 578.607297 Z M 431.396484 662.957883 " transform="matrix(0.032,0,0,0.032,0,-17.67559)"/>
<path style=" stroke:none;fill-rule:nonzero;fill:rgb(10.196078%,10.196078%,10.196078%);fill-opacity:1;" d="M 2.015625 2.234375 L 9.371094 2.234375 L 9.371094 4.933594 L 2.015625 4.933594 Z M 2.015625 2.234375 "/>
<path style=" stroke:none;fill-rule:nonzero;fill:rgb(100%,100%,100%);fill-opacity:1;" d="M 11.8125 13.429688 C 11.65625 13.398438 11.492188 13.375 11.328125 13.375 C 11.042969 13.375 10.789062 13.421875 10.597656 13.5 C 10.578125 13.511719 10.5625 13.535156 10.5625 13.558594 C 10.5625 13.570312 10.5625 13.578125 10.566406 13.585938 C 10.589844 13.648438 10.554688 13.71875 10.367188 13.761719 C 10.097656 13.820312 9.925781 14.101562 9.828125 14.195312 C 9.710938 14.304688 9.382812 14.371094 9.433594 14.304688 C 9.472656 14.257812 9.617188 14.097656 9.707031 13.925781 C 9.789062 13.769531 9.859375 13.726562 9.957031 13.578125 C 9.984375 13.535156 10.097656 13.382812 10.128906 13.265625 C 10.167969 13.148438 10.152344 13 10.167969 12.941406 C 10.1875 12.851562 10.269531 12.664062 10.277344 12.558594 C 10.28125 12.496094 10.023438 12.644531 9.902344 12.644531 C 9.78125 12.644531 9.664062 12.570312 9.554688 12.566406 C 9.421875 12.558594 9.335938 12.667969 9.210938 12.648438 C 9.144531 12.640625 9.085938 12.578125 8.964844 12.574219 C 8.792969 12.566406 8.582031 12.667969 8.183594 12.65625 C 7.796875 12.644531 7.4375 12.164062 7.386719 12.089844 C 7.328125 12 7.257812 12 7.183594 12.070312 C 7.105469 12.140625 7.011719 12.085938 6.984375 12.039062 C 6.933594 11.949219 6.796875 11.6875 6.585938 11.632812 C 6.292969 11.554688 6.144531 11.792969 6.164062 11.984375 C 6.183594 12.175781 6.308594 12.230469 6.363281 12.332031 C 6.421875 12.433594 6.453125 12.5 6.558594 12.542969 C 6.636719 12.578125 6.664062 12.625 6.640625 12.6875 C 6.621094 12.742188 6.542969 12.753906 6.488281 12.757812 C 6.378906 12.761719 6.300781 12.730469 6.242188 12.695312 C 6.175781 12.652344 6.121094 12.59375 6.066406 12.496094 C 6 12.382812 5.890625 12.335938 5.769531 12.335938 C 5.710938 12.335938 5.65625 12.351562 5.609375 12.375 C 5.414062 12.476562 5.1875 12.535156 4.941406 12.535156 L 4.660156 12.539062 C 5.195312 14.117188 6.691406 15.257812 8.453125 15.257812 C 9.859375 15.257812 11.097656 14.53125 11.8125 13.429688 "/>
<path style=" stroke:none;fill-rule:nonzero;fill:rgb(0%,0%,0%);fill-opacity:1;" d="M 11.8125 13.433594 C 11.65625 13.398438 11.492188 13.375 11.328125 13.375 C 11.042969 13.375 10.789062 13.421875 10.597656 13.503906 C 10.578125 13.511719 10.5625 13.535156 10.5625 13.558594 C 10.5625 13.570312 10.5625 13.578125 10.566406 13.585938 C 10.589844 13.648438 10.554688 13.722656 10.367188 13.761719 C 10.097656 13.820312 9.925781 14.101562 9.828125 14.195312 C 9.710938 14.304688 9.382812 14.371094 9.433594 14.308594 C 9.472656 14.257812 9.617188 14.097656 9.707031 13.925781 C 9.789062 13.769531 9.859375 13.726562 9.957031 13.578125 C 9.984375 13.535156 10.097656 13.382812 10.128906 13.265625 C 10.167969 13.148438 10.152344 13 10.167969 12.941406 C 10.1875 12.855469 10.269531 12.664062 10.277344 12.558594 C 10.28125 12.496094 10.023438 12.644531 9.902344 12.644531 C 9.78125 12.644531 9.664062 12.570312 9.554688 12.566406 C 9.421875 12.558594 9.335938 12.667969 9.210938 12.648438 C 9.144531 12.640625 9.085938 12.578125 8.964844 12.574219 C 8.792969 12.566406 8.582031 12.667969 8.183594 12.65625 C 7.796875 12.644531 7.4375 12.164062 7.386719 12.089844 C 7.328125 12 7.257812 12 7.183594 12.070312 C 7.105469 12.140625 7.011719 12.085938 6.984375 12.039062 C 6.933594 11.949219 6.796875 11.6875 6.585938 11.632812 C 6.292969 11.554688 6.144531 11.792969 6.164062 11.984375 C 6.183594 12.175781 6.308594 12.230469 6.363281 12.332031 C 6.421875 12.433594 6.453125 12.5 6.558594 12.542969 C 6.636719 12.578125 6.664062 12.625 6.640625 12.6875 C 6.621094 12.742188 6.542969 12.753906 6.488281 12.757812 C 6.378906 12.761719 6.300781 12.730469 6.242188 12.695312 C 6.175781 12.652344 6.121094 12.59375 6.066406 12.496094 C 6 12.382812 5.890625 12.335938 5.769531 12.335938 C 5.710938 12.335938 5.65625 12.351562 5.609375 12.375 C 5.414062 12.476562 5.1875 12.539062 4.941406 12.539062 L 4.660156 12.539062 C 4.527344 12.136719 4.453125 11.707031 4.453125 11.257812 C 4.453125 9.050781 6.242188 7.261719 8.453125 7.261719 C 10.664062 7.261719 12.453125 9.050781 12.453125 11.257812 C 12.453125 12.058594 12.21875 12.804688 11.8125 13.433594 "/>
<path style=" stroke:none;fill-rule:nonzero;fill:rgb(0%,0%,0%);fill-opacity:1;" d="M 9.335938 13.066406 C 9.355469 13.085938 9.390625 13.152344 9.347656 13.238281 C 9.320312 13.285156 9.296875 13.316406 9.25 13.351562 C 9.191406 13.398438 9.082031 13.449219 8.933594 13.355469 C 8.851562 13.304688 8.847656 13.285156 8.734375 13.300781 C 8.652344 13.3125 8.621094 13.230469 8.652344 13.164062 C 8.679688 13.097656 8.796875 13.042969 8.945312 13.128906 C 9.011719 13.167969 9.113281 13.25 9.203125 13.175781 C 9.242188 13.148438 9.265625 13.125 9.316406 13.066406 C 9.320312 13.0625 9.320312 13.0625 9.324219 13.0625 C 9.328125 13.0625 9.332031 13.0625 9.335938 13.066406 "/>
<path style=" stroke:none;fill-rule:nonzero;fill:rgb(94.117647%,22.352941%,8.627451%);fill-opacity:1;" d="M 8.140625 9.164062 C 7.679688 9.199219 7.632812 9.246094 7.546875 9.339844 C 7.421875 9.46875 7.261719 9.171875 7.261719 9.171875 C 7.164062 9.152344 7.046875 8.996094 7.113281 8.851562 C 7.175781 8.707031 7.289062 8.75 7.324219 8.792969 C 7.367188 8.851562 7.460938 8.9375 7.582031 8.933594 C 7.703125 8.933594 7.84375 8.90625 8.039062 8.90625 C 8.238281 8.90625 8.371094 8.980469 8.378906 9.042969 C 8.382812 9.097656 8.363281 9.148438 8.140625 9.164062 M 8.625 8.402344 C 8.617188 8.402344 8.613281 8.398438 8.613281 8.390625 C 8.613281 8.386719 8.617188 8.382812 8.621094 8.378906 C 8.710938 8.332031 8.84375 8.292969 8.996094 8.277344 C 9.042969 8.273438 9.085938 8.269531 9.128906 8.269531 L 9.152344 8.269531 C 9.410156 8.277344 9.613281 8.378906 9.609375 8.5 C 9.609375 8.617188 9.398438 8.710938 9.140625 8.703125 C 9.058594 8.703125 8.980469 8.691406 8.914062 8.671875 C 8.90625 8.667969 8.898438 8.664062 8.898438 8.65625 C 8.898438 8.648438 8.90625 8.640625 8.914062 8.636719 C 9.074219 8.601562 9.179688 8.539062 9.171875 8.484375 C 9.164062 8.40625 8.953125 8.367188 8.707031 8.390625 C 8.679688 8.394531 8.652344 8.398438 8.625 8.402344 M 10.710938 10.195312 C 10.671875 10.328125 10.613281 10.496094 10.363281 10.625 C 10.328125 10.644531 10.3125 10.613281 10.332031 10.585938 C 10.425781 10.425781 10.441406 10.382812 10.46875 10.320312 C 10.507812 10.226562 10.527344 10.097656 10.453125 9.820312 C 10.300781 9.28125 9.988281 8.558594 9.757812 8.324219 C 9.539062 8.097656 9.140625 8.03125 8.78125 8.125 C 8.648438 8.160156 8.386719 8.292969 7.90625 8.1875 C 7.070312 8 6.949219 8.414062 6.902344 8.597656 C 6.851562 8.777344 6.738281 9.296875 6.738281 9.296875 C 6.699219 9.507812 6.648438 9.871094 7.945312 10.117188 C 8.546875 10.234375 8.578125 10.390625 8.605469 10.5 C 8.652344 10.703125 8.726562 10.816406 8.816406 10.875 C 8.902344 10.929688 8.816406 10.980469 8.71875 10.988281 C 8.460938 11.015625 7.511719 10.742188 6.953125 10.425781 C 6.492188 10.144531 6.484375 9.890625 6.589844 9.675781 C 5.894531 9.601562 5.375 9.742188 5.28125 10.070312 C 5.117188 10.632812 6.519531 11.597656 8.117188 12.078125 C 9.792969 12.585938 11.515625 12.234375 11.707031 11.179688 C 11.792969 10.703125 11.390625 10.347656 10.710938 10.195312 "/>
<path style="fill:none;stroke-width:10;stroke-linecap:butt;stroke-linejoin:miter;stroke:rgb(100%,100%,100%);stroke-opacity:1;stroke-miterlimit:4;" d="M 128.051758 640.619016 C 128.051758 640.619016 118.774414 636.346555 109.985352 636.224484 C 101.196289 636.102414 95.703125 641.473508 95.458984 649.041867 C 95.214844 656.610227 99.365234 662.713742 114.501953 664.544797 C 129.760742 666.253781 128.78418 679.437375 126.953125 684.198117 C 125.12207 688.836789 116.210938 693.23132 107.299805 692.010617 C 98.266602 690.789914 90.820312 686.761594 90.820312 686.761594 " transform="matrix(0.032,0,0,0.032,0,-17.67559)"/>
<path style="fill:none;stroke-width:9.063828;stroke-linecap:butt;stroke-linejoin:miter;stroke:rgb(100%,100%,100%);stroke-opacity:1;stroke-miterlimit:4;" d="M 143.188477 692.743039 L 143.188477 636.346555 C 143.188477 636.346555 173.950195 630.365109 173.828125 650.628781 C 173.828125 670.892453 143.798828 665.399289 143.798828 665.399289 " transform="matrix(0.032,0,0,0.032,0,-17.67559)"/>
<path style="fill:none;stroke-width:9;stroke-linecap:butt;stroke-linejoin:miter;stroke:rgb(100%,100%,100%);stroke-opacity:1;stroke-miterlimit:4;" d="M 380.185859 670.713348 L 346.250312 670.347137 L 346.616523 618.589324 L 381.040352 618.711395 " transform="matrix(0.032,0,0,0.032,-5.037041,-17.048765)"/>
<path style="fill:none;stroke-width:9;stroke-linecap:butt;stroke-linejoin:miter;stroke:rgb(100%,100%,100%);stroke-opacity:1;stroke-miterlimit:4;" d="M 348.935859 642.393035 L 378.110664 642.515105 " transform="matrix(0.032,0,0,0.032,-5.037041,-17.048765)"/>
<path style="fill:none;stroke-width:9;stroke-linecap:butt;stroke-linejoin:miter;stroke:rgb(100%,100%,100%);stroke-opacity:1;stroke-miterlimit:4;" d="M 277.099609 644.159055 C 277.099609 644.159055 269.53125 637.323117 255.615234 638.42175 C 241.699219 639.520383 233.764648 655.267453 234.49707 667.352414 C 235.229492 679.315305 245.849609 693.597531 259.399414 692.376828 C 272.949219 691.278195 277.099609 686.517453 277.099609 686.517453 " transform="matrix(0.032,0,0,0.032,0,-17.67559)"/>
</g>
</svg>
