<?xml version="1.0" encoding="UTF-8"?>
<svg xmlns="http://www.w3.org/2000/svg" xmlns:xlink="http://www.w3.org/1999/xlink" width="16" height="16" viewBox="0 0 16 16" version="1.1">
<g id="surface1">
<path style=" stroke:none;fill-rule:evenodd;fill:rgb(0%,56.078431%,81.176471%);fill-opacity:1;" d="M 2.015625 4.921875 L 3.71875 6.589844 L 3.667969 4.253906 L 2.015625 4.246094 Z M 2.015625 4.921875 "/>
<path style="fill-rule:evenodd;fill:rgb(94.901961%,94.901961%,94.901961%);fill-opacity:1;stroke-width:5.03546;stroke-linecap:butt;stroke-linejoin:miter;stroke:rgb(68.627451%,68.627451%,68.627451%);stroke-opacity:1;stroke-miterlimit:4;" d="M 97.045898 1029.779172 L 433.959961 1028.680539 L 435.058594 664.788937 L 347.045898 575.555539 L 97.045898 575.555539 Z M 97.045898 1029.779172 " transform="matrix(0.032,0,0,0.032,0,-17.67559)"/>
<path style="fill-rule:evenodd;fill:rgb(68.627451%,68.627451%,68.627451%);fill-opacity:1;stroke-width:5.03546;stroke-linecap:butt;stroke-linejoin:miter;stroke:rgb(68.627451%,68.627451%,68.627451%);stroke-opacity:1;stroke-miterlimit:4;" d="M 431.518555 662.957883 L 349.365234 662.347531 L 350.097656 578.607297 Z M 431.518555 662.957883 " transform="matrix(0.032,0,0,0.032,0,-17.67559)"/>
<path style=" stroke:none;fill-rule:nonzero;fill:rgb(0%,73.333333%,94.901961%);fill-opacity:1;" d="M 2.019531 2.234375 L 10.839844 2.234375 L 10.839844 4.933594 L 2.019531 4.933594 Z M 2.019531 2.234375 "/>
<path style=" stroke:none;fill-rule:nonzero;fill:rgb(0%,73.333333%,94.901961%);fill-opacity:1;" d="M 10.0625 11.816406 C 10.804688 10.992188 11.324219 10.390625 11.3125 10.375 C 11.296875 10.363281 10.980469 10.347656 10.605469 10.34375 L 9.925781 10.335938 L 9.910156 8.859375 L 9.898438 7.382812 L 7.585938 7.382812 L 7.570312 8.859375 L 7.558594 10.335938 L 6.859375 10.351562 C 6.410156 10.359375 6.164062 10.375 6.164062 10.390625 C 6.164062 10.449219 8.699219 13.242188 8.742188 13.238281 C 8.765625 13.234375 9.359375 12.59375 10.0625 11.816406 Z M 10.0625 11.816406 "/>
<path style=" stroke:none;fill-rule:nonzero;fill:rgb(0%,73.333333%,94.901961%);fill-opacity:1;" d="M 4.695312 12.230469 L 6.074219 12.230469 L 6.074219 13.609375 L 11.316406 13.609375 L 11.316406 12.230469 L 12.695312 12.230469 L 12.695312 14.988281 L 4.695312 14.988281 Z M 4.695312 12.230469 "/>
<path style="fill:none;stroke-width:9;stroke-linecap:butt;stroke-linejoin:miter;stroke:rgb(100%,100%,100%);stroke-opacity:1;stroke-miterlimit:4;" d="M 133.397498 354.206658 L 133.257419 304.618603 " transform="matrix(0.027886,0,0,0.027886,-1.126173,-5.432094)"/>
<path style=" stroke:none;fill-rule:nonzero;fill:rgb(100%,100%,100%);fill-opacity:1;" d="M 2.472656 2.707031 L 2.71875 2.707031 L 2.71875 2.949219 L 2.472656 2.949219 Z M 2.472656 2.707031 "/>
<path style="fill:none;stroke-width:7.842927;stroke-linecap:butt;stroke-linejoin:bevel;stroke:rgb(100%,100%,100%);stroke-opacity:1;stroke-miterlimit:4;" d="M 93.383789 691.034055 L 93.139648 637.933469 L 129.760742 690.301633 L 129.760742 637.201047 " transform="matrix(0.032,0,0,0.032,0,-17.67559)"/>
<path style="fill:none;stroke-width:8.714363;stroke-linecap:butt;stroke-linejoin:miter;stroke:rgb(100%,100%,100%);stroke-opacity:1;stroke-miterlimit:4;" d="M 171.875 645.501828 C 171.875 645.501828 163.696289 641.839719 156.12793 641.717648 C 148.4375 641.595578 143.676758 646.23425 143.310547 652.948117 C 143.066406 659.539914 146.850586 664.788937 160.03418 666.375852 C 173.217773 667.962766 172.363281 679.437375 170.776367 683.465695 C 169.189453 687.616086 161.499023 691.400266 153.686523 690.423703 C 145.874023 689.32507 139.282227 685.785031 139.282227 685.785031 " transform="matrix(0.032,0,0,0.032,0,-17.67559)"/>
<path style="fill:none;stroke-width:9;stroke-linecap:butt;stroke-linejoin:miter;stroke:rgb(100%,100%,100%);stroke-opacity:1;stroke-miterlimit:4;" d="M 122.763811 699.559743 L 122.763811 642.267329 " transform="matrix(0.027886,0,0,0.027886,2.986765,-15.03136)"/>
<path style="fill:none;stroke-width:8.670217;stroke-linecap:butt;stroke-linejoin:miter;stroke:rgb(100%,100%,100%);stroke-opacity:1;stroke-miterlimit:4;" d="M 96.288832 642.687567 L 149.378868 642.687567 " transform="matrix(0.027886,0,0,0.027886,2.986765,-15.03136)"/>
<path style="fill:none;stroke-width:9;stroke-linecap:butt;stroke-linejoin:bevel;stroke:rgb(100%,100%,100%);stroke-opacity:1;stroke-miterlimit:4;" d="M 915.732051 696.224382 L 937.847821 637.944461 L 960.519963 696.224382 " transform="matrix(0.0280838,0,0,0.0280838,-18.74844,-15.111185)"/>
<path style="fill:none;stroke-width:9;stroke-linecap:butt;stroke-linejoin:miter;stroke:rgb(100%,100%,100%);stroke-opacity:1;stroke-miterlimit:4;" d="M 924.633997 676.751378 L 950.366182 676.751378 " transform="matrix(0.0280838,0,0,0.0280838,-18.74844,-15.111185)"/>
<path style="fill:none;stroke-width:7.842927;stroke-linecap:butt;stroke-linejoin:miter;stroke:rgb(100%,100%,100%);stroke-opacity:1;stroke-miterlimit:4;" d="M 267.578125 639.764523 L 267.822266 687.249875 L 295.532227 687.616086 " transform="matrix(0.032,0,0,0.032,0,-17.67559)"/>
<path style="fill:none;stroke-width:7.842927;stroke-linecap:butt;stroke-linejoin:miter;stroke:rgb(100%,100%,100%);stroke-opacity:1;stroke-miterlimit:4;" d="M 302.612305 640.863156 L 302.856445 688.348508 L 330.566406 688.592648 " transform="matrix(0.032,0,0,0.032,0,-17.67559)"/>
</g>
</svg>
