<?xml version="1.0" encoding="UTF-8"?>
<svg xmlns="http://www.w3.org/2000/svg" xmlns:xlink="http://www.w3.org/1999/xlink" width="16" height="16" viewBox="0 0 16 16" version="1.1">
<g id="surface1">
<path style=" stroke:none;fill-rule:evenodd;fill:rgb(0%,52.941176%,73.72549%);fill-opacity:1;" d="M 2.023438 4.941406 L 3.726562 6.609375 L 3.671875 4.273438 L 2.019531 4.265625 Z M 2.023438 4.941406 "/>
<path style="fill-rule:evenodd;fill:rgb(94.901961%,94.901961%,94.901961%);fill-opacity:1;stroke-width:5.03546;stroke-linecap:butt;stroke-linejoin:miter;stroke:rgb(68.627451%,68.627451%,68.627451%);stroke-opacity:1;stroke-miterlimit:4;" d="M 96.923828 1029.779172 L 433.837891 1028.680539 L 434.936523 664.788937 L 346.923828 575.555539 L 96.923828 575.555539 Z M 96.923828 1029.779172 " transform="matrix(0.032,0,0,0.032,0,-17.67559)"/>
<path style="fill-rule:evenodd;fill:rgb(68.627451%,68.627451%,68.627451%);fill-opacity:1;stroke-width:5.03546;stroke-linecap:butt;stroke-linejoin:miter;stroke:rgb(68.627451%,68.627451%,68.627451%);stroke-opacity:1;stroke-miterlimit:4;" d="M 431.396484 662.957883 L 349.243164 662.347531 L 349.975586 578.607297 Z M 431.396484 662.957883 " transform="matrix(0.032,0,0,0.032,0,-17.67559)"/>
<path style=" stroke:none;fill-rule:nonzero;fill:rgb(0%,73.333333%,94.901961%);fill-opacity:1;" d="M 2.015625 2.234375 L 9.09375 2.234375 L 9.09375 4.933594 L 2.015625 4.933594 Z M 2.015625 2.234375 "/>
<path style=" stroke:none;fill-rule:nonzero;fill:rgb(97.647059%,97.647059%,97.647059%);fill-opacity:1;" d="M 7.601562 8.109375 C 7.601562 8.382812 7.378906 8.609375 7.101562 8.609375 C 6.828125 8.609375 6.605469 8.382812 6.605469 8.109375 C 6.605469 7.832031 6.828125 7.609375 7.101562 7.609375 C 7.378906 7.609375 7.601562 7.832031 7.601562 8.109375 M 7.601562 8.109375 "/>
<path style=" stroke:none;fill-rule:nonzero;fill:rgb(0%,73.333333%,94.901961%);fill-opacity:1;" d="M 8.265625 7.113281 C 7.9375 7.117188 7.625 7.144531 7.34375 7.191406 C 6.53125 7.335938 6.382812 7.632812 6.382812 8.183594 L 6.382812 8.914062 L 8.308594 8.914062 L 8.308594 9.152344 L 5.65625 9.152344 C 5.09375 9.152344 4.605469 9.488281 4.453125 10.121094 C 4.273438 10.847656 4.265625 11.300781 4.453125 12.058594 C 4.589844 12.625 4.914062 13.027344 5.476562 13.027344 L 6.042969 13.027344 L 6.042969 12.0625 C 6.042969 11.433594 6.59375 10.878906 7.25 10.878906 L 9.269531 10.878906 C 9.804688 10.878906 10.3125 10.441406 10.3125 9.910156 L 10.3125 8.1875 C 10.3125 7.671875 9.792969 7.28125 9.269531 7.195312 C 8.9375 7.140625 8.59375 7.117188 8.265625 7.117188 M 7.222656 7.699219 C 7.421875 7.699219 7.585938 7.863281 7.585938 8.066406 C 7.585938 8.265625 7.421875 8.425781 7.222656 8.425781 C 7.023438 8.425781 6.859375 8.265625 6.859375 8.066406 C 6.859375 7.863281 7.023438 7.699219 7.222656 7.699219 M 7.222656 7.699219 "/>
<path style=" stroke:none;fill-rule:nonzero;fill:rgb(97.647059%,97.647059%,97.647059%);fill-opacity:1;" d="M 9.9375 14.105469 C 9.9375 14.382812 9.714844 14.605469 9.4375 14.605469 C 9.160156 14.605469 8.9375 14.382812 8.9375 14.105469 C 8.9375 13.832031 9.160156 13.605469 9.4375 13.605469 C 9.714844 13.605469 9.9375 13.832031 9.9375 14.105469 M 9.9375 14.105469 "/>
<path style=" stroke:none;fill-rule:nonzero;fill:rgb(100%,83.137255%,16.470588%);fill-opacity:1;" d="M 10.589844 9.152344 L 10.589844 10 C 10.589844 10.65625 10.023438 11.132812 9.382812 11.132812 L 7.265625 11.132812 C 6.738281 11.132812 6.300781 11.660156 6.300781 12.179688 L 6.300781 13.996094 C 6.300781 14.515625 6.757812 14.816406 7.265625 14.964844 C 7.875 15.144531 8.542969 15.175781 9.273438 14.964844 C 9.757812 14.828125 10.238281 14.546875 10.238281 13.996094 L 10.238281 13.269531 L 8.308594 13.269531 L 8.308594 13.027344 L 11.203125 13.027344 C 11.761719 13.027344 11.972656 12.640625 12.167969 12.058594 C 12.371094 11.464844 12.359375 10.886719 12.167969 10.121094 C 12.027344 9.570312 11.765625 9.15625 11.203125 9.15625 M 9.394531 13.757812 C 9.59375 13.757812 9.757812 13.917969 9.757812 14.117188 C 9.757812 14.320312 9.59375 14.484375 9.394531 14.484375 C 9.195312 14.484375 9.03125 14.320312 9.03125 14.117188 C 9.03125 13.917969 9.195312 13.757812 9.394531 13.757812 M 9.394531 13.757812 "/>
<path style="fill:none;stroke-width:9.063828;stroke-linecap:butt;stroke-linejoin:miter;stroke:rgb(100%,100%,100%);stroke-opacity:1;stroke-miterlimit:4;" d="M 162.719727 695.916867 L 162.719727 639.520383 C 162.719727 639.520383 193.481445 633.538937 193.359375 653.802609 C 193.237305 674.066281 163.330078 668.451047 163.330078 668.451047 " transform="matrix(0.032,0,0,0.032,0,-17.67559)"/>
<path style="fill:none;stroke-width:9;stroke-linecap:butt;stroke-linejoin:miter;stroke:rgb(100%,100%,100%);stroke-opacity:1;stroke-miterlimit:4;" d="M 516.151406 313.217184 L 536.659219 342.514059 L 556.312539 313.217184 " transform="matrix(0.032,0,0,0.032,-9.934814,-7.358887)"/>
<path style="fill:none;stroke-width:9;stroke-linecap:butt;stroke-linejoin:miter;stroke:rgb(100%,100%,100%);stroke-opacity:1;stroke-miterlimit:4;" d="M 536.659219 342.391988 L 536.415078 371.200582 " transform="matrix(0.032,0,0,0.032,-9.934814,-7.358887)"/>
</g>
</svg>
