<?xml version="1.0" encoding="UTF-8"?>
<svg xmlns="http://www.w3.org/2000/svg" xmlns:xlink="http://www.w3.org/1999/xlink" width="16" height="16" viewBox="0 0 16 16" version="1.1">
<g id="surface1">
<path style=" stroke:none;fill-rule:evenodd;fill:rgb(21.176471%,63.137255%,20.784314%);fill-opacity:1;" d="M 2.015625 4.921875 L 3.71875 6.589844 L 3.667969 4.253906 L 2.015625 4.246094 Z M 2.015625 4.921875 "/>
<path style="fill-rule:evenodd;fill:rgb(94.901961%,94.901961%,94.901961%);fill-opacity:1;stroke-width:5.03546;stroke-linecap:butt;stroke-linejoin:miter;stroke:rgb(68.627451%,68.627451%,68.627451%);stroke-opacity:1;stroke-miterlimit:4;" d="M 97.045898 1029.779172 L 433.959961 1028.680539 L 435.058594 664.788937 L 347.045898 575.555539 L 97.045898 575.555539 Z M 97.045898 1029.779172 " transform="matrix(0.032,0,0,0.032,0,-17.67559)"/>
<path style="fill-rule:evenodd;fill:rgb(68.627451%,68.627451%,68.627451%);fill-opacity:1;stroke-width:5.03546;stroke-linecap:butt;stroke-linejoin:miter;stroke:rgb(68.627451%,68.627451%,68.627451%);stroke-opacity:1;stroke-miterlimit:4;" d="M 431.518555 662.957883 L 349.365234 662.347531 L 350.097656 578.607297 Z M 431.518555 662.957883 " transform="matrix(0.032,0,0,0.032,0,-17.67559)"/>
<path style=" stroke:none;fill-rule:nonzero;fill:rgb(27.058824%,81.568627%,24.705882%);fill-opacity:1;" d="M 2.019531 2.234375 L 9.21875 2.234375 L 9.21875 4.933594 L 2.019531 4.933594 Z M 2.019531 2.234375 "/>
<path style="fill:none;stroke-width:16.988342;stroke-linecap:butt;stroke-linejoin:miter;stroke:rgb(27.058824%,81.568627%,24.705882%);stroke-opacity:1;stroke-miterlimit:4;" d="M 144.775391 917.962766 C 144.775391 917.962766 148.681641 878.167844 187.5 878.778195 C 216.796875 879.266477 229.248047 905.755734 229.858398 920.404172 C 230.46875 934.930539 220.214844 962.51843 190.307617 963.739133 C 160.400391 965.081906 145.874023 943.719602 145.019531 917.718625 C 144.287109 891.839719 145.019531 874.139523 145.019531 874.139523 L 143.676758 1029.412961 " transform="matrix(0.032,0,0,0.032,0,-17.67559)"/>
<path style="fill:none;stroke-width:9.063828;stroke-linecap:butt;stroke-linejoin:miter;stroke:rgb(100%,100%,100%);stroke-opacity:1;stroke-miterlimit:4;" d="M 137.329102 694.574094 L 137.329102 638.055539 C 137.329102 638.055539 168.09082 632.196164 168.09082 652.459836 C 167.96875 672.723508 137.939453 667.108273 137.939453 667.108273 " transform="matrix(0.032,0,0,0.032,0,-17.67559)"/>
</g>
</svg>
