<?xml version="1.0" encoding="UTF-8"?>
<svg xmlns="http://www.w3.org/2000/svg" xmlns:xlink="http://www.w3.org/1999/xlink" width="16" height="16" viewBox="0 0 16 16" version="1.1">
<g id="surface1">
<path style=" stroke:none;fill-rule:evenodd;fill:rgb(20%,20%,20%);fill-opacity:1;" d="M 2.015625 4.921875 L 3.71875 6.589844 L 3.667969 4.253906 L 2.015625 4.246094 Z M 2.015625 4.921875 "/>
<path style="fill-rule:evenodd;fill:rgb(94.901961%,94.901961%,94.901961%);fill-opacity:1;stroke-width:5.03546;stroke-linecap:butt;stroke-linejoin:miter;stroke:rgb(68.627451%,68.627451%,68.627451%);stroke-opacity:1;stroke-miterlimit:4;" d="M 97.045898 1029.779172 L 433.959961 1028.680539 L 435.058594 664.788937 L 347.045898 575.555539 L 97.045898 575.555539 Z M 97.045898 1029.779172 " transform="matrix(0.032,0,0,0.032,0,-17.67559)"/>
<path style="fill-rule:evenodd;fill:rgb(68.627451%,68.627451%,68.627451%);fill-opacity:1;stroke-width:5.03546;stroke-linecap:butt;stroke-linejoin:miter;stroke:rgb(68.627451%,68.627451%,68.627451%);stroke-opacity:1;stroke-miterlimit:4;" d="M 431.518555 662.957883 L 349.365234 662.347531 L 350.097656 578.607297 Z M 431.518555 662.957883 " transform="matrix(0.032,0,0,0.032,0,-17.67559)"/>
<path style=" stroke:none;fill-rule:nonzero;fill:rgb(30.196078%,30.196078%,30.196078%);fill-opacity:1;" d="M 2.019531 2.234375 L 8.441406 2.234375 L 8.441406 4.933594 L 2.019531 4.933594 Z M 2.019531 2.234375 "/>
<path style=" stroke:none;fill-rule:nonzero;fill:rgb(40%,40%,40%);fill-opacity:1;" d="M 3.710938 10.515625 L 13.222656 10.515625 L 13.222656 10.90625 L 3.710938 10.90625 Z M 3.710938 10.515625 "/>
<path style=" stroke:none;fill-rule:nonzero;fill:rgb(40%,40%,40%);fill-opacity:1;" d="M 3.746094 12.199219 L 13.273438 12.199219 L 13.273438 12.589844 L 3.746094 12.589844 Z M 3.746094 12.199219 "/>
<path style=" stroke:none;fill-rule:nonzero;fill:rgb(40%,40%,40%);fill-opacity:1;" d="M 3.746094 13.933594 L 10.269531 13.933594 L 10.269531 14.324219 L 3.746094 14.324219 Z M 3.746094 13.933594 "/>
<path style=" stroke:none;fill-rule:nonzero;fill:rgb(40%,40%,40%);fill-opacity:1;" d="M 3.648438 7.167969 L 13.160156 7.167969 L 13.160156 7.558594 L 3.648438 7.558594 Z M 3.648438 7.167969 "/>
<path style=" stroke:none;fill-rule:nonzero;fill:rgb(40%,40%,40%);fill-opacity:1;" d="M 3.683594 8.851562 L 13.210938 8.851562 L 13.210938 9.242188 L 3.683594 9.242188 Z M 3.683594 8.851562 "/>
<path style="fill:none;stroke-width:9;stroke-linecap:butt;stroke-linejoin:miter;stroke:rgb(100%,100%,100%);stroke-opacity:1;stroke-miterlimit:4;" d="M 108.642578 632.318234 L 108.886719 686.761594 L 140.625 687.005734 " transform="matrix(0.032,0,0,0.032,0,-17.67559)"/>
<path style="fill:none;stroke-width:9;stroke-linecap:butt;stroke-linejoin:miter;stroke:rgb(100%,100%,100%);stroke-opacity:1;stroke-miterlimit:4;" d="M 166.503906 686.883664 C 154.541016 686.883664 143.188477 674.798703 143.066406 659.417844 C 143.066406 644.159055 155.151367 631.829953 167.236328 632.196164 C 179.443359 632.562375 189.941406 644.159055 190.185547 660.394406 C 190.429688 676.751828 178.588867 687.005734 166.503906 686.883664 Z M 166.503906 686.883664 " transform="matrix(0.032,0,0,0.032,0,-17.67559)"/>
<path style="fill:none;stroke-width:9;stroke-linecap:butt;stroke-linejoin:miter;stroke:rgb(100%,100%,100%);stroke-opacity:1;stroke-miterlimit:4;" d="M 250.610352 642.20593 C 250.610352 642.20593 243.408203 634.5155 227.905273 634.63757 C 212.402344 634.759641 204.345703 650.506711 204.589844 662.957883 C 204.833984 675.286984 215.576172 688.348508 227.783203 689.691281 C 240.112305 690.911984 249.145508 684.442258 249.145508 684.442258 L 248.657227 664.422727 L 231.811523 664.544797 " transform="matrix(0.032,0,0,0.032,0,-17.67559)"/>
</g>
</svg>
