<?xml version="1.0" encoding="UTF-8"?>
<svg xmlns="http://www.w3.org/2000/svg" xmlns:xlink="http://www.w3.org/1999/xlink" width="16" height="16" viewBox="0 0 16 16" version="1.1">
<g id="surface1">
<path style=" stroke:none;fill-rule:evenodd;fill:rgb(10.196078%,10.196078%,10.196078%);fill-opacity:1;" d="M 2.023438 4.941406 L 3.726562 6.609375 L 3.671875 4.273438 L 2.019531 4.265625 Z M 2.023438 4.941406 "/>
<path style="fill-rule:evenodd;fill:rgb(94.901961%,94.901961%,94.901961%);fill-opacity:1;stroke-width:5.03546;stroke-linecap:butt;stroke-linejoin:miter;stroke:rgb(68.627451%,68.627451%,68.627451%);stroke-opacity:1;stroke-miterlimit:4;" d="M 96.923828 1029.779172 L 433.837891 1028.680539 L 434.936523 664.788937 L 346.923828 575.555539 L 96.923828 575.555539 Z M 96.923828 1029.779172 " transform="matrix(0.032,0,0,0.032,0,-17.67559)"/>
<path style="fill-rule:evenodd;fill:rgb(68.627451%,68.627451%,68.627451%);fill-opacity:1;stroke-width:5.03546;stroke-linecap:butt;stroke-linejoin:miter;stroke:rgb(68.627451%,68.627451%,68.627451%);stroke-opacity:1;stroke-miterlimit:4;" d="M 431.396484 662.957883 L 349.243164 662.347531 L 349.975586 578.607297 Z M 431.396484 662.957883 " transform="matrix(0.032,0,0,0.032,0,-17.67559)"/>
<path style=" stroke:none;fill-rule:nonzero;fill:rgb(22.352941%,25.098039%,31.372549%);fill-opacity:1;" d="M 2.015625 2.234375 L 10.714844 2.234375 L 10.714844 4.933594 L 2.015625 4.933594 Z M 2.015625 2.234375 "/>
<path style="fill-rule:nonzero;fill:rgb(98.039216%,92.54902%,42.745098%);fill-opacity:1;stroke-width:13.157895;stroke-linecap:butt;stroke-linejoin:miter;stroke:rgb(22.352941%,25.098039%,31.372549%);stroke-opacity:1;stroke-miterlimit:4;" d="M 380.249023 902.337766 C 380.249023 967.767453 327.270508 1020.745969 261.84082 1020.745969 C 196.411133 1020.745969 143.432617 967.767453 143.432617 902.337766 C 143.432617 837.030148 196.411133 783.929562 261.71875 783.929562 C 327.148438 783.929562 380.249023 836.908078 380.249023 902.337766 " transform="matrix(0.032,0,0,0.032,0,-17.67559)"/>
<path style=" stroke:none;fill-rule:nonzero;fill:rgb(22.352941%,25.098039%,31.372549%);fill-opacity:1;" d="M 7.277344 10.648438 L 9.042969 10.640625 L 9.058594 13.003906 C 9.058594 13.003906 9.054688 13.0625 9.097656 13.113281 C 9.144531 13.164062 9.1875 13.164062 9.1875 13.164062 L 9.585938 13.167969 L 9.585938 13.453125 L 7.339844 13.449219 L 7.335938 13.15625 L 7.796875 13.160156 C 7.796875 13.160156 7.859375 13.152344 7.898438 13.097656 C 7.933594 13.046875 7.925781 12.988281 7.925781 12.988281 L 7.921875 11.082031 C 7.921875 11.082031 7.929688 11.035156 7.863281 10.976562 C 7.796875 10.921875 7.738281 10.929688 7.738281 10.929688 L 7.28125 10.921875 Z M 7.277344 10.648438 "/>
<path style=" stroke:none;fill-rule:nonzero;fill:rgb(22.352941%,25.098039%,31.372549%);fill-opacity:1;" d="M 9.0625 9.664062 C 9.0625 10.023438 8.773438 10.320312 8.417969 10.320312 C 8.066406 10.320312 7.777344 10.027344 7.777344 9.664062 C 7.777344 9.304688 8.0625 9.007812 8.417969 9.007812 C 8.773438 9.007812 9.058594 9.296875 9.0625 9.660156 "/>
<path style="fill:none;stroke-width:9.063828;stroke-linecap:butt;stroke-linejoin:miter;stroke:rgb(100%,100%,100%);stroke-opacity:1;stroke-miterlimit:4;" d="M 384.396753 735.863295 L 384.396753 679.529212 C 384.396753 679.529212 415.229218 673.47798 415.229218 693.792829 C 415.085141 714.107677 385.117138 708.488677 385.117138 708.488677 " transform="matrix(0.0271123,0,0,0.0271123,-8.011705,-15.595441)"/>
<path style="fill:none;stroke-width:9;stroke-linecap:butt;stroke-linejoin:miter;stroke:rgb(100%,100%,100%);stroke-opacity:1;stroke-miterlimit:4;" d="M 392.465062 710.505754 L 418.398911 734.854757 " transform="matrix(0.0271123,0,0,0.0271123,-8.011705,-15.595441)"/>
<path style="fill:none;stroke-width:9;stroke-linecap:butt;stroke-linejoin:miter;stroke:rgb(100%,100%,100%);stroke-opacity:1;stroke-miterlimit:4;" d="M 380.179462 670.667756 L 346.177305 670.379602 L 346.609535 618.655981 L 381.043924 618.800058 " transform="matrix(0.0271123,0,0,0.0271123,-5.694239,-13.972374)"/>
<path style="fill:none;stroke-width:9;stroke-linecap:butt;stroke-linejoin:miter;stroke:rgb(100%,100%,100%);stroke-opacity:1;stroke-miterlimit:4;" d="M 348.914766 642.428676 L 378.162385 642.572753 " transform="matrix(0.0271123,0,0,0.0271123,-5.694239,-13.972374)"/>
<path style="fill:none;stroke-width:9;stroke-linecap:butt;stroke-linejoin:bevel;stroke:rgb(100%,100%,100%);stroke-opacity:1;stroke-miterlimit:4;" d="M 915.700017 696.277921 L 937.874705 638.051484 L 960.621642 696.277921 " transform="matrix(0.0273045,0,0,0.0273045,-20.1707,-14.710739)"/>
<path style="fill:none;stroke-width:9;stroke-linecap:butt;stroke-linejoin:miter;stroke:rgb(100%,100%,100%);stroke-opacity:1;stroke-miterlimit:4;" d="M 924.569892 676.821421 L 950.321142 676.821421 " transform="matrix(0.0273045,0,0,0.0273045,-20.1707,-14.710739)"/>
<path style="fill:none;stroke-width:7.625316;stroke-linecap:butt;stroke-linejoin:miter;stroke:rgb(100%,100%,100%);stroke-opacity:1;stroke-miterlimit:4;" d="M 200.317383 683.831906 L 200.683594 639.764523 C 200.683594 639.764523 234.49707 634.881711 234.985352 662.225461 C 235.351562 689.569211 200.317383 683.831906 200.317383 683.831906 Z M 200.317383 683.831906 " transform="matrix(0.032,0,0,0.032,0,-17.67559)"/>
<path style="fill:none;stroke-width:7.625316;stroke-linecap:butt;stroke-linejoin:miter;stroke:rgb(100%,100%,100%);stroke-opacity:1;stroke-miterlimit:4;" d="M 245.727539 687.738156 L 245.97168 641.473508 L 250.244141 641.229367 L 263.671875 676.263547 L 266.479492 676.263547 L 280.029297 641.229367 L 284.423828 641.229367 L 284.423828 687.860227 " transform="matrix(0.032,0,0,0.032,0,-17.67559)"/>
<path style="fill:none;stroke-width:9;stroke-linecap:butt;stroke-linejoin:miter;stroke:rgb(100%,100%,100%);stroke-opacity:1;stroke-miterlimit:4;" d="M 380.176553 670.667756 L 346.174395 670.379602 L 346.606626 618.655981 L 381.041015 618.800058 " transform="matrix(0.0271123,0,0,0.0271123,0.137871,-13.972374)"/>
<path style="fill:none;stroke-width:9;stroke-linecap:butt;stroke-linejoin:miter;stroke:rgb(100%,100%,100%);stroke-opacity:1;stroke-miterlimit:4;" d="M 348.911857 642.428676 L 378.015399 642.572753 " transform="matrix(0.0271123,0,0,0.0271123,0.137871,-13.972374)"/>
</g>
</svg>
