<?xml version="1.0" encoding="UTF-8"?>
<svg xmlns="http://www.w3.org/2000/svg" xmlns:xlink="http://www.w3.org/1999/xlink" width="16" height="16" viewBox="0 0 16 16" version="1.1">
<g id="surface1">
<path style=" stroke:none;fill-rule:evenodd;fill:rgb(9.803922%,7.843137%,23.529412%);fill-opacity:1;" d="M 2.015625 4.921875 L 3.71875 6.589844 L 3.667969 4.253906 L 2.015625 4.246094 Z M 2.015625 4.921875 "/>
<path style="fill-rule:evenodd;fill:rgb(94.901961%,94.901961%,94.901961%);fill-opacity:1;stroke-width:5.03546;stroke-linecap:butt;stroke-linejoin:miter;stroke:rgb(68.627451%,68.627451%,68.627451%);stroke-opacity:1;stroke-miterlimit:4;" d="M 97.045898 1029.779172 L 433.959961 1028.680539 L 435.058594 664.788937 L 347.045898 575.555539 L 97.045898 575.555539 Z M 97.045898 1029.779172 " transform="matrix(0.032,0,0,0.032,0,-17.67559)"/>
<path style="fill-rule:evenodd;fill:rgb(68.627451%,68.627451%,68.627451%);fill-opacity:1;stroke-width:5.03546;stroke-linecap:butt;stroke-linejoin:miter;stroke:rgb(68.627451%,68.627451%,68.627451%);stroke-opacity:1;stroke-miterlimit:4;" d="M 431.518555 662.957883 L 349.365234 662.347531 L 350.097656 578.607297 Z M 431.518555 662.957883 " transform="matrix(0.032,0,0,0.032,0,-17.67559)"/>
<path style=" stroke:none;fill-rule:nonzero;fill:rgb(17.647059%,8.627451%,31.372549%);fill-opacity:1;" d="M 2.019531 2.234375 L 9.21875 2.234375 L 9.21875 4.933594 L 2.019531 4.933594 Z M 2.019531 2.234375 "/>
<path style="fill-rule:nonzero;fill:rgb(17.647059%,8.627451%,31.372549%);fill-opacity:1;stroke-width:0.833333;stroke-linecap:butt;stroke-linejoin:miter;stroke:rgb(0%,0%,0%);stroke-opacity:1;stroke-miterlimit:4;" d="M 266.479492 1020.379758 C 163.94043 1018.060422 144.165039 993.646359 144.165039 993.646359 L 144.165039 805.780148 C 144.165039 805.780148 163.085938 782.220578 254.394531 778.558469 C 345.581055 774.896359 382.568359 805.291867 382.568359 805.291867 L 382.568359 988.885617 C 382.568359 988.885617 369.140625 1022.821164 266.479492 1020.379758 Z M 266.479492 1020.379758 " transform="matrix(0.032,0,0,0.032,0,-17.67559)"/>
<path style=" stroke:none;fill-rule:nonzero;fill:rgb(100%,100%,100%);fill-opacity:1;" d="M 8.480469 7.144531 C 6.273438 7.144531 4.480469 7.632812 4.480469 8.234375 L 4.480469 14.054688 C 4.480469 14.65625 6.273438 15.144531 8.480469 15.144531 C 10.691406 15.144531 12.480469 14.65625 12.480469 14.054688 L 12.480469 8.234375 C 12.480469 7.632812 10.691406 7.144531 8.480469 7.144531 Z M 8.480469 7.507812 C 10.488281 7.507812 12.117188 7.832031 12.117188 8.234375 C 12.117188 8.636719 10.488281 8.960938 8.480469 8.960938 C 6.472656 8.960938 4.84375 8.636719 4.84375 8.234375 C 4.84375 7.832031 6.472656 7.507812 8.480469 7.507812 Z M 4.84375 8.6875 C 5.492188 9.074219 6.914062 9.324219 8.480469 9.324219 C 10.046875 9.324219 11.46875 9.074219 12.117188 8.6875 L 12.117188 10.054688 C 12.117188 10.453125 10.488281 10.78125 8.480469 10.78125 C 6.472656 10.78125 4.84375 10.453125 4.84375 10.054688 Z M 4.84375 10.503906 C 5.492188 10.894531 6.914062 11.144531 8.480469 11.144531 C 10.046875 11.144531 11.46875 10.894531 12.117188 10.503906 L 12.117188 12.234375 C 12.117188 12.636719 10.488281 12.960938 8.480469 12.960938 C 6.472656 12.960938 4.84375 12.636719 4.84375 12.234375 Z M 4.84375 12.6875 C 5.492188 13.074219 6.914062 13.324219 8.480469 13.324219 C 10.046875 13.324219 11.46875 13.074219 12.117188 12.6875 L 12.117188 14.054688 C 12.117188 14.453125 10.488281 14.78125 8.480469 14.78125 C 6.472656 14.78125 4.84375 14.453125 4.84375 14.054688 Z M 4.84375 12.6875 "/>
<path style="fill:none;stroke-width:10;stroke-linecap:butt;stroke-linejoin:miter;stroke:rgb(100%,100%,100%);stroke-opacity:1;stroke-miterlimit:4;" d="M 162.231445 639.764523 C 162.231445 639.764523 152.954102 635.492062 144.165039 635.369992 C 135.375977 635.247922 129.882812 640.619016 129.638672 648.187375 C 129.272461 655.755734 133.544922 661.85925 148.681641 663.568234 C 163.94043 665.399289 162.963867 678.582883 161.132812 683.343625 C 159.179688 687.982297 150.390625 692.376828 141.479492 691.156125 C 132.446289 689.935422 125 685.907102 125 685.907102 " transform="matrix(0.032,0,0,0.032,0,-17.67559)"/>
<path style="fill:none;stroke-width:9;stroke-linecap:butt;stroke-linejoin:miter;stroke:rgb(100%,100%,100%);stroke-opacity:1;stroke-miterlimit:4;" d="M 232.24727 651.412195 C 220.162309 651.290125 208.80977 639.205164 208.80977 623.946375 C 208.687699 608.687586 220.77266 596.358484 232.979691 596.724695 C 245.064652 596.968836 255.68477 608.565516 255.92891 624.922938 C 256.05098 641.158289 244.21016 651.534266 232.24727 651.412195 Z M 232.24727 651.412195 " transform="matrix(0.032,0,0,0.032,-1.127225,-16.399878)"/>
<path style="fill:none;stroke-width:9;stroke-linecap:butt;stroke-linejoin:miter;stroke:rgb(100%,100%,100%);stroke-opacity:1;stroke-miterlimit:4;" d="M 240.42598 633.712 C 240.42598 633.712 243.96602 643.233484 247.99434 646.773523 C 252.02266 650.313563 263.61934 653.36532 263.61934 653.36532 " transform="matrix(0.032,0,0,0.032,-1.127225,-16.399878)"/>
<path style="fill:none;stroke-width:9;stroke-linecap:butt;stroke-linejoin:miter;stroke:rgb(100%,100%,100%);stroke-opacity:1;stroke-miterlimit:4;" d="M 240.234375 633.416867 L 240.600586 687.982297 L 272.338867 688.226437 " transform="matrix(0.032,0,0,0.032,0,-17.67559)"/>
</g>
</svg>
