<?xml version="1.0" encoding="UTF-8"?>
<svg xmlns="http://www.w3.org/2000/svg" xmlns:xlink="http://www.w3.org/1999/xlink" width="16" height="16" viewBox="0 0 16 16" version="1.1">
<g id="surface1">
<path style=" stroke:none;fill-rule:evenodd;fill:rgb(15.686275%,9.019608%,4.313725%);fill-opacity:1;" d="M 2.015625 4.921875 L 3.71875 6.589844 L 3.667969 4.253906 L 2.015625 4.246094 Z M 2.015625 4.921875 "/>
<path style="fill-rule:evenodd;fill:rgb(94.901961%,94.901961%,94.901961%);fill-opacity:1;stroke-width:5.03546;stroke-linecap:butt;stroke-linejoin:miter;stroke:rgb(68.627451%,68.627451%,68.627451%);stroke-opacity:1;stroke-miterlimit:4;" d="M 97.045898 1029.779172 L 433.959961 1028.680539 L 435.058594 664.788937 L 347.045898 575.555539 L 97.045898 575.555539 Z M 97.045898 1029.779172 " transform="matrix(0.032,0,0,0.032,0,-17.67559)"/>
<path style="fill-rule:evenodd;fill:rgb(68.627451%,68.627451%,68.627451%);fill-opacity:1;stroke-width:5.03546;stroke-linecap:butt;stroke-linejoin:miter;stroke:rgb(68.627451%,68.627451%,68.627451%);stroke-opacity:1;stroke-miterlimit:4;" d="M 431.518555 662.957883 L 349.365234 662.347531 L 350.097656 578.607297 Z M 431.518555 662.957883 " transform="matrix(0.032,0,0,0.032,0,-17.67559)"/>
<path style=" stroke:none;fill-rule:nonzero;fill:rgb(31.372549%,17.647059%,8.627451%);fill-opacity:1;" d="M 2.019531 2.234375 L 8.765625 2.234375 L 8.765625 4.933594 L 2.019531 4.933594 Z M 2.019531 2.234375 "/>
<path style=" stroke:none;fill-rule:nonzero;fill:rgb(60%,60%,60%);fill-opacity:1;" d="M 11.875 7.898438 L 12.089844 7.898438 C 12.203125 7.898438 12.292969 7.976562 12.292969 8.078125 L 12.292969 9 C 12.292969 9.101562 12.203125 9.183594 12.089844 9.183594 L 11.875 9.183594 C 11.765625 9.183594 11.675781 9.101562 11.675781 9 L 11.675781 8.078125 C 11.675781 7.976562 11.765625 7.898438 11.875 7.898438 Z M 11.875 7.898438 "/>
<path style=" stroke:none;fill-rule:nonzero;fill:rgb(60%,60%,60%);fill-opacity:1;" d="M 11.875 9.472656 L 12.089844 9.472656 C 12.203125 9.472656 12.292969 9.554688 12.292969 9.652344 L 12.292969 10.578125 C 12.292969 10.679688 12.203125 10.757812 12.089844 10.757812 L 11.875 10.757812 C 11.765625 10.757812 11.675781 10.679688 11.675781 10.578125 L 11.675781 9.652344 C 11.675781 9.554688 11.765625 9.472656 11.875 9.472656 Z M 11.875 9.472656 "/>
<path style=" stroke:none;fill-rule:nonzero;fill:rgb(60%,60%,60%);fill-opacity:1;" d="M 11.875 10.996094 L 12.089844 10.996094 C 12.203125 10.996094 12.292969 11.074219 12.292969 11.175781 L 12.292969 12.101562 C 12.292969 12.199219 12.203125 12.28125 12.089844 12.28125 L 11.875 12.28125 C 11.765625 12.28125 11.675781 12.199219 11.675781 12.101562 L 11.675781 11.175781 C 11.675781 11.074219 11.765625 10.996094 11.875 10.996094 Z M 11.875 10.996094 "/>
<path style=" stroke:none;fill-rule:nonzero;fill:rgb(60%,60%,60%);fill-opacity:1;" d="M 11.875 12.570312 L 12.089844 12.570312 C 12.203125 12.570312 12.292969 12.652344 12.292969 12.753906 L 12.292969 13.675781 C 12.292969 13.777344 12.203125 13.855469 12.089844 13.855469 L 11.875 13.855469 C 11.765625 13.855469 11.675781 13.777344 11.675781 13.675781 L 11.675781 12.753906 C 11.675781 12.652344 11.765625 12.570312 11.875 12.570312 Z M 11.875 12.570312 "/>
<path style=" stroke:none;fill-rule:nonzero;fill:rgb(31.372549%,17.647059%,8.627451%);fill-opacity:1;" d="M 5.6875 7.113281 L 11.34375 7.113281 C 11.652344 7.113281 11.902344 7.398438 11.902344 7.746094 L 11.902344 14.476562 C 11.902344 14.828125 11.652344 15.109375 11.34375 15.109375 L 5.6875 15.109375 C 5.378906 15.109375 5.128906 14.828125 5.128906 14.476562 L 5.128906 7.746094 C 5.128906 7.398438 5.378906 7.113281 5.6875 7.113281 Z M 5.6875 7.113281 "/>
<path style=" stroke:none;fill-rule:nonzero;fill:rgb(40%,40%,40%);fill-opacity:1;" d="M 6.871094 15.109375 L 5.679688 15.113281 C 5.679688 15.113281 5.484375 15.105469 5.3125 14.945312 C 5.140625 14.785156 5.125 14.503906 5.125 14.503906 L 5.132812 7.730469 C 5.132812 7.730469 5.128906 7.488281 5.289062 7.304688 C 5.445312 7.125 5.71875 7.113281 5.71875 7.113281 L 6.867188 7.113281 Z M 6.871094 15.109375 "/>
<path style=" stroke:none;fill-rule:nonzero;fill:rgb(22.352941%,25.098039%,31.372549%);fill-opacity:1;" d="M 6.289062 8.015625 C 6.289062 8.199219 6.140625 8.351562 5.953125 8.351562 C 5.769531 8.351562 5.617188 8.199219 5.617188 8.015625 C 5.617188 7.828125 5.769531 7.679688 5.953125 7.679688 C 6.140625 7.679688 6.289062 7.828125 6.289062 8.015625 Z M 6.289062 8.015625 "/>
<path style=" stroke:none;fill-rule:nonzero;fill:rgb(80%,80%,80%);fill-opacity:1;" d="M 4.75 8.226562 L 5.964844 8.226562 C 5.964844 8.226562 6.144531 8.210938 6.140625 8.03125 C 6.136719 7.855469 5.957031 7.835938 5.957031 7.835938 L 4.734375 7.84375 C 4.734375 7.84375 4.578125 7.875 4.582031 8.039062 C 4.585938 8.203125 4.75 8.226562 4.75 8.226562 Z M 4.75 8.226562 "/>
<path style=" stroke:none;fill-rule:nonzero;fill:rgb(22.352941%,25.098039%,31.372549%);fill-opacity:1;" d="M 6.296875 8.875 C 6.296875 9.058594 6.148438 9.207031 5.960938 9.207031 C 5.777344 9.207031 5.625 9.058594 5.625 8.875 C 5.625 8.6875 5.777344 8.539062 5.960938 8.539062 C 6.148438 8.539062 6.296875 8.6875 6.296875 8.875 Z M 6.296875 8.875 "/>
<path style=" stroke:none;fill-rule:nonzero;fill:rgb(80%,80%,80%);fill-opacity:1;" d="M 4.757812 9.082031 L 5.972656 9.082031 C 5.972656 9.082031 6.152344 9.066406 6.148438 8.890625 C 6.144531 8.714844 5.964844 8.691406 5.964844 8.691406 L 4.742188 8.699219 C 4.742188 8.699219 4.585938 8.734375 4.589844 8.898438 C 4.59375 9.0625 4.757812 9.082031 4.757812 9.082031 Z M 4.757812 9.082031 "/>
<path style=" stroke:none;fill-rule:nonzero;fill:rgb(22.352941%,25.098039%,31.372549%);fill-opacity:1;" d="M 6.304688 9.726562 C 6.304688 9.910156 6.152344 10.058594 5.96875 10.058594 C 5.78125 10.058594 5.632812 9.910156 5.632812 9.726562 C 5.632812 9.539062 5.78125 9.390625 5.96875 9.390625 C 6.152344 9.390625 6.304688 9.539062 6.304688 9.726562 Z M 6.304688 9.726562 "/>
<path style=" stroke:none;fill-rule:nonzero;fill:rgb(80%,80%,80%);fill-opacity:1;" d="M 4.765625 9.933594 L 5.980469 9.933594 C 5.980469 9.933594 6.160156 9.917969 6.15625 9.742188 C 6.152344 9.566406 5.96875 9.542969 5.96875 9.542969 L 4.75 9.550781 C 4.75 9.550781 4.59375 9.585938 4.59375 9.75 C 4.597656 9.914062 4.765625 9.933594 4.765625 9.933594 Z M 4.765625 9.933594 "/>
<path style=" stroke:none;fill-rule:nonzero;fill:rgb(22.352941%,25.098039%,31.372549%);fill-opacity:1;" d="M 6.3125 10.582031 C 6.3125 10.769531 6.160156 10.917969 5.976562 10.917969 C 5.789062 10.917969 5.640625 10.769531 5.640625 10.582031 C 5.640625 10.398438 5.789062 10.25 5.976562 10.25 C 6.160156 10.25 6.3125 10.398438 6.3125 10.582031 Z M 6.3125 10.582031 "/>
<path style=" stroke:none;fill-rule:nonzero;fill:rgb(80%,80%,80%);fill-opacity:1;" d="M 4.773438 10.792969 L 5.988281 10.792969 C 5.988281 10.792969 6.167969 10.777344 6.164062 10.601562 C 6.160156 10.425781 5.976562 10.402344 5.976562 10.402344 L 4.757812 10.410156 C 4.757812 10.410156 4.601562 10.445312 4.601562 10.609375 C 4.605469 10.773438 4.773438 10.792969 4.773438 10.792969 Z M 4.773438 10.792969 "/>
<path style=" stroke:none;fill-rule:nonzero;fill:rgb(22.352941%,25.098039%,31.372549%);fill-opacity:1;" d="M 6.304688 11.441406 C 6.304688 11.625 6.15625 11.773438 5.972656 11.773438 C 5.785156 11.773438 5.636719 11.625 5.636719 11.441406 C 5.636719 11.253906 5.785156 11.105469 5.972656 11.105469 C 6.15625 11.105469 6.304688 11.253906 6.304688 11.441406 Z M 6.304688 11.441406 "/>
<path style=" stroke:none;fill-rule:nonzero;fill:rgb(80%,80%,80%);fill-opacity:1;" d="M 4.769531 11.648438 L 5.984375 11.648438 C 5.984375 11.648438 6.164062 11.632812 6.160156 11.460938 C 6.15625 11.28125 5.976562 11.261719 5.976562 11.261719 L 4.753906 11.265625 C 4.753906 11.265625 4.597656 11.300781 4.601562 11.464844 C 4.601562 11.632812 4.769531 11.648438 4.769531 11.648438 Z M 4.769531 11.648438 "/>
<path style=" stroke:none;fill-rule:nonzero;fill:rgb(22.352941%,25.098039%,31.372549%);fill-opacity:1;" d="M 6.3125 12.300781 C 6.3125 12.484375 6.164062 12.632812 5.980469 12.632812 C 5.792969 12.632812 5.644531 12.484375 5.644531 12.300781 C 5.644531 12.113281 5.792969 11.964844 5.980469 11.964844 C 6.164062 11.964844 6.3125 12.113281 6.3125 12.300781 Z M 6.3125 12.300781 "/>
<path style=" stroke:none;fill-rule:nonzero;fill:rgb(80%,80%,80%);fill-opacity:1;" d="M 4.777344 12.507812 L 5.992188 12.507812 C 5.992188 12.507812 6.171875 12.492188 6.167969 12.316406 C 6.164062 12.140625 5.984375 12.117188 5.984375 12.117188 L 4.761719 12.125 C 4.761719 12.125 4.605469 12.160156 4.609375 12.324219 C 4.609375 12.488281 4.777344 12.507812 4.777344 12.507812 Z M 4.777344 12.507812 "/>
<path style=" stroke:none;fill-rule:nonzero;fill:rgb(22.352941%,25.098039%,31.372549%);fill-opacity:1;" d="M 6.320312 13.152344 C 6.320312 13.335938 6.171875 13.484375 5.984375 13.484375 C 5.800781 13.484375 5.652344 13.335938 5.652344 13.152344 C 5.652344 12.964844 5.800781 12.816406 5.984375 12.816406 C 6.171875 12.816406 6.320312 12.964844 6.320312 13.152344 Z M 6.320312 13.152344 "/>
<path style=" stroke:none;fill-rule:nonzero;fill:rgb(80%,80%,80%);fill-opacity:1;" d="M 4.78125 13.359375 L 6 13.359375 C 6 13.359375 6.175781 13.34375 6.171875 13.167969 C 6.167969 12.992188 5.988281 12.96875 5.988281 12.96875 L 4.769531 12.976562 C 4.769531 12.976562 4.609375 13.011719 4.613281 13.175781 C 4.617188 13.339844 4.78125 13.359375 4.78125 13.359375 Z M 4.78125 13.359375 "/>
<path style=" stroke:none;fill-rule:nonzero;fill:rgb(22.352941%,25.098039%,31.372549%);fill-opacity:1;" d="M 6.328125 14.007812 C 6.328125 14.195312 6.179688 14.34375 5.992188 14.34375 C 5.808594 14.34375 5.660156 14.195312 5.660156 14.007812 C 5.660156 13.824219 5.808594 13.675781 5.992188 13.675781 C 6.179688 13.675781 6.328125 13.824219 6.328125 14.007812 Z M 6.328125 14.007812 "/>
<path style=" stroke:none;fill-rule:nonzero;fill:rgb(80%,80%,80%);fill-opacity:1;" d="M 4.789062 14.21875 L 6.007812 14.21875 C 6.007812 14.21875 6.183594 14.203125 6.179688 14.027344 C 6.175781 13.851562 5.996094 13.828125 5.996094 13.828125 L 4.777344 13.835938 C 4.777344 13.835938 4.617188 13.871094 4.621094 14.035156 C 4.625 14.199219 4.789062 14.21875 4.789062 14.21875 Z M 4.789062 14.21875 "/>
<path style=" stroke:none;fill-rule:nonzero;fill:rgb(100%,100%,100%);fill-opacity:1;" d="M 7.5625 8.207031 L 11 8.207031 C 11.109375 8.207031 11.199219 8.289062 11.199219 8.390625 L 11.199219 9.464844 C 11.199219 9.566406 11.109375 9.648438 11 9.648438 L 7.5625 9.648438 C 7.449219 9.648438 7.359375 9.566406 7.359375 9.464844 L 7.359375 8.390625 C 7.359375 8.289062 7.449219 8.207031 7.5625 8.207031 Z M 7.5625 8.207031 "/>
</g>
</svg>
