<?xml version="1.0" encoding="UTF-8"?>
<svg xmlns="http://www.w3.org/2000/svg" xmlns:xlink="http://www.w3.org/1999/xlink" width="16" height="16" viewBox="0 0 16 16" version="1.1">
<g id="surface1">
<path style=" stroke:none;fill-rule:evenodd;fill:rgb(81.568627%,7.058824%,0%);fill-opacity:1;" d="M 2.015625 4.921875 L 3.71875 6.589844 L 3.667969 4.253906 L 2.015625 4.246094 Z M 2.015625 4.921875 "/>
<path style="fill-rule:evenodd;fill:rgb(94.901961%,94.901961%,94.901961%);fill-opacity:1;stroke-width:5.03546;stroke-linecap:butt;stroke-linejoin:miter;stroke:rgb(68.627451%,68.627451%,68.627451%);stroke-opacity:1;stroke-miterlimit:4;" d="M 97.045898 1029.779172 L 433.959961 1028.680539 L 435.058594 664.788937 L 347.045898 575.555539 L 97.045898 575.555539 Z M 97.045898 1029.779172 " transform="matrix(0.032,0,0,0.032,0,-17.67559)"/>
<path style="fill-rule:evenodd;fill:rgb(68.627451%,68.627451%,68.627451%);fill-opacity:1;stroke-width:5.03546;stroke-linecap:butt;stroke-linejoin:miter;stroke:rgb(68.627451%,68.627451%,68.627451%);stroke-opacity:1;stroke-miterlimit:4;" d="M 431.518555 662.957883 L 349.365234 662.347531 L 350.097656 578.607297 Z M 431.518555 662.957883 " transform="matrix(0.032,0,0,0.032,0,-17.67559)"/>
<path style=" stroke:none;fill-rule:nonzero;fill:rgb(94.117647%,22.352941%,8.627451%);fill-opacity:1;" d="M 2.019531 2.234375 L 9.21875 2.234375 L 9.21875 4.933594 L 2.019531 4.933594 Z M 2.019531 2.234375 "/>
<path style=" stroke:none;fill-rule:nonzero;fill:rgb(80%,80%,80%);fill-opacity:1;" d="M 4.714844 8.734375 L 4.714844 13.550781 C 4.714844 14.429688 5.421875 15.140625 6.300781 15.140625 L 10.558594 15.140625 L 12.6875 12.992188 L 12.6875 8.734375 Z M 4.714844 8.734375 "/>
<path style=" stroke:none;fill-rule:nonzero;fill:rgb(90.196078%,90.196078%,90.196078%);fill-opacity:1;" d="M 6.300781 7.144531 C 6.28125 7.144531 6.261719 7.144531 6.242188 7.144531 C 6.261719 7.144531 6.28125 7.144531 6.300781 7.144531 Z M 11.105469 7.144531 C 11.125 7.144531 11.140625 7.144531 11.160156 7.144531 C 11.140625 7.144531 11.125 7.144531 11.105469 7.144531 Z M 4.714844 11.65625 L 4.714844 14.253906 C 4.714844 14.769531 5.183594 15.140625 5.613281 15.140625 L 10.558594 15.140625 L 12.6875 12.992188 L 12.6875 11.65625 Z M 4.714844 11.65625 "/>
<path style=" stroke:none;fill-rule:nonzero;fill:rgb(22.352941%,25.098039%,31.372549%);fill-opacity:1;" d="M 8.515625 13.683594 L 8.9375 13.683594 L 8.945312 10.167969 L 8.175781 10.644531 L 8.175781 11.144531 L 8.507812 10.945312 Z M 8.515625 13.683594 "/>
<path style=" stroke:none;fill-rule:nonzero;fill:rgb(50.196078%,50.196078%,50.196078%);fill-opacity:1;" d="M 11.070312 12.964844 C 10.851562 12.964844 10.550781 13.269531 10.550781 13.484375 L 10.550781 15.144531 L 10.554688 15.144531 L 12.714844 12.964844 Z M 11.070312 12.964844 "/>
<path style=" stroke:none;fill-rule:nonzero;fill:rgb(94.117647%,22.352941%,8.627451%);fill-opacity:1;" d="M 5.621094 7.144531 C 4.742188 7.144531 4.714844 7.140625 4.714844 8.734375 L 12.6875 8.734375 C 12.6875 7.164062 12.703125 7.144531 11.824219 7.144531 Z M 6.0625 7.6875 C 6.203125 7.6875 6.3125 7.800781 6.3125 7.9375 C 6.3125 8.078125 6.203125 8.191406 6.0625 8.191406 C 5.925781 8.191406 5.8125 8.078125 5.8125 7.9375 C 5.8125 7.800781 5.925781 7.6875 6.0625 7.6875 Z M 11.382812 7.6875 C 11.511719 7.6875 11.621094 7.796875 11.621094 7.929688 C 11.621094 8.0625 11.511719 8.167969 11.382812 8.167969 C 11.25 8.167969 11.140625 8.0625 11.140625 7.929688 C 11.140625 7.796875 11.25 7.6875 11.382812 7.6875 Z M 11.382812 7.6875 "/>
</g>
</svg>
