<?xml version="1.0" encoding="UTF-8"?>
<svg xmlns="http://www.w3.org/2000/svg" xmlns:xlink="http://www.w3.org/1999/xlink" width="16" height="16" viewBox="0 0 16 16" version="1.1">
<g id="surface1">
<path style=" stroke:none;fill-rule:evenodd;fill:rgb(10.588235%,14.901961%,19.215686%);fill-opacity:1;" d="M 2.015625 4.921875 L 3.71875 6.589844 L 3.667969 4.253906 L 2.015625 4.246094 Z M 2.015625 4.921875 "/>
<path style="fill-rule:evenodd;fill:rgb(94.901961%,94.901961%,94.901961%);fill-opacity:1;stroke-width:5.03546;stroke-linecap:butt;stroke-linejoin:miter;stroke:rgb(68.627451%,68.627451%,68.627451%);stroke-opacity:1;stroke-miterlimit:4;" d="M 97.045898 1029.779172 L 433.959961 1028.680539 L 435.058594 664.788937 L 347.045898 575.555539 L 97.045898 575.555539 Z M 97.045898 1029.779172 " transform="matrix(0.032,0,0,0.032,0,-17.67559)"/>
<path style="fill-rule:evenodd;fill:rgb(68.627451%,68.627451%,68.627451%);fill-opacity:1;stroke-width:5.03546;stroke-linecap:butt;stroke-linejoin:miter;stroke:rgb(68.627451%,68.627451%,68.627451%);stroke-opacity:1;stroke-miterlimit:4;" d="M 431.518555 662.957883 L 349.365234 662.347531 L 350.097656 578.607297 Z M 431.518555 662.957883 " transform="matrix(0.032,0,0,0.032,0,-17.67559)"/>
<path style=" stroke:none;fill-rule:nonzero;fill:rgb(22.352941%,25.098039%,31.372549%);fill-opacity:1;" d="M 2.019531 2.234375 L 9.21875 2.234375 L 9.21875 4.933594 L 2.019531 4.933594 Z M 2.019531 2.234375 "/>
<path style="fill-rule:nonzero;fill:rgb(98.039216%,92.54902%,42.745098%);fill-opacity:1;stroke-width:15.218686;stroke-linecap:butt;stroke-linejoin:miter;stroke:rgb(22.352941%,25.098039%,31.372549%);stroke-opacity:1;stroke-miterlimit:4;" d="M 760.66741 336.491498 L 909.657118 336.44641 C 916.136001 336.474453 921.490165 341.293059 921.526847 347.165031 L 921.485555 498.576229 C 921.522237 504.448202 916.1676 509.303253 909.688717 509.275209 L 760.609671 509.237111 C 754.047602 509.298406 748.693438 504.479801 748.739941 498.51849 L 748.698048 347.19663 C 748.744551 341.235319 754.016002 336.469607 760.66741 336.491498 Z M 760.66741 336.491498 " transform="matrix(0.0218065,0.0234195,-0.0234195,0.0218065,0,-17.67559)"/>
<path style=" stroke:none;fill-rule:nonzero;fill:rgb(22.352941%,25.098039%,31.372549%);fill-opacity:1;" d="M 8.207031 9.792969 C 7.941406 9.828125 7.792969 10.117188 7.792969 10.117188 L 7.484375 10.546875 L 7.015625 10.800781 C 7.015625 10.800781 6.902344 10.851562 6.9375 10.957031 C 6.976562 11.0625 7.066406 11.035156 7.066406 11.035156 L 7.613281 10.8125 L 7.898438 10.535156 L 8.15625 11.351562 L 7.65625 11.933594 L 7.65625 13.128906 C 7.65625 13.128906 7.679688 13.265625 7.804688 13.265625 C 7.933594 13.265625 7.976562 13.160156 7.976562 13.160156 L 8.035156 12.113281 L 8.425781 11.792969 L 8.539062 11.792969 L 8.675781 12.21875 L 9.160156 13.136719 C 9.160156 13.136719 9.261719 13.246094 9.382812 13.179688 C 9.503906 13.113281 9.484375 12.984375 9.484375 12.984375 L 9.023438 12.113281 L 8.988281 11.210938 L 8.800781 10.347656 L 9.039062 10.421875 L 9.203125 10.949219 C 9.203125 10.949219 9.257812 11.089844 9.367188 11.054688 C 9.480469 11.019531 9.453125 10.886719 9.453125 10.886719 L 9.28125 10.21875 L 8.660156 9.859375 C 8.660156 9.859375 8.472656 9.757812 8.207031 9.792969 Z M 8.207031 9.792969 "/>
<path style=" stroke:none;fill-rule:nonzero;fill:rgb(22.352941%,25.098039%,31.372549%);fill-opacity:1;" d="M 8.589844 9.3125 C 8.589844 9.519531 8.417969 9.6875 8.210938 9.6875 C 8 9.6875 7.828125 9.519531 7.828125 9.3125 C 7.828125 9.109375 8 8.941406 8.207031 8.941406 C 8.417969 8.941406 8.589844 9.105469 8.589844 9.3125 "/>
</g>
</svg>
