<?xml version="1.0" encoding="UTF-8"?>
<svg xmlns="http://www.w3.org/2000/svg" xmlns:xlink="http://www.w3.org/1999/xlink" width="16" height="16" viewBox="0 0 16 16" version="1.1">
<g id="surface1">
<path style=" stroke:none;fill-rule:evenodd;fill:rgb(66.666667%,53.333333%,0%);fill-opacity:1;" d="M 2.015625 4.921875 L 3.71875 6.589844 L 3.667969 4.253906 L 2.015625 4.246094 Z M 2.015625 4.921875 "/>
<path style="fill-rule:evenodd;fill:rgb(94.901961%,94.901961%,94.901961%);fill-opacity:1;stroke-width:5.03546;stroke-linecap:butt;stroke-linejoin:miter;stroke:rgb(68.627451%,68.627451%,68.627451%);stroke-opacity:1;stroke-miterlimit:4;" d="M 97.045898 1029.779172 L 433.959961 1028.680539 L 435.058594 664.788937 L 347.045898 575.555539 L 97.045898 575.555539 Z M 97.045898 1029.779172 " transform="matrix(0.032,0,0,0.032,0,-17.67559)"/>
<path style="fill-rule:evenodd;fill:rgb(68.627451%,68.627451%,68.627451%);fill-opacity:1;stroke-width:5.03546;stroke-linecap:butt;stroke-linejoin:miter;stroke:rgb(68.627451%,68.627451%,68.627451%);stroke-opacity:1;stroke-miterlimit:4;" d="M 431.518555 662.957883 L 349.365234 662.347531 L 350.097656 578.607297 Z M 431.518555 662.957883 " transform="matrix(0.032,0,0,0.032,0,-17.67559)"/>
<path style=" stroke:none;fill-rule:nonzero;fill:rgb(83.137255%,66.666667%,0%);fill-opacity:1;" d="M 2.019531 2.234375 L 9.21875 2.234375 L 9.21875 4.933594 L 2.019531 4.933594 Z M 2.019531 2.234375 "/>
<path style=" stroke:none;fill-rule:nonzero;fill:rgb(100%,40%,0%);fill-opacity:1;" d="M 9.761719 9.734375 C 9.761719 11.164062 8.605469 12.320312 7.175781 12.320312 C 5.75 12.320312 4.589844 11.164062 4.589844 9.734375 C 4.589844 8.304688 5.75 7.148438 7.175781 7.148438 C 8.605469 7.148438 9.761719 8.304688 9.761719 9.734375 Z M 9.761719 9.734375 "/>
<path style=" stroke:none;fill-rule:nonzero;fill:rgb(83.137255%,66.666667%,0%);fill-opacity:1;" d="M 8.417969 9.050781 L 13.160156 9.050781 L 13.160156 13.359375 L 8.417969 13.359375 Z M 8.417969 9.050781 "/>
<path style=" stroke:none;fill-rule:nonzero;fill:rgb(100%,80%,0%);fill-opacity:1;" d="M 4.976562 14.734375 L 10.148438 14.734375 L 7.574219 10.273438 Z M 4.976562 14.734375 "/>
<path style=" stroke:none;fill-rule:nonzero;fill:rgb(27.058824%,81.568627%,24.705882%);fill-opacity:1;" d="M 7.1875 9.832031 L 7.960938 9.832031 L 7.960938 10.609375 L 7.1875 10.609375 Z M 7.1875 9.832031 "/>
<path style=" stroke:none;fill-rule:nonzero;fill:rgb(27.058824%,81.568627%,24.705882%);fill-opacity:1;" d="M 4.359375 14.242188 L 5.136719 14.242188 L 5.136719 15.019531 L 4.359375 15.019531 Z M 4.359375 14.242188 "/>
<path style=" stroke:none;fill-rule:nonzero;fill:rgb(27.058824%,81.568627%,24.705882%);fill-opacity:1;" d="M 10.027344 14.179688 L 10.804688 14.179688 L 10.804688 14.957031 L 10.027344 14.957031 Z M 10.027344 14.179688 "/>
</g>
</svg>
