<?xml version="1.0" encoding="UTF-8"?>
<svg xmlns="http://www.w3.org/2000/svg" xmlns:xlink="http://www.w3.org/1999/xlink" width="16" height="16" viewBox="0 0 16 16" version="1.1">
<g id="surface1">
<path style=" stroke:none;fill-rule:evenodd;fill:rgb(8.627451%,31.372549%,8.627451%);fill-opacity:1;" d="M 2.015625 4.921875 L 3.71875 6.589844 L 3.667969 4.253906 L 2.015625 4.246094 Z M 2.015625 4.921875 "/>
<path style="fill-rule:evenodd;fill:rgb(94.901961%,94.901961%,94.901961%);fill-opacity:1;stroke-width:5.03546;stroke-linecap:butt;stroke-linejoin:miter;stroke:rgb(68.627451%,68.627451%,68.627451%);stroke-opacity:1;stroke-miterlimit:4;" d="M 97.045898 1029.779172 L 433.959961 1028.680539 L 435.058594 664.788937 L 347.045898 575.555539 L 97.045898 575.555539 Z M 97.045898 1029.779172 " transform="matrix(0.032,0,0,0.032,0,-17.67559)"/>
<path style="fill-rule:evenodd;fill:rgb(68.627451%,68.627451%,68.627451%);fill-opacity:1;stroke-width:5.03546;stroke-linecap:butt;stroke-linejoin:miter;stroke:rgb(68.627451%,68.627451%,68.627451%);stroke-opacity:1;stroke-miterlimit:4;" d="M 431.518555 662.957883 L 349.365234 662.347531 L 350.097656 578.607297 Z M 431.518555 662.957883 " transform="matrix(0.032,0,0,0.032,0,-17.67559)"/>
<path style=" stroke:none;fill-rule:nonzero;fill:rgb(17.254902%,62.745098%,17.254902%);fill-opacity:1;" d="M 2.019531 2.234375 L 9.21875 2.234375 L 9.21875 4.933594 L 2.019531 4.933594 Z M 2.019531 2.234375 "/>
<path style=" stroke:none;fill-rule:nonzero;fill:rgb(17.254902%,62.745098%,17.254902%);fill-opacity:1;" d="M 4.578125 7.945312 L 12.800781 7.945312 L 12.800781 14.523438 L 4.578125 14.523438 Z M 4.578125 7.945312 "/>
<path style=" stroke:none;fill-rule:nonzero;fill:rgb(55.294118%,82.745098%,37.254902%);fill-opacity:1;" d="M 4.804688 8.132812 L 6.53125 8.132812 L 6.53125 8.929688 L 4.804688 8.929688 Z M 4.804688 8.132812 "/>
<path style=" stroke:none;fill-rule:nonzero;fill:rgb(55.294118%,82.745098%,37.254902%);fill-opacity:1;" d="M 6.796875 8.132812 L 8.523438 8.132812 L 8.523438 8.929688 L 6.796875 8.929688 Z M 6.796875 8.132812 "/>
<path style=" stroke:none;fill-rule:nonzero;fill:rgb(55.294118%,82.745098%,37.254902%);fill-opacity:1;" d="M 8.789062 8.132812 L 10.511719 8.132812 L 10.511719 8.929688 L 8.789062 8.929688 Z M 8.789062 8.132812 "/>
<path style=" stroke:none;fill-rule:nonzero;fill:rgb(55.294118%,82.745098%,37.254902%);fill-opacity:1;" d="M 10.777344 8.132812 L 12.503906 8.132812 L 12.503906 8.929688 L 10.777344 8.929688 Z M 10.777344 8.132812 "/>
<path style=" stroke:none;fill-rule:nonzero;fill:rgb(66.666667%,87.058824%,52.941176%);fill-opacity:1;" d="M 4.804688 9.195312 L 6.53125 9.195312 L 6.53125 9.996094 L 4.804688 9.996094 Z M 4.804688 9.195312 "/>
<path style=" stroke:none;fill-rule:nonzero;fill:rgb(66.666667%,87.058824%,52.941176%);fill-opacity:1;" d="M 6.796875 9.195312 L 8.523438 9.195312 L 8.523438 9.996094 L 6.796875 9.996094 Z M 6.796875 9.195312 "/>
<path style=" stroke:none;fill-rule:nonzero;fill:rgb(66.666667%,87.058824%,52.941176%);fill-opacity:1;" d="M 8.789062 9.195312 L 10.511719 9.195312 L 10.511719 9.996094 L 8.789062 9.996094 Z M 8.789062 9.195312 "/>
<path style=" stroke:none;fill-rule:nonzero;fill:rgb(66.666667%,87.058824%,52.941176%);fill-opacity:1;" d="M 10.777344 9.195312 L 12.503906 9.195312 L 12.503906 9.996094 L 10.777344 9.996094 Z M 10.777344 9.195312 "/>
<path style=" stroke:none;fill-rule:nonzero;fill:rgb(66.666667%,87.058824%,52.941176%);fill-opacity:1;" d="M 4.804688 10.253906 L 6.53125 10.253906 L 6.53125 11.054688 L 4.804688 11.054688 Z M 4.804688 10.253906 "/>
<path style=" stroke:none;fill-rule:nonzero;fill:rgb(66.666667%,87.058824%,52.941176%);fill-opacity:1;" d="M 6.796875 10.253906 L 8.523438 10.253906 L 8.523438 11.054688 L 6.796875 11.054688 Z M 6.796875 10.253906 "/>
<path style=" stroke:none;fill-rule:nonzero;fill:rgb(66.666667%,87.058824%,52.941176%);fill-opacity:1;" d="M 8.789062 10.253906 L 10.511719 10.253906 L 10.511719 11.054688 L 8.789062 11.054688 Z M 8.789062 10.253906 "/>
<path style=" stroke:none;fill-rule:nonzero;fill:rgb(66.666667%,87.058824%,52.941176%);fill-opacity:1;" d="M 10.777344 10.253906 L 12.503906 10.253906 L 12.503906 11.054688 L 10.777344 11.054688 Z M 10.777344 10.253906 "/>
<path style=" stroke:none;fill-rule:nonzero;fill:rgb(66.666667%,87.058824%,52.941176%);fill-opacity:1;" d="M 4.804688 11.320312 L 6.53125 11.320312 L 6.53125 12.121094 L 4.804688 12.121094 Z M 4.804688 11.320312 "/>
<path style=" stroke:none;fill-rule:nonzero;fill:rgb(66.666667%,87.058824%,52.941176%);fill-opacity:1;" d="M 6.796875 11.320312 L 8.523438 11.320312 L 8.523438 12.121094 L 6.796875 12.121094 Z M 6.796875 11.320312 "/>
<path style=" stroke:none;fill-rule:nonzero;fill:rgb(66.666667%,87.058824%,52.941176%);fill-opacity:1;" d="M 8.789062 11.320312 L 10.511719 11.320312 L 10.511719 12.121094 L 8.789062 12.121094 Z M 8.789062 11.320312 "/>
<path style=" stroke:none;fill-rule:nonzero;fill:rgb(66.666667%,87.058824%,52.941176%);fill-opacity:1;" d="M 10.777344 11.320312 L 12.503906 11.320312 L 12.503906 12.121094 L 10.777344 12.121094 Z M 10.777344 11.320312 "/>
<path style=" stroke:none;fill-rule:nonzero;fill:rgb(66.666667%,87.058824%,52.941176%);fill-opacity:1;" d="M 4.820312 12.394531 L 6.546875 12.394531 L 6.546875 13.195312 L 4.820312 13.195312 Z M 4.820312 12.394531 "/>
<path style=" stroke:none;fill-rule:nonzero;fill:rgb(66.666667%,87.058824%,52.941176%);fill-opacity:1;" d="M 6.8125 12.394531 L 8.539062 12.394531 L 8.539062 13.195312 L 6.8125 13.195312 Z M 6.8125 12.394531 "/>
<path style=" stroke:none;fill-rule:nonzero;fill:rgb(66.666667%,87.058824%,52.941176%);fill-opacity:1;" d="M 8.804688 12.394531 L 10.53125 12.394531 L 10.53125 13.195312 L 8.804688 13.195312 Z M 8.804688 12.394531 "/>
<path style=" stroke:none;fill-rule:nonzero;fill:rgb(66.666667%,87.058824%,52.941176%);fill-opacity:1;" d="M 10.796875 12.394531 L 12.523438 12.394531 L 12.523438 13.195312 L 10.796875 13.195312 Z M 10.796875 12.394531 "/>
<path style=" stroke:none;fill-rule:nonzero;fill:rgb(66.666667%,87.058824%,52.941176%);fill-opacity:1;" d="M 4.820312 13.460938 L 6.546875 13.460938 L 6.546875 14.257812 L 4.820312 14.257812 Z M 4.820312 13.460938 "/>
<path style=" stroke:none;fill-rule:nonzero;fill:rgb(66.666667%,87.058824%,52.941176%);fill-opacity:1;" d="M 6.8125 13.460938 L 8.539062 13.460938 L 8.539062 14.257812 L 6.8125 14.257812 Z M 6.8125 13.460938 "/>
<path style=" stroke:none;fill-rule:nonzero;fill:rgb(66.666667%,87.058824%,52.941176%);fill-opacity:1;" d="M 8.804688 13.460938 L 10.53125 13.460938 L 10.53125 14.257812 L 8.804688 14.257812 Z M 8.804688 13.460938 "/>
<path style=" stroke:none;fill-rule:nonzero;fill:rgb(66.666667%,87.058824%,52.941176%);fill-opacity:1;" d="M 10.796875 13.460938 L 12.523438 13.460938 L 12.523438 14.257812 L 10.796875 14.257812 Z M 10.796875 13.460938 "/>
<path style=" stroke:none;fill-rule:nonzero;fill:rgb(22.352941%,25.098039%,31.372549%);fill-opacity:1;" d="M 13.375 12.089844 L 13.375 14.851562 C 13.375 15.003906 13.203125 15.125 12.988281 15.125 L 8.871094 15.125 C 8.65625 15.125 8.484375 15.003906 8.484375 14.851562 L 8.484375 12.089844 C 8.484375 11.9375 8.65625 11.816406 8.871094 11.816406 L 12.988281 11.816406 C 13.203125 11.816406 13.375 11.9375 13.375 12.089844 Z M 13.375 12.089844 "/>
<path style=" stroke:none;fill-rule:nonzero;fill:rgb(100%,100%,100%);fill-opacity:1;" d="M 13.199219 11.972656 C 13.164062 11.949219 13.117188 11.953125 13.117188 11.953125 L 8.746094 11.953125 C 8.746094 11.953125 8.699219 11.953125 8.675781 11.972656 C 8.652344 11.988281 8.648438 12.03125 8.648438 12.03125 L 8.648438 14.90625 C 8.648438 14.90625 8.644531 14.953125 8.667969 14.976562 C 8.691406 14.996094 8.746094 14.996094 8.746094 14.996094 L 12.988281 14.996094 C 12.988281 14.996094 13.101562 15.007812 13.171875 14.949219 C 13.238281 14.894531 13.222656 14.796875 13.222656 14.796875 L 13.230469 12.039062 C 13.230469 12.039062 13.234375 11.996094 13.199219 11.972656 Z M 13.199219 11.972656 "/>
<path style=" stroke:none;fill-rule:nonzero;fill:rgb(100%,80%,0%);fill-opacity:1;" d="M 11.105469 14.476562 L 10.742188 14.476562 C 10.691406 14.476562 10.652344 14.433594 10.652344 14.382812 L 10.652344 12.929688 C 10.652344 12.878906 10.691406 12.839844 10.742188 12.839844 L 11.105469 12.839844 C 11.15625 12.839844 11.195312 12.878906 11.195312 12.929688 L 11.195312 14.382812 C 11.195312 14.433594 11.15625 14.476562 11.105469 14.476562 Z M 11.105469 14.476562 "/>
<path style=" stroke:none;fill-rule:nonzero;fill:rgb(94.117647%,22.352941%,8.627451%);fill-opacity:1;" d="M 10.289062 14.476562 L 9.921875 14.476562 C 9.875 14.476562 9.832031 14.433594 9.832031 14.382812 L 9.832031 13.382812 C 9.832031 13.332031 9.875 13.292969 9.921875 13.292969 L 10.289062 13.292969 C 10.335938 13.292969 10.378906 13.332031 10.378906 13.382812 L 10.378906 14.382812 C 10.378906 14.433594 10.335938 14.476562 10.289062 14.476562 Z M 10.289062 14.476562 "/>
<path style=" stroke:none;fill-rule:nonzero;fill:rgb(0%,26.666667%,33.333333%);fill-opacity:1;" d="M 9.46875 14.476562 L 9.105469 14.476562 C 9.054688 14.476562 9.015625 14.433594 9.015625 14.382812 L 9.015625 13.839844 C 9.015625 13.789062 9.054688 13.746094 9.105469 13.746094 L 9.46875 13.746094 C 9.519531 13.746094 9.558594 13.789062 9.558594 13.839844 L 9.558594 14.382812 C 9.558594 14.433594 9.519531 14.476562 9.46875 14.476562 Z M 9.46875 14.476562 "/>
<path style=" stroke:none;fill-rule:nonzero;fill:rgb(27.058824%,81.568627%,24.705882%);fill-opacity:1;" d="M 11.921875 14.476562 L 11.558594 14.476562 C 11.507812 14.476562 11.46875 14.433594 11.46875 14.382812 L 11.46875 13.382812 C 11.46875 13.332031 11.507812 13.292969 11.558594 13.292969 L 11.921875 13.292969 C 11.972656 13.292969 12.015625 13.332031 12.015625 13.382812 L 12.015625 14.382812 C 12.015625 14.433594 11.972656 14.476562 11.921875 14.476562 Z M 11.921875 14.476562 "/>
<path style=" stroke:none;fill-rule:nonzero;fill:rgb(0%,73.333333%,94.901961%);fill-opacity:1;" d="M 12.742188 14.476562 L 12.378906 14.476562 C 12.328125 14.476562 12.289062 14.433594 12.289062 14.382812 L 12.289062 12.382812 C 12.289062 12.335938 12.328125 12.292969 12.378906 12.292969 L 12.742188 12.292969 C 12.792969 12.292969 12.832031 12.335938 12.832031 12.382812 L 12.832031 14.382812 C 12.832031 14.433594 12.792969 14.476562 12.742188 14.476562 Z M 12.742188 14.476562 "/>
<path style=" stroke:none;fill-rule:nonzero;fill:rgb(22.352941%,25.098039%,31.372549%);fill-opacity:1;" d="M 13.015625 14.566406 L 8.832031 14.566406 C 8.78125 14.566406 8.742188 14.523438 8.742188 14.476562 C 8.742188 14.425781 8.78125 14.382812 8.832031 14.382812 L 13.015625 14.382812 C 13.0625 14.382812 13.105469 14.425781 13.105469 14.476562 C 13.105469 14.523438 13.0625 14.566406 13.015625 14.566406 Z M 13.015625 14.566406 "/>
</g>
</svg>
