<?xml version="1.0" encoding="UTF-8"?>
<svg xmlns="http://www.w3.org/2000/svg" xmlns:xlink="http://www.w3.org/1999/xlink" width="28" height="28" viewBox="0 0 28 28" version="1.1">
<g id="surface1">
<path style=" stroke:none;fill-rule:nonzero;fill:rgb(100%,100%,100%);fill-opacity:1;" d="M 18.027344 1.167969 C 17.214844 1.167969 16.582031 1.171875 16.332031 1.183594 C 15.34375 1.242188 14.851562 1.859375 14.65625 2.769531 C 14.632812 3.230469 14.65625 10.792969 14.65625 10.792969 C 14.65625 11.722656 15.402344 12.488281 16.332031 12.488281 L 25.136719 12.488281 C 26.070312 12.488281 26.816406 11.722656 26.816406 10.792969 C 26.816406 9.859375 26.929688 2.894531 26.6875 2.261719 C 26.445312 1.628906 25.859375 1.183594 25.136719 1.183594 C 24.597656 1.183594 20.472656 1.160156 18.027344 1.167969 Z M 12.816406 2.023438 C 12.386719 2.046875 11.976562 2.226562 11.667969 2.570312 C 11.046875 3.257812 11.109375 4.320312 11.792969 4.941406 C 12.480469 5.558594 13.527344 5.5 14.144531 4.8125 C 14.765625 4.125 14.703125 3.0625 14.019531 2.441406 C 13.675781 2.132812 13.242188 2 12.816406 2.023438 Z M 16.933594 2.496094 L 24.519531 2.496094 C 25.058594 2.496094 25.503906 2.921875 25.503906 3.464844 L 25.503906 10.207031 C 25.503906 10.75 25.058594 11.175781 24.519531 11.175781 L 16.933594 11.175781 C 16.394531 11.175781 15.949219 10.75 15.949219 10.207031 L 15.949219 3.464844 C 15.949219 2.921875 16.394531 2.496094 16.933594 2.496094 Z M 7.457031 4.867188 C 7.152344 4.882812 6.855469 5.007812 6.636719 5.25 C 6.199219 5.738281 6.238281 6.488281 6.726562 6.925781 C 7.214844 7.363281 7.964844 7.324219 8.402344 6.835938 C 8.839844 6.347656 8.800781 5.597656 8.3125 5.160156 C 8.070312 4.941406 7.757812 4.851562 7.457031 4.867188 Z M 4.136719 10.027344 C 3.976562 10.046875 3.8125 10.109375 3.683594 10.226562 C 3.335938 10.535156 3.300781 11.0625 3.609375 11.410156 C 3.917969 11.757812 4.445312 11.792969 4.792969 11.484375 C 5.140625 11.175781 5.175781 10.648438 4.867188 10.300781 C 4.675781 10.082031 4.40625 9.992188 4.136719 10.027344 Z M 4.539062 15.511719 C 3.726562 15.515625 3.109375 15.515625 2.863281 15.53125 C 1.875 15.589844 1.363281 16.207031 1.167969 17.117188 C 1.15625 17.339844 1.164062 19.292969 1.167969 21.199219 C 1.167969 21.242188 1.167969 21.25 1.167969 21.292969 C 1.167969 23.238281 1.167969 25.136719 1.167969 25.136719 C 1.167969 26.070312 1.929688 26.832031 2.863281 26.832031 L 11.648438 26.832031 C 12.582031 26.832031 13.324219 26.070312 13.324219 25.136719 C 13.324219 24.207031 13.457031 17.238281 13.214844 16.605469 C 12.976562 15.972656 12.371094 15.53125 11.648438 15.53125 C 11.109375 15.53125 6.980469 15.503906 4.539062 15.511719 Z M 3.445312 16.84375 L 11.027344 16.84375 C 11.570312 16.84375 12.011719 17.269531 12.011719 17.808594 L 12.011719 24.554688 C 12.011719 25.097656 11.570312 25.519531 11.027344 25.519531 L 3.445312 25.519531 C 2.902344 25.519531 2.460938 25.097656 2.460938 24.554688 L 2.460938 17.808594 C 2.460938 17.269531 2.902344 16.84375 3.445312 16.84375 Z M 3.445312 16.84375 "/>
</g>
</svg>
