<?xml version="1.0" encoding="UTF-8"?>
<svg xmlns="http://www.w3.org/2000/svg" xmlns:xlink="http://www.w3.org/1999/xlink" width="28" height="28" viewBox="0 0 28 28" version="1.1">
<g id="surface1">
<path style=" stroke:none;fill-rule:nonzero;fill:rgb(100%,100%,100%);fill-opacity:1;" d="M 18.027344 1.167969 C 17.214844 1.167969 16.582031 1.171875 16.332031 1.183594 C 15.40625 1.238281 14.929688 1.789062 14.710938 2.605469 C 14.417969 2.058594 13.890625 1.640625 13.234375 1.53125 C 13.09375 1.507812 12.953125 1.507812 12.816406 1.511719 C 11.859375 1.550781 11.027344 2.246094 10.863281 3.226562 C 10.679688 4.347656 11.441406 5.394531 12.558594 5.578125 C 13.414062 5.71875 14.230469 5.324219 14.65625 4.628906 C 14.652344 6.878906 14.65625 10.792969 14.65625 10.792969 C 14.65625 11.722656 15.402344 12.488281 16.332031 12.488281 L 25.136719 12.488281 C 26.070312 12.488281 26.816406 11.722656 26.816406 10.792969 C 26.816406 9.859375 26.929688 2.894531 26.6875 2.261719 C 26.445312 1.628906 25.859375 1.183594 25.136719 1.183594 C 24.597656 1.183594 20.472656 1.160156 18.027344 1.167969 Z M 16.933594 2.496094 L 24.519531 2.496094 C 25.058594 2.496094 25.503906 2.921875 25.503906 3.464844 L 25.503906 10.207031 C 25.503906 10.75 25.058594 11.175781 24.519531 11.175781 L 16.933594 11.175781 C 16.394531 11.175781 15.949219 10.75 15.949219 10.207031 L 15.949219 3.464844 C 15.949219 2.921875 16.394531 2.496094 16.933594 2.496094 Z M 7.457031 4.230469 C 6.679688 4.257812 6 4.835938 5.871094 5.632812 C 5.71875 6.542969 6.34375 7.398438 7.253906 7.546875 C 8.167969 7.695312 9.019531 7.089844 9.167969 6.179688 C 9.320312 5.269531 8.714844 4.398438 7.800781 4.246094 C 7.6875 4.230469 7.566406 4.226562 7.457031 4.230469 Z M 4.210938 9.605469 C 3.660156 9.628906 3.175781 10.027344 3.082031 10.589844 C 2.972656 11.238281 3.417969 11.851562 4.066406 11.957031 C 4.710938 12.066406 5.324219 11.621094 5.433594 10.972656 C 5.539062 10.328125 5.09375 9.730469 4.449219 9.625 C 4.367188 9.609375 4.289062 9.605469 4.210938 9.605469 Z M 4.539062 15.511719 C 3.726562 15.515625 3.109375 15.515625 2.863281 15.53125 C 1.875 15.589844 1.363281 16.207031 1.167969 17.117188 C 1.15625 17.339844 1.164062 19.292969 1.167969 21.199219 C 1.167969 21.242188 1.167969 21.25 1.167969 21.292969 C 1.167969 23.238281 1.167969 25.136719 1.167969 25.136719 C 1.167969 26.070312 1.929688 26.832031 2.863281 26.832031 L 11.648438 26.832031 C 12.582031 26.832031 13.324219 26.070312 13.324219 25.136719 C 13.324219 24.207031 13.457031 17.238281 13.214844 16.605469 C 12.976562 15.972656 12.371094 15.53125 11.648438 15.53125 C 11.109375 15.53125 6.980469 15.503906 4.539062 15.511719 Z M 3.445312 16.84375 L 11.027344 16.84375 C 11.570312 16.84375 12.011719 17.269531 12.011719 17.808594 L 12.011719 24.554688 C 12.011719 25.097656 11.570312 25.519531 11.027344 25.519531 L 3.445312 25.519531 C 2.902344 25.519531 2.460938 25.097656 2.460938 24.554688 L 2.460938 17.808594 C 2.460938 17.269531 2.902344 16.84375 3.445312 16.84375 Z M 3.773438 18.136719 L 3.773438 24.226562 L 10.71875 24.226562 L 10.71875 18.136719 Z M 3.773438 18.136719 "/>
</g>
</svg>
