<?xml version="1.0" encoding="UTF-8"?>
<svg xmlns="http://www.w3.org/2000/svg" xmlns:xlink="http://www.w3.org/1999/xlink" width="28" height="28" viewBox="0 0 28 28" version="1.1">
<g id="surface1">
<path style=" stroke:none;fill-rule:nonzero;fill:rgb(100%,100%,100%);fill-opacity:1;" d="M 18.027344 1.167969 C 17.214844 1.167969 16.582031 1.171875 16.332031 1.183594 C 15.34375 1.242188 14.851562 1.859375 14.65625 2.769531 C 14.632812 3.230469 14.65625 10.792969 14.65625 10.792969 C 14.65625 11.722656 15.402344 12.488281 16.332031 12.488281 L 25.136719 12.488281 C 26.070312 12.488281 26.816406 11.722656 26.816406 10.792969 C 26.816406 9.859375 26.929688 2.894531 26.6875 2.261719 C 26.445312 1.628906 25.859375 1.183594 25.136719 1.183594 C 24.597656 1.183594 20.472656 1.160156 18.027344 1.167969 Z M 16.933594 2.496094 L 24.519531 2.496094 C 25.058594 2.496094 25.503906 2.921875 25.503906 3.464844 L 25.503906 10.207031 C 25.503906 10.75 25.058594 11.175781 24.519531 11.175781 L 16.933594 11.175781 C 16.394531 11.175781 15.949219 10.75 15.949219 10.207031 L 15.949219 3.464844 C 15.949219 2.921875 16.394531 2.496094 16.933594 2.496094 Z M 24.207031 12.871094 C 23.886719 12.898438 23.566406 13.015625 23.296875 13.234375 C 22.578125 13.816406 22.476562 14.867188 23.058594 15.585938 C 23.640625 16.304688 24.691406 16.421875 25.410156 15.839844 C 26.128906 15.257812 26.230469 14.207031 25.648438 13.488281 C 25.285156 13.039062 24.742188 12.824219 24.207031 12.871094 Z M 4.539062 15.511719 C 3.726562 15.515625 3.109375 15.515625 2.863281 15.53125 C 1.875 15.589844 1.363281 16.207031 1.167969 17.117188 C 1.140625 17.574219 1.167969 25.136719 1.167969 25.136719 C 1.167969 26.070312 1.929688 26.832031 2.863281 26.832031 L 11.648438 26.832031 C 12.582031 26.832031 13.324219 26.070312 13.324219 25.136719 C 13.324219 24.207031 13.457031 17.238281 13.214844 16.605469 C 12.976562 15.972656 12.371094 15.53125 11.648438 15.53125 C 11.109375 15.53125 6.980469 15.503906 4.539062 15.511719 Z M 3.445312 16.84375 L 11.027344 16.84375 C 11.570312 16.84375 12.011719 17.269531 12.011719 17.808594 L 12.011719 24.554688 C 12.011719 25.097656 11.570312 25.519531 11.027344 25.519531 L 3.445312 25.519531 C 2.902344 25.519531 2.460938 25.097656 2.460938 24.554688 L 2.460938 17.808594 C 2.460938 17.269531 2.902344 16.84375 3.445312 16.84375 Z M 22.347656 18.066406 C 21.953125 18.097656 21.566406 18.253906 21.238281 18.519531 C 20.355469 19.234375 20.230469 20.519531 20.945312 21.402344 C 21.660156 22.28125 22.945312 22.425781 23.824219 21.710938 C 24.707031 20.996094 24.847656 19.695312 24.136719 18.8125 C 23.6875 18.261719 23.003906 18.007812 22.347656 18.066406 Z M 3.773438 18.136719 L 3.773438 24.226562 L 10.71875 24.226562 L 10.71875 18.136719 Z M 17.773438 21.308594 C 17.296875 21.351562 16.84375 21.53125 16.441406 21.855469 C 15.375 22.722656 15.195312 24.289062 16.058594 25.355469 C 16.925781 26.425781 18.492188 26.585938 19.558594 25.722656 C 20.628906 24.855469 20.789062 23.289062 19.925781 22.222656 C 19.382812 21.554688 18.570312 21.242188 17.773438 21.308594 Z M 17.773438 21.308594 "/>
</g>
</svg>
