<?xml version="1.0" encoding="UTF-8"?>
<svg xmlns="http://www.w3.org/2000/svg" xmlns:xlink="http://www.w3.org/1999/xlink" width="28" height="28" viewBox="0 0 28 28" version="1.1">
<g id="surface1">
<path style=" stroke:none;fill-rule:nonzero;fill:rgb(100%,100%,100%);fill-opacity:1;" d="M 18.027344 1.167969 C 17.214844 1.167969 16.582031 1.171875 16.332031 1.183594 C 15.34375 1.242188 14.851562 1.859375 14.65625 2.769531 C 14.632812 3.230469 14.65625 10.792969 14.65625 10.792969 C 14.65625 11.722656 15.402344 12.488281 16.332031 12.488281 L 25.136719 12.488281 C 26.070312 12.488281 26.816406 11.722656 26.816406 10.792969 C 26.816406 9.859375 26.929688 2.894531 26.6875 2.261719 C 26.445312 1.628906 25.859375 1.183594 25.136719 1.183594 C 24.597656 1.183594 20.472656 1.160156 18.027344 1.167969 Z M 16.933594 2.496094 L 24.519531 2.496094 C 25.058594 2.496094 25.503906 2.921875 25.503906 3.464844 L 25.503906 10.207031 C 25.503906 10.75 25.058594 11.175781 24.519531 11.175781 L 16.933594 11.175781 C 16.394531 11.175781 15.949219 10.75 15.949219 10.207031 L 15.949219 3.464844 C 15.949219 2.921875 16.394531 2.496094 16.933594 2.496094 Z M 17.261719 3.792969 L 17.261719 9.878906 L 24.191406 9.878906 L 24.191406 3.792969 Z M 3.882812 14.382812 C 3.40625 14.371094 2.933594 14.507812 2.496094 14.785156 C 1.878906 15.179688 1.5 15.792969 1.386719 16.460938 C 1.285156 16.65625 1.21875 16.875 1.167969 17.117188 C 1.15625 17.339844 1.164062 19.292969 1.167969 21.199219 C 1.167969 21.242188 1.167969 21.25 1.167969 21.292969 C 1.167969 23.238281 1.167969 25.136719 1.167969 25.136719 C 1.167969 26.070312 1.929688 26.832031 2.863281 26.832031 L 11.648438 26.832031 C 12.421875 26.832031 13.054688 26.304688 13.253906 25.59375 C 13.984375 25.085938 14.191406 24.09375 13.707031 23.332031 C 13.605469 23.175781 13.480469 23.042969 13.34375 22.933594 C 13.371094 20.546875 13.398438 17.078125 13.214844 16.605469 C 12.976562 15.972656 12.371094 15.53125 11.648438 15.53125 C 11.210938 15.53125 8.246094 15.515625 5.90625 15.511719 C 5.441406 14.804688 4.671875 14.402344 3.882812 14.382812 Z M 3.445312 16.84375 L 11.027344 16.84375 C 11.570312 16.84375 12.011719 17.269531 12.011719 17.808594 L 12.011719 24.554688 C 12.011719 25.097656 11.570312 25.519531 11.027344 25.519531 L 3.445312 25.519531 C 2.902344 25.519531 2.460938 25.097656 2.460938 24.554688 L 2.460938 17.808594 C 2.460938 17.269531 2.902344 16.84375 3.445312 16.84375 Z M 3.773438 18.136719 L 3.773438 24.226562 L 10.71875 24.226562 L 10.71875 18.136719 Z M 22.511719 18.792969 C 22.402344 18.800781 22.308594 18.816406 22.203125 18.867188 C 21.785156 19.070312 21.597656 19.578125 21.800781 19.996094 C 22.007812 20.414062 22.515625 20.585938 22.933594 20.378906 C 23.351562 20.175781 23.519531 19.6875 23.316406 19.269531 C 23.160156 18.957031 22.839844 18.777344 22.511719 18.792969 Z M 18.15625 22.203125 C 17.929688 22.195312 17.6875 22.273438 17.480469 22.402344 C 16.929688 22.757812 16.765625 23.492188 17.117188 24.042969 C 17.46875 24.597656 18.207031 24.742188 18.757812 24.390625 C 19.308594 24.039062 19.476562 23.300781 19.121094 22.75 C 18.902344 22.40625 18.539062 22.214844 18.15625 22.203125 Z M 18.15625 22.203125 "/>
</g>
</svg>
