<?xml version="1.0" encoding="UTF-8"?>
<svg xmlns="http://www.w3.org/2000/svg" xmlns:xlink="http://www.w3.org/1999/xlink" width="28" height="28" viewBox="0 0 28 28" version="1.1">
<g id="surface1">
<path style=" stroke:none;fill-rule:nonzero;fill:rgb(100%,100%,100%);fill-opacity:1;" d="M 18.027344 1.167969 C 17.214844 1.167969 16.582031 1.171875 16.332031 1.183594 C 15.34375 1.242188 14.851562 1.859375 14.65625 2.769531 C 14.632812 3.230469 14.65625 10.792969 14.65625 10.792969 C 14.65625 11.722656 15.402344 12.488281 16.332031 12.488281 L 25.136719 12.488281 C 26.070312 12.488281 26.816406 11.722656 26.816406 10.792969 C 26.816406 9.859375 26.929688 2.894531 26.6875 2.261719 C 26.445312 1.628906 25.859375 1.183594 25.136719 1.183594 C 24.597656 1.183594 20.472656 1.160156 18.027344 1.167969 Z M 16.933594 2.496094 L 24.519531 2.496094 C 25.058594 2.496094 25.503906 2.921875 25.503906 3.464844 L 25.503906 10.207031 C 25.503906 10.75 25.058594 11.175781 24.519531 11.175781 L 16.933594 11.175781 C 16.394531 11.175781 15.949219 10.75 15.949219 10.207031 L 15.949219 3.464844 C 15.949219 2.921875 16.394531 2.496094 16.933594 2.496094 Z M 3.863281 8.496094 C 2.492188 8.5 1.382812 9.617188 1.386719 10.992188 C 1.390625 12.367188 2.507812 13.476562 3.882812 13.472656 C 5.257812 13.46875 6.367188 12.347656 6.363281 10.972656 C 6.359375 9.601562 5.238281 8.492188 3.863281 8.496094 Z M 3.882812 14.765625 C 3.171875 14.769531 2.554688 15.128906 2.1875 15.675781 C 2.183594 15.679688 2.191406 15.691406 2.1875 15.695312 C 1.632812 15.941406 1.3125 16.445312 1.167969 17.117188 C 1.15625 17.339844 1.164062 19.292969 1.167969 21.199219 C 1.167969 21.242188 1.167969 21.25 1.167969 21.292969 C 1.167969 23.238281 1.167969 25.136719 1.167969 25.136719 C 1.167969 26.070312 1.929688 26.832031 2.863281 26.832031 L 11.648438 26.832031 C 12.582031 26.832031 13.324219 26.070312 13.324219 25.136719 C 13.324219 25.117188 13.324219 24.964844 13.324219 24.9375 C 13.519531 24.722656 13.636719 24.445312 13.636719 24.136719 C 13.632812 23.839844 13.523438 23.578125 13.34375 23.371094 C 13.371094 21.082031 13.410156 17.109375 13.214844 16.605469 C 12.976562 15.972656 12.371094 15.53125 11.648438 15.53125 C 11.175781 15.53125 7.882812 15.511719 5.449219 15.511719 C 5.074219 15.0625 4.515625 14.765625 3.882812 14.765625 Z M 3.445312 16.84375 L 11.027344 16.84375 C 11.570312 16.84375 12.011719 17.269531 12.011719 17.808594 L 12.011719 24.554688 C 12.011719 25.097656 11.570312 25.519531 11.027344 25.519531 L 3.445312 25.519531 C 2.902344 25.519531 2.460938 25.097656 2.460938 24.554688 L 2.460938 17.808594 C 2.460938 17.269531 2.902344 16.84375 3.445312 16.84375 Z M 3.773438 18.136719 L 3.773438 24.226562 L 10.71875 24.226562 L 10.71875 18.136719 Z M 18.136719 22.496094 C 17.746094 22.53125 17.433594 22.835938 17.390625 23.242188 C 17.339844 23.703125 17.675781 24.121094 18.136719 24.171875 C 18.601562 24.222656 19 23.90625 19.050781 23.441406 C 19.101562 22.980469 18.78125 22.5625 18.320312 22.511719 C 18.261719 22.507812 18.195312 22.488281 18.136719 22.496094 Z M 18.136719 22.496094 "/>
</g>
</svg>
