<?xml version="1.0" encoding="UTF-8"?>
<svg xmlns="http://www.w3.org/2000/svg" xmlns:xlink="http://www.w3.org/1999/xlink" width="28" height="28" viewBox="0 0 28 28" version="1.1">
<g id="surface1">
<path style=" stroke:none;fill-rule:nonzero;fill:rgb(100%,100%,100%);fill-opacity:1;" d="M 18.027344 1.167969 C 17.214844 1.167969 16.582031 1.171875 16.332031 1.183594 C 15.34375 1.242188 14.851562 1.859375 14.65625 2.769531 C 14.632812 3.230469 14.65625 10.792969 14.65625 10.792969 C 14.65625 11.722656 15.402344 12.488281 16.332031 12.488281 L 25.136719 12.488281 C 26.070312 12.488281 26.816406 11.722656 26.816406 10.792969 C 26.816406 9.859375 26.929688 2.894531 26.6875 2.261719 C 26.445312 1.628906 25.859375 1.183594 25.136719 1.183594 C 24.597656 1.183594 20.472656 1.160156 18.027344 1.167969 Z M 16.933594 2.496094 L 24.519531 2.496094 C 25.058594 2.496094 25.503906 2.921875 25.503906 3.464844 L 25.503906 10.207031 C 25.503906 10.75 25.058594 11.175781 24.519531 11.175781 L 16.933594 11.175781 C 16.394531 11.175781 15.949219 10.75 15.949219 10.207031 L 15.949219 3.464844 C 15.949219 2.921875 16.394531 2.496094 16.933594 2.496094 Z M 24.117188 13.253906 C 23.464844 13.324219 23.003906 13.914062 23.078125 14.566406 C 23.152344 15.214844 23.738281 15.675781 24.390625 15.605469 C 25.042969 15.53125 25.503906 14.960938 25.429688 14.308594 C 25.355469 13.660156 24.769531 13.179688 24.117188 13.253906 Z M 4.539062 15.511719 C 3.726562 15.515625 3.109375 15.515625 2.863281 15.53125 C 1.875 15.589844 1.363281 16.207031 1.167969 17.117188 C 1.15625 17.339844 1.164062 19.292969 1.167969 21.199219 C 1.167969 21.242188 1.167969 21.25 1.167969 21.292969 C 1.167969 23.238281 1.167969 25.136719 1.167969 25.136719 C 1.167969 26.070312 1.929688 26.832031 2.863281 26.832031 L 11.648438 26.832031 C 11.882812 26.878906 12.125 26.898438 12.378906 26.871094 C 13.742188 26.714844 14.738281 25.480469 14.582031 24.117188 C 14.492188 23.304688 14.003906 22.636719 13.34375 22.257812 C 13.363281 19.867188 13.378906 17.03125 13.214844 16.605469 C 12.976562 15.972656 12.371094 15.53125 11.648438 15.53125 C 11.109375 15.53125 6.980469 15.503906 4.539062 15.511719 Z M 3.445312 16.84375 L 11.027344 16.84375 C 11.570312 16.84375 12.011719 17.269531 12.011719 17.808594 L 12.011719 24.554688 C 12.011719 25.097656 11.570312 25.519531 11.027344 25.519531 L 3.445312 25.519531 C 2.902344 25.519531 2.460938 25.097656 2.460938 24.554688 L 2.460938 17.808594 C 2.460938 17.269531 2.902344 16.84375 3.445312 16.84375 Z M 3.773438 18.136719 L 3.773438 24.226562 L 10.71875 24.226562 L 10.71875 18.136719 Z M 22.238281 18.355469 C 21.320312 18.460938 20.679688 19.296875 20.78125 20.214844 C 20.882812 21.132812 21.703125 21.796875 22.621094 21.691406 C 23.539062 21.589844 24.203125 20.75 24.097656 19.832031 C 23.996094 18.914062 23.15625 18.253906 22.238281 18.355469 Z M 18.082031 21.691406 C 17.949219 21.679688 17.824219 21.695312 17.683594 21.710938 C 16.554688 21.839844 15.730469 22.84375 15.859375 23.972656 C 15.988281 25.097656 17.011719 25.921875 18.136719 25.792969 C 19.265625 25.667969 20.070312 24.644531 19.941406 23.515625 C 19.832031 22.53125 19.035156 21.777344 18.082031 21.691406 Z M 18.082031 21.691406 "/>
</g>
</svg>
