<?xml version="1.0" encoding="UTF-8"?>
<svg xmlns="http://www.w3.org/2000/svg" xmlns:xlink="http://www.w3.org/1999/xlink" width="28" height="28" viewBox="0 0 28 28" version="1.1">
<g id="surface1">
<path style=" stroke:none;fill-rule:nonzero;fill:rgb(100%,100%,100%);fill-opacity:1;" d="M 18.027344 1.167969 C 17.214844 1.167969 16.582031 1.171875 16.332031 1.183594 C 15.34375 1.242188 14.851562 1.859375 14.65625 2.769531 C 14.632812 3.230469 14.65625 10.792969 14.65625 10.792969 C 14.65625 11.722656 15.402344 12.488281 16.332031 12.488281 L 25.136719 12.488281 C 26.070312 12.488281 26.816406 11.722656 26.816406 10.792969 C 26.816406 9.859375 26.929688 2.894531 26.6875 2.261719 C 26.445312 1.628906 25.859375 1.183594 25.136719 1.183594 C 24.597656 1.183594 20.472656 1.160156 18.027344 1.167969 Z M 16.933594 2.496094 L 24.519531 2.496094 C 25.058594 2.496094 25.503906 2.921875 25.503906 3.464844 L 25.503906 10.207031 C 25.503906 10.75 25.058594 11.175781 24.519531 11.175781 L 16.933594 11.175781 C 16.394531 11.175781 15.949219 10.75 15.949219 10.207031 L 15.949219 3.464844 C 15.949219 2.921875 16.394531 2.496094 16.933594 2.496094 Z M 12.925781 2.953125 C 12.65625 2.996094 12.410156 3.164062 12.285156 3.425781 C 12.089844 3.847656 12.265625 4.359375 12.6875 4.558594 C 13.109375 4.753906 13.621094 4.578125 13.816406 4.15625 C 14.015625 3.734375 13.820312 3.222656 13.398438 3.027344 C 13.242188 2.953125 13.085938 2.929688 12.925781 2.953125 Z M 24.335938 12.578125 C 23.539062 12.636719 22.804688 13.160156 22.53125 13.964844 C 22.167969 15.039062 22.75 16.207031 23.824219 16.570312 C 24.898438 16.933594 26.066406 16.351562 26.433594 15.277344 C 26.796875 14.203125 26.210938 13.035156 25.136719 12.667969 C 24.867188 12.578125 24.601562 12.558594 24.335938 12.578125 Z M 4.539062 15.511719 C 3.726562 15.515625 3.109375 15.515625 2.863281 15.53125 C 1.875 15.589844 1.363281 16.207031 1.167969 17.117188 C 1.140625 17.574219 1.167969 25.136719 1.167969 25.136719 C 1.167969 26.070312 1.929688 26.832031 2.863281 26.832031 L 11.648438 26.832031 C 12.582031 26.832031 13.324219 26.070312 13.324219 25.136719 C 13.324219 24.207031 13.457031 17.238281 13.214844 16.605469 C 12.976562 15.972656 12.371094 15.53125 11.648438 15.53125 C 11.109375 15.53125 6.980469 15.503906 4.539062 15.511719 Z M 3.445312 16.84375 L 11.027344 16.84375 C 11.570312 16.84375 12.011719 17.269531 12.011719 17.808594 L 12.011719 24.554688 C 12.011719 25.097656 11.570312 25.519531 11.027344 25.519531 L 3.445312 25.519531 C 2.902344 25.519531 2.460938 25.097656 2.460938 24.554688 L 2.460938 17.808594 C 2.460938 17.269531 2.902344 16.84375 3.445312 16.84375 Z M 22.421875 17.664062 C 21.457031 17.734375 20.582031 18.367188 20.253906 19.339844 C 19.8125 20.640625 20.5 22.054688 21.800781 22.496094 C 23.101562 22.9375 24.515625 22.246094 24.957031 20.945312 C 25.398438 19.644531 24.707031 18.234375 23.40625 17.792969 C 23.082031 17.679688 22.742188 17.640625 22.421875 17.664062 Z M 22.421875 17.664062 "/>
</g>
</svg>
