<?xml version="1.0" encoding="UTF-8"?>
<svg xmlns="http://www.w3.org/2000/svg" xmlns:xlink="http://www.w3.org/1999/xlink" width="28" height="28" viewBox="0 0 28 28" version="1.1">
<g id="surface1">
<path style=" stroke:none;fill-rule:nonzero;fill:rgb(100%,100%,100%);fill-opacity:1;" d="M 16.296875 3.589844 C 15.882812 3.636719 15.574219 4.015625 15.621094 4.429688 C 15.667969 4.84375 16.046875 5.132812 16.460938 5.085938 C 16.875 5.039062 17.183594 4.664062 17.136719 4.246094 C 17.089844 3.832031 16.710938 3.542969 16.296875 3.589844 Z M 9.480469 5.175781 C 6.816406 5.175781 4.902344 6.78125 4.902344 9.386719 L 4.902344 11.667969 L 4.15625 11.667969 C 3.394531 11.667969 3.007812 12.050781 3.007812 12.816406 L 3.007812 19.304688 C 3.007812 19.679688 3.394531 20.453125 4.15625 20.453125 L 15.332031 20.453125 C 15.945312 20.449219 16.332031 19.679688 16.332031 19.304688 L 16.332031 12.816406 C 16.332031 12.050781 15.945312 11.667969 15.183594 11.667969 L 14.417969 11.667969 L 14.417969 9.386719 C 14.417969 6.714844 12.527344 5.175781 9.863281 5.175781 Z M 20.507812 5.175781 C 19.863281 5.25 19.414062 5.828125 19.488281 6.472656 C 19.558594 7.113281 20.136719 7.582031 20.78125 7.511719 C 21.425781 7.4375 21.875 6.859375 21.800781 6.214844 C 21.730469 5.574219 21.152344 5.105469 20.507812 5.175781 Z M 9.480469 7.089844 L 9.863281 7.089844 C 12.527344 7.089844 12.523438 9.371094 12.523438 10.136719 L 12.523438 11.667969 L 6.816406 11.667969 L 6.816406 10.136719 C 6.816406 9.371094 6.816406 7.089844 9.480469 7.089844 Z M 23.386719 9.316406 C 22.535156 9.410156 21.925781 10.175781 22.019531 11.027344 C 22.117188 11.882812 22.882812 12.492188 23.734375 12.394531 C 24.585938 12.300781 25.199219 11.535156 25.101562 10.683594 C 25.003906 9.828125 24.242188 9.21875 23.386719 9.316406 Z M 23.460938 14.964844 C 23.320312 14.953125 23.1875 14.96875 23.042969 14.984375 C 21.875 15.117188 21.03125 16.167969 21.164062 17.335938 C 21.296875 18.503906 22.347656 19.34375 23.515625 19.214844 C 24.683594 19.082031 25.523438 18.03125 25.394531 16.863281 C 25.277344 15.839844 24.445312 15.054688 23.460938 14.964844 Z M 19.742188 20.617188 C 18.367188 20.617188 17.261719 21.738281 17.261719 23.113281 C 17.261719 24.488281 18.367188 25.59375 19.742188 25.59375 C 21.117188 25.59375 22.238281 24.488281 22.238281 23.113281 C 22.238281 21.738281 21.117188 20.617188 19.742188 20.617188 Z M 19.742188 20.617188 "/>
</g>
</svg>
