<?xml version="1.0" encoding="UTF-8"?>
<svg xmlns="http://www.w3.org/2000/svg" xmlns:xlink="http://www.w3.org/1999/xlink" width="28" height="28" viewBox="0 0 28 28" version="1.1">
<g id="surface1">
<path style=" stroke:none;fill-rule:nonzero;fill:rgb(100%,100%,100%);fill-opacity:1;" d="M 16.222656 3.007812 C 15.496094 3.089844 14.976562 3.753906 15.058594 4.484375 C 15.140625 5.214844 15.785156 5.734375 16.515625 5.652344 C 17.246094 5.570312 17.78125 4.921875 17.699219 4.191406 C 17.617188 3.464844 16.953125 2.925781 16.222656 3.007812 Z M 12.722656 3.9375 C 12.257812 3.9375 11.886719 4.3125 11.886719 4.777344 C 11.886719 5.242188 12.257812 5.613281 12.722656 5.613281 C 13.1875 5.613281 13.582031 5.242188 13.582031 4.777344 C 13.582031 4.3125 13.1875 3.9375 12.722656 3.9375 Z M 20.417969 4.320312 C 19.300781 4.445312 18.503906 5.464844 18.628906 6.582031 C 18.757812 7.695312 19.757812 8.492188 20.871094 8.367188 C 21.988281 8.242188 22.785156 7.238281 22.660156 6.125 C 22.53125 5.011719 21.53125 4.195312 20.417969 4.320312 Z M 9.480469 5.175781 C 6.816406 5.175781 4.902344 6.78125 4.902344 9.386719 L 4.902344 11.667969 L 4.15625 11.667969 C 3.394531 11.667969 3.007812 12.050781 3.007812 12.816406 L 3.007812 19.304688 C 3.007812 19.679688 3.394531 20.453125 4.15625 20.453125 L 15.332031 20.453125 C 15.945312 20.449219 16.332031 19.679688 16.332031 19.304688 L 16.332031 12.816406 C 16.332031 12.050781 15.945312 11.667969 15.183594 11.667969 L 14.417969 11.667969 L 14.417969 9.386719 C 14.417969 6.714844 12.527344 5.175781 9.863281 5.175781 Z M 9.480469 7.089844 L 9.863281 7.089844 C 12.527344 7.089844 12.523438 9.371094 12.523438 10.136719 L 12.523438 11.667969 L 6.816406 11.667969 L 6.816406 10.136719 C 6.816406 9.371094 6.816406 7.089844 9.480469 7.089844 Z M 23.277344 8.386719 C 21.914062 8.539062 20.9375 9.773438 21.089844 11.136719 C 21.246094 12.5 22.480469 13.480469 23.84375 13.324219 C 25.207031 13.171875 26.183594 11.9375 26.03125 10.574219 C 25.878906 9.210938 24.640625 8.230469 23.277344 8.386719 Z M 23.277344 8.386719 "/>
</g>
</svg>
