<?xml version="1.0" encoding="UTF-8"?>
<svg xmlns="http://www.w3.org/2000/svg" xmlns:xlink="http://www.w3.org/1999/xlink" width="28" height="28" viewBox="0 0 28 28" version="1.1">
<g id="surface1">
<path style=" stroke:none;fill-rule:nonzero;fill:rgb(100%,100%,100%);fill-opacity:1;" d="M 9.480469 5.175781 C 6.816406 5.175781 4.902344 6.78125 4.902344 9.386719 L 4.902344 11.667969 L 4.15625 11.667969 C 3.394531 11.667969 3.007812 12.050781 3.007812 12.816406 L 3.007812 19.304688 C 3.007812 19.679688 3.394531 20.453125 4.15625 20.453125 L 4.484375 20.453125 C 4.78125 22.082031 6.296875 23.230469 7.964844 23.042969 C 9.390625 22.878906 10.488281 21.792969 10.738281 20.453125 L 15.332031 20.453125 C 15.945312 20.449219 16.332031 19.679688 16.332031 19.304688 L 16.332031 12.816406 C 16.332031 12.050781 15.945312 11.667969 15.183594 11.667969 L 14.417969 11.667969 L 14.417969 9.386719 C 14.417969 6.714844 12.527344 5.175781 9.863281 5.175781 Z M 9.480469 7.089844 L 9.863281 7.089844 C 12.527344 7.089844 12.523438 9.371094 12.523438 10.136719 L 12.523438 11.667969 L 6.816406 11.667969 L 6.816406 10.136719 C 6.816406 9.371094 6.816406 7.089844 9.480469 7.089844 Z M 23.460938 10.027344 C 23.003906 10.078125 22.679688 10.496094 22.730469 10.957031 C 22.785156 11.414062 23.203125 11.738281 23.660156 11.683594 C 24.121094 11.632812 24.441406 11.214844 24.390625 10.753906 C 24.339844 10.296875 23.917969 9.972656 23.460938 10.027344 Z M 23.113281 15.695312 C 22.339844 15.78125 21.789062 16.46875 21.875 17.246094 C 21.960938 18.019531 22.667969 18.589844 23.441406 18.503906 C 24.21875 18.414062 24.769531 17.710938 24.683594 16.933594 C 24.59375 16.160156 23.890625 15.609375 23.113281 15.695312 Z M 19.742188 21.328125 C 18.761719 21.328125 17.972656 22.132812 17.972656 23.113281 C 17.972656 24.09375 18.761719 24.882812 19.742188 24.882812 C 20.722656 24.882812 21.527344 24.09375 21.527344 23.113281 C 21.527344 22.132812 20.722656 21.328125 19.742188 21.328125 Z M 13.234375 22.277344 C 13.074219 22.261719 12.90625 22.277344 12.742188 22.292969 C 11.421875 22.441406 10.480469 23.617188 10.628906 24.9375 C 10.777344 26.257812 11.953125 27.21875 13.269531 27.070312 C 14.589844 26.921875 15.550781 25.726562 15.402344 24.410156 C 15.273438 23.253906 14.347656 22.375 13.234375 22.277344 Z M 13.234375 22.277344 "/>
</g>
</svg>
