<?xml version="1.0" encoding="UTF-8"?>
<svg xmlns="http://www.w3.org/2000/svg" xmlns:xlink="http://www.w3.org/1999/xlink" width="28" height="28" viewBox="0 0 28 28" version="1.1">
<g id="surface1">
<path style=" stroke:none;fill-rule:nonzero;fill:rgb(100%,100%,100%);fill-opacity:1;" d="M 16.242188 3.152344 C 15.589844 3.226562 15.128906 3.816406 15.203125 4.464844 C 15.277344 5.117188 15.863281 5.597656 16.515625 5.523438 C 17.167969 5.449219 17.628906 4.863281 17.554688 4.210938 C 17.480469 3.558594 16.894531 3.082031 16.242188 3.152344 Z M 12.722656 3.9375 C 12.257812 3.9375 11.886719 4.3125 11.886719 4.777344 C 11.886719 5.242188 12.257812 5.613281 12.722656 5.613281 C 13.1875 5.613281 13.582031 5.242188 13.582031 4.777344 C 13.582031 4.3125 13.1875 3.9375 12.722656 3.9375 Z M 20.453125 4.683594 C 19.535156 4.789062 18.875 5.609375 18.976562 6.527344 C 19.078125 7.445312 19.917969 8.105469 20.835938 8.003906 C 21.753906 7.898438 22.414062 7.078125 22.3125 6.160156 C 22.210938 5.242188 21.371094 4.582031 20.453125 4.683594 Z M 9.480469 5.175781 C 6.816406 5.175781 4.902344 6.78125 4.902344 9.386719 L 4.902344 11.667969 L 4.15625 11.667969 C 3.394531 11.667969 3.007812 12.050781 3.007812 12.816406 L 3.007812 19.304688 C 3.007812 19.679688 3.394531 20.453125 4.15625 20.453125 L 15.332031 20.453125 C 15.945312 20.449219 16.332031 19.679688 16.332031 19.304688 L 16.332031 12.816406 C 16.332031 12.050781 15.945312 11.667969 15.183594 11.667969 L 14.417969 11.667969 L 14.417969 9.386719 C 14.417969 6.714844 12.527344 5.175781 9.863281 5.175781 Z M 9.480469 7.089844 L 9.863281 7.089844 C 12.527344 7.089844 12.523438 9.371094 12.523438 10.136719 L 12.523438 11.667969 L 6.816406 11.667969 L 6.816406 10.136719 C 6.816406 9.371094 6.816406 7.089844 9.480469 7.089844 Z M 23.332031 8.804688 C 22.207031 8.933594 21.402344 9.957031 21.527344 11.082031 C 21.65625 12.210938 22.660156 13.015625 23.789062 12.886719 C 24.917969 12.761719 25.738281 11.753906 25.613281 10.628906 C 25.484375 9.5 24.460938 8.675781 23.332031 8.804688 Z M 23.003906 14.621094 C 21.640625 14.773438 20.644531 16.007812 20.800781 17.371094 C 20.953125 18.738281 22.1875 19.714844 23.550781 19.558594 C 24.917969 19.40625 25.894531 18.171875 25.738281 16.808594 C 25.585938 15.441406 24.371094 14.464844 23.003906 14.621094 Z M 23.003906 14.621094 "/>
</g>
</svg>
