<?xml version="1.0" encoding="UTF-8"?>
<svg xmlns="http://www.w3.org/2000/svg" xmlns:xlink="http://www.w3.org/1999/xlink" width="28" height="28" viewBox="0 0 28 28" version="1.1">
<g id="surface1">
<path style=" stroke:none;fill-rule:nonzero;fill:rgb(100%,100%,100%);fill-opacity:1;" d="M 9.480469 5.175781 C 6.816406 5.175781 4.902344 6.78125 4.902344 9.386719 L 4.902344 11.667969 L 4.15625 11.667969 C 3.394531 11.667969 3.007812 12.050781 3.007812 12.816406 L 3.007812 19.304688 C 3.007812 19.679688 3.394531 20.453125 4.15625 20.453125 L 6.671875 20.453125 C 6.886719 20.808594 7.289062 21.03125 7.730469 20.980469 C 8.082031 20.941406 8.378906 20.734375 8.550781 20.453125 L 15.332031 20.453125 C 15.945312 20.449219 16.332031 19.679688 16.332031 19.304688 L 16.332031 12.816406 C 16.332031 12.050781 15.945312 11.667969 15.183594 11.667969 L 14.417969 11.667969 L 14.417969 9.386719 C 14.417969 6.714844 12.527344 5.175781 9.863281 5.175781 Z M 9.480469 7.089844 L 9.863281 7.089844 C 12.527344 7.089844 12.523438 9.371094 12.523438 10.136719 L 12.523438 11.667969 L 6.816406 11.667969 L 6.816406 10.136719 C 6.816406 9.371094 6.816406 7.089844 9.480469 7.089844 Z M 9.480469 7.089844 "/>
</g>
</svg>
