<?xml version="1.0" encoding="UTF-8"?>
<svg xmlns="http://www.w3.org/2000/svg" xmlns:xlink="http://www.w3.org/1999/xlink" width="28" height="28" viewBox="0 0 28 28" version="1.1">
<g id="surface1">
<path style=" stroke:none;fill-rule:nonzero;fill:rgb(100%,100%,100%);fill-opacity:1;" d="M 9.480469 5.175781 C 6.816406 5.175781 4.902344 6.78125 4.902344 9.386719 L 4.902344 11.667969 L 4.15625 11.667969 C 3.394531 11.667969 3.007812 12.050781 3.007812 12.816406 L 3.007812 19.304688 C 3.007812 19.679688 3.394531 20.453125 4.15625 20.453125 L 15.332031 20.453125 C 15.945312 20.449219 16.332031 19.679688 16.332031 19.304688 L 16.332031 12.816406 C 16.332031 12.050781 15.945312 11.667969 15.183594 11.667969 L 14.417969 11.667969 L 14.417969 9.386719 C 14.417969 6.714844 12.527344 5.175781 9.863281 5.175781 Z M 20.542969 5.394531 C 20.019531 5.453125 19.628906 5.925781 19.6875 6.453125 C 19.746094 6.980469 20.21875 7.351562 20.746094 7.292969 C 21.269531 7.234375 21.660156 6.761719 21.601562 6.234375 C 21.542969 5.707031 21.070312 5.335938 20.542969 5.394531 Z M 9.480469 7.089844 L 9.863281 7.089844 C 12.527344 7.089844 12.523438 9.371094 12.523438 10.136719 L 12.523438 11.667969 L 6.816406 11.667969 L 6.816406 10.136719 C 6.816406 9.371094 6.816406 7.089844 9.480469 7.089844 Z M 23.40625 9.515625 C 22.671875 9.597656 22.15625 10.277344 22.238281 11.011719 C 22.324219 11.746094 22.980469 12.261719 23.714844 12.175781 C 24.449219 12.09375 24.984375 11.433594 24.902344 10.699219 C 24.816406 9.964844 24.140625 9.433594 23.40625 9.515625 Z M 23.078125 15.332031 C 22.105469 15.441406 21.402344 16.328125 21.511719 17.300781 C 21.621094 18.269531 22.507812 18.957031 23.480469 18.847656 C 24.449219 18.738281 25.136719 17.871094 25.027344 16.898438 C 24.917969 15.925781 24.050781 15.222656 23.078125 15.332031 Z M 19.742188 20.910156 C 18.523438 20.910156 17.554688 21.898438 17.554688 23.113281 C 17.554688 24.332031 18.523438 25.320312 19.742188 25.320312 C 20.960938 25.320312 21.949219 24.332031 21.949219 23.113281 C 21.949219 21.898438 20.960938 20.910156 19.742188 20.910156 Z M 12.707031 21.929688 C 11.191406 22.101562 10.09375 23.476562 10.261719 24.992188 C 10.433594 26.507812 11.808594 27.585938 13.324219 27.417969 C 14.839844 27.246094 15.921875 25.886719 15.75 24.371094 C 15.578125 22.855469 14.222656 21.757812 12.707031 21.929688 Z M 12.707031 21.929688 "/>
</g>
</svg>
