<?xml version="1.0" encoding="UTF-8"?>
<svg xmlns="http://www.w3.org/2000/svg" xmlns:xlink="http://www.w3.org/1999/xlink" width="28" height="28" viewBox="0 0 28 28" version="1.1">
<g id="surface1">
<path style=" stroke:none;fill-rule:nonzero;fill:rgb(100%,100%,100%);fill-opacity:1;" d="M 9.480469 5.175781 C 6.816406 5.175781 4.902344 6.78125 4.902344 9.386719 L 4.902344 11.667969 L 4.15625 11.667969 C 3.394531 11.667969 3.007812 12.050781 3.007812 12.816406 L 3.007812 19.304688 C 3.007812 19.679688 3.394531 20.453125 4.15625 20.453125 L 5.160156 20.453125 C 5.445312 21.6875 6.601562 22.550781 7.894531 22.402344 C 8.988281 22.28125 9.824219 21.464844 10.0625 20.453125 L 15.332031 20.453125 C 15.945312 20.449219 16.332031 19.679688 16.332031 19.304688 L 16.332031 12.816406 C 16.332031 12.050781 15.945312 11.667969 15.183594 11.667969 L 14.417969 11.667969 L 14.417969 9.386719 C 14.417969 6.714844 12.527344 5.175781 9.863281 5.175781 Z M 9.480469 7.089844 L 9.863281 7.089844 C 12.527344 7.089844 12.523438 9.371094 12.523438 10.136719 L 12.523438 11.667969 L 6.816406 11.667969 L 6.816406 10.136719 C 6.816406 9.371094 6.816406 7.089844 9.480469 7.089844 Z M 23.1875 16.261719 C 22.726562 16.3125 22.386719 16.730469 22.441406 17.191406 C 22.492188 17.652344 22.910156 17.988281 23.371094 17.9375 C 23.832031 17.886719 24.167969 17.46875 24.117188 17.007812 C 24.066406 16.546875 23.648438 16.207031 23.1875 16.261719 Z M 19.742188 21.839844 C 19.039062 21.839844 18.484375 22.410156 18.484375 23.113281 C 18.484375 23.816406 19.039062 24.390625 19.742188 24.390625 C 20.445312 24.390625 21.019531 23.816406 21.019531 23.113281 C 21.019531 22.410156 20.445312 21.839844 19.742188 21.839844 Z M 13.160156 22.914062 C 13.042969 22.902344 12.9375 22.917969 12.816406 22.933594 C 11.847656 23.042969 11.15625 23.898438 11.265625 24.863281 C 11.375 25.832031 12.230469 26.523438 13.199219 26.414062 C 14.164062 26.304688 14.875 25.449219 14.765625 24.480469 C 14.671875 23.636719 13.976562 22.988281 13.160156 22.914062 Z M 13.160156 22.914062 "/>
</g>
</svg>
